<svg width="78" height="83" viewBox="0 0 78 83" fill="none" xmlns="http://www.w3.org/2000/svg">
<mask id="path-1-inside-1_735_3051" fill="white">
<path d="M51.0566 3.00003L54.599 3.01495C55.3965 3.02114 56.1591 3.34272 56.7202 3.90943C57.2813 4.47614 57.5953 5.2419 57.5936 6.03941L57.5808 9.02337C57.5804 9.1101 57.6076 9.19471 57.6586 9.26487C57.7096 9.33504 57.7817 9.38708 57.8643 9.41342C59.248 9.85841 60.5749 10.4636 61.8181 11.2166C61.8958 11.2637 61.987 11.2837 62.0773 11.2733C62.1676 11.2629 62.2519 11.2227 62.3168 11.159L64.5399 8.94664C65.1082 8.38482 65.8761 8.07134 66.6752 8.07493C67.4744 8.07853 68.2394 8.39891 68.8027 8.96582L71.2943 11.4809C71.8561 12.0492 72.1696 12.8171 72.166 13.6162C72.1624 14.4154 71.842 15.1804 71.2751 15.7437L68.8581 18.1372C68.7968 18.1992 68.7567 18.279 68.7437 18.3652C68.7306 18.4514 68.7453 18.5395 68.7856 18.6168C69.4155 19.8188 69.9122 21.086 70.2669 22.3958C70.2891 22.4826 70.3394 22.5596 70.41 22.6147C70.4805 22.6699 70.5674 22.7001 70.657 22.7006L74.1248 22.7155C74.921 22.7234 75.6818 23.0453 76.2419 23.6113C76.8019 24.1773 77.1157 24.9416 77.1151 25.7378L77.0981 29.2781C77.0925 30.0754 76.7713 30.838 76.205 31.3992C75.6386 31.9603 74.8731 32.2744 74.0758 32.2727L70.5717 32.2556C70.483 32.2555 70.3967 32.2844 70.3259 32.3379C70.2551 32.3914 70.2037 32.4665 70.1796 32.5519C69.8063 33.8437 69.2946 35.0914 68.6535 36.2733C68.6115 36.3503 68.5954 36.4387 68.6077 36.5255C68.62 36.6123 68.66 36.6928 68.7217 36.755L71.1472 39.2125C71.7088 39.7808 72.0223 40.5485 72.0191 41.3475C72.0159 42.1464 71.6963 42.9115 71.1302 43.4753L68.613 45.9669C65.5472 48.1878 63.0643 45.7049 61.5746 44.2152L55.5559 37.6182C55.5056 37.5659 55.4703 37.5009 55.4537 37.4301C55.4371 37.3594 55.4398 37.2855 55.4616 37.2162C55.4834 37.1469 55.5235 37.0847 55.5775 37.0362C55.6316 36.9877 55.6978 36.9546 55.7691 36.9405C57.4646 36.5725 58.0384 35.7594 59.3154 34.585C60.5925 33.4105 61.5337 31.917 62.042 30.2581C62.5504 28.5992 62.6077 26.8349 62.2079 25.1465C61.8082 23.4582 60.9659 21.9068 59.7677 20.652C58.5694 19.3972 57.0585 18.4842 55.3904 18.0071C53.7223 17.5299 51.9572 17.5058 50.2766 17.9371C48.5961 18.3685 47.0608 19.2397 45.8287 20.4613C44.5966 21.6829 43.7121 22.2175 43.2663 23.8943C43.2486 23.965 43.2123 24.0297 43.1612 24.0816C43.11 24.1336 43.046 24.171 42.9755 24.1899C42.9051 24.2088 42.8309 24.2085 42.7607 24.1892C42.6904 24.1698 42.6266 24.132 42.5758 24.0797L34.7599 15.7437C34.1975 15.1756 33.3978 14.235 33.4014 13.4357C33.405 12.6364 33.7257 11.8712 34.2931 11.3082L36.8082 8.81449C37.3771 8.25348 38.145 7.94073 38.944 7.94473C39.743 7.94872 40.5078 8.26913 41.071 8.83581L42.8187 10.6006C42.8802 10.6628 42.9603 10.7033 43.0468 10.716C43.1333 10.7287 43.2216 10.7129 43.2983 10.6709C44.6906 9.93574 46.1701 9.37931 47.7018 9.01484C47.7907 8.99458 47.8701 8.94476 47.927 8.87352C47.9839 8.80228 48.015 8.71385 48.0151 8.62267L48.0279 5.99252C48.0341 5.19449 48.3563 4.43145 48.924 3.87055C49.4917 3.30965 50.2586 2.99662 51.0566 3.00003Z"/>
</mask>
<path d="M51.0566 3.00003L51.0481 5.00001L51.0482 5.00001L51.0566 3.00003ZM54.599 3.01495L54.6145 1.01499L54.6074 1.01497L54.599 3.01495ZM57.5936 6.03941L59.5936 6.04798L59.5936 6.0437L57.5936 6.03941ZM57.5808 9.02337L59.5808 9.03403L59.5808 9.03194L57.5808 9.02337ZM57.8643 9.41342L58.4766 7.50945L58.4716 7.50785L57.8643 9.41342ZM61.8181 11.2166L62.8558 9.50685L62.8542 9.50593L61.8181 11.2166ZM62.3168 11.159L63.7166 12.5875L63.7221 12.5821L63.7276 12.5766L62.3168 11.159ZM64.5399 8.94664L63.1338 7.52431L63.1291 7.52903L64.5399 8.94664ZM68.8027 8.96582L70.2235 7.55824L70.2215 7.55621L68.8027 8.96582ZM71.2943 11.4809L72.7166 10.0748L72.7151 10.0733L71.2943 11.4809ZM71.2751 15.7437L72.6824 17.1648L72.6847 17.1625L71.2751 15.7437ZM68.8581 18.1372L67.4508 16.7162L67.4438 16.7231L67.4369 16.7301L68.8581 18.1372ZM68.7856 18.6168L67.0121 19.5412L67.0141 19.5451L68.7856 18.6168ZM70.2669 22.3958L72.2048 21.9011L72.2012 21.887L72.1974 21.873L70.2669 22.3958ZM70.657 22.7006L70.6455 24.7005L70.6484 24.7006L70.657 22.7006ZM74.1248 22.7155L74.1445 20.7156L74.1334 20.7155L74.1248 22.7155ZM77.1151 25.7378L79.1151 25.7474L79.1151 25.7393L77.1151 25.7378ZM77.0981 29.2781L79.098 29.2922L79.0981 29.2877L77.0981 29.2781ZM74.0758 32.2727L74.066 34.2727L74.0715 34.2727L74.0758 32.2727ZM70.5717 32.2556L70.5815 30.2557L70.574 30.2556L70.5717 32.2556ZM70.1796 32.5519L72.101 33.1071L72.104 33.0964L70.1796 32.5519ZM68.6535 36.2733L70.4089 37.2318L70.4114 37.227L68.6535 36.2733ZM68.7217 36.755L70.1451 35.3501L70.142 35.347L68.7217 36.755ZM71.1472 39.2125L69.7238 40.6175L69.7246 40.6183L71.1472 39.2125ZM71.1302 43.4753L72.5371 44.8968L72.5415 44.8924L71.1302 43.4753ZM68.613 45.9669L69.7863 47.5866L69.9107 47.4965L70.0199 47.3884L68.613 45.9669ZM61.5746 44.2152L60.0971 45.5632L60.128 45.5971L60.1604 45.6295L61.5746 44.2152ZM55.5559 37.6182L57.0334 36.2703L57.016 36.2512L56.9981 36.2326L55.5559 37.6182ZM55.7691 36.9405L56.1586 38.9022L56.176 38.8987L56.1932 38.895L55.7691 36.9405ZM43.2663 23.8943L41.3335 23.3804L41.3299 23.3939L41.3265 23.4075L43.2663 23.8943ZM42.5758 24.0797L41.1168 25.4476L41.1286 25.4603L41.1406 25.4727L42.5758 24.0797ZM34.7599 15.7437L36.2189 14.3757L36.2003 14.3559L36.1812 14.3366L34.7599 15.7437ZM34.2931 11.3082L32.885 9.88801L32.8845 9.88844L34.2931 11.3082ZM36.8082 8.81449L35.4038 7.39047L35.4 7.39427L36.8082 8.81449ZM41.071 8.83581L42.4921 7.42847L42.4895 7.42591L41.071 8.83581ZM42.8187 10.6006L44.2411 9.19453L44.2398 9.19328L42.8187 10.6006ZM43.2983 10.6709L42.3644 8.90238L42.352 8.90893L42.3397 8.91566L43.2983 10.6709ZM47.7018 9.01484L47.2573 7.06485L47.2481 7.06696L47.2388 7.06917L47.7018 9.01484ZM48.0151 8.62267L46.0151 8.61294L46.0151 8.61976L48.0151 8.62267ZM48.0279 5.99252L46.0279 5.97699L46.0279 5.98279L48.0279 5.99252ZM51.0482 5.00001L54.5906 5.01493L54.6074 1.01497L51.065 1.00005L51.0482 5.00001ZM54.5835 5.01489C54.8525 5.01698 55.1097 5.12545 55.299 5.31662L58.1414 2.50225C57.2085 1.55999 55.9405 1.02531 54.6145 1.01501L54.5835 5.01489ZM55.299 5.31662C55.4883 5.50779 55.5942 5.7661 55.5936 6.03511L59.5936 6.0437C59.5965 4.71771 59.0744 3.4445 58.1414 2.50225L55.299 5.31662ZM55.5936 6.03084L55.5809 9.0148L59.5808 9.03194L59.5936 6.04798L55.5936 6.03084ZM55.5809 9.01271C55.5781 9.52556 55.7393 10.0259 56.0408 10.4407L59.2765 8.08906C59.476 8.36357 59.5826 8.69465 59.5808 9.03403L55.5809 9.01271ZM56.0408 10.4407C56.3422 10.8555 56.7683 11.1632 57.257 11.319L58.4716 7.50785C58.795 7.61092 59.077 7.81458 59.2765 8.08906L56.0408 10.4407ZM57.252 11.3174C58.4873 11.7147 59.672 12.2549 60.7819 12.9272L62.8542 9.50593C61.4778 8.67218 60.0086 8.00215 58.4766 7.50946L57.252 11.3174ZM60.7804 12.9263C61.2379 13.204 61.7749 13.3214 62.3065 13.2601L61.848 9.28646C62.1991 9.24595 62.5537 9.3235 62.8558 9.50685L60.7804 12.9263ZM62.3065 13.2601C62.8382 13.1987 63.3343 12.9621 63.7166 12.5875L60.917 9.73055C61.1694 9.4832 61.497 9.32696 61.848 9.28646L62.3065 13.2601ZM63.7276 12.5766L65.9507 10.3642L63.1291 7.52903L60.906 9.74142L63.7276 12.5766ZM65.9459 10.369C66.1376 10.1794 66.3967 10.0737 66.6662 10.0749L66.6842 6.07495C65.3556 6.06898 64.0787 6.5902 63.1338 7.52431L65.9459 10.369ZM66.6662 10.0749C66.9358 10.0761 67.1939 10.1842 67.3839 10.3754L70.2215 7.55621C69.285 6.61363 68.0129 6.08093 66.6842 6.07495L66.6662 10.0749ZM67.3818 10.3734L69.8735 12.8884L72.7151 10.0733L70.2235 7.55824L67.3818 10.3734ZM69.872 12.8869C70.0615 13.0786 70.1672 13.3377 70.166 13.6072L74.166 13.6252C74.1719 12.2966 73.6507 11.0197 72.7166 10.0748L69.872 12.8869ZM70.166 13.6072C70.1648 13.8768 70.0567 14.1349 69.8655 14.3249L72.6847 17.1625C73.6273 16.226 74.16 14.9539 74.166 13.6252L70.166 13.6072ZM69.8678 14.3226L67.4508 16.7162L70.2654 19.5583L72.6824 17.1648L69.8678 14.3226ZM67.4369 16.7301C67.0773 17.0932 66.8425 17.5611 66.7661 18.0664L70.7212 18.664C70.6709 18.9969 70.5162 19.3052 70.2793 19.5444L67.4369 16.7301ZM66.7661 18.0664C66.6898 18.5717 66.7759 19.0881 67.0121 19.5412L70.5592 17.6924C70.7148 17.9909 70.7715 18.3311 70.7212 18.664L66.7661 18.0664ZM67.0141 19.5451C67.5764 20.6181 68.0198 21.7493 68.3365 22.9186L72.1974 21.873C71.8046 20.4226 71.2546 19.0194 70.5571 17.6885L67.0141 19.5451ZM68.3291 22.8905C68.4607 23.4059 68.7594 23.8631 69.1785 24.1906L71.6414 21.0388C71.9194 21.256 72.1175 21.5593 72.2048 21.9011L68.3291 22.8905ZM69.1785 24.1906C69.5977 24.5181 70.1135 24.6975 70.6455 24.7005L70.6685 20.7006C71.0213 20.7026 71.3634 20.8216 71.6414 21.0388L69.1785 24.1906ZM70.6484 24.7006L74.1162 24.7155L74.1334 20.7155L70.6656 20.7006L70.6484 24.7006ZM74.105 24.7154C74.374 24.7181 74.631 24.8268 74.8201 25.018L77.6636 22.2047C76.7327 21.2638 75.468 20.7287 74.1445 20.7156L74.105 24.7154ZM74.8201 25.018C75.0093 25.2092 75.1153 25.4674 75.1151 25.7363L79.1151 25.7393C79.1161 24.4158 78.5944 23.1455 77.6636 22.2047L74.8201 25.018ZM75.1152 25.7282L75.0981 29.2684L79.0981 29.2877L79.1151 25.7474L75.1152 25.7282ZM75.0981 29.2639C75.0962 29.5325 74.9881 29.7894 74.7973 29.9784L77.6127 32.8199C78.5546 31.8866 79.0887 30.6182 79.098 29.2922L75.0981 29.2639ZM74.7973 29.9784C74.6065 30.1675 74.3486 30.2733 74.08 30.2727L74.0715 34.2727C75.3975 34.2755 76.6707 33.7532 77.6127 32.8199L74.7973 29.9784ZM74.0855 30.2727L70.5815 30.2557L70.562 34.2556L74.066 34.2727L74.0855 30.2727ZM70.574 30.2556C70.0494 30.2551 69.5389 30.4259 69.1203 30.7421L71.5314 33.9337C71.2544 34.143 70.9167 34.256 70.5695 34.2556L70.574 30.2556ZM69.1203 30.7421C68.7017 31.0583 68.3979 31.5026 68.2551 32.0074L72.104 33.0964C72.0095 33.4305 71.8084 33.7245 71.5314 33.9337L69.1203 30.7421ZM68.2581 31.9967C67.9249 33.1502 67.468 34.2643 66.8955 35.3197L70.4114 37.227C71.1213 35.9185 71.6877 34.5372 72.1009 33.1071L68.2581 31.9967ZM66.8981 35.3149C66.6497 35.7698 66.5548 36.2927 66.6275 36.8059L70.5879 36.2451C70.636 36.5847 70.5732 36.9307 70.4089 37.2318L66.8981 35.3149ZM66.6275 36.8059C66.7001 37.3191 66.9365 37.7951 67.3013 38.1631L70.142 35.347C70.3834 35.5905 70.5399 35.9055 70.5879 36.2451L66.6275 36.8059ZM67.2982 38.16L69.7238 40.6175L72.5706 37.8076L70.1451 35.3501L67.2982 38.16ZM69.7246 40.6183C69.9143 40.8103 70.0202 41.0696 70.0191 41.3395L74.0191 41.3555C74.0244 40.0274 73.5033 38.7514 72.5698 37.8068L69.7246 40.6183ZM70.0191 41.3395C70.018 41.6093 69.9101 41.8678 69.7188 42.0582L72.5415 44.8924C73.4825 43.9553 74.0138 42.6835 74.0191 41.3555L70.0191 41.3395ZM69.7232 42.0539L67.206 44.5455L70.0199 47.3884L72.5371 44.8968L69.7232 42.0539ZM56.9981 36.2326C57.1964 36.4389 57.3355 36.6948 57.4008 36.9735L53.5065 37.8868C53.605 38.307 53.8148 38.6928 54.1137 39.0039L56.9981 36.2326ZM57.4008 36.9735C57.4662 37.2521 57.4553 37.5432 57.3695 37.8162L53.5537 36.6162C53.4243 37.0278 53.408 37.4667 53.5065 37.8868L57.4008 36.9735ZM57.3695 37.8162C57.2837 38.0892 57.1259 38.334 56.9129 38.5251L54.2422 35.5473C53.921 35.8354 53.6832 36.2046 53.5537 36.6162L57.3695 37.8162ZM56.9129 38.5251C56.6998 38.7162 56.4393 38.8464 56.1586 38.9022L55.3795 34.9788C54.9563 35.0628 54.5635 35.2592 54.2422 35.5473L56.9129 38.5251ZM56.1932 38.895C58.5559 38.3822 59.6057 37.0352 60.6693 36.0571L57.9616 33.1128C56.4711 34.4836 56.3733 34.7628 55.3449 34.986L56.1932 38.895ZM60.6693 36.0571C62.2079 34.6421 63.3418 32.8427 63.9542 30.8441L60.1298 29.6721C59.7255 30.9913 58.9771 32.1789 57.9616 33.1128L60.6693 36.0571ZM63.9542 30.8441C64.5667 28.8455 64.6357 26.7198 64.1541 24.6857L60.2617 25.6073C60.5796 26.9499 60.5341 28.3529 60.1298 29.6721L63.9542 30.8441ZM64.1541 24.6857C63.6725 22.6516 62.6577 20.7826 61.2141 19.2708L58.3212 22.0332C59.2741 23.031 59.9439 24.2647 60.2617 25.6073L64.1541 24.6857ZM61.2141 19.2708C59.7705 17.759 57.9502 16.6591 55.9404 16.0842L54.8404 19.93C56.1669 20.3094 57.3684 21.0354 58.3212 22.0332L61.2141 19.2708ZM55.9404 16.0842C53.9307 15.5093 51.8041 15.4802 49.7794 15.9999L50.7738 19.8743C52.1102 19.5313 53.5139 19.5505 54.8404 19.93L55.9404 16.0842ZM49.7794 15.9999C47.7547 16.5196 45.905 17.5693 44.4205 19.041L47.2368 21.8816C48.2166 20.9102 49.4375 20.2173 50.7738 19.8743L49.7794 15.9999ZM44.4205 19.041C43.4385 20.0147 41.9576 21.0327 41.3335 23.3804L45.1992 24.4081C45.4666 23.4023 45.7546 23.351 47.2368 21.8816L44.4205 19.041ZM41.3265 23.4075C41.3954 23.1327 41.5366 22.8812 41.7353 22.6791L44.587 25.4841C44.888 25.1781 45.1018 24.7972 45.2062 24.381L41.3265 23.4075ZM41.7353 22.6791C41.9341 22.4771 42.1832 22.3318 42.4569 22.2583L43.4942 26.1215C43.9087 26.0102 44.286 25.7901 44.587 25.4841L41.7353 22.6791ZM42.4569 22.2583C42.7306 22.1848 43.019 22.1858 43.2922 22.2611L42.2292 26.1173C42.6429 26.2313 43.0797 26.2328 43.4942 26.1215L42.4569 22.2583ZM43.2922 22.2611C43.5654 22.3364 43.8135 22.4834 44.0109 22.6867L41.1406 25.4727C41.4396 25.7806 41.8154 26.0032 42.2292 26.1173L43.2922 22.2611ZM36.1812 14.3366C35.9431 14.096 35.7026 13.823 35.5343 13.5697C35.4519 13.4456 35.4096 13.36 35.3916 13.3149C35.3721 13.2657 35.4019 13.3165 35.4014 13.4447L31.4014 13.4267C31.3969 14.4315 31.8671 15.2782 32.2025 15.7831C32.5738 16.3419 33.0144 16.8233 33.3386 17.1507L36.1812 14.3366ZM35.4014 13.4447C35.4026 13.1754 35.5106 12.9177 35.7018 12.728L32.8845 9.88844C31.9408 10.8247 31.4074 12.0973 31.4014 13.4267L35.4014 13.4447ZM35.7013 12.7284L38.2164 10.2347L35.4 7.39427L32.885 9.88801L35.7013 12.7284ZM38.2125 10.2385C38.4047 10.049 38.6641 9.94335 38.934 9.9447L38.954 5.94475C37.626 5.93811 36.3494 6.45796 35.4038 7.39048L38.2125 10.2385ZM38.934 9.9447C39.2039 9.94605 39.4622 10.0543 39.6525 10.2457L42.4895 7.42591C41.5533 6.48398 40.282 5.95139 38.954 5.94475L38.934 9.9447ZM39.6499 10.2431L41.3977 12.0079L44.2398 9.19328L42.4921 7.42848L39.6499 10.2431ZM41.3964 12.0067C41.7631 12.3776 42.2405 12.6191 42.7565 12.6948L43.337 8.73714C43.68 8.78744 43.9973 8.94797 44.2411 9.19453L41.3964 12.0067ZM42.7565 12.6948C43.2726 12.7705 43.7992 12.6762 44.257 12.4262L42.3397 8.91566C42.6439 8.7495 42.994 8.68683 43.337 8.73714L42.7565 12.6948ZM44.2322 12.4395C45.4756 11.7829 46.7969 11.286 48.1648 10.9605L47.2388 7.06917C45.5433 7.47261 43.9056 8.08855 42.3644 8.90238L44.2322 12.4395ZM48.1462 10.9648C48.6765 10.844 49.1501 10.5468 49.4896 10.1219L46.3644 7.62517C46.5901 7.3427 46.9049 7.14518 47.2573 7.06485L48.1462 10.9648ZM49.4896 10.1219C49.8291 9.69693 50.0143 9.16941 50.0151 8.62557L46.0151 8.61976C46.0156 8.25829 46.1388 7.90764 46.3644 7.62517L49.4896 10.1219ZM50.0151 8.63239L50.0279 6.00224L46.0279 5.98279L46.0151 8.61294L50.0151 8.63239ZM50.0278 6.00804C50.0299 5.73923 50.1385 5.48219 50.3297 5.29325L47.5183 2.44785C46.5742 3.38071 46.0383 4.64975 46.028 5.97699L50.0278 6.00804ZM50.3297 5.29325C50.5209 5.10431 50.7793 4.99886 51.0481 5.00001L51.0652 1.00005C49.7379 0.994378 48.4625 1.515 47.5183 2.44785L50.3297 5.29325ZM63.0521 42.8673L57.0334 36.2703L54.0784 38.9662L60.0971 45.5632L63.0521 42.8673ZM33.3009 17.1116L41.1168 25.4476L44.0348 22.7117L36.2189 14.3757L33.3009 17.1116ZM60.1604 45.6295C60.8597 46.3287 62.1049 47.605 63.69 48.31C64.523 48.6804 65.5039 48.9221 66.5925 48.833C67.6893 48.7432 68.7625 48.3282 69.7863 47.5866L67.4397 44.3473C66.9305 44.7161 66.5437 44.8236 66.2661 44.8463C65.9804 44.8697 65.6727 44.814 65.3155 44.6551C64.5203 44.3015 63.7793 43.5915 62.9888 42.801L60.1604 45.6295Z" fill="url(#paint0_linear_735_3051)" mask="url(#path-1-inside-1_735_3051)"/>
<path d="M7.85645 39.5138L7.85596 39.5124C7.80468 39.3574 7.78139 39.1945 7.78719 39.0313L7.78724 39.0299C7.7954 38.8659 7.83444 38.705 7.90233 38.5556L7.9036 38.5528L7.90364 38.5528C7.97644 38.4047 8.07669 38.2718 8.19905 38.1612L8.1988 38.1614L8.26637 38.2351L8.19931 38.1609L7.85645 39.5138ZM7.85645 39.5138C7.91232 39.6746 7.99915 39.8229 8.11201 39.9503M7.85645 39.5138L8.11201 39.9503M10.9518 35.7735L11.0194 35.8472L11.0143 35.8519L10.9518 35.7735ZM10.9518 35.7735L10.8737 35.8359L10.8779 35.8413L10.9518 35.7735ZM8.11201 39.9503C8.11211 39.9504 8.11221 39.9505 8.1123 39.9506L8.11201 39.9503ZM66.6774 60.8852L66.6773 60.8867C66.6478 61.7935 66.2685 62.6536 65.6187 63.2868L46.5997 80.5621C46.2605 80.8661 45.8643 81.0998 45.434 81.2494C45.0037 81.399 44.548 81.4616 44.0933 81.4336C43.6386 81.4056 43.194 81.2875 42.7853 81.0862C42.3767 80.8849 42.0121 80.6044 41.7128 80.261L41.7114 80.2595L6.43725 41.4249C5.82839 40.7546 5.51076 39.8699 5.55421 38.9654C5.59767 38.0609 5.99866 37.2107 6.66897 36.6018L6.66928 36.6021L6.67566 36.5951L9.95926 32.9911L16.0194 39.5329C15.8961 41.872 14.9862 44.1014 13.4367 45.8592L13.3776 45.9263L13.4377 45.9926L37.8521 72.8712L37.9126 72.9378L37.9852 72.8846C39.8958 71.4852 42.227 70.7801 44.593 70.8861C46.9589 70.9921 49.2178 71.9028 50.9956 73.4675L51.0627 73.5266L51.1289 73.4665L59.8776 65.5199L64.1005 61.6841C64.3564 61.4517 64.5095 61.1271 64.5261 60.7818C64.5279 60.7446 64.5171 60.708 64.5054 60.6781C64.4929 60.6463 64.4752 60.612 64.4542 60.5765C64.4123 60.5054 64.3525 60.421 64.2808 60.3281C64.1371 60.142 63.9389 59.9134 63.7219 59.6743C63.2878 59.1959 62.7728 58.669 62.4549 58.3438L62.4545 58.3433C62.3694 58.2563 62.2992 58.1844 62.2483 58.1317L64.0729 56.7633C64.0919 56.7836 64.1133 56.8064 64.1368 56.8314L64.1368 56.8315C64.407 57.1197 64.9591 57.7086 65.4617 58.2751C65.7131 58.5584 65.9513 58.8352 66.1354 59.0654C66.2275 59.1806 66.3053 59.2831 66.3641 59.3684C66.4245 59.4559 66.4601 59.5183 66.4736 59.5552C66.6294 59.9806 66.6987 60.4327 66.6774 60.8852ZM43.2739 78.8403L43.2738 78.8403L43.2763 78.8428C43.4084 78.9784 43.5684 79.0835 43.7452 79.151C43.8945 79.2079 44.0527 79.2369 44.212 79.2366L44.212 79.2384C44.5402 79.2531 44.8619 79.1434 45.1126 78.931L45.1127 78.9311L45.1153 78.9287L49.3827 75.0526L49.4684 74.9748L49.379 74.9013C47.9943 73.763 46.2778 73.1045 44.4871 73.0247C42.6964 72.9449 40.9281 73.4481 39.4477 74.4586L39.3528 74.5234L39.4301 74.6085L43.2739 78.8403Z" fill="url(#paint1_linear_735_3051)" stroke="url(#paint2_linear_735_3051)" stroke-width="0.2"/>
<path d="M67.6705 51.9469L67.6704 51.9484C67.6409 52.8551 67.2615 53.7153 66.6118 54.3485L47.5928 71.6237C47.2536 71.9278 46.8573 72.1614 46.4271 72.311C45.9968 72.4607 45.541 72.5233 45.0864 72.4953C44.6317 72.4673 44.1871 72.3492 43.7784 72.1479C43.3697 71.9466 43.0052 71.6661 42.7058 71.3227L42.7045 71.3212L7.43033 32.4866C6.82147 31.8163 6.50383 30.9316 6.54729 30.027C6.59074 29.1225 6.99173 28.2723 7.66205 27.6635L26.6826 10.3868C27.3541 9.78534 28.2361 9.47383 29.1363 9.52018C30.0366 9.56654 30.8821 9.96708 31.4882 10.6344L66.7623 49.469L66.7631 49.4699C67.0716 49.8016 67.3108 50.1915 67.4666 50.6169C67.6224 51.0422 67.6917 51.4944 67.6705 51.9469ZM28.171 11.9353L28.1705 11.9357L23.9719 15.7982L23.8874 15.8759L23.976 15.9489C25.3523 17.0829 27.0578 17.7424 28.8389 17.8295C30.62 17.9166 32.3818 17.4267 33.8622 16.4325L33.9583 16.368L33.8804 16.2823L30.0123 12.0237C29.7799 11.7678 29.4553 11.6147 29.11 11.5981C28.7646 11.5816 28.4269 11.7028 28.171 11.9353ZM8.84903 30.5741L8.84952 30.5755C8.9054 30.7363 8.99222 30.8845 9.10509 31.0119C9.10519 31.012 9.10528 31.0122 9.10538 31.0123L12.8433 35.3065L12.9199 35.3945L12.9952 35.3053C14.1475 33.9398 14.8253 32.2371 14.9266 30.4532C15.0278 28.6694 14.5471 26.9008 13.5567 25.4137L13.4922 25.317L13.4062 25.3951L9.19239 29.2226L9.25944 29.2968L9.19221 29.2228L9.19231 29.2227C9.06987 29.3334 8.96955 29.4663 8.89671 29.6145L8.89667 29.6144L8.8954 29.6172C8.82752 29.7667 8.78848 29.9276 8.78032 30.0916L8.78027 30.093C8.77446 30.2561 8.79775 30.419 8.84903 30.5741ZM45.205 70.2983L45.205 70.3001C45.5333 70.3148 45.855 70.205 46.1057 69.9927L46.1058 69.9928L46.1083 69.9904L50.3758 66.1142L50.4614 66.0364L50.372 65.963C48.9874 64.8247 47.2709 64.1662 45.4802 64.0864C43.6895 64.0066 41.9212 64.5097 40.4408 65.5203L40.3459 65.5851L40.4231 65.6701L44.267 69.902L44.2669 69.902L44.2694 69.9045C44.4015 70.0401 44.5615 70.1452 44.7383 70.2127C44.8876 70.2696 45.0458 70.2985 45.205 70.2983ZM51.9887 64.5292L52.0558 64.5883L52.122 64.5281L59.1334 58.1595L59.1996 58.0994L59.1472 58.0269C57.7643 56.1157 57.0727 53.7909 57.1859 51.4346C57.2991 49.0782 58.2104 46.8305 59.7701 45.0606L59.8293 44.9935L59.7691 44.9273L35.3548 18.0486L35.2946 17.9824L35.2221 18.0349C33.3126 19.4169 30.99 20.1089 28.6354 19.9973C26.2809 19.8857 24.0342 18.9772 22.2639 17.4207L22.1968 17.3617L22.1306 17.4218L15.0746 23.8309L15.0085 23.891L15.0608 23.9634C16.4403 25.8748 17.1293 28.1983 17.0146 30.5527C16.9 32.9071 15.9885 35.1526 14.4298 36.9209L14.3707 36.988L14.4308 37.0542L38.8451 63.9329L38.9057 63.9995L38.9783 63.9463C40.8889 62.5468 43.2201 61.8418 45.586 61.9477C47.952 62.0537 50.2108 62.9645 51.9887 64.5292ZM60.7201 56.5628L60.7845 56.6598L60.8707 56.5816L65.0935 52.7458C65.3495 52.5134 65.5026 52.1888 65.5191 51.8435C65.5357 51.4981 65.4145 51.1604 65.182 50.9044L61.3544 46.6904L61.2765 46.6047L61.2031 46.6942C60.0746 48.0691 59.4157 49.7691 59.3228 51.5453L59.3228 51.5463C59.2465 53.3241 59.7357 55.0804 60.7201 56.5628Z" fill="url(#paint3_linear_735_3051)" stroke="url(#paint4_linear_735_3051)" stroke-width="0.2"/>
<path d="M36.7535 38.4668L36.7222 38.4417C36.4235 38.202 36.0794 38.0253 35.7106 37.9221L35.6116 37.8944L35.6945 37.8337L37.0339 36.8515C37.0834 36.8152 37.1253 36.7695 37.1572 36.717C37.189 36.6646 37.2102 36.6063 37.2195 36.5456C37.2289 36.4849 37.2262 36.423 37.2116 36.3634C37.197 36.3037 37.1708 36.2476 37.1345 36.198C37.0612 36.098 36.9511 36.0313 36.8286 36.0124C36.706 35.9935 36.581 36.0241 36.481 36.0975L31.9289 39.4352C31.8289 39.5085 31.7621 39.6186 31.7432 39.7411C31.7244 39.8635 31.7549 39.9883 31.8279 40.0883C31.9032 40.1859 32.0131 40.2509 32.1349 40.2696C32.2568 40.2884 32.3811 40.2595 32.4822 40.189L33.9473 39.1147L33.9474 39.1147L33.9769 39.155L36.7535 38.4668ZM36.7535 38.4668L36.7848 38.4417L37.9167 37.5323C38.0307 37.5552 38.1323 37.6199 38.2014 37.7141C38.2747 37.8141 38.3053 37.9392 38.2864 38.0617C38.2675 38.1843 38.2008 38.2943 38.1008 38.3676L37.2661 38.9797L37.2292 39.0067L37.2528 39.0458C37.6154 39.6458 37.7389 40.3603 37.5987 41.0472C37.4585 41.7341 37.0649 42.343 36.4962 42.7529L36.4958 42.7531L35.9426 43.1588L35.8558 43.2224L35.9604 43.2477L39.4802 44.0995L39.4802 44.0996L39.4845 44.1003C39.5455 44.1095 39.604 44.1306 39.6568 44.1625C39.7095 44.1944 39.7554 44.2364 39.7919 44.2862C39.8283 44.3359 39.8546 44.3923 39.8691 44.4522C39.8837 44.512 39.8863 44.574 39.8768 44.6348C39.8555 44.7567 39.7878 44.8657 39.6879 44.9389C39.5886 45.0118 39.4651 45.0436 39.343 45.0278L34.7216 43.9562C34.7064 43.9385 34.6929 43.9193 34.6813 43.899L34.6816 43.8988L34.6782 43.8942L34.5715 43.7486L34.5721 43.7481L34.5658 43.7421C34.5263 43.704 34.4936 43.6594 34.4692 43.6103L34.4698 43.6099L34.4647 43.603L34.4156 43.536C34.405 43.52 34.3938 43.5044 34.3821 43.4892L34.3829 43.4115L36.7535 38.4668Z" fill="#D9D9D9"/>
<path d="M36.7535 38.4668L36.7222 38.4417C36.4235 38.202 36.0794 38.0253 35.7106 37.9221L35.6116 37.8944L35.6945 37.8337L37.0339 36.8515C37.0834 36.8152 37.1253 36.7695 37.1572 36.717C37.189 36.6646 37.2102 36.6063 37.2195 36.5456C37.2289 36.4849 37.2262 36.423 37.2116 36.3634C37.197 36.3037 37.1708 36.2476 37.1345 36.198C37.0612 36.098 36.9511 36.0313 36.8286 36.0124C36.706 35.9935 36.581 36.0241 36.481 36.0975L31.9289 39.4352C31.8289 39.5085 31.7621 39.6186 31.7432 39.7411C31.7244 39.8635 31.7549 39.9883 31.8279 40.0883C31.9032 40.1859 32.0131 40.2509 32.1349 40.2696C32.2568 40.2884 32.3811 40.2595 32.4822 40.189L33.9473 39.1147L33.9474 39.1147L33.9769 39.155L36.7535 38.4668ZM36.7535 38.4668L36.7848 38.4417L37.9167 37.5323C38.0307 37.5552 38.1323 37.6199 38.2014 37.7141C38.2747 37.8141 38.3053 37.9392 38.2864 38.0617C38.2675 38.1843 38.2008 38.2943 38.1008 38.3676L37.2661 38.9797L37.2292 39.0067L37.2528 39.0458C37.6154 39.6458 37.7389 40.3603 37.5987 41.0472C37.4585 41.7341 37.0649 42.343 36.4962 42.7529L36.4958 42.7531L35.9426 43.1588L35.8558 43.2224L35.9604 43.2477L39.4802 44.0995L39.4802 44.0996L39.4845 44.1003C39.5455 44.1095 39.604 44.1306 39.6568 44.1625C39.7095 44.1944 39.7554 44.2364 39.7919 44.2862C39.8283 44.3359 39.8546 44.3923 39.8691 44.4522C39.8837 44.512 39.8863 44.574 39.8768 44.6348C39.8555 44.7567 39.7878 44.8657 39.6879 44.9389C39.5886 45.0118 39.4651 45.0436 39.343 45.0278L34.7216 43.9562C34.7064 43.9385 34.6929 43.9193 34.6813 43.899L34.6816 43.8988L34.6782 43.8942L34.5715 43.7486L34.5721 43.7481L34.5658 43.7421C34.5263 43.704 34.4936 43.6594 34.4692 43.6103L34.4698 43.6099L34.4647 43.603L34.4156 43.536C34.405 43.52 34.3938 43.5044 34.3821 43.4892L34.3829 43.4115L36.7535 38.4668Z" fill="url(#paint5_linear_735_3051)"/>
<path d="M36.7535 38.4668L36.7222 38.4417C36.4235 38.202 36.0794 38.0253 35.7106 37.9221L35.6116 37.8944L35.6945 37.8337L37.0339 36.8515C37.0834 36.8152 37.1253 36.7695 37.1572 36.717C37.189 36.6646 37.2102 36.6063 37.2195 36.5456C37.2289 36.4849 37.2262 36.423 37.2116 36.3634C37.197 36.3037 37.1708 36.2476 37.1345 36.198C37.0612 36.098 36.9511 36.0313 36.8286 36.0124C36.706 35.9935 36.581 36.0241 36.481 36.0975L31.9289 39.4352C31.8289 39.5085 31.7621 39.6186 31.7432 39.7411C31.7244 39.8635 31.7549 39.9883 31.8279 40.0883C31.9032 40.1859 32.0131 40.2509 32.1349 40.2696C32.2568 40.2884 32.3811 40.2595 32.4822 40.189L33.9473 39.1147L33.9474 39.1147L33.9769 39.155L36.7535 38.4668ZM36.7535 38.4668L36.7848 38.4417L37.9167 37.5323C38.0307 37.5552 38.1323 37.6199 38.2014 37.7141C38.2747 37.8141 38.3053 37.9392 38.2864 38.0617C38.2675 38.1843 38.2008 38.2943 38.1008 38.3676L37.2661 38.9797L37.2292 39.0067L37.2528 39.0458C37.6154 39.6458 37.7389 40.3603 37.5987 41.0472C37.4585 41.7341 37.0649 42.343 36.4962 42.7529L36.4958 42.7531L35.9426 43.1588L35.8558 43.2224L35.9604 43.2477L39.4802 44.0995L39.4802 44.0996L39.4845 44.1003C39.5455 44.1095 39.604 44.1306 39.6568 44.1625C39.7095 44.1944 39.7554 44.2364 39.7919 44.2862C39.8283 44.3359 39.8546 44.3923 39.8691 44.4522C39.8837 44.512 39.8863 44.574 39.8768 44.6348C39.8555 44.7567 39.7878 44.8657 39.6879 44.9389C39.5886 45.0118 39.4651 45.0436 39.343 45.0278L34.7216 43.9562C34.7064 43.9385 34.6929 43.9193 34.6813 43.899L34.6816 43.8988L34.6782 43.8942L34.5715 43.7486L34.5721 43.7481L34.5658 43.7421C34.5263 43.704 34.4936 43.6594 34.4692 43.6103L34.4698 43.6099L34.4647 43.603L34.4156 43.536C34.405 43.52 34.3938 43.5044 34.3821 43.4892L34.3829 43.4115L36.7535 38.4668Z" stroke="url(#paint6_linear_735_3051)" stroke-width="0.1"/>
<path d="M43.1659 35.4896L43.1657 35.4895C42.08 34.2941 40.6641 33.4476 39.0973 33.0569C37.5304 32.6662 35.8829 32.749 34.363 33.2946C32.8432 33.8403 31.5192 34.8244 30.5587 36.1225C29.5981 37.4206 29.0441 38.9744 28.9666 40.5873C28.8891 42.2003 29.2916 43.8001 30.1233 45.1843C30.955 46.5685 32.1785 47.675 33.639 48.3638C35.0996 49.0527 36.7316 49.293 38.3287 49.0543C39.9258 48.8156 41.4163 48.1087 42.6116 47.0229L42.6118 47.0228C44.2117 45.5652 45.1685 43.5326 45.2724 41.3707C45.3762 39.2088 44.6187 37.0939 43.1659 35.4896ZM29.3922 48C28.0037 46.4713 27.0996 44.5651 26.7944 42.5225C26.4891 40.4799 26.7964 38.3927 27.6774 36.5247C28.5584 34.6568 29.9736 33.092 31.7439 32.0283C33.5142 30.9647 35.5602 30.4498 37.6231 30.5489C39.686 30.648 41.6732 31.3566 43.3333 32.5851C44.9935 33.8136 46.2521 35.5068 46.95 37.4506C47.6479 39.3945 47.7537 41.5015 47.254 43.5055C46.7544 45.5094 45.6717 47.3201 44.143 48.7087C42.0916 50.5678 39.3864 51.5373 36.6211 51.4044C33.8557 51.2716 31.256 50.0472 29.3922 48Z" fill="url(#paint7_linear_735_3051)" stroke="url(#paint8_linear_735_3051)" stroke-width="0.25"/>
<path d="M39 8.83745C43.4205 8.83745 47 8.46458 47 7.99954C47 7.53449 43.4164 7.16162 39 7.16162C34.5836 7.16162 31 7.53449 31 7.99954C31 8.46458 34.5815 8.83745 39 8.83745Z" fill="url(#paint9_radial_735_3051)"/>
<path d="M39.9107 8C39.9107 12.4158 39.5004 16 38.9979 16C38.4953 16 38.083 12.4158 38.083 8C38.083 3.58418 38.4933 0 38.9979 0C39.5025 0 39.9107 3.58209 39.9107 8Z" fill="url(#paint10_radial_735_3051)"/>
<path d="M67 60.8375C71.4205 60.8375 75 60.4646 75 59.9995C75 59.5345 71.4164 59.1616 67 59.1616C62.5836 59.1616 59 59.5345 59 59.9995C59 60.4646 62.5815 60.8375 67 60.8375Z" fill="url(#paint11_radial_735_3051)"/>
<path d="M67.9107 60C67.9107 64.4158 67.5004 68 66.9979 68C66.4953 68 66.083 64.4158 66.083 60C66.083 55.5842 66.4933 52 66.9979 52C67.5025 52 67.9107 55.5821 67.9107 60Z" fill="url(#paint12_radial_735_3051)"/>
<defs>
<linearGradient id="paint0_linear_735_3051" x1="74" y1="50" x2="8.37843" y2="-12.9486" gradientUnits="userSpaceOnUse">
<stop stop-color="white" stop-opacity="0.9"/>
<stop offset="0.04" stop-color="white" stop-opacity="0.85"/>
<stop offset="0.28" stop-color="white" stop-opacity="0.5"/>
<stop offset="0.65" stop-color="#FAFBFC" stop-opacity="0.4"/>
<stop offset="1" stop-color="#F0EFEF" stop-opacity="0.3"/>
</linearGradient>
<linearGradient id="paint1_linear_735_3051" x1="24.0302" y1="60.907" x2="48.2183" y2="38.9365" gradientUnits="userSpaceOnUse">
<stop stop-color="#79A540"/>
<stop offset="0.2" stop-color="#94C63F"/>
<stop offset="0.39" stop-color="#99CA3E"/>
<stop offset="0.59" stop-color="#93C53F"/>
<stop offset="0.74" stop-color="#9DCB3B"/>
<stop offset="0.9" stop-color="#A5CE3A"/>
<stop offset="1" stop-color="#A5CE3A"/>
</linearGradient>
<linearGradient id="paint2_linear_735_3051" x1="54.5594" y1="73.3805" x2="33.8724" y2="22.2916" gradientUnits="userSpaceOnUse">
<stop stop-color="white" stop-opacity="0.9"/>
<stop offset="0.28" stop-color="white" stop-opacity="0.5"/>
<stop offset="0.65" stop-color="#FAFBFC" stop-opacity="0.4"/>
<stop offset="1" stop-color="#F0EFEF" stop-opacity="0"/>
</linearGradient>
<linearGradient id="paint3_linear_735_3051" x1="25.1804" y1="52.1414" x2="49.4695" y2="30.0792" gradientUnits="userSpaceOnUse">
<stop stop-color="#79A540"/>
<stop offset="0.2" stop-color="#94C63F"/>
<stop offset="0.39" stop-color="#99CA3E"/>
<stop offset="0.59" stop-color="#93C53F"/>
<stop offset="0.74" stop-color="#9DCB3B"/>
<stop offset="0.9" stop-color="#A5CE3A"/>
<stop offset="1" stop-color="#A5CE3A"/>
</linearGradient>
<linearGradient id="paint4_linear_735_3051" x1="55.5968" y1="64.4026" x2="34.8458" y2="13.7219" gradientUnits="userSpaceOnUse">
<stop stop-color="white" stop-opacity="0.9"/>
<stop offset="0.28" stop-color="white" stop-opacity="0.5"/>
<stop offset="0.65" stop-color="#FAFBFC" stop-opacity="0.4"/>
<stop offset="1" stop-color="#F0EFEF" stop-opacity="0"/>
</linearGradient>
<linearGradient id="paint5_linear_735_3051" x1="39.5863" y1="45.0669" x2="34.1713" y2="37.6819" gradientUnits="userSpaceOnUse">
<stop stop-color="#79A540"/>
<stop offset="0.2" stop-color="#94C63F"/>
<stop offset="0.39" stop-color="#99CA3E"/>
<stop offset="0.59" stop-color="#93C53F"/>
<stop offset="0.74" stop-color="#9DCB3B"/>
<stop offset="0.9" stop-color="#A5CE3A"/>
<stop offset="1" stop-color="#A5CE3A"/>
</linearGradient>
<linearGradient id="paint6_linear_735_3051" x1="32.79" y1="40.5312" x2="42.4578" y2="43.5024" gradientUnits="userSpaceOnUse">
<stop stop-color="#F0EFEF" stop-opacity="0"/>
<stop offset="0.35" stop-color="#FAFBFC" stop-opacity="0.4"/>
<stop offset="0.72" stop-color="white" stop-opacity="0.5"/>
<stop offset="1" stop-color="white" stop-opacity="0.9"/>
</linearGradient>
<linearGradient id="paint7_linear_735_3051" x1="29.3602" y1="48.1269" x2="45.0578" y2="33.8685" gradientUnits="userSpaceOnUse">
<stop stop-color="#79A540"/>
<stop offset="0.2" stop-color="#94C63F"/>
<stop offset="0.39" stop-color="#99CA3E"/>
<stop offset="0.59" stop-color="#93C53F"/>
<stop offset="0.74" stop-color="#9DCB3B"/>
<stop offset="0.9" stop-color="#A5CE3A"/>
<stop offset="1" stop-color="#A5CE3A"/>
</linearGradient>
<linearGradient id="paint8_linear_735_3051" x1="43.2286" y1="49.6776" x2="32.8007" y2="32.2977" gradientUnits="userSpaceOnUse">
<stop stop-color="white" stop-opacity="0.9"/>
<stop offset="0.28" stop-color="white" stop-opacity="0.5"/>
<stop offset="0.65" stop-color="#FAFBFC" stop-opacity="0.4"/>
<stop offset="1" stop-color="#F0EFEF" stop-opacity="0"/>
</linearGradient>
<radialGradient id="paint9_radial_735_3051" cx="0" cy="0" r="1" gradientUnits="userSpaceOnUse" gradientTransform="translate(38.1616 8.64683) rotate(90) scale(0.828531 7.99491)">
<stop stop-color="white"/>
<stop offset="0.07" stop-color="white" stop-opacity="0.93"/>
<stop offset="1" stop-color="white" stop-opacity="0"/>
</radialGradient>
<radialGradient id="paint10_radial_735_3051" cx="0" cy="0" r="1" gradientUnits="userSpaceOnUse" gradientTransform="translate(38.959 8.39897) scale(0.914954 8.01127)">
<stop stop-color="white"/>
<stop offset="0.07" stop-color="white" stop-opacity="0.93"/>
<stop offset="1" stop-color="white" stop-opacity="0"/>
</radialGradient>
<radialGradient id="paint11_radial_735_3051" cx="0" cy="0" r="1" gradientUnits="userSpaceOnUse" gradientTransform="translate(66.1616 60.6468) rotate(90) scale(0.828531 7.99491)">
<stop stop-color="white"/>
<stop offset="0.07" stop-color="white" stop-opacity="0.93"/>
<stop offset="1" stop-color="white" stop-opacity="0"/>
</radialGradient>
<radialGradient id="paint12_radial_735_3051" cx="0" cy="0" r="1" gradientUnits="userSpaceOnUse" gradientTransform="translate(66.959 60.399) scale(0.914954 8.01127)">
<stop stop-color="white"/>
<stop offset="0.07" stop-color="white" stop-opacity="0.93"/>
<stop offset="1" stop-color="white" stop-opacity="0"/>
</radialGradient>
</defs>
</svg>
