<svg width="90" height="67" viewBox="0 0 90 67" fill="none" xmlns="http://www.w3.org/2000/svg">
<path fill-rule="evenodd" clip-rule="evenodd" d="M29.2293 60.1337V63.4271H16.9979V60.1337H9.41958C6.66652 60.1337 4.50493 59.3529 2.97734 57.8253C1.44976 56.2977 0.668945 54.1403 0.668945 51.383V16.7571C0.668945 13.9912 1.4455 11.8381 2.97309 10.3127C4.50067 8.78723 6.66014 8.00854 9.41958 8.00854H74.31C77.0759 8.00854 79.2289 8.79149 80.7544 10.3169C82.2799 11.8424 83.0628 14.0061 83.0628 16.7592V32.8882L83.0202 32.8712C82.3305 32.5691 81.744 32.0721 81.3328 31.4413C80.9216 30.8105 80.7035 30.0733 80.7055 29.3203V16.9804C80.7055 15.4635 80.1906 13.7657 79.4587 12.8466C78.1247 11.3871 77.5737 10.585 74.31 10.585H9.41958C4.13261 10.585 3.02415 15.4592 3.02415 16.9804V51.5979C3.02415 54.1744 3.31775 54.8552 4.08793 55.8317C5.00916 56.8551 5.61551 57.9912 9.42171 57.9912H53.4281C54.1325 57.9895 54.8233 58.1856 55.4217 58.5572C56.0202 58.9289 56.5022 59.4611 56.813 60.0932L56.8322 60.1358L29.2293 60.1337Z" fill="url(#paint0_linear_718_24119)"/>
<path fill-rule="evenodd" clip-rule="evenodd" d="M46.5096 24.0631C45.782 24.0631 45.1926 24.1291 45.1926 23.1568C45.1926 22.1845 45.782 22.2505 46.5096 22.2505H69.4872C70.2148 22.2505 70.8063 22.1866 70.8063 23.1568C70.8063 24.127 70.2148 24.0631 69.4872 24.0631H46.5096Z" fill="url(#paint1_linear_718_24119)"/>
<path fill-rule="evenodd" clip-rule="evenodd" d="M25.5508 45.2937H9.9707C10.1454 44.5233 10.4724 43.7956 10.9324 43.1534C11.3456 42.623 11.8643 42.184 12.4557 41.8641C14.2407 40.8684 18.9681 40.5599 20.7383 39.1557C21.0066 38.5298 21.243 37.8907 21.4467 37.2409L21.5191 37.0281C21.5914 36.8154 21.4765 36.5133 21.2829 36.1941C20.9553 35.658 20.4042 35.0538 20.1574 34.6644L18.7107 32.3603C18.1788 31.571 17.9044 30.8476 17.8873 30.2561C17.874 29.9973 17.9229 29.7391 18.0299 29.503C18.1383 29.2667 18.3108 29.0654 18.5277 28.9222C18.6378 28.8493 18.7555 28.7886 18.8788 28.7413C18.7783 27.3643 18.7549 25.9828 18.8086 24.6032C18.8424 24.2854 18.9021 23.9709 18.9873 23.6628C19.5192 21.7672 21.1489 20.4013 23.0084 19.7588C23.9126 19.446 23.5637 18.695 24.4764 18.7546C24.8374 18.776 25.1964 18.8229 25.5508 18.895C27.5869 19.5907 26.8805 19.3396 28.0911 19.7588C29.9506 20.397 31.5824 21.7672 32.1122 23.6628C32.1983 23.9707 32.2581 24.2853 32.2909 24.6032C32.3447 25.9835 32.3212 27.3658 32.2207 28.7434C32.3444 28.7912 32.4628 28.8518 32.5739 28.9243C32.7896 29.0683 32.9613 29.2694 33.0696 29.5051C33.1762 29.7413 33.2258 29.9993 33.2142 30.2583C33.1951 30.8497 32.9206 31.5731 32.3909 32.3624L30.942 34.6666C30.6973 35.0559 30.1442 35.6601 29.8165 36.1963C29.6229 36.5154 29.508 36.8111 29.5825 37.0303L29.6527 37.243C29.8251 37.7622 30.0974 38.5855 30.3633 39.1578C32.1334 40.562 36.8587 40.8705 38.6438 41.8662C39.2359 42.185 39.7549 42.6242 40.1671 43.1555C40.6288 43.7968 40.9559 44.5248 41.1288 45.2958L25.5508 45.2937Z" fill="url(#paint2_linear_718_24119)"/>
<path fill-rule="evenodd" clip-rule="evenodd" d="M59.1807 41.4874H46.5579C45.8324 41.4874 45.241 41.4236 45.241 42.3959C45.241 43.3682 45.8324 43.3022 46.5579 43.3022H58.2105C58.5009 42.6802 58.8248 42.0744 59.1807 41.4874Z" fill="url(#paint3_linear_718_24119)"/>
<path fill-rule="evenodd" clip-rule="evenodd" d="M46.5584 33.6841H68.6998C69.4012 33.4243 70.1173 33.2062 70.8444 33.031C70.856 32.9471 70.8617 32.8625 70.8614 32.7778C70.8614 31.8076 70.2721 31.8715 69.5424 31.8715H46.5648C45.8393 31.8715 45.2478 31.8076 45.2478 32.7778C45.2478 33.748 45.8329 33.6841 46.5584 33.6841Z" fill="url(#paint4_linear_718_24119)"/>
<path fill-rule="evenodd" clip-rule="evenodd" d="M29.3462 60.1611V63.4546H17.1149V60.1611H9.53653C6.78347 60.1611 4.62187 59.3803 3.09429 57.8527C1.5667 56.3251 0.785889 54.1763 0.785889 51.4105V16.7824C0.785889 14.0166 1.56245 11.8635 3.09003 10.3359C4.61762 8.8083 6.77709 8.03174 9.53653 8.03174H74.427C77.1928 8.03174 79.3459 8.81468 80.8713 10.3401C82.3968 11.8656 83.1797 14.0293 83.1797 16.7824V32.9114L83.1372 32.8944C82.4474 32.5922 81.8609 32.0953 81.4497 31.4645C81.0385 30.8336 80.8205 30.0965 80.8224 29.3435V17.0036C80.8224 15.4867 80.3075 13.7889 79.5757 12.8698C78.2417 11.4103 77.6906 10.6082 74.427 10.6082H9.53653C4.24955 10.6082 3.14109 15.4824 3.14109 17.0036V51.6232C3.14109 54.1997 3.4347 54.8805 4.20487 55.8571C5.12823 56.8804 5.73458 58.0165 9.54078 58.0165H53.5429C54.2484 58.0136 54.9405 58.2091 55.5402 58.5808C56.1399 58.9525 56.623 59.4854 56.9342 60.1186L56.9534 60.1611H29.3462Z" stroke="url(#paint5_linear_718_24119)" stroke-width="0.5" stroke-miterlimit="10"/>
<path fill-rule="evenodd" clip-rule="evenodd" d="M46.6263 24.0885C45.8987 24.0885 45.3093 24.1545 45.3093 23.1822C45.3093 22.2099 45.8987 22.2758 46.6263 22.2758H69.6039C70.3315 22.2758 70.923 22.212 70.923 23.1822C70.923 24.1524 70.3315 24.0885 69.6039 24.0885H46.6263Z" stroke="url(#paint6_linear_718_24119)" stroke-width="0.5" stroke-miterlimit="10"/>
<path fill-rule="evenodd" clip-rule="evenodd" d="M25.6595 45.3195H10.0879C10.2626 44.5491 10.5896 43.8214 11.0495 43.1792C11.4618 42.6478 11.9807 42.2087 12.5729 41.8899C14.3579 40.8942 19.0853 40.5857 20.8533 39.1815C21.1232 38.556 21.3604 37.9169 21.5639 37.2667L21.6363 37.054C21.7086 36.8412 21.5937 36.5391 21.4001 36.22C21.0725 35.6838 20.5214 35.0796 20.2746 34.6902L18.8258 32.3861C18.296 31.5968 18.0194 30.8734 18.0045 30.2819C17.9912 30.0231 18.0401 29.7649 18.1471 29.5288C18.2555 29.2925 18.428 29.0913 18.6449 28.948C18.755 28.8751 18.8727 28.8145 18.996 28.7671C18.8944 27.3895 18.8709 26.0072 18.9258 24.6269C18.9585 24.3089 19.0183 23.9943 19.1045 23.6865C19.6364 21.7909 21.2661 20.425 23.1256 19.7825C24.0298 19.4697 23.6808 18.7187 24.5936 18.7783C24.951 18.8001 25.3065 18.8471 25.6573 18.9187C27.6934 19.6144 26.9871 19.3633 28.1955 19.7825C30.0571 20.4207 31.6868 21.7909 32.2187 23.6865C32.3039 23.9946 32.3636 24.3091 32.3974 24.6269C32.4512 26.0072 32.4278 27.3894 32.3272 28.7671C32.4509 28.8149 32.5693 28.8755 32.6804 28.948C32.8957 29.0926 33.0671 29.2935 33.1761 29.5288C33.2828 29.765 33.3324 30.023 33.3208 30.2819C33.3016 30.8734 33.0251 31.5968 32.4974 32.3861L31.0486 34.6902C30.8039 35.0796 30.2507 35.6838 29.9231 36.22C29.7295 36.5391 29.6146 36.8348 29.6891 37.054L29.7593 37.2667C29.9316 37.7858 30.2018 38.6092 30.4677 39.1815C32.24 40.5857 36.9653 40.8942 38.7503 41.8899C39.3421 42.2092 39.8609 42.6483 40.2737 43.1792C40.7336 43.8214 41.0606 44.5491 41.2353 45.3195H25.6595Z" stroke="url(#paint7_linear_718_24119)" stroke-width="0.5" stroke-miterlimit="10"/>
<path fill-rule="evenodd" clip-rule="evenodd" d="M59.2981 41.5133H46.6754C45.9499 41.5133 45.3584 41.4495 45.3584 42.4218C45.3584 43.3941 45.9499 43.3281 46.6754 43.3281H58.328C58.6183 42.7061 58.9422 42.1003 59.2981 41.5133Z" stroke="url(#paint8_linear_718_24119)" stroke-width="0.5" stroke-miterlimit="10"/>
<path fill-rule="evenodd" clip-rule="evenodd" d="M46.6753 33.709H68.8168C69.5181 33.4492 70.2342 33.2311 70.9614 33.0559C70.973 32.972 70.9787 32.8874 70.9784 32.8027C70.9784 31.8325 70.3891 31.8964 69.6593 31.8964H46.6817C45.9562 31.8964 45.3647 31.8325 45.3647 32.8027C45.3647 33.7729 45.9498 33.709 46.6753 33.709Z" stroke="url(#paint9_linear_718_24119)" stroke-width="0.5" stroke-miterlimit="10"/>
<path d="M56.9987 60.104C61.4191 60.104 65 59.804 65 59.4338C65 59.0636 61.4191 58.7615 56.9987 58.7615C52.5783 58.7615 49 59.0615 49 59.4338C49 59.8061 52.5809 60.104 56.9987 60.104Z" fill="url(#paint10_radial_718_24119)"/>
<path d="M57.9078 59.4295C57.9078 62.9804 57.501 65.8589 56.9957 65.8589C56.4904 65.8589 56.0811 62.9761 56.0811 59.4295C56.0811 55.8828 56.4904 53 56.9957 53C57.501 53 57.9078 55.8786 57.9078 59.4295Z" fill="url(#paint11_radial_718_24119)"/>
<path d="M8 8.8377C12.4205 8.8377 16 8.46482 16 7.99978C16 7.53474 12.4164 7.16187 8 7.16187C3.58359 7.16187 0 7.53474 0 7.99978C0 8.46482 3.58154 8.8377 8 8.8377Z" fill="url(#paint12_radial_718_24119)"/>
<path d="M8.9107 8C8.9107 12.4158 8.50044 16 7.99788 16C7.49532 16 7.08301 12.4158 7.08301 8C7.08301 3.58418 7.49326 0 7.99788 0C8.50249 0 8.9107 3.58209 8.9107 8Z" fill="url(#paint13_radial_718_24119)"/>
<path d="M88.9998 51.702C88.9998 59.0815 83.0175 65.0637 75.6381 65.0637C68.2586 65.0637 62.2764 59.0815 62.2764 51.702C62.2764 44.3226 68.2586 38.3403 75.6381 38.3403C83.0175 38.3403 88.9998 44.3226 88.9998 51.702Z" stroke="url(#paint14_linear_718_24119)" stroke-width="2"/>
<path d="M69.8936 52.6596L72.7659 55.532L81.3829 48.8298" stroke="#96C83D" stroke-width="2" stroke-linecap="round"/>
<defs>
<linearGradient id="paint0_linear_718_24119" x1="70.54" y1="57.4764" x2="-37.7632" y2="-30.9215" gradientUnits="userSpaceOnUse">
<stop stop-color="white" stop-opacity="0.9"/>
<stop offset="0.04" stop-color="white" stop-opacity="0.85"/>
<stop offset="0.28" stop-color="white" stop-opacity="0.5"/>
<stop offset="0.65" stop-color="#FAFBFC" stop-opacity="0.4"/>
<stop offset="1" stop-color="#F0EFEF" stop-opacity="0.3"/>
</linearGradient>
<linearGradient id="paint1_linear_718_24119" x1="67.1213" y1="30.599" x2="38.1674" y2="6.96822" gradientUnits="userSpaceOnUse">
<stop stop-color="white" stop-opacity="0.9"/>
<stop offset="0.04" stop-color="white" stop-opacity="0.85"/>
<stop offset="0.28" stop-color="white" stop-opacity="0.5"/>
<stop offset="0.65" stop-color="#FAFBFC" stop-opacity="0.4"/>
<stop offset="1" stop-color="#F0EFEF" stop-opacity="0.3"/>
</linearGradient>
<linearGradient id="paint2_linear_718_24119" x1="40.5479" y1="49.7914" x2="-3.77969" y2="13.6123" gradientUnits="userSpaceOnUse">
<stop stop-color="white" stop-opacity="0.9"/>
<stop offset="0.04" stop-color="white" stop-opacity="0.85"/>
<stop offset="0.28" stop-color="white" stop-opacity="0.5"/>
<stop offset="0.65" stop-color="#FAFBFC" stop-opacity="0.4"/>
<stop offset="1" stop-color="#F0EFEF" stop-opacity="0.3"/>
</linearGradient>
<linearGradient id="paint3_linear_718_24119" x1="56.9957" y1="46.1128" x2="41.5305" y2="33.49" gradientUnits="userSpaceOnUse">
<stop stop-color="white" stop-opacity="0.9"/>
<stop offset="0.04" stop-color="white" stop-opacity="0.85"/>
<stop offset="0.28" stop-color="white" stop-opacity="0.5"/>
<stop offset="0.65" stop-color="#FAFBFC" stop-opacity="0.4"/>
<stop offset="1" stop-color="#F0EFEF" stop-opacity="0.3"/>
</linearGradient>
<linearGradient id="paint4_linear_718_24119" x1="67.0574" y1="40.1264" x2="38.2971" y2="16.6531" gradientUnits="userSpaceOnUse">
<stop stop-color="white" stop-opacity="0.9"/>
<stop offset="0.04" stop-color="white" stop-opacity="0.85"/>
<stop offset="0.28" stop-color="white" stop-opacity="0.5"/>
<stop offset="0.65" stop-color="#FAFBFC" stop-opacity="0.4"/>
<stop offset="1" stop-color="#F0EFEF" stop-opacity="0.3"/>
</linearGradient>
<linearGradient id="paint5_linear_718_24119" x1="41.9818" y1="63.6673" x2="41.9818" y2="7.81898" gradientUnits="userSpaceOnUse">
<stop stop-color="white" stop-opacity="0.9"/>
<stop offset="0.28" stop-color="white" stop-opacity="0.5"/>
<stop offset="0.65" stop-color="#FAFBFC" stop-opacity="0.4"/>
<stop offset="1" stop-color="#F0EFEF" stop-opacity="0"/>
</linearGradient>
<linearGradient id="paint6_linear_718_24119" x1="58.1193" y1="24.3034" x2="58.1193" y2="22.061" gradientUnits="userSpaceOnUse">
<stop stop-color="white" stop-opacity="0.9"/>
<stop offset="0.28" stop-color="white" stop-opacity="0.5"/>
<stop offset="0.65" stop-color="#FAFBFC" stop-opacity="0.4"/>
<stop offset="1" stop-color="#F0EFEF" stop-opacity="0.3"/>
</linearGradient>
<linearGradient id="paint7_linear_718_24119" x1="25.6659" y1="45.5323" x2="25.6659" y2="18.557" gradientUnits="userSpaceOnUse">
<stop stop-color="white" stop-opacity="0.9"/>
<stop offset="0.28" stop-color="white" stop-opacity="0.5"/>
<stop offset="0.65" stop-color="#FAFBFC" stop-opacity="0.4"/>
<stop offset="1" stop-color="#F0EFEF" stop-opacity="0.3"/>
</linearGradient>
<linearGradient id="paint8_linear_718_24119" x1="52.4112" y1="43.5409" x2="52.4112" y2="41.3006" gradientUnits="userSpaceOnUse">
<stop stop-color="white" stop-opacity="0.9"/>
<stop offset="0.28" stop-color="white" stop-opacity="0.5"/>
<stop offset="0.65" stop-color="#FAFBFC" stop-opacity="0.4"/>
<stop offset="1" stop-color="#F0EFEF" stop-opacity="0.3"/>
</linearGradient>
<linearGradient id="paint9_linear_718_24119" x1="58.1684" y1="33.9239" x2="58.1684" y2="31.6815" gradientUnits="userSpaceOnUse">
<stop stop-color="white" stop-opacity="0.9"/>
<stop offset="0.28" stop-color="white" stop-opacity="0.5"/>
<stop offset="0.65" stop-color="#FAFBFC" stop-opacity="0.4"/>
<stop offset="1" stop-color="#F0EFEF" stop-opacity="0.3"/>
</linearGradient>
<radialGradient id="paint10_radial_718_24119" cx="0" cy="0" r="1" gradientUnits="userSpaceOnUse" gradientTransform="translate(55.9163 59.908) rotate(90) scale(0.66584 7.99083)">
<stop stop-color="white"/>
<stop offset="0.07" stop-color="white" stop-opacity="0.93"/>
<stop offset="1" stop-color="white" stop-opacity="0"/>
</radialGradient>
<radialGradient id="paint11_radial_718_24119" cx="0" cy="0" r="1" gradientUnits="userSpaceOnUse" gradientTransform="translate(57.1141 59.8197) scale(0.915073 6.44228)">
<stop stop-color="white"/>
<stop offset="0.07" stop-color="white" stop-opacity="0.93"/>
<stop offset="1" stop-color="white" stop-opacity="0"/>
</radialGradient>
<radialGradient id="paint12_radial_718_24119" cx="0" cy="0" r="1" gradientUnits="userSpaceOnUse" gradientTransform="translate(7.16164 8.64707) rotate(90) scale(0.828531 7.99491)">
<stop stop-color="white"/>
<stop offset="0.07" stop-color="white" stop-opacity="0.93"/>
<stop offset="1" stop-color="white" stop-opacity="0"/>
</radialGradient>
<radialGradient id="paint13_radial_718_24119" cx="0" cy="0" r="1" gradientUnits="userSpaceOnUse" gradientTransform="translate(7.95899 8.39897) scale(0.914954 8.01127)">
<stop stop-color="white"/>
<stop offset="0.07" stop-color="white" stop-opacity="0.93"/>
<stop offset="1" stop-color="white" stop-opacity="0"/>
</radialGradient>
<linearGradient id="paint14_linear_718_24119" x1="75.6392" y1="66.4697" x2="75.6392" y2="37.3423" gradientUnits="userSpaceOnUse">
<stop stop-color="#79A540"/>
<stop offset="0.2" stop-color="#94C63D"/>
<stop offset="0.39" stop-color="#98CA3C"/>
<stop offset="0.59" stop-color="#93C53E"/>
<stop offset="0.74" stop-color="#9DCB3B"/>
<stop offset="0.9" stop-color="#A6CE39"/>
<stop offset="1" stop-color="#A6CE39"/>
</linearGradient>
</defs>
</svg>
