<svg width="65" height="100" viewBox="0 0 65 100" fill="none" xmlns="http://www.w3.org/2000/svg">
<path d="M31.8035 86.204C31.5681 86.4393 31.2489 86.5716 30.9161 86.5716H19.1719C18.839 86.5716 18.5198 86.4393 18.2845 86.204C18.0492 85.9687 17.9169 85.6495 17.9169 85.3166C17.9169 84.9838 18.0492 84.6646 18.2845 84.4293C18.5198 84.1939 18.839 84.0617 19.1719 84.0617H30.9161C31.2489 84.0617 31.5681 84.1939 31.8035 84.4293C32.0388 84.6646 32.171 84.9838 32.171 85.3166C32.171 85.6495 32.0388 85.9687 31.8035 86.204Z" fill="url(#paint0_linear_735_3088)" stroke="url(#paint1_linear_735_3088)" stroke-width="0.1"/>
<path d="M9.05682 89.3566H38.6251L38.6229 90.5387V90.5392C38.6235 90.9394 38.6838 91.337 38.8015 91.7189H9.05705C7.70616 91.7164 6.41136 91.1785 5.45636 90.223C4.50138 89.2676 3.96407 87.9726 3.96216 86.6217V13.5417C3.96343 12.1907 4.50054 10.8953 5.45565 9.93975C6.41075 8.9842 7.70587 8.44649 9.05691 8.44458H45.5943C46.9454 8.44649 48.2405 8.9842 49.1956 9.93975C50.1507 10.8953 50.6878 12.1907 50.6891 13.5418V32.6123H48.3293V13.5417C48.3293 12.8164 48.0411 12.1207 47.5283 11.6079C47.0154 11.095 46.3198 10.8068 45.5944 10.8068H37.5649H37.4903L37.4549 10.8726L35.0158 15.4044L35.0156 15.4047C34.915 15.5927 34.7653 15.7498 34.5824 15.8593C34.3995 15.9688 34.1903 16.0266 33.9771 16.0265H33.977H21.3279H21.3279C21.1147 16.0266 20.9055 15.9688 20.7225 15.8593C20.5396 15.7498 20.3899 15.5927 20.2893 15.4047L20.2892 15.4044L17.8501 10.8726L17.8147 10.8068H17.74H9.05682C8.3315 10.8068 7.63588 11.095 7.123 11.6079C6.61012 12.1207 6.32199 12.8164 6.32199 13.5417V86.6218C6.32199 87.3471 6.61012 88.0427 7.123 88.5556C7.63588 89.0685 8.3315 89.3566 9.05682 89.3566ZM34.7139 10.996L34.8131 10.8118L34.6039 10.8117L20.7011 10.8068L20.4918 10.8068L20.591 10.9911L21.9983 13.6058L22.0337 13.6716H22.1084H33.199H33.2736L33.309 13.6058L34.7139 10.996Z" fill="url(#paint2_linear_735_3088)" stroke="url(#paint3_linear_735_3088)" stroke-width="0.25"/>
<path d="M54.4471 64.8519C54.1029 64.8529 53.7615 64.9122 53.438 65.0273C53.3977 64.648 53.2815 64.2802 53.0961 63.9449C52.9107 63.6096 52.6596 63.3133 52.3573 63.0731C52.055 62.833 51.7074 62.6535 51.3342 62.545C50.9611 62.4365 50.5698 62.4012 50.1827 62.4409C49.9466 62.4644 49.7143 62.5162 49.491 62.5951V62.425C49.4924 62.0437 49.4171 61.6659 49.2694 61.3132C49.1216 60.9604 48.9043 60.6397 48.6299 60.3694C48.3555 60.099 48.0294 59.8843 47.6703 59.7376C47.3111 59.5909 46.926 59.515 46.5369 59.5143C46.1937 59.512 45.8529 59.5696 45.5304 59.6844V54.1847C45.4733 53.4567 45.1402 52.7759 44.5966 52.2764C44.0531 51.7769 43.3385 51.4947 42.5934 51.4853C41.8483 51.476 41.1265 51.7402 40.5702 52.226C40.0138 52.7117 39.663 53.3839 39.5869 54.1103V68.4989C38.6718 67.6483 37.7676 66.7906 36.8742 65.9258C36.5488 65.6287 36.1614 65.4044 35.7387 65.2686C35.3161 65.1328 34.8684 65.0887 34.4267 65.1392C33.9849 65.1898 33.5596 65.3339 33.1803 65.5615C32.801 65.7891 32.4768 66.0948 32.23 66.4574C31.8361 67.0506 31.6465 67.7519 31.689 68.4585C31.7314 69.165 32.0038 69.8397 32.466 70.3835L38.8545 77.6429C39.4348 78.3571 39.9435 79.1244 40.3736 79.9342C41.1004 81.3043 41.6021 82.7782 41.8602 84.3015C41.6405 84.3498 41.4441 84.4697 41.3031 84.6416C41.1622 84.8135 41.085 85.0273 41.0843 85.2478V89.1287C41.0843 89.2564 41.11 89.3828 41.1599 89.5006C41.2099 89.6185 41.283 89.7256 41.3753 89.8157C41.4675 89.9059 41.577 89.9773 41.6974 90.0259C41.8179 90.0745 41.9469 90.0993 42.0772 90.099H54.9517C55.0819 90.0993 55.211 90.0745 55.3314 90.0259C55.4519 89.9773 55.5613 89.9059 55.6536 89.8157C55.7458 89.7256 55.819 89.6185 55.8689 89.5006C55.9188 89.3828 55.9445 89.2564 55.9445 89.1287V85.2478C55.9445 85.1202 55.9188 84.9938 55.8689 84.8759C55.819 84.7581 55.7458 84.651 55.6536 84.5609C55.5613 84.4707 55.4519 84.3993 55.3314 84.3507C55.211 84.3021 55.0819 84.2773 54.9517 84.2776H54.5529C54.7463 83.2666 55.1132 82.295 55.638 81.4042C55.6706 81.3537 55.7031 81.3005 55.733 81.2447C57.2331 78.7354 57.4257 75.5828 57.4257 73.1161V67.7625C57.4221 66.9903 57.1069 66.2508 56.5488 65.7055C55.9908 65.1601 55.2352 64.8533 54.4471 64.8519ZM53.9507 88.1452H43.0565V86.2048H53.9507V88.1452ZM55.4373 73.1028C55.4373 75.333 55.2745 78.1532 53.9833 80.3143C53.9666 80.3341 53.9521 80.3555 53.9398 80.3781C53.2315 81.5781 52.7543 82.8953 52.5319 84.2643H43.8513C43.5767 82.4347 42.9917 80.663 42.1206 79.0225C41.6267 78.0912 41.0406 77.2098 40.3709 76.3909L33.9824 69.1315C33.7901 68.9139 33.674 68.6416 33.6511 68.3546C33.6281 68.0676 33.6996 67.7809 33.855 67.5366C33.9549 67.3863 34.0911 67.2623 34.2515 67.1756C34.4118 67.089 34.5914 67.0422 34.7746 67.0395C35.042 67.0373 35.3009 67.132 35.5016 67.3053C40.2624 71.8455 40.2624 71.8455 40.9677 71.5584C41.1471 71.483 41.3001 71.3577 41.4076 71.198C41.5151 71.0383 41.5725 70.8512 41.5726 70.6599V54.1847C41.5669 53.9274 41.6656 53.6784 41.8473 53.4924C42.0289 53.3065 42.2784 53.1989 42.541 53.1932C42.8036 53.1876 43.0578 53.2844 43.2475 53.4624C43.4373 53.6403 43.5471 53.8849 43.5529 54.1422V71.1703C43.5662 71.4192 43.6764 71.6536 43.8609 71.8251C44.0454 71.9967 44.29 72.0923 44.5444 72.0923C44.7987 72.0923 45.0434 71.9967 45.2278 71.8251C45.4123 71.6536 45.5226 71.4192 45.5359 71.1703V62.425C45.5359 62.1677 45.6402 61.9209 45.8259 61.7389C46.0116 61.557 46.2634 61.4548 46.526 61.4548C46.7886 61.4548 47.0405 61.557 47.2261 61.7389C47.4118 61.9209 47.5162 62.1677 47.5162 62.425V71.1597C47.5162 71.417 47.6205 71.6638 47.8062 71.8457C47.9918 72.0277 48.2437 72.1299 48.5063 72.1299C48.7689 72.1299 49.0207 72.0277 49.2064 71.8457C49.3921 71.6638 49.4964 71.417 49.4964 71.1597V65.349C49.4964 65.0916 49.6007 64.8449 49.7864 64.6629C49.9721 64.4809 50.224 64.3787 50.4866 64.3787C50.7492 64.3787 51.001 64.4809 51.1867 64.6629C51.3724 64.8449 51.4767 65.0916 51.4767 65.349V71.1703C51.49 71.4192 51.6003 71.6536 51.7847 71.8251C51.9692 71.9967 52.2139 72.0923 52.4682 72.0923C52.7225 72.0923 52.9672 71.9967 53.1517 71.8251C53.3361 71.6536 53.4464 71.4192 53.4597 71.1703V67.7625C53.4597 67.5052 53.564 67.2584 53.7497 67.0765C53.9354 66.8945 54.1872 66.7923 54.4498 66.7923C54.7124 66.7923 54.9643 66.8945 55.15 67.0765C55.3357 67.2584 55.44 67.5052 55.44 67.7625L55.4373 73.1028Z" fill="url(#paint4_linear_735_3088)"/>
<path d="M53.3112 65.3944L53.3281 65.5512L53.4769 65.499C53.7861 65.3904 54.1124 65.3343 54.4414 65.333C55.199 65.3324 55.9252 65.6223 56.4609 66.1381C56.9964 66.6537 57.2979 67.3529 57.3007 68.0819V73.3459C57.3007 75.7801 57.1069 78.8555 55.6246 81.2984L55.6243 81.2981L55.6197 81.3073C55.5953 81.3561 55.567 81.4031 55.535 81.4477L55.5346 81.4475L55.5292 81.4566C54.9989 82.3482 54.6272 83.3197 54.4296 84.3307L54.4005 84.4796H54.5523H54.9508H54.9511C55.0653 84.4793 55.1782 84.5008 55.2835 84.5429C55.3888 84.5849 55.4842 84.6465 55.5643 84.724C55.6444 84.8015 55.7077 84.8933 55.7507 84.994C55.7936 85.0947 55.8155 85.2025 55.8152 85.3112V85.3116V89.1419C55.8152 89.2516 55.7927 89.3602 55.7489 89.4616C55.7051 89.563 55.6407 89.6552 55.5594 89.7328C55.478 89.8105 55.3813 89.8719 55.2747 89.9133C55.1681 89.9548 55.054 89.9754 54.9389 89.9739H54.9372H42.059C41.8285 89.9733 41.6085 89.8844 41.4467 89.728C41.2852 89.5718 41.195 89.361 41.1943 89.1419C41.1943 89.1418 41.1943 89.1417 41.1943 89.1416L41.1943 85.3038C41.1944 85.1157 41.2609 84.9328 41.3835 84.7852C41.5062 84.6375 41.6779 84.5339 41.8707 84.4926L41.9877 84.4675L41.9678 84.3495C41.7126 82.84 41.2133 81.3788 40.4883 80.0197L40.4882 80.0196C40.0562 79.2124 39.5441 78.4479 38.9593 77.7366L38.9594 77.7365L38.956 77.7328L32.5602 70.5613C32.56 70.561 32.5597 70.5608 32.5595 70.5605C32.1155 70.0447 31.8545 69.4055 31.8137 68.7366C31.773 68.0679 31.9546 67.4039 32.3325 66.8415C32.6048 66.4573 32.9694 66.142 33.3955 65.923C33.822 65.7038 34.2973 65.5877 34.7806 65.5847C35.5248 65.5875 36.2397 65.8616 36.783 66.3513C37.6866 67.2007 38.5955 68.0466 39.5099 68.8891L39.7196 69.0823V68.7972V54.679H39.7203L39.7189 54.6658C39.7172 54.6493 39.7172 54.6327 39.7189 54.6163L39.7202 54.6044L39.7192 54.5925C39.687 54.2102 39.7378 53.8254 39.8683 53.463C39.9988 53.1005 40.2062 52.7681 40.4776 52.4871C40.749 52.2061 41.0783 51.9829 41.4446 51.8318C41.811 51.6807 42.206 51.6052 42.6045 51.6104C43.0029 51.6155 43.3957 51.701 43.7578 51.8614C44.1198 52.0218 44.4428 52.2534 44.7064 52.5412C44.97 52.829 45.1682 53.1665 45.2888 53.5322C45.4093 53.8979 45.4495 54.2837 45.4069 54.6652L45.4061 54.6651V54.679V60.1113V60.2868L45.5719 60.2294C46.0011 60.081 46.461 60.0346 46.9127 60.0942C47.3644 60.1538 47.7944 60.3176 48.1664 60.5715C48.5384 60.8254 48.8414 61.1618 49.0501 61.5521C49.2588 61.9424 49.3672 62.3752 49.3664 62.8141V62.8143V62.9821V63.1573L49.5321 63.1003C49.7464 63.0266 49.9691 62.9776 50.1954 62.9544C50.5664 62.9168 50.9413 62.9503 51.2988 63.0529C51.6563 63.1555 51.9892 63.3251 52.2785 63.552C52.5678 63.7788 52.8077 64.0584 52.9848 64.3745C53.1619 64.6906 53.2728 65.0372 53.3112 65.3944Z" stroke="url(#paint5_linear_735_3088)" stroke-width="0.25" stroke-miterlimit="10"/>
<path d="M50.4863 51.1178C49.7569 52.9021 48.4654 54.3991 46.8086 55.3822V53.344C47.9571 52.4136 48.7904 51.151 49.1942 49.7287C49.6001 48.2987 49.5519 46.7779 49.0562 45.3766C48.5605 43.9752 47.6417 42.7624 46.4269 41.9058C45.212 41.0491 43.7611 40.591 42.2747 40.5947C40.7882 40.5983 39.3395 41.0636 38.1289 41.9262C36.9183 42.7888 36.0056 44.0061 35.5168 45.4099C35.0279 46.8138 34.9872 48.3347 35.4002 49.7627C35.7695 51.0393 36.4851 52.1852 37.4635 53.0756C37.6732 53.2664 37.8035 53.5302 37.8035 53.8102C37.8035 54.165 37.6133 54.4474 37.3582 54.5839C37.1041 54.7199 36.7846 54.7118 36.518 54.4827C35.4765 53.5876 34.6515 52.4573 34.117 51.1759C33.367 49.3779 33.2309 47.3826 33.7298 45.4994C34.2287 43.6161 35.3347 41.9499 36.8766 40.759C38.4184 39.568 40.31 38.9188 42.2582 38.9119C44.2064 38.905 46.1026 39.5407 47.6528 40.7207C49.2031 41.9006 50.3209 43.5589 50.8332 45.4386C51.3455 47.3183 51.2235 49.3144 50.4863 51.1178Z" fill="url(#paint6_linear_735_3088)" stroke="url(#paint7_linear_735_3088)" stroke-width="0.1"/>
<path d="M26.1689 58.5512H26.1112H21.721H21.7209H26.1689ZM26.1689 58.5512L26.1607 58.4941M26.1689 58.5512L26.1607 58.4941M26.1607 58.4941C25.967 57.1511 25.3439 55.9069 24.3844 54.9474C23.425 53.9879 22.1807 53.3648 20.8377 53.1711L20.7806 53.1629M26.1607 58.4941L20.7806 53.1629M20.7806 53.1629V53.2206M20.7806 53.1629V53.2206M20.7806 53.2206L20.7806 57.6108L20.7806 53.2206ZM27.8616 58.5166L27.8666 58.561H27.9113H37.9347V60.244H21.7306C21.0323 60.244 20.3626 59.9666 19.8688 59.4728C19.375 58.979 19.0976 58.3093 19.0976 57.611V38.0178C19.1008 37.3216 19.3796 36.655 19.873 36.1639C20.3665 35.6727 21.0344 35.3969 21.7306 35.3969H61.8074C62.5036 35.3969 63.1715 35.6727 63.665 36.1639C64.1584 36.6551 64.4372 37.3217 64.4404 38.018V57.6037C64.4404 58.302 64.163 58.9717 63.6692 59.4655C63.1754 59.9592 62.5057 60.2367 61.8074 60.2367H51.4631C51.0485 59.5258 50.4467 58.9439 49.7249 58.5537H55.6267H55.6714L55.6764 58.5093C55.879 56.7148 56.6848 55.0423 57.9617 53.7653C59.2387 52.4884 60.9112 51.6827 62.7057 51.48L62.7501 51.475V51.4303V44.2008V44.1562L62.7057 44.1512C60.9114 43.9481 59.2391 43.1422 57.9622 41.8653C56.6853 40.5885 55.8795 38.9161 55.6764 37.1218L55.6714 37.0775H55.6267H27.9113H27.8666L27.8616 37.1218C27.6581 38.916 26.8521 40.5881 25.5753 41.8649C24.2985 43.1416 22.6264 43.9476 20.8323 44.1512L20.7879 44.1562V44.2008V51.4376V51.4823L20.8323 51.4873C22.6266 51.6904 24.2989 52.4963 25.5758 53.7731C26.8526 55.05 27.6585 56.7223 27.8616 58.5166ZM26.1705 37.1298L26.1788 37.0726H26.121H21.7306C21.4812 37.0726 21.2421 37.1716 21.0657 37.348C20.8894 37.5243 20.7903 37.7635 20.7903 38.0129V42.3575V42.4008V42.4032H20.8403H20.8407L20.8475 42.4503C22.1898 42.256 23.4334 41.6329 24.3927 40.6741C25.3519 39.7153 25.9755 38.472 26.1705 37.1298ZM62.7476 57.6134V57.6133L62.7403 53.2327L62.7402 53.175L62.6831 53.1833C61.3432 53.3787 60.1021 54.0013 59.1444 54.9586C58.1867 55.9158 57.5635 57.1566 57.3675 58.4964L57.3591 58.5537H57.417H61.8074C62.0567 58.5537 62.2959 58.4546 62.4722 58.2783C62.6486 58.1019 62.7476 57.8628 62.7476 57.6134ZM62.6904 42.4527L62.7475 42.4611L62.7476 42.4033L62.7549 38.0203V38.02C62.7543 37.7709 62.655 37.5322 62.4788 37.356C62.3027 37.1798 62.0639 37.0806 61.8148 37.0799H61.8147H57.4243H57.3664L57.3748 37.1372C57.5715 38.477 58.1948 39.7177 59.1523 40.6752C60.1098 41.6327 61.3506 42.2561 62.6904 42.4527Z" fill="url(#paint8_linear_735_3088)" stroke="url(#paint9_linear_735_3088)" stroke-width="0.1"/>
<path d="M41.2269 47.2003H41.6757C42.2098 47.2048 42.726 47.0031 43.1216 46.6353C43.5173 46.2676 43.7633 45.7607 43.8108 45.2155H44.5856C44.6883 45.2155 44.7869 45.1737 44.8595 45.0993C44.9322 45.0248 44.973 44.9239 44.973 44.8186C44.973 44.7133 44.9322 44.6123 44.8595 44.5379L41.2269 47.2003ZM41.2269 47.2003L41.2008 47.1685L41.1622 47.2003V47.2503H41.2033L42.9099 49.3235C42.9461 49.3604 42.9749 49.4042 42.9945 49.4526C43.0141 49.5009 43.0242 49.5527 43.0242 49.605C43.0242 49.6574 43.0141 49.7092 42.9945 49.7575C42.9749 49.8058 42.9461 49.8497 42.9099 49.8866M41.2269 47.2003L44.8384 44.5889M44.8384 44.5889L43.759 44.6377L43.7186 44.6396L43.7084 44.6004C43.6345 44.3181 43.5057 44.0541 43.3297 43.8243L43.2681 43.7439H43.3694H44.6126C44.6567 43.7439 44.7005 43.735 44.7413 43.7177C44.7822 43.7003 44.8194 43.6749 44.8508 43.6427C44.8821 43.6106 44.9071 43.5723 44.9242 43.5301C44.9412 43.4879 44.95 43.4427 44.95 43.3969C44.95 43.3045 44.9142 43.2162 44.8508 43.1512C44.7874 43.0863 44.7017 43.05 44.6126 43.05H40.3874C40.2983 43.05 40.2126 43.0863 40.1492 43.1512C40.086 43.216 40.0501 43.3042 40.05 43.3964C40.0522 43.4882 40.0887 43.5755 40.1518 43.6401C40.2148 43.7047 40.2994 43.7417 40.388 43.7439H41.7477H41.7477V43.7939L44.8384 44.5889ZM44.8384 44.5889C44.8927 44.652 44.923 44.7336 44.923 44.8186C44.923 44.911 44.8871 44.9994 44.8237 45.0643C44.7604 45.1293 44.6747 45.1655 44.5856 45.1655H43.8108H43.765L43.761 45.2112C43.7145 45.7442 43.474 46.2395 43.0876 46.5987C42.7012 46.9579 42.1973 47.1546 41.6761 47.1503H41.6757H41.1622H41.0562L41.1236 47.232L42.8713 49.3552L42.8712 49.3554L42.8742 49.3585C42.9058 49.3907 42.931 49.429 42.9482 49.4714C42.9654 49.5137 42.9742 49.5591 42.9742 49.605C42.9742 49.6509 42.9654 49.6964 42.9482 49.7387C42.931 49.7809 42.906 49.8191 42.8745 49.8513M42.9099 49.8866L42.8748 49.851C42.8747 49.8511 42.8746 49.8512 42.8745 49.8513M42.9099 49.8866L42.8742 49.8515C42.8743 49.8515 42.8744 49.8514 42.8745 49.8513M42.9099 49.8866C42.8361 49.9594 42.7376 50 42.6351 50C42.5327 50 42.4342 49.9594 42.3604 49.8866M42.8745 49.8513C42.8099 49.9148 42.7241 49.95 42.6351 49.95C42.5467 49.95 42.4615 49.9152 42.3971 49.8526M42.3971 49.8526L42.3987 49.8544L42.3604 49.8866M42.3971 49.8526L40.0845 47.0971M42.3971 49.8526C42.3965 49.852 42.396 49.8515 42.3955 49.851L42.3604 49.8866M42.3604 49.8866L40.036 47.1172M40.0845 47.0971C40.0848 47.102 40.0852 47.1068 40.0857 47.1116L40.036 47.1172M40.0845 47.0971C40.0835 47.0811 40.0839 47.0649 40.0857 47.0489L40.086 47.0489V47.0433V46.9049H40.0867L40.0853 46.8965C40.0785 46.8562 40.0785 46.815 40.0853 46.7747L40.086 46.7748V46.7664V46.7029M40.0845 47.0971L40.0743 47.085L40.036 47.1172M40.036 47.1172C40.0333 47.0926 40.0333 47.0679 40.036 47.0433V46.9049C40.0283 46.859 40.0283 46.8122 40.036 46.7664V46.7018M40.086 46.7029C40.086 46.7034 40.086 46.7038 40.086 46.7042L40.036 46.7018M40.086 46.7029C40.0867 46.6893 40.0868 46.6756 40.0866 46.662M40.086 46.7029V46.7018H40.036M40.036 46.7018C40.0369 46.6833 40.0369 46.6648 40.036 46.6464M40.0866 46.662L40.0764 46.6759L40.036 46.6464M40.0866 46.662L40.1155 46.6225M40.0866 46.662C40.0865 46.656 40.0863 46.65 40.086 46.644L40.036 46.6464M40.036 46.6464L40.0901 46.5725M40.1155 46.6225H40.0901V46.5725M40.1155 46.6225L40.1304 46.6021L40.0901 46.5725M40.1155 46.6225L41.7477 46.5725H40.2162H40.1441H40.0901" fill="#D9D9D9"/>
<path d="M41.2269 47.2003H41.6757C42.2098 47.2048 42.726 47.0031 43.1216 46.6353C43.5173 46.2676 43.7633 45.7607 43.8108 45.2155H44.5856C44.6883 45.2155 44.7869 45.1737 44.8595 45.0993C44.9322 45.0248 44.973 44.9239 44.973 44.8186C44.973 44.7133 44.9322 44.6123 44.8595 44.5379L41.2269 47.2003ZM41.2269 47.2003L41.2008 47.1685L41.1622 47.2003V47.2503H41.2033L42.9099 49.3235C42.9461 49.3604 42.9749 49.4042 42.9945 49.4526C43.0141 49.5009 43.0242 49.5527 43.0242 49.605C43.0242 49.6574 43.0141 49.7092 42.9945 49.7575C42.9749 49.8058 42.9461 49.8497 42.9099 49.8866M41.2269 47.2003L44.8384 44.5889M44.8384 44.5889L43.759 44.6377L43.7186 44.6396L43.7084 44.6004C43.6345 44.3181 43.5057 44.0541 43.3297 43.8243L43.2681 43.7439H43.3694H44.6126C44.6567 43.7439 44.7005 43.735 44.7413 43.7177C44.7822 43.7003 44.8194 43.6749 44.8508 43.6427C44.8821 43.6106 44.9071 43.5723 44.9242 43.5301C44.9412 43.4879 44.95 43.4427 44.95 43.3969C44.95 43.3045 44.9142 43.2162 44.8508 43.1512C44.7874 43.0863 44.7017 43.05 44.6126 43.05H40.3874C40.2983 43.05 40.2126 43.0863 40.1492 43.1512C40.086 43.216 40.0501 43.3042 40.05 43.3964C40.0522 43.4882 40.0887 43.5755 40.1518 43.6401C40.2148 43.7047 40.2994 43.7417 40.388 43.7439H41.7477H41.7477V43.7939L44.8384 44.5889ZM44.8384 44.5889C44.8927 44.652 44.923 44.7336 44.923 44.8186C44.923 44.911 44.8871 44.9994 44.8237 45.0643C44.7604 45.1293 44.6747 45.1655 44.5856 45.1655H43.8108H43.765L43.761 45.2112C43.7145 45.7442 43.474 46.2395 43.0876 46.5987C42.7012 46.9579 42.1973 47.1546 41.6761 47.1503H41.6757H41.1622H41.0562L41.1236 47.232L42.8713 49.3552L42.8712 49.3554L42.8742 49.3585C42.9058 49.3907 42.931 49.429 42.9482 49.4714C42.9654 49.5137 42.9742 49.5591 42.9742 49.605C42.9742 49.6509 42.9654 49.6964 42.9482 49.7387C42.931 49.7809 42.906 49.8191 42.8745 49.8513M42.9099 49.8866L42.8748 49.851C42.8747 49.8511 42.8746 49.8512 42.8745 49.8513M42.9099 49.8866L42.8742 49.8515C42.8743 49.8515 42.8744 49.8514 42.8745 49.8513M42.9099 49.8866C42.8361 49.9594 42.7376 50 42.6351 50C42.5327 50 42.4342 49.9594 42.3604 49.8866M42.8745 49.8513C42.8099 49.9148 42.7241 49.95 42.6351 49.95C42.5467 49.95 42.4615 49.9152 42.3971 49.8526M42.3971 49.8526L42.3987 49.8544L42.3604 49.8866M42.3971 49.8526L40.0845 47.0971M42.3971 49.8526C42.3965 49.852 42.396 49.8515 42.3955 49.851L42.3604 49.8866M42.3604 49.8866L40.036 47.1172M40.0845 47.0971C40.0848 47.102 40.0852 47.1068 40.0857 47.1116L40.036 47.1172M40.0845 47.0971C40.0835 47.0811 40.0839 47.0649 40.0857 47.0489L40.086 47.0489V47.0433V46.9049H40.0867L40.0853 46.8965C40.0785 46.8562 40.0785 46.815 40.0853 46.7747L40.086 46.7748V46.7664V46.7029M40.0845 47.0971L40.0743 47.085L40.036 47.1172M40.036 47.1172C40.0333 47.0926 40.0333 47.0679 40.036 47.0433V46.9049C40.0283 46.859 40.0283 46.8122 40.036 46.7664V46.7018M40.086 46.7029C40.086 46.7034 40.086 46.7038 40.086 46.7042L40.036 46.7018M40.086 46.7029C40.0867 46.6893 40.0868 46.6756 40.0866 46.662M40.086 46.7029V46.7018H40.036M40.036 46.7018C40.0369 46.6833 40.0369 46.6648 40.036 46.6464M40.0866 46.662L40.0764 46.6759L40.036 46.6464M40.0866 46.662L40.1155 46.6225M40.0866 46.662C40.0865 46.656 40.0863 46.65 40.086 46.644L40.036 46.6464M40.036 46.6464L40.0901 46.5725M40.1155 46.6225H40.0901V46.5725M40.1155 46.6225L40.1304 46.6021L40.0901 46.5725M40.1155 46.6225L41.7477 46.5725H40.2162H40.1441H40.0901" fill="url(#paint10_linear_735_3088)"/>
<path d="M41.2269 47.2003H41.6757C42.2098 47.2048 42.726 47.0031 43.1216 46.6353C43.5173 46.2676 43.7633 45.7607 43.8108 45.2155H44.5856C44.6883 45.2155 44.7869 45.1737 44.8595 45.0993C44.9322 45.0248 44.973 44.9239 44.973 44.8186C44.973 44.7133 44.9322 44.6123 44.8595 44.5379L41.2269 47.2003ZM41.2269 47.2003L41.2008 47.1685L41.1622 47.2003V47.2503H41.2033L42.9099 49.3235C42.9461 49.3604 42.9749 49.4042 42.9945 49.4526C43.0141 49.5009 43.0242 49.5527 43.0242 49.605C43.0242 49.6574 43.0141 49.7092 42.9945 49.7575C42.9749 49.8058 42.9461 49.8497 42.9099 49.8866M41.2269 47.2003L44.8384 44.5889M44.8384 44.5889L43.759 44.6377L43.7186 44.6396L43.7084 44.6004C43.6345 44.3181 43.5057 44.0541 43.3297 43.8243L43.2681 43.7439H43.3694H44.6126C44.6567 43.7439 44.7005 43.735 44.7413 43.7177C44.7822 43.7003 44.8194 43.6749 44.8508 43.6427C44.8821 43.6106 44.9071 43.5723 44.9242 43.5301C44.9412 43.4879 44.95 43.4427 44.95 43.3969C44.95 43.3045 44.9142 43.2162 44.8508 43.1512C44.7874 43.0863 44.7017 43.05 44.6126 43.05H40.3874C40.2983 43.05 40.2126 43.0863 40.1492 43.1512C40.086 43.216 40.0501 43.3042 40.05 43.3964C40.0522 43.4882 40.0887 43.5755 40.1518 43.6401C40.2148 43.7047 40.2994 43.7417 40.388 43.7439H41.7477H41.7477V43.7939L44.8384 44.5889ZM44.8384 44.5889C44.8927 44.652 44.923 44.7336 44.923 44.8186C44.923 44.911 44.8871 44.9994 44.8237 45.0643C44.7604 45.1293 44.6747 45.1655 44.5856 45.1655H43.8108H43.765L43.761 45.2112C43.7145 45.7442 43.474 46.2395 43.0876 46.5987C42.7012 46.9579 42.1973 47.1546 41.6761 47.1503H41.6757H41.1622H41.0562L41.1236 47.232L42.8713 49.3552L42.8712 49.3554L42.8742 49.3585C42.9058 49.3907 42.931 49.429 42.9482 49.4714C42.9654 49.5137 42.9742 49.5591 42.9742 49.605C42.9742 49.6509 42.9654 49.6964 42.9482 49.7387C42.931 49.7809 42.906 49.8191 42.8745 49.8513M42.9099 49.8866L42.8748 49.851C42.8747 49.8511 42.8746 49.8512 42.8745 49.8513M42.9099 49.8866L42.8742 49.8515C42.8743 49.8515 42.8744 49.8514 42.8745 49.8513M42.9099 49.8866C42.8361 49.9594 42.7376 50 42.6351 50C42.5327 50 42.4342 49.9594 42.3604 49.8866M42.8745 49.8513C42.8099 49.9148 42.7241 49.95 42.6351 49.95C42.5467 49.95 42.4615 49.9152 42.3971 49.8526M42.3971 49.8526L42.3987 49.8544L42.3604 49.8866M42.3971 49.8526L40.0845 47.0971M42.3971 49.8526C42.3965 49.852 42.396 49.8515 42.3955 49.851L42.3604 49.8866M42.3604 49.8866L40.036 47.1172M40.0845 47.0971C40.0848 47.102 40.0852 47.1068 40.0857 47.1116L40.036 47.1172M40.0845 47.0971C40.0835 47.0811 40.0839 47.0649 40.0857 47.0489L40.086 47.0489V47.0433V46.9049H40.0867L40.0853 46.8965C40.0785 46.8562 40.0785 46.815 40.0853 46.7747L40.086 46.7748V46.7664V46.7029M40.0845 47.0971L40.0743 47.085L40.036 47.1172M40.036 47.1172C40.0333 47.0926 40.0333 47.0679 40.036 47.0433V46.9049C40.0283 46.859 40.0283 46.8122 40.036 46.7664V46.7018M40.086 46.7029C40.086 46.7034 40.086 46.7038 40.086 46.7042L40.036 46.7018M40.086 46.7029C40.0867 46.6893 40.0868 46.6756 40.0866 46.662M40.086 46.7029V46.7018H40.036M40.036 46.7018C40.0369 46.6833 40.0369 46.6648 40.036 46.6464M40.0866 46.662L40.0764 46.6759L40.036 46.6464M40.0866 46.662L40.1155 46.6225M40.0866 46.662C40.0865 46.656 40.0863 46.65 40.086 46.644L40.036 46.6464M40.036 46.6464L40.0901 46.5725M40.1155 46.6225H40.0901V46.5725M40.1155 46.6225L40.1304 46.6021L40.0901 46.5725M40.1155 46.6225L41.7477 46.5725H40.2162H40.1441H40.0901" stroke="url(#paint11_linear_735_3088)" stroke-width="0.1"/>
<path d="M38.6149 92.9096C42.9879 92.9096 46.5347 92.5395 46.5347 92.0825C46.5347 91.6256 42.9879 91.2576 38.6149 91.2576C34.242 91.2576 30.6931 91.6278 30.6931 92.0825C30.6931 92.5373 34.242 92.9096 38.6149 92.9096Z" fill="url(#paint12_radial_735_3088)"/>
<path d="M39.5174 92.0803C39.5174 96.4527 39.1033 100 38.6126 100C38.1219 100 37.7078 96.4527 37.7078 92.0803C37.7078 87.7079 38.1219 84.1584 38.6126 84.1584C39.1033 84.1584 39.5174 87.7058 39.5174 92.0803Z" fill="url(#paint13_radial_735_3088)"/>
<path d="M7.92079 8.74994C12.2964 8.74994 15.8416 8.37971 15.8416 7.92486C15.8416 7.47 12.2964 7.09766 7.92079 7.09766C3.5452 7.09766 0 7.46154 0 7.92486C0 8.38817 3.54313 8.74994 7.92079 8.74994Z" fill="url(#paint14_radial_735_3088)"/>
<path d="M8.82159 7.92079C8.82159 12.2937 8.41779 15.8416 7.91666 15.8416C7.41552 15.8416 7.01172 12.2937 7.01172 7.92079C7.01172 3.54785 7.42588 0 7.91666 0C8.40744 0 8.82159 3.54574 8.82159 7.92079Z" fill="url(#paint15_radial_735_3088)"/>
<defs>
<linearGradient id="paint0_linear_735_3088" x1="17.8669" y1="85.3166" x2="32.221" y2="85.3166" gradientUnits="userSpaceOnUse">
<stop stop-color="white" stop-opacity="0.9"/>
<stop offset="0.04" stop-color="white" stop-opacity="0.85"/>
<stop offset="0.28" stop-color="white" stop-opacity="0.5"/>
<stop offset="0.65" stop-color="#FAFBFC" stop-opacity="0.4"/>
<stop offset="1" stop-color="#F0EFEF" stop-opacity="0.3"/>
</linearGradient>
<linearGradient id="paint1_linear_735_3088" x1="28" y1="86.5" x2="28.7575" y2="84.3676" gradientUnits="userSpaceOnUse">
<stop stop-color="white" stop-opacity="0.9"/>
<stop offset="0.28" stop-color="white" stop-opacity="0.5"/>
<stop offset="0.65" stop-color="#FAFBFC" stop-opacity="0.4"/>
<stop offset="1" stop-color="#F0EFEF" stop-opacity="0"/>
</linearGradient>
<linearGradient id="paint2_linear_735_3088" x1="45" y1="89.5" x2="11" y2="15" gradientUnits="userSpaceOnUse">
<stop stop-color="white" stop-opacity="0.9"/>
<stop offset="0.04" stop-color="white" stop-opacity="0.85"/>
<stop offset="0.28" stop-color="white" stop-opacity="0.5"/>
<stop offset="0.65" stop-color="#FAFBFC" stop-opacity="0.4"/>
<stop offset="1" stop-color="#F0EFEF" stop-opacity="0.3"/>
</linearGradient>
<linearGradient id="paint3_linear_735_3088" x1="43.0347" y1="79.7278" x2="-6.30619" y2="42.8001" gradientUnits="userSpaceOnUse">
<stop stop-color="white" stop-opacity="0.9"/>
<stop offset="0.28" stop-color="white" stop-opacity="0.5"/>
<stop offset="0.65" stop-color="#FAFBFC" stop-opacity="0.4"/>
<stop offset="1" stop-color="#F0EFEF" stop-opacity="0"/>
</linearGradient>
<linearGradient id="paint4_linear_735_3088" x1="57.5" y1="89.5" x2="37" y2="55" gradientUnits="userSpaceOnUse">
<stop stop-color="white" stop-opacity="0.9"/>
<stop offset="0.04" stop-color="white" stop-opacity="0.85"/>
<stop offset="0.28" stop-color="white" stop-opacity="0.5"/>
<stop offset="0.65" stop-color="#FAFBFC" stop-opacity="0.4"/>
<stop offset="1" stop-color="#F0EFEF" stop-opacity="0.3"/>
</linearGradient>
<linearGradient id="paint5_linear_735_3088" x1="48.8448" y1="90.6353" x2="45.0907" y2="68.6468" gradientUnits="userSpaceOnUse">
<stop stop-color="white" stop-opacity="0.5"/>
<stop offset="0.28" stop-color="white" stop-opacity="0.5"/>
<stop offset="0.65" stop-color="#FAFBFC" stop-opacity="0.4"/>
<stop offset="1" stop-color="#F0EFEF" stop-opacity="0"/>
</linearGradient>
<linearGradient id="paint6_linear_735_3088" x1="33.3851" y1="47.1809" x2="51.1953" y2="47.1809" gradientUnits="userSpaceOnUse">
<stop stop-color="#79A540"/>
<stop offset="0.2" stop-color="#94C63D"/>
<stop offset="0.39" stop-color="#98CA3C"/>
<stop offset="0.59" stop-color="#93C53E"/>
<stop offset="0.74" stop-color="#9DCB3B"/>
<stop offset="0.9" stop-color="#A6CE39"/>
<stop offset="1" stop-color="#A6CE39"/>
</linearGradient>
<linearGradient id="paint7_linear_735_3088" x1="49" y1="57" x2="41.3989" y2="41.7687" gradientUnits="userSpaceOnUse">
<stop stop-color="white" stop-opacity="0.9"/>
<stop offset="0.28" stop-color="white" stop-opacity="0.5"/>
<stop offset="0.65" stop-color="#FAFBFC" stop-opacity="0.4"/>
<stop offset="1" stop-color="#F0EFEF" stop-opacity="0"/>
</linearGradient>
<linearGradient id="paint8_linear_735_3088" x1="19.0574" y1="47.8156" x2="64.4782" y2="47.8156" gradientUnits="userSpaceOnUse">
<stop stop-color="#79A540"/>
<stop offset="0.2" stop-color="#94C63D"/>
<stop offset="0.39" stop-color="#98CA3C"/>
<stop offset="0.59" stop-color="#93C53E"/>
<stop offset="0.74" stop-color="#9DCB3B"/>
<stop offset="0.9" stop-color="#A6CE39"/>
<stop offset="1" stop-color="#A6CE39"/>
</linearGradient>
<linearGradient id="paint9_linear_735_3088" x1="53" y1="60.5" x2="52.1584" y2="36.5034" gradientUnits="userSpaceOnUse">
<stop stop-color="white" stop-opacity="0.9"/>
<stop offset="0.28" stop-color="white" stop-opacity="0.5"/>
<stop offset="0.65" stop-color="#FAFBFC" stop-opacity="0.4"/>
<stop offset="1" stop-color="#F0EFEF" stop-opacity="0"/>
</linearGradient>
<linearGradient id="paint10_linear_735_3088" x1="42.5171" y1="49.9947" x2="42.5171" y2="42.9709" gradientUnits="userSpaceOnUse">
<stop stop-color="#79A540"/>
<stop offset="0.2" stop-color="#94C63F"/>
<stop offset="0.39" stop-color="#99CA3E"/>
<stop offset="0.59" stop-color="#93C53F"/>
<stop offset="0.74" stop-color="#9DCB3B"/>
<stop offset="0.9" stop-color="#A5CE3A"/>
<stop offset="1" stop-color="#A5CE3A"/>
</linearGradient>
<linearGradient id="paint11_linear_735_3088" x1="40.4221" y1="44.1068" x2="45.0858" y2="50.2204" gradientUnits="userSpaceOnUse">
<stop stop-color="#F0EFEF" stop-opacity="0"/>
<stop offset="0.35" stop-color="#FAFBFC" stop-opacity="0.4"/>
<stop offset="0.72" stop-color="white" stop-opacity="0.5"/>
<stop offset="1" stop-color="white" stop-opacity="0.9"/>
</linearGradient>
<radialGradient id="paint12_radial_735_3088" cx="0" cy="0" r="1" gradientUnits="userSpaceOnUse" gradientTransform="translate(38.1148 91.7551) rotate(90) scale(0.820406 7.91321)">
<stop stop-color="white"/>
<stop offset="0.07" stop-color="white" stop-opacity="0.93"/>
<stop offset="1" stop-color="white" stop-opacity="0"/>
</radialGradient>
<radialGradient id="paint13_radial_735_3088" cx="0" cy="0" r="1" gradientUnits="userSpaceOnUse" gradientTransform="translate(38.6926 92.2958) scale(0.905648 7.93306)">
<stop stop-color="white"/>
<stop offset="0.07" stop-color="white" stop-opacity="0.93"/>
<stop offset="1" stop-color="white" stop-opacity="0"/>
</radialGradient>
<radialGradient id="paint14_radial_735_3088" cx="0" cy="0" r="1" gradientUnits="userSpaceOnUse" gradientTransform="translate(7.42633 7.84378) rotate(90) scale(0.820513 7.91425)">
<stop stop-color="white"/>
<stop offset="0.07" stop-color="white" stop-opacity="0.93"/>
<stop offset="1" stop-color="white" stop-opacity="0"/>
</radialGradient>
<radialGradient id="paint15_radial_735_3088" cx="0" cy="0" r="1" gradientUnits="userSpaceOnUse" gradientTransform="translate(7.92453 8.15698) scale(0.905766 7.93412)">
<stop stop-color="white"/>
<stop offset="0.07" stop-color="white" stop-opacity="0.93"/>
<stop offset="1" stop-color="white" stop-opacity="0"/>
</radialGradient>
</defs>
</svg>
