<svg width="82" height="80" viewBox="0 0 82 80" fill="none" xmlns="http://www.w3.org/2000/svg">
<path d="M34.7594 16.0336C34.0347 16.8488 33.4912 17.9359 33.4006 19.0229C33.2195 21.7404 32.1324 22.1028 30.049 20.0193C28.6902 18.6605 28.0561 18.3888 26.6067 18.3888C25.1574 18.3888 24.6139 18.6605 21.4434 21.831C18.2729 25.0015 18.0011 25.3638 18.0011 27.1756C18.0011 28.9873 18.1823 29.259 19.5411 30.4366C21.9869 32.6107 21.4434 33.9694 18.2729 33.9694C15.1024 33.9694 16.4612 34.3318 15.4647 35.4188C14.106 36.7776 14.0154 37.0494 14.0154 40.2198C14.0154 43.3903 14.0154 43.6621 15.4647 44.9303C16.4612 45.9267 17.367 46.3796 18.6352 46.4702C21.3528 46.6514 21.7151 47.7384 19.6317 49.8219C18.2729 51.1806 18.0011 51.8148 18.0011 53.2641C18.0011 54.7135 18.2729 55.257 21.4434 58.4275C24.6139 61.598 24.9762 61.8697 26.7879 61.8697C28.5996 61.8697 28.8714 61.598 30.1396 60.1486C31.4078 58.7898 31.8607 58.6086 32.4948 58.971C33.0383 59.2427 33.31 60.058 33.31 61.0544C33.31 62.2321 33.6724 63.0473 34.5782 63.9532C35.7558 65.2214 36.0276 65.312 39.4698 65.312C42.9121 65.312 43.1838 65.312 44.1803 64.1343C44.905 63.3191 45.4485 62.2321 45.5391 61.145C45.6296 60.058 45.992 59.2427 46.4449 58.971C47.1696 58.6086 47.5319 58.7898 48.7095 60.1486C49.9777 61.598 50.4307 61.8697 52.1518 61.8697C53.8729 61.8697 54.3258 61.6885 57.5869 58.4275C60.6668 55.257 61.0291 54.8041 61.0291 53.1735C61.0291 51.543 60.7574 51.1806 59.4892 49.9125C57.134 47.5572 57.5869 46.3796 60.7574 46.3796C63.9279 46.3796 64.4714 44.5679 64.7431 40.401L65.0149 36.8682L63.4749 35.3282C62.2067 34.1506 61.6632 33.8789 60.6668 34.1506C59.6704 34.3318 59.1269 34.1506 58.5833 33.6071C57.8587 32.7918 57.8587 32.7013 59.3986 30.9801C60.7574 29.5308 61.0291 28.8967 61.0291 27.2661C61.0291 25.6356 60.848 25.1827 57.8587 22.1028C54.6882 18.9323 54.5976 18.8417 52.333 18.8417C50.0683 18.8417 49.9777 19.0229 49.3436 19.9287C47.6225 22.5557 45.5391 22.0122 45.5391 18.8417C45.5391 15.6712 45.2673 16.9394 44.2709 16.0336C43.0933 14.9465 42.7309 14.856 39.4698 14.856C36.2088 14.856 35.8464 14.856 34.7594 16.0336ZM42.278 18.3888C42.5497 18.6605 42.8215 19.657 42.8215 20.6534C42.8215 21.6499 43.0933 22.6463 44.1803 23.7333C45.2673 24.8203 45.8108 25.0921 47.3508 24.8203C48.5284 24.6392 49.6154 24.0957 50.5212 23.1898C51.3365 22.4651 52.2424 21.831 52.6047 21.831C53.3294 21.831 58.3116 26.8132 58.3116 27.5379C58.3116 28.2626 57.6775 28.5343 56.8622 29.1684C55.594 30.2555 55.4128 30.6178 55.4128 32.7013C55.4128 34.6941 55.5034 35.1471 56.681 36.2341C57.5869 37.0493 58.4927 37.4117 59.3986 37.3211C61.3915 37.2305 61.8444 37.774 61.6632 40.5822V42.9374C61.5726 42.9374 59.7609 43.028 59.7609 43.028C58.5833 43.028 57.4963 43.5715 56.4093 44.3868C55.0505 45.5644 54.8693 45.9267 54.9599 48.0102C54.9599 50.003 55.1411 50.456 56.4093 51.4524C57.2246 51.9959 57.8587 52.9018 57.8587 53.2641C57.8587 54.0794 53.0576 59.0616 52.2424 59.0616C51.4271 59.0616 51.3365 58.5181 50.793 57.7934C49.8871 56.5252 47.4413 55.6193 45.5391 55.8911C43.6368 56.1628 42.1874 58.8804 42.4592 60.058C42.8215 61.5074 41.5533 62.5944 39.3793 62.5944C37.2052 62.5944 36.4805 62.0509 36.4805 60.3298C36.4805 58.6086 34.7594 56.0723 33.31 55.8005C31.4078 55.3476 29.5055 55.9817 28.3279 57.431C27.6938 58.1557 26.8785 58.6992 26.4256 58.6992C25.4291 58.6992 20.9904 54.3511 20.9904 53.2641C20.9904 52.1771 21.6245 51.9053 22.3492 51.2712C23.4362 50.3654 23.7986 49.5501 23.9798 47.7384C24.1609 45.5644 24.1609 45.3832 22.8022 44.115C21.7151 43.2092 20.8093 42.7562 19.5411 42.6656H17.7294C17.7294 42.5751 17.6388 40.2198 17.6388 40.2198C17.4576 37.3211 18.0011 36.5964 20.1752 36.5964C24.2515 36.5964 25.8821 31.5236 22.5304 28.9873C21.9869 28.5343 21.534 27.7191 21.534 27.1756C21.534 26.0885 25.7915 21.5593 26.7879 21.5593C27.7843 21.5593 28.1467 22.1934 28.8714 23.0086C30.049 24.1862 30.6831 24.3674 32.3136 24.3674C33.9441 24.3674 34.4877 24.1862 35.3935 23.0992C36.0276 22.2839 36.4805 21.1969 36.4805 20.2005C36.4805 19.2946 36.5711 18.4794 36.7523 18.2982C37.2052 17.7547 41.5533 17.9359 42.0968 18.4794L42.278 18.3888Z" fill="#96C83C"/>
<path d="M35.937 32.2481C33.3101 33.4258 30.8643 37.1398 30.8643 39.8573C30.8643 45.2924 35.2124 49.2782 40.6475 48.7347C45.1767 48.2817 48.3472 44.6583 48.2566 39.9479C48.2566 36.3245 46.1732 33.154 43.0933 32.067C41.3722 31.4329 37.477 31.5235 35.937 32.1576V32.2481ZM42.4592 34.9657C44.1803 35.8716 45.5391 38.1362 45.5391 40.0385C45.5391 45.2924 39.0169 47.6476 35.4841 43.8431C31.2266 39.2232 36.8429 32.067 42.4592 34.9657Z" fill="#96C83C"/>
<path d="M4.73109 24.6392C5.99929 25.2733 5.99929 25.1827 4.73109 29.1685C3.46291 33.1542 2.73821 39.2234 3.28172 44.2962C5.00285 59.6957 16.326 72.4682 31.2726 75.9105C36.7983 77.1787 45.0415 76.9975 49.8426 75.4575C55.8212 73.5552 61.5281 70.0224 65.7856 65.7649L67.9596 63.5003H61.6186V60.4204H73.8477V72.8306H70.7678V65.2214L67.5067 68.3013C59.8069 75.7293 51.8354 79.2621 41.9616 79.8056C23.0293 80.8927 6.90514 69.4789 1.47002 51.3619C0.111244 46.6514 -0.432266 38.8611 0.383003 34.1507C0.926514 30.799 3.00997 24.2769 3.4629 24.2769C3.64407 24.2769 4.18758 24.458 4.73109 24.7298V24.6392Z" fill="url(#paint0_linear_1119_16565)"/>
<path d="M44.4979 0.634072C48.846 1.17758 55.4587 3.44222 59.3539 5.70685C75.5687 15.3089 82.9061 34.6941 77.1086 52.4489C76.4745 54.3511 75.8404 55.8911 75.5687 55.8911C75.2969 55.8911 74.6628 55.7099 74.0287 55.3476C73.304 54.9852 72.9417 54.6229 73.1229 54.17C75.3875 48.3725 76.2028 43.3903 75.8404 37.774C74.844 22.1028 64.1549 8.87733 48.7554 4.52924C45.8567 3.71397 44.2262 3.5328 39.244 3.5328C34.0806 3.5328 32.7218 3.71397 29.3702 4.80099C22.848 6.70329 17.7753 9.78318 13.3366 14.3124L11.1625 16.5771H17.5035V19.657H5.09331V7.2468H8.17321V14.856L11.3437 11.7761C15.1483 8.15265 17.3223 6.6127 21.8516 4.25748C28.102 1.17758 37.1605 -0.362366 44.3167 0.452901L44.4979 0.634072Z" fill="url(#paint1_linear_1119_16565)"/>
<path d="M7.88256 8.16734C12.0505 8.16734 15.4301 7.82096 15.4301 7.39593C15.4301 6.9709 12.0598 6.62451 7.88256 6.62451C3.70531 6.62451 0.336914 6.9709 0.336914 7.39593C0.336914 7.82096 3.71467 8.16734 7.88256 8.16734Z" fill="url(#paint2_radial_1119_16565)"/>
<path d="M8.74203 7.39211C8.74203 11.4701 8.35632 14.7786 7.87887 14.7786C7.40141 14.7786 7.01758 11.4701 7.01758 7.39211C7.01758 3.31409 7.40329 0 7.87887 0C8.35445 0 8.74203 3.31409 8.74203 7.39211Z" fill="url(#paint3_radial_1119_16565)"/>
<path d="M74.0098 73.3885C78.1776 73.3885 81.5573 73.0421 81.5573 72.6171C81.5573 72.1921 78.187 71.8457 74.0098 71.8457C69.8325 71.8457 66.4641 72.1921 66.4641 72.6171C66.4641 73.0421 69.8419 73.3885 74.0098 73.3885Z" fill="url(#paint4_radial_1119_16565)"/>
<path d="M74.8692 72.6133C74.8692 76.6913 74.4835 79.9998 74.0061 79.9998C73.5286 79.9998 73.1448 76.6913 73.1448 72.6133C73.1448 68.5353 73.5305 65.2212 74.0061 65.2212C74.4816 65.2212 74.8692 68.5353 74.8692 72.6133Z" fill="url(#paint5_radial_1119_16565)"/>
<defs>
<linearGradient id="paint0_linear_1119_16565" x1="14.8306" y1="12.2292" x2="75.4173" y2="26.1143" gradientUnits="userSpaceOnUse">
<stop stop-color="#F0EFEF" stop-opacity="0.3"/>
<stop offset="0.35" stop-color="#FAFBFC" stop-opacity="0.4"/>
<stop offset="0.72" stop-color="white" stop-opacity="0.5"/>
<stop offset="0.96" stop-color="white" stop-opacity="0.85"/>
<stop offset="1" stop-color="white" stop-opacity="0.9"/>
</linearGradient>
<linearGradient id="paint1_linear_1119_16565" x1="19.9511" y1="-11.8226" x2="80.6435" y2="2.09862" gradientUnits="userSpaceOnUse">
<stop stop-color="#F0EFEF" stop-opacity="0.3"/>
<stop offset="0.35" stop-color="#FAFBFC" stop-opacity="0.4"/>
<stop offset="0.72" stop-color="white" stop-opacity="0.5"/>
<stop offset="0.96" stop-color="white" stop-opacity="0.85"/>
<stop offset="1" stop-color="white" stop-opacity="0.9"/>
</linearGradient>
<radialGradient id="paint2_radial_1119_16565" cx="0" cy="0" r="1" gradientUnits="userSpaceOnUse" gradientTransform="translate(7.14499 7.6472) rotate(90) scale(0.765724 7.54557)">
<stop stop-color="white"/>
<stop offset="0.07" stop-color="white" stop-opacity="0.93"/>
<stop offset="1" stop-color="white" stop-opacity="0"/>
</radialGradient>
<radialGradient id="paint3_radial_1119_16565" cx="0" cy="0" r="1" gradientUnits="userSpaceOnUse" gradientTransform="translate(7.8937 7.73838) scale(0.863461 7.40338)">
<stop stop-color="white"/>
<stop offset="0.07" stop-color="white" stop-opacity="0.93"/>
<stop offset="1" stop-color="white" stop-opacity="0"/>
</radialGradient>
<radialGradient id="paint4_radial_1119_16565" cx="0" cy="0" r="1" gradientUnits="userSpaceOnUse" gradientTransform="translate(73.2722 72.8684) rotate(90) scale(0.765724 7.54557)">
<stop stop-color="white"/>
<stop offset="0.07" stop-color="white" stop-opacity="0.93"/>
<stop offset="1" stop-color="white" stop-opacity="0"/>
</radialGradient>
<radialGradient id="paint5_radial_1119_16565" cx="0" cy="0" r="1" gradientUnits="userSpaceOnUse" gradientTransform="translate(74.0209 72.9596) scale(0.863461 7.40338)">
<stop stop-color="white"/>
<stop offset="0.07" stop-color="white" stop-opacity="0.93"/>
<stop offset="1" stop-color="white" stop-opacity="0"/>
</radialGradient>
</defs>
</svg>
