<svg width="90" height="80" viewBox="0 0 90 80" fill="none" xmlns="http://www.w3.org/2000/svg">
<mask id="mask0_1081_15843" style="mask-type:alpha" maskUnits="userSpaceOnUse" x="12" y="0" width="78" height="80">
<mask id="path-1-inside-1_1081_15843" fill="white">
<path d="M87.6029 48.6586L84.8634 47.0875C85.782 42.582 85.7855 37.9379 84.8737 33.431L87.6029 31.8558C88.0195 31.6158 88.3846 31.2958 88.6773 30.9144C88.97 30.5329 89.1845 30.0975 89.3086 29.633C89.4327 29.1685 89.4639 28.6841 89.4004 28.2075C89.3369 27.7309 89.18 27.2715 88.9387 26.8557L81.4777 13.93C81.2378 13.5146 80.9184 13.1506 80.5378 12.8586C80.1572 12.5667 79.7228 12.3526 79.2594 12.2285C78.7961 12.1045 78.3128 12.073 77.8373 12.1357C77.3617 12.1985 76.9032 12.3543 76.4878 12.5943L73.7565 14.1695C70.3014 11.1331 66.2817 8.80753 61.9271 7.3258V4.1878C61.926 3.21901 61.5407 2.29021 60.8557 1.60516C60.1706 0.920121 59.2418 0.534784 58.273 0.533691H43.349C42.3805 0.53533 41.4522 0.920908 40.7677 1.60589C40.0831 2.29087 39.698 3.21936 39.6969 4.1878V7.3258C35.3462 8.8113 31.3312 11.1404 27.8819 14.1798L25.1362 12.5943C24.7208 12.354 24.2621 12.1979 23.7863 12.135C23.3105 12.072 22.827 12.1035 22.3634 12.2276C21.8998 12.3516 21.4652 12.5658 21.0844 12.8579C20.7037 13.1501 20.3842 13.5144 20.1443 13.93L12.6833 26.8557C12.4434 27.2711 12.2877 27.7298 12.2251 28.2054C12.1625 28.6811 12.1942 29.1644 12.3184 29.6278C12.4427 30.0911 12.657 30.5255 12.9491 30.906C13.2413 31.2866 13.6055 31.6058 14.0211 31.8455L16.7606 33.4269C15.8427 37.9328 15.8427 42.5775 16.7606 47.0834L14.0314 48.6586C13.193 49.1435 12.5812 49.9412 12.3304 50.8768C12.0796 51.8123 12.2102 52.8091 12.6936 53.6484L20.1443 66.574C20.6296 67.4121 21.4275 68.0235 22.363 68.2739C23.2985 68.5243 24.2951 68.3933 25.1341 67.9097L27.8634 66.3346C31.3187 69.3718 35.3393 71.6974 39.6948 73.1783V76.3183C39.6965 77.2864 40.0818 78.2144 40.7663 78.8989C41.4509 79.5835 42.3788 79.9687 43.3469 79.9704H58.2709C59.2394 79.9693 60.1679 79.5842 60.8529 78.8996C61.5378 78.215 61.9234 77.2868 61.9251 76.3183V73.1783C66.2753 71.6932 70.2897 69.364 73.738 66.3242L76.4858 67.9097C77.3248 68.3933 78.3214 68.5243 79.2569 68.2739C80.1924 68.0235 80.9903 67.4121 81.4756 66.574L88.9387 53.6484C89.4217 52.8092 89.5523 51.8128 89.302 50.8774C89.0516 49.9421 88.4406 49.1442 87.6029 48.6586ZM86.9196 52.484L79.4586 65.4076C79.2833 65.7108 78.9948 65.9321 78.6564 66.0227C78.3181 66.1132 77.9576 66.0658 77.6543 65.8907L74.1736 63.882C73.9582 63.7571 73.7084 63.7045 73.4609 63.732C73.2135 63.7595 72.9814 63.8656 72.7986 64.0347C69.2537 67.3182 65.0225 69.7716 60.4118 71.217C60.1731 71.2896 59.964 71.4369 59.8154 71.6372C59.6667 71.8375 59.5863 72.0803 59.586 72.3298V76.3183C59.5855 76.6686 59.4461 77.0043 59.1984 77.252C58.9508 77.4997 58.615 77.639 58.2648 77.6396H43.349C42.9989 77.6385 42.6634 77.499 42.4159 77.2514C42.1683 77.0039 42.0288 76.6684 42.0277 76.3183V72.3298C42.0274 72.0803 41.947 71.8375 41.7984 71.6372C41.6497 71.4369 41.4406 71.2896 41.2019 71.217C36.5924 69.774 32.3614 67.3243 28.8151 64.0451C28.6326 63.8764 28.401 63.7704 28.154 63.7425C27.9071 63.7147 27.6577 63.7664 27.4422 63.8902L23.976 65.8907C23.8258 65.9777 23.66 66.0342 23.488 66.0569C23.316 66.0797 23.1412 66.0684 22.9736 66.0235C22.806 65.9786 22.6489 65.9011 22.5112 65.7954C22.3736 65.6897 22.2582 65.558 22.1716 65.4076L14.7086 52.484C14.5338 52.1805 14.4862 51.8201 14.5764 51.4816C14.6665 51.1431 14.887 50.854 15.1896 50.6776L18.6517 48.6792C18.8669 48.5549 19.0367 48.365 19.1362 48.1373C19.2358 47.9096 19.2599 47.6561 19.205 47.4137C18.13 42.7021 18.1343 37.8084 19.2174 33.0986C19.2721 32.856 19.2479 32.6022 19.1484 32.3742C19.0489 32.1462 18.8792 31.9559 18.6641 31.8311L15.1896 29.8265C14.8863 29.6507 14.6649 29.362 14.574 29.0234C14.4831 28.6849 14.53 28.3241 14.7044 28.02L22.1654 15.0882C22.252 14.9379 22.3674 14.8061 22.5051 14.7004C22.6427 14.5947 22.7998 14.5172 22.9674 14.4723C23.135 14.4275 23.3098 14.4161 23.4818 14.4389C23.6538 14.4617 23.8196 14.5182 23.9698 14.6051L27.4505 16.6139C27.6659 16.7387 27.9156 16.7913 28.1631 16.7638C28.4106 16.7363 28.6427 16.6302 28.8254 16.4611C32.3687 13.1826 36.596 10.7322 41.2019 9.28705C41.4404 9.21422 41.6493 9.06685 41.7979 8.86659C41.9466 8.66632 42.0271 8.42369 42.0277 8.1743V4.1878C42.0282 3.83755 42.1676 3.5018 42.4153 3.25413C42.663 3.00647 42.9987 2.86709 43.349 2.86654H58.2709C58.6212 2.86709 58.957 3.00647 59.2046 3.25413C59.4523 3.5018 59.5917 3.83755 59.5922 4.1878V8.1743C59.5928 8.42369 59.6733 8.66632 59.822 8.86659C59.9706 9.06685 60.1795 9.21422 60.418 9.28705C65.0312 10.7285 69.2659 13.1783 72.8151 16.459C72.9978 16.6282 73.2298 16.7345 73.4772 16.7623C73.7246 16.7902 73.9744 16.7381 74.1901 16.6139L77.6563 14.6134C77.9597 14.4383 78.3202 14.3908 78.6585 14.4814C78.9968 14.572 79.2854 14.7932 79.4607 15.0965L86.9217 28.02C87.0968 28.3237 87.1444 28.6845 87.0538 29.0232C86.9632 29.3619 86.742 29.6508 86.4386 29.8265L82.9765 31.8249C82.7613 31.9492 82.5915 32.139 82.4919 32.3667C82.3924 32.5944 82.3683 32.848 82.4232 33.0904C83.4981 37.802 83.4939 42.6957 82.4108 47.4054C82.3554 47.6481 82.3793 47.9021 82.4788 48.1303C82.5784 48.3584 82.7485 48.5486 82.9641 48.673L86.4386 50.6776C86.7416 50.8537 86.9624 51.1427 87.0526 51.4814C87.1428 51.82 87.095 52.1806 86.9196 52.484Z"/>
</mask>
<path d="M87.6029 48.6586L84.8634 47.0875C85.782 42.582 85.7855 37.9379 84.8737 33.431L87.6029 31.8558C88.0195 31.6158 88.3846 31.2958 88.6773 30.9144C88.97 30.5329 89.1845 30.0975 89.3086 29.633C89.4327 29.1685 89.4639 28.6841 89.4004 28.2075C89.3369 27.7309 89.18 27.2715 88.9387 26.8557L81.4777 13.93C81.2378 13.5146 80.9184 13.1506 80.5378 12.8586C80.1572 12.5667 79.7228 12.3526 79.2594 12.2285C78.7961 12.1045 78.3128 12.073 77.8373 12.1357C77.3617 12.1985 76.9032 12.3543 76.4878 12.5943L73.7565 14.1695C70.3014 11.1331 66.2817 8.80753 61.9271 7.3258V4.1878C61.926 3.21901 61.5407 2.29021 60.8557 1.60516C60.1706 0.920121 59.2418 0.534784 58.273 0.533691H43.349C42.3805 0.53533 41.4522 0.920908 40.7677 1.60589C40.0831 2.29087 39.698 3.21936 39.6969 4.1878V7.3258C35.3462 8.8113 31.3312 11.1404 27.8819 14.1798L25.1362 12.5943C24.7208 12.354 24.2621 12.1979 23.7863 12.135C23.3105 12.072 22.827 12.1035 22.3634 12.2276C21.8998 12.3516 21.4652 12.5658 21.0844 12.8579C20.7037 13.1501 20.3842 13.5144 20.1443 13.93L12.6833 26.8557C12.4434 27.2711 12.2877 27.7298 12.2251 28.2054C12.1625 28.6811 12.1942 29.1644 12.3184 29.6278C12.4427 30.0911 12.657 30.5255 12.9491 30.906C13.2413 31.2866 13.6055 31.6058 14.0211 31.8455L16.7606 33.4269C15.8427 37.9328 15.8427 42.5775 16.7606 47.0834L14.0314 48.6586C13.193 49.1435 12.5812 49.9412 12.3304 50.8768C12.0796 51.8123 12.2102 52.8091 12.6936 53.6484L20.1443 66.574C20.6296 67.4121 21.4275 68.0235 22.363 68.2739C23.2985 68.5243 24.2951 68.3933 25.1341 67.9097L27.8634 66.3346C31.3187 69.3718 35.3393 71.6974 39.6948 73.1783V76.3183C39.6965 77.2864 40.0818 78.2144 40.7663 78.8989C41.4509 79.5835 42.3788 79.9687 43.3469 79.9704H58.2709C59.2394 79.9693 60.1679 79.5842 60.8529 78.8996C61.5378 78.215 61.9234 77.2868 61.9251 76.3183V73.1783C66.2753 71.6932 70.2897 69.364 73.738 66.3242L76.4858 67.9097C77.3248 68.3933 78.3214 68.5243 79.2569 68.2739C80.1924 68.0235 80.9903 67.4121 81.4756 66.574L88.9387 53.6484C89.4217 52.8092 89.5523 51.8128 89.302 50.8774C89.0516 49.9421 88.4406 49.1442 87.6029 48.6586ZM86.9196 52.484L79.4586 65.4076C79.2833 65.7108 78.9948 65.9321 78.6564 66.0227C78.3181 66.1132 77.9576 66.0658 77.6543 65.8907L74.1736 63.882C73.9582 63.7571 73.7084 63.7045 73.4609 63.732C73.2135 63.7595 72.9814 63.8656 72.7986 64.0347C69.2537 67.3182 65.0225 69.7716 60.4118 71.217C60.1731 71.2896 59.964 71.4369 59.8154 71.6372C59.6667 71.8375 59.5863 72.0803 59.586 72.3298V76.3183C59.5855 76.6686 59.4461 77.0043 59.1984 77.252C58.9508 77.4997 58.615 77.639 58.2648 77.6396H43.349C42.9989 77.6385 42.6634 77.499 42.4159 77.2514C42.1683 77.0039 42.0288 76.6684 42.0277 76.3183V72.3298C42.0274 72.0803 41.947 71.8375 41.7984 71.6372C41.6497 71.4369 41.4406 71.2896 41.2019 71.217C36.5924 69.774 32.3614 67.3243 28.8151 64.0451C28.6326 63.8764 28.401 63.7704 28.154 63.7425C27.9071 63.7147 27.6577 63.7664 27.4422 63.8902L23.976 65.8907C23.8258 65.9777 23.66 66.0342 23.488 66.0569C23.316 66.0797 23.1412 66.0684 22.9736 66.0235C22.806 65.9786 22.6489 65.9011 22.5112 65.7954C22.3736 65.6897 22.2582 65.558 22.1716 65.4076L14.7086 52.484C14.5338 52.1805 14.4862 51.8201 14.5764 51.4816C14.6665 51.1431 14.887 50.854 15.1896 50.6776L18.6517 48.6792C18.8669 48.5549 19.0367 48.365 19.1362 48.1373C19.2358 47.9096 19.2599 47.6561 19.205 47.4137C18.13 42.7021 18.1343 37.8084 19.2174 33.0986C19.2721 32.856 19.2479 32.6022 19.1484 32.3742C19.0489 32.1462 18.8792 31.9559 18.6641 31.8311L15.1896 29.8265C14.8863 29.6507 14.6649 29.362 14.574 29.0234C14.4831 28.6849 14.53 28.3241 14.7044 28.02L22.1654 15.0882C22.252 14.9379 22.3674 14.8061 22.5051 14.7004C22.6427 14.5947 22.7998 14.5172 22.9674 14.4723C23.135 14.4275 23.3098 14.4161 23.4818 14.4389C23.6538 14.4617 23.8196 14.5182 23.9698 14.6051L27.4505 16.6139C27.6659 16.7387 27.9156 16.7913 28.1631 16.7638C28.4106 16.7363 28.6427 16.6302 28.8254 16.4611C32.3687 13.1826 36.596 10.7322 41.2019 9.28705C41.4404 9.21422 41.6493 9.06685 41.7979 8.86659C41.9466 8.66632 42.0271 8.42369 42.0277 8.1743V4.1878C42.0282 3.83755 42.1676 3.5018 42.4153 3.25413C42.663 3.00647 42.9987 2.86709 43.349 2.86654H58.2709C58.6212 2.86709 58.957 3.00647 59.2046 3.25413C59.4523 3.5018 59.5917 3.83755 59.5922 4.1878V8.1743C59.5928 8.42369 59.6733 8.66632 59.822 8.86659C59.9706 9.06685 60.1795 9.21422 60.418 9.28705C65.0312 10.7285 69.2659 13.1783 72.8151 16.459C72.9978 16.6282 73.2298 16.7345 73.4772 16.7623C73.7246 16.7902 73.9744 16.7381 74.1901 16.6139L77.6563 14.6134C77.9597 14.4383 78.3202 14.3908 78.6585 14.4814C78.9968 14.572 79.2854 14.7932 79.4607 15.0965L86.9217 28.02C87.0968 28.3237 87.1444 28.6845 87.0538 29.0232C86.9632 29.3619 86.742 29.6508 86.4386 29.8265L82.9765 31.8249C82.7613 31.9492 82.5915 32.139 82.4919 32.3667C82.3924 32.5944 82.3683 32.848 82.4232 33.0904C83.4981 37.802 83.4939 42.6957 82.4108 47.4054C82.3554 47.6481 82.3793 47.9021 82.4788 48.1303C82.5784 48.3584 82.7485 48.5486 82.9641 48.673L86.4386 50.6776C86.7416 50.8537 86.9624 51.1427 87.0526 51.4814C87.1428 51.82 87.095 52.1806 86.9196 52.484Z" stroke="url(#paint0_linear_1081_15843)" stroke-width="0.5" stroke-miterlimit="10" mask="url(#path-1-inside-1_1081_15843)"/>
<path d="M87.6029 48.682L84.8634 47.1006C85.782 42.5951 85.7855 37.951 84.8737 33.4441L87.6029 31.8689C88.4415 31.3841 89.0532 30.5862 89.3036 29.6505C89.5541 28.7149 89.4228 27.718 88.9387 26.8791L81.4777 13.9535C81.2383 13.5376 80.9193 13.1729 80.5389 12.8803C80.1586 12.5878 79.7243 12.3731 79.2608 12.2484C78.7974 12.1238 78.314 12.0917 77.8382 12.154C77.3624 12.2164 76.9035 12.3718 76.4878 12.6116L73.7565 14.1868C70.302 11.1496 66.2821 8.82394 61.9271 7.34304V4.21124C61.926 3.24245 61.5407 2.31364 60.8557 1.6286C60.1706 0.943558 59.2418 0.558222 58.273 0.557129H43.349C42.3805 0.558768 41.4522 0.944346 40.7677 1.62933C40.0831 2.31431 39.698 3.2428 39.6969 4.21124V7.34924C35.3462 8.83474 31.3312 11.1639 27.8819 14.2033L25.1362 12.6116C24.7204 12.3715 24.2614 12.2158 23.7854 12.1533C23.3093 12.0908 22.8257 12.1228 22.362 12.2474C21.8984 12.3721 21.4638 12.5869 21.0833 12.8797C20.7028 13.1724 20.3837 13.5373 20.1443 13.9535L12.6833 26.8791C12.4434 27.2946 12.2877 27.7532 12.2251 28.2289C12.1625 28.7045 12.1942 29.1878 12.3184 29.6512C12.4427 30.1146 12.657 30.5489 12.9491 30.9295C13.2413 31.31 13.6055 31.6292 14.0211 31.8689L16.7606 33.4503C15.8427 37.9562 15.8427 42.6009 16.7606 47.1068L14.0314 48.682C13.193 49.1669 12.5812 49.9647 12.3304 50.9002C12.0796 51.8357 12.2102 52.8325 12.6936 53.6718L20.1443 66.5975C20.6285 67.4372 21.4264 68.0502 22.3625 68.3018C23.2985 68.5535 24.2962 68.4231 25.1362 67.9394L27.8654 66.3642C31.3207 69.4014 35.3413 71.727 39.6969 73.2079V76.3459C39.698 77.3143 40.0831 78.2428 40.7677 78.9278C41.4522 79.6128 42.3805 79.9984 43.349 80H58.273C59.2418 79.9989 60.1706 79.6136 60.8557 78.9285C61.5407 78.2435 61.926 77.3147 61.9271 76.3459V73.2079C66.2774 71.7228 70.2918 69.3936 73.74 66.3539L76.4878 67.9394C77.3269 68.423 78.3235 68.5539 79.259 68.3035C80.1945 68.0531 80.9924 67.4417 81.4777 66.6037L88.9407 53.678C89.4255 52.838 89.557 51.8399 89.3061 50.9031C89.0553 49.9662 88.4426 49.1673 87.6029 48.682ZM86.9196 52.5075L79.4586 65.431C79.2833 65.7343 78.9948 65.9555 78.6564 66.0461C78.3181 66.1367 77.9576 66.0892 77.6543 65.9141L74.1736 63.9054C73.9582 63.7805 73.7084 63.7279 73.4609 63.7554C73.2135 63.7829 72.9814 63.889 72.7986 64.0582C69.2532 67.3409 65.0221 69.7942 60.4118 71.2405C60.1731 71.313 59.964 71.4603 59.8154 71.6606C59.6667 71.861 59.5863 72.1037 59.586 72.3532V76.3397C59.5855 76.69 59.4461 77.0257 59.1984 77.2734C58.9508 77.521 58.615 77.6604 58.2648 77.661H43.349C42.9987 77.6604 42.663 77.521 42.4153 77.2734C42.1676 77.0257 42.0282 76.69 42.0277 76.3397V72.3532C42.0274 72.1037 41.947 71.861 41.7984 71.6606C41.6497 71.4603 41.4406 71.313 41.2019 71.2405C36.5924 69.7974 32.3614 67.3477 28.8151 64.0685C28.6333 63.8986 28.4015 63.7918 28.1543 63.7639C27.907 63.7361 27.6573 63.7886 27.4422 63.9137L23.976 65.9141C23.6726 66.0892 23.3121 66.1367 22.9738 66.0461C22.6355 65.9555 22.3469 65.7343 22.1716 65.431L14.7086 52.5075C14.5338 52.2039 14.4862 51.8435 14.5764 51.505C14.6665 51.1665 14.887 50.8775 15.1896 50.701L18.6517 48.7026C18.8669 48.5784 19.0367 48.3885 19.1362 48.1608C19.2358 47.9331 19.2599 47.6795 19.205 47.4371C18.13 42.7255 18.1343 37.8318 19.2174 33.1221C19.2721 32.8794 19.2479 32.6256 19.1484 32.3976C19.0489 32.1697 18.8792 31.9794 18.6641 31.8545L15.1896 29.8499C14.8863 29.6742 14.6649 29.3854 14.574 29.0469C14.4831 28.7083 14.53 28.3475 14.7044 28.0435L22.1675 15.1199C22.2541 14.9695 22.3695 14.8378 22.5071 14.7321C22.6447 14.6264 22.8018 14.5489 22.9694 14.504C23.1371 14.4591 23.3119 14.4478 23.4839 14.4706C23.6559 14.4934 23.8217 14.5498 23.9718 14.6368L27.4525 16.6455C27.6679 16.7704 27.9177 16.823 28.1652 16.7955C28.4126 16.768 28.6447 16.6619 28.8275 16.4928C32.3691 13.2109 36.5958 10.7569 41.2019 9.30842C41.4404 9.23559 41.6493 9.08823 41.798 8.88796C41.9466 8.68769 42.0271 8.44506 42.0277 8.19567V4.21124C42.0282 3.86099 42.1676 3.52524 42.4153 3.27757C42.663 3.02991 42.9987 2.89053 43.349 2.88998H58.2709C58.6212 2.89053 58.957 3.02991 59.2046 3.27757C59.4523 3.52524 59.5917 3.86099 59.5922 4.21124V8.19773C59.5928 8.44712 59.6733 8.68975 59.822 8.89002C59.9706 9.09029 60.1795 9.23765 60.418 9.31048C65.0312 10.7519 69.2659 13.2018 72.8151 16.4825C72.9978 16.6516 73.2298 16.7579 73.4772 16.7857C73.7246 16.8136 73.9744 16.7616 74.1901 16.6373L77.6563 14.6368C77.9597 14.4617 78.3202 14.4143 78.6585 14.5048C78.9968 14.5954 79.2854 14.8167 79.4607 15.1199L86.9217 28.0435C87.0969 28.3472 87.1444 28.7079 87.0538 29.0466C86.9632 29.3853 86.742 29.6742 86.4386 29.8499L82.9765 31.8483C82.7613 31.9726 82.5915 32.1625 82.4919 32.3902C82.3924 32.6179 82.3683 32.8715 82.4232 33.1138C83.4981 37.8254 83.4939 42.7191 82.4108 47.4289C82.3554 47.6715 82.3793 47.9256 82.4788 48.1537C82.5784 48.3818 82.7485 48.572 82.9641 48.6964L86.4386 50.701C86.7416 50.8771 86.9624 51.1661 87.0526 51.5048C87.1428 51.8434 87.095 52.204 86.9196 52.5075Z" fill="url(#paint1_linear_1081_15843)"/>
<path d="M51.5245 17.1396C46.7835 17.1396 42.1489 18.5455 38.2069 21.1795C34.2649 23.8135 31.1925 27.5572 29.3782 31.9373C27.5639 36.3175 27.0891 41.1372 28.0141 45.7872C28.939 50.4371 31.222 54.7083 34.5744 58.0607C37.9268 61.4131 42.198 63.6961 46.848 64.621C51.4979 65.546 56.3176 65.0713 60.6978 63.257C65.0779 61.4427 68.8217 58.3702 71.4556 54.4282C74.0896 50.4862 75.4955 45.8517 75.4955 41.1106C75.4882 34.7554 72.9604 28.6624 68.4665 24.1686C63.9727 19.6747 57.8798 17.1469 51.5245 17.1396ZM51.5245 62.7072C47.2531 62.7072 43.0776 61.4406 39.5261 59.0676C35.9745 56.6945 33.2064 53.3216 31.5718 49.3753C29.9372 45.429 29.5095 41.0867 30.3429 36.8974C31.1762 32.708 33.233 28.8599 36.2534 25.8396C39.2737 22.8192 43.1219 20.7623 47.3112 19.929C51.5005 19.0957 55.8429 19.5234 59.7891 21.158C63.7354 22.7926 67.1083 25.5607 69.4814 29.1122C71.8545 32.6638 73.1211 36.8392 73.1211 41.1106C73.1149 46.8365 70.8376 52.3262 66.7888 56.375C62.74 60.4238 57.2504 62.7011 51.5245 62.7072Z" fill="url(#paint2_linear_1081_15843)"/>
<path d="M51.5308 62.8322H51.531C57.289 62.8244 62.809 60.5333 66.8802 56.4613C70.9514 52.3893 73.2415 46.8689 73.2482 41.1108V41.1106C73.2482 36.8143 71.9741 32.6145 69.5871 29.0423C67.2001 25.4701 63.8074 22.686 59.8381 21.0421C55.8687 19.3982 51.501 18.9683 47.2874 19.8067C43.0737 20.6452 39.2032 22.7144 36.1656 25.7527C33.1279 28.7909 31.0595 32.6617 30.2218 36.8756C29.3842 41.0894 29.815 45.457 31.4597 49.4261C33.1044 53.3951 35.8891 56.7873 39.4618 59.1735C43.0344 61.5598 47.2345 62.8331 51.5308 62.8322ZM38.2809 21.2804C42.2032 18.6609 46.8141 17.2634 51.5307 17.2646C57.8517 17.2735 63.9113 19.7889 68.3804 24.2592C72.8495 28.7295 75.3633 34.7897 75.3705 41.1108C75.3704 45.8273 73.9717 50.4379 71.3513 54.3594C68.7308 58.281 65.0061 61.3374 60.6485 63.1421C56.2908 64.9467 51.4959 65.4186 46.87 64.498C42.2442 63.5774 37.9953 61.3056 34.6606 57.9701C31.3259 54.6345 29.0553 50.385 28.1359 45.7589C27.2165 41.1328 27.6896 36.338 29.4954 31.9808C31.3013 27.6237 34.3586 23.8999 38.2809 21.2804Z" stroke="url(#paint3_linear_1081_15843)" stroke-width="0.25" stroke-miterlimit="10"/>
<path d="M59.1632 14.1286C59.9725 14.3866 60.7776 14.686 61.56 15.0184C61.7042 15.0801 61.8595 15.1117 62.0163 15.1113C62.2851 15.1111 62.5456 15.0179 62.7535 14.8475C62.9614 14.6771 63.104 14.44 63.157 14.1765C63.21 13.9129 63.1702 13.6392 63.0443 13.4016C62.9184 13.1641 62.7142 12.9775 62.4664 12.8734C61.6179 12.5121 60.7425 12.1859 59.8651 11.9072C59.7169 11.8516 59.5588 11.8268 59.4007 11.8343C59.2425 11.8418 59.0875 11.8814 58.9452 11.9507C58.8028 12.02 58.676 12.1176 58.5726 12.2374C58.4692 12.3573 58.3912 12.497 58.3435 12.648C58.2958 12.799 58.2793 12.9581 58.2951 13.1156C58.3109 13.2732 58.3586 13.4259 58.4353 13.5644C58.5119 13.7029 58.616 13.8244 58.7412 13.9214C58.8663 14.0184 59.0099 14.0889 59.1632 14.1286Z" fill="url(#paint4_linear_1081_15843)"/>
<path d="M26.5993 53.4553L26.5993 53.4553L26.6005 53.4574C27.0561 54.2753 27.5432 55.0839 28.0724 55.8559L28.0723 55.8559L28.0752 55.8598C28.1588 55.9722 28.2188 56.1003 28.2517 56.2365C28.2846 56.3726 28.2897 56.514 28.2667 56.6522C28.2437 56.7903 28.193 56.9224 28.1178 57.0406C28.0425 57.1587 27.9442 57.2605 27.8287 57.3397C27.7133 57.419 27.583 57.4741 27.4457 57.5019C27.3084 57.5296 27.1669 57.5294 27.0297 57.5012C26.8925 57.473 26.7624 57.4174 26.6472 57.3377C26.532 57.2581 26.434 57.156 26.3591 57.0376L26.3592 57.0376L26.3566 57.0337C25.7853 56.2008 25.2562 55.3396 24.7714 54.4535L24.7715 54.4535L24.7709 54.4524C24.7036 54.3323 24.6608 54.1999 24.645 54.0631C24.6293 53.9263 24.6408 53.7877 24.6789 53.6554C24.7171 53.523 24.7811 53.3996 24.8673 53.2921C24.9534 53.1847 25.0601 53.0954 25.181 53.0295C25.3019 52.9635 25.4347 52.9222 25.5717 52.908C25.7087 52.8937 25.8471 52.9067 25.979 52.9463C26.1109 52.9859 26.2337 53.0513 26.3402 53.1386C26.4466 53.226 26.5347 53.3336 26.5993 53.4553Z" fill="url(#paint5_linear_1081_15843)" stroke="url(#paint6_linear_1081_15843)" stroke-width="0.25"/>
<path d="M48.4276 67.6105C42.152 67.0598 36.2566 64.368 31.7302 59.9864C31.6215 59.8739 31.4913 59.7844 31.3474 59.7232C31.2034 59.6621 31.0486 59.6305 30.8922 59.6304C30.7358 59.6302 30.581 59.6616 30.4369 59.7225C30.2929 59.7834 30.1625 59.8727 30.0537 59.985C29.9448 60.0973 29.8597 60.2304 29.8033 60.3763C29.7469 60.5222 29.7204 60.6779 29.7255 60.8342C29.7305 60.9906 29.7669 61.1443 29.8325 61.2863C29.8982 61.4282 29.9917 61.5556 30.1075 61.6607C35.0185 66.4131 41.4135 69.3336 48.2212 69.933H48.3223C48.6197 69.928 48.904 69.8097 49.117 69.6021C49.33 69.3946 49.4557 69.1135 49.4683 68.8164C49.481 68.5192 49.3796 68.2285 49.185 68.0035C48.9905 67.7786 48.7173 67.6365 48.4214 67.6063L48.4276 67.6105Z" fill="url(#paint7_linear_1081_15843)"/>
<path d="M48.6343 67.6649C42.358 67.1148 36.4617 64.4229 31.9348 60.0408C31.7106 59.8374 31.4161 59.7292 31.1136 59.7389C30.811 59.7486 30.5241 59.8756 30.3134 60.0929C30.1028 60.3103 29.9849 60.6011 29.9846 60.9038C29.9844 61.2065 30.1018 61.4974 30.3121 61.7151C35.2237 66.468 41.6195 69.3885 48.4279 69.9875C48.4616 69.9896 48.4953 69.9896 48.529 69.9875C48.8264 69.9825 49.1107 69.8642 49.3237 69.6566C49.5367 69.4491 49.6624 69.168 49.675 68.8708C49.6877 68.5737 49.5863 68.2829 49.3917 68.058C49.1972 67.8331 48.924 67.691 48.6281 67.6608L48.6343 67.6649Z" stroke="url(#paint8_linear_1081_15843)" stroke-width="0.25" stroke-miterlimit="10"/>
<path d="M67.5903 15.681C67.335 15.5176 67.0261 15.4601 66.7291 15.5205C66.4321 15.5809 66.1703 15.7545 65.9991 16.0046C65.8279 16.2547 65.7608 16.5616 65.8119 16.8604C65.8631 17.1591 66.0285 17.4262 66.2731 17.6051C71.6817 21.2951 75.5943 26.7957 77.3057 33.1154C77.3723 33.3629 77.5187 33.5815 77.722 33.7375C77.9254 33.8935 78.1745 33.9781 78.4308 33.9784C78.5339 33.9784 78.6366 33.9653 78.7363 33.9392C79.0355 33.8589 79.2905 33.663 79.4454 33.3948C79.6002 33.1265 79.6422 32.8077 79.5621 32.5085C77.7039 25.6521 73.4584 19.6846 67.5903 15.681Z" fill="url(#paint9_linear_1081_15843)"/>
<path d="M59.2012 13.9802L59.2012 13.98L59.1946 13.9783C59.0577 13.9428 58.9295 13.8799 58.8178 13.7933C58.706 13.7067 58.6131 13.5982 58.5446 13.4746C58.4761 13.3509 58.4336 13.2145 58.4195 13.0739C58.4054 12.9332 58.4201 12.7912 58.4627 12.6564C58.5053 12.5216 58.5749 12.3968 58.6672 12.2898C58.7596 12.1828 58.8728 12.0957 58.9999 12.0338C59.127 11.9719 59.2654 11.9365 59.4066 11.9299C59.5478 11.9232 59.6889 11.9453 59.8212 11.995L59.8212 11.9951L59.827 11.997C60.7009 12.2766 61.5726 12.5994 62.4174 12.9591L62.4175 12.9591C62.6381 13.0529 62.8196 13.2198 62.9314 13.4318C63.0432 13.6437 63.0784 13.8878 63.0312 14.1228C62.984 14.3577 62.8572 14.5692 62.6722 14.7216C62.4873 14.8738 62.2556 14.9577 62.0161 14.959C61.8763 14.9588 61.738 14.93 61.6098 14.8744L61.609 14.8741C60.825 14.5401 60.0141 14.2394 59.2012 13.9802Z" stroke="url(#paint10_linear_1081_15843)" stroke-width="0.25" stroke-miterlimit="10"/>
<path d="M67.5257 15.7555L67.5258 15.7556C73.3705 19.7422 77.5985 25.6857 79.4475 32.5146C79.4828 32.6467 79.4918 32.7844 79.4739 32.9199C79.456 33.0555 79.4115 33.1863 79.343 33.3048C79.2746 33.4232 79.1834 33.527 79.0748 33.6103C78.9662 33.6935 78.8423 33.7545 78.7101 33.7898L78.7099 33.7898C78.6207 33.8138 78.5288 33.8262 78.4364 33.8268C78.2078 33.8265 77.9856 33.7509 77.8041 33.6118C77.6226 33.4725 77.4919 33.2773 77.4324 33.0564L77.4323 33.0562C75.714 26.7073 71.7834 21.1814 66.3496 17.4753C66.2367 17.398 66.1401 17.2994 66.0654 17.1849C65.9906 17.0703 65.9391 16.9421 65.9139 16.8077C65.8886 16.6732 65.8901 16.5351 65.9183 16.4013C65.9464 16.2674 66.0006 16.1404 66.0778 16.0274C66.155 15.9145 66.2537 15.8179 66.3683 15.7431C66.4828 15.6684 66.611 15.6169 66.7455 15.5916C66.8799 15.5664 67.018 15.5679 67.1519 15.596C67.2858 15.6241 67.4128 15.6783 67.5257 15.7555Z" stroke="url(#paint11_linear_1081_15843)" stroke-width="0.25" stroke-miterlimit="10"/>
</mask>
<g mask="url(#mask0_1081_15843)">
<path d="M49.1341 39.3665L30.1043 0.18751L25.6775 -14.4478L48.6497 -11.4514L94.5941 -14.4478L101.086 22.5075V92.423L42.1576 94.9199L14.9924 72.9484L49.1341 39.3665Z" fill="#D9D9D9"/>
</g>
<path d="M25.5147 21.8865L29.2088 8.47097L44.4327 38.5828L12.194 70.2618L16.5595 55.4857M17.791 6.90381L1 70.4857L33.5745 39.0306L17.791 6.90381Z" stroke="#96C83C" stroke-width="2" stroke-miterlimit="10" stroke-linecap="round" stroke-linejoin="round"/>
<path d="M34.9399 10.0926C40.0904 10.0926 44.2667 9.66453 44.2667 9.13931C44.2667 8.61408 40.1019 8.18604 34.9399 8.18604C29.7779 8.18604 25.6155 8.61408 25.6155 9.13931C25.6155 9.66453 29.7895 10.0926 34.9399 10.0926Z" fill="url(#paint12_radial_1081_15843)"/>
<path d="M36.0018 9.13473C36.0018 14.1741 35.5252 18.2625 34.9352 18.2625C34.3452 18.2625 33.8708 14.1741 33.8708 9.13473C33.8708 4.09536 34.3475 0 34.9352 0C35.5229 0 36.0018 4.09536 36.0018 9.13473Z" fill="url(#paint13_radial_1081_15843)"/>
<path d="M78.0168 66.5032C83.1673 66.5032 87.3436 66.0752 87.3436 65.5499C87.3436 65.0247 83.1788 64.5967 78.0168 64.5967C72.8548 64.5967 68.6924 65.0247 68.6924 65.5499C68.6924 66.0752 72.8664 66.5032 78.0168 66.5032Z" fill="url(#paint14_radial_1081_15843)"/>
<path d="M79.079 65.5449C79.079 70.5843 78.6023 74.6727 78.0123 74.6727C77.4223 74.6727 76.948 70.5843 76.948 65.5449C76.948 60.5055 77.4246 56.4102 78.0123 56.4102C78.6 56.4102 79.079 60.5055 79.079 65.5449Z" fill="url(#paint15_radial_1081_15843)"/>
<defs>
<linearGradient id="paint0_linear_1081_15843" x1="31.5035" y1="16.2555" x2="84.2697" y2="61.95" gradientUnits="userSpaceOnUse">
<stop stop-color="#F0EFEF" stop-opacity="0"/>
<stop offset="0.614562" stop-color="#FAFBFC" stop-opacity="0.4"/>
<stop offset="0.848709" stop-color="white" stop-opacity="0.5"/>
<stop offset="1" stop-color="white" stop-opacity="0.9"/>
</linearGradient>
<linearGradient id="paint1_linear_1081_15843" x1="79.4421" y1="57.3775" x2="5.59393" y2="13.2598" gradientUnits="userSpaceOnUse">
<stop stop-color="white" stop-opacity="0.9"/>
<stop offset="0.28" stop-color="white" stop-opacity="0.5"/>
<stop offset="0.65" stop-color="#FAFBFC" stop-opacity="0.4"/>
<stop offset="1" stop-color="#F0EFEF" stop-opacity="0.3"/>
</linearGradient>
<linearGradient id="paint2_linear_1081_15843" x1="67.8806" y1="56.994" x2="34.538" y2="24.6159" gradientUnits="userSpaceOnUse">
<stop stop-color="white" stop-opacity="0.9"/>
<stop offset="0.04" stop-color="white" stop-opacity="0.85"/>
<stop offset="0.28" stop-color="white" stop-opacity="0.5"/>
<stop offset="0.65" stop-color="#FAFBFC" stop-opacity="0.4"/>
<stop offset="1" stop-color="#F0EFEF" stop-opacity="0.3"/>
</linearGradient>
<linearGradient id="paint3_linear_1081_15843" x1="39.539" y1="26.6282" x2="71.5003" y2="55.0937" gradientUnits="userSpaceOnUse">
<stop stop-color="#F0EFEF" stop-opacity="0"/>
<stop offset="0.614562" stop-color="#FAFBFC" stop-opacity="0.4"/>
<stop offset="0.848709" stop-color="white" stop-opacity="0.5"/>
<stop offset="1" stop-color="white" stop-opacity="0.9"/>
</linearGradient>
<linearGradient id="paint4_linear_1081_15843" x1="58.3395" y1="13.4803" x2="63.1724" y2="13.4803" gradientUnits="userSpaceOnUse">
<stop stop-color="white" stop-opacity="0.9"/>
<stop offset="0.04" stop-color="white" stop-opacity="0.85"/>
<stop offset="0.28" stop-color="white" stop-opacity="0.5"/>
<stop offset="0.65" stop-color="#FAFBFC" stop-opacity="0.4"/>
<stop offset="1" stop-color="#F0EFEF" stop-opacity="0.3"/>
</linearGradient>
<linearGradient id="paint5_linear_1081_15843" x1="24.5193" y1="55.1989" x2="28.382" y2="55.1989" gradientUnits="userSpaceOnUse">
<stop stop-color="white" stop-opacity="0.9"/>
<stop offset="0.04" stop-color="white" stop-opacity="0.85"/>
<stop offset="0.28" stop-color="white" stop-opacity="0.5"/>
<stop offset="0.65" stop-color="#FAFBFC" stop-opacity="0.4"/>
<stop offset="1" stop-color="#F0EFEF" stop-opacity="0.3"/>
</linearGradient>
<linearGradient id="paint6_linear_1081_15843" x1="26.7797" y1="55.3224" x2="28.2933" y2="56.3074" gradientUnits="userSpaceOnUse">
<stop stop-color="#F0EFEF" stop-opacity="0"/>
<stop offset="0.614562" stop-color="#FAFBFC" stop-opacity="0.4"/>
<stop offset="0.848709" stop-color="white" stop-opacity="0.5"/>
<stop offset="1" stop-color="white" stop-opacity="0.9"/>
</linearGradient>
<linearGradient id="paint7_linear_1081_15843" x1="29.7483" y1="64.7966" x2="49.4908" y2="64.7966" gradientUnits="userSpaceOnUse">
<stop stop-color="white" stop-opacity="0.9"/>
<stop offset="0.04" stop-color="white" stop-opacity="0.85"/>
<stop offset="0.28" stop-color="white" stop-opacity="0.5"/>
<stop offset="0.65" stop-color="#FAFBFC" stop-opacity="0.4"/>
<stop offset="1" stop-color="#F0EFEF" stop-opacity="0.3"/>
</linearGradient>
<linearGradient id="paint8_linear_1081_15843" x1="34.9075" y1="61.7671" x2="40.9019" y2="72.0228" gradientUnits="userSpaceOnUse">
<stop stop-color="#F0EFEF" stop-opacity="0"/>
<stop offset="0.614562" stop-color="#FAFBFC" stop-opacity="0.4"/>
<stop offset="0.848709" stop-color="white" stop-opacity="0.5"/>
<stop offset="1" stop-color="white" stop-opacity="0.9"/>
</linearGradient>
<linearGradient id="paint9_linear_1081_15843" x1="65.7653" y1="24.7275" x2="79.5972" y2="24.7275" gradientUnits="userSpaceOnUse">
<stop stop-color="white" stop-opacity="0.9"/>
<stop offset="0.04" stop-color="white" stop-opacity="0.85"/>
<stop offset="0.28" stop-color="white" stop-opacity="0.5"/>
<stop offset="0.65" stop-color="#FAFBFC" stop-opacity="0.4"/>
<stop offset="1" stop-color="#F0EFEF" stop-opacity="0.3"/>
</linearGradient>
<linearGradient id="paint10_linear_1081_15843" x1="61.135" y1="13.5179" x2="62.2295" y2="14.8457" gradientUnits="userSpaceOnUse">
<stop stop-color="#F0EFEF" stop-opacity="0"/>
<stop offset="0.614562" stop-color="#FAFBFC" stop-opacity="0.4"/>
<stop offset="0.848709" stop-color="white" stop-opacity="0.5"/>
<stop offset="1" stop-color="white" stop-opacity="0.9"/>
</linearGradient>
<linearGradient id="paint11_linear_1081_15843" x1="69.2302" y1="19.1108" x2="80.6889" y2="26.7425" gradientUnits="userSpaceOnUse">
<stop stop-color="#F0EFEF" stop-opacity="0"/>
<stop offset="0.614562" stop-color="#FAFBFC" stop-opacity="0.4"/>
<stop offset="0.848709" stop-color="white" stop-opacity="0.5"/>
<stop offset="1" stop-color="white" stop-opacity="0.9"/>
</linearGradient>
<radialGradient id="paint12_radial_1081_15843" cx="0" cy="0" r="1" gradientUnits="userSpaceOnUse" gradientTransform="translate(34.0285 9.44981) rotate(90) scale(0.946236 9.32436)">
<stop stop-color="white"/>
<stop offset="0.07" stop-color="white" stop-opacity="0.93"/>
<stop offset="1" stop-color="white" stop-opacity="0"/>
</radialGradient>
<radialGradient id="paint13_radial_1081_15843" cx="0" cy="0" r="1" gradientUnits="userSpaceOnUse" gradientTransform="translate(34.9535 9.56263) scale(1.06701 9.14866)">
<stop stop-color="white"/>
<stop offset="0.07" stop-color="white" stop-opacity="0.93"/>
<stop offset="1" stop-color="white" stop-opacity="0"/>
</radialGradient>
<radialGradient id="paint14_radial_1081_15843" cx="0" cy="0" r="1" gradientUnits="userSpaceOnUse" gradientTransform="translate(77.1054 65.8605) rotate(90) scale(0.946236 9.32436)">
<stop stop-color="white"/>
<stop offset="0.07" stop-color="white" stop-opacity="0.93"/>
<stop offset="1" stop-color="white" stop-opacity="0"/>
</radialGradient>
<radialGradient id="paint15_radial_1081_15843" cx="0" cy="0" r="1" gradientUnits="userSpaceOnUse" gradientTransform="translate(78.0307 65.9728) scale(1.06701 9.14866)">
<stop stop-color="white"/>
<stop offset="0.07" stop-color="white" stop-opacity="0.93"/>
<stop offset="1" stop-color="white" stop-opacity="0"/>
</radialGradient>
</defs>
</svg>
