<svg width="75" height="80" viewBox="0 0 75 80" fill="none" xmlns="http://www.w3.org/2000/svg">
<path d="M50.3946 79.1001C42.5308 79.1001 35.9354 72.539 35.9354 64.1899C35.9354 56.0539 42.5232 49.485 50.3946 49.485C58.2661 49.485 64.8539 56.0539 64.8539 64.1899C64.8539 72.539 58.2585 79.1001 50.3946 79.1001ZM50.3946 50.1489C42.7012 50.1489 36.529 56.5219 36.529 64.1899C36.529 72.054 42.6923 78.4362 50.3946 78.4362C58.097 78.4362 64.2602 72.054 64.2602 64.1899C64.2602 56.5219 58.088 50.1489 50.3946 50.1489Z" fill="url(#paint0_linear_1110_6205)" stroke="#9FCB3A" stroke-width="1.8"/>
<path d="M49.1948 67.0042H48.562L48.3065 66.6892L47.9182 67.0042V67.5042H48.3238L52.1821 72.2605C52.2659 72.3572 52.3304 72.4699 52.372 72.5922C52.4135 72.7145 52.4312 72.844 52.4241 72.9734C52.4169 73.1027 52.3852 73.2293 52.3305 73.346C52.2758 73.4627 52.1994 73.5672 52.1055 73.6535C52.0116 73.7398 51.9022 73.8062 51.7833 73.8489C51.6645 73.8917 51.5387 73.9099 51.413 73.9026C51.2874 73.8952 51.1644 73.8625 51.051 73.8062C50.9376 73.75 50.8361 73.6713 50.7523 73.5746L49.1948 67.0042ZM49.1948 67.0042C50.4953 67.007 51.75 66.5101 52.7134 65.6108M49.1948 67.0042L52.7134 65.6108M52.7134 65.6108C53.6767 64.7116 54.2794 63.4746 54.4034 62.142L52.7134 65.6108ZM56.2673 60.7891H56.5563C56.5723 60.8016 56.5876 60.8154 56.6022 60.8303C56.6872 60.9179 56.7375 61.0397 56.7375 61.1696C56.7375 61.2994 56.6872 61.4212 56.6022 61.5088C56.5176 61.5958 56.406 61.642 56.2928 61.642H54.4034H53.9478L53.9056 62.0957C53.7927 63.3083 53.2445 64.4311 52.3722 65.2453C51.5003 66.0592 50.3675 66.5067 49.1959 66.5042H49.1948H47.9182H46.8688L47.5299 67.3191L51.7938 72.5755L51.799 72.5819L51.8044 72.5882C51.8454 72.6354 51.8776 72.6913 51.8985 72.7529C51.9194 72.8145 51.9284 72.8801 51.9248 72.9459C51.9212 73.0116 51.9051 73.0756 51.8777 73.134C51.8504 73.1923 51.8126 73.2436 51.7672 73.2854C51.7218 73.3271 51.6696 73.3585 51.6141 73.3784C51.5586 73.3984 51.5002 73.4068 51.4421 73.4034C51.3841 73.4 51.3267 73.3849 51.2733 73.3584C51.221 73.3324 51.1732 73.296 51.1329 73.2503L45.4903 66.4609L45.4261 66.3626C45.4208 66.3546 45.416 66.3464 45.4115 66.3378L45.4182 66.3036V66.2551V66.1394C45.4202 66.1204 45.427 66.1035 45.4367 66.0903L45.5683 65.9103L45.5336 65.7454L45.5396 65.7351C45.5425 65.7304 45.5458 65.7265 45.5491 65.7233L45.6219 65.6734L45.6648 65.6513L49.1821 65.6513L49.1847 65.6513C50.1008 65.6464 50.9825 65.303 51.6697 64.6872C52.3565 64.0717 52.8033 63.2253 52.9326 62.3034L53.0124 61.734H52.4374H45.8246C45.7114 61.734 45.5998 61.6878 45.5152 61.6008L45.1575 61.9483L45.5152 61.6008C45.4301 61.5132 45.3799 61.3914 45.3799 61.2615C45.3799 61.1316 45.4301 61.0099 45.5152 60.9223L45.1566 60.5739L45.5152 60.9223C45.5998 60.8353 45.7114 60.7891 45.8246 60.7891H52.2076H52.9818L52.6634 60.0834C52.3533 59.3963 51.8524 58.8161 51.2211 58.417C50.5922 58.0195 49.8624 57.8198 49.1224 57.8442H45.86C45.7614 57.8268 45.6686 57.7751 45.5981 57.6936C45.5216 57.6052 45.4775 57.4885 45.4775 57.3652C45.4775 57.242 45.5216 57.1253 45.5981 57.0369C45.6686 56.9554 45.7614 56.9037 45.86 56.8862H56.2318C56.3304 56.9037 56.4233 56.9554 56.4938 57.0369C56.5702 57.1253 56.6143 57.242 56.6143 57.3652C56.6143 57.4885 56.5702 57.6052 56.4938 57.6936C56.4233 57.7751 56.3304 57.8268 56.2318 57.8442H53.2289H52.2029L52.8351 58.6523C53.238 59.1673 53.5293 59.7664 53.6882 60.4092L53.7822 60.7891H54.1736H56.2673Z" fill="url(#paint1_linear_1110_6205)" stroke="#9FCB3A"/>
<path d="M67.5489 49.2316V49.3343L64.1269 45.9124C63.4558 45.2449 62.6344 44.7482 61.7316 44.4637C61.5371 44.3369 61.3204 44.2479 61.0928 44.2014H47.0971C46.8232 42.5356 46.1326 40.9662 45.0896 39.6388L44.6334 39.1027H60.7849C62.4894 39.1036 64.1307 39.7479 65.3806 40.9068C66.6305 42.0658 67.3967 43.6539 67.5261 45.3534V45.8553L67.5489 49.2316Z" fill="url(#paint2_linear_1110_6205)"/>
<path d="M67.5489 49.2316V49.3343L64.1269 45.9124C63.4558 45.2449 62.6344 44.7482 61.7316 44.4637C61.5371 44.3369 61.3204 44.2479 61.0928 44.2014H47.0971C46.8232 42.5356 46.1326 40.9662 45.0896 39.6388L44.6334 39.1027H60.7849C62.4894 39.1036 64.1307 39.7479 65.3806 40.9068C66.6305 42.0658 67.3967 43.6539 67.5261 45.3534V45.8553L67.5489 49.2316Z" fill="url(#paint3_linear_1110_6205)"/>
<path d="M37.1737 17.1453C37.1714 14.1418 36.279 11.2064 34.6092 8.70983C32.9393 6.21329 30.567 4.26769 27.7919 3.11882C25.0168 1.96995 21.9635 1.66937 19.0176 2.25505C16.0718 2.84073 13.3656 4.28639 11.241 6.40939C9.11642 8.53239 7.66873 11.2375 7.08084 14.1829C6.49295 17.1283 6.79125 20.1819 7.93803 22.9578C9.08482 25.7338 11.0286 28.1076 13.5239 29.7793C16.0192 31.451 18.954 32.3456 21.9575 32.3501C23.9552 32.3516 25.9336 31.9594 27.7796 31.196C29.6257 30.4325 31.3032 29.3128 32.7163 27.9008C34.1294 26.4887 35.2504 24.812 36.0152 22.9666C36.78 21.1211 37.1737 19.143 37.1737 17.1453ZM11.8514 17.1453C11.8537 15.1425 12.4496 13.1853 13.564 11.5211C14.6783 9.85693 16.261 8.56045 18.112 7.79557C19.9631 7.03069 21.9993 6.83173 23.9634 7.22384C25.9274 7.61595 27.7311 8.58154 29.1466 9.99854C30.562 11.4156 31.5255 13.2204 31.9154 15.1849C32.3053 17.1494 32.1041 19.1854 31.3371 21.0355C30.5701 22.8857 29.2719 24.4669 27.6064 25.5794C25.941 26.6919 23.9831 27.2856 21.9803 27.2856C20.6477 27.2871 19.3279 27.026 18.0963 26.517C16.8647 26.0081 15.7455 25.2614 14.8027 24.3196C13.8598 23.3779 13.1119 22.2595 12.6016 21.0285C12.0913 19.7975 11.8286 18.4779 11.8286 17.1453H11.8514Z" fill="url(#paint4_linear_1110_6205)"/>
<path d="M37.1737 17.1453C37.1714 14.1418 36.279 11.2064 34.6092 8.70983C32.9393 6.21329 30.567 4.26769 27.7919 3.11882C25.0168 1.96995 21.9635 1.66937 19.0176 2.25505C16.0718 2.84073 13.3656 4.28639 11.241 6.40939C9.11642 8.53239 7.66873 11.2375 7.08084 14.1829C6.49295 17.1283 6.79125 20.1819 7.93803 22.9578C9.08482 25.7338 11.0286 28.1076 13.5239 29.7793C16.0192 31.451 18.954 32.3456 21.9575 32.3501C23.9552 32.3516 25.9336 31.9594 27.7796 31.196C29.6257 30.4325 31.3032 29.3128 32.7163 27.9008C34.1294 26.4887 35.2504 24.812 36.0152 22.9666C36.78 21.1211 37.1737 19.143 37.1737 17.1453ZM11.8514 17.1453C11.8537 15.1425 12.4496 13.1853 13.564 11.5211C14.6783 9.85693 16.261 8.56045 18.112 7.79557C19.9631 7.03069 21.9993 6.83173 23.9634 7.22384C25.9274 7.61595 27.7311 8.58154 29.1466 9.99854C30.562 11.4156 31.5255 13.2204 31.9154 15.1849C32.3053 17.1494 32.1041 19.1854 31.3371 21.0355C30.5701 22.8857 29.2719 24.4669 27.6064 25.5794C25.941 26.6919 23.9831 27.2856 21.9803 27.2856C20.6477 27.2871 19.3279 27.026 18.0963 26.517C16.8647 26.0081 15.7455 25.2614 14.8027 24.3196C13.8598 23.3779 13.1119 22.2595 12.6016 21.0285C12.0913 19.7975 11.8286 18.4779 11.8286 17.1453H11.8514Z" fill="url(#paint5_linear_1110_6205)"/>
<path d="M64.1725 20.5101C64.1702 18.1712 63.4746 15.8854 62.1735 13.9417C60.8724 11.998 59.0243 10.4837 56.8627 9.59018C54.7011 8.69666 52.3232 8.46405 50.0294 8.92174C47.7357 9.37943 45.6291 10.5069 43.976 12.1616C42.3229 13.8163 41.1975 15.9239 40.742 18.2181C40.2865 20.5123 40.5214 22.89 41.417 25.0507C42.3126 27.2114 43.8287 29.0581 45.7737 30.3573C47.7186 31.6566 50.0051 32.35 52.344 32.35C53.8988 32.3515 55.4385 32.0462 56.875 31.4516C58.3115 30.857 59.6166 29.9847 60.7154 28.8848C61.8142 27.785 62.6852 26.4791 63.2784 25.042C63.8717 23.6049 64.1755 22.0648 64.1725 20.5101ZM45.5914 20.5101C45.5937 19.1751 45.9916 17.8707 46.735 16.7617C47.4783 15.6527 48.5337 14.789 49.7678 14.2797C51.0019 13.7703 52.3592 13.6382 53.6684 13.9001C54.9775 14.1619 56.1796 14.8059 57.1229 15.7508C58.0661 16.6956 58.7081 17.8988 58.9677 19.2084C59.2273 20.5179 59.0929 21.8751 58.5815 23.1083C58.0701 24.3415 57.2046 25.3954 56.0944 26.1369C54.9842 26.8784 53.6791 27.2741 52.344 27.2741C50.5521 27.2711 48.8346 26.5572 47.5685 25.289C46.3025 24.0208 45.5914 22.3021 45.5914 20.5101Z" fill="url(#paint6_linear_1110_6205)"/>
<path d="M64.1725 20.5101C64.1702 18.1712 63.4746 15.8854 62.1735 13.9417C60.8724 11.998 59.0243 10.4837 56.8627 9.59018C54.7011 8.69666 52.3232 8.46405 50.0294 8.92174C47.7357 9.37943 45.6291 10.5069 43.976 12.1616C42.3229 13.8163 41.1975 15.9239 40.742 18.2181C40.2865 20.5123 40.5214 22.89 41.417 25.0507C42.3126 27.2114 43.8287 29.0581 45.7737 30.3573C47.7186 31.6566 50.0051 32.35 52.344 32.35C53.8988 32.3515 55.4385 32.0462 56.875 31.4516C58.3115 30.857 59.6166 29.9847 60.7154 28.8848C61.8142 27.785 62.6852 26.4791 63.2784 25.042C63.8717 23.6049 64.1755 22.0648 64.1725 20.5101ZM45.5914 20.5101C45.5937 19.1751 45.9916 17.8707 46.735 16.7617C47.4783 15.6527 48.5337 14.789 49.7678 14.2797C51.0019 13.7703 52.3592 13.6382 53.6684 13.9001C54.9775 14.1619 56.1796 14.8059 57.1229 15.7508C58.0661 16.6956 58.7081 17.8988 58.9677 19.2084C59.2273 20.5179 59.0929 21.8751 58.5815 23.1083C58.0701 24.3415 57.2046 25.3954 56.0944 26.1369C54.9842 26.8784 53.6791 27.2741 52.344 27.2741C50.5521 27.2711 48.8346 26.5572 47.5685 25.289C46.3025 24.0208 45.5914 22.3021 45.5914 20.5101Z" fill="url(#paint7_linear_1110_6205)"/>
<path d="M43.698 44.1672C43.3244 42.72 42.4811 41.4376 41.3004 40.5211C40.1197 39.6046 38.6682 39.1058 37.1736 39.1027H6.25072C4.55114 39.2321 2.96304 39.9983 1.8041 41.2482C0.645164 42.4981 0.000833914 44.1394 0 45.8439V51.684C0.558915 62.8851 12.7638 66.136 21.9574 66.136C25.0346 66.1345 29.7681 65.1969 31.0825 64.9953C32.3969 64.7937 28.3812 60.3637 27.4439 60.6153C26.5066 60.8668 24.5391 60.9926 23.0752 61.0373H20.8852C17.0663 61.0095 13.3005 60.1411 9.85515 58.4937C6.59292 56.7371 5.06445 54.3303 5.06445 50.9198V45.5131C5.13449 45.1906 5.29512 44.8948 5.52749 44.6604C5.75985 44.426 6.05429 44.2628 6.37619 44.19L43.698 44.1672Z" fill="url(#paint8_linear_1110_6205)"/>
<path d="M68.6102 49.084C68.6102 52.8973 68.2473 55.9952 67.8002 55.9952C67.3532 55.9952 66.9797 52.8973 66.9797 49.084C66.9797 45.2708 67.3584 42.1938 67.8002 42.1938C68.2421 42.1938 68.6102 45.2655 68.6102 49.084Z" fill="url(#paint9_radial_1110_6205)"/>
<path d="M67.8012 49.8834C63.988 49.8834 60.89 49.5205 60.89 49.0734C60.89 48.6264 63.988 48.2529 67.8012 48.2529C71.6145 48.2529 74.6914 48.6316 74.6914 49.0734C74.6914 49.5153 71.6198 49.8834 67.8012 49.8834Z" fill="url(#paint10_radial_1110_6205)"/>
<path d="M10.8768 6.89018C10.8768 10.7034 10.5139 13.8014 10.0668 13.8014C9.61978 13.8014 9.24634 10.7034 9.24634 6.89018C9.24634 3.07691 9.62504 0 10.0668 0C10.5087 0 10.8768 3.07165 10.8768 6.89018Z" fill="url(#paint11_radial_1110_6205)"/>
<path d="M10.0676 7.69007C6.25432 7.69007 3.15636 7.32715 3.15636 6.88008C3.15636 6.43301 6.25432 6.05957 10.0676 6.05957C13.8809 6.05957 16.9578 6.43827 16.9578 6.88008C16.9578 7.32189 13.8861 7.69007 10.0676 7.69007Z" fill="url(#paint12_radial_1110_6205)"/>
<defs>
<linearGradient id="paint0_linear_1110_6205" x1="62.0836" y1="78.686" x2="54.1876" y2="46.4674" gradientUnits="userSpaceOnUse">
<stop stop-color="white" stop-opacity="0.9"/>
<stop offset="0.04" stop-color="white" stop-opacity="0.85"/>
<stop offset="0.28" stop-color="white" stop-opacity="0.5"/>
<stop offset="0.65" stop-color="#FAFBFC" stop-opacity="0.4"/>
<stop offset="1" stop-color="#F0EFEF" stop-opacity="0.3"/>
</linearGradient>
<linearGradient id="paint1_linear_1110_6205" x1="55.4566" y1="70.5423" x2="49.0232" y2="56.1913" gradientUnits="userSpaceOnUse">
<stop stop-color="white" stop-opacity="0.9"/>
<stop offset="0.04" stop-color="white" stop-opacity="0.85"/>
<stop offset="0.28" stop-color="white" stop-opacity="0.5"/>
<stop offset="0.65" stop-color="#FAFBFC" stop-opacity="0.4"/>
<stop offset="1" stop-color="#F0EFEF" stop-opacity="0.3"/>
</linearGradient>
<linearGradient id="paint2_linear_1110_6205" x1="57.8144" y1="53.8208" x2="40.4166" y2="-4.089" gradientUnits="userSpaceOnUse">
<stop stop-color="white" stop-opacity="0.9"/>
<stop offset="0.04" stop-color="white" stop-opacity="0.85"/>
<stop offset="0.28" stop-color="white" stop-opacity="0.5"/>
<stop offset="0.65" stop-color="#FAFBFC" stop-opacity="0.4"/>
<stop offset="1" stop-color="#F0EFEF" stop-opacity="0.3"/>
</linearGradient>
<linearGradient id="paint3_linear_1110_6205" x1="57.8144" y1="53.8208" x2="40.4166" y2="-4.089" gradientUnits="userSpaceOnUse">
<stop stop-color="white" stop-opacity="0.9"/>
<stop offset="0.04" stop-color="white" stop-opacity="0.85"/>
<stop offset="0.28" stop-color="white" stop-opacity="0.5"/>
<stop offset="0.65" stop-color="#FAFBFC" stop-opacity="0.4"/>
<stop offset="1" stop-color="#F0EFEF" stop-opacity="0.3"/>
</linearGradient>
<linearGradient id="paint4_linear_1110_6205" x1="57.8144" y1="53.8208" x2="40.4166" y2="-4.089" gradientUnits="userSpaceOnUse">
<stop stop-color="white" stop-opacity="0.9"/>
<stop offset="0.04" stop-color="white" stop-opacity="0.85"/>
<stop offset="0.28" stop-color="white" stop-opacity="0.5"/>
<stop offset="0.65" stop-color="#FAFBFC" stop-opacity="0.4"/>
<stop offset="1" stop-color="#F0EFEF" stop-opacity="0.3"/>
</linearGradient>
<linearGradient id="paint5_linear_1110_6205" x1="57.8144" y1="53.8208" x2="40.4166" y2="-4.089" gradientUnits="userSpaceOnUse">
<stop stop-color="white" stop-opacity="0.9"/>
<stop offset="0.04" stop-color="white" stop-opacity="0.85"/>
<stop offset="0.28" stop-color="white" stop-opacity="0.5"/>
<stop offset="0.65" stop-color="#FAFBFC" stop-opacity="0.4"/>
<stop offset="1" stop-color="#F0EFEF" stop-opacity="0.3"/>
</linearGradient>
<linearGradient id="paint6_linear_1110_6205" x1="57.8144" y1="53.8208" x2="40.4166" y2="-4.089" gradientUnits="userSpaceOnUse">
<stop stop-color="white" stop-opacity="0.9"/>
<stop offset="0.04" stop-color="white" stop-opacity="0.85"/>
<stop offset="0.28" stop-color="white" stop-opacity="0.5"/>
<stop offset="0.65" stop-color="#FAFBFC" stop-opacity="0.4"/>
<stop offset="1" stop-color="#F0EFEF" stop-opacity="0.3"/>
</linearGradient>
<linearGradient id="paint7_linear_1110_6205" x1="57.8144" y1="53.8208" x2="40.4166" y2="-4.089" gradientUnits="userSpaceOnUse">
<stop stop-color="white" stop-opacity="0.9"/>
<stop offset="0.04" stop-color="white" stop-opacity="0.85"/>
<stop offset="0.28" stop-color="white" stop-opacity="0.5"/>
<stop offset="0.65" stop-color="#FAFBFC" stop-opacity="0.4"/>
<stop offset="1" stop-color="#F0EFEF" stop-opacity="0.3"/>
</linearGradient>
<linearGradient id="paint8_linear_1110_6205" x1="57.8144" y1="53.8208" x2="40.4166" y2="-4.089" gradientUnits="userSpaceOnUse">
<stop stop-color="white" stop-opacity="0.9"/>
<stop offset="0.04" stop-color="white" stop-opacity="0.85"/>
<stop offset="0.28" stop-color="white" stop-opacity="0.5"/>
<stop offset="0.65" stop-color="#FAFBFC" stop-opacity="0.4"/>
<stop offset="1" stop-color="#F0EFEF" stop-opacity="0.3"/>
</linearGradient>
<radialGradient id="paint9_radial_1110_6205" cx="0" cy="0" r="1" gradientUnits="userSpaceOnUse" gradientTransform="translate(67.6706 49.5881) scale(0.806624 6.91606)">
<stop stop-color="white"/>
<stop offset="0.07" stop-color="white" stop-opacity="0.93"/>
<stop offset="1" stop-color="white" stop-opacity="0"/>
</radialGradient>
<radialGradient id="paint10_radial_1110_6205" cx="0" cy="0" r="1" gradientUnits="userSpaceOnUse" gradientTransform="translate(67.2971 48.9438) rotate(90) scale(0.806624 6.91606)">
<stop stop-color="white"/>
<stop offset="0.07" stop-color="white" stop-opacity="0.93"/>
<stop offset="1" stop-color="white" stop-opacity="0"/>
</radialGradient>
<radialGradient id="paint11_radial_1110_6205" cx="0" cy="0" r="1" gradientUnits="userSpaceOnUse" gradientTransform="translate(9.93725 7.39427) scale(0.806624 6.91606)">
<stop stop-color="white"/>
<stop offset="0.07" stop-color="white" stop-opacity="0.93"/>
<stop offset="1" stop-color="white" stop-opacity="0"/>
</radialGradient>
<radialGradient id="paint12_radial_1110_6205" cx="0" cy="0" r="1" gradientUnits="userSpaceOnUse" gradientTransform="translate(9.56349 6.75048) rotate(90) scale(0.806624 6.91606)">
<stop stop-color="white"/>
<stop offset="0.07" stop-color="white" stop-opacity="0.93"/>
<stop offset="1" stop-color="white" stop-opacity="0"/>
</radialGradient>
</defs>
</svg>
