<svg width="88" height="80" viewBox="0 0 88 80" fill="none" xmlns="http://www.w3.org/2000/svg">
<path d="M43.9294 46.4484C42.9219 46.4484 42.2166 47.2545 42.2166 48.1613V68.4131C39.7985 69.1184 38.0856 71.3351 37.9849 73.9547C37.9849 75.5668 38.4886 77.0781 39.597 78.1864C40.7053 79.2948 42.2166 80 43.7279 80H43.8287C47.0529 80 49.6725 77.3804 49.7733 74.1562C49.7733 72.5441 49.2695 71.0328 48.1612 69.9245C47.4559 69.2192 46.5491 68.6147 45.5415 68.3124V48.0605C45.5415 47.0529 44.7355 46.3477 43.8287 46.3477L43.9294 46.4484ZM45.7431 72.3426C46.1461 72.8464 46.4483 73.4509 46.4483 74.1562C46.4483 75.466 45.34 76.5744 43.9294 76.5744C43.2242 76.5744 42.6196 76.2721 42.2166 75.7683C41.8136 75.2645 41.5113 74.66 41.5113 73.9547C41.5113 72.6449 42.6196 71.5366 44.0302 71.5366C44.7355 71.5366 45.34 71.8388 45.7431 72.3426Z" fill="#96C83D"/>
<path d="M32.8463 48.1611V57.8336C32.8463 59.5465 31.5364 60.8563 29.8236 60.8563H24.7858C24.0805 58.4382 21.7631 56.6246 19.0427 56.6246C16.3223 56.6246 13.0981 59.2442 13.0981 62.5691C13.0981 65.8941 15.7178 68.5137 19.0427 68.5137C22.3677 68.5137 23.9798 66.7001 24.7858 64.282H29.8236C33.35 64.282 36.2719 61.3601 36.2719 57.8336V48.1611C36.2719 47.1535 35.4659 46.4482 34.5591 46.4482C33.6523 46.4482 32.8463 47.2543 32.8463 48.1611ZM19.0427 65.088C17.6322 65.088 16.5238 63.9797 16.5238 62.5691C16.5238 61.1586 17.6322 60.0503 19.0427 60.0503C20.4533 60.0503 21.5616 61.1586 21.5616 62.5691C21.5616 63.9797 20.4533 65.088 19.0427 65.088Z" fill="#96C83D"/>
<path d="M58.0353 64.282H63.0731C63.7784 66.7001 66.0957 68.5137 68.8161 68.5137C71.5365 68.5137 74.7607 65.8941 74.7607 62.5691C74.7607 59.2442 72.1411 56.6246 68.8161 56.6246C65.4912 56.6246 63.8791 58.4382 63.0731 60.8563H58.0353C56.3224 60.8563 55.0126 59.5465 55.0126 57.8336V48.1611C55.0126 47.1535 54.2066 46.4482 53.2998 46.4482C52.393 46.4482 51.5869 47.2543 51.5869 48.1611V57.8336C51.5869 61.3601 54.5088 64.282 58.0353 64.282ZM68.8161 60.0503C70.2267 60.0503 71.335 61.1586 71.335 62.5691C71.335 63.9797 70.2267 65.088 68.8161 65.088C67.4056 65.088 66.2972 63.9797 66.2972 62.5691C66.2972 61.1586 67.4056 60.0503 68.8161 60.0503Z" fill="#96C83D"/>
<path d="M9.763 46.453C10.0266 46.661 10.2458 46.9198 10.4076 47.214C10.5694 47.5082 10.6705 47.8319 10.705 48.1659C10.7395 48.4999 10.7067 48.8374 10.6085 49.1585C10.5102 49.4795 10.3486 49.7777 10.1331 50.0352C9.91764 50.2927 9.65269 50.5044 9.35396 50.6577C9.05523 50.811 8.72878 50.9028 8.39393 50.9277C8.05908 50.9527 7.72263 50.9102 7.4045 50.8028C7.08636 50.6954 6.793 50.5253 6.54176 50.3025C5.409 49.3594 4.39977 48.2771 3.53802 47.0813C1.26973 43.9325 0.0344594 40.1575 0.00263319 36.277C-0.0675723 32.3376 1.26807 28.502 3.77 25.4582C4.63757 24.4181 5.63299 23.4917 6.73267 22.701C8.13293 21.7042 9.6558 20.892 11.2637 20.2844C12.4858 19.814 13.74 19.4312 15.0165 19.139C16.5196 13.1726 19.7215 8.57879 23.8369 5.3914C27.6773 2.44795 32.2729 0.652456 37.0915 0.21279C41.8998 -0.257705 46.7454 0.591104 51.1074 2.66798C56.1762 5.0956 60.2873 9.14887 62.7865 14.1827C63.8677 14.0112 64.9614 13.9303 66.0561 13.9411C70.6475 13.9749 75.0649 15.6133 78.5447 19.3662C79.3087 20.1898 79.9985 21.0793 80.606 22.0243C82.7809 25.3809 83.9094 29.8659 83.8635 34.2544C83.8152 38.5606 82.6552 42.8475 80.2798 46.0083C80.0821 46.2714 79.8345 46.493 79.5512 46.6604C79.2678 46.8277 78.9543 46.9377 78.6285 46.9839C78.3027 47.0302 77.9709 47.0117 77.6522 46.9298C77.3335 46.8478 77.034 46.7038 76.771 46.5061C76.5079 46.3084 76.2863 46.0608 76.1189 45.7775C75.9515 45.4942 75.8416 45.1807 75.7954 44.8548C75.7491 44.529 75.7676 44.1973 75.8495 43.8786C75.9315 43.5599 76.0755 43.2604 76.2732 42.9973C77.9792 40.7258 78.8178 37.5094 78.8516 34.2133C78.8927 30.7528 78.0469 27.2779 76.4012 24.7526C75.9495 24.0509 75.4359 23.391 74.8668 22.7807C73.7445 21.5576 72.3775 20.5841 70.8547 19.9234C69.3318 19.2627 67.687 18.9296 66.0271 18.9457C63.5745 18.9657 61.1536 19.5026 58.9225 20.5213C58.4102 20.775 57.8979 21.0481 57.388 21.3477C55.7769 22.3169 54.2419 23.4075 52.7966 24.61L49.4908 20.8233C50.6353 19.7626 51.8681 18.8014 53.176 17.9501C54.2175 17.2724 55.3052 16.6684 56.431 16.1425C56.8829 15.9178 57.3396 15.7051 57.7964 15.507C55.7734 11.8835 52.6789 8.97474 48.9374 7.17963C45.3907 5.49938 41.4539 4.81526 37.5483 5.20049C33.6725 5.55381 29.976 6.99739 26.8865 9.36416C23.3173 12.1359 20.6036 16.2658 19.5644 21.7464L19.2358 23.4597L17.5297 23.7594C16.0008 24.0127 14.5008 24.4175 13.0519 24.9677C11.8508 25.4246 10.7137 26.0346 9.66875 26.7825C8.90719 27.3317 8.21717 27.9738 7.6147 28.6939C5.87333 30.8293 4.949 33.5149 5.00727 36.2697C5.00752 38.2125 5.43445 40.1315 6.25789 41.8911C7.08133 43.6507 8.28119 45.208 9.77267 46.453H9.763Z" fill="url(#paint0_linear_1119_16583)"/>
<path d="M9.61102 46.2484C8.22477 45.0305 7.10439 43.5383 6.32158 41.8646C5.49095 40.0887 5.06068 38.152 5.06119 36.1915C5.00071 33.4071 5.93521 30.6924 7.6968 28.5353L7.69767 28.5342C8.30627 27.8055 9.00406 27.1561 9.77465 26.6014L9.77492 26.6012C10.8286 25.847 11.9752 25.232 13.1864 24.7712L13.1864 24.7712C14.642 24.2182 16.1491 23.8113 17.6853 23.5566C17.6854 23.5566 17.6856 23.5565 17.6858 23.5565L19.3058 23.272L19.6181 21.6435L9.61102 46.2484ZM9.61102 46.2484H9.57934L9.86206 46.4715C10.1125 46.6692 10.3208 46.9151 10.4745 47.1946C10.6283 47.4742 10.7244 47.7818 10.7572 48.0991C10.79 48.4165 10.7588 48.7372 10.6655 49.0423C10.5721 49.3474 10.4185 49.6307 10.2138 49.8754C10.009 50.1201 9.75725 50.3212 9.47339 50.4669C9.18953 50.6126 8.87933 50.6998 8.56115 50.7235C8.24298 50.7472 7.92328 50.7068 7.62098 50.6048C7.31868 50.5027 7.03992 50.3411 6.8012 50.1294L6.80124 50.1293L6.79819 50.1268C5.67385 49.1919 4.67187 48.119 3.81597 46.9335C1.56378 43.8052 0.336852 40.0557 0.304139 36.2012L0.304119 36.2C0.234563 32.289 1.55994 28.481 4.04276 25.4584C4.90412 24.4271 5.89161 23.5081 6.98206 22.7229C8.37401 21.732 9.88808 20.925 11.4867 20.3218L11.4876 20.3215C12.7039 19.8525 13.9524 19.4715 15.2233 19.1813L15.298 19.1642L15.3167 19.0899C16.8105 13.1509 19.9965 8.58354 24.0898 5.41316C27.9103 2.48077 32.4835 0.690742 37.2795 0.250431L37.2802 0.25036C42.0661 -0.217174 46.8889 0.628476 51.2302 2.69641C56.2746 5.10953 60.3657 9.14225 62.851 14.1514L62.8919 14.2337L62.9826 14.2193C64.0569 14.049 65.1436 13.9686 66.2314 13.9792L66.2317 13.9792C70.7921 14.0128 75.1754 15.6392 78.6318 19.3642C79.3895 20.1838 80.0747 21.0674 80.6799 22.0053L80.68 22.0055C82.8392 25.3378 83.9631 29.7977 83.915 34.1661C83.8669 38.4533 82.7118 42.7122 80.3563 45.8464C80.1685 46.0964 79.9333 46.3069 79.6641 46.4659C79.3949 46.625 79.097 46.7294 78.7874 46.7733C78.4778 46.8172 78.1627 46.7998 77.8598 46.7219C77.557 46.644 77.2725 46.5072 77.0226 46.3194C76.7726 46.1315 76.5621 45.8963 76.4031 45.6271C76.244 45.3579 76.1395 45.06 76.0956 44.7504C76.0517 44.4409 76.0692 44.1257 76.1471 43.8229C76.225 43.5201 76.3617 43.2356 76.5496 42.9856L76.4497 42.9105L76.5496 42.9856C78.2765 40.6864 79.1215 37.4413 79.1555 34.1279C79.1968 30.649 78.3471 27.1508 76.6851 24.5979C76.6851 24.5978 76.685 24.5977 76.6849 24.5976L76.5802 24.6658M9.61102 46.2484L57.5 21.1538L57.5014 21.153C58.0149 20.8526 58.5308 20.5654 59.0454 20.3215L59.0471 20.3207C61.295 19.2947 63.734 18.754 66.205 18.7339M76.5802 24.6658C76.1267 23.9646 75.6124 23.3048 75.0432 22.6939M76.5802 24.6658C78.2258 27.1934 79.0716 30.666 79.0305 34.1264L76.5802 24.6658ZM75.0432 22.6939L75.1353 22.6094C75.1352 22.6092 75.1351 22.6091 75.135 22.609C75.1349 22.6089 75.1348 22.6088 75.1347 22.6087L75.0432 22.6939ZM75.0432 22.6939C73.9212 21.471 72.5547 20.4977 71.0323 19.837C69.5098 19.1764 67.8655 18.8431 66.206 18.8588M66.206 18.8588L66.205 18.7339M66.206 18.8588C63.7526 18.8789 61.331 19.4157 59.099 20.4344M66.206 18.8588L66.2048 18.7339C66.2049 18.7339 66.2049 18.7339 66.205 18.7339M66.205 18.7339L59.099 20.4344M59.099 20.4344C58.5891 20.6761 58.0768 20.9612 57.5645 21.2609L59.099 20.4344Z" stroke="url(#paint1_linear_1119_16583)" stroke-width="0.25" stroke-miterlimit="10"/>
<path d="M79.5971 47.1982C84.0498 47.1982 87.6575 46.8215 87.6575 46.3564C87.6575 45.8914 84.0498 45.5146 79.5971 45.5146C75.1443 45.5146 71.5366 45.8914 71.5366 46.3564C71.5366 46.8215 75.1443 47.1982 79.5971 47.1982Z" fill="url(#paint2_radial_1119_16583)"/>
<path d="M80.5137 46.3476C80.5137 50.7998 80.1027 54.408 79.5928 54.408C79.0828 54.408 78.6719 50.7998 78.6719 46.3476C78.6719 41.8954 79.0933 38.2871 79.5928 38.2871C80.0922 38.2871 80.5137 41.8975 80.5137 46.3476Z" fill="url(#paint3_radial_1119_16583)"/>
<path d="M14.4177 18.4526C18.8727 18.4526 22.4845 18.0759 22.4845 17.6108C22.4845 17.1458 18.8727 16.769 14.4177 16.769C9.96259 16.769 6.36353 17.1458 6.36353 17.6108C6.36353 18.0759 9.9647 18.4526 14.4177 18.4526Z" fill="url(#paint4_radial_1119_16583)"/>
<path d="M15.3348 17.6059C15.3348 22.0581 14.9131 25.6663 14.4134 25.6663C13.9137 25.6663 13.4941 22.0581 13.4941 17.6059C13.4941 13.1537 13.9158 9.54541 14.4134 9.54541C14.911 9.54541 15.3348 13.1558 15.3348 17.6059Z" fill="url(#paint5_radial_1119_16583)"/>
<defs>
<linearGradient id="paint0_linear_1119_16583" x1="77.423" y1="47.7262" x2="6.89383" y2="-4.77297" gradientUnits="userSpaceOnUse">
<stop stop-color="white" stop-opacity="0.9"/>
<stop offset="0.04" stop-color="white" stop-opacity="0.85"/>
<stop offset="0.28" stop-color="white" stop-opacity="0.5"/>
<stop offset="0.65" stop-color="#FAFBFC" stop-opacity="0.4"/>
<stop offset="1" stop-color="#F0EFEF" stop-opacity="0"/>
</linearGradient>
<linearGradient id="paint1_linear_1119_16583" x1="66.817" y1="51.4386" x2="25.454" y2="7.95442" gradientUnits="userSpaceOnUse">
<stop stop-color="white" stop-opacity="0.9"/>
<stop offset="0.28" stop-color="white" stop-opacity="0.5"/>
<stop offset="0.65" stop-color="#FAFBFC" stop-opacity="0.4"/>
<stop offset="1" stop-color="#F0EFEF" stop-opacity="0"/>
</linearGradient>
<radialGradient id="paint2_radial_1119_16583" cx="0" cy="0" r="1" gradientUnits="userSpaceOnUse" gradientTransform="translate(79.0364 46.4889) rotate(90) scale(0.834981 8.0538)">
<stop stop-color="white"/>
<stop offset="0.07" stop-color="white" stop-opacity="0.93"/>
<stop offset="1" stop-color="white" stop-opacity="0"/>
</radialGradient>
<radialGradient id="paint3_radial_1119_16583" cx="0" cy="0" r="1" gradientUnits="userSpaceOnUse" gradientTransform="translate(79.7309 46.5776) scale(0.921739 8.07401)">
<stop stop-color="white"/>
<stop offset="0.07" stop-color="white" stop-opacity="0.93"/>
<stop offset="1" stop-color="white" stop-opacity="0"/>
</radialGradient>
<radialGradient id="paint4_radial_1119_16583" cx="0" cy="0" r="1" gradientUnits="userSpaceOnUse" gradientTransform="translate(13.8739 17.8316) rotate(90) scale(0.834981 8.05802)">
<stop stop-color="white"/>
<stop offset="0.07" stop-color="white" stop-opacity="0.93"/>
<stop offset="1" stop-color="white" stop-opacity="0"/>
</radialGradient>
<radialGradient id="paint5_radial_1119_16583" cx="0" cy="0" r="1" gradientUnits="userSpaceOnUse" gradientTransform="translate(14.4116 17.8366) scale(0.92222 8.07401)">
<stop stop-color="white"/>
<stop offset="0.07" stop-color="white" stop-opacity="0.93"/>
<stop offset="1" stop-color="white" stop-opacity="0"/>
</radialGradient>
</defs>
</svg>
