<svg width="84" height="80" viewBox="0 0 84 80" fill="none" xmlns="http://www.w3.org/2000/svg">
<path d="M43.9294 46.4479C42.9219 46.4479 42.2166 47.254 42.2166 48.1608V68.4127C39.7985 69.118 38.0856 71.3346 37.9849 73.9542C37.9849 75.5663 38.4886 77.0776 39.597 78.186C40.7053 79.2943 42.2166 79.9996 43.7279 79.9996H43.8287C47.0529 79.9996 49.6725 77.3799 49.7733 74.1557C49.7733 72.5436 49.2695 71.0323 48.1612 69.924C47.4559 69.2187 46.5491 68.6142 45.5415 68.3119V48.06C45.5415 47.0525 44.7355 46.3472 43.8287 46.3472L43.9294 46.4479ZM45.7431 72.3421C46.1461 72.8459 46.4483 73.4504 46.4483 74.1557C46.4483 75.4656 45.34 76.5739 43.9294 76.5739C43.2242 76.5739 42.6196 76.2716 42.2166 75.7678C41.8136 75.264 41.5113 74.6595 41.5113 73.9542C41.5113 72.6444 42.6196 71.5361 44.0302 71.5361C44.7355 71.5361 45.34 71.8384 45.7431 72.3421Z" fill="#96C83D"/>
<path d="M32.8463 48.1606V57.8331C32.8463 59.546 31.5364 60.8558 29.8236 60.8558H24.7858C24.0805 58.4377 21.7631 56.6241 19.0427 56.6241C16.3223 56.6241 13.0981 59.2437 13.0981 62.5687C13.0981 65.8936 15.7178 68.5132 19.0427 68.5132C22.3677 68.5132 23.9798 66.6996 24.7858 64.2815H29.8236C33.35 64.2815 36.2719 61.3596 36.2719 57.8331V48.1606C36.2719 47.153 35.4659 46.4478 34.5591 46.4478C33.6523 46.4478 32.8463 47.2538 32.8463 48.1606ZM19.0427 65.0875C17.6322 65.0875 16.5238 63.9792 16.5238 62.5687C16.5238 61.1581 17.6322 60.0498 19.0427 60.0498C20.4533 60.0498 21.5616 61.1581 21.5616 62.5687C21.5616 63.9792 20.4533 65.0875 19.0427 65.0875Z" fill="#96C83D"/>
<path d="M58.0353 64.2815H63.0731C63.7784 66.6996 66.0957 68.5132 68.8161 68.5132C71.5365 68.5132 74.7607 65.8936 74.7607 62.5687C74.7607 59.2437 72.1411 56.6241 68.8161 56.6241C65.4912 56.6241 63.8791 58.4377 63.0731 60.8558H58.0353C56.3224 60.8558 55.0126 59.546 55.0126 57.8331V48.1606C55.0126 47.153 54.2066 46.4478 53.2998 46.4478C52.393 46.4478 51.5869 47.2538 51.5869 48.1606V57.8331C51.5869 61.3596 54.5088 64.2815 58.0353 64.2815ZM68.8161 60.0498C70.2267 60.0498 71.335 61.1581 71.335 62.5687C71.335 63.9792 70.2267 65.0875 68.8161 65.0875C67.4056 65.0875 66.2972 63.9792 66.2972 62.5687C66.2972 61.1581 67.4056 60.0498 68.8161 60.0498Z" fill="#96C83D"/>
<path d="M9.66097 46.6048C9.97581 46.8147 10.1857 47.0246 10.2907 47.3394C10.5005 47.6542 10.6055 47.9691 10.6055 48.2839V49.2284C10.6055 49.5433 10.3956 49.8581 10.0808 50.068C9.87086 50.2779 9.55602 50.4878 9.34613 50.6977C9.03129 50.6977 8.71645 50.9076 8.40161 51.0125H7.45709C7.14225 51.0125 6.8274 50.6977 6.61751 50.4878C5.4631 49.5433 4.51857 48.4938 3.57405 47.2345C1.26522 44.086 0.110806 40.308 0.00585938 36.4249C0.00585938 32.4369 1.26522 28.6589 3.78395 25.6154C4.62352 24.5659 5.67299 23.6214 6.72246 22.8868C8.08677 21.8373 9.66097 21.1027 11.2352 20.473C12.4945 20.0532 13.7539 19.6334 15.0133 19.3186C16.4825 13.3366 19.7359 8.71896 23.8288 5.57055C27.6069 2.63204 32.2245 0.742999 37.0521 0.323211C41.8797 -0.0965761 46.7072 0.742999 51.115 2.73699C56.1524 5.15077 60.3503 9.24369 62.7641 14.2811C63.8135 14.0712 64.968 14.0712 66.0174 14.0712C70.6351 14.0712 75.0429 15.7504 78.5061 19.5285C79.2407 20.3681 79.9754 21.2076 80.605 22.1522C82.8089 25.5105 83.9633 30.0232 83.8584 34.4309C83.8584 38.7338 82.599 43.0366 80.2902 46.185C80.0803 46.4998 79.8704 46.7097 79.5556 46.8147C79.2407 47.0246 78.9259 47.1295 78.6111 47.1295H77.6665C77.3517 47.1295 77.0368 46.9196 76.827 46.7097C76.5121 46.4998 76.3022 46.2899 76.1973 45.9751C75.9874 45.6603 75.8824 45.3454 75.8824 45.0306V44.086C75.8824 43.7712 76.0923 43.4564 76.3022 43.2465C77.9814 40.9376 78.8209 37.7892 78.9259 34.4309C78.9259 30.9677 78.0863 27.5044 76.5121 24.9857C76.0923 24.2511 75.5676 23.6214 74.9379 22.9917C73.7835 21.7324 72.4192 20.7878 70.9499 20.1582C69.3757 19.5285 67.8015 19.2136 66.1224 19.2136C63.7086 19.2136 61.2948 19.7384 58.986 20.7878C58.4613 20.9977 57.9365 21.3126 57.4118 21.6274C55.8376 22.5719 54.2634 23.7264 52.7941 24.8808L49.4358 21.1027C50.5902 20.0532 51.8496 19.1087 53.109 18.2691C54.1584 17.6394 55.2079 17.0098 56.3623 16.485C56.7821 16.2751 57.3068 16.0652 57.7266 15.8553C55.7326 12.1822 52.5842 9.34864 48.8061 7.56454C45.238 5.88539 41.3549 5.15077 37.3669 5.57055C33.4839 5.88539 29.8108 7.35465 26.6624 9.76843C23.0942 12.497 20.3655 16.6949 19.3161 22.1522L19.0012 23.8313L17.3221 24.1461C15.7479 24.356 14.2786 24.7758 12.8094 25.4055C11.655 25.8253 10.5005 26.455 9.45108 27.1896C8.71645 27.7143 7.98182 28.344 7.35214 29.0786C5.56804 31.1776 4.72847 33.9062 4.72847 36.6348C4.72847 39.3634 5.14825 40.5179 5.98783 42.302C6.8274 44.086 7.98182 45.6602 9.55602 46.9196V46.6048H9.66097Z" fill="url(#paint0_linear_1207_2446)"/>
<path d="M39.6755 0.533035C43.5586 0.533035 47.4416 1.37261 51.0098 3.05176C56.0473 5.46554 60.1402 9.45352 62.554 14.491V14.7009H62.8688C63.9183 14.491 64.8628 14.491 65.9123 14.491H66.1222C70.9497 14.491 75.2525 16.38 78.4009 19.8433C79.1356 20.6828 79.8702 21.5224 80.3949 22.4669C82.4939 25.7203 83.6483 30.128 83.6483 34.5358C83.6483 38.9436 82.3889 43.1415 80.0801 46.1849C79.8702 46.3948 79.6603 46.6047 79.4504 46.8146C79.2405 46.8146 78.9257 47.0245 78.6108 47.1294H77.7713C77.4564 47.1294 77.2465 46.9195 76.9317 46.7096C76.7218 46.4998 76.5119 46.2899 76.302 46.08C76.302 45.8701 76.0921 45.5552 75.9872 45.2404V44.4008C75.9872 44.086 76.1971 43.8761 76.4069 43.5612C78.0861 41.3574 79.0306 38.209 79.0306 34.6408C79.0306 31.0726 78.191 27.5044 76.5119 24.9857C76.0921 24.251 75.5674 23.6213 74.9377 22.9917C73.7833 21.7323 72.419 20.7878 70.8448 20.0531C69.2706 19.4235 67.6964 19.0037 66.0172 19.0037C63.4985 19.0037 61.0847 19.5284 58.7759 20.5779C58.2511 20.8927 57.7264 21.1026 57.2017 21.4175C55.6275 22.362 54.1582 23.4114 52.7939 24.5659L49.8554 21.2076C50.9049 20.263 52.0593 19.3185 53.3186 18.4789C54.3681 17.8493 55.4176 17.2196 56.572 16.6949C56.9918 16.485 57.5165 16.2751 57.9363 16.0652H58.2511V15.6454C56.1522 11.9722 53.1087 9.03373 49.2257 7.24963C46.2872 5.88532 43.0338 5.1507 39.8854 5.1507C36.737 5.1507 38.4162 5.1507 37.7865 5.1507C33.9035 5.46554 30.1254 6.93479 26.977 9.34857C23.0939 12.392 20.5752 16.6948 19.5258 21.9422L19.2109 23.5164L17.6367 23.8312C16.0625 24.0411 14.5932 24.4609 13.124 25.0906C11.8646 25.5104 10.7102 26.1401 9.66075 26.9796C8.92612 27.5044 8.19149 28.239 7.56181 28.9736C5.77771 31.1775 4.83319 33.9061 4.93814 36.7397C4.93814 38.7337 5.35793 40.7277 6.1975 42.5118C6.93213 44.086 7.9816 45.5552 9.24096 46.7096L9.87064 47.1294C10.0805 47.3393 10.2904 47.5492 10.5003 47.8641C10.6053 48.1789 10.7102 48.3888 10.8152 48.7036V49.5432C10.8152 49.8581 10.6053 50.0679 10.3954 50.2778C10.1855 50.4877 9.97559 50.6976 9.66075 50.8026C9.34591 50.9075 9.13601 51.0125 8.82117 51.0125H7.87665C7.56181 51.0125 7.35192 50.8026 7.14202 50.5927C5.98761 49.6482 5.04309 48.5987 4.20351 47.4443C1.99963 44.2959 0.740265 40.6227 0.740265 36.7397C0.740265 32.8567 1.99963 29.0786 4.4134 26.0351C5.25298 24.9857 6.1975 24.1461 7.35192 23.3065C8.71623 22.362 10.2904 21.5224 11.8646 20.8927C13.124 20.4729 14.2784 20.0532 15.5378 19.7383H15.6427V19.5284C17.007 13.9662 20.0505 9.24362 24.3533 5.88532C27.9215 2.94681 32.5392 1.16272 37.2618 0.742929H39.7805M39.6755 0.113248C38.731 0.113248 37.8914 0.113248 37.0519 0.218194C32.2243 0.637982 27.6067 2.42208 23.8286 5.36059C19.7356 8.509 16.4823 13.1267 15.013 19.1086C13.7537 19.4235 12.4943 19.7383 11.2349 20.263C9.66075 20.8927 8.08654 21.7323 6.72224 22.6768C5.67277 23.5164 4.6233 24.356 3.78372 25.4054C1.265 28.4489 -0.0993103 32.3319 0.00563658 36.215C0.00563658 40.098 1.265 43.8761 3.57383 47.0245C4.4134 48.1789 5.46287 49.3333 6.61729 50.2778C6.82718 50.4877 7.14202 50.6976 7.45686 50.8026H8.29644C8.61128 50.8026 8.40139 50.8026 8.50633 50.8026C8.82117 50.8026 9.13601 50.8026 9.45085 50.4877C9.76569 50.4877 9.97559 50.1729 10.1855 49.8581C10.3954 49.6482 10.6053 49.3333 10.7102 49.0185C10.7102 48.7036 10.8152 48.3888 10.7102 48.074C10.7102 47.7591 10.6053 47.4443 10.3954 47.1294C10.1855 46.8146 9.97559 46.6047 9.76569 46.3948C8.29644 45.1354 7.03708 43.5612 6.1975 41.7771C5.35793 39.9931 4.93814 38.104 4.93814 36.11C4.93814 34.116 5.77771 30.6528 7.56181 28.5538C8.19149 27.8192 8.82117 27.1895 9.66075 26.6648C10.7102 25.9302 11.8646 25.3005 13.019 24.8807C14.4883 24.356 15.9576 23.9362 17.5318 23.6213L19.2109 23.3065L19.5258 21.6274C20.5752 16.1701 23.3038 11.9722 26.872 9.24362C29.9155 6.82985 33.6936 5.46554 37.5766 5.04575H39.6755C42.824 5.04575 46.0773 5.78038 48.9109 7.14469C52.689 8.92878 55.7324 11.8673 57.8314 15.4355C57.4116 15.6454 56.8868 15.8553 56.467 16.0652C55.3126 16.5899 54.2632 17.2196 53.2137 17.8493C51.9543 18.6888 50.695 19.6334 49.5406 20.6828L52.8989 24.4609C54.3681 23.3065 55.8374 22.1521 57.5165 21.2076C58.0412 20.8927 58.566 20.6828 59.0907 20.368C61.2946 19.3185 63.7084 18.7938 66.2271 18.7938C67.8013 18.7938 69.4805 19.1086 70.9497 19.7383C72.5239 20.368 73.8882 21.4175 74.9377 22.5719C75.4624 23.2016 75.9872 23.8312 76.5119 24.5659C78.191 27.0846 79.0306 30.5478 78.9257 34.0111C78.9257 37.2644 78.0861 40.5178 76.302 42.8266C76.0921 43.1415 75.9872 43.3513 75.8822 43.6662V44.6107C75.8822 44.9256 75.8822 45.2404 76.197 45.5552C76.4069 45.8701 76.6168 46.08 76.8267 46.2899C77.1416 46.4998 77.3515 46.6047 77.6663 46.7096H78.6108C78.9257 46.7096 79.2405 46.7096 79.5554 46.3948C79.8702 46.08 80.0801 45.975 80.29 45.7651C82.7038 42.6167 83.8582 38.3139 83.8582 34.0111C83.8582 29.7083 82.8087 25.0906 80.6048 21.7323C79.9751 20.7878 79.3455 19.8433 78.5059 19.1086C75.0426 15.3305 70.6349 13.7563 66.0172 13.6514H65.8073C64.7578 13.6514 63.7084 13.6514 62.7639 13.8613C60.2451 8.82384 56.1522 4.73091 51.1148 2.31713C47.3367 0.847875 43.4536 0.00830078 39.5706 0.00830078L39.6755 0.113248Z" fill="url(#paint1_linear_1207_2446)"/>
<path d="M75.7978 44.562C80.2505 44.562 83.8582 44.1852 83.8582 43.7202C83.8582 43.2552 80.2505 42.8784 75.7978 42.8784C71.345 42.8784 67.7373 43.2552 67.7373 43.7202C67.7373 44.1852 71.345 44.562 75.7978 44.562Z" fill="url(#paint2_radial_1207_2446)"/>
<path d="M76.7144 43.7113C76.7144 48.1635 76.3034 51.7718 75.7935 51.7718C75.2835 51.7718 74.8726 48.1635 74.8726 43.7113C74.8726 39.2591 75.294 35.6509 75.7935 35.6509C76.2929 35.6509 76.7144 39.2613 76.7144 43.7113Z" fill="url(#paint3_radial_1207_2446)"/>
<path d="M15.2016 19.9077C19.6567 19.9077 23.2684 19.5309 23.2684 19.0659C23.2684 18.6009 19.6567 18.2241 15.2016 18.2241C10.7465 18.2241 7.14746 18.6009 7.14746 19.0659C7.14746 19.5309 10.7486 19.9077 15.2016 19.9077Z" fill="url(#paint4_radial_1207_2446)"/>
<path d="M16.1185 19.0609C16.1185 23.5131 15.6968 27.1214 15.1971 27.1214C14.6974 27.1214 14.2778 23.5131 14.2778 19.0609C14.2778 14.6087 14.6995 11.0005 15.1971 11.0005C15.6947 11.0005 16.1185 14.6109 16.1185 19.0609Z" fill="url(#paint5_radial_1207_2446)"/>
<defs>
<linearGradient id="paint0_linear_1207_2446" x1="56.2574" y1="59.1984" x2="17.7419" y2="-7.5478" gradientUnits="userSpaceOnUse">
<stop stop-color="white" stop-opacity="0.9"/>
<stop offset="0.3" stop-color="white" stop-opacity="0.5"/>
<stop offset="0.7" stop-color="#FAFBFC" stop-opacity="0.4"/>
<stop offset="1" stop-color="#F0EFEF" stop-opacity="0"/>
</linearGradient>
<linearGradient id="paint1_linear_1207_2446" x1="-0.0993103" y1="25.5104" x2="83.8582" y2="25.5104" gradientUnits="userSpaceOnUse">
<stop stop-color="#F0EFEF" stop-opacity="0"/>
<stop offset="0.6" stop-color="#FAFBFC" stop-opacity="0.4"/>
<stop offset="0.8" stop-color="white" stop-opacity="0.5"/>
<stop offset="1" stop-color="white" stop-opacity="0.9"/>
</linearGradient>
<radialGradient id="paint2_radial_1207_2446" cx="0" cy="0" r="1" gradientUnits="userSpaceOnUse" gradientTransform="translate(75.2371 43.8526) rotate(90) scale(0.834981 8.0538)">
<stop stop-color="white"/>
<stop offset="0.07" stop-color="white" stop-opacity="0.93"/>
<stop offset="1" stop-color="white" stop-opacity="0"/>
</radialGradient>
<radialGradient id="paint3_radial_1207_2446" cx="0" cy="0" r="1" gradientUnits="userSpaceOnUse" gradientTransform="translate(75.9316 43.9413) scale(0.921739 8.07401)">
<stop stop-color="white"/>
<stop offset="0.07" stop-color="white" stop-opacity="0.93"/>
<stop offset="1" stop-color="white" stop-opacity="0"/>
</radialGradient>
<radialGradient id="paint4_radial_1207_2446" cx="0" cy="0" r="1" gradientUnits="userSpaceOnUse" gradientTransform="translate(14.6578 19.2867) rotate(90) scale(0.834981 8.05802)">
<stop stop-color="white"/>
<stop offset="0.07" stop-color="white" stop-opacity="0.93"/>
<stop offset="1" stop-color="white" stop-opacity="0"/>
</radialGradient>
<radialGradient id="paint5_radial_1207_2446" cx="0" cy="0" r="1" gradientUnits="userSpaceOnUse" gradientTransform="translate(15.1953 19.2916) scale(0.92222 8.07401)">
<stop stop-color="white"/>
<stop offset="0.07" stop-color="white" stop-opacity="0.93"/>
<stop offset="1" stop-color="white" stop-opacity="0"/>
</radialGradient>
</defs>
</svg>
