<svg width="81" height="80" viewBox="0 0 81 80" fill="none" xmlns="http://www.w3.org/2000/svg">
<path d="M23.7291 0.677143C20.4766 1.5358 17.6925 3.12301 15.4678 5.19158C7.68787 12.4121 6.55601 25.4871 14.8693 33.8004C15.0645 33.9956 15.2727 34.1907 15.4678 34.3728C25.7066 43.792 42.6195 39.798 47.4332 26.6189C52.9364 11.5664 39.2109 -3.38195 23.7291 0.677143ZM42.8537 25.8904C38.6125 35.7259 25.5375 38.1848 17.9917 30.5349C16.9639 29.4941 16.1183 28.3492 15.4678 27.1263C12.9439 22.5078 13.087 16.9395 15.4678 12.4902C17.094 9.41981 19.7871 6.88287 23.3908 5.54285C36.0885 0.83326 48.2138 13.4399 42.8537 25.8904Z" fill="url(#paint0_linear_1081_15838)"/>
<path d="M28.8941 0.325248C35.2039 0.325248 41.1624 3.47365 44.8442 8.72966C48.513 13.9727 49.3457 20.4516 47.134 26.5012C44.3108 34.2161 37.1033 39.1989 28.7509 39.1989C23.8982 39.1989 19.2537 37.3905 15.702 34.125C15.5068 33.9429 15.2987 33.7478 15.1165 33.5656C11.3697 29.8188 9.36615 24.849 9.45722 19.5539C9.5613 14.1678 11.838 9.01588 15.702 5.42514C17.9917 3.30452 20.7238 1.80838 23.8202 0.988752C25.4985 0.546415 27.2158 0.325248 28.8941 0.325248ZM28.777 35.361C35.0608 35.361 40.6941 31.6922 43.1529 26.0199C45.2735 21.0891 44.8312 15.729 41.943 11.3186C39.0158 6.86924 34.137 4.20221 28.9071 4.20221C27.0206 4.20221 25.1342 4.55347 23.2868 5.22999C19.8001 6.53098 16.9249 9.0419 15.1946 12.3334C12.6967 16.991 12.6967 22.7153 15.1946 27.2818C15.8581 28.5308 16.7298 29.7147 17.7706 30.7685C20.6978 33.7347 24.6138 35.374 28.79 35.374M28.8941 0C27.2158 0 25.4855 0.221169 23.7291 0.676517C20.4766 1.53517 17.6925 3.12238 15.4678 5.19096C7.68787 12.4115 6.55601 25.4864 14.8693 33.7998C15.0645 33.9949 15.2727 34.1901 15.4678 34.3722C19.2927 37.8849 24.0413 39.5372 28.7379 39.5372C36.635 39.5372 44.4149 34.8796 47.4332 26.6183C52.3119 13.2701 42.0731 0 28.8941 0ZM28.777 35.0357C24.913 35.0357 21.01 33.5916 17.9917 30.5343C16.9639 29.4935 16.1183 28.3486 15.4678 27.1257C12.9439 22.5072 13.087 16.9389 15.4678 12.4895C17.094 9.41918 19.7871 6.88225 23.3909 5.54223C25.2513 4.8527 27.1117 4.52745 28.8941 4.52745C39.276 4.52745 47.4202 15.2606 42.8537 25.8898C40.3038 31.7963 34.5794 35.0357 28.777 35.0357Z" fill="url(#paint1_linear_1081_15838)"/>
<path d="M30.1043 18.566H36.1148C36.8304 18.566 37.663 20.3484 36.2189 20.8948C35.3472 21.2331 30.5856 21.181 29.4277 21.09C28.413 20.9989 27.7104 20.8168 27.5803 19.6849C27.4502 18.553 27.4242 13.5832 27.6454 12.6205C27.8535 11.7488 28.7252 11.3065 29.5058 11.8269C29.6489 11.918 30.1043 12.4384 30.1043 12.5685V18.5791V18.566Z" fill="url(#paint2_linear_1081_15838)"/>
<path d="M28.8163 11.9301C28.9854 11.9301 29.1545 11.9821 29.3236 12.0992C29.4147 12.1642 29.7009 12.4895 29.779 12.6196V18.9034H36.1148C36.284 18.9034 36.5832 19.2156 36.6743 19.658C36.7263 19.9702 36.6743 20.3995 36.1148 20.6077C35.7245 20.7508 34.2154 20.8549 32.1598 20.8549C31.067 20.8549 29.9611 20.8288 29.4668 20.7898C28.3999 20.6987 28.0097 20.5166 27.9056 19.658C27.7755 18.5261 27.7494 13.6083 27.9706 12.7107C28.0747 12.2553 28.426 11.9431 28.8293 11.9431M28.8163 11.6048C28.2698 11.6048 27.7885 12.0081 27.6454 12.6196C27.4242 13.5823 27.4502 18.5781 27.5803 19.684C27.7104 20.8288 28.413 21.011 29.4277 21.089C29.8961 21.1281 30.9759 21.1541 32.1468 21.1541C33.8381 21.1541 35.7115 21.089 36.2189 20.8939C37.65 20.3345 36.8304 18.5651 36.1148 18.5651H30.1043V12.5545C30.1043 12.4374 29.6489 11.917 29.5058 11.813C29.2716 11.6568 29.0374 11.5918 28.8163 11.5918V11.6048Z" fill="url(#paint3_linear_1081_15838)"/>
<path d="M55.9993 23.6322C59.313 23.6322 62 23.3509 62 23.0058C62 22.6607 59.3204 22.3794 55.9993 22.3794C52.6781 22.3794 50 22.6607 50 23.0058C50 23.3509 52.6855 23.6322 55.9993 23.6322Z" fill="url(#paint4_radial_1081_15838)"/>
<path d="M56.6828 23.0023C56.6828 26.3136 56.3762 29 55.9965 29C55.6169 29 55.3118 26.3136 55.3118 23.0023C55.3118 19.691 55.6184 17 55.9965 17C56.3747 17 56.6828 19.691 56.6828 23.0023Z" fill="url(#paint5_radial_1081_15838)"/>
<path d="M5.99926 54.6317C9.31299 54.6317 12 54.3504 12 54.0053C12 53.6602 9.32043 53.3789 5.99926 53.3789C2.67808 53.3789 0 53.6602 0 54.0053C0 54.3504 2.68552 54.6317 5.99926 54.6317Z" fill="url(#paint6_radial_1081_15838)"/>
<path d="M6.68257 54.0023C6.68257 57.3136 6.37591 60 5.9963 60C5.6167 60 5.31152 57.3136 5.31152 54.0023C5.31152 50.691 5.61818 48 5.9963 48C6.37442 48 6.68257 50.691 6.68257 54.0023Z" fill="url(#paint7_radial_1081_15838)"/>
<path fill-rule="evenodd" clip-rule="evenodd" d="M52.883 24.5405C53.1319 24.2497 53.435 24.0117 53.7751 23.8402C54.1151 23.6687 54.4853 23.5671 54.8643 23.5412C55.2433 23.5154 55.6236 23.5659 55.9832 23.6897C56.3429 23.8136 56.6748 24.0084 56.9598 24.2628L79.5532 44.2071C80.0115 44.5984 80.3394 45.1234 80.4924 45.7105C80.6454 46.2976 80.6159 46.9182 80.4079 47.4877C80.2 48.0572 79.8237 48.5478 79.3305 48.8927C78.8373 49.2375 78.2511 49.4197 77.6519 49.4145H23.4893C22.7216 49.4145 21.9853 49.1054 21.4424 48.5553C20.8995 48.0052 20.5945 47.259 20.5945 46.481C20.5945 45.703 20.8995 44.9568 21.4424 44.4067C21.9853 43.8566 22.7216 43.5475 23.4893 43.5475H69.8409L53.0886 28.7412C52.7961 28.4834 52.558 28.1684 52.3887 27.8151C52.2193 27.4619 52.1221 27.0775 52.1029 26.6852C52.0837 26.2929 52.1429 25.9007 52.277 25.5322C52.411 25.1637 52.6172 24.8264 52.883 24.5405Z" fill="url(#paint8_linear_1081_15838)"/>
<path fill-rule="evenodd" clip-rule="evenodd" d="M30.7675 79.0003C30.2577 79.5845 29.5397 79.9415 28.7702 79.9935C28.0006 80.0455 27.2419 79.7883 26.6595 79.2779L3.98822 59.3253C3.52839 58.9342 3.19928 58.4094 3.04578 57.8226C2.89229 57.2357 2.92189 56.6154 3.13054 56.0461C3.3392 55.4769 3.71674 54.9865 4.21168 54.6418C4.70662 54.2971 5.29485 54.115 5.89612 54.1202H60.2453C60.9794 54.1772 61.665 54.5117 62.1653 55.057C62.6655 55.6022 62.9434 56.3179 62.9434 57.0611C62.9434 57.8042 62.6655 58.5199 62.1653 59.0652C61.665 59.6104 60.9794 59.945 60.2453 60.0019H13.6652L30.4753 74.8016C30.7727 75.0545 31.0168 75.3651 31.193 75.715C31.3693 76.0649 31.4741 76.447 31.5014 76.8385C31.5286 77.2301 31.4777 77.6232 31.3517 77.9946C31.2256 78.3659 31.027 78.7079 30.7675 79.0003Z" fill="url(#paint9_linear_1081_15838)"/>
<defs>
<linearGradient id="paint0_linear_1081_15838" x1="9.11896" y1="19.7627" x2="48.6691" y2="19.7627" gradientUnits="userSpaceOnUse">
<stop stop-color="#79A540"/>
<stop offset="0.2" stop-color="#94C63D"/>
<stop offset="0.39" stop-color="#98CA3C"/>
<stop offset="0.59" stop-color="#93C53E"/>
<stop offset="0.74" stop-color="#9DCB3B"/>
<stop offset="0.9" stop-color="#A6CE39"/>
<stop offset="1" stop-color="#A6CE39"/>
</linearGradient>
<linearGradient id="paint1_linear_1081_15838" x1="9.11896" y1="19.7621" x2="48.6691" y2="19.7621" gradientUnits="userSpaceOnUse">
<stop stop-color="#F0EFEF" stop-opacity="0"/>
<stop offset="0.61" stop-color="#FAFBFC" stop-opacity="0.4"/>
<stop offset="0.85" stop-color="white" stop-opacity="0.5"/>
<stop offset="1" stop-color="white" stop-opacity="0.9"/>
</linearGradient>
<linearGradient id="paint2_linear_1081_15838" x1="27.4762" y1="16.3804" x2="37.0125" y2="16.3804" gradientUnits="userSpaceOnUse">
<stop stop-color="#79A540"/>
<stop offset="0.2" stop-color="#94C63D"/>
<stop offset="0.39" stop-color="#98CA3C"/>
<stop offset="0.59" stop-color="#93C53E"/>
<stop offset="0.74" stop-color="#9DCB3B"/>
<stop offset="0.9" stop-color="#A6CE39"/>
<stop offset="1" stop-color="#A6CE39"/>
</linearGradient>
<linearGradient id="paint3_linear_1081_15838" x1="27.4762" y1="16.3795" x2="37.0125" y2="16.3795" gradientUnits="userSpaceOnUse">
<stop stop-color="#F0EFEF" stop-opacity="0"/>
<stop offset="0.61" stop-color="#FAFBFC" stop-opacity="0.4"/>
<stop offset="0.85" stop-color="white" stop-opacity="0.5"/>
<stop offset="1" stop-color="white" stop-opacity="0.9"/>
</linearGradient>
<radialGradient id="paint4_radial_1081_15838" cx="0" cy="0" r="1" gradientUnits="userSpaceOnUse" gradientTransform="translate(55.4128 23.2098) rotate(90) scale(0.621756 5.9992)">
<stop stop-color="white"/>
<stop offset="0.07" stop-color="white" stop-opacity="0.93"/>
<stop offset="1" stop-color="white" stop-opacity="0"/>
</radialGradient>
<radialGradient id="paint5_radial_1081_15838" cx="0" cy="0" r="1" gradientUnits="userSpaceOnUse" gradientTransform="translate(56.0083 23.2835) scale(0.686505 6.01143)">
<stop stop-color="white"/>
<stop offset="0.07" stop-color="white" stop-opacity="0.93"/>
<stop offset="1" stop-color="white" stop-opacity="0"/>
</radialGradient>
<radialGradient id="paint6_radial_1081_15838" cx="0" cy="0" r="1" gradientUnits="userSpaceOnUse" gradientTransform="translate(5.41285 54.2093) rotate(90) scale(0.621756 5.9992)">
<stop stop-color="white"/>
<stop offset="0.07" stop-color="white" stop-opacity="0.93"/>
<stop offset="1" stop-color="white" stop-opacity="0"/>
</radialGradient>
<radialGradient id="paint7_radial_1081_15838" cx="0" cy="0" r="1" gradientUnits="userSpaceOnUse" gradientTransform="translate(6.00809 54.2835) scale(0.686505 6.01143)">
<stop stop-color="white"/>
<stop offset="0.07" stop-color="white" stop-opacity="0.93"/>
<stop offset="1" stop-color="white" stop-opacity="0"/>
</radialGradient>
<linearGradient id="paint8_linear_1081_15838" x1="73.2668" y1="50.7684" x2="44.5473" y2="15.5567" gradientUnits="userSpaceOnUse">
<stop stop-color="white" stop-opacity="0.9"/>
<stop offset="0.04" stop-color="white" stop-opacity="0.85"/>
<stop offset="0.28" stop-color="white" stop-opacity="0.5"/>
<stop offset="0.65" stop-color="#FAFBFC" stop-opacity="0.4"/>
<stop offset="1" stop-color="#F0EFEF" stop-opacity="0.3"/>
</linearGradient>
<linearGradient id="paint9_linear_1081_15838" x1="55.6213" y1="81.3538" x2="26.9018" y2="46.1422" gradientUnits="userSpaceOnUse">
<stop stop-color="white" stop-opacity="0.9"/>
<stop offset="0.04" stop-color="white" stop-opacity="0.85"/>
<stop offset="0.28" stop-color="white" stop-opacity="0.5"/>
<stop offset="0.65" stop-color="#FAFBFC" stop-opacity="0.4"/>
<stop offset="1" stop-color="#F0EFEF" stop-opacity="0.3"/>
</linearGradient>
</defs>
</svg>
