<svg width="81" height="80" viewBox="0 0 81 80" fill="none" xmlns="http://www.w3.org/2000/svg">
<mask id="mask0_1171_14099" style="mask-type:luminance" maskUnits="userSpaceOnUse" x="17" y="32" width="47" height="48">
<path d="M62.5057 61.1106L60.8545 60.1637C61.4082 57.4483 61.4103 54.6492 60.8608 51.9329L62.5057 50.9835C62.7568 50.8388 62.9768 50.646 63.1532 50.4161C63.3296 50.1862 63.4589 49.9237 63.5337 49.6438C63.6085 49.3638 63.6273 49.0719 63.589 48.7846C63.5508 48.4974 63.4562 48.2205 63.3107 47.9699L58.8139 40.1795C58.6694 39.9292 58.4769 39.7097 58.2475 39.5338C58.0181 39.3578 57.7563 39.2288 57.477 39.154C57.1977 39.0793 56.9065 39.0603 56.6198 39.0981C56.3332 39.1359 56.0569 39.2298 55.8065 39.3745L54.1604 40.3239C52.078 38.4938 49.6552 37.0922 47.0307 36.1991V34.3078C47.0301 33.7239 46.7978 33.1641 46.3849 32.7513C45.972 32.3384 45.4123 32.1061 44.8284 32.1055H35.8335C35.2498 32.1065 34.6904 32.3388 34.2778 32.7517C33.8652 33.1645 33.6331 33.7241 33.6324 34.3078V36.1991C31.0102 37.0944 28.5904 38.4982 26.5115 40.3301L24.8566 39.3745C24.6062 39.2296 24.3298 39.1356 24.043 39.0976C23.7563 39.0597 23.4648 39.0787 23.1854 39.1534C22.906 39.2282 22.6441 39.3573 22.4146 39.5334C22.1851 39.7094 21.9925 39.929 21.8479 40.1795L17.3512 47.9699C17.2066 48.2203 17.1127 48.4967 17.075 48.7834C17.0372 49.0701 17.0564 49.3614 17.1312 49.6406C17.2061 49.9199 17.3353 50.1817 17.5114 50.4111C17.6874 50.6404 17.907 50.8328 18.1574 50.9773L19.8086 51.9304C19.2553 54.6461 19.2553 57.4455 19.8086 60.1612L18.1637 61.1106C17.6583 61.4029 17.2896 61.8837 17.1384 62.4475C16.9873 63.0114 17.066 63.6122 17.3574 64.118L21.8479 71.9084C22.1404 72.4135 22.6213 72.782 23.1852 72.9329C23.749 73.0838 24.3497 73.0049 24.8553 72.7134L26.5003 71.764C28.5828 73.5946 31.006 74.9963 33.6312 75.8888V77.7813C33.6322 78.3648 33.8644 78.9241 34.277 79.3367C34.6895 79.7492 35.2488 79.9814 35.8323 79.9824H44.8271C45.4108 79.9818 45.9704 79.7497 46.3832 79.3371C46.7961 78.9245 47.0285 78.365 47.0295 77.7813V75.8888C49.6514 74.9937 52.0709 73.5899 54.1492 71.7578L55.8053 72.7134C56.311 73.0049 56.9117 73.0838 57.4755 72.9329C58.0393 72.782 58.5202 72.4135 58.8127 71.9084L63.3107 64.118C63.6019 63.6122 63.6806 63.0117 63.5297 62.4479C63.3788 61.8842 63.0106 61.4033 62.5057 61.1106ZM62.0938 63.4162L57.597 71.2054C57.4914 71.3881 57.3175 71.5215 57.1136 71.5761C56.9096 71.6307 56.6924 71.6021 56.5096 71.4965L54.4117 70.2859C54.2819 70.2106 54.1314 70.1789 53.9822 70.1955C53.8331 70.2121 53.6932 70.276 53.583 70.3779C51.4465 72.3569 48.8963 73.8356 46.1174 74.7067C45.9736 74.7505 45.8475 74.8392 45.7579 74.96C45.6683 75.0807 45.6199 75.227 45.6197 75.3774V77.7813C45.6194 77.9924 45.5354 78.1948 45.3861 78.3441C45.2368 78.4933 45.0345 78.5773 44.8234 78.5777H35.8335C35.6225 78.577 35.4204 78.4929 35.2712 78.3437C35.122 78.1945 35.0379 77.9923 35.0372 77.7813V75.3774C35.037 75.227 34.9886 75.0807 34.899 74.96C34.8094 74.8392 34.6834 74.7505 34.5395 74.7067C31.7613 73.837 29.2113 72.3605 27.0739 70.3842C26.9639 70.2825 26.8243 70.2186 26.6755 70.2018C26.5266 70.185 26.3763 70.2162 26.2464 70.2908L24.1573 71.4965C24.0668 71.5489 23.9669 71.583 23.8632 71.5967C23.7595 71.6105 23.6542 71.6036 23.5532 71.5766C23.4521 71.5495 23.3575 71.5028 23.2745 71.4391C23.1916 71.3754 23.122 71.296 23.0698 71.2054L18.5718 63.4162C18.4664 63.2333 18.4378 63.0161 18.4921 62.8121C18.5464 62.6081 18.6793 62.4338 18.8617 62.3275L20.9483 61.1231C21.078 61.0481 21.1804 60.9337 21.2404 60.7965C21.3004 60.6592 21.3149 60.5064 21.2818 60.3603C20.6339 57.5206 20.6365 54.5712 21.2893 51.7326C21.3222 51.5863 21.3077 51.4333 21.2477 51.2959C21.1877 51.1585 21.0855 51.0438 20.9558 50.9686L18.8617 49.7604C18.6789 49.6545 18.5455 49.4805 18.4907 49.2764C18.4359 49.0724 18.4642 48.8549 18.5693 48.6717L23.0661 40.8776C23.1183 40.7869 23.1878 40.7075 23.2708 40.6438C23.3537 40.5801 23.4484 40.5334 23.5494 40.5064C23.6504 40.4793 23.7558 40.4725 23.8595 40.4862C23.9631 40.4999 24.0631 40.534 24.1536 40.5864L26.2514 41.7971C26.3812 41.8723 26.5318 41.904 26.6809 41.8875C26.8301 41.8709 26.97 41.8069 27.0801 41.705C29.2156 39.7291 31.7635 38.2522 34.5395 37.3812C34.6833 37.3373 34.8092 37.2485 34.8987 37.1278C34.9883 37.0071 35.0368 36.8608 35.0372 36.7105V34.3078C35.0375 34.0967 35.1215 33.8944 35.2708 33.7451C35.4201 33.5958 35.6224 33.5118 35.8335 33.5115H44.8271C45.0382 33.5118 45.2406 33.5958 45.3898 33.7451C45.5391 33.8944 45.6231 34.0967 45.6234 34.3078V36.7105C45.6238 36.8608 45.6723 37.0071 45.7619 37.1278C45.8515 37.2485 45.9774 37.3373 46.1211 37.3812C48.9016 38.2499 51.4539 39.7265 53.593 41.7038C53.7031 41.8057 53.8429 41.8698 53.992 41.8866C54.1411 41.9033 54.2917 41.872 54.4217 41.7971L56.5108 40.5914C56.6936 40.4859 56.9109 40.4572 57.1148 40.5118C57.3187 40.5664 57.4926 40.6998 57.5983 40.8825L62.0951 48.6717C62.2007 48.8547 62.2293 49.0721 62.1747 49.2763C62.1201 49.4804 61.9868 49.6545 61.8039 49.7604L59.7173 50.9648C59.5876 51.0398 59.4852 51.1542 59.4252 51.2914C59.3652 51.4287 59.3507 51.5815 59.3838 51.7276C60.0317 54.5673 60.0291 57.5168 59.3763 60.3553C59.343 60.5016 59.3573 60.6547 59.4174 60.7922C59.4774 60.9297 59.5799 61.0443 59.7098 61.1193L61.8039 62.3275C61.9866 62.4336 62.1197 62.6078 62.174 62.8119C62.2284 63.016 62.1995 63.2334 62.0938 63.4162Z" fill="white"/>
</mask>
<g mask="url(#mask0_1171_14099)">
<path d="M62.5057 61.1106L60.8545 60.1637C61.4082 57.4483 61.4103 54.6492 60.8608 51.9329L62.5057 50.9835C62.7568 50.8388 62.9768 50.646 63.1532 50.4161C63.3296 50.1862 63.4589 49.9237 63.5337 49.6438C63.6085 49.3638 63.6273 49.0719 63.589 48.7846C63.5508 48.4974 63.4562 48.2205 63.3107 47.9699L58.8139 40.1795C58.6694 39.9292 58.4769 39.7097 58.2475 39.5338C58.0181 39.3578 57.7563 39.2288 57.477 39.154C57.1977 39.0793 56.9065 39.0603 56.6198 39.0981C56.3332 39.1359 56.0569 39.2298 55.8065 39.3745L54.1604 40.3239C52.078 38.4938 49.6552 37.0922 47.0307 36.1991V34.3078C47.0301 33.7239 46.7978 33.1641 46.3849 32.7513C45.972 32.3384 45.4123 32.1061 44.8284 32.1055H35.8335C35.2498 32.1065 34.6904 32.3388 34.2778 32.7517C33.8652 33.1645 33.6331 33.7241 33.6324 34.3078V36.1991C31.0102 37.0944 28.5904 38.4982 26.5115 40.3301L24.8566 39.3745C24.6062 39.2296 24.3298 39.1356 24.043 39.0976C23.7563 39.0597 23.4648 39.0787 23.1854 39.1534C22.906 39.2282 22.6441 39.3573 22.4146 39.5334C22.1851 39.7094 21.9925 39.929 21.8479 40.1795L17.3512 47.9699C17.2066 48.2203 17.1127 48.4967 17.075 48.7834C17.0372 49.0701 17.0564 49.3614 17.1312 49.6406C17.2061 49.9199 17.3353 50.1817 17.5114 50.4111C17.6874 50.6404 17.907 50.8328 18.1574 50.9773L19.8086 51.9304C19.2553 54.6461 19.2553 57.4455 19.8086 60.1612L18.1637 61.1106C17.6583 61.4029 17.2896 61.8837 17.1384 62.4475C16.9873 63.0114 17.066 63.6122 17.3574 64.118L21.8479 71.9084C22.1404 72.4135 22.6213 72.782 23.1852 72.9329C23.749 73.0838 24.3497 73.0049 24.8553 72.7134L26.5003 71.764C28.5828 73.5946 31.006 74.9963 33.6312 75.8888V77.7813C33.6322 78.3648 33.8644 78.9241 34.277 79.3367C34.6895 79.7492 35.2488 79.9814 35.8323 79.9824H44.8271C45.4108 79.9818 45.9704 79.7497 46.3832 79.3371C46.7961 78.9245 47.0285 78.365 47.0295 77.7813V75.8888C49.6514 74.9937 52.0709 73.5899 54.1492 71.7578L55.8053 72.7134C56.311 73.0049 56.9117 73.0838 57.4755 72.9329C58.0393 72.782 58.5202 72.4135 58.8127 71.9084L63.3107 64.118C63.6019 63.6122 63.6806 63.0117 63.5297 62.4479C63.3788 61.8842 63.0106 61.4033 62.5057 61.1106ZM62.0938 63.4162L57.597 71.2054C57.4914 71.3881 57.3175 71.5215 57.1136 71.5761C56.9096 71.6307 56.6924 71.6021 56.5096 71.4965L54.4117 70.2859C54.2819 70.2106 54.1314 70.1789 53.9822 70.1955C53.8331 70.2121 53.6932 70.276 53.583 70.3779C51.4465 72.3569 48.8963 73.8356 46.1174 74.7067C45.9736 74.7505 45.8475 74.8392 45.7579 74.96C45.6683 75.0807 45.6199 75.227 45.6197 75.3774V77.7813C45.6194 77.9924 45.5354 78.1948 45.3861 78.3441C45.2368 78.4933 45.0345 78.5773 44.8234 78.5777H35.8335C35.6225 78.577 35.4204 78.4929 35.2712 78.3437C35.122 78.1945 35.0379 77.9923 35.0372 77.7813V75.3774C35.037 75.227 34.9886 75.0807 34.899 74.96C34.8094 74.8392 34.6834 74.7505 34.5395 74.7067C31.7613 73.837 29.2113 72.3605 27.0739 70.3842C26.9639 70.2825 26.8243 70.2186 26.6755 70.2018C26.5266 70.185 26.3763 70.2162 26.2464 70.2908L24.1573 71.4965C24.0668 71.5489 23.9669 71.583 23.8632 71.5967C23.7595 71.6105 23.6542 71.6036 23.5532 71.5766C23.4521 71.5495 23.3575 71.5028 23.2745 71.4391C23.1916 71.3754 23.122 71.296 23.0698 71.2054L18.5718 63.4162C18.4664 63.2333 18.4378 63.0161 18.4921 62.8121C18.5464 62.6081 18.6793 62.4338 18.8617 62.3275L20.9483 61.1231C21.078 61.0481 21.1804 60.9337 21.2404 60.7965C21.3004 60.6592 21.3149 60.5064 21.2818 60.3603C20.6339 57.5206 20.6365 54.5712 21.2893 51.7326C21.3222 51.5863 21.3077 51.4333 21.2477 51.2959C21.1877 51.1585 21.0855 51.0438 20.9558 50.9686L18.8617 49.7604C18.6789 49.6545 18.5455 49.4805 18.4907 49.2764C18.4359 49.0724 18.4642 48.8549 18.5693 48.6717L23.0661 40.8776C23.1183 40.7869 23.1878 40.7075 23.2708 40.6438C23.3537 40.5801 23.4484 40.5334 23.5494 40.5064C23.6504 40.4793 23.7558 40.4725 23.8595 40.4862C23.9631 40.4999 24.0631 40.534 24.1536 40.5864L26.2514 41.7971C26.3812 41.8723 26.5318 41.904 26.6809 41.8875C26.8301 41.8709 26.97 41.8069 27.0801 41.705C29.2156 39.7291 31.7635 38.2522 34.5395 37.3812C34.6833 37.3373 34.8092 37.2485 34.8987 37.1278C34.9883 37.0071 35.0368 36.8608 35.0372 36.7105V34.3078C35.0375 34.0967 35.1215 33.8944 35.2708 33.7451C35.4201 33.5958 35.6224 33.5118 35.8335 33.5115H44.8271C45.0382 33.5118 45.2406 33.5958 45.3898 33.7451C45.5391 33.8944 45.6231 34.0967 45.6234 34.3078V36.7105C45.6238 36.8608 45.6723 37.0071 45.7619 37.1278C45.8515 37.2485 45.9774 37.3373 46.1211 37.3812C48.9016 38.2499 51.4539 39.7265 53.593 41.7038C53.7031 41.8057 53.8429 41.8698 53.992 41.8866C54.1411 41.9033 54.2917 41.872 54.4217 41.7971L56.5108 40.5914C56.6936 40.4859 56.9109 40.4572 57.1148 40.5118C57.3187 40.5664 57.4926 40.6998 57.5983 40.8825L62.0951 48.6717C62.2007 48.8547 62.2293 49.0721 62.1747 49.2763C62.1201 49.4804 61.9868 49.6545 61.8039 49.7604L59.7173 50.9648C59.5876 51.0398 59.4852 51.1542 59.4252 51.2914C59.3652 51.4287 59.3507 51.5815 59.3838 51.7276C60.0317 54.5673 60.0291 57.5168 59.3763 60.3553C59.343 60.5016 59.3573 60.6547 59.4174 60.7922C59.4774 60.9297 59.5799 61.0443 59.7098 61.1193L61.8039 62.3275C61.9866 62.4336 62.1197 62.6078 62.174 62.8119C62.2284 63.016 62.1995 63.2334 62.0938 63.4162Z" stroke="url(#paint0_linear_1171_14099)" stroke-width="0.5" stroke-miterlimit="10"/>
</g>
<path d="M62.5057 61.1243L60.8545 60.1712C61.4082 57.4557 61.4103 54.6566 60.8608 51.9403L62.5057 50.991C63.0111 50.6987 63.3797 50.2178 63.5307 49.6539C63.6816 49.09 63.6025 48.4892 63.3107 47.9836L58.8139 40.1932C58.6697 39.9425 58.4774 39.7227 58.2482 39.5464C58.0189 39.3701 57.7571 39.2407 57.4779 39.1656C57.1986 39.0904 56.9072 39.0711 56.6204 39.1087C56.3336 39.1462 56.0571 39.2399 55.8065 39.3844L54.1604 40.3338C52.0783 38.5033 49.6555 37.1016 47.0307 36.2091V34.3215C47.0301 33.7376 46.7978 33.1778 46.3849 32.7649C45.972 32.352 45.4123 32.1198 44.8284 32.1191H35.8335C35.2498 32.1201 34.6904 32.3525 34.2778 32.7654C33.8652 33.1782 33.6331 33.7378 33.6324 34.3215V36.2128C31.0102 37.1081 28.5904 38.5119 26.5115 40.3438L24.8566 39.3844C24.606 39.2397 24.3293 39.1459 24.0424 39.1082C23.7555 39.0706 23.464 39.0898 23.1846 39.165C22.9051 39.2401 22.6432 39.3696 22.4139 39.546C22.1845 39.7224 21.9922 39.9424 21.8479 40.1932L17.3512 47.9836C17.2066 48.234 17.1127 48.5104 17.075 48.7971C17.0372 49.0837 17.0564 49.375 17.1312 49.6543C17.2061 49.9336 17.3353 50.1954 17.5114 50.4247C17.6874 50.6541 17.907 50.8465 18.1574 50.991L19.8086 51.9441C19.2553 54.6598 19.2553 57.4592 19.8086 60.1749L18.1637 61.1243C17.6583 61.4165 17.2896 61.8974 17.1384 62.4612C16.9873 63.025 17.066 63.6258 17.3574 64.1317L21.8479 71.922C22.1398 72.4281 22.6207 72.7976 23.1848 72.9493C23.749 73.1009 24.3503 73.0224 24.8566 72.7308L26.5015 71.7814C28.5841 73.612 31.0073 75.0137 33.6324 75.9062V77.7975C33.6331 78.3812 33.8652 78.9408 34.2778 79.3536C34.6904 79.7665 35.2498 79.9988 35.8335 79.9998H44.8284C45.4123 79.9992 45.972 79.7669 46.3849 79.3541C46.7978 78.9412 47.0301 78.3814 47.0307 77.7975V75.9062C49.6527 75.0111 52.0721 73.6073 54.1504 71.7752L55.8065 72.7308C56.3122 73.0223 56.9129 73.1012 57.4767 72.9503C58.0406 72.7994 58.5215 72.4309 58.8139 71.9258L63.312 64.1354C63.6042 63.6292 63.6834 63.0276 63.5322 62.4629C63.381 61.8983 63.0118 61.4168 62.5057 61.1243ZM62.0938 63.4299L57.597 71.219C57.4914 71.4018 57.3175 71.5351 57.1136 71.5897C56.9096 71.6443 56.6924 71.6157 56.5096 71.5102L54.4117 70.2995C54.2819 70.2242 54.1314 70.1926 53.9822 70.2091C53.8331 70.2257 53.6932 70.2897 53.583 70.3916C51.4462 72.3701 48.8961 73.8487 46.1174 74.7204C45.9736 74.7641 45.8475 74.8529 45.7579 74.9736C45.6683 75.0944 45.6199 75.2407 45.6197 75.3911V77.7938C45.6194 78.0048 45.5354 78.2072 45.3861 78.3565C45.2368 78.5057 45.0345 78.5897 44.8234 78.5901H35.8335C35.6224 78.5897 35.4201 78.5057 35.2708 78.3565C35.1215 78.2072 35.0375 78.0048 35.0372 77.7938V75.3911C35.037 75.2407 34.9886 75.0944 34.899 74.9736C34.8094 74.8529 34.6834 74.7641 34.5395 74.7204C31.7613 73.8507 29.2113 72.3742 27.0739 70.3978C26.9643 70.2954 26.8246 70.2311 26.6756 70.2143C26.5266 70.1975 26.3761 70.2291 26.2464 70.3045L24.1573 71.5102C23.9745 71.6157 23.7572 71.6443 23.5533 71.5897C23.3494 71.5351 23.1755 71.4018 23.0698 71.219L18.5718 63.4299C18.4664 63.247 18.4378 63.0297 18.4921 62.8257C18.5464 62.6217 18.6793 62.4475 18.8617 62.3412L20.9483 61.1367C21.078 61.0618 21.1804 60.9474 21.2404 60.8101C21.3004 60.6729 21.3149 60.5201 21.2818 60.374C20.6339 57.5343 20.6365 54.5848 21.2893 51.7462C21.3222 51.6 21.3077 51.447 21.2477 51.3096C21.1877 51.1722 21.0855 51.0575 20.9558 50.9823L18.8617 49.7741C18.6789 49.6681 18.5455 49.4941 18.4907 49.2901C18.4359 49.086 18.4642 48.8686 18.5693 48.6853L23.0673 40.8962C23.1195 40.8056 23.1891 40.7262 23.272 40.6625C23.355 40.5988 23.4497 40.5521 23.5507 40.525C23.6517 40.498 23.7571 40.4911 23.8607 40.5049C23.9644 40.5186 24.0643 40.5526 24.1548 40.6051L26.2527 41.8157C26.3825 41.891 26.533 41.9227 26.6822 41.9061C26.8313 41.8895 26.9712 41.8256 27.0813 41.7236C29.2159 39.7456 31.7634 38.2666 34.5395 37.3936C34.6833 37.3497 34.8092 37.2609 34.8987 37.1402C34.9883 37.0195 35.0368 36.8732 35.0372 36.7229V34.3215C35.0375 34.1104 35.1215 33.908 35.2708 33.7588C35.4201 33.6095 35.6224 33.5255 35.8335 33.5252H44.8271C45.0382 33.5255 45.2406 33.6095 45.3898 33.7588C45.5391 33.908 45.6231 34.1104 45.6234 34.3215V36.7242C45.6238 36.8745 45.6723 37.0207 45.7619 37.1414C45.8515 37.2621 45.9774 37.3509 46.1211 37.3948C48.9016 38.2636 51.4539 39.7401 53.593 41.7174C53.7031 41.8194 53.8429 41.8834 53.992 41.9002C54.1411 41.917 54.2917 41.8857 54.4217 41.8107L56.5108 40.6051C56.6936 40.4995 56.9109 40.4709 57.1148 40.5255C57.3187 40.5801 57.4926 40.7134 57.5983 40.8962L62.0951 48.6853C62.2007 48.8684 62.2293 49.0858 62.1747 49.2899C62.1201 49.4941 61.9868 49.6682 61.8039 49.7741L59.7173 50.9785C59.5876 51.0534 59.4852 51.1679 59.4252 51.3051C59.3652 51.4423 59.3507 51.5952 59.3838 51.7413C60.0317 54.581 60.0291 57.5304 59.3763 60.369C59.343 60.5153 59.3573 60.6684 59.4174 60.8059C59.4774 60.9434 59.5799 61.058 59.7098 61.133L61.8039 62.3412C61.9866 62.4473 62.1197 62.6215 62.174 62.8256C62.2284 63.0297 62.1995 63.247 62.0938 63.4299Z" fill="url(#paint1_linear_1171_14099)"/>
<path d="M40.7605 42.1133C37.903 42.1133 35.1098 42.9606 32.7339 44.5481C30.358 46.1356 28.5062 48.392 27.4127 51.0319C26.3192 53.6719 26.0331 56.5768 26.5906 59.3793C27.1481 62.1818 28.524 64.7561 30.5446 66.7766C32.5651 68.7972 35.1394 70.1731 37.9419 70.7306C40.7444 71.2881 43.6493 71.002 46.2893 69.9085C48.9292 68.815 51.1856 66.9632 52.7731 64.5873C54.3606 62.2115 55.2079 59.4182 55.2079 56.5607C55.2036 52.7304 53.68 49.0581 50.9716 46.3497C48.2631 43.6412 44.5908 42.1176 40.7605 42.1133ZM40.7605 69.5771C38.1861 69.5771 35.6695 68.8137 33.5289 67.3835C31.3884 65.9532 29.7201 63.9203 28.7349 61.5419C27.7497 59.1635 27.4919 56.5463 27.9942 54.0214C28.4964 51.4964 29.7361 49.1771 31.5565 47.3568C33.3769 45.5364 35.6962 44.2967 38.2211 43.7945C40.746 43.2922 43.3632 43.55 45.7416 44.5352C48.1201 45.5203 50.1529 47.1887 51.5832 49.3292C53.0135 51.4698 53.7769 53.9863 53.7769 56.5607C53.7732 60.0118 52.4006 63.3204 49.9604 65.7607C47.5201 68.2009 44.2115 69.5735 40.7605 69.5771Z" fill="url(#paint2_linear_1171_14099)"/>
<path d="M40.7643 69.7021C44.2479 69.6974 47.5875 68.3113 50.0506 65.8478C52.5136 63.3843 53.8991 60.0445 53.9031 56.5609C53.9031 53.9617 53.1323 51.4207 51.6882 49.2595C50.2441 47.0984 48.1916 45.414 45.7901 44.4194C43.3887 43.4249 40.7463 43.1648 38.197 43.672C35.6478 44.1793 33.3062 45.4312 31.4685 47.2693C29.6307 49.1074 28.3793 51.4492 27.8725 53.9986C27.3658 56.5479 27.6264 59.1903 28.6214 61.5915C29.6164 63.9927 31.3012 66.045 33.4626 67.4887C35.624 68.9323 38.1651 69.7026 40.7643 69.7021ZM32.8061 44.6502C35.1619 43.0769 37.9313 42.2376 40.7642 42.2383C44.5608 42.2436 48.2003 43.7544 50.8845 46.4394C53.5688 49.1243 55.0786 52.7643 55.0829 56.5609C55.0829 59.3937 54.2428 62.1629 52.6689 64.5183C51.095 66.8737 48.8579 68.7094 46.2406 69.7933C43.6233 70.8773 40.7433 71.1607 37.9649 70.6077C35.1865 70.0548 32.6345 68.6903 30.6316 66.6869C28.6287 64.6835 27.2649 62.1311 26.7127 59.3526C26.1605 56.5741 26.4447 53.6942 27.5293 51.0772C28.6139 48.4601 30.4503 46.2235 32.8061 44.6502Z" stroke="url(#paint3_linear_1171_14099)" stroke-width="0.25" stroke-miterlimit="10"/>
<path d="M42.9546 52.4821L42.9573 52.482C43.2838 52.4749 43.6084 52.533 43.9121 52.6529C44.2157 52.7729 44.4924 52.9523 44.7258 53.1806C44.9592 53.409 45.1447 53.6816 45.2713 53.9826C45.3979 54.2836 45.4631 54.6068 45.4631 54.9333C45.4631 55.2598 45.3979 55.5831 45.2713 55.884C45.1447 56.185 44.9592 56.4577 44.7258 56.686C44.4924 56.9143 44.2157 57.0938 43.9121 57.2137C43.6084 57.3337 43.2838 57.3918 42.9573 57.3846H42.9546H41.0347H40.9097V57.5096V59.0562C40.9097 59.2095 40.8488 59.3565 40.7404 59.4649C40.632 59.5733 40.485 59.6342 40.3317 59.6342C40.1784 59.6342 40.0314 59.5733 39.923 59.4649C39.8146 59.3565 39.7537 59.2095 39.7537 59.0562V53.059C39.754 52.9059 39.815 52.7592 39.9233 52.651C40.0317 52.5428 40.1786 52.4821 40.3317 52.4821H42.9546ZM42.9546 56.2298L42.9587 56.2297C43.2952 56.2188 43.6143 56.0774 43.8484 55.8355C44.0826 55.5935 44.2135 55.27 44.2135 54.9333C44.2135 54.5966 44.0826 54.2731 43.8484 54.0312C43.6143 53.7893 43.2952 53.6479 42.9587 53.6369L42.9546 53.6368H41.0347H40.9097V53.7618V56.1048V56.2298H41.0347H42.9546Z" fill="url(#paint4_linear_1171_14099)" stroke="url(#paint5_linear_1171_14099)" stroke-width="0.25"/>
<path d="M35.8335 52.4824C35.9511 52.4822 36.0661 52.518 36.1628 52.5849C36.2595 52.6518 36.3334 52.7466 36.3747 52.8567L38.6206 58.8565C38.6473 58.9274 38.6599 59.0033 38.6574 59.0791C38.6549 59.1549 38.6375 59.2294 38.6061 59.2985C38.5748 59.3675 38.5301 59.4297 38.4747 59.4815C38.4193 59.5333 38.3542 59.5736 38.2832 59.6002C38.2183 59.6249 38.1486 59.6376 38.0792 59.6371H38.078C37.9604 59.6373 37.8456 59.6015 37.7489 59.5346C37.6522 59.4677 37.5783 59.3729 37.537 59.2628L37.145 58.22L37.1146 58.139H37.028H33.8825H33.7958L33.7654 58.2201L33.3749 59.2625C33.3206 59.406 33.2115 59.5222 33.0716 59.5853C32.9317 59.6484 32.7725 59.6534 32.6289 59.5991C32.4854 59.5448 32.3692 59.4357 32.3061 59.2959C32.243 59.156 32.238 58.9967 32.2923 58.8532L34.5457 52.857C34.5873 52.747 34.6613 52.6522 34.758 52.5853C34.8547 52.5184 34.9695 52.4825 35.0871 52.4824H35.8335ZM34.298 56.8104L34.2349 56.9788L34.4147 56.9792L36.5064 56.9842L36.6872 56.9846L36.6237 56.8153L35.576 54.0231L35.4589 53.711L35.3419 54.0232L34.298 56.8104Z" fill="url(#paint6_linear_1171_14099)" stroke="url(#paint7_linear_1171_14099)" stroke-width="0.25"/>
<path d="M47.077 52.4824C47.2301 52.4824 47.377 52.5432 47.4854 52.6514C47.5937 52.7595 47.6547 52.9062 47.655 53.0593V59.0538C47.6482 59.2018 47.5847 59.3416 47.4777 59.4442C47.37 59.5474 47.2267 59.605 47.0776 59.605C46.9285 59.605 46.7852 59.5474 46.6776 59.4442C46.5706 59.3416 46.5071 59.2018 46.5002 59.0538V53.0593C46.5005 52.9064 46.5614 52.7598 46.6695 52.6517C46.7777 52.5436 46.9241 52.4827 47.077 52.4824ZM47.077 52.3574C47.2632 52.3574 47.4419 52.4313 47.5737 52.5629C47.7055 52.6945 47.7797 52.873 47.78 53.0592H46.3752C46.3756 52.8732 46.4496 52.6949 46.5812 52.5633C46.7127 52.4318 46.891 52.3578 47.077 52.3574Z" fill="url(#paint8_linear_1171_14099)"/>
<path d="M47.077 52.3574V52.4824M47.077 52.3574C47.2632 52.3574 47.4419 52.4313 47.5737 52.5629C47.7055 52.6945 47.7797 52.873 47.78 53.0592H46.3752C46.3756 52.8732 46.4496 52.6949 46.5812 52.5633C46.7127 52.4318 46.891 52.3578 47.077 52.3574ZM47.077 52.4824C47.2301 52.4824 47.377 52.5432 47.4854 52.6514C47.5937 52.7595 47.6547 52.9062 47.655 53.0593V59.0538C47.6482 59.2018 47.5847 59.3416 47.4777 59.4442C47.37 59.5474 47.2267 59.605 47.0776 59.605C46.9285 59.605 46.7852 59.5474 46.6776 59.4442C46.5706 59.3416 46.5071 59.2018 46.5002 59.0538V53.0593C46.5005 52.9064 46.5614 52.7598 46.6695 52.6517C46.7777 52.5436 46.9241 52.4827 47.077 52.4824Z" stroke="url(#paint9_linear_1171_14099)" stroke-width="0.25"/>
<path d="M45.3646 40.2996C45.8523 40.4551 46.3376 40.6355 46.8092 40.8359C46.8961 40.8731 46.9897 40.8921 47.0842 40.8918C47.2462 40.8917 47.4032 40.8356 47.5285 40.7329C47.6538 40.6302 47.7397 40.4873 47.7717 40.3284C47.8036 40.1696 47.7796 40.0046 47.7037 39.8614C47.6279 39.7183 47.5048 39.6058 47.3554 39.5431C46.844 39.3253 46.3165 39.1287 45.7876 38.9607C45.6983 38.9272 45.603 38.9123 45.5077 38.9168C45.4124 38.9213 45.319 38.9452 45.2332 38.9869C45.1474 39.0287 45.071 39.0875 45.0086 39.1598C44.9463 39.232 44.8993 39.3162 44.8706 39.4072C44.8418 39.4982 44.8319 39.5941 44.8414 39.6891C44.8509 39.784 44.8796 39.876 44.9259 39.9595C44.9721 40.043 45.0348 40.1162 45.1102 40.1747C45.1857 40.2331 45.2722 40.2756 45.3646 40.2996Z" fill="url(#paint10_linear_1171_14099)"/>
<path d="M25.6942 64.0246L25.6954 64.0268C25.9705 64.5207 26.2649 65.0095 26.5849 65.4763L26.5877 65.4802C26.6341 65.5426 26.6674 65.6137 26.6857 65.6893C26.7039 65.7648 26.7068 65.8433 26.694 65.92C26.6812 65.9967 26.6531 66.07 26.6113 66.1356C26.5696 66.2011 26.515 66.2576 26.4509 66.3016C26.3868 66.3456 26.3145 66.3762 26.2383 66.3916C26.1621 66.407 26.0836 66.4069 26.0074 66.3912C25.9313 66.3756 25.8591 66.3447 25.7951 66.3005C25.7312 66.2563 25.6768 66.1996 25.6353 66.1339L25.6327 66.13C25.2893 65.6294 24.9713 65.1118 24.6799 64.5792L24.6794 64.5781C24.642 64.5114 24.6183 64.438 24.6095 64.362C24.6008 64.2861 24.6072 64.2092 24.6283 64.1357C24.6495 64.0623 24.685 63.9937 24.7329 63.9341C24.7807 63.8745 24.8399 63.8249 24.907 63.7883C24.9741 63.7517 25.0478 63.7288 25.1238 63.7209C25.1998 63.713 25.2767 63.7202 25.3499 63.7422C25.4231 63.7642 25.4913 63.8004 25.5503 63.8489C25.6094 63.8974 25.6583 63.9571 25.6942 64.0246Z" fill="url(#paint11_linear_1171_14099)" stroke="url(#paint12_linear_1171_14099)" stroke-width="0.25"/>
<path d="M38.8943 72.5333C35.112 72.2014 31.5588 70.579 28.8307 67.9382C28.7652 67.8704 28.6867 67.8165 28.6 67.7796C28.5132 67.7427 28.4199 67.7237 28.3256 67.7236C28.2314 67.7236 28.1381 67.7424 28.0512 67.7792C27.9644 67.8159 27.8859 67.8697 27.8203 67.9374C27.7547 68.0051 27.7033 68.0853 27.6693 68.1732C27.6354 68.2611 27.6194 68.355 27.6224 68.4492C27.6255 68.5434 27.6474 68.6361 27.687 68.7217C27.7265 68.8072 27.7829 68.884 27.8527 68.9473C30.8126 71.8116 34.6669 73.5718 38.7699 73.9331H38.8309C39.0101 73.9301 39.1814 73.8588 39.3098 73.7337C39.4382 73.6086 39.514 73.4392 39.5216 73.2601C39.5292 73.081 39.4681 72.9058 39.3509 72.7702C39.2336 72.6346 39.0689 72.549 38.8906 72.5308L38.8943 72.5333Z" fill="url(#paint13_linear_1171_14099)"/>
<path d="M39.0191 72.5655C35.2363 72.234 31.6826 70.6115 28.9542 67.9704C28.8191 67.8479 28.6416 67.7826 28.4592 67.7884C28.2769 67.7943 28.104 67.8708 27.977 68.0018C27.85 68.1328 27.779 68.3081 27.7788 68.4905C27.7787 68.673 27.8494 68.8483 27.9762 68.9795C30.9364 71.8441 34.7912 73.6044 38.8947 73.9653C38.915 73.9666 38.9353 73.9666 38.9556 73.9653C39.1349 73.9624 39.3062 73.891 39.4346 73.7659C39.563 73.6408 39.6387 73.4714 39.6463 73.2923C39.654 73.1132 39.5929 72.938 39.4756 72.8024C39.3583 72.6669 39.1937 72.5812 39.0154 72.563L39.0191 72.5655Z" stroke="url(#paint14_linear_1171_14099)" stroke-width="0.25" stroke-miterlimit="10"/>
<path d="M50.4437 41.2349C50.2899 41.1364 50.1037 41.1017 49.9247 41.1381C49.7457 41.1745 49.5879 41.2792 49.4847 41.4299C49.3815 41.5807 49.3411 41.7656 49.3719 41.9457C49.4027 42.1257 49.5024 42.2867 49.6499 42.3945C52.9097 44.6185 55.2678 47.9338 56.2993 51.7427C56.3395 51.8919 56.4276 52.0236 56.5502 52.1176C56.6728 52.2117 56.8229 52.2627 56.9774 52.2628C57.0395 52.2629 57.1014 52.2549 57.1615 52.2392C57.3419 52.1908 57.4956 52.0728 57.5889 51.9111C57.6822 51.7494 57.7075 51.5573 57.6593 51.3769C56.5393 47.2445 53.9805 43.6479 50.4437 41.2349Z" fill="url(#paint15_linear_1171_14099)"/>
<path d="M45.4026 40.1624L45.3959 40.1605C45.32 40.1408 45.2488 40.1059 45.1868 40.0578C45.1248 40.0098 45.0732 39.9496 45.0352 39.8809C44.9972 39.8123 44.9736 39.7366 44.9658 39.6585C44.9579 39.5805 44.9661 39.5016 44.9898 39.4268C45.0134 39.352 45.052 39.2828 45.1033 39.2234C45.1545 39.164 45.2173 39.1156 45.2879 39.0813C45.3584 39.0469 45.4352 39.0273 45.5136 39.0236C45.592 39.0199 45.6703 39.0322 45.7438 39.0597L45.7495 39.0617C46.2748 39.2298 46.7987 39.4238 47.3065 39.64C47.429 39.6921 47.5297 39.7847 47.5918 39.9024C47.6538 40.02 47.6734 40.1555 47.6472 40.2859C47.621 40.4163 47.5506 40.5337 47.4479 40.6182C47.3454 40.7027 47.2168 40.7492 47.0839 40.75C47.0065 40.7498 46.9299 40.7339 46.8589 40.7031C46.3849 40.5012 45.894 40.3191 45.4026 40.1624Z" stroke="url(#paint16_linear_1171_14099)" stroke-width="0.25" stroke-miterlimit="10"/>
<path d="M49.7239 42.2751C53.0086 44.5155 55.3847 47.856 56.4235 51.694C56.4565 51.8167 56.5291 51.925 56.6298 52.0023C56.7305 52.0795 56.8538 52.1214 56.9806 52.1217C57.032 52.1213 57.0832 52.1144 57.1328 52.101C57.2062 52.0814 57.275 52.0476 57.3353 52.0014C57.3955 51.9552 57.4461 51.8976 57.4841 51.8318C57.5221 51.7661 57.5468 51.6935 57.5567 51.6182C57.5667 51.543 57.5617 51.4667 57.5421 51.3934C56.4308 47.289 53.8896 43.7167 50.3767 41.3206C50.314 41.2778 50.2435 41.2477 50.1692 41.2321C50.0949 41.2165 50.0183 41.2156 49.9436 41.2297C49.869 41.2437 49.7979 41.2722 49.7343 41.3137C49.6707 41.3553 49.6159 41.4089 49.5731 41.4715C49.5302 41.5342 49.5001 41.6047 49.4845 41.679C49.4689 41.7533 49.4681 41.83 49.4821 41.9046C49.4961 41.9792 49.5247 42.0504 49.5662 42.114C49.6077 42.1775 49.6612 42.2322 49.7239 42.2751ZM49.7239 42.2751L49.6534 42.3784" stroke="url(#paint17_linear_1171_14099)" stroke-width="0.25" stroke-miterlimit="10"/>
<path d="M14.0452 18.9044C18.478 18.9044 22.0725 18.5281 22.0725 18.0664C22.0725 17.6048 18.488 17.2285 14.0452 17.2285C9.60232 17.2285 6.01978 17.6048 6.01978 18.0664C6.01978 18.5281 9.61228 18.9044 14.0452 18.9044Z" fill="url(#paint18_radial_1171_14099)"/>
<path d="M14.9593 18.0626C14.9593 22.4922 14.5491 26.086 14.0413 26.086C13.5335 26.086 13.1252 22.4922 13.1252 18.0626C13.1252 13.633 13.5355 10.0332 14.0413 10.0332C14.5471 10.0332 14.9593 13.633 14.9593 18.0626Z" fill="url(#paint19_radial_1171_14099)"/>
<path d="M63.2068 63.0494C67.6397 63.0494 71.2341 62.6731 71.2341 62.2115C71.2341 61.7498 67.6496 61.3735 63.2068 61.3735C58.7639 61.3735 55.1814 61.7498 55.1814 62.2115C55.1814 62.6731 58.7739 63.0494 63.2068 63.0494Z" fill="url(#paint20_radial_1171_14099)"/>
<path d="M64.1207 62.2076C64.1207 66.6373 63.7105 70.231 63.2027 70.231C62.6949 70.231 62.2866 66.6373 62.2866 62.2076C62.2866 57.778 62.6969 54.1782 63.2027 54.1782C63.7085 54.1782 64.1207 57.778 64.1207 62.2076Z" fill="url(#paint21_radial_1171_14099)"/>
<path d="M9.58135 44.8367C9.88135 45.0367 10.0813 45.2367 10.1813 45.5367C10.3813 45.8367 10.4813 46.1367 10.4813 46.4367V47.3367C10.4813 47.6367 10.2813 47.9367 9.98135 48.1367C9.78135 48.3367 9.48135 48.5367 9.28135 48.7367C8.98135 48.7367 8.68135 48.9367 8.38135 49.0367H7.48135C7.18135 49.0367 6.88135 48.7367 6.68135 48.5367C5.58135 47.6367 4.68135 46.6367 3.78135 45.4367C1.58135 42.4367 0.481348 38.8367 0.381348 35.1367C0.381348 31.3367 1.58135 27.7367 3.98135 24.8367C4.78135 23.8367 5.78135 22.9367 6.78135 22.2367C8.08135 21.2367 9.58135 20.5367 11.0813 19.9367C12.2813 19.5367 13.4813 19.1367 14.6813 18.8367C16.0813 13.1367 19.1813 8.7367 23.0813 5.7367C26.6813 2.9367 31.0813 1.1367 35.6813 0.736698C40.2813 0.336698 44.8813 1.1367 49.0813 3.0367C53.8813 5.3367 57.8813 9.2367 60.1813 14.0367C61.1813 13.8367 62.2813 13.8367 63.2813 13.8367C67.6813 13.8367 71.8814 15.4367 75.1814 19.0367C75.8814 19.8367 76.5814 20.6367 77.1814 21.5367C79.2814 24.7367 80.3813 29.0367 80.2813 33.2367C80.2813 37.3367 79.0813 41.4367 76.8813 44.4367C76.6813 44.7367 76.4814 44.9367 76.1814 45.0367C75.8814 45.2367 75.5813 45.3367 75.2813 45.3367H74.3813C74.0813 45.3367 73.7813 45.1367 73.5813 44.9367C73.2813 44.7367 73.0813 44.5367 72.9813 44.2367C72.7813 43.9367 72.6814 43.6367 72.6814 43.3367V42.4367C72.6814 42.1367 72.8813 41.8367 73.0813 41.6367C74.6813 39.4367 75.4813 36.4367 75.5813 33.2367C75.5813 29.9367 74.7813 26.6367 73.2813 24.2367C72.8813 23.5367 72.3813 22.9367 71.7813 22.3367C70.6813 21.1367 69.3813 20.2367 67.9813 19.6367C66.4813 19.0367 64.9813 18.7367 63.3813 18.7367C61.0813 18.7367 58.7813 19.2367 56.5813 20.2367C56.0813 20.4367 55.5813 20.7367 55.0813 21.0367C53.5813 21.9367 52.0813 23.0367 50.6813 24.1367L47.4813 20.5367C48.5813 19.5367 49.7813 18.6367 50.9813 17.8367C51.9813 17.2367 52.9813 16.6367 54.0813 16.1367C54.4813 15.9367 54.9813 15.7367 55.3813 15.5367C53.4813 12.0367 50.4813 9.3367 46.8813 7.6367C43.4813 6.0367 39.7813 5.3367 35.9813 5.7367C32.2813 6.0367 28.7813 7.4367 25.7813 9.7367C22.3813 12.3367 19.7813 16.3367 18.7813 21.5367L18.4813 23.1367L16.8813 23.4367C15.3813 23.6367 13.9813 24.0367 12.5813 24.6367C11.4813 25.0367 10.3813 25.6367 9.38135 26.3367C8.68135 26.8367 7.98135 27.4367 7.38135 28.1367C5.68135 30.1367 4.88135 32.7367 4.88135 35.3367C4.88135 37.9367 5.28135 39.0367 6.08135 40.7367C6.88135 42.4367 7.98135 43.9367 9.48135 45.1367V44.8367H9.58135Z" fill="url(#paint22_linear_1171_14099)"/>
<path d="M38.1813 0.936523C41.8813 0.936523 45.5813 1.73652 48.9813 3.33652C53.7813 5.63652 57.6813 9.43652 59.9813 14.2365V14.4365H60.2813C61.2813 14.2365 62.1813 14.2365 63.1813 14.2365H63.3813C67.9813 14.2365 72.0813 16.0365 75.0813 19.3365C75.7813 20.1365 76.4813 20.9365 76.9813 21.8365C78.9813 24.9365 80.0813 29.1365 80.0813 33.3365C80.0813 37.5365 78.8814 41.5365 76.6814 44.4365C76.4814 44.6365 76.2813 44.8365 76.0813 45.0365C75.8813 45.0365 75.5813 45.2365 75.2813 45.3365H74.4813C74.1813 45.3365 73.9814 45.1365 73.6814 44.9365C73.4814 44.7365 73.2813 44.5365 73.0813 44.3365C73.0813 44.1365 72.8813 43.8365 72.7813 43.5365V42.7365C72.7813 42.4365 72.9814 42.2365 73.1814 41.9365C74.7814 39.8365 75.6814 36.8365 75.6814 33.4365C75.6814 30.0365 74.8813 26.6365 73.2813 24.2365C72.8813 23.5365 72.3813 22.9365 71.7813 22.3365C70.6813 21.1365 69.3813 20.2365 67.8813 19.5365C66.3813 18.9365 64.8813 18.5365 63.2813 18.5365C60.8813 18.5365 58.5813 19.0365 56.3813 20.0365C55.8813 20.3365 55.3813 20.5365 54.8813 20.8365C53.3813 21.7365 51.9813 22.7365 50.6813 23.8365L47.8813 20.6365C48.8813 19.7365 49.9813 18.8365 51.1813 18.0365C52.1813 17.4365 53.1813 16.8365 54.2813 16.3365C54.6813 16.1365 55.1813 15.9365 55.5813 15.7365H55.8813V15.3365C53.8813 11.8365 50.9813 9.03652 47.2813 7.33652C44.4813 6.03652 41.3813 5.33652 38.3813 5.33652C35.3813 5.33652 36.9813 5.33652 36.3813 5.33652C32.6813 5.63652 29.0813 7.03652 26.0813 9.33652C22.3813 12.2365 19.9813 16.3365 18.9813 21.3365L18.6813 22.8365L17.1813 23.1365C15.6813 23.3365 14.2813 23.7365 12.8813 24.3365C11.6813 24.7365 10.5813 25.3365 9.58135 26.1365C8.88135 26.6365 8.18135 27.3365 7.58135 28.0365C5.88135 30.1365 4.98135 32.7365 5.08135 35.4365C5.08135 37.3365 5.48135 39.2365 6.28135 40.9365C6.98135 42.4365 7.98135 43.8365 9.18135 44.9365L9.78135 45.3365C9.98135 45.5365 10.1813 45.7365 10.3813 46.0365C10.4813 46.3365 10.5813 46.5365 10.6813 46.8365V47.6365C10.6813 47.9365 10.4813 48.1365 10.2813 48.3365C10.0813 48.5365 9.88135 48.7365 9.58135 48.8365C9.28135 48.9365 9.08135 49.0365 8.78135 49.0365H7.88135C7.58135 49.0365 7.38135 48.8365 7.18135 48.6365C6.08135 47.7365 5.18135 46.7365 4.38135 45.6365C2.28135 42.6365 1.08135 39.1365 1.08135 35.4365C1.08135 31.7365 2.28135 28.1365 4.58135 25.2365C5.38135 24.2365 6.28135 23.4365 7.38135 22.6365C8.68135 21.7365 10.1813 20.9365 11.6813 20.3365C12.8813 19.9365 13.9813 19.5365 15.1813 19.2365H15.2813V19.0365C16.5813 13.7365 19.4813 9.23652 23.5813 6.03652C26.9813 3.23652 31.3813 1.53652 35.8813 1.13652H38.2813M38.1813 0.536523C37.2813 0.536523 36.4813 0.536523 35.6813 0.636523C31.0813 1.03652 26.6813 2.73652 23.0813 5.53652C19.1813 8.53652 16.0813 12.9365 14.6813 18.6365C13.4813 18.9365 12.2813 19.2365 11.0813 19.7365C9.58135 20.3365 8.08135 21.1365 6.78135 22.0365C5.78135 22.8365 4.78135 23.6365 3.98135 24.6365C1.58135 27.5365 0.281347 31.2365 0.381347 34.9365C0.381347 38.6365 1.58135 42.2365 3.78135 45.2365C4.58135 46.3365 5.58135 47.4365 6.68135 48.3365C6.88135 48.5365 7.18135 48.7365 7.48135 48.8365H8.28135C8.58135 48.8365 8.38135 48.8365 8.48135 48.8365C8.78135 48.8365 9.08135 48.8365 9.38135 48.5365C9.68135 48.5365 9.88135 48.2365 10.0813 47.9365C10.2813 47.7365 10.4813 47.4365 10.5813 47.1365C10.5813 46.8365 10.6813 46.5365 10.5813 46.2365C10.5813 45.9365 10.4813 45.6365 10.2813 45.3365C10.0813 45.0365 9.88135 44.8365 9.68135 44.6365C8.28135 43.4365 7.08135 41.9365 6.28135 40.2365C5.48135 38.5365 5.08135 36.7365 5.08135 34.8365C5.08135 32.9365 5.88135 29.6365 7.58135 27.6365C8.18135 26.9365 8.78135 26.3365 9.58135 25.8365C10.5813 25.1365 11.6813 24.5365 12.7813 24.1365C14.1813 23.6365 15.5813 23.2365 17.0813 22.9365L18.6813 22.6365L18.9813 21.0365C19.9813 15.8365 22.5813 11.8365 25.9813 9.23652C28.8813 6.93652 32.4813 5.63652 36.1813 5.23652H38.1813C41.1813 5.23652 44.2813 5.93652 46.9813 7.23652C50.5813 8.93652 53.4813 11.7365 55.4813 15.1365C55.0813 15.3365 54.5813 15.5365 54.1813 15.7365C53.0813 16.2365 52.0813 16.8365 51.0813 17.4365C49.8813 18.2365 48.6813 19.1365 47.5813 20.1365L50.7813 23.7365C52.1813 22.6365 53.5813 21.5365 55.1813 20.6365C55.6813 20.3365 56.1813 20.1365 56.6813 19.8365C58.7813 18.8365 61.0813 18.3365 63.4813 18.3365C64.9813 18.3365 66.5813 18.6365 67.9813 19.2365C69.4813 19.8365 70.7813 20.8365 71.7813 21.9365C72.2813 22.5365 72.7813 23.1365 73.2813 23.8365C74.8813 26.2365 75.6813 29.5365 75.5813 32.8365C75.5813 35.9365 74.7813 39.0365 73.0813 41.2365C72.8813 41.5365 72.7814 41.7365 72.6814 42.0365V42.9365C72.6814 43.2365 72.6813 43.5365 72.9813 43.8365C73.1813 44.1365 73.3813 44.3365 73.5813 44.5365C73.8813 44.7365 74.0813 44.8365 74.3813 44.9365H75.2813C75.5813 44.9365 75.8814 44.9365 76.1814 44.6365C76.4814 44.3365 76.6813 44.2365 76.8813 44.0365C79.1813 41.0365 80.2813 36.9365 80.2813 32.8365C80.2813 28.7365 79.2814 24.3365 77.1814 21.1365C76.5814 20.2365 75.9814 19.3365 75.1814 18.6365C71.8814 15.0365 67.6813 13.5365 63.2813 13.4365H63.0813C62.0813 13.4365 61.0813 13.4365 60.1813 13.6365C57.7813 8.83652 53.8813 4.93652 49.0813 2.63652C45.4813 1.23652 41.7813 0.436523 38.0813 0.436523L38.1813 0.536523Z" fill="url(#paint23_linear_1171_14099)"/>
<defs>
<linearGradient id="paint0_linear_1171_14099" x1="28.6942" y1="41.5811" x2="60.4967" y2="69.1215" gradientUnits="userSpaceOnUse">
<stop stop-color="#F0EFEF" stop-opacity="0"/>
<stop offset="0.614562" stop-color="#FAFBFC" stop-opacity="0.4"/>
<stop offset="0.848709" stop-color="white" stop-opacity="0.5"/>
<stop offset="1" stop-color="white" stop-opacity="0.9"/>
</linearGradient>
<linearGradient id="paint1_linear_1171_14099" x1="57.5871" y1="66.3651" x2="13.0784" y2="39.7751" gradientUnits="userSpaceOnUse">
<stop stop-color="white" stop-opacity="0.9"/>
<stop offset="0.28" stop-color="white" stop-opacity="0.5"/>
<stop offset="0.65" stop-color="#FAFBFC" stop-opacity="0.4"/>
<stop offset="1" stop-color="#F0EFEF" stop-opacity="0.3"/>
</linearGradient>
<linearGradient id="paint2_linear_1171_14099" x1="50.6184" y1="66.1337" x2="30.5226" y2="46.6192" gradientUnits="userSpaceOnUse">
<stop stop-color="white" stop-opacity="0.9"/>
<stop offset="0.04" stop-color="white" stop-opacity="0.85"/>
<stop offset="0.28" stop-color="white" stop-opacity="0.5"/>
<stop offset="0.65" stop-color="#FAFBFC" stop-opacity="0.4"/>
<stop offset="1" stop-color="#F0EFEF" stop-opacity="0.3"/>
</linearGradient>
<linearGradient id="paint3_linear_1171_14099" x1="33.5367" y1="47.8321" x2="52.8" y2="64.9884" gradientUnits="userSpaceOnUse">
<stop stop-color="#F0EFEF" stop-opacity="0"/>
<stop offset="0.614562" stop-color="#FAFBFC" stop-opacity="0.4"/>
<stop offset="0.848709" stop-color="white" stop-opacity="0.5"/>
<stop offset="1" stop-color="white" stop-opacity="0.9"/>
</linearGradient>
<linearGradient id="paint4_linear_1171_14099" x1="42.5801" y1="59.758" x2="42.5801" y2="52.3571" gradientUnits="userSpaceOnUse">
<stop stop-color="#79A540"/>
<stop offset="0.2" stop-color="#94C63D"/>
<stop offset="0.39" stop-color="#98CA3C"/>
<stop offset="0.59" stop-color="#93C53E"/>
<stop offset="0.74" stop-color="#9DCB3B"/>
<stop offset="0.9" stop-color="#A6CE39"/>
<stop offset="1" stop-color="#A6CE39"/>
</linearGradient>
<linearGradient id="paint5_linear_1171_14099" x1="44.6012" y1="58.6854" x2="41.1502" y2="54.566" gradientUnits="userSpaceOnUse">
<stop stop-color="white" stop-opacity="0.9"/>
<stop offset="0.28" stop-color="white" stop-opacity="0.5"/>
<stop offset="0.65" stop-color="#FAFBFC" stop-opacity="0.4"/>
<stop offset="1" stop-color="#F0EFEF" stop-opacity="0"/>
</linearGradient>
<linearGradient id="paint6_linear_1171_14099" x1="35.459" y1="59.7596" x2="35.459" y2="52.3574" gradientUnits="userSpaceOnUse">
<stop stop-color="#79A540"/>
<stop offset="0.2" stop-color="#94C63D"/>
<stop offset="0.39" stop-color="#98CA3C"/>
<stop offset="0.59" stop-color="#93C53E"/>
<stop offset="0.74" stop-color="#9DCB3B"/>
<stop offset="0.9" stop-color="#A6CE39"/>
<stop offset="1" stop-color="#A6CE39"/>
</linearGradient>
<linearGradient id="paint7_linear_1171_14099" x1="37.681" y1="58.688" x2="34.3143" y2="54.2028" gradientUnits="userSpaceOnUse">
<stop stop-color="white" stop-opacity="0.9"/>
<stop offset="0.28" stop-color="white" stop-opacity="0.5"/>
<stop offset="0.65" stop-color="#FAFBFC" stop-opacity="0.4"/>
<stop offset="1" stop-color="#F0EFEF" stop-opacity="0"/>
</linearGradient>
<linearGradient id="paint8_linear_1171_14099" x1="47.077" y1="59.7583" x2="47.077" y2="52.3574" gradientUnits="userSpaceOnUse">
<stop stop-color="#79A540"/>
<stop offset="0.2" stop-color="#94C63D"/>
<stop offset="0.39" stop-color="#98CA3C"/>
<stop offset="0.59" stop-color="#93C53E"/>
<stop offset="0.74" stop-color="#9DCB3B"/>
<stop offset="0.9" stop-color="#A6CE39"/>
<stop offset="1" stop-color="#A6CE39"/>
</linearGradient>
<linearGradient id="paint9_linear_1171_14099" x1="47.5474" y1="58.6605" x2="45.7206" y2="58.1444" gradientUnits="userSpaceOnUse">
<stop stop-color="white" stop-opacity="0.9"/>
<stop offset="0.28" stop-color="white" stop-opacity="0.5"/>
<stop offset="0.65" stop-color="#FAFBFC" stop-opacity="0.4"/>
<stop offset="1" stop-color="#F0EFEF" stop-opacity="0"/>
</linearGradient>
<linearGradient id="paint10_linear_1171_14099" x1="44.8681" y1="39.9089" x2="47.781" y2="39.9089" gradientUnits="userSpaceOnUse">
<stop stop-color="white" stop-opacity="0.9"/>
<stop offset="0.04" stop-color="white" stop-opacity="0.85"/>
<stop offset="0.28" stop-color="white" stop-opacity="0.5"/>
<stop offset="0.65" stop-color="#FAFBFC" stop-opacity="0.4"/>
<stop offset="1" stop-color="#F0EFEF" stop-opacity="0.3"/>
</linearGradient>
<linearGradient id="paint11_linear_1171_14099" x1="24.4844" y1="65.0523" x2="26.8124" y2="65.0523" gradientUnits="userSpaceOnUse">
<stop stop-color="white" stop-opacity="0.9"/>
<stop offset="0.04" stop-color="white" stop-opacity="0.85"/>
<stop offset="0.28" stop-color="white" stop-opacity="0.5"/>
<stop offset="0.65" stop-color="#FAFBFC" stop-opacity="0.4"/>
<stop offset="1" stop-color="#F0EFEF" stop-opacity="0.3"/>
</linearGradient>
<linearGradient id="paint12_linear_1171_14099" x1="25.8468" y1="65.1267" x2="26.759" y2="65.7204" gradientUnits="userSpaceOnUse">
<stop stop-color="#F0EFEF" stop-opacity="0"/>
<stop offset="0.614562" stop-color="#FAFBFC" stop-opacity="0.4"/>
<stop offset="0.848709" stop-color="white" stop-opacity="0.5"/>
<stop offset="1" stop-color="white" stop-opacity="0.9"/>
</linearGradient>
<linearGradient id="paint13_linear_1171_14099" x1="27.6362" y1="70.8373" x2="39.5351" y2="70.8373" gradientUnits="userSpaceOnUse">
<stop stop-color="white" stop-opacity="0.9"/>
<stop offset="0.04" stop-color="white" stop-opacity="0.85"/>
<stop offset="0.28" stop-color="white" stop-opacity="0.5"/>
<stop offset="0.65" stop-color="#FAFBFC" stop-opacity="0.4"/>
<stop offset="1" stop-color="#F0EFEF" stop-opacity="0.3"/>
</linearGradient>
<linearGradient id="paint14_linear_1171_14099" x1="30.7458" y1="69.0109" x2="34.3587" y2="75.192" gradientUnits="userSpaceOnUse">
<stop stop-color="#F0EFEF" stop-opacity="0"/>
<stop offset="0.614562" stop-color="#FAFBFC" stop-opacity="0.4"/>
<stop offset="0.848709" stop-color="white" stop-opacity="0.5"/>
<stop offset="1" stop-color="white" stop-opacity="0.9"/>
</linearGradient>
<linearGradient id="paint15_linear_1171_14099" x1="49.3438" y1="46.6873" x2="57.6804" y2="46.6873" gradientUnits="userSpaceOnUse">
<stop stop-color="white" stop-opacity="0.9"/>
<stop offset="0.04" stop-color="white" stop-opacity="0.85"/>
<stop offset="0.28" stop-color="white" stop-opacity="0.5"/>
<stop offset="0.65" stop-color="#FAFBFC" stop-opacity="0.4"/>
<stop offset="1" stop-color="#F0EFEF" stop-opacity="0.3"/>
</linearGradient>
<linearGradient id="paint16_linear_1171_14099" x1="46.553" y1="39.9311" x2="47.2127" y2="40.7314" gradientUnits="userSpaceOnUse">
<stop stop-color="#F0EFEF" stop-opacity="0"/>
<stop offset="0.614562" stop-color="#FAFBFC" stop-opacity="0.4"/>
<stop offset="0.848709" stop-color="white" stop-opacity="0.5"/>
<stop offset="1" stop-color="white" stop-opacity="0.9"/>
</linearGradient>
<linearGradient id="paint17_linear_1171_14099" x1="51.4321" y1="43.3019" x2="58.3383" y2="47.9016" gradientUnits="userSpaceOnUse">
<stop stop-color="#F0EFEF" stop-opacity="0"/>
<stop offset="0.614562" stop-color="#FAFBFC" stop-opacity="0.4"/>
<stop offset="0.848709" stop-color="white" stop-opacity="0.5"/>
<stop offset="1" stop-color="white" stop-opacity="0.9"/>
</linearGradient>
<radialGradient id="paint18_radial_1171_14099" cx="0" cy="0" r="1" gradientUnits="userSpaceOnUse" gradientTransform="translate(13.2607 18.3394) rotate(90) scale(0.831742 8.0253)">
<stop stop-color="white"/>
<stop offset="0.07" stop-color="white" stop-opacity="0.93"/>
<stop offset="1" stop-color="white" stop-opacity="0"/>
</radialGradient>
<radialGradient id="paint19_radial_1171_14099" cx="0" cy="0" r="1" gradientUnits="userSpaceOnUse" gradientTransform="translate(14.0571 18.4388) scale(0.918358 8.04167)">
<stop stop-color="white"/>
<stop offset="0.07" stop-color="white" stop-opacity="0.93"/>
<stop offset="1" stop-color="white" stop-opacity="0"/>
</radialGradient>
<radialGradient id="paint20_radial_1171_14099" cx="0" cy="0" r="1" gradientUnits="userSpaceOnUse" gradientTransform="translate(62.4223 62.4844) rotate(90) scale(0.831742 8.0253)">
<stop stop-color="white"/>
<stop offset="0.07" stop-color="white" stop-opacity="0.93"/>
<stop offset="1" stop-color="white" stop-opacity="0"/>
</radialGradient>
<radialGradient id="paint21_radial_1171_14099" cx="0" cy="0" r="1" gradientUnits="userSpaceOnUse" gradientTransform="translate(63.2184 62.5838) scale(0.918357 8.04167)">
<stop stop-color="white"/>
<stop offset="0.07" stop-color="white" stop-opacity="0.93"/>
<stop offset="1" stop-color="white" stop-opacity="0"/>
</radialGradient>
<linearGradient id="paint22_linear_1171_14099" x1="53.9814" y1="56.8367" x2="17.2814" y2="-6.7633" gradientUnits="userSpaceOnUse">
<stop stop-color="white" stop-opacity="0.9"/>
<stop offset="0.3" stop-color="white" stop-opacity="0.5"/>
<stop offset="0.7" stop-color="#FAFBFC" stop-opacity="0.4"/>
<stop offset="1" stop-color="#F0EFEF" stop-opacity="0"/>
</linearGradient>
<linearGradient id="paint23_linear_1171_14099" x1="0.281347" y1="24.7365" x2="80.2813" y2="24.7365" gradientUnits="userSpaceOnUse">
<stop stop-color="#F0EFEF" stop-opacity="0"/>
<stop offset="0.6" stop-color="#FAFBFC" stop-opacity="0.4"/>
<stop offset="0.8" stop-color="white" stop-opacity="0.5"/>
<stop offset="1" stop-color="white" stop-opacity="0.9"/>
</linearGradient>
</defs>
</svg>
