<svg width="80" height="80" viewBox="0 0 80 80" fill="none" xmlns="http://www.w3.org/2000/svg">
<path d="M73.4028 68.68V68.555H73.2778H47.9101C47.5374 68.555 47.2351 68.2527 47.2351 67.88C47.2351 67.5074 47.5374 67.205 47.9101 67.205H74.0778C74.4504 67.205 74.7528 67.5074 74.7528 67.88V69.3853C74.7528 72.388 72.5511 74.8082 69.8715 74.8082H10.1413C7.45413 74.8082 5.24756 72.3877 5.24756 69.3853V67.88C5.24756 67.5074 5.54993 67.205 5.92256 67.205H32.0913C32.4639 67.205 32.7663 67.5074 32.7663 67.88C32.7663 68.2527 32.4639 68.555 32.0913 68.555H6.72256H6.59756V68.68V69.3853C6.59756 71.6139 8.17057 73.4582 10.1413 73.4582H69.8715C71.8354 73.4582 73.4028 71.6134 73.4028 69.3853V68.68ZM69.8476 63.9707C69.8476 64.3433 69.5452 64.6457 69.1726 64.6457C68.7999 64.6457 68.4976 64.3433 68.4976 63.9707V30.7863C68.4976 29.6649 67.5914 28.7509 66.4746 28.7509H53.8444C53.4718 28.7509 53.1694 28.4485 53.1694 28.0759C53.1694 27.7032 53.4718 27.4009 53.8444 27.4009H66.4746C68.3343 27.4009 69.8476 28.9195 69.8476 30.7863V63.9707ZM9.09756 63.9707V30.7863C9.09756 28.9199 10.6166 27.4009 12.483 27.4009H26.4163C26.7889 27.4009 27.0913 27.7032 27.0913 28.0759C27.0913 28.4485 26.7889 28.7509 26.4163 28.7509H12.483C11.3608 28.7509 10.4476 29.6641 10.4476 30.7863V63.9707C10.4476 64.3433 10.1452 64.6457 9.77256 64.6457C9.39993 64.6457 9.09756 64.3433 9.09756 63.9707ZM35.3955 69.8248C35.3955 69.4522 35.6978 69.1498 36.0705 69.1498H43.9299C44.3025 69.1498 44.6049 69.4522 44.6049 69.8248C44.6049 70.1975 44.3025 70.4998 43.9299 70.4998H36.0705C35.6978 70.4998 35.3955 70.1975 35.3955 69.8248Z" fill="url(#paint0_linear_903_5986)" stroke="url(#paint1_linear_903_5986)" stroke-width="0.25"/>
<path d="M56.7831 57.5806C56.7831 58.0222 56.4247 58.3806 55.9831 58.3806C55.5414 58.3806 55.1831 58.0222 55.1831 57.5806V48.6816H52.032V57.5806C52.032 58.0222 51.6737 58.3806 51.232 58.3806C50.7903 58.3806 50.432 58.0222 50.432 57.5806V47.8816C50.432 47.44 50.7903 47.0816 51.232 47.0816H55.9831C56.4247 47.0816 56.7831 47.44 56.7831 47.8816V57.5806Z" fill="url(#paint2_linear_903_5986)"/>
<path d="M47.7831 57.5806C47.7831 58.0222 47.4247 58.3806 46.9831 58.3806C46.5414 58.3806 46.1831 58.0222 46.1831 57.5806V53.2306H43.032V57.5806C43.032 58.0222 42.6737 58.3806 42.232 58.3806C41.7903 58.3806 41.432 58.0222 41.432 57.5806V52.4306C41.432 51.9889 41.7903 51.6306 42.232 51.6306H46.9831C47.4247 51.6306 47.7831 51.9889 47.7831 52.4306V57.5806Z" fill="url(#paint3_linear_903_5986)"/>
<path d="M39.0664 57.5806C39.0664 58.0222 38.7081 58.3806 38.2664 58.3806C37.8247 58.3806 37.4664 58.0222 37.4664 57.5806V50.6712H34.3153V57.5806C34.3153 58.0222 33.957 58.3806 33.5153 58.3806C33.0737 58.3806 32.7153 58.0222 32.7153 57.5806V49.8712C32.7153 49.4295 33.0737 49.0712 33.5153 49.0712H38.2664C38.7081 49.0712 39.0664 49.4295 39.0664 49.8712V57.5806Z" fill="url(#paint4_linear_903_5986)"/>
<path d="M30.3497 57.5806C30.3497 58.0222 29.9914 58.3806 29.5497 58.3806C29.1081 58.3806 28.7497 58.0222 28.7497 57.5806V54.3816H25.5997V57.5806C25.5997 58.0222 25.2414 58.3806 24.7997 58.3806C24.3581 58.3806 23.9997 58.0222 23.9997 57.5806V53.5816C23.9997 53.14 24.3581 52.7816 24.7997 52.7816H29.5497C29.9914 52.7816 30.3497 53.14 30.3497 53.5816V57.5806Z" fill="url(#paint5_linear_903_5986)"/>
<path d="M58.1768 60.417C58.6185 60.417 58.9768 60.7754 58.9768 61.217C58.9768 61.6587 58.6185 62.017 58.1768 62.017H21.8237C21.382 62.017 21.0237 61.6587 21.0237 61.217C21.0237 60.7754 21.382 60.417 21.8237 60.417H58.1768Z" fill="url(#paint6_linear_903_5986)"/>
<path d="M50.6706 34.6764L53.9185 34.5889C54.3653 34.5706 54.8009 35.029 54.732 35.5035L54.2654 38.7191C54.2046 39.142 53.816 39.4579 53.3591 39.3962C52.9216 39.3327 52.6185 38.9264 52.682 38.49L52.8301 37.4694L41.8403 46.5847C41.5643 46.815 41.1695 46.8306 40.8726 46.6254L34.4508 42.1577L25.6758 50.4368C25.3574 50.738 24.8493 50.7264 24.5445 50.4035C24.2414 50.0827 24.256 49.5754 24.5778 49.2722L33.8258 40.5472C34.1028 40.2889 34.5206 40.2556 34.832 40.4733L41.2872 44.965L51.7983 36.2471L50.7143 36.2764H50.6924C50.2601 36.2764 49.9049 35.9327 49.8924 35.4983C49.881 35.0566 50.2289 34.6889 50.6706 34.6764Z" fill="url(#paint7_linear_903_5986)"/>
<path d="M56.7831 57.5806C56.7831 58.0222 56.4247 58.3806 55.9831 58.3806C55.5414 58.3806 55.1831 58.0222 55.1831 57.5806V48.6816H52.032V57.5806C52.032 58.0222 51.6737 58.3806 51.232 58.3806C50.7903 58.3806 50.432 58.0222 50.432 57.5806V47.8816C50.432 47.44 50.7903 47.0816 51.232 47.0816H55.9831C56.4247 47.0816 56.7831 47.44 56.7831 47.8816V57.5806Z" stroke="url(#paint8_linear_903_5986)" stroke-width="0.25" stroke-miterlimit="10"/>
<path d="M47.7831 57.5806C47.7831 58.0222 47.4247 58.3806 46.9831 58.3806C46.5414 58.3806 46.1831 58.0222 46.1831 57.5806V53.2306H43.032V57.5806C43.032 58.0222 42.6737 58.3806 42.232 58.3806C41.7903 58.3806 41.432 58.0222 41.432 57.5806V52.4306C41.432 51.9889 41.7903 51.6306 42.232 51.6306H46.9831C47.4247 51.6306 47.7831 51.9889 47.7831 52.4306V57.5806Z" stroke="url(#paint9_linear_903_5986)" stroke-width="0.25" stroke-miterlimit="10"/>
<path d="M39.0664 57.5806C39.0664 58.0222 38.7081 58.3806 38.2664 58.3806C37.8247 58.3806 37.4664 58.0222 37.4664 57.5806V50.6712H34.3153V57.5806C34.3153 58.0222 33.957 58.3806 33.5153 58.3806C33.0737 58.3806 32.7153 58.0222 32.7153 57.5806V49.8712C32.7153 49.4295 33.0737 49.0712 33.5153 49.0712H38.2664C38.7081 49.0712 39.0664 49.4295 39.0664 49.8712V57.5806Z" stroke="url(#paint10_linear_903_5986)" stroke-width="0.25" stroke-miterlimit="10"/>
<path d="M30.3497 57.5806C30.3497 58.0222 29.9914 58.3806 29.5497 58.3806C29.1081 58.3806 28.7497 58.0222 28.7497 57.5806V54.3816H25.5997V57.5806C25.5997 58.0222 25.2414 58.3806 24.7997 58.3806C24.3581 58.3806 23.9997 58.0222 23.9997 57.5806V53.5816C23.9997 53.14 24.3581 52.7816 24.7997 52.7816H29.5497C29.9914 52.7816 30.3497 53.14 30.3497 53.5816V57.5806Z" stroke="url(#paint11_linear_903_5986)" stroke-width="0.25" stroke-miterlimit="10"/>
<path d="M58.1768 60.417C58.6185 60.417 58.9768 60.7754 58.9768 61.217C58.9768 61.6587 58.6185 62.017 58.1768 62.017H21.8237C21.382 62.017 21.0237 61.6587 21.0237 61.217C21.0237 60.7754 21.382 60.417 21.8237 60.417H58.1768Z" stroke="url(#paint12_linear_903_5986)" stroke-width="0.25" stroke-miterlimit="10"/>
<path d="M50.6706 34.6764L53.9185 34.5889C54.3653 34.5706 54.8009 35.029 54.732 35.5035L54.2654 38.7191C54.2046 39.142 53.816 39.4579 53.3591 39.3962C52.9216 39.3327 52.6185 38.9264 52.682 38.49L52.8301 37.4694L41.8403 46.5847C41.5643 46.815 41.1695 46.8306 40.8726 46.6254L34.4508 42.1577L25.6758 50.4368C25.3574 50.738 24.8493 50.7264 24.5445 50.4035C24.2414 50.0827 24.256 49.5754 24.5778 49.2722L33.8258 40.5472C34.1028 40.2889 34.5206 40.2556 34.832 40.4733L41.2872 44.965L51.7983 36.2471L50.7143 36.2764H50.6924C50.2601 36.2764 49.9049 35.9327 49.8924 35.4983C49.881 35.0566 50.2289 34.6889 50.6706 34.6764Z" stroke="url(#paint13_linear_903_5986)" stroke-width="0.25" stroke-miterlimit="10"/>
<path d="M44.2093 24.1913H44.3036L44.3224 24.1258C44.4577 24.1455 44.584 24.2084 44.6818 24.3062C44.8017 24.4261 44.869 24.5886 44.869 24.7581C44.869 24.9275 44.8017 25.0901 44.6818 25.2099C44.562 25.3298 44.3995 25.3971 44.23 25.3971H42.702H42.5884L42.5775 25.5102C42.4802 26.5261 42.0073 27.4692 41.2512 28.1548C40.4952 28.8404 39.5105 29.2192 38.4899 29.2171H38.4896H37.4572H37.19L37.3613 29.4222L40.8096 33.552L40.8095 33.552L40.8123 33.5551C40.8692 33.6188 40.9129 33.693 40.9411 33.7736C40.9692 33.8542 40.9812 33.9396 40.9764 34.0248C40.9716 34.11 40.95 34.1935 40.913 34.2704C40.8759 34.3473 40.824 34.4161 40.7603 34.473C40.6967 34.5298 40.6224 34.5736 40.5418 34.6018C40.4612 34.6299 40.3759 34.6419 40.2906 34.6371C40.2054 34.6323 40.122 34.6107 40.0451 34.5736C39.9685 34.5367 39.9 34.4852 39.8433 34.422L35.2602 29.0647L35.2439 29.0457L35.2274 29.0373L35.2254 29.0107L35.2069 28.9832C35.1844 28.9497 35.166 28.9136 35.152 28.8757C35.1465 28.8435 35.147 28.8104 35.1535 28.7783L35.156 28.7661V28.7536V28.6535C35.1596 28.5861 35.1832 28.5213 35.2238 28.4674L35.2582 28.4217L35.246 28.3657C35.2408 28.3416 35.2398 28.3167 35.2429 28.2923L35.2926 28.2094C35.3134 28.1759 35.3401 28.1465 35.3716 28.1227L35.4552 28.0669L35.5664 28.0114L38.4793 28.0114L38.48 28.0114C39.1505 28.0079 39.7976 27.7638 40.3033 27.3235C40.8091 26.8832 41.14 26.2759 41.2357 25.6122L41.2564 25.4693H41.112H35.764C35.5945 25.4693 35.432 25.402 35.3122 25.2822C35.1923 25.1624 35.125 24.9998 35.125 24.8303C35.125 24.6609 35.1923 24.4983 35.3122 24.3785C35.432 24.2587 35.5945 24.1913 35.764 24.1913H40.9262H41.1221L41.0396 24.0137C40.8104 23.5204 40.4411 23.1056 39.9777 22.821C39.5149 22.5368 38.9787 22.395 38.4359 22.4133H35.7715C35.616 22.3936 35.4728 22.3182 35.3684 22.201C35.2625 22.0821 35.2039 21.9284 35.2039 21.7692C35.2039 21.6099 35.2625 21.4562 35.3684 21.3373C35.4728 21.2201 35.616 21.1447 35.7715 21.125H44.2018C44.3573 21.1447 44.5006 21.2201 44.605 21.3373C44.7109 21.4562 44.7694 21.6099 44.7694 21.7692C44.7694 21.9284 44.7109 22.0821 44.605 22.201C44.5006 22.3182 44.3573 22.3936 44.2018 22.4133H41.7521H41.491L41.6548 22.6167C42.0048 23.0514 42.2573 23.5563 42.395 24.0972L42.419 24.1913H42.5161H44.2093Z" fill="url(#paint14_linear_903_5986)" stroke="url(#paint15_linear_903_5986)" stroke-width="0.25" stroke-miterlimit="10"/>
<circle cx="40" cy="27" r="10.25" stroke="#9FCB3A" stroke-width="1.5"/>
<defs>
<linearGradient id="paint0_linear_903_5986" x1="64.8253" y1="65.7874" x2="55.1468" y2="20.9906" gradientUnits="userSpaceOnUse">
<stop stop-color="white" stop-opacity="0.9"/>
<stop offset="0.04" stop-color="white" stop-opacity="0.85"/>
<stop offset="0.28" stop-color="white" stop-opacity="0.5"/>
<stop offset="0.65" stop-color="#FAFBFC" stop-opacity="0.4"/>
<stop offset="1" stop-color="#F0EFEF" stop-opacity="0.3"/>
</linearGradient>
<linearGradient id="paint1_linear_903_5986" x1="64.9261" y1="76.3883" x2="50.6212" y2="26.009" gradientUnits="userSpaceOnUse">
<stop stop-color="white" stop-opacity="0.9"/>
<stop offset="0.28" stop-color="white" stop-opacity="0.5"/>
<stop offset="0.65" stop-color="#FAFBFC" stop-opacity="0.4"/>
<stop offset="1" stop-color="#F0EFEF" stop-opacity="0"/>
</linearGradient>
<linearGradient id="paint2_linear_903_5986" x1="39.9908" y1="70.0543" x2="39.9908" y2="21.6661" gradientUnits="userSpaceOnUse">
<stop stop-color="#79A540"/>
<stop offset="0.2" stop-color="#94C63D"/>
<stop offset="0.39" stop-color="#98CA3C"/>
<stop offset="0.59" stop-color="#93C53E"/>
<stop offset="0.74" stop-color="#9DCB3B"/>
<stop offset="0.9" stop-color="#A6CE39"/>
<stop offset="1" stop-color="#A6CE39"/>
</linearGradient>
<linearGradient id="paint3_linear_903_5986" x1="39.9908" y1="70.0543" x2="39.9908" y2="21.6661" gradientUnits="userSpaceOnUse">
<stop stop-color="#79A540"/>
<stop offset="0.2" stop-color="#94C63D"/>
<stop offset="0.39" stop-color="#98CA3C"/>
<stop offset="0.59" stop-color="#93C53E"/>
<stop offset="0.74" stop-color="#9DCB3B"/>
<stop offset="0.9" stop-color="#A6CE39"/>
<stop offset="1" stop-color="#A6CE39"/>
</linearGradient>
<linearGradient id="paint4_linear_903_5986" x1="39.9908" y1="70.0543" x2="39.9908" y2="21.6661" gradientUnits="userSpaceOnUse">
<stop stop-color="#79A540"/>
<stop offset="0.2" stop-color="#94C63D"/>
<stop offset="0.39" stop-color="#98CA3C"/>
<stop offset="0.59" stop-color="#93C53E"/>
<stop offset="0.74" stop-color="#9DCB3B"/>
<stop offset="0.9" stop-color="#A6CE39"/>
<stop offset="1" stop-color="#A6CE39"/>
</linearGradient>
<linearGradient id="paint5_linear_903_5986" x1="39.9908" y1="70.0543" x2="39.9908" y2="21.6661" gradientUnits="userSpaceOnUse">
<stop stop-color="#79A540"/>
<stop offset="0.2" stop-color="#94C63D"/>
<stop offset="0.39" stop-color="#98CA3C"/>
<stop offset="0.59" stop-color="#93C53E"/>
<stop offset="0.74" stop-color="#9DCB3B"/>
<stop offset="0.9" stop-color="#A6CE39"/>
<stop offset="1" stop-color="#A6CE39"/>
</linearGradient>
<linearGradient id="paint6_linear_903_5986" x1="39.9908" y1="70.0543" x2="39.9908" y2="21.6661" gradientUnits="userSpaceOnUse">
<stop stop-color="#79A540"/>
<stop offset="0.2" stop-color="#94C63D"/>
<stop offset="0.39" stop-color="#98CA3C"/>
<stop offset="0.59" stop-color="#93C53E"/>
<stop offset="0.74" stop-color="#9DCB3B"/>
<stop offset="0.9" stop-color="#A6CE39"/>
<stop offset="1" stop-color="#A6CE39"/>
</linearGradient>
<linearGradient id="paint7_linear_903_5986" x1="39.9908" y1="70.0543" x2="39.9908" y2="21.6661" gradientUnits="userSpaceOnUse">
<stop stop-color="#79A540"/>
<stop offset="0.2" stop-color="#94C63D"/>
<stop offset="0.39" stop-color="#98CA3C"/>
<stop offset="0.59" stop-color="#93C53E"/>
<stop offset="0.74" stop-color="#9DCB3B"/>
<stop offset="0.9" stop-color="#A6CE39"/>
<stop offset="1" stop-color="#A6CE39"/>
</linearGradient>
<linearGradient id="paint8_linear_903_5986" x1="40.0008" y1="62.0316" x2="40.0008" y2="34.5908" gradientUnits="userSpaceOnUse">
<stop stop-color="#79A540"/>
<stop offset="0.2" stop-color="#94C63D"/>
<stop offset="0.39" stop-color="#98CA3C"/>
<stop offset="0.59" stop-color="#93C53E"/>
<stop offset="0.74" stop-color="#9DCB3B"/>
<stop offset="0.9" stop-color="#A6CE39"/>
<stop offset="1" stop-color="#A6CE39"/>
</linearGradient>
<linearGradient id="paint9_linear_903_5986" x1="40.0008" y1="62.0316" x2="40.0008" y2="34.5908" gradientUnits="userSpaceOnUse">
<stop stop-color="#79A540"/>
<stop offset="0.2" stop-color="#94C63D"/>
<stop offset="0.39" stop-color="#98CA3C"/>
<stop offset="0.59" stop-color="#93C53E"/>
<stop offset="0.74" stop-color="#9DCB3B"/>
<stop offset="0.9" stop-color="#A6CE39"/>
<stop offset="1" stop-color="#A6CE39"/>
</linearGradient>
<linearGradient id="paint10_linear_903_5986" x1="40.0008" y1="62.0316" x2="40.0008" y2="34.5908" gradientUnits="userSpaceOnUse">
<stop stop-color="#79A540"/>
<stop offset="0.2" stop-color="#94C63D"/>
<stop offset="0.39" stop-color="#98CA3C"/>
<stop offset="0.59" stop-color="#93C53E"/>
<stop offset="0.74" stop-color="#9DCB3B"/>
<stop offset="0.9" stop-color="#A6CE39"/>
<stop offset="1" stop-color="#A6CE39"/>
</linearGradient>
<linearGradient id="paint11_linear_903_5986" x1="40.0008" y1="62.0316" x2="40.0008" y2="34.5908" gradientUnits="userSpaceOnUse">
<stop stop-color="#79A540"/>
<stop offset="0.2" stop-color="#94C63D"/>
<stop offset="0.39" stop-color="#98CA3C"/>
<stop offset="0.59" stop-color="#93C53E"/>
<stop offset="0.74" stop-color="#9DCB3B"/>
<stop offset="0.9" stop-color="#A6CE39"/>
<stop offset="1" stop-color="#A6CE39"/>
</linearGradient>
<linearGradient id="paint12_linear_903_5986" x1="40.0008" y1="62.0316" x2="40.0008" y2="34.5908" gradientUnits="userSpaceOnUse">
<stop stop-color="#79A540"/>
<stop offset="0.2" stop-color="#94C63D"/>
<stop offset="0.39" stop-color="#98CA3C"/>
<stop offset="0.59" stop-color="#93C53E"/>
<stop offset="0.74" stop-color="#9DCB3B"/>
<stop offset="0.9" stop-color="#A6CE39"/>
<stop offset="1" stop-color="#A6CE39"/>
</linearGradient>
<linearGradient id="paint13_linear_903_5986" x1="40.0008" y1="62.0316" x2="40.0008" y2="34.5908" gradientUnits="userSpaceOnUse">
<stop stop-color="#79A540"/>
<stop offset="0.2" stop-color="#94C63D"/>
<stop offset="0.39" stop-color="#98CA3C"/>
<stop offset="0.59" stop-color="#93C53E"/>
<stop offset="0.74" stop-color="#9DCB3B"/>
<stop offset="0.9" stop-color="#A6CE39"/>
<stop offset="1" stop-color="#A6CE39"/>
</linearGradient>
<linearGradient id="paint14_linear_903_5986" x1="39.9945" y1="38.7961" x2="39.9945" y2="14.5159" gradientUnits="userSpaceOnUse">
<stop stop-color="#79A540"/>
<stop offset="0.2" stop-color="#94C63D"/>
<stop offset="0.39" stop-color="#98CA3C"/>
<stop offset="0.59" stop-color="#93C53E"/>
<stop offset="0.74" stop-color="#9DCB3B"/>
<stop offset="0.9" stop-color="#A6CE39"/>
<stop offset="1" stop-color="#A6CE39"/>
</linearGradient>
<linearGradient id="paint15_linear_903_5986" x1="39.9971" y1="34.7704" x2="39.9971" y2="21.0012" gradientUnits="userSpaceOnUse">
<stop stop-color="#79A540"/>
<stop offset="0.2" stop-color="#94C63D"/>
<stop offset="0.39" stop-color="#98CA3C"/>
<stop offset="0.59" stop-color="#93C53E"/>
<stop offset="0.74" stop-color="#9DCB3B"/>
<stop offset="0.9" stop-color="#A6CE39"/>
<stop offset="1" stop-color="#A6CE39"/>
</linearGradient>
</defs>
</svg>
