<svg width="80" height="80" viewBox="0 0 80 80" fill="none" xmlns="http://www.w3.org/2000/svg">
<path d="M14.4902 3.85054C14.4902 3.85024 14.4902 3.85009 14.3652 3.85009H14.4902C14.4902 2.03904 15.964 0.564453 17.7759 0.564453L56.4582 0.564522L57.7135 0.813455C57.7227 0.817391 57.7305 0.821121 57.7399 0.825569C57.749 0.829919 57.7596 0.834955 57.7743 0.841542L57.8316 0.867618L57.8319 0.867743C57.8521 0.876879 57.872 0.888203 57.896 0.902609C57.8998 0.904862 57.9037 0.90724 57.9078 0.90971C57.9281 0.921979 57.9522 0.936546 57.9771 0.949656L57.9775 0.949851C57.998 0.960539 58.0182 0.970962 58.0381 0.981232C58.1436 1.03565 58.2407 1.08578 58.3314 1.14828L58.3323 1.14888C58.5003 1.26261 58.6556 1.38849 58.7943 1.52715L72.0452 14.7781C72.1813 14.9142 72.3055 15.0669 72.4175 15.2315L72.4184 15.2328C72.5261 15.387 72.6158 15.5522 72.6956 15.7255C72.6999 15.7366 72.7048 15.7454 72.7081 15.7508C72.7171 15.7702 72.7253 15.7872 72.7331 15.8031C72.747 15.8318 72.759 15.8567 72.7703 15.8848L72.9919 16.947C72.9937 16.9753 72.9975 17.0025 73.0005 17.0246L73.0017 17.0331C73.0055 17.0613 73.0079 17.0822 73.0079 17.1019V76.0592C73.0079 77.8711 71.5342 79.3448 69.7222 79.3448H17.7759C15.9648 79.3448 14.4902 77.8711 14.4902 76.0592V71.0139L15.9965 71.0154V76.0609C15.9965 77.0423 16.7945 77.8403 17.7759 77.8403H69.7214C70.7028 77.8403 71.5008 77.0423 71.5008 76.0609V17.1019C71.5008 17.052 71.4938 16.9988 71.4883 16.9565C71.4864 16.9416 71.4846 16.9281 71.4834 16.9166L71.4715 16.8048H71.3591H59.8267C58.1394 16.8048 56.7658 15.4311 56.7658 13.7439V2.21239V2.09856L56.6525 2.08793C56.6353 2.08633 56.6194 2.08424 56.6012 2.08185C56.592 2.08064 56.5822 2.07935 56.5713 2.07801C56.5415 2.07433 56.5068 2.0707 56.4705 2.0707H17.7759C16.7946 2.0707 15.9956 2.8686 15.9956 3.85009H16.1206C15.9956 3.85009 15.9956 3.85024 15.9956 3.85054V3.85188V3.85412V3.85724V3.86125V3.86614V3.8719V3.87855V3.88606V3.89444V3.90368V3.91378V3.92474V3.93655V3.94921V3.96272V3.97707V3.99226V4.00828V4.02514V4.04283V4.06134V4.08067V4.10083V4.12179V4.14357V4.16615V4.18954V4.21373V4.23872V4.2645V4.29108V4.31843V4.34658V4.3755V4.4052V4.43567V4.46691V4.49892V4.53168V4.56521V4.5995V4.63453V4.67032V4.70684V4.74411V4.78212V4.82087V4.86034V4.90054V4.94147V4.98311V5.02547V5.06855V5.11234V5.15683V5.20203V5.24792V5.29451V5.3418V5.38977V5.43843V5.48777V5.53779V5.58849V5.63986V5.69189V5.74459V5.79795V5.85197V5.90664V5.96197V6.01794V6.07455V6.13181V6.1897V6.24823V6.30738V6.36716V6.42757V6.48859V6.55023V6.61248V6.67534V6.73881V6.80287V6.86754V6.9328V6.99865V7.06509V7.13212V7.19972V7.26791V7.33666V7.40599V7.47589V7.54635V7.61736V7.68894V7.76107V7.83374V7.90697V7.98073V8.05504V8.12988V8.20525V8.28115V8.35758V8.43452V8.51199V8.58997V8.66846V8.74746V8.82697V8.90697V8.98747V9.06847V9.14995V9.23192V9.31438V9.39731V9.48073V9.56461V9.64896V9.73378V9.81906V9.9048V9.991V10.0776V10.1647V10.2523V10.3403V10.4287V10.5175V10.6068V10.6965V10.7867V10.8772V10.9682V11.0596V11.1514V11.2436V11.3362V11.4292V11.5226V11.6164V11.7106V11.8051V11.9001V11.9954V12.0911V12.1872V12.2836V12.3805V12.4776V12.5752V12.673V12.7713V12.8698V12.9688V13.068V13.1676V13.2676V13.3678V13.4684V13.5693V13.6706V13.7721V13.874V13.9761V14.0786V14.1814V14.2844V14.3878V14.4915V14.5954V14.6996V14.8042V14.9089V15.014V15.1193V15.2249V15.3308V15.4369V15.5433V15.6499V15.7568V15.8639V15.9713V16.0789V16.1868V16.2948V16.4031V16.5117V16.6204V16.7294V16.8386V16.948V17.0576V17.1674V17.2774V17.3876V17.498V17.6086V17.7194V17.8303V17.9414V18.0528V18.1642V18.2759V18.3877V18.4997V18.6118V18.7241V18.8366V18.9492V19.0619V19.1748V19.2878V19.401V19.5143V19.6277V19.7412V19.8549V19.9686V20.0825V20.1965V20.3106V20.4248V20.5391V20.6535V20.768V20.8826V20.9973V21.112V21.2268V21.3417V21.4567V21.5718V21.6869V21.802V21.9173V22.0325V22.1479V22.2632V22.3787V22.4941V22.6096V22.7251V22.8407V22.9563V23.0719V23.1875V23.3032V23.4188V23.5345V23.6501V23.7658V23.8815V23.9971V24.1128V24.2284V24.3441V24.4597V24.5752V24.6908V24.8063V24.9218V25.0373V25.1527V25.2681V25.3834V25.4987V25.6139V25.729V25.8441V25.9592V26.0741V26.189V26.3039V26.4186V26.5333V26.6478V26.7623V26.8767V26.991V27.1052V27.2193V27.3333V27.4472V27.5609V27.6746V27.7881V27.9015V28.0148V28.1279V28.2409V28.3538V28.4665V28.5791V28.6916V28.8039V28.916V29.028V29.1398V29.2514V29.3629V29.4742V29.5853V29.6962V29.807V29.9176V30.028V30.1382V30.2481V30.3579V30.4675V30.5769V30.6861V30.795V30.9038V31.0123V31.1206V31.2286V31.3364V31.444V31.5514V31.6585V31.7654V31.872V31.9783V32.0844V32.1903V32.2959V32.4012V32.5062V32.611V32.7155V32.8197V32.9236V33.0273V33.1306V33.2337V33.3364V33.4389V33.541V33.6428V33.7444V33.8456V33.9464V34.047V34.1473V34.2472V34.3467V34.446V34.5449V34.6434V34.7416V34.8395V34.937V35.0341V35.1309V35.2273V35.3234V35.4191V35.5144V35.6093V35.7038V35.798V35.8917V35.9851V36.0781V36.1707V36.2628V36.3546V36.446V36.5369V36.6274V36.7175V36.8072V36.8965V36.9853V37.0737V37.1616V37.2491V37.3362V37.4228V37.509V37.5947V37.6799V37.7647V37.849V37.9329V38.0163V38.0992V38.1816V38.2635V38.345V38.4259V38.5064V38.5864V38.6658V38.7448V38.8233V38.9012V38.9786V39.0555V39.1319V39.2078V39.2831V39.3579V39.4322V39.5059V39.5791V39.6517V39.7238V39.7954V39.8663V39.9368V40.0066V40.0759V40.1446V40.2128V40.2803V40.3473V40.4137V40.4795V40.5447V40.6094V40.6734V40.7368V40.7996V40.8618V40.9234V40.9844V41.0448V41.1045V41.1636V41.2221V41.2799V41.3371V41.3937V41.4496V41.5049V41.5595V41.6135V41.6668V41.7195V41.7715V41.8228V41.8734V41.9234V41.9727V42.0213V42.0692V42.1164V42.163V42.2088V42.254V42.2984V42.3422V42.3852V42.4275V42.4691V42.51V42.5501V42.5895V42.6282V42.6662V42.7034V42.7399V42.7756V42.8106V42.8448V42.8783V42.911V42.9429V42.9741V43.0045V43.0342V43.063V43.0911V43.1184V43.145V43.1707V43.1956V43.2197V43.2431V43.2656V43.2873V43.3082V43.3283V43.3476V43.366V43.3837V43.4005V43.4164V43.4316V43.4458V43.4593V43.4719V43.4836V43.4945V43.5046V43.5138V43.5221V43.5295V43.5361V43.5418V43.5466V43.5506V43.5536C15.9956 43.5634 15.9923 43.5804 15.963 43.6059C15.9321 43.6329 15.8803 43.6612 15.8062 43.6863C15.6588 43.7363 15.454 43.7634 15.243 43.7633C15.0319 43.7632 14.8272 43.7361 14.6797 43.686C14.6056 43.6608 14.5539 43.6324 14.5229 43.6054C14.4936 43.5798 14.4902 43.5627 14.4902 43.5528V43.5497V43.5457V43.5409V43.5352V43.5286V43.5212V43.5128V43.5037V43.4936V43.4827V43.471V43.4584V43.4449V43.4306V43.4155V43.3995V43.3827V43.3651V43.3466V43.3273V43.3072V43.2863V43.2646V43.2421V43.2188V43.1946V43.1697V43.144V43.1174V43.0901V43.062V43.0332V43.0035V42.9731V42.9419V42.91V42.8772V42.8438V42.8095V42.7746V42.7388V42.7023V42.6651V42.6272V42.5885V42.5491V42.5089V42.468V42.4264V42.3841V42.3411V42.2974V42.2529V42.2078V42.1619V42.1154V42.0681V42.0202V41.9716V41.9223V41.8723V41.8217V41.7704V41.7184V41.6657V41.6124V41.5584V41.5038V41.4485V41.3926V41.336V41.2788V41.221V41.1625V41.1034V41.0436V40.9833V40.9223V40.8607V40.7985V40.7357V40.6723V40.6082V40.5436V40.4784V40.4126V40.3462V40.2792V40.2116V40.1435V40.0748V40.0055V39.9356V39.8652V39.7942V39.7227V39.6506V39.578V39.5048V39.4311V39.3568V39.282V39.2067V39.1308V39.0544V38.9775V38.9001V38.8221V38.7437V38.6647V38.5853V38.5053V38.4248V38.3439V38.2624V38.1805V38.0981V38.0152V37.9318V37.8479V37.7636V37.6788V37.5936V37.5079V37.4217V37.3351V37.248V37.1605V37.0726V36.9842V36.8954V36.8061V36.7164V36.6263V36.5358V36.4449V36.3535V36.2617V36.1696V36.077V35.984V35.8907V35.7969V35.7027V35.6082V35.5133V35.418V35.3223V35.2262V35.1298V35.0331V34.9359V34.8384V34.7406V34.6424V34.5438V34.4449V34.3457V34.2461V34.1462V34.046V33.9454V33.8445V33.7433V33.6418V33.5399V33.4378V33.3354V33.2326V33.1296V33.0262V32.9226V32.8187V32.7144V32.61V32.5052V32.4002V32.2948V32.1893V32.0834V31.9773V31.871V31.7644V31.6575V31.5504V31.443V31.3354V31.2276V31.1196V31.0113V30.9028V30.794V30.6851V30.5759V30.4665V30.357V30.2472V30.1372V30.027V29.9166V29.806V29.6953V29.5844V29.4732V29.3619V29.2505V29.1388V29.027V28.9151V28.8029V28.6906V28.5782V28.4656V28.3529V28.24V28.127V28.0139V27.9006V27.7872V27.6737V27.56V27.4463V27.3324V27.2184V27.1043V26.9901V26.8758V26.7615V26.647V26.5324V26.4177V26.303V26.1882V26.0733V25.9583V25.8433V25.7282V25.613V25.4978V25.3826V25.2672V25.1519V25.0365V24.921V24.8055V24.69V24.5744V24.4589V24.3433V24.2276V24.112V23.9964V23.8807V23.765V23.6494V23.5337V23.418V23.3024V23.1868V23.0711V22.9555V22.84V22.7244V22.6089V22.4934V22.3779V22.2625V22.1471V22.0318V21.9165V21.8013V21.6862V21.5711V21.456V21.3411V21.2262V21.1113V20.9966V20.8819V20.7673V20.6529V20.5385V20.4242V20.31V20.1959V20.0819V19.968V19.8542V19.7406V19.627V19.5136V19.4004V19.2872V19.1742V19.0613V18.9486V18.836V18.7235V18.6112V18.4991V18.3871V18.2753V18.1637V18.0522V17.9409V17.8297V17.7188V17.608V17.4974V17.387V17.2768V17.1668V17.057V16.9474V16.8381V16.7289V16.6199V16.5112V16.4026V16.2943V16.1863V16.0784V15.9708V15.8635V15.7563V15.6495V15.5428V15.4364V15.3303V15.2245V15.1189V15.0135V14.9085V14.8037V14.6992V14.595V14.491V14.3874V14.284V14.1809V14.0782V13.9757V13.8735V13.7717V13.6701V13.5689V13.468V13.3674V13.2672V13.1672V13.0676V12.9684V12.8695V12.7709V12.6727V12.5748V12.4773V12.3801V12.2833V12.1869V12.0908V11.9951V11.8998V11.8048V11.7102V11.6161V11.5223V11.4289V11.3359V11.2433V11.1511V11.0593V10.9679V10.8769V10.7864V10.6962V10.6065V10.5173V10.4284V10.34V10.252V10.1645V10.0774V9.99074V9.90455V9.81881V9.73353V9.64872V9.56437V9.48048V9.39708V9.31415V9.23169V9.14973V9.06824V8.98725V8.90675V8.82675V8.74725V8.66826V8.58977V8.51179V8.43433V8.35738V8.28096V8.20506V8.12969V8.05486V7.98055V7.90679V7.83357V7.7609V7.68877V7.6172V7.54619V7.47573V7.40584V7.33651V7.26776V7.19958V7.13198V7.06496V6.99852V6.93267V6.86741V6.80275V6.73868V6.67522V6.61236V6.55011V6.48847V6.42745V6.36705V6.30727V6.24812V6.1896V6.13171V6.07446V6.01784V5.96188V5.90655V5.85188V5.79787V5.74451V5.69181V5.63978V5.58841V5.53772V5.4877V5.43836V5.38971V5.34173V5.29445V5.24786V5.20197V5.15677V5.11228V5.0685V5.02542V4.98306V4.94142V4.90049V4.8603V4.82082V4.78208V4.74408V4.70681V4.67028V4.6345V4.59946V4.56518V4.53165V4.49889V4.46688V4.43564V4.40517V4.37548V4.34655V4.31841V4.29106V4.26449V4.23871V4.21372V4.18953V4.16614V4.14356V4.12178V4.10081V4.08066V4.06133V4.04282V4.02513V4.00828V3.99225V3.97706V3.96271V3.94921V3.93655V3.92473V3.91378V3.90367V3.89443V3.88606V3.87854V3.8719V3.86614V3.86125V3.85724V3.85412V3.85188V3.85054ZM58.0353 0.839C58.0139 0.82779 57.9936 0.815537 57.9734 0.803284C57.9444 0.785784 57.9154 0.768284 57.8834 0.753822L58.0353 0.839ZM58.4855 3.34898L58.2721 3.1356V3.43737V13.7448C58.2721 14.6024 58.97 15.2994 59.8267 15.2994H70.1341H70.4359L70.2225 15.086L64.354 9.21749L58.4855 3.34898ZM42.496 62.5779H41.1252V58.1007V57.9757H41.0002H41.0001H40.9999H40.9997H40.9993H40.999H40.9985H40.998H40.9974H40.9967H40.996H40.9952H40.9943H40.9934H40.9923H40.9913H40.9901H40.9889H40.9876H40.9863H40.9849H40.9834H40.9819H40.9803H40.9786H40.9768H40.975H40.9732H40.9712H40.9692H40.9672H40.9651H40.9629H40.9606H40.9583H40.9559H40.9535H40.951H40.9485H40.9458H40.9432H40.9404H40.9376H40.9347H40.9318H40.9288H40.9258H40.9227H40.9195H40.9163H40.913H40.9097H40.9063H40.9029H40.8993H40.8958H40.8922H40.8885H40.8847H40.8809H40.8771H40.8732H40.8692H40.8652H40.8612H40.857H40.8528H40.8486H40.8443H40.84H40.8356H40.8312H40.8267H40.8221H40.8175H40.8128H40.8081H40.8034H40.7986H40.7937H40.7888H40.7838H40.7788H40.7738H40.7686H40.7635H40.7583H40.753H40.7477H40.7423H40.7369H40.7315H40.726H40.7204H40.7148H40.7092H40.7035H40.6978H40.692H40.6862H40.6803H40.6744H40.6684H40.6624H40.6564H40.6503H40.6441H40.638H40.6317H40.6255H40.6192H40.6128H40.6064H40.6H40.5935H40.587H40.5804H40.5738H40.5671H40.5605H40.5537H40.547H40.5402H40.5333H40.5264H40.5195H40.5125H40.5055H40.4985H40.4914H40.4843H40.4771H40.47H40.4627H40.4555H40.4482H40.4408H40.4335H40.426H40.4186H40.4111H40.4036H40.3961H40.3885H40.3809H40.3732H40.3655H40.3578H40.3501H40.3423H40.3345H40.3266H40.3187H40.3108H40.3029H40.2949H40.2869H40.2789H40.2708H40.2627H40.2546H40.2464H40.2382H40.23H40.2218H40.2135H40.2052H40.1969H40.1885H40.1801H40.1717H40.1633H40.1548H40.1463H40.1378H40.1292H40.1207H40.1121H40.1035H40.0948H40.0861H40.0774H40.0687H40.06H40.0512H40.0424H40.0336H40.0248H40.0159H40.007H39.9981H39.9892H39.9803H39.9713H39.9623H39.9533H39.9443H39.9352H39.9261H39.917H39.9079H39.8988H39.8896H39.8805H39.8713H39.8621H39.8529H39.8436H39.8344H39.8251H39.8158H39.8065H39.7972H39.7878H39.7785H39.7691H39.7597H39.7503H39.7409H39.7314H39.722H39.7125H39.703H39.6936H39.6841H39.6745H39.665H39.6555H39.6459H39.6363H39.6268H39.6172H39.6076H39.598H39.5883H39.5787H39.5691H39.5594H39.5498H39.5401H39.5304H39.5207H39.511H39.5013H39.4916H39.4819H39.4721H39.4624H39.4527H39.4429H39.4331H39.4234H39.4136H39.4038H39.3941H39.3843H39.3745H39.3647H39.3549H39.3451H39.3353H39.3254H39.3156H39.3058H39.296H39.2862H39.2763H39.2665H39.2567H39.2468H39.237H39.2272H39.2173H39.2075H39.1976H39.1878H39.178H39.1681H39.1583H39.1485H39.1386H39.1288H39.119H39.1091H39.0993H39.0895H39.0796H39.0698H39.06H39.0502H39.0404H39.0306H39.0208H39.011H39.0012H38.9914H38.9816H38.9719H38.9621H38.9523H38.9426H38.9328H38.9231H38.9133H38.9036H38.8939H38.8842H38.8745H38.8648H38.8551H38.8454H38.8357H38.8261H38.8164H38.8068H38.7972H38.7875H38.7779H38.7683H38.7588H38.7492H38.7396H38.7301H38.7205H38.711H38.7015H38.692H38.6825H38.673H38.6636H38.6541H38.6447H38.6353H38.6259H38.6165H38.6071H38.5978H38.5884H38.5791H38.5698H38.5605H38.5513H38.542H38.5328H38.5236H38.5144H38.5052H38.496H38.4869H38.4777H38.4686H38.4595H38.4505H38.4414H38.4324H38.4234H38.4144H38.4055H38.3965H38.3876H38.3787H38.3698H38.361H38.3521H38.3433H38.3345H38.3258H38.317H38.3083H38.2996H38.291H38.2823H38.2737H38.2651H38.2566H38.248H38.2395H38.231H38.2226H38.2142H38.2057H38.1974H38.189H38.1807H38.1724H38.1641H38.1559H38.1477H38.1395H38.1314H38.1233H38.1152H38.1071H38.0991H38.0911H38.0831H38.0752H38.0673H38.0594H38.0516H38.0438H38.036H38.0283H38.0206H38.0129H38.0052H37.9976H37.9901H37.9825H37.975H37.9675H37.9601H37.9527H37.9454H37.938H37.9307H37.9235H37.9163H37.9091H37.9019H37.8948H37.8878H37.8807H37.8738H37.8668H37.8599H37.853H37.8462H37.8394H37.8326H37.8259H37.8192H37.8126H37.806H37.7995H37.7929H37.7865H37.7801H37.7737H37.7673H37.761H37.7548H37.7486H37.7424H37.7363H37.7302H37.7241H37.7181H37.7122H37.7063H37.7004H37.6946H37.6889H37.6831H37.6775H37.6718H37.6663H37.6607H37.6552H37.6498H37.6444H37.6391H37.6338H37.6285H37.6233H37.6182H37.6131H37.608H37.603H37.5981H37.5932H37.5884H37.5836H37.5788H37.5741H37.5695H37.5649H37.5604H37.5559H37.5514H37.5471H37.5427H37.5385H37.5343H37.5301H37.526H37.5219H37.5179H37.514H37.5101H37.5063H37.5025H37.4988H37.4951H37.4915H37.488H37.4845H37.481H37.4776H37.4743H37.4711H37.4679H37.4647H37.4616H37.4586H37.4557H37.4527H37.4499H37.4471H37.4444H37.4417H37.4391C37.4312 57.9757 37.4152 57.9732 37.39 57.9439C37.3635 57.9129 37.3356 57.8611 37.3108 57.7867C37.2616 57.639 37.235 57.4338 37.235 57.2225C37.235 57.0112 37.2616 56.8061 37.3108 56.6583C37.3356 56.584 37.3635 56.5322 37.39 56.5012C37.4152 56.4719 37.4312 56.4694 37.4391 56.4694H39.3843H39.6936H39.703H39.7125H39.722H39.7314H39.7409H39.7503H39.7597H39.7691H39.7785H39.7878H39.7972H39.8065H39.8158H39.8251H39.8344H39.8436H39.8529H39.8621H39.8713H39.8805H39.8896H39.8988H39.9079H39.917H39.9261H39.9352H39.9443H39.9533H39.9623H39.9713H39.9803H39.9892H39.9981H40.007H40.0159H40.0248H40.0336H40.0424H40.0512H40.06H40.0687H40.0774H40.0948H40.1035H40.1121H40.1207H40.1292H40.1378H40.1463H40.1548H40.1633H40.1717H40.1801H40.1885H40.1969H40.2052H40.2135H40.2218H40.23H40.2382H40.2464H40.2546H40.2627H40.2708H40.2789H40.2869H40.2949H40.3029H40.3108H40.3187H40.3266H40.3345H40.3423H40.3501H40.3578H40.3655H40.3732H40.3809H40.3885H40.3961H40.4036H40.4186H40.426H40.4335H40.4408H40.4482H40.4555H40.4627H40.4771H40.4843H40.4914H40.4985H40.5055H40.5125H40.5195H40.5264H40.5333H40.547H40.5537H40.5605H40.5671H40.5738H40.5804H40.587H40.6H40.6064H40.6128H40.6192H40.6255H40.6317H40.638H40.6503H40.6564H40.6624H40.6684H40.6744H40.6803H40.6862H40.692H40.6978H40.7035H40.7092H40.7148H40.7204H40.726H40.7315H40.7369H40.7423H40.7477H40.753H40.7937H40.8652H40.9651H40.9913H40.9923H40.9934H40.9943H40.9952H40.996H40.9967H40.9974H40.998H40.9985H40.999H40.9993H40.9997H40.9999H41.0001H41.0002H42.496H51.3949H51.5199V56.3444V52.2365C51.5199 51.82 51.8565 51.4834 52.273 51.4834H58.7553H58.8575L58.8778 51.3833C59.2746 49.4285 61.0053 47.9533 63.074 47.9533C65.4365 47.9533 67.358 49.8749 67.358 52.2365C67.358 54.599 65.4365 56.5206 63.074 56.5206C61.0053 56.5206 59.2746 55.0446 58.8778 53.0898L58.8575 52.9897H58.7553H53.1511H53.0261V53.1147V57.2225C53.0261 57.6391 52.6896 57.9757 52.273 57.9757H42.496H42.371V58.1007V60.9467V61.0717H42.496H48.4102C48.8267 61.0717 49.1633 61.4082 49.1633 61.8248V66.3146V66.4396H49.2883H58.7553H58.8575L58.8778 66.3395C59.2746 64.3847 61.0053 62.9096 63.074 62.9096C65.4365 62.9096 67.358 64.8312 67.358 67.1928C67.358 69.5553 65.4365 71.4768 63.074 71.4768C61.0053 71.4768 59.2746 70.0009 58.8778 68.046L58.8575 67.9459H58.7553H48.4102C47.9936 67.9459 47.657 67.6093 47.657 67.1928V62.7029V62.5779H47.532H42.496ZM63.0748 64.4158C61.5428 64.4158 60.2979 65.6617 60.2979 67.1928C60.2979 68.7238 61.5428 69.9706 63.0748 69.9706C64.6068 69.9706 65.8527 68.7247 65.8527 67.1928C65.8527 65.6607 64.6068 64.4158 63.0748 64.4158ZM63.0748 49.4587C61.5428 49.4587 60.2979 50.7046 60.2979 52.2357C60.2979 53.7667 61.5428 55.0135 63.0748 55.0135C64.6068 55.0135 65.8527 53.7676 65.8527 52.2357C65.8527 50.7036 64.6068 49.4587 63.0748 49.4587Z" fill="url(#paint0_linear_201_16493)" stroke="url(#paint1_linear_201_16493)" stroke-width="0.25"/>
<path d="M39.0039 37.075H65.9961C66.5091 37.075 66.925 37.4909 66.925 38.0039C66.925 38.517 66.5091 38.9328 65.9961 38.9328H39.0039C38.4909 38.9328 38.075 38.517 38.075 38.0039C38.075 37.4909 38.4909 37.075 39.0039 37.075ZM39.004 45.1063H57.7105C58.2235 45.1063 58.6394 45.5221 58.6394 46.0352C58.6394 46.5482 58.2235 46.9641 57.7105 46.9641H39.004C38.491 46.9641 38.0751 46.5482 38.0751 46.0352C38.0751 45.5221 38.491 45.1063 39.004 45.1063ZM39.004 41.0906H53.5676C54.0806 41.0906 54.4965 41.5065 54.4965 42.0195C54.4965 42.5325 54.0806 42.9484 53.5676 42.9484H39.004C38.491 42.9484 38.0751 42.5325 38.0751 42.0195C38.0751 41.5065 38.491 41.0906 39.004 41.0906ZM57 41.075H66C66.5109 41.075 66.925 41.4891 66.925 42C66.925 42.5109 66.5109 42.925 66 42.925H57C56.4891 42.925 56.075 42.5109 56.075 42C56.075 41.4891 56.4891 41.075 57 41.075Z" fill="url(#paint2_linear_201_16493)" stroke="url(#paint3_linear_201_16493)" stroke-width="0.15"/>
<path d="M8.10112 70.3369C8.10112 73.8439 7.76735 76.6931 7.35618 76.6931C6.94501 76.6931 6.60156 73.8439 6.60156 70.3369C6.60156 66.8298 6.94985 64 7.35618 64C7.76251 64 8.10112 66.825 8.10112 70.3369Z" fill="url(#paint4_radial_201_16493)"/>
<path d="M7.3565 71.0718C3.84946 71.0718 1.00029 70.7381 1.00029 70.3269C1.00029 69.9157 3.84946 69.5723 7.3565 69.5723C10.8635 69.5723 13.6934 69.9206 13.6934 70.3269C13.6934 70.7332 10.8684 71.0718 7.3565 71.0718Z" fill="url(#paint5_radial_201_16493)"/>
<path d="M74.1011 15.3369C74.1011 18.8439 73.7674 21.6931 73.3562 21.6931C72.945 21.6931 72.6016 18.8439 72.6016 15.3369C72.6016 11.8298 72.9498 9 73.3562 9C73.7625 9 74.1011 11.825 74.1011 15.3369Z" fill="url(#paint6_radial_201_16493)"/>
<path d="M73.3565 16.0718C69.8495 16.0718 67.0003 15.7381 67.0003 15.3269C67.0003 14.9157 69.8495 14.5723 73.3565 14.5723C76.8635 14.5723 79.6934 14.9206 79.6934 15.3269C79.6934 15.7332 76.8684 16.0718 73.3565 16.0718Z" fill="url(#paint7_radial_201_16493)"/>
<path d="M14.9803 45.0167H29.4084C30.1978 44.9558 30.9912 45.0619 31.737 45.3279C32.4827 45.5938 33.1641 46.0138 33.7369 46.5605C34.316 47.2838 34.7424 48.117 34.9904 49.0097C35.2384 49.9025 35.3028 50.8362 35.1797 51.7546V52.3029C35.1797 52.678 35.1797 53.0531 35.1797 53.4282C35.1797 53.8034 35.1797 54.2939 35.1797 54.7268V56.5591C35.1797 56.8044 35.1797 57.0641 35.1797 57.3094V57.9154C35.1656 58.1569 35.0688 58.3861 34.9055 58.5647C34.781 58.6217 34.6457 58.6512 34.5088 58.6512C34.3718 58.6512 34.2365 58.6217 34.112 58.5647L33.91 58.4925C33.5299 58.3529 33.1312 58.2703 32.7269 58.2472C32.6251 58.2281 32.5285 58.1873 32.4439 58.1276C32.3592 58.0678 32.2884 57.9905 32.2363 57.901C32.2144 57.661 32.2144 57.4195 32.2363 57.1796V55.7367C32.2363 55.2895 32.2363 54.8422 32.2363 54.3949V50.7879C32.3083 49.9961 32.0645 49.2079 31.5582 48.5948C30.693 47.9791 29.6195 47.7301 28.5716 47.9023H16.3943C15.9084 47.8257 15.4121 47.8462 14.9341 47.9626C14.4561 48.079 14.006 48.289 13.6097 48.5804C12.9969 49.4686 12.7537 50.5604 12.9316 51.6247V63.7732C12.8468 64.2751 12.8631 64.7889 12.9796 65.2844C13.096 65.7799 13.3103 66.2472 13.6097 66.6588C13.9478 66.9282 14.3366 67.1271 14.7529 67.2435C15.1693 67.36 15.6047 67.3918 16.0336 67.3369H23.2476C23.767 67.3369 23.767 67.3369 24.0556 67.5534C24.1835 67.7224 24.2901 67.9065 24.373 68.1016C24.584 68.4853 24.857 68.8315 25.181 69.126C25.256 69.2073 25.3138 69.3028 25.3509 69.407C25.3881 69.5111 25.4039 69.6216 25.3974 69.732C25.2387 70.136 25.2387 70.136 25.0367 70.237H16.4231C15.5148 70.3456 14.5937 70.2575 13.7223 69.9787C12.851 69.6999 12.0499 69.2368 11.3733 68.621C10.4944 67.7064 10.0077 66.4845 10.0171 65.216V50.7879C9.95488 49.9762 10.063 49.1604 10.3345 48.3928V48.2341C10.8687 46.9762 11.858 45.9663 13.1047 45.4062C13.698 45.1536 14.3355 45.0212 14.9803 45.0167Z" fill="url(#paint8_linear_201_16493)"/>
<path d="M32.8857 61.0033C33.0732 61.0033 33.0732 61.0033 33.1742 61.1332C33.3209 61.3899 33.4417 61.6606 33.5349 61.9412L33.6792 62.3163C33.7514 62.5183 33.8379 62.7058 33.9101 62.9078C34.0614 63.507 34.3393 64.0668 34.7251 64.5496C35.1108 65.0324 35.5955 65.427 36.1464 65.7069L36.9255 66.0243L37.6902 66.3273L38.2096 66.5437L38.4549 66.6447L38.6713 66.7313C38.7962 66.7706 38.9066 66.8459 38.9888 66.9477C39.0039 67.0675 39.0039 67.1886 38.9888 67.3084C38.3469 67.6302 37.6869 67.9145 37.0121 68.1597C36.4273 68.3144 35.8826 68.5928 35.4146 68.9761C34.9467 69.3595 34.5665 69.8387 34.2996 70.3816C34.1121 70.8 33.9389 71.2328 33.7658 71.6513L33.5927 72.0841C33.5927 72.2284 33.4917 72.3727 33.4339 72.5025V72.7045L33.3618 72.8632C33.2989 73.0066 33.1994 73.131 33.0732 73.2239C32.9944 73.2539 32.9091 73.2629 32.8257 73.2503C32.7423 73.2377 32.6636 73.2037 32.5971 73.1518C32.5157 73.0196 32.448 72.8794 32.3951 72.7334L32.3374 72.4304V72.2861L32.1643 71.8677L31.9479 71.305C31.7693 70.6554 31.4508 70.0527 31.0146 69.5392C30.5784 69.0258 30.0352 68.614 29.4229 68.3328L28.7304 68.102H28.5717L27.8936 67.8422L27.3886 67.6547H27.2299C27.083 67.5827 26.947 67.4904 26.8259 67.3806C26.7695 67.2436 26.7448 67.0956 26.7537 66.9477C27.0036 66.7531 27.2873 66.6063 27.5906 66.5149L27.7493 66.4427L28.2543 66.2407C28.9259 66.0974 29.5592 65.8121 30.1116 65.404C30.6641 64.9959 31.1229 64.4744 31.4573 63.8745C31.6449 63.4417 31.818 62.9944 31.9767 62.5616C32.0633 62.3596 32.1354 62.172 32.2076 61.97L32.3518 61.6093V61.4362V61.2919C32.3852 61.1834 32.4599 61.0924 32.5597 61.0384C32.6596 60.9844 32.7766 60.9718 32.8857 61.0033Z" fill="url(#paint9_linear_201_16493)"/>
<path d="M22.4115 51.6686C22.3232 51.4343 22.1652 51.2327 21.9588 51.0908C21.7525 50.9489 21.5077 50.8736 21.2573 50.875H19.9588C19.7084 50.8736 19.4635 50.9489 19.2572 51.0908C19.0509 51.2327 18.8929 51.4343 18.8045 51.6686L14.8801 62.1578C14.8154 62.3098 14.7824 62.4734 14.7832 62.6386C14.784 62.8037 14.8186 62.967 14.8848 63.1183C14.951 63.2697 15.0475 63.4059 15.1682 63.5186C15.289 63.6313 15.4315 63.7181 15.587 63.7737C15.7385 63.8314 15.9 63.8585 16.062 63.8535C16.2241 63.8484 16.3835 63.8112 16.5311 63.7441C16.6787 63.6771 16.8115 63.5814 16.9219 63.4626C17.0323 63.3439 17.118 63.2044 17.1741 63.0523L17.8523 61.2344H23.3638L24.0419 63.0523C24.1297 63.2882 24.2871 63.4917 24.4932 63.636C24.6994 63.7803 24.9445 63.8586 25.1962 63.8603C25.3401 63.8608 25.4826 63.8313 25.6146 63.7737C25.7661 63.7191 25.9053 63.6349 26.0239 63.5258C26.1425 63.4168 26.2382 63.2853 26.3054 63.1388C26.3725 62.9924 26.4099 62.834 26.4151 62.673C26.4204 62.512 26.3935 62.3516 26.336 62.2011L22.4115 51.6686ZM18.7757 58.7383L20.608 53.8616L22.4981 58.7383H18.7757Z" fill="url(#paint10_linear_201_16493)"/>
<path d="M28.2694 50.875C27.9441 50.875 27.6322 51.0042 27.4022 51.2342C27.1722 51.4642 27.043 51.7761 27.043 52.1014V62.5762C27.043 62.9014 27.1722 63.2134 27.4022 63.4434C27.6322 63.6734 27.9441 63.8026 28.2694 63.8026C28.5946 63.8026 28.9066 63.6734 29.1365 63.4434C29.3665 63.2134 29.4957 62.9014 29.4957 62.5762V52.1014C29.4957 51.7761 29.3665 51.4642 29.1365 51.2342C28.9066 51.0042 28.5946 50.875 28.2694 50.875Z" fill="url(#paint11_linear_201_16493)"/>
<path d="M51.1504 28.2799C51.1504 28.6502 50.8482 28.9507 50.4758 28.9507C50.1034 28.9507 49.8013 28.6502 49.8013 28.2799V20.8177H47.1445V28.2799C47.1445 28.6502 46.8424 28.9507 46.47 28.9507C46.0976 28.9507 45.7955 28.6502 45.7955 28.2799V20.1469C45.7955 19.7765 46.0976 19.4761 46.47 19.4761H50.4758C50.8482 19.4761 51.1504 19.7765 51.1504 20.1469V28.2799Z" fill="url(#paint12_linear_201_16493)"/>
<path d="M43.562 28.2799C43.562 28.6502 43.2599 28.9507 42.8875 28.9507C42.5151 28.9507 42.213 28.6502 42.213 28.2799V24.6322H39.5562V28.2799C39.5562 28.6502 39.2541 28.9507 38.8817 28.9507C38.5093 28.9507 38.2072 28.6502 38.2072 28.2799V23.9614C38.2072 23.591 38.5093 23.2906 38.8817 23.2906H42.8875C43.2599 23.2906 43.562 23.591 43.562 23.9614V28.2799Z" fill="url(#paint13_linear_201_16493)"/>
<path d="M36.2126 28.2799C36.2126 28.6502 35.9105 28.9507 35.5381 28.9507C35.1657 28.9507 34.8636 28.6502 34.8636 28.2799V22.4861H32.2068V28.2799C32.2068 28.6502 31.9047 28.9507 31.5323 28.9507C31.1599 28.9507 30.8578 28.6502 30.8578 28.2799V21.8152C30.8578 21.4449 31.1599 21.1444 31.5323 21.1444H35.5381C35.9105 21.1444 36.2126 21.4449 36.2126 21.8152V28.2799Z" fill="url(#paint14_linear_201_16493)"/>
<path d="M28.8632 28.2799C28.8632 28.6502 28.5611 28.9507 28.1887 28.9507C27.8163 28.9507 27.5142 28.6502 27.5142 28.2799V25.5974H24.8583V28.2799C24.8583 28.6502 24.5561 28.9507 24.1838 28.9507C23.8114 28.9507 23.5092 28.6502 23.5092 28.2799V24.9266C23.5092 24.5562 23.8114 24.2557 24.1838 24.2557H28.1887C28.5611 24.2557 28.8632 24.5562 28.8632 24.9266V28.2799Z" fill="url(#paint15_linear_201_16493)"/>
<path d="M52.3255 30.6583C52.6979 30.6583 53 30.9588 53 31.3292C53 31.6995 52.6979 32 52.3255 32H21.6745C21.3021 32 21 31.6995 21 31.3292C21 30.9588 21.3021 30.6583 21.6745 30.6583H52.3255Z" fill="url(#paint16_linear_201_16493)"/>
<path d="M45.9966 9.07382L48.7351 9.00045C49.1118 8.98507 49.4791 9.3695 49.421 9.76736L49.0276 12.4638C48.9764 12.8184 48.6487 13.0833 48.2635 13.0315C47.8946 12.9783 47.639 12.6376 47.6926 12.2716L47.8174 11.4158L38.5515 19.0594C38.3187 19.2525 37.9859 19.2656 37.7356 19.0935L32.321 15.3471L24.9224 22.2895C24.6539 22.5421 24.2255 22.5324 23.9686 22.2616C23.713 21.9926 23.7253 21.5672 23.9967 21.313L31.794 13.9967C32.0276 13.7801 32.3798 13.7522 32.6424 13.9347L38.0851 17.7012L46.9475 10.3909L46.0335 10.4155H46.0151C45.6506 10.4155 45.3511 10.1272 45.3406 9.76299C45.3309 9.39264 45.6242 9.0843 45.9966 9.07382Z" fill="url(#paint17_linear_201_16493)"/>
<path d="M51.1504 28.2799C51.1504 28.6502 50.8482 28.9507 50.4758 28.9507C50.1034 28.9507 49.8013 28.6502 49.8013 28.2799V20.8177H47.1445V28.2799C47.1445 28.6502 46.8424 28.9507 46.47 28.9507C46.0976 28.9507 45.7955 28.6502 45.7955 28.2799V20.1469C45.7955 19.7765 46.0976 19.4761 46.47 19.4761H50.4758C50.8482 19.4761 51.1504 19.7765 51.1504 20.1469V28.2799Z" stroke="url(#paint18_linear_201_16493)" stroke-width="0.25" stroke-miterlimit="10"/>
<path d="M43.562 28.2799C43.562 28.6502 43.2599 28.9507 42.8875 28.9507C42.5151 28.9507 42.213 28.6502 42.213 28.2799V24.6322H39.5562V28.2799C39.5562 28.6502 39.2541 28.9507 38.8817 28.9507C38.5093 28.9507 38.2072 28.6502 38.2072 28.2799V23.9614C38.2072 23.591 38.5093 23.2906 38.8817 23.2906H42.8875C43.2599 23.2906 43.562 23.591 43.562 23.9614V28.2799Z" stroke="url(#paint19_linear_201_16493)" stroke-width="0.25" stroke-miterlimit="10"/>
<path d="M36.2126 28.2799C36.2126 28.6502 35.9105 28.9507 35.5381 28.9507C35.1657 28.9507 34.8636 28.6502 34.8636 28.2799V22.4861H32.2068V28.2799C32.2068 28.6502 31.9047 28.9507 31.5323 28.9507C31.1599 28.9507 30.8578 28.6502 30.8578 28.2799V21.8152C30.8578 21.4449 31.1599 21.1444 31.5323 21.1444H35.5381C35.9105 21.1444 36.2126 21.4449 36.2126 21.8152V28.2799Z" stroke="url(#paint20_linear_201_16493)" stroke-width="0.25" stroke-miterlimit="10"/>
<path d="M28.8632 28.2799C28.8632 28.6502 28.5611 28.9507 28.1887 28.9507C27.8163 28.9507 27.5142 28.6502 27.5142 28.2799V25.5974H24.8583V28.2799C24.8583 28.6502 24.5561 28.9507 24.1838 28.9507C23.8114 28.9507 23.5092 28.6502 23.5092 28.2799V24.9266C23.5092 24.5562 23.8114 24.2557 24.1838 24.2557H28.1887C28.5611 24.2557 28.8632 24.5562 28.8632 24.9266V28.2799Z" stroke="url(#paint21_linear_201_16493)" stroke-width="0.25" stroke-miterlimit="10"/>
<path d="M52.3255 30.6583C52.6979 30.6583 53 30.9588 53 31.3292C53 31.6995 52.6979 32 52.3255 32H21.6745C21.3021 32 21 31.6995 21 31.3292C21 30.9588 21.3021 30.6583 21.6745 30.6583H52.3255Z" stroke="url(#paint22_linear_201_16493)" stroke-width="0.25" stroke-miterlimit="10"/>
<path d="M45.9966 9.07382L48.7351 9.00045C49.1118 8.98507 49.4791 9.3695 49.421 9.76736L49.0276 12.4638C48.9764 12.8184 48.6487 13.0833 48.2635 13.0315C47.8946 12.9783 47.639 12.6376 47.6926 12.2716L47.8174 11.4158L38.5515 19.0594C38.3187 19.2525 37.9859 19.2656 37.7356 19.0935L32.321 15.3471L24.9224 22.2895C24.6539 22.5421 24.2255 22.5324 23.9686 22.2616C23.713 21.9926 23.7253 21.5672 23.9967 21.313L31.794 13.9967C32.0276 13.7801 32.3798 13.7522 32.6424 13.9347L38.0851 17.7012L46.9475 10.3909L46.0335 10.4155H46.0151C45.6506 10.4155 45.3511 10.1272 45.3406 9.76299C45.3309 9.39264 45.6242 9.0843 45.9966 9.07382Z" stroke="url(#paint23_linear_201_16493)" stroke-width="0.25" stroke-miterlimit="10"/>
<defs>
<linearGradient id="paint0_linear_201_16493" x1="64.6641" y1="64.3034" x2="36.6617" y2="-1.54255" gradientUnits="userSpaceOnUse">
<stop stop-color="white" stop-opacity="0.9"/>
<stop offset="0.04" stop-color="white" stop-opacity="0.85"/>
<stop offset="0.28" stop-color="white" stop-opacity="0.5"/>
<stop offset="0.65" stop-color="#FAFBFC" stop-opacity="0.4"/>
<stop offset="1" stop-color="#F0EFEF" stop-opacity="0.3"/>
</linearGradient>
<linearGradient id="paint1_linear_201_16493" x1="66.5005" y1="85.5" x2="42.1854" y2="82.5805" gradientUnits="userSpaceOnUse">
<stop stop-color="white" stop-opacity="0.9"/>
<stop offset="0.28" stop-color="white" stop-opacity="0.5"/>
<stop offset="0.65" stop-color="#FAFBFC" stop-opacity="0.4"/>
<stop offset="1" stop-color="#F0EFEF" stop-opacity="0"/>
</linearGradient>
<linearGradient id="paint2_linear_201_16493" x1="58.5" y1="48.5" x2="57.8155" y2="35.0906" gradientUnits="userSpaceOnUse">
<stop stop-color="white" stop-opacity="0.9"/>
<stop offset="0.04" stop-color="white" stop-opacity="0.85"/>
<stop offset="0.28" stop-color="white" stop-opacity="0.5"/>
<stop offset="0.65" stop-color="#FAFBFC" stop-opacity="0.4"/>
<stop offset="1" stop-color="#F0EFEF" stop-opacity="0.3"/>
</linearGradient>
<linearGradient id="paint3_linear_201_16493" x1="55.7165" y1="52.9218" x2="43.0202" y2="49.6176" gradientUnits="userSpaceOnUse">
<stop stop-color="white" stop-opacity="0.9"/>
<stop offset="0.28" stop-color="white" stop-opacity="0.5"/>
<stop offset="0.65" stop-color="#FAFBFC" stop-opacity="0.4"/>
<stop offset="1" stop-color="#F0EFEF" stop-opacity="0"/>
</linearGradient>
<radialGradient id="paint4_radial_201_16493" cx="0" cy="0" r="1" gradientUnits="userSpaceOnUse" gradientTransform="translate(7.23699 70.8005) scale(0.741847 6.36066)">
<stop stop-color="white"/>
<stop offset="0.07" stop-color="white" stop-opacity="0.93"/>
<stop offset="1" stop-color="white" stop-opacity="0"/>
</radialGradient>
<radialGradient id="paint5_radial_201_16493" cx="0" cy="0" r="1" gradientUnits="userSpaceOnUse" gradientTransform="translate(6.89289 70.2077) rotate(90) scale(0.741848 6.36066)">
<stop stop-color="white"/>
<stop offset="0.07" stop-color="white" stop-opacity="0.93"/>
<stop offset="1" stop-color="white" stop-opacity="0"/>
</radialGradient>
<radialGradient id="paint6_radial_201_16493" cx="0" cy="0" r="1" gradientUnits="userSpaceOnUse" gradientTransform="translate(73.237 15.8005) scale(0.741847 6.36066)">
<stop stop-color="white"/>
<stop offset="0.07" stop-color="white" stop-opacity="0.93"/>
<stop offset="1" stop-color="white" stop-opacity="0"/>
</radialGradient>
<radialGradient id="paint7_radial_201_16493" cx="0" cy="0" r="1" gradientUnits="userSpaceOnUse" gradientTransform="translate(72.8929 15.2077) rotate(90) scale(0.741848 6.36066)">
<stop stop-color="white"/>
<stop offset="0.07" stop-color="white" stop-opacity="0.93"/>
<stop offset="1" stop-color="white" stop-opacity="0"/>
</radialGradient>
<linearGradient id="paint8_linear_201_16493" x1="9.98822" y1="57.6124" x2="35.2374" y2="57.6124" gradientUnits="userSpaceOnUse">
<stop stop-color="#79A540"/>
<stop offset="0.2" stop-color="#94C63D"/>
<stop offset="0.39" stop-color="#98CA3C"/>
<stop offset="0.59" stop-color="#93C53E"/>
<stop offset="0.74" stop-color="#9DCB3B"/>
<stop offset="0.9" stop-color="#A6CE39"/>
<stop offset="1" stop-color="#A6CE39"/>
</linearGradient>
<linearGradient id="paint9_linear_201_16493" x1="26.797" y1="67.1208" x2="39.0032" y2="67.1208" gradientUnits="userSpaceOnUse">
<stop stop-color="#79A540"/>
<stop offset="0.2" stop-color="#94C63D"/>
<stop offset="0.39" stop-color="#98CA3C"/>
<stop offset="0.59" stop-color="#93C53E"/>
<stop offset="0.74" stop-color="#9DCB3B"/>
<stop offset="0.9" stop-color="#A6CE39"/>
<stop offset="1" stop-color="#A6CE39"/>
</linearGradient>
<linearGradient id="paint10_linear_201_16493" x1="20.608" y1="63.817" x2="20.608" y2="50.875" gradientUnits="userSpaceOnUse">
<stop stop-color="#79A540"/>
<stop offset="0.2" stop-color="#94C63D"/>
<stop offset="0.39" stop-color="#98CA3C"/>
<stop offset="0.59" stop-color="#93C53E"/>
<stop offset="0.74" stop-color="#9DCB3B"/>
<stop offset="0.9" stop-color="#A6CE39"/>
<stop offset="1" stop-color="#A6CE39"/>
</linearGradient>
<linearGradient id="paint11_linear_201_16493" x1="28.2405" y1="63.817" x2="28.2405" y2="50.875" gradientUnits="userSpaceOnUse">
<stop stop-color="#79A540"/>
<stop offset="0.2" stop-color="#94C63D"/>
<stop offset="0.39" stop-color="#98CA3C"/>
<stop offset="0.59" stop-color="#93C53E"/>
<stop offset="0.74" stop-color="#9DCB3B"/>
<stop offset="0.9" stop-color="#A6CE39"/>
<stop offset="1" stop-color="#A6CE39"/>
</linearGradient>
<linearGradient id="paint12_linear_201_16493" x1="36.992" y1="38.7396" x2="36.992" y2="-1.83581" gradientUnits="userSpaceOnUse">
<stop stop-color="#79A540"/>
<stop offset="0.2" stop-color="#94C63D"/>
<stop offset="0.39" stop-color="#98CA3C"/>
<stop offset="0.59" stop-color="#93C53E"/>
<stop offset="0.74" stop-color="#9DCB3B"/>
<stop offset="0.9" stop-color="#A6CE39"/>
<stop offset="1" stop-color="#A6CE39"/>
</linearGradient>
<linearGradient id="paint13_linear_201_16493" x1="36.992" y1="38.7396" x2="36.992" y2="-1.83581" gradientUnits="userSpaceOnUse">
<stop stop-color="#79A540"/>
<stop offset="0.2" stop-color="#94C63D"/>
<stop offset="0.39" stop-color="#98CA3C"/>
<stop offset="0.59" stop-color="#93C53E"/>
<stop offset="0.74" stop-color="#9DCB3B"/>
<stop offset="0.9" stop-color="#A6CE39"/>
<stop offset="1" stop-color="#A6CE39"/>
</linearGradient>
<linearGradient id="paint14_linear_201_16493" x1="36.992" y1="38.7396" x2="36.992" y2="-1.83581" gradientUnits="userSpaceOnUse">
<stop stop-color="#79A540"/>
<stop offset="0.2" stop-color="#94C63D"/>
<stop offset="0.39" stop-color="#98CA3C"/>
<stop offset="0.59" stop-color="#93C53E"/>
<stop offset="0.74" stop-color="#9DCB3B"/>
<stop offset="0.9" stop-color="#A6CE39"/>
<stop offset="1" stop-color="#A6CE39"/>
</linearGradient>
<linearGradient id="paint15_linear_201_16493" x1="36.992" y1="38.7396" x2="36.992" y2="-1.83581" gradientUnits="userSpaceOnUse">
<stop stop-color="#79A540"/>
<stop offset="0.2" stop-color="#94C63D"/>
<stop offset="0.39" stop-color="#98CA3C"/>
<stop offset="0.59" stop-color="#93C53E"/>
<stop offset="0.74" stop-color="#9DCB3B"/>
<stop offset="0.9" stop-color="#A6CE39"/>
<stop offset="1" stop-color="#A6CE39"/>
</linearGradient>
<linearGradient id="paint16_linear_201_16493" x1="36.992" y1="38.7396" x2="36.992" y2="-1.83581" gradientUnits="userSpaceOnUse">
<stop stop-color="#79A540"/>
<stop offset="0.2" stop-color="#94C63D"/>
<stop offset="0.39" stop-color="#98CA3C"/>
<stop offset="0.59" stop-color="#93C53E"/>
<stop offset="0.74" stop-color="#9DCB3B"/>
<stop offset="0.9" stop-color="#A6CE39"/>
<stop offset="1" stop-color="#A6CE39"/>
</linearGradient>
<linearGradient id="paint17_linear_201_16493" x1="36.992" y1="38.7396" x2="36.992" y2="-1.83581" gradientUnits="userSpaceOnUse">
<stop stop-color="#79A540"/>
<stop offset="0.2" stop-color="#94C63D"/>
<stop offset="0.39" stop-color="#98CA3C"/>
<stop offset="0.59" stop-color="#93C53E"/>
<stop offset="0.74" stop-color="#9DCB3B"/>
<stop offset="0.9" stop-color="#A6CE39"/>
<stop offset="1" stop-color="#A6CE39"/>
</linearGradient>
<linearGradient id="paint18_linear_201_16493" x1="37.0005" y1="32.0122" x2="37.0005" y2="9.00202" gradientUnits="userSpaceOnUse">
<stop stop-color="#79A540"/>
<stop offset="0.2" stop-color="#94C63D"/>
<stop offset="0.39" stop-color="#98CA3C"/>
<stop offset="0.59" stop-color="#93C53E"/>
<stop offset="0.74" stop-color="#9DCB3B"/>
<stop offset="0.9" stop-color="#A6CE39"/>
<stop offset="1" stop-color="#A6CE39"/>
</linearGradient>
<linearGradient id="paint19_linear_201_16493" x1="37.0005" y1="32.0122" x2="37.0005" y2="9.00202" gradientUnits="userSpaceOnUse">
<stop stop-color="#79A540"/>
<stop offset="0.2" stop-color="#94C63D"/>
<stop offset="0.39" stop-color="#98CA3C"/>
<stop offset="0.59" stop-color="#93C53E"/>
<stop offset="0.74" stop-color="#9DCB3B"/>
<stop offset="0.9" stop-color="#A6CE39"/>
<stop offset="1" stop-color="#A6CE39"/>
</linearGradient>
<linearGradient id="paint20_linear_201_16493" x1="37.0005" y1="32.0122" x2="37.0005" y2="9.00202" gradientUnits="userSpaceOnUse">
<stop stop-color="#79A540"/>
<stop offset="0.2" stop-color="#94C63D"/>
<stop offset="0.39" stop-color="#98CA3C"/>
<stop offset="0.59" stop-color="#93C53E"/>
<stop offset="0.74" stop-color="#9DCB3B"/>
<stop offset="0.9" stop-color="#A6CE39"/>
<stop offset="1" stop-color="#A6CE39"/>
</linearGradient>
<linearGradient id="paint21_linear_201_16493" x1="37.0005" y1="32.0122" x2="37.0005" y2="9.00202" gradientUnits="userSpaceOnUse">
<stop stop-color="#79A540"/>
<stop offset="0.2" stop-color="#94C63D"/>
<stop offset="0.39" stop-color="#98CA3C"/>
<stop offset="0.59" stop-color="#93C53E"/>
<stop offset="0.74" stop-color="#9DCB3B"/>
<stop offset="0.9" stop-color="#A6CE39"/>
<stop offset="1" stop-color="#A6CE39"/>
</linearGradient>
<linearGradient id="paint22_linear_201_16493" x1="37.0005" y1="32.0122" x2="37.0005" y2="9.00202" gradientUnits="userSpaceOnUse">
<stop stop-color="#79A540"/>
<stop offset="0.2" stop-color="#94C63D"/>
<stop offset="0.39" stop-color="#98CA3C"/>
<stop offset="0.59" stop-color="#93C53E"/>
<stop offset="0.74" stop-color="#9DCB3B"/>
<stop offset="0.9" stop-color="#A6CE39"/>
<stop offset="1" stop-color="#A6CE39"/>
</linearGradient>
<linearGradient id="paint23_linear_201_16493" x1="37.0005" y1="32.0122" x2="37.0005" y2="9.00202" gradientUnits="userSpaceOnUse">
<stop stop-color="#79A540"/>
<stop offset="0.2" stop-color="#94C63D"/>
<stop offset="0.39" stop-color="#98CA3C"/>
<stop offset="0.59" stop-color="#93C53E"/>
<stop offset="0.74" stop-color="#9DCB3B"/>
<stop offset="0.9" stop-color="#A6CE39"/>
<stop offset="1" stop-color="#A6CE39"/>
</linearGradient>
</defs>
</svg>
