<svg width="80" height="80" viewBox="0 0 80 80" fill="none" xmlns="http://www.w3.org/2000/svg">
<path d="M73.25 63.2188H70.2812C69.8125 63.2188 69.3438 62.75 69.3438 62.2812C69.3438 61.6562 69.8125 61.3438 70.2812 61.3438H72.3125V59.3125C72.3125 58.8438 72.7812 58.375 73.25 58.375C73.7188 58.375 74.1875 58.8438 74.1875 59.3125V62.2812C74.1875 62.75 73.7188 63.2188 73.25 63.2188Z" fill="url(#paint0_linear_903_6016)"/>
<path d="M31.6875 63.2188H28.7188C28.25 63.2188 27.7812 62.75 27.7812 62.2812V59.3125C27.7812 58.8438 28.25 58.375 28.7188 58.375C29.3438 58.375 29.6562 58.8438 29.6562 59.3125V61.3438H31.6875C32.1562 61.3438 32.625 61.6562 32.625 62.2812C32.625 62.75 32.1562 63.2188 31.6875 63.2188Z" fill="url(#paint1_linear_903_6016)"/>
<path fill-rule="evenodd" clip-rule="evenodd" d="M76.2188 22.5938C78.0938 22.5938 79.6563 24.1562 79.6563 26.0312V36.1875C79.6563 37.6233 78.74 38.8759 77.4688 39.3839V63.5312C77.4688 64.6456 77.0837 65.6775 76.4406 66.5H79.0312C79.5 66.5 79.9688 66.8125 79.9688 67.4375C79.9688 67.9062 79.5 68.375 79.0312 68.375H72.625H29.3438H22.9375C22.4688 68.375 22 67.9062 22 67.4375C22 66.8125 22.4688 66.5 22.9375 66.5H25.5282C24.885 65.6775 24.5 64.6456 24.5 63.5312C24.5 63.5312 24.5 47.375 24.5 46.4375C24.5 45.5 26.375 45.5 26.375 46.4375C26.375 47.375 26.375 63.5312 26.375 63.5312C26.375 65.0938 27.7812 66.5 29.3438 66.5H72.625C74.1875 66.5 75.5938 65.0938 75.5938 63.5312V39.625H70.125V42.75C70.125 43.375 69.6562 43.6875 69.1875 43.6875H64.3438C63.875 43.6875 63.4062 43.375 63.4062 42.75V39.625H47.1562V42.75C47.1562 43.375 46.6875 43.6875 46.2188 43.6875H41.2188C40.75 43.6875 40.2812 43.375 40.2812 42.75V39.625H36.75L34.875 37.75H40.2813V35.25C40.2813 34.7812 40.75 34.3125 41.2188 34.3125H46.2188C46.6875 34.3125 47.1563 34.7812 47.1563 35.25V37.75H63.4062V35.25C63.4062 34.7812 63.875 34.3125 64.3438 34.3125H69.1875C69.6562 34.3125 70.125 34.7812 70.125 35.25V37.75H76.2188C77 37.75 77.7813 36.9688 77.7813 36.1875V26.0312C77.7813 25.25 77 24.4688 76.2188 24.4688C76.2188 24.4688 35.4375 24.4688 34.9688 24.4688C34.5 24.4688 34.5 22.5938 35 22.5938C35.5 22.5938 38.875 22.5938 38.875 22.5938V17.5625C38.875 16.9375 39.3438 16.625 39.8125 16.625H43.6836C43.6953 15.7917 44.3438 14.125 46.8438 14.125H55.4375C57.8125 14.125 58.5261 15.7917 58.5861 16.625H62.1562C62.7812 16.625 63.0938 16.9375 63.0938 17.5625V22.5938H76.2188ZM65.2812 36.1875H68.25V41.8125H65.2812V36.1875ZM42.1563 36.1875H45.2813L45.2812 41.8125H42.1562L42.1563 36.1875ZM46.8438 18.9688C46.0625 18.9688 45.4375 18.3438 45.4375 17.5625C45.4375 16.625 46.0625 16 46.8438 16H55.4375C56.2188 16 56.8438 16.625 56.8438 17.5625C56.8438 18.3438 56.2188 18.9688 55.4375 18.9688H46.8438ZM61.2188 22.5938H40.75V18.5H43.7188C44.0312 19.75 45.4375 20.8438 46.8438 20.8438H55.4375C56.8438 20.8438 58.25 19.75 58.5625 18.5H61.2188V22.5938Z" fill="url(#paint2_linear_903_6016)"/>
<path d="M19.8438 42C13.5532 42 8.3125 36.9071 8.3125 30.4688C8.3125 24.1908 13.5489 19.0938 19.8438 19.0938C26.1386 19.0938 31.375 24.1908 31.375 30.4688C31.375 36.9071 26.1343 42 19.8438 42ZM19.8438 19.9688C13.9477 19.9688 9.1875 24.7188 9.1875 30.4688C9.1875 36.3699 13.9426 41.125 19.8438 41.125C25.7449 41.125 30.5 36.3699 30.5 30.4688C30.5 24.7188 25.7398 19.9688 19.8438 19.9688Z" fill="url(#paint3_linear_903_6016)" stroke="#9FCB3A"/>
<path d="M24.4439 28.0003H24.6333C24.6334 28.0004 24.6335 28.0005 24.6336 28.0006C24.6786 28.0456 24.7039 28.1066 24.7039 28.1703C24.7039 28.2339 24.6786 28.295 24.6336 28.34C24.5886 28.385 24.5276 28.4103 24.4639 28.4103H22.9839H22.5295L22.4862 28.8626C22.4009 29.7527 21.9866 30.5789 21.3242 31.1796C20.6618 31.7803 19.7991 32.1122 18.905 32.1103H18.9039H17.9039H16.835L17.5201 32.9307L20.8601 36.9307L20.8654 36.9371L20.871 36.9433C20.8929 36.9678 20.9098 36.9965 20.9206 37.0276C20.9315 37.0586 20.9361 37.0916 20.9343 37.1244C20.9324 37.1573 20.9241 37.1895 20.9098 37.2192C20.8955 37.2488 20.8755 37.2754 20.8509 37.2973C20.8263 37.3193 20.7977 37.3361 20.7666 37.347C20.7356 37.3578 20.7026 37.3625 20.6698 37.3606C20.6369 37.3587 20.6047 37.3504 20.575 37.3361C20.5465 37.3224 20.5209 37.3034 20.4995 37.2801L16.0853 32.1203L16.0539 32.0737V32.0403V31.977L16.1811 31.808L16.1581 31.7022L16.162 31.7003L18.8939 31.7003L18.8965 31.7003C19.6368 31.6964 20.3511 31.427 20.9094 30.9409C21.4678 30.4548 21.8331 29.7844 21.9388 29.0517L22.0213 28.4803H21.4439H16.2639C16.2003 28.4803 16.1392 28.455 16.0942 28.41C16.0492 28.365 16.0239 28.3039 16.0239 28.2403C16.0239 28.1766 16.0492 28.1156 16.0942 28.0706C16.1392 28.0256 16.2003 28.0003 16.2639 28.0003H21.2639H22.0475L21.7174 27.2896C21.4641 26.7444 21.0558 26.2858 20.5435 25.9712C20.0337 25.6581 19.4435 25.5014 18.8457 25.5203H16.3006C16.2479 25.5096 16.1998 25.482 16.1637 25.4416C16.1229 25.3958 16.1004 25.3366 16.1004 25.2753C16.1004 25.214 16.1229 25.1548 16.1637 25.109C16.1998 25.0685 16.2479 25.041 16.3006 25.0303H24.4072C24.46 25.041 24.5081 25.0685 24.5441 25.109C24.5849 25.1548 24.6075 25.214 24.6075 25.2753C24.6075 25.3366 24.5849 25.3958 24.5441 25.4416C24.5081 25.482 24.46 25.5096 24.4072 25.5203H22.0639H21.0193L21.6745 26.3339C21.9795 26.7126 22.1994 27.1525 22.3194 27.6236L22.4153 28.0003H22.8039H24.4439Z" fill="url(#paint4_linear_903_6016)" stroke="#9FCB3A"/>
<path d="M10.1004 14.3369C10.1004 17.8439 9.76662 20.6931 9.35545 20.6931C8.94428 20.6931 8.60083 17.8439 8.60083 14.3369C8.60083 10.8298 8.94912 8 9.35545 8C9.76178 8 10.1004 10.825 10.1004 14.3369Z" fill="url(#paint5_radial_903_6016)"/>
<path d="M9.35626 15.0723C5.84922 15.0723 3.00005 14.7385 3.00005 14.3274C3.00005 13.9162 5.84922 13.5728 9.35626 13.5728C12.8633 13.5728 15.6931 13.921 15.6931 14.3274C15.6931 14.7337 12.8681 15.0723 9.35626 15.0723Z" fill="url(#paint6_radial_903_6016)"/>
<path fill-rule="evenodd" clip-rule="evenodd" d="M22.3438 50.3125H17.3438C16.4062 50.3125 15.625 49.6875 15.625 48.75V45C14.7883 44.7609 14.043 44.4305 13.2493 44.0785C13.0055 43.9703 12.7571 43.8602 12.5 43.75L10 46.25C9.6875 46.7188 9.21875 46.875 8.75 46.875C8.28125 46.875 7.96875 46.7188 7.65625 46.25L4.0625 42.8125C3.4375 42.1875 3.4375 41.0938 4.0625 40.4688L6.71875 37.8125C6.09375 36.875 5.625 35.7812 5.3125 34.6875H1.71875C0.78125 34.6875 0 33.9062 0 32.9688V27.9688C0 27.1875 0.78125 26.4062 1.71875 26.4062H5.3125C5.625 25.3125 6.09375 24.2188 6.71875 23.2812L4.0625 20.625C3.4375 20 3.4375 18.9062 4.0625 18.2812L7.65625 14.6875C7.96875 14.375 8.28125 14.2188 8.75 14.2188C9.21875 14.2188 9.6875 14.375 10 14.6875L12.5 17.3438C13.5938 16.7188 14.5312 16.4062 15.625 16.0938V12.3438C15.625 11.4062 16.4062 10.625 17.3438 10.625H22.3438C23.2812 10.625 24.0625 11.4062 24.0625 12.3438V16.0938C25.1562 16.4062 26.0938 16.7188 27.1875 17.3438L29.8438 14.6875C30.1562 14.375 30.4688 14.2188 30.9375 14.2188C31.4062 14.2188 31.875 14.375 32.1875 14.6875L35.625 18.2812C35.9375 18.5938 36.0938 18.9062 36.0938 19.375C36.0938 19.8438 35.9375 20.3125 35.625 20.625L33.125 23.2812C33.5938 24.2188 34.0625 25.3125 34.375 26.4062H37.9688C38.9062 26.4062 39.6875 27.1875 39.6875 27.9688V32.9688C39.6875 33.9062 38.9062 34.6875 37.9688 34.6875H34.375C34.0625 35.7812 33.5938 36.875 33.125 37.8125L35.625 40.4688C35.9375 40.7812 36.0938 41.25 36.0938 41.5625C36.0938 42.0312 35.9375 42.5 35.625 42.8125L32.1875 46.25C31.875 46.7188 31.4062 46.875 30.9375 46.875C30.4688 46.875 30.1562 46.7188 29.8438 46.25L27.1875 43.75C26.9304 43.8602 26.682 43.9703 26.4382 44.0785C25.6445 44.4305 24.8992 44.7609 24.0625 45V48.75C24.0625 49.6875 23.2812 50.3125 22.3438 50.3125ZM22.1875 48.4375H17.5V44.2188C17.5 43.9062 17.3438 43.4375 16.875 43.4375C15.4688 43.125 14.0625 42.5 12.9688 41.7188C12.5 41.5625 12.0312 41.5625 11.7188 41.875L8.75 44.8438L5.46875 41.5625L8.4375 38.5938C8.75 38.2812 8.90625 37.8125 8.59375 37.5C7.8125 36.25 7.34375 35 7.03125 33.5938C6.875 33.125 6.5625 32.8125 6.09375 32.8125H1.875V28.2812H6.09375C6.5625 28.2812 6.875 27.9688 7.03125 27.5C7.34375 26.0938 7.8125 24.8438 8.59375 23.5938C8.90625 23.125 8.75 22.6562 8.4375 22.3438L5.46875 19.375L8.75 16.25L11.7188 19.2188C12.0312 19.5312 12.5 19.5312 12.9688 19.375C14.0625 18.5938 15.4688 17.9688 16.875 17.6562C17.3438 17.5 17.5 17.1875 17.5 16.7188V12.5H22.1875V16.7188C22.1875 17.1875 22.5 17.5 22.8125 17.6562C24.2188 17.9688 25.625 18.5938 26.875 19.375C27.1875 19.5312 27.6562 19.5312 27.9688 19.2188L30.9375 16.25L34.2188 19.375L31.25 22.3438C30.9375 22.6562 30.7812 23.125 31.0938 23.5938C31.875 24.8438 32.3438 26.0938 32.6562 27.5C32.8125 27.9688 33.125 28.2812 33.5938 28.2812H37.8125V32.8125H33.5938C33.125 32.8125 32.8125 33.125 32.6562 33.5938C32.3438 35 31.875 36.25 31.0938 37.5C30.7812 37.8125 30.9375 38.2812 31.25 38.5938L34.2188 41.5625L30.9375 44.8438L27.9688 41.875C27.6562 41.5625 27.1875 41.5625 26.875 41.7188C25.625 42.5 24.2188 43.125 22.8125 43.4375C22.5 43.4375 22.1875 43.9062 22.1875 44.2188V48.4375Z" fill="url(#paint7_linear_903_6016)"/>
<defs>
<linearGradient id="paint0_linear_903_6016" x1="68" y1="67" x2="65.7733" y2="13.4287" gradientUnits="userSpaceOnUse">
<stop stop-color="white" stop-opacity="0.9"/>
<stop offset="0.04" stop-color="white" stop-opacity="0.85"/>
<stop offset="0.28" stop-color="white" stop-opacity="0.5"/>
<stop offset="0.65" stop-color="#FAFBFC" stop-opacity="0.4"/>
<stop offset="1" stop-color="#F0EFEF" stop-opacity="0.3"/>
</linearGradient>
<linearGradient id="paint1_linear_903_6016" x1="68" y1="67" x2="65.7733" y2="13.4287" gradientUnits="userSpaceOnUse">
<stop stop-color="white" stop-opacity="0.9"/>
<stop offset="0.04" stop-color="white" stop-opacity="0.85"/>
<stop offset="0.28" stop-color="white" stop-opacity="0.5"/>
<stop offset="0.65" stop-color="#FAFBFC" stop-opacity="0.4"/>
<stop offset="1" stop-color="#F0EFEF" stop-opacity="0.3"/>
</linearGradient>
<linearGradient id="paint2_linear_903_6016" x1="68" y1="67" x2="65.7733" y2="13.4287" gradientUnits="userSpaceOnUse">
<stop stop-color="white" stop-opacity="0.9"/>
<stop offset="0.04" stop-color="white" stop-opacity="0.85"/>
<stop offset="0.28" stop-color="white" stop-opacity="0.5"/>
<stop offset="0.65" stop-color="#FAFBFC" stop-opacity="0.4"/>
<stop offset="1" stop-color="#F0EFEF" stop-opacity="0.3"/>
</linearGradient>
<linearGradient id="paint3_linear_903_6016" x1="29" y1="41.5" x2="23.144" y2="16.9039" gradientUnits="userSpaceOnUse">
<stop stop-color="white" stop-opacity="0.9"/>
<stop offset="0.04" stop-color="white" stop-opacity="0.85"/>
<stop offset="0.28" stop-color="white" stop-opacity="0.5"/>
<stop offset="0.65" stop-color="#FAFBFC" stop-opacity="0.4"/>
<stop offset="1" stop-color="#F0EFEF" stop-opacity="0.3"/>
</linearGradient>
<linearGradient id="paint4_linear_903_6016" x1="23.8089" y1="35.3028" x2="19.0077" y2="24.2782" gradientUnits="userSpaceOnUse">
<stop stop-color="white" stop-opacity="0.9"/>
<stop offset="0.04" stop-color="white" stop-opacity="0.85"/>
<stop offset="0.28" stop-color="white" stop-opacity="0.5"/>
<stop offset="0.65" stop-color="#FAFBFC" stop-opacity="0.4"/>
<stop offset="1" stop-color="#F0EFEF" stop-opacity="0.3"/>
</linearGradient>
<radialGradient id="paint5_radial_903_6016" cx="0" cy="0" r="1" gradientUnits="userSpaceOnUse" gradientTransform="translate(9.23626 14.8005) scale(0.741847 6.36066)">
<stop stop-color="white"/>
<stop offset="0.07" stop-color="white" stop-opacity="0.93"/>
<stop offset="1" stop-color="white" stop-opacity="0"/>
</radialGradient>
<radialGradient id="paint6_radial_903_6016" cx="0" cy="0" r="1" gradientUnits="userSpaceOnUse" gradientTransform="translate(8.89265 14.2082) rotate(90) scale(0.741848 6.36066)">
<stop stop-color="white"/>
<stop offset="0.07" stop-color="white" stop-opacity="0.93"/>
<stop offset="1" stop-color="white" stop-opacity="0"/>
</radialGradient>
<linearGradient id="paint7_linear_903_6016" x1="33.9681" y1="42.6962" x2="22.7427" y2="7.19927" gradientUnits="userSpaceOnUse">
<stop stop-color="white" stop-opacity="0.9"/>
<stop offset="0.04" stop-color="white" stop-opacity="0.85"/>
<stop offset="0.28" stop-color="white" stop-opacity="0.5"/>
<stop offset="0.65" stop-color="#FAFBFC" stop-opacity="0.4"/>
<stop offset="1" stop-color="#F0EFEF" stop-opacity="0.3"/>
</linearGradient>
</defs>
</svg>
