<svg width="71" height="82" viewBox="0 0 71 82" fill="none" xmlns="http://www.w3.org/2000/svg">
<path d="M40.1888 38.8146C39.8452 37.4836 39.0696 36.3042 37.9837 35.4613C36.8978 34.6184 35.5629 34.1596 34.1883 34.1568H5.74875C4.18565 34.2758 2.72509 34.9805 1.65922 36.13C0.593353 37.2795 0.000766946 38.7891 0 40.3567V45.7278C0.514031 56.0294 11.7388 59.0191 20.1941 59.0191C23.0241 59.0178 25.8431 58.6655 28.5864 57.9701L26.4883 55.872C25.9411 55.3236 25.5157 54.6658 25.24 53.9418C23.9107 54.1592 22.5685 54.2889 21.2221 54.3299H19.208C15.6958 54.3044 12.2324 53.5057 9.06373 51.9906C6.06347 50.375 4.65775 48.1616 4.65775 45.0249V40.0525C4.72216 39.7558 4.86989 39.4837 5.0836 39.2682C5.2973 39.0526 5.56809 38.9025 5.86415 38.8356L40.1888 38.8146Z" fill="url(#paint0_linear_959_5970)"/>
<path d="M40.1888 38.8146C39.8452 37.4836 39.0696 36.3042 37.9837 35.4613C36.8978 34.6184 35.5629 34.1596 34.1883 34.1568H5.74875C4.18565 34.2758 2.72509 34.9805 1.65922 36.13C0.593353 37.2795 0.000766946 38.7891 0 40.3567V45.7278C0.514031 56.0294 11.7388 59.0191 20.1941 59.0191C23.0241 59.0178 25.8431 58.6655 28.5864 57.9701L26.4883 55.872C25.9411 55.3236 25.5157 54.6658 25.24 53.9418C23.9107 54.1592 22.5685 54.2889 21.2221 54.3299H19.208C15.6958 54.3044 12.2324 53.5057 9.06373 51.9906C6.06347 50.375 4.65775 48.1616 4.65775 45.0249V40.0525C4.72216 39.7558 4.86989 39.4837 5.0836 39.2682C5.2973 39.0526 5.56809 38.9025 5.86415 38.8356L40.1888 38.8146Z" fill="url(#paint1_linear_959_5970)"/>
<path d="M62.1243 43.4723V43.5667L58.9772 40.4196C58.3599 39.8058 57.6045 39.3489 56.7742 39.0873C56.5953 38.9707 56.396 38.8889 56.1867 38.8461H43.315C43.063 37.3141 42.4279 35.8706 41.4687 34.6499L41.049 34.1568H55.9035C57.4711 34.1576 58.9806 34.7502 60.1301 35.8161C61.2797 36.8819 61.9844 38.3425 62.1033 39.9056V40.3672L62.1243 43.4723Z" fill="url(#paint2_linear_959_5970)"/>
<path d="M62.1243 43.4723V43.5667L58.9772 40.4196C58.3599 39.8058 57.6045 39.3489 56.7742 39.0873C56.5953 38.9707 56.396 38.8889 56.1867 38.8461H43.315C43.063 37.3141 42.4279 35.8706 41.4687 34.6499L41.049 34.1568H55.9035C57.4711 34.1576 58.9806 34.7502 60.1301 35.8161C61.2797 36.8819 61.9844 38.3425 62.1033 39.9056V40.3672L62.1243 43.4723Z" fill="url(#paint3_linear_959_5970)"/>
<path d="M34.1884 13.9627C34.1863 11.2004 33.3656 8.50072 31.8299 6.20467C30.2941 3.90862 28.1123 2.11926 25.5601 1.06265C23.0078 0.00604141 20.1997 -0.270403 17.4904 0.268244C14.7811 0.806891 12.2923 2.13646 10.3383 4.08897C8.38432 6.04148 7.05289 8.52934 6.51221 11.2382C5.97153 13.9471 6.24587 16.7554 7.30056 19.3085C8.35526 21.8615 10.143 24.0446 12.4379 25.5821C14.7328 27.1196 17.4319 27.9423 20.1942 27.9465C22.0314 27.9479 23.851 27.5872 25.5488 26.885C27.2465 26.1829 28.7893 25.1531 30.089 23.8545C31.3886 22.5558 32.4196 21.0138 33.123 19.3165C33.8264 17.6192 34.1884 15.8 34.1884 13.9627ZM10.8997 13.9627C10.9017 12.1208 11.4498 10.3207 12.4747 8.7902C13.4996 7.25965 14.9552 6.06729 16.6575 5.36383C18.3599 4.66037 20.2326 4.47739 22.039 4.83802C23.8453 5.19864 25.5042 6.08668 26.8059 7.38989C28.1077 8.69311 28.9938 10.353 29.3524 12.1597C29.711 13.9665 29.5259 15.839 28.8206 17.5405C28.1152 19.2421 26.9212 20.6964 25.3895 21.7195C23.8578 22.7427 22.0572 23.2887 20.2152 23.2887C18.9896 23.2901 17.7757 23.0499 16.643 22.5819C15.5104 22.1138 14.481 21.4271 13.6139 20.5609C12.7468 19.6948 12.0589 18.6662 11.5896 17.5341C11.1203 16.4019 10.8787 15.1883 10.8787 13.9627H10.8997Z" fill="url(#paint4_linear_959_5970)"/>
<path d="M34.1884 13.9627C34.1863 11.2004 33.3656 8.50072 31.8299 6.20467C30.2941 3.90862 28.1123 2.11926 25.5601 1.06265C23.0078 0.00604141 20.1997 -0.270403 17.4904 0.268244C14.7811 0.806891 12.2923 2.13646 10.3383 4.08897C8.38432 6.04148 7.05289 8.52934 6.51221 11.2382C5.97153 13.9471 6.24587 16.7554 7.30056 19.3085C8.35526 21.8615 10.143 24.0446 12.4379 25.5821C14.7328 27.1196 17.4319 27.9423 20.1942 27.9465C22.0314 27.9479 23.851 27.5872 25.5488 26.885C27.2465 26.1829 28.7893 25.1531 30.089 23.8545C31.3886 22.5558 32.4196 21.0138 33.123 19.3165C33.8264 17.6192 34.1884 15.8 34.1884 13.9627ZM10.8997 13.9627C10.9017 12.1208 11.4498 10.3207 12.4747 8.7902C13.4996 7.25965 14.9552 6.06729 16.6575 5.36383C18.3599 4.66037 20.2326 4.47739 22.039 4.83802C23.8453 5.19864 25.5042 6.08668 26.8059 7.38989C28.1077 8.69311 28.9938 10.353 29.3524 12.1597C29.711 13.9665 29.5259 15.839 28.8206 17.5405C28.1152 19.2421 26.9212 20.6964 25.3895 21.7195C23.8578 22.7427 22.0572 23.2887 20.2152 23.2887C18.9896 23.2901 17.7757 23.0499 16.643 22.5819C15.5104 22.1138 14.481 21.4271 13.6139 20.5609C12.7468 19.6948 12.0589 18.6662 11.5896 17.5341C11.1203 16.4019 10.8787 15.1883 10.8787 13.9627H10.8997Z" fill="url(#paint5_linear_959_5970)"/>
<path d="M59.0191 17.0573C59.017 14.9062 58.3772 12.804 57.1806 11.0164C55.984 9.22879 54.2843 7.83609 52.2963 7.01433C50.3083 6.19256 48.1213 5.97863 46.0118 6.39956C43.9022 6.8205 41.9648 7.85741 40.4445 9.37922C38.9241 10.901 37.8891 12.8394 37.4702 14.9494C37.0513 17.0593 37.2673 19.2461 38.091 21.2333C38.9147 23.2205 40.309 24.9189 42.0978 26.1138C43.8865 27.3086 45.9894 27.9464 48.1405 27.9464C49.5704 27.9478 50.9865 27.667 52.3076 27.1201C53.6288 26.5733 54.829 25.7711 55.8396 24.7595C56.8502 23.748 57.6512 22.5469 58.1968 21.2252C58.7424 19.9036 59.0218 18.4872 59.0191 17.0573ZM41.9302 17.0573C41.9322 15.8295 42.2982 14.6298 42.9819 13.6099C43.6656 12.59 44.6362 11.7957 45.7712 11.3272C46.9061 10.8588 48.1545 10.7373 49.3585 10.9781C50.5625 11.2189 51.6681 11.8112 52.5356 12.6802C53.403 13.5491 53.9935 14.6557 54.2323 15.8601C54.471 17.0645 54.3474 18.3127 53.8771 19.4468C53.4067 20.581 52.6107 21.5503 51.5897 22.2323C50.5686 22.9142 49.3683 23.2782 48.1405 23.2782C46.4925 23.2754 44.9129 22.6187 43.7485 21.4524C42.5841 20.2861 41.9302 18.7054 41.9302 17.0573Z" fill="url(#paint6_linear_959_5970)"/>
<path d="M59.0191 17.0573C59.017 14.9062 58.3772 12.804 57.1806 11.0164C55.984 9.22879 54.2843 7.83609 52.2963 7.01433C50.3083 6.19256 48.1213 5.97863 46.0118 6.39956C43.9022 6.8205 41.9648 7.85741 40.4445 9.37922C38.9241 10.901 37.8891 12.8394 37.4702 14.9494C37.0513 17.0593 37.2673 19.2461 38.091 21.2333C38.9147 23.2205 40.309 24.9189 42.0978 26.1138C43.8865 27.3086 45.9894 27.9464 48.1405 27.9464C49.5704 27.9478 50.9865 27.667 52.3076 27.1201C53.6288 26.5733 54.829 25.7711 55.8396 24.7595C56.8502 23.748 57.6512 22.5469 58.1968 21.2252C58.7424 19.9036 59.0218 18.4872 59.0191 17.0573ZM41.9302 17.0573C41.9322 15.8295 42.2982 14.6298 42.9819 13.6099C43.6656 12.59 44.6362 11.7957 45.7712 11.3272C46.9061 10.8588 48.1545 10.7373 49.3585 10.9781C50.5625 11.2189 51.6681 11.8112 52.5356 12.6802C53.403 13.5491 53.9935 14.6557 54.2323 15.8601C54.471 17.0645 54.3474 18.3127 53.8771 19.4468C53.4067 20.581 52.6107 21.5503 51.5897 22.2323C50.5686 22.9142 49.3683 23.2782 48.1405 23.2782C46.4925 23.2754 44.9129 22.6187 43.7485 21.4524C42.5841 20.2861 41.9302 18.7054 41.9302 17.0573Z" fill="url(#paint7_linear_959_5970)"/>
<path d="M54.8236 58.4588C54.9321 57.9009 54.9873 57.3339 54.9883 56.7655C54.9883 51.8118 50.9803 47.8052 46.0275 47.8052C41.0733 47.8052 37.0667 51.8127 37.0667 56.7655C37.0667 61.7193 41.0742 65.7268 46.0275 65.7268C46.6085 65.7268 47.1729 65.6665 47.7226 65.5616L47.7226 62.4677C47.1821 62.6282 46.62 62.74 46.0275 62.74C42.7256 62.74 40.0539 60.0674 40.0539 56.766C40.0539 53.4641 42.7261 50.7924 46.0275 50.7924C49.3289 50.7924 52.0015 53.4641 52.0015 56.766C52.0015 57.3585 51.8888 57.9178 51.7283 58.4588L54.8236 58.4588Z" fill="#94C63E"/>
<path d="M57.8999 58.0764C57.9494 57.6415 57.9748 57.2041 57.9758 56.7664C57.9758 50.1631 52.6315 44.8188 46.0278 44.8188C39.424 44.8188 34.0797 50.1631 34.0797 56.7664C34.0797 63.3706 39.424 68.7139 46.0278 68.7139C46.4717 68.7139 46.9091 68.6863 47.3401 68.638L49.8821 71.1814C48.6507 71.5089 47.3631 71.7007 46.0273 71.7007C37.7721 71.7007 31.0929 65.0211 31.093 56.7659C31.093 48.5117 37.7726 41.8315 46.0273 41.8315C54.2825 41.8315 60.9617 48.5117 60.9617 56.7664C60.9617 58.1022 60.7698 59.3888 60.4428 60.6198L57.8999 58.0764Z" fill="url(#paint8_linear_959_5970)" stroke="url(#paint9_linear_959_5970)" stroke-width="0.25" stroke-miterlimit="10"/>
<path d="M50.7093 67.7831L57.6125 74.6881L57.6125 70.463L60.3449 73.1945L62.4554 71.0822L59.7243 68.3503L63.949 68.3503L57.0453 61.4461L52.8193 61.4461L48.9033 57.5306C48.9682 57.285 49.0146 57.0315 49.0146 56.7661C49.0148 56.3738 48.9376 55.9853 48.7876 55.6228C48.6375 55.2603 48.4175 54.9309 48.14 54.6535C47.8626 54.3761 47.5332 54.1562 47.1707 54.0062C46.8082 53.8561 46.4197 53.7791 46.0274 53.7793C45.635 53.7789 45.2465 53.8559 44.884 54.0059C44.5214 54.1559 44.192 54.3759 43.9146 54.6533C43.6372 54.9307 43.4172 55.2601 43.2672 55.6227C43.1172 55.9852 43.0402 56.3737 43.0406 56.7661C43.0404 57.1584 43.1174 57.5469 43.2674 57.9094C43.4175 58.2719 43.6374 58.6013 43.9148 58.8788C44.1922 59.1562 44.5216 59.3762 44.8841 59.5263C45.2465 59.6764 45.6351 59.7535 46.0274 59.7533C46.2858 59.7503 46.5428 59.713 46.7914 59.6425L50.7088 63.5598L50.7093 67.7831Z" fill="#96C83D"/>
<path d="M63.1004 43.3369C63.1004 46.8439 62.7666 49.6931 62.3554 49.6931C61.9443 49.6931 61.6008 46.8439 61.6008 43.3369C61.6008 39.8298 61.9491 37 62.3554 37C62.7618 37 63.1004 39.825 63.1004 43.3369Z" fill="url(#paint10_radial_959_5970)"/>
<path d="M62.3563 44.0723C58.8492 44.0723 56 43.7385 56 43.3274C56 42.9162 58.8492 42.5728 62.3563 42.5728C65.8633 42.5728 68.6931 42.921 68.6931 43.3274C68.6931 43.7337 65.8681 44.0723 62.3563 44.0723Z" fill="url(#paint11_radial_959_5970)"/>
<path d="M9.10039 6.33686C9.10039 9.8439 8.76662 12.6931 8.35545 12.6931C7.94428 12.6931 7.60083 9.8439 7.60083 6.33686C7.60083 2.82982 7.94912 0 8.35545 0C8.76178 0 9.10039 2.82498 9.10039 6.33686Z" fill="url(#paint12_radial_959_5970)"/>
<path d="M8.35626 7.07232C4.84922 7.07231 2.00005 6.73854 2.00005 6.32737C2.00005 5.9162 4.84922 5.57275 8.35626 5.57275C11.8633 5.57275 14.6931 5.92104 14.6931 6.32737C14.6931 6.73371 11.8681 7.07232 8.35626 7.07232Z" fill="url(#paint13_radial_959_5970)"/>
<defs>
<linearGradient id="paint0_linear_959_5970" x1="53.1715" y1="47.693" x2="37.1709" y2="-5.56633" gradientUnits="userSpaceOnUse">
<stop stop-color="white" stop-opacity="0.9"/>
<stop offset="0.04" stop-color="white" stop-opacity="0.85"/>
<stop offset="0.28" stop-color="white" stop-opacity="0.5"/>
<stop offset="0.65" stop-color="#FAFBFC" stop-opacity="0.4"/>
<stop offset="1" stop-color="#F0EFEF" stop-opacity="0.3"/>
</linearGradient>
<linearGradient id="paint1_linear_959_5970" x1="53.1715" y1="47.693" x2="37.1709" y2="-5.56633" gradientUnits="userSpaceOnUse">
<stop stop-color="white" stop-opacity="0.9"/>
<stop offset="0.04" stop-color="white" stop-opacity="0.85"/>
<stop offset="0.28" stop-color="white" stop-opacity="0.5"/>
<stop offset="0.65" stop-color="#FAFBFC" stop-opacity="0.4"/>
<stop offset="1" stop-color="#F0EFEF" stop-opacity="0.3"/>
</linearGradient>
<linearGradient id="paint2_linear_959_5970" x1="53.1715" y1="47.693" x2="37.1709" y2="-5.56633" gradientUnits="userSpaceOnUse">
<stop stop-color="white" stop-opacity="0.9"/>
<stop offset="0.04" stop-color="white" stop-opacity="0.85"/>
<stop offset="0.28" stop-color="white" stop-opacity="0.5"/>
<stop offset="0.65" stop-color="#FAFBFC" stop-opacity="0.4"/>
<stop offset="1" stop-color="#F0EFEF" stop-opacity="0.3"/>
</linearGradient>
<linearGradient id="paint3_linear_959_5970" x1="53.1715" y1="47.693" x2="37.1709" y2="-5.56633" gradientUnits="userSpaceOnUse">
<stop stop-color="white" stop-opacity="0.9"/>
<stop offset="0.04" stop-color="white" stop-opacity="0.85"/>
<stop offset="0.28" stop-color="white" stop-opacity="0.5"/>
<stop offset="0.65" stop-color="#FAFBFC" stop-opacity="0.4"/>
<stop offset="1" stop-color="#F0EFEF" stop-opacity="0.3"/>
</linearGradient>
<linearGradient id="paint4_linear_959_5970" x1="53.1715" y1="47.693" x2="37.1709" y2="-5.56633" gradientUnits="userSpaceOnUse">
<stop stop-color="white" stop-opacity="0.9"/>
<stop offset="0.04" stop-color="white" stop-opacity="0.85"/>
<stop offset="0.28" stop-color="white" stop-opacity="0.5"/>
<stop offset="0.65" stop-color="#FAFBFC" stop-opacity="0.4"/>
<stop offset="1" stop-color="#F0EFEF" stop-opacity="0.3"/>
</linearGradient>
<linearGradient id="paint5_linear_959_5970" x1="53.1715" y1="47.693" x2="37.1709" y2="-5.56633" gradientUnits="userSpaceOnUse">
<stop stop-color="white" stop-opacity="0.9"/>
<stop offset="0.04" stop-color="white" stop-opacity="0.85"/>
<stop offset="0.28" stop-color="white" stop-opacity="0.5"/>
<stop offset="0.65" stop-color="#FAFBFC" stop-opacity="0.4"/>
<stop offset="1" stop-color="#F0EFEF" stop-opacity="0.3"/>
</linearGradient>
<linearGradient id="paint6_linear_959_5970" x1="53.1715" y1="47.693" x2="37.1709" y2="-5.56633" gradientUnits="userSpaceOnUse">
<stop stop-color="white" stop-opacity="0.9"/>
<stop offset="0.04" stop-color="white" stop-opacity="0.85"/>
<stop offset="0.28" stop-color="white" stop-opacity="0.5"/>
<stop offset="0.65" stop-color="#FAFBFC" stop-opacity="0.4"/>
<stop offset="1" stop-color="#F0EFEF" stop-opacity="0.3"/>
</linearGradient>
<linearGradient id="paint7_linear_959_5970" x1="53.1715" y1="47.693" x2="37.1709" y2="-5.56633" gradientUnits="userSpaceOnUse">
<stop stop-color="white" stop-opacity="0.9"/>
<stop offset="0.04" stop-color="white" stop-opacity="0.85"/>
<stop offset="0.28" stop-color="white" stop-opacity="0.5"/>
<stop offset="0.65" stop-color="#FAFBFC" stop-opacity="0.4"/>
<stop offset="1" stop-color="#F0EFEF" stop-opacity="0.3"/>
</linearGradient>
<linearGradient id="paint8_linear_959_5970" x1="32.4893" y1="65.1603" x2="60.6646" y2="45.5608" gradientUnits="userSpaceOnUse">
<stop stop-color="white" stop-opacity="0.7"/>
<stop offset="0.322188" stop-color="white" stop-opacity="0.3"/>
<stop offset="0.482363" stop-color="#FAFBFC" stop-opacity="0.3"/>
<stop offset="1" stop-color="#F0EFEF" stop-opacity="0"/>
</linearGradient>
<linearGradient id="paint9_linear_959_5970" x1="57.9037" y1="48.9383" x2="32.0672" y2="68.8635" gradientUnits="userSpaceOnUse">
<stop stop-color="#F0EFEF" stop-opacity="0"/>
<stop offset="0.35" stop-color="#FAFBFC" stop-opacity="0.4"/>
<stop offset="0.72" stop-color="white" stop-opacity="0.5"/>
<stop offset="0.96" stop-color="white" stop-opacity="0.85"/>
<stop offset="1" stop-color="white" stop-opacity="0.9"/>
</linearGradient>
<radialGradient id="paint10_radial_959_5970" cx="0" cy="0" r="1" gradientUnits="userSpaceOnUse" gradientTransform="translate(62.2363 43.8005) scale(0.741847 6.36066)">
<stop stop-color="white"/>
<stop offset="0.07" stop-color="white" stop-opacity="0.93"/>
<stop offset="1" stop-color="white" stop-opacity="0"/>
</radialGradient>
<radialGradient id="paint11_radial_959_5970" cx="0" cy="0" r="1" gradientUnits="userSpaceOnUse" gradientTransform="translate(61.8926 43.2082) rotate(90) scale(0.741848 6.36066)">
<stop stop-color="white"/>
<stop offset="0.07" stop-color="white" stop-opacity="0.93"/>
<stop offset="1" stop-color="white" stop-opacity="0"/>
</radialGradient>
<radialGradient id="paint12_radial_959_5970" cx="0" cy="0" r="1" gradientUnits="userSpaceOnUse" gradientTransform="translate(8.23626 6.80047) scale(0.741847 6.36066)">
<stop stop-color="white"/>
<stop offset="0.07" stop-color="white" stop-opacity="0.93"/>
<stop offset="1" stop-color="white" stop-opacity="0"/>
</radialGradient>
<radialGradient id="paint13_radial_959_5970" cx="0" cy="0" r="1" gradientUnits="userSpaceOnUse" gradientTransform="translate(7.89265 6.20818) rotate(90) scale(0.741848 6.36066)">
<stop stop-color="white"/>
<stop offset="0.07" stop-color="white" stop-opacity="0.93"/>
<stop offset="1" stop-color="white" stop-opacity="0"/>
</radialGradient>
</defs>
</svg>
