<svg width="81" height="80" viewBox="0 0 81 80" fill="none" xmlns="http://www.w3.org/2000/svg">
<path fill-rule="evenodd" clip-rule="evenodd" d="M20.4298 28.5913C21.3341 27.0426 23.0481 27.0398 23.9476 28.5913L23.9735 28.6391L28.6002 36.6747C29.4893 38.1631 28.5677 39.6773 26.8528 39.6563H17.3698C17.3459 39.6563 17.323 39.6563 17.3 39.6563C15.76 39.6353 15.0124 38.2224 15.6654 36.8363C15.6757 36.814 15.6872 36.7923 15.6998 36.7713L20.4336 28.5893L20.4298 28.5913Z" stroke="url(#paint0_linear_982_6363)"/>
<path d="M22.0602 36.412C21.9461 36.4358 21.8412 36.492 21.7583 36.5739H21.7564C21.7031 36.6219 21.6604 36.6805 21.6311 36.746C21.5951 36.8193 21.5742 36.8991 21.5694 36.9807C21.5647 37.0622 21.5763 37.1439 21.6035 37.2209C21.6308 37.2979 21.6731 37.3687 21.7281 37.4292C21.7831 37.4896 21.8495 37.5385 21.9236 37.5729C22.0016 37.609 22.0863 37.6286 22.1722 37.6302C22.2924 37.6347 22.4113 37.6031 22.5134 37.5396C22.6156 37.476 22.6965 37.3834 22.7458 37.2737C22.7986 37.1598 22.8152 37.0324 22.7933 36.9088C22.7714 36.7852 22.7121 36.6713 22.6234 36.5825C22.5604 36.5198 22.4848 36.4713 22.4016 36.4401C22.2929 36.398 22.1743 36.3883 22.0602 36.412Z" fill="url(#paint1_linear_982_6363)"/>
<path d="M21.721 34.9651C21.7411 35.4918 22.631 35.4908 22.6521 34.9651L22.654 34.9603L22.9656 31.2369V31.2101C22.9656 30.9444 22.7419 30.7838 22.4551 30.7235C22.2747 30.6872 22.0888 30.6872 21.9083 30.7235C21.6311 30.7866 21.4151 30.9405 21.4084 31.2015C21.4007 32.0475 21.6311 34.0646 21.721 34.9651Z" fill="url(#paint2_linear_982_6363)"/>
<path d="M38.8003 16.0538L38.8002 16.0538L36.5154 13.7691C36.255 13.509 35.9099 13.3511 35.5429 13.3242C35.1759 13.2973 34.8114 13.403 34.5159 13.6223L33.9962 14.0077L33.5387 13.5503L26.4492 6.46102L25.9914 6.00328L26.3774 5.48355C26.5967 5.18813 26.7027 4.82376 26.6759 4.4568C26.6492 4.0901 26.4917 3.74519 26.2321 3.4848L38.8003 16.0538ZM38.8003 16.0538C38.9428 16.1964 39.0559 16.3656 39.1331 16.5519C39.2103 16.7381 39.25 16.9378 39.25 17.1394C39.25 17.341 39.2103 17.5406 39.1331 17.7268C39.0559 17.9131 38.9428 18.0823 38.8003 18.2249L38.8002 18.2249L29.6598 27.365L29.6597 27.365C29.5171 27.5076 29.3479 27.6207 29.1616 27.6979C28.9754 27.775 28.7757 27.8148 28.5741 27.8148C28.3724 27.8148 28.1728 27.775 27.9865 27.6979C27.8003 27.6207 27.631 27.5076 27.4885 27.365L27.4884 27.365L25.2039 25.0805C24.9439 24.8201 24.7862 24.4749 24.7595 24.108C24.7327 23.741 24.8387 23.3766 25.058 23.0812L25.4442 22.5611L24.9858 22.1034L23.9618 21.0808L23.4315 20.5513L22.9015 21.0812L5.46203 38.5217C4.92756 39.0049 4.2282 39.2654 3.50743 39.2493C2.78139 39.2331 2.0896 38.9374 1.57609 38.4239C1.06258 37.9104 0.76694 37.2187 0.750706 36.4927C0.734589 35.772 0.995077 35.0727 1.47831 34.5382L18.9192 17.0977L19.4496 16.5674L18.9192 16.037L17.8952 15.0131L17.4377 14.5556L16.9181 14.9411C16.6227 15.1602 16.2585 15.266 15.8917 15.2392C15.5252 15.2124 15.1804 15.0551 14.9201 14.7958C14.9199 14.7956 14.9197 14.7954 14.9195 14.7952L12.6352 12.511L12.6351 12.5109C12.4925 12.3684 12.3794 12.1992 12.3023 12.0129C12.2251 11.8266 12.1854 11.627 12.1854 11.4254C12.1854 11.2238 12.2251 11.0242 12.3023 10.8379C12.3794 10.6517 12.4925 10.4824 12.6351 10.3399L12.6352 10.3398L21.7756 1.19979L21.7757 1.19973C21.9182 1.05715 22.0875 0.94405 22.2737 0.866884C22.46 0.789718 22.6597 0.75 22.8613 0.75C23.0629 0.75 23.2626 0.789717 23.4489 0.866884C23.6351 0.944051 23.8044 1.05715 23.9469 1.19973L23.947 1.19979L26.2315 3.48423L38.8003 16.0538Z" stroke="url(#paint3_linear_982_6363)" stroke-width="1.5"/>
<path fill-rule="evenodd" clip-rule="evenodd" d="M15.5327 12.2799C15.2716 12.541 15.0987 12.791 14.5303 12.2227C13.962 11.6544 14.2121 11.4814 14.4732 11.2203L22.7195 2.97395C22.9807 2.71281 23.1556 2.46324 23.7227 3.03033C24.2898 3.59741 24.0402 3.77237 23.7791 4.03351L15.5327 12.2799Z" fill="url(#paint4_linear_982_6363)"/>
<path fill-rule="evenodd" clip-rule="evenodd" d="M29.0327 25.7799C28.7716 26.041 28.5987 26.291 28.0303 25.7227C27.462 25.1544 27.7121 24.9814 27.9732 24.7203L36.2195 16.4739C36.4807 16.2128 36.6556 15.9632 37.2227 16.5303C37.7898 17.0974 37.5402 17.2724 37.2791 17.5335L29.0327 25.7799Z" fill="url(#paint5_linear_982_6363)"/>
<path d="M49.075 64.8129C49.1215 64.7761 49.1598 64.73 49.1876 64.6776L50.0778 63.303C50.0756 63.2767 50.0756 63.2504 50.0778 63.2241L49.075 64.8129Z" fill="url(#paint6_linear_982_6363)"/>
<path d="M51.9031 64.1701L50.4946 66.2547L51.9143 64.1025L51.9031 64.1701ZM54.0777 66.2659L53.1876 67.6406C53.1836 67.678 53.1836 67.7158 53.1876 67.7532L54.2467 66.142C54.1775 66.162 54.1176 66.2059 54.0777 66.2659Z" fill="url(#paint7_linear_982_6363)"/>
<path d="M53.2328 65.6921L52.3426 67.0781L52.2412 67.2583L53.4243 65.4668C53.3518 65.5341 53.2876 65.6098 53.2328 65.6921Z" fill="url(#paint8_linear_982_6363)"/>
<path d="M71.7115 60.3053L66.4608 52.08C66.417 52.0085 66.3557 51.9493 66.2828 51.9079C66.2099 51.8665 66.1277 51.8443 66.0439 51.8434C65.9513 51.8417 65.8606 51.8693 65.7847 51.9222L63.0354 53.6124C62.9796 53.6469 62.9313 53.6921 62.8931 53.7454C62.8549 53.7988 62.8277 53.8592 62.813 53.9231C62.7984 53.987 62.7965 54.0532 62.8076 54.1179C62.8187 54.1825 62.8425 54.2443 62.8777 54.2997L63.2833 54.9081L62.6749 55.2011C62.5625 55.2445 62.438 55.2445 62.3256 55.2011L59.5087 54.4236C59.2845 54.3624 59.0537 54.3283 58.8213 54.3222H55.6213C55.2349 54.3199 54.8535 54.4097 54.5087 54.5841C54.1638 54.7585 53.8654 55.0125 53.6382 55.325H52.1735L50.9453 54.7166L51.227 54.2997C51.2967 54.1867 51.3204 54.0512 51.2931 53.9212C51.2659 53.7912 51.1898 53.6766 51.0805 53.6011L48.3312 51.911C48.2499 51.8515 48.1499 51.8235 48.0495 51.8321C47.9696 51.8367 47.8919 51.8607 47.8232 51.9019C47.7546 51.9431 47.6969 52.0003 47.6551 52.0687L42.4044 60.2828C42.3688 60.3375 42.3443 60.3987 42.3323 60.4629C42.3204 60.5271 42.3213 60.593 42.3349 60.6569C42.3485 60.7208 42.3746 60.7813 42.4116 60.8351C42.4487 60.8888 42.4961 60.9347 42.5509 60.9701L45.2889 62.4687C45.4026 62.5403 45.5399 62.5638 45.6709 62.5343C45.8018 62.5047 45.9157 62.4244 45.9875 62.311L46.6298 61.3081L48.0495 62.7279L47.5087 63.5729C47.2983 63.9109 47.2278 64.3174 47.3119 64.7065C47.396 65.0955 47.6282 65.4366 47.9594 65.6574C48.1453 65.7699 48.3524 65.8428 48.5678 65.8715C48.5444 66.1409 48.5937 66.4116 48.7107 66.6554C48.8276 66.8992 49.0079 67.1071 49.2326 67.2574C49.3969 67.3659 49.5811 67.4407 49.7745 67.4775C49.9679 67.5142 50.1667 67.5122 50.3594 67.4715C50.4576 67.8095 50.6734 68.1012 50.9678 68.2941C51.1543 68.4148 51.3652 68.4927 51.5854 68.5219C51.8056 68.5511 52.0296 68.531 52.2411 68.4631C52.3515 68.7397 52.5442 68.9757 52.7932 69.1391C53.1264 69.3558 53.532 69.4312 53.9208 69.3488C54.3096 69.2664 54.6498 69.0329 54.8664 68.6997L54.9678 68.5307L57.8636 69.6574C58.2334 69.7978 58.6399 69.8084 59.0165 69.6876C59.3931 69.5669 59.7176 69.3218 59.9368 68.9927L60.2523 68.4969C60.6307 68.5629 61.02 68.522 61.3764 68.3786C61.7327 68.2353 62.042 67.9953 62.2692 67.6856L62.7087 67.0772C62.7485 67.0282 62.7756 66.9701 62.7875 66.9081C63.1811 66.7751 63.5236 66.5231 63.7678 66.187L64.1735 65.6236C64.4522 65.6308 64.7285 65.5711 64.9794 65.4495C65.2303 65.328 65.4485 65.1482 65.6157 64.925C65.8533 64.6188 65.9822 64.2422 65.9822 63.8546C65.9822 63.467 65.8533 63.0905 65.6157 62.7842L67.5312 61.4434L68.1284 62.356C68.1976 62.4596 68.3032 62.5334 68.4243 62.5626C68.5454 62.5918 68.6731 62.5744 68.7819 62.5138L71.5312 61.0152C71.592 60.9827 71.6453 60.9379 71.6878 60.8836C71.7303 60.8294 71.761 60.7668 71.7779 60.7C71.7949 60.6332 71.7978 60.5636 71.7863 60.4957C71.7749 60.4277 71.7494 60.3629 71.7115 60.3053ZM45.4016 61.4321L43.5312 60.4067L48.2411 52.9927L50.134 54.1194L45.4016 61.4321ZM48.5002 64.8124C48.4438 64.777 48.3951 64.7305 48.357 64.6759C48.3189 64.6212 48.2922 64.5594 48.2786 64.4942C48.2649 64.429 48.2645 64.3617 48.2774 64.2963C48.2903 64.231 48.3163 64.1689 48.3537 64.1138L49.2439 62.7391C49.278 62.6827 49.3235 62.634 49.3775 62.5961C49.4316 62.5583 49.4929 62.5322 49.5576 62.5194C49.6223 62.5067 49.689 62.5077 49.7533 62.5222C49.8177 62.5367 49.8783 62.5646 49.9312 62.6039C50.025 62.6543 50.098 62.7362 50.1372 62.8352C50.1764 62.9342 50.1792 63.0439 50.1453 63.1448C50.1431 63.171 50.1431 63.1974 50.1453 63.2236L49.2551 64.5983C49.2274 64.6507 49.189 64.6967 49.1425 64.7335C49.0655 64.8252 48.9573 64.8852 48.8387 64.9019C48.72 64.9185 48.5995 64.8906 48.5002 64.8236V64.8124ZM50.4946 66.2546V66.3222C50.4615 66.3767 50.4176 66.4237 50.3654 66.4604C50.3133 66.497 50.2542 66.5225 50.1918 66.5352C50.1293 66.5479 50.0649 66.5476 50.0026 66.5342C49.9404 66.5208 49.8815 66.4947 49.8298 66.4574C49.7757 66.4255 49.7288 66.3826 49.6923 66.3315C49.6557 66.2804 49.6303 66.2222 49.6175 66.1606C49.6048 66.0991 49.6051 66.0355 49.6183 65.9741C49.6316 65.9127 49.6576 65.8547 49.6946 65.8039L49.9087 65.4772L51.0354 63.8096L51.6213 62.7617C51.6546 62.7076 51.6984 62.6607 51.7502 62.6239C51.802 62.5871 51.8606 62.561 51.9227 62.5474C51.9847 62.5337 52.0488 62.5327 52.1113 62.5443C52.1737 62.556 52.2332 62.5801 52.2861 62.6152C52.3415 62.6473 52.3896 62.6906 52.4273 62.7422C52.4651 62.7939 52.4917 62.8529 52.5055 62.9154C52.5193 62.9779 52.5199 63.0426 52.5073 63.1053C52.4948 63.1681 52.4693 63.2276 52.4326 63.28L51.9143 64.0687L50.4946 66.2546ZM52.196 67.28C52.1243 67.3905 52.0116 67.4681 51.8827 67.4956C51.7538 67.523 51.6192 67.4982 51.5087 67.4265C51.3981 67.3547 51.3205 67.242 51.2931 67.1131C51.2656 66.9842 51.2905 66.8497 51.3622 66.7391L52.2974 65.3081L52.7256 64.6546C52.7256 64.6546 52.7256 64.6546 52.7256 64.587C52.7655 64.5352 52.8153 64.4918 52.872 64.4593C52.9287 64.4267 52.9913 64.4056 53.0562 64.3973C53.1211 64.3889 53.1869 64.3934 53.2501 64.4105C53.3132 64.4276 53.3724 64.4569 53.4242 64.4969C53.4759 64.5368 53.5194 64.5866 53.5519 64.6433C53.5845 64.7 53.6055 64.7626 53.6139 64.8275C53.6223 64.8924 53.6178 64.9583 53.6007 65.0214C53.5836 65.0845 53.5543 65.1437 53.5143 65.1955L53.3791 65.4096L52.196 67.28ZM54.9115 66.818L54.0213 68.1927C53.9882 68.25 53.9434 68.2998 53.8898 68.3387C53.8362 68.3776 53.775 68.4049 53.7102 68.4187C53.6455 68.4325 53.5785 68.4326 53.5137 68.4189C53.4489 68.4051 53.3877 68.378 53.334 68.3391C53.2432 68.2857 53.1729 68.2035 53.1341 68.1055C53.0953 68.0075 53.0903 67.8994 53.1199 67.7983C53.1159 67.7608 53.1159 67.7231 53.1199 67.6856L54.0101 66.311C54.0353 66.2599 54.0743 66.217 54.1228 66.187C54.2045 66.1221 54.3057 66.0868 54.4101 66.0868C54.5144 66.0868 54.6157 66.1221 54.6974 66.187C54.807 66.2449 54.8903 66.3425 54.9301 66.4599C54.9699 66.5772 54.9633 66.7054 54.9115 66.818ZM64.8495 64.3053C64.7355 64.452 64.5722 64.5523 64.3898 64.5876C64.2074 64.6228 64.0184 64.5906 63.858 64.4969L59.8354 62.0743C59.7201 62.0083 59.5834 61.9902 59.4549 62.0239C59.3264 62.0577 59.2162 62.1405 59.1481 62.2546C59.0845 62.3676 59.0666 62.5006 59.0981 62.6263C59.1295 62.752 59.2079 62.8609 59.3171 62.9307L63.2157 65.2743L62.9904 65.5786C62.8447 65.7846 62.6252 65.9265 62.3775 65.9747C62.1299 66.023 61.8732 65.9739 61.6608 65.8377L58.8439 64.08C58.7603 64.0253 58.662 63.9977 58.5622 64.0011C58.4306 64.0068 58.3061 64.0624 58.214 64.1566C58.1219 64.2507 58.0692 64.3765 58.0664 64.5081C58.0698 64.5943 58.0941 64.6783 58.1373 64.753C58.1805 64.8276 58.2412 64.8905 58.3143 64.9363L61.1312 66.6941C61.2773 66.7938 61.4421 66.8628 61.6157 66.8969L61.4918 67.0659C61.341 67.2812 61.1148 67.4319 60.8581 67.4883C60.6014 67.5446 60.3329 67.5024 60.1058 67.3701L57.8523 66.0743C57.7653 66.0189 57.6619 65.9951 57.5594 66.0067C57.4947 66.0096 57.4313 66.0254 57.3728 66.0531C57.3144 66.0809 57.2621 66.1201 57.219 66.1684C57.1759 66.2167 57.143 66.2732 57.1221 66.3344C57.1012 66.3957 57.0928 66.4605 57.0974 66.525C57.1018 66.6108 57.1278 66.694 57.1732 66.7669C57.2185 66.8399 57.2816 66.9001 57.3566 66.9419L59.3735 68.0687L59.1481 68.3955C59.0596 68.5369 58.9242 68.6426 58.7655 68.6941C58.6069 68.7456 58.4352 68.7396 58.2805 68.6772L55.5763 67.6518L55.8016 67.2912C56.0183 66.958 56.0937 66.5524 56.0113 66.1636C55.9289 65.7748 55.6954 65.4347 55.3622 65.218C55.1638 65.0951 54.9406 65.0182 54.7087 64.9927C54.7191 64.7361 54.6635 64.4811 54.5471 64.2523C54.4306 64.0234 54.2574 63.8283 54.0439 63.6856C53.8866 63.5813 53.7106 63.5086 53.5256 63.4715C53.6319 63.1615 53.632 62.8249 53.526 62.5148C53.4199 62.2047 53.2136 61.9388 52.9396 61.7588C52.6073 61.5409 52.202 61.4639 51.8129 61.5448C51.4698 61.6185 51.1653 61.8148 50.9566 62.0969C50.8524 61.961 50.7268 61.8431 50.5847 61.7476C50.251 61.5331 49.8471 61.4563 49.458 61.5335C49.1952 61.5904 48.9534 61.7192 48.7594 61.9053L47.3058 60.4518L50.4044 55.5504L51.9368 56.3053H52.9058L51.1481 58.7617C51.0727 58.873 51.0434 59.0092 51.0665 59.1417C51.0897 59.2741 51.1633 59.3924 51.272 59.4715C51.3562 59.5249 51.4541 59.5524 51.5537 59.5504H54.0213C54.2669 59.5514 54.5089 59.4912 54.7253 59.3751C54.9418 59.259 55.1258 59.0908 55.2608 58.8856L55.6664 58.2884C55.7147 58.2195 55.7788 58.1632 55.8533 58.124C55.9277 58.0848 56.0104 58.0639 56.0946 58.0631H56.7481C56.8463 58.0584 56.9428 58.0905 57.0185 58.1532L64.658 63.2349C64.7433 63.2892 64.8164 63.3605 64.8728 63.4444C64.9292 63.5284 64.9676 63.6231 64.9856 63.7225C65.0036 63.822 65.0008 63.9242 64.9774 64.0225C64.954 64.1209 64.9104 64.2133 64.8495 64.2941V64.3053ZM64.7819 62.1081L57.5819 57.3194C57.3356 57.1528 57.0455 57.0626 56.7481 57.0603H56.1284C55.883 57.0602 55.6414 57.1209 55.4251 57.2369C55.2089 57.3529 55.0247 57.5206 54.8889 57.725L54.472 58.3335C54.4295 58.4027 54.3698 58.4598 54.2987 58.4993C54.2277 58.5388 54.1477 58.5593 54.0664 58.5588H52.5227L54.3594 56.0011C54.4976 55.7965 54.6839 55.6288 54.9019 55.5129C55.12 55.397 55.3631 55.3364 55.6101 55.3363H58.7537C58.8884 55.3191 59.0247 55.3191 59.1594 55.3363L62.0213 56.1588C62.3958 56.2736 62.8002 56.2372 63.1481 56.0574L63.8016 55.7307L66.9678 60.587L64.7819 62.1081ZM68.6918 61.3983L64.0157 54.1532L65.8974 53.0265L70.596 60.3955L68.6918 61.3983Z" fill="url(#paint9_linear_982_6363)"/>
<path d="M49.8635 65.4327L50.0325 65.2187L50.9227 63.844C50.9276 63.8179 50.9276 63.7912 50.9227 63.7651L49.8635 65.4327Z" fill="url(#paint10_linear_982_6363)"/>
<path d="M49.1079 64.8763C49.1547 64.8393 49.1932 64.7931 49.2211 64.7404L50.1156 63.359C50.1135 63.3327 50.1135 63.3062 50.1156 63.2798L49.1079 64.8763Z" stroke="url(#paint11_linear_982_6363)" stroke-width="0.13" stroke-miterlimit="10"/>
<path d="M51.9498 64.2305L50.5344 66.3252L51.9611 64.1626L51.9498 64.2305ZM54.135 66.3365L53.2405 67.7179C53.2365 67.7556 53.2365 67.7935 53.2405 67.8311L54.3049 66.212C54.2353 66.2321 54.1751 66.2762 54.135 66.3365Z" stroke="url(#paint12_linear_982_6363)" stroke-width="0.13" stroke-miterlimit="10"/>
<path d="M53.2859 65.7597L52.3915 67.1523L52.2896 67.3335L53.4784 65.5332C53.4056 65.6009 53.341 65.6769 53.2859 65.7597Z" stroke="url(#paint13_linear_982_6363)" stroke-width="0.13" stroke-miterlimit="10"/>
<path d="M71.8551 60.3468L66.5787 52.0812C66.5347 52.0094 66.4732 51.9499 66.3999 51.9083C66.3267 51.8667 66.2441 51.8444 66.1598 51.8434C66.0668 51.8418 65.9757 51.8695 65.8994 51.9227L63.1367 53.6211C63.0806 53.6558 63.032 53.7012 62.9936 53.7548C62.9553 53.8084 62.9279 53.8691 62.9132 53.9333C62.8984 53.9976 62.8966 54.0641 62.9077 54.1291C62.9189 54.194 62.9428 54.2561 62.9781 54.3118L63.3858 54.9232L62.7743 55.2176C62.6614 55.2612 62.5363 55.2612 62.4233 55.2176L59.5927 54.4363C59.3674 54.3747 59.1355 54.3405 58.902 54.3344H55.6863C55.298 54.3321 54.9147 54.4223 54.5682 54.5975C54.2217 54.7728 53.9219 55.028 53.6935 55.3421H52.2216L50.9874 54.7307L51.2705 54.3118C51.3406 54.1982 51.3644 54.062 51.337 53.9314C51.3096 53.8008 51.2331 53.6856 51.1233 53.6098L48.3606 51.9114C48.2789 51.8516 48.1783 51.8235 48.0775 51.8321C47.9971 51.8368 47.9191 51.8608 47.8501 51.9022C47.7811 51.9437 47.7231 52.0012 47.6812 52.0699L42.4048 60.3241C42.369 60.3791 42.3444 60.4406 42.3324 60.5051C42.3204 60.5696 42.3212 60.6359 42.3349 60.7C42.3486 60.7642 42.3748 60.8251 42.4121 60.8791C42.4493 60.9331 42.4969 60.9792 42.552 61.0148L45.3034 62.5207C45.4176 62.5926 45.5556 62.6163 45.6872 62.5866C45.8188 62.5569 45.9333 62.4762 46.0054 62.3622L46.6508 61.3545L48.0775 62.7811L47.534 63.6303C47.3227 63.9699 47.2518 64.3784 47.3363 64.7694C47.4208 65.1603 47.6542 65.5031 47.9869 65.725C48.1737 65.8381 48.3819 65.9113 48.5983 65.9402C48.5748 66.2108 48.6244 66.4829 48.7419 66.7279C48.8594 66.9729 49.0405 67.1818 49.2664 67.3328C49.4315 67.4419 49.6166 67.517 49.8109 67.5539C50.0053 67.5909 50.2051 67.5888 50.3986 67.548C50.4974 67.8876 50.7142 68.1807 51.0101 68.3745C51.1974 68.4959 51.4094 68.5741 51.6307 68.6035C51.852 68.6328 52.077 68.6127 52.2895 68.5444C52.4005 68.8223 52.5942 69.0595 52.8443 69.2237C53.1792 69.4414 53.5868 69.5172 53.9775 69.4344C54.3682 69.3516 54.71 69.117 54.9277 68.7821L55.0296 68.6123L57.9395 69.7446C58.3111 69.8856 58.7196 69.8963 59.0981 69.7749C59.4765 69.6536 59.8026 69.4073 60.0229 69.0765L60.34 68.5783C60.7202 68.6447 61.1114 68.6036 61.4695 68.4595C61.8276 68.3155 62.1383 68.0743 62.3667 67.7631L62.8083 67.1517C62.8483 67.1025 62.8755 67.0441 62.8876 66.9818C63.283 66.8481 63.6272 66.5949 63.8726 66.2572L64.2802 65.6911C64.5603 65.6982 64.838 65.6382 65.0902 65.5161C65.3423 65.394 65.5615 65.2132 65.7295 64.989C65.9683 64.6813 66.0978 64.3029 66.0978 63.9134C66.0978 63.5239 65.9683 63.1455 65.7295 62.8377L67.6544 61.4903L68.2545 62.4075C68.324 62.5116 68.4302 62.5857 68.5519 62.6151C68.6736 62.6444 68.8019 62.6269 68.9112 62.566L71.674 61.0601C71.735 61.0274 71.7886 60.9824 71.8313 60.9279C71.874 60.8733 71.9049 60.8105 71.9219 60.7434C71.939 60.6763 71.9418 60.6063 71.9303 60.538C71.9188 60.4697 71.8932 60.4046 71.8551 60.3468ZM45.4167 61.479L43.5371 60.4487L48.27 52.9983L50.1722 54.1306L45.4167 61.479ZM48.5304 64.8758C48.4737 64.8402 48.4247 64.7936 48.3865 64.7386C48.3482 64.6837 48.3214 64.6216 48.3077 64.5561C48.2939 64.4906 48.2935 64.4229 48.3065 64.3573C48.3195 64.2916 48.3456 64.2292 48.3832 64.1738L49.2777 62.7924C49.312 62.7357 49.3577 62.6868 49.412 62.6487C49.4663 62.6107 49.5279 62.5845 49.593 62.5717C49.658 62.5589 49.725 62.5598 49.7897 62.5745C49.8543 62.5891 49.9152 62.617 49.9684 62.6566C50.0627 62.7072 50.136 62.7895 50.1754 62.889C50.2147 62.9885 50.2176 63.0987 50.1835 63.2001C50.1814 63.2264 50.1814 63.2529 50.1835 63.2793L49.289 64.6607C49.2611 64.7133 49.2225 64.7596 49.1758 64.7966C49.0984 64.8888 48.9897 64.949 48.8705 64.9658C48.7513 64.9825 48.6302 64.9545 48.5304 64.8871V64.8758ZM50.5345 66.3251V66.3931C50.5013 66.4478 50.4571 66.4951 50.4047 66.5319C50.3524 66.5687 50.2929 66.5943 50.2302 66.6071C50.1675 66.6198 50.1028 66.6195 50.0402 66.606C49.9776 66.5926 49.9184 66.5663 49.8665 66.5289C49.8121 66.4968 49.765 66.4537 49.7283 66.4023C49.6915 66.351 49.666 66.2925 49.6532 66.2307C49.6404 66.1688 49.6407 66.105 49.654 66.0432C49.6673 65.9815 49.6934 65.9233 49.7306 65.8722L49.9457 65.5439L51.078 63.8681L51.6668 62.8151C51.7002 62.7607 51.7443 62.7136 51.7963 62.6766C51.8483 62.6396 51.9072 62.6135 51.9696 62.5997C52.0319 62.586 52.0964 62.585 52.1591 62.5967C52.2219 62.6084 52.2816 62.6326 52.3348 62.6679C52.3905 62.7002 52.4388 62.7436 52.4767 62.7956C52.5147 62.8475 52.5414 62.9068 52.5552 62.9696C52.5691 63.0324 52.5697 63.0974 52.5571 63.1604C52.5445 63.2235 52.5189 63.2833 52.482 63.3359L51.9612 64.1285L50.5345 66.3251ZM52.2442 67.3555C52.1722 67.4666 52.0589 67.5445 51.9294 67.5721C51.7999 67.5997 51.6647 67.5748 51.5536 67.5027C51.4424 67.4306 51.3645 67.3174 51.3369 67.1878C51.3093 67.0583 51.3343 66.9231 51.4064 66.812L52.3461 65.374L52.7764 64.7173C52.7764 64.7173 52.7764 64.7173 52.7764 64.6494C52.8166 64.5973 52.8666 64.5537 52.9236 64.521C52.9806 64.4883 53.0435 64.4671 53.1086 64.4587C53.1738 64.4503 53.24 64.4548 53.3035 64.472C53.3669 64.4891 53.4264 64.5186 53.4784 64.5588C53.5305 64.5989 53.5741 64.6489 53.6068 64.7059C53.6395 64.7629 53.6607 64.8258 53.6691 64.891C53.6775 64.9562 53.673 65.0224 53.6558 65.0859C53.6386 65.1493 53.6091 65.2088 53.569 65.2608L53.4331 65.4759L52.2442 67.3555ZM54.973 66.8913L54.0785 68.2726C54.0452 68.3303 54.0002 68.3803 53.9463 68.4194C53.8925 68.4585 53.831 68.4859 53.7659 68.4998C53.7008 68.5137 53.6335 68.5137 53.5684 68.4999C53.5033 68.4862 53.4417 68.4589 53.3878 68.4198C53.2966 68.3661 53.2259 68.2835 53.1869 68.185C53.1479 68.0866 53.1429 67.9779 53.1727 67.8763C53.1687 67.8387 53.1687 67.8007 53.1727 67.7631L54.0672 66.3817C54.0925 66.3304 54.1318 66.2873 54.1804 66.2572C54.2625 66.192 54.3643 66.1565 54.4691 66.1565C54.574 66.1565 54.6758 66.192 54.7579 66.2572C54.868 66.3153 54.9517 66.4134 54.9917 66.5314C55.0318 66.6493 55.025 66.7781 54.973 66.8913ZM64.9596 64.3663C64.8451 64.5137 64.6809 64.6145 64.4976 64.6499C64.3143 64.6853 64.1244 64.6529 63.9632 64.5588L59.921 62.1244C59.8051 62.0581 59.6678 62.0399 59.5386 62.0738C59.4095 62.1076 59.2988 62.1909 59.2303 62.3056C59.1665 62.4191 59.1485 62.5527 59.1801 62.6791C59.2116 62.8054 59.2904 62.9149 59.4002 62.9849L63.3178 65.3401L63.0914 65.6458C62.945 65.8528 62.7244 65.9954 62.4755 66.0439C62.2267 66.0924 61.9687 66.0431 61.7553 65.9062L58.9246 64.1398C58.8407 64.0849 58.7418 64.0572 58.6416 64.0606C58.5093 64.0663 58.3842 64.1222 58.2917 64.2168C58.1991 64.3115 58.1461 64.4378 58.1434 64.5701C58.1467 64.6567 58.1712 64.7411 58.2146 64.8161C58.258 64.8911 58.319 64.9544 58.3925 65.0004L61.2231 66.7667C61.37 66.8669 61.5356 66.9362 61.71 66.9705L61.5854 67.1404C61.4339 67.3567 61.2067 67.5082 60.9487 67.5648C60.6908 67.6214 60.4209 67.579 60.1928 67.4461L57.9282 66.144C57.8408 66.0883 57.7368 66.0643 57.6338 66.076C57.5689 66.0789 57.5051 66.0947 57.4464 66.1226C57.3876 66.1505 57.3351 66.1899 57.2918 66.2385C57.2485 66.287 57.2154 66.3438 57.1944 66.4053C57.1735 66.4669 57.165 66.532 57.1696 66.5969C57.174 66.683 57.2002 66.7667 57.2457 66.84C57.2913 66.9132 57.3547 66.9737 57.43 67.0158L59.4568 68.1481L59.2303 68.4764C59.1414 68.6185 59.0053 68.7248 58.8459 68.7765C58.6865 68.8283 58.5139 68.8223 58.3585 68.7595L55.641 67.7291L55.8675 67.3668C56.0852 67.032 56.161 66.6244 56.0782 66.2337C55.9954 65.843 55.7607 65.5012 55.4259 65.2834C55.2266 65.16 55.0022 65.0826 54.7692 65.057C54.7797 64.7992 54.7238 64.543 54.6068 64.313C54.4898 64.083 54.3157 63.8869 54.1012 63.7436C53.9432 63.6387 53.7662 63.5656 53.5803 63.5284C53.6872 63.2169 53.6873 62.8787 53.5807 62.5671C53.4741 62.2554 53.2668 61.9882 52.9915 61.8074C52.6576 61.5884 52.2503 61.511 51.8593 61.5922C51.5145 61.6663 51.2085 61.8636 50.9987 62.1471C50.8941 62.0106 50.7679 61.892 50.6251 61.7961C50.2898 61.5805 49.8839 61.5034 49.4928 61.5809C49.2288 61.6381 48.9858 61.7675 48.7908 61.9546L47.3302 60.4939L50.4439 55.5686L51.9838 56.3272H52.9576L51.1912 58.7955C51.1154 58.9074 51.086 59.0443 51.1093 59.1774C51.1325 59.3105 51.2066 59.4293 51.3158 59.5089C51.4003 59.5625 51.4988 59.5901 51.5988 59.5881H54.0785C54.3253 59.5892 54.5685 59.5286 54.7859 59.412C55.0034 59.2953 55.1884 59.1263 55.324 58.9201L55.7316 58.32C55.7802 58.2508 55.8446 58.1941 55.9194 58.1548C55.9942 58.1154 56.0773 58.0944 56.1619 58.0935H56.8186C56.9173 58.0888 57.0142 58.1211 57.0903 58.1841L64.7671 63.2906C64.8529 63.3452 64.9264 63.4169 64.983 63.5012C65.0397 63.5855 65.0783 63.6807 65.0964 63.7807C65.1144 63.8807 65.1116 63.9833 65.0881 64.0821C65.0646 64.181 65.0208 64.2739 64.9596 64.355V64.3663ZM64.8917 62.1584L57.6565 57.3462C57.4089 57.1788 57.1174 57.0882 56.8186 57.0858H56.1959C55.9493 57.0858 55.7065 57.1468 55.4892 57.2633C55.2718 57.3799 55.0867 57.5484 54.9504 57.7539L54.5314 58.3653C54.4886 58.4349 54.4287 58.4922 54.3573 58.5319C54.2859 58.5716 54.2055 58.5922 54.1238 58.5917H52.5726L54.4182 56.0215C54.5571 55.8158 54.7443 55.6474 54.9634 55.5309C55.1825 55.4145 55.4269 55.3535 55.675 55.3534H58.834C58.9694 55.3362 59.1063 55.3362 59.2417 55.3534L62.1176 56.18C62.4939 56.2953 62.9003 56.2587 63.2499 56.0781L63.9066 55.7497L67.0883 60.6298L64.8917 62.1584ZM68.8206 61.445L64.1217 54.1646L66.0126 53.0323L70.7342 60.4373L68.8206 61.445Z" stroke="url(#paint14_linear_982_6363)" stroke-width="0.13" stroke-miterlimit="10"/>
<path d="M49.9006 65.4985L50.0705 65.2834L50.965 63.902C50.9699 63.8758 50.9699 63.8489 50.965 63.8228L49.9006 65.4985Z" stroke="url(#paint15_linear_982_6363)" stroke-width="0.13" stroke-miterlimit="10"/>
<path d="M59.8945 39.6095C59.2999 39.523 58.7053 39.469 58.0891 39.4366C57.7539 39.4366 57.3972 39.4366 57.008 39.4366C51.7524 39.4272 46.6985 41.4583 42.911 45.1019C39.1235 48.7454 36.8982 53.717 36.704 58.969C36.5099 64.2209 38.362 69.3432 41.8702 73.2565C45.3783 77.1698 50.2685 79.5685 55.5104 79.9471C60.7523 80.3258 65.9366 78.655 69.9708 75.2866C74.005 71.9182 76.5741 67.1153 77.1369 61.89C77.6997 56.6646 76.2121 51.4249 72.9876 47.2747C69.7632 43.1246 65.0536 40.3881 59.8513 39.642L59.8945 39.6095ZM57.0512 77.6323C54.6538 77.6911 52.2689 77.2696 50.0368 76.3928C47.8047 75.516 45.7706 74.2015 44.0542 72.5267C42.3378 70.8519 40.9738 68.8506 40.0425 66.6407C39.1113 64.4308 38.6315 62.0569 38.6315 59.6588C38.6315 57.2606 39.1113 54.8867 40.0425 52.6768C40.9738 50.4669 42.3378 48.4657 44.0542 46.7908C45.7706 45.116 47.8047 43.8015 50.0368 42.9247C52.2689 42.0479 54.6538 41.6265 57.0512 41.6853C57.3972 41.6853 57.7539 41.6853 58.1323 41.6853C58.7373 41.7169 59.34 41.7818 59.9378 41.8799C64.3364 42.6631 68.2858 45.0561 71.0163 48.5924C73.7468 52.1287 75.0629 56.555 74.7079 61.0087C74.353 65.4623 72.3525 69.6243 69.0963 72.6835C65.8402 75.7427 61.5616 77.4799 57.0945 77.5566L57.0512 77.6323Z" fill="url(#paint16_linear_982_6363)"/>
<path d="M54.2505 13.2944H53.9379L54.1643 13.5099L56.9506 16.1629L56.9503 16.1632L56.958 16.1694C57.1708 16.3423 57.3433 16.5547 57.4648 16.793C57.5864 17.0312 57.6545 17.2904 57.6653 17.5544C57.676 17.8183 57.6291 18.0816 57.5274 18.3279C57.4257 18.5742 57.2711 18.7984 57.0731 18.9862C56.8751 19.174 56.6379 19.3214 56.3762 19.4186C56.1145 19.5159 55.8342 19.5608 55.5531 19.5505C55.2719 19.5402 54.9962 19.4749 54.7433 19.3588C54.4904 19.2428 54.2661 19.0787 54.0841 18.8771L54.0844 18.8768L54.0773 18.8702L47.5984 12.7252C47.508 12.6361 47.4228 12.5425 47.3431 12.4448C47.2796 12.3448 47.2219 12.2415 47.1704 12.1356L47.1707 12.1354L47.1656 12.1267C47.0946 12.0064 47.0374 11.8794 46.9951 11.7478C46.9426 11.511 46.943 11.2664 46.9963 11.0297C47.0223 10.9156 47.0592 10.804 47.1066 10.6962C47.1579 10.5909 47.2152 10.4884 47.2783 10.3891C47.3575 10.2919 47.4422 10.1988 47.532 10.1102L47.6806 9.9794L47.6806 9.97947L47.684 9.97622L54.009 3.96699C54.3976 3.65287 54.8978 3.48804 55.4102 3.50682C55.9243 3.52565 56.4107 3.72777 56.7727 4.07109C57.1345 4.41423 57.3452 4.87289 57.3648 5.35498C57.3844 5.83542 57.2129 6.30628 56.8826 6.67399L54.1648 9.2312L53.9352 9.44723H54.2505H56.594C61.1457 9.44723 65.5097 11.1623 68.7263 14.2131C71.9427 17.2637 73.7483 21.3998 73.7483 25.711V32.8811C73.7483 33.389 73.5356 33.8776 73.1547 34.239C72.7735 34.6005 72.2552 34.8047 71.7134 34.8047C71.1716 34.8047 70.6533 34.6005 70.2721 34.239C69.8912 33.8776 69.6785 33.389 69.6785 32.8811V25.711C69.6785 22.4157 68.2982 19.2568 65.8438 16.9288C63.3895 14.6011 60.0621 13.2944 56.594 13.2944H54.2505Z" fill="url(#paint17_linear_982_6363)" stroke="url(#paint18_linear_982_6363)" stroke-width="0.25"/>
<path d="M21.0032 67.8325H21.3157L21.0894 67.617L18.3031 64.9641L18.3034 64.9638L18.2957 64.9576C18.0828 64.7847 17.9104 64.5723 17.7889 64.334C17.6673 64.0957 17.5992 63.8365 17.5884 63.5726C17.5777 63.3087 17.6245 63.0453 17.7263 62.799C17.828 62.5527 17.9825 62.3285 18.1805 62.1407C18.3786 61.9529 18.6158 61.8056 18.8775 61.7083C19.1392 61.6111 19.4194 61.5662 19.7006 61.5765C19.9818 61.5868 20.2575 61.6521 20.5104 61.7681C20.7632 61.8841 20.9876 62.0483 21.1696 62.2499L21.1693 62.2501L21.1763 62.2568L27.6552 68.4017C27.7456 68.4908 27.8309 68.5844 27.9106 68.6822C27.9741 68.7822 28.0317 68.8854 28.0833 68.9914L28.0829 68.9916L28.0881 69.0003C28.1591 69.1205 28.2162 69.2475 28.2585 69.3791C28.311 69.616 28.3106 69.8606 28.2574 70.0973C28.2314 70.2113 28.1945 70.323 28.1471 70.4308C28.0958 70.536 28.0384 70.6385 27.9754 70.7379C27.8961 70.835 27.8115 70.9281 27.7217 71.0167L27.5731 71.1476L27.573 71.1475L27.5696 71.1507L21.2446 77.16C20.856 77.4741 20.3559 77.6389 19.8434 77.6201C19.3294 77.6013 18.8429 77.3992 18.481 77.0559C18.1192 76.7127 17.9085 76.2541 17.8888 75.772C17.8693 75.2915 18.0408 74.8207 18.3711 74.453L21.0888 71.8958L21.3184 71.6797H21.0032H18.6597C14.108 71.6797 9.74399 69.9647 6.52737 66.9139C3.31098 63.8633 1.50535 59.7272 1.50535 55.416V48.2459C1.50535 47.7379 1.71805 47.2493 2.099 46.888C2.48017 46.5265 2.9985 46.3223 3.54027 46.3223C4.08203 46.3223 4.60037 46.5265 4.98154 46.888C5.36249 47.2493 5.57518 47.7379 5.57518 48.2459V55.416C5.57518 58.7112 6.95542 61.8701 9.40991 64.1981C11.8642 66.5259 15.1915 67.8325 18.6597 67.8325H21.0032Z" fill="url(#paint19_linear_982_6363)" stroke="url(#paint20_linear_982_6363)" stroke-width="0.25"/>
<path d="M12.4383 10.6381C12.4383 14.3118 12.0886 17.2964 11.6579 17.2964C11.2272 17.2964 10.8674 14.3118 10.8674 10.6381C10.8674 6.96433 11.2323 4 11.6579 4C12.0836 4 12.4383 6.95926 12.4383 10.6381Z" fill="url(#paint21_radial_982_6363)"/>
<path d="M11.6583 11.4078C7.98458 11.4078 4.99999 11.0581 4.99999 10.6274C4.99999 10.1967 7.98458 9.83691 11.6583 9.83691C15.3321 9.83691 18.2964 10.2018 18.2964 10.6274C18.2964 11.053 15.3371 11.4078 11.6583 11.4078Z" fill="url(#paint22_radial_982_6363)"/>
<path d="M75.0701 34.0067C75.0701 37.6805 74.7205 40.6651 74.2898 40.6651C73.859 40.6651 73.4993 37.6805 73.4993 34.0067C73.4993 30.333 73.8641 27.3687 74.2898 27.3687C74.7154 27.3687 75.0701 30.3279 75.0701 34.0067Z" fill="url(#paint23_radial_982_6363)"/>
<path d="M74.2899 34.7759C70.6162 34.7759 67.6316 34.4263 67.6316 33.9956C67.6316 33.5649 70.6162 33.2051 74.2899 33.2051C77.9637 33.2051 80.928 33.5699 80.928 33.9956C80.928 34.4212 77.9687 34.7759 74.2899 34.7759Z" fill="url(#paint24_radial_982_6363)"/>
<defs>
<linearGradient id="paint0_linear_982_6363" x1="22.1868" y1="39.663" x2="22.1868" y2="27.4298" gradientUnits="userSpaceOnUse">
<stop stop-color="#79A540"/>
<stop offset="0.2" stop-color="#94C63D"/>
<stop offset="0.39" stop-color="#98CA3C"/>
<stop offset="0.59" stop-color="#93C53E"/>
<stop offset="0.74" stop-color="#9DCB3B"/>
<stop offset="0.9" stop-color="#A6CE39"/>
<stop offset="1" stop-color="#A6CE39"/>
</linearGradient>
<linearGradient id="paint1_linear_982_6363" x1="22.1865" y1="39.6626" x2="22.1865" y2="27.4294" gradientUnits="userSpaceOnUse">
<stop stop-color="#79A540"/>
<stop offset="0.2" stop-color="#94C63D"/>
<stop offset="0.39" stop-color="#98CA3C"/>
<stop offset="0.59" stop-color="#93C53E"/>
<stop offset="0.74" stop-color="#9DCB3B"/>
<stop offset="0.9" stop-color="#A6CE39"/>
<stop offset="1" stop-color="#A6CE39"/>
</linearGradient>
<linearGradient id="paint2_linear_982_6363" x1="22.1865" y1="39.6626" x2="22.1865" y2="27.4294" gradientUnits="userSpaceOnUse">
<stop stop-color="#79A540"/>
<stop offset="0.2" stop-color="#94C63D"/>
<stop offset="0.39" stop-color="#98CA3C"/>
<stop offset="0.59" stop-color="#93C53E"/>
<stop offset="0.74" stop-color="#9DCB3B"/>
<stop offset="0.9" stop-color="#A6CE39"/>
<stop offset="1" stop-color="#A6CE39"/>
</linearGradient>
<linearGradient id="paint3_linear_982_6363" x1="20" y1="44.5" x2="27.75" y2="7.5" gradientUnits="userSpaceOnUse">
<stop stop-color="white" stop-opacity="0.9"/>
<stop offset="0.28" stop-color="white" stop-opacity="0.5"/>
<stop offset="0.65" stop-color="#FAFBFC" stop-opacity="0.4"/>
<stop offset="1" stop-color="#F0EFEF" stop-opacity="0.3"/>
</linearGradient>
<linearGradient id="paint4_linear_982_6363" x1="24.2613" y1="3.91164" x2="12.3416" y2="-4.0708" gradientUnits="userSpaceOnUse">
<stop stop-color="#F0EFEF" stop-opacity="0.3"/>
<stop offset="0.35" stop-color="#FAFBFC" stop-opacity="0.4"/>
<stop offset="0.72" stop-color="white" stop-opacity="0.5"/>
<stop offset="0.96" stop-color="white" stop-opacity="0.85"/>
<stop offset="1" stop-color="white" stop-opacity="0.9"/>
</linearGradient>
<linearGradient id="paint5_linear_982_6363" x1="37.7613" y1="17.4116" x2="33.6585" y2="14.4767" gradientUnits="userSpaceOnUse">
<stop stop-color="#F0EFEF" stop-opacity="0.3"/>
<stop offset="0.35" stop-color="#FAFBFC" stop-opacity="0.4"/>
<stop offset="0.72" stop-color="white" stop-opacity="0.5"/>
<stop offset="0.96" stop-color="white" stop-opacity="0.85"/>
<stop offset="1" stop-color="white" stop-opacity="0.9"/>
</linearGradient>
<linearGradient id="paint6_linear_982_6363" x1="49.5933" y1="64.8129" x2="49.5933" y2="63.2241" gradientUnits="userSpaceOnUse">
<stop stop-color="#79A540"/>
<stop offset="0.2" stop-color="#94C63D"/>
<stop offset="0.39" stop-color="#98CA3C"/>
<stop offset="0.59" stop-color="#93C53E"/>
<stop offset="0.74" stop-color="#9DCB3B"/>
<stop offset="0.9" stop-color="#A6CE39"/>
<stop offset="1" stop-color="#A6CE39"/>
</linearGradient>
<linearGradient id="paint7_linear_982_6363" x1="52.3651" y1="67.7532" x2="52.3651" y2="64.1025" gradientUnits="userSpaceOnUse">
<stop stop-color="#79A540"/>
<stop offset="0.2" stop-color="#94C63D"/>
<stop offset="0.39" stop-color="#98CA3C"/>
<stop offset="0.59" stop-color="#93C53E"/>
<stop offset="0.74" stop-color="#9DCB3B"/>
<stop offset="0.9" stop-color="#A6CE39"/>
<stop offset="1" stop-color="#A6CE39"/>
</linearGradient>
<linearGradient id="paint8_linear_982_6363" x1="52.8384" y1="67.2809" x2="52.8384" y2="65.4893" gradientUnits="userSpaceOnUse">
<stop stop-color="#79A540"/>
<stop offset="0.2" stop-color="#94C63D"/>
<stop offset="0.39" stop-color="#98CA3C"/>
<stop offset="0.59" stop-color="#93C53E"/>
<stop offset="0.74" stop-color="#9DCB3B"/>
<stop offset="0.9" stop-color="#A6CE39"/>
<stop offset="1" stop-color="#A6CE39"/>
</linearGradient>
<linearGradient id="paint9_linear_982_6363" x1="57.0523" y1="69.7814" x2="57.0523" y2="51.8096" gradientUnits="userSpaceOnUse">
<stop stop-color="#79A540"/>
<stop offset="0.2" stop-color="#94C63D"/>
<stop offset="0.39" stop-color="#98CA3C"/>
<stop offset="0.59" stop-color="#93C53E"/>
<stop offset="0.74" stop-color="#9DCB3B"/>
<stop offset="0.9" stop-color="#A6CE39"/>
<stop offset="1" stop-color="#A6CE39"/>
</linearGradient>
<linearGradient id="paint10_linear_982_6363" x1="50.4044" y1="65.4327" x2="50.4044" y2="63.7651" gradientUnits="userSpaceOnUse">
<stop stop-color="#79A540"/>
<stop offset="0.2" stop-color="#94C63D"/>
<stop offset="0.39" stop-color="#98CA3C"/>
<stop offset="0.59" stop-color="#93C53E"/>
<stop offset="0.74" stop-color="#9DCB3B"/>
<stop offset="0.9" stop-color="#A6CE39"/>
<stop offset="1" stop-color="#A6CE39"/>
</linearGradient>
<linearGradient id="paint11_linear_982_6363" x1="50.3874" y1="62.7476" x2="48.9834" y2="65.182" gradientUnits="userSpaceOnUse">
<stop stop-color="white" stop-opacity="0.9"/>
<stop offset="0.28" stop-color="white" stop-opacity="0.5"/>
<stop offset="0.65" stop-color="#FAFBFC" stop-opacity="0.4"/>
<stop offset="1" stop-color="#F0EFEF" stop-opacity="0.3"/>
</linearGradient>
<linearGradient id="paint12_linear_982_6363" x1="53.5915" y1="64.2419" x2="51.712" y2="67.4915" gradientUnits="userSpaceOnUse">
<stop stop-color="white" stop-opacity="0.9"/>
<stop offset="0.28" stop-color="white" stop-opacity="0.5"/>
<stop offset="0.65" stop-color="#FAFBFC" stop-opacity="0.4"/>
<stop offset="1" stop-color="#F0EFEF" stop-opacity="0.3"/>
</linearGradient>
<linearGradient id="paint13_linear_982_6363" x1="53.8068" y1="64.8991" x2="52.3575" y2="67.4014" gradientUnits="userSpaceOnUse">
<stop stop-color="white" stop-opacity="0.9"/>
<stop offset="0.28" stop-color="white" stop-opacity="0.5"/>
<stop offset="0.65" stop-color="#FAFBFC" stop-opacity="0.4"/>
<stop offset="1" stop-color="#F0EFEF" stop-opacity="0.3"/>
</linearGradient>
<linearGradient id="paint14_linear_982_6363" x1="63.2499" y1="49.9752" x2="52.165" y2="69.1671" gradientUnits="userSpaceOnUse">
<stop stop-color="white" stop-opacity="0.9"/>
<stop offset="0.28" stop-color="white" stop-opacity="0.5"/>
<stop offset="0.65" stop-color="#FAFBFC" stop-opacity="0.4"/>
<stop offset="1" stop-color="#F0EFEF" stop-opacity="0.3"/>
</linearGradient>
<linearGradient id="paint15_linear_982_6363" x1="51.0782" y1="63.585" x2="49.9459" y2="65.5438" gradientUnits="userSpaceOnUse">
<stop stop-color="white" stop-opacity="0.9"/>
<stop offset="0.28" stop-color="white" stop-opacity="0.5"/>
<stop offset="0.65" stop-color="#FAFBFC" stop-opacity="0.4"/>
<stop offset="1" stop-color="#F0EFEF" stop-opacity="0.3"/>
</linearGradient>
<linearGradient id="paint16_linear_982_6363" x1="76.4435" y1="80.2621" x2="54.6489" y2="43.0277" gradientUnits="userSpaceOnUse">
<stop stop-color="white" stop-opacity="0.9"/>
<stop offset="0.04" stop-color="white" stop-opacity="0.85"/>
<stop offset="0.28" stop-color="white" stop-opacity="0.5"/>
<stop offset="0.65" stop-color="#FAFBFC" stop-opacity="0.4"/>
<stop offset="1" stop-color="#F0EFEF" stop-opacity="0.3"/>
</linearGradient>
<linearGradient id="paint17_linear_982_6363" x1="73.3333" y1="35.1336" x2="55.2253" y2="8.61703" gradientUnits="userSpaceOnUse">
<stop stop-color="white" stop-opacity="0.9"/>
<stop offset="0.04" stop-color="white" stop-opacity="0.85"/>
<stop offset="0.28" stop-color="white" stop-opacity="0.5"/>
<stop offset="0.65" stop-color="#FAFBFC" stop-opacity="0.4"/>
<stop offset="1" stop-color="#F0EFEF" stop-opacity="0.3"/>
</linearGradient>
<linearGradient id="paint18_linear_982_6363" x1="54.434" y1="10.0383" x2="69.4045" y2="36.345" gradientUnits="userSpaceOnUse">
<stop stop-color="#F0EFEF" stop-opacity="0"/>
<stop offset="0.35" stop-color="#FAFBFC" stop-opacity="0.4"/>
<stop offset="0.72" stop-color="white" stop-opacity="0.5"/>
<stop offset="1" stop-color="white" stop-opacity="0.9"/>
</linearGradient>
<linearGradient id="paint19_linear_982_6363" x1="1.92041" y1="45.9934" x2="20.0284" y2="72.5099" gradientUnits="userSpaceOnUse">
<stop stop-color="white" stop-opacity="0.9"/>
<stop offset="0.04" stop-color="white" stop-opacity="0.85"/>
<stop offset="0.28" stop-color="white" stop-opacity="0.5"/>
<stop offset="0.65" stop-color="#FAFBFC" stop-opacity="0.4"/>
<stop offset="1" stop-color="#F0EFEF" stop-opacity="0.3"/>
</linearGradient>
<linearGradient id="paint20_linear_982_6363" x1="20.8197" y1="71.0886" x2="5.84913" y2="44.7819" gradientUnits="userSpaceOnUse">
<stop stop-color="#F0EFEF" stop-opacity="0"/>
<stop offset="0.35" stop-color="#FAFBFC" stop-opacity="0.4"/>
<stop offset="0.72" stop-color="white" stop-opacity="0.5"/>
<stop offset="1" stop-color="white" stop-opacity="0.9"/>
</linearGradient>
<radialGradient id="paint21_radial_982_6363" cx="0" cy="0" r="1" gradientUnits="userSpaceOnUse" gradientTransform="translate(11.5331 11.1237) scale(0.777109 6.663)">
<stop stop-color="white"/>
<stop offset="0.07" stop-color="white" stop-opacity="0.93"/>
<stop offset="1" stop-color="white" stop-opacity="0"/>
</radialGradient>
<radialGradient id="paint22_radial_982_6363" cx="0" cy="0" r="1" gradientUnits="userSpaceOnUse" gradientTransform="translate(11.1727 10.5025) rotate(90) scale(0.777109 6.663)">
<stop stop-color="white"/>
<stop offset="0.07" stop-color="white" stop-opacity="0.93"/>
<stop offset="1" stop-color="white" stop-opacity="0"/>
</radialGradient>
<radialGradient id="paint23_radial_982_6363" cx="0" cy="0" r="1" gradientUnits="userSpaceOnUse" gradientTransform="translate(74.1649 34.4924) scale(0.777109 6.663)">
<stop stop-color="white"/>
<stop offset="0.07" stop-color="white" stop-opacity="0.93"/>
<stop offset="1" stop-color="white" stop-opacity="0"/>
</radialGradient>
<radialGradient id="paint24_radial_982_6363" cx="0" cy="0" r="1" gradientUnits="userSpaceOnUse" gradientTransform="translate(73.8043 33.8707) rotate(90) scale(0.777109 6.663)">
<stop stop-color="white"/>
<stop offset="0.07" stop-color="white" stop-opacity="0.93"/>
<stop offset="1" stop-color="white" stop-opacity="0"/>
</radialGradient>
</defs>
</svg>
