<svg width="87" height="81" viewBox="0 0 87 81" fill="none" xmlns="http://www.w3.org/2000/svg">
<path d="M40.6043 25.5659L39.1611 24.7589C39.3984 23.6123 39.5202 22.446 39.5247 21.2764C39.5266 20.1034 39.4086 18.9331 39.1724 17.7828L40.6043 16.9758C41.0388 16.7336 41.3604 16.3375 41.5021 15.8702C41.6278 15.3919 41.5586 14.8849 41.3089 14.4551L37.3883 7.82177C37.2623 7.60894 37.0944 7.42236 36.8943 7.27271C36.6941 7.12305 36.4656 7.01325 36.2218 6.94959C35.978 6.88592 35.7237 6.86965 35.4734 6.90169C35.2231 6.93373 34.9818 7.01346 34.7632 7.13632L33.3313 7.94338C31.5149 6.39076 29.403 5.20006 27.1152 4.43877V2.86888C27.1152 2.62352 27.0655 2.38056 26.969 2.15388C26.8725 1.92719 26.731 1.72122 26.5527 1.54773C26.3743 1.37423 26.1626 1.23661 25.9296 1.14271C25.6966 1.04882 25.4469 1.00049 25.1947 1.00049H17.3535C16.8441 1.00049 16.3556 1.19734 15.9955 1.54773C15.6353 1.89812 15.433 2.37335 15.433 2.86888V4.43877C13.1466 5.1958 11.0375 6.38705 9.22819 7.94338L7.78496 7.13632C7.56596 7.01115 7.32338 6.93002 7.07156 6.89774C6.81975 6.86546 6.56384 6.88268 6.31899 6.94838C6.07872 7.01165 5.85413 7.12168 5.65881 7.27179C5.46348 7.42191 5.30148 7.60901 5.18259 7.82177L1.262 14.4551C1.13304 14.666 1.04943 14.9001 1.01622 15.1434C0.983016 15.3866 1.00091 15.6339 1.06881 15.8702C1.21046 16.3375 1.53207 16.7336 1.96657 16.9758L3.39844 17.7828C3.16054 18.933 3.03874 20.1031 3.03479 21.2764C3.03735 22.4461 3.15917 23.6126 3.39844 24.7589L1.96657 25.5659C1.7478 25.6885 1.55602 25.8518 1.40219 26.0465C1.24835 26.2412 1.13549 26.4636 1.07005 26.7007C1.00461 26.9379 0.987882 27.1854 1.02082 27.4289C1.05375 27.6723 1.13571 27.9071 1.262 28.1198L5.18259 34.7531C5.4389 35.1811 5.85939 35.4925 6.35164 35.619C6.84389 35.7454 7.36761 35.6765 7.80768 35.4275L9.23955 34.6315C11.056 36.1813 13.1682 37.3684 15.4557 38.125V39.7281C15.4645 40.2141 15.6677 40.6775 16.022 41.0202C16.3763 41.3628 16.8539 41.5577 17.3535 41.5633H25.1947C25.704 41.5633 26.1925 41.3665 26.5527 41.0161C26.9128 40.6657 27.1152 40.1905 27.1152 39.6949V38.1029C29.4003 37.3432 31.5088 36.1523 33.3199 34.5983L34.7632 35.4054C35.2033 35.6544 35.727 35.7233 36.2192 35.5968C36.7115 35.4704 37.132 35.159 37.3883 34.731L41.3089 28.0977C41.5538 27.6696 41.6172 27.1654 41.4856 26.6925C41.354 26.2196 41.0378 25.8153 40.6043 25.5659ZM40.2407 27.5228L36.3201 34.1561C36.2275 34.3094 36.0765 34.421 35.8999 34.4665C35.7232 34.5121 35.5353 34.4879 35.3768 34.3993L33.5472 33.3712C33.4335 33.3064 33.3014 33.2789 33.1704 33.2929C33.0394 33.3068 32.9166 33.3614 32.8199 33.4486C30.9631 35.1353 28.7422 36.3969 26.3197 37.1411C26.1938 37.1791 26.0838 37.2555 26.006 37.3591C25.9283 37.4626 25.8868 37.5878 25.8879 37.716V39.7502C25.8879 39.9291 25.8148 40.1006 25.6848 40.2271C25.5548 40.3536 25.3785 40.4246 25.1947 40.4246H17.3535C17.1696 40.4246 16.9933 40.3536 16.8633 40.2271C16.7333 40.1006 16.6603 39.9291 16.6603 39.7502V37.6718C16.6595 37.544 16.6174 37.4196 16.5399 37.3164C16.4624 37.2132 16.3534 37.1364 16.2284 37.0969C13.8009 36.3654 11.5722 35.1151 9.70548 33.4375C9.59708 33.3317 9.44994 33.272 9.29637 33.2717C9.18777 33.2737 9.08175 33.3042 8.98954 33.3601L7.1713 34.3772C7.01114 34.4664 6.82143 34.4908 6.64293 34.4453C6.46444 34.3998 6.31141 34.2881 6.21672 34.134L2.29613 27.5007C2.24951 27.4247 2.21898 27.3405 2.20633 27.2529C2.19368 27.1653 2.19916 27.0761 2.22246 26.9906C2.24575 26.9051 2.28639 26.825 2.34197 26.755C2.39756 26.685 2.46698 26.6266 2.54613 26.5831L4.37574 25.5549C4.47413 25.495 4.55305 25.4092 4.60333 25.3074C4.65362 25.2057 4.67322 25.0921 4.65985 24.98C4.38543 23.7784 4.24446 22.5515 4.23938 21.3206C4.24394 20.089 4.38877 18.8617 4.67121 17.6612C4.70061 17.536 4.68775 17.405 4.63452 17.2875C4.5813 17.17 4.49055 17.0723 4.37574 17.0089L2.54613 15.9808C2.46701 15.9376 2.39791 15.8789 2.34316 15.8085C2.28841 15.7382 2.24918 15.6575 2.22794 15.5717C2.20057 15.4817 2.19249 15.3872 2.20422 15.294C2.21595 15.2008 2.24723 15.1109 2.29613 15.03L6.21672 8.39666C6.26113 8.31968 6.3214 8.25246 6.39375 8.19919C6.4661 8.14593 6.54898 8.10777 6.63719 8.0871C6.81739 8.04192 7.00854 8.06566 7.1713 8.15343L9.00091 9.1816C9.11288 9.24548 9.24307 9.27245 9.37208 9.25851C9.50109 9.24456 9.62201 9.19044 9.71684 9.10421C11.5819 7.42765 13.8058 6.17411 16.2284 5.43377C16.3534 5.39426 16.4624 5.31745 16.5399 5.21425C16.6174 5.11104 16.6595 4.9867 16.6603 4.85888V2.86888C16.6603 2.69002 16.7333 2.51849 16.8633 2.39201C16.9933 2.26554 17.1696 2.19449 17.3535 2.19449H25.1947C25.3785 2.19449 25.5548 2.26554 25.6848 2.39201C25.8148 2.51849 25.8879 2.69002 25.8879 2.86888V4.86993C25.8868 4.99817 25.9283 5.12332 26.006 5.22686C26.0838 5.3304 26.1938 5.40683 26.3197 5.44482C28.742 6.18056 30.966 7.43044 32.8313 9.10421C32.9284 9.1901 33.0503 9.24469 33.1805 9.26053C33.3107 9.27636 33.4428 9.25265 33.5586 9.19266L35.3768 8.16449C35.5353 8.07627 35.7232 8.05243 35.8996 8.09816C35.9878 8.11882 36.0707 8.15698 36.143 8.21025C36.2154 8.26351 36.2756 8.33074 36.3201 8.40771L40.2407 15.03C40.2874 15.1056 40.3175 15.1898 40.3293 15.2773C40.341 15.3649 40.3341 15.4538 40.3088 15.5385C40.2876 15.6244 40.2484 15.705 40.1936 15.7754C40.1389 15.8458 40.0698 15.9044 39.9906 15.9476L38.1724 16.9758C38.0585 17.0372 37.9682 17.1329 37.9149 17.2485C37.8616 17.3641 37.8483 17.4934 37.8769 17.617C38.4372 20.0261 38.4372 22.5266 37.8769 24.9358C37.8483 25.0597 37.8603 25.1893 37.9113 25.3063C37.9622 25.4233 38.0496 25.5218 38.161 25.588L39.9906 26.6162C40.0683 26.6597 40.1363 26.7177 40.1909 26.7868C40.2455 26.856 40.2856 26.9349 40.3088 27.0191C40.332 27.1033 40.3379 27.1911 40.3263 27.2775C40.3146 27.364 40.2855 27.4473 40.2407 27.5228Z" stroke="#606161" stroke-width="0.19" stroke-miterlimit="10"/>
<path d="M40.6043 25.5768L39.1611 24.7697C39.3984 23.6232 39.5202 22.4568 39.5247 21.2872C39.5266 20.1142 39.4086 18.944 39.1724 17.7937L40.6043 16.9866C41.0388 16.7444 41.3604 16.3484 41.5021 15.8811C41.6278 15.4028 41.5586 14.8957 41.3089 14.466L37.3883 7.83263C37.143 7.40681 36.7345 7.09278 36.2519 6.95924C36.009 6.89318 35.7548 6.87578 35.5048 6.90808C35.2547 6.94039 35.014 7.02173 34.7973 7.14718L33.3654 7.95424C31.549 6.40163 29.4371 5.21092 27.1493 4.44963V2.86868C27.1493 2.62332 27.0996 2.38037 27.0031 2.15368C26.9066 1.927 26.7651 1.72103 26.5868 1.54753C26.4084 1.37404 26.1967 1.23641 25.9637 1.14252C25.7307 1.04862 25.481 1.00029 25.2288 1.00029H17.3876C17.1325 0.995889 16.8791 1.04096 16.6421 1.13288C16.4052 1.2248 16.1894 1.36173 16.0075 1.53567C15.8255 1.7096 15.681 1.91706 15.5823 2.14594C15.4837 2.37481 15.4329 2.62051 15.433 2.86868V4.44963C13.1466 5.20666 11.0375 6.39791 9.22819 7.95424L7.78496 7.14718C7.56597 7.02202 7.32338 6.94089 7.07156 6.9086C6.81975 6.87632 6.56384 6.89354 6.31899 6.95924C6.07951 7.02425 5.85572 7.13495 5.66062 7.28489C5.46553 7.43483 5.30303 7.62102 5.18259 7.83263L1.262 14.466C1.13304 14.6768 1.04943 14.911 1.01622 15.1542C0.983016 15.3975 1.00091 15.6448 1.06881 15.8811C1.21046 16.3484 1.53207 16.7444 1.96657 16.9866L3.39844 17.7937C3.16054 18.9439 3.03874 20.114 3.03479 21.2872C3.03735 22.4569 3.15917 23.6235 3.39844 24.7697L1.96657 25.5768C1.7478 25.6994 1.55602 25.8627 1.40219 26.0574C1.24835 26.2521 1.13549 26.4744 1.07005 26.7116C1.00461 26.9488 0.987882 27.1962 1.02082 27.4397C1.05375 27.6832 1.13571 27.918 1.262 28.1306L5.18259 34.764C5.4389 35.1919 5.85939 35.5034 6.35164 35.6298C6.84389 35.7563 7.36761 35.6874 7.80768 35.4384L9.23955 34.6424C11.056 36.1922 13.1682 37.3792 15.4557 38.1359V39.739C15.4674 40.223 15.6718 40.6837 16.0259 41.024C16.3799 41.3642 16.8558 41.5575 17.3535 41.5631H25.1947C25.704 41.5631 26.1925 41.3663 26.5527 41.0159C26.9128 40.6655 27.1152 40.1903 27.1152 39.6947V38.1138C29.4003 37.3541 31.5088 36.1631 33.32 34.6092L34.7632 35.4162C35.2033 35.6653 35.727 35.7342 36.2192 35.6077C36.7115 35.4812 37.132 35.1698 37.3883 34.7419L41.3089 28.1085C41.5538 27.6804 41.6172 27.1762 41.4856 26.7033C41.354 26.2304 41.0378 25.8262 40.6043 25.5768ZM40.2407 27.5336L36.3201 34.167C36.2275 34.3203 36.0765 34.4318 35.8999 34.4774C35.7232 34.5229 35.5353 34.4988 35.3768 34.4102L33.5472 33.382C33.4335 33.3172 33.3014 33.2898 33.1704 33.3037C33.0394 33.3177 32.9166 33.3723 32.8199 33.4594C30.962 35.1421 28.7412 36.3999 26.3197 37.1409C26.1938 37.1789 26.0838 37.2553 26.006 37.3589C25.9283 37.4624 25.8868 37.5876 25.8879 37.7158V39.75C25.8879 39.9289 25.8148 40.1004 25.6848 40.2269C25.5548 40.3534 25.3785 40.4244 25.1947 40.4244H17.3535C17.1696 40.4244 16.9933 40.3534 16.8633 40.2269C16.7333 40.1004 16.6603 39.9289 16.6603 39.75V37.6826C16.6595 37.5548 16.6174 37.4305 16.5399 37.3273C16.4624 37.2241 16.3534 37.1473 16.2284 37.1077C13.8009 36.3762 11.5722 35.1259 9.70548 33.4484C9.59708 33.3425 9.44994 33.2829 9.29637 33.2825C9.18777 33.2845 9.08175 33.3151 8.98954 33.371L7.1713 34.3881C7.01114 34.4772 6.82143 34.5017 6.64293 34.4562C6.46444 34.4107 6.31141 34.2989 6.21672 34.1449L2.29613 27.5115C2.20506 27.3574 2.18024 27.1745 2.22706 27.0027C2.27388 26.8308 2.38855 26.6839 2.54613 26.5939L4.37574 25.5657C4.47605 25.505 4.55621 25.4175 4.6066 25.3135C4.657 25.2096 4.67548 25.0937 4.65985 24.9798C4.38543 23.7782 4.24446 22.5513 4.23938 21.3204C4.24394 20.0888 4.38877 18.8616 4.67121 17.661C4.70061 17.5358 4.68775 17.4048 4.63452 17.2873C4.5813 17.1698 4.49055 17.0721 4.37574 17.0087L2.54613 15.9916C2.38812 15.897 2.27404 15.7464 2.22794 15.5715C2.20057 15.4815 2.19249 15.387 2.20422 15.2938C2.21595 15.2006 2.24723 15.1107 2.29613 15.0298L6.21672 8.39646C6.26113 8.31949 6.3214 8.25226 6.39375 8.199C6.4661 8.14573 6.54898 8.10757 6.63719 8.08691C6.81739 8.04173 7.00854 8.06547 7.1713 8.15324L9.00091 9.18141C9.11288 9.24528 9.24307 9.27226 9.37208 9.25831C9.50109 9.24437 9.62201 9.19025 9.71684 9.10402C11.5819 7.42746 13.8058 6.17391 16.2284 5.43357C16.3534 5.39407 16.4624 5.31725 16.5399 5.21405C16.6174 5.11085 16.6595 4.9865 16.6603 4.85868V2.86868C16.6603 2.68982 16.7333 2.51829 16.8633 2.39182C16.9933 2.26535 17.1696 2.19429 17.3535 2.19429H25.1947C25.3785 2.19429 25.5548 2.26535 25.6848 2.39182C25.8148 2.51829 25.8879 2.68982 25.8879 2.86868V4.8808C25.8868 5.00903 25.9283 5.13419 26.006 5.23773C26.0838 5.34127 26.1938 5.41769 26.3197 5.45568C28.742 6.19142 30.966 7.4413 32.8313 9.11507C32.9266 9.20398 33.0489 9.2606 33.1799 9.27654C33.3109 9.29247 33.4437 9.26686 33.5586 9.20352L35.3768 8.17535C35.5353 8.08713 35.7232 8.06329 35.8996 8.10902C35.9878 8.12968 36.0707 8.16784 36.143 8.22111C36.2154 8.27437 36.2756 8.3416 36.3201 8.41857L40.2407 15.0298C40.2874 15.1054 40.3175 15.1896 40.3293 15.2772C40.341 15.3647 40.3341 15.4536 40.3088 15.5384C40.2627 15.7132 40.1487 15.8638 39.9906 15.9585L38.1724 16.9756C38.0585 17.037 37.9682 17.1327 37.9149 17.2483C37.8616 17.3639 37.8483 17.4932 37.8769 17.6168C38.4372 20.0259 38.4372 22.5264 37.8769 24.9356C37.8483 25.0595 37.8603 25.1891 37.9113 25.3061C37.9622 25.4231 38.0496 25.5216 38.161 25.5879L39.9906 26.616C40.1482 26.706 40.2629 26.8529 40.3097 27.0248C40.3565 27.1966 40.3317 27.3795 40.2407 27.5336Z" fill="url(#paint0_linear_982_6307)"/>
<path d="M21.2739 9.24805C18.8263 9.24805 16.4336 9.95415 14.3985 11.2771C12.3633 12.6 10.7771 14.4803 9.84047 16.6802C8.9038 18.8802 8.65872 21.3009 9.13623 23.6363C9.61374 25.9718 10.7924 28.117 12.5231 29.8008C14.2539 31.4845 16.459 32.6312 18.8596 33.0957C21.2602 33.5603 23.7484 33.3218 26.0098 32.4106C28.2711 31.4994 30.2039 29.9562 31.5637 27.9763C32.9235 25.9965 33.6493 23.6687 33.6493 21.2875C33.6463 18.0954 32.3415 15.0348 30.0213 12.7776C27.7011 10.5204 24.5551 9.25097 21.2739 9.24805ZM21.2739 32.1331C19.0658 32.1352 16.9066 31.5001 15.0697 30.308C13.2328 29.1159 11.8007 27.4205 10.9547 25.4362C10.1086 23.452 9.88668 21.2682 10.3169 19.1612C10.7471 17.0542 11.8102 15.1187 13.3716 13.5998C14.9329 12.0808 16.9224 11.0466 19.0882 10.628C21.254 10.2095 23.4987 10.4254 25.5383 11.2485C27.5779 12.0715 29.3207 13.4648 30.546 15.2518C31.7714 17.0389 32.4243 19.1394 32.422 21.2875C32.419 24.1631 31.2435 26.92 29.1535 28.9532C27.0634 30.9865 24.2296 32.1301 21.2739 32.1331Z" fill="url(#paint1_linear_982_6307)"/>
<path d="M21.3195 9.11523C18.8719 9.11523 16.4792 9.82134 14.4441 11.1443C12.409 12.4672 10.8228 14.3475 9.88612 16.5474C8.94945 18.7474 8.70438 21.1681 9.18189 23.5035C9.6594 25.839 10.838 27.9842 12.5688 29.668C14.2995 31.3517 16.5046 32.4984 18.9052 32.9629C21.3058 33.4275 23.7941 33.189 26.0554 32.2778C28.3167 31.3665 30.2495 29.8234 31.6093 27.8435C32.9692 25.8636 33.695 23.5359 33.695 21.1547C33.692 17.9626 32.3872 14.902 30.067 12.6448C27.7468 10.3875 24.6008 9.11816 21.3195 9.11523ZM21.3195 32.0002C19.1146 32.0002 16.9593 31.3642 15.126 30.1724C13.2927 28.9807 11.8638 27.2869 11.02 25.3051C10.1762 23.3234 9.95547 21.1427 10.3856 19.0389C10.8158 16.9351 11.8775 15.0026 13.4366 13.4858C14.9957 11.969 16.9821 10.9361 19.1446 10.5176C21.3072 10.0992 23.5487 10.3139 25.5857 11.1348C27.6228 11.9557 29.3639 13.3458 30.5889 15.1293C31.8138 16.9128 32.4677 19.0097 32.4677 21.1547C32.4646 24.0302 31.2892 26.7871 29.1991 28.8204C27.1091 30.8537 24.2753 31.9973 21.3195 32.0002Z" stroke="url(#paint2_linear_982_6307)" stroke-width="0.1" stroke-miterlimit="10"/>
<path d="M23.5583 18.1473H21.2855C21.1228 18.1473 20.9667 18.2102 20.8516 18.3221C20.7365 18.4341 20.6719 18.5859 20.6719 18.7443V23.874C20.6719 24.0324 20.7365 24.1842 20.8516 24.2962C20.9667 24.4081 21.1228 24.471 21.2855 24.471C21.4474 24.4682 21.6018 24.4044 21.7162 24.2931C21.8307 24.1817 21.8963 24.0315 21.8992 23.874V22.5142H23.5697C23.8944 22.5646 24.2264 22.5459 24.5429 22.4594C24.8594 22.3728 25.1529 22.2205 25.403 22.0129C25.6531 21.8054 25.854 21.5475 25.9917 21.257C26.1294 20.9666 26.2008 20.6506 26.2008 20.3307C26.2008 20.0109 26.1294 19.6949 25.9917 19.4044C25.854 19.114 25.6531 18.8561 25.403 18.6485C25.1529 18.441 24.8594 18.2886 24.5429 18.2021C24.2264 18.1156 23.8944 18.0969 23.5697 18.1473H23.5583ZM23.5583 21.3202H21.8878V19.3302H23.5583C23.8296 19.3302 24.0897 19.435 24.2815 19.6216C24.4733 19.8082 24.5811 20.0613 24.5811 20.3252C24.5811 20.5891 24.4733 20.8422 24.2815 21.0288C24.0897 21.2154 23.8296 21.3202 23.5583 21.3202Z" fill="url(#paint3_linear_982_6307)"/>
<path d="M17.9215 18.5344C17.878 18.4217 17.8004 18.3244 17.699 18.2553C17.5976 18.1863 17.4771 18.1487 17.3533 18.1475H16.6942C16.5705 18.1487 16.45 18.1863 16.3486 18.2553C16.2471 18.3244 16.1696 18.4217 16.126 18.5344L14.1601 23.62C14.1269 23.7604 14.1472 23.9078 14.2171 24.0349C14.2869 24.162 14.4017 24.2602 14.5402 24.3114C14.6787 24.3626 14.8316 24.3634 14.9706 24.3135C15.1095 24.2636 15.2253 24.1665 15.2965 24.0401L15.6374 23.1556H18.3875L18.7284 24.0401C18.7719 24.1528 18.8495 24.2501 18.9509 24.3191C19.0523 24.3882 19.1728 24.4258 19.2966 24.427C19.3681 24.4386 19.441 24.4386 19.5125 24.427C19.6643 24.3722 19.7877 24.2613 19.8558 24.1185C19.9239 23.9756 19.9312 23.8123 19.8762 23.6642L17.9215 18.5344ZM16.1147 21.9616L17.0238 19.5847L17.9329 21.9616H16.1147Z" fill="url(#paint4_linear_982_6307)"/>
<path d="M27.1493 18.1475C26.9865 18.1475 26.8305 18.2104 26.7154 18.3223C26.6003 18.4343 26.5356 18.5861 26.5356 18.7445V23.8742C26.5629 24.0102 26.6379 24.1326 26.7478 24.2207C26.8577 24.3087 26.9956 24.3569 27.1379 24.3569C27.2803 24.3569 27.4182 24.3087 27.5281 24.2207C27.638 24.1326 27.713 24.0102 27.7402 23.8742V18.7887C27.7464 18.7085 27.7359 18.6279 27.7092 18.5517C27.6826 18.4756 27.6404 18.4055 27.5852 18.3456C27.53 18.2857 27.4629 18.2373 27.388 18.2032C27.3131 18.1692 27.2319 18.1502 27.1493 18.1475Z" fill="url(#paint5_linear_982_6307)"/>
<path d="M25.6491 7.92098C26.0779 8.04891 26.4991 8.20024 26.9105 8.37426C26.9892 8.39005 27.0704 8.39005 27.1491 8.37426C27.2703 8.3748 27.3889 8.34045 27.49 8.27553C27.5911 8.2106 27.6702 8.11801 27.7173 8.00942C27.7505 7.93788 27.7682 7.86049 27.7694 7.78202C27.7707 7.70355 27.7554 7.62567 27.7245 7.55317C27.6936 7.48067 27.6478 7.41508 27.5899 7.36046C27.532 7.30583 27.4632 7.26332 27.3878 7.23554C26.9424 7.0468 26.4872 6.88074 26.0241 6.73804C25.8856 6.72522 25.7468 6.75854 25.6304 6.83253C25.5139 6.90651 25.4268 7.01678 25.3832 7.14527C25.3396 7.27375 25.3422 7.41282 25.3905 7.5397C25.4388 7.66657 25.53 7.77372 25.6491 7.84359V7.92098Z" fill="url(#paint6_linear_982_6307)"/>
<path d="M8.60305 27.9869C8.52406 27.8497 8.39264 27.7484 8.23731 27.7049C8.08199 27.6614 7.91531 27.6793 7.77347 27.7547C7.70254 27.7917 7.63994 27.8421 7.58937 27.903C7.5388 27.9639 7.50129 28.034 7.47904 28.1092C7.45679 28.1845 7.45027 28.2633 7.45985 28.341C7.46943 28.4187 7.49493 28.4938 7.53483 28.5618C7.78483 29.0151 8.06894 29.4573 8.3644 29.8884C8.42319 29.9669 8.5001 30.0307 8.58893 30.0749C8.67776 30.1191 8.77602 30.1423 8.87578 30.1427C8.99693 30.1424 9.11538 30.1078 9.2167 30.0432C9.3507 29.9537 9.44271 29.8161 9.47253 29.6606C9.50236 29.5052 9.46757 29.3446 9.3758 29.2141C9.10306 28.8161 8.84169 28.407 8.60305 27.9869Z" fill="url(#paint7_linear_982_6307)"/>
<path d="M20.0125 35.2619C16.7153 34.9758 13.6187 33.5983 11.2395 31.3593C11.1842 31.2956 11.1159 31.244 11.0389 31.2075C10.9619 31.1711 10.878 31.1508 10.7924 31.1478C10.7068 31.1449 10.6216 31.1594 10.5421 31.1904C10.4627 31.2214 10.3908 31.2682 10.331 31.3279C10.2713 31.3876 10.2251 31.4587 10.1953 31.5368C10.1655 31.6149 10.1529 31.6982 10.1582 31.7813C10.1634 31.8645 10.1865 31.9456 10.226 32.0195C10.2654 32.0934 10.3203 32.1585 10.3872 32.2106C12.9686 34.6424 16.3308 36.1373 19.9102 36.4448H19.9671C20.1192 36.4453 20.2659 36.3896 20.3777 36.2891C20.4894 36.1886 20.5579 36.0507 20.5694 35.9031C20.5771 35.8252 20.5688 35.7466 20.5449 35.6719C20.5209 35.5973 20.4819 35.528 20.43 35.4682C20.3781 35.4085 20.3144 35.3594 20.2427 35.324C20.171 35.2885 20.0927 35.2674 20.0125 35.2619Z" fill="url(#paint8_linear_982_6307)"/>
<path d="M8.71679 28.0203C8.63974 27.8812 8.50916 27.7775 8.35367 27.7319C8.19817 27.6863 8.03043 27.7026 7.88722 27.7771C7.74425 27.852 7.63766 27.9791 7.5908 28.1304C7.54394 28.2816 7.56063 28.4448 7.63721 28.5841C7.88905 29.0429 8.1699 29.4859 8.47815 29.9108C8.53097 29.9932 8.60474 30.0609 8.69234 30.1074C8.77994 30.1538 8.87839 30.1775 8.97817 30.1761C9.10474 30.1769 9.22823 30.1382 9.33045 30.0656C9.46205 29.9742 9.55215 29.8368 9.58181 29.6822C9.61148 29.5276 9.57841 29.3678 9.48955 29.2364C9.20407 28.8485 8.9459 28.4422 8.71679 28.0203Z" stroke="url(#paint9_linear_982_6307)" stroke-width="0.19" stroke-miterlimit="10"/>
<path d="M20.1263 35.2835C16.8303 35.0014 13.7336 33.6277 11.3533 31.392C11.298 31.3284 11.2297 31.2767 11.1527 31.2403C11.0757 31.2038 10.9917 31.1835 10.9062 31.1806C10.8206 31.1776 10.7354 31.1921 10.6559 31.2231C10.5765 31.2541 10.5046 31.301 10.4448 31.3606C10.3851 31.4203 10.3388 31.4915 10.3091 31.5695C10.2793 31.6476 10.2666 31.7309 10.2719 31.814C10.2772 31.8972 10.3003 31.9783 10.3398 32.0522C10.3792 32.1261 10.4341 32.1912 10.5009 32.2433C13.0809 34.6756 16.4445 36.1673 20.024 36.4665C20.1046 36.4701 20.1851 36.4583 20.261 36.4316C20.3369 36.405 20.4066 36.364 20.4663 36.3112C20.5259 36.2583 20.5742 36.1945 20.6085 36.1235C20.6428 36.0524 20.6623 35.9755 20.6661 35.8971C20.6698 35.8187 20.6576 35.7404 20.6302 35.6666C20.6028 35.5927 20.5608 35.5249 20.5064 35.4669C20.4521 35.4089 20.3865 35.3619 20.3135 35.3285C20.2405 35.2952 20.1614 35.2761 20.0808 35.2725L20.1263 35.2835Z" stroke="url(#paint10_linear_982_6307)" stroke-width="0.19" stroke-miterlimit="10"/>
<path d="M30.0813 8.7066C29.948 8.62077 29.7856 8.58892 29.6285 8.61783C29.4715 8.64674 29.3322 8.73411 29.2404 8.86138C29.1934 8.9255 29.1603 8.99817 29.1428 9.07505C29.1254 9.15193 29.124 9.23145 29.1389 9.30884C29.1537 9.38623 29.1845 9.45992 29.2292 9.5255C29.274 9.59108 29.3319 9.64721 29.3995 9.69054C32.2378 11.5842 34.2919 14.3976 35.1951 17.6284C35.2305 17.7539 35.3077 17.8644 35.4147 17.9425C35.5217 18.0206 35.6523 18.0618 35.7861 18.0596H35.9452C36.1016 18.0182 36.2349 17.9182 36.3158 17.7814C36.3967 17.6447 36.4187 17.4824 36.377 17.3299C35.4053 13.8158 33.1718 10.7566 30.0813 8.7066Z" fill="url(#paint11_linear_982_6307)"/>
<path d="M25.6604 7.89906C26.0809 8.03172 26.5013 8.1865 26.9218 8.35233C27.0005 8.36877 27.0818 8.36877 27.1604 8.35233C27.2874 8.33709 27.4064 8.28361 27.5006 8.19937C27.5948 8.11513 27.6596 8.00435 27.6859 7.88252C27.7122 7.76069 27.6987 7.63392 27.6472 7.51993C27.5958 7.40593 27.5091 7.31043 27.3991 7.24678C26.9559 7.06989 26.49 6.90406 26.024 6.76033C25.9464 6.7241 25.8617 6.70446 25.7757 6.70276C25.6896 6.70105 25.6042 6.71732 25.5251 6.75045C25.4461 6.78359 25.3752 6.83283 25.3174 6.89485C25.2595 6.95687 25.216 7.03024 25.1898 7.11C25.1636 7.18976 25.1552 7.27407 25.1653 7.35724C25.1754 7.44041 25.2037 7.52051 25.2483 7.59214C25.2929 7.66377 25.3527 7.72527 25.4238 7.77249C25.4949 7.81972 25.5756 7.85156 25.6604 7.86589V7.89906Z" stroke="url(#paint12_linear_982_6307)" stroke-width="0.19" stroke-miterlimit="10"/>
<path d="M30.0927 8.69507C29.9585 8.60579 29.7934 8.57194 29.6336 8.60096C29.4738 8.62998 29.3324 8.71949 29.2404 8.84985C29.1934 8.91397 29.1603 8.98664 29.1428 9.06352C29.1254 9.1404 29.124 9.21991 29.1389 9.29731C29.1537 9.3747 29.1845 9.44839 29.2292 9.51397C29.274 9.57955 29.3319 9.63568 29.3995 9.67901C32.2406 11.565 34.2959 14.3761 35.1951 17.6058C35.2301 17.7324 35.3069 17.8443 35.4137 17.9243C35.5205 18.0042 35.6513 18.0477 35.7861 18.0481C35.8385 18.0588 35.8927 18.0588 35.9452 18.0481C36.0235 18.0289 36.097 17.9946 36.1614 17.9472C36.2258 17.8998 36.2797 17.8403 36.32 17.7722C36.3603 17.7042 36.3861 17.6289 36.3959 17.551C36.4057 17.473 36.3992 17.3939 36.377 17.3184C35.4045 13.8077 33.1761 10.7498 30.0927 8.69507Z" stroke="url(#paint13_linear_982_6307)" stroke-width="0.19" stroke-miterlimit="10"/>
<path d="M55.075 65.8129C55.1215 65.7761 55.1598 65.73 55.1876 65.6776L56.0778 64.303C56.0756 64.2767 56.0756 64.2504 56.0778 64.2241L55.075 65.8129Z" fill="url(#paint14_linear_982_6307)"/>
<path d="M57.9031 65.1701L56.4946 67.2547L57.9143 65.1025L57.9031 65.1701ZM60.0777 67.2659L59.1876 68.6406C59.1836 68.678 59.1836 68.7158 59.1876 68.7532L60.2467 67.142C60.1775 67.162 60.1176 67.2059 60.0777 67.2659Z" fill="url(#paint15_linear_982_6307)"/>
<path d="M59.2328 66.6921L58.3426 68.0781L58.2412 68.2583L59.4243 66.4668C59.3518 66.5341 59.2876 66.6098 59.2328 66.6921Z" fill="url(#paint16_linear_982_6307)"/>
<path d="M77.7115 61.3053L72.4608 53.08C72.417 53.0085 72.3557 52.9493 72.2828 52.9079C72.2099 52.8665 72.1277 52.8443 72.0439 52.8434C71.9513 52.8417 71.8606 52.8693 71.7847 52.9222L69.0354 54.6124C68.9796 54.6469 68.9313 54.6921 68.8931 54.7454C68.8549 54.7988 68.8277 54.8592 68.813 54.9231C68.7984 54.987 68.7965 55.0532 68.8076 55.1179C68.8187 55.1825 68.8425 55.2443 68.8777 55.2997L69.2833 55.9081L68.6749 56.2011C68.5625 56.2445 68.438 56.2445 68.3256 56.2011L65.5087 55.4236C65.2845 55.3624 65.0537 55.3283 64.8213 55.3222H61.6213C61.2349 55.3199 60.8535 55.4097 60.5087 55.5841C60.1638 55.7585 59.8654 56.0125 59.6382 56.325H58.1735L56.9453 55.7166L57.227 55.2997C57.2967 55.1867 57.3204 55.0512 57.2931 54.9212C57.2659 54.7912 57.1898 54.6766 57.0805 54.6011L54.3312 52.911C54.2499 52.8515 54.1499 52.8235 54.0495 52.8321C53.9696 52.8367 53.8919 52.8607 53.8232 52.9019C53.7546 52.9431 53.6969 53.0003 53.6551 53.0687L48.4044 61.2828C48.3688 61.3375 48.3443 61.3987 48.3323 61.4629C48.3204 61.5271 48.3213 61.593 48.3349 61.6569C48.3485 61.7208 48.3746 61.7813 48.4116 61.8351C48.4487 61.8888 48.4961 61.9347 48.5509 61.9701L51.2889 63.4687C51.4026 63.5403 51.5399 63.5638 51.6709 63.5343C51.8018 63.5047 51.9157 63.4244 51.9875 63.311L52.6298 62.3081L54.0495 63.7279L53.5087 64.5729C53.2983 64.9109 53.2278 65.3174 53.3119 65.7065C53.396 66.0955 53.6282 66.4366 53.9594 66.6574C54.1453 66.7699 54.3524 66.8428 54.5678 66.8715C54.5444 67.1409 54.5937 67.4116 54.7107 67.6554C54.8276 67.8992 55.0079 68.1071 55.2326 68.2574C55.3969 68.3659 55.5811 68.4407 55.7745 68.4775C55.9679 68.5142 56.1667 68.5122 56.3594 68.4715C56.4576 68.8095 56.6734 69.1012 56.9678 69.2941C57.1543 69.4148 57.3652 69.4927 57.5854 69.5219C57.8056 69.5511 58.0296 69.531 58.2411 69.4631C58.3515 69.7397 58.5442 69.9757 58.7932 70.1391C59.1264 70.3558 59.532 70.4312 59.9208 70.3488C60.3096 70.2664 60.6498 70.0329 60.8664 69.6997L60.9678 69.5307L63.8636 70.6574C64.2334 70.7978 64.6399 70.8084 65.0165 70.6876C65.3931 70.5669 65.7176 70.3218 65.9368 69.9927L66.2523 69.4969C66.6307 69.5629 67.02 69.522 67.3764 69.3786C67.7327 69.2353 68.042 68.9953 68.2692 68.6856L68.7087 68.0772C68.7485 68.0282 68.7756 67.9701 68.7875 67.9081C69.1811 67.7751 69.5236 67.5231 69.7678 67.187L70.1735 66.6236C70.4522 66.6308 70.7285 66.5711 70.9794 66.4495C71.2303 66.328 71.4485 66.1482 71.6157 65.925C71.8533 65.6188 71.9822 65.2422 71.9822 64.8546C71.9822 64.467 71.8533 64.0905 71.6157 63.7842L73.5312 62.4434L74.1284 63.356C74.1976 63.4596 74.3032 63.5334 74.4243 63.5626C74.5454 63.5918 74.6731 63.5744 74.7819 63.5138L77.5312 62.0152C77.592 61.9827 77.6453 61.9379 77.6878 61.8836C77.7303 61.8294 77.761 61.7668 77.7779 61.7C77.7949 61.6332 77.7978 61.5636 77.7863 61.4957C77.7749 61.4277 77.7494 61.3629 77.7115 61.3053ZM51.4016 62.4321L49.5312 61.4067L54.2411 53.9927L56.134 55.1194L51.4016 62.4321ZM54.5002 65.8124C54.4438 65.777 54.3951 65.7305 54.357 65.6759C54.3189 65.6212 54.2922 65.5594 54.2786 65.4942C54.2649 65.429 54.2645 65.3617 54.2774 65.2963C54.2903 65.231 54.3163 65.1689 54.3537 65.1138L55.2439 63.7391C55.278 63.6827 55.3235 63.634 55.3775 63.5961C55.4316 63.5583 55.4929 63.5322 55.5576 63.5194C55.6223 63.5067 55.689 63.5077 55.7533 63.5222C55.8177 63.5367 55.8783 63.5646 55.9312 63.6039C56.025 63.6543 56.098 63.7362 56.1372 63.8352C56.1764 63.9342 56.1792 64.0439 56.1453 64.1448C56.1431 64.171 56.1431 64.1974 56.1453 64.2236L55.2551 65.5983C55.2274 65.6507 55.189 65.6967 55.1425 65.7335C55.0655 65.8252 54.9573 65.8852 54.8387 65.9019C54.72 65.9185 54.5995 65.8906 54.5002 65.8236V65.8124ZM56.4946 67.2546V67.3222C56.4615 67.3767 56.4176 67.4237 56.3654 67.4604C56.3133 67.497 56.2542 67.5225 56.1918 67.5352C56.1293 67.5479 56.0649 67.5476 56.0026 67.5342C55.9404 67.5208 55.8815 67.4947 55.8298 67.4574C55.7757 67.4255 55.7288 67.3826 55.6923 67.3315C55.6557 67.2804 55.6303 67.2222 55.6175 67.1606C55.6048 67.0991 55.6051 67.0355 55.6183 66.9741C55.6316 66.9127 55.6576 66.8547 55.6946 66.8039L55.9087 66.4772L57.0354 64.8096L57.6213 63.7617C57.6546 63.7076 57.6984 63.6607 57.7502 63.6239C57.802 63.5871 57.8606 63.561 57.9227 63.5474C57.9847 63.5337 58.0488 63.5327 58.1113 63.5443C58.1737 63.556 58.2332 63.5801 58.2861 63.6152C58.3415 63.6473 58.3896 63.6906 58.4273 63.7422C58.4651 63.7939 58.4917 63.8529 58.5055 63.9154C58.5193 63.9779 58.5199 64.0426 58.5073 64.1053C58.4948 64.1681 58.4693 64.2276 58.4326 64.28L57.9143 65.0687L56.4946 67.2546ZM58.196 68.28C58.1243 68.3905 58.0116 68.4681 57.8827 68.4956C57.7538 68.523 57.6192 68.4982 57.5087 68.4265C57.3981 68.3547 57.3205 68.242 57.2931 68.1131C57.2656 67.9842 57.2905 67.8497 57.3622 67.7391L58.2974 66.3081L58.7256 65.6546C58.7256 65.6546 58.7256 65.6546 58.7256 65.587C58.7655 65.5352 58.8153 65.4918 58.872 65.4593C58.9287 65.4267 58.9913 65.4056 59.0562 65.3973C59.1211 65.3889 59.1869 65.3934 59.2501 65.4105C59.3132 65.4276 59.3724 65.4569 59.4242 65.4969C59.4759 65.5368 59.5194 65.5866 59.5519 65.6433C59.5845 65.7 59.6055 65.7626 59.6139 65.8275C59.6223 65.8924 59.6178 65.9583 59.6007 66.0214C59.5836 66.0845 59.5543 66.1437 59.5143 66.1955L59.3791 66.4096L58.196 68.28ZM60.9115 67.818L60.0213 69.1927C59.9882 69.25 59.9434 69.2998 59.8898 69.3387C59.8362 69.3776 59.775 69.4049 59.7102 69.4187C59.6455 69.4325 59.5785 69.4326 59.5137 69.4189C59.4489 69.4051 59.3877 69.378 59.334 69.3391C59.2432 69.2857 59.1729 69.2035 59.1341 69.1055C59.0953 69.0075 59.0903 68.8994 59.1199 68.7983C59.1159 68.7608 59.1159 68.7231 59.1199 68.6856L60.0101 67.311C60.0353 67.2599 60.0743 67.217 60.1228 67.187C60.2045 67.1221 60.3057 67.0868 60.4101 67.0868C60.5144 67.0868 60.6157 67.1221 60.6974 67.187C60.807 67.2449 60.8903 67.3425 60.9301 67.4599C60.9699 67.5772 60.9633 67.7054 60.9115 67.818ZM70.8495 65.3053C70.7355 65.452 70.5722 65.5523 70.3898 65.5876C70.2074 65.6228 70.0184 65.5906 69.858 65.4969L65.8354 63.0743C65.7201 63.0083 65.5834 62.9902 65.4549 63.0239C65.3264 63.0577 65.2162 63.1405 65.1481 63.2546C65.0845 63.3676 65.0666 63.5006 65.0981 63.6263C65.1295 63.752 65.2079 63.8609 65.3171 63.9307L69.2157 66.2743L68.9904 66.5786C68.8447 66.7846 68.6252 66.9265 68.3775 66.9747C68.1299 67.023 67.8732 66.9739 67.6608 66.8377L64.8439 65.08C64.7603 65.0253 64.662 64.9977 64.5622 65.0011C64.4306 65.0068 64.3061 65.0624 64.214 65.1566C64.1219 65.2507 64.0692 65.3765 64.0664 65.5081C64.0698 65.5943 64.0941 65.6783 64.1373 65.753C64.1805 65.8276 64.2412 65.8905 64.3143 65.9363L67.1312 67.6941C67.2773 67.7938 67.4421 67.8628 67.6157 67.8969L67.4918 68.0659C67.341 68.2812 67.1148 68.4319 66.8581 68.4883C66.6014 68.5446 66.3329 68.5024 66.1058 68.3701L63.8523 67.0743C63.7653 67.0189 63.6619 66.9951 63.5594 67.0067C63.4947 67.0096 63.4313 67.0254 63.3728 67.0531C63.3144 67.0809 63.2621 67.1201 63.219 67.1684C63.1759 67.2167 63.143 67.2732 63.1221 67.3344C63.1012 67.3957 63.0928 67.4605 63.0974 67.525C63.1018 67.6108 63.1278 67.694 63.1732 67.7669C63.2185 67.8399 63.2816 67.9001 63.3566 67.9419L65.3735 69.0687L65.1481 69.3955C65.0596 69.5369 64.9242 69.6426 64.7655 69.6941C64.6069 69.7456 64.4352 69.7396 64.2805 69.6772L61.5763 68.6518L61.8016 68.2912C62.0183 67.958 62.0937 67.5524 62.0113 67.1636C61.9289 66.7748 61.6954 66.4347 61.3622 66.218C61.1638 66.0951 60.9406 66.0182 60.7087 65.9927C60.7191 65.7361 60.6635 65.4811 60.5471 65.2523C60.4306 65.0234 60.2574 64.8283 60.0439 64.6856C59.8866 64.5813 59.7106 64.5086 59.5256 64.4715C59.6319 64.1615 59.632 63.8249 59.526 63.5148C59.4199 63.2047 59.2136 62.9388 58.9396 62.7588C58.6073 62.5409 58.202 62.4639 57.8129 62.5448C57.4698 62.6185 57.1653 62.8148 56.9566 63.0969C56.8524 62.961 56.7268 62.8431 56.5847 62.7476C56.251 62.5331 55.8471 62.4563 55.458 62.5335C55.1952 62.5904 54.9534 62.7192 54.7594 62.9053L53.3058 61.4518L56.4044 56.5504L57.9368 57.3053H58.9058L57.1481 59.7617C57.0727 59.873 57.0434 60.0092 57.0665 60.1417C57.0897 60.2741 57.1633 60.3924 57.272 60.4715C57.3562 60.5249 57.4541 60.5524 57.5537 60.5504H60.0213C60.2669 60.5514 60.5089 60.4912 60.7253 60.3751C60.9418 60.259 61.1258 60.0908 61.2608 59.8856L61.6664 59.2884C61.7147 59.2195 61.7788 59.1632 61.8533 59.124C61.9277 59.0848 62.0104 59.0639 62.0946 59.0631H62.7481C62.8463 59.0584 62.9428 59.0905 63.0185 59.1532L70.658 64.2349C70.7433 64.2892 70.8164 64.3605 70.8728 64.4444C70.9292 64.5284 70.9676 64.6231 70.9856 64.7225C71.0036 64.822 71.0008 64.9242 70.9774 65.0225C70.954 65.1209 70.9104 65.2133 70.8495 65.2941V65.3053ZM70.7819 63.1081L63.5819 58.3194C63.3356 58.1528 63.0455 58.0626 62.7481 58.0603H62.1284C61.883 58.0602 61.6414 58.1209 61.4251 58.2369C61.2089 58.3529 61.0247 58.5206 60.8889 58.725L60.472 59.3335C60.4295 59.4027 60.3698 59.4598 60.2987 59.4993C60.2277 59.5388 60.1477 59.5593 60.0664 59.5588H58.5227L60.3594 57.0011C60.4976 56.7965 60.6839 56.6288 60.9019 56.5129C61.12 56.397 61.3631 56.3364 61.6101 56.3363H64.7537C64.8884 56.3191 65.0247 56.3191 65.1594 56.3363L68.0213 57.1588C68.3958 57.2736 68.8002 57.2372 69.1481 57.0574L69.8016 56.7307L72.9678 61.587L70.7819 63.1081ZM74.6918 62.3983L70.0157 55.1532L71.8974 54.0265L76.596 61.3955L74.6918 62.3983Z" fill="url(#paint17_linear_982_6307)"/>
<path d="M55.8635 66.4327L56.0325 66.2187L56.9227 64.844C56.9276 64.8179 56.9276 64.7912 56.9227 64.7651L55.8635 66.4327Z" fill="url(#paint18_linear_982_6307)"/>
<path d="M55.1079 65.8763C55.1547 65.8393 55.1932 65.7931 55.2211 65.7404L56.1156 64.359C56.1135 64.3327 56.1135 64.3062 56.1156 64.2798L55.1079 65.8763Z" stroke="url(#paint19_linear_982_6307)" stroke-width="0.13" stroke-miterlimit="10"/>
<path d="M57.9498 65.2305L56.5344 67.3252L57.9611 65.1626L57.9498 65.2305ZM60.135 67.3365L59.2405 68.7179C59.2365 68.7556 59.2365 68.7935 59.2405 68.8311L60.3049 67.212C60.2353 67.2321 60.1751 67.2762 60.135 67.3365Z" stroke="url(#paint20_linear_982_6307)" stroke-width="0.13" stroke-miterlimit="10"/>
<path d="M59.2859 66.7597L58.3915 68.1523L58.2896 68.3335L59.4784 66.5332C59.4056 66.6009 59.341 66.6769 59.2859 66.7597Z" stroke="url(#paint21_linear_982_6307)" stroke-width="0.13" stroke-miterlimit="10"/>
<path d="M77.8551 61.3468L72.5787 53.0812C72.5347 53.0094 72.4732 52.9499 72.3999 52.9083C72.3267 52.8667 72.2441 52.8444 72.1598 52.8434C72.0668 52.8418 71.9757 52.8695 71.8994 52.9227L69.1367 54.6211C69.0806 54.6558 69.032 54.7012 68.9936 54.7548C68.9553 54.8084 68.9279 54.8691 68.9132 54.9333C68.8984 54.9976 68.8966 55.0641 68.9077 55.1291C68.9189 55.194 68.9428 55.2561 68.9781 55.3118L69.3858 55.9232L68.7743 56.2176C68.6614 56.2612 68.5363 56.2612 68.4233 56.2176L65.5927 55.4363C65.3674 55.3747 65.1355 55.3405 64.902 55.3344H61.6863C61.298 55.3321 60.9147 55.4223 60.5682 55.5975C60.2217 55.7728 59.9219 56.028 59.6935 56.3421H58.2216L56.9874 55.7307L57.2705 55.3118C57.3406 55.1982 57.3644 55.062 57.337 54.9314C57.3096 54.8008 57.2331 54.6856 57.1233 54.6098L54.3606 52.9114C54.2789 52.8516 54.1783 52.8235 54.0775 52.8321C53.9971 52.8368 53.9191 52.8608 53.8501 52.9022C53.7811 52.9437 53.7231 53.0012 53.6812 53.0699L48.4048 61.3241C48.369 61.3791 48.3444 61.4406 48.3324 61.5051C48.3204 61.5696 48.3212 61.6359 48.3349 61.7C48.3486 61.7642 48.3748 61.8251 48.4121 61.8791C48.4493 61.9331 48.4969 61.9792 48.552 62.0148L51.3034 63.5207C51.4176 63.5926 51.5556 63.6163 51.6872 63.5866C51.8188 63.5569 51.9333 63.4762 52.0054 63.3622L52.6508 62.3545L54.0775 63.7811L53.534 64.6303C53.3227 64.9699 53.2518 65.3784 53.3363 65.7694C53.4208 66.1603 53.6542 66.5031 53.9869 66.725C54.1737 66.8381 54.3819 66.9113 54.5983 66.9402C54.5748 67.2108 54.6244 67.4829 54.7419 67.7279C54.8594 67.9729 55.0405 68.1818 55.2664 68.3328C55.4315 68.4419 55.6166 68.517 55.8109 68.5539C56.0053 68.5909 56.2051 68.5888 56.3986 68.548C56.4974 68.8876 56.7142 69.1807 57.0101 69.3745C57.1974 69.4959 57.4094 69.5741 57.6307 69.6035C57.852 69.6328 58.077 69.6127 58.2895 69.5444C58.4005 69.8223 58.5942 70.0595 58.8443 70.2237C59.1792 70.4414 59.5868 70.5172 59.9775 70.4344C60.3682 70.3516 60.71 70.117 60.9277 69.7821L61.0296 69.6123L63.9395 70.7446C64.3111 70.8856 64.7196 70.8963 65.0981 70.7749C65.4765 70.6536 65.8026 70.4073 66.0229 70.0765L66.34 69.5783C66.7202 69.6447 67.1114 69.6036 67.4695 69.4595C67.8276 69.3155 68.1383 69.0743 68.3667 68.7631L68.8083 68.1517C68.8483 68.1025 68.8755 68.0441 68.8876 67.9818C69.283 67.8481 69.6272 67.5949 69.8726 67.2572L70.2802 66.6911C70.5603 66.6982 70.838 66.6382 71.0902 66.5161C71.3423 66.394 71.5615 66.2132 71.7295 65.989C71.9683 65.6813 72.0978 65.3029 72.0978 64.9134C72.0978 64.5239 71.9683 64.1455 71.7295 63.8377L73.6544 62.4903L74.2545 63.4075C74.324 63.5116 74.4302 63.5857 74.5519 63.6151C74.6736 63.6444 74.8019 63.6269 74.9112 63.566L77.674 62.0601C77.735 62.0274 77.7886 61.9824 77.8313 61.9279C77.874 61.8733 77.9049 61.8105 77.9219 61.7434C77.939 61.6763 77.9418 61.6063 77.9303 61.538C77.9188 61.4697 77.8932 61.4046 77.8551 61.3468ZM51.4167 62.479L49.5371 61.4487L54.27 53.9983L56.1722 55.1306L51.4167 62.479ZM54.5304 65.8758C54.4737 65.8402 54.4247 65.7936 54.3865 65.7386C54.3482 65.6837 54.3214 65.6216 54.3077 65.5561C54.2939 65.4906 54.2935 65.4229 54.3065 65.3573C54.3195 65.2916 54.3456 65.2292 54.3832 65.1738L55.2777 63.7924C55.312 63.7357 55.3577 63.6868 55.412 63.6487C55.4663 63.6107 55.5279 63.5845 55.593 63.5717C55.658 63.5589 55.725 63.5598 55.7897 63.5745C55.8543 63.5891 55.9152 63.617 55.9684 63.6566C56.0627 63.7072 56.136 63.7895 56.1754 63.889C56.2147 63.9885 56.2176 64.0987 56.1835 64.2001C56.1814 64.2264 56.1814 64.2529 56.1835 64.2793L55.289 65.6607C55.2611 65.7133 55.2225 65.7596 55.1758 65.7966C55.0984 65.8888 54.9897 65.949 54.8705 65.9658C54.7513 65.9825 54.6302 65.9545 54.5304 65.8871V65.8758ZM56.5345 67.3251V67.3931C56.5013 67.4478 56.4571 67.4951 56.4047 67.5319C56.3524 67.5687 56.2929 67.5943 56.2302 67.6071C56.1675 67.6198 56.1028 67.6195 56.0402 67.606C55.9776 67.5926 55.9184 67.5663 55.8665 67.5289C55.8121 67.4968 55.765 67.4537 55.7283 67.4023C55.6915 67.351 55.666 67.2925 55.6532 67.2307C55.6404 67.1688 55.6407 67.105 55.654 67.0432C55.6673 66.9815 55.6934 66.9233 55.7306 66.8722L55.9457 66.5439L57.078 64.8681L57.6668 63.8151C57.7002 63.7607 57.7443 63.7136 57.7963 63.6766C57.8483 63.6396 57.9072 63.6135 57.9696 63.5997C58.0319 63.586 58.0964 63.585 58.1591 63.5967C58.2219 63.6084 58.2816 63.6326 58.3348 63.6679C58.3905 63.7002 58.4388 63.7436 58.4767 63.7956C58.5147 63.8475 58.5414 63.9068 58.5552 63.9696C58.5691 64.0324 58.5697 64.0974 58.5571 64.1604C58.5445 64.2235 58.5189 64.2833 58.482 64.3359L57.9612 65.1285L56.5345 67.3251ZM58.2442 68.3555C58.1722 68.4666 58.0589 68.5445 57.9294 68.5721C57.7999 68.5997 57.6647 68.5748 57.5536 68.5027C57.4424 68.4306 57.3645 68.3174 57.3369 68.1878C57.3093 68.0583 57.3343 67.9231 57.4064 67.812L58.3461 66.374L58.7764 65.7173C58.7764 65.7173 58.7764 65.7173 58.7764 65.6494C58.8166 65.5973 58.8666 65.5537 58.9236 65.521C58.9806 65.4883 59.0435 65.4671 59.1086 65.4587C59.1738 65.4503 59.24 65.4548 59.3035 65.472C59.3669 65.4891 59.4264 65.5186 59.4784 65.5588C59.5305 65.5989 59.5741 65.6489 59.6068 65.7059C59.6395 65.7629 59.6607 65.8258 59.6691 65.891C59.6775 65.9562 59.673 66.0224 59.6558 66.0859C59.6386 66.1493 59.6091 66.2088 59.569 66.2608L59.4331 66.4759L58.2442 68.3555ZM60.973 67.8913L60.0785 69.2726C60.0452 69.3303 60.0002 69.3803 59.9463 69.4194C59.8925 69.4585 59.831 69.4859 59.7659 69.4998C59.7008 69.5137 59.6335 69.5137 59.5684 69.4999C59.5033 69.4862 59.4417 69.4589 59.3878 69.4198C59.2966 69.3661 59.2259 69.2835 59.1869 69.185C59.1479 69.0866 59.1429 68.9779 59.1727 68.8763C59.1687 68.8387 59.1687 68.8007 59.1727 68.7631L60.0672 67.3817C60.0925 67.3304 60.1318 67.2873 60.1804 67.2572C60.2625 67.192 60.3643 67.1565 60.4691 67.1565C60.574 67.1565 60.6758 67.192 60.7579 67.2572C60.868 67.3153 60.9517 67.4134 60.9917 67.5314C61.0318 67.6493 61.025 67.7781 60.973 67.8913ZM70.9596 65.3663C70.8451 65.5137 70.6809 65.6145 70.4976 65.6499C70.3143 65.6853 70.1244 65.6529 69.9632 65.5588L65.921 63.1244C65.8051 63.0581 65.6678 63.0399 65.5386 63.0738C65.4095 63.1076 65.2988 63.1909 65.2303 63.3056C65.1665 63.4191 65.1485 63.5527 65.1801 63.6791C65.2116 63.8054 65.2904 63.9149 65.4002 63.9849L69.3178 66.3401L69.0914 66.6458C68.945 66.8528 68.7244 66.9954 68.4755 67.0439C68.2267 67.0924 67.9687 67.0431 67.7553 66.9062L64.9246 65.1398C64.8407 65.0849 64.7418 65.0572 64.6416 65.0606C64.5093 65.0663 64.3842 65.1222 64.2917 65.2168C64.1991 65.3115 64.1461 65.4378 64.1434 65.5701C64.1467 65.6567 64.1712 65.7411 64.2146 65.8161C64.258 65.8911 64.319 65.9544 64.3925 66.0004L67.2231 67.7667C67.37 67.8669 67.5356 67.9362 67.71 67.9705L67.5854 68.1404C67.4339 68.3567 67.2067 68.5082 66.9487 68.5648C66.6908 68.6214 66.4209 68.579 66.1928 68.4461L63.9282 67.144C63.8408 67.0883 63.7368 67.0643 63.6338 67.076C63.5689 67.0789 63.5051 67.0947 63.4464 67.1226C63.3876 67.1505 63.3351 67.1899 63.2918 67.2385C63.2485 67.287 63.2154 67.3438 63.1944 67.4053C63.1735 67.4669 63.165 67.532 63.1696 67.5969C63.174 67.683 63.2002 67.7667 63.2457 67.84C63.2913 67.9132 63.3547 67.9737 63.43 68.0158L65.4568 69.1481L65.2303 69.4764C65.1414 69.6185 65.0053 69.7248 64.8459 69.7765C64.6865 69.8283 64.5139 69.8223 64.3585 69.7595L61.641 68.7291L61.8675 68.3668C62.0852 68.032 62.161 67.6244 62.0782 67.2337C61.9954 66.843 61.7607 66.5012 61.4259 66.2834C61.2266 66.16 61.0022 66.0826 60.7692 66.057C60.7797 65.7992 60.7238 65.543 60.6068 65.313C60.4898 65.083 60.3157 64.8869 60.1012 64.7436C59.9432 64.6387 59.7662 64.5656 59.5803 64.5284C59.6872 64.2169 59.6873 63.8787 59.5807 63.5671C59.4741 63.2554 59.2668 62.9882 58.9915 62.8074C58.6576 62.5884 58.2503 62.511 57.8593 62.5922C57.5145 62.6663 57.2085 62.8636 56.9987 63.1471C56.8941 63.0106 56.7679 62.892 56.6251 62.7961C56.2898 62.5805 55.8839 62.5034 55.4928 62.5809C55.2288 62.6381 54.9858 62.7675 54.7908 62.9546L53.3302 61.4939L56.4439 56.5686L57.9838 57.3272H58.9576L57.1912 59.7955C57.1154 59.9074 57.086 60.0443 57.1093 60.1774C57.1325 60.3105 57.2066 60.4293 57.3158 60.5089C57.4003 60.5625 57.4988 60.5901 57.5988 60.5881H60.0785C60.3253 60.5892 60.5685 60.5286 60.7859 60.412C61.0034 60.2953 61.1884 60.1263 61.324 59.9201L61.7316 59.32C61.7802 59.2508 61.8446 59.1941 61.9194 59.1548C61.9942 59.1154 62.0773 59.0944 62.1619 59.0935H62.8186C62.9173 59.0888 63.0142 59.1211 63.0903 59.1841L70.7671 64.2906C70.8529 64.3452 70.9264 64.4169 70.983 64.5012C71.0397 64.5855 71.0783 64.6807 71.0964 64.7807C71.1144 64.8807 71.1116 64.9833 71.0881 65.0821C71.0646 65.181 71.0208 65.2739 70.9596 65.355V65.3663ZM70.8917 63.1584L63.6565 58.3462C63.4089 58.1788 63.1174 58.0882 62.8186 58.0858H62.1959C61.9493 58.0858 61.7065 58.1468 61.4892 58.2633C61.2718 58.3799 61.0867 58.5484 60.9504 58.7539L60.5314 59.3653C60.4886 59.4349 60.4287 59.4922 60.3573 59.5319C60.2859 59.5716 60.2055 59.5922 60.1238 59.5917H58.5726L60.4182 57.0215C60.5571 56.8158 60.7443 56.6474 60.9634 56.5309C61.1825 56.4145 61.4269 56.3535 61.675 56.3534H64.834C64.9694 56.3362 65.1063 56.3362 65.2417 56.3534L68.1176 57.18C68.4939 57.2953 68.9003 57.2587 69.2499 57.0781L69.9066 56.7497L73.0883 61.6298L70.8917 63.1584ZM74.8206 62.445L70.1217 55.1646L72.0126 54.0323L76.7342 61.4373L74.8206 62.445Z" stroke="url(#paint22_linear_982_6307)" stroke-width="0.13" stroke-miterlimit="10"/>
<path d="M55.9006 66.4985L56.0705 66.2834L56.965 64.902C56.9699 64.8758 56.9699 64.8489 56.965 64.8228L55.9006 66.4985Z" stroke="url(#paint23_linear_982_6307)" stroke-width="0.13" stroke-miterlimit="10"/>
<path d="M65.8945 40.6095C65.2999 40.523 64.7053 40.469 64.0891 40.4366C63.7539 40.4366 63.3972 40.4366 63.008 40.4366C57.7524 40.4272 52.6985 42.4583 48.911 46.1019C45.1235 49.7454 42.8982 54.717 42.704 59.969C42.5099 65.2209 44.362 70.3432 47.8702 74.2565C51.3783 78.1698 56.2685 80.5685 61.5104 80.9471C66.7523 81.3258 71.9366 79.655 75.9708 76.2866C80.005 72.9182 82.5741 68.1153 83.1369 62.89C83.6997 57.6646 82.2121 52.4249 78.9876 48.2747C75.7632 44.1246 71.0536 41.3881 65.8513 40.642L65.8945 40.6095ZM63.0512 78.6323C60.6538 78.6911 58.2689 78.2696 56.0368 77.3928C53.8047 76.516 51.7706 75.2015 50.0542 73.5267C48.3378 71.8519 46.9738 69.8506 46.0425 67.6407C45.1113 65.4308 44.6315 63.0569 44.6315 60.6588C44.6315 58.2606 45.1113 55.8867 46.0425 53.6768C46.9738 51.4669 48.3378 49.4657 50.0542 47.7908C51.7706 46.116 53.8047 44.8015 56.0368 43.9247C58.2689 43.0479 60.6538 42.6265 63.0512 42.6853C63.3972 42.6853 63.7539 42.6853 64.1323 42.6853C64.7373 42.7169 65.34 42.7818 65.9378 42.8799C70.3364 43.6631 74.2858 46.0561 77.0163 49.5924C79.7468 53.1287 81.0629 57.555 80.7079 62.0087C80.353 66.4623 78.3525 70.6243 75.0963 73.6835C71.8402 76.7427 67.5616 78.4799 63.0945 78.5566L63.0512 78.6323Z" fill="url(#paint24_linear_982_6307)"/>
<path d="M60.2505 14.2944H59.9379L60.1643 14.5099L62.9506 17.1629L62.9503 17.1632L62.958 17.1694C63.1708 17.3423 63.3433 17.5547 63.4648 17.793C63.5864 18.0312 63.6545 18.2904 63.6653 18.5544C63.676 18.8183 63.6291 19.0816 63.5274 19.3279C63.4257 19.5742 63.2711 19.7984 63.0731 19.9862C62.8751 20.174 62.6379 20.3214 62.3762 20.4186C62.1145 20.5159 61.8342 20.5608 61.5531 20.5505C61.2719 20.5402 60.9962 20.4749 60.7433 20.3588C60.4904 20.2428 60.2661 20.0787 60.0841 19.8771L60.0844 19.8768L60.0773 19.8702L53.5984 13.7252C53.508 13.6361 53.4228 13.5425 53.3431 13.4448C53.2796 13.3448 53.2219 13.2415 53.1704 13.1356L53.1707 13.1354L53.1656 13.1267C53.0946 13.0064 53.0374 12.8794 52.9951 12.7478C52.9426 12.511 52.943 12.2664 52.9963 12.0297C53.0223 11.9156 53.0592 11.804 53.1066 11.6962C53.1579 11.5909 53.2152 11.4884 53.2783 11.3891C53.3575 11.2919 53.4422 11.1988 53.532 11.1102L53.6806 10.9794L53.6806 10.9795L53.684 10.9762L60.009 4.96699C60.3976 4.65287 60.8978 4.48804 61.4102 4.50682C61.9243 4.52565 62.4107 4.72777 62.7727 5.07109C63.1345 5.41423 63.3452 5.87289 63.3648 6.35498C63.3844 6.83542 63.2129 7.30628 62.8826 7.67399L60.1648 10.2312L59.9352 10.4472H60.2505H62.594C67.1457 10.4472 71.5097 12.1623 74.7263 15.2131C77.9427 18.2637 79.7483 22.3998 79.7483 26.711V33.8811C79.7483 34.389 79.5356 34.8776 79.1547 35.239C78.7735 35.6005 78.2552 35.8047 77.7134 35.8047C77.1716 35.8047 76.6533 35.6005 76.2721 35.239C75.8912 34.8776 75.6785 34.389 75.6785 33.8811V26.711C75.6785 23.4157 74.2982 20.2568 71.8438 17.9288C69.3895 15.6011 66.0621 14.2944 62.594 14.2944H60.2505Z" fill="url(#paint25_linear_982_6307)" stroke="url(#paint26_linear_982_6307)" stroke-width="0.25"/>
<path d="M24.0032 68.8325H24.3157L24.0894 68.617L21.3031 65.9641L21.3034 65.9638L21.2957 65.9576C21.0828 65.7847 20.9104 65.5723 20.7889 65.334C20.6673 65.0957 20.5992 64.8365 20.5884 64.5726C20.5777 64.3087 20.6245 64.0453 20.7263 63.799C20.828 63.5527 20.9825 63.3285 21.1805 63.1407C21.3786 62.9529 21.6158 62.8056 21.8775 62.7083C22.1392 62.6111 22.4194 62.5662 22.7006 62.5765C22.9818 62.5868 23.2575 62.6521 23.5104 62.7681C23.7632 62.8841 23.9876 63.0483 24.1696 63.2499L24.1693 63.2501L24.1763 63.2568L30.6552 69.4017C30.7456 69.4908 30.8309 69.5844 30.9106 69.6822C30.9741 69.7822 31.0317 69.8854 31.0833 69.9914L31.0829 69.9916L31.0881 70.0003C31.1591 70.1205 31.2162 70.2475 31.2585 70.3791C31.311 70.616 31.3106 70.8606 31.2574 71.0973C31.2314 71.2113 31.1945 71.323 31.1471 71.4308C31.0958 71.536 31.0384 71.6385 30.9754 71.7379C30.8961 71.835 30.8115 71.9281 30.7217 72.0167L30.5731 72.1476L30.573 72.1475L30.5696 72.1507L24.2446 78.16C23.856 78.4741 23.3559 78.6389 22.8434 78.6201C22.3294 78.6013 21.8429 78.3992 21.481 78.0559C21.1192 77.7127 20.9085 77.2541 20.8888 76.772C20.8693 76.2915 21.0408 75.8207 21.3711 75.453L24.0888 72.8958L24.3184 72.6797H24.0032H21.6597C17.108 72.6797 12.744 70.9647 9.52737 67.9139C6.31098 64.8633 4.50535 60.7272 4.50535 56.416V49.2459C4.50535 48.7379 4.71805 48.2493 5.099 47.888C5.48017 47.5265 5.9985 47.3223 6.54027 47.3223C7.08203 47.3223 7.60037 47.5265 7.98154 47.888C8.36249 48.2493 8.57518 48.7379 8.57518 49.2459V56.416C8.57518 59.7112 9.95542 62.8701 12.4099 65.1981C14.8642 67.5259 18.1915 68.8325 21.6597 68.8325H24.0032Z" fill="url(#paint27_linear_982_6307)" stroke="url(#paint28_linear_982_6307)" stroke-width="0.25"/>
<path d="M9.49101 7.63806C9.49101 11.3118 9.14137 14.2964 8.71065 14.2964C8.27994 14.2964 7.92017 11.3118 7.92017 7.63806C7.92017 3.96433 8.28501 1 8.71065 1C9.1363 1 9.49101 3.95926 9.49101 7.63806Z" fill="url(#paint29_radial_982_6307)"/>
<path d="M8.71106 8.40775C5.03732 8.40775 2.05272 8.05812 2.05272 7.6274C2.05272 7.19669 5.03732 6.83691 8.71106 6.83691C12.3848 6.83691 15.3491 7.20175 15.3491 7.6274C15.3491 8.05305 12.3899 8.40775 8.71106 8.40775Z" fill="url(#paint30_radial_982_6307)"/>
<path d="M81.0701 35.0067C81.0701 38.6805 80.7205 41.6651 80.2898 41.6651C79.859 41.6651 79.4993 38.6805 79.4993 35.0067C79.4993 31.333 79.8641 28.3687 80.2898 28.3687C80.7154 28.3687 81.0701 31.3279 81.0701 35.0067Z" fill="url(#paint31_radial_982_6307)"/>
<path d="M80.2899 35.7759C76.6162 35.7759 73.6316 35.4263 73.6316 34.9956C73.6316 34.5649 76.6162 34.2051 80.2899 34.2051C83.9637 34.2051 86.928 34.5699 86.928 34.9956C86.928 35.4212 83.9687 35.7759 80.2899 35.7759Z" fill="url(#paint32_radial_982_6307)"/>
<defs>
<linearGradient id="paint0_linear_982_6307" x1="36.3201" y1="30.0211" x2="-1.91908" y2="6.54105" gradientUnits="userSpaceOnUse">
<stop stop-color="white" stop-opacity="0.9"/>
<stop offset="0.28" stop-color="white" stop-opacity="0.5"/>
<stop offset="0.65" stop-color="#FAFBFC" stop-opacity="0.4"/>
<stop offset="1" stop-color="#F0EFEF" stop-opacity="0.3"/>
</linearGradient>
<linearGradient id="paint1_linear_982_6307" x1="29.7174" y1="29.2586" x2="12.9609" y2="12.5349" gradientUnits="userSpaceOnUse">
<stop stop-color="white" stop-opacity="0.9"/>
<stop offset="0.04" stop-color="white" stop-opacity="0.85"/>
<stop offset="0.28" stop-color="white" stop-opacity="0.5"/>
<stop offset="0.65" stop-color="#FAFBFC" stop-opacity="0.4"/>
<stop offset="1" stop-color="#F0EFEF" stop-opacity="0.3"/>
</linearGradient>
<linearGradient id="paint2_linear_982_6307" x1="8.88728" y1="21.1547" x2="33.7518" y2="21.1547" gradientUnits="userSpaceOnUse">
<stop stop-color="white" stop-opacity="0.9"/>
<stop offset="0.28" stop-color="white" stop-opacity="0.5"/>
<stop offset="0.65" stop-color="#FAFBFC" stop-opacity="0.4"/>
<stop offset="1" stop-color="#F0EFEF" stop-opacity="0.3"/>
</linearGradient>
<linearGradient id="paint3_linear_982_6307" x1="23.2288" y1="24.4268" x2="23.2288" y2="18.1473" gradientUnits="userSpaceOnUse">
<stop stop-color="#79A540"/>
<stop offset="0.2" stop-color="#94C63D"/>
<stop offset="0.39" stop-color="#98CA3C"/>
<stop offset="0.59" stop-color="#93C53E"/>
<stop offset="0.74" stop-color="#9DCB3B"/>
<stop offset="0.9" stop-color="#A6CE39"/>
<stop offset="1" stop-color="#A6CE39"/>
</linearGradient>
<linearGradient id="paint4_linear_982_6307" x1="17.0238" y1="24.427" x2="17.0238" y2="18.1475" gradientUnits="userSpaceOnUse">
<stop stop-color="#79A540"/>
<stop offset="0.2" stop-color="#94C63D"/>
<stop offset="0.39" stop-color="#98CA3C"/>
<stop offset="0.59" stop-color="#93C53E"/>
<stop offset="0.74" stop-color="#9DCB3B"/>
<stop offset="0.9" stop-color="#A6CE39"/>
<stop offset="1" stop-color="#A6CE39"/>
</linearGradient>
<linearGradient id="paint5_linear_982_6307" x1="27.1493" y1="24.427" x2="27.1493" y2="18.1475" gradientUnits="userSpaceOnUse">
<stop stop-color="#79A540"/>
<stop offset="0.2" stop-color="#94C63D"/>
<stop offset="0.39" stop-color="#98CA3C"/>
<stop offset="0.59" stop-color="#93C53E"/>
<stop offset="0.74" stop-color="#9DCB3B"/>
<stop offset="0.9" stop-color="#A6CE39"/>
<stop offset="1" stop-color="#A6CE39"/>
</linearGradient>
<linearGradient id="paint6_linear_982_6307" x1="25.2286" y1="7.58931" x2="27.7628" y2="7.58931" gradientUnits="userSpaceOnUse">
<stop stop-color="white" stop-opacity="0.9"/>
<stop offset="0.04" stop-color="white" stop-opacity="0.85"/>
<stop offset="0.28" stop-color="white" stop-opacity="0.5"/>
<stop offset="0.65" stop-color="#FAFBFC" stop-opacity="0.4"/>
<stop offset="1" stop-color="#F0EFEF" stop-opacity="0.3"/>
</linearGradient>
<linearGradient id="paint7_linear_982_6307" x1="7.45528" y1="28.9156" x2="9.48944" y2="28.9156" gradientUnits="userSpaceOnUse">
<stop stop-color="white" stop-opacity="0.9"/>
<stop offset="0.04" stop-color="white" stop-opacity="0.85"/>
<stop offset="0.28" stop-color="white" stop-opacity="0.5"/>
<stop offset="0.65" stop-color="#FAFBFC" stop-opacity="0.4"/>
<stop offset="1" stop-color="#F0EFEF" stop-opacity="0.3"/>
</linearGradient>
<linearGradient id="paint8_linear_982_6307" x1="10.2054" y1="33.8136" x2="20.5807" y2="33.8136" gradientUnits="userSpaceOnUse">
<stop stop-color="white" stop-opacity="0.9"/>
<stop offset="0.04" stop-color="white" stop-opacity="0.85"/>
<stop offset="0.28" stop-color="white" stop-opacity="0.5"/>
<stop offset="0.65" stop-color="#FAFBFC" stop-opacity="0.4"/>
<stop offset="1" stop-color="#F0EFEF" stop-opacity="0.3"/>
</linearGradient>
<linearGradient id="paint9_linear_982_6307" x1="7.45539" y1="28.9379" x2="9.70547" y2="28.9379" gradientUnits="userSpaceOnUse">
<stop stop-color="white" stop-opacity="0.9"/>
<stop offset="0.28" stop-color="white" stop-opacity="0.5"/>
<stop offset="0.65" stop-color="#FAFBFC" stop-opacity="0.4"/>
<stop offset="1" stop-color="#F0EFEF" stop-opacity="0.3"/>
</linearGradient>
<linearGradient id="paint10_linear_982_6307" x1="10.2055" y1="33.8463" x2="20.7968" y2="33.8463" gradientUnits="userSpaceOnUse">
<stop stop-color="white" stop-opacity="0.9"/>
<stop offset="0.28" stop-color="white" stop-opacity="0.5"/>
<stop offset="0.65" stop-color="#FAFBFC" stop-opacity="0.4"/>
<stop offset="1" stop-color="#F0EFEF" stop-opacity="0.3"/>
</linearGradient>
<linearGradient id="paint11_linear_982_6307" x1="29.1267" y1="13.3389" x2="36.3997" y2="13.3389" gradientUnits="userSpaceOnUse">
<stop stop-color="white" stop-opacity="0.9"/>
<stop offset="0.04" stop-color="white" stop-opacity="0.85"/>
<stop offset="0.28" stop-color="white" stop-opacity="0.5"/>
<stop offset="0.65" stop-color="#FAFBFC" stop-opacity="0.4"/>
<stop offset="1" stop-color="#F0EFEF" stop-opacity="0.3"/>
</linearGradient>
<linearGradient id="paint12_linear_982_6307" x1="25.1263" y1="7.56739" x2="27.8764" y2="7.56739" gradientUnits="userSpaceOnUse">
<stop stop-color="white" stop-opacity="0.9"/>
<stop offset="0.28" stop-color="white" stop-opacity="0.5"/>
<stop offset="0.65" stop-color="#FAFBFC" stop-opacity="0.4"/>
<stop offset="1" stop-color="#F0EFEF" stop-opacity="0.3"/>
</linearGradient>
<linearGradient id="paint13_linear_982_6307" x1="29.0245" y1="13.3163" x2="36.5134" y2="13.3163" gradientUnits="userSpaceOnUse">
<stop stop-color="white" stop-opacity="0.9"/>
<stop offset="0.28" stop-color="white" stop-opacity="0.5"/>
<stop offset="0.65" stop-color="#FAFBFC" stop-opacity="0.4"/>
<stop offset="1" stop-color="#F0EFEF" stop-opacity="0.3"/>
</linearGradient>
<linearGradient id="paint14_linear_982_6307" x1="55.5933" y1="65.8129" x2="55.5933" y2="64.2241" gradientUnits="userSpaceOnUse">
<stop stop-color="#79A540"/>
<stop offset="0.2" stop-color="#94C63D"/>
<stop offset="0.39" stop-color="#98CA3C"/>
<stop offset="0.59" stop-color="#93C53E"/>
<stop offset="0.74" stop-color="#9DCB3B"/>
<stop offset="0.9" stop-color="#A6CE39"/>
<stop offset="1" stop-color="#A6CE39"/>
</linearGradient>
<linearGradient id="paint15_linear_982_6307" x1="58.3651" y1="68.7532" x2="58.3651" y2="65.1025" gradientUnits="userSpaceOnUse">
<stop stop-color="#79A540"/>
<stop offset="0.2" stop-color="#94C63D"/>
<stop offset="0.39" stop-color="#98CA3C"/>
<stop offset="0.59" stop-color="#93C53E"/>
<stop offset="0.74" stop-color="#9DCB3B"/>
<stop offset="0.9" stop-color="#A6CE39"/>
<stop offset="1" stop-color="#A6CE39"/>
</linearGradient>
<linearGradient id="paint16_linear_982_6307" x1="58.8384" y1="68.2809" x2="58.8384" y2="66.4893" gradientUnits="userSpaceOnUse">
<stop stop-color="#79A540"/>
<stop offset="0.2" stop-color="#94C63D"/>
<stop offset="0.39" stop-color="#98CA3C"/>
<stop offset="0.59" stop-color="#93C53E"/>
<stop offset="0.74" stop-color="#9DCB3B"/>
<stop offset="0.9" stop-color="#A6CE39"/>
<stop offset="1" stop-color="#A6CE39"/>
</linearGradient>
<linearGradient id="paint17_linear_982_6307" x1="63.0523" y1="70.7814" x2="63.0523" y2="52.8096" gradientUnits="userSpaceOnUse">
<stop stop-color="#79A540"/>
<stop offset="0.2" stop-color="#94C63D"/>
<stop offset="0.39" stop-color="#98CA3C"/>
<stop offset="0.59" stop-color="#93C53E"/>
<stop offset="0.74" stop-color="#9DCB3B"/>
<stop offset="0.9" stop-color="#A6CE39"/>
<stop offset="1" stop-color="#A6CE39"/>
</linearGradient>
<linearGradient id="paint18_linear_982_6307" x1="56.4044" y1="66.4327" x2="56.4044" y2="64.7651" gradientUnits="userSpaceOnUse">
<stop stop-color="#79A540"/>
<stop offset="0.2" stop-color="#94C63D"/>
<stop offset="0.39" stop-color="#98CA3C"/>
<stop offset="0.59" stop-color="#93C53E"/>
<stop offset="0.74" stop-color="#9DCB3B"/>
<stop offset="0.9" stop-color="#A6CE39"/>
<stop offset="1" stop-color="#A6CE39"/>
</linearGradient>
<linearGradient id="paint19_linear_982_6307" x1="56.3874" y1="63.7476" x2="54.9834" y2="66.182" gradientUnits="userSpaceOnUse">
<stop stop-color="white" stop-opacity="0.9"/>
<stop offset="0.28" stop-color="white" stop-opacity="0.5"/>
<stop offset="0.65" stop-color="#FAFBFC" stop-opacity="0.4"/>
<stop offset="1" stop-color="#F0EFEF" stop-opacity="0.3"/>
</linearGradient>
<linearGradient id="paint20_linear_982_6307" x1="59.5915" y1="65.2419" x2="57.712" y2="68.4915" gradientUnits="userSpaceOnUse">
<stop stop-color="white" stop-opacity="0.9"/>
<stop offset="0.28" stop-color="white" stop-opacity="0.5"/>
<stop offset="0.65" stop-color="#FAFBFC" stop-opacity="0.4"/>
<stop offset="1" stop-color="#F0EFEF" stop-opacity="0.3"/>
</linearGradient>
<linearGradient id="paint21_linear_982_6307" x1="59.8068" y1="65.8991" x2="58.3575" y2="68.4014" gradientUnits="userSpaceOnUse">
<stop stop-color="white" stop-opacity="0.9"/>
<stop offset="0.28" stop-color="white" stop-opacity="0.5"/>
<stop offset="0.65" stop-color="#FAFBFC" stop-opacity="0.4"/>
<stop offset="1" stop-color="#F0EFEF" stop-opacity="0.3"/>
</linearGradient>
<linearGradient id="paint22_linear_982_6307" x1="69.2499" y1="50.9752" x2="58.165" y2="70.1671" gradientUnits="userSpaceOnUse">
<stop stop-color="white" stop-opacity="0.9"/>
<stop offset="0.28" stop-color="white" stop-opacity="0.5"/>
<stop offset="0.65" stop-color="#FAFBFC" stop-opacity="0.4"/>
<stop offset="1" stop-color="#F0EFEF" stop-opacity="0.3"/>
</linearGradient>
<linearGradient id="paint23_linear_982_6307" x1="57.0782" y1="64.585" x2="55.9459" y2="66.5438" gradientUnits="userSpaceOnUse">
<stop stop-color="white" stop-opacity="0.9"/>
<stop offset="0.28" stop-color="white" stop-opacity="0.5"/>
<stop offset="0.65" stop-color="#FAFBFC" stop-opacity="0.4"/>
<stop offset="1" stop-color="#F0EFEF" stop-opacity="0.3"/>
</linearGradient>
<linearGradient id="paint24_linear_982_6307" x1="82.4435" y1="81.2621" x2="60.6489" y2="44.0277" gradientUnits="userSpaceOnUse">
<stop stop-color="white" stop-opacity="0.9"/>
<stop offset="0.04" stop-color="white" stop-opacity="0.85"/>
<stop offset="0.28" stop-color="white" stop-opacity="0.5"/>
<stop offset="0.65" stop-color="#FAFBFC" stop-opacity="0.4"/>
<stop offset="1" stop-color="#F0EFEF" stop-opacity="0.3"/>
</linearGradient>
<linearGradient id="paint25_linear_982_6307" x1="79.3333" y1="36.1336" x2="61.2253" y2="9.61703" gradientUnits="userSpaceOnUse">
<stop stop-color="white" stop-opacity="0.9"/>
<stop offset="0.04" stop-color="white" stop-opacity="0.85"/>
<stop offset="0.28" stop-color="white" stop-opacity="0.5"/>
<stop offset="0.65" stop-color="#FAFBFC" stop-opacity="0.4"/>
<stop offset="1" stop-color="#F0EFEF" stop-opacity="0.3"/>
</linearGradient>
<linearGradient id="paint26_linear_982_6307" x1="60.434" y1="11.0383" x2="75.4045" y2="37.345" gradientUnits="userSpaceOnUse">
<stop stop-color="#F0EFEF" stop-opacity="0"/>
<stop offset="0.35" stop-color="#FAFBFC" stop-opacity="0.4"/>
<stop offset="0.72" stop-color="white" stop-opacity="0.5"/>
<stop offset="1" stop-color="white" stop-opacity="0.9"/>
</linearGradient>
<linearGradient id="paint27_linear_982_6307" x1="4.92041" y1="46.9934" x2="23.0284" y2="73.5099" gradientUnits="userSpaceOnUse">
<stop stop-color="white" stop-opacity="0.9"/>
<stop offset="0.04" stop-color="white" stop-opacity="0.85"/>
<stop offset="0.28" stop-color="white" stop-opacity="0.5"/>
<stop offset="0.65" stop-color="#FAFBFC" stop-opacity="0.4"/>
<stop offset="1" stop-color="#F0EFEF" stop-opacity="0.3"/>
</linearGradient>
<linearGradient id="paint28_linear_982_6307" x1="23.8197" y1="72.0886" x2="8.84913" y2="45.7819" gradientUnits="userSpaceOnUse">
<stop stop-color="#F0EFEF" stop-opacity="0"/>
<stop offset="0.35" stop-color="#FAFBFC" stop-opacity="0.4"/>
<stop offset="0.72" stop-color="white" stop-opacity="0.5"/>
<stop offset="1" stop-color="white" stop-opacity="0.9"/>
</linearGradient>
<radialGradient id="paint29_radial_982_6307" cx="0" cy="0" r="1" gradientUnits="userSpaceOnUse" gradientTransform="translate(8.5858 8.12371) scale(0.777109 6.663)">
<stop stop-color="white"/>
<stop offset="0.07" stop-color="white" stop-opacity="0.93"/>
<stop offset="1" stop-color="white" stop-opacity="0"/>
</radialGradient>
<radialGradient id="paint30_radial_982_6307" cx="0" cy="0" r="1" gradientUnits="userSpaceOnUse" gradientTransform="translate(8.22541 7.50254) rotate(90) scale(0.777109 6.663)">
<stop stop-color="white"/>
<stop offset="0.07" stop-color="white" stop-opacity="0.93"/>
<stop offset="1" stop-color="white" stop-opacity="0"/>
</radialGradient>
<radialGradient id="paint31_radial_982_6307" cx="0" cy="0" r="1" gradientUnits="userSpaceOnUse" gradientTransform="translate(80.1649 35.4924) scale(0.777109 6.663)">
<stop stop-color="white"/>
<stop offset="0.07" stop-color="white" stop-opacity="0.93"/>
<stop offset="1" stop-color="white" stop-opacity="0"/>
</radialGradient>
<radialGradient id="paint32_radial_982_6307" cx="0" cy="0" r="1" gradientUnits="userSpaceOnUse" gradientTransform="translate(79.8043 34.8707) rotate(90) scale(0.777109 6.663)">
<stop stop-color="white"/>
<stop offset="0.07" stop-color="white" stop-opacity="0.93"/>
<stop offset="1" stop-color="white" stop-opacity="0"/>
</radialGradient>
</defs>
</svg>
