<svg width="77" height="80" viewBox="0 0 77 80" fill="none" xmlns="http://www.w3.org/2000/svg">
<path d="M23.1627 12.4257C23.7108 12.6158 23.7108 12.6158 23.8802 12.896L24.0097 13.2462C24.2681 14.1394 24.8239 14.9165 25.5842 15.4477C27.2831 15.7679 29.0215 15.8185 30.7361 15.5978C31.1954 15.53 31.6643 15.6033 32.0814 15.8079C32.3205 16.0781 32.3205 16.0781 32.3903 16.6285C32.46 17.1788 32.3205 17.1788 32.1212 17.439C31.838 17.6591 31.4805 17.7596 31.1247 17.7192H30.6962H28.7032H27.1487H26.222H25.7536C25.4745 17.7787 25.186 17.7773 24.9075 17.7151C24.629 17.653 24.367 17.5315 24.1393 17.359C23.4019 16.4283 23.4019 16.4283 23.4019 15.948H23.083L23.0332 16.2782C22.8202 17.0955 22.5539 17.8977 22.236 18.6798C22.1562 18.9 22.0765 19.1101 22.0068 19.3203C21.937 19.5304 21.7776 19.9407 21.668 20.2409L21.4587 20.8012C21.3647 21.0165 21.2278 21.2101 21.0564 21.3701C20.885 21.5302 20.6828 21.6533 20.4622 21.7319C20.1225 21.7483 19.7888 21.6378 19.5255 21.4217C19.2627 20.9212 19.0523 20.3947 18.8977 19.8506L18.6884 19.2402C18.1204 17.5791 18.1204 17.5791 18.1204 17.0187H17.8016L17.6421 17.489C16.8393 17.7356 15.9934 17.8072 15.1608 17.6992H13.3771C13.0617 17.6947 12.7608 17.5652 12.5401 17.3389C12.2909 16.9987 12.2909 16.9987 12.3009 16.4283C12.3109 15.8579 12.4404 15.898 12.9088 15.5878C13.1772 15.5614 13.4475 15.5614 13.7159 15.5878H15.1509H16.3566L16.4961 15.2175C16.6612 14.8159 16.8509 14.4249 17.0642 14.0467L17.2635 13.6765C17.3645 13.4667 17.5433 13.3051 17.7617 13.2262C18.6087 13.1561 18.6087 13.1561 18.9475 13.4163C19.1804 13.7133 19.3531 14.0533 19.4557 14.417L19.5953 14.8673L19.7348 15.3276L20.0337 16.2382L20.1533 16.6485C20.243 16.9587 20.243 16.9587 20.4223 17.1188L20.5619 16.7285C20.7213 16.2682 20.8907 15.7979 21.0601 15.3276L21.2694 14.7172L21.5882 13.8466L21.7776 13.3163C21.8778 13.0349 22.0682 12.7948 22.3188 12.6336C22.5695 12.4725 22.8663 12.3993 23.1627 12.4257Z" fill="url(#paint0_linear_982_6224)"/>
<path d="M23.1627 12.4257C23.7108 12.6158 23.7108 12.6158 23.8802 12.896L24.0097 13.2462C24.2681 14.1394 24.8239 14.9165 25.5842 15.4477C27.2831 15.7679 29.0215 15.8185 30.7361 15.5978C31.1954 15.53 31.6643 15.6033 32.0814 15.8079C32.3205 16.0781 32.3205 16.0781 32.3903 16.6285C32.46 17.1788 32.3205 17.1788 32.1212 17.439C31.838 17.6591 31.4805 17.7596 31.1247 17.7192H30.6962H28.7032H27.1487H26.222H25.7536C25.4745 17.7787 25.186 17.7773 24.9075 17.7151C24.629 17.653 24.367 17.5315 24.1393 17.359C23.4019 16.4283 23.4019 16.4283 23.4019 15.948H23.083L23.0332 16.2782C22.8202 17.0955 22.5539 17.8977 22.236 18.6798C22.1563 18.9 22.0765 19.1101 22.0068 19.3203C21.937 19.5304 21.7776 19.9407 21.668 20.2409L21.4587 20.8012C21.3647 21.0165 21.2278 21.2101 21.0564 21.3701C20.885 21.5302 20.6828 21.6533 20.4622 21.7319C20.1225 21.7483 19.7888 21.6378 19.5255 21.4217C19.2627 20.9212 19.0523 20.3947 18.8977 19.8506L18.6884 19.2402C18.1204 17.5791 18.1204 17.5791 18.1204 17.0187H17.8016L17.6421 17.489C16.8393 17.7356 15.9934 17.8072 15.1608 17.6992H13.3771C13.0617 17.6947 12.7608 17.5652 12.5401 17.3389C12.2909 16.9987 12.2909 16.9987 12.3009 16.4283C12.3109 15.8579 12.4404 15.898 12.9088 15.5878C13.1772 15.5614 13.4475 15.5614 13.7159 15.5878H15.1509H16.3566L16.4961 15.2175C16.6612 14.8159 16.8509 14.4249 17.0642 14.0467L17.2635 13.6765C17.3645 13.4667 17.5433 13.3051 17.7617 13.2262C18.6087 13.1561 18.6087 13.1561 18.9475 13.4163C19.1804 13.7133 19.3531 14.0533 19.4557 14.417L19.5953 14.8673L19.7348 15.3276L20.0337 16.2382L20.1533 16.6485C20.243 16.9587 20.243 16.9587 20.4223 17.1188L20.5619 16.7285C20.7213 16.2682 20.8907 15.7979 21.0601 15.3276L21.2694 14.7172L21.5882 13.8466L21.7776 13.3163C21.8778 13.0349 22.0682 12.7948 22.3188 12.6336C22.5695 12.4725 22.8663 12.3993 23.1627 12.4257Z" stroke="url(#paint1_linear_982_6224)" stroke-width="0.23" stroke-miterlimit="10"/>
<path d="M12.3307 26.2546H34.6921C34.8985 26.2625 35.1009 26.3137 35.2863 26.4051C35.4717 26.4964 35.6359 26.6259 35.7683 26.785C35.878 27.7156 35.878 27.7156 35.589 28.1459C35.2173 28.3867 34.7707 28.4828 34.3334 28.4161H11.7827C11.6505 28.4195 11.5191 28.3965 11.3959 28.3484C11.2727 28.3003 11.1603 28.228 11.0652 28.1359C10.8391 27.8525 10.7192 27.4983 10.7264 27.1352C10.8576 26.8297 11.0869 26.5771 11.3776 26.4175C11.6683 26.258 12.0038 26.2006 12.3307 26.2546Z" fill="url(#paint2_linear_982_6224)"/>
<path d="M13.3869 38.6733H19.894C20.9503 38.6733 22.0066 38.6733 23.0629 38.6733H26.1122C26.5407 38.6733 26.9791 38.6733 27.4076 38.6733H30.6961C30.9016 38.7174 31.0959 38.8032 31.2673 38.9253C31.4386 39.0475 31.5833 39.2035 31.6926 39.3838C31.7523 39.5871 31.7663 39.8012 31.7335 40.0105C31.7008 40.2199 31.6221 40.4194 31.5032 40.5946C31.1856 40.8215 30.7923 40.9149 30.4071 40.8547H22.7241C21.6479 40.8547 20.5717 40.8547 19.4954 40.8547H11.7228C11.3541 40.8547 11.3541 40.8547 10.8857 40.4945C10.7512 40.2005 10.6962 39.876 10.7263 39.5539C11.3939 38.5332 12.2708 38.6533 13.3869 38.6733Z" fill="url(#paint3_linear_982_6224)"/>
<path d="M12.5598 45.0074H23.1725C23.3828 44.9789 23.5967 44.9983 23.7985 45.0641C24.0004 45.1299 24.1849 45.2405 24.3384 45.3876C24.4373 45.5546 24.5024 45.7396 24.5298 45.932C24.5571 46.1243 24.5463 46.3202 24.4978 46.5084C24.2979 46.7473 24.0451 46.936 23.7596 47.0594C23.4741 47.1827 23.1638 47.2374 22.8536 47.2188H12.3704C12.1293 47.2353 11.8873 47.202 11.6594 47.1211C11.4315 47.0403 11.2224 46.9135 11.0451 46.7485C10.9182 46.6351 10.8223 46.491 10.7665 46.3298C10.7107 46.1687 10.6968 45.9959 10.7262 45.8279C11.0451 44.9073 11.7426 45.0074 12.5598 45.0074Z" fill="url(#paint4_linear_982_6224)"/>
<path d="M11.733 32.5392H12.7993C13.2078 32.5392 13.6264 32.5392 14.0349 32.5392H23.1628C23.3747 32.51 23.5904 32.5289 23.7939 32.5948C23.9975 32.6606 24.1837 32.7716 24.3387 32.9195C24.5243 33.2617 24.5809 33.6596 24.4981 34.0402C24.3916 34.2026 24.2539 34.342 24.0931 34.4503C23.9322 34.5585 23.7515 34.6335 23.5614 34.6707H22.4254H12.4605C11.8712 34.7106 11.2893 34.5206 10.8362 34.1403C10.7376 33.9557 10.686 33.7494 10.686 33.5399C10.686 33.3304 10.7376 33.1242 10.8362 32.9395C11.1949 32.6393 11.1949 32.6393 11.733 32.5392Z" fill="url(#paint5_linear_982_6224)"/>
<path d="M12.3307 26.2546H34.6921C34.8985 26.2625 35.1009 26.3137 35.2863 26.4051C35.4717 26.4964 35.6359 26.6259 35.7683 26.785C35.878 27.7156 35.878 27.7156 35.589 28.1459C35.2173 28.3867 34.7707 28.4828 34.3334 28.4161H11.7827C11.6505 28.4195 11.5191 28.3965 11.3959 28.3484C11.2727 28.3003 11.1603 28.228 11.0652 28.1359C10.8391 27.8525 10.7192 27.4983 10.7264 27.1352C10.8576 26.8297 11.0869 26.5771 11.3776 26.4175C11.6683 26.258 12.0038 26.2006 12.3307 26.2546Z" stroke="url(#paint6_linear_982_6224)" stroke-width="0.23" stroke-miterlimit="10"/>
<path d="M13.3869 38.6733H19.894C20.9503 38.6733 22.0066 38.6733 23.0629 38.6733H26.1122C26.5407 38.6733 26.9791 38.6733 27.4076 38.6733H30.6961C30.9016 38.7174 31.0959 38.8032 31.2673 38.9253C31.4386 39.0475 31.5833 39.2035 31.6926 39.3838C31.7523 39.5871 31.7663 39.8012 31.7335 40.0105C31.7008 40.2199 31.6221 40.4194 31.5032 40.5946C31.1856 40.8215 30.7923 40.9149 30.4071 40.8547H22.7241C21.6479 40.8547 20.5717 40.8547 19.4954 40.8547H11.7228C11.3541 40.8547 11.3541 40.8547 10.8857 40.4945C10.7512 40.2005 10.6962 39.876 10.7263 39.5539C11.3939 38.5332 12.2708 38.6533 13.3869 38.6733Z" stroke="url(#paint7_linear_982_6224)" stroke-width="0.23" stroke-miterlimit="10"/>
<path d="M12.5598 45.0074H23.1725C23.3828 44.9789 23.5967 44.9983 23.7985 45.0641C24.0004 45.1299 24.1849 45.2405 24.3384 45.3876C24.4373 45.5546 24.5024 45.7396 24.5298 45.932C24.5571 46.1243 24.5463 46.3202 24.4978 46.5084C24.2979 46.7473 24.0451 46.936 23.7596 47.0594C23.4741 47.1827 23.1638 47.2374 22.8536 47.2188H12.3704C12.1293 47.2353 11.8873 47.202 11.6594 47.1211C11.4315 47.0403 11.2224 46.9135 11.0451 46.7485C10.9182 46.6351 10.8223 46.491 10.7665 46.3298C10.7107 46.1687 10.6968 45.9959 10.7262 45.8279C11.0451 44.9073 11.7426 45.0074 12.5598 45.0074Z" stroke="url(#paint8_linear_982_6224)" stroke-width="0.23" stroke-miterlimit="10"/>
<path d="M11.733 32.5392H12.7993C13.2078 32.5392 13.6264 32.5392 14.0349 32.5392H23.1628C23.3747 32.51 23.5904 32.5289 23.7939 32.5948C23.9975 32.6606 24.1837 32.7716 24.3387 32.9195C24.5243 33.2617 24.5809 33.6596 24.4981 34.0402C24.3916 34.2026 24.2539 34.342 24.0931 34.4503C23.9322 34.5585 23.7515 34.6335 23.5614 34.6707H22.4254H12.4605C11.8712 34.7106 11.2893 34.5206 10.8362 34.1403C10.7376 33.9557 10.686 33.7494 10.686 33.5399C10.686 33.3304 10.7376 33.1242 10.8362 32.9395C11.1949 32.6393 11.1949 32.6393 11.733 32.5392Z" stroke="url(#paint9_linear_982_6224)" stroke-width="0.23" stroke-miterlimit="10"/>
<path fill-rule="evenodd" clip-rule="evenodd" d="M57.8806 74.3969C57.8806 75 57.8806 75.7879 57.8806 75.7879C57.878 76.2047 57.7127 76.6038 57.4201 76.8995C57.1275 77.1951 56.7311 77.3637 56.3161 77.3689H7.22865C6.8128 77.3663 6.41489 77.1985 6.12177 76.9023C5.82865 76.6061 5.66414 76.2055 5.66415 75.7879V7.24216C5.66415 6.82549 5.82898 6.42589 6.12238 6.13126C6.41578 5.83663 6.81372 5.67111 7.22865 5.67111H43.9496V16.6785C43.9496 17.4746 44.2645 18.2382 44.8252 18.8012C45.3858 19.3642 46.1462 19.6805 46.939 19.6805H57.8606V19.8406V29.3669C57.8606 30 59.5148 30 59.5148 29.3669V19.8105C59.5211 19.3808 59.4353 18.9547 59.2634 18.5611C59.0915 18.1675 58.8374 17.8155 58.5183 17.529C56.2862 15.0374 55.1203 13.8266 46.0721 4.95063C45.9309 4.81338 45.7775 4.68945 45.6137 4.58039C45.0685 4.22655 44.4387 4.02611 43.7901 4H7.22865C6.37317 4.00264 5.55347 4.34507 4.94855 4.95252C4.34363 5.55997 4.00263 6.3831 4 7.24216V75.7578C4.00263 76.6169 4.34363 77.44 4.94855 78.0475C5.55347 78.6549 6.37317 78.9974 7.22865 79H56.3161C57.1706 78.9974 57.9893 78.6546 58.5926 78.0469C59.196 77.4391 59.5348 76.616 59.5348 75.7578C59.5348 75.7578 59.5348 75 59.5348 74.3969C59.5348 73.7939 57.8806 73.7939 57.8806 74.3969ZM51.1343 12.4256L45.6137 6.8519V16.6384C45.6163 16.9976 45.7603 17.3412 46.0141 17.5943C46.268 17.8473 46.6112 17.9893 46.9689 17.9893H56.6649L51.1343 12.4256Z" fill="url(#paint10_linear_982_6224)"/>
<path d="M51.304 55.523C51.3475 55.4929 51.382 55.4514 51.4036 55.403L52.1908 54.183C52.1908 54.183 52.1908 54.183 52.1908 54.103L51.304 55.523Z" fill="url(#paint11_linear_982_6224)"/>
<path d="M53.8148 54.9543L52.5991 56.8156L53.8547 54.9043L53.8148 54.9543ZM55.7381 56.8156L54.9509 58.0464C54.9473 58.0797 54.9473 58.1132 54.9509 58.1465L55.8975 56.7155C55.8341 56.7285 55.7775 56.764 55.7381 56.8156Z" fill="url(#paint12_linear_982_6224)"/>
<path d="M54.9907 56.3849L54.2035 57.6158L54.1138 57.7759L55.1103 56.1748C55.0661 56.2423 55.0261 56.3125 54.9907 56.3849Z" fill="url(#paint13_linear_982_6224)"/>
<path d="M71.3832 51.5119L66.7396 44.1871C66.7008 44.1236 66.6467 44.071 66.5822 44.0343C66.5177 43.9975 66.445 43.9778 66.3709 43.9769C66.2861 43.9766 66.203 44.0009 66.1317 44.047L63.7003 45.548C63.6499 45.5776 63.6061 45.6173 63.5715 45.6646C63.5369 45.7119 63.5124 45.7658 63.4993 45.8229C63.4862 45.8801 63.4849 45.9393 63.4955 45.997C63.5061 46.0547 63.5283 46.1096 63.5608 46.1584L63.9095 46.6987L63.3714 46.9689C63.2714 47.004 63.1625 47.004 63.0625 46.9689L60.5314 46.2384C60.334 46.1799 60.1294 46.1496 59.9235 46.1484H57.1134C56.7703 46.1464 56.4315 46.226 56.1249 46.3808C55.8184 46.5356 55.5527 46.7612 55.3496 47.039H54.0542L52.968 46.4886L53.2171 46.1184C53.2482 46.0692 53.2693 46.0143 53.2791 45.9569C53.2889 45.8995 53.2873 45.8407 53.2743 45.7839C53.2613 45.7271 53.2372 45.6735 53.2035 45.6261C53.1697 45.5788 53.1269 45.5386 53.0776 45.5079L50.6462 44.0069C50.5743 43.9541 50.4858 43.9293 50.397 43.9369C50.3252 43.9362 50.2546 43.9554 50.1931 43.9925C50.1315 44.0296 50.0814 44.0831 50.0483 44.147L45.3946 51.4819C45.3335 51.5808 45.3128 51.6995 45.337 51.8133C45.3611 51.9271 45.4282 52.0271 45.5242 52.0923L47.9556 53.4332C48.0545 53.4867 48.1698 53.501 48.2787 53.4732C48.3876 53.4454 48.4821 53.3776 48.5435 53.2831L49.1414 52.3825L50.397 53.6434L49.9187 54.3939C49.7327 54.694 49.6703 55.055 49.7447 55.4005C49.8191 55.7461 50.0244 56.0489 50.3173 56.2451C50.4812 56.348 50.6643 56.4161 50.8554 56.4452C50.8344 56.6831 50.8779 56.9222 50.9815 57.1372C51.085 57.3522 51.2446 57.5349 51.4434 57.666C51.7373 57.8596 52.0957 57.928 52.4398 57.8562C52.5306 58.1544 52.7205 58.4123 52.978 58.5867C53.1423 58.6949 53.3285 58.7654 53.5232 58.7931C53.7178 58.8208 53.9161 58.805 54.104 58.7468C54.2092 58.9881 54.3824 59.1934 54.6022 59.3372C54.8969 59.5296 55.2557 59.5965 55.5995 59.5234C55.9434 59.4502 56.2442 59.2428 56.4358 58.9469L56.5354 58.7968L59.1064 59.7975C59.4349 59.9175 59.7939 59.9235 60.1263 59.8147C60.4586 59.7059 60.7451 59.4885 60.94 59.1971L61.219 58.7568C61.5551 58.8151 61.9007 58.7786 62.2173 58.6514C62.534 58.5242 62.8093 58.3113 63.0127 58.0363L63.4013 57.4859C63.4362 57.4422 63.4601 57.3907 63.4711 57.3358C63.8197 57.2189 64.123 56.9948 64.338 56.6954L64.6968 56.1951C64.9432 56.2014 65.1877 56.1484 65.4096 56.0404C65.6315 55.9325 65.8244 55.7728 65.9723 55.5747C66.1832 55.3011 66.2976 54.965 66.2976 54.619C66.2976 54.2731 66.1832 53.9369 65.9723 53.6634L67.6763 52.4726L68.1945 53.2731C68.2574 53.3658 68.3519 53.4322 68.4602 53.4598C68.5684 53.4874 68.683 53.4744 68.7824 53.4232L71.2138 52.0823C71.3098 52.0275 71.381 51.9376 71.4126 51.8313C71.4442 51.725 71.4336 51.6106 71.3832 51.5119ZM48.0453 52.5126L46.3811 51.602L50.5465 45.0376L52.2206 46.0383L48.0453 52.5126ZM50.7956 55.5747C50.7457 55.5432 50.7026 55.502 50.669 55.4534C50.6353 55.4049 50.6117 55.35 50.5996 55.2921C50.5875 55.2342 50.5872 55.1744 50.5986 55.1164C50.61 55.0583 50.633 55.0032 50.6661 54.9542L51.4533 53.7334C51.4826 53.6825 51.5223 53.6383 51.5697 53.6037C51.6171 53.5691 51.6711 53.5449 51.7284 53.5327C51.7857 53.5204 51.845 53.5204 51.9023 53.5325C51.9596 53.5447 52.0137 53.5688 52.0612 53.6033C52.1441 53.6511 52.2087 53.7252 52.2448 53.8141C52.281 53.9029 52.2865 54.0013 52.2605 54.0937C52.2605 54.0937 52.2605 54.1437 52.2605 54.1737L51.4035 55.3845C51.3818 55.433 51.3474 55.4745 51.3038 55.5046C51.2335 55.5635 51.1461 55.5982 51.0547 55.6036C50.9632 55.609 50.8724 55.5848 50.7956 55.5346V55.5747ZM52.5993 56.8555V56.9155C52.5693 56.9646 52.5293 57.0068 52.482 57.0393C52.4348 57.0719 52.3812 57.0941 52.3248 57.1044C52.2684 57.1148 52.2104 57.1132 52.1547 57.0996C52.099 57.086 52.0468 57.0608 52.0014 57.0256H51.9516C51.9034 56.9963 51.8618 56.9572 51.8294 56.9109C51.797 56.8646 51.7744 56.8121 51.7632 56.7567C51.752 56.7012 51.7523 56.6441 51.7641 56.5887C51.776 56.5334 51.7991 56.4812 51.832 56.4352L52.0213 56.155L53.0178 54.664L53.5958 53.7835C53.6252 53.734 53.6644 53.6911 53.711 53.6575C53.7576 53.6239 53.8105 53.6002 53.8666 53.588C53.9227 53.5758 53.9806 53.5753 54.0369 53.5866C54.0932 53.5978 54.1465 53.6206 54.1937 53.6534C54.2426 53.6819 54.2852 53.7203 54.3186 53.7662C54.352 53.8121 54.3755 53.8645 54.3877 53.92C54.3998 53.9755 54.4004 54.0329 54.3893 54.0887C54.3782 54.1444 54.3557 54.1972 54.3232 54.2438L53.8549 54.9542L52.5993 56.8555ZM54.114 57.7661C54.0836 57.8174 54.0431 57.8617 53.9948 57.8964C53.9465 57.931 53.8916 57.9552 53.8335 57.9675C53.7754 57.9797 53.7154 57.9797 53.6574 57.9674C53.5993 57.9551 53.5444 57.9309 53.4961 57.8962C53.447 57.8639 53.4049 57.8221 53.3721 57.7732C53.3394 57.7243 53.3168 57.6692 53.3057 57.6114C53.2945 57.5535 53.295 57.494 53.3072 57.4364C53.3194 57.3787 53.343 57.3241 53.3766 57.2758L54.2036 56.0049L54.5823 55.4246C54.5823 55.4246 54.5823 55.4246 54.5823 55.3645C54.6604 55.2904 54.7625 55.2468 54.8699 55.2419C54.9773 55.237 55.0829 55.271 55.1674 55.3377C55.2519 55.4044 55.3098 55.4993 55.3304 55.6053C55.3511 55.7112 55.3331 55.8211 55.2799 55.9149L55.1603 56.095L54.114 57.7661ZM56.4856 57.3358L55.6884 58.5667C55.6591 58.6176 55.6195 58.6618 55.5721 58.6964C55.5247 58.7309 55.4706 58.7551 55.4133 58.7674C55.356 58.7797 55.2968 58.7797 55.2395 58.7675C55.1821 58.7554 55.128 58.7312 55.0806 58.6967C55.0003 58.6493 54.938 58.5762 54.9037 58.4892C54.8694 58.4022 54.865 58.3062 54.8912 58.2164C54.8877 58.1832 54.8877 58.1496 54.8912 58.1163L55.6785 56.8855C55.705 56.8425 55.7429 56.8079 55.7881 56.7855C55.858 56.7268 55.9461 56.6947 56.0372 56.6947C56.1283 56.6947 56.2164 56.7268 56.2863 56.7855C56.3749 56.8325 56.4437 56.9099 56.4802 57.0035C56.5168 57.0972 56.5187 57.2009 56.4856 57.2958V57.3358ZM65.2947 55.1043C65.1952 55.2364 65.0506 55.3269 64.8887 55.3583C64.7268 55.3897 64.559 55.3599 64.4177 55.2745L60.8503 53.123C60.8005 53.0912 60.7447 53.0701 60.6864 53.0609C60.6282 53.0518 60.5686 53.0548 60.5115 53.0698C60.4545 53.0849 60.4011 53.1116 60.3548 53.1483C60.3085 53.185 60.2702 53.2309 60.2424 53.2831C60.212 53.3321 60.1917 53.3868 60.1827 53.4438C60.1738 53.5009 60.1764 53.5591 60.1903 53.6152C60.2043 53.6712 60.2293 53.7238 60.2639 53.7699C60.2986 53.816 60.3421 53.8547 60.3919 53.8835L63.8398 55.9649L63.6504 56.2451C63.5183 56.4268 63.3225 56.5515 63.1026 56.5942C62.8826 56.6369 62.6547 56.5944 62.4646 56.4753L59.9634 54.9042C59.8895 54.8556 59.8025 54.8312 59.7143 54.8342C59.5971 54.8394 59.4866 54.8905 59.4065 54.9765C59.3264 55.0626 59.2831 55.1767 59.2858 55.2945C59.2907 55.368 59.3121 55.4395 59.3483 55.5036C59.3845 55.5677 59.4347 55.6228 59.495 55.6647L61.9963 57.2258C62.1272 57.3133 62.2721 57.3776 62.4247 57.4159L62.3251 57.566C62.19 57.7579 61.9882 57.8921 61.7595 57.9421C61.5308 57.9921 61.2918 57.9543 61.0894 57.8362L59.0964 56.6754C59.0208 56.632 58.9344 56.6112 58.8473 56.6153C58.7888 56.6179 58.7314 56.6321 58.6785 56.6573C58.6256 56.6825 58.5783 56.718 58.5393 56.7619C58.5003 56.8057 58.4704 56.8569 58.4514 56.9125C58.4324 56.9682 58.4247 57.027 58.4288 57.0857C58.4352 57.1612 58.4593 57.2341 58.4991 57.2984C58.539 57.3628 58.5934 57.4167 58.658 57.4559L60.4417 58.4566L60.2524 58.7468C60.1741 58.8724 60.0543 58.9663 59.914 59.012C59.7737 59.0577 59.6219 59.0524 59.4851 58.9969L57.0835 58.0763L57.2828 57.7561C57.4718 57.4594 57.537 57.1 57.4643 56.7555C57.3915 56.411 57.1868 56.109 56.8942 55.9149C56.7152 55.8056 56.5145 55.7373 56.3063 55.7148C56.3175 55.4866 56.2691 55.2595 56.166 55.0559C56.0629 54.8523 55.9085 54.6792 55.7183 54.554C55.5812 54.4578 55.4247 54.3929 55.2599 54.3638C55.3529 54.0869 55.3526 53.787 55.2589 53.5103C55.1653 53.2335 54.9835 52.9955 54.7418 52.8328C54.4449 52.6467 54.0881 52.5823 53.7453 52.6527C53.4392 52.7117 53.1678 52.8874 52.9879 53.143C52.8976 53.0172 52.7822 52.9116 52.6491 52.8328C52.5043 52.7355 52.3414 52.6684 52.1702 52.6358C51.9989 52.6031 51.8229 52.6054 51.6526 52.6427C51.4151 52.6871 51.1964 52.8022 51.0248 52.9729L49.7393 51.6721L52.5893 47.2791L53.9446 47.9596H54.8015L53.1274 50.131C53.0637 50.2291 53.0396 50.3478 53.06 50.463C53.0803 50.5783 53.1436 50.6814 53.237 50.7514C53.3122 50.8062 53.4033 50.8344 53.4961 50.8315H55.6785C55.8972 50.8332 56.1129 50.7801 56.306 50.677C56.4991 50.5739 56.6636 50.4241 56.7846 50.2411L57.1433 49.7007C57.1839 49.6397 57.2387 49.5896 57.3029 49.5548C57.3672 49.5199 57.439 49.5013 57.512 49.5006H58.1099C58.196 49.5013 58.2797 49.5293 58.3491 49.5807L65.0854 54.1137C65.1655 54.1584 65.2352 54.2197 65.2899 54.2935C65.3447 54.3673 65.3832 54.4519 65.403 54.5417C65.4228 54.6316 65.4234 54.7246 65.4047 54.8147C65.386 54.9048 65.3485 54.9899 65.2947 55.0643V55.1043ZM65.2349 53.103L58.8473 48.8302C58.63 48.6811 58.3731 48.6009 58.1099 48.6H57.522C57.3025 48.6003 57.0866 48.6553 56.8935 48.7601C56.7004 48.8649 56.5363 49.0162 56.4159 49.2004L56.0571 49.7408C56.0161 49.8005 55.9609 49.8492 55.8966 49.8823C55.8322 49.9155 55.7607 49.9322 55.6884 49.9309H54.3631L55.9973 47.6594C56.118 47.4731 56.2836 47.3204 56.4787 47.2155C56.6738 47.1105 56.8921 47.0567 57.1134 47.059H59.9036C60.0224 47.0396 60.1435 47.0396 60.2623 47.059L62.7934 47.7895C63.1246 47.8913 63.4823 47.859 63.7899 47.6994L64.3779 47.4092L67.188 51.7321L65.2349 53.103ZM68.7027 52.4626L64.5274 46.0183L66.2015 45.0176L70.3668 51.582L68.7027 52.4626Z" fill="url(#paint14_linear_982_6224)"/>
<path d="M52.0015 56.0838C52.0513 56.0138 52.1111 55.9538 52.1509 55.8838L52.9382 54.6637C52.9382 54.6637 52.9382 54.6638 52.9382 54.5938L52.0015 56.0838Z" fill="url(#paint15_linear_982_6224)"/>
<path d="M51.304 55.523C51.3475 55.4929 51.382 55.4514 51.4036 55.403L52.1908 54.183C52.1908 54.183 52.1908 54.183 52.1908 54.103L51.304 55.523Z" stroke="url(#paint16_linear_982_6224)" stroke-width="0.13" stroke-miterlimit="10"/>
<path d="M53.8148 54.9543L52.5991 56.8156L53.8547 54.9043L53.8148 54.9543ZM55.7381 56.8156L54.9509 58.0464C54.9473 58.0797 54.9473 58.1132 54.9509 58.1465L55.8975 56.7155C55.8341 56.7285 55.7775 56.764 55.7381 56.8156Z" stroke="url(#paint17_linear_982_6224)" stroke-width="0.13" stroke-miterlimit="10"/>
<path d="M54.9907 56.3849L54.2035 57.6158L54.1138 57.7759L55.1103 56.1748C55.0661 56.2423 55.0261 56.3125 54.9907 56.3849Z" stroke="url(#paint18_linear_982_6224)" stroke-width="0.13" stroke-miterlimit="10"/>
<path d="M71.3832 51.5119L66.7396 44.1871C66.7008 44.1236 66.6467 44.071 66.5822 44.0343C66.5177 43.9975 66.445 43.9778 66.3709 43.9769C66.2861 43.9766 66.203 44.0009 66.1317 44.047L63.7003 45.548C63.6499 45.5776 63.6061 45.6173 63.5715 45.6646C63.5369 45.7119 63.5124 45.7658 63.4993 45.8229C63.4862 45.8801 63.4849 45.9393 63.4955 45.997C63.5061 46.0547 63.5283 46.1096 63.5608 46.1584L63.9095 46.6987L63.3714 46.9689C63.2714 47.004 63.1625 47.004 63.0625 46.9689L60.5314 46.2384C60.334 46.1799 60.1294 46.1496 59.9235 46.1484H57.1134C56.7703 46.1464 56.4315 46.226 56.1249 46.3808C55.8184 46.5356 55.5527 46.7612 55.3496 47.039H54.0542L52.968 46.4886L53.2171 46.1184C53.2482 46.0692 53.2693 46.0143 53.2791 45.9569C53.2889 45.8995 53.2873 45.8407 53.2743 45.7839C53.2613 45.7271 53.2372 45.6735 53.2035 45.6261C53.1697 45.5788 53.1269 45.5386 53.0776 45.5079L50.6461 44.0069C50.5743 43.9541 50.4858 43.9293 50.397 43.9369C50.3252 43.9362 50.2546 43.9554 50.1931 43.9925C50.1315 44.0296 50.0814 44.0831 50.0483 44.147L45.3946 51.4819C45.3335 51.5808 45.3128 51.6995 45.337 51.8133C45.3611 51.9271 45.4282 52.0271 45.5242 52.0923L47.9556 53.4332C48.0545 53.4867 48.1698 53.501 48.2787 53.4732C48.3876 53.4454 48.4821 53.3776 48.5435 53.2831L49.1414 52.3825L50.397 53.6434L49.9187 54.3939C49.7327 54.694 49.6703 55.055 49.7447 55.4005C49.8191 55.7461 50.0244 56.0489 50.3173 56.2451C50.4812 56.348 50.6643 56.4161 50.8554 56.4452C50.8344 56.6831 50.8779 56.9222 50.9815 57.1372C51.085 57.3522 51.2446 57.5349 51.4434 57.666C51.7373 57.8596 52.0957 57.928 52.4398 57.8562C52.5306 58.1544 52.7205 58.4123 52.978 58.5867C53.1423 58.6949 53.3285 58.7654 53.5232 58.7931C53.7178 58.8208 53.9161 58.805 54.104 58.7468C54.2092 58.9882 54.3824 59.1934 54.6022 59.3372C54.8969 59.5296 55.2557 59.5965 55.5995 59.5234C55.9434 59.4502 56.2442 59.2428 56.4358 58.9469L56.5354 58.7968L59.1064 59.7975C59.4349 59.9175 59.7939 59.9235 60.1263 59.8147C60.4586 59.7059 60.7451 59.4885 60.94 59.1971L61.219 58.7568C61.5551 58.8151 61.9007 58.7786 62.2173 58.6514C62.534 58.5242 62.8093 58.3113 63.0127 58.0363L63.4013 57.4859C63.4362 57.4422 63.4601 57.3907 63.4711 57.3358C63.8197 57.2189 64.123 56.9948 64.338 56.6954L64.6968 56.1951C64.9432 56.2014 65.1877 56.1484 65.4096 56.0404C65.6315 55.9325 65.8244 55.7728 65.9723 55.5747C66.1832 55.3011 66.2976 54.965 66.2976 54.619C66.2976 54.2731 66.1832 53.9369 65.9723 53.6634L67.6763 52.4726L68.1945 53.2731C68.2574 53.3658 68.3519 53.4322 68.4602 53.4598C68.5684 53.4874 68.683 53.4744 68.7824 53.4232L71.2138 52.0823C71.3098 52.0275 71.381 51.9376 71.4126 51.8313C71.4442 51.725 71.4336 51.6106 71.3832 51.5119ZM48.0453 52.5126L46.3811 51.602L50.5465 45.0376L52.2206 46.0383L48.0453 52.5126ZM50.7956 55.5747C50.7457 55.5432 50.7026 55.502 50.669 55.4534C50.6353 55.4049 50.6117 55.35 50.5996 55.2921C50.5875 55.2342 50.5872 55.1744 50.5986 55.1164C50.61 55.0583 50.633 55.0032 50.6661 54.9542L51.4533 53.7334C51.4826 53.6825 51.5223 53.6383 51.5697 53.6037C51.6171 53.5691 51.6711 53.5449 51.7284 53.5327C51.7857 53.5204 51.845 53.5204 51.9023 53.5325C51.9596 53.5447 52.0137 53.5688 52.0612 53.6033C52.1441 53.6511 52.2087 53.7252 52.2448 53.8141C52.281 53.9029 52.2865 54.0013 52.2605 54.0937C52.2605 54.0937 52.2605 54.1437 52.2605 54.1737L51.4035 55.3845C51.3818 55.433 51.3474 55.4745 51.3038 55.5046C51.2335 55.5635 51.1461 55.5982 51.0547 55.6036C50.9632 55.609 50.8724 55.5848 50.7956 55.5346V55.5747ZM52.5993 56.8555V56.9155C52.5693 56.9646 52.5293 57.0068 52.482 57.0393C52.4348 57.0719 52.3812 57.0941 52.3248 57.1044C52.2684 57.1148 52.2104 57.1132 52.1547 57.0996C52.099 57.086 52.0468 57.0608 52.0014 57.0256H51.9516C51.9034 56.9963 51.8618 56.9572 51.8294 56.9109C51.797 56.8646 51.7744 56.8121 51.7632 56.7567C51.752 56.7012 51.7523 56.6441 51.7641 56.5887C51.776 56.5334 51.7991 56.4812 51.832 56.4352L52.0213 56.155L53.0178 54.664L53.5958 53.7835C53.6252 53.734 53.6644 53.6911 53.711 53.6575C53.7576 53.6239 53.8105 53.6002 53.8666 53.588C53.9227 53.5758 53.9806 53.5753 54.0369 53.5866C54.0932 53.5978 54.1465 53.6206 54.1937 53.6534C54.2426 53.6819 54.2852 53.7203 54.3186 53.7662C54.352 53.8121 54.3755 53.8645 54.3877 53.92C54.3998 53.9755 54.4004 54.0329 54.3893 54.0887C54.3782 54.1444 54.3557 54.1972 54.3232 54.2438L53.8549 54.9542L52.5993 56.8555ZM54.114 57.7661C54.0836 57.8174 54.0431 57.8617 53.9948 57.8964C53.9465 57.931 53.8916 57.9552 53.8335 57.9675C53.7754 57.9797 53.7154 57.9797 53.6574 57.9674C53.5993 57.9551 53.5444 57.9309 53.4961 57.8962C53.447 57.8639 53.4049 57.8221 53.3721 57.7732C53.3394 57.7243 53.3168 57.6692 53.3057 57.6114C53.2945 57.5535 53.295 57.494 53.3072 57.4364C53.3194 57.3787 53.343 57.3241 53.3766 57.2758L54.2036 56.0049L54.5823 55.4246C54.5823 55.4246 54.5823 55.4246 54.5823 55.3645C54.6604 55.2904 54.7625 55.2468 54.8699 55.2419C54.9773 55.237 55.0829 55.271 55.1674 55.3377C55.2519 55.4044 55.3098 55.4993 55.3304 55.6053C55.3511 55.7112 55.3331 55.8211 55.2799 55.9149L55.1603 56.095L54.114 57.7661ZM56.4856 57.3358L55.6884 58.5667C55.6591 58.6176 55.6195 58.6618 55.5721 58.6964C55.5247 58.7309 55.4706 58.7551 55.4133 58.7674C55.356 58.7797 55.2968 58.7797 55.2395 58.7675C55.1821 58.7554 55.128 58.7312 55.0806 58.6967C55.0003 58.6493 54.938 58.5762 54.9037 58.4892C54.8694 58.4022 54.865 58.3062 54.8912 58.2164C54.8877 58.1832 54.8877 58.1496 54.8912 58.1163L55.6785 56.8855C55.705 56.8425 55.7429 56.8079 55.7881 56.7855C55.858 56.7268 55.9461 56.6947 56.0372 56.6947C56.1283 56.6947 56.2164 56.7268 56.2863 56.7855C56.3749 56.8325 56.4437 56.9099 56.4802 57.0035C56.5168 57.0972 56.5187 57.2009 56.4856 57.2958V57.3358ZM65.2947 55.1043C65.1952 55.2364 65.0506 55.3269 64.8887 55.3583C64.7268 55.3897 64.559 55.3599 64.4177 55.2745L60.8503 53.123C60.8005 53.0912 60.7447 53.0701 60.6864 53.0609C60.6282 53.0518 60.5686 53.0548 60.5115 53.0698C60.4545 53.0849 60.4011 53.1116 60.3548 53.1483C60.3085 53.185 60.2702 53.2309 60.2424 53.2831C60.212 53.3321 60.1917 53.3868 60.1827 53.4438C60.1738 53.5009 60.1764 53.5591 60.1903 53.6152C60.2043 53.6712 60.2293 53.7238 60.2639 53.7699C60.2986 53.816 60.3421 53.8547 60.3919 53.8835L63.8398 55.9649L63.6504 56.2451C63.5183 56.4268 63.3225 56.5515 63.1026 56.5942C62.8826 56.6369 62.6547 56.5944 62.4646 56.4753L59.9634 54.9042C59.8895 54.8556 59.8025 54.8312 59.7143 54.8342C59.5971 54.8394 59.4866 54.8905 59.4065 54.9765C59.3264 55.0626 59.2831 55.1767 59.2858 55.2945C59.2907 55.368 59.3121 55.4395 59.3483 55.5036C59.3845 55.5677 59.4347 55.6228 59.495 55.6647L61.9963 57.2258C62.1272 57.3133 62.2721 57.3776 62.4247 57.4159L62.3251 57.566C62.19 57.7579 61.9882 57.8921 61.7595 57.9421C61.5308 57.9921 61.2918 57.9543 61.0894 57.8362L59.0964 56.6754C59.0208 56.632 58.9344 56.6112 58.8473 56.6153C58.7888 56.6179 58.7314 56.6321 58.6785 56.6573C58.6256 56.6825 58.5783 56.718 58.5393 56.7619C58.5003 56.8057 58.4704 56.8569 58.4514 56.9125C58.4324 56.9681 58.4247 57.027 58.4288 57.0857C58.4352 57.1612 58.4593 57.2341 58.4991 57.2984C58.539 57.3627 58.5934 57.4167 58.658 57.4559L60.4417 58.4566L60.2524 58.7468C60.1741 58.8724 60.0543 58.9663 59.914 59.012C59.7737 59.0577 59.6219 59.0524 59.4851 58.9969L57.0835 58.0763L57.2828 57.7561C57.4718 57.4594 57.537 57.1 57.4643 56.7555C57.3915 56.411 57.1868 56.109 56.8942 55.9149C56.7152 55.8056 56.5145 55.7373 56.3063 55.7148C56.3175 55.4866 56.2691 55.2595 56.166 55.0559C56.0629 54.8523 55.9085 54.6792 55.7183 54.554C55.5812 54.4578 55.4247 54.3929 55.2599 54.3638C55.3529 54.0869 55.3526 53.787 55.2589 53.5103C55.1653 53.2335 54.9835 52.9955 54.7418 52.8328C54.4449 52.6467 54.0881 52.5823 53.7453 52.6527C53.4392 52.7117 53.1678 52.8874 52.9879 53.143C52.8976 53.0172 52.7822 52.9116 52.6491 52.8328C52.5043 52.7355 52.3414 52.6684 52.1702 52.6358C51.9989 52.6031 51.8229 52.6054 51.6526 52.6427C51.4151 52.6871 51.1964 52.8022 51.0248 52.9729L49.7393 51.6721L52.5893 47.2791L53.9446 47.9596H54.8015L53.1274 50.131C53.0637 50.229 53.0396 50.3478 53.06 50.463C53.0803 50.5783 53.1436 50.6814 53.237 50.7514C53.3122 50.8062 53.4033 50.8344 53.4961 50.8315H55.6785C55.8972 50.8332 56.1129 50.7801 56.306 50.677C56.4991 50.5739 56.6636 50.4241 56.7846 50.2411L57.1433 49.7007C57.1839 49.6397 57.2387 49.5896 57.3029 49.5548C57.3672 49.5199 57.439 49.5013 57.512 49.5006H58.1099C58.196 49.5013 58.2797 49.5293 58.3491 49.5807L65.0854 54.1137C65.1655 54.1584 65.2352 54.2197 65.2899 54.2935C65.3447 54.3673 65.3832 54.4519 65.403 54.5417C65.4228 54.6316 65.4234 54.7246 65.4047 54.8147C65.386 54.9048 65.3485 54.9899 65.2947 55.0643V55.1043ZM65.2349 53.103L58.8473 48.8302C58.63 48.6811 58.3731 48.6009 58.1099 48.6H57.522C57.3025 48.6003 57.0866 48.6553 56.8935 48.7601C56.7004 48.8649 56.5363 49.0162 56.4159 49.2004L56.0571 49.7408C56.0161 49.8005 55.9609 49.8492 55.8966 49.8823C55.8322 49.9155 55.7607 49.9322 55.6884 49.9309H54.3631L55.9973 47.6594C56.118 47.4731 56.2836 47.3204 56.4787 47.2155C56.6738 47.1105 56.8921 47.0567 57.1134 47.059H59.9036C60.0224 47.0396 60.1435 47.0396 60.2623 47.059L62.7934 47.7895C63.1246 47.8913 63.4823 47.859 63.7899 47.6994L64.3779 47.4092L67.188 51.7321L65.2349 53.103ZM68.7027 52.4626L64.5274 46.0183L66.2015 45.0176L70.3668 51.582L68.7027 52.4626Z" stroke="url(#paint19_linear_982_6224)" stroke-width="0.13" stroke-miterlimit="10"/>
<path d="M52.0015 56.0838C52.0513 56.0138 52.1111 55.9538 52.1509 55.8838L52.9382 54.6637C52.9382 54.6637 52.9382 54.6638 52.9382 54.5938L52.0015 56.0838Z" stroke="url(#paint20_linear_982_6224)" stroke-width="0.13" stroke-miterlimit="10"/>
<path d="M60.9996 32.7292C60.4484 32.6418 59.8928 32.5851 59.3354 32.5591H58.3389C53.4947 32.5504 48.8363 34.4304 45.3452 37.8029C41.8542 41.1753 39.8031 45.7769 39.6241 50.6381C39.4451 55.4993 41.1523 60.2404 44.3859 63.8625C47.6195 67.4846 52.127 69.7048 56.9586 70.0553C61.7902 70.4058 66.5687 68.8593 70.2872 65.7415C74.0056 62.6238 76.3737 58.1783 76.8924 53.3418C77.4111 48.5052 76.04 43.6554 73.0679 39.814C70.0958 35.9727 65.7549 33.4399 60.9597 32.7492L60.9996 32.7292ZM58.3788 67.9227C56.2025 67.9227 54.0476 67.4923 52.0371 66.656C50.0265 65.8197 48.1996 64.5939 46.6608 63.0486C45.122 61.5034 43.9013 59.6689 43.0685 57.6499C42.2357 55.6309 41.807 53.4669 41.807 51.2816C41.807 49.0963 42.2357 46.9323 43.0685 44.9133C43.9013 42.8943 45.122 41.0598 46.6608 39.5146C48.1996 37.9693 50.0265 36.7435 52.0371 35.9072C54.0476 35.0709 56.2025 34.6405 58.3788 34.6405C58.6977 34.6405 59.0265 34.6405 59.3753 34.6405C59.9329 34.6698 60.4884 34.7299 61.0394 34.8206C65.1536 35.4835 68.8681 37.6783 71.443 40.968C74.0179 44.2576 75.2642 48.4006 74.9337 52.5716C74.6032 56.7427 72.72 60.6356 69.6594 63.4749C66.5988 66.3142 62.5854 67.8915 58.4186 67.8927L58.3788 67.9227Z" fill="url(#paint21_linear_982_6224)"/>
<path d="M6.71309 5.99085C6.71309 9.3064 6.39754 12 6.00883 12C5.62011 12 5.29541 9.3064 5.29541 5.99085C5.29541 2.6753 5.62468 0 6.00883 0C6.39297 0 6.71309 2.67073 6.71309 5.99085Z" fill="url(#paint22_radial_982_6224)"/>
<path d="M6.00915 6.68526C2.6936 6.68526 -4.81758e-08 6.36971 -3.11844e-08 5.98099C-1.41929e-08 5.59227 2.6936 5.26758 6.00915 5.26758C9.3247 5.26758 12 5.59685 12 5.98099C12 6.36514 9.32927 6.68526 6.00915 6.68526Z" fill="url(#paint23_radial_982_6224)"/>
<path d="M60.7131 73.9909C60.7131 77.3064 60.3975 80 60.0088 80C59.6201 80 59.2954 77.3064 59.2954 73.9909C59.2954 70.6753 59.6247 68 60.0088 68C60.393 68 60.7131 70.6707 60.7131 73.9909Z" fill="url(#paint24_radial_982_6224)"/>
<path d="M60.0091 74.6853C56.6936 74.6853 54 74.3697 54 73.981C54 73.5923 56.6936 73.2676 60.0091 73.2676C63.3247 73.2676 66 73.5968 66 73.981C66 74.3651 63.3293 74.6853 60.0091 74.6853Z" fill="url(#paint25_radial_982_6224)"/>
<defs>
<linearGradient id="paint0_linear_982_6224" x1="12.2909" y1="17.0788" x2="32.3903" y2="17.0788" gradientUnits="userSpaceOnUse">
<stop stop-color="#79A540"/>
<stop offset="0.2" stop-color="#94C63D"/>
<stop offset="0.39" stop-color="#98CA3C"/>
<stop offset="0.59" stop-color="#93C53E"/>
<stop offset="0.74" stop-color="#9DCB3B"/>
<stop offset="0.9" stop-color="#A6CE39"/>
<stop offset="1" stop-color="#A6CE39"/>
</linearGradient>
<linearGradient id="paint1_linear_982_6224" x1="25.1956" y1="11.6752" x2="19.4698" y2="21.5511" gradientUnits="userSpaceOnUse">
<stop stop-color="white" stop-opacity="0.9"/>
<stop offset="0.28" stop-color="white" stop-opacity="0.5"/>
<stop offset="0.65" stop-color="#FAFCFE" stop-opacity="0.4"/>
<stop offset="1" stop-color="#F1EFEF" stop-opacity="0.3"/>
</linearGradient>
<linearGradient id="paint2_linear_982_6224" x1="19.9041" y1="33.3294" x2="26.7629" y2="21.5063" gradientUnits="userSpaceOnUse">
<stop stop-color="white" stop-opacity="0.9"/>
<stop offset="0.04" stop-color="white" stop-opacity="0.85"/>
<stop offset="0.28" stop-color="white" stop-opacity="0.5"/>
<stop offset="0.65" stop-color="#FAFBFC" stop-opacity="0.4"/>
<stop offset="1" stop-color="#F0EFEF" stop-opacity="0.3"/>
</linearGradient>
<linearGradient id="paint3_linear_982_6224" x1="18.3694" y1="44.8574" x2="24.1854" y2="34.8217" gradientUnits="userSpaceOnUse">
<stop stop-color="white" stop-opacity="0.9"/>
<stop offset="0.04" stop-color="white" stop-opacity="0.85"/>
<stop offset="0.28" stop-color="white" stop-opacity="0.5"/>
<stop offset="0.65" stop-color="#FAFBFC" stop-opacity="0.4"/>
<stop offset="1" stop-color="#F0EFEF" stop-opacity="0.3"/>
</linearGradient>
<linearGradient id="paint4_linear_982_6224" x1="15.6788" y1="49.4603" x2="19.6697" y2="42.5902" gradientUnits="userSpaceOnUse">
<stop stop-color="white" stop-opacity="0.9"/>
<stop offset="0.04" stop-color="white" stop-opacity="0.85"/>
<stop offset="0.28" stop-color="white" stop-opacity="0.5"/>
<stop offset="0.65" stop-color="#FAFBFC" stop-opacity="0.4"/>
<stop offset="1" stop-color="#F0EFEF" stop-opacity="0.3"/>
</linearGradient>
<linearGradient id="paint5_linear_982_6224" x1="15.6792" y1="37.0322" x2="19.6601" y2="30.162" gradientUnits="userSpaceOnUse">
<stop stop-color="white" stop-opacity="0.9"/>
<stop offset="0.04" stop-color="white" stop-opacity="0.85"/>
<stop offset="0.28" stop-color="white" stop-opacity="0.5"/>
<stop offset="0.65" stop-color="#FAFBFC" stop-opacity="0.4"/>
<stop offset="1" stop-color="#F0EFEF" stop-opacity="0.3"/>
</linearGradient>
<linearGradient id="paint6_linear_982_6224" x1="19.8742" y1="21.3514" x2="26.8534" y2="33.3942" gradientUnits="userSpaceOnUse">
<stop stop-color="white" stop-opacity="0.9"/>
<stop offset="0.28" stop-color="white" stop-opacity="0.5"/>
<stop offset="0.65" stop-color="#FAFCFE" stop-opacity="0.4"/>
<stop offset="1" stop-color="#F1EFEF" stop-opacity="0.3"/>
</linearGradient>
<linearGradient id="paint7_linear_982_6224" x1="18.3096" y1="34.7607" x2="24.2259" y2="44.9661" gradientUnits="userSpaceOnUse">
<stop stop-color="white" stop-opacity="0.9"/>
<stop offset="0.28" stop-color="white" stop-opacity="0.5"/>
<stop offset="0.65" stop-color="#FAFCFE" stop-opacity="0.4"/>
<stop offset="1" stop-color="#F1EFEF" stop-opacity="0.3"/>
</linearGradient>
<linearGradient id="paint8_linear_982_6224" x1="15.619" y1="42.4757" x2="19.7002" y2="49.5156" gradientUnits="userSpaceOnUse">
<stop stop-color="white" stop-opacity="0.9"/>
<stop offset="0.28" stop-color="white" stop-opacity="0.5"/>
<stop offset="0.65" stop-color="#FAFCFE" stop-opacity="0.4"/>
<stop offset="1" stop-color="#F1EFEF" stop-opacity="0.3"/>
</linearGradient>
<linearGradient id="paint9_linear_982_6224" x1="15.5695" y1="30.0176" x2="19.7009" y2="37.1374" gradientUnits="userSpaceOnUse">
<stop stop-color="white" stop-opacity="0.9"/>
<stop offset="0.28" stop-color="white" stop-opacity="0.5"/>
<stop offset="0.65" stop-color="#FAFCFE" stop-opacity="0.4"/>
<stop offset="1" stop-color="#F1EFEF" stop-opacity="0.3"/>
</linearGradient>
<linearGradient id="paint10_linear_982_6224" x1="51.5728" y1="82.2422" x2="6.25836" y2="4.0638" gradientUnits="userSpaceOnUse">
<stop stop-color="white"/>
<stop offset="1" stop-color="#6C6D6D"/>
</linearGradient>
<linearGradient id="paint11_linear_982_6224" x1="51.7623" y1="55.523" x2="51.7623" y2="54.103" gradientUnits="userSpaceOnUse">
<stop stop-color="#79A540"/>
<stop offset="0.2" stop-color="#94C63D"/>
<stop offset="0.39" stop-color="#98CA3C"/>
<stop offset="0.59" stop-color="#93C53E"/>
<stop offset="0.74" stop-color="#9DCB3B"/>
<stop offset="0.9" stop-color="#A6CE39"/>
<stop offset="1" stop-color="#A6CE39"/>
</linearGradient>
<linearGradient id="paint12_linear_982_6224" x1="54.2234" y1="58.1465" x2="54.2234" y2="54.9043" gradientUnits="userSpaceOnUse">
<stop stop-color="#79A540"/>
<stop offset="0.2" stop-color="#94C63D"/>
<stop offset="0.39" stop-color="#98CA3C"/>
<stop offset="0.59" stop-color="#93C53E"/>
<stop offset="0.74" stop-color="#9DCB3B"/>
<stop offset="0.9" stop-color="#A6CE39"/>
<stop offset="1" stop-color="#A6CE39"/>
</linearGradient>
<linearGradient id="paint13_linear_982_6224" x1="54.6419" y1="57.7258" x2="54.6419" y2="56.1248" gradientUnits="userSpaceOnUse">
<stop stop-color="#79A540"/>
<stop offset="0.2" stop-color="#94C63D"/>
<stop offset="0.39" stop-color="#98CA3C"/>
<stop offset="0.59" stop-color="#93C53E"/>
<stop offset="0.74" stop-color="#9DCB3B"/>
<stop offset="0.9" stop-color="#A6CE39"/>
<stop offset="1" stop-color="#A6CE39"/>
</linearGradient>
<linearGradient id="paint14_linear_982_6224" x1="58.379" y1="59.9576" x2="58.379" y2="43.9469" gradientUnits="userSpaceOnUse">
<stop stop-color="#79A540"/>
<stop offset="0.2" stop-color="#94C63D"/>
<stop offset="0.39" stop-color="#98CA3C"/>
<stop offset="0.59" stop-color="#93C53E"/>
<stop offset="0.74" stop-color="#9DCB3B"/>
<stop offset="0.9" stop-color="#A6CE39"/>
<stop offset="1" stop-color="#A6CE39"/>
</linearGradient>
<linearGradient id="paint15_linear_982_6224" x1="52.4798" y1="56.0838" x2="52.4798" y2="54.5938" gradientUnits="userSpaceOnUse">
<stop stop-color="#79A540"/>
<stop offset="0.2" stop-color="#94C63D"/>
<stop offset="0.39" stop-color="#98CA3C"/>
<stop offset="0.59" stop-color="#93C53E"/>
<stop offset="0.74" stop-color="#9DCB3B"/>
<stop offset="0.9" stop-color="#A6CE39"/>
<stop offset="1" stop-color="#A6CE39"/>
</linearGradient>
<linearGradient id="paint16_linear_982_6224" x1="52.44" y1="53.633" x2="51.1878" y2="55.7892" gradientUnits="userSpaceOnUse">
<stop stop-color="white" stop-opacity="0.9"/>
<stop offset="0.28" stop-color="white" stop-opacity="0.5"/>
<stop offset="0.65" stop-color="#FAFBFC" stop-opacity="0.4"/>
<stop offset="1" stop-color="#F0EFEF" stop-opacity="0.3"/>
</linearGradient>
<linearGradient id="paint17_linear_982_6224" x1="55.2697" y1="54.9643" x2="53.5952" y2="57.8402" gradientUnits="userSpaceOnUse">
<stop stop-color="white" stop-opacity="0.9"/>
<stop offset="0.28" stop-color="white" stop-opacity="0.5"/>
<stop offset="0.65" stop-color="#FAFBFC" stop-opacity="0.4"/>
<stop offset="1" stop-color="#F0EFEF" stop-opacity="0.3"/>
</linearGradient>
<linearGradient id="paint18_linear_982_6224" x1="55.4491" y1="55.5544" x2="54.1656" y2="57.7612" gradientUnits="userSpaceOnUse">
<stop stop-color="white" stop-opacity="0.9"/>
<stop offset="0.28" stop-color="white" stop-opacity="0.5"/>
<stop offset="0.65" stop-color="#FAFBFC" stop-opacity="0.4"/>
<stop offset="1" stop-color="#F0EFEF" stop-opacity="0.3"/>
</linearGradient>
<linearGradient id="paint19_linear_982_6224" x1="63.7899" y1="42.3158" x2="53.9429" y2="59.3016" gradientUnits="userSpaceOnUse">
<stop stop-color="white" stop-opacity="0.9"/>
<stop offset="0.28" stop-color="white" stop-opacity="0.5"/>
<stop offset="0.65" stop-color="#FAFBFC" stop-opacity="0.4"/>
<stop offset="1" stop-color="#F0EFEF" stop-opacity="0.3"/>
</linearGradient>
<linearGradient id="paint20_linear_982_6224" x1="53.0378" y1="54.3737" x2="52.0361" y2="56.1107" gradientUnits="userSpaceOnUse">
<stop stop-color="white" stop-opacity="0.9"/>
<stop offset="0.28" stop-color="white" stop-opacity="0.5"/>
<stop offset="0.65" stop-color="#FAFBFC" stop-opacity="0.4"/>
<stop offset="1" stop-color="#F0EFEF" stop-opacity="0.3"/>
</linearGradient>
<linearGradient id="paint21_linear_982_6224" x1="39.7044" y1="51.2816" x2="77.0432" y2="51.2816" gradientUnits="userSpaceOnUse">
<stop stop-color="#79A540"/>
<stop offset="0.2" stop-color="#94C63D"/>
<stop offset="0.39" stop-color="#98CA3C"/>
<stop offset="0.59" stop-color="#93C53E"/>
<stop offset="0.74" stop-color="#9DCB3B"/>
<stop offset="0.9" stop-color="#A6CE39"/>
<stop offset="1" stop-color="#A6CE39"/>
</linearGradient>
<radialGradient id="paint22_radial_982_6224" cx="0" cy="0" r="1" gradientUnits="userSpaceOnUse" gradientTransform="translate(5.89614 6.42915) scale(0.701341 6.01335)">
<stop stop-color="white"/>
<stop offset="0.07" stop-color="white" stop-opacity="0.93"/>
<stop offset="1" stop-color="white" stop-opacity="0"/>
</radialGradient>
<radialGradient id="paint23_radial_982_6224" cx="0" cy="0" r="1" gradientUnits="userSpaceOnUse" gradientTransform="translate(5.57085 5.86831) rotate(90) scale(0.701341 6.01335)">
<stop stop-color="white"/>
<stop offset="0.07" stop-color="white" stop-opacity="0.93"/>
<stop offset="1" stop-color="white" stop-opacity="0"/>
</radialGradient>
<radialGradient id="paint24_radial_982_6224" cx="0" cy="0" r="1" gradientUnits="userSpaceOnUse" gradientTransform="translate(59.8961 74.4291) scale(0.701341 6.01335)">
<stop stop-color="white"/>
<stop offset="0.07" stop-color="white" stop-opacity="0.93"/>
<stop offset="1" stop-color="white" stop-opacity="0"/>
</radialGradient>
<radialGradient id="paint25_radial_982_6224" cx="0" cy="0" r="1" gradientUnits="userSpaceOnUse" gradientTransform="translate(59.5709 73.8683) rotate(90) scale(0.701341 6.01335)">
<stop stop-color="white"/>
<stop offset="0.07" stop-color="white" stop-opacity="0.93"/>
<stop offset="1" stop-color="white" stop-opacity="0"/>
</radialGradient>
</defs>
</svg>
