<svg width="80" height="80" viewBox="0 0 80 80" fill="none" xmlns="http://www.w3.org/2000/svg">
<path d="M73.3525 62.9483L60.3007 49.8964C63.1599 45.2298 64.6858 39.852 64.6858 34.2372C64.6858 17.6001 51.2147 4.11865 34.5673 4.11865C26.5229 4.11865 18.9673 7.25939 13.2784 12.9483C-5.69786 31.9231 7.93621 64.3409 34.5673 64.3409C39.8562 64.3409 44.9377 62.9927 49.4118 60.4446L62.6414 73.6594C63.3439 74.3642 64.1785 74.9234 65.0976 75.3049C66.0166 75.6865 67.0019 75.8829 67.997 75.8829C68.992 75.8829 69.9773 75.6865 70.8963 75.3049C71.8154 74.9234 72.65 74.3642 73.3525 73.6594C74.7687 72.2368 75.5638 70.3112 75.5638 68.3038C75.5638 66.2965 74.7687 64.3709 73.3525 62.9483ZM34.5673 61.3779C10.5318 61.3779 -1.73194 32.1587 15.3673 15.0372C20.5081 9.91124 27.3229 7.08162 34.5673 7.08162C49.4014 7.08162 61.7229 19.0757 61.7229 34.2372C61.7229 49.1187 49.7066 61.3779 34.5673 61.3779ZM71.2636 71.5705C69.5155 73.3038 66.4784 73.3038 64.7303 71.5705L51.9747 58.8149C54.434 57.0698 56.7999 54.8194 58.597 52.3705L71.2636 65.0372C72.1247 65.9063 72.6078 67.0803 72.6078 68.3038C72.6078 69.5273 72.1247 70.7013 71.2636 71.5705Z" fill="url(#paint0_linear_959_5996)"/>
<path d="M34.5971 14.7554C23.6475 14.7554 15.1008 23.6369 15.1008 34.2369C15.1008 44.9391 23.7631 53.7183 34.5971 53.7183C45.3408 53.7183 54.0638 45.0176 54.0638 34.2369C54.0638 23.4576 45.3453 14.7554 34.5971 14.7554ZM34.5971 50.7554C25.4312 50.7554 18.0638 43.3465 18.0638 34.2369C18.0638 25.0976 25.4505 17.7183 34.5971 17.7183C43.5794 17.7183 51.1008 24.9732 51.1008 34.2369C51.1008 43.3243 43.7512 50.7554 34.5971 50.7554Z" fill="#96C83D"/>
<path d="M38.0252 39.9082C37.6323 39.9081 37.2555 39.7519 36.9778 39.4741L31.12 33.6178L25.2607 39.4741C25.1241 39.6156 24.9606 39.7284 24.7798 39.8061C24.5991 39.8837 24.4047 39.9246 24.208 39.9263C24.0113 39.928 23.8162 39.8905 23.6341 39.816C23.452 39.7416 23.2866 39.6316 23.1475 39.4925C23.0084 39.3534 22.8984 39.1879 22.8239 39.0059C22.7495 38.8238 22.712 38.6287 22.7137 38.432C22.7154 38.2353 22.7563 38.0409 22.8339 37.8602C22.9115 37.6794 23.0244 37.5159 23.1659 37.3793L30.0726 30.4756C30.3504 30.1978 30.7271 30.0418 31.12 30.0418C31.5128 30.0418 31.8896 30.1978 32.1674 30.4756L37.9185 36.2237L43.7852 29.0993C44.0351 28.7957 44.3953 28.6039 44.7866 28.566C45.1779 28.5281 45.5683 28.6472 45.8718 28.8971C46.1754 29.1469 46.3672 29.5072 46.4051 29.8985C46.443 30.2898 46.3239 30.6802 46.0741 30.9837L39.1689 39.3689C39.0298 39.5376 38.8552 39.6734 38.6574 39.7667C38.4597 39.8599 38.2438 39.9082 38.0252 39.9082Z" fill="#96C83D"/>
<path d="M44.874 35.9824H44.8547C44.6601 35.9801 44.468 35.9395 44.2891 35.8629C44.1102 35.7863 43.9482 35.6752 43.8123 35.536C43.6764 35.3967 43.5692 35.2321 43.4969 35.0515C43.4246 34.8708 43.3886 34.6777 43.391 34.4832L43.4266 31.778L40.754 32.1972C40.5617 32.2274 40.3655 32.2194 40.1763 32.1737C39.9872 32.128 39.809 32.0455 39.6517 31.9309C39.4945 31.8163 39.3613 31.6719 39.2599 31.5058C39.1585 31.3398 39.0908 31.1554 39.0606 30.9632C39.0305 30.7709 39.0385 30.5747 39.0842 30.3856C39.1299 30.1964 39.2124 30.0182 39.327 29.8609C39.4416 29.7037 39.586 29.5705 39.752 29.4691C39.9181 29.3677 40.1025 29.3 40.2947 29.2698L44.7006 28.578C44.9135 28.5446 45.1311 28.558 45.3383 28.6173C45.5454 28.6767 45.7372 28.7805 45.9001 28.9215C46.063 29.0626 46.1932 29.2375 46.2815 29.434C46.3699 29.6305 46.4143 29.844 46.4117 30.0595L46.354 34.5202C46.3489 34.9098 46.1906 35.2817 45.9133 35.5553C45.636 35.829 45.2621 35.9825 44.8725 35.9824H44.874Z" fill="#96C83D"/>
<path d="M30.1004 30.3369C30.1004 33.8439 29.7666 36.6931 29.3554 36.6931C28.9443 36.6931 28.6008 33.8439 28.6008 30.3369C28.6008 26.8298 28.9491 24 29.3554 24C29.7618 24 30.1004 26.825 30.1004 30.3369Z" fill="url(#paint1_radial_959_5996)"/>
<path d="M29.3563 31.0723C25.8492 31.0723 23 30.7385 23 30.3274C23 29.9162 25.8492 29.5728 29.3563 29.5728C32.8633 29.5728 35.6931 29.921 35.6931 30.3274C35.6931 30.7337 32.8681 31.0723 29.3563 31.0723Z" fill="url(#paint2_radial_959_5996)"/>
<path d="M53.1004 8.33686C53.1004 11.8439 52.7666 14.6931 52.3554 14.6931C51.9443 14.6931 51.6008 11.8439 51.6008 8.33686C51.6008 4.82982 51.9491 2 52.3554 2C52.7618 2 53.1004 4.82498 53.1004 8.33686Z" fill="url(#paint3_radial_959_5996)"/>
<path d="M52.3563 9.07232C48.8492 9.07231 46 8.73854 46 8.32737C46 7.9162 48.8492 7.57275 52.3563 7.57275C55.8633 7.57275 58.6931 7.92104 58.6931 8.32737C58.6931 8.73371 55.8681 9.07232 52.3563 9.07232Z" fill="url(#paint4_radial_959_5996)"/>
<defs>
<linearGradient id="paint0_linear_959_5996" x1="65.3135" y1="62.1109" x2="44.8672" y2="-1.97113" gradientUnits="userSpaceOnUse">
<stop stop-color="white" stop-opacity="0.9"/>
<stop offset="0.04" stop-color="white" stop-opacity="0.85"/>
<stop offset="0.28" stop-color="white" stop-opacity="0.5"/>
<stop offset="0.65" stop-color="#FAFBFC" stop-opacity="0.4"/>
<stop offset="1" stop-color="#F0EFEF" stop-opacity="0.3"/>
</linearGradient>
<radialGradient id="paint1_radial_959_5996" cx="0" cy="0" r="1" gradientUnits="userSpaceOnUse" gradientTransform="translate(29.2363 30.8005) scale(0.741847 6.36066)">
<stop stop-color="white"/>
<stop offset="0.07" stop-color="white" stop-opacity="0.93"/>
<stop offset="1" stop-color="white" stop-opacity="0"/>
</radialGradient>
<radialGradient id="paint2_radial_959_5996" cx="0" cy="0" r="1" gradientUnits="userSpaceOnUse" gradientTransform="translate(28.8926 30.2082) rotate(90) scale(0.741848 6.36066)">
<stop stop-color="white"/>
<stop offset="0.07" stop-color="white" stop-opacity="0.93"/>
<stop offset="1" stop-color="white" stop-opacity="0"/>
</radialGradient>
<radialGradient id="paint3_radial_959_5996" cx="0" cy="0" r="1" gradientUnits="userSpaceOnUse" gradientTransform="translate(52.2363 8.80047) scale(0.741847 6.36066)">
<stop stop-color="white"/>
<stop offset="0.07" stop-color="white" stop-opacity="0.93"/>
<stop offset="1" stop-color="white" stop-opacity="0"/>
</radialGradient>
<radialGradient id="paint4_radial_959_5996" cx="0" cy="0" r="1" gradientUnits="userSpaceOnUse" gradientTransform="translate(51.8926 8.20818) rotate(90) scale(0.741848 6.36066)">
<stop stop-color="white"/>
<stop offset="0.07" stop-color="white" stop-opacity="0.93"/>
<stop offset="1" stop-color="white" stop-opacity="0"/>
</radialGradient>
</defs>
</svg>
