<svg width="108" height="108" viewBox="0 0 108 108" fill="none" xmlns="http://www.w3.org/2000/svg">
<path d="M58.1978 50.2316H56.5175C56.3677 49.6824 56.1076 49.1691 55.7528 48.7224H58.1978C58.4007 48.7224 58.5952 48.6423 58.7386 48.4999C58.882 48.3574 58.9625 48.1642 58.9625 47.9627C58.9625 47.7613 58.882 47.5681 58.7386 47.4256C58.5952 47.2832 58.4007 47.2031 58.1978 47.2031H49.8164C49.6136 47.2031 49.4191 47.2832 49.2756 47.4256C49.1322 47.5681 49.0517 47.7613 49.0517 47.9627C49.0517 48.1642 49.1322 48.3574 49.2756 48.4999C49.4191 48.6423 49.6136 48.7224 49.8164 48.7224H52.4928C52.995 48.7223 53.4868 48.8642 53.9109 49.1314C54.3349 49.3987 54.6737 49.7803 54.8875 50.2316H49.8566C49.6538 50.2316 49.4593 50.3116 49.3159 50.4541C49.1725 50.5966 49.0919 50.7898 49.0919 50.9912C49.0919 51.1927 49.1725 51.3859 49.3159 51.5284C49.4593 51.6708 49.6538 51.7509 49.8566 51.7509H55.1894C55.0962 52.3908 54.7705 52.9748 54.2738 53.3928C53.7771 53.8107 53.1436 54.0337 52.4928 54.0197H49.4743C49.4222 54.0363 49.3742 54.0636 49.3334 54.0997L49.2328 54.1497C49.1938 54.1885 49.16 54.2322 49.1322 54.2796C49.1054 54.3105 49.0818 54.344 49.0617 54.3795C49.0517 54.4256 49.0517 54.4734 49.0617 54.5195C49.0067 54.5955 48.9752 54.6858 48.9712 54.7793V54.8793C48.9611 54.9321 48.9611 54.9864 48.9712 55.0392C48.9885 55.0887 49.0122 55.1357 49.0416 55.1791C49.043 55.198 49.0493 55.2162 49.0599 55.232C49.0705 55.2478 49.085 55.2605 49.102 55.2691L53.67 60.5664C53.8009 60.72 53.9878 60.8158 54.1896 60.8326C54.3915 60.8495 54.5918 60.7861 54.7467 60.6564C54.8236 60.5921 54.8869 60.5132 54.9328 60.4242C54.9786 60.3353 55.0061 60.2381 55.0136 60.1385C55.0211 60.0389 55.0084 59.9387 54.9764 59.844C54.9444 59.7493 54.8937 59.6619 54.8271 59.5869L51.4866 55.519H52.4928C53.5407 55.5208 54.5513 55.1331 55.3259 54.432C56.1005 53.731 56.583 52.7674 56.6785 51.7309H58.2079C58.4107 51.7309 58.6052 51.6508 58.7486 51.5084C58.892 51.3659 58.9726 51.1727 58.9726 50.9712C58.9726 50.7698 58.892 50.5766 58.7486 50.4341C58.6052 50.2917 58.4107 50.2116 58.2079 50.2116L58.1978 50.2316Z" fill="url(#paint0_linear_959_6008)"/>
<path d="M58.1978 50.2316H56.5175C56.3677 49.6824 56.1076 49.1691 55.7528 48.7224H58.1978C58.4007 48.7224 58.5952 48.6423 58.7386 48.4999C58.882 48.3574 58.9625 48.1642 58.9625 47.9627C58.9625 47.7613 58.882 47.5681 58.7386 47.4256C58.5952 47.2832 58.4007 47.2031 58.1978 47.2031H49.8164C49.6136 47.2031 49.4191 47.2832 49.2756 47.4256C49.1322 47.5681 49.0517 47.7613 49.0517 47.9627C49.0517 48.1642 49.1322 48.3574 49.2756 48.4999C49.4191 48.6423 49.6136 48.7224 49.8164 48.7224H52.4928C52.995 48.7223 53.4868 48.8642 53.9109 49.1314C54.3349 49.3987 54.6737 49.7803 54.8875 50.2316H49.8566C49.6538 50.2316 49.4593 50.3116 49.3159 50.4541C49.1725 50.5966 49.0919 50.7898 49.0919 50.9912C49.0919 51.1927 49.1725 51.3859 49.3159 51.5284C49.4593 51.6708 49.6538 51.7509 49.8566 51.7509H55.1894C55.0962 52.3908 54.7705 52.9748 54.2738 53.3928C53.7771 53.8107 53.1436 54.0337 52.4928 54.0197H49.4743C49.4222 54.0363 49.3742 54.0636 49.3334 54.0997L49.2328 54.1497C49.1938 54.1885 49.16 54.2322 49.1322 54.2796C49.1054 54.3105 49.0818 54.344 49.0617 54.3795C49.0517 54.4256 49.0517 54.4734 49.0617 54.5195C49.0067 54.5955 48.9752 54.6858 48.9712 54.7793V54.8793C48.9611 54.9321 48.9611 54.9864 48.9712 55.0392C48.9885 55.0887 49.0122 55.1357 49.0416 55.1791C49.043 55.198 49.0493 55.2162 49.0599 55.232C49.0705 55.2478 49.085 55.2605 49.102 55.2691L53.67 60.5664C53.8009 60.72 53.9878 60.8158 54.1896 60.8326C54.3915 60.8495 54.5918 60.7861 54.7467 60.6564C54.8236 60.5921 54.8869 60.5132 54.9328 60.4242C54.9786 60.3353 55.0061 60.2381 55.0136 60.1385C55.0211 60.0389 55.0084 59.9387 54.9764 59.844C54.9444 59.7493 54.8937 59.6619 54.8271 59.5869L51.4866 55.519H52.4928C53.5407 55.5208 54.5513 55.1331 55.3259 54.432C56.1005 53.731 56.583 52.7674 56.6785 51.7309H58.2079C58.4107 51.7309 58.6052 51.6508 58.7486 51.5084C58.892 51.3659 58.9726 51.1727 58.9726 50.9712C58.9726 50.7698 58.892 50.5766 58.7486 50.4341C58.6052 50.2917 58.4107 50.2116 58.2079 50.2116L58.1978 50.2316Z" stroke="url(#paint1_linear_959_6008)" stroke-width="0.31" stroke-miterlimit="10"/>
<path fill-rule="evenodd" clip-rule="evenodd" d="M74.1477 83.6074C67.3961 88.2211 59.2902 90.4093 51.164 89.8119C43.0378 89.2145 35.3755 85.8671 29.438 80.3206C23.5006 74.774 19.6417 67.3587 18.4966 59.2951C17.3514 51.2315 18.988 43 23.1373 35.9551L27.1218 38.289C23.5252 44.3621 22.0753 51.4576 23.0067 58.4271C23.938 65.3966 27.1962 71.8321 32.2538 76.6922C37.3114 81.5523 43.8725 84.5525 50.8752 85.2072C57.8779 85.8619 64.9124 84.1328 70.8401 80.2998L67.4406 76.9003L78.698 75.7495L77.5543 87.014L74.1477 83.6074ZM33.9186 24.4388C40.4857 19.955 48.338 17.7616 56.2499 18.201C64.1619 18.6404 71.6884 21.6878 77.6547 26.8676C83.6209 32.0474 87.6914 39.0681 89.2306 46.8341C90.7699 54.6 89.6914 62.6742 86.1635 69.7965L84.0821 68.7823L81.9795 67.747L82.2294 67.2285C85.139 61.0831 85.9773 54.1715 84.6179 47.5364C83.2584 40.9013 79.775 34.9027 74.6931 30.4457C69.6112 25.9886 63.2065 23.3149 56.4455 22.828C49.6844 22.3411 42.9337 24.0674 37.212 27.7464L40.5691 31.1035L29.3118 32.2401L30.4555 20.9757L33.8903 24.4105L33.9186 24.4388Z" fill="url(#paint2_linear_959_6008)"/>
<path fill-rule="evenodd" clip-rule="evenodd" d="M74.1477 83.6074C67.3961 88.2211 59.2902 90.4093 51.164 89.8119C43.0378 89.2145 35.3755 85.8671 29.438 80.3206C23.5006 74.774 19.6417 67.3587 18.4966 59.2951C17.3514 51.2315 18.988 43 23.1373 35.9551L27.1218 38.289C23.5252 44.3621 22.0753 51.4576 23.0067 58.4271C23.938 65.3966 27.1962 71.8321 32.2538 76.6922C37.3114 81.5523 43.8725 84.5525 50.8752 85.2072C57.8779 85.8619 64.9124 84.1328 70.8401 80.2998L67.4406 76.9003L78.698 75.7495L77.5543 87.014L74.1477 83.6074ZM33.9186 24.4388C40.4857 19.955 48.338 17.7616 56.2499 18.201C64.1619 18.6404 71.6884 21.6878 77.6547 26.8676C83.6209 32.0474 87.6914 39.0681 89.2306 46.8341C90.7699 54.6 89.6914 62.6742 86.1635 69.7965L84.0821 68.7823L81.9795 67.747L82.2294 67.2285C85.139 61.0831 85.9773 54.1715 84.6179 47.5364C83.2584 40.9013 79.775 34.9027 74.6931 30.4457C69.6112 25.9886 63.2065 23.3149 56.4455 22.828C49.6844 22.3411 42.9337 24.0674 37.212 27.7464L40.5691 31.1035L29.3118 32.2401L30.4555 20.9757L33.8903 24.4105L33.9186 24.4388Z" fill="url(#paint3_linear_959_6008)"/>
<path d="M29.8569 30.1197C29.8569 33.5065 29.5345 36.258 29.1374 36.258C28.7404 36.258 28.4087 33.5065 28.4087 30.1197C28.4087 26.7328 28.745 24 29.1374 24C29.5299 24 29.8569 26.7282 29.8569 30.1197Z" fill="url(#paint4_radial_959_6008)"/>
<path d="M29.1384 30.83C25.7516 30.83 23 30.5077 23 30.1106C23 29.7135 25.7516 29.3818 29.1384 29.3818C32.5252 29.3818 35.2581 29.7182 35.2581 30.1106C35.2581 30.503 32.5299 30.83 29.1384 30.83Z" fill="url(#paint5_radial_959_6008)"/>
<path d="M86.8569 69.1197C86.8569 72.5065 86.5345 75.258 86.1374 75.258C85.7404 75.258 85.4087 72.5065 85.4087 69.1197C85.4087 65.7328 85.745 63 86.1374 63C86.5299 63 86.8569 65.7282 86.8569 69.1197Z" fill="url(#paint6_radial_959_6008)"/>
<path d="M86.1384 69.83C82.7516 69.83 80 69.5077 80 69.1106C80 68.7135 82.7516 68.3818 86.1384 68.3818C89.5252 68.3818 92.2581 68.7182 92.2581 69.1106C92.2581 69.503 89.5299 69.83 86.1384 69.83Z" fill="url(#paint7_radial_959_6008)"/>
<mask id="path-9-outside-1_959_6008" maskUnits="userSpaceOnUse" x="31" y="30" width="45" height="47" fill="black">
<rect fill="white" x="31" y="30" width="45" height="47"/>
<path d="M74.715 58.2601L73.1632 57.3643C73.6836 54.8122 73.6856 52.1816 73.1691 49.6287L74.715 48.7364C75.19 48.4618 75.5365 48.0098 75.6784 47.4798C75.8202 46.9498 75.7459 46.3852 75.4716 45.91L71.2454 38.5883C71.1098 38.3527 70.9291 38.1461 70.7137 37.9804C70.4982 37.8147 70.2522 37.6931 69.9897 37.6225C69.7272 37.5519 69.4534 37.5337 69.1839 37.569C68.9143 37.6043 68.6544 37.6924 68.4189 37.8282L66.8718 38.7204C64.915 37 62.6379 35.6827 60.1711 34.8438V33.0699C60.1705 32.5211 59.9522 31.995 59.5642 31.6069C59.1762 31.2189 58.65 31.0006 58.1013 31H49.6476C49.0991 31.0009 48.5732 31.2193 48.1855 31.6073C47.7977 31.9953 47.5796 32.5213 47.5789 33.0699V34.8474C45.1145 35.6888 42.8403 37.0081 40.8864 38.7298L39.3311 37.8282C39.0956 37.6922 38.8356 37.604 38.5659 37.5686C38.2963 37.5332 38.0223 37.5513 37.7597 37.6219C37.4971 37.6925 37.2509 37.8142 37.0354 37.98C36.8198 38.1459 36.6391 38.3525 36.5035 38.5883L32.2773 45.91C32.1414 46.1453 32.0532 46.4051 32.0177 46.6745C31.9822 46.9439 32.0002 47.2177 32.0706 47.4802C32.1409 47.7427 32.2623 47.9887 32.4278 48.2043C32.5933 48.4198 32.7996 48.6006 33.035 48.7364L34.5868 49.6322C34.0668 52.1845 34.0668 54.8155 34.5868 57.3678L33.0409 58.2601C32.566 58.5347 32.2194 58.9866 32.0773 59.5166C31.9353 60.0465 32.0093 60.6111 32.2831 61.0865L36.5035 68.4082C36.7778 68.8838 37.2297 69.2311 37.7599 69.3736C38.2902 69.5162 38.8553 69.4423 39.3311 69.1683L40.8771 68.2761C42.8343 69.9965 45.1118 71.3138 47.5789 72.1526V73.9301C47.5796 74.4787 47.7977 75.0047 48.1855 75.3927C48.5732 75.7807 49.0991 75.9991 49.6476 76H58.1013C58.65 75.9994 59.1762 75.7811 59.5642 75.3931C59.9522 75.005 60.1705 74.4789 60.1711 73.9301V72.1526C62.6353 71.3114 64.9092 69.9921 66.8625 68.2702L68.4189 69.1683C68.8942 69.4422 69.4588 69.5164 69.9887 69.3746C70.5186 69.2327 70.9705 68.8864 71.2454 68.4117L75.4728 61.09C75.7474 60.6142 75.8219 60.0489 75.6798 59.5182C75.5377 58.9875 75.1907 58.535 74.715 58.2601ZM74.328 60.427L70.1017 67.7475C70.0024 67.9193 69.839 68.0446 69.6473 68.0959C69.4557 68.1472 69.2515 68.1203 69.0797 68.0211L67.108 66.8833C66.986 66.8125 66.8446 66.7828 66.7044 66.7984C66.5642 66.8139 66.4327 66.874 66.3292 66.9698C64.3209 68.8293 61.9243 70.219 59.3128 71.0382C59.1776 71.0793 59.0591 71.1627 58.9749 71.2762C58.8907 71.3897 58.8452 71.5272 58.845 71.6685V73.9266C58.8447 74.125 58.7658 74.3152 58.6255 74.4555C58.4852 74.5958 58.295 74.6747 58.0966 74.6751H49.6476C49.4492 74.6747 49.259 74.5958 49.1188 74.4555C48.9785 74.3152 48.8995 74.125 48.8992 73.9266V71.6685C48.899 71.5272 48.8535 71.3897 48.7693 71.2762C48.6851 71.1627 48.5666 71.0793 48.4314 71.0382C45.8204 70.2208 43.4238 68.8332 41.415 66.9757C41.312 66.8795 41.1807 66.819 41.0407 66.8032C40.9006 66.7874 40.7592 66.8171 40.6373 66.888L38.6739 68.0211C38.5021 68.1203 38.2979 68.1472 38.1062 68.0959C37.9146 68.0446 37.7511 67.9193 37.6519 67.7475L33.4244 60.427C33.3254 60.255 33.2985 60.0509 33.3496 59.8592C33.4006 59.6674 33.5255 59.5037 33.6969 59.4038L35.658 58.2718C35.7799 58.2014 35.8761 58.0938 35.9325 57.9648C35.9889 57.8359 36.0025 57.6922 35.9714 57.5549C35.3625 54.8861 35.3649 52.1141 35.9784 49.4462C36.0094 49.3088 35.9957 49.165 35.9394 49.0359C35.883 48.9067 35.7869 48.799 35.665 48.7282L33.6969 47.5927C33.5251 47.4932 33.3997 47.3296 33.3482 47.1379C33.2967 46.9461 33.3233 46.7417 33.4221 46.5695L37.6495 39.249C37.6986 39.1638 37.7639 39.0892 37.8419 39.0293C37.9198 38.9695 38.0088 38.9256 38.1038 38.9001C38.1987 38.8747 38.2977 38.8683 38.3952 38.8812C38.4926 38.8941 38.5865 38.9261 38.6716 38.9754L40.6432 40.1132C40.7652 40.1839 40.9067 40.2137 41.0469 40.1981C41.187 40.1826 41.3185 40.1225 41.422 40.0267C43.4282 38.1676 45.8223 36.7776 48.4314 35.9571C48.5666 35.9159 48.6849 35.8324 48.7691 35.719C48.8533 35.6055 48.8989 35.4681 48.8992 35.3268V33.0699C48.8995 32.8715 48.9785 32.6813 49.1188 32.541C49.259 32.4007 49.4492 32.3217 49.6476 32.3214H58.1001C58.2985 32.3217 58.4887 32.4007 58.629 32.541C58.7693 32.6813 58.8482 32.8715 58.8485 33.0699V35.328C58.8489 35.4692 58.8945 35.6067 58.9787 35.7201C59.0628 35.8336 59.1812 35.917 59.3163 35.9583C61.9294 36.7748 64.3281 38.1625 66.3386 40.0208C66.442 40.1166 66.5734 40.1768 66.7136 40.1926C66.8537 40.2084 66.9952 40.1789 67.1174 40.1085L69.0808 38.9754C69.2527 38.8762 69.4569 38.8493 69.6485 38.9006C69.8402 38.9519 70.0036 39.0772 70.1029 39.249L74.3291 46.5695C74.4284 46.7415 74.4553 46.9459 74.404 47.1377C74.3527 47.3296 74.2273 47.4932 74.0555 47.5927L72.0944 48.7247C71.9725 48.7951 71.8763 48.9027 71.8199 49.0317C71.7635 49.1606 71.7499 49.3043 71.781 49.4416C72.3899 52.1104 72.3875 54.8824 71.774 57.5502C71.7426 57.6877 71.7561 57.8316 71.8125 57.9608C71.8689 58.0901 71.9652 58.1978 72.0874 58.2683L74.0555 59.4038C74.2271 59.5035 74.3522 59.6672 74.4033 59.859C74.4544 60.0509 74.4273 60.2551 74.328 60.427Z"/>
</mask>
<path d="M74.715 58.2601L73.1632 57.3643C73.6836 54.8122 73.6856 52.1816 73.1691 49.6287L74.715 48.7364C75.19 48.4618 75.5365 48.0098 75.6784 47.4798C75.8202 46.9498 75.7459 46.3852 75.4716 45.91L71.2454 38.5883C71.1098 38.3527 70.9291 38.1461 70.7137 37.9804C70.4982 37.8147 70.2522 37.6931 69.9897 37.6225C69.7272 37.5519 69.4534 37.5337 69.1839 37.569C68.9143 37.6043 68.6544 37.6924 68.4189 37.8282L66.8718 38.7204C64.915 37 62.6379 35.6827 60.1711 34.8438V33.0699C60.1705 32.5211 59.9522 31.995 59.5642 31.6069C59.1762 31.2189 58.65 31.0006 58.1013 31H49.6476C49.0991 31.0009 48.5732 31.2193 48.1855 31.6073C47.7977 31.9953 47.5796 32.5213 47.5789 33.0699V34.8474C45.1145 35.6888 42.8403 37.0081 40.8864 38.7298L39.3311 37.8282C39.0956 37.6922 38.8356 37.604 38.5659 37.5686C38.2963 37.5332 38.0223 37.5513 37.7597 37.6219C37.4971 37.6925 37.2509 37.8142 37.0354 37.98C36.8198 38.1459 36.6391 38.3525 36.5035 38.5883L32.2773 45.91C32.1414 46.1453 32.0532 46.4051 32.0177 46.6745C31.9822 46.9439 32.0002 47.2177 32.0706 47.4802C32.1409 47.7427 32.2623 47.9887 32.4278 48.2043C32.5933 48.4198 32.7996 48.6006 33.035 48.7364L34.5868 49.6322C34.0668 52.1845 34.0668 54.8155 34.5868 57.3678L33.0409 58.2601C32.566 58.5347 32.2194 58.9866 32.0773 59.5166C31.9353 60.0465 32.0093 60.6111 32.2831 61.0865L36.5035 68.4082C36.7778 68.8838 37.2297 69.2311 37.7599 69.3736C38.2902 69.5162 38.8553 69.4423 39.3311 69.1683L40.8771 68.2761C42.8343 69.9965 45.1118 71.3138 47.5789 72.1526V73.9301C47.5796 74.4787 47.7977 75.0047 48.1855 75.3927C48.5732 75.7807 49.0991 75.9991 49.6476 76H58.1013C58.65 75.9994 59.1762 75.7811 59.5642 75.3931C59.9522 75.005 60.1705 74.4789 60.1711 73.9301V72.1526C62.6353 71.3114 64.9092 69.9921 66.8625 68.2702L68.4189 69.1683C68.8942 69.4422 69.4588 69.5164 69.9887 69.3746C70.5186 69.2327 70.9705 68.8864 71.2454 68.4117L75.4728 61.09C75.7474 60.6142 75.8219 60.0489 75.6798 59.5182C75.5377 58.9875 75.1907 58.535 74.715 58.2601ZM74.328 60.427L70.1017 67.7475C70.0024 67.9193 69.839 68.0446 69.6473 68.0959C69.4557 68.1472 69.2515 68.1203 69.0797 68.0211L67.108 66.8833C66.986 66.8125 66.8446 66.7828 66.7044 66.7984C66.5642 66.8139 66.4327 66.874 66.3292 66.9698C64.3209 68.8293 61.9243 70.219 59.3128 71.0382C59.1776 71.0793 59.0591 71.1627 58.9749 71.2762C58.8907 71.3897 58.8452 71.5272 58.845 71.6685V73.9266C58.8447 74.125 58.7658 74.3152 58.6255 74.4555C58.4852 74.5958 58.295 74.6747 58.0966 74.6751H49.6476C49.4492 74.6747 49.259 74.5958 49.1188 74.4555C48.9785 74.3152 48.8995 74.125 48.8992 73.9266V71.6685C48.899 71.5272 48.8535 71.3897 48.7693 71.2762C48.6851 71.1627 48.5666 71.0793 48.4314 71.0382C45.8204 70.2208 43.4238 68.8332 41.415 66.9757C41.312 66.8795 41.1807 66.819 41.0407 66.8032C40.9006 66.7874 40.7592 66.8171 40.6373 66.888L38.6739 68.0211C38.5021 68.1203 38.2979 68.1472 38.1062 68.0959C37.9146 68.0446 37.7511 67.9193 37.6519 67.7475L33.4244 60.427C33.3254 60.255 33.2985 60.0509 33.3496 59.8592C33.4006 59.6674 33.5255 59.5037 33.6969 59.4038L35.658 58.2718C35.7799 58.2014 35.8761 58.0938 35.9325 57.9648C35.9889 57.8359 36.0025 57.6922 35.9714 57.5549C35.3625 54.8861 35.3649 52.1141 35.9784 49.4462C36.0094 49.3088 35.9957 49.165 35.9394 49.0359C35.883 48.9067 35.7869 48.799 35.665 48.7282L33.6969 47.5927C33.5251 47.4932 33.3997 47.3296 33.3482 47.1379C33.2967 46.9461 33.3233 46.7417 33.4221 46.5695L37.6495 39.249C37.6986 39.1638 37.7639 39.0892 37.8419 39.0293C37.9198 38.9695 38.0088 38.9256 38.1038 38.9001C38.1987 38.8747 38.2977 38.8683 38.3952 38.8812C38.4926 38.8941 38.5865 38.9261 38.6716 38.9754L40.6432 40.1132C40.7652 40.1839 40.9067 40.2137 41.0469 40.1981C41.187 40.1826 41.3185 40.1225 41.422 40.0267C43.4282 38.1676 45.8223 36.7776 48.4314 35.9571C48.5666 35.9159 48.6849 35.8324 48.7691 35.719C48.8533 35.6055 48.8989 35.4681 48.8992 35.3268V33.0699C48.8995 32.8715 48.9785 32.6813 49.1188 32.541C49.259 32.4007 49.4492 32.3217 49.6476 32.3214H58.1001C58.2985 32.3217 58.4887 32.4007 58.629 32.541C58.7693 32.6813 58.8482 32.8715 58.8485 33.0699V35.328C58.8489 35.4692 58.8945 35.6067 58.9787 35.7201C59.0628 35.8336 59.1812 35.917 59.3163 35.9583C61.9294 36.7748 64.3281 38.1625 66.3386 40.0208C66.442 40.1166 66.5734 40.1768 66.7136 40.1926C66.8537 40.2084 66.9952 40.1789 67.1174 40.1085L69.0808 38.9754C69.2527 38.8762 69.4569 38.8493 69.6485 38.9006C69.8402 38.9519 70.0036 39.0772 70.1029 39.249L74.3291 46.5695C74.4284 46.7415 74.4553 46.9459 74.404 47.1377C74.3527 47.3296 74.2273 47.4932 74.0555 47.5927L72.0944 48.7247C71.9725 48.7951 71.8763 48.9027 71.8199 49.0317C71.7635 49.1606 71.7499 49.3043 71.781 49.4416C72.3899 52.1104 72.3875 54.8824 71.774 57.5502C71.7426 57.6877 71.7561 57.8316 71.8125 57.9608C71.8689 58.0901 71.9652 58.1978 72.0874 58.2683L74.0555 59.4038C74.2271 59.5035 74.3522 59.6672 74.4033 59.859C74.4544 60.0509 74.4273 60.2551 74.328 60.427Z" fill="url(#paint8_linear_959_6008)"/>
<path d="M74.715 58.2601L73.1632 57.3643C73.6836 54.8122 73.6856 52.1816 73.1691 49.6287L74.715 48.7364C75.19 48.4618 75.5365 48.0098 75.6784 47.4798C75.8202 46.9498 75.7459 46.3852 75.4716 45.91L71.2454 38.5883C71.1098 38.3527 70.9291 38.1461 70.7137 37.9804C70.4982 37.8147 70.2522 37.6931 69.9897 37.6225C69.7272 37.5519 69.4534 37.5337 69.1839 37.569C68.9143 37.6043 68.6544 37.6924 68.4189 37.8282L66.8718 38.7204C64.915 37 62.6379 35.6827 60.1711 34.8438V33.0699C60.1705 32.5211 59.9522 31.995 59.5642 31.6069C59.1762 31.2189 58.65 31.0006 58.1013 31H49.6476C49.0991 31.0009 48.5732 31.2193 48.1855 31.6073C47.7977 31.9953 47.5796 32.5213 47.5789 33.0699V34.8474C45.1145 35.6888 42.8403 37.0081 40.8864 38.7298L39.3311 37.8282C39.0956 37.6922 38.8356 37.604 38.5659 37.5686C38.2963 37.5332 38.0223 37.5513 37.7597 37.6219C37.4971 37.6925 37.2509 37.8142 37.0354 37.98C36.8198 38.1459 36.6391 38.3525 36.5035 38.5883L32.2773 45.91C32.1414 46.1453 32.0532 46.4051 32.0177 46.6745C31.9822 46.9439 32.0002 47.2177 32.0706 47.4802C32.1409 47.7427 32.2623 47.9887 32.4278 48.2043C32.5933 48.4198 32.7996 48.6006 33.035 48.7364L34.5868 49.6322C34.0668 52.1845 34.0668 54.8155 34.5868 57.3678L33.0409 58.2601C32.566 58.5347 32.2194 58.9866 32.0773 59.5166C31.9353 60.0465 32.0093 60.6111 32.2831 61.0865L36.5035 68.4082C36.7778 68.8838 37.2297 69.2311 37.7599 69.3736C38.2902 69.5162 38.8553 69.4423 39.3311 69.1683L40.8771 68.2761C42.8343 69.9965 45.1118 71.3138 47.5789 72.1526V73.9301C47.5796 74.4787 47.7977 75.0047 48.1855 75.3927C48.5732 75.7807 49.0991 75.9991 49.6476 76H58.1013C58.65 75.9994 59.1762 75.7811 59.5642 75.3931C59.9522 75.005 60.1705 74.4789 60.1711 73.9301V72.1526C62.6353 71.3114 64.9092 69.9921 66.8625 68.2702L68.4189 69.1683C68.8942 69.4422 69.4588 69.5164 69.9887 69.3746C70.5186 69.2327 70.9705 68.8864 71.2454 68.4117L75.4728 61.09C75.7474 60.6142 75.8219 60.0489 75.6798 59.5182C75.5377 58.9875 75.1907 58.535 74.715 58.2601ZM74.328 60.427L70.1017 67.7475C70.0024 67.9193 69.839 68.0446 69.6473 68.0959C69.4557 68.1472 69.2515 68.1203 69.0797 68.0211L67.108 66.8833C66.986 66.8125 66.8446 66.7828 66.7044 66.7984C66.5642 66.8139 66.4327 66.874 66.3292 66.9698C64.3209 68.8293 61.9243 70.219 59.3128 71.0382C59.1776 71.0793 59.0591 71.1627 58.9749 71.2762C58.8907 71.3897 58.8452 71.5272 58.845 71.6685V73.9266C58.8447 74.125 58.7658 74.3152 58.6255 74.4555C58.4852 74.5958 58.295 74.6747 58.0966 74.6751H49.6476C49.4492 74.6747 49.259 74.5958 49.1188 74.4555C48.9785 74.3152 48.8995 74.125 48.8992 73.9266V71.6685C48.899 71.5272 48.8535 71.3897 48.7693 71.2762C48.6851 71.1627 48.5666 71.0793 48.4314 71.0382C45.8204 70.2208 43.4238 68.8332 41.415 66.9757C41.312 66.8795 41.1807 66.819 41.0407 66.8032C40.9006 66.7874 40.7592 66.8171 40.6373 66.888L38.6739 68.0211C38.5021 68.1203 38.2979 68.1472 38.1062 68.0959C37.9146 68.0446 37.7511 67.9193 37.6519 67.7475L33.4244 60.427C33.3254 60.255 33.2985 60.0509 33.3496 59.8592C33.4006 59.6674 33.5255 59.5037 33.6969 59.4038L35.658 58.2718C35.7799 58.2014 35.8761 58.0938 35.9325 57.9648C35.9889 57.8359 36.0025 57.6922 35.9714 57.5549C35.3625 54.8861 35.3649 52.1141 35.9784 49.4462C36.0094 49.3088 35.9957 49.165 35.9394 49.0359C35.883 48.9067 35.7869 48.799 35.665 48.7282L33.6969 47.5927C33.5251 47.4932 33.3997 47.3296 33.3482 47.1379C33.2967 46.9461 33.3233 46.7417 33.4221 46.5695L37.6495 39.249C37.6986 39.1638 37.7639 39.0892 37.8419 39.0293C37.9198 38.9695 38.0088 38.9256 38.1038 38.9001C38.1987 38.8747 38.2977 38.8683 38.3952 38.8812C38.4926 38.8941 38.5865 38.9261 38.6716 38.9754L40.6432 40.1132C40.7652 40.1839 40.9067 40.2137 41.0469 40.1981C41.187 40.1826 41.3185 40.1225 41.422 40.0267C43.4282 38.1676 45.8223 36.7776 48.4314 35.9571C48.5666 35.9159 48.6849 35.8324 48.7691 35.719C48.8533 35.6055 48.8989 35.4681 48.8992 35.3268V33.0699C48.8995 32.8715 48.9785 32.6813 49.1188 32.541C49.259 32.4007 49.4492 32.3217 49.6476 32.3214H58.1001C58.2985 32.3217 58.4887 32.4007 58.629 32.541C58.7693 32.6813 58.8482 32.8715 58.8485 33.0699V35.328C58.8489 35.4692 58.8945 35.6067 58.9787 35.7201C59.0628 35.8336 59.1812 35.917 59.3163 35.9583C61.9294 36.7748 64.3281 38.1625 66.3386 40.0208C66.442 40.1166 66.5734 40.1768 66.7136 40.1926C66.8537 40.2084 66.9952 40.1789 67.1174 40.1085L69.0808 38.9754C69.2527 38.8762 69.4569 38.8493 69.6485 38.9006C69.8402 38.9519 70.0036 39.0772 70.1029 39.249L74.3291 46.5695C74.4284 46.7415 74.4553 46.9459 74.404 47.1377C74.3527 47.3296 74.2273 47.4932 74.0555 47.5927L72.0944 48.7247C71.9725 48.7951 71.8763 48.9027 71.8199 49.0317C71.7635 49.1606 71.7499 49.3043 71.781 49.4416C72.3899 52.1104 72.3875 54.8824 71.774 57.5502C71.7426 57.6877 71.7561 57.8316 71.8125 57.9608C71.8689 58.0901 71.9652 58.1978 72.0874 58.2683L74.0555 59.4038C74.2271 59.5035 74.3522 59.6672 74.4033 59.859C74.4544 60.0509 74.4273 60.2551 74.328 60.427Z" stroke="url(#paint9_linear_959_6008)" stroke-width="0.4" mask="url(#path-9-outside-1_959_6008)"/>
<path d="M54.2787 40.3931C51.5932 40.3931 48.9679 41.1894 46.735 42.6814C44.5021 44.1734 42.7617 46.294 41.734 48.7751C40.7063 51.2562 40.4374 53.9864 40.9613 56.6203C41.4853 59.2542 42.7785 61.6736 44.6774 63.5726C46.5764 65.4715 48.9958 66.7647 51.6297 67.2887C54.2636 67.8126 56.9937 67.5437 59.4748 66.516C61.9559 65.4883 64.0766 63.7479 65.5686 61.515C67.0606 59.2821 67.8569 56.6568 67.8569 53.9713C67.8528 50.3714 66.4209 46.9201 63.8754 44.3746C61.3299 41.829 57.8786 40.3972 54.2787 40.3931ZM54.2787 66.2046C51.8592 66.2046 49.494 65.4871 47.4822 64.1429C45.4705 62.7987 43.9025 60.8881 42.9766 58.6528C42.0507 56.4174 41.8084 53.9577 42.2805 51.5847C42.7525 49.2117 43.9176 47.0319 45.6285 45.3211C47.3393 43.6102 49.5191 42.4451 51.8921 41.9731C54.2651 41.5011 56.7248 41.7433 58.9601 42.6692C61.1955 43.5951 63.1061 45.1631 64.4503 47.1749C65.7945 49.1866 66.5119 51.5518 66.5119 53.9713C66.5085 57.2147 65.2185 60.3243 62.9251 62.6177C60.6316 64.9112 57.5221 66.2011 54.2787 66.2046Z" fill="url(#paint10_linear_959_6008)"/>
<path d="M54.2787 40.3931C51.5932 40.3931 48.9679 41.1894 46.735 42.6814C44.5021 44.1734 42.7617 46.294 41.734 48.7751C40.7063 51.2562 40.4374 53.9864 40.9613 56.6203C41.4853 59.2542 42.7785 61.6736 44.6774 63.5726C46.5764 65.4715 48.9958 66.7647 51.6297 67.2887C54.2636 67.8126 56.9937 67.5437 59.4748 66.516C61.9559 65.4883 64.0766 63.7479 65.5686 61.515C67.0606 59.2821 67.8569 56.6568 67.8569 53.9713C67.8528 50.3714 66.4209 46.9201 63.8754 44.3746C61.3299 41.829 57.8786 40.3972 54.2787 40.3931ZM54.2787 66.2046C51.8592 66.2046 49.494 65.4871 47.4822 64.1429C45.4705 62.7987 43.9025 60.8881 42.9766 58.6528C42.0507 56.4174 41.8084 53.9577 42.2805 51.5847C42.7525 49.2117 43.9176 47.0319 45.6285 45.3211C47.3393 43.6102 49.5191 42.4451 51.8921 41.9731C54.2651 41.5011 56.7248 41.7433 58.9601 42.6692C61.1955 43.5951 63.1061 45.1631 64.4503 47.1749C65.7945 49.1866 66.5119 51.5518 66.5119 53.9713C66.5085 57.2147 65.2185 60.3243 62.9251 62.6177C60.6316 64.9112 57.5221 66.2011 54.2787 66.2046Z" fill="url(#paint11_linear_959_6008)"/>
<path d="M54.2823 66.3296H54.2824C57.5584 66.3251 60.6989 65.0216 63.0152 62.7049C65.3314 60.3882 66.6343 57.2475 66.6381 53.9715V53.9713C66.6381 51.527 65.9133 49.1375 64.5552 47.1052C63.1972 45.0728 61.2669 43.4888 59.0086 42.5535C56.7503 41.6182 54.2653 41.3736 51.868 41.8507C49.4707 42.3277 47.2686 43.505 45.5404 45.2335C43.8122 46.9621 42.6353 49.1644 42.1588 51.5618C41.6822 53.9592 41.9273 56.4441 42.863 58.7023C43.7987 60.9604 45.3831 62.8904 47.4157 64.248C49.4484 65.6057 51.8379 66.3301 54.2823 66.3296ZM46.807 42.7836C49.0199 41.3058 51.6212 40.5174 54.2821 40.5181C57.8483 40.5231 61.2669 41.9422 63.7883 44.4642C66.3096 46.9862 67.7278 50.4053 67.7319 53.9715C67.7319 56.6324 66.9428 59.2335 65.4644 61.4459C63.986 63.6584 61.8846 65.3827 59.4262 66.4008C56.9677 67.419 54.2625 67.6852 51.6528 67.1658C49.043 66.6464 46.6459 65.3648 44.7646 63.4829C42.8832 61.6011 41.6022 59.2037 41.0835 56.5937C40.5648 53.9838 40.8317 51.2787 41.8505 48.8205C42.8693 46.3623 44.5942 44.2615 46.807 42.7836Z" stroke="url(#paint12_linear_959_6008)" stroke-width="0.25" stroke-miterlimit="10"/>
<path d="M58.6054 38.6875C59.0638 38.8337 59.5198 39.0033 59.963 39.1915C60.0447 39.2265 60.1327 39.2444 60.2215 39.2442C60.3738 39.2441 60.5213 39.1913 60.6391 39.0947C60.7569 38.9982 60.8376 38.8639 60.8676 38.7147C60.8976 38.5654 60.8751 38.4103 60.8038 38.2758C60.7325 38.1412 60.6168 38.0355 60.4764 37.9765C59.9958 37.7719 59.5 37.5871 59.003 37.4292C58.919 37.3978 58.8295 37.3837 58.7399 37.3879C58.6503 37.3922 58.5625 37.4146 58.4819 37.4539C58.4012 37.4931 58.3294 37.5484 58.2708 37.6163C58.2122 37.6842 58.1681 37.7633 58.1411 37.8488C58.114 37.9344 58.1047 38.0245 58.1136 38.1137C58.1226 38.203 58.1496 38.2895 58.193 38.3679C58.2365 38.4464 58.2954 38.5152 58.3663 38.5702C58.4372 38.6251 58.5185 38.665 58.6054 38.6875Z" fill="url(#paint13_linear_959_6008)"/>
<path d="M40.1119 60.9895L40.1118 60.9895L40.113 60.9917C40.3717 61.456 40.6485 61.9155 40.9494 62.3545L40.9494 62.3546L40.9522 62.3584C40.9952 62.4163 41.0261 62.4822 41.043 62.5522C41.0599 62.6222 41.0626 62.695 41.0507 62.766C41.0389 62.8371 41.0128 62.9051 40.9741 62.9659C40.9354 63.0266 40.8848 63.079 40.8254 63.1197C40.766 63.1605 40.699 63.1889 40.6284 63.2032C40.5578 63.2174 40.485 63.2173 40.4144 63.2028C40.3438 63.1883 40.2769 63.1597 40.2176 63.1187C40.1584 63.0777 40.108 63.0252 40.0695 62.9643L40.0695 62.9643L40.0669 62.9604C39.7443 62.4901 39.4456 62.0039 39.1719 61.5035L39.1719 61.5035L39.1713 61.5025C39.1367 61.4406 39.1147 61.3726 39.1066 61.3022C39.0984 61.2318 39.1044 61.1605 39.124 61.0924C39.1436 61.0244 39.1765 60.9608 39.2209 60.9056C39.2652 60.8503 39.32 60.8044 39.3822 60.7705C39.4444 60.7366 39.5128 60.7153 39.5832 60.708C39.6537 60.7006 39.7249 60.7073 39.7928 60.7277C39.8606 60.7481 39.9238 60.7817 39.9785 60.8266C40.0333 60.8716 40.0786 60.9269 40.1119 60.9895Z" fill="url(#paint14_linear_959_6008)" stroke="url(#paint15_linear_959_6008)" stroke-width="0.25"/>
<path d="M52.5242 68.9827C48.9695 68.6708 45.63 67.146 43.0661 64.6641C43.0045 64.6003 42.9308 64.5496 42.8492 64.515C42.7677 64.4804 42.68 64.4625 42.5914 64.4624C42.5028 64.4623 42.4151 64.4801 42.3335 64.5146C42.2519 64.5491 42.1781 64.5997 42.1164 64.6633C42.0548 64.7269 42.0065 64.8023 41.9746 64.8849C41.9427 64.9676 41.9277 65.0558 41.9305 65.1443C41.9334 65.2329 41.954 65.32 41.9912 65.4004C42.0283 65.4808 42.0813 65.5529 42.1469 65.6124C44.9287 68.3044 48.5511 69.9587 52.4073 70.2983H52.4646C52.6331 70.2955 52.7941 70.2284 52.9147 70.1109C53.0354 69.9933 53.1066 69.8341 53.1137 69.6658C53.1209 69.4974 53.0635 69.3327 52.9533 69.2053C52.8431 69.0779 52.6883 68.9975 52.5207 68.9803L52.5242 68.9827Z" fill="url(#paint16_linear_959_6008)"/>
<path d="M52.6419 69.0135C49.0867 68.7018 45.7468 67.177 43.1826 64.6948C43.0556 64.5796 42.8888 64.5183 42.7174 64.5238C42.546 64.5293 42.3835 64.6012 42.2641 64.7243C42.1448 64.8475 42.078 65.0122 42.0779 65.1836C42.0777 65.3551 42.1443 65.5199 42.2634 65.6432C45.0455 68.3354 48.6684 69.9898 52.525 70.329C52.544 70.3302 52.5632 70.3302 52.5823 70.329C52.7507 70.3262 52.9117 70.2592 53.0324 70.1416C53.153 70.0241 53.2242 69.8648 53.2314 69.6965C53.2386 69.5282 53.1812 69.3635 53.0709 69.2361C52.9607 69.1087 52.806 69.0282 52.6384 69.0111L52.6419 69.0135Z" stroke="url(#paint17_linear_959_6008)" stroke-width="0.25" stroke-miterlimit="10"/>
<path d="M63.3789 39.5676C63.2343 39.475 63.0593 39.4424 62.8911 39.4766C62.7229 39.5109 62.5745 39.6092 62.4776 39.7509C62.3806 39.8925 62.3426 40.0664 62.3715 40.2356C62.4005 40.4048 62.4942 40.5561 62.6328 40.6574C65.6964 42.7476 67.9127 45.8634 68.8821 49.4432C68.9199 49.5834 69.0028 49.7072 69.118 49.7956C69.2332 49.8839 69.3743 49.9319 69.5194 49.932C69.5778 49.9321 69.636 49.9246 69.6925 49.9098C69.862 49.8643 70.0064 49.7534 70.0941 49.6014C70.1819 49.4495 70.2056 49.2689 70.1603 49.0994C69.1077 45.2156 66.7028 41.8354 63.3789 39.5676Z" fill="url(#paint18_linear_959_6008)"/>
<path d="M58.6433 38.5523L58.6434 38.5521L58.6367 38.5504C58.5663 38.5322 58.5004 38.4998 58.4429 38.4552C58.3854 38.4107 58.3376 38.3549 58.3024 38.2913C58.2672 38.2277 58.2453 38.1575 58.238 38.0852C58.2308 38.0128 58.2383 37.9397 58.2602 37.8704C58.2822 37.8011 58.318 37.7369 58.3655 37.6818C58.413 37.6268 58.4712 37.582 58.5366 37.5501C58.602 37.5183 58.6731 37.5001 58.7458 37.4967C58.8184 37.4933 58.891 37.5046 58.9591 37.5302L58.959 37.5303L58.9649 37.5322C59.4583 37.6901 59.9505 37.8723 60.4274 38.0754L60.4275 38.0755C60.541 38.1237 60.6344 38.2095 60.6919 38.3186C60.7494 38.4276 60.7675 38.5532 60.7433 38.674C60.719 38.7949 60.6537 38.9037 60.5586 38.9821C60.4635 39.0603 60.3444 39.1035 60.2213 39.1042C60.1495 39.104 60.0786 39.0893 60.0127 39.0607L60.0127 39.0607L60.012 39.0604C59.5663 38.8706 59.1054 38.6997 58.6433 38.5523Z" stroke="url(#paint19_linear_959_6008)" stroke-width="0.25" stroke-miterlimit="10"/>
<path d="M70.1639 49.0844L70.0432 49.1167C70.0614 49.1847 70.066 49.2556 70.0568 49.3254C70.0476 49.3952 70.0247 49.4625 69.9895 49.5234C69.9543 49.5843 69.9074 49.6377 69.8515 49.6805C69.7957 49.7233 69.7319 49.7547 69.6639 49.7729L69.6638 49.7729C69.6178 49.7853 69.5704 49.7917 69.5228 49.792C69.4052 49.7918 69.291 49.7529 69.1977 49.6814C69.1043 49.6098 69.0371 49.5093 69.0065 49.3957L69.0064 49.3956C68.0297 45.7868 65.7955 42.6458 62.7069 40.5392L62.6365 40.6424L62.707 40.5393C62.6489 40.4995 62.5992 40.4488 62.5608 40.3898C62.5223 40.3309 62.4958 40.265 62.4828 40.1958C62.4699 40.1266 62.4706 40.0556 62.4851 39.9867C62.4995 39.9179 62.5274 39.8525 62.5672 39.7944C62.6069 39.7363 62.6577 39.6866 62.7166 39.6482C62.7755 39.6097 62.8414 39.5832 62.9106 39.5702C62.9798 39.5573 63.0508 39.558 63.1197 39.5725C63.1886 39.587 63.2539 39.6148 63.312 39.6546L63.3121 39.6547C66.6121 41.9055 68.9993 45.2614 70.0433 49.1171L70.1639 49.0844ZM70.1639 49.0844C69.1122 45.1999 66.7072 41.819 63.3826 39.5514L68.8858 49.4282C68.9236 49.5684 69.0064 49.6922 69.1216 49.7806C69.2368 49.8689 69.3779 49.9169 69.5231 49.917C69.5816 49.9167 69.6397 49.9088 69.6962 49.8936C69.78 49.8712 69.8587 49.8325 69.9276 49.7797C69.9965 49.7269 70.0543 49.6611 70.0977 49.5859C70.1412 49.5108 70.1694 49.4278 70.1807 49.3418C70.1921 49.2557 70.1864 49.1683 70.1639 49.0844Z" stroke="url(#paint20_linear_959_6008)" stroke-width="0.25" stroke-miterlimit="10"/>
<defs>
<linearGradient id="paint0_linear_959_6008" x1="54.0021" y1="60.8363" x2="54.0021" y2="47.2131" gradientUnits="userSpaceOnUse">
<stop stop-color="#79A540"/>
<stop offset="0.2" stop-color="#94C63D"/>
<stop offset="0.39" stop-color="#98CA3C"/>
<stop offset="0.59" stop-color="#93C53E"/>
<stop offset="0.74" stop-color="#9DCB3B"/>
<stop offset="0.9" stop-color="#A6CE39"/>
<stop offset="1" stop-color="#A6CE39"/>
</linearGradient>
<linearGradient id="paint1_linear_959_6008" x1="54.0062" y1="60.9962" x2="54.0105" y2="47.0569" gradientUnits="userSpaceOnUse">
<stop stop-color="white" stop-opacity="0.9"/>
<stop offset="0.28" stop-color="white" stop-opacity="0.5"/>
<stop offset="0.65" stop-color="#FAFBFC" stop-opacity="0.4"/>
<stop offset="1" stop-color="#F0EFEF" stop-opacity="0.3"/>
</linearGradient>
<linearGradient id="paint2_linear_959_6008" x1="23.5943" y1="45.5145" x2="90.4159" y2="79.8092" gradientUnits="userSpaceOnUse">
<stop stop-color="#F0EFEF" stop-opacity="0.3"/>
<stop offset="0.35" stop-color="#FAFBFC" stop-opacity="0.4"/>
<stop offset="0.72" stop-color="white" stop-opacity="0.5"/>
<stop offset="0.96" stop-color="white" stop-opacity="0.85"/>
<stop offset="1" stop-color="white" stop-opacity="0.9"/>
</linearGradient>
<linearGradient id="paint3_linear_959_6008" x1="89.5472" y1="53.3093" x2="22.6014" y2="21.1768" gradientUnits="userSpaceOnUse">
<stop stop-color="white" stop-opacity="0.9"/>
<stop offset="0.04" stop-color="white" stop-opacity="0.85"/>
<stop offset="0.28" stop-color="white" stop-opacity="0.5"/>
<stop offset="0.65" stop-color="#FAFBFC" stop-opacity="0.4"/>
<stop offset="1" stop-color="#F0EFEF" stop-opacity="0.3"/>
</linearGradient>
<radialGradient id="paint4_radial_959_6008" cx="0" cy="0" r="1" gradientUnits="userSpaceOnUse" gradientTransform="translate(29.0223 30.5674) scale(0.716421 6.14265)">
<stop stop-color="white"/>
<stop offset="0.07" stop-color="white" stop-opacity="0.93"/>
<stop offset="1" stop-color="white" stop-opacity="0"/>
</radialGradient>
<radialGradient id="paint5_radial_959_6008" cx="0" cy="0" r="1" gradientUnits="userSpaceOnUse" gradientTransform="translate(28.6907 29.9955) rotate(90) scale(0.716421 6.14265)">
<stop stop-color="white"/>
<stop offset="0.07" stop-color="white" stop-opacity="0.93"/>
<stop offset="1" stop-color="white" stop-opacity="0"/>
</radialGradient>
<radialGradient id="paint6_radial_959_6008" cx="0" cy="0" r="1" gradientUnits="userSpaceOnUse" gradientTransform="translate(86.0223 69.5674) scale(0.716421 6.14265)">
<stop stop-color="white"/>
<stop offset="0.07" stop-color="white" stop-opacity="0.93"/>
<stop offset="1" stop-color="white" stop-opacity="0"/>
</radialGradient>
<radialGradient id="paint7_radial_959_6008" cx="0" cy="0" r="1" gradientUnits="userSpaceOnUse" gradientTransform="translate(85.6907 68.9955) rotate(90) scale(0.716421 6.14265)">
<stop stop-color="white"/>
<stop offset="0.07" stop-color="white" stop-opacity="0.93"/>
<stop offset="1" stop-color="white" stop-opacity="0"/>
</radialGradient>
<linearGradient id="paint8_linear_959_6008" x1="70.0924" y1="63.1856" x2="28.2615" y2="38.1954" gradientUnits="userSpaceOnUse">
<stop stop-color="white" stop-opacity="0.9"/>
<stop offset="0.28" stop-color="white" stop-opacity="0.5"/>
<stop offset="0.65" stop-color="#FAFBFC" stop-opacity="0.4"/>
<stop offset="1" stop-color="#F0EFEF" stop-opacity="0.3"/>
</linearGradient>
<linearGradient id="paint9_linear_959_6008" x1="70.0924" y1="63.1856" x2="28.2615" y2="38.1954" gradientUnits="userSpaceOnUse">
<stop stop-color="white" stop-opacity="0.9"/>
<stop offset="0.28" stop-color="white" stop-opacity="0.5"/>
<stop offset="0.65" stop-color="#FAFBFC" stop-opacity="0.4"/>
<stop offset="1" stop-color="#F0EFEF" stop-opacity="0.3"/>
</linearGradient>
<linearGradient id="paint10_linear_959_6008" x1="63.5435" y1="62.9683" x2="44.6568" y2="44.628" gradientUnits="userSpaceOnUse">
<stop stop-color="white" stop-opacity="0.9"/>
<stop offset="0.04" stop-color="white" stop-opacity="0.85"/>
<stop offset="0.28" stop-color="white" stop-opacity="0.5"/>
<stop offset="0.65" stop-color="#FAFBFC" stop-opacity="0.4"/>
<stop offset="1" stop-color="#F0EFEF" stop-opacity="0.3"/>
</linearGradient>
<linearGradient id="paint11_linear_959_6008" x1="54.3708" y1="67.5516" x2="54.3708" y2="40.413" gradientUnits="userSpaceOnUse">
<stop stop-color="#79A540"/>
<stop offset="0.2" stop-color="#94C63D"/>
<stop offset="0.39" stop-color="#98CA3C"/>
<stop offset="0.59" stop-color="#93C53E"/>
<stop offset="0.74" stop-color="#9DCB3B"/>
<stop offset="0.9" stop-color="#A6CE39"/>
<stop offset="1" stop-color="#A6CE39"/>
</linearGradient>
<linearGradient id="paint12_linear_959_6008" x1="47.4896" y1="45.7678" x2="65.5939" y2="61.8919" gradientUnits="userSpaceOnUse">
<stop stop-color="#F0EFEF" stop-opacity="0"/>
<stop offset="0.614562" stop-color="#FAFBFC" stop-opacity="0.4"/>
<stop offset="0.848709" stop-color="white" stop-opacity="0.5"/>
<stop offset="1" stop-color="white" stop-opacity="0.9"/>
</linearGradient>
<linearGradient id="paint13_linear_959_6008" x1="58.1388" y1="38.3203" x2="60.8764" y2="38.3203" gradientUnits="userSpaceOnUse">
<stop stop-color="white" stop-opacity="0.9"/>
<stop offset="0.04" stop-color="white" stop-opacity="0.85"/>
<stop offset="0.28" stop-color="white" stop-opacity="0.5"/>
<stop offset="0.65" stop-color="#FAFBFC" stop-opacity="0.4"/>
<stop offset="1" stop-color="#F0EFEF" stop-opacity="0.3"/>
</linearGradient>
<linearGradient id="paint14_linear_959_6008" x1="38.9815" y1="61.9518" x2="41.1695" y2="61.9518" gradientUnits="userSpaceOnUse">
<stop stop-color="white" stop-opacity="0.9"/>
<stop offset="0.04" stop-color="white" stop-opacity="0.85"/>
<stop offset="0.28" stop-color="white" stop-opacity="0.5"/>
<stop offset="0.65" stop-color="#FAFBFC" stop-opacity="0.4"/>
<stop offset="1" stop-color="#F0EFEF" stop-opacity="0.3"/>
</linearGradient>
<linearGradient id="paint15_linear_959_6008" x1="40.2619" y1="62.0217" x2="41.1192" y2="62.5797" gradientUnits="userSpaceOnUse">
<stop stop-color="#F0EFEF" stop-opacity="0"/>
<stop offset="0.614562" stop-color="#FAFBFC" stop-opacity="0.4"/>
<stop offset="0.848709" stop-color="white" stop-opacity="0.5"/>
<stop offset="1" stop-color="white" stop-opacity="0.9"/>
</linearGradient>
<linearGradient id="paint16_linear_959_6008" x1="41.9435" y1="67.3888" x2="53.1265" y2="67.3888" gradientUnits="userSpaceOnUse">
<stop stop-color="white" stop-opacity="0.9"/>
<stop offset="0.04" stop-color="white" stop-opacity="0.85"/>
<stop offset="0.28" stop-color="white" stop-opacity="0.5"/>
<stop offset="0.65" stop-color="#FAFBFC" stop-opacity="0.4"/>
<stop offset="1" stop-color="#F0EFEF" stop-opacity="0.3"/>
</linearGradient>
<linearGradient id="paint17_linear_959_6008" x1="44.8664" y1="65.6726" x2="48.2619" y2="71.4819" gradientUnits="userSpaceOnUse">
<stop stop-color="#F0EFEF" stop-opacity="0"/>
<stop offset="0.614562" stop-color="#FAFBFC" stop-opacity="0.4"/>
<stop offset="0.848709" stop-color="white" stop-opacity="0.5"/>
<stop offset="1" stop-color="white" stop-opacity="0.9"/>
</linearGradient>
<linearGradient id="paint18_linear_959_6008" x1="62.3451" y1="44.6919" x2="70.1802" y2="44.6919" gradientUnits="userSpaceOnUse">
<stop stop-color="white" stop-opacity="0.9"/>
<stop offset="0.04" stop-color="white" stop-opacity="0.85"/>
<stop offset="0.28" stop-color="white" stop-opacity="0.5"/>
<stop offset="0.65" stop-color="#FAFBFC" stop-opacity="0.4"/>
<stop offset="1" stop-color="#F0EFEF" stop-opacity="0.3"/>
</linearGradient>
<linearGradient id="paint19_linear_959_6008" x1="59.7223" y1="38.3421" x2="60.3422" y2="39.0942" gradientUnits="userSpaceOnUse">
<stop stop-color="#F0EFEF" stop-opacity="0"/>
<stop offset="0.614562" stop-color="#FAFBFC" stop-opacity="0.4"/>
<stop offset="0.848709" stop-color="white" stop-opacity="0.5"/>
<stop offset="1" stop-color="white" stop-opacity="0.9"/>
</linearGradient>
<linearGradient id="paint20_linear_959_6008" x1="64.3081" y1="41.5104" x2="70.7988" y2="45.8333" gradientUnits="userSpaceOnUse">
<stop stop-color="#F0EFEF" stop-opacity="0"/>
<stop offset="0.614562" stop-color="#FAFBFC" stop-opacity="0.4"/>
<stop offset="0.848709" stop-color="white" stop-opacity="0.5"/>
<stop offset="1" stop-color="white" stop-opacity="0.9"/>
</linearGradient>
</defs>
</svg>
