<svg width="89" height="80" viewBox="0 0 89 80" fill="none" xmlns="http://www.w3.org/2000/svg">
<mask id="path-1-inside-1_982_6276" fill="white">
<path d="M54.3462 2.81161C54.4358 1.99279 54.8426 1.24167 55.4795 0.7193C56.1164 0.196932 56.9326 -0.0550932 57.7531 0.0172641C58.5725 -0.0549511 59.3874 0.197398 60.0226 0.720004C60.6578 1.24261 61.0624 1.99369 61.1493 2.81161V15.0315C61.0624 15.8494 60.6578 16.6005 60.0226 17.1231C59.3874 17.6457 58.5725 17.8981 57.7531 17.8258C56.932 17.901 56.1143 17.65 55.4768 17.1271C54.8392 16.6042 54.4331 15.8514 54.3462 15.0315V2.81161ZM15.5908 39.568C15.3973 39.568 15.2253 38.719 15.2253 37.6764C15.2253 36.6339 15.3758 35.7956 15.5908 35.7956H24.8873C25.0808 35.7956 25.2527 36.6447 25.2527 37.6764C25.2527 38.7082 25.1023 39.568 24.8873 39.568H15.5908ZM30.4008 39.568C30.2073 39.568 30.0354 38.719 30.0354 37.6764C30.0354 36.6339 30.1858 35.7956 30.4008 35.7956H39.6974C39.8908 35.7956 40.0735 36.6447 40.0735 37.6764C40.0735 38.7082 39.9123 39.568 39.6974 39.568H30.4008ZM45.2216 39.568C45.0281 39.568 44.8562 38.719 44.8562 37.6764C44.8562 36.6339 45.0066 35.7956 45.2216 35.7956H54.5181C54.7116 35.7956 54.8836 36.6447 54.8836 37.6764C53.9528 38.2503 53.0589 38.882 52.2074 39.568H45.2216ZM15.6122 50.38C15.4188 50.38 15.2468 49.5309 15.2468 48.4884C15.2468 47.4459 15.3973 46.6076 15.6122 46.6076H24.9088C25.1023 46.6076 25.2742 47.4567 25.2742 48.4884C25.2742 49.5202 25.1238 50.38 24.9088 50.38H15.6122ZM30.4223 50.38C30.2288 50.38 30.0569 49.5309 30.0569 48.4884C30.0569 47.4459 30.2073 46.6076 30.4223 46.6076H39.7189C39.9123 46.6076 40.0843 47.4567 40.0843 48.4884C40.0843 49.5202 39.9338 50.38 39.7189 50.38H30.4223ZM15.623 61.1919C15.4295 61.1919 15.2576 60.3429 15.2576 59.3004C15.2576 58.2579 15.4188 57.4196 15.623 57.4196H24.9303C25.1238 57.4196 25.2957 58.2686 25.2957 59.3004C25.2957 60.3321 25.1345 61.1919 24.9303 61.1919H15.623ZM30.4438 61.1919C30.2503 61.1919 30.0784 60.3429 30.0784 59.3004C30.0784 58.2579 30.2288 57.4196 30.4438 57.4196H39.7404C39.9338 57.4196 40.1058 58.2686 40.1058 59.3004C40.1058 60.3321 39.9553 61.1919 39.7404 61.1919H30.4438ZM23.7588 2.81161C23.8018 2.40155 23.9251 2.00397 24.1217 1.64158C24.3183 1.27919 24.5844 0.959099 24.9048 0.699596C25.2252 0.440093 25.5936 0.246264 25.9889 0.129187C26.3842 0.0121091 26.7988 -0.0259229 27.2088 0.0172641C28.0299 -0.0579253 28.8476 0.19306 29.4851 0.71596C30.1227 1.23886 30.5288 1.99166 30.6157 2.81161V15.0315C30.5261 15.8503 30.1193 16.6014 29.4824 17.1238C28.8455 17.6462 28.0293 17.8982 27.2088 17.8258C26.3894 17.8981 25.5745 17.6457 24.9393 17.1231C24.3041 16.6005 23.8995 15.8494 23.8126 15.0315V2.81161H23.7588ZM10.0665 26.7248H74.9384V12.6671C74.9392 12.4412 74.8949 12.2175 74.8082 12.0089C74.7214 11.8004 74.594 11.6113 74.4332 11.4526C74.1026 11.1485 73.6679 10.9831 73.2188 10.9904H66.9745C66.4988 10.9545 66.0543 10.7402 65.73 10.3904C65.4056 10.0407 65.2254 9.58127 65.2254 9.10426C65.2254 8.62725 65.4056 8.16786 65.73 7.81809C66.0543 7.46832 66.4988 7.25401 66.9745 7.21808H73.1973C74.6567 7.21808 76.0563 7.79783 77.0883 8.82979C78.1202 9.86174 78.7 11.2614 78.7 12.7208V35.0003C77.4506 34.5553 76.1722 34.1963 74.8739 33.9256V30.4864H10.0665V66.8774C10.0633 67.1036 10.1064 67.328 10.1933 67.5369C10.2802 67.7458 10.409 67.9347 10.5717 68.0918C10.8942 68.4135 11.3306 68.595 11.7861 68.597H42.6099C42.96 69.8984 43.4017 71.1733 43.9319 72.4123H11.8184C10.3608 72.4123 8.96283 71.834 7.93118 70.8044C6.89953 69.7748 6.31852 68.3779 6.31567 66.9203V12.6778C6.31567 11.2184 6.89542 9.81876 7.92738 8.7868C8.95934 7.75484 10.359 7.17509 11.8184 7.17509H18.4603C18.962 7.17509 19.4431 7.37438 19.7979 7.72911C20.1526 8.08385 20.3519 8.56497 20.3519 9.06665C20.3519 9.56832 20.1526 10.0494 19.7979 10.4042C19.4431 10.7589 18.962 10.9582 18.4603 10.9582H11.8184C11.5924 10.9562 11.3683 10.9999 11.1596 11.0867C10.9508 11.1735 10.7618 11.3016 10.6039 11.4633C10.2822 11.7859 10.1007 12.2223 10.0988 12.6778V26.7355L10.0665 26.7248ZM36.011 10.9904C35.5353 10.9545 35.0908 10.7402 34.7665 10.3904C34.4421 10.0407 34.2619 9.58127 34.2619 9.10426C34.2619 8.62725 34.4421 8.16786 34.7665 7.81809C35.0908 7.46832 35.5353 7.25401 36.011 7.21808H48.7038C48.9634 7.19846 49.2243 7.23268 49.4702 7.31857C49.716 7.40447 49.9415 7.5402 50.1324 7.71727C50.3233 7.89434 50.4757 8.10892 50.5799 8.34758C50.684 8.58625 50.7378 8.84385 50.7378 9.10426C50.7378 9.36467 50.684 9.62227 50.5799 9.86094C50.4757 10.0996 50.3233 10.3142 50.1324 10.4913C49.9415 10.6683 49.716 10.8041 49.4702 10.89C49.2243 10.9758 48.9634 11.0101 48.7038 10.9904H36.011Z"/>
</mask>
<path d="M54.3462 2.81161C54.4358 1.99279 54.8426 1.24167 55.4795 0.7193C56.1164 0.196932 56.9326 -0.0550932 57.7531 0.0172641C58.5725 -0.0549511 59.3874 0.197398 60.0226 0.720004C60.6578 1.24261 61.0624 1.99369 61.1493 2.81161V15.0315C61.0624 15.8494 60.6578 16.6005 60.0226 17.1231C59.3874 17.6457 58.5725 17.8981 57.7531 17.8258C56.932 17.901 56.1143 17.65 55.4768 17.1271C54.8392 16.6042 54.4331 15.8514 54.3462 15.0315V2.81161ZM15.5908 39.568C15.3973 39.568 15.2253 38.719 15.2253 37.6764C15.2253 36.6339 15.3758 35.7956 15.5908 35.7956H24.8873C25.0808 35.7956 25.2527 36.6447 25.2527 37.6764C25.2527 38.7082 25.1023 39.568 24.8873 39.568H15.5908ZM30.4008 39.568C30.2073 39.568 30.0354 38.719 30.0354 37.6764C30.0354 36.6339 30.1858 35.7956 30.4008 35.7956H39.6974C39.8908 35.7956 40.0735 36.6447 40.0735 37.6764C40.0735 38.7082 39.9123 39.568 39.6974 39.568H30.4008ZM45.2216 39.568C45.0281 39.568 44.8562 38.719 44.8562 37.6764C44.8562 36.6339 45.0066 35.7956 45.2216 35.7956H54.5181C54.7116 35.7956 54.8836 36.6447 54.8836 37.6764C53.9528 38.2503 53.0589 38.882 52.2074 39.568H45.2216ZM15.6122 50.38C15.4188 50.38 15.2468 49.5309 15.2468 48.4884C15.2468 47.4459 15.3973 46.6076 15.6122 46.6076H24.9088C25.1023 46.6076 25.2742 47.4567 25.2742 48.4884C25.2742 49.5202 25.1238 50.38 24.9088 50.38H15.6122ZM30.4223 50.38C30.2288 50.38 30.0569 49.5309 30.0569 48.4884C30.0569 47.4459 30.2073 46.6076 30.4223 46.6076H39.7189C39.9123 46.6076 40.0843 47.4567 40.0843 48.4884C40.0843 49.5202 39.9338 50.38 39.7189 50.38H30.4223ZM15.623 61.1919C15.4295 61.1919 15.2576 60.3429 15.2576 59.3004C15.2576 58.2579 15.4188 57.4196 15.623 57.4196H24.9303C25.1238 57.4196 25.2957 58.2686 25.2957 59.3004C25.2957 60.3321 25.1345 61.1919 24.9303 61.1919H15.623ZM30.4438 61.1919C30.2503 61.1919 30.0784 60.3429 30.0784 59.3004C30.0784 58.2579 30.2288 57.4196 30.4438 57.4196H39.7404C39.9338 57.4196 40.1058 58.2686 40.1058 59.3004C40.1058 60.3321 39.9553 61.1919 39.7404 61.1919H30.4438ZM23.7588 2.81161C23.8018 2.40155 23.9251 2.00397 24.1217 1.64158C24.3183 1.27919 24.5844 0.959099 24.9048 0.699596C25.2252 0.440093 25.5936 0.246264 25.9889 0.129187C26.3842 0.0121091 26.7988 -0.0259229 27.2088 0.0172641C28.0299 -0.0579253 28.8476 0.19306 29.4851 0.71596C30.1227 1.23886 30.5288 1.99166 30.6157 2.81161V15.0315C30.5261 15.8503 30.1193 16.6014 29.4824 17.1238C28.8455 17.6462 28.0293 17.8982 27.2088 17.8258C26.3894 17.8981 25.5745 17.6457 24.9393 17.1231C24.3041 16.6005 23.8995 15.8494 23.8126 15.0315V2.81161H23.7588ZM10.0665 26.7248H74.9384V12.6671C74.9392 12.4412 74.8949 12.2175 74.8082 12.0089C74.7214 11.8004 74.594 11.6113 74.4332 11.4526C74.1026 11.1485 73.6679 10.9831 73.2188 10.9904H66.9745C66.4988 10.9545 66.0543 10.7402 65.73 10.3904C65.4056 10.0407 65.2254 9.58127 65.2254 9.10426C65.2254 8.62725 65.4056 8.16786 65.73 7.81809C66.0543 7.46832 66.4988 7.25401 66.9745 7.21808H73.1973C74.6567 7.21808 76.0563 7.79783 77.0883 8.82979C78.1202 9.86174 78.7 11.2614 78.7 12.7208V35.0003C77.4506 34.5553 76.1722 34.1963 74.8739 33.9256V30.4864H10.0665V66.8774C10.0633 67.1036 10.1064 67.328 10.1933 67.5369C10.2802 67.7458 10.409 67.9347 10.5717 68.0918C10.8942 68.4135 11.3306 68.595 11.7861 68.597H42.6099C42.96 69.8984 43.4017 71.1733 43.9319 72.4123H11.8184C10.3608 72.4123 8.96283 71.834 7.93118 70.8044C6.89953 69.7748 6.31852 68.3779 6.31567 66.9203V12.6778C6.31567 11.2184 6.89542 9.81876 7.92738 8.7868C8.95934 7.75484 10.359 7.17509 11.8184 7.17509H18.4603C18.962 7.17509 19.4431 7.37438 19.7979 7.72911C20.1526 8.08385 20.3519 8.56497 20.3519 9.06665C20.3519 9.56832 20.1526 10.0494 19.7979 10.4042C19.4431 10.7589 18.962 10.9582 18.4603 10.9582H11.8184C11.5924 10.9562 11.3683 10.9999 11.1596 11.0867C10.9508 11.1735 10.7618 11.3016 10.6039 11.4633C10.2822 11.7859 10.1007 12.2223 10.0988 12.6778V26.7355L10.0665 26.7248ZM36.011 10.9904C35.5353 10.9545 35.0908 10.7402 34.7665 10.3904C34.4421 10.0407 34.2619 9.58127 34.2619 9.10426C34.2619 8.62725 34.4421 8.16786 34.7665 7.81809C35.0908 7.46832 35.5353 7.25401 36.011 7.21808H48.7038C48.9634 7.19846 49.2243 7.23268 49.4702 7.31857C49.716 7.40447 49.9415 7.5402 50.1324 7.71727C50.3233 7.89434 50.4757 8.10892 50.5799 8.34758C50.684 8.58625 50.7378 8.84385 50.7378 9.10426C50.7378 9.36467 50.684 9.62227 50.5799 9.86094C50.4757 10.0996 50.3233 10.3142 50.1324 10.4913C49.9415 10.6683 49.716 10.8041 49.4702 10.89C49.2243 10.9758 48.9634 11.0101 48.7038 10.9904H36.011Z" fill="url(#paint0_linear_982_6276)" stroke="url(#paint1_linear_982_6276)" stroke-width="0.5" mask="url(#path-1-inside-1_982_6276)"/>
<path d="M60.0964 63.7288C60.1459 63.7009 60.1868 63.66 60.2147 63.6106L61.0637 62.2886V62.2134L60.0964 63.7288Z" fill="url(#paint2_linear_982_6276)"/>
<path d="M62.8044 63.127L61.4932 65.1153L62.8473 63.0625L62.8044 63.127ZM64.8249 65.126L63.9758 66.4372C63.9698 66.4728 63.9698 66.5091 63.9758 66.5447L64.9861 65.0078C64.9208 65.0284 64.8642 65.07 64.8249 65.126Z" fill="url(#paint3_linear_982_6276)"/>
<path d="M64.0725 64.5992L63.2234 65.9212C63.1872 65.9761 63.1548 66.0336 63.1267 66.0931L64.2015 64.3843C64.1484 64.4494 64.105 64.5218 64.0725 64.5992Z" fill="url(#paint4_linear_982_6276)"/>
<path d="M81.6986 59.4403L76.6473 51.5624C76.6085 51.4908 76.5511 51.431 76.4811 51.3894C76.411 51.3477 76.3311 51.3258 76.2496 51.326C76.1622 51.3297 76.0771 51.3556 76.0024 51.4012L73.423 53.0133C73.3698 53.0462 73.3237 53.0894 73.2873 53.1402C73.2509 53.1911 73.2249 53.2487 73.2109 53.3097C73.1969 53.3707 73.1952 53.4338 73.2057 53.4955C73.2163 53.5571 73.239 53.6161 73.2726 53.6689L73.6487 54.2493L73.0684 54.5395C72.9616 54.5831 72.842 54.5831 72.7352 54.5395L70.0161 53.7656C69.8021 53.708 69.582 53.6755 69.3605 53.6689H66.3512C65.9811 53.6668 65.6158 53.7523 65.2851 53.9186C64.9545 54.0849 64.6679 54.3271 64.4489 54.6254H63.0625L61.891 54.0451L62.1597 53.6367C62.1932 53.5839 62.2159 53.5249 62.2265 53.4632C62.2371 53.4016 62.2353 53.3384 62.2213 53.2775C62.2073 53.2165 62.1814 53.1589 62.145 53.108C62.1086 53.0571 62.0624 53.014 62.0092 52.9811L59.3976 51.369C59.3179 51.3168 59.2241 51.2905 59.1289 51.2937C59.05 51.2985 58.9735 51.3226 58.906 51.3638C58.8386 51.405 58.7822 51.4621 58.742 51.5302L53.7444 59.3866C53.6785 59.4927 53.6562 59.6203 53.6823 59.7425C53.7083 59.8647 53.7806 59.9721 53.8841 60.0422L56.528 61.5038C56.6323 61.5592 56.7534 61.5745 56.8682 61.5468C56.983 61.519 57.0838 61.4502 57.1514 61.3534L57.7747 60.3968L59.1289 61.751L58.613 62.5571C58.413 62.8778 58.346 63.2638 58.4263 63.6332C58.5066 64.0025 58.7278 64.3259 59.0429 64.5346C59.2188 64.6469 59.4167 64.7202 59.6233 64.7496C59.5983 65.0041 59.6431 65.2607 59.7529 65.4917C59.8627 65.7227 60.0334 65.9194 60.2466 66.0608C60.4028 66.1653 60.5785 66.2373 60.7632 66.2724C60.9479 66.3075 61.1377 66.305 61.3214 66.265C61.4228 66.5864 61.6314 66.8634 61.9125 67.0495C62.0884 67.1645 62.2878 67.2387 62.4961 67.2666C62.7044 67.2945 62.9163 67.2754 63.1162 67.2107C63.232 67.4714 63.4181 67.6947 63.6536 67.8556C63.9705 68.0589 64.3549 68.1288 64.7231 68.0504C65.0914 67.9719 65.4138 67.7513 65.6204 67.4364L65.7278 67.2645L68.4899 68.3392C68.842 68.4733 69.2295 68.4825 69.5875 68.3651C69.9455 68.2477 70.2524 68.0109 70.4567 67.6944L70.7684 67.2322C71.1304 67.2954 71.5028 67.2552 71.8431 67.1165C72.1833 66.9777 72.4776 66.7459 72.6922 66.4477L73.1114 65.8673C73.149 65.8204 73.1748 65.7651 73.1866 65.7061C73.5613 65.5779 73.8877 65.3378 74.1216 65.0183L74.5085 64.4916C74.774 64.4958 75.0367 64.4377 75.2756 64.322C75.5145 64.2063 75.723 64.0362 75.8842 63.8253C76.1108 63.5332 76.2338 63.174 76.2338 62.8043C76.2338 62.4346 76.1108 62.0754 75.8842 61.7833L77.722 60.4936L78.2809 61.3641C78.3504 61.4618 78.453 61.5309 78.5697 61.5586C78.6863 61.5863 78.809 61.5706 78.915 61.5146L81.5266 60.0852C81.6348 60.0223 81.7136 59.9191 81.7458 59.7982C81.778 59.6774 81.761 59.5487 81.6986 59.4403ZM56.6032 60.4291L54.8084 59.4618L59.2901 52.433L61.0849 53.5077L56.6032 60.4291ZM59.5588 63.7178C59.5041 63.6849 59.4566 63.6413 59.4193 63.5895C59.3819 63.5378 59.3554 63.479 59.3413 63.4168C59.3272 63.3545 59.3259 63.29 59.3374 63.2273C59.349 63.1645 59.3731 63.1047 59.4083 63.0515L60.2574 61.7403C60.289 61.6856 60.3317 61.6381 60.3829 61.601C60.434 61.5638 60.4923 61.5378 60.5541 61.5247C60.6159 61.5115 60.6798 61.5114 60.7416 61.5245C60.8034 61.5376 60.8618 61.5635 60.913 61.6006C61.0024 61.6518 61.0721 61.7315 61.1111 61.8269C61.15 61.9223 61.1559 62.028 61.1279 62.1272V62.2024L60.2144 63.6533C60.1865 63.7028 60.1456 63.7436 60.0962 63.7715C60.0168 63.8278 59.921 63.8562 59.8238 63.8523C59.7266 63.8484 59.6334 63.8125 59.5588 63.7501V63.7178ZM61.4933 65.0827C61.4933 65.0827 61.4933 65.0827 61.4933 65.1472C61.4621 65.1996 61.42 65.2448 61.3699 65.2796C61.3199 65.3145 61.263 65.3383 61.203 65.3495C61.143 65.3607 61.0813 65.359 61.0221 65.3445C60.9628 65.33 60.9073 65.3031 60.8592 65.2654H60.7947C60.7436 65.233 60.6998 65.1904 60.6659 65.1403C60.6319 65.0902 60.6087 65.0336 60.5976 64.9741C60.5865 64.9146 60.5878 64.8535 60.6014 64.7945C60.615 64.7355 60.6405 64.68 60.6765 64.6313L60.87 64.3304L61.9447 62.7398L62.5681 61.794C62.5998 61.7409 62.6421 61.6948 62.6923 61.6587C62.7426 61.6226 62.7997 61.5972 62.8602 61.5841C62.9206 61.571 62.9832 61.5705 63.0438 61.5825C63.1045 61.5946 63.1621 61.619 63.2129 61.6543C63.2649 61.6858 63.3097 61.7278 63.3447 61.7775C63.3797 61.8272 63.404 61.8836 63.4161 61.9431C63.4282 62.0027 63.4279 62.0641 63.4151 62.1235C63.4023 62.1829 63.3774 62.2391 63.3419 62.2884L62.8475 63.0407L61.4933 65.0827ZM63.127 66.0608C63.0942 66.1142 63.0509 66.1605 62.9997 66.1967C62.9485 66.2329 62.8905 66.2583 62.8292 66.2714C62.7678 66.2845 62.7045 66.2849 62.643 66.2727C62.5815 66.2605 62.5231 66.236 62.4714 66.2005C62.4184 66.1658 62.3729 66.1209 62.3376 66.0684C62.3023 66.0158 62.278 65.9567 62.2659 65.8946C62.2539 65.8324 62.2545 65.7685 62.2676 65.7066C62.2807 65.6447 62.3062 65.586 62.3424 65.5341L63.2237 64.18L63.6321 63.5459V63.4921C63.709 63.3923 63.8225 63.3272 63.9474 63.3111C64.0724 63.295 64.1987 63.3292 64.2984 63.4061C64.3982 63.4831 64.4633 63.5965 64.4794 63.7215C64.4955 63.8465 64.4614 63.9727 64.3844 64.0725L64.2447 64.2767L63.127 66.0608ZM65.6741 65.5986L64.8251 66.9528C64.7678 67.0571 64.6734 67.136 64.5606 67.1738C64.4478 67.2116 64.3249 67.2055 64.2164 67.1566C64.1079 67.1078 64.0218 67.0199 63.9752 66.9104C63.9287 66.8009 63.9251 66.6779 63.9653 66.5659C63.9592 66.5303 63.9592 66.494 63.9653 66.4584L64.8251 65.1257C64.853 65.0763 64.8938 65.0354 64.9433 65.0075C65.0195 64.9465 65.1143 64.9132 65.212 64.9132C65.3096 64.9132 65.4044 64.9465 65.4807 65.0075C65.5353 65.0347 65.5838 65.0727 65.6233 65.1191C65.6629 65.1656 65.6926 65.2196 65.7106 65.2778C65.7287 65.3361 65.7348 65.3974 65.7285 65.4581C65.7222 65.5188 65.7037 65.5775 65.6741 65.6309V65.5986ZM75.1426 63.2127C75.0339 63.3528 74.8772 63.4479 74.7026 63.4796C74.5281 63.5113 74.348 63.4775 74.1969 63.3846L70.36 61.0847C70.25 61.0217 70.1197 61.0044 69.9971 61.0366C69.8744 61.0688 69.7694 61.1478 69.7044 61.2566C69.6716 61.3093 69.6497 61.368 69.64 61.4292C69.6304 61.4905 69.6332 61.5531 69.6482 61.6133C69.6633 61.6734 69.6903 61.73 69.7276 61.7795C69.765 61.829 69.8119 61.8705 69.8656 61.9015L73.5735 64.137L73.3693 64.4271C73.2284 64.6244 73.0172 64.76 72.7792 64.806C72.5412 64.852 72.2946 64.8049 72.0904 64.6743L69.4035 62.9977C69.3238 62.9456 69.23 62.9193 69.1348 62.9225C69.0103 62.928 68.8927 62.9814 68.8066 63.0715C68.7205 63.1616 68.6725 63.2815 68.6727 63.4061C68.678 63.4851 68.701 63.5619 68.7401 63.6307C68.7792 63.6996 68.8333 63.7587 68.8984 63.8038L71.5852 65.4804C71.7293 65.5763 71.8895 65.6455 72.0581 65.6846L71.9399 65.8458C71.7961 66.0511 71.5804 66.1949 71.3355 66.2487C71.0907 66.3024 70.8345 66.2622 70.6179 66.136L68.4685 64.8893C68.3833 64.8418 68.2864 64.8195 68.189 64.8248C68.0626 64.8331 67.9445 64.8907 67.8601 64.9851C67.7757 65.0796 67.7317 65.2034 67.7376 65.3299C67.7445 65.411 67.7705 65.4893 67.8135 65.5584C67.8565 65.6275 67.9152 65.6855 67.9848 65.7276L69.9086 66.8023L69.7044 67.1248C69.6172 67.2566 69.4879 67.3549 69.3376 67.4037C69.1873 67.4525 69.0249 67.4489 68.8769 67.3935L66.2975 66.4047L66.5124 66.0608C66.6145 65.9042 66.6846 65.7291 66.7188 65.5454C66.7529 65.3617 66.7505 65.173 66.7115 64.9903C66.6726 64.8075 66.5979 64.6343 66.4918 64.4804C66.3857 64.3266 66.2503 64.1953 66.0933 64.094C65.9078 63.9691 65.6929 63.895 65.4699 63.879C65.4775 63.632 65.4223 63.3871 65.3095 63.1672C65.1968 62.9473 65.0301 62.7596 64.8251 62.6216C64.6764 62.5217 64.5076 62.4557 64.3307 62.4281C64.4102 62.1403 64.397 61.8348 64.2928 61.555C64.1886 61.2752 63.9987 61.0354 63.7503 60.8697H63.6966C63.5404 60.7651 63.3647 60.6932 63.18 60.6581C62.9953 60.623 62.8055 60.6255 62.6218 60.6655C62.2917 60.7289 61.999 60.9176 61.805 61.1922C61.7047 61.0596 61.5808 60.9467 61.4396 60.859C61.1755 60.6824 60.8591 60.601 60.5426 60.6284C60.2261 60.6558 59.9284 60.7902 59.6985 61.0094L58.3121 59.623L61.3751 54.9156L62.826 55.6357H63.7503L62.0737 57.9572C62.005 58.0624 61.979 58.1899 62.0009 58.3137C62.0229 58.4375 62.0912 58.5483 62.1919 58.6235C62.2729 58.6824 62.3713 58.7126 62.4714 58.7095H64.8251C65.0593 58.7105 65.2901 58.653 65.4965 58.5423C65.703 58.4316 65.8785 58.2711 66.0073 58.0754L66.3942 57.5058C66.436 57.4376 66.4944 57.3811 66.5639 57.3417C66.6335 57.3022 66.7119 57.281 66.7918 57.2801H67.4259C67.5186 57.2822 67.6085 57.3122 67.6839 57.366L74.9707 62.2239C75.0516 62.2776 75.1205 62.3473 75.1734 62.4287C75.2262 62.5101 75.2618 62.6014 75.278 62.6971C75.2941 62.7929 75.2904 62.8908 75.2671 62.9851C75.2438 63.0793 75.2015 63.1677 75.1426 63.2449V63.2127ZM75.1426 61.1169L68.2643 56.5492C68.0332 56.3906 67.76 56.3045 67.4797 56.302H66.8348C66.6011 56.3039 66.3713 56.3626 66.1654 56.473C65.9594 56.5835 65.7834 56.7425 65.6526 56.9361L65.2657 57.5165C65.2251 57.5826 65.1682 57.637 65.1004 57.6747C65.0326 57.7123 64.9563 57.7319 64.8788 57.7315H63.3956L65.1475 55.2918C65.2786 55.0959 65.4562 54.9355 65.6643 54.8249C65.8725 54.7143 66.1047 54.6568 66.3404 54.6577H69.339C69.4671 54.6368 69.5978 54.6368 69.7259 54.6577L72.445 55.4422C72.8027 55.5461 73.1864 55.5116 73.5198 55.3455L74.1539 55.0231L77.1739 59.6445L75.1426 61.1169ZM78.7968 60.4291L74.3043 53.5399L76.1099 52.4652L80.5809 59.4941L78.7968 60.4291Z" fill="url(#paint5_linear_982_6276)"/>
<path d="M60.8486 64.3309C60.9082 64.2676 60.9621 64.1993 61.0098 64.1267L61.8589 62.8047C61.8637 62.7946 61.8662 62.7836 61.8662 62.7725C61.8662 62.7613 61.8637 62.7503 61.8589 62.7402L60.8486 64.3309Z" fill="url(#paint6_linear_982_6276)"/>
<path d="M60.0964 63.7288C60.1459 63.7009 60.1868 63.66 60.2147 63.6106L61.0637 62.2886V62.2134L60.0964 63.7288Z" stroke="url(#paint7_linear_982_6276)" stroke-width="0.13" stroke-miterlimit="10"/>
<path d="M62.8044 63.127L61.4932 65.1153L62.8473 63.0625L62.8044 63.127ZM64.8249 65.126L63.9758 66.4372C63.9698 66.4728 63.9698 66.5091 63.9758 66.5447L64.9861 65.0078C64.9208 65.0284 64.8642 65.07 64.8249 65.126Z" stroke="url(#paint8_linear_982_6276)" stroke-width="0.13" stroke-miterlimit="10"/>
<path d="M64.0725 64.5992L63.2234 65.9212C63.1872 65.9761 63.1548 66.0336 63.1267 66.0931L64.2015 64.3843C64.1484 64.4494 64.105 64.5218 64.0725 64.5992Z" stroke="url(#paint9_linear_982_6276)" stroke-width="0.13" stroke-miterlimit="10"/>
<path d="M81.6986 59.4403L76.6473 51.5624C76.6085 51.4908 76.5511 51.431 76.4811 51.3894C76.411 51.3477 76.3311 51.3258 76.2496 51.326C76.1622 51.3297 76.0771 51.3556 76.0024 51.4012L73.423 53.0133C73.3698 53.0462 73.3237 53.0894 73.2873 53.1402C73.2509 53.1911 73.2249 53.2487 73.2109 53.3097C73.1969 53.3707 73.1952 53.4338 73.2057 53.4955C73.2163 53.5571 73.2391 53.6161 73.2726 53.6689L73.6487 54.2493L73.0684 54.5395C72.9616 54.5831 72.842 54.5831 72.7352 54.5395L70.0161 53.7656C69.8021 53.708 69.582 53.6755 69.3605 53.6689H66.3512C65.9811 53.6668 65.6158 53.7523 65.2851 53.9186C64.9545 54.0849 64.6679 54.3271 64.4489 54.6254H63.0625L61.891 54.0451L62.1597 53.6367C62.1932 53.5839 62.2159 53.5249 62.2265 53.4632C62.2371 53.4016 62.2353 53.3384 62.2213 53.2775C62.2073 53.2165 62.1814 53.1589 62.145 53.108C62.1086 53.0571 62.0624 53.014 62.0092 52.9811L59.3976 51.369C59.3179 51.3168 59.2241 51.2905 59.1289 51.2937C59.05 51.2985 58.9735 51.3226 58.906 51.3638C58.8386 51.405 58.7822 51.4621 58.742 51.5302L53.7444 59.3866C53.6785 59.4927 53.6562 59.6203 53.6823 59.7425C53.7083 59.8647 53.7806 59.9721 53.8841 60.0422L56.528 61.5038C56.6323 61.5592 56.7534 61.5745 56.8682 61.5468C56.983 61.519 57.0838 61.4502 57.1514 61.3534L57.7747 60.3968L59.1289 61.751L58.613 62.5571C58.413 62.8778 58.346 63.2638 58.4263 63.6332C58.5066 64.0025 58.7278 64.3259 59.0429 64.5346C59.2188 64.6469 59.4167 64.7202 59.6233 64.7496C59.5983 65.0041 59.6431 65.2607 59.7529 65.4917C59.8627 65.7227 60.0334 65.9194 60.2466 66.0608C60.4028 66.1653 60.5785 66.2373 60.7632 66.2724C60.9479 66.3075 61.1377 66.305 61.3214 66.265C61.4228 66.5864 61.6314 66.8634 61.9125 67.0495C62.0884 67.1645 62.2878 67.2387 62.4961 67.2666C62.7044 67.2945 62.9163 67.2754 63.1162 67.2107C63.232 67.4714 63.4181 67.6947 63.6536 67.8556C63.9705 68.0589 64.3549 68.1288 64.7231 68.0504C65.0914 67.9719 65.4138 67.7513 65.6204 67.4364L65.7278 67.2645L68.4899 68.3392C68.842 68.4733 69.2295 68.4825 69.5875 68.3651C69.9455 68.2477 70.2524 68.0109 70.4567 67.6944L70.7684 67.2322C71.1304 67.2954 71.5028 67.2552 71.8431 67.1165C72.1833 66.9777 72.4776 66.7459 72.6922 66.4477L73.1114 65.8673C73.149 65.8204 73.1748 65.7651 73.1866 65.7061C73.5613 65.5779 73.8877 65.3378 74.1216 65.0183L74.5085 64.4916C74.774 64.4958 75.0367 64.4377 75.2756 64.322C75.5145 64.2063 75.723 64.0362 75.8842 63.8253C76.1108 63.5332 76.2338 63.174 76.2338 62.8043C76.2338 62.4346 76.1108 62.0754 75.8842 61.7833L77.722 60.4936L78.2809 61.3641C78.3504 61.4618 78.453 61.5309 78.5697 61.5586C78.6863 61.5863 78.809 61.5706 78.915 61.5146L81.5266 60.0852C81.6348 60.0223 81.7136 59.9191 81.7458 59.7982C81.778 59.6774 81.761 59.5487 81.6986 59.4403ZM56.6032 60.4291L54.8084 59.4618L59.2901 52.433L61.0849 53.5077L56.6032 60.4291ZM59.5588 63.7178C59.5041 63.6849 59.4566 63.6413 59.4193 63.5895C59.3819 63.5378 59.3554 63.479 59.3413 63.4168C59.3272 63.3545 59.3259 63.29 59.3374 63.2273C59.349 63.1645 59.3731 63.1047 59.4083 63.0515L60.2574 61.7403C60.289 61.6856 60.3317 61.6381 60.3829 61.601C60.434 61.5638 60.4923 61.5378 60.5541 61.5247C60.6159 61.5115 60.6798 61.5114 60.7416 61.5245C60.8034 61.5376 60.8618 61.5635 60.913 61.6006C61.0024 61.6518 61.0721 61.7315 61.1111 61.8269C61.15 61.9223 61.1559 62.028 61.1279 62.1272V62.2024L60.2144 63.6533C60.1865 63.7028 60.1456 63.7436 60.0962 63.7715C60.0168 63.8278 59.921 63.8562 59.8238 63.8523C59.7266 63.8484 59.6334 63.8125 59.5588 63.7501V63.7178ZM61.4933 65.0827C61.4933 65.0827 61.4933 65.0827 61.4933 65.1472C61.4621 65.1996 61.42 65.2448 61.3699 65.2796C61.3199 65.3145 61.263 65.3383 61.203 65.3495C61.143 65.3607 61.0813 65.359 61.0221 65.3445C60.9628 65.33 60.9073 65.3031 60.8592 65.2654H60.7947C60.7436 65.233 60.6998 65.1904 60.6659 65.1403C60.6319 65.0902 60.6087 65.0336 60.5976 64.9741C60.5865 64.9146 60.5878 64.8535 60.6014 64.7945C60.615 64.7356 60.6405 64.68 60.6765 64.6313L60.87 64.3304L61.9447 62.7398L62.5681 61.794C62.5998 61.7409 62.6421 61.6948 62.6923 61.6587C62.7426 61.6226 62.7997 61.5972 62.8602 61.5841C62.9206 61.571 62.9832 61.5705 63.0438 61.5825C63.1045 61.5946 63.1621 61.619 63.2129 61.6543C63.2649 61.6858 63.3097 61.7278 63.3447 61.7775C63.3797 61.8272 63.404 61.8836 63.4161 61.9431C63.4282 62.0027 63.4279 62.0641 63.4151 62.1235C63.4023 62.1829 63.3774 62.2391 63.3419 62.2884L62.8475 63.0407L61.4933 65.0827ZM63.1269 66.0608C63.0942 66.1142 63.0509 66.1605 62.9997 66.1967C62.9485 66.2329 62.8905 66.2583 62.8292 66.2714C62.7678 66.2845 62.7045 66.2849 62.643 66.2727C62.5815 66.2605 62.5231 66.236 62.4714 66.2005C62.4184 66.1658 62.3729 66.1209 62.3376 66.0684C62.3023 66.0158 62.278 65.9567 62.2659 65.8946C62.2539 65.8324 62.2545 65.7685 62.2676 65.7066C62.2807 65.6447 62.3062 65.586 62.3424 65.5341L63.2237 64.18L63.6321 63.5459V63.4921C63.709 63.3923 63.8225 63.3272 63.9474 63.3111C64.0724 63.295 64.1987 63.3292 64.2984 63.4061C64.3982 63.4831 64.4633 63.5965 64.4794 63.7215C64.4955 63.8465 64.4614 63.9727 64.3844 64.0725L64.2447 64.2767L63.1269 66.0608ZM65.6741 65.5986L64.8251 66.9528C64.7678 67.0571 64.6734 67.136 64.5606 67.1738C64.4478 67.2116 64.3249 67.2055 64.2164 67.1566C64.1079 67.1078 64.0218 67.0199 63.9752 66.9104C63.9287 66.8009 63.9251 66.6779 63.9653 66.5659C63.9592 66.5303 63.9592 66.494 63.9653 66.4584L64.8251 65.1257C64.853 65.0763 64.8938 65.0354 64.9433 65.0075C65.0195 64.9465 65.1143 64.9132 65.212 64.9132C65.3096 64.9132 65.4044 64.9465 65.4807 65.0075C65.5353 65.0347 65.5838 65.0727 65.6233 65.1191C65.6629 65.1656 65.6926 65.2196 65.7106 65.2778C65.7287 65.3361 65.7348 65.3974 65.7285 65.4581C65.7222 65.5188 65.7037 65.5775 65.6741 65.6309V65.5986ZM75.1426 63.2127C75.0339 63.3528 74.8772 63.4478 74.7026 63.4796C74.5281 63.5113 74.348 63.4775 74.1969 63.3846L70.36 61.0847C70.25 61.0217 70.1197 61.0044 69.9971 61.0366C69.8744 61.0688 69.7694 61.1478 69.7044 61.2566C69.6716 61.3093 69.6497 61.368 69.64 61.4292C69.6304 61.4905 69.6332 61.5531 69.6482 61.6133C69.6633 61.6734 69.6903 61.73 69.7276 61.7795C69.765 61.829 69.8119 61.8705 69.8656 61.9015L73.5735 64.137L73.3693 64.4271C73.2284 64.6244 73.0172 64.76 72.7792 64.806C72.5412 64.852 72.2946 64.8049 72.0904 64.6743L69.4035 62.9977C69.3238 62.9456 69.23 62.9193 69.1348 62.9225C69.0103 62.928 68.8927 62.9814 68.8066 63.0715C68.7205 63.1616 68.6725 63.2815 68.6727 63.4061C68.678 63.4851 68.701 63.5619 68.7401 63.6307C68.7792 63.6996 68.8333 63.7587 68.8984 63.8038L71.5852 65.4804C71.7293 65.5763 71.8895 65.6455 72.0581 65.6846L71.9399 65.8458C71.7961 66.0511 71.5804 66.1949 71.3355 66.2487C71.0907 66.3024 70.8345 66.2622 70.6179 66.136L68.4685 64.8893C68.3833 64.8418 68.2864 64.8195 68.189 64.8248C68.0626 64.8331 67.9445 64.8907 67.8601 64.9851C67.7757 65.0796 67.7317 65.2034 67.7376 65.3299C67.7445 65.411 67.7705 65.4893 67.8135 65.5584C67.8565 65.6275 67.9152 65.6855 67.9848 65.7276L69.9086 66.8023L69.7044 67.1248C69.6172 67.2566 69.4879 67.3549 69.3376 67.4037C69.1873 67.4525 69.0249 67.4489 68.8769 67.3935L66.2975 66.4047L66.5124 66.0608C66.6145 65.9042 66.6846 65.7291 66.7188 65.5454C66.7529 65.3617 66.7505 65.173 66.7115 64.9903C66.6726 64.8075 66.5979 64.6343 66.4918 64.4804C66.3857 64.3266 66.2503 64.1953 66.0933 64.094C65.9078 63.9691 65.6929 63.895 65.4699 63.879C65.4775 63.632 65.4223 63.3871 65.3095 63.1672C65.1968 62.9473 65.0301 62.7596 64.8251 62.6216C64.6764 62.5217 64.5076 62.4557 64.3307 62.4281C64.4102 62.1403 64.397 61.8348 64.2928 61.555C64.1886 61.2752 63.9987 61.0354 63.7503 60.8697H63.6966C63.5404 60.7651 63.3647 60.6932 63.18 60.6581C62.9953 60.623 62.8055 60.6255 62.6218 60.6655C62.2917 60.7289 61.999 60.9176 61.805 61.1922C61.7047 61.0596 61.5808 60.9467 61.4396 60.859C61.1755 60.6824 60.8591 60.601 60.5426 60.6284C60.2261 60.6558 59.9284 60.7902 59.6985 61.0094L58.3121 59.623L61.3751 54.9156L62.826 55.6357H63.7503L62.0737 57.9572C62.005 58.0624 61.979 58.1899 62.0009 58.3137C62.0229 58.4375 62.0912 58.5483 62.1919 58.6235C62.2729 58.6824 62.3713 58.7126 62.4714 58.7095H64.8251C65.0593 58.7105 65.2901 58.653 65.4965 58.5423C65.703 58.4316 65.8785 58.2711 66.0073 58.0754L66.3942 57.5058C66.436 57.4376 66.4944 57.3811 66.5639 57.3417C66.6335 57.3022 66.7119 57.281 66.7918 57.2801H67.4259C67.5186 57.2822 67.6085 57.3122 67.6839 57.366L74.9707 62.2239C75.0516 62.2776 75.1205 62.3473 75.1734 62.4287C75.2263 62.5101 75.2618 62.6014 75.278 62.6971C75.2941 62.7929 75.2904 62.8908 75.2671 62.9851C75.2438 63.0793 75.2015 63.1677 75.1426 63.2449V63.2127ZM75.1426 61.1169L68.2643 56.5492C68.0332 56.3906 67.76 56.3045 67.4797 56.302H66.8348C66.6011 56.3039 66.3713 56.3626 66.1654 56.473C65.9594 56.5835 65.7834 56.7425 65.6526 56.9361L65.2657 57.5165C65.2251 57.5826 65.1682 57.637 65.1004 57.6747C65.0326 57.7123 64.9563 57.7319 64.8788 57.7315H63.3956L65.1475 55.2918C65.2786 55.0959 65.4562 54.9355 65.6643 54.8249C65.8725 54.7143 66.1047 54.6568 66.3404 54.6577H69.339C69.4671 54.6368 69.5978 54.6368 69.7259 54.6577L72.445 55.4422C72.8027 55.5461 73.1864 55.5116 73.5198 55.3455L74.1539 55.0231L77.1739 59.6445L75.1426 61.1169ZM78.7968 60.4291L74.3043 53.5399L76.1099 52.4652L80.5809 59.4941L78.7968 60.4291Z" stroke="url(#paint10_linear_982_6276)" stroke-width="0.13" stroke-miterlimit="10"/>
<path d="M60.8486 64.3309C60.9082 64.2676 60.9621 64.1993 61.0098 64.1267L61.8589 62.8047C61.8637 62.7946 61.8662 62.7836 61.8662 62.7725C61.8662 62.7613 61.8637 62.7503 61.8589 62.7402L60.8486 64.3309Z" stroke="url(#paint11_linear_982_6276)" stroke-width="0.13" stroke-miterlimit="10"/>
<path d="M67.7053 79.9999C63.505 79.9999 59.399 78.7544 55.9066 76.4209C52.4142 74.0873 49.6922 70.7705 48.0848 66.89C46.4775 63.0094 46.0569 58.7394 46.8763 54.6198C47.6958 50.5002 49.7184 46.7161 52.6885 43.7461C55.6585 40.776 59.4426 38.7534 63.5622 37.934C67.6817 37.1145 71.9518 37.5351 75.8324 39.1425C79.7129 40.7498 83.0297 43.4718 85.3632 46.9643C87.6968 50.4567 88.9423 54.5626 88.9423 58.7629C88.9366 64.3936 86.6973 69.792 82.7159 73.7735C78.7344 77.755 73.336 79.9943 67.7053 79.9999ZM67.7053 39.9226C63.9764 39.9226 60.3314 41.0284 57.2311 43.1003C54.1308 45.1722 51.7146 48.1169 50.2881 51.5622C48.8617 55.0074 48.489 58.7982 49.2172 62.4553C49.9455 66.1123 51.7419 69.4713 54.3794 72.1072C57.0168 74.7431 60.3768 76.5377 64.0342 77.2638C67.6917 77.99 71.4824 77.6152 74.9268 76.1867C78.3711 74.7583 81.3145 72.3404 83.3846 69.2389C85.4547 66.1375 86.5585 62.4918 86.5564 58.7629C86.5535 53.7652 84.5662 48.9731 81.0312 45.4401C77.4963 41.9072 72.7031 39.9226 67.7053 39.9226Z" fill="url(#paint12_linear_982_6276)"/>
<path d="M7.06652 9.46388C7.06652 12.9539 6.73436 15.7893 6.32518 15.7893C5.916 15.7893 5.57422 12.9539 5.57422 9.46388C5.57422 5.97382 5.92082 3.15771 6.32518 3.15771C6.72955 3.15771 7.06652 5.96901 7.06652 9.46388Z" fill="url(#paint13_radial_982_6276)"/>
<path d="M6.32543 10.1949C2.83538 10.1949 1.23471e-05 9.86278 1.23649e-05 9.4536C1.23828e-05 9.04442 2.83538 8.70264 6.32543 8.70264C9.81548 8.70264 12.6316 9.04924 12.6316 9.4536C12.6316 9.85796 9.8203 10.1949 6.32543 10.1949Z" fill="url(#paint14_radial_982_6276)"/>
<path d="M79.6981 34.7271C79.6981 38.2171 79.366 41.0525 78.9568 41.0525C78.5476 41.0525 78.2058 38.2171 78.2058 34.7271C78.2058 31.237 78.5524 28.4209 78.9568 28.4209C79.3611 28.4209 79.6981 31.2322 79.6981 34.7271Z" fill="url(#paint15_radial_982_6276)"/>
<path d="M78.957 35.4581C75.467 35.4581 72.6316 35.126 72.6316 34.7168C72.6316 34.3076 75.467 33.9658 78.957 33.9658C82.4471 33.9658 85.2632 34.3124 85.2632 34.7168C85.2632 35.1211 82.4519 35.4581 78.957 35.4581Z" fill="url(#paint16_radial_982_6276)"/>
<defs>
<linearGradient id="paint0_linear_982_6276" x1="57.0008" y1="64.8998" x2="17" y2="5" gradientUnits="userSpaceOnUse">
<stop stop-color="white" stop-opacity="0.9"/>
<stop offset="0.04" stop-color="white" stop-opacity="0.85"/>
<stop offset="0.28" stop-color="white" stop-opacity="0.5"/>
<stop offset="0.65" stop-color="#FAFBFC" stop-opacity="0.4"/>
<stop offset="1" stop-color="#F0EFEF" stop-opacity="0.3"/>
</linearGradient>
<linearGradient id="paint1_linear_982_6276" x1="38" y1="18.5" x2="64" y2="73.5" gradientUnits="userSpaceOnUse">
<stop stop-color="#F0EFEF" stop-opacity="0"/>
<stop offset="0.35" stop-color="#FAFBFC" stop-opacity="0.4"/>
<stop offset="0.72" stop-color="white" stop-opacity="0.5"/>
<stop offset="1" stop-color="white" stop-opacity="0.9"/>
</linearGradient>
<linearGradient id="paint2_linear_982_6276" x1="60.6016" y1="63.7288" x2="60.6016" y2="62.2134" gradientUnits="userSpaceOnUse">
<stop stop-color="#79A540"/>
<stop offset="0.2" stop-color="#94C63D"/>
<stop offset="0.39" stop-color="#98CA3C"/>
<stop offset="0.59" stop-color="#93C53E"/>
<stop offset="0.74" stop-color="#9DCB3B"/>
<stop offset="0.9" stop-color="#A6CE39"/>
<stop offset="1" stop-color="#A6CE39"/>
</linearGradient>
<linearGradient id="paint3_linear_982_6276" x1="63.245" y1="66.5447" x2="63.245" y2="63.0625" gradientUnits="userSpaceOnUse">
<stop stop-color="#79A540"/>
<stop offset="0.2" stop-color="#94C63D"/>
<stop offset="0.39" stop-color="#98CA3C"/>
<stop offset="0.59" stop-color="#93C53E"/>
<stop offset="0.74" stop-color="#9DCB3B"/>
<stop offset="0.9" stop-color="#A6CE39"/>
<stop offset="1" stop-color="#A6CE39"/>
</linearGradient>
<linearGradient id="paint4_linear_982_6276" x1="63.6856" y1="66.0931" x2="63.6856" y2="64.3843" gradientUnits="userSpaceOnUse">
<stop stop-color="#79A540"/>
<stop offset="0.2" stop-color="#94C63D"/>
<stop offset="0.39" stop-color="#98CA3C"/>
<stop offset="0.59" stop-color="#93C53E"/>
<stop offset="0.74" stop-color="#9DCB3B"/>
<stop offset="0.9" stop-color="#A6CE39"/>
<stop offset="1" stop-color="#A6CE39"/>
</linearGradient>
<linearGradient id="paint5_linear_982_6276" x1="67.7054" y1="68.4789" x2="67.7054" y2="51.326" gradientUnits="userSpaceOnUse">
<stop stop-color="#79A540"/>
<stop offset="0.2" stop-color="#94C63D"/>
<stop offset="0.39" stop-color="#98CA3C"/>
<stop offset="0.59" stop-color="#93C53E"/>
<stop offset="0.74" stop-color="#9DCB3B"/>
<stop offset="0.9" stop-color="#A6CE39"/>
<stop offset="1" stop-color="#A6CE39"/>
</linearGradient>
<linearGradient id="paint6_linear_982_6276" x1="61.3645" y1="64.3309" x2="61.3645" y2="62.7402" gradientUnits="userSpaceOnUse">
<stop stop-color="#79A540"/>
<stop offset="0.2" stop-color="#94C63D"/>
<stop offset="0.39" stop-color="#98CA3C"/>
<stop offset="0.59" stop-color="#93C53E"/>
<stop offset="0.74" stop-color="#9DCB3B"/>
<stop offset="0.9" stop-color="#A6CE39"/>
<stop offset="1" stop-color="#A6CE39"/>
</linearGradient>
<linearGradient id="paint7_linear_982_6276" x1="61.3217" y1="61.7082" x2="59.989" y2="64.019" gradientUnits="userSpaceOnUse">
<stop stop-color="white" stop-opacity="0.9"/>
<stop offset="0.28" stop-color="white" stop-opacity="0.5"/>
<stop offset="0.65" stop-color="#FAFBFC" stop-opacity="0.4"/>
<stop offset="1" stop-color="#F0EFEF" stop-opacity="0.3"/>
</linearGradient>
<linearGradient id="paint8_linear_982_6276" x1="64.3627" y1="63.1377" x2="62.5787" y2="66.2223" gradientUnits="userSpaceOnUse">
<stop stop-color="white" stop-opacity="0.9"/>
<stop offset="0.28" stop-color="white" stop-opacity="0.5"/>
<stop offset="0.65" stop-color="#FAFBFC" stop-opacity="0.4"/>
<stop offset="1" stop-color="#F0EFEF" stop-opacity="0.3"/>
</linearGradient>
<linearGradient id="paint9_linear_982_6276" x1="64.5561" y1="63.7609" x2="63.1912" y2="66.1361" gradientUnits="userSpaceOnUse">
<stop stop-color="white" stop-opacity="0.9"/>
<stop offset="0.28" stop-color="white" stop-opacity="0.5"/>
<stop offset="0.65" stop-color="#FAFBFC" stop-opacity="0.4"/>
<stop offset="1" stop-color="#F0EFEF" stop-opacity="0.3"/>
</linearGradient>
<linearGradient id="paint10_linear_982_6276" x1="73.5305" y1="49.5849" x2="63.0087" y2="67.8126" gradientUnits="userSpaceOnUse">
<stop stop-color="white" stop-opacity="0.9"/>
<stop offset="0.28" stop-color="white" stop-opacity="0.5"/>
<stop offset="0.65" stop-color="#FAFBFC" stop-opacity="0.4"/>
<stop offset="1" stop-color="#F0EFEF" stop-opacity="0.3"/>
</linearGradient>
<linearGradient id="paint11_linear_982_6276" x1="61.9664" y1="62.5038" x2="60.8916" y2="64.3739" gradientUnits="userSpaceOnUse">
<stop stop-color="white" stop-opacity="0.9"/>
<stop offset="0.28" stop-color="white" stop-opacity="0.5"/>
<stop offset="0.65" stop-color="#FAFBFC" stop-opacity="0.4"/>
<stop offset="1" stop-color="#F0EFEF" stop-opacity="0.3"/>
</linearGradient>
<linearGradient id="paint12_linear_982_6276" x1="46.479" y1="58.7629" x2="88.9423" y2="58.7629" gradientUnits="userSpaceOnUse">
<stop stop-color="#79A540"/>
<stop offset="0.2" stop-color="#94C63D"/>
<stop offset="0.39" stop-color="#98CA3C"/>
<stop offset="0.59" stop-color="#93C53E"/>
<stop offset="0.74" stop-color="#9DCB3B"/>
<stop offset="0.9" stop-color="#A6CE39"/>
<stop offset="1" stop-color="#A6CE39"/>
</linearGradient>
<radialGradient id="paint13_radial_982_6276" cx="0" cy="0" r="1" gradientUnits="userSpaceOnUse" gradientTransform="translate(6.20657 9.92524) scale(0.738254 6.32985)">
<stop stop-color="white"/>
<stop offset="0.07" stop-color="white" stop-opacity="0.93"/>
<stop offset="1" stop-color="white" stop-opacity="0"/>
</radialGradient>
<radialGradient id="paint14_radial_982_6276" cx="0" cy="0" r="1" gradientUnits="userSpaceOnUse" gradientTransform="translate(5.86407 9.33499) rotate(90) scale(0.738254 6.32985)">
<stop stop-color="white"/>
<stop offset="0.07" stop-color="white" stop-opacity="0.93"/>
<stop offset="1" stop-color="white" stop-opacity="0"/>
</radialGradient>
<radialGradient id="paint15_radial_982_6276" cx="0" cy="0" r="1" gradientUnits="userSpaceOnUse" gradientTransform="translate(78.8382 35.1884) scale(0.738254 6.32985)">
<stop stop-color="white"/>
<stop offset="0.07" stop-color="white" stop-opacity="0.93"/>
<stop offset="1" stop-color="white" stop-opacity="0"/>
</radialGradient>
<radialGradient id="paint16_radial_982_6276" cx="0" cy="0" r="1" gradientUnits="userSpaceOnUse" gradientTransform="translate(78.4957 34.5982) rotate(90) scale(0.738254 6.32985)">
<stop stop-color="white"/>
<stop offset="0.07" stop-color="white" stop-opacity="0.93"/>
<stop offset="1" stop-color="white" stop-opacity="0"/>
</radialGradient>
</defs>
</svg>
