<svg width="47" height="80" viewBox="0 0 47 80" fill="none" xmlns="http://www.w3.org/2000/svg">
<g opacity="0.8">
<path d="M2.74508 22.9902C2.68368 23.0451 2.61202 23.0871 2.53427 23.114C2.45651 23.1409 2.3742 23.1521 2.2921 23.1468C2.21 23.1416 2.12975 23.1202 2.05601 23.0837C1.98226 23.0472 1.91648 22.9964 1.86249 22.9342C1.75384 22.8104 1.69871 22.6484 1.7092 22.4839C1.71969 22.3194 1.79494 22.1657 1.91843 22.0567C2.64856 21.4035 3.17692 20.5548 3.4412 19.6108C3.76507 18.3553 3.83481 17.0476 3.64631 15.7647C3.32041 14.2687 3.25106 12.7282 3.4412 11.209C3.61531 9.84537 4.10016 8.54007 4.85831 7.39395C4.90395 7.32603 4.96252 7.2678 5.03067 7.22258C5.09882 7.17737 5.17521 7.14606 5.25546 7.13045C5.33571 7.11484 5.41825 7.11524 5.49835 7.13162C5.57845 7.148 5.65453 7.18004 5.72225 7.22591C5.79094 7.27163 5.84985 7.33059 5.89556 7.39934C5.94127 7.46809 5.97285 7.54526 5.98847 7.62635C6.00409 7.70745 6.00343 7.79085 5.98654 7.87169C5.96964 7.95253 5.93685 8.02919 5.89006 8.09721C5.22725 9.08144 4.80172 10.2063 4.64699 11.3833C4.47517 12.7593 4.53822 14.1546 4.83345 15.5095C4.83998 15.5424 4.83998 15.5762 4.83345 15.6091C5.04982 17.0629 4.9652 18.5458 4.58483 19.9656C4.26535 21.1335 3.61826 22.1854 2.72022 22.9965L2.74508 22.9902ZM5.6228 22.7288C5.66596 22.6593 5.72242 22.5989 5.78892 22.5512C5.85543 22.5035 5.93069 22.4695 6.01037 22.451C6.09006 22.4325 6.17261 22.4299 6.25329 22.4434C6.33397 22.4569 6.41119 22.4862 6.48053 22.5297C6.55086 22.5729 6.61189 22.6297 6.66006 22.6968C6.70823 22.7639 6.74257 22.8399 6.76109 22.9205C6.7796 23.001 6.78191 23.0844 6.76789 23.1658C6.75387 23.2473 6.72379 23.3251 6.67942 23.3948L5.51092 25.2618C5.46766 25.3313 5.41116 25.3916 5.34465 25.4392C5.27813 25.4868 5.2029 25.5208 5.12325 25.5393C5.04361 25.5578 4.9611 25.5604 4.88045 25.547C4.7998 25.5335 4.72258 25.5043 4.6532 25.461C4.58382 25.4177 4.52364 25.3611 4.4761 25.2945C4.42856 25.2279 4.39458 25.1526 4.37611 25.0728C4.35765 24.9931 4.35504 24.9104 4.36846 24.8297C4.38188 24.7489 4.41105 24.6716 4.45431 24.6021L5.6228 22.7288ZM11.5709 23.3512C11.5885 23.2695 11.6219 23.192 11.6694 23.1232C11.7168 23.0544 11.7773 22.9957 11.8475 22.9503C11.9176 22.905 11.996 22.8739 12.0781 22.8588C12.1602 22.8438 12.2445 22.8451 12.3261 22.8626C12.4077 22.8802 12.4851 22.9137 12.5538 22.9612C12.6225 23.0087 12.6811 23.0693 12.7265 23.1395C12.7718 23.2098 12.8028 23.2882 12.8178 23.3705C12.8329 23.4527 12.8316 23.5371 12.814 23.6188L12.3043 25.8966C12.2687 26.0574 12.1708 26.1975 12.0321 26.2862C11.8935 26.3748 11.7254 26.4049 11.5647 26.3696C11.4845 26.352 11.4087 26.3186 11.3414 26.2714C11.2742 26.2243 11.217 26.1642 11.1731 26.0948C11.1292 26.0254 11.0994 25.9479 11.0856 25.8669C11.0717 25.7859 11.074 25.7029 11.0923 25.6228L11.5709 23.3512ZM12.2298 12.1488C12.2001 11.9837 12.2371 11.8136 12.3327 11.6759C12.4283 11.5382 12.5746 11.4441 12.7394 11.4144C12.9043 11.3847 13.0741 11.4217 13.2117 11.5175C13.3492 11.6132 13.4432 11.7597 13.4728 11.9247C13.7653 13.5074 13.913 15.1135 13.9141 16.7231C13.9164 18.3402 13.7917 19.955 13.5412 21.5526C13.5044 21.6997 13.4152 21.8283 13.2903 21.9142C13.1654 22.0002 13.0135 22.0374 12.8631 22.0191C12.7128 22.0007 12.5742 21.928 12.4736 21.8146C12.373 21.7012 12.3172 21.5549 12.3168 21.4032C12.559 19.8696 12.6816 18.3194 12.6835 16.7667C12.679 15.2323 12.5376 13.7014 12.2608 12.1923L12.2298 12.1488ZM8.36379 26.1705C8.26818 26.3058 8.12279 26.3976 7.9596 26.4256C7.79642 26.4536 7.62881 26.4156 7.49363 26.3198C7.35846 26.2241 7.26681 26.0785 7.23883 25.9151C7.21086 25.7517 7.24886 25.5839 7.34446 25.4485C7.7554 24.8668 8.09943 24.2405 8.37 23.5815C8.64969 22.8674 8.85789 22.1273 8.99154 21.3721C9.1945 19.6271 9.1945 17.8644 8.99154 16.1194C8.94804 15.497 8.90453 14.8747 8.87967 14.2897C8.80927 13.4212 8.84685 12.5474 8.99154 11.6882C9.0687 11.2303 9.23795 10.7928 9.48902 10.4023C9.7401 10.0118 10.0678 9.67648 10.4522 9.41661C10.6361 9.28844 10.8317 9.178 11.0364 9.08676C11.2484 8.98306 11.4688 8.8977 11.6952 8.83159C11.8755 8.7818 12.0557 8.74446 12.2298 8.71335C12.7344 8.60525 13.2573 8.61646 13.7568 8.74611C14.2563 8.87575 14.7188 9.12025 15.1075 9.46018C15.8177 10.1355 16.322 10.9988 16.5619 11.9496C16.6427 12.2483 16.7173 12.572 16.7732 12.8894C16.7732 13.0636 16.8291 13.2441 16.8478 13.4184C16.8664 13.5926 16.8851 13.7793 16.8975 13.9598C16.9472 14.7751 16.9659 15.6713 16.941 16.6173C16.339 17.3251 15.8714 18.1371 15.5612 19.0134C15.7059 17.3578 15.735 15.6941 15.6482 14.0345C15.6482 13.8789 15.6482 13.7233 15.6047 13.5553C15.5612 13.3873 15.5612 13.2503 15.5363 13.0947C15.4866 12.8209 15.4307 12.5471 15.3561 12.2857C15.1839 11.5603 14.8113 10.8982 14.2808 10.375C14.0274 10.1582 13.7266 10.0041 13.4026 9.92519C13.0787 9.84627 12.7408 9.84474 12.4162 9.92072L12.0122 10.0141C11.8415 10.062 11.6751 10.1245 11.515 10.2008C11.3789 10.263 11.248 10.3358 11.1234 10.4186C10.6548 10.7691 10.3423 11.2898 10.2533 11.8687C10.1314 12.6257 10.1021 13.3948 10.1663 14.159C10.1663 14.7067 10.2346 15.329 10.2781 15.9638C10.4873 17.8133 10.4748 19.6812 10.2408 21.5277C10.0841 22.366 9.8468 23.1872 9.53228 23.9798V24.0171C9.22251 24.7677 8.83062 25.4815 8.36379 26.1456V26.1705ZM15.8844 24.9258C15.7725 25.3863 15.6544 25.822 15.5239 26.2265C15.4998 26.3052 15.4604 26.3784 15.4079 26.4417C15.3554 26.5051 15.2908 26.5574 15.218 26.5956C15.1452 26.6338 15.0655 26.6572 14.9836 26.6643C14.9016 26.6715 14.8191 26.6623 14.7408 26.6372C14.6614 26.6132 14.5877 26.5735 14.5239 26.5205C14.4602 26.4675 14.4076 26.4022 14.3694 26.3286C14.3312 26.2549 14.308 26.1744 14.3014 26.0916C14.2947 26.0089 14.3046 25.9257 14.3306 25.8469C14.684 24.6848 14.956 23.4994 15.1448 22.2994C15.2312 23.2124 15.4817 24.1021 15.8844 24.9258ZM7.34446 20.9178C7.33094 20.9989 7.3015 21.0764 7.25786 21.1461C7.21422 21.2157 7.15723 21.276 7.0902 21.3234C7.02316 21.3709 6.94741 21.4045 6.8673 21.4225C6.78719 21.4405 6.70432 21.4424 6.62348 21.4281C6.5414 21.416 6.46256 21.3876 6.39162 21.3446C6.32067 21.3015 6.25906 21.2447 6.2104 21.1774C6.16174 21.1101 6.12703 21.0337 6.10831 20.9528C6.08958 20.8719 6.08723 20.788 6.10139 20.7062C6.23979 19.8831 6.31872 19.0512 6.33757 18.2167C6.33757 17.2957 6.33757 16.2812 6.28163 15.2045C6.28163 14.9618 6.24434 14.6755 6.22569 14.3955C6.09517 12.5284 5.98951 11.0534 7.07099 9.1241C7.31291 8.69661 7.60504 8.29963 7.94114 7.94162C8.2928 7.56569 8.69187 7.23722 9.12828 6.96452L9.22151 6.91473C9.85068 6.60441 10.5112 6.36239 11.1918 6.1928C11.849 6.02374 12.5278 5.95451 13.2056 5.98742C13.3704 5.9965 13.5249 6.07077 13.6351 6.19391C13.7452 6.31704 13.802 6.47895 13.7929 6.64401C13.7839 6.80907 13.7097 6.96376 13.5867 7.07405C13.4637 7.18435 13.302 7.24121 13.1372 7.23213C12.5808 7.20541 12.0236 7.26205 11.4839 7.40017C10.894 7.54727 10.3212 7.75586 9.77468 8.02253C9.43878 8.2404 9.12817 8.49506 8.84859 8.78181C8.58526 9.06761 8.35583 9.38296 8.1649 9.72157C7.26366 11.3272 7.3569 12.6529 7.46877 14.2959C7.46877 14.5386 7.50607 14.7938 7.52471 15.1174C7.58687 16.219 7.61173 17.2645 7.58065 18.2292C7.56551 19.1242 7.4824 20.0167 7.33203 20.8991L7.34446 20.9178ZM15.4245 7.92295C15.3423 7.88905 15.2684 7.8379 15.2077 7.77295C15.1469 7.70801 15.1008 7.63078 15.0724 7.54648C15.044 7.46217 15.034 7.37275 15.043 7.28424C15.0521 7.19573 15.0799 7.11019 15.1248 7.03338C15.1697 6.95658 15.2304 6.8903 15.303 6.83901C15.3756 6.78772 15.4584 6.75262 15.5457 6.73607C15.633 6.71951 15.7228 6.7219 15.8091 6.74305C15.8954 6.76421 15.9762 6.80365 16.046 6.85872C16.2241 6.96555 16.3963 7.0819 16.5619 7.20724C16.7359 7.33794 16.9037 7.48108 17.0653 7.62422C18.8802 9.27347 19.7131 11.7567 19.9741 14.4702C19.5579 14.6319 19.1565 14.8297 18.7746 15.0614C18.5881 12.4537 17.8795 10.0825 16.22 8.55153C16.0934 8.43014 15.9584 8.31784 15.816 8.21546C15.6827 8.11231 15.5437 8.01673 15.3996 7.92917L15.4245 7.92295ZM1.03584 20.6377C0.910563 20.7467 0.747196 20.8013 0.581679 20.7896C0.416162 20.778 0.262055 20.7009 0.153259 20.5755C0.044463 20.45 -0.0101092 20.2865 0.00154688 20.1207C0.013203 19.955 0.0901317 19.8007 0.215412 19.6917C0.364103 19.5652 0.49204 19.4161 0.594551 19.2499C0.715873 19.0563 0.809989 18.8468 0.874244 18.6275C1.25338 17.4139 1.02341 16.1381 0.787229 14.8436C0.59617 13.949 0.490034 13.0384 0.470243 12.1239C0.50132 7.34416 3.48471 3.4482 7.38797 1.45043C9.02608 0.610836 10.8213 0.123274 12.6586 0.0190081C14.5093 -0.0894985 16.3576 0.267817 18.0349 1.05835C21.8201 2.85696 24.8719 7.0641 25.5556 14.4951C25.1376 14.3262 24.7048 14.197 24.2628 14.1092C23.5604 7.49975 20.8319 3.77183 17.5004 2.18481C16.0076 1.48733 14.3655 1.17088 12.7208 1.26372C11.0617 1.35952 9.44143 1.80488 7.966 2.57067C4.44188 4.36929 1.75061 7.86071 1.75061 12.1301C1.77054 12.9675 1.87044 13.8011 2.04895 14.6195C2.31 16.0696 2.57105 17.501 2.09868 18.976C2.00031 19.2979 1.86031 19.6054 1.68224 19.8909C1.50737 20.1723 1.28922 20.4244 1.03584 20.6377ZM8.58754 5.60778C8.44413 5.69031 8.27385 5.71242 8.11416 5.66923C7.95447 5.62605 7.81846 5.52111 7.73603 5.37751C7.65361 5.23391 7.63154 5.0634 7.67467 4.9035C7.71779 4.7436 7.82259 4.60741 7.966 4.52488C8.61644 4.15226 9.30651 3.85374 10.0233 3.63491C11.9908 3.02917 14.0995 3.06403 16.046 3.73448C18.1146 4.46442 19.8498 5.91893 20.9313 7.8296C21.3453 8.56013 21.6767 9.33455 21.9195 10.1385C22.2883 11.3764 22.5319 12.6483 22.6468 13.9349C22.2298 13.9395 21.814 13.979 21.4037 14.0532C21.298 12.8432 21.0732 11.6466 20.7324 10.4808C20.5173 9.76979 20.2233 9.08508 19.856 8.43951C18.9262 6.78692 17.4287 5.52857 15.642 4.89829C13.9448 4.3128 12.1057 4.28229 10.39 4.81116C9.76062 5.00649 9.15581 5.2738 8.58754 5.60778Z" fill="#96C83D"/>
<path d="M41.7812 38.5903C41.2167 38.592 40.6567 38.6893 40.1261 38.878C40.06 38.2559 39.8694 37.6526 39.5653 37.1026C39.2612 36.5527 38.8494 36.0668 38.3536 35.6729C37.8577 35.2789 37.2875 34.9846 36.6755 34.8066C36.0636 34.6287 35.4218 34.5707 34.7869 34.6359C34.3996 34.6745 34.0186 34.7594 33.6523 34.8888V34.6098C33.6547 33.9844 33.5311 33.3647 33.2888 32.7862C33.0465 32.2076 32.6901 31.6816 32.24 31.2382C31.79 30.7948 31.2551 30.4427 30.666 30.202C30.077 29.9614 29.4452 29.8369 28.807 29.8358C28.2443 29.832 27.6853 29.9265 27.1563 30.1148V21.0943C27.0626 19.9002 26.5162 18.7837 25.6248 17.9644C24.7333 17.145 23.5612 16.6822 22.3391 16.6669C21.1169 16.6516 19.9332 17.0849 19.0206 17.8817C18.1081 18.6784 17.5328 19.7809 17.4079 20.9723V44.572C15.907 43.1768 14.4239 41.7701 12.9586 40.3517C12.4249 39.8644 11.7894 39.4966 11.0963 39.2738C10.4031 39.0511 9.66879 38.9787 8.94422 39.0616C8.21966 39.1445 7.52216 39.3809 6.90005 39.7542C6.27795 40.1275 5.74611 40.6289 5.3414 41.2236C4.69529 42.1966 4.38427 43.3469 4.45393 44.5057C4.52359 45.6646 4.97027 46.7711 5.72848 47.6631L16.2066 59.5697C17.1584 60.7411 17.9928 61.9997 18.6982 63.3279C19.8903 65.5751 20.7131 67.9926 21.1364 70.4911C20.7762 70.5701 20.4541 70.7668 20.2229 71.0488C19.9916 71.3308 19.8651 71.6814 19.8639 72.0432V78.4085C19.8639 78.6178 19.9061 78.8251 19.988 79.0185C20.0699 79.2118 20.1899 79.3875 20.3412 79.5353C20.4924 79.6831 20.672 79.8002 20.8695 79.8799C21.0671 79.9597 21.2787 80.0004 21.4924 79.9998H42.6088C42.8224 80.0004 43.0341 79.9597 43.2316 79.8799C43.4292 79.8002 43.6087 79.6831 43.76 79.5353C43.9113 79.3875 44.0313 79.2118 44.1132 79.0185C44.1951 78.8251 44.2372 78.6178 44.2372 78.4085V72.0432C44.2372 71.8338 44.1951 71.6265 44.1132 71.4332C44.0313 71.2398 43.9113 71.0642 43.76 70.9164C43.6087 70.7686 43.4292 70.6514 43.2316 70.5717C43.0341 70.492 42.8224 70.4513 42.6088 70.4518H41.9547C42.2718 68.7936 42.8736 67.2 43.7345 65.7389C43.7879 65.656 43.8413 65.5688 43.8902 65.4773C46.3507 61.3616 46.6666 56.1909 46.6666 52.145V43.3643C46.6607 42.0976 46.1437 40.8847 45.2284 39.9903C44.3131 39.0959 43.0739 38.5926 41.7812 38.5903ZM40.967 76.7954H23.0986V73.6127H40.967V76.7954ZM43.4052 52.1232C43.4052 55.7811 43.1383 60.4068 41.0204 63.9513C40.9931 63.9838 40.9693 64.0188 40.9492 64.056C39.7874 66.0241 39.0047 68.1847 38.64 70.43H24.4022C23.9519 67.4291 22.9924 64.5232 21.5636 61.8325C20.7535 60.3051 19.7923 58.8594 18.6938 57.5163L8.21565 45.6096C7.90024 45.2526 7.70976 44.8061 7.67213 44.3353C7.6345 43.8646 7.75169 43.3944 8.00653 42.9937C8.17054 42.7471 8.39386 42.5438 8.65687 42.4016C8.91988 42.2595 9.21451 42.1828 9.51485 42.1784C9.95357 42.1747 10.3782 42.33 10.7073 42.6144C18.5158 50.061 18.5158 50.061 19.6726 49.5901C19.9669 49.4665 20.2178 49.261 20.3942 48.999C20.5705 48.7371 20.6646 48.4303 20.6648 48.1165V21.0943C20.6554 20.6723 20.8174 20.2639 21.1153 19.9589C21.4132 19.6539 21.8225 19.4774 22.2532 19.4681C22.6839 19.4589 23.1007 19.6177 23.412 19.9096C23.7232 20.2015 23.9034 20.6025 23.9128 21.0246V48.9536C23.9346 49.3618 24.1154 49.7462 24.418 50.0276C24.7206 50.309 25.1219 50.4659 25.539 50.4659C25.9562 50.4659 26.3574 50.309 26.66 50.0276C26.9626 49.7462 27.1434 49.3618 27.1652 48.9536V34.6098C27.1652 34.1877 27.3363 33.783 27.6409 33.4845C27.9455 33.1861 28.3585 33.0184 28.7892 33.0184C29.22 33.0184 29.633 33.1861 29.9376 33.4845C30.2421 33.783 30.4132 34.1877 30.4132 34.6098V48.9361C30.4132 49.3582 30.5843 49.7629 30.8889 50.0614C31.1935 50.3598 31.6065 50.5275 32.0372 50.5275C32.4679 50.5275 32.881 50.3598 33.1856 50.0614C33.4901 49.7629 33.6612 49.3582 33.6612 48.9361V39.4056C33.6612 38.9835 33.8323 38.5788 34.1369 38.2803C34.4414 37.9819 34.8545 37.8142 35.2852 37.8142C35.7159 37.8142 36.129 37.9819 36.4336 38.2803C36.7381 38.5788 36.9092 38.9835 36.9092 39.4056V48.9536C36.931 49.3618 37.1119 49.7462 37.4144 50.0276C37.717 50.309 38.1183 50.4659 38.5355 50.4659C38.9526 50.4659 39.3539 50.309 39.6564 50.0276C39.959 49.7462 40.1399 49.3618 40.1617 48.9536V43.3643C40.1617 42.9422 40.3328 42.5375 40.6373 42.239C40.9419 41.9406 41.355 41.773 41.7857 41.773C42.2164 41.773 42.6294 41.9406 42.934 42.239C43.2386 42.5375 43.4097 42.9422 43.4097 43.3643L43.4052 52.1232Z" fill="url(#paint0_linear_1086_5983)"/>
</g>
<defs>
<linearGradient id="paint0_linear_1086_5983" x1="25.5554" y1="16.6665" x2="25.5554" y2="79.9998" gradientUnits="userSpaceOnUse">
<stop stop-color="#606F6F"/>
<stop offset="1" stop-color="#E5E7E7"/>
</linearGradient>
</defs>
</svg>
