<svg width="80" height="80" viewBox="0 0 80 80" fill="none" xmlns="http://www.w3.org/2000/svg">
<g clip-path="url(#clip0_1163_5971)">
<path d="M19.7131 3.99085C19.7131 7.3064 19.3975 10 19.0088 10C18.6201 10 18.2954 7.3064 18.2954 3.99085C18.2954 0.675304 18.6247 -2 19.0088 -2C19.393 -2 19.7131 0.670731 19.7131 3.99085Z" fill="url(#paint0_radial_1163_5971)"/>
<path d="M19.0091 4.68526C15.6936 4.68526 13 4.36971 13 3.98099C13 3.59227 15.6936 3.26758 19.0091 3.26758C22.3247 3.26758 25 3.59685 25 3.98099C25 4.36514 22.3293 4.68526 19.0091 4.68526Z" fill="url(#paint1_radial_1163_5971)"/>
<path d="M68.7131 55.9909C68.7131 59.3064 68.3975 62 68.0088 62C67.6201 62 67.2954 59.3064 67.2954 55.9909C67.2954 52.6753 67.6247 50 68.0088 50C68.393 50 68.7131 52.6707 68.7131 55.9909Z" fill="url(#paint2_radial_1163_5971)"/>
<path d="M68.0091 56.6853C64.6936 56.6853 62 56.3697 62 55.981C62 55.5923 64.6936 55.2676 68.0091 55.2676C71.3247 55.2676 74 55.5968 74 55.981C74 56.3651 71.3293 56.6853 68.0091 56.6853Z" fill="url(#paint3_radial_1163_5971)"/>
<path d="M37.2127 17.0078C38.0317 17.2919 38.0317 17.2919 38.2848 17.7106L38.4784 18.234C38.8645 19.5686 39.695 20.7298 40.831 21.5235C43.3697 22.002 45.9673 22.0777 48.5293 21.7478C49.2156 21.6466 49.9163 21.756 50.5395 22.0618C50.8969 22.4655 50.8968 22.4655 51.0011 23.2879C51.1053 24.1103 50.8968 24.1103 50.599 24.4991C50.1759 24.828 49.6417 24.9782 49.11 24.9178H48.4697H45.4917H43.1688H41.784H41.0842C40.6672 25.0066 40.236 25.0046 39.8198 24.9117C39.4037 24.8188 39.0122 24.6373 38.672 24.3795C37.5701 22.9889 37.5701 22.9889 37.5701 22.2712H37.0936L37.0191 22.7646C36.7009 23.9858 36.303 25.1846 35.8279 26.3532C35.7088 26.6822 35.5897 26.9962 35.4854 27.3102C35.3812 27.6242 35.143 28.2372 34.9792 28.6858L34.6665 29.5231C34.526 29.8447 34.3214 30.134 34.0653 30.3732C33.8092 30.6124 33.507 30.7963 33.1775 30.9137C32.6699 30.9383 32.1712 30.7732 31.7778 30.4502C31.3851 29.7023 31.0707 28.9156 30.8397 28.1027L30.527 27.1905C29.6782 24.7084 29.6782 24.7084 29.6782 23.8711H29.2018L28.9635 24.5738C27.7639 24.9422 26.4999 25.0493 25.2558 24.8879H22.5905C22.1192 24.8811 21.6696 24.6876 21.3397 24.3496C20.9674 23.8412 20.9674 23.8412 20.9823 22.9889C20.9972 22.1366 21.1908 22.1964 21.8906 21.7329C22.2917 21.6935 22.6957 21.6935 23.0968 21.7329H25.2409H27.0427L27.2511 21.1796C27.4978 20.5794 27.7813 19.9952 28.0999 19.4302L28.3977 18.8769C28.5486 18.5635 28.8159 18.3219 29.1422 18.2041C30.4079 18.0994 30.4079 18.0994 30.9141 18.4882C31.2622 18.9319 31.5202 19.4399 31.6735 19.9834L31.882 20.6563L32.0905 21.3441L32.5372 22.7048L32.7159 23.3178C32.8499 23.7814 32.8499 23.7814 33.1179 24.0206L33.3264 23.4375C33.5646 22.7496 33.8177 22.0469 34.0709 21.3441L34.3836 20.432L34.8601 19.1311L35.143 18.3386C35.2928 17.9181 35.5772 17.5594 35.9517 17.3186C36.3262 17.0778 36.7697 16.9685 37.2127 17.0078Z" fill="url(#paint4_linear_1163_5971)"/>
<path d="M37.2127 17.0078C38.0317 17.2919 38.0317 17.2919 38.2848 17.7106L38.4784 18.234C38.8645 19.5686 39.695 20.7298 40.831 21.5235C43.3697 22.002 45.9673 22.0777 48.5293 21.7478C49.2156 21.6466 49.9163 21.756 50.5395 22.0618C50.8969 22.4655 50.8969 22.4655 51.0011 23.2879C51.1053 24.1103 50.8969 24.1103 50.599 24.4991C50.1759 24.828 49.6417 24.9782 49.11 24.9178H48.4697H45.4917H43.1688H41.784H41.0842C40.6672 25.0066 40.236 25.0046 39.8198 24.9117C39.4037 24.8188 39.0122 24.6373 38.672 24.3795C37.5701 22.9889 37.5701 22.9889 37.5701 22.2712H37.0936L37.0191 22.7646C36.7009 23.9858 36.303 25.1846 35.8279 26.3532C35.7088 26.6822 35.5897 26.9962 35.4854 27.3102C35.3812 27.6242 35.143 28.2372 34.9792 28.6858L34.6665 29.5231C34.526 29.8447 34.3214 30.134 34.0653 30.3732C33.8092 30.6124 33.507 30.7963 33.1775 30.9137C32.6699 30.9383 32.1712 30.7732 31.7778 30.4502C31.3851 29.7023 31.0707 28.9156 30.8397 28.1027L30.527 27.1905C29.6782 24.7084 29.6782 24.7084 29.6782 23.8711H29.2018L28.9635 24.5738C27.7639 24.9422 26.4999 25.0493 25.2558 24.8879H22.5905C22.1192 24.8811 21.6696 24.6876 21.3397 24.3496C20.9674 23.8412 20.9674 23.8412 20.9823 22.9889C20.9972 22.1366 21.1908 22.1964 21.8906 21.7329C22.2917 21.6935 22.6957 21.6935 23.0968 21.7329H25.2409H27.0427L27.2511 21.1796C27.4978 20.5794 27.7813 19.9952 28.0999 19.4302L28.3977 18.8769C28.5486 18.5635 28.8159 18.3219 29.1422 18.2041C30.4079 18.0994 30.4079 18.0994 30.9141 18.4882C31.2622 18.9319 31.5202 19.4399 31.6735 19.9834L31.882 20.6563L32.0905 21.3441L32.5372 22.7048L32.7159 23.3178C32.8499 23.7814 32.8499 23.7814 33.1179 24.0206L33.3264 23.4375C33.5646 22.7496 33.8177 22.0469 34.0709 21.3441L34.3836 20.432L34.8601 19.1311L35.143 18.3386C35.2928 17.9181 35.5772 17.5594 35.9517 17.3186C36.3262 17.0778 36.7697 16.9685 37.2127 17.0078Z" stroke="url(#paint5_linear_1163_5971)" stroke-width="0.23" stroke-miterlimit="10"/>
<path d="M21.0269 37.6721H54.4407C54.749 37.6838 55.0515 37.7604 55.3285 37.8969C55.6056 38.0334 55.851 38.2268 56.0488 38.4646C56.2126 39.8552 56.2126 39.8552 55.7808 40.4982C55.2254 40.858 54.5581 41.0016 53.9046 40.9019H20.208C20.0106 40.907 19.8141 40.8726 19.63 40.8007C19.446 40.7288 19.278 40.6209 19.1359 40.4832C18.798 40.0597 18.6188 39.5305 18.6296 38.988C18.8257 38.5315 19.1682 38.154 19.6027 37.9156C20.0371 37.6771 20.5384 37.5914 21.0269 37.6721Z" fill="url(#paint6_linear_1163_5971)"/>
<path d="M20.1338 47.0629H21.7271C22.3376 47.0629 22.963 47.0629 23.5735 47.0629H37.2129C37.5295 47.0192 37.8518 47.0475 38.156 47.1459C38.4601 47.2443 38.7383 47.4101 38.97 47.6311C39.2472 48.1425 39.3318 48.737 39.2082 49.3058C39.0491 49.5485 38.8433 49.7568 38.603 49.9185C38.3626 50.0803 38.0925 50.1922 37.8085 50.2478H36.1111H21.2208C20.3403 50.3076 19.4708 50.0237 18.7937 49.4553C18.6464 49.1794 18.5693 48.8712 18.5693 48.5582C18.5693 48.2451 18.6464 47.937 18.7937 47.661C19.3297 47.2125 19.3297 47.2125 20.1338 47.0629Z" fill="url(#paint7_linear_1163_5971)"/>
<path d="M21.0269 37.6721H54.4407C54.749 37.6838 55.0515 37.7604 55.3285 37.8969C55.6056 38.0334 55.851 38.2268 56.0488 38.4646C56.2126 39.8552 56.2126 39.8552 55.7808 40.4982C55.2254 40.858 54.5581 41.0016 53.9046 40.9019H20.208C20.0106 40.907 19.8141 40.8726 19.63 40.8007C19.446 40.7288 19.278 40.6209 19.1359 40.4832C18.798 40.0597 18.6188 39.5305 18.6296 38.988C18.8257 38.5315 19.1682 38.154 19.6027 37.9156C20.0371 37.6771 20.5384 37.5914 21.0269 37.6721Z" stroke="url(#paint8_linear_1163_5971)" stroke-width="0.23" stroke-miterlimit="10"/>
<path d="M20.1338 47.0629H21.7271C22.3376 47.0629 22.963 47.0629 23.5735 47.0629H37.2129C37.5295 47.0192 37.8518 47.0475 38.156 47.1459C38.4601 47.2443 38.7383 47.4101 38.97 47.6311C39.2472 48.1425 39.3318 48.737 39.2082 49.3058C39.0491 49.5485 38.8433 49.7568 38.603 49.9185C38.3626 50.0803 38.0925 50.1922 37.8085 50.2478H36.1111H21.2208C20.3403 50.3076 19.4708 50.0237 18.7937 49.4553C18.6464 49.1794 18.5693 48.8712 18.5693 48.5582C18.5693 48.2451 18.6464 47.937 18.7937 47.661C19.3297 47.2125 19.3297 47.2125 20.1338 47.0629Z" stroke="url(#paint9_linear_1163_5971)" stroke-width="0.23" stroke-miterlimit="10"/>
<path d="M77.8254 65.581L63.2757 51.0313C66.4631 45.8291 68.1641 39.8341 68.1641 33.575C68.1641 15.0286 53.1471 0 34.5892 0C25.6216 0 17.1989 3.50118 10.8572 9.84293C-10.2969 30.9953 4.90186 67.1334 34.5892 67.1334C40.485 67.1334 46.1497 65.6305 51.1372 62.79L65.8851 77.5213C66.6682 78.307 67.5986 78.9304 68.6231 79.3557C69.6476 79.7811 70.746 80 71.8552 80C72.9645 80 74.0629 79.7811 75.0874 79.3557C76.1119 78.9304 77.0423 78.307 77.8254 77.5213C79.4041 75.9355 80.2904 73.7889 80.2904 71.5512C80.2904 69.3135 79.4041 67.1669 77.8254 65.581ZM34.5892 63.8304C7.79528 63.8304 -5.87582 31.2579 13.1858 12.1715C18.9165 6.45736 26.5134 3.303 34.5892 3.303C51.1256 3.303 64.8612 16.6735 64.8612 33.575C64.8612 50.1643 51.4659 63.8304 34.5892 63.8304ZM75.4968 75.1927C73.548 77.125 70.1625 77.125 68.2137 75.1927L53.9943 60.9733C56.7358 59.0279 59.3732 56.5192 61.3765 53.7893L75.4968 67.9096C76.4567 68.8785 76.9952 70.1873 76.9952 71.5512C76.9952 72.9151 76.4567 74.2238 75.4968 75.1927Z" fill="url(#paint10_linear_1163_5971)"/>
</g>
<defs>
<radialGradient id="paint0_radial_1163_5971" cx="0" cy="0" r="1" gradientUnits="userSpaceOnUse" gradientTransform="translate(18.8961 4.42915) scale(0.701341 6.01335)">
<stop stop-color="white"/>
<stop offset="0.07" stop-color="white" stop-opacity="0.93"/>
<stop offset="1" stop-color="white" stop-opacity="0"/>
</radialGradient>
<radialGradient id="paint1_radial_1163_5971" cx="0" cy="0" r="1" gradientUnits="userSpaceOnUse" gradientTransform="translate(18.5709 3.86831) rotate(90) scale(0.701341 6.01335)">
<stop stop-color="white"/>
<stop offset="0.07" stop-color="white" stop-opacity="0.93"/>
<stop offset="1" stop-color="white" stop-opacity="0"/>
</radialGradient>
<radialGradient id="paint2_radial_1163_5971" cx="0" cy="0" r="1" gradientUnits="userSpaceOnUse" gradientTransform="translate(67.8961 56.4291) scale(0.701341 6.01335)">
<stop stop-color="white"/>
<stop offset="0.07" stop-color="white" stop-opacity="0.93"/>
<stop offset="1" stop-color="white" stop-opacity="0"/>
</radialGradient>
<radialGradient id="paint3_radial_1163_5971" cx="0" cy="0" r="1" gradientUnits="userSpaceOnUse" gradientTransform="translate(67.5709 55.8683) rotate(90) scale(0.701341 6.01335)">
<stop stop-color="white"/>
<stop offset="0.07" stop-color="white" stop-opacity="0.93"/>
<stop offset="1" stop-color="white" stop-opacity="0"/>
</radialGradient>
<linearGradient id="paint4_linear_1163_5971" x1="20.9674" y1="23.9608" x2="51.0011" y2="23.9608" gradientUnits="userSpaceOnUse">
<stop stop-color="#79A540"/>
<stop offset="0.2" stop-color="#94C63D"/>
<stop offset="0.39" stop-color="#98CA3C"/>
<stop offset="0.59" stop-color="#93C53E"/>
<stop offset="0.74" stop-color="#9DCB3B"/>
<stop offset="0.9" stop-color="#A6CE39"/>
<stop offset="1" stop-color="#A6CE39"/>
</linearGradient>
<linearGradient id="paint5_linear_1163_5971" x1="40.2503" y1="15.8864" x2="31.6946" y2="30.6436" gradientUnits="userSpaceOnUse">
<stop stop-color="white" stop-opacity="0.9"/>
<stop offset="0.28" stop-color="white" stop-opacity="0.5"/>
<stop offset="0.65" stop-color="#FAFCFE" stop-opacity="0.4"/>
<stop offset="1" stop-color="#F1EFEF" stop-opacity="0.3"/>
</linearGradient>
<linearGradient id="paint6_linear_1163_5971" x1="32.3435" y1="48.2436" x2="42.5924" y2="30.5768" gradientUnits="userSpaceOnUse">
<stop stop-color="white" stop-opacity="0.9"/>
<stop offset="0.04" stop-color="white" stop-opacity="0.85"/>
<stop offset="0.28" stop-color="white" stop-opacity="0.5"/>
<stop offset="0.65" stop-color="#FAFBFC" stop-opacity="0.4"/>
<stop offset="1" stop-color="#F0EFEF" stop-opacity="0.3"/>
</linearGradient>
<linearGradient id="paint7_linear_1163_5971" x1="26.0304" y1="53.7766" x2="31.9789" y2="43.5108" gradientUnits="userSpaceOnUse">
<stop stop-color="white" stop-opacity="0.9"/>
<stop offset="0.04" stop-color="white" stop-opacity="0.85"/>
<stop offset="0.28" stop-color="white" stop-opacity="0.5"/>
<stop offset="0.65" stop-color="#FAFBFC" stop-opacity="0.4"/>
<stop offset="1" stop-color="#F0EFEF" stop-opacity="0.3"/>
</linearGradient>
<linearGradient id="paint8_linear_1163_5971" x1="32.2989" y1="30.3454" x2="42.7275" y2="48.3405" gradientUnits="userSpaceOnUse">
<stop stop-color="white" stop-opacity="0.9"/>
<stop offset="0.28" stop-color="white" stop-opacity="0.5"/>
<stop offset="0.65" stop-color="#FAFCFE" stop-opacity="0.4"/>
<stop offset="1" stop-color="#F1EFEF" stop-opacity="0.3"/>
</linearGradient>
<linearGradient id="paint9_linear_1163_5971" x1="25.8666" y1="43.2949" x2="32.0398" y2="53.9337" gradientUnits="userSpaceOnUse">
<stop stop-color="white" stop-opacity="0.9"/>
<stop offset="0.28" stop-color="white" stop-opacity="0.5"/>
<stop offset="0.65" stop-color="#FAFCFE" stop-opacity="0.4"/>
<stop offset="1" stop-color="#F1EFEF" stop-opacity="0.3"/>
</linearGradient>
<linearGradient id="paint10_linear_1163_5971" x1="68.8639" y1="64.6475" x2="46.0711" y2="-6.78866" gradientUnits="userSpaceOnUse">
<stop stop-color="white" stop-opacity="0.9"/>
<stop offset="0.04" stop-color="white" stop-opacity="0.85"/>
<stop offset="0.28" stop-color="white" stop-opacity="0.5"/>
<stop offset="0.65" stop-color="#FAFBFC" stop-opacity="0.4"/>
<stop offset="1" stop-color="#F0EFEF" stop-opacity="0.3"/>
</linearGradient>
<clipPath id="clip0_1163_5971">
<rect width="80" height="80" fill="white"/>
</clipPath>
</defs>
</svg>
