<svg width="80" height="80" viewBox="0 0 80 80" fill="none" xmlns="http://www.w3.org/2000/svg">
<path d="M77.5129 65.581L62.833 51.0313C66.0489 45.8291 67.7652 39.8341 67.7652 33.575C67.7652 15.0286 52.6137 0 33.8898 0C24.8419 0 16.3439 3.50118 9.94538 9.84293C-11.398 30.9953 3.93678 67.1334 33.8898 67.1334C39.8384 67.1334 45.5537 65.6305 50.5859 62.79L65.4657 77.5213C66.2558 78.307 67.1946 78.9304 68.2283 79.3557C69.2619 79.7811 70.3701 80 71.4893 80C72.6085 80 73.7167 79.7811 74.7504 79.3557C75.7841 78.9304 76.7228 78.307 77.5129 77.5213C79.1058 75.9355 80 73.7889 80 71.5512C80 69.3135 79.1058 67.1669 77.5129 65.581ZM33.8898 63.8304C6.8561 63.8304 -6.93735 31.2579 12.2948 12.1715C18.0768 6.45736 25.7417 3.303 33.8898 3.303C50.5742 3.303 64.4327 16.6735 64.4327 33.575C64.4327 50.1643 50.9175 63.8304 33.8898 63.8304ZM75.1635 75.1927C73.1973 77.125 69.7814 77.125 67.8152 75.1927L53.4685 60.9733C56.2346 59.0279 58.8956 56.5192 60.9168 53.7893L75.1635 67.9096C76.132 68.8785 76.6753 70.1873 76.6753 71.5512C76.6753 72.9151 76.132 74.2238 75.1635 75.1927Z" fill="url(#paint0_linear_1156_6016)"/>
<path d="M8.24531 11.7525C8.24531 15.789 7.8577 19.0684 7.38022 19.0684C6.90274 19.0684 6.50391 15.789 6.50391 11.7525C6.50391 7.71603 6.90836 4.45898 7.38022 4.45898C7.85209 4.45898 8.24531 7.71046 8.24531 11.7525Z" fill="url(#paint1_radial_1156_6016)"/>
<path d="M64.4821 50.7691C64.4821 54.8056 64.0945 58.085 63.617 58.085C63.1396 58.085 62.7407 54.8056 62.7407 50.7691C62.7407 46.7326 63.1452 43.4756 63.617 43.4756C64.0889 43.4756 64.4821 46.7271 64.4821 50.7691Z" fill="url(#paint2_radial_1156_6016)"/>
<path d="M7.38142 12.5985C3.30879 12.5985 0.000124654 12.2143 0.000124675 11.7411C0.000124696 11.2679 3.30879 10.8726 7.38142 10.8726C11.454 10.8726 14.7402 11.2734 14.7402 11.7411C14.7402 12.2088 11.4597 12.5985 7.38142 12.5985Z" fill="url(#paint3_radial_1156_6016)"/>
<path d="M63.6185 51.6151C59.5458 51.6151 56.2372 51.231 56.2372 50.7577C56.2372 50.2845 59.5458 49.8892 63.6185 49.8892C67.6911 49.8892 70.9773 50.29 70.9773 50.7577C70.9773 51.2254 67.6967 51.6151 63.6185 51.6151Z" fill="url(#paint4_radial_1156_6016)"/>
<path d="M29.5043 17.3012C26.6924 18.0369 24.2855 19.3969 22.3622 21.1694C15.6363 27.3563 14.6577 38.5597 21.8448 45.683C22.0135 45.8502 22.1935 46.0174 22.3622 46.1735C31.2139 54.2444 45.8355 50.8221 49.997 39.5295C54.7546 26.6317 42.8887 13.8231 29.5043 17.3012ZM46.0379 38.9053C42.3713 47.3329 31.0677 49.4398 24.5442 42.885C23.6556 41.9932 22.9246 41.0122 22.3622 39.9643C20.1802 36.0069 20.3039 31.2357 22.3622 27.4232C23.7681 24.7924 26.0963 22.6186 29.2118 21.4704C40.1893 17.435 50.6718 28.237 46.0379 38.9053Z" fill="url(#paint5_linear_1156_6016)"/>
<path d="M33.9695 16.9999C39.4245 16.9999 44.5758 19.6976 47.7588 24.2012C50.9305 28.6937 51.6504 34.2452 49.7383 39.4289C47.2976 46.0394 41.0666 50.3089 33.8458 50.3089C29.6505 50.3089 25.6352 48.7594 22.5646 45.9614C22.3959 45.8053 22.216 45.6381 22.0585 45.482C18.8193 42.2715 17.0872 38.0131 17.1659 33.4761C17.2559 28.8609 19.2242 24.4465 22.5646 21.3697C24.5442 19.5527 26.9061 18.2707 29.583 17.5684C31.0339 17.1894 32.5186 16.9999 33.9695 16.9999ZM33.8683 47.0204C39.3007 47.0204 44.1709 43.8768 46.2966 39.0164C48.1299 34.7915 47.7475 30.1987 45.2506 26.4196C42.7199 22.6071 38.5022 20.3219 33.9807 20.3219C32.3499 20.3219 30.719 20.6229 29.1219 21.2025C26.1076 22.3173 23.6219 24.4688 22.126 27.2891C19.9665 31.28 19.9665 36.1849 22.126 40.0977C22.6996 41.1679 23.4532 42.1823 24.353 43.0853C26.8836 45.627 30.2691 47.0316 33.8795 47.0316M33.9695 16.7212C32.5186 16.7212 31.0227 16.9107 29.5043 17.3009C26.6924 18.0366 24.2855 19.3966 22.3622 21.1691C15.6363 27.356 14.6577 38.5594 21.8448 45.6827C22.0135 45.8499 22.1935 46.0171 22.3622 46.1732C25.6689 49.183 29.7742 50.5988 33.8345 50.5988C40.6617 50.5988 47.3876 46.6079 49.997 39.5292C54.2148 28.0918 45.3631 16.7212 33.9695 16.7212ZM33.8683 46.7417C30.5278 46.7417 27.1536 45.5043 24.5442 42.8846C23.6556 41.9928 22.9246 41.0118 22.3622 39.964C20.1802 36.0066 20.3039 31.2354 22.3622 27.4229C23.7681 24.7921 26.0963 22.6183 29.2118 21.4701C30.8202 20.8792 32.4286 20.6006 33.9695 20.6006C42.9449 20.6006 49.9857 29.7973 46.0379 38.9049C43.8334 43.966 38.8846 46.7417 33.8683 46.7417Z" fill="url(#paint6_linear_1156_6016)"/>
<path d="M35.0154 32.6295H40.2117C40.8303 32.6295 41.5501 34.1567 40.3017 34.6249C39.5481 34.9148 35.4316 34.8702 34.4306 34.7922C33.5533 34.7141 32.9459 34.5581 32.8334 33.5882C32.721 32.6184 32.6985 28.36 32.8897 27.5351C33.0696 26.7882 33.8232 26.4092 34.498 26.8551C34.6218 26.9331 35.0154 27.379 35.0154 27.4905V32.6407V32.6295Z" fill="url(#paint7_linear_1156_6016)"/>
<path d="M33.9019 26.9441C34.0481 26.9441 34.1944 26.9887 34.3406 27.0891C34.4193 27.1448 34.6668 27.4235 34.7342 27.535V32.9193H40.2117C40.3579 32.9193 40.6166 33.1868 40.6953 33.5658C40.7403 33.8334 40.6953 34.2012 40.2117 34.3796C39.8743 34.5022 38.5696 34.5914 36.7925 34.5914C35.8477 34.5914 34.8917 34.5691 34.4643 34.5357C33.542 34.4576 33.2046 34.3016 33.1146 33.5658C33.0021 32.596 32.9796 28.3822 33.1708 27.613C33.2608 27.2228 33.5645 26.9553 33.9132 26.9553M33.9019 26.6654C33.4295 26.6654 33.0134 27.011 32.8897 27.535C32.6985 28.3599 32.721 32.6406 32.8334 33.5881C32.9459 34.5691 33.5533 34.7252 34.4306 34.7921C34.8355 34.8255 35.769 34.8478 36.7813 34.8478C38.2434 34.8478 39.863 34.7921 40.3017 34.6248C41.5389 34.1455 40.8303 32.6294 40.2117 32.6294H35.0154V27.4792C35.0154 27.3789 34.6218 26.933 34.498 26.8438C34.2956 26.71 34.0931 26.6543 33.9019 26.6543V26.6654Z" fill="url(#paint8_linear_1156_6016)"/>
<defs>
<linearGradient id="paint0_linear_1156_6016" x1="68.4712" y1="64.6475" x2="45.8436" y2="-6.90542" gradientUnits="userSpaceOnUse">
<stop stop-color="white" stop-opacity="0.9"/>
<stop offset="0.04" stop-color="white" stop-opacity="0.85"/>
<stop offset="0.28" stop-color="white" stop-opacity="0.5"/>
<stop offset="0.65" stop-color="#FAFBFC" stop-opacity="0.4"/>
<stop offset="1" stop-color="#F0EFEF" stop-opacity="0.3"/>
</linearGradient>
<radialGradient id="paint1_radial_1156_6016" cx="0" cy="0" r="1" gradientUnits="userSpaceOnUse" gradientTransform="translate(7.24181 12.2861) scale(0.861487 7.32094)">
<stop stop-color="white"/>
<stop offset="0.07" stop-color="white" stop-opacity="0.93"/>
<stop offset="1" stop-color="white" stop-opacity="0"/>
</radialGradient>
<radialGradient id="paint2_radial_1156_6016" cx="0" cy="0" r="1" gradientUnits="userSpaceOnUse" gradientTransform="translate(63.4786 51.3027) scale(0.861487 7.32094)">
<stop stop-color="white"/>
<stop offset="0.07" stop-color="white" stop-opacity="0.93"/>
<stop offset="1" stop-color="white" stop-opacity="0"/>
</radialGradient>
<radialGradient id="paint3_radial_1156_6016" cx="0" cy="0" r="1" gradientUnits="userSpaceOnUse" gradientTransform="translate(6.84304 11.6039) rotate(90) scale(0.853846 7.38646)">
<stop stop-color="white"/>
<stop offset="0.07" stop-color="white" stop-opacity="0.93"/>
<stop offset="1" stop-color="white" stop-opacity="0"/>
</radialGradient>
<radialGradient id="paint4_radial_1156_6016" cx="0" cy="0" r="1" gradientUnits="userSpaceOnUse" gradientTransform="translate(63.0801 50.6205) rotate(90) scale(0.853846 7.38646)">
<stop stop-color="white"/>
<stop offset="0.07" stop-color="white" stop-opacity="0.93"/>
<stop offset="1" stop-color="white" stop-opacity="0"/>
</radialGradient>
<linearGradient id="paint5_linear_1156_6016" x1="16.8735" y1="33.6547" x2="51.0655" y2="33.6547" gradientUnits="userSpaceOnUse">
<stop stop-color="#79A540"/>
<stop offset="0.2" stop-color="#94C63D"/>
<stop offset="0.39" stop-color="#98CA3C"/>
<stop offset="0.59" stop-color="#93C53E"/>
<stop offset="0.74" stop-color="#9DCB3B"/>
<stop offset="0.9" stop-color="#A6CE39"/>
<stop offset="1" stop-color="#A6CE39"/>
</linearGradient>
<linearGradient id="paint6_linear_1156_6016" x1="16.8735" y1="33.6544" x2="51.0655" y2="33.6544" gradientUnits="userSpaceOnUse">
<stop stop-color="#F0EFEF" stop-opacity="0"/>
<stop offset="0.61" stop-color="#FAFBFC" stop-opacity="0.4"/>
<stop offset="0.85" stop-color="white" stop-opacity="0.5"/>
<stop offset="1" stop-color="white" stop-opacity="0.9"/>
</linearGradient>
<linearGradient id="paint7_linear_1156_6016" x1="32.7435" y1="30.7567" x2="40.9878" y2="30.7567" gradientUnits="userSpaceOnUse">
<stop stop-color="#79A540"/>
<stop offset="0.2" stop-color="#94C63D"/>
<stop offset="0.39" stop-color="#98CA3C"/>
<stop offset="0.59" stop-color="#93C53E"/>
<stop offset="0.74" stop-color="#9DCB3B"/>
<stop offset="0.9" stop-color="#A6CE39"/>
<stop offset="1" stop-color="#A6CE39"/>
</linearGradient>
<linearGradient id="paint8_linear_1156_6016" x1="32.7435" y1="30.7566" x2="40.9878" y2="30.7566" gradientUnits="userSpaceOnUse">
<stop stop-color="#F0EFEF" stop-opacity="0"/>
<stop offset="0.61" stop-color="#FAFBFC" stop-opacity="0.4"/>
<stop offset="0.85" stop-color="white" stop-opacity="0.5"/>
<stop offset="1" stop-color="white" stop-opacity="0.9"/>
</linearGradient>
</defs>
</svg>
