<svg width="81" height="81" viewBox="0 0 81 81" fill="none" xmlns="http://www.w3.org/2000/svg">
<path d="M72.3561 22.2566C72.3561 22.2564 72.3561 22.2564 72.2311 22.2564H72.3561V22.1314H72.2311H3.80164H3.67664V22.2564V65.9752V65.9753C3.67844 67.5203 4.29296 69.0014 5.3854 70.0939C6.47785 71.1863 7.959 71.8008 9.50395 71.8026H9.50409V71.6776C9.50409 71.8026 9.5042 71.8026 9.50441 71.8026H9.50535H9.50692H9.50911H9.51192H9.51534H9.51939H9.52405H9.52931H9.53519H9.54167H9.54876H9.55645H9.56473H9.57362H9.58309H9.59316H9.60382H9.61506H9.62689H9.6393H9.65229H9.66585H9.68H9.69471H9.70999H9.72584H9.74226H9.75924H9.77678H9.79488H9.81353H9.83273H9.85249H9.8728H9.89365H9.91504H9.93698H9.95945H9.98246H10.006H10.0301H10.0547H10.0798H10.1055H10.1316H10.1583H10.1856H10.2133H10.2415H10.2703H10.2995H10.3293H10.3596H10.3903H10.4216H10.4534H10.4856H10.5184H10.5516H10.5853H10.6195H10.6542H10.6893H10.725H10.7611H10.7977H10.8347H10.8722H10.9102H10.9487H10.9876H11.0269H11.0667H11.107H11.1477H11.1889H11.2305H11.2725H11.315H11.358H11.4013H11.4451H11.4893H11.534H11.5791H11.6246H11.6705H11.7168H11.7636H11.8108H11.8584H11.9064H11.9548H12.0036H12.0528H13.8251H18.2813H20.8077H20.8885H20.9695H21.0505H21.1317H21.2129H21.2942H21.3756H21.457H21.5385H21.6201H21.7018H21.7835H21.8653H21.9471H22.029H22.111H22.193H22.275H22.3572H22.4393H22.5215H22.6038H22.686H22.7684H22.8507H22.9331H23.0155H23.0979H23.1804H23.2629H23.3454H23.4279H38.3186C38.5675 71.8026 38.7765 71.9841 38.9298 72.3231C39.0814 72.6586 39.1604 73.1149 39.1604 73.5784C39.1604 74.042 39.0814 74.4983 38.9298 74.8338C38.7765 75.1728 38.5675 75.3543 38.3186 75.3543H23.4279H23.3454H23.2629H23.1804H23.0979H23.0155H22.9331H22.8507H22.7684H22.686H22.6038H22.5215H22.4393H22.3572H22.275H22.193H22.111H22.029H21.9471H21.8653H21.7835H21.7018H21.6201H21.5385H21.457H21.3756H21.2942H21.2129H21.1317H21.0505H20.9695H20.8885H20.8077H18.2813H13.8251H12.0528H12.0036H11.9548H11.9064H11.8584H11.8108H11.7636H11.7168H11.6705H11.6246H11.5791H11.534H11.4893H11.4451H11.4013H11.358H11.315H11.2725H11.2305H11.1889H11.1477H11.107H11.0667H11.0269H10.9876H10.9487H10.9102H10.8722H10.8347H10.7977H10.7611H10.725H10.6893H10.6542H10.6195H10.5853H10.5516H10.5184H10.4856H10.4534H10.4216H10.3903H10.3596H10.3293H10.2995H10.2703H10.2415H10.2133H10.1856H10.1583H10.1316H10.1055H10.0798H10.0547H10.0301H10.006H9.98246H9.95945H9.93698H9.91504H9.89365H9.8728H9.85249H9.83273H9.81353H9.79488H9.77678H9.75924H9.74226H9.72584H9.70999H9.69471H9.68H9.66585H9.65229H9.6393H9.62689H9.61506H9.60382H9.59316H9.58309H9.57362H9.56473H9.55645H9.54876H9.54167H9.53519H9.52931H9.52405H9.51939H9.51534H9.51192H9.50911H9.50692H9.50535H9.50441C9.50432 75.3543 9.50426 75.3543 9.50421 75.3616L9.50422 75.3543C7.01746 75.3518 4.63326 74.3628 2.87485 72.6044C1.11645 70.846 0.127483 68.4618 0.125 65.975L0.125 16.554C0.127499 14.0672 1.11646 11.683 2.87485 9.92466C4.63326 8.16625 7.01746 7.17729 9.50422 7.1748L66.5286 7.1748C69.0153 7.1773 71.3995 8.16626 73.1579 9.92466C74.9163 11.6831 75.9053 14.0673 75.9077 16.554L75.9174 16.554C75.9077 16.5541 75.9077 16.5541 75.9077 16.5542V16.5553V16.557V16.5595V16.5626V16.5664V16.5709V16.576V16.5819V16.5884V16.5956V16.6035V16.612V16.6212V16.6311V16.6416V16.6527V16.6646V16.6771V16.6902V16.704V16.7184V16.7334V16.7491V16.7655V16.7824V16.8V16.8182V16.8371V16.8565V16.8766V16.8973V16.9187V16.9406V16.9631V16.9863V17.01V17.0344V17.0593V17.0848V17.111V17.1377V17.165V17.1929V17.2214V17.2504V17.2801V17.3103V17.3411V17.3724V17.4043V17.4368V17.4698V17.5034V17.5376V17.5723V17.6075V17.6433V17.6797V17.7166V17.754V17.792V17.8305V17.8695V17.9091V17.9491V17.9898V18.0309V18.0725V18.1147V18.1574V18.2006V18.2442V18.2884V18.3331V18.3783V18.424V18.4702V18.5169V18.5641V18.6117V18.6599V18.7085V18.7576V18.8072V18.8572V18.9078V18.9587V19.0102V19.0621V19.1145V19.1673V19.2206V19.2743V19.3285V19.3831V19.4382V19.4937V19.5497V19.6061V19.6629V19.7201V19.7778V19.8359V19.8945V19.9534V20.0128V20.0725V20.1327V20.1933V20.2543V20.3157V20.3776V20.4398V20.5024V20.5654V20.6287V20.6925V20.7567V20.8212V20.8861V20.9514V21.0171V21.0832V21.1496V21.2164V21.2835V21.351V21.4189V21.4871V21.5557V21.6246V21.6939V21.7635V21.8334V21.9037V21.9744V22.0453V22.1166V22.1883V22.2602V22.3325V22.4051V22.478V22.5512V22.6248V22.6987V22.7728V22.8473V22.9221V22.9971V23.0725V23.1482V23.2241V23.3004V23.3769V23.4537V23.5308V23.6082V23.6859V23.7638V23.842V23.9204V23.9992V24.0782V24.1574V24.2369V24.3167V24.3967V24.477V24.5575V24.6382V24.7192V24.8005V24.8819V24.9636V25.0456V25.1277V25.2101V25.2927V25.3756V25.4586V25.5419V25.6254V25.709V25.7929V25.877V25.9613V26.0458V26.1305V26.2154V26.3005V26.3857V26.4712V26.5568V26.6426V26.7286V26.8148V26.9011V26.9876V27.0743V27.1611V27.2481V27.3352V27.4226V27.51V27.5976V27.6854V27.7733V27.8614V27.9495V28.0379V28.1263V28.2149V28.3036V28.3925V28.4815V28.5706V28.6598V28.7491V28.8386V28.9281V29.0178V29.1075V29.1974V29.2874V29.3775V29.4676V29.5579V29.6482V29.7387V29.8292V29.9198V30.0105V30.1012V30.192V30.2829V30.3739V30.4649V30.556V30.6472V30.7384V30.8296V30.921V31.0123V31.1038V31.1952V31.2867V31.3783V31.4698V31.5614V31.6531V31.7447V31.8364V31.9282V32.0199V32.1116V32.2034V32.2952V32.387V32.4788V32.5706V32.6624V32.7542V32.846V32.9378V33.0296V33.1213V33.2131V33.3048V33.3966V33.4883V33.5799V33.6716V33.7632V33.8548V33.9463V34.0378V34.1293V34.2207V34.3121V34.4034V34.4947V34.5859V34.6771V34.7682V34.8593V34.9502V35.0412V35.132V35.2228V35.3135V35.4041V35.4946V35.5851V35.6754V35.7657V35.8559V35.946V36.036V36.1259V36.2156V36.3053V36.3949V36.4844V36.5737V36.663V36.7521V36.8411V36.93V37.0187V37.1073V37.1958V37.2842V37.3724V37.4605V37.5484V37.6362V37.7239V37.8114V37.8987V37.9859V38.0729V38.1598V38.2465V38.333V38.4194V38.5056V38.5916V38.6775V38.7631V38.8486V38.9339V39.019V39.104V39.1887V39.2732V39.3576V39.4417V39.5256V39.6093V39.6929V39.7762V39.8593V39.9421V40.0248V40.1072V40.1894V40.2714V40.3532V40.4347V40.516V40.597V40.6778V40.7584V40.8387V40.9188V40.9986V41.0782V41.1575V41.2365V41.3153V41.3938V41.4721V41.55V41.6278V41.7052V41.7824V41.8592V41.9358V42.0121V42.0881V42.1639V42.2393V42.3144V42.3893V42.4638V42.538V42.612V42.6856V42.7589V42.8319V42.9045V42.9769V43.0489V43.1206V43.192V43.263V43.3337V43.4041V43.4741V43.5438V43.6131V43.6821V43.7508V43.8191V43.887V43.9546V44.0218V44.0887V44.1552V44.2213V44.287V44.3524V44.4174V44.482V44.5463V44.6101V44.6736V44.7367V44.7994V44.8617V44.9235V44.985V45.0461V45.1068V45.1671V45.2269V45.2864V45.3454V45.404V45.4622V45.52V45.5774V45.6343V45.6907V45.7468V45.8024V45.8576V45.9123V45.9666V46.0204V46.0738V46.1267V46.1792V46.2312V46.2827V46.3338V46.3844V46.4346V46.4842V46.5334V46.5822V46.6304V46.6782V46.7254V46.7722V46.8185V46.8643V46.9096V46.9544V46.9987V47.0425V47.0858V47.1286V47.1709V47.2126V47.2539V47.2946V47.3348V47.3745V47.4136V47.4522V47.4903V47.5278V47.5648V47.6013V47.6372V47.6726V47.7074V47.7416V47.7754V47.8085V47.8411V47.8731V47.9046V47.9355V47.9658V47.9956V48.0248V48.0534V48.0814V48.1088V48.1357V48.1619V48.1876V48.2127V48.2371V48.261V48.2843V48.3069V48.329V48.3504V48.3713V48.3915V48.4111V48.4301V48.4484V48.4661V48.4832V48.4997V48.5155V48.5307V48.5453V48.5592V48.5724V48.585V48.597V48.6083V48.619V48.629V48.6383C75.9077 48.9609 75.7113 49.2137 75.3794 49.3926C75.0462 49.5722 74.5928 49.6657 74.1319 49.6657C73.671 49.6657 73.2177 49.5722 72.8844 49.3926C72.5526 49.2137 72.3561 48.9609 72.3561 48.6383V48.629V48.6192V48.6089V48.598V48.5867V48.5748V48.5623V48.5494V48.5359V48.522V48.5075V48.4925V48.477V48.461V48.4445V48.4274V48.4099V48.3919V48.3734V48.3544V48.3349V48.3149V48.2945V48.2735V48.2521V48.2302V48.2078V48.185V48.1616V48.1378V48.1135V48.0888V48.0636V48.0379V48.0118V47.9852V47.9582V47.9307V47.9027V47.8743V47.8455V47.8162V47.7865V47.7563V47.7257V47.6946V47.6632V47.6312V47.5989V47.5661V47.5329V47.4993V47.4652V47.4308V47.3959V47.3606V47.3249V47.2888V47.2522V47.2153V47.178V47.1402V47.1021V47.0635V47.0246V46.9853V46.9456V46.9054V46.865V46.8241V46.7828V46.7412V46.6991V46.6567V46.614V46.5708V46.5273V46.4834V46.4392V46.3945V46.3496V46.3042V46.2585V46.2125V46.1661V46.1194V46.0723V46.0248V45.977V45.9289V45.8804V45.8316V45.7825V45.733V45.6832V45.6331V45.5826V45.5318V45.4807V45.4293V45.3775V45.3255V45.2731V45.2204V45.1674V45.1141V45.0605V45.0066V44.9523V44.8978V44.843V44.7879V44.7325V44.6768V44.6208V44.5646V44.508V44.4512V44.3941V44.3367V44.279V44.2211V44.1629V44.1044V44.0457V43.9867V43.9274V43.8679V43.8081V43.7481V43.6878V43.6272V43.5664V43.5054V43.4441V43.3826V43.3208V43.2588V43.1965V43.1341V43.0714V43.0084V42.9452V42.8818V42.8182V42.7544V42.6903V42.626V42.5616V42.4968V42.4319V42.3668V42.3015V42.2359V42.1702V42.1043V42.0381V41.9718V41.9053V41.8386V41.7717V41.7046V41.6373V41.5698V41.5022V41.4344V41.3664V41.2982V41.2299V41.1614V41.0927V41.0239V40.9549V40.8857V40.8164V40.7469V40.6773V40.6075V40.5375V40.4675V40.3972V40.3268V40.2563V40.1857V40.1149V40.0439V39.9729V39.9017V39.8304V39.7589V39.6873V39.6156V39.5438V39.4719V39.3998V39.3277V39.2554V39.183V39.1105V39.0379V38.9652V38.8924V38.8195V38.7465V38.6734V38.6003V38.527V38.4536V38.3802V38.3066V38.233V38.1593V38.0856V38.0117V37.9378V37.8638V37.7898V37.7157V37.6415V37.5672V37.4929V37.4185V37.3441V37.2696V37.1951V37.1205V37.0459V36.9713V36.8965V36.8218V36.747V36.6722V36.5973V36.5224V36.4475V36.3726V36.2976V36.2226V36.1476V36.0725V35.9975V35.9224V35.8473V35.7722V35.6971V35.622V35.5469V35.4718V35.3967V35.3216V35.2465V35.1714V35.0963V35.0212V34.9462V34.8711V34.7961V34.7211V34.6461V34.5711V34.4962V34.4213V34.3464V34.2715V34.1967V34.122V34.0472V33.9725V33.8979V33.8233V33.7487V33.6742V33.5997V33.5253V33.451V33.3767V33.3025V33.2283V33.1542V33.0802V33.0062V32.9323V32.8585V32.7848V32.7111V32.6375V32.564V32.4906V32.4173V32.344V32.2709V32.1978V32.1248V32.052V31.9792V31.9065V31.834V31.7615V31.6892V31.6169V31.5448V31.4728V31.4009V31.3291V31.2575V31.1859V31.1145V31.0433V30.9721V30.9011V30.8302V30.7595V30.6888V30.6184V30.548V30.4779V30.4078V30.3379V30.2682V30.1986V30.1292V30.0599V29.9908V29.9219V29.8531V29.7845V29.716V29.6477V29.5796V29.5117V29.4439V29.3764V29.309V29.2417V29.1747V29.1079V29.0412V28.9748V28.9085V28.8424V28.7766V28.7109V28.6454V28.5802V28.5151V28.4503V28.3856V28.3212V28.257V28.193V28.1293V28.0657V28.0024V27.9393V27.8764V27.8138V27.7514V27.6892V27.6273V27.5656V27.5042V27.443V27.382V27.3213V27.2608V27.2006V27.1407V27.081V27.0215V26.9624V26.9034V26.8448V26.7864V26.7283V26.6705V26.6129V26.5556V26.4986V26.4418V26.3854V26.3292V26.2733V26.2178V26.1625V26.1074V26.0527V25.9983V25.9442V25.8904V25.8369V25.7837V25.7308V25.6782V25.6259V25.574V25.5223V25.471V25.42V25.3693V25.319V25.2689V25.2192V25.1699V25.1209V25.0722V25.0238V24.9758V24.9281V24.8808V24.8338V24.7872V24.7409V24.695V24.6494V24.6042V24.5593V24.5149V24.4707V24.427V24.3836V24.3405V24.2979V24.2556V24.2137V24.1722V24.1311V24.0903V24.05V24.01V23.9704V23.9312V23.8924V23.854V23.816V23.7784V23.7412V23.7044V23.668V23.632V23.5964V23.5613V23.5265V23.4922V23.4583V23.4248V23.3918V23.3591V23.3269V23.2952V23.2638V23.2329V23.2025V23.1724V23.1428V23.1137V23.085V23.0568V23.029V23.0016V22.9747V22.9483V22.9223V22.8968V22.8718V22.8472V22.8231V22.7994V22.7763V22.7536V22.7313V22.7096V22.6883V22.6675V22.6472V22.6274V22.6081V22.5893V22.5709V22.5531V22.5358V22.5189V22.5026V22.4867V22.4714V22.4566V22.4423V22.4285V22.4152V22.4024V22.3901V22.3784V22.3672V22.3565V22.3464V22.3368V22.3277V22.3191V22.3111V22.3036V22.2967V22.2903V22.2844V22.2791V22.2744V22.2702V22.2665V22.2634V22.2609V22.2589V22.2575V22.2566ZM9.50409 10.7264H9.50395C7.959 10.7282 6.47785 11.3428 5.3854 12.4352C4.29296 13.5276 3.67844 15.0088 3.67664 16.5538V16.5539V18.4547V18.5797H3.80164H72.2311H72.3561V18.4547V16.5539V16.5538C72.3543 15.0088 71.7398 13.5277 70.6473 12.4352C69.5549 11.3428 68.0737 10.7282 66.5288 10.7264H66.5286H9.50409Z" fill="url(#paint0_linear_1156_6015)" stroke="url(#paint1_linear_1156_6015)" stroke-width="0.25"/>
<path d="M31.0979 31.7679C30.0229 30.65 28.7434 29.7634 27.3338 29.1593C25.9241 28.5553 24.4122 28.2459 22.8857 28.249H22.8478C19.7498 28.2732 16.7872 29.5618 14.6078 31.8332C12.4284 34.1045 11.2096 37.1737 11.2181 40.3695V42.8457C11.2197 43.3015 11.396 43.738 11.7084 44.0603C12.0208 44.3825 12.444 44.5643 12.8858 44.566H32.8288C33.2701 44.5626 33.6924 44.3803 34.0044 44.0584C34.3165 43.7365 34.4932 43.3009 34.4965 42.8457V40.2392C34.4998 38.6657 34.2013 37.1071 33.618 35.6532C33.0347 34.1992 32.1782 32.8788 31.0979 31.7679ZM32.8541 42.8457H21.995L27.6804 34.7785C27.7476 34.6877 27.7968 34.5843 27.8252 34.4739C27.8537 34.3636 27.8607 34.2486 27.8461 34.1354C27.8314 34.0223 27.7953 33.9132 27.7398 33.8145C27.6842 33.7157 27.6104 33.6292 27.5225 33.5599C27.4345 33.4906 27.3342 33.4398 27.2273 33.4105C27.1203 33.3812 27.0088 33.3738 26.8991 33.389C26.7894 33.4041 26.6837 33.4414 26.5879 33.4986C26.4922 33.5559 26.4084 33.6321 26.3412 33.7228L19.942 42.8457H12.8858V40.3695C12.8858 40.0437 12.8858 39.7179 12.93 39.392H15.3747C15.4899 39.4024 15.6059 39.388 15.7154 39.3496C15.8248 39.3113 15.9254 39.2498 16.0106 39.1693C16.0959 39.0887 16.1639 38.9907 16.2105 38.8815C16.257 38.7724 16.2811 38.6544 16.2811 38.5351C16.2811 38.4159 16.257 38.2979 16.2105 38.1888C16.1639 38.0796 16.0959 37.9816 16.0106 37.901C15.9254 37.8204 15.8248 37.759 15.7154 37.7207C15.6059 37.6823 15.4899 37.6679 15.3747 37.6782H13.2206C13.7472 35.6205 14.8746 33.7796 16.4499 32.4053C18.0251 31.0309 19.9721 30.1896 22.0266 29.9954V32.5303C22.0247 32.646 22.0459 32.7609 22.0888 32.8678C22.1316 32.9748 22.1952 33.0715 22.2757 33.1521C22.3562 33.2327 22.4519 33.2955 22.5568 33.3364C22.6617 33.3774 22.7737 33.3958 22.8857 33.3905C22.9955 33.3913 23.1043 33.3697 23.2058 33.3268C23.3074 33.2838 23.3996 33.2205 23.4772 33.1405C23.5548 33.0604 23.6162 32.9652 23.6578 32.8605C23.6994 32.7557 23.7204 32.6435 23.7196 32.5303V29.9954C25.7841 30.1717 27.7444 31.0059 29.3289 32.3824C30.9134 33.7589 32.0438 35.6096 32.5635 37.6782H30.3399C30.2247 37.6679 30.1087 37.6823 29.9992 37.7207C29.8897 37.759 29.7892 37.8204 29.704 37.901C29.6187 37.9816 29.5507 38.0796 29.5041 38.1888C29.4576 38.2979 29.4335 38.4159 29.4335 38.5351C29.4335 38.6544 29.4576 38.7724 29.5041 38.8815C29.5507 38.9907 29.6187 39.0887 29.704 39.1693C29.7892 39.2498 29.8897 39.3113 29.9992 39.3496C30.1087 39.388 30.2247 39.4024 30.3399 39.392H32.7972C32.7972 39.6788 32.8288 39.959 32.8288 40.2522L32.8541 42.8457Z" fill="url(#paint2_linear_1156_6015)"/>
<path d="M31.0979 31.7679C30.0229 30.65 28.7434 29.7634 27.3338 29.1593C25.9241 28.5553 24.4122 28.2459 22.8857 28.249H22.8478C19.7498 28.2732 16.7872 29.5618 14.6078 31.8332C12.4284 34.1045 11.2096 37.1737 11.2181 40.3695V42.8457C11.2197 43.3015 11.396 43.738 11.7084 44.0603C12.0208 44.3825 12.444 44.5643 12.8858 44.566H32.8288C33.2701 44.5626 33.6924 44.3803 34.0044 44.0584C34.3165 43.7365 34.4932 43.3009 34.4965 42.8457V40.2392C34.4998 38.6657 34.2013 37.1071 33.618 35.6532C33.0347 34.1992 32.1782 32.8788 31.0979 31.7679ZM32.8541 42.8457H21.995L27.6804 34.7785C27.7476 34.6877 27.7968 34.5843 27.8252 34.4739C27.8537 34.3636 27.8607 34.2486 27.8461 34.1354C27.8314 34.0223 27.7953 33.9132 27.7398 33.8145C27.6842 33.7157 27.6104 33.6292 27.5225 33.5599C27.4345 33.4906 27.3342 33.4398 27.2273 33.4105C27.1203 33.3812 27.0088 33.3738 26.8991 33.389C26.7894 33.4041 26.6837 33.4414 26.5879 33.4986C26.4922 33.5559 26.4084 33.6321 26.3412 33.7228L19.942 42.8457H12.8858V40.3695C12.8858 40.0437 12.8858 39.7179 12.93 39.392H15.3747C15.4899 39.4024 15.6059 39.388 15.7154 39.3496C15.8248 39.3113 15.9254 39.2498 16.0106 39.1693C16.0959 39.0887 16.1639 38.9907 16.2105 38.8815C16.257 38.7724 16.2811 38.6544 16.2811 38.5351C16.2811 38.4159 16.257 38.2979 16.2105 38.1888C16.1639 38.0796 16.0959 37.9816 16.0106 37.901C15.9254 37.8204 15.8248 37.759 15.7154 37.7207C15.6059 37.6823 15.4899 37.6679 15.3747 37.6782H13.2206C13.7472 35.6205 14.8746 33.7796 16.4499 32.4053C18.0251 31.0309 19.9721 30.1896 22.0266 29.9954V32.5303C22.0247 32.646 22.0459 32.7609 22.0888 32.8678C22.1316 32.9748 22.1952 33.0715 22.2757 33.1521C22.3562 33.2327 22.4519 33.2955 22.5568 33.3364C22.6617 33.3774 22.7737 33.3958 22.8857 33.3905C22.9955 33.3913 23.1043 33.3697 23.2058 33.3268C23.3074 33.2838 23.3996 33.2205 23.4772 33.1405C23.5548 33.0604 23.6162 32.9652 23.6578 32.8605C23.6994 32.7557 23.7204 32.6435 23.7196 32.5303V29.9954C25.7841 30.1717 27.7444 31.0059 29.3289 32.3824C30.9134 33.7589 32.0438 35.6096 32.5635 37.6782H30.3399C30.2247 37.6679 30.1087 37.6823 29.9992 37.7207C29.8897 37.759 29.7892 37.8204 29.704 37.901C29.6187 37.9816 29.5507 38.0796 29.5041 38.1888C29.4576 38.2979 29.4335 38.4159 29.4335 38.5351C29.4335 38.6544 29.4576 38.7724 29.5041 38.8815C29.5507 38.9907 29.6187 39.0887 29.704 39.1693C29.7892 39.2498 29.8897 39.3113 29.9992 39.3496C30.1087 39.388 30.2247 39.4024 30.3399 39.392H32.7972C32.7972 39.6788 32.8288 39.959 32.8288 40.2522L32.8541 42.8457Z" fill="url(#paint3_linear_1156_6015)"/>
<path d="M31.0974 31.7679C30.0232 30.6489 28.7439 29.7615 27.334 29.1573C25.9241 28.5532 24.4118 28.2445 22.8852 28.2491C19.7872 28.2732 16.8245 29.5618 14.6451 31.8332C12.4657 34.1045 11.247 37.1737 11.2554 40.3695V42.8457C11.2554 43.0708 11.2983 43.2937 11.3818 43.5017C11.4652 43.7096 11.5876 43.8986 11.7418 44.0578C11.895 44.219 12.0778 44.347 12.2796 44.4342C12.4814 44.5215 12.698 44.5664 12.9168 44.5661H32.8662C33.3069 44.5626 33.7285 44.3801 34.0395 44.058C34.3505 43.736 34.5259 43.3004 34.5276 42.8457V40.2392C34.5267 38.6634 34.2232 37.1034 33.6344 35.6494C33.0457 34.1954 32.1834 32.8761 31.0974 31.7679ZM32.8662 42.8457H22.0324L27.7177 34.7785C27.7853 34.6866 27.8337 34.5812 27.8598 34.4691C27.8859 34.3569 27.8891 34.2404 27.8694 34.1268C27.8501 33.9563 27.7814 33.7956 27.6723 33.6659C27.5632 33.5362 27.4186 33.4435 27.2576 33.3999C27.0966 33.3562 26.9266 33.3637 26.7697 33.4213C26.6129 33.479 26.4766 33.584 26.3785 33.7228L19.973 42.8457H12.9168V40.3695C12.9168 40.0437 12.9168 39.7179 12.961 39.3921H15.4121C15.6316 39.3912 15.8423 39.3025 15.9995 39.1445C16.0773 39.0645 16.139 38.9696 16.181 38.865C16.2231 38.7605 16.2448 38.6484 16.2448 38.5352C16.2448 38.422 16.2231 38.3099 16.181 38.2053C16.139 38.1008 16.0773 38.0058 15.9995 37.9259C15.8423 37.7679 15.6316 37.6791 15.4121 37.6783H13.2579C13.7845 35.6205 14.9119 33.7797 16.4872 32.4053C18.0625 31.031 20.0094 30.1897 22.0639 29.9955V32.5303C22.0628 32.6437 22.0835 32.7562 22.1247 32.8613C22.1659 32.9664 22.2268 33.0621 22.304 33.1429C22.4613 33.3009 22.6719 33.3897 22.8915 33.3905C23.0012 33.3914 23.11 33.3697 23.2116 33.3268C23.3131 33.2839 23.4054 33.2205 23.483 33.1405C23.5606 33.0604 23.622 32.9653 23.6636 32.8605C23.7052 32.7558 23.7262 32.6435 23.7253 32.5303V29.9955C25.789 30.1746 27.7479 31.0098 29.3319 32.3858C30.9159 33.7619 32.0471 35.6111 32.5693 37.6783H30.3709C30.1514 37.6791 29.9407 37.7679 29.7834 37.9259C29.6295 38.0889 29.5433 38.3076 29.5433 38.5352C29.5433 38.7628 29.6295 38.9814 29.7834 39.1445C29.9407 39.3025 30.1514 39.3912 30.3709 39.3921H32.8346C32.8346 39.6788 32.8346 39.959 32.8346 40.2522L32.8662 42.8457Z" fill="url(#paint4_linear_1156_6015)"/>
<path d="M31.0974 31.7679C30.0232 30.6489 28.7439 29.7615 27.334 29.1573C25.9241 28.5532 24.4118 28.2445 22.8852 28.2491C19.7872 28.2732 16.8245 29.5618 14.6451 31.8332C12.4657 34.1045 11.247 37.1737 11.2554 40.3695V42.8457C11.2554 43.0708 11.2983 43.2937 11.3818 43.5017C11.4652 43.7096 11.5876 43.8986 11.7418 44.0578C11.895 44.219 12.0778 44.347 12.2796 44.4342C12.4814 44.5215 12.698 44.5664 12.9168 44.5661H32.8662C33.3069 44.5626 33.7285 44.3801 34.0395 44.058C34.3505 43.736 34.5259 43.3004 34.5276 42.8457V40.2392C34.5267 38.6634 34.2232 37.1034 33.6344 35.6494C33.0457 34.1954 32.1834 32.8761 31.0974 31.7679ZM32.8662 42.8457H22.0324L27.7177 34.7785C27.7853 34.6866 27.8337 34.5812 27.8598 34.4691C27.8859 34.3569 27.8891 34.2404 27.8694 34.1268C27.8501 33.9563 27.7814 33.7956 27.6723 33.6659C27.5632 33.5362 27.4186 33.4435 27.2576 33.3999C27.0966 33.3562 26.9266 33.3637 26.7697 33.4213C26.6129 33.479 26.4766 33.584 26.3785 33.7228L19.973 42.8457H12.9168V40.3695C12.9168 40.0437 12.9168 39.7179 12.961 39.3921H15.4121C15.6316 39.3912 15.8423 39.3025 15.9995 39.1445C16.0773 39.0645 16.139 38.9696 16.181 38.865C16.2231 38.7605 16.2448 38.6484 16.2448 38.5352C16.2448 38.422 16.2231 38.3099 16.181 38.2053C16.139 38.1008 16.0773 38.0058 15.9995 37.9259C15.8423 37.7679 15.6316 37.6791 15.4121 37.6783H13.2579C13.7845 35.6205 14.9119 33.7797 16.4872 32.4053C18.0625 31.031 20.0094 30.1897 22.0639 29.9955V32.5303C22.0628 32.6437 22.0835 32.7562 22.1247 32.8613C22.1659 32.9664 22.2268 33.0621 22.304 33.1429C22.4613 33.3009 22.6719 33.3897 22.8915 33.3905C23.0012 33.3914 23.11 33.3697 23.2116 33.3268C23.3131 33.2839 23.4054 33.2205 23.483 33.1405C23.5606 33.0604 23.622 32.9653 23.6636 32.8605C23.7052 32.7558 23.7262 32.6435 23.7253 32.5303V29.9955C25.789 30.1746 27.7479 31.0098 29.3319 32.3858C30.9159 33.7619 32.0471 35.6111 32.5693 37.6783H30.3709C30.1514 37.6791 29.9407 37.7679 29.7834 37.9259C29.6295 38.0889 29.5433 38.3076 29.5433 38.5352C29.5433 38.7628 29.6295 38.9814 29.7834 39.1445C29.9407 39.3025 30.1514 39.3912 30.3709 39.3921H32.8346C32.8346 39.6788 32.8346 39.959 32.8346 40.2522L32.8662 42.8457Z" fill="url(#paint5_linear_1156_6015)"/>
<path d="M31.0974 31.7679C30.0232 30.6489 28.7439 29.7615 27.334 29.1573C25.9241 28.5532 24.4118 28.2445 22.8852 28.2491C19.7872 28.2732 16.8245 29.5618 14.6451 31.8332C12.4657 34.1045 11.247 37.1737 11.2554 40.3695V42.8457C11.2554 43.0708 11.2983 43.2937 11.3818 43.5017C11.4652 43.7096 11.5876 43.8986 11.7418 44.0578C11.895 44.219 12.0778 44.347 12.2796 44.4342C12.4814 44.5215 12.698 44.5664 12.9168 44.5661H32.8662C33.3069 44.5626 33.7285 44.3801 34.0395 44.058C34.3505 43.736 34.5259 43.3004 34.5276 42.8457V40.2392C34.5267 38.6634 34.2232 37.1034 33.6344 35.6494C33.0457 34.1954 32.1834 32.8761 31.0974 31.7679ZM32.8662 42.8457H22.0324L27.7177 34.7785C27.7853 34.6866 27.8337 34.5812 27.8598 34.4691C27.8859 34.3569 27.8891 34.2404 27.8694 34.1268C27.8501 33.9563 27.7814 33.7956 27.6723 33.6659C27.5632 33.5362 27.4186 33.4435 27.2576 33.3999C27.0966 33.3562 26.9266 33.3637 26.7697 33.4213C26.6129 33.479 26.4766 33.584 26.3785 33.7228L19.973 42.8457H12.9168V40.3695C12.9168 40.0437 12.9168 39.7179 12.961 39.3921H15.4121C15.6316 39.3912 15.8423 39.3025 15.9995 39.1445C16.0773 39.0645 16.139 38.9696 16.181 38.865C16.2231 38.7605 16.2448 38.6484 16.2448 38.5352C16.2448 38.422 16.2231 38.3099 16.181 38.2053C16.139 38.1008 16.0773 38.0058 15.9995 37.9259C15.8423 37.7679 15.6316 37.6791 15.4121 37.6783H13.2579C13.7845 35.6205 14.9119 33.7797 16.4872 32.4053C18.0625 31.031 20.0094 30.1897 22.0639 29.9955V32.5303C22.0628 32.6437 22.0835 32.7562 22.1247 32.8613C22.1659 32.9664 22.2268 33.0621 22.304 33.1429C22.4613 33.3009 22.6719 33.3897 22.8915 33.3905C23.0012 33.3914 23.11 33.3697 23.2116 33.3268C23.3131 33.2839 23.4054 33.2205 23.483 33.1405C23.5606 33.0604 23.622 32.9653 23.6636 32.8605C23.7052 32.7558 23.7262 32.6435 23.7253 32.5303V29.9955C25.789 30.1746 27.7479 31.0098 29.3319 32.3858C30.9159 33.7619 32.0471 35.6111 32.5693 37.6783H30.3709C30.1514 37.6791 29.9407 37.7679 29.7834 37.9259C29.6295 38.0889 29.5433 38.3076 29.5433 38.5352C29.5433 38.7628 29.6295 38.9814 29.7834 39.1445C29.9407 39.3025 30.1514 39.3912 30.3709 39.3921H32.8346C32.8346 39.6788 32.8346 39.959 32.8346 40.2522L32.8662 42.8457Z" stroke="url(#paint6_linear_1156_6015)" stroke-width="0.25" stroke-miterlimit="10"/>
<path d="M26.8855 55.0589H23.4673V51.6406C23.4673 51.4666 23.3981 51.2997 23.2751 51.1767C23.1521 51.0537 22.9852 50.9845 22.8112 50.9845H12.5302V50.3285C12.5302 50.1544 12.4611 49.9876 12.338 49.8645C12.215 49.7415 12.0481 49.6724 11.8741 49.6724C11.7001 49.6724 11.5332 49.7415 11.4102 49.8645C11.2871 49.9876 11.218 50.1544 11.218 50.3285V65.3136C11.2274 65.4845 11.2996 65.646 11.4207 65.767C11.5417 65.8881 11.7032 65.9602 11.8741 65.9696C12.0481 65.9696 12.215 65.9005 12.338 65.7775C12.4611 65.6544 12.5302 65.4876 12.5302 65.3136V64.6575H20.049C20.1396 64.6589 20.2295 64.6416 20.3131 64.6066C20.3966 64.5716 20.472 64.5197 20.5345 64.4541C20.6615 64.3245 20.7322 64.15 20.7314 63.9686V60.5569H26.8855C26.9761 60.5584 27.066 60.541 27.1495 60.506C27.2331 60.471 27.3085 60.4191 27.371 60.3535C27.498 60.2239 27.5687 60.0494 27.5678 59.868V55.7543C27.5678 55.5803 27.4987 55.4134 27.3757 55.2904C27.2526 55.1674 27.0858 55.0982 26.9117 55.0982L26.8855 55.0589ZM22.1026 52.3295V55.0589H12.5302V52.3295H22.1026ZM19.3667 63.26H12.5302V60.5307H19.3667V63.26ZM26.2032 59.1594H12.5302V56.4104H26.2032V59.1594Z" fill="url(#paint7_linear_1156_6015)"/>
<path d="M26.8855 55.0589H23.4673V51.6406C23.4673 51.4666 23.3981 51.2997 23.2751 51.1767C23.1521 51.0537 22.9852 50.9845 22.8112 50.9845H12.5302V50.3285C12.5302 50.1544 12.4611 49.9876 12.338 49.8645C12.215 49.7415 12.0481 49.6724 11.8741 49.6724C11.7001 49.6724 11.5332 49.7415 11.4102 49.8645C11.2871 49.9876 11.218 50.1544 11.218 50.3285V65.3136C11.2274 65.4845 11.2996 65.646 11.4207 65.767C11.5417 65.8881 11.7032 65.9602 11.8741 65.9696C12.0481 65.9696 12.215 65.9005 12.338 65.7775C12.4611 65.6544 12.5302 65.4876 12.5302 65.3136V64.6575H20.049C20.1396 64.6589 20.2295 64.6416 20.3131 64.6066C20.3966 64.5716 20.472 64.5197 20.5345 64.4541C20.6615 64.3245 20.7322 64.15 20.7314 63.9686V60.5569H26.8855C26.9761 60.5584 27.066 60.541 27.1495 60.506C27.2331 60.471 27.3085 60.4191 27.371 60.3535C27.498 60.2239 27.5687 60.0494 27.5678 59.868V55.7543C27.5678 55.5803 27.4987 55.4134 27.3757 55.2904C27.2526 55.1674 27.0858 55.0982 26.9117 55.0982L26.8855 55.0589ZM22.1026 52.3295V55.0589H12.5302V52.3295H22.1026ZM19.3667 63.26H12.5302V60.5307H19.3667V63.26ZM26.2032 59.1594H12.5302V56.4104H26.2032V59.1594Z" fill="url(#paint8_linear_1156_6015)"/>
<path d="M26.8855 55.0975H23.4673V51.6596C23.4654 51.4786 23.3951 51.3052 23.2704 51.174C23.1401 51.0482 22.9661 50.9777 22.7849 50.9772H12.5302V50.3211C12.5302 50.1471 12.4611 49.9802 12.338 49.8572C12.215 49.7342 12.0481 49.665 11.8741 49.665C11.7001 49.665 11.5332 49.7342 11.4102 49.8572C11.2871 49.9802 11.218 50.1471 11.218 50.3211V65.3259C11.2274 65.4969 11.2996 65.6583 11.4207 65.7794C11.5417 65.9004 11.7032 65.9726 11.8741 65.982C11.9647 65.9835 12.0546 65.9661 12.1382 65.9311C12.2217 65.8961 12.2971 65.8442 12.3596 65.7786C12.4866 65.649 12.5573 65.4745 12.5564 65.2931V64.637H20.049C20.223 64.637 20.3899 64.5679 20.5129 64.4449C20.636 64.3218 20.7051 64.1549 20.7051 63.9809V60.543H26.8593C27.0333 60.543 27.2001 60.4739 27.3232 60.3509C27.4462 60.2278 27.5153 60.0609 27.5153 59.8869V55.7536C27.5135 55.5726 27.4432 55.3992 27.3185 55.268C27.1978 55.1636 27.045 55.1034 26.8855 55.0975ZM22.1026 52.3419V55.0975H12.5302V52.3419H22.1026ZM19.3667 63.2789H12.5302V60.543H19.3667V63.2789ZM26.2032 59.1783H12.5302V56.4425H26.2032V59.1783Z" fill="url(#paint9_linear_1156_6015)"/>
<path d="M26.8855 55.0975H23.4673V51.6596C23.4654 51.4786 23.3951 51.3052 23.2704 51.174C23.1401 51.0482 22.9661 50.9777 22.7849 50.9772H12.5302V50.3211C12.5302 50.1471 12.4611 49.9802 12.338 49.8572C12.215 49.7342 12.0481 49.665 11.8741 49.665C11.7001 49.665 11.5332 49.7342 11.4102 49.8572C11.2871 49.9802 11.218 50.1471 11.218 50.3211V65.3259C11.2274 65.4969 11.2996 65.6583 11.4207 65.7794C11.5417 65.9004 11.7032 65.9726 11.8741 65.982C11.9647 65.9835 12.0546 65.9661 12.1382 65.9311C12.2217 65.8961 12.2971 65.8442 12.3596 65.7786C12.4866 65.649 12.5573 65.4745 12.5564 65.2931V64.637H20.049C20.223 64.637 20.3899 64.5679 20.5129 64.4449C20.636 64.3218 20.7051 64.1549 20.7051 63.9809V60.543H26.8593C27.0333 60.543 27.2001 60.4739 27.3232 60.3509C27.4462 60.2278 27.5153 60.0609 27.5153 59.8869V55.7536C27.5135 55.5726 27.4432 55.3992 27.3185 55.268C27.1978 55.1636 27.045 55.1034 26.8855 55.0975ZM22.1026 52.3419V55.0975H12.5302V52.3419H22.1026ZM19.3667 63.2789H12.5302V60.543H19.3667V63.2789ZM26.2032 59.1783H12.5302V56.4425H26.2032V59.1783Z" fill="url(#paint10_linear_1156_6015)"/>
<path d="M26.8855 55.0975H23.4673V51.6596C23.4654 51.4786 23.3951 51.3052 23.2704 51.174C23.1401 51.0482 22.9661 50.9777 22.7849 50.9772H12.5302V50.3211C12.5302 50.1471 12.4611 49.9802 12.338 49.8572C12.215 49.7342 12.0481 49.665 11.8741 49.665C11.7001 49.665 11.5332 49.7342 11.4102 49.8572C11.2871 49.9802 11.218 50.1471 11.218 50.3211V65.3259C11.2274 65.4969 11.2996 65.6583 11.4207 65.7794C11.5417 65.9004 11.7032 65.9726 11.8741 65.982C11.9647 65.9835 12.0546 65.9661 12.1382 65.9311C12.2217 65.8961 12.2971 65.8442 12.3596 65.7786C12.4866 65.649 12.5573 65.4745 12.5564 65.2931V64.637H20.049C20.223 64.637 20.3899 64.5679 20.5129 64.4449C20.636 64.3218 20.7051 64.1549 20.7051 63.9809V60.543H26.8593C27.0333 60.543 27.2001 60.4739 27.3232 60.3509C27.4462 60.2278 27.5153 60.0609 27.5153 59.8869V55.7536C27.5135 55.5726 27.4432 55.3992 27.3185 55.268C27.1978 55.1636 27.045 55.1034 26.8855 55.0975ZM22.1026 52.3419V55.0975H12.5302V52.3419H22.1026ZM19.3667 63.2789H12.5302V60.543H19.3667V63.2789ZM26.2032 59.1783H12.5302V56.4425H26.2032V59.1783Z" stroke="url(#paint11_linear_1156_6015)" stroke-width="0.25" stroke-miterlimit="10"/>
<path d="M66.0527 43.8285C66.0531 43.9261 66.0336 44.0227 65.9955 44.1125C65.9573 44.2022 65.9013 44.2833 65.8308 44.3507C65.6918 44.4883 65.5042 44.5657 65.3086 44.5661H47.5099C47.3126 44.5647 47.1234 44.4876 46.9813 44.3507C46.8436 44.2117 46.7662 44.0241 46.7659 43.8285V28.9931C46.7659 28.7958 46.8443 28.6065 46.9838 28.467C47.1233 28.3274 47.3126 28.249 47.5099 28.249C47.6075 28.2486 47.7041 28.2681 47.7939 28.3062C47.8836 28.3444 47.9647 28.4004 48.0321 28.4709C48.1697 28.6099 48.2471 28.7975 48.2475 28.9931V39.0835L52.9141 34.4169C52.9844 34.3486 53.0661 34.2934 53.1556 34.2537C53.2464 34.2149 53.3441 34.195 53.4428 34.195C53.5396 34.1935 53.6354 34.2136 53.7235 34.2537C53.8147 34.2901 53.8971 34.3458 53.965 34.4169L56.406 36.8579L61.2946 31.9758H59.3757C59.1784 31.9758 58.9891 31.8974 58.8496 31.7579C58.7101 31.6184 58.6317 31.4291 58.6317 31.2318C58.6317 31.0344 58.7101 30.8452 58.8496 30.7057C58.9891 30.5661 59.1784 30.4877 59.3757 30.4877H63.083C63.2826 30.4912 63.4728 30.5733 63.6122 30.7164C63.7516 30.8594 63.8288 31.0517 63.827 31.2514V34.9586C63.827 35.1559 63.7486 35.3452 63.6091 35.4847C63.4696 35.6243 63.2803 35.7027 63.083 35.7027C62.8856 35.7027 62.6964 35.6243 62.5568 35.4847C62.4173 35.3452 62.3389 35.1559 62.3389 34.9586V33.0071L56.9347 38.4309C56.8656 38.5005 56.7836 38.5559 56.6932 38.594C56.6011 38.6276 56.504 38.6453 56.406 38.6463C56.3101 38.6453 56.2151 38.6277 56.1254 38.594C56.035 38.5559 55.9529 38.5005 55.8839 38.4309L53.4428 35.9898L48.2214 41.2113V43.1302H65.3086C65.5059 43.1302 65.6952 43.2086 65.8347 43.3481C65.9743 43.4876 66.0527 43.6769 66.0527 43.8742V43.8285Z" fill="url(#paint12_linear_1156_6015)"/>
<path d="M66.0527 43.8285C66.0531 43.9261 66.0336 44.0227 65.9955 44.1125C65.9573 44.2022 65.9013 44.2833 65.8308 44.3507C65.6918 44.4883 65.5042 44.5657 65.3086 44.5661H47.5099C47.3126 44.5647 47.1234 44.4876 46.9813 44.3507C46.8436 44.2117 46.7662 44.0241 46.7659 43.8285V28.9931C46.7659 28.7958 46.8443 28.6065 46.9838 28.467C47.1233 28.3274 47.3126 28.249 47.5099 28.249C47.6075 28.2486 47.7041 28.2681 47.7939 28.3062C47.8836 28.3444 47.9647 28.4004 48.0321 28.4709C48.1697 28.6099 48.2471 28.7975 48.2475 28.9931V39.0835L52.9141 34.4169C52.9844 34.3486 53.0661 34.2934 53.1556 34.2537C53.2464 34.2149 53.3441 34.195 53.4428 34.195C53.5396 34.1935 53.6354 34.2136 53.7235 34.2537C53.8147 34.2901 53.8971 34.3458 53.965 34.4169L56.406 36.8579L61.2946 31.9758H59.3757C59.1784 31.9758 58.9891 31.8974 58.8496 31.7579C58.7101 31.6184 58.6317 31.4291 58.6317 31.2318C58.6317 31.0344 58.7101 30.8452 58.8496 30.7057C58.9891 30.5661 59.1784 30.4877 59.3757 30.4877H63.083C63.2826 30.4912 63.4728 30.5733 63.6122 30.7164C63.7516 30.8594 63.8288 31.0517 63.827 31.2514V34.9586C63.827 35.1559 63.7486 35.3452 63.6091 35.4847C63.4696 35.6243 63.2803 35.7027 63.083 35.7027C62.8856 35.7027 62.6964 35.6243 62.5568 35.4847C62.4173 35.3452 62.3389 35.1559 62.3389 34.9586V33.0071L56.9347 38.4309C56.8656 38.5005 56.7836 38.5559 56.6932 38.594C56.6011 38.6276 56.504 38.6453 56.406 38.6463C56.3101 38.6453 56.2151 38.6277 56.1254 38.594C56.035 38.5559 55.9529 38.5005 55.8839 38.4309L53.4428 35.9898L48.2214 41.2113V43.1302H65.3086C65.5059 43.1302 65.6952 43.2086 65.8347 43.3481C65.9743 43.4876 66.0527 43.6769 66.0527 43.8742V43.8285Z" fill="url(#paint13_linear_1156_6015)"/>
<path d="M66.0527 43.8285C66.0531 43.9261 66.0336 44.0227 65.9955 44.1125C65.9573 44.2022 65.9013 44.2833 65.8308 44.3507C65.6918 44.4883 65.5042 44.5657 65.3086 44.5661H47.5099C47.3126 44.5647 47.1234 44.4876 46.9813 44.3507C46.8436 44.2117 46.7662 44.0241 46.7659 43.8285V28.9931C46.7659 28.7958 46.8443 28.6065 46.9838 28.467C47.1233 28.3274 47.3126 28.249 47.5099 28.249C47.6075 28.2486 47.7041 28.2681 47.7939 28.3062C47.8836 28.3444 47.9647 28.4004 48.0321 28.4709C48.1697 28.6099 48.2471 28.7975 48.2475 28.9931V39.0835L52.9141 34.4169C52.9844 34.3486 53.0661 34.2934 53.1556 34.2537C53.2464 34.2149 53.3441 34.195 53.4428 34.195C53.5396 34.1935 53.6354 34.2136 53.7235 34.2537C53.8147 34.2901 53.8971 34.3458 53.965 34.4169L56.406 36.8579L61.2946 31.9758H59.3757C59.1784 31.9758 58.9891 31.8974 58.8496 31.7579C58.7101 31.6184 58.6317 31.4291 58.6317 31.2318C58.6317 31.0344 58.7101 30.8452 58.8496 30.7057C58.9891 30.5661 59.1784 30.4877 59.3757 30.4877H63.083C63.2826 30.4912 63.4728 30.5733 63.6122 30.7164C63.7516 30.8594 63.8288 31.0517 63.827 31.2514V34.9586C63.827 35.1559 63.7486 35.3452 63.6091 35.4847C63.4696 35.6243 63.2803 35.7027 63.083 35.7027C62.8856 35.7027 62.6964 35.6243 62.5568 35.4847C62.4173 35.3452 62.3389 35.1559 62.3389 34.9586V33.0071L56.9347 38.4309C56.8656 38.5005 56.7836 38.5559 56.6932 38.594C56.6011 38.6276 56.504 38.6453 56.406 38.6463C56.3101 38.6453 56.2151 38.6277 56.1254 38.594C56.035 38.5559 55.9529 38.5005 55.8839 38.4309L53.4428 35.9898L48.2214 41.2113V43.1302H65.3086C65.5059 43.1302 65.6952 43.2086 65.8347 43.3481C65.9743 43.4876 66.0527 43.6769 66.0527 43.8742V43.8285Z" fill="url(#paint14_linear_1156_6015)"/>
<path d="M66.0527 43.8285C66.0531 43.9261 66.0336 44.0227 65.9955 44.1125C65.9573 44.2022 65.9013 44.2833 65.8308 44.3507C65.6918 44.4883 65.5042 44.5657 65.3086 44.5661H47.5099C47.3126 44.5647 47.1234 44.4876 46.9813 44.3507C46.8436 44.2117 46.7662 44.0241 46.7659 43.8285V28.9931C46.7659 28.7958 46.8443 28.6065 46.9838 28.467C47.1233 28.3274 47.3126 28.249 47.5099 28.249C47.6075 28.2486 47.7041 28.2681 47.7939 28.3062C47.8836 28.3444 47.9647 28.4004 48.0321 28.4709C48.1697 28.6099 48.2471 28.7975 48.2475 28.9931V39.0835L52.9141 34.4169C52.9844 34.3486 53.0661 34.2934 53.1556 34.2537C53.2464 34.2149 53.3441 34.195 53.4428 34.195C53.5396 34.1935 53.6354 34.2136 53.7235 34.2537C53.8147 34.2901 53.8971 34.3458 53.965 34.4169L56.406 36.8579L61.2946 31.9758H59.3757C59.1784 31.9758 58.9891 31.8974 58.8496 31.7579C58.7101 31.6184 58.6317 31.4291 58.6317 31.2318C58.6317 31.0344 58.7101 30.8452 58.8496 30.7057C58.9891 30.5661 59.1784 30.4877 59.3757 30.4877H63.083C63.2826 30.4912 63.4728 30.5733 63.6122 30.7164C63.7516 30.8594 63.8288 31.0517 63.827 31.2514V34.9586C63.827 35.1559 63.7486 35.3452 63.6091 35.4847C63.4696 35.6243 63.2803 35.7027 63.083 35.7027C62.8856 35.7027 62.6964 35.6243 62.5568 35.4847C62.4173 35.3452 62.3389 35.1559 62.3389 34.9586V33.0071L56.9347 38.4309C56.8656 38.5005 56.7836 38.5559 56.6932 38.594C56.6011 38.6276 56.504 38.6453 56.406 38.6463C56.3101 38.6453 56.2151 38.6277 56.1254 38.594C56.035 38.5559 55.9529 38.5005 55.8839 38.4309L53.4428 35.9898L48.2214 41.2113V43.1302H65.3086C65.5059 43.1302 65.6952 43.2086 65.8347 43.3481C65.9743 43.4876 66.0527 43.6769 66.0527 43.8742V43.8285Z" fill="url(#paint15_linear_1156_6015)"/>
<path d="M66.0527 43.8285C66.0531 43.9261 66.0336 44.0227 65.9955 44.1125C65.9573 44.2022 65.9013 44.2833 65.8308 44.3507C65.6918 44.4883 65.5042 44.5657 65.3086 44.5661H47.5099C47.3126 44.5647 47.1234 44.4876 46.9813 44.3507C46.8436 44.2117 46.7662 44.0241 46.7659 43.8285V28.9931C46.7659 28.7958 46.8443 28.6065 46.9838 28.467C47.1233 28.3274 47.3126 28.249 47.5099 28.249C47.6075 28.2486 47.7041 28.2681 47.7939 28.3062C47.8836 28.3444 47.9647 28.4004 48.0321 28.4709C48.1697 28.6099 48.2471 28.7975 48.2475 28.9931V39.0835L52.9141 34.4169C52.9844 34.3486 53.0661 34.2934 53.1556 34.2537C53.2464 34.2149 53.3441 34.195 53.4428 34.195C53.5396 34.1935 53.6354 34.2136 53.7235 34.2537C53.8147 34.2901 53.8971 34.3458 53.965 34.4169L56.406 36.8579L61.2946 31.9758H59.3757C59.1784 31.9758 58.9891 31.8974 58.8496 31.7579C58.7101 31.6184 58.6317 31.4291 58.6317 31.2318C58.6317 31.0344 58.7101 30.8452 58.8496 30.7057C58.9891 30.5661 59.1784 30.4877 59.3757 30.4877H63.083C63.2826 30.4912 63.4728 30.5733 63.6122 30.7164C63.7516 30.8594 63.8288 31.0517 63.827 31.2514V34.9586C63.827 35.1559 63.7486 35.3452 63.6091 35.4847C63.4696 35.6243 63.2803 35.7027 63.083 35.7027C62.8856 35.7027 62.6964 35.6243 62.5568 35.4847C62.4173 35.3452 62.3389 35.1559 62.3389 34.9586V33.0071L56.9347 38.4309C56.8656 38.5005 56.7836 38.5559 56.6932 38.594C56.6011 38.6276 56.504 38.6453 56.406 38.6463C56.3101 38.6453 56.2151 38.6277 56.1254 38.594C56.035 38.5559 55.9529 38.5005 55.8839 38.4309L53.4428 35.9898L48.2214 41.2113V43.1302H65.3086C65.5059 43.1302 65.6952 43.2086 65.8347 43.3481C65.9743 43.4876 66.0527 43.6769 66.0527 43.8742V43.8285Z" stroke="url(#paint16_linear_1156_6015)" stroke-width="0.25" stroke-miterlimit="10"/>
<rect x="33.7288" y="50.7601" width="17.1869" height="1.88963" rx="0.944816" fill="url(#paint17_linear_1156_6015)" stroke="url(#paint18_linear_1156_6015)" stroke-width="0.15"/>
<rect x="33.7288" y="58.9183" width="13.1076" height="1.88963" rx="0.944816" fill="url(#paint19_linear_1156_6015)" stroke="url(#paint20_linear_1156_6015)" stroke-width="0.15"/>
<rect x="33.7288" y="62.9974" width="10.0482" height="1.88963" rx="0.944816" fill="url(#paint21_linear_1156_6015)" stroke="url(#paint22_linear_1156_6015)" stroke-width="0.15"/>
<rect x="33.7288" y="54.8392" width="14.1274" height="1.88963" rx="0.944816" fill="url(#paint23_linear_1156_6015)" stroke="url(#paint24_linear_1156_6015)" stroke-width="0.15"/>
<path d="M5.45388 6.66784C8.46636 6.66784 10.9091 6.38503 10.9091 6.03802C10.9091 5.69101 8.47313 5.4082 5.45388 5.4082C2.43462 5.4082 0 5.69101 0 6.03802C0 6.38503 2.44139 6.66784 5.45388 6.66784Z" fill="url(#paint25_radial_1156_6015)"/>
<path d="M6.07478 6.03524C6.07478 9.36471 5.79599 12.0659 5.4509 12.0659C5.1058 12.0659 4.82837 9.36471 4.82837 6.03524C4.82837 2.70577 5.10715 0 5.4509 0C5.79464 0 6.07478 2.70577 6.07478 6.03524Z" fill="url(#paint26_radial_1156_6015)"/>
<path d="M74.2629 48.8672C77.431 48.8672 80 48.5983 80 48.2683C80 47.9383 77.4382 47.6694 74.2629 47.6694C71.0876 47.6694 68.5271 47.9383 68.5271 48.2683C68.5271 48.5983 71.0947 48.8672 74.2629 48.8672Z" fill="url(#paint27_radial_1156_6015)"/>
<path d="M74.9161 48.266C74.9161 51.4318 74.6229 54.0003 74.2599 54.0003C73.897 54.0003 73.6052 51.4318 73.6052 48.266C73.6052 45.1001 73.8984 42.5273 74.2599 42.5273C74.6214 42.5273 74.9161 45.1001 74.9161 48.266Z" fill="url(#paint28_radial_1156_6015)"/>
<path fill-rule="evenodd" clip-rule="evenodd" d="M58.1711 50.7423C60.3884 46.6476 64.5909 46.64 66.7965 50.7423L66.8598 50.8687L78.2042 72.1158C80.384 76.0513 78.1245 80.055 73.9196 79.9994H50.6683C50.6097 79.9994 50.5535 79.9994 50.4972 79.9994C46.7212 79.9438 44.8883 76.208 46.4892 72.543C46.5145 72.4841 46.5426 72.4267 46.5736 72.3711L58.1804 50.7373L58.1711 50.7423Z" stroke="url(#paint29_linear_1156_6015)" stroke-width="2"/>
<path d="M62.1694 71.4221C61.8896 71.4849 61.6325 71.6335 61.4291 71.8501H61.4244C61.2938 71.977 61.1893 72.132 61.1174 72.305C61.0292 72.499 60.9778 72.7099 60.9661 72.9256C60.9545 73.1412 60.983 73.3572 61.0498 73.5608C61.1166 73.7645 61.2204 73.9517 61.3552 74.1115C61.4899 74.2713 61.6529 74.4004 61.8346 74.4914C62.0258 74.5871 62.2333 74.6387 62.444 74.6431C62.7388 74.6548 63.0302 74.5713 63.2807 74.4034C63.5313 74.2354 63.7296 73.9906 63.8503 73.7003C63.9799 73.3992 64.0207 73.0625 63.967 72.7356C63.9133 72.4088 63.7679 72.1076 63.5503 71.8728C63.3959 71.7071 63.2105 71.5787 63.0065 71.4962C62.7399 71.3851 62.4492 71.3593 62.1694 71.4221Z" fill="url(#paint30_linear_1156_6015)"/>
<path d="M61.3377 67.5961C61.3869 68.9888 63.5691 68.9863 63.6206 67.5961L63.6253 67.5835L64.3894 57.7385V57.6677C64.3894 56.965 63.841 56.5404 63.1378 56.3811C62.6953 56.2851 62.2396 56.2851 61.7971 56.3811C61.1174 56.548 60.5877 56.9549 60.5713 57.6449C60.5525 59.8819 61.1174 65.2151 61.3377 67.5961Z" fill="url(#paint31_linear_1156_6015)"/>
<defs>
<linearGradient id="paint0_linear_1156_6015" x1="31.6143" y1="-9.48458" x2="81.7298" y2="16.4319" gradientUnits="userSpaceOnUse">
<stop stop-color="#F0EFEF" stop-opacity="0.3"/>
<stop offset="0.35" stop-color="#FAFBFC" stop-opacity="0.4"/>
<stop offset="0.72" stop-color="white" stop-opacity="0.5"/>
<stop offset="0.96" stop-color="white" stop-opacity="0.85"/>
<stop offset="1" stop-color="white" stop-opacity="0.8"/>
</linearGradient>
<linearGradient id="paint1_linear_1156_6015" x1="74.9767" y1="79.9145" x2="26.7987" y2="86.2889" gradientUnits="userSpaceOnUse">
<stop stop-color="white" stop-opacity="0.9"/>
<stop offset="0.28" stop-color="white" stop-opacity="0.5"/>
<stop offset="0.65" stop-color="#FAFBFC" stop-opacity="0.4"/>
<stop offset="1" stop-color="#F0EFEF" stop-opacity="0"/>
</linearGradient>
<linearGradient id="paint2_linear_1156_6015" x1="22.8541" y1="28.249" x2="22.8541" y2="44.54" gradientUnits="userSpaceOnUse">
<stop stop-color="white" stop-opacity="0.9"/>
<stop offset="0.04" stop-color="white" stop-opacity="0.85"/>
<stop offset="0.28" stop-color="white" stop-opacity="0.5"/>
<stop offset="0.65" stop-color="#FAFBFC" stop-opacity="0.4"/>
<stop offset="1" stop-color="#F0EFEF" stop-opacity="0.3"/>
</linearGradient>
<linearGradient id="paint3_linear_1156_6015" x1="11.2241" y1="36.4075" x2="34.4905" y2="36.4075" gradientUnits="userSpaceOnUse">
<stop stop-color="#79A540"/>
<stop offset="0.2" stop-color="#94C63D"/>
<stop offset="0.39" stop-color="#98CA3C"/>
<stop offset="0.59" stop-color="#93C53E"/>
<stop offset="0.74" stop-color="#9DCB3B"/>
<stop offset="0.9" stop-color="#A6CE39"/>
<stop offset="1" stop-color="#A6CE39"/>
</linearGradient>
<linearGradient id="paint4_linear_1156_6015" x1="22.8883" y1="28.249" x2="22.8883" y2="44.54" gradientUnits="userSpaceOnUse">
<stop stop-color="white" stop-opacity="0.9"/>
<stop offset="0.04" stop-color="white" stop-opacity="0.85"/>
<stop offset="0.28" stop-color="white" stop-opacity="0.5"/>
<stop offset="0.65" stop-color="#FAFBFC" stop-opacity="0.4"/>
<stop offset="1" stop-color="#F0EFEF" stop-opacity="0.3"/>
</linearGradient>
<linearGradient id="paint5_linear_1156_6015" x1="11.2614" y1="36.4076" x2="34.5215" y2="36.4076" gradientUnits="userSpaceOnUse">
<stop stop-color="#79A540"/>
<stop offset="0.2" stop-color="#94C63D"/>
<stop offset="0.39" stop-color="#98CA3C"/>
<stop offset="0.59" stop-color="#93C53E"/>
<stop offset="0.74" stop-color="#9DCB3B"/>
<stop offset="0.9" stop-color="#A6CE39"/>
<stop offset="1" stop-color="#A6CE39"/>
</linearGradient>
<linearGradient id="paint6_linear_1156_6015" x1="22.8915" y1="44.6182" x2="22.8915" y2="28.1644" gradientUnits="userSpaceOnUse">
<stop stop-color="white" stop-opacity="0.9"/>
<stop offset="0.28" stop-color="white" stop-opacity="0.5"/>
<stop offset="0.65" stop-color="#FAFBFC" stop-opacity="0.4"/>
<stop offset="1" stop-color="#F0EFEF" stop-opacity="0.3"/>
</linearGradient>
<linearGradient id="paint7_linear_1156_6015" x1="19.3667" y1="49.5936" x2="19.3667" y2="65.9959" gradientUnits="userSpaceOnUse">
<stop stop-color="white" stop-opacity="0.9"/>
<stop offset="0.04" stop-color="white" stop-opacity="0.85"/>
<stop offset="0.28" stop-color="white" stop-opacity="0.5"/>
<stop offset="0.65" stop-color="#FAFBFC" stop-opacity="0.4"/>
<stop offset="1" stop-color="#F0EFEF" stop-opacity="0.3"/>
</linearGradient>
<linearGradient id="paint8_linear_1156_6015" x1="11.2223" y1="57.821" x2="27.5636" y2="57.821" gradientUnits="userSpaceOnUse">
<stop stop-color="#79A540"/>
<stop offset="0.2" stop-color="#94C63D"/>
<stop offset="0.39" stop-color="#98CA3C"/>
<stop offset="0.59" stop-color="#93C53E"/>
<stop offset="0.74" stop-color="#9DCB3B"/>
<stop offset="0.9" stop-color="#A6CE39"/>
<stop offset="1" stop-color="#A6CE39"/>
</linearGradient>
<linearGradient id="paint9_linear_1156_6015" x1="19.3405" y1="49.5862" x2="19.3405" y2="66.0084" gradientUnits="userSpaceOnUse">
<stop stop-color="white" stop-opacity="0.9"/>
<stop offset="0.04" stop-color="white" stop-opacity="0.85"/>
<stop offset="0.28" stop-color="white" stop-opacity="0.5"/>
<stop offset="0.65" stop-color="#FAFBFC" stop-opacity="0.4"/>
<stop offset="1" stop-color="#F0EFEF" stop-opacity="0.3"/>
</linearGradient>
<linearGradient id="paint10_linear_1156_6015" x1="11.2223" y1="57.8236" x2="27.5111" y2="57.8236" gradientUnits="userSpaceOnUse">
<stop stop-color="#79A540"/>
<stop offset="0.2" stop-color="#94C63D"/>
<stop offset="0.39" stop-color="#98CA3C"/>
<stop offset="0.59" stop-color="#93C53E"/>
<stop offset="0.74" stop-color="#9DCB3B"/>
<stop offset="0.9" stop-color="#A6CE39"/>
<stop offset="1" stop-color="#A6CE39"/>
</linearGradient>
<linearGradient id="paint11_linear_1156_6015" x1="19.3667" y1="66.0935" x2="19.3667" y2="49.5273" gradientUnits="userSpaceOnUse">
<stop stop-color="white" stop-opacity="0.9"/>
<stop offset="0.28" stop-color="white" stop-opacity="0.5"/>
<stop offset="0.65" stop-color="#FAFBFC" stop-opacity="0.4"/>
<stop offset="1" stop-color="#F0EFEF" stop-opacity="0.3"/>
</linearGradient>
<linearGradient id="paint12_linear_1156_6015" x1="56.406" y1="28.249" x2="56.406" y2="44.5661" gradientUnits="userSpaceOnUse">
<stop stop-color="white" stop-opacity="0.9"/>
<stop offset="0.04" stop-color="white" stop-opacity="0.85"/>
<stop offset="0.28" stop-color="white" stop-opacity="0.5"/>
<stop offset="0.65" stop-color="#FAFBFC" stop-opacity="0.4"/>
<stop offset="1" stop-color="#F0EFEF" stop-opacity="0.3"/>
</linearGradient>
<linearGradient id="paint13_linear_1156_6015" x1="46.7709" y1="36.4076" x2="66.0477" y2="36.4076" gradientUnits="userSpaceOnUse">
<stop stop-color="#79A540"/>
<stop offset="0.2" stop-color="#94C63D"/>
<stop offset="0.39" stop-color="#98CA3C"/>
<stop offset="0.59" stop-color="#93C53E"/>
<stop offset="0.74" stop-color="#9DCB3B"/>
<stop offset="0.9" stop-color="#A6CE39"/>
<stop offset="1" stop-color="#A6CE39"/>
</linearGradient>
<linearGradient id="paint14_linear_1156_6015" x1="56.406" y1="28.249" x2="56.406" y2="44.5661" gradientUnits="userSpaceOnUse">
<stop stop-color="white" stop-opacity="0.9"/>
<stop offset="0.04" stop-color="white" stop-opacity="0.85"/>
<stop offset="0.28" stop-color="white" stop-opacity="0.5"/>
<stop offset="0.65" stop-color="#FAFBFC" stop-opacity="0.4"/>
<stop offset="1" stop-color="#F0EFEF" stop-opacity="0.3"/>
</linearGradient>
<linearGradient id="paint15_linear_1156_6015" x1="46.7709" y1="36.4076" x2="66.0477" y2="36.4076" gradientUnits="userSpaceOnUse">
<stop stop-color="#79A540"/>
<stop offset="0.2" stop-color="#94C63D"/>
<stop offset="0.39" stop-color="#98CA3C"/>
<stop offset="0.59" stop-color="#93C53E"/>
<stop offset="0.74" stop-color="#9DCB3B"/>
<stop offset="0.9" stop-color="#A6CE39"/>
<stop offset="1" stop-color="#A6CE39"/>
</linearGradient>
<linearGradient id="paint16_linear_1156_6015" x1="56.406" y1="44.6509" x2="56.406" y2="28.1707" gradientUnits="userSpaceOnUse">
<stop stop-color="white" stop-opacity="0.9"/>
<stop offset="0.28" stop-color="white" stop-opacity="0.5"/>
<stop offset="0.65" stop-color="#FAFBFC" stop-opacity="0.4"/>
<stop offset="1" stop-color="#F0EFEF" stop-opacity="0.3"/>
</linearGradient>
<linearGradient id="paint17_linear_1156_6015" x1="36.3627" y1="50.9036" x2="47.5024" y2="48.0336" gradientUnits="userSpaceOnUse">
<stop stop-color="#F0EFEF" stop-opacity="0.3"/>
<stop offset="0.35" stop-color="#FAFBFC" stop-opacity="0.4"/>
<stop offset="0.618201" stop-color="white" stop-opacity="0.5"/>
<stop offset="0.865916" stop-color="white" stop-opacity="0.7"/>
<stop offset="1" stop-color="white" stop-opacity="0.8"/>
</linearGradient>
<linearGradient id="paint18_linear_1156_6015" x1="50.7499" y1="52.8569" x2="45.2286" y2="58.4454" gradientUnits="userSpaceOnUse">
<stop stop-color="white" stop-opacity="0.9"/>
<stop offset="0.28" stop-color="white" stop-opacity="0.5"/>
<stop offset="0.65" stop-color="#FAFBFC" stop-opacity="0.4"/>
<stop offset="1" stop-color="#F0EFEF" stop-opacity="0"/>
</linearGradient>
<linearGradient id="paint19_linear_1156_6015" x1="35.7253" y1="59.0618" x2="44.4699" y2="57.339" gradientUnits="userSpaceOnUse">
<stop stop-color="#F0EFEF" stop-opacity="0.3"/>
<stop offset="0.35" stop-color="#FAFBFC" stop-opacity="0.4"/>
<stop offset="0.618201" stop-color="white" stop-opacity="0.5"/>
<stop offset="0.865916" stop-color="white" stop-opacity="0.7"/>
<stop offset="1" stop-color="white" stop-opacity="0.8"/>
</linearGradient>
<linearGradient id="paint20_linear_1156_6015" x1="46.7273" y1="61.0151" x2="41.382" y2="65.1525" gradientUnits="userSpaceOnUse">
<stop stop-color="white" stop-opacity="0.9"/>
<stop offset="0.28" stop-color="white" stop-opacity="0.5"/>
<stop offset="0.65" stop-color="#FAFBFC" stop-opacity="0.4"/>
<stop offset="1" stop-color="#F0EFEF" stop-opacity="0"/>
</linearGradient>
<linearGradient id="paint21_linear_1156_6015" x1="35.2473" y1="63.1409" x2="42.0781" y2="62.1057" gradientUnits="userSpaceOnUse">
<stop stop-color="#F0EFEF" stop-opacity="0.3"/>
<stop offset="0.35" stop-color="#FAFBFC" stop-opacity="0.4"/>
<stop offset="0.618201" stop-color="white" stop-opacity="0.5"/>
<stop offset="0.865916" stop-color="white" stop-opacity="0.7"/>
<stop offset="1" stop-color="white" stop-opacity="0.8"/>
</linearGradient>
<linearGradient id="paint22_linear_1156_6015" x1="43.7103" y1="65.0942" x2="38.856" y2="67.9844" gradientUnits="userSpaceOnUse">
<stop stop-color="white" stop-opacity="0.9"/>
<stop offset="0.28" stop-color="white" stop-opacity="0.5"/>
<stop offset="0.65" stop-color="#FAFBFC" stop-opacity="0.4"/>
<stop offset="1" stop-color="#F0EFEF" stop-opacity="0"/>
</linearGradient>
<linearGradient id="paint23_linear_1156_6015" x1="35.8847" y1="54.9827" x2="45.246" y2="52.9965" gradientUnits="userSpaceOnUse">
<stop stop-color="#F0EFEF" stop-opacity="0.3"/>
<stop offset="0.35" stop-color="#FAFBFC" stop-opacity="0.4"/>
<stop offset="0.618201" stop-color="white" stop-opacity="0.5"/>
<stop offset="0.865916" stop-color="white" stop-opacity="0.7"/>
<stop offset="1" stop-color="white" stop-opacity="0.8"/>
</linearGradient>
<linearGradient id="paint24_linear_1156_6015" x1="47.7329" y1="56.936" x2="42.3015" y2="61.4634" gradientUnits="userSpaceOnUse">
<stop stop-color="white" stop-opacity="0.9"/>
<stop offset="0.28" stop-color="white" stop-opacity="0.5"/>
<stop offset="0.65" stop-color="#FAFBFC" stop-opacity="0.4"/>
<stop offset="1" stop-color="#F0EFEF" stop-opacity="0"/>
</linearGradient>
<radialGradient id="paint25_radial_1156_6015" cx="0" cy="0" r="1" gradientUnits="userSpaceOnUse" gradientTransform="translate(4.92078 6.24317) rotate(90) scale(0.62517 5.45382)">
<stop stop-color="white"/>
<stop offset="0.07" stop-color="white" stop-opacity="0.93"/>
<stop offset="1" stop-color="white" stop-opacity="0"/>
</radialGradient>
<radialGradient id="paint26_radial_1156_6015" cx="0" cy="0" r="1" gradientUnits="userSpaceOnUse" gradientTransform="translate(5.46161 6.31795) scale(0.624097 6.04444)">
<stop stop-color="white"/>
<stop offset="0.07" stop-color="white" stop-opacity="0.93"/>
<stop offset="1" stop-color="white" stop-opacity="0"/>
</radialGradient>
<radialGradient id="paint27_radial_1156_6015" cx="0" cy="0" r="1" gradientUnits="userSpaceOnUse" gradientTransform="translate(73.7022 48.4634) rotate(90) scale(0.594447 5.7357)">
<stop stop-color="white"/>
<stop offset="0.07" stop-color="white" stop-opacity="0.93"/>
<stop offset="1" stop-color="white" stop-opacity="0"/>
</radialGradient>
<radialGradient id="paint28_radial_1156_6015" cx="0" cy="0" r="1" gradientUnits="userSpaceOnUse" gradientTransform="translate(74.2712 48.5348) scale(0.656352 5.74739)">
<stop stop-color="white"/>
<stop offset="0.07" stop-color="white" stop-opacity="0.93"/>
<stop offset="1" stop-color="white" stop-opacity="0"/>
</radialGradient>
<linearGradient id="paint29_linear_1156_6015" x1="62.4791" y1="80.0171" x2="62.4791" y2="47.6713" gradientUnits="userSpaceOnUse">
<stop stop-color="#79A540"/>
<stop offset="0.2" stop-color="#94C63D"/>
<stop offset="0.39" stop-color="#98CA3C"/>
<stop offset="0.59" stop-color="#93C53E"/>
<stop offset="0.74" stop-color="#9DCB3B"/>
<stop offset="0.9" stop-color="#A6CE39"/>
<stop offset="1" stop-color="#A6CE39"/>
</linearGradient>
<linearGradient id="paint30_linear_1156_6015" x1="62.4792" y1="80.0168" x2="62.4792" y2="47.671" gradientUnits="userSpaceOnUse">
<stop stop-color="#79A540"/>
<stop offset="0.2" stop-color="#94C63D"/>
<stop offset="0.39" stop-color="#98CA3C"/>
<stop offset="0.59" stop-color="#93C53E"/>
<stop offset="0.74" stop-color="#9DCB3B"/>
<stop offset="0.9" stop-color="#A6CE39"/>
<stop offset="1" stop-color="#A6CE39"/>
</linearGradient>
<linearGradient id="paint31_linear_1156_6015" x1="62.4792" y1="80.0168" x2="62.4792" y2="47.671" gradientUnits="userSpaceOnUse">
<stop stop-color="#79A540"/>
<stop offset="0.2" stop-color="#94C63D"/>
<stop offset="0.39" stop-color="#98CA3C"/>
<stop offset="0.59" stop-color="#93C53E"/>
<stop offset="0.74" stop-color="#9DCB3B"/>
<stop offset="0.9" stop-color="#A6CE39"/>
<stop offset="1" stop-color="#A6CE39"/>
</linearGradient>
</defs>
</svg>
