<svg width="79" height="80" viewBox="0 0 79 80" fill="none" xmlns="http://www.w3.org/2000/svg">
<path d="M67.34 48.6116L67.4066 48.4673C71.9537 38.6191 74.0549 26.2341 73.3158 10.9424C63.6325 11.7834 52.3749 8.02748 39.9324 0.153132C30.5161 7.61531 18.6445 11.2757 6.66196 10.4124C6.26446 26.1289 8.46796 38.6644 12.8558 48.4455L12.923 48.5954L12.7606 48.6203C11.6447 48.7911 10.6266 49.3551 9.89 50.2107C9.15349 51.0662 8.74702 52.1568 8.74397 53.2857C8.74397 53.2857 8.74396 53.2858 8.74396 53.2858L8.61897 53.2855L67.34 48.6116ZM67.34 48.6116L67.496 48.6423C68.5735 48.8542 69.5446 49.4324 70.2442 50.2789C70.9438 51.1254 71.3289 52.1879 71.3341 53.2861L67.34 48.6116ZM17.7637 48.4961L17.7985 48.5643H17.875H62.3523H62.4283L62.4633 48.4969C66.9432 39.871 69.1157 28.8117 68.4488 15.2445L68.4424 15.1143L68.3126 15.1262C60.3157 15.8573 50.377 12.1777 40.0141 5.60198L39.9386 5.55406L39.8689 5.61007C31.91 12.003 21.8746 15.2394 11.6803 14.7009L11.5521 14.6942L11.5487 14.8225C11.1809 28.8356 13.4221 39.9857 17.7637 48.4961Z" stroke="url(#paint0_linear_1123_7586)" stroke-width="0.25" stroke-miterlimit="10"/>
<path fill-rule="evenodd" clip-rule="evenodd" d="M62.3526 48.4393H17.8753C13.5458 39.9526 11.3065 28.8247 11.6739 14.8258C21.899 15.3659 31.9645 12.1197 39.9474 5.70752C50.3174 12.2878 60.2855 15.9857 68.3242 15.2507C68.9903 28.8017 66.8198 39.8378 62.3526 48.4393ZM70.3408 50.1993C69.6228 49.3306 68.6262 48.7371 67.5204 48.5197C72.091 38.6205 74.1925 26.1719 73.4346 10.8064C63.7421 11.6907 52.4419 7.9354 39.9244 0C30.4875 7.50704 18.5657 11.1775 6.54062 10.2781C6.1272 26.0686 8.33211 38.6664 12.7419 48.4967C11.5965 48.672 10.5515 49.251 9.79552 50.1291C9.03951 51.0073 8.62231 52.1268 8.61921 53.2855V72.5785C8.62223 73.864 9.13342 75.096 10.0413 76.0061C10.9491 76.9161 12.18 77.4302 13.4654 77.4362H66.6131C67.8976 77.4272 69.1268 76.9121 70.034 76.0028C70.9412 75.0934 71.4533 73.863 71.4594 72.5785V53.2855C71.454 52.1585 71.0588 51.068 70.3408 50.1993ZM58.7531 57.4929C58.4397 57.8085 58.2637 58.2365 58.2637 58.6828V60.8435L56.4544 59.6586C56.086 59.413 55.6358 59.3249 55.2029 59.4136C54.7699 59.5023 54.3897 59.7605 54.1458 60.1316C53.902 60.5026 53.8144 60.956 53.9025 61.3921C53.9906 61.8281 54.247 62.211 54.6155 62.4566L56.929 64.01L54.6253 65.5633C54.2582 65.8102 54.0036 66.1939 53.9174 66.6299C53.8311 67.066 53.9204 67.5186 54.1656 67.8883C54.4108 68.2581 54.7917 68.5145 55.2247 68.6014C55.6576 68.6882 56.1071 68.5983 56.4742 68.3514L58.2637 67.1465V69.2973C58.2637 69.7436 58.4397 70.1716 58.7531 70.4872C59.0664 70.8028 59.4914 70.9801 59.9346 70.9801C60.3777 70.9801 60.8027 70.8028 61.1161 70.4872C61.4294 70.1716 61.6055 69.7436 61.6055 69.2973V67.1166L63.4148 68.3215C63.5972 68.4431 63.8016 68.5273 64.0163 68.5694C64.2311 68.6114 64.4519 68.6104 64.6663 68.5665C64.8807 68.5226 65.0844 68.4366 65.2657 68.3134C65.4471 68.1902 65.6026 68.0322 65.7233 67.8485C65.8441 67.6648 65.9277 67.4589 65.9695 67.2426C66.0112 67.0264 66.0102 66.8039 65.9666 66.588C65.923 66.3721 65.8376 66.167 65.7153 65.9843C65.593 65.8017 65.4361 65.6451 65.2537 65.5235L62.9402 63.9801L65.2537 62.4168C65.6208 62.1699 65.8755 61.7862 65.9617 61.3502C66.0479 60.9141 65.9586 60.4615 65.7134 60.0918C65.4683 59.722 65.0873 59.4655 64.6544 59.3787C64.2214 59.2919 63.772 59.3818 63.4049 59.6287L61.6055 60.8435V58.6828C61.6055 58.2365 61.4294 57.8085 61.1161 57.4929C60.8027 57.1773 60.3777 57 59.9346 57C59.4914 57 59.0664 57.1773 58.7531 57.4929ZM19.9373 57.4929C19.624 57.8085 19.4479 58.2365 19.4479 58.6828V60.8435L17.6683 59.6586C17.4863 59.5223 17.2787 59.4247 17.0581 59.3717C16.8375 59.3188 16.6084 59.3117 16.385 59.3508C16.1615 59.3899 15.9483 59.4744 15.7583 59.5991C15.5684 59.7239 15.4056 59.8863 15.2799 60.0764C15.1543 60.2666 15.0684 60.4805 15.0275 60.7052C14.9866 60.9299 14.9915 61.1606 15.042 61.3833C15.0925 61.6059 15.1874 61.816 15.3211 62.0005C15.4548 62.185 15.6243 62.3402 15.8195 62.4566L18.1429 64.01L15.8293 65.5633C15.4622 65.8102 15.2076 66.1939 15.1213 66.6299C15.0351 67.066 15.1244 67.5186 15.3696 67.8883C15.6148 68.2581 15.9957 68.5145 16.4287 68.6014C16.8616 68.6882 17.3111 68.5983 17.6782 68.3514L19.4677 67.1465V69.3172C19.4677 69.5382 19.5109 69.757 19.5949 69.9612C19.6789 70.1654 19.8019 70.3509 19.9571 70.5071C20.1122 70.6634 20.2964 70.7873 20.4992 70.8719C20.7019 70.9565 20.9192 71 21.1386 71C21.358 71 21.5753 70.9565 21.778 70.8719C21.9807 70.7873 22.1649 70.6634 22.3201 70.5071C22.4752 70.3509 22.5983 70.1654 22.6823 69.9612C22.7662 69.757 22.8095 69.5382 22.8095 69.3172V67.1366L24.6187 68.3414C24.8012 68.463 25.0056 68.5472 25.2203 68.5893C25.4351 68.6313 25.6559 68.6304 25.8703 68.5864C26.0847 68.5425 26.2884 68.4565 26.4697 68.3333C26.6511 68.2101 26.8066 68.0521 26.9273 67.8684C27.0481 67.6847 27.1317 67.4788 27.1735 67.2626C27.2152 67.0463 27.2142 66.8238 27.1706 66.6079C27.127 66.3921 27.0416 66.1869 26.9193 66.0043C26.797 65.8216 26.6401 65.665 26.4577 65.5434L24.1442 64L26.4379 62.4168C26.805 62.1699 27.0597 61.7862 27.1459 61.3502C27.2321 60.9141 27.1428 60.4615 26.8977 60.0918C26.6525 59.722 26.2715 59.4655 25.8386 59.3787C25.4057 59.2919 24.9562 59.3818 24.5891 59.6287L22.7897 60.8435V58.6828C22.7897 58.2365 22.6136 57.8085 22.3003 57.4929C21.9869 57.1773 21.5619 57 21.1188 57C20.6757 57 20.2507 57.1773 19.9373 57.4929ZM39.3452 57.4929C39.0319 57.8085 38.8558 58.2365 38.8558 58.6828V60.8435L37.1058 59.6586C36.9239 59.5223 36.7163 59.4247 36.4956 59.3717C36.275 59.3188 36.046 59.3117 35.8225 59.3508C35.5991 59.3899 35.3859 59.4744 35.1959 59.5991C35.0059 59.7239 34.8431 59.8863 34.7175 60.0764C34.5918 60.2666 34.5059 60.4805 34.465 60.7052C34.4241 60.9299 34.4291 61.1606 34.4795 61.3833C34.53 61.6059 34.625 61.816 34.7586 62.0005C34.8923 62.185 35.0619 62.3402 35.257 62.4566L37.5804 64.01L35.2669 65.5633C35.0851 65.6856 34.929 65.8427 34.8076 66.0257C34.6861 66.2087 34.6016 66.414 34.5589 66.6299C34.5162 66.8458 34.5162 67.0681 34.5588 67.284C34.6013 67.4999 34.6858 67.7053 34.8071 67.8883C34.9285 68.0714 35.0846 68.2286 35.2663 68.3509C35.448 68.4733 35.6519 68.5584 35.8662 68.6014C36.0806 68.6444 36.3013 68.6444 36.5157 68.6015C36.7301 68.5586 36.934 68.4736 37.1157 68.3514L38.9053 67.1465V69.3172C38.9053 69.7635 39.0813 70.1915 39.3946 70.5071C39.708 70.8227 40.133 71 40.5761 71C41.0193 71 41.4443 70.8227 41.7576 70.5071C42.071 70.1915 42.247 69.7635 42.247 69.3172V67.1366L44.0563 68.3414C44.2387 68.463 44.4431 68.5472 44.6579 68.5893C44.8726 68.6313 45.0935 68.6304 45.3078 68.5864C45.5222 68.5425 45.7259 68.4565 45.9073 68.3333C46.0886 68.2101 46.2441 68.0521 46.3649 67.8684C46.4856 67.6847 46.5693 67.4788 46.611 67.2626C46.6528 67.0463 46.6518 66.8238 46.6082 66.6079C46.5646 66.3921 46.4792 66.1869 46.3568 66.0043C46.2345 65.8216 46.0777 65.665 45.8953 65.5434L43.5817 64L45.8953 62.4367C46.265 62.1832 46.5196 61.7921 46.603 61.3496C46.6864 60.907 46.5919 60.4492 46.3402 60.0768C46.0884 59.7045 45.7001 59.4481 45.2607 59.364C44.8213 59.28 44.3667 59.3752 43.997 59.6287L42.1976 60.8435V58.6828C42.1976 58.2365 42.0215 57.8085 41.7082 57.4929C41.3948 57.1773 40.9698 57 40.5267 57C40.0835 57 39.6586 57.1773 39.3452 57.4929Z" fill="url(#paint1_linear_1123_7586)"/>
<path d="M7.33099 10.4558C7.33099 14.0767 6.98637 17.0185 6.56185 17.0185C6.13732 17.0185 5.78271 14.0767 5.78271 10.4558C5.78271 6.83483 6.14231 3.91309 6.56185 3.91309C6.98138 3.91309 7.33099 6.82983 7.33099 10.4558Z" fill="url(#paint2_radial_1123_7586)"/>
<path d="M6.56277 11.2148C2.94181 11.2148 9.05464e-05 10.8702 9.0565e-05 10.4456C9.05836e-05 10.0211 2.94181 9.6665 6.56277 9.6665C10.1837 9.6665 13.1055 10.0261 13.1055 10.4456C13.1055 10.8652 10.1887 11.2148 6.56277 11.2148Z" fill="url(#paint3_radial_1123_7586)"/>
<path d="M72.3774 73.4372C72.3774 77.0582 72.0328 79.9999 71.6082 79.9999C71.1837 79.9999 70.8291 77.0582 70.8291 73.4372C70.8291 69.8163 71.1887 66.8945 71.6082 66.8945C72.0278 66.8945 72.3774 69.8113 72.3774 73.4372Z" fill="url(#paint4_radial_1123_7586)"/>
<path d="M71.6092 74.1962C67.9882 74.1962 65.0465 73.8516 65.0465 73.4271C65.0465 73.0026 67.9882 72.6479 71.6092 72.6479C75.2301 72.6479 78.1519 73.0075 78.1519 73.4271C78.1519 73.8466 75.2351 74.1962 71.6092 74.1962Z" fill="url(#paint5_radial_1123_7586)"/>
<path d="M58.5924 49.6706L50.1756 41.2615C52.6278 38.2849 53.8362 34.5538 53.5689 30.7838C53.3293 27.0226 51.6202 23.4814 48.7757 20.8527C47.412 19.5899 45.7958 18.5988 44.0224 17.9379C42.249 17.277 40.3541 16.9595 38.4495 17.0041C36.5448 17.0488 34.6688 17.4547 32.9319 18.198C31.1951 18.9412 29.6324 20.0068 28.3361 21.332C25.6321 24.0928 24.0904 27.6999 24.0039 31.4684C23.9173 35.237 25.2918 38.9044 27.8665 41.7744C30.3785 44.5552 33.9506 46.2761 37.7984 46.5592C39.6945 46.6867 41.5985 46.4549 43.3994 45.8775C45.2003 45.3 46.8622 44.3884 48.2884 43.1956L56.7053 51.6047C56.8279 51.7293 56.9755 51.8293 57.1394 51.899C57.3016 51.9656 57.4765 52 57.6533 52C57.83 52 58.0049 51.9656 58.1671 51.899C58.3338 51.8295 58.4843 51.7295 58.6101 51.6047C58.7361 51.4795 58.8327 51.3305 58.8937 51.1674C59.0354 50.8387 59.0354 50.4702 58.8937 50.1415C58.8295 49.966 58.7268 49.8055 58.5924 49.6706ZM26.7059 31.7845C26.7028 29.4045 27.4093 27.0723 28.7436 25.0572C30.0483 23.0954 31.9391 21.5468 34.1747 20.6088C36.3749 19.6916 38.8222 19.4505 41.174 19.9193C43.5483 20.3939 45.7126 21.5472 47.3759 23.224C49.0817 24.9469 50.2316 27.0976 50.6894 29.4215C51.1603 31.766 50.9206 34.1891 49.9984 36.4095C49.1118 38.5894 47.5717 40.475 45.5685 41.8333C43.6015 43.1533 41.2528 43.864 38.8438 43.8683C37.2401 43.8601 35.655 43.5419 34.1851 42.9333C32.7152 42.3246 31.3913 41.4382 30.2941 40.3281C27.9894 38.0214 26.7051 34.9634 26.7059 31.7845Z" fill="url(#paint6_linear_1123_7586)"/>
<path d="M38.1898 35.0366C37.9075 35.0882 37.6508 35.227 37.4595 35.4316C37.3303 35.5499 37.2266 35.6911 37.1543 35.8473C37.0704 36.0285 37.0188 36.2217 37.0017 36.419C36.9923 36.6165 37.0219 36.814 37.0889 37.0011C37.1557 37.1878 37.2593 37.3607 37.3941 37.5104C37.5246 37.6563 37.6839 37.7763 37.8628 37.8637C38.0542 37.9489 38.2621 37.9949 38.4733 37.9989C38.7665 38.0103 39.0562 37.934 39.3017 37.7806C39.5518 37.6223 39.7486 37.3985 39.8685 37.1362C39.9914 36.8537 40.0292 36.5441 39.9775 36.2423C39.9279 35.9446 39.7833 35.6688 39.5633 35.4524C39.4121 35.3014 39.2304 35.1812 39.0292 35.099C38.7635 34.9935 38.4694 34.9717 38.1898 35.0366Z" fill="#94C63E"/>
<path d="M37.5969 33.1522C37.5969 33.377 37.6917 33.5927 37.8602 33.7517C38.0288 33.9107 38.2575 34 38.4959 34C38.7344 34 38.963 33.9107 39.1316 33.7517C39.3002 33.5927 39.3949 33.377 39.3949 33.1522L40 26.0353V25.9864C40 25.4728 39.5678 25.1712 39.0146 25.0489C38.6664 24.9837 38.3081 24.9837 37.96 25.0489C37.4241 25.1712 37.0091 25.4647 37.0005 25.9701C36.9832 27.5761 37.4241 31.4321 37.5969 33.1522Z" fill="url(#paint7_linear_1123_7586)"/>
<defs>
<linearGradient id="paint0_linear_1123_7586" x1="64.0138" y1="79.8007" x2="23.2307" y2="13.2055" gradientUnits="userSpaceOnUse">
<stop stop-color="white" stop-opacity="0.9"/>
<stop offset="0.28" stop-color="white" stop-opacity="0.5"/>
<stop offset="0.65" stop-color="#FAFBFC" stop-opacity="0.4"/>
<stop offset="1" stop-color="#F0EFEF" stop-opacity="0"/>
</linearGradient>
<linearGradient id="paint1_linear_1123_7586" x1="13.9386" y1="12.173" x2="64.5303" y2="85.4793" gradientUnits="userSpaceOnUse">
<stop stop-color="#F0EFEF" stop-opacity="0.3"/>
<stop offset="0.35" stop-color="#FAFBFC" stop-opacity="0.4"/>
<stop offset="0.72" stop-color="white" stop-opacity="0.5"/>
<stop offset="0.96" stop-color="white" stop-opacity="0.85"/>
<stop offset="1" stop-color="white" stop-opacity="0.9"/>
</linearGradient>
<radialGradient id="paint2_radial_1123_7586" cx="0" cy="0" r="1" gradientUnits="userSpaceOnUse" gradientTransform="translate(6.43878 10.9345) scale(0.765945 6.56727)">
<stop stop-color="white"/>
<stop offset="0.07" stop-color="white" stop-opacity="0.93"/>
<stop offset="1" stop-color="white" stop-opacity="0"/>
</radialGradient>
<radialGradient id="paint3_radial_1123_7586" cx="0" cy="0" r="1" gradientUnits="userSpaceOnUse" gradientTransform="translate(6.0841 10.3226) rotate(90) scale(0.765945 6.56727)">
<stop stop-color="white"/>
<stop offset="0.07" stop-color="white" stop-opacity="0.93"/>
<stop offset="1" stop-color="white" stop-opacity="0"/>
</radialGradient>
<radialGradient id="paint4_radial_1123_7586" cx="0" cy="0" r="1" gradientUnits="userSpaceOnUse" gradientTransform="translate(71.4852 73.9159) scale(0.765945 6.56727)">
<stop stop-color="white"/>
<stop offset="0.07" stop-color="white" stop-opacity="0.93"/>
<stop offset="1" stop-color="white" stop-opacity="0"/>
</radialGradient>
<radialGradient id="paint5_radial_1123_7586" cx="0" cy="0" r="1" gradientUnits="userSpaceOnUse" gradientTransform="translate(71.1305 73.304) rotate(90) scale(0.765945 6.56727)">
<stop stop-color="white"/>
<stop offset="0.07" stop-color="white" stop-opacity="0.93"/>
<stop offset="1" stop-color="white" stop-opacity="0"/>
</radialGradient>
<linearGradient id="paint6_linear_1123_7586" x1="23.977" y1="34.4838" x2="58.9822" y2="34.4838" gradientUnits="userSpaceOnUse">
<stop stop-color="#79A540"/>
<stop offset="0.2" stop-color="#94C63D"/>
<stop offset="0.39" stop-color="#98CA3C"/>
<stop offset="0.59" stop-color="#93C53E"/>
<stop offset="0.74" stop-color="#9DCB3B"/>
<stop offset="0.9" stop-color="#A6CE39"/>
<stop offset="1" stop-color="#A6CE39"/>
</linearGradient>
<linearGradient id="paint7_linear_1123_7586" x1="38.4959" y1="42.1359" x2="38.4959" y2="18.7473" gradientUnits="userSpaceOnUse">
<stop stop-color="#79A540"/>
<stop offset="0.2" stop-color="#94C63F"/>
<stop offset="0.39" stop-color="#99CA3E"/>
<stop offset="0.59" stop-color="#93C53F"/>
<stop offset="0.74" stop-color="#9DCB3B"/>
<stop offset="0.9" stop-color="#A5CE3A"/>
<stop offset="1" stop-color="#A5CE3A"/>
</linearGradient>
</defs>
</svg>
