<svg width="67" height="80" viewBox="0 0 67 80" fill="none" xmlns="http://www.w3.org/2000/svg">
<path fill-rule="evenodd" clip-rule="evenodd" d="M22.9257 45.3671H28.4825C28.7109 45.3671 28.93 45.4579 29.0916 45.6194C29.2531 45.7809 29.3439 46 29.3439 46.2285V50.924C29.3439 51.1524 29.2531 51.3715 29.0916 51.533C28.93 51.6946 28.7109 51.7853 28.4825 51.7853H22.9257C22.6962 51.7853 22.4761 51.6949 22.3128 51.5337C22.1496 51.3724 22.0566 51.1534 22.0538 50.924V46.2285C22.0592 45.9999 22.1532 45.7824 22.3158 45.6217C22.4784 45.4611 22.6971 45.3698 22.9257 45.3671ZM5.83499 8.80128H45.5627C45.9928 8.80008 46.4189 8.88497 46.8158 9.05094C47.2127 9.21691 47.5724 9.46061 47.8736 9.76769L47.9367 9.83071C48.5139 10.4371 48.8371 11.2415 48.84 12.0787V46.6199C48.5459 46.6199 48.2518 46.6199 47.9577 46.6199C47.6635 46.6199 47.2329 46.6199 46.9072 46.6199V12.0787C46.9109 11.7506 46.7865 11.4341 46.5606 11.1963C46.4351 11.0569 46.2809 10.9462 46.1087 10.8719C45.9365 10.7976 45.7502 10.7613 45.5627 10.7656H5.83499C5.4893 10.7661 5.15753 10.9018 4.91061 11.1438C4.78986 11.2654 4.6943 11.4096 4.62941 11.5683C4.56452 11.7269 4.53157 11.8968 4.53245 12.0682V65.8087C4.53508 66.1355 4.65856 66.4498 4.87909 66.6911C4.99985 66.8137 5.14372 66.9112 5.30239 66.9779C5.46105 67.0446 5.63136 67.0792 5.80348 67.0797H32.7578C32.8635 67.4863 32.9933 67.8861 33.1465 68.2772C33.2452 68.5367 33.361 68.7894 33.4931 69.0335H5.83499C5.40564 69.0355 4.98017 68.952 4.58341 68.7879C4.18665 68.6238 3.82653 68.3824 3.52402 68.0776C3.52402 68.0776 3.52402 68.0776 3.461 68.0146C2.88381 67.4082 2.56057 66.6039 2.55762 65.7667V12.0787C2.55875 11.6488 2.6447 11.2234 2.81053 10.8269C2.97636 10.4303 3.21883 10.0704 3.52402 9.76769C3.82406 9.46187 4.18202 9.2189 4.577 9.05297C4.97198 8.88704 5.39607 8.80148 5.82449 8.80128H5.83499ZM9.88969 15.1985H41.508C41.7351 15.1986 41.96 15.2442 42.1693 15.3326C42.3785 15.421 42.568 15.5504 42.7265 15.7132C42.756 15.7321 42.7811 15.7572 42.8 15.7867C43.0812 16.1055 43.2346 16.5171 43.2307 16.9422V26.8163C43.2302 27.2763 43.0492 27.7176 42.7265 28.0454C42.5652 28.2066 42.3735 28.3341 42.1625 28.4207C41.9515 28.5072 41.7255 28.551 41.4975 28.5496H9.88969C9.66308 28.552 9.43833 28.5086 9.22892 28.422C9.01952 28.3353 8.8298 28.2072 8.67118 28.0454C8.64134 28.0225 8.61635 27.9939 8.59765 27.9613C8.31419 27.6473 8.15703 27.2394 8.15647 26.8163V16.9422C8.15775 16.7152 8.20388 16.4907 8.29221 16.2816C8.38055 16.0725 8.50934 15.8829 8.67118 15.7237C8.82769 15.5612 9.0153 15.4319 9.22284 15.3435C9.43038 15.255 9.6536 15.2093 9.87919 15.209L9.88969 15.1985ZM41.2769 17.1628H10.1208V26.6168H41.2874V17.1628H41.2769ZM37.3902 18.8225H38.5247V24.9255H37.3902V18.8225ZM10.625 34.2219H16.1818C16.4112 34.2247 16.6303 34.3178 16.7916 34.481C16.9528 34.6442 17.0432 34.8644 17.0432 35.0938V39.7788C17.0432 40.0082 16.9528 40.2284 16.7916 40.3916C16.6303 40.5548 16.4112 40.6479 16.1818 40.6506H10.625C10.3938 40.6506 10.172 40.5588 10.0085 40.3953C9.84499 40.2318 9.75314 40.01 9.75314 39.7788V35.0938C9.75587 34.8634 9.8486 34.6432 10.0115 34.4803C10.1744 34.3174 10.3946 34.2247 10.625 34.2219ZM10.625 56.5018H16.1818C16.4112 56.5046 16.6303 56.5976 16.7916 56.7608C16.9528 56.924 17.0432 57.1442 17.0432 57.3737V62.0586C17.0432 62.2871 16.9524 62.5062 16.7909 62.6677C16.6294 62.8292 16.4103 62.92 16.1818 62.92H10.625C10.3956 62.92 10.1754 62.8296 10.0122 62.6683C9.84898 62.5071 9.7559 62.288 9.75314 62.0586V57.3737C9.75587 57.1433 9.8486 56.9231 10.0115 56.7602C10.1744 56.5973 10.3946 56.5045 10.625 56.5018ZM10.625 45.3671H16.1818C16.4103 45.3671 16.6294 45.4579 16.7909 45.6194C16.9524 45.7809 17.0432 46 17.0432 46.2285V50.924C17.0405 51.1516 16.9488 51.3691 16.7879 51.53C16.6269 51.691 16.4094 51.7826 16.1818 51.7853H10.625C10.3956 51.7853 10.1754 51.6949 10.0122 51.5337C9.84898 51.3724 9.7559 51.1534 9.75314 50.924V46.2285C9.75857 45.9999 9.85249 45.7824 10.0151 45.6217C10.1778 45.4611 10.3964 45.3698 10.625 45.3671ZM35.2368 34.2219H40.7832C41.0126 34.2247 41.2316 34.3178 41.3929 34.481C41.5541 34.6442 41.6445 34.8644 41.6445 35.0938V37.8145C41.3502 38.1688 41.132 38.58 41.0037 39.0225C40.6287 39.2778 40.2772 39.5661 39.9533 39.8838C39.7045 40.1166 39.4793 40.3735 39.281 40.6506H35.2368C35.0056 40.6506 34.7838 40.5588 34.6203 40.3953C34.4568 40.2318 34.365 40.01 34.365 39.7788V35.0938C34.365 34.8626 34.4568 34.6408 34.6203 34.4773C34.7838 34.3138 35.0056 34.2219 35.2368 34.2219ZM35.2368 45.3671H38.9239C39.0568 45.5893 39.2079 45.8001 39.3756 45.9974L41.1508 48.0983L40.5941 48.592L40.2264 48.9071C39.9113 49.1907 39.6487 49.4323 39.4176 49.6634C39.1865 49.8945 38.8608 50.2307 38.6403 50.4723C38.4197 50.7139 37.926 51.2916 37.5898 51.7433H35.2263C34.9969 51.7405 34.7778 51.6475 34.6166 51.4842C34.4554 51.321 34.3649 51.1009 34.365 50.8714V46.2285C34.3677 45.9991 34.4608 45.78 34.624 45.6188C34.7872 45.4575 35.0074 45.3671 35.2368 45.3671ZM22.9257 34.2219H28.4825C28.7119 34.2247 28.931 34.3178 29.0922 34.481C29.2535 34.6442 29.3439 34.8644 29.3439 35.0938V39.7788C29.3439 40.0082 29.2535 40.2284 29.0922 40.3916C28.931 40.5548 28.7119 40.6479 28.4825 40.6506H22.9257C22.6944 40.6506 22.4727 40.5588 22.3092 40.3953C22.1457 40.2318 22.0538 40.01 22.0538 39.7788V35.0938C22.0565 34.8634 22.1493 34.6432 22.3122 34.4803C22.4751 34.3174 22.6953 34.2247 22.9257 34.2219ZM22.9257 56.5018H28.4825C28.7119 56.5046 28.931 56.5976 29.0922 56.7608C29.2535 56.924 29.3439 57.1442 29.3439 57.3737V62.0586C29.3439 62.2871 29.2531 62.5062 29.0916 62.6677C28.93 62.8292 28.7109 62.92 28.4825 62.92H22.9257C22.6962 62.92 22.4761 62.8296 22.3128 62.6683C22.1496 62.5071 22.0566 62.288 22.0538 62.0586V57.3737C22.0565 57.1433 22.1493 56.9231 22.3122 56.7602C22.4751 56.5973 22.6953 56.5045 22.9257 56.5018Z" fill="url(#paint0_linear_1172_6360)"/>
<path fill-rule="evenodd" clip-rule="evenodd" d="M22.9254 45.3671H28.4822C28.7117 45.3671 28.9319 45.4575 29.0951 45.6188C29.2583 45.78 29.3514 45.9991 29.3541 46.2285V50.924C29.3514 51.1534 29.2583 51.3724 29.0951 51.5337C28.9319 51.6949 28.7117 51.7853 28.4822 51.7853H22.9254C22.697 51.7853 22.4779 51.6946 22.3163 51.533C22.1548 51.3715 22.0641 51.1524 22.0641 50.924V46.2285C22.0641 46 22.1548 45.7809 22.3163 45.6194C22.4779 45.4579 22.697 45.3671 22.9254 45.3671ZM5.84525 8.80128H45.5624C45.9926 8.80008 46.4187 8.88497 46.8156 9.05094C47.2124 9.21691 47.5721 9.46061 47.8734 9.76769L47.9364 9.83071C48.5136 10.4371 48.8368 11.2415 48.8398 12.0787V35.661C48.5457 35.661 48.2515 35.661 47.9574 35.661C47.6633 35.661 47.2326 35.661 46.907 35.661V12.0787C46.9106 11.7506 46.7863 11.4341 46.5603 11.1963C46.4344 11.0574 46.2802 10.9471 46.108 10.8728C45.9359 10.7986 45.7499 10.762 45.5624 10.7656H5.84525C5.49636 10.7656 5.16112 10.9012 4.91036 11.1438C4.78627 11.2634 4.68783 11.4071 4.62101 11.566C4.5542 11.7249 4.52041 11.8958 4.5217 12.0682V65.8087C4.52433 66.1355 4.64781 66.4498 4.86834 66.6911C4.9907 66.8145 5.13634 66.9124 5.29682 66.9791C5.4573 67.0458 5.62943 67.08 5.80323 67.0797H32.7575C32.8632 67.4863 32.993 67.8861 33.1462 68.2772C33.2441 68.5388 33.3635 68.7918 33.5034 69.0335H5.84525C5.41438 69.0352 4.98744 68.9516 4.58902 68.7875C4.1906 68.6234 3.82857 68.3822 3.52378 68.0776C3.52378 68.0776 3.52378 68.0776 3.47126 68.0146C2.89407 67.4082 2.57083 66.6039 2.56788 65.7667V12.0787C2.56706 11.6495 2.65108 11.2243 2.81513 10.8277C2.97918 10.4311 3.22001 10.0709 3.52378 9.76769C3.82505 9.46061 4.18471 9.21691 4.5816 9.05094C4.97848 8.88497 5.40456 8.80008 5.83475 8.80128H5.84525ZM9.88945 15.1985H41.5077C41.735 15.198 41.96 15.2433 42.1694 15.3318C42.3787 15.4202 42.5681 15.5499 42.7262 15.7132C42.7558 15.7321 42.7809 15.7572 42.7998 15.7867C43.0839 16.1045 43.241 16.5159 43.2409 16.9422V26.8163C43.2366 27.2775 43.0518 27.7187 42.7262 28.0454C42.5649 28.2066 42.3732 28.3341 42.1623 28.4207C41.9513 28.5072 41.7252 28.551 41.4972 28.5496H9.88945C9.66309 28.5502 9.43886 28.506 9.2297 28.4195C9.02055 28.3329 8.83063 28.2058 8.67094 28.0454L8.5974 27.9613C8.31688 27.6462 8.1634 27.2382 8.16672 26.8163V16.9422C8.16605 16.7158 8.21027 16.4916 8.29682 16.2825C8.38337 16.0733 8.51052 15.8834 8.67094 15.7237C8.82816 15.5622 9.01592 15.4335 9.2233 15.3451C9.43067 15.2568 9.65353 15.2105 9.87894 15.209L9.88945 15.1985ZM41.2766 17.1628H10.1205V26.6168H41.2871V17.1628H41.2766ZM37.4005 18.8225H38.535V24.9255H37.4005V18.8225ZM10.6248 34.2219H16.1816C16.4128 34.2219 16.6346 34.3138 16.7981 34.4773C16.9616 34.6408 17.0535 34.8626 17.0535 35.0938V39.7788C17.0535 40.01 16.9616 40.2318 16.7981 40.3953C16.6346 40.5588 16.4128 40.6506 16.1816 40.6506H10.6248C10.3953 40.6479 10.1763 40.5548 10.015 40.3916C9.85379 40.2284 9.76338 40.0082 9.76339 39.7788V35.0938C9.76338 34.8644 9.85379 34.6442 10.015 34.481C10.1763 34.3178 10.3953 34.2247 10.6248 34.2219ZM10.6248 56.5018H16.1816C16.4128 56.5018 16.6346 56.5937 16.7981 56.7572C16.9616 56.9207 17.0535 57.1424 17.0535 57.3737V62.0586C17.0507 62.288 16.9576 62.5071 16.7944 62.6683C16.6312 62.8296 16.411 62.92 16.1816 62.92H10.6248C10.3963 62.92 10.1772 62.8292 10.0157 62.6677C9.85415 62.5062 9.76339 62.2871 9.76339 62.0586V57.3737C9.76338 57.1442 9.85379 56.924 10.015 56.7608C10.1763 56.5976 10.3953 56.5046 10.6248 56.5018ZM10.6248 45.3671H16.1816C16.411 45.3671 16.6312 45.4575 16.7944 45.6188C16.9576 45.78 17.0507 45.9991 17.0535 46.2285V50.924C17.0507 51.1534 16.9576 51.3724 16.7944 51.5337C16.6312 51.6949 16.411 51.7853 16.1816 51.7853H10.6248C10.3963 51.7853 10.1772 51.6946 10.0157 51.533C9.85415 51.3715 9.76339 51.1524 9.76339 50.924V46.2285C9.76339 46 9.85415 45.7809 10.0157 45.6194C10.1772 45.4579 10.3963 45.3671 10.6248 45.3671ZM35.2366 34.2219H40.7829C41.0123 34.2247 41.2314 34.3178 41.3926 34.481C41.5539 34.6442 41.6443 34.8644 41.6443 35.0938V37.8145C41.3486 38.1663 41.1335 38.5786 41.014 39.0225C40.6374 39.2757 40.2856 39.5641 39.9636 39.8838C39.7176 40.1194 39.4927 40.376 39.2913 40.6506H35.2366C35.0072 40.6479 34.7881 40.5548 34.6269 40.3916C34.4656 40.2284 34.3752 40.0082 34.3752 39.7788V35.0938C34.3724 34.9794 34.3927 34.8657 34.4348 34.7593C34.477 34.6529 34.5401 34.5561 34.6205 34.4747C34.701 34.3934 34.7969 34.329 34.9028 34.2856C35.0087 34.2421 35.1222 34.2205 35.2366 34.2219ZM35.2366 45.3671H38.9236C39.0601 45.5869 39.211 45.7975 39.3753 45.9974L41.1506 48.0983L40.5938 48.592L40.2367 48.9071C39.9321 49.1907 39.6589 49.4323 39.4383 49.6634C39.2178 49.8945 38.8711 50.2307 38.661 50.4723C38.4509 50.7139 37.9362 51.2916 37.6106 51.7433H35.2261C34.9967 51.7405 34.7776 51.6475 34.6164 51.4842C34.4551 51.321 34.3647 51.1009 34.3647 50.8714V46.2285C34.3675 45.9991 34.4606 45.78 34.6238 45.6188C34.787 45.4575 35.0072 45.3671 35.2366 45.3671ZM22.9254 34.2219H28.4822C28.7135 34.2219 28.9352 34.3138 29.0988 34.4773C29.2623 34.6408 29.3541 34.8626 29.3541 35.0938V39.7788C29.3541 40.01 29.2623 40.2318 29.0988 40.3953C28.9352 40.5588 28.7135 40.6506 28.4822 40.6506H22.9254C22.696 40.6479 22.4769 40.5548 22.3157 40.3916C22.1545 40.2284 22.064 40.0082 22.0641 39.7788V35.0938C22.064 34.8644 22.1545 34.6442 22.3157 34.481C22.4769 34.3178 22.696 34.2247 22.9254 34.2219ZM22.9254 56.5018H28.4822C28.7135 56.5018 28.9352 56.5937 29.0988 56.7572C29.2623 56.9207 29.3541 57.1424 29.3541 57.3737V62.0586C29.3514 62.288 29.2583 62.5071 29.0951 62.6683C28.9319 62.8296 28.7117 62.92 28.4822 62.92H22.9254C22.697 62.92 22.4779 62.8292 22.3163 62.6677C22.1548 62.5062 22.0641 62.2871 22.0641 62.0586V57.3737C22.064 57.1442 22.1545 56.924 22.3157 56.7608C22.4769 56.5976 22.696 56.5046 22.9254 56.5018Z" stroke="url(#paint1_linear_1172_6360)" stroke-width="0.08" stroke-miterlimit="10"/>
<path d="M51.294 46.1086C51.294 49.7926 50.9433 52.7855 50.5114 52.7855C50.0795 52.7855 49.7188 49.7926 49.7188 46.1086C49.7188 42.4247 50.0846 39.4521 50.5114 39.4521C50.9383 39.4521 51.294 42.4196 51.294 46.1086Z" fill="url(#paint2_radial_1172_6360)"/>
<path d="M50.5122 46.8809C46.8283 46.8809 43.8354 46.5303 43.8354 46.0983C43.8354 45.6664 46.8283 45.3057 50.5122 45.3057C54.1961 45.3057 57.1687 45.6715 57.1687 46.0983C57.1687 46.5252 54.2012 46.8809 50.5122 46.8809Z" fill="url(#paint3_radial_1172_6360)"/>
<path d="M7.45875 6.65649C7.45875 10.3404 7.10814 13.3333 6.67623 13.3333C6.24432 13.3333 5.88354 10.3404 5.88354 6.65649C5.88354 2.97256 6.2494 0 6.67623 0C7.10306 0 7.45875 2.96747 7.45875 6.65649Z" fill="url(#paint4_radial_1172_6360)"/>
<path d="M6.677 7.42872C2.99306 7.42872 0.000180826 7.07811 0.000180845 6.6462C0.000180864 6.21429 2.99306 5.85352 6.677 5.85352C10.3609 5.85352 13.3335 6.21937 13.3335 6.6462C13.3335 7.07303 10.366 7.42872 6.677 7.42872Z" fill="url(#paint5_radial_1172_6360)"/>
<path d="M48.6454 50.0311C48.2094 50.5269 47.8824 51.188 47.8279 51.8491C47.7188 53.5018 47.0648 53.7221 45.8113 52.4551C44.9937 51.6287 44.6122 51.4634 43.7402 51.4634C42.8681 51.4634 42.5411 51.6287 40.6335 53.5568C38.7259 55.485 38.5624 55.7053 38.5624 56.8071C38.5624 57.9089 38.6714 58.0742 39.489 58.7904C40.9605 60.1125 40.6335 60.9389 38.7259 60.9389C36.8183 60.9389 37.6359 61.1592 37.0363 61.8203C36.2188 62.6466 36.1643 62.8119 36.1643 64.74C36.1643 66.6682 36.1643 66.8334 37.0363 67.6047C37.6359 68.2107 38.1809 68.4861 38.9439 68.5412C40.579 68.6514 40.797 69.3125 39.5435 70.5795C38.7259 71.4059 38.5624 71.7915 38.5624 72.673C38.5624 73.5544 38.7259 73.8849 40.6335 75.8131C42.5411 77.7412 42.7591 77.9065 43.8492 77.9065C44.9392 77.9065 45.1027 77.7412 45.8658 76.8598C46.6288 76.0334 46.9013 75.9232 47.2828 76.1436C47.6098 76.3089 47.7733 76.8047 47.7733 77.4107C47.7733 78.1268 47.9914 78.6226 48.5364 79.1735C49.2449 79.9448 49.4084 79.9999 51.4795 79.9999C53.5506 79.9999 53.7141 79.9999 54.3137 79.2837C54.7497 78.7879 55.0767 78.1268 55.1312 77.4657C55.1857 76.8047 55.4037 76.3089 55.6762 76.1436C56.1122 75.9232 56.3302 76.0334 57.0388 76.8598C57.8018 77.7412 58.0743 77.9065 59.1099 77.9065C60.1454 77.9065 60.4179 77.7963 62.38 75.8131C64.2331 73.8849 64.4511 73.6095 64.4511 72.6179C64.4511 71.6262 64.2876 71.4059 63.5246 70.6346C62.1075 69.2023 62.38 68.4861 64.2876 68.4861C66.1952 68.4861 66.5222 67.3843 66.6857 64.8502L66.8492 62.7017L65.9227 61.7652C65.1597 61.049 64.8326 60.8838 64.2331 61.049C63.6336 61.1592 63.3066 61.049 62.9796 60.7185C62.5435 60.2227 62.5435 60.1676 63.4701 59.1209C64.2876 58.2395 64.4511 57.8538 64.4511 56.8622C64.4511 55.8706 64.3421 55.5952 62.5435 53.7221C60.6359 51.794 60.5814 51.7389 59.2189 51.7389C57.8563 51.7389 57.8018 51.8491 57.4203 52.4C56.3847 53.9976 55.1312 53.667 55.1312 51.7389C55.1312 49.8107 54.9677 50.582 54.3682 50.0311C53.6596 49.37 53.4416 49.3149 51.4795 49.3149C49.5174 49.3149 49.2994 49.3149 48.6454 50.0311ZM53.1691 51.4634C53.3326 51.6287 53.4961 52.2347 53.4961 52.8407C53.4961 53.4467 53.6596 54.0527 54.3137 54.7137C54.9677 55.3748 55.2947 55.5401 56.2212 55.3748C56.9298 55.2646 57.5838 54.9341 58.1288 54.3832C58.6194 53.9425 59.1644 53.5568 59.3824 53.5568C59.8184 53.5568 62.816 56.5868 62.816 57.0275C62.816 57.4682 62.4345 57.6335 61.944 58.0191C61.181 58.6802 61.072 58.9005 61.072 60.1676C61.072 61.3796 61.1265 61.655 61.835 62.3161C62.38 62.8119 62.9251 63.0323 63.4701 62.9772C64.6691 62.9221 64.9416 63.2526 64.8326 64.9604V66.3927C64.7781 66.3927 63.6881 66.4478 63.6881 66.4478C62.9796 66.4478 62.3255 66.7784 61.6715 67.2742C60.854 67.9903 60.745 68.2107 60.7995 69.4778C60.7995 70.6897 60.9085 70.9652 61.6715 71.5712C62.162 71.9017 62.5435 72.4526 62.5435 72.673C62.5435 73.1688 59.6549 76.1987 59.1644 76.1987C58.6739 76.1987 58.6194 75.8682 58.2923 75.4274C57.7473 74.6562 56.2757 74.1053 55.1312 74.2706C53.9866 74.4358 53.1146 76.0885 53.2781 76.8047C53.4961 77.6861 52.7331 78.3472 51.425 78.3472C50.117 78.3472 49.6809 78.0166 49.6809 76.9699C49.6809 75.9232 48.6454 74.3807 47.7733 74.2155C46.6288 73.94 45.4842 74.3256 44.7757 75.2071C44.3942 75.6478 43.9037 75.9783 43.6312 75.9783C43.0316 75.9783 40.361 73.334 40.361 72.673C40.361 72.0119 40.7425 71.8466 41.1785 71.461C41.8326 70.9101 42.0506 70.4143 42.1596 69.3125C42.2686 67.9903 42.2686 67.8802 41.4511 67.1089C40.797 66.558 40.252 66.2826 39.489 66.2275H38.3989C38.3989 66.1724 38.3444 64.74 38.3444 64.74C38.2354 62.9772 38.5624 62.5365 39.8705 62.5365C42.3231 62.5365 43.3041 59.4514 41.2875 57.9089C40.9605 57.6335 40.688 57.1377 40.688 56.8071C40.688 56.1461 43.2496 53.3916 43.8492 53.3916C44.4487 53.3916 44.6667 53.7772 45.1027 54.273C45.8113 54.9892 46.1928 55.0994 47.1738 55.0994C48.1549 55.0994 48.4819 54.9892 49.0269 54.3281C49.4084 53.8323 49.6809 53.1712 49.6809 52.5652C49.6809 52.0143 49.7354 51.5185 49.8444 51.4083C50.117 51.0778 52.7331 51.188 53.0601 51.5185L53.1691 51.4634Z" fill="#96C83C"/>
<path d="M49.2233 59.5705C47.5683 60.323 46.0273 62.6962 46.0273 64.4328C46.0273 67.9058 48.7668 70.4527 52.1911 70.1054C55.0446 69.816 57.0421 67.5006 56.9851 64.4907C56.9851 62.1753 55.6724 60.1493 53.732 59.4547C52.6476 59.0495 50.1936 59.1074 49.2233 59.5126V59.5705ZM53.3325 61.307C54.4168 61.8859 55.2729 63.333 55.2729 64.5485C55.2729 67.9058 51.1638 69.4108 48.938 66.9797C46.2556 64.0276 49.7941 59.4547 53.3325 61.307Z" fill="#96C83C"/>
<defs>
<linearGradient id="paint0_linear_1172_6360" x1="9.42754" y1="8.66484" x2="44.0921" y2="76.4183" gradientUnits="userSpaceOnUse">
<stop stop-color="#F0EFEF" stop-opacity="0.3"/>
<stop offset="0.35" stop-color="#FAFBFC" stop-opacity="0.4"/>
<stop offset="0.72" stop-color="white" stop-opacity="0.5"/>
<stop offset="0.96" stop-color="white" stop-opacity="0.85"/>
<stop offset="1" stop-color="white" stop-opacity="0.9"/>
</linearGradient>
<linearGradient id="paint1_linear_1172_6360" x1="34.6379" y1="68.54" x2="13.1038" y2="17.0684" gradientUnits="userSpaceOnUse">
<stop stop-color="white" stop-opacity="0.9"/>
<stop offset="0.28" stop-color="white" stop-opacity="0.5"/>
<stop offset="0.65" stop-color="#FAFBFC" stop-opacity="0.4"/>
<stop offset="1" stop-color="#F0EFEF" stop-opacity="0"/>
</linearGradient>
<radialGradient id="paint2_radial_1172_6360" cx="0" cy="0" r="1" gradientUnits="userSpaceOnUse" gradientTransform="translate(50.3862 46.5956) scale(0.779267 6.6815)">
<stop stop-color="white"/>
<stop offset="0.07" stop-color="white" stop-opacity="0.93"/>
<stop offset="1" stop-color="white" stop-opacity="0"/>
</radialGradient>
<radialGradient id="paint3_radial_1172_6360" cx="0" cy="0" r="1" gradientUnits="userSpaceOnUse" gradientTransform="translate(50.0252 45.9731) rotate(90) scale(0.779267 6.68149)">
<stop stop-color="white"/>
<stop offset="0.07" stop-color="white" stop-opacity="0.93"/>
<stop offset="1" stop-color="white" stop-opacity="0"/>
</radialGradient>
<radialGradient id="paint4_radial_1172_6360" cx="0" cy="0" r="1" gradientUnits="userSpaceOnUse" gradientTransform="translate(6.55102 7.14349) scale(0.779267 6.6815)">
<stop stop-color="white"/>
<stop offset="0.07" stop-color="white" stop-opacity="0.93"/>
<stop offset="1" stop-color="white" stop-opacity="0"/>
</radialGradient>
<radialGradient id="paint5_radial_1172_6360" cx="0" cy="0" r="1" gradientUnits="userSpaceOnUse" gradientTransform="translate(6.19001 6.52099) rotate(90) scale(0.779267 6.68149)">
<stop stop-color="white"/>
<stop offset="0.07" stop-color="white" stop-opacity="0.93"/>
<stop offset="1" stop-color="white" stop-opacity="0"/>
</radialGradient>
</defs>
</svg>
