<svg width="91" height="80" viewBox="0 0 91 80" fill="none" xmlns="http://www.w3.org/2000/svg">
<path fill-rule="evenodd" clip-rule="evenodd" d="M28.4922 25.2056H82.1736C83.0453 25.2056 83.8812 25.5519 84.4976 26.1683C85.114 26.7847 85.4602 27.6208 85.4602 28.4925V60.2666C85.4602 61.1383 85.114 61.9744 84.4976 62.5908C83.8812 63.2072 83.0453 63.5535 82.1736 63.5535H38.0275C38.3563 63.0138 38.9042 62.4658 38.9042 61.6361H82.1736C82.5359 61.6333 82.8826 61.4881 83.1388 61.2318C83.395 60.9756 83.5402 60.6289 83.543 60.2666V41.8705H83.4992H37.2604C35.6165 38.9042 30.685 34.5281 25.2056 33.4247L25.2056 28.4925C25.2056 27.6208 25.5518 26.7847 26.1682 26.1683C26.7846 25.5519 27.6205 25.2056 28.4922 25.2056ZM83.543 32.3492H27.0899V28.5254C27.0929 28.1546 27.2425 27.8 27.5062 27.5393C27.6338 27.4068 27.787 27.3015 27.9565 27.2299C28.126 27.1584 28.3082 27.122 28.4922 27.123H82.1736C82.5325 27.1365 82.873 27.2852 83.1269 27.5391C83.3809 27.7931 83.5295 28.1336 83.543 28.4925V32.3492Z" fill="url(#paint0_linear_961_6030)"/>
<path fill-rule="evenodd" clip-rule="evenodd" d="M41.4309 50.2547C41.6117 50.4356 41.8569 50.5371 42.1126 50.5371H49.5485C49.8041 50.5371 50.0494 50.4356 50.2302 50.2547C50.411 50.0739 50.5125 49.8287 50.5125 49.573C50.5125 49.3172 50.411 49.072 50.2302 48.8912C50.0494 48.7104 49.8041 48.6088 49.5485 48.6088H42.1126C41.8569 48.6088 41.6117 48.7104 41.4309 48.8912C41.2501 49.072 41.1485 49.3172 41.1485 49.573C41.1485 49.8287 41.2501 50.0739 41.4309 50.2547ZM41.4309 55.2948C41.6117 55.4756 41.8569 55.5772 42.1126 55.5772H44.3008C44.5565 55.5772 44.8017 55.4756 44.9825 55.2948C45.1633 55.1139 45.2649 54.8687 45.2649 54.613C45.2649 54.3573 45.1633 54.112 44.9825 53.9312C44.8017 53.7504 44.5565 53.6488 44.3008 53.6488H42.1126C41.8569 53.6488 41.6117 53.7504 41.4309 53.9312C41.2501 54.112 41.1485 54.3573 41.1485 54.613C41.1485 54.8687 41.2501 55.1139 41.4309 55.2948Z" fill="url(#paint1_linear_961_6030)"/>
<path d="M67.7453 56.9252C70.4377 56.9252 72.6204 54.7423 72.6204 52.0495C72.6204 49.3567 70.4377 47.1738 67.7453 47.1738C65.0528 47.1738 62.8701 49.3567 62.8701 52.0495C62.8701 54.7423 65.0528 56.9252 67.7453 56.9252Z" fill="url(#paint2_linear_961_6030)"/>
<path d="M75.0121 56.9252C77.7046 56.9252 79.8873 54.7423 79.8873 52.0495C79.8873 49.3567 77.7046 47.1738 75.0121 47.1738C72.3196 47.1738 70.137 49.3567 70.137 52.0495C70.137 54.7423 72.3196 56.9252 75.0121 56.9252Z" fill="url(#paint3_linear_961_6030)"/>
<path d="M45.4914 76.9367L34.4227 65.8782C37.6476 61.9637 39.2366 57.0572 38.8851 52.0993C38.57 47.153 36.3224 42.4961 32.5818 39.0392C30.7883 37.3785 28.663 36.0753 26.3308 35.2061C23.9986 34.3369 21.5068 33.9194 19.002 33.9781C16.4973 34.0368 14.0302 34.5706 11.7461 35.5481C9.46201 36.5255 7.40705 37.9268 5.70223 39.6695C2.14629 43.3002 0.118905 48.0438 0.00506724 52.9996C-0.108771 57.9555 1.69886 62.7785 5.08471 66.5527C8.38819 70.2097 13.0857 72.4727 18.1458 72.845C20.6394 73.0127 23.1432 72.7079 25.5115 71.9485C27.8798 71.1891 30.0654 69.9902 31.9409 68.4216L43.0097 79.4801C43.1709 79.644 43.365 79.7756 43.5806 79.8672C43.7939 79.9548 44.0239 80.0001 44.2564 80.0001C44.4888 80.0001 44.7188 79.9548 44.9321 79.8672C45.1513 79.7758 45.3493 79.6443 45.5147 79.4801C45.6803 79.3155 45.8074 79.1196 45.8875 78.9051C46.074 78.4728 46.074 77.9883 45.8875 77.556C45.8032 77.3253 45.6681 77.1142 45.4914 76.9367ZM3.55839 53.4152C3.5544 50.2854 4.48344 47.2184 6.23818 44.5684C7.95399 41.9885 10.4404 39.952 13.3804 38.7185C16.2738 37.5123 19.4922 37.1952 22.585 37.8117C25.7074 38.4359 28.5536 39.9526 30.7409 42.1577C32.9841 44.4233 34.4964 47.2517 35.0984 50.3078C35.7176 53.3909 35.4025 56.5775 34.1896 59.4974C33.0237 62.3642 30.9984 64.8439 28.364 66.6302C25.7773 68.366 22.6886 69.3007 19.5207 69.3063C17.4117 69.2955 15.3272 68.8771 13.3941 68.0767C11.4611 67.2763 9.72004 66.1106 8.27716 64.6507C5.24633 61.6173 3.55733 57.5957 3.55839 53.4152Z" fill="url(#paint4_linear_961_6030)"/>
<path d="M19.1478 59.287C18.846 59.3419 18.5716 59.4895 18.3671 59.7072C18.2291 59.8331 18.1182 59.9833 18.0409 60.1496C17.9512 60.3423 17.8961 60.5478 17.8778 60.7578C17.8678 60.9679 17.8994 61.178 17.971 61.3771C18.0424 61.5758 18.1531 61.7597 18.2972 61.9189C18.4367 62.0742 18.6069 62.2019 18.7982 62.2949C19.0028 62.3855 19.225 62.4344 19.4507 62.4387C19.7642 62.4509 20.0738 62.3697 20.3362 62.2064C20.6035 62.038 20.8139 61.8 20.9421 61.5208C21.0735 61.2203 21.1138 60.8909 21.0586 60.5698C21.0056 60.2531 20.851 59.9596 20.6158 59.7293C20.4542 59.5688 20.26 59.4409 20.0449 59.3534C19.761 59.2412 19.4466 59.2179 19.1478 59.287Z" fill="url(#paint5_linear_961_6030)"/>
<path d="M18.2624 55.5278C18.2624 55.8328 18.39 56.1253 18.6173 56.341C18.8445 56.5567 19.1527 56.6778 19.4741 56.6778C19.7955 56.6778 20.1037 56.5567 20.3309 56.341C20.5582 56.1253 20.6858 55.8328 20.6858 55.5278L21.5014 45.8737V45.8073C21.5014 45.1106 20.9189 44.7015 20.1732 44.5356C19.7039 44.4471 19.221 44.4471 18.7517 44.5356C18.0293 44.7015 17.4701 45.0996 17.4584 45.7852C17.4351 47.9637 18.0293 53.1944 18.2624 55.5278Z" fill="url(#paint6_linear_961_6030)"/>
<path d="M19.1478 59.287C18.846 59.3419 18.5716 59.4895 18.3671 59.7072C18.2291 59.8331 18.1182 59.9833 18.0409 60.1496C17.9512 60.3423 17.8961 60.5478 17.8778 60.7578C17.8678 60.9679 17.8994 61.178 17.971 61.3771C18.0424 61.5758 18.1531 61.7597 18.2972 61.9189C18.4367 62.0742 18.6069 62.2019 18.7982 62.2949C19.0028 62.3855 19.225 62.4344 19.4507 62.4387C19.7642 62.4509 20.0738 62.3697 20.3362 62.2064C20.6035 62.038 20.8139 61.8 20.9421 61.5208C21.0735 61.2203 21.1138 60.8909 21.0586 60.5698C21.0056 60.2531 20.851 59.9596 20.6158 59.7293C20.4542 59.5688 20.26 59.4409 20.0449 59.3534C19.761 59.2412 19.4466 59.2179 19.1478 59.287Z" stroke="url(#paint7_linear_961_6030)" stroke-width="0.17" stroke-miterlimit="10"/>
<path d="M18.2624 55.5278C18.2624 55.8328 18.39 56.1253 18.6173 56.341C18.8445 56.5567 19.1527 56.6778 19.4741 56.6778C19.7955 56.6778 20.1037 56.5567 20.3309 56.341C20.5582 56.1253 20.6858 55.8328 20.6858 55.5278L21.5014 45.8737V45.8073C21.5014 45.1106 20.9189 44.7015 20.1732 44.5356C19.7039 44.4471 19.221 44.4471 18.7517 44.5356C18.0293 44.7015 17.4701 45.0996 17.4584 45.7852C17.4351 47.9637 18.0293 53.1944 18.2624 55.5278Z" stroke="url(#paint8_linear_961_6030)" stroke-width="0.17" stroke-miterlimit="10"/>
<path d="M61.8651 0.0126629H72.824C73.4236 -0.0335359 74.0262 0.046997 74.5927 0.249024C75.1591 0.451051 75.6767 0.770047 76.1117 1.18527C76.5516 1.73463 76.8755 2.3675 77.0638 3.04559C77.2522 3.72369 77.3011 4.43294 77.2076 5.13047V5.54691C77.2076 5.83184 77.2076 6.11677 77.2076 6.4017C77.2076 6.68664 77.2076 7.05924 77.2076 7.38801V8.77979C77.2076 8.96609 77.2076 9.16335 77.2076 9.34965V9.80992C77.1969 9.99334 77.1233 10.1675 76.9994 10.3031C76.9048 10.3464 76.802 10.3688 76.698 10.3688C76.594 10.3688 76.4912 10.3464 76.3966 10.3031L76.2432 10.2483C75.9545 10.1423 75.6516 10.0795 75.3446 10.062C75.2672 10.0475 75.1939 10.0165 75.1296 9.97108C75.0653 9.92569 75.0115 9.86699 74.972 9.79896C74.9553 9.61669 74.9553 9.43329 74.972 9.25102V8.15513C74.972 7.8154 74.972 7.47568 74.972 7.13595V4.39622C75.0266 3.79478 74.8415 3.1961 74.4569 2.73047C73.7997 2.26276 72.9843 2.07369 72.1884 2.20444H62.9391C62.57 2.14628 62.193 2.16186 61.83 2.25026C61.467 2.33867 61.125 2.49816 60.824 2.71951C60.3586 3.39417 60.1739 4.22342 60.3089 5.03184V14.2592C60.2446 14.6405 60.257 15.0307 60.3454 15.4071C60.4339 15.7834 60.5966 16.1384 60.824 16.451C61.0808 16.6557 61.3761 16.8067 61.6924 16.8951C62.0086 16.9836 62.3394 17.0077 62.6651 16.9661H68.1446C68.5391 16.9661 68.5391 16.9661 68.7583 17.1305C68.8554 17.2589 68.9364 17.3987 68.9994 17.5469C69.1596 17.8384 69.367 18.1013 69.6131 18.325C69.67 18.3867 69.7139 18.4593 69.7421 18.5384C69.7704 18.6175 69.7824 18.7014 69.7774 18.7853C69.6569 19.0921 69.6569 19.0921 69.5035 19.1688H62.961C62.271 19.2513 61.5714 19.1844 60.9096 18.9726C60.2478 18.7609 59.6393 18.4092 59.1254 17.9414C58.4578 17.2467 58.0881 16.3186 58.0952 15.3551V4.39622C58.048 3.77966 58.1301 3.16002 58.3363 2.57705V2.4565C58.7421 1.50104 59.4936 0.733941 60.4405 0.308553C60.8911 0.116703 61.3753 0.0161326 61.8651 0.0126629Z" fill="url(#paint9_linear_961_6030)"/>
<path d="M75.465 12.1555C75.6075 12.1555 75.6075 12.1555 75.6842 12.2541C75.7956 12.4491 75.8874 12.6547 75.9582 12.8678L76.0678 13.1528C76.1226 13.3062 76.1883 13.4486 76.2431 13.6021C76.3581 14.0572 76.5692 14.4824 76.8621 14.8491C77.1551 15.2158 77.5233 15.5155 77.9418 15.7281L78.5335 15.9692L79.1144 16.1993L79.5089 16.3637L79.6952 16.4404L79.8596 16.5062C79.9544 16.536 80.0383 16.5932 80.1007 16.6706C80.1121 16.7615 80.1121 16.8536 80.1007 16.9445C79.6132 17.189 79.1119 17.4049 78.5993 17.5911C78.1551 17.7086 77.7414 17.9201 77.3859 18.2113C77.0305 18.5024 76.7417 18.8665 76.539 19.2788C76.3966 19.5966 76.265 19.9254 76.1335 20.2432L76.002 20.5719C76.002 20.6815 75.9253 20.7911 75.8815 20.8897V21.0432L75.8267 21.1637C75.7789 21.2727 75.7033 21.3671 75.6075 21.4377C75.5476 21.4604 75.4829 21.4673 75.4195 21.4577C75.3562 21.4481 75.2963 21.4223 75.2459 21.3829C75.184 21.2825 75.1326 21.176 75.0924 21.0651L75.0486 20.8349V20.7254L74.9171 20.4075L74.7527 19.9802C74.6171 19.4867 74.3752 19.029 74.0439 18.639C73.7126 18.249 73.2999 17.9362 72.8349 17.7226L72.3089 17.5473H72.1883L71.6733 17.35L71.2897 17.2075H71.1692C71.0576 17.1529 70.9543 17.0828 70.8623 16.9993C70.8195 16.8953 70.8007 16.7829 70.8075 16.6706C70.9973 16.5227 71.2128 16.4113 71.4431 16.3418L71.5637 16.287L71.9472 16.1336C72.4574 16.0247 72.9384 15.808 73.358 15.498C73.7776 15.188 74.1261 14.792 74.3801 14.3363C74.5226 14.0075 74.6541 13.6678 74.7746 13.3391C74.8404 13.1856 74.8952 13.0432 74.95 12.8897L75.0596 12.6158V12.4843V12.3747C75.0849 12.2923 75.1416 12.2231 75.2175 12.1821C75.2933 12.1411 75.3822 12.1316 75.465 12.1555Z" fill="url(#paint10_linear_961_6030)"/>
<path d="M67.509 5.06516C67.4418 4.8872 67.3219 4.73406 67.1651 4.62631C67.0084 4.51856 66.8224 4.46137 66.6323 4.46242H65.646C65.4558 4.46137 65.2698 4.51856 65.1131 4.62631C64.9564 4.73406 64.8364 4.8872 64.7692 5.06516L61.7884 13.0323C61.7393 13.1477 61.7142 13.272 61.7149 13.3974C61.7155 13.5229 61.7417 13.6469 61.792 13.7619C61.8423 13.8768 61.9156 13.9803 62.0073 14.0659C62.099 14.1515 62.2073 14.2174 62.3254 14.2597C62.4405 14.3035 62.5631 14.3241 62.6862 14.3202C62.8093 14.3164 62.9304 14.2882 63.0425 14.2372C63.1546 14.1862 63.2555 14.1136 63.3393 14.0234C63.4231 13.9332 63.4882 13.8273 63.5309 13.7117L64.046 12.3309H68.2323L68.7473 13.7117C68.814 13.8909 68.9335 14.0455 69.0901 14.1551C69.2467 14.2647 69.4329 14.3241 69.624 14.3254C69.7334 14.3258 69.8416 14.3034 69.9418 14.2597C70.057 14.2182 70.1627 14.1542 70.2528 14.0714C70.3428 13.9886 70.4155 13.8887 70.4665 13.7774C70.5176 13.6662 70.5459 13.5459 70.5499 13.4236C70.5539 13.3013 70.5334 13.1795 70.4898 13.0652L67.509 5.06516ZM64.7473 10.435L66.1391 6.73091L67.5747 10.435H64.7473Z" fill="url(#paint11_linear_961_6030)"/>
<path d="M71.9581 4.4624C71.7111 4.4624 71.4741 4.56054 71.2994 4.73523C71.1248 4.90993 71.0266 5.14686 71.0266 5.39391V13.3501C71.0266 13.5971 71.1248 13.8341 71.2994 14.0087C71.4741 14.1834 71.7111 14.2816 71.9581 14.2816C72.2052 14.2816 72.4421 14.1834 72.6168 14.0087C72.7915 13.8341 72.8896 13.5971 72.8896 13.3501V5.39391C72.8896 5.14686 72.7915 4.90993 72.6168 4.73523C72.4421 4.56054 72.2052 4.4624 71.9581 4.4624Z" fill="url(#paint12_linear_961_6030)"/>
<path d="M26.4418 25.6021C26.4418 29.4605 26.0746 32.5952 25.6222 32.5952C25.1699 32.5952 24.792 29.4605 24.792 25.6021C24.792 21.7437 25.1752 18.6304 25.6222 18.6304C26.0693 18.6304 26.4418 21.7384 26.4418 25.6021Z" fill="url(#paint13_radial_961_6030)"/>
<path d="M25.6232 26.411C21.7648 26.411 18.6302 26.0438 18.6302 25.5915C18.6302 25.1391 21.7648 24.7612 25.6232 24.7612C29.4816 24.7612 32.595 25.1444 32.595 25.5915C32.595 26.0385 29.487 26.411 25.6232 26.411Z" fill="url(#paint14_radial_961_6030)"/>
<path d="M84.5241 62.8624C84.5241 66.7208 84.1569 69.8554 83.7045 69.8554C83.2521 69.8554 82.8743 66.7208 82.8743 62.8624C82.8743 59.004 83.2574 55.8906 83.7045 55.8906C84.1515 55.8906 84.5241 58.9986 84.5241 62.8624Z" fill="url(#paint15_radial_961_6030)"/>
<path d="M83.7055 63.6713C79.8471 63.6713 76.7125 63.3041 76.7125 62.8517C76.7125 62.3993 79.8471 62.0215 83.7055 62.0215C87.5639 62.0215 90.6772 62.4047 90.6772 62.8517C90.6772 63.2988 87.5692 63.6713 83.7055 63.6713Z" fill="url(#paint16_radial_961_6030)"/>
<defs>
<linearGradient id="paint0_linear_961_6030" x1="26.5" y1="25" x2="85" y2="65.5" gradientUnits="userSpaceOnUse">
<stop stop-color="#F0EFEF" stop-opacity="0.3"/>
<stop offset="0.35" stop-color="#FAFBFC" stop-opacity="0.4"/>
<stop offset="0.72" stop-color="white" stop-opacity="0.5"/>
<stop offset="0.96" stop-color="white" stop-opacity="0.85"/>
<stop offset="1" stop-color="white" stop-opacity="0.9"/>
</linearGradient>
<linearGradient id="paint1_linear_961_6030" x1="26.5" y1="25" x2="85" y2="65.5" gradientUnits="userSpaceOnUse">
<stop stop-color="#F0EFEF" stop-opacity="0.3"/>
<stop offset="0.35" stop-color="#FAFBFC" stop-opacity="0.4"/>
<stop offset="0.72" stop-color="white" stop-opacity="0.5"/>
<stop offset="0.96" stop-color="white" stop-opacity="0.85"/>
<stop offset="1" stop-color="white" stop-opacity="0.9"/>
</linearGradient>
<linearGradient id="paint2_linear_961_6030" x1="55" y1="38" x2="71.0197" y2="55.4749" gradientUnits="userSpaceOnUse">
<stop stop-color="#F0EFEF" stop-opacity="0.3"/>
<stop offset="0.35" stop-color="#FAFBFC" stop-opacity="0.4"/>
<stop offset="0.72" stop-color="white" stop-opacity="0.5"/>
<stop offset="0.96" stop-color="white" stop-opacity="0.85"/>
<stop offset="1" stop-color="white" stop-opacity="0.9"/>
</linearGradient>
<linearGradient id="paint3_linear_961_6030" x1="70.137" y1="52.0495" x2="79.8763" y2="52.0495" gradientUnits="userSpaceOnUse">
<stop stop-color="#79A540"/>
<stop offset="0.2" stop-color="#94C63D"/>
<stop offset="0.39" stop-color="#98CA3C"/>
<stop offset="0.59" stop-color="#93C53E"/>
<stop offset="0.74" stop-color="#9DCB3B"/>
<stop offset="0.9" stop-color="#A6CE39"/>
<stop offset="1" stop-color="#A6CE39"/>
</linearGradient>
<linearGradient id="paint4_linear_961_6030" x1="-0.0302132" y1="56.965" x2="46.0041" y2="56.965" gradientUnits="userSpaceOnUse">
<stop stop-color="#79A540"/>
<stop offset="0.2" stop-color="#94C63D"/>
<stop offset="0.39" stop-color="#98CA3C"/>
<stop offset="0.59" stop-color="#93C53E"/>
<stop offset="0.74" stop-color="#9DCB3B"/>
<stop offset="0.9" stop-color="#A6CE39"/>
<stop offset="1" stop-color="#A6CE39"/>
</linearGradient>
<linearGradient id="paint5_linear_961_6030" x1="19.474" y1="67.7136" x2="19.474" y2="35.9867" gradientUnits="userSpaceOnUse">
<stop stop-color="#79A540"/>
<stop offset="0.2" stop-color="#94C63F"/>
<stop offset="0.39" stop-color="#99CA3E"/>
<stop offset="0.59" stop-color="#93C53F"/>
<stop offset="0.74" stop-color="#9DCB3B"/>
<stop offset="0.9" stop-color="#A5CE3A"/>
<stop offset="1" stop-color="#A5CE3A"/>
</linearGradient>
<linearGradient id="paint6_linear_961_6030" x1="19.4741" y1="67.7142" x2="19.4741" y2="35.9874" gradientUnits="userSpaceOnUse">
<stop stop-color="#79A540"/>
<stop offset="0.2" stop-color="#94C63F"/>
<stop offset="0.39" stop-color="#99CA3E"/>
<stop offset="0.59" stop-color="#93C53F"/>
<stop offset="0.74" stop-color="#9DCB3B"/>
<stop offset="0.9" stop-color="#A5CE3A"/>
<stop offset="1" stop-color="#A5CE3A"/>
</linearGradient>
<linearGradient id="paint7_linear_961_6030" x1="19.474" y1="59.1543" x2="19.474" y2="62.5382" gradientUnits="userSpaceOnUse">
<stop stop-color="white" stop-opacity="0.9"/>
<stop offset="0.28" stop-color="white" stop-opacity="0.5"/>
<stop offset="0.65" stop-color="#FAFBFC" stop-opacity="0.4"/>
<stop offset="1" stop-color="#F0EFEF" stop-opacity="0.3"/>
</linearGradient>
<linearGradient id="paint8_linear_961_6030" x1="19.4741" y1="44.3587" x2="19.4741" y2="56.6447" gradientUnits="userSpaceOnUse">
<stop stop-color="white" stop-opacity="0.9"/>
<stop offset="0.28" stop-color="white" stop-opacity="0.5"/>
<stop offset="0.65" stop-color="#FAFBFC" stop-opacity="0.4"/>
<stop offset="1" stop-color="#F0EFEF" stop-opacity="0.3"/>
</linearGradient>
<linearGradient id="paint9_linear_961_6030" x1="58.0733" y1="9.57979" x2="77.2514" y2="9.57979" gradientUnits="userSpaceOnUse">
<stop stop-color="#79A540"/>
<stop offset="0.2" stop-color="#94C63D"/>
<stop offset="0.39" stop-color="#98CA3C"/>
<stop offset="0.59" stop-color="#93C53E"/>
<stop offset="0.74" stop-color="#9DCB3B"/>
<stop offset="0.9" stop-color="#A6CE39"/>
<stop offset="1" stop-color="#A6CE39"/>
</linearGradient>
<linearGradient id="paint10_linear_961_6030" x1="70.8404" y1="16.8021" x2="80.1116" y2="16.8021" gradientUnits="userSpaceOnUse">
<stop stop-color="#79A540"/>
<stop offset="0.2" stop-color="#94C63D"/>
<stop offset="0.39" stop-color="#98CA3C"/>
<stop offset="0.59" stop-color="#93C53E"/>
<stop offset="0.74" stop-color="#9DCB3B"/>
<stop offset="0.9" stop-color="#A6CE39"/>
<stop offset="1" stop-color="#A6CE39"/>
</linearGradient>
<linearGradient id="paint11_linear_961_6030" x1="66.1391" y1="14.2926" x2="66.1391" y2="4.46242" gradientUnits="userSpaceOnUse">
<stop stop-color="#79A540"/>
<stop offset="0.2" stop-color="#94C63D"/>
<stop offset="0.39" stop-color="#98CA3C"/>
<stop offset="0.59" stop-color="#93C53E"/>
<stop offset="0.74" stop-color="#9DCB3B"/>
<stop offset="0.9" stop-color="#A6CE39"/>
<stop offset="1" stop-color="#A6CE39"/>
</linearGradient>
<linearGradient id="paint12_linear_961_6030" x1="71.9362" y1="14.2925" x2="71.9362" y2="4.4624" gradientUnits="userSpaceOnUse">
<stop stop-color="#79A540"/>
<stop offset="0.2" stop-color="#94C63D"/>
<stop offset="0.39" stop-color="#98CA3C"/>
<stop offset="0.59" stop-color="#93C53E"/>
<stop offset="0.74" stop-color="#9DCB3B"/>
<stop offset="0.9" stop-color="#A6CE39"/>
<stop offset="1" stop-color="#A6CE39"/>
</linearGradient>
<radialGradient id="paint13_radial_961_6030" cx="0" cy="0" r="1" gradientUnits="userSpaceOnUse" gradientTransform="translate(25.4911 26.1122) scale(0.816174 6.99794)">
<stop stop-color="white"/>
<stop offset="0.07" stop-color="white" stop-opacity="0.93"/>
<stop offset="1" stop-color="white" stop-opacity="0"/>
</radialGradient>
<radialGradient id="paint14_radial_961_6030" cx="0" cy="0" r="1" gradientUnits="userSpaceOnUse" gradientTransform="translate(25.1132 25.4603) rotate(90) scale(0.816174 6.99794)">
<stop stop-color="white"/>
<stop offset="0.07" stop-color="white" stop-opacity="0.93"/>
<stop offset="1" stop-color="white" stop-opacity="0"/>
</radialGradient>
<radialGradient id="paint15_radial_961_6030" cx="0" cy="0" r="1" gradientUnits="userSpaceOnUse" gradientTransform="translate(83.5734 63.3724) scale(0.816174 6.99794)">
<stop stop-color="white"/>
<stop offset="0.07" stop-color="white" stop-opacity="0.93"/>
<stop offset="1" stop-color="white" stop-opacity="0"/>
</radialGradient>
<radialGradient id="paint16_radial_961_6030" cx="0" cy="0" r="1" gradientUnits="userSpaceOnUse" gradientTransform="translate(83.1954 62.7206) rotate(90) scale(0.816174 6.99794)">
<stop stop-color="white"/>
<stop offset="0.07" stop-color="white" stop-opacity="0.93"/>
<stop offset="1" stop-color="white" stop-opacity="0"/>
</radialGradient>
</defs>
</svg>
