<svg width="69" height="80" viewBox="0 0 69 80" fill="none" xmlns="http://www.w3.org/2000/svg">
<path fill-rule="evenodd" clip-rule="evenodd" d="M34.9193 53.3978H39.9899C40.1984 53.3978 40.3983 53.4806 40.5457 53.628C40.6931 53.7755 40.7759 53.9754 40.7759 54.1838V58.4684C40.7759 58.6769 40.6931 58.8768 40.5457 59.0242C40.3983 59.1716 40.1984 59.2544 39.9899 59.2544H34.9193C34.71 59.2545 34.5091 59.172 34.3601 59.0248C34.2112 58.8777 34.1263 58.6778 34.1238 58.4684V54.1838C34.1287 53.9753 34.2144 53.7768 34.3628 53.6302C34.5112 53.4836 34.7107 53.4003 34.9193 53.3978ZM19.3241 20.0315H55.5756C55.9681 20.0304 56.3569 20.1079 56.7191 20.2593C57.0812 20.4108 57.4094 20.6331 57.6844 20.9133L57.7419 20.9709C58.2686 21.5242 58.5635 22.2582 58.5662 23.0221V44.541C58.2978 44.541 58.0294 44.541 57.761 44.541C57.4927 44.541 57.0997 44.541 56.8025 44.541V23.0221C56.8059 22.7228 56.6924 22.4339 56.4862 22.2169C56.3717 22.0897 56.231 21.9888 56.0738 21.9209C55.9167 21.8531 55.7467 21.82 55.5756 21.824H19.3241C19.0087 21.8244 18.7059 21.9483 18.4806 22.169C18.3704 22.28 18.2832 22.4116 18.224 22.5564C18.1648 22.7011 18.1347 22.8561 18.1355 23.0125V72.0508C18.1379 72.349 18.2506 72.6358 18.4518 72.8559C18.562 72.9678 18.6933 73.0568 18.8381 73.1177C18.9829 73.1786 19.1383 73.2101 19.2953 73.2106H43.8912C43.9876 73.5815 44.106 73.9464 44.2458 74.3033C44.3359 74.5401 44.4416 74.7706 44.5621 74.9935H19.3241C18.9323 74.9953 18.5441 74.9191 18.182 74.7693C17.82 74.6196 17.4914 74.3992 17.2153 74.1212C17.2153 74.1212 17.2153 74.1212 17.1578 74.0637C16.6311 73.5103 16.3362 72.7764 16.3335 72.0124V23.0221C16.3345 22.6299 16.413 22.2417 16.5643 21.8799C16.7156 21.518 16.9369 21.1895 17.2153 20.9133C17.4891 20.6343 17.8158 20.4126 18.1762 20.2612C18.5366 20.1098 18.9236 20.0317 19.3145 20.0315H19.3241ZM23.024 25.8689H51.8757C52.083 25.869 52.2882 25.9107 52.4791 25.9913C52.6701 26.072 52.843 26.1901 52.9876 26.3386C53.0145 26.3558 53.0374 26.3787 53.0547 26.4057C53.3113 26.6966 53.4513 27.0722 53.4477 27.4601V36.4702C53.4473 36.8899 53.282 37.2927 52.9876 37.5917C52.8404 37.7388 52.6655 37.8552 52.473 37.9342C52.2805 38.0132 52.0742 38.0532 51.8661 38.0518H23.024C22.8172 38.054 22.6121 38.0144 22.4211 37.9354C22.23 37.8563 22.0569 37.7394 21.9121 37.5917C21.8849 37.5709 21.8621 37.5448 21.845 37.515C21.5864 37.2285 21.443 36.8563 21.4424 36.4702V27.4601C21.4436 27.253 21.4857 27.0481 21.5663 26.8573C21.6469 26.6665 21.7644 26.4934 21.9121 26.3482C22.0549 26.1999 22.2261 26.0819 22.4155 26.0013C22.6049 25.9206 22.8086 25.8788 23.0144 25.8785L23.024 25.8689ZM51.6648 27.6614H23.2349V36.2881H51.6744V27.6614H51.6648ZM48.1183 29.1759H49.1535V34.7449H48.1183V29.1759ZM23.695 43.2279H28.7656C28.9749 43.2304 29.1748 43.3153 29.322 43.4642C29.4691 43.6132 29.5516 43.8141 29.5516 44.0234V48.2985C29.5516 48.5078 29.4691 48.7087 29.322 48.8577C29.1748 49.0066 28.9749 49.0915 28.7656 49.094H23.695C23.484 49.094 23.2816 49.0102 23.1324 48.861C22.9832 48.7118 22.8994 48.5095 22.8994 48.2985V44.0234C22.9019 43.8132 22.9865 43.6123 23.1352 43.4636C23.2838 43.315 23.4848 43.2304 23.695 43.2279ZM23.695 63.5582H28.7656C28.9749 63.5607 29.1748 63.6457 29.322 63.7946C29.4691 63.9435 29.5516 64.1445 29.5516 64.3538V68.6288C29.5516 68.8373 29.4688 69.0372 29.3214 69.1846C29.174 69.332 28.9741 69.4148 28.7656 69.4148H23.695C23.4856 69.4148 23.2847 69.3323 23.1358 69.1852C22.9869 69.0381 22.9019 68.8382 22.8994 68.6288V64.3538C22.9019 64.1436 22.9865 63.9427 23.1352 63.794C23.2838 63.6453 23.4848 63.5607 23.695 63.5582ZM23.695 53.3978H28.7656C28.9741 53.3978 29.174 53.4806 29.3214 53.628C29.4688 53.7755 29.5516 53.9754 29.5516 54.1838V58.4684C29.5491 58.6761 29.4655 58.8746 29.3186 59.0215C29.1718 59.1683 28.9733 59.2519 28.7656 59.2544H23.695C23.4856 59.2545 23.2847 59.172 23.1358 59.0248C22.9869 58.8777 22.9019 58.6778 22.8994 58.4684V54.1838C22.9044 53.9753 22.9901 53.7768 23.1385 53.6302C23.2869 53.4836 23.4864 53.4003 23.695 53.3978ZM46.1533 43.2279H51.2143C51.4236 43.2304 51.6235 43.3153 51.7707 43.4642C51.9178 43.6132 52.0003 43.8141 52.0003 44.0234V46.506C51.7317 46.8294 51.5326 47.2046 51.4156 47.6083C51.0734 47.8413 50.7526 48.1044 50.4571 48.3943C50.23 48.6068 50.0245 48.8411 49.8436 49.094H46.1533C45.9423 49.094 45.7399 49.0102 45.5907 48.861C45.4415 48.7118 45.3577 48.5095 45.3577 48.2985V44.0234C45.3577 43.8124 45.4415 43.6101 45.5907 43.4609C45.7399 43.3117 45.9423 43.2279 46.1533 43.2279ZM46.1533 53.3978H49.5177C49.639 53.6006 49.7769 53.7929 49.9299 53.9729L51.5498 55.89L51.0418 56.3405L50.7063 56.6281C50.4187 56.8869 50.1791 57.1073 49.9682 57.3182C49.7573 57.5291 49.4602 57.8358 49.2589 58.0563C49.0576 58.2767 48.6071 58.8039 48.3004 59.2161H46.1437C45.9344 59.2136 45.7344 59.1286 45.5873 58.9797C45.4402 58.8308 45.3577 58.6299 45.3577 58.4205V54.1838C45.3602 53.9745 45.4452 53.7746 45.5941 53.6275C45.743 53.4803 45.9439 53.3978 46.1533 53.3978ZM34.9193 43.2279H39.9899C40.1993 43.2304 40.3992 43.3153 40.5463 43.4642C40.6935 43.6132 40.776 43.8141 40.7759 44.0234V48.2985C40.776 48.5078 40.6935 48.7087 40.5463 48.8577C40.3992 49.0066 40.1993 49.0915 39.9899 49.094H34.9193C34.7083 49.094 34.506 49.0102 34.3568 48.861C34.2076 48.7118 34.1238 48.5095 34.1238 48.2985V44.0234C34.1262 43.8132 34.2109 43.6123 34.3595 43.4636C34.5082 43.315 34.7091 43.2304 34.9193 43.2279ZM34.9193 63.5582H39.9899C40.1993 63.5607 40.3992 63.6457 40.5463 63.7946C40.6935 63.9435 40.776 64.1445 40.7759 64.3538V68.6288C40.7759 68.8373 40.6931 69.0372 40.5457 69.1846C40.3983 69.332 40.1984 69.4148 39.9899 69.4148H34.9193C34.71 69.4148 34.5091 69.3323 34.3601 69.1852C34.2112 69.0381 34.1263 68.8382 34.1238 68.6288V64.3538C34.1262 64.1436 34.2109 63.9427 34.3595 63.794C34.5082 63.6453 34.7091 63.5607 34.9193 63.5582Z" fill="url(#paint0_linear_900_13027)"/>
<path fill-rule="evenodd" clip-rule="evenodd" d="M34.9195 53.3978H39.9901C40.1995 53.3978 40.4004 53.4803 40.5493 53.6275C40.6983 53.7746 40.7832 53.9745 40.7857 54.1838V58.4684C40.7832 58.6778 40.6983 58.8777 40.5493 59.0248C40.4004 59.172 40.1995 59.2545 39.9901 59.2544H34.9195C34.7111 59.2544 34.5111 59.1716 34.3637 59.0242C34.2163 58.8768 34.1335 58.6769 34.1335 58.4684V54.1838C34.1335 53.9754 34.2163 53.7755 34.3637 53.628C34.5111 53.4806 34.7111 53.3978 34.9195 53.3978ZM19.3339 20.0315H55.5758C55.9683 20.0304 56.3571 20.1079 56.7193 20.2593C57.0814 20.4108 57.4096 20.6331 57.6845 20.9133L57.7421 20.9709C58.2687 21.5242 58.5637 22.2582 58.5664 23.0221V44.541C58.298 44.541 58.0296 44.541 57.7612 44.541C57.4928 44.541 57.0998 44.541 56.8027 44.541V23.0221C56.806 22.7228 56.6926 22.4339 56.4864 22.2169C56.3715 22.0902 56.2307 21.9896 56.0737 21.9218C55.9166 21.854 55.7468 21.8207 55.5758 21.824H19.3339C19.0155 21.8239 18.7096 21.9477 18.4808 22.169C18.3676 22.2782 18.2777 22.4093 18.2168 22.5543C18.1558 22.6993 18.125 22.8552 18.1261 23.0125V72.0508C18.1285 72.349 18.2412 72.6358 18.4424 72.8559C18.5541 72.9686 18.687 73.0579 18.8334 73.1188C18.9799 73.1797 19.1369 73.2109 19.2955 73.2106H43.8913C43.9878 73.5815 44.1062 73.9464 44.246 74.3033C44.3353 74.542 44.4443 74.7728 44.5719 74.9935H19.3339C18.9407 74.9949 18.5511 74.9186 18.1876 74.7689C17.824 74.6192 17.4937 74.3991 17.2155 74.1212C17.2155 74.1212 17.2155 74.1212 17.1676 74.0637C16.6409 73.5103 16.346 72.7764 16.3433 72.0124V23.0221C16.3425 22.6305 16.4192 22.2426 16.5689 21.8807C16.7186 21.5188 16.9383 21.19 17.2155 20.9133C17.4904 20.6331 17.8186 20.4108 18.1808 20.2593C18.5429 20.1079 18.9317 20.0304 19.3243 20.0315H19.3339ZM23.0242 25.8689H51.8759C52.0833 25.8685 52.2886 25.9099 52.4796 25.9906C52.6707 26.0713 52.8435 26.1896 52.9878 26.3386C53.0147 26.3558 53.0376 26.3787 53.0549 26.4057C53.3142 26.6957 53.4575 27.0711 53.4574 27.4601V36.4702C53.4534 36.8911 53.2848 37.2936 52.9878 37.5917C52.8406 37.7388 52.6657 37.8552 52.4731 37.9342C52.2806 38.0132 52.0744 38.0532 51.8663 38.0518H23.0242C22.8177 38.0524 22.613 38.0121 22.4222 37.9331C22.2313 37.8541 22.058 37.7381 21.9123 37.5917L21.8452 37.515C21.5892 37.2275 21.4492 36.8552 21.4522 36.4702V27.4601C21.4516 27.2535 21.492 27.0489 21.5709 26.8581C21.6499 26.6672 21.7659 26.4939 21.9123 26.3482C22.0558 26.2008 22.2271 26.0834 22.4163 26.0028C22.6056 25.9221 22.8089 25.8799 23.0146 25.8785L23.0242 25.8689ZM51.665 27.6614H23.2351V36.2881H51.6746V27.6614H51.665ZM48.128 29.1759H49.1632V34.7449H48.128V29.1759ZM23.6952 43.2279H28.7658C28.9768 43.2279 29.1791 43.3117 29.3283 43.4609C29.4775 43.6101 29.5614 43.8124 29.5614 44.0234V48.2985C29.5614 48.5095 29.4775 48.7118 29.3283 48.861C29.1791 49.0102 28.9768 49.094 28.7658 49.094H23.6952C23.4858 49.0915 23.2859 49.0066 23.1388 48.8577C22.9917 48.7087 22.9092 48.5078 22.9092 48.2985V44.0234C22.9092 43.8141 22.9917 43.6132 23.1388 43.4642C23.2859 43.3153 23.4858 43.2304 23.6952 43.2279ZM23.6952 63.5582H28.7658C28.9768 63.5582 29.1791 63.642 29.3283 63.7912C29.4775 63.9404 29.5614 64.1428 29.5614 64.3538V68.6288C29.5588 68.8382 29.4739 69.0381 29.325 69.1852C29.176 69.3323 28.9751 69.4148 28.7658 69.4148H23.6952C23.4867 69.4148 23.2868 69.332 23.1394 69.1846C22.992 69.0372 22.9092 68.8373 22.9092 68.6288V64.3538C22.9092 64.1445 22.9917 63.9435 23.1388 63.7946C23.2859 63.6457 23.4858 63.5607 23.6952 63.5582ZM23.6952 53.3978H28.7658C28.9751 53.3978 29.176 53.4803 29.325 53.6275C29.4739 53.7746 29.5588 53.9745 29.5614 54.1838V58.4684C29.5588 58.6778 29.4739 58.8777 29.325 59.0248C29.176 59.172 28.9751 59.2545 28.7658 59.2544H23.6952C23.4867 59.2544 23.2868 59.1716 23.1394 59.0242C22.992 58.8768 22.9092 58.6769 22.9092 58.4684V54.1838C22.9092 53.9754 22.992 53.7755 23.1394 53.628C23.2868 53.4806 23.4867 53.3978 23.6952 53.3978ZM46.1535 43.2279H51.2145C51.4238 43.2304 51.6237 43.3153 51.7709 43.4642C51.918 43.6132 52.0005 43.8141 52.0005 44.0234V46.506C51.7307 46.8271 51.5344 47.2034 51.4254 47.6083C51.0817 47.8394 50.7607 48.1026 50.4668 48.3943C50.2424 48.6093 50.0371 48.8434 49.8534 49.094H46.1535C45.9441 49.0915 45.7442 49.0066 45.5971 48.8577C45.45 48.7087 45.3675 48.5078 45.3675 48.2985V44.0234C45.3649 43.9191 45.3834 43.8152 45.4218 43.7182C45.4603 43.6211 45.5179 43.5328 45.5913 43.4585C45.6647 43.3843 45.7523 43.3256 45.8489 43.2859C45.9455 43.2463 46.0491 43.2265 46.1535 43.2279ZM46.1535 53.3978H49.5179C49.6425 53.5984 49.7801 53.7905 49.9301 53.973L51.55 55.89L51.0419 56.3405L50.7161 56.6281C50.4381 56.8869 50.1889 57.1073 49.9876 57.3182C49.7863 57.5291 49.47 57.8358 49.2783 58.0563C49.0866 58.2767 48.6169 58.8039 48.3197 59.2161H46.1439C45.9345 59.2136 45.7346 59.1286 45.5875 58.9797C45.4404 58.8308 45.3579 58.6299 45.3579 58.4205V54.1838C45.3604 53.9745 45.4453 53.7746 45.5943 53.6275C45.7432 53.4803 45.9441 53.3978 46.1535 53.3978ZM34.9195 43.2279H39.9901C40.2011 43.2279 40.4035 43.3117 40.5527 43.4609C40.7019 43.6101 40.7857 43.8124 40.7857 44.0234V48.2985C40.7857 48.5095 40.7019 48.7118 40.5527 48.861C40.4035 49.0102 40.2011 49.094 39.9901 49.094H34.9195C34.7102 49.0915 34.5103 49.0066 34.3632 48.8577C34.216 48.7087 34.1335 48.5078 34.1335 48.2985V44.0234C34.1335 43.8141 34.216 43.6132 34.3632 43.4642C34.5103 43.3153 34.7102 43.2304 34.9195 43.2279ZM34.9195 63.5582H39.9901C40.2011 63.5582 40.4035 63.642 40.5527 63.7912C40.7019 63.9404 40.7857 64.1428 40.7857 64.3538V68.6288C40.7832 68.8382 40.6983 69.0381 40.5493 69.1852C40.4004 69.3323 40.1995 69.4148 39.9901 69.4148H34.9195C34.7111 69.4148 34.5111 69.332 34.3637 69.1846C34.2163 69.0372 34.1335 68.8373 34.1335 68.6288V64.3538C34.1335 64.1445 34.216 63.9435 34.3632 63.7946C34.5103 63.6457 34.7102 63.5607 34.9195 63.5582Z" stroke="url(#paint1_linear_900_13027)" stroke-width="0.08" stroke-miterlimit="10"/>
<path d="M5.89513 20.6354C6.36772 23.7525 7.86116 26.6248 10.1414 28.802L11.282 26.885L13.017 31.8022L7.90803 32.5307L9.04868 30.6137C6.24218 28.0823 4.3967 24.6589 3.82471 20.923M34.1046 16.2166C33.6106 13.1341 32.1188 10.2989 29.8583 8.14579L28.7272 9.99575L27.0115 5.12643L32.1204 4.39795L30.9606 6.315C33.7451 8.81734 35.5831 12.2022 36.1654 15.9003" stroke="url(#paint2_linear_900_13027)" stroke-width="0.08" stroke-miterlimit="10"/>
<path fill-rule="evenodd" clip-rule="evenodd" d="M5.89513 20.6354C6.36772 23.7525 7.86116 26.6248 10.1414 28.802L11.282 26.885L13.017 31.8022L7.90803 32.5307L9.04868 30.6137C6.24218 28.0823 4.3967 24.6589 3.82471 20.923M34.1046 16.2166C33.6106 13.1341 32.1188 10.2989 29.8583 8.14579L28.7272 9.99575L27.0115 5.12643L32.1204 4.39795L30.9606 6.315C33.7451 8.81734 35.5831 12.2022 36.1654 15.9003" fill="url(#paint3_linear_900_13027)"/>
<path d="M10.1478 19.8899L2.82396 15.9117L5.22485 11.4917L6.01159 11.919L4.09243 15.4522L6.56709 16.7964L8.36193 13.4921L9.14868 13.9194L7.35383 17.2238L9.8428 18.5757L11.793 14.9853L12.5798 15.4127L10.1478 19.8899Z" fill="black"/>
<path d="M13.4099 14.3567L9.10361 7.22084L11.5147 5.76577C12.0722 5.42934 12.5873 5.24843 13.06 5.22303C13.5312 5.1953 13.9523 5.2945 14.3233 5.52061C14.6942 5.74672 15.0066 6.07 15.2603 6.49044C15.514 6.91088 15.6531 7.33556 15.6774 7.7645C15.7018 8.19343 15.5923 8.60805 15.3491 9.00836C15.1044 9.40634 14.7057 9.77214 14.1528 10.1058L12.2016 11.2833L11.7306 10.5028L13.654 9.34211C14.0349 9.11221 14.3079 8.87143 14.4729 8.61975C14.6402 8.36667 14.7145 8.10639 14.6956 7.83889C14.6777 7.56767 14.5826 7.28921 14.4101 7.0035C14.2377 6.71778 14.0336 6.50032 13.7978 6.3511C13.562 6.20187 13.2917 6.13998 12.987 6.16542C12.6809 6.18854 12.3351 6.31644 11.9495 6.54914L10.4303 7.46592L14.274 13.8352L13.4099 14.3567ZM14.8343 9.12413L18.5249 11.2699L17.5214 11.8755L13.8587 9.71289L14.8343 9.12413Z" fill="black"/>
<path d="M19.5285 11.1067L19.3932 2.77323L22.209 2.72752C22.8628 2.71691 23.3991 2.82624 23.818 3.05551C24.2395 3.28202 24.5539 3.59303 24.7611 3.98854C24.9683 4.38405 25.0759 4.82731 25.0839 5.31831C25.0918 5.80931 24.9987 6.25718 24.8045 6.66192C24.613 7.06661 24.3116 7.39169 23.9005 7.63715C23.4893 7.87989 22.9595 8.00652 22.3112 8.01705L20.2929 8.04981L20.2784 7.15461L22.2641 7.12238C22.7117 7.11512 23.0698 7.03197 23.3386 6.87294C23.6074 6.71391 23.8006 6.50184 23.9184 6.23673C24.0389 5.96885 24.0964 5.66809 24.091 5.33442C24.0856 5.00076 24.0184 4.70338 23.8893 4.44227C23.763 4.18112 23.5616 3.97817 23.2852 3.83341C23.0087 3.68595 22.644 3.61589 22.191 3.62325L20.4169 3.65205L20.5376 11.0903L19.5285 11.1067Z" fill="black"/>
<path d="M6.70059 12.2963L4.98483 15.4498L6.68142 16.4083L8.26299 13.5328C8.34441 13.3545 8.48733 13.2116 8.66557 13.1302C8.7396 13.0977 8.81957 13.0809 8.90041 13.0809C8.98125 13.0809 9.06122 13.0977 9.13525 13.1302C9.20629 13.1684 9.26911 13.2202 9.32009 13.2827C9.37108 13.3452 9.40924 13.4171 9.43239 13.4944C9.46433 13.6906 9.42343 13.8918 9.31737 14.0599L7.74538 16.9355L9.66244 17.9995L11.4357 14.7405C11.5183 14.5542 11.6693 14.4066 11.8575 14.3283C11.9392 14.3008 12.0259 14.2909 12.1118 14.2991C12.1977 14.3074 12.2809 14.3337 12.3559 14.3763C12.43 14.4165 12.4953 14.4711 12.548 14.537C12.6007 14.6028 12.6396 14.6785 12.6626 14.7597C12.6958 14.9621 12.655 15.1696 12.5476 15.3444L10.4772 19.1785C10.4255 19.3019 10.3497 19.4138 10.2543 19.5077C10.1588 19.6015 10.0456 19.6753 9.92124 19.7248C9.65542 19.7749 9.38054 19.7199 9.15442 19.5715L3.9592 16.6959C3.7866 16.6136 3.63561 16.4922 3.51828 16.3412C3.42199 16.2189 3.37421 16.0653 3.38409 15.9099C3.41113 15.7213 3.47288 15.5393 3.56621 15.3731L5.56953 11.6828C5.65406 11.4955 5.80402 11.3456 5.99128 11.261C6.06629 11.226 6.1481 11.2078 6.23091 11.2078C6.31373 11.2078 6.39553 11.226 6.47054 11.261C6.54537 11.2979 6.61146 11.3503 6.66436 11.4148C6.71727 11.4792 6.75576 11.5543 6.77727 11.6349C6.8106 11.7445 6.821 11.8598 6.8078 11.9735C6.79461 12.0873 6.75811 12.1972 6.70059 12.2963Z" fill="url(#paint4_linear_900_13027)"/>
<path d="M13.3621 10.4366L12.8828 10.7242L14.196 12.8809C14.3487 13.0985 14.4169 13.3643 14.3877 13.6285C14.3627 13.7416 14.3127 13.8476 14.2414 13.9388C14.17 14.03 14.0792 14.1041 13.9756 14.1557C13.8844 14.2188 13.78 14.2602 13.6703 14.2768C13.5607 14.2934 13.4487 14.2848 13.3429 14.2516C13.1031 14.1489 12.9065 13.9659 12.787 13.734L9.66219 8.55791C9.58353 8.44987 9.52695 8.32738 9.4957 8.19744C9.46445 8.0675 9.45914 7.93267 9.48007 7.80068C9.52048 7.67235 9.58745 7.55396 9.67663 7.45323C9.76581 7.35249 9.8752 7.27165 9.99768 7.21597L12.2119 5.87404C12.4747 5.71421 12.7467 5.57017 13.0266 5.4427C13.2421 5.34193 13.4715 5.27407 13.7072 5.24141C13.9665 5.18874 14.2338 5.18874 14.4932 5.24141C14.7563 5.30446 15.0019 5.42564 15.2121 5.59606C15.4328 5.76257 15.6185 5.97105 15.7584 6.20952C16.0465 6.64029 16.1564 7.16595 16.0652 7.67607C15.9123 8.22755 15.5946 8.71917 15.1546 9.0851C15.5089 9.07821 15.8619 9.13004 16.1993 9.23847C16.5705 9.35464 16.93 9.50547 17.2729 9.68897C17.5752 9.83567 17.8639 10.0089 18.1356 10.2066C18.3007 10.3082 18.4466 10.438 18.5669 10.59C18.6235 10.6854 18.6502 10.7956 18.6436 10.9063C18.6393 11.03 18.5994 11.1498 18.5286 11.2514C18.4544 11.3667 18.3563 11.4647 18.241 11.5389C18.106 11.6231 17.9495 11.6663 17.7905 11.6635C17.6404 11.6548 17.4937 11.6156 17.3592 11.5485C17.2154 11.4814 17.0141 11.3856 16.7553 11.2418L15.6626 10.6667C15.3586 10.4881 15.0375 10.3404 14.704 10.2257C14.4843 10.1418 14.2467 10.1154 14.0139 10.1491C13.7798 10.2008 13.5582 10.2986 13.3621 10.4366ZM12.4036 7.12971L11.1383 7.88694L12.2598 9.74648L13.4771 9.00842C13.7605 8.84851 14.0216 8.65191 14.2535 8.42372C14.4281 8.26286 14.5487 8.05192 14.5986 7.81985C14.6271 7.58687 14.5691 7.35154 14.4357 7.15846C14.3316 6.98139 14.1784 6.83824 13.9947 6.7463C13.8099 6.65788 13.6017 6.63101 13.4005 6.66961C13.0585 6.77105 12.7349 6.92637 12.4419 7.12971H12.4036Z" fill="url(#paint5_linear_900_13027)"/>
<path d="M22.3723 7.97319H20.9154V10.197C20.9398 10.4577 20.8644 10.718 20.7045 10.9255C20.6328 11.0048 20.5457 11.0687 20.4484 11.1132C20.3512 11.1577 20.2459 11.1819 20.139 11.1843C20.03 11.1888 19.9214 11.1697 19.8204 11.1283C19.7195 11.087 19.6287 11.0243 19.5543 10.9446C19.4705 10.8478 19.407 10.7351 19.3675 10.6133C19.3279 10.4914 19.3132 10.3629 19.3242 10.2353L19.2284 4.17742C19.2106 4.0421 19.2219 3.90455 19.2616 3.77396C19.3013 3.64337 19.3684 3.52275 19.4584 3.42019C19.6723 3.24899 19.9422 3.16356 20.2157 3.18056H22.2573C22.7268 3.15854 23.1972 3.1972 23.6568 3.29558C23.9667 3.37445 24.2549 3.52185 24.5003 3.72692C24.7408 3.92774 24.9284 4.18445 25.0466 4.47457C25.1925 4.80771 25.2738 5.1655 25.2863 5.52895C25.3127 5.86861 25.2617 6.20984 25.1372 6.52695C25.0127 6.84407 24.8179 7.1288 24.5674 7.35974C23.9311 7.8171 23.1535 8.03443 22.3723 7.97319ZM21.9314 4.37871H20.8579V6.78462H21.9314C22.2556 6.78378 22.5781 6.73863 22.89 6.65043C23.1161 6.57875 23.3161 6.44207 23.4651 6.25743C23.6002 6.04659 23.664 5.79796 23.6472 5.54812C23.6539 5.39347 23.6294 5.23905 23.575 5.09411C23.5207 4.94917 23.4376 4.81669 23.3309 4.70461C22.9189 4.4308 22.4219 4.31507 21.9314 4.37871Z" fill="url(#paint6_linear_900_13027)"/>
<path d="M68.353 68.1784C67.8995 66.7984 67.3186 65.4635 66.6181 64.191C65.3049 61.8521 61.2503 56.7145 58.7198 56.2448L59.3141 58.9478L57.953 56.1873H56.9178L55.0007 58.7849L56.3522 56.2735C54.9835 56.8871 53.7441 57.7557 52.7002 58.8328C52.2709 59.2143 51.8644 59.6207 51.4829 60.0501C48.4827 63.357 45.195 68.7919 46.9874 73.2874C48.0897 76.0863 52.3168 76.0863 55.0582 76.2301C58.2202 76.4082 61.3921 76.2766 64.5285 75.8371C68.3817 75.0607 69.3019 71.7346 68.353 68.1784ZM59.3812 64.814H60.5793C60.7242 64.814 60.8632 64.8716 60.9657 64.974C61.0681 65.0765 61.1257 65.2155 61.1257 65.3604C61.127 65.4325 61.1137 65.5041 61.0868 65.571C61.0598 65.6378 61.0196 65.6986 60.9686 65.7496C60.9176 65.8006 60.8568 65.8408 60.7899 65.8678C60.7231 65.8948 60.6514 65.908 60.5793 65.9067H59.4962C59.4267 66.6533 59.0802 67.3468 58.5249 67.8507C57.9696 68.3545 57.2458 68.6322 56.496 68.6289H55.7771L58.2405 71.5045C58.3328 71.6153 58.3775 71.7581 58.3649 71.9018C58.3524 72.0454 58.2835 72.1782 58.1734 72.2713C58.0628 72.3624 57.9213 72.4073 57.7785 72.3965C57.6356 72.3858 57.5024 72.3204 57.4066 72.2138L54.138 68.3797C54.1335 68.3691 54.1312 68.3577 54.1312 68.3462C54.1312 68.3347 54.1335 68.3232 54.138 68.3126C54.1099 68.2832 54.09 68.2468 54.0805 68.2072C54.0707 68.1727 54.0707 68.1362 54.0805 68.1017V68.0251C54.0839 67.959 54.1073 67.8954 54.1476 67.8429C54.138 67.8117 54.138 67.7783 54.1476 67.7471C54.1579 67.7184 54.1742 67.6922 54.1955 67.6704C54.2156 67.6345 54.2416 67.6021 54.2722 67.5746H54.3393L54.4352 67.517H56.5535C57.0158 67.5223 57.4645 67.3602 57.8168 67.0608C58.1691 66.7614 58.4012 66.3447 58.4706 65.8876H54.6365C54.5644 65.8889 54.4927 65.8756 54.4259 65.8486C54.359 65.8216 54.2982 65.7814 54.2472 65.7304C54.1962 65.6794 54.156 65.6187 54.129 65.5518C54.102 65.4849 54.0888 65.4133 54.0901 65.3412C54.0901 65.1963 54.1477 65.0573 54.2501 64.9549C54.3526 64.8524 54.4916 64.7948 54.6365 64.7948H58.2501C58.0941 64.4719 57.8506 64.1991 57.5473 64.0077C57.244 63.8162 56.893 63.7136 56.5343 63.7117H54.6173C54.4724 63.7117 54.3334 63.6541 54.231 63.5517C54.1285 63.4492 54.0709 63.3102 54.0709 63.1653C54.0709 63.0204 54.1285 62.8815 54.231 62.779C54.3334 62.6765 54.4724 62.619 54.6173 62.619H60.5985C60.7434 62.619 60.8824 62.6765 60.9848 62.779C61.0873 62.8815 61.1449 63.0204 61.1449 63.1653C61.1449 63.3102 61.0873 63.4492 60.9848 63.5517C60.8824 63.6541 60.7434 63.7117 60.5985 63.7117H58.8348C59.0943 64.0354 59.2807 64.4115 59.3812 64.814Z" fill="url(#paint7_linear_900_13027)"/>
<path d="M55.1924 55.7463C56.0763 55.2829 57.0996 55.1601 58.068 55.4012L59.1511 54.2222C58.9786 54.6248 58.7773 55.0657 58.6048 55.4587C58.9692 55.5881 59.3445 55.6844 59.7263 55.7463L62.7073 52.2668C62.8363 52.1332 62.9349 51.9732 62.9961 51.7977C63.0574 51.6223 63.0798 51.4357 63.0619 51.2508C62.9659 50.7641 62.6926 50.3303 62.2951 50.0335C62.1416 49.89 61.9747 49.7616 61.7967 49.65C61.3845 50.1581 61.1545 50.5319 60.4451 51.4521L61.7487 48.3656C60.3397 47.1866 55.4608 47.0045 54.1955 48.3656C54.531 49.7171 54.9336 51.0495 55.3841 52.3627L53.8888 49.4871C53.1987 49.7747 51.8951 50.5319 51.8855 51.4042C51.8935 51.6467 51.9888 51.8781 52.1539 52.056L55.1924 55.7463Z" fill="url(#paint8_linear_900_13027)"/>
<path d="M68.353 68.1784C67.8995 66.7984 67.3186 65.4635 66.6181 64.191C65.3049 61.8521 61.2503 56.7145 58.7198 56.2448L59.3141 58.9478L57.953 56.1873H56.9178L55.0007 58.7849L56.3522 56.2735C54.9835 56.8871 53.7441 57.7557 52.7002 58.8328C52.2709 59.2143 51.8644 59.6207 51.4829 60.0501C48.4827 63.357 45.195 68.7919 46.9874 73.2874C48.0897 76.0863 52.3168 76.0863 55.0582 76.2301C58.2202 76.4082 61.3921 76.2766 64.5285 75.8371C68.3817 75.0607 69.3019 71.7346 68.353 68.1784ZM59.3812 64.814H60.5793C60.7242 64.814 60.8632 64.8716 60.9657 64.974C61.0681 65.0765 61.1257 65.2155 61.1257 65.3604C61.127 65.4325 61.1137 65.5041 61.0868 65.571C61.0598 65.6378 61.0196 65.6986 60.9686 65.7496C60.9176 65.8006 60.8568 65.8408 60.7899 65.8678C60.7231 65.8948 60.6514 65.908 60.5793 65.9067H59.4962C59.4267 66.6533 59.0802 67.3468 58.5249 67.8507C57.9696 68.3545 57.2458 68.6322 56.496 68.6289H55.7771L58.2405 71.5045C58.3328 71.6153 58.3775 71.7581 58.3649 71.9018C58.3524 72.0454 58.2835 72.1782 58.1734 72.2713C58.0628 72.3624 57.9213 72.4073 57.7785 72.3965C57.6356 72.3858 57.5024 72.3204 57.4066 72.2138L54.138 68.3797C54.1335 68.3691 54.1312 68.3577 54.1312 68.3462C54.1312 68.3347 54.1335 68.3232 54.138 68.3126C54.1099 68.2832 54.09 68.2468 54.0805 68.2072C54.0707 68.1727 54.0707 68.1362 54.0805 68.1017V68.0251C54.0839 67.959 54.1073 67.8954 54.1476 67.8429C54.138 67.8117 54.138 67.7783 54.1476 67.7471C54.1579 67.7184 54.1742 67.6922 54.1955 67.6704C54.2156 67.6345 54.2416 67.6021 54.2722 67.5746H54.3393L54.4352 67.517H56.5535C57.0158 67.5223 57.4645 67.3602 57.8168 67.0608C58.1691 66.7614 58.4012 66.3447 58.4706 65.8876H54.6365C54.5644 65.8889 54.4927 65.8756 54.4259 65.8486C54.359 65.8216 54.2982 65.7814 54.2472 65.7304C54.1962 65.6794 54.156 65.6187 54.129 65.5518C54.102 65.4849 54.0888 65.4133 54.0901 65.3412C54.0901 65.1963 54.1477 65.0573 54.2501 64.9549C54.3526 64.8524 54.4916 64.7948 54.6365 64.7948H58.2501C58.0941 64.4719 57.8506 64.1991 57.5473 64.0077C57.244 63.8162 56.893 63.7136 56.5343 63.7117H54.6173C54.4724 63.7117 54.3334 63.6541 54.231 63.5517C54.1285 63.4492 54.0709 63.3102 54.0709 63.1653C54.0709 63.0204 54.1285 62.8815 54.231 62.779C54.3334 62.6765 54.4724 62.619 54.6173 62.619H60.5985C60.7434 62.619 60.8824 62.6765 60.9848 62.779C61.0873 62.8815 61.1449 63.0204 61.1449 63.1653C61.1449 63.3102 61.0873 63.4492 60.9848 63.5517C60.8824 63.6541 60.7434 63.7117 60.5985 63.7117H58.8348C59.0943 64.0354 59.2807 64.4115 59.3812 64.814Z" stroke="url(#paint9_linear_900_13027)" stroke-width="0.08" stroke-miterlimit="10"/>
<path d="M55.1924 55.7463C56.0763 55.2829 57.0996 55.1601 58.068 55.4012L59.1511 54.2222C58.9786 54.6248 58.7773 55.0657 58.6048 55.4587C58.9692 55.5881 59.3445 55.6844 59.7263 55.7463L62.7073 52.2668C62.8363 52.1332 62.9349 51.9732 62.9961 51.7977C63.0574 51.6223 63.0798 51.4357 63.0619 51.2508C62.9659 50.7641 62.6926 50.3303 62.2951 50.0335C62.1416 49.89 61.9747 49.7616 61.7967 49.65C61.3845 50.1581 61.1545 50.5319 60.4451 51.4521L61.7487 48.3656C60.3397 47.1866 55.4608 47.0045 54.1955 48.3656C54.531 49.7171 54.9336 51.0495 55.3841 52.3627L53.8888 49.4871C53.1987 49.7747 51.8951 50.5319 51.8855 51.4042C51.8935 51.6467 51.9888 51.8781 52.1539 52.056L55.1924 55.7463Z" stroke="url(#paint10_linear_900_13027)" stroke-width="0.08" stroke-miterlimit="10"/>
<path d="M16.9474 73.9073C16.9474 77.2689 16.6275 79.9999 16.2333 79.9999C15.8392 79.9999 15.51 77.2689 15.51 73.9073C15.51 70.5457 15.8439 67.8333 16.2333 67.8333C16.6228 67.8333 16.9474 70.5411 16.9474 73.9073Z" fill="url(#paint11_radial_900_13027)"/>
<path d="M16.2341 74.6122C12.8725 74.6122 10.1415 74.2922 10.1415 73.8981C10.1415 73.504 12.8725 73.1748 16.2341 73.1748C19.5956 73.1748 22.3081 73.5086 22.3081 73.8981C22.3081 74.2876 19.6003 74.6122 16.2341 74.6122Z" fill="url(#paint12_radial_900_13027)"/>
<path d="M59.1227 21.1883C59.1227 24.5499 58.8027 27.2809 58.4086 27.2809C58.0145 27.2809 57.6853 24.5499 57.6853 21.1883C57.6853 17.8267 58.0191 15.1143 58.4086 15.1143C58.7981 15.1143 59.1227 17.8221 59.1227 21.1883Z" fill="url(#paint13_radial_900_13027)"/>
<path d="M58.4093 21.8932C55.0478 21.8932 52.3167 21.5733 52.3167 21.1791C52.3167 20.785 55.0478 20.4558 58.4093 20.4558C61.7709 20.4558 64.4834 20.7897 64.4834 21.1791C64.4834 21.5686 61.7756 21.8932 58.4093 21.8932Z" fill="url(#paint14_radial_900_13027)"/>
<defs>
<linearGradient id="paint0_linear_900_13027" x1="22.6023" y1="19.907" x2="54.2337" y2="81.732" gradientUnits="userSpaceOnUse">
<stop stop-color="#F0EFEF" stop-opacity="0.3"/>
<stop offset="0.35" stop-color="#FAFBFC" stop-opacity="0.4"/>
<stop offset="0.72" stop-color="white" stop-opacity="0.5"/>
<stop offset="0.96" stop-color="white" stop-opacity="0.85"/>
<stop offset="1" stop-color="white" stop-opacity="0.9"/>
</linearGradient>
<linearGradient id="paint1_linear_900_13027" x1="45.6071" y1="74.543" x2="25.9573" y2="27.5752" gradientUnits="userSpaceOnUse">
<stop stop-color="white" stop-opacity="0.9"/>
<stop offset="0.28" stop-color="white" stop-opacity="0.5"/>
<stop offset="0.65" stop-color="#FAFBFC" stop-opacity="0.4"/>
<stop offset="1" stop-color="#F0EFEF" stop-opacity="0"/>
</linearGradient>
<linearGradient id="paint2_linear_900_13027" x1="16.8512" y1="11.7594" x2="25.4779" y2="26.6165" gradientUnits="userSpaceOnUse">
<stop stop-color="#F0EFEF" stop-opacity="0"/>
<stop offset="0.35" stop-color="#FAFBFC" stop-opacity="0.4"/>
<stop offset="0.72" stop-color="white" stop-opacity="0.5"/>
<stop offset="1" stop-color="white" stop-opacity="0.9"/>
</linearGradient>
<linearGradient id="paint3_linear_900_13027" x1="13.9756" y1="8.88379" x2="24.5194" y2="25.1788" gradientUnits="userSpaceOnUse">
<stop stop-color="#F0EFEF" stop-opacity="0.3"/>
<stop offset="0.35" stop-color="#FAFBFC" stop-opacity="0.4"/>
<stop offset="0.72" stop-color="white" stop-opacity="0.5"/>
<stop offset="0.96" stop-color="white" stop-opacity="0.85"/>
<stop offset="1" stop-color="white" stop-opacity="0.9"/>
</linearGradient>
<linearGradient id="paint4_linear_900_13027" x1="3.43201" y1="11.4527" x2="25.2864" y2="11.4527" gradientUnits="userSpaceOnUse">
<stop stop-color="#79A540"/>
<stop offset="0.2" stop-color="#94C63D"/>
<stop offset="0.39" stop-color="#98CA3C"/>
<stop offset="0.59" stop-color="#93C53E"/>
<stop offset="0.74" stop-color="#9DCB3B"/>
<stop offset="0.9" stop-color="#A6CE39"/>
<stop offset="1" stop-color="#A6CE39"/>
</linearGradient>
<linearGradient id="paint5_linear_900_13027" x1="3.43177" y1="11.4527" x2="25.2862" y2="11.4527" gradientUnits="userSpaceOnUse">
<stop stop-color="#79A540"/>
<stop offset="0.2" stop-color="#94C63D"/>
<stop offset="0.39" stop-color="#98CA3C"/>
<stop offset="0.59" stop-color="#93C53E"/>
<stop offset="0.74" stop-color="#9DCB3B"/>
<stop offset="0.9" stop-color="#A6CE39"/>
<stop offset="1" stop-color="#A6CE39"/>
</linearGradient>
<linearGradient id="paint6_linear_900_13027" x1="3.43185" y1="11.4526" x2="25.2863" y2="11.4526" gradientUnits="userSpaceOnUse">
<stop stop-color="#79A540"/>
<stop offset="0.2" stop-color="#94C63D"/>
<stop offset="0.39" stop-color="#98CA3C"/>
<stop offset="0.59" stop-color="#93C53E"/>
<stop offset="0.74" stop-color="#9DCB3B"/>
<stop offset="0.9" stop-color="#A6CE39"/>
<stop offset="1" stop-color="#A6CE39"/>
</linearGradient>
<linearGradient id="paint7_linear_900_13027" x1="57.5887" y1="76.2876" x2="57.5887" y2="56.1873" gradientUnits="userSpaceOnUse">
<stop stop-color="#79A540"/>
<stop offset="0.2" stop-color="#94C63D"/>
<stop offset="0.39" stop-color="#98CA3C"/>
<stop offset="0.59" stop-color="#93C53E"/>
<stop offset="0.74" stop-color="#9DCB3B"/>
<stop offset="0.9" stop-color="#A6CE39"/>
<stop offset="1" stop-color="#A6CE39"/>
</linearGradient>
<linearGradient id="paint8_linear_900_13027" x1="57.5216" y1="55.7463" x2="57.5216" y2="47.4167" gradientUnits="userSpaceOnUse">
<stop stop-color="#79A540"/>
<stop offset="0.2" stop-color="#94C63D"/>
<stop offset="0.39" stop-color="#98CA3C"/>
<stop offset="0.59" stop-color="#93C53E"/>
<stop offset="0.74" stop-color="#9DCB3B"/>
<stop offset="0.9" stop-color="#A6CE39"/>
<stop offset="1" stop-color="#A6CE39"/>
</linearGradient>
<linearGradient id="paint9_linear_900_13027" x1="57.5887" y1="76.3259" x2="57.5887" y2="56.1489" gradientUnits="userSpaceOnUse">
<stop stop-color="white" stop-opacity="0.9"/>
<stop offset="0.28" stop-color="white" stop-opacity="0.5"/>
<stop offset="0.65" stop-color="#FAFBFC" stop-opacity="0.4"/>
<stop offset="1" stop-color="#F0EFEF" stop-opacity="0.3"/>
</linearGradient>
<linearGradient id="paint10_linear_900_13027" x1="57.5216" y1="55.7942" x2="57.5216" y2="47.3783" gradientUnits="userSpaceOnUse">
<stop stop-color="white" stop-opacity="0.9"/>
<stop offset="0.28" stop-color="white" stop-opacity="0.5"/>
<stop offset="0.65" stop-color="#FAFBFC" stop-opacity="0.4"/>
<stop offset="1" stop-color="#F0EFEF" stop-opacity="0.3"/>
</linearGradient>
<radialGradient id="paint11_radial_900_13027" cx="0" cy="0" r="1" gradientUnits="userSpaceOnUse" gradientTransform="translate(16.1191 74.3517) scale(0.711081 6.09686)">
<stop stop-color="white"/>
<stop offset="0.07" stop-color="white" stop-opacity="0.93"/>
<stop offset="1" stop-color="white" stop-opacity="0"/>
</radialGradient>
<radialGradient id="paint12_radial_900_13027" cx="0" cy="0" r="1" gradientUnits="userSpaceOnUse" gradientTransform="translate(15.7897 73.7839) rotate(90) scale(0.711081 6.09686)">
<stop stop-color="white"/>
<stop offset="0.07" stop-color="white" stop-opacity="0.93"/>
<stop offset="1" stop-color="white" stop-opacity="0"/>
</radialGradient>
<radialGradient id="paint13_radial_900_13027" cx="0" cy="0" r="1" gradientUnits="userSpaceOnUse" gradientTransform="translate(58.2944 21.6327) scale(0.711081 6.09686)">
<stop stop-color="white"/>
<stop offset="0.07" stop-color="white" stop-opacity="0.93"/>
<stop offset="1" stop-color="white" stop-opacity="0"/>
</radialGradient>
<radialGradient id="paint14_radial_900_13027" cx="0" cy="0" r="1" gradientUnits="userSpaceOnUse" gradientTransform="translate(57.965 21.0649) rotate(90) scale(0.711081 6.09686)">
<stop stop-color="white"/>
<stop offset="0.07" stop-color="white" stop-opacity="0.93"/>
<stop offset="1" stop-color="white" stop-opacity="0"/>
</radialGradient>
</defs>
</svg>
