<svg width="77" height="81" viewBox="0 0 77 81" fill="none" xmlns="http://www.w3.org/2000/svg">
<path d="M51.8803 3.87831C52.0343 3.0688 52.4658 2.33836 53.1006 1.81293C53.7353 1.2875 54.5335 1 55.3576 1C56.1816 1 56.9798 1.2875 57.6145 1.81293C58.2493 2.33836 58.6808 3.0688 58.8348 3.87831V16.3415C58.6808 17.1511 58.2493 17.8815 57.6145 18.4069C56.9798 18.9323 56.1816 19.2198 55.3576 19.2198C54.5335 19.2198 53.7353 18.9323 53.1006 18.4069C52.4658 17.8815 52.0343 17.1511 51.8803 16.3415V3.87831ZM12.2846 41.43C12.0852 41.43 11.9107 40.5576 11.9107 39.4982C11.9107 38.4389 12.0727 37.5789 12.2846 37.5789H21.7317C21.9312 37.5789 22.1056 38.4513 22.1056 39.4982C22.1056 40.5451 21.9561 41.43 21.7317 41.43H12.2846ZM27.415 41.43C27.2156 41.43 27.0411 40.5576 27.0411 39.4982C27.0411 38.4389 27.2031 37.5789 27.415 37.5789H36.912C37.1114 37.5789 37.2859 38.4513 37.2859 39.4982C37.2859 40.5451 37.1363 41.43 36.912 41.43H27.415ZM42.5578 41.43C42.3584 41.43 42.1839 40.5576 42.1839 39.4982C42.1839 38.4389 42.3335 37.5789 42.5578 37.5789H52.0548C52.2542 37.5789 52.4287 38.4389 52.4287 39.4982C51.4767 40.0865 50.5611 40.7316 49.6868 41.43H42.5578ZM12.3095 52.4725C12.1101 52.4725 11.9356 51.6 11.9356 50.5407C11.9356 49.4813 12.0852 48.6213 12.3095 48.6213H21.8065C22.0059 48.6213 22.1804 49.4813 22.1804 50.5407C22.1804 51.6 22.0309 52.4725 21.8065 52.4725H12.3095ZM27.4399 52.4725C27.2405 52.4725 27.066 51.6 27.066 50.5407C27.066 49.4813 27.2156 48.6213 27.4399 48.6213H36.9369C37.1363 48.6213 37.3108 49.4813 37.3108 50.5407C37.3108 51.6 37.1612 52.4725 36.9369 52.4725H27.4399ZM12.322 63.5274C12.1226 63.5274 11.9481 62.6549 11.9481 61.5956C11.9481 60.5362 12.0977 59.6638 12.322 59.6638H21.819C22.0184 59.6638 22.1929 60.5362 22.1929 61.5956C22.1929 62.6549 22.0433 63.5274 21.819 63.5274H12.322ZM27.4648 63.5274C27.2654 63.5274 27.0909 62.6549 27.0909 61.5956C27.0909 60.5362 27.2405 59.6638 27.4648 59.6638H36.9618C37.1612 59.6638 37.3357 60.5362 37.3357 61.5956C37.3357 62.6549 37.1737 63.5274 36.9618 63.5274H27.4648ZM20.6225 3.87831C20.7765 3.0688 21.208 2.33836 21.8428 1.81293C22.4775 1.2875 23.2757 1 24.0998 1C24.9238 1 25.722 1.2875 26.3567 1.81293C26.9915 2.33836 27.4231 3.0688 27.577 3.87831V16.3415C27.4231 17.1511 26.9915 17.8815 26.3567 18.4069C25.722 18.9323 24.9238 19.2198 24.0998 19.2198C23.2757 19.2198 22.4775 18.9323 21.8428 18.4069C21.208 17.8815 20.7765 17.1511 20.6225 16.3415V3.87831ZM6.63877 28.3062H72.9058V13.9486C72.9103 13.717 72.8673 13.4869 72.7794 13.2725C72.6915 13.0581 72.5606 12.8641 72.3948 12.7023C72.0622 12.3755 71.6148 12.192 71.1485 12.1913H64.7922C64.2799 12.1913 63.7885 11.9878 63.4262 11.6255C63.0639 11.2632 62.8604 10.7718 62.8604 10.2595C62.8604 9.74714 63.0639 9.25577 63.4262 8.89349C63.7885 8.53121 64.2799 8.32768 64.7922 8.32768H71.1485C72.6392 8.32768 74.0689 8.91988 75.1231 9.97401C76.1772 11.0281 76.7694 12.4578 76.7694 13.9486V36.7688C75.4842 36.32 74.1679 35.966 72.831 35.7094V32.1449H6.63877V69.3726C6.6366 69.605 6.68191 69.8355 6.77191 70.0498C6.86192 70.2641 6.99474 70.4578 7.16223 70.6189C7.49408 70.9469 7.942 71.1305 8.40856 71.1299H39.8907C40.2493 72.4596 40.6991 73.763 41.2367 75.0309H8.43348C7.69414 75.031 6.96212 74.8845 6.27971 74.6C5.59731 74.3155 4.97805 73.8986 4.45771 73.3733C3.93342 72.8555 3.51782 72.2382 3.23532 71.5576C2.95281 70.877 2.80908 70.1469 2.81256 69.41V13.9611C2.81256 12.4703 3.40477 11.0406 4.45889 9.98647C5.51302 8.93235 6.94272 8.34014 8.43348 8.34014H15.2135C15.7258 8.34014 16.2172 8.54367 16.5795 8.90596C16.9418 9.26824 17.1453 9.7596 17.1453 10.2719C17.1453 10.7843 16.9418 11.2757 16.5795 11.6379C16.2172 12.0002 15.7258 12.2037 15.2135 12.2037H8.43348C8.20185 12.1992 7.97174 12.2422 7.75738 12.3301C7.54301 12.418 7.34895 12.5489 7.18716 12.7147C6.86035 13.0473 6.6769 13.4948 6.67616 13.9611V28.3187L6.63877 28.3062ZM33.1481 12.1913C32.6357 12.1913 32.1444 11.9878 31.7821 11.6255C31.4198 11.2632 31.2163 10.7718 31.2163 10.2595C31.2163 9.74714 31.4198 9.25577 31.7821 8.89349C32.1444 8.53121 32.6357 8.32768 33.1481 8.32768H46.0849C46.5973 8.32768 47.0886 8.53121 47.4509 8.89349C47.8132 9.25577 48.0167 9.74714 48.0167 10.2595C48.0167 10.7718 47.8132 11.2632 47.4509 11.6255C47.0886 11.9878 46.5973 12.1913 46.0849 12.1913H33.1481Z" fill="url(#paint0_linear_900_13051)"/>
<path d="M51.8803 3.87831C52.0343 3.0688 52.4658 2.33836 53.1006 1.81293C53.7353 1.2875 54.5335 1 55.3576 1C56.1816 1 56.9798 1.2875 57.6145 1.81293C58.2493 2.33836 58.6808 3.0688 58.8348 3.87831V16.3415C58.6808 17.1511 58.2493 17.8815 57.6145 18.4069C56.9798 18.9323 56.1816 19.2198 55.3576 19.2198C54.5335 19.2198 53.7353 18.9323 53.1006 18.4069C52.4658 17.8815 52.0343 17.1511 51.8803 16.3415V3.87831ZM12.2846 41.43C12.0852 41.43 11.9107 40.5576 11.9107 39.4982C11.9107 38.4389 12.0727 37.5789 12.2846 37.5789H21.7317C21.9312 37.5789 22.1056 38.4513 22.1056 39.4982C22.1056 40.5451 21.9561 41.43 21.7317 41.43H12.2846ZM27.415 41.43C27.2156 41.43 27.0411 40.5576 27.0411 39.4982C27.0411 38.4389 27.2031 37.5789 27.415 37.5789H36.912C37.1114 37.5789 37.2859 38.4513 37.2859 39.4982C37.2859 40.5451 37.1363 41.43 36.912 41.43H27.415ZM42.5578 41.43C42.3584 41.43 42.1839 40.5576 42.1839 39.4982C42.1839 38.4389 42.3335 37.5789 42.5578 37.5789H52.0548C52.2542 37.5789 52.4287 38.4389 52.4287 39.4982C51.4767 40.0865 50.5611 40.7316 49.6868 41.43H42.5578ZM12.3095 52.4725C12.1101 52.4725 11.9356 51.6 11.9356 50.5407C11.9356 49.4813 12.0852 48.6213 12.3095 48.6213H21.8065C22.0059 48.6213 22.1804 49.4813 22.1804 50.5407C22.1804 51.6 22.0309 52.4725 21.8065 52.4725H12.3095ZM27.4399 52.4725C27.2405 52.4725 27.066 51.6 27.066 50.5407C27.066 49.4813 27.2156 48.6213 27.4399 48.6213H36.9369C37.1363 48.6213 37.3108 49.4813 37.3108 50.5407C37.3108 51.6 37.1612 52.4725 36.9369 52.4725H27.4399ZM12.322 63.5274C12.1226 63.5274 11.9481 62.6549 11.9481 61.5956C11.9481 60.5362 12.0977 59.6638 12.322 59.6638H21.819C22.0184 59.6638 22.1929 60.5362 22.1929 61.5956C22.1929 62.6549 22.0433 63.5274 21.819 63.5274H12.322ZM27.4648 63.5274C27.2654 63.5274 27.0909 62.6549 27.0909 61.5956C27.0909 60.5362 27.2405 59.6638 27.4648 59.6638H36.9618C37.1612 59.6638 37.3357 60.5362 37.3357 61.5956C37.3357 62.6549 37.1737 63.5274 36.9618 63.5274H27.4648ZM20.6225 3.87831C20.7765 3.0688 21.208 2.33836 21.8428 1.81293C22.4775 1.2875 23.2757 1 24.0998 1C24.9238 1 25.722 1.2875 26.3567 1.81293C26.9915 2.33836 27.4231 3.0688 27.577 3.87831V16.3415C27.4231 17.1511 26.9915 17.8815 26.3567 18.4069C25.722 18.9323 24.9238 19.2198 24.0998 19.2198C23.2757 19.2198 22.4775 18.9323 21.8428 18.4069C21.208 17.8815 20.7765 17.1511 20.6225 16.3415V3.87831ZM6.63877 28.3062H72.9058V13.9486C72.9103 13.717 72.8673 13.4869 72.7794 13.2725C72.6915 13.0581 72.5606 12.8641 72.3948 12.7023C72.0622 12.3755 71.6148 12.192 71.1485 12.1913H64.7922C64.2799 12.1913 63.7885 11.9878 63.4262 11.6255C63.0639 11.2632 62.8604 10.7718 62.8604 10.2595C62.8604 9.74714 63.0639 9.25577 63.4262 8.89349C63.7885 8.53121 64.2799 8.32768 64.7922 8.32768H71.1485C72.6392 8.32768 74.0689 8.91988 75.1231 9.97401C76.1772 11.0281 76.7694 12.4578 76.7694 13.9486V36.7688C75.4842 36.32 74.1679 35.966 72.831 35.7094V32.1449H6.63877V69.3726C6.6366 69.605 6.68191 69.8355 6.77191 70.0498C6.86192 70.2641 6.99474 70.4578 7.16223 70.6189C7.49408 70.9469 7.942 71.1305 8.40856 71.1299H39.8907C40.2493 72.4596 40.6991 73.763 41.2367 75.0309H8.43348C7.69414 75.031 6.96212 74.8845 6.27971 74.6C5.59731 74.3155 4.97805 73.8986 4.45771 73.3733C3.93342 72.8555 3.51782 72.2382 3.23532 71.5576C2.95281 70.877 2.80908 70.1469 2.81256 69.41V13.9611C2.81256 12.4703 3.40477 11.0406 4.45889 9.98647C5.51302 8.93235 6.94272 8.34014 8.43348 8.34014H15.2135C15.7258 8.34014 16.2172 8.54367 16.5795 8.90596C16.9418 9.26824 17.1453 9.7596 17.1453 10.2719C17.1453 10.7843 16.9418 11.2757 16.5795 11.6379C16.2172 12.0002 15.7258 12.2037 15.2135 12.2037H8.43348C8.20185 12.1992 7.97174 12.2422 7.75738 12.3301C7.54301 12.418 7.34895 12.5489 7.18716 12.7147C6.86035 13.0473 6.6769 13.4948 6.67616 13.9611V28.3187L6.63877 28.3062ZM33.1481 12.1913C32.6357 12.1913 32.1444 11.9878 31.7821 11.6255C31.4198 11.2632 31.2163 10.7718 31.2163 10.2595C31.2163 9.74714 31.4198 9.25577 31.7821 8.89349C32.1444 8.53121 32.6357 8.32768 33.1481 8.32768H46.0849C46.5973 8.32768 47.0886 8.53121 47.4509 8.89349C47.8132 9.25577 48.0167 9.74714 48.0167 10.2595C48.0167 10.7718 47.8132 11.2632 47.4509 11.6255C47.0886 11.9878 46.5973 12.1913 46.0849 12.1913H33.1481Z" stroke="url(#paint1_linear_900_13051)" stroke-width="0.25" stroke-miterlimit="10"/>
<path d="M49.0511 64.6744H45.0005C45.0005 64.6744 40.7381 52.2112 52.6156 45.3938C60.0935 41.0317 67.6961 44.646 69.578 46.0793L71.2605 43.6614L75.0618 52.0616L65.7144 51.7251L67.4468 49.5939C67.4468 49.5939 62.6734 45.1072 54.1984 48.8461C48.1662 52.1613 47.1193 58.7419 49.0511 64.6744Z" fill="url(#paint2_linear_900_13051)"/>
<path d="M71.9959 54.4417H76.0589C76.0589 54.4417 80.3089 66.9049 68.4439 73.7223C60.9659 78.0719 53.3509 74.4701 51.4814 73.0368L49.7989 75.4547L45.9851 67.0545L55.3325 67.391L53.6001 69.5222C53.6001 69.5222 58.386 74.0089 66.861 70.2575C72.8932 66.9547 73.9277 60.3742 71.9959 54.4417Z" fill="url(#paint3_linear_900_13051)"/>
<path d="M49.0511 64.6744H45.0005C45.0005 64.6744 40.7381 52.2112 52.6156 45.3938C60.0935 41.0317 67.6961 44.646 69.578 46.0793L71.2605 43.6614L75.0618 52.0616L65.7144 51.7251L67.4468 49.5939C67.4468 49.5939 62.6734 45.1072 54.1984 48.8461C48.1662 52.1613 47.1193 58.7419 49.0511 64.6744Z" stroke="url(#paint4_linear_900_13051)" stroke-width="0.05" stroke-miterlimit="10"/>
<path d="M71.9959 54.4417H76.0589C76.0589 54.4417 80.3089 66.9049 68.4439 73.7223C60.9659 78.0719 53.3509 74.4701 51.4814 73.0368L49.7989 75.4547L45.9851 67.0544L55.3325 67.391L53.6001 69.5222C53.6001 69.5222 58.386 74.0089 66.861 70.2575C72.8932 66.9547 73.9277 60.3742 71.9959 54.4417Z" stroke="url(#paint5_linear_900_13051)" stroke-width="0.14" stroke-miterlimit="10"/>
<path d="M64.6552 55.8001H62.9976C62.8582 55.2538 62.6032 54.7438 62.2498 54.3046H64.6552C64.7623 54.3184 64.8712 54.3092 64.9745 54.2776C65.0778 54.246 65.1733 54.1928 65.2544 54.1214C65.3355 54.0501 65.4005 53.9623 65.445 53.8638C65.4896 53.7654 65.5126 53.6586 65.5126 53.5505C65.5126 53.4425 65.4896 53.3357 65.445 53.2373C65.4005 53.1388 65.3355 53.051 65.2544 52.9796C65.1733 52.9083 65.0778 52.8551 64.9745 52.8235C64.8712 52.7919 64.7623 52.7827 64.6552 52.7965H56.4045C56.2974 52.7827 56.1885 52.7919 56.0852 52.8235C55.9818 52.8551 55.8864 52.9083 55.8053 52.9796C55.7242 53.051 55.6592 53.1388 55.6147 53.2373C55.5701 53.3357 55.5471 53.4425 55.5471 53.5505C55.5471 53.6586 55.5701 53.7654 55.6147 53.8638C55.6592 53.9623 55.7242 54.0501 55.8053 54.1214C55.8864 54.1928 55.9818 54.246 56.0852 54.2776C56.1885 54.3092 56.2974 54.3184 56.4045 54.3046H59.0218C59.5176 54.3039 60.0035 54.4442 60.4227 54.709C60.8419 54.9737 61.1773 55.3522 61.3898 55.8001H56.4045C56.2974 55.7863 56.1885 55.7955 56.0852 55.8271C55.9818 55.8587 55.8864 55.9119 55.8053 55.9833C55.7242 56.0546 55.6592 56.1425 55.6147 56.2409C55.5701 56.3393 55.5471 56.4461 55.5471 56.5542C55.5471 56.6622 55.5701 56.769 55.6147 56.8675C55.6592 56.9659 55.7242 57.0537 55.8053 57.1251C55.8864 57.1964 55.9818 57.2497 56.0852 57.2812C56.1885 57.3128 56.2974 57.322 56.4045 57.3082H61.6141C61.527 57.9148 61.2298 58.4716 60.7743 58.8816C60.3188 59.2915 59.7339 59.5286 59.1215 59.5516H56.1428L56.0057 59.6264H55.906C55.8661 59.6621 55.8324 59.7042 55.8063 59.751C55.8025 59.7841 55.8025 59.8176 55.8063 59.8507C55.7935 59.8955 55.7935 59.943 55.8063 59.9878C55.7481 60.0634 55.7134 60.1544 55.7066 60.2495V60.4988L55.7814 60.6483C55.7755 60.6622 55.7725 60.677 55.7725 60.692C55.7725 60.707 55.7755 60.7218 55.7814 60.7356L60.2806 65.9951C60.345 66.0699 60.4236 66.1313 60.5118 66.1756C60.6001 66.2199 60.6962 66.2462 60.7947 66.2532C60.8932 66.2601 60.9921 66.2475 61.0857 66.2161C61.1792 66.1846 61.2657 66.1349 61.34 66.0699C61.49 65.9397 61.5832 65.7559 61.5995 65.558C61.6158 65.36 61.554 65.1635 61.4272 65.0105L58.0372 60.9973H59.0218C60.0535 61.0021 61.0497 60.6213 61.8152 59.9297C62.5807 59.238 63.0602 58.2852 63.1596 57.2584H64.6552C64.7623 57.2722 64.8712 57.263 64.9745 57.2314C65.0778 57.1998 65.1733 57.1466 65.2544 57.0752C65.3355 57.0039 65.4005 56.9161 65.445 56.8176C65.4896 56.7192 65.5126 56.6124 65.5126 56.5043C65.5126 56.3963 65.4896 56.2895 65.445 56.191C65.4005 56.0926 65.3355 56.0048 65.2544 55.9334C65.1733 55.8621 65.0778 55.8088 64.9745 55.7773C64.8712 55.7457 64.7623 55.7365 64.6552 55.7503V55.8001Z" fill="url(#paint6_linear_900_13051)"/>
<path d="M64.6552 55.8001H62.9976C62.8582 55.2538 62.6032 54.7438 62.2498 54.3046H64.6552C64.7623 54.3184 64.8712 54.3092 64.9745 54.2776C65.0778 54.246 65.1733 54.1928 65.2544 54.1214C65.3355 54.0501 65.4005 53.9623 65.445 53.8638C65.4896 53.7654 65.5126 53.6586 65.5126 53.5505C65.5126 53.4425 65.4896 53.3357 65.445 53.2373C65.4005 53.1388 65.3355 53.051 65.2544 52.9796C65.1733 52.9083 65.0778 52.8551 64.9745 52.8235C64.8712 52.7919 64.7623 52.7827 64.6552 52.7965H56.4045C56.2974 52.7827 56.1885 52.7919 56.0852 52.8235C55.9818 52.8551 55.8864 52.9083 55.8053 52.9796C55.7242 53.051 55.6592 53.1388 55.6147 53.2373C55.5701 53.3357 55.5471 53.4425 55.5471 53.5505C55.5471 53.6586 55.5701 53.7654 55.6147 53.8638C55.6592 53.9623 55.7242 54.0501 55.8053 54.1214C55.8864 54.1928 55.9818 54.246 56.0852 54.2776C56.1885 54.3092 56.2974 54.3184 56.4045 54.3046H59.0218C59.5176 54.3039 60.0035 54.4442 60.4227 54.709C60.8419 54.9737 61.1773 55.3522 61.3898 55.8001H56.4045C56.2974 55.7863 56.1885 55.7955 56.0852 55.8271C55.9818 55.8587 55.8864 55.9119 55.8053 55.9833C55.7242 56.0546 55.6592 56.1425 55.6147 56.2409C55.5701 56.3393 55.5471 56.4461 55.5471 56.5542C55.5471 56.6622 55.5701 56.769 55.6147 56.8675C55.6592 56.9659 55.7242 57.0537 55.8053 57.1251C55.8864 57.1964 55.9818 57.2497 56.0852 57.2812C56.1885 57.3128 56.2974 57.322 56.4045 57.3082H61.6141C61.527 57.9148 61.2298 58.4716 60.7743 58.8816C60.3188 59.2915 59.7339 59.5286 59.1215 59.5516H56.1428L56.0057 59.6264H55.906C55.8661 59.6621 55.8324 59.7042 55.8063 59.751C55.8025 59.7841 55.8025 59.8176 55.8063 59.8507C55.7935 59.8955 55.7935 59.943 55.8063 59.9878C55.7481 60.0634 55.7134 60.1544 55.7066 60.2495V60.4988L55.7814 60.6483C55.7755 60.6622 55.7725 60.677 55.7725 60.692C55.7725 60.707 55.7755 60.7218 55.7814 60.7356L60.2806 65.9951C60.345 66.0699 60.4236 66.1313 60.5118 66.1756C60.6001 66.2199 60.6962 66.2462 60.7947 66.2532C60.8932 66.2601 60.9921 66.2475 61.0857 66.2161C61.1792 66.1846 61.2657 66.1349 61.34 66.0699C61.49 65.9397 61.5832 65.7559 61.5995 65.558C61.6158 65.36 61.554 65.1635 61.4272 65.0105L58.0372 60.9973H59.0218C60.0535 61.0021 61.0497 60.6213 61.8152 59.9297C62.5807 59.238 63.0602 58.2852 63.1596 57.2584H64.6552C64.7623 57.2722 64.8712 57.263 64.9745 57.2314C65.0778 57.1998 65.1733 57.1466 65.2544 57.0752C65.3355 57.0039 65.4005 56.9161 65.445 56.8176C65.4896 56.7192 65.5126 56.6124 65.5126 56.5043C65.5126 56.3963 65.4896 56.2895 65.445 56.191C65.4005 56.0926 65.3355 56.0048 65.2544 55.9334C65.1733 55.8621 65.0778 55.8088 64.9745 55.7773C64.8712 55.7457 64.7623 55.7365 64.6552 55.7503V55.8001Z" stroke="url(#paint7_linear_900_13051)" stroke-width="0.25" stroke-miterlimit="10"/>
<path d="M7.08152 7.83813C7.08152 11.3359 6.74864 14.1775 6.33856 14.1775C5.92848 14.1775 5.58594 11.3359 5.58594 7.83813C5.58594 4.34038 5.9333 1.51807 6.33856 1.51807C6.74381 1.51807 7.08152 4.33556 7.08152 7.83813Z" fill="url(#paint8_radial_900_13051)"/>
<path d="M6.33936 8.57151C2.84162 8.57151 -1.0045e-06 8.23863 -9.86572e-07 7.82855C-9.68647e-07 7.41847 2.84162 7.07593 6.33936 7.07593C9.83711 7.07593 12.6594 7.42329 12.6594 7.82855C12.6594 8.2338 9.84193 8.57151 6.33936 8.57151Z" fill="url(#paint9_radial_900_13051)"/>
<path d="M41.9888 74.6606C41.9888 78.1584 41.6559 81 41.2458 81C40.8357 81 40.4932 78.1584 40.4932 74.6606C40.4932 71.1629 40.8405 68.3406 41.2458 68.3406C41.651 68.3406 41.9888 71.1581 41.9888 74.6606Z" fill="url(#paint10_radial_900_13051)"/>
<path d="M41.2466 75.3938C37.7488 75.3938 34.9072 75.0609 34.9072 74.6508C34.9072 74.2407 37.7488 73.8982 41.2466 73.8982C44.7443 73.8982 47.5667 74.2456 47.5667 74.6508C47.5667 75.0561 44.7492 75.3938 41.2466 75.3938Z" fill="url(#paint11_radial_900_13051)"/>
<defs>
<linearGradient id="paint0_linear_900_13051" x1="11" y1="11" x2="57" y2="58" gradientUnits="userSpaceOnUse">
<stop stop-color="#F0EFEF" stop-opacity="0.3"/>
<stop offset="0.35" stop-color="#FAFBFC" stop-opacity="0.4"/>
<stop offset="0.72" stop-color="white" stop-opacity="0.5"/>
<stop offset="0.96" stop-color="white" stop-opacity="0.85"/>
<stop offset="1" stop-color="white" stop-opacity="0.9"/>
</linearGradient>
<linearGradient id="paint1_linear_900_13051" x1="64" y1="72.5" x2="9.5" y2="12" gradientUnits="userSpaceOnUse">
<stop stop-color="white" stop-opacity="0.9"/>
<stop offset="0.28" stop-color="white" stop-opacity="0.5"/>
<stop offset="0.65" stop-color="#FAFBFC" stop-opacity="0.4"/>
<stop offset="1" stop-color="#F0EFEF" stop-opacity="0"/>
</linearGradient>
<linearGradient id="paint2_linear_900_13051" x1="59.6573" y1="64.6744" x2="59.6573" y2="43.3124" gradientUnits="userSpaceOnUse">
<stop stop-color="#79A540"/>
<stop offset="0.2" stop-color="#94C63D"/>
<stop offset="0.39" stop-color="#98CA3C"/>
<stop offset="0.59" stop-color="#93C53E"/>
<stop offset="0.74" stop-color="#9DCB3B"/>
<stop offset="0.9" stop-color="#A6CE39"/>
<stop offset="1" stop-color="#A6CE39"/>
</linearGradient>
<linearGradient id="paint3_linear_900_13051" x1="61.3897" y1="75.8036" x2="61.3897" y2="54.4417" gradientUnits="userSpaceOnUse">
<stop stop-color="#79A540"/>
<stop offset="0.2" stop-color="#94C63D"/>
<stop offset="0.39" stop-color="#98CA3C"/>
<stop offset="0.59" stop-color="#93C53E"/>
<stop offset="0.74" stop-color="#9DCB3B"/>
<stop offset="0.9" stop-color="#A6CE39"/>
<stop offset="1" stop-color="#A6CE39"/>
</linearGradient>
<linearGradient id="paint4_linear_900_13051" x1="59.6697" y1="64.7118" x2="59.6697" y2="43.2875" gradientUnits="userSpaceOnUse">
<stop stop-color="white" stop-opacity="0.9"/>
<stop offset="0.28" stop-color="white" stop-opacity="0.5"/>
<stop offset="0.65" stop-color="#FAFBFC" stop-opacity="0.4"/>
<stop offset="1" stop-color="#F0EFEF" stop-opacity="0.3"/>
</linearGradient>
<linearGradient id="paint5_linear_900_13051" x1="61.3647" y1="75.8909" x2="61.3647" y2="54.3544" gradientUnits="userSpaceOnUse">
<stop stop-color="white" stop-opacity="0.9"/>
<stop offset="0.28" stop-color="white" stop-opacity="0.5"/>
<stop offset="0.65" stop-color="#FAFBFC" stop-opacity="0.4"/>
<stop offset="1" stop-color="#F0EFEF" stop-opacity="0.3"/>
</linearGradient>
<linearGradient id="paint6_linear_900_13051" x1="60.5174" y1="66.3191" x2="60.5174" y2="52.809" gradientUnits="userSpaceOnUse">
<stop stop-color="#79A540"/>
<stop offset="0.2" stop-color="#94C63D"/>
<stop offset="0.39" stop-color="#98CA3C"/>
<stop offset="0.59" stop-color="#93C53E"/>
<stop offset="0.74" stop-color="#9DCB3B"/>
<stop offset="0.9" stop-color="#A6CE39"/>
<stop offset="1" stop-color="#A6CE39"/>
</linearGradient>
<linearGradient id="paint7_linear_900_13051" x1="60.5257" y1="66.4764" x2="60.5295" y2="52.6471" gradientUnits="userSpaceOnUse">
<stop stop-color="white" stop-opacity="0.9"/>
<stop offset="0.28" stop-color="white" stop-opacity="0.5"/>
<stop offset="0.65" stop-color="#FAFBFC" stop-opacity="0.4"/>
<stop offset="1" stop-color="#F0EFEF" stop-opacity="0.3"/>
</linearGradient>
<radialGradient id="paint8_radial_900_13051" cx="0" cy="0" r="1" gradientUnits="userSpaceOnUse" gradientTransform="translate(6.21968 8.30051) scale(0.739881 6.3438)">
<stop stop-color="white"/>
<stop offset="0.07" stop-color="white" stop-opacity="0.93"/>
<stop offset="1" stop-color="white" stop-opacity="0"/>
</radialGradient>
<radialGradient id="paint9_radial_900_13051" cx="0" cy="0" r="1" gradientUnits="userSpaceOnUse" gradientTransform="translate(5.87698 7.70967) rotate(90) scale(0.739881 6.3438)">
<stop stop-color="white"/>
<stop offset="0.07" stop-color="white" stop-opacity="0.93"/>
<stop offset="1" stop-color="white" stop-opacity="0"/>
</radialGradient>
<radialGradient id="paint10_radial_900_13051" cx="0" cy="0" r="1" gradientUnits="userSpaceOnUse" gradientTransform="translate(41.1269 75.123) scale(0.739881 6.3438)">
<stop stop-color="white"/>
<stop offset="0.07" stop-color="white" stop-opacity="0.93"/>
<stop offset="1" stop-color="white" stop-opacity="0"/>
</radialGradient>
<radialGradient id="paint11_radial_900_13051" cx="0" cy="0" r="1" gradientUnits="userSpaceOnUse" gradientTransform="translate(40.7842 74.5319) rotate(90) scale(0.739881 6.3438)">
<stop stop-color="white"/>
<stop offset="0.07" stop-color="white" stop-opacity="0.93"/>
<stop offset="1" stop-color="white" stop-opacity="0"/>
</radialGradient>
</defs>
</svg>
