<svg width="87" height="81" viewBox="0 0 87 81" fill="none" xmlns="http://www.w3.org/2000/svg">
<path d="M9.68978 46.1047C9.95138 46.3112 10.1689 46.568 10.3295 46.86C10.4901 47.152 10.5905 47.4733 10.6248 47.8048C10.659 48.1363 10.6264 48.4713 10.5289 48.7899C10.4314 49.1086 10.271 49.4045 10.0571 49.6601C9.84325 49.9157 9.58029 50.1257 9.2838 50.2779C8.98731 50.4301 8.66331 50.5212 8.33097 50.5459C7.99864 50.5707 7.66471 50.5285 7.34896 50.4219C7.03321 50.3153 6.74205 50.1465 6.4927 49.9254C5.36843 48.9893 4.36678 47.9152 3.51148 46.7283C1.2602 43.6032 0.0342009 39.8565 0.00261344 36.0051C-0.0670655 32.0952 1.25856 28.2884 3.74173 25.2674C4.60278 24.2351 5.59075 23.3156 6.68217 22.5309C8.07193 21.5415 9.58338 20.7354 11.1792 20.1325C12.3922 19.6655 13.6369 19.2856 14.9039 18.9956C16.3957 13.074 19.5736 8.51461 23.6581 5.35112C27.4697 2.42975 32.0308 0.647722 36.8134 0.211354C41.5856 -0.255612 46.3948 0.58683 50.7241 2.64813C55.7549 5.05755 59.8351 9.08042 62.3156 14.0765C63.3887 13.9062 64.4742 13.826 65.5606 13.8367C70.1176 13.8702 74.5019 15.4964 77.9556 19.2211C78.7139 20.0386 79.3985 20.9214 80.0015 21.8593C82.16 25.1907 83.2801 29.6421 83.2345 33.9976C83.1865 38.2716 82.0353 42.5263 79.6777 45.6634C79.4815 45.9245 79.2357 46.1444 78.9545 46.3106C78.6733 46.4767 78.3621 46.5858 78.0387 46.6317C77.7154 46.6776 77.3861 46.6593 77.0698 46.578C76.7535 46.4966 76.4563 46.3537 76.1952 46.1575C75.9341 45.9613 75.7142 45.7155 75.548 45.4343C75.3819 45.1531 75.2728 44.842 75.2269 44.5186C75.181 44.1952 75.1993 43.866 75.2807 43.5496C75.362 43.2333 75.5049 42.9361 75.7011 42.675C77.3944 40.4205 78.2266 37.2283 78.2602 33.9568C78.301 30.5223 77.4615 27.0734 75.8282 24.5671C75.3798 23.8707 74.8702 23.2157 74.3052 22.61C73.1914 21.396 71.8347 20.4298 70.3232 19.7741C68.8118 19.1184 67.1794 18.7878 65.5319 18.8037C63.0977 18.8237 60.695 19.3565 58.4806 20.3675C57.9721 20.6193 57.4636 20.8904 56.9576 21.1878C55.3585 22.1497 53.8351 23.2321 52.4006 24.4256L49.1196 20.6673C50.2555 19.6145 51.4791 18.6605 52.7771 17.8156C53.8109 17.143 54.8904 16.5435 56.0078 16.0216C56.4563 15.7986 56.9096 15.5875 57.3629 15.3908C55.3551 11.7946 52.2838 8.90759 48.5703 7.12594C45.0503 5.4583 41.143 4.77931 37.2667 5.16165C33.42 5.51232 29.7512 6.94507 26.6849 9.29409C23.1424 12.0451 20.449 16.1439 19.4177 21.5835L19.0915 23.284L17.3983 23.5814C15.8808 23.8328 14.392 24.2345 12.954 24.7806C11.762 25.2341 10.6334 25.8395 9.59624 26.5818C8.84038 27.1268 8.15554 27.7641 7.55759 28.4789C5.82928 30.5983 4.91189 33.2637 4.96971 35.9979C4.96996 37.9261 5.39369 39.8307 6.21096 41.5771C7.02822 43.3235 8.21908 44.8691 9.69937 46.1047H9.68978Z" fill="url(#paint0_linear_961_6072)"/>
<path d="M9.53656 45.9006C8.16146 44.6921 7.05007 43.2115 6.27342 41.551C5.44897 39.7883 5.02189 37.866 5.0224 35.9201C4.96236 33.1564 5.88994 30.4618 7.63846 28.3207L7.63932 28.3196C8.2434 27.5963 8.93602 26.9517 9.70089 26.4012L9.70117 26.401C10.747 25.6524 11.8851 25.0419 13.0872 24.5846L13.0873 24.5846C14.5321 24.0356 16.0278 23.6318 17.5526 23.379C17.5527 23.379 17.5529 23.3789 17.5531 23.3789L19.1603 23.0966L19.4702 21.481L9.53656 45.9006ZM9.53656 45.9006H9.50489L9.78762 46.1237C10.0361 46.3198 10.2427 46.5638 10.3953 46.8411C10.5478 47.1185 10.6432 47.4236 10.6757 47.7385C10.7082 48.0533 10.6773 48.3715 10.5847 48.6742C10.4921 48.9769 10.3397 49.258 10.1365 49.5007C9.9334 49.7435 9.68363 49.943 9.40201 50.0875C9.1204 50.2321 8.81265 50.3186 8.49698 50.3421C8.18131 50.3656 7.86414 50.3256 7.56423 50.2243C7.26432 50.1231 6.98776 49.9627 6.75092 49.7527L6.75096 49.7527L6.7479 49.7501C5.63206 48.8223 4.63765 47.7575 3.78821 46.5809C1.55303 43.4763 0.335365 39.7551 0.302899 35.9297L0.302878 35.9285C0.233848 32.047 1.54921 28.2678 4.01327 25.268C4.86811 24.2445 5.84814 23.3325 6.93035 22.5533C8.31179 21.5698 9.81443 20.7689 11.401 20.1703L11.4018 20.1699C12.609 19.7045 13.8481 19.3263 15.1094 19.0383L15.1841 19.0213L15.2028 18.947C16.6853 13.0527 19.8473 8.51978 23.9098 5.37331C27.7015 2.46301 32.2402 0.686478 37.0001 0.249487L37.0008 0.249416C41.7506 -0.214596 46.5371 0.624682 50.8456 2.67703C55.852 5.07196 59.9123 9.07428 62.3789 14.0457L62.4197 14.128L62.5105 14.1136C63.5767 13.9445 64.6552 13.8648 65.7347 13.8753L65.735 13.8753C70.2611 13.9087 74.6112 15.5228 78.0415 19.2196C78.7934 20.033 79.4735 20.91 80.0741 21.8407L80.0742 21.8409C82.2171 25.1481 83.3325 29.5744 83.2848 33.9099C83.237 38.1647 82.0907 42.3915 79.753 45.502C79.5667 45.75 79.3333 45.9588 79.0662 46.1166C78.7991 46.2744 78.5036 46.378 78.1965 46.4216C77.8894 46.4652 77.5767 46.4478 77.2762 46.3706C76.9758 46.2933 76.6935 46.1576 76.4456 45.9712C76.1976 45.7849 75.9887 45.5515 75.8309 45.2844C75.6732 45.0173 75.5695 44.7218 75.5259 44.4147C75.4824 44.1076 75.4997 43.7949 75.577 43.4944C75.6543 43.194 75.79 42.9118 75.9763 42.6638L75.8764 42.5887L75.9763 42.6637C77.6904 40.3816 78.5291 37.1606 78.5629 33.872C78.6039 30.419 77.7605 26.9469 76.1109 24.4129C76.1108 24.4128 76.1107 24.4127 76.1107 24.4126L76.0059 24.4808M9.53656 45.9006L57.0684 20.9943L57.0697 20.9935C57.5794 20.6954 58.0915 20.4103 58.6023 20.1682L58.6039 20.1674C60.8352 19.1491 63.256 18.6124 65.7085 18.5924M76.0059 24.4808C75.5559 23.7849 75.0454 23.13 74.4805 22.5237M76.0059 24.4808C77.6392 26.9895 78.4787 30.436 78.4379 33.8705L76.0059 24.4808ZM74.4805 22.5237L74.5726 22.4392C74.5725 22.439 74.5724 22.4389 74.5723 22.4388C74.5722 22.4387 74.5721 22.4386 74.572 22.4385L74.4805 22.5237ZM74.4805 22.5237C73.3669 21.31 72.0106 20.344 70.4996 19.6883C68.9886 19.0325 67.3566 18.7018 65.7096 18.7174M65.7096 18.7174L65.7085 18.5924M65.7096 18.7174C63.2746 18.7373 60.8711 19.2701 58.6558 20.2812M65.7096 18.7174L65.7084 18.5924C65.7084 18.5924 65.7085 18.5924 65.7085 18.5924M65.7085 18.5924L58.6558 20.2812M58.6558 20.2812C58.1498 20.521 57.6413 20.804 57.1329 21.1014L58.6558 20.2812Z" stroke="url(#paint1_linear_961_6072)" stroke-width="0.25" stroke-miterlimit="10"/>
<path d="M79 46.8443C83.4194 46.8443 87 46.4703 87 46.0088C87 45.5473 83.4194 45.1733 79 45.1733C74.5807 45.1733 71 45.5473 71 46.0088C71 46.4703 74.5807 46.8443 79 46.8443Z" fill="url(#paint2_radial_961_6072)"/>
<path d="M79.9098 46C79.9098 50.4188 79.5019 54 78.9958 54C78.4896 54 78.0818 50.4188 78.0818 46C78.0818 41.5812 78.5001 38 78.9958 38C79.4915 38 79.9098 41.5833 79.9098 46Z" fill="url(#paint3_radial_961_6072)"/>
<path d="M14.3097 18.314C18.7313 18.314 22.3159 17.9401 22.3159 17.4785C22.3159 17.017 18.7313 16.6431 14.3097 16.6431C9.88799 16.6431 6.31592 17.017 6.31592 17.4785C6.31592 17.9401 9.89008 18.314 14.3097 18.314Z" fill="url(#paint4_radial_961_6072)"/>
<path d="M15.2197 17.4736C15.2197 21.8924 14.8011 25.4736 14.3052 25.4736C13.8092 25.4736 13.3928 21.8924 13.3928 17.4736C13.3928 13.0548 13.8113 9.47363 14.3052 9.47363C14.799 9.47363 15.2197 13.057 15.2197 17.4736Z" fill="url(#paint5_radial_961_6072)"/>
<path d="M19.1206 47.3803L17.3558 53.1118C17.3313 53.187 17.3476 53.2599 17.3877 53.3202L17.3946 53.3304L17.4034 53.3392C17.4508 53.3866 17.5114 53.4095 17.576 53.4095H20.9444C21.009 53.4095 21.0696 53.3866 21.117 53.3392L21.1257 53.3304L21.1326 53.3202C21.1728 53.2599 21.189 53.187 21.1646 53.1118L19.3997 47.3803C19.3957 47.3574 19.3854 47.3297 19.3612 47.3056C19.3267 47.271 19.2851 47.2647 19.2602 47.2647C19.2353 47.2647 19.1937 47.271 19.1592 47.3056C19.135 47.3297 19.1247 47.3574 19.1206 47.3803ZM14.4939 57.1321L14.4942 57.1315L18.0984 46.6557L18.0984 46.6557L18.0988 46.6545C18.1801 46.4107 18.3265 46.2133 18.5413 46.0599C18.7566 45.9061 18.9896 45.8305 19.2433 45.8305H19.3444C19.6104 45.8305 19.8421 45.9067 20.0441 46.0582L20.0441 46.0582L20.0465 46.0599C20.2612 46.2133 20.4077 46.4107 20.489 46.6545L20.489 46.6545L20.4893 46.6557L24.0936 57.1315L24.0938 57.1321C24.1583 57.3165 24.1321 57.4802 24.0114 57.6381L24.0114 57.638L24.0086 57.6419C23.8975 57.7992 23.7505 57.8753 23.5549 57.8753H23.4876C23.2342 57.8753 23.0016 57.8 22.7866 57.6468C22.5838 57.4943 22.4422 57.2973 22.3604 57.0529L21.6899 54.8404C21.679 54.7725 21.6468 54.7095 21.5863 54.6655C21.5262 54.6218 21.453 54.6079 21.3823 54.6079H17.1381C17.0696 54.6079 17.0006 54.6232 16.9424 54.6655C16.884 54.708 16.8494 54.7683 16.8324 54.8341L16.1595 57.0546L16.1591 57.0558C16.0886 57.2975 15.9486 57.4933 15.7349 57.646L15.7349 57.6459L15.7325 57.6477C15.5305 57.7992 15.2988 57.8753 15.0328 57.8753C14.8376 57.8753 14.6835 57.7993 14.5609 57.64C14.4512 57.4834 14.4287 57.3186 14.4939 57.1321ZM27.0916 52.0086L27.0915 52.009L27.1018 52.0104C27.6785 52.0896 28.1952 52.1295 28.6514 52.1295C29.6554 52.1295 30.4455 51.913 31.0037 51.4617L31.0049 51.4607C31.5665 50.9947 31.8417 50.3332 31.8417 49.495C31.8417 48.6582 31.5729 48.0067 31.0209 47.5623C30.4731 47.1101 29.6764 46.8942 28.6514 46.8942C28.1073 46.8942 27.5906 46.9282 27.1015 46.9965L27.1014 46.9961L27.0916 46.9982C27.0249 47.0131 26.9602 47.0422 26.9122 47.0956C26.8624 47.1508 26.8422 47.2191 26.8422 47.2887V51.7182C26.8422 51.7878 26.8624 51.856 26.9122 51.9113C26.9602 51.9647 27.0249 51.9938 27.0916 52.0086ZM26.0681 45.7964L26.0681 45.7964L26.0694 45.7963C27.0202 45.7068 27.937 45.6621 28.8198 45.6621C30.354 45.6621 31.494 45.9904 32.2599 46.6269L32.2607 46.6276C33.0236 47.2508 33.4106 48.144 33.4106 49.3266C33.4106 50.6781 33.0252 51.6702 32.2743 52.3273C31.5203 52.9871 30.3763 53.3279 28.8198 53.3279C28.1599 53.3279 27.5913 53.3055 27.1135 53.2611L27.1135 53.2606H27.1019C27.0377 53.2606 26.9666 53.2767 26.9125 53.3308C26.8583 53.385 26.8422 53.4561 26.8422 53.5203V57.074C26.8422 57.2997 26.7651 57.4867 26.6093 57.6424C26.4535 57.7982 26.2666 57.8753 26.0409 57.8753C25.8151 57.8753 25.6282 57.7982 25.4724 57.6424C25.3166 57.4867 25.2395 57.2997 25.2395 57.074V46.7497C25.2395 46.5108 25.3182 46.2977 25.4796 46.106C25.6386 45.9173 25.8329 45.816 26.0681 45.7964ZM35.9989 57.8753C35.7754 57.8753 35.5822 57.7942 35.4136 57.6256C35.245 57.457 35.1639 57.2638 35.1639 57.0403V46.6655C35.1639 46.4421 35.245 46.2489 35.4136 46.0802C35.5822 45.9116 35.7754 45.8305 35.9989 45.8305H36.1C36.3234 45.8305 36.5166 45.9116 36.6853 46.0802C36.8539 46.2489 36.935 46.4421 36.935 46.6655V57.0403C36.935 57.2638 36.8539 57.457 36.6853 57.6256C36.5166 57.7942 36.3234 57.8753 36.1 57.8753H35.9989Z" fill="url(#paint6_linear_961_6072)"/>
<path d="M19.1206 47.3803L17.3558 53.1118C17.3313 53.187 17.3476 53.2599 17.3877 53.3202L17.3946 53.3304L17.4034 53.3392C17.4508 53.3866 17.5114 53.4095 17.576 53.4095H20.9444C21.009 53.4095 21.0696 53.3866 21.117 53.3392L21.1257 53.3304L21.1326 53.3202C21.1728 53.2599 21.189 53.187 21.1646 53.1118L19.3997 47.3803C19.3957 47.3574 19.3854 47.3297 19.3612 47.3056C19.3267 47.271 19.2851 47.2647 19.2602 47.2647C19.2353 47.2647 19.1937 47.271 19.1592 47.3056C19.135 47.3297 19.1247 47.3574 19.1206 47.3803ZM14.4939 57.1321L14.4942 57.1315L18.0984 46.6557L18.0984 46.6557L18.0988 46.6545C18.1801 46.4107 18.3265 46.2133 18.5413 46.0599C18.7566 45.9061 18.9896 45.8305 19.2433 45.8305H19.3444C19.6104 45.8305 19.8421 45.9067 20.0441 46.0582L20.0441 46.0582L20.0465 46.0599C20.2612 46.2133 20.4077 46.4107 20.489 46.6545L20.489 46.6545L20.4893 46.6557L24.0936 57.1315L24.0938 57.1321C24.1583 57.3165 24.1321 57.4802 24.0114 57.6381L24.0114 57.638L24.0086 57.6419C23.8975 57.7992 23.7505 57.8753 23.5549 57.8753H23.4876C23.2342 57.8753 23.0016 57.8 22.7866 57.6468C22.5838 57.4943 22.4422 57.2973 22.3604 57.0529L21.6899 54.8404C21.679 54.7725 21.6468 54.7095 21.5863 54.6655C21.5262 54.6218 21.453 54.6079 21.3823 54.6079H17.1381C17.0696 54.6079 17.0006 54.6232 16.9424 54.6655C16.884 54.708 16.8494 54.7683 16.8324 54.8341L16.1595 57.0546L16.1591 57.0558C16.0886 57.2975 15.9486 57.4933 15.7349 57.646L15.7349 57.6459L15.7325 57.6477C15.5305 57.7992 15.2988 57.8753 15.0328 57.8753C14.8376 57.8753 14.6835 57.7993 14.5609 57.64C14.4512 57.4834 14.4287 57.3186 14.4939 57.1321ZM27.0916 52.0086L27.0915 52.009L27.1018 52.0104C27.6785 52.0896 28.1952 52.1295 28.6514 52.1295C29.6554 52.1295 30.4455 51.913 31.0037 51.4617L31.0049 51.4607C31.5665 50.9947 31.8417 50.3332 31.8417 49.495C31.8417 48.6582 31.5729 48.0067 31.0209 47.5623C30.4731 47.1101 29.6764 46.8942 28.6514 46.8942C28.1073 46.8942 27.5906 46.9282 27.1015 46.9965L27.1014 46.9961L27.0916 46.9982C27.0249 47.0131 26.9602 47.0422 26.9122 47.0956C26.8624 47.1508 26.8422 47.2191 26.8422 47.2887V51.7182C26.8422 51.7878 26.8624 51.856 26.9122 51.9113C26.9602 51.9647 27.0249 51.9938 27.0916 52.0086ZM26.0681 45.7964L26.0681 45.7964L26.0694 45.7963C27.0202 45.7068 27.937 45.6621 28.8198 45.6621C30.354 45.6621 31.494 45.9904 32.2599 46.6269L32.2607 46.6276C33.0236 47.2508 33.4106 48.144 33.4106 49.3266C33.4106 50.6781 33.0252 51.6702 32.2743 52.3273C31.5203 52.9871 30.3763 53.3279 28.8198 53.3279C28.1599 53.3279 27.5913 53.3055 27.1135 53.2611L27.1135 53.2606H27.1019C27.0377 53.2606 26.9666 53.2767 26.9125 53.3308C26.8583 53.385 26.8422 53.4561 26.8422 53.5203V57.074C26.8422 57.2997 26.7651 57.4867 26.6093 57.6424C26.4535 57.7982 26.2666 57.8753 26.0409 57.8753C25.8151 57.8753 25.6282 57.7982 25.4724 57.6424C25.3166 57.4867 25.2395 57.2997 25.2395 57.074V46.7497C25.2395 46.5108 25.3182 46.2977 25.4796 46.106C25.6386 45.9173 25.8329 45.816 26.0681 45.7964ZM35.9989 57.8753C35.7754 57.8753 35.5822 57.7942 35.4136 57.6256C35.245 57.457 35.1639 57.2638 35.1639 57.0403V46.6655C35.1639 46.4421 35.245 46.2489 35.4136 46.0802C35.5822 45.9116 35.7754 45.8305 35.9989 45.8305H36.1C36.3234 45.8305 36.5166 45.9116 36.6853 46.0802C36.8539 46.2489 36.935 46.4421 36.935 46.6655V57.0403C36.935 57.2638 36.8539 57.457 36.6853 57.6256C36.5166 57.7942 36.3234 57.8753 36.1 57.8753H35.9989Z" fill="url(#paint7_linear_961_6072)"/>
<path d="M19.1206 47.3803L17.3558 53.1118C17.3313 53.187 17.3476 53.2599 17.3877 53.3202L17.3946 53.3304L17.4034 53.3392C17.4508 53.3866 17.5114 53.4095 17.576 53.4095H20.9444C21.009 53.4095 21.0696 53.3866 21.117 53.3392L21.1257 53.3304L21.1326 53.3202C21.1728 53.2599 21.189 53.187 21.1646 53.1118L19.3997 47.3803C19.3957 47.3574 19.3854 47.3297 19.3612 47.3056C19.3267 47.271 19.2851 47.2647 19.2602 47.2647C19.2353 47.2647 19.1937 47.271 19.1592 47.3056C19.135 47.3297 19.1247 47.3574 19.1206 47.3803ZM14.4939 57.1321L14.4942 57.1315L18.0984 46.6557L18.0984 46.6557L18.0988 46.6545C18.1801 46.4107 18.3265 46.2133 18.5413 46.0599C18.7566 45.9061 18.9896 45.8305 19.2433 45.8305H19.3444C19.6104 45.8305 19.8421 45.9067 20.0441 46.0582L20.0441 46.0582L20.0465 46.0599C20.2612 46.2133 20.4077 46.4107 20.489 46.6545L20.489 46.6545L20.4893 46.6557L24.0936 57.1315L24.0938 57.1321C24.1583 57.3165 24.1321 57.4802 24.0114 57.6381L24.0114 57.638L24.0086 57.6419C23.8975 57.7992 23.7505 57.8753 23.5549 57.8753H23.4876C23.2342 57.8753 23.0016 57.8 22.7866 57.6468C22.5838 57.4943 22.4422 57.2973 22.3604 57.0529L21.6899 54.8404C21.679 54.7725 21.6468 54.7095 21.5863 54.6655C21.5262 54.6218 21.453 54.6079 21.3823 54.6079H17.1381C17.0696 54.6079 17.0006 54.6232 16.9424 54.6655C16.884 54.708 16.8494 54.7683 16.8324 54.8341L16.1595 57.0546L16.1591 57.0558C16.0886 57.2975 15.9486 57.4933 15.7349 57.646L15.7349 57.6459L15.7325 57.6477C15.5305 57.7992 15.2988 57.8753 15.0328 57.8753C14.8376 57.8753 14.6835 57.7993 14.5609 57.64C14.4512 57.4834 14.4287 57.3186 14.4939 57.1321ZM27.0916 52.0086L27.0915 52.009L27.1018 52.0104C27.6785 52.0896 28.1952 52.1295 28.6514 52.1295C29.6554 52.1295 30.4455 51.913 31.0037 51.4617L31.0049 51.4607C31.5665 50.9947 31.8417 50.3332 31.8417 49.495C31.8417 48.6582 31.5729 48.0067 31.0209 47.5623C30.4731 47.1101 29.6764 46.8942 28.6514 46.8942C28.1073 46.8942 27.5906 46.9282 27.1015 46.9965L27.1014 46.9961L27.0916 46.9982C27.0249 47.0131 26.9602 47.0422 26.9122 47.0956C26.8624 47.1508 26.8422 47.2191 26.8422 47.2887V51.7182C26.8422 51.7878 26.8624 51.856 26.9122 51.9113C26.9602 51.9647 27.0249 51.9938 27.0916 52.0086ZM26.0681 45.7964L26.0681 45.7964L26.0694 45.7963C27.0202 45.7068 27.937 45.6621 28.8198 45.6621C30.354 45.6621 31.494 45.9904 32.2599 46.6269L32.2607 46.6276C33.0236 47.2508 33.4106 48.144 33.4106 49.3266C33.4106 50.6781 33.0252 51.6702 32.2743 52.3273C31.5203 52.9871 30.3763 53.3279 28.8198 53.3279C28.1599 53.3279 27.5913 53.3055 27.1135 53.2611L27.1135 53.2606H27.1019C27.0377 53.2606 26.9666 53.2767 26.9125 53.3308C26.8583 53.385 26.8422 53.4561 26.8422 53.5203V57.074C26.8422 57.2997 26.7651 57.4867 26.6093 57.6424C26.4535 57.7982 26.2666 57.8753 26.0409 57.8753C25.8151 57.8753 25.6282 57.7982 25.4724 57.6424C25.3166 57.4867 25.2395 57.2997 25.2395 57.074V46.7497C25.2395 46.5108 25.3182 46.2977 25.4796 46.106C25.6386 45.9173 25.8329 45.816 26.0681 45.7964ZM35.9989 57.8753C35.7754 57.8753 35.5822 57.7942 35.4136 57.6256C35.245 57.457 35.1639 57.2638 35.1639 57.0403V46.6655C35.1639 46.4421 35.245 46.2489 35.4136 46.0802C35.5822 45.9116 35.7754 45.8305 35.9989 45.8305H36.1C36.3234 45.8305 36.5166 45.9116 36.6853 46.0802C36.8539 46.2489 36.935 46.4421 36.935 46.6655V57.0403C36.935 57.2638 36.8539 57.457 36.6853 57.6256C36.5166 57.7942 36.3234 57.8753 36.1 57.8753H35.9989Z" stroke="url(#paint8_linear_961_6072)" stroke-width="0.25"/>
<mask id="path-8-outside-1_961_6072" maskUnits="userSpaceOnUse" x="39.0002" y="41.1157" width="39" height="40" fill="black">
<rect fill="white" x="39.0002" y="41.1157" width="39" height="40"/>
<path d="M75.9606 65.0651L74.6542 64.311C75.0923 62.1625 75.094 59.9478 74.6592 57.7986L75.9606 57.0474C76.3605 56.8162 76.6522 56.4357 76.7716 55.9895C76.8911 55.5433 76.8285 55.068 76.5976 54.6679L73.0397 48.5041C72.9255 48.3057 72.7734 48.1318 72.592 47.9923C72.4106 47.8528 72.2035 47.7504 71.9825 47.691C71.7616 47.6315 71.531 47.6162 71.3041 47.646C71.0772 47.6757 70.8584 47.7498 70.6602 47.8641L69.3577 48.6153C67.7103 47.167 65.7933 46.0579 63.7166 45.3517V43.8583C63.7161 43.3963 63.5323 42.9534 63.2056 42.6267C62.879 42.3 62.436 42.1162 61.9741 42.1157H54.8572C54.3954 42.1165 53.9527 42.3004 53.6263 42.627C53.2998 42.9537 53.1162 43.3964 53.1157 43.8583V45.3547C51.0409 46.0631 49.1263 47.1738 47.4814 48.6232L46.1721 47.8641C45.9738 47.7497 45.7549 47.6754 45.5279 47.6456C45.3009 47.6158 45.0702 47.6311 44.8491 47.6905C44.628 47.7499 44.4208 47.8524 44.2394 47.992C44.0579 48.1316 43.9057 48.3056 43.7916 48.5041L40.2337 54.6679C40.1193 54.866 40.045 55.0848 40.0151 55.3116C39.9853 55.5384 40.0004 55.7689 40.0597 55.9899C40.1189 56.2108 40.2211 56.418 40.3604 56.5994C40.4997 56.7809 40.6734 56.9331 40.8716 57.0474L42.178 57.8016C41.7403 59.9503 41.7403 62.1652 42.178 64.3139L40.8765 65.0651C40.4767 65.2963 40.185 65.6768 40.0654 66.1229C39.9458 66.569 40.0081 67.0444 40.2386 67.4446L43.7916 73.6085C44.0225 74.0089 44.403 74.3012 44.8494 74.4212C45.2957 74.5412 45.7715 74.4791 46.1721 74.2484L47.4736 73.4972C49.1213 74.9456 51.0386 76.0546 53.1157 76.7608V78.2572C53.1162 78.719 53.2998 79.1618 53.6263 79.4885C53.9527 79.8151 54.3954 79.999 54.8572 79.9998H61.9741C62.436 79.9992 62.879 79.8155 63.2056 79.4888C63.5323 79.1621 63.7161 78.7192 63.7166 78.2572V76.7608C65.7911 76.0526 67.7054 74.9419 69.3498 73.4923L70.6602 74.2484C71.0603 74.479 71.5356 74.5415 71.9817 74.422C72.4278 74.3026 72.8083 74.0111 73.0397 73.6114L76.5986 67.4476C76.8298 67.047 76.8925 66.571 76.7728 66.1243C76.6532 65.6775 76.3611 65.2965 75.9606 65.0651ZM75.6348 66.8894L72.0768 73.0522C71.9933 73.1968 71.8557 73.3023 71.6943 73.3455C71.533 73.3887 71.3611 73.3661 71.2164 73.2826L69.5566 72.3247C69.4538 72.2651 69.3347 72.2401 69.2167 72.2532C69.0987 72.2663 68.988 72.3169 68.9009 72.3976C67.2102 73.963 65.1925 75.1329 62.994 75.8226C62.8802 75.8572 62.7805 75.9274 62.7096 76.023C62.6387 76.1185 62.6003 76.2343 62.6002 76.3532V78.2543C62.5999 78.4213 62.5335 78.5814 62.4154 78.6995C62.2973 78.8176 62.1371 78.8841 61.9701 78.8843H54.8572C54.6902 78.8841 54.5301 78.8176 54.412 78.6995C54.2939 78.5814 54.2274 78.4213 54.2271 78.2543V76.3532C54.227 76.2343 54.1887 76.1185 54.1178 76.023C54.0469 75.9274 53.9472 75.8572 53.8333 75.8226C51.6352 75.1345 49.6176 73.9662 47.9264 72.4025C47.8397 72.3215 47.7292 72.2706 47.6113 72.2573C47.4934 72.244 47.3743 72.269 47.2717 72.3286L45.6188 73.2826C45.4741 73.3661 45.3022 73.3887 45.1409 73.3455C44.9795 73.3023 44.8419 73.1968 44.7584 73.0522L41.1994 66.8894C41.1161 66.7446 41.0934 66.5727 41.1364 66.4113C41.1794 66.2499 41.2845 66.1121 41.4288 66.0279L43.0798 65.0749C43.1824 65.0157 43.2634 64.9251 43.3109 64.8165C43.3583 64.708 43.3698 64.587 43.3436 64.4715C42.831 62.2246 42.8331 59.891 43.3496 57.645C43.3756 57.5293 43.3641 57.4083 43.3167 57.2996C43.2692 57.1908 43.1883 57.1001 43.0857 57.0405L41.4288 56.0846C41.2842 56.0008 41.1786 55.8631 41.1353 55.7017C41.0919 55.5402 41.1143 55.3682 41.1975 55.2232L44.7564 49.0603C44.7977 48.9886 44.8527 48.9257 44.9183 48.8754C44.984 48.825 45.0589 48.788 45.1388 48.7666C45.2187 48.7452 45.3021 48.7398 45.3841 48.7506C45.4662 48.7615 45.5452 48.7885 45.6168 48.8299L47.2767 49.7878C47.3794 49.8474 47.4985 49.8724 47.6165 49.8593C47.7345 49.8462 47.8452 49.7956 47.9323 49.715C49.6213 48.1499 51.6368 46.9797 53.8333 46.289C53.9471 46.2542 54.0467 46.184 54.1176 46.0885C54.1885 45.993 54.2268 45.8773 54.2271 45.7583V43.8583C54.2274 43.6912 54.2939 43.5311 54.412 43.413C54.5301 43.2949 54.6902 43.2285 54.8572 43.2282H61.9731C62.1401 43.2285 62.3002 43.2949 62.4183 43.413C62.5364 43.5311 62.6029 43.6912 62.6031 43.8583V45.7593C62.6034 45.8782 62.6418 45.9939 62.7127 46.0894C62.7836 46.1849 62.8832 46.2552 62.9969 46.2899C65.1969 46.9773 67.2163 48.1456 68.9088 49.7101C68.9959 49.7907 69.1065 49.8414 69.2245 49.8547C69.3424 49.868 69.4616 49.8432 69.5644 49.7839L71.2174 48.8299C71.3621 48.7464 71.534 48.7238 71.6953 48.767C71.8566 48.8102 71.9942 48.9157 72.0778 49.0603L75.6358 55.2232C75.7193 55.368 75.742 55.54 75.6988 55.7015C75.6556 55.8631 75.5501 56.0008 75.4054 56.0846L73.7544 57.0376C73.6518 57.0969 73.5708 57.1874 73.5233 57.296C73.4759 57.4046 73.4644 57.5255 73.4906 57.6411C74.0032 59.8879 74.0012 62.2216 73.4847 64.4675C73.4583 64.5832 73.4696 64.7044 73.5171 64.8132C73.5646 64.922 73.6457 65.0127 73.7485 65.072L75.4054 66.0279C75.5499 66.1119 75.6552 66.2497 75.6982 66.4112C75.7412 66.5727 75.7184 66.7447 75.6348 66.8894Z"/>
</mask>
<path d="M75.9606 65.0651L74.6542 64.311C75.0923 62.1625 75.094 59.9478 74.6592 57.7986L75.9606 57.0474C76.3605 56.8162 76.6522 56.4357 76.7716 55.9895C76.8911 55.5433 76.8285 55.068 76.5976 54.6679L73.0397 48.5041C72.9255 48.3057 72.7734 48.1318 72.592 47.9923C72.4106 47.8528 72.2035 47.7504 71.9825 47.691C71.7616 47.6315 71.531 47.6162 71.3041 47.646C71.0772 47.6757 70.8584 47.7498 70.6602 47.8641L69.3577 48.6153C67.7103 47.167 65.7933 46.0579 63.7166 45.3517V43.8583C63.7161 43.3963 63.5323 42.9534 63.2056 42.6267C62.879 42.3 62.436 42.1162 61.9741 42.1157H54.8572C54.3954 42.1165 53.9527 42.3004 53.6263 42.627C53.2998 42.9537 53.1162 43.3964 53.1157 43.8583V45.3547C51.0409 46.0631 49.1263 47.1738 47.4814 48.6232L46.1721 47.8641C45.9738 47.7497 45.7549 47.6754 45.5279 47.6456C45.3009 47.6158 45.0702 47.6311 44.8491 47.6905C44.628 47.7499 44.4208 47.8524 44.2394 47.992C44.0579 48.1316 43.9057 48.3056 43.7916 48.5041L40.2337 54.6679C40.1193 54.866 40.045 55.0848 40.0151 55.3116C39.9853 55.5384 40.0004 55.7689 40.0597 55.9899C40.1189 56.2108 40.2211 56.418 40.3604 56.5994C40.4997 56.7809 40.6734 56.9331 40.8716 57.0474L42.178 57.8016C41.7403 59.9503 41.7403 62.1652 42.178 64.3139L40.8765 65.0651C40.4767 65.2963 40.185 65.6768 40.0654 66.1229C39.9458 66.569 40.0081 67.0444 40.2386 67.4446L43.7916 73.6085C44.0225 74.0089 44.403 74.3012 44.8494 74.4212C45.2957 74.5412 45.7715 74.4791 46.1721 74.2484L47.4736 73.4972C49.1213 74.9456 51.0386 76.0546 53.1157 76.7608V78.2572C53.1162 78.719 53.2998 79.1618 53.6263 79.4885C53.9527 79.8151 54.3954 79.999 54.8572 79.9998H61.9741C62.436 79.9992 62.879 79.8155 63.2056 79.4888C63.5323 79.1621 63.7161 78.7192 63.7166 78.2572V76.7608C65.7911 76.0526 67.7054 74.9419 69.3498 73.4923L70.6602 74.2484C71.0603 74.479 71.5356 74.5415 71.9817 74.422C72.4278 74.3026 72.8083 74.0111 73.0397 73.6114L76.5986 67.4476C76.8298 67.047 76.8925 66.571 76.7728 66.1243C76.6532 65.6775 76.3611 65.2965 75.9606 65.0651ZM75.6348 66.8894L72.0768 73.0522C71.9933 73.1968 71.8557 73.3023 71.6943 73.3455C71.533 73.3887 71.3611 73.3661 71.2164 73.2826L69.5566 72.3247C69.4538 72.2651 69.3347 72.2401 69.2167 72.2532C69.0987 72.2663 68.988 72.3169 68.9009 72.3976C67.2102 73.963 65.1925 75.1329 62.994 75.8226C62.8802 75.8572 62.7805 75.9274 62.7096 76.023C62.6387 76.1185 62.6003 76.2343 62.6002 76.3532V78.2543C62.5999 78.4213 62.5335 78.5814 62.4154 78.6995C62.2973 78.8176 62.1371 78.8841 61.9701 78.8843H54.8572C54.6902 78.8841 54.5301 78.8176 54.412 78.6995C54.2939 78.5814 54.2274 78.4213 54.2271 78.2543V76.3532C54.227 76.2343 54.1887 76.1185 54.1178 76.023C54.0469 75.9274 53.9472 75.8572 53.8333 75.8226C51.6352 75.1345 49.6176 73.9662 47.9264 72.4025C47.8397 72.3215 47.7292 72.2706 47.6113 72.2573C47.4934 72.244 47.3743 72.269 47.2717 72.3286L45.6188 73.2826C45.4741 73.3661 45.3022 73.3887 45.1409 73.3455C44.9795 73.3023 44.8419 73.1968 44.7584 73.0522L41.1994 66.8894C41.1161 66.7446 41.0934 66.5727 41.1364 66.4113C41.1794 66.2499 41.2845 66.1121 41.4288 66.0279L43.0798 65.0749C43.1824 65.0157 43.2634 64.9251 43.3109 64.8165C43.3583 64.708 43.3698 64.587 43.3436 64.4715C42.831 62.2246 42.8331 59.891 43.3496 57.645C43.3756 57.5293 43.3641 57.4083 43.3167 57.2996C43.2692 57.1908 43.1883 57.1001 43.0857 57.0405L41.4288 56.0846C41.2842 56.0008 41.1786 55.8631 41.1353 55.7017C41.0919 55.5402 41.1143 55.3682 41.1975 55.2232L44.7564 49.0603C44.7977 48.9886 44.8527 48.9257 44.9183 48.8754C44.984 48.825 45.0589 48.788 45.1388 48.7666C45.2187 48.7452 45.3021 48.7398 45.3841 48.7506C45.4662 48.7615 45.5452 48.7885 45.6168 48.8299L47.2767 49.7878C47.3794 49.8474 47.4985 49.8724 47.6165 49.8593C47.7345 49.8462 47.8452 49.7956 47.9323 49.715C49.6213 48.1499 51.6368 46.9797 53.8333 46.289C53.9471 46.2542 54.0467 46.184 54.1176 46.0885C54.1885 45.993 54.2268 45.8773 54.2271 45.7583V43.8583C54.2274 43.6912 54.2939 43.5311 54.412 43.413C54.5301 43.2949 54.6902 43.2285 54.8572 43.2282H61.9731C62.1401 43.2285 62.3002 43.2949 62.4183 43.413C62.5364 43.5311 62.6029 43.6912 62.6031 43.8583V45.7593C62.6034 45.8782 62.6418 45.9939 62.7127 46.0894C62.7836 46.1849 62.8832 46.2552 62.9969 46.2899C65.1969 46.9773 67.2163 48.1456 68.9088 49.7101C68.9959 49.7907 69.1065 49.8414 69.2245 49.8547C69.3424 49.868 69.4616 49.8432 69.5644 49.7839L71.2174 48.8299C71.3621 48.7464 71.534 48.7238 71.6953 48.767C71.8566 48.8102 71.9942 48.9157 72.0778 49.0603L75.6358 55.2232C75.7193 55.368 75.742 55.54 75.6988 55.7015C75.6556 55.8631 75.5501 56.0008 75.4054 56.0846L73.7544 57.0376C73.6518 57.0969 73.5708 57.1874 73.5233 57.296C73.4759 57.4046 73.4644 57.5255 73.4906 57.6411C74.0032 59.8879 74.0012 62.2216 73.4847 64.4675C73.4583 64.5832 73.4696 64.7044 73.5171 64.8132C73.5646 64.922 73.6457 65.0127 73.7485 65.072L75.4054 66.0279C75.5499 66.1119 75.6552 66.2497 75.6982 66.4112C75.7412 66.5727 75.7184 66.7447 75.6348 66.8894Z" fill="url(#paint9_linear_961_6072)"/>
<path d="M75.9606 65.0651L74.6542 64.311C75.0923 62.1625 75.094 59.9478 74.6592 57.7986L75.9606 57.0474C76.3605 56.8162 76.6522 56.4357 76.7716 55.9895C76.8911 55.5433 76.8285 55.068 76.5976 54.6679L73.0397 48.5041C72.9255 48.3057 72.7734 48.1318 72.592 47.9923C72.4106 47.8528 72.2035 47.7504 71.9825 47.691C71.7616 47.6315 71.531 47.6162 71.3041 47.646C71.0772 47.6757 70.8584 47.7498 70.6602 47.8641L69.3577 48.6153C67.7103 47.167 65.7933 46.0579 63.7166 45.3517V43.8583C63.7161 43.3963 63.5323 42.9534 63.2056 42.6267C62.879 42.3 62.436 42.1162 61.9741 42.1157H54.8572C54.3954 42.1165 53.9527 42.3004 53.6263 42.627C53.2998 42.9537 53.1162 43.3964 53.1157 43.8583V45.3547C51.0409 46.0631 49.1263 47.1738 47.4814 48.6232L46.1721 47.8641C45.9738 47.7497 45.7549 47.6754 45.5279 47.6456C45.3009 47.6158 45.0702 47.6311 44.8491 47.6905C44.628 47.7499 44.4208 47.8524 44.2394 47.992C44.0579 48.1316 43.9057 48.3056 43.7916 48.5041L40.2337 54.6679C40.1193 54.866 40.045 55.0848 40.0151 55.3116C39.9853 55.5384 40.0004 55.7689 40.0597 55.9899C40.1189 56.2108 40.2211 56.418 40.3604 56.5994C40.4997 56.7809 40.6734 56.9331 40.8716 57.0474L42.178 57.8016C41.7403 59.9503 41.7403 62.1652 42.178 64.3139L40.8765 65.0651C40.4767 65.2963 40.185 65.6768 40.0654 66.1229C39.9458 66.569 40.0081 67.0444 40.2386 67.4446L43.7916 73.6085C44.0225 74.0089 44.403 74.3012 44.8494 74.4212C45.2957 74.5412 45.7715 74.4791 46.1721 74.2484L47.4736 73.4972C49.1213 74.9456 51.0386 76.0546 53.1157 76.7608V78.2572C53.1162 78.719 53.2998 79.1618 53.6263 79.4885C53.9527 79.8151 54.3954 79.999 54.8572 79.9998H61.9741C62.436 79.9992 62.879 79.8155 63.2056 79.4888C63.5323 79.1621 63.7161 78.7192 63.7166 78.2572V76.7608C65.7911 76.0526 67.7054 74.9419 69.3498 73.4923L70.6602 74.2484C71.0603 74.479 71.5356 74.5415 71.9817 74.422C72.4278 74.3026 72.8083 74.0111 73.0397 73.6114L76.5986 67.4476C76.8298 67.047 76.8925 66.571 76.7728 66.1243C76.6532 65.6775 76.3611 65.2965 75.9606 65.0651ZM75.6348 66.8894L72.0768 73.0522C71.9933 73.1968 71.8557 73.3023 71.6943 73.3455C71.533 73.3887 71.3611 73.3661 71.2164 73.2826L69.5566 72.3247C69.4538 72.2651 69.3347 72.2401 69.2167 72.2532C69.0987 72.2663 68.988 72.3169 68.9009 72.3976C67.2102 73.963 65.1925 75.1329 62.994 75.8226C62.8802 75.8572 62.7805 75.9274 62.7096 76.023C62.6387 76.1185 62.6003 76.2343 62.6002 76.3532V78.2543C62.5999 78.4213 62.5335 78.5814 62.4154 78.6995C62.2973 78.8176 62.1371 78.8841 61.9701 78.8843H54.8572C54.6902 78.8841 54.5301 78.8176 54.412 78.6995C54.2939 78.5814 54.2274 78.4213 54.2271 78.2543V76.3532C54.227 76.2343 54.1887 76.1185 54.1178 76.023C54.0469 75.9274 53.9472 75.8572 53.8333 75.8226C51.6352 75.1345 49.6176 73.9662 47.9264 72.4025C47.8397 72.3215 47.7292 72.2706 47.6113 72.2573C47.4934 72.244 47.3743 72.269 47.2717 72.3286L45.6188 73.2826C45.4741 73.3661 45.3022 73.3887 45.1409 73.3455C44.9795 73.3023 44.8419 73.1968 44.7584 73.0522L41.1994 66.8894C41.1161 66.7446 41.0934 66.5727 41.1364 66.4113C41.1794 66.2499 41.2845 66.1121 41.4288 66.0279L43.0798 65.0749C43.1824 65.0157 43.2634 64.9251 43.3109 64.8165C43.3583 64.708 43.3698 64.587 43.3436 64.4715C42.831 62.2246 42.8331 59.891 43.3496 57.645C43.3756 57.5293 43.3641 57.4083 43.3167 57.2996C43.2692 57.1908 43.1883 57.1001 43.0857 57.0405L41.4288 56.0846C41.2842 56.0008 41.1786 55.8631 41.1353 55.7017C41.0919 55.5402 41.1143 55.3682 41.1975 55.2232L44.7564 49.0603C44.7977 48.9886 44.8527 48.9257 44.9183 48.8754C44.984 48.825 45.0589 48.788 45.1388 48.7666C45.2187 48.7452 45.3021 48.7398 45.3841 48.7506C45.4662 48.7615 45.5452 48.7885 45.6168 48.8299L47.2767 49.7878C47.3794 49.8474 47.4985 49.8724 47.6165 49.8593C47.7345 49.8462 47.8452 49.7956 47.9323 49.715C49.6213 48.1499 51.6368 46.9797 53.8333 46.289C53.9471 46.2542 54.0467 46.184 54.1176 46.0885C54.1885 45.993 54.2268 45.8773 54.2271 45.7583V43.8583C54.2274 43.6912 54.2939 43.5311 54.412 43.413C54.5301 43.2949 54.6902 43.2285 54.8572 43.2282H61.9731C62.1401 43.2285 62.3002 43.2949 62.4183 43.413C62.5364 43.5311 62.6029 43.6912 62.6031 43.8583V45.7593C62.6034 45.8782 62.6418 45.9939 62.7127 46.0894C62.7836 46.1849 62.8832 46.2552 62.9969 46.2899C65.1969 46.9773 67.2163 48.1456 68.9088 49.7101C68.9959 49.7907 69.1065 49.8414 69.2245 49.8547C69.3424 49.868 69.4616 49.8432 69.5644 49.7839L71.2174 48.8299C71.3621 48.7464 71.534 48.7238 71.6953 48.767C71.8566 48.8102 71.9942 48.9157 72.0778 49.0603L75.6358 55.2232C75.7193 55.368 75.742 55.54 75.6988 55.7015C75.6556 55.8631 75.5501 56.0008 75.4054 56.0846L73.7544 57.0376C73.6518 57.0969 73.5708 57.1874 73.5233 57.296C73.4759 57.4046 73.4644 57.5255 73.4906 57.6411C74.0032 59.8879 74.0012 62.2216 73.4847 64.4675C73.4583 64.5832 73.4696 64.7044 73.5171 64.8132C73.5646 64.922 73.6457 65.0127 73.7485 65.072L75.4054 66.0279C75.5499 66.1119 75.6552 66.2497 75.6982 66.4112C75.7412 66.5727 75.7184 66.7447 75.6348 66.8894Z" stroke="url(#paint10_linear_961_6072)" stroke-width="0.4" mask="url(#path-8-outside-1_961_6072)"/>
<path d="M58.756 50.0234C56.4952 50.0234 54.2851 50.6939 52.4053 51.9499C50.5254 53.206 49.0603 54.9913 48.1951 57.08C47.3299 59.1688 47.1035 61.4672 47.5446 63.6846C47.9857 65.902 49.0744 67.9389 50.673 69.5375C52.2717 71.1362 54.3085 72.2249 56.5259 72.666C58.7433 73.107 61.0418 72.8807 63.1305 72.0155C65.2193 71.1503 67.0046 69.6851 68.2606 67.8053C69.5167 65.9255 70.1871 63.7154 70.1871 61.4545C70.1837 58.4239 68.9782 55.5183 66.8352 53.3753C64.6922 51.2323 61.7867 50.0269 58.756 50.0234ZM58.756 71.7533C56.7191 71.7533 54.728 71.1493 53.0343 70.0177C51.3407 68.886 50.0207 67.2776 49.2412 65.3957C48.4617 63.5138 48.2577 61.4431 48.6551 59.4453C49.0525 57.4476 50.0334 55.6125 51.4737 54.1722C52.914 52.7319 54.7491 51.751 56.7468 51.3536C58.7446 50.9562 60.8153 51.1602 62.6972 51.9397C64.5791 52.7192 66.1875 54.0392 67.3192 55.7328C68.4508 57.4264 69.0548 59.4176 69.0548 61.4545C69.0519 64.185 67.9659 66.8029 66.0351 68.7337C64.1044 70.6644 61.4865 71.7504 58.756 71.7533Z" fill="url(#paint11_linear_961_6072)"/>
<path d="M58.7591 71.8783H58.7592C61.5224 71.8746 64.1713 70.7751 66.125 68.821C68.0786 66.867 69.1776 64.2179 69.1808 61.4547V61.4545C69.1808 59.3928 68.5694 57.3774 67.424 55.6632C66.2785 53.9489 64.6504 52.6129 62.7456 51.824C60.8408 51.0351 58.7448 50.8288 56.7227 51.2312C54.7006 51.6335 52.8433 52.6265 51.3856 54.0845C49.9279 55.5425 48.9353 57.4 48.5333 59.4222C48.1313 61.4443 48.338 63.5403 49.1273 65.4449C49.9166 67.3496 51.2529 68.9774 52.9674 70.1226C54.6818 71.2677 56.6973 71.8787 58.7591 71.8783ZM52.4769 52.0524C54.3365 50.8105 56.5227 50.1479 58.7589 50.1484C61.7559 50.1527 64.6289 51.3453 66.7479 53.4648C68.8668 55.5843 70.0587 58.4576 70.0621 61.4547C70.0621 63.6909 69.3989 65.8769 68.1565 67.7362C66.914 69.5955 65.1481 71.0446 63.082 71.9003C61.0159 72.7559 58.7425 72.9796 56.5492 72.5431C54.356 72.1067 52.3414 71.0296 50.7604 69.4481C49.1793 67.8666 48.1027 65.8518 47.6668 63.6584C47.2309 61.465 47.4552 59.1917 48.3114 57.1258C49.1676 55.0599 50.6172 53.2944 52.4769 52.0524Z" stroke="url(#paint12_linear_961_6072)" stroke-width="0.25" stroke-miterlimit="10"/>
<path d="M62.3984 48.5879C62.7843 48.7109 63.1683 48.8537 63.5414 49.0122C63.6102 49.0416 63.6842 49.0567 63.759 49.0565C63.8872 49.0564 64.0114 49.0119 64.1105 48.9307C64.2097 48.8494 64.2777 48.7364 64.3029 48.6107C64.3282 48.485 64.3092 48.3545 64.2492 48.2412C64.1892 48.1279 64.0918 48.0389 63.9736 47.9893C63.569 47.817 63.1516 47.6615 62.7331 47.5285C62.6624 47.502 62.5871 47.4902 62.5117 47.4938C62.4362 47.4973 62.3623 47.5162 62.2944 47.5493C62.2266 47.5823 62.1661 47.6289 62.1168 47.686C62.0675 47.7432 62.0303 47.8098 62.0075 47.8818C61.9848 47.9538 61.9769 48.0297 61.9845 48.1048C61.992 48.1799 62.0147 48.2528 62.0513 48.3188C62.0879 48.3849 62.1375 48.4428 62.1972 48.489C62.2569 48.5353 62.3253 48.5689 62.3984 48.5879Z" fill="url(#paint13_linear_961_6072)"/>
<path d="M46.8118 67.3725L46.8118 67.3725L46.813 67.3747C47.031 67.766 47.2643 68.1534 47.5181 68.5236L47.518 68.5236L47.5209 68.5275C47.5555 68.574 47.5804 68.6271 47.594 68.6835C47.6076 68.7398 47.6097 68.7984 47.6002 68.8556C47.5907 68.9128 47.5697 68.9675 47.5385 69.0164C47.5074 69.0654 47.4667 69.1075 47.4188 69.1403C47.371 69.1731 47.3171 69.196 47.2602 69.2075C47.2034 69.2189 47.1448 69.2188 47.088 69.2072C47.0312 69.1955 46.9773 69.1725 46.9296 69.1395C46.8819 69.1065 46.8413 69.0642 46.8103 69.0152L46.8104 69.0152L46.8077 69.0113C46.5365 68.6159 46.2854 68.2071 46.0553 67.7865L46.0553 67.7865L46.0547 67.7854C46.0268 67.7357 46.0091 67.6809 46.0026 67.6242C45.9961 67.5675 46.0008 67.5102 46.0166 67.4554C46.0324 67.4006 46.0589 67.3494 46.0946 67.305C46.1303 67.2605 46.1745 67.2235 46.2245 67.1962C46.2746 67.1689 46.3296 67.1518 46.3863 67.1459C46.443 67.14 46.5004 67.1454 46.555 67.1618C46.6096 67.1782 46.6604 67.2052 46.7045 67.2414C46.7486 67.2776 46.7851 67.3221 46.8118 67.3725Z" fill="url(#paint14_linear_961_6072)" stroke="url(#paint15_linear_961_6072)" stroke-width="0.25"/>
<path d="M57.2789 74.0921C54.2862 73.8295 51.4749 72.5459 49.3164 70.4564C49.2646 70.4027 49.2025 70.3601 49.1338 70.3309C49.0652 70.3017 48.9914 70.2867 48.9168 70.2866C48.8422 70.2866 48.7684 70.3015 48.6997 70.3306C48.631 70.3596 48.5688 70.4022 48.5169 70.4557C48.465 70.5093 48.4244 70.5728 48.3975 70.6423C48.3706 70.7119 48.358 70.7862 48.3604 70.8607C48.3628 70.9353 48.3802 71.0086 48.4115 71.0763C48.4428 71.144 48.4873 71.2047 48.5426 71.2548C50.8845 73.5211 53.9341 74.9138 57.1805 75.1996H57.2287C57.3705 75.1973 57.5061 75.1409 57.6076 75.0419C57.7092 74.9429 57.7692 74.8089 57.7752 74.6672C57.7812 74.5255 57.7329 74.3868 57.6401 74.2796C57.5473 74.1723 57.4171 74.1045 57.276 74.0901L57.2789 74.0921Z" fill="url(#paint16_linear_961_6072)"/>
<path d="M57.3779 74.1179C54.3849 73.8555 51.5731 72.5718 49.4144 70.4822C49.3075 70.3852 49.167 70.3335 49.0228 70.3382C48.8785 70.3428 48.7416 70.4034 48.6412 70.507C48.5407 70.6107 48.4845 70.7493 48.4844 70.8937C48.4843 71.038 48.5403 71.1768 48.6406 71.2806C50.9827 73.5471 54.0327 74.9398 57.2794 75.2254C57.2955 75.2264 57.3116 75.2264 57.3277 75.2254C57.4695 75.2231 57.605 75.1666 57.7066 75.0677C57.8082 74.9687 57.8681 74.8346 57.8742 74.6929C57.8802 74.5512 57.8319 74.4126 57.7391 74.3053C57.6463 74.1981 57.516 74.1303 57.3749 74.1159L57.3779 74.1179Z" stroke="url(#paint17_linear_961_6072)" stroke-width="0.25" stroke-miterlimit="10"/>
<path d="M66.4171 49.3284C66.2953 49.2505 66.148 49.2231 66.0064 49.2519C65.8648 49.2807 65.7399 49.3635 65.6583 49.4828C65.5766 49.602 65.5446 49.7484 65.569 49.8908C65.5934 50.0333 65.6723 50.1607 65.789 50.246C68.3681 52.0056 70.2339 54.6287 71.0501 57.6424C71.0819 57.7604 71.1516 57.8647 71.2486 57.9391C71.3456 58.0135 71.4644 58.0538 71.5866 58.0539C71.6358 58.054 71.6847 58.0477 71.7323 58.0352C71.875 57.9969 71.9966 57.9036 72.0704 57.7756C72.1443 57.6477 72.1643 57.4957 72.1261 57.353C71.24 54.0834 69.2154 51.2376 66.4171 49.3284Z" fill="url(#paint18_linear_961_6072)"/>
<path d="M62.4364 48.4551L62.4365 48.4549L62.4298 48.4532C62.3731 48.4385 62.32 48.4124 62.2738 48.3766C62.2275 48.3407 62.189 48.2958 62.1606 48.2446C62.1323 48.1934 62.1147 48.1369 62.1088 48.0787C62.103 48.0204 62.1091 47.9616 62.1267 47.9058C62.1444 47.85 62.1732 47.7983 62.2114 47.754C62.2497 47.7097 62.2965 47.6736 62.3492 47.648C62.4018 47.6224 62.4591 47.6077 62.5176 47.605C62.576 47.6022 62.6345 47.6114 62.6893 47.6319L62.6892 47.6321L62.6951 47.6339C63.1099 47.7667 63.5237 47.9199 63.9246 48.0906L63.9247 48.0907C64.0161 48.1295 64.0912 48.1986 64.1375 48.2864C64.1838 48.3741 64.1984 48.4752 64.1789 48.5725C64.1593 48.6698 64.1068 48.7574 64.0302 48.8205C63.9537 48.8835 63.8578 48.9182 63.7588 48.9188C63.7011 48.9186 63.644 48.9067 63.5911 48.8838L63.5911 48.8838L63.5904 48.8835C63.2146 48.7234 62.826 48.5793 62.4364 48.4551Z" stroke="url(#paint19_linear_961_6072)" stroke-width="0.25" stroke-miterlimit="10"/>
<path d="M72.1293 57.3404L72.0085 57.3728C72.0232 57.4275 72.0269 57.4846 72.0195 57.5407C72.0121 57.5969 71.9937 57.651 71.9653 57.7001C71.9369 57.7491 71.8992 57.7921 71.8542 57.8266C71.8093 57.861 71.758 57.8863 71.7032 57.9009L71.7031 57.901C71.666 57.9109 71.6278 57.9161 71.5895 57.9164C71.4949 57.9162 71.4029 57.8849 71.3279 57.8273C71.2527 57.7697 71.1986 57.6888 71.1739 57.5973L71.1739 57.5972C70.3504 54.5545 68.4667 51.9063 65.8626 50.1301L65.7921 50.2334L65.8627 50.1302C65.8159 50.0983 65.7759 50.0574 65.745 50.0099C65.714 49.9625 65.6927 49.9094 65.6822 49.8538C65.6718 49.7981 65.6724 49.7409 65.684 49.6855C65.6957 49.63 65.7181 49.5774 65.7501 49.5307C65.7821 49.4839 65.8229 49.4439 65.8704 49.4129C65.9178 49.382 65.9709 49.3606 66.0266 49.3502C66.0822 49.3397 66.1394 49.3403 66.1949 49.352C66.2503 49.3636 66.3029 49.3861 66.3497 49.4181L66.3498 49.4181C69.1241 51.3104 71.131 54.1316 72.0086 57.3731L72.1293 57.3404ZM72.1293 57.3404C71.2438 54.0702 69.2191 51.2239 66.4202 49.3149L71.0532 57.6299C71.085 57.7479 71.1548 57.8521 71.2518 57.9265C71.3488 58.0009 71.4675 58.0413 71.5898 58.0414C71.639 58.0411 71.6879 58.0344 71.7355 58.0217C71.8061 58.0028 71.8723 57.9703 71.9303 57.9258C71.9883 57.8814 72.037 57.8259 72.0735 57.7626C72.1101 57.6994 72.1338 57.6295 72.1434 57.5571C72.153 57.4846 72.1482 57.411 72.1293 57.3404Z" stroke="url(#paint20_linear_961_6072)" stroke-width="0.25" stroke-miterlimit="10"/>
<path fill-rule="evenodd" clip-rule="evenodd" d="M30.9208 25.3458H31.828V23.2443C31.8228 21.0109 32.683 18.8623 34.2281 17.2497C34.9735 16.4556 35.8736 15.8228 36.8731 15.3902C37.8725 14.9576 38.95 14.7344 40.039 14.7344C41.1281 14.7344 42.2055 14.9576 43.205 15.3902C44.2044 15.8228 45.1046 16.4556 45.8499 17.2497C47.395 18.8623 48.2552 21.0109 48.25 23.2443V25.3458H49.1573C49.5116 25.3458 49.8517 25.4858 50.1033 25.7353C50.355 25.9848 50.4979 26.3236 50.5009 26.678V40.8377C50.4979 41.192 50.355 41.5308 50.1033 41.7803C49.8517 42.0298 49.5116 42.1698 49.1573 42.1698H30.9208C30.5664 42.1698 30.2264 42.0298 29.9747 41.7803C29.7231 41.5308 29.5802 41.192 29.5771 40.8377V26.678C29.5802 26.3236 29.7231 25.9848 29.9747 25.7353C30.2264 25.4858 30.5664 25.3458 30.9208 25.3458ZM34.366 25.3458H45.7121V23.2443C45.7317 21.6707 45.1387 20.1511 44.0584 19.0067C43.5498 18.4559 42.9326 18.0164 42.2458 17.7157C41.559 17.4151 40.8174 17.2599 40.0677 17.2599C39.318 17.2599 38.5764 17.4151 37.8896 17.7157C37.2028 18.0164 36.5857 18.4559 36.0771 19.0067C34.9915 20.1495 34.3906 21.6682 34.4004 23.2443V25.3458H34.366ZM38.9595 34.3837L37.5126 38.1619H42.6114L41.2678 34.3263C41.7964 34.0531 42.2167 33.6087 42.4601 33.0657C42.7035 32.5227 42.7555 31.9132 42.6077 31.3368C42.4599 30.7605 42.121 30.2512 41.6463 29.8924C41.1717 29.5335 40.5894 29.3462 39.9946 29.3611C39.3997 29.3759 38.8275 29.5921 38.3714 29.9742C37.9153 30.3564 37.6022 30.8819 37.4834 31.4649C37.3646 32.048 37.447 32.6541 37.7172 33.1843C37.9874 33.7144 38.4294 34.1372 38.971 34.3837H38.9595Z" fill="url(#paint21_linear_961_6072)"/>
<path fill-rule="evenodd" clip-rule="evenodd" d="M30.9208 25.3458H31.828V23.2443C31.8228 21.0109 32.683 18.8623 34.2281 17.2497C34.9735 16.4556 35.8736 15.8228 36.8731 15.3902C37.8725 14.9576 38.95 14.7344 40.039 14.7344C41.1281 14.7344 42.2055 14.9576 43.205 15.3902C44.2044 15.8228 45.1046 16.4556 45.8499 17.2497C47.395 18.8623 48.2552 21.0109 48.25 23.2443V25.3458H49.1573C49.5116 25.3458 49.8517 25.4858 50.1033 25.7353C50.355 25.9848 50.4979 26.3236 50.5009 26.678V40.8377C50.4979 41.192 50.355 41.5308 50.1033 41.7803C49.8517 42.0298 49.5116 42.1698 49.1573 42.1698H30.9208C30.5664 42.1698 30.2264 42.0298 29.9747 41.7803C29.7231 41.5308 29.5802 41.192 29.5771 40.8377V26.678C29.5802 26.3236 29.7231 25.9848 29.9747 25.7353C30.2264 25.4858 30.5664 25.3458 30.9208 25.3458ZM34.366 25.3458H45.7121V23.2443C45.7317 21.6707 45.1387 20.1511 44.0584 19.0067C43.5498 18.4559 42.9326 18.0164 42.2458 17.7157C41.559 17.4151 40.8174 17.2599 40.0677 17.2599C39.318 17.2599 38.5764 17.4151 37.8896 17.7157C37.2028 18.0164 36.5857 18.4559 36.0771 19.0067C34.9915 20.1495 34.3906 21.6682 34.4004 23.2443V25.3458H34.366ZM38.9595 34.3837L37.5126 38.1619H42.6114L41.2678 34.3263C41.7964 34.0531 42.2167 33.6087 42.4601 33.0657C42.7035 32.5227 42.7555 31.9132 42.6077 31.3368C42.4599 30.7605 42.121 30.2512 41.6463 29.8924C41.1717 29.5335 40.5894 29.3462 39.9946 29.3611C39.3997 29.3759 38.8275 29.5921 38.3714 29.9742C37.9153 30.3564 37.6022 30.8819 37.4834 31.4649C37.3646 32.048 37.447 32.6541 37.7172 33.1843C37.9874 33.7144 38.4294 34.1372 38.971 34.3837H38.9595Z" stroke="url(#paint22_linear_961_6072)" stroke-width="0.07" stroke-miterlimit="10"/>
<defs>
<linearGradient id="paint0_linear_961_6072" x1="76.8423" y1="47.3684" x2="6.84213" y2="-4.73701" gradientUnits="userSpaceOnUse">
<stop stop-color="white" stop-opacity="0.9"/>
<stop offset="0.04" stop-color="white" stop-opacity="0.85"/>
<stop offset="0.28" stop-color="white" stop-opacity="0.5"/>
<stop offset="0.65" stop-color="#FAFBFC" stop-opacity="0.4"/>
<stop offset="1" stop-color="#F0EFEF" stop-opacity="0"/>
</linearGradient>
<linearGradient id="paint1_linear_961_6072" x1="66.316" y1="51.0528" x2="25.2632" y2="7.89476" gradientUnits="userSpaceOnUse">
<stop stop-color="white" stop-opacity="0.9"/>
<stop offset="0.28" stop-color="white" stop-opacity="0.5"/>
<stop offset="0.65" stop-color="#FAFBFC" stop-opacity="0.4"/>
<stop offset="1" stop-color="#F0EFEF" stop-opacity="0"/>
</linearGradient>
<radialGradient id="paint2_radial_961_6072" cx="0" cy="0" r="1" gradientUnits="userSpaceOnUse" gradientTransform="translate(78.4435 46.1403) rotate(90) scale(0.828718 7.99339)">
<stop stop-color="white"/>
<stop offset="0.07" stop-color="white" stop-opacity="0.93"/>
<stop offset="1" stop-color="white" stop-opacity="0"/>
</radialGradient>
<radialGradient id="paint3_radial_961_6072" cx="0" cy="0" r="1" gradientUnits="userSpaceOnUse" gradientTransform="translate(79.1329 46.2283) scale(0.914826 8.01346)">
<stop stop-color="white"/>
<stop offset="0.07" stop-color="white" stop-opacity="0.93"/>
<stop offset="1" stop-color="white" stop-opacity="0"/>
</radialGradient>
<radialGradient id="paint4_radial_961_6072" cx="0" cy="0" r="1" gradientUnits="userSpaceOnUse" gradientTransform="translate(13.77 17.6977) rotate(90) scale(0.828718 7.99759)">
<stop stop-color="white"/>
<stop offset="0.07" stop-color="white" stop-opacity="0.93"/>
<stop offset="1" stop-color="white" stop-opacity="0"/>
</radialGradient>
<radialGradient id="paint5_radial_961_6072" cx="0" cy="0" r="1" gradientUnits="userSpaceOnUse" gradientTransform="translate(14.3034 17.7026) scale(0.915304 8.01346)">
<stop stop-color="white"/>
<stop offset="0.07" stop-color="white" stop-opacity="0.93"/>
<stop offset="1" stop-color="white" stop-opacity="0"/>
</radialGradient>
<linearGradient id="paint6_linear_961_6072" x1="38" y1="58.0002" x2="-9.5268" y2="21.6482" gradientUnits="userSpaceOnUse">
<stop stop-color="white" stop-opacity="0.9"/>
<stop offset="0.04" stop-color="white" stop-opacity="0.85"/>
<stop offset="0.28" stop-color="white" stop-opacity="0.5"/>
<stop offset="0.65" stop-color="#FAFBFC" stop-opacity="0.4"/>
<stop offset="1" stop-color="#F0EFEF" stop-opacity="0"/>
</linearGradient>
<linearGradient id="paint7_linear_961_6072" x1="14.1933" y1="44.3999" x2="49.3862" y2="44.3999" gradientUnits="userSpaceOnUse">
<stop stop-color="#79A540"/>
<stop offset="0.2" stop-color="#94C63D"/>
<stop offset="0.39" stop-color="#98CA3C"/>
<stop offset="0.59" stop-color="#93C53E"/>
<stop offset="0.74" stop-color="#9DCB3B"/>
<stop offset="0.9" stop-color="#A6CE39"/>
<stop offset="1" stop-color="#A6CE39"/>
</linearGradient>
<linearGradient id="paint8_linear_961_6072" x1="36" y1="56.5002" x2="18.7847" y2="37.2079" gradientUnits="userSpaceOnUse">
<stop stop-color="white" stop-opacity="0.9"/>
<stop offset="0.28" stop-color="white" stop-opacity="0.5"/>
<stop offset="0.65" stop-color="#FAFBFC" stop-opacity="0.4"/>
<stop offset="1" stop-color="#F0EFEF" stop-opacity="0"/>
</linearGradient>
<linearGradient id="paint9_linear_961_6072" x1="72.069" y1="69.2118" x2="36.8529" y2="48.1733" gradientUnits="userSpaceOnUse">
<stop stop-color="white" stop-opacity="0.9"/>
<stop offset="0.28" stop-color="white" stop-opacity="0.5"/>
<stop offset="0.65" stop-color="#FAFBFC" stop-opacity="0.4"/>
<stop offset="1" stop-color="#F0EFEF" stop-opacity="0.3"/>
</linearGradient>
<linearGradient id="paint10_linear_961_6072" x1="72.069" y1="69.2118" x2="36.8529" y2="48.1733" gradientUnits="userSpaceOnUse">
<stop stop-color="white" stop-opacity="0.9"/>
<stop offset="0.28" stop-color="white" stop-opacity="0.5"/>
<stop offset="0.65" stop-color="#FAFBFC" stop-opacity="0.4"/>
<stop offset="1" stop-color="#F0EFEF" stop-opacity="0.3"/>
</linearGradient>
<linearGradient id="paint11_linear_961_6072" x1="66.5558" y1="69.0288" x2="50.6557" y2="53.5887" gradientUnits="userSpaceOnUse">
<stop stop-color="white" stop-opacity="0.9"/>
<stop offset="0.04" stop-color="white" stop-opacity="0.85"/>
<stop offset="0.28" stop-color="white" stop-opacity="0.5"/>
<stop offset="0.65" stop-color="#FAFBFC" stop-opacity="0.4"/>
<stop offset="1" stop-color="#F0EFEF" stop-opacity="0.3"/>
</linearGradient>
<linearGradient id="paint12_linear_961_6072" x1="53.0405" y1="54.5482" x2="68.2819" y2="68.1226" gradientUnits="userSpaceOnUse">
<stop stop-color="#F0EFEF" stop-opacity="0"/>
<stop offset="0.614562" stop-color="#FAFBFC" stop-opacity="0.4"/>
<stop offset="0.848709" stop-color="white" stop-opacity="0.5"/>
<stop offset="1" stop-color="white" stop-opacity="0.9"/>
</linearGradient>
<linearGradient id="paint13_linear_961_6072" x1="62.0056" y1="48.2787" x2="64.3103" y2="48.2787" gradientUnits="userSpaceOnUse">
<stop stop-color="white" stop-opacity="0.9"/>
<stop offset="0.04" stop-color="white" stop-opacity="0.85"/>
<stop offset="0.28" stop-color="white" stop-opacity="0.5"/>
<stop offset="0.65" stop-color="#FAFBFC" stop-opacity="0.4"/>
<stop offset="1" stop-color="#F0EFEF" stop-opacity="0.3"/>
</linearGradient>
<linearGradient id="paint14_linear_961_6072" x1="45.8777" y1="68.1733" x2="47.7197" y2="68.1733" gradientUnits="userSpaceOnUse">
<stop stop-color="white" stop-opacity="0.9"/>
<stop offset="0.04" stop-color="white" stop-opacity="0.85"/>
<stop offset="0.28" stop-color="white" stop-opacity="0.5"/>
<stop offset="0.65" stop-color="#FAFBFC" stop-opacity="0.4"/>
<stop offset="1" stop-color="#F0EFEF" stop-opacity="0.3"/>
</linearGradient>
<linearGradient id="paint15_linear_961_6072" x1="46.9556" y1="68.2322" x2="47.6774" y2="68.7019" gradientUnits="userSpaceOnUse">
<stop stop-color="#F0EFEF" stop-opacity="0"/>
<stop offset="0.614562" stop-color="#FAFBFC" stop-opacity="0.4"/>
<stop offset="0.848709" stop-color="white" stop-opacity="0.5"/>
<stop offset="1" stop-color="white" stop-opacity="0.9"/>
</linearGradient>
<linearGradient id="paint16_linear_961_6072" x1="48.3713" y1="72.7502" x2="57.7859" y2="72.7502" gradientUnits="userSpaceOnUse">
<stop stop-color="white" stop-opacity="0.9"/>
<stop offset="0.04" stop-color="white" stop-opacity="0.85"/>
<stop offset="0.28" stop-color="white" stop-opacity="0.5"/>
<stop offset="0.65" stop-color="#FAFBFC" stop-opacity="0.4"/>
<stop offset="1" stop-color="#F0EFEF" stop-opacity="0.3"/>
</linearGradient>
<linearGradient id="paint17_linear_961_6072" x1="50.8319" y1="71.3054" x2="53.6905" y2="76.196" gradientUnits="userSpaceOnUse">
<stop stop-color="#F0EFEF" stop-opacity="0"/>
<stop offset="0.614562" stop-color="#FAFBFC" stop-opacity="0.4"/>
<stop offset="0.848709" stop-color="white" stop-opacity="0.5"/>
<stop offset="1" stop-color="white" stop-opacity="0.9"/>
</linearGradient>
<linearGradient id="paint18_linear_961_6072" x1="65.5468" y1="53.6425" x2="72.1428" y2="53.6425" gradientUnits="userSpaceOnUse">
<stop stop-color="white" stop-opacity="0.9"/>
<stop offset="0.04" stop-color="white" stop-opacity="0.85"/>
<stop offset="0.28" stop-color="white" stop-opacity="0.5"/>
<stop offset="0.65" stop-color="#FAFBFC" stop-opacity="0.4"/>
<stop offset="1" stop-color="#F0EFEF" stop-opacity="0.3"/>
</linearGradient>
<linearGradient id="paint19_linear_961_6072" x1="63.3387" y1="48.297" x2="63.8606" y2="48.9301" gradientUnits="userSpaceOnUse">
<stop stop-color="#F0EFEF" stop-opacity="0"/>
<stop offset="0.614562" stop-color="#FAFBFC" stop-opacity="0.4"/>
<stop offset="0.848709" stop-color="white" stop-opacity="0.5"/>
<stop offset="1" stop-color="white" stop-opacity="0.9"/>
</linearGradient>
<linearGradient id="paint20_linear_961_6072" x1="67.1994" y1="50.9641" x2="72.6637" y2="54.6035" gradientUnits="userSpaceOnUse">
<stop stop-color="#F0EFEF" stop-opacity="0"/>
<stop offset="0.614562" stop-color="#FAFBFC" stop-opacity="0.4"/>
<stop offset="0.848709" stop-color="white" stop-opacity="0.5"/>
<stop offset="1" stop-color="white" stop-opacity="0.9"/>
</linearGradient>
<linearGradient id="paint21_linear_961_6072" x1="40.039" y1="42.1698" x2="40.039" y2="14.7347" gradientUnits="userSpaceOnUse">
<stop stop-color="#79A540"/>
<stop offset="0.2" stop-color="#94C63D"/>
<stop offset="0.39" stop-color="#98CA3C"/>
<stop offset="0.59" stop-color="#93C53E"/>
<stop offset="0.74" stop-color="#9DCB3B"/>
<stop offset="0.9" stop-color="#A6CE39"/>
<stop offset="1" stop-color="#A6CE39"/>
</linearGradient>
<linearGradient id="paint22_linear_961_6072" x1="40.039" y1="42.2158" x2="40.039" y2="14.6887" gradientUnits="userSpaceOnUse">
<stop stop-color="white" stop-opacity="0.9"/>
<stop offset="0.28" stop-color="white" stop-opacity="0.5"/>
<stop offset="0.65" stop-color="#FAFBFC" stop-opacity="0.4"/>
<stop offset="1" stop-color="#F0EFEF" stop-opacity="0.3"/>
</linearGradient>
</defs>
</svg>
