<svg width="97" height="82" viewBox="0 0 97 82" fill="none" xmlns="http://www.w3.org/2000/svg">
<path d="M90.2198 78.5657L81.4921 69.8073C84.0284 66.7639 85.2936 62.8598 85.0245 58.9073C84.7554 54.9547 82.9728 51.2581 80.0474 48.5866C77.1221 45.915 73.2793 44.4743 69.3186 44.564C65.358 44.6538 61.5844 46.2672 58.7831 49.0685C55.9817 51.8698 54.3684 55.6434 54.2786 59.604C54.1889 63.5647 55.6296 67.4075 58.3012 70.3328C60.9727 73.2582 64.6693 75.0408 68.6218 75.3099C72.5744 75.579 76.4785 74.3138 79.5218 71.7775L88.2495 80.5822C88.3773 80.7144 88.5303 80.8195 88.6996 80.8913C88.8688 80.9631 89.0508 81.0001 89.2347 81.0001C89.4185 81.0001 89.6005 80.9631 89.7697 80.8913C89.939 80.8195 90.092 80.7144 90.2198 80.5822C90.348 80.4527 90.4522 80.3016 90.5276 80.1358C90.5903 79.9631 90.6216 79.7807 90.62 79.597C90.6198 79.4185 90.5885 79.2414 90.5276 79.0737C90.4529 78.889 90.3489 78.7175 90.2198 78.5657ZM57.1716 60.0945C57.1747 57.6176 57.9117 55.1973 59.2897 53.1391C60.6676 51.081 62.6246 49.4774 64.9135 48.531C67.2024 47.5846 69.7204 47.3377 72.1495 47.8217C74.5786 48.3057 76.8097 49.4987 78.5611 51.2501C80.3125 53.0014 81.5055 55.2326 81.9894 57.6617C82.4734 60.0908 82.2266 62.6088 81.2801 64.8976C80.3337 67.1865 78.7301 69.1435 76.672 70.5215C74.6139 71.8994 72.1935 72.6365 69.7167 72.6395C66.3931 72.6238 63.2089 71.3025 60.8505 68.9607C59.6791 67.7917 58.7509 66.4022 58.1195 64.8725C57.488 63.3428 57.1659 61.7032 57.1716 60.0483V60.0945Z" fill="url(#paint0_linear_900_13111)"/>
<path d="M76.3667 63.5115C75.6433 61.5258 71.7489 60.7254 71.4718 60.6638V59.4478C72.0209 58.9941 72.4599 58.4218 72.7559 57.7739C73.0518 57.126 73.197 56.4195 73.1804 55.7074C73.2801 55.1616 73.2586 54.6005 73.1174 54.0639C72.9762 53.5273 72.7188 53.0283 72.3634 52.6021C72.0081 52.176 71.5634 51.8332 71.0609 51.5979C70.5583 51.3627 70.0102 51.2407 69.4554 51.2407C68.9005 51.2407 68.3524 51.3627 67.8499 51.5979C67.3474 51.8332 66.9027 52.176 66.5473 52.6021C66.192 53.0283 65.9346 53.5273 65.7934 54.0639C65.6522 54.6005 65.6307 55.1616 65.7303 55.7074C65.7138 56.4195 65.8589 57.126 66.1549 57.7739C66.4508 58.4218 66.8899 58.9941 67.4389 59.4478V60.5715C67.4389 60.5715 63.0982 61.4643 62.3593 63.4653C62.1889 63.891 62.1565 64.3595 62.267 64.8045C62.3717 65.1056 62.538 65.3816 62.7553 65.6148C62.9727 65.848 63.2362 66.0334 63.5292 66.159C65.4199 66.7656 67.3804 67.1277 69.363 67.2365C71.3506 67.127 73.3161 66.7649 75.2123 66.159C75.5037 66.031 75.766 65.8448 75.983 65.6119C76.2001 65.379 76.3673 65.1043 76.4745 64.8045C76.5722 64.3727 76.5346 63.9212 76.3667 63.5115Z" fill="url(#paint1_linear_900_13111)"/>
<path d="M90.2198 78.5657L81.4921 69.8073C84.0284 66.7639 85.2936 62.8598 85.0245 58.9073C84.7554 54.9547 82.9728 51.2581 80.0474 48.5866C77.1221 45.915 73.2793 44.4743 69.3186 44.564C65.358 44.6538 61.5844 46.2672 58.7831 49.0685C55.9817 51.8698 54.3684 55.6434 54.2786 59.604C54.1889 63.5647 55.6296 67.4075 58.3012 70.3328C60.9727 73.2582 64.6693 75.0408 68.6218 75.3099C72.5744 75.579 76.4785 74.3138 79.5218 71.7775L88.2495 80.5822C88.3773 80.7144 88.5303 80.8195 88.6996 80.8913C88.8688 80.9631 89.0508 81.0001 89.2347 81.0001C89.4185 81.0001 89.6005 80.9631 89.7697 80.8913C89.939 80.8195 90.092 80.7144 90.2198 80.5822C90.348 80.4527 90.4522 80.3016 90.5276 80.1358C90.5903 79.9631 90.6216 79.7807 90.62 79.597C90.6198 79.4185 90.5885 79.2414 90.5276 79.0737C90.4529 78.889 90.3489 78.7175 90.2198 78.5657ZM57.1716 60.0945C57.1747 57.6176 57.9117 55.1973 59.2897 53.1391C60.6676 51.081 62.6246 49.4774 64.9135 48.531C67.2024 47.5846 69.7204 47.3377 72.1495 47.8217C74.5786 48.3057 76.8097 49.4987 78.5611 51.2501C80.3125 53.0014 81.5055 55.2326 81.9894 57.6617C82.4734 60.0908 82.2266 62.6088 81.2801 64.8976C80.3337 67.1865 78.7301 69.1435 76.672 70.5215C74.6139 71.8994 72.1935 72.6365 69.7167 72.6395C66.3931 72.6238 63.2089 71.3025 60.8505 68.9607C59.6791 67.7917 58.7509 66.4022 58.1195 64.8725C57.488 63.3428 57.1659 61.7032 57.1716 60.0483V60.0945Z" stroke="url(#paint2_linear_900_13111)" stroke-width="0.1" stroke-miterlimit="10"/>
<path d="M76.3667 63.5115C75.6433 61.5258 71.7489 60.7254 71.4718 60.6638V59.4478C72.0209 58.9941 72.4599 58.4218 72.7559 57.7739C73.0518 57.126 73.197 56.4195 73.1804 55.7074C73.2801 55.1616 73.2586 54.6005 73.1174 54.0639C72.9762 53.5273 72.7188 53.0283 72.3634 52.6021C72.0081 52.176 71.5634 51.8332 71.0609 51.5979C70.5583 51.3627 70.0102 51.2407 69.4554 51.2407C68.9005 51.2407 68.3524 51.3627 67.8499 51.5979C67.3474 51.8332 66.9027 52.176 66.5473 52.6021C66.192 53.0283 65.9346 53.5273 65.7934 54.0639C65.6522 54.6005 65.6307 55.1616 65.7303 55.7074C65.7138 56.4195 65.8589 57.126 66.1549 57.7739C66.4508 58.4218 66.8899 58.9941 67.4389 59.4478V60.5715C67.4389 60.5715 63.0982 61.4643 62.3593 63.4653C62.1889 63.891 62.1565 64.3595 62.267 64.8045C62.3717 65.1056 62.538 65.3816 62.7553 65.6148C62.9727 65.848 63.2362 66.0334 63.5292 66.159C65.4199 66.7656 67.3804 67.1277 69.363 67.2365C71.3506 67.127 73.3161 66.7649 75.2123 66.159C75.5037 66.031 75.766 65.8448 75.983 65.6119C76.2001 65.379 76.3673 65.1043 76.4745 64.8045C76.5722 64.3727 76.5346 63.9212 76.3667 63.5115Z" stroke="url(#paint3_linear_900_13111)" stroke-width="0.1" stroke-miterlimit="10"/>
<path d="M95.3763 9.3757C94.9095 8.89533 94.3523 8.51203 93.7368 8.24785C93.1212 7.98368 92.4595 7.84386 91.7898 7.83643H35.4371L37.1303 10.7764H91.7744C92.0601 10.7735 92.3435 10.8279 92.6079 10.9362C92.8722 11.0446 93.1122 11.2049 93.3136 11.4075C93.5192 11.6068 93.6814 11.8464 93.79 12.1113C93.8986 12.3761 93.9513 12.6606 93.9447 12.9468V18.8114H41.7327L42.5177 20.1968C42.9823 20.8016 43.2567 21.5309 43.306 22.2921C43.3553 23.0532 43.1773 23.8118 42.7947 24.4716C42.412 25.1313 41.8419 25.6625 41.1568 25.9977C40.4716 26.3328 39.7023 26.4568 38.9466 26.3539H19.3979C18.7102 26.3763 18.0294 26.2117 17.4279 25.8777C16.8264 25.5437 16.3268 25.0527 15.9824 24.4571C15.638 23.8615 15.4617 23.1836 15.4722 22.4957C15.4828 21.8078 15.6798 21.1356 16.0422 20.5508C16.062 20.5016 16.0878 20.455 16.1192 20.4123L17.0274 18.873H7.43772V12.9622C7.43121 12.676 7.48391 12.3915 7.59251 12.1266C7.70111 11.8618 7.86327 11.6222 8.06882 11.4229C8.27025 11.2203 8.51023 11.06 8.7746 10.9516C9.03897 10.8433 9.32238 10.7889 9.60809 10.7918H21.7068L23.4 7.85182H9.54652C8.87889 7.84978 8.21744 7.97978 7.60024 8.23434C6.98304 8.48889 6.42226 8.86297 5.95017 9.33506C5.47808 9.80715 5.104 10.3679 4.84945 10.9851C4.59489 11.6023 4.46489 12.2638 4.46693 12.9314V61.5724C4.45876 62.2479 4.58503 62.9183 4.83838 63.5446C5.09173 64.1709 5.46711 64.7406 5.94267 65.2204C6.41824 65.7003 6.98449 66.0808 7.60847 66.3398C8.23246 66.5987 8.90171 66.731 9.5773 66.7289H55.8632C55.4143 65.7875 55.0635 64.8023 54.8165 63.7889H9.5773C9.29159 63.7918 9.00819 63.7375 8.74382 63.6291C8.47945 63.5207 8.23947 63.3605 8.03803 63.1578C7.83248 62.9586 7.67033 62.719 7.56173 62.4541C7.45313 62.1892 7.40042 61.9048 7.40693 61.6186V33.4345H93.9294V61.6032C93.9323 61.8889 93.8779 62.1723 93.7695 62.4366C93.6611 62.701 93.5009 62.941 93.2983 63.1424C93.0958 63.3437 92.8556 63.503 92.5915 63.6113C92.3274 63.7196 92.0445 63.7747 91.759 63.7735H84.5706C84.3097 64.7897 83.9541 65.7792 83.5085 66.7289H91.7898C93.1357 66.7208 94.4237 66.1804 95.3726 65.2258C96.3214 64.2712 96.854 62.9799 96.854 61.6339V12.9622C96.8552 11.6183 96.3239 10.3286 95.3763 9.3757Z" fill="url(#paint4_linear_900_13111)"/>
<path d="M95.3763 9.3757C94.9095 8.89533 94.3523 8.51203 93.7368 8.24785C93.1212 7.98368 92.4595 7.84386 91.7898 7.83643H35.4371L37.1303 10.7764H91.7744C92.0601 10.7735 92.3435 10.8279 92.6079 10.9362C92.8722 11.0446 93.1122 11.2049 93.3136 11.4075C93.5192 11.6068 93.6814 11.8464 93.79 12.1113C93.8986 12.3761 93.9513 12.6606 93.9447 12.9468V18.8114H41.7327L42.5177 20.1968C42.9823 20.8016 43.2567 21.5309 43.306 22.2921C43.3553 23.0532 43.1773 23.8118 42.7947 24.4716C42.412 25.1313 41.8419 25.6625 41.1568 25.9977C40.4716 26.3328 39.7023 26.4568 38.9466 26.3539H19.3979C18.7102 26.3763 18.0294 26.2117 17.4279 25.8777C16.8264 25.5437 16.3268 25.0527 15.9824 24.4571C15.638 23.8615 15.4617 23.1836 15.4722 22.4957C15.4828 21.8078 15.6798 21.1356 16.0422 20.5508C16.062 20.5016 16.0878 20.455 16.1192 20.4123L17.0274 18.873H7.43772V12.9622C7.43121 12.676 7.48391 12.3915 7.59251 12.1266C7.70111 11.8618 7.86327 11.6222 8.06882 11.4229C8.27025 11.2203 8.51023 11.06 8.7746 10.9516C9.03897 10.8433 9.32238 10.7889 9.60809 10.7918H21.7068L23.4 7.85182H9.54652C8.87889 7.84978 8.21744 7.97978 7.60024 8.23434C6.98304 8.48889 6.42226 8.86297 5.95017 9.33506C5.47808 9.80715 5.104 10.3679 4.84945 10.9851C4.59489 11.6023 4.46489 12.2638 4.46693 12.9314V61.5724C4.45876 62.2479 4.58503 62.9183 4.83838 63.5446C5.09173 64.1709 5.46711 64.7406 5.94267 65.2204C6.41824 65.7003 6.98449 66.0808 7.60847 66.3398C8.23246 66.5987 8.90171 66.731 9.5773 66.7289H55.8632C55.4143 65.7875 55.0635 64.8023 54.8165 63.7889H9.5773C9.29159 63.7918 9.00819 63.7375 8.74382 63.6291C8.47945 63.5207 8.23947 63.3605 8.03803 63.1578C7.83248 62.9586 7.67033 62.719 7.56173 62.4541C7.45313 62.1892 7.40042 61.9048 7.40693 61.6186V33.4345H93.9294V61.6032C93.9323 61.8889 93.8779 62.1723 93.7695 62.4366C93.6611 62.701 93.5009 62.941 93.2983 63.1424C93.0958 63.3437 92.8556 63.503 92.5915 63.6113C92.3274 63.7196 92.0445 63.7747 91.759 63.7735H84.5706C84.3097 64.7897 83.9541 65.7792 83.5085 66.7289H91.7898C93.1357 66.7208 94.4237 66.1804 95.3726 65.2258C96.3214 64.2712 96.854 62.9799 96.854 61.6339V12.9622C96.8552 11.6183 96.3239 10.3286 95.3763 9.3757Z" stroke="url(#paint5_linear_900_13111)" stroke-width="0.1" stroke-miterlimit="10"/>
<path d="M25.678 3.3724C27.5251 0.216899 31.0347 0.201507 32.8818 3.3724V3.48015L42.3483 19.9196C42.8129 20.5244 43.0873 21.2537 43.1366 22.0149C43.1859 22.776 43.008 23.5346 42.6253 24.1944C42.2426 24.8541 41.6725 25.3853 40.9874 25.7205C40.3022 26.0556 39.5329 26.1796 38.7772 26.0766H19.2746C16.1191 26.0766 14.6568 23.152 15.9344 20.3044C15.9344 20.3044 15.9344 20.3044 15.9344 20.1812L25.6318 3.43398L25.678 3.3724Z" stroke="url(#paint6_linear_900_13111)" stroke-width="1.33"/>
<path d="M29.0185 19.3807C28.7845 19.4305 28.5703 19.5483 28.4028 19.7193C28.2991 19.8147 28.2154 19.9299 28.1566 20.058C28.0344 20.375 28.0344 20.7261 28.1566 21.0431C28.2138 21.1984 28.3029 21.3399 28.4182 21.4587C28.5271 21.586 28.6641 21.6861 28.8184 21.7512C28.9757 21.8316 29.1498 21.8737 29.3264 21.8743C29.5705 21.8828 29.8116 21.8185 30.0191 21.6896C30.2243 21.5569 30.3893 21.3706 30.4962 21.1508C30.6028 20.9146 30.635 20.6516 30.5886 20.3966C30.5389 20.149 30.4217 19.9199 30.25 19.7347C30.1199 19.6039 29.9621 19.5039 29.7882 19.4422C29.5457 19.3364 29.2748 19.3147 29.0185 19.3807Z" fill="url(#paint7_linear_900_13111)"/>
<path d="M28.3564 16.4254C28.3564 17.5029 30.2189 17.5029 30.2497 16.4254L30.8808 8.72904C30.8808 8.1749 30.419 7.85165 29.8341 7.72851C29.4687 7.65169 29.0913 7.65169 28.7259 7.72851C28.1563 7.85165 27.7099 8.1749 27.6945 8.69825C27.6638 10.453 28.1409 14.5783 28.3564 16.4254Z" fill="url(#paint8_linear_900_13111)"/>
<path d="M29.0185 19.3807C28.7845 19.4305 28.5703 19.5483 28.4028 19.7193C28.2991 19.8147 28.2154 19.9299 28.1566 20.058C28.0344 20.375 28.0344 20.7261 28.1566 21.0431C28.2138 21.1984 28.3029 21.3399 28.4182 21.4587C28.5271 21.586 28.6641 21.6861 28.8184 21.7512C28.9757 21.8316 29.1498 21.8737 29.3264 21.8743C29.5705 21.8828 29.8116 21.8185 30.0191 21.6896C30.2243 21.5569 30.3893 21.3706 30.4962 21.1508C30.6028 20.9146 30.635 20.6516 30.5886 20.3966C30.5389 20.149 30.4217 19.9199 30.25 19.7347C30.1199 19.6039 29.9621 19.5039 29.7882 19.4422C29.5457 19.3364 29.2748 19.3147 29.0185 19.3807Z" stroke="url(#paint9_linear_900_13111)" stroke-width="0.1" stroke-miterlimit="10"/>
<path d="M28.3564 16.4254C28.3564 17.5029 30.2189 17.5029 30.2497 16.4254L30.8808 8.72904C30.8808 8.1749 30.419 7.85165 29.8341 7.72851C29.4687 7.65169 29.0913 7.65169 28.7259 7.72851C28.1563 7.85165 27.7099 8.1749 27.6945 8.69825C27.6638 10.453 28.1409 14.5783 28.3564 16.4254Z" stroke="url(#paint10_linear_900_13111)" stroke-width="0.1" stroke-miterlimit="10"/>
<path d="M8.35383 11.6555C8.35383 15.7815 7.96115 19.1335 7.47741 19.1335C6.99367 19.1335 6.5896 15.7815 6.5896 11.6555C6.5896 7.52946 6.99936 4.2002 7.47741 4.2002C7.95545 4.2002 8.35383 7.52377 8.35383 11.6555Z" fill="url(#paint11_radial_900_13111)"/>
<path d="M7.47807 12.5206C3.35205 12.5206 1.51988e-05 12.1279 1.522e-05 11.6442C1.52411e-05 11.1604 3.35205 10.7563 7.47807 10.7563C11.6041 10.7563 14.9333 11.1661 14.9333 11.6442C14.9333 12.1222 11.6098 12.5206 7.47807 12.5206Z" fill="url(#paint12_radial_900_13111)"/>
<path d="M68.3538 45.4553C68.3538 49.5813 67.9611 52.9333 67.4774 52.9333C66.9937 52.9333 66.5896 49.5813 66.5896 45.4553C66.5896 41.3293 66.9994 38 67.4774 38C67.9555 38 68.3538 41.3236 68.3538 45.4553Z" fill="url(#paint13_radial_900_13111)"/>
<path d="M67.4781 46.3199C63.352 46.3199 60 45.9272 60 45.4435C60 44.9597 63.352 44.5557 67.4781 44.5557C71.6041 44.5557 74.9333 44.9654 74.9333 45.4435C74.9333 45.9215 71.6098 46.3199 67.4781 46.3199Z" fill="url(#paint14_radial_900_13111)"/>
<defs>
<linearGradient id="paint0_linear_900_13111" x1="54.3548" y1="62.8036" x2="90.62" y2="62.8036" gradientUnits="userSpaceOnUse">
<stop stop-color="#79A540"/>
<stop offset="0.2" stop-color="#94C63D"/>
<stop offset="0.39" stop-color="#98CA3C"/>
<stop offset="0.59" stop-color="#93C53E"/>
<stop offset="0.74" stop-color="#9DCB3B"/>
<stop offset="0.9" stop-color="#A6CE39"/>
<stop offset="1" stop-color="#A6CE39"/>
</linearGradient>
<linearGradient id="paint1_linear_900_13111" x1="62.19" y1="59.2631" x2="76.536" y2="59.2631" gradientUnits="userSpaceOnUse">
<stop stop-color="#79A540"/>
<stop offset="0.2" stop-color="#94C63D"/>
<stop offset="0.39" stop-color="#98CA3C"/>
<stop offset="0.59" stop-color="#93C53E"/>
<stop offset="0.74" stop-color="#9DCB3B"/>
<stop offset="0.9" stop-color="#A6CE39"/>
<stop offset="1" stop-color="#A6CE39"/>
</linearGradient>
<linearGradient id="paint2_linear_900_13111" x1="54.2778" y1="62.8036" x2="90.697" y2="62.8036" gradientUnits="userSpaceOnUse">
<stop stop-color="white" stop-opacity="0.9"/>
<stop offset="0.28" stop-color="white" stop-opacity="0.5"/>
<stop offset="0.65" stop-color="#FAFBFC" stop-opacity="0.4"/>
<stop offset="1" stop-color="#F0EFEF" stop-opacity="0.3"/>
</linearGradient>
<linearGradient id="paint3_linear_900_13111" x1="62.1131" y1="59.2631" x2="76.613" y2="59.2631" gradientUnits="userSpaceOnUse">
<stop stop-color="white" stop-opacity="0.9"/>
<stop offset="0.28" stop-color="white" stop-opacity="0.5"/>
<stop offset="0.65" stop-color="#FAFBFC" stop-opacity="0.4"/>
<stop offset="1" stop-color="#F0EFEF" stop-opacity="0.3"/>
</linearGradient>
<linearGradient id="paint4_linear_900_13111" x1="91.5" y1="69.0002" x2="16.5" y2="8.00024" gradientUnits="userSpaceOnUse">
<stop stop-color="white" stop-opacity="0.9"/>
<stop offset="0.04" stop-color="white" stop-opacity="0.85"/>
<stop offset="0.28" stop-color="white" stop-opacity="0.5"/>
<stop offset="0.65" stop-color="#FAFBFC" stop-opacity="0.4"/>
<stop offset="1" stop-color="#F0EFEF" stop-opacity="0.3"/>
</linearGradient>
<linearGradient id="paint5_linear_900_13111" x1="24" y1="19.0002" x2="85.5" y2="67.0002" gradientUnits="userSpaceOnUse">
<stop stop-color="#F0EFEF" stop-opacity="0"/>
<stop offset="0.35" stop-color="#FAFBFC" stop-opacity="0.4"/>
<stop offset="0.72" stop-color="white" stop-opacity="0.5"/>
<stop offset="1" stop-color="white" stop-opacity="0.9"/>
</linearGradient>
<linearGradient id="paint6_linear_900_13111" x1="29.2799" y1="26.0305" x2="29.2799" y2="1.00193" gradientUnits="userSpaceOnUse">
<stop stop-color="#79A540"/>
<stop offset="0.2" stop-color="#94C63F"/>
<stop offset="0.39" stop-color="#99CA3E"/>
<stop offset="0.59" stop-color="#93C53F"/>
<stop offset="0.74" stop-color="#9DCB3B"/>
<stop offset="0.9" stop-color="#A5CE3A"/>
<stop offset="1" stop-color="#A5CE3A"/>
</linearGradient>
<linearGradient id="paint7_linear_900_13111" x1="29.2648" y1="26.0303" x2="29.2648" y2="1.00178" gradientUnits="userSpaceOnUse">
<stop stop-color="#79A540"/>
<stop offset="0.2" stop-color="#94C63F"/>
<stop offset="0.39" stop-color="#99CA3E"/>
<stop offset="0.59" stop-color="#93C53F"/>
<stop offset="0.74" stop-color="#9DCB3B"/>
<stop offset="0.9" stop-color="#A5CE3A"/>
<stop offset="1" stop-color="#A5CE3A"/>
</linearGradient>
<linearGradient id="paint8_linear_900_13111" x1="29.28" y1="26.0304" x2="29.28" y2="1.0019" gradientUnits="userSpaceOnUse">
<stop stop-color="#79A540"/>
<stop offset="0.2" stop-color="#94C63F"/>
<stop offset="0.39" stop-color="#99CA3E"/>
<stop offset="0.59" stop-color="#93C53F"/>
<stop offset="0.74" stop-color="#9DCB3B"/>
<stop offset="0.9" stop-color="#A5CE3A"/>
<stop offset="1" stop-color="#A5CE3A"/>
</linearGradient>
<linearGradient id="paint9_linear_900_13111" x1="29.2648" y1="19.2729" x2="29.2648" y2="21.9513" gradientUnits="userSpaceOnUse">
<stop stop-color="white" stop-opacity="0.9"/>
<stop offset="0.28" stop-color="white" stop-opacity="0.5"/>
<stop offset="0.65" stop-color="#FAFBFC" stop-opacity="0.4"/>
<stop offset="1" stop-color="#F0EFEF" stop-opacity="0.3"/>
</linearGradient>
<linearGradient id="paint10_linear_900_13111" x1="29.28" y1="7.60537" x2="29.28" y2="17.3028" gradientUnits="userSpaceOnUse">
<stop stop-color="white" stop-opacity="0.9"/>
<stop offset="0.28" stop-color="white" stop-opacity="0.5"/>
<stop offset="0.65" stop-color="#FAFBFC" stop-opacity="0.4"/>
<stop offset="1" stop-color="#F0EFEF" stop-opacity="0.3"/>
</linearGradient>
<radialGradient id="paint11_radial_900_13111" cx="0" cy="0" r="1" gradientUnits="userSpaceOnUse" gradientTransform="translate(7.33718 12.2009) scale(0.87278 7.48328)">
<stop stop-color="white"/>
<stop offset="0.07" stop-color="white" stop-opacity="0.93"/>
<stop offset="1" stop-color="white" stop-opacity="0"/>
</radialGradient>
<radialGradient id="paint12_radial_900_13111" cx="0" cy="0" r="1" gradientUnits="userSpaceOnUse" gradientTransform="translate(6.93263 11.5039) rotate(90) scale(0.87278 7.48328)">
<stop stop-color="white"/>
<stop offset="0.07" stop-color="white" stop-opacity="0.93"/>
<stop offset="1" stop-color="white" stop-opacity="0"/>
</radialGradient>
<radialGradient id="paint13_radial_900_13111" cx="0" cy="0" r="1" gradientUnits="userSpaceOnUse" gradientTransform="translate(67.3372 46.0007) scale(0.87278 7.48328)">
<stop stop-color="white"/>
<stop offset="0.07" stop-color="white" stop-opacity="0.93"/>
<stop offset="1" stop-color="white" stop-opacity="0"/>
</radialGradient>
<radialGradient id="paint14_radial_900_13111" cx="0" cy="0" r="1" gradientUnits="userSpaceOnUse" gradientTransform="translate(66.9326 45.3032) rotate(90) scale(0.87278 7.48328)">
<stop stop-color="white"/>
<stop offset="0.07" stop-color="white" stop-opacity="0.93"/>
<stop offset="1" stop-color="white" stop-opacity="0"/>
</radialGradient>
</defs>
</svg>
