<svg width="80" height="80" viewBox="0 0 80 80" fill="none" xmlns="http://www.w3.org/2000/svg">
<g clip-path="url(#clip0_1005_6183)">
<path d="M28.1599 19.2899C28.2399 19.2499 28.2999 19.1799 28.3499 19.1099L29.6699 17.0599V16.9399L28.1599 19.2899Z" fill="url(#paint0_linear_1005_6183)"/>
<path d="M32.3701 18.36L30.3301 21.45L32.4401 18.27C32.4401 18.27 32.3701 18.32 32.3601 18.36H32.3701ZM35.6001 21.46L34.2801 23.51C34.2801 23.51 34.2201 23.61 34.2001 23.67L35.7701 21.29C35.7001 21.33 35.6401 21.39 35.6001 21.46Z" fill="url(#paint1_linear_1005_6183)"/>
<path d="M34.3401 20.6399L33.0201 22.6999L32.8701 22.9999L34.6301 20.3599C34.5301 20.4399 34.4301 20.5399 34.3401 20.6399Z" fill="url(#paint2_linear_1005_6183)"/>
<path d="M29.3301 20.23C29.4201 20.13 29.5101 20.02 29.5801 19.9L30.9001 17.86V17.75L29.3301 20.22V20.23Z" fill="url(#paint3_linear_1005_6183)"/>
<path d="M28.1599 19.2899C28.2399 19.2499 28.2999 19.1799 28.3499 19.1099L29.6699 17.0599V16.9399L28.1599 19.2899Z" stroke="url(#paint4_linear_1005_6183)" stroke-width="0.25" stroke-miterlimit="10"/>
<path d="M32.3701 18.36L30.3301 21.45L32.4401 18.27C32.4401 18.27 32.3701 18.32 32.3601 18.36H32.3701ZM35.6001 21.46L34.2801 23.51C34.2801 23.51 34.2201 23.61 34.2001 23.67L35.7701 21.29C35.7001 21.33 35.6401 21.39 35.6001 21.46Z" stroke="url(#paint5_linear_1005_6183)" stroke-width="0.25" stroke-miterlimit="10"/>
<path d="M34.3401 20.6399L33.0201 22.6999L32.8701 22.9999L34.6301 20.3599C34.5301 20.4399 34.4301 20.5399 34.3401 20.6399Z" stroke="url(#paint6_linear_1005_6183)" stroke-width="0.25" stroke-miterlimit="10"/>
<path d="M61.8199 12.7301L54.0299 0.500117C53.9599 0.390117 53.8699 0.310117 53.7599 0.240117C53.6499 0.180117 53.5299 0.140117 53.3999 0.140117C53.2599 0.140117 53.1299 0.190117 53.0199 0.260117L48.9399 2.77012C48.8599 2.82012 48.7799 2.89012 48.7299 2.97012C48.6699 3.05012 48.6299 3.14012 48.6099 3.23012C48.5899 3.32012 48.5799 3.42012 48.6099 3.52012C48.6299 3.62012 48.6599 3.71012 48.7199 3.79012L49.3099 4.69012L48.4099 5.14012C48.2399 5.21012 48.0499 5.21012 47.8799 5.14012L43.5799 3.96012C43.2499 3.87012 42.9099 3.82012 42.5599 3.81012H37.8899C37.3099 3.81012 36.7499 3.94012 36.2299 4.19012C35.7199 4.45012 35.2699 4.82012 34.9299 5.29012H32.7399L30.9199 4.39012L31.3399 3.77012C31.4499 3.60012 31.4799 3.40012 31.4399 3.21012C31.3999 3.02012 31.2799 2.85012 31.1199 2.74012L27.0299 0.240117C26.9099 0.160117 26.7699 0.120117 26.6199 0.120117C26.4999 0.120117 26.3799 0.170117 26.2799 0.230117C26.1799 0.290117 26.0899 0.380117 26.0199 0.480117L18.1999 12.7001C18.0899 12.8701 18.0599 13.0701 18.0999 13.2601C18.1399 13.4501 18.2599 13.6201 18.4199 13.7301L22.4999 15.9501C22.6599 16.0401 22.8499 16.0701 23.0399 16.0201C23.2199 15.9801 23.3799 15.8601 23.4799 15.7101L24.4399 14.2301L26.5399 16.3301L25.7299 17.5901C25.4199 18.0901 25.3099 18.7001 25.4399 19.2701C25.5699 19.8501 25.9099 20.3501 26.3999 20.6801C26.6799 20.8501 26.9799 20.9601 27.2999 21.0101C27.2599 21.4301 27.3399 21.8501 27.5299 22.2201C27.7199 22.5901 28.0099 22.9101 28.3699 23.1201H28.4499C28.9299 23.4201 29.4999 23.5301 30.0499 23.4201C30.1299 23.7001 30.2699 23.9701 30.4599 24.1901C30.6499 24.4201 30.8699 24.6101 31.1299 24.7501C31.3899 24.8901 31.6699 24.9701 31.9699 25.0001C32.2599 25.0301 32.5599 25.0001 32.8399 24.9101C32.9999 25.2701 33.2599 25.5801 33.5799 25.8001C33.8999 26.0301 34.2799 26.1601 34.6699 26.2001C35.0599 26.2301 35.4599 26.1601 35.8099 25.9901C36.1599 25.8201 36.4699 25.5601 36.6899 25.2301L36.8599 24.9801L41.1599 26.6301C41.7099 26.8301 42.3099 26.8301 42.8599 26.6601C43.4099 26.4801 43.8899 26.1201 44.2199 25.6401L44.6999 24.9101C45.2599 25.0001 45.8399 24.9401 46.3699 24.7301C46.8999 24.5201 47.3599 24.1601 47.6999 23.7001L48.3499 22.7901C48.4199 22.7201 48.4599 22.6301 48.4699 22.5401C49.0599 22.3501 49.5699 21.9801 49.9199 21.4701L50.5299 20.6501C50.9399 20.6501 51.3499 20.5601 51.7199 20.3801C52.0899 20.2001 52.4199 19.9301 52.6699 19.6001C53.0199 19.1401 53.1999 18.5801 53.1999 18.0101C53.1999 17.4401 53.0099 16.8801 52.6699 16.4201L55.5099 14.4401L56.3799 15.7601C56.4799 15.9201 56.6399 16.0301 56.8199 16.0701C56.9999 16.1101 57.1899 16.0901 57.3599 16.0001L61.4399 13.7801C61.5399 13.7401 61.6199 13.6801 61.6899 13.6001C61.7599 13.5201 61.8199 13.4301 61.8499 13.3301C61.8799 13.2301 61.8999 13.1201 61.8899 13.0201C61.8899 12.9201 61.8499 12.8101 61.7999 12.7201L61.8199 12.7301ZM22.7199 14.3401L19.9299 12.8201L26.8999 1.88012L29.6999 3.60012L22.7199 14.3401ZM27.3099 19.4501C27.1499 19.3401 27.0299 19.1701 26.9899 18.9701C26.9499 18.7801 26.9899 18.5701 27.0999 18.4101L28.4199 16.3601C28.4699 16.2801 28.5399 16.2001 28.6199 16.1501C28.6999 16.0901 28.7899 16.0601 28.8899 16.0401C28.9899 16.0201 29.0799 16.0201 29.1799 16.0401C29.2799 16.0601 29.3599 16.1001 29.4399 16.1601C29.5699 16.2401 29.6799 16.3601 29.7399 16.5101C29.7999 16.6601 29.8099 16.8201 29.7699 16.9701V17.0901L28.4499 19.1401C28.4099 19.2201 28.3399 19.2801 28.2599 19.3201C28.1499 19.4601 27.9899 19.5501 27.8099 19.5701C27.6299 19.5901 27.4599 19.5501 27.3099 19.4501ZM30.3399 21.5701V21.6801C30.2899 21.7601 30.2199 21.8301 30.1399 21.8801C30.0599 21.9301 29.9699 21.9701 29.8799 21.9901C29.7899 22.0101 29.6899 22.0101 29.5999 21.9901C29.5099 21.9701 29.4199 21.9301 29.3399 21.8801H29.2499C29.1699 21.8301 29.0999 21.7701 29.0499 21.6901C28.9999 21.6101 28.9599 21.5301 28.9399 21.4301C28.9199 21.3401 28.9199 21.2401 28.9399 21.1501C28.9599 21.0601 28.9999 20.9701 29.0499 20.9001L29.3699 20.4201L30.9399 17.8401L31.9199 16.3501C31.9699 16.2701 32.0399 16.2001 32.1099 16.1401C32.1899 16.0901 32.2799 16.0501 32.3699 16.0301C32.4599 16.0101 32.5599 16.0101 32.6499 16.0301C32.7399 16.0501 32.8299 16.0901 32.9099 16.1501H32.9799C33.0599 16.2001 33.1299 16.2701 33.1899 16.3401C33.2399 16.4201 33.2799 16.5101 33.2999 16.6001C33.3199 16.6901 33.3199 16.7901 33.2999 16.8801C33.2799 16.9701 33.2399 17.0601 33.1899 17.1401L32.4199 18.3201L30.3299 21.5701H30.3399ZM32.8699 23.1301V23.2201C32.8199 23.3001 32.7499 23.3701 32.6699 23.4301C32.5899 23.4801 32.4999 23.5201 32.3999 23.5401C32.2999 23.5601 32.1999 23.5601 32.1099 23.5401C32.0099 23.5201 31.9199 23.4801 31.8399 23.4201C31.7599 23.3701 31.6799 23.3001 31.6299 23.2201C31.5699 23.1401 31.5399 23.0501 31.5199 22.9501C31.4999 22.8501 31.4999 22.7601 31.5199 22.6601C31.5399 22.5601 31.5799 22.4801 31.6399 22.4001L32.9599 20.2701L33.5899 19.2901L33.6699 19.2101C33.7799 19.0701 33.9499 18.9801 34.1199 18.9501C34.2999 18.9201 34.4799 18.9601 34.6299 19.0601C34.7999 19.1701 34.9099 19.3401 34.9499 19.5401C34.9899 19.7401 34.9499 19.9401 34.8399 20.1101L34.6299 20.4301L32.8599 23.1301H32.8699ZM36.8399 22.4101L35.5199 24.4501C35.4699 24.5301 35.3999 24.6101 35.3199 24.6601C35.2399 24.7201 35.1499 24.7601 35.0499 24.7801C34.9499 24.8001 34.8599 24.8001 34.7599 24.7801C34.6599 24.7601 34.5699 24.7201 34.4899 24.6601C34.3499 24.5801 34.2499 24.4601 34.1899 24.3101C34.1299 24.1601 34.1299 24.0001 34.1699 23.8501C34.1899 23.7901 34.2199 23.7401 34.2499 23.6901L35.5699 21.6401C35.6099 21.5701 35.6699 21.5101 35.7399 21.4701C35.8599 21.3701 36.0099 21.3201 36.1599 21.3201C36.3099 21.3201 36.4599 21.3701 36.5799 21.4701C36.7199 21.5701 36.8199 21.7201 36.8699 21.8801C36.9199 22.0401 36.8999 22.2201 36.8199 22.3801V22.4101H36.8399ZM51.5899 18.6901C51.4199 18.9101 51.1799 19.0601 50.9099 19.1101C50.6399 19.1601 50.3599 19.1101 50.1199 18.9701L44.1099 15.4201C43.9399 15.3201 43.7299 15.3001 43.5399 15.3501C43.3499 15.4001 43.1799 15.5301 43.0799 15.7001C42.9899 15.8701 42.9599 16.0701 43.0099 16.2501C43.0599 16.4401 43.1699 16.6001 43.3399 16.7001L49.1299 20.1601L48.7999 20.6201C48.5799 20.9301 48.2599 21.1401 47.8899 21.2101C47.5199 21.2801 47.1399 21.2101 46.8199 21.0001L42.6299 18.3601C42.5099 18.2801 42.3699 18.2301 42.2199 18.2401C42.0199 18.2401 41.8399 18.3301 41.6999 18.4701C41.5599 18.6101 41.4899 18.8001 41.4899 18.9901C41.4899 19.1101 41.5299 19.2401 41.5899 19.3401C41.6499 19.4501 41.7399 19.5401 41.8399 19.6101L46.0199 22.2501C46.2399 22.3901 46.4899 22.5001 46.7499 22.5501L46.5799 22.8001C46.3599 23.1201 46.0199 23.3401 45.6399 23.4301C45.2599 23.5101 44.8599 23.4501 44.5199 23.2501L41.1399 21.3201C41.0099 21.2501 40.8699 21.2101 40.7199 21.2101C40.5599 21.2201 40.4099 21.2901 40.2899 21.3901C40.1699 21.5001 40.0899 21.6401 40.0499 21.7901C40.0099 21.9401 40.0299 22.1101 40.0899 22.2601C40.1499 22.4101 40.2599 22.5301 40.3999 22.6101L43.3999 24.3101L43.0699 24.8001C42.9299 25.0101 42.7299 25.1701 42.4799 25.2501C42.2399 25.3201 41.9799 25.3101 41.7399 25.2101L37.7799 23.6901L38.0399 23.1101C38.3599 22.6201 38.4699 22.0201 38.3499 21.4401C38.2299 20.8701 37.8799 20.3601 37.3899 20.0401C37.0899 19.8601 36.7599 19.7401 36.4099 19.7001C36.4099 19.3301 36.3399 18.9701 36.1699 18.6501C36.0099 18.3201 35.7699 18.0401 35.4699 17.8301C35.2399 17.6701 34.9699 17.5701 34.6899 17.5301C34.8499 17.0701 34.8499 16.5701 34.6899 16.1101C34.5299 15.6501 34.2299 15.2501 33.8199 14.9801H33.7399C33.2499 14.6701 32.6599 14.5601 32.0899 14.6801C31.5599 14.7801 31.0899 15.0701 30.7699 15.5001C30.6199 15.2901 30.4299 15.1101 30.2199 14.9701C29.9699 14.8101 29.6999 14.7001 29.4099 14.6501C29.1199 14.6001 28.8299 14.6001 28.5399 14.6701C28.1499 14.7501 27.7899 14.9401 27.4999 15.2101L25.3499 13.0401L30.1099 5.65012L32.3699 6.77012H33.8099L31.1699 10.4201C31.0899 10.5301 31.0399 10.6601 31.0299 10.8001C31.0199 10.9401 31.0499 11.0701 31.1099 11.2001C31.1699 11.3201 31.2699 11.4201 31.3899 11.4901C31.5099 11.5601 31.6399 11.6001 31.7799 11.6001H35.5299C35.8899 11.6001 36.2499 11.5101 36.5699 11.3401C36.8899 11.1701 37.1599 10.9201 37.3599 10.6101L37.9699 9.72012C38.0399 9.62012 38.1299 9.53012 38.2399 9.47012C38.3499 9.41012 38.4699 9.38012 38.5899 9.38012H39.5699C39.7199 9.38012 39.8599 9.42012 39.9799 9.51012L51.3199 17.0701C51.4499 17.1501 51.5599 17.2601 51.6399 17.3801C51.7199 17.5101 51.7799 17.6501 51.8099 17.8001C51.8399 17.9501 51.8299 18.1001 51.7899 18.2501C51.7499 18.4001 51.6899 18.5401 51.5899 18.6501V18.6801V18.6901ZM51.5099 15.4201L40.7899 8.31012C40.4299 8.06012 39.9999 7.93012 39.5599 7.93012H38.5699C38.2099 7.93012 37.8499 8.02012 37.5299 8.19012C37.2099 8.36012 36.9399 8.61012 36.7399 8.92012L36.1299 9.82012C36.0699 9.92012 35.9799 10.0101 35.8699 10.0601C35.7599 10.1201 35.6399 10.1501 35.5199 10.1501H33.2999L36.0199 6.36012C36.2299 6.05012 36.4999 5.80012 36.8299 5.63012C37.1499 5.46012 37.5199 5.37012 37.8899 5.37012H42.5599C42.7699 5.37012 42.9699 5.40012 43.1699 5.46012L47.4099 6.68012C47.9399 6.83012 48.5099 6.78012 49.0099 6.53012L49.9899 6.04012L54.6799 13.2601L51.5199 15.4301L51.5099 15.4201ZM57.2999 14.3601L50.3199 3.59012L53.1199 1.87012L60.0799 12.8101L57.2899 14.3601H57.2999Z" fill="url(#paint7_linear_1005_6183)"/>
<path d="M61.8199 12.7301L54.0299 0.500117C53.9599 0.390117 53.8699 0.310117 53.7599 0.240117C53.6499 0.180117 53.5299 0.140117 53.3999 0.140117C53.2599 0.140117 53.1299 0.190117 53.0199 0.260117L48.9399 2.77012C48.8599 2.82012 48.7799 2.89012 48.7299 2.97012C48.6699 3.05012 48.6299 3.14012 48.6099 3.23012C48.5899 3.32012 48.5799 3.42012 48.6099 3.52012C48.6299 3.62012 48.6599 3.71012 48.7199 3.79012L49.3099 4.69012L48.4099 5.14012C48.2399 5.21012 48.0499 5.21012 47.8799 5.14012L43.5799 3.96012C43.2499 3.87012 42.9099 3.82012 42.5599 3.81012H37.8899C37.3099 3.81012 36.7499 3.94012 36.2299 4.19012C35.7199 4.45012 35.2699 4.82012 34.9299 5.29012H32.7399L30.9199 4.39012L31.3399 3.77012C31.4499 3.60012 31.4799 3.40012 31.4399 3.21012C31.3999 3.02012 31.2799 2.85012 31.1199 2.74012L27.0299 0.240117C26.9099 0.160117 26.7699 0.120117 26.6199 0.120117C26.4999 0.120117 26.3799 0.170117 26.2799 0.230117C26.1799 0.290117 26.0899 0.380117 26.0199 0.480117L18.1999 12.7001C18.0899 12.8701 18.0599 13.0701 18.0999 13.2601C18.1399 13.4501 18.2599 13.6201 18.4199 13.7301L22.4999 15.9501C22.6599 16.0401 22.8499 16.0701 23.0399 16.0201C23.2199 15.9801 23.3799 15.8601 23.4799 15.7101L24.4399 14.2301L26.5399 16.3301L25.7299 17.5901C25.4199 18.0901 25.3099 18.7001 25.4399 19.2701C25.5699 19.8501 25.9099 20.3501 26.3999 20.6801C26.6799 20.8501 26.9799 20.9601 27.2999 21.0101C27.2599 21.4301 27.3399 21.8501 27.5299 22.2201C27.7199 22.5901 28.0099 22.9101 28.3699 23.1201H28.4499C28.9299 23.4201 29.4999 23.5301 30.0499 23.4201C30.1299 23.7001 30.2699 23.9701 30.4599 24.1901C30.6499 24.4201 30.8699 24.6101 31.1299 24.7501C31.3899 24.8901 31.6699 24.9701 31.9699 25.0001C32.2599 25.0301 32.5599 25.0001 32.8399 24.9101C32.9999 25.2701 33.2599 25.5801 33.5799 25.8001C33.8999 26.0301 34.2799 26.1601 34.6699 26.2001C35.0599 26.2301 35.4599 26.1601 35.8099 25.9901C36.1599 25.8201 36.4699 25.5601 36.6899 25.2301L36.8599 24.9801L41.1599 26.6301C41.7099 26.8301 42.3099 26.8301 42.8599 26.6601C43.4099 26.4801 43.8899 26.1201 44.2199 25.6401L44.6999 24.9101C45.2599 25.0001 45.8399 24.9401 46.3699 24.7301C46.8999 24.5201 47.3599 24.1601 47.6999 23.7001L48.3499 22.7901C48.4199 22.7201 48.4599 22.6301 48.4699 22.5401C49.0599 22.3501 49.5699 21.9801 49.9199 21.4701L50.5299 20.6501C50.9399 20.6501 51.3499 20.5601 51.7199 20.3801C52.0899 20.2001 52.4199 19.9301 52.6699 19.6001C53.0199 19.1401 53.1999 18.5801 53.1999 18.0101C53.1999 17.4401 53.0099 16.8801 52.6699 16.4201L55.5099 14.4401L56.3799 15.7601C56.4799 15.9201 56.6399 16.0301 56.8199 16.0701C56.9999 16.1101 57.1899 16.0901 57.3599 16.0001L61.4399 13.7801C61.5399 13.7401 61.6199 13.6801 61.6899 13.6001C61.7599 13.5201 61.8199 13.4301 61.8499 13.3301C61.8799 13.2301 61.8999 13.1201 61.8899 13.0201C61.8899 12.9201 61.8499 12.8101 61.7999 12.7201L61.8199 12.7301ZM22.7199 14.3401L19.9299 12.8201L26.8999 1.88012L29.6999 3.60012L22.7199 14.3401ZM27.3099 19.4501C27.1499 19.3401 27.0299 19.1701 26.9899 18.9701C26.9499 18.7801 26.9899 18.5701 27.0999 18.4101L28.4199 16.3601C28.4699 16.2801 28.5399 16.2001 28.6199 16.1501C28.6999 16.0901 28.7899 16.0601 28.8899 16.0401C28.9899 16.0201 29.0799 16.0201 29.1799 16.0401C29.2799 16.0601 29.3599 16.1001 29.4399 16.1601C29.5699 16.2401 29.6799 16.3601 29.7399 16.5101C29.7999 16.6601 29.8099 16.8201 29.7699 16.9701V17.0901L28.4499 19.1401C28.4099 19.2201 28.3399 19.2801 28.2599 19.3201C28.1499 19.4601 27.9899 19.5501 27.8099 19.5701C27.6299 19.5901 27.4599 19.5501 27.3099 19.4501ZM30.3399 21.5701V21.6801C30.2899 21.7601 30.2199 21.8301 30.1399 21.8801C30.0599 21.9301 29.9699 21.9701 29.8799 21.9901C29.7899 22.0101 29.6899 22.0101 29.5999 21.9901C29.5099 21.9701 29.4199 21.9301 29.3399 21.8801H29.2499C29.1699 21.8301 29.0999 21.7701 29.0499 21.6901C28.9999 21.6101 28.9599 21.5301 28.9399 21.4301C28.9199 21.3401 28.9199 21.2401 28.9399 21.1501C28.9599 21.0601 28.9999 20.9701 29.0499 20.9001L29.3699 20.4201L30.9399 17.8401L31.9199 16.3501C31.9699 16.2701 32.0399 16.2001 32.1099 16.1401C32.1899 16.0901 32.2799 16.0501 32.3699 16.0301C32.4599 16.0101 32.5599 16.0101 32.6499 16.0301C32.7399 16.0501 32.8299 16.0901 32.9099 16.1501H32.9799C33.0599 16.2001 33.1299 16.2701 33.1899 16.3401C33.2399 16.4201 33.2799 16.5101 33.2999 16.6001C33.3199 16.6901 33.3199 16.7901 33.2999 16.8801C33.2799 16.9701 33.2399 17.0601 33.1899 17.1401L32.4199 18.3201L30.3299 21.5701H30.3399ZM32.8699 23.1301V23.2201C32.8199 23.3001 32.7499 23.3701 32.6699 23.4301C32.5899 23.4801 32.4999 23.5201 32.3999 23.5401C32.2999 23.5601 32.1999 23.5601 32.1099 23.5401C32.0099 23.5201 31.9199 23.4801 31.8399 23.4201C31.7599 23.3701 31.6799 23.3001 31.6299 23.2201C31.5699 23.1401 31.5399 23.0501 31.5199 22.9501C31.4999 22.8501 31.4999 22.7601 31.5199 22.6601C31.5399 22.5601 31.5799 22.4801 31.6399 22.4001L32.9599 20.2701L33.5899 19.2901L33.6699 19.2101C33.7799 19.0701 33.9499 18.9801 34.1199 18.9501C34.2999 18.9201 34.4799 18.9601 34.6299 19.0601C34.7999 19.1701 34.9099 19.3401 34.9499 19.5401C34.9899 19.7401 34.9499 19.9401 34.8399 20.1101L34.6299 20.4301L32.8599 23.1301H32.8699ZM36.8399 22.4101L35.5199 24.4501C35.4699 24.5301 35.3999 24.6101 35.3199 24.6601C35.2399 24.7201 35.1499 24.7601 35.0499 24.7801C34.9499 24.8001 34.8599 24.8001 34.7599 24.7801C34.6599 24.7601 34.5699 24.7201 34.4899 24.6601C34.3499 24.5801 34.2499 24.4601 34.1899 24.3101C34.1299 24.1601 34.1299 24.0001 34.1699 23.8501C34.1899 23.7901 34.2199 23.7401 34.2499 23.6901L35.5699 21.6401C35.6099 21.5701 35.6699 21.5101 35.7399 21.4701C35.8599 21.3701 36.0099 21.3201 36.1599 21.3201C36.3099 21.3201 36.4599 21.3701 36.5799 21.4701C36.7199 21.5701 36.8199 21.7201 36.8699 21.8801C36.9199 22.0401 36.8999 22.2201 36.8199 22.3801V22.4101H36.8399ZM51.5899 18.6901C51.4199 18.9101 51.1799 19.0601 50.9099 19.1101C50.6399 19.1601 50.3599 19.1101 50.1199 18.9701L44.1099 15.4201C43.9399 15.3201 43.7299 15.3001 43.5399 15.3501C43.3499 15.4001 43.1799 15.5301 43.0799 15.7001C42.9899 15.8701 42.9599 16.0701 43.0099 16.2501C43.0599 16.4401 43.1699 16.6001 43.3399 16.7001L49.1299 20.1601L48.7999 20.6201C48.5799 20.9301 48.2599 21.1401 47.8899 21.2101C47.5199 21.2801 47.1399 21.2101 46.8199 21.0001L42.6299 18.3601C42.5099 18.2801 42.3699 18.2301 42.2199 18.2401C42.0199 18.2401 41.8399 18.3301 41.6999 18.4701C41.5599 18.6101 41.4899 18.8001 41.4899 18.9901C41.4899 19.1101 41.5299 19.2401 41.5899 19.3401C41.6499 19.4501 41.7399 19.5401 41.8399 19.6101L46.0199 22.2501C46.2399 22.3901 46.4899 22.5001 46.7499 22.5501L46.5799 22.8001C46.3599 23.1201 46.0199 23.3401 45.6399 23.4301C45.2599 23.5101 44.8599 23.4501 44.5199 23.2501L41.1399 21.3201C41.0099 21.2501 40.8699 21.2101 40.7199 21.2101C40.5599 21.2201 40.4099 21.2901 40.2899 21.3901C40.1699 21.5001 40.0899 21.6401 40.0499 21.7901C40.0099 21.9401 40.0299 22.1101 40.0899 22.2601C40.1499 22.4101 40.2599 22.5301 40.3999 22.6101L43.3999 24.3101L43.0699 24.8001C42.9299 25.0101 42.7299 25.1701 42.4799 25.2501C42.2399 25.3201 41.9799 25.3101 41.7399 25.2101L37.7799 23.6901L38.0399 23.1101C38.3599 22.6201 38.4699 22.0201 38.3499 21.4401C38.2299 20.8701 37.8799 20.3601 37.3899 20.0401C37.0899 19.8601 36.7599 19.7401 36.4099 19.7001C36.4099 19.3301 36.3399 18.9701 36.1699 18.6501C36.0099 18.3201 35.7699 18.0401 35.4699 17.8301C35.2399 17.6701 34.9699 17.5701 34.6899 17.5301C34.8499 17.0701 34.8499 16.5701 34.6899 16.1101C34.5299 15.6501 34.2299 15.2501 33.8199 14.9801H33.7399C33.2499 14.6701 32.6599 14.5601 32.0899 14.6801C31.5599 14.7801 31.0899 15.0701 30.7699 15.5001C30.6199 15.2901 30.4299 15.1101 30.2199 14.9701C29.9699 14.8101 29.6999 14.7001 29.4099 14.6501C29.1199 14.6001 28.8299 14.6001 28.5399 14.6701C28.1499 14.7501 27.7899 14.9401 27.4999 15.2101L25.3499 13.0401L30.1099 5.65012L32.3699 6.77012H33.8099L31.1699 10.4201C31.0899 10.5301 31.0399 10.6601 31.0299 10.8001C31.0199 10.9401 31.0499 11.0701 31.1099 11.2001C31.1699 11.3201 31.2699 11.4201 31.3899 11.4901C31.5099 11.5601 31.6399 11.6001 31.7799 11.6001H35.5299C35.8899 11.6001 36.2499 11.5101 36.5699 11.3401C36.8899 11.1701 37.1599 10.9201 37.3599 10.6101L37.9699 9.72012C38.0399 9.62012 38.1299 9.53012 38.2399 9.47012C38.3499 9.41012 38.4699 9.38012 38.5899 9.38012H39.5699C39.7199 9.38012 39.8599 9.42012 39.9799 9.51012L51.3199 17.0701C51.4499 17.1501 51.5599 17.2601 51.6399 17.3801C51.7199 17.5101 51.7799 17.6501 51.8099 17.8001C51.8399 17.9501 51.8299 18.1001 51.7899 18.2501C51.7499 18.4001 51.6899 18.5401 51.5899 18.6501V18.6801V18.6901ZM51.5099 15.4201L40.7899 8.31012C40.4299 8.06012 39.9999 7.93012 39.5599 7.93012H38.5699C38.2099 7.93012 37.8499 8.02012 37.5299 8.19012C37.2099 8.36012 36.9399 8.61012 36.7399 8.92012L36.1299 9.82012C36.0699 9.92012 35.9799 10.0101 35.8699 10.0601C35.7599 10.1201 35.6399 10.1501 35.5199 10.1501H33.2999L36.0199 6.36012C36.2299 6.05012 36.4999 5.80012 36.8299 5.63012C37.1499 5.46012 37.5199 5.37012 37.8899 5.37012H42.5599C42.7699 5.37012 42.9699 5.40012 43.1699 5.46012L47.4099 6.68012C47.9399 6.83012 48.5099 6.78012 49.0099 6.53012L49.9899 6.04012L54.6799 13.2601L51.5199 15.4301L51.5099 15.4201ZM57.2999 14.3601L50.3199 3.59012L53.1199 1.87012L60.0799 12.8101L57.2899 14.3601H57.2999Z" stroke="url(#paint8_linear_1005_6183)" stroke-width="0.25" stroke-miterlimit="10"/>
<path d="M29.3301 20.23C29.4301 20.13 29.5101 20.02 29.5801 19.9L30.9001 17.86V17.75L29.3301 20.22V20.23Z" stroke="url(#paint9_linear_1005_6183)" stroke-width="0.25" stroke-miterlimit="10"/>
<path d="M52.4 50.3301C52.85 50.3601 53.28 50.5401 53.62 50.8401C53.96 51.1601 54.17 51.5701 54.23 51.9801V52.1501C54.03 52.3201 53.82 52.5001 53.63 52.6801C50.36 55.7201 48.43 60.0701 48.35 64.6101C48.27 69.0901 49.97 73.3101 53.14 76.4801C53.3 76.6301 53.45 76.7701 53.63 76.9501C53.82 77.1301 54.03 77.3001 54.23 77.4701V77.8801C54.23 78.3601 54.03 78.8201 53.7 79.1701C53.35 79.5101 52.89 79.7001 52.41 79.7101H46.78C46.29 79.7101 45.84 79.5101 45.5 79.1701C45.16 78.8301 44.96 78.3701 44.95 77.8901V52.1501C44.95 51.6701 45.15 51.2201 45.5 50.8701C45.83 50.5301 46.29 50.3301 46.77 50.3301H52.39M23.7 50.3701C23.97 50.3701 24.22 50.4401 24.45 50.5401C24.68 50.6501 24.9 50.8001 25.07 50.9801C25.23 51.1601 25.36 51.3701 25.44 51.6101C25.52 51.8401 25.55 52.0901 25.53 52.3601V77.9301C25.53 78.4201 25.33 78.8701 24.98 79.2101C24.65 79.5501 24.19 79.7501 23.71 79.7501H18.08C17.59 79.7501 17.14 79.5501 16.79 79.2001C16.45 78.8601 16.26 78.4101 16.25 77.9301V52.1901C16.25 51.7101 16.45 51.2401 16.79 50.9101C17.13 50.5701 17.59 50.3701 18.07 50.3601H23.7M38.06 61.8301C38.53 61.9001 38.96 62.1101 39.3 62.4401C39.64 62.7901 39.86 63.2301 39.91 63.6601V77.9301C39.91 78.4201 39.71 78.8701 39.37 79.2101C39.03 79.5501 38.57 79.7501 38.09 79.7601H32.46C31.98 79.7601 31.51 79.5501 31.18 79.2101C30.84 78.8801 30.64 78.4201 30.64 77.9401V63.6601C30.64 63.1801 30.84 62.7301 31.19 62.3801C31.53 62.0401 31.99 61.8401 32.46 61.8301H38.06ZM9.64996 64.5801C10.12 64.6201 10.57 64.8201 10.9 65.1601C11.25 65.5101 11.45 65.9501 11.48 66.4001V77.8601C11.48 78.3401 11.28 78.7901 10.95 79.1401C10.59 79.4901 10.14 79.6801 9.65996 79.6801H4.02996C3.55996 79.6801 3.09996 79.4801 2.75996 79.1401C2.41996 78.8001 2.21996 78.3401 2.20996 77.8701V66.4101C2.20996 65.9201 2.40996 65.4701 2.75996 65.1201C3.09996 64.7801 3.54996 64.5901 4.02996 64.5801H9.64996ZM52.41 50.0801H46.78C46.23 50.0901 45.71 50.3101 45.33 50.7001C44.94 51.0901 44.72 51.6101 44.71 52.1501V77.8901C44.71 78.4401 44.94 78.9601 45.33 79.3501C45.72 79.7401 46.23 79.9501 46.78 79.9601H52.41C52.96 79.9601 53.48 79.7301 53.87 79.3501C54.25 78.9601 54.47 78.4401 54.48 77.8901V77.3601C54.25 77.1701 54.02 76.9701 53.8 76.7701C53.63 76.6001 53.47 76.4501 53.31 76.3001C50.19 73.1801 48.52 69.0301 48.6 64.6201C48.68 60.1401 50.58 55.8601 53.8 52.8701C54.02 52.6601 54.25 52.4601 54.48 52.2701V51.9801C54.41 51.4701 54.16 51.0101 53.79 50.6601C53.41 50.3201 52.92 50.1101 52.41 50.0801ZM23.7 50.1201H18.07C17.52 50.1301 17 50.3501 16.61 50.7401C16.23 51.1201 16.01 51.6501 16 52.1901V77.9301C16.01 78.4801 16.23 79.0001 16.61 79.3801C17 79.7701 17.52 79.9901 18.07 80.0001H23.7C24.25 79.9901 24.77 79.7701 25.15 79.3801C25.54 79.0001 25.76 78.4801 25.77 77.9301V52.3601C25.79 52.0801 25.76 51.8001 25.67 51.5301C25.58 51.2701 25.44 51.0201 25.25 50.8101C25.05 50.6001 24.81 50.4301 24.55 50.3101C24.28 50.1901 23.99 50.1301 23.7 50.1201ZM38.08 61.5801H32.46C31.92 61.5901 31.39 61.8201 31.01 62.2001C30.62 62.5901 30.4 63.1101 30.39 63.6501V77.9301C30.4 78.4801 30.62 79.0001 31.01 79.3801C31.39 79.7701 31.92 79.9901 32.46 80.0001H38.09C38.64 79.9901 39.16 79.7701 39.55 79.3801C39.93 79.0001 40.15 78.4801 40.16 77.9301V63.6601C40.1 63.1401 39.85 62.6501 39.48 62.2701C39.1 61.8901 38.61 61.6501 38.08 61.5801ZM9.65996 64.3301H4.02996C3.47996 64.3401 2.95996 64.5601 2.57996 64.9401C2.18996 65.3301 1.96996 65.8501 1.95996 66.4001V77.8601C1.95996 78.4001 2.18996 78.9201 2.57996 79.3101C2.95996 79.6901 3.47996 79.9201 4.02996 79.9201H9.65996C10.21 79.9201 10.73 79.6901 11.12 79.3101C11.5 78.9201 11.72 78.4001 11.73 77.8601V66.4001C11.7 65.8601 11.46 65.3601 11.08 64.9801C10.7 64.6001 10.2 64.3701 9.65996 64.3301Z" fill="url(#paint10_linear_1005_6183)"/>
<path d="M25.67 51.5301C25.58 51.2701 25.44 51.0201 25.25 50.8101C25.05 50.6001 24.81 50.4301 24.55 50.3101C24.28 50.1901 23.99 50.1301 23.7 50.1201H18.07C17.52 50.1301 17 50.3501 16.61 50.7401C16.22 51.1301 16.01 51.6501 16 52.1901V77.9301C16.01 78.4801 16.23 79.0001 16.61 79.3801C17 79.7701 17.52 79.9901 18.07 80.0001H23.7C24.25 79.9901 24.77 79.7701 25.15 79.3801C25.54 79.0001 25.76 78.4801 25.77 77.9301V52.3601C25.79 52.0801 25.76 51.8001 25.67 51.5301ZM39.48 62.2701C39.1 61.8901 38.61 61.6501 38.08 61.5801H32.46C31.92 61.5901 31.39 61.8201 31.01 62.2001C30.62 62.5901 30.4 63.1101 30.39 63.6501V77.9301C30.4 78.4801 30.62 79.0001 31.01 79.3801C31.39 79.7701 31.92 79.9901 32.46 80.0001H38.09C38.64 79.9901 39.16 79.7701 39.55 79.3801C39.93 79.0001 40.15 78.4801 40.16 77.9301V63.6601C40.1 63.1401 39.85 62.6501 39.48 62.2701ZM11.08 64.9801C10.7 64.6001 10.2 64.3701 9.65996 64.3301H4.02996C3.47996 64.3401 2.95996 64.5601 2.57996 64.9401C2.18996 65.3301 1.96996 65.8501 1.95996 66.4001V77.8601C1.95996 78.4001 2.18996 78.9201 2.57996 79.3101C2.96996 79.7001 3.47996 79.9201 4.02996 79.9201H9.65996C10.21 79.9201 10.73 79.6901 11.12 79.3101C11.5 78.9201 11.72 78.4001 11.73 77.8601V66.4001C11.7 65.8601 11.46 65.3601 11.08 64.9801ZM54.48 52.2701V51.9801C54.41 51.4701 54.16 51.0101 53.79 50.6601C53.41 50.3201 52.92 50.1101 52.41 50.0801H46.78C46.23 50.0901 45.71 50.3101 45.33 50.7001C44.94 51.0901 44.72 51.6101 44.71 52.1501V77.8901C44.71 78.4401 44.94 78.9601 45.33 79.3501C45.72 79.7401 46.23 79.9501 46.78 79.9601H52.41C52.96 79.9601 53.48 79.7301 53.87 79.3501C54.25 78.9601 54.47 78.4401 54.48 77.8901V77.3601C54.25 77.1701 54.02 76.9701 53.8 76.7701C53.63 76.6001 53.47 76.4501 53.31 76.3001C50.19 73.1801 48.52 69.0301 48.6 64.6201C48.68 60.1401 50.58 55.8601 53.8 52.8701C54.02 52.6601 54.25 52.4601 54.48 52.2701Z" fill="url(#paint11_linear_1005_6183)"/>
<path d="M19.07 29.0898C21.68 29.0898 23.8 31.2098 23.8 33.8198C23.8 34.1698 23.75 34.5498 23.64 34.9798L23.6 35.1398L23.73 35.2398L30.84 40.7798L30.97 40.8798L31.11 40.7998C31.83 40.4098 32.58 40.2098 33.35 40.2098C34.12 40.2098 34.84 40.3998 35.55 40.7798L35.69 40.8598L35.82 40.7598L42.46 35.4498L42.59 35.3498L42.55 35.1898C42.45 34.7998 42.4 34.4398 42.4 34.0698C42.4 31.4598 44.52 29.3398 47.13 29.3398C49.74 29.3398 51.85 31.4598 51.85 34.0698C51.85 36.6798 49.73 38.7898 47.13 38.7898C46.26 38.7898 45.41 38.5398 44.66 38.0798L44.51 37.9898L44.37 38.0998L37.92 43.2498L37.79 43.3598L37.84 43.5198C38 44.0398 38.08 44.4898 38.08 44.9398C38.08 47.5498 35.96 49.6698 33.35 49.6698C30.74 49.6698 28.63 47.5498 28.63 44.9398C28.63 44.5098 28.7 44.0498 28.85 43.5798L28.9 43.4098L28.76 43.2998L21.79 37.8598L21.65 37.7498L21.5 37.8398C20.74 38.3098 19.92 38.5398 19.06 38.5398C18.47 38.5398 17.88 38.4198 17.3 38.1898L17.15 38.1298L17.03 38.2498L9.33 45.8298L9.21 45.9498L9.28 46.1098C9.56 46.7198 9.7 47.3698 9.7 48.0298C9.7 50.6398 7.58 52.7598 4.97 52.7598C2.36 52.7598 0.25 50.6398 0.25 48.0298C0.25 45.4198 2.37 43.3098 4.98 43.3098C5.57 43.3098 6.15 43.4198 6.71 43.6398L6.86 43.6998L6.98 43.5898L14.7 35.9898L14.82 35.8698L14.75 35.7098C14.49 35.1098 14.35 34.4798 14.35 33.8198C14.35 31.2098 16.47 29.0898 19.07 29.0898ZM19.07 35.9098C20.22 35.9098 21.16 34.9698 21.16 33.8198C21.16 32.6698 20.22 31.7298 19.07 31.7298C17.92 31.7298 16.98 32.6698 16.98 33.8198C16.98 34.9698 17.92 35.9098 19.07 35.9098ZM47.13 36.1798C48.29 36.1798 49.24 35.2298 49.24 34.0698C49.24 32.9098 48.29 31.9498 47.13 31.9498C45.97 31.9498 45.01 32.8998 45.01 34.0698C45.01 35.2398 45.96 36.1798 47.13 36.1798ZM33.35 47.0398C34.51 47.0398 35.45 46.0898 35.45 44.9298C35.45 43.7698 34.51 42.8298 33.35 42.8298C32.19 42.8298 31.25 43.7698 31.25 44.9298C31.25 46.0898 32.19 47.0398 33.35 47.0398ZM4.98 50.1398C6.14 50.1398 7.08 49.1898 7.08 48.0298C7.08 46.8698 6.14 45.9298 4.98 45.9298C3.82 45.9298 2.87 46.8698 2.87 48.0298C2.87 49.1898 3.82 50.1398 4.98 50.1398ZM19.07 28.8398C16.33 28.8398 14.1 31.0698 14.1 33.8198C14.1 34.5298 14.25 35.1998 14.52 35.8098L6.8 43.4098C6.24 43.1898 5.62 43.0598 4.98 43.0598C2.23 43.0598 0 45.2898 0 48.0298C0 50.7698 2.23 53.0098 4.98 53.0098C7.73 53.0098 9.96 50.7798 9.96 48.0298C9.96 47.3098 9.8 46.6298 9.52 46.0098L17.22 38.4298C17.79 38.6598 18.42 38.7998 19.07 38.7998C20.02 38.7998 20.89 38.5198 21.64 38.0598L28.61 43.4998C28.47 43.9498 28.38 44.4298 28.38 44.9298C28.38 47.6798 30.61 49.9098 33.35 49.9098C36.09 49.9098 38.33 47.6798 38.33 44.9298C38.33 44.4098 38.23 43.9198 38.08 43.4398L44.53 38.2898C45.28 38.7598 46.17 39.0398 47.13 39.0398C49.87 39.0398 52.1 36.8098 52.1 34.0698C52.1 31.3298 49.87 29.0898 47.13 29.0898C44.39 29.0898 42.15 31.3198 42.15 34.0698C42.15 34.4798 42.21 34.8698 42.31 35.2498L35.67 40.5598C34.97 40.1898 34.19 39.9598 33.35 39.9598C32.51 39.9598 31.69 40.1998 30.99 40.5798L23.88 35.0398C23.98 34.6498 24.05 34.2398 24.05 33.8198C24.05 31.0698 21.82 28.8398 19.07 28.8398ZM19.07 35.6598C18.06 35.6598 17.23 34.8398 17.23 33.8198C17.23 32.7998 18.06 31.9798 19.07 31.9798C20.08 31.9798 20.91 32.7998 20.91 33.8198C20.91 34.8398 20.09 35.6598 19.07 35.6598ZM47.13 35.9298C46.1 35.9298 45.26 35.0898 45.26 34.0698C45.26 33.0498 46.1 32.1998 47.13 32.1998C48.16 32.1998 48.99 33.0398 48.99 34.0698C48.99 35.0998 48.15 35.9298 47.13 35.9298ZM33.35 46.7898C32.33 46.7898 31.5 45.9598 31.5 44.9298C31.5 43.8998 32.33 43.0798 33.35 43.0798C34.37 43.0798 35.2 43.9098 35.2 44.9298C35.2 45.9498 34.37 46.7898 33.35 46.7898ZM4.98 49.8898C3.95 49.8898 3.12 49.0598 3.12 48.0298C3.12 46.9998 3.95 46.1798 4.98 46.1798C6.01 46.1798 6.83 47.0098 6.83 48.0298C6.83 49.0498 6 49.8898 4.98 49.8898Z" fill="url(#paint12_linear_1005_6183)"/>
<path d="M47.13 29.0898C44.38 29.0898 42.15 31.3198 42.15 34.0698C42.15 34.4798 42.21 34.8698 42.31 35.2498L35.67 40.5598C34.97 40.1898 34.19 39.9598 33.35 39.9598C32.51 39.9598 31.69 40.1998 30.99 40.5798L23.88 35.0398C23.98 34.6498 24.05 34.2398 24.05 33.8198C24.05 31.0698 21.82 28.8398 19.07 28.8398C16.32 28.8398 14.1 31.0698 14.1 33.8198C14.1 34.5298 14.25 35.1998 14.52 35.8098L6.8 43.4098C6.24 43.1898 5.62 43.0598 4.98 43.0598C2.23 43.0598 0 45.2898 0 48.0298C0 50.7698 2.23 53.0098 4.98 53.0098C7.73 53.0098 9.96 50.7798 9.96 48.0298C9.96 47.3098 9.8 46.6298 9.52 46.0098L17.22 38.4298C17.79 38.6598 18.42 38.7998 19.07 38.7998C20.02 38.7998 20.89 38.5198 21.64 38.0598L28.61 43.4998C28.47 43.9498 28.38 44.4298 28.38 44.9298C28.38 47.6798 30.61 49.9098 33.35 49.9098C36.09 49.9098 38.33 47.6798 38.33 44.9298C38.33 44.4098 38.23 43.9198 38.08 43.4398L44.53 38.2898C45.28 38.7598 46.17 39.0398 47.13 39.0398C49.87 39.0398 52.1 36.8098 52.1 34.0698C52.1 31.3298 49.87 29.0898 47.13 29.0898ZM4.98 49.8898C3.95 49.8898 3.12 49.0598 3.12 48.0298C3.12 46.9998 3.95 46.1798 4.98 46.1798C6.01 46.1798 6.83 47.0098 6.83 48.0298C6.83 49.0498 6 49.8898 4.98 49.8898ZM19.07 35.6598C18.06 35.6598 17.23 34.8398 17.23 33.8198C17.23 32.7998 18.06 31.9798 19.07 31.9798C20.08 31.9798 20.91 32.7998 20.91 33.8198C20.91 34.8398 20.09 35.6598 19.07 35.6598ZM33.35 46.7898C32.33 46.7898 31.5 45.9598 31.5 44.9298C31.5 43.8998 32.33 43.0798 33.35 43.0798C34.37 43.0798 35.2 43.9098 35.2 44.9298C35.2 45.9498 34.37 46.7898 33.35 46.7898ZM47.13 35.9298C46.1 35.9298 45.26 35.0898 45.26 34.0698C45.26 33.0498 46.1 32.1998 47.13 32.1998C48.16 32.1998 48.99 33.0398 48.99 34.0698C48.99 35.0998 48.15 35.9298 47.13 35.9298Z" fill="url(#paint13_linear_1005_6183)"/>
<path d="M60.83 50.1298C58.33 50.7898 56.19 52.0098 54.48 53.5998C48.5 59.1498 47.63 69.1998 54.02 75.5898C54.17 75.7398 54.33 75.8898 54.48 76.0298C62.35 83.2698 75.35 80.1998 79.05 70.0698C83.28 58.4998 72.73 47.0098 60.83 50.1298ZM75.53 69.5098C72.27 77.0698 62.22 78.9598 56.42 73.0798C55.63 72.2798 54.98 71.3998 54.48 70.4598C52.54 66.9098 52.65 62.6298 54.48 59.2098C55.73 56.8498 57.8 54.8998 60.57 53.8698C70.33 50.2498 79.65 59.9398 75.53 69.5098Z" fill="url(#paint14_linear_1005_6183)"/>
<path d="M64.8 49.8599C69.65 49.8599 74.23 52.2799 77.06 56.3199C79.88 60.3499 80.52 65.3299 78.82 69.9799C76.65 75.9099 71.11 79.7399 64.69 79.7399C60.96 79.7399 57.39 78.3499 54.66 75.8399C54.51 75.6999 54.35 75.5499 54.21 75.4099C51.33 72.5299 49.79 68.7099 49.86 64.6399C49.94 60.4999 51.69 56.5399 54.66 53.7799C56.42 52.1499 58.52 50.9999 60.9 50.3699C62.19 50.0299 63.51 49.8599 64.8 49.8599ZM64.71 76.7899C69.54 76.7899 73.87 73.9699 75.76 69.6099C77.39 65.8199 77.05 61.6999 74.83 58.3099C72.58 54.8899 68.83 52.8399 64.81 52.8399C63.36 52.8399 61.91 53.1099 60.49 53.6299C57.81 54.6299 55.6 56.5599 54.27 59.0899C52.35 62.6699 52.35 67.0699 54.27 70.5799C54.78 71.5399 55.45 72.4499 56.25 73.2599C58.5 75.5399 61.51 76.7999 64.72 76.7999M64.8 49.6099C63.51 49.6099 62.18 49.7799 60.83 50.1299C58.33 50.7899 56.19 52.0099 54.48 53.5999C48.5 59.1499 47.63 69.1999 54.02 75.5899C54.17 75.7399 54.33 75.8899 54.48 76.0299C57.42 78.7299 61.07 79.9999 64.68 79.9999C70.75 79.9999 76.73 76.4199 79.05 70.0699C82.8 59.8099 74.93 49.6099 64.8 49.6099ZM64.71 76.5399C61.74 76.5399 58.74 75.4299 56.42 73.0799C55.63 72.2799 54.98 71.3999 54.48 70.4599C52.54 66.9099 52.65 62.6299 54.48 59.2099C55.73 56.8499 57.8 54.8999 60.57 53.8699C62 53.3399 63.43 53.0899 64.8 53.0899C72.78 53.0899 79.04 61.3399 75.53 69.5099C73.57 74.0499 69.17 76.5399 64.71 76.5399Z" fill="url(#paint15_linear_1005_6183)"/>
<path d="M65.7299 63.8801H70.3499C70.8999 63.8801 71.5399 65.2501 70.4299 65.6701C69.7599 65.9301 66.0999 65.8901 65.2099 65.8201C64.4299 65.7501 63.8899 65.6101 63.7899 64.7401C63.6899 63.8701 63.6699 60.0501 63.8399 59.3101C63.9999 58.6401 64.6699 58.3001 65.2699 58.7001C65.3799 58.7701 65.7299 59.1701 65.7299 59.2701V63.8901V63.8801Z" fill="url(#paint16_linear_1005_6183)"/>
<path d="M64.7399 58.78C64.8699 58.78 64.9999 58.82 65.1299 58.91C65.1999 58.96 65.4199 59.21 65.4799 59.31V64.14H70.3499C70.4799 64.14 70.7099 64.38 70.7799 64.72C70.8199 64.96 70.7799 65.29 70.3499 65.45C70.0499 65.56 68.8899 65.64 67.3099 65.64C66.4699 65.64 65.6199 65.62 65.2399 65.59C64.4199 65.52 64.1199 65.38 64.0399 64.72C63.9399 63.85 63.9199 60.07 64.0899 59.38C64.1699 59.03 64.4399 58.79 64.7499 58.79M64.7399 58.53C64.3199 58.53 63.9499 58.84 63.8399 59.31C63.6699 60.05 63.6899 63.89 63.7899 64.74C63.8899 65.62 64.4299 65.76 65.2099 65.82C65.5699 65.85 66.3999 65.87 67.2999 65.87C68.5999 65.87 70.0399 65.82 70.4299 65.67C71.5299 65.24 70.8999 63.88 70.3499 63.88H65.7299V59.26C65.7299 59.17 65.3799 58.77 65.2699 58.69C65.0899 58.57 64.9099 58.52 64.7399 58.52V58.53Z" fill="url(#paint17_linear_1005_6183)"/>
<path d="M19.7901 28.72C19.7901 32.16 19.4601 34.95 19.0601 34.95C18.6601 34.95 18.3301 32.16 18.3301 28.72C18.3301 25.28 18.6601 22.48 19.0601 22.48C19.4601 22.48 19.7901 25.28 19.7901 28.72Z" fill="url(#paint18_radial_1005_6183)"/>
<path d="M19.0552 29.4449C15.6152 29.4449 12.8252 29.1149 12.8252 28.7149C12.8252 28.3149 15.6152 27.9849 19.0552 27.9849C22.4952 27.9849 25.2952 28.3149 25.2952 28.7149C25.2952 29.1149 22.4952 29.4449 19.0552 29.4449Z" fill="url(#paint19_radial_1005_6183)"/>
<path d="M60.16 50.1199C60.16 53.5599 59.83 56.3499 59.43 56.3499C59.03 56.3499 58.7 53.5599 58.7 50.1199C58.7 46.6799 59.03 43.8799 59.43 43.8799C59.83 43.8799 60.16 46.6799 60.16 50.1199Z" fill="url(#paint20_radial_1005_6183)"/>
<path d="M59.425 50.8448C55.985 50.8448 53.195 50.5148 53.195 50.1148C53.195 49.7148 55.985 49.3848 59.425 49.3848C62.865 49.3848 65.665 49.7148 65.665 50.1148C65.665 50.5148 62.865 50.8448 59.425 50.8448Z" fill="url(#paint21_radial_1005_6183)"/>
</g>
<defs>
<linearGradient id="paint0_linear_1005_6183" x1="28.9099" y1="19.2899" x2="28.9099" y2="16.9399" gradientUnits="userSpaceOnUse">
<stop stop-color="#79A540"/>
<stop offset="0.2" stop-color="#94C63D"/>
<stop offset="0.39" stop-color="#98CA3C"/>
<stop offset="0.59" stop-color="#93C53E"/>
<stop offset="0.74" stop-color="#9DCB3B"/>
<stop offset="0.9" stop-color="#A6CE39"/>
<stop offset="1" stop-color="#A6CE39"/>
</linearGradient>
<linearGradient id="paint1_linear_1005_6183" x1="33.0501" y1="23.67" x2="33.0501" y2="18.26" gradientUnits="userSpaceOnUse">
<stop stop-color="#79A540"/>
<stop offset="0.2" stop-color="#94C63D"/>
<stop offset="0.39" stop-color="#98CA3C"/>
<stop offset="0.59" stop-color="#93C53E"/>
<stop offset="0.74" stop-color="#9DCB3B"/>
<stop offset="0.9" stop-color="#A6CE39"/>
<stop offset="1" stop-color="#A6CE39"/>
</linearGradient>
<linearGradient id="paint2_linear_1005_6183" x1="33.7501" y1="22.9799" x2="33.7501" y2="20.3099" gradientUnits="userSpaceOnUse">
<stop stop-color="#79A540"/>
<stop offset="0.2" stop-color="#94C63D"/>
<stop offset="0.39" stop-color="#98CA3C"/>
<stop offset="0.59" stop-color="#93C53E"/>
<stop offset="0.74" stop-color="#9DCB3B"/>
<stop offset="0.9" stop-color="#A6CE39"/>
<stop offset="1" stop-color="#A6CE39"/>
</linearGradient>
<linearGradient id="paint3_linear_1005_6183" x1="30.1201" y1="20.23" x2="30.1201" y2="17.76" gradientUnits="userSpaceOnUse">
<stop stop-color="#79A540"/>
<stop offset="0.2" stop-color="#94C63D"/>
<stop offset="0.39" stop-color="#98CA3C"/>
<stop offset="0.59" stop-color="#93C53E"/>
<stop offset="0.74" stop-color="#9DCB3B"/>
<stop offset="0.9" stop-color="#A6CE39"/>
<stop offset="1" stop-color="#A6CE39"/>
</linearGradient>
<linearGradient id="paint4_linear_1005_6183" x1="28.7799" y1="19.8699" x2="28.7799" y2="15.6699" gradientUnits="userSpaceOnUse">
<stop stop-color="white" stop-opacity="0.9"/>
<stop offset="0.28" stop-color="white" stop-opacity="0.5"/>
<stop offset="0.65" stop-color="#FAFBFC" stop-opacity="0.4"/>
<stop offset="1" stop-color="#F0EFEF" stop-opacity="0.3"/>
</linearGradient>
<linearGradient id="paint5_linear_1005_6183" x1="33.1901" y1="24.68" x2="33.1901" y2="16.86" gradientUnits="userSpaceOnUse">
<stop stop-color="white" stop-opacity="0.9"/>
<stop offset="0.28" stop-color="white" stop-opacity="0.5"/>
<stop offset="0.65" stop-color="#FAFBFC" stop-opacity="0.4"/>
<stop offset="1" stop-color="#F0EFEF" stop-opacity="0.3"/>
</linearGradient>
<linearGradient id="paint6_linear_1005_6183" x1="33.9701" y1="23.0699" x2="33.9701" y2="18.9099" gradientUnits="userSpaceOnUse">
<stop stop-color="white" stop-opacity="0.9"/>
<stop offset="0.28" stop-color="white" stop-opacity="0.5"/>
<stop offset="0.65" stop-color="#FAFBFC" stop-opacity="0.4"/>
<stop offset="1" stop-color="#F0EFEF" stop-opacity="0.3"/>
</linearGradient>
<linearGradient id="paint7_linear_1005_6183" x1="39.9999" y1="26.8001" x2="39.9999" y2="0.0901168" gradientUnits="userSpaceOnUse">
<stop stop-color="#79A540"/>
<stop offset="0.2" stop-color="#94C63D"/>
<stop offset="0.39" stop-color="#98CA3C"/>
<stop offset="0.59" stop-color="#93C53E"/>
<stop offset="0.74" stop-color="#9DCB3B"/>
<stop offset="0.9" stop-color="#A6CE39"/>
<stop offset="1" stop-color="#A6CE39"/>
</linearGradient>
<linearGradient id="paint8_linear_1005_6183" x1="39.9999" y1="26.9201" x2="39.9999" y2="0.00011718" gradientUnits="userSpaceOnUse">
<stop stop-color="white" stop-opacity="0.9"/>
<stop offset="0.28" stop-color="white" stop-opacity="0.5"/>
<stop offset="0.65" stop-color="#FAFBFC" stop-opacity="0.4"/>
<stop offset="1" stop-color="#F0EFEF" stop-opacity="0.3"/>
</linearGradient>
<linearGradient id="paint9_linear_1005_6183" x1="30.1301" y1="20.35" x2="30.1301" y2="17.15" gradientUnits="userSpaceOnUse">
<stop stop-color="white" stop-opacity="0.9"/>
<stop offset="0.28" stop-color="white" stop-opacity="0.5"/>
<stop offset="0.65" stop-color="#FAFBFC" stop-opacity="0.4"/>
<stop offset="1" stop-color="#F0EFEF" stop-opacity="0.3"/>
</linearGradient>
<linearGradient id="paint10_linear_1005_6183" x1="40.87" y1="86.9301" x2="19.1" y2="49.2201" gradientUnits="userSpaceOnUse">
<stop stop-color="#F0EFEF" stop-opacity="0"/>
<stop offset="0.61" stop-color="#FAFBFC" stop-opacity="0.4"/>
<stop offset="0.85" stop-color="white" stop-opacity="0.5"/>
<stop offset="1" stop-color="white" stop-opacity="0.9"/>
</linearGradient>
<linearGradient id="paint11_linear_1005_6183" x1="40.24" y1="85.8401" x2="18.15" y2="47.5901" gradientUnits="userSpaceOnUse">
<stop stop-color="white" stop-opacity="0.9"/>
<stop offset="0.04" stop-color="white" stop-opacity="0.85"/>
<stop offset="0.28" stop-color="white" stop-opacity="0.5"/>
<stop offset="0.65" stop-color="#FAFBFC" stop-opacity="0.4"/>
<stop offset="1" stop-color="#F0EFEF" stop-opacity="0"/>
</linearGradient>
<linearGradient id="paint12_linear_1005_6183" x1="32.05" y1="51.4298" x2="18.69" y2="28.2898" gradientUnits="userSpaceOnUse">
<stop stop-color="#F0EFEF" stop-opacity="0"/>
<stop offset="0.61" stop-color="#FAFBFC" stop-opacity="0.4"/>
<stop offset="0.85" stop-color="white" stop-opacity="0.5"/>
<stop offset="1" stop-color="white" stop-opacity="0.9"/>
</linearGradient>
<linearGradient id="paint13_linear_1005_6183" x1="32.05" y1="51.4298" x2="18.69" y2="28.2898" gradientUnits="userSpaceOnUse">
<stop stop-color="white" stop-opacity="0.9"/>
<stop offset="0.04" stop-color="white" stop-opacity="0.85"/>
<stop offset="0.28" stop-color="white" stop-opacity="0.5"/>
<stop offset="0.65" stop-color="#FAFBFC" stop-opacity="0.4"/>
<stop offset="1" stop-color="#F0EFEF" stop-opacity="0"/>
</linearGradient>
<linearGradient id="paint14_linear_1005_6183" x1="49.6" y1="64.7998" x2="80" y2="64.7998" gradientUnits="userSpaceOnUse">
<stop stop-color="#79A540"/>
<stop offset="0.2" stop-color="#94C63D"/>
<stop offset="0.39" stop-color="#98CA3C"/>
<stop offset="0.59" stop-color="#93C53E"/>
<stop offset="0.74" stop-color="#9DCB3B"/>
<stop offset="0.9" stop-color="#A6CE39"/>
<stop offset="1" stop-color="#A6CE39"/>
</linearGradient>
<linearGradient id="paint15_linear_1005_6183" x1="49.6" y1="64.7999" x2="80" y2="64.7999" gradientUnits="userSpaceOnUse">
<stop stop-color="#F0EFEF" stop-opacity="0"/>
<stop offset="0.61" stop-color="#FAFBFC" stop-opacity="0.4"/>
<stop offset="0.85" stop-color="white" stop-opacity="0.5"/>
<stop offset="1" stop-color="white" stop-opacity="0.9"/>
</linearGradient>
<linearGradient id="paint16_linear_1005_6183" x1="63.7099" y1="62.2001" x2="71.0399" y2="62.2001" gradientUnits="userSpaceOnUse">
<stop stop-color="#79A540"/>
<stop offset="0.2" stop-color="#94C63D"/>
<stop offset="0.39" stop-color="#98CA3C"/>
<stop offset="0.59" stop-color="#93C53E"/>
<stop offset="0.74" stop-color="#9DCB3B"/>
<stop offset="0.9" stop-color="#A6CE39"/>
<stop offset="1" stop-color="#A6CE39"/>
</linearGradient>
<linearGradient id="paint17_linear_1005_6183" x1="63.7099" y1="62.2" x2="71.0399" y2="62.2" gradientUnits="userSpaceOnUse">
<stop stop-color="#F0EFEF" stop-opacity="0"/>
<stop offset="0.61" stop-color="#FAFBFC" stop-opacity="0.4"/>
<stop offset="0.85" stop-color="white" stop-opacity="0.5"/>
<stop offset="1" stop-color="white" stop-opacity="0.9"/>
</linearGradient>
<radialGradient id="paint18_radial_1005_6183" cx="0" cy="0" r="1" gradientUnits="userSpaceOnUse" gradientTransform="translate(19.0096 29.2383) scale(0.722 6.2092)">
<stop stop-color="white"/>
<stop offset="0.07" stop-color="white" stop-opacity="0.93"/>
<stop offset="1" stop-color="white" stop-opacity="0"/>
</radialGradient>
<radialGradient id="paint19_radial_1005_6183" cx="0" cy="0" r="1" gradientUnits="userSpaceOnUse" gradientTransform="translate(18.5369 28.6644) rotate(90) scale(0.722 6.2092)">
<stop stop-color="white"/>
<stop offset="0.07" stop-color="white" stop-opacity="0.93"/>
<stop offset="1" stop-color="white" stop-opacity="0"/>
</radialGradient>
<radialGradient id="paint20_radial_1005_6183" cx="0" cy="0" r="1" gradientUnits="userSpaceOnUse" gradientTransform="translate(59.2325 50.6436) scale(0.722 6.2092)">
<stop stop-color="white"/>
<stop offset="0.07" stop-color="white" stop-opacity="0.93"/>
<stop offset="1" stop-color="white" stop-opacity="0"/>
</radialGradient>
<radialGradient id="paint21_radial_1005_6183" cx="0" cy="0" r="1" gradientUnits="userSpaceOnUse" gradientTransform="translate(58.9013 49.9173) rotate(90) scale(0.722 6.2092)">
<stop stop-color="white"/>
<stop offset="0.07" stop-color="white" stop-opacity="0.93"/>
<stop offset="1" stop-color="white" stop-opacity="0"/>
</radialGradient>
<clipPath id="clip0_1005_6183">
<rect width="80" height="80" fill="white"/>
</clipPath>
</defs>
</svg>
