<svg width="79" height="81" viewBox="0 0 79 81" fill="none" xmlns="http://www.w3.org/2000/svg">
<path fill-rule="evenodd" clip-rule="evenodd" d="M17.8753 49.4393H62.3526C66.8198 40.8378 68.9903 29.8017 68.3242 16.2507C60.2855 16.9857 50.3174 13.2878 39.9474 6.70752C31.9645 13.1197 21.899 16.3659 11.6739 15.8258C11.3065 29.8247 13.5458 40.9526 17.8753 49.4393ZM67.5204 49.5197C68.6262 49.7371 69.6228 50.3306 70.3408 51.1993C71.0588 52.068 71.454 53.1585 71.4594 54.2855V73.5785C71.4533 74.863 70.9412 76.0934 70.034 77.0028C69.1268 77.9121 67.8976 78.4272 66.6131 78.4362H13.4654C12.18 78.4302 10.9491 77.9161 10.0413 77.0061C9.13342 76.096 8.62223 74.864 8.61921 73.5785V54.2855C8.62231 53.1268 9.03951 52.0073 9.79552 51.1291C10.5515 50.251 11.5965 49.672 12.7419 49.4967C8.33211 39.6664 6.1272 27.0686 6.54062 11.2781C18.5657 12.1775 30.4875 8.50704 39.9244 1C52.4419 8.9354 63.7421 12.6907 73.4346 11.8064C74.1925 27.1719 72.091 39.6205 67.5204 49.5197ZM22.3885 61.1414L21.8372 58.0178C23.5445 57.4892 25.3211 57.2183 27.1084 57.2139C27.8051 57.2139 28.3907 57.2369 28.8654 57.2828C29.3628 57.3232 29.853 57.4274 30.3239 57.5929C30.7528 57.7351 31.1449 57.9704 31.4723 58.2819C31.8537 58.6966 32.1479 59.1838 32.3373 59.7145C32.5267 60.2452 32.6074 60.8086 32.5747 61.3711C32.6255 61.9356 32.5487 62.5043 32.3499 63.0351C32.1511 63.5658 31.8355 64.0451 31.4263 64.4373C29.9054 65.4621 28.2307 66.2375 26.4653 66.7341V67.3198H32.391V70.6846H21.5501V68.0318C21.5388 67.2446 21.6873 66.4632 21.9865 65.735C22.3184 65.1575 22.7684 64.6566 23.3072 64.265C23.7708 63.8888 24.2849 63.5795 24.8345 63.3463L26.6375 62.5195L28.0156 61.8764V60.728C27.436 60.6622 26.8533 60.6277 26.27 60.6246C24.9626 60.6249 23.6598 60.7791 22.3885 61.084V61.1414ZM43.6567 66.1369H40.0852V70.6616H35.8821V57.5355H44.495L43.9668 60.8888H40.0852V63.0133H43.6567V66.1369ZM49.4906 70.6616H45.2071L48.6522 57.5355H55.1407L58.5859 70.6616H54.2794L53.7971 68.583H49.9729L49.4906 70.6616ZM51.328 61.6237L50.7308 65.2986H53.0276L52.4419 61.6237H51.328Z" fill="url(#paint0_linear_900_13073)"/>
<path fill-rule="evenodd" clip-rule="evenodd" d="M17.8753 49.4393H62.3526C66.8198 40.8378 68.9903 29.8017 68.3242 16.2507C60.2855 16.9857 50.3174 13.2878 39.9474 6.70752C31.9645 13.1197 21.899 16.3659 11.6739 15.8258C11.3065 29.8247 13.5458 40.9526 17.8753 49.4393ZM67.5204 49.5197C68.6262 49.7371 69.6228 50.3306 70.3408 51.1993C71.0588 52.068 71.454 53.1585 71.4594 54.2855V73.5785C71.4533 74.863 70.9412 76.0934 70.034 77.0028C69.1268 77.9121 67.8976 78.4272 66.6131 78.4362H13.4654C12.18 78.4302 10.9491 77.9161 10.0413 77.0061C9.13342 76.096 8.62223 74.864 8.61921 73.5785V54.2855C8.62231 53.1268 9.03951 52.0073 9.79552 51.1291C10.5515 50.251 11.5965 49.672 12.7419 49.4967C8.33211 39.6664 6.1272 27.0686 6.54062 11.2781C18.5657 12.1775 30.4875 8.50704 39.9244 1C52.4419 8.9354 63.7421 12.6907 73.4346 11.8064C74.1925 27.1719 72.091 39.6205 67.5204 49.5197ZM22.3885 61.1414L21.8372 58.0178C23.5445 57.4892 25.3211 57.2183 27.1084 57.2139C27.8051 57.2139 28.3907 57.2369 28.8654 57.2828C29.3628 57.3232 29.853 57.4274 30.3239 57.5929C30.7528 57.7351 31.1449 57.9704 31.4723 58.2819C31.8537 58.6966 32.1479 59.1838 32.3373 59.7145C32.5267 60.2452 32.6074 60.8086 32.5747 61.3711C32.6255 61.9356 32.5487 62.5043 32.3499 63.0351C32.1511 63.5658 31.8355 64.0451 31.4263 64.4373C29.9054 65.4621 28.2307 66.2375 26.4653 66.7341V67.3198H32.391V70.6846H21.5501V68.0318C21.5388 67.2446 21.6873 66.4632 21.9865 65.735C22.3184 65.1575 22.7684 64.6566 23.3072 64.265C23.7708 63.8888 24.2849 63.5795 24.8345 63.3463L26.6375 62.5195L28.0156 61.8764V60.728C27.436 60.6622 26.8533 60.6277 26.27 60.6246C24.9626 60.6249 23.6598 60.7791 22.3885 61.084V61.1414ZM43.6567 66.1369H40.0852V70.6616H35.8821V57.5355H44.495L43.9668 60.8888H40.0852V63.0133H43.6567V66.1369ZM49.4906 70.6616H45.2071L48.6522 57.5355H55.1407L58.5859 70.6616H54.2794L53.7971 68.583H49.9729L49.4906 70.6616ZM51.328 61.6237L50.7308 65.2986H53.0276L52.4419 61.6237H51.328Z" stroke="url(#paint1_linear_900_13073)" stroke-width="0.25" stroke-miterlimit="10"/>
<path fill-rule="evenodd" clip-rule="evenodd" d="M30.9208 25.3461H31.828V23.2445C31.8228 21.0111 32.683 18.8626 34.2281 17.2499C34.9735 16.4559 35.8736 15.823 36.8731 15.3904C37.8725 14.9578 38.95 14.7346 40.039 14.7346C41.1281 14.7346 42.2055 14.9578 43.205 15.3904C44.2044 15.823 45.1046 16.4559 45.8499 17.2499C47.395 18.8626 48.2552 21.0111 48.25 23.2445V25.3461H49.1573C49.5116 25.3461 49.8517 25.4861 50.1033 25.7356C50.355 25.9851 50.4979 26.3239 50.5009 26.6782V40.8379C50.4979 41.1923 50.355 41.5311 50.1033 41.7806C49.8517 42.0301 49.5116 42.1701 49.1573 42.1701H30.9208C30.5664 42.1701 30.2264 42.0301 29.9747 41.7806C29.7231 41.5311 29.5802 41.1923 29.5771 40.8379V26.6782C29.5802 26.3239 29.7231 25.9851 29.9747 25.7356C30.2264 25.4861 30.5664 25.3461 30.9208 25.3461ZM34.366 25.3461H45.7121V23.2445C45.7317 21.6709 45.1387 20.1514 44.0584 19.0069C43.5498 18.4562 42.9326 18.0166 42.2458 17.716C41.559 17.4154 40.8174 17.2602 40.0677 17.2602C39.318 17.2602 38.5764 17.4154 37.8896 17.716C37.2028 18.0166 36.5857 18.4562 36.0771 19.0069C34.9915 20.1497 34.3906 21.6684 34.4004 23.2445V25.3461H34.366ZM38.9595 34.3839L37.5126 38.1622H42.6114L41.2678 34.3265C41.7964 34.0533 42.2167 33.6089 42.4601 33.0659C42.7035 32.5229 42.7555 31.9135 42.6077 31.3371C42.4599 30.7607 42.121 30.2515 41.6463 29.8926C41.1717 29.5337 40.5894 29.3464 39.9946 29.3613C39.3997 29.3762 38.8275 29.5924 38.3714 29.9745C37.9153 30.3566 37.6022 30.8821 37.4834 31.4652C37.3646 32.0482 37.447 32.6544 37.7172 33.1845C37.9874 33.7146 38.4294 34.1375 38.971 34.3839H38.9595Z" fill="url(#paint2_linear_900_13073)"/>
<path fill-rule="evenodd" clip-rule="evenodd" d="M30.9208 25.3461H31.828V23.2445C31.8228 21.0111 32.683 18.8626 34.2281 17.2499C34.9735 16.4559 35.8736 15.823 36.8731 15.3904C37.8725 14.9578 38.95 14.7346 40.039 14.7346C41.1281 14.7346 42.2055 14.9578 43.205 15.3904C44.2044 15.823 45.1046 16.4559 45.8499 17.2499C47.395 18.8626 48.2552 21.0111 48.25 23.2445V25.3461H49.1573C49.5116 25.3461 49.8517 25.4861 50.1033 25.7356C50.355 25.9851 50.4979 26.3239 50.5009 26.6782V40.8379C50.4979 41.1923 50.355 41.5311 50.1033 41.7806C49.8517 42.0301 49.5116 42.1701 49.1573 42.1701H30.9208C30.5664 42.1701 30.2264 42.0301 29.9747 41.7806C29.7231 41.5311 29.5802 41.1923 29.5771 40.8379V26.6782C29.5802 26.3239 29.7231 25.9851 29.9747 25.7356C30.2264 25.4861 30.5664 25.3461 30.9208 25.3461ZM34.366 25.3461H45.7121V23.2445C45.7317 21.6709 45.1387 20.1514 44.0584 19.0069C43.5498 18.4562 42.9326 18.0166 42.2458 17.716C41.559 17.4154 40.8174 17.2602 40.0677 17.2602C39.318 17.2602 38.5764 17.4154 37.8896 17.716C37.2028 18.0166 36.5857 18.4562 36.0771 19.0069C34.9915 20.1497 34.3906 21.6684 34.4004 23.2445V25.3461H34.366ZM38.9595 34.3839L37.5126 38.1622H42.6114L41.2678 34.3265C41.7964 34.0533 42.2167 33.6089 42.4601 33.0659C42.7035 32.5229 42.7555 31.9135 42.6077 31.3371C42.4599 30.7607 42.121 30.2515 41.6463 29.8926C41.1717 29.5337 40.5894 29.3464 39.9946 29.3613C39.3997 29.3762 38.8275 29.5924 38.3714 29.9745C37.9153 30.3566 37.6022 30.8821 37.4834 31.4652C37.3646 32.0482 37.447 32.6543 37.7172 33.1845C37.9874 33.7146 38.4294 34.1375 38.971 34.3839H38.9595Z" stroke="url(#paint3_linear_900_13073)" stroke-width="0.07" stroke-miterlimit="10"/>
<path d="M7.33099 11.4558C7.33099 15.0767 6.98637 18.0185 6.56185 18.0185C6.13732 18.0185 5.78271 15.0767 5.78271 11.4558C5.78271 7.83483 6.14231 4.91309 6.56185 4.91309C6.98138 4.91309 7.33099 7.82983 7.33099 11.4558Z" fill="url(#paint4_radial_900_13073)"/>
<path d="M6.56277 12.215C2.94181 12.215 9.05464e-05 11.8704 9.0565e-05 11.4459C9.05836e-05 11.0214 2.94181 10.6667 6.56277 10.6667C10.1837 10.6667 13.1055 11.0263 13.1055 11.4459C13.1055 11.8654 10.1887 12.215 6.56277 12.215Z" fill="url(#paint5_radial_900_13073)"/>
<path d="M72.3774 74.4372C72.3774 78.0582 72.0328 80.9999 71.6082 80.9999C71.1837 80.9999 70.8291 78.0582 70.8291 74.4372C70.8291 70.8163 71.1887 67.8945 71.6082 67.8945C72.0278 67.8945 72.3774 70.8113 72.3774 74.4372Z" fill="url(#paint6_radial_900_13073)"/>
<path d="M71.6092 75.1965C67.9882 75.1965 65.0465 74.8519 65.0465 74.4273C65.0465 74.0028 67.9882 73.6482 71.6092 73.6482C75.2301 73.6482 78.1519 74.0078 78.1519 74.4273C78.1519 74.8469 75.2351 75.1965 71.6092 75.1965Z" fill="url(#paint7_radial_900_13073)"/>
<defs>
<linearGradient id="paint0_linear_900_13073" x1="13.9386" y1="13.173" x2="64.5303" y2="86.4793" gradientUnits="userSpaceOnUse">
<stop stop-color="#F0EFEF" stop-opacity="0.3"/>
<stop offset="0.35" stop-color="#FAFBFC" stop-opacity="0.4"/>
<stop offset="0.72" stop-color="white" stop-opacity="0.5"/>
<stop offset="0.96" stop-color="white" stop-opacity="0.85"/>
<stop offset="1" stop-color="white" stop-opacity="0.9"/>
</linearGradient>
<linearGradient id="paint1_linear_900_13073" x1="64.0141" y1="80.8007" x2="23.231" y2="14.2055" gradientUnits="userSpaceOnUse">
<stop stop-color="white" stop-opacity="0.9"/>
<stop offset="0.28" stop-color="white" stop-opacity="0.5"/>
<stop offset="0.65" stop-color="#FAFBFC" stop-opacity="0.4"/>
<stop offset="1" stop-color="#F0EFEF" stop-opacity="0"/>
</linearGradient>
<linearGradient id="paint2_linear_900_13073" x1="40.039" y1="42.1701" x2="40.039" y2="14.7349" gradientUnits="userSpaceOnUse">
<stop stop-color="#79A540"/>
<stop offset="0.2" stop-color="#94C63D"/>
<stop offset="0.39" stop-color="#98CA3C"/>
<stop offset="0.59" stop-color="#93C53E"/>
<stop offset="0.74" stop-color="#9DCB3B"/>
<stop offset="0.9" stop-color="#A6CE39"/>
<stop offset="1" stop-color="#A6CE39"/>
</linearGradient>
<linearGradient id="paint3_linear_900_13073" x1="40.039" y1="42.216" x2="40.039" y2="14.689" gradientUnits="userSpaceOnUse">
<stop stop-color="white" stop-opacity="0.9"/>
<stop offset="0.28" stop-color="white" stop-opacity="0.5"/>
<stop offset="0.65" stop-color="#FAFBFC" stop-opacity="0.4"/>
<stop offset="1" stop-color="#F0EFEF" stop-opacity="0.3"/>
</linearGradient>
<radialGradient id="paint4_radial_900_13073" cx="0" cy="0" r="1" gradientUnits="userSpaceOnUse" gradientTransform="translate(6.43878 11.9345) scale(0.765945 6.56727)">
<stop stop-color="white"/>
<stop offset="0.07" stop-color="white" stop-opacity="0.93"/>
<stop offset="1" stop-color="white" stop-opacity="0"/>
</radialGradient>
<radialGradient id="paint5_radial_900_13073" cx="0" cy="0" r="1" gradientUnits="userSpaceOnUse" gradientTransform="translate(6.0841 11.3228) rotate(90) scale(0.765945 6.56727)">
<stop stop-color="white"/>
<stop offset="0.07" stop-color="white" stop-opacity="0.93"/>
<stop offset="1" stop-color="white" stop-opacity="0"/>
</radialGradient>
<radialGradient id="paint6_radial_900_13073" cx="0" cy="0" r="1" gradientUnits="userSpaceOnUse" gradientTransform="translate(71.4852 74.9159) scale(0.765945 6.56727)">
<stop stop-color="white"/>
<stop offset="0.07" stop-color="white" stop-opacity="0.93"/>
<stop offset="1" stop-color="white" stop-opacity="0"/>
</radialGradient>
<radialGradient id="paint7_radial_900_13073" cx="0" cy="0" r="1" gradientUnits="userSpaceOnUse" gradientTransform="translate(71.1305 74.3043) rotate(90) scale(0.765945 6.56727)">
<stop stop-color="white"/>
<stop offset="0.07" stop-color="white" stop-opacity="0.93"/>
<stop offset="1" stop-color="white" stop-opacity="0"/>
</radialGradient>
</defs>
</svg>
