<svg width="68" height="80" viewBox="0 0 68 80" fill="none" xmlns="http://www.w3.org/2000/svg">
<path fill-rule="evenodd" clip-rule="evenodd" d="M67.4285 55.1485C63.5967 55.5029 59.1447 54.041 54.139 50.8848H53.9064C48.9671 54.0189 44.5041 55.5029 40.6723 55.1485C40.0631 68.6484 45.0578 76.6665 53.9175 79.9999C54.0271 79.9778 54.1401 79.9778 54.2497 79.9999C63.1094 76.6665 68.1041 68.6484 67.4285 55.1485ZM59.8978 63.1887L53.6628 69.4347L53.552 69.5233C53.4337 69.6422 53.293 69.7365 53.1381 69.8009C52.9833 69.8653 52.8172 69.8984 52.6494 69.8984C52.4817 69.8984 52.3156 69.8653 52.1607 69.8009C52.0059 69.7365 51.8652 69.6422 51.7469 69.5233L51.6693 69.4347L48.2584 66.0238C48.0229 65.7801 47.8913 65.4545 47.8913 65.1156C47.8913 64.7768 48.0229 64.4512 48.2584 64.2075C48.3767 64.0887 48.5174 63.9943 48.6722 63.93C48.8271 63.8656 48.9932 63.8325 49.1609 63.8325C49.3287 63.8325 49.4948 63.8656 49.6496 63.93C49.8045 63.9943 49.9452 64.0887 50.0635 64.2075L52.655 66.799L58.0815 61.3724C58.2001 61.2519 58.3414 61.1561 58.4973 61.0908C58.6532 61.0254 58.8206 60.9918 58.9897 60.9918C59.1587 60.9918 59.3261 61.0254 59.482 61.0908C59.6379 61.1561 59.7792 61.2519 59.8978 61.3724C60.1341 61.6118 60.2689 61.9331 60.2743 62.2695C60.2712 62.6128 60.1364 62.9418 59.8978 63.1887Z" fill="url(#paint0_linear_900_13132)"/>
<path d="M40.2757 45.9325L40.0152 46.1257C39.9972 45.778 39.9434 45.4399 39.9434 45.1018C39.9215 44.8966 39.8598 44.6985 39.7623 44.5205C39.6649 44.3425 39.5338 44.1884 39.3776 44.0683C39.0417 43.9903 38.6909 44.0451 38.3897 44.2228C38.1651 44.474 38.1651 44.4739 38.1112 44.9086V46.2609C37.8658 46.0586 37.6077 45.8747 37.3389 45.7103C37.1571 45.6537 36.9654 45.6443 36.7796 45.6829C36.5938 45.7215 36.4192 45.8071 36.2702 45.9325C36.1571 46.095 36.0778 46.2817 36.0375 46.48C35.9972 46.6783 35.9969 46.8836 36.0366 47.082C36.1803 47.3911 36.1803 47.3911 36.6833 47.7678C36.8745 47.9056 37.0521 48.0642 37.2131 48.2411M40.2757 45.9325C40.4437 45.803 40.6371 45.7165 40.841 45.6796C41.0449 45.6428 41.254 45.6566 41.4522 45.72M40.2757 45.9325L40.0152 46.1064C40.0062 45.7586 39.9523 45.4206 39.9523 45.0825C39.9305 44.8761 39.8679 44.6772 39.7688 44.4989C39.6696 44.3207 39.5363 44.1673 39.3776 44.0489C39.0453 43.9798 38.7011 44.0415 38.4076 44.2228C38.1292 44.474 38.1292 44.474 38.1292 44.9086V46.2609C37.8884 46.0563 37.6332 45.8722 37.3658 45.7103C37.1841 45.6537 36.9924 45.6443 36.8066 45.6829C36.6208 45.7215 36.4461 45.8071 36.2971 45.9325C36.1763 46.1019 36.0925 46.2985 36.0521 46.5075C36.0117 46.7166 36.0156 46.9327 36.0636 47.1399C36.2073 47.449 36.2073 47.449 36.7102 47.8257C36.8897 47.9468 37.0581 48.0859 37.2131 48.2411M41.4522 45.72C41.6154 45.8398 41.7501 45.9994 41.8453 46.1857C41.9404 46.3719 41.9935 46.5797 42 46.7922M41.4522 45.72C41.6139 45.8415 41.7475 46.0014 41.8425 46.1873C41.9375 46.3732 41.9914 46.5802 42 46.7922M42 46.7922C41.6976 47.4204 41.245 47.9505 40.6888 48.328L40.9313 48.5405L41.2546 48.8303L41.5689 49.1201M42 46.7922C41.6996 47.425 41.2428 47.9564 40.6798 48.328L40.9313 48.5502L41.2546 48.84L41.5689 49.1201M41.5689 49.1201C41.6933 49.243 41.7926 49.3923 41.8606 49.5585C41.9287 49.7248 41.9639 49.9044 41.9641 50.086M41.9641 50.086C41.9328 50.2845 41.8506 50.4697 41.7268 50.6206C41.603 50.7716 41.4424 50.8824 41.2633 50.9407C41.0841 50.9989 40.8934 51.0022 40.7125 50.9502C40.5317 50.8982 40.368 50.7929 40.2397 50.6463C40.0871 50.54 39.9434 50.4145 39.7997 50.2985M41.9641 50.086C41.8941 50.3474 41.7608 50.5841 41.5779 50.7719C41.3612 50.8704 41.1256 50.9113 40.8911 50.8911C40.6566 50.8709 40.4301 50.7903 40.2308 50.6559L39.7997 50.2985M39.7997 50.2985L39.5751 50.115L39.0273 49.6707M39.0273 49.6707L38.4885 50.0571L38.1831 50.2792C37.9709 50.4227 37.7697 50.5842 37.5814 50.7622M39.0273 49.6707L38.4795 50.0571L38.1741 50.2792C37.9664 50.4253 37.7684 50.5867 37.5814 50.7622M37.5814 50.7622C37.4385 50.8747 37.2732 50.9498 37.0986 50.9817C36.924 51.0135 36.7449 51.0012 36.5755 50.9457C36.4104 50.8475 36.2692 50.7089 36.1631 50.5411C36.057 50.3733 35.9891 50.181 35.9648 49.9798C36.0995 49.294 36.4318 49.1008 36.9617 48.7144L37.2131 48.5116V48.2411M21.4157 44.0683C21.5765 44.1842 21.7114 44.337 21.8108 44.5157C21.9102 44.6944 21.9715 44.8946 21.9904 45.1018C21.9904 45.4399 22.0443 45.778 22.0623 46.1257L22.2868 45.9229C22.4578 45.8 22.6511 45.7176 22.8539 45.6809C23.0567 45.6443 23.2644 45.6543 23.4633 45.7103C23.6884 45.8694 23.8588 46.1036 23.9483 46.3768C23.9887 46.7191 23.9051 47.065 23.7148 47.3428C23.4633 47.5746 23.1939 47.7775 22.9245 47.9803C22.8363 48.0214 22.7581 48.0837 22.6958 48.1624C22.6335 48.2411 22.5889 48.3341 22.5652 48.4343L22.7718 48.5309C23.292 48.7911 23.7113 49.2387 23.9573 49.7963C23.9486 50.1616 23.8067 50.5086 23.5621 50.7622C23.2784 50.8892 22.9692 50.9357 22.664 50.8974C22.3849 50.7517 22.1252 50.5665 21.8916 50.3468L21.4157 49.9991L21.0205 49.69L20.787 49.8542L20.1673 50.3082C19.9518 50.4531 19.7452 50.6173 19.5386 50.7815C19.1551 50.9455 18.7277 50.9455 18.3442 50.7815C18.0837 50.5014 18.0837 50.5014 18.0029 49.9991C17.9917 49.8376 18.0132 49.6753 18.0659 49.5236C18.1186 49.3718 18.2013 49.2342 18.3082 49.1201C19.0088 48.444 19.0088 48.444 19.359 48.444C19.0654 48.0786 18.7305 47.7541 18.3621 47.478C18.2406 47.3786 18.1447 47.2474 18.0834 47.097C18.0221 46.9466 17.9975 46.7818 18.0119 46.6183C18.0837 46.0774 18.0837 46.0774 18.2903 45.7973C18.6253 45.6358 18.9983 45.5886 19.359 45.6621C19.6374 45.8746 19.6374 45.8746 19.8709 46.0774V45.7297L19.9338 45.2757L19.9877 44.8313C20.2212 44.0006 20.6253 44.0006 21.4157 44.0683ZM30.3248 44.0683C30.5295 44.211 30.704 44.3986 30.8367 44.6188C30.8687 44.9011 30.8687 45.1866 30.8367 45.4689V46.2706L31.169 46.0001C31.3354 45.8594 31.5294 45.7611 31.7363 45.7126C31.9432 45.664 32.1576 45.6666 32.3634 45.72C32.5289 45.8145 32.6693 45.9528 32.7715 46.1218C32.8736 46.2908 32.9341 46.4849 32.9472 46.6859C32.8304 47.3524 32.4353 47.6519 31.9413 48.0189L31.7258 48.2025V48.4729C31.8717 48.6062 32.0279 48.7257 32.1928 48.8303C32.6957 49.2167 32.6957 49.2167 32.8394 49.5161C32.8854 49.7123 32.8907 49.917 32.855 50.1156C32.8193 50.3142 32.7435 50.502 32.6329 50.6656C32.4819 50.787 32.3073 50.8701 32.1222 50.9086C31.9371 50.9471 31.7463 50.9399 31.5641 50.8878C31.2771 50.705 31.0038 50.4983 30.7469 50.2696L30.5403 50.0957L30.0374 49.6514C29.5196 49.9599 29.0373 50.3327 28.6004 50.7622C28.2694 50.978 27.8746 51.0505 27.4958 50.965C27.1976 50.7035 26.9942 50.3378 26.921 49.9315C27.0647 49.2167 27.7382 48.7917 28.2681 48.357L28.0167 48.1445C27.1186 47.3718 27.1186 47.3718 26.9659 46.8115C26.9581 46.4655 27.0559 46.1262 27.2443 45.8456C27.6078 45.6842 28.0065 45.6373 28.3939 45.7103C28.6723 45.9229 28.6723 45.9229 28.9058 46.1257V45.8166C28.9597 44.7154 28.9597 44.7154 29.2381 44.2421C29.3972 44.1315 29.5765 44.0588 29.7639 44.0288C29.9514 43.9988 30.1426 44.0123 30.3248 44.0683ZM21.4157 44.0489C21.5756 44.1659 21.7099 44.3189 21.8092 44.4974C21.9084 44.676 21.9703 44.8756 21.9904 45.0825C21.9904 45.4206 22.0443 45.7586 22.0533 46.1064L22.3137 45.9325C22.4848 45.8097 22.678 45.7272 22.8808 45.6906C23.0836 45.654 23.2913 45.664 23.4903 45.72C23.7179 45.8805 23.8887 46.1186 23.9752 46.3962C24.0176 46.7386 23.9338 47.0852 23.7417 47.3621C23.4903 47.5939 23.2208 47.7968 22.9514 47.9996C22.8632 48.0407 22.785 48.103 22.7227 48.1817C22.6605 48.2604 22.6158 48.3534 22.5922 48.4536L22.7987 48.5502C23.3176 48.7908 23.7429 49.2176 24.0022 49.7576C24.0025 49.9468 23.9659 50.134 23.8947 50.3071C23.8236 50.4801 23.7194 50.6352 23.589 50.7622C23.3046 50.8863 22.9961 50.9328 22.6909 50.8974C22.416 50.7491 22.1595 50.5641 21.9276 50.3468L21.4157 49.9798L21.0205 49.6707L20.787 49.8349L20.1673 50.2889C19.9518 50.4338 19.7452 50.598 19.5386 50.7622C19.1521 50.9268 18.7217 50.9268 18.3352 50.7622C18.0837 50.4821 18.0837 50.4821 18.0029 49.9798C17.9923 49.8191 18.0132 49.6578 18.0642 49.5064C18.1153 49.355 18.1954 49.2168 18.2993 49.1008C19.0088 48.4246 19.0088 48.4246 19.359 48.4246C19.0633 48.0615 18.7287 47.7372 18.3621 47.4587C18.2406 47.3592 18.1447 47.2281 18.0834 47.0777C18.0221 46.9273 17.9975 46.7625 18.0119 46.599C18.0837 46.0581 18.0837 46.0581 18.2903 45.778C18.6253 45.6165 18.9983 45.5693 19.359 45.6427C19.6374 45.8552 19.6374 45.8552 19.8709 46.0581L19.9158 45.7103L19.9697 45.2564L20.0326 44.812C20.2481 44.0006 20.6523 43.933 21.4157 44.0489ZM30.3966 44.0489C30.6014 44.1917 30.7758 44.3793 30.9085 44.5995C30.9406 44.8818 30.9406 45.1673 30.9085 45.4495V46.2706L31.2408 46.0001C31.4073 45.8594 31.6013 45.7611 31.8081 45.7125C32.015 45.664 32.2294 45.6666 32.4353 45.72C32.6008 45.8145 32.7412 45.9528 32.8433 46.1218C32.9454 46.2908 33.0059 46.4849 33.019 46.6859C32.9023 47.3524 32.5071 47.6519 32.0132 48.0189L31.7976 48.2025V48.4729C31.9527 48.6281 32.1211 48.7672 32.3006 48.8883C32.8035 49.2747 32.8035 49.2747 32.9472 49.5741C32.9907 49.7705 32.9948 49.9746 32.9592 50.1728C32.9236 50.371 32.8491 50.5588 32.7406 50.7236C32.5894 50.8443 32.4148 50.927 32.2298 50.9655C32.0448 51.0039 31.8541 50.9972 31.6719 50.9457C31.3849 50.763 31.1116 50.5563 30.8546 50.3275L30.6481 50.1537L30.1362 49.7093C29.6198 49.9947 29.1348 50.3414 28.6902 50.7429C28.3592 50.9587 27.9644 51.0312 27.5856 50.9457C27.2841 50.6898 27.0771 50.3269 27.0018 49.9218C27.1545 49.1974 27.8281 48.7724 28.3489 48.3377L28.1065 48.1252C27.2084 47.3524 27.2084 47.3524 27.0557 46.7922C27.0479 46.4462 27.1457 46.1069 27.3341 45.8263C27.6976 45.6649 28.0963 45.618 28.4837 45.691C28.7621 45.9035 28.7621 45.9035 28.9956 46.1064V45.7973C29.0495 44.6961 29.0495 44.6961 29.3279 44.2228C29.4854 44.1166 29.6616 44.0463 29.8454 44.0164C30.0293 43.9865 30.2169 43.9976 30.3966 44.0489Z" stroke="url(#paint1_linear_900_13132)" stroke-width="0.11" stroke-miterlimit="10"/>
<path d="M59.7759 53.7865C59.7759 52.9891 59.7759 52.1917 59.8313 51.3944C59.8313 49.9104 59.8313 48.4375 59.9531 46.9645C60.0528 45.104 60.1303 43.2435 60.1193 41.4272C60.1193 36.9974 59.2665 33.8965 56.0992 30.7735L55.8445 30.5298C55.3018 29.9872 54.737 29.4223 54.1722 28.9683C51.9573 27.2074 49.6759 27.2739 47.0069 27.5286H46.5861C46.5861 24.7969 46.5861 22.0614 46.5861 19.3223V15.3354C46.5861 14.1615 46.5861 12.9987 46.5861 11.8248V6.37609C46.6346 6.09739 46.6135 5.81102 46.5246 5.54246C46.4357 5.2739 46.2818 5.03146 46.0767 4.83672L45.6669 4.41588L45.1907 3.93967L44.4487 3.1866L43.9614 2.69932L43.7288 2.46675L43.2859 2.02377L42.8096 1.58078C42.6435 1.38144 42.4774 1.19317 42.3002 1.0049C41.4918 0.307203 41.4918 0.307203 39.6091 0.340426H31.9565H27.7703H19.2429C18.84 0.333464 18.4412 0.422187 18.0792 0.599305C17.7173 0.776424 17.4026 1.03688 17.1608 1.35929L16.8951 1.62508L16.3192 2.18989C16.0312 2.4889 15.7322 2.78792 15.4332 3.07586L14.8462 3.66281L14.5694 3.93967L14.3036 4.20547L14.0489 4.46018L13.8274 4.68168L13.5948 4.94746C13.3103 5.27989 13.1 5.66914 12.9778 6.08926C12.8555 6.50938 12.8243 6.95072 12.886 7.38388C12.886 7.68289 12.886 7.99298 12.886 8.292V10.0639C12.886 10.662 12.886 11.26 12.886 11.858C12.886 12.9655 12.886 14.0729 12.886 15.2469C12.886 16.4208 12.886 17.8494 12.886 19.1451V27.1853V27.5286C12.2991 27.5286 11.7786 27.5286 11.1363 27.4621H10.4053C8.68877 27.3736 7.58131 27.3846 6.19698 28.5696L5.82044 28.924C5.65432 29.079 5.49928 29.223 5.34424 29.3891L5.00092 29.7878L4.61331 30.2419L3.80486 31.1611C3.15146 31.8588 2.50913 32.5565 1.87788 33.2763L1.24663 34.0072L0.659675 34.5277C-0.0158763 35.314 -0.0158785 35.314 0.0062707 37.3739C0.0062707 37.6176 0.0062707 37.8612 0.0062707 38.0938C0.0062707 38.7582 0.0062707 39.4227 0.0062707 40.0761C0.0062707 40.7295 0.0062707 41.4826 0.0062707 42.1914C0.0062707 43.3653 0.0062707 44.5392 0.0062707 45.7131C0.0062707 47.3854 0.0062707 49.0355 0.0062707 50.7299C0.0062707 52.0367 0.0062707 53.3435 0.0062707 54.6503V55.0711C0.0062707 55.8796 0.0062707 56.6991 0.0062707 57.5186V58.2606C0.0062707 58.604 0.0062707 58.9473 0.0062707 59.2906V59.6007C0.0062707 61.9928 2.37624 64.4846 3.97098 66.1458C7.81387 69.9111 7.81387 69.9111 18.1022 69.9H18.4566C21.4689 69.9 24.4812 69.8114 27.4935 69.7007C29.2432 69.6343 30.993 69.59 32.7539 69.5567H33.1304H35.0131L42.6214 69.4017C42.422 68.9033 42.2227 68.405 42.0455 67.8845H41.8572H39.6423H38.6456C36.5746 67.8845 34.5148 67.8845 32.4549 67.8845C30.694 67.8845 28.9442 67.8845 27.1834 67.8845C25.1235 67.8845 23.0525 67.9398 20.9816 67.8845H19.9849C19.2207 67.8845 18.4676 67.8845 17.7146 67.8845H15.555C11.247 67.7959 8.47835 66.777 5.49928 63.7315L5.26671 63.4878C4.39981 62.6139 3.58971 61.6855 2.84137 60.7081C1.71518 58.9773 1.31722 56.8721 1.73391 54.8497C1.82251 54.2738 1.86681 53.7422 1.90003 53.1331C1.97755 51.8927 2.09937 50.6635 2.26549 49.4342C2.94104 49.4342 3.60552 49.4342 4.27 49.4342H5.08952C5.87582 49.4342 6.65104 49.4342 7.42626 49.4342C7.79725 49.3769 8.1519 49.2417 8.46686 49.0374C8.78182 48.8332 9.04994 48.5645 9.25357 48.2492C9.40863 47.9976 9.59058 47.7637 9.79623 47.5515L10.0399 47.2746C10.4275 46.8316 10.8262 46.3997 11.247 45.99C11.6678 45.5802 12.3545 44.8825 12.886 44.2734C13.2616 43.8277 13.6609 43.4026 14.0821 42.9998C14.6469 42.435 15.1896 41.8924 15.7211 41.2833C16.1679 40.7611 16.641 40.2621 17.1387 39.7882C17.5374 39.3895 17.9361 38.9908 18.3126 38.57L18.5784 38.2599L19.2429 37.6397L19.8077 36.9752C20.0456 36.7113 20.3413 36.506 20.6718 36.3753C21.0022 36.2447 21.3584 36.1923 21.7125 36.2222H24.7802C25.7326 36.2222 26.6961 36.2222 27.6485 36.2222H30.6165L37.0176 36.2886L37.1394 36.5544L37.3056 36.8977C37.6527 37.7048 38.2774 38.3609 39.0664 38.7472C40.0228 39.1432 41.0921 39.1708 42.0676 38.8247C42.5656 38.6214 43.018 38.3208 43.3984 37.9405C43.7787 37.5602 44.0793 37.1078 44.2826 36.6098C44.6067 35.5913 44.5516 34.49 44.1275 33.5089C43.6637 32.6136 42.8691 31.9342 41.9126 31.6151C40.7408 31.3613 39.5166 31.5423 38.4684 32.1246L38.2026 32.3461C37.91 32.5664 37.6715 32.8504 37.5049 33.1766L37.3388 33.52L37.1616 33.8633L37.0398 34.1291H30.8601H21.2031C20.4899 34.0025 19.7551 34.1361 19.1321 34.5056L18.8996 34.8378C18.1243 35.6131 17.327 36.3661 16.6182 37.1967C16.2417 37.6397 15.843 38.0605 15.4332 38.4703C15.0234 38.8801 14.3257 39.5778 13.7831 40.1869C13.3401 40.709 12.8707 41.208 12.3766 41.6819C11.8783 42.1803 11.391 42.6676 10.9369 43.1992C10.4829 43.7307 10.1506 44.063 9.74085 44.4727C9.33109 44.8825 9.23142 44.9711 8.98778 45.2258C8.67202 45.7582 8.3008 46.2556 7.88032 46.7098C7.01664 47.1971 6.00801 47.3619 5.03414 47.175H4.40289H2.37624C2.24334 45.9567 2.14367 44.7385 2.07722 43.5203C2.07722 42.878 2.01078 42.2467 1.94433 41.6155C1.87788 40.9842 1.80036 40.1869 1.76714 39.4559C1.77198 38.2655 2.02345 37.089 2.50569 36.0007C2.98793 34.9123 3.69047 33.9356 4.56901 33.1323L4.9677 32.7226C8.48942 29.0901 12.0997 28.7689 16.9504 28.8575H19.3093H20.3503C22.5653 28.8575 24.6584 28.8575 26.8179 28.8575C28.6563 28.8575 30.4947 28.8575 32.3552 28.8575C34.5701 28.8575 36.6743 28.8575 38.8339 28.8575H42.2448H43.8839C48.0479 28.8575 51.1156 29.2784 54.1611 32.3128L54.5709 32.7337C55.0803 33.2652 55.5787 33.8411 56.0549 34.3727C56.7837 35.3495 57.3 36.4679 57.5709 37.6561C57.8417 38.8443 57.861 40.0761 57.6275 41.2722C57.55 41.8924 57.5167 42.5125 57.4835 43.1438C57.4171 44.506 57.3063 45.846 57.1513 47.186H55.1578H54.3383H53.1423H52.7546C52.3338 47.186 51.913 47.186 51.4921 47.186C51.0713 47.186 51.171 47.3411 50.7944 47.7951C50.4179 48.2492 49.8642 48.814 49.3769 49.3013C48.8896 49.7886 48.5795 50.0876 48.203 50.4973C47.6714 51.1286 47.0955 51.7155 46.5307 52.2914C45.9659 52.8673 45.5561 53.2771 45.1132 53.7976C44.6702 54.3181 44.4708 54.4953 44.1386 54.8275C45.4956 54.5997 46.8247 54.2285 48.1033 53.72L48.3469 53.4543C48.8232 52.9891 49.2883 52.5351 49.7313 52.0367L49.986 51.7377L50.5508 51.1064C50.8255 50.6634 51.1327 50.2414 51.47 49.8439C51.9048 49.5209 52.4021 49.292 52.9303 49.1719C53.4585 49.0518 54.0059 49.043 54.5377 49.1462H55.2021H57.1513C57.3063 50.2537 57.4281 51.3612 57.4946 52.4686M39.3544 34.1291C39.6124 33.9138 39.9159 33.7601 40.2421 33.6795C40.5683 33.5989 40.9085 33.5936 41.237 33.6639C41.7512 33.926 42.1469 34.3732 42.3445 34.9154C42.3989 35.499 42.2197 36.0805 41.8462 36.5322C41.4098 36.8853 40.8556 37.0594 40.2957 37.0195C39.7458 36.8304 39.2923 36.4326 39.0332 35.9121C38.958 35.609 38.9478 35.2935 39.0031 34.9862C39.0585 34.6789 39.1782 34.3868 39.3544 34.1291ZM39.443 14.0729C39.443 14.4163 39.443 14.7596 39.443 15.1029C39.443 15.8781 39.443 15.8781 39.443 16.6533C39.443 17.4285 39.443 18.4031 39.3765 19.2559C39.299 23.431 39.299 23.431 39.2325 27.5286H20.3503C20.3503 24.7378 20.2396 22.0467 20.1953 19.3445C20.1953 18.1373 20.1288 16.9302 20.1067 15.7231V14.7374C19.9653 13.4373 20.0477 12.1225 20.3503 10.8502C21.4578 8.63531 23.3183 7.94868 25.6551 7.99298H26.541C27.1723 7.99298 27.8035 7.99298 28.4237 7.99298C29.2322 7.99298 30.0406 7.99298 30.8491 7.99298H33.6399C34.0718 7.99298 34.5037 7.99298 34.9245 7.99298C35.6015 7.98914 36.2715 8.12934 36.8902 8.4043C37.5088 8.67925 38.0619 9.08265 38.5127 9.58772C39.3806 10.9106 39.7132 12.514 39.443 14.0729ZM15.854 4.88101C21.4578 1.68045 21.4578 1.68045 28.4569 2.20096C29.4426 2.20096 30.4282 2.20096 31.4139 2.20096C32.3995 2.20096 33.6288 2.20096 34.6698 2.20096C35.1239 2.20096 35.589 2.20096 36.0431 2.20096H37.6599C38.7295 2.20634 39.785 2.44497 40.7528 2.90019C41.7206 3.35542 42.5775 4.01629 43.2637 4.83672C44.7588 6.60866 44.8917 8.55779 44.792 10.8059C44.792 11.3707 44.792 11.9134 44.792 12.5225C44.792 13.63 44.792 14.7374 44.7145 15.7895C44.7145 17.0409 44.648 18.2813 44.6259 19.5327C44.5816 22.2128 44.5151 24.8965 44.4265 27.584H41.5582C41.5582 25.5352 41.5582 23.4974 41.5028 21.4597C41.5028 20.4187 41.5028 19.3777 41.5028 18.3367C41.5028 17.2957 41.5028 16.2989 41.5028 15.2801C41.5028 14.8925 41.5028 14.5049 41.5028 14.1726C41.5028 13.8404 41.5028 13.0652 41.5028 12.5003V10.9499C41.5626 10.3825 41.4257 9.8117 41.1152 9.33301L40.8605 9.08937L40.5061 8.84573L40.2071 8.55779L39.6423 7.99298L39.0332 7.42818L38.7563 7.14024C38.4981 6.82979 38.1722 6.58256 37.8036 6.41748C37.435 6.2524 37.0336 6.17384 36.63 6.18782H33.7063H30.982H28.767H24.005H22.676C21.3064 6.43634 20.0807 7.19155 19.2429 8.30307C17.7035 10.1193 17.7035 10.1193 17.9139 17.6943C17.9139 18.7354 17.9139 19.7764 17.9139 20.8063C17.9139 22.833 17.9693 24.8596 18.0136 26.8752V27.5286H15.0234C14.9348 25.0147 14.8573 22.5007 14.8241 19.9757C14.8241 18.7575 14.8241 17.5282 14.7355 16.2989C14.6912 12.7994 14.0378 8.01513 15.854 4.88101Z" fill="url(#paint2_linear_900_13132)"/>
<path d="M35.6776 60.5525C35.3232 60.5525 34.9577 60.5525 34.5701 60.5525C33.6288 60.5525 32.6763 60.5525 31.735 60.5525C30.7937 60.5525 29.7748 60.5525 28.8002 60.4861C26.6961 60.4861 24.5919 60.3975 22.4877 60.3421C22.2688 59.7369 21.934 59.1801 21.5021 58.7031C21.1539 58.3738 20.7431 58.1179 20.2942 57.9505C19.8452 57.7831 19.3672 57.7076 18.8884 57.7285C18.3187 57.7208 17.753 57.8265 17.2245 58.0394C16.6959 58.2523 16.215 58.5683 15.8097 58.9689C15.1779 59.9865 14.9231 61.1936 15.0899 62.3798C15.3355 63.3047 15.9004 64.1128 16.6846 64.6612C17.206 64.9618 17.7819 65.1558 18.3788 65.2318C18.9758 65.3079 19.582 65.2645 20.162 65.1042C20.8856 64.8496 21.5047 64.3629 21.9229 63.7199L22.1222 63.299L22.3327 62.8671L22.4877 62.5349H38.9003C39.2259 62.5769 39.5567 62.5461 39.8689 62.4446C40.1811 62.3431 40.4668 62.1734 40.7054 61.9479L40.8937 61.7043C40.794 60.8072 40.7387 59.8548 40.7054 58.8913C40.4396 59.1793 40.1628 59.4783 39.8748 59.7552C38.6234 60.6633 37.228 60.6079 35.6776 60.5525ZM20.4721 62.0033C20.2532 62.3995 19.9269 62.7258 19.5308 62.9446C19.0918 63.0936 18.6199 63.1166 18.1686 63.0111C17.7244 62.7606 17.3744 62.3717 17.1719 61.9036C17.1114 61.4765 17.1649 61.0409 17.3269 60.6411C17.4966 60.3871 17.7252 60.1778 17.9933 60.0313C18.2613 59.8847 18.5609 59.8052 18.8663 59.7995C19.1586 59.82 19.4418 59.9101 19.6923 60.0623C19.9427 60.2145 20.1531 60.4243 20.306 60.6743C20.5185 61.0832 20.5774 61.5547 20.4721 62.0033Z" fill="url(#paint3_linear_900_13132)"/>
<path d="M14.3154 6.73147C14.3154 10.4569 13.9608 13.4835 13.524 13.4835C13.0872 13.4835 12.7224 10.4569 12.7224 6.73147C12.7224 3.00604 13.0924 0 13.524 0C13.9557 0 14.3154 3.0009 14.3154 6.73147Z" fill="url(#paint4_radial_900_13132)"/>
<path d="M13.5249 7.51238C9.79945 7.51237 6.77286 7.15782 6.77286 6.72104C6.77286 6.28427 9.79945 5.91943 13.5249 5.91943C17.2503 5.91943 20.2563 6.28941 20.2563 6.72104C20.2563 7.15268 17.2555 7.51238 13.5249 7.51238Z" fill="url(#paint5_radial_900_13132)"/>
<path d="M59.9931 53.4712C59.9931 57.1966 59.6385 60.2232 59.2018 60.2232C58.765 60.2232 58.4001 57.1966 58.4001 53.4712C58.4001 49.7458 58.7701 46.7397 59.2018 46.7397C59.6334 46.7397 59.9931 49.7406 59.9931 53.4712Z" fill="url(#paint6_radial_900_13132)"/>
<path d="M59.2026 54.2521C55.4772 54.2521 52.4506 53.8976 52.4506 53.4608C52.4506 53.024 55.4772 52.6592 59.2026 52.6592C62.928 52.6592 65.9341 53.0292 65.9341 53.4608C65.9341 53.8924 62.9332 54.2521 59.2026 54.2521Z" fill="url(#paint7_radial_900_13132)"/>
<defs>
<linearGradient id="paint0_linear_900_13132" x1="43.8396" y1="52.0365" x2="64.3276" y2="72.5246" gradientUnits="userSpaceOnUse">
<stop stop-color="#79A540"/>
<stop offset="0.2" stop-color="#94C63D"/>
<stop offset="0.39" stop-color="#98CA3C"/>
<stop offset="0.59" stop-color="#93C53E"/>
<stop offset="0.74" stop-color="#9DCB3B"/>
<stop offset="0.9" stop-color="#A6CE39"/>
<stop offset="1" stop-color="#A6CE39"/>
</linearGradient>
<linearGradient id="paint1_linear_900_13132" x1="38.9913" y1="43.9522" x2="38.9913" y2="51.0036" gradientUnits="userSpaceOnUse">
<stop stop-color="white" stop-opacity="0.9"/>
<stop offset="0.28" stop-color="white" stop-opacity="0.5"/>
<stop offset="0.65" stop-color="#FAFBFC" stop-opacity="0.4"/>
<stop offset="1" stop-color="#F0EFEF" stop-opacity="0"/>
</linearGradient>
<linearGradient id="paint2_linear_900_13132" x1="47.6702" y1="67.9853" x2="16.3332" y2="4.78019" gradientUnits="userSpaceOnUse">
<stop stop-color="white" stop-opacity="0.9"/>
<stop offset="0.04" stop-color="white" stop-opacity="0.85"/>
<stop offset="0.28" stop-color="white" stop-opacity="0.5"/>
<stop offset="0.65" stop-color="#FAFBFC" stop-opacity="0.4"/>
<stop offset="1" stop-color="#F0EFEF" stop-opacity="0.3"/>
</linearGradient>
<linearGradient id="paint3_linear_900_13132" x1="37.5786" y1="65.8607" x2="16.8643" y2="53.1134" gradientUnits="userSpaceOnUse">
<stop stop-color="white" stop-opacity="0.9"/>
<stop offset="0.04" stop-color="white" stop-opacity="0.85"/>
<stop offset="0.28" stop-color="white" stop-opacity="0.5"/>
<stop offset="0.65" stop-color="#FAFBFC" stop-opacity="0.4"/>
<stop offset="1" stop-color="#F0EFEF" stop-opacity="0.3"/>
</linearGradient>
<radialGradient id="paint4_radial_900_13132" cx="0" cy="0" r="1" gradientUnits="userSpaceOnUse" gradientTransform="translate(13.3974 7.22394) scale(0.788044 6.75675)">
<stop stop-color="white"/>
<stop offset="0.07" stop-color="white" stop-opacity="0.93"/>
<stop offset="1" stop-color="white" stop-opacity="0"/>
</radialGradient>
<radialGradient id="paint5_radial_900_13132" cx="0" cy="0" r="1" gradientUnits="userSpaceOnUse" gradientTransform="translate(13.0324 6.59443) rotate(90) scale(0.788044 6.75675)">
<stop stop-color="white"/>
<stop offset="0.07" stop-color="white" stop-opacity="0.93"/>
<stop offset="1" stop-color="white" stop-opacity="0"/>
</radialGradient>
<radialGradient id="paint6_radial_900_13132" cx="0" cy="0" r="1" gradientUnits="userSpaceOnUse" gradientTransform="translate(59.0751 53.9637) scale(0.788044 6.75675)">
<stop stop-color="white"/>
<stop offset="0.07" stop-color="white" stop-opacity="0.93"/>
<stop offset="1" stop-color="white" stop-opacity="0"/>
</radialGradient>
<radialGradient id="paint7_radial_900_13132" cx="0" cy="0" r="1" gradientUnits="userSpaceOnUse" gradientTransform="translate(58.7101 53.3342) rotate(90) scale(0.788044 6.75675)">
<stop stop-color="white"/>
<stop offset="0.07" stop-color="white" stop-opacity="0.93"/>
<stop offset="1" stop-color="white" stop-opacity="0"/>
</radialGradient>
</defs>
</svg>
