<svg width="93" height="81" viewBox="0 0 93 81" fill="none" xmlns="http://www.w3.org/2000/svg">
<path d="M45.5679 54.8492V11.4343C45.5679 9.36437 47.0515 9.14901 47.578 9.13704H64.5081C64.9627 9.13704 66.3028 9.29258 65.4533 10.9198L52.2083 36.1175C51.9479 36.787 51.9479 37.5298 52.2083 38.1993C53.998 41.1249 56.5089 43.542 59.5006 45.2189C62.4922 46.8958 65.8644 47.7765 69.2939 47.7765C72.7235 47.7765 76.0957 46.8958 79.0873 45.2189C82.0789 43.542 84.5899 41.1249 86.3796 38.1993C86.6246 37.4522 86.5775 36.64 86.2479 35.9261V35.8423L85.9728 35.3637L71.7706 8.27558C71.3682 7.45984 70.7537 6.76732 69.9917 6.27055C69.2297 5.77378 68.3482 5.49103 67.4394 5.4519H19.8557C18.9378 5.52055 18.0533 5.82546 17.288 6.33701C16.5228 6.84856 15.9029 7.54935 15.4886 8.37129L1.53771 34.9808L1.442 35.1723C1.19963 35.6214 1.05321 36.1161 1.01202 36.6248C0.97083 37.1335 1.03576 37.6452 1.2027 38.1276C2.96985 41.0312 5.4469 43.4373 8.40062 45.1194C11.3543 46.8014 14.6876 47.7041 18.0864 47.7424C21.4853 47.7807 24.838 46.9533 27.8289 45.3383C30.8198 43.7232 33.3504 41.3735 35.1825 38.5104C35.4643 37.5712 35.3875 36.5607 34.9671 35.6748L21.806 10.5489L21.6743 10.3096C21.4949 9.90278 21.3393 9.11311 22.7512 9.11311H40.0043C40.4949 9.11311 41.8708 9.37633 41.8708 11.6736V54.7535M28.8173 41.1187C26.5918 42.71 22.6554 45.0551 18.5994 45.2107H18.3721C18.1968 45.223 18.0209 45.223 17.8456 45.2107H17.5824C13.3828 45.2107 9.47033 42.5306 7.43632 40.8914C7.43632 40.8914 5.82109 39.6112 7.43632 39.6112H28.7335C28.7335 39.6112 30.3368 40.0419 28.8173 41.1187ZM30.7197 35.1364L30.9111 35.4834C31.1863 36.0577 31.617 37.1704 30.7197 37.1704H5.59376C4.76819 37.1704 4.9357 36.4046 5.19892 35.7825L5.59376 35.0287L17.5585 12.188C17.5585 12.188 18.1687 11.2428 18.6592 12.188L30.7197 35.1364ZM57.76 37.1704C56.061 37.1704 56.372 35.9739 56.6472 35.4116L56.8147 35.0766L68.5402 12.7624C68.5402 12.7624 69.3538 11.2189 70.1554 12.7624L81.8449 35.0167C82.0842 35.4953 82.826 37.1943 81.0912 37.1943L57.76 37.1704ZM59.1 41.1307L58.6812 40.7598C57.7958 39.7428 59.3872 39.6471 59.3872 39.6471H79.4041C79.4041 39.6471 80.9236 39.7189 79.9904 40.7L79.8229 40.8436L79.5238 41.1068L79.3204 41.2623L79.0332 41.5016C76.3132 43.811 72.8955 45.1385 69.3298 45.2705C64.8431 45.426 61.0503 42.8417 59.0402 41.1307H59.1Z" fill="url(#paint0_linear_900_13087)"/>
<path d="M45.5679 54.8492V11.4343C45.5679 9.36437 47.0515 9.14901 47.578 9.13704H64.5081C64.9627 9.13704 66.3028 9.29258 65.4533 10.9198L52.2083 36.1175C51.9479 36.787 51.9479 37.5298 52.2083 38.1993C53.998 41.1249 56.5089 43.542 59.5006 45.2189C62.4922 46.8958 65.8644 47.7765 69.2939 47.7765C72.7235 47.7765 76.0957 46.8958 79.0873 45.2189C82.079 43.542 84.5899 41.1249 86.3796 38.1993C86.6246 37.4522 86.5775 36.64 86.2479 35.9261V35.8423L85.9728 35.3637L71.7706 8.27558C71.3682 7.45984 70.7537 6.76732 69.9917 6.27055C69.2297 5.77378 68.3482 5.49103 67.4394 5.4519H19.8557C18.9378 5.52055 18.0533 5.82546 17.288 6.33701C16.5228 6.84856 15.9029 7.54935 15.4886 8.37129L1.53771 34.9808L1.442 35.1723C1.19963 35.6214 1.05321 36.1161 1.01202 36.6248C0.97083 37.1335 1.03576 37.6452 1.2027 38.1276C2.96985 41.0312 5.4469 43.4373 8.40062 45.1194C11.3543 46.8014 14.6876 47.7041 18.0864 47.7424C21.4853 47.7807 24.838 46.9533 27.8289 45.3383C30.8198 43.7232 33.3504 41.3735 35.1825 38.5104C35.4643 37.5712 35.3875 36.5607 34.9671 35.6748L21.806 10.5489L21.6743 10.3096C21.4949 9.90278 21.3393 9.11311 22.7512 9.11311H40.0043C40.4948 9.11311 41.8708 9.37633 41.8708 11.6736V54.7535M28.8173 41.1187C26.5918 42.71 22.6554 45.0551 18.5994 45.2107H18.3721C18.1968 45.223 18.0209 45.223 17.8456 45.2107H17.5824C13.3828 45.2107 9.47033 42.5306 7.43632 40.8914C7.43632 40.8914 5.82109 39.6112 7.43632 39.6112H28.7335C28.7335 39.6112 30.3368 40.0419 28.8173 41.1187ZM30.7197 35.1364L30.9111 35.4834C31.1863 36.0577 31.617 37.1704 30.7197 37.1704H5.59376C4.76819 37.1704 4.9357 36.4046 5.19892 35.7825L5.59376 35.0287L17.5585 12.188C17.5585 12.188 18.1687 11.2428 18.6592 12.188L30.7197 35.1364ZM57.76 37.1704C56.061 37.1704 56.372 35.9739 56.6472 35.4116L56.8147 35.0766L68.5402 12.7624C68.5402 12.7624 69.3538 11.2189 70.1554 12.7624L81.8449 35.0167C82.0842 35.4953 82.826 37.1943 81.0912 37.1943L57.76 37.1704ZM59.1 41.1307L58.6812 40.7598C57.7958 39.7428 59.3872 39.6471 59.3872 39.6471H79.4041C79.4041 39.6471 80.9236 39.7189 79.9904 40.7L79.8229 40.8436L79.5238 41.1068L79.3204 41.2623L79.0332 41.5016C76.3132 43.811 72.8955 45.1385 69.3298 45.2705C64.8431 45.426 61.0502 42.8417 59.0402 41.1307H59.1Z" stroke="url(#paint1_linear_900_13087)" stroke-width="0.28" stroke-miterlimit="10"/>
<path d="M30.5637 71.8378C30.6488 71.7889 30.7194 71.7183 30.7683 71.6333L32.2294 69.3686V69.2371L30.5637 71.8378Z" fill="url(#paint2_linear_900_13087)"/>
<path d="M35.2247 70.8005L32.9746 74.2195L35.3124 70.6982C35.2716 70.7205 35.2405 70.7569 35.2247 70.8005ZM38.7898 74.2341L37.3287 76.4988C37.2909 76.5526 37.2613 76.6117 37.241 76.6742L38.9798 74.0442C38.8997 74.0882 38.8339 74.1541 38.7898 74.2341Z" fill="url(#paint3_linear_900_13087)"/>
<path d="M37.4021 73.3278L35.941 75.6071L35.7803 75.9432L37.7235 73.021C37.6079 73.114 37.5004 73.2166 37.4021 73.3278Z" fill="url(#paint4_linear_900_13087)"/>
<path d="M67.7783 64.4446L59.1724 50.9294C59.0997 50.8118 58.9988 50.7141 58.8789 50.6453C58.759 50.5764 58.6239 50.5385 58.4857 50.5349C58.3357 50.5429 58.1901 50.5881 58.062 50.6664L53.5471 53.4425C53.4546 53.4978 53.3742 53.5712 53.3106 53.6582C53.247 53.7453 53.2016 53.8443 53.1771 53.9492C53.1525 54.0542 53.1494 54.163 53.1678 54.2693C53.1862 54.3755 53.2257 54.4769 53.2841 54.5675L53.9416 55.5611L52.9481 56.0579C52.7602 56.1312 52.5515 56.1312 52.3636 56.0579L47.615 54.7575C47.2491 54.6531 46.8706 54.599 46.49 54.5968H41.3323C40.6964 54.5921 40.0684 54.738 39.4996 55.0224C38.9308 55.3068 38.4373 55.7217 38.0594 56.2332H35.634L33.6177 55.2396L34.0852 54.5529C34.2013 54.3683 34.2403 54.1455 34.1938 53.9323C34.1474 53.7192 34.0192 53.5329 33.8368 53.4133L29.322 50.6372C29.1872 50.5498 29.0297 50.5041 28.8691 50.5057C28.7365 50.5162 28.6081 50.5573 28.494 50.6258C28.38 50.6942 28.2833 50.7881 28.2116 50.9002L19.5618 64.4154C19.4457 64.6 19.4067 64.8229 19.4532 65.036C19.4996 65.2491 19.6278 65.4354 19.8102 65.555L24.325 68.0097C24.5052 68.1103 24.7167 68.1391 24.9172 68.0903C25.1177 68.0415 25.2924 67.9188 25.4062 67.7467L26.4728 66.1103L28.796 68.4334L27.9047 69.8215C27.5603 70.3765 27.4454 71.0437 27.5845 71.682C27.7236 72.3202 28.1057 72.8792 28.6499 73.2405C28.9551 73.4238 29.2922 73.5478 29.6434 73.6057C29.5997 74.0674 29.6877 74.532 29.8972 74.9458C30.1066 75.3595 30.429 75.7054 30.8269 75.9435H30.9146C31.4407 76.2739 32.0719 76.3939 32.6825 76.2796C32.7744 76.5918 32.9275 76.8826 33.1328 77.135C33.3381 77.3875 33.5916 77.5967 33.8785 77.7503C34.1653 77.904 34.4799 77.999 34.8039 78.03C35.1278 78.0609 35.4547 78.0271 35.7655 77.9306C35.9448 78.3271 36.2269 78.6685 36.5826 78.9193C36.9382 79.1701 37.3545 79.3212 37.7882 79.357C38.2219 79.3928 38.6573 79.3119 39.0493 79.1228C39.4412 78.9336 39.7754 78.6431 40.0173 78.2813L40.2072 78.0037L44.9558 79.8301C45.5626 80.0466 46.224 80.0566 46.837 79.8584C47.4501 79.6602 47.9804 79.265 48.3456 78.7342L48.8716 77.9306C49.4947 78.0348 50.1344 77.9644 50.7199 77.7271C51.3053 77.4898 51.8136 77.095 52.1883 76.5864L52.9042 75.5782C52.9763 75.5019 53.0224 75.4047 53.0358 75.3006C53.6864 75.0923 54.2509 74.6766 54.643 74.1171L55.3151 73.2112C55.7724 73.2175 56.2249 73.1163 56.636 72.9159C57.0471 72.7154 57.4054 72.4212 57.6821 72.057C58.0649 71.5498 58.272 70.9317 58.272 70.2963C58.272 69.6609 58.0649 69.0428 57.6821 68.5357L60.8234 66.344L61.7878 67.8051C61.9016 67.9772 62.0763 68.1 62.2768 68.1487C62.4773 68.1975 62.6888 68.1687 62.869 68.0681L67.3838 65.6135C67.4903 65.567 67.5859 65.4988 67.6645 65.4132C67.743 65.3276 67.8028 65.2265 67.84 65.1164C67.8771 65.0063 67.8908 64.8897 67.8802 64.774C67.8696 64.6583 67.8349 64.5461 67.7783 64.4446ZM24.5588 66.2272L21.4759 64.5469L29.1759 52.4489L32.2734 54.3484L24.5588 66.2272ZM29.6288 71.8816C29.4478 71.7571 29.3223 71.5671 29.2787 71.3517C29.2351 71.1364 29.2768 70.9125 29.3951 70.7274L30.8562 68.4626C30.9121 68.3704 30.9868 68.2908 31.0753 68.2291C31.1638 68.1673 31.2643 68.1248 31.3702 68.1042C31.4761 68.0835 31.5852 68.0853 31.6904 68.1092C31.7957 68.1332 31.8947 68.179 31.9812 68.2435C32.1302 68.3326 32.2463 68.4677 32.3122 68.6283C32.378 68.789 32.3901 68.9667 32.3465 69.1347V69.2663L30.8854 71.531C30.8365 71.616 30.7659 71.6866 30.6808 71.7355C30.5551 71.8865 30.3777 71.9851 30.1831 72.0121C29.9885 72.0391 29.7909 71.9926 29.6288 71.8816ZM32.9748 74.2194V74.3363C32.9187 74.4243 32.8454 74.5001 32.7592 74.5591C32.6731 74.6181 32.5759 74.659 32.4736 74.6795C32.3712 74.7 32.2658 74.6995 32.1636 74.6782C32.0614 74.6569 31.9646 74.6151 31.8789 74.5555H31.7767C31.6891 74.5008 31.6136 74.4288 31.5548 74.344C31.4959 74.2591 31.455 74.1632 31.4345 74.062C31.414 73.9608 31.4143 73.8565 31.4355 73.7554C31.4566 73.6544 31.4981 73.5587 31.5575 73.4742L31.9082 72.9482L33.6469 70.0991L34.7281 68.448C34.7827 68.3584 34.8553 68.281 34.9414 68.2208C35.0274 68.1606 35.125 68.1189 35.228 68.0983C35.3309 68.0777 35.4371 68.0786 35.5396 68.1011C35.6422 68.1236 35.739 68.1671 35.8239 68.2289H35.897C35.9862 68.2838 36.0633 68.3562 36.1237 68.4418C36.1841 68.5274 36.2265 68.6243 36.2484 68.7268C36.2702 68.8292 36.2711 68.935 36.2509 69.0378C36.2306 69.1406 36.1898 69.2382 36.1308 69.3247L35.2833 70.6251L32.9748 74.2194ZM35.7801 75.9435V76.0458C35.7212 76.1368 35.6445 76.215 35.5546 76.2757C35.4647 76.3363 35.3635 76.3781 35.257 76.3986C35.1506 76.4191 35.041 76.4178 34.9351 76.3948C34.8291 76.3718 34.7289 76.3277 34.6404 76.2649C34.5482 76.209 34.4686 76.1343 34.4069 76.0458C34.3451 75.9573 34.3026 75.8568 34.2819 75.7509C34.2613 75.645 34.263 75.5359 34.287 75.4307C34.311 75.3255 34.3567 75.2264 34.4213 75.1399L35.8824 72.7875L36.5837 71.7063L36.6714 71.6186C36.7976 71.4643 36.9766 71.3624 37.1737 71.3327C37.3708 71.303 37.5719 71.3476 37.738 71.4579C37.922 71.58 38.0501 71.7702 38.0939 71.9866C38.1377 72.2031 38.0938 72.4281 37.9717 72.6122L37.738 72.9628L35.7801 75.9435ZM40.1634 75.1545L38.7023 77.4046C38.6476 77.498 38.5738 77.579 38.4859 77.6421C38.3979 77.7053 38.2977 77.7493 38.1917 77.7713C38.0857 77.7934 37.9762 77.7929 37.8704 77.77C37.7645 77.7471 37.6647 77.7023 37.5773 77.6384C37.4254 77.5526 37.3076 77.4173 37.2438 77.255C37.1799 77.0927 37.1739 76.9134 37.2266 76.7471C37.2469 76.6846 37.2764 76.6255 37.3143 76.5718L38.7754 74.3071C38.8194 74.227 38.8853 74.1612 38.9653 74.1171C39.0978 74.0104 39.2627 73.9522 39.4329 73.9522C39.603 73.9522 39.7679 74.0104 39.9004 74.1171C40.0569 74.2265 40.1692 74.3881 40.2174 74.5728C40.2656 74.7575 40.2465 74.9534 40.1634 75.1253V75.1545ZM56.4693 71.0342C56.2835 71.2751 56.0157 71.4395 55.7168 71.496C55.4178 71.5526 55.1085 71.4974 54.8475 71.341L48.1995 67.4107C48.0069 67.3036 47.7802 67.2758 47.5675 67.3331C47.3547 67.3903 47.1726 67.5282 47.0598 67.7175C46.9554 67.903 46.926 68.1214 46.9776 68.3279C47.0293 68.5345 47.158 68.7134 47.3374 68.8279L53.7371 72.656L53.3718 73.1674C53.1325 73.5082 52.7703 73.7428 52.3615 73.8218C51.9527 73.9009 51.5292 73.8182 51.1801 73.5911L46.5484 70.6689C46.4166 70.5752 46.257 70.5288 46.0955 70.5374C45.8797 70.545 45.6753 70.6361 45.5254 70.7914C45.3755 70.9468 45.2918 71.1543 45.2919 71.3702C45.298 71.5079 45.337 71.6421 45.4056 71.7616C45.4742 71.8811 45.5705 71.9824 45.6864 72.057L50.3035 74.9792C50.5487 75.1391 50.821 75.2529 51.1071 75.3152L50.9171 75.5928C50.6685 75.9462 50.2964 76.1933 49.8743 76.2853C49.4522 76.3773 49.0109 76.3074 48.6378 76.0896L44.8974 73.9564C44.7552 73.8752 44.5935 73.8348 44.4298 73.8395C44.2535 73.8543 44.0865 73.925 43.953 74.0411C43.8195 74.1573 43.7265 74.3129 43.6874 74.4855C43.6483 74.6581 43.6652 74.8386 43.7357 75.001C43.8061 75.1633 43.9264 75.2989 44.0792 75.3883L47.3959 77.2731L47.0306 77.8137C46.88 78.0499 46.6506 78.225 46.3831 78.308C46.1155 78.3909 45.8273 78.3763 45.5695 78.2667L41.1862 76.5864L41.4784 75.9435C41.8317 75.3987 41.9547 74.7361 41.8205 74.1008C41.6863 73.4654 41.3059 72.9092 40.7625 72.5537C40.4319 72.3544 40.0639 72.2251 39.6812 72.1739C39.689 71.7699 39.5986 71.3701 39.4179 71.0088C39.2372 70.6474 38.9716 70.3353 38.6439 70.0991C38.3841 69.9262 38.09 69.8115 37.7818 69.763C37.9592 69.2543 37.9622 68.7009 37.7902 68.1903C37.6182 67.6797 37.2811 67.2409 36.8321 66.9431H36.7444C36.2025 66.5977 35.5474 66.4771 34.918 66.607C34.3336 66.7125 33.8112 67.0364 33.4569 67.5129C33.2897 67.2824 33.0817 67.0843 32.8433 66.9285C32.5717 66.7522 32.2678 66.6316 31.9492 66.5739C31.6307 66.5163 31.3038 66.5225 30.9877 66.5924C30.5537 66.6782 30.1533 66.886 29.8334 67.1915L27.4518 64.7953L32.7118 56.6277L35.2103 57.8696H36.8029L33.8807 61.9023C33.7911 62.0251 33.7375 62.1704 33.7258 62.3219C33.7142 62.4734 33.745 62.6252 33.8148 62.7602C33.8846 62.8952 33.9906 63.0081 34.1209 63.0863C34.2513 63.1644 34.4008 63.2047 34.5528 63.2027H38.7023C39.1055 63.2044 39.5026 63.105 39.8574 62.9135C40.2122 62.7221 40.5133 62.4447 40.7332 62.1068L41.4053 61.1279C41.4788 61.0121 41.5802 60.9166 41.7002 60.8503C41.8202 60.7839 41.9549 60.7487 42.0921 60.748H43.1733C43.3367 60.7424 43.4969 60.7941 43.6262 60.8941L56.1625 69.2516C56.3047 69.3408 56.4265 69.4589 56.5201 69.5981C56.6138 69.7374 56.6771 69.8948 56.706 70.06C56.7349 70.2253 56.7288 70.3949 56.688 70.5576C56.6473 70.7204 56.5728 70.8728 56.4693 71.005V71.0342ZM56.3817 67.4253L44.5321 59.5645C44.1321 59.2897 43.6586 59.1421 43.1733 59.1408H42.0775C41.6748 59.1417 41.2786 59.2422 40.9242 59.4334C40.5699 59.6246 40.2683 59.9006 40.0465 60.2366L39.3744 61.2302C39.3026 61.3431 39.2032 61.4358 39.0856 61.4997C38.968 61.5636 38.8361 61.5966 38.7023 61.5955H36.2476L39.2575 57.4021C39.4849 57.0647 39.7917 56.7883 40.1509 56.5972C40.5101 56.4061 40.9108 56.3062 41.3177 56.3062H46.4754C46.7035 56.3034 46.9305 56.338 47.1475 56.4085L51.8376 57.7527C52.4265 57.9202 53.0566 57.8629 53.6056 57.592L54.6868 57.0514L59.8737 65.029L56.3817 67.4253ZM62.7813 66.2564L55.0667 54.3484L58.1642 52.4489L65.8643 64.5469L62.7813 66.2564Z" fill="url(#paint5_linear_900_13087)"/>
<path d="M31.8643 72.8751C31.9693 72.7634 32.0624 72.641 32.1419 72.5098L33.603 70.2597C33.603 70.2597 33.603 70.2597 33.603 70.1428L31.8643 72.8751Z" fill="url(#paint6_linear_900_13087)"/>
<path d="M30.5637 71.8378C30.6488 71.7889 30.7194 71.7183 30.7683 71.6333L32.2294 69.3686V69.2371L30.5637 71.8378Z" stroke="url(#paint7_linear_900_13087)" stroke-width="0.28" stroke-miterlimit="10"/>
<path d="M35.2247 70.8003L32.9746 74.2193L35.3124 70.698C35.2716 70.7202 35.2405 70.7566 35.2247 70.8003ZM38.7898 74.2339L37.3287 76.4986C37.2909 76.5523 37.2613 76.6114 37.241 76.6739L38.9798 74.0439C38.8997 74.088 38.8339 74.1538 38.7898 74.2339Z" stroke="url(#paint8_linear_900_13087)" stroke-width="0.28" stroke-miterlimit="10"/>
<path d="M37.4019 73.3278L35.9408 75.6071L35.78 75.9432L37.7233 73.021C37.6076 73.114 37.5001 73.2166 37.4019 73.3278Z" stroke="url(#paint9_linear_900_13087)" stroke-width="0.28" stroke-miterlimit="10"/>
<path d="M67.7783 64.4446L59.1724 50.9294C59.0997 50.8118 58.9988 50.7141 58.8789 50.6453C58.759 50.5764 58.6239 50.5385 58.4857 50.5349C58.3357 50.5429 58.1901 50.5881 58.0619 50.6664L53.5471 53.4425C53.4546 53.4978 53.3742 53.5712 53.3106 53.6582C53.247 53.7453 53.2016 53.8443 53.1771 53.9492C53.1525 54.0542 53.1494 54.163 53.1678 54.2693C53.1862 54.3755 53.2257 54.4769 53.2841 54.5675L53.9416 55.5611L52.9481 56.0579C52.7602 56.1312 52.5515 56.1312 52.3636 56.0579L47.615 54.7575C47.2491 54.6531 46.8706 54.599 46.49 54.5968H41.3323C40.6964 54.5921 40.0684 54.738 39.4996 55.0224C38.9308 55.3068 38.4373 55.7217 38.0594 56.2332H35.634L33.6177 55.2396L34.0852 54.5529C34.2013 54.3683 34.2403 54.1455 34.1938 53.9324C34.1474 53.7192 34.0192 53.5329 33.8368 53.4133L29.322 50.6372C29.1872 50.5498 29.0297 50.5041 28.8691 50.5057C28.7365 50.5162 28.6081 50.5573 28.494 50.6258C28.38 50.6942 28.2833 50.7881 28.2116 50.9002L19.5618 64.4154C19.4457 64.6 19.4067 64.8229 19.4532 65.036C19.4996 65.2491 19.6278 65.4354 19.8102 65.555L24.325 68.0097C24.5052 68.1103 24.7167 68.1391 24.9172 68.0903C25.1177 68.0415 25.2924 67.9188 25.4062 67.7467L26.4728 66.1103L28.796 68.4334L27.9047 69.8215C27.5603 70.3765 27.4454 71.0437 27.5845 71.682C27.7236 72.3202 28.1057 72.8792 28.6499 73.2405C28.9551 73.4238 29.2922 73.5478 29.6434 73.6057C29.5997 74.0674 29.6877 74.532 29.8972 74.9458C30.1066 75.3595 30.429 75.7054 30.8269 75.9435H30.9146C31.4407 76.2739 32.0719 76.3939 32.6825 76.2796C32.7744 76.5918 32.9275 76.8826 33.1328 77.135C33.3381 77.3875 33.5916 77.5967 33.8785 77.7503C34.1653 77.904 34.4799 77.999 34.8039 78.03C35.1278 78.0609 35.4547 78.0271 35.7655 77.9306C35.9448 78.3271 36.2269 78.6685 36.5826 78.9193C36.9382 79.1701 37.3545 79.3212 37.7882 79.357C38.2219 79.3928 38.6573 79.3119 39.0493 79.1228C39.4412 78.9336 39.7754 78.6431 40.0173 78.2813L40.2072 78.0037L44.9558 79.8301C45.5626 80.0466 46.224 80.0566 46.837 79.8584C47.4501 79.6602 47.9804 79.265 48.3456 78.7342L48.8716 77.9306C49.4947 78.0348 50.1344 77.9644 50.7199 77.7271C51.3053 77.4898 51.8136 77.095 52.1883 76.5864L52.9042 75.5782C52.9763 75.5019 53.0223 75.4047 53.0358 75.3006C53.6864 75.0923 54.2509 74.6766 54.643 74.1171L55.3151 73.2112C55.7724 73.2175 56.2249 73.1163 56.636 72.9159C57.0471 72.7154 57.4054 72.4212 57.6821 72.057C58.0649 71.5498 58.272 70.9317 58.272 70.2963C58.272 69.6609 58.0649 69.0428 57.6821 68.5357L60.8234 66.344L61.7878 67.8051C61.9016 67.9772 62.0763 68.1 62.2768 68.1487C62.4773 68.1975 62.6888 68.1687 62.869 68.0681L67.3838 65.6135C67.4903 65.567 67.5859 65.4988 67.6645 65.4132C67.743 65.3276 67.8028 65.2265 67.84 65.1164C67.8771 65.0063 67.8908 64.8897 67.8802 64.774C67.8696 64.6583 67.8349 64.5461 67.7783 64.4446ZM24.5588 66.2272L21.4759 64.5469L29.1759 52.4489L32.2734 54.3484L24.5588 66.2272ZM29.6288 71.8816C29.4478 71.7571 29.3223 71.5671 29.2787 71.3517C29.2351 71.1364 29.2768 70.9125 29.3951 70.7274L30.8562 68.4626C30.9121 68.3704 30.9868 68.2908 31.0753 68.2291C31.1638 68.1673 31.2643 68.1248 31.3702 68.1042C31.4761 68.0835 31.5852 68.0853 31.6904 68.1092C31.7957 68.1332 31.8947 68.179 31.9812 68.2435C32.1302 68.3326 32.2463 68.4677 32.3122 68.6283C32.378 68.789 32.3901 68.9667 32.3465 69.1347V69.2663L30.8854 71.531C30.8365 71.616 30.7659 71.6866 30.6808 71.7355C30.5551 71.8865 30.3777 71.9851 30.1831 72.0121C29.9885 72.0391 29.7909 71.9926 29.6288 71.8816ZM32.9748 74.2194V74.3363C32.9187 74.4243 32.8454 74.5001 32.7592 74.5591C32.6731 74.6181 32.5759 74.659 32.4736 74.6795C32.3712 74.7 32.2658 74.6995 32.1636 74.6782C32.0614 74.6569 31.9646 74.6151 31.8789 74.5555H31.7767C31.6891 74.5008 31.6136 74.4288 31.5548 74.344C31.4959 74.2591 31.455 74.1632 31.4345 74.062C31.414 73.9608 31.4143 73.8565 31.4355 73.7554C31.4566 73.6544 31.4981 73.5587 31.5575 73.4742L31.9082 72.9482L33.6469 70.0991L34.7281 68.448C34.7827 68.3584 34.8553 68.281 34.9414 68.2208C35.0274 68.1606 35.125 68.1189 35.228 68.0983C35.3309 68.0777 35.4371 68.0786 35.5396 68.1011C35.6422 68.1236 35.739 68.1671 35.8239 68.2289H35.897C35.9862 68.2838 36.0633 68.3562 36.1237 68.4418C36.1841 68.5274 36.2265 68.6243 36.2484 68.7268C36.2702 68.8292 36.2711 68.935 36.2509 69.0378C36.2306 69.1406 36.1898 69.2382 36.1308 69.3247L35.2833 70.6251L32.9748 74.2194ZM35.7801 75.9435V76.0458C35.7212 76.1368 35.6445 76.215 35.5546 76.2757C35.4647 76.3363 35.3635 76.3781 35.257 76.3986C35.1506 76.4191 35.041 76.4178 34.9351 76.3948C34.8291 76.3718 34.7289 76.3277 34.6404 76.265C34.5482 76.209 34.4686 76.1343 34.4069 76.0458C34.3451 75.9573 34.3026 75.8568 34.2819 75.7509C34.2613 75.645 34.263 75.5359 34.287 75.4307C34.311 75.3255 34.3567 75.2264 34.4213 75.1399L35.8824 72.7875L36.5837 71.7063L36.6714 71.6186C36.7976 71.4643 36.9766 71.3624 37.1737 71.3327C37.3708 71.303 37.5719 71.3476 37.738 71.4579C37.922 71.58 38.0501 71.7702 38.0939 71.9866C38.1377 72.2031 38.0938 72.4281 37.9717 72.6122L37.738 72.9628L35.7801 75.9435ZM40.1634 75.1545L38.7023 77.4046C38.6476 77.498 38.5738 77.579 38.4859 77.6421C38.3979 77.7053 38.2977 77.7493 38.1917 77.7713C38.0857 77.7934 37.9762 77.7929 37.8704 77.77C37.7645 77.7471 37.6647 77.7023 37.5773 77.6384C37.4254 77.5526 37.3076 77.4173 37.2438 77.255C37.1799 77.0927 37.1739 76.9134 37.2266 76.7471C37.2469 76.6846 37.2764 76.6255 37.3143 76.5718L38.7754 74.3071C38.8194 74.227 38.8853 74.1612 38.9653 74.1171C39.0978 74.0104 39.2627 73.9522 39.4329 73.9522C39.603 73.9522 39.7679 74.0104 39.9004 74.1171C40.0569 74.2265 40.1692 74.3881 40.2174 74.5728C40.2656 74.7575 40.2465 74.9534 40.1634 75.1253V75.1545ZM56.4693 71.0342C56.2835 71.2751 56.0157 71.4395 55.7168 71.496C55.4178 71.5526 55.1085 71.4974 54.8475 71.341L48.1995 67.4107C48.0069 67.3036 47.7802 67.2758 47.5675 67.3331C47.3547 67.3903 47.1726 67.5282 47.0598 67.7175C46.9554 67.903 46.926 68.1214 46.9776 68.3279C47.0293 68.5345 47.158 68.7134 47.3374 68.8279L53.7371 72.656L53.3718 73.1674C53.1325 73.5082 52.7703 73.7428 52.3615 73.8218C51.9527 73.9009 51.5292 73.8182 51.1801 73.5911L46.5484 70.6689C46.4166 70.5752 46.257 70.5288 46.0955 70.5374C45.8797 70.545 45.6753 70.6361 45.5254 70.7914C45.3755 70.9468 45.2918 71.1543 45.2919 71.3702C45.298 71.5079 45.337 71.6421 45.4056 71.7616C45.4742 71.8811 45.5705 71.9824 45.6864 72.057L50.3035 74.9792C50.5487 75.1391 50.821 75.2529 51.1071 75.3152L50.9171 75.5928C50.6685 75.9462 50.2964 76.1933 49.8743 76.2853C49.4522 76.3773 49.0109 76.3074 48.6378 76.0896L44.8974 73.9564C44.7552 73.8752 44.5935 73.8348 44.4298 73.8395C44.2535 73.8543 44.0865 73.925 43.953 74.0411C43.8195 74.1573 43.7265 74.3129 43.6874 74.4855C43.6483 74.6581 43.6652 74.8386 43.7357 75.001C43.8061 75.1633 43.9264 75.2989 44.0792 75.3883L47.3959 77.2731L47.0306 77.8137C46.88 78.0499 46.6506 78.225 46.3831 78.308C46.1155 78.3909 45.8273 78.3763 45.5695 78.2667L41.1862 76.5864L41.4784 75.9435C41.8317 75.3987 41.9547 74.7361 41.8205 74.1008C41.6863 73.4654 41.3059 72.9092 40.7625 72.5537C40.4319 72.3544 40.0639 72.2251 39.6812 72.1739C39.689 71.7699 39.5986 71.3701 39.4179 71.0088C39.2372 70.6474 38.9716 70.3353 38.6439 70.0991C38.3841 69.9262 38.09 69.8115 37.7818 69.763C37.9592 69.2543 37.9622 68.7009 37.7902 68.1903C37.6182 67.6797 37.2811 67.2409 36.8321 66.9431H36.7444C36.2025 66.5977 35.5474 66.4771 34.918 66.607C34.3336 66.7125 33.8112 67.0364 33.4569 67.5129C33.2897 67.2824 33.0817 67.0843 32.8433 66.9285C32.5717 66.7522 32.2678 66.6316 31.9492 66.5739C31.6307 66.5163 31.3038 66.5225 30.9877 66.5924C30.5537 66.6782 30.1533 66.886 29.8334 67.1915L27.4518 64.7953L32.7118 56.6277L35.2103 57.8696H36.8029L33.8807 61.9023C33.7911 62.0251 33.7375 62.1704 33.7258 62.3219C33.7142 62.4734 33.745 62.6252 33.8148 62.7602C33.8846 62.8952 33.9906 63.0081 34.1209 63.0863C34.2513 63.1644 34.4008 63.2047 34.5528 63.2027H38.7023C39.1055 63.2044 39.5026 63.105 39.8574 62.9135C40.2122 62.7221 40.5133 62.4447 40.7332 62.1068L41.4053 61.1279C41.4788 61.0121 41.5802 60.9166 41.7002 60.8503C41.8202 60.7839 41.9549 60.7487 42.0921 60.748H43.1733C43.3367 60.7424 43.4969 60.7941 43.6262 60.8941L56.1625 69.2516C56.3047 69.3408 56.4265 69.4589 56.5201 69.5981C56.6137 69.7374 56.6771 69.8948 56.706 70.06C56.7349 70.2253 56.7288 70.3949 56.688 70.5576C56.6473 70.7204 56.5728 70.8728 56.4693 71.005V71.0342ZM56.3817 67.4253L44.5321 59.5645C44.1321 59.2897 43.6586 59.1421 43.1733 59.1408H42.0775C41.6748 59.1417 41.2786 59.2422 40.9243 59.4334C40.5699 59.6246 40.2683 59.9006 40.0465 60.2366L39.3744 61.2302C39.3026 61.3431 39.2032 61.4358 39.0856 61.4997C38.968 61.5636 38.8361 61.5966 38.7023 61.5955H36.2476L39.2575 57.4021C39.4849 57.0647 39.7917 56.7883 40.1509 56.5972C40.5101 56.4061 40.9108 56.3062 41.3177 56.3062H46.4754C46.7035 56.3034 46.9305 56.338 47.1475 56.4085L51.8376 57.7527C52.4265 57.9202 53.0566 57.8629 53.6056 57.592L54.6868 57.0514L59.8737 65.029L56.3817 67.4253ZM62.7813 66.2564L55.0667 54.3484L58.1642 52.4489L65.8643 64.5469L62.7813 66.2564Z" stroke="url(#paint10_linear_900_13087)" stroke-width="0.28" stroke-miterlimit="10"/>
<path d="M31.864 72.8748C31.9691 72.7631 32.0621 72.6407 32.1416 72.5096L33.6027 70.2595C33.6027 70.2595 33.6027 70.2595 33.6027 70.1426L31.864 72.8748Z" stroke="url(#paint11_linear_900_13087)" stroke-width="0.28" stroke-miterlimit="10"/>
<path d="M17.7126 5.99085C17.7126 9.3064 17.3971 12 17.0083 12C16.6196 12 16.2949 9.3064 16.2949 5.99085C16.2949 2.6753 16.6242 0 17.0083 0C17.3925 0 17.7126 2.67073 17.7126 5.99085Z" fill="url(#paint12_radial_900_13087)"/>
<path d="M17.0091 6.68599C13.6936 6.68599 11 6.37044 11 5.98173C11 5.59301 13.6936 5.26831 17.0091 5.26831C20.3247 5.26831 23 5.59758 23 5.98173C23 6.36587 20.3293 6.68599 17.0091 6.68599Z" fill="url(#paint13_radial_900_13087)"/>
<path d="M87.7126 36.9909C87.7126 40.3064 87.3971 43 87.0083 43C86.6196 43 86.2949 40.3064 86.2949 36.9909C86.2949 33.6753 86.6242 31 87.0083 31C87.3925 31 87.7126 33.6707 87.7126 36.9909Z" fill="url(#paint14_radial_900_13087)"/>
<path d="M87.0091 37.686C83.6936 37.686 81 37.3704 81 36.9817C81 36.593 83.6936 36.2683 87.0091 36.2683C90.3247 36.2683 93 36.5976 93 36.9817C93 37.3659 90.3293 37.686 87.0091 37.686Z" fill="url(#paint15_radial_900_13087)"/>
<defs>
<linearGradient id="paint0_linear_900_13087" x1="13.443" y1="-1.92171" x2="71.5102" y2="58.4498" gradientUnits="userSpaceOnUse">
<stop stop-color="#F0EFEF" stop-opacity="0.3"/>
<stop offset="0.35" stop-color="#FAFBFC" stop-opacity="0.4"/>
<stop offset="0.72" stop-color="white" stop-opacity="0.5"/>
<stop offset="0.96" stop-color="white" stop-opacity="0.85"/>
<stop offset="1" stop-color="white" stop-opacity="0.9"/>
</linearGradient>
<linearGradient id="paint1_linear_900_13087" x1="83.0315" y1="54.3021" x2="22.66" y2="8.67786" gradientUnits="userSpaceOnUse">
<stop stop-color="white" stop-opacity="0.9"/>
<stop offset="0.28" stop-color="white" stop-opacity="0.5"/>
<stop offset="0.65" stop-color="#FAFBFC" stop-opacity="0.4"/>
<stop offset="1" stop-color="#F0EFEF" stop-opacity="0"/>
</linearGradient>
<linearGradient id="paint2_linear_900_13087" x1="31.4258" y1="71.8378" x2="31.4258" y2="69.2371" gradientUnits="userSpaceOnUse">
<stop stop-color="#79A540"/>
<stop offset="0.2" stop-color="#94C63D"/>
<stop offset="0.39" stop-color="#98CA3C"/>
<stop offset="0.59" stop-color="#93C53E"/>
<stop offset="0.74" stop-color="#9DCB3B"/>
<stop offset="0.9" stop-color="#A6CE39"/>
<stop offset="1" stop-color="#A6CE39"/>
</linearGradient>
<linearGradient id="paint3_linear_900_13087" x1="35.9845" y1="76.6742" x2="35.9845" y2="70.6982" gradientUnits="userSpaceOnUse">
<stop stop-color="#79A540"/>
<stop offset="0.2" stop-color="#94C63D"/>
<stop offset="0.39" stop-color="#98CA3C"/>
<stop offset="0.59" stop-color="#93C53E"/>
<stop offset="0.74" stop-color="#9DCB3B"/>
<stop offset="0.9" stop-color="#A6CE39"/>
<stop offset="1" stop-color="#A6CE39"/>
</linearGradient>
<linearGradient id="paint4_linear_900_13087" x1="36.7446" y1="75.914" x2="36.7446" y2="72.9626" gradientUnits="userSpaceOnUse">
<stop stop-color="#79A540"/>
<stop offset="0.2" stop-color="#94C63D"/>
<stop offset="0.39" stop-color="#98CA3C"/>
<stop offset="0.59" stop-color="#93C53E"/>
<stop offset="0.74" stop-color="#9DCB3B"/>
<stop offset="0.9" stop-color="#A6CE39"/>
<stop offset="1" stop-color="#A6CE39"/>
</linearGradient>
<linearGradient id="paint5_linear_900_13087" x1="43.6701" y1="80.02" x2="43.6701" y2="50.491" gradientUnits="userSpaceOnUse">
<stop stop-color="#79A540"/>
<stop offset="0.2" stop-color="#94C63D"/>
<stop offset="0.39" stop-color="#98CA3C"/>
<stop offset="0.59" stop-color="#93C53E"/>
<stop offset="0.74" stop-color="#9DCB3B"/>
<stop offset="0.9" stop-color="#A6CE39"/>
<stop offset="1" stop-color="#A6CE39"/>
</linearGradient>
<linearGradient id="paint6_linear_900_13087" x1="32.7555" y1="72.8751" x2="32.7555" y2="70.1428" gradientUnits="userSpaceOnUse">
<stop stop-color="#79A540"/>
<stop offset="0.2" stop-color="#94C63D"/>
<stop offset="0.39" stop-color="#98CA3C"/>
<stop offset="0.59" stop-color="#93C53E"/>
<stop offset="0.74" stop-color="#9DCB3B"/>
<stop offset="0.9" stop-color="#A6CE39"/>
<stop offset="1" stop-color="#A6CE39"/>
</linearGradient>
<linearGradient id="paint7_linear_900_13087" x1="31.4404" y1="72.4807" x2="31.4404" y2="67.8198" gradientUnits="userSpaceOnUse">
<stop stop-color="white" stop-opacity="0.9"/>
<stop offset="0.28" stop-color="white" stop-opacity="0.5"/>
<stop offset="0.65" stop-color="#FAFBFC" stop-opacity="0.4"/>
<stop offset="1" stop-color="#F0EFEF" stop-opacity="0.3"/>
</linearGradient>
<linearGradient id="paint8_linear_900_13087" x1="36.2329" y1="77.799" x2="36.2329" y2="69.1346" gradientUnits="userSpaceOnUse">
<stop stop-color="white" stop-opacity="0.9"/>
<stop offset="0.28" stop-color="white" stop-opacity="0.5"/>
<stop offset="0.65" stop-color="#FAFBFC" stop-opacity="0.4"/>
<stop offset="1" stop-color="#F0EFEF" stop-opacity="0.3"/>
</linearGradient>
<linearGradient id="paint9_linear_900_13087" x1="37.285" y1="76.0163" x2="37.285" y2="71.3992" gradientUnits="userSpaceOnUse">
<stop stop-color="white" stop-opacity="0.9"/>
<stop offset="0.28" stop-color="white" stop-opacity="0.5"/>
<stop offset="0.65" stop-color="#FAFBFC" stop-opacity="0.4"/>
<stop offset="1" stop-color="#F0EFEF" stop-opacity="0.3"/>
</linearGradient>
<linearGradient id="paint10_linear_900_13087" x1="43.6701" y1="80.2245" x2="43.6701" y2="50.2865" gradientUnits="userSpaceOnUse">
<stop stop-color="white" stop-opacity="0.9"/>
<stop offset="0.28" stop-color="white" stop-opacity="0.5"/>
<stop offset="0.65" stop-color="#FAFBFC" stop-opacity="0.4"/>
<stop offset="1" stop-color="#F0EFEF" stop-opacity="0.3"/>
</linearGradient>
<linearGradient id="paint11_linear_900_13087" x1="32.7699" y1="73.0063" x2="32.7699" y2="69.4559" gradientUnits="userSpaceOnUse">
<stop stop-color="white" stop-opacity="0.9"/>
<stop offset="0.28" stop-color="white" stop-opacity="0.5"/>
<stop offset="0.65" stop-color="#FAFBFC" stop-opacity="0.4"/>
<stop offset="1" stop-color="#F0EFEF" stop-opacity="0.3"/>
</linearGradient>
<radialGradient id="paint12_radial_900_13087" cx="0" cy="0" r="1" gradientUnits="userSpaceOnUse" gradientTransform="translate(16.8957 6.42915) scale(0.701341 6.01335)">
<stop stop-color="white"/>
<stop offset="0.07" stop-color="white" stop-opacity="0.93"/>
<stop offset="1" stop-color="white" stop-opacity="0"/>
</radialGradient>
<radialGradient id="paint13_radial_900_13087" cx="0" cy="0" r="1" gradientUnits="userSpaceOnUse" gradientTransform="translate(16.5709 5.86904) rotate(90) scale(0.701341 6.01335)">
<stop stop-color="white"/>
<stop offset="0.07" stop-color="white" stop-opacity="0.93"/>
<stop offset="1" stop-color="white" stop-opacity="0"/>
</radialGradient>
<radialGradient id="paint14_radial_900_13087" cx="0" cy="0" r="1" gradientUnits="userSpaceOnUse" gradientTransform="translate(86.8957 37.4291) scale(0.701341 6.01335)">
<stop stop-color="white"/>
<stop offset="0.07" stop-color="white" stop-opacity="0.93"/>
<stop offset="1" stop-color="white" stop-opacity="0"/>
</radialGradient>
<radialGradient id="paint15_radial_900_13087" cx="0" cy="0" r="1" gradientUnits="userSpaceOnUse" gradientTransform="translate(86.5709 36.869) rotate(90) scale(0.701341 6.01335)">
<stop stop-color="white"/>
<stop offset="0.07" stop-color="white" stop-opacity="0.93"/>
<stop offset="1" stop-color="white" stop-opacity="0"/>
</radialGradient>
</defs>
</svg>
