<svg width="80" height="80" viewBox="0 0 80 80" fill="none" xmlns="http://www.w3.org/2000/svg">
<g clip-path="url(#clip0_1005_6045)">
<path d="M68.0699 71.5901C71.3399 71.5901 73.9899 71.3201 73.9899 70.9801C73.9899 70.6401 71.3499 70.3701 68.0699 70.3701C64.7899 70.3701 62.1499 70.6401 62.1499 70.9801C62.1499 71.3201 64.7999 71.5901 68.0699 71.5901Z" fill="url(#paint0_radial_1005_6045)"/>
<path d="M68.7399 70.9802C68.7399 74.1802 68.4399 76.7802 68.0599 76.7802C67.6799 76.7802 67.3799 74.1802 67.3799 70.9802C67.3799 67.7802 67.6799 65.1802 68.0599 65.1802C68.4399 65.1802 68.7399 67.7802 68.7399 70.9802Z" fill="url(#paint1_radial_1005_6045)"/>
<path d="M8.07992 32.3498C8.07992 35.6898 7.75992 38.3898 7.36992 38.3898C6.97992 38.3898 6.66992 35.6798 6.66992 32.3498C6.66992 29.0198 6.98992 26.2998 7.36992 26.2998C7.74992 26.2998 8.07992 29.0098 8.07992 32.3498Z" fill="url(#paint2_radial_1005_6045)"/>
<path d="M7.36992 33.0496C4.02992 33.0496 1.32992 32.7296 1.32992 32.3396C1.32992 31.9496 4.03992 31.6396 7.36992 31.6396C10.6999 31.6396 13.4199 31.9596 13.4199 32.3396C13.4199 32.7196 10.7099 33.0496 7.36992 33.0496Z" fill="url(#paint3_radial_1005_6045)"/>
<path d="M6.54006 78.1898C3.66006 78.1898 1.31006 75.6098 1.31006 72.4398V70.9798C1.31006 70.3498 1.82006 69.8398 2.45006 69.8398H27.8101C28.4401 69.8398 28.9501 70.3498 28.9501 70.9798C28.9501 71.6098 28.4401 72.1198 27.8101 72.1198H3.59006V72.4398C3.59006 74.3498 4.91006 75.9098 6.54006 75.9098H64.4301C66.0501 75.9098 67.3701 74.3598 67.3701 72.4398V72.1198H43.1501C42.5101 72.1198 42.0101 71.6198 42.0101 70.9798C42.0101 70.3398 42.5201 69.8398 43.1501 69.8398H68.5101C69.1401 69.8398 69.6501 70.3498 69.6501 70.9798V72.4398C69.6501 75.6098 67.3101 78.1898 64.4301 78.1898H6.54006ZM31.6701 74.0098C31.0401 74.0098 30.5301 73.4998 30.5301 72.8798C30.5301 72.2598 31.0301 71.7398 31.6701 71.7398H39.2901C39.9201 71.7398 40.4301 72.2498 40.4301 72.8798C40.4301 73.5098 39.9201 74.0098 39.2901 74.0098H31.6701ZM63.7501 68.3498C63.1201 68.3498 62.6101 67.8398 62.6101 67.2098V47.1698L64.8901 48.3698V67.2198C64.8901 67.8498 64.3801 68.3598 63.7501 68.3598V68.3498ZM6.18006 68.3498C5.55006 68.3498 5.04006 67.8398 5.04006 67.2098V35.0498C5.04006 32.9698 6.73006 31.2798 8.80006 31.2798H22.3101C22.9401 31.2798 23.4501 31.7898 23.4501 32.4198C23.4501 33.0498 22.9401 33.5598 22.3101 33.5598H8.80006C7.98006 33.5598 7.32006 34.2298 7.32006 35.0498V67.2098C7.32006 67.8398 6.81006 68.3498 6.18006 68.3498ZM62.6101 35.0498C62.6101 34.2298 61.9501 33.5598 61.1301 33.5598H48.8901C48.2601 33.5598 47.7501 33.0498 47.7501 32.4198C47.7501 31.7898 48.2601 31.2798 48.8901 31.2798H61.1301C63.2001 31.2798 64.8901 32.9698 64.8901 35.0498V38.3898L62.6101 39.4698V35.0498Z" fill="url(#paint4_linear_1005_6045)"/>
<path d="M61.1301 31.5198C63.0701 31.5198 64.6401 33.0998 64.6401 35.0498V38.2398L62.8501 39.0898V35.0498C62.8501 34.0898 62.0801 33.3098 61.1301 33.3098H48.8901C48.4001 33.3098 48.0001 32.9098 48.0001 32.4198C48.0001 31.9298 48.4001 31.5198 48.8901 31.5198H61.1301ZM22.3101 31.5198C22.8001 31.5198 23.2101 31.9198 23.2101 32.4198C23.2101 32.9198 22.8101 33.3098 22.3101 33.3098H8.80006C7.85006 33.3098 7.08006 34.0898 7.08006 35.0498V67.2098C7.08006 67.6998 6.68006 68.0998 6.19006 68.0998C5.70006 68.0998 5.29006 67.6998 5.29006 67.2098V35.0498C5.29006 33.1098 6.87006 31.5198 8.80006 31.5198H22.3101ZM62.8501 47.5698L64.6401 48.5098V67.2098C64.6401 67.6998 64.2401 68.0998 63.7401 68.0998C63.2401 68.0998 62.8501 67.6998 62.8501 67.2098V47.5698ZM68.5101 70.0898C69.0001 70.0898 69.4001 70.4898 69.4001 70.9898V72.4498C69.4001 75.4798 67.1701 77.9498 64.4301 77.9498H6.54006C3.79006 77.9498 1.56006 75.4798 1.56006 72.4498V70.9898C1.56006 70.4998 1.96006 70.0898 2.45006 70.0898H27.8101C28.3001 70.0898 28.7101 70.4898 28.7101 70.9898C28.7101 71.4898 28.3101 71.8798 27.8101 71.8798H3.34006V72.4398C3.34006 74.4898 4.77006 76.1498 6.53006 76.1498H64.4201C66.1701 76.1498 67.6001 74.4898 67.6001 72.4398V71.8798H43.1301C42.6301 71.8798 42.2401 71.4898 42.2401 70.9898C42.2401 70.4898 42.6401 70.0898 43.1301 70.0898H68.4901M39.2801 71.9898C39.7701 71.9898 40.1801 72.3898 40.1801 72.8898C40.1801 73.3898 39.7801 73.7698 39.2801 73.7698H31.6601C31.1701 73.7698 30.7701 73.3698 30.7701 72.8898C30.7701 72.4098 31.1601 71.9898 31.6601 71.9898H39.2801ZM61.1301 31.2798H48.8901C48.2601 31.2798 47.7501 31.7898 47.7501 32.4198C47.7501 33.0498 48.2601 33.5598 48.8901 33.5598H61.1301C61.9501 33.5598 62.6101 34.2298 62.6101 35.0498V39.4698L64.8901 38.3898V35.0498C64.8901 32.9698 63.2001 31.2798 61.1301 31.2798ZM22.3101 31.2798H8.80006C6.73006 31.2798 5.04006 32.9698 5.04006 35.0498V67.2098C5.04006 67.8398 5.55006 68.3498 6.18006 68.3498C6.81006 68.3498 7.32006 67.8398 7.32006 67.2098V35.0498C7.32006 34.2298 7.98006 33.5598 8.80006 33.5598H22.3101C22.9401 33.5598 23.4501 33.0498 23.4501 32.4198C23.4501 31.7898 22.9401 31.2798 22.3101 31.2798ZM62.6101 47.1598V67.1998C62.6101 67.8298 63.1201 68.3398 63.7501 68.3398C64.3801 68.3398 64.8901 67.8298 64.8901 67.1998V48.3498L62.6101 47.1498V47.1598ZM68.5101 69.8498H43.1501C42.5201 69.8498 42.0101 70.3598 42.0101 70.9898C42.0101 71.6198 42.5101 72.1298 43.1501 72.1298H67.3701V72.4498C67.3701 74.3598 66.0501 75.9198 64.4301 75.9198H6.54006C4.91006 75.9198 3.59006 74.3698 3.59006 72.4498V72.1298H27.8101C28.4401 72.1298 28.9501 71.6198 28.9501 70.9898C28.9501 70.3598 28.4401 69.8498 27.8101 69.8498H2.45006C1.82006 69.8498 1.31006 70.3598 1.31006 70.9898V72.4498C1.31006 75.6198 3.66006 78.1998 6.54006 78.1998H64.4301C67.3101 78.1998 69.6501 75.6198 69.6501 72.4498V70.9898C69.6501 70.3598 69.1401 69.8498 68.5101 69.8498ZM39.2801 71.7398H31.6601C31.0201 71.7398 30.5201 72.2398 30.5201 72.8798C30.5201 73.5198 31.0301 74.0098 31.6601 74.0098H39.2801C39.9101 74.0098 40.4201 73.4998 40.4201 72.8798C40.4201 72.2598 39.9101 71.7398 39.2801 71.7398Z" fill="url(#paint5_linear_1005_6045)"/>
<path d="M41.87 22.9598C41.87 23.1298 41.74 23.2598 41.57 23.2598C41.4 23.2598 41.27 23.1298 41.27 22.9598V19.6298H40.09V22.9598C40.09 23.1298 39.96 23.2598 39.79 23.2598C39.62 23.2598 39.49 23.1298 39.49 22.9598V19.3298C39.49 19.1598 39.62 19.0298 39.79 19.0298H41.57C41.74 19.0298 41.87 19.1598 41.87 19.3298V22.9598Z" fill="url(#paint6_linear_1005_6045)"/>
<path d="M38.5001 22.96C38.5001 23.13 38.3701 23.26 38.2001 23.26C38.0301 23.26 37.9001 23.13 37.9001 22.96V21.33H36.7201V22.96C36.7201 23.13 36.5901 23.26 36.4201 23.26C36.2501 23.26 36.1201 23.13 36.1201 22.96V21.03C36.1201 20.86 36.2501 20.73 36.4201 20.73H38.2001C38.3701 20.73 38.5001 20.86 38.5001 21.03V22.96Z" fill="url(#paint7_linear_1005_6045)"/>
<path d="M35.2401 22.9598C35.2401 23.1298 35.1101 23.2598 34.9401 23.2598C34.7701 23.2598 34.6401 23.1298 34.6401 22.9598V20.3798H33.4601V22.9598C33.4601 23.1298 33.3301 23.2598 33.1601 23.2598C32.9901 23.2598 32.8601 23.1298 32.8601 22.9598V20.0798C32.8601 19.9098 32.9901 19.7798 33.1601 19.7798H34.9401C35.1101 19.7798 35.2401 19.9098 35.2401 20.0798V22.9598Z" fill="url(#paint8_linear_1005_6045)"/>
<path d="M31.9801 22.9597C31.9801 23.1297 31.8501 23.2597 31.6801 23.2597C31.5101 23.2597 31.3801 23.1297 31.3801 22.9597V21.7597H30.2001V22.9597C30.2001 23.1297 30.0701 23.2597 29.9001 23.2597C29.7301 23.2597 29.6001 23.1297 29.6001 22.9597V21.4597C29.6001 21.2897 29.7301 21.1597 29.9001 21.1597H31.6801C31.8501 21.1597 31.9801 21.2897 31.9801 21.4597V22.9597Z" fill="url(#paint9_linear_1005_6045)"/>
<path d="M42.39 24.02C42.56 24.02 42.69 24.15 42.69 24.32C42.69 24.49 42.56 24.62 42.39 24.62H28.8C28.63 24.62 28.5 24.49 28.5 24.32C28.5 24.15 28.63 24.02 28.8 24.02H42.39Z" fill="url(#paint10_linear_1005_6045)"/>
<path d="M39.5801 14.3899L40.7901 14.3599C40.9601 14.3599 41.1201 14.5199 41.0901 14.6999L40.9201 15.8999C40.9001 16.0599 40.7501 16.1799 40.5801 16.1499C40.4201 16.1299 40.3001 15.9699 40.3301 15.8099L40.3901 15.4299L36.2801 18.8399C36.1801 18.9299 36.0301 18.9299 35.9201 18.8599L33.5201 17.1899L30.2401 20.2899C30.1201 20.3999 29.9301 20.3999 29.8201 20.2799C29.7101 20.1599 29.7101 19.9699 29.8301 19.8599L33.2901 16.5999C33.3901 16.4999 33.5501 16.4899 33.6701 16.5699L36.0801 18.2499L40.0101 14.9899H39.6001V14.9999C39.4401 14.9999 39.3101 14.8699 39.3001 14.7099C39.3001 14.5399 39.4301 14.4099 39.5901 14.3999L39.5801 14.3899Z" fill="url(#paint11_linear_1005_6045)"/>
<path d="M41.87 22.9598C41.87 23.1298 41.74 23.2598 41.57 23.2598C41.4 23.2598 41.27 23.1298 41.27 22.9598V19.6298H40.09V22.9598C40.09 23.1298 39.96 23.2598 39.79 23.2598C39.62 23.2598 39.49 23.1298 39.49 22.9598V19.3298C39.49 19.1598 39.62 19.0298 39.79 19.0298H41.57C41.74 19.0298 41.87 19.1598 41.87 19.3298V22.9598Z" fill="url(#paint12_linear_1005_6045)"/>
<path d="M38.5001 22.96C38.5001 23.13 38.3701 23.26 38.2001 23.26C38.0301 23.26 37.9001 23.13 37.9001 22.96V21.33H36.7201V22.96C36.7201 23.13 36.5901 23.26 36.4201 23.26C36.2501 23.26 36.1201 23.13 36.1201 22.96V21.03C36.1201 20.86 36.2501 20.73 36.4201 20.73H38.2001C38.3701 20.73 38.5001 20.86 38.5001 21.03V22.96Z" fill="url(#paint13_linear_1005_6045)"/>
<path d="M35.2401 22.9598C35.2401 23.1298 35.1101 23.2598 34.9401 23.2598C34.7701 23.2598 34.6401 23.1298 34.6401 22.9598V20.3798H33.4601V22.9598C33.4601 23.1298 33.3301 23.2598 33.1601 23.2598C32.9901 23.2598 32.8601 23.1298 32.8601 22.9598V20.0798C32.8601 19.9098 32.9901 19.7798 33.1601 19.7798H34.9401C35.1101 19.7798 35.2401 19.9098 35.2401 20.0798V22.9598Z" fill="url(#paint14_linear_1005_6045)"/>
<path d="M31.9801 22.9597C31.9801 23.1297 31.8501 23.2597 31.6801 23.2597C31.5101 23.2597 31.3801 23.1297 31.3801 22.9597V21.7597H30.2001V22.9597C30.2001 23.1297 30.0701 23.2597 29.9001 23.2597C29.7301 23.2597 29.6001 23.1297 29.6001 22.9597V21.4597C29.6001 21.2897 29.7301 21.1597 29.9001 21.1597H31.6801C31.8501 21.1597 31.9801 21.2897 31.9801 21.4597V22.9597Z" fill="url(#paint15_linear_1005_6045)"/>
<path d="M42.39 24.02C42.56 24.02 42.69 24.15 42.69 24.32C42.69 24.49 42.56 24.62 42.39 24.62H28.8C28.63 24.62 28.5 24.49 28.5 24.32C28.5 24.15 28.63 24.02 28.8 24.02H42.39Z" fill="url(#paint16_linear_1005_6045)"/>
<path d="M39.5801 14.3899L40.7901 14.3599C40.9601 14.3599 41.1201 14.5199 41.0901 14.6999L40.9201 15.8999C40.9001 16.0599 40.7501 16.1799 40.5801 16.1499C40.4201 16.1299 40.3001 15.9699 40.3301 15.8099L40.3901 15.4299L36.2801 18.8399C36.1801 18.9299 36.0301 18.9299 35.9201 18.8599L33.5201 17.1899L30.2401 20.2899C30.1201 20.3999 29.9301 20.3999 29.8201 20.2799C29.7101 20.1599 29.7101 19.9699 29.8301 19.8599L33.2901 16.5999C33.3901 16.4999 33.5501 16.4899 33.6701 16.5699L36.0801 18.2499L40.0101 14.9899H39.6001V14.9999C39.4401 14.9999 39.3101 14.8699 39.3001 14.7099C39.3001 14.5399 39.4301 14.4099 39.5901 14.3999L39.5801 14.3899Z" fill="url(#paint17_linear_1005_6045)"/>
<path d="M41.87 22.9598C41.87 23.1298 41.74 23.2598 41.57 23.2598C41.4 23.2598 41.27 23.1298 41.27 22.9598V19.6298H40.09V22.9598C40.09 23.1298 39.96 23.2598 39.79 23.2598C39.62 23.2598 39.49 23.1298 39.49 22.9598V19.3298C39.49 19.1598 39.62 19.0298 39.79 19.0298H41.57C41.74 19.0298 41.87 19.1598 41.87 19.3298V22.9598Z" fill="url(#paint18_linear_1005_6045)"/>
<path d="M41.57 19.0298H39.79C39.62 19.0298 39.49 19.1598 39.49 19.3298V22.9598C39.49 23.1298 39.62 23.2598 39.79 23.2598C39.96 23.2598 40.09 23.1298 40.09 22.9598V19.6298H41.27V22.9598C41.27 23.1298 41.4 23.2598 41.57 23.2598C41.74 23.2598 41.87 23.1298 41.87 22.9598V19.3298C41.87 19.1598 41.74 19.0298 41.57 19.0298Z" fill="url(#paint19_linear_1005_6045)"/>
<path d="M38.5001 22.96C38.5001 23.13 38.3701 23.26 38.2001 23.26C38.0301 23.26 37.9001 23.13 37.9001 22.96V21.33H36.7201V22.96C36.7201 23.13 36.5901 23.26 36.4201 23.26C36.2501 23.26 36.1201 23.13 36.1201 22.96V21.03C36.1201 20.86 36.2501 20.73 36.4201 20.73H38.2001C38.3701 20.73 38.5001 20.86 38.5001 21.03V22.96Z" fill="url(#paint20_linear_1005_6045)"/>
<path d="M38.2001 20.73H36.4201C36.2501 20.73 36.1201 20.86 36.1201 21.03V22.96C36.1201 23.13 36.2501 23.26 36.4201 23.26C36.5901 23.26 36.7201 23.13 36.7201 22.96V21.33H37.9001V22.96C37.9001 23.13 38.0301 23.26 38.2001 23.26C38.3701 23.26 38.5001 23.13 38.5001 22.96V21.03C38.5001 20.86 38.3701 20.73 38.2001 20.73Z" fill="url(#paint21_linear_1005_6045)"/>
<path d="M35.2401 22.9598C35.2401 23.1298 35.1101 23.2598 34.9401 23.2598C34.7701 23.2598 34.6401 23.1298 34.6401 22.9598V20.3798H33.4601V22.9598C33.4601 23.1298 33.3301 23.2598 33.1601 23.2598C32.9901 23.2598 32.8601 23.1298 32.8601 22.9598V20.0798C32.8601 19.9098 32.9901 19.7798 33.1601 19.7798H34.9401C35.1101 19.7798 35.2401 19.9098 35.2401 20.0798V22.9598Z" fill="url(#paint22_linear_1005_6045)"/>
<path d="M34.9401 19.7798H33.1601C32.9901 19.7798 32.8601 19.9098 32.8601 20.0798V22.9598C32.8601 23.1298 32.9901 23.2598 33.1601 23.2598C33.3301 23.2598 33.4601 23.1298 33.4601 22.9598V20.3798H34.6401V22.9598C34.6401 23.1298 34.7701 23.2598 34.9401 23.2598C35.1101 23.2598 35.2401 23.1298 35.2401 22.9598V20.0798C35.2401 19.9098 35.1101 19.7798 34.9401 19.7798Z" fill="url(#paint23_linear_1005_6045)"/>
<path d="M31.9801 22.9597C31.9801 23.1297 31.8501 23.2597 31.6801 23.2597C31.5101 23.2597 31.3801 23.1297 31.3801 22.9597V21.7597H30.2001V22.9597C30.2001 23.1297 30.0701 23.2597 29.9001 23.2597C29.7301 23.2597 29.6001 23.1297 29.6001 22.9597V21.4597C29.6001 21.2897 29.7301 21.1597 29.9001 21.1597H31.6801C31.8501 21.1597 31.9801 21.2897 31.9801 21.4597V22.9597Z" fill="url(#paint24_linear_1005_6045)"/>
<path d="M31.6801 21.1597H29.9001C29.7301 21.1597 29.6001 21.2897 29.6001 21.4597V22.9597C29.6001 23.1297 29.7301 23.2597 29.9001 23.2597C30.0701 23.2597 30.2001 23.1297 30.2001 22.9597V21.7597H31.3801V22.9597C31.3801 23.1297 31.5101 23.2597 31.6801 23.2597C31.8501 23.2597 31.9801 23.1297 31.9801 22.9597V21.4597C31.9801 21.2897 31.8501 21.1597 31.6801 21.1597Z" fill="url(#paint25_linear_1005_6045)"/>
<path d="M42.39 24.02C42.56 24.02 42.69 24.15 42.69 24.32C42.69 24.49 42.56 24.62 42.39 24.62H28.8C28.63 24.62 28.5 24.49 28.5 24.32C28.5 24.15 28.63 24.02 28.8 24.02H42.39Z" fill="url(#paint26_linear_1005_6045)"/>
<path d="M42.39 24.02H28.8C28.63 24.02 28.5 24.15 28.5 24.32C28.5 24.49 28.63 24.62 28.8 24.62H42.39C42.56 24.62 42.69 24.49 42.69 24.32C42.69 24.15 42.56 24.02 42.39 24.02Z" fill="url(#paint27_linear_1005_6045)"/>
<path d="M39.5801 14.3899L40.7901 14.3599C40.9601 14.3599 41.1201 14.5199 41.0901 14.6999L40.9201 15.8999C40.9001 16.0599 40.7501 16.1799 40.5801 16.1499C40.4201 16.1299 40.3001 15.9699 40.3301 15.8099L40.3901 15.4299L36.2801 18.8399C36.1801 18.9299 36.0301 18.9299 35.9201 18.8599L33.5201 17.1899L30.2401 20.2899C30.1201 20.3999 29.9301 20.3999 29.8201 20.2799C29.7101 20.1599 29.7101 19.9699 29.8301 19.8599L33.2901 16.5999C33.3901 16.4999 33.5501 16.4899 33.6701 16.5699L36.0801 18.2499L40.0101 14.9899H39.6001V14.9999C39.4401 14.9999 39.3101 14.8699 39.3001 14.7099C39.3001 14.5399 39.4301 14.4099 39.5901 14.3999L39.5801 14.3899Z" fill="url(#paint28_linear_1005_6045)"/>
<path d="M40.8 14.3598L39.59 14.3898C39.42 14.3898 39.29 14.5298 39.3 14.6998C39.3 14.8598 39.44 14.9898 39.6 14.9898H40.01L36.08 18.2398L33.67 16.5598C33.62 16.5198 33.56 16.5098 33.5 16.5098C33.43 16.5098 33.35 16.5398 33.29 16.5898L29.83 19.8498C29.71 19.9598 29.7 20.1498 29.82 20.2698C29.88 20.3298 29.96 20.3598 30.04 20.3598C30.11 20.3598 30.19 20.3298 30.25 20.2798L33.53 17.1798L35.93 18.8498C35.98 18.8898 36.04 18.8998 36.1 18.8998C36.17 18.8998 36.24 18.8798 36.29 18.8298L40.4 15.4198L40.34 15.7998C40.32 15.9598 40.43 16.1198 40.59 16.1398C40.6 16.1398 40.62 16.1398 40.63 16.1398C40.78 16.1398 40.91 16.0298 40.93 15.8798L41.1 14.6798C41.13 14.5098 40.97 14.3398 40.81 14.3398L40.8 14.3598Z" fill="url(#paint29_linear_1005_6045)"/>
<path d="M41.87 22.9598C41.87 23.1298 41.74 23.2598 41.57 23.2598C41.4 23.2598 41.27 23.1298 41.27 22.9598V19.6298H40.09V22.9598C40.09 23.1298 39.96 23.2598 39.79 23.2598C39.62 23.2598 39.49 23.1298 39.49 22.9598V19.3298C39.49 19.1598 39.62 19.0298 39.79 19.0298H41.57C41.74 19.0298 41.87 19.1598 41.87 19.3298V22.9598Z" fill="url(#paint30_linear_1005_6045)"/>
<path d="M41.57 19.0298H39.79C39.62 19.0298 39.49 19.1598 39.49 19.3298V22.9598C39.49 23.1298 39.62 23.2598 39.79 23.2598C39.96 23.2598 40.09 23.1298 40.09 22.9598V19.6298H41.27V22.9598C41.27 23.1298 41.4 23.2598 41.57 23.2598C41.74 23.2598 41.87 23.1298 41.87 22.9598V19.3298C41.87 19.1598 41.74 19.0298 41.57 19.0298Z" fill="url(#paint31_linear_1005_6045)"/>
<path d="M38.5001 22.96C38.5001 23.13 38.3701 23.26 38.2001 23.26C38.0301 23.26 37.9001 23.13 37.9001 22.96V21.33H36.7201V22.96C36.7201 23.13 36.5901 23.26 36.4201 23.26C36.2501 23.26 36.1201 23.13 36.1201 22.96V21.03C36.1201 20.86 36.2501 20.73 36.4201 20.73H38.2001C38.3701 20.73 38.5001 20.86 38.5001 21.03V22.96Z" fill="url(#paint32_linear_1005_6045)"/>
<path d="M38.2001 20.73H36.4201C36.2501 20.73 36.1201 20.86 36.1201 21.03V22.96C36.1201 23.13 36.2501 23.26 36.4201 23.26C36.5901 23.26 36.7201 23.13 36.7201 22.96V21.33H37.9001V22.96C37.9001 23.13 38.0301 23.26 38.2001 23.26C38.3701 23.26 38.5001 23.13 38.5001 22.96V21.03C38.5001 20.86 38.3701 20.73 38.2001 20.73Z" fill="url(#paint33_linear_1005_6045)"/>
<path d="M35.2401 22.9598C35.2401 23.1298 35.1101 23.2598 34.9401 23.2598C34.7701 23.2598 34.6401 23.1298 34.6401 22.9598V20.3798H33.4601V22.9598C33.4601 23.1298 33.3301 23.2598 33.1601 23.2598C32.9901 23.2598 32.8601 23.1298 32.8601 22.9598V20.0798C32.8601 19.9098 32.9901 19.7798 33.1601 19.7798H34.9401C35.1101 19.7798 35.2401 19.9098 35.2401 20.0798V22.9598Z" fill="url(#paint34_linear_1005_6045)"/>
<path d="M34.9401 19.7798H33.1601C32.9901 19.7798 32.8601 19.9098 32.8601 20.0798V22.9598C32.8601 23.1298 32.9901 23.2598 33.1601 23.2598C33.3301 23.2598 33.4601 23.1298 33.4601 22.9598V20.3798H34.6401V22.9598C34.6401 23.1298 34.7701 23.2598 34.9401 23.2598C35.1101 23.2598 35.2401 23.1298 35.2401 22.9598V20.0798C35.2401 19.9098 35.1101 19.7798 34.9401 19.7798Z" fill="url(#paint35_linear_1005_6045)"/>
<path d="M31.9801 22.9597C31.9801 23.1297 31.8501 23.2597 31.6801 23.2597C31.5101 23.2597 31.3801 23.1297 31.3801 22.9597V21.7597H30.2001V22.9597C30.2001 23.1297 30.0701 23.2597 29.9001 23.2597C29.7301 23.2597 29.6001 23.1297 29.6001 22.9597V21.4597C29.6001 21.2897 29.7301 21.1597 29.9001 21.1597H31.6801C31.8501 21.1597 31.9801 21.2897 31.9801 21.4597V22.9597Z" fill="url(#paint36_linear_1005_6045)"/>
<path d="M31.6801 21.1597H29.9001C29.7301 21.1597 29.6001 21.2897 29.6001 21.4597V22.9597C29.6001 23.1297 29.7301 23.2597 29.9001 23.2597C30.0701 23.2597 30.2001 23.1297 30.2001 22.9597V21.7597H31.3801V22.9597C31.3801 23.1297 31.5101 23.2597 31.6801 23.2597C31.8501 23.2597 31.9801 23.1297 31.9801 22.9597V21.4597C31.9801 21.2897 31.8501 21.1597 31.6801 21.1597Z" fill="url(#paint37_linear_1005_6045)"/>
<path d="M42.39 24.02C42.56 24.02 42.69 24.15 42.69 24.32C42.69 24.49 42.56 24.62 42.39 24.62H28.8C28.63 24.62 28.5 24.49 28.5 24.32C28.5 24.15 28.63 24.02 28.8 24.02H42.39Z" fill="url(#paint38_linear_1005_6045)"/>
<path d="M42.39 24.02H28.8C28.63 24.02 28.5 24.15 28.5 24.32C28.5 24.49 28.63 24.62 28.8 24.62H42.39C42.56 24.62 42.69 24.49 42.69 24.32C42.69 24.15 42.56 24.02 42.39 24.02Z" fill="url(#paint39_linear_1005_6045)"/>
<path d="M39.5801 14.3899L40.7901 14.3599C40.9601 14.3599 41.1201 14.5199 41.0901 14.6999L40.9201 15.8999C40.9001 16.0599 40.7501 16.1799 40.5801 16.1499C40.4201 16.1299 40.3001 15.9699 40.3301 15.8099L40.3901 15.4299L36.2801 18.8399C36.1801 18.9299 36.0301 18.9299 35.9201 18.8599L33.5201 17.1899L30.2401 20.2899C30.1201 20.3999 29.9301 20.3999 29.8201 20.2799C29.7101 20.1599 29.7101 19.9699 29.8301 19.8599L33.2901 16.5999C33.3901 16.4999 33.5501 16.4899 33.6701 16.5699L36.0801 18.2499L40.0101 14.9899H39.6001V14.9999C39.4401 14.9999 39.3101 14.8699 39.3001 14.7099C39.3001 14.5399 39.4301 14.4099 39.5901 14.3999L39.5801 14.3899Z" fill="url(#paint40_linear_1005_6045)"/>
<path d="M40.8 14.3598L39.59 14.3898C39.42 14.3898 39.29 14.5298 39.3 14.6998C39.3 14.8598 39.44 14.9898 39.6 14.9898H40.01L36.08 18.2398L33.67 16.5598C33.62 16.5198 33.56 16.5098 33.5 16.5098C33.43 16.5098 33.35 16.5398 33.29 16.5898L29.83 19.8498C29.71 19.9598 29.7 20.1498 29.82 20.2698C29.88 20.3298 29.96 20.3598 30.04 20.3598C30.11 20.3598 30.19 20.3298 30.25 20.2798L33.53 17.1798L35.93 18.8498C35.98 18.8898 36.04 18.8998 36.1 18.8998C36.17 18.8998 36.24 18.8798 36.29 18.8298L40.4 15.4198L40.34 15.7998C40.32 15.9598 40.43 16.1198 40.59 16.1398C40.6 16.1398 40.62 16.1398 40.63 16.1398C40.78 16.1398 40.91 16.0298 40.93 15.8798L41.1 14.6798C41.13 14.5098 40.97 14.3398 40.81 14.3398L40.8 14.3598Z" fill="url(#paint41_linear_1005_6045)"/>
<path d="M41.87 22.9598C41.87 23.1298 41.74 23.2598 41.57 23.2598C41.4 23.2598 41.27 23.1298 41.27 22.9598V19.6298H40.09V22.9598C40.09 23.1298 39.96 23.2598 39.79 23.2598C39.62 23.2598 39.49 23.1298 39.49 22.9598V19.3298C39.49 19.1598 39.62 19.0298 39.79 19.0298H41.57C41.74 19.0298 41.87 19.1598 41.87 19.3298V22.9598Z" stroke="url(#paint42_linear_1005_6045)" stroke-width="0.08"/>
<path d="M41.57 19.0298H39.79C39.62 19.0298 39.49 19.1598 39.49 19.3298V22.9598C39.49 23.1298 39.62 23.2598 39.79 23.2598C39.96 23.2598 40.09 23.1298 40.09 22.9598V19.6298H41.27V22.9598C41.27 23.1298 41.4 23.2598 41.57 23.2598C41.74 23.2598 41.87 23.1298 41.87 22.9598V19.3298C41.87 19.1598 41.74 19.0298 41.57 19.0298Z" stroke="url(#paint43_linear_1005_6045)" stroke-width="0.08"/>
<path d="M38.5001 22.96C38.5001 23.13 38.3701 23.26 38.2001 23.26C38.0301 23.26 37.9001 23.13 37.9001 22.96V21.33H36.7201V22.96C36.7201 23.13 36.5901 23.26 36.4201 23.26C36.2501 23.26 36.1201 23.13 36.1201 22.96V21.03C36.1201 20.86 36.2501 20.73 36.4201 20.73H38.2001C38.3701 20.73 38.5001 20.86 38.5001 21.03V22.96Z" stroke="url(#paint44_linear_1005_6045)" stroke-width="0.08"/>
<path d="M38.2001 20.73H36.4201C36.2501 20.73 36.1201 20.86 36.1201 21.03V22.96C36.1201 23.13 36.2501 23.26 36.4201 23.26C36.5901 23.26 36.7201 23.13 36.7201 22.96V21.33H37.9001V22.96C37.9001 23.13 38.0301 23.26 38.2001 23.26C38.3701 23.26 38.5001 23.13 38.5001 22.96V21.03C38.5001 20.86 38.3701 20.73 38.2001 20.73Z" stroke="url(#paint45_linear_1005_6045)" stroke-width="0.08"/>
<path d="M35.2401 22.9598C35.2401 23.1298 35.1101 23.2598 34.9401 23.2598C34.7701 23.2598 34.6401 23.1298 34.6401 22.9598V20.3798H33.4601V22.9598C33.4601 23.1298 33.3301 23.2598 33.1601 23.2598C32.9901 23.2598 32.8601 23.1298 32.8601 22.9598V20.0798C32.8601 19.9098 32.9901 19.7798 33.1601 19.7798H34.9401C35.1101 19.7798 35.2401 19.9098 35.2401 20.0798V22.9598Z" stroke="url(#paint46_linear_1005_6045)" stroke-width="0.08"/>
<path d="M34.9401 19.7798H33.1601C32.9901 19.7798 32.8601 19.9098 32.8601 20.0798V22.9598C32.8601 23.1298 32.9901 23.2598 33.1601 23.2598C33.3301 23.2598 33.4601 23.1298 33.4601 22.9598V20.3798H34.6401V22.9598C34.6401 23.1298 34.7701 23.2598 34.9401 23.2598C35.1101 23.2598 35.2401 23.1298 35.2401 22.9598V20.0798C35.2401 19.9098 35.1101 19.7798 34.9401 19.7798Z" stroke="url(#paint47_linear_1005_6045)" stroke-width="0.08"/>
<path d="M31.9801 22.9597C31.9801 23.1297 31.8501 23.2597 31.6801 23.2597C31.5101 23.2597 31.3801 23.1297 31.3801 22.9597V21.7597H30.2001V22.9597C30.2001 23.1297 30.0701 23.2597 29.9001 23.2597C29.7301 23.2597 29.6001 23.1297 29.6001 22.9597V21.4597C29.6001 21.2897 29.7301 21.1597 29.9001 21.1597H31.6801C31.8501 21.1597 31.9801 21.2897 31.9801 21.4597V22.9597Z" stroke="url(#paint48_linear_1005_6045)" stroke-width="0.08"/>
<path d="M31.6801 21.1597H29.9001C29.7301 21.1597 29.6001 21.2897 29.6001 21.4597V22.9597C29.6001 23.1297 29.7301 23.2597 29.9001 23.2597C30.0701 23.2597 30.2001 23.1297 30.2001 22.9597V21.7597H31.3801V22.9597C31.3801 23.1297 31.5101 23.2597 31.6801 23.2597C31.8501 23.2597 31.9801 23.1297 31.9801 22.9597V21.4597C31.9801 21.2897 31.8501 21.1597 31.6801 21.1597Z" stroke="url(#paint49_linear_1005_6045)" stroke-width="0.08"/>
<path d="M42.39 24.02C42.56 24.02 42.69 24.15 42.69 24.32C42.69 24.49 42.56 24.62 42.39 24.62H28.8C28.63 24.62 28.5 24.49 28.5 24.32C28.5 24.15 28.63 24.02 28.8 24.02H42.39Z" stroke="url(#paint50_linear_1005_6045)" stroke-width="0.08"/>
<path d="M42.39 24.02H28.8C28.63 24.02 28.5 24.15 28.5 24.32C28.5 24.49 28.63 24.62 28.8 24.62H42.39C42.56 24.62 42.69 24.49 42.69 24.32C42.69 24.15 42.56 24.02 42.39 24.02Z" stroke="url(#paint51_linear_1005_6045)" stroke-width="0.08"/>
<path d="M39.5801 14.3899L40.7901 14.3599C40.9601 14.3599 41.1201 14.5199 41.0901 14.6999L40.9201 15.8999C40.9001 16.0599 40.7501 16.1799 40.5801 16.1499C40.4201 16.1299 40.3001 15.9699 40.3301 15.8099L40.3901 15.4299L36.2801 18.8399C36.1801 18.9299 36.0301 18.9299 35.9201 18.8599L33.5201 17.1899L30.2401 20.2899C30.1201 20.3999 29.9301 20.3999 29.8201 20.2799C29.7101 20.1599 29.7101 19.9699 29.8301 19.8599L33.2901 16.5999C33.3901 16.4999 33.5501 16.4899 33.6701 16.5699L36.0801 18.2499L40.0101 14.9899H39.6001V14.9999C39.4401 14.9999 39.3101 14.8699 39.3001 14.7099C39.3001 14.5399 39.4301 14.4099 39.5901 14.3999L39.5801 14.3899Z" stroke="url(#paint52_linear_1005_6045)" stroke-width="0.08"/>
<path d="M40.8 14.3598L39.59 14.3898C39.42 14.3898 39.29 14.5298 39.3 14.6998C39.3 14.8598 39.44 14.9898 39.6 14.9898H40.01L36.08 18.2398L33.67 16.5598C33.62 16.5198 33.56 16.5098 33.5 16.5098C33.43 16.5098 33.35 16.5398 33.29 16.5898L29.83 19.8498C29.71 19.9598 29.7 20.1498 29.82 20.2698C29.88 20.3298 29.96 20.3598 30.04 20.3598C30.11 20.3598 30.19 20.3298 30.25 20.2798L33.53 17.1798L35.93 18.8498C35.98 18.8898 36.04 18.8998 36.1 18.8998C36.17 18.8998 36.24 18.8798 36.29 18.8298L40.4 15.4198L40.34 15.7998C40.32 15.9598 40.43 16.1198 40.59 16.1398C40.6 16.1398 40.62 16.1398 40.63 16.1398C40.78 16.1398 40.91 16.0298 40.93 15.8798L41.1 14.6798C41.13 14.5098 40.97 14.3398 40.81 14.3398L40.8 14.3598Z" stroke="url(#paint53_linear_1005_6045)" stroke-width="0.08"/>
<path d="M41.87 22.9598C41.87 23.1298 41.74 23.2598 41.57 23.2598C41.4 23.2598 41.27 23.1298 41.27 22.9598V19.6298H40.09V22.9598C40.09 23.1298 39.96 23.2598 39.79 23.2598C39.62 23.2598 39.49 23.1298 39.49 22.9598V19.3298C39.49 19.1598 39.62 19.0298 39.79 19.0298H41.57C41.74 19.0298 41.87 19.1598 41.87 19.3298V22.9598Z" stroke="url(#paint54_linear_1005_6045)" stroke-width="0.08"/>
<path d="M41.57 19.0298H39.79C39.62 19.0298 39.49 19.1598 39.49 19.3298V22.9598C39.49 23.1298 39.62 23.2598 39.79 23.2598C39.96 23.2598 40.09 23.1298 40.09 22.9598V19.6298H41.27V22.9598C41.27 23.1298 41.4 23.2598 41.57 23.2598C41.74 23.2598 41.87 23.1298 41.87 22.9598V19.3298C41.87 19.1598 41.74 19.0298 41.57 19.0298Z" stroke="url(#paint55_linear_1005_6045)" stroke-width="0.08"/>
<path d="M38.5001 22.96C38.5001 23.13 38.3701 23.26 38.2001 23.26C38.0301 23.26 37.9001 23.13 37.9001 22.96V21.33H36.7201V22.96C36.7201 23.13 36.5901 23.26 36.4201 23.26C36.2501 23.26 36.1201 23.13 36.1201 22.96V21.03C36.1201 20.86 36.2501 20.73 36.4201 20.73H38.2001C38.3701 20.73 38.5001 20.86 38.5001 21.03V22.96Z" stroke="url(#paint56_linear_1005_6045)" stroke-width="0.08"/>
<path d="M38.2001 20.73H36.4201C36.2501 20.73 36.1201 20.86 36.1201 21.03V22.96C36.1201 23.13 36.2501 23.26 36.4201 23.26C36.5901 23.26 36.7201 23.13 36.7201 22.96V21.33H37.9001V22.96C37.9001 23.13 38.0301 23.26 38.2001 23.26C38.3701 23.26 38.5001 23.13 38.5001 22.96V21.03C38.5001 20.86 38.3701 20.73 38.2001 20.73Z" stroke="url(#paint57_linear_1005_6045)" stroke-width="0.08"/>
<path d="M35.2401 22.9598C35.2401 23.1298 35.1101 23.2598 34.9401 23.2598C34.7701 23.2598 34.6401 23.1298 34.6401 22.9598V20.3798H33.4601V22.9598C33.4601 23.1298 33.3301 23.2598 33.1601 23.2598C32.9901 23.2598 32.8601 23.1298 32.8601 22.9598V20.0798C32.8601 19.9098 32.9901 19.7798 33.1601 19.7798H34.9401C35.1101 19.7798 35.2401 19.9098 35.2401 20.0798V22.9598Z" stroke="url(#paint58_linear_1005_6045)" stroke-width="0.08"/>
<path d="M34.9401 19.7798H33.1601C32.9901 19.7798 32.8601 19.9098 32.8601 20.0798V22.9598C32.8601 23.1298 32.9901 23.2598 33.1601 23.2598C33.3301 23.2598 33.4601 23.1298 33.4601 22.9598V20.3798H34.6401V22.9598C34.6401 23.1298 34.7701 23.2598 34.9401 23.2598C35.1101 23.2598 35.2401 23.1298 35.2401 22.9598V20.0798C35.2401 19.9098 35.1101 19.7798 34.9401 19.7798Z" stroke="url(#paint59_linear_1005_6045)" stroke-width="0.08"/>
<path d="M31.9801 22.9597C31.9801 23.1297 31.8501 23.2597 31.6801 23.2597C31.5101 23.2597 31.3801 23.1297 31.3801 22.9597V21.7597H30.2001V22.9597C30.2001 23.1297 30.0701 23.2597 29.9001 23.2597C29.7301 23.2597 29.6001 23.1297 29.6001 22.9597V21.4597C29.6001 21.2897 29.7301 21.1597 29.9001 21.1597H31.6801C31.8501 21.1597 31.9801 21.2897 31.9801 21.4597V22.9597Z" stroke="url(#paint60_linear_1005_6045)" stroke-width="0.08"/>
<path d="M31.6801 21.1597H29.9001C29.7301 21.1597 29.6001 21.2897 29.6001 21.4597V22.9597C29.6001 23.1297 29.7301 23.2597 29.9001 23.2597C30.0701 23.2597 30.2001 23.1297 30.2001 22.9597V21.7597H31.3801V22.9597C31.3801 23.1297 31.5101 23.2597 31.6801 23.2597C31.8501 23.2597 31.9801 23.1297 31.9801 22.9597V21.4597C31.9801 21.2897 31.8501 21.1597 31.6801 21.1597Z" stroke="url(#paint61_linear_1005_6045)" stroke-width="0.08"/>
<path d="M42.39 24.02C42.56 24.02 42.69 24.15 42.69 24.32C42.69 24.49 42.56 24.62 42.39 24.62H28.8C28.63 24.62 28.5 24.49 28.5 24.32C28.5 24.15 28.63 24.02 28.8 24.02H42.39Z" stroke="url(#paint62_linear_1005_6045)" stroke-width="0.08"/>
<path d="M42.39 24.02H28.8C28.63 24.02 28.5 24.15 28.5 24.32C28.5 24.49 28.63 24.62 28.8 24.62H42.39C42.56 24.62 42.69 24.49 42.69 24.32C42.69 24.15 42.56 24.02 42.39 24.02Z" stroke="url(#paint63_linear_1005_6045)" stroke-width="0.08"/>
<path d="M39.5801 14.3899L40.7901 14.3599C40.9601 14.3599 41.1201 14.5199 41.0901 14.6999L40.9201 15.8999C40.9001 16.0599 40.7501 16.1799 40.5801 16.1499C40.4201 16.1299 40.3001 15.9699 40.3301 15.8099L40.3901 15.4299L36.2801 18.8399C36.1801 18.9299 36.0301 18.9299 35.9201 18.8599L33.5201 17.1899L30.2401 20.2899C30.1201 20.3999 29.9301 20.3999 29.8201 20.2799C29.7101 20.1599 29.7101 19.9699 29.8301 19.8599L33.2901 16.5999C33.3901 16.4999 33.5501 16.4899 33.6701 16.5699L36.0801 18.2499L40.0101 14.9899H39.6001V14.9999C39.4401 14.9999 39.3101 14.8699 39.3001 14.7099C39.3001 14.5399 39.4301 14.4099 39.5901 14.3999L39.5801 14.3899Z" stroke="url(#paint64_linear_1005_6045)" stroke-width="0.08"/>
<path d="M40.8 14.3598L39.59 14.3898C39.42 14.3898 39.29 14.5298 39.3 14.6998C39.3 14.8598 39.44 14.9898 39.6 14.9898H40.01L36.08 18.2398L33.67 16.5598C33.62 16.5198 33.56 16.5098 33.5 16.5098C33.43 16.5098 33.35 16.5398 33.29 16.5898L29.83 19.8498C29.71 19.9598 29.7 20.1498 29.82 20.2698C29.88 20.3298 29.96 20.3598 30.04 20.3598C30.11 20.3598 30.19 20.3298 30.25 20.2798L33.53 17.1798L35.93 18.8498C35.98 18.8898 36.04 18.8998 36.1 18.8998C36.17 18.8998 36.24 18.8798 36.29 18.8298L40.4 15.4198L40.34 15.7998C40.32 15.9598 40.43 16.1198 40.59 16.1398C40.6 16.1398 40.62 16.1398 40.63 16.1398C40.78 16.1398 40.91 16.0298 40.93 15.8798L41.1 14.6798C41.13 14.5098 40.97 14.3398 40.81 14.3398L40.8 14.3598Z" stroke="url(#paint65_linear_1005_6045)" stroke-width="0.08"/>
<path d="M51.5202 62.7998C51.5202 63.2398 51.1602 63.5998 50.7202 63.5998C50.2802 63.5998 49.9202 63.2398 49.9202 62.7998V53.9198H46.7702V62.7998C46.7702 63.2398 46.4102 63.5998 45.9702 63.5998C45.5302 63.5998 45.1702 63.2398 45.1702 62.7998V53.1198C45.1702 52.6798 45.5302 52.3198 45.9702 52.3198H50.7102C51.1502 52.3198 51.5102 52.6798 51.5102 53.1198V62.7998H51.5202Z" fill="url(#paint66_linear_1005_6045)"/>
<path d="M42.5302 62.7999C42.5302 63.2399 42.1702 63.5999 41.7302 63.5999C41.2902 63.5999 40.9302 63.2399 40.9302 62.7999V58.4599H37.7802V62.7999C37.7802 63.2399 37.4202 63.5999 36.9802 63.5999C36.5402 63.5999 36.1802 63.2399 36.1802 62.7999V57.6599C36.1802 57.2199 36.5402 56.8599 36.9802 56.8599H41.7202C42.1602 56.8599 42.5202 57.2199 42.5202 57.6599V62.7999H42.5302Z" fill="url(#paint67_linear_1005_6045)"/>
<path d="M33.83 62.7998C33.83 63.2398 33.47 63.5998 33.03 63.5998C32.59 63.5998 32.23 63.2398 32.23 62.7998V55.8998H29.08V62.7998C29.08 63.2398 28.72 63.5998 28.28 63.5998C27.84 63.5998 27.48 63.2398 27.48 62.7998V55.0998C27.48 54.6598 27.84 54.2998 28.28 54.2998H33.02C33.46 54.2998 33.82 54.6598 33.82 55.0998V62.7998H33.83Z" fill="url(#paint68_linear_1005_6045)"/>
<path d="M25.13 62.7998C25.13 63.2398 24.77 63.5998 24.33 63.5998C23.89 63.5998 23.53 63.2398 23.53 62.7998V59.6098H20.39V62.7998C20.39 63.2398 20.03 63.5998 19.59 63.5998C19.15 63.5998 18.79 63.2398 18.79 62.7998V58.8098C18.79 58.3698 19.15 58.0098 19.59 58.0098H24.33C24.77 58.0098 25.13 58.3698 25.13 58.8098V62.7998Z" fill="url(#paint69_linear_1005_6045)"/>
<path d="M52.9101 65.6299C53.3501 65.6299 53.7101 65.9899 53.7101 66.4299C53.7101 66.8699 53.3501 67.2299 52.9101 67.2299H16.6101C16.1701 67.2299 15.8101 66.8699 15.8101 66.4299C15.8101 65.9899 16.1701 65.6299 16.6101 65.6299H52.9001H52.9101Z" fill="url(#paint70_linear_1005_6045)"/>
<path d="M45.41 39.93L48.65 39.84C49.1 39.82 49.53 40.28 49.46 40.75L48.99 43.96C48.93 44.38 48.54 44.7 48.09 44.64C47.65 44.58 47.35 44.17 47.41 43.74L47.56 42.72L36.59 51.82C36.31 52.05 35.92 52.07 35.62 51.86L29.21 47.4L20.45 55.67C20.13 55.97 19.62 55.96 19.32 55.64C19.02 55.32 19.03 54.81 19.35 54.51L28.58 45.8C28.86 45.54 29.27 45.51 29.58 45.73L36.02 50.21L46.51 41.51L45.43 41.54H45.41C44.98 41.54 44.62 41.2 44.61 40.76C44.6 40.32 44.95 39.95 45.39 39.94L45.41 39.93Z" fill="url(#paint71_linear_1005_6045)"/>
<path d="M51.5202 62.7998C51.5202 63.2398 51.1602 63.5998 50.7202 63.5998C50.2802 63.5998 49.9202 63.2398 49.9202 62.7998V53.9198H46.7702V62.7998C46.7702 63.2398 46.4102 63.5998 45.9702 63.5998C45.5302 63.5998 45.1702 63.2398 45.1702 62.7998V53.1198C45.1702 52.6798 45.5302 52.3198 45.9702 52.3198H50.7102C51.1502 52.3198 51.5102 52.6798 51.5102 53.1198V62.7998H51.5202Z" stroke="url(#paint72_linear_1005_6045)" stroke-width="0.24" stroke-miterlimit="10"/>
<path d="M42.5302 62.7999C42.5302 63.2399 42.1702 63.5999 41.7302 63.5999C41.2902 63.5999 40.9302 63.2399 40.9302 62.7999V58.4599H37.7802V62.7999C37.7802 63.2399 37.4202 63.5999 36.9802 63.5999C36.5402 63.5999 36.1802 63.2399 36.1802 62.7999V57.6599C36.1802 57.2199 36.5402 56.8599 36.9802 56.8599H41.7202C42.1602 56.8599 42.5202 57.2199 42.5202 57.6599V62.7999H42.5302Z" stroke="url(#paint73_linear_1005_6045)" stroke-width="0.24" stroke-miterlimit="10"/>
<path d="M33.83 62.7998C33.83 63.2398 33.47 63.5998 33.03 63.5998C32.59 63.5998 32.23 63.2398 32.23 62.7998V55.8998H29.08V62.7998C29.08 63.2398 28.72 63.5998 28.28 63.5998C27.84 63.5998 27.48 63.2398 27.48 62.7998V55.0998C27.48 54.6598 27.84 54.2998 28.28 54.2998H33.02C33.46 54.2998 33.82 54.6598 33.82 55.0998V62.7998H33.83Z" stroke="url(#paint74_linear_1005_6045)" stroke-width="0.24" stroke-miterlimit="10"/>
<path d="M25.13 62.7998C25.13 63.2398 24.77 63.5998 24.33 63.5998C23.89 63.5998 23.53 63.2398 23.53 62.7998V59.6098H20.39V62.7998C20.39 63.2398 20.03 63.5998 19.59 63.5998C19.15 63.5998 18.79 63.2398 18.79 62.7998V58.8098C18.79 58.3698 19.15 58.0098 19.59 58.0098H24.33C24.77 58.0098 25.13 58.3698 25.13 58.8098V62.7998Z" stroke="url(#paint75_linear_1005_6045)" stroke-width="0.24" stroke-miterlimit="10"/>
<path d="M52.9101 65.6299C53.3501 65.6299 53.7101 65.9899 53.7101 66.4299C53.7101 66.8699 53.3501 67.2299 52.9101 67.2299H16.6101C16.1701 67.2299 15.8101 66.8699 15.8101 66.4299C15.8101 65.9899 16.1701 65.6299 16.6101 65.6299H52.9001H52.9101Z" stroke="url(#paint76_linear_1005_6045)" stroke-width="0.24" stroke-miterlimit="10"/>
<path d="M45.41 39.93L48.65 39.84C49.1 39.82 49.53 40.28 49.46 40.75L48.99 43.96C48.93 44.38 48.54 44.7 48.09 44.64C47.65 44.58 47.35 44.17 47.41 43.74L47.56 42.72L36.59 51.82C36.31 52.05 35.92 52.07 35.62 51.86L29.21 47.4L20.45 55.67C20.13 55.97 19.62 55.96 19.32 55.64C19.02 55.32 19.03 54.81 19.35 54.51L28.58 45.8C28.86 45.54 29.27 45.51 29.58 45.73L36.02 50.21L46.51 41.51L45.43 41.54H45.41C44.98 41.54 44.62 41.2 44.61 40.76C44.6 40.32 44.95 39.95 45.39 39.94L45.41 39.93Z" stroke="url(#paint77_linear_1005_6045)" stroke-width="0.24" stroke-miterlimit="10"/>
<path d="M51.5202 62.7998C51.5202 63.2398 51.1602 63.5998 50.7202 63.5998C50.2802 63.5998 49.9202 63.2398 49.9202 62.7998V53.9198H46.7702V62.7998C46.7702 63.2398 46.4102 63.5998 45.9702 63.5998C45.5302 63.5998 45.1702 63.2398 45.1702 62.7998V53.1198C45.1702 52.6798 45.5302 52.3198 45.9702 52.3198H50.7102C51.1502 52.3198 51.5102 52.6798 51.5102 53.1198V62.7998H51.5202Z" stroke="url(#paint78_linear_1005_6045)" stroke-width="0.24"/>
<path d="M42.5302 62.7999C42.5302 63.2399 42.1702 63.5999 41.7302 63.5999C41.2902 63.5999 40.9302 63.2399 40.9302 62.7999V58.4599H37.7802V62.7999C37.7802 63.2399 37.4202 63.5999 36.9802 63.5999C36.5402 63.5999 36.1802 63.2399 36.1802 62.7999V57.6599C36.1802 57.2199 36.5402 56.8599 36.9802 56.8599H41.7202C42.1602 56.8599 42.5202 57.2199 42.5202 57.6599V62.7999H42.5302Z" stroke="url(#paint79_linear_1005_6045)" stroke-width="0.24"/>
<path d="M33.83 62.7998C33.83 63.2398 33.47 63.5998 33.03 63.5998C32.59 63.5998 32.23 63.2398 32.23 62.7998V55.8998H29.08V62.7998C29.08 63.2398 28.72 63.5998 28.28 63.5998C27.84 63.5998 27.48 63.2398 27.48 62.7998V55.0998C27.48 54.6598 27.84 54.2998 28.28 54.2998H33.02C33.46 54.2998 33.82 54.6598 33.82 55.0998V62.7998H33.83Z" stroke="url(#paint80_linear_1005_6045)" stroke-width="0.24"/>
<path d="M25.13 62.7998C25.13 63.2398 24.77 63.5998 24.33 63.5998C23.89 63.5998 23.53 63.2398 23.53 62.7998V59.6098H20.39V62.7998C20.39 63.2398 20.03 63.5998 19.59 63.5998C19.15 63.5998 18.79 63.2398 18.79 62.7998V58.8098C18.79 58.3698 19.15 58.0098 19.59 58.0098H24.33C24.77 58.0098 25.13 58.3698 25.13 58.8098V62.7998Z" stroke="url(#paint81_linear_1005_6045)" stroke-width="0.24"/>
<path d="M52.9101 65.6299C53.3501 65.6299 53.7101 65.9899 53.7101 66.4299C53.7101 66.8699 53.3501 67.2299 52.9101 67.2299H16.6101C16.1701 67.2299 15.8101 66.8699 15.8101 66.4299C15.8101 65.9899 16.1701 65.6299 16.6101 65.6299H52.9001H52.9101Z" stroke="url(#paint82_linear_1005_6045)" stroke-width="0.24"/>
<path d="M45.41 39.93L48.65 39.84C49.1 39.82 49.53 40.28 49.46 40.75L48.99 43.96C48.93 44.38 48.54 44.7 48.09 44.64C47.65 44.58 47.35 44.17 47.41 43.74L47.56 42.72L36.59 51.82C36.31 52.05 35.92 52.07 35.62 51.86L29.21 47.4L20.45 55.67C20.13 55.97 19.62 55.96 19.32 55.64C19.02 55.32 19.03 54.81 19.35 54.51L28.58 45.8C28.86 45.54 29.27 45.51 29.58 45.73L36.02 50.21L46.51 41.51L45.43 41.54H45.41C44.98 41.54 44.62 41.2 44.61 40.76C44.6 40.32 44.95 39.95 45.39 39.94L45.41 39.93Z" stroke="url(#paint83_linear_1005_6045)" stroke-width="0.24"/>
<path d="M51.5202 62.7998C51.5202 63.2398 51.1602 63.5998 50.7202 63.5998C50.2802 63.5998 49.9202 63.2398 49.9202 62.7998V53.9198H46.7702V62.7998C46.7702 63.2398 46.4102 63.5998 45.9702 63.5998C45.5302 63.5998 45.1702 63.2398 45.1702 62.7998V53.1198C45.1702 52.6798 45.5302 52.3198 45.9702 52.3198H50.7102C51.1502 52.3198 51.5102 52.6798 51.5102 53.1198V62.7998H51.5202Z" stroke="url(#paint84_linear_1005_6045)" stroke-width="0.24"/>
<path d="M42.5302 62.7999C42.5302 63.2399 42.1702 63.5999 41.7302 63.5999C41.2902 63.5999 40.9302 63.2399 40.9302 62.7999V58.4599H37.7802V62.7999C37.7802 63.2399 37.4202 63.5999 36.9802 63.5999C36.5402 63.5999 36.1802 63.2399 36.1802 62.7999V57.6599C36.1802 57.2199 36.5402 56.8599 36.9802 56.8599H41.7202C42.1602 56.8599 42.5202 57.2199 42.5202 57.6599V62.7999H42.5302Z" stroke="url(#paint85_linear_1005_6045)" stroke-width="0.24"/>
<path d="M33.83 62.7998C33.83 63.2398 33.47 63.5998 33.03 63.5998C32.59 63.5998 32.23 63.2398 32.23 62.7998V55.8998H29.08V62.7998C29.08 63.2398 28.72 63.5998 28.28 63.5998C27.84 63.5998 27.48 63.2398 27.48 62.7998V55.0998C27.48 54.6598 27.84 54.2998 28.28 54.2998H33.02C33.46 54.2998 33.82 54.6598 33.82 55.0998V62.7998H33.83Z" stroke="url(#paint86_linear_1005_6045)" stroke-width="0.24"/>
<path d="M25.13 62.7998C25.13 63.2398 24.77 63.5998 24.33 63.5998C23.89 63.5998 23.53 63.2398 23.53 62.7998V59.6098H20.39V62.7998C20.39 63.2398 20.03 63.5998 19.59 63.5998C19.15 63.5998 18.79 63.2398 18.79 62.7998V58.8098C18.79 58.3698 19.15 58.0098 19.59 58.0098H24.33C24.77 58.0098 25.13 58.3698 25.13 58.8098V62.7998Z" stroke="url(#paint87_linear_1005_6045)" stroke-width="0.24"/>
<path d="M52.9101 65.6299C53.3501 65.6299 53.7101 65.9899 53.7101 66.4299C53.7101 66.8699 53.3501 67.2299 52.9101 67.2299H16.6101C16.1701 67.2299 15.8101 66.8699 15.8101 66.4299C15.8101 65.9899 16.1701 65.6299 16.6101 65.6299H52.9001H52.9101Z" stroke="url(#paint88_linear_1005_6045)" stroke-width="0.24"/>
<path d="M45.41 39.93L48.65 39.84C49.1 39.82 49.53 40.28 49.46 40.75L48.99 43.96C48.93 44.38 48.54 44.7 48.09 44.64C47.65 44.58 47.35 44.17 47.41 43.74L47.56 42.72L36.59 51.82C36.31 52.05 35.92 52.07 35.62 51.86L29.21 47.4L20.45 55.67C20.13 55.97 19.62 55.96 19.32 55.64C19.02 55.32 19.03 54.81 19.35 54.51L28.58 45.8C28.86 45.54 29.27 45.51 29.58 45.73L36.02 50.21L46.51 41.51L45.43 41.54H45.41C44.98 41.54 44.62 41.2 44.61 40.76C44.6 40.32 44.95 39.95 45.39 39.94L45.41 39.93Z" stroke="url(#paint89_linear_1005_6045)" stroke-width="0.24"/>
<path d="M47.05 2.63998C46.89 2.10998 46.62 1.60998 46.21 1.12998C45.78 0.72998 45.26 0.41998 44.7 0.22998C44.24 0.0699805 43.74 -0.0200195 43.25 -0.0200195C43.13 -0.0200195 43.02 -0.0200195 42.95 -0.0200195H27.82C26.82 -0.0200195 25.86 0.36998 25.06 1.08998C24.67 1.55998 24.38 2.09998 24.18 2.69998C24 3.31998 23.93 3.93998 23.99 4.48998V34.05C23.9 34.76 23.96 35.48 24.16 36.11C24.35 36.77 24.67 37.38 25.17 37.96C25.56 38.31 26.01 38.58 26.54 38.77C26.97 38.92 27.41 38.98 27.86 38.98H42.7C42.89 39 43.09 39.01 43.28 39.01C43.72 39.01 44.15 38.94 44.55 38.82C45.14 38.63 45.7 38.31 46.19 37.85C46.88 37.1 47.25 36.13 47.23 35.14V4.30998C47.28 3.72998 47.23 3.16998 47.06 2.63998H47.05ZM42.32 36.5H28.38C27.86 36.5 27.35 36.35 26.91 36.04C26.66 35.56 26.52 35.02 26.52 34.47V4.31998C26.49 3.91998 26.58 3.51998 26.8 3.11998C27.04 2.83998 27.36 2.63998 27.7 2.53998C27.86 2.48998 28.03 2.46998 28.19 2.46998C28.37 2.46998 28.56 2.48998 28.76 2.55998C29 2.87998 29.21 3.20998 29.38 3.56998C29.5 3.80998 29.61 4.03998 29.76 4.22998C29.96 4.52998 30.24 4.77998 30.55 4.94998C30.87 5.12998 31.21 5.23998 31.61 5.26998H39.2C39.35 5.26998 39.48 5.26998 39.62 5.26998C39.77 5.26998 40.12 5.26998 40.12 5.26998L40.2 5.23998C40.85 4.98998 41.37 4.51998 41.67 3.90998L41.76 3.72998C41.88 3.49998 42 3.23998 42.15 3.00998C42.34 2.72998 42.57 2.53998 42.76 2.45998H42.89C43.17 2.45998 43.45 2.51998 43.71 2.61998C43.99 2.73998 44.24 2.89998 44.49 3.13998C44.65 3.61998 44.74 4.13998 44.74 4.66998V34.68C44.76 34.95 44.72 35.22 44.6 35.48C44.52 35.7 44.38 35.92 44.16 36.13C43.67 36.39 43.11 36.53 42.49 36.53C42.49 36.53 42.36 36.53 42.31 36.53L42.32 36.5ZM40.1 2.48998L39.84 3.12998L39.77 3.28998H31.5L31.44 3.11998L31.18 2.47998L31.03 2.09998H40.25L40.09 2.48998H40.1Z" fill="url(#paint90_linear_1005_6045)"/>
<path d="M43.18 0.220215C43.18 0.220215 43.23 0.220215 43.25 0.220215C43.71 0.220215 44.18 0.300215 44.62 0.460215C45.15 0.640215 45.65 0.940215 46.03 1.29021C46.41 1.73021 46.66 2.18021 46.83 2.72021C46.98 3.21021 47.04 3.74022 46.99 4.31021V35.1502C47.01 36.0802 46.66 36.9902 46.03 37.6702C45.59 38.0902 45.07 38.3902 44.48 38.5802C44.1 38.7002 43.69 38.7602 43.27 38.7602C43.06 38.7602 42.89 38.7502 42.69 38.7202H28.08H27.85C27.42 38.7202 27 38.6502 26.61 38.5202C26.13 38.3502 25.69 38.0902 25.35 37.7902C24.9 37.2602 24.58 36.6802 24.39 36.0202C24.2 35.4302 24.14 34.7502 24.23 34.0402V4.46022C24.17 3.94022 24.23 3.35021 24.41 2.77021C24.61 2.18021 24.89 1.67021 25.22 1.26021C25.98 0.590215 26.88 0.230215 27.82 0.220215H42.98C42.98 0.220215 43.1 0.220215 43.17 0.220215M31.32 3.54021H39.93L39.99 3.39021L40.06 3.22021L40.32 2.58021L40.48 2.19021L40.61 1.85021H30.67L30.8 2.18021L30.95 2.56021L31.21 3.18021L31.27 3.35021L31.33 3.52021M40.08 5.01022C39.98 5.01022 39.74 5.01022 39.62 5.01022H39.61C39.48 5.01022 39.36 5.01022 39.21 5.01022H31.63C31.28 4.98022 30.97 4.89021 30.67 4.72021C30.4 4.58021 30.16 4.36022 29.97 4.07022C29.83 3.89022 29.72 3.66021 29.62 3.45021C29.44 3.08021 29.23 2.74021 28.97 2.40021L28.92 2.34021L28.85 2.32021C28.65 2.25021 28.44 2.22021 28.2 2.22021C27.99 2.22021 27.8 2.25021 27.64 2.30021C27.25 2.41021 26.89 2.64021 26.62 2.96021L26.6 2.98021V3.00021C26.35 3.44021 26.24 3.89022 26.28 4.32022V34.4702C26.28 35.0602 26.42 35.6402 26.7 36.1602L26.73 36.2102L26.78 36.2402C27.26 36.5702 27.8 36.7402 28.39 36.7402H42.33C42.33 36.7402 42.43 36.7402 42.51 36.7402C43.16 36.7402 43.76 36.6002 44.29 36.3102L44.32 36.2902L44.35 36.2602C44.59 36.0202 44.76 35.7702 44.84 35.5402C44.97 35.2602 45.02 34.9502 45 34.6402V4.66021C45 4.11021 44.91 3.55021 44.73 3.05021L44.71 3.00021L44.67 2.96021C44.41 2.70021 44.13 2.52022 43.81 2.38021C43.5 2.27022 43.2 2.21021 42.9 2.21021H42.72L42.67 2.23021C42.42 2.34021 42.16 2.57021 41.95 2.87021C41.81 3.08021 41.69 3.32021 41.59 3.53021L41.55 3.61021L41.46 3.79021C41.19 4.34021 40.71 4.77022 40.12 5.00022H40.08M43.25 -0.0297852C43.13 -0.0297852 43.02 -0.0297852 42.95 -0.0297852H27.82C26.82 -0.0297852 25.86 0.360215 25.06 1.08021C24.67 1.55021 24.38 2.09021 24.18 2.69021C24 3.31021 23.93 3.93022 23.99 4.48022V34.0402C23.9 34.7502 23.96 35.4702 24.16 36.1002C24.35 36.7602 24.67 37.3702 25.17 37.9502C25.56 38.3002 26.01 38.5702 26.54 38.7602C26.97 38.9102 27.41 38.9702 27.86 38.9702H42.7C42.89 38.9902 43.09 39.0002 43.28 39.0002C43.72 39.0002 44.15 38.9302 44.55 38.8102C45.14 38.6202 45.7 38.3002 46.19 37.8402C46.88 37.0902 47.25 36.1202 47.23 35.1302V4.31021C47.28 3.73022 47.23 3.17021 47.06 2.64021C46.9 2.11021 46.63 1.61021 46.22 1.13021C45.79 0.730215 45.27 0.420215 44.71 0.230215C44.25 0.0702148 43.75 -0.0197852 43.26 -0.0197852L43.25 -0.0297852ZM31.49 3.30021L31.43 3.13021L31.17 2.49021L31.02 2.11021H40.24L40.08 2.50021L39.82 3.14021L39.75 3.30021H31.48H31.49ZM39.62 5.27022C39.77 5.27022 40.12 5.27022 40.12 5.27022L40.2 5.24021C40.85 4.99021 41.37 4.52022 41.67 3.91021L41.76 3.73021C41.88 3.50021 42 3.24021 42.15 3.01021C42.34 2.73021 42.57 2.54021 42.76 2.46021H42.89C43.17 2.46021 43.45 2.52021 43.71 2.62021C43.99 2.74021 44.24 2.90021 44.49 3.14021C44.65 3.62021 44.74 4.14021 44.74 4.67022V34.6802C44.76 34.9502 44.72 35.2202 44.6 35.4802C44.52 35.7002 44.38 35.9202 44.16 36.1302C43.67 36.3902 43.11 36.5302 42.49 36.5302C42.49 36.5302 42.36 36.5302 42.31 36.5302H28.37C27.85 36.5302 27.34 36.3802 26.9 36.0702C26.65 35.5902 26.51 35.0502 26.51 34.5002V4.32022C26.48 3.92022 26.57 3.52021 26.79 3.12021C27.03 2.84021 27.35 2.64021 27.69 2.54021C27.85 2.49021 28.02 2.47021 28.18 2.47021C28.36 2.47021 28.55 2.49021 28.75 2.56021C28.99 2.88021 29.2 3.21021 29.37 3.57021C29.49 3.81021 29.6 4.04022 29.75 4.23022C29.95 4.53022 30.23 4.78021 30.54 4.95021C30.86 5.13021 31.2 5.24021 31.6 5.27022H39.19C39.34 5.27022 39.47 5.27022 39.61 5.27022H39.62Z" fill="url(#paint91_linear_1005_6045)"/>
<path d="M74.64 48.0802C73.34 48.0802 72.2 48.6602 71.42 49.5702L61.92 44.4602C62.04 44.0902 62.1 43.6802 62.1 43.2602C62.1 42.8802 62.05 42.5002 61.95 42.1502L71.37 37.4002C72.13 38.3602 73.31 38.9802 74.64 38.9802C76.93 38.9802 78.79 37.1202 78.79 34.8102C78.79 32.5002 76.93 30.6602 74.64 30.6602C72.35 30.6602 70.47 32.5202 70.47 34.8102C70.47 35.1902 70.52 35.5702 70.62 35.9202L61.19 40.6702C60.44 39.7102 59.25 39.0902 57.94 39.0902C55.65 39.0902 53.77 40.9502 53.77 43.2602C53.77 45.5702 55.65 47.4102 57.94 47.4102C59.22 47.4102 60.36 46.8302 61.13 45.9202L70.65 51.0502C70.55 51.4302 70.48 51.8302 70.48 52.2502C70.48 54.5402 72.34 56.4002 74.65 56.4002C76.96 56.4002 78.8 54.5402 78.8 52.2502C78.8 49.9602 76.94 48.0802 74.65 48.0802H74.64ZM74.64 32.3202C76.02 32.3202 77.13 33.4302 77.13 34.8102C77.13 36.1902 76.02 37.3202 74.64 37.3202C73.96 37.3202 73.34 37.0502 72.9 36.6202C72.5 36.2202 72.24 35.7202 72.17 35.1402C72.14 35.0402 72.14 34.9202 72.14 34.8102C72.14 33.4302 73.25 32.3202 74.65 32.3202H74.64ZM60.41 43.6402C60.33 44.2202 60.03 44.7402 59.61 45.1002C59.16 45.5002 58.58 45.7502 57.93 45.7502C56.55 45.7502 55.42 44.6402 55.42 43.2602C55.42 41.8802 56.55 40.7502 57.93 40.7502C58.59 40.7502 59.21 41.0202 59.66 41.4502C60.06 41.8302 60.34 42.3502 60.41 42.9302C60.44 43.0302 60.44 43.1502 60.44 43.2602C60.44 43.3902 60.42 43.5302 60.41 43.6402ZM74.64 54.7402C73.25 54.7402 72.13 53.6302 72.13 52.2502C72.13 52.1202 72.15 51.9802 72.16 51.8702C72.24 51.2902 72.53 50.7702 72.94 50.4102C73.39 49.9902 73.97 49.7502 74.63 49.7502C76.01 49.7502 77.12 50.8802 77.12 52.2602C77.12 53.6402 76.01 54.7502 74.63 54.7502L74.64 54.7402Z" fill="url(#paint92_linear_1005_6045)"/>
<path d="M74.64 30.9002C76.79 30.9002 78.55 32.6502 78.55 34.8102C78.55 36.9702 76.8 38.7302 74.64 38.7302C73.43 38.7302 72.31 38.1902 71.56 37.2402L71.44 37.0802L71.26 37.1702L61.84 41.9202L61.66 42.0102L61.72 42.2002C61.81 42.5202 61.86 42.8802 61.86 43.2502C61.86 43.6302 61.8 44.0202 61.69 44.3702L61.63 44.5602L61.81 44.6602L71.31 49.7702L71.48 49.8602L71.61 49.7102C72.38 48.8102 73.48 48.3002 74.65 48.3002C76.8 48.3002 78.56 50.0602 78.56 52.2202C78.56 54.3802 76.81 56.1302 74.65 56.1302C72.49 56.1302 70.73 54.3802 70.73 52.2202C70.73 51.8602 70.78 51.4902 70.89 51.0902L70.94 50.9002L70.77 50.8102L61.25 45.6802L61.07 45.5902L60.94 45.7402C60.19 46.6302 59.1 47.1502 57.94 47.1502C55.78 47.1502 54.02 45.4002 54.02 43.2402C54.02 41.0802 55.78 39.3202 57.94 39.3202C59.14 39.3202 60.28 39.8702 61 40.8002L61.12 40.9602L61.3 40.8702L70.73 36.1202L70.91 36.0302L70.85 35.8402C70.76 35.5202 70.71 35.1602 70.71 34.7902C70.71 32.6402 72.47 30.8802 74.63 30.8802M71.93 35.1902C72 35.7902 72.28 36.3402 72.73 36.7902C73.24 37.2802 73.92 37.5602 74.64 37.5602C76.15 37.5602 77.38 36.3302 77.38 34.8102C77.38 33.2902 76.15 32.0702 74.64 32.0702C73.13 32.0702 71.89 33.3002 71.89 34.8102C71.89 34.9302 71.89 35.0602 71.93 35.1902ZM57.94 46.0002C58.61 46.0002 59.26 45.7502 59.78 45.2902C60.26 44.8702 60.57 44.3002 60.66 43.6802C60.68 43.5502 60.7 43.4102 60.7 43.2602C60.7 43.1402 60.7 43.0102 60.66 42.8802C60.59 42.2802 60.3 41.7102 59.84 41.2802C59.33 40.7902 58.65 40.5102 57.94 40.5102C56.42 40.5102 55.19 41.7402 55.19 43.2602C55.19 44.7802 56.42 46.0002 57.94 46.0002ZM74.64 54.9802C76.15 54.9802 77.38 53.7502 77.38 52.2402C77.38 50.7302 76.15 49.4902 74.64 49.4902C73.94 49.4902 73.3 49.7402 72.78 50.2202C72.31 50.6302 72.01 51.2002 71.92 51.8302C71.9 51.9602 71.88 52.1002 71.88 52.2502C71.88 53.7602 73.11 54.9902 74.63 54.9902M74.64 30.6602C72.33 30.6602 70.47 32.5202 70.47 34.8102C70.47 35.1902 70.52 35.5702 70.62 35.9202L61.19 40.6702C60.44 39.7102 59.25 39.0902 57.94 39.0902C55.65 39.0902 53.77 40.9502 53.77 43.2602C53.77 45.5702 55.65 47.4102 57.94 47.4102C59.22 47.4102 60.36 46.8302 61.13 45.9202L70.65 51.0502C70.55 51.4302 70.48 51.8302 70.48 52.2502C70.48 54.5402 72.34 56.4002 74.65 56.4002C76.96 56.4002 78.8 54.5402 78.8 52.2502C78.8 49.9602 76.94 48.0802 74.65 48.0802C73.35 48.0802 72.21 48.6602 71.43 49.5702L61.93 44.4602C62.05 44.0902 62.11 43.6802 62.11 43.2602C62.11 42.8802 62.06 42.5002 61.96 42.1502L71.38 37.4002C72.14 38.3602 73.32 38.9802 74.65 38.9802C76.94 38.9802 78.8 37.1202 78.8 34.8102C78.8 32.5002 76.94 30.6602 74.65 30.6602H74.64ZM74.64 37.3202C73.96 37.3202 73.34 37.0502 72.9 36.6202C72.5 36.2202 72.24 35.7202 72.17 35.1402C72.14 35.0402 72.14 34.9202 72.14 34.8102C72.14 33.4302 73.25 32.3202 74.65 32.3202C76.05 32.3202 77.14 33.4302 77.14 34.8102C77.14 36.1902 76.03 37.3202 74.65 37.3202H74.64ZM57.94 45.7502C56.56 45.7502 55.43 44.6402 55.43 43.2602C55.43 41.8802 56.56 40.7502 57.94 40.7502C58.6 40.7502 59.22 41.0202 59.67 41.4502C60.07 41.8302 60.35 42.3502 60.42 42.9302C60.45 43.0302 60.45 43.1502 60.45 43.2602C60.45 43.3902 60.43 43.5302 60.42 43.6402C60.34 44.2202 60.04 44.7402 59.62 45.1002C59.17 45.5002 58.59 45.7502 57.94 45.7502ZM74.64 54.7402C73.25 54.7402 72.13 53.6302 72.13 52.2502C72.13 52.1202 72.15 51.9802 72.16 51.8702C72.24 51.2902 72.53 50.7702 72.94 50.4102C73.39 49.9902 73.97 49.7502 74.63 49.7502C76.01 49.7502 77.12 50.8802 77.12 52.2602C77.12 53.6402 76.01 54.7502 74.63 54.7502L74.64 54.7402Z" fill="url(#paint93_linear_1005_6045)"/>
<path d="M57.9399 45.7602C59.3262 45.7602 60.4499 44.6365 60.4499 43.2502C60.4499 41.864 59.3262 40.7402 57.9399 40.7402C56.5537 40.7402 55.4299 41.864 55.4299 43.2502C55.4299 44.6365 56.5537 45.7602 57.9399 45.7602Z" fill="url(#paint94_linear_1005_6045)" stroke="url(#paint95_linear_1005_6045)" stroke-width="0.24" stroke-miterlimit="10"/>
<path d="M74.6399 37.3301C76.0261 37.3301 77.1499 36.2063 77.1499 34.8201C77.1499 33.4338 76.0261 32.3101 74.6399 32.3101C73.2537 32.3101 72.1299 33.4338 72.1299 34.8201C72.1299 36.2063 73.2537 37.3301 74.6399 37.3301Z" fill="url(#paint96_linear_1005_6045)" stroke="url(#paint97_linear_1005_6045)" stroke-width="0.24" stroke-miterlimit="10"/>
<path d="M74.6399 54.75C76.0261 54.75 77.1499 53.6262 77.1499 52.24C77.1499 50.8537 76.0261 49.73 74.6399 49.73C73.2537 49.73 72.1299 50.8537 72.1299 52.24C72.1299 53.6262 73.2537 54.75 74.6399 54.75Z" fill="url(#paint98_linear_1005_6045)" stroke="url(#paint99_linear_1005_6045)" stroke-width="0.24" stroke-miterlimit="10"/>
<path d="M37.1101 32.8701H34.0701C33.5178 32.8701 33.0701 33.3178 33.0701 33.8701V34.0801C33.0701 34.6324 33.5178 35.0801 34.0701 35.0801H37.1101C37.6624 35.0801 38.1101 34.6324 38.1101 34.0801V33.8701C38.1101 33.3178 37.6624 32.8701 37.1101 32.8701Z" fill="url(#paint100_linear_1005_6045)"/>
<path d="M37.1101 33.1401C37.5101 33.1401 37.8301 33.4601 37.8301 33.8601V34.0701C37.8301 34.4701 37.5101 34.7901 37.1101 34.7901H34.0701C33.6701 34.7901 33.3501 34.4701 33.3501 34.0701V33.8601C33.3501 33.4601 33.6701 33.1401 34.0701 33.1401H37.1101ZM37.1101 32.8701H34.0701C33.5201 32.8701 33.0701 33.3201 33.0701 33.8701V34.0801C33.0701 34.6301 33.5201 35.0801 34.0701 35.0801H37.1101C37.6601 35.0801 38.1101 34.6301 38.1101 34.0801V33.8701C38.1101 33.3201 37.6601 32.8701 37.1101 32.8701Z" fill="url(#paint101_linear_1005_6045)"/>
</g>
<defs>
<radialGradient id="paint0_radial_1005_6045" cx="0" cy="0" r="1" gradientUnits="userSpaceOnUse" gradientTransform="translate(67.5139 70.5641) rotate(90) scale(0.603497 5.9143)">
<stop stop-color="white"/>
<stop offset="0.07" stop-color="white" stop-opacity="0.93"/>
<stop offset="1" stop-color="white" stop-opacity="0"/>
</radialGradient>
<radialGradient id="paint1_radial_1005_6045" cx="0" cy="0" r="1" gradientUnits="userSpaceOnUse" gradientTransform="translate(67.8549 71.4774) scale(0.6745 5.8007)">
<stop stop-color="white"/>
<stop offset="0.07" stop-color="white" stop-opacity="0.93"/>
<stop offset="1" stop-color="white" stop-opacity="0"/>
</radialGradient>
<radialGradient id="paint2_radial_1005_6045" cx="0" cy="0" r="1" gradientUnits="userSpaceOnUse" gradientTransform="translate(7.36842 32.8329) scale(0.703 6.0458)">
<stop stop-color="white"/>
<stop offset="0.07" stop-color="white" stop-opacity="0.93"/>
<stop offset="1" stop-color="white" stop-opacity="0"/>
</radialGradient>
<radialGradient id="paint3_radial_1005_6045" cx="0" cy="0" r="1" gradientUnits="userSpaceOnUse" gradientTransform="translate(6.88682 32.3381) rotate(90) scale(0.703 6.0458)">
<stop stop-color="white"/>
<stop offset="0.07" stop-color="white" stop-opacity="0.93"/>
<stop offset="1" stop-color="white" stop-opacity="0"/>
</radialGradient>
<linearGradient id="paint4_linear_1005_6045" x1="45.7701" y1="76.0198" x2="18.5801" y2="28.9198" gradientUnits="userSpaceOnUse">
<stop stop-color="white" stop-opacity="0.9"/>
<stop offset="0.04" stop-color="white" stop-opacity="0.85"/>
<stop offset="0.28" stop-color="white" stop-opacity="0.5"/>
<stop offset="0.65" stop-color="#FAFBFC" stop-opacity="0.4"/>
<stop offset="1" stop-color="#F0EFEF" stop-opacity="0.3"/>
</linearGradient>
<linearGradient id="paint5_linear_1005_6045" x1="51.7001" y1="86.2798" x2="16.9001" y2="26.0198" gradientUnits="userSpaceOnUse">
<stop stop-color="white" stop-opacity="0.9"/>
<stop offset="0.28" stop-color="white" stop-opacity="0.5"/>
<stop offset="0.65" stop-color="#FAFBFC" stop-opacity="0.4"/>
<stop offset="1" stop-color="#F0EFEF" stop-opacity="0"/>
</linearGradient>
<linearGradient id="paint6_linear_1005_6045" x1="39.49" y1="21.1498" x2="41.87" y2="21.1498" gradientUnits="userSpaceOnUse">
<stop stop-color="#79A540"/>
<stop offset="0.2" stop-color="#94C63D"/>
<stop offset="0.39" stop-color="#98CA3C"/>
<stop offset="0.59" stop-color="#93C53E"/>
<stop offset="0.74" stop-color="#9DCB3B"/>
<stop offset="0.9" stop-color="#A6CE39"/>
<stop offset="1" stop-color="#A6CE39"/>
</linearGradient>
<linearGradient id="paint7_linear_1005_6045" x1="36.1201" y1="22" x2="38.5001" y2="22" gradientUnits="userSpaceOnUse">
<stop stop-color="#79A540"/>
<stop offset="0.2" stop-color="#94C63D"/>
<stop offset="0.39" stop-color="#98CA3C"/>
<stop offset="0.59" stop-color="#93C53E"/>
<stop offset="0.74" stop-color="#9DCB3B"/>
<stop offset="0.9" stop-color="#A6CE39"/>
<stop offset="1" stop-color="#A6CE39"/>
</linearGradient>
<linearGradient id="paint8_linear_1005_6045" x1="32.8601" y1="21.5198" x2="35.2401" y2="21.5198" gradientUnits="userSpaceOnUse">
<stop stop-color="#79A540"/>
<stop offset="0.2" stop-color="#94C63D"/>
<stop offset="0.39" stop-color="#98CA3C"/>
<stop offset="0.59" stop-color="#93C53E"/>
<stop offset="0.74" stop-color="#9DCB3B"/>
<stop offset="0.9" stop-color="#A6CE39"/>
<stop offset="1" stop-color="#A6CE39"/>
</linearGradient>
<linearGradient id="paint9_linear_1005_6045" x1="29.6101" y1="22.2097" x2="31.9801" y2="22.2097" gradientUnits="userSpaceOnUse">
<stop stop-color="#79A540"/>
<stop offset="0.2" stop-color="#94C63D"/>
<stop offset="0.39" stop-color="#98CA3C"/>
<stop offset="0.59" stop-color="#93C53E"/>
<stop offset="0.74" stop-color="#9DCB3B"/>
<stop offset="0.9" stop-color="#A6CE39"/>
<stop offset="1" stop-color="#A6CE39"/>
</linearGradient>
<linearGradient id="paint10_linear_1005_6045" x1="28.49" y1="24.32" x2="42.69" y2="24.32" gradientUnits="userSpaceOnUse">
<stop stop-color="#79A540"/>
<stop offset="0.2" stop-color="#94C63D"/>
<stop offset="0.39" stop-color="#98CA3C"/>
<stop offset="0.59" stop-color="#93C53E"/>
<stop offset="0.74" stop-color="#9DCB3B"/>
<stop offset="0.9" stop-color="#A6CE39"/>
<stop offset="1" stop-color="#A6CE39"/>
</linearGradient>
<linearGradient id="paint11_linear_1005_6045" x1="29.7301" y1="17.3699" x2="41.1001" y2="17.3699" gradientUnits="userSpaceOnUse">
<stop stop-color="#79A540"/>
<stop offset="0.2" stop-color="#94C63D"/>
<stop offset="0.39" stop-color="#98CA3C"/>
<stop offset="0.59" stop-color="#93C53E"/>
<stop offset="0.74" stop-color="#9DCB3B"/>
<stop offset="0.9" stop-color="#A6CE39"/>
<stop offset="1" stop-color="#A6CE39"/>
</linearGradient>
<linearGradient id="paint12_linear_1005_6045" x1="39.49" y1="21.1498" x2="41.87" y2="21.1498" gradientUnits="userSpaceOnUse">
<stop stop-color="#79A540"/>
<stop offset="0.2" stop-color="#94C63D"/>
<stop offset="0.39" stop-color="#98CA3C"/>
<stop offset="0.59" stop-color="#93C53E"/>
<stop offset="0.74" stop-color="#9DCB3B"/>
<stop offset="0.9" stop-color="#A6CE39"/>
<stop offset="1" stop-color="#A6CE39"/>
</linearGradient>
<linearGradient id="paint13_linear_1005_6045" x1="36.1201" y1="22" x2="38.5001" y2="22" gradientUnits="userSpaceOnUse">
<stop stop-color="#79A540"/>
<stop offset="0.2" stop-color="#94C63D"/>
<stop offset="0.39" stop-color="#98CA3C"/>
<stop offset="0.59" stop-color="#93C53E"/>
<stop offset="0.74" stop-color="#9DCB3B"/>
<stop offset="0.9" stop-color="#A6CE39"/>
<stop offset="1" stop-color="#A6CE39"/>
</linearGradient>
<linearGradient id="paint14_linear_1005_6045" x1="32.8601" y1="21.5198" x2="35.2401" y2="21.5198" gradientUnits="userSpaceOnUse">
<stop stop-color="#79A540"/>
<stop offset="0.2" stop-color="#94C63D"/>
<stop offset="0.39" stop-color="#98CA3C"/>
<stop offset="0.59" stop-color="#93C53E"/>
<stop offset="0.74" stop-color="#9DCB3B"/>
<stop offset="0.9" stop-color="#A6CE39"/>
<stop offset="1" stop-color="#A6CE39"/>
</linearGradient>
<linearGradient id="paint15_linear_1005_6045" x1="29.6101" y1="22.2097" x2="31.9801" y2="22.2097" gradientUnits="userSpaceOnUse">
<stop stop-color="#79A540"/>
<stop offset="0.2" stop-color="#94C63D"/>
<stop offset="0.39" stop-color="#98CA3C"/>
<stop offset="0.59" stop-color="#93C53E"/>
<stop offset="0.74" stop-color="#9DCB3B"/>
<stop offset="0.9" stop-color="#A6CE39"/>
<stop offset="1" stop-color="#A6CE39"/>
</linearGradient>
<linearGradient id="paint16_linear_1005_6045" x1="28.49" y1="24.32" x2="42.69" y2="24.32" gradientUnits="userSpaceOnUse">
<stop stop-color="#79A540"/>
<stop offset="0.2" stop-color="#94C63D"/>
<stop offset="0.39" stop-color="#98CA3C"/>
<stop offset="0.59" stop-color="#93C53E"/>
<stop offset="0.74" stop-color="#9DCB3B"/>
<stop offset="0.9" stop-color="#A6CE39"/>
<stop offset="1" stop-color="#A6CE39"/>
</linearGradient>
<linearGradient id="paint17_linear_1005_6045" x1="29.7301" y1="17.3699" x2="41.1001" y2="17.3699" gradientUnits="userSpaceOnUse">
<stop stop-color="#79A540"/>
<stop offset="0.2" stop-color="#94C63D"/>
<stop offset="0.39" stop-color="#98CA3C"/>
<stop offset="0.59" stop-color="#93C53E"/>
<stop offset="0.74" stop-color="#9DCB3B"/>
<stop offset="0.9" stop-color="#A6CE39"/>
<stop offset="1" stop-color="#A6CE39"/>
</linearGradient>
<linearGradient id="paint18_linear_1005_6045" x1="28.49" y1="19.4898" x2="42.69" y2="19.4898" gradientUnits="userSpaceOnUse">
<stop stop-color="#79A540"/>
<stop offset="0.2" stop-color="#94C63D"/>
<stop offset="0.39" stop-color="#98CA3C"/>
<stop offset="0.59" stop-color="#93C53E"/>
<stop offset="0.74" stop-color="#9DCB3B"/>
<stop offset="0.9" stop-color="#A6CE39"/>
<stop offset="1" stop-color="#A6CE39"/>
</linearGradient>
<linearGradient id="paint19_linear_1005_6045" x1="28.49" y1="19.4898" x2="42.69" y2="19.4898" gradientUnits="userSpaceOnUse">
<stop stop-color="#79A540"/>
<stop offset="0.2" stop-color="#94C63D"/>
<stop offset="0.39" stop-color="#98CA3C"/>
<stop offset="0.59" stop-color="#93C53E"/>
<stop offset="0.74" stop-color="#9DCB3B"/>
<stop offset="0.9" stop-color="#A6CE39"/>
<stop offset="1" stop-color="#A6CE39"/>
</linearGradient>
<linearGradient id="paint20_linear_1005_6045" x1="28.4901" y1="19.49" x2="42.6901" y2="19.49" gradientUnits="userSpaceOnUse">
<stop stop-color="#79A540"/>
<stop offset="0.2" stop-color="#94C63D"/>
<stop offset="0.39" stop-color="#98CA3C"/>
<stop offset="0.59" stop-color="#93C53E"/>
<stop offset="0.74" stop-color="#9DCB3B"/>
<stop offset="0.9" stop-color="#A6CE39"/>
<stop offset="1" stop-color="#A6CE39"/>
</linearGradient>
<linearGradient id="paint21_linear_1005_6045" x1="28.4901" y1="19.49" x2="42.6901" y2="19.49" gradientUnits="userSpaceOnUse">
<stop stop-color="#79A540"/>
<stop offset="0.2" stop-color="#94C63D"/>
<stop offset="0.39" stop-color="#98CA3C"/>
<stop offset="0.59" stop-color="#93C53E"/>
<stop offset="0.74" stop-color="#9DCB3B"/>
<stop offset="0.9" stop-color="#A6CE39"/>
<stop offset="1" stop-color="#A6CE39"/>
</linearGradient>
<linearGradient id="paint22_linear_1005_6045" x1="28.4901" y1="19.4898" x2="42.6901" y2="19.4898" gradientUnits="userSpaceOnUse">
<stop stop-color="#79A540"/>
<stop offset="0.2" stop-color="#94C63D"/>
<stop offset="0.39" stop-color="#98CA3C"/>
<stop offset="0.59" stop-color="#93C53E"/>
<stop offset="0.74" stop-color="#9DCB3B"/>
<stop offset="0.9" stop-color="#A6CE39"/>
<stop offset="1" stop-color="#A6CE39"/>
</linearGradient>
<linearGradient id="paint23_linear_1005_6045" x1="28.4901" y1="19.4898" x2="42.6901" y2="19.4898" gradientUnits="userSpaceOnUse">
<stop stop-color="#79A540"/>
<stop offset="0.2" stop-color="#94C63D"/>
<stop offset="0.39" stop-color="#98CA3C"/>
<stop offset="0.59" stop-color="#93C53E"/>
<stop offset="0.74" stop-color="#9DCB3B"/>
<stop offset="0.9" stop-color="#A6CE39"/>
<stop offset="1" stop-color="#A6CE39"/>
</linearGradient>
<linearGradient id="paint24_linear_1005_6045" x1="28.4901" y1="19.4897" x2="42.6901" y2="19.4897" gradientUnits="userSpaceOnUse">
<stop stop-color="#79A540"/>
<stop offset="0.2" stop-color="#94C63D"/>
<stop offset="0.39" stop-color="#98CA3C"/>
<stop offset="0.59" stop-color="#93C53E"/>
<stop offset="0.74" stop-color="#9DCB3B"/>
<stop offset="0.9" stop-color="#A6CE39"/>
<stop offset="1" stop-color="#A6CE39"/>
</linearGradient>
<linearGradient id="paint25_linear_1005_6045" x1="28.4901" y1="19.4897" x2="42.6901" y2="19.4897" gradientUnits="userSpaceOnUse">
<stop stop-color="#79A540"/>
<stop offset="0.2" stop-color="#94C63D"/>
<stop offset="0.39" stop-color="#98CA3C"/>
<stop offset="0.59" stop-color="#93C53E"/>
<stop offset="0.74" stop-color="#9DCB3B"/>
<stop offset="0.9" stop-color="#A6CE39"/>
<stop offset="1" stop-color="#A6CE39"/>
</linearGradient>
<linearGradient id="paint26_linear_1005_6045" x1="28.49" y1="19.49" x2="42.69" y2="19.49" gradientUnits="userSpaceOnUse">
<stop stop-color="#79A540"/>
<stop offset="0.2" stop-color="#94C63D"/>
<stop offset="0.39" stop-color="#98CA3C"/>
<stop offset="0.59" stop-color="#93C53E"/>
<stop offset="0.74" stop-color="#9DCB3B"/>
<stop offset="0.9" stop-color="#A6CE39"/>
<stop offset="1" stop-color="#A6CE39"/>
</linearGradient>
<linearGradient id="paint27_linear_1005_6045" x1="28.49" y1="19.49" x2="42.69" y2="19.49" gradientUnits="userSpaceOnUse">
<stop stop-color="#79A540"/>
<stop offset="0.2" stop-color="#94C63D"/>
<stop offset="0.39" stop-color="#98CA3C"/>
<stop offset="0.59" stop-color="#93C53E"/>
<stop offset="0.74" stop-color="#9DCB3B"/>
<stop offset="0.9" stop-color="#A6CE39"/>
<stop offset="1" stop-color="#A6CE39"/>
</linearGradient>
<linearGradient id="paint28_linear_1005_6045" x1="28.4901" y1="19.4899" x2="42.6901" y2="19.4899" gradientUnits="userSpaceOnUse">
<stop stop-color="#79A540"/>
<stop offset="0.2" stop-color="#94C63D"/>
<stop offset="0.39" stop-color="#98CA3C"/>
<stop offset="0.59" stop-color="#93C53E"/>
<stop offset="0.74" stop-color="#9DCB3B"/>
<stop offset="0.9" stop-color="#A6CE39"/>
<stop offset="1" stop-color="#A6CE39"/>
</linearGradient>
<linearGradient id="paint29_linear_1005_6045" x1="28.49" y1="19.4898" x2="42.69" y2="19.4898" gradientUnits="userSpaceOnUse">
<stop stop-color="#79A540"/>
<stop offset="0.2" stop-color="#94C63D"/>
<stop offset="0.39" stop-color="#98CA3C"/>
<stop offset="0.59" stop-color="#93C53E"/>
<stop offset="0.74" stop-color="#9DCB3B"/>
<stop offset="0.9" stop-color="#A6CE39"/>
<stop offset="1" stop-color="#A6CE39"/>
</linearGradient>
<linearGradient id="paint30_linear_1005_6045" x1="28.49" y1="19.4898" x2="42.69" y2="19.4898" gradientUnits="userSpaceOnUse">
<stop stop-color="#79A540"/>
<stop offset="0.2" stop-color="#94C63D"/>
<stop offset="0.39" stop-color="#98CA3C"/>
<stop offset="0.59" stop-color="#93C53E"/>
<stop offset="0.74" stop-color="#9DCB3B"/>
<stop offset="0.9" stop-color="#A6CE39"/>
<stop offset="1" stop-color="#A6CE39"/>
</linearGradient>
<linearGradient id="paint31_linear_1005_6045" x1="28.49" y1="19.4898" x2="42.69" y2="19.4898" gradientUnits="userSpaceOnUse">
<stop stop-color="#79A540"/>
<stop offset="0.2" stop-color="#94C63D"/>
<stop offset="0.39" stop-color="#98CA3C"/>
<stop offset="0.59" stop-color="#93C53E"/>
<stop offset="0.74" stop-color="#9DCB3B"/>
<stop offset="0.9" stop-color="#A6CE39"/>
<stop offset="1" stop-color="#A6CE39"/>
</linearGradient>
<linearGradient id="paint32_linear_1005_6045" x1="28.4901" y1="19.49" x2="42.6901" y2="19.49" gradientUnits="userSpaceOnUse">
<stop stop-color="#79A540"/>
<stop offset="0.2" stop-color="#94C63D"/>
<stop offset="0.39" stop-color="#98CA3C"/>
<stop offset="0.59" stop-color="#93C53E"/>
<stop offset="0.74" stop-color="#9DCB3B"/>
<stop offset="0.9" stop-color="#A6CE39"/>
<stop offset="1" stop-color="#A6CE39"/>
</linearGradient>
<linearGradient id="paint33_linear_1005_6045" x1="28.4901" y1="19.49" x2="42.6901" y2="19.49" gradientUnits="userSpaceOnUse">
<stop stop-color="#79A540"/>
<stop offset="0.2" stop-color="#94C63D"/>
<stop offset="0.39" stop-color="#98CA3C"/>
<stop offset="0.59" stop-color="#93C53E"/>
<stop offset="0.74" stop-color="#9DCB3B"/>
<stop offset="0.9" stop-color="#A6CE39"/>
<stop offset="1" stop-color="#A6CE39"/>
</linearGradient>
<linearGradient id="paint34_linear_1005_6045" x1="28.4901" y1="19.4898" x2="42.6901" y2="19.4898" gradientUnits="userSpaceOnUse">
<stop stop-color="#79A540"/>
<stop offset="0.2" stop-color="#94C63D"/>
<stop offset="0.39" stop-color="#98CA3C"/>
<stop offset="0.59" stop-color="#93C53E"/>
<stop offset="0.74" stop-color="#9DCB3B"/>
<stop offset="0.9" stop-color="#A6CE39"/>
<stop offset="1" stop-color="#A6CE39"/>
</linearGradient>
<linearGradient id="paint35_linear_1005_6045" x1="28.4901" y1="19.4898" x2="42.6901" y2="19.4898" gradientUnits="userSpaceOnUse">
<stop stop-color="#79A540"/>
<stop offset="0.2" stop-color="#94C63D"/>
<stop offset="0.39" stop-color="#98CA3C"/>
<stop offset="0.59" stop-color="#93C53E"/>
<stop offset="0.74" stop-color="#9DCB3B"/>
<stop offset="0.9" stop-color="#A6CE39"/>
<stop offset="1" stop-color="#A6CE39"/>
</linearGradient>
<linearGradient id="paint36_linear_1005_6045" x1="28.4901" y1="19.4897" x2="42.6901" y2="19.4897" gradientUnits="userSpaceOnUse">
<stop stop-color="#79A540"/>
<stop offset="0.2" stop-color="#94C63D"/>
<stop offset="0.39" stop-color="#98CA3C"/>
<stop offset="0.59" stop-color="#93C53E"/>
<stop offset="0.74" stop-color="#9DCB3B"/>
<stop offset="0.9" stop-color="#A6CE39"/>
<stop offset="1" stop-color="#A6CE39"/>
</linearGradient>
<linearGradient id="paint37_linear_1005_6045" x1="28.4901" y1="19.4897" x2="42.6901" y2="19.4897" gradientUnits="userSpaceOnUse">
<stop stop-color="#79A540"/>
<stop offset="0.2" stop-color="#94C63D"/>
<stop offset="0.39" stop-color="#98CA3C"/>
<stop offset="0.59" stop-color="#93C53E"/>
<stop offset="0.74" stop-color="#9DCB3B"/>
<stop offset="0.9" stop-color="#A6CE39"/>
<stop offset="1" stop-color="#A6CE39"/>
</linearGradient>
<linearGradient id="paint38_linear_1005_6045" x1="28.49" y1="19.49" x2="42.69" y2="19.49" gradientUnits="userSpaceOnUse">
<stop stop-color="#79A540"/>
<stop offset="0.2" stop-color="#94C63D"/>
<stop offset="0.39" stop-color="#98CA3C"/>
<stop offset="0.59" stop-color="#93C53E"/>
<stop offset="0.74" stop-color="#9DCB3B"/>
<stop offset="0.9" stop-color="#A6CE39"/>
<stop offset="1" stop-color="#A6CE39"/>
</linearGradient>
<linearGradient id="paint39_linear_1005_6045" x1="28.49" y1="19.49" x2="42.69" y2="19.49" gradientUnits="userSpaceOnUse">
<stop stop-color="#79A540"/>
<stop offset="0.2" stop-color="#94C63D"/>
<stop offset="0.39" stop-color="#98CA3C"/>
<stop offset="0.59" stop-color="#93C53E"/>
<stop offset="0.74" stop-color="#9DCB3B"/>
<stop offset="0.9" stop-color="#A6CE39"/>
<stop offset="1" stop-color="#A6CE39"/>
</linearGradient>
<linearGradient id="paint40_linear_1005_6045" x1="28.4901" y1="19.4899" x2="42.6901" y2="19.4899" gradientUnits="userSpaceOnUse">
<stop stop-color="#79A540"/>
<stop offset="0.2" stop-color="#94C63D"/>
<stop offset="0.39" stop-color="#98CA3C"/>
<stop offset="0.59" stop-color="#93C53E"/>
<stop offset="0.74" stop-color="#9DCB3B"/>
<stop offset="0.9" stop-color="#A6CE39"/>
<stop offset="1" stop-color="#A6CE39"/>
</linearGradient>
<linearGradient id="paint41_linear_1005_6045" x1="28.49" y1="19.4898" x2="42.69" y2="19.4898" gradientUnits="userSpaceOnUse">
<stop stop-color="#79A540"/>
<stop offset="0.2" stop-color="#94C63D"/>
<stop offset="0.39" stop-color="#98CA3C"/>
<stop offset="0.59" stop-color="#93C53E"/>
<stop offset="0.74" stop-color="#9DCB3B"/>
<stop offset="0.9" stop-color="#A6CE39"/>
<stop offset="1" stop-color="#A6CE39"/>
</linearGradient>
<linearGradient id="paint42_linear_1005_6045" x1="38.93" y1="26.6598" x2="33.16" y2="16.6498" gradientUnits="userSpaceOnUse">
<stop stop-color="white" stop-opacity="0.9"/>
<stop offset="0.28" stop-color="white" stop-opacity="0.5"/>
<stop offset="0.65" stop-color="#FAFBFC" stop-opacity="0.4"/>
<stop offset="1" stop-color="#F0EFEF" stop-opacity="0"/>
</linearGradient>
<linearGradient id="paint43_linear_1005_6045" x1="38.93" y1="26.6598" x2="33.16" y2="16.6498" gradientUnits="userSpaceOnUse">
<stop stop-color="white" stop-opacity="0.9"/>
<stop offset="0.28" stop-color="white" stop-opacity="0.5"/>
<stop offset="0.65" stop-color="#FAFBFC" stop-opacity="0.4"/>
<stop offset="1" stop-color="#F0EFEF" stop-opacity="0"/>
</linearGradient>
<linearGradient id="paint44_linear_1005_6045" x1="38.9301" y1="26.66" x2="33.1601" y2="16.65" gradientUnits="userSpaceOnUse">
<stop stop-color="white" stop-opacity="0.9"/>
<stop offset="0.28" stop-color="white" stop-opacity="0.5"/>
<stop offset="0.65" stop-color="#FAFBFC" stop-opacity="0.4"/>
<stop offset="1" stop-color="#F0EFEF" stop-opacity="0"/>
</linearGradient>
<linearGradient id="paint45_linear_1005_6045" x1="38.9301" y1="26.66" x2="33.1601" y2="16.65" gradientUnits="userSpaceOnUse">
<stop stop-color="white" stop-opacity="0.9"/>
<stop offset="0.28" stop-color="white" stop-opacity="0.5"/>
<stop offset="0.65" stop-color="#FAFBFC" stop-opacity="0.4"/>
<stop offset="1" stop-color="#F0EFEF" stop-opacity="0"/>
</linearGradient>
<linearGradient id="paint46_linear_1005_6045" x1="38.9301" y1="26.6598" x2="33.1601" y2="16.6498" gradientUnits="userSpaceOnUse">
<stop stop-color="white" stop-opacity="0.9"/>
<stop offset="0.28" stop-color="white" stop-opacity="0.5"/>
<stop offset="0.65" stop-color="#FAFBFC" stop-opacity="0.4"/>
<stop offset="1" stop-color="#F0EFEF" stop-opacity="0"/>
</linearGradient>
<linearGradient id="paint47_linear_1005_6045" x1="38.9301" y1="26.6598" x2="33.1601" y2="16.6498" gradientUnits="userSpaceOnUse">
<stop stop-color="white" stop-opacity="0.9"/>
<stop offset="0.28" stop-color="white" stop-opacity="0.5"/>
<stop offset="0.65" stop-color="#FAFBFC" stop-opacity="0.4"/>
<stop offset="1" stop-color="#F0EFEF" stop-opacity="0"/>
</linearGradient>
<linearGradient id="paint48_linear_1005_6045" x1="38.9301" y1="26.6597" x2="33.1601" y2="16.6497" gradientUnits="userSpaceOnUse">
<stop stop-color="white" stop-opacity="0.9"/>
<stop offset="0.28" stop-color="white" stop-opacity="0.5"/>
<stop offset="0.65" stop-color="#FAFBFC" stop-opacity="0.4"/>
<stop offset="1" stop-color="#F0EFEF" stop-opacity="0"/>
</linearGradient>
<linearGradient id="paint49_linear_1005_6045" x1="38.9301" y1="26.6597" x2="33.1601" y2="16.6497" gradientUnits="userSpaceOnUse">
<stop stop-color="white" stop-opacity="0.9"/>
<stop offset="0.28" stop-color="white" stop-opacity="0.5"/>
<stop offset="0.65" stop-color="#FAFBFC" stop-opacity="0.4"/>
<stop offset="1" stop-color="#F0EFEF" stop-opacity="0"/>
</linearGradient>
<linearGradient id="paint50_linear_1005_6045" x1="38.93" y1="26.66" x2="33.16" y2="16.65" gradientUnits="userSpaceOnUse">
<stop stop-color="white" stop-opacity="0.9"/>
<stop offset="0.28" stop-color="white" stop-opacity="0.5"/>
<stop offset="0.65" stop-color="#FAFBFC" stop-opacity="0.4"/>
<stop offset="1" stop-color="#F0EFEF" stop-opacity="0"/>
</linearGradient>
<linearGradient id="paint51_linear_1005_6045" x1="38.93" y1="26.66" x2="33.16" y2="16.65" gradientUnits="userSpaceOnUse">
<stop stop-color="white" stop-opacity="0.9"/>
<stop offset="0.28" stop-color="white" stop-opacity="0.5"/>
<stop offset="0.65" stop-color="#FAFBFC" stop-opacity="0.4"/>
<stop offset="1" stop-color="#F0EFEF" stop-opacity="0"/>
</linearGradient>
<linearGradient id="paint52_linear_1005_6045" x1="38.9301" y1="26.6599" x2="33.1601" y2="16.6499" gradientUnits="userSpaceOnUse">
<stop stop-color="white" stop-opacity="0.9"/>
<stop offset="0.28" stop-color="white" stop-opacity="0.5"/>
<stop offset="0.65" stop-color="#FAFBFC" stop-opacity="0.4"/>
<stop offset="1" stop-color="#F0EFEF" stop-opacity="0"/>
</linearGradient>
<linearGradient id="paint53_linear_1005_6045" x1="38.93" y1="26.6598" x2="33.16" y2="16.6498" gradientUnits="userSpaceOnUse">
<stop stop-color="white" stop-opacity="0.9"/>
<stop offset="0.28" stop-color="white" stop-opacity="0.5"/>
<stop offset="0.65" stop-color="#FAFBFC" stop-opacity="0.4"/>
<stop offset="1" stop-color="#F0EFEF" stop-opacity="0"/>
</linearGradient>
<linearGradient id="paint54_linear_1005_6045" x1="38.93" y1="26.6598" x2="33.16" y2="16.6498" gradientUnits="userSpaceOnUse">
<stop stop-color="white" stop-opacity="0.9"/>
<stop offset="0.28" stop-color="white" stop-opacity="0.5"/>
<stop offset="0.65" stop-color="#FAFBFC" stop-opacity="0.4"/>
<stop offset="1" stop-color="#F0EFEF" stop-opacity="0"/>
</linearGradient>
<linearGradient id="paint55_linear_1005_6045" x1="38.93" y1="26.6598" x2="33.16" y2="16.6498" gradientUnits="userSpaceOnUse">
<stop stop-color="white" stop-opacity="0.9"/>
<stop offset="0.28" stop-color="white" stop-opacity="0.5"/>
<stop offset="0.65" stop-color="#FAFBFC" stop-opacity="0.4"/>
<stop offset="1" stop-color="#F0EFEF" stop-opacity="0"/>
</linearGradient>
<linearGradient id="paint56_linear_1005_6045" x1="38.9301" y1="26.66" x2="33.1601" y2="16.65" gradientUnits="userSpaceOnUse">
<stop stop-color="white" stop-opacity="0.9"/>
<stop offset="0.28" stop-color="white" stop-opacity="0.5"/>
<stop offset="0.65" stop-color="#FAFBFC" stop-opacity="0.4"/>
<stop offset="1" stop-color="#F0EFEF" stop-opacity="0"/>
</linearGradient>
<linearGradient id="paint57_linear_1005_6045" x1="38.9301" y1="26.66" x2="33.1601" y2="16.65" gradientUnits="userSpaceOnUse">
<stop stop-color="white" stop-opacity="0.9"/>
<stop offset="0.28" stop-color="white" stop-opacity="0.5"/>
<stop offset="0.65" stop-color="#FAFBFC" stop-opacity="0.4"/>
<stop offset="1" stop-color="#F0EFEF" stop-opacity="0"/>
</linearGradient>
<linearGradient id="paint58_linear_1005_6045" x1="38.9301" y1="26.6598" x2="33.1601" y2="16.6498" gradientUnits="userSpaceOnUse">
<stop stop-color="white" stop-opacity="0.9"/>
<stop offset="0.28" stop-color="white" stop-opacity="0.5"/>
<stop offset="0.65" stop-color="#FAFBFC" stop-opacity="0.4"/>
<stop offset="1" stop-color="#F0EFEF" stop-opacity="0"/>
</linearGradient>
<linearGradient id="paint59_linear_1005_6045" x1="38.9301" y1="26.6598" x2="33.1601" y2="16.6498" gradientUnits="userSpaceOnUse">
<stop stop-color="white" stop-opacity="0.9"/>
<stop offset="0.28" stop-color="white" stop-opacity="0.5"/>
<stop offset="0.65" stop-color="#FAFBFC" stop-opacity="0.4"/>
<stop offset="1" stop-color="#F0EFEF" stop-opacity="0"/>
</linearGradient>
<linearGradient id="paint60_linear_1005_6045" x1="38.9301" y1="26.6597" x2="33.1601" y2="16.6497" gradientUnits="userSpaceOnUse">
<stop stop-color="white" stop-opacity="0.9"/>
<stop offset="0.28" stop-color="white" stop-opacity="0.5"/>
<stop offset="0.65" stop-color="#FAFBFC" stop-opacity="0.4"/>
<stop offset="1" stop-color="#F0EFEF" stop-opacity="0"/>
</linearGradient>
<linearGradient id="paint61_linear_1005_6045" x1="38.9301" y1="26.6597" x2="33.1601" y2="16.6497" gradientUnits="userSpaceOnUse">
<stop stop-color="white" stop-opacity="0.9"/>
<stop offset="0.28" stop-color="white" stop-opacity="0.5"/>
<stop offset="0.65" stop-color="#FAFBFC" stop-opacity="0.4"/>
<stop offset="1" stop-color="#F0EFEF" stop-opacity="0"/>
</linearGradient>
<linearGradient id="paint62_linear_1005_6045" x1="38.93" y1="26.66" x2="33.16" y2="16.65" gradientUnits="userSpaceOnUse">
<stop stop-color="white" stop-opacity="0.9"/>
<stop offset="0.28" stop-color="white" stop-opacity="0.5"/>
<stop offset="0.65" stop-color="#FAFBFC" stop-opacity="0.4"/>
<stop offset="1" stop-color="#F0EFEF" stop-opacity="0"/>
</linearGradient>
<linearGradient id="paint63_linear_1005_6045" x1="38.93" y1="26.66" x2="33.16" y2="16.65" gradientUnits="userSpaceOnUse">
<stop stop-color="white" stop-opacity="0.9"/>
<stop offset="0.28" stop-color="white" stop-opacity="0.5"/>
<stop offset="0.65" stop-color="#FAFBFC" stop-opacity="0.4"/>
<stop offset="1" stop-color="#F0EFEF" stop-opacity="0"/>
</linearGradient>
<linearGradient id="paint64_linear_1005_6045" x1="38.9301" y1="26.6599" x2="33.1601" y2="16.6499" gradientUnits="userSpaceOnUse">
<stop stop-color="white" stop-opacity="0.9"/>
<stop offset="0.28" stop-color="white" stop-opacity="0.5"/>
<stop offset="0.65" stop-color="#FAFBFC" stop-opacity="0.4"/>
<stop offset="1" stop-color="#F0EFEF" stop-opacity="0"/>
</linearGradient>
<linearGradient id="paint65_linear_1005_6045" x1="38.93" y1="26.6598" x2="33.16" y2="16.6498" gradientUnits="userSpaceOnUse">
<stop stop-color="white" stop-opacity="0.9"/>
<stop offset="0.28" stop-color="white" stop-opacity="0.5"/>
<stop offset="0.65" stop-color="#FAFBFC" stop-opacity="0.4"/>
<stop offset="1" stop-color="#F0EFEF" stop-opacity="0"/>
</linearGradient>
<linearGradient id="paint66_linear_1005_6045" x1="48.3502" y1="75.2498" x2="48.3502" y2="26.9498" gradientUnits="userSpaceOnUse">
<stop stop-color="#79A540"/>
<stop offset="0.2" stop-color="#94C63D"/>
<stop offset="0.39" stop-color="#98CA3C"/>
<stop offset="0.59" stop-color="#93C53E"/>
<stop offset="0.74" stop-color="#9DCB3B"/>
<stop offset="0.9" stop-color="#A6CE39"/>
<stop offset="1" stop-color="#A6CE39"/>
</linearGradient>
<linearGradient id="paint67_linear_1005_6045" x1="39.3602" y1="75.2499" x2="39.3602" y2="26.9499" gradientUnits="userSpaceOnUse">
<stop stop-color="#79A540"/>
<stop offset="0.2" stop-color="#94C63D"/>
<stop offset="0.39" stop-color="#98CA3C"/>
<stop offset="0.59" stop-color="#93C53E"/>
<stop offset="0.74" stop-color="#9DCB3B"/>
<stop offset="0.9" stop-color="#A6CE39"/>
<stop offset="1" stop-color="#A6CE39"/>
</linearGradient>
<linearGradient id="paint68_linear_1005_6045" x1="30.66" y1="75.2498" x2="30.66" y2="26.9498" gradientUnits="userSpaceOnUse">
<stop stop-color="#79A540"/>
<stop offset="0.2" stop-color="#94C63D"/>
<stop offset="0.39" stop-color="#98CA3C"/>
<stop offset="0.59" stop-color="#93C53E"/>
<stop offset="0.74" stop-color="#9DCB3B"/>
<stop offset="0.9" stop-color="#A6CE39"/>
<stop offset="1" stop-color="#A6CE39"/>
</linearGradient>
<linearGradient id="paint69_linear_1005_6045" x1="21.96" y1="75.2498" x2="21.96" y2="26.9498" gradientUnits="userSpaceOnUse">
<stop stop-color="#79A540"/>
<stop offset="0.2" stop-color="#94C63D"/>
<stop offset="0.39" stop-color="#98CA3C"/>
<stop offset="0.59" stop-color="#93C53E"/>
<stop offset="0.74" stop-color="#9DCB3B"/>
<stop offset="0.9" stop-color="#A6CE39"/>
<stop offset="1" stop-color="#A6CE39"/>
</linearGradient>
<linearGradient id="paint70_linear_1005_6045" x1="34.7601" y1="75.2499" x2="34.7601" y2="26.9497" gradientUnits="userSpaceOnUse">
<stop stop-color="#79A540"/>
<stop offset="0.2" stop-color="#94C63D"/>
<stop offset="0.39" stop-color="#98CA3C"/>
<stop offset="0.59" stop-color="#93C53E"/>
<stop offset="0.74" stop-color="#9DCB3B"/>
<stop offset="0.9" stop-color="#A6CE39"/>
<stop offset="1" stop-color="#A6CE39"/>
</linearGradient>
<linearGradient id="paint71_linear_1005_6045" x1="34.29" y1="75.25" x2="34.29" y2="26.95" gradientUnits="userSpaceOnUse">
<stop stop-color="#79A540"/>
<stop offset="0.2" stop-color="#94C63D"/>
<stop offset="0.39" stop-color="#98CA3C"/>
<stop offset="0.59" stop-color="#93C53E"/>
<stop offset="0.74" stop-color="#9DCB3B"/>
<stop offset="0.9" stop-color="#A6CE39"/>
<stop offset="1" stop-color="#A6CE39"/>
</linearGradient>
<linearGradient id="paint72_linear_1005_6045" x1="48.3502" y1="67.2398" x2="48.3502" y2="39.8598" gradientUnits="userSpaceOnUse">
<stop stop-color="#79A540"/>
<stop offset="0.2" stop-color="#94C63D"/>
<stop offset="0.39" stop-color="#98CA3C"/>
<stop offset="0.59" stop-color="#93C53E"/>
<stop offset="0.74" stop-color="#9DCB3B"/>
<stop offset="0.9" stop-color="#A6CE39"/>
<stop offset="1" stop-color="#A6CE39"/>
</linearGradient>
<linearGradient id="paint73_linear_1005_6045" x1="39.3602" y1="67.2399" x2="39.3602" y2="39.8699" gradientUnits="userSpaceOnUse">
<stop stop-color="#79A540"/>
<stop offset="0.2" stop-color="#94C63D"/>
<stop offset="0.39" stop-color="#98CA3C"/>
<stop offset="0.59" stop-color="#93C53E"/>
<stop offset="0.74" stop-color="#9DCB3B"/>
<stop offset="0.9" stop-color="#A6CE39"/>
<stop offset="1" stop-color="#A6CE39"/>
</linearGradient>
<linearGradient id="paint74_linear_1005_6045" x1="30.66" y1="67.2398" x2="30.66" y2="39.8598" gradientUnits="userSpaceOnUse">
<stop stop-color="#79A540"/>
<stop offset="0.2" stop-color="#94C63D"/>
<stop offset="0.39" stop-color="#98CA3C"/>
<stop offset="0.59" stop-color="#93C53E"/>
<stop offset="0.74" stop-color="#9DCB3B"/>
<stop offset="0.9" stop-color="#A6CE39"/>
<stop offset="1" stop-color="#A6CE39"/>
</linearGradient>
<linearGradient id="paint75_linear_1005_6045" x1="21.96" y1="67.2398" x2="21.96" y2="39.8698" gradientUnits="userSpaceOnUse">
<stop stop-color="#79A540"/>
<stop offset="0.2" stop-color="#94C63D"/>
<stop offset="0.39" stop-color="#98CA3C"/>
<stop offset="0.59" stop-color="#93C53E"/>
<stop offset="0.74" stop-color="#9DCB3B"/>
<stop offset="0.9" stop-color="#A6CE39"/>
<stop offset="1" stop-color="#A6CE39"/>
</linearGradient>
<linearGradient id="paint76_linear_1005_6045" x1="34.7601" y1="67.2399" x2="34.7601" y2="39.9498" gradientUnits="userSpaceOnUse">
<stop stop-color="#79A540"/>
<stop offset="0.2" stop-color="#94C63D"/>
<stop offset="0.39" stop-color="#98CA3C"/>
<stop offset="0.59" stop-color="#93C53E"/>
<stop offset="0.74" stop-color="#9DCB3B"/>
<stop offset="0.9" stop-color="#A6CE39"/>
<stop offset="1" stop-color="#A6CE39"/>
</linearGradient>
<linearGradient id="paint77_linear_1005_6045" x1="34.29" y1="67.24" x2="34.29" y2="39.85" gradientUnits="userSpaceOnUse">
<stop stop-color="#79A540"/>
<stop offset="0.2" stop-color="#94C63D"/>
<stop offset="0.39" stop-color="#98CA3C"/>
<stop offset="0.59" stop-color="#93C53E"/>
<stop offset="0.74" stop-color="#9DCB3B"/>
<stop offset="0.9" stop-color="#A6CE39"/>
<stop offset="1" stop-color="#A6CE39"/>
</linearGradient>
<linearGradient id="paint78_linear_1005_6045" x1="15.6902" y1="53.5398" x2="53.8302" y2="53.5398" gradientUnits="userSpaceOnUse">
<stop stop-color="#F0EFEF" stop-opacity="0"/>
<stop offset="0.61" stop-color="#FAFBFC" stop-opacity="0.4"/>
<stop offset="0.85" stop-color="white" stop-opacity="0.5"/>
<stop offset="1" stop-color="white" stop-opacity="0.9"/>
</linearGradient>
<linearGradient id="paint79_linear_1005_6045" x1="15.6902" y1="53.5399" x2="53.8302" y2="53.5399" gradientUnits="userSpaceOnUse">
<stop stop-color="#F0EFEF" stop-opacity="0"/>
<stop offset="0.61" stop-color="#FAFBFC" stop-opacity="0.4"/>
<stop offset="0.85" stop-color="white" stop-opacity="0.5"/>
<stop offset="1" stop-color="white" stop-opacity="0.9"/>
</linearGradient>
<linearGradient id="paint80_linear_1005_6045" x1="15.69" y1="53.5398" x2="53.83" y2="53.5398" gradientUnits="userSpaceOnUse">
<stop stop-color="#F0EFEF" stop-opacity="0"/>
<stop offset="0.61" stop-color="#FAFBFC" stop-opacity="0.4"/>
<stop offset="0.85" stop-color="white" stop-opacity="0.5"/>
<stop offset="1" stop-color="white" stop-opacity="0.9"/>
</linearGradient>
<linearGradient id="paint81_linear_1005_6045" x1="15.69" y1="53.5398" x2="53.83" y2="53.5398" gradientUnits="userSpaceOnUse">
<stop stop-color="#F0EFEF" stop-opacity="0"/>
<stop offset="0.61" stop-color="#FAFBFC" stop-opacity="0.4"/>
<stop offset="0.85" stop-color="white" stop-opacity="0.5"/>
<stop offset="1" stop-color="white" stop-opacity="0.9"/>
</linearGradient>
<linearGradient id="paint82_linear_1005_6045" x1="15.6901" y1="53.5398" x2="53.8301" y2="53.5398" gradientUnits="userSpaceOnUse">
<stop stop-color="#F0EFEF" stop-opacity="0"/>
<stop offset="0.61" stop-color="#FAFBFC" stop-opacity="0.4"/>
<stop offset="0.85" stop-color="white" stop-opacity="0.5"/>
<stop offset="1" stop-color="white" stop-opacity="0.9"/>
</linearGradient>
<linearGradient id="paint83_linear_1005_6045" x1="15.69" y1="53.54" x2="53.83" y2="53.54" gradientUnits="userSpaceOnUse">
<stop stop-color="#F0EFEF" stop-opacity="0"/>
<stop offset="0.61" stop-color="#FAFBFC" stop-opacity="0.4"/>
<stop offset="0.85" stop-color="white" stop-opacity="0.5"/>
<stop offset="1" stop-color="white" stop-opacity="0.9"/>
</linearGradient>
<linearGradient id="paint84_linear_1005_6045" x1="15.6902" y1="53.5398" x2="53.8302" y2="53.5398" gradientUnits="userSpaceOnUse">
<stop stop-color="#F0EFEF" stop-opacity="0"/>
<stop offset="0.61" stop-color="#FAFBFC" stop-opacity="0.4"/>
<stop offset="0.85" stop-color="white" stop-opacity="0.5"/>
<stop offset="1" stop-color="white" stop-opacity="0.9"/>
</linearGradient>
<linearGradient id="paint85_linear_1005_6045" x1="15.6902" y1="53.5399" x2="53.8302" y2="53.5399" gradientUnits="userSpaceOnUse">
<stop stop-color="#F0EFEF" stop-opacity="0"/>
<stop offset="0.61" stop-color="#FAFBFC" stop-opacity="0.4"/>
<stop offset="0.85" stop-color="white" stop-opacity="0.5"/>
<stop offset="1" stop-color="white" stop-opacity="0.9"/>
</linearGradient>
<linearGradient id="paint86_linear_1005_6045" x1="15.69" y1="53.5398" x2="53.83" y2="53.5398" gradientUnits="userSpaceOnUse">
<stop stop-color="#F0EFEF" stop-opacity="0"/>
<stop offset="0.61" stop-color="#FAFBFC" stop-opacity="0.4"/>
<stop offset="0.85" stop-color="white" stop-opacity="0.5"/>
<stop offset="1" stop-color="white" stop-opacity="0.9"/>
</linearGradient>
<linearGradient id="paint87_linear_1005_6045" x1="15.69" y1="53.5398" x2="53.83" y2="53.5398" gradientUnits="userSpaceOnUse">
<stop stop-color="#F0EFEF" stop-opacity="0"/>
<stop offset="0.61" stop-color="#FAFBFC" stop-opacity="0.4"/>
<stop offset="0.85" stop-color="white" stop-opacity="0.5"/>
<stop offset="1" stop-color="white" stop-opacity="0.9"/>
</linearGradient>
<linearGradient id="paint88_linear_1005_6045" x1="15.6901" y1="53.5398" x2="53.8301" y2="53.5398" gradientUnits="userSpaceOnUse">
<stop stop-color="#F0EFEF" stop-opacity="0"/>
<stop offset="0.61" stop-color="#FAFBFC" stop-opacity="0.4"/>
<stop offset="0.85" stop-color="white" stop-opacity="0.5"/>
<stop offset="1" stop-color="white" stop-opacity="0.9"/>
</linearGradient>
<linearGradient id="paint89_linear_1005_6045" x1="15.69" y1="53.54" x2="53.83" y2="53.54" gradientUnits="userSpaceOnUse">
<stop stop-color="#F0EFEF" stop-opacity="0"/>
<stop offset="0.61" stop-color="#FAFBFC" stop-opacity="0.4"/>
<stop offset="0.85" stop-color="white" stop-opacity="0.5"/>
<stop offset="1" stop-color="white" stop-opacity="0.9"/>
</linearGradient>
<linearGradient id="paint90_linear_1005_6045" x1="46.29" y1="37.92" x2="24.98" y2="1.01998" gradientUnits="userSpaceOnUse">
<stop stop-color="white" stop-opacity="0.9"/>
<stop offset="0.04" stop-color="white" stop-opacity="0.85"/>
<stop offset="0.28" stop-color="white" stop-opacity="0.5"/>
<stop offset="0.65" stop-color="#FAFBFC" stop-opacity="0.4"/>
<stop offset="1" stop-color="#F0EFEF" stop-opacity="0"/>
</linearGradient>
<linearGradient id="paint91_linear_1005_6045" x1="46.29" y1="37.9202" x2="24.98" y2="1.02021" gradientUnits="userSpaceOnUse">
<stop stop-color="#F0EFEF" stop-opacity="0"/>
<stop offset="0.61" stop-color="#FAFBFC" stop-opacity="0.4"/>
<stop offset="0.85" stop-color="white" stop-opacity="0.5"/>
<stop offset="1" stop-color="white" stop-opacity="0.9"/>
</linearGradient>
<linearGradient id="paint92_linear_1005_6045" x1="76.44" y1="56.6202" x2="64.07" y2="35.2002" gradientUnits="userSpaceOnUse">
<stop stop-color="white" stop-opacity="0.9"/>
<stop offset="0.04" stop-color="white" stop-opacity="0.85"/>
<stop offset="0.28" stop-color="white" stop-opacity="0.5"/>
<stop offset="0.65" stop-color="#FAFBFC" stop-opacity="0.4"/>
<stop offset="1" stop-color="#F0EFEF" stop-opacity="0.3"/>
</linearGradient>
<linearGradient id="paint93_linear_1005_6045" x1="76.17" y1="56.1602" x2="63.94" y2="34.9802" gradientUnits="userSpaceOnUse">
<stop stop-color="white" stop-opacity="0.9"/>
<stop offset="0.28" stop-color="white" stop-opacity="0.5"/>
<stop offset="0.65" stop-color="#FAFBFC" stop-opacity="0.4"/>
<stop offset="1" stop-color="#F0EFEF" stop-opacity="0"/>
</linearGradient>
<linearGradient id="paint94_linear_1005_6045" x1="60.8999" y1="45.3002" x2="53.6399" y2="40.2902" gradientUnits="userSpaceOnUse">
<stop stop-color="#79A540"/>
<stop offset="0.2" stop-color="#94C63D"/>
<stop offset="0.39" stop-color="#98CA3C"/>
<stop offset="0.59" stop-color="#93C53E"/>
<stop offset="0.74" stop-color="#9DCB3B"/>
<stop offset="0.9" stop-color="#A6CE39"/>
<stop offset="1" stop-color="#A6CE39"/>
</linearGradient>
<linearGradient id="paint95_linear_1005_6045" x1="55.3099" y1="43.2502" x2="60.5699" y2="43.2502" gradientUnits="userSpaceOnUse">
<stop stop-color="#F0EFEF" stop-opacity="0"/>
<stop offset="0.61" stop-color="#FAFBFC" stop-opacity="0.4"/>
<stop offset="0.85" stop-color="white" stop-opacity="0.5"/>
<stop offset="1" stop-color="white" stop-opacity="0.9"/>
</linearGradient>
<linearGradient id="paint96_linear_1005_6045" x1="77.5999" y1="36.8701" x2="70.3399" y2="31.8501" gradientUnits="userSpaceOnUse">
<stop stop-color="#79A540"/>
<stop offset="0.2" stop-color="#94C63D"/>
<stop offset="0.39" stop-color="#98CA3C"/>
<stop offset="0.59" stop-color="#93C53E"/>
<stop offset="0.74" stop-color="#9DCB3B"/>
<stop offset="0.9" stop-color="#A6CE39"/>
<stop offset="1" stop-color="#A6CE39"/>
</linearGradient>
<linearGradient id="paint97_linear_1005_6045" x1="72.0099" y1="34.8201" x2="77.2699" y2="34.8201" gradientUnits="userSpaceOnUse">
<stop stop-color="#F0EFEF" stop-opacity="0"/>
<stop offset="0.61" stop-color="#FAFBFC" stop-opacity="0.4"/>
<stop offset="0.85" stop-color="white" stop-opacity="0.5"/>
<stop offset="1" stop-color="white" stop-opacity="0.9"/>
</linearGradient>
<linearGradient id="paint98_linear_1005_6045" x1="77.5999" y1="54.29" x2="70.3399" y2="49.27" gradientUnits="userSpaceOnUse">
<stop stop-color="#79A540"/>
<stop offset="0.2" stop-color="#94C63D"/>
<stop offset="0.39" stop-color="#98CA3C"/>
<stop offset="0.59" stop-color="#93C53E"/>
<stop offset="0.74" stop-color="#9DCB3B"/>
<stop offset="0.9" stop-color="#A6CE39"/>
<stop offset="1" stop-color="#A6CE39"/>
</linearGradient>
<linearGradient id="paint99_linear_1005_6045" x1="72.0099" y1="52.24" x2="77.2699" y2="52.24" gradientUnits="userSpaceOnUse">
<stop stop-color="#F0EFEF" stop-opacity="0"/>
<stop offset="0.61" stop-color="#FAFBFC" stop-opacity="0.4"/>
<stop offset="0.85" stop-color="white" stop-opacity="0.5"/>
<stop offset="1" stop-color="white" stop-opacity="0.9"/>
</linearGradient>
<linearGradient id="paint100_linear_1005_6045" x1="36.5101" y1="35.5701" x2="34.6701" y2="32.3701" gradientUnits="userSpaceOnUse">
<stop stop-color="white" stop-opacity="0.9"/>
<stop offset="0.04" stop-color="white" stop-opacity="0.85"/>
<stop offset="0.28" stop-color="white" stop-opacity="0.5"/>
<stop offset="0.65" stop-color="#FAFBFC" stop-opacity="0.4"/>
<stop offset="1" stop-color="#F0EFEF" stop-opacity="0"/>
</linearGradient>
<linearGradient id="paint101_linear_1005_6045" x1="36.5101" y1="35.5701" x2="34.6701" y2="32.3701" gradientUnits="userSpaceOnUse">
<stop stop-color="#F0EFEF" stop-opacity="0"/>
<stop offset="0.61" stop-color="#FAFBFC" stop-opacity="0.4"/>
<stop offset="0.85" stop-color="white" stop-opacity="0.5"/>
<stop offset="1" stop-color="white" stop-opacity="0.9"/>
</linearGradient>
<clipPath id="clip0_1005_6045">
<rect width="80" height="80" fill="white"/>
</clipPath>
</defs>
</svg>
