<svg width="80" height="80" viewBox="0 0 80 80" fill="none" xmlns="http://www.w3.org/2000/svg">
<path d="M25.5102 18.9597C28.8802 18.9597 31.6202 18.6797 31.6202 18.3397C31.6202 17.9997 28.8902 17.7197 25.5102 17.7197C22.1302 17.7197 19.4102 17.9997 19.4102 18.3397C19.4102 18.6797 22.1402 18.9597 25.5102 18.9597Z" fill="url(#paint0_radial_1005_5967)"/>
<path d="M26.2101 18.3296C26.2101 21.6296 25.9001 24.3096 25.5101 24.3096C25.1201 24.3096 24.8101 21.6296 24.8101 18.3296C24.8101 15.0296 25.1201 12.3496 25.5101 12.3496C25.9001 12.3496 26.2101 15.0296 26.2101 18.3296Z" fill="url(#paint1_radial_1005_5967)"/>
<path d="M62.0499 56.0598C65.4199 56.0598 68.16 55.7798 68.16 55.4398C68.16 55.0998 65.4299 54.8198 62.0499 54.8198C58.6699 54.8198 55.95 55.0998 55.95 55.4398C55.95 55.7798 58.6799 56.0598 62.0499 56.0598Z" fill="url(#paint2_radial_1005_5967)"/>
<path d="M62.7398 55.4297C62.7398 58.7297 62.4298 61.4097 62.0398 61.4097C61.6498 61.4097 61.3398 58.7297 61.3398 55.4297C61.3398 52.1297 61.6498 49.4497 62.0398 49.4497C62.4298 49.4497 62.7398 52.1297 62.7398 55.4297Z" fill="url(#paint3_radial_1005_5967)"/>
<path d="M39.6403 39.5998V50.9998C39.6403 51.2398 39.5403 51.4798 39.3703 51.6498C39.2003 51.8198 38.9703 51.9198 38.7203 51.9198H36.2103C35.9703 51.9198 35.7303 51.8198 35.5603 51.6498C35.3903 51.4798 35.2903 51.2498 35.2903 50.9998V39.5198C35.2903 39.2798 35.3903 39.0398 35.5603 38.8698C35.7303 38.6998 35.9603 38.5998 36.2103 38.5998H38.7203C38.8503 38.5998 38.9803 38.6298 39.1003 38.6798C39.2203 38.7298 39.3303 38.8098 39.4203 38.8998C39.5003 38.9898 39.5703 39.0998 39.6003 39.2198C39.6403 39.3398 39.6603 39.4598 39.6503 39.5898L39.6403 39.5998ZM41.9703 43.9898C42.1403 43.8198 42.3703 43.7198 42.6203 43.7198H45.1303C45.3703 43.7498 45.5803 43.8598 45.7503 44.0298C45.9203 44.1998 46.0303 44.4198 46.0603 44.6498V51.0098C46.0603 51.2498 45.9603 51.4898 45.7903 51.6598C45.6203 51.8298 45.3903 51.9298 45.1403 51.9298H42.6303C42.3903 51.9298 42.1503 51.8298 41.9803 51.6598C41.8103 51.4898 41.7103 51.2598 41.7103 51.0098V44.6398C41.7103 44.3998 41.8103 44.1598 41.9803 43.9898H41.9703ZM29.2903 45.2098C29.4603 45.0398 29.6903 44.9398 29.9403 44.9398H32.4503C32.6903 44.9598 32.9203 45.0598 33.0803 45.2298C33.2503 45.3998 33.3503 45.6298 33.3703 45.8598V50.9698C33.3703 51.2098 33.2703 51.4498 33.1003 51.6198C32.9303 51.7898 32.7003 51.8898 32.4503 51.8898H29.9403C29.7003 51.8898 29.4603 51.7898 29.2903 51.6198C29.1203 51.4498 29.0203 51.2198 29.0203 50.9698V45.8598C29.0203 45.6198 29.1203 45.3798 29.2903 45.2098ZM48.3603 38.8598C48.5303 38.6898 48.7603 38.5898 49.0103 38.5898H51.5203C51.7503 38.5998 51.9703 38.6898 52.1303 38.8498C52.3003 38.9998 52.4103 39.2098 52.4403 39.4398V50.9998C52.4403 51.2398 52.3403 51.4798 52.1703 51.6498C52.0003 51.8198 51.7703 51.9198 51.5203 51.9198H49.0103C48.7703 51.9198 48.5303 51.8198 48.3603 51.6498C48.1903 51.4798 48.0903 51.2498 48.0903 50.9998V39.5198C48.0903 39.2798 48.1903 39.0398 48.3603 38.8698V38.8598Z" stroke="url(#paint4_linear_1005_5967)" stroke-width="0.25" stroke-miterlimit="10"/>
<path d="M39.6403 39.5998V50.9998C39.6403 51.2398 39.5403 51.4798 39.3703 51.6498C39.2003 51.8198 38.9703 51.9198 38.7203 51.9198H36.2103C35.9703 51.9198 35.7303 51.8198 35.5603 51.6498C35.3903 51.4798 35.2903 51.2498 35.2903 50.9998V39.5198C35.2903 39.2798 35.3903 39.0398 35.5603 38.8698C35.7303 38.6998 35.9603 38.5998 36.2103 38.5998H38.7203C38.8503 38.5998 38.9803 38.6298 39.1003 38.6798C39.2203 38.7298 39.3303 38.8098 39.4203 38.8998C39.5003 38.9898 39.5703 39.0998 39.6003 39.2198C39.6403 39.3398 39.6603 39.4598 39.6503 39.5898L39.6403 39.5998ZM41.9703 43.9898C42.1403 43.8198 42.3703 43.7198 42.6203 43.7198H45.1303C45.3703 43.7498 45.5803 43.8598 45.7503 44.0298C45.9203 44.1998 46.0303 44.4198 46.0603 44.6498V51.0098C46.0603 51.2498 45.9603 51.4898 45.7903 51.6598C45.6203 51.8298 45.3903 51.9298 45.1403 51.9298H42.6303C42.3903 51.9298 42.1503 51.8298 41.9803 51.6598C41.8103 51.4898 41.7103 51.2598 41.7103 51.0098V44.6398C41.7103 44.3998 41.8103 44.1598 41.9803 43.9898H41.9703ZM29.2903 45.2098C29.4603 45.0398 29.6903 44.9398 29.9403 44.9398H32.4503C32.6903 44.9598 32.9203 45.0598 33.0803 45.2298C33.2503 45.3998 33.3503 45.6298 33.3703 45.8598V50.9698C33.3703 51.2098 33.2703 51.4498 33.1003 51.6198C32.9303 51.7898 32.7003 51.8898 32.4503 51.8898H29.9403C29.7003 51.8898 29.4603 51.7898 29.2903 51.6198C29.1203 51.4498 29.0203 51.2198 29.0203 50.9698V45.8598C29.0203 45.6198 29.1203 45.3798 29.2903 45.2098ZM48.3603 38.8598C48.5303 38.6898 48.7603 38.5898 49.0103 38.5898H51.5203C51.7503 38.5998 51.9703 38.6898 52.1303 38.8498C52.3003 38.9998 52.4103 39.2098 52.4403 39.4398V50.9998C52.4403 51.2398 52.3403 51.4798 52.1703 51.6498C52.0003 51.8198 51.7703 51.9198 51.5203 51.9198H49.0103C48.7703 51.9198 48.5303 51.8198 48.3603 51.6498C48.1903 51.4798 48.0903 51.2498 48.0903 50.9998V39.5198C48.0903 39.2798 48.1903 39.0398 48.3603 38.8698V38.8598Z" fill="url(#paint5_linear_1005_5967)"/>
<path d="M49.1602 29.2199C47.9402 29.2199 46.9402 30.2199 46.9402 31.4399C46.9402 31.6199 46.9702 31.7999 47.0102 31.9699L44.0502 34.3299C43.7402 34.1699 43.3902 34.0599 43.0202 34.0599C42.6502 34.0599 42.2802 34.1699 41.9702 34.3399L38.8002 31.8699C38.8402 31.6899 38.8802 31.5099 38.8802 31.3299C38.8802 30.1099 37.8802 29.1099 36.6602 29.1099C35.4402 29.1099 34.4402 30.1099 34.4402 31.3299C34.4402 31.6499 34.5102 31.9499 34.6302 32.2199L31.1902 35.6099C30.9402 35.5099 30.6602 35.4499 30.3802 35.4499C29.1602 35.4499 28.1602 36.4499 28.1602 37.6699C28.1602 38.8899 29.1602 39.8899 30.3802 39.8899C31.6002 39.8899 32.6002 38.8899 32.6002 37.6699C32.6002 37.3499 32.5302 37.0499 32.4002 36.7699L35.8302 33.3899C36.0902 33.4899 36.3602 33.5499 36.6602 33.5499C37.0802 33.5499 37.4702 33.4299 37.8102 33.2199L40.9202 35.6399C40.8602 35.8399 40.8102 36.0599 40.8102 36.2799C40.8102 37.4999 41.8102 38.4999 43.0302 38.4999C44.2502 38.4999 45.2502 37.4999 45.2502 36.2799C45.2502 36.0499 45.2002 35.8299 45.1402 35.6099L48.0202 33.3099C48.3602 33.5199 48.7502 33.6499 49.1802 33.6499C50.4002 33.6499 51.4002 32.6499 51.4002 31.4299C51.4002 30.2099 50.4002 29.2099 49.1802 29.2099L49.1602 29.2199ZM30.3702 38.4999C29.9102 38.4999 29.5402 38.1299 29.5402 37.6699C29.5402 37.2099 29.9102 36.8399 30.3702 36.8399C30.8302 36.8399 31.2002 37.2099 31.2002 37.6699C31.2002 38.1299 30.8302 38.4999 30.3702 38.4999ZM36.6502 32.1599C36.2002 32.1599 35.8302 31.7899 35.8302 31.3399C35.8302 30.8899 36.2002 30.5199 36.6502 30.5199C37.1002 30.5199 37.4702 30.8899 37.4702 31.3399C37.4702 31.7899 37.1002 32.1599 36.6502 32.1599ZM43.0202 37.1199C42.5702 37.1199 42.2002 36.7499 42.2002 36.2899C42.2002 35.8299 42.5702 35.4599 43.0202 35.4599C43.4702 35.4599 43.8502 35.8299 43.8502 36.2899C43.8502 36.7499 43.4802 37.1199 43.0202 37.1199ZM49.1602 32.2699C48.7002 32.2699 48.3302 31.8999 48.3302 31.4399C48.3302 30.9799 48.7002 30.6099 49.1602 30.6099C49.6202 30.6099 49.9902 30.9799 49.9902 31.4399C49.9902 31.8999 49.6202 32.2699 49.1602 32.2699Z" stroke="url(#paint6_linear_1005_5967)" stroke-width="0.25" stroke-miterlimit="10"/>
<path d="M49.1602 29.2199C47.9402 29.2199 46.9402 30.2199 46.9402 31.4399C46.9402 31.6199 46.9702 31.7999 47.0102 31.9699L44.0502 34.3299C43.7402 34.1699 43.3902 34.0599 43.0202 34.0599C42.6502 34.0599 42.2802 34.1699 41.9702 34.3399L38.8002 31.8699C38.8402 31.6899 38.8802 31.5099 38.8802 31.3299C38.8802 30.1099 37.8802 29.1099 36.6602 29.1099C35.4402 29.1099 34.4402 30.1099 34.4402 31.3299C34.4402 31.6499 34.5102 31.9499 34.6302 32.2199L31.1902 35.6099C30.9402 35.5099 30.6602 35.4499 30.3802 35.4499C29.1602 35.4499 28.1602 36.4499 28.1602 37.6699C28.1602 38.8899 29.1602 39.8899 30.3802 39.8899C31.6002 39.8899 32.6002 38.8899 32.6002 37.6699C32.6002 37.3499 32.5302 37.0499 32.4002 36.7699L35.8302 33.3899C36.0902 33.4899 36.3602 33.5499 36.6602 33.5499C37.0802 33.5499 37.4702 33.4299 37.8102 33.2199L40.9202 35.6399C40.8602 35.8399 40.8102 36.0599 40.8102 36.2799C40.8102 37.4999 41.8102 38.4999 43.0302 38.4999C44.2502 38.4999 45.2502 37.4999 45.2502 36.2799C45.2502 36.0499 45.2002 35.8299 45.1402 35.6099L48.0202 33.3099C48.3602 33.5199 48.7502 33.6499 49.1802 33.6499C50.4002 33.6499 51.4002 32.6499 51.4002 31.4299C51.4002 30.2099 50.4002 29.2099 49.1802 29.2099L49.1602 29.2199ZM30.3702 38.4999C29.9102 38.4999 29.5402 38.1299 29.5402 37.6699C29.5402 37.2099 29.9102 36.8399 30.3702 36.8399C30.8302 36.8399 31.2002 37.2099 31.2002 37.6699C31.2002 38.1299 30.8302 38.4999 30.3702 38.4999ZM36.6502 32.1599C36.2002 32.1599 35.8302 31.7899 35.8302 31.3399C35.8302 30.8899 36.2002 30.5199 36.6502 30.5199C37.1002 30.5199 37.4702 30.8899 37.4702 31.3399C37.4702 31.7899 37.1002 32.1599 36.6502 32.1599ZM43.0202 37.1199C42.5702 37.1199 42.2002 36.7499 42.2002 36.2899C42.2002 35.8299 42.5702 35.4599 43.0202 35.4599C43.4702 35.4599 43.8502 35.8299 43.8502 36.2899C43.8502 36.7499 43.4802 37.1199 43.0202 37.1199ZM49.1602 32.2699C48.7002 32.2699 48.3302 31.8999 48.3302 31.4399C48.3302 30.9799 48.7002 30.6099 49.1602 30.6099C49.6202 30.6099 49.9902 30.9799 49.9902 31.4399C49.9902 31.8999 49.6202 32.2699 49.1602 32.2699Z" fill="url(#paint7_linear_1005_5967)"/>
<path d="M77.09 31.44H58.48C58.38 31.24 58.29 31.03 58.19 30.83L61.56 27.25C61.98 26.83 62.19 26.2 62.19 25.57C62.19 24.94 61.98 24.52 61.56 24.1L56.93 19.26C56.51 18.84 55.88 18.63 55.25 18.63C54.62 18.63 54.2 18.84 53.78 19.26L50.2 22.84C50.02 22.74 49.85 22.66 49.67 22.57H49.72V14.12C49.72 12.21 51.28 10.65 53.19 10.65H69.59V8.45996H53.19C50.07 8.45996 47.53 11 47.53 14.12V21.65C47.03 21.48 46.52 21.32 45.99 21.16V16.11C45.99 14.85 44.94 13.79 43.67 13.79H36.93C35.67 13.79 34.61 14.84 34.61 16.11V21.16C34.07 21.31 33.56 21.48 33.06 21.65V14.12C33.06 11 30.52 8.45996 27.4 8.45996H10.99V10.65H27.39C29.3 10.65 30.86 12.21 30.86 14.12V22.57H30.92C30.75 22.66 30.58 22.74 30.39 22.84L27.02 19.26C26.6 18.84 25.97 18.63 25.34 18.63C24.71 18.63 24.29 18.84 23.87 19.26L19.03 24.1C18.19 24.94 18.19 26.42 19.03 27.26L22.61 30.84C22.48 31.03 22.36 31.24 22.25 31.45H3.48999V33.64H21.19C21.01 34.11 20.85 34.58 20.71 35.05H15.87C14.61 35.05 13.55 36.1 13.55 37.16V43.9C13.55 45.16 14.6 46.22 15.87 46.22H20.71C20.82 46.59 20.94 46.96 21.07 47.33H3.48999V49.52H22.06C22.23 49.83 22.41 50.13 22.6 50.42L19.02 54C18.18 54.84 18.18 56.32 19.02 57.16L23.86 61.79C24.28 62.42 24.7 62.63 25.33 62.63C25.96 62.63 26.59 62.42 27.01 61.79L30.38 58.42C30.54 58.49 30.69 58.56 30.85 58.63V66.46C30.85 68.37 29.29 69.93 27.38 69.93H10.99V72.12H27.39C30.51 72.12 33.05 69.58 33.05 66.46V59.57C33.55 59.77 34.06 59.95 34.6 60.11V65.16C34.6 66.42 35.65 67.27 36.92 67.27H43.66C44.92 67.27 45.98 66.43 45.98 65.16V60.11C46.52 59.96 47.02 59.77 47.52 59.57V66.45C47.52 69.57 50.06 72.11 53.18 72.11H69.58V69.92H53.18C51.27 69.92 49.71 68.36 49.71 66.45V58.63C49.87 58.56 50.02 58.49 50.19 58.42L53.77 61.79C54.19 62.42 54.61 62.63 55.24 62.63C55.87 62.63 56.5 62.42 56.92 61.79L61.55 57.16C61.97 56.74 62.18 56.11 62.18 55.48C62.18 55.06 61.97 54.43 61.55 54.01L58.18 50.43C58.33 50.14 58.47 49.84 58.61 49.53H77.08V47.34H59.51C59.64 46.97 59.76 46.6 59.87 46.23H64.71C65.97 46.23 67.03 45.18 67.03 43.91V37.17C67.03 36.12 65.98 35.06 64.71 35.06H59.87C59.73 34.59 59.57 34.12 59.4 33.65H77.08V31.46L77.09 31.44ZM64.51 37.57V43.68H58.82C58.19 43.68 57.77 44.1 57.56 44.73C57.14 46.63 56.51 48.31 55.45 49.99C55.03 50.41 55.24 51.04 55.66 51.46L59.66 55.46L55.24 59.88L51.24 55.88C50.82 55.46 50.19 55.46 49.77 55.67C48.09 56.72 46.19 57.57 44.3 57.99C43.88 57.99 43.46 58.62 43.46 59.04V64.73H37.14V59.04C37.14 58.62 36.93 57.99 36.3 57.99C34.4 57.57 32.51 56.73 31.04 55.67C30.41 55.46 29.78 55.46 29.36 55.88L25.36 59.88L20.94 55.46L24.94 51.46C25.36 51.04 25.57 50.41 25.15 49.99C24.1 48.31 23.47 46.62 23.04 44.73C22.83 44.1 22.41 43.68 21.78 43.68H16.09V37.57H21.78C22.41 37.57 22.83 37.15 23.04 36.52C23.46 34.62 24.09 32.94 25.15 31.26C25.57 30.63 25.36 30 24.94 29.58L20.94 25.58L25.36 21.37L29.36 25.37C29.78 25.79 30.41 25.79 31.04 25.58C32.51 24.53 34.41 23.68 36.3 23.26C36.93 23.05 37.14 22.63 37.14 22V16.31H43.46V22C43.46 22.63 43.88 23.05 44.3 23.26C46.2 23.68 48.09 24.52 49.77 25.58C50.19 25.79 50.82 25.79 51.24 25.37L55.24 21.37L59.66 25.58L55.66 29.58C55.24 30 55.03 30.63 55.45 31.26C56.5 32.94 57.13 34.63 57.56 36.52C57.77 37.15 58.19 37.57 58.82 37.57H64.51Z" fill="url(#paint8_linear_1005_5967)"/>
<path d="M69.33 8.68994V10.3799H53.18C51.13 10.3799 49.46 12.0499 49.46 14.0999V22.2999H48.64L49.54 22.7699L49.72 22.8599C49.83 22.9199 49.94 22.9699 50.06 23.0399L50.23 23.1299L50.37 22.9899L53.95 19.4099C54.35 19.0099 54.72 18.8499 55.25 18.8499C55.85 18.8499 56.4 19.0499 56.75 19.3999L61.39 24.2499C61.79 24.6499 61.95 25.0199 61.95 25.5499C61.95 26.1499 61.75 26.6999 61.39 27.0599L58.02 30.6399L57.9 30.7699L57.98 30.9299C58.05 31.0799 58.13 31.2299 58.2 31.3899L58.27 31.5399L58.34 31.6799H76.86V33.3699H59.07L59.19 33.7099C59.39 34.2499 59.54 34.6899 59.65 35.0999L59.7 35.2799H64.73C65.91 35.2799 66.8 36.2599 66.8 37.1399V43.8799C66.8 44.9999 65.85 45.9499 64.73 45.9499H59.7L59.65 46.1299C59.55 46.4799 59.43 46.8499 59.3 47.2299L59.18 47.5599H76.85V49.2499H58.47L58.4 49.3999C58.26 49.7099 58.11 50.0099 57.97 50.2999L57.89 50.4599L58.01 50.5899L61.38 54.1799C61.75 54.5499 61.94 55.1099 61.94 55.4799C61.94 56.0799 61.74 56.6299 61.38 56.9899L56.72 61.6599C56.4 62.1499 55.9 62.3899 55.24 62.3899C54.66 62.3899 54.33 62.1999 53.97 61.6599L53.95 61.6399L53.93 61.6199L50.35 58.2499L50.23 58.1399L50.08 58.1999L49.74 58.3499L49.6 58.4099L49.45 58.4799V66.4699C49.45 68.5199 51.12 70.1899 53.17 70.1899H69.32V71.8799H53.17C50.19 71.8799 47.76 69.4499 47.76 66.4699V59.2199L47.42 59.3599C46.84 59.5899 46.37 59.7499 45.9 59.8899L45.72 59.9399V65.1799C45.72 66.2599 44.85 67.0399 43.65 67.0399H36.91C35.71 67.0399 34.84 66.2599 34.84 65.1799V59.9399L34.66 59.8899C34.2 59.7599 33.71 59.5899 33.13 59.3599L32.79 59.2199V66.4799C32.79 69.4599 30.36 71.8899 27.38 71.8899H11.24V70.1999H27.39C29.44 70.1999 31.11 68.5299 31.11 66.4799V58.4899L30.96 58.4199L30.82 58.3599L30.49 58.2199L30.33 58.1499L30.21 58.2699L26.81 61.6799C26.49 62.1699 25.99 62.4099 25.33 62.4099C24.76 62.4099 24.42 62.2199 24.06 61.6799L24.04 61.6599L24.02 61.6399L19.18 57.0099C18.43 56.2599 18.43 54.9499 19.18 54.2099L22.76 50.6299L22.9 50.4899L22.79 50.3199C22.62 50.0599 22.44 49.7699 22.26 49.4299L22.19 49.2999H3.73999V47.6099H21.43L21.31 47.2799C21.18 46.9199 21.06 46.5499 20.96 46.1799L20.91 45.9999H15.88C14.76 45.9999 13.81 45.0499 13.81 43.9299V37.1899C13.81 36.3099 14.69 35.3299 15.88 35.3299H20.91L20.96 35.1499C21.08 34.7299 21.23 34.2799 21.43 33.7599L21.56 33.4199H3.73999V31.7299H22.39L22.46 31.6099L22.54 31.4699C22.63 31.3199 22.72 31.1599 22.81 31.0199L22.92 30.8499L22.78 30.7099L19.2 27.1299C18.45 26.3799 18.45 25.0699 19.2 24.3299L24.04 19.4899C24.44 19.0899 24.81 18.9299 25.34 18.9299C25.94 18.9299 26.49 19.1299 26.84 19.4799L30.21 23.0599L30.35 23.1999L30.52 23.0999C30.64 23.0299 30.75 22.9799 30.86 22.9199L31.04 22.8299L31.94 22.3599H31.11V14.1599C31.11 12.1099 29.44 10.4399 27.39 10.4399H11.24V8.74994H27.39C30.37 8.74994 32.8 11.1799 32.8 14.1599V22.0399L33.13 21.9199C33.64 21.7399 34.14 21.5799 34.67 21.4299L34.85 21.3799V16.1399C34.85 15.0199 35.8 14.0699 36.92 14.0699H43.66C44.78 14.0699 45.73 15.0199 45.73 16.1399V21.3799L45.91 21.4299C46.43 21.5799 46.93 21.7399 47.44 21.9099L47.77 22.0199V14.1399C47.77 11.1599 50.2 8.72994 53.18 8.72994H69.33M30.91 25.3399C30.67 25.4199 30.45 25.4499 30.25 25.4499C29.94 25.4499 29.7 25.3599 29.51 25.1699L25.51 21.1699L25.34 20.9999L25.16 21.1699L20.74 25.3799L20.55 25.5599L20.73 25.7399L24.73 29.7399C24.93 29.9399 25.34 30.4599 24.91 31.1199C23.9 32.7299 23.22 34.4299 22.78 36.4399C22.65 36.8399 22.36 37.3199 21.75 37.3199H15.81V43.9299H21.75C22.36 43.9299 22.64 44.4099 22.77 44.7899C23.22 46.8199 23.9 48.5199 24.91 50.1299L24.93 50.1499L24.95 50.1699C25.26 50.4799 25.06 50.9699 24.74 51.2899L20.74 55.2899L20.56 55.4699L20.74 55.6499L25.16 60.0699L25.34 60.2499L25.52 60.0699L29.52 56.0699C29.7 55.8899 29.95 55.7899 30.26 55.7899C30.46 55.7899 30.68 55.8299 30.92 55.8999C32.42 56.9699 34.36 57.8199 36.24 58.2299H36.27H36.3C36.89 58.2299 36.89 59.0199 36.89 59.0299V64.9699H43.71V59.0299C43.71 58.6999 44.06 58.2299 44.3 58.2299H44.35C46.17 57.8199 48.09 57.0099 49.88 55.8899C50.02 55.8199 50.2 55.7799 50.37 55.7799C50.56 55.7799 50.84 55.8299 51.07 56.0599L55.07 60.0599L55.25 60.2399L55.43 60.0599L59.85 55.6399L60.03 55.4599L59.85 55.2799L55.85 51.2799C55.53 50.9599 55.33 50.4699 55.64 50.1599L55.66 50.1399L55.68 50.1199C56.69 48.5099 57.37 46.8099 57.81 44.7999C57.94 44.3999 58.23 43.9199 58.84 43.9199H64.78V37.3099H58.84C58.23 37.3099 57.95 36.8299 57.82 36.4499C57.37 34.4199 56.69 32.7199 55.68 31.0999C55.25 30.4599 55.66 29.9299 55.86 29.7299L59.86 25.7299L60.04 25.5499L59.85 25.3699L55.43 21.1599L55.25 20.9899L55.08 21.1599L51.08 25.1599C50.85 25.3899 50.58 25.4399 50.38 25.4399C50.21 25.4399 50.03 25.3999 49.91 25.3399C48.11 24.2199 46.2 23.4099 44.39 22.9999C44.17 22.8799 43.71 22.5699 43.71 21.9699V16.0299H36.89V21.9699C36.89 22.5499 36.7 22.8399 36.24 22.9899C34.36 23.4099 32.42 24.2599 30.92 25.3199M69.58 8.43994H53.18C50.06 8.43994 47.52 10.9799 47.52 14.0999V21.6299C47.02 21.4599 46.51 21.2999 45.98 21.1399V16.0899C45.98 14.8299 44.93 13.7699 43.66 13.7699H36.92C35.66 13.7699 34.6 14.8199 34.6 16.0899V21.1399C34.06 21.2899 33.55 21.4599 33.05 21.6299V14.0999C33.05 10.9799 30.51 8.43994 27.39 8.43994H10.99V10.6299H27.39C29.3 10.6299 30.86 12.1899 30.86 14.0999V22.5499H30.92C30.75 22.6399 30.58 22.7199 30.39 22.8199L27.02 19.2399C26.6 18.8199 25.97 18.6099 25.34 18.6099C24.71 18.6099 24.29 18.8199 23.87 19.2399L19.03 24.0799C18.19 24.9199 18.19 26.3999 19.03 27.2399L22.61 30.8199C22.48 31.0099 22.36 31.2199 22.25 31.4299H3.48999V33.6199H21.19C21.01 34.0899 20.85 34.5599 20.71 35.0299H15.87C14.61 35.0299 13.55 36.0799 13.55 37.1399V43.8799C13.55 45.1399 14.6 46.1999 15.87 46.1999H20.71C20.82 46.5699 20.94 46.9399 21.07 47.3099H3.48999V49.4999H22.06C22.23 49.8099 22.41 50.1099 22.6 50.3999L19.02 53.9799C18.18 54.8199 18.18 56.2999 19.02 57.1399L23.86 61.7699C24.28 62.3999 24.7 62.6099 25.33 62.6099C25.96 62.6099 26.59 62.3999 27.01 61.7699L30.38 58.3999C30.54 58.4699 30.69 58.5399 30.85 58.6099V66.4399C30.85 68.3499 29.29 69.9099 27.38 69.9099H10.99V72.0999H27.39C30.51 72.0999 33.05 69.5599 33.05 66.4399V59.5499C33.55 59.7499 34.06 59.9299 34.6 60.0899V65.1399C34.6 66.3999 35.65 67.2499 36.92 67.2499H43.66C44.92 67.2499 45.98 66.4099 45.98 65.1399V60.0899C46.52 59.9399 47.02 59.7499 47.52 59.5499V66.4299C47.52 69.5499 50.06 72.0899 53.18 72.0899H69.58V69.8999H53.18C51.27 69.8999 49.71 68.3399 49.71 66.4299V58.6099C49.87 58.5399 50.02 58.4699 50.19 58.3999L53.77 61.7699C54.19 62.3999 54.61 62.6099 55.24 62.6099C55.87 62.6099 56.5 62.3999 56.92 61.7699L61.55 57.1399C61.97 56.7199 62.18 56.0899 62.18 55.4599C62.18 55.0399 61.97 54.4099 61.55 53.9899L58.18 50.4099C58.33 50.1199 58.47 49.8199 58.61 49.5099H77.08V47.3199H59.51C59.64 46.9499 59.76 46.5799 59.87 46.2099H64.71C65.97 46.2099 67.03 45.1599 67.03 43.8899V37.1499C67.03 36.0999 65.98 35.0399 64.71 35.0399H59.87C59.73 34.5699 59.57 34.0999 59.4 33.6299H77.08V31.4399H58.47C58.37 31.2399 58.28 31.0299 58.18 30.8299L61.55 27.2499C61.97 26.8299 62.18 26.1999 62.18 25.5699C62.18 24.9399 61.97 24.5199 61.55 24.0999L56.92 19.2599C56.5 18.8399 55.87 18.6299 55.24 18.6299C54.61 18.6299 54.19 18.8399 53.77 19.2599L50.19 22.8399C50.01 22.7399 49.84 22.6599 49.66 22.5699H49.71V14.1199C49.71 12.2099 51.27 10.6499 53.18 10.6499H69.58V8.45994V8.43994ZM30.26 25.7099C30.51 25.7099 30.77 25.6599 31.03 25.5699C32.5 24.5199 34.4 23.6699 36.29 23.2499C36.92 23.0399 37.13 22.6199 37.13 21.9899V16.2999H43.45V21.9899C43.45 22.6199 43.87 23.0399 44.29 23.2499C46.19 23.6699 48.08 24.5099 49.76 25.5699C49.93 25.6599 50.15 25.7099 50.36 25.7099C50.67 25.7099 50.99 25.6099 51.23 25.3599L55.23 21.3599L59.65 25.5699L55.65 29.5699C55.23 29.9899 55.02 30.6199 55.44 31.2499C56.49 32.9299 57.12 34.6199 57.55 36.5099C57.76 37.1399 58.18 37.5599 58.81 37.5599H64.5V43.6699H58.81C58.18 43.6699 57.76 44.0899 57.55 44.7199C57.13 46.6199 56.5 48.2999 55.44 49.9799C55.02 50.3999 55.23 51.0299 55.65 51.4499L59.65 55.4499L55.23 59.8699L51.23 55.8699C50.98 55.6199 50.66 55.5199 50.36 55.5199C50.14 55.5199 49.93 55.5699 49.76 55.6599C48.08 56.7099 46.18 57.5599 44.29 57.9799C43.87 57.9799 43.45 58.6099 43.45 59.0299V64.7199H37.13V59.0299C37.13 58.6099 36.92 57.9799 36.29 57.9799C34.39 57.5599 32.5 56.7199 31.03 55.6599C30.77 55.5699 30.51 55.5199 30.26 55.5199C29.91 55.5199 29.59 55.6199 29.35 55.8699L25.35 59.8699L20.93 55.4499L24.93 51.4499C25.35 51.0299 25.56 50.3999 25.14 49.9799C24.09 48.2999 23.46 46.6099 23.03 44.7199C22.82 44.0899 22.4 43.6699 21.77 43.6699H16.08V37.5599H21.77C22.4 37.5599 22.82 37.1399 23.03 36.5099C23.45 34.6099 24.08 32.9299 25.14 31.2499C25.56 30.6199 25.35 29.9899 24.93 29.5699L20.93 25.5699L25.35 21.3599L29.35 25.3599C29.6 25.6099 29.92 25.7099 30.26 25.7099Z" fill="url(#paint9_linear_1005_5967)"/>
<path d="M69.5801 12.7398C71.3474 12.7398 72.7801 11.3072 72.7801 9.53984C72.7801 7.77253 71.3474 6.33984 69.5801 6.33984C67.8128 6.33984 66.3801 7.77253 66.3801 9.53984C66.3801 11.3072 67.8128 12.7398 69.5801 12.7398Z" fill="url(#paint10_linear_1005_5967)"/>
<path d="M69.5801 6.58984C71.2101 6.58984 72.5301 7.90984 72.5301 9.53984C72.5301 11.1698 71.2101 12.4898 69.5801 12.4898C67.9501 12.4898 66.6301 11.1698 66.6301 9.53984C66.6301 7.90984 67.9501 6.58984 69.5801 6.58984ZM69.5801 6.33984C67.8101 6.33984 66.3801 7.76984 66.3801 9.53984C66.3801 11.3098 67.8101 12.7398 69.5801 12.7398C71.3501 12.7398 72.7801 11.3098 72.7801 9.53984C72.7801 7.76984 71.3501 6.33984 69.5801 6.33984Z" fill="url(#paint11_linear_1005_5967)"/>
<path d="M76.5101 35.1598C78.2774 35.1598 79.7101 33.7271 79.7101 31.9598C79.7101 30.1925 78.2774 28.7598 76.5101 28.7598C74.7428 28.7598 73.3101 30.1925 73.3101 31.9598C73.3101 33.7271 74.7428 35.1598 76.5101 35.1598Z" fill="url(#paint12_linear_1005_5967)"/>
<path d="M76.5101 29.0098C78.1401 29.0098 79.4601 30.3298 79.4601 31.9598C79.4601 33.5898 78.1401 34.9098 76.5101 34.9098C74.8801 34.9098 73.5601 33.5898 73.5601 31.9598C73.5601 30.3298 74.8801 29.0098 76.5101 29.0098ZM76.5101 28.7598C74.7401 28.7598 73.3101 30.1898 73.3101 31.9598C73.3101 33.7298 74.7401 35.1598 76.5101 35.1598C78.2801 35.1598 79.7101 33.7298 79.7101 31.9598C79.7101 30.1898 78.2801 28.7598 76.5101 28.7598Z" fill="url(#paint13_linear_1005_5967)"/>
<path d="M76.5101 51.0396C78.2774 51.0396 79.7101 49.607 79.7101 47.8396C79.7101 46.0723 78.2774 44.6396 76.5101 44.6396C74.7428 44.6396 73.3101 46.0723 73.3101 47.8396C73.3101 49.607 74.7428 51.0396 76.5101 51.0396Z" fill="url(#paint14_linear_1005_5967)"/>
<path d="M76.5101 44.8896C78.1401 44.8896 79.4601 46.2096 79.4601 47.8396C79.4601 49.4696 78.1401 50.7896 76.5101 50.7896C74.8801 50.7896 73.5601 49.4696 73.5601 47.8396C73.5601 46.2096 74.8801 44.8896 76.5101 44.8896ZM76.5101 44.6396C74.7401 44.6396 73.3101 46.0696 73.3101 47.8396C73.3101 49.6096 74.7401 51.0396 76.5101 51.0396C78.2801 51.0396 79.7101 49.6096 79.7101 47.8396C79.7101 46.0696 78.2801 44.6396 76.5101 44.6396Z" fill="url(#paint15_linear_1005_5967)"/>
<path d="M69.0101 73.0797C70.7774 73.0797 72.2101 71.647 72.2101 69.8797C72.2101 68.1124 70.7774 66.6797 69.0101 66.6797C67.2428 66.6797 65.8101 68.1124 65.8101 69.8797C65.8101 71.647 67.2428 73.0797 69.0101 73.0797Z" fill="url(#paint16_linear_1005_5967)"/>
<path d="M69.0101 66.9395C70.6401 66.9395 71.9601 68.2595 71.9601 69.8895C71.9601 71.5195 70.6401 72.8394 69.0101 72.8394C67.3801 72.8394 66.0601 71.5195 66.0601 69.8895C66.0601 68.2595 67.3801 66.9395 69.0101 66.9395ZM69.0101 66.6895C67.2401 66.6895 65.8101 68.1195 65.8101 69.8895C65.8101 71.6595 67.2401 73.0894 69.0101 73.0894C70.7801 73.0894 72.2101 71.6595 72.2101 69.8895C72.2101 68.1195 70.7801 66.6895 69.0101 66.6895Z" fill="url(#paint17_linear_1005_5967)"/>
<path d="M10.99 12.7398C12.7573 12.7398 14.19 11.3072 14.19 9.53984C14.19 7.77253 12.7573 6.33984 10.99 6.33984C9.22273 6.33984 7.79004 7.77253 7.79004 9.53984C7.79004 11.3072 9.22273 12.7398 10.99 12.7398Z" fill="url(#paint18_linear_1005_5967)"/>
<path d="M10.99 6.58984C12.62 6.58984 13.94 7.90984 13.94 9.53984C13.94 11.1698 12.62 12.4898 10.99 12.4898C9.36004 12.4898 8.04004 11.1698 8.04004 9.53984C8.04004 7.90984 9.36004 6.58984 10.99 6.58984ZM10.99 6.33984C9.22004 6.33984 7.79004 7.76984 7.79004 9.53984C7.79004 11.3098 9.22004 12.7398 10.99 12.7398C12.76 12.7398 14.19 11.3098 14.19 9.53984C14.19 7.76984 12.76 6.33984 10.99 6.33984Z" fill="url(#paint19_linear_1005_5967)"/>
<path d="M3.49004 35.7398C5.25735 35.7398 6.69004 34.3072 6.69004 32.5398C6.69004 30.7725 5.25735 29.3398 3.49004 29.3398C1.72273 29.3398 0.290039 30.7725 0.290039 32.5398C0.290039 34.3072 1.72273 35.7398 3.49004 35.7398Z" fill="url(#paint20_linear_1005_5967)"/>
<path d="M3.49004 29.5898C5.12004 29.5898 6.44004 30.9098 6.44004 32.5398C6.44004 34.1698 5.12004 35.4898 3.49004 35.4898C1.86004 35.4898 0.540039 34.1698 0.540039 32.5398C0.540039 30.9098 1.86004 29.5898 3.49004 29.5898ZM3.49004 29.3398C1.72004 29.3398 0.290039 30.7698 0.290039 32.5398C0.290039 34.3098 1.72004 35.7398 3.49004 35.7398C5.26004 35.7398 6.69004 34.3098 6.69004 32.5398C6.69004 30.7698 5.26004 29.3398 3.49004 29.3398Z" fill="url(#paint21_linear_1005_5967)"/>
<path d="M3.49004 51.6197C5.25735 51.6197 6.69004 50.187 6.69004 48.4197C6.69004 46.6524 5.25735 45.2197 3.49004 45.2197C1.72273 45.2197 0.290039 46.6524 0.290039 48.4197C0.290039 50.187 1.72273 51.6197 3.49004 51.6197Z" fill="url(#paint22_linear_1005_5967)"/>
<path d="M3.49004 45.4697C5.12004 45.4697 6.44004 46.7897 6.44004 48.4197C6.44004 50.0497 5.12004 51.3697 3.49004 51.3697C1.86004 51.3697 0.540039 50.0497 0.540039 48.4197C0.540039 46.7897 1.86004 45.4697 3.49004 45.4697ZM3.49004 45.2197C1.72004 45.2197 0.290039 46.6497 0.290039 48.4197C0.290039 50.1897 1.72004 51.6197 3.49004 51.6197C5.26004 51.6197 6.69004 50.1897 6.69004 48.4197C6.69004 46.6497 5.26004 45.2197 3.49004 45.2197Z" fill="url(#paint23_linear_1005_5967)"/>
<path d="M10.99 73.6598C12.7573 73.6598 14.19 72.2271 14.19 70.4598C14.19 68.6925 12.7573 67.2598 10.99 67.2598C9.22273 67.2598 7.79004 68.6925 7.79004 70.4598C7.79004 72.2271 9.22273 73.6598 10.99 73.6598Z" fill="url(#paint24_linear_1005_5967)"/>
<path d="M10.99 67.5098C12.62 67.5098 13.94 68.8298 13.94 70.4598C13.94 72.0898 12.62 73.4098 10.99 73.4098C9.36004 73.4098 8.04004 72.0898 8.04004 70.4598C8.04004 68.8298 9.36004 67.5098 10.99 67.5098ZM10.99 67.2598C9.22004 67.2598 7.79004 68.6898 7.79004 70.4598C7.79004 72.2298 9.22004 73.6598 10.99 73.6598C12.76 73.6598 14.19 72.2298 14.19 70.4598C14.19 68.6898 12.76 67.2598 10.99 67.2598Z" fill="url(#paint25_linear_1005_5967)"/>
<defs>
<radialGradient id="paint0_radial_1005_5967" cx="0" cy="0" r="1" gradientUnits="userSpaceOnUse" gradientTransform="translate(24.9046 18.1042) rotate(90) scale(0.6205 6.0809)">
<stop stop-color="white"/>
<stop offset="0.07" stop-color="white" stop-opacity="0.93"/>
<stop offset="1" stop-color="white" stop-opacity="0"/>
</radialGradient>
<radialGradient id="paint1_radial_1005_5967" cx="0" cy="0" r="1" gradientUnits="userSpaceOnUse" gradientTransform="translate(25.4626 18.862) scale(0.6935 5.9641)">
<stop stop-color="white"/>
<stop offset="0.07" stop-color="white" stop-opacity="0.93"/>
<stop offset="1" stop-color="white" stop-opacity="0"/>
</radialGradient>
<radialGradient id="paint2_radial_1005_5967" cx="0" cy="0" r="1" gradientUnits="userSpaceOnUse" gradientTransform="translate(61.4731 55.4108) rotate(90) scale(0.620501 6.0809)">
<stop stop-color="white"/>
<stop offset="0.07" stop-color="white" stop-opacity="0.93"/>
<stop offset="1" stop-color="white" stop-opacity="0"/>
</radialGradient>
<radialGradient id="paint3_radial_1005_5967" cx="0" cy="0" r="1" gradientUnits="userSpaceOnUse" gradientTransform="translate(61.8758 55.9539) scale(0.693501 5.9641)">
<stop stop-color="white"/>
<stop offset="0.07" stop-color="white" stop-opacity="0.93"/>
<stop offset="1" stop-color="white" stop-opacity="0"/>
</radialGradient>
<linearGradient id="paint4_linear_1005_5967" x1="40.7303" y1="38.4598" x2="40.7303" y2="52.0498" gradientUnits="userSpaceOnUse">
<stop stop-color="#F0EFEF" stop-opacity="0"/>
<stop offset="0.61" stop-color="#FAFBFC" stop-opacity="0.4"/>
<stop offset="0.85" stop-color="white" stop-opacity="0.5"/>
<stop offset="1" stop-color="white" stop-opacity="0.9"/>
</linearGradient>
<linearGradient id="paint5_linear_1005_5967" x1="46.7403" y1="36.7498" x2="36.5803" y2="56.4798" gradientUnits="userSpaceOnUse">
<stop stop-color="#79A540"/>
<stop offset="0.2" stop-color="#94C63D"/>
<stop offset="0.39" stop-color="#98CA3C"/>
<stop offset="0.59" stop-color="#93C53E"/>
<stop offset="0.74" stop-color="#9DCB3B"/>
<stop offset="0.9" stop-color="#A6CE39"/>
<stop offset="1" stop-color="#A6CE39"/>
</linearGradient>
<linearGradient id="paint6_linear_1005_5967" x1="28.0202" y1="34.4999" x2="51.5002" y2="34.4999" gradientUnits="userSpaceOnUse">
<stop stop-color="#F0EFEF" stop-opacity="0"/>
<stop offset="0.61" stop-color="#FAFBFC" stop-opacity="0.4"/>
<stop offset="0.85" stop-color="white" stop-opacity="0.5"/>
<stop offset="1" stop-color="white" stop-opacity="0.9"/>
</linearGradient>
<linearGradient id="paint7_linear_1005_5967" x1="28.1502" y1="34.4999" x2="51.3802" y2="34.4999" gradientUnits="userSpaceOnUse">
<stop stop-color="#79A540"/>
<stop offset="0.2" stop-color="#94C63D"/>
<stop offset="0.39" stop-color="#98CA3C"/>
<stop offset="0.59" stop-color="#93C53E"/>
<stop offset="0.74" stop-color="#9DCB3B"/>
<stop offset="0.9" stop-color="#A6CE39"/>
<stop offset="1" stop-color="#A6CE39"/>
</linearGradient>
<linearGradient id="paint8_linear_1005_5967" x1="61.4" y1="76.84" x2="19.18" y2="3.71996" gradientUnits="userSpaceOnUse">
<stop stop-color="white" stop-opacity="0.9"/>
<stop offset="0.04" stop-color="white" stop-opacity="0.85"/>
<stop offset="0.28" stop-color="white" stop-opacity="0.5"/>
<stop offset="0.65" stop-color="#FAFBFC" stop-opacity="0.4"/>
<stop offset="1" stop-color="#F0EFEF" stop-opacity="0"/>
</linearGradient>
<linearGradient id="paint9_linear_1005_5967" x1="3.48999" y1="40.2799" x2="77.09" y2="40.2799" gradientUnits="userSpaceOnUse">
<stop stop-color="#F0EFEF" stop-opacity="0"/>
<stop offset="0.61" stop-color="#FAFBFC" stop-opacity="0.4"/>
<stop offset="0.85" stop-color="white" stop-opacity="0.5"/>
<stop offset="1" stop-color="white" stop-opacity="0.9"/>
</linearGradient>
<linearGradient id="paint10_linear_1005_5967" x1="66.3901" y1="9.53984" x2="72.7801" y2="9.53984" gradientUnits="userSpaceOnUse">
<stop stop-color="#79A540"/>
<stop offset="0.2" stop-color="#94C63D"/>
<stop offset="0.39" stop-color="#98CA3C"/>
<stop offset="0.59" stop-color="#93C53E"/>
<stop offset="0.74" stop-color="#9DCB3B"/>
<stop offset="0.9" stop-color="#A6CE39"/>
<stop offset="1" stop-color="#A6CE39"/>
</linearGradient>
<linearGradient id="paint11_linear_1005_5967" x1="66.3901" y1="9.53984" x2="72.7801" y2="9.53984" gradientUnits="userSpaceOnUse">
<stop stop-color="#F0EFEF" stop-opacity="0"/>
<stop offset="0.61" stop-color="#FAFBFC" stop-opacity="0.4"/>
<stop offset="0.85" stop-color="white" stop-opacity="0.5"/>
<stop offset="1" stop-color="white" stop-opacity="0.9"/>
</linearGradient>
<linearGradient id="paint12_linear_1005_5967" x1="73.3201" y1="31.9598" x2="79.7101" y2="31.9598" gradientUnits="userSpaceOnUse">
<stop stop-color="#79A540"/>
<stop offset="0.2" stop-color="#94C63D"/>
<stop offset="0.39" stop-color="#98CA3C"/>
<stop offset="0.59" stop-color="#93C53E"/>
<stop offset="0.74" stop-color="#9DCB3B"/>
<stop offset="0.9" stop-color="#A6CE39"/>
<stop offset="1" stop-color="#A6CE39"/>
</linearGradient>
<linearGradient id="paint13_linear_1005_5967" x1="73.3201" y1="31.9598" x2="79.7101" y2="31.9598" gradientUnits="userSpaceOnUse">
<stop stop-color="#F0EFEF" stop-opacity="0"/>
<stop offset="0.61" stop-color="#FAFBFC" stop-opacity="0.4"/>
<stop offset="0.85" stop-color="white" stop-opacity="0.5"/>
<stop offset="1" stop-color="white" stop-opacity="0.9"/>
</linearGradient>
<linearGradient id="paint14_linear_1005_5967" x1="73.3201" y1="47.8396" x2="79.7101" y2="47.8396" gradientUnits="userSpaceOnUse">
<stop stop-color="#79A540"/>
<stop offset="0.2" stop-color="#94C63D"/>
<stop offset="0.39" stop-color="#98CA3C"/>
<stop offset="0.59" stop-color="#93C53E"/>
<stop offset="0.74" stop-color="#9DCB3B"/>
<stop offset="0.9" stop-color="#A6CE39"/>
<stop offset="1" stop-color="#A6CE39"/>
</linearGradient>
<linearGradient id="paint15_linear_1005_5967" x1="73.3201" y1="47.8396" x2="79.7101" y2="47.8396" gradientUnits="userSpaceOnUse">
<stop stop-color="#F0EFEF" stop-opacity="0"/>
<stop offset="0.61" stop-color="#FAFBFC" stop-opacity="0.4"/>
<stop offset="0.85" stop-color="white" stop-opacity="0.5"/>
<stop offset="1" stop-color="white" stop-opacity="0.9"/>
</linearGradient>
<linearGradient id="paint16_linear_1005_5967" x1="65.8101" y1="69.8797" x2="72.2101" y2="69.8797" gradientUnits="userSpaceOnUse">
<stop stop-color="#79A540"/>
<stop offset="0.2" stop-color="#94C63D"/>
<stop offset="0.39" stop-color="#98CA3C"/>
<stop offset="0.59" stop-color="#93C53E"/>
<stop offset="0.74" stop-color="#9DCB3B"/>
<stop offset="0.9" stop-color="#A6CE39"/>
<stop offset="1" stop-color="#A6CE39"/>
</linearGradient>
<linearGradient id="paint17_linear_1005_5967" x1="65.8101" y1="69.8795" x2="72.2101" y2="69.8795" gradientUnits="userSpaceOnUse">
<stop stop-color="#F0EFEF" stop-opacity="0"/>
<stop offset="0.61" stop-color="#FAFBFC" stop-opacity="0.4"/>
<stop offset="0.85" stop-color="white" stop-opacity="0.5"/>
<stop offset="1" stop-color="white" stop-opacity="0.9"/>
</linearGradient>
<linearGradient id="paint18_linear_1005_5967" x1="14.19" y1="9.53984" x2="7.80004" y2="9.53984" gradientUnits="userSpaceOnUse">
<stop stop-color="#79A540"/>
<stop offset="0.2" stop-color="#94C63D"/>
<stop offset="0.39" stop-color="#98CA3C"/>
<stop offset="0.59" stop-color="#93C53E"/>
<stop offset="0.74" stop-color="#9DCB3B"/>
<stop offset="0.9" stop-color="#A6CE39"/>
<stop offset="1" stop-color="#A6CE39"/>
</linearGradient>
<linearGradient id="paint19_linear_1005_5967" x1="14.19" y1="9.53984" x2="7.79004" y2="9.53984" gradientUnits="userSpaceOnUse">
<stop stop-color="#F0EFEF" stop-opacity="0"/>
<stop offset="0.61" stop-color="#FAFBFC" stop-opacity="0.4"/>
<stop offset="0.85" stop-color="white" stop-opacity="0.5"/>
<stop offset="1" stop-color="white" stop-opacity="0.9"/>
</linearGradient>
<linearGradient id="paint20_linear_1005_5967" x1="6.69004" y1="32.5398" x2="0.290039" y2="32.5398" gradientUnits="userSpaceOnUse">
<stop stop-color="#79A540"/>
<stop offset="0.2" stop-color="#94C63D"/>
<stop offset="0.39" stop-color="#98CA3C"/>
<stop offset="0.59" stop-color="#93C53E"/>
<stop offset="0.74" stop-color="#9DCB3B"/>
<stop offset="0.9" stop-color="#A6CE39"/>
<stop offset="1" stop-color="#A6CE39"/>
</linearGradient>
<linearGradient id="paint21_linear_1005_5967" x1="6.68004" y1="32.5398" x2="0.290039" y2="32.5398" gradientUnits="userSpaceOnUse">
<stop stop-color="#F0EFEF" stop-opacity="0"/>
<stop offset="0.61" stop-color="#FAFBFC" stop-opacity="0.4"/>
<stop offset="0.85" stop-color="white" stop-opacity="0.5"/>
<stop offset="1" stop-color="white" stop-opacity="0.9"/>
</linearGradient>
<linearGradient id="paint22_linear_1005_5967" x1="6.69004" y1="48.4197" x2="0.290039" y2="48.4197" gradientUnits="userSpaceOnUse">
<stop stop-color="#79A540"/>
<stop offset="0.2" stop-color="#94C63D"/>
<stop offset="0.39" stop-color="#98CA3C"/>
<stop offset="0.59" stop-color="#93C53E"/>
<stop offset="0.74" stop-color="#9DCB3B"/>
<stop offset="0.9" stop-color="#A6CE39"/>
<stop offset="1" stop-color="#A6CE39"/>
</linearGradient>
<linearGradient id="paint23_linear_1005_5967" x1="6.68004" y1="48.4197" x2="0.290039" y2="48.4197" gradientUnits="userSpaceOnUse">
<stop stop-color="#F0EFEF" stop-opacity="0"/>
<stop offset="0.61" stop-color="#FAFBFC" stop-opacity="0.4"/>
<stop offset="0.85" stop-color="white" stop-opacity="0.5"/>
<stop offset="1" stop-color="white" stop-opacity="0.9"/>
</linearGradient>
<linearGradient id="paint24_linear_1005_5967" x1="14.19" y1="70.4598" x2="7.80004" y2="70.4598" gradientUnits="userSpaceOnUse">
<stop stop-color="#79A540"/>
<stop offset="0.2" stop-color="#94C63D"/>
<stop offset="0.39" stop-color="#98CA3C"/>
<stop offset="0.59" stop-color="#93C53E"/>
<stop offset="0.74" stop-color="#9DCB3B"/>
<stop offset="0.9" stop-color="#A6CE39"/>
<stop offset="1" stop-color="#A6CE39"/>
</linearGradient>
<linearGradient id="paint25_linear_1005_5967" x1="14.19" y1="70.4598" x2="7.79004" y2="70.4598" gradientUnits="userSpaceOnUse">
<stop stop-color="#F0EFEF" stop-opacity="0"/>
<stop offset="0.61" stop-color="#FAFBFC" stop-opacity="0.4"/>
<stop offset="0.85" stop-color="white" stop-opacity="0.5"/>
<stop offset="1" stop-color="white" stop-opacity="0.9"/>
</linearGradient>
</defs>
</svg>
