<svg width="80" height="80" viewBox="0 0 80 80" fill="none" xmlns="http://www.w3.org/2000/svg">
<g clip-path="url(#clip0_1005_6010)">
<path d="M25.3 11.5004C28.37 11.5004 30.86 11.2404 30.86 10.9304C30.86 10.6204 28.38 10.3604 25.3 10.3604C22.22 10.3604 19.74 10.6204 19.74 10.9304C19.74 11.2404 22.23 11.5004 25.3 11.5004Z" fill="url(#paint0_radial_1005_6010)"/>
<path d="M25.9299 10.9202C25.9299 13.9302 25.6499 16.3702 25.2899 16.3702C24.9299 16.3702 24.6499 13.9302 24.6499 10.9202C24.6499 7.91022 24.9299 5.47021 25.2899 5.47021C25.6499 5.47021 25.9299 7.91022 25.9299 10.9202Z" fill="url(#paint1_radial_1005_6010)"/>
<path d="M60.59 27.1498C63.66 27.1498 66.15 26.8898 66.15 26.5798C66.15 26.2698 63.67 26.0098 60.59 26.0098C57.51 26.0098 55.03 26.2698 55.03 26.5798C55.03 26.8898 57.52 27.1498 60.59 27.1498Z" fill="url(#paint2_radial_1005_6010)"/>
<path d="M61.2299 26.5799C61.2299 29.5899 60.95 32.0299 60.59 32.0299C60.23 32.0299 59.95 29.5899 59.95 26.5799C59.95 23.5699 60.23 21.1299 60.59 21.1299C60.95 21.1299 61.2299 23.5699 61.2299 26.5799Z" fill="url(#paint3_radial_1005_6010)"/>
<path d="M22.1601 26.4099C22.3101 26.5299 22.4301 26.6699 22.5201 26.8299C22.6101 26.9899 22.6701 27.1699 22.6801 27.3599C22.7001 27.5499 22.6801 27.7299 22.6301 27.9099C22.5801 28.0899 22.4901 28.2499 22.3701 28.3999C22.2501 28.5399 22.1001 28.6599 21.9401 28.7499C21.7701 28.8399 21.5901 28.8899 21.4101 28.8999C21.2201 28.9099 21.0401 28.8999 20.8601 28.8299C20.6801 28.7699 20.5201 28.6799 20.3801 28.5499C19.7501 28.0299 19.1901 27.4299 18.7101 26.7599C17.4501 25.0099 16.7701 22.9199 16.7501 20.7699C16.7101 18.5899 17.4501 16.4599 18.8401 14.7699C19.3201 14.1899 19.8701 13.6799 20.4801 13.2399C21.2601 12.6899 22.1001 12.2399 22.9901 11.8999C23.6701 11.6399 24.3601 11.4299 25.0701 11.2599C25.9001 7.94993 27.6801 5.39993 29.9601 3.63993C32.0901 2.00993 34.6401 1.00993 37.3101 0.769932C39.9801 0.509932 42.6601 0.979933 45.0801 2.12993C47.8901 3.47993 50.1701 5.71993 51.5601 8.50993C52.1601 8.40993 52.7701 8.36993 53.3701 8.37993C55.9201 8.39993 58.3701 9.30993 60.2901 11.3899C60.7101 11.8499 61.1001 12.3399 61.4301 12.8599C62.6401 14.7199 63.2601 17.2099 63.2401 19.6399C63.2101 22.0299 62.5701 24.3999 61.2501 26.1599C61.1401 26.3099 61.0001 26.4299 60.8501 26.5199C60.6901 26.6099 60.5201 26.6699 60.3401 26.6999C60.1601 26.7299 59.9801 26.7199 59.8001 26.6699C59.6201 26.6199 59.4601 26.5399 59.3101 26.4399C59.1601 26.3299 59.0401 26.1899 58.9501 26.0399C58.8601 25.8799 58.8001 25.7099 58.7701 25.5299C58.7401 25.3499 58.7501 25.1699 58.8001 24.9899C58.8501 24.8099 58.9301 24.6499 59.0301 24.4999C59.9801 23.2399 60.4401 21.4599 60.4601 19.6299C60.4801 17.7099 60.0101 15.7799 59.1001 14.3799C58.8501 13.9899 58.5601 13.6299 58.2501 13.2899C57.6301 12.6099 56.8701 12.0699 56.0301 11.7099C55.1901 11.3399 54.2701 11.1599 53.3501 11.1699C51.9901 11.1799 50.6501 11.4799 49.4101 12.0399C49.1301 12.1799 48.8401 12.3299 48.5601 12.4999C47.6701 13.0399 46.8201 13.6399 46.0101 14.3099L44.1801 12.2099C44.8101 11.6199 45.5001 11.0899 46.2201 10.6199C46.8001 10.2399 47.4001 9.90993 48.0201 9.61993C48.2701 9.49993 48.5201 9.37993 48.7801 9.26993C47.6601 7.25993 45.9401 5.64993 43.8701 4.64993C41.9001 3.71993 39.7201 3.33993 37.5601 3.54993C35.4101 3.74993 33.3601 4.54993 31.6501 5.85993C29.6701 7.39993 28.1701 9.68993 27.5901 12.7299L27.4101 13.6799L26.4601 13.8499C25.6101 13.9899 24.7801 14.2099 23.9801 14.5199C23.3101 14.7699 22.6801 15.1099 22.1001 15.5299C21.6801 15.8299 21.3001 16.1899 20.9601 16.5899C19.9901 17.7699 19.4801 19.2599 19.5101 20.7899C19.5101 21.8699 19.7501 22.9299 20.2001 23.9099C20.6601 24.8899 21.3201 25.7499 22.1501 26.4399L22.1601 26.4099Z" fill="url(#paint4_linear_1005_6010)"/>
<path d="M40.9799 45.9699V40.2099C45.8299 39.9099 49.4999 37.3399 49.4999 34.1199V20.2399C49.4999 16.8099 45.3299 14.1299 40.0099 14.1299C34.6899 14.1299 30.4999 16.8099 30.4999 20.2399V34.1199C30.4999 37.3399 34.1699 39.9099 39.0299 40.2099V45.9699H11.7399C11.1099 45.9699 10.5999 46.4799 10.5999 47.1099C10.5999 47.1099 10.5999 53.3598 10.5999 54.1799C10.5999 55 12.5499 55 12.5499 54.1799C12.5499 53.3598 12.5499 48.4399 12.5499 48.4399C12.5499 48.1499 12.7799 47.9199 13.0699 47.9199H39.0299V54.0099H40.9799V47.9199H66.9299C67.2199 47.9199 67.4499 48.1499 67.4499 48.4399V54.1799H69.3999V47.1099C69.3999 46.4799 68.8899 45.9699 68.2599 45.9699H40.9799ZM32.4499 20.2399C32.4499 17.9899 35.9099 16.0799 40.0099 16.0799C44.1099 16.0799 47.5499 17.9899 47.5499 20.2399V20.2699C47.5499 20.5199 47.4999 20.7699 47.4199 20.9999C47.2199 21.5699 46.8099 22.0999 46.2299 22.5599C45.5699 23.0899 44.7099 23.5399 43.6999 23.8499C42.5999 24.2099 41.3399 24.4199 40.0099 24.4199C38.6799 24.4199 37.3999 24.2099 36.2999 23.8499C35.2899 23.5399 34.4299 23.0899 33.7699 22.5599C33.1899 22.0999 32.7799 21.5699 32.5799 20.9999C32.4999 20.7699 32.4499 20.5299 32.4499 20.2799V20.2399ZM32.4499 24.8399C32.4499 24.5899 32.4999 24.3499 32.5799 24.1099C32.9199 24.3899 33.3199 24.6399 33.7199 24.8799C34.4899 25.2999 35.3499 25.6499 36.2999 25.8999C37.4299 26.1999 38.6799 26.3699 40.0099 26.3699C41.3399 26.3699 42.5699 26.1999 43.6999 25.8999C44.6499 25.6499 45.5199 25.2999 46.2799 24.8799C46.6999 24.6399 47.0799 24.3899 47.4199 24.1099C47.4999 24.3499 47.5499 24.5899 47.5499 24.8499V24.8999C47.5499 25.1499 47.4999 25.3899 47.4299 25.6299C47.2299 26.1899 46.8099 26.7199 46.2399 27.1899C45.5799 27.7099 44.7199 28.1599 43.6999 28.4699C42.5999 28.8299 41.3399 29.0399 40.0099 29.0399C38.6799 29.0399 37.3999 28.8299 36.2999 28.4699C35.2899 28.1599 34.4199 27.7099 33.7599 27.1899C33.1899 26.7199 32.7699 26.1899 32.5699 25.6299C32.4999 25.3899 32.4599 25.1499 32.4499 24.9099V24.8399ZM32.4499 29.4599C32.4499 29.2099 32.4999 28.9699 32.5799 28.7399C32.9199 29.0099 33.3199 29.2699 33.7199 29.4999C34.4899 29.9299 35.3499 30.2699 36.2999 30.5199C37.4299 30.8199 38.6799 30.9899 40.0099 30.9899C41.3399 30.9899 42.5699 30.8199 43.6999 30.5199C44.6499 30.2699 45.5199 29.9299 46.2799 29.4999C46.6999 29.2699 47.0799 29.0099 47.4199 28.7399C47.4999 28.9699 47.5499 29.2199 47.5499 29.4699V29.5299C47.5499 29.7699 47.4999 30.0099 47.4299 30.2499C47.2299 30.8099 46.8099 31.3399 46.2399 31.8099C44.8699 32.9199 42.5599 33.6599 40.0099 33.6599C37.4599 33.6599 35.1299 32.9199 33.7599 31.8099C33.1899 31.3399 32.7699 30.8099 32.5699 30.2499C32.4999 30.0199 32.4599 29.7799 32.4499 29.5399V29.4599ZM40.0099 38.2899C35.9099 38.2899 32.4499 36.3799 32.4499 34.1199V34.0799C32.4599 33.8399 32.4999 33.5999 32.5699 33.3699C34.2999 34.7399 36.9599 35.6099 40.0099 35.6099C43.0599 35.6099 45.6999 34.7399 47.4299 33.3699C47.4999 33.5999 47.5499 33.8499 47.5499 34.0899V34.1199C47.5499 35.2499 46.6799 36.2899 45.3099 37.0499C43.9399 37.8099 42.0499 38.2899 40.0099 38.2899Z" fill="url(#paint5_linear_1005_6010)"/>
<path d="M40 67.9498C42.18 67.9498 43.96 66.1698 43.96 63.9898C43.96 61.8098 42.18 60.0298 40 60.0298C37.82 60.0298 36.04 61.8098 36.04 63.9898C36.04 66.1698 37.82 67.9498 40 67.9498ZM40 61.7598C41.23 61.7598 42.23 62.7598 42.23 63.9898C42.23 65.2198 41.23 66.2198 40 66.2198C38.77 66.2198 37.77 65.2198 37.77 63.9898C37.77 62.7598 38.77 61.7598 40 61.7598Z" stroke="url(#paint6_linear_1005_6010)" stroke-width="0.5"/>
<path d="M49.5399 74.4999C50.8499 72.5799 51.5699 70.2899 51.5699 67.9599C51.5699 61.5799 46.3799 56.3799 39.9999 56.3799C33.6199 56.3799 28.4199 61.5699 28.4199 67.9599C28.4199 70.2999 29.1399 72.5899 30.4499 74.5099L30.4299 74.5399L30.8899 75.1299C33.1099 77.9399 36.4299 79.5499 39.9899 79.5499C40.4399 79.5499 40.8799 79.5199 41.3099 79.4799C44.3599 79.1299 47.1399 77.5899 49.0799 75.1399L49.5399 74.5599L49.5199 74.5299L49.5399 74.4999ZM39.9999 58.3299C45.2999 58.3299 49.6199 62.6499 49.6199 67.9599C49.6199 69.6999 49.1399 71.4099 48.2499 72.8899C46.0999 70.5799 43.1599 69.2799 39.9999 69.2799C36.8399 69.2799 33.8899 70.5799 31.7399 72.8899C30.8499 71.4099 30.3799 69.7299 30.3799 67.9499C30.3799 62.6399 34.6999 58.3199 40.0099 58.3199L39.9999 58.3299ZM38.9499 77.5199C38.8299 77.5099 38.7199 77.4799 38.6099 77.4699C38.3799 77.4399 38.1499 77.3999 37.9199 77.3499C37.7899 77.3199 37.6599 77.2799 37.5299 77.2499C37.3299 77.1999 37.1199 77.1399 36.9299 77.0699C36.7899 77.0199 36.6599 76.9699 36.5299 76.9199C36.3399 76.8499 36.1599 76.7699 35.9699 76.6899C35.8399 76.6299 35.6999 76.5599 35.5699 76.4899C35.3999 76.3999 35.2199 76.2999 35.0499 76.1999C34.9199 76.1199 34.7999 76.0399 34.6699 75.9599C34.5099 75.8499 34.3499 75.7399 34.1899 75.6199C34.0699 75.5299 33.9499 75.4399 33.8399 75.3399C33.6899 75.2099 33.5399 75.0799 33.3899 74.9399C33.2799 74.8399 33.1699 74.7299 33.0699 74.6299C33.0299 74.5899 32.9899 74.5399 32.9499 74.4899C34.7499 72.4199 37.2799 71.2399 40.0099 71.2399C42.7399 71.2399 45.2699 72.4099 47.0599 74.4899C47.0199 74.5399 46.9799 74.5899 46.9399 74.6299C46.8399 74.7299 46.7399 74.8299 46.6299 74.9299C46.4799 75.0699 46.3299 75.2099 46.1699 75.3399C46.0599 75.4399 45.9399 75.5299 45.8199 75.6199C45.6599 75.7399 45.4999 75.8599 45.3299 75.9699C45.2099 76.0499 45.0799 76.1299 44.9499 76.2099C44.7799 76.3099 44.6099 76.4099 44.4299 76.4999C44.2999 76.5699 44.1699 76.6399 44.0299 76.6999C43.8499 76.7799 43.6599 76.8599 43.4799 76.9299C43.3499 76.9799 43.2099 77.0399 43.0699 77.0799C42.8699 77.1499 42.6699 77.1999 42.4699 77.2499C42.3399 77.2899 42.2099 77.3299 42.0699 77.3499C41.8399 77.3999 41.6099 77.4299 41.3799 77.4699C41.2699 77.4899 41.1499 77.5099 41.0399 77.5199C40.6899 77.5599 40.3399 77.5799 39.9899 77.5799C39.6399 77.5799 39.2799 77.5599 38.9299 77.5199H38.9499Z" stroke="url(#paint7_linear_1005_6010)" stroke-width="0.5"/>
<path d="M40 67.9498C42.18 67.9498 43.96 66.1698 43.96 63.9898C43.96 61.8098 42.18 60.0298 40 60.0298C37.82 60.0298 36.04 61.8098 36.04 63.9898C36.04 66.1698 37.82 67.9498 40 67.9498ZM40 61.7598C41.23 61.7598 42.23 62.7598 42.23 63.9898C42.23 65.2198 41.23 66.2198 40 66.2198C38.77 66.2198 37.77 65.2198 37.77 63.9898C37.77 62.7598 38.77 61.7598 40 61.7598Z" fill="url(#paint8_linear_1005_6010)"/>
<path d="M49.5399 74.4999C50.8499 72.5799 51.5699 70.2899 51.5699 67.9599C51.5699 61.5799 46.3799 56.3799 39.9999 56.3799C33.6199 56.3799 28.4199 61.5699 28.4199 67.9599C28.4199 70.2999 29.1399 72.5899 30.4499 74.5099L30.4299 74.5399L30.8899 75.1299C33.1099 77.9399 36.4299 79.5499 39.9899 79.5499C40.4399 79.5499 40.8799 79.5199 41.3099 79.4799C44.3599 79.1299 47.1399 77.5899 49.0799 75.1399L49.5399 74.5599L49.5199 74.5299L49.5399 74.4999ZM39.9999 58.3299C45.2999 58.3299 49.6199 62.6499 49.6199 67.9599C49.6199 69.6999 49.1399 71.4099 48.2499 72.8899C46.0999 70.5799 43.1599 69.2799 39.9999 69.2799C36.8399 69.2799 33.8899 70.5799 31.7399 72.8899C30.8499 71.4099 30.3799 69.7299 30.3799 67.9499C30.3799 62.6399 34.6999 58.3199 40.0099 58.3199L39.9999 58.3299ZM38.9499 77.5199C38.8299 77.5099 38.7199 77.4799 38.6099 77.4699C38.3799 77.4399 38.1499 77.3999 37.9199 77.3499C37.7899 77.3199 37.6599 77.2799 37.5299 77.2499C37.3299 77.1999 37.1199 77.1399 36.9299 77.0699C36.7899 77.0199 36.6599 76.9699 36.5299 76.9199C36.3399 76.8499 36.1599 76.7699 35.9699 76.6899C35.8399 76.6299 35.6999 76.5599 35.5699 76.4899C35.3999 76.3999 35.2199 76.2999 35.0499 76.1999C34.9199 76.1199 34.7999 76.0399 34.6699 75.9599C34.5099 75.8499 34.3499 75.7399 34.1899 75.6199C34.0699 75.5299 33.9499 75.4399 33.8399 75.3399C33.6899 75.2099 33.5399 75.0799 33.3899 74.9399C33.2799 74.8399 33.1699 74.7299 33.0699 74.6299C33.0299 74.5899 32.9899 74.5399 32.9499 74.4899C34.7499 72.4199 37.2799 71.2399 40.0099 71.2399C42.7399 71.2399 45.2699 72.4099 47.0599 74.4899C47.0199 74.5399 46.9799 74.5899 46.9399 74.6299C46.8399 74.7299 46.7399 74.8299 46.6299 74.9299C46.4799 75.0699 46.3299 75.2099 46.1699 75.3399C46.0599 75.4399 45.9399 75.5299 45.8199 75.6199C45.6599 75.7399 45.4999 75.8599 45.3299 75.9699C45.2099 76.0499 45.0799 76.1299 44.9499 76.2099C44.7799 76.3099 44.6099 76.4099 44.4299 76.4999C44.2999 76.5699 44.1699 76.6399 44.0299 76.6999C43.8499 76.7799 43.6599 76.8599 43.4799 76.9299C43.3499 76.9799 43.2099 77.0399 43.0699 77.0799C42.8699 77.1499 42.6699 77.1999 42.4699 77.2499C42.3399 77.2899 42.2099 77.3299 42.0699 77.3499C41.8399 77.3999 41.6099 77.4299 41.3799 77.4699C41.2699 77.4899 41.1499 77.5099 41.0399 77.5199C40.6899 77.5599 40.3399 77.5799 39.9899 77.5799C39.6399 77.5799 39.2799 77.5599 38.9299 77.5199H38.9499Z" fill="url(#paint9_linear_1005_6010)"/>
<path d="M11.8401 67.9498C14.0201 67.9498 15.8001 66.1698 15.8001 63.9898C15.8001 61.8098 14.0201 60.0298 11.8401 60.0298C9.66013 60.0298 7.88013 61.8098 7.88013 63.9898C7.88013 66.1698 9.66013 67.9498 11.8401 67.9498ZM11.8401 61.7598C13.0701 61.7598 14.0701 62.7598 14.0701 63.9898C14.0701 65.2198 13.0701 66.2198 11.8401 66.2198C10.6101 66.2198 9.61013 65.2198 9.61013 63.9898C9.61013 62.7598 10.6101 61.7598 11.8401 61.7598Z" stroke="url(#paint10_linear_1005_6010)" stroke-width="0.5"/>
<path d="M21.38 74.4999C22.69 72.5799 23.41 70.2899 23.41 67.9599C23.41 61.5799 18.22 56.3799 11.84 56.3799C5.46002 56.3799 0.27002 61.5699 0.27002 67.9499C0.27002 70.2899 0.99002 72.5799 2.30002 74.4999L2.28002 74.5299L2.74002 75.1199C4.96002 77.9299 8.28002 79.5399 11.84 79.5399C12.29 79.5399 12.73 79.5099 13.16 79.4699C16.21 79.1199 18.99 77.5799 20.93 75.1299L21.39 74.5499L21.37 74.5199L21.38 74.4999ZM11.85 58.3299C17.15 58.3299 21.47 62.6499 21.47 67.9599C21.47 69.6999 20.99 71.4099 20.1 72.8899C17.95 70.5799 15.01 69.2799 11.85 69.2799C8.69002 69.2799 5.74002 70.5799 3.59002 72.8899C2.70002 71.4099 2.23002 69.7299 2.23002 67.9499C2.23002 62.6399 6.55002 58.3199 11.86 58.3199L11.85 58.3299ZM10.79 77.5199C10.67 77.5099 10.56 77.4799 10.45 77.4699C10.22 77.4399 9.99002 77.3999 9.76002 77.3499C9.63002 77.3199 9.50002 77.2799 9.37002 77.2499C9.17002 77.1999 8.96002 77.1399 8.77002 77.0699C8.63002 77.0199 8.50002 76.9699 8.37002 76.9199C8.18002 76.8499 8.00002 76.7699 7.81002 76.6899C7.68002 76.6299 7.54002 76.5599 7.41002 76.4899C7.24002 76.3999 7.06002 76.2999 6.89002 76.1999C6.76002 76.1199 6.64002 76.0399 6.51002 75.9599C6.35002 75.8499 6.19002 75.7399 6.03002 75.6199C5.91002 75.5299 5.79002 75.4399 5.68002 75.3399C5.53002 75.2099 5.38002 75.0799 5.23002 74.9399C5.12002 74.8399 5.01002 74.7299 4.91002 74.6299C4.87002 74.5899 4.83002 74.5399 4.79002 74.4899C6.59002 72.4199 9.12002 71.2399 11.85 71.2399C14.58 71.2399 17.11 72.4099 18.9 74.4899C18.86 74.5399 18.82 74.5899 18.78 74.6299C18.68 74.7299 18.58 74.8299 18.47 74.9299C18.32 75.0699 18.17 75.2099 18.01 75.3399C17.9 75.4399 17.78 75.5299 17.66 75.6199C17.5 75.7399 17.34 75.8599 17.17 75.9699C17.05 76.0499 16.92 76.1299 16.79 76.2099C16.62 76.3099 16.45 76.4099 16.27 76.4999C16.14 76.5699 16.01 76.6399 15.87 76.6999C15.69 76.7799 15.5 76.8599 15.32 76.9299C15.19 76.9799 15.05 77.0399 14.91 77.0799C14.71 77.1499 14.51 77.1999 14.31 77.2499C14.18 77.2899 14.05 77.3299 13.91 77.3499C13.68 77.3999 13.45 77.4299 13.22 77.4699C13.11 77.4899 12.99 77.5099 12.88 77.5199C12.53 77.5599 12.18 77.5799 11.83 77.5799C11.48 77.5799 11.12 77.5599 10.77 77.5199H10.79Z" stroke="url(#paint11_linear_1005_6010)" stroke-width="0.5"/>
<path d="M11.8401 67.9498C14.0201 67.9498 15.8001 66.1698 15.8001 63.9898C15.8001 61.8098 14.0201 60.0298 11.8401 60.0298C9.66013 60.0298 7.88013 61.8098 7.88013 63.9898C7.88013 66.1698 9.66013 67.9498 11.8401 67.9498ZM11.8401 61.7598C13.0701 61.7598 14.0701 62.7598 14.0701 63.9898C14.0701 65.2198 13.0701 66.2198 11.8401 66.2198C10.6101 66.2198 9.61013 65.2198 9.61013 63.9898C9.61013 62.7598 10.6101 61.7598 11.8401 61.7598Z" fill="url(#paint12_linear_1005_6010)"/>
<path d="M21.38 74.4999C22.69 72.5799 23.41 70.2899 23.41 67.9599C23.41 61.5799 18.22 56.3799 11.84 56.3799C5.46002 56.3799 0.27002 61.5699 0.27002 67.9499C0.27002 70.2899 0.99002 72.5799 2.30002 74.4999L2.28002 74.5299L2.74002 75.1199C4.96002 77.9299 8.28002 79.5399 11.84 79.5399C12.29 79.5399 12.73 79.5099 13.16 79.4699C16.21 79.1199 18.99 77.5799 20.93 75.1299L21.39 74.5499L21.37 74.5199L21.38 74.4999ZM11.85 58.3299C17.15 58.3299 21.47 62.6499 21.47 67.9599C21.47 69.6999 20.99 71.4099 20.1 72.8899C17.95 70.5799 15.01 69.2799 11.85 69.2799C8.69002 69.2799 5.74002 70.5799 3.59002 72.8899C2.70002 71.4099 2.23002 69.7299 2.23002 67.9499C2.23002 62.6399 6.55002 58.3199 11.86 58.3199L11.85 58.3299ZM10.79 77.5199C10.67 77.5099 10.56 77.4799 10.45 77.4699C10.22 77.4399 9.99002 77.3999 9.76002 77.3499C9.63002 77.3199 9.50002 77.2799 9.37002 77.2499C9.17002 77.1999 8.96002 77.1399 8.77002 77.0699C8.63002 77.0199 8.50002 76.9699 8.37002 76.9199C8.18002 76.8499 8.00002 76.7699 7.81002 76.6899C7.68002 76.6299 7.54002 76.5599 7.41002 76.4899C7.24002 76.3999 7.06002 76.2999 6.89002 76.1999C6.76002 76.1199 6.64002 76.0399 6.51002 75.9599C6.35002 75.8499 6.19002 75.7399 6.03002 75.6199C5.91002 75.5299 5.79002 75.4399 5.68002 75.3399C5.53002 75.2099 5.38002 75.0799 5.23002 74.9399C5.12002 74.8399 5.01002 74.7299 4.91002 74.6299C4.87002 74.5899 4.83002 74.5399 4.79002 74.4899C6.59002 72.4199 9.12002 71.2399 11.85 71.2399C14.58 71.2399 17.11 72.4099 18.9 74.4899C18.86 74.5399 18.82 74.5899 18.78 74.6299C18.68 74.7299 18.58 74.8299 18.47 74.9299C18.32 75.0699 18.17 75.2099 18.01 75.3399C17.9 75.4399 17.78 75.5299 17.66 75.6199C17.5 75.7399 17.34 75.8599 17.17 75.9699C17.05 76.0499 16.92 76.1299 16.79 76.2099C16.62 76.3099 16.45 76.4099 16.27 76.4999C16.14 76.5699 16.01 76.6399 15.87 76.6999C15.69 76.7799 15.5 76.8599 15.32 76.9299C15.19 76.9799 15.05 77.0399 14.91 77.0799C14.71 77.1499 14.51 77.1999 14.31 77.2499C14.18 77.2899 14.05 77.3299 13.91 77.3499C13.68 77.3999 13.45 77.4299 13.22 77.4699C13.11 77.4899 12.99 77.5099 12.88 77.5199C12.53 77.5599 12.18 77.5799 11.83 77.5799C11.48 77.5799 11.12 77.5599 10.77 77.5199H10.79Z" fill="url(#paint13_linear_1005_6010)"/>
<path d="M68.0701 67.9498C70.2501 67.9498 72.0301 66.1698 72.0301 63.9898C72.0301 61.8098 70.2501 60.0298 68.0701 60.0298C65.8901 60.0298 64.1101 61.8098 64.1101 63.9898C64.1101 66.1698 65.8901 67.9498 68.0701 67.9498ZM68.0701 61.7598C69.3001 61.7598 70.3001 62.7598 70.3001 63.9898C70.3001 65.2198 69.3001 66.2198 68.0701 66.2198C66.8401 66.2198 65.8401 65.2198 65.8401 63.9898C65.8401 62.7598 66.8401 61.7598 68.0701 61.7598Z" stroke="url(#paint14_linear_1005_6010)" stroke-width="0.5"/>
<path d="M77.61 74.4999C78.92 72.5799 79.64 70.2899 79.64 67.9599C79.64 61.5799 74.45 56.3799 68.07 56.3799C61.69 56.3799 56.49 61.5699 56.49 67.9599C56.49 70.2999 57.21 72.5899 58.52 74.5099L58.5 74.5399L58.96 75.1299C61.18 77.9399 64.5 79.5499 68.06 79.5499C68.51 79.5499 68.95 79.5199 69.38 79.4799C72.43 79.1299 75.21 77.5899 77.15 75.1399L77.61 74.5599L77.59 74.5299L77.61 74.4999ZM68.07 58.3299C73.37 58.3299 77.69 62.6499 77.69 67.9599C77.69 69.6999 77.21 71.4099 76.32 72.8899C74.17 70.5799 71.23 69.2799 68.07 69.2799C64.91 69.2799 61.96 70.5799 59.81 72.8899C58.92 71.4099 58.45 69.7299 58.45 67.9499C58.45 62.6399 62.77 58.3199 68.08 58.3199L68.07 58.3299ZM67.01 77.5199C66.89 77.5099 66.78 77.4799 66.67 77.4699C66.44 77.4399 66.21 77.3999 65.98 77.3499C65.85 77.3199 65.72 77.2799 65.59 77.2499C65.39 77.1999 65.18 77.1399 64.99 77.0699C64.85 77.0199 64.72 76.9699 64.59 76.9199C64.4 76.8499 64.22 76.7699 64.03 76.6899C63.9 76.6299 63.76 76.5599 63.63 76.4899C63.46 76.3999 63.28 76.2999 63.11 76.1999C62.98 76.1199 62.86 76.0399 62.73 75.9599C62.57 75.8499 62.41 75.7399 62.25 75.6199C62.13 75.5299 62.01 75.4399 61.9 75.3399C61.75 75.2099 61.6 75.0799 61.45 74.9399C61.34 74.8399 61.23 74.7299 61.13 74.6299C61.09 74.5899 61.05 74.5399 61.01 74.4899C62.81 72.4199 65.34 71.2399 68.07 71.2399C70.8 71.2399 73.33 72.4099 75.12 74.4899C75.08 74.5399 75.04 74.5899 75 74.6299C74.9 74.7299 74.8 74.8299 74.69 74.9299C74.54 75.0699 74.39 75.2099 74.23 75.3399C74.12 75.4399 74 75.5299 73.88 75.6199C73.72 75.7399 73.56 75.8599 73.39 75.9699C73.27 76.0499 73.14 76.1299 73.01 76.2099C72.84 76.3099 72.67 76.4099 72.49 76.4999C72.36 76.5699 72.23 76.6399 72.09 76.6999C71.91 76.7799 71.72 76.8599 71.54 76.9299C71.41 76.9799 71.27 77.0399 71.13 77.0799C70.93 77.1499 70.73 77.1999 70.53 77.2499C70.4 77.2899 70.27 77.3299 70.13 77.3499C69.9 77.3999 69.67 77.4299 69.44 77.4699C69.33 77.4899 69.21 77.5099 69.1 77.5199C68.75 77.5599 68.4 77.5799 68.05 77.5799C67.7 77.5799 67.34 77.5599 66.99 77.5199H67.01Z" stroke="url(#paint15_linear_1005_6010)" stroke-width="0.5"/>
<path d="M68.0701 67.9498C70.2501 67.9498 72.0301 66.1698 72.0301 63.9898C72.0301 61.8098 70.2501 60.0298 68.0701 60.0298C65.8901 60.0298 64.1101 61.8098 64.1101 63.9898C64.1101 66.1698 65.8901 67.9498 68.0701 67.9498ZM68.0701 61.7598C69.3001 61.7598 70.3001 62.7598 70.3001 63.9898C70.3001 65.2198 69.3001 66.2198 68.0701 66.2198C66.8401 66.2198 65.8401 65.2198 65.8401 63.9898C65.8401 62.7598 66.8401 61.7598 68.0701 61.7598Z" fill="url(#paint16_linear_1005_6010)"/>
<path d="M77.61 74.4999C78.92 72.5799 79.64 70.2899 79.64 67.9599C79.64 61.5799 74.45 56.3799 68.07 56.3799C61.69 56.3799 56.49 61.5699 56.49 67.9599C56.49 70.2999 57.21 72.5899 58.52 74.5099L58.5 74.5399L58.96 75.1299C61.18 77.9399 64.5 79.5499 68.06 79.5499C68.51 79.5499 68.95 79.5199 69.38 79.4799C72.43 79.1299 75.21 77.5899 77.15 75.1399L77.61 74.5599L77.59 74.5299L77.61 74.4999ZM68.07 58.3299C73.37 58.3299 77.69 62.6499 77.69 67.9599C77.69 69.6999 77.21 71.4099 76.32 72.8899C74.17 70.5799 71.23 69.2799 68.07 69.2799C64.91 69.2799 61.96 70.5799 59.81 72.8899C58.92 71.4099 58.45 69.7299 58.45 67.9499C58.45 62.6399 62.77 58.3199 68.08 58.3199L68.07 58.3299ZM67.01 77.5199C66.89 77.5099 66.78 77.4799 66.67 77.4699C66.44 77.4399 66.21 77.3999 65.98 77.3499C65.85 77.3199 65.72 77.2799 65.59 77.2499C65.39 77.1999 65.18 77.1399 64.99 77.0699C64.85 77.0199 64.72 76.9699 64.59 76.9199C64.4 76.8499 64.22 76.7699 64.03 76.6899C63.9 76.6299 63.76 76.5599 63.63 76.4899C63.46 76.3999 63.28 76.2999 63.11 76.1999C62.98 76.1199 62.86 76.0399 62.73 75.9599C62.57 75.8499 62.41 75.7399 62.25 75.6199C62.13 75.5299 62.01 75.4399 61.9 75.3399C61.75 75.2099 61.6 75.0799 61.45 74.9399C61.34 74.8399 61.23 74.7299 61.13 74.6299C61.09 74.5899 61.05 74.5399 61.01 74.4899C62.81 72.4199 65.34 71.2399 68.07 71.2399C70.8 71.2399 73.33 72.4099 75.12 74.4899C75.08 74.5399 75.04 74.5899 75 74.6299C74.9 74.7299 74.8 74.8299 74.69 74.9299C74.54 75.0699 74.39 75.2099 74.23 75.3399C74.12 75.4399 74 75.5299 73.88 75.6199C73.72 75.7399 73.56 75.8599 73.39 75.9699C73.27 76.0499 73.14 76.1299 73.01 76.2099C72.84 76.3099 72.67 76.4099 72.49 76.4999C72.36 76.5699 72.23 76.6399 72.09 76.6999C71.91 76.7799 71.72 76.8599 71.54 76.9299C71.41 76.9799 71.27 77.0399 71.13 77.0799C70.93 77.1499 70.73 77.1999 70.53 77.2499C70.4 77.2899 70.27 77.3299 70.13 77.3499C69.9 77.3999 69.67 77.4299 69.44 77.4699C69.33 77.4899 69.21 77.5099 69.1 77.5199C68.75 77.5599 68.4 77.5799 68.05 77.5799C67.7 77.5799 67.34 77.5599 66.99 77.5199H67.01Z" fill="url(#paint17_linear_1005_6010)"/>
</g>
<defs>
<radialGradient id="paint0_radial_1005_6010" cx="0" cy="0" r="1" gradientUnits="userSpaceOnUse" gradientTransform="translate(24.7778 11.1119) rotate(90) scale(0.5695 5.5811)">
<stop stop-color="white"/>
<stop offset="0.07" stop-color="white" stop-opacity="0.93"/>
<stop offset="1" stop-color="white" stop-opacity="0"/>
</radialGradient>
<radialGradient id="paint1_radial_1005_6010" cx="0" cy="0" r="1" gradientUnits="userSpaceOnUse" gradientTransform="translate(25.2594 11.4279) scale(0.6365 5.4739)">
<stop stop-color="white"/>
<stop offset="0.07" stop-color="white" stop-opacity="0.93"/>
<stop offset="1" stop-color="white" stop-opacity="0"/>
</radialGradient>
<radialGradient id="paint2_radial_1005_6010" cx="0" cy="0" r="1" gradientUnits="userSpaceOnUse" gradientTransform="translate(60.097 26.8448) rotate(90) scale(0.5695 5.5811)">
<stop stop-color="white"/>
<stop offset="0.07" stop-color="white" stop-opacity="0.93"/>
<stop offset="1" stop-color="white" stop-opacity="0"/>
</radialGradient>
<radialGradient id="paint3_radial_1005_6010" cx="0" cy="0" r="1" gradientUnits="userSpaceOnUse" gradientTransform="translate(60.438 27.0323) scale(0.636499 5.4739)">
<stop stop-color="white"/>
<stop offset="0.07" stop-color="white" stop-opacity="0.93"/>
<stop offset="1" stop-color="white" stop-opacity="0"/>
</radialGradient>
<linearGradient id="paint4_linear_1005_6010" x1="47.9201" y1="33.4399" x2="26.5701" y2="-3.54007" gradientUnits="userSpaceOnUse">
<stop stop-color="white" stop-opacity="0.9"/>
<stop offset="0.04" stop-color="white" stop-opacity="0.85"/>
<stop offset="0.28" stop-color="white" stop-opacity="0.5"/>
<stop offset="0.65" stop-color="#FAFBFC" stop-opacity="0.4"/>
<stop offset="1" stop-color="#F0EFEF" stop-opacity="0"/>
</linearGradient>
<linearGradient id="paint5_linear_1005_6010" x1="48.7396" y1="65.6299" x2="16.7596" y2="10.2399" gradientUnits="userSpaceOnUse">
<stop stop-color="white" stop-opacity="0.9"/>
<stop offset="0.04" stop-color="white" stop-opacity="0.85"/>
<stop offset="0.28" stop-color="white" stop-opacity="0.5"/>
<stop offset="0.65" stop-color="#FAFBFC" stop-opacity="0.4"/>
<stop offset="1" stop-color="#F0EFEF" stop-opacity="0"/>
</linearGradient>
<linearGradient id="paint6_linear_1005_6010" x1="51.57" y1="67.9498" x2="28.43" y2="67.9498" gradientUnits="userSpaceOnUse">
<stop stop-color="white" stop-opacity="0.9"/>
<stop offset="0.28" stop-color="white" stop-opacity="0.5"/>
<stop offset="0.65" stop-color="#FAFBFC" stop-opacity="0.4"/>
<stop offset="1" stop-color="#F0EFEF" stop-opacity="0"/>
</linearGradient>
<linearGradient id="paint7_linear_1005_6010" x1="51.5699" y1="67.9499" x2="28.4299" y2="67.9499" gradientUnits="userSpaceOnUse">
<stop stop-color="white" stop-opacity="0.9"/>
<stop offset="0.28" stop-color="white" stop-opacity="0.5"/>
<stop offset="0.65" stop-color="#FAFBFC" stop-opacity="0.4"/>
<stop offset="1" stop-color="#F0EFEF" stop-opacity="0"/>
</linearGradient>
<linearGradient id="paint8_linear_1005_6010" x1="33.13" y1="64.1298" x2="52.39" y2="74.8498" gradientUnits="userSpaceOnUse">
<stop stop-color="#79A540"/>
<stop offset="0.2" stop-color="#94C63D"/>
<stop offset="0.39" stop-color="#98CA3C"/>
<stop offset="0.59" stop-color="#93C53E"/>
<stop offset="0.74" stop-color="#9DCB3B"/>
<stop offset="0.9" stop-color="#A6CE39"/>
<stop offset="1" stop-color="#A6CE39"/>
</linearGradient>
<linearGradient id="paint9_linear_1005_6010" x1="33.1299" y1="64.1299" x2="52.3899" y2="74.8499" gradientUnits="userSpaceOnUse">
<stop stop-color="#79A540"/>
<stop offset="0.2" stop-color="#94C63D"/>
<stop offset="0.39" stop-color="#98CA3C"/>
<stop offset="0.59" stop-color="#93C53E"/>
<stop offset="0.74" stop-color="#9DCB3B"/>
<stop offset="0.9" stop-color="#A6CE39"/>
<stop offset="1" stop-color="#A6CE39"/>
</linearGradient>
<linearGradient id="paint10_linear_1005_6010" x1="23.4201" y1="-0.000203827" x2="0.270127" y2="-0.000203827" gradientUnits="userSpaceOnUse">
<stop stop-color="white" stop-opacity="0.9"/>
<stop offset="0.28" stop-color="white" stop-opacity="0.5"/>
<stop offset="0.65" stop-color="#FAFBFC" stop-opacity="0.4"/>
<stop offset="1" stop-color="#F0EFEF" stop-opacity="0"/>
</linearGradient>
<linearGradient id="paint11_linear_1005_6010" x1="23.42" y1="-0.000112731" x2="0.27002" y2="-0.000112731" gradientUnits="userSpaceOnUse">
<stop stop-color="white" stop-opacity="0.9"/>
<stop offset="0.28" stop-color="white" stop-opacity="0.5"/>
<stop offset="0.65" stop-color="#FAFBFC" stop-opacity="0.4"/>
<stop offset="1" stop-color="#F0EFEF" stop-opacity="0"/>
</linearGradient>
<linearGradient id="paint12_linear_1005_6010" x1="4.97013" y1="-0.000199085" x2="24.2301" y2="74.8498" gradientUnits="userSpaceOnUse">
<stop stop-color="#79A540"/>
<stop offset="0.2" stop-color="#94C63D"/>
<stop offset="0.39" stop-color="#98CA3C"/>
<stop offset="0.59" stop-color="#93C53E"/>
<stop offset="0.74" stop-color="#9DCB3B"/>
<stop offset="0.9" stop-color="#A6CE39"/>
<stop offset="1" stop-color="#A6CE39"/>
</linearGradient>
<linearGradient id="paint13_linear_1005_6010" x1="4.97002" y1="-0.000118636" x2="24.23" y2="74.8499" gradientUnits="userSpaceOnUse">
<stop stop-color="#79A540"/>
<stop offset="0.2" stop-color="#94C63D"/>
<stop offset="0.39" stop-color="#98CA3C"/>
<stop offset="0.59" stop-color="#93C53E"/>
<stop offset="0.74" stop-color="#9DCB3B"/>
<stop offset="0.9" stop-color="#A6CE39"/>
<stop offset="1" stop-color="#A6CE39"/>
</linearGradient>
<linearGradient id="paint14_linear_1005_6010" x1="79.6401" y1="-0.000203827" x2="56.4901" y2="-0.000203827" gradientUnits="userSpaceOnUse">
<stop stop-color="white" stop-opacity="0.9"/>
<stop offset="0.28" stop-color="white" stop-opacity="0.5"/>
<stop offset="0.65" stop-color="#FAFBFC" stop-opacity="0.4"/>
<stop offset="1" stop-color="#F0EFEF" stop-opacity="0"/>
</linearGradient>
<linearGradient id="paint15_linear_1005_6010" x1="79.64" y1="-0.000121885" x2="56.49" y2="-0.000121885" gradientUnits="userSpaceOnUse">
<stop stop-color="white" stop-opacity="0.9"/>
<stop offset="0.28" stop-color="white" stop-opacity="0.5"/>
<stop offset="0.65" stop-color="#FAFBFC" stop-opacity="0.4"/>
<stop offset="1" stop-color="#F0EFEF" stop-opacity="0"/>
</linearGradient>
<linearGradient id="paint16_linear_1005_6010" x1="61.1901" y1="-0.000199641" x2="80.4501" y2="74.8498" gradientUnits="userSpaceOnUse">
<stop stop-color="#79A540"/>
<stop offset="0.2" stop-color="#94C63D"/>
<stop offset="0.39" stop-color="#98CA3C"/>
<stop offset="0.59" stop-color="#93C53E"/>
<stop offset="0.74" stop-color="#9DCB3B"/>
<stop offset="0.9" stop-color="#A6CE39"/>
<stop offset="1" stop-color="#A6CE39"/>
</linearGradient>
<linearGradient id="paint17_linear_1005_6010" x1="61.19" y1="-0.000120983" x2="80.45" y2="74.8499" gradientUnits="userSpaceOnUse">
<stop stop-color="#79A540"/>
<stop offset="0.2" stop-color="#94C63D"/>
<stop offset="0.39" stop-color="#98CA3C"/>
<stop offset="0.59" stop-color="#93C53E"/>
<stop offset="0.74" stop-color="#9DCB3B"/>
<stop offset="0.9" stop-color="#A6CE39"/>
<stop offset="1" stop-color="#A6CE39"/>
</linearGradient>
<clipPath id="clip0_1005_6010">
<rect width="80" height="80" fill="white"/>
</clipPath>
</defs>
</svg>
