<svg width="83" height="80" viewBox="0 0 83 80" fill="none" xmlns="http://www.w3.org/2000/svg">
<path d="M9.35584 68.9791H9.35599H47.0601C47.0749 70.2904 47.3262 71.2629 47.977 72.4715H9.35611C6.90862 72.4691 4.56207 71.4957 2.83143 69.7651C1.10079 68.0345 0.127444 65.6879 0.125 63.2404L0.125 14.5895C0.12746 12.142 1.1008 9.79545 2.83143 8.06483C4.56207 6.33419 6.90862 5.36084 9.35611 5.3584L65.4919 5.3584C67.9393 5.36086 70.2859 6.3342 72.0165 8.06483C73.7471 9.79547 74.7205 12.142 74.7229 14.5895V47.9851C73.7498 47.5292 72.7714 47.083 71.2305 47.0542V20.203V20.078H71.1055H3.7424H3.6174V20.203V63.2405V63.2407C3.61917 64.7621 4.22432 66.2206 5.3001 67.2964C6.37589 68.3722 7.83446 68.9773 9.35584 68.9791ZM65.4921 8.85079H65.4919H9.35599H9.35584C7.83446 8.85257 6.37589 9.45772 5.3001 10.5335C4.22432 11.6093 3.61917 13.0679 3.6174 14.5892V14.5894V16.4606V16.5856H3.7424H71.1055H71.2305V16.4606V14.5894V14.5892C71.2287 13.0679 70.6236 11.6093 69.5478 10.5335C68.472 9.45772 67.0135 8.85257 65.4921 8.85079Z" fill="url(#paint0_linear_915_15835)" stroke="url(#paint1_linear_915_15835)" stroke-width="0.25"/>
<path d="M8.13215 6.36172C8.13215 9.88252 7.79707 12.7429 7.38429 12.7429C6.97151 12.7429 6.62671 9.88252 6.62671 6.36172C6.62671 2.84092 6.97636 0 7.38429 0C7.79222 0 8.13215 2.83607 8.13215 6.36172Z" fill="url(#paint2_radial_915_15835)"/>
<path d="M7.3851 7.10017C3.8643 7.10017 1.00395 6.76509 1.00395 6.35231C1.00395 5.93952 3.8643 5.59473 7.3851 5.59473C10.9059 5.59473 13.7468 5.94438 13.7468 6.35231C13.7468 6.76023 10.9108 7.10017 7.3851 7.10017Z" fill="url(#paint3_radial_915_15835)"/>
<path d="M30.6133 29.5661C29.555 28.4656 28.2955 27.5928 26.9078 26.9982C25.5201 26.4035 24.0318 26.099 22.5291 26.1021H22.4918C19.4421 26.1258 16.5256 27.3944 14.3801 29.6303C12.2347 31.8663 11.0349 34.8877 11.0433 38.0337V40.4713C11.0449 40.9199 11.2184 41.3497 11.5259 41.6669C11.8334 41.9841 12.2501 42.1631 12.685 42.1648H32.3172C32.7516 42.1614 33.1673 41.9819 33.4745 41.6651C33.7817 41.3482 33.9557 40.9194 33.959 40.4713V37.9054C33.9622 36.3564 33.6683 34.8221 33.0941 33.3908C32.5199 31.9596 31.6768 30.6597 30.6133 29.5661ZM32.3421 40.4713H21.6523L27.249 32.5297C27.3152 32.4404 27.3636 32.3386 27.3916 32.23C27.4196 32.1214 27.4266 32.0081 27.4122 31.8967C27.3977 31.7853 27.3622 31.678 27.3075 31.5808C27.2528 31.4836 27.1801 31.3984 27.0936 31.3302C27.007 31.2619 26.9083 31.2119 26.803 31.1831C26.6977 31.1542 26.5879 31.147 26.4799 31.1619C26.372 31.1768 26.2679 31.2135 26.1736 31.2699C26.0794 31.3263 25.9968 31.4012 25.9307 31.4905L19.6312 40.4713H12.685V38.0337C12.685 37.7129 12.685 37.3922 12.7285 37.0714H15.1351C15.2485 37.0816 15.3627 37.0674 15.4705 37.0297C15.5782 36.9919 15.6772 36.9314 15.7611 36.8521C15.845 36.7728 15.912 36.6763 15.9579 36.5689C16.0037 36.4614 16.0274 36.3453 16.0274 36.2279C16.0274 36.1105 16.0037 35.9944 15.9579 35.8869C15.912 35.7794 15.845 35.683 15.7611 35.6036C15.6772 35.5243 15.5782 35.4639 15.4705 35.4261C15.3627 35.3883 15.2485 35.3741 15.1351 35.3843H13.0146C13.533 33.3587 14.6428 31.5465 16.1935 30.1936C17.7443 28.8406 19.6608 28.0124 21.6834 27.8212V30.3166C21.6815 30.4305 21.7024 30.5436 21.7445 30.6489C21.7867 30.7542 21.8494 30.8494 21.9286 30.9288C22.0079 31.0081 22.102 31.0698 22.2053 31.1102C22.3086 31.1505 22.4188 31.1686 22.5291 31.1634C22.6371 31.1642 22.7442 31.1429 22.8442 31.1007C22.9442 31.0584 23.035 30.9961 23.1114 30.9173C23.1878 30.8385 23.2482 30.7448 23.2892 30.6417C23.3301 30.5385 23.3508 30.4281 23.35 30.3166V27.8212C25.3823 27.9948 27.312 28.816 28.8719 30.171C30.4317 31.5261 31.5445 33.348 32.0561 35.3843H29.8671C29.7537 35.3741 29.6395 35.3883 29.5317 35.4261C29.424 35.4639 29.325 35.5243 29.2411 35.6036C29.1572 35.683 29.0902 35.7794 29.0444 35.8869C28.9985 35.9944 28.9749 36.1105 28.9749 36.2279C28.9749 36.3453 28.9985 36.4614 29.0444 36.5689C29.0902 36.6763 29.1572 36.7728 29.2411 36.8521C29.325 36.9314 29.424 36.9919 29.5317 37.0297C29.6395 37.0674 29.7537 37.0816 29.8671 37.0714H32.2861C32.2861 37.3537 32.3172 37.6295 32.3172 37.9182L32.3421 40.4713Z" fill="url(#paint4_linear_915_15835)"/>
<path d="M30.6133 29.5661C29.555 28.4656 28.2955 27.5928 26.9078 26.9982C25.5201 26.4035 24.0318 26.099 22.5291 26.1021H22.4918C19.4421 26.1258 16.5256 27.3944 14.3801 29.6303C12.2347 31.8663 11.0349 34.8877 11.0433 38.0337V40.4713C11.0449 40.9199 11.2184 41.3497 11.5259 41.6669C11.8334 41.9841 12.2501 42.1631 12.685 42.1648H32.3172C32.7516 42.1614 33.1673 41.9819 33.4745 41.6651C33.7817 41.3482 33.9557 40.9194 33.959 40.4713V37.9054C33.9622 36.3564 33.6683 34.8221 33.0941 33.3908C32.5199 31.9596 31.6768 30.6597 30.6133 29.5661ZM32.3421 40.4713H21.6523L27.249 32.5297C27.3152 32.4404 27.3636 32.3386 27.3916 32.23C27.4196 32.1214 27.4266 32.0081 27.4122 31.8967C27.3977 31.7853 27.3622 31.678 27.3075 31.5808C27.2528 31.4836 27.1801 31.3984 27.0936 31.3302C27.007 31.2619 26.9083 31.2119 26.803 31.1831C26.6977 31.1542 26.5879 31.147 26.4799 31.1619C26.372 31.1768 26.2679 31.2135 26.1736 31.2699C26.0794 31.3263 25.9968 31.4012 25.9307 31.4905L19.6312 40.4713H12.685V38.0337C12.685 37.7129 12.685 37.3922 12.7285 37.0714H15.1351C15.2485 37.0816 15.3627 37.0674 15.4705 37.0297C15.5782 36.9919 15.6772 36.9314 15.7611 36.8521C15.845 36.7728 15.912 36.6763 15.9579 36.5689C16.0037 36.4614 16.0274 36.3453 16.0274 36.2279C16.0274 36.1105 16.0037 35.9944 15.9579 35.8869C15.912 35.7794 15.845 35.683 15.7611 35.6036C15.6772 35.5243 15.5782 35.4639 15.4705 35.4261C15.3627 35.3883 15.2485 35.3741 15.1351 35.3843H13.0146C13.533 33.3587 14.6428 31.5465 16.1935 30.1936C17.7443 28.8406 19.6608 28.0124 21.6834 27.8212V30.3166C21.6815 30.4305 21.7024 30.5436 21.7445 30.6489C21.7867 30.7542 21.8494 30.8494 21.9286 30.9288C22.0079 31.0081 22.102 31.0698 22.2053 31.1102C22.3086 31.1505 22.4188 31.1686 22.5291 31.1634C22.6371 31.1642 22.7442 31.1429 22.8442 31.1007C22.9442 31.0584 23.035 30.9961 23.1114 30.9173C23.1878 30.8385 23.2482 30.7448 23.2892 30.6417C23.3301 30.5385 23.3508 30.4281 23.35 30.3166V27.8212C25.3823 27.9948 27.312 28.816 28.8719 30.171C30.4317 31.5261 31.5445 33.348 32.0561 35.3843H29.8671C29.7537 35.3741 29.6395 35.3883 29.5317 35.4261C29.424 35.4639 29.325 35.5243 29.2411 35.6036C29.1572 35.683 29.0902 35.7794 29.0444 35.8869C28.9985 35.9944 28.9749 36.1105 28.9749 36.2279C28.9749 36.3453 28.9985 36.4614 29.0444 36.5689C29.0902 36.6763 29.1572 36.7728 29.2411 36.8521C29.325 36.9314 29.424 36.9919 29.5317 37.0297C29.6395 37.0674 29.7537 37.0816 29.8671 37.0714H32.2861C32.2861 37.3537 32.3172 37.6295 32.3172 37.9182L32.3421 40.4713Z" fill="url(#paint5_linear_915_15835)"/>
<path d="M30.6131 29.5661C29.5557 28.4645 28.2963 27.5909 26.9084 26.9962C25.5205 26.4015 24.0318 26.0976 22.5289 26.1021C19.4792 26.1258 16.5627 27.3944 14.4173 29.6304C12.2718 31.8663 11.0721 34.8877 11.0804 38.0337V40.4713C11.0803 40.6929 11.1226 40.9123 11.2047 41.117C11.2869 41.3217 11.4073 41.5078 11.5592 41.6645C11.71 41.8231 11.89 41.9491 12.0886 42.0351C12.2872 42.121 12.5005 42.1651 12.7159 42.1648H32.3544C32.7882 42.1615 33.2032 41.9817 33.5094 41.6647C33.8156 41.3476 33.9882 40.9188 33.9899 40.4713V37.9054C33.9891 36.3542 33.6902 34.8185 33.1106 33.3871C32.531 31.9557 31.6822 30.657 30.6131 29.5661ZM32.3544 40.4713H21.6894L27.2862 32.5298C27.3527 32.4393 27.4003 32.3356 27.426 32.2252C27.4517 32.1147 27.4549 32 27.4354 31.8883C27.4165 31.7203 27.3489 31.5622 27.2414 31.4345C27.134 31.3069 26.9917 31.2156 26.8332 31.1726C26.6747 31.1297 26.5073 31.137 26.3529 31.1938C26.1985 31.2505 26.0643 31.3539 25.9678 31.4906L19.6621 40.4713H12.7159V38.0337C12.7159 37.7129 12.7159 37.3922 12.7594 37.0715H15.1722C15.3884 37.0706 15.5957 36.9832 15.7506 36.8277C15.8271 36.749 15.8878 36.6556 15.9292 36.5526C15.9707 36.4497 15.992 36.3394 15.992 36.2279C15.992 36.1165 15.9707 36.0061 15.9292 35.9032C15.8878 35.8003 15.8271 35.7068 15.7506 35.6281C15.5957 35.4726 15.3884 35.3852 15.1722 35.3844H13.0517C13.5701 33.3587 14.6799 31.5465 16.2306 30.1936C17.7814 28.8407 19.698 28.0124 21.7205 27.8213V30.3166C21.7194 30.4283 21.7397 30.539 21.7803 30.6425C21.8208 30.746 21.8808 30.8402 21.9568 30.9196C22.1116 31.0752 22.319 31.1626 22.5351 31.1634C22.6431 31.1643 22.7503 31.1429 22.8502 31.1007C22.9502 31.0584 23.041 30.9961 23.1174 30.9173C23.1938 30.8385 23.2542 30.7448 23.2952 30.6417C23.3361 30.5386 23.3568 30.4281 23.356 30.3166V27.8213C25.3874 27.9976 27.3158 28.8198 28.8752 30.1744C30.4345 31.529 31.548 33.3494 32.0621 35.3844H29.898C29.6819 35.3852 29.4745 35.4726 29.3197 35.6281C29.1681 35.7886 29.0833 36.0038 29.0833 36.2279C29.0833 36.452 29.1681 36.6672 29.3197 36.8277C29.4745 36.9832 29.6819 37.0706 29.898 37.0715H32.3233C32.3233 37.3537 32.3233 37.6295 32.3233 37.9182L32.3544 40.4713Z" fill="url(#paint6_linear_915_15835)"/>
<path d="M30.6131 29.5661C29.5557 28.4645 28.2963 27.5909 26.9084 26.9962C25.5205 26.4015 24.0318 26.0976 22.5289 26.1021C19.4792 26.1258 16.5627 27.3944 14.4173 29.6304C12.2718 31.8663 11.0721 34.8877 11.0804 38.0337V40.4713C11.0803 40.6929 11.1226 40.9123 11.2047 41.117C11.2869 41.3217 11.4073 41.5078 11.5592 41.6645C11.71 41.8231 11.89 41.9491 12.0886 42.0351C12.2872 42.121 12.5005 42.1651 12.7159 42.1648H32.3544C32.7882 42.1615 33.2032 41.9817 33.5094 41.6647C33.8156 41.3476 33.9882 40.9188 33.9899 40.4713V37.9054C33.9891 36.3542 33.6902 34.8185 33.1106 33.3871C32.531 31.9557 31.6822 30.657 30.6131 29.5661ZM32.3544 40.4713H21.6894L27.2862 32.5298C27.3527 32.4393 27.4003 32.3356 27.426 32.2252C27.4517 32.1147 27.4549 32 27.4354 31.8883C27.4165 31.7203 27.3489 31.5622 27.2414 31.4345C27.134 31.3069 26.9917 31.2156 26.8332 31.1726C26.6747 31.1297 26.5073 31.137 26.3529 31.1938C26.1985 31.2505 26.0643 31.3539 25.9678 31.4906L19.6621 40.4713H12.7159V38.0337C12.7159 37.7129 12.7159 37.3922 12.7594 37.0715H15.1722C15.3884 37.0706 15.5957 36.9832 15.7506 36.8277C15.8271 36.749 15.8878 36.6556 15.9292 36.5526C15.9707 36.4497 15.992 36.3394 15.992 36.2279C15.992 36.1165 15.9707 36.0061 15.9292 35.9032C15.8878 35.8003 15.8271 35.7068 15.7506 35.6281C15.5957 35.4726 15.3884 35.3852 15.1722 35.3844H13.0517C13.5701 33.3587 14.6799 31.5465 16.2306 30.1936C17.7814 28.8407 19.698 28.0124 21.7205 27.8213V30.3166C21.7194 30.4283 21.7397 30.539 21.7803 30.6425C21.8208 30.746 21.8808 30.8402 21.9568 30.9196C22.1116 31.0752 22.319 31.1626 22.5351 31.1634C22.6431 31.1643 22.7503 31.1429 22.8502 31.1007C22.9502 31.0584 23.041 30.9961 23.1174 30.9173C23.1938 30.8385 23.2542 30.7448 23.2952 30.6417C23.3361 30.5386 23.3568 30.4281 23.356 30.3166V27.8213C25.3874 27.9976 27.3158 28.8198 28.8752 30.1744C30.4345 31.529 31.548 33.3494 32.0621 35.3844H29.898C29.6819 35.3852 29.4745 35.4726 29.3197 35.6281C29.1681 35.7886 29.0833 36.0038 29.0833 36.2279C29.0833 36.452 29.1681 36.6672 29.3197 36.8277C29.4745 36.9832 29.6819 37.0706 29.898 37.0715H32.3233C32.3233 37.3537 32.3233 37.6295 32.3233 37.9182L32.3544 40.4713Z" fill="url(#paint7_linear_915_15835)"/>
<path d="M30.6131 29.5661C29.5557 28.4645 28.2963 27.5909 26.9084 26.9962C25.5205 26.4015 24.0318 26.0976 22.5289 26.1021C19.4792 26.1258 16.5627 27.3944 14.4173 29.6304C12.2718 31.8663 11.0721 34.8877 11.0804 38.0337V40.4713C11.0803 40.6929 11.1226 40.9123 11.2047 41.117C11.2869 41.3217 11.4073 41.5078 11.5592 41.6645C11.71 41.8231 11.89 41.9491 12.0886 42.0351C12.2872 42.121 12.5005 42.1651 12.7159 42.1648H32.3544C32.7882 42.1615 33.2032 41.9817 33.5094 41.6647C33.8156 41.3476 33.9882 40.9188 33.9899 40.4713V37.9054C33.9891 36.3542 33.6902 34.8185 33.1106 33.3871C32.531 31.9557 31.6822 30.657 30.6131 29.5661ZM32.3544 40.4713H21.6894L27.2862 32.5298C27.3527 32.4393 27.4003 32.3356 27.426 32.2252C27.4517 32.1147 27.4549 32 27.4354 31.8883C27.4165 31.7203 27.3489 31.5622 27.2414 31.4345C27.134 31.3069 26.9917 31.2156 26.8332 31.1726C26.6747 31.1297 26.5073 31.137 26.3529 31.1938C26.1985 31.2505 26.0643 31.3539 25.9678 31.4906L19.6621 40.4713H12.7159V38.0337C12.7159 37.7129 12.7159 37.3922 12.7594 37.0715H15.1722C15.3884 37.0706 15.5957 36.9832 15.7506 36.8277C15.8271 36.749 15.8878 36.6556 15.9292 36.5526C15.9707 36.4497 15.992 36.3394 15.992 36.2279C15.992 36.1165 15.9707 36.0061 15.9292 35.9032C15.8878 35.8003 15.8271 35.7068 15.7506 35.6281C15.5957 35.4726 15.3884 35.3852 15.1722 35.3844H13.0517C13.5701 33.3587 14.6799 31.5465 16.2306 30.1936C17.7814 28.8407 19.698 28.0124 21.7205 27.8213V30.3166C21.7194 30.4283 21.7397 30.539 21.7803 30.6425C21.8208 30.746 21.8808 30.8402 21.9568 30.9196C22.1116 31.0752 22.319 31.1626 22.5351 31.1634C22.6431 31.1643 22.7503 31.1429 22.8502 31.1007C22.9502 31.0584 23.041 30.9961 23.1174 30.9173C23.1938 30.8385 23.2542 30.7448 23.2952 30.6417C23.3361 30.5386 23.3568 30.4281 23.356 30.3166V27.8213C25.3874 27.9976 27.3158 28.8198 28.8752 30.1744C30.4345 31.529 31.548 33.3494 32.0621 35.3844H29.898C29.6819 35.3852 29.4745 35.4726 29.3197 35.6281C29.1681 35.7886 29.0833 36.0038 29.0833 36.2279C29.0833 36.452 29.1681 36.6672 29.3197 36.8277C29.4745 36.9832 29.6819 37.0706 29.898 37.0715H32.3233C32.3233 37.3537 32.3233 37.6295 32.3233 37.9182L32.3544 40.4713Z" stroke="url(#paint8_linear_915_15835)" stroke-width="0.25" stroke-miterlimit="10"/>
<path d="M26.4665 52.494H23.1016V49.129C23.1016 48.9577 23.0335 48.7934 22.9124 48.6723C22.7913 48.5512 22.627 48.4831 22.4557 48.4831H12.3349V47.8373C12.3349 47.666 12.2669 47.5017 12.1458 47.3806C12.0247 47.2595 11.8604 47.1914 11.6891 47.1914C11.5178 47.1914 11.3535 47.2595 11.2324 47.3806C11.1113 47.5017 11.0432 47.666 11.0432 47.8373V62.5889C11.0525 62.7571 11.1235 62.9161 11.2427 63.0352C11.3619 63.1544 11.5208 63.2254 11.6891 63.2347C11.8604 63.2347 12.0247 63.1667 12.1458 63.0456C12.2669 62.9244 12.3349 62.7602 12.3349 62.5889V61.943H19.7366C19.8258 61.9444 19.9143 61.9274 19.9965 61.8929C20.0788 61.8585 20.153 61.8073 20.2145 61.7428C20.3395 61.6152 20.4092 61.4434 20.4083 61.2648V57.9063H26.4665C26.5557 57.9078 26.6442 57.8907 26.7265 57.8563C26.8087 57.8218 26.883 57.7707 26.9445 57.7061C27.0695 57.5785 27.1391 57.4068 27.1383 57.2282V53.1786C27.1383 53.0073 27.0702 52.843 26.9491 52.7219C26.828 52.6008 26.6637 52.5327 26.4924 52.5327L26.4665 52.494ZM21.7582 49.8072V52.494H12.3349V49.8072H21.7582ZM19.0649 60.5673H12.3349V57.8805H19.0649V60.5673ZM25.7948 56.5306H12.3349V53.8245H25.7948V56.5306Z" fill="url(#paint9_linear_915_15835)"/>
<path d="M26.4665 52.494H23.1016V49.129C23.1016 48.9577 23.0335 48.7934 22.9124 48.6723C22.7913 48.5512 22.627 48.4831 22.4557 48.4831H12.3349V47.8373C12.3349 47.666 12.2669 47.5017 12.1458 47.3806C12.0247 47.2595 11.8604 47.1914 11.6891 47.1914C11.5178 47.1914 11.3535 47.2595 11.2324 47.3806C11.1113 47.5017 11.0432 47.666 11.0432 47.8373V62.5889C11.0525 62.7571 11.1235 62.9161 11.2427 63.0352C11.3619 63.1544 11.5208 63.2254 11.6891 63.2347C11.8604 63.2347 12.0247 63.1667 12.1458 63.0456C12.2669 62.9244 12.3349 62.7602 12.3349 62.5889V61.943H19.7366C19.8258 61.9444 19.9143 61.9274 19.9965 61.8929C20.0788 61.8585 20.153 61.8073 20.2145 61.7428C20.3395 61.6152 20.4092 61.4434 20.4083 61.2648V57.9063H26.4665C26.5557 57.9078 26.6442 57.8907 26.7265 57.8563C26.8087 57.8218 26.883 57.7707 26.9445 57.7061C27.0695 57.5785 27.1391 57.4068 27.1383 57.2282V53.1786C27.1383 53.0073 27.0702 52.843 26.9491 52.7219C26.828 52.6008 26.6637 52.5327 26.4924 52.5327L26.4665 52.494ZM21.7582 49.8072V52.494H12.3349V49.8072H21.7582ZM19.0649 60.5673H12.3349V57.8805H19.0649V60.5673ZM25.7948 56.5306H12.3349V53.8245H25.7948V56.5306Z" fill="url(#paint10_linear_915_15835)"/>
<path d="M26.4665 52.5323H23.1016V49.148C23.0998 48.9699 23.0305 48.7991 22.9078 48.6701C22.7795 48.5462 22.6082 48.4768 22.4299 48.4763H12.3349V47.8304C12.3349 47.6591 12.2669 47.4949 12.1458 47.3737C12.0247 47.2526 11.8604 47.1846 11.6891 47.1846C11.5178 47.1846 11.3535 47.2526 11.2324 47.3737C11.1113 47.4949 11.0432 47.6591 11.0432 47.8304V62.6014C11.0525 62.7697 11.1235 62.9286 11.2427 63.0478C11.3619 63.167 11.5208 63.238 11.6891 63.2473C11.7783 63.2487 11.8668 63.2316 11.949 63.1972C12.0313 63.1627 12.1055 63.1116 12.167 63.047C12.292 62.9195 12.3617 62.7477 12.3608 62.5691V61.9232H19.7366C19.9079 61.9232 20.0722 61.8552 20.1933 61.7341C20.3144 61.6129 20.3825 61.4487 20.3825 61.2774V57.893H26.4407C26.612 57.893 26.7763 57.825 26.8974 57.7039C27.0185 57.5827 27.0866 57.4185 27.0866 57.2472V53.1782C27.0848 53.0001 27.0155 52.8293 26.8928 52.7003C26.774 52.5975 26.6236 52.5382 26.4665 52.5323ZM21.7582 49.8197V52.5323H12.3349V49.8197H21.7582ZM19.0649 60.5863H12.3349V57.893H19.0649V60.5863ZM25.7948 56.5496H12.3349V53.8564H25.7948V56.5496Z" fill="url(#paint11_linear_915_15835)"/>
<path d="M26.4665 52.5323H23.1016V49.148C23.0998 48.9699 23.0305 48.7991 22.9078 48.6701C22.7795 48.5462 22.6082 48.4768 22.4299 48.4763H12.3349V47.8304C12.3349 47.6591 12.2669 47.4949 12.1458 47.3737C12.0247 47.2526 11.8604 47.1846 11.6891 47.1846C11.5178 47.1846 11.3535 47.2526 11.2324 47.3737C11.1113 47.4949 11.0432 47.6591 11.0432 47.8304V62.6014C11.0525 62.7697 11.1235 62.9286 11.2427 63.0478C11.3619 63.167 11.5208 63.238 11.6891 63.2473C11.7783 63.2487 11.8668 63.2316 11.949 63.1972C12.0313 63.1627 12.1055 63.1116 12.167 63.047C12.292 62.9195 12.3617 62.7477 12.3608 62.5691V61.9232H19.7366C19.9079 61.9232 20.0722 61.8552 20.1933 61.7341C20.3144 61.6129 20.3825 61.4487 20.3825 61.2774V57.893H26.4407C26.612 57.893 26.7763 57.825 26.8974 57.7039C27.0185 57.5827 27.0866 57.4185 27.0866 57.2472V53.1782C27.0848 53.0001 27.0155 52.8293 26.8928 52.7003C26.774 52.5975 26.6236 52.5382 26.4665 52.5323ZM21.7582 49.8197V52.5323H12.3349V49.8197H21.7582ZM19.0649 60.5863H12.3349V57.893H19.0649V60.5863ZM25.7948 56.5496H12.3349V53.8564H25.7948V56.5496Z" fill="url(#paint12_linear_915_15835)"/>
<path d="M26.4665 52.5323H23.1016V49.148C23.0998 48.9699 23.0305 48.7991 22.9078 48.6701C22.7795 48.5462 22.6082 48.4768 22.4299 48.4763H12.3349V47.8304C12.3349 47.6591 12.2669 47.4949 12.1458 47.3737C12.0247 47.2526 11.8604 47.1846 11.6891 47.1846C11.5178 47.1846 11.3535 47.2526 11.2324 47.3737C11.1113 47.4949 11.0432 47.6591 11.0432 47.8304V62.6014C11.0525 62.7697 11.1235 62.9286 11.2427 63.0478C11.3619 63.167 11.5208 63.238 11.6891 63.2473C11.7783 63.2487 11.8668 63.2316 11.949 63.1972C12.0313 63.1627 12.1055 63.1116 12.167 63.047C12.292 62.9195 12.3617 62.7477 12.3608 62.5691V61.9232H19.7366C19.9079 61.9232 20.0722 61.8552 20.1933 61.7341C20.3144 61.6129 20.3825 61.4487 20.3825 61.2774V57.893H26.4407C26.612 57.893 26.7763 57.825 26.8974 57.7039C27.0185 57.5827 27.0866 57.4185 27.0866 57.2472V53.1782C27.0848 53.0001 27.0155 52.8293 26.8928 52.7003C26.774 52.5975 26.6236 52.5382 26.4665 52.5323ZM21.7582 49.8197V52.5323H12.3349V49.8197H21.7582ZM19.0649 60.5863H12.3349V57.893H19.0649V60.5863ZM25.7948 56.5496H12.3349V53.8564H25.7948V56.5496Z" stroke="url(#paint13_linear_915_15835)" stroke-width="0.25" stroke-miterlimit="10"/>
<path d="M65.0234 41.4388C65.0238 41.5348 65.0046 41.6299 64.9671 41.7183C64.9295 41.8067 64.8743 41.8865 64.8049 41.9528C64.6681 42.0883 64.4834 42.1645 64.2909 42.1648H46.7696C46.5753 42.1634 46.3891 42.0875 46.2491 41.9528C46.1137 41.816 46.0375 41.6313 46.0371 41.4388V26.8345C46.0371 26.6403 46.1143 26.454 46.2516 26.3166C46.389 26.1792 46.5753 26.1021 46.7696 26.1021C46.8656 26.1016 46.9607 26.1208 47.0491 26.1584C47.1374 26.1959 47.2172 26.2511 47.2836 26.3205C47.4191 26.4573 47.4952 26.642 47.4956 26.8345V36.7677L52.0896 32.1738C52.1587 32.1066 52.2392 32.0522 52.3273 32.0132C52.4167 31.975 52.5128 31.9553 52.61 31.9553C52.7053 31.9539 52.7996 31.9736 52.8863 32.0132C52.9761 32.049 53.0572 32.1038 53.124 32.1738L55.527 34.5768L60.3394 29.7708H58.4505C58.2562 29.7708 58.0699 29.6936 57.9325 29.5563C57.7952 29.4189 57.718 29.2326 57.718 29.0383C57.718 28.8441 57.7952 28.6578 57.9325 28.5204C58.0699 28.383 58.2562 28.3059 58.4505 28.3059H62.0999C62.2965 28.3093 62.4837 28.3901 62.6209 28.5309C62.7581 28.6717 62.8341 28.861 62.8324 29.0576V32.7071C62.8324 32.9013 62.7552 33.0876 62.6179 33.225C62.4805 33.3624 62.2942 33.4395 62.0999 33.4395C61.9057 33.4395 61.7194 33.3624 61.582 33.225C61.4446 33.0876 61.3675 32.9013 61.3675 32.7071V30.786L56.0475 36.1252C55.9795 36.1938 55.8987 36.2484 55.8097 36.2859C55.7191 36.3189 55.6235 36.3363 55.527 36.3373C55.4326 36.3364 55.3391 36.319 55.2507 36.2859C55.1618 36.2484 55.081 36.1938 55.013 36.1252L52.61 33.7222L47.4699 38.8623V40.7513H64.2909C64.4852 40.7513 64.6715 40.8285 64.8088 40.9658C64.9462 41.1032 65.0234 41.2895 65.0234 41.4838V41.4388Z" fill="url(#paint14_linear_915_15835)"/>
<path d="M65.0234 41.4388C65.0238 41.5348 65.0046 41.6299 64.9671 41.7183C64.9295 41.8067 64.8743 41.8865 64.8049 41.9528C64.6681 42.0883 64.4834 42.1645 64.2909 42.1648H46.7696C46.5753 42.1634 46.3891 42.0875 46.2491 41.9528C46.1137 41.816 46.0375 41.6313 46.0371 41.4388V26.8345C46.0371 26.6403 46.1143 26.454 46.2516 26.3166C46.389 26.1792 46.5753 26.1021 46.7696 26.1021C46.8656 26.1016 46.9607 26.1208 47.0491 26.1584C47.1374 26.1959 47.2172 26.2511 47.2836 26.3205C47.4191 26.4573 47.4952 26.642 47.4956 26.8345V36.7677L52.0896 32.1738C52.1587 32.1066 52.2392 32.0522 52.3273 32.0132C52.4167 31.975 52.5128 31.9553 52.61 31.9553C52.7053 31.9539 52.7996 31.9736 52.8863 32.0132C52.9761 32.049 53.0572 32.1038 53.124 32.1738L55.527 34.5768L60.3394 29.7708H58.4505C58.2562 29.7708 58.0699 29.6936 57.9325 29.5563C57.7952 29.4189 57.718 29.2326 57.718 29.0383C57.718 28.8441 57.7952 28.6578 57.9325 28.5204C58.0699 28.383 58.2562 28.3059 58.4505 28.3059H62.0999C62.2965 28.3093 62.4837 28.3901 62.6209 28.5309C62.7581 28.6717 62.8341 28.861 62.8324 29.0576V32.7071C62.8324 32.9013 62.7552 33.0876 62.6179 33.225C62.4805 33.3624 62.2942 33.4395 62.0999 33.4395C61.9057 33.4395 61.7194 33.3624 61.582 33.225C61.4446 33.0876 61.3675 32.9013 61.3675 32.7071V30.786L56.0475 36.1252C55.9795 36.1938 55.8987 36.2484 55.8097 36.2859C55.7191 36.3189 55.6235 36.3363 55.527 36.3373C55.4326 36.3364 55.3391 36.319 55.2507 36.2859C55.1618 36.2484 55.081 36.1938 55.013 36.1252L52.61 33.7222L47.4699 38.8623V40.7513H64.2909C64.4852 40.7513 64.6715 40.8285 64.8088 40.9658C64.9462 41.1032 65.0234 41.2895 65.0234 41.4838V41.4388Z" fill="url(#paint15_linear_915_15835)"/>
<path d="M65.0234 41.4388C65.0238 41.5348 65.0046 41.6299 64.9671 41.7183C64.9295 41.8067 64.8743 41.8865 64.8049 41.9528C64.6681 42.0883 64.4834 42.1645 64.2909 42.1648H46.7696C46.5753 42.1634 46.3891 42.0875 46.2491 41.9528C46.1137 41.816 46.0375 41.6313 46.0371 41.4388V26.8345C46.0371 26.6403 46.1143 26.454 46.2516 26.3166C46.389 26.1792 46.5753 26.1021 46.7696 26.1021C46.8656 26.1016 46.9607 26.1208 47.0491 26.1584C47.1374 26.1959 47.2172 26.2511 47.2836 26.3205C47.4191 26.4573 47.4952 26.642 47.4956 26.8345V36.7677L52.0896 32.1738C52.1587 32.1066 52.2392 32.0522 52.3273 32.0132C52.4167 31.975 52.5128 31.9553 52.61 31.9553C52.7053 31.9539 52.7996 31.9736 52.8863 32.0132C52.9761 32.049 53.0572 32.1038 53.124 32.1738L55.527 34.5768L60.3394 29.7708H58.4505C58.2562 29.7708 58.0699 29.6936 57.9325 29.5563C57.7952 29.4189 57.718 29.2326 57.718 29.0383C57.718 28.8441 57.7952 28.6578 57.9325 28.5204C58.0699 28.383 58.2562 28.3059 58.4505 28.3059H62.0999C62.2965 28.3093 62.4837 28.3901 62.6209 28.5309C62.7581 28.6717 62.8341 28.861 62.8324 29.0576V32.7071C62.8324 32.9013 62.7552 33.0876 62.6179 33.225C62.4805 33.3624 62.2942 33.4395 62.0999 33.4395C61.9057 33.4395 61.7194 33.3624 61.582 33.225C61.4446 33.0876 61.3675 32.9013 61.3675 32.7071V30.786L56.0475 36.1252C55.9795 36.1938 55.8987 36.2484 55.8097 36.2859C55.7191 36.3189 55.6235 36.3363 55.527 36.3373C55.4326 36.3364 55.3391 36.319 55.2507 36.2859C55.1618 36.2484 55.081 36.1938 55.013 36.1252L52.61 33.7222L47.4699 38.8623V40.7513H64.2909C64.4852 40.7513 64.6715 40.8285 64.8088 40.9658C64.9462 41.1032 65.0234 41.2895 65.0234 41.4838V41.4388Z" fill="url(#paint16_linear_915_15835)"/>
<path d="M65.0234 41.4388C65.0238 41.5348 65.0046 41.6299 64.9671 41.7183C64.9295 41.8067 64.8743 41.8865 64.8049 41.9528C64.6681 42.0883 64.4834 42.1645 64.2909 42.1648H46.7696C46.5753 42.1634 46.3891 42.0875 46.2491 41.9528C46.1137 41.816 46.0375 41.6313 46.0371 41.4388V26.8345C46.0371 26.6403 46.1143 26.454 46.2516 26.3166C46.389 26.1792 46.5753 26.1021 46.7696 26.1021C46.8656 26.1016 46.9607 26.1208 47.0491 26.1584C47.1374 26.1959 47.2172 26.2511 47.2836 26.3205C47.4191 26.4573 47.4952 26.642 47.4956 26.8345V36.7677L52.0896 32.1738C52.1587 32.1066 52.2392 32.0522 52.3273 32.0132C52.4167 31.975 52.5128 31.9553 52.61 31.9553C52.7053 31.9539 52.7996 31.9736 52.8863 32.0132C52.9761 32.049 53.0572 32.1038 53.124 32.1738L55.527 34.5768L60.3394 29.7708H58.4505C58.2562 29.7708 58.0699 29.6936 57.9325 29.5563C57.7952 29.4189 57.718 29.2326 57.718 29.0383C57.718 28.8441 57.7952 28.6578 57.9325 28.5204C58.0699 28.383 58.2562 28.3059 58.4505 28.3059H62.0999C62.2965 28.3093 62.4837 28.3901 62.6209 28.5309C62.7581 28.6717 62.8341 28.861 62.8324 29.0576V32.7071C62.8324 32.9013 62.7552 33.0876 62.6179 33.225C62.4805 33.3624 62.2942 33.4395 62.0999 33.4395C61.9057 33.4395 61.7194 33.3624 61.582 33.225C61.4446 33.0876 61.3675 32.9013 61.3675 32.7071V30.786L56.0475 36.1252C55.9795 36.1938 55.8987 36.2484 55.8097 36.2859C55.7191 36.3189 55.6235 36.3363 55.527 36.3373C55.4326 36.3364 55.3391 36.319 55.2507 36.2859C55.1618 36.2484 55.081 36.1938 55.013 36.1252L52.61 33.7222L47.4699 38.8623V40.7513H64.2909C64.4852 40.7513 64.6715 40.8285 64.8088 40.9658C64.9462 41.1032 65.0234 41.2895 65.0234 41.4838V41.4388Z" fill="url(#paint17_linear_915_15835)"/>
<path d="M65.0234 41.4388C65.0238 41.5348 65.0046 41.6299 64.9671 41.7183C64.9295 41.8067 64.8743 41.8865 64.8049 41.9528C64.6681 42.0883 64.4834 42.1645 64.2909 42.1648H46.7696C46.5753 42.1634 46.3891 42.0875 46.2491 41.9528C46.1137 41.816 46.0375 41.6313 46.0371 41.4388V26.8345C46.0371 26.6403 46.1143 26.454 46.2516 26.3166C46.389 26.1792 46.5753 26.1021 46.7696 26.1021C46.8656 26.1016 46.9607 26.1208 47.0491 26.1584C47.1374 26.1959 47.2172 26.2511 47.2836 26.3205C47.4191 26.4573 47.4952 26.642 47.4956 26.8345V36.7677L52.0896 32.1738C52.1587 32.1066 52.2392 32.0522 52.3273 32.0132C52.4167 31.975 52.5128 31.9553 52.61 31.9553C52.7053 31.9539 52.7996 31.9736 52.8863 32.0132C52.9761 32.049 53.0572 32.1038 53.124 32.1738L55.527 34.5768L60.3394 29.7708H58.4505C58.2562 29.7708 58.0699 29.6936 57.9325 29.5563C57.7952 29.4189 57.718 29.2326 57.718 29.0383C57.718 28.8441 57.7952 28.6578 57.9325 28.5204C58.0699 28.383 58.2562 28.3059 58.4505 28.3059H62.0999C62.2965 28.3093 62.4837 28.3901 62.6209 28.5309C62.7581 28.6717 62.8341 28.861 62.8324 29.0576V32.7071C62.8324 32.9013 62.7552 33.0876 62.6179 33.225C62.4805 33.3624 62.2942 33.4395 62.0999 33.4395C61.9057 33.4395 61.7194 33.3624 61.582 33.225C61.4446 33.0876 61.3675 32.9013 61.3675 32.7071V30.786L56.0475 36.1252C55.9795 36.1938 55.8987 36.2484 55.8097 36.2859C55.7191 36.3189 55.6235 36.3363 55.527 36.3373C55.4326 36.3364 55.3391 36.319 55.2507 36.2859C55.1618 36.2484 55.081 36.1938 55.013 36.1252L52.61 33.7222L47.4699 38.8623V40.7513H64.2909C64.4852 40.7513 64.6715 40.8285 64.8088 40.9658C64.9462 41.1032 65.0234 41.2895 65.0234 41.4838V41.4388Z" stroke="url(#paint18_linear_915_15835)" stroke-width="0.25" stroke-miterlimit="10"/>
<rect x="33.2044" y="48.2635" width="20.9324" height="1.85785" rx="0.928924" fill="url(#paint19_linear_915_15835)" stroke="url(#paint20_linear_915_15835)" stroke-width="0.15"/>
<rect x="33.2044" y="56.2947" width="14.9089" height="1.85785" rx="0.928924" fill="url(#paint21_linear_915_15835)" stroke="url(#paint22_linear_915_15835)" stroke-width="0.15"/>
<rect x="33.2044" y="60.3104" width="11.8971" height="1.85785" rx="0.928924" fill="url(#paint23_linear_915_15835)" stroke="url(#paint24_linear_915_15835)" stroke-width="0.15"/>
<rect x="33.2044" y="52.2791" width="11.8971" height="1.85785" rx="0.928924" fill="url(#paint25_linear_915_15835)" stroke="url(#paint26_linear_915_15835)" stroke-width="0.15"/>
<rect x="47.2593" y="52.2791" width="3.86569" height="1.85785" rx="0.928924" fill="url(#paint27_linear_915_15835)" stroke="url(#paint28_linear_915_15835)" stroke-width="0.15"/>
<path d="M67.507 64.6731V56.563C67.5082 56.4766 67.4922 56.3909 67.4597 56.3108C67.4272 56.2307 67.379 56.158 67.3179 56.0969C67.2568 56.0358 67.184 55.9875 67.104 55.9551C67.0239 55.9226 66.9381 55.9065 66.8517 55.9078H65.0473C64.9609 55.9065 64.8751 55.9226 64.7951 55.9551C64.715 55.9875 64.6422 56.0358 64.5811 56.0969C64.52 56.158 64.4718 56.2307 64.4393 56.3108C64.4069 56.3909 64.3908 56.4766 64.3921 56.563V65.9837C64.3894 66.0923 64.4101 66.2002 64.4527 66.3001C64.4953 66.4 64.5588 66.4897 64.639 66.563L69.4727 70.0862C69.5454 70.1388 69.6278 70.1765 69.7151 70.1969C69.8025 70.2173 69.8931 70.22 69.9815 70.205C70.0699 70.19 70.1545 70.1574 70.2302 70.1093C70.3059 70.0612 70.3712 69.9984 70.4224 69.9247L71.4955 68.4433C71.5984 68.2946 71.6382 68.1111 71.6061 67.9331C71.5741 67.7552 71.4729 67.5971 71.3246 67.4936L67.507 64.6731Z" fill="url(#paint29_linear_915_15835)"/>
<path d="M53.4142 74.0171C54.8498 75.8872 56.6981 77.4002 58.8149 78.438C60.9317 79.4758 63.2598 80.0104 65.6173 80C69.7221 79.9899 73.656 78.3549 76.5585 75.4523C79.4611 72.5497 81.0962 68.6159 81.1062 64.511C81.1138 62.4901 80.72 60.4878 79.9476 58.6203C79.1751 56.7528 78.0394 55.0573 76.6064 53.6322C75.1734 52.2072 73.4717 51.081 71.5999 50.3189C69.7281 49.5569 67.7236 49.1742 65.7028 49.193C62.9616 49.1849 60.2676 49.9057 57.8967 51.2815C55.5259 52.6574 53.5635 54.6388 52.2106 57.0228C50.8576 59.4069 50.1629 62.1077 50.1975 64.8486C50.2321 67.5896 50.9949 70.272 52.4075 72.6211L53.4142 74.0171ZM65.7028 77.2175C63.2314 77.225 60.8133 76.4996 58.7542 75.133C56.695 73.7664 55.0873 71.82 54.1342 69.5398C53.1811 67.2596 52.9254 64.7481 53.3995 62.3226C53.8735 59.8971 55.0561 57.6667 56.7976 55.9132C58.5392 54.1597 60.7615 52.9619 63.1837 52.4713C65.6058 51.9806 68.1191 52.2191 70.4057 53.1566C72.6924 54.0941 74.6497 55.6885 76.0303 57.7383C77.411 59.7881 78.1529 62.2011 78.1623 64.6725C78.1748 66.3162 77.8617 67.9462 77.2411 69.4683C76.6204 70.9904 75.7045 72.3745 74.5462 73.5408C73.3878 74.7071 72.01 75.6325 70.4921 76.2635C68.9743 76.8945 67.3465 77.2188 65.7028 77.2175Z" fill="url(#paint30_linear_915_15835)"/>
<path d="M76.3988 47.5224C76.3988 51.0432 76.0637 53.9035 75.6509 53.9035C75.2381 53.9035 74.8933 51.0432 74.8933 47.5224C74.8933 44.0016 75.243 41.1606 75.6509 41.1606C76.0588 41.1606 76.3988 43.9967 76.3988 47.5224Z" fill="url(#paint31_radial_915_15835)"/>
<path d="M75.6519 48.2608C72.1311 48.2608 69.2708 47.9257 69.2708 47.513C69.2708 47.1002 72.1311 46.7554 75.6519 46.7554C79.1728 46.7554 82.0137 47.105 82.0137 47.513C82.0137 47.9209 79.1776 48.2608 75.6519 48.2608Z" fill="url(#paint32_radial_915_15835)"/>
<defs>
<linearGradient id="paint0_linear_915_15835" x1="-3.51268e-08" y1="6" x2="57.8629" y2="2.54151" gradientUnits="userSpaceOnUse">
<stop stop-color="#F0EFEF" stop-opacity="0.3"/>
<stop offset="0.35" stop-color="#FAFBFC" stop-opacity="0.4"/>
<stop offset="0.72" stop-color="white" stop-opacity="0.5"/>
<stop offset="0.96" stop-color="white" stop-opacity="0.85"/>
<stop offset="1" stop-color="white" stop-opacity="0.8"/>
</linearGradient>
<linearGradient id="paint1_linear_915_15835" x1="73.8084" y1="76.9626" x2="26.3811" y2="83.2378" gradientUnits="userSpaceOnUse">
<stop stop-color="white" stop-opacity="0.9"/>
<stop offset="0.28" stop-color="white" stop-opacity="0.5"/>
<stop offset="0.65" stop-color="#FAFBFC" stop-opacity="0.4"/>
<stop offset="1" stop-color="#F0EFEF" stop-opacity="0"/>
</linearGradient>
<radialGradient id="paint2_radial_915_15835" cx="0" cy="0" r="1" gradientUnits="userSpaceOnUse" gradientTransform="translate(7.26463 6.82715) scale(0.744758 6.38562)">
<stop stop-color="white"/>
<stop offset="0.07" stop-color="white" stop-opacity="0.93"/>
<stop offset="1" stop-color="white" stop-opacity="0"/>
</radialGradient>
<radialGradient id="paint3_radial_915_15835" cx="0" cy="0" r="1" gradientUnits="userSpaceOnUse" gradientTransform="translate(6.91968 6.23265) rotate(90) scale(0.744758 6.38562)">
<stop stop-color="white"/>
<stop offset="0.07" stop-color="white" stop-opacity="0.93"/>
<stop offset="1" stop-color="white" stop-opacity="0"/>
</radialGradient>
<linearGradient id="paint4_linear_915_15835" x1="22.498" y1="26.1021" x2="22.498" y2="42.1391" gradientUnits="userSpaceOnUse">
<stop stop-color="white" stop-opacity="0.9"/>
<stop offset="0.04" stop-color="white" stop-opacity="0.85"/>
<stop offset="0.28" stop-color="white" stop-opacity="0.5"/>
<stop offset="0.65" stop-color="#FAFBFC" stop-opacity="0.4"/>
<stop offset="1" stop-color="#F0EFEF" stop-opacity="0.3"/>
</linearGradient>
<linearGradient id="paint5_linear_915_15835" x1="11.0492" y1="34.1334" x2="33.953" y2="34.1334" gradientUnits="userSpaceOnUse">
<stop stop-color="#79A540"/>
<stop offset="0.2" stop-color="#94C63D"/>
<stop offset="0.39" stop-color="#98CA3C"/>
<stop offset="0.59" stop-color="#93C53E"/>
<stop offset="0.74" stop-color="#9DCB3B"/>
<stop offset="0.9" stop-color="#A6CE39"/>
<stop offset="1" stop-color="#A6CE39"/>
</linearGradient>
<linearGradient id="paint6_linear_915_15835" x1="22.532" y1="26.1021" x2="22.532" y2="42.1392" gradientUnits="userSpaceOnUse">
<stop stop-color="white" stop-opacity="0.9"/>
<stop offset="0.04" stop-color="white" stop-opacity="0.85"/>
<stop offset="0.28" stop-color="white" stop-opacity="0.5"/>
<stop offset="0.65" stop-color="#FAFBFC" stop-opacity="0.4"/>
<stop offset="1" stop-color="#F0EFEF" stop-opacity="0.3"/>
</linearGradient>
<linearGradient id="paint7_linear_915_15835" x1="11.0863" y1="34.1334" x2="33.9839" y2="34.1334" gradientUnits="userSpaceOnUse">
<stop stop-color="#79A540"/>
<stop offset="0.2" stop-color="#94C63D"/>
<stop offset="0.39" stop-color="#98CA3C"/>
<stop offset="0.59" stop-color="#93C53E"/>
<stop offset="0.74" stop-color="#9DCB3B"/>
<stop offset="0.9" stop-color="#A6CE39"/>
<stop offset="1" stop-color="#A6CE39"/>
</linearGradient>
<linearGradient id="paint8_linear_915_15835" x1="22.5351" y1="42.2161" x2="22.5351" y2="26.0187" gradientUnits="userSpaceOnUse">
<stop stop-color="white" stop-opacity="0.9"/>
<stop offset="0.28" stop-color="white" stop-opacity="0.5"/>
<stop offset="0.65" stop-color="#FAFBFC" stop-opacity="0.4"/>
<stop offset="1" stop-color="#F0EFEF" stop-opacity="0.3"/>
</linearGradient>
<linearGradient id="paint9_linear_915_15835" x1="19.0649" y1="47.1139" x2="19.0649" y2="63.2606" gradientUnits="userSpaceOnUse">
<stop stop-color="white" stop-opacity="0.9"/>
<stop offset="0.04" stop-color="white" stop-opacity="0.85"/>
<stop offset="0.28" stop-color="white" stop-opacity="0.5"/>
<stop offset="0.65" stop-color="#FAFBFC" stop-opacity="0.4"/>
<stop offset="1" stop-color="#F0EFEF" stop-opacity="0.3"/>
</linearGradient>
<linearGradient id="paint10_linear_915_15835" x1="11.0474" y1="55.2131" x2="27.1341" y2="55.2131" gradientUnits="userSpaceOnUse">
<stop stop-color="#79A540"/>
<stop offset="0.2" stop-color="#94C63D"/>
<stop offset="0.39" stop-color="#98CA3C"/>
<stop offset="0.59" stop-color="#93C53E"/>
<stop offset="0.74" stop-color="#9DCB3B"/>
<stop offset="0.9" stop-color="#A6CE39"/>
<stop offset="1" stop-color="#A6CE39"/>
</linearGradient>
<linearGradient id="paint11_linear_915_15835" x1="19.0391" y1="47.107" x2="19.0391" y2="63.2732" gradientUnits="userSpaceOnUse">
<stop stop-color="white" stop-opacity="0.9"/>
<stop offset="0.04" stop-color="white" stop-opacity="0.85"/>
<stop offset="0.28" stop-color="white" stop-opacity="0.5"/>
<stop offset="0.65" stop-color="#FAFBFC" stop-opacity="0.4"/>
<stop offset="1" stop-color="#F0EFEF" stop-opacity="0.3"/>
</linearGradient>
<linearGradient id="paint12_linear_915_15835" x1="11.0474" y1="55.216" x2="27.0824" y2="55.216" gradientUnits="userSpaceOnUse">
<stop stop-color="#79A540"/>
<stop offset="0.2" stop-color="#94C63D"/>
<stop offset="0.39" stop-color="#98CA3C"/>
<stop offset="0.59" stop-color="#93C53E"/>
<stop offset="0.74" stop-color="#9DCB3B"/>
<stop offset="0.9" stop-color="#A6CE39"/>
<stop offset="1" stop-color="#A6CE39"/>
</linearGradient>
<linearGradient id="paint13_linear_915_15835" x1="19.0649" y1="63.3571" x2="19.0649" y2="47.0489" gradientUnits="userSpaceOnUse">
<stop stop-color="white" stop-opacity="0.9"/>
<stop offset="0.28" stop-color="white" stop-opacity="0.5"/>
<stop offset="0.65" stop-color="#FAFBFC" stop-opacity="0.4"/>
<stop offset="1" stop-color="#F0EFEF" stop-opacity="0.3"/>
</linearGradient>
<linearGradient id="paint14_linear_915_15835" x1="55.527" y1="26.1021" x2="55.527" y2="42.1648" gradientUnits="userSpaceOnUse">
<stop stop-color="white" stop-opacity="0.9"/>
<stop offset="0.04" stop-color="white" stop-opacity="0.85"/>
<stop offset="0.28" stop-color="white" stop-opacity="0.5"/>
<stop offset="0.65" stop-color="#FAFBFC" stop-opacity="0.4"/>
<stop offset="1" stop-color="#F0EFEF" stop-opacity="0.3"/>
</linearGradient>
<linearGradient id="paint15_linear_915_15835" x1="46.042" y1="34.1334" x2="65.0184" y2="34.1334" gradientUnits="userSpaceOnUse">
<stop stop-color="#79A540"/>
<stop offset="0.2" stop-color="#94C63D"/>
<stop offset="0.39" stop-color="#98CA3C"/>
<stop offset="0.59" stop-color="#93C53E"/>
<stop offset="0.74" stop-color="#9DCB3B"/>
<stop offset="0.9" stop-color="#A6CE39"/>
<stop offset="1" stop-color="#A6CE39"/>
</linearGradient>
<linearGradient id="paint16_linear_915_15835" x1="55.527" y1="26.1021" x2="55.527" y2="42.1648" gradientUnits="userSpaceOnUse">
<stop stop-color="white" stop-opacity="0.9"/>
<stop offset="0.04" stop-color="white" stop-opacity="0.85"/>
<stop offset="0.28" stop-color="white" stop-opacity="0.5"/>
<stop offset="0.65" stop-color="#FAFBFC" stop-opacity="0.4"/>
<stop offset="1" stop-color="#F0EFEF" stop-opacity="0.3"/>
</linearGradient>
<linearGradient id="paint17_linear_915_15835" x1="46.042" y1="34.1334" x2="65.0184" y2="34.1334" gradientUnits="userSpaceOnUse">
<stop stop-color="#79A540"/>
<stop offset="0.2" stop-color="#94C63D"/>
<stop offset="0.39" stop-color="#98CA3C"/>
<stop offset="0.59" stop-color="#93C53E"/>
<stop offset="0.74" stop-color="#9DCB3B"/>
<stop offset="0.9" stop-color="#A6CE39"/>
<stop offset="1" stop-color="#A6CE39"/>
</linearGradient>
<linearGradient id="paint18_linear_915_15835" x1="55.527" y1="42.2484" x2="55.527" y2="26.025" gradientUnits="userSpaceOnUse">
<stop stop-color="white" stop-opacity="0.9"/>
<stop offset="0.28" stop-color="white" stop-opacity="0.5"/>
<stop offset="0.65" stop-color="#FAFBFC" stop-opacity="0.4"/>
<stop offset="1" stop-color="#F0EFEF" stop-opacity="0.3"/>
</linearGradient>
<linearGradient id="paint19_linear_915_15835" x1="36.4235" y1="48.4036" x2="49.5404" y2="44.2291" gradientUnits="userSpaceOnUse">
<stop stop-color="#F0EFEF" stop-opacity="0.3"/>
<stop offset="0.35" stop-color="#FAFBFC" stop-opacity="0.4"/>
<stop offset="0.618201" stop-color="white" stop-opacity="0.5"/>
<stop offset="0.865916" stop-color="white" stop-opacity="0.7"/>
<stop offset="1" stop-color="white" stop-opacity="0.8"/>
</linearGradient>
<linearGradient id="paint20_linear_915_15835" x1="53.919" y1="50.3265" x2="48.6162" y2="56.9567" gradientUnits="userSpaceOnUse">
<stop stop-color="white" stop-opacity="0.9"/>
<stop offset="0.28" stop-color="white" stop-opacity="0.5"/>
<stop offset="0.65" stop-color="#FAFBFC" stop-opacity="0.4"/>
<stop offset="1" stop-color="#F0EFEF" stop-opacity="0"/>
</linearGradient>
<linearGradient id="paint21_linear_915_15835" x1="35.4823" y1="56.4349" x2="45.2935" y2="54.2045" gradientUnits="userSpaceOnUse">
<stop stop-color="#F0EFEF" stop-opacity="0.3"/>
<stop offset="0.35" stop-color="#FAFBFC" stop-opacity="0.4"/>
<stop offset="0.618201" stop-color="white" stop-opacity="0.5"/>
<stop offset="0.865916" stop-color="white" stop-opacity="0.7"/>
<stop offset="1" stop-color="white" stop-opacity="0.8"/>
</linearGradient>
<linearGradient id="paint22_linear_915_15835" x1="47.9791" y1="58.3577" x2="42.578" y2="63.1814" gradientUnits="userSpaceOnUse">
<stop stop-color="white" stop-opacity="0.9"/>
<stop offset="0.28" stop-color="white" stop-opacity="0.5"/>
<stop offset="0.65" stop-color="#FAFBFC" stop-opacity="0.4"/>
<stop offset="1" stop-color="#F0EFEF" stop-opacity="0"/>
</linearGradient>
<linearGradient id="paint23_linear_915_15835" x1="35.0118" y1="60.4505" x2="43.0021" y2="58.9974" gradientUnits="userSpaceOnUse">
<stop stop-color="#F0EFEF" stop-opacity="0.3"/>
<stop offset="0.35" stop-color="#FAFBFC" stop-opacity="0.4"/>
<stop offset="0.618201" stop-color="white" stop-opacity="0.5"/>
<stop offset="0.865916" stop-color="white" stop-opacity="0.7"/>
<stop offset="1" stop-color="white" stop-opacity="0.8"/>
</linearGradient>
<linearGradient id="paint24_linear_915_15835" x1="45.0092" y1="62.3733" x2="39.8669" y2="66.0474" gradientUnits="userSpaceOnUse">
<stop stop-color="white" stop-opacity="0.9"/>
<stop offset="0.28" stop-color="white" stop-opacity="0.5"/>
<stop offset="0.65" stop-color="#FAFBFC" stop-opacity="0.4"/>
<stop offset="1" stop-color="#F0EFEF" stop-opacity="0"/>
</linearGradient>
<linearGradient id="paint25_linear_915_15835" x1="35.0118" y1="52.4192" x2="43.0021" y2="50.9661" gradientUnits="userSpaceOnUse">
<stop stop-color="#F0EFEF" stop-opacity="0.3"/>
<stop offset="0.35" stop-color="#FAFBFC" stop-opacity="0.4"/>
<stop offset="0.618201" stop-color="white" stop-opacity="0.5"/>
<stop offset="0.865916" stop-color="white" stop-opacity="0.7"/>
<stop offset="1" stop-color="white" stop-opacity="0.8"/>
</linearGradient>
<linearGradient id="paint26_linear_915_15835" x1="45.0092" y1="54.3421" x2="39.8669" y2="58.0161" gradientUnits="userSpaceOnUse">
<stop stop-color="white" stop-opacity="0.9"/>
<stop offset="0.28" stop-color="white" stop-opacity="0.5"/>
<stop offset="0.65" stop-color="#FAFBFC" stop-opacity="0.4"/>
<stop offset="1" stop-color="#F0EFEF" stop-opacity="0"/>
</linearGradient>
<linearGradient id="paint27_linear_915_15835" x1="47.8118" y1="52.4192" x2="50.5532" y2="52.253" gradientUnits="userSpaceOnUse">
<stop stop-color="#F0EFEF" stop-opacity="0.3"/>
<stop offset="0.35" stop-color="#FAFBFC" stop-opacity="0.4"/>
<stop offset="0.618201" stop-color="white" stop-opacity="0.5"/>
<stop offset="0.865916" stop-color="white" stop-opacity="0.7"/>
<stop offset="1" stop-color="white" stop-opacity="0.8"/>
</linearGradient>
<linearGradient id="paint28_linear_915_15835" x1="51.1442" y1="54.3421" x2="48.6941" y2="54.9256" gradientUnits="userSpaceOnUse">
<stop stop-color="white" stop-opacity="0.9"/>
<stop offset="0.28" stop-color="white" stop-opacity="0.5"/>
<stop offset="0.65" stop-color="#FAFBFC" stop-opacity="0.4"/>
<stop offset="1" stop-color="#F0EFEF" stop-opacity="0"/>
</linearGradient>
<linearGradient id="paint29_linear_915_15835" x1="64.3921" y1="63.0682" x2="71.6665" y2="63.0682" gradientUnits="userSpaceOnUse">
<stop stop-color="#79A540"/>
<stop offset="0.2" stop-color="#94C63D"/>
<stop offset="0.39" stop-color="#98CA3C"/>
<stop offset="0.59" stop-color="#93C53E"/>
<stop offset="0.74" stop-color="#9DCB3B"/>
<stop offset="0.9" stop-color="#A6CE39"/>
<stop offset="1" stop-color="#A6CE39"/>
</linearGradient>
<linearGradient id="paint30_linear_915_15835" x1="50.2138" y1="64.5965" x2="81.1062" y2="64.5965" gradientUnits="userSpaceOnUse">
<stop stop-color="#79A540"/>
<stop offset="0.2" stop-color="#94C63D"/>
<stop offset="0.39" stop-color="#98CA3C"/>
<stop offset="0.59" stop-color="#93C53E"/>
<stop offset="0.74" stop-color="#9DCB3B"/>
<stop offset="0.9" stop-color="#A6CE39"/>
<stop offset="1" stop-color="#A6CE39"/>
</linearGradient>
<radialGradient id="paint31_radial_915_15835" cx="0" cy="0" r="1" gradientUnits="userSpaceOnUse" gradientTransform="translate(75.5312 47.9878) scale(0.744758 6.38562)">
<stop stop-color="white"/>
<stop offset="0.07" stop-color="white" stop-opacity="0.93"/>
<stop offset="1" stop-color="white" stop-opacity="0"/>
</radialGradient>
<radialGradient id="paint32_radial_915_15835" cx="0" cy="0" r="1" gradientUnits="userSpaceOnUse" gradientTransform="translate(75.1865 47.3933) rotate(90) scale(0.744758 6.38562)">
<stop stop-color="white"/>
<stop offset="0.07" stop-color="white" stop-opacity="0.93"/>
<stop offset="1" stop-color="white" stop-opacity="0"/>
</radialGradient>
</defs>
</svg>
