<svg width="79" height="80" viewBox="0 0 79 80" fill="none" xmlns="http://www.w3.org/2000/svg">
<path d="M67.3402 48.6116L67.4069 48.4673C71.9539 38.6191 74.0551 26.2341 73.3161 10.9424C63.6328 11.7834 52.3751 8.02748 39.9326 0.153132C30.5163 7.61531 18.6447 11.2757 6.6622 10.4124C6.2647 26.1289 8.4682 38.6644 12.856 48.4455L12.9232 48.5954L12.7609 48.6203C11.6449 48.7911 10.6268 49.3551 9.89025 50.2107C9.15373 51.0662 8.74727 52.1568 8.74421 53.2857C8.74421 53.2857 8.74421 53.2858 8.74421 53.2858L8.61921 53.2855L67.3402 48.6116ZM67.3402 48.6116L67.4962 48.6423C68.5738 48.8542 69.5448 49.4324 70.2444 50.2789C70.944 51.1254 71.3291 52.1879 71.3344 53.2861L67.3402 48.6116ZM17.7639 48.4961L17.7987 48.5643H17.8753H62.3526H62.4285L62.4635 48.4969C66.9434 39.871 69.1159 28.8117 68.4491 15.2445L68.4427 15.1143L68.3129 15.1262C60.3159 15.8573 50.3772 12.1777 40.0144 5.60198L39.9389 5.55406L39.8691 5.61007C31.9102 12.003 21.8749 15.2394 11.6805 14.7009L11.5524 14.6942L11.549 14.8225C11.1811 28.8356 13.4224 39.9857 17.7639 48.4961Z" stroke="url(#paint0_linear_914_15744)" stroke-width="0.25" stroke-miterlimit="10"/>
<path fill-rule="evenodd" clip-rule="evenodd" d="M62.3526 48.4393H17.8753C13.5458 39.9526 11.3065 28.8247 11.6739 14.8258C21.899 15.3659 31.9645 12.1197 39.9474 5.70752C50.3174 12.2878 60.2855 15.9857 68.3242 15.2507C68.9903 28.8017 66.8198 39.8378 62.3526 48.4393ZM70.3408 50.1993C69.6228 49.3306 68.6262 48.7371 67.5204 48.5197C72.091 38.6205 74.1925 26.1719 73.4346 10.8064C63.7421 11.6907 52.4419 7.9354 39.9244 0C30.4875 7.50704 18.5657 11.1775 6.54062 10.2781C6.1272 26.0686 8.33211 38.6664 12.7419 48.4967C11.5965 48.672 10.5515 49.251 9.79552 50.1291C9.03951 51.0073 8.62231 52.1268 8.61921 53.2855V72.5785C8.62223 73.864 9.13342 75.096 10.0413 76.0061C10.9491 76.9161 12.18 77.4302 13.4654 77.4362H66.6131C67.8976 77.4272 69.1268 76.9121 70.034 76.0028C70.9412 75.0934 71.4533 73.863 71.4594 72.5785V53.2855C71.454 52.1585 71.0588 51.068 70.3408 50.1993ZM58.753 57.4929C58.4397 57.8085 58.2636 58.2365 58.2636 58.6828V60.8435L56.4543 59.6586C56.0859 59.413 55.6357 59.3249 55.2028 59.4136C54.7698 59.5023 54.3896 59.7605 54.1458 60.1316C53.9019 60.5026 53.8144 60.956 53.9025 61.3921C53.9905 61.8281 54.247 62.211 54.6154 62.4566L56.9289 64.01L54.6253 65.5633C54.2582 65.8102 54.0035 66.1939 53.9173 66.6299C53.8311 67.066 53.9204 67.5186 54.1655 67.8883C54.4107 68.2581 54.7917 68.5145 55.2246 68.6014C55.6575 68.6882 56.107 68.5983 56.4741 68.3514L58.2636 67.1465V69.2973C58.2636 69.7436 58.4397 70.1716 58.753 70.4872C59.0664 70.8028 59.4914 70.9801 59.9345 70.9801C60.3776 70.9801 60.8026 70.8028 61.116 70.4872C61.4293 70.1716 61.6054 69.7436 61.6054 69.2973V67.1166L63.4147 68.3215C63.5971 68.4431 63.8015 68.5273 64.0163 68.5694C64.231 68.6114 64.4519 68.6104 64.6662 68.5665C64.8806 68.5226 65.0843 68.4366 65.2657 68.3134C65.447 68.1902 65.6025 68.0322 65.7233 67.8485C65.844 67.6648 65.9276 67.4589 65.9694 67.2426C66.0111 67.0264 66.0102 66.8039 65.9666 66.588C65.923 66.3721 65.8375 66.167 65.7152 65.9843C65.5929 65.8017 65.4361 65.6451 65.2536 65.5235L62.9401 63.9801L65.2536 62.4168C65.6207 62.1699 65.8754 61.7862 65.9616 61.3502C66.0478 60.9141 65.9585 60.4615 65.7134 60.0918C65.4682 59.722 65.0872 59.4655 64.6543 59.3787C64.2214 59.2919 63.7719 59.3818 63.4048 59.6287L61.6054 60.8435V58.6828C61.6054 58.2365 61.4293 57.8085 61.116 57.4929C60.8026 57.1773 60.3776 57 59.9345 57C59.4914 57 59.0664 57.1773 58.753 57.4929ZM19.9372 57.4929C19.6239 57.8085 19.4479 58.2365 19.4479 58.6828V60.8435L17.6682 59.6586C17.4863 59.5223 17.2786 59.4247 17.058 59.3717C16.8374 59.3188 16.6084 59.3117 16.3849 59.3508C16.1615 59.3899 15.9482 59.4744 15.7583 59.5991C15.5683 59.7239 15.4055 59.8863 15.2799 60.0764C15.1542 60.2666 15.0683 60.4805 15.0274 60.7052C14.9865 60.9299 14.9914 61.1606 15.0419 61.3833C15.0924 61.6059 15.1873 61.816 15.321 62.0005C15.4547 62.185 15.6242 62.3402 15.8194 62.4566L18.1428 64.01L15.8293 65.5633C15.4622 65.8102 15.2075 66.1939 15.1213 66.6299C15.0351 67.066 15.1244 67.5186 15.3695 67.8883C15.6147 68.2581 15.9957 68.5145 16.4286 68.6014C16.8615 68.6882 17.311 68.5983 17.6781 68.3514L19.4676 67.1465V69.3172C19.4676 69.5382 19.5108 69.757 19.5948 69.9612C19.6788 70.1654 19.8019 70.3509 19.957 70.5071C20.1122 70.6634 20.2964 70.7873 20.4991 70.8719C20.7018 70.9565 20.9191 71 21.1385 71C21.3579 71 21.5752 70.9565 21.7779 70.8719C21.9806 70.7873 22.1648 70.6634 22.32 70.5071C22.4752 70.3509 22.5982 70.1654 22.6822 69.9612C22.7662 69.757 22.8094 69.5382 22.8094 69.3172V67.1366L24.6187 68.3414C24.8011 68.463 25.0055 68.5472 25.2203 68.5893C25.435 68.6313 25.6559 68.6304 25.8702 68.5864C26.0846 68.5425 26.2883 68.4565 26.4696 68.3333C26.651 68.2101 26.8065 68.0521 26.9273 67.8684C27.048 67.6847 27.1316 67.4788 27.1734 67.2626C27.2151 67.0463 27.2142 66.8238 27.1706 66.6079C27.127 66.3921 27.0416 66.1869 26.9192 66.0043C26.7969 65.8216 26.6401 65.665 26.4576 65.5434L24.1441 64L26.4379 62.4168C26.805 62.1699 27.0596 61.7862 27.1459 61.3502C27.2321 60.9141 27.1428 60.4615 26.8976 60.0918C26.6524 59.722 26.2715 59.4655 25.8385 59.3787C25.4056 59.2919 24.9561 59.3818 24.589 59.6287L22.7896 60.8435V58.6828C22.7896 58.2365 22.6136 57.8085 22.3002 57.4929C21.9869 57.1773 21.5619 57 21.1187 57C20.6756 57 20.2506 57.1773 19.9372 57.4929ZM39.3451 57.4929C39.0318 57.8085 38.8557 58.2365 38.8557 58.6828V60.8435L37.1058 59.6586C36.9238 59.5223 36.7162 59.4247 36.4956 59.3717C36.2749 59.3188 36.0459 59.3117 35.8225 59.3508C35.599 59.3899 35.3858 59.4744 35.1958 59.5991C35.0058 59.7239 34.8431 59.8863 34.7174 60.0764C34.5918 60.2666 34.5059 60.4805 34.465 60.7052C34.424 60.9299 34.429 61.1606 34.4795 61.3833C34.5299 61.6059 34.6249 61.816 34.7586 62.0005C34.8922 62.185 35.0618 62.3402 35.2569 62.4566L37.5803 64.01L35.2668 65.5633C35.085 65.6856 34.929 65.8427 34.8075 66.0257C34.686 66.2087 34.6015 66.414 34.5588 66.6299C34.5161 66.8458 34.5161 67.0681 34.5587 67.284C34.6013 67.4999 34.6857 67.7053 34.8071 67.8883C34.9285 68.0714 35.0845 68.2286 35.2662 68.3509C35.4479 68.4733 35.6518 68.5584 35.8661 68.6014C36.0805 68.6444 36.3012 68.6444 36.5156 68.6015C36.73 68.5586 36.9339 68.4736 37.1157 68.3514L38.9052 67.1465V69.3172C38.9052 69.7635 39.0812 70.1915 39.3946 70.5071C39.7079 70.8227 40.1329 71 40.576 71C41.0192 71 41.4442 70.8227 41.7575 70.5071C42.0709 70.1915 42.2469 69.7635 42.2469 69.3172V67.1366L44.0562 68.3414C44.2386 68.463 44.4431 68.5472 44.6578 68.5893C44.8725 68.6313 45.0934 68.6304 45.3078 68.5864C45.5221 68.5425 45.7258 68.4565 45.9072 68.3333C46.0886 68.2101 46.2441 68.0521 46.3648 67.8684C46.4855 67.6847 46.5692 67.4788 46.6109 67.2626C46.6527 67.0463 46.6517 66.8238 46.6081 66.6079C46.5645 66.3921 46.4791 66.1869 46.3568 66.0043C46.2345 65.8216 46.0776 65.665 45.8952 65.5434L43.5817 64L45.8952 62.4367C46.2649 62.1832 46.5195 61.7921 46.6029 61.3496C46.6864 60.907 46.5918 60.4492 46.3401 60.0768C46.0884 59.7045 45.7001 59.4481 45.2606 59.364C44.8212 59.28 44.3666 59.3752 43.9969 59.6287L42.1975 60.8435V58.6828C42.1975 58.2365 42.0215 57.8085 41.7081 57.4929C41.3948 57.1773 40.9698 57 40.5266 57C40.0835 57 39.6585 57.1773 39.3451 57.4929Z" fill="url(#paint1_linear_914_15744)"/>
<path fill-rule="evenodd" clip-rule="evenodd" d="M30.9208 24.3458H31.828V22.2443C31.8228 20.0109 32.683 17.8623 34.2281 16.2497C34.9735 15.4556 35.8736 14.8228 36.8731 14.3902C37.8725 13.9576 38.95 13.7344 40.039 13.7344C41.1281 13.7344 42.2055 13.9576 43.205 14.3902C44.2044 14.8228 45.1046 15.4556 45.8499 16.2497C47.395 17.8623 48.2552 20.0109 48.25 22.2443V24.3458H49.1573C49.5116 24.3458 49.8517 24.4858 50.1033 24.7353C50.355 24.9848 50.4979 25.3236 50.5009 25.678V39.8377C50.4979 40.192 50.355 40.5308 50.1033 40.7803C49.8517 41.0298 49.5116 41.1698 49.1573 41.1698H30.9208C30.5664 41.1698 30.2264 41.0298 29.9747 40.7803C29.7231 40.5308 29.5802 40.192 29.5771 39.8377V25.678C29.5802 25.3236 29.7231 24.9848 29.9747 24.7353C30.2264 24.4858 30.5664 24.3458 30.9208 24.3458ZM34.366 24.3458H45.7121V22.2443C45.7317 20.6707 45.1387 19.1511 44.0584 18.0067C43.5498 17.4559 42.9326 17.0164 42.2458 16.7157C41.559 16.4151 40.8174 16.2599 40.0677 16.2599C39.318 16.2599 38.5764 16.4151 37.8896 16.7157C37.2028 17.0164 36.5857 17.4559 36.0771 18.0067C34.9915 19.1495 34.3906 20.6682 34.4004 22.2443V24.3458H34.366ZM38.9595 33.3837L37.5126 37.1619H42.6114L41.2678 33.3263C41.7964 33.0531 42.2167 32.6087 42.4601 32.0657C42.7035 31.5227 42.7555 30.9132 42.6077 30.3368C42.4599 29.7605 42.121 29.2512 41.6463 28.8924C41.1717 28.5335 40.5894 28.3462 39.9946 28.3611C39.3997 28.3759 38.8275 28.5921 38.3714 28.9742C37.9153 29.3564 37.6022 29.8819 37.4834 30.4649C37.3646 31.048 37.447 31.6541 37.7172 32.1843C37.9874 32.7144 38.4294 33.1372 38.971 33.3837H38.9595Z" fill="url(#paint2_linear_914_15744)"/>
<path fill-rule="evenodd" clip-rule="evenodd" d="M30.9208 24.3458H31.828V22.2443C31.8228 20.0109 32.683 17.8623 34.2281 16.2497C34.9735 15.4556 35.8736 14.8228 36.8731 14.3902C37.8725 13.9576 38.95 13.7344 40.039 13.7344C41.1281 13.7344 42.2055 13.9576 43.205 14.3902C44.2044 14.8228 45.1046 15.4556 45.8499 16.2497C47.395 17.8623 48.2552 20.0109 48.25 22.2443V24.3458H49.1573C49.5116 24.3458 49.8517 24.4858 50.1033 24.7353C50.355 24.9848 50.4979 25.3236 50.5009 25.678V39.8377C50.4979 40.192 50.355 40.5308 50.1033 40.7803C49.8517 41.0298 49.5116 41.1698 49.1573 41.1698H30.9208C30.5664 41.1698 30.2264 41.0298 29.9747 40.7803C29.7231 40.5308 29.5802 40.192 29.5771 39.8377V25.678C29.5802 25.3236 29.7231 24.9848 29.9747 24.7353C30.2264 24.4858 30.5664 24.3458 30.9208 24.3458ZM34.366 24.3458H45.7121V22.2443C45.7317 20.6707 45.1387 19.1511 44.0584 18.0067C43.5498 17.4559 42.9326 17.0164 42.2458 16.7157C41.559 16.4151 40.8174 16.2599 40.0677 16.2599C39.318 16.2599 38.5764 16.4151 37.8896 16.7157C37.2028 17.0164 36.5857 17.4559 36.0771 18.0067C34.9915 19.1495 34.3906 20.6682 34.4004 22.2443V24.3458H34.366ZM38.9595 33.3837L37.5126 37.1619H42.6114L41.2678 33.3263C41.7964 33.0531 42.2167 32.6087 42.4601 32.0657C42.7035 31.5227 42.7555 30.9132 42.6077 30.3368C42.4599 29.7605 42.121 29.2512 41.6463 28.8924C41.1717 28.5335 40.5894 28.3462 39.9946 28.3611C39.3997 28.3759 38.8275 28.5921 38.3714 28.9742C37.9153 29.3564 37.6022 29.8819 37.4834 30.4649C37.3646 31.048 37.447 31.6541 37.7172 32.1843C37.9874 32.7144 38.4294 33.1372 38.971 33.3837H38.9595Z" stroke="url(#paint3_linear_914_15744)" stroke-width="0.07" stroke-miterlimit="10"/>
<path d="M7.33099 10.4558C7.33099 14.0767 6.98637 17.0185 6.56185 17.0185C6.13732 17.0185 5.78271 14.0767 5.78271 10.4558C5.78271 6.83483 6.14231 3.91309 6.56185 3.91309C6.98138 3.91309 7.33099 6.82983 7.33099 10.4558Z" fill="url(#paint4_radial_914_15744)"/>
<path d="M6.56277 11.2148C2.94181 11.2148 9.05464e-05 10.8702 9.0565e-05 10.4456C9.05836e-05 10.0211 2.94181 9.6665 6.56277 9.6665C10.1837 9.6665 13.1055 10.0261 13.1055 10.4456C13.1055 10.8652 10.1887 11.2148 6.56277 11.2148Z" fill="url(#paint5_radial_914_15744)"/>
<path d="M72.3774 73.4372C72.3774 77.0582 72.0328 79.9999 71.6082 79.9999C71.1837 79.9999 70.8291 77.0582 70.8291 73.4372C70.8291 69.8163 71.1887 66.8945 71.6082 66.8945C72.0278 66.8945 72.3774 69.8113 72.3774 73.4372Z" fill="url(#paint6_radial_914_15744)"/>
<path d="M71.6092 74.1962C67.9882 74.1962 65.0465 73.8516 65.0465 73.4271C65.0465 73.0026 67.9882 72.6479 71.6092 72.6479C75.2301 72.6479 78.1519 73.0075 78.1519 73.4271C78.1519 73.8466 75.2351 74.1962 71.6092 74.1962Z" fill="url(#paint7_radial_914_15744)"/>
<defs>
<linearGradient id="paint0_linear_914_15744" x1="64.0141" y1="79.8007" x2="23.231" y2="13.2055" gradientUnits="userSpaceOnUse">
<stop stop-color="white" stop-opacity="0.9"/>
<stop offset="0.28" stop-color="white" stop-opacity="0.5"/>
<stop offset="0.65" stop-color="#FAFBFC" stop-opacity="0.4"/>
<stop offset="1" stop-color="#F0EFEF" stop-opacity="0"/>
</linearGradient>
<linearGradient id="paint1_linear_914_15744" x1="13.9386" y1="12.173" x2="64.5303" y2="85.4793" gradientUnits="userSpaceOnUse">
<stop stop-color="#F0EFEF" stop-opacity="0.3"/>
<stop offset="0.35" stop-color="#FAFBFC" stop-opacity="0.4"/>
<stop offset="0.72" stop-color="white" stop-opacity="0.5"/>
<stop offset="0.96" stop-color="white" stop-opacity="0.85"/>
<stop offset="1" stop-color="white" stop-opacity="0.9"/>
</linearGradient>
<linearGradient id="paint2_linear_914_15744" x1="40.039" y1="41.1698" x2="40.039" y2="13.7347" gradientUnits="userSpaceOnUse">
<stop stop-color="#79A540"/>
<stop offset="0.2" stop-color="#94C63D"/>
<stop offset="0.39" stop-color="#98CA3C"/>
<stop offset="0.59" stop-color="#93C53E"/>
<stop offset="0.74" stop-color="#9DCB3B"/>
<stop offset="0.9" stop-color="#A6CE39"/>
<stop offset="1" stop-color="#A6CE39"/>
</linearGradient>
<linearGradient id="paint3_linear_914_15744" x1="40.039" y1="41.2158" x2="40.039" y2="13.6887" gradientUnits="userSpaceOnUse">
<stop stop-color="white" stop-opacity="0.9"/>
<stop offset="0.28" stop-color="white" stop-opacity="0.5"/>
<stop offset="0.65" stop-color="#FAFBFC" stop-opacity="0.4"/>
<stop offset="1" stop-color="#F0EFEF" stop-opacity="0.3"/>
</linearGradient>
<radialGradient id="paint4_radial_914_15744" cx="0" cy="0" r="1" gradientUnits="userSpaceOnUse" gradientTransform="translate(6.43878 10.9345) scale(0.765945 6.56727)">
<stop stop-color="white"/>
<stop offset="0.07" stop-color="white" stop-opacity="0.93"/>
<stop offset="1" stop-color="white" stop-opacity="0"/>
</radialGradient>
<radialGradient id="paint5_radial_914_15744" cx="0" cy="0" r="1" gradientUnits="userSpaceOnUse" gradientTransform="translate(6.0841 10.3226) rotate(90) scale(0.765945 6.56727)">
<stop stop-color="white"/>
<stop offset="0.07" stop-color="white" stop-opacity="0.93"/>
<stop offset="1" stop-color="white" stop-opacity="0"/>
</radialGradient>
<radialGradient id="paint6_radial_914_15744" cx="0" cy="0" r="1" gradientUnits="userSpaceOnUse" gradientTransform="translate(71.4852 73.9159) scale(0.765945 6.56727)">
<stop stop-color="white"/>
<stop offset="0.07" stop-color="white" stop-opacity="0.93"/>
<stop offset="1" stop-color="white" stop-opacity="0"/>
</radialGradient>
<radialGradient id="paint7_radial_914_15744" cx="0" cy="0" r="1" gradientUnits="userSpaceOnUse" gradientTransform="translate(71.1305 73.304) rotate(90) scale(0.765945 6.56727)">
<stop stop-color="white"/>
<stop offset="0.07" stop-color="white" stop-opacity="0.93"/>
<stop offset="1" stop-color="white" stop-opacity="0"/>
</radialGradient>
</defs>
</svg>
