<svg width="79" height="81" viewBox="0 0 79 81" fill="none" xmlns="http://www.w3.org/2000/svg">
<path fill-rule="evenodd" clip-rule="evenodd" d="M2.92054 25.5889C4.65709 25.5889 14.3103 25.0475 17.6404 25.1088C18.8253 25.1088 20.5312 25.1905 20.9398 23.7298C21.0072 23.4327 21.0005 23.1236 20.9203 22.8297C20.8401 22.5358 20.689 22.2661 20.4802 22.0443L15.3726 15.9868C41.1553 0.582545 62.8214 22.0851 66.0391 26.5593H73.5778C70.5051 21.4163 66.4462 16.9313 61.6345 13.362C56.8228 9.79267 51.3531 7.2095 45.5399 5.76094C39.7266 4.31237 33.6844 4.02696 27.7605 4.92112C21.8366 5.81527 16.1478 7.87137 11.021 10.9712L7.20063 6.52768C7.00948 6.29013 6.76397 6.10208 6.48483 5.9794C6.2057 5.85672 5.90113 5.80303 5.59688 5.82285C4.20763 5.98629 3.93183 7.43682 3.78882 8.55025C3.35979 11.7578 1.31678 21.6255 1.04098 23.3825C0.984238 23.6561 0.990627 23.9391 1.05966 24.2099C1.12869 24.4807 1.25855 24.7322 1.43936 24.9454C1.62291 25.156 1.85109 25.323 2.10731 25.4343C2.36353 25.5456 2.64134 25.5984 2.92054 25.5889Z" fill="url(#paint0_linear_757_11726)"/>
<path fill-rule="evenodd" clip-rule="evenodd" d="M71.6572 58.8387C69.9207 58.8387 60.2675 59.3801 56.9374 59.3188C55.7525 59.3188 54.0568 59.2269 53.638 60.6876C53.5733 60.9864 53.5813 61.2964 53.6613 61.5915C53.7413 61.8865 53.8909 62.1581 54.0976 62.3833L59.2051 68.4306C33.4633 83.8349 11.7564 62.3016 8.5489 57.8376H1C4.07106 62.9824 8.12868 67.4693 12.9396 71.0406C17.7506 74.612 23.2199 77.1972 29.0333 78.6477C34.8467 80.0982 40.8894 80.3853 46.8142 79.4927C52.7389 78.6 58.4288 76.5452 63.5567 73.4462L67.3772 77.8897C67.5625 78.1312 67.8056 78.3223 68.084 78.4455C68.3624 78.5686 68.6673 78.6199 68.9707 78.5946C70.3702 78.4311 70.6357 76.9806 70.789 75.8671C71.218 72.6596 73.2712 62.8021 73.547 61.0452C73.6017 60.7691 73.5934 60.4843 73.5226 60.2119C73.4519 59.9395 73.3206 59.6866 73.1384 59.472C72.9535 59.2639 72.7248 59.0991 72.4687 58.9896C72.2126 58.8802 71.9356 58.8286 71.6572 58.8387Z" fill="url(#paint1_linear_757_11726)"/>
<path fill-rule="evenodd" clip-rule="evenodd" d="M2.92061 25.5378C4.65716 25.5378 14.3103 24.9964 17.6404 25.0577C18.8254 25.0577 20.5313 25.1497 20.9399 23.6889C21.0072 23.3918 21.0005 23.0827 20.9204 22.7888C20.8402 22.4949 20.6891 22.2252 20.4802 22.0034L15.3727 15.9459C41.1554 0.582544 62.8215 22.0851 66.0392 26.5593H73.5779C70.5051 21.4163 66.4463 16.9313 61.6346 13.362C56.8229 9.79267 51.3532 7.2095 45.54 5.76094C39.7267 4.31237 33.6845 4.02696 27.7606 4.92112C21.8366 5.81527 16.1478 7.87137 11.0211 10.9712L7.2007 6.52768C7.00955 6.29013 6.76404 6.10208 6.4849 5.9794C6.20576 5.85672 5.9012 5.80303 5.59694 5.82285C4.2077 5.98629 3.9319 7.43682 3.78889 8.55025C3.35985 11.7578 1.31685 21.6153 1.04105 23.3722C0.987856 23.6436 0.997238 23.9234 1.06848 24.1906C1.13972 24.4577 1.27094 24.7051 1.45216 24.9139C1.63338 25.1227 1.85983 25.2874 2.11429 25.3955C2.36875 25.5036 2.64451 25.5523 2.92061 25.5378Z" stroke="url(#paint2_linear_757_11726)" stroke-width="0.31" stroke-miterlimit="10"/>
<path fill-rule="evenodd" clip-rule="evenodd" d="M71.6572 58.8387C69.9207 58.8387 60.2675 59.3801 56.9374 59.3188C55.7525 59.3188 54.0568 59.2269 53.638 60.6876C53.5724 60.9848 53.58 61.2934 53.6601 61.587C53.7401 61.8806 53.8903 62.1504 54.0976 62.3731L59.2051 68.4306C33.4633 83.8349 11.7564 62.3016 8.5489 57.8376H1C4.07106 62.9824 8.12868 67.4693 12.9396 71.0406C17.7506 74.612 23.2199 77.1972 29.0333 78.6477C34.8467 80.0982 40.8894 80.3853 46.8142 79.4927C52.7389 78.6 58.4288 76.5452 63.5567 73.4462L67.3772 77.8897C67.5656 78.1278 67.8091 78.3164 68.0868 78.4392C68.3644 78.562 68.6678 78.6153 68.9707 78.5946C70.3702 78.4311 70.6357 76.9806 70.789 75.8671C71.218 72.6596 73.2712 62.8021 73.547 61.0452C73.6034 60.7706 73.5963 60.4867 73.5261 60.2153C73.456 59.9439 73.3248 59.6921 73.1424 59.4792C72.9601 59.2663 72.7314 59.0979 72.474 58.9869C72.2166 58.8759 71.9372 58.8252 71.6572 58.8387Z" stroke="url(#paint3_linear_757_11726)" stroke-width="0.31" stroke-miterlimit="10"/>
<path d="M61.6772 29.2152C61.3971 28.9356 61.0639 28.7148 60.6973 28.5657C60.3307 28.4166 59.938 28.3422 59.5423 28.3469H15.015C14.2275 28.3469 13.4718 28.6583 12.9131 29.2133C12.3543 29.7683 12.0376 30.5217 12.0322 31.3092V53.1183C12.0322 53.9094 12.3465 54.6681 12.9059 55.2274C13.4652 55.7868 14.2239 56.1011 15.015 56.1011H59.5423C59.9401 56.1092 60.3355 56.0382 60.7056 55.8922C61.0758 55.7462 61.4132 55.5281 61.6983 55.2506C61.9834 54.9731 62.2106 54.6417 62.3665 54.2756C62.5225 53.9096 62.6041 53.5162 62.6068 53.1183V31.3092C62.5793 30.5173 62.2461 29.7667 61.6772 29.2152ZM14.0242 31.2582C14.0242 30.9872 14.1318 30.7274 14.3233 30.5359C14.5149 30.3443 14.7747 30.2367 15.0457 30.2367H19.9284C19.7109 31.716 19.0218 33.0856 17.9636 34.142C16.9054 35.1984 15.5345 35.8851 14.0548 36.1001L14.0242 31.2582ZM15.0457 54.0377C14.9122 54.036 14.7803 54.0083 14.6575 53.9559C14.54 53.9038 14.4328 53.8311 14.3408 53.7414C14.25 53.6503 14.1772 53.5429 14.1263 53.4248C14.0787 53.3044 14.0545 53.1762 14.0548 53.0468V48.2151C15.5361 48.4387 16.9047 49.1373 17.9547 50.2058C19.0048 51.2743 19.6795 52.6548 19.8774 54.1398L15.0457 54.0377ZM60.3084 53.7516C60.2165 53.8681 60.1004 53.9631 59.9681 54.0301C59.8358 54.0972 59.6905 54.1346 59.5423 54.1398H54.6901C54.8975 52.6512 55.5821 51.27 56.6412 50.2036C57.7002 49.1372 59.0766 48.443 60.5638 48.2253V53.1183C60.5548 53.3756 60.449 53.6201 60.2675 53.8027L60.3084 53.7516ZM60.5638 46.2232C58.547 46.4493 56.6679 47.3574 55.2375 48.797C53.8072 50.2367 52.9113 52.1216 52.6982 54.1398H21.8795C21.6559 52.1323 20.7567 50.2605 19.3294 48.8313C17.902 47.4021 16.0313 46.5004 14.0242 46.2742V38.1839C16.0313 37.9578 17.902 37.0561 19.3294 35.6269C20.7567 34.1977 21.6559 32.3259 21.8795 30.3184H52.6982C52.9222 32.3274 53.8229 34.2005 55.2523 35.6299C56.6817 37.0593 58.5547 37.9599 60.5638 38.1839V46.2232ZM60.5638 36.192C59.0884 35.9672 57.7223 35.2806 56.6616 34.2307C55.6114 33.1716 54.9277 31.8042 54.7106 30.3286H59.5423C59.8132 30.3286 60.073 30.4362 60.2646 30.6278C60.4561 30.8194 60.5638 31.0792 60.5638 31.3501V36.192Z" fill="url(#paint4_linear_757_11726)"/>
<path d="M61.6772 29.2152C61.3971 28.9356 61.0639 28.7148 60.6973 28.5657C60.3307 28.4166 59.938 28.3422 59.5423 28.3469H15.015C14.2275 28.3469 13.4718 28.6583 12.9131 29.2133C12.3543 29.7683 12.0376 30.5217 12.0322 31.3092V53.1183C12.0322 53.9094 12.3465 54.6681 12.9059 55.2274C13.4652 55.7868 14.2239 56.1011 15.015 56.1011H59.5423C59.9401 56.1092 60.3355 56.0382 60.7056 55.8922C61.0758 55.7462 61.4132 55.5281 61.6983 55.2506C61.9834 54.9731 62.2106 54.6417 62.3665 54.2756C62.5225 53.9096 62.6041 53.5162 62.6068 53.1183V31.3092C62.5793 30.5173 62.2461 29.7667 61.6772 29.2152ZM14.0242 31.2582C14.0242 30.9872 14.1318 30.7274 14.3233 30.5359C14.5149 30.3443 14.7747 30.2367 15.0457 30.2367H19.9284C19.7109 31.716 19.0218 33.0856 17.9636 34.142C16.9054 35.1984 15.5345 35.8851 14.0548 36.1001L14.0242 31.2582ZM15.0457 54.0377C14.9122 54.036 14.7803 54.0083 14.6575 53.9559C14.54 53.9038 14.4328 53.8311 14.3408 53.7414C14.25 53.6503 14.1772 53.5429 14.1263 53.4248C14.0787 53.3044 14.0545 53.1762 14.0548 53.0468V48.2151C15.5361 48.4387 16.9047 49.1373 17.9547 50.2058C19.0048 51.2743 19.6795 52.6548 19.8774 54.1398L15.0457 54.0377ZM60.3084 53.7516C60.2165 53.8681 60.1004 53.9631 59.9681 54.0301C59.8358 54.0972 59.6905 54.1346 59.5423 54.1398H54.6901C54.8975 52.6512 55.5821 51.27 56.6412 50.2036C57.7002 49.1372 59.0766 48.443 60.5638 48.2253V53.1183C60.5548 53.3756 60.449 53.6201 60.2675 53.8027L60.3084 53.7516ZM60.5638 46.2232C58.547 46.4493 56.6679 47.3574 55.2375 48.797C53.8072 50.2367 52.9113 52.1216 52.6982 54.1398H21.8795C21.6559 52.1323 20.7567 50.2605 19.3294 48.8313C17.902 47.4021 16.0313 46.5004 14.0242 46.2742V38.1839C16.0313 37.9578 17.902 37.0561 19.3294 35.6269C20.7567 34.1977 21.6559 32.3259 21.8795 30.3184H52.6982C52.9222 32.3274 53.8229 34.2005 55.2523 35.6299C56.6817 37.0593 58.5547 37.9599 60.5638 38.1839V46.2232ZM60.5638 36.192C59.0884 35.9672 57.7223 35.2806 56.6616 34.2307C55.6114 33.1716 54.9277 31.8042 54.7106 30.3286H59.5423C59.8132 30.3286 60.073 30.4362 60.2646 30.6278C60.4561 30.8194 60.5638 31.0792 60.5638 31.3501V36.192Z" stroke="url(#paint5_linear_757_11726)" stroke-width="0.2" stroke-miterlimit="10"/>
<path d="M39.817 40.4923H38.8466C38.7609 40.1729 38.6115 39.874 38.4073 39.6138H39.817C39.8747 39.6138 39.9318 39.6025 39.9851 39.5804C40.0384 39.5583 40.0868 39.526 40.1276 39.4852C40.1684 39.4444 40.2007 39.396 40.2228 39.3427C40.2449 39.2894 40.2562 39.2323 40.2562 39.1746C40.2562 39.0581 40.21 38.9464 40.1276 38.864C40.0452 38.7816 39.9335 38.7354 39.817 38.7354H35.0262C34.9097 38.7354 34.7979 38.7816 34.7156 38.864C34.6332 38.9464 34.5869 39.0581 34.5869 39.1746C34.5895 39.2903 34.6366 39.4005 34.7184 39.4823C34.8003 39.5641 34.9105 39.6112 35.0262 39.6138H36.5686C36.8597 39.6132 37.145 39.6955 37.391 39.851C37.637 40.0066 37.8337 40.2291 37.9579 40.4923H35.0262C34.9097 40.4923 34.7979 40.5386 34.7156 40.621C34.6332 40.7034 34.5869 40.8151 34.5869 40.9316C34.5869 41.0481 34.6332 41.1598 34.7156 41.2422C34.7979 41.3245 34.9097 41.3708 35.0262 41.3708H38.0907C38.0368 41.7364 37.8536 42.0704 37.5743 42.3122C37.2949 42.5541 36.9381 42.6876 36.5686 42.6886H34.8321H34.7504H34.6891L34.6278 42.7703C34.6288 42.7907 34.6288 42.8112 34.6278 42.8316V42.9031C34.619 42.9538 34.619 43.0056 34.6278 43.0563V43.2095C34.6247 43.2367 34.6247 43.2641 34.6278 43.2912L37.2632 46.3558C37.347 46.4363 37.4586 46.4813 37.5748 46.4813C37.691 46.4813 37.8026 46.4363 37.8864 46.3558C37.9274 46.3149 37.96 46.2664 37.9823 46.2129C38.0045 46.1595 38.016 46.1021 38.016 46.0442C38.016 45.9863 38.0045 45.9289 37.9823 45.8755C37.96 45.822 37.9274 45.7735 37.8864 45.7326L35.9047 43.3832H36.4869C37.0925 43.3882 37.6779 43.165 38.1264 42.758C38.575 42.3511 38.854 41.7902 38.9079 41.187H39.7864C39.9029 41.187 40.0146 41.1407 40.0969 41.0583C40.1793 40.9759 40.2256 40.8642 40.2256 40.7477C40.2256 40.6312 40.1793 40.5195 40.0969 40.4371C40.0146 40.3547 39.9029 40.3085 39.7864 40.3085L39.817 40.4923Z" fill="url(#paint6_linear_757_11726)"/>
<path d="M39.817 40.4923H38.8466C38.7609 40.1729 38.6115 39.874 38.4073 39.6138H39.817C39.8747 39.6138 39.9318 39.6025 39.9851 39.5804C40.0384 39.5583 40.0868 39.526 40.1276 39.4852C40.1684 39.4444 40.2007 39.396 40.2228 39.3427C40.2449 39.2894 40.2563 39.2323 40.2563 39.1746C40.2563 39.0581 40.21 38.9464 40.1276 38.864C40.0452 38.7816 39.9335 38.7354 39.817 38.7354H35.0262C34.9097 38.7354 34.7979 38.7816 34.7156 38.864C34.6332 38.9464 34.5869 39.0581 34.5869 39.1746C34.5895 39.2903 34.6366 39.4005 34.7184 39.4823C34.8003 39.5641 34.9105 39.6112 35.0262 39.6138H36.5686C36.8597 39.6132 37.145 39.6955 37.391 39.851C37.637 40.0066 37.8337 40.2291 37.9579 40.4923H35.0262C34.9097 40.4923 34.7979 40.5386 34.7156 40.621C34.6332 40.7034 34.5869 40.8151 34.5869 40.9316C34.5869 41.0481 34.6332 41.1598 34.7156 41.2422C34.7979 41.3245 34.9097 41.3708 35.0262 41.3708H38.0907C38.0368 41.7364 37.8536 42.0704 37.5743 42.3122C37.2949 42.5541 36.9381 42.6876 36.5686 42.6886H34.8321H34.7504H34.6891L34.6278 42.7703C34.6288 42.7907 34.6288 42.8112 34.6278 42.8316V42.9031C34.619 42.9538 34.619 43.0056 34.6278 43.0563V43.2095C34.6247 43.2367 34.6247 43.2641 34.6278 43.2912L37.2632 46.3558C37.347 46.4363 37.4586 46.4813 37.5748 46.4813C37.691 46.4813 37.8026 46.4363 37.8864 46.3558C37.9274 46.3149 37.96 46.2664 37.9823 46.2129C38.0045 46.1595 38.016 46.1021 38.016 46.0442C38.016 45.9863 38.0045 45.9289 37.9823 45.8755C37.96 45.822 37.9274 45.7735 37.8864 45.7326L35.9047 43.3832H36.4869C37.0925 43.3882 37.6779 43.165 38.1264 42.758C38.575 42.3511 38.854 41.7902 38.9079 41.187H39.7864C39.9029 41.187 40.0146 41.1407 40.0969 41.0583C40.1793 40.9759 40.2256 40.8642 40.2256 40.7477C40.2256 40.6312 40.1793 40.5195 40.0969 40.4371C40.0146 40.3547 39.9029 40.3085 39.7864 40.3085L39.817 40.4923Z" stroke="url(#paint7_linear_757_11726)" stroke-width="0.2" stroke-miterlimit="10"/>
<path d="M37.294 51.1773C35.5201 51.1773 33.7861 50.6513 32.3112 49.6658C30.8363 48.6803 29.6867 47.2796 29.0079 45.6407C28.3291 44.0019 28.1515 42.1986 28.4975 40.4588C28.8436 38.719 29.6978 37.121 30.9521 35.8666C32.2064 34.6123 33.8045 33.7581 35.5443 33.4121C37.284 33.066 39.0874 33.2436 40.7262 33.9225C42.365 34.6013 43.7657 35.7508 44.7513 37.2257C45.7368 38.7007 46.2628 40.4347 46.2628 42.2085C46.2601 44.5864 45.3143 46.866 43.6329 48.5474C41.9515 50.2288 39.6718 51.1746 37.294 51.1773ZM37.294 35.3849C35.9444 35.3849 34.6251 35.7851 33.503 36.5349C32.3808 37.2847 31.5062 38.3504 30.9898 39.5972C30.4733 40.8441 30.3382 42.2161 30.6015 43.5398C30.8648 44.8634 31.5146 46.0793 32.4689 47.0336C33.4232 47.9879 34.6391 48.6378 35.9628 48.901C37.2864 49.1643 38.6584 49.0292 39.9053 48.5127C41.1521 47.9963 42.2178 47.1217 42.9676 45.9995C43.7174 44.8774 44.1176 43.5581 44.1176 42.2085C44.1149 40.3996 43.3951 38.6656 42.116 37.3865C40.8369 36.1074 39.1029 35.3876 37.294 35.3849Z" fill="url(#paint8_linear_757_11726)"/>
<path d="M37.294 51.1773C35.5201 51.1773 33.7861 50.6513 32.3112 49.6658C30.8363 48.6803 29.6867 47.2796 29.0079 45.6407C28.3291 44.0019 28.1515 42.1986 28.4975 40.4588C28.8436 38.719 29.6978 37.121 30.9521 35.8666C32.2064 34.6123 33.8045 33.7581 35.5443 33.4121C37.284 33.066 39.0874 33.2436 40.7262 33.9225C42.365 34.6013 43.7657 35.7508 44.7513 37.2257C45.7368 38.7007 46.2628 40.4347 46.2628 42.2085C46.2601 44.5864 45.3143 46.866 43.6329 48.5474C41.9515 50.2288 39.6718 51.1746 37.294 51.1773ZM37.294 35.3849C35.9444 35.3849 34.6251 35.7851 33.503 36.5349C32.3808 37.2847 31.5062 38.3504 30.9898 39.5972C30.4733 40.8441 30.3382 42.2161 30.6015 43.5398C30.8648 44.8634 31.5146 46.0793 32.4689 47.0336C33.4232 47.9879 34.6391 48.6378 35.9628 48.901C37.2864 49.1643 38.6584 49.0292 39.9053 48.5127C41.1521 47.9963 42.2178 47.1217 42.9676 45.9995C43.7174 44.8774 44.1176 43.5581 44.1176 42.2085C44.1149 40.3996 43.3951 38.6656 42.116 37.3865C40.8369 36.1074 39.1029 35.3876 37.294 35.3849Z" stroke="url(#paint9_linear_757_11726)" stroke-width="0.21" stroke-miterlimit="10"/>
<path d="M73.5497 59.2376C73.5497 62.6244 73.2274 65.3759 72.8303 65.3759C72.4332 65.3759 72.1016 62.6244 72.1016 59.2376C72.1016 55.8507 72.4379 53.1179 72.8303 53.1179C73.2227 53.1179 73.5497 55.8461 73.5497 59.2376Z" fill="url(#paint10_radial_757_11726)"/>
<path d="M72.8313 59.9479C69.4444 59.9479 66.6929 59.6256 66.6929 59.2285C66.6929 58.8314 69.4444 58.4998 72.8313 58.4998C76.2181 58.4998 78.9509 58.8361 78.9509 59.2285C78.9509 59.6209 76.2228 59.9479 72.8313 59.9479Z" fill="url(#paint11_radial_757_11726)"/>
<path d="M8.17375 6.11966C8.17375 9.5065 7.85142 12.258 7.45434 12.258C7.05726 12.258 6.72559 9.5065 6.72559 6.11966C6.72559 2.73283 7.06193 0 7.45434 0C7.84675 0 8.17375 2.72816 8.17375 6.11966Z" fill="url(#paint12_radial_757_11726)"/>
<path d="M7.45529 6.82976C4.06845 6.82976 1.31693 6.50742 1.31693 6.11035C1.31693 5.71327 4.06845 5.38159 7.45529 5.38159C10.8421 5.38159 13.575 5.71794 13.575 6.11035C13.575 6.50275 10.8468 6.82976 7.45529 6.82976Z" fill="url(#paint13_radial_757_11726)"/>
<defs>
<linearGradient id="paint0_linear_757_11726" x1="1.30657" y1="28.5513" x2="54.5166" y2="11.3594" gradientUnits="userSpaceOnUse">
<stop stop-color="white" stop-opacity="0.9"/>
<stop offset="0.04" stop-color="white" stop-opacity="0.85"/>
<stop offset="0.28" stop-color="white" stop-opacity="0.5"/>
<stop offset="0.65" stop-color="#FAFBFC" stop-opacity="0.4"/>
</linearGradient>
<linearGradient id="paint1_linear_757_11726" x1="32.5337" y1="55.1" x2="77.6024" y2="100.158" gradientUnits="userSpaceOnUse">
<stop stop-color="white" stop-opacity="0.9"/>
<stop offset="0.04" stop-color="white" stop-opacity="0.85"/>
<stop offset="0.28" stop-color="white" stop-opacity="0.5"/>
<stop offset="0.65" stop-color="#FAFBFC" stop-opacity="0.4"/>
<stop offset="1" stop-color="#F0EFEF" stop-opacity="0.3"/>
</linearGradient>
<linearGradient id="paint2_linear_757_11726" x1="11.6953" y1="-1.02121" x2="56.6516" y2="43.9351" gradientUnits="userSpaceOnUse">
<stop stop-color="white" stop-opacity="0.9"/>
<stop offset="0.28" stop-color="white" stop-opacity="0.5"/>
<stop offset="0.65" stop-color="#FAFBFC" stop-opacity="0.4"/>
<stop offset="1" stop-color="#F0EFEF" stop-opacity="0.3"/>
</linearGradient>
<linearGradient id="paint3_linear_757_11726" x1="17.9263" y1="40.4823" x2="62.8825" y2="85.4386" gradientUnits="userSpaceOnUse">
<stop stop-color="white" stop-opacity="0.9"/>
<stop offset="0.28" stop-color="white" stop-opacity="0.5"/>
<stop offset="0.65" stop-color="#FAFBFC" stop-opacity="0.4"/>
<stop offset="1" stop-color="#F0EFEF" stop-opacity="0.3"/>
</linearGradient>
<linearGradient id="paint4_linear_757_11726" x1="37.294" y1="56.0807" x2="37.294" y2="28.3469" gradientUnits="userSpaceOnUse">
<stop stop-color="#79A540"/>
<stop offset="0.2" stop-color="#94C63F"/>
<stop offset="0.39" stop-color="#99CA3E"/>
<stop offset="0.59" stop-color="#93C53F"/>
<stop offset="0.74" stop-color="#9DCB3B"/>
<stop offset="0.9" stop-color="#A5CE3A"/>
<stop offset="1" stop-color="#A5CE3A"/>
</linearGradient>
<linearGradient id="paint5_linear_757_11726" x1="37.294" y1="56.1828" x2="37.294" y2="28.2345" gradientUnits="userSpaceOnUse">
<stop stop-color="#5EA560"/>
<stop offset="0.2" stop-color="#5DBA48"/>
<stop offset="0.39" stop-color="#99CA3E"/>
<stop offset="0.59" stop-color="#93C53F"/>
<stop offset="0.74" stop-color="#71BF44"/>
<stop offset="0.9" stop-color="#A5CE3A"/>
<stop offset="1" stop-color="#75C044"/>
</linearGradient>
<linearGradient id="paint6_linear_757_11726" x1="37.396" y1="46.652" x2="37.396" y2="38.7354" gradientUnits="userSpaceOnUse">
<stop stop-color="#79A540"/>
<stop offset="0.2" stop-color="#94C63D"/>
<stop offset="0.39" stop-color="#98CA3C"/>
<stop offset="0.59" stop-color="#93C53E"/>
<stop offset="0.74" stop-color="#9DCB3B"/>
<stop offset="0.9" stop-color="#A6CE39"/>
<stop offset="1" stop-color="#A6CE39"/>
</linearGradient>
<linearGradient id="paint7_linear_757_11726" x1="37.3863" y1="46.7554" x2="37.3933" y2="38.6354" gradientUnits="userSpaceOnUse">
<stop stop-color="#5DA560"/>
<stop offset="0.2" stop-color="#5CBA47"/>
<stop offset="0.39" stop-color="#98CA3C"/>
<stop offset="0.59" stop-color="#93C53E"/>
<stop offset="0.74" stop-color="#6FBE44"/>
<stop offset="0.9" stop-color="#A6CE39"/>
<stop offset="1" stop-color="#72BF44"/>
</linearGradient>
<linearGradient id="paint8_linear_757_11726" x1="37.294" y1="51.1773" x2="37.294" y2="33.2398" gradientUnits="userSpaceOnUse">
<stop stop-color="#79A540"/>
<stop offset="0.2" stop-color="#94C63D"/>
<stop offset="0.39" stop-color="#98CA3C"/>
<stop offset="0.59" stop-color="#93C53E"/>
<stop offset="0.74" stop-color="#9DCB3B"/>
<stop offset="0.9" stop-color="#A6CE39"/>
<stop offset="1" stop-color="#A6CE39"/>
</linearGradient>
<linearGradient id="paint9_linear_757_11726" x1="37.294" y1="51.2897" x2="37.294" y2="33.1376" gradientUnits="userSpaceOnUse">
<stop stop-color="#5DA560"/>
<stop offset="0.2" stop-color="#5CBA47"/>
<stop offset="0.39" stop-color="#98CA3C"/>
<stop offset="0.59" stop-color="#93C53E"/>
<stop offset="0.74" stop-color="#6FBE44"/>
<stop offset="0.9" stop-color="#A6CE39"/>
<stop offset="1" stop-color="#72BF44"/>
</linearGradient>
<radialGradient id="paint10_radial_757_11726" cx="0" cy="0" r="1" gradientUnits="userSpaceOnUse" gradientTransform="translate(72.7152 59.6853) scale(0.716421 6.14265)">
<stop stop-color="white"/>
<stop offset="0.07" stop-color="white" stop-opacity="0.93"/>
<stop offset="1" stop-color="white" stop-opacity="0"/>
</radialGradient>
<radialGradient id="paint11_radial_757_11726" cx="0" cy="0" r="1" gradientUnits="userSpaceOnUse" gradientTransform="translate(72.3835 59.1134) rotate(90) scale(0.716421 6.14265)">
<stop stop-color="white"/>
<stop offset="0.07" stop-color="white" stop-opacity="0.93"/>
<stop offset="1" stop-color="white" stop-opacity="0"/>
</radialGradient>
<radialGradient id="paint12_radial_757_11726" cx="0" cy="0" r="1" gradientUnits="userSpaceOnUse" gradientTransform="translate(7.33923 6.56738) scale(0.716421 6.14265)">
<stop stop-color="white"/>
<stop offset="0.07" stop-color="white" stop-opacity="0.93"/>
<stop offset="1" stop-color="white" stop-opacity="0"/>
</radialGradient>
<radialGradient id="paint13_radial_757_11726" cx="0" cy="0" r="1" gradientUnits="userSpaceOnUse" gradientTransform="translate(7.00757 5.99524) rotate(90) scale(0.716421 6.14265)">
<stop stop-color="white"/>
<stop offset="0.07" stop-color="white" stop-opacity="0.93"/>
<stop offset="1" stop-color="white" stop-opacity="0"/>
</radialGradient>
</defs>
</svg>
