<svg width="82" height="80" viewBox="0 0 82 80" fill="none" xmlns="http://www.w3.org/2000/svg">
<mask id="path-1-inside-1_757_11737" fill="white">
<path d="M77.933 50.2717C77.6041 48.3933 76.7263 46.6545 75.4104 45.2752C74.0946 43.896 72.3997 42.938 70.54 42.5225C68.6804 42.107 66.7394 42.2526 64.9623 42.9409C63.1853 43.6291 61.652 44.8292 60.5562 46.3893C60.5004 46.4731 60.4353 46.5569 60.3795 46.65L58.2306 45.868C58.9092 42.8673 58.7634 39.7387 57.8085 36.8143C56.8537 33.8899 55.1255 31.2789 52.8074 29.2583L54.6679 26.5304C56.0911 27.1457 57.6436 27.4014 59.1888 27.2752C61.0515 27.1164 62.8255 26.4087 64.2868 25.2416C65.748 24.0744 66.8309 22.5001 67.3989 20.7175C67.9669 18.9348 67.9944 17.0237 67.478 15.2253C66.9616 13.427 65.9244 11.8221 64.4974 10.6133C63.0704 9.40452 61.3176 8.64597 59.4602 8.43345C57.6027 8.22093 55.7241 8.56397 54.0613 9.41925C52.3985 10.2745 51.0262 11.6037 50.1176 13.239C49.209 14.8743 48.8049 16.7423 48.9562 18.6073C49.1193 20.685 49.9667 22.6497 51.3655 24.1935L49.4492 26.9866C46.9738 25.6969 44.2189 25.0375 41.4283 25.0667C38.6377 25.0959 35.8972 25.8129 33.4492 27.1542L29.7283 21.568C29.8679 21.419 29.9981 21.2514 30.119 21.0932C31.0838 19.838 31.7246 18.3642 31.9848 16.8022C32.245 15.2401 32.1166 13.638 31.6108 12.1375C31.1051 10.6369 30.2377 9.28429 29.0853 8.19916C27.9329 7.11404 26.5311 6.32989 25.0038 5.91609C23.4765 5.50229 21.8709 5.47159 20.329 5.82671C18.787 6.18182 17.3563 6.91181 16.1633 7.95209C14.9704 8.99237 14.052 10.3109 13.4893 11.791C12.9267 13.2711 12.7372 14.8671 12.9376 16.438C13.2668 18.9716 14.587 21.271 16.6083 22.8315C18.6296 24.392 21.1869 25.0861 23.719 24.7614C24.6833 24.6376 25.6238 24.3709 26.5097 23.97L30.2306 29.4725C28.9274 30.6588 27.8164 32.0408 26.9376 33.569C25.4849 36.0568 24.6849 38.8722 24.612 41.7528L18.4353 42.4697C17.6953 40.2864 16.1878 38.4467 14.1934 37.2931L14.0911 37.2373C11.9205 36.0162 9.35633 35.7009 6.95489 36.3597C4.55346 37.0186 2.50837 38.5984 1.2632 40.7566L1.21669 40.859C-0.00579095 43.031 -0.322201 45.5981 0.336255 48.0024C0.994711 50.4066 2.57479 52.4534 4.73297 53.698L4.8353 53.7538C7.00227 54.9711 9.56134 55.2842 11.9575 54.6254C14.3537 53.9666 16.3937 52.3889 17.6353 50.2345L17.6911 50.1321C18.4247 48.8362 18.8392 47.384 18.9004 45.8959L24.8911 45.1976C24.9655 45.6352 25.0679 46.0728 25.1795 46.5197C25.7204 48.5296 26.6253 50.423 27.8492 52.1059C30.1035 55.1389 33.1995 57.441 36.7516 58.7255L36.3795 61.0997C34.8374 61.156 33.3328 61.5908 31.9981 62.3659C29.8331 63.6235 28.2537 65.688 27.6053 68.1079C26.9568 70.5277 27.292 73.1061 28.5376 75.2793C29.7941 77.449 31.8591 79.0312 34.2797 79.6787C36.7004 80.3263 39.2788 79.9863 41.4492 78.7334C42.9775 77.8496 44.228 76.5552 45.059 74.9967C45.8901 73.4381 46.2684 71.6778 46.1513 69.9152C46.0341 68.1525 45.4261 66.4579 44.3962 65.0233C43.3662 63.5886 41.9554 62.4713 40.3237 61.7979L40.6958 59.4331C40.9655 59.4331 41.2446 59.4331 41.5237 59.4331C47.6632 59.4331 53.7562 55.439 56.6213 50.0669C56.7051 49.918 56.7795 49.7597 56.8632 49.6014L58.9097 50.3462C58.7283 51.3998 58.7283 52.4767 58.9097 53.5304C59.1238 54.7817 59.5827 55.9784 60.2599 57.0519C60.9371 58.1253 61.8194 59.0544 62.8562 59.7859C63.8929 60.5173 65.0638 61.0367 66.3015 61.3143C67.5393 61.5919 68.8196 61.6222 70.0691 61.4034C71.3186 61.1847 72.5126 60.7212 73.5828 60.0396C74.6529 59.358 75.5781 58.4717 76.3052 57.4314C77.0323 56.3912 77.5471 55.2175 77.8201 53.9777C78.093 52.7379 78.1187 51.4564 77.8958 50.2066L77.933 50.2717ZM27.5237 19.0728C26.5298 20.3693 25.0728 21.2301 23.4585 21.4749H23.1888C21.5694 21.6551 19.9429 21.2029 18.6484 20.2125C17.3539 19.2221 16.4912 17.77 16.2399 16.1587C16.2491 16.072 16.2491 15.9846 16.2399 15.898C16.1243 14.867 16.2636 13.8234 16.6456 12.8589C17.0275 11.8944 17.6404 11.0387 18.4304 10.367C19.2204 9.69522 20.1631 9.22808 21.1758 9.00663C22.1885 8.78518 23.2401 8.8162 24.2379 9.09697C25.2358 9.37774 26.1495 9.89966 26.8986 10.6168C27.6476 11.3339 28.2091 12.2243 28.5336 13.2096C28.8582 14.1949 28.9358 15.245 28.7597 16.2674C28.5836 17.2897 28.1591 18.2531 27.5237 19.0728ZM14.8167 48.5028V48.5773C14.0075 49.9895 12.673 51.024 11.1044 51.4548C9.53584 51.8857 7.86065 51.6779 6.4446 50.8769H6.37018C4.95916 50.0671 3.92557 48.7314 3.49509 47.1614C3.0646 45.5915 3.27218 43.9149 4.07251 42.4976V42.4231C4.87835 41.0074 6.21224 39.9694 7.78167 39.5365C9.35109 39.1037 11.028 39.3114 12.4446 40.1142H12.519C13.9282 40.9258 14.9602 42.2615 15.3904 43.8307C15.8207 45.3999 15.6145 47.0756 14.8167 48.4935V48.5028ZM53.7097 13.8497C54.3617 13.0754 55.1942 12.4738 56.1338 12.0981C57.0733 11.7225 58.0908 11.5842 59.0963 11.6957C60.1019 11.8071 61.0646 12.1648 61.8992 12.7371C62.7338 13.3094 63.4147 14.0787 63.8816 14.977C64.3486 15.8753 64.5872 16.8749 64.5764 17.8874C64.5656 18.9 64.3057 19.8942 63.8197 20.7824C63.3337 21.6705 62.6366 22.4251 61.7899 22.9794C60.9433 23.5338 59.9732 23.8708 58.9655 23.9607H58.8632C57.2533 24.0821 55.6605 23.5639 54.4295 22.5184C53.1986 21.4728 52.4287 19.9841 52.2865 18.3745V18.2628C52.1658 16.6621 52.6767 15.0778 53.7097 13.8497ZM42.0446 67.4866C42.8583 68.8848 43.0901 70.5471 42.6898 72.1148C42.2895 73.6826 41.2893 75.0298 39.9051 75.8659L39.719 75.9683C38.3273 76.7504 36.6857 76.9584 35.1431 76.5481C33.6005 76.1378 32.2787 75.1415 31.4586 73.771L31.3469 73.5941C30.5721 72.1982 30.368 70.5561 30.7773 69.0127C31.1867 67.4693 32.1777 66.1448 33.5423 65.3172L33.7283 65.2148C35.1353 64.4265 36.7953 64.2229 38.3508 64.6478C39.9063 65.0728 41.2328 66.0922 42.0446 67.4866ZM41.8865 56.0535C39.1267 56.0535 36.429 55.2344 34.1343 53.6999C31.8397 52.1653 30.0512 49.9842 28.9951 47.4323C27.939 44.8805 27.6627 42.0725 28.2011 39.3634C28.7395 36.6544 30.0684 34.166 32.0199 32.2129C33.9713 30.2598 36.4576 28.9297 39.1643 28.3908C41.871 27.8519 44.6766 28.1285 47.2262 29.1855C49.7759 30.2425 51.9551 32.0325 53.4884 34.3291C55.0216 36.6258 55.8399 39.3258 55.8399 42.088C55.8399 45.7918 54.3699 49.344 51.7531 51.9631C49.1363 54.5821 45.5872 56.0535 41.8865 56.0535ZM73.6167 55.5693C72.7758 56.7711 71.5444 57.6438 70.1325 58.0387C68.7207 58.4335 67.2157 58.3261 65.8741 57.7346C64.5325 57.1432 63.4374 56.1044 62.7755 54.7953C62.1135 53.4861 61.9257 51.9878 62.244 50.5556C62.5623 49.1233 63.367 47.846 64.521 46.9411C65.675 46.0363 67.1069 45.5601 68.5724 45.5936C70.038 45.6271 71.4466 46.1683 72.5581 47.1249C73.6696 48.0816 74.4152 49.3944 74.6679 50.8397C74.9569 52.4933 74.5789 54.1942 73.6167 55.5693Z"/>
</mask>
<path d="M77.933 50.2717C77.6041 48.3933 76.7263 46.6545 75.4104 45.2752C74.0946 43.896 72.3997 42.938 70.54 42.5225C68.6804 42.107 66.7394 42.2526 64.9623 42.9409C63.1853 43.6291 61.652 44.8292 60.5562 46.3893C60.5004 46.4731 60.4353 46.5569 60.3795 46.65L58.2306 45.868C58.9092 42.8673 58.7634 39.7387 57.8085 36.8143C56.8537 33.8899 55.1255 31.2789 52.8074 29.2583L54.6679 26.5304C56.0911 27.1457 57.6436 27.4014 59.1888 27.2752C61.0515 27.1164 62.8255 26.4087 64.2868 25.2416C65.748 24.0744 66.8309 22.5001 67.3989 20.7175C67.9669 18.9348 67.9944 17.0237 67.478 15.2253C66.9616 13.427 65.9244 11.8221 64.4974 10.6133C63.0704 9.40452 61.3176 8.64597 59.4602 8.43345C57.6027 8.22093 55.7241 8.56397 54.0613 9.41925C52.3985 10.2745 51.0262 11.6037 50.1176 13.239C49.209 14.8743 48.8049 16.7423 48.9562 18.6073C49.1193 20.685 49.9667 22.6497 51.3655 24.1935L49.4492 26.9866C46.9738 25.6969 44.2189 25.0375 41.4283 25.0667C38.6377 25.0959 35.8972 25.8129 33.4492 27.1542L29.7283 21.568C29.8679 21.419 29.9981 21.2514 30.119 21.0932C31.0838 19.838 31.7246 18.3642 31.9848 16.8022C32.245 15.2401 32.1166 13.638 31.6108 12.1375C31.1051 10.6369 30.2377 9.28429 29.0853 8.19916C27.9329 7.11404 26.5311 6.32989 25.0038 5.91609C23.4765 5.50229 21.8709 5.47159 20.329 5.82671C18.787 6.18182 17.3563 6.91181 16.1633 7.95209C14.9704 8.99237 14.052 10.3109 13.4893 11.791C12.9267 13.2711 12.7372 14.8671 12.9376 16.438C13.2668 18.9716 14.587 21.271 16.6083 22.8315C18.6296 24.392 21.1869 25.0861 23.719 24.7614C24.6833 24.6376 25.6238 24.3709 26.5097 23.97L30.2306 29.4725C28.9274 30.6588 27.8164 32.0408 26.9376 33.569C25.4849 36.0568 24.6849 38.8722 24.612 41.7528L18.4353 42.4697C17.6953 40.2864 16.1878 38.4467 14.1934 37.2931L14.0911 37.2373C11.9205 36.0162 9.35633 35.7009 6.95489 36.3597C4.55346 37.0186 2.50837 38.5984 1.2632 40.7566L1.21669 40.859C-0.00579095 43.031 -0.322201 45.5981 0.336255 48.0024C0.994711 50.4066 2.57479 52.4534 4.73297 53.698L4.8353 53.7538C7.00227 54.9711 9.56134 55.2842 11.9575 54.6254C14.3537 53.9666 16.3937 52.3889 17.6353 50.2345L17.6911 50.1321C18.4247 48.8362 18.8392 47.384 18.9004 45.8959L24.8911 45.1976C24.9655 45.6352 25.0679 46.0728 25.1795 46.5197C25.7204 48.5296 26.6253 50.423 27.8492 52.1059C30.1035 55.1389 33.1995 57.441 36.7516 58.7255L36.3795 61.0997C34.8374 61.156 33.3328 61.5908 31.9981 62.3659C29.8331 63.6235 28.2537 65.688 27.6053 68.1079C26.9568 70.5277 27.292 73.1061 28.5376 75.2793C29.7941 77.449 31.8591 79.0312 34.2797 79.6787C36.7004 80.3263 39.2788 79.9863 41.4492 78.7334C42.9775 77.8496 44.228 76.5552 45.059 74.9967C45.8901 73.4381 46.2684 71.6778 46.1513 69.9152C46.0341 68.1525 45.4261 66.4579 44.3962 65.0233C43.3662 63.5886 41.9554 62.4713 40.3237 61.7979L40.6958 59.4331C40.9655 59.4331 41.2446 59.4331 41.5237 59.4331C47.6632 59.4331 53.7562 55.439 56.6213 50.0669C56.7051 49.918 56.7795 49.7597 56.8632 49.6014L58.9097 50.3462C58.7283 51.3998 58.7283 52.4767 58.9097 53.5304C59.1238 54.7817 59.5827 55.9784 60.2599 57.0519C60.9371 58.1253 61.8194 59.0544 62.8562 59.7859C63.8929 60.5173 65.0638 61.0367 66.3015 61.3143C67.5393 61.5919 68.8196 61.6222 70.0691 61.4034C71.3186 61.1847 72.5126 60.7212 73.5828 60.0396C74.6529 59.358 75.5781 58.4717 76.3052 57.4314C77.0323 56.3912 77.5471 55.2175 77.8201 53.9777C78.093 52.7379 78.1187 51.4564 77.8958 50.2066L77.933 50.2717ZM27.5237 19.0728C26.5298 20.3693 25.0728 21.2301 23.4585 21.4749H23.1888C21.5694 21.6551 19.9429 21.2029 18.6484 20.2125C17.3539 19.2221 16.4912 17.77 16.2399 16.1587C16.2491 16.072 16.2491 15.9846 16.2399 15.898C16.1243 14.867 16.2636 13.8234 16.6456 12.8589C17.0275 11.8944 17.6404 11.0387 18.4304 10.367C19.2204 9.69522 20.1631 9.22808 21.1758 9.00663C22.1885 8.78518 23.2401 8.8162 24.2379 9.09697C25.2358 9.37774 26.1495 9.89966 26.8986 10.6168C27.6476 11.3339 28.2091 12.2243 28.5336 13.2096C28.8582 14.1949 28.9358 15.245 28.7597 16.2674C28.5836 17.2897 28.1591 18.2531 27.5237 19.0728ZM14.8167 48.5028V48.5773C14.0075 49.9895 12.673 51.024 11.1044 51.4548C9.53584 51.8857 7.86065 51.6779 6.4446 50.8769H6.37018C4.95916 50.0671 3.92557 48.7314 3.49509 47.1614C3.0646 45.5915 3.27218 43.9149 4.07251 42.4976V42.4231C4.87835 41.0074 6.21224 39.9694 7.78167 39.5365C9.35109 39.1037 11.028 39.3114 12.4446 40.1142H12.519C13.9282 40.9258 14.9602 42.2615 15.3904 43.8307C15.8207 45.3999 15.6145 47.0756 14.8167 48.4935V48.5028ZM53.7097 13.8497C54.3617 13.0754 55.1942 12.4738 56.1338 12.0981C57.0733 11.7225 58.0908 11.5842 59.0963 11.6957C60.1019 11.8071 61.0646 12.1648 61.8992 12.7371C62.7338 13.3094 63.4147 14.0787 63.8816 14.977C64.3486 15.8753 64.5872 16.8749 64.5764 17.8874C64.5656 18.9 64.3057 19.8942 63.8197 20.7824C63.3337 21.6705 62.6366 22.4251 61.7899 22.9794C60.9433 23.5338 59.9732 23.8708 58.9655 23.9607H58.8632C57.2533 24.0821 55.6605 23.5639 54.4295 22.5184C53.1986 21.4728 52.4287 19.9841 52.2865 18.3745V18.2628C52.1658 16.6621 52.6767 15.0778 53.7097 13.8497ZM42.0446 67.4866C42.8583 68.8848 43.0901 70.5471 42.6898 72.1148C42.2895 73.6826 41.2893 75.0298 39.9051 75.8659L39.719 75.9683C38.3273 76.7504 36.6857 76.9584 35.1431 76.5481C33.6005 76.1378 32.2787 75.1415 31.4586 73.771L31.3469 73.5941C30.5721 72.1982 30.368 70.5561 30.7773 69.0127C31.1867 67.4693 32.1777 66.1448 33.5423 65.3172L33.7283 65.2148C35.1353 64.4265 36.7953 64.2229 38.3508 64.6478C39.9063 65.0728 41.2328 66.0922 42.0446 67.4866ZM41.8865 56.0535C39.1267 56.0535 36.429 55.2344 34.1343 53.6999C31.8397 52.1653 30.0512 49.9842 28.9951 47.4323C27.939 44.8805 27.6627 42.0725 28.2011 39.3634C28.7395 36.6544 30.0684 34.166 32.0199 32.2129C33.9713 30.2598 36.4576 28.9297 39.1643 28.3908C41.871 27.8519 44.6766 28.1285 47.2262 29.1855C49.7759 30.2425 51.9551 32.0325 53.4884 34.3291C55.0216 36.6258 55.8399 39.3258 55.8399 42.088C55.8399 45.7918 54.3699 49.344 51.7531 51.9631C49.1363 54.5821 45.5872 56.0535 41.8865 56.0535ZM73.6167 55.5693C72.7758 56.7711 71.5444 57.6438 70.1325 58.0387C68.7207 58.4335 67.2157 58.3261 65.8741 57.7346C64.5325 57.1432 63.4374 56.1044 62.7755 54.7953C62.1135 53.4861 61.9257 51.9878 62.244 50.5556C62.5623 49.1233 63.367 47.846 64.521 46.9411C65.675 46.0363 67.1069 45.5601 68.5724 45.5936C70.038 45.6271 71.4466 46.1683 72.5581 47.1249C73.6696 48.0816 74.4152 49.3944 74.6679 50.8397C74.9569 52.4933 74.5789 54.1942 73.6167 55.5693Z" fill="url(#paint0_linear_757_11737)" stroke="url(#paint1_linear_757_11737)" stroke-width="0.4" mask="url(#path-1-inside-1_757_11737)"/>
<path d="M41.537 45.8552L41.54 45.8432V45.8309V38.1312C41.54 37.9108 41.6275 37.6994 41.7832 37.5436C41.9389 37.3877 42.1501 37.3002 42.3702 37.3002H45.7098H45.7377V37.299C46.1656 37.2793 46.5932 37.3454 46.9954 37.4937C47.4046 37.6446 47.7788 37.8772 48.0952 38.1776C48.4116 38.4779 48.6636 38.8396 48.8358 39.2406C49.0081 39.6416 49.0969 40.0736 49.0969 40.51C49.0969 40.9465 49.0081 41.3784 48.8358 41.7794C48.6636 42.1804 48.4116 42.5421 48.0952 42.8425C47.7788 43.1428 47.4046 43.3755 46.9954 43.5264C46.5862 43.6772 46.1505 43.7431 45.7151 43.72L45.7151 43.7199H45.7098H43.2447H43.1447V43.8199V45.8309V45.8432L43.1477 45.8552C43.1784 45.9777 43.1807 46.1057 43.1546 46.2293C43.1285 46.3529 43.0745 46.4689 42.9969 46.5685C42.9192 46.6681 42.8199 46.7487 42.7065 46.8041C42.5931 46.8595 42.4685 46.8883 42.3423 46.8883C42.2161 46.8883 42.0916 46.8595 41.9782 46.8041C41.8648 46.7487 41.7655 46.6681 41.6878 46.5685C41.6102 46.4689 41.5562 46.3529 41.5301 46.2293C41.504 46.1057 41.5063 45.9777 41.537 45.8552ZM43.1726 42.0137V42.1137H43.2726H45.7338C45.9535 42.1304 46.1743 42.1018 46.3825 42.0296C46.5919 41.9569 46.784 41.8416 46.9468 41.691C47.1096 41.5404 47.2395 41.3578 47.3283 41.1545C47.4171 40.9513 47.463 40.7319 47.463 40.51C47.463 40.2882 47.4171 40.0688 47.3283 39.8655C47.2395 39.6623 47.1096 39.4796 46.9468 39.329C46.784 39.1785 46.5919 39.0632 46.3825 38.9905C46.1743 38.9183 45.9535 38.8897 45.7338 38.9064H43.2726H43.1726V39.0064V42.0137Z" fill="url(#paint2_linear_757_11737)" stroke="url(#paint3_linear_757_11737)" stroke-width="0.2"/>
<path d="M32.0249 45.5428L32.0317 45.5329L32.0359 45.5217L34.9192 37.823C34.9797 37.6714 35.0836 37.5409 35.2177 37.448C35.3518 37.3551 35.5103 37.3037 35.6734 37.3004H36.6012C36.7627 37.3054 36.9192 37.3575 37.0516 37.4502C37.1842 37.5431 37.2868 37.6728 37.3467 37.8233C37.3468 37.8235 37.3469 37.8237 37.347 37.8239L40.276 45.5206C40.3441 45.721 40.3331 45.94 40.2453 46.1326C40.1575 46.3252 39.9997 46.477 39.804 46.5571C39.7143 46.5894 39.6198 46.6061 39.5245 46.6063C39.3614 46.603 39.203 46.5516 39.0688 46.4587C38.9347 46.3658 38.8309 46.2353 38.7704 46.0837L38.2684 44.744L38.2441 44.6791H38.1748H34.1376H34.0683L34.0439 44.744L33.5416 46.0847L33.5374 46.096L33.5359 46.108C33.5211 46.233 33.4781 46.3531 33.4102 46.459C33.3422 46.565 33.2511 46.6541 33.1437 46.7197C33.0363 46.7852 32.9155 46.8255 32.7902 46.8374C32.665 46.8494 32.5388 46.8327 32.4209 46.7886C32.3031 46.7445 32.1968 46.6743 32.1101 46.5831C32.0234 46.4919 31.9585 46.3821 31.9203 46.2621C31.8822 46.1421 31.8718 46.015 31.8899 45.8904C31.908 45.7658 31.9542 45.647 32.0249 45.5428ZM34.6765 42.947L34.6258 43.0822H34.7701H37.4585H37.6025L37.5522 42.9472L36.2127 39.3534L36.1193 39.1029L36.0253 39.3532L34.6765 42.947Z" fill="url(#paint4_linear_757_11737)" stroke="url(#paint5_linear_757_11737)" stroke-width="0.2"/>
<path d="M50.1974 45.8554L50.2004 45.8434V45.8311V38.1315C50.2004 37.911 50.2879 37.6997 50.4436 37.5438C50.5986 37.3887 50.8086 37.3012 51.0277 37.3004C51.2337 37.3135 51.4276 37.403 51.5714 37.5515C51.7155 37.7003 51.7989 37.8978 51.8051 38.105V45.8311V45.8434L51.8081 45.8554C51.8387 45.978 51.8411 46.1059 51.815 46.2295C51.7889 46.3531 51.7349 46.4691 51.6573 46.5687C51.5796 46.6683 51.4803 46.7489 51.3669 46.8043C51.2535 46.8597 51.1289 46.8885 51.0027 46.8885C50.8765 46.8885 50.752 46.8597 50.6386 46.8043C50.5252 46.7489 50.4259 46.6683 50.3482 46.5687C50.2706 46.4691 50.2166 46.3531 50.1905 46.2295C50.1644 46.1059 50.1667 45.978 50.1974 45.8554Z" fill="url(#paint6_linear_757_11737)" stroke="url(#paint7_linear_757_11737)" stroke-width="0.2"/>
<path d="M76.146 45.6927C76.146 48.8433 75.8461 51.4028 75.4767 51.4028C75.1074 51.4028 74.7988 48.8433 74.7988 45.6927C74.7988 42.5422 75.1117 40 75.4767 40C75.8418 40 76.146 42.5378 76.146 45.6927Z" fill="url(#paint8_radial_757_11737)"/>
<path d="M75.4775 46.3532C72.3269 46.3532 69.7674 46.0534 69.7674 45.684C69.7674 45.3146 72.3269 45.0061 75.4775 45.0061C78.628 45.0061 81.1702 45.319 81.1702 45.684C81.1702 46.049 78.6323 46.3532 75.4775 46.3532Z" fill="url(#paint9_radial_757_11737)"/>
<path d="M20.4021 5.69271C20.4021 8.84326 20.1022 11.4028 19.7328 11.4028C19.3635 11.4028 19.0549 8.84326 19.0549 5.69271C19.0549 2.54216 19.3678 0 19.7328 0C20.0979 0 20.4021 2.53782 20.4021 5.69271Z" fill="url(#paint10_radial_757_11737)"/>
<path d="M19.7336 6.35323C16.583 6.35323 14.0235 6.05339 14.0235 5.68401C14.0235 5.31464 16.583 5.0061 19.7336 5.0061C22.8841 5.0061 25.4263 5.31899 25.4263 5.68401C25.4263 6.04904 22.8885 6.35323 19.7336 6.35323Z" fill="url(#paint11_radial_757_11737)"/>
<defs>
<linearGradient id="paint0_linear_757_11737" x1="56" y1="65.5" x2="-0.0590613" y2="-10.4564" gradientUnits="userSpaceOnUse">
<stop stop-color="white" stop-opacity="0.9"/>
<stop offset="0.04" stop-color="white" stop-opacity="0.85"/>
<stop offset="0.28" stop-color="white" stop-opacity="0.5"/>
<stop offset="0.65" stop-color="#FAFBFC" stop-opacity="0.4"/>
<stop offset="1" stop-color="#F0EFEF" stop-opacity="0"/>
</linearGradient>
<linearGradient id="paint1_linear_757_11737" x1="57.5" y1="74" x2="24.5" y2="17.5" gradientUnits="userSpaceOnUse">
<stop stop-color="white" stop-opacity="0.9"/>
<stop offset="0.28" stop-color="white" stop-opacity="0.5"/>
<stop offset="0.65" stop-color="#FAFBFC" stop-opacity="0.4"/>
<stop offset="1" stop-color="#F0EFEF" stop-opacity="0.3"/>
</linearGradient>
<linearGradient id="paint2_linear_757_11737" x1="45.254" y1="46.7061" x2="45.254" y2="37.2002" gradientUnits="userSpaceOnUse">
<stop stop-color="#79A540"/>
<stop offset="0.2" stop-color="#94C63D"/>
<stop offset="0.39" stop-color="#98CA3C"/>
<stop offset="0.59" stop-color="#93C53E"/>
<stop offset="0.74" stop-color="#9DCB3B"/>
<stop offset="0.9" stop-color="#A6CE39"/>
<stop offset="1" stop-color="#A6CE39"/>
</linearGradient>
<linearGradient id="paint3_linear_757_11737" x1="45.3061" y1="47.0255" x2="45.3061" y2="37.1683" gradientUnits="userSpaceOnUse">
<stop stop-color="white" stop-opacity="0.9"/>
<stop offset="0.28" stop-color="white" stop-opacity="0.5"/>
<stop offset="0.65" stop-color="#FAFBFC" stop-opacity="0.4"/>
<stop offset="1" stop-color="#F0EFEF" stop-opacity="0.3"/>
</linearGradient>
<linearGradient id="paint4_linear_757_11737" x1="36.119" y1="46.7063" x2="36.119" y2="37.2004" gradientUnits="userSpaceOnUse">
<stop stop-color="#79A540"/>
<stop offset="0.2" stop-color="#94C63D"/>
<stop offset="0.39" stop-color="#98CA3C"/>
<stop offset="0.59" stop-color="#93C53E"/>
<stop offset="0.74" stop-color="#9DCB3B"/>
<stop offset="0.9" stop-color="#A6CE39"/>
<stop offset="1" stop-color="#A6CE39"/>
</linearGradient>
<linearGradient id="paint5_linear_757_11737" x1="36.1024" y1="46.9782" x2="36.1024" y2="37.1733" gradientUnits="userSpaceOnUse">
<stop stop-color="white" stop-opacity="0.9"/>
<stop offset="0.28" stop-color="white" stop-opacity="0.5"/>
<stop offset="0.65" stop-color="#FAFBFC" stop-opacity="0.4"/>
<stop offset="1" stop-color="#F0EFEF" stop-opacity="0.3"/>
</linearGradient>
<linearGradient id="paint6_linear_757_11737" x1="51.0306" y1="46.7063" x2="51.0306" y2="37.2004" gradientUnits="userSpaceOnUse">
<stop stop-color="#79A540"/>
<stop offset="0.2" stop-color="#94C63D"/>
<stop offset="0.39" stop-color="#98CA3C"/>
<stop offset="0.59" stop-color="#93C53E"/>
<stop offset="0.74" stop-color="#9DCB3B"/>
<stop offset="0.9" stop-color="#A6CE39"/>
<stop offset="1" stop-color="#A6CE39"/>
</linearGradient>
<linearGradient id="paint7_linear_757_11737" x1="51.0031" y1="47.0257" x2="51.0031" y2="37.1732" gradientUnits="userSpaceOnUse">
<stop stop-color="white" stop-opacity="0.9"/>
<stop offset="0.28" stop-color="white" stop-opacity="0.5"/>
<stop offset="0.65" stop-color="#FAFBFC" stop-opacity="0.4"/>
<stop offset="1" stop-color="#F0EFEF" stop-opacity="0.3"/>
</linearGradient>
<radialGradient id="paint8_radial_757_11737" cx="0" cy="0" r="1" gradientUnits="userSpaceOnUse" gradientTransform="translate(75.3697 46.1092) scale(0.666438 5.71409)">
<stop stop-color="white"/>
<stop offset="0.07" stop-color="white" stop-opacity="0.93"/>
<stop offset="1" stop-color="white" stop-opacity="0"/>
</radialGradient>
<radialGradient id="paint9_radial_757_11737" cx="0" cy="0" r="1" gradientUnits="userSpaceOnUse" gradientTransform="translate(75.061 45.5769) rotate(90) scale(0.666438 5.71409)">
<stop stop-color="white"/>
<stop offset="0.07" stop-color="white" stop-opacity="0.93"/>
<stop offset="1" stop-color="white" stop-opacity="0"/>
</radialGradient>
<radialGradient id="paint10_radial_757_11737" cx="0" cy="0" r="1" gradientUnits="userSpaceOnUse" gradientTransform="translate(19.6258 6.10919) scale(0.666438 5.71409)">
<stop stop-color="white"/>
<stop offset="0.07" stop-color="white" stop-opacity="0.93"/>
<stop offset="1" stop-color="white" stop-opacity="0"/>
</radialGradient>
<radialGradient id="paint11_radial_757_11737" cx="0" cy="0" r="1" gradientUnits="userSpaceOnUse" gradientTransform="translate(19.3171 5.57694) rotate(90) scale(0.666438 5.71409)">
<stop stop-color="white"/>
<stop offset="0.07" stop-color="white" stop-opacity="0.93"/>
<stop offset="1" stop-color="white" stop-opacity="0"/>
</radialGradient>
</defs>
</svg>
