<svg width="73" height="81" viewBox="0 0 73 81" fill="none" xmlns="http://www.w3.org/2000/svg">
<path d="M55.1638 41.8356C54.8605 48.3133 52.2883 54.4795 47.8954 59.2532L47.7411 59.4209H47.969H49.3668C49.7578 59.4379 50.127 59.6059 50.3965 59.8898L50.3964 59.8898L50.3983 59.8916L67.4957 76.989C67.4961 76.9894 67.4965 76.9898 67.4969 76.9902C67.7692 77.2842 67.9206 77.6701 67.9206 78.0709C67.9206 78.4717 67.7692 78.8577 67.4969 79.1516C67.4965 79.152 67.4961 79.1525 67.4957 79.1529L66.2009 80.4476C66.2005 80.448 66.2001 80.4484 66.1997 80.4488C65.9057 80.7212 65.5197 80.8725 65.119 80.8725C64.7182 80.8725 64.3322 80.7212 64.0383 80.4488C64.0379 80.4484 64.0374 80.448 64.037 80.4476L46.9397 63.3502L46.9397 63.3502L46.9378 63.3484C46.654 63.0789 46.4859 62.7097 46.469 62.3188V60.9209V60.6931L46.3013 60.8473C43.002 63.8822 39.012 66.0661 34.6775 67.2096C30.3429 68.353 25.7949 68.4215 21.4279 67.4091C17.0609 66.3966 13.0069 64.3339 9.61777 61.3998C6.2286 58.4656 3.6066 54.7488 1.97931 50.5718C0.352009 46.3948 -0.23143 41.8838 0.279616 37.4302C0.790663 32.9766 2.38075 28.715 4.91191 25.0151C7.44308 21.3153 10.8388 18.289 14.8045 16.1989C18.7703 14.1087 23.1861 13.0178 27.6689 13.0209L27.6702 13.0209C29.2349 13.0014 30.7978 13.128 32.3388 13.3993C31.9236 14.704 31.6363 16.046 31.4811 17.4064C30.2194 17.2168 28.9452 17.1213 27.6691 17.1209C27.6691 17.1209 27.669 17.1209 27.669 17.1209L27.669 17.2209C23.096 17.2146 18.6217 18.5507 14.801 21.0634C10.9802 23.5762 7.98099 27.1551 6.17521 31.3565C4.36943 35.5578 3.83651 40.1968 4.64252 44.6982C5.44853 49.1996 7.55803 53.3654 10.7095 56.6792C13.8609 59.9929 17.9156 62.3088 22.3709 63.3396C26.8262 64.3705 31.486 64.071 35.7727 62.4783C40.0594 60.8856 43.7843 58.0698 46.4856 54.3799C49.1672 50.717 50.723 46.3527 50.9639 41.8209L55.1638 41.8356ZM55.1638 41.8356C54.5685 41.9105 53.9683 41.939 53.3685 41.9209C52.599 41.9368 51.8293 41.9068 51.0635 41.831L55.1638 41.8356Z" fill="url(#paint0_linear_757_20185)" stroke="url(#paint1_linear_757_20185)" stroke-width="0.2"/>
<path d="M55.5889 19.921V10.001C55.5902 9.89556 55.5705 9.79093 55.5307 9.69326C55.491 9.59559 55.4321 9.50687 55.3576 9.43231C55.283 9.35776 55.1943 9.29888 55.0966 9.25915C54.999 9.21942 54.8943 9.19965 54.7889 9.20099H52.5889C52.4835 9.19965 52.3788 9.21942 52.2812 9.25915C52.1835 9.29888 52.0948 9.35776 52.0202 9.43231C51.9457 9.50687 51.8868 9.59559 51.8471 9.69326C51.8073 9.79093 51.7876 9.89556 51.7889 10.001V21.501C51.7854 21.6324 51.8104 21.763 51.8622 21.8839C51.9139 22.0047 51.9913 22.1129 52.0889 22.201L57.9889 26.501C58.0793 26.5708 58.1831 26.6211 58.2938 26.649C58.4046 26.6768 58.5199 26.6814 58.6325 26.6627C58.7451 26.6439 58.8527 26.6021 58.9484 26.5399C59.0442 26.4776 59.126 26.3963 59.1889 26.301L60.4889 24.501C60.5587 24.4106 60.609 24.3068 60.6369 24.196C60.6647 24.0853 60.6694 23.97 60.6506 23.8574C60.6318 23.7447 60.59 23.6372 60.5278 23.5415C60.4655 23.4457 60.3842 23.3639 60.2889 23.301L55.5889 19.921Z" fill="url(#paint2_linear_757_20185)"/>
<path d="M53.3692 1.00097C50.0251 0.995295 46.7395 1.87842 43.8489 3.55993C40.9582 5.24144 38.5664 7.66093 36.9182 10.5707C35.27 13.4805 34.4247 16.776 34.4688 20.1198C34.5129 23.4636 35.4448 26.7357 37.1692 29.601L33.3692 32.721C33.0077 32.5045 32.5901 32.4001 32.1692 32.421C31.7512 32.4253 31.3401 32.5281 30.9692 32.721L27.1692 29.621C27.1692 29.421 27.2692 29.221 27.2692 29.021C27.2692 28.3049 26.9847 27.6181 26.4784 27.1118C25.972 26.6054 25.2853 26.321 24.5692 26.321C23.8531 26.321 23.1664 26.6054 22.66 27.1118C22.1537 27.6181 21.8692 28.3049 21.8692 29.021C21.8878 29.3297 21.9553 29.6335 22.0692 29.921L17.8892 34.001C17.6017 33.8871 17.2979 33.8196 16.9892 33.801C16.4888 33.801 15.9984 33.9416 15.5741 34.2068C15.1497 34.472 14.8085 34.8512 14.5892 35.301C14.4256 35.6062 14.3317 35.9439 14.3144 36.2897C14.2972 36.6356 14.3568 36.981 14.4892 37.301C14.5919 37.6416 14.7716 37.9541 15.0144 38.2141C15.2571 38.4742 15.5564 38.675 15.8892 38.801C16.2601 38.9939 16.6712 39.0967 17.0892 39.101C17.6025 39.101 18.1043 38.949 18.5314 38.6643C18.9585 38.3796 19.2918 37.9748 19.4892 37.501C19.6521 37.1231 19.7207 36.7113 19.6892 36.301C19.6706 35.9923 19.6031 35.6885 19.4892 35.401L23.6892 31.201C23.9767 31.3149 24.2805 31.3824 24.5892 31.401C24.9772 31.4098 25.3594 31.3056 25.6892 31.101L29.4892 34.201C29.4892 34.401 29.3892 34.601 29.3892 34.801C29.3892 35.5171 29.6737 36.2038 30.18 36.7102C30.6863 37.2165 31.3731 37.501 32.0892 37.501C32.8053 37.501 33.492 37.2165 33.9984 36.7102C34.5047 36.2038 34.7892 35.5171 34.7892 34.801C34.805 34.5958 34.7706 34.3899 34.6892 34.201L38.3892 31.301C40.142 33.584 42.399 35.4308 44.9837 36.6971C47.5684 37.9635 50.4109 38.615 53.2892 38.601C58.2937 38.5747 63.0857 36.575 66.6245 33.0363C70.1632 29.4975 72.1629 24.7055 72.1892 19.701C72.1986 17.2325 71.7173 14.7868 70.7734 12.5059C69.8294 10.225 68.4416 8.15444 66.6905 6.41454C64.9395 4.67463 62.8601 3.30008 60.5732 2.37073C58.2863 1.44138 55.8376 0.975777 53.3692 1.00097ZM17.0692 37.101C16.9505 37.101 16.8345 37.0658 16.7358 36.9999C16.6372 36.9339 16.5603 36.8402 16.5149 36.7306C16.4695 36.6209 16.4576 36.5003 16.4807 36.3839C16.5039 36.2675 16.561 36.1606 16.6449 36.0767C16.7288 35.9928 16.8357 35.9356 16.9521 35.9125C17.0685 35.8893 17.1892 35.9012 17.2988 35.9466C17.4084 35.9921 17.5021 36.069 17.5681 36.1676C17.634 36.2663 17.6692 36.3823 17.6692 36.501C17.6629 36.6567 17.6009 36.8049 17.4944 36.9187C17.3879 37.0325 17.2441 37.1043 17.0892 37.121L17.0692 37.101ZM24.5692 29.501C24.4101 29.501 24.2575 29.4378 24.1449 29.3252C24.0324 29.2127 23.9692 29.0601 23.9692 28.901C23.9692 28.7418 24.0324 28.5892 24.1449 28.4767C24.2575 28.3642 24.4101 28.301 24.5692 28.301C24.7398 28.3187 24.8971 28.4011 25.0087 28.5314C25.1204 28.6616 25.1778 28.8297 25.1692 29.001C25.1892 29.421 24.9892 29.521 24.5892 29.521L24.5692 29.501ZM32.1692 35.601C32.0505 35.601 31.9345 35.5658 31.8359 35.4999C31.7372 35.4339 31.6603 35.3402 31.6149 35.2306C31.5695 35.1209 31.5576 35.0003 31.5807 34.8839C31.6039 34.7675 31.661 34.6606 31.7449 34.5767C31.8288 34.4928 31.9357 34.4356 32.0521 34.4125C32.1685 34.3893 32.2892 34.4012 32.3988 34.4466C32.5084 34.4921 32.6021 34.569 32.6681 34.6676C32.734 34.7663 32.7692 34.8823 32.7692 35.001C32.7629 35.1567 32.7009 35.3049 32.5944 35.4187C32.4879 35.5325 32.3441 35.6043 32.1892 35.621L32.1692 35.601ZM53.3692 35.201C50.3531 35.2108 47.4017 34.3261 44.8884 32.6586C42.3751 30.9912 40.4127 28.6159 39.2493 25.8331C38.0859 23.0503 37.7739 19.9851 38.3526 17.025C38.9314 14.0648 40.3749 11.3428 42.5006 9.20309C44.6263 7.06336 47.3388 5.60204 50.2951 5.00392C53.2514 4.40579 56.3186 4.69773 59.1089 5.84281C61.8993 6.9879 64.2874 8.9347 65.9713 11.437C67.6552 13.9394 68.5593 16.8848 68.5692 19.901C68.5864 21.9075 68.2058 23.8976 67.4495 25.7562C66.6932 27.6148 65.5761 29.3052 64.1628 30.7296C62.7495 32.1541 61.068 33.2844 59.2154 34.0553C57.3628 34.8262 55.3758 35.2224 53.3692 35.221V35.201Z" fill="url(#paint3_linear_757_20185)"/>
<path d="M27.1892 39.7332L27.1889 39.7331V39.7409V53.3401C27.184 53.6305 27.0664 53.9076 26.861 54.113C26.6556 54.3184 26.3785 54.436 26.0881 54.4409H23.0897C22.7993 54.436 22.5222 54.3184 22.3168 54.113C22.1114 53.9076 21.9938 53.6305 21.9889 53.3401V39.6417C21.9938 39.3513 22.1114 39.0742 22.3168 38.8688C22.5222 38.6634 22.7993 38.5458 23.0897 38.5409H26.0879C26.2433 38.5442 26.3966 38.5784 26.5387 38.6415C26.6805 38.7046 26.8084 38.7952 26.9149 38.9082C27.0131 39.0203 27.088 39.1508 27.1351 39.2922C27.1824 39.4341 27.2008 39.584 27.1892 39.7332ZM29.9768 44.9689C30.1822 44.7635 30.4594 44.6459 30.7498 44.641H33.7427C34.0234 44.6771 34.2843 44.8053 34.4845 45.0055C34.6847 45.2057 34.8129 45.4666 34.849 45.7473V53.3402C34.844 53.6306 34.7265 53.9077 34.5211 54.1131C34.3157 54.3185 34.0385 54.4361 33.7481 54.441H30.7498C30.4594 54.4361 30.1822 54.3185 29.9768 54.1131C29.7714 53.9077 29.6539 53.6306 29.649 53.3402V45.7418C29.6539 45.4514 29.7714 45.1743 29.9768 44.9689ZM14.8468 46.4289C15.0522 46.2235 15.3294 46.1059 15.6198 46.101H18.6155C18.9015 46.1211 19.1706 46.2438 19.3733 46.4466C19.5761 46.6493 19.6988 46.9185 19.7189 47.2044V53.3002C19.714 53.5906 19.5965 53.8677 19.3911 54.0731C19.1857 54.2785 18.9085 54.396 18.6181 54.401H15.6198C15.3294 54.396 15.0522 54.2785 14.8468 54.0731C14.6414 53.8677 14.5239 53.5906 14.5189 53.3001V47.2018C14.5239 46.9114 14.6414 46.6343 14.8468 46.4289ZM37.5968 38.8488C37.8022 38.6434 38.0794 38.5258 38.3698 38.5209H41.3662C41.6387 38.5359 41.8976 38.6449 42.0988 38.8293C42.2989 39.0127 42.4296 39.2595 42.4689 39.528V53.3201C42.464 53.6105 42.3465 53.8876 42.1411 54.093C41.9357 54.2984 41.6585 54.416 41.3681 54.4209H38.3698C38.0794 54.416 37.8022 54.2984 37.5968 54.093C37.3914 53.8876 37.2739 53.6105 37.2689 53.3201V39.6217C37.2739 39.3313 37.3914 39.0542 37.5968 38.8488Z" fill="url(#paint4_linear_757_20185)" stroke="url(#paint5_linear_757_20185)" stroke-width="0.2"/>
<path d="M55.5889 19.921V10.001C55.5902 9.89556 55.5705 9.79093 55.5307 9.69326C55.491 9.59559 55.4321 9.50687 55.3576 9.43231C55.283 9.35776 55.1943 9.29888 55.0966 9.25915C54.999 9.21942 54.8943 9.19965 54.7889 9.20099H52.5889C52.4835 9.19965 52.3788 9.21942 52.2812 9.25915C52.1835 9.29888 52.0948 9.35776 52.0202 9.43231C51.9457 9.50687 51.8868 9.59559 51.8471 9.69326C51.8073 9.79093 51.7876 9.89556 51.7889 10.001V21.501C51.7854 21.6324 51.8104 21.763 51.8622 21.8839C51.9139 22.0047 51.9913 22.1129 52.0889 22.201L57.9889 26.501C58.0793 26.5708 58.1831 26.6211 58.2938 26.649C58.4046 26.6768 58.5199 26.6814 58.6325 26.6627C58.7451 26.6439 58.8527 26.6021 58.9484 26.5399C59.0442 26.4776 59.126 26.3963 59.1889 26.301L60.4889 24.501C60.5587 24.4106 60.609 24.3068 60.6369 24.196C60.6647 24.0853 60.6694 23.97 60.6506 23.8574C60.6318 23.7447 60.59 23.6372 60.5278 23.5415C60.4655 23.4457 60.3842 23.3639 60.2889 23.301L55.5889 19.921Z" stroke="url(#paint6_linear_757_20185)" stroke-width="0.25" stroke-miterlimit="10"/>
<path d="M53.3692 1.00097C50.0251 0.995295 46.7395 1.87842 43.8489 3.55993C40.9582 5.24144 38.5664 7.66093 36.9182 10.5707C35.27 13.4805 34.4247 16.776 34.4688 20.1198C34.5129 23.4636 35.4448 26.7357 37.1692 29.601L33.3692 32.721C33.0077 32.5045 32.5901 32.4001 32.1692 32.421C31.7512 32.4253 31.3401 32.5281 30.9692 32.721L27.1692 29.621C27.1692 29.421 27.2692 29.221 27.2692 29.021C27.2692 28.3049 26.9847 27.6181 26.4784 27.1118C25.972 26.6054 25.2853 26.321 24.5692 26.321C23.8531 26.321 23.1664 26.6054 22.66 27.1118C22.1537 27.6181 21.8692 28.3049 21.8692 29.021C21.8878 29.3297 21.9553 29.6335 22.0692 29.921L17.8892 34.001C17.6017 33.8871 17.2979 33.8196 16.9892 33.801C16.4888 33.801 15.9984 33.9416 15.5741 34.2068C15.1497 34.472 14.8085 34.8512 14.5892 35.301C14.4256 35.6062 14.3317 35.9439 14.3144 36.2897C14.2972 36.6356 14.3568 36.981 14.4892 37.301C14.5919 37.6416 14.7716 37.9541 15.0144 38.2141C15.2571 38.4742 15.5564 38.675 15.8892 38.801C16.2601 38.9939 16.6712 39.0967 17.0892 39.101C17.6025 39.101 18.1043 38.949 18.5314 38.6643C18.9585 38.3796 19.2918 37.9748 19.4892 37.501C19.6521 37.1231 19.7207 36.7113 19.6892 36.301C19.6706 35.9923 19.6031 35.6885 19.4892 35.401L23.6892 31.201C23.9767 31.3149 24.2805 31.3824 24.5892 31.401C24.9772 31.4098 25.3594 31.3056 25.6892 31.101L29.4892 34.201C29.4892 34.401 29.3892 34.601 29.3892 34.801C29.3892 35.5171 29.6737 36.2038 30.18 36.7102C30.6864 37.2165 31.3731 37.501 32.0892 37.501C32.8053 37.501 33.492 37.2165 33.9984 36.7102C34.5047 36.2038 34.7892 35.5171 34.7892 34.801C34.805 34.5958 34.7706 34.3899 34.6892 34.201L38.3892 31.301C40.142 33.584 42.399 35.4308 44.9837 36.6971C47.5684 37.9635 50.4109 38.615 53.2892 38.601C58.2937 38.5747 63.0857 36.575 66.6245 33.0363C70.1632 29.4975 72.1629 24.7055 72.1892 19.701C72.1986 17.2325 71.7173 14.7868 70.7734 12.5059C69.8294 10.225 68.4416 8.15444 66.6905 6.41454C64.9395 4.67463 62.8601 3.30008 60.5732 2.37073C58.2863 1.44138 55.8376 0.975777 53.3692 1.00097ZM17.0692 37.101C16.9505 37.101 16.8345 37.0658 16.7358 36.9999C16.6372 36.9339 16.5603 36.8402 16.5149 36.7306C16.4695 36.6209 16.4576 36.5003 16.4807 36.3839C16.5039 36.2675 16.561 36.1606 16.6449 36.0767C16.7288 35.9928 16.8357 35.9356 16.9521 35.9125C17.0685 35.8893 17.1892 35.9012 17.2988 35.9466C17.4084 35.9921 17.5021 36.069 17.5681 36.1676C17.634 36.2663 17.6692 36.3823 17.6692 36.501C17.6629 36.6567 17.6009 36.8049 17.4944 36.9187C17.3879 37.0325 17.2441 37.1043 17.0892 37.121L17.0692 37.101ZM24.5692 29.501C24.4101 29.501 24.2575 29.4378 24.1449 29.3252C24.0324 29.2127 23.9692 29.0601 23.9692 28.901C23.9692 28.7418 24.0324 28.5892 24.1449 28.4767C24.2575 28.3642 24.4101 28.301 24.5692 28.301C24.7398 28.3187 24.8971 28.4011 25.0087 28.5314C25.1204 28.6616 25.1778 28.8297 25.1692 29.001C25.1892 29.421 24.9892 29.521 24.5892 29.521L24.5692 29.501ZM32.1692 35.601C32.0505 35.601 31.9345 35.5658 31.8359 35.4999C31.7372 35.4339 31.6603 35.3402 31.6149 35.2306C31.5695 35.1209 31.5576 35.0003 31.5807 34.8839C31.6039 34.7675 31.661 34.6606 31.7449 34.5767C31.8288 34.4928 31.9357 34.4356 32.0521 34.4125C32.1685 34.3893 32.2892 34.4012 32.3988 34.4466C32.5084 34.4921 32.6021 34.569 32.6681 34.6676C32.734 34.7663 32.7692 34.8823 32.7692 35.001C32.7629 35.1567 32.7009 35.3049 32.5944 35.4187C32.4879 35.5325 32.3441 35.6043 32.1892 35.621L32.1692 35.601ZM53.3692 35.201C50.353 35.2108 47.4017 34.3261 44.8884 32.6586C42.3751 30.9912 40.4127 28.6159 39.2493 25.8331C38.0859 23.0503 37.7739 19.9851 38.3526 17.025C38.9314 14.0648 40.3749 11.3428 42.5006 9.20309C44.6263 7.06336 47.3388 5.60204 50.2951 5.00392C53.2514 4.40579 56.3186 4.69773 59.1089 5.84281C61.8993 6.9879 64.2874 8.9347 65.9713 11.437C67.6552 13.9394 68.5593 16.8848 68.5692 19.901C68.5864 21.9075 68.2058 23.8976 67.4495 25.7562C66.6932 27.6148 65.5761 29.3052 64.1628 30.7296C62.7495 32.1541 61.068 33.2844 59.2154 34.0553C57.3628 34.8262 55.3758 35.2224 53.3692 35.221V35.201Z" stroke="url(#paint7_linear_757_20185)" stroke-width="0.25" stroke-miterlimit="10"/>
<path d="M65.3194 72.9888C65.3194 77.4095 64.8987 81.001 64.3804 81.001C63.8621 81.001 63.4292 77.4095 63.4292 72.9888C63.4292 68.568 63.8682 65.001 64.3804 65.001C64.8926 65.001 65.3194 68.562 65.3194 72.9888Z" fill="url(#paint8_radial_757_20185)"/>
<path d="M64.3813 73.9154C59.9606 73.9154 56.3691 73.4947 56.3691 72.9764C56.3691 72.4581 59.9606 72.0251 64.3813 72.0251C68.8021 72.0251 72.3691 72.4642 72.3691 72.9764C72.3691 73.4886 68.8082 73.9154 64.3813 73.9154Z" fill="url(#paint9_radial_757_20185)"/>
<path d="M32.3194 12.9888C32.3194 17.4095 31.8987 21.001 31.3804 21.001C30.8621 21.001 30.4292 17.4095 30.4292 12.9888C30.4292 8.56805 30.8682 5.00098 31.3804 5.00098C31.8926 5.00098 32.3194 8.56195 32.3194 12.9888Z" fill="url(#paint10_radial_757_20185)"/>
<path d="M31.3813 13.9154C26.9606 13.9154 23.3691 13.4947 23.3691 12.9764C23.3691 12.4581 26.9606 12.0251 31.3813 12.0251C35.8021 12.0251 39.3691 12.4642 39.3691 12.9764C39.3691 13.4886 35.8082 13.9154 31.3813 13.9154Z" fill="url(#paint11_radial_757_20185)"/>
<defs>
<linearGradient id="paint0_linear_757_20185" x1="63.869" y1="79.001" x2="9.5" y2="18.5" gradientUnits="userSpaceOnUse">
<stop stop-color="white" stop-opacity="0.9"/>
<stop offset="0.04" stop-color="white" stop-opacity="0.85"/>
<stop offset="0.28" stop-color="white" stop-opacity="0.5"/>
<stop offset="0.65" stop-color="#FAFBFC" stop-opacity="0.4"/>
<stop offset="1" stop-color="#F0EFEF" stop-opacity="0.3"/>
</linearGradient>
<linearGradient id="paint1_linear_757_20185" x1="64" y1="79" x2="18" y2="19.5" gradientUnits="userSpaceOnUse">
<stop stop-color="white" stop-opacity="0.9"/>
<stop offset="0.28" stop-color="white" stop-opacity="0.5"/>
<stop offset="0.65" stop-color="#FAFBFC" stop-opacity="0.4"/>
<stop offset="1" stop-color="#F0EFEF" stop-opacity="0"/>
</linearGradient>
<linearGradient id="paint2_linear_757_20185" x1="51.7889" y1="17.951" x2="60.6689" y2="17.951" gradientUnits="userSpaceOnUse">
<stop stop-color="#79A540"/>
<stop offset="0.2" stop-color="#94C63D"/>
<stop offset="0.39" stop-color="#98CA3C"/>
<stop offset="0.59" stop-color="#93C53E"/>
<stop offset="0.74" stop-color="#9DCB3B"/>
<stop offset="0.9" stop-color="#A6CE39"/>
<stop offset="1" stop-color="#A6CE39"/>
</linearGradient>
<linearGradient id="paint3_linear_757_20185" x1="14.3092" y1="20.071" x2="72.1892" y2="20.071" gradientUnits="userSpaceOnUse">
<stop stop-color="#79A540"/>
<stop offset="0.2" stop-color="#94C63D"/>
<stop offset="0.39" stop-color="#98CA3C"/>
<stop offset="0.59" stop-color="#93C53E"/>
<stop offset="0.74" stop-color="#9DCB3B"/>
<stop offset="0.9" stop-color="#A6CE39"/>
<stop offset="1" stop-color="#A6CE39"/>
</linearGradient>
<linearGradient id="paint4_linear_757_20185" x1="40.8508" y1="54.074" x2="30.3142" y2="33.5892" gradientUnits="userSpaceOnUse">
<stop stop-color="white" stop-opacity="0.9"/>
<stop offset="0.04" stop-color="white" stop-opacity="0.85"/>
<stop offset="0.28" stop-color="white" stop-opacity="0.5"/>
<stop offset="0.65" stop-color="#FAFBFC" stop-opacity="0.4"/>
<stop offset="1" stop-color="#F0EFEF" stop-opacity="0.3"/>
</linearGradient>
<linearGradient id="paint5_linear_757_20185" x1="28.4996" y1="54.6022" x2="28.4996" y2="38.376" gradientUnits="userSpaceOnUse">
<stop stop-color="white" stop-opacity="0.9"/>
<stop offset="0.28" stop-color="white" stop-opacity="0.5"/>
<stop offset="0.65" stop-color="#FAFBFC" stop-opacity="0.4"/>
<stop offset="1" stop-color="#F0EFEF" stop-opacity="0.3"/>
</linearGradient>
<linearGradient id="paint6_linear_757_20185" x1="56.2289" y1="26.821" x2="56.2289" y2="9.09099" gradientUnits="userSpaceOnUse">
<stop stop-color="white" stop-opacity="0.9"/>
<stop offset="0.04" stop-color="white" stop-opacity="0.85"/>
<stop offset="0.28" stop-color="white" stop-opacity="0.5"/>
<stop offset="0.65" stop-color="#FAFBFC" stop-opacity="0.4"/>
<stop offset="1" stop-color="#F0EFEF" stop-opacity="0.3"/>
</linearGradient>
<linearGradient id="paint7_linear_757_20185" x1="43.2492" y1="39.241" x2="43.2492" y2="0.89097" gradientUnits="userSpaceOnUse">
<stop stop-color="white" stop-opacity="0.9"/>
<stop offset="0.04" stop-color="white" stop-opacity="0.85"/>
<stop offset="0.28" stop-color="white" stop-opacity="0.5"/>
<stop offset="0.65" stop-color="#FAFBFC" stop-opacity="0.4"/>
<stop offset="1" stop-color="#F0EFEF" stop-opacity="0.3"/>
</linearGradient>
<radialGradient id="paint8_radial_757_20185" cx="0" cy="0" r="1" gradientUnits="userSpaceOnUse" gradientTransform="translate(64.2302 73.5732) scale(0.935121 8.01781)">
<stop stop-color="white"/>
<stop offset="0.07" stop-color="white" stop-opacity="0.93"/>
<stop offset="1" stop-color="white" stop-opacity="0"/>
</radialGradient>
<radialGradient id="paint9_radial_757_20185" cx="0" cy="0" r="1" gradientUnits="userSpaceOnUse" gradientTransform="translate(63.7969 72.8261) rotate(90) scale(0.935121 8.01781)">
<stop stop-color="white"/>
<stop offset="0.07" stop-color="white" stop-opacity="0.93"/>
<stop offset="1" stop-color="white" stop-opacity="0"/>
</radialGradient>
<radialGradient id="paint10_radial_757_20185" cx="0" cy="0" r="1" gradientUnits="userSpaceOnUse" gradientTransform="translate(31.2302 13.5732) scale(0.935121 8.01781)">
<stop stop-color="white"/>
<stop offset="0.07" stop-color="white" stop-opacity="0.93"/>
<stop offset="1" stop-color="white" stop-opacity="0"/>
</radialGradient>
<radialGradient id="paint11_radial_757_20185" cx="0" cy="0" r="1" gradientUnits="userSpaceOnUse" gradientTransform="translate(30.7969 12.8261) rotate(90) scale(0.935121 8.01781)">
<stop stop-color="white"/>
<stop offset="0.07" stop-color="white" stop-opacity="0.93"/>
<stop offset="1" stop-color="white" stop-opacity="0"/>
</radialGradient>
</defs>
</svg>
