<svg width="77" height="80" viewBox="0 0 77 80" fill="none" xmlns="http://www.w3.org/2000/svg">
<mask id="path-1-inside-1_757_11687" fill="white">
<path fill-rule="evenodd" clip-rule="evenodd" d="M8.47296 56.2898H71.3657C74.2393 56.2898 76.5833 58.0816 76.5833 60.2565V76.0332C76.5833 78.2082 74.2281 80 71.3657 80H8.47296C5.61061 80 3.25537 78.2194 3.25537 76.0332V60.2565C3.25537 58.0703 5.59934 56.2898 8.47296 56.2898ZM60.029 62.2286C60.029 61.7235 60.2297 61.2391 60.5868 60.8819C60.944 60.5248 61.4284 60.3241 61.9335 60.3241C62.4386 60.3241 62.923 60.5248 63.2802 60.8819C63.6373 61.2391 63.838 61.7235 63.838 62.2286V64.674L65.8889 63.2992C66.3074 63.0197 66.8197 62.9179 67.3131 63.0162C67.8066 63.1145 68.2408 63.4048 68.5203 63.8232C68.7997 64.2416 68.9015 64.7539 68.8032 65.2474C68.705 65.7408 68.4147 66.1751 67.9963 66.4545L65.3593 68.2238L67.9963 69.9705C68.2042 70.1081 68.383 70.2853 68.5224 70.492C68.6618 70.6988 68.7592 70.9309 68.8089 71.1753C68.8586 71.4196 68.8597 71.6714 68.8121 71.9161C68.7645 72.1609 68.6692 72.3939 68.5315 72.6018C68.3939 72.8097 68.2167 72.9885 68.01 73.1279C67.8032 73.2674 67.5711 73.3647 67.3267 73.4144C67.0824 73.4641 66.8307 73.4652 66.5859 73.4176C66.3411 73.37 66.1081 73.2747 65.9002 73.1371L63.838 71.7735V74.2414C63.838 74.7465 63.6373 75.231 63.2802 75.5881C62.923 75.9453 62.4386 76.1459 61.9335 76.1459C61.4284 76.1459 60.944 75.9453 60.5868 75.5881C60.2297 75.231 60.029 74.7465 60.029 74.2414V71.8073L57.9893 73.1709C57.5709 73.4503 57.0586 73.5521 56.5651 73.4538C56.0717 73.3556 55.6374 73.0653 55.358 72.6469C55.0785 72.2284 54.9768 71.7162 55.075 71.2227C55.1733 70.7292 55.4636 70.295 55.882 70.0155L58.5077 68.2576L55.8707 66.4996C55.4508 66.2216 55.1585 65.7883 55.0581 65.2948C54.9577 64.8013 55.0575 64.2882 55.3354 63.8683C55.6134 63.4483 56.0468 63.156 56.5403 63.0556C57.0337 62.9553 57.5469 63.055 57.9668 63.333L60.029 64.674V62.2286ZM15.7866 62.2286C15.7866 61.7235 15.9872 61.2391 16.3444 60.8819C16.7016 60.5248 17.186 60.3241 17.6911 60.3241C18.1962 60.3241 18.6806 60.5248 19.0377 60.8819C19.3949 61.2391 19.5955 61.7235 19.5955 62.2286V64.674L21.6465 63.2992C22.0649 63.0197 22.5772 62.9179 23.0707 63.0162C23.5642 63.1145 23.9984 63.4048 24.2778 63.8232C24.5573 64.2416 24.6591 64.7539 24.5608 65.2474C24.4625 65.7408 24.1723 66.1751 23.7538 66.4545L21.1394 68.2463L23.7764 69.993C23.9843 70.1306 24.1631 70.3079 24.3025 70.5146C24.4419 70.7213 24.5393 70.9535 24.589 71.1978C24.6387 71.4422 24.6398 71.6939 24.5922 71.9387C24.5446 72.1834 24.4493 72.4164 24.3117 72.6243C24.174 72.8323 23.9968 73.011 23.7901 73.1505C23.5833 73.2899 23.3512 73.3872 23.1069 73.4369C22.8625 73.4866 22.6108 73.4877 22.366 73.4402C22.1212 73.3926 21.8882 73.2972 21.6803 73.1596L19.6181 71.7961V74.264C19.6181 74.5141 19.5688 74.7617 19.4731 74.9928C19.3774 75.2239 19.2371 75.4338 19.0603 75.6107C18.8834 75.7875 18.6735 75.9278 18.4424 76.0235C18.2114 76.1192 17.9637 76.1685 17.7136 76.1685C17.4635 76.1685 17.2159 76.1192 16.9848 76.0235C16.7537 75.9278 16.5438 75.7875 16.3669 75.6107C16.1901 75.4338 16.0498 75.2239 15.9541 74.9928C15.8584 74.7617 15.8091 74.5141 15.8091 74.264V71.8073L13.7694 73.1709C13.351 73.4503 12.8387 73.5521 12.3452 73.4538C11.8518 73.3556 11.4175 73.0653 11.1381 72.6469C10.8586 72.2284 10.7569 71.7162 10.8551 71.2227C10.9534 70.7292 11.2437 70.295 11.6621 70.0155L14.2991 68.2576L11.6508 66.4996C11.4284 66.3679 11.2351 66.1922 11.0828 65.9834C10.9304 65.7745 10.8222 65.5369 10.7647 65.2848C10.7071 65.0328 10.7015 64.7717 10.7481 64.5174C10.7948 64.2632 10.8927 64.0211 11.0359 63.8059C11.1791 63.5907 11.3646 63.4068 11.5812 63.2657C11.7977 63.1245 12.0407 63.0288 12.2954 62.9846C12.5501 62.9403 12.8112 62.9484 13.0626 63.0083C13.3141 63.0682 13.5508 63.1787 13.7582 63.333L15.7866 64.674V62.2286ZM37.9078 62.2286C37.9078 61.7235 38.1085 61.2391 38.4656 60.8819C38.8228 60.5248 39.3072 60.3241 39.8123 60.3241C40.3174 60.3241 40.8018 60.5248 41.1589 60.8819C41.5161 61.2391 41.7168 61.7235 41.7168 62.2286V64.674L43.7677 63.2992C44.1891 63.0122 44.7073 62.9045 45.2081 62.9996C45.709 63.0947 46.1516 63.3849 46.4385 63.8063C46.7254 64.2277 46.8332 64.7458 46.7381 65.2467C46.643 65.7476 46.3528 66.1901 45.9314 66.477L43.2944 68.2463L45.9314 69.993C46.1393 70.1306 46.3181 70.3079 46.4575 70.5146C46.597 70.7213 46.6943 70.9535 46.744 71.1978C46.7937 71.4422 46.7948 71.6939 46.7472 71.9387C46.6996 72.1834 46.6043 72.4164 46.4667 72.6243C46.329 72.8323 46.1518 73.011 45.9451 73.1505C45.7384 73.2899 45.5062 73.3872 45.2619 73.4369C45.0175 73.4866 44.7658 73.4877 44.521 73.4402C44.2763 73.3926 44.0433 73.2972 43.8353 73.1596L41.7731 71.7961V74.264C41.7731 74.7691 41.5725 75.2535 41.2153 75.6107C40.8581 75.9678 40.3737 76.1685 39.8686 76.1685C39.3635 76.1685 38.8791 75.9678 38.522 75.6107C38.1648 75.2535 37.9642 74.7691 37.9642 74.264V71.8073L35.9244 73.1709C35.7173 73.3093 35.4849 73.4055 35.2405 73.454C34.9961 73.5026 34.7446 73.5025 34.5003 73.4538C34.2559 73.4052 34.0235 73.3089 33.8164 73.1704C33.6093 73.032 33.4315 72.8541 33.2931 72.6469C33.1547 72.4397 33.0585 72.2073 33.01 71.9629C32.9614 71.7186 32.9615 71.467 33.0102 71.2227C33.0588 70.9783 33.1551 70.746 33.2936 70.5389C33.432 70.3317 33.6099 70.1539 33.8171 70.0155L36.4541 68.2576L33.8059 66.4996C33.5834 66.3679 33.3902 66.1922 33.2378 65.9834C33.0855 65.7745 32.9772 65.5369 32.9197 65.2848C32.8622 65.0328 32.8565 64.7717 32.9032 64.5174C32.9498 64.2632 33.0477 64.0211 33.1909 63.8059C33.3341 63.5907 33.5197 63.4068 33.7362 63.2657C33.9527 63.1245 34.1958 63.0288 34.4505 62.9846C34.7051 62.9403 34.9662 62.9484 35.2177 63.0083C35.4691 63.0682 35.7058 63.1787 35.9132 63.333L37.9078 64.674V62.2286Z"/>
</mask>
<path fill-rule="evenodd" clip-rule="evenodd" d="M8.47296 56.2898H71.3657C74.2393 56.2898 76.5833 58.0816 76.5833 60.2565V76.0332C76.5833 78.2082 74.2281 80 71.3657 80H8.47296C5.61061 80 3.25537 78.2194 3.25537 76.0332V60.2565C3.25537 58.0703 5.59934 56.2898 8.47296 56.2898ZM60.029 62.2286C60.029 61.7235 60.2297 61.2391 60.5868 60.8819C60.944 60.5248 61.4284 60.3241 61.9335 60.3241C62.4386 60.3241 62.923 60.5248 63.2802 60.8819C63.6373 61.2391 63.838 61.7235 63.838 62.2286V64.674L65.8889 63.2992C66.3074 63.0197 66.8197 62.9179 67.3131 63.0162C67.8066 63.1145 68.2408 63.4048 68.5203 63.8232C68.7997 64.2416 68.9015 64.7539 68.8032 65.2474C68.705 65.7408 68.4147 66.1751 67.9963 66.4545L65.3593 68.2238L67.9963 69.9705C68.2042 70.1081 68.383 70.2853 68.5224 70.492C68.6618 70.6988 68.7592 70.9309 68.8089 71.1753C68.8586 71.4196 68.8597 71.6714 68.8121 71.9161C68.7645 72.1609 68.6692 72.3939 68.5315 72.6018C68.3939 72.8097 68.2167 72.9885 68.01 73.1279C67.8032 73.2674 67.5711 73.3647 67.3267 73.4144C67.0824 73.4641 66.8307 73.4652 66.5859 73.4176C66.3411 73.37 66.1081 73.2747 65.9002 73.1371L63.838 71.7735V74.2414C63.838 74.7465 63.6373 75.231 63.2802 75.5881C62.923 75.9453 62.4386 76.1459 61.9335 76.1459C61.4284 76.1459 60.944 75.9453 60.5868 75.5881C60.2297 75.231 60.029 74.7465 60.029 74.2414V71.8073L57.9893 73.1709C57.5709 73.4503 57.0586 73.5521 56.5651 73.4538C56.0717 73.3556 55.6374 73.0653 55.358 72.6469C55.0785 72.2284 54.9768 71.7162 55.075 71.2227C55.1733 70.7292 55.4636 70.295 55.882 70.0155L58.5077 68.2576L55.8707 66.4996C55.4508 66.2216 55.1585 65.7883 55.0581 65.2948C54.9577 64.8013 55.0575 64.2882 55.3354 63.8683C55.6134 63.4483 56.0468 63.156 56.5403 63.0556C57.0337 62.9553 57.5469 63.055 57.9668 63.333L60.029 64.674V62.2286ZM15.7866 62.2286C15.7866 61.7235 15.9872 61.2391 16.3444 60.8819C16.7016 60.5248 17.186 60.3241 17.6911 60.3241C18.1962 60.3241 18.6806 60.5248 19.0377 60.8819C19.3949 61.2391 19.5955 61.7235 19.5955 62.2286V64.674L21.6465 63.2992C22.0649 63.0197 22.5772 62.9179 23.0707 63.0162C23.5642 63.1145 23.9984 63.4048 24.2778 63.8232C24.5573 64.2416 24.6591 64.7539 24.5608 65.2474C24.4625 65.7408 24.1723 66.1751 23.7538 66.4545L21.1394 68.2463L23.7764 69.993C23.9843 70.1306 24.1631 70.3079 24.3025 70.5146C24.4419 70.7213 24.5393 70.9535 24.589 71.1978C24.6387 71.4422 24.6398 71.6939 24.5922 71.9387C24.5446 72.1834 24.4493 72.4164 24.3117 72.6243C24.174 72.8323 23.9968 73.011 23.7901 73.1505C23.5833 73.2899 23.3512 73.3872 23.1069 73.4369C22.8625 73.4866 22.6108 73.4877 22.366 73.4402C22.1212 73.3926 21.8882 73.2972 21.6803 73.1596L19.6181 71.7961V74.264C19.6181 74.5141 19.5688 74.7617 19.4731 74.9928C19.3774 75.2239 19.2371 75.4338 19.0603 75.6107C18.8834 75.7875 18.6735 75.9278 18.4424 76.0235C18.2114 76.1192 17.9637 76.1685 17.7136 76.1685C17.4635 76.1685 17.2159 76.1192 16.9848 76.0235C16.7537 75.9278 16.5438 75.7875 16.3669 75.6107C16.1901 75.4338 16.0498 75.2239 15.9541 74.9928C15.8584 74.7617 15.8091 74.5141 15.8091 74.264V71.8073L13.7694 73.1709C13.351 73.4503 12.8387 73.5521 12.3452 73.4538C11.8518 73.3556 11.4175 73.0653 11.1381 72.6469C10.8586 72.2284 10.7569 71.7162 10.8551 71.2227C10.9534 70.7292 11.2437 70.295 11.6621 70.0155L14.2991 68.2576L11.6508 66.4996C11.4284 66.3679 11.2351 66.1922 11.0828 65.9834C10.9304 65.7745 10.8222 65.5369 10.7647 65.2848C10.7071 65.0328 10.7015 64.7717 10.7481 64.5174C10.7948 64.2632 10.8927 64.0211 11.0359 63.8059C11.1791 63.5907 11.3646 63.4068 11.5812 63.2657C11.7977 63.1245 12.0407 63.0288 12.2954 62.9846C12.5501 62.9403 12.8112 62.9484 13.0626 63.0083C13.3141 63.0682 13.5508 63.1787 13.7582 63.333L15.7866 64.674V62.2286ZM37.9078 62.2286C37.9078 61.7235 38.1085 61.2391 38.4656 60.8819C38.8228 60.5248 39.3072 60.3241 39.8123 60.3241C40.3174 60.3241 40.8018 60.5248 41.1589 60.8819C41.5161 61.2391 41.7168 61.7235 41.7168 62.2286V64.674L43.7677 63.2992C44.1891 63.0122 44.7073 62.9045 45.2081 62.9996C45.709 63.0947 46.1516 63.3849 46.4385 63.8063C46.7254 64.2277 46.8332 64.7458 46.7381 65.2467C46.643 65.7476 46.3528 66.1901 45.9314 66.477L43.2944 68.2463L45.9314 69.993C46.1393 70.1306 46.3181 70.3079 46.4575 70.5146C46.597 70.7213 46.6943 70.9535 46.744 71.1978C46.7937 71.4422 46.7948 71.6939 46.7472 71.9387C46.6996 72.1834 46.6043 72.4164 46.4667 72.6243C46.329 72.8323 46.1518 73.011 45.9451 73.1505C45.7384 73.2899 45.5062 73.3872 45.2619 73.4369C45.0175 73.4866 44.7658 73.4877 44.521 73.4402C44.2763 73.3926 44.0433 73.2972 43.8353 73.1596L41.7731 71.7961V74.264C41.7731 74.7691 41.5725 75.2535 41.2153 75.6107C40.8581 75.9678 40.3737 76.1685 39.8686 76.1685C39.3635 76.1685 38.8791 75.9678 38.522 75.6107C38.1648 75.2535 37.9642 74.7691 37.9642 74.264V71.8073L35.9244 73.1709C35.7173 73.3093 35.4849 73.4055 35.2405 73.454C34.9961 73.5026 34.7446 73.5025 34.5003 73.4538C34.2559 73.4052 34.0235 73.3089 33.8164 73.1704C33.6093 73.032 33.4315 72.8541 33.2931 72.6469C33.1547 72.4397 33.0585 72.2073 33.01 71.9629C32.9614 71.7186 32.9615 71.467 33.0102 71.2227C33.0588 70.9783 33.1551 70.746 33.2936 70.5389C33.432 70.3317 33.6099 70.1539 33.8171 70.0155L36.4541 68.2576L33.8059 66.4996C33.5834 66.3679 33.3902 66.1922 33.2378 65.9834C33.0855 65.7745 32.9772 65.5369 32.9197 65.2848C32.8622 65.0328 32.8565 64.7717 32.9032 64.5174C32.9498 64.2632 33.0477 64.0211 33.1909 63.8059C33.3341 63.5907 33.5197 63.4068 33.7362 63.2657C33.9527 63.1245 34.1958 63.0288 34.4505 62.9846C34.7051 62.9403 34.9662 62.9484 35.2177 63.0083C35.4691 63.0682 35.7058 63.1787 35.9132 63.333L37.9078 64.674V62.2286Z" fill="url(#paint0_linear_757_11687)" stroke="url(#paint1_linear_757_11687)" stroke-width="0.5" mask="url(#path-1-inside-1_757_11687)"/>
<mask id="path-2-inside-2_757_11687" fill="white">
<path d="M18.4348 41.6286C18.3235 41.7279 18.1936 41.8041 18.0526 41.8527C17.9116 41.9014 17.7624 41.9216 17.6136 41.9122C17.4647 41.9028 17.3192 41.8639 17.1855 41.7978C17.0518 41.7317 16.9325 41.6397 16.8346 41.5272C16.6376 41.3029 16.5377 41.0096 16.5567 40.7117C16.5757 40.4138 16.7122 40.1357 16.9361 39.9382C18.2598 38.7555 19.2178 37.2188 19.697 35.5095C20.2842 33.2361 20.4106 30.8682 20.0689 28.5452C19.478 25.8365 19.3522 23.0471 19.697 20.2962C20.0127 17.8271 20.8917 15.4636 22.2663 13.3883C22.3491 13.2653 22.4553 13.1599 22.5788 13.078C22.7024 12.9961 22.8409 12.9394 22.9864 12.9112C23.1319 12.8829 23.2816 12.8836 23.4268 12.9133C23.572 12.9429 23.71 13.001 23.8327 13.084C23.9573 13.1668 24.0641 13.2736 24.147 13.398C24.2298 13.5225 24.2871 13.6623 24.3154 13.8091C24.3437 13.9559 24.3426 14.107 24.3119 14.2533C24.2813 14.3997 24.2218 14.5385 24.137 14.6617C22.9353 16.4438 22.1637 18.4807 21.8832 20.6118C21.5717 23.1034 21.686 25.6299 22.2213 28.0832C22.2331 28.1427 22.2331 28.204 22.2213 28.2635C22.6136 30.896 22.4601 33.5811 21.7705 36.1518C21.1912 38.2667 20.018 40.1712 18.3898 41.6399L18.4348 41.6286ZM23.6524 41.1553C23.7307 41.0293 23.833 40.92 23.9536 40.8337C24.0742 40.7473 24.2107 40.6857 24.3551 40.6522C24.4996 40.6186 24.6493 40.614 24.7956 40.6385C24.9418 40.6629 25.0819 40.716 25.2076 40.7947C25.3351 40.873 25.4457 40.9758 25.5331 41.0973C25.6204 41.2188 25.6827 41.3565 25.7162 41.5023C25.7498 41.6481 25.754 41.7991 25.7286 41.9466C25.7032 42.094 25.6486 42.235 25.5682 42.3611L23.4496 45.7418C23.3712 45.8676 23.2687 45.9767 23.1481 46.0629C23.0275 46.1491 22.8911 46.2107 22.7467 46.2442C22.6023 46.2777 22.4527 46.2824 22.3065 46.2581C22.1603 46.2338 22.0202 46.1809 21.8945 46.1024C21.7687 46.024 21.6596 45.9216 21.5734 45.801C21.4872 45.6804 21.4256 45.544 21.3921 45.3996C21.3586 45.2551 21.3539 45.1056 21.3782 44.9593C21.4025 44.8131 21.4554 44.6731 21.5338 44.5473L23.6524 41.1553ZM34.4369 42.2822C34.4688 42.1342 34.5294 41.994 34.6154 41.8694C34.7015 41.7449 34.8112 41.6385 34.9383 41.5563C35.0655 41.4742 35.2076 41.4179 35.3564 41.3907C35.5053 41.3634 35.6582 41.3658 35.8061 41.3976C35.9541 41.4294 36.0944 41.4901 36.2189 41.5761C36.3435 41.6621 36.4499 41.7718 36.532 41.899C36.6142 42.0261 36.6705 42.1682 36.6977 42.3171C36.7249 42.466 36.7226 42.6188 36.6908 42.7668L35.7667 46.8913C35.702 47.1824 35.5245 47.4361 35.2732 47.5966C35.0218 47.7572 34.717 47.8115 34.4257 47.7477C34.2803 47.7158 34.1427 47.6553 34.0209 47.5699C33.899 47.4845 33.7953 47.3758 33.7156 47.2501C33.636 47.1243 33.5821 46.9841 33.5569 46.8374C33.5318 46.6907 33.536 46.5405 33.5692 46.3954L34.4369 42.2822ZM35.6315 21.9979C35.5777 21.699 35.6448 21.391 35.8181 21.1416C35.9914 20.8922 36.2567 20.7219 36.5555 20.6681C36.8544 20.6143 37.1624 20.6815 37.4118 20.8547C37.6612 21.028 37.8315 21.2933 37.8853 21.5922C38.4155 24.458 38.6834 27.3662 38.6854 30.2806C38.6896 33.2088 38.4635 36.1327 38.0092 39.0255C37.9425 39.2919 37.7807 39.5248 37.5543 39.6803C37.3279 39.8359 37.0525 39.9034 36.7799 39.8702C36.5072 39.8369 36.2561 39.7053 36.0736 39.4999C35.8912 39.2946 35.7901 39.0297 35.7892 38.755C36.2285 35.978 36.4508 33.171 36.4541 30.3595C36.4461 27.5813 36.1896 24.8093 35.6878 22.0768L35.6315 21.9979ZM28.6221 47.3871C28.4488 47.6322 28.1851 47.7984 27.8893 47.8491C27.5934 47.8998 27.2895 47.8309 27.0444 47.6576C26.7994 47.4842 26.6332 47.2206 26.5825 46.9248C26.5317 46.6289 26.6006 46.325 26.774 46.0799C27.519 45.0266 28.1428 43.8925 28.6334 42.6992C29.1405 41.4062 29.518 40.0662 29.7603 38.6987C30.1283 35.539 30.1283 32.3472 29.7603 29.1875C29.6814 28.0606 29.6025 26.9337 29.5574 25.8744C29.4298 24.3019 29.4979 22.7197 29.7603 21.164C29.9002 20.3348 30.207 19.5426 30.6623 18.8356C31.1175 18.1285 31.7116 17.5213 32.4085 17.0507C32.742 16.8187 33.0966 16.6187 33.4678 16.4535C33.8521 16.2657 34.2517 16.1111 34.6623 15.9914C34.9891 15.9013 35.3159 15.8337 35.6315 15.7773C36.5464 15.5816 37.4944 15.6019 38.4001 15.8367C39.3059 16.0714 40.1444 16.5141 40.8491 17.1296C42.1367 18.3525 43.0511 19.9155 43.486 21.6373C43.6325 22.1782 43.7677 22.7642 43.8692 23.3389C43.8692 23.6544 43.9706 23.9812 44.0044 24.2968C44.0382 24.6123 44.072 24.9504 44.0946 25.2772C44.1847 26.7534 44.2185 28.3762 44.1734 30.0891C43.082 31.3706 42.2341 32.841 41.6717 34.4277C41.934 31.4299 41.9867 28.4175 41.8295 25.4124C41.8295 25.1307 41.8295 24.8489 41.7506 24.5447C41.6717 24.2404 41.6717 23.9925 41.6266 23.7108C41.5365 23.2149 41.435 22.7191 41.2998 22.2458C40.9876 20.9324 40.312 19.7335 39.3503 18.7862C38.8907 18.3936 38.3453 18.1145 37.758 17.9716C37.1707 17.8287 36.5581 17.826 35.9695 17.9635L35.237 18.1326C34.9274 18.2193 34.6258 18.3324 34.3355 18.4706C34.0889 18.5832 33.8515 18.7151 33.6256 18.8651C32.7759 19.4997 32.2093 20.4426 32.0479 21.4908C31.8269 22.8615 31.7739 24.2542 31.8901 25.6378C31.8901 26.6295 32.0141 27.7564 32.093 28.9058C32.4723 32.2547 32.4496 35.6369 32.0254 38.9804C31.7412 40.4983 31.3109 41.9852 30.7407 43.4204V43.488C30.179 44.847 29.4685 46.1396 28.6221 47.342V47.3871ZM42.2577 45.1333C42.0548 45.9672 41.8407 46.756 41.6041 47.4885C41.5604 47.6311 41.4889 47.7636 41.3937 47.8783C41.2985 47.993 41.1815 48.0877 41.0494 48.1569C40.9174 48.2261 40.7729 48.2684 40.6244 48.2813C40.4758 48.2942 40.3262 48.2776 40.1842 48.2323C40.0403 48.1887 39.9067 48.1169 39.791 48.0209C39.6754 47.9249 39.5801 47.8067 39.5108 47.6734C39.4415 47.54 39.3996 47.3942 39.3875 47.2444C39.3754 47.0946 39.3934 46.9439 39.4404 46.8011C40.0812 44.6969 40.5744 42.5506 40.9167 40.3777C41.0733 42.0308 41.5276 43.6419 42.2577 45.1333ZM26.774 37.876C26.7494 38.0228 26.6961 38.1633 26.6169 38.2894C26.5378 38.4154 26.4345 38.5246 26.313 38.6105C26.1914 38.6964 26.0541 38.7574 25.9088 38.7899C25.7636 38.8225 25.6133 38.8259 25.4668 38.8001C25.3179 38.7782 25.175 38.7268 25.0464 38.6488C24.9177 38.5708 24.806 38.4679 24.7178 38.3461C24.6296 38.2242 24.5666 38.086 24.5327 37.9394C24.4988 37.7929 24.4945 37.6411 24.5202 37.4929C24.7711 36.0026 24.9142 34.4961 24.9484 32.9852C24.9484 31.3174 24.9484 29.4805 24.847 27.531C24.847 27.0915 24.7793 26.5731 24.7455 26.066C24.5089 22.6853 24.3173 20.0145 26.2781 16.5211C26.7168 15.747 27.2464 15.0282 27.8558 14.38C28.4934 13.6993 29.2169 13.1045 30.0082 12.6107L30.1772 12.5206C31.318 11.9587 32.5156 11.5204 33.7495 11.2134C34.9411 10.9072 36.1719 10.7819 37.4007 10.8415C37.6996 10.8579 37.9797 10.9924 38.1794 11.2154C38.3791 11.4383 38.4821 11.7315 38.4656 12.0304C38.4492 12.3292 38.3147 12.6093 38.0918 12.8091C37.8688 13.0088 37.5756 13.1117 37.2768 13.0953C36.268 13.0469 35.2577 13.1495 34.2792 13.3996C33.2097 13.6659 32.171 14.0436 31.1802 14.5265C30.5712 14.921 30.008 15.3821 29.5011 15.9013C29.0236 16.4188 28.6077 16.9898 28.2615 17.6029C26.6275 20.5103 26.7965 22.9107 26.9994 25.8857C26.9994 26.3252 27.067 26.7872 27.1008 27.3732C27.2135 29.3678 27.2585 31.2611 27.2022 33.0078C27.1747 34.6283 27.0241 36.2445 26.7514 37.8422L26.774 37.876ZM41.4238 14.3462C41.2748 14.2848 41.1408 14.1921 41.0307 14.0746C40.9205 13.957 40.8369 13.8171 40.7854 13.6645C40.7339 13.5118 40.7158 13.3499 40.7322 13.1896C40.7486 13.0294 40.7991 12.8745 40.8805 12.7354C40.9618 12.5963 41.072 12.4763 41.2036 12.3835C41.3353 12.2906 41.4853 12.227 41.6436 12.1971C41.8019 12.1671 41.9647 12.1714 42.1212 12.2097C42.2777 12.248 42.4241 12.3194 42.5507 12.4191C42.8735 12.6126 43.1858 12.8232 43.486 13.0502C43.8016 13.2869 44.1058 13.5461 44.3988 13.8052C47.6894 16.7915 49.1994 21.2879 49.6727 26.2012C48.918 26.4941 48.1902 26.8523 47.4978 27.2718C47.1597 22.5501 45.8751 18.2565 42.8662 15.4843C42.6367 15.2645 42.3919 15.0612 42.1337 14.8758C41.8919 14.689 41.6399 14.516 41.3787 14.3574L41.4238 14.3462ZM15.3358 37.3689C15.1087 37.5662 14.8125 37.6651 14.5124 37.644C14.2123 37.6228 13.9329 37.4833 13.7356 37.2562C13.5384 37.0291 13.4394 36.7329 13.4606 36.4328C13.4817 36.1327 13.6212 35.8533 13.8483 35.656C14.1179 35.4269 14.3499 35.1569 14.5357 34.8559C14.7557 34.5053 14.9263 34.1261 15.0429 33.729C15.7303 31.5315 15.3133 29.2213 14.8851 26.8774C14.5387 25.2576 14.3462 23.6088 14.3104 21.9528C14.3667 13.2981 19.7759 6.24369 26.8529 2.62631C29.8229 1.10605 33.0779 0.223213 36.409 0.0344182C39.7645 -0.162056 43.1157 0.484939 46.1568 1.91636C53.0197 5.17312 58.5528 12.791 59.7924 26.2463C59.0347 25.9405 58.2499 25.7066 57.4484 25.5476C56.175 13.5799 51.2279 6.82968 45.1877 3.95606C42.481 2.69312 39.5038 2.12013 36.5217 2.28824C33.5136 2.4617 30.576 3.26811 27.9009 4.65474C21.5113 7.91151 16.6318 14.2335 16.6318 21.9641C16.6679 23.4804 16.849 24.9898 17.1727 26.4717C17.646 29.0974 18.1193 31.6893 17.2629 34.3601C17.0845 34.9428 16.8307 35.4997 16.5078 36.0166C16.1908 36.5262 15.7952 36.9826 15.3358 37.3689ZM29.0278 10.1541C28.7678 10.3035 28.459 10.3435 28.1695 10.2653C27.88 10.1871 27.6334 9.99712 27.4839 9.7371C27.3345 9.47708 27.2945 9.16835 27.3727 8.87881C27.4509 8.58928 27.6409 8.34267 27.9009 8.19324C29.0802 7.51853 30.3313 6.978 31.6309 6.58176C35.1982 5.48494 39.0215 5.54807 42.5507 6.76206C46.3013 8.08377 49.4473 10.7175 51.4082 14.1771C52.1588 15.4999 52.7597 16.9022 53.2 18.358C53.8685 20.5994 54.3102 22.9024 54.5185 25.2321C53.7625 25.2403 53.0086 25.312 52.2646 25.4462C52.0731 23.2552 51.6654 21.0885 51.0476 18.9778C50.6575 17.6902 50.1245 16.4504 49.4586 15.2815C47.7727 12.2891 45.0577 10.0106 41.8182 8.86938C38.741 7.80922 35.4065 7.75398 32.2958 8.71161C31.1547 9.0653 30.0581 9.54931 29.0278 10.1541Z"/>
</mask>
<path d="M18.4348 41.6286C18.3235 41.7279 18.1936 41.8041 18.0526 41.8527C17.9116 41.9014 17.7624 41.9216 17.6136 41.9122C17.4647 41.9028 17.3192 41.8639 17.1855 41.7978C17.0518 41.7317 16.9325 41.6397 16.8346 41.5272C16.6376 41.3029 16.5377 41.0096 16.5567 40.7117C16.5757 40.4138 16.7122 40.1357 16.9361 39.9382C18.2598 38.7555 19.2178 37.2188 19.697 35.5095C20.2842 33.2361 20.4106 30.8682 20.0689 28.5452C19.478 25.8365 19.3522 23.0471 19.697 20.2962C20.0127 17.8271 20.8917 15.4636 22.2663 13.3883C22.3491 13.2653 22.4553 13.1599 22.5788 13.078C22.7024 12.9961 22.8409 12.9394 22.9864 12.9112C23.1319 12.8829 23.2816 12.8836 23.4268 12.9133C23.572 12.9429 23.71 13.001 23.8327 13.084C23.9573 13.1668 24.0641 13.2736 24.147 13.398C24.2298 13.5225 24.2871 13.6623 24.3154 13.8091C24.3437 13.9559 24.3426 14.107 24.3119 14.2533C24.2813 14.3997 24.2218 14.5385 24.137 14.6617C22.9353 16.4438 22.1637 18.4807 21.8832 20.6118C21.5717 23.1034 21.686 25.6299 22.2213 28.0832C22.2331 28.1427 22.2331 28.204 22.2213 28.2635C22.6136 30.896 22.4601 33.5811 21.7705 36.1518C21.1912 38.2667 20.018 40.1712 18.3898 41.6399L18.4348 41.6286ZM23.6524 41.1553C23.7307 41.0293 23.833 40.92 23.9536 40.8337C24.0742 40.7473 24.2107 40.6857 24.3551 40.6522C24.4996 40.6186 24.6493 40.614 24.7956 40.6385C24.9418 40.6629 25.0819 40.716 25.2076 40.7947C25.3351 40.873 25.4457 40.9758 25.5331 41.0973C25.6204 41.2188 25.6827 41.3565 25.7162 41.5023C25.7498 41.6481 25.754 41.7991 25.7286 41.9466C25.7032 42.094 25.6486 42.235 25.5682 42.3611L23.4496 45.7418C23.3712 45.8676 23.2687 45.9767 23.1481 46.0629C23.0275 46.1491 22.8911 46.2107 22.7467 46.2442C22.6023 46.2777 22.4527 46.2824 22.3065 46.2581C22.1603 46.2338 22.0202 46.1809 21.8945 46.1024C21.7687 46.024 21.6596 45.9216 21.5734 45.801C21.4872 45.6804 21.4256 45.544 21.3921 45.3996C21.3586 45.2551 21.3539 45.1056 21.3782 44.9593C21.4025 44.8131 21.4554 44.6731 21.5338 44.5473L23.6524 41.1553ZM34.4369 42.2822C34.4688 42.1342 34.5294 41.994 34.6154 41.8694C34.7015 41.7449 34.8112 41.6385 34.9383 41.5563C35.0655 41.4742 35.2076 41.4179 35.3564 41.3907C35.5053 41.3634 35.6582 41.3658 35.8061 41.3976C35.9541 41.4294 36.0944 41.4901 36.2189 41.5761C36.3435 41.6621 36.4499 41.7718 36.532 41.899C36.6142 42.0261 36.6705 42.1682 36.6977 42.3171C36.7249 42.466 36.7226 42.6188 36.6908 42.7668L35.7667 46.8913C35.702 47.1824 35.5245 47.4361 35.2732 47.5966C35.0218 47.7572 34.717 47.8115 34.4257 47.7477C34.2803 47.7158 34.1427 47.6553 34.0209 47.5699C33.899 47.4845 33.7953 47.3758 33.7156 47.2501C33.636 47.1243 33.5821 46.9841 33.5569 46.8374C33.5318 46.6907 33.536 46.5405 33.5692 46.3954L34.4369 42.2822ZM35.6315 21.9979C35.5777 21.699 35.6448 21.391 35.8181 21.1416C35.9914 20.8922 36.2567 20.7219 36.5555 20.6681C36.8544 20.6143 37.1624 20.6815 37.4118 20.8547C37.6612 21.028 37.8315 21.2933 37.8853 21.5922C38.4155 24.458 38.6834 27.3662 38.6854 30.2806C38.6896 33.2088 38.4635 36.1327 38.0092 39.0255C37.9425 39.2919 37.7807 39.5248 37.5543 39.6803C37.3279 39.8359 37.0525 39.9034 36.7799 39.8702C36.5072 39.8369 36.2561 39.7053 36.0736 39.4999C35.8912 39.2946 35.7901 39.0297 35.7892 38.755C36.2285 35.978 36.4508 33.171 36.4541 30.3595C36.4461 27.5813 36.1896 24.8093 35.6878 22.0768L35.6315 21.9979ZM28.6221 47.3871C28.4488 47.6322 28.1851 47.7984 27.8893 47.8491C27.5934 47.8998 27.2895 47.8309 27.0444 47.6576C26.7994 47.4842 26.6332 47.2206 26.5825 46.9248C26.5317 46.6289 26.6006 46.325 26.774 46.0799C27.519 45.0266 28.1428 43.8925 28.6334 42.6992C29.1405 41.4062 29.518 40.0662 29.7603 38.6987C30.1283 35.539 30.1283 32.3472 29.7603 29.1875C29.6814 28.0606 29.6025 26.9337 29.5574 25.8744C29.4298 24.3019 29.4979 22.7197 29.7603 21.164C29.9002 20.3348 30.207 19.5426 30.6623 18.8356C31.1175 18.1285 31.7116 17.5213 32.4085 17.0507C32.742 16.8187 33.0966 16.6187 33.4678 16.4535C33.8521 16.2657 34.2517 16.1111 34.6623 15.9914C34.9891 15.9013 35.3159 15.8337 35.6315 15.7773C36.5464 15.5816 37.4944 15.6019 38.4001 15.8367C39.3059 16.0714 40.1444 16.5141 40.8491 17.1296C42.1367 18.3525 43.0511 19.9155 43.486 21.6373C43.6325 22.1782 43.7677 22.7642 43.8692 23.3389C43.8692 23.6544 43.9706 23.9812 44.0044 24.2968C44.0382 24.6123 44.072 24.9504 44.0946 25.2772C44.1847 26.7534 44.2185 28.3762 44.1734 30.0891C43.082 31.3706 42.2341 32.841 41.6717 34.4277C41.934 31.4299 41.9867 28.4175 41.8295 25.4124C41.8295 25.1307 41.8295 24.8489 41.7506 24.5447C41.6717 24.2404 41.6717 23.9925 41.6266 23.7108C41.5365 23.2149 41.435 22.7191 41.2998 22.2458C40.9876 20.9324 40.312 19.7335 39.3503 18.7862C38.8907 18.3936 38.3453 18.1145 37.758 17.9716C37.1707 17.8287 36.5581 17.826 35.9695 17.9635L35.237 18.1326C34.9274 18.2193 34.6258 18.3324 34.3355 18.4706C34.0889 18.5832 33.8515 18.7151 33.6256 18.8651C32.7759 19.4997 32.2093 20.4426 32.0479 21.4908C31.8269 22.8615 31.7739 24.2542 31.8901 25.6378C31.8901 26.6295 32.0141 27.7564 32.093 28.9058C32.4723 32.2547 32.4496 35.6369 32.0254 38.9804C31.7412 40.4983 31.3109 41.9852 30.7407 43.4204V43.488C30.179 44.847 29.4685 46.1396 28.6221 47.342V47.3871ZM42.2577 45.1333C42.0548 45.9672 41.8407 46.756 41.6041 47.4885C41.5604 47.6311 41.4889 47.7636 41.3937 47.8783C41.2985 47.993 41.1815 48.0877 41.0494 48.1569C40.9174 48.2261 40.7729 48.2684 40.6244 48.2813C40.4758 48.2942 40.3262 48.2776 40.1842 48.2323C40.0403 48.1887 39.9067 48.1169 39.791 48.0209C39.6754 47.9249 39.5801 47.8067 39.5108 47.6734C39.4415 47.54 39.3996 47.3942 39.3875 47.2444C39.3754 47.0946 39.3934 46.9439 39.4404 46.8011C40.0812 44.6969 40.5744 42.5506 40.9167 40.3777C41.0733 42.0308 41.5276 43.6419 42.2577 45.1333ZM26.774 37.876C26.7494 38.0228 26.6961 38.1633 26.6169 38.2894C26.5378 38.4154 26.4345 38.5246 26.313 38.6105C26.1914 38.6964 26.0541 38.7574 25.9088 38.7899C25.7636 38.8225 25.6133 38.8259 25.4668 38.8001C25.3179 38.7782 25.175 38.7268 25.0464 38.6488C24.9177 38.5708 24.806 38.4679 24.7178 38.3461C24.6296 38.2242 24.5666 38.086 24.5327 37.9394C24.4988 37.7929 24.4945 37.6411 24.5202 37.4929C24.7711 36.0026 24.9142 34.4961 24.9484 32.9852C24.9484 31.3174 24.9484 29.4805 24.847 27.531C24.847 27.0915 24.7793 26.5731 24.7455 26.066C24.5089 22.6853 24.3173 20.0145 26.2781 16.5211C26.7168 15.747 27.2464 15.0282 27.8558 14.38C28.4934 13.6993 29.2169 13.1045 30.0082 12.6107L30.1772 12.5206C31.318 11.9587 32.5156 11.5204 33.7495 11.2134C34.9411 10.9072 36.1719 10.7819 37.4007 10.8415C37.6996 10.8579 37.9797 10.9924 38.1794 11.2154C38.3791 11.4383 38.4821 11.7315 38.4656 12.0304C38.4492 12.3292 38.3147 12.6093 38.0918 12.8091C37.8688 13.0088 37.5756 13.1117 37.2768 13.0953C36.268 13.0469 35.2577 13.1495 34.2792 13.3996C33.2097 13.6659 32.171 14.0436 31.1802 14.5265C30.5712 14.921 30.008 15.3821 29.5011 15.9013C29.0236 16.4188 28.6077 16.9898 28.2615 17.6029C26.6275 20.5103 26.7965 22.9107 26.9994 25.8857C26.9994 26.3252 27.067 26.7872 27.1008 27.3732C27.2135 29.3678 27.2585 31.2611 27.2022 33.0078C27.1747 34.6283 27.0241 36.2445 26.7514 37.8422L26.774 37.876ZM41.4238 14.3462C41.2748 14.2848 41.1408 14.1921 41.0307 14.0746C40.9205 13.957 40.8369 13.8171 40.7854 13.6645C40.7339 13.5118 40.7158 13.3499 40.7322 13.1896C40.7486 13.0294 40.7991 12.8745 40.8805 12.7354C40.9618 12.5963 41.072 12.4763 41.2036 12.3835C41.3353 12.2906 41.4853 12.227 41.6436 12.1971C41.8019 12.1671 41.9647 12.1714 42.1212 12.2097C42.2777 12.248 42.4241 12.3194 42.5507 12.4191C42.8735 12.6126 43.1858 12.8232 43.486 13.0502C43.8016 13.2869 44.1058 13.5461 44.3988 13.8052C47.6894 16.7915 49.1994 21.2879 49.6727 26.2012C48.918 26.4941 48.1902 26.8523 47.4978 27.2718C47.1597 22.5501 45.8751 18.2565 42.8662 15.4843C42.6367 15.2645 42.3919 15.0612 42.1337 14.8758C41.8919 14.689 41.6399 14.516 41.3787 14.3574L41.4238 14.3462ZM15.3358 37.3689C15.1087 37.5662 14.8125 37.6651 14.5124 37.644C14.2123 37.6228 13.9329 37.4833 13.7356 37.2562C13.5384 37.0291 13.4394 36.7329 13.4606 36.4328C13.4817 36.1327 13.6212 35.8533 13.8483 35.656C14.1179 35.4269 14.3499 35.1569 14.5357 34.8559C14.7557 34.5053 14.9263 34.1261 15.0429 33.729C15.7303 31.5315 15.3133 29.2213 14.8851 26.8774C14.5387 25.2576 14.3462 23.6088 14.3104 21.9528C14.3667 13.2981 19.7759 6.24369 26.8529 2.62631C29.8229 1.10605 33.0779 0.223213 36.409 0.0344182C39.7645 -0.162056 43.1157 0.484939 46.1568 1.91636C53.0197 5.17312 58.5528 12.791 59.7924 26.2463C59.0347 25.9405 58.2499 25.7066 57.4484 25.5476C56.175 13.5799 51.2279 6.82968 45.1877 3.95606C42.481 2.69312 39.5038 2.12013 36.5217 2.28824C33.5136 2.4617 30.576 3.26811 27.9009 4.65474C21.5113 7.91151 16.6318 14.2335 16.6318 21.9641C16.6679 23.4804 16.849 24.9898 17.1727 26.4717C17.646 29.0974 18.1193 31.6893 17.2629 34.3601C17.0845 34.9428 16.8307 35.4997 16.5078 36.0166C16.1908 36.5262 15.7952 36.9826 15.3358 37.3689ZM29.0278 10.1541C28.7678 10.3035 28.459 10.3435 28.1695 10.2653C27.88 10.1871 27.6334 9.99712 27.4839 9.7371C27.3345 9.47708 27.2945 9.16835 27.3727 8.87881C27.4509 8.58928 27.6409 8.34267 27.9009 8.19324C29.0802 7.51853 30.3313 6.978 31.6309 6.58176C35.1982 5.48494 39.0215 5.54807 42.5507 6.76206C46.3013 8.08377 49.4473 10.7175 51.4082 14.1771C52.1588 15.4999 52.7597 16.9022 53.2 18.358C53.8685 20.5994 54.3102 22.9024 54.5185 25.2321C53.7625 25.2403 53.0086 25.312 52.2646 25.4462C52.0731 23.2552 51.6654 21.0885 51.0476 18.9778C50.6575 17.6902 50.1245 16.4504 49.4586 15.2815C47.7727 12.2891 45.0577 10.0106 41.8182 8.86938C38.741 7.80922 35.4065 7.75398 32.2958 8.71161C31.1547 9.0653 30.0581 9.54931 29.0278 10.1541Z" fill="url(#paint2_linear_757_11687)" stroke="url(#paint3_linear_757_11687)" stroke-width="0.3" mask="url(#path-2-inside-2_757_11687)"/>
<path d="M58.2567 34.8303L58.2563 34.8306L53.5695 39.5619L51.6528 37.753L51.6495 37.743L51.6413 37.7185L51.6223 37.701C51.4773 37.5676 51.3305 37.4731 51.1693 37.4676C51.0038 37.462 50.854 37.5503 50.705 37.7053L50.7049 37.7054L48.8906 39.5986L48.8903 39.5984L48.885 39.6049C48.7819 39.7323 48.7118 39.871 48.7065 40.0178C48.701 40.1684 48.7643 40.3095 48.892 40.4372L48.8922 40.4373L52.5425 44.0764C52.5426 44.0765 52.5428 44.0767 52.5429 44.0768C52.6027 44.1379 52.6587 44.1956 52.7114 44.2498C52.8844 44.428 53.0212 44.5688 53.135 44.6693C53.281 44.7983 53.4139 44.8846 53.5624 44.8797C53.7087 44.8749 53.8391 44.782 53.9821 44.6527C54.0688 44.5742 54.1706 44.4721 54.2922 44.35C54.3739 44.2679 54.4646 44.1769 54.5658 44.0779L54.566 44.0778L61.102 37.6544L61.1027 37.6538C61.3459 37.4105 61.5029 37.1913 61.508 36.9513C61.5132 36.7096 61.3641 36.4836 61.1027 36.2277C61.1024 36.2274 61.1021 36.2272 61.1019 36.2269L59.5258 34.617C59.399 34.4872 59.2799 34.4023 59.1621 34.3613C59.0408 34.319 58.9277 34.3257 58.8211 34.3668C58.7181 34.4064 58.6242 34.477 58.535 34.557C58.4676 34.6173 58.3978 34.6879 58.3261 34.7603C58.3031 34.7836 58.28 34.807 58.2567 34.8303ZM55.0706 28.4086C57.2796 28.4086 59.4391 29.0636 61.2758 30.2909C63.1126 31.5182 64.5441 33.2626 65.3895 35.3035C66.2348 37.3443 66.456 39.5901 66.0251 41.7567C65.5941 43.9233 64.5304 45.9134 62.9683 47.4754C61.4063 49.0374 59.4162 50.1012 57.2496 50.5321C55.083 50.9631 52.8373 50.7419 50.7964 49.8966C48.7555 49.0512 47.0111 47.6196 45.7838 45.7829C44.5566 43.9461 43.9015 41.7867 43.9015 39.5777C43.9015 36.6155 45.0783 33.7746 47.1729 31.6799C49.2675 29.5853 52.1084 28.4086 55.0706 28.4086Z" fill="url(#paint4_linear_757_11687)" stroke="url(#paint5_linear_757_11687)" stroke-width="0.2"/>
<path d="M7.83145 55.9893C7.83145 59.8575 7.46331 63 7.00981 63C6.5563 63 6.17749 59.8575 6.17749 55.9893C6.17749 52.1212 6.56164 49 7.00981 49C7.45798 49 7.83145 52.1159 7.83145 55.9893Z" fill="url(#paint6_radial_757_11687)"/>
<path d="M7.01067 56.8002C3.14253 56.8002 -5.62051e-08 56.4321 -3.63818e-08 55.9786C-1.65584e-08 55.5251 3.14253 55.1462 7.01067 55.1462C10.8788 55.1462 14 55.5304 14 55.9786C14 56.4267 10.8841 56.8002 7.01067 56.8002Z" fill="url(#paint7_radial_757_11687)"/>
<path d="M60.8315 25.9893C60.8315 29.8575 60.4633 33 60.0098 33C59.5563 33 59.1775 29.8575 59.1775 25.9893C59.1775 22.1212 59.5616 19 60.0098 19C60.458 19 60.8315 22.1159 60.8315 25.9893Z" fill="url(#paint8_radial_757_11687)"/>
<path d="M60.0107 26.8002C56.1425 26.8002 53 26.4321 53 25.9786C53 25.5251 56.1425 25.1462 60.0107 25.1462C63.8788 25.1462 67 25.5304 67 25.9786C67 26.4267 63.8841 26.8002 60.0107 26.8002Z" fill="url(#paint9_radial_757_11687)"/>
<defs>
<linearGradient id="paint0_linear_757_11687" x1="3.25537" y1="68.1449" x2="76.5833" y2="68.1449" gradientUnits="userSpaceOnUse">
<stop stop-color="#79A540"/>
<stop offset="0.2" stop-color="#94C63D"/>
<stop offset="0.39" stop-color="#98CA3C"/>
<stop offset="0.59" stop-color="#93C53E"/>
<stop offset="0.74" stop-color="#9DCB3B"/>
<stop offset="0.9" stop-color="#A6CE39"/>
<stop offset="1" stop-color="#A6CE39"/>
</linearGradient>
<linearGradient id="paint1_linear_757_11687" x1="39.9341" y1="80.09" x2="39.9341" y2="56.2237" gradientUnits="userSpaceOnUse">
<stop stop-color="white" stop-opacity="0.9"/>
<stop offset="0.28" stop-color="white" stop-opacity="0.5"/>
<stop offset="0.65" stop-color="#FAFBFC" stop-opacity="0.4"/>
<stop offset="1" stop-color="#F0EFEF" stop-opacity="0.3"/>
</linearGradient>
<linearGradient id="paint2_linear_757_11687" x1="45" y1="48" x2="26" y2="-3.13095e-06" gradientUnits="userSpaceOnUse">
<stop stop-color="white" stop-opacity="0.9"/>
<stop offset="0.04" stop-color="white" stop-opacity="0.85"/>
<stop offset="0.28" stop-color="white" stop-opacity="0.5"/>
<stop offset="0.65" stop-color="#FAFBFC" stop-opacity="0.4"/>
<stop offset="1" stop-color="#F0EFEF" stop-opacity="0.3"/>
</linearGradient>
<linearGradient id="paint3_linear_757_11687" x1="41" y1="50" x2="27.5" y2="7" gradientUnits="userSpaceOnUse">
<stop stop-color="white" stop-opacity="0.9"/>
<stop offset="0.28" stop-color="white" stop-opacity="0.5"/>
<stop offset="0.65" stop-color="#FAFBFC" stop-opacity="0.4"/>
<stop offset="1" stop-color="#F0EFEF" stop-opacity="0"/>
</linearGradient>
<linearGradient id="paint4_linear_757_11687" x1="43.779" y1="39.6115" x2="66.3735" y2="39.6115" gradientUnits="userSpaceOnUse">
<stop stop-color="#79A540"/>
<stop offset="0.2" stop-color="#94C63D"/>
<stop offset="0.39" stop-color="#98CA3C"/>
<stop offset="0.59" stop-color="#93C53E"/>
<stop offset="0.74" stop-color="#9DCB3B"/>
<stop offset="0.9" stop-color="#A6CE39"/>
<stop offset="1" stop-color="#A6CE39"/>
</linearGradient>
<linearGradient id="paint5_linear_757_11687" x1="55.0751" y1="50.9324" x2="55.0751" y2="28.2458" gradientUnits="userSpaceOnUse">
<stop stop-color="white" stop-opacity="0.9"/>
<stop offset="0.28" stop-color="white" stop-opacity="0.5"/>
<stop offset="0.65" stop-color="#FAFBFC" stop-opacity="0.4"/>
<stop offset="1" stop-color="#F0EFEF" stop-opacity="0.3"/>
</linearGradient>
<radialGradient id="paint6_radial_757_11687" cx="0" cy="0" r="1" gradientUnits="userSpaceOnUse" gradientTransform="translate(6.87834 56.5007) scale(0.818231 7.01558)">
<stop stop-color="white"/>
<stop offset="0.07" stop-color="white" stop-opacity="0.93"/>
<stop offset="1" stop-color="white" stop-opacity="0"/>
</radialGradient>
<radialGradient id="paint7_radial_757_11687" cx="0" cy="0" r="1" gradientUnits="userSpaceOnUse" gradientTransform="translate(6.49933 55.8471) rotate(90) scale(0.818231 7.01558)">
<stop stop-color="white"/>
<stop offset="0.07" stop-color="white" stop-opacity="0.93"/>
<stop offset="1" stop-color="white" stop-opacity="0"/>
</radialGradient>
<radialGradient id="paint8_radial_757_11687" cx="0" cy="0" r="1" gradientUnits="userSpaceOnUse" gradientTransform="translate(59.8783 26.5007) scale(0.818231 7.01558)">
<stop stop-color="white"/>
<stop offset="0.07" stop-color="white" stop-opacity="0.93"/>
<stop offset="1" stop-color="white" stop-opacity="0"/>
</radialGradient>
<radialGradient id="paint9_radial_757_11687" cx="0" cy="0" r="1" gradientUnits="userSpaceOnUse" gradientTransform="translate(59.4993 25.8471) rotate(90) scale(0.818231 7.01558)">
<stop stop-color="white"/>
<stop offset="0.07" stop-color="white" stop-opacity="0.93"/>
<stop offset="1" stop-color="white" stop-opacity="0"/>
</radialGradient>
</defs>
</svg>
