<svg width="79" height="80" viewBox="0 0 79 80" fill="none" xmlns="http://www.w3.org/2000/svg">
<path d="M12.2582 5.5677H45.0218C46.0967 5.58255 47.1313 5.97936 47.9404 6.68715C48.8134 7.79514 49.5798 8.98317 50.2292 10.2354L50.759 11.2349L51.0188 11.7046C51.3287 12.2544 51.6385 12.7941 51.9584 13.3338C52.578 14.3666 53.1877 15.4061 53.7874 16.4523L54.0573 16.912L54.8169 18.2514L55.0768 18.7011C55.5787 19.5335 55.8125 20.5 55.7465 21.4698V21.8696C55.7594 22.9331 55.5449 23.9871 55.1174 24.961C54.6899 25.935 54.0593 26.8063 53.2677 27.5167C53.2677 27.9065 53.2677 28.2963 53.2677 28.6961C53.2677 28.936 53.2677 29.1759 53.2677 29.4258C53.2677 29.6757 53.2677 30.1954 53.2677 30.5752C53.2677 30.955 53.2677 31.3148 53.2677 31.6846V32.0345C53.292 32.5032 53.1698 32.9678 52.9179 33.3638C52.7455 33.5285 52.5384 33.6526 52.3119 33.727C52.0853 33.8013 51.845 33.8241 51.6085 33.7936C51.4257 33.7371 51.2562 33.6442 51.1102 33.5206C50.9642 33.3969 50.8447 33.245 50.759 33.074C50.759 32.7441 50.759 32.4143 50.759 32.0745V30.1254C50.759 29.6057 50.759 29.1259 50.759 28.5662L50.4191 28.6362C49.5127 28.7871 48.5853 28.758 47.6901 28.5505C46.7949 28.343 45.9494 27.9611 45.2017 27.4268C44.8519 27.1569 44.5321 26.8771 44.2022 26.5772C43.7903 26.7691 43.4096 27.0218 43.0728 27.3268C41.642 28.404 39.8568 28.9002 38.0753 28.7161C36.4558 28.4838 34.955 27.7334 33.7974 26.5772C33.3855 26.7691 33.0048 27.0218 32.668 27.3268C31.2372 28.404 29.452 28.9002 27.6705 28.7161C26.051 28.4838 24.5502 27.7334 23.3926 26.5772C22.9821 26.7715 22.6017 27.024 22.2632 27.3268C20.8324 28.404 19.0472 28.9002 17.2657 28.7161C15.6468 28.4817 14.1467 27.7316 12.9878 26.5772C12.5773 26.7715 12.1969 27.024 11.8584 27.3268C10.6558 28.2656 9.16575 28.7599 7.64051 28.7261H7.2507C6.87997 28.7079 6.51182 28.6544 6.15125 28.5662V28.976V32.8241C6.15125 33.4837 6.15125 34.1434 6.15125 34.8231C6.15125 35.5027 6.15125 36.0924 6.15125 36.7321C6.15125 36.972 6.15125 37.2119 6.15125 37.4518V38.7811C6.16636 38.9991 6.13694 39.2178 6.06476 39.424C5.99259 39.6302 5.87919 39.8195 5.73146 39.9805C5.51216 40.1948 5.22685 40.3286 4.92187 40.3603C4.47846 40.2754 4.07686 40.0429 3.78244 39.7006C3.61747 39.2573 3.56594 38.7797 3.63251 38.3113V32.6142C3.63251 31.9479 3.63251 31.2582 3.63251 30.5452C3.63251 30.2853 3.63251 30.0155 3.63251 29.7556C3.7645 28.8265 3.62569 27.8791 3.23271 27.027C2.95458 26.7591 2.65728 26.5119 2.34316 26.2873C2.13061 25.9694 1.94345 25.6352 1.78344 25.2878L1.54356 24.7781C0.876439 22.9107 0.827383 20.8784 1.40363 18.981C1.8111 18.137 2.29275 17.3309 2.84291 16.5722C3.29268 15.8925 3.68249 15.1929 4.09228 14.4832L4.59203 13.6337L5.95135 11.2848L7.01082 9.43577C7.21072 9.10594 7.40063 8.7761 7.58054 8.43627C8.69998 6.51723 9.97934 5.51773 12.2582 5.5677ZM10.3991 8.65616C10.125 9.04577 9.87146 9.44946 9.63951 9.86556L9.35965 10.3553L9.21972 10.6052L8.40013 11.9545L8.24021 12.2344L6.72097 14.8531C6.15125 15.8526 5.58154 16.8521 5.02182 17.8016L4.8619 18.0914C4.67641 18.3196 4.55253 18.5914 4.50208 18.881H11.9184C12.9179 16.2324 12.9179 16.2324 13.9174 13.5837L14.0773 13.1139C14.1972 12.8041 14.3072 12.4942 14.4171 12.1744L14.9469 10.7351L15.2767 9.81558L15.4366 9.3758L15.5765 8.976L15.7065 8.63617C15.8055 8.40654 15.8367 8.15335 15.7964 7.90654H13.9474H13.3976C12.8732 7.81432 12.3353 7.8334 11.8187 7.96255C11.3021 8.09169 10.8185 8.32801 10.3991 8.65616ZM18.5351 7.90654C18.0453 9.05596 17.5955 10.2054 17.1757 11.3748L16.9958 11.8646L16.636 12.8641C16.4561 13.3838 16.2762 13.8636 16.0863 14.4033C15.9663 14.7331 15.8464 15.073 15.7365 15.4028L15.5665 15.8526L15.3966 16.3123L15.2567 16.6921C15.0068 17.4118 14.7669 18.1514 14.5171 18.881H22.2132L22.673 15.2129C22.7629 14.4633 22.8529 13.7136 22.9529 12.964C23.0528 12.2144 23.1028 11.7546 23.1727 11.1549L23.2627 10.4653L23.3926 9.51573L23.4626 8.95601C23.4971 8.62374 23.4971 8.28878 23.4626 7.95651L18.5351 7.90654ZM25.9414 7.90654L25.3916 11.4048C25.3017 12.1144 25.2117 12.8341 25.1118 13.5437C25.0118 14.2534 24.9618 14.6931 24.8919 15.2729L24.8019 15.9325L24.682 16.8521L24.612 17.3818C24.612 17.8815 24.612 18.3813 24.612 18.881H32.1583C32.0683 17.4518 31.9683 16.0625 31.7884 14.6532L31.7285 14.1334C31.6785 13.7736 31.6385 13.4138 31.5885 13.054L31.3886 11.4048C31.3886 11.055 31.2987 10.7051 31.2587 10.3553L31.1987 9.85556L31.1388 9.39579L31.0888 8.986C31.0288 8.62618 30.9589 8.26636 30.8889 7.90654H25.9414ZM33.3477 7.90654C33.5975 10.2454 33.8774 12.5842 34.1672 14.903C34.1672 15.2229 34.2472 15.5327 34.2772 15.8426C34.3072 16.1524 34.3971 16.7421 34.4471 17.1819L34.4971 17.5917V17.9715V18.3013C34.5101 18.5014 34.5756 18.6944 34.687 18.8611H42.2832C41.9434 17.7216 41.9434 17.7216 41.5636 16.6122L41.3836 16.1924L41.2137 15.7326L41.0338 15.2429C40.8539 14.7331 40.674 14.2434 40.4841 13.7136C40.3642 13.3738 40.2442 13.034 40.1143 12.7141C39.8944 12.0844 39.6645 11.4448 39.4346 10.8151L38.4351 7.92653L33.3477 7.90654ZM41.0438 7.90654C41.3437 9.05596 41.7135 10.1654 42.1233 11.2848L42.3032 11.7946L42.7929 13.1239C42.9529 13.5737 43.1228 14.0135 43.2827 14.4633L44.1523 16.8321C44.4021 17.5117 44.652 18.2014 44.8919 18.8311H52.3082C52.1054 18.3758 51.8717 17.935 51.6085 17.5117L51.3786 17.1119L51.1388 16.6921L50.8889 16.2624C50.2192 15.073 49.5296 13.8935 48.8899 12.7141C48.4901 12.0345 48.1003 11.3548 47.7105 10.7151L47.5006 10.3353L47.1108 9.63567C46.7681 8.89079 46.1474 8.30961 45.3816 8.01648C44.5378 7.86358 43.6779 7.81991 42.8229 7.88655H42.2732L41.0438 7.90654ZM3.56255 21.2998C3.45547 22.4409 3.70704 23.5869 4.28219 24.5782L4.53206 24.958C5.34404 25.7946 6.44573 26.2882 7.61052 26.3373C8.34666 26.2816 9.06354 26.0754 9.71682 25.7316C10.3701 25.3878 10.9459 24.9136 11.4086 24.3383C11.8684 23.5087 11.8684 23.5087 11.6885 21.3398L3.56255 21.2998ZM14.1073 21.2998C13.8674 23.7986 13.8674 23.7986 14.667 24.8481C15.6488 25.8087 16.9716 26.3407 18.3452 26.3273C19.0126 26.2345 19.6549 26.0099 20.2349 25.6668C20.8148 25.3236 21.3208 24.8687 21.7235 24.3283C22.4731 23.3288 22.0933 23.2089 22.0933 21.3298L14.1073 21.2998ZM24.5121 21.2998C24.2622 23.7986 24.2622 23.7986 25.0718 24.8481C26.0561 25.805 27.3772 26.3363 28.75 26.3273C30.0518 26.1707 31.2435 25.5194 32.0783 24.5082C32.628 23.5087 32.628 23.5087 32.4481 21.3398L24.5121 21.2998ZM34.9169 21.2998C34.667 23.7986 34.667 23.7986 35.4666 24.8481C35.931 25.3543 36.5029 25.75 37.1402 26.0061C37.7776 26.2623 38.4643 26.3723 39.1498 26.3282C39.8353 26.2841 40.5023 26.087 41.1016 25.7513C41.7009 25.4156 42.2174 24.9498 42.613 24.3883C43.0628 23.4688 43.0628 23.4688 42.9029 21.2998H34.9169ZM45.3217 21.2998C45.0718 23.7986 45.0718 23.7986 45.8714 24.8481C46.7778 25.7091 47.9532 26.2315 49.1997 26.3273C50.3647 26.2928 51.4741 25.8219 52.3082 25.008C53.1082 23.9476 53.4664 22.6186 53.3077 21.2998H45.3217Z" fill="url(#paint0_linear_896_12971)"/>
<path d="M51.9382 34.6631H68.8298C69.4679 34.6087 70.1105 34.6843 70.7187 34.8853C71.3268 35.0863 71.8879 35.4085 72.368 35.8325C72.747 36.2992 73.0303 36.836 73.2018 37.4123C73.3733 37.9885 73.4296 38.5928 73.3675 39.1908V41.1898C73.3675 41.5497 73.3675 41.9195 73.3675 42.2793V47.0969C73.3675 48.806 73.3675 50.5252 73.3675 52.2343V53.9035C73.3675 55.6926 73.3675 57.4817 73.3675 59.2708C73.3675 61.0599 73.3675 62.939 73.3675 64.778V67.8765C73.3675 68.876 73.3675 69.8155 73.3675 70.785V73.7835C73.4084 74.8226 73.0509 75.838 72.368 76.6221C71.8672 77.0799 71.2718 77.422 70.6241 77.624C69.9764 77.8261 69.2921 77.8833 68.6199 77.7915H62.0931C61.0936 77.7915 59.9942 77.7915 58.9347 77.7915H52.2481C51.6772 77.8286 51.1046 77.7514 50.564 77.5643C50.0233 77.3772 49.5255 77.0841 49.0996 76.7021C47.9402 75.4827 47.8203 74.1634 47.8203 72.5442V69.6356C47.8203 68.786 47.8203 67.9365 47.8203 67.0869V53.3538C47.8203 51.5946 47.8203 49.8355 47.8203 48.0764V39.5007C47.7205 38.171 48.1437 36.8549 48.9997 35.8325C49.8003 35.0918 50.8476 34.675 51.9382 34.6631ZM50.5789 37.8215C50.3226 38.2705 50.2044 38.785 50.2391 39.3008V42.9989C50.2391 43.9385 50.2391 44.878 50.2391 45.8175V54.0334C50.2391 55.7326 50.2391 57.4217 50.2391 59.1209V64.3483C50.2391 65.3478 50.2391 66.3473 50.2391 67.2768V72.844C50.2122 73.5418 50.3782 74.2335 50.7188 74.843C51.2899 75.2789 52.0016 75.4889 52.7178 75.4327H68.1401C68.9056 75.5036 69.6759 75.3654 70.369 75.0329C70.6252 74.7913 70.8238 74.4952 70.9501 74.1665C71.0764 73.8378 71.1271 73.4849 71.0986 73.1339V58.4912C71.0986 56.812 71.0986 55.1329 71.0986 53.4937V41.6396C71.0986 41.1898 71.0986 40.7301 71.0986 40.2703V39.8705C71.1097 39.1898 70.9979 38.5126 70.7688 37.8715C70.4945 37.5835 70.1617 37.3577 69.7927 37.2094C69.4237 37.0611 69.0271 36.9938 68.6299 37.0119C67.8403 37.2818 67.5704 38.0614 67.2206 38.771C66.8903 39.4161 66.325 39.9099 65.6413 40.1504C65.3086 40.1736 64.9746 40.1736 64.6418 40.1504H56.1561C55.7893 40.1183 55.4335 40.0081 55.1129 39.827C54.7922 39.646 54.514 39.3984 54.297 39.1009C54.1398 38.8716 54.0059 38.6272 53.8972 38.3712C53.6905 37.9155 53.4251 37.4888 53.1076 37.1019C52.6633 36.9474 52.1821 36.9336 51.7296 37.0624C51.2771 37.1912 50.8753 37.4562 50.5789 37.8215ZM55.9562 37.1219L56.2461 37.8315H65.0816L65.3615 37.1219H55.9562Z" fill="url(#paint1_linear_896_12971)"/>
<path d="M51.9284 34.6633H68.8299C69.4681 34.6095 70.1105 34.6853 70.7186 34.8863C71.3266 35.0873 71.8878 35.4092 72.3682 35.8327C73.1286 36.7778 73.4876 37.9838 73.3677 39.191V42.2695C73.3677 43.269 73.3677 44.2685 73.3677 45.268V47.097C73.3677 48.8062 73.3677 50.5253 73.3677 52.2345V53.9036C73.3677 55.6928 73.3677 57.4819 73.3677 59.271C73.3677 61.0601 73.3677 62.9391 73.3677 64.7782V70.7752C73.3677 71.125 73.3677 71.4849 73.3677 71.8347C73.3677 72.1845 73.3677 72.8342 73.3677 73.2939V73.7237C73.4242 74.7831 73.0657 75.8229 72.3682 76.6223C71.867 77.0795 71.2716 77.4212 70.624 77.6232C69.9763 77.8253 69.2923 77.8828 68.62 77.7917H62.0933C61.0938 77.7917 59.9844 77.7917 58.9349 77.7917H52.2382C51.6689 77.8286 51.0979 77.7512 50.5589 77.5641C50.02 77.377 49.5238 77.0839 49.0998 76.7022C48.6065 76.1379 48.2377 75.4759 48.0173 74.7595C47.7968 74.0432 47.7298 73.2884 47.8204 72.5443V58.4914C47.8204 56.7822 47.8204 55.0631 47.8204 53.3539V39.5008C47.7168 38.1724 48.1365 36.856 48.9899 35.8327C49.7915 35.0936 50.8381 34.6771 51.9284 34.6633ZM50.5791 37.8217C50.3228 38.2706 50.2046 38.7852 50.2392 39.3009V41.9696C50.2392 42.3094 50.2392 42.6593 50.2392 42.9691V47.5468C50.2392 49.176 50.2392 50.7952 50.2392 52.4244V59.091C50.2392 60.8302 50.2392 62.5793 50.2392 64.3184V71.0251C50.2392 71.4849 50.2392 71.9446 50.2392 72.4044V72.8142C50.2159 73.5128 50.3853 74.2044 50.729 74.8132C51.3 75.2491 52.0118 75.4591 52.728 75.4029H68.1303C68.8963 75.4849 69.6702 75.3571 70.3692 75.0331C70.6254 74.7915 70.824 74.4954 70.9502 74.1666C71.0765 73.8379 71.1273 73.485 71.0988 73.134V58.4914C71.0988 56.8122 71.0988 55.133 71.0988 53.4938V39.8707C71.118 39.1902 71.0095 38.5122 70.779 37.8717C70.5047 37.5837 70.1718 37.3579 69.8028 37.2096C69.4338 37.0613 69.0373 36.994 68.64 37.0121C67.8504 37.282 67.5806 38.0616 67.2307 38.7712C66.8957 39.4125 66.3321 39.9048 65.6515 40.1505C65.3188 40.1738 64.9848 40.1738 64.652 40.1505H56.1463C55.7808 40.1184 55.4266 40.008 55.1076 39.8269C54.7885 39.6459 54.5122 39.3983 54.2972 39.101C54.14 38.8717 54.0061 38.6273 53.8974 38.3714C53.6869 37.9177 53.4217 37.4914 53.1078 37.102C52.6634 36.9476 52.1823 36.9338 51.7298 37.0626C51.2773 37.1913 50.8755 37.4564 50.5791 37.8217ZM55.9564 37.122L56.2462 37.8317H65.0818L65.3617 37.122H55.9564Z" stroke="url(#paint2_linear_896_12971)" stroke-width="0.13" stroke-miterlimit="10"/>
<path d="M16.6462 30.825H39.035C41.3238 30.825 41.3238 30.825 42.2833 31.4647C42.4722 31.6348 42.6369 31.8298 42.7731 32.0444L42.973 32.3343C43.2315 32.8 43.343 33.3332 43.2928 33.8635V38.901C43.2928 39.9804 43.2928 41.0699 43.2928 42.1594V45.8675C43.2928 48.4129 43.2928 50.9616 43.2928 53.5137H43.5627C43.9525 53.5137 44.3523 53.5137 44.7521 53.5137H45.1619C45.7044 53.4528 46.2525 53.561 46.7311 53.8235C46.8862 54.0016 47.0026 54.2099 47.0732 54.4353C47.1437 54.6606 47.1668 54.8982 47.1409 55.1329C46.991 55.6226 46.871 55.7026 46.4313 55.9924C46.2019 56.0138 45.971 56.0138 45.7416 55.9924H40.3843C39.3348 55.9924 39.3348 55.9924 38.865 55.6526C38.7379 55.4379 38.6556 55.1997 38.6229 54.9524C38.5903 54.705 38.6081 54.4536 38.6751 54.2133C38.7439 54.0303 38.8595 53.8684 39.0103 53.7439C39.1611 53.6194 39.3419 53.5366 39.5347 53.5037C39.7546 53.5037 39.9745 53.5037 40.2044 53.5037H40.8141C40.8141 50.8917 40.8141 48.2896 40.8141 45.6976C40.8141 44.4982 40.8141 43.2888 40.8141 42.0794C40.8141 41.0299 40.8141 39.9804 40.8141 38.931C40.8141 38.3713 40.8141 37.8115 40.8141 37.2618C40.8141 36.7121 40.8141 36.2123 40.8141 35.6826C40.8141 35.4027 40.8141 35.1129 40.8141 34.833V33.8335C40.8141 33.5137 40.8141 33.5137 40.6541 33.3638H39.7046H16.7161C16.3363 33.3638 16.3363 33.3638 16.1764 33.5237C16.1764 33.9335 16.1764 34.3333 16.1764 34.7331C16.1764 35.1329 16.1764 35.2328 16.1764 35.4827C16.1764 35.7326 16.1764 36.2723 16.1764 36.6621C16.1764 37.0519 16.1764 37.4217 16.1764 37.8015V38.1614C16.1591 38.6554 15.972 39.1285 15.6467 39.5007C15.5227 39.6459 15.3698 39.7636 15.1976 39.8462C15.0255 39.9289 14.838 39.9746 14.6472 39.9804C14.3397 39.9851 14.0423 39.8705 13.8176 39.6606C13.4557 39.1353 13.3058 38.4927 13.3978 37.8615V36.6021C13.3978 36.1723 13.3978 35.7426 13.3978 35.3028C13.3978 32.5741 13.3978 32.5742 14.3973 31.5647C14.7048 31.2991 15.0618 31.097 15.4478 30.97C15.8337 30.8431 16.241 30.7938 16.6462 30.825Z" fill="url(#paint3_linear_896_12971)"/>
<path d="M12.2482 5.57771H39.4646C40.3841 5.57771 41.3036 5.57771 42.2232 5.57771H45.0218C46.0941 5.59055 47.1261 5.98777 47.9303 6.69716C48.81 7.80247 49.5799 8.99082 50.2292 10.2454C50.4091 10.5552 50.589 10.8751 50.7589 11.1949L51.0188 11.6647C51.3286 12.2044 51.6385 12.7441 51.9583 13.2839C52.578 14.2834 53.1777 15.3628 53.7874 16.4023L54.0573 16.8721C54.3171 17.3118 54.567 17.7616 54.8169 18.2114L55.0768 18.6512C55.5742 19.489 55.8075 20.4573 55.7464 21.4298V21.8196C55.7589 22.8855 55.5432 23.9417 55.114 24.9174C54.6847 25.8931 54.0518 26.7657 53.2577 27.4768C53.2577 27.8666 53.2577 28.2564 53.2577 28.6462C53.2577 29.036 53.2577 29.1359 53.2577 29.3758C53.2577 29.7656 53.2577 30.1454 53.2577 30.5352C53.2577 30.925 53.2577 31.2749 53.2577 31.6447V31.9945C53.292 32.4596 53.1726 32.9232 52.9178 33.3138C52.7471 33.481 52.5403 33.6067 52.3132 33.6812C52.0862 33.7558 51.8451 33.7771 51.6085 33.7436C51.4253 33.691 51.2551 33.6007 51.1088 33.4785C50.9625 33.3563 50.8433 33.2049 50.7589 33.034C50.7589 32.7042 50.7589 32.3743 50.7589 32.0345V31.7346C50.7589 31.4248 50.7589 31.1149 50.7589 30.7951V30.1654C50.7589 29.6457 50.7589 29.1659 50.7589 28.6062L50.4191 28.6762C49.5126 28.8271 48.5853 28.798 47.6901 28.5905C46.7949 28.3829 45.9493 28.0011 45.2017 27.4668C44.8505 27.2019 44.5166 26.9148 44.2022 26.6072C43.7899 26.8026 43.4092 27.0586 43.0728 27.3668C41.645 28.4496 39.8563 28.9433 38.0753 28.7461C36.4558 28.5138 34.955 27.7634 33.7974 26.6072C33.3851 26.8026 33.0044 27.0586 32.668 27.3668C31.2402 28.4496 29.4515 28.9433 27.6705 28.7461C26.051 28.5138 24.5502 27.7634 23.3926 26.6072C22.9817 26.8051 22.6014 27.0609 22.2632 27.3668C20.8354 28.4496 19.0467 28.9433 17.2657 28.7461C15.6462 28.5138 14.1454 27.7634 12.9878 26.6072C12.5769 26.8051 12.1966 27.0609 11.8584 27.3668C10.6558 28.3056 9.16572 28.7999 7.64048 28.7661H7.25067C6.88043 28.743 6.51271 28.6895 6.15122 28.6062V29.016C6.15122 30.2954 6.15122 31.5847 6.15122 32.8641C6.15122 33.5237 6.15122 34.1834 6.15122 34.8631C6.15122 35.5427 6.15122 36.1324 6.15122 36.7621V37.4918C6.15122 37.8316 6.15122 38.1714 6.15122 38.4913V38.7911C6.16761 39.0115 6.13785 39.2329 6.06385 39.4411C5.98985 39.6494 5.87323 39.8399 5.72144 40.0005C5.50919 40.2175 5.22467 40.3491 4.92184 40.3703C4.47662 40.2968 4.07243 40.0663 3.78241 39.7206C3.61876 39.2735 3.56394 38.7939 3.62249 38.3213V32.6242C3.62249 31.9579 3.62249 31.2682 3.62249 30.5552C3.62249 30.2954 3.62249 30.0255 3.62249 29.7656C3.75563 28.8366 3.61676 27.8888 3.22269 27.037C2.94456 26.7691 2.64725 26.5219 2.33313 26.2974C2.12058 25.9794 1.93343 25.6452 1.77341 25.2979L1.53353 24.7881C0.869684 22.9197 0.824132 20.8873 1.4036 18.991C1.81325 18.145 2.29478 17.3358 2.84288 16.5722C3.29265 15.9026 3.68246 15.2029 4.09225 14.4933L4.58201 13.6437C5.04178 12.8641 5.49155 12.0745 5.94133 11.2949L7.01079 9.44578C7.21069 9.11595 7.3906 8.77612 7.58051 8.44628C8.69995 6.51725 9.97931 5.56772 12.2482 5.57771ZM10.3991 8.66617C10.125 9.05578 9.87143 9.45947 9.63948 9.87557L9.35962 10.3653L9.21969 10.6152L8.4001 11.9645L8.24018 12.2344C7.74043 13.1139 7.24068 13.9935 6.72094 14.8631C6.2012 15.7326 5.58151 16.8621 5.02179 17.8116L4.86187 18.0915C4.67817 18.3245 4.5546 18.5991 4.50205 18.8911H11.9183C12.9178 16.2424 12.9178 16.2424 13.9173 13.5837L14.0773 13.1239C14.1972 12.8141 14.3071 12.5043 14.4171 12.1844L14.9468 10.7451L15.2767 9.82559L15.4366 9.38581L15.5765 8.98601L15.7064 8.63619C15.8063 8.41032 15.8376 8.16006 15.7964 7.91655H13.9473H13.3976C12.8733 7.81981 12.3343 7.83667 11.817 7.96599C11.2997 8.0953 10.8162 8.33407 10.3991 8.66617ZM18.525 7.91655C18.0453 9.06597 17.5955 10.2054 17.1757 11.3848L16.9958 11.8746L16.636 12.8741L16.0863 14.4133C15.9663 14.7431 15.8464 15.073 15.7364 15.4128L15.5665 15.8726L15.3966 16.3123L15.2667 16.6922C15.0168 17.4218 14.7769 18.1514 14.527 18.8911H22.2232L22.683 15.2129C22.7729 14.4633 22.8629 13.7236 22.9628 12.974C23.0628 12.2244 23.1127 11.7646 23.1827 11.1649L23.2727 10.4653L23.3926 9.51575L23.4626 8.95603C23.4921 8.62351 23.4921 8.28904 23.4626 7.95653L18.525 7.91655ZM25.9413 7.91655L25.3916 11.4148C25.3016 12.1244 25.2117 12.8341 25.1117 13.5537C25.0118 14.2734 24.9618 14.7032 24.8919 15.2829L24.8019 15.9325L24.682 16.8621L24.612 17.3918C24.612 17.8916 24.612 18.3913 24.612 18.8911H32.1582C32.0683 17.4618 31.9683 16.0725 31.7884 14.6632L31.7284 14.1434C31.6785 13.7836 31.6385 13.4238 31.5885 13.064L31.3886 11.4148C31.3886 11.065 31.2986 10.7151 31.2587 10.4153L31.1987 9.91555L31.1387 9.45578L31.0888 9.04598C31.0288 8.68616 30.9588 8.32634 30.8889 7.96652L25.9413 7.91655ZM33.3476 7.91655C33.5975 10.2554 33.8774 12.5942 34.1672 14.913C34.1672 15.2229 34.2472 15.5427 34.2772 15.8526C34.3071 16.1624 34.3871 16.7421 34.4471 17.1919L34.4971 17.6017V17.9815V18.3113C34.5025 18.5128 34.5687 18.7079 34.687 18.8711H42.2832C41.9433 17.7316 41.9433 17.7316 41.5635 16.6222L41.3836 16.2024L41.2237 15.7426L41.0438 15.2529C40.8639 14.7431 40.684 14.2534 40.4941 13.7236C40.3741 13.3838 40.2542 13.044 40.1242 12.7241C39.9043 12.0945 39.6745 11.4648 39.4446 10.8351C39.0948 9.83559 38.7549 8.90605 38.4451 7.94653L33.3476 7.91655ZM41.0438 7.91655C41.3446 9.06067 41.7049 10.1883 42.1232 11.2949L42.3031 11.8046C42.4631 12.2444 42.633 12.6842 42.7929 13.1339C42.9528 13.5837 43.1227 14.0235 43.2827 14.4733L44.1522 16.8421C44.4021 17.5217 44.642 18.2014 44.8919 18.8911H52.3081C52.1079 18.4153 51.8741 17.9543 51.6085 17.5117L51.3786 17.1219L51.1387 16.7022L50.8889 16.2724C50.2192 15.083 49.5295 13.9036 48.8899 12.7241C48.4901 12.0445 48.1003 11.3648 47.7104 10.6752L47.5006 10.3054L47.1107 9.6057C46.7601 8.8734 46.1408 8.30428 45.3816 8.0165C44.5335 7.87127 43.6708 7.83098 42.8129 7.89656H42.2732L41.0438 7.91655ZM3.51254 21.3098C3.40546 22.4509 3.65703 23.5969 4.23218 24.5882L4.48206 24.968C5.29264 25.8052 6.39595 26.296 7.56052 26.3373C8.29762 26.2858 9.01592 26.0814 9.66979 25.7373C10.3237 25.3931 10.8988 24.9167 11.3586 24.3383C11.8184 23.5187 11.8184 23.5187 11.6385 21.3398L3.51254 21.3098ZM14.0573 21.3098C13.8174 23.8086 13.8174 23.8086 14.617 24.8581C15.6 25.8168 16.922 26.3485 18.2952 26.3373C18.9626 26.2445 19.6049 26.02 20.1849 25.6768C20.7648 25.3336 21.2708 24.8787 21.6735 24.3383C22.4231 23.3388 22.0433 23.2189 22.0433 21.3398L14.0573 21.3098ZM24.4621 21.3098C24.2122 23.8086 24.2122 23.8086 25.0218 24.8581C26.0084 25.8113 27.328 26.3421 28.7 26.3373C30.0212 26.1905 31.2331 25.5344 32.0783 24.5083C32.618 23.5088 32.618 23.5088 32.4481 21.3398L24.4621 21.3098ZM34.8669 21.3098C34.617 23.8086 34.617 23.8086 35.4166 24.8581C36.4075 25.8111 37.73 26.3415 39.1047 26.3373C40.4677 26.1712 41.7103 25.4745 42.563 24.3983C43.0028 23.4788 43.0028 23.4788 42.8529 21.3098H34.8669ZM45.2717 21.3098C45.0218 23.8086 45.0218 23.8086 45.8214 24.8581C46.7305 25.7151 47.9044 26.2368 49.1497 26.3373C50.3146 26.3028 51.4241 25.8319 52.2582 25.018C53.0591 23.9581 53.4175 22.6287 53.2577 21.3098H45.2717Z" stroke="url(#paint4_linear_896_12971)" stroke-width="0.09" stroke-miterlimit="10"/>
<path d="M16.646 30.8351H39.0348C41.3237 30.8351 41.3237 30.8351 42.2832 31.4748C42.472 31.6449 42.6368 31.8399 42.773 32.0545L42.9729 32.3443C43.2326 32.8097 43.3442 33.3432 43.2927 33.8736V38.9011C43.2927 39.9905 43.2927 41.08 43.2927 42.1694V45.8776C43.2927 48.4296 43.2927 50.975 43.2927 53.5138H43.5626H44.752H45.1618C45.7045 53.4481 46.254 53.5566 46.731 53.8236C46.886 54.0017 47.0025 54.21 47.073 54.4354C47.1436 54.6607 47.1666 54.8982 47.1408 55.133C46.9909 55.6227 46.8709 55.6927 46.4311 55.9925C46.1113 55.9925 46.1113 55.9925 45.7415 55.9925H40.3842C39.3347 55.9925 39.3347 55.9925 38.8649 55.6527C38.7383 55.4378 38.6563 55.1996 38.6237 54.9524C38.5911 54.7051 38.6085 54.4538 38.675 54.2134C38.7433 54.029 38.8585 53.8656 39.0092 53.7394C39.16 53.6132 39.3411 53.5285 39.5346 53.4938H40.814C40.814 50.8951 40.814 48.2964 40.814 45.6977C40.814 44.4983 40.814 43.2889 40.814 42.0795C40.814 41.03 40.814 39.9805 40.814 38.9311C40.814 38.3713 40.814 37.8116 40.814 37.2519C40.814 36.6922 40.814 36.2524 40.814 35.6827C40.814 35.4028 40.814 35.113 40.814 34.8331V33.8336C40.814 33.5138 40.814 33.5138 40.644 33.3638C40.4741 33.2139 40.0243 33.3638 39.7045 33.3638H16.716C16.3362 33.3638 16.3362 33.3638 16.1763 33.5238C16.1763 33.9236 16.1763 34.3234 16.1763 34.7332C16.1763 34.983 16.1763 35.2329 16.1763 35.4828C16.1763 35.7327 16.1763 36.2724 16.1763 36.6622C16.1763 37.052 16.1763 37.4218 16.1763 37.8016V38.1614C16.2128 38.6376 16.0897 39.1124 15.8264 39.5108C15.7025 39.656 15.5495 39.7737 15.3774 39.8563C15.2053 39.9389 15.0178 39.9847 14.8269 39.9905C14.6737 39.9937 14.5213 39.9661 14.3788 39.9094C14.2363 39.8528 14.1066 39.7682 13.9974 39.6607C13.5713 39.1656 13.356 38.5234 13.3977 37.8716V36.6122C13.3977 36.1824 13.3977 35.7427 13.3977 35.3129C13.3977 32.5842 13.3977 32.5842 14.3972 31.5747C14.7022 31.3053 15.0589 31.1007 15.4455 30.9736C15.8321 30.8464 16.2406 30.7993 16.646 30.8351Z" stroke="url(#paint5_linear_896_12971)" stroke-width="0.09" stroke-miterlimit="10"/>
<path d="M67.9304 58.0713C68.2368 58.288 68.4814 58.5808 68.6401 58.9209C68.6401 59.5506 68.6401 60.1703 68.6401 60.79C68.6401 61.0998 68.6401 61.4097 68.6401 61.7195C68.6401 62.0293 68.6401 62.1193 68.6401 62.3192V62.8589C68.6178 63.0911 68.5498 63.3167 68.44 63.5225C68.3302 63.7284 68.1808 63.9105 68.0004 64.0583C67.2859 64.2776 66.5329 64.3424 65.7915 64.2482H63.7225C63.4769 64.2204 63.2407 64.1376 63.0313 64.0061C62.822 63.8746 62.6449 63.6978 62.5131 63.4886C62.4081 63.1161 62.4081 62.7217 62.5131 62.3492C62.6331 62.1742 62.7903 62.0279 62.9735 61.9207C63.1566 61.8136 63.3612 61.7483 63.5726 61.7295C63.9724 61.7295 64.3722 61.7295 64.772 61.7295H65.1918H66.1913V61.4896C66.1913 61.0998 66.1913 60.7 66.1913 60.3002V59.8904C66.1913 58.8909 66.1913 58.8909 66.5811 58.3112C66.7722 58.1697 66.9935 58.0744 67.2276 58.0328C67.4617 57.9912 67.7023 58.0044 67.9304 58.0713Z" fill="url(#paint6_linear_896_12971)"/>
<path d="M54.3771 58.0715C54.6702 58.2439 54.9144 58.4881 55.0868 58.7812C55.1467 59.2925 55.1467 59.8091 55.0868 60.3204V60.7502C55.0868 61.09 55.0868 61.4298 55.0868 61.7497H55.3766H56.566H56.9858C57.9853 61.7497 57.9853 61.7497 58.555 62.1395C58.6999 62.3289 58.7988 62.5494 58.8439 62.7835C58.889 63.0177 58.8791 63.2591 58.8149 63.4888C58.6864 63.7045 58.511 63.8883 58.3016 64.0268C58.0922 64.1652 57.8543 64.2546 57.6055 64.2884H54.0273C53.7951 64.2661 53.5696 64.1981 53.3637 64.0884C53.1579 63.9786 52.9758 63.8292 52.8279 63.6487C52.6108 62.9509 52.5494 62.2139 52.648 61.4898C52.648 61.18 52.648 60.8701 52.648 60.5603V59.4108C52.617 59.191 52.6447 58.9668 52.7282 58.761C52.8118 58.5553 52.9483 58.3753 53.1238 58.2393C53.2994 58.1033 53.5078 58.0162 53.7279 57.9867C53.948 57.9573 54.172 57.9865 54.3771 58.0715Z" fill="url(#paint7_linear_896_12971)"/>
<path d="M55.7364 48.2065H57.2456C57.7457 48.2501 58.2268 48.4185 58.6449 48.6963C58.8253 49.0371 58.9083 49.4209 58.8848 49.8057C58.8552 49.9899 58.7816 50.1642 58.6702 50.3139C58.5589 50.4635 58.413 50.5841 58.2451 50.6653C57.7097 50.7102 57.1714 50.7102 56.6359 50.6653H56.1962C55.8263 50.6653 55.4665 50.6653 55.1067 50.6653V50.9452C55.1067 51.365 55.1067 51.7848 55.1067 52.2045V52.6443C55.1067 53.7038 55.1067 53.7038 54.8069 54.1836C54.5126 54.38 54.1594 54.4683 53.8074 54.4334H53.4775C53.3266 54.4128 53.1824 54.3579 53.056 54.273C52.9295 54.1882 52.8242 54.0755 52.7479 53.9437C52.5642 53.1887 52.5001 52.4096 52.558 51.6348C52.558 51.4349 52.558 51.225 52.558 51.0151C52.558 50.8052 52.558 50.4254 52.558 50.1256V49.5759C52.5771 49.3443 52.6437 49.1191 52.7538 48.9145C52.8638 48.7098 53.015 48.53 53.1977 48.3865C54.0244 48.1635 54.8865 48.1024 55.7364 48.2065Z" fill="url(#paint8_linear_896_12971)"/>
<path d="M65.5615 48.1964H67.0607C67.5274 48.2441 67.9744 48.4091 68.3601 48.6762C68.7212 49.4207 68.8367 50.2606 68.6899 51.075C68.6899 51.3748 68.6899 51.6647 68.6899 51.9645V53.054C68.6541 53.4869 68.4866 53.8984 68.2102 54.2334C67.7628 54.4387 67.2595 54.488 66.7809 54.3733C66.5314 54.2541 66.3304 54.053 66.2112 53.8036C66.1712 53.2713 66.1712 52.7367 66.2112 52.2044V51.7546V50.6652H65.9313H64.6819H64.2421C63.1727 50.6652 63.1727 50.6652 62.6929 50.3653C62.5636 50.1478 62.4801 49.9062 62.4474 49.6553C62.4148 49.4044 62.4337 49.1494 62.503 48.9061C63.2227 47.9565 64.472 48.2064 65.5615 48.1964Z" fill="url(#paint9_linear_896_12971)"/>
<path d="M67.9304 58.0713C68.2368 58.288 68.4814 58.5808 68.6401 58.9209C68.6401 59.5506 68.6401 60.1703 68.6401 60.79C68.6401 61.0998 68.6401 61.4097 68.6401 61.7195C68.6401 62.0293 68.6401 62.1193 68.6401 62.3192V62.8589C68.6178 63.0911 68.5498 63.3167 68.44 63.5225C68.3302 63.7284 68.1808 63.9105 68.0004 64.0583C67.2859 64.2776 66.5329 64.3424 65.7915 64.2482H63.7225C63.4769 64.2204 63.2407 64.1376 63.0313 64.0061C62.822 63.8746 62.6449 63.6978 62.5131 63.4886C62.4081 63.1161 62.4081 62.7217 62.5131 62.3492C62.6331 62.1742 62.7903 62.0279 62.9735 61.9207C63.1566 61.8136 63.3612 61.7483 63.5726 61.7295C63.9724 61.7295 64.3722 61.7295 64.772 61.7295H65.1918H66.1913V61.4896C66.1913 61.0998 66.1913 60.7 66.1913 60.3002V59.8904C66.1913 58.8909 66.1913 58.8909 66.5811 58.3112C66.7722 58.1697 66.9935 58.0744 67.2276 58.0328C67.4617 57.9912 67.7023 58.0044 67.9304 58.0713Z" stroke="url(#paint10_linear_896_12971)" stroke-width="0.13" stroke-miterlimit="10"/>
<path d="M54.3771 58.0715C54.6702 58.2439 54.9144 58.4881 55.0868 58.7812C55.1467 59.2925 55.1467 59.8091 55.0868 60.3204V60.7502C55.0868 61.09 55.0868 61.4298 55.0868 61.7497H55.3766H56.566H56.9858C57.9853 61.7497 57.9853 61.7497 58.555 62.1395C58.6999 62.3289 58.7988 62.5494 58.8439 62.7835C58.889 63.0177 58.8791 63.2591 58.8149 63.4888C58.6864 63.7045 58.511 63.8883 58.3016 64.0268C58.0922 64.1652 57.8543 64.2546 57.6055 64.2884H54.0273C53.7951 64.2661 53.5696 64.1981 53.3637 64.0884C53.1579 63.9786 52.9758 63.8292 52.8279 63.6487C52.6108 62.9509 52.5494 62.2139 52.648 61.4898C52.648 61.18 52.648 60.8701 52.648 60.5603V59.4108C52.617 59.191 52.6447 58.9668 52.7282 58.761C52.8118 58.5553 52.9483 58.3753 53.1238 58.2393C53.2994 58.1033 53.5078 58.0162 53.7279 57.9867C53.948 57.9573 54.172 57.9865 54.3771 58.0715Z" stroke="url(#paint11_linear_896_12971)" stroke-width="0.13" stroke-miterlimit="10"/>
<path d="M55.7364 48.2065H57.2456C57.7457 48.2501 58.2268 48.4185 58.6449 48.6963C58.8253 49.0371 58.9083 49.4209 58.8848 49.8057C58.8552 49.9899 58.7816 50.1642 58.6702 50.3139C58.5589 50.4635 58.413 50.5841 58.2451 50.6653C57.7097 50.7102 57.1714 50.7102 56.6359 50.6653H56.1962C55.8263 50.6653 55.4665 50.6653 55.1067 50.6653V50.9452C55.1067 51.365 55.1067 51.7848 55.1067 52.2045V52.6443C55.1067 53.7038 55.1067 53.7038 54.8069 54.1836C54.5126 54.38 54.1594 54.4683 53.8074 54.4334H53.4775C53.3266 54.4128 53.1824 54.3579 53.056 54.273C52.9295 54.1882 52.8242 54.0755 52.7479 53.9437C52.5642 53.1887 52.5001 52.4096 52.558 51.6348C52.558 51.4349 52.558 51.225 52.558 51.0151C52.558 50.8052 52.558 50.4254 52.558 50.1256V49.5759C52.5771 49.3443 52.6437 49.1191 52.7538 48.9145C52.8638 48.7098 53.015 48.53 53.1977 48.3865C54.0244 48.1635 54.8865 48.1024 55.7364 48.2065Z" stroke="url(#paint12_linear_896_12971)" stroke-width="0.13" stroke-miterlimit="10"/>
<path d="M65.5615 48.1964H67.0607C67.5274 48.2441 67.9744 48.4091 68.3601 48.6762C68.7212 49.4207 68.8367 50.2606 68.6899 51.075C68.6899 51.3748 68.6899 51.6647 68.6899 51.9645V53.054C68.6541 53.4869 68.4866 53.8984 68.2102 54.2334C67.7628 54.4387 67.2595 54.488 66.7809 54.3733C66.5314 54.2541 66.3304 54.053 66.2112 53.8036C66.1712 53.2713 66.1712 52.7367 66.2112 52.2044V51.7546V50.6652H65.9313H64.6819H64.2421C63.1727 50.6652 63.1727 50.6652 62.6929 50.3653C62.5636 50.1478 62.4801 49.9062 62.4474 49.6553C62.4148 49.4044 62.4337 49.1494 62.503 48.9061C63.2227 47.9565 64.472 48.2064 65.5615 48.1964Z" stroke="url(#paint13_linear_896_12971)" stroke-width="0.13" stroke-miterlimit="10"/>
<path d="M60.6638 70.685H61.0936C62.0931 70.685 62.0931 70.685 62.6128 71.0149C62.7458 71.2327 62.8314 71.4762 62.8641 71.7293C62.8968 71.9824 62.8759 72.2396 62.8027 72.4841C62.681 72.6828 62.5146 72.8504 62.3169 72.9736C62.1191 73.0968 61.8953 73.1722 61.6633 73.1938H60.6138H60.0541C59.5561 73.1624 59.076 72.9966 58.6648 72.714C58.4595 72.2702 58.4102 71.7701 58.5248 71.2947C59.0046 70.4851 59.8342 70.665 60.6638 70.685Z" fill="url(#paint14_linear_896_12971)"/>
<path d="M60.6639 70.6854H61.0936C62.0931 70.6854 62.0931 70.6854 62.6029 71.0152C62.7361 71.2311 62.8227 71.4724 62.8571 71.7237C62.8916 71.975 62.8731 72.2308 62.8028 72.4745C62.6778 72.6724 62.5093 72.8392 62.3101 72.9622C62.1109 73.0851 61.8863 73.161 61.6534 73.1841H60.6539H60.1041C59.6062 73.1528 59.126 72.987 58.7148 72.7044C58.5095 72.2606 58.4602 71.7604 58.5749 71.2851C59.0047 70.4855 59.8343 70.6654 60.6639 70.6854Z" stroke="url(#paint15_linear_896_12971)" stroke-width="0.13" stroke-miterlimit="10"/>
<path d="M6.59119 41.0599H31.3888C33.2778 41.0599 35.027 41.1399 36.4563 42.5592C37.4309 43.6355 37.9534 45.0458 37.9155 46.4972V46.847C37.9155 47.2269 37.9155 47.6167 37.9155 47.9965C37.9155 48.3763 37.9155 48.5562 37.9155 48.8261V61.9395C37.9155 63.2588 37.9155 64.5682 37.9155 65.8775V71.2349C37.9155 73.1139 37.8156 74.6631 36.5562 76.1724C36.0938 76.6674 35.5375 77.0655 34.9198 77.3435C34.302 77.6215 33.6352 77.7738 32.958 77.7916H12.968C12.1784 77.7916 11.3888 77.7916 10.5992 77.7916H7.60069C5.67165 77.7916 4.13242 77.6616 2.66316 76.2923C1.18389 74.7031 1.15391 73.014 1.1639 70.955V70.1154C1.1639 69.3558 1.1639 68.6062 1.1639 67.8465V65.4877C1.1639 64.1584 1.1639 62.8191 1.1639 61.4897V56.862C1.1639 55.5327 1.1639 54.2034 1.1639 52.864C1.1639 52.0744 1.1639 51.2848 1.1639 50.4952C1.1639 49.7056 1.1639 49.006 1.1639 48.2663V47.4967C1.1639 45.4977 1.33382 43.9385 2.80308 42.4193C3.8506 41.5071 5.20269 41.0219 6.59119 41.0599ZM4.51223 44.2483L4.10244 44.6382C3.29284 45.8775 3.47275 47.4767 3.48275 48.906V49.6656C3.48275 50.332 3.48275 51.0216 3.48275 51.7346V53.9035C3.48275 55.1229 3.48275 56.3323 3.48275 57.5517V61.7596C3.48275 62.969 3.48275 64.1684 3.48275 65.3778C3.48275 66.0974 3.48275 66.8171 3.48275 67.5367C3.48275 68.2563 3.48275 68.886 3.48275 69.5357V70.2753C3.24782 71.7684 3.56399 73.296 4.3723 74.5732C5.26501 75.2472 6.37681 75.5643 7.49074 75.4627H30.3893C31.7995 75.7132 33.2525 75.4319 34.4673 74.6731L34.7371 74.4333C35.004 74.1189 35.2059 73.7548 35.3312 73.3619C35.4564 72.969 35.5025 72.5552 35.4668 72.1444V69.8855C35.4668 69.1559 35.4668 68.4163 35.4668 67.6866C35.4668 66.957 35.4668 66.4572 35.4668 65.8475V61.4897C35.4668 60.0005 35.4668 58.4912 35.4668 57.022V53.1839C35.4668 52.4143 35.4668 51.6546 35.4668 50.885C35.4668 50.1154 35.4668 49.4458 35.4668 48.7261C35.4668 48.4662 35.4668 48.1964 35.4668 47.9365C35.4668 47.6766 35.4668 47.2169 35.4668 46.847V46.4972C35.4775 45.6732 35.1736 44.8761 34.6172 44.2683C34.283 43.9832 33.8949 43.7681 33.4759 43.6359C33.057 43.5037 32.6157 43.4571 32.1784 43.4987H7.92053C7.33145 43.3815 6.72448 43.3876 6.13787 43.5166C5.55126 43.6456 4.99775 43.8948 4.51223 44.2483Z" fill="url(#paint16_linear_896_12971)"/>
<path d="M8.40015 56.3625H10.679V60.3606H12.4981V58.3615H18.4951V56.3625H20.624V60.3606H22.4831V58.3615H24.4821V56.3625H30.5891V58.3615H32.5881V60.4905H30.5891V62.4895H28.4601V58.4915H26.601V60.4905H24.602V64.3386H28.6V68.4865H24.4621V66.4875H20.614V70.4855H18.4851V66.4875H16.4861V64.3386H20.4841V62.4895H18.4851V60.4905H16.626V62.4895H8.40015V56.3625Z" fill="url(#paint17_linear_896_12971)"/>
<path d="M8.77994 64.2785H12.618C12.9243 64.2415 13.2349 64.2657 13.5317 64.3498C13.8286 64.4339 14.1057 64.5761 14.3472 64.7682C14.5783 65.1239 14.6904 65.544 14.667 65.9676V67.9666C14.667 68.4164 14.667 68.8562 14.667 69.296V70.5853C14.667 71.7847 14.667 71.7847 14.1872 72.3244C13.544 72.6204 12.831 72.7312 12.1283 72.6443H8.50007C7.84591 72.6966 7.19351 72.5238 6.651 72.1545C6.33893 71.5162 6.22743 70.7984 6.33116 70.0956V66.4874C6.33116 65.3079 6.33116 65.3079 6.651 64.7982C6.95397 64.5753 7.29809 64.4146 7.66349 64.3254C8.02889 64.2362 8.40834 64.2203 8.77994 64.2785ZM8.77994 66.7672V70.1855H12.1982V66.7672H8.77994Z" fill="url(#paint18_linear_896_12971)"/>
<path d="M7.73036 46.3573H12.8178C13.8173 46.3573 13.8173 46.3573 14.2971 46.6971C14.5484 47.0413 14.6753 47.4608 14.6569 47.8866V49.1059C14.6569 49.4058 14.6569 49.7056 14.6569 50.0055C14.6569 50.4553 14.6569 50.905 14.6569 51.3648C14.6569 51.6547 14.6569 51.9445 14.6569 52.2244V52.6442C14.7264 53.1426 14.6354 53.6502 14.397 54.0935C14.2435 54.2529 14.0558 54.3754 13.848 54.4516C13.6402 54.5278 13.4178 54.5557 13.1976 54.5332H8.29008C7.76475 54.5862 7.23619 54.4707 6.78084 54.2034C6.61993 54.0241 6.4978 53.8134 6.42213 53.5847C6.34645 53.3559 6.31885 53.114 6.34106 52.8741V50.8751C6.34106 50.4453 6.34106 50.0155 6.34106 49.5857V48.3963C6.28178 47.7313 6.43959 47.065 6.79083 46.4972C7.08686 46.3709 7.41037 46.3227 7.73036 46.3573ZM8.78983 48.8061V52.0845H12.2081V48.8061H8.78983Z" fill="url(#paint19_linear_896_12971)"/>
<path d="M26.7209 46.2974H28.1202C28.61 46.2974 29.1197 46.2974 29.5695 46.2974H30.9288C31.4344 46.265 31.9398 46.3613 32.3981 46.5772C32.6436 47.1782 32.7363 47.8307 32.668 48.4763V48.936C32.668 49.2459 32.668 49.5657 32.668 49.8756C32.668 50.3653 32.668 50.8751 32.668 51.3249V52.6842C32.708 53.2296 32.5788 53.7741 32.2981 54.2434C31.7067 54.5563 31.0319 54.6751 30.3691 54.5832H25.6315C25.3146 54.559 25.0104 54.4484 24.7519 54.2634C24.4918 53.8932 24.3649 53.4457 24.3921 52.994V51.7546C24.3921 51.4548 24.3921 51.1449 24.3921 50.8451C24.3921 50.3853 24.3921 49.9255 24.3921 49.4658C24.3921 49.1659 24.3921 48.8761 24.3921 48.5762V48.1564C24.3452 47.6321 24.4678 47.1066 24.7419 46.6572C25.3487 46.336 26.0399 46.2103 26.7209 46.2974ZM26.8909 48.8061V52.0845H30.1692V48.8061H26.8909Z" fill="url(#paint20_linear_896_12971)"/>
<path d="M30.4492 66.3374H32.5881V72.6043H22.4731V70.4853H30.4691L30.4492 66.3374Z" fill="url(#paint21_linear_896_12971)"/>
<path d="M16.4861 46.3872H18.625V48.3862H20.624V50.4952H18.625V54.4932H16.4861V46.3872Z" fill="url(#paint22_linear_896_12971)"/>
<path d="M20.4741 52.3645H22.6131V54.4934H20.4741V52.3645Z" fill="url(#paint23_linear_896_12971)"/>
<path d="M6.531 41.0599H31.2986C33.1977 41.0599 34.9468 41.1399 36.3761 42.5592C37.3579 43.6323 37.8878 45.043 37.8553 46.4972V48.7961C37.8553 49.5457 37.8553 50.2953 37.8553 51.0449C37.8553 51.7946 37.8553 52.3043 37.8553 52.934V61.9295C37.8553 63.2488 37.8553 64.5582 37.8553 65.8675C37.8553 66.6471 37.8553 67.4367 37.8553 68.2163V71.2148C37.8553 73.0939 37.7554 74.6431 36.496 76.1524C36.0336 76.6474 35.4773 77.0455 34.8596 77.3235C34.2419 77.6015 33.575 77.7538 32.8978 77.7716H12.9078C12.1182 77.7716 11.3286 77.7716 10.539 77.7716H7.5305C5.61146 77.7716 4.07223 77.6416 2.60296 76.2723C1.11371 74.6831 1.09372 72.9939 1.10371 70.935C1.10371 70.6551 1.10371 70.3753 1.10371 70.0954V65.4877C1.10371 64.1584 1.10371 62.819 1.10371 61.4897C1.10371 59.9505 1.10371 58.4112 1.10371 56.872V48.2863C1.10371 48.0164 1.10371 47.7366 1.10371 47.4667C1.10371 45.4677 1.28362 43.9085 2.75289 42.3893C3.80227 41.4902 5.14988 41.0161 6.531 41.0599ZM4.45204 44.2483L4.04224 44.6381C3.22265 45.8775 3.40256 47.4967 3.40256 48.906V57.5517C3.40256 58.951 3.40256 60.3603 3.40256 61.7596V70.3053C3.17611 71.7995 3.49545 73.3252 4.30211 74.6032C5.19094 75.2688 6.29458 75.5821 7.40056 75.4827H30.3891C31.7722 75.7178 33.1936 75.4406 34.3871 74.7031L34.6669 74.4632C34.9325 74.1484 35.1329 73.7839 35.2565 73.391C35.38 72.9981 35.4242 72.5845 35.3866 72.1744V61.4897C35.3866 60.0004 35.3866 58.4912 35.3866 57.0219V46.4972C35.401 45.6744 35.1007 44.8771 34.547 44.2683C34.2085 43.9689 33.8119 43.7425 33.382 43.6032C32.952 43.4639 32.498 43.4147 32.0482 43.4587H7.86033C7.26852 43.3471 6.65997 43.3597 6.07326 43.4956C5.48655 43.6315 4.93448 43.8878 4.45204 44.2483Z" stroke="url(#paint24_linear_896_12971)" stroke-width="0.13" stroke-miterlimit="10"/>
<path d="M8.30005 56.3625H10.5789V60.3606H12.398V58.3615H18.395V56.3625H20.5339V60.3606H22.393V58.3615H24.392V56.3625H30.5189V58.3615H32.5179V60.4905H30.5189V62.4895H28.39V58.4915H26.5409V60.4905H24.5419V64.3386H28.5399V68.4865H24.392V66.4875H20.5539V70.4855H18.395V66.4875H16.396V64.3386H20.394V62.4895H18.395V60.4905H16.5659V62.4895H8.30005V56.3625Z" stroke="url(#paint25_linear_896_12971)" stroke-width="0.13" stroke-miterlimit="10"/>
<path d="M8.71998 64.2784H12.5581C12.8643 64.242 13.1748 64.2665 13.4715 64.3506C13.7683 64.4347 14.0455 64.5766 14.2872 64.7682C14.5184 65.1239 14.6304 65.544 14.607 65.9676V70.5853C14.607 71.7847 14.607 71.7847 14.1173 72.3244C13.4743 72.6214 12.761 72.7322 12.0583 72.6443H8.40014C7.74924 72.695 7.10049 72.5223 6.56105 72.1545C6.25087 71.5156 6.13613 70.7993 6.23122 70.0955V69.6957C6.23122 69.4259 6.23122 69.146 6.23122 68.8761C6.23122 68.6063 6.23122 68.0365 6.23122 67.6168V66.4873C6.23122 65.3079 6.23122 65.3079 6.56105 64.7982C6.86724 64.5704 7.21635 64.4069 7.58738 64.3176C7.95841 64.2283 8.34367 64.2149 8.71998 64.2784ZM8.71998 66.7672V70.1855H12.1383V66.7672H8.71998Z" stroke="url(#paint26_linear_896_12971)" stroke-width="0.13" stroke-miterlimit="10"/>
<path d="M7.67032 46.3573H12.7578C13.7573 46.3573 13.7573 46.3573 14.227 46.6971C14.4857 47.0381 14.6165 47.459 14.5969 47.8866V50.0055C14.5969 50.4553 14.5969 50.905 14.5969 51.3648V52.6442C14.6511 53.1645 14.5316 53.6882 14.257 54.1334C14.102 54.2937 13.9126 54.4166 13.703 54.4928C13.4935 54.569 13.2694 54.5965 13.0476 54.5732H8.23004C7.70467 54.6268 7.1759 54.5113 6.7208 54.2434C6.55833 54.0651 6.43521 53.8545 6.35944 53.6255C6.28367 53.3965 6.25695 53.1541 6.28102 52.914V50.915C6.28102 50.4853 6.28102 50.0555 6.28102 49.6257V48.3963C6.21498 47.7308 6.3733 47.0624 6.73079 46.4972C7.02682 46.3709 7.35033 46.3227 7.67032 46.3573ZM8.72979 48.8061V52.0845H12.1481V48.8061H8.72979Z" stroke="url(#paint27_linear_896_12971)" stroke-width="0.13" stroke-miterlimit="10"/>
<path d="M26.661 46.2973H28.0603C28.5401 46.2973 29.0598 46.2973 29.5096 46.2973H30.8689C31.3713 46.2631 31.874 46.3595 32.3282 46.5771C32.5816 47.176 32.678 47.8297 32.608 48.4762V49.8755C32.608 50.3652 32.608 50.875 32.608 51.3248V52.6841C32.6517 53.2285 32.526 53.7731 32.2482 54.2433C31.6566 54.5555 30.9819 54.6744 30.3192 54.5831H25.5715C25.2546 54.5589 24.9504 54.4483 24.692 54.2633C24.4461 53.8885 24.34 53.4391 24.3921 52.9939V50.845C24.3921 50.3852 24.3921 49.9255 24.3921 49.4657V48.1563C24.3537 47.6314 24.4795 47.1075 24.752 46.6571C25.3377 46.3482 26.003 46.2228 26.661 46.2973ZM26.8209 48.806V52.0844H30.0993V48.806H26.8209Z" stroke="url(#paint28_linear_896_12971)" stroke-width="0.13" stroke-miterlimit="10"/>
<path d="M30.3891 66.3374H32.528V72.6043H22.3931V70.4853H30.3891V66.3374Z" stroke="url(#paint29_linear_896_12971)" stroke-width="0.13" stroke-miterlimit="10"/>
<path d="M16.396 46.3872H18.5249V48.3862H20.5239V50.4952H18.5249V54.4932H16.396V46.3872Z" stroke="url(#paint30_linear_896_12971)" stroke-width="0.13" stroke-miterlimit="10"/>
<path d="M9.10039 6.33686C9.10039 9.8439 8.76662 12.6931 8.35545 12.6931C7.94428 12.6931 7.60083 9.8439 7.60083 6.33686C7.60083 2.82982 7.94912 0 8.35545 0C8.76178 0 9.10039 2.82498 9.10039 6.33686Z" fill="url(#paint31_radial_896_12971)"/>
<path d="M8.35626 7.07207C4.84922 7.07207 2.00005 6.7383 2.00005 6.32713C2.00005 5.91596 4.84922 5.57251 8.35626 5.57251C11.8633 5.57251 14.6931 5.9208 14.6931 6.32713C14.6931 6.73346 11.8681 7.07207 8.35626 7.07207Z" fill="url(#paint32_radial_896_12971)"/>
<path d="M73.7126 73.9909C73.7126 77.3064 73.3971 80 73.0083 80C72.6196 80 72.2949 77.3064 72.2949 73.9909C72.2949 70.6753 72.6242 68 73.0083 68C73.3925 68 73.7126 70.6707 73.7126 73.9909Z" fill="url(#paint33_radial_896_12971)"/>
<path d="M73.0091 74.686C69.6936 74.686 67 74.3704 67 73.9817C67 73.593 69.6936 73.2683 73.0091 73.2683C76.3247 73.2683 79 73.5976 79 73.9817C79 74.3659 76.3293 74.686 73.0091 74.686Z" fill="url(#paint34_radial_896_12971)"/>
<defs>
<linearGradient id="paint0_linear_896_12971" x1="1.01382" y1="22.929" x2="55.7565" y2="22.929" gradientUnits="userSpaceOnUse">
<stop stop-color="white" stop-opacity="0.9"/>
<stop offset="0.04" stop-color="white" stop-opacity="0.85"/>
<stop offset="0.28" stop-color="white" stop-opacity="0.5"/>
<stop offset="0.65" stop-color="#FAFBFC" stop-opacity="0.4"/>
<stop offset="1" stop-color="#F0EFEF" stop-opacity="0.3"/>
</linearGradient>
<linearGradient id="paint1_linear_896_12971" x1="47.8003" y1="56.2223" x2="73.4375" y2="56.2223" gradientUnits="userSpaceOnUse">
<stop stop-color="white" stop-opacity="0.9"/>
<stop offset="0.04" stop-color="white" stop-opacity="0.85"/>
<stop offset="0.28" stop-color="white" stop-opacity="0.5"/>
<stop offset="0.65" stop-color="#FAFBFC" stop-opacity="0.4"/>
<stop offset="1" stop-color="#F0EFEF" stop-opacity="0.3"/>
</linearGradient>
<linearGradient id="paint2_linear_896_12971" x1="60.614" y1="34.5633" x2="60.614" y2="77.8916" gradientUnits="userSpaceOnUse">
<stop stop-color="white" stop-opacity="0.9"/>
<stop offset="0.28" stop-color="white" stop-opacity="0.5"/>
<stop offset="0.65" stop-color="#FAFBFC" stop-opacity="0.4"/>
<stop offset="1" stop-color="#F0EFEF" stop-opacity="0.3"/>
</linearGradient>
<linearGradient id="paint3_linear_896_12971" x1="13.3778" y1="43.3887" x2="47.1209" y2="43.3887" gradientUnits="userSpaceOnUse">
<stop stop-color="white" stop-opacity="0.9"/>
<stop offset="0.04" stop-color="white" stop-opacity="0.85"/>
<stop offset="0.28" stop-color="white" stop-opacity="0.5"/>
<stop offset="0.65" stop-color="#FAFBFC" stop-opacity="0.4"/>
<stop offset="1" stop-color="#F0EFEF" stop-opacity="0.3"/>
</linearGradient>
<linearGradient id="paint4_linear_896_12971" x1="28.3801" y1="5.49775" x2="28.3801" y2="40.3903" gradientUnits="userSpaceOnUse">
<stop stop-color="white" stop-opacity="0.9"/>
<stop offset="0.28" stop-color="white" stop-opacity="0.5"/>
<stop offset="0.65" stop-color="#FAFBFC" stop-opacity="0.4"/>
<stop offset="1" stop-color="#F0EFEF" stop-opacity="0.3"/>
</linearGradient>
<linearGradient id="paint5_linear_896_12971" x1="30.2492" y1="30.7352" x2="30.2492" y2="56.0525" gradientUnits="userSpaceOnUse">
<stop stop-color="white" stop-opacity="0.9"/>
<stop offset="0.28" stop-color="white" stop-opacity="0.5"/>
<stop offset="0.65" stop-color="#FAFBFC" stop-opacity="0.4"/>
<stop offset="1" stop-color="#F0EFEF" stop-opacity="0.3"/>
</linearGradient>
<linearGradient id="paint6_linear_896_12971" x1="62.4332" y1="61.1498" x2="68.71" y2="61.1498" gradientUnits="userSpaceOnUse">
<stop stop-color="#79A540"/>
<stop offset="0.2" stop-color="#94C63D"/>
<stop offset="0.39" stop-color="#98CA3C"/>
<stop offset="0.59" stop-color="#93C53E"/>
<stop offset="0.74" stop-color="#9DCB3B"/>
<stop offset="0.9" stop-color="#A6CE39"/>
<stop offset="1" stop-color="#A6CE39"/>
</linearGradient>
<linearGradient id="paint7_linear_896_12971" x1="52.618" y1="61.16" x2="58.8649" y2="61.16" gradientUnits="userSpaceOnUse">
<stop stop-color="#79A540"/>
<stop offset="0.2" stop-color="#94C63D"/>
<stop offset="0.39" stop-color="#98CA3C"/>
<stop offset="0.59" stop-color="#93C53E"/>
<stop offset="0.74" stop-color="#9DCB3B"/>
<stop offset="0.9" stop-color="#A6CE39"/>
<stop offset="1" stop-color="#A6CE39"/>
</linearGradient>
<linearGradient id="paint8_linear_896_12971" x1="52.618" y1="51.305" x2="58.8848" y2="51.305" gradientUnits="userSpaceOnUse">
<stop stop-color="#79A540"/>
<stop offset="0.2" stop-color="#94C63D"/>
<stop offset="0.39" stop-color="#98CA3C"/>
<stop offset="0.59" stop-color="#93C53E"/>
<stop offset="0.74" stop-color="#9DCB3B"/>
<stop offset="0.9" stop-color="#A6CE39"/>
<stop offset="1" stop-color="#A6CE39"/>
</linearGradient>
<linearGradient id="paint9_linear_896_12971" x1="62.443" y1="51.2949" x2="68.7199" y2="51.2949" gradientUnits="userSpaceOnUse">
<stop stop-color="#79A540"/>
<stop offset="0.2" stop-color="#94C63D"/>
<stop offset="0.39" stop-color="#98CA3C"/>
<stop offset="0.59" stop-color="#93C53E"/>
<stop offset="0.74" stop-color="#9DCB3B"/>
<stop offset="0.9" stop-color="#A6CE39"/>
<stop offset="1" stop-color="#A6CE39"/>
</linearGradient>
<linearGradient id="paint10_linear_896_12971" x1="65.5716" y1="57.9514" x2="65.5716" y2="64.3482" gradientUnits="userSpaceOnUse">
<stop stop-color="white" stop-opacity="0.9"/>
<stop offset="0.28" stop-color="white" stop-opacity="0.5"/>
<stop offset="0.65" stop-color="#FAFBFC" stop-opacity="0.4"/>
<stop offset="1" stop-color="#F0EFEF" stop-opacity="0.3"/>
</linearGradient>
<linearGradient id="paint11_linear_896_12971" x1="55.7464" y1="57.9716" x2="55.7464" y2="64.3484" gradientUnits="userSpaceOnUse">
<stop stop-color="white" stop-opacity="0.9"/>
<stop offset="0.28" stop-color="white" stop-opacity="0.5"/>
<stop offset="0.65" stop-color="#FAFBFC" stop-opacity="0.4"/>
<stop offset="1" stop-color="#F0EFEF" stop-opacity="0.3"/>
</linearGradient>
<linearGradient id="paint12_linear_896_12971" x1="55.7464" y1="48.1066" x2="55.7464" y2="54.4934" gradientUnits="userSpaceOnUse">
<stop stop-color="white" stop-opacity="0.9"/>
<stop offset="0.28" stop-color="white" stop-opacity="0.5"/>
<stop offset="0.65" stop-color="#FAFBFC" stop-opacity="0.4"/>
<stop offset="1" stop-color="#F0EFEF" stop-opacity="0.3"/>
</linearGradient>
<linearGradient id="paint13_linear_896_12971" x1="65.5815" y1="48.1165" x2="65.5815" y2="54.4833" gradientUnits="userSpaceOnUse">
<stop stop-color="white" stop-opacity="0.9"/>
<stop offset="0.28" stop-color="white" stop-opacity="0.5"/>
<stop offset="0.65" stop-color="#FAFBFC" stop-opacity="0.4"/>
<stop offset="1" stop-color="#F0EFEF" stop-opacity="0.3"/>
</linearGradient>
<linearGradient id="paint14_linear_896_12971" x1="58.4649" y1="71.9444" x2="62.8727" y2="71.9444" gradientUnits="userSpaceOnUse">
<stop stop-color="white" stop-opacity="0.9"/>
<stop offset="0.04" stop-color="white" stop-opacity="0.85"/>
<stop offset="0.28" stop-color="white" stop-opacity="0.5"/>
<stop offset="0.65" stop-color="#FAFBFC" stop-opacity="0.4"/>
<stop offset="1" stop-color="#F0EFEF" stop-opacity="0.3"/>
</linearGradient>
<linearGradient id="paint15_linear_896_12971" x1="60.6639" y1="70.5954" x2="60.6639" y2="73.2841" gradientUnits="userSpaceOnUse">
<stop stop-color="white" stop-opacity="0.9"/>
<stop offset="0.28" stop-color="white" stop-opacity="0.5"/>
<stop offset="0.65" stop-color="#FAFBFC" stop-opacity="0.4"/>
<stop offset="1" stop-color="#F0EFEF" stop-opacity="0.3"/>
</linearGradient>
<linearGradient id="paint16_linear_896_12971" x1="1.15391" y1="59.4208" x2="37.9355" y2="59.4208" gradientUnits="userSpaceOnUse">
<stop stop-color="#79A540"/>
<stop offset="0.2" stop-color="#94C63D"/>
<stop offset="0.39" stop-color="#98CA3C"/>
<stop offset="0.59" stop-color="#93C53E"/>
<stop offset="0.74" stop-color="#9DCB3B"/>
<stop offset="0.9" stop-color="#A6CE39"/>
<stop offset="1" stop-color="#A6CE39"/>
</linearGradient>
<linearGradient id="paint17_linear_896_12971" x1="8.36017" y1="63.409" x2="32.5881" y2="63.409" gradientUnits="userSpaceOnUse">
<stop stop-color="#79A540"/>
<stop offset="0.2" stop-color="#94C63D"/>
<stop offset="0.39" stop-color="#98CA3C"/>
<stop offset="0.59" stop-color="#93C53E"/>
<stop offset="0.74" stop-color="#9DCB3B"/>
<stop offset="0.9" stop-color="#A6CE39"/>
<stop offset="1" stop-color="#A6CE39"/>
</linearGradient>
<linearGradient id="paint18_linear_896_12971" x1="6.32116" y1="68.4664" x2="14.687" y2="68.4664" gradientUnits="userSpaceOnUse">
<stop stop-color="#79A540"/>
<stop offset="0.2" stop-color="#94C63D"/>
<stop offset="0.39" stop-color="#98CA3C"/>
<stop offset="0.59" stop-color="#93C53E"/>
<stop offset="0.74" stop-color="#9DCB3B"/>
<stop offset="0.9" stop-color="#A6CE39"/>
<stop offset="1" stop-color="#A6CE39"/>
</linearGradient>
<linearGradient id="paint19_linear_896_12971" x1="6.31107" y1="50.4453" x2="14.6969" y2="50.4453" gradientUnits="userSpaceOnUse">
<stop stop-color="#79A540"/>
<stop offset="0.2" stop-color="#94C63D"/>
<stop offset="0.39" stop-color="#98CA3C"/>
<stop offset="0.59" stop-color="#93C53E"/>
<stop offset="0.74" stop-color="#9DCB3B"/>
<stop offset="0.9" stop-color="#A6CE39"/>
<stop offset="1" stop-color="#A6CE39"/>
</linearGradient>
<linearGradient id="paint20_linear_896_12971" x1="24.3821" y1="50.4453" x2="32.688" y2="50.4453" gradientUnits="userSpaceOnUse">
<stop stop-color="#79A540"/>
<stop offset="0.2" stop-color="#94C63D"/>
<stop offset="0.39" stop-color="#98CA3C"/>
<stop offset="0.59" stop-color="#93C53E"/>
<stop offset="0.74" stop-color="#9DCB3B"/>
<stop offset="0.9" stop-color="#A6CE39"/>
<stop offset="1" stop-color="#A6CE39"/>
</linearGradient>
<linearGradient id="paint21_linear_896_12971" x1="22.4731" y1="69.4658" x2="32.5881" y2="69.4658" gradientUnits="userSpaceOnUse">
<stop stop-color="#79A540"/>
<stop offset="0.2" stop-color="#94C63D"/>
<stop offset="0.39" stop-color="#98CA3C"/>
<stop offset="0.59" stop-color="#93C53E"/>
<stop offset="0.74" stop-color="#9DCB3B"/>
<stop offset="0.9" stop-color="#A6CE39"/>
<stop offset="1" stop-color="#A6CE39"/>
</linearGradient>
<linearGradient id="paint22_linear_896_12971" x1="16.4861" y1="50.4452" x2="20.614" y2="50.4452" gradientUnits="userSpaceOnUse">
<stop stop-color="#79A540"/>
<stop offset="0.2" stop-color="#94C63D"/>
<stop offset="0.39" stop-color="#98CA3C"/>
<stop offset="0.59" stop-color="#93C53E"/>
<stop offset="0.74" stop-color="#9DCB3B"/>
<stop offset="0.9" stop-color="#A6CE39"/>
<stop offset="1" stop-color="#A6CE39"/>
</linearGradient>
<linearGradient id="paint23_linear_896_12971" x1="20.4741" y1="53.434" x2="22.6131" y2="53.434" gradientUnits="userSpaceOnUse">
<stop stop-color="#79A540"/>
<stop offset="0.2" stop-color="#94C63D"/>
<stop offset="0.39" stop-color="#98CA3C"/>
<stop offset="0.59" stop-color="#93C53E"/>
<stop offset="0.74" stop-color="#9DCB3B"/>
<stop offset="0.9" stop-color="#A6CE39"/>
<stop offset="1" stop-color="#A6CE39"/>
</linearGradient>
<linearGradient id="paint24_linear_896_12971" x1="19.4845" y1="40.97" x2="19.4845" y2="77.8715" gradientUnits="userSpaceOnUse">
<stop stop-color="white" stop-opacity="0.9"/>
<stop offset="0.28" stop-color="white" stop-opacity="0.5"/>
<stop offset="0.65" stop-color="#FAFBFC" stop-opacity="0.4"/>
<stop offset="1" stop-color="#F0EFEF" stop-opacity="0.3"/>
</linearGradient>
<linearGradient id="paint25_linear_896_12971" x1="20.414" y1="56.2926" x2="20.414" y2="70.5355" gradientUnits="userSpaceOnUse">
<stop stop-color="white" stop-opacity="0.9"/>
<stop offset="0.28" stop-color="white" stop-opacity="0.5"/>
<stop offset="0.65" stop-color="#FAFBFC" stop-opacity="0.4"/>
<stop offset="1" stop-color="#F0EFEF" stop-opacity="0.3"/>
</linearGradient>
<linearGradient id="paint26_linear_896_12971" x1="10.4391" y1="64.2185" x2="10.4391" y2="72.7242" gradientUnits="userSpaceOnUse">
<stop stop-color="white" stop-opacity="0.9"/>
<stop offset="0.28" stop-color="white" stop-opacity="0.5"/>
<stop offset="0.65" stop-color="#FAFBFC" stop-opacity="0.4"/>
<stop offset="1" stop-color="#F0EFEF" stop-opacity="0.3"/>
</linearGradient>
<linearGradient id="paint27_linear_896_12971" x1="10.4489" y1="46.2474" x2="10.4489" y2="54.6432" gradientUnits="userSpaceOnUse">
<stop stop-color="white" stop-opacity="0.9"/>
<stop offset="0.28" stop-color="white" stop-opacity="0.5"/>
<stop offset="0.65" stop-color="#FAFBFC" stop-opacity="0.4"/>
<stop offset="1" stop-color="#F0EFEF" stop-opacity="0.3"/>
</linearGradient>
<linearGradient id="paint28_linear_896_12971" x1="28.4701" y1="46.2273" x2="28.4701" y2="54.6531" gradientUnits="userSpaceOnUse">
<stop stop-color="white" stop-opacity="0.9"/>
<stop offset="0.28" stop-color="white" stop-opacity="0.5"/>
<stop offset="0.65" stop-color="#FAFBFC" stop-opacity="0.4"/>
<stop offset="1" stop-color="#F0EFEF" stop-opacity="0.3"/>
</linearGradient>
<linearGradient id="paint29_linear_896_12971" x1="27.4705" y1="66.2674" x2="27.4705" y2="72.6742" gradientUnits="userSpaceOnUse">
<stop stop-color="white" stop-opacity="0.9"/>
<stop offset="0.28" stop-color="white" stop-opacity="0.5"/>
<stop offset="0.65" stop-color="#FAFBFC" stop-opacity="0.4"/>
<stop offset="1" stop-color="#F0EFEF" stop-opacity="0.3"/>
</linearGradient>
<linearGradient id="paint30_linear_896_12971" x1="18.485" y1="46.3172" x2="18.485" y2="54.5731" gradientUnits="userSpaceOnUse">
<stop stop-color="white" stop-opacity="0.9"/>
<stop offset="0.28" stop-color="white" stop-opacity="0.5"/>
<stop offset="0.65" stop-color="#FAFBFC" stop-opacity="0.4"/>
<stop offset="1" stop-color="#F0EFEF" stop-opacity="0.3"/>
</linearGradient>
<radialGradient id="paint31_radial_896_12971" cx="0" cy="0" r="1" gradientUnits="userSpaceOnUse" gradientTransform="translate(8.23626 6.80047) scale(0.741847 6.36066)">
<stop stop-color="white"/>
<stop offset="0.07" stop-color="white" stop-opacity="0.93"/>
<stop offset="1" stop-color="white" stop-opacity="0"/>
</radialGradient>
<radialGradient id="paint32_radial_896_12971" cx="0" cy="0" r="1" gradientUnits="userSpaceOnUse" gradientTransform="translate(7.89265 6.20794) rotate(90) scale(0.741848 6.36066)">
<stop stop-color="white"/>
<stop offset="0.07" stop-color="white" stop-opacity="0.93"/>
<stop offset="1" stop-color="white" stop-opacity="0"/>
</radialGradient>
<radialGradient id="paint33_radial_896_12971" cx="0" cy="0" r="1" gradientUnits="userSpaceOnUse" gradientTransform="translate(72.8957 74.4291) scale(0.701341 6.01335)">
<stop stop-color="white"/>
<stop offset="0.07" stop-color="white" stop-opacity="0.93"/>
<stop offset="1" stop-color="white" stop-opacity="0"/>
</radialGradient>
<radialGradient id="paint34_radial_896_12971" cx="0" cy="0" r="1" gradientUnits="userSpaceOnUse" gradientTransform="translate(72.5709 73.869) rotate(90) scale(0.701341 6.01335)">
<stop stop-color="white"/>
<stop offset="0.07" stop-color="white" stop-opacity="0.93"/>
<stop offset="1" stop-color="white" stop-opacity="0"/>
</radialGradient>
</defs>
</svg>
