<svg width="73" height="82" viewBox="0 0 73 82" fill="none" xmlns="http://www.w3.org/2000/svg">
<path fill-rule="evenodd" clip-rule="evenodd" d="M12.0938 21.9799C8.87381 26.1404 6.75961 31.0483 5.9483 36.2464C5.137 41.4444 5.65499 46.7632 7.45401 51.707C9.25303 56.6508 12.2745 61.0586 16.2367 64.5196C20.199 67.9805 24.973 70.3819 30.1138 71.4999V66.6899L38.8338 73.8399L30.1138 80.9999V76.1799C24.1046 75.0404 18.4878 72.3794 13.7997 68.4511C9.11168 64.5228 5.50891 59.4583 3.3354 53.7412C1.1619 48.0241 0.490241 41.8453 1.38456 35.7947C2.27888 29.7441 4.70932 24.0238 8.44382 19.1799" fill="url(#paint0_linear_852_6093)"/>
<path fill-rule="evenodd" clip-rule="evenodd" d="M62.0939 59.15C65.0974 54.9548 67.0122 50.0794 67.6664 44.9614C68.3205 39.8435 67.6936 34.6432 65.8418 29.8274C63.99 25.0116 60.9714 20.731 57.0568 17.3698C53.1423 14.0086 48.4543 11.6721 43.4139 10.57V15.32L34.7039 8.16L43.4239 1V5.86C49.3302 6.97866 54.8597 9.567 59.5019 13.3862C64.1442 17.2053 67.7497 22.1323 69.9857 27.7123C72.2217 33.2924 73.0161 39.3457 72.2958 45.3138C71.5754 51.2818 69.3634 56.9723 65.8639 61.86" fill="url(#paint1_linear_852_6093)"/>
<path d="M12.0938 21.98C8.87381 26.1404 6.75961 31.0484 5.9483 36.2464C5.137 41.4445 5.65499 46.7633 7.45401 51.7071C9.25303 56.6509 12.2745 61.0587 16.2367 64.5197C20.199 67.9806 24.973 70.382 30.1138 71.5V66.69L38.8338 73.84L30.1138 81V76.18C24.1046 75.0405 18.4878 72.3795 13.7997 68.4512C9.11168 64.5229 5.50891 59.4584 3.3354 53.7413C1.1619 48.0242 0.490241 41.8454 1.38456 35.7948C2.27888 29.7442 4.70932 24.0239 8.44382 19.18M62.0938 59.18C65.1042 54.9844 67.0246 50.1063 67.6825 44.9845C68.3403 39.8627 67.715 34.6577 65.8626 29.8375C64.0103 25.0173 60.9891 20.733 57.0706 17.3698C53.1521 14.0066 48.4592 11.67 43.4138 10.57V15.32L34.7038 8.16L43.4238 1V5.86C49.3302 6.97866 54.8596 9.567 59.5019 13.3862C64.1441 17.2053 67.7496 22.1323 69.9856 27.7123C72.2216 33.2924 73.0161 39.3457 72.2957 45.3138C71.5754 51.2818 69.3633 56.9723 65.8638 61.86" stroke="url(#paint2_linear_852_6093)" stroke-width="0.16" stroke-miterlimit="10"/>
<path d="M31.8238 9.82996C31.7853 10.9319 31.3316 11.9785 30.5538 12.76L27.7938 15.5C27.3995 15.9244 26.9232 16.2646 26.3938 16.5C25.8657 16.7105 25.3024 16.8191 24.7338 16.82C24.1533 16.8221 23.5783 16.7065 23.0438 16.48C22.5128 16.2422 22.0338 15.9024 21.6338 15.48C21.229 15.0645 20.9126 14.5712 20.7038 14.03C20.4938 13.4918 20.3919 12.9175 20.4038 12.34C20.4115 12.1728 20.4834 12.0151 20.6045 11.8996C20.7256 11.7841 20.8865 11.7198 21.0538 11.72C21.2233 11.729 21.3835 11.8002 21.5038 11.92C21.6175 12.0458 21.6783 12.2105 21.6738 12.38C21.6624 12.7868 21.7338 13.1916 21.8838 13.57C22.029 13.9533 22.2512 14.3028 22.5367 14.5969C22.8222 14.891 23.165 15.1235 23.5438 15.28C23.92 15.4402 24.3249 15.5219 24.7338 15.52C25.1359 15.5288 25.535 15.4503 25.9038 15.29C26.2781 15.1394 26.6183 14.915 26.9038 14.63L29.6638 11.87C29.9473 11.5869 30.1712 11.25 30.3223 10.879C30.4735 10.508 30.5488 10.1105 30.5438 9.70996C30.5448 9.30967 30.4657 8.91323 30.3112 8.54398C30.1566 8.17474 29.9297 7.84016 29.6438 7.55996C29.3636 7.27409 29.029 7.0472 28.6598 6.89263C28.2906 6.73806 27.8941 6.65895 27.4938 6.65996C26.6865 6.65986 25.9112 6.97572 25.3338 7.53996L24.4638 8.41996C24.3405 8.53122 24.1799 8.59192 24.0138 8.58996C23.8483 8.58494 23.691 8.51696 23.5739 8.39988C23.4568 8.2828 23.3888 8.12546 23.3838 7.95996C23.3834 7.87838 23.3991 7.79753 23.43 7.72202C23.4609 7.64652 23.5063 7.57785 23.5638 7.51996L24.4338 6.64996C24.8351 6.24408 25.3148 5.92424 25.8438 5.70996C26.3685 5.49237 26.9309 5.38037 27.4988 5.38037C28.0668 5.38037 28.6292 5.49237 29.1538 5.70996C29.6828 5.92424 30.1626 6.24408 30.5638 6.64996C30.9934 7.06315 31.3338 7.56005 31.5638 8.10996C31.7628 8.66061 31.8511 9.24511 31.8238 9.82996ZM21.4338 17.55L20.5638 18.42C20.2792 18.7086 19.939 18.9365 19.5638 19.09C19.1884 19.24 18.7881 19.3181 18.3838 19.32C17.7786 19.3178 17.1874 19.1374 16.6841 18.8013C16.1808 18.4652 15.7877 17.9882 15.5538 17.43C15.3295 16.8653 15.2773 16.2469 15.4036 15.6526C15.5299 15.0582 15.8292 14.5146 16.2638 14.09L19.0138 11.34C19.4374 10.9093 19.9811 10.6165 20.5738 10.5C21.176 10.3824 21.7997 10.4486 22.3638 10.69C22.9256 10.9368 23.4021 11.3437 23.7338 11.86C24.0803 12.3703 24.265 12.9731 24.2638 13.59C24.2583 13.6728 24.2706 13.7558 24.3 13.8334C24.3293 13.911 24.3749 13.9815 24.4338 14.04C24.49 14.1011 24.5579 14.1502 24.6335 14.1846C24.7091 14.219 24.7908 14.2378 24.8738 14.24C25.0433 14.2445 25.208 14.1836 25.3338 14.07C25.4542 13.951 25.5225 13.7892 25.5238 13.62C25.5439 13.032 25.4418 12.4464 25.2238 11.9C24.9888 11.3528 24.6491 10.8568 24.2238 10.44C23.8216 10.0369 23.3439 9.71715 22.8179 9.49898C22.292 9.2808 21.7282 9.1685 21.1588 9.1685C20.5894 9.1685 20.0256 9.2808 19.4997 9.49898C18.9738 9.71715 18.496 10.0369 18.0938 10.44L15.3338 13.2C14.7252 13.8011 14.3107 14.5709 14.1438 15.41C14.018 16.0385 14.0333 16.6872 14.1886 17.3092C14.344 17.9312 14.6355 18.5109 15.0421 19.0065C15.4487 19.5021 15.9603 19.9012 16.5399 20.175C17.1196 20.4489 17.7528 20.5906 18.3938 20.59C18.9603 20.5908 19.5212 20.4786 20.0438 20.26C20.5708 20.0419 21.0498 19.7225 21.4538 19.32L22.3238 18.45C22.4272 18.3273 22.4807 18.1702 22.4738 18.01C22.4675 17.8526 22.4035 17.703 22.2938 17.59C22.1817 17.4774 22.0323 17.4099 21.8738 17.4C21.7142 17.3976 21.5587 17.4506 21.4338 17.55Z" fill="url(#paint3_linear_852_6093)"/>
<path d="M31.8238 9.82996C31.7853 10.9319 31.3316 11.9785 30.5538 12.76L27.7938 15.5C27.3995 15.9244 26.9232 16.2646 26.3938 16.5C25.8657 16.7105 25.3024 16.8191 24.7338 16.82C24.1533 16.8221 23.5783 16.7065 23.0438 16.48C22.5128 16.2422 22.0338 15.9024 21.6338 15.48C21.229 15.0645 20.9126 14.5712 20.7038 14.03C20.4938 13.4918 20.3919 12.9175 20.4038 12.34C20.4115 12.1728 20.4834 12.0151 20.6045 11.8996C20.7256 11.7841 20.8865 11.7198 21.0538 11.72C21.2233 11.729 21.3835 11.8002 21.5038 11.92C21.6175 12.0458 21.6783 12.2105 21.6738 12.38C21.6624 12.7868 21.7338 13.1916 21.8838 13.57C22.029 13.9533 22.2512 14.3028 22.5367 14.5969C22.8222 14.891 23.165 15.1235 23.5438 15.28C23.92 15.4402 24.3249 15.5219 24.7338 15.52C25.1359 15.5288 25.535 15.4503 25.9038 15.29C26.2781 15.1394 26.6183 14.915 26.9038 14.63L29.6638 11.87C29.9473 11.5869 30.1712 11.25 30.3223 10.879C30.4735 10.508 30.5488 10.1105 30.5438 9.70996C30.5448 9.30967 30.4657 8.91323 30.3112 8.54398C30.1566 8.17474 29.9297 7.84016 29.6438 7.55996C29.3636 7.27409 29.029 7.0472 28.6598 6.89263C28.2906 6.73806 27.8941 6.65895 27.4938 6.65996C26.6865 6.65986 25.9112 6.97572 25.3338 7.53996L24.4638 8.41996C24.3405 8.53122 24.1799 8.59192 24.0138 8.58996C23.8483 8.58494 23.691 8.51696 23.5739 8.39988C23.4568 8.2828 23.3888 8.12546 23.3838 7.95996C23.3834 7.87838 23.3991 7.79753 23.43 7.72202C23.4609 7.64652 23.5063 7.57785 23.5638 7.51996L24.4338 6.64996C24.8351 6.24408 25.3148 5.92424 25.8438 5.70996C26.3685 5.49237 26.9309 5.38037 27.4988 5.38037C28.0668 5.38037 28.6292 5.49237 29.1538 5.70996C29.6828 5.92424 30.1626 6.24408 30.5638 6.64996C30.9934 7.06315 31.3338 7.56005 31.5638 8.10996C31.7628 8.66061 31.8511 9.24511 31.8238 9.82996ZM21.4338 17.55L20.5638 18.42C20.2792 18.7086 19.939 18.9365 19.5638 19.09C19.1884 19.24 18.7881 19.3181 18.3838 19.32C17.7786 19.3178 17.1874 19.1374 16.6841 18.8013C16.1808 18.4652 15.7877 17.9882 15.5538 17.43C15.3295 16.8653 15.2773 16.2469 15.4036 15.6526C15.5299 15.0582 15.8292 14.5146 16.2638 14.09L19.0138 11.34C19.4374 10.9093 19.9811 10.6165 20.5738 10.5C21.176 10.3824 21.7997 10.4486 22.3638 10.69C22.9256 10.9368 23.4021 11.3437 23.7338 11.86C24.0803 12.3703 24.265 12.9731 24.2638 13.59C24.2583 13.6728 24.2706 13.7558 24.3 13.8334C24.3293 13.911 24.3749 13.9815 24.4338 14.04C24.49 14.1011 24.5579 14.1502 24.6335 14.1846C24.7091 14.219 24.7908 14.2378 24.8738 14.24C25.0433 14.2445 25.208 14.1836 25.3338 14.07C25.4542 13.951 25.5225 13.7892 25.5238 13.62C25.5439 13.032 25.4418 12.4464 25.2238 11.9C24.9888 11.3528 24.6491 10.8568 24.2238 10.44C23.8216 10.0369 23.3439 9.71715 22.8179 9.49898C22.292 9.2808 21.7282 9.1685 21.1588 9.1685C20.5894 9.1685 20.0256 9.2808 19.4997 9.49898C18.9738 9.71715 18.496 10.0369 18.0938 10.44L15.3338 13.2C14.7252 13.8011 14.3107 14.5709 14.1438 15.41C14.018 16.0385 14.0333 16.6872 14.1886 17.3092C14.344 17.9312 14.6355 18.5109 15.0421 19.0065C15.4487 19.5021 15.9603 19.9012 16.5399 20.175C17.1196 20.4489 17.7528 20.5906 18.3938 20.59C18.9603 20.5908 19.5212 20.4786 20.0438 20.26C20.5708 20.0419 21.0498 19.7225 21.4538 19.32L22.3238 18.45C22.4272 18.3273 22.4807 18.1702 22.4738 18.01C22.4675 17.8526 22.4035 17.703 22.2938 17.59C22.1817 17.4774 22.0323 17.4099 21.8738 17.4C21.7142 17.3976 21.5587 17.4506 21.4338 17.55Z" stroke="url(#paint4_linear_852_6093)" stroke-width="0.25" stroke-miterlimit="10"/>
<path d="M55.4439 63.5H53.8039C53.6663 62.9593 53.4139 62.4546 53.0639 62.02H55.4439C55.6266 61.9988 55.7952 61.9112 55.9175 61.7739C56.0399 61.6365 56.1075 61.459 56.1075 61.275C56.1075 61.0911 56.0399 60.9136 55.9175 60.7762C55.7952 60.6388 55.6266 60.5512 55.4439 60.53H47.2639C47.0812 60.5512 46.9127 60.6388 46.7903 60.7762C46.668 60.9136 46.6004 61.0911 46.6004 61.275C46.6004 61.459 46.668 61.6365 46.7903 61.7739C46.9127 61.9112 47.0812 61.9988 47.2639 62.02H49.8539C50.3566 62.0027 50.8532 62.1338 51.2819 62.397C51.7105 62.6602 52.052 63.0439 52.2639 63.5H47.2639C47.0677 63.5 46.8794 63.578 46.7407 63.7168C46.6019 63.8556 46.5239 64.0438 46.5239 64.24C46.5239 64.4363 46.6019 64.6245 46.7407 64.7633C46.8794 64.9021 47.0677 64.98 47.2639 64.98H52.4439C52.3553 65.5942 52.0491 66.1561 51.5811 66.5635C51.1131 66.9709 50.5144 67.1968 49.8939 67.2H47.0439L46.9039 67.27L46.8139 67.33C46.77 67.3627 46.7326 67.4034 46.7039 67.45L46.6439 67.55C46.6339 67.5962 46.6339 67.6439 46.6439 67.69C46.5894 67.7624 46.5581 67.8495 46.5539 67.94V68.04C46.544 68.0895 46.544 68.1405 46.5539 68.19C46.5711 68.2395 46.5947 68.2866 46.6239 68.33C46.6253 68.3489 46.6316 68.3671 46.6421 68.3829C46.6526 68.3987 46.667 68.4115 46.6839 68.42L51.1239 73.61C51.1896 73.6836 51.2691 73.7435 51.3579 73.7863C51.4467 73.8291 51.5431 73.854 51.6415 73.8596C51.7399 73.8651 51.8385 73.8513 51.9316 73.8187C52.0246 73.7862 52.1104 73.7357 52.1839 73.67C52.2575 73.6044 52.3174 73.5249 52.3602 73.4361C52.403 73.3473 52.4279 73.2509 52.4335 73.1525C52.439 73.054 52.4252 72.9555 52.3926 72.8624C52.3601 72.7693 52.3096 72.6836 52.2439 72.61L48.9039 68.61H49.9039C50.9226 68.6122 51.9055 68.2341 52.6601 67.5498C53.4147 66.8654 53.8868 65.9241 53.9839 64.91H55.4639C55.6602 64.91 55.8484 64.8321 55.9872 64.6933C56.126 64.5545 56.2039 64.3663 56.2039 64.17C56.2039 63.9738 56.126 63.7856 55.9872 63.6468C55.8484 63.508 55.6602 63.43 55.4639 63.43L55.4439 63.5Z" fill="url(#paint5_linear_852_6093)"/>
<path d="M55.4439 63.5H53.8039C53.6663 62.9593 53.4139 62.4546 53.0639 62.02H55.4439C55.6266 61.9988 55.7952 61.9112 55.9175 61.7739C56.0399 61.6365 56.1075 61.459 56.1075 61.275C56.1075 61.0911 56.0399 60.9136 55.9175 60.7762C55.7952 60.6388 55.6266 60.5512 55.4439 60.53H47.2639C47.0812 60.5512 46.9127 60.6388 46.7903 60.7762C46.668 60.9136 46.6004 61.0911 46.6004 61.275C46.6004 61.459 46.668 61.6365 46.7903 61.7739C46.9127 61.9112 47.0812 61.9988 47.2639 62.02H49.8539C50.3566 62.0027 50.8532 62.1338 51.2819 62.397C51.7105 62.6602 52.052 63.0439 52.2639 63.5H47.2639C47.0677 63.5 46.8794 63.578 46.7407 63.7168C46.6019 63.8556 46.5239 64.0438 46.5239 64.24C46.5239 64.4363 46.6019 64.6245 46.7407 64.7633C46.8794 64.9021 47.0677 64.98 47.2639 64.98H52.4439C52.3553 65.5942 52.0491 66.1561 51.5811 66.5635C51.1131 66.9709 50.5144 67.1968 49.8939 67.2H47.0439L46.9039 67.27L46.8139 67.33C46.77 67.3627 46.7326 67.4034 46.7039 67.45L46.6439 67.55C46.6339 67.5962 46.6339 67.6439 46.6439 67.69C46.5894 67.7624 46.5581 67.8495 46.5539 67.94V68.04C46.544 68.0895 46.544 68.1405 46.5539 68.19C46.5711 68.2395 46.5947 68.2866 46.6239 68.33C46.6253 68.3489 46.6316 68.3671 46.6421 68.3829C46.6526 68.3987 46.667 68.4115 46.6839 68.42L51.1239 73.61C51.1896 73.6836 51.2691 73.7435 51.3579 73.7863C51.4467 73.8291 51.5431 73.854 51.6415 73.8596C51.7399 73.8651 51.8385 73.8513 51.9316 73.8187C52.0246 73.7862 52.1104 73.7357 52.1839 73.67C52.2575 73.6044 52.3174 73.5249 52.3602 73.4361C52.403 73.3473 52.4279 73.2509 52.4335 73.1525C52.439 73.054 52.4252 72.9555 52.3926 72.8624C52.3601 72.7693 52.3096 72.6836 52.2439 72.61L48.9039 68.61H49.9039C50.9226 68.6122 51.9055 68.2341 52.6601 67.5498C53.4147 66.8654 53.8868 65.9241 53.9839 64.91H55.4639C55.6602 64.91 55.8484 64.8321 55.9872 64.6933C56.126 64.5545 56.2039 64.3663 56.2039 64.17C56.2039 63.9738 56.126 63.7856 55.9872 63.6468C55.8484 63.508 55.6602 63.43 55.4639 63.43L55.4439 63.5Z" stroke="url(#paint6_linear_852_6093)" stroke-width="0.31" stroke-miterlimit="10"/>
<path d="M51.3639 78.5701C49.1131 78.5701 46.9129 77.9026 45.0415 76.6522C43.1701 75.4017 41.7115 73.6244 40.8501 71.545C39.9888 69.4656 39.7635 67.1774 40.2026 64.9699C40.6417 62.7624 41.7255 60.7347 43.317 59.1432C44.9085 57.5517 46.9363 56.4678 49.1438 56.0287C51.3513 55.5896 53.6394 55.815 55.7188 56.6763C57.7983 57.5376 59.5756 58.9962 60.826 60.8677C62.0765 62.7391 62.7439 64.9393 62.7439 67.1901C62.7386 70.2066 61.5379 73.0981 59.4049 75.2311C57.2719 77.3641 54.3804 78.5648 51.3639 78.5701ZM51.3639 56.5701C49.261 56.5701 47.2055 57.1938 45.4571 58.3622C43.7088 59.5307 42.3464 61.1915 41.5421 63.1345C40.7378 65.0774 40.5279 67.2153 40.9389 69.2776C41.3498 71.3398 42.3633 73.2339 43.8509 74.7201C45.3385 76.2064 47.2335 77.218 49.2962 77.627C51.3589 78.0361 53.4965 77.8241 55.4387 77.018C57.381 76.2119 59.0404 74.8479 60.2073 73.0985C61.3741 71.3491 61.9959 69.2929 61.9939 67.1901C61.9912 64.3716 60.8705 61.6694 58.8775 59.6764C56.8846 57.6835 54.1823 56.5627 51.3639 56.5601V56.5701Z" fill="url(#paint7_linear_852_6093)"/>
<path d="M51.3639 78.5701C49.1131 78.5701 46.9129 77.9026 45.0415 76.6522C43.1701 75.4017 41.7115 73.6244 40.8501 71.545C39.9888 69.4656 39.7635 67.1774 40.2026 64.9699C40.6417 62.7624 41.7255 60.7347 43.317 59.1432C44.9085 57.5517 46.9363 56.4678 49.1438 56.0287C51.3513 55.5896 53.6394 55.815 55.7188 56.6763C57.7983 57.5376 59.5756 58.9962 60.826 60.8677C62.0765 62.7391 62.7439 64.9393 62.7439 67.1901C62.7386 70.2066 61.5379 73.0981 59.4049 75.2311C57.2719 77.3641 54.3804 78.5648 51.3639 78.5701ZM51.3639 56.5701C49.261 56.5701 47.2055 57.1938 45.4571 58.3622C43.7088 59.5307 42.3464 61.1915 41.5421 63.1345C40.7378 65.0774 40.5279 67.2153 40.9389 69.2776C41.3498 71.3398 42.3633 73.2339 43.8509 74.7201C45.3385 76.2064 47.2335 77.218 49.2962 77.627C51.3589 78.0361 53.4965 77.8241 55.4387 77.018C57.381 76.2119 59.0404 74.8479 60.2073 73.0985C61.3741 71.3491 61.9959 69.2929 61.9939 67.1901C61.9912 64.3716 60.8705 61.6694 58.8775 59.6764C56.8846 57.6835 54.1823 56.5627 51.3639 56.5601V56.5701Z" stroke="url(#paint8_linear_852_6093)" stroke-width="0.25" stroke-miterlimit="10"/>
<path fill-rule="evenodd" clip-rule="evenodd" d="M51.2416 52.0229C51.1196 52.3269 50.9351 52.602 50.7 52.8304L48.2753 55.253C48.0469 55.4841 47.7751 55.668 47.4755 55.7941C47.176 55.9202 46.8545 55.986 46.5294 55.9879C46.2014 55.9907 45.8765 55.9246 45.5757 55.7941C45.271 55.6654 44.996 55.4757 44.7674 55.2369L43.1509 53.6218L42.868 53.7591C42.5932 53.8883 42.3103 54.0013 42.0597 54.1063C42.0597 54.1063 42.0597 54.1063 42.0112 54.1063C41.7445 54.2113 41.4535 54.3082 41.1383 54.4051C41.0411 54.4405 40.9411 54.4675 40.8392 54.4859V56.4401C40.8487 56.7971 40.7826 57.1521 40.6453 57.4818C40.525 57.7868 40.3403 58.0623 40.1037 58.2894C39.8722 58.5166 39.5973 58.6951 39.2955 58.8143C39.0009 58.9367 38.685 58.9998 38.366 59H34.8419C34.5149 59.0009 34.1909 58.9378 33.8882 58.8143C33.5839 58.6924 33.3085 58.508 33.0799 58.2732C32.8467 58.0433 32.6624 57.7686 32.5384 57.4657C32.4186 57.1621 32.3555 56.8391 32.3525 56.5128V54.3244L32.0292 54.2113C31.7382 54.0982 31.4553 53.969 31.1643 53.8398C30.8734 53.7106 30.5905 53.5733 30.3561 53.428L30.0974 53.2907L28.7234 54.6797C28.4897 54.9022 28.2153 55.0777 27.9151 55.1965C27.5953 55.3285 27.2505 55.3891 26.9048 55.3742C26.5894 55.3804 26.2759 55.3227 25.9834 55.2046C25.6829 55.0902 25.4081 54.9173 25.1751 54.6958L22.7503 52.2167C22.5113 51.9883 22.3215 51.7135 22.1926 51.4091C22.0611 51.106 21.995 50.7786 21.9987 50.4482C21.9973 50.1154 22.0633 49.7858 22.1926 49.4791C22.3187 49.1733 22.5089 48.8979 22.7503 48.6716L24.3184 47.105L24.1729 46.8062L23.8172 45.9502C23.6858 45.6082 23.4544 45.3136 23.1532 45.1047C22.8519 44.8959 22.4947 44.7825 22.128 44.7793H21.4814C21.1543 44.7941 20.8276 44.7447 20.5195 44.6339C20.2132 44.5159 19.937 44.3311 19.7113 44.0929C19.4889 43.8558 19.3086 43.5828 19.1778 43.2853C19.0629 42.989 19.0027 42.6744 19 42.3567V38.8197C19.0058 38.336 19.1526 37.8644 19.4225 37.4628C19.6924 37.0612 20.0736 36.747 20.5195 36.5585C20.8223 36.4351 21.1463 36.372 21.4733 36.3728H23.6718L23.7849 36.0417C23.8981 35.7591 24.0274 35.4764 24.1567 35.1777C24.286 34.8789 24.4234 34.6043 24.5689 34.3701C24.6093 34.2813 24.6659 34.2005 24.7063 34.1117L23.308 32.7389C23.0843 32.5062 22.9086 32.2318 22.7907 31.9314C22.554 31.3348 22.554 30.6706 22.7907 30.074C22.9067 29.7745 23.0796 29.5003 23.3 29.2665L25.7732 26.8439C26.2387 26.3774 26.868 26.1108 27.5272 26.1009C27.8557 26.1007 28.1807 26.1695 28.4809 26.3028C28.7855 26.4279 29.0608 26.6149 29.2892 26.852L30.8572 28.4186C30.9545 28.3678 31.0543 28.322 31.1563 28.2813C31.423 28.1602 31.7059 28.039 32.013 27.9179C32.3202 27.7968 32.595 27.7079 32.894 27.6191C32.9946 27.5857 33.0972 27.5587 33.2012 27.5384V25.4711C33.1998 25.1458 33.2573 24.823 33.3709 24.5182C33.4974 24.2165 33.6813 23.9423 33.9124 23.7106C34.1468 23.4869 34.4209 23.3089 34.7207 23.1857C35.0153 23.0633 35.3312 23.0002 35.6502 23H39.15C39.477 22.9991 39.801 23.0622 40.1037 23.1857C40.4081 23.3076 40.6834 23.4919 40.912 23.7268C41.1453 23.9567 41.3295 24.2314 41.4535 24.5343C41.5734 24.8379 41.6364 25.1609 41.6394 25.4872V27.6756L41.9627 27.7887C42.2537 27.9018 42.5366 28.031 42.8276 28.1602C43.1185 28.2894 43.4014 28.4267 43.6358 28.572L43.8945 28.7093L45.2685 27.3446C45.5009 27.1102 45.775 26.9212 46.0768 26.7874C46.4046 26.6543 46.7582 26.5964 47.1114 26.6178C47.4391 26.6173 47.7636 26.6832 48.0651 26.8116C48.3714 26.9373 48.647 27.1274 48.8734 27.3688L51.2982 29.7914C51.5297 30.0226 51.7137 30.297 51.8397 30.5989C51.9675 30.899 52.0334 31.2217 52.0334 31.5478C52.0334 31.8739 51.9675 32.1966 51.8397 32.4966C51.7136 32.8025 51.5234 33.0778 51.282 33.3042L49.714 34.9192L49.8595 35.21C49.9645 35.4522 50.0858 35.7187 50.1989 36.0175C50.3498 36.4023 50.4766 36.7961 50.5788 37.1965H52.5267C52.8537 37.1956 53.1777 37.2587 53.4805 37.3822C53.7868 37.5003 54.063 37.6851 54.2887 37.9233C54.5111 38.1603 54.6914 38.4334 54.8222 38.7308C54.9371 39.0271 54.9973 39.3417 55 39.6595V43.1642C54.9988 43.49 54.9386 43.8128 54.8222 44.1171C54.6896 44.4154 54.5064 44.6886 54.2806 44.9246C54.0521 45.1595 53.7767 45.3438 53.4724 45.4657C53.1685 45.5854 52.8453 45.6484 52.5186 45.6514H50.3444C50.3444 45.7564 50.2717 45.8614 50.2313 45.9744C50.1181 46.2651 50.0049 46.5478 49.8595 46.8385C49.714 47.1292 49.5927 47.4118 49.4472 47.646C49.4472 47.7268 49.3502 47.8156 49.3098 47.9044L50.6839 49.2692C50.9135 49.5037 51.0996 49.7771 51.2335 50.0767C51.3625 50.3779 51.4289 50.702 51.4289 51.0296C51.4289 51.3572 51.3625 51.6813 51.2335 51.9825L51.2416 52.0229ZM46.7719 41.1534C46.7725 41.8093 46.7102 42.4637 46.586 43.1077C46.464 43.7363 46.2771 44.3506 46.0283 44.9408C45.7892 45.5291 45.4913 46.0918 45.1392 46.6205C44.8013 47.138 44.4113 47.6196 43.9753 48.0579C43.5336 48.4948 43.0519 48.8895 42.5366 49.2369C42.0023 49.5821 41.4399 49.8819 40.8554 50.1332C40.8554 50.1332 40.7988 50.1332 40.7827 50.1332C40.2163 50.3723 39.6292 50.5588 39.0287 50.6904C37.7338 50.9381 36.4036 50.9381 35.1087 50.6904C34.4823 50.5713 33.8701 50.3872 33.282 50.1413C32.6895 49.9014 32.1234 49.601 31.5927 49.2449C31.0687 48.9026 30.5812 48.5076 30.1379 48.0659C29.7086 47.6238 29.3217 47.1426 28.982 46.6285C28.6303 46.0983 28.3299 45.5359 28.0849 44.9489C28.0849 44.9489 28.0849 44.9004 28.0445 44.8762C27.8163 44.3093 27.6405 43.7227 27.5191 43.1238C27.3992 42.4792 27.337 41.8252 27.3332 41.1696C27.3363 40.5139 27.3985 39.8599 27.5191 39.2153C27.772 37.9627 28.2632 36.7703 28.9659 35.7026C29.3021 35.1816 29.6952 34.6995 30.1379 34.2651C30.5775 33.8259 31.0594 33.431 31.5766 33.0861C32.1104 32.7355 32.6728 32.4303 33.2577 32.1736C33.2577 32.1736 33.3143 32.1736 33.3305 32.1736C33.9026 31.9512 34.4919 31.7756 35.0925 31.6487C36.3874 31.4011 37.7176 31.4011 39.0126 31.6487C39.6406 31.7717 40.2551 31.9556 40.8473 32.1978C41.4382 32.439 42.0018 32.7422 42.5285 33.1023C43.0431 33.4505 43.5247 33.8452 43.9672 34.2813C44.3928 34.7287 44.782 35.2094 45.1311 35.7187C45.4737 36.2403 45.7686 36.7916 46.0121 37.3661C46.0121 37.3661 46.0121 37.4145 46.0121 37.4307C46.2392 37.998 46.415 38.5844 46.5375 39.183C46.6684 39.8289 46.7334 40.4864 46.7315 41.1454L46.7719 41.1534Z" stroke="url(#paint9_linear_852_6093)" stroke-width="2" stroke-miterlimit="10"/>
<path d="M8.85686 20.1197C8.85686 23.5065 8.53452 26.258 8.13745 26.258C7.74037 26.258 7.40869 23.5065 7.40869 20.1197C7.40869 16.7328 7.74504 14 8.13745 14C8.52985 14 8.85686 16.7282 8.85686 20.1197Z" fill="url(#paint10_radial_852_6093)"/>
<path d="M8.13839 20.8298C4.75155 20.8298 2.00004 20.5074 2.00004 20.1103C2.00004 19.7133 4.75155 19.3816 8.13839 19.3816C11.5252 19.3816 14.2581 19.7179 14.2581 20.1103C14.2581 20.5028 11.5299 20.8298 8.13839 20.8298Z" fill="url(#paint11_radial_852_6093)"/>
<path d="M66.8569 61.1197C66.8569 64.5065 66.5345 67.258 66.1374 67.258C65.7404 67.258 65.4087 64.5065 65.4087 61.1197C65.4087 57.7328 65.745 55 66.1374 55C66.5299 55 66.8569 57.7282 66.8569 61.1197Z" fill="url(#paint12_radial_852_6093)"/>
<path d="M66.1384 61.8298C62.7516 61.8298 60 61.5074 60 61.1103C60 60.7133 62.7516 60.3816 66.1384 60.3816C69.5252 60.3816 72.2581 60.7179 72.2581 61.1103C72.2581 61.5028 69.5299 61.8298 66.1384 61.8298Z" fill="url(#paint13_radial_852_6093)"/>
<defs>
<linearGradient id="paint0_linear_852_6093" x1="4.5" y1="10" x2="26.5" y2="85.5" gradientUnits="userSpaceOnUse">
<stop stop-color="#F0EFEF" stop-opacity="0.3"/>
<stop offset="0.35" stop-color="#FAFBFC" stop-opacity="0.4"/>
<stop offset="0.72" stop-color="white" stop-opacity="0.5"/>
<stop offset="0.96" stop-color="white" stop-opacity="0.85"/>
<stop offset="1" stop-color="white" stop-opacity="0.9"/>
</linearGradient>
<linearGradient id="paint1_linear_852_6093" x1="15" y1="4.5" x2="66" y2="68" gradientUnits="userSpaceOnUse">
<stop offset="0.0608063" stop-color="#F0EFEF" stop-opacity="0.3"/>
<stop offset="0.35" stop-color="#FAFBFC" stop-opacity="0.4"/>
<stop offset="0.72" stop-color="white" stop-opacity="0.5"/>
<stop offset="0.96" stop-color="white" stop-opacity="0.85"/>
<stop offset="1" stop-color="white" stop-opacity="0.9"/>
</linearGradient>
<linearGradient id="paint2_linear_852_6093" x1="48" y1="79" x2="29.5" y2="24" gradientUnits="userSpaceOnUse">
<stop stop-color="white" stop-opacity="0.9"/>
<stop offset="0.28" stop-color="white" stop-opacity="0.5"/>
<stop offset="0.65" stop-color="#FAFBFC" stop-opacity="0.4"/>
<stop offset="1" stop-color="#F0EFEF" stop-opacity="0"/>
</linearGradient>
<linearGradient id="paint3_linear_852_6093" x1="14.0638" y1="12.98" x2="31.8238" y2="12.98" gradientUnits="userSpaceOnUse">
<stop stop-color="#79A540"/>
<stop offset="0.2" stop-color="#94C63D"/>
<stop offset="0.39" stop-color="#98CA3C"/>
<stop offset="0.59" stop-color="#93C53E"/>
<stop offset="0.74" stop-color="#9DCB3B"/>
<stop offset="0.9" stop-color="#A6CE39"/>
<stop offset="1" stop-color="#A6CE39"/>
</linearGradient>
<linearGradient id="paint4_linear_852_6093" x1="13.9438" y1="12.98" x2="31.9438" y2="12.98" gradientUnits="userSpaceOnUse">
<stop stop-color="white" stop-opacity="0.9"/>
<stop offset="0.28" stop-color="white" stop-opacity="0.5"/>
<stop offset="0.65" stop-color="#FAFBFC" stop-opacity="0.4"/>
<stop offset="1" stop-color="#F0EFEF" stop-opacity="0.3"/>
</linearGradient>
<linearGradient id="paint5_linear_852_6093" x1="51.3639" y1="73.86" x2="51.3639" y2="60.53" gradientUnits="userSpaceOnUse">
<stop stop-color="#79A540"/>
<stop offset="0.2" stop-color="#94C63D"/>
<stop offset="0.39" stop-color="#98CA3C"/>
<stop offset="0.59" stop-color="#93C53E"/>
<stop offset="0.74" stop-color="#9DCB3B"/>
<stop offset="0.9" stop-color="#A6CE39"/>
<stop offset="1" stop-color="#A6CE39"/>
</linearGradient>
<linearGradient id="paint6_linear_852_6093" x1="51.3666" y1="74.0105" x2="51.369" y2="60.3684" gradientUnits="userSpaceOnUse">
<stop stop-color="white" stop-opacity="0.9"/>
<stop offset="0.28" stop-color="white" stop-opacity="0.5"/>
<stop offset="0.65" stop-color="#FAFBFC" stop-opacity="0.4"/>
<stop offset="1" stop-color="#F0EFEF" stop-opacity="0.3"/>
</linearGradient>
<linearGradient id="paint7_linear_852_6093" x1="51.3639" y1="78.5701" x2="51.3639" y2="55.8101" gradientUnits="userSpaceOnUse">
<stop stop-color="#79A540"/>
<stop offset="0.2" stop-color="#94C63D"/>
<stop offset="0.39" stop-color="#98CA3C"/>
<stop offset="0.59" stop-color="#93C53E"/>
<stop offset="0.74" stop-color="#9DCB3B"/>
<stop offset="0.9" stop-color="#A6CE39"/>
<stop offset="1" stop-color="#A6CE39"/>
</linearGradient>
<linearGradient id="paint8_linear_852_6093" x1="51.3639" y1="78.6901" x2="51.3639" y2="55.6901" gradientUnits="userSpaceOnUse">
<stop stop-color="white" stop-opacity="0.9"/>
<stop offset="0.28" stop-color="white" stop-opacity="0.5"/>
<stop offset="0.65" stop-color="#FAFBFC" stop-opacity="0.4"/>
<stop offset="1" stop-color="#F0EFEF" stop-opacity="0.3"/>
</linearGradient>
<linearGradient id="paint9_linear_852_6093" x1="18.515" y1="41" x2="55.5011" y2="41" gradientUnits="userSpaceOnUse">
<stop stop-color="white" stop-opacity="0.9"/>
<stop offset="0.04" stop-color="white" stop-opacity="0.85"/>
<stop offset="0.28" stop-color="white" stop-opacity="0.5"/>
<stop offset="0.65" stop-color="#FAFBFC" stop-opacity="0.4"/>
<stop offset="1" stop-color="#F0EFEF" stop-opacity="0.3"/>
</linearGradient>
<radialGradient id="paint10_radial_852_6093" cx="0" cy="0" r="1" gradientUnits="userSpaceOnUse" gradientTransform="translate(8.02234 20.5674) scale(0.716421 6.14265)">
<stop stop-color="white"/>
<stop offset="0.07" stop-color="white" stop-opacity="0.93"/>
<stop offset="1" stop-color="white" stop-opacity="0"/>
</radialGradient>
<radialGradient id="paint11_radial_852_6093" cx="0" cy="0" r="1" gradientUnits="userSpaceOnUse" gradientTransform="translate(7.69067 19.9952) rotate(90) scale(0.716421 6.14265)">
<stop stop-color="white"/>
<stop offset="0.07" stop-color="white" stop-opacity="0.93"/>
<stop offset="1" stop-color="white" stop-opacity="0"/>
</radialGradient>
<radialGradient id="paint12_radial_852_6093" cx="0" cy="0" r="1" gradientUnits="userSpaceOnUse" gradientTransform="translate(66.0223 61.5674) scale(0.716421 6.14265)">
<stop stop-color="white"/>
<stop offset="0.07" stop-color="white" stop-opacity="0.93"/>
<stop offset="1" stop-color="white" stop-opacity="0"/>
</radialGradient>
<radialGradient id="paint13_radial_852_6093" cx="0" cy="0" r="1" gradientUnits="userSpaceOnUse" gradientTransform="translate(65.6907 60.9952) rotate(90) scale(0.716421 6.14265)">
<stop stop-color="white"/>
<stop offset="0.07" stop-color="white" stop-opacity="0.93"/>
<stop offset="1" stop-color="white" stop-opacity="0"/>
</radialGradient>
</defs>
</svg>
