<svg width="90" height="81" viewBox="0 0 90 81" fill="none" xmlns="http://www.w3.org/2000/svg">
<path d="M11.6116 62.9682V43.6189C11.6116 42.2844 12.1198 41.0047 13.0244 40.0611C13.929 39.1175 15.156 38.5874 16.4353 38.5874H31.9289" stroke="url(#paint0_linear_896_13011)" stroke-width="1.5" stroke-miterlimit="10" stroke-linecap="round"/>
<path d="M77.9376 62.7142V43.7276C77.9376 42.4182 77.4175 41.1625 76.4916 40.2366C75.5657 39.3107 74.3099 38.7905 73.0005 38.7905H57.1428" stroke="url(#paint1_linear_896_13011)" stroke-width="1.5" stroke-miterlimit="10" stroke-linecap="round"/>
<path d="M44.6272 62.7141V46.9072" stroke="url(#paint2_linear_896_13011)" stroke-width="2" stroke-miterlimit="10" stroke-linecap="round"/>
<path d="M52.2424 23.8681C52.2116 24.7513 51.8485 25.5901 51.2259 26.2165L49.0169 28.4126C48.7012 28.7527 48.3201 29.0254 47.8963 29.214C47.4736 29.3828 47.0228 29.4699 46.5677 29.4705C46.103 29.4723 45.6429 29.3796 45.215 29.198C44.79 29.0075 44.4066 28.7351 44.0865 28.3965C43.7625 28.0635 43.5092 27.6682 43.3421 27.2344C43.1741 26.803 43.0925 26.3427 43.102 25.8798C43.1082 25.7459 43.1657 25.6195 43.2626 25.5269C43.3595 25.4343 43.4884 25.3828 43.6223 25.3829C43.7579 25.3902 43.8862 25.4472 43.9824 25.5432C44.0734 25.644 44.1221 25.7761 44.1185 25.9119C44.1094 26.2379 44.1665 26.5624 44.2866 26.8657C44.4028 27.1729 44.5807 27.453 44.8092 27.6887C45.0377 27.9245 45.312 28.1108 45.6152 28.2362C45.9163 28.3647 46.2404 28.4301 46.5677 28.4286C46.8895 28.4357 47.209 28.3728 47.5041 28.2442C47.8037 28.1236 48.076 27.9437 48.3045 27.7153L50.5136 25.5031C50.7405 25.2763 50.9197 25.0062 51.0406 24.7089C51.1616 24.4115 51.2219 24.0929 51.2179 23.7719C51.2187 23.4511 51.1554 23.1333 51.0317 22.8374C50.908 22.5414 50.7264 22.2733 50.4976 22.0487C50.2733 21.8196 50.0055 21.6377 49.71 21.5138C49.4144 21.3899 49.0971 21.3265 48.7768 21.3273C48.1306 21.3273 47.5101 21.5804 47.0479 22.0327L46.3516 22.738C46.2529 22.8271 46.1243 22.8758 45.9914 22.8742C45.8589 22.8702 45.733 22.8157 45.6393 22.7219C45.5456 22.628 45.4912 22.5019 45.4872 22.3693C45.4868 22.3039 45.4994 22.2391 45.5241 22.1786C45.5488 22.1181 45.5852 22.063 45.6312 22.0166L46.3276 21.3193C46.6487 20.994 47.0327 20.7377 47.4561 20.5659C47.876 20.3915 48.3262 20.3018 48.7808 20.3018C49.2353 20.3018 49.6855 20.3915 50.1054 20.5659C50.5288 20.7377 50.9128 20.994 51.2339 21.3193C51.5778 21.6505 51.8502 22.0488 52.0343 22.4895C52.1936 22.9308 52.2643 23.3993 52.2424 23.8681ZM43.9264 30.0556L43.2301 30.7529C43.0023 30.9842 42.73 31.1669 42.4297 31.2899C42.1292 31.4102 41.8088 31.4727 41.4852 31.4743C41.0008 31.4726 40.5276 31.328 40.1248 31.0586C39.722 30.7891 39.4073 30.4069 39.2201 29.9594C39.0406 29.5068 38.9988 29.0112 39.0999 28.5349C39.201 28.0585 39.4406 27.6228 39.7884 27.2824L41.9895 25.0783C42.3285 24.7332 42.7637 24.4985 43.2381 24.4051C43.7201 24.3109 44.2193 24.3639 44.6708 24.5574C45.1204 24.7552 45.5018 25.0814 45.7673 25.4951C46.0446 25.9041 46.1924 26.3873 46.1915 26.8817C46.1871 26.9481 46.197 27.0146 46.2204 27.0768C46.2439 27.139 46.2804 27.1955 46.3276 27.2424C46.3726 27.2913 46.4269 27.3308 46.4874 27.3583C46.5479 27.3858 46.6133 27.4009 46.6797 27.4027C46.8154 27.4063 46.9472 27.3575 47.0479 27.2664C47.1442 27.1711 47.1989 27.0414 47.2 26.9057C47.2161 26.4345 47.1343 25.9651 46.9599 25.5272C46.7718 25.0886 46.4999 24.6911 46.1595 24.357C45.8376 24.034 45.4552 23.7777 45.0343 23.6028C44.6133 23.4279 44.162 23.3379 43.7063 23.3379C43.2506 23.3379 42.7993 23.4279 42.3784 23.6028C41.9574 23.7777 41.575 24.034 41.2531 24.357L39.0441 26.5691C38.5569 27.051 38.2252 27.6679 38.0916 28.3404C37.9909 28.8442 38.0031 29.3641 38.1275 29.8626C38.2518 30.3611 38.4851 30.8258 38.8106 31.223C39.136 31.6202 39.5455 31.9401 40.0094 32.1596C40.4733 32.3791 40.9801 32.4927 41.4932 32.4922C41.9466 32.4928 42.3956 32.4029 42.8139 32.2277C43.2356 32.0529 43.6191 31.7969 43.9424 31.4743L44.6388 30.777C44.7215 30.6786 44.7643 30.5528 44.7588 30.4243C44.7538 30.2982 44.7025 30.1783 44.6147 30.0877C44.525 29.9975 44.4055 29.9433 44.2786 29.9354C44.1508 29.9335 44.0264 29.976 43.9264 30.0556Z" fill="url(#paint3_linear_896_13011)"/>
<path d="M52.2424 23.8681C52.2116 24.7513 51.8485 25.5901 51.2259 26.2165L49.0169 28.4126C48.7012 28.7527 48.3201 29.0254 47.8963 29.214C47.4736 29.3828 47.0228 29.4699 46.5677 29.4705C46.103 29.4723 45.6429 29.3796 45.215 29.198C44.79 29.0075 44.4066 28.7351 44.0865 28.3965C43.7625 28.0635 43.5092 27.6682 43.3421 27.2344C43.1741 26.803 43.0925 26.3427 43.102 25.8798C43.1082 25.7459 43.1657 25.6195 43.2626 25.5269C43.3595 25.4343 43.4884 25.3828 43.6223 25.3829C43.7579 25.3902 43.8862 25.4472 43.9824 25.5432C44.0734 25.644 44.1221 25.7761 44.1185 25.9119C44.1094 26.2379 44.1665 26.5624 44.2866 26.8657C44.4028 27.1729 44.5807 27.453 44.8092 27.6887C45.0377 27.9245 45.312 28.1108 45.6152 28.2362C45.9163 28.3647 46.2404 28.4301 46.5677 28.4286C46.8895 28.4357 47.209 28.3728 47.5041 28.2442C47.8037 28.1236 48.076 27.9437 48.3045 27.7153L50.5136 25.5031C50.7405 25.2763 50.9197 25.0062 51.0406 24.7089C51.1616 24.4115 51.2219 24.0929 51.2179 23.7719C51.2187 23.4511 51.1554 23.1333 51.0317 22.8374C50.908 22.5414 50.7264 22.2733 50.4976 22.0487C50.2733 21.8196 50.0055 21.6377 49.71 21.5138C49.4144 21.3899 49.0971 21.3265 48.7768 21.3273C48.1306 21.3273 47.5101 21.5804 47.0479 22.0327L46.3516 22.738C46.2529 22.8271 46.1243 22.8758 45.9914 22.8742C45.8589 22.8702 45.733 22.8157 45.6393 22.7219C45.5456 22.628 45.4912 22.5019 45.4872 22.3693C45.4868 22.3039 45.4994 22.2391 45.5241 22.1786C45.5488 22.1181 45.5852 22.063 45.6312 22.0166L46.3276 21.3193C46.6487 20.994 47.0327 20.7377 47.4561 20.5659C47.876 20.3915 48.3262 20.3018 48.7808 20.3018C49.2353 20.3018 49.6855 20.3915 50.1054 20.5659C50.5288 20.7377 50.9128 20.994 51.2339 21.3193C51.5778 21.6505 51.8502 22.0488 52.0343 22.4895C52.1936 22.9308 52.2643 23.3993 52.2424 23.8681ZM43.9264 30.0556L43.2301 30.7529C43.0023 30.9842 42.73 31.1669 42.4297 31.2899C42.1292 31.4102 41.8088 31.4727 41.4852 31.4743C41.0008 31.4726 40.5276 31.328 40.1248 31.0586C39.722 30.7891 39.4073 30.4069 39.2201 29.9594C39.0406 29.5068 38.9988 29.0112 39.0999 28.5349C39.201 28.0585 39.4406 27.6228 39.7884 27.2824L41.9895 25.0783C42.3285 24.7332 42.7637 24.4985 43.2381 24.4051C43.7201 24.3109 44.2193 24.3639 44.6708 24.5574C45.1204 24.7552 45.5018 25.0814 45.7673 25.4951C46.0446 25.9041 46.1924 26.3873 46.1915 26.8817C46.1871 26.9481 46.197 27.0146 46.2204 27.0768C46.2439 27.139 46.2804 27.1955 46.3276 27.2424C46.3726 27.2913 46.4269 27.3308 46.4874 27.3583C46.5479 27.3858 46.6133 27.4009 46.6797 27.4027C46.8154 27.4063 46.9472 27.3575 47.0479 27.2664C47.1442 27.1711 47.1989 27.0414 47.2 26.9057C47.2161 26.4345 47.1343 25.9651 46.9599 25.5272C46.7718 25.0886 46.4999 24.6911 46.1595 24.357C45.8376 24.034 45.4552 23.7777 45.0343 23.6028C44.6133 23.4279 44.162 23.3379 43.7063 23.3379C43.2506 23.3379 42.7993 23.4279 42.3784 23.6028C41.9574 23.7777 41.575 24.034 41.2531 24.357L39.0441 26.5691C38.5569 27.051 38.2252 27.6679 38.0916 28.3404C37.9909 28.8442 38.0031 29.3641 38.1275 29.8626C38.2518 30.3611 38.4851 30.8258 38.8106 31.223C39.136 31.6202 39.5455 31.9401 40.0094 32.1596C40.4733 32.3791 40.9801 32.4927 41.4932 32.4922C41.9466 32.4928 42.3956 32.4029 42.8139 32.2277C43.2356 32.0529 43.6191 31.7969 43.9424 31.4743L44.6388 30.777C44.7215 30.6786 44.7643 30.5528 44.7588 30.4243C44.7538 30.2982 44.7025 30.1783 44.6147 30.0877C44.525 29.9975 44.4055 29.9433 44.2786 29.9354C44.1508 29.9335 44.0264 29.976 43.9264 30.0556Z" stroke="url(#paint4_linear_896_13011)" stroke-width="0.25" stroke-miterlimit="10"/>
<path d="M52.2424 23.8681C52.2116 24.7513 51.8485 25.5901 51.2259 26.2165L49.0169 28.4126C48.7012 28.7527 48.3201 29.0254 47.8963 29.214C47.4736 29.3828 47.0228 29.4699 46.5677 29.4705C46.103 29.4723 45.6429 29.3796 45.215 29.198C44.79 29.0075 44.4066 28.7351 44.0865 28.3965C43.7625 28.0635 43.5092 27.6682 43.3421 27.2344C43.1741 26.803 43.0925 26.3427 43.102 25.8798C43.1082 25.7459 43.1657 25.6195 43.2626 25.5269C43.3595 25.4343 43.4884 25.3828 43.6223 25.3829C43.7579 25.3902 43.8862 25.4472 43.9824 25.5432C44.0734 25.644 44.1221 25.7761 44.1185 25.9119C44.1094 26.2379 44.1665 26.5624 44.2866 26.8657C44.4028 27.1729 44.5807 27.453 44.8092 27.6887C45.0377 27.9245 45.312 28.1108 45.6152 28.2362C45.9163 28.3647 46.2404 28.4301 46.5677 28.4286C46.8895 28.4357 47.209 28.3728 47.5041 28.2442C47.8037 28.1236 48.076 27.9437 48.3045 27.7153L50.5136 25.5031C50.7405 25.2763 50.9197 25.0062 51.0406 24.7089C51.1616 24.4115 51.2219 24.0929 51.2179 23.7719C51.2187 23.4511 51.1554 23.1333 51.0317 22.8374C50.908 22.5414 50.7264 22.2733 50.4976 22.0487C50.2733 21.8196 50.0055 21.6377 49.71 21.5138C49.4144 21.3899 49.0971 21.3265 48.7768 21.3273C48.1306 21.3273 47.5101 21.5804 47.0479 22.0327L46.3516 22.738C46.2529 22.8271 46.1243 22.8758 45.9914 22.8742C45.8589 22.8702 45.733 22.8157 45.6393 22.7219C45.5456 22.628 45.4912 22.5019 45.4872 22.3693C45.4868 22.3039 45.4994 22.2391 45.5241 22.1786C45.5488 22.1181 45.5852 22.063 45.6312 22.0166L46.3276 21.3193C46.6487 20.994 47.0327 20.7377 47.4561 20.5659C47.876 20.3915 48.3262 20.3018 48.7808 20.3018C49.2353 20.3018 49.6855 20.3915 50.1054 20.5659C50.5288 20.7377 50.9128 20.994 51.2339 21.3193C51.5778 21.6505 51.8502 22.0488 52.0343 22.4895C52.1936 22.9308 52.2643 23.3993 52.2424 23.8681ZM43.9264 30.0556L43.2301 30.7529C43.0023 30.9842 42.73 31.1669 42.4297 31.2899C42.1292 31.4102 41.8088 31.4727 41.4852 31.4743C41.0008 31.4726 40.5276 31.328 40.1248 31.0586C39.722 30.7891 39.4073 30.4069 39.2201 29.9594C39.0406 29.5068 38.9988 29.0112 39.0999 28.5349C39.201 28.0585 39.4406 27.6228 39.7884 27.2824L41.9895 25.0783C42.3285 24.7332 42.7637 24.4985 43.2381 24.4051C43.7201 24.3109 44.2193 24.3639 44.6708 24.5574C45.1204 24.7552 45.5018 25.0814 45.7673 25.4951C46.0446 25.9041 46.1924 26.3873 46.1915 26.8817C46.1871 26.9481 46.197 27.0146 46.2204 27.0768C46.2439 27.139 46.2804 27.1955 46.3276 27.2424C46.3726 27.2913 46.4269 27.3308 46.4874 27.3583C46.5479 27.3858 46.6133 27.4009 46.6797 27.4027C46.8154 27.4063 46.9472 27.3575 47.0479 27.2664C47.1442 27.1711 47.1989 27.0414 47.2 26.9057C47.2161 26.4345 47.1343 25.9651 46.9599 25.5272C46.7718 25.0886 46.4999 24.6911 46.1595 24.357C45.8376 24.034 45.4552 23.7777 45.0343 23.6028C44.6133 23.4279 44.162 23.3379 43.7063 23.3379C43.2506 23.3379 42.7993 23.4279 42.3784 23.6028C41.9574 23.7777 41.575 24.034 41.2531 24.357L39.0441 26.5691C38.5569 27.051 38.2252 27.6679 38.0916 28.3404C37.9909 28.8442 38.0031 29.3641 38.1275 29.8626C38.2518 30.3611 38.4851 30.8258 38.8106 31.223C39.136 31.6202 39.5455 31.9401 40.0094 32.1596C40.4733 32.3791 40.9801 32.4927 41.4932 32.4922C41.9466 32.4928 42.3956 32.4029 42.8139 32.2277C43.2356 32.0529 43.6191 31.7969 43.9424 31.4743L44.6388 30.777C44.7215 30.6786 44.7643 30.5528 44.7588 30.4243C44.7538 30.2982 44.7025 30.1783 44.6147 30.0877C44.525 29.9975 44.4055 29.9433 44.2786 29.9354C44.1508 29.9335 44.0264 29.976 43.9264 30.0556Z" stroke="url(#paint5_linear_896_13011)" stroke-width="0.25" stroke-miterlimit="10"/>
<path d="M53.9935 47.1306H35.2609C34.3263 47.1391 33.4255 46.7812 32.7515 46.1338C32.0775 45.4863 31.6837 44.6007 31.6545 43.6665V4.52519C31.6679 3.58035 32.0548 2.67921 32.7305 2.01869C33.4062 1.35818 34.316 0.991986 35.2609 1.00013H53.9935C54.9366 0.991959 55.8448 1.35676 56.5203 2.01509C57.1957 2.67342 57.5837 3.57196 57.5998 4.51503V43.6665C57.5706 44.6007 57.1769 45.4863 56.5028 46.1338C55.8288 46.7812 54.928 47.1391 53.9935 47.1306ZM35.2609 2.43251C34.7063 2.42138 34.1693 2.62774 33.765 3.00745C33.3606 3.38715 33.1208 3.91004 33.0971 4.46424V43.6665C33.1208 44.2207 33.3606 44.7436 33.765 45.1233C34.1693 45.503 34.7063 45.7094 35.2609 45.6983H53.9935C54.5481 45.7094 55.085 45.503 55.4894 45.1233C55.8938 44.7436 56.1335 44.2207 56.1572 43.6665V4.52519C56.1335 3.97099 55.8938 3.44811 55.4894 3.0684C55.085 2.6887 54.5481 2.48233 53.9935 2.49346L35.2609 2.43251Z" fill="url(#paint6_linear_896_13011)"/>
<path d="M48.6095 5.87634H40.6451C40.142 5.83728 39.6742 5.60275 39.3419 5.22299C39.0096 4.84323 38.8392 4.34844 38.8673 3.8446V2.45287H40.2997V3.82429C40.2997 4.17984 40.513 4.44397 40.6451 4.44397H48.6095C48.7415 4.44397 48.9549 4.19 48.9549 3.82429V2.45287H50.3872V3.82429C50.4208 4.33151 50.253 4.83152 49.9201 5.21572C49.5873 5.59993 49.1163 5.83732 48.6095 5.87634Z" fill="url(#paint7_linear_896_13011)"/>
<path d="M53.9935 47.1306H35.2609C34.3263 47.1391 33.4255 46.7812 32.7515 46.1338C32.0775 45.4863 31.6837 44.6007 31.6545 43.6665V4.52519C31.6679 3.58035 32.0548 2.67921 32.7305 2.01869C33.4062 1.35818 34.316 0.991986 35.2609 1.00013H53.9935C54.9366 0.991959 55.8448 1.35676 56.5203 2.01509C57.1957 2.67342 57.5837 3.57196 57.5998 4.51503V43.6665C57.5706 44.6007 57.1769 45.4863 56.5028 46.1338C55.8288 46.7812 54.928 47.1391 53.9935 47.1306ZM35.2609 2.43251C34.7063 2.42138 34.1693 2.62774 33.765 3.00745C33.3606 3.38715 33.1208 3.91004 33.0971 4.46424V43.6665C33.1208 44.2207 33.3606 44.7436 33.765 45.1233C34.1693 45.503 34.7063 45.7094 35.2609 45.6983H53.9935C54.5481 45.7094 55.085 45.503 55.4894 45.1233C55.8938 44.7436 56.1335 44.2207 56.1572 43.6665V4.52519C56.1335 3.97099 55.8938 3.44811 55.4894 3.0684C55.085 2.6887 54.5481 2.48233 53.9935 2.49346L35.2609 2.43251Z" stroke="url(#paint8_linear_896_13011)" stroke-width="0.1" stroke-miterlimit="10"/>
<path d="M48.6095 5.87634H40.6451C40.142 5.83728 39.6742 5.60275 39.3419 5.22299C39.0096 4.84323 38.8392 4.34844 38.8673 3.8446V2.45287H40.2997V3.82429C40.2997 4.17984 40.513 4.44397 40.6451 4.44397H48.6095C48.7415 4.44397 48.9549 4.19 48.9549 3.82429V2.45287H50.3872V3.82429C50.4208 4.33151 50.253 4.83152 49.9201 5.21572C49.5873 5.59993 49.1163 5.83732 48.6095 5.87634Z" stroke="url(#paint9_linear_896_13011)" stroke-width="0.1" stroke-miterlimit="10"/>
<path d="M1.52401 70.323H3.80971V76.4182H2.28591C2.08391 76.4184 1.89025 76.4988 1.7475 76.6417C1.6042 76.7863 1.5238 76.9816 1.5238 77.1852C1.5238 77.3887 1.6042 77.5841 1.7475 77.7287C1.81868 77.7981 1.90292 77.8526 1.99534 77.8893C2.08776 77.9259 2.18652 77.9438 2.28591 77.942H20.5715C20.6709 77.9438 20.7697 77.9259 20.8621 77.8893C20.9545 77.8526 21.0387 77.7981 21.1099 77.7287C21.2532 77.5841 21.3336 77.3887 21.3336 77.1852C21.3336 76.9816 21.2532 76.7863 21.1099 76.6417C20.9672 76.4988 20.7735 76.4184 20.5715 76.4182H19.0477V70.323H21.3334C21.4984 70.3237 21.659 70.2702 21.7906 70.1706C21.9214 70.0707 22.0174 69.9321 22.0648 69.7744C22.1154 69.6158 22.1154 69.4454 22.0648 69.2868C22.0114 69.1317 21.903 69.0016 21.7601 68.9211L11.8554 62.8259C11.7377 62.7493 11.5995 62.7103 11.4592 62.7142C11.3156 62.7101 11.1741 62.749 11.0528 62.8259L1.14814 68.9211C1.00809 69.005 0.900651 69.1339 0.843381 69.2868C0.787606 69.4446 0.787606 69.6167 0.843381 69.7744C0.883278 69.9329 0.976552 70.0728 1.10751 70.1706C1.22816 70.2616 1.37314 70.3146 1.52401 70.323ZM5.33351 70.323H8.38111V76.4182H5.33351V70.323ZM12.9525 70.323V76.4182H9.90491V70.323H12.9525ZM17.5239 76.4182H14.4763V70.323H17.5239V76.4182ZM11.4287 64.37L18.6414 68.7992H4.21606L11.4287 64.37ZM22.8572 80.2379C22.8554 80.4425 22.7754 80.6388 22.6337 80.7864C22.5625 80.8558 22.4783 80.9104 22.3859 80.947C22.2935 80.9836 22.1947 81.0016 22.0953 80.9998H0.762111C0.66272 81.0016 0.563957 80.9836 0.471539 80.947C0.379121 80.9104 0.294885 80.8558 0.223703 80.7864C0.0804004 80.6418 0 80.4465 0 80.2429C0 80.0394 0.0804004 79.844 0.223703 79.6994C0.36645 79.5565 0.560111 79.4761 0.762111 79.476H22.0953C22.2973 79.4761 22.491 79.5565 22.6337 79.6994C22.7731 79.8446 22.8528 80.0367 22.8572 80.2379Z" fill="url(#paint10_linear_896_13011)"/>
<path d="M34.7225 70.3231H37.0082V76.4183H35.4844C35.2824 76.4184 35.0887 76.4988 34.946 76.6417C34.8027 76.7863 34.7223 76.9817 34.7223 77.1852C34.7223 77.3888 34.8027 77.5841 34.946 77.7287C35.0172 77.7981 35.1014 77.8527 35.1938 77.8893C35.2862 77.9259 35.385 77.9439 35.4844 77.9421H53.77C53.8694 77.9439 53.9682 77.9259 54.0606 77.8893C54.153 77.8527 54.2372 77.7981 54.3084 77.7287C54.4517 77.5841 54.5321 77.3888 54.5321 77.1852C54.5321 76.9817 54.4517 76.7863 54.3084 76.6417C54.1657 76.4988 53.972 76.4184 53.77 76.4183H52.2462V70.3231H54.5319C54.6969 70.3238 54.8575 70.2702 54.989 70.1707C55.1219 70.0711 55.2186 69.9309 55.2644 69.7714C55.3102 69.6119 55.3027 69.4417 55.243 69.2869C55.1817 69.1333 55.0709 69.0045 54.9281 68.9212L45.0234 62.826C44.904 62.7533 44.767 62.7148 44.6272 62.7148C44.4874 62.7148 44.3504 62.7533 44.231 62.826L34.3263 68.9212C34.1835 69.0045 34.0727 69.1333 34.0114 69.2869C33.9517 69.4417 33.9442 69.6119 33.99 69.7714C34.0359 69.9309 34.1325 70.0711 34.2654 70.1707C34.3969 70.2702 34.5575 70.3238 34.7225 70.3231ZM38.532 70.3231H41.5796V76.4183H38.532V70.3231ZM46.151 70.3231V76.4183H43.1034V70.3231H46.151ZM50.7224 76.4183H47.6748V70.3231H50.7224V76.4183ZM44.6272 64.3701L51.8399 68.7992H37.4145L44.6272 64.3701ZM56.0557 80.2379C56.0539 80.4426 55.9739 80.6388 55.8322 80.7865C55.761 80.8559 55.6768 80.9105 55.5844 80.9471C55.492 80.9837 55.3932 81.0016 55.2938 80.9998H33.9606C33.8612 81.0016 33.7624 80.9837 33.67 80.9471C33.5776 80.9105 33.4934 80.8559 33.4222 80.7865C33.2789 80.6419 33.1985 80.4466 33.1985 80.243C33.1985 80.0394 33.2789 79.8441 33.4222 79.6995C33.5649 79.5566 33.7586 79.4762 33.9606 79.476H55.2938C55.4958 79.4762 55.6895 79.5566 55.8322 79.6995C55.9716 79.8446 56.0513 80.0368 56.0557 80.2379Z" fill="url(#paint11_linear_896_13011)"/>
<path d="M67.921 70.3232H70.2067V76.4184H68.6829C68.4809 76.4186 68.2872 76.499 68.1445 76.6419C68.0012 76.7865 67.9208 76.9818 67.9208 77.1854C67.9208 77.3889 68.0012 77.5843 68.1445 77.7289C68.2157 77.7982 68.2999 77.8528 68.3923 77.8895C68.4847 77.9261 68.5835 77.944 68.6829 77.9422H86.9685C87.0679 77.944 87.1666 77.9261 87.2591 77.8895C87.3515 77.8528 87.4357 77.7982 87.5069 77.7289C87.6502 77.5843 87.7306 77.3889 87.7306 77.1854C87.7306 76.9818 87.6502 76.7865 87.5069 76.6419C87.3641 76.499 87.1705 76.4186 86.9685 76.4184H85.4447V70.3232H87.7304C87.8517 70.322 87.9709 70.292 88.0782 70.2354C88.1855 70.1789 88.2778 70.0976 88.3474 69.9982C88.4169 69.8989 88.4617 69.7844 88.4781 69.6642C88.4945 69.544 88.4819 69.4217 88.4415 69.3073C88.381 69.1564 88.2743 69.0284 88.1367 68.9416L78.232 62.8464C78.1107 62.7695 77.9692 62.7306 77.8257 62.7347C77.6853 62.7308 77.5471 62.7698 77.4295 62.8464L67.5248 68.9416C67.382 69.025 67.2711 69.1537 67.2099 69.3073C67.1642 69.4666 67.1642 69.6356 67.2099 69.7949C67.2573 69.9526 67.3533 70.0912 67.4842 70.1911C67.6126 70.2793 67.7652 70.3255 67.921 70.3232ZM71.7305 70.3232H74.7781V76.4184H71.7305V70.3232ZM79.3495 70.3232V76.4184H76.3019V70.3232H79.3495ZM83.9209 76.4184H80.8733V70.3232H83.9209V76.4184ZM77.8257 64.3702L85.0383 68.7994H70.613L77.8257 64.3702ZM89.2542 80.238C89.2524 80.4427 89.1724 80.639 89.0307 80.7866C88.9595 80.856 88.8753 80.9106 88.7829 80.9472C88.6904 80.9838 88.5917 81.0018 88.4923 81H67.1591C67.0597 81.0018 66.9609 80.9838 66.8685 80.9472C66.7761 80.9106 66.6919 80.856 66.6207 80.7866C66.4774 80.642 66.397 80.4467 66.397 80.2431C66.397 80.0396 66.4774 79.8442 66.6207 79.6996C66.7634 79.5567 66.9571 79.4763 67.1591 79.4761H88.4923C88.6943 79.4763 88.8879 79.5567 89.0307 79.6996C89.17 79.8448 89.2498 80.0369 89.2542 80.238Z" fill="url(#paint12_linear_896_13011)"/>
<path d="M14.1004 39.3369C14.1004 42.8439 13.7666 45.6931 13.3554 45.6931C12.9443 45.6931 12.6008 42.8439 12.6008 39.3369C12.6008 35.8298 12.9491 33 13.3554 33C13.7618 33 14.1004 35.825 14.1004 39.3369Z" fill="url(#paint13_radial_896_13011)"/>
<path d="M13.3563 40.0721C9.84922 40.0721 7.00005 39.7383 7.00005 39.3271C7.00005 38.916 9.84922 38.5725 13.3563 38.5725C16.8633 38.5725 19.6931 38.9208 19.6931 39.3271C19.6931 39.7335 16.8681 40.0721 13.3563 40.0721Z" fill="url(#paint14_radial_896_13011)"/>
<path d="M80.1004 63.3369C80.1004 66.8439 79.7666 69.6931 79.3554 69.6931C78.9443 69.6931 78.6008 66.8439 78.6008 63.3369C78.6008 59.8298 78.9491 57 79.3554 57C79.7618 57 80.1004 59.825 80.1004 63.3369Z" fill="url(#paint15_radial_896_13011)"/>
<path d="M79.3563 64.0721C75.8492 64.0721 73 63.7383 73 63.3271C73 62.916 75.8492 62.5725 79.3563 62.5725C82.8633 62.5725 85.6931 62.9208 85.6931 63.3271C85.6931 63.7335 82.8681 64.0721 79.3563 64.0721Z" fill="url(#paint16_radial_896_13011)"/>
<defs>
<linearGradient id="paint0_linear_896_13011" x1="11.6116" y1="62.5766" x2="2.1897" y2="44.951" gradientUnits="userSpaceOnUse">
<stop stop-color="#F0EFEF" stop-opacity="0.19"/>
<stop offset="0.517637" stop-color="#FAFBFC" stop-opacity="0.3"/>
<stop offset="0.677812" stop-color="white" stop-opacity="0.3"/>
<stop offset="1" stop-color="white" stop-opacity="0.44"/>
</linearGradient>
<linearGradient id="paint1_linear_896_13011" x1="57.1428" y1="62.3299" x2="48.1171" y2="44.7183" gradientUnits="userSpaceOnUse">
<stop stop-color="#F0EFEF" stop-opacity="0.19"/>
<stop offset="0.517637" stop-color="#FAFBFC" stop-opacity="0.3"/>
<stop offset="0.677812" stop-color="white" stop-opacity="0.3"/>
<stop offset="1" stop-color="white" stop-opacity="0.44"/>
</linearGradient>
<linearGradient id="paint2_linear_896_13011" x1="44.6272" y1="62.4602" x2="42.5818" y2="62.1697" gradientUnits="userSpaceOnUse">
<stop stop-color="#F0EFEF" stop-opacity="0.19"/>
<stop offset="0.517637" stop-color="#FAFBFC" stop-opacity="0.3"/>
<stop offset="0.677812" stop-color="white" stop-opacity="0.3"/>
<stop offset="1" stop-color="white" stop-opacity="0.44"/>
</linearGradient>
<linearGradient id="paint3_linear_896_13011" x1="38.0276" y1="26.3928" x2="52.2424" y2="26.3928" gradientUnits="userSpaceOnUse">
<stop stop-color="#79A540"/>
<stop offset="0.2" stop-color="#94C63D"/>
<stop offset="0.39" stop-color="#98CA3C"/>
<stop offset="0.59" stop-color="#93C53E"/>
<stop offset="0.74" stop-color="#9DCB3B"/>
<stop offset="0.9" stop-color="#A6CE39"/>
<stop offset="1" stop-color="#A6CE39"/>
</linearGradient>
<linearGradient id="paint4_linear_896_13011" x1="37.9315" y1="26.3928" x2="52.3385" y2="26.3928" gradientUnits="userSpaceOnUse">
<stop stop-color="white" stop-opacity="0.9"/>
<stop offset="0.28" stop-color="white" stop-opacity="0.5"/>
<stop offset="0.65" stop-color="#FAFBFC" stop-opacity="0.4"/>
<stop offset="1" stop-color="#F0EFEF" stop-opacity="0.3"/>
</linearGradient>
<linearGradient id="paint5_linear_896_13011" x1="37.9315" y1="26.3928" x2="52.3385" y2="26.3928" gradientUnits="userSpaceOnUse">
<stop stop-color="white" stop-opacity="0.9"/>
<stop offset="0.28" stop-color="white" stop-opacity="0.5"/>
<stop offset="0.65" stop-color="#FAFBFC" stop-opacity="0.4"/>
<stop offset="1" stop-color="#F0EFEF" stop-opacity="0.3"/>
</linearGradient>
<linearGradient id="paint6_linear_896_13011" x1="44.6272" y1="47.1306" x2="44.6272" y2="1.01029" gradientUnits="userSpaceOnUse">
<stop stop-color="#79A540"/>
<stop offset="0.2" stop-color="#94C63D"/>
<stop offset="0.39" stop-color="#98CA3C"/>
<stop offset="0.59" stop-color="#93C53E"/>
<stop offset="0.74" stop-color="#9DCB3B"/>
<stop offset="0.9" stop-color="#A6CE39"/>
<stop offset="1" stop-color="#A6CE39"/>
</linearGradient>
<linearGradient id="paint7_linear_896_13011" x1="44.6258" y1="47.1308" x2="44.6258" y2="1" gradientUnits="userSpaceOnUse">
<stop stop-color="#79A540"/>
<stop offset="0.2" stop-color="#94C63D"/>
<stop offset="0.39" stop-color="#98CA3C"/>
<stop offset="0.59" stop-color="#93C53E"/>
<stop offset="0.74" stop-color="#9DCB3B"/>
<stop offset="0.9" stop-color="#A6CE39"/>
<stop offset="1" stop-color="#A6CE39"/>
</linearGradient>
<linearGradient id="paint8_linear_896_13011" x1="44.6273" y1="5.92713" x2="44.6273" y2="2.40207" gradientUnits="userSpaceOnUse">
<stop stop-color="white" stop-opacity="0.9"/>
<stop offset="0.28" stop-color="white" stop-opacity="0.5"/>
<stop offset="0.65" stop-color="#FAFBFC" stop-opacity="0.4"/>
<stop offset="1" stop-color="#F0EFEF" stop-opacity="0.3"/>
</linearGradient>
<linearGradient id="paint9_linear_896_13011" x1="44.6273" y1="5.92713" x2="44.6273" y2="2.40207" gradientUnits="userSpaceOnUse">
<stop stop-color="white" stop-opacity="0.9"/>
<stop offset="0.28" stop-color="white" stop-opacity="0.5"/>
<stop offset="0.65" stop-color="#FAFBFC" stop-opacity="0.4"/>
<stop offset="1" stop-color="#F0EFEF" stop-opacity="0.3"/>
</linearGradient>
<linearGradient id="paint10_linear_896_13011" x1="17.8522" y1="80.145" x2="6.97596" y2="60.6017" gradientUnits="userSpaceOnUse">
<stop stop-color="white" stop-opacity="0.7"/>
<stop offset="0.322188" stop-color="white" stop-opacity="0.3"/>
<stop offset="0.482363" stop-color="#FAFBFC" stop-opacity="0.3"/>
<stop offset="1" stop-color="#F0EFEF" stop-opacity="0"/>
</linearGradient>
<linearGradient id="paint11_linear_896_13011" x1="51.0507" y1="80.1451" x2="40.1753" y2="60.6023" gradientUnits="userSpaceOnUse">
<stop stop-color="white" stop-opacity="0.7"/>
<stop offset="0.322188" stop-color="white" stop-opacity="0.3"/>
<stop offset="0.482363" stop-color="#FAFBFC" stop-opacity="0.3"/>
<stop offset="1" stop-color="#F0EFEF" stop-opacity="0"/>
</linearGradient>
<linearGradient id="paint12_linear_896_13011" x1="84.2492" y1="80.1462" x2="73.3914" y2="60.6143" gradientUnits="userSpaceOnUse">
<stop stop-color="white" stop-opacity="0.7"/>
<stop offset="0.322188" stop-color="white" stop-opacity="0.3"/>
<stop offset="0.482363" stop-color="#FAFBFC" stop-opacity="0.3"/>
<stop offset="1" stop-color="#F0EFEF" stop-opacity="0"/>
</linearGradient>
<radialGradient id="paint13_radial_896_13011" cx="0" cy="0" r="1" gradientUnits="userSpaceOnUse" gradientTransform="translate(13.2363 39.8005) scale(0.741847 6.36066)">
<stop stop-color="white"/>
<stop offset="0.07" stop-color="white" stop-opacity="0.93"/>
<stop offset="1" stop-color="white" stop-opacity="0"/>
</radialGradient>
<radialGradient id="paint14_radial_896_13011" cx="0" cy="0" r="1" gradientUnits="userSpaceOnUse" gradientTransform="translate(12.8926 39.2079) rotate(90) scale(0.741848 6.36066)">
<stop stop-color="white"/>
<stop offset="0.07" stop-color="white" stop-opacity="0.93"/>
<stop offset="1" stop-color="white" stop-opacity="0"/>
</radialGradient>
<radialGradient id="paint15_radial_896_13011" cx="0" cy="0" r="1" gradientUnits="userSpaceOnUse" gradientTransform="translate(79.2363 63.8005) scale(0.741847 6.36066)">
<stop stop-color="white"/>
<stop offset="0.07" stop-color="white" stop-opacity="0.93"/>
<stop offset="1" stop-color="white" stop-opacity="0"/>
</radialGradient>
<radialGradient id="paint16_radial_896_13011" cx="0" cy="0" r="1" gradientUnits="userSpaceOnUse" gradientTransform="translate(78.8926 63.2079) rotate(90) scale(0.741848 6.36066)">
<stop stop-color="white"/>
<stop offset="0.07" stop-color="white" stop-opacity="0.93"/>
<stop offset="1" stop-color="white" stop-opacity="0"/>
</radialGradient>
</defs>
</svg>
