<svg width="70" height="81" viewBox="0 0 70 81" fill="none" xmlns="http://www.w3.org/2000/svg">
<path d="M41.1751 58.7102C41.3914 58.9265 41.5629 59.1833 41.68 59.4659C41.797 59.7485 41.8573 60.0513 41.8573 60.3572C41.8573 60.6631 41.797 60.966 41.68 61.2486C41.5629 61.5312 41.3914 61.7879 41.1751 62.0042C40.9588 62.2205 40.702 62.3921 40.4194 62.5091C40.1368 62.6262 39.834 62.6864 39.5281 62.6864C39.2222 62.6864 38.9193 62.6262 38.6367 62.5091C38.3541 62.3921 38.0974 62.2205 37.8811 62.0042L30.1182 54.2413C29.9823 54.1052 29.8626 53.9538 29.7615 53.7902C29.5494 53.4273 29.4372 53.0147 29.4363 52.5943C29.4356 52.2884 29.4956 51.9853 29.6126 51.7027C29.7296 51.42 29.9015 51.1633 30.1182 50.9473L37.8811 43.1739C38.0974 42.9576 38.3541 42.7861 38.6367 42.669C38.9193 42.5519 39.2222 42.4917 39.5281 42.4917C39.834 42.4917 40.1368 42.5519 40.4194 42.669C40.702 42.7861 40.9588 42.9576 41.1751 43.1739C41.3914 43.3902 41.5629 43.647 41.68 43.9296C41.797 44.2121 41.8573 44.515 41.8573 44.8209C41.8573 45.1268 41.797 45.4297 41.68 45.7123C41.5629 45.9948 41.3914 46.2516 41.1751 46.4679L37.388 50.3179H58.7465L54.9595 46.5204C54.5227 46.0835 54.2773 45.4911 54.2773 44.8734C54.2773 44.2556 54.5227 43.6632 54.9595 43.2264C55.3963 42.7896 55.9887 42.5442 56.6065 42.5442C57.2242 42.5442 57.8167 42.7896 58.2535 43.2264L66.0269 50.9998C66.4607 51.4385 66.7055 52.0297 66.7088 52.6468C66.7086 52.9535 66.6473 53.2572 66.5284 53.54C66.4095 53.8228 66.2355 54.079 66.0164 54.2938L58.2535 62.0567C57.8097 62.4935 57.2106 62.7361 56.5879 62.7312C55.9653 62.7263 55.3701 62.4742 54.9333 62.0304C54.4965 61.5867 54.2538 60.9876 54.2587 60.3649C54.2637 59.7422 54.5157 59.147 54.9595 58.7102L58.7465 54.9442H37.388L41.1751 58.7102Z" fill="url(#paint0_linear_883_12529)"/>
<path d="M41.1751 58.7102C41.3914 58.9265 41.5629 59.1833 41.68 59.4659C41.797 59.7485 41.8573 60.0513 41.8573 60.3572C41.8573 60.6631 41.797 60.966 41.68 61.2486C41.5629 61.5312 41.3914 61.7879 41.1751 62.0042C40.9588 62.2205 40.702 62.3921 40.4194 62.5091C40.1368 62.6262 39.834 62.6864 39.5281 62.6864C39.2222 62.6864 38.9193 62.6262 38.6367 62.5091C38.3541 62.3921 38.0974 62.2205 37.8811 62.0042L30.1182 54.2413C29.9823 54.1052 29.8626 53.9538 29.7615 53.7902C29.5494 53.4273 29.4372 53.0147 29.4363 52.5943C29.4356 52.2884 29.4956 51.9853 29.6126 51.7027C29.7296 51.42 29.9015 51.1633 30.1182 50.9473L37.8811 43.1739C38.0974 42.9576 38.3541 42.7861 38.6367 42.669C38.9193 42.5519 39.2222 42.4917 39.5281 42.4917C39.834 42.4917 40.1368 42.5519 40.4194 42.669C40.702 42.7861 40.9588 42.9576 41.1751 43.1739C41.3914 43.3902 41.5629 43.647 41.68 43.9296C41.797 44.2121 41.8573 44.515 41.8573 44.8209C41.8573 45.1268 41.797 45.4297 41.68 45.7123C41.5629 45.9948 41.3914 46.2516 41.1751 46.4679L37.388 50.3179H58.7465L54.9595 46.5204C54.5227 46.0835 54.2773 45.4911 54.2773 44.8734C54.2773 44.2556 54.5227 43.6632 54.9595 43.2264C55.3963 42.7896 55.9887 42.5442 56.6065 42.5442C57.2242 42.5442 57.8167 42.7896 58.2535 43.2264L66.0269 50.9998C66.4607 51.4385 66.7055 52.0297 66.7088 52.6468C66.7086 52.9535 66.6473 53.2572 66.5284 53.54C66.4095 53.8228 66.2355 54.079 66.0164 54.2938L58.2535 62.0567C57.8097 62.4935 57.2106 62.7361 56.5879 62.7312C55.9653 62.7263 55.3701 62.4742 54.9333 62.0304C54.4965 61.5867 54.2538 60.9876 54.2587 60.3649C54.2637 59.7422 54.5157 59.147 54.9595 58.7102L58.7465 54.9442H37.388L41.1751 58.7102Z" stroke="url(#paint1_linear_883_12529)" stroke-width="0.33" stroke-miterlimit="10"/>
<path d="M41.1751 58.7102C41.3914 58.9265 41.5629 59.1833 41.68 59.4659C41.797 59.7485 41.8573 60.0513 41.8573 60.3572C41.8573 60.6631 41.797 60.966 41.68 61.2486C41.5629 61.5312 41.3914 61.7879 41.1751 62.0042C40.9588 62.2205 40.702 62.3921 40.4194 62.5091C40.1368 62.6262 39.834 62.6864 39.5281 62.6864C39.2222 62.6864 38.9193 62.6262 38.6367 62.5091C38.3541 62.3921 38.0974 62.2205 37.8811 62.0042L30.1182 54.2413C29.9823 54.1052 29.8626 53.9538 29.7615 53.7902C29.5494 53.4273 29.4372 53.0147 29.4363 52.5943C29.4356 52.2884 29.4956 51.9853 29.6126 51.7027C29.7296 51.42 29.9015 51.1633 30.1182 50.9473L37.8811 43.1739C38.0974 42.9576 38.3541 42.7861 38.6367 42.669C38.9193 42.5519 39.2222 42.4917 39.5281 42.4917C39.834 42.4917 40.1368 42.5519 40.4194 42.669C40.702 42.7861 40.9588 42.9576 41.1751 43.1739C41.3914 43.3902 41.5629 43.647 41.68 43.9296C41.797 44.2121 41.8573 44.515 41.8573 44.8209C41.8573 45.1268 41.797 45.4297 41.68 45.7123C41.5629 45.9948 41.3914 46.2516 41.1751 46.4679L37.388 50.3179H58.7465L54.9595 46.5204C54.5227 46.0835 54.2773 45.4911 54.2773 44.8734C54.2773 44.2556 54.5227 43.6632 54.9595 43.2264C55.3963 42.7896 55.9887 42.5442 56.6065 42.5442C57.2242 42.5442 57.8167 42.7896 58.2535 43.2264L66.0269 50.9998C66.4607 51.4385 66.7055 52.0297 66.7088 52.6468C66.7086 52.9535 66.6473 53.2572 66.5284 53.54C66.4095 53.8228 66.2355 54.079 66.0164 54.2938L58.2535 62.0567C57.8097 62.4935 57.2106 62.7361 56.5879 62.7312C55.9653 62.7263 55.3701 62.4742 54.9333 62.0304C54.4965 61.5867 54.2538 60.9876 54.2587 60.3649C54.2637 59.7422 54.5157 59.147 54.9595 58.7102L58.7465 54.9442H37.388L41.1751 58.7102Z" stroke="url(#paint2_linear_883_12529)" stroke-width="0.33" stroke-miterlimit="10"/>
<path d="M41.6678 39.5546C41.3242 38.2236 40.5486 37.0442 39.4627 36.2013C38.3768 35.3584 37.0419 34.8996 35.6673 34.8968H7.22776C5.66466 35.0158 4.20409 35.7205 3.13823 36.87C2.07236 38.0195 1.47977 39.529 1.479 41.0967V46.4678C1.99303 56.7694 13.2178 59.7591 21.6731 59.7591C24.5031 59.7578 27.3221 59.4055 30.0654 58.7101L27.9673 56.612C27.4201 56.0636 26.9947 55.4058 26.719 54.6818C25.3897 54.8992 24.0475 55.0289 22.7011 55.0699H20.687C17.1748 55.0444 13.7114 54.2457 10.5427 52.7306C7.54247 51.115 6.13675 48.9016 6.13675 45.7649V40.7924C6.20116 40.4958 6.3489 40.2237 6.5626 40.0082C6.7763 39.7926 7.04709 39.6425 7.34315 39.5756L41.6678 39.5546Z" fill="url(#paint3_linear_883_12529)"/>
<path d="M41.6678 39.5546C41.3242 38.2236 40.5486 37.0442 39.4627 36.2013C38.3768 35.3584 37.0419 34.8996 35.6673 34.8968H7.22776C5.66466 35.0158 4.20409 35.7205 3.13823 36.87C2.07236 38.0195 1.47977 39.529 1.479 41.0967V46.4678C1.99303 56.7694 13.2178 59.7591 21.6731 59.7591C24.5031 59.7578 27.3221 59.4055 30.0654 58.7101L27.9673 56.612C27.4201 56.0636 26.9947 55.4058 26.719 54.6818C25.3897 54.8992 24.0475 55.0289 22.7011 55.0699H20.687C17.1748 55.0444 13.7114 54.2457 10.5427 52.7306C7.54247 51.115 6.13675 48.9016 6.13675 45.7649V40.7924C6.20116 40.4958 6.3489 40.2237 6.5626 40.0082C6.7763 39.7926 7.04709 39.6425 7.34315 39.5756L41.6678 39.5546Z" fill="url(#paint4_linear_883_12529)"/>
<path d="M63.6033 44.2123V44.3067L60.4562 41.1596C59.8389 40.5458 59.0835 40.0889 58.2532 39.8273C58.0743 39.7107 57.875 39.6288 57.6657 39.586H44.794C44.542 38.0541 43.9069 36.6106 42.9477 35.3899L42.528 34.8968H57.3825C58.9501 34.8976 60.4596 35.4902 61.6091 36.556C62.7586 37.6219 63.4634 39.0825 63.5823 40.6456V41.1072L63.6033 44.2123Z" fill="url(#paint5_linear_883_12529)"/>
<path d="M63.6033 44.2123V44.3067L60.4562 41.1596C59.8389 40.5458 59.0835 40.0889 58.2532 39.8273C58.0743 39.7107 57.875 39.6288 57.6657 39.586H44.794C44.542 38.0541 43.9069 36.6106 42.9477 35.3899L42.528 34.8968H57.3825C58.9501 34.8976 60.4596 35.4902 61.6091 36.556C62.7586 37.6219 63.4634 39.0825 63.5823 40.6456V41.1072L63.6033 44.2123Z" fill="url(#paint6_linear_883_12529)"/>
<path d="M35.6674 14.7027C35.6653 11.9404 34.8446 9.24071 33.3089 6.94466C31.7731 4.64861 29.5913 2.85925 27.0391 1.80264C24.4868 0.746032 21.6787 0.469588 18.9694 1.00823C16.2601 1.54688 13.7713 2.87645 11.8173 4.82896C9.86332 6.78147 8.53189 9.26933 7.99121 11.9782C7.45053 14.6871 7.72487 17.4954 8.77957 20.0485C9.83426 22.6015 11.622 24.7846 13.9169 26.3221C16.2118 27.8595 18.9109 28.6823 21.6732 28.6865C23.5104 28.6879 25.33 28.3272 27.0278 27.625C28.7255 26.9229 30.2683 25.8931 31.568 24.5944C32.8676 23.2958 33.8986 21.7538 34.602 20.0565C35.3054 18.3592 35.6674 16.54 35.6674 14.7027ZM12.3787 14.7027C12.3807 12.8608 12.9289 11.0607 13.9537 9.53019C14.9786 7.99964 16.4342 6.80728 18.1365 6.10382C19.8389 5.40036 21.7116 5.21738 23.518 5.57801C25.3243 5.93863 26.9832 6.82667 28.2849 8.12988C29.5867 9.4331 30.4728 11.093 30.8314 12.8997C31.19 14.7065 31.0049 16.579 30.2996 18.2805C29.5942 19.9821 28.4002 21.4364 26.8685 22.4595C25.3368 23.4826 23.5362 24.0287 21.6942 24.0287C20.4686 24.0301 19.2547 23.7899 18.122 23.3218C16.9894 22.8538 15.96 22.1671 15.0929 21.3009C14.2258 20.4348 13.5379 19.4062 13.0686 18.2741C12.5993 17.1419 12.3577 15.9283 12.3577 14.7027H12.3787Z" fill="url(#paint7_linear_883_12529)"/>
<path d="M35.6674 14.7027C35.6653 11.9404 34.8446 9.24071 33.3089 6.94466C31.7731 4.64861 29.5913 2.85925 27.0391 1.80264C24.4868 0.746032 21.6787 0.469588 18.9694 1.00823C16.2601 1.54688 13.7713 2.87645 11.8173 4.82896C9.86332 6.78147 8.53189 9.26933 7.99121 11.9782C7.45053 14.6871 7.72487 17.4954 8.77957 20.0485C9.83426 22.6015 11.622 24.7846 13.9169 26.3221C16.2118 27.8595 18.9109 28.6823 21.6732 28.6865C23.5104 28.6879 25.33 28.3272 27.0278 27.625C28.7255 26.9229 30.2683 25.8931 31.568 24.5944C32.8676 23.2958 33.8986 21.7538 34.602 20.0565C35.3054 18.3592 35.6674 16.54 35.6674 14.7027ZM12.3787 14.7027C12.3807 12.8608 12.9289 11.0607 13.9537 9.53019C14.9786 7.99964 16.4342 6.80728 18.1365 6.10382C19.8389 5.40036 21.7116 5.21738 23.518 5.57801C25.3243 5.93863 26.9832 6.82667 28.2849 8.12988C29.5867 9.4331 30.4728 11.093 30.8314 12.8997C31.19 14.7065 31.0049 16.579 30.2996 18.2805C29.5942 19.9821 28.4002 21.4364 26.8685 22.4595C25.3368 23.4826 23.5362 24.0287 21.6942 24.0287C20.4686 24.0301 19.2547 23.7899 18.122 23.3218C16.9894 22.8538 15.96 22.1671 15.0929 21.3009C14.2258 20.4348 13.5379 19.4062 13.0686 18.2741C12.5993 17.1419 12.3577 15.9283 12.3577 14.7027H12.3787Z" fill="url(#paint8_linear_883_12529)"/>
<path d="M60.4981 17.7973C60.496 15.6462 59.8562 13.544 58.6596 11.7564C57.463 9.96878 55.7633 8.57608 53.7753 7.75432C51.7873 6.93255 49.6003 6.71862 47.4908 7.13955C45.3812 7.56049 43.4438 8.5974 41.9235 10.1192C40.4031 11.641 39.3681 13.5794 38.9492 15.6894C38.5303 17.7993 38.7463 19.9861 39.57 21.9733C40.3937 23.9605 41.788 25.6589 43.5768 26.8537C45.3655 28.0486 47.4684 28.6864 49.6195 28.6864C51.0494 28.6878 52.4655 28.407 53.7866 27.8601C55.1078 27.3132 56.308 26.5111 57.3186 25.4995C58.3292 24.4879 59.1302 23.2869 59.6758 21.9652C60.2214 20.6435 60.5008 19.2272 60.4981 17.7973ZM43.4092 17.7973C43.4112 16.5695 43.7772 15.3698 44.4609 14.3499C45.1446 13.33 46.1152 12.5357 47.2502 12.0672C48.3851 11.5988 49.6335 11.4773 50.8375 11.7181C52.0415 11.9589 53.1471 12.5512 54.0146 13.4202C54.882 14.2891 55.4725 15.3957 55.7113 16.6001C55.95 17.8045 55.8264 19.0526 55.3561 20.1868C54.8857 21.321 54.0897 22.2903 53.0687 22.9722C52.0476 23.6542 50.8473 24.0181 49.6195 24.0181C47.9715 24.0154 46.3919 23.3587 45.2275 22.1924C44.0631 21.0261 43.4092 19.4454 43.4092 17.7973Z" fill="url(#paint9_linear_883_12529)"/>
<path d="M60.4981 17.7973C60.496 15.6462 59.8562 13.544 58.6596 11.7564C57.463 9.96878 55.7633 8.57608 53.7753 7.75432C51.7873 6.93255 49.6003 6.71862 47.4908 7.13955C45.3812 7.56049 43.4438 8.5974 41.9235 10.1192C40.4031 11.641 39.3681 13.5794 38.9492 15.6894C38.5303 17.7993 38.7463 19.9861 39.57 21.9733C40.3937 23.9605 41.788 25.6589 43.5768 26.8537C45.3655 28.0486 47.4684 28.6864 49.6195 28.6864C51.0494 28.6878 52.4655 28.407 53.7866 27.8601C55.1078 27.3132 56.308 26.5111 57.3186 25.4995C58.3292 24.4879 59.1302 23.2869 59.6758 21.9652C60.2214 20.6435 60.5008 19.2272 60.4981 17.7973ZM43.4092 17.7973C43.4112 16.5695 43.7772 15.3698 44.4609 14.3499C45.1446 13.33 46.1152 12.5357 47.2502 12.0672C48.3851 11.5988 49.6335 11.4773 50.8375 11.7181C52.0415 11.9589 53.1471 12.5512 54.0146 13.4202C54.882 14.2891 55.4725 15.3957 55.7113 16.6001C55.95 17.8045 55.8264 19.0526 55.3561 20.1868C54.8857 21.321 54.0897 22.2903 53.0687 22.9722C52.0476 23.6542 50.8473 24.0181 49.6195 24.0181C47.9715 24.0154 46.3919 23.3587 45.2275 22.1924C44.0631 21.0261 43.4092 19.4454 43.4092 17.7973Z" fill="url(#paint10_linear_883_12529)"/>
<path d="M41.6678 39.5546C41.3242 38.2236 40.5486 37.0442 39.4627 36.2013C38.3768 35.3584 37.0419 34.8996 35.6673 34.8968H7.22776C5.66466 35.0158 4.20409 35.7205 3.13823 36.87C2.07236 38.0195 1.47977 39.529 1.479 41.0967V46.4678C1.99303 56.7694 13.2178 59.7591 21.6731 59.7591C24.5031 59.7578 27.3221 59.4055 30.0654 58.7101L27.9673 56.612C27.4201 56.0636 26.9947 55.4058 26.719 54.6818C25.3897 54.8992 24.0475 55.0289 22.7011 55.0699H20.687C17.1748 55.0444 13.7114 54.2457 10.5427 52.7306C7.54247 51.115 6.13675 48.9016 6.13675 45.7649V40.7924C6.20116 40.4958 6.3489 40.2237 6.5626 40.0082C6.7763 39.7926 7.04709 39.6425 7.34315 39.5756L41.6678 39.5546Z" stroke="url(#paint11_linear_883_12529)" stroke-width="0.25" stroke-miterlimit="10"/>
<path d="M41.6678 39.5546C41.3242 38.2236 40.5486 37.0442 39.4627 36.2013C38.3768 35.3584 37.0419 34.8996 35.6673 34.8968H7.22776C5.66466 35.0158 4.20409 35.7205 3.13823 36.87C2.07236 38.0195 1.47977 39.529 1.479 41.0967V46.4678C1.99303 56.7694 13.2178 59.7591 21.6731 59.7591C24.5031 59.7578 27.3221 59.4055 30.0654 58.7101L27.9673 56.612C27.4201 56.0636 26.9947 55.4058 26.719 54.6818C25.3897 54.8992 24.0475 55.0289 22.7011 55.0699H20.687C17.1748 55.0444 13.7114 54.2457 10.5427 52.7306C7.54247 51.115 6.13675 48.9016 6.13675 45.7649V40.7924C6.20116 40.4958 6.3489 40.2237 6.5626 40.0082C6.7763 39.7926 7.04709 39.6425 7.34315 39.5756L41.6678 39.5546Z" stroke="url(#paint12_linear_883_12529)" stroke-width="0.25" stroke-miterlimit="10"/>
<path d="M63.6033 44.2123V44.3067L60.4562 41.1596C59.8389 40.5458 59.0835 40.0889 58.2532 39.8273C58.0743 39.7107 57.875 39.6288 57.6657 39.586H44.794C44.542 38.0541 43.9069 36.6106 42.9477 35.3899L42.528 34.8968H57.3825C58.9501 34.8976 60.4596 35.4902 61.6091 36.556C62.7586 37.6219 63.4634 39.0825 63.5823 40.6456V41.1072L63.6033 44.2123Z" stroke="url(#paint13_linear_883_12529)" stroke-width="0.25" stroke-miterlimit="10"/>
<path d="M63.6033 44.2123V44.3067L60.4562 41.1596C59.8389 40.5458 59.0835 40.0889 58.2532 39.8273C58.0743 39.7107 57.875 39.6288 57.6657 39.586H44.794C44.542 38.0541 43.9069 36.6106 42.9477 35.3899L42.528 34.8968H57.3825C58.9501 34.8976 60.4596 35.4902 61.6091 36.556C62.7586 37.6219 63.4634 39.0825 63.5823 40.6456V41.1072L63.6033 44.2123Z" stroke="url(#paint14_linear_883_12529)" stroke-width="0.25" stroke-miterlimit="10"/>
<path d="M35.6674 14.7027C35.6653 11.9404 34.8446 9.24071 33.3089 6.94466C31.7731 4.64861 29.5913 2.85925 27.0391 1.80264C24.4868 0.746032 21.6787 0.469588 18.9694 1.00823C16.2601 1.54688 13.7713 2.87645 11.8173 4.82896C9.86332 6.78147 8.53189 9.26933 7.99121 11.9782C7.45053 14.6871 7.72487 17.4954 8.77957 20.0485C9.83426 22.6015 11.622 24.7846 13.9169 26.3221C16.2118 27.8595 18.9109 28.6823 21.6732 28.6865C23.5104 28.6879 25.33 28.3272 27.0278 27.625C28.7255 26.9229 30.2683 25.8931 31.568 24.5944C32.8676 23.2958 33.8986 21.7538 34.602 20.0565C35.3054 18.3592 35.6674 16.54 35.6674 14.7027ZM12.3787 14.7027C12.3807 12.8608 12.9289 11.0607 13.9537 9.53019C14.9786 7.99964 16.4342 6.80728 18.1365 6.10382C19.8389 5.40036 21.7116 5.21738 23.518 5.57801C25.3243 5.93863 26.9832 6.82667 28.2849 8.12988C29.5867 9.4331 30.4728 11.093 30.8314 12.8997C31.19 14.7065 31.0049 16.579 30.2996 18.2805C29.5942 19.9821 28.4002 21.4364 26.8685 22.4595C25.3368 23.4826 23.5362 24.0287 21.6942 24.0287C20.4686 24.0301 19.2547 23.7899 18.122 23.3218C16.9894 22.8538 15.96 22.1671 15.0929 21.3009C14.2258 20.4348 13.5379 19.4062 13.0686 18.2741C12.5993 17.1419 12.3577 15.9283 12.3577 14.7027H12.3787Z" stroke="url(#paint15_linear_883_12529)" stroke-width="0.25" stroke-miterlimit="10"/>
<path d="M35.6674 14.7027C35.6653 11.9404 34.8446 9.24071 33.3089 6.94466C31.7731 4.64861 29.5913 2.85925 27.0391 1.80264C24.4868 0.746032 21.6787 0.469588 18.9694 1.00823C16.2601 1.54688 13.7713 2.87645 11.8173 4.82896C9.86332 6.78147 8.53189 9.26933 7.99121 11.9782C7.45053 14.6871 7.72487 17.4954 8.77957 20.0485C9.83426 22.6015 11.622 24.7846 13.9169 26.3221C16.2118 27.8595 18.9109 28.6823 21.6732 28.6865C23.5104 28.6879 25.33 28.3272 27.0278 27.625C28.7255 26.9229 30.2683 25.8931 31.568 24.5944C32.8676 23.2958 33.8986 21.7538 34.602 20.0565C35.3054 18.3592 35.6674 16.54 35.6674 14.7027ZM12.3787 14.7027C12.3807 12.8608 12.9289 11.0607 13.9537 9.53019C14.9786 7.99964 16.4342 6.80728 18.1365 6.10382C19.8389 5.40036 21.7116 5.21738 23.518 5.57801C25.3243 5.93863 26.9832 6.82667 28.2849 8.12988C29.5867 9.4331 30.4728 11.093 30.8314 12.8997C31.19 14.7065 31.0049 16.579 30.2996 18.2805C29.5942 19.9821 28.4002 21.4364 26.8685 22.4595C25.3368 23.4826 23.5362 24.0287 21.6942 24.0287C20.4686 24.0301 19.2547 23.7899 18.122 23.3218C16.9894 22.8538 15.96 22.1671 15.0929 21.3009C14.2258 20.4348 13.5379 19.4062 13.0686 18.2741C12.5993 17.1419 12.3577 15.9283 12.3577 14.7027H12.3787Z" stroke="url(#paint16_linear_883_12529)" stroke-width="0.25" stroke-miterlimit="10"/>
<path d="M60.4981 17.7973C60.496 15.6462 59.8562 13.544 58.6596 11.7564C57.463 9.96878 55.7633 8.57608 53.7753 7.75432C51.7873 6.93255 49.6003 6.71862 47.4908 7.13955C45.3812 7.56049 43.4438 8.5974 41.9235 10.1192C40.4031 11.641 39.3681 13.5794 38.9492 15.6894C38.5303 17.7993 38.7463 19.9861 39.57 21.9733C40.3937 23.9605 41.788 25.6589 43.5768 26.8537C45.3655 28.0486 47.4684 28.6864 49.6195 28.6864C51.0494 28.6878 52.4655 28.407 53.7866 27.8601C55.1078 27.3132 56.308 26.5111 57.3186 25.4995C58.3292 24.4879 59.1302 23.2869 59.6758 21.9652C60.2214 20.6435 60.5008 19.2272 60.4981 17.7973ZM43.4092 17.7973C43.4112 16.5695 43.7772 15.3698 44.4609 14.3499C45.1446 13.33 46.1152 12.5357 47.2502 12.0672C48.3851 11.5988 49.6335 11.4773 50.8375 11.7181C52.0415 11.9589 53.1471 12.5512 54.0146 13.4202C54.882 14.2891 55.4725 15.3957 55.7113 16.6001C55.95 17.8045 55.8264 19.0526 55.3561 20.1868C54.8857 21.321 54.0897 22.2903 53.0687 22.9722C52.0476 23.6542 50.8473 24.0181 49.6195 24.0181C47.9715 24.0154 46.3919 23.3587 45.2275 22.1924C44.0631 21.0261 43.4092 19.4454 43.4092 17.7973Z" stroke="url(#paint17_linear_883_12529)" stroke-width="0.25" stroke-miterlimit="10"/>
<path d="M60.4981 17.7973C60.496 15.6462 59.8562 13.544 58.6596 11.7564C57.463 9.96878 55.7633 8.57608 53.7753 7.75432C51.7873 6.93255 49.6003 6.71862 47.4908 7.13955C45.3812 7.56049 43.4438 8.5974 41.9235 10.1192C40.4031 11.641 39.3681 13.5794 38.9492 15.6894C38.5303 17.7993 38.7463 19.9861 39.57 21.9733C40.3937 23.9605 41.788 25.6589 43.5768 26.8537C45.3655 28.0486 47.4684 28.6864 49.6195 28.6864C51.0494 28.6878 52.4655 28.407 53.7866 27.8601C55.1078 27.3132 56.308 26.5111 57.3186 25.4995C58.3292 24.4879 59.1302 23.2869 59.6758 21.9652C60.2214 20.6435 60.5008 19.2272 60.4981 17.7973ZM43.4092 17.7973C43.4112 16.5695 43.7772 15.3698 44.4609 14.3499C45.1446 13.33 46.1152 12.5357 47.2502 12.0672C48.3851 11.5988 49.6335 11.4773 50.8375 11.7181C52.0415 11.9589 53.1471 12.5512 54.0146 13.4202C54.882 14.2891 55.4725 15.3957 55.7113 16.6001C55.95 17.8045 55.8264 19.0526 55.3561 20.1868C54.8857 21.321 54.0897 22.2903 53.0687 22.9722C52.0476 23.6542 50.8473 24.0181 49.6195 24.0181C47.9715 24.0154 46.3919 23.3587 45.2275 22.1924C44.0631 21.0261 43.4092 19.4454 43.4092 17.7973Z" stroke="url(#paint18_linear_883_12529)" stroke-width="0.25" stroke-miterlimit="10"/>
<path d="M4.88403 66.6321V70.8401C4.88403 70.9254 4.93203 70.9788 5.02803 71.0001C5.57203 71.0748 6.05736 71.1121 6.48403 71.1121C7.4227 71.1121 8.1427 70.9094 8.64403 70.5041C9.14536 70.0881 9.39603 69.4961 9.39603 68.7281C9.39603 67.9601 9.1507 67.3788 8.66003 66.9841C8.16936 66.5788 7.44403 66.3761 6.48403 66.3761C5.97203 66.3761 5.4867 66.4081 5.02803 66.4721C4.93203 66.4934 4.88403 66.5468 4.88403 66.6321ZM4.62803 76.5521C4.45736 76.7228 4.24936 76.8081 4.00403 76.8081C3.7587 76.8081 3.5507 76.7228 3.38003 76.5521C3.20936 76.3814 3.12403 76.1734 3.12403 75.9281V66.1201C3.12403 65.8641 3.20936 65.6348 3.38003 65.4321C3.5507 65.2294 3.76403 65.1174 4.02003 65.0961C4.9267 65.0108 5.80136 64.9681 6.64403 64.9681C8.11603 64.9681 9.2307 65.2828 9.98803 65.9121C10.7454 66.5308 11.124 67.4161 11.124 68.5681C11.124 71.1814 9.6307 72.4881 6.64403 72.4881C6.0147 72.4881 5.4707 72.4668 5.01203 72.4241C4.9267 72.4241 4.88403 72.4668 4.88403 72.5521V75.9281C4.88403 76.1734 4.7987 76.3814 4.62803 76.5521ZM14.6162 75.3201C14.6055 75.3308 14.6002 75.3414 14.6002 75.3521C14.6002 75.3628 14.6055 75.3681 14.6162 75.3681H18.8402C19.0428 75.3681 19.2135 75.4374 19.3522 75.5761C19.4908 75.7148 19.5602 75.8854 19.5602 76.0881C19.5602 76.2908 19.4908 76.4614 19.3522 76.6001C19.2135 76.7388 19.0428 76.8081 18.8402 76.8081H12.9202C12.7175 76.8081 12.5468 76.7388 12.4082 76.6001C12.2695 76.4614 12.2002 76.2908 12.2002 76.0881C12.2002 75.6188 12.3868 75.2294 12.7602 74.9201C14.7015 73.3521 16.0135 72.1094 16.6962 71.1921C17.3895 70.2641 17.7362 69.3628 17.7362 68.4881C17.7362 67.1228 17.0108 66.4401 15.5602 66.4401C14.8455 66.4401 14.0562 66.6268 13.1922 67.0001C13.0108 67.0748 12.8402 67.0641 12.6802 66.9681C12.5202 66.8721 12.4402 66.7281 12.4402 66.5361C12.4402 66.2694 12.5095 66.0294 12.6482 65.8161C12.7868 65.6028 12.9788 65.4588 13.2242 65.3841C14.0882 65.1068 14.9468 64.9681 15.8002 64.9681C16.9948 64.9681 17.9175 65.2668 18.5682 65.8641C19.2295 66.4508 19.5602 67.2721 19.5602 68.3281C19.5602 69.3841 19.2188 70.4134 18.5362 71.4161C17.8642 72.4081 16.5575 73.7094 14.6162 75.3201ZM23.1903 66.6321V70.8401C23.1903 70.9254 23.2383 70.9788 23.3343 71.0001C23.8783 71.0748 24.3636 71.1121 24.7903 71.1121C25.7289 71.1121 26.4489 70.9094 26.9503 70.5041C27.4516 70.0881 27.7023 69.4961 27.7023 68.7281C27.7023 67.9601 27.4569 67.3788 26.9663 66.9841C26.4756 66.5788 25.7503 66.3761 24.7903 66.3761C24.2783 66.3761 23.7929 66.4081 23.3343 66.4721C23.2383 66.4934 23.1903 66.5468 23.1903 66.6321ZM22.9343 76.5521C22.7636 76.7228 22.5556 76.8081 22.3103 76.8081C22.0649 76.8081 21.8569 76.7228 21.6863 76.5521C21.5156 76.3814 21.4303 76.1734 21.4303 75.9281V66.1201C21.4303 65.8641 21.5156 65.6348 21.6863 65.4321C21.8569 65.2294 22.0703 65.1174 22.3263 65.0961C23.2329 65.0108 24.1076 64.9681 24.9503 64.9681C26.4223 64.9681 27.5369 65.2828 28.2943 65.9121C29.0516 66.5308 29.4303 67.4161 29.4303 68.5681C29.4303 71.1814 27.9369 72.4881 24.9503 72.4881C24.3209 72.4881 23.7769 72.4668 23.3183 72.4241C23.2329 72.4241 23.1903 72.4668 23.1903 72.5521V75.9281C23.1903 76.1734 23.1049 76.3814 22.9343 76.5521ZM35.8559 66.6321V70.8401C35.8559 70.9254 35.9039 70.9788 35.9999 71.0001C36.5439 71.0748 37.0292 71.1121 37.4559 71.1121C38.3946 71.1121 39.1146 70.9094 39.6159 70.5041C40.1172 70.0881 40.3679 69.4961 40.3679 68.7281C40.3679 67.9601 40.1226 67.3788 39.6319 66.9841C39.1412 66.5788 38.4159 66.3761 37.4559 66.3761C36.9439 66.3761 36.4586 66.4081 35.9999 66.4721C35.9039 66.4934 35.8559 66.5468 35.8559 66.6321ZM35.5999 76.5521C35.4292 76.7228 35.2212 76.8081 34.9759 76.8081C34.7306 76.8081 34.5226 76.7228 34.3519 76.5521C34.1812 76.3814 34.0959 76.1734 34.0959 75.9281V66.1201C34.0959 65.8641 34.1812 65.6348 34.3519 65.4321C34.5226 65.2294 34.7359 65.1174 34.9919 65.0961C35.8986 65.0108 36.7732 64.9681 37.6159 64.9681C39.0879 64.9681 40.2026 65.2828 40.9599 65.9121C41.7172 66.5308 42.0959 67.4161 42.0959 68.5681C42.0959 71.1814 40.6026 72.4881 37.6159 72.4881C36.9866 72.4881 36.4426 72.4668 35.9839 72.4241C35.8986 72.4241 35.8559 72.4668 35.8559 72.5521V75.9281C35.8559 76.1734 35.7706 76.3814 35.5999 76.5521ZM45.588 75.3201C45.5774 75.3308 45.572 75.3414 45.572 75.3521C45.572 75.3628 45.5774 75.3681 45.588 75.3681H49.812C50.0147 75.3681 50.1854 75.4374 50.324 75.5761C50.4627 75.7148 50.532 75.8854 50.532 76.0881C50.532 76.2908 50.4627 76.4614 50.324 76.6001C50.1854 76.7388 50.0147 76.8081 49.812 76.8081H43.892C43.6894 76.8081 43.5187 76.7388 43.38 76.6001C43.2414 76.4614 43.172 76.2908 43.172 76.0881C43.172 75.6188 43.3587 75.2294 43.732 74.9201C45.6734 73.3521 46.9854 72.1094 47.668 71.1921C48.3614 70.2641 48.708 69.3628 48.708 68.4881C48.708 67.1228 47.9827 66.4401 46.532 66.4401C45.8174 66.4401 45.028 66.6268 44.164 67.0001C43.9827 67.0748 43.812 67.0641 43.652 66.9681C43.492 66.8721 43.412 66.7281 43.412 66.5361C43.412 66.2694 43.4814 66.0294 43.62 65.8161C43.7587 65.6028 43.9507 65.4588 44.196 65.3841C45.06 65.1068 45.9187 64.9681 46.772 64.9681C47.9667 64.9681 48.8894 65.2668 49.54 65.8641C50.2014 66.4508 50.532 67.2721 50.532 68.3281C50.532 69.3841 50.1907 70.4134 49.508 71.4161C48.836 72.4081 47.5294 73.7094 45.588 75.3201ZM53.8422 76.5681C53.6822 76.7281 53.4848 76.8081 53.2502 76.8081C53.0155 76.8081 52.8128 76.7281 52.6422 76.5681C52.4822 76.3974 52.4022 76.1948 52.4022 75.9601V65.9761C52.4022 65.7414 52.4822 65.5441 52.6422 65.3841C52.8128 65.2134 53.0155 65.1281 53.2502 65.1281C53.8155 65.1281 54.2262 65.3788 54.4822 65.8801L57.6342 71.9921C57.6342 72.0028 57.6395 72.0081 57.6502 72.0081C57.6608 72.0081 57.6662 72.0028 57.6662 71.9921L60.8022 65.9121C61.0688 65.3894 61.4955 65.1281 62.0822 65.1281C62.3275 65.1281 62.5355 65.2134 62.7062 65.3841C62.8768 65.5548 62.9622 65.7628 62.9622 66.0081V75.9281C62.9622 76.1734 62.8768 76.3814 62.7062 76.5521C62.5355 76.7228 62.3275 76.8081 62.0822 76.8081C61.8368 76.8081 61.6288 76.7228 61.4582 76.5521C61.2875 76.3814 61.2022 76.1734 61.2022 75.9281V68.1841C61.2022 68.1734 61.1968 68.1681 61.1862 68.1681C61.1755 68.1681 61.1702 68.1734 61.1702 68.1841L58.8022 72.8881C58.5568 73.3681 58.1728 73.6081 57.6502 73.6081C57.1275 73.6081 56.7435 73.3681 56.4982 72.8881L54.1302 68.1841C54.1302 68.1734 54.1248 68.1681 54.1142 68.1681C54.1035 68.1681 54.0982 68.1734 54.0982 68.1841V75.9601C54.0982 76.1948 54.0128 76.3974 53.8422 76.5681Z" fill="#9DCB3B"/>
<path d="M10.1004 7.33686C10.1004 10.8439 9.76662 13.6931 9.35545 13.6931C8.94428 13.6931 8.60083 10.8439 8.60083 7.33686C8.60083 3.82982 8.94912 1 9.35545 1C9.76178 1 10.1004 3.82498 10.1004 7.33686Z" fill="url(#paint19_radial_883_12529)"/>
<path d="M9.35626 8.07207C5.84922 8.07207 3.00005 7.7383 3.00005 7.32713C3.00005 6.91596 5.84922 6.57251 9.35626 6.57251C12.8633 6.57251 15.6931 6.9208 15.6931 7.32713C15.6931 7.73346 12.8681 8.07207 9.35626 8.07207Z" fill="url(#paint20_radial_883_12529)"/>
<path d="M64.1004 44.3369C64.1004 47.8439 63.7666 50.6931 63.3554 50.6931C62.9443 50.6931 62.6008 47.8439 62.6008 44.3369C62.6008 40.8298 62.9491 38 63.3554 38C63.7618 38 64.1004 40.825 64.1004 44.3369Z" fill="url(#paint21_radial_883_12529)"/>
<path d="M63.3563 45.0721C59.8492 45.0721 57 44.7383 57 44.3271C57 43.916 59.8492 43.5725 63.3563 43.5725C66.8633 43.5725 69.6931 43.9208 69.6931 44.3271C69.6931 44.7335 66.8681 45.0721 63.3563 45.0721Z" fill="url(#paint22_radial_883_12529)"/>
<defs>
<linearGradient id="paint0_linear_883_12529" x1="48.0673" y1="62.7071" x2="48.0673" y2="42.513" gradientUnits="userSpaceOnUse">
<stop stop-color="#79A540"/>
<stop offset="0.2" stop-color="#94C63D"/>
<stop offset="0.39" stop-color="#98CA3C"/>
<stop offset="0.59" stop-color="#93C53E"/>
<stop offset="0.74" stop-color="#9DCB3B"/>
<stop offset="0.9" stop-color="#A6CE39"/>
<stop offset="1" stop-color="#A6CE39"/>
</linearGradient>
<linearGradient id="paint1_linear_883_12529" x1="48.0673" y1="62.8749" x2="48.0673" y2="42.3452" gradientUnits="userSpaceOnUse">
<stop stop-color="white" stop-opacity="0.9"/>
<stop offset="0.04" stop-color="white" stop-opacity="0.85"/>
<stop offset="0.28" stop-color="white" stop-opacity="0.5"/>
<stop offset="0.65" stop-color="#FAFBFC" stop-opacity="0.4"/>
<stop offset="1" stop-color="#F0EFEF" stop-opacity="0.3"/>
</linearGradient>
<linearGradient id="paint2_linear_883_12529" x1="48.0673" y1="62.8749" x2="48.0673" y2="42.3452" gradientUnits="userSpaceOnUse">
<stop stop-color="white" stop-opacity="0.9"/>
<stop offset="0.04" stop-color="white" stop-opacity="0.85"/>
<stop offset="0.28" stop-color="white" stop-opacity="0.5"/>
<stop offset="0.65" stop-color="#FAFBFC" stop-opacity="0.4"/>
<stop offset="1" stop-color="#F0EFEF" stop-opacity="0.3"/>
</linearGradient>
<linearGradient id="paint3_linear_883_12529" x1="50" y1="57" x2="12" y2="-0.500006" gradientUnits="userSpaceOnUse">
<stop stop-color="white" stop-opacity="0.7"/>
<stop offset="0.322188" stop-color="white" stop-opacity="0.3"/>
<stop offset="0.482363" stop-color="#FAFBFC" stop-opacity="0.3"/>
<stop offset="1" stop-color="#F0EFEF" stop-opacity="0"/>
</linearGradient>
<linearGradient id="paint4_linear_883_12529" x1="50" y1="57" x2="12" y2="-0.500006" gradientUnits="userSpaceOnUse">
<stop stop-color="white" stop-opacity="0.7"/>
<stop offset="0.322188" stop-color="white" stop-opacity="0.3"/>
<stop offset="0.482363" stop-color="#FAFBFC" stop-opacity="0.3"/>
<stop offset="1" stop-color="#F0EFEF" stop-opacity="0"/>
</linearGradient>
<linearGradient id="paint5_linear_883_12529" x1="50" y1="57" x2="12" y2="-0.500006" gradientUnits="userSpaceOnUse">
<stop stop-color="white" stop-opacity="0.7"/>
<stop offset="0.322188" stop-color="white" stop-opacity="0.3"/>
<stop offset="0.482363" stop-color="#FAFBFC" stop-opacity="0.3"/>
<stop offset="1" stop-color="#F0EFEF" stop-opacity="0"/>
</linearGradient>
<linearGradient id="paint6_linear_883_12529" x1="50" y1="57" x2="12" y2="-0.500006" gradientUnits="userSpaceOnUse">
<stop stop-color="white" stop-opacity="0.7"/>
<stop offset="0.322188" stop-color="white" stop-opacity="0.3"/>
<stop offset="0.482363" stop-color="#FAFBFC" stop-opacity="0.3"/>
<stop offset="1" stop-color="#F0EFEF" stop-opacity="0"/>
</linearGradient>
<linearGradient id="paint7_linear_883_12529" x1="50" y1="57" x2="12" y2="-0.500006" gradientUnits="userSpaceOnUse">
<stop stop-color="white" stop-opacity="0.7"/>
<stop offset="0.322188" stop-color="white" stop-opacity="0.3"/>
<stop offset="0.482363" stop-color="#FAFBFC" stop-opacity="0.3"/>
<stop offset="1" stop-color="#F0EFEF" stop-opacity="0"/>
</linearGradient>
<linearGradient id="paint8_linear_883_12529" x1="50" y1="57" x2="12" y2="-0.500006" gradientUnits="userSpaceOnUse">
<stop stop-color="white" stop-opacity="0.7"/>
<stop offset="0.322188" stop-color="white" stop-opacity="0.3"/>
<stop offset="0.482363" stop-color="#FAFBFC" stop-opacity="0.3"/>
<stop offset="1" stop-color="#F0EFEF" stop-opacity="0"/>
</linearGradient>
<linearGradient id="paint9_linear_883_12529" x1="50" y1="57" x2="12" y2="-0.500006" gradientUnits="userSpaceOnUse">
<stop stop-color="white" stop-opacity="0.7"/>
<stop offset="0.322188" stop-color="white" stop-opacity="0.3"/>
<stop offset="0.482363" stop-color="#FAFBFC" stop-opacity="0.3"/>
<stop offset="1" stop-color="#F0EFEF" stop-opacity="0"/>
</linearGradient>
<linearGradient id="paint10_linear_883_12529" x1="50" y1="57" x2="12" y2="-0.500006" gradientUnits="userSpaceOnUse">
<stop stop-color="white" stop-opacity="0.7"/>
<stop offset="0.322188" stop-color="white" stop-opacity="0.3"/>
<stop offset="0.482363" stop-color="#FAFBFC" stop-opacity="0.3"/>
<stop offset="1" stop-color="#F0EFEF" stop-opacity="0"/>
</linearGradient>
<linearGradient id="paint11_linear_883_12529" x1="16.2601" y1="6.78249" x2="55.0747" y2="59.7591" gradientUnits="userSpaceOnUse">
<stop stop-color="#F0EFEF" stop-opacity="0"/>
<stop offset="0.35" stop-color="#FAFBFC" stop-opacity="0.4"/>
<stop offset="0.72" stop-color="white" stop-opacity="0.5"/>
<stop offset="0.96" stop-color="white" stop-opacity="0.85"/>
<stop offset="1" stop-color="white" stop-opacity="0.9"/>
</linearGradient>
<linearGradient id="paint12_linear_883_12529" x1="16.2601" y1="6.78249" x2="55.0747" y2="59.7591" gradientUnits="userSpaceOnUse">
<stop stop-color="#F0EFEF" stop-opacity="0"/>
<stop offset="0.35" stop-color="#FAFBFC" stop-opacity="0.4"/>
<stop offset="0.72" stop-color="white" stop-opacity="0.5"/>
<stop offset="0.96" stop-color="white" stop-opacity="0.85"/>
<stop offset="1" stop-color="white" stop-opacity="0.9"/>
</linearGradient>
<linearGradient id="paint13_linear_883_12529" x1="16.2601" y1="6.78249" x2="55.0747" y2="59.7591" gradientUnits="userSpaceOnUse">
<stop stop-color="#F0EFEF" stop-opacity="0"/>
<stop offset="0.35" stop-color="#FAFBFC" stop-opacity="0.4"/>
<stop offset="0.72" stop-color="white" stop-opacity="0.5"/>
<stop offset="0.96" stop-color="white" stop-opacity="0.85"/>
<stop offset="1" stop-color="white" stop-opacity="0.9"/>
</linearGradient>
<linearGradient id="paint14_linear_883_12529" x1="16.2601" y1="6.78249" x2="55.0747" y2="59.7591" gradientUnits="userSpaceOnUse">
<stop stop-color="#F0EFEF" stop-opacity="0"/>
<stop offset="0.35" stop-color="#FAFBFC" stop-opacity="0.4"/>
<stop offset="0.72" stop-color="white" stop-opacity="0.5"/>
<stop offset="0.96" stop-color="white" stop-opacity="0.85"/>
<stop offset="1" stop-color="white" stop-opacity="0.9"/>
</linearGradient>
<linearGradient id="paint15_linear_883_12529" x1="16.2601" y1="6.78249" x2="55.0747" y2="59.7591" gradientUnits="userSpaceOnUse">
<stop stop-color="#F0EFEF" stop-opacity="0"/>
<stop offset="0.35" stop-color="#FAFBFC" stop-opacity="0.4"/>
<stop offset="0.72" stop-color="white" stop-opacity="0.5"/>
<stop offset="0.96" stop-color="white" stop-opacity="0.85"/>
<stop offset="1" stop-color="white" stop-opacity="0.9"/>
</linearGradient>
<linearGradient id="paint16_linear_883_12529" x1="16.2601" y1="6.78249" x2="55.0747" y2="59.7591" gradientUnits="userSpaceOnUse">
<stop stop-color="#F0EFEF" stop-opacity="0"/>
<stop offset="0.35" stop-color="#FAFBFC" stop-opacity="0.4"/>
<stop offset="0.72" stop-color="white" stop-opacity="0.5"/>
<stop offset="0.96" stop-color="white" stop-opacity="0.85"/>
<stop offset="1" stop-color="white" stop-opacity="0.9"/>
</linearGradient>
<linearGradient id="paint17_linear_883_12529" x1="16.2601" y1="6.78249" x2="55.0747" y2="59.7591" gradientUnits="userSpaceOnUse">
<stop stop-color="#F0EFEF" stop-opacity="0"/>
<stop offset="0.35" stop-color="#FAFBFC" stop-opacity="0.4"/>
<stop offset="0.72" stop-color="white" stop-opacity="0.5"/>
<stop offset="0.96" stop-color="white" stop-opacity="0.85"/>
<stop offset="1" stop-color="white" stop-opacity="0.9"/>
</linearGradient>
<linearGradient id="paint18_linear_883_12529" x1="16.2601" y1="6.78249" x2="55.0747" y2="59.7591" gradientUnits="userSpaceOnUse">
<stop stop-color="#F0EFEF" stop-opacity="0"/>
<stop offset="0.35" stop-color="#FAFBFC" stop-opacity="0.4"/>
<stop offset="0.72" stop-color="white" stop-opacity="0.5"/>
<stop offset="0.96" stop-color="white" stop-opacity="0.85"/>
<stop offset="1" stop-color="white" stop-opacity="0.9"/>
</linearGradient>
<radialGradient id="paint19_radial_883_12529" cx="0" cy="0" r="1" gradientUnits="userSpaceOnUse" gradientTransform="translate(9.23626 7.80047) scale(0.741847 6.36066)">
<stop stop-color="white"/>
<stop offset="0.07" stop-color="white" stop-opacity="0.93"/>
<stop offset="1" stop-color="white" stop-opacity="0"/>
</radialGradient>
<radialGradient id="paint20_radial_883_12529" cx="0" cy="0" r="1" gradientUnits="userSpaceOnUse" gradientTransform="translate(8.89265 7.20794) rotate(90) scale(0.741848 6.36066)">
<stop stop-color="white"/>
<stop offset="0.07" stop-color="white" stop-opacity="0.93"/>
<stop offset="1" stop-color="white" stop-opacity="0"/>
</radialGradient>
<radialGradient id="paint21_radial_883_12529" cx="0" cy="0" r="1" gradientUnits="userSpaceOnUse" gradientTransform="translate(63.2363 44.8005) scale(0.741847 6.36066)">
<stop stop-color="white"/>
<stop offset="0.07" stop-color="white" stop-opacity="0.93"/>
<stop offset="1" stop-color="white" stop-opacity="0"/>
</radialGradient>
<radialGradient id="paint22_radial_883_12529" cx="0" cy="0" r="1" gradientUnits="userSpaceOnUse" gradientTransform="translate(62.8926 44.2079) rotate(90) scale(0.741848 6.36066)">
<stop stop-color="white"/>
<stop offset="0.07" stop-color="white" stop-opacity="0.93"/>
<stop offset="1" stop-color="white" stop-opacity="0"/>
</radialGradient>
</defs>
</svg>
