<svg width="87" height="81" viewBox="0 0 87 81" fill="none" xmlns="http://www.w3.org/2000/svg">
<path d="M9.68978 46.105C9.95138 46.3114 10.1689 46.5683 10.3295 46.8603C10.4901 47.1523 10.5905 47.4735 10.6248 47.805C10.659 48.1365 10.6264 48.4715 10.5289 48.7902C10.4314 49.1089 10.271 49.4047 10.0571 49.6603C9.84325 49.9159 9.5803 50.126 9.2838 50.2781C8.98731 50.4303 8.66331 50.5215 8.33098 50.5462C7.99864 50.5709 7.66471 50.5288 7.34896 50.4222C7.03321 50.3156 6.74205 50.1467 6.4927 49.9256C5.36843 48.9896 4.36678 47.9154 3.51148 46.7286C1.2602 43.6035 0.0342009 39.8567 0.00261344 36.0053C-0.0670655 32.0954 1.25856 28.2886 3.74173 25.2677C4.60278 24.2354 5.59075 23.3159 6.68218 22.5311C8.07193 21.5418 9.58338 20.7357 11.1792 20.1327C12.3922 19.6658 13.6369 19.2859 14.9039 18.9959C16.3957 13.0742 19.5736 8.51486 23.6581 5.35137C27.4697 2.43 32.0308 0.647967 36.8134 0.211598C41.5856 -0.255368 46.3948 0.587074 50.7241 2.64837C55.7549 5.05779 59.8351 9.08066 62.3156 14.0767C63.3887 13.9065 64.4742 13.8263 65.5607 13.8369C70.1176 13.8705 74.5019 15.4966 77.9556 19.2213C78.7139 20.0388 79.3985 20.9217 80.0015 21.8596C82.16 25.1909 83.2801 29.6424 83.2345 33.9979C83.1865 38.2718 82.0353 42.5266 79.6777 45.6637C79.4815 45.9248 79.2357 46.1447 78.9545 46.3108C78.6733 46.4769 78.3621 46.5861 78.0388 46.632C77.7154 46.6778 77.3861 46.6596 77.0698 46.5782C76.7535 46.4968 76.4563 46.354 76.1952 46.1577C75.9341 45.9615 75.7142 45.7158 75.548 45.4346C75.3819 45.1534 75.2728 44.8422 75.2269 44.5188C75.181 44.1955 75.1993 43.8662 75.2807 43.5499C75.362 43.2336 75.5049 42.9364 75.7011 42.6753C77.3944 40.4208 78.2266 37.2285 78.2602 33.9571C78.301 30.5226 77.4615 27.0737 75.8282 24.5673C75.3799 23.8709 74.8702 23.216 74.3053 22.6103C73.1914 21.3963 71.8347 20.4301 70.3232 19.7743C68.8118 19.1186 67.1794 18.788 65.5319 18.804C63.0977 18.8239 60.695 19.3567 58.4806 20.3677C57.9721 20.6196 57.4636 20.8906 56.9576 21.188C55.3585 22.1499 53.8351 23.2324 52.4006 24.4258L49.1196 20.6675C50.2555 19.6148 51.4791 18.6608 52.7772 17.8159C53.8109 17.1432 54.8904 16.5438 56.0078 16.0218C56.4563 15.7988 56.9096 15.5877 57.3629 15.3911C55.3551 11.7948 52.2838 8.90784 48.5703 7.12618C45.0503 5.45854 41.143 4.77955 37.2667 5.16189C33.42 5.51256 29.7512 6.94531 26.6849 9.29434C23.1424 12.0453 20.449 16.1442 19.4177 21.5837L19.0915 23.2842L17.3983 23.5816C15.8808 23.8331 14.392 24.2348 12.954 24.7808C11.762 25.2343 10.6334 25.8397 9.59624 26.582C8.84038 27.1271 8.15554 27.7644 7.55759 28.4791C5.82928 30.5985 4.91189 33.264 4.96971 35.9981C4.96996 37.9263 5.39369 39.8309 6.21096 41.5773C7.02822 43.3238 8.21908 44.8694 9.69937 46.105H9.68978Z" fill="url(#paint0_linear_798_5655)"/>
<path d="M9.53656 45.9006C8.16146 44.6921 7.05007 43.2115 6.27342 41.551C5.44897 39.7883 5.02189 37.866 5.0224 35.9201C4.96236 33.1564 5.88994 30.4618 7.63846 28.3207L7.63932 28.3196C8.2434 27.5963 8.93602 26.9517 9.70089 26.4012L9.70117 26.401C10.747 25.6524 11.8851 25.0419 13.0872 24.5846L13.0873 24.5846C14.5321 24.0356 16.0278 23.6318 17.5526 23.379C17.5527 23.379 17.5529 23.3789 17.5531 23.3789L19.1603 23.0966L19.4702 21.481L9.53656 45.9006ZM9.53656 45.9006H9.50489L9.78762 46.1237C10.0361 46.3198 10.2427 46.5638 10.3953 46.8411C10.5478 47.1185 10.6432 47.4236 10.6757 47.7385C10.7082 48.0533 10.6773 48.3715 10.5847 48.6742C10.4921 48.9769 10.3397 49.258 10.1365 49.5007C9.9334 49.7435 9.68363 49.943 9.40201 50.0875C9.1204 50.2321 8.81265 50.3186 8.49698 50.3421C8.18131 50.3656 7.86414 50.3256 7.56423 50.2243C7.26432 50.1231 6.98776 49.9627 6.75092 49.7527L6.75096 49.7527L6.7479 49.7501C5.63206 48.8223 4.63765 47.7575 3.78821 46.5809C1.55303 43.4763 0.335365 39.7551 0.302899 35.9297L0.302878 35.9285C0.233848 32.047 1.54921 28.2678 4.01327 25.268C4.86811 24.2445 5.84814 23.3325 6.93035 22.5533C8.31179 21.5698 9.81443 20.7689 11.401 20.1703L11.4018 20.1699C12.609 19.7045 13.8481 19.3263 15.1094 19.0383L15.1841 19.0213L15.2028 18.947C16.6853 13.0527 19.8473 8.51978 23.9098 5.37331C27.7015 2.46301 32.2402 0.686478 37.0001 0.249487L37.0008 0.249416C41.7506 -0.214596 46.5371 0.624682 50.8456 2.67703C55.852 5.07196 59.9123 9.07428 62.3789 14.0457L62.4197 14.128L62.5105 14.1136C63.5767 13.9445 64.6552 13.8648 65.7347 13.8753L65.735 13.8753C70.2611 13.9087 74.6112 15.5228 78.0415 19.2196C78.7934 20.033 79.4735 20.91 80.0741 21.8407L80.0742 21.8409C82.2171 25.1481 83.3325 29.5744 83.2848 33.9099C83.237 38.1647 82.0907 42.3915 79.753 45.502C79.5667 45.75 79.3333 45.9588 79.0662 46.1166C78.7991 46.2744 78.5036 46.378 78.1965 46.4216C77.8894 46.4652 77.5767 46.4478 77.2762 46.3706C76.9758 46.2933 76.6935 46.1576 76.4456 45.9712C76.1976 45.7849 75.9887 45.5515 75.8309 45.2844C75.6732 45.0173 75.5695 44.7218 75.5259 44.4147C75.4824 44.1076 75.4997 43.7949 75.577 43.4944C75.6543 43.194 75.79 42.9118 75.9763 42.6638L75.8764 42.5887L75.9763 42.6637C77.6904 40.3816 78.5291 37.1606 78.5629 33.872C78.6039 30.419 77.7605 26.9469 76.1109 24.4129C76.1108 24.4128 76.1107 24.4127 76.1107 24.4126L76.0059 24.4808M9.53656 45.9006L57.0684 20.9943L57.0697 20.9935C57.5794 20.6954 58.0915 20.4103 58.6023 20.1682L58.6039 20.1674C60.8352 19.1491 63.256 18.6124 65.7085 18.5924M76.0059 24.4808C75.5559 23.7849 75.0454 23.13 74.4805 22.5237M76.0059 24.4808C77.6392 26.9895 78.4787 30.436 78.4379 33.8705L76.0059 24.4808ZM74.4805 22.5237L74.5726 22.4392C74.5725 22.439 74.5724 22.4389 74.5723 22.4388C74.5722 22.4387 74.5721 22.4386 74.572 22.4385L74.4805 22.5237ZM74.4805 22.5237C73.3669 21.31 72.0106 20.344 70.4996 19.6883C68.9886 19.0325 67.3566 18.7018 65.7096 18.7174M65.7096 18.7174L65.7085 18.5924M65.7096 18.7174C63.2746 18.7373 60.8711 19.2701 58.6558 20.2812M65.7096 18.7174L65.7084 18.5924C65.7084 18.5924 65.7085 18.5924 65.7085 18.5924M65.7085 18.5924L58.6558 20.2812M58.6558 20.2812C58.1498 20.521 57.6413 20.804 57.1329 21.1014L58.6558 20.2812Z" stroke="url(#paint1_linear_798_5655)" stroke-width="0.25" stroke-miterlimit="10"/>
<path d="M79 46.8443C83.4194 46.8443 87 46.4703 87 46.0088C87 45.5473 83.4194 45.1733 79 45.1733C74.5807 45.1733 71 45.5473 71 46.0088C71 46.4703 74.5807 46.8443 79 46.8443Z" fill="url(#paint2_radial_798_5655)"/>
<path d="M79.9098 46C79.9098 50.4188 79.5019 54 78.9958 54C78.4896 54 78.0818 50.4188 78.0818 46C78.0818 41.5812 78.5001 38 78.9958 38C79.4915 38 79.9098 41.5833 79.9098 46Z" fill="url(#paint3_radial_798_5655)"/>
<path d="M14.3097 18.3138C18.7313 18.3138 22.3159 17.9398 22.3159 17.4783C22.3159 17.0168 18.7313 16.6428 14.3097 16.6428C9.88799 16.6428 6.31592 17.0168 6.31592 17.4783C6.31592 17.9398 9.89008 18.3138 14.3097 18.3138Z" fill="url(#paint4_radial_798_5655)"/>
<path d="M15.2197 17.4736C15.2197 21.8924 14.8011 25.4736 14.3052 25.4736C13.8092 25.4736 13.3928 21.8924 13.3928 17.4736C13.3928 13.0548 13.8113 9.47363 14.3052 9.47363C14.799 9.47363 15.2197 13.057 15.2197 17.4736Z" fill="url(#paint5_radial_798_5655)"/>
<mask id="path-7-inside-1_798_5655" fill="white">
<path d="M19.2434 49.4064L17.4749 55.1496C17.4637 55.1833 17.4693 55.2169 17.4918 55.2506C17.5142 55.2731 17.5423 55.2843 17.576 55.2843H20.9444C20.9781 55.2843 21.0062 55.2731 21.0286 55.2506C21.0511 55.2169 21.0567 55.1833 21.0455 55.1496L19.277 49.4064C19.277 49.3952 19.2714 49.3896 19.2602 49.3896C19.249 49.3896 19.2434 49.3952 19.2434 49.4064ZM15.0328 60.0001C14.797 60.0001 14.6062 59.9047 14.4602 59.7138C14.3254 59.5229 14.2974 59.3152 14.376 59.0906L17.9802 48.6148C18.07 48.3454 18.2328 48.1264 18.4686 47.958C18.7044 47.7896 18.9627 47.7054 19.2434 47.7054H19.3444C19.6363 47.7054 19.8946 47.7896 20.1191 47.958C20.3549 48.1264 20.5177 48.3454 20.6076 48.6148L24.2118 59.0906C24.2904 59.3152 24.2567 59.5229 24.1107 59.7138C23.976 59.9047 23.7907 60.0001 23.5549 60.0001H23.4876C23.2069 60.0001 22.9486 59.9159 22.7128 59.7475C22.4883 59.5791 22.3311 59.3601 22.2413 59.0906L21.5676 56.8675C21.5563 56.7777 21.4946 56.7327 21.3823 56.7327H17.1381C17.037 56.7327 16.9753 56.7777 16.9528 56.8675L16.2791 59.0906C16.2005 59.3601 16.0433 59.5791 15.8076 59.7475C15.583 59.9159 15.3247 60.0001 15.0328 60.0001Z"/>
<path d="M26.9672 49.2885V53.718C26.9672 53.8078 27.0177 53.864 27.1188 53.8864C27.6914 53.965 28.2023 54.0043 28.6514 54.0043C29.6395 54.0043 30.3974 53.791 30.9251 53.3643C31.4528 52.9264 31.7167 52.3033 31.7167 51.4948C31.7167 50.6864 31.4584 50.0745 30.9419 49.659C30.4254 49.2324 29.6619 49.019 28.6514 49.019C28.1125 49.019 27.6016 49.0527 27.1188 49.1201C27.0177 49.1425 26.9672 49.1987 26.9672 49.2885ZM26.6977 59.7306C26.5181 59.9103 26.2991 60.0001 26.0409 60.0001C25.7826 60.0001 25.5637 59.9103 25.384 59.7306C25.2044 59.551 25.1146 59.3321 25.1146 59.0738V48.7496C25.1146 48.4801 25.2044 48.2387 25.384 48.0254C25.5637 47.812 25.7882 47.6941 26.0577 47.6717C27.0121 47.5818 27.9328 47.5369 28.8198 47.5369C30.3693 47.5369 31.5426 47.8682 32.3398 48.5306C33.137 49.1818 33.5356 50.1138 33.5356 51.3264C33.5356 54.0773 31.9637 55.4527 28.8198 55.4527C28.1574 55.4527 27.5847 55.4303 27.1019 55.3854C27.0121 55.3854 26.9672 55.4303 26.9672 55.5201V59.0738C26.9672 59.3321 26.8774 59.551 26.6977 59.7306Z"/>
<path d="M35.9989 60.0001C35.7407 60.0001 35.5161 59.9047 35.3252 59.7138C35.1344 59.5229 35.0389 59.2984 35.0389 59.0401V48.6654C35.0389 48.4071 35.1344 48.1825 35.3252 47.9917C35.5161 47.8008 35.7407 47.7054 35.9989 47.7054H36.1C36.3582 47.7054 36.5828 47.8008 36.7737 47.9917C36.9645 48.1825 37.06 48.4071 37.06 48.6654V59.0401C37.06 59.2984 36.9645 59.5229 36.7737 59.7138C36.5828 59.9047 36.3582 60.0001 36.1 60.0001H35.9989Z"/>
<path d="M16.0428 34.5516V38.6106C16.0428 38.7116 16.0933 38.7622 16.1944 38.7622H17.0534C19.4337 38.7622 20.6239 37.9537 20.6239 36.3369C20.6239 35.652 20.3656 35.1411 19.8491 34.8043C19.3439 34.4562 18.5242 34.2822 17.3902 34.2822C16.9635 34.2822 16.5593 34.3158 16.1776 34.3832C16.0877 34.4057 16.0428 34.4618 16.0428 34.5516ZM15.7733 44.9938C15.5937 45.1734 15.3748 45.2632 15.1165 45.2632C14.8583 45.2632 14.6393 45.1734 14.4597 44.9938C14.28 44.8141 14.1902 44.5952 14.1902 44.3369V34.0127C14.1902 33.732 14.28 33.4906 14.4597 33.2885C14.6393 33.0751 14.8695 32.9572 15.1502 32.9348C15.9811 32.845 16.7839 32.8 17.5586 32.8C19.1755 32.8 20.3937 33.0976 21.2134 33.6927C22.033 34.2878 22.4428 35.113 22.4428 36.1685C22.4428 37.0218 22.2239 37.7516 21.786 38.358C21.3593 38.953 20.7699 39.3685 20.0176 39.6043C20.0063 39.6043 20.0007 39.6099 20.0007 39.6211C20.0007 39.6436 20.0063 39.6548 20.0176 39.6548C20.5004 39.9804 20.9439 40.6429 21.3481 41.6422L22.426 44.3706C22.5158 44.5839 22.4934 44.786 22.3586 44.9769C22.2239 45.1678 22.0442 45.2632 21.8197 45.2632C21.5277 45.2632 21.2639 45.1846 21.0281 45.0274C20.7923 44.859 20.6239 44.6401 20.5228 44.3706L19.4618 41.6422C19.226 41.0359 18.9621 40.6485 18.6702 40.4801C18.3895 40.3004 17.8505 40.2106 17.0534 40.2106H16.1944C16.0933 40.2106 16.0428 40.2611 16.0428 40.3622V44.3369C16.0428 44.5952 15.953 44.8141 15.7733 44.9938Z"/>
<path d="M24.6864 45.2632C24.4282 45.2632 24.2036 45.1678 24.0127 44.9769C23.8218 44.786 23.7264 44.5615 23.7264 44.3032V33.9285C23.7264 33.6702 23.8218 33.4457 24.0127 33.2548C24.2036 33.0639 24.4282 32.9685 24.6864 32.9685H30.379C30.5924 32.9685 30.772 33.0415 30.918 33.1874C31.064 33.3334 31.1369 33.513 31.1369 33.7264C31.1369 33.9397 31.064 34.1194 30.918 34.2653C30.772 34.4113 30.5924 34.4843 30.379 34.4843H25.7306C25.6296 34.4843 25.579 34.5292 25.579 34.619V37.8359C25.579 37.9369 25.6296 37.9874 25.7306 37.9874H30.0759C30.278 37.9874 30.4464 38.0604 30.5812 38.2064C30.7271 38.3411 30.8001 38.5095 30.8001 38.7116C30.8001 38.9137 30.7271 39.0878 30.5812 39.2337C30.4464 39.3685 30.278 39.4359 30.0759 39.4359H25.7306C25.6296 39.4359 25.579 39.4864 25.579 39.5874V43.5959C25.579 43.6969 25.6296 43.7474 25.7306 43.7474H30.379C30.5924 43.7474 30.772 43.8204 30.918 43.9664C31.064 44.1124 31.1369 44.292 31.1369 44.5053C31.1369 44.7187 31.064 44.8983 30.918 45.0443C30.772 45.1903 30.5924 45.2632 30.379 45.2632H24.6864Z"/>
<path d="M35.9198 39.7895C34.6398 39.3516 33.7135 38.8295 33.1409 38.2232C32.5795 37.6057 32.2988 36.8646 32.2988 36.0001C32.2988 35.012 32.6132 34.2316 33.2419 33.659C33.8707 33.0864 34.7353 32.8 35.8356 32.8C36.8686 32.8 37.7781 32.9236 38.5641 33.1706C38.7999 33.2492 38.9907 33.4008 39.1367 33.6253C39.2939 33.8386 39.3725 34.0801 39.3725 34.3495C39.3725 34.5404 39.2883 34.6864 39.1199 34.7874C38.9514 34.8885 38.7774 34.8997 38.5977 34.8211C37.7444 34.4618 36.8799 34.2822 36.0041 34.2822C35.3977 34.2822 34.9318 34.4337 34.6062 34.7369C34.2805 35.0401 34.1177 35.4611 34.1177 36.0001C34.1177 36.438 34.2693 36.8366 34.5725 37.1958C34.8756 37.5439 35.3248 37.819 35.9198 38.0211C37.402 38.5152 38.4293 39.0653 39.002 39.6716C39.5858 40.278 39.8778 41.0471 39.8778 41.979C39.8778 43.1131 39.5297 43.972 38.8335 44.5559C38.1374 45.1397 37.11 45.4317 35.7514 45.4317C34.8644 45.4317 34.0616 45.2969 33.343 45.0274C32.8153 44.8141 32.5514 44.3987 32.5514 43.7811C32.5514 43.5903 32.6356 43.4499 32.8041 43.3601C32.9725 43.2703 33.1409 43.2703 33.3093 43.3601C34.0055 43.7306 34.7634 43.9159 35.583 43.9159C37.2111 43.9159 38.0251 43.2703 38.0251 41.979C38.0251 41.485 37.8623 41.0639 37.5367 40.7159C37.2223 40.3678 36.6834 40.059 35.9198 39.7895Z"/>
<path d="M41.4091 34.5179C41.1957 34.5179 41.0105 34.445 40.8533 34.299C40.7073 34.1418 40.6343 33.9565 40.6343 33.7432C40.6343 33.5299 40.7073 33.3502 40.8533 33.2043C41.0105 33.0471 41.1957 32.9685 41.4091 32.9685H48.6175C48.8308 32.9685 49.0105 33.0471 49.1565 33.2043C49.3137 33.3502 49.3923 33.5299 49.3923 33.7432C49.3923 33.9565 49.3137 34.1418 49.1565 34.299C49.0105 34.445 48.8308 34.5179 48.6175 34.5179H46.0912C45.9901 34.5179 45.9396 34.5685 45.9396 34.6695V44.3369C45.9396 44.5952 45.8498 44.8141 45.6701 44.9938C45.4905 45.1734 45.2715 45.2632 45.0133 45.2632C44.755 45.2632 44.5361 45.1734 44.3564 44.9938C44.1768 44.8141 44.087 44.5952 44.087 44.3369V34.6695C44.087 34.5685 44.0364 34.5179 43.9354 34.5179H41.4091Z"/>
</mask>
<path d="M19.2434 49.4064L17.4749 55.1496C17.4637 55.1833 17.4693 55.2169 17.4918 55.2506C17.5142 55.2731 17.5423 55.2843 17.576 55.2843H20.9444C20.9781 55.2843 21.0062 55.2731 21.0286 55.2506C21.0511 55.2169 21.0567 55.1833 21.0455 55.1496L19.277 49.4064C19.277 49.3952 19.2714 49.3896 19.2602 49.3896C19.249 49.3896 19.2434 49.3952 19.2434 49.4064ZM15.0328 60.0001C14.797 60.0001 14.6062 59.9047 14.4602 59.7138C14.3254 59.5229 14.2974 59.3152 14.376 59.0906L17.9802 48.6148C18.07 48.3454 18.2328 48.1264 18.4686 47.958C18.7044 47.7896 18.9627 47.7054 19.2434 47.7054H19.3444C19.6363 47.7054 19.8946 47.7896 20.1191 47.958C20.3549 48.1264 20.5177 48.3454 20.6076 48.6148L24.2118 59.0906C24.2904 59.3152 24.2567 59.5229 24.1107 59.7138C23.976 59.9047 23.7907 60.0001 23.5549 60.0001H23.4876C23.2069 60.0001 22.9486 59.9159 22.7128 59.7475C22.4883 59.5791 22.3311 59.3601 22.2413 59.0906L21.5676 56.8675C21.5563 56.7777 21.4946 56.7327 21.3823 56.7327H17.1381C17.037 56.7327 16.9753 56.7777 16.9528 56.8675L16.2791 59.0906C16.2005 59.3601 16.0433 59.5791 15.8076 59.7475C15.583 59.9159 15.3247 60.0001 15.0328 60.0001Z" fill="url(#paint6_linear_798_5655)"/>
<path d="M19.2434 49.4064L17.4749 55.1496C17.4637 55.1833 17.4693 55.2169 17.4918 55.2506C17.5142 55.2731 17.5423 55.2843 17.576 55.2843H20.9444C20.9781 55.2843 21.0062 55.2731 21.0286 55.2506C21.0511 55.2169 21.0567 55.1833 21.0455 55.1496L19.277 49.4064C19.277 49.3952 19.2714 49.3896 19.2602 49.3896C19.249 49.3896 19.2434 49.3952 19.2434 49.4064ZM15.0328 60.0001C14.797 60.0001 14.6062 59.9047 14.4602 59.7138C14.3254 59.5229 14.2974 59.3152 14.376 59.0906L17.9802 48.6148C18.07 48.3454 18.2328 48.1264 18.4686 47.958C18.7044 47.7896 18.9627 47.7054 19.2434 47.7054H19.3444C19.6363 47.7054 19.8946 47.7896 20.1191 47.958C20.3549 48.1264 20.5177 48.3454 20.6076 48.6148L24.2118 59.0906C24.2904 59.3152 24.2567 59.5229 24.1107 59.7138C23.976 59.9047 23.7907 60.0001 23.5549 60.0001H23.4876C23.2069 60.0001 22.9486 59.9159 22.7128 59.7475C22.4883 59.5791 22.3311 59.3601 22.2413 59.0906L21.5676 56.8675C21.5563 56.7777 21.4946 56.7327 21.3823 56.7327H17.1381C17.037 56.7327 16.9753 56.7777 16.9528 56.8675L16.2791 59.0906C16.2005 59.3601 16.0433 59.5791 15.8076 59.7475C15.583 59.9159 15.3247 60.0001 15.0328 60.0001Z" fill="url(#paint7_linear_798_5655)"/>
<path d="M26.9672 49.2885V53.718C26.9672 53.8078 27.0177 53.864 27.1188 53.8864C27.6914 53.965 28.2023 54.0043 28.6514 54.0043C29.6395 54.0043 30.3974 53.791 30.9251 53.3643C31.4528 52.9264 31.7167 52.3033 31.7167 51.4948C31.7167 50.6864 31.4584 50.0745 30.9419 49.659C30.4254 49.2324 29.6619 49.019 28.6514 49.019C28.1125 49.019 27.6016 49.0527 27.1188 49.1201C27.0177 49.1425 26.9672 49.1987 26.9672 49.2885ZM26.6977 59.7306C26.5181 59.9103 26.2991 60.0001 26.0409 60.0001C25.7826 60.0001 25.5637 59.9103 25.384 59.7306C25.2044 59.551 25.1146 59.3321 25.1146 59.0738V48.7496C25.1146 48.4801 25.2044 48.2387 25.384 48.0254C25.5637 47.812 25.7882 47.6941 26.0577 47.6717C27.0121 47.5818 27.9328 47.5369 28.8198 47.5369C30.3693 47.5369 31.5426 47.8682 32.3398 48.5306C33.137 49.1818 33.5356 50.1138 33.5356 51.3264C33.5356 54.0773 31.9637 55.4527 28.8198 55.4527C28.1574 55.4527 27.5847 55.4303 27.1019 55.3854C27.0121 55.3854 26.9672 55.4303 26.9672 55.5201V59.0738C26.9672 59.3321 26.8774 59.551 26.6977 59.7306Z" fill="url(#paint8_linear_798_5655)"/>
<path d="M26.9672 49.2885V53.718C26.9672 53.8078 27.0177 53.864 27.1188 53.8864C27.6914 53.965 28.2023 54.0043 28.6514 54.0043C29.6395 54.0043 30.3974 53.791 30.9251 53.3643C31.4528 52.9264 31.7167 52.3033 31.7167 51.4948C31.7167 50.6864 31.4584 50.0745 30.9419 49.659C30.4254 49.2324 29.6619 49.019 28.6514 49.019C28.1125 49.019 27.6016 49.0527 27.1188 49.1201C27.0177 49.1425 26.9672 49.1987 26.9672 49.2885ZM26.6977 59.7306C26.5181 59.9103 26.2991 60.0001 26.0409 60.0001C25.7826 60.0001 25.5637 59.9103 25.384 59.7306C25.2044 59.551 25.1146 59.3321 25.1146 59.0738V48.7496C25.1146 48.4801 25.2044 48.2387 25.384 48.0254C25.5637 47.812 25.7882 47.6941 26.0577 47.6717C27.0121 47.5818 27.9328 47.5369 28.8198 47.5369C30.3693 47.5369 31.5426 47.8682 32.3398 48.5306C33.137 49.1818 33.5356 50.1138 33.5356 51.3264C33.5356 54.0773 31.9637 55.4527 28.8198 55.4527C28.1574 55.4527 27.5847 55.4303 27.1019 55.3854C27.0121 55.3854 26.9672 55.4303 26.9672 55.5201V59.0738C26.9672 59.3321 26.8774 59.551 26.6977 59.7306Z" fill="url(#paint9_linear_798_5655)"/>
<path d="M35.9989 60.0001C35.7407 60.0001 35.5161 59.9047 35.3252 59.7138C35.1344 59.5229 35.0389 59.2984 35.0389 59.0401V48.6654C35.0389 48.4071 35.1344 48.1825 35.3252 47.9917C35.5161 47.8008 35.7407 47.7054 35.9989 47.7054H36.1C36.3582 47.7054 36.5828 47.8008 36.7737 47.9917C36.9645 48.1825 37.06 48.4071 37.06 48.6654V59.0401C37.06 59.2984 36.9645 59.5229 36.7737 59.7138C36.5828 59.9047 36.3582 60.0001 36.1 60.0001H35.9989Z" fill="url(#paint10_linear_798_5655)"/>
<path d="M35.9989 60.0001C35.7407 60.0001 35.5161 59.9047 35.3252 59.7138C35.1344 59.5229 35.0389 59.2984 35.0389 59.0401V48.6654C35.0389 48.4071 35.1344 48.1825 35.3252 47.9917C35.5161 47.8008 35.7407 47.7054 35.9989 47.7054H36.1C36.3582 47.7054 36.5828 47.8008 36.7737 47.9917C36.9645 48.1825 37.06 48.4071 37.06 48.6654V59.0401C37.06 59.2984 36.9645 59.5229 36.7737 59.7138C36.5828 59.9047 36.3582 60.0001 36.1 60.0001H35.9989Z" fill="url(#paint11_linear_798_5655)"/>
<path d="M16.0428 34.5516V38.6106C16.0428 38.7116 16.0933 38.7622 16.1944 38.7622H17.0534C19.4337 38.7622 20.6239 37.9537 20.6239 36.3369C20.6239 35.652 20.3656 35.1411 19.8491 34.8043C19.3439 34.4562 18.5242 34.2822 17.3902 34.2822C16.9635 34.2822 16.5593 34.3158 16.1776 34.3832C16.0877 34.4057 16.0428 34.4618 16.0428 34.5516ZM15.7733 44.9938C15.5937 45.1734 15.3748 45.2632 15.1165 45.2632C14.8583 45.2632 14.6393 45.1734 14.4597 44.9938C14.28 44.8141 14.1902 44.5952 14.1902 44.3369V34.0127C14.1902 33.732 14.28 33.4906 14.4597 33.2885C14.6393 33.0751 14.8695 32.9572 15.1502 32.9348C15.9811 32.845 16.7839 32.8 17.5586 32.8C19.1755 32.8 20.3937 33.0976 21.2134 33.6927C22.033 34.2878 22.4428 35.113 22.4428 36.1685C22.4428 37.0218 22.2239 37.7516 21.786 38.358C21.3593 38.953 20.7699 39.3685 20.0176 39.6043C20.0063 39.6043 20.0007 39.6099 20.0007 39.6211C20.0007 39.6436 20.0063 39.6548 20.0176 39.6548C20.5004 39.9804 20.9439 40.6429 21.3481 41.6422L22.426 44.3706C22.5158 44.5839 22.4934 44.786 22.3586 44.9769C22.2239 45.1678 22.0442 45.2632 21.8197 45.2632C21.5277 45.2632 21.2639 45.1846 21.0281 45.0274C20.7923 44.859 20.6239 44.6401 20.5228 44.3706L19.4618 41.6422C19.226 41.0359 18.9621 40.6485 18.6702 40.4801C18.3895 40.3004 17.8505 40.2106 17.0534 40.2106H16.1944C16.0933 40.2106 16.0428 40.2611 16.0428 40.3622V44.3369C16.0428 44.5952 15.953 44.8141 15.7733 44.9938Z" fill="url(#paint12_linear_798_5655)"/>
<path d="M16.0428 34.5516V38.6106C16.0428 38.7116 16.0933 38.7622 16.1944 38.7622H17.0534C19.4337 38.7622 20.6239 37.9537 20.6239 36.3369C20.6239 35.652 20.3656 35.1411 19.8491 34.8043C19.3439 34.4562 18.5242 34.2822 17.3902 34.2822C16.9635 34.2822 16.5593 34.3158 16.1776 34.3832C16.0877 34.4057 16.0428 34.4618 16.0428 34.5516ZM15.7733 44.9938C15.5937 45.1734 15.3748 45.2632 15.1165 45.2632C14.8583 45.2632 14.6393 45.1734 14.4597 44.9938C14.28 44.8141 14.1902 44.5952 14.1902 44.3369V34.0127C14.1902 33.732 14.28 33.4906 14.4597 33.2885C14.6393 33.0751 14.8695 32.9572 15.1502 32.9348C15.9811 32.845 16.7839 32.8 17.5586 32.8C19.1755 32.8 20.3937 33.0976 21.2134 33.6927C22.033 34.2878 22.4428 35.113 22.4428 36.1685C22.4428 37.0218 22.2239 37.7516 21.786 38.358C21.3593 38.953 20.7699 39.3685 20.0176 39.6043C20.0063 39.6043 20.0007 39.6099 20.0007 39.6211C20.0007 39.6436 20.0063 39.6548 20.0176 39.6548C20.5004 39.9804 20.9439 40.6429 21.3481 41.6422L22.426 44.3706C22.5158 44.5839 22.4934 44.786 22.3586 44.9769C22.2239 45.1678 22.0442 45.2632 21.8197 45.2632C21.5277 45.2632 21.2639 45.1846 21.0281 45.0274C20.7923 44.859 20.6239 44.6401 20.5228 44.3706L19.4618 41.6422C19.226 41.0359 18.9621 40.6485 18.6702 40.4801C18.3895 40.3004 17.8505 40.2106 17.0534 40.2106H16.1944C16.0933 40.2106 16.0428 40.2611 16.0428 40.3622V44.3369C16.0428 44.5952 15.953 44.8141 15.7733 44.9938Z" fill="url(#paint13_linear_798_5655)"/>
<path d="M24.6864 45.2632C24.4282 45.2632 24.2036 45.1678 24.0127 44.9769C23.8218 44.786 23.7264 44.5615 23.7264 44.3032V33.9285C23.7264 33.6702 23.8218 33.4457 24.0127 33.2548C24.2036 33.0639 24.4282 32.9685 24.6864 32.9685H30.379C30.5924 32.9685 30.772 33.0415 30.918 33.1874C31.064 33.3334 31.1369 33.513 31.1369 33.7264C31.1369 33.9397 31.064 34.1194 30.918 34.2653C30.772 34.4113 30.5924 34.4843 30.379 34.4843H25.7306C25.6296 34.4843 25.579 34.5292 25.579 34.619V37.8359C25.579 37.9369 25.6296 37.9874 25.7306 37.9874H30.0759C30.278 37.9874 30.4464 38.0604 30.5812 38.2064C30.7271 38.3411 30.8001 38.5095 30.8001 38.7116C30.8001 38.9137 30.7271 39.0878 30.5812 39.2337C30.4464 39.3685 30.278 39.4359 30.0759 39.4359H25.7306C25.6296 39.4359 25.579 39.4864 25.579 39.5874V43.5959C25.579 43.6969 25.6296 43.7474 25.7306 43.7474H30.379C30.5924 43.7474 30.772 43.8204 30.918 43.9664C31.064 44.1124 31.1369 44.292 31.1369 44.5053C31.1369 44.7187 31.064 44.8983 30.918 45.0443C30.772 45.1903 30.5924 45.2632 30.379 45.2632H24.6864Z" fill="url(#paint14_linear_798_5655)"/>
<path d="M24.6864 45.2632C24.4282 45.2632 24.2036 45.1678 24.0127 44.9769C23.8218 44.786 23.7264 44.5615 23.7264 44.3032V33.9285C23.7264 33.6702 23.8218 33.4457 24.0127 33.2548C24.2036 33.0639 24.4282 32.9685 24.6864 32.9685H30.379C30.5924 32.9685 30.772 33.0415 30.918 33.1874C31.064 33.3334 31.1369 33.513 31.1369 33.7264C31.1369 33.9397 31.064 34.1194 30.918 34.2653C30.772 34.4113 30.5924 34.4843 30.379 34.4843H25.7306C25.6296 34.4843 25.579 34.5292 25.579 34.619V37.8359C25.579 37.9369 25.6296 37.9874 25.7306 37.9874H30.0759C30.278 37.9874 30.4464 38.0604 30.5812 38.2064C30.7271 38.3411 30.8001 38.5095 30.8001 38.7116C30.8001 38.9137 30.7271 39.0878 30.5812 39.2337C30.4464 39.3685 30.278 39.4359 30.0759 39.4359H25.7306C25.6296 39.4359 25.579 39.4864 25.579 39.5874V43.5959C25.579 43.6969 25.6296 43.7474 25.7306 43.7474H30.379C30.5924 43.7474 30.772 43.8204 30.918 43.9664C31.064 44.1124 31.1369 44.292 31.1369 44.5053C31.1369 44.7187 31.064 44.8983 30.918 45.0443C30.772 45.1903 30.5924 45.2632 30.379 45.2632H24.6864Z" fill="url(#paint15_linear_798_5655)"/>
<path d="M35.9198 39.7895C34.6398 39.3516 33.7135 38.8295 33.1409 38.2232C32.5795 37.6057 32.2988 36.8646 32.2988 36.0001C32.2988 35.012 32.6132 34.2316 33.2419 33.659C33.8707 33.0864 34.7353 32.8 35.8356 32.8C36.8686 32.8 37.7781 32.9236 38.5641 33.1706C38.7999 33.2492 38.9907 33.4008 39.1367 33.6253C39.2939 33.8386 39.3725 34.0801 39.3725 34.3495C39.3725 34.5404 39.2883 34.6864 39.1199 34.7874C38.9514 34.8885 38.7774 34.8997 38.5977 34.8211C37.7444 34.4618 36.8799 34.2822 36.0041 34.2822C35.3977 34.2822 34.9318 34.4337 34.6062 34.7369C34.2805 35.0401 34.1177 35.4611 34.1177 36.0001C34.1177 36.438 34.2693 36.8366 34.5725 37.1958C34.8756 37.5439 35.3248 37.819 35.9198 38.0211C37.402 38.5152 38.4293 39.0653 39.002 39.6716C39.5858 40.278 39.8778 41.0471 39.8778 41.979C39.8778 43.1131 39.5297 43.972 38.8335 44.5559C38.1374 45.1397 37.11 45.4317 35.7514 45.4317C34.8644 45.4317 34.0616 45.2969 33.343 45.0274C32.8153 44.8141 32.5514 44.3987 32.5514 43.7811C32.5514 43.5903 32.6356 43.4499 32.8041 43.3601C32.9725 43.2703 33.1409 43.2703 33.3093 43.3601C34.0055 43.7306 34.7634 43.9159 35.583 43.9159C37.2111 43.9159 38.0251 43.2703 38.0251 41.979C38.0251 41.485 37.8623 41.0639 37.5367 40.7159C37.2223 40.3678 36.6834 40.059 35.9198 39.7895Z" fill="url(#paint16_linear_798_5655)"/>
<path d="M35.9198 39.7895C34.6398 39.3516 33.7135 38.8295 33.1409 38.2232C32.5795 37.6057 32.2988 36.8646 32.2988 36.0001C32.2988 35.012 32.6132 34.2316 33.2419 33.659C33.8707 33.0864 34.7353 32.8 35.8356 32.8C36.8686 32.8 37.7781 32.9236 38.5641 33.1706C38.7999 33.2492 38.9907 33.4008 39.1367 33.6253C39.2939 33.8386 39.3725 34.0801 39.3725 34.3495C39.3725 34.5404 39.2883 34.6864 39.1199 34.7874C38.9514 34.8885 38.7774 34.8997 38.5977 34.8211C37.7444 34.4618 36.8799 34.2822 36.0041 34.2822C35.3977 34.2822 34.9318 34.4337 34.6062 34.7369C34.2805 35.0401 34.1177 35.4611 34.1177 36.0001C34.1177 36.438 34.2693 36.8366 34.5725 37.1958C34.8756 37.5439 35.3248 37.819 35.9198 38.0211C37.402 38.5152 38.4293 39.0653 39.002 39.6716C39.5858 40.278 39.8778 41.0471 39.8778 41.979C39.8778 43.1131 39.5297 43.972 38.8335 44.5559C38.1374 45.1397 37.11 45.4317 35.7514 45.4317C34.8644 45.4317 34.0616 45.2969 33.343 45.0274C32.8153 44.8141 32.5514 44.3987 32.5514 43.7811C32.5514 43.5903 32.6356 43.4499 32.8041 43.3601C32.9725 43.2703 33.1409 43.2703 33.3093 43.3601C34.0055 43.7306 34.7634 43.9159 35.583 43.9159C37.2111 43.9159 38.0251 43.2703 38.0251 41.979C38.0251 41.485 37.8623 41.0639 37.5367 40.7159C37.2223 40.3678 36.6834 40.059 35.9198 39.7895Z" fill="url(#paint17_linear_798_5655)"/>
<path d="M41.4091 34.5179C41.1957 34.5179 41.0105 34.445 40.8533 34.299C40.7073 34.1418 40.6343 33.9565 40.6343 33.7432C40.6343 33.5299 40.7073 33.3502 40.8533 33.2043C41.0105 33.0471 41.1957 32.9685 41.4091 32.9685H48.6175C48.8308 32.9685 49.0105 33.0471 49.1565 33.2043C49.3137 33.3502 49.3923 33.5299 49.3923 33.7432C49.3923 33.9565 49.3137 34.1418 49.1565 34.299C49.0105 34.445 48.8308 34.5179 48.6175 34.5179H46.0912C45.9901 34.5179 45.9396 34.5685 45.9396 34.6695V44.3369C45.9396 44.5952 45.8498 44.8141 45.6701 44.9938C45.4905 45.1734 45.2715 45.2632 45.0133 45.2632C44.755 45.2632 44.5361 45.1734 44.3564 44.9938C44.1768 44.8141 44.087 44.5952 44.087 44.3369V34.6695C44.087 34.5685 44.0364 34.5179 43.9354 34.5179H41.4091Z" fill="url(#paint18_linear_798_5655)"/>
<path d="M41.4091 34.5179C41.1957 34.5179 41.0105 34.445 40.8533 34.299C40.7073 34.1418 40.6343 33.9565 40.6343 33.7432C40.6343 33.5299 40.7073 33.3502 40.8533 33.2043C41.0105 33.0471 41.1957 32.9685 41.4091 32.9685H48.6175C48.8308 32.9685 49.0105 33.0471 49.1565 33.2043C49.3137 33.3502 49.3923 33.5299 49.3923 33.7432C49.3923 33.9565 49.3137 34.1418 49.1565 34.299C49.0105 34.445 48.8308 34.5179 48.6175 34.5179H46.0912C45.9901 34.5179 45.9396 34.5685 45.9396 34.6695V44.3369C45.9396 44.5952 45.8498 44.8141 45.6701 44.9938C45.4905 45.1734 45.2715 45.2632 45.0133 45.2632C44.755 45.2632 44.5361 45.1734 44.3564 44.9938C44.1768 44.8141 44.087 44.5952 44.087 44.3369V34.6695C44.087 34.5685 44.0364 34.5179 43.9354 34.5179H41.4091Z" fill="url(#paint19_linear_798_5655)"/>
<path d="M19.2434 49.4064L17.4749 55.1496C17.4637 55.1833 17.4693 55.2169 17.4918 55.2506C17.5142 55.2731 17.5423 55.2843 17.576 55.2843H20.9444C20.9781 55.2843 21.0062 55.2731 21.0286 55.2506C21.0511 55.2169 21.0567 55.1833 21.0455 55.1496L19.277 49.4064C19.277 49.3952 19.2714 49.3896 19.2602 49.3896C19.249 49.3896 19.2434 49.3952 19.2434 49.4064ZM15.0328 60.0001C14.797 60.0001 14.6062 59.9047 14.4602 59.7138C14.3254 59.5229 14.2974 59.3152 14.376 59.0906L17.9802 48.6148C18.07 48.3454 18.2328 48.1264 18.4686 47.958C18.7044 47.7896 18.9627 47.7054 19.2434 47.7054H19.3444C19.6363 47.7054 19.8946 47.7896 20.1191 47.958C20.3549 48.1264 20.5177 48.3454 20.6076 48.6148L24.2118 59.0906C24.2904 59.3152 24.2567 59.5229 24.1107 59.7138C23.976 59.9047 23.7907 60.0001 23.5549 60.0001H23.4876C23.2069 60.0001 22.9486 59.9159 22.7128 59.7475C22.4883 59.5791 22.3311 59.3601 22.2413 59.0906L21.5676 56.8675C21.5563 56.7777 21.4946 56.7327 21.3823 56.7327H17.1381C17.037 56.7327 16.9753 56.7777 16.9528 56.8675L16.2791 59.0906C16.2005 59.3601 16.0433 59.5791 15.8076 59.7475C15.583 59.9159 15.3247 60.0001 15.0328 60.0001Z" stroke="url(#paint20_linear_798_5655)" stroke-width="0.5" mask="url(#path-7-inside-1_798_5655)"/>
<path d="M26.9672 49.2885V53.718C26.9672 53.8078 27.0177 53.864 27.1188 53.8864C27.6914 53.965 28.2023 54.0043 28.6514 54.0043C29.6395 54.0043 30.3974 53.791 30.9251 53.3643C31.4528 52.9264 31.7167 52.3033 31.7167 51.4948C31.7167 50.6864 31.4584 50.0745 30.9419 49.659C30.4254 49.2324 29.6619 49.019 28.6514 49.019C28.1125 49.019 27.6016 49.0527 27.1188 49.1201C27.0177 49.1425 26.9672 49.1987 26.9672 49.2885ZM26.6977 59.7306C26.5181 59.9103 26.2991 60.0001 26.0409 60.0001C25.7826 60.0001 25.5637 59.9103 25.384 59.7306C25.2044 59.551 25.1146 59.3321 25.1146 59.0738V48.7496C25.1146 48.4801 25.2044 48.2387 25.384 48.0254C25.5637 47.812 25.7882 47.6941 26.0577 47.6717C27.0121 47.5818 27.9328 47.5369 28.8198 47.5369C30.3693 47.5369 31.5426 47.8682 32.3398 48.5306C33.137 49.1818 33.5356 50.1138 33.5356 51.3264C33.5356 54.0773 31.9637 55.4527 28.8198 55.4527C28.1574 55.4527 27.5847 55.4303 27.1019 55.3854C27.0121 55.3854 26.9672 55.4303 26.9672 55.5201V59.0738C26.9672 59.3321 26.8774 59.551 26.6977 59.7306Z" stroke="url(#paint21_linear_798_5655)" stroke-width="0.5" mask="url(#path-7-inside-1_798_5655)"/>
<path d="M35.9989 60.0001C35.7407 60.0001 35.5161 59.9047 35.3252 59.7138C35.1344 59.5229 35.0389 59.2984 35.0389 59.0401V48.6654C35.0389 48.4071 35.1344 48.1825 35.3252 47.9917C35.5161 47.8008 35.7407 47.7054 35.9989 47.7054H36.1C36.3582 47.7054 36.5828 47.8008 36.7737 47.9917C36.9645 48.1825 37.06 48.4071 37.06 48.6654V59.0401C37.06 59.2984 36.9645 59.5229 36.7737 59.7138C36.5828 59.9047 36.3582 60.0001 36.1 60.0001H35.9989Z" stroke="url(#paint22_linear_798_5655)" stroke-width="0.5" mask="url(#path-7-inside-1_798_5655)"/>
<path d="M16.0428 34.5516V38.6106C16.0428 38.7116 16.0933 38.7622 16.1944 38.7622H17.0534C19.4337 38.7622 20.6239 37.9537 20.6239 36.3369C20.6239 35.652 20.3656 35.1411 19.8491 34.8043C19.3439 34.4562 18.5242 34.2822 17.3902 34.2822C16.9635 34.2822 16.5593 34.3158 16.1776 34.3832C16.0877 34.4057 16.0428 34.4618 16.0428 34.5516ZM15.7733 44.9938C15.5937 45.1734 15.3748 45.2632 15.1165 45.2632C14.8583 45.2632 14.6393 45.1734 14.4597 44.9938C14.28 44.8141 14.1902 44.5952 14.1902 44.3369V34.0127C14.1902 33.732 14.28 33.4906 14.4597 33.2885C14.6393 33.0751 14.8695 32.9572 15.1502 32.9348C15.9811 32.845 16.7839 32.8 17.5586 32.8C19.1755 32.8 20.3937 33.0976 21.2134 33.6927C22.033 34.2878 22.4428 35.113 22.4428 36.1685C22.4428 37.0218 22.2239 37.7516 21.786 38.358C21.3593 38.953 20.7699 39.3685 20.0176 39.6043C20.0063 39.6043 20.0007 39.6099 20.0007 39.6211C20.0007 39.6436 20.0063 39.6548 20.0176 39.6548C20.5004 39.9804 20.9439 40.6429 21.3481 41.6422L22.426 44.3706C22.5158 44.5839 22.4934 44.786 22.3586 44.9769C22.2239 45.1678 22.0442 45.2632 21.8197 45.2632C21.5277 45.2632 21.2639 45.1846 21.0281 45.0274C20.7923 44.859 20.6239 44.6401 20.5228 44.3706L19.4618 41.6422C19.226 41.0359 18.9621 40.6485 18.6702 40.4801C18.3895 40.3004 17.8505 40.2106 17.0534 40.2106H16.1944C16.0933 40.2106 16.0428 40.2611 16.0428 40.3622V44.3369C16.0428 44.5952 15.953 44.8141 15.7733 44.9938Z" stroke="url(#paint23_linear_798_5655)" stroke-width="0.5" mask="url(#path-7-inside-1_798_5655)"/>
<path d="M24.6864 45.2632C24.4282 45.2632 24.2036 45.1678 24.0127 44.9769C23.8218 44.786 23.7264 44.5615 23.7264 44.3032V33.9285C23.7264 33.6702 23.8218 33.4457 24.0127 33.2548C24.2036 33.0639 24.4282 32.9685 24.6864 32.9685H30.379C30.5924 32.9685 30.772 33.0415 30.918 33.1874C31.064 33.3334 31.1369 33.513 31.1369 33.7264C31.1369 33.9397 31.064 34.1194 30.918 34.2653C30.772 34.4113 30.5924 34.4843 30.379 34.4843H25.7306C25.6296 34.4843 25.579 34.5292 25.579 34.619V37.8359C25.579 37.9369 25.6296 37.9874 25.7306 37.9874H30.0759C30.278 37.9874 30.4464 38.0604 30.5812 38.2064C30.7271 38.3411 30.8001 38.5095 30.8001 38.7116C30.8001 38.9137 30.7271 39.0878 30.5812 39.2337C30.4464 39.3685 30.278 39.4359 30.0759 39.4359H25.7306C25.6296 39.4359 25.579 39.4864 25.579 39.5874V43.5959C25.579 43.6969 25.6296 43.7474 25.7306 43.7474H30.379C30.5924 43.7474 30.772 43.8204 30.918 43.9664C31.064 44.1124 31.1369 44.292 31.1369 44.5053C31.1369 44.7187 31.064 44.8983 30.918 45.0443C30.772 45.1903 30.5924 45.2632 30.379 45.2632H24.6864Z" stroke="url(#paint24_linear_798_5655)" stroke-width="0.5" mask="url(#path-7-inside-1_798_5655)"/>
<path d="M35.9198 39.7895C34.6398 39.3516 33.7135 38.8295 33.1409 38.2232C32.5795 37.6057 32.2988 36.8646 32.2988 36.0001C32.2988 35.012 32.6132 34.2316 33.2419 33.659C33.8707 33.0864 34.7353 32.8 35.8356 32.8C36.8686 32.8 37.7781 32.9236 38.5641 33.1706C38.7999 33.2492 38.9907 33.4008 39.1367 33.6253C39.2939 33.8386 39.3725 34.0801 39.3725 34.3495C39.3725 34.5404 39.2883 34.6864 39.1199 34.7874C38.9514 34.8885 38.7774 34.8997 38.5977 34.8211C37.7444 34.4618 36.8799 34.2822 36.0041 34.2822C35.3977 34.2822 34.9318 34.4337 34.6062 34.7369C34.2805 35.0401 34.1177 35.4611 34.1177 36.0001C34.1177 36.438 34.2693 36.8366 34.5725 37.1958C34.8756 37.5439 35.3248 37.819 35.9198 38.0211C37.402 38.5152 38.4293 39.0653 39.002 39.6716C39.5858 40.278 39.8778 41.0471 39.8778 41.979C39.8778 43.1131 39.5297 43.972 38.8335 44.5559C38.1374 45.1397 37.11 45.4317 35.7514 45.4317C34.8644 45.4317 34.0616 45.2969 33.343 45.0274C32.8153 44.8141 32.5514 44.3987 32.5514 43.7811C32.5514 43.5903 32.6356 43.4499 32.8041 43.3601C32.9725 43.2703 33.1409 43.2703 33.3093 43.3601C34.0055 43.7306 34.7634 43.9159 35.583 43.9159C37.2111 43.9159 38.0251 43.2703 38.0251 41.979C38.0251 41.485 37.8623 41.0639 37.5367 40.7159C37.2223 40.3678 36.6834 40.059 35.9198 39.7895Z" stroke="url(#paint25_linear_798_5655)" stroke-width="0.5" mask="url(#path-7-inside-1_798_5655)"/>
<path d="M41.4091 34.5179C41.1957 34.5179 41.0105 34.445 40.8533 34.299C40.7073 34.1418 40.6343 33.9565 40.6343 33.7432C40.6343 33.5299 40.7073 33.3502 40.8533 33.2043C41.0105 33.0471 41.1957 32.9685 41.4091 32.9685H48.6175C48.8308 32.9685 49.0105 33.0471 49.1565 33.2043C49.3137 33.3502 49.3923 33.5299 49.3923 33.7432C49.3923 33.9565 49.3137 34.1418 49.1565 34.299C49.0105 34.445 48.8308 34.5179 48.6175 34.5179H46.0912C45.9901 34.5179 45.9396 34.5685 45.9396 34.6695V44.3369C45.9396 44.5952 45.8498 44.8141 45.6701 44.9938C45.4905 45.1734 45.2715 45.2632 45.0133 45.2632C44.755 45.2632 44.5361 45.1734 44.3564 44.9938C44.1768 44.8141 44.087 44.5952 44.087 44.3369V34.6695C44.087 34.5685 44.0364 34.5179 43.9354 34.5179H41.4091Z" stroke="url(#paint26_linear_798_5655)" stroke-width="0.5" mask="url(#path-7-inside-1_798_5655)"/>
<mask id="path-8-outside-2_798_5655" maskUnits="userSpaceOnUse" x="39.0002" y="41.1157" width="39" height="40" fill="black">
<rect fill="white" x="39.0002" y="41.1157" width="39" height="40"/>
<path d="M75.9606 65.0651L74.6542 64.311C75.0923 62.1625 75.094 59.9478 74.6592 57.7986L75.9606 57.0474C76.3605 56.8162 76.6522 56.4357 76.7716 55.9895C76.8911 55.5433 76.8285 55.068 76.5976 54.6679L73.0397 48.5041C72.9255 48.3057 72.7734 48.1318 72.592 47.9923C72.4106 47.8528 72.2035 47.7504 71.9825 47.691C71.7616 47.6315 71.531 47.6162 71.3041 47.646C71.0772 47.6757 70.8584 47.7498 70.6602 47.8641L69.3577 48.6153C67.7103 47.167 65.7933 46.0579 63.7166 45.3517V43.8583C63.7161 43.3963 63.5323 42.9534 63.2056 42.6267C62.879 42.3 62.436 42.1162 61.9741 42.1157H54.8572C54.3954 42.1165 53.9527 42.3004 53.6263 42.627C53.2998 42.9537 53.1162 43.3964 53.1157 43.8583V45.3547C51.0409 46.0631 49.1263 47.1738 47.4814 48.6232L46.1721 47.8641C45.9738 47.7497 45.7549 47.6754 45.5279 47.6456C45.3009 47.6158 45.0702 47.6311 44.8491 47.6905C44.628 47.7499 44.4208 47.8524 44.2394 47.992C44.0579 48.1316 43.9057 48.3056 43.7916 48.5041L40.2337 54.6679C40.1193 54.866 40.045 55.0848 40.0151 55.3116C39.9853 55.5384 40.0004 55.7689 40.0597 55.9899C40.1189 56.2108 40.2211 56.418 40.3604 56.5994C40.4997 56.7809 40.6734 56.9331 40.8716 57.0474L42.178 57.8016C41.7403 59.9503 41.7403 62.1652 42.178 64.3139L40.8765 65.0651C40.4767 65.2963 40.185 65.6768 40.0654 66.1229C39.9458 66.569 40.0081 67.0444 40.2386 67.4446L43.7916 73.6085C44.0225 74.0089 44.403 74.3012 44.8494 74.4212C45.2957 74.5412 45.7715 74.4791 46.1721 74.2484L47.4736 73.4972C49.1213 74.9456 51.0386 76.0546 53.1157 76.7608V78.2572C53.1162 78.719 53.2998 79.1618 53.6263 79.4885C53.9527 79.8151 54.3954 79.999 54.8572 79.9998H61.9741C62.436 79.9992 62.879 79.8155 63.2056 79.4888C63.5323 79.1621 63.7161 78.7192 63.7166 78.2572V76.7608C65.7911 76.0526 67.7054 74.9419 69.3498 73.4923L70.6602 74.2484C71.0603 74.479 71.5356 74.5415 71.9817 74.422C72.4278 74.3026 72.8083 74.0111 73.0397 73.6114L76.5986 67.4476C76.8298 67.047 76.8925 66.571 76.7728 66.1243C76.6532 65.6775 76.3611 65.2965 75.9606 65.0651ZM75.6348 66.8894L72.0768 73.0522C71.9933 73.1968 71.8557 73.3023 71.6943 73.3455C71.533 73.3887 71.3611 73.3661 71.2164 73.2826L69.5566 72.3247C69.4538 72.2651 69.3347 72.2401 69.2167 72.2532C69.0987 72.2663 68.988 72.3169 68.9009 72.3976C67.2102 73.963 65.1925 75.1329 62.994 75.8226C62.8802 75.8572 62.7805 75.9274 62.7096 76.023C62.6387 76.1185 62.6003 76.2343 62.6002 76.3532V78.2543C62.5999 78.4213 62.5335 78.5814 62.4154 78.6995C62.2973 78.8176 62.1371 78.8841 61.9701 78.8843H54.8572C54.6902 78.8841 54.5301 78.8176 54.412 78.6995C54.2939 78.5814 54.2274 78.4213 54.2271 78.2543V76.3532C54.227 76.2343 54.1887 76.1185 54.1178 76.023C54.0469 75.9274 53.9472 75.8572 53.8333 75.8226C51.6352 75.1345 49.6176 73.9662 47.9264 72.4025C47.8397 72.3215 47.7292 72.2706 47.6113 72.2573C47.4934 72.244 47.3743 72.269 47.2717 72.3286L45.6188 73.2826C45.4741 73.3661 45.3022 73.3887 45.1409 73.3455C44.9795 73.3023 44.8419 73.1968 44.7584 73.0522L41.1994 66.8894C41.1161 66.7446 41.0934 66.5727 41.1364 66.4113C41.1794 66.2499 41.2845 66.1121 41.4288 66.0279L43.0798 65.0749C43.1824 65.0157 43.2634 64.9251 43.3109 64.8165C43.3583 64.708 43.3698 64.587 43.3436 64.4715C42.831 62.2246 42.8331 59.891 43.3496 57.645C43.3756 57.5293 43.3641 57.4083 43.3167 57.2996C43.2692 57.1908 43.1883 57.1001 43.0857 57.0405L41.4288 56.0846C41.2842 56.0008 41.1786 55.8631 41.1353 55.7017C41.0919 55.5402 41.1143 55.3682 41.1975 55.2232L44.7564 49.0603C44.7977 48.9886 44.8527 48.9257 44.9183 48.8754C44.984 48.825 45.0589 48.788 45.1388 48.7666C45.2187 48.7452 45.3021 48.7398 45.3841 48.7506C45.4662 48.7615 45.5452 48.7885 45.6168 48.8299L47.2767 49.7878C47.3794 49.8474 47.4985 49.8724 47.6165 49.8593C47.7345 49.8462 47.8452 49.7956 47.9323 49.715C49.6213 48.1499 51.6368 46.9797 53.8333 46.289C53.9471 46.2542 54.0467 46.184 54.1176 46.0885C54.1885 45.993 54.2268 45.8773 54.2271 45.7583V43.8583C54.2274 43.6912 54.2939 43.5311 54.412 43.413C54.5301 43.2949 54.6902 43.2285 54.8572 43.2282H61.9731C62.1401 43.2285 62.3002 43.2949 62.4183 43.413C62.5364 43.5311 62.6029 43.6912 62.6031 43.8583V45.7593C62.6034 45.8782 62.6418 45.9939 62.7127 46.0894C62.7836 46.1849 62.8832 46.2552 62.9969 46.2899C65.1969 46.9773 67.2163 48.1456 68.9088 49.7101C68.9959 49.7907 69.1065 49.8414 69.2245 49.8547C69.3424 49.868 69.4616 49.8432 69.5644 49.7839L71.2174 48.8299C71.3621 48.7464 71.534 48.7238 71.6953 48.767C71.8566 48.8102 71.9942 48.9157 72.0778 49.0603L75.6358 55.2232C75.7193 55.368 75.742 55.54 75.6988 55.7015C75.6556 55.8631 75.5501 56.0008 75.4054 56.0846L73.7544 57.0376C73.6518 57.0969 73.5708 57.1874 73.5233 57.296C73.4759 57.4046 73.4644 57.5255 73.4906 57.6411C74.0032 59.8879 74.0012 62.2216 73.4847 64.4675C73.4583 64.5832 73.4696 64.7044 73.5171 64.8132C73.5646 64.922 73.6457 65.0127 73.7485 65.072L75.4054 66.0279C75.5499 66.1119 75.6552 66.2497 75.6982 66.4112C75.7412 66.5727 75.7184 66.7447 75.6348 66.8894Z"/>
</mask>
<path d="M75.9606 65.0651L74.6542 64.311C75.0923 62.1625 75.094 59.9478 74.6592 57.7986L75.9606 57.0474C76.3605 56.8162 76.6522 56.4357 76.7716 55.9895C76.8911 55.5433 76.8285 55.068 76.5976 54.6679L73.0397 48.5041C72.9255 48.3057 72.7734 48.1318 72.592 47.9923C72.4106 47.8528 72.2035 47.7504 71.9825 47.691C71.7616 47.6315 71.531 47.6162 71.3041 47.646C71.0772 47.6757 70.8584 47.7498 70.6602 47.8641L69.3577 48.6153C67.7103 47.167 65.7933 46.0579 63.7166 45.3517V43.8583C63.7161 43.3963 63.5323 42.9534 63.2056 42.6267C62.879 42.3 62.436 42.1162 61.9741 42.1157H54.8572C54.3954 42.1165 53.9527 42.3004 53.6263 42.627C53.2998 42.9537 53.1162 43.3964 53.1157 43.8583V45.3547C51.0409 46.0631 49.1263 47.1738 47.4814 48.6232L46.1721 47.8641C45.9738 47.7497 45.7549 47.6754 45.5279 47.6456C45.3009 47.6158 45.0702 47.6311 44.8491 47.6905C44.628 47.7499 44.4208 47.8524 44.2394 47.992C44.0579 48.1316 43.9057 48.3056 43.7916 48.5041L40.2337 54.6679C40.1193 54.866 40.045 55.0848 40.0151 55.3116C39.9853 55.5384 40.0004 55.7689 40.0597 55.9899C40.1189 56.2108 40.2211 56.418 40.3604 56.5994C40.4997 56.7809 40.6734 56.9331 40.8716 57.0474L42.178 57.8016C41.7403 59.9503 41.7403 62.1652 42.178 64.3139L40.8765 65.0651C40.4767 65.2963 40.185 65.6768 40.0654 66.1229C39.9458 66.569 40.0081 67.0444 40.2386 67.4446L43.7916 73.6085C44.0225 74.0089 44.403 74.3012 44.8494 74.4212C45.2957 74.5412 45.7715 74.4791 46.1721 74.2484L47.4736 73.4972C49.1213 74.9456 51.0386 76.0546 53.1157 76.7608V78.2572C53.1162 78.719 53.2998 79.1618 53.6263 79.4885C53.9527 79.8151 54.3954 79.999 54.8572 79.9998H61.9741C62.436 79.9992 62.879 79.8155 63.2056 79.4888C63.5323 79.1621 63.7161 78.7192 63.7166 78.2572V76.7608C65.7911 76.0526 67.7054 74.9419 69.3498 73.4923L70.6602 74.2484C71.0603 74.479 71.5356 74.5415 71.9817 74.422C72.4278 74.3026 72.8083 74.0111 73.0397 73.6114L76.5986 67.4476C76.8298 67.047 76.8925 66.571 76.7728 66.1243C76.6532 65.6775 76.3611 65.2965 75.9606 65.0651ZM75.6348 66.8894L72.0768 73.0522C71.9933 73.1968 71.8557 73.3023 71.6943 73.3455C71.533 73.3887 71.3611 73.3661 71.2164 73.2826L69.5566 72.3247C69.4538 72.2651 69.3347 72.2401 69.2167 72.2532C69.0987 72.2663 68.988 72.3169 68.9009 72.3976C67.2102 73.963 65.1925 75.1329 62.994 75.8226C62.8802 75.8572 62.7805 75.9274 62.7096 76.023C62.6387 76.1185 62.6003 76.2343 62.6002 76.3532V78.2543C62.5999 78.4213 62.5335 78.5814 62.4154 78.6995C62.2973 78.8176 62.1371 78.8841 61.9701 78.8843H54.8572C54.6902 78.8841 54.5301 78.8176 54.412 78.6995C54.2939 78.5814 54.2274 78.4213 54.2271 78.2543V76.3532C54.227 76.2343 54.1887 76.1185 54.1178 76.023C54.0469 75.9274 53.9472 75.8572 53.8333 75.8226C51.6352 75.1345 49.6176 73.9662 47.9264 72.4025C47.8397 72.3215 47.7292 72.2706 47.6113 72.2573C47.4934 72.244 47.3743 72.269 47.2717 72.3286L45.6188 73.2826C45.4741 73.3661 45.3022 73.3887 45.1409 73.3455C44.9795 73.3023 44.8419 73.1968 44.7584 73.0522L41.1994 66.8894C41.1161 66.7446 41.0934 66.5727 41.1364 66.4113C41.1794 66.2499 41.2845 66.1121 41.4288 66.0279L43.0798 65.0749C43.1824 65.0157 43.2634 64.9251 43.3109 64.8165C43.3583 64.708 43.3698 64.587 43.3436 64.4715C42.831 62.2246 42.8331 59.891 43.3496 57.645C43.3756 57.5293 43.3641 57.4083 43.3167 57.2996C43.2692 57.1908 43.1883 57.1001 43.0857 57.0405L41.4288 56.0846C41.2842 56.0008 41.1786 55.8631 41.1353 55.7017C41.0919 55.5402 41.1143 55.3682 41.1975 55.2232L44.7564 49.0603C44.7977 48.9886 44.8527 48.9257 44.9183 48.8754C44.984 48.825 45.0589 48.788 45.1388 48.7666C45.2187 48.7452 45.3021 48.7398 45.3841 48.7506C45.4662 48.7615 45.5452 48.7885 45.6168 48.8299L47.2767 49.7878C47.3794 49.8474 47.4985 49.8724 47.6165 49.8593C47.7345 49.8462 47.8452 49.7956 47.9323 49.715C49.6213 48.1499 51.6368 46.9797 53.8333 46.289C53.9471 46.2542 54.0467 46.184 54.1176 46.0885C54.1885 45.993 54.2268 45.8773 54.2271 45.7583V43.8583C54.2274 43.6912 54.2939 43.5311 54.412 43.413C54.5301 43.2949 54.6902 43.2285 54.8572 43.2282H61.9731C62.1401 43.2285 62.3002 43.2949 62.4183 43.413C62.5364 43.5311 62.6029 43.6912 62.6031 43.8583V45.7593C62.6034 45.8782 62.6418 45.9939 62.7127 46.0894C62.7836 46.1849 62.8832 46.2552 62.9969 46.2899C65.1969 46.9773 67.2163 48.1456 68.9088 49.7101C68.9959 49.7907 69.1065 49.8414 69.2245 49.8547C69.3424 49.868 69.4616 49.8432 69.5644 49.7839L71.2174 48.8299C71.3621 48.7464 71.534 48.7238 71.6953 48.767C71.8566 48.8102 71.9942 48.9157 72.0778 49.0603L75.6358 55.2232C75.7193 55.368 75.742 55.54 75.6988 55.7015C75.6556 55.8631 75.5501 56.0008 75.4054 56.0846L73.7544 57.0376C73.6518 57.0969 73.5708 57.1874 73.5233 57.296C73.4759 57.4046 73.4644 57.5255 73.4906 57.6411C74.0032 59.8879 74.0012 62.2216 73.4847 64.4675C73.4583 64.5832 73.4696 64.7044 73.5171 64.8132C73.5646 64.922 73.6457 65.0127 73.7485 65.072L75.4054 66.0279C75.5499 66.1119 75.6552 66.2497 75.6982 66.4112C75.7412 66.5727 75.7184 66.7447 75.6348 66.8894Z" fill="url(#paint27_linear_798_5655)"/>
<path d="M75.9606 65.0651L74.6542 64.311C75.0923 62.1625 75.094 59.9478 74.6592 57.7986L75.9606 57.0474C76.3605 56.8162 76.6522 56.4357 76.7716 55.9895C76.8911 55.5433 76.8285 55.068 76.5976 54.6679L73.0397 48.5041C72.9255 48.3057 72.7734 48.1318 72.592 47.9923C72.4106 47.8528 72.2035 47.7504 71.9825 47.691C71.7616 47.6315 71.531 47.6162 71.3041 47.646C71.0772 47.6757 70.8584 47.7498 70.6602 47.8641L69.3577 48.6153C67.7103 47.167 65.7933 46.0579 63.7166 45.3517V43.8583C63.7161 43.3963 63.5323 42.9534 63.2056 42.6267C62.879 42.3 62.436 42.1162 61.9741 42.1157H54.8572C54.3954 42.1165 53.9527 42.3004 53.6263 42.627C53.2998 42.9537 53.1162 43.3964 53.1157 43.8583V45.3547C51.0409 46.0631 49.1263 47.1738 47.4814 48.6232L46.1721 47.8641C45.9738 47.7497 45.7549 47.6754 45.5279 47.6456C45.3009 47.6158 45.0702 47.6311 44.8491 47.6905C44.628 47.7499 44.4208 47.8524 44.2394 47.992C44.0579 48.1316 43.9057 48.3056 43.7916 48.5041L40.2337 54.6679C40.1193 54.866 40.045 55.0848 40.0151 55.3116C39.9853 55.5384 40.0004 55.7689 40.0597 55.9899C40.1189 56.2108 40.2211 56.418 40.3604 56.5994C40.4997 56.7809 40.6734 56.9331 40.8716 57.0474L42.178 57.8016C41.7403 59.9503 41.7403 62.1652 42.178 64.3139L40.8765 65.0651C40.4767 65.2963 40.185 65.6768 40.0654 66.1229C39.9458 66.569 40.0081 67.0444 40.2386 67.4446L43.7916 73.6085C44.0225 74.0089 44.403 74.3012 44.8494 74.4212C45.2957 74.5412 45.7715 74.4791 46.1721 74.2484L47.4736 73.4972C49.1213 74.9456 51.0386 76.0546 53.1157 76.7608V78.2572C53.1162 78.719 53.2998 79.1618 53.6263 79.4885C53.9527 79.8151 54.3954 79.999 54.8572 79.9998H61.9741C62.436 79.9992 62.879 79.8155 63.2056 79.4888C63.5323 79.1621 63.7161 78.7192 63.7166 78.2572V76.7608C65.7911 76.0526 67.7054 74.9419 69.3498 73.4923L70.6602 74.2484C71.0603 74.479 71.5356 74.5415 71.9817 74.422C72.4278 74.3026 72.8083 74.0111 73.0397 73.6114L76.5986 67.4476C76.8298 67.047 76.8925 66.571 76.7728 66.1243C76.6532 65.6775 76.3611 65.2965 75.9606 65.0651ZM75.6348 66.8894L72.0768 73.0522C71.9933 73.1968 71.8557 73.3023 71.6943 73.3455C71.533 73.3887 71.3611 73.3661 71.2164 73.2826L69.5566 72.3247C69.4538 72.2651 69.3347 72.2401 69.2167 72.2532C69.0987 72.2663 68.988 72.3169 68.9009 72.3976C67.2102 73.963 65.1925 75.1329 62.994 75.8226C62.8802 75.8572 62.7805 75.9274 62.7096 76.023C62.6387 76.1185 62.6003 76.2343 62.6002 76.3532V78.2543C62.5999 78.4213 62.5335 78.5814 62.4154 78.6995C62.2973 78.8176 62.1371 78.8841 61.9701 78.8843H54.8572C54.6902 78.8841 54.5301 78.8176 54.412 78.6995C54.2939 78.5814 54.2274 78.4213 54.2271 78.2543V76.3532C54.227 76.2343 54.1887 76.1185 54.1178 76.023C54.0469 75.9274 53.9472 75.8572 53.8333 75.8226C51.6352 75.1345 49.6176 73.9662 47.9264 72.4025C47.8397 72.3215 47.7292 72.2706 47.6113 72.2573C47.4934 72.244 47.3743 72.269 47.2717 72.3286L45.6188 73.2826C45.4741 73.3661 45.3022 73.3887 45.1409 73.3455C44.9795 73.3023 44.8419 73.1968 44.7584 73.0522L41.1994 66.8894C41.1161 66.7446 41.0934 66.5727 41.1364 66.4113C41.1794 66.2499 41.2845 66.1121 41.4288 66.0279L43.0798 65.0749C43.1824 65.0157 43.2634 64.9251 43.3109 64.8165C43.3583 64.708 43.3698 64.587 43.3436 64.4715C42.831 62.2246 42.8331 59.891 43.3496 57.645C43.3756 57.5293 43.3641 57.4083 43.3167 57.2996C43.2692 57.1908 43.1883 57.1001 43.0857 57.0405L41.4288 56.0846C41.2842 56.0008 41.1786 55.8631 41.1353 55.7017C41.0919 55.5402 41.1143 55.3682 41.1975 55.2232L44.7564 49.0603C44.7977 48.9886 44.8527 48.9257 44.9183 48.8754C44.984 48.825 45.0589 48.788 45.1388 48.7666C45.2187 48.7452 45.3021 48.7398 45.3841 48.7506C45.4662 48.7615 45.5452 48.7885 45.6168 48.8299L47.2767 49.7878C47.3794 49.8474 47.4985 49.8724 47.6165 49.8593C47.7345 49.8462 47.8452 49.7956 47.9323 49.715C49.6213 48.1499 51.6368 46.9797 53.8333 46.289C53.9471 46.2542 54.0467 46.184 54.1176 46.0885C54.1885 45.993 54.2268 45.8773 54.2271 45.7583V43.8583C54.2274 43.6912 54.2939 43.5311 54.412 43.413C54.5301 43.2949 54.6902 43.2285 54.8572 43.2282H61.9731C62.1401 43.2285 62.3002 43.2949 62.4183 43.413C62.5364 43.5311 62.6029 43.6912 62.6031 43.8583V45.7593C62.6034 45.8782 62.6418 45.9939 62.7127 46.0894C62.7836 46.1849 62.8832 46.2552 62.9969 46.2899C65.1969 46.9773 67.2163 48.1456 68.9088 49.7101C68.9959 49.7907 69.1065 49.8414 69.2245 49.8547C69.3424 49.868 69.4616 49.8432 69.5644 49.7839L71.2174 48.8299C71.3621 48.7464 71.534 48.7238 71.6953 48.767C71.8566 48.8102 71.9942 48.9157 72.0778 49.0603L75.6358 55.2232C75.7193 55.368 75.742 55.54 75.6988 55.7015C75.6556 55.8631 75.5501 56.0008 75.4054 56.0846L73.7544 57.0376C73.6518 57.0969 73.5708 57.1874 73.5233 57.296C73.4759 57.4046 73.4644 57.5255 73.4906 57.6411C74.0032 59.8879 74.0012 62.2216 73.4847 64.4675C73.4583 64.5832 73.4696 64.7044 73.5171 64.8132C73.5646 64.922 73.6457 65.0127 73.7485 65.072L75.4054 66.0279C75.5499 66.1119 75.6552 66.2497 75.6982 66.4112C75.7412 66.5727 75.7184 66.7447 75.6348 66.8894Z" stroke="url(#paint28_linear_798_5655)" stroke-width="0.4" mask="url(#path-8-outside-2_798_5655)"/>
<path d="M58.756 50.0237C56.4952 50.0237 54.2851 50.6941 52.4053 51.9502C50.5254 53.2062 49.0603 54.9915 48.1951 57.0803C47.3299 59.169 47.1035 61.4674 47.5446 63.6849C47.9857 65.9023 49.0744 67.9391 50.673 69.5378C52.2717 71.1364 54.3085 72.2251 56.5259 72.6662C58.7433 73.1073 61.0418 72.8809 63.1305 72.0157C65.2193 71.1505 67.0046 69.6854 68.2606 67.8055C69.5167 65.9257 70.1871 63.7156 70.1871 61.4548C70.1837 58.4241 68.9782 55.5186 66.8352 53.3756C64.6922 51.2326 61.7867 50.0271 58.756 50.0237ZM58.756 71.7536C56.7191 71.7536 54.728 71.1496 53.0343 70.0179C51.3407 68.8863 50.0207 67.2778 49.2412 65.3959C48.4617 63.5141 48.2577 61.4433 48.6551 59.4456C49.0525 57.4478 50.0334 55.6127 51.4737 54.1724C52.914 52.7321 54.7491 51.7512 56.7468 51.3539C58.7446 50.9565 60.8153 51.1604 62.6972 51.9399C64.5791 52.7194 66.1875 54.0394 67.3192 55.7331C68.4508 57.4267 69.0548 59.4179 69.0548 61.4548C69.0519 64.1853 67.9659 66.8031 66.0351 68.7339C64.1044 70.6647 61.4865 71.7506 58.756 71.7536Z" fill="url(#paint29_linear_798_5655)"/>
<path d="M58.7591 71.8786H58.7592C61.5224 71.8748 64.1713 70.7753 66.125 68.8213C68.0786 66.8672 69.1776 64.2181 69.1808 61.4549V61.4548C69.1808 59.393 68.5694 57.3776 67.424 55.6634C66.2785 53.9492 64.6504 52.6131 62.7456 51.8242C60.8408 51.0353 58.7448 50.829 56.7227 51.2314C54.7006 51.6338 52.8433 52.6267 51.3856 54.0847C49.9279 55.5427 48.9353 57.4003 48.5333 59.4224C48.1313 61.4446 48.338 63.5405 49.1273 65.4452C49.9166 67.3499 51.2529 68.9777 52.9674 70.1228C54.6818 71.268 56.6973 71.879 58.7591 71.8786ZM52.4769 52.0527C54.3365 50.8107 56.5227 50.1481 58.7589 50.1487C61.7559 50.1529 64.6289 51.3455 66.7479 53.465C68.8668 55.5845 70.0587 58.4579 70.0621 61.4549C70.0621 63.6911 69.3989 65.8771 68.1565 67.7364C66.914 69.5957 65.1481 71.0449 63.082 71.9005C61.0159 72.7562 58.7425 72.9799 56.5492 72.5434C54.356 72.1069 52.3414 71.0298 50.7604 69.4483C49.1793 67.8668 48.1027 65.852 47.6668 63.6587C47.2309 61.4653 47.4552 59.1919 48.3114 57.1261C49.1676 55.0602 50.6172 53.2946 52.4769 52.0527Z" stroke="url(#paint30_linear_798_5655)" stroke-width="0.25" stroke-miterlimit="10"/>
<path d="M62.3984 48.5879C62.7843 48.7109 63.1683 48.8537 63.5414 49.0122C63.6102 49.0416 63.6842 49.0567 63.759 49.0565C63.8872 49.0564 64.0114 49.0119 64.1105 48.9307C64.2097 48.8494 64.2777 48.7364 64.3029 48.6107C64.3282 48.485 64.3092 48.3545 64.2492 48.2412C64.1892 48.1279 64.0918 48.0389 63.9736 47.9893C63.569 47.817 63.1516 47.6615 62.7331 47.5285C62.6624 47.502 62.5871 47.4902 62.5117 47.4938C62.4362 47.4973 62.3623 47.5162 62.2944 47.5493C62.2266 47.5823 62.1661 47.6289 62.1168 47.686C62.0675 47.7432 62.0303 47.8098 62.0075 47.8818C61.9848 47.9538 61.9769 48.0297 61.9845 48.1048C61.992 48.1799 62.0147 48.2528 62.0513 48.3188C62.0879 48.3849 62.1375 48.4428 62.1972 48.489C62.2569 48.5353 62.3253 48.5689 62.3984 48.5879Z" fill="url(#paint31_linear_798_5655)"/>
<path d="M46.8118 67.3725L46.8118 67.3725L46.813 67.3747C47.031 67.766 47.2643 68.1534 47.5181 68.5236L47.518 68.5236L47.5209 68.5275C47.5555 68.574 47.5804 68.6271 47.594 68.6835C47.6076 68.7398 47.6097 68.7984 47.6002 68.8556C47.5907 68.9128 47.5697 68.9675 47.5385 69.0164C47.5074 69.0654 47.4667 69.1075 47.4188 69.1403C47.371 69.1731 47.3171 69.196 47.2602 69.2075C47.2034 69.2189 47.1448 69.2188 47.088 69.2072C47.0312 69.1955 46.9773 69.1725 46.9296 69.1395C46.8819 69.1065 46.8413 69.0642 46.8103 69.0152L46.8104 69.0152L46.8077 69.0113C46.5365 68.6159 46.2854 68.2071 46.0553 67.7865L46.0553 67.7865L46.0547 67.7854C46.0268 67.7357 46.0091 67.6809 46.0026 67.6242C45.9961 67.5675 46.0008 67.5102 46.0166 67.4554C46.0324 67.4006 46.0589 67.3494 46.0946 67.305C46.1303 67.2605 46.1745 67.2235 46.2245 67.1962C46.2746 67.1689 46.3296 67.1518 46.3863 67.1459C46.443 67.14 46.5004 67.1454 46.555 67.1618C46.6096 67.1782 46.6604 67.2052 46.7045 67.2414C46.7486 67.2776 46.7851 67.3221 46.8118 67.3725Z" fill="url(#paint32_linear_798_5655)" stroke="url(#paint33_linear_798_5655)" stroke-width="0.25"/>
<path d="M57.2789 74.0923C54.2862 73.8298 51.4749 72.5461 49.3164 70.4566C49.2646 70.403 49.2025 70.3603 49.1338 70.3312C49.0652 70.302 48.9914 70.2869 48.9168 70.2869C48.8422 70.2868 48.7684 70.3017 48.6997 70.3308C48.631 70.3599 48.5688 70.4024 48.5169 70.456C48.465 70.5095 48.4244 70.573 48.3975 70.6426C48.3706 70.7121 48.358 70.7864 48.3604 70.861C48.3628 70.9355 48.3802 71.0088 48.4115 71.0765C48.4428 71.1442 48.4873 71.2049 48.5426 71.2551C50.8845 73.5213 53.9341 74.9141 57.1805 75.1999H57.2287C57.3705 75.1975 57.5061 75.1411 57.6076 75.0421C57.7092 74.9431 57.7692 74.8091 57.7752 74.6674C57.7812 74.5257 57.7329 74.3871 57.6401 74.2798C57.5473 74.1725 57.4171 74.1048 57.276 74.0904L57.2789 74.0923Z" fill="url(#paint34_linear_798_5655)"/>
<path d="M57.3779 74.1179C54.3849 73.8555 51.5731 72.5718 49.4144 70.4822C49.3075 70.3852 49.167 70.3335 49.0228 70.3382C48.8785 70.3428 48.7416 70.4034 48.6412 70.507C48.5407 70.6107 48.4845 70.7493 48.4844 70.8937C48.4843 71.038 48.5403 71.1768 48.6406 71.2806C50.9827 73.5471 54.0327 74.9398 57.2794 75.2254C57.2955 75.2264 57.3116 75.2264 57.3277 75.2254C57.4695 75.2231 57.605 75.1666 57.7066 75.0677C57.8082 74.9687 57.8681 74.8346 57.8742 74.6929C57.8802 74.5512 57.8319 74.4126 57.7391 74.3053C57.6463 74.1981 57.516 74.1303 57.3749 74.1159L57.3779 74.1179Z" stroke="url(#paint35_linear_798_5655)" stroke-width="0.25" stroke-miterlimit="10"/>
<path d="M66.4171 49.3284C66.2953 49.2505 66.148 49.2231 66.0064 49.2519C65.8648 49.2807 65.7399 49.3635 65.6583 49.4828C65.5766 49.602 65.5446 49.7484 65.569 49.8908C65.5934 50.0333 65.6723 50.1607 65.789 50.246C68.3681 52.0056 70.2339 54.6287 71.0501 57.6424C71.0819 57.7604 71.1516 57.8647 71.2486 57.9391C71.3456 58.0135 71.4644 58.0538 71.5866 58.0539C71.6358 58.054 71.6847 58.0477 71.7323 58.0352C71.875 57.9969 71.9966 57.9036 72.0704 57.7756C72.1443 57.6477 72.1643 57.4957 72.1261 57.353C71.24 54.0834 69.2154 51.2376 66.4171 49.3284Z" fill="url(#paint36_linear_798_5655)"/>
<path d="M62.4364 48.4553L62.4365 48.4552L62.4298 48.4534C62.3731 48.4387 62.32 48.4127 62.2738 48.3768C62.2275 48.341 62.189 48.2961 62.1606 48.2448C62.1323 48.1936 62.1147 48.1372 62.1088 48.0789C62.103 48.0207 62.1091 47.9619 62.1267 47.906C62.1444 47.8502 62.1732 47.7986 62.2114 47.7543C62.2497 47.7099 62.2965 47.6739 62.3492 47.6482C62.4018 47.6226 62.4591 47.608 62.5176 47.6052C62.576 47.6025 62.6345 47.6116 62.6893 47.6322L62.6892 47.6323L62.6951 47.6342C63.1099 47.7669 63.5237 47.9201 63.9246 48.0909L63.9247 48.0909C64.0161 48.1297 64.0912 48.1988 64.1375 48.2866C64.1838 48.3744 64.1984 48.4755 64.1789 48.5727C64.1593 48.67 64.1068 48.7576 64.0302 48.8207C63.9537 48.8837 63.8578 48.9184 63.7588 48.919C63.7011 48.9189 63.644 48.907 63.5911 48.884L63.5911 48.884L63.5904 48.8837C63.2146 48.7237 62.826 48.5796 62.4364 48.4553Z" stroke="url(#paint37_linear_798_5655)" stroke-width="0.25" stroke-miterlimit="10"/>
<path d="M72.1293 57.3404L72.0085 57.3728C72.0232 57.4275 72.0269 57.4846 72.0195 57.5407C72.0121 57.5969 71.9937 57.651 71.9653 57.7001C71.9369 57.7491 71.8992 57.7921 71.8542 57.8266C71.8093 57.861 71.758 57.8863 71.7032 57.9009L71.7031 57.901C71.666 57.9109 71.6278 57.9161 71.5895 57.9164C71.4949 57.9162 71.4029 57.8849 71.3279 57.8273C71.2527 57.7697 71.1986 57.6888 71.1739 57.5973L71.1739 57.5972C70.3504 54.5545 68.4667 51.9063 65.8626 50.1301L65.7921 50.2334L65.8627 50.1302C65.8159 50.0983 65.7759 50.0574 65.745 50.0099C65.714 49.9625 65.6927 49.9094 65.6822 49.8538C65.6718 49.7981 65.6724 49.7409 65.684 49.6855C65.6957 49.63 65.7181 49.5774 65.7501 49.5307C65.7821 49.4839 65.8229 49.4439 65.8704 49.4129C65.9178 49.382 65.9709 49.3606 66.0266 49.3502C66.0822 49.3397 66.1394 49.3403 66.1949 49.352C66.2503 49.3636 66.3029 49.3861 66.3497 49.4181L66.3498 49.4181C69.1241 51.3104 71.131 54.1316 72.0086 57.3731L72.1293 57.3404ZM72.1293 57.3404C71.2438 54.0702 69.2191 51.2239 66.4202 49.3149L71.0532 57.6299C71.085 57.7479 71.1548 57.8521 71.2518 57.9265C71.3488 58.0009 71.4675 58.0413 71.5898 58.0414C71.639 58.0411 71.6879 58.0344 71.7355 58.0217C71.8061 58.0028 71.8723 57.9703 71.9303 57.9258C71.9883 57.8814 72.037 57.8259 72.0735 57.7626C72.1101 57.6994 72.1338 57.6295 72.1434 57.5571C72.153 57.4846 72.1482 57.411 72.1293 57.3404Z" stroke="url(#paint38_linear_798_5655)" stroke-width="0.25" stroke-miterlimit="10"/>
<defs>
<linearGradient id="paint0_linear_798_5655" x1="76.8423" y1="47.3686" x2="6.84213" y2="-4.73677" gradientUnits="userSpaceOnUse">
<stop stop-color="white" stop-opacity="0.9"/>
<stop offset="0.04" stop-color="white" stop-opacity="0.85"/>
<stop offset="0.28" stop-color="white" stop-opacity="0.5"/>
<stop offset="0.65" stop-color="#FAFBFC" stop-opacity="0.4"/>
<stop offset="1" stop-color="#F0EFEF" stop-opacity="0"/>
</linearGradient>
<linearGradient id="paint1_linear_798_5655" x1="66.316" y1="51.0528" x2="25.2632" y2="7.89476" gradientUnits="userSpaceOnUse">
<stop stop-color="white" stop-opacity="0.9"/>
<stop offset="0.28" stop-color="white" stop-opacity="0.5"/>
<stop offset="0.65" stop-color="#FAFBFC" stop-opacity="0.4"/>
<stop offset="1" stop-color="#F0EFEF" stop-opacity="0"/>
</linearGradient>
<radialGradient id="paint2_radial_798_5655" cx="0" cy="0" r="1" gradientUnits="userSpaceOnUse" gradientTransform="translate(78.4435 46.1403) rotate(90) scale(0.828718 7.99339)">
<stop stop-color="white"/>
<stop offset="0.07" stop-color="white" stop-opacity="0.93"/>
<stop offset="1" stop-color="white" stop-opacity="0"/>
</radialGradient>
<radialGradient id="paint3_radial_798_5655" cx="0" cy="0" r="1" gradientUnits="userSpaceOnUse" gradientTransform="translate(79.1329 46.2283) scale(0.914826 8.01346)">
<stop stop-color="white"/>
<stop offset="0.07" stop-color="white" stop-opacity="0.93"/>
<stop offset="1" stop-color="white" stop-opacity="0"/>
</radialGradient>
<radialGradient id="paint4_radial_798_5655" cx="0" cy="0" r="1" gradientUnits="userSpaceOnUse" gradientTransform="translate(13.77 17.6974) rotate(90) scale(0.828718 7.99759)">
<stop stop-color="white"/>
<stop offset="0.07" stop-color="white" stop-opacity="0.93"/>
<stop offset="1" stop-color="white" stop-opacity="0"/>
</radialGradient>
<radialGradient id="paint5_radial_798_5655" cx="0" cy="0" r="1" gradientUnits="userSpaceOnUse" gradientTransform="translate(14.3034 17.7026) scale(0.915304 8.01346)">
<stop stop-color="white"/>
<stop offset="0.07" stop-color="white" stop-opacity="0.93"/>
<stop offset="1" stop-color="white" stop-opacity="0"/>
</radialGradient>
<linearGradient id="paint6_linear_798_5655" x1="38" y1="60" x2="-9.5268" y2="23.648" gradientUnits="userSpaceOnUse">
<stop stop-color="white" stop-opacity="0.9"/>
<stop offset="0.04" stop-color="white" stop-opacity="0.85"/>
<stop offset="0.28" stop-color="white" stop-opacity="0.5"/>
<stop offset="0.65" stop-color="#FAFBFC" stop-opacity="0.4"/>
<stop offset="1" stop-color="#F0EFEF" stop-opacity="0"/>
</linearGradient>
<linearGradient id="paint7_linear_798_5655" x1="14.1933" y1="46.3997" x2="49.3862" y2="46.3997" gradientUnits="userSpaceOnUse">
<stop stop-color="#79A540"/>
<stop offset="0.2" stop-color="#94C63D"/>
<stop offset="0.39" stop-color="#98CA3C"/>
<stop offset="0.59" stop-color="#93C53E"/>
<stop offset="0.74" stop-color="#9DCB3B"/>
<stop offset="0.9" stop-color="#A6CE39"/>
<stop offset="1" stop-color="#A6CE39"/>
</linearGradient>
<linearGradient id="paint8_linear_798_5655" x1="38" y1="60" x2="-9.5268" y2="23.648" gradientUnits="userSpaceOnUse">
<stop stop-color="white" stop-opacity="0.9"/>
<stop offset="0.04" stop-color="white" stop-opacity="0.85"/>
<stop offset="0.28" stop-color="white" stop-opacity="0.5"/>
<stop offset="0.65" stop-color="#FAFBFC" stop-opacity="0.4"/>
<stop offset="1" stop-color="#F0EFEF" stop-opacity="0"/>
</linearGradient>
<linearGradient id="paint9_linear_798_5655" x1="14.1933" y1="46.3997" x2="49.3862" y2="46.3997" gradientUnits="userSpaceOnUse">
<stop stop-color="#79A540"/>
<stop offset="0.2" stop-color="#94C63D"/>
<stop offset="0.39" stop-color="#98CA3C"/>
<stop offset="0.59" stop-color="#93C53E"/>
<stop offset="0.74" stop-color="#9DCB3B"/>
<stop offset="0.9" stop-color="#A6CE39"/>
<stop offset="1" stop-color="#A6CE39"/>
</linearGradient>
<linearGradient id="paint10_linear_798_5655" x1="38" y1="60" x2="-9.5268" y2="23.648" gradientUnits="userSpaceOnUse">
<stop stop-color="white" stop-opacity="0.9"/>
<stop offset="0.04" stop-color="white" stop-opacity="0.85"/>
<stop offset="0.28" stop-color="white" stop-opacity="0.5"/>
<stop offset="0.65" stop-color="#FAFBFC" stop-opacity="0.4"/>
<stop offset="1" stop-color="#F0EFEF" stop-opacity="0"/>
</linearGradient>
<linearGradient id="paint11_linear_798_5655" x1="14.1933" y1="46.3997" x2="49.3862" y2="46.3997" gradientUnits="userSpaceOnUse">
<stop stop-color="#79A540"/>
<stop offset="0.2" stop-color="#94C63D"/>
<stop offset="0.39" stop-color="#98CA3C"/>
<stop offset="0.59" stop-color="#93C53E"/>
<stop offset="0.74" stop-color="#9DCB3B"/>
<stop offset="0.9" stop-color="#A6CE39"/>
<stop offset="1" stop-color="#A6CE39"/>
</linearGradient>
<linearGradient id="paint12_linear_798_5655" x1="38" y1="60" x2="-9.5268" y2="23.648" gradientUnits="userSpaceOnUse">
<stop stop-color="white" stop-opacity="0.9"/>
<stop offset="0.04" stop-color="white" stop-opacity="0.85"/>
<stop offset="0.28" stop-color="white" stop-opacity="0.5"/>
<stop offset="0.65" stop-color="#FAFBFC" stop-opacity="0.4"/>
<stop offset="1" stop-color="#F0EFEF" stop-opacity="0"/>
</linearGradient>
<linearGradient id="paint13_linear_798_5655" x1="14.1933" y1="46.3997" x2="49.3862" y2="46.3997" gradientUnits="userSpaceOnUse">
<stop stop-color="#79A540"/>
<stop offset="0.2" stop-color="#94C63D"/>
<stop offset="0.39" stop-color="#98CA3C"/>
<stop offset="0.59" stop-color="#93C53E"/>
<stop offset="0.74" stop-color="#9DCB3B"/>
<stop offset="0.9" stop-color="#A6CE39"/>
<stop offset="1" stop-color="#A6CE39"/>
</linearGradient>
<linearGradient id="paint14_linear_798_5655" x1="38" y1="60" x2="-9.5268" y2="23.648" gradientUnits="userSpaceOnUse">
<stop stop-color="white" stop-opacity="0.9"/>
<stop offset="0.04" stop-color="white" stop-opacity="0.85"/>
<stop offset="0.28" stop-color="white" stop-opacity="0.5"/>
<stop offset="0.65" stop-color="#FAFBFC" stop-opacity="0.4"/>
<stop offset="1" stop-color="#F0EFEF" stop-opacity="0"/>
</linearGradient>
<linearGradient id="paint15_linear_798_5655" x1="14.1933" y1="46.3997" x2="49.3862" y2="46.3997" gradientUnits="userSpaceOnUse">
<stop stop-color="#79A540"/>
<stop offset="0.2" stop-color="#94C63D"/>
<stop offset="0.39" stop-color="#98CA3C"/>
<stop offset="0.59" stop-color="#93C53E"/>
<stop offset="0.74" stop-color="#9DCB3B"/>
<stop offset="0.9" stop-color="#A6CE39"/>
<stop offset="1" stop-color="#A6CE39"/>
</linearGradient>
<linearGradient id="paint16_linear_798_5655" x1="38" y1="60" x2="-9.5268" y2="23.648" gradientUnits="userSpaceOnUse">
<stop stop-color="white" stop-opacity="0.9"/>
<stop offset="0.04" stop-color="white" stop-opacity="0.85"/>
<stop offset="0.28" stop-color="white" stop-opacity="0.5"/>
<stop offset="0.65" stop-color="#FAFBFC" stop-opacity="0.4"/>
<stop offset="1" stop-color="#F0EFEF" stop-opacity="0"/>
</linearGradient>
<linearGradient id="paint17_linear_798_5655" x1="14.1933" y1="46.3997" x2="49.3862" y2="46.3997" gradientUnits="userSpaceOnUse">
<stop stop-color="#79A540"/>
<stop offset="0.2" stop-color="#94C63D"/>
<stop offset="0.39" stop-color="#98CA3C"/>
<stop offset="0.59" stop-color="#93C53E"/>
<stop offset="0.74" stop-color="#9DCB3B"/>
<stop offset="0.9" stop-color="#A6CE39"/>
<stop offset="1" stop-color="#A6CE39"/>
</linearGradient>
<linearGradient id="paint18_linear_798_5655" x1="38" y1="60" x2="-9.5268" y2="23.648" gradientUnits="userSpaceOnUse">
<stop stop-color="white" stop-opacity="0.9"/>
<stop offset="0.04" stop-color="white" stop-opacity="0.85"/>
<stop offset="0.28" stop-color="white" stop-opacity="0.5"/>
<stop offset="0.65" stop-color="#FAFBFC" stop-opacity="0.4"/>
<stop offset="1" stop-color="#F0EFEF" stop-opacity="0"/>
</linearGradient>
<linearGradient id="paint19_linear_798_5655" x1="14.1933" y1="46.3997" x2="49.3862" y2="46.3997" gradientUnits="userSpaceOnUse">
<stop stop-color="#79A540"/>
<stop offset="0.2" stop-color="#94C63D"/>
<stop offset="0.39" stop-color="#98CA3C"/>
<stop offset="0.59" stop-color="#93C53E"/>
<stop offset="0.74" stop-color="#9DCB3B"/>
<stop offset="0.9" stop-color="#A6CE39"/>
<stop offset="1" stop-color="#A6CE39"/>
</linearGradient>
<linearGradient id="paint20_linear_798_5655" x1="36" y1="58.5" x2="18.7847" y2="39.2077" gradientUnits="userSpaceOnUse">
<stop stop-color="white" stop-opacity="0.9"/>
<stop offset="0.28" stop-color="white" stop-opacity="0.5"/>
<stop offset="0.65" stop-color="#FAFBFC" stop-opacity="0.4"/>
<stop offset="1" stop-color="#F0EFEF" stop-opacity="0"/>
</linearGradient>
<linearGradient id="paint21_linear_798_5655" x1="36" y1="58.5" x2="18.7847" y2="39.2077" gradientUnits="userSpaceOnUse">
<stop stop-color="white" stop-opacity="0.9"/>
<stop offset="0.28" stop-color="white" stop-opacity="0.5"/>
<stop offset="0.65" stop-color="#FAFBFC" stop-opacity="0.4"/>
<stop offset="1" stop-color="#F0EFEF" stop-opacity="0"/>
</linearGradient>
<linearGradient id="paint22_linear_798_5655" x1="36" y1="58.5" x2="18.7847" y2="39.2077" gradientUnits="userSpaceOnUse">
<stop stop-color="white" stop-opacity="0.9"/>
<stop offset="0.28" stop-color="white" stop-opacity="0.5"/>
<stop offset="0.65" stop-color="#FAFBFC" stop-opacity="0.4"/>
<stop offset="1" stop-color="#F0EFEF" stop-opacity="0"/>
</linearGradient>
<linearGradient id="paint23_linear_798_5655" x1="36" y1="58.5" x2="18.7847" y2="39.2077" gradientUnits="userSpaceOnUse">
<stop stop-color="white" stop-opacity="0.9"/>
<stop offset="0.28" stop-color="white" stop-opacity="0.5"/>
<stop offset="0.65" stop-color="#FAFBFC" stop-opacity="0.4"/>
<stop offset="1" stop-color="#F0EFEF" stop-opacity="0"/>
</linearGradient>
<linearGradient id="paint24_linear_798_5655" x1="36" y1="58.5" x2="18.7847" y2="39.2077" gradientUnits="userSpaceOnUse">
<stop stop-color="white" stop-opacity="0.9"/>
<stop offset="0.28" stop-color="white" stop-opacity="0.5"/>
<stop offset="0.65" stop-color="#FAFBFC" stop-opacity="0.4"/>
<stop offset="1" stop-color="#F0EFEF" stop-opacity="0"/>
</linearGradient>
<linearGradient id="paint25_linear_798_5655" x1="36" y1="58.5" x2="18.7847" y2="39.2077" gradientUnits="userSpaceOnUse">
<stop stop-color="white" stop-opacity="0.9"/>
<stop offset="0.28" stop-color="white" stop-opacity="0.5"/>
<stop offset="0.65" stop-color="#FAFBFC" stop-opacity="0.4"/>
<stop offset="1" stop-color="#F0EFEF" stop-opacity="0"/>
</linearGradient>
<linearGradient id="paint26_linear_798_5655" x1="36" y1="58.5" x2="18.7847" y2="39.2077" gradientUnits="userSpaceOnUse">
<stop stop-color="white" stop-opacity="0.9"/>
<stop offset="0.28" stop-color="white" stop-opacity="0.5"/>
<stop offset="0.65" stop-color="#FAFBFC" stop-opacity="0.4"/>
<stop offset="1" stop-color="#F0EFEF" stop-opacity="0"/>
</linearGradient>
<linearGradient id="paint27_linear_798_5655" x1="72.069" y1="69.2118" x2="36.8529" y2="48.1733" gradientUnits="userSpaceOnUse">
<stop stop-color="white" stop-opacity="0.9"/>
<stop offset="0.28" stop-color="white" stop-opacity="0.5"/>
<stop offset="0.65" stop-color="#FAFBFC" stop-opacity="0.4"/>
<stop offset="1" stop-color="#F0EFEF" stop-opacity="0.3"/>
</linearGradient>
<linearGradient id="paint28_linear_798_5655" x1="72.069" y1="69.2118" x2="36.8529" y2="48.1733" gradientUnits="userSpaceOnUse">
<stop stop-color="white" stop-opacity="0.9"/>
<stop offset="0.28" stop-color="white" stop-opacity="0.5"/>
<stop offset="0.65" stop-color="#FAFBFC" stop-opacity="0.4"/>
<stop offset="1" stop-color="#F0EFEF" stop-opacity="0.3"/>
</linearGradient>
<linearGradient id="paint29_linear_798_5655" x1="66.5558" y1="69.0291" x2="50.6557" y2="53.5889" gradientUnits="userSpaceOnUse">
<stop stop-color="white" stop-opacity="0.9"/>
<stop offset="0.04" stop-color="white" stop-opacity="0.85"/>
<stop offset="0.28" stop-color="white" stop-opacity="0.5"/>
<stop offset="0.65" stop-color="#FAFBFC" stop-opacity="0.4"/>
<stop offset="1" stop-color="#F0EFEF" stop-opacity="0.3"/>
</linearGradient>
<linearGradient id="paint30_linear_798_5655" x1="53.0405" y1="54.5485" x2="68.2819" y2="68.1229" gradientUnits="userSpaceOnUse">
<stop stop-color="#F0EFEF" stop-opacity="0"/>
<stop offset="0.614562" stop-color="#FAFBFC" stop-opacity="0.4"/>
<stop offset="0.848709" stop-color="white" stop-opacity="0.5"/>
<stop offset="1" stop-color="white" stop-opacity="0.9"/>
</linearGradient>
<linearGradient id="paint31_linear_798_5655" x1="62.0056" y1="48.2787" x2="64.3103" y2="48.2787" gradientUnits="userSpaceOnUse">
<stop stop-color="white" stop-opacity="0.9"/>
<stop offset="0.04" stop-color="white" stop-opacity="0.85"/>
<stop offset="0.28" stop-color="white" stop-opacity="0.5"/>
<stop offset="0.65" stop-color="#FAFBFC" stop-opacity="0.4"/>
<stop offset="1" stop-color="#F0EFEF" stop-opacity="0.3"/>
</linearGradient>
<linearGradient id="paint32_linear_798_5655" x1="45.8777" y1="68.1733" x2="47.7197" y2="68.1733" gradientUnits="userSpaceOnUse">
<stop stop-color="white" stop-opacity="0.9"/>
<stop offset="0.04" stop-color="white" stop-opacity="0.85"/>
<stop offset="0.28" stop-color="white" stop-opacity="0.5"/>
<stop offset="0.65" stop-color="#FAFBFC" stop-opacity="0.4"/>
<stop offset="1" stop-color="#F0EFEF" stop-opacity="0.3"/>
</linearGradient>
<linearGradient id="paint33_linear_798_5655" x1="46.9556" y1="68.2322" x2="47.6774" y2="68.7019" gradientUnits="userSpaceOnUse">
<stop stop-color="#F0EFEF" stop-opacity="0"/>
<stop offset="0.614562" stop-color="#FAFBFC" stop-opacity="0.4"/>
<stop offset="0.848709" stop-color="white" stop-opacity="0.5"/>
<stop offset="1" stop-color="white" stop-opacity="0.9"/>
</linearGradient>
<linearGradient id="paint34_linear_798_5655" x1="48.3713" y1="72.7505" x2="57.7859" y2="72.7505" gradientUnits="userSpaceOnUse">
<stop stop-color="white" stop-opacity="0.9"/>
<stop offset="0.04" stop-color="white" stop-opacity="0.85"/>
<stop offset="0.28" stop-color="white" stop-opacity="0.5"/>
<stop offset="0.65" stop-color="#FAFBFC" stop-opacity="0.4"/>
<stop offset="1" stop-color="#F0EFEF" stop-opacity="0.3"/>
</linearGradient>
<linearGradient id="paint35_linear_798_5655" x1="50.8319" y1="71.3054" x2="53.6905" y2="76.196" gradientUnits="userSpaceOnUse">
<stop stop-color="#F0EFEF" stop-opacity="0"/>
<stop offset="0.614562" stop-color="#FAFBFC" stop-opacity="0.4"/>
<stop offset="0.848709" stop-color="white" stop-opacity="0.5"/>
<stop offset="1" stop-color="white" stop-opacity="0.9"/>
</linearGradient>
<linearGradient id="paint36_linear_798_5655" x1="65.5468" y1="53.6425" x2="72.1428" y2="53.6425" gradientUnits="userSpaceOnUse">
<stop stop-color="white" stop-opacity="0.9"/>
<stop offset="0.04" stop-color="white" stop-opacity="0.85"/>
<stop offset="0.28" stop-color="white" stop-opacity="0.5"/>
<stop offset="0.65" stop-color="#FAFBFC" stop-opacity="0.4"/>
<stop offset="1" stop-color="#F0EFEF" stop-opacity="0.3"/>
</linearGradient>
<linearGradient id="paint37_linear_798_5655" x1="63.3387" y1="48.2972" x2="63.8606" y2="48.9304" gradientUnits="userSpaceOnUse">
<stop stop-color="#F0EFEF" stop-opacity="0"/>
<stop offset="0.614562" stop-color="#FAFBFC" stop-opacity="0.4"/>
<stop offset="0.848709" stop-color="white" stop-opacity="0.5"/>
<stop offset="1" stop-color="white" stop-opacity="0.9"/>
</linearGradient>
<linearGradient id="paint38_linear_798_5655" x1="67.1994" y1="50.9641" x2="72.6637" y2="54.6035" gradientUnits="userSpaceOnUse">
<stop stop-color="#F0EFEF" stop-opacity="0"/>
<stop offset="0.614562" stop-color="#FAFBFC" stop-opacity="0.4"/>
<stop offset="0.848709" stop-color="white" stop-opacity="0.5"/>
<stop offset="1" stop-color="white" stop-opacity="0.9"/>
</linearGradient>
</defs>
</svg>
