<svg width="72" height="82" viewBox="0 0 72 82" fill="none" xmlns="http://www.w3.org/2000/svg">
<path d="M40.1374 38.3575H38.4806C38.3383 37.8179 38.0837 37.3138 37.733 36.8775H40.1374C40.2356 36.8775 40.3328 36.8583 40.4235 36.8211C40.5142 36.7839 40.5966 36.7294 40.666 36.6607C40.7355 36.592 40.7905 36.5104 40.8281 36.4206C40.8657 36.3309 40.885 36.2346 40.885 36.1375C40.885 36.0403 40.8657 35.9441 40.8281 35.8543C40.7905 35.7645 40.7355 35.6829 40.666 35.6142C40.5966 35.5455 40.5142 35.491 40.4235 35.4538C40.3328 35.4166 40.2356 35.3975 40.1374 35.3975H31.9038C31.7056 35.3975 31.5154 35.4754 31.3752 35.6142C31.235 35.753 31.1562 35.9412 31.1562 36.1375C31.1562 36.3337 31.235 36.5219 31.3752 36.6607C31.5154 36.7995 31.7056 36.8775 31.9038 36.8775H34.5002C34.9941 36.877 35.478 37.0159 35.8949 37.2781C36.3118 37.5402 36.6446 37.9147 36.8541 38.3575H31.9038C31.7056 38.3575 31.5154 38.4354 31.3752 38.5742C31.235 38.713 31.1562 38.9012 31.1562 39.0975C31.1562 39.2937 31.235 39.4819 31.3752 39.6207C31.5154 39.7595 31.7056 39.8375 31.9038 39.8375H37.137C37.0494 40.4525 36.7407 41.0156 36.2674 41.4234C35.7942 41.8312 35.1882 42.0563 34.5608 42.0575H31.8028C31.7528 42.0475 31.7013 42.0475 31.6513 42.0575L31.5098 42.1275L31.4189 42.1875C31.3768 42.2225 31.3394 42.2629 31.3078 42.3075L31.2472 42.4175C31.2372 42.4602 31.2372 42.5047 31.2472 42.5475C31.1921 42.6198 31.1604 42.707 31.1562 42.7975V42.8975C31.1462 42.947 31.1462 42.998 31.1562 43.0475C31.1736 43.0969 31.1974 43.144 31.227 43.1875C31.2273 43.2054 31.2321 43.223 31.2409 43.2387C31.2497 43.2544 31.2623 43.2677 31.2775 43.2775L35.7731 48.4975C35.8394 48.571 35.9198 48.6309 36.0095 48.6737C36.0992 48.7165 36.1966 48.7414 36.296 48.747C36.3954 48.7526 36.495 48.7387 36.589 48.7062C36.6831 48.6737 36.7697 48.6231 36.844 48.5575C36.9183 48.4918 36.9788 48.4123 37.022 48.3235C37.0653 48.2347 37.0904 48.1383 37.0961 48.0399C37.1017 47.9415 37.0877 47.8429 37.0548 47.7498C37.022 47.6568 36.9709 47.571 36.9046 47.4975L33.4899 43.4975H34.5002C35.5289 43.5017 36.5219 43.124 37.2831 42.439C38.0443 41.7541 38.5184 40.8115 38.6119 39.7975H40.1172C40.3155 39.7975 40.5056 39.7195 40.6458 39.5807C40.786 39.4419 40.8648 39.2537 40.8648 39.0575C40.8648 38.8612 40.786 38.673 40.6458 38.5342C40.5056 38.3954 40.3155 38.3175 40.1172 38.3175L40.1374 38.3575Z" fill="url(#paint0_linear_833_6083)"/>
<path d="M40.1374 38.3575H38.4806C38.3383 37.8179 38.0837 37.3138 37.733 36.8775H40.1374C40.2356 36.8775 40.3328 36.8583 40.4235 36.8211C40.5142 36.7839 40.5966 36.7294 40.666 36.6607C40.7355 36.592 40.7905 36.5104 40.8281 36.4206C40.8657 36.3309 40.885 36.2346 40.885 36.1375C40.885 36.0403 40.8657 35.9441 40.8281 35.8543C40.7905 35.7645 40.7355 35.6829 40.666 35.6142C40.5966 35.5455 40.5142 35.491 40.4235 35.4538C40.3328 35.4166 40.2356 35.3975 40.1374 35.3975H31.9038C31.7056 35.3975 31.5154 35.4754 31.3752 35.6142C31.235 35.753 31.1562 35.9412 31.1562 36.1375C31.1562 36.3337 31.235 36.5219 31.3752 36.6607C31.5154 36.7995 31.7056 36.8775 31.9038 36.8775H34.5002C34.9941 36.877 35.478 37.0159 35.8949 37.2781C36.3118 37.5402 36.6446 37.9147 36.8541 38.3575H31.9038C31.7056 38.3575 31.5154 38.4354 31.3752 38.5742C31.235 38.713 31.1562 38.9012 31.1562 39.0975C31.1562 39.2937 31.235 39.4819 31.3752 39.6207C31.5154 39.7595 31.7056 39.8375 31.9038 39.8375H37.137C37.0494 40.4525 36.7407 41.0156 36.2674 41.4234C35.7942 41.8312 35.1882 42.0563 34.5608 42.0575H31.8028C31.7528 42.0475 31.7013 42.0475 31.6513 42.0575L31.5098 42.1275L31.4189 42.1875C31.3768 42.2225 31.3394 42.2629 31.3078 42.3075L31.2472 42.4175C31.2372 42.4602 31.2372 42.5047 31.2472 42.5475C31.1921 42.6198 31.1604 42.707 31.1562 42.7975V42.8975C31.1462 42.947 31.1462 42.998 31.1562 43.0475C31.1736 43.0969 31.1974 43.144 31.227 43.1875C31.2273 43.2054 31.2321 43.223 31.2409 43.2387C31.2497 43.2544 31.2623 43.2677 31.2775 43.2775L35.7731 48.4975C35.8394 48.571 35.9198 48.6309 36.0095 48.6737C36.0992 48.7165 36.1966 48.7414 36.296 48.747C36.3954 48.7526 36.495 48.7387 36.589 48.7062C36.6831 48.6737 36.7697 48.6231 36.844 48.5575C36.9183 48.4918 36.9788 48.4123 37.022 48.3235C37.0653 48.2347 37.0904 48.1383 37.0961 48.0399C37.1017 47.9415 37.0877 47.8429 37.0548 47.7498C37.022 47.6568 36.9709 47.571 36.9046 47.4975L33.4899 43.4975H34.5002C35.5289 43.5017 36.5219 43.124 37.2831 42.439C38.0443 41.7541 38.5184 40.8115 38.6119 39.7975H40.1172C40.3155 39.7975 40.5056 39.7195 40.6458 39.5807C40.786 39.4419 40.8648 39.2537 40.8648 39.0575C40.8648 38.8612 40.786 38.673 40.6458 38.5342C40.5056 38.3954 40.3155 38.3175 40.1172 38.3175L40.1374 38.3575Z" stroke="url(#paint1_linear_833_6083)" stroke-width="0.31" stroke-miterlimit="10"/>
<path fill-rule="evenodd" clip-rule="evenodd" d="M56.2308 51.3476L49.3712 47.4276V34.2676L55.9883 30.4976C56.0293 30.4726 56.0667 30.4424 56.0995 30.4076C55.8267 29.8876 55.5236 29.4076 55.2003 28.8876V29.0476L48.5529 32.8476L36.8137 26.1576V18.4976H36.056H35.1568V26.1276L23.3873 32.6376L16.9419 28.7776C16.6287 29.2476 16.3358 29.7776 16.0529 30.2376H16.1236L22.3771 33.9076V47.4976L15.8508 51.2276C16.1438 51.7976 16.457 52.3476 16.7904 52.8876V52.5876L23.1146 48.9776L35.2377 55.9776V63.4976H36.1368H36.8945V55.9476L48.8458 49.0276L55.362 52.7476V52.8576C55.7156 52.3676 55.958 51.8676 56.2308 51.3476ZM47.3102 46.4976C47.3116 46.85 47.219 47.1965 47.0416 47.5021C46.8641 47.8076 46.6083 48.0613 46.3 48.2376L36.6722 53.7376C36.3651 53.9131 36.0166 54.0055 35.662 54.0055C35.3073 54.0055 34.9589 53.9131 34.6517 53.7376L25.024 48.2376C24.7156 48.0613 24.4598 47.8076 24.2824 47.5021C24.105 47.1965 24.0123 46.85 24.0137 46.4976V35.4976C24.0123 35.1451 24.105 34.7986 24.2824 34.493C24.4598 34.1875 24.7156 33.9338 25.024 33.7576L34.6517 28.2576C34.9589 28.082 35.3073 27.9896 35.662 27.9896C36.0166 27.9896 36.3651 28.082 36.6722 28.2576L46.3 33.7576C46.6083 33.9338 46.8641 34.1875 47.0416 34.493C47.219 34.7986 47.3116 35.1451 47.3102 35.4976V46.4976Z" fill="url(#paint2_linear_833_6083)"/>
<path fill-rule="evenodd" clip-rule="evenodd" d="M56.2308 51.2876L49.3712 47.3676V34.2076L55.9883 30.4176C56.0315 30.3959 56.0695 30.3652 56.0995 30.3276C55.8267 29.8176 55.5236 29.3276 55.2003 28.8176V28.9776L48.5529 32.7776L36.8137 26.0876V18.4976H36.056H35.1568V26.1176L23.3873 32.5776L16.9419 28.7076C16.6287 29.1876 16.3358 29.7076 16.0529 30.1676H16.1236L22.3771 33.8376V47.4176L15.8508 51.1476C16.1438 51.7076 16.457 52.2676 16.7904 52.7976V52.4976L23.1146 48.8776L35.2377 55.8776V63.4476C35.5306 63.4476 35.8337 63.4476 36.1368 63.4476H36.8945V55.8876L48.8458 48.9576L55.362 52.6876V52.7976C55.7156 52.3076 55.958 51.8076 56.2308 51.2876ZM47.3102 46.4376C47.3116 46.79 47.219 47.1365 47.0416 47.4421C46.8641 47.7476 46.6083 48.0014 46.3 48.1776L36.6722 53.6776C36.3651 53.8531 36.0166 53.9455 35.662 53.9455C35.3073 53.9455 34.9589 53.8531 34.6517 53.6776L25.024 48.1776C24.7156 48.0014 24.4598 47.7476 24.2824 47.4421C24.105 47.1365 24.0123 46.79 24.0137 46.4376V35.4376C24.0123 35.0851 24.105 34.7386 24.2824 34.4331C24.4598 34.1275 24.7156 33.8738 25.024 33.6976L34.6517 28.1876C34.9608 28.0177 35.3085 27.9286 35.662 27.9286C36.0155 27.9286 36.3632 28.0177 36.6722 28.1876L46.3 33.6976C46.6083 33.8738 46.8641 34.1275 47.0416 34.4331C47.219 34.7386 47.3116 35.0851 47.3102 35.4376V46.4376Z" stroke="url(#paint3_linear_833_6083)" stroke-width="0.25" stroke-miterlimit="10"/>
<path fill-rule="evenodd" clip-rule="evenodd" d="M70.3036 51.4977L69.9096 51.2877L63.8481 47.7877V33.9477L70.637 30.0377C70.72 29.9756 70.7851 29.893 70.8258 29.7983C70.8666 29.7036 70.8816 29.5999 70.8694 29.4977V21.9477C70.8694 20.8677 70.7683 20.8177 70.1016 20.4677L69.7076 20.2477L63.4238 16.6477C63.3243 16.5706 63.2016 16.5288 63.0752 16.5288C62.9489 16.5288 62.8262 16.5706 62.7267 16.6477L55.9075 20.4277L43.8248 13.4977V6.42766C43.8248 5.34766 43.7339 5.29766 43.0671 4.94766L42.663 4.72766L36.3893 1.12766C36.2922 1.04528 36.1686 1 36.0408 1C35.9129 1 35.7893 1.04528 35.6922 1.12766L28.7417 4.95766L28.5396 5.07766C28.3274 5.19766 28.1153 5.32766 28.1153 5.61766V13.4977L15.9922 20.4977L15.6083 20.2877L9.2437 16.6477C9.14419 16.5706 9.02149 16.5288 8.89516 16.5288C8.76883 16.5288 8.64613 16.5706 8.54662 16.6477L1.62636 20.4977L1.41421 20.6077C1.21215 20.7277 1 20.8477 1 21.1377V29.1377C1 29.7377 1.09092 29.7677 1.61626 30.0677C3.78831 31.3577 6.02098 32.5877 8.21323 33.8577V47.8577L1.62636 51.4977L1.41421 51.6177C1.21215 51.7377 1 51.8677 1 52.1477V60.1477C1 60.7477 1.09092 60.7777 1.61626 61.0777C3.83882 62.4977 6.21293 63.7377 8.43549 65.0677C8.94062 65.3577 8.99113 65.3177 9.44575 65.0677L15.8609 61.3777L27.984 68.3777V75.9977C27.984 76.5977 28.085 76.6277 28.6103 76.9277C30.9642 78.1977 33.2878 79.4977 35.5104 80.7977C36.0155 81.0877 36.0761 81.0477 36.5813 80.7977L43.4813 76.7977C43.5781 76.7477 43.6582 76.6711 43.712 76.577C43.7658 76.483 43.7909 76.3755 43.7844 76.2677V68.3677L56.0691 61.3677H56.1499C58.322 62.6577 60.5648 63.8877 62.757 65.1677C63.252 65.4577 63.3127 65.4177 63.7673 65.1677L70.6673 61.1677C70.7641 61.1177 70.8442 61.0411 70.898 60.947C70.9518 60.853 70.9769 60.7455 70.9704 60.6377V52.9677C71.0613 51.8977 70.9704 51.8477 70.3036 51.4977ZM69.7581 22.1377V29.1977L63.6966 32.7377V25.7377L69.7581 22.1377ZM63.1005 17.6977L68.9095 21.2777L63.1409 24.7477L57.1905 21.1977L63.1005 17.6977ZM56.3116 22.0377L62.5651 25.7277V32.7277L56.3116 29.0977V22.0377ZM42.6832 6.61766V13.6777L36.6217 17.2177V10.2177L42.6832 6.61766ZM36.0256 2.17766L41.8346 5.75766L36.066 9.21766L30.1156 5.67766L36.0256 2.17766ZM29.2266 6.49766L35.5104 10.1977V17.1977L29.2468 13.5577L29.2266 6.49766ZM15.5578 22.1377V28.9477C15.5078 29.0443 15.4769 29.1495 15.4669 29.2577L9.50636 32.7377V25.7377L15.5578 22.1377ZM8.91031 17.6977L14.7092 21.2777L8.94062 24.7477L2.99021 21.1977L8.91031 17.6977ZM2.11128 29.0977V22.0377L8.36477 25.7277V32.7277L2.11128 29.0977ZM8.36477 63.7577L2.11128 60.1177V53.0577L8.36477 56.7477V63.7577ZM8.94062 55.7577L2.99021 52.2177L8.8598 48.7377H8.95072L14.7092 52.2877L8.94062 55.7577ZM15.5578 60.2077L9.49626 63.7477V56.7477L15.5578 53.1577V60.2077ZM35.5104 79.4977L29.2468 75.8577V68.9277C29.3332 68.9477 29.4231 68.9477 29.5095 68.9277L35.5104 72.4977V79.4977ZM36.0862 71.4977L30.1358 67.9577L35.8539 64.5677H35.965C36.0421 64.5781 36.1203 64.5781 36.1974 64.5677L41.8043 68.0177V68.0877L36.0862 71.4977ZM42.7034 75.9477L36.6419 79.4877V72.4977L42.4812 69.0277C42.5511 69.0425 42.6234 69.0425 42.6933 69.0277L42.7034 75.9477ZM55.3316 52.8577V59.9277L42.8145 67.0777L42.663 66.9977L36.7833 63.6277V63.4977H36.0155H35.1164V63.7377L29.0548 67.0577L16.7095 59.9477V52.9477C16.7095 52.9477 16.7095 52.8777 16.7095 52.8477C16.3761 52.3077 16.0629 51.7577 15.77 51.1877L15.6083 51.2777L9.6478 47.8877V33.8877L16.0528 30.1977C16.3256 29.6977 16.6287 29.1977 16.9318 28.7377L16.7196 28.6077V21.8677L28.974 14.8677L29.0649 14.8077C31.0855 15.9877 33.106 17.1177 35.1265 18.2877V18.4977H36.0256H36.7934V18.3677L42.9964 14.7977C43.0423 14.843 43.0931 14.8833 43.1479 14.9177L55.1801 21.7977V28.8577C55.5034 29.3577 55.8064 29.8577 56.0893 30.3777L56.1802 30.3077C58.2008 31.5077 60.3122 32.6677 62.363 33.8577V47.9877L56.3015 51.3677C55.9277 51.8677 55.6347 52.3677 55.3316 52.8577ZM62.7267 63.7577L56.4732 60.1177V53.3077C56.5834 53.3278 56.6964 53.3278 56.8066 53.3077L62.7267 56.7877V63.7577ZM63.3026 55.7577L57.3521 52.2177L63.2621 48.7177L69.0711 52.2877L63.3026 55.7577ZM69.9197 60.2077L63.8582 63.7477V56.7477L69.9197 53.1577V60.2077Z" fill="url(#paint4_linear_833_6083)"/>
<path fill-rule="evenodd" clip-rule="evenodd" d="M70.3036 51.4977L69.9096 51.2877L63.8481 47.7877V33.9477L70.637 30.0377C70.72 29.9756 70.7851 29.893 70.8258 29.7983C70.8666 29.7036 70.8816 29.5999 70.8694 29.4977V21.9477C70.8694 20.8677 70.7683 20.8177 70.1016 20.4677L69.7076 20.2477L63.4238 16.6477C63.3243 16.5706 63.2016 16.5288 63.0752 16.5288C62.9489 16.5288 62.8262 16.5706 62.7267 16.6477L55.9075 20.4277L43.8248 13.4977V6.42766C43.8248 5.34766 43.7339 5.29766 43.0671 4.94766L42.663 4.72766L36.3893 1.12766C36.2922 1.04528 36.1686 1 36.0408 1C35.9129 1 35.7893 1.04528 35.6922 1.12766L28.7417 4.95766L28.5396 5.07766C28.3275 5.19766 28.1153 5.32766 28.1153 5.61766V13.4977L15.9922 20.4977L15.6083 20.2877L9.2437 16.6477C9.14419 16.5706 9.02149 16.5288 8.89516 16.5288C8.76883 16.5288 8.64613 16.5706 8.54662 16.6477L1.62636 20.4977L1.41421 20.6077C1.21215 20.7277 1 20.8477 1 21.1377V29.1377C1 29.7377 1.09092 29.7677 1.61626 30.0677C3.78831 31.3577 6.02098 32.5877 8.21323 33.8577V47.8577L1.62636 51.4977L1.41421 51.6177C1.21215 51.7377 1 51.8677 1 52.1477V60.1477C1 60.7477 1.09092 60.7777 1.61626 61.0777C3.83882 62.4977 6.21293 63.7377 8.43549 65.0677C8.94062 65.3577 8.99113 65.3177 9.44575 65.0677L15.8609 61.3777L27.984 68.3777V75.9977C27.984 76.5977 28.085 76.6277 28.6103 76.9277C30.9642 78.1977 33.2878 79.4977 35.5104 80.7977C36.0155 81.0877 36.0761 81.0477 36.5813 80.7977L43.4813 76.7977C43.5781 76.7477 43.6582 76.6711 43.712 76.577C43.7658 76.483 43.7909 76.3755 43.7844 76.2677V68.3677L56.0691 61.3677H56.1499C58.322 62.6577 60.5648 63.8877 62.757 65.1677C63.252 65.4577 63.3127 65.4177 63.7673 65.1677L70.6673 61.1677C70.7641 61.1177 70.8442 61.0411 70.898 60.947C70.9518 60.853 70.9769 60.7455 70.9704 60.6377V52.9677C71.0613 51.8977 70.9704 51.8477 70.3036 51.4977ZM69.7581 22.1377V29.1977L63.6966 32.7377V25.7377L69.7581 22.1377ZM63.1005 17.6977L68.9095 21.2777L63.1409 24.7477L57.1905 21.1977L63.1005 17.6977ZM56.3116 22.0377L62.5651 25.7277V32.7277L56.3116 29.0977V22.0377ZM42.6832 6.61766V13.6777L36.6217 17.2177V10.2177L42.6832 6.61766ZM36.0256 2.17766L41.8346 5.75766L36.066 9.21766L30.1156 5.67766L36.0256 2.17766ZM29.2266 6.49766L35.5104 10.1977V17.1977L29.2468 13.5577L29.2266 6.49766ZM15.5578 22.1377V28.9477C15.5078 29.0443 15.4769 29.1495 15.4669 29.2577L9.50636 32.7377V25.7377L15.5578 22.1377ZM8.91031 17.6977L14.7092 21.2777L8.94062 24.7477L2.99021 21.1977L8.91031 17.6977ZM2.11128 29.0977V22.0377L8.36477 25.7277V32.7277L2.11128 29.0977ZM8.36477 63.7577L2.11128 60.1177V53.0577L8.36477 56.7477V63.7577ZM8.94062 55.7577L2.99021 52.2177L8.8598 48.7377H8.95072L14.7092 52.2877L8.94062 55.7577ZM15.5578 60.2077L9.49626 63.7477V56.7477L15.5578 53.1577V60.2077ZM35.5104 79.4977L29.2468 75.8577V68.9277C29.3332 68.9477 29.4231 68.9477 29.5095 68.9277L35.5104 72.4977V79.4977ZM36.0862 71.4977L30.1358 67.9577L35.8539 64.5677H35.965C36.0421 64.5781 36.1203 64.5781 36.1974 64.5677L41.8043 68.0177V68.0877L36.0862 71.4977ZM42.7034 75.9477L36.6419 79.4877V72.4977L42.4812 69.0277C42.5511 69.0425 42.6234 69.0425 42.6933 69.0277L42.7034 75.9477ZM55.3316 52.8577V59.9277L42.8145 67.0777L42.663 66.9977L36.7833 63.6277V63.4977H36.0155H35.1164V63.7377L29.0548 67.0577L16.7095 59.9477V52.9477C16.7095 52.9477 16.7095 52.8777 16.7095 52.8477C16.3761 52.3077 16.0629 51.7577 15.77 51.1877L15.6083 51.2777L9.6478 47.8877V33.8877L16.0528 30.1977C16.3256 29.6977 16.6287 29.1977 16.9318 28.7377L16.7196 28.6077V21.8677L28.974 14.8677L29.0649 14.8077C31.0855 15.9877 33.106 17.1177 35.1265 18.2877V18.4977H36.0256H36.7934V18.3677L42.9964 14.7977C43.0423 14.843 43.0931 14.8833 43.1479 14.9177L55.1801 21.7977V28.8577C55.5034 29.3577 55.8064 29.8577 56.0893 30.3777L56.1802 30.3077C58.2008 31.5077 60.3122 32.6677 62.363 33.8577V47.9877L56.3015 51.3677C55.9277 51.8677 55.6347 52.3677 55.3316 52.8577ZM62.7267 63.7577L56.4732 60.1177V53.3077C56.5834 53.3278 56.6964 53.3278 56.8066 53.3077L62.7267 56.7877V63.7577ZM63.3026 55.7577L57.3521 52.2177L63.2621 48.7177L69.0711 52.2877L63.3026 55.7577ZM69.9197 60.2077L63.8582 63.7477V56.7477L69.9197 53.1577V60.2077Z" stroke="url(#paint5_linear_833_6083)" stroke-width="0.25" stroke-miterlimit="10"/>
<path d="M9.85686 16.1197C9.85686 19.5065 9.53452 22.258 9.13745 22.258C8.74037 22.258 8.40869 19.5065 8.40869 16.1197C8.40869 12.7328 8.74504 10 9.13745 10C9.52985 10 9.85686 12.7282 9.85686 16.1197Z" fill="url(#paint6_radial_833_6083)"/>
<path d="M9.13839 16.8298C5.75155 16.8298 3.00004 16.5074 3.00004 16.1103C3.00004 15.7133 5.75155 15.3816 9.13839 15.3816C12.5252 15.3816 15.2581 15.7179 15.2581 16.1103C15.2581 16.5028 12.5299 16.8298 9.13839 16.8298Z" fill="url(#paint7_radial_833_6083)"/>
<path d="M63.8569 65.1197C63.8569 68.5065 63.5345 71.258 63.1374 71.258C62.7404 71.258 62.4087 68.5065 62.4087 65.1197C62.4087 61.7328 62.745 59 63.1374 59C63.5299 59 63.8569 61.7282 63.8569 65.1197Z" fill="url(#paint8_radial_833_6083)"/>
<path d="M63.1384 65.8298C59.7516 65.8298 57 65.5074 57 65.1103C57 64.7133 59.7516 64.3816 63.1384 64.3816C66.5252 64.3816 69.2581 64.7179 69.2581 65.1103C69.2581 65.5028 66.5299 65.8298 63.1384 65.8298Z" fill="url(#paint9_radial_833_6083)"/>
<defs>
<linearGradient id="paint0_linear_833_6083" x1="36.0156" y1="48.7275" x2="36.0156" y2="35.3975" gradientUnits="userSpaceOnUse">
<stop stop-color="#79A540"/>
<stop offset="0.2" stop-color="#94C63D"/>
<stop offset="0.39" stop-color="#98CA3C"/>
<stop offset="0.59" stop-color="#93C53E"/>
<stop offset="0.74" stop-color="#9DCB3B"/>
<stop offset="0.9" stop-color="#A6CE39"/>
<stop offset="1" stop-color="#A6CE39"/>
</linearGradient>
<linearGradient id="paint1_linear_833_6083" x1="36.0237" y1="48.8838" x2="36.0261" y2="35.2417" gradientUnits="userSpaceOnUse">
<stop stop-color="white" stop-opacity="0.9"/>
<stop offset="0.28" stop-color="white" stop-opacity="0.5"/>
<stop offset="0.65" stop-color="#FAFBFC" stop-opacity="0.4"/>
<stop offset="1" stop-color="#F0EFEF" stop-opacity="0.3"/>
</linearGradient>
<linearGradient id="paint2_linear_833_6083" x1="36.0156" y1="15.5276" x2="36.0156" y2="59.9176" gradientUnits="userSpaceOnUse">
<stop stop-color="#79A540"/>
<stop offset="0.2" stop-color="#94C63D"/>
<stop offset="0.39" stop-color="#98CA3C"/>
<stop offset="0.59" stop-color="#93C53E"/>
<stop offset="0.74" stop-color="#9DCB3B"/>
<stop offset="0.9" stop-color="#A6CE39"/>
<stop offset="1" stop-color="#A6CE39"/>
</linearGradient>
<linearGradient id="paint3_linear_833_6083" x1="36.0156" y1="63.5576" x2="36.0156" y2="18.3076" gradientUnits="userSpaceOnUse">
<stop stop-color="white" stop-opacity="0.9"/>
<stop offset="0.28" stop-color="white" stop-opacity="0.5"/>
<stop offset="0.65" stop-color="#FAFBFC" stop-opacity="0.4"/>
<stop offset="1" stop-color="#F0EFEF" stop-opacity="0.3"/>
</linearGradient>
<linearGradient id="paint4_linear_833_6083" x1="36.0155" y1="-4.28234" x2="36.0155" y2="74.6377" gradientUnits="userSpaceOnUse">
<stop stop-color="white" stop-opacity="0.9"/>
<stop offset="0.04" stop-color="white" stop-opacity="0.85"/>
<stop offset="0.28" stop-color="white" stop-opacity="0.5"/>
<stop offset="0.65" stop-color="#FAFBFC" stop-opacity="0.4"/>
<stop offset="1" stop-color="#F0EFEF" stop-opacity="0.3"/>
</linearGradient>
<linearGradient id="paint5_linear_833_6083" x1="36.0155" y1="81.1177" x2="36.0155" y2="0.877664" gradientUnits="userSpaceOnUse">
<stop stop-color="white" stop-opacity="0.9"/>
<stop offset="0.28" stop-color="white" stop-opacity="0.5"/>
<stop offset="0.65" stop-color="#FAFBFC" stop-opacity="0.4"/>
<stop offset="1" stop-color="#F0EFEF" stop-opacity="0.3"/>
</linearGradient>
<radialGradient id="paint6_radial_833_6083" cx="0" cy="0" r="1" gradientUnits="userSpaceOnUse" gradientTransform="translate(9.02234 16.5674) scale(0.716421 6.14265)">
<stop stop-color="white"/>
<stop offset="0.07" stop-color="white" stop-opacity="0.93"/>
<stop offset="1" stop-color="white" stop-opacity="0"/>
</radialGradient>
<radialGradient id="paint7_radial_833_6083" cx="0" cy="0" r="1" gradientUnits="userSpaceOnUse" gradientTransform="translate(8.69067 15.9952) rotate(90) scale(0.716421 6.14265)">
<stop stop-color="white"/>
<stop offset="0.07" stop-color="white" stop-opacity="0.93"/>
<stop offset="1" stop-color="white" stop-opacity="0"/>
</radialGradient>
<radialGradient id="paint8_radial_833_6083" cx="0" cy="0" r="1" gradientUnits="userSpaceOnUse" gradientTransform="translate(63.0223 65.5674) scale(0.716421 6.14265)">
<stop stop-color="white"/>
<stop offset="0.07" stop-color="white" stop-opacity="0.93"/>
<stop offset="1" stop-color="white" stop-opacity="0"/>
</radialGradient>
<radialGradient id="paint9_radial_833_6083" cx="0" cy="0" r="1" gradientUnits="userSpaceOnUse" gradientTransform="translate(62.6907 64.9952) rotate(90) scale(0.716421 6.14265)">
<stop stop-color="white"/>
<stop offset="0.07" stop-color="white" stop-opacity="0.93"/>
<stop offset="1" stop-color="white" stop-opacity="0"/>
</radialGradient>
</defs>
</svg>
