<svg width="75" height="80" viewBox="0 0 75 80" fill="none" xmlns="http://www.w3.org/2000/svg">
<path d="M9.31942 9.8159H9.31927C7.80371 9.81767 6.35071 10.4205 5.27904 11.4922C4.20737 12.5638 3.60453 14.0168 3.60277 15.5324V15.5326V17.3964V17.5214H3.72777H70.8276H70.9526V17.3964V15.5326V15.5324C70.9508 14.0168 70.348 12.5638 69.2763 11.4922C68.2047 10.4205 66.7517 9.81767 65.2361 9.8159H65.2359H9.31942ZM65.2359 69.7102H65.2361C66.7517 69.7084 68.2047 69.1056 69.2763 68.0339C70.348 66.9622 70.9508 65.5093 70.9526 63.9937V63.9935V21.1242V20.9992H70.8276H3.72777H3.60277V21.1242V63.9935V63.9937C3.60453 65.5093 4.20737 66.9622 5.27904 68.0339C6.35071 69.1056 7.80371 69.7084 9.31928 69.7102H9.31942H65.2359ZM2.82071 9.03384C4.54449 7.31006 6.88175 6.34057 9.31955 6.33813L65.2359 6.33813C67.6737 6.34058 70.0109 7.31007 71.7347 9.03384C73.4584 10.7576 74.4279 13.0949 74.4304 15.5327V63.9934C74.4279 66.4312 73.4584 68.7685 71.7347 70.4923C70.0109 72.216 67.6736 73.1855 65.2358 73.188H9.31955C6.88175 73.1855 4.54449 72.216 2.82071 70.4923C1.09692 68.7685 0.127434 66.4312 0.125 63.9934L0.125 15.5326C0.12745 13.0948 1.09694 10.7576 2.82071 9.03384Z" fill="url(#paint0_linear_837_6129)" stroke="url(#paint1_linear_837_6129)" stroke-width="0.25"/>
<path d="M8.13579 6.33686C8.13579 9.8439 7.80202 12.6931 7.39085 12.6931C6.97968 12.6931 6.63623 9.8439 6.63623 6.33686C6.63623 2.82982 6.98452 0 7.39085 0C7.79718 0 8.13579 2.82498 8.13579 6.33686Z" fill="url(#paint2_radial_837_6129)"/>
<path d="M7.39166 7.07207C3.88462 7.07207 1.03545 6.7383 1.03545 6.32713C1.03545 5.91596 3.88462 5.57251 7.39166 5.57251C10.8987 5.57251 13.7285 5.9208 13.7285 6.32713C13.7285 6.73346 10.9035 7.07207 7.39166 7.07207Z" fill="url(#paint3_radial_837_6129)"/>
<path d="M68.1941 73.6437C68.1941 77.1508 67.8604 80 67.4492 80C67.038 80 66.6946 77.1508 66.6946 73.6437C66.6946 70.1367 67.0429 67.3069 67.4492 67.3069C67.8555 67.3069 68.1941 70.1319 68.1941 73.6437Z" fill="url(#paint4_radial_837_6129)"/>
<path d="M67.4503 74.379C63.9432 74.379 61.094 74.0452 61.094 73.634C61.094 73.2228 63.9432 72.8794 67.4503 72.8794C70.9573 72.8794 73.7871 73.2277 73.7871 73.634C73.7871 74.0403 70.9621 74.379 67.4503 74.379Z" fill="url(#paint5_radial_837_6129)"/>
<path d="M30.4936 30.4505C29.4395 29.3543 28.1849 28.4849 26.8026 27.8926C25.4203 27.3003 23.9378 26.9969 22.441 27H22.4038C19.366 27.0237 16.4609 28.2873 14.3239 30.5145C12.1868 32.7417 10.9918 35.7513 11 38.885V41.3131C11.0017 41.76 11.1745 42.188 11.4808 42.504C11.7871 42.82 12.2021 42.9983 12.6353 43H32.1909C32.6236 42.9966 33.0377 42.8178 33.3436 42.5022C33.6496 42.1866 33.8229 41.7594 33.8262 41.3131V38.7572C33.8294 37.2143 33.5367 35.6859 32.9647 34.2603C32.3927 32.8346 31.5529 31.5398 30.4936 30.4505ZM32.2157 41.3131H21.5676L27.1425 33.4026C27.2084 33.3136 27.2566 33.2122 27.2845 33.104C27.3124 32.9958 27.3193 32.883 27.305 32.772C27.2906 32.6611 27.2552 32.5541 27.2007 32.4573C27.1463 32.3605 27.0739 32.2756 26.9876 32.2077C26.9014 32.1397 26.803 32.0899 26.6982 32.0612C26.5933 32.0324 26.484 32.0252 26.3764 32.0401C26.2688 32.0549 26.1652 32.0915 26.0713 32.1476C25.9774 32.2038 25.8952 32.2785 25.8293 32.3674L19.5544 41.3131H12.6353V38.885C12.6353 38.5655 12.6353 38.246 12.6787 37.9265H15.0759C15.1889 37.9367 15.3026 37.9225 15.41 37.8849C15.5173 37.8473 15.6159 37.7871 15.6995 37.7081C15.7831 37.629 15.8498 37.533 15.8954 37.4259C15.9411 37.3189 15.9647 37.2032 15.9647 37.0863C15.9647 36.9693 15.9411 36.8536 15.8954 36.7466C15.8498 36.6396 15.7831 36.5435 15.6995 36.4645C15.6159 36.3854 15.5173 36.3252 15.41 36.2876C15.3026 36.25 15.1889 36.2358 15.0759 36.246H12.9636C13.48 34.2283 14.5855 32.4232 16.1302 31.0755C17.6748 29.7279 19.5839 28.9029 21.5986 28.7125V31.1981C21.5967 31.3116 21.6175 31.4242 21.6595 31.5291C21.7015 31.6339 21.7639 31.7288 21.8429 31.8078C21.9218 31.8869 22.0156 31.9484 22.1185 31.9886C22.2213 32.0288 22.3311 32.0468 22.441 32.0415C22.5486 32.0424 22.6553 32.0212 22.7549 31.9791C22.8544 31.937 22.9449 31.8749 23.021 31.7964C23.0971 31.7179 23.1573 31.6246 23.1981 31.5219C23.2389 31.4192 23.2595 31.3091 23.2586 31.1981V28.7125C25.283 28.8854 27.2052 29.7033 28.759 31.0531C30.3127 32.4029 31.4211 34.2176 31.9307 36.246H29.7503C29.6374 36.2358 29.5236 36.25 29.4163 36.2876C29.3089 36.3252 29.2103 36.3854 29.1268 36.4645C29.0432 36.5435 28.9764 36.6396 28.9308 36.7466C28.8851 36.8536 28.8616 36.9693 28.8616 37.0863C28.8616 37.2032 28.8851 37.3189 28.9308 37.4259C28.9764 37.533 29.0432 37.629 29.1268 37.7081C29.2103 37.7871 29.3089 37.8473 29.4163 37.8849C29.5236 37.9225 29.6374 37.9367 29.7503 37.9265H32.1599C32.1599 38.2077 32.1909 38.4824 32.1909 38.77L32.2157 41.3131Z" fill="url(#paint6_linear_837_6129)"/>
<path d="M30.4936 30.4505C29.4395 29.3543 28.1849 28.4849 26.8026 27.8926C25.4203 27.3003 23.9378 26.9969 22.441 27H22.4038C19.366 27.0237 16.4609 28.2873 14.3239 30.5145C12.1868 32.7417 10.9918 35.7513 11 38.885V41.3131C11.0017 41.76 11.1745 42.188 11.4808 42.504C11.7871 42.82 12.2021 42.9983 12.6353 43H32.1909C32.6236 42.9966 33.0377 42.8178 33.3436 42.5022C33.6496 42.1866 33.8229 41.7594 33.8262 41.3131V38.7572C33.8294 37.2143 33.5367 35.6859 32.9647 34.2603C32.3927 32.8346 31.5529 31.5398 30.4936 30.4505ZM32.2157 41.3131H21.5676L27.1425 33.4026C27.2084 33.3136 27.2566 33.2122 27.2845 33.104C27.3124 32.9958 27.3193 32.883 27.305 32.772C27.2906 32.6611 27.2552 32.5541 27.2007 32.4573C27.1463 32.3605 27.0739 32.2756 26.9876 32.2077C26.9014 32.1397 26.803 32.0899 26.6982 32.0612C26.5933 32.0324 26.484 32.0252 26.3764 32.0401C26.2688 32.0549 26.1652 32.0915 26.0713 32.1476C25.9774 32.2038 25.8952 32.2785 25.8293 32.3674L19.5544 41.3131H12.6353V38.885C12.6353 38.5655 12.6353 38.246 12.6787 37.9265H15.0759C15.1889 37.9367 15.3026 37.9225 15.41 37.8849C15.5173 37.8473 15.6159 37.7871 15.6995 37.7081C15.7831 37.629 15.8498 37.533 15.8954 37.4259C15.9411 37.3189 15.9647 37.2032 15.9647 37.0863C15.9647 36.9693 15.9411 36.8536 15.8954 36.7466C15.8498 36.6396 15.7831 36.5435 15.6995 36.4645C15.6159 36.3854 15.5173 36.3252 15.41 36.2876C15.3026 36.25 15.1889 36.2358 15.0759 36.246H12.9636C13.48 34.2283 14.5855 32.4232 16.1302 31.0755C17.6748 29.7279 19.5839 28.9029 21.5986 28.7125V31.1981C21.5967 31.3116 21.6175 31.4242 21.6595 31.5291C21.7015 31.6339 21.7639 31.7288 21.8429 31.8078C21.9218 31.8869 22.0156 31.9484 22.1185 31.9886C22.2213 32.0288 22.3311 32.0468 22.441 32.0415C22.5486 32.0424 22.6553 32.0212 22.7549 31.9791C22.8544 31.937 22.9449 31.8749 23.021 31.7964C23.0971 31.7179 23.1573 31.6246 23.1981 31.5219C23.2389 31.4192 23.2595 31.3091 23.2586 31.1981V28.7125C25.283 28.8854 27.2052 29.7033 28.759 31.0531C30.3127 32.4029 31.4211 34.2176 31.9307 36.246H29.7503C29.6374 36.2358 29.5236 36.25 29.4163 36.2876C29.3089 36.3252 29.2103 36.3854 29.1268 36.4645C29.0432 36.5435 28.9764 36.6396 28.9308 36.7466C28.8851 36.8536 28.8616 36.9693 28.8616 37.0863C28.8616 37.2032 28.8851 37.3189 28.9308 37.4259C28.9764 37.533 29.0432 37.629 29.1268 37.7081C29.2103 37.7871 29.3089 37.8473 29.4163 37.8849C29.5236 37.9225 29.6374 37.9367 29.7503 37.9265H32.1599C32.1599 38.2077 32.1909 38.4824 32.1909 38.77L32.2157 41.3131Z" fill="url(#paint7_linear_837_6129)"/>
<path d="M30.4936 30.4505C29.4403 29.3532 28.1858 28.483 26.8033 27.8907C25.4209 27.2983 23.9379 26.9955 22.4409 27C19.4031 27.0237 16.498 28.2873 14.361 30.5145C12.2239 32.7417 11.0289 35.7513 11.0372 38.885V41.3131C11.0371 41.5338 11.0792 41.7524 11.161 41.9563C11.2429 42.1602 11.3629 42.3455 11.5141 42.5016C11.6643 42.6596 11.8436 42.7852 12.0414 42.8707C12.2393 42.9563 12.4517 43.0003 12.6663 43H32.228C32.6601 42.9966 33.0735 42.8176 33.3785 42.5018C33.6835 42.186 33.8555 41.7589 33.8571 41.3131V38.7572C33.8563 37.212 33.5586 35.6824 32.9813 34.2566C32.404 32.8308 31.5585 31.5372 30.4936 30.4505ZM32.228 41.3131H21.6047L27.1796 33.4026C27.2459 33.3125 27.2933 33.2092 27.3189 33.0992C27.3445 32.9892 27.3477 32.8749 27.3283 32.7636C27.3094 32.5963 27.2421 32.4388 27.135 32.3117C27.028 32.1845 26.8863 32.0936 26.7284 32.0508C26.5705 32.008 26.4038 32.0153 26.25 32.0718C26.0962 32.1283 25.9625 32.2313 25.8664 32.3674L19.5853 41.3131H12.6663V38.885C12.6663 38.5655 12.6663 38.246 12.7096 37.9265H15.113C15.3283 37.9257 15.5349 37.8387 15.6891 37.6837C15.7653 37.6054 15.8258 37.5123 15.8671 37.4097C15.9083 37.3072 15.9296 37.1973 15.9296 37.0863C15.9296 36.9753 15.9083 36.8654 15.8671 36.7628C15.8258 36.6603 15.7653 36.5672 15.6891 36.4888C15.5349 36.3339 15.3283 36.2468 15.113 36.246H13.0008C13.5171 34.2283 14.6226 32.4232 16.1673 31.0755C17.712 29.7279 19.6211 28.9029 21.6357 28.7125V31.1981C21.6346 31.3093 21.6548 31.4196 21.6952 31.5227C21.7356 31.6258 21.7954 31.7196 21.8711 31.7988C22.0253 31.9537 22.2318 32.0408 22.4471 32.0416C22.5547 32.0424 22.6614 32.0212 22.761 31.9791C22.8606 31.937 22.951 31.8749 23.0271 31.7964C23.1032 31.7179 23.1634 31.6246 23.2042 31.5219C23.245 31.4192 23.2656 31.3091 23.2648 31.1981V28.7125C25.2883 28.8881 27.2091 29.7071 28.7624 31.0564C30.3157 32.4058 31.4248 34.219 31.9369 36.246H29.7812C29.5659 36.2468 29.3594 36.3339 29.2052 36.4888C29.0542 36.6487 28.9697 36.8631 28.9697 37.0863C28.9697 37.3095 29.0542 37.5238 29.2052 37.6837C29.3594 37.8387 29.5659 37.9257 29.7812 37.9265H32.197C32.197 38.2077 32.197 38.4824 32.197 38.77L32.228 41.3131Z" fill="url(#paint8_linear_837_6129)"/>
<path d="M30.4936 30.4505C29.4403 29.3532 28.1858 28.483 26.8033 27.8907C25.4209 27.2983 23.9379 26.9955 22.4409 27C19.4031 27.0237 16.498 28.2873 14.361 30.5145C12.2239 32.7417 11.0289 35.7513 11.0372 38.885V41.3131C11.0371 41.5338 11.0792 41.7524 11.161 41.9563C11.2429 42.1602 11.3629 42.3455 11.5141 42.5016C11.6643 42.6596 11.8436 42.7852 12.0414 42.8707C12.2393 42.9563 12.4517 43.0003 12.6663 43H32.228C32.6601 42.9966 33.0735 42.8176 33.3785 42.5018C33.6835 42.186 33.8555 41.7589 33.8571 41.3131V38.7572C33.8563 37.212 33.5586 35.6824 32.9813 34.2566C32.404 32.8308 31.5585 31.5372 30.4936 30.4505ZM32.228 41.3131H21.6047L27.1796 33.4026C27.2459 33.3125 27.2933 33.2092 27.3189 33.0992C27.3445 32.9892 27.3477 32.8749 27.3283 32.7636C27.3094 32.5963 27.2421 32.4388 27.135 32.3117C27.028 32.1845 26.8863 32.0936 26.7284 32.0508C26.5705 32.008 26.4038 32.0153 26.25 32.0718C26.0962 32.1283 25.9625 32.2313 25.8664 32.3674L19.5853 41.3131H12.6663V38.885C12.6663 38.5655 12.6663 38.246 12.7096 37.9265H15.113C15.3283 37.9257 15.5349 37.8387 15.6891 37.6837C15.7653 37.6054 15.8258 37.5123 15.8671 37.4097C15.9083 37.3072 15.9296 37.1973 15.9296 37.0863C15.9296 36.9753 15.9083 36.8654 15.8671 36.7628C15.8258 36.6603 15.7653 36.5672 15.6891 36.4888C15.5349 36.3339 15.3283 36.2468 15.113 36.246H13.0008C13.5171 34.2283 14.6226 32.4232 16.1673 31.0755C17.712 29.7279 19.6211 28.9029 21.6357 28.7125V31.1981C21.6346 31.3093 21.6548 31.4196 21.6952 31.5227C21.7356 31.6258 21.7954 31.7196 21.8711 31.7988C22.0253 31.9537 22.2318 32.0408 22.4471 32.0416C22.5547 32.0424 22.6614 32.0212 22.761 31.9791C22.8606 31.937 22.951 31.8749 23.0271 31.7964C23.1032 31.7179 23.1634 31.6246 23.2042 31.5219C23.245 31.4192 23.2656 31.3091 23.2648 31.1981V28.7125C25.2883 28.8881 27.2091 29.7071 28.7624 31.0564C30.3157 32.4058 31.4248 34.219 31.9369 36.246H29.7812C29.5659 36.2468 29.3594 36.3339 29.2052 36.4888C29.0542 36.6487 28.9697 36.8631 28.9697 37.0863C28.9697 37.3095 29.0542 37.5238 29.2052 37.6837C29.3594 37.8387 29.5659 37.9257 29.7812 37.9265H32.197C32.197 38.2077 32.197 38.4824 32.197 38.77L32.228 41.3131Z" fill="url(#paint9_linear_837_6129)"/>
<path d="M30.4936 30.4505C29.4403 29.3532 28.1858 28.483 26.8033 27.8907C25.4209 27.2983 23.9379 26.9955 22.4409 27C19.4031 27.0237 16.498 28.2873 14.361 30.5145C12.2239 32.7417 11.0289 35.7513 11.0372 38.885V41.3131C11.0371 41.5338 11.0792 41.7524 11.161 41.9563C11.2429 42.1602 11.3629 42.3455 11.5141 42.5016C11.6643 42.6596 11.8436 42.7852 12.0414 42.8707C12.2393 42.9563 12.4517 43.0003 12.6663 43H32.228C32.6601 42.9966 33.0735 42.8176 33.3785 42.5018C33.6835 42.186 33.8555 41.7589 33.8571 41.3131V38.7572C33.8563 37.212 33.5586 35.6824 32.9813 34.2566C32.404 32.8308 31.5585 31.5372 30.4936 30.4505ZM32.228 41.3131H21.6047L27.1796 33.4026C27.2459 33.3125 27.2933 33.2092 27.3189 33.0992C27.3445 32.9892 27.3477 32.8749 27.3283 32.7636C27.3094 32.5963 27.2421 32.4388 27.135 32.3117C27.028 32.1845 26.8863 32.0936 26.7284 32.0508C26.5705 32.008 26.4038 32.0153 26.25 32.0718C26.0962 32.1283 25.9625 32.2313 25.8664 32.3674L19.5853 41.3131H12.6663V38.885C12.6663 38.5655 12.6663 38.246 12.7096 37.9265H15.113C15.3283 37.9257 15.5349 37.8387 15.6891 37.6837C15.7653 37.6054 15.8258 37.5123 15.8671 37.4097C15.9083 37.3072 15.9296 37.1973 15.9296 37.0863C15.9296 36.9753 15.9083 36.8654 15.8671 36.7628C15.8258 36.6603 15.7653 36.5672 15.6891 36.4888C15.5349 36.3339 15.3283 36.2468 15.113 36.246H13.0008C13.5171 34.2283 14.6226 32.4232 16.1673 31.0755C17.712 29.7279 19.6211 28.9029 21.6357 28.7125V31.1981C21.6346 31.3093 21.6548 31.4196 21.6952 31.5227C21.7356 31.6258 21.7954 31.7196 21.8711 31.7988C22.0253 31.9537 22.2318 32.0408 22.4471 32.0416C22.5547 32.0424 22.6614 32.0212 22.761 31.9791C22.8606 31.937 22.951 31.8749 23.0271 31.7964C23.1032 31.7179 23.1634 31.6246 23.2042 31.5219C23.245 31.4192 23.2656 31.3091 23.2648 31.1981V28.7125C25.2883 28.8881 27.2091 29.7071 28.7624 31.0564C30.3157 32.4058 31.4248 34.219 31.9369 36.246H29.7812C29.5659 36.2468 29.3594 36.3339 29.2052 36.4888C29.0542 36.6487 28.9697 36.8631 28.9697 37.0863C28.9697 37.3095 29.0542 37.5238 29.2052 37.6837C29.3594 37.8387 29.5659 37.9257 29.7812 37.9265H32.197C32.197 38.2077 32.197 38.4824 32.197 38.77L32.228 41.3131Z" stroke="url(#paint10_linear_837_6129)" stroke-width="0.25" stroke-miterlimit="10"/>
<path d="M26.3631 53.2887H23.0112V49.9369C23.0112 49.7662 22.9435 49.6026 22.8228 49.482C22.7022 49.3613 22.5385 49.2935 22.3679 49.2935H12.2867V48.6502C12.2867 48.4796 12.2189 48.3159 12.0983 48.1953C11.9776 48.0746 11.814 48.0068 11.6433 48.0068C11.4727 48.0068 11.3091 48.0746 11.1884 48.1953C11.0678 48.3159 11 48.4796 11 48.6502V63.3441C11.0092 63.5117 11.08 63.67 11.1987 63.7888C11.3174 63.9075 11.4757 63.9782 11.6433 63.9875C11.814 63.9875 11.9776 63.9197 12.0983 63.799C12.2189 63.6784 12.2867 63.5147 12.2867 63.3441V62.7008H19.6594C19.7482 62.7022 19.8364 62.6852 19.9183 62.6509C20.0003 62.6166 20.0742 62.5656 20.1355 62.5013C20.26 62.3743 20.3294 62.2032 20.3285 62.0253V58.6799H26.3631C26.4519 58.6813 26.54 58.6643 26.622 58.63C26.7039 58.5957 26.7778 58.5448 26.8391 58.4804C26.9636 58.3534 27.033 58.1823 27.0321 58.0044V53.9706C27.0321 53.8 26.9644 53.6364 26.8437 53.5157C26.7231 53.3951 26.5594 53.3273 26.3888 53.3273L26.3631 53.2887ZM21.6731 50.6124V53.2887H12.2867V50.6124H21.6731ZM18.9903 61.3305H12.2867V58.6541H18.9903V61.3305ZM25.694 57.3096H12.2867V54.614H25.694V57.3096Z" fill="url(#paint11_linear_837_6129)"/>
<path d="M26.3631 53.2887H23.0112V49.9369C23.0112 49.7662 22.9435 49.6026 22.8228 49.482C22.7022 49.3613 22.5385 49.2935 22.3679 49.2935H12.2867V48.6502C12.2867 48.4796 12.2189 48.3159 12.0983 48.1953C11.9776 48.0746 11.814 48.0068 11.6433 48.0068C11.4727 48.0068 11.3091 48.0746 11.1884 48.1953C11.0678 48.3159 11 48.4796 11 48.6502V63.3441C11.0092 63.5117 11.08 63.67 11.1987 63.7888C11.3174 63.9075 11.4757 63.9782 11.6433 63.9875C11.814 63.9875 11.9776 63.9197 12.0983 63.799C12.2189 63.6784 12.2867 63.5147 12.2867 63.3441V62.7008H19.6594C19.7482 62.7022 19.8364 62.6852 19.9183 62.6509C20.0003 62.6166 20.0742 62.5656 20.1355 62.5013C20.26 62.3743 20.3294 62.2032 20.3285 62.0253V58.6799H26.3631C26.4519 58.6813 26.54 58.6643 26.622 58.63C26.7039 58.5957 26.7778 58.5448 26.8391 58.4804C26.9636 58.3534 27.033 58.1823 27.0321 58.0044V53.9706C27.0321 53.8 26.9644 53.6364 26.8437 53.5157C26.7231 53.3951 26.5594 53.3273 26.3888 53.3273L26.3631 53.2887ZM21.6731 50.6124V53.2887H12.2867V50.6124H21.6731ZM18.9903 61.3305H12.2867V58.6541H18.9903V61.3305ZM25.694 57.3096H12.2867V54.614H25.694V57.3096Z" fill="url(#paint12_linear_837_6129)"/>
<path d="M26.3631 53.3269H23.0112V49.9558C23.0094 49.7784 22.9405 49.6083 22.8182 49.4797C22.6904 49.3563 22.5198 49.2872 22.3422 49.2867H12.2867V48.6433C12.2867 48.4727 12.2189 48.3091 12.0983 48.1884C11.9776 48.0678 11.814 48 11.6433 48C11.4727 48 11.3091 48.0678 11.1884 48.1884C11.0678 48.3091 11 48.4727 11 48.6433V63.3566C11.0092 63.5242 11.08 63.6825 11.1987 63.8012C11.3174 63.9199 11.4757 63.9907 11.6433 63.9999C11.7322 64.0013 11.8203 63.9844 11.9023 63.95C11.9842 63.9157 12.0581 63.8648 12.1194 63.8005C12.2439 63.6734 12.3133 63.5023 12.3124 63.3244V62.6811H19.6594C19.83 62.6811 19.9937 62.6133 20.1143 62.4926C20.235 62.372 20.3028 62.2083 20.3028 62.0377V58.6666H26.3373C26.5079 58.6666 26.6716 58.5988 26.7922 58.4782C26.9129 58.3575 26.9807 58.1939 26.9807 58.0233V53.9702C26.9789 53.7928 26.9099 53.6227 26.7877 53.4941C26.6693 53.3917 26.5195 53.3327 26.3631 53.3269ZM21.6731 50.6248V53.3269H12.2867V50.6248H21.6731ZM18.9903 61.3493H12.2867V58.6666H18.9903V61.3493ZM25.694 57.3285H12.2867V54.6457H25.694V57.3285Z" fill="url(#paint13_linear_837_6129)"/>
<path d="M26.3631 53.3269H23.0112V49.9558C23.0094 49.7784 22.9405 49.6083 22.8182 49.4797C22.6904 49.3563 22.5198 49.2872 22.3422 49.2867H12.2867V48.6433C12.2867 48.4727 12.2189 48.3091 12.0983 48.1884C11.9776 48.0678 11.814 48 11.6433 48C11.4727 48 11.3091 48.0678 11.1884 48.1884C11.0678 48.3091 11 48.4727 11 48.6433V63.3566C11.0092 63.5242 11.08 63.6825 11.1987 63.8012C11.3174 63.9199 11.4757 63.9907 11.6433 63.9999C11.7322 64.0013 11.8203 63.9844 11.9023 63.95C11.9842 63.9157 12.0581 63.8648 12.1194 63.8005C12.2439 63.6734 12.3133 63.5023 12.3124 63.3244V62.6811H19.6594C19.83 62.6811 19.9937 62.6133 20.1143 62.4926C20.235 62.372 20.3028 62.2083 20.3028 62.0377V58.6666H26.3373C26.5079 58.6666 26.6716 58.5988 26.7922 58.4782C26.9129 58.3575 26.9807 58.1939 26.9807 58.0233V53.9702C26.9789 53.7928 26.9099 53.6227 26.7877 53.4941C26.6693 53.3917 26.5195 53.3327 26.3631 53.3269ZM21.6731 50.6248V53.3269H12.2867V50.6248H21.6731ZM18.9903 61.3493H12.2867V58.6666H18.9903V61.3493ZM25.694 57.3285H12.2867V54.6457H25.694V57.3285Z" fill="url(#paint14_linear_837_6129)"/>
<path d="M26.3631 53.3269H23.0112V49.9558C23.0094 49.7784 22.9405 49.6083 22.8182 49.4797C22.6904 49.3563 22.5198 49.2872 22.3422 49.2867H12.2867V48.6433C12.2867 48.4727 12.2189 48.3091 12.0983 48.1884C11.9776 48.0678 11.814 48 11.6433 48C11.4727 48 11.3091 48.0678 11.1884 48.1884C11.0678 48.3091 11 48.4727 11 48.6433V63.3566C11.0092 63.5242 11.08 63.6825 11.1987 63.8012C11.3174 63.9199 11.4757 63.9907 11.6433 63.9999C11.7322 64.0013 11.8203 63.9844 11.9023 63.95C11.9842 63.9157 12.0581 63.8648 12.1194 63.8005C12.2439 63.6734 12.3133 63.5023 12.3124 63.3244V62.6811H19.6594C19.83 62.6811 19.9937 62.6133 20.1143 62.4926C20.235 62.372 20.3028 62.2083 20.3028 62.0377V58.6666H26.3373C26.5079 58.6666 26.6716 58.5988 26.7922 58.4782C26.9129 58.3575 26.9807 58.1939 26.9807 58.0233V53.9702C26.9789 53.7928 26.9099 53.6227 26.7877 53.4941C26.6693 53.3917 26.5195 53.3327 26.3631 53.3269ZM21.6731 50.6248V53.3269H12.2867V50.6248H21.6731ZM18.9903 61.3493H12.2867V58.6666H18.9903V61.3493ZM25.694 57.3285H12.2867V54.6457H25.694V57.3285Z" stroke="url(#paint15_linear_837_6129)" stroke-width="0.25" stroke-miterlimit="10"/>
<path d="M64.7692 42.2768C64.7696 42.3724 64.7506 42.4672 64.7131 42.5552C64.6757 42.6432 64.6208 42.7227 64.5516 42.7888C64.4153 42.9238 64.2314 42.9996 64.0396 43H46.5868C46.3933 42.9986 46.2077 42.923 46.0684 42.7888C45.9334 42.6525 45.8575 42.4686 45.8572 42.2768V27.7296C45.8572 27.5361 45.934 27.3505 46.0709 27.2137C46.2077 27.0769 46.3933 27 46.5868 27C46.6824 26.9996 46.7772 27.0187 46.8652 27.0561C46.9532 27.0935 47.0327 27.1485 47.0988 27.2176C47.2337 27.3539 47.3096 27.5378 47.31 27.7296V37.624L51.886 33.048C51.9549 32.9811 52.035 32.9269 52.1228 32.888C52.2118 32.85 52.3076 32.8304 52.4044 32.8304C52.4993 32.829 52.5933 32.8486 52.6796 32.888C52.7691 32.9237 52.8498 32.9783 52.9164 33.048L55.31 35.4416L60.1036 30.6544H58.222C58.0285 30.6544 57.8429 30.5775 57.7061 30.4407C57.5693 30.3039 57.4924 30.1183 57.4924 29.9248C57.4924 29.7313 57.5693 29.5457 57.7061 29.4089C57.8429 29.2721 58.0285 29.1952 58.222 29.1952H61.8572C62.053 29.1986 62.2395 29.2792 62.3762 29.4194C62.5128 29.5596 62.5885 29.7482 62.5868 29.944V33.5792C62.5868 33.7727 62.51 33.9583 62.3731 34.0951C62.2363 34.2319 62.0507 34.3088 61.8572 34.3088C61.6637 34.3088 61.4781 34.2319 61.3413 34.0951C61.2045 33.9583 61.1276 33.7727 61.1276 33.5792V31.6656L55.8284 36.984C55.7607 37.0523 55.6802 37.1067 55.5916 37.144C55.5013 37.177 55.4061 37.1943 55.31 37.1952C55.216 37.1943 55.1229 37.177 55.0348 37.144C54.9462 37.1067 54.8657 37.0523 54.798 36.984L52.4044 34.5904L47.2844 39.7104V41.592H64.0396C64.2331 41.592 64.4187 41.6689 64.5555 41.8057C64.6924 41.9425 64.7692 42.1281 64.7692 42.3216V42.2768Z" fill="url(#paint16_linear_837_6129)"/>
<path d="M64.7692 42.2768C64.7696 42.3724 64.7506 42.4672 64.7131 42.5552C64.6757 42.6432 64.6208 42.7227 64.5516 42.7888C64.4153 42.9238 64.2314 42.9996 64.0396 43H46.5868C46.3933 42.9986 46.2077 42.923 46.0684 42.7888C45.9334 42.6525 45.8575 42.4686 45.8572 42.2768V27.7296C45.8572 27.5361 45.934 27.3505 46.0709 27.2137C46.2077 27.0769 46.3933 27 46.5868 27C46.6824 26.9996 46.7772 27.0187 46.8652 27.0561C46.9532 27.0935 47.0327 27.1485 47.0988 27.2176C47.2337 27.3539 47.3096 27.5378 47.31 27.7296V37.624L51.886 33.048C51.9549 32.9811 52.035 32.9269 52.1228 32.888C52.2118 32.85 52.3076 32.8304 52.4044 32.8304C52.4993 32.829 52.5933 32.8486 52.6796 32.888C52.7691 32.9237 52.8498 32.9783 52.9164 33.048L55.31 35.4416L60.1036 30.6544H58.222C58.0285 30.6544 57.8429 30.5775 57.7061 30.4407C57.5693 30.3039 57.4924 30.1183 57.4924 29.9248C57.4924 29.7313 57.5693 29.5457 57.7061 29.4089C57.8429 29.2721 58.0285 29.1952 58.222 29.1952H61.8572C62.053 29.1986 62.2395 29.2792 62.3762 29.4194C62.5128 29.5596 62.5885 29.7482 62.5868 29.944V33.5792C62.5868 33.7727 62.51 33.9583 62.3731 34.0951C62.2363 34.2319 62.0507 34.3088 61.8572 34.3088C61.6637 34.3088 61.4781 34.2319 61.3413 34.0951C61.2045 33.9583 61.1276 33.7727 61.1276 33.5792V31.6656L55.8284 36.984C55.7607 37.0523 55.6802 37.1067 55.5916 37.144C55.5013 37.177 55.4061 37.1943 55.31 37.1952C55.216 37.1943 55.1229 37.177 55.0348 37.144C54.9462 37.1067 54.8657 37.0523 54.798 36.984L52.4044 34.5904L47.2844 39.7104V41.592H64.0396C64.2331 41.592 64.4187 41.6689 64.5555 41.8057C64.6924 41.9425 64.7692 42.1281 64.7692 42.3216V42.2768Z" fill="url(#paint17_linear_837_6129)"/>
<path d="M64.7692 42.2768C64.7696 42.3724 64.7506 42.4672 64.7131 42.5552C64.6757 42.6432 64.6208 42.7227 64.5516 42.7888C64.4153 42.9238 64.2314 42.9996 64.0396 43H46.5868C46.3933 42.9986 46.2077 42.923 46.0684 42.7888C45.9334 42.6525 45.8575 42.4686 45.8572 42.2768V27.7296C45.8572 27.5361 45.934 27.3505 46.0709 27.2137C46.2077 27.0769 46.3933 27 46.5868 27C46.6824 26.9996 46.7772 27.0187 46.8652 27.0561C46.9532 27.0935 47.0327 27.1485 47.0988 27.2176C47.2337 27.3539 47.3096 27.5378 47.31 27.7296V37.624L51.886 33.048C51.9549 32.9811 52.035 32.9269 52.1228 32.888C52.2118 32.85 52.3076 32.8304 52.4044 32.8304C52.4993 32.829 52.5933 32.8486 52.6796 32.888C52.7691 32.9237 52.8498 32.9783 52.9164 33.048L55.31 35.4416L60.1036 30.6544H58.222C58.0285 30.6544 57.8429 30.5775 57.7061 30.4407C57.5693 30.3039 57.4924 30.1183 57.4924 29.9248C57.4924 29.7313 57.5693 29.5457 57.7061 29.4089C57.8429 29.2721 58.0285 29.1952 58.222 29.1952H61.8572C62.053 29.1986 62.2395 29.2792 62.3762 29.4194C62.5128 29.5596 62.5885 29.7482 62.5868 29.944V33.5792C62.5868 33.7727 62.51 33.9583 62.3731 34.0951C62.2363 34.2319 62.0507 34.3088 61.8572 34.3088C61.6637 34.3088 61.4781 34.2319 61.3413 34.0951C61.2045 33.9583 61.1276 33.7727 61.1276 33.5792V31.6656L55.8284 36.984C55.7607 37.0523 55.6802 37.1067 55.5916 37.144C55.5013 37.177 55.4061 37.1943 55.31 37.1952C55.216 37.1943 55.1229 37.177 55.0348 37.144C54.9462 37.1067 54.8657 37.0523 54.798 36.984L52.4044 34.5904L47.2844 39.7104V41.592H64.0396C64.2331 41.592 64.4187 41.6689 64.5555 41.8057C64.6924 41.9425 64.7692 42.1281 64.7692 42.3216V42.2768Z" fill="url(#paint18_linear_837_6129)"/>
<path d="M64.7692 42.2768C64.7696 42.3724 64.7506 42.4672 64.7131 42.5552C64.6757 42.6432 64.6208 42.7227 64.5516 42.7888C64.4153 42.9238 64.2314 42.9996 64.0396 43H46.5868C46.3933 42.9986 46.2077 42.923 46.0684 42.7888C45.9334 42.6525 45.8575 42.4686 45.8572 42.2768V27.7296C45.8572 27.5361 45.934 27.3505 46.0709 27.2137C46.2077 27.0769 46.3933 27 46.5868 27C46.6824 26.9996 46.7772 27.0187 46.8652 27.0561C46.9532 27.0935 47.0327 27.1485 47.0988 27.2176C47.2337 27.3539 47.3096 27.5378 47.31 27.7296V37.624L51.886 33.048C51.9549 32.9811 52.035 32.9269 52.1228 32.888C52.2118 32.85 52.3076 32.8304 52.4044 32.8304C52.4993 32.829 52.5933 32.8486 52.6796 32.888C52.7691 32.9237 52.8498 32.9783 52.9164 33.048L55.31 35.4416L60.1036 30.6544H58.222C58.0285 30.6544 57.8429 30.5775 57.7061 30.4407C57.5693 30.3039 57.4924 30.1183 57.4924 29.9248C57.4924 29.7313 57.5693 29.5457 57.7061 29.4089C57.8429 29.2721 58.0285 29.1952 58.222 29.1952H61.8572C62.053 29.1986 62.2395 29.2792 62.3762 29.4194C62.5128 29.5596 62.5885 29.7482 62.5868 29.944V33.5792C62.5868 33.7727 62.51 33.9583 62.3731 34.0951C62.2363 34.2319 62.0507 34.3088 61.8572 34.3088C61.6637 34.3088 61.4781 34.2319 61.3413 34.0951C61.2045 33.9583 61.1276 33.7727 61.1276 33.5792V31.6656L55.8284 36.984C55.7607 37.0523 55.6802 37.1067 55.5916 37.144C55.5013 37.177 55.4061 37.1943 55.31 37.1952C55.216 37.1943 55.1229 37.177 55.0348 37.144C54.9462 37.1067 54.8657 37.0523 54.798 36.984L52.4044 34.5904L47.2844 39.7104V41.592H64.0396C64.2331 41.592 64.4187 41.6689 64.5555 41.8057C64.6924 41.9425 64.7692 42.1281 64.7692 42.3216V42.2768Z" fill="url(#paint19_linear_837_6129)"/>
<path d="M64.7692 42.2768C64.7696 42.3724 64.7506 42.4672 64.7131 42.5552C64.6757 42.6432 64.6208 42.7227 64.5516 42.7888C64.4153 42.9238 64.2314 42.9996 64.0396 43H46.5868C46.3933 42.9986 46.2077 42.923 46.0684 42.7888C45.9334 42.6525 45.8575 42.4686 45.8572 42.2768V27.7296C45.8572 27.5361 45.934 27.3505 46.0709 27.2137C46.2077 27.0769 46.3933 27 46.5868 27C46.6824 26.9996 46.7772 27.0187 46.8652 27.0561C46.9532 27.0935 47.0327 27.1485 47.0988 27.2176C47.2337 27.3539 47.3096 27.5378 47.31 27.7296V37.624L51.886 33.048C51.9549 32.9811 52.035 32.9269 52.1228 32.888C52.2118 32.85 52.3076 32.8304 52.4044 32.8304C52.4993 32.829 52.5933 32.8486 52.6796 32.888C52.7691 32.9237 52.8498 32.9783 52.9164 33.048L55.31 35.4416L60.1036 30.6544H58.222C58.0285 30.6544 57.8429 30.5775 57.7061 30.4407C57.5693 30.3039 57.4924 30.1183 57.4924 29.9248C57.4924 29.7313 57.5693 29.5457 57.7061 29.4089C57.8429 29.2721 58.0285 29.1952 58.222 29.1952H61.8572C62.053 29.1986 62.2395 29.2792 62.3762 29.4194C62.5128 29.5596 62.5885 29.7482 62.5868 29.944V33.5792C62.5868 33.7727 62.51 33.9583 62.3731 34.0951C62.2363 34.2319 62.0507 34.3088 61.8572 34.3088C61.6637 34.3088 61.4781 34.2319 61.3413 34.0951C61.2045 33.9583 61.1276 33.7727 61.1276 33.5792V31.6656L55.8284 36.984C55.7607 37.0523 55.6802 37.1067 55.5916 37.144C55.5013 37.177 55.4061 37.1943 55.31 37.1952C55.216 37.1943 55.1229 37.177 55.0348 37.144C54.9462 37.1067 54.8657 37.0523 54.798 36.984L52.4044 34.5904L47.2844 39.7104V41.592H64.0396C64.2331 41.592 64.4187 41.6689 64.5555 41.8057C64.6924 41.9425 64.7692 42.1281 64.7692 42.3216V42.2768Z" stroke="url(#paint20_linear_837_6129)" stroke-width="0.25" stroke-miterlimit="10"/>
<rect x="33.075" y="49.075" width="23.85" height="1.85" rx="0.925" fill="url(#paint21_linear_837_6129)" stroke="url(#paint22_linear_837_6129)" stroke-width="0.15"/>
<rect x="33.075" y="57.075" width="31.85" height="1.85" rx="0.925" fill="url(#paint23_linear_837_6129)" stroke="url(#paint24_linear_837_6129)" stroke-width="0.15"/>
<rect x="33.075" y="61.075" width="31.85" height="1.85" rx="0.925" fill="url(#paint25_linear_837_6129)" stroke="url(#paint26_linear_837_6129)" stroke-width="0.15"/>
<rect x="33.075" y="53.075" width="11.85" height="1.85" rx="0.925" fill="url(#paint27_linear_837_6129)" stroke="url(#paint28_linear_837_6129)" stroke-width="0.15"/>
<rect x="47.075" y="53.075" width="17.85" height="1.85" rx="0.925" fill="url(#paint29_linear_837_6129)" stroke="url(#paint30_linear_837_6129)" stroke-width="0.15"/>
<defs>
<linearGradient id="paint0_linear_837_6129" x1="31" y1="-10" x2="80.1417" y2="15.4129" gradientUnits="userSpaceOnUse">
<stop stop-color="#F0EFEF" stop-opacity="0.3"/>
<stop offset="0.35" stop-color="#FAFBFC" stop-opacity="0.4"/>
<stop offset="0.72" stop-color="white" stop-opacity="0.5"/>
<stop offset="0.96" stop-color="white" stop-opacity="0.85"/>
<stop offset="1" stop-color="white" stop-opacity="0.8"/>
</linearGradient>
<linearGradient id="paint1_linear_837_6129" x1="73.5199" y1="77.662" x2="26.278" y2="83.9126" gradientUnits="userSpaceOnUse">
<stop stop-color="white" stop-opacity="0.9"/>
<stop offset="0.28" stop-color="white" stop-opacity="0.5"/>
<stop offset="0.65" stop-color="#FAFBFC" stop-opacity="0.4"/>
<stop offset="1" stop-color="#F0EFEF" stop-opacity="0"/>
</linearGradient>
<radialGradient id="paint2_radial_837_6129" cx="0" cy="0" r="1" gradientUnits="userSpaceOnUse" gradientTransform="translate(7.27166 6.80047) scale(0.741847 6.36066)">
<stop stop-color="white"/>
<stop offset="0.07" stop-color="white" stop-opacity="0.93"/>
<stop offset="1" stop-color="white" stop-opacity="0"/>
</radialGradient>
<radialGradient id="paint3_radial_837_6129" cx="0" cy="0" r="1" gradientUnits="userSpaceOnUse" gradientTransform="translate(6.92805 6.20794) rotate(90) scale(0.741848 6.36066)">
<stop stop-color="white"/>
<stop offset="0.07" stop-color="white" stop-opacity="0.93"/>
<stop offset="1" stop-color="white" stop-opacity="0"/>
</radialGradient>
<radialGradient id="paint4_radial_837_6129" cx="0" cy="0" r="1" gradientUnits="userSpaceOnUse" gradientTransform="translate(67.33 74.1074) scale(0.741847 6.36066)">
<stop stop-color="white"/>
<stop offset="0.07" stop-color="white" stop-opacity="0.93"/>
<stop offset="1" stop-color="white" stop-opacity="0"/>
</radialGradient>
<radialGradient id="paint5_radial_837_6129" cx="0" cy="0" r="1" gradientUnits="userSpaceOnUse" gradientTransform="translate(66.9866 73.5148) rotate(90) scale(0.741848 6.36066)">
<stop stop-color="white"/>
<stop offset="0.07" stop-color="white" stop-opacity="0.93"/>
<stop offset="1" stop-color="white" stop-opacity="0"/>
</radialGradient>
<linearGradient id="paint6_linear_837_6129" x1="22.41" y1="27" x2="22.41" y2="42.9744" gradientUnits="userSpaceOnUse">
<stop stop-color="white" stop-opacity="0.9"/>
<stop offset="0.04" stop-color="white" stop-opacity="0.85"/>
<stop offset="0.28" stop-color="white" stop-opacity="0.5"/>
<stop offset="0.65" stop-color="#FAFBFC" stop-opacity="0.4"/>
<stop offset="1" stop-color="#F0EFEF" stop-opacity="0.3"/>
</linearGradient>
<linearGradient id="paint7_linear_837_6129" x1="11.0059" y1="35" x2="33.8203" y2="35" gradientUnits="userSpaceOnUse">
<stop stop-color="#79A540"/>
<stop offset="0.2" stop-color="#94C63D"/>
<stop offset="0.39" stop-color="#98CA3C"/>
<stop offset="0.59" stop-color="#93C53E"/>
<stop offset="0.74" stop-color="#9DCB3B"/>
<stop offset="0.9" stop-color="#A6CE39"/>
<stop offset="1" stop-color="#A6CE39"/>
</linearGradient>
<linearGradient id="paint8_linear_837_6129" x1="22.444" y1="27" x2="22.444" y2="42.9744" gradientUnits="userSpaceOnUse">
<stop stop-color="white" stop-opacity="0.9"/>
<stop offset="0.04" stop-color="white" stop-opacity="0.85"/>
<stop offset="0.28" stop-color="white" stop-opacity="0.5"/>
<stop offset="0.65" stop-color="#FAFBFC" stop-opacity="0.4"/>
<stop offset="1" stop-color="#F0EFEF" stop-opacity="0.3"/>
</linearGradient>
<linearGradient id="paint9_linear_837_6129" x1="11.043" y1="35" x2="33.8512" y2="35" gradientUnits="userSpaceOnUse">
<stop stop-color="#79A540"/>
<stop offset="0.2" stop-color="#94C63D"/>
<stop offset="0.39" stop-color="#98CA3C"/>
<stop offset="0.59" stop-color="#93C53E"/>
<stop offset="0.74" stop-color="#9DCB3B"/>
<stop offset="0.9" stop-color="#A6CE39"/>
<stop offset="1" stop-color="#A6CE39"/>
</linearGradient>
<linearGradient id="paint10_linear_837_6129" x1="22.4471" y1="43.0511" x2="22.4471" y2="26.917" gradientUnits="userSpaceOnUse">
<stop stop-color="white" stop-opacity="0.9"/>
<stop offset="0.28" stop-color="white" stop-opacity="0.5"/>
<stop offset="0.65" stop-color="#FAFBFC" stop-opacity="0.4"/>
<stop offset="1" stop-color="#F0EFEF" stop-opacity="0.3"/>
</linearGradient>
<linearGradient id="paint11_linear_837_6129" x1="18.9903" y1="47.9296" x2="18.9903" y2="64.0132" gradientUnits="userSpaceOnUse">
<stop stop-color="white" stop-opacity="0.9"/>
<stop offset="0.04" stop-color="white" stop-opacity="0.85"/>
<stop offset="0.28" stop-color="white" stop-opacity="0.5"/>
<stop offset="0.65" stop-color="#FAFBFC" stop-opacity="0.4"/>
<stop offset="1" stop-color="#F0EFEF" stop-opacity="0.3"/>
</linearGradient>
<linearGradient id="paint12_linear_837_6129" x1="11.0042" y1="55.9971" x2="27.028" y2="55.9971" gradientUnits="userSpaceOnUse">
<stop stop-color="#79A540"/>
<stop offset="0.2" stop-color="#94C63D"/>
<stop offset="0.39" stop-color="#98CA3C"/>
<stop offset="0.59" stop-color="#93C53E"/>
<stop offset="0.74" stop-color="#9DCB3B"/>
<stop offset="0.9" stop-color="#A6CE39"/>
<stop offset="1" stop-color="#A6CE39"/>
</linearGradient>
<linearGradient id="paint13_linear_837_6129" x1="18.9647" y1="47.9227" x2="18.9647" y2="64.0258" gradientUnits="userSpaceOnUse">
<stop stop-color="white" stop-opacity="0.9"/>
<stop offset="0.04" stop-color="white" stop-opacity="0.85"/>
<stop offset="0.28" stop-color="white" stop-opacity="0.5"/>
<stop offset="0.65" stop-color="#FAFBFC" stop-opacity="0.4"/>
<stop offset="1" stop-color="#F0EFEF" stop-opacity="0.3"/>
</linearGradient>
<linearGradient id="paint14_linear_837_6129" x1="11.0042" y1="56" x2="26.9765" y2="56" gradientUnits="userSpaceOnUse">
<stop stop-color="#79A540"/>
<stop offset="0.2" stop-color="#94C63D"/>
<stop offset="0.39" stop-color="#98CA3C"/>
<stop offset="0.59" stop-color="#93C53E"/>
<stop offset="0.74" stop-color="#9DCB3B"/>
<stop offset="0.9" stop-color="#A6CE39"/>
<stop offset="1" stop-color="#A6CE39"/>
</linearGradient>
<linearGradient id="paint15_linear_837_6129" x1="18.9903" y1="64.1093" x2="18.9903" y2="47.8649" gradientUnits="userSpaceOnUse">
<stop stop-color="white" stop-opacity="0.9"/>
<stop offset="0.28" stop-color="white" stop-opacity="0.5"/>
<stop offset="0.65" stop-color="#FAFBFC" stop-opacity="0.4"/>
<stop offset="1" stop-color="#F0EFEF" stop-opacity="0.3"/>
</linearGradient>
<linearGradient id="paint16_linear_837_6129" x1="55.31" y1="27" x2="55.31" y2="43" gradientUnits="userSpaceOnUse">
<stop stop-color="white" stop-opacity="0.9"/>
<stop offset="0.04" stop-color="white" stop-opacity="0.85"/>
<stop offset="0.28" stop-color="white" stop-opacity="0.5"/>
<stop offset="0.65" stop-color="#FAFBFC" stop-opacity="0.4"/>
<stop offset="1" stop-color="#F0EFEF" stop-opacity="0.3"/>
</linearGradient>
<linearGradient id="paint17_linear_837_6129" x1="45.8621" y1="35" x2="64.7643" y2="35" gradientUnits="userSpaceOnUse">
<stop stop-color="#79A540"/>
<stop offset="0.2" stop-color="#94C63D"/>
<stop offset="0.39" stop-color="#98CA3C"/>
<stop offset="0.59" stop-color="#93C53E"/>
<stop offset="0.74" stop-color="#9DCB3B"/>
<stop offset="0.9" stop-color="#A6CE39"/>
<stop offset="1" stop-color="#A6CE39"/>
</linearGradient>
<linearGradient id="paint18_linear_837_6129" x1="55.31" y1="27" x2="55.31" y2="43" gradientUnits="userSpaceOnUse">
<stop stop-color="white" stop-opacity="0.9"/>
<stop offset="0.04" stop-color="white" stop-opacity="0.85"/>
<stop offset="0.28" stop-color="white" stop-opacity="0.5"/>
<stop offset="0.65" stop-color="#FAFBFC" stop-opacity="0.4"/>
<stop offset="1" stop-color="#F0EFEF" stop-opacity="0.3"/>
</linearGradient>
<linearGradient id="paint19_linear_837_6129" x1="45.8621" y1="35" x2="64.7643" y2="35" gradientUnits="userSpaceOnUse">
<stop stop-color="#79A540"/>
<stop offset="0.2" stop-color="#94C63D"/>
<stop offset="0.39" stop-color="#98CA3C"/>
<stop offset="0.59" stop-color="#93C53E"/>
<stop offset="0.74" stop-color="#9DCB3B"/>
<stop offset="0.9" stop-color="#A6CE39"/>
<stop offset="1" stop-color="#A6CE39"/>
</linearGradient>
<linearGradient id="paint20_linear_837_6129" x1="55.31" y1="43.0832" x2="55.31" y2="26.9232" gradientUnits="userSpaceOnUse">
<stop stop-color="white" stop-opacity="0.9"/>
<stop offset="0.28" stop-color="white" stop-opacity="0.5"/>
<stop offset="0.65" stop-color="#FAFBFC" stop-opacity="0.4"/>
<stop offset="1" stop-color="#F0EFEF" stop-opacity="0.3"/>
</linearGradient>
<linearGradient id="paint21_linear_837_6129" x1="36.75" y1="49.2143" x2="51.2733" y2="43.9318" gradientUnits="userSpaceOnUse">
<stop stop-color="#F0EFEF" stop-opacity="0.3"/>
<stop offset="0.35" stop-color="#FAFBFC" stop-opacity="0.4"/>
<stop offset="0.618201" stop-color="white" stop-opacity="0.5"/>
<stop offset="0.865916" stop-color="white" stop-opacity="0.7"/>
<stop offset="1" stop-color="white" stop-opacity="0.8"/>
</linearGradient>
<linearGradient id="paint22_linear_837_6129" x1="56.6667" y1="51.1296" x2="51.5798" y2="58.3985" gradientUnits="userSpaceOnUse">
<stop stop-color="white" stop-opacity="0.9"/>
<stop offset="0.28" stop-color="white" stop-opacity="0.5"/>
<stop offset="0.65" stop-color="#FAFBFC" stop-opacity="0.4"/>
<stop offset="1" stop-color="#F0EFEF" stop-opacity="0"/>
</linearGradient>
<linearGradient id="paint23_linear_837_6129" x1="38" y1="57.2143" x2="55.7512" y2="48.6056" gradientUnits="userSpaceOnUse">
<stop stop-color="#F0EFEF" stop-opacity="0.3"/>
<stop offset="0.35" stop-color="#FAFBFC" stop-opacity="0.4"/>
<stop offset="0.618201" stop-color="white" stop-opacity="0.5"/>
<stop offset="0.865916" stop-color="white" stop-opacity="0.7"/>
<stop offset="1" stop-color="white" stop-opacity="0.8"/>
</linearGradient>
<linearGradient id="paint24_linear_837_6129" x1="64.5556" y1="59.1296" x2="60.0995" y2="67.6196" gradientUnits="userSpaceOnUse">
<stop stop-color="white" stop-opacity="0.9"/>
<stop offset="0.28" stop-color="white" stop-opacity="0.5"/>
<stop offset="0.65" stop-color="#FAFBFC" stop-opacity="0.4"/>
<stop offset="1" stop-color="#F0EFEF" stop-opacity="0"/>
</linearGradient>
<linearGradient id="paint25_linear_837_6129" x1="38" y1="61.2143" x2="55.7512" y2="52.6056" gradientUnits="userSpaceOnUse">
<stop stop-color="#F0EFEF" stop-opacity="0.3"/>
<stop offset="0.35" stop-color="#FAFBFC" stop-opacity="0.4"/>
<stop offset="0.618201" stop-color="white" stop-opacity="0.5"/>
<stop offset="0.865916" stop-color="white" stop-opacity="0.7"/>
<stop offset="1" stop-color="white" stop-opacity="0.8"/>
</linearGradient>
<linearGradient id="paint26_linear_837_6129" x1="64.5556" y1="63.1296" x2="60.0995" y2="71.6196" gradientUnits="userSpaceOnUse">
<stop stop-color="white" stop-opacity="0.9"/>
<stop offset="0.28" stop-color="white" stop-opacity="0.5"/>
<stop offset="0.65" stop-color="#FAFBFC" stop-opacity="0.4"/>
<stop offset="1" stop-color="#F0EFEF" stop-opacity="0"/>
</linearGradient>
<linearGradient id="paint27_linear_837_6129" x1="34.875" y1="53.2143" x2="42.8341" y2="51.7668" gradientUnits="userSpaceOnUse">
<stop stop-color="#F0EFEF" stop-opacity="0.3"/>
<stop offset="0.35" stop-color="#FAFBFC" stop-opacity="0.4"/>
<stop offset="0.618201" stop-color="white" stop-opacity="0.5"/>
<stop offset="0.865916" stop-color="white" stop-opacity="0.7"/>
<stop offset="1" stop-color="white" stop-opacity="0.8"/>
</linearGradient>
<linearGradient id="paint28_linear_837_6129" x1="44.8333" y1="55.1296" x2="39.7112" y2="58.7893" gradientUnits="userSpaceOnUse">
<stop stop-color="white" stop-opacity="0.9"/>
<stop offset="0.28" stop-color="white" stop-opacity="0.5"/>
<stop offset="0.65" stop-color="#FAFBFC" stop-opacity="0.4"/>
<stop offset="1" stop-color="#F0EFEF" stop-opacity="0"/>
</linearGradient>
<linearGradient id="paint29_linear_837_6129" x1="49.8125" y1="53.2143" x2="61.2917" y2="50.0828" gradientUnits="userSpaceOnUse">
<stop stop-color="#F0EFEF" stop-opacity="0.3"/>
<stop offset="0.35" stop-color="#FAFBFC" stop-opacity="0.4"/>
<stop offset="0.618201" stop-color="white" stop-opacity="0.5"/>
<stop offset="0.865916" stop-color="white" stop-opacity="0.7"/>
<stop offset="1" stop-color="white" stop-opacity="0.8"/>
</linearGradient>
<linearGradient id="paint30_linear_837_6129" x1="64.75" y1="55.1296" x2="59.3486" y2="60.9184" gradientUnits="userSpaceOnUse">
<stop stop-color="white" stop-opacity="0.9"/>
<stop offset="0.28" stop-color="white" stop-opacity="0.5"/>
<stop offset="0.65" stop-color="#FAFBFC" stop-opacity="0.4"/>
<stop offset="1" stop-color="#F0EFEF" stop-opacity="0"/>
</linearGradient>
</defs>
</svg>
