<svg width="74" height="82" viewBox="0 0 74 82" fill="none" xmlns="http://www.w3.org/2000/svg">
<path d="M41.1978 37.2319H39.5175C39.3677 36.6827 39.1076 36.1693 38.7528 35.7226H41.1978C41.4007 35.7226 41.5952 35.6426 41.7386 35.5001C41.882 35.3577 41.9625 35.1645 41.9625 34.963C41.9625 34.7615 41.882 34.5683 41.7386 34.4259C41.5952 34.2834 41.4007 34.2034 41.1978 34.2034H32.8164C32.6136 34.2034 32.4191 34.2834 32.2756 34.4259C32.1322 34.5683 32.0517 34.7615 32.0517 34.963C32.0517 35.1645 32.1322 35.3577 32.2756 35.5001C32.4191 35.6426 32.6136 35.7226 32.8164 35.7226H35.4928C35.995 35.7225 36.4868 35.8644 36.9109 36.1317C37.3349 36.3989 37.6737 36.7805 37.8875 37.2319H32.8566C32.6538 37.2319 32.4593 37.3119 32.3159 37.4543C32.1725 37.5968 32.0919 37.79 32.0919 37.9915C32.0919 38.1929 32.1725 38.3862 32.3159 38.5286C32.4593 38.6711 32.6538 38.7511 32.8566 38.7511H38.1894C38.0962 39.3911 37.7705 39.9751 37.2738 40.393C36.7771 40.8109 36.1436 41.0339 35.4928 41.02H32.4743C32.4222 41.0366 32.3742 41.0638 32.3334 41.0999L32.2328 41.1499C32.1938 41.1887 32.16 41.2324 32.1322 41.2798C32.1054 41.3107 32.0818 41.3442 32.0617 41.3798C32.0517 41.4259 32.0517 41.4736 32.0617 41.5197C32.0067 41.5957 31.9752 41.686 31.9712 41.7796V41.8795C31.9611 41.9324 31.9611 41.9866 31.9712 42.0395C31.9885 42.0889 32.0122 42.1359 32.0416 42.1794C32.043 42.1983 32.0493 42.2165 32.0599 42.2322C32.0705 42.248 32.085 42.2608 32.102 42.2693L36.67 47.5667C36.8009 47.7203 36.9878 47.816 37.1896 47.8329C37.3915 47.8497 37.5918 47.7863 37.7467 47.6566C37.8236 47.5923 37.8869 47.5134 37.9328 47.4245C37.9786 47.3355 38.0061 47.2384 38.0136 47.1387C38.0211 47.0391 38.0084 46.939 37.9764 46.8443C37.9444 46.7495 37.8937 46.6621 37.8271 46.5872L34.4866 42.5192H35.4928C36.5407 42.521 37.5513 42.1333 38.3259 41.4323C39.1005 40.7313 39.583 39.7677 39.6785 38.7311H41.2079C41.4107 38.7311 41.6052 38.6511 41.7486 38.5086C41.892 38.3662 41.9726 38.1729 41.9726 37.9715C41.9726 37.77 41.892 37.5768 41.7486 37.4344C41.6052 37.2919 41.4107 37.2119 41.2079 37.2119L41.1978 37.2319Z" fill="url(#paint0_linear_833_6056)"/>
<path d="M41.1978 37.2319H39.5175C39.3677 36.6827 39.1076 36.1693 38.7528 35.7226H41.1978C41.4007 35.7226 41.5952 35.6426 41.7386 35.5001C41.882 35.3577 41.9625 35.1645 41.9625 34.963C41.9625 34.7615 41.882 34.5683 41.7386 34.4259C41.5952 34.2834 41.4007 34.2034 41.1978 34.2034H32.8164C32.6136 34.2034 32.4191 34.2834 32.2756 34.4259C32.1322 34.5683 32.0517 34.7615 32.0517 34.963C32.0517 35.1645 32.1322 35.3577 32.2756 35.5001C32.4191 35.6426 32.6136 35.7226 32.8164 35.7226H35.4928C35.995 35.7225 36.4868 35.8644 36.9109 36.1317C37.3349 36.3989 37.6737 36.7805 37.8875 37.2319H32.8566C32.6538 37.2319 32.4593 37.3119 32.3159 37.4543C32.1725 37.5968 32.0919 37.79 32.0919 37.9915C32.0919 38.1929 32.1725 38.3862 32.3159 38.5286C32.4593 38.6711 32.6538 38.7511 32.8566 38.7511H38.1894C38.0962 39.3911 37.7705 39.9751 37.2738 40.393C36.7771 40.8109 36.1436 41.0339 35.4928 41.02H32.4743C32.4222 41.0366 32.3742 41.0638 32.3334 41.0999L32.2328 41.1499C32.1938 41.1887 32.16 41.2324 32.1322 41.2798C32.1054 41.3107 32.0818 41.3442 32.0617 41.3798C32.0517 41.4259 32.0517 41.4736 32.0617 41.5197C32.0067 41.5957 31.9752 41.686 31.9712 41.7796V41.8795C31.9611 41.9324 31.9611 41.9866 31.9712 42.0395C31.9885 42.0889 32.0122 42.1359 32.0416 42.1794C32.043 42.1983 32.0493 42.2165 32.0599 42.2322C32.0705 42.248 32.085 42.2608 32.102 42.2693L36.67 47.5667C36.8009 47.7203 36.9878 47.816 37.1896 47.8329C37.3915 47.8497 37.5918 47.7863 37.7467 47.6566C37.8236 47.5923 37.8869 47.5134 37.9328 47.4245C37.9786 47.3355 38.0061 47.2384 38.0136 47.1387C38.0211 47.0391 38.0084 46.939 37.9764 46.8443C37.9444 46.7495 37.8937 46.6621 37.8271 46.5872L34.4866 42.5192H35.4928C36.5407 42.521 37.5513 42.1333 38.3259 41.4323C39.1005 40.7313 39.583 39.7677 39.6785 38.7311H41.2079C41.4107 38.7311 41.6052 38.6511 41.7486 38.5086C41.892 38.3662 41.9726 38.1729 41.9726 37.9715C41.9726 37.77 41.892 37.5768 41.7486 37.4344C41.6052 37.2919 41.4107 37.2119 41.2079 37.2119L41.1978 37.2319Z" stroke="url(#paint1_linear_833_6056)" stroke-width="0.31" stroke-miterlimit="10"/>
<path fill-rule="evenodd" clip-rule="evenodd" d="M54.721 54.6633C54.5691 55.0396 54.3395 55.3801 54.0469 55.6628L51.0283 58.6613C50.744 58.9473 50.4057 59.1749 50.0328 59.3309C49.6599 59.487 49.2596 59.5685 48.855 59.5708C48.4467 59.5742 48.0422 59.4925 47.6677 59.3309C47.2884 59.1716 46.946 58.9369 46.6615 58.6413L44.6491 56.6423L44.297 56.8122C43.9549 56.9721 43.6027 57.112 43.2908 57.242C43.2908 57.242 43.2908 57.242 43.2304 57.242C42.8984 57.3719 42.5362 57.4918 42.1437 57.6118C42.0228 57.6556 41.8982 57.689 41.7715 57.7117V60.1305C41.7833 60.5724 41.701 61.0118 41.53 61.4199C41.3803 61.7974 41.1503 62.1383 40.8558 62.4194C40.5676 62.7007 40.2254 62.9216 39.8497 63.0691C39.4829 63.2206 39.0897 63.2987 38.6925 63.2989H34.3056C33.8985 63.3 33.4952 63.2219 33.1183 63.0691C32.7395 62.9182 32.3967 62.6901 32.1121 62.3994C31.8217 62.1149 31.5924 61.7749 31.438 61.3999C31.2888 61.0241 31.2104 60.6244 31.2066 60.2205V57.5118L30.8041 57.3719C30.4419 57.232 30.0897 57.0721 29.7275 56.9121C29.3653 56.7522 29.0131 56.5823 28.7213 56.4024L28.3993 56.2325L26.6888 57.9516C26.3979 58.2271 26.0563 58.4442 25.6826 58.5913C25.2845 58.7547 24.8553 58.8297 24.4249 58.8112C24.0322 58.8189 23.642 58.7475 23.2779 58.6013C22.9038 58.4598 22.5617 58.2457 22.2717 57.9716L19.2531 54.9031C18.9555 54.6205 18.7193 54.2804 18.5589 53.9036C18.3951 53.5284 18.3128 53.1232 18.3174 52.7142C18.3158 52.3024 18.3979 51.8944 18.5589 51.5148C18.7158 51.1363 18.9526 50.7955 19.2531 50.5153L21.2051 48.5763L21.024 48.2065L20.5813 47.147C20.4177 46.7237 20.1297 46.3591 19.7546 46.1006C19.3795 45.8421 18.9349 45.7017 18.4784 45.6977H17.6734C17.2663 45.7161 16.8595 45.6549 16.4761 45.5178C16.0947 45.3718 15.751 45.143 15.4699 44.8482C15.1931 44.5548 14.9686 44.2168 14.8058 43.8487C14.6628 43.4819 14.5878 43.0925 14.5845 42.6992V38.3214C14.5917 37.7228 14.7744 37.1392 15.1104 36.6421C15.4464 36.145 15.921 35.7561 16.4761 35.5228C16.853 35.37 17.2563 35.2919 17.6634 35.2929H20.4002L20.5411 34.8832C20.6819 34.5333 20.8429 34.1835 21.0039 33.8137C21.1649 33.4439 21.3359 33.104 21.5171 32.8142C21.5674 32.7042 21.6378 32.6043 21.6881 32.4943L19.9474 30.7952C19.6689 30.5071 19.4501 30.1675 19.3035 29.7957C19.0087 29.0574 19.0087 28.2352 19.3035 27.4968C19.4478 27.1262 19.6631 26.7867 19.9374 26.4973L23.0163 23.4988C23.5956 22.9214 24.3791 22.5915 25.1997 22.5793C25.6087 22.579 26.0132 22.6641 26.387 22.8292C26.7661 22.984 27.1088 23.2155 27.3931 23.5088L29.3451 25.4479C29.4662 25.385 29.5905 25.3283 29.7174 25.278C30.0495 25.128 30.4016 24.9781 30.784 24.8282C31.1663 24.6783 31.5084 24.5683 31.8807 24.4584C32.0059 24.4169 32.1336 24.3836 32.2631 24.3584V21.7997C32.2613 21.3971 32.3329 20.9975 32.4744 20.6203C32.6319 20.2469 32.8608 19.9075 33.1485 19.6208C33.4402 19.3439 33.7815 19.1235 34.1547 18.9711C34.5214 18.8196 34.9146 18.7415 35.3118 18.7412H39.6685C40.0756 18.7402 40.479 18.8183 40.8558 18.9711C41.2347 19.122 41.5775 19.3501 41.862 19.6408C42.1524 19.9253 42.3817 20.2653 42.5362 20.6403C42.6853 21.016 42.7638 21.4158 42.7676 21.8197V24.5283L43.17 24.6683C43.5323 24.8082 43.8844 24.9681 44.2467 25.128C44.6089 25.2879 44.961 25.4579 45.2528 25.6378L45.5748 25.8077L47.2853 24.1185C47.5746 23.8284 47.9158 23.5945 48.2915 23.4289C48.6996 23.2642 49.1397 23.1925 49.5794 23.219C49.9874 23.2184 50.3913 23.3 50.7667 23.4589C51.148 23.6145 51.4911 23.8497 51.7729 24.1485L54.7914 27.147C55.0797 27.4332 55.3088 27.7728 55.4656 28.1465C55.6247 28.5179 55.7067 28.9173 55.7067 29.3209C55.7067 29.7245 55.6247 30.124 55.4656 30.4953C55.3086 30.8739 55.0719 31.2147 54.7713 31.4948L52.8193 33.4938L53.0004 33.8537C53.1312 34.1535 53.2822 34.4834 53.423 34.8532C53.6108 35.3294 53.7687 35.8168 53.8959 36.3124H56.3208C56.7279 36.3114 57.1312 36.3895 57.5081 36.5423C57.8895 36.6884 58.2332 36.9172 58.5143 37.212C58.7911 37.5054 59.0156 37.8434 59.1784 38.2115C59.3214 38.5782 59.3964 38.9676 59.3997 39.3609V43.6987C59.3983 44.1019 59.3233 44.5015 59.1784 44.8782C59.0133 45.2474 58.7852 45.5855 58.5042 45.8777C58.2197 46.1683 57.8769 46.3965 57.4981 46.5473C57.1198 46.6955 56.7174 46.7734 56.3108 46.7772H53.6041C53.6041 46.9071 53.5136 47.0371 53.4633 47.177C53.3224 47.5368 53.1815 47.8867 53.0004 48.2465C52.8193 48.6063 52.6684 48.9561 52.4873 49.246C52.4873 49.3459 52.3665 49.4559 52.3162 49.5658L54.0267 51.255C54.3126 51.5452 54.5443 51.8837 54.7109 52.2545C54.8715 52.6272 54.9542 53.0284 54.9542 53.4339C54.9542 53.8393 54.8715 54.2405 54.7109 54.6133L54.721 54.6633ZM49.1568 41.21C49.1575 42.0217 49.08 42.8317 48.9254 43.6288C48.7735 44.4069 48.5408 45.1672 48.2311 45.8976C47.9335 46.6258 47.5627 47.3223 47.1243 47.9766C46.7037 48.6172 46.2182 49.2133 45.6754 49.7557C45.1255 50.2965 44.5259 50.7851 43.8844 51.215C43.2193 51.6423 42.5192 52.0134 41.7916 52.3244C41.7916 52.3244 41.7211 52.3244 41.701 52.3244C40.996 52.6203 40.2652 52.8512 39.5176 53.0141C37.9056 53.3206 36.2497 53.3206 34.6376 53.0141C33.858 52.8666 33.0959 52.6388 32.3637 52.3344C31.6261 52.0375 30.9214 51.6657 30.2608 51.225C29.6085 50.8013 29.0016 50.3123 28.4496 49.7657C27.9153 49.2185 27.4336 48.6228 27.0108 47.9866C26.573 47.3304 26.199 46.6342 25.8939 45.9076C25.8939 45.9076 25.8939 45.8477 25.8436 45.8177C25.5596 45.116 25.3407 44.39 25.1896 43.6488C25.0404 42.8509 24.963 42.0415 24.9582 41.23C24.9621 40.4184 25.0395 39.6089 25.1896 38.8112C25.5045 37.2608 26.1159 35.7849 26.9907 34.4634C27.4093 33.8186 27.8986 33.2219 28.4496 32.6843C28.9969 32.1406 29.5968 31.6518 30.2406 31.225C30.9052 30.791 31.6053 30.4132 32.3335 30.0955C32.3335 30.0955 32.4039 30.0955 32.424 30.0955C33.1363 29.8202 33.8698 29.603 34.6175 29.4459C36.2295 29.1394 37.8855 29.1394 39.4975 29.4459C40.2793 29.5981 41.0442 29.8257 41.7815 30.1255C42.5171 30.424 43.2186 30.7993 43.8744 31.245C44.515 31.676 45.1145 32.1645 45.6654 32.7042C46.1952 33.2581 46.6797 33.853 47.1143 34.4834C47.5408 35.1289 47.9078 35.8113 48.211 36.5223C48.211 36.5223 48.211 36.5823 48.211 36.6023C48.4937 37.3045 48.7125 38.0303 48.865 38.7712C49.028 39.5706 49.1089 40.3844 49.1065 41.2L49.1568 41.21Z" stroke="url(#paint2_linear_833_6056)" stroke-width="1.2" stroke-miterlimit="10"/>
<path fill-rule="evenodd" clip-rule="evenodd" d="M30.3109 76.1824C22.2744 74.6707 14.9954 70.4862 9.67171 64.3177C4.34805 58.1492 1.29697 50.3642 1.02058 42.2437C0.744184 34.1233 3.25894 26.1513 8.15101 19.6397C13.0431 13.1281 20.021 8.46481 27.9364 6.41729L29.1035 10.8851C22.266 12.6363 16.2235 16.6283 11.9539 22.2151C7.68435 27.8018 5.43758 34.6563 5.57727 41.6692C5.71695 48.682 8.2349 55.4429 12.7236 60.8575C17.2123 66.2721 23.4091 70.0236 30.3109 71.5047V66.6972L39.0848 73.8436L30.3109 81V76.1824ZM43.7032 5.89755C51.5173 7.37069 58.6207 11.3722 63.9046 17.2775C69.1885 23.1828 72.3557 30.6596 72.9118 38.5411C73.468 46.4226 71.3818 54.2652 66.9788 60.845C62.5759 67.4248 56.104 72.3715 48.5731 74.913L47.8185 72.7241L47.0638 70.5052L47.6072 70.3153C54.01 68.0274 59.4901 63.7329 63.2205 58.0799C66.951 52.4269 68.7294 45.7221 68.2876 38.977C67.8457 32.2319 65.2076 25.8126 60.7711 20.6875C56.3346 15.5624 50.3405 12.0096 43.6931 10.5652V15.3128L34.9293 8.15642L43.7032 1V5.85757V5.89755Z" fill="url(#paint3_linear_833_6056)"/>
<path fill-rule="evenodd" clip-rule="evenodd" d="M30.3109 76.1824C22.2744 74.6707 14.9954 70.4862 9.67171 64.3177C4.34805 58.1492 1.29697 50.3642 1.02058 42.2437C0.744184 34.1233 3.25894 26.1513 8.15101 19.6397C13.0431 13.1281 20.021 8.46481 27.9364 6.41729L29.1035 10.8851C22.266 12.6363 16.2235 16.6283 11.9539 22.2151C7.68435 27.8018 5.43758 34.6563 5.57727 41.6692C5.71695 48.682 8.2349 55.4429 12.7236 60.8575C17.2123 66.2721 23.4091 70.0236 30.3109 71.5047V66.6972L39.0848 73.8436L30.3109 81V76.1824ZM43.7032 5.89755C51.5173 7.37069 58.6207 11.3722 63.9046 17.2775C69.1885 23.1828 72.3557 30.6596 72.9118 38.5411C73.468 46.4226 71.3818 54.2652 66.9788 60.845C62.5759 67.4247 56.104 72.3715 48.5731 74.913L47.8185 72.7241L47.0638 70.5052L47.6072 70.3153C54.01 68.0274 59.4901 63.7329 63.2205 58.0799C66.951 52.4269 68.7294 45.7221 68.2876 38.977C67.8457 32.2319 65.2076 25.8126 60.7711 20.6875C56.3346 15.5624 50.3405 12.0096 43.6931 10.5652V15.3128L34.9293 8.15642L43.7032 1V5.85757V5.89755Z" stroke="url(#paint4_linear_833_6056)" stroke-width="0.16" stroke-miterlimit="10"/>
<path d="M28.8569 7.11966C28.8569 10.5065 28.5345 13.258 28.1374 13.258C27.7404 13.258 27.4087 10.5065 27.4087 7.11966C27.4087 3.73283 27.745 1 28.1374 1C28.5299 1 28.8569 3.72816 28.8569 7.11966Z" fill="url(#paint5_radial_833_6056)"/>
<path d="M28.1384 7.82976C24.7516 7.82976 22 7.50742 22 7.11035C22 6.71327 24.7516 6.38159 28.1384 6.38159C31.5252 6.38159 34.2581 6.71794 34.2581 7.11035C34.2581 7.50275 31.5299 7.82976 28.1384 7.82976Z" fill="url(#paint6_radial_833_6056)"/>
<path d="M48.8569 75.1197C48.8569 78.5065 48.5345 81.258 48.1374 81.258C47.7404 81.258 47.4087 78.5065 47.4087 75.1197C47.4087 71.7328 47.745 69 48.1374 69C48.5299 69 48.8569 71.7282 48.8569 75.1197Z" fill="url(#paint7_radial_833_6056)"/>
<path d="M48.1384 75.8298C44.7516 75.8298 42 75.5074 42 75.1103C42 74.7133 44.7516 74.3816 48.1384 74.3816C51.5252 74.3816 54.2581 74.7179 54.2581 75.1103C54.2581 75.5028 51.5299 75.8298 48.1384 75.8298Z" fill="url(#paint8_radial_833_6056)"/>
<defs>
<linearGradient id="paint0_linear_833_6056" x1="37.0021" y1="47.8366" x2="37.0021" y2="34.2134" gradientUnits="userSpaceOnUse">
<stop stop-color="#79A540"/>
<stop offset="0.2" stop-color="#94C63D"/>
<stop offset="0.39" stop-color="#98CA3C"/>
<stop offset="0.59" stop-color="#93C53E"/>
<stop offset="0.74" stop-color="#9DCB3B"/>
<stop offset="0.9" stop-color="#A6CE39"/>
<stop offset="1" stop-color="#A6CE39"/>
</linearGradient>
<linearGradient id="paint1_linear_833_6056" x1="37.0062" y1="47.9964" x2="37.0105" y2="34.0572" gradientUnits="userSpaceOnUse">
<stop stop-color="white" stop-opacity="0.9"/>
<stop offset="0.28" stop-color="white" stop-opacity="0.5"/>
<stop offset="0.65" stop-color="#FAFBFC" stop-opacity="0.4"/>
<stop offset="1" stop-color="#F0EFEF" stop-opacity="0.3"/>
</linearGradient>
<linearGradient id="paint2_linear_833_6056" x1="13.9808" y1="41.0201" x2="60.0236" y2="41.0201" gradientUnits="userSpaceOnUse">
<stop stop-color="white" stop-opacity="0.9"/>
<stop offset="0.04" stop-color="white" stop-opacity="0.85"/>
<stop offset="0.28" stop-color="white" stop-opacity="0.5"/>
<stop offset="0.65" stop-color="#FAFBFC" stop-opacity="0.4"/>
<stop offset="1" stop-color="#F0EFEF" stop-opacity="0.3"/>
</linearGradient>
<linearGradient id="paint3_linear_833_6056" x1="21.5" y1="13.5" x2="44.5" y2="85" gradientUnits="userSpaceOnUse">
<stop stop-color="#F0EFEF" stop-opacity="0.3"/>
<stop offset="0.35" stop-color="#FAFBFC" stop-opacity="0.4"/>
<stop offset="0.72" stop-color="white" stop-opacity="0.5"/>
<stop offset="0.96" stop-color="white" stop-opacity="0.85"/>
<stop offset="1" stop-color="white" stop-opacity="0.9"/>
</linearGradient>
<linearGradient id="paint4_linear_833_6056" x1="37.002" y1="81.1699" x2="37.002" y2="0.870063" gradientUnits="userSpaceOnUse">
<stop stop-color="white" stop-opacity="0.9"/>
<stop offset="0.28" stop-color="white" stop-opacity="0.5"/>
<stop offset="0.65" stop-color="#FAFBFC" stop-opacity="0.4"/>
<stop offset="1" stop-color="#F0EFEF" stop-opacity="0.3"/>
</linearGradient>
<radialGradient id="paint5_radial_833_6056" cx="0" cy="0" r="1" gradientUnits="userSpaceOnUse" gradientTransform="translate(28.0223 7.56738) scale(0.716421 6.14265)">
<stop stop-color="white"/>
<stop offset="0.07" stop-color="white" stop-opacity="0.93"/>
<stop offset="1" stop-color="white" stop-opacity="0"/>
</radialGradient>
<radialGradient id="paint6_radial_833_6056" cx="0" cy="0" r="1" gradientUnits="userSpaceOnUse" gradientTransform="translate(27.6907 6.99524) rotate(90) scale(0.716421 6.14265)">
<stop stop-color="white"/>
<stop offset="0.07" stop-color="white" stop-opacity="0.93"/>
<stop offset="1" stop-color="white" stop-opacity="0"/>
</radialGradient>
<radialGradient id="paint7_radial_833_6056" cx="0" cy="0" r="1" gradientUnits="userSpaceOnUse" gradientTransform="translate(48.0223 75.5674) scale(0.716421 6.14265)">
<stop stop-color="white"/>
<stop offset="0.07" stop-color="white" stop-opacity="0.93"/>
<stop offset="1" stop-color="white" stop-opacity="0"/>
</radialGradient>
<radialGradient id="paint8_radial_833_6056" cx="0" cy="0" r="1" gradientUnits="userSpaceOnUse" gradientTransform="translate(47.6907 74.9952) rotate(90) scale(0.716421 6.14265)">
<stop stop-color="white"/>
<stop offset="0.07" stop-color="white" stop-opacity="0.93"/>
<stop offset="1" stop-color="white" stop-opacity="0"/>
</radialGradient>
</defs>
</svg>
