<svg width="87" height="82" viewBox="0 0 87 82" fill="none" xmlns="http://www.w3.org/2000/svg">
<path d="M82 8.26649C81.8815 8.7298 81.6484 9.15578 81.3222 9.50513C80.996 9.85449 80.5872 10.116 80.1336 10.2655C76.5304 11.7547 72.8674 13.094 69.2343 14.5033C68.5356 14.7732 67.8469 15.063 67.1383 15.3029C66.9725 15.3535 66.8227 15.4465 66.7037 15.5727C66.5847 15.6989 66.5006 15.8539 66.4596 16.0226C65.4615 19.2309 64.4634 22.4393 63.4653 25.6477L58.0855 43.0189C56.0893 49.4556 54.1464 55.9023 52.2566 62.359C52.0271 63.1386 51.7775 63.9182 51.528 64.6879C51.3549 65.1626 51.0531 65.5797 50.6564 65.8922C50.2597 66.2047 49.7838 66.4003 49.2823 66.457C48.8731 66.457 48.4738 66.457 48.0646 66.5169C38.2134 66.6469 28.3521 66.6369 18.5009 66.5669C16.4248 66.5669 14.3488 66.5669 12.2628 66.457C11.7852 66.4235 11.3339 66.2257 10.9852 65.8972C10.6187 65.6423 10.3193 65.3024 10.1125 64.9064C9.90575 64.5104 9.79774 64.0702 9.79774 63.6234C9.79774 63.1766 9.90575 62.7364 10.1125 62.3404C10.3193 61.9444 10.6187 61.6045 10.9852 61.3495C11.3977 60.9947 11.9289 60.809 12.4724 60.8298H46.0684C46.1591 60.8454 46.2521 60.8423 46.3416 60.8207C46.4311 60.7992 46.5153 60.7596 46.5891 60.7044C46.6628 60.6493 46.7246 60.5797 46.7707 60.4998C46.8167 60.42 46.846 60.3316 46.8569 60.2401C47.4458 58.0912 48.0746 55.9523 48.6934 53.8134C48.8831 53.1537 48.8631 53.1237 48.1744 53.1137C46.4577 53.1137 44.7409 53.1137 43.0342 53.1137C33.8816 52.9938 24.739 53.1137 15.5964 53.0238C14.7181 53.0238 13.8498 52.9638 12.9814 52.9638C12.4869 52.9757 11.9991 52.8479 11.5737 52.5952C11.1483 52.3424 10.8026 51.9748 10.576 51.5345C10.1748 50.772 9.87933 49.9582 9.69766 49.1158C7.30887 40.8933 4.97997 32.6508 2.71096 24.3883L2.08215 22.0295C1.97262 21.6474 1.97262 21.2422 2.08215 20.8601C2.22514 20.3408 2.51683 19.8748 2.92123 19.5195C3.32562 19.1643 3.82503 18.9354 4.35782 18.8611C4.85239 18.7422 5.37115 18.7738 5.84769 18.9518C6.32422 19.1299 6.73685 19.4463 7.03273 19.8606C7.18205 20.073 7.29349 20.3097 7.3621 20.5602C8.73948 24.898 9.99709 29.2758 11.2647 33.6536C12.5323 38.0314 13.8298 42.5391 15.0874 46.9169C15.097 46.979 15.119 47.0385 15.152 47.0919C15.185 47.1454 15.2284 47.1916 15.2796 47.228C15.3308 47.2643 15.3887 47.29 15.45 47.3035C15.5113 47.317 15.5747 47.3181 15.6364 47.3067H42.2257C44.8507 47.3067 47.4757 47.3067 50.0908 47.2467C50.7096 47.2467 50.7096 47.2467 50.8992 46.647L58.8042 21.2999C59.7224 18.3614 60.6507 15.4329 61.6488 12.5243C61.7792 12.0765 62.0123 11.6653 62.3294 11.3234C62.6465 10.9816 63.0388 10.7186 63.4753 10.5553C66.7191 9.20601 70.0128 8.01662 73.2866 6.75725C74.7937 6.17755 76.2809 5.59784 77.8479 5.10809C78.3641 4.94338 78.9032 4.8624 79.4449 4.86821C79.967 4.86264 80.4774 5.0232 80.9025 5.32677C81.3276 5.63034 81.6455 6.06124 81.8104 6.55736C81.8839 6.71983 81.9472 6.88673 82 7.0571V8.26649Z" fill="url(#paint0_linear_833_6068)"/>
<path d="M35.9176 1.08002C35.9176 3.07901 35.9176 5.07799 35.9176 7.12695C35.9061 7.18933 35.9071 7.25337 35.9205 7.31537C35.9339 7.37737 35.9594 7.43609 35.9956 7.48815C36.0318 7.5402 36.078 7.58455 36.1314 7.61862C36.1848 7.6527 36.2445 7.67582 36.3069 7.68667C37.9274 8.10805 39.4775 8.76468 40.9081 9.63568C41.1576 9.7956 41.2774 9.63568 41.4171 9.49575C42.7646 8.15643 44.112 6.8371 45.4095 5.49778C45.669 5.23791 45.8287 5.22791 46.0882 5.49778C47.1562 6.59722 48.2342 7.66668 49.3221 8.73613C49.5916 9.006 49.6215 9.15592 49.3221 9.44577C47.9846 10.7651 46.6771 12.1044 45.3297 13.4437C45.1101 13.6536 45.0402 13.8236 45.2299 14.0934C46.0807 15.4308 46.6952 16.905 47.0464 18.4512C47.0825 18.5982 47.1673 18.7287 47.2869 18.8212C47.4066 18.9138 47.554 18.9631 47.7052 18.9609C49.5417 18.9609 51.3782 18.9609 53.2147 18.9609C53.7936 18.9609 53.7936 18.9609 53.7936 19.5606C53.7936 21.0099 53.7936 22.4692 53.7936 23.9284C53.7936 24.3282 53.6538 24.4382 53.2746 24.4382C51.4081 24.4382 49.5417 24.4382 47.6752 24.4382C47.5283 24.4382 47.3857 24.4875 47.27 24.578C47.1542 24.6685 47.072 24.7952 47.0364 24.9379C46.6694 26.5295 46.0349 28.047 45.16 29.4256C44.9903 29.6755 45.16 29.7954 45.2997 29.9454C46.6272 31.2747 47.9347 32.614 49.2921 33.9433C49.7712 34.4131 49.4618 34.543 48.4737 35.3826C47.6813 36.0677 46.953 36.8238 46.2978 37.6415C45.8886 38.1512 45.7289 38.2412 45.4095 37.9213C44.122 36.632 42.8544 35.3126 41.507 34.0833C41.3838 33.9443 41.2135 33.8562 41.0291 33.8359C40.8446 33.8155 40.6593 33.8645 40.5089 33.9733C39.2123 34.7532 37.8009 35.3233 36.3268 35.6625C36.2027 35.6878 36.0911 35.7555 36.011 35.8538C35.931 35.9522 35.8874 36.0753 35.8877 36.2022C35.8877 38.0513 35.8877 39.9103 35.8877 41.7594C35.8877 42.2891 35.8877 42.2991 35.3387 42.2891C33.8515 42.2891 32.3444 42.2891 30.8772 42.2191C30.7625 42.2139 30.6543 42.164 30.576 42.0799C30.4976 41.9958 30.4553 41.8843 30.458 41.7694C30.458 39.9303 30.458 38.0912 30.458 36.2522C30.4565 36.1088 30.4063 35.9703 30.3155 35.8594C30.2248 35.7486 30.099 35.672 29.9589 35.6425C28.4742 35.2824 27.0513 34.703 25.737 33.9234C25.6153 33.8318 25.4637 33.7893 25.3123 33.8041C25.1608 33.8189 25.0203 33.8899 24.9185 34.0033C23.611 35.1627 22.4233 36.4321 21.1757 37.6515C20.5069 38.3111 20.6966 38.3211 20.0179 37.6515C19.0198 36.652 18.0217 35.6525 17.0236 34.653C16.9771 34.6074 16.9402 34.553 16.915 34.4929C16.8898 34.4328 16.8768 34.3683 16.8768 34.3032C16.8768 34.238 16.8898 34.1735 16.915 34.1134C16.9402 34.0534 16.9771 33.9989 17.0236 33.9533C18.3211 32.664 19.6286 31.4046 20.8463 30.0453C20.9203 29.9878 20.9821 29.916 21.0278 29.8342C21.0736 29.7523 21.1025 29.6621 21.1127 29.5689C21.123 29.4756 21.1144 29.3813 21.0875 29.2914C21.0606 29.2016 21.0159 29.118 20.9561 29.0458C20.1797 27.7309 19.6075 26.3053 19.2593 24.818C19.1895 24.4781 19.0098 24.4082 18.6904 24.4082H13.1909C12.602 24.4082 12.582 24.4082 12.582 23.7885V19.5506C12.582 19.3942 12.6441 19.2443 12.7545 19.1337C12.8649 19.0231 13.0147 18.9609 13.1709 18.9609C15.0074 18.9609 16.8439 18.9609 18.6804 18.9609C18.8316 18.9631 18.979 18.9138 19.0987 18.8212C19.2183 18.7287 19.3031 18.5982 19.3392 18.4512C19.6948 16.9095 20.3091 15.4394 21.1557 14.1034C21.1975 14.056 21.2285 14.0002 21.2468 13.9398C21.2651 13.8793 21.2701 13.8156 21.2616 13.753C21.2531 13.6904 21.2312 13.6304 21.1974 13.577C21.1636 13.5236 21.1188 13.4782 21.0659 13.4437C19.7384 12.1244 18.4209 10.7851 17.0735 9.44577C17.0252 9.39915 16.9868 9.34326 16.9605 9.28144C16.9343 9.21962 16.9208 9.15313 16.9208 9.08596C16.9208 9.01878 16.9343 8.95229 16.9605 8.89047C16.9868 8.82865 17.0252 8.77276 17.0735 8.72614C18.1714 7.65335 19.256 6.56723 20.3273 5.46779C20.3675 5.4245 20.4161 5.38997 20.4702 5.36636C20.5243 5.34275 20.5827 5.33057 20.6417 5.33057C20.7007 5.33057 20.7591 5.34275 20.8132 5.36636C20.8673 5.38997 20.9159 5.4245 20.9561 5.46779C22.2935 6.81711 23.651 8.14643 24.9485 9.46576C25.03 9.54676 25.1366 9.59775 25.2507 9.61045C25.3649 9.62315 25.48 9.59682 25.5773 9.53573C26.9735 8.66706 28.5052 8.03869 30.1087 7.67667C30.4081 7.60671 30.448 7.4268 30.448 7.17693C30.448 5.1313 30.448 3.08567 30.448 1.04004L35.9176 1.08002ZM33.2527 16.4522C32.5661 16.4321 31.8825 16.5505 31.2426 16.8004C30.6026 17.0503 30.0195 17.4266 29.5278 17.9069C29.036 18.3872 28.6459 18.9616 28.3804 19.596C28.115 20.2304 27.9797 20.9118 27.9827 21.5996C27.9742 22.2926 28.1021 22.9806 28.359 23.6241C28.616 24.2676 28.997 24.8542 29.4804 25.3503C29.9637 25.8463 30.5399 26.2422 31.176 26.5153C31.8121 26.7884 32.4957 26.9334 33.1878 26.9419C33.8799 26.9504 34.5668 26.8224 35.2095 26.565C35.8521 26.3077 36.4378 25.9262 36.9332 25.4421C37.9337 24.4646 38.5054 23.1292 38.5226 21.7295C38.5334 21.0335 38.4045 20.3424 38.1434 19.6973C37.8824 19.0521 37.4946 18.4661 37.0031 17.9739C36.5116 17.4817 35.9263 17.0933 35.2821 16.8319C34.6378 16.5706 33.9477 16.4414 33.2527 16.4522Z" fill="url(#paint1_linear_833_6068)"/>
<path d="M8.01106 74.6127C7.9287 73.8116 8.04088 73.0025 8.33805 72.2542C8.63521 71.5059 9.10857 70.8406 9.71781 70.3149C10.2642 69.725 10.9246 69.2525 11.659 68.926C12.3933 68.5996 13.1863 68.426 13.9897 68.4159C14.8128 68.4073 15.6296 68.5612 16.3933 68.8688C17.157 69.1764 17.8528 69.6315 18.4409 70.2084C19.0289 70.7852 19.4978 71.4724 19.8207 72.2306C20.1435 72.9889 20.3141 73.8034 20.3226 74.6277C20.3311 75.452 20.1775 76.2699 19.8703 77.0347C19.5632 77.7995 19.1086 78.4962 18.5326 79.0851C17.9566 79.674 17.2704 80.1435 16.5132 80.4668C15.756 80.7902 14.9426 80.961 14.1194 80.9695C10.5762 81.0295 7.58188 77.6712 8.01106 74.6127Z" fill="url(#paint2_linear_833_6068)"/>
<path d="M42.2456 74.7528C41.8563 71.1446 45.4595 68.336 48.2342 68.416C51.9471 68.5259 54.6021 71.0246 54.6021 74.6328C54.6207 75.4622 54.4736 76.287 54.1695 77.0587C53.8653 77.8304 53.4102 78.5335 52.831 79.1266C52.2517 79.7197 51.5599 80.1909 50.7962 80.5126C50.0326 80.8342 49.2124 80.9998 48.3839 80.9996C45.5593 81.0396 41.8563 78.4009 42.2456 74.7528Z" fill="url(#paint3_linear_833_6068)"/>
<path d="M82 8.26649C81.8815 8.7298 81.6484 9.15578 81.3222 9.50513C80.996 9.85449 80.5872 10.116 80.1336 10.2655C76.5304 11.7547 72.8674 13.094 69.2343 14.5033C68.5356 14.7732 67.8469 15.063 67.1383 15.3029C66.9725 15.3535 66.8227 15.4465 66.7037 15.5727C66.5847 15.6989 66.5006 15.8539 66.4596 16.0226C65.4615 19.2309 64.4634 22.4393 63.4653 25.6477L58.0855 43.0189C56.0893 49.4556 54.1464 55.9023 52.2566 62.359C52.0271 63.1386 51.7775 63.9182 51.528 64.6879C51.3549 65.1626 51.0531 65.5797 50.6564 65.8922C50.2597 66.2047 49.7838 66.4003 49.2823 66.457C48.8731 66.457 48.4738 66.457 48.0646 66.5169C38.2134 66.6469 28.3521 66.6369 18.5009 66.5669C16.4248 66.5669 14.3488 66.5669 12.2628 66.457C11.7852 66.4235 11.3339 66.2257 10.9852 65.8972C10.6187 65.6423 10.3193 65.3024 10.1125 64.9064C9.90575 64.5104 9.79774 64.0702 9.79774 63.6234C9.79774 63.1766 9.90575 62.7364 10.1125 62.3404C10.3193 61.9444 10.6187 61.6045 10.9852 61.3495C11.3977 60.9947 11.9289 60.809 12.4724 60.8298H46.0684C46.1591 60.8454 46.2521 60.8423 46.3416 60.8207C46.4311 60.7992 46.5153 60.7596 46.5891 60.7044C46.6628 60.6493 46.7246 60.5797 46.7707 60.4998C46.8167 60.42 46.846 60.3316 46.8569 60.2401C47.4458 58.0912 48.0746 55.9523 48.6934 53.8134C48.8831 53.1537 48.8631 53.1237 48.1744 53.1137C46.4577 53.1137 44.7409 53.1137 43.0342 53.1137C33.8816 52.9938 24.739 53.1137 15.5964 53.0238C14.7181 53.0238 13.8498 52.9638 12.9814 52.9638C12.4869 52.9757 11.9991 52.8479 11.5737 52.5952C11.1483 52.3424 10.8025 51.9748 10.576 51.5345C10.1748 50.772 9.87933 49.9582 9.69766 49.1158C7.30887 40.8933 4.97997 32.6508 2.71096 24.3883L2.08215 22.0295C1.97262 21.6474 1.97262 21.2422 2.08215 20.8601C2.22514 20.3408 2.51683 19.8748 2.92123 19.5195C3.32562 19.1643 3.82503 18.9354 4.35782 18.8611C4.85239 18.7422 5.37115 18.7738 5.84769 18.9518C6.32422 19.1299 6.73685 19.4463 7.03273 19.8606C7.18205 20.073 7.29349 20.3097 7.3621 20.5602C8.73948 24.898 9.99709 29.2758 11.2647 33.6536C12.5323 38.0314 13.8298 42.5391 15.0874 46.9169C15.097 46.979 15.119 47.0385 15.152 47.0919C15.185 47.1454 15.2284 47.1916 15.2796 47.228C15.3308 47.2643 15.3887 47.29 15.45 47.3035C15.5113 47.317 15.5747 47.3181 15.6364 47.3067H42.2257C44.8507 47.3067 47.4757 47.3067 50.0908 47.2467C50.7096 47.2467 50.7096 47.2467 50.8992 46.647L58.8042 21.2999C59.7224 18.3614 60.6507 15.4329 61.6487 12.5243C61.7792 12.0765 62.0123 11.6653 62.3294 11.3234C62.6465 10.9816 63.0388 10.7186 63.4753 10.5553C66.7191 9.20601 70.0128 8.01662 73.2866 6.75725C74.7937 6.17755 76.2809 5.59784 77.8479 5.10809C78.3641 4.94338 78.9032 4.8624 79.4449 4.86821C79.967 4.86264 80.4774 5.0232 80.9025 5.32677C81.3276 5.63034 81.6455 6.06124 81.8104 6.55736C81.8839 6.71983 81.9472 6.88673 82 7.0571V8.26649Z" stroke="url(#paint4_linear_833_6068)" stroke-width="0.25" stroke-miterlimit="10"/>
<path d="M35.9176 1.07996C35.9176 1.25987 35.9176 1.42978 35.9176 1.60969C35.9176 3.45875 35.9176 5.30781 35.9176 7.15688C35.9061 7.21925 35.9071 7.2833 35.9205 7.3453C35.9339 7.4073 35.9594 7.46602 35.9956 7.51807C36.0318 7.57012 36.078 7.61447 36.1314 7.64855C36.1848 7.68262 36.2445 7.70575 36.3069 7.71659C37.9274 8.13797 39.4775 8.7946 40.9081 9.6656C41.1576 9.82552 41.2774 9.6656 41.4171 9.52567C42.7646 8.18635 44.112 6.86702 45.4095 5.5277C45.669 5.26783 45.8287 5.25784 46.0882 5.5277C47.1562 6.62714 48.2342 7.6966 49.3221 8.76606C49.5916 9.03592 49.6215 9.18585 49.3221 9.4757C47.9846 10.795 46.6771 12.1343 45.3297 13.4737C45.1101 13.6836 45.0402 13.8535 45.2299 14.1233C46.0788 15.4582 46.6932 16.9287 47.0464 18.4711C47.0508 18.5505 47.072 18.6279 47.1085 18.6984C47.1451 18.7689 47.1963 18.8308 47.2586 18.88C47.3209 18.9291 47.393 18.9644 47.47 18.9836C47.5469 19.0027 47.6271 19.0052 47.7052 18.9909C49.5417 18.9909 51.3782 18.9909 53.2147 18.9909C53.7936 18.9909 53.7936 18.9909 53.7936 19.5906C53.7936 21.0398 53.7936 22.4991 53.7936 23.9583C53.7936 24.3581 53.6538 24.4681 53.2746 24.4681C51.4081 24.4681 49.5516 24.4681 47.6852 24.4681C47.6095 24.4554 47.5319 24.4585 47.4574 24.4771C47.3829 24.4958 47.313 24.5296 47.2521 24.5765C47.1913 24.6234 47.1407 24.6823 47.1036 24.7497C47.0665 24.817 47.0436 24.8913 47.0364 24.9678C46.6694 26.5594 46.0349 28.0769 45.16 29.4556C44.9903 29.7054 45.16 29.8254 45.2997 29.9753C46.6272 31.3046 47.9347 32.6439 49.2921 33.9733C49.5916 34.2631 49.5816 34.423 49.2921 34.7129C48.1942 35.7723 47.1263 36.8518 46.0583 37.9413C45.8088 38.2011 45.6591 38.2011 45.4095 37.9413C44.122 36.6519 42.8544 35.3326 41.507 34.1032C41.3838 33.9643 41.2135 33.8761 41.0291 33.8558C40.8446 33.8355 40.6593 33.8845 40.5089 33.9933C39.2007 34.7808 37.7755 35.3544 36.2869 35.6924C35.9775 35.7524 35.8777 35.9123 35.8877 36.2221C35.8877 38.0712 35.8877 39.9302 35.8877 41.7793C35.8877 42.309 35.8877 42.319 35.3387 42.309C33.8615 42.309 32.3444 42.309 30.8972 42.2391C30.5678 42.2391 30.458 42.1191 30.458 41.7893C30.458 39.9502 30.458 38.1112 30.458 36.2721C30.4709 36.2005 30.4683 36.127 30.4505 36.0565C30.4326 35.9859 30.3999 35.9201 30.3545 35.8632C30.3091 35.8064 30.2521 35.76 30.1874 35.7271C30.1226 35.6942 30.0515 35.6755 29.9789 35.6724C28.4869 35.3107 27.0571 34.7279 25.737 33.9433C25.6153 33.8517 25.4637 33.8092 25.3123 33.824C25.1608 33.8388 25.0203 33.9099 24.9185 34.0232C23.611 35.1827 22.4233 36.452 21.1757 37.6714C20.5069 38.3311 20.6966 38.3411 20.0179 37.6714C19.0198 36.6719 18.0217 35.6724 17.0236 34.6729C16.7541 34.413 16.7641 34.2431 17.0236 33.9833C18.3211 32.6939 19.6286 31.4346 20.8463 30.0752C20.9203 30.0178 20.9821 29.946 21.0278 29.8641C21.0736 29.7823 21.1025 29.692 21.1127 29.5988C21.123 29.5056 21.1144 29.4112 21.0875 29.3213C21.0606 29.2315 21.0159 29.148 20.9561 29.0758C20.1797 27.7608 19.6075 26.3352 19.2593 24.8479C19.1895 24.5081 19.0098 24.4381 18.6904 24.4381H13.1909C12.602 24.4381 12.582 24.4381 12.582 23.8184V19.5506C12.582 18.9709 12.582 18.9509 13.1709 18.9509C15.0074 18.9509 16.8439 18.9509 18.6804 18.9509C19.0797 18.9509 19.2394 18.821 19.3392 18.4312C19.6959 16.8929 20.3101 15.4263 21.1557 14.0934C21.1975 14.046 21.2285 13.9902 21.2468 13.9297C21.2651 13.8692 21.2701 13.8055 21.2616 13.7429C21.2531 13.6803 21.2312 13.6203 21.1974 13.567C21.1636 13.5136 21.1188 13.4681 21.0659 13.4337C19.7384 12.1144 18.4209 10.775 17.0735 9.43572C16.794 9.15586 16.804 8.99594 17.0735 8.71608C18.1714 7.64329 19.256 6.55718 20.3273 5.45774C20.5668 5.21786 20.7165 5.21786 20.9561 5.45774C22.2935 6.80705 23.651 8.13638 24.9485 9.45571C24.9827 9.50352 25.0265 9.54361 25.0771 9.57338C25.1277 9.60315 25.184 9.62195 25.2424 9.62854C25.3007 9.63514 25.3598 9.62939 25.4157 9.61167C25.4717 9.59395 25.5234 9.56465 25.5673 9.52567C26.9663 8.6553 28.5015 8.02685 30.1087 7.66662C30.4081 7.59665 30.448 7.41674 30.448 7.16687C30.448 5.29782 30.448 3.43876 30.448 1.56971C30.448 1.37981 30.448 1.1899 30.448 1L35.9176 1.07996ZM33.2527 16.4522C32.5661 16.432 31.8825 16.5505 31.2426 16.8004C30.6026 17.0503 30.0195 17.4266 29.5278 17.9068C29.036 18.3871 28.6459 18.9615 28.3804 19.5959C28.115 20.2303 27.9797 20.9117 27.9827 21.5995C27.9742 22.2926 28.1021 22.9805 28.359 23.624C28.616 24.2676 28.997 24.8541 29.4804 25.3502C29.9637 25.8463 30.5399 26.2422 31.176 26.5153C31.8121 26.7884 32.4957 26.9333 33.1878 26.9418C33.8799 26.9504 34.5668 26.8223 35.2095 26.565C35.8521 26.3077 36.4378 25.9261 36.9332 25.4421C37.9337 24.4646 38.5054 23.1291 38.5226 21.7295C38.5334 21.0335 38.4045 20.3424 38.1435 19.6972C37.8824 19.0521 37.4946 18.466 37.0031 17.9738C36.5116 17.4816 35.9263 17.0933 35.2821 16.8319C34.6378 16.5705 33.9477 16.4414 33.2527 16.4522Z" stroke="url(#paint5_linear_833_6068)" stroke-width="0.25" stroke-miterlimit="10"/>
<path d="M8.01106 74.6127C7.9287 73.8116 8.04088 73.0025 8.33805 72.2542C8.63521 71.5059 9.10857 70.8406 9.71781 70.3149C10.2642 69.725 10.9246 69.2525 11.659 68.926C12.3933 68.5996 13.1863 68.426 13.9897 68.4159C14.8128 68.4073 15.6296 68.5612 16.3933 68.8688C17.157 69.1764 17.8528 69.6315 18.4409 70.2084C19.0289 70.7852 19.4978 71.4724 19.8207 72.2306C20.1435 72.9889 20.3141 73.8034 20.3226 74.6277C20.3311 75.452 20.1775 76.2699 19.8703 77.0347C19.5632 77.7995 19.1086 78.4962 18.5326 79.0851C17.9566 79.674 17.2704 80.1435 16.5132 80.4668C15.756 80.7902 14.9426 80.961 14.1194 80.9695C10.5762 81.0295 7.58188 77.6712 8.01106 74.6127Z" stroke="url(#paint6_linear_833_6068)" stroke-width="0.25" stroke-miterlimit="10"/>
<path d="M42.2456 74.7528C41.8563 71.1446 45.4595 68.336 48.2342 68.416C51.9471 68.5259 54.6021 71.0246 54.6021 74.6328C54.6207 75.4622 54.4736 76.287 54.1695 77.0587C53.8653 77.8304 53.4102 78.5335 52.831 79.1266C52.2517 79.7197 51.5599 80.1909 50.7962 80.5126C50.0326 80.8342 49.2124 80.9998 48.3839 80.9996C45.5593 81.0396 41.8563 78.4009 42.2456 74.7528Z" stroke="url(#paint7_linear_833_6068)" stroke-width="0.25" stroke-miterlimit="10"/>
<path d="M80.8569 10.1197C80.8569 13.5065 80.5345 16.258 80.1374 16.258C79.7404 16.258 79.4087 13.5065 79.4087 10.1197C79.4087 6.73283 79.745 4 80.1374 4C80.5299 4 80.8569 6.72816 80.8569 10.1197Z" fill="url(#paint8_radial_833_6068)"/>
<path d="M80.1384 10.8298C76.7516 10.8298 74 10.5074 74 10.1103C74 9.71327 76.7516 9.38159 80.1384 9.38159C83.5252 9.38159 86.2581 9.71794 86.2581 10.1103C86.2581 10.5028 83.5299 10.8298 80.1384 10.8298Z" fill="url(#paint9_radial_833_6068)"/>
<path d="M6.85686 19.1197C6.85686 22.5065 6.53452 25.258 6.13745 25.258C5.74037 25.258 5.40869 22.5065 5.40869 19.1197C5.40869 15.7328 5.74504 13 6.13745 13C6.52985 13 6.85686 15.7282 6.85686 19.1197Z" fill="url(#paint10_radial_833_6068)"/>
<path d="M6.13839 19.8298C2.75155 19.8298 4.00051e-05 19.5074 4.00225e-05 19.1103C4.00398e-05 18.7133 2.75155 18.3816 6.13839 18.3816C9.52523 18.3816 12.2581 18.7179 12.2581 19.1103C12.2581 19.5028 9.5299 19.8298 6.13839 19.8298Z" fill="url(#paint11_radial_833_6068)"/>
<defs>
<linearGradient id="paint0_linear_833_6068" x1="5.5" y1="4" x2="49" y2="69" gradientUnits="userSpaceOnUse">
<stop stop-color="#F0EFEF" stop-opacity="0.3"/>
<stop offset="0.35" stop-color="#FAFBFC" stop-opacity="0.4"/>
<stop offset="0.72" stop-color="white" stop-opacity="0.5"/>
<stop offset="0.96" stop-color="white" stop-opacity="0.85"/>
<stop offset="1" stop-color="white" stop-opacity="0.9"/>
</linearGradient>
<linearGradient id="paint1_linear_833_6068" x1="33.2327" y1="42.2691" x2="33.2327" y2="1.08002" gradientUnits="userSpaceOnUse">
<stop stop-color="#79A540"/>
<stop offset="0.2" stop-color="#94C63D"/>
<stop offset="0.39" stop-color="#98CA3C"/>
<stop offset="0.59" stop-color="#93C53E"/>
<stop offset="0.74" stop-color="#9DCB3B"/>
<stop offset="0.9" stop-color="#A6CE39"/>
<stop offset="1" stop-color="#A6CE39"/>
</linearGradient>
<linearGradient id="paint2_linear_833_6068" x1="14.2192" y1="68.4159" x2="14.2192" y2="80.9695" gradientUnits="userSpaceOnUse">
<stop stop-color="white" stop-opacity="0.9"/>
<stop offset="0.04" stop-color="white" stop-opacity="0.85"/>
<stop offset="0.28" stop-color="white" stop-opacity="0.5"/>
<stop offset="0.65" stop-color="#FAFBFC" stop-opacity="0.4"/>
<stop offset="1" stop-color="#F0EFEF" stop-opacity="0.3"/>
</linearGradient>
<linearGradient id="paint3_linear_833_6068" x1="48.4039" y1="68.416" x2="48.4039" y2="80.9996" gradientUnits="userSpaceOnUse">
<stop stop-color="white" stop-opacity="0.9"/>
<stop offset="0.04" stop-color="white" stop-opacity="0.85"/>
<stop offset="0.28" stop-color="white" stop-opacity="0.5"/>
<stop offset="0.65" stop-color="#FAFBFC" stop-opacity="0.4"/>
<stop offset="1" stop-color="#F0EFEF" stop-opacity="0.3"/>
</linearGradient>
<linearGradient id="paint4_linear_833_6068" x1="52.5" y1="67" x2="32" y2="17" gradientUnits="userSpaceOnUse">
<stop stop-color="white" stop-opacity="0.9"/>
<stop offset="0.28" stop-color="white" stop-opacity="0.5"/>
<stop offset="0.65" stop-color="#FAFBFC" stop-opacity="0.4"/>
<stop offset="1" stop-color="#F0EFEF" stop-opacity="0"/>
</linearGradient>
<linearGradient id="paint5_linear_833_6068" x1="33.2327" y1="42.399" x2="33.2327" y2="0.960021" gradientUnits="userSpaceOnUse">
<stop stop-color="white" stop-opacity="0.9"/>
<stop offset="0.28" stop-color="white" stop-opacity="0.5"/>
<stop offset="0.65" stop-color="#FAFBFC" stop-opacity="0.4"/>
<stop offset="1" stop-color="#F0EFEF" stop-opacity="0.3"/>
</linearGradient>
<linearGradient id="paint6_linear_833_6068" x1="14.2192" y1="81.0994" x2="14.2192" y2="68.2959" gradientUnits="userSpaceOnUse">
<stop stop-color="white" stop-opacity="0.9"/>
<stop offset="0.28" stop-color="white" stop-opacity="0.5"/>
<stop offset="0.65" stop-color="#FAFBFC" stop-opacity="0.4"/>
<stop offset="1" stop-color="#F0EFEF" stop-opacity="0.3"/>
</linearGradient>
<linearGradient id="paint7_linear_833_6068" x1="48.4039" y1="81.1195" x2="48.4039" y2="68.286" gradientUnits="userSpaceOnUse">
<stop stop-color="white" stop-opacity="0.9"/>
<stop offset="0.28" stop-color="white" stop-opacity="0.5"/>
<stop offset="0.65" stop-color="#FAFBFC" stop-opacity="0.4"/>
<stop offset="1" stop-color="#F0EFEF" stop-opacity="0.3"/>
</linearGradient>
<radialGradient id="paint8_radial_833_6068" cx="0" cy="0" r="1" gradientUnits="userSpaceOnUse" gradientTransform="translate(80.0223 10.5674) scale(0.716421 6.14265)">
<stop stop-color="white"/>
<stop offset="0.07" stop-color="white" stop-opacity="0.93"/>
<stop offset="1" stop-color="white" stop-opacity="0"/>
</radialGradient>
<radialGradient id="paint9_radial_833_6068" cx="0" cy="0" r="1" gradientUnits="userSpaceOnUse" gradientTransform="translate(79.6907 9.99524) rotate(90) scale(0.716421 6.14265)">
<stop stop-color="white"/>
<stop offset="0.07" stop-color="white" stop-opacity="0.93"/>
<stop offset="1" stop-color="white" stop-opacity="0"/>
</radialGradient>
<radialGradient id="paint10_radial_833_6068" cx="0" cy="0" r="1" gradientUnits="userSpaceOnUse" gradientTransform="translate(6.02234 19.5674) scale(0.716421 6.14265)">
<stop stop-color="white"/>
<stop offset="0.07" stop-color="white" stop-opacity="0.93"/>
<stop offset="1" stop-color="white" stop-opacity="0"/>
</radialGradient>
<radialGradient id="paint11_radial_833_6068" cx="0" cy="0" r="1" gradientUnits="userSpaceOnUse" gradientTransform="translate(5.69067 18.9952) rotate(90) scale(0.716421 6.14265)">
<stop stop-color="white"/>
<stop offset="0.07" stop-color="white" stop-opacity="0.93"/>
<stop offset="1" stop-color="white" stop-opacity="0"/>
</radialGradient>
</defs>
</svg>
