<?xml version="1.0" encoding="utf-8"?>
<!-- Generator: Adobe Illustrator 27.5.0, SVG Export Plug-In . SVG Version: 6.00 Build 0)  -->
<svg version="1.1" id="Capa_1" xmlns="http://www.w3.org/2000/svg" xmlns:xlink="http://www.w3.org/1999/xlink" x="0px" y="0px"
	 viewBox="0 0 2304 1954" style="enable-background:new 0 0 2304 1954;" xml:space="preserve">
<g>
	<rect x="0" style="fill:#60BEB3;" width="2303.711" height="1953.371"/>
	<g style="opacity:0.5;">
		<path style="fill:#B2B2B2;" d="M18.128,425.604c6.1-5.127,18.582-4.77,25.952-5.011c18.365-0.611,34.905-2.934,49.831-14.617
			c-6.91-3.587-27.386-3.489-29.921-11.815c-4.037-13.294,21.91-16.04,29.603-17.736c6.735-1.484,34.397-3.322,26.005-12.804
			c-1.899-2.151-42.736-7.635-16.529-16.765c14.412-5.021,34.55,11.381,48.736-3.809c-19.376-13.794,34.519-27.024,41.297-28.254
			c29.281-5.32,58.825-10.103,88.677-5.04c20,3.394,39.206,12.886,59.608,17.114c21.09,4.37,36.116-5.624,56.434-4.918
			c13.683,0.474,25.143,7.934,37.493,12.815c23.042,9.098,54.423,5.936,78.894,5.696c18.831-0.188,15.338-6.817,20.407-21.177
			c10.688-30.257,22.989,16.482,38.095,14.024c5.651-0.924,21.534-15.979,25.81-7.117c3.693,7.654-18.434,22.484-23.302,25.627
			c-12.582,8.119-24.815,9.182-39.021,12.153c-14.397,3.011-23.233,11.696-35.434,19.103c-8.233,5-27.121,10.431-26.148,22.947
			c1.132,14.587,26.201,10.585,26.635,26.619c5.481,2.143,15.407-2.368,18.873,2.148c3.645,4.752-4.746,15.624-2.672,21.254
			c1.894,5.153,9.81,9.434,16.164,4.796c8.387-6.124,0.281-19.037,4.905-26.468c4.667-7.497,11.63-3.857,18.439-6.635
			c11.143-4.537,8.772-10.511,11.984-20.725c3.629-11.532,7.461-7.799,14.286-14.831c5.757-5.932,1.778-9.289,11.302-13.799
			c20.995-9.961,25.64,4.957,28.677,22.021c10.625,0.884,16.72,3.299,26.191,1.207c10.582-2.336,15.053-5.865,16.455,8.064
			c1.164,11.561-2.91,14.307,5.535,24.164c6.137,7.161,11.926,8.482,8.709,20.548c-8.095,30.437-64.751,11.01-87.381,19.508
			c1.297,8.712,12.079,4.942,17.371,10.307c-6.116,7.32-13.91,13.522-4.286,22.498c9.693-0.299,23.852,3.918,10.413,12.981
			c-7.111,4.801-23.396,3.894-32.212,7.074c0.561-2.537-0.783-5.9-0.264-8.447c-11.365-1.537-21.534,11.979-29.376,18.577
			c-10.756,9.047-21.979,17.439-32.794,26.45c-8.392,6.995-20.17,13.569-24.312,24.061c-5.593,14.151-4.566,19.434-19.307,28.786
			c-7.683,4.876-20.794,10.458-25.101,19.085c-5.28,10.585,1.365,24.1-4.212,35.338c-6.508,13.117-16.18,10.151-19.889-3.693
			c-3.576-13.357,0.757-18.685-13.836-24.466c-31.354-12.423-70.873,9.653-95.778,25.736c-0.116,18.878-4.296,62.029,24.339,63.518
			c14.709,0.767,15.947-17.587,27.783-21.672c2.82-0.974,18.979-1.907,21.175,0.042c6.302,5.585-1.635,8.378-5.18,13.045
			c-6.196,8.146-17.979,23.569-15.821,34.508c8.677,3.219,13.831-9.569,23.63-7.706c5.83,1.109,16.989,11.249,19.185,16.598
			c8.021,19.49-16.646,35.87,13.344,43.524c14.635,3.738,27.852,12.119,38.952,0.797c7.9-8.066,11.773-20.392,24.773-11.061
			c9.037,6.484,6.963,8.905,18.116,5.418c11.413-3.563,16.18-8.04,28.974-4.172c20.773,6.281,35.757,21.315,53.873,32.085
			c17.672,10.508,50.54,5.728,55.598,30.122c3.339,16.095-17.63,44.426,10.211,41.04c9.974-1.217,19.027-7.762,29.058-3.286
			c8.762,3.912,12.762,14.288,22.275,17.886c20.604,7.794,39.619-3.124,51.968,22.124c11.757,24.027-8.772,43.712-22.116,61.455
			c-14.794,19.661,7.302,39.251-6.011,57.767c-7.391,10.27-22.159,13.188-32.011,20.373c-8,5.836-12.126,13.37-18.063,21.005
			c-8.127,10.458-2.424,15.37-3.482,27.844c-1.016,11.987-6.952,23.968-13.905,33.593c-13.397,18.56-23.397,17.592-44.339,18.312
			c1.259,8.731,16.846,26.22,8.127,35.995c-8.915,9.987-33.979-4.106-31.058,22.095c-3.884,2.013-8.974,5.923-8.54,10.627
			c0.603,6.495,6.397,3.974,8.725,9.428c3.73,8.738-3.888,16.717-4.259,25.27c10.953-0.45,5.54,30.413,6.095,40.059
			c14.825,5.175,23.084,16.67,32.841,27.812c-48.682,10.093-69.206-26.111-84.492-65.262c-3.524-9.032-4.614-18.762-8.561-27.638
			c-3.931-8.836-10.434-16.309-14.297-25.196c-4.106-9.428-3.947-18.389-5.503-28.349c-1.661-10.645-6.878-20.711-6.264-31.609
			c0.592-10.471,4.984-19.291,4.116-30.09c-0.772-9.715-3.196-20.119-5.65-29.545c-2.191-8.391-5.873-16.368-6.847-25.056
			c-1.259-11.291,3.916-22.267,2.688-33.275c-2.381-21.442-27.736-28.209-40.709-42.125c-8.9-9.545-16.37-20.733-23.354-31.707
			c-7.524-11.823-25.069-30.529-27.524-44.333c-2.043-11.463,9.175-12.698,10.285-22.103c1.027-8.759-9.576-14.661-6.561-25.101
			c2.698-9.365,12.582-11.622,17.873-18.968c5.936-8.222,4.804-17.561,6.497-26.915c0.836-4.638,2.127-9.146,3.841-13.545
			c-11.963-9.183-10.211-7.085-25.021-4.384c-27.815,5.071-45.995-42.958-66.249-55.191c-8.032-4.857-18.143-11.047-27.079-13.931
			c-9.9-3.193-18.603,0.249-28.582-0.542c-24.72-1.958-37.863-23.424-43.841-44.853c-5.503-19.749-19.497-32.601-26.37-51.609
			c-3.222-8.926-3.958-22.809-11.672-29.383c-10.323-8.791-11.301-0.27-8.815,10.119c1.767,7.384,29.99,53.048,14.614,56.209
			c-10.307,2.116-20.825-44.201-23.058-52.278c-2.746-9.921-2.133-20.849-7.021-30.167c-4.429-8.434-12.471-10.278-17.72-17.233
			c-13.259-17.571,4.752-53.053,15.847-67.749c8.83-11.701,13.529-20.884,18.809-34.55c4.942-12.804,13.37-14.096,20.434-23.553
			c7.725-10.341-7.889-22.389-9.593-33.653c-1.307-8.622,4.82-20.463,0.64-28.402c-4.857-9.259-36.805-19.418-46.858-21.442
			c-38.646-7.783-63.651,20.455-96.143,35.386c-13.852,6.368-29.191,10.542-44.439,11.458
			C30.381,436.451,4.508,437.06,18.128,425.604z"/>
		<path style="fill:#B2B2B2;" d="M448.309,696.584c5.058,3.51,7.915,9.087,13.661,11.841c5.116,2.452,11.37,1.632,16.116,5.082
			c13.624,9.913-1.524,16.854-12.254,14.447c-12.106-2.717-19.535-13.167-30.487-17.561c-6.688-2.682-28.878-0.344-19.905-12.49
			C422.007,689.013,440.658,691.269,448.309,696.584z"/>
		<path style="fill:#B2B2B2;" d="M503.123,741.709c-7.423,3.418-18.645,6.569-16.725-4.566
			c1.921-11.143,13.254-13.299,21.889-13.503c7.471-0.177,29.984-0.153,16.725,11.953
			C519.61,740.529,509.563,738.743,503.123,741.709z"/>
		<path style="fill:#B2B2B2;" d="M1230.564,345.445c6.625,2.352,35.778,11.945,32.35-4.611
			c-2.487-11.995-28.402-14.831-37.566-17.54c-32.794-9.691-63.058-12.883-94.085,5.413c-15.799,9.313-26.878,24.262-42.116,34.342
			c-10.984,7.27-36.677,22.561-26.185,39.452c8.407,13.543,25.37,1.461,36.508,7.35c10.005,5.291,12.428,21.913,26.777,13.881
			c26.344-14.749-0.243-52.839,33.598-62.37c4.027-1.135,8.318-1.611,12.466-2.09c0.947,11.104-13.926,20.979-5.122,32.561
			c6.307,8.299,20.28,5.101,29.307,5.333c-3.116,6.066-13.26,8.466-19.349,11.325c-7.841,3.683-7.809,5.294-11.878,12.22
			c-8.757,14.91-25.498,14.664-41.318,14.283c-8.275-0.204-14.825-0.886-22.196-3.444c-7.746-2.688-11.021-3.945-18.746-0.04
			c-14.053,7.106-24.392,19.053-35.598,29.614c-11.037,10.405-29.048,21.275-44.149,22.955
			c-0.656,7.733,10.095,10.307,14.392,15.386c6.698,7.895,4.55,17.829,2.386,27.524c-6.021,1.439-11.402-1.354-17.328-2.008
			c-8.318-0.918-14.73,1.328-22.424,4.029c-13.64,4.772-11.196,8.23-13.005,21.466c-1.863,13.621-8.921,18.439,2.381,29.616
			c7.915,7.818,15.37,6.743,26.307,7.029c8.138,0.212,23.672-1.619,29.768-7.72c6.608-6.629,5.1-18.556,12.217-25.667
			c8.566-8.563,12.154-21.955,25.476-22.997c5.45-0.423,8.857,1.156,14.211-0.852c4.815-1.804,7.17-6.135,12.926-5.545
			c8.63,0.884,23.386,14.876,30.402,20.172c10.26,7.741,15.952,17.614,18.222,30.18c12.344-3.923,12.376-22.807,3.598-29.389
			c-5.894-4.421-32.789-12.807-27.836-24.331c5.83-13.572,30.042,7.682,35.111,12.865c10.847,11.068,14.572,26.696,22.625,39.473
			c2.879,4.579,13.344,16.122,18.688,8.45c3.164-4.542-4.19-17.466-5.143-22.524c4.995-2.842,13.355-8.41,19.355-5.508
			c5.359,2.59,5.302,10.034,8.042,14.558c10.699,17.699,34.35,8.415,49.217,18.698c11.842,8.188,5.857,26.347-5.101,32.606
			c-13.46,7.696-43.196,14.828-58.413,12.606c-16.127-2.357-23.101-17.799-40.154-11.945c-15.836,5.434-25.847,0.114-41.233-6.418
			c-6.984-2.971-11.429-5.043-14.656-12.106c-3.048-6.683-1.926-14.616-8.857-19.188c-13.603-8.963-38.127,5.27-53.106,6.249
			c-30.344,1.979-54.482,10.379-81.333,24.698c-11.836,6.31-5.011,10.561-8.355,21.842c-2.519,8.498-9.883,14.339-16.159,20.114
			c-10.984,10.111-18.508,25.154-25.979,37.981c-8.407,14.442-5.725,28.164-6.709,44.13c-1.08,17.672-8.381,34.1-2.355,51.772
			c5.741,16.828,21.079,28.794,32.259,42.016c11.915,14.093,22.021,23.426,41.376,22.302c18.963-1.106,37.609-5.685,56.206-9.125
			c15.741-2.915,21.752,1.611,35.318,8.069c14.37,6.841,24.889,8.564,25.958,26.683c1.153,19.437,5.46,31.913,16.101,48.037
			c10.545,15.987,18.836,41.431,13.497,60.503c-4.069,14.516-12.762,26.974-10.741,42.744c2.264,17.696,15.418,31.182,22.317,47.037
			c5.651,12.992,4.476,26.156,7.037,39.728c2.318,12.238,8.106,23.511,11.418,35.482c3.1,11.193,4.857,20.788,17.1,24.947
			c14,4.754,31.302,0.106,43.503-7.246c14.36-8.656,27.656-21.37,40.487-32.129c12.91-10.839,21.354-21.318,17.587-38.752
			c13.576-3.061,15.714-2.781,12.381-18.13c-2.857-13.164-0.825-18.661,6.809-29.728c5.889-8.532,15.212-13.775,19.953-22.669
			c5.005-9.392,7.609-21.124,7.735-31.614c0.297-25.389-10.217-46.736-0.476-70.823c6.095-15.082,11.238-29.952,24.439-39.521
			c11.879-8.614,19.276-19.424,27.17-31.741c6.418-10.016,14.042-19.503,19.894-29.804c6.264-11.029,9.116-23.487,15.376-34.489
			c-7.281-8.979-19.577,1.521-28.17,3.394c-9.64,2.109-21.1,3.955-30.55,0.328c-9.481-3.638-10.608-10.961-15.905-18.746
			c-5.471-8.047-13.243-13.375-18.328-22.074c-12.535-21.445-16.582-46.574-29.947-66.722c-6.54-9.87-11.757-21.773-13.683-33.275
			c30.508,11.22,50.794,60.444,59.471,88.987c3.577,11.767,3.259,31.331,13.99,39.397c12.418,9.333,32.317-0.238,43.989-6.334
			c14.111-7.368,26.667-17.19,38.656-27.574c10.497-9.085,29.524-21.871,34.444-35.426c4.624-12.717-25.64-33.855-37.735-33.421
			c-10.582,0.384-17.884,7.881-28.857,2.209c-10.042-5.188-16.625-19.135-19.09-29.696c-0.582-2.466-1.534-4.891-2.233-7.326
			c15.096,2.024,26.91,18.828,42.318,22.662c13.09,3.251,22.402-1.389,34.614,6.873c11.196,7.574,22.264,8.307,35.503,10.595
			c13.143,2.27,26.482-0.574,36.074,10.804c5.492,6.511,9.688,16.788,18.286,19.834c3.979,1.407,9.175-1.23,12.73,0.521
			c4.466,2.199,6.365,9.762,8.053,14.042c9.82,24.971,12.984,52.148,24.222,76.614c6.55,14.264,24.958,20.997,31.376,2.291
			c3.989-11.616,0.074-24.878,1.513-36.833c1.461-12.053,7.831-19.95,16.286-28.201c10.931-10.674,31.376-38.034,49.09-33.399
			c14.444,3.778,21.227,22.614,29.534,33.069c8.9,11.222,26.127,8.069,32.18,21.103c6.063,13.039,4.063,31.791,7.429,45.982
			c5.185,21.887,18.032,53.719,38.317,65.818c2.656,1.579,5.884,2.383,8.953,2.6c1.804-10.442-2.519-20.045-4.963-30.005
			c-3.249-13.172-6.275-16.182-17.365-23.68c-9.185-6.206-14.868-13.878-15.259-25.243c-0.339-10.204,3.196-23.815,14.286-14.781
			c10.465,8.532,17.735,29.984,35.016,26.966c12.011-2.103,19.281-21.648,19.08-32.508c-0.318-17.627-15.894-23.764-22.318-38.543
			c-14.698-33.799,23.831-28.69,43.397-31.701c17.344-2.666,39.154-31.73,38.571-49.635c-0.561-17.096-12.603-30.368-21.545-43.897
			c-5.884-8.918-6.741-10.146-1.408-18.669c2.942-4.712,10.042-11.81,8.19-17.976c-2.857-9.529-18.518-2.958-25.344-5.328
			c-9.958-3.463-12-18.654-0.603-22.236c8.719-2.744,17.81,7.196,25.757,9.569c12.042,3.595,20.735,4.844,27.905,16.886
			c4.265,7.159,5.047,22.73,15.778,23.085c27.148,0.9-6.476-38.846-6.339-47.267c0.254-14.003,11.83-15.638,22.095-20.709
			c13.365-6.606,15.46-17.982,15.386-32.188c-0.127-27.346-10.233-52.378-37.471-62.471c-8.561-3.175-25.154,0.019-30-9.138
			c-5.502-10.381,5.883-21.119,14.349-24.489c14.26-5.691,27.53-0.41,41.916-0.87c14.1-0.45,10.889-11.077,20.471-16.476
			c5.698-3.212,16.619-0.114,23.688-1.99c12.233-3.238,17.64-0.416,12.941,13.693c-4.756,14.283-11.047,17.889-0.381,31.846
			c9.011,11.794,19.651,19.656,32.249,26.858c3.222,1.846,6.291,3.542,9.127,5.989c3.514-16.048,1.376-30.376-7.936-43.923
			c-3.206-4.672-12.54-11.476-12.381-17.389c0.334-12.69,14.339-5.701,20.953-6.132c23.609-1.523-1.217-37.677,24.889-41.87
			c6.974-1.119,25.862,2.399,20.867-9.558c-2.698-6.437-15.502-9.259-21.534-10.854c-16.825-4.465-34.502-5.133-51.143-10.384
			c-6.519-2.053-12.847-7.908-19.069-9.206c-9.153-1.908-20.592,4.137-29.905,4.429c-9.799,0.304-19.334-0.876-29.026-1.953
			c-24.402-2.706-48.201-4.624-72.466-8.408c-17.228-2.682-34.588-5.174-51.842-7.775c-17.704-2.669-26.624,4.564-42.349,9.516
			c-12.915,4.064-39.386,8.833-51.439,0.751c-7.809-5.244-9.275-12.391-19.926-14.942c-9.672-2.31-20.005-0.857-29.836-0.833
			c-12.958,0.034-43.635,7.32-54.619-0.775c-5.302-3.908-3.778-11.164-11.842-14.966c-7.175-3.378-15.862-3.135-23.492-4.193
			c-8.614-1.193-11.196-7.153-18.127-9.23c-9.175-2.746-16.746,6.431-24.72,8.426c-12.741,3.19-39.418-8.405-47.45,5.357
			c-3.858,6.598,1.936,9.826-7.736,12.526c-6.222,1.733-12.73-1.31-19.058,1.5c-4.412,1.966-4.91,7.209-9.481,9.582
			c-4.423,2.294-11.862,1.114-16.867,1.701c-2.032,13.751,18.772,17,26.624,21.558c6.265,3.638,7.011,3.513,1.841,7.783
			c-1.619,1.331-5.132-0.531-7.26,1.489c-1.481,1.41-1.714,7.368-2.471,9.484c-10.715,4.868-13.233-10.608-17.085-17.053
			c-4.397-7.368-10.921-13.693-17.942-18.609c-3.788-2.648-13.709-9.746-18.28-5.085c-4.545,4.641,3.799,14.4,5.81,18.627
			c-17.916,12.624-34.318,0.527-53.725,5.137c-7.667,1.82-15.111,5.238-22.831,7.212c-6.376,1.627-13.646,0.931-19.593,2.484
			c-6.63,1.735-7.91,6.383-13.164,10.148c-4.444,3.182-8.773,3.415-13.963,4.902c-9.306,2.667-18.328,12.273-28.301,10.286
			c-6.984-1.387-19.767-10.095-19.058-17.953L1230.564,345.445z"/>
		<path style="fill:#B2B2B2;" d="M980.702,456.086c11.143-3.764,18.095-32.894,0.465-23.344
			C972.934,437.208,963.834,461.784,980.702,456.086z"/>
		<path style="fill:#B2B2B2;" d="M1008.045,443.702c1.418,9.429-14.032,20.088,4.35,22.622c7.714,1.064,32.386-9.37,31.841-19.066
			c-0.328-5.64-10.079-6.802-13.529-9.969c-5.842-5.362-4.471-9.926-5.328-17.151c-1.239-10.399-12.148-22.077-22.032-11.934
			C992.31,419.549,1006.416,432.935,1008.045,443.702z"/>
		<path style="fill:#B2B2B2;" d="M1748.672,871.354c14.995,14.46,17.27,36.341,31.122,51.23c5.821,6.259,14.731,16.982,23.206,18.68
			c11.239-16.764-1.28-35.701-13.566-46.061c-18.243-15.381-31.635-41.526-56.212-48.741c-8.55-2.507-14.185-2.606-9.555,7.701
			C1727.624,862.952,1742.164,865.077,1748.672,871.354z"/>
		<path style="fill:#B2B2B2;" d="M1853.402,918.227c20.265,9.582,25.545-6.415,30.243-21.584c2.36-7.601,8.043-12.696,10.688-19.72
			c2.534-6.706,0.444-11.775,0.804-18.696c0.709-13.852,3.619-35.026-20.328-25.071
			C1847.762,844.402,1816.884,900.953,1853.402,918.227z"/>
		<path style="fill:#B2B2B2;" d="M1836.344,959.892c4.646,0.717,21.609,5.011,25.249,2.307
			c13.916-10.35-29.503-21.461-35.767-22.505C1791.106,933.91,1815.402,956.653,1836.344,959.892z"/>
		<path style="fill:#B2B2B2;" d="M2005.255,892.854c-15.386,0.072-5.767,21.643,0.572,26.91c8.137,6.773,20.392,6.657,29.058,12.905
			c11.99,8.646,3.36,21.36,11.788,29.259c4.275,3.995,30.138,8.362,36.486,8.296c4.551-12.423,15.318-19.18,25.662-7.14
			c10.222,11.897,2.572,18.141,21.386,9.738c1.91-7.598-8.063-16.021-10.857-23.283c-4.042-10.516-5.302-15.278-15.132-22.481
			c-14.296-10.489-46.185-30.974-64.582-26.728c-5.619,1.299-13.291,11.238-19.238,9.741
			C2012.503,908.088,2016.302,892.804,2005.255,892.854z"/>
		<path style="fill:#B2B2B2;" d="M1909.932,1048.776c-16.651,9.986-31.799,14.558-50.286,19.267
			c-16.603,4.233-19.773,12.696-18.91,29.646c0.899,17.513,7.1,34.957,2.709,52.429c-2.519,10-13.661,24.325-2.043,32.195
			c16.815,11.397,54.117-14.841,68.434-21.688c19.122-9.14,31.481-13.011,47.915,1.124c9.238,7.95,19.439,11.336,28.963,18.347
			c11.958,8.804,15.821,26.773,30.614,32.077c31.281,11.222,76.879-34.961,89.238-60.413c7.439-15.312,15.249-34.59,10.36-51.749
			c-4.593-16.101-19.397-26.836-24.614-42.754c-2.73-8.336-11.402-85.072-27.281-61.69c-9.08,13.375-2.761,38.881-25.958,41.447
			c-18.699,2.071-21.333-14.91-17.249-28.31c4.254-13.924,4.307-20.368-13.905-21.36c-20.603-1.117-23.598,10.672-35.651,22.338
			c-10.053,9.736-18.741,1.659-31.428,4.127c-16.836,3.281-18.635,19.998-27.228,32.088c-3.852,5.415-8.551,9.73-14.138,13.333
			L1909.932,1048.776z"/>
		<path style="fill:#B2B2B2;" d="M2007.128,1239.401c-8.148,11.939,5.725,17.476,14.614,18.688
			c10.561,1.439,19.608-0.167,18.455-13.379C2039.043,1231.511,2014.059,1229.268,2007.128,1239.401z"/>
		<path style="fill:#B2B2B2;" d="M2141.403,1285.435c12.593,2.545,32.815-18.452,43.313-24.72
			c6.677-3.987,28.359-15.508,21.661-26.836c-7.344-12.426-23.513,11.929-29.418,16.114c-10.714,7.595-26.233,6.294-36.053,13.323
			C2133.509,1268.623,2129.52,1283.027,2141.403,1285.435z"/>
		<path style="fill:#B2B2B2;" d="M2236.79,1225.03c3.375-3.153,4.444-5.182,9.122-6.648c3.375-1.061,10.836,2.039,13.174,0.333
			c10.223-7.444-2.54-16.048-10.957-14.989c-1.175,0.151-1.794-18.794-7.609-18.844c-8.037-0.069-10.344,20.516-12.714,26.021
			c-1.979,4.574-18.19,25.532-6.021,28.431C2227.192,1240.62,2233.604,1228.006,2236.79,1225.03z"/>
	</g>
</g>
<g>
	<circle style="opacity:0.7;fill:#F6F6F6;" cx="1146.149" cy="995.273" r="748.453"/>
	
		<ellipse transform="matrix(0.7071 -0.7071 0.7071 0.7071 -368.0633 1101.9611)" style="opacity:0.7;fill:#F6F6F6;" cx="1146.153" cy="995.272" rx="656.882" ry="656.883"/>
	<g>
		<g>
			<path style="fill:none;stroke:#F6F6F6;stroke-width:11.6884;stroke-linecap:round;stroke-linejoin:round;" d="M432.711,1449.192
				c-3.566-5.802-7.069-11.648-10.497-17.542"/>
			
				<path style="fill:none;stroke:#F6F6F6;stroke-width:11.6884;stroke-linecap:round;stroke-linejoin:round;stroke-dasharray:41.1556,41.1556;" d="
				M402.388,1395.589c-60.418-116.522-94.561-248.863-94.561-389.184c0-467.567,379.043-846.608,846.616-846.608
				c467.562,0,846.611,379.041,846.611,846.608c0,276.581-132.635,522.176-337.757,676.677"/>
			<path style="fill:none;stroke:#F6F6F6;stroke-width:11.6884;stroke-linecap:round;stroke-linejoin:round;" d="M1646.682,1695.282
				c-5.534,3.969-11.127,7.868-16.767,11.704"/>
		</g>
	</g>
	<g>
		<path style="fill:#F6F6F6;" d="M811.865,302.149c0,71.363-57.842,129.212-129.207,129.212
			c-71.376,0-129.228-57.849-129.228-129.212c0-71.363,57.852-129.215,129.228-129.215
			C754.024,172.935,811.865,230.786,811.865,302.149z"/>
		<g>
			<path style="fill:#465761;" d="M769.717,287.083c-2.249-3.508-5.974-5.447-9.747-5.037c-2.598,0.275-4.926,1.606-6.772,3.796
				c-2.105-0.365-4.227-0.19-6.106,0.492c-1.354,0.487-2.582,1.291-3.619,2.328c-1.058-1.979-2.169-3.918-3.397-5.759
				c-12.979-19.463-38.535-23.545-57.688-23.545c-1.783,0-3.529,0.035-5.243,0.101c-6.011,0.243-11.725,0.836-17.006,1.78
				c-0.508-2.272-1.989-4.908-4.603-8.222c-3.762-4.775-12.889-8.812-19.92-8.812c-2.122,0-3.889,0.378-5.233,1.127
				c-1.048,0.582-1.619,1.238-1.752,2.013c-0.238,1.373,0.916,2.678,2.492,4.476c1.508,1.709,3.27,3.791,4.455,6.505
				c-2.281-0.622-4.608-1-6.751-1c-2.486,0-4.476,0.466-5.92,1.384c-0.958,0.606-1.455,1.267-1.54,2.011
				c-0.153,1.32,0.995,2.484,2.593,4.095c1.842,1.852,4.127,4.159,5.318,7.577c0.153,0.434,0.27,0.87,0.375,1.301
				c-9.334,7.135-15.55,16.857-18.413,29.101h-9.006c-3.888,0-7.058,3.164-7.058,7.058v34.773c0,3.889,3.169,7.059,7.058,7.059
				h15.524c0.1,0,0.201-0.011,0.307-0.019c5.508,8.884,13.233,15.664,22.349,19.609c0.233,0.103,0.466,0.19,0.698,0.283l0.021,0.005
				l-1.693,9.294c-0.233,1.32,0.159,2.659,1.101,3.775c0.92,1.087,2.264,1.833,3.777,2.109l12.381,2.251
				c0.413,0.074,0.825,0.108,1.238,0.108c2.709,0,4.979-1.64,5.386-3.902l1.376-7.558c9.863,1.272,20.741,1.349,31.694,0.238
				l1.323,7.32c0.413,2.262,2.677,3.902,5.386,3.902c0.413,0,0.831-0.034,1.238-0.108l12.387-2.251
				c1.519-0.275,2.852-1.021,3.772-2.109c0.942-1.116,1.333-2.455,1.1-3.775l-1.376-7.555c21.37-7.931,31.196-32.32,31.455-53.116
				c0.111-8.439-1.974-17.677-5.677-26.259c0.402-1.307,1.344-2.281,2.826-2.82c0.503-0.18,1.026-0.299,1.577-0.354
				c-1.651,4.418-0.868,8.362,2.085,10.558c1.301,0.968,2.873,1.455,4.412,1.455c1.455,0,2.879-0.437,4.032-1.307
				c2.285-1.74,2.899-4.693,1.661-7.899c-0.942-2.437-2.476-4.293-4.286-5.592c0.688-0.487,1.423-0.788,2.201-0.87
				c1.852-0.196,3.725,0.854,4.937,2.733c0.756,1.18,2.328,1.518,3.508,0.765C770.129,289.831,770.473,288.263,769.717,287.083z
				 M757.854,297.414c-0.482,0.373-1.566,0.394-2.338-0.18c-1.059-0.786-1.185-2.513-0.339-4.741
				c0.053-0.137,0.106-0.275,0.153-0.41c1.064,0.77,1.973,1.868,2.524,3.309C758.04,295.858,758.405,296.998,757.854,297.414z"/>
			<path style="fill:#465761;" d="M691.092,253.57c1.82,0.571,3.72,0.862,5.619,0.862c8.534,0,16-5.584,18.598-13.891
				c1.56-5.005,1.116-10.315-1.243-14.937c-2.37-4.627-6.37-8.021-11.281-9.55c-1.831-0.568-3.725-0.862-5.624-0.862
				c-8.524,0-16.005,5.587-18.588,13.891c-1.572,5.01-1.121,10.315,1.238,14.942C682.172,248.652,686.182,252.043,691.092,253.57z"
				/>
		</g>
	</g>
	<g>
		<path style="fill:#F6F6F6;" d="M1779.566,302.149c0,71.363-57.857,129.212-129.212,129.212
			c-71.365,0-129.217-57.849-129.217-129.212c0-71.363,57.852-129.215,129.217-129.215
			C1721.709,172.935,1779.566,230.786,1779.566,302.149z"/>
		<path style="fill:#465761;" d="M1723.466,284.779h-19.223l-31.773-59.984c-0.804-1.518-2.296-2.309-3.333-1.759l-5.513,2.918
			c-1.026,0.548-1.206,2.225-0.412,3.743l29.185,55.082h-84.582l29.18-55.082c0.799-1.519,0.619-3.196-0.418-3.743l-5.502-2.918
			c-1.047-0.55-2.539,0.241-3.333,1.759l-31.773,59.984h-18.725c-5.207,0-6.471,1.617-6.471,4.566v11.839
			c0,2.95,1.264,4.566,6.471,4.566h0.815c-0.011,0.153-0.032,0.291-0.032,0.455l9.937,70.056c0,3.344,1.307,5.175,6.709,5.175
			h111.365c5.397,0,6.698-1.831,6.698-5.175l9.952-70.056c0-0.164-0.016-0.302-0.026-0.455h0.805c5.206,0,6.465-1.616,6.465-4.566
			v-11.839C1729.931,286.395,1728.672,284.779,1723.466,284.779z M1620.28,321.395c-0.111-3.283,1.81-6.003,4.281-6.084
			c2.46-0.077,4.556,2.513,4.656,5.791l1.455,44.699c0.116,3.278-1.804,6.003-4.275,6.085c-2.465,0.076-4.561-2.513-4.656-5.791
			L1620.28,321.395z M1645.592,365.898l0.572-44.72c0.042-3.278,2.084-5.913,4.556-5.884c2.471,0.037,4.434,2.725,4.391,5.998
			l-0.577,44.72c-0.037,3.283-2.085,5.913-4.54,5.883C1647.518,371.864,1645.55,369.181,1645.592,365.898z M1670.471,365.842
			l1.117-44.709c0.079-3.278,2.143-5.884,4.619-5.828c2.46,0.061,4.402,2.77,4.318,6.053l-1.111,44.704
			c-0.08,3.277-2.148,5.889-4.614,5.828C1672.323,371.829,1670.386,369.12,1670.471,365.842z M1701.307,366.335
			c-0.402,3.256-2.698,5.653-5.154,5.359c-2.444-0.296-4.116-3.174-3.73-6.431l5.338-44.397c0.381-3.257,2.699-5.659,5.148-5.366
			c2.45,0.291,4.122,3.175,3.719,6.426L1701.307,366.335z M1603.725,371.694c-2.45,0.294-4.762-2.103-5.148-5.359l-5.344-44.408
			c-0.381-3.251,1.291-6.135,3.747-6.426c2.444-0.294,4.751,2.109,5.143,5.366l5.333,44.397
			C1607.846,368.52,1606.174,371.398,1603.725,371.694z"/>
	</g>
	<g>
		<path style="fill:#F6F6F6;" d="M2133.874,947.386c0,71.368-57.852,129.22-129.217,129.22c-71.365,0-129.217-57.852-129.217-129.22
			c0-71.363,57.852-129.215,129.217-129.215C2076.022,818.172,2133.874,876.024,2133.874,947.386z"/>
		<g>
			<path style="fill:#465761;" d="M2090.779,932.476c-3.487-18.9-13.709-36.283-28.794-48.947
				c-15.878-13.342-36.249-20.688-57.328-20.688c-23.371,0-45.349,8.802-61.889,24.78c-12.376,11.992-20.677,27.08-23.989,43.643
				c-1.048,5.272-1.582,10.696-1.582,16.127c0,46.619,39.233,84.55,87.461,84.55c48.227,0,87.466-37.931,87.466-84.55
				C2092.123,942.41,2091.667,937.394,2090.779,932.476z"/>
			<g>
				<path style="fill:#F6F6F6;" d="M1976.958,957.513c-0.73-0.052-1.497-0.108-2.259-0.402c-0.492-0.188-0.868-0.585-1.259-1
					c-0.392-0.42-0.805-0.854-1.365-1.106c-0.82-0.36-1.762-0.161-2.593,0.095c-0.36,0.114-0.693,0.222-1.037,0.267
					c-0.63,0.071-1.027,0.005-1.19-0.193c-0.249-0.32-0.053-1.135,0.143-1.926c0.201-0.831,0.413-1.696,0.259-2.437
					c-0.445-2.137-2.487-2.605-4.286-3.011c-0.931-0.209-1.81-0.41-2.482-0.804c-0.698-0.42-1.376-0.902-2.037-1.37
					c-1.339-0.963-2.725-1.955-4.423-2.477c-1.186-0.354-1.974-0.129-2.852,0.215c-0.243,0.093-0.513,0.191-0.815,0.288
					c-0.375,0.117-0.603,0.17-0.735,0.17c-0.122,0-0.164-0.032-0.428-0.262c-0.17-0.135-0.35-0.299-0.625-0.492
					c-0.444-0.32-0.846-0.479-1.227-0.479c-0.757,0-1.228,0.595-1.683,1.175c-0.159,0.217-0.339,0.442-0.534,0.648
					c-0.799,0.804-1.884,0.553-3.153,0.132c-0.355-0.119-0.709-0.236-1.08-0.339c-0.756-0.185-1.238-0.437-1.407-0.739
					c-0.206-0.339-0.085-0.817,0.074-1.421c0.202-0.764,0.45-1.72,0.021-2.74c-0.301-0.743-1.735-2.061-2.566-2.214
					c-0.73-0.129-1.259,0.246-1.725,0.569c-0.286,0.209-0.54,0.384-0.778,0.399c0.011-1.132,1.259-2.77,1.82-3.503
					c0.101-0.119,0.238-0.241,0.376-0.36c0.291-0.251,0.598-0.54,0.598-0.955c0-0.27-0.127-0.521-0.412-0.767
					c-0.133-0.124-0.392-0.238-1.249-0.238c-0.513,0-1.354,0.048-1.645,0.153c-0.73,0.257-1.159,0.868-1.54,1.408
					c-0.492,0.698-0.841,1.127-1.603,1.127l0,0c-2.455-0.122-2.592-3.365-2.508-6.392c0-0.177,0-0.347,0.011-0.508
					c2.259-1.445,5.545-3.291,8.55-3.291c0.815,0,1.566,0.138,2.243,0.405c1.042,0.416,1.074,0.688,1.175,1.492
					c0.043,0.307,0.095,0.688,0.217,1.143c0.296,1.079,0.905,1.719,1.613,1.719c0.328,0,0.974-0.153,1.476-1.211
					c0.397-0.767,0.344-1.568,0.318-2.344c-0.032-0.672-0.063-1.307,0.196-1.841c0.349-0.688,1.344-1.257,2.154-1.706
					c0.233-0.135,0.46-0.262,0.667-0.386c1.519-0.968,1.752-1.63,2.132-2.738c0.09-0.256,0.185-0.54,0.307-0.862
					c0.339-0.842,1.18-1.474,1.99-2.088c0.27-0.206,0.534-0.405,0.783-0.606c0.582-0.492,1.18-0.965,1.783-1.436
					c0.699-0.559,1.408-1.114,2.096-1.699c0.211-0.18,0.429-0.394,0.666-0.625c0.667-0.643,1.402-1.37,2.154-1.479
					c0.01,0.058,0.026,0.108,0.026,0.159c0.016,0.135,0.037,0.288,0.016,0.371c-0.032,0.137,0.021,0.288,0.132,0.378
					c0.101,0.097,0.259,0.13,0.392,0.079c0.397-0.145,0.984-0.217,1.55-0.283c0.868-0.108,1.783-0.219,2.349-0.611
					c0.666-0.442,0.931-0.897,0.788-1.349c-0.249-0.831-1.735-0.908-2.085-0.918c-0.555-0.579-0.275-0.939,0.392-1.698
					c0.074-0.098,0.169-0.204,0.264-0.307c0.132-0.159,0.122-0.389-0.031-0.54c-0.339-0.339-0.794-0.434-1.18-0.516
					c-0.286-0.058-0.46-0.104-0.572-0.17c0.751-0.161,2.021-0.14,3.365-0.082c0.625,0.029,1.249,0.056,1.873,0.056
					c1.984,0,4.333-0.278,4.91-2.426c0.36-1.344-0.159-1.828-0.693-2.344c-0.132-0.13-0.275-0.273-0.429-0.442
					c-0.587-0.693-0.571-0.989-0.54-1.568c0.011-0.283,0.026-0.632-0.027-1.079c-0.047-0.508-0.142-1.574-1.106-1.574
					c-0.259,0-0.523,0.071-0.852,0.154c-0.143,0.037-0.296,0.076-0.46,0.119c-0.651,0.138-1.238,0.082-1.947-0.026
					c-0.228-0.029-0.471-0.067-0.73-0.093c-0.228-1.252-0.683-3.032-2.349-3.032c-0.465,0-0.968,0.14-1.561,0.42
					c-0.756,0.371-0.947,0.72-1.095,1.14c-0.074,0.193-0.138,0.367-0.349,0.585c-0.259,0.267-0.481,0.378-0.677,0.487
					c-0.481,0.246-0.825,0.487-1.111,1.426c-0.101,0.323-0.154,0.611-0.202,0.873c-0.137,0.691-0.206,1.006-0.994,1.323
					c-0.227,0.093-0.476,0.114-0.746,0.127c-0.508,0.042-1.164,0.082-1.614,0.828c-0.307,0.497-0.259,1.103-0.217,1.646
					c0.069,0.677,0.09,1.109-0.265,1.376c-0.465,0.344-1.153-0.011-1.296-0.402c-0.074-0.17,0.09-0.58,0.196-0.913
					c0.191-0.574,0.429-1.219,0.058-1.693c-0.275-0.362-0.715-0.405-1.021-0.405c-0.164,0-0.36,0.016-0.54,0.037
					c-0.222,0.021-0.45,0.035-0.625,0.021c-0.185-0.992-1.09-1.38-1.809-1.698c-0.783-0.344-1.27-0.574-1.318-1.156
					c-0.063-0.871,1.127-1.439,2.085-1.902c0.312-0.153,0.603-0.296,0.831-0.437c0.407-0.241,0.778-0.497,1.137-0.748
					c0.91-0.625,1.773-1.22,2.921-1.455c0.312-0.063,0.608-0.124,0.91-0.18c1.328-0.251,2.555-0.492,3.841-1.32
					c1.603-1.034,3.402-2.492,2.905-3.542c-0.175-0.36-0.487-0.555-0.884-0.555c-0.561,0-1.217,0.405-1.804,0.759
					c-0.296,0.175-0.656,0.4-0.868,0.426c-0.486,0-1.1-0.796-1.592-1.431c-0.614-0.781-1.143-1.453-1.799-1.453
					c-0.736,0-1.117,0.841-1.344,1.479c-0.132,0.384-0.222,0.717-0.296,1.016c-0.254,0.974-0.318,1.203-1.756,1.224
					c-0.492,0.011-1.026,0.022-1.556,0.043c-0.762,0.024-1.55,0.045-2.349,0.045c-1.386,0-2.476-0.077-3.428-0.236
					c-0.122-0.021-0.26,0.016-0.354,0.108c-12.169,11.791-20.334,26.632-23.604,42.929c-0.016,0.093,0,0.185,0.037,0.267
					c0.254,0.455,0.439,0.933,0.571,1.421c0.545,1.973,2,5.333,5.55,5.601c0.482,0.037,0.937,0,1.392-0.039
					c0.677-0.064,1.354-0.088,1.9,0.1c1.032,0.32,2.281,1.093,3.111,1.606c0.82,0.492,1.651,1.571,2.524,2.709
					c1.614,2.098,3.275,4.294,5.603,3.868c0.301-0.056,0.54-0.109,0.751-0.148c0.762-0.174,0.725-0.294,1.662,0.416
					c-0.17,0.465-0.291,0.933-0.375,1.383c-0.053,0.331-0.095,0.664-0.122,0.993c-0.08,0.738-0.132,1.436-0.572,2.045
					c-0.217,0.294-0.524,0.518-0.852,0.754c-0.513,0.381-1.1,0.812-1.328,1.605c-0.243,0.841,0.116,1.489,0.412,2.006
					c0.206,0.375,0.386,0.698,0.349,1.037c-0.042,0.354-0.254,0.574-0.524,0.857c-0.375,0.405-0.863,0.912-0.683,1.873
					c0.212,1.246,1.328,2.717,2.318,4.016c0.381,0.503,0.746,0.979,0.989,1.373c0.714,1.124,1.667,2.577,2.804,3.802
					c0.55,0.6,1.286,1.087,1.99,1.566c1.328,0.881,2.566,1.712,2.73,3.206c0.052,0.58-0.042,1.177-0.154,1.81
					c-0.116,0.683-0.238,1.386-0.158,2.119c0.074,0.693,0.291,1.344,0.497,1.968c0.112,0.35,0.223,0.704,0.318,1.064
					c0.233,0.881,0.556,2.196,0.651,3.426c0.069,0.667-0.085,1.278-0.217,1.923c-0.117,0.503-0.243,1.016-0.259,1.569
					c-0.053,0.873,0.185,1.677,0.407,2.463c0.138,0.471,0.259,0.913,0.328,1.371c0.058,0.322,0.08,0.635,0.127,0.944
					c0.091,0.809,0.181,1.651,0.561,2.503c0.249,0.574,0.576,1.098,0.894,1.6c0.302,0.471,0.582,0.913,0.799,1.394
					c0.238,0.54,0.391,1.103,0.534,1.698c0.143,0.513,0.27,1.043,0.471,1.558c1.662,4.249,3.831,8.177,8.508,8.177
					c0.614,0,1.27-0.072,1.932-0.209c0.153-0.032,0.254-0.13,0.301-0.267c0.048-0.135,0.021-0.283-0.069-0.392l-0.471-0.537
					c-0.915-1.066-1.862-2.169-3.312-2.765c0-0.235,0.016-0.544,0.027-0.883c0.111-1.712,0.142-3.077-0.429-3.683
					c-0.084-0.087-0.175-0.153-0.275-0.201c0.048-0.236,0.138-0.476,0.238-0.722c0.238-0.63,0.519-1.344,0.18-2.13
					c-0.185-0.426-0.518-0.585-0.73-0.683c-0.217-0.095-0.249-0.117-0.264-0.301c-0.032-0.318,0.381-0.667,0.799-0.881
					c0.143-0.077,0.217-0.238,0.217-0.403c-0.074-0.6-0.011-1.021,0.18-1.251c0.259-0.312,0.814-0.344,1.402-0.384
					c0.693-0.048,1.476-0.098,1.984-0.662c0.873-0.976,0.185-2.336-0.376-3.428c-0.138-0.257-0.254-0.503-0.349-0.717
					c2.143-0.061,3.455-0.119,5.037-2.318c0.703-0.981,1.566-2.51,1.724-4.172c0.042-0.558-0.01-0.984-0.063-1.365
					c-0.085-0.651-0.132-1.04,0.375-1.712c0.191-0.236,0.355-0.469,0.514-0.699c0.465-0.634,0.899-1.235,1.566-1.714
					c0.397-0.296,0.895-0.532,1.423-0.778c0.905-0.431,1.842-0.878,2.45-1.725c0.867-1.209,0.608-2.426,0.36-3.595
					c-0.222-1.119-0.45-2.185,0.339-3.227c0.217-0.291,0.455-0.585,0.682-0.881c1.545-1.939,3.286-4.134,1.968-6.818
					C1979.995,957.733,1978.451,957.619,1976.958,957.513z"/>
				<path style="fill:#F6F6F6;" d="M1948.17,934.363c0.111-0.355,0.074-0.897-0.762-1.503c-0.386-0.288-0.836-0.37-1.228-0.442
					c-0.275-0.05-0.524-0.098-0.741-0.198c-0.323-0.156-0.561-0.416-0.826-0.693c-0.222-0.23-0.439-0.474-0.73-0.677
					c-0.556-0.381-1.45-0.627-2.297-0.627c-0.979,0-1.735,0.315-2.143,0.873c-0.322,0.431-0.407,0.81-0.259,1.143
					c0.259,0.595,1.106,0.693,1.936,0.797c0.328,0.039,0.677,0.082,0.841,0.142c0.524,0.212,0.974,0.55,1.45,0.908
					c0.651,0.489,1.328,0.997,2.222,1.196c0.196,0.042,0.402,0.066,0.63,0.066C1947.022,935.346,1947.948,935.04,1948.17,934.363z"
					/>
				<path style="fill:#F6F6F6;" d="M1948.794,937.291c0.508,0,1.096-0.225,1.513-0.41c0.254-0.121,0.614-0.169,0.984-0.209
					c0.582-0.076,1.243-0.156,1.698-0.585c0.206-0.18,0.799-0.73,0.577-1.32c-0.217-0.537-1.006-0.788-2.487-0.788h-0.344
					c-2.19,0.05-2.82,1.077-2.968,1.934c-0.08,0.444-0.021,0.794,0.201,1.04C1948.085,937.111,1948.344,937.291,1948.794,937.291z"
					/>
				<path style="fill:#F6F6F6;" d="M2089.387,932.598c-3.46-18.548-13.519-35.603-28.317-48.037
					c-0.069-0.074-0.175-0.104-0.296-0.093c-0.18,0.018-0.392,0.018-0.582,0.018c-0.265,0-0.503,0-0.719,0.032
					c-0.175,0.021-0.317,0.159-0.349,0.339c-0.217,1.55,1.429,2.18,2.524,2.6c0.318,0.125,0.63,0.236,0.826,0.35l0.153,0.098
					c0.048,0.021,0.09,0.05,0.138,0.076c-0.042,0.035-0.069,0.056-0.069,0.072l-0.291-0.005c-0.17,0-0.439,0.021-0.667,0.23
					c-0.18,0.185-0.232,0.489-0.307,0.923c-0.021,0.069-0.032,0.13-0.032,0.185c-0.487,0.114-0.767-0.617-1.016-1.209
					c-0.106-0.268-0.222-0.519-0.338-0.715c-0.502-0.862-1.27-1.667-2.254-2.349c-0.429-0.294-1.201-0.831-1.883-0.831
					c-0.302,0-0.572,0.108-0.752,0.302c-0.656,0.653-0.037,1.648,0.386,2.299c0.021,0.021,0.031,0.039,0.042,0.061
					c-0.873,0.487-1.931,0.468-3.127,0.318c-0.905-0.106-1.921-0.183-2.783,0.016c-0.498,0.125-0.984,0.294-1.455,0.463
					c-0.413,0.143-0.841,0.291-1.265,0.405c-0.339,0.082-0.714,0.108-1.095,0.132c-0.413,0.032-0.831,0.063-1.217,0.164
					c-0.598,0.156-0.91,0.495-1.191,0.786c-0.164,0.164-0.301,0.323-0.524,0.465c-0.312,0.238-0.634,0.31-1.042,0.407
					c-0.154,0.029-0.313,0.066-0.466,0.116c-0.444,0.13-0.878,0.371-1.286,0.606c-0.656,0.376-1.233,0.733-1.889,0.601
					c-0.582-0.103-1.534-0.743-1.836-1.318c2.021,0.646,3.307,0.662,3.836,0.008c0.227-0.281,0.296-0.662,0.206-1.117
					c-0.296-1.391-2.359-1.846-3.889-2.18c-0.328-0.077-0.624-0.14-0.836-0.206c-2.169-0.635-3.926-0.934-5.529-0.934
					c-2.137,0-4.074,0.529-5.92,1.617c-1.053,0.611-1.921,1.426-2.778,2.217c-0.698,0.651-1.423,1.328-2.223,1.865l-0.259,0.169
					c-1.402,0.921-4.328,2.828-2.963,5.043c0.555,0.878,1.354,0.982,1.91,0.982c0.307,0,0.625-0.032,0.942-0.066
					c0.619-0.074,1.243-0.109,1.624,0.087c0.339,0.177,0.613,0.521,0.878,0.854c0.412,0.513,0.873,1.092,1.64,1.092
					c0.323,0,0.662-0.1,1.016-0.307c1.661-0.918,1.767-2.529,1.863-3.944c0.1-1.606,0.18-2.873,2.042-3.397
					c0.296-0.087,0.614-0.138,0.931-0.18c-0.069,0.288-0.228,0.59-0.381,0.899c-0.407,0.77-0.878,1.728-0.101,2.738
					c0.577,0.759,1.545,0.847,2.223,0.847c0.127,0,0.253-0.005,0.386-0.016c-0.228,0.103-0.445,0.196-0.661,0.283
					c-0.228,0.087-0.455,0.169-0.624,0.262c-0.873,0.41-1.048,0.651-1.413,1.297l-0.175,0.304c-0.736,1.246-1.995,1.503-3.677,1.503
					c-0.286,0-0.572-0.005-0.857-0.011c-0.926-0.016-1.667-0.087-2.582-0.41c-0.91-0.307-1.498-0.447-2.45,0.045
					c-1.397,0.715-2.492,1.797-3.566,2.849c-0.238,0.246-0.482,0.487-0.73,0.722c-1.222,1.127-3.307,2.426-5.01,2.606
					c-0.18,0.021-0.339,0.169-0.36,0.365c-0.069,0.847,0.63,1.286,1.185,1.641c0.254,0.159,0.492,0.307,0.625,0.468
					c0.603,0.712,0.471,1.635,0.254,2.656c-0.286,0.021-0.592-0.061-0.91-0.143c-0.254-0.058-0.503-0.119-0.773-0.151
					c-1.085-0.116-1.926,0.185-2.82,0.508c-1.519,0.524-1.63,1.037-1.73,2.151c-0.01,0.209-0.042,0.442-0.084,0.706
					c-0.053,0.421-0.153,0.775-0.243,1.082c-0.259,0.879-0.486,1.638,0.645,2.768c0.926,0.923,1.852,0.929,2.921,0.936l0.656,0.011
					c0.958,0,2.815-0.215,3.624-1.027c0.461-0.455,0.635-1.066,0.799-1.651c0.153-0.534,0.296-1.039,0.645-1.389
					c0.339-0.344,0.604-0.735,0.873-1.109c0.545-0.765,0.995-1.426,1.899-1.503c0.201-0.011,0.391,0,0.55,0.016
					c0.455,0.024,0.857,0.005,1.222-0.146c0.264-0.097,0.466-0.24,0.661-0.362c0.249-0.174,0.375-0.294,0.704-0.272
					c0.667,0.071,1.894,1.092,2.719,1.764c0.254,0.214,0.492,0.41,0.688,0.553c1.095,0.831,1.735,1.883,1.99,3.32
					c0.021,0.111,0.079,0.214,0.185,0.273c0.095,0.061,0.212,0.076,0.328,0.04c0.741-0.241,1.249-0.863,1.402-1.714
					c0.164-0.963-0.18-1.953-0.852-2.46c-0.201-0.153-0.529-0.309-0.947-0.508c-0.936-0.457-2.518-1.222-2.227-1.899
					c0.45-1.045,2.735,0.857,3.513,1.637c0.751,0.775,1.196,1.743,1.662,2.77c0.291,0.622,0.577,1.257,0.957,1.857
					c0.26,0.405,1.143,1.471,2.011,1.471c0.249,0,0.598-0.082,0.873-0.471c0.381-0.545,0.021-1.452-0.296-2.257
					c-0.063-0.153-0.127-0.315-0.185-0.447c0.524-0.296,1.233-0.683,1.661-0.471c0.244,0.111,0.339,0.384,0.482,0.826
					c0.085,0.251,0.164,0.508,0.296,0.743c0.841,1.37,2.27,1.534,3.54,1.677c0.899,0.098,1.746,0.19,2.402,0.651
					c0.524,0.36,0.609,0.884,0.598,1.256c-0.042,0.746-0.54,1.556-1.175,1.921c-1.587,0.908-4.989,1.69-6.656,1.455
					c-0.693-0.104-1.248-0.445-1.793-0.778c-0.63-0.397-1.291-0.807-2.159-0.807c-0.312,0-0.64,0.061-0.989,0.174
					c-1.492,0.513-2.619,0.103-4.19-0.569l-0.407-0.169c-0.773-0.339-1.201-0.529-1.519-1.241c-0.111-0.228-0.169-0.479-0.238-0.751
					c-0.138-0.579-0.286-1.23-0.963-1.685c-0.418-0.278-0.926-0.413-1.545-0.413c-0.937,0-1.968,0.315-2.958,0.617
					c-0.751,0.225-1.461,0.442-2.01,0.481c-3.407,0.206-6.244,1.064-9.799,2.96c-1.037,0.561-1.106,1.072-1.095,1.791
					c0.016,0.301,0.026,0.616-0.085,1.032c-0.238,0.788-0.915,1.4-1.571,1.99l-0.233,0.209c-1.153,1.074-1.968,2.516-2.762,3.91
					l-0.381,0.677c-0.809,1.383-0.82,2.698-0.831,4.092c0,0.426,0,0.863-0.021,1.315c-0.037,0.651-0.153,1.307-0.264,1.936
					c-0.265,1.386-0.503,2.823,0,4.341c0.523,1.54,1.661,2.722,2.757,3.878c0.407,0.41,0.793,0.815,1.143,1.23
					c1.365,1.616,2.73,2.929,5.222,2.77c1.73-0.093,3.444-0.442,5.105-0.775c0.535-0.106,1.059-0.209,1.593-0.312
					c1.455-0.267,2.164,0.05,3.381,0.651l0.556,0.273c0.249,0.119,0.471,0.219,0.703,0.323c1.323,0.585,2.037,0.907,2.138,2.508
					c0.148,2.336,0.656,3.873,1.973,5.878c1.164,1.77,2.154,4.659,1.551,6.828c-0.149,0.513-0.349,1.021-0.535,1.508
					c-0.45,1.141-0.931,2.325-0.751,3.715c0.18,1.431,0.926,2.627,1.629,3.786c0.392,0.638,0.773,1.241,1.053,1.873
					c0.397,0.939,0.481,1.881,0.582,2.883c0.053,0.569,0.1,1.154,0.212,1.749c0.169,0.876,0.476,1.706,0.783,2.513
					c0.201,0.559,0.418,1.138,0.572,1.717l0.074,0.246c0.334,1.26,0.656,2.447,2.207,2.971c0.492,0.169,1.037,0.251,1.613,0.251
					c1.259,0,2.688-0.421,3.873-1.148c1.323-0.786,2.545-1.847,3.73-2.873c0.381-0.323,0.741-0.64,1.117-0.955
					c1.27-1.071,2.577-2.394,2.286-4.585c0.709-0.159,1.148-0.283,1.391-0.672c0.259-0.405,0.19-0.944-0.005-1.862
					c-0.296-1.426-0.106-1.971,0.757-3.217c0.291-0.42,0.656-0.765,1.047-1.138c0.492-0.468,0.995-0.95,1.344-1.579
					c0.587-1.13,0.931-2.561,0.953-3.926c0.01-1.098-0.143-2.127-0.296-3.119c-0.265-1.738-0.492-3.378,0.206-5.114l0.212-0.527
					c0.629-1.561,1.222-3.031,2.545-3.981c1.439-1.042,2.323-2.315,3.328-3.868c0.291-0.463,0.619-0.918,0.936-1.376
					c0.487-0.693,0.995-1.415,1.418-2.164c0.391-0.683,0.672-1.405,0.947-2.109c0.249-0.666,0.524-1.355,0.867-1.984
					c0.085-0.14,0.074-0.32-0.037-0.447c-0.307-0.376-0.698-0.558-1.18-0.558c-0.55,0-1.127,0.246-1.656,0.492
					c-0.323,0.143-0.635,0.28-0.889,0.339c-1.063,0.235-2.481,0.405-3.381,0.061c-0.487-0.19-0.741-0.465-0.979-0.831
					c0.021,0.016,0.053,0.034,0.069,0.055c0.482,0.349,1.069,0.535,1.746,0.535c1.301,0,2.688-0.638,3.878-1.257
					c1.857-0.976,3.465-2.288,4.672-3.32c0.243-0.214,0.529-0.45,0.831-0.696c1.28-1.01,2.857-2.278,3.349-3.653
					c0.127-0.36,0.169-0.957-0.407-1.775c-0.958-1.349-3.159-2.723-4.44-2.723l0,0c-0.518,0.019-0.968,0.164-1.354,0.286
					c-0.661,0.211-1.243,0.344-1.873,0.026c-1.016-0.524-1.762-2.016-2.058-3.257c-0.011-0.069-0.032-0.14-0.053-0.206
					c0.603,0.236,1.18,0.662,1.789,1.103c0.778,0.569,1.587,1.159,2.524,1.389c0.64,0.164,1.206,0.174,1.709,0.19
					c0.788,0.016,1.46,0.037,2.27,0.569c1.196,0.818,2.413,1.005,3.698,1.211l0.651,0.103c0.423,0.072,0.831,0.103,1.238,0.132
					c1.111,0.082,2.064,0.148,2.81,1.016c0.169,0.217,0.333,0.463,0.498,0.714c0.46,0.68,0.973,1.455,1.831,1.759
					c0.249,0.082,0.577,0.072,0.904,0.035c0.223-0.024,0.445-0.045,0.556,0.01c0.275,0.135,0.498,0.72,0.624,1.109
					c0.059,0.122,0.095,0.241,0.138,0.333c0.508,1.312,0.868,2.709,1.228,4.059c0.434,1.677,0.888,3.405,1.646,5.036
					c0.497,1.087,1.534,1.852,2.513,1.852c0.883,0,1.592-0.595,1.942-1.632c0.296-0.892,0.243-1.831,0.201-2.738
					c-0.043-0.596-0.074-1.156,0-1.693c0.153-1.267,0.809-2.124,1.804-3.098c0.238-0.228,0.502-0.518,0.794-0.831
					c1.158-1.267,2.931-3.191,4.375-3.063c0.005,0,0.021,0,0.021,0h0.031c0.228,0,0.403-0.18,0.403-0.4
					C2089.43,932.722,2089.414,932.653,2089.387,932.598z M2045.996,937.77c-0.672-1.162-1.154-2.447-1.614-3.696
					c-0.524-1.434-1.079-2.913-1.936-4.215c-0.651-0.976-1.132-2.026-1.386-3.026c2.73,1.564,4.91,6.053,6.085,9.955
					c0.1,0.376,0.19,0.836,0.286,1.323c0.101,0.6,0.212,1.238,0.407,1.823c-0.238-0.283-0.471-0.534-0.714-0.786
					C2046.71,938.712,2046.308,938.296,2045.996,937.77z"/>
				<path style="fill:#F6F6F6;" d="M2006.138,903.217c0.191,0,0.407-0.042,0.656-0.124c0.989-0.344,1.73-1.929,1.566-2.913
					c-0.132-0.82-0.852-1.108-1.836-0.579c-0.757,0.415-1.582,1.947-1.344,2.892
					C2005.292,902.944,2005.652,903.217,2006.138,903.217z"/>
				<path style="fill:#F6F6F6;" d="M2009.503,901.307c0.037,0.278-0.117,0.621-0.27,0.955c-0.217,0.465-0.444,0.955-0.185,1.404
					c0.243,0.458,0.862,0.595,1.312,0.651c0.053,0.01,0.127,0.016,0.196,0.016c0.916,0,2.73-0.738,3.54-1.595
					c0.339-0.362,0.502-0.728,0.481-1.093c-0.037-0.672-0.714-0.963-1.211-1.175c-0.201-0.093-0.418-0.185-0.524-0.275
					c-0.408-0.381-0.434-0.677-0.46-1.217c0-0.18-0.011-0.365-0.043-0.563c-0.121-1.077-0.984-2.227-2.042-2.227
					c-0.307,0-0.778,0.097-1.243,0.579c-1.085,1.119-0.486,2.365-0.005,3.365C2009.244,900.558,2009.45,900.963,2009.503,901.307z"
					/>
			</g>
		</g>
	</g>
	<g>
		
			<ellipse transform="matrix(0.7071 -0.7071 0.7071 0.7071 -579.7449 495.1501)" style="fill:#F6F6F6;" cx="307.827" cy="947.389" rx="133.281" ry="133.281"/>
		<path style="fill:#465761;" d="M381.102,1009.31h-8c0.445-0.556,0.73-1.252,0.73-2.22v-5.169c0-2.455-1.349-3.505-4.503-3.505
			H364.8c0-0.076,0.011-0.135,0.011-0.211v-61.421c2.471-0.495,2.984-2.037,2.984-5.378v-5.619c0.476,0,0.947,0.005,1.429,0.005
			c1.434,0,2.931,0.082,4.381,0.159c1.476,0.08,3.011,0.17,4.529,0.17c0,0,0,0,0.016,0c2.005,0,3.666-0.148,5.212-0.463
			c0.741-0.151,2.074-0.566,2.693-1.682c1.698-3.061-0.471-5.127-1.635-6.243c-0.143-0.135-0.264-0.257-0.386-0.373
			c-6.392-6.508-12.931-12.839-19.254-18.968c-7.936-7.68-16.143-15.624-24.053-23.907c-7.312-7.664-21.344-22.447-24.19-25.445
			l-0.518-0.542c-2.508-2.64-5.852-4.095-9.407-4.095c-3.561,0-6.905,1.455-9.418,4.095l-27.222,28.609
			c-5.127,5.4-10.27,10.796-15.402,16.204c-6.037,6.368-12.085,12.73-18.148,19.067c-1.09,1.14-2.085,2.074-3.138,3.061
			c-0.937,0.884-1.873,1.765-2.883,2.794c-1.281,1.312-1.757,3.23-1.196,4.765c0.423,1.146,1.376,1.871,2.614,1.987
			c3.767,0.35,6.534,0.421,9.783,0.421l4.18-0.011c0.572-0.008,1.148,0,1.72-0.008v6.024c0,3.341,0.524,4.883,2.995,5.378v61.421
			c0,0.076,0.011,0.135,0.011,0.211h-4.439c-3.154,0-4.503,1.051-4.503,3.505v5.169c0,0.968,0.275,1.664,0.73,2.22h-8
			c-3.725,0-5.243,1.016-5.243,3.503v5.169c0,2.489,1.519,3.5,5.243,3.5h146.81c3.719,0,5.244-1.011,5.244-3.5v-5.169
			C386.345,1010.326,384.821,1009.31,381.102,1009.31z M298.387,936.783v61.421c0,0.076,0.016,0.135,0.016,0.211h-29.317
			c0-0.076,0.016-0.135,0.016-0.211v-61.421c2.471-0.495,2.99-2.037,2.99-5.378v-6.045c1.005,0,2.021-0.008,3.021-0.008
			l10.132,0.008c3.386,0.005,6.773,0.005,10.159,0.005v6.04C295.403,934.746,295.922,936.288,298.387,936.783z M346.197,936.783
			v61.421c0,0.076,0.016,0.135,0.021,0.211h-29.227c0-0.076,0.016-0.135,0.016-0.211v-61.421c2.46-0.495,2.984-2.037,2.984-5.378
			v-6.04l10.788-0.005c4.121,0,8.286,0.05,12.429,0.111v5.934C343.208,934.746,343.731,936.288,346.197,936.783z"/>
	</g>
</g>
<g>
	<g>
		
			<path style="fill:#6D9AB3;stroke:#5B89A3;stroke-width:9.5399;stroke-linecap:round;stroke-linejoin:round;stroke-miterlimit:10;" d="
			M1598.121,1399.475c0,29.222-10.963,40.193-40.191,40.193H751.727c-29.227,0-46.561-10.971-46.561-40.193V930.863
			c0-29.225,17.333-40.193,46.561-40.193h806.204c29.228,0,40.191,10.968,40.191,40.193V1399.475z"/>
	</g>
	<g style="opacity:0.7;">
		<g>
			<path style="opacity:0.5;fill:#F5F4F4;" d="M716.791,1328.377c0.259-17.939,0.899-35.87,0.423-53.413
				c-0.322-12.114-0.534-24.235-0.376-36.357c0.868-64.432,1.238-128.855,1.889-193.286c0.185-17.955-1.699-32.736-1.582-50.691
				c0.191-29.674-5.132-58.379,9.122-82.161c4.641-7.741,17.566-14.566,24.508-18.596c-29.313,0.246-42.424,11.672-42.424,36.99
				v468.612c0,25.598,13.375,37.013,43.375,37.013h11.794c-17.201,0-38.175-8.601-44.132-26c-2.772-8.103-1.878-17.085-1.831-25.492
				c0.053-10.482-0.482-20.931-0.889-31.399C716.341,1345.147,716.669,1336.811,716.791,1328.377z"/>
		</g>
	</g>
	<g>
		
			<path style="fill:#E7E6E6;stroke:#C2C2C2;stroke-width:9.5399;stroke-linecap:round;stroke-linejoin:round;stroke-miterlimit:10;" d="
			M1706.667,1738.579c0.1,29.222-10.831,40.228-40.059,40.325l-1022.437,3.365c-29.228,0.095-46.593-10.818-46.688-40.037
			c9.725-23.601,19.535-47.161,29.196-70.783c18.021-44.1,77.614-205.675,85.503-215.831c8.953-11.527,25.344-13.852,38.984-13.899
			c0.085,0,804.997-2.648,806.203-2.651c13.45-0.048,30.439,2.357,36.095,16.302c5.545,13.677,10.857,28.849,15.937,42.826
			c13.106,36.039,26.18,71.246,41.006,106.63c15.418,36.77,30.931,73.498,46.423,110.233
			C1700.132,1722.891,1703.381,1730.743,1706.667,1738.579z"/>
	</g>
	<g>
		
			<path style="fill:#E7E6E6;stroke:#C2C2C2;stroke-width:9.5399;stroke-linecap:round;stroke-linejoin:round;stroke-miterlimit:10;" d="
			M597.753,1740.399c-0.238,0.558-0.471,1.119-0.704,1.677c0,29.222,17.333,40.193,46.561,40.193h1022.437
			c29.227,0,40.196-10.971,40.196-40.193c-0.238-0.559-0.46-1.119-0.693-1.677H597.753z"/>
	</g>
	<g>
		
			<path style="fill:#BAE2F3;stroke:#93C5DA;stroke-width:9.5399;stroke-linecap:round;stroke-linejoin:round;stroke-miterlimit:10;" d="
			M1560.682,1377.84c0,25.421-10.042,34.968-36.815,34.968H785.262c-26.783,0-42.656-9.548-42.656-34.968V970.215
			c0-25.423,15.873-34.963,42.656-34.963h738.605c26.773,0,36.815,9.54,36.815,34.963V1377.84z"/>
	</g>
	<g style="opacity:0.3;">
		<g>
			<path style="fill:#ABABAB;" d="M751.05,1397.578c5.974,8.248,17.133,12.079,34.212,12.079h738.605
				c25.175,0,33.672-8.03,33.672-31.818V970.215c0-10.5-1.651-17.931-5.667-22.956
				C1546.788,940.902,747.473,1392.628,751.05,1397.578z"/>
		</g>
	</g>
	<g>
		<path style="fill:#57605C;" d="M1165.167,912.764c0,7.466-6.058,13.516-13.524,13.516c-7.46,0-13.508-6.05-13.508-13.516
			c0-7.465,6.048-13.516,13.508-13.516C1159.11,899.248,1165.167,905.299,1165.167,912.764z"/>
		<g style="opacity:0.5;">
			<path style="fill:#ABABAB;" d="M1149.02,904.947c3.069-1.646,6.407-2.289,9.735-2.167c-2.011-1.434-4.455-2.302-7.111-2.302
				c-6.773,0-12.275,5.513-12.275,12.285c0,3.659,1.63,6.913,4.18,9.167C1141.083,916.003,1143.157,908.09,1149.02,904.947z"/>
		</g>
	</g>
	<polygon style="fill:#B2B2B2;" points="1273.305,1718.058 1029.993,1718.058 1052.628,1659.756 1256.903,1659.756 	"/>
	<polygon style="opacity:0.4;fill:#D8D8D8;" points="1257.819,1707.991 1056.035,1707.991 1151.644,1688.907 1248.316,1670.891 	"/>
	<g style="opacity:0.5;">
		<g>
			<path style="fill:#E6E5E4;" d="M1683.55,1694.132c-12.043-28.838-24.085-57.672-36.074-86.529
				c-15.588-37.542-29.37-75.328-41.069-107.797l-3.201-8.949c-4.09-11.453-8.318-23.296-12.693-34.172
				c-2.423-6.058-7.503-10.17-15.365-12.418c7.079,13.458,12.582,27.891,17.46,42.458c11.482,34.32,25.365,67.72,36.561,102.114
				c10.127,31.074,23.365,62.516,31.386,94.201c4.698,18.545,9.09,42.143-4.36,58.23c-19.751,23.638-58.074,15.937-84.307,16.67
				c-44.106,1.233-93.365,4.23-136.858,6.428c-65.439,3.307-129.518,12.077-195.043,15.942l426.604-1.418
				c14.058-0.048,23.201-2.709,28.778-8.378c5.502-5.587,8.09-14.645,8.117-28.474L1683.55,1694.132z"/>
		</g>
	</g>
	<g>
		<g>
			<g>
				<path style="fill:#B2B2B2;" d="M1345.777,1483.779l-2.793-15.807c-24.154,0-50.524,0-78.175,0l1.058,15.807H1345.777z"/>
				<path style="fill:#B2B2B2;" d="M1435.031,1483.779l-4.201-15.807c-18.719,0-42.619,0-70.079,0l2.799,15.807H1435.031z"/>
				<path style="fill:#B2B2B2;" d="M1506.327,1483.779c-2.164-7.264-3.91-14.78-5.709-15.894
					c-2.423-1.505-17.444,0.088-26.106,0.088c-0.196,0-9.503,0-25.598,0l4.201,15.807H1506.327z"/>
				<path style="fill:#B2B2B2;" d="M1248.316,1483.779l-1.063-15.807c-23.714,0-48.18,0-72.836,0l0.026,15.807H1248.316z"/>
				<path style="fill:#B2B2B2;" d="M1156.929,1483.779l-0.027-15.807c-25.82,0-51.672,0-76.91,0l-0.905,15.807H1156.929z"/>
				<path style="fill:#B2B2B2;" d="M1463.475,1522.711h59.683c-3.228-8.611-6.18-16.22-8.593-21.944h-56.931L1463.475,1522.711z"/>
				<path style="fill:#B2B2B2;" d="M1061.543,1483.779l0.894-15.807c-28.963,0-56.878,0-82.747,0l-2.28,15.807H1061.543z"/>
				<path style="fill:#B2B2B2;" d="M1484.079,1600.172h66.931c-2.238-6.254-4.921-13.837-7.847-22.096h-64.968L1484.079,1600.172z"
					/>
				<path style="fill:#B2B2B2;" d="M1473.687,1561.089h63.434c-2.545-7.127-5.143-14.374-7.698-21.389h-61.429L1473.687,1561.089z"
					/>
				<polygon style="fill:#B2B2B2;" points="1174.585,1561.089 1253.506,1561.089 1252.067,1539.7 1174.549,1539.7 				"/>
				<polygon style="fill:#B2B2B2;" points="1352.671,1522.711 1348.777,1500.766 1267.009,1500.766 1268.48,1522.711 				"/>
				<polygon style="fill:#B2B2B2;" points="1076.882,1522.711 1157.004,1522.711 1156.961,1500.766 1078.125,1500.766 				"/>
				<polygon style="fill:#B2B2B2;" points="1074.712,1561.089 1157.072,1561.089 1157.03,1539.7 1075.919,1539.7 				"/>
				<polygon style="fill:#B2B2B2;" points="951.649,1539.7 858.743,1539.7 852.606,1561.089 948.564,1561.089 				"/>
				<polygon style="fill:#B2B2B2;" points="1250.935,1522.711 1249.454,1500.766 1174.469,1500.766 1174.522,1522.711 				"/>
				<polygon style="fill:#B2B2B2;" points="1377.232,1561.089 1455.597,1561.089 1449.909,1539.7 1373.443,1539.7 				"/>
				<path style="fill:#B2B2B2;" d="M959.723,1483.779l2.28-15.807c-32.143,0-60.455,0-82.625,0l-4.551,15.807H959.723z"/>
				<polygon style="fill:#B2B2B2;" points="863.643,1522.711 954.109,1522.711 957.273,1500.766 869.945,1500.766 				"/>
				<polygon style="fill:#B2B2B2;" points="1271.062,1561.089 1359.459,1561.089 1355.676,1539.7 1269.623,1539.7 				"/>
				<polygon style="fill:#B2B2B2;" points="1272.205,1578.076 1273.681,1600.172 1366.375,1600.172 1362.459,1578.076 				"/>
				<polygon style="fill:#B2B2B2;" points="1439.549,1500.766 1366.56,1500.766 1370.433,1522.711 1445.39,1522.711 				"/>
				<polygon style="fill:#B2B2B2;" points="1174.618,1578.076 1174.654,1600.172 1256.136,1600.172 1254.65,1578.076 				"/>
				<polygon style="fill:#B2B2B2;" points="1380.237,1578.076 1384.142,1600.172 1465.994,1600.172 1460.11,1578.076 				"/>
				<polygon style="fill:#B2B2B2;" points="966.246,1561.089 1057.167,1561.089 1058.374,1539.7 969.336,1539.7 				"/>
				<polygon style="fill:#B2B2B2;" points="971.781,1522.711 1059.347,1522.711 1060.585,1500.766 974.945,1500.766 				"/>
				<polygon style="fill:#B2B2B2;" points="1056.204,1578.076 963.796,1578.076 960.606,1600.172 1054.955,1600.172 				"/>
				<polygon style="fill:#B2B2B2;" points="1073.739,1578.076 1072.501,1600.172 1157.147,1600.172 1157.104,1578.076 				"/>
				<polygon style="fill:#B2B2B2;" points="946.109,1578.076 847.717,1578.076 841.368,1600.172 942.929,1600.172 				"/>
				<path style="fill:#B2B2B2;" d="M840.563,1539.7h-61.503c-1.074,2.915-2.159,5.82-3.196,8.752
					c-1.455,4.188-2.92,8.41-4.37,12.638h62.931L840.563,1539.7z"/>
				<path style="fill:#B2B2B2;" d="M1174.691,1617.158l0.043,22.886c28.391,0,56.619,0,84.079,0l-1.54-22.886H1174.691z"/>
				<path style="fill:#B2B2B2;" d="M851.764,1500.766h-58.164c-2.667,7.341-5.423,14.645-8.201,21.944h60.053L851.764,1500.766z"/>
				<path style="fill:#B2B2B2;" d="M1157.178,1617.158h-89.503h-4.381H958.606l-3.756,22.886c33.492,0,69.604,0,107.027,0
					c1.429,0,2.889,0,4.328,0c29.915,0,60.445,0,91.016,0L1157.178,1617.158z"/>
				<path style="fill:#B2B2B2;" d="M829.526,1578.076h-63.905c-2.582,7.431-5.201,14.799-7.873,22.096h65.434L829.526,1578.076z"/>
				<path style="fill:#B2B2B2;" d="M836.479,1617.158l-6.576,22.886c27.603,0,64.577,0,107.264,0l3.302-22.886H836.479z"/>
				<path style="fill:#B2B2B2;" d="M751.187,1617.158c-1.513,3.649-6.931,20.016-5.174,21.267
					c1.746,1.246,22.497,1.619,31.619,1.619c0.185,0,12.619,0,34.085,0l6.582-22.886H751.187z"/>
				<path style="fill:#B2B2B2;" d="M1274.829,1617.158l1.534,22.886c34.265,0,67.069,0,97.058,0l-4.042-22.886H1274.829z"/>
				<path style="fill:#B2B2B2;" d="M1387.147,1617.158l4.053,22.886c33.153,0,62.275,0,85.397,0l-6.095-22.886H1387.147z"/>
				<path style="fill:#B2B2B2;" d="M1494.676,1640.044c24.534,0,38.821,0,38.821,0c10.254,0,26.031,0.73,28.434-1.714
					c1.984-2.039-2.212-12.646-4.588-21.172h-68.741L1494.676,1640.044z"/>
				<path style="fill:#B2B2B2;" d="M861.193,1467.973c-20.841,0-32.979,0-32.979,0c-8.878,0-18.793-0.341-20.804,0.939
					c-1.63,1.045-4.974,6.595-7.905,14.867h57.143L861.193,1467.973z"/>
			</g>
		</g>
		<g>
			<path style="fill:#D4D4D4;" d="M1265.607,1479.885l0.26,3.894h79.91l-2.793-15.807c-0.905,0-1.868,0-2.768,0l2.1,11.913H1265.607
				z"/>
			<path style="fill:#D4D4D4;" d="M1362.861,1479.885l0.688,3.894h71.481l-4.201-15.807c-0.783,0-1.629,0-2.423,0l3.164,11.913
				H1362.861z"/>
			<path style="fill:#D4D4D4;" d="M1452.078,1479.885l1.037,3.894h53.212c-2.164-7.264-3.91-14.78-5.709-15.894
				c-0.307-0.19-0.815-0.328-1.492-0.431c1.164,3.114,2.37,7.814,3.746,12.431H1452.078z"/>
			<path style="fill:#D4D4D4;" d="M1174.432,1479.885l0.01,3.894h73.873l-1.063-15.807c-1.047,0-2.137,0-3.196,0l0.794,11.913
				H1174.432z"/>
			<path style="fill:#D4D4D4;" d="M1079.315,1479.885l-0.228,3.894h77.842l-0.027-15.807c-1.153,0-2.302,0-3.45,0l0.011,11.913
				H1079.315z"/>
			<path style="fill:#D4D4D4;" d="M1462.438,1518.816l1.037,3.894h59.683c-3.228-8.611-6.18-16.22-8.593-21.944h-1.852
				c2.074,5.116,4.434,11.252,6.984,18.05H1462.438z"/>
			<path style="fill:#D4D4D4;" d="M977.972,1479.885l-0.561,3.894h84.133l0.894-15.807c-1.228,0-2.445,0-3.677,0l-0.672,11.913
				H977.972z"/>
			<path style="fill:#D4D4D4;" d="M1551.01,1600.172c-2.238-6.254-4.921-13.837-7.847-22.096h-2.079
				c2.381,6.736,4.593,12.953,6.466,18.201h-64.513l1.042,3.895H1551.01z"/>
			<path style="fill:#D4D4D4;" d="M1472.639,1557.195l1.048,3.895h63.434c-2.545-7.127-5.143-14.374-7.698-21.389h-2.058
				c2.111,5.799,4.217,11.664,6.302,17.495H1472.639z"/>
			<polygon style="fill:#D4D4D4;" points="1174.58,1557.195 1174.585,1561.089 1253.506,1561.089 1252.067,1539.7 1248.872,1539.7 
				1250.046,1557.195 			"/>
			<polygon style="fill:#D4D4D4;" points="1268.221,1518.816 1268.48,1522.711 1352.671,1522.711 1348.777,1500.766 
				1346.015,1500.766 1349.205,1518.816 			"/>
			<polygon style="fill:#D4D4D4;" points="1077.104,1518.816 1076.882,1522.711 1157.004,1522.711 1156.961,1500.766 
				1153.506,1500.766 1153.538,1518.816 			"/>
			<polygon style="fill:#D4D4D4;" points="1074.924,1557.195 1074.712,1561.089 1157.072,1561.089 1157.03,1539.7 1153.575,1539.7 
				1153.612,1557.195 			"/>
			<polygon style="fill:#D4D4D4;" points="947.632,1539.7 945.109,1557.195 853.722,1557.195 852.606,1561.089 948.564,1561.089 
				951.649,1539.7 			"/>
			<polygon style="fill:#D4D4D4;" points="1174.506,1518.816 1174.522,1522.711 1250.935,1522.711 1249.454,1500.766 
				1246.258,1500.766 1247.474,1518.816 			"/>
			<polygon style="fill:#D4D4D4;" points="1376.538,1557.195 1377.232,1561.089 1455.597,1561.089 1449.909,1539.7 1447.486,1539.7 
				1452.137,1557.195 			"/>
			<path style="fill:#D4D4D4;" d="M875.95,1479.885l-1.122,3.894h84.895l2.28-15.807c-1.365,0-2.678,0-4.021,0l-1.725,11.913H875.95
				z"/>
			<polygon style="fill:#D4D4D4;" points="864.754,1518.816 863.643,1522.711 954.109,1522.711 957.273,1500.766 953.252,1500.766 
				950.638,1518.816 			"/>
			<polygon style="fill:#D4D4D4;" points="1270.797,1557.195 1271.062,1561.089 1359.459,1561.089 1355.676,1539.7 1352.903,1539.7 
				1355.993,1557.195 			"/>
			<polygon style="fill:#D4D4D4;" points="1273.422,1596.277 1273.681,1600.172 1366.375,1600.172 1362.459,1578.076 
				1359.687,1578.076 1362.92,1596.277 			"/>
			<polygon style="fill:#D4D4D4;" points="1369.75,1518.816 1370.433,1522.711 1445.39,1522.711 1439.549,1500.766 
				1437.126,1500.766 1441.931,1518.816 			"/>
			<polygon style="fill:#D4D4D4;" points="1174.654,1596.277 1174.654,1600.172 1256.136,1600.172 1254.65,1578.076 
				1251.453,1578.076 1252.676,1596.277 			"/>
			<polygon style="fill:#D4D4D4;" points="1383.454,1596.277 1384.142,1600.172 1465.994,1600.172 1460.11,1578.076 
				1457.687,1578.076 1462.528,1596.277 			"/>
			<polygon style="fill:#D4D4D4;" points="966.807,1557.195 966.246,1561.089 1057.167,1561.089 1058.374,1539.7 1054.702,1539.7 
				1053.707,1557.195 			"/>
			<polygon style="fill:#D4D4D4;" points="972.352,1518.816 971.781,1522.711 1059.347,1522.711 1060.585,1500.766 
				1056.903,1500.766 1055.876,1518.816 			"/>
			<polygon style="fill:#D4D4D4;" points="1054.955,1600.172 1056.204,1578.076 1052.522,1578.076 1051.495,1596.277 
				961.167,1596.277 960.606,1600.172 			"/>
			<polygon style="fill:#D4D4D4;" points="1072.718,1596.277 1072.501,1600.172 1157.147,1600.172 1157.104,1578.076 
				1153.649,1578.076 1153.686,1596.277 			"/>
			<polygon style="fill:#D4D4D4;" points="939.463,1596.277 842.49,1596.277 841.368,1600.172 942.929,1600.172 946.109,1578.076 
				942.088,1578.076 			"/>
			<path style="fill:#D4D4D4;" d="M772.838,1557.195c-0.444,1.302-0.899,2.593-1.344,3.895h62.931l6.137-21.389h-4.571
				l-5.037,17.495H772.838z"/>
			<path style="fill:#D4D4D4;" d="M1254.078,1617.158l1.27,18.992c-26.339,0-53.408,0-80.619,0l0.005,3.894
				c28.391,0,56.619,0,84.079,0l-1.54-22.886H1254.078z"/>
			<path style="fill:#D4D4D4;" d="M786.849,1518.816c-0.487,1.297-0.958,2.601-1.45,3.894h60.053l6.312-21.944h-4.582l-5.19,18.05
				H786.849z"/>
			<path style="fill:#D4D4D4;" d="M1153.728,1617.158l0.032,18.992c-30.572,0-61.09,0-91.017,0c-1.439,0-2.899,0-4.328,0
				c-35.926,0-70.582,0-102.931,0l-0.635,3.894c33.492,0,69.604,0,107.027,0c1.429,0,2.889,0,4.328,0c29.915,0,60.445,0,91.016,0
				l-0.042-22.886H1153.728z"/>
			<path style="fill:#D4D4D4;" d="M824.955,1578.076l-5.238,18.201h-60.583c-0.471,1.291-0.92,2.609-1.386,3.895h65.434
				l6.344-22.096H824.955z"/>
			<path style="fill:#D4D4D4;" d="M933.712,1636.15c-40.418,0-75.624,0-102.693,0l-1.116,3.894c27.603,0,64.577,0,107.264,0
				l3.302-22.886h-4.021L933.712,1636.15z"/>
			<path style="fill:#D4D4D4;" d="M808.256,1636.15c-21.46,0-33.894,0-34.074,0c-7.238,0-21.735-0.236-28.328-0.955
				c-0.254,1.701-0.275,2.926,0.159,3.23c1.746,1.246,22.497,1.619,31.619,1.619c0.185,0,12.619,0,34.085,0l6.582-22.886h-4.583
				L808.256,1636.15z"/>
			<path style="fill:#D4D4D4;" d="M1366.607,1617.158l3.355,18.992c-29.053,0-60.768,0-93.863,0l0.265,3.894
				c34.265,0,67.069,0,97.058,0l-4.042-22.886H1366.607z"/>
			<path style="fill:#D4D4D4;" d="M1468.078,1617.158l5.058,18.992c-22.471,0-50.63,0-82.63,0l0.693,3.894
				c33.153,0,62.275,0,85.397,0l-6.095-22.886H1468.078z"/>
			<path style="fill:#D4D4D4;" d="M1557.343,1617.158h-2.301c2.328,7.587,5.122,15.537,3.418,17.278
				c-2.381,2.444-18.169,1.714-28.434,1.714c0,0-13.396,0-36.381,0l1.032,3.894c24.534,0,38.821,0,38.821,0
				c10.254,0,26.031,0.73,28.434-1.714C1563.915,1636.291,1559.719,1625.684,1557.343,1617.158z"/>
			<path style="fill:#D4D4D4;" d="M801.008,1479.885c-0.497,1.225-1.005,2.505-1.502,3.894h57.143l4.545-15.807
				c-1.614,0-3.074,0-4.587,0l-3.418,11.913H801.008z"/>
		</g>
	</g>
	<g style="opacity:0.8;">
		<g>
			<path style="opacity:0.8;fill:#F5F4F4;" d="M618.15,1726.539c16.545-36.995,31.069-78.633,47.175-115.873
				c15.778-36.5,33.344-92.62,59.577-161.022c-4.233,2-7.641,4.625-10.201,7.923c-4.836,6.223-33.709,81.757-54.789,136.908
				c-12.323,32.235-23.963,62.682-30.291,78.175c-6.307,15.424-12.677,30.815-19.042,46.212l-9.91,23.987
				c0.286,23.68,12.222,34.958,38.434,36.127C618.076,1768.746,606.87,1751.748,618.15,1726.539z"/>
		</g>
	</g>
	<path style="fill:#B2B2B2;" d="M689.304,1762.18c0,5.929-4.81,10.733-10.736,10.733c-5.926,0-10.735-4.804-10.735-10.733
		c0-5.928,4.81-10.732,10.735-10.732C684.495,1751.447,689.304,1756.251,689.304,1762.18z"/>
	<path style="fill:#B2B2B2;" d="M723.087,1762.18c0,5.929-4.809,10.733-10.735,10.733c-5.921,0-10.73-4.804-10.73-10.733
		c0-5.928,4.81-10.732,10.73-10.732C718.277,1751.447,723.087,1756.251,723.087,1762.18z"/>
	<path style="fill:#B2B2B2;" d="M756.87,1762.18c0,5.929-4.805,10.733-10.73,10.733c-5.926,0-10.73-4.804-10.73-10.733
		c0-5.928,4.804-10.732,10.73-10.732C752.066,1751.447,756.87,1756.251,756.87,1762.18z"/>
</g>
<g>
	<g>
		
			<path style="fill:#EDECE5;stroke:#D7D5CE;stroke-width:6.8127;stroke-linecap:round;stroke-linejoin:round;stroke-miterlimit:10;" d="
			M888.399,1181.623c-14.804,0-22.91-4.138-22.91-21.209V795.719c0-17.066,8.106-21.204,22.91-21.204h41.44
			c14.793,0,22.91,4.138,22.91,21.204v364.694c0,17.072-8.117,21.209-22.91,21.209H888.399z"/>
		<g style="opacity:0.7;">
			<path style="fill:#ECE9E8;" d="M936.04,780.238v395.657c3.937-2.127,13.386-6.313,13.386-15.482V795.719
				C949.426,786.55,939.977,782.37,936.04,780.238z"/>
		</g>
		<g style="opacity:0.8;">
			<path style="fill:#F5F4F4;" d="M878.654,777.92c-7.397,0-9.762,4.325-9.762,17.799v364.694c0,13.479,2.366,17.802,9.762,17.802
				h1.947V777.92H878.654z"/>
		</g>
		
			<path style="fill:#EDECE5;stroke:#D7D5CE;stroke-width:6.8127;stroke-linecap:round;stroke-linejoin:round;stroke-miterlimit:10;" d="
			M902.537,1181.623c-4.72,0-7.291-4.138-7.291-21.209V795.719c0-17.066,2.571-21.204,7.291-21.204h13.17
			c4.698,0,7.275,4.138,7.275,21.204v364.694c0,17.072-2.576,21.209-7.275,21.209H902.537z"/>
		<g>
			
				<path style="fill:#EDECE5;stroke:#D7D5CE;stroke-width:6.8127;stroke-linecap:round;stroke-linejoin:round;stroke-miterlimit:10;" d="
				M850.4,768.836v53.984c0,19.941,3.079,24.78,22.995,24.78h71.455c19.916,0,22.989-4.839,22.989-24.78v-53.984H850.4z"/>
		</g>
	</g>
	<g>
		
			<path style="fill:#EDECE5;stroke:#D7D5CE;stroke-width:6.8127;stroke-linecap:round;stroke-linejoin:round;stroke-miterlimit:10;" d="
			M1130.49,1181.623c-14.804,0-22.92-4.138-22.92-21.209V795.719c0-17.066,8.116-21.204,22.92-21.204h41.429
			c14.805,0,22.91,4.138,22.91,21.204v364.694c0,17.072-8.105,21.209-22.91,21.209H1130.49z"/>
		<g style="opacity:0.7;">
			<path style="fill:#ECE9E8;" d="M1178.083,780.238v395.657c3.942-2.127,13.381-6.313,13.381-15.482V795.719
				C1191.464,786.55,1182.025,782.37,1178.083,780.238z"/>
		</g>
		<g style="opacity:0.8;">
			<path style="fill:#F5F4F4;" d="M1120.692,777.92c-7.386,0-9.757,4.325-9.757,17.799v364.694c0,13.479,2.37,17.802,9.757,17.802
				h1.963V777.92H1120.692z"/>
		</g>
		
			<path style="fill:#EDECE5;stroke:#D7D5CE;stroke-width:6.8127;stroke-linecap:round;stroke-linejoin:round;stroke-miterlimit:10;" d="
			M1144.58,1181.623c-4.709,0-7.296-4.138-7.296-21.209V795.719c0-17.066,2.587-21.204,7.296-21.204h13.17
			c4.704,0,7.28,4.138,7.28,21.204v364.694c0,17.072-2.576,21.209-7.28,21.209H1144.58z"/>
		<g>
			
				<path style="fill:#EDECE5;stroke:#D7D5CE;stroke-width:6.8127;stroke-linecap:round;stroke-linejoin:round;stroke-miterlimit:10;" d="
				M1092.485,768.836v53.984c0,19.941,3.069,24.78,22.99,24.78h71.455c19.921,0,22.995-4.839,22.995-24.78v-53.984H1092.485z"/>
		</g>
	</g>
	<g>
		
			<path style="fill:#EDECE5;stroke:#D7D5CE;stroke-width:6.8127;stroke-linecap:round;stroke-linejoin:round;stroke-miterlimit:10;" d="
			M1372.105,1181.623c-14.805,0-22.91-4.138-22.91-21.209V795.719c0-17.066,8.105-21.204,22.91-21.204h41.434
			c14.805,0,22.916,4.138,22.916,21.204v364.694c0,17.072-8.111,21.209-22.916,21.209H1372.105z"/>
		<g style="opacity:0.7;">
			<path style="fill:#ECE9E8;" d="M1419.703,780.238v395.657c3.931-2.127,13.386-6.313,13.386-15.482V795.719
				C1433.089,786.55,1423.634,782.37,1419.703,780.238z"/>
		</g>
		<g style="opacity:0.8;">
			<path style="fill:#F5F4F4;" d="M1362.306,777.92c-7.381,0-9.746,4.325-9.746,17.799v364.694c0,13.479,2.365,17.802,9.746,17.802
				h1.958V777.92H1362.306z"/>
		</g>
		
			<path style="fill:#EDECE5;stroke:#D7D5CE;stroke-width:6.8127;stroke-linecap:round;stroke-linejoin:round;stroke-miterlimit:10;" d="
			M1386.189,1181.623c-4.714,0-7.281-4.138-7.281-21.209V795.719c0-17.066,2.567-21.204,7.281-21.204h13.169
			c4.704,0,7.286,4.138,7.286,21.204v364.694c0,17.072-2.582,21.209-7.286,21.209H1386.189z"/>
		
			<path style="fill:#EDECE5;stroke:#D7D5CE;stroke-width:6.8127;stroke-linecap:round;stroke-linejoin:round;stroke-miterlimit:10;" d="
			M1334.105,768.836v53.984c0,19.941,3.074,24.78,22.99,24.78h71.455c19.921,0,22.995-4.839,22.995-24.78v-53.984H1334.105z"/>
	</g>
	<path style="opacity:0.7;fill:#ECE9E8;" d="M853.796,772.227h110.635v30.246c-36.857,0-73.778,0.071-110.635,0.135V772.227z"/>
	<rect x="1095.913" y="772.227" style="opacity:0.7;fill:#ECE9E8;" width="110.572" height="30.317"/>
	<path style="opacity:0.7;fill:#ECE9E8;" d="M1448.137,772.227v32.36c-36.862-0.135-73.783-0.886-110.641-1.431v-30.929H1448.137z"
		/>
	<g>
		
			<path style="fill:#EDECE5;stroke:#D7D5CE;stroke-width:6.4952;stroke-linecap:round;stroke-linejoin:round;stroke-miterlimit:10;" d="
			M820.209,1179.202c0-9.336,3.809-14.455,19.513-14.455h622.954c15.719,0,19.524,5.12,19.524,14.455v26.127
			c0,9.338-3.805,14.455-19.524,14.455H839.722c-15.704,0-19.513-5.117-19.513-14.455V1179.202z"/>
		<g style="opacity:0.7;">
			<path style="fill:#ECE9E8;" d="M824.071,1174.742h654.261c-0.936-4.077-4.09-6.897-15.656-6.897H839.722
				C828.166,1167.844,825.003,1170.665,824.071,1174.742z"/>
		</g>
	</g>
	<g>
		
			<path style="fill:#EDECE5;stroke:#D7D5CE;stroke-width:6.4952;stroke-linecap:round;stroke-linejoin:round;stroke-miterlimit:10;" d="
			M756.976,1234.236c0-9.333,4.545-14.452,23.254-14.452h741.955c18.703,0,23.233,5.119,23.233,14.452v26.133
			c0,9.338-4.53,14.453-23.233,14.453H780.23c-18.709,0-23.254-5.114-23.254-14.453V1234.236z"/>
		<g style="opacity:0.7;">
			<path style="fill:#ECE9E8;" d="M1542.518,1244.409v-10.172c0-6.465-1.529-11.812-20.333-11.812H780.23
				c-18.82,0-20.35,5.346-20.35,11.812v13.069c7.836-9.349,19.116-11.412,29.804-11.412c36.407,0,72.81-0.257,109.207-0.257
				c45.836,0,91.661,0,137.487,0c101.149,0,202.334,0.569,303.483-0.487c29.196-0.305,58.391-0.799,87.582-1.598
				c22.911-0.632,45.847-0.99,68.746-0.209C1504.047,1233.615,1541.666,1232.974,1542.518,1244.409z"/>
		</g>
	</g>
	
		<path style="fill:#EDECE5;stroke:#D7D5CE;stroke-width:6.8127;stroke-linecap:round;stroke-linejoin:round;stroke-miterlimit:10;" d="
		M1544.243,783.606c8.212-14.77-4.207-23.828-9.672-29.4c-72.889-74.175-147.064-141.506-218.895-216.723
		c-41.148-43.085-124.349-130.776-124.884-131.333c-24.921-26.191-65.302-26.191-90.212,0
		c-10.979,11.54-21.958,23.066-32.931,34.606c-27.423,28.828-54.81,57.696-82.244,86.505
		c-33.429,35.109-66.878,70.198-100.243,105.37c-30.529,32.188-61.09,64.331-91.768,96.371
		c-10.561,11.032-19.73,18.677-30.397,29.608c-9.751,9.995-8.116,27.108,5.027,28.336c27.751,2.59,44.428,2.103,70.238,2.05
		c66.487-0.127,132.958-0.206,199.445-0.138c76.223,0.074,152.44,0.053,228.662,0.011c65.186-0.032,130.594,2.177,195.794,2.182
		c23.296,0,47.699,4.055,70.768-0.624C1537.312,789.539,1542.074,787.495,1544.243,783.606z"/>
	<g>
		<path style="fill:#BEBEBE;" d="M1187.464,407.668c-11.307-11.437-26.074-17.757-41.773-17.757
			c-16.105,0-31.254,6.601-42.635,18.585l-66.725,70.143c-16.148,16.995-32.291,33.995-48.46,50.971l-19.111,20.069
			c-27.059,28.415-54.117,56.828-81.138,85.299c-30.519,32.191-61.085,64.336-91.768,96.378
			c-5.609,5.863-10.899,10.852-16.037,15.677c-4.667,4.391-9.355,8.804-14.37,13.955c-4.624,4.727-6.492,11.696-4.561,16.952
			c0.852,2.323,2.836,5.182,7.444,5.611c0.91,0.087,1.725,0.138,2.608,0.217c-1.227-4.455,1.587-10.392,4.44-14.934
			c12.349-19.738,27.381-28.855,41.915-45.333c18.571-21.056,39.138-39.402,57.958-60.045
			c20.773-22.762,42.926-44.162,65.281-65.331c21.974-20.807,43.222-47.104,63.492-69.59c22.461-24.897,82.027-86.199,87.726-93.249
			C1138.31,377.652,1185.231,407.004,1187.464,407.668z"/>
	</g>
	
		<path style="fill:#9CC4E0;stroke:#88B6D3;stroke-width:6.7173;stroke-linecap:round;stroke-linejoin:round;stroke-miterlimit:10;" d="
		M1430.047,727.151c5.825-10.476-2.974-16.897-6.857-20.847c-51.677-52.59-104.26-100.326-155.186-153.654
		c-29.17-30.553-88.169-92.719-88.55-93.119c-17.656-18.566-46.291-18.566-63.953,0c-7.783,8.183-15.566,16.357-23.349,24.54
		c-19.439,20.439-38.857,40.908-58.307,61.331c-23.704,24.889-47.413,49.768-71.074,74.709
		c-21.641,22.817-43.313,45.606-65.053,68.32c-7.493,7.825-13.985,13.243-21.556,20.992c-6.915,7.087-5.757,19.219,3.556,20.093
		c19.693,1.836,31.508,1.489,49.805,1.452c47.138-0.087,94.265-0.143,141.397-0.098c54.053,0.055,108.08,0.04,162.122,0.01
		c46.228-0.021,92.587,1.54,138.81,1.548c16.535,0,33.826,2.875,50.191-0.445C1425.142,731.357,1428.512,729.904,1430.047,727.151z"
		/>
	<g style="opacity:0.7;">
		<path style="fill:#ECE9E8;" d="M894.77,715.555c47.788-55.23,108.995-113.442,158.815-166.625
			c36.143-38.59,78.767-91.124,110.328-96.381c-5.175-2.36-10.714-3.585-16.434-3.585c-11.148,0-21.646,4.574-29.55,12.881
			l-93.212,98.011c-19.847,20.841-39.704,41.68-59.508,62.564c-21.651,22.823-43.328,45.616-65.074,68.333
			c-3.979,4.159-7.677,7.643-11.402,11.148c-3.296,3.106-6.614,6.227-10.164,9.868c-3.381,3.458-4.074,8.169-3.026,11.037
			c0.752,2.024,2.259,3.159,4.492,3.368c3.582,0.336,6.884,0.585,10.053,0.791C890.262,723.111,891.654,719.163,894.77,715.555z"/>
	</g>
	
		<path style="fill:#EDECE5;stroke:#D7D5CE;stroke-width:6.8127;stroke-linecap:round;stroke-linejoin:round;stroke-miterlimit:10;" d="
		M1209.925,623.182c0,30.632-24.836,55.468-55.477,55.468c-30.635,0-55.466-24.836-55.466-55.468
		c0-30.638,24.831-55.474,55.466-55.474C1185.088,567.708,1209.925,592.544,1209.925,623.182z"/>
</g>
<g>
	
		<path style="fill:#F9C7A6;stroke:#E3B197;stroke-width:4.5253;stroke-linecap:round;stroke-linejoin:round;stroke-miterlimit:10;" d="
		M657.145,1285.057c33.027-14.547,159.546-15.325,173.286-15.225c34.487,0.246,95.064,48.812,146.228,98.794
		c1.645,1.603-195.154,9.432-204.509,10.386c22.445,7.484,65.46,11.111,84.773,21.302l-211.525,179.601
		c-85.323,29.778-127.857,3.434-127.857,3.434c-28.958-70.947-7.741-221.173-7.73-221.173
		C559.732,1342.827,607.558,1306.901,657.145,1285.057z"/>
	<g style="opacity:0.8;">
		<path style="fill:#F2F0F0;" d="M901.786,1334.906c2.524,4.741,0.831,14.791-4.111,16.719c-16.683,6.503-25.333,6.161-42.847,7.799
			c-22.206,2.082-44.423,4.727-66.709,5.836c-23.503,1.172-38.979,0.99-65.746,5.061c-5.164,0.786-22.28,3.484-27.302,4.91
			c34.762,4.415,77.587,10.791,112.402,14.135c-0.201-0.037-0.392-0.074-0.593-0.112c-13.396-2.55-26.053-4.963-35.45-8.095
			c-1.016-0.339-1.662-1.333-1.534-2.397c0.116-1.058,0.963-1.894,2.021-2.002c3.45-0.352,30.852-1.574,65.545-3.122
			c47.45-2.116,116.461-5.196,134.297-6.63c-62.159-60.177-113.546-94.717-141.344-94.919c-6.122-0.042-16.116,0.014-28.307,0.254
			c19.323,5.637,37.936,13.572,55.27,23.974C877.421,1308.334,890.426,1313.562,901.786,1334.906z"/>
	</g>
	<g>
		
			<path style="fill:#2C98CB;stroke:#2882AD;stroke-width:5.43;stroke-linecap:round;stroke-linejoin:round;stroke-miterlimit:10;" d="
			M653.568,1611.827c0.339,13.791,11.799,24.691,25.587,24.344l371.419-9.289c13.789-0.344,24.688-11.802,24.339-25.593
			l-5.227-209.114c-0.344-13.791-11.799-24.688-25.593-24.344l-371.414,9.292c-13.788,0.344-24.688,11.799-24.349,25.59
			L653.568,1611.827z"/>
		<g style="opacity:0.5;">
			<path style="fill:#E1E0E1;" d="M661.711,1561.621c2.64,22.9,5.492,40.095,28.693,49.074c30.265,11.715,62.116,8.363,94.006,9.336
				c20.561,0.624,42.772,3.397,63.27,5.077c9.397,0.77,21.18,2.291,30.148,4.286l-198.715,4.971
				c-12.772,0.32-23.418-9.812-23.736-22.582l-3.545-141.778C656.902,1499.552,658.245,1531.534,661.711,1561.621z"/>
		</g>
		
			<path style="fill:#F6F6F6;stroke:#F18441;stroke-width:0.1488;stroke-linecap:round;stroke-linejoin:round;stroke-miterlimit:10;" d="
			M700.642,1597.952c1.953,5.032,7.201,8.688,10.566,8.603c0.042-0.003,60.127-1.506,60.466-1.513
			c15.244-0.389,13.587-41.074-1.027-40.709c-0.031,0-59.809,1.495-60.455,1.513
			C698.901,1566.129,696.034,1586.105,700.642,1597.952z"/>
		
			<path style="fill:#F6F6F6;stroke:#F18441;stroke-width:0.0924;stroke-linecap:round;stroke-linejoin:round;stroke-miterlimit:10;" d="
			M828.426,1597.891c0.079,3.163,2.317,5.674,5.005,5.605l190.942-4.775c2.688-0.066,4.799-2.688,4.72-5.849l0,0
			c-0.079-3.167-2.317-5.678-5.005-5.609l-190.942,4.775C830.458,1592.108,828.352,1594.722,828.426,1597.891L828.426,1597.891z"/>
		
			<path style="fill:#F6F6F6;stroke:#F18441;stroke-width:0.0983;stroke-linecap:round;stroke-linejoin:round;stroke-miterlimit:10;" d="
			M801.505,1569.293c0.08,3.164,2.603,5.667,5.641,5.59l215.863-5.397c3.037-0.077,5.434-2.704,5.354-5.868l0,0
			c-0.084-3.164-2.603-5.667-5.64-5.59l-215.863,5.4C803.823,1563.502,801.431,1566.129,801.505,1569.293L801.505,1569.293z"/>
		<g style="opacity:0.4;">
			<path style="fill:#ABABAB;" d="M1026.172,1625.68l24.35-0.609c0.18-0.005,0.37-0.011,0.545-0.053
				c0.905-0.021,1.698-0.114,2.534-0.281c3.566-0.523,6.931-1.947,9.852-4.047c0.212-0.151,0.423-0.299,0.635-0.45
				c0.069-0.074,0.148-0.111,0.211-0.151c1.921-1.534,3.577-3.349,4.9-5.373c0.037-0.037,0.074-0.111,0.106-0.148
				c2.619-3.937,3.92-8.498,3.799-13.241l-5.227-209.098c-0.318-12.772-10.968-22.9-23.746-22.579l-12.699,0.315
				c14.011,4.177,26.424,8.103,28.99,25.386c7.233,48.85,3.773,97.207,4.968,114.519c-0.052,0.765,0,1.487,0.021,2.249
				c0.063,7.095,0.243,14.222,0.635,21.309c0.561,9.257,1.444,18.505,1.238,27.778c-0.19,11.05,2.021,36.839-4.137,49.146
				C1057.76,1621.124,1031.056,1624.356,1026.172,1625.68z"/>
		</g>
		<g>
			
				<path style="fill:#BABEC1;stroke:#9B9D9D;stroke-width:5.43;stroke-linecap:round;stroke-linejoin:round;stroke-miterlimit:10;" d="
				M921.844,1454.84c0.074,3.003,2.571,5.376,5.566,5.302l80.805-2.021c3-0.077,5.376-2.571,5.302-5.574l-1.138-45.492
				c-0.079-3-2.576-5.37-5.571-5.296l-80.804,2.021c-3,0.074-5.371,2.569-5.297,5.566L921.844,1454.84z"/>
			
				<line style="fill:none;stroke:#9B9D9D;stroke-width:5.43;stroke-linecap:round;stroke-linejoin:round;stroke-miterlimit:10;" x1="1010.792" y1="1418.573" x2="922.866" y2="1420.771"/>
			
				<line style="fill:none;stroke:#9B9D9D;stroke-width:5.43;stroke-linecap:round;stroke-linejoin:round;stroke-miterlimit:10;" x1="1011.278" y1="1438.025" x2="923.352" y2="1440.224"/>
			
				<line style="fill:none;stroke:#9B9D9D;stroke-width:5.43;stroke-linecap:round;stroke-linejoin:round;stroke-miterlimit:10;" x1="966.405" y1="1402.769" x2="967.813" y2="1459.131"/>
		</g>
		<g>
			<path style="fill:#F6F6F6;" d="M698.685,1415.639l8.714-0.217c3.719-0.093,6.582,0.336,8.577,1.291
				c3.021,1.453,4.577,4.172,4.672,8.151c0.063,2.421-0.576,4.41-1.91,5.974c-0.725,0.875-1.91,1.743-3.572,2.6
				c4.688,1.188,7.09,4.201,7.207,9.04c0.111,4.243-1.233,7.259-4.016,9.039c-2.09,1.318-5.276,2.03-9.556,2.138l-9.159,0.23
				c-0.476,0.01-0.799-0.053-0.953-0.199c-0.153-0.145-0.233-0.46-0.243-0.944l-0.9-35.905
				C697.526,1416.057,697.907,1415.658,698.685,1415.639z M705.452,1431.279l1.725-0.042c4.058-0.104,6.042-1.902,5.958-5.4
				c-0.084-3.127-1.942-4.648-5.588-4.558l-2.344,0.061L705.452,1431.279z M705.865,1447.864l2.011-0.05
				c2.27-0.059,3.915-0.416,4.942-1.072c1.397-0.857,2.064-2.362,2.011-4.521c-0.053-2.124-0.778-3.576-2.175-4.36
				c-1.058-0.571-2.703-0.828-4.936-0.77l-2.116,0.053L705.865,1447.864z"/>
			<path style="fill:#F6F6F6;" d="M749.817,1451.626l-4.201,1.836c-0.587,0.164-0.831,0.246-0.719,0.244
				c-0.228,0.005-0.524-0.365-0.894-1.098c-0.371-0.733-0.64-1.471-0.81-2.214c-2.174,2.291-4.566,3.469-7.179,3.535
				c-2.561,0.063-4.625-0.661-6.164-2.167c-1.551-1.508-2.355-3.58-2.418-6.225c-0.106-4.055,1.703-6.857,5.428-8.407
				c2.032-0.831,5-1.294,8.91-1.392l-0.048-1.733c-0.037-1.487-0.334-2.545-0.889-3.161c-0.555-0.621-1.614-0.908-3.18-0.87
				c-1.228,0.031-2.672,0.346-4.333,0.947c-1.662,0.6-2.513,0.902-2.545,0.902c-0.265,0.005-0.455-0.177-0.572-0.545l-1.207-3.378
				c-0.117-0.22-0.18-0.445-0.185-0.67c-0.016-0.63,1.063-1.254,3.223-1.862c2.159-0.614,4.339-0.947,6.54-1.006
				c6.402-0.159,9.682,2.759,9.831,8.749l0.27,10.778c0.048,2.162,0.598,4.564,1.629,7.225
				C750.309,1451.295,750.145,1451.47,749.817,1451.626z M742.034,1446.457l-0.153-6.143c-2.048,0.053-3.54,0.219-4.455,0.502
				c-2.259,0.691-3.36,2.074-3.307,4.159c0.027,1.085,0.403,1.977,1.127,2.683c0.725,0.712,1.614,1.05,2.651,1.024
				C739.272,1448.647,740.653,1447.906,742.034,1446.457z"/>
			<path style="fill:#F6F6F6;" d="M778.087,1431.528l0.487,19.601c0.016,0.523-0.238,0.788-0.762,0.801l-5.524,0.138
				c-0.529,0.014-0.794-0.238-0.805-0.759l-0.434-17.198c-0.074-3.127-1.153-4.664-3.238-4.614c-1.64,0.042-3.26,0.849-4.857,2.41
				l0.487,19.601c0.021,0.524-0.238,0.788-0.762,0.801l-5.524,0.138c-0.524,0.014-0.794-0.238-0.804-0.759l-0.424-16.862
				c-0.079-3.167-0.312-5.431-0.698-6.802c-0.386-1.367-0.582-1.997-0.582-1.883c0-0.262,0.196-0.471,0.603-0.629l4.212-1.503
				c0.328-0.122,0.603-0.18,0.836-0.188c0.587-0.013,1.217,1.254,1.878,3.807c2.799-2.64,5.614-3.995,8.449-4.066
				C775.463,1423.441,777.95,1426.097,778.087,1431.528z"/>
			<path style="fill:#F6F6F6;" d="M799.484,1435.912l10.465,11.976c0.349,0.326,0.519,0.601,0.524,0.823
				c0.005,0.222-0.085,0.391-0.27,0.51l-4.709,2.744c-0.265,0.156-0.482,0.238-0.667,0.24c-0.148,0.003-0.381-0.18-0.688-0.542
				l-10.625-13.087l0.307,12.172c0.01,0.523-0.243,0.788-0.762,0.801l-5.529,0.138c-0.523,0.013-0.788-0.238-0.804-0.759
				l-0.936-37.524c-0.011-0.524,0.328-0.863,1.037-1.034l4.667-1.064c0.328-0.122,0.63-0.185,0.884-0.193
				c0.301-0.005,0.46,0.381,0.481,1.164l0.55,22.111l10.45-11.1c0.291-0.381,0.545-0.572,0.767-0.577
				c0.191-0.005,0.529,0.19,1.021,0.587l2.852,2.219c0.19,0.183,0.286,0.384,0.291,0.609c0.005,0.146-0.154,0.394-0.482,0.739
				L799.484,1435.912z"/>
		</g>
		<path style="opacity:0.3;fill:#ABABAB;" d="M650.139,1402.676l0.138,5.103l394.583,213.66c3.862-1.246,8.021-2.373,10.762-4.252
			L650.727,1396.98C650.298,1398.801,650.097,1400.721,650.139,1402.676z"/>
		<path style="opacity:0.3;fill:#ABABAB;" d="M653.875,1389.583l407.292,223.527c3.244-3.396,5.418-9.86,6.085-22.997
			l-387.176-211.36l-7.349,0.185C664.764,1379.136,657.843,1383.329,653.875,1389.583z"/>
	</g>
	<g>
		<g>
			<g>
				
					<path style="fill:#F9C7A6;stroke:#E3B197;stroke-width:4.5253;stroke-linecap:round;stroke-linejoin:round;stroke-miterlimit:10;" d="
					M673.431,1371.171c-1.016,22.146-19.18,43.561-19.18,43.561c59.783,13.688,103.276,33.291,103.276,33.291
					c28.677,7.955,64.984,9.13,94.656,14.13l65.92,7.063c18.641,0.791,50.9,9.167,54.207,23.696
					c12.54,55.047-59.725,49.095-84.926,49.188c-10.72,0.037-103.699,9.003-139.148,17.058
					c-37.069,8.624-59.968,18.011-110.371,33.858c-19.376,4.772-42.931,7.243-62.91,5.937c-22.043-1.442-58.222-8.646-70.392-27.638
					l4.931-221.58"/>
			</g>
		</g>
		<path style="fill:#FBD5B5;" d="M922.008,1528.425c1.994,0.976,4.323,1.206,6.524,1.359c4.762,0.328,9.545,0.402,14.317,0.73
			c11.767,0.802,22.058-9.503,22.984-23.005c0.921-13.51-7.873-25.111-19.646-25.915c-3.534-0.243-7.063-0.503-10.598-0.728
			c-5.143-0.33-10.73-2.146-14.423,3.426c-3.429,5.169-5.053,13.476-5.487,19.791c-0.45,6.571-0.444,16.05,3.127,21.519
			C919.675,1526.933,920.781,1527.822,922.008,1528.425z"/>
		
			<path style="fill:none;stroke:#E8BA9C;stroke-width:3.0169;stroke-linecap:round;stroke-linejoin:round;stroke-miterlimit:10;" d="
			M847.764,1483.488c5.254,11.214,2.884,26.344-0.566,37.736"/>
		
			<path style="fill:none;stroke:#E8BA9C;stroke-width:3.0169;stroke-linecap:round;stroke-linejoin:round;stroke-miterlimit:10;" d="
			M833.135,1484.608c0.995,12.177,1.672,25.124-4.37,36.323"/>
		<g style="opacity:0.8;">
			<path style="fill:#F2F0F0;" d="M637.315,1590.819c16.365-5.148,29.979-9.664,41.99-13.648
				c25.185-8.355,43.397-14.394,68.418-20.217c35.212-8.005,128.857-17.079,139.651-17.119c2.101-0.005,4.508,0.026,7.174,0.063
				c20.143,0.283,53.857,0.754,69.116-14.674c7.471-7.556,9.582-18.038,6.445-31.81c-0.556-2.418-2.159-4.696-4.482-6.807
				c3.862,14.979-0.995,31.048-16.852,37.749c-16.545,6.989-39.693,5.265-57.413,5.928c-23.344,0.876-46.629,2.886-69.952,4.225
				c-22.64,1.297-50.879,5.556-73.344,8.95c-24.805,3.749-56.127,15.283-79.9,23.124c-35.122,11.582-64.905,24.087-94.609-10.992
				c-7.059-8.333-12.709-18.479-17.206-28.399c-13.217-29.127-9.667-60.037-13.683-91.481c-2.349-18.429,0.307-36.498-1.915-56.617
				c-0.963-8.73-2.016-18.913-4.201-27.389l-24.704,0.619l-5.042,218.281c10.222,15.363,41.217,24.654,60.709,25.662
				c2.534,0.132,5.074,0.262,7.587,0.428C594.081,1597.936,617.346,1595.74,637.315,1590.819z"/>
		</g>
	</g>
	
		<path style="fill:#EDEDED;stroke:#C6C6C6;stroke-width:4.2395;stroke-linecap:round;stroke-linejoin:round;stroke-miterlimit:10;" d="
		M420.245,1300.932c-8.159-1.429-12.995-0.104-14.513,8.569l-42.609,243.469c-1.523,8.677,2.582,11.564,10.741,12.987
		l127.936,22.391c8.154,1.429,12.995,0.108,14.508-8.563l42.614-243.472c1.519-8.677-2.587-11.561-10.741-12.984L420.245,1300.932z"
		/>
	<g>
		
			<path style="fill:#F3934E;stroke:#F18441;stroke-width:3.0169;stroke-linecap:round;stroke-linejoin:round;stroke-miterlimit:10;" d="
			M278.308,1256.855c-14.232-2.495-22.449-1.545-24.116,7.997l-49.201,281.721c-1.667,9.545,5.73,13.228,19.963,15.714
			l224.763,30.828c14.232,2.492,22.439,1.548,24.111-8.002l46.895-267.932c1.672-9.548-5.725-13.228-19.968-15.72L278.308,1256.855z
			"/>
		<g style="opacity:0.3;">
			<path style="fill:#ABABAB;" d="M473.579,1533.996c4.529-30.114,11.148-59.799,15.703-89.858
				c2.592-17.09,5.958-36.098,9.355-53.05c3.095-15.468,8.264-41.495,9.338-57.278c1.137-16.78,0.207-20.804-16.048-31.762
				l8.466,1.479c11.81,2.066,17.09,4.693,18.217,9.066c0.312,1.198,0.322,2.622,0.048,4.222l-46.894,267.938
				c-1.085,6.201-4.984,9.222-21.688,6.296l-6.455-1.13C472.922,1590.645,470.742,1552.957,473.579,1533.996z"/>
		</g>
		<g>
			<path style="fill:#F2F0EF;" d="M289.149,1260.879c0.455,16.482,1.646,33.029,0.503,49.603
				c-2.619,38.064-15.772,80.347-14.783,118.818c0.899,35.008,8.55,69.458,29.645,98.088c13.064,17.724,25.413,37.005,43.191,49.674
				l-122.392-16.839c-11.804-2.063-17.08-4.69-18.217-9.063c-0.312-1.217-0.333-2.601-0.037-4.23l49.196-281.712
				c1.085-6.204,4.984-9.225,21.693-6.299L289.149,1260.879z"/>
		</g>
	</g>
</g>
</svg>
