<svg width="18" height="18" viewBox="0 0 18 18" fill="none" xmlns="http://www.w3.org/2000/svg">
<path d="M1.125 15.7498H16.875V16.8748H1.125V15.7498ZM15.1875 6.18726C15.3367 6.18726 15.4798 6.128 15.5852 6.02251C15.6907 5.91702 15.75 5.77395 15.75 5.62476V3.93726C15.75 3.82166 15.7143 3.70888 15.6479 3.61427C15.5814 3.51966 15.4875 3.44782 15.3787 3.40851L9.19125 1.15851C9.06766 1.11383 8.93234 1.11383 8.80875 1.15851L2.62125 3.40851C2.51254 3.44782 2.41857 3.51966 2.35214 3.61427C2.28571 3.70888 2.25005 3.82166 2.25 3.93726V5.62476C2.25 5.77395 2.30926 5.91702 2.41475 6.02251C2.52024 6.128 2.66332 6.18726 2.8125 6.18726H3.375V13.4998H2.25V14.6248H15.75V13.4998H14.625V6.18726H15.1875ZM3.375 4.33101L9 2.28351L14.625 4.33101V5.06226H3.375V4.33101ZM10.125 13.4998H7.875V6.18726H10.125V13.4998ZM4.5 6.18726H6.75V13.4998H4.5V6.18726ZM13.5 13.4998H11.25V6.18726H13.5V13.4998Z" fill="white"/>
</svg>
