<svg width="360" height="360" viewBox="0 0 360 360" fill="none" xmlns="http://www.w3.org/2000/svg">
<g clip-path="url(#clip0_3340_18977)">
<path d="M231.826 25.4727C231.826 25.4727 133.77 20.7315 53.9627 75.1095C-25.8436 129.487 14.7068 319.868 41.9718 331.882C69.2367 343.896 174.053 364.747 254.967 329.364C335.881 293.981 362.429 165.881 350.78 129.086C339.131 92.2901 316.507 35.9278 231.826 25.4727Z" fill="#3EAB90"/>
<path opacity="0.7" d="M231.826 25.4727C231.826 25.4727 133.77 20.7315 53.9627 75.1095C-25.8436 129.487 14.7068 319.868 41.9718 331.882C69.2367 343.896 174.053 364.747 254.967 329.364C335.881 293.981 362.429 165.881 350.78 129.086C339.131 92.2901 316.507 35.9278 231.826 25.4727Z" fill="white"/>
<g opacity="0.3">
<path d="M72.1397 234.255C71.6565 231.339 67.9248 225.862 67.9219 225.858C67.883 225.801 65.0592 229.414 64.9073 229.663C63.1476 232.538 61.439 239.128 63.8993 241.99C65.6719 244.052 68.7499 243.841 70.547 241.949C72.383 240.018 72.5501 236.739 72.1397 234.255Z" fill="black"/>
<path d="M86.9928 221.889C85.8063 219.309 81.1493 215.283 80.7771 214.964C83.0451 212.379 85.1633 209.542 87.1483 206.553C88.2852 204.846 89.3767 203.091 90.4495 201.317C90.0809 202.199 89.7576 202.992 89.7231 203.107C88.7856 206.346 88.8778 213.153 92.0069 215.263C94.2619 216.785 97.1736 215.768 98.4077 213.469C99.6677 211.122 98.9635 207.914 97.9116 205.627C96.8446 203.306 92.9422 199.794 91.8975 198.878C92.3021 198.193 92.7132 197.514 93.1143 196.827C95.0417 193.535 96.9511 190.242 98.9232 187.068C99.6173 185.949 100.342 184.873 101.064 183.793C100.736 184.577 100.468 185.241 100.437 185.347C99.4999 188.584 99.5921 195.392 102.721 197.503C104.976 199.024 107.889 198.007 109.122 195.708C110.381 193.36 109.678 190.154 108.625 187.867C107.607 185.652 104.034 182.378 102.798 181.284C103.57 180.2 104.341 179.115 105.138 178.099C105.698 177.419 106.189 176.724 106.79 176.073C107.37 175.414 107.946 174.763 108.515 174.117C109.657 172.915 110.828 171.666 111.972 170.521C112.761 169.719 113.528 168.968 114.299 168.21C113.595 169.316 112.262 171.509 112.171 171.705C110.754 174.763 109.814 181.505 112.587 184.067C114.585 185.911 117.619 185.348 119.186 183.262C120.787 181.132 120.577 177.856 119.884 175.436C119.12 172.771 115.304 168.251 114.823 167.69C116.102 166.44 117.359 165.237 118.563 164.121C119.452 163.292 120.312 162.504 121.143 161.754L119.864 159.783C118.952 160.639 118.005 161.542 117.021 162.501C115.717 163.764 114.349 165.141 112.957 166.567C112.569 166.292 110.358 164.744 108.11 163.558C108.813 160.799 108.172 155.313 108.085 154.606C109.841 154.269 111.553 153.959 113.173 153.691C114.03 153.548 114.845 153.421 115.654 153.295L114.301 151.21C113.797 151.302 113.303 151.39 112.781 151.489C110.996 151.823 109.095 152.217 107.147 152.639C106.885 151.963 104.711 146.447 102.725 144.509C100.923 142.751 98.1377 141.012 95.5025 141.413C92.9235 141.804 90.9888 144.208 91.6663 146.842C92.6059 150.498 98.988 152.867 102.353 153.069C102.552 153.081 104.72 152.969 106.086 152.876C105.291 153.053 104.518 153.216 103.701 153.408C102.084 153.776 100.482 154.191 98.7569 154.632C97.9311 154.874 97.0966 155.118 96.2542 155.365C95.4139 155.592 94.5543 155.939 93.6953 156.224C91.716 156.929 89.7454 157.739 87.7783 158.598C87.4522 157.184 86.2217 152.177 84.6989 150.156C83.1833 148.146 80.695 146.006 78.0303 146.002C75.421 145.998 73.1451 148.081 73.4151 150.787C73.7902 154.543 79.741 157.851 83.0357 158.561C83.2409 158.605 85.663 158.848 86.995 158.956C85.8163 159.482 84.6377 160.002 83.4627 160.572C80.07 162.221 76.6882 163.995 73.3056 165.749C72.2703 166.287 71.2313 166.811 70.1938 167.338C70.0836 166.834 68.7495 160.85 67.0445 158.588C65.5296 156.578 63.0406 154.437 60.3751 154.434C57.7666 154.429 55.4899 156.512 55.7607 159.219C56.1358 162.975 62.0859 166.283 65.3806 166.993C65.629 167.046 69.1138 167.391 70.0051 167.436C67.7191 168.598 65.431 169.735 63.1299 170.764C59.9568 172.189 56.7636 173.411 53.5834 174.366C53.533 174.132 52.1686 167.88 50.4226 165.563C48.907 163.553 46.4179 161.412 43.7532 161.408C41.1447 161.404 38.868 163.487 39.138 166.194C39.5131 169.95 45.4632 173.257 48.7587 173.967C49.0171 174.023 52.7669 174.392 53.4516 174.41C53.2623 174.466 53.0722 174.546 52.8828 174.6C49.4743 175.577 46.05 176.095 42.8201 176.423C40.9438 176.617 39.1387 176.698 37.3819 176.737C37.2473 175.547 36.5712 170.114 35.2306 167.855C33.9454 165.69 31.7062 163.289 29.058 162.993C26.4653 162.702 23.9741 164.522 23.9453 167.242C23.9057 171.017 29.4562 174.958 32.6537 176.025C32.8272 176.083 34.6603 176.477 35.9988 176.745C35.2054 176.752 34.3867 176.772 33.6271 176.762C30.7731 176.732 28.1609 176.528 25.8483 176.33C24.535 176.207 23.3491 176.069 22.2411 175.929C21.5002 174.83 18.456 170.438 16.2651 169.076C14.1267 167.747 11.0335 166.648 8.54665 167.605C6.11161 168.542 4.73929 171.306 5.96761 173.732C7.67113 177.1 14.4139 178.041 17.7439 177.515C18.0319 177.469 22.4499 176.24 22.4117 176.183C22.4117 176.183 22.3764 176.129 22.3678 176.116C23.4312 176.274 24.5724 176.428 25.8238 176.573C28.1364 176.823 30.7507 177.084 33.6149 177.175C36.4783 177.274 39.5909 177.302 42.8727 177.035C46.1623 176.771 49.609 176.325 53.1017 175.408C53.1413 175.398 53.1809 175.381 53.2205 175.371C52.2823 175.957 49.7141 177.683 49.5319 177.837C46.9637 180.021 43.2845 185.749 44.7303 189.237C45.7721 191.748 48.7623 192.508 51.0598 191.271C53.4055 190.008 54.5871 186.945 54.9715 184.457C55.405 181.651 53.7411 175.723 53.6079 175.252C56.9256 174.348 60.2571 173.149 63.5611 171.752C65.4519 170.954 67.3303 170.093 69.2038 169.205C68.4089 169.737 67.7019 170.219 67.6104 170.298C65.0422 172.481 61.3637 178.209 62.8087 181.697C63.8499 184.209 66.8407 184.968 69.1375 183.731C71.484 182.468 72.6648 179.405 73.05 176.916C73.4403 174.392 72.1234 169.31 71.7569 167.97C72.4719 167.621 73.1897 167.281 73.9032 166.931C77.3275 165.248 80.7367 163.554 84.1323 161.994C85.3282 161.444 86.5263 160.947 87.7236 160.444C87.0187 160.918 86.4283 161.323 86.3455 161.393C83.7773 163.577 80.0981 169.305 81.5431 172.792C82.585 175.304 85.5751 176.063 87.8734 174.826C90.2184 173.563 91.3999 170.5 91.7844 168.012C92.1574 165.603 90.9838 160.901 90.5554 159.307C91.7967 158.829 93.0394 158.349 94.2641 157.942C95.1065 157.684 95.8992 157.376 96.7603 157.163C97.6071 156.935 98.4473 156.708 99.2775 156.484C100.894 156.112 102.559 155.717 104.145 155.392C105.246 155.158 106.3 154.956 107.36 154.749C106.164 155.283 103.842 156.377 103.658 156.49C101.752 157.666 99.1313 160.315 97.8468 163.036C97.5639 163.208 97.2982 163.403 97.0519 163.625C95.1166 165.374 94.8293 168.446 96.8475 170.27C99.6483 172.801 106.279 171.255 109.195 169.567C109.368 169.468 111.114 168.179 112.204 167.348C111.638 167.934 111.082 168.496 110.507 169.107C109.362 170.306 108.255 171.537 107.058 172.856C106.503 173.513 105.942 174.177 105.375 174.849C104.8 175.502 104.274 176.265 103.716 176.977C102.454 178.656 101.257 180.419 100.09 182.221C99.0377 181.221 95.2491 177.724 92.8651 176.879C90.492 176.037 87.2355 175.626 85.0107 177.092C82.8319 178.529 82.0824 181.522 83.8003 183.629C86.185 186.555 92.9731 186.032 96.1131 184.806C96.3089 184.729 98.4624 183.597 99.6346 182.952C98.9419 184.04 98.245 185.124 97.5804 186.249C95.6595 189.495 93.817 192.84 91.9644 196.169C91.3971 197.19 90.8203 198.198 90.2465 199.211C89.8757 198.851 85.4621 194.597 82.7923 193.65C80.4199 192.809 77.1627 192.397 74.9379 193.864C72.7599 195.3 72.0096 198.293 73.7283 200.4C76.1136 203.327 82.9011 202.803 86.041 201.577C86.2771 201.484 89.3746 199.85 90.1414 199.396C88.8763 201.625 87.5955 203.837 86.2433 205.965C84.3821 208.903 82.3942 211.685 80.2687 214.236C80.0959 214.068 75.5095 209.607 72.775 208.637C70.4019 207.796 67.1453 207.384 64.9205 208.851C62.7418 210.286 61.993 213.279 63.7109 215.388C66.0955 218.314 72.8837 217.79 76.0236 216.564C76.2699 216.468 79.6013 214.707 80.1816 214.345C80.0556 214.496 79.9411 214.668 79.813 214.817C77.5083 217.512 74.9379 219.834 72.4251 221.889C70.9678 223.086 69.5069 224.148 68.0633 225.151C67.2943 224.233 63.7332 220.073 61.3687 218.929C59.1015 217.833 55.9104 217.065 53.538 218.279C51.2153 219.468 50.1411 222.36 51.6178 224.643C53.6669 227.813 60.4716 228.039 63.7267 227.165C63.9039 227.118 65.6506 226.436 66.9149 225.92C66.2561 226.362 65.5851 226.832 64.9457 227.243C62.5488 228.792 60.2578 230.065 58.2202 231.174C57.0559 231.796 55.9911 232.335 54.9895 232.828C53.7648 232.321 48.8033 230.337 46.2243 230.41C43.7071 230.481 40.5219 231.271 38.9753 233.441C37.4611 235.566 37.8413 238.628 40.2029 239.974C43.4832 241.843 49.6255 238.908 52.1124 236.633C52.3263 236.435 55.3337 232.974 55.2711 232.946C55.2711 232.946 55.2113 232.922 55.1969 232.916C56.1703 232.46 57.2086 231.96 58.3318 231.39C60.3982 230.323 62.7223 229.098 65.1624 227.594C67.6047 226.098 70.2168 224.403 72.8067 222.37C75.4044 220.335 78.0346 218.063 80.4408 215.371C80.4682 215.341 80.4927 215.305 80.5193 215.274C80.0599 216.28 78.8705 219.137 78.8035 219.366C77.8661 222.604 77.9575 229.411 81.0867 231.522C83.3417 233.043 86.2548 232.027 87.4882 229.727C88.7489 227.381 88.044 224.176 86.9928 221.889Z" fill="black"/>
<path d="M36.8753 177.248C36.8738 177.179 32.525 178.635 32.2615 178.758C29.208 180.186 24.1471 184.74 24.6209 188.486C24.9614 191.183 27.6456 192.705 30.1879 192.118C32.7842 191.52 34.7326 188.878 35.76 186.579C36.9674 183.88 36.8746 177.254 36.8753 177.248Z" fill="black"/>
</g>
<g opacity="0.3">
<path d="M226.65 25.0127C228.473 27.3398 234.376 30.353 234.38 30.3559C234.441 30.3868 235.185 25.8623 235.199 25.5715C235.364 22.2047 233.7 15.6031 230.168 14.2718C227.624 13.3135 225.024 14.9759 224.356 17.4981C223.672 20.0743 225.098 23.0306 226.65 25.0127Z" fill="black"/>
<path d="M219.554 42.9912C221.833 44.6853 227.851 45.9828 228.331 46.0836C227.581 49.4402 227.084 52.9452 226.778 56.52C226.599 58.5633 226.484 60.6276 226.394 62.6983C226.295 61.7472 226.198 60.8969 226.172 60.7795C225.441 57.4884 222.093 51.5606 218.335 51.2107C215.626 50.9573 213.56 53.2476 213.58 55.8569C213.601 58.5209 215.758 60.9969 217.778 62.4981C219.829 64.0231 224.937 65.2313 226.294 65.5329C226.268 66.3278 226.233 67.1213 226.21 67.9154C226.099 71.7293 226.004 75.5352 225.797 79.2655C225.725 80.5802 225.605 81.8719 225.49 83.1657C225.401 82.3205 225.318 81.6098 225.294 81.5018C224.563 78.2114 221.216 72.2837 217.457 71.933C214.749 71.6803 212.681 73.9699 212.703 76.5792C212.725 79.2439 214.881 81.7193 216.902 83.2212C218.858 84.6763 223.564 85.8341 225.174 86.2005C225.017 87.5217 224.862 88.8444 224.649 90.1173C224.484 90.9835 224.387 91.8281 224.173 92.6877C223.98 93.5445 223.787 94.392 223.597 95.2315C223.173 96.8342 222.744 98.4917 222.29 100.045C221.982 101.128 221.669 102.154 221.357 103.189C221.445 101.881 221.561 99.3168 221.547 99.1015C221.323 95.7384 218.912 89.3721 215.25 88.4563C212.612 87.7968 210.221 89.7465 209.847 92.3292C209.465 94.9658 211.221 97.7393 212.99 99.5299C214.939 101.501 220.456 103.635 221.147 103.897C220.625 105.607 220.1 107.266 219.58 108.824C219.197 109.978 218.82 111.082 218.452 112.139L220.52 113.254C220.909 112.065 221.306 110.818 221.71 109.506C222.247 107.771 222.787 105.907 223.324 103.987C223.795 104.042 226.479 104.339 229.02 104.301C229.727 107.059 232.923 111.564 233.339 112.142C231.959 113.281 230.607 114.375 229.313 115.386C228.63 115.924 227.977 116.426 227.327 116.925L229.514 118.104C229.913 117.783 230.303 117.468 230.714 117.131C232.119 115.981 233.599 114.723 235.105 113.419C235.66 113.886 240.214 117.683 242.887 118.43C245.312 119.107 248.589 119.295 250.709 117.68C252.784 116.1 253.328 113.062 251.469 111.076C248.89 108.32 242.153 109.304 239.105 110.742C238.925 110.826 237.076 111.964 235.922 112.702C236.534 112.165 237.135 111.651 237.759 111.091C239.001 109.992 240.207 108.859 241.51 107.644C242.118 107.036 242.733 106.421 243.353 105.8C243.982 105.197 244.57 104.481 245.186 103.818C246.585 102.251 247.925 100.594 249.238 98.8956C250.204 99.9799 253.685 103.783 255.991 104.824C258.286 105.861 261.495 106.544 263.835 105.268C266.126 104.02 267.124 101.1 265.588 98.8553C263.456 95.7405 256.648 95.693 253.417 96.6521C253.215 96.7111 250.974 97.6608 249.754 98.2051C250.535 97.1777 251.32 96.1567 252.077 95.0918C254.262 92.0182 256.378 88.8386 258.504 85.6764C259.155 84.7073 259.815 83.7497 260.471 82.7885C260.811 83.1787 264.852 87.7874 267.434 88.9538C269.728 89.9906 272.939 90.6739 275.278 89.3981C277.569 88.1496 278.567 85.23 277.031 82.9857C274.9 79.8703 268.092 79.8235 264.861 80.7818C264.617 80.8538 261.394 82.224 260.591 82.6121C262.039 80.4953 263.501 78.4001 265.025 76.392C267.126 73.6193 269.34 71.015 271.672 68.6498C271.829 68.832 276.026 73.661 278.669 74.8562C280.964 75.893 284.175 76.5763 286.515 75.3005C288.806 74.052 289.803 71.1324 288.267 68.8874C286.135 65.772 279.328 65.7252 276.096 66.6835C275.843 66.7591 272.376 68.2344 271.766 68.5469C271.905 68.4072 272.034 68.2459 272.174 68.1077C274.696 65.615 277.451 63.5169 280.127 61.6795C281.681 60.6081 283.225 59.6714 284.748 58.7937C285.437 59.7737 288.637 64.2161 290.897 65.5545C293.064 66.8369 296.181 67.8686 298.646 66.8577C301.06 65.8685 302.372 63.0763 301.092 60.6765C299.315 57.3458 292.555 56.5517 289.237 57.15C289.057 57.1824 287.26 57.7166 285.957 58.1234C286.65 57.7375 287.358 57.3264 288.029 56.9707C290.548 55.6272 292.937 54.5515 295.061 53.6162C296.273 53.0949 297.379 52.6464 298.418 52.2381C299.596 52.8465 304.374 55.2391 306.95 55.3831C309.463 55.5221 312.705 55.0029 314.427 52.9689C316.113 50.9774 315.991 47.8944 313.749 46.3557C310.638 44.2181 304.271 46.6286 301.602 48.6885C301.372 48.8671 298.085 52.0646 298.146 52.097C298.146 52.097 298.203 52.1273 298.217 52.1345C297.209 52.5067 296.133 52.9185 294.966 53.3916C292.817 54.2822 290.399 55.3082 287.842 56.6021C285.282 57.8887 282.538 59.3589 279.787 61.1676C277.027 62.9777 274.217 65.0225 271.593 67.5036C271.564 67.5317 271.536 67.5648 271.507 67.5929C272.049 66.6288 273.475 63.8827 273.56 63.6595C274.765 60.5117 275.244 53.7206 272.302 51.354C270.183 49.6505 267.195 50.4187 265.773 52.6068C264.321 54.8417 264.754 58.0946 265.611 60.4627C266.577 63.1325 270.881 67.5345 271.225 67.8845C268.748 70.2698 266.401 72.9194 264.172 75.731C262.896 77.3381 261.662 78.9955 260.444 80.6731C260.885 79.8242 261.275 79.0625 261.317 78.9494C262.523 75.8009 263.002 69.0113 260.06 66.6446C257.941 64.9397 254.952 65.7093 253.531 67.8974C252.079 70.1316 252.513 73.3853 253.369 75.7526C254.238 78.1545 257.832 81.9821 258.796 82.9814C258.336 83.6301 257.869 84.2731 257.411 84.9225C255.215 88.0416 253.037 91.1642 250.806 94.1616C250.021 95.2185 249.209 96.2301 248.399 97.2446C248.79 96.4908 249.113 95.8521 249.153 95.7506C250.358 92.6021 250.837 85.8117 247.896 83.4458C245.776 81.7416 242.788 82.5098 241.366 84.6986C239.914 86.9321 240.347 90.1872 241.204 92.5538C242.033 94.8463 245.32 98.4089 246.46 99.6019C245.6 100.617 244.741 101.634 243.861 102.579C243.246 103.211 242.698 103.861 242.045 104.46C241.412 105.067 240.784 105.669 240.162 106.264C238.923 107.366 237.652 108.513 236.417 109.558C235.563 110.292 234.735 110.975 233.905 111.666C234.698 110.623 236.21 108.549 236.318 108.361C237.426 106.415 238.453 102.834 238.275 99.8301C238.44 99.5436 238.58 99.2448 238.689 98.9316C239.548 96.4678 238.326 93.6345 235.68 93.0031C232.008 92.1269 226.933 96.6643 225.184 99.545C225.08 99.715 224.166 101.684 223.61 102.936C223.824 102.15 224.042 101.39 224.253 100.579C224.682 98.9777 225.063 97.3663 225.48 95.6347C225.652 94.7916 225.825 93.9398 226 93.0794C226.192 92.2305 226.287 91.3089 226.435 90.4154C226.736 88.3368 226.94 86.2157 227.099 84.0744C228.503 84.4466 233.505 85.6973 236.002 85.2941C238.487 84.8937 241.542 83.6913 242.79 81.3377C244.012 79.0322 243.233 76.0464 240.714 75.0218C237.218 73.5991 231.513 77.3157 229.347 79.8977C229.212 80.0589 227.866 82.0865 227.148 83.2147C227.233 81.9273 227.324 80.6421 227.368 79.3361C227.495 75.5669 227.507 71.748 227.535 67.937C227.543 66.7699 227.565 65.6078 227.583 64.4436C228.081 64.5811 233.995 66.1961 236.791 65.7453C239.276 65.3443 242.332 64.1426 243.58 61.7882C244.801 59.4828 244.023 56.4977 241.504 55.4731C238.007 54.0504 232.303 57.7663 230.136 60.3489C229.974 60.5433 228.041 63.4644 227.586 64.2305C227.626 61.6673 227.689 59.1127 227.853 56.5963C228.076 53.1252 228.486 49.7311 229.126 46.4731C229.359 46.5379 235.523 48.2501 238.388 47.7885C240.873 47.3875 243.928 46.1865 245.176 43.8314C246.398 41.5267 245.619 38.5409 243.1 37.5163C239.604 36.0936 233.9 39.8102 231.733 42.3929C231.563 42.5959 229.486 45.7394 229.15 46.3349C229.188 46.1412 229.206 45.9367 229.247 45.7437C229.975 42.2733 231.116 39.0031 232.335 35.9935C233.039 34.2439 233.811 32.6109 234.596 31.0385C235.711 31.4748 240.831 33.4152 243.455 33.2841C245.97 33.1589 249.139 32.2999 250.637 30.0967C252.104 27.9396 251.659 24.8861 249.268 23.5915C245.948 21.7937 239.871 24.8609 237.434 27.1893C237.3 27.3161 236.096 28.7525 235.234 29.8116C235.6 29.1074 235.963 28.3737 236.328 27.7063C237.687 25.1964 239.087 22.9809 240.342 21.0297C241.065 19.9253 241.74 18.9417 242.382 18.0281C243.7 17.8848 249.005 17.2447 251.232 15.9437C253.407 14.6736 255.822 12.4517 256.137 9.80566C256.446 7.21438 254.642 4.71094 251.924 4.6627C248.149 4.59646 244.169 10.1196 243.079 13.3092C242.986 13.5849 242.009 18.0655 242.078 18.059C242.078 18.059 242.142 18.0518 242.157 18.0504C241.522 18.9173 240.851 19.8547 240.139 20.8929C238.838 22.8204 237.387 25.0106 235.968 27.5011C234.543 29.9865 233.065 32.7261 231.769 35.753C230.466 38.7842 229.249 42.0408 228.43 45.5573C228.421 45.5969 228.416 45.6401 228.407 45.6797C228.327 44.5766 228 41.4993 227.948 41.2661C227.217 37.9757 223.87 32.0479 220.112 31.6973C217.404 31.4453 215.336 33.7349 215.357 36.3441C215.378 39.0146 217.534 41.4893 219.554 42.9912Z" fill="black"/>
<path d="M284.946 58.105C284.981 58.1648 288.097 54.801 288.27 54.5663C290.263 51.8483 292.518 45.4244 290.306 42.3658C288.713 40.1626 285.627 40.1158 283.678 41.851C281.687 43.6222 281.246 46.8745 281.448 49.3844C281.683 52.3306 284.944 58.1 284.946 58.105Z" fill="black"/>
</g>
<path d="M244.062 199.512L184.767 169.574L245.082 49.3672L304.378 79.3055L244.062 199.512Z" fill="#3EAB90" stroke="#263238" stroke-miterlimit="10"/>
<path d="M291.215 91.0777C287.265 89.0825 285.679 84.2629 287.674 80.3122C287.825 80.012 287.998 79.7305 288.181 79.4576L254.135 62.2676C254.024 62.5765 253.9 62.8825 253.748 63.1827C251.753 67.1341 246.933 68.7195 242.982 66.7244C242.832 66.6488 242.693 66.5617 242.551 66.4789L197.032 157.377C197.184 157.443 197.337 157.503 197.486 157.578C201.437 159.573 203.023 164.393 201.028 168.344C200.876 168.644 200.703 168.925 200.521 169.198L234.567 186.388C234.677 186.079 234.801 185.774 234.953 185.473C236.948 181.522 241.768 179.936 245.719 181.931C246.02 182.083 246.301 182.256 246.574 182.438L292.131 91.4636C291.822 91.3534 291.516 91.2296 291.215 91.0777ZM238.092 136.21C231.616 132.941 229.017 125.039 232.286 118.563C235.557 112.087 243.457 109.487 249.934 112.757C256.41 116.027 259.009 123.928 255.74 130.404C252.469 136.88 244.569 139.48 238.092 136.21Z" fill="white" stroke="#263238" stroke-miterlimit="10" stroke-linecap="round" stroke-linejoin="round"/>
<path d="M243.237 199.77L187.53 163.589L260.504 50.6172L316.21 86.7979L243.237 199.77Z" fill="#3EAB90" stroke="#263238" stroke-miterlimit="10"/>
<path d="M301.851 97.0758C298.139 94.6652 297.084 89.7015 299.495 85.9899C299.678 85.7077 299.88 85.4463 300.092 85.1951L268.106 64.4209C267.963 64.7161 267.806 65.007 267.623 65.2892C265.213 69.0008 260.249 70.0556 256.537 67.6451C256.397 67.5536 256.268 67.4521 256.135 67.3542L201.045 152.792C201.188 152.874 201.334 152.95 201.474 153.041C205.186 155.452 206.24 160.416 203.83 164.127C203.647 164.409 203.444 164.671 203.233 164.922L235.218 185.696C235.362 185.401 235.519 185.11 235.701 184.828C238.112 181.116 243.076 180.062 246.787 182.472C247.069 182.655 247.331 182.858 247.582 183.069L302.718 97.5596C302.424 97.4149 302.133 97.2587 301.851 97.0758ZM244.154 136.193C238.07 132.241 236.341 124.105 240.293 118.021C244.244 111.936 252.38 110.207 258.464 114.159C264.549 118.111 266.278 126.247 262.326 132.331C258.374 138.415 250.238 140.144 244.154 136.193Z" fill="white" stroke="#263238" stroke-miterlimit="10" stroke-linecap="round" stroke-linejoin="round"/>
<path d="M242.148 199.965L191.984 156.423L279.891 54.6377L330.054 98.1804L242.148 199.965Z" fill="#3EAB90" stroke="#263238" stroke-miterlimit="10"/>
<path d="M314.41 106.372C311.068 103.47 310.71 98.4095 313.611 95.0665C313.832 94.8124 314.069 94.5812 314.313 94.3616L285.511 69.3604C285.328 69.6325 285.133 69.8989 284.912 70.1531C282.01 73.4953 276.948 73.8532 273.606 70.9516C273.479 70.8414 273.366 70.7233 273.248 70.6074L206.864 147.598C206.995 147.699 207.128 147.795 207.255 147.904C210.598 150.806 210.955 155.867 208.054 159.21C207.834 159.464 207.597 159.694 207.354 159.914L236.156 184.915C236.339 184.643 236.534 184.376 236.755 184.123C239.656 180.78 244.718 180.423 248.061 183.324C248.315 183.544 248.545 183.781 248.765 184.025L315.205 106.97C314.931 106.788 314.664 106.593 314.41 106.372ZM251.855 137.127C246.376 132.372 245.79 124.075 250.545 118.596C255.301 113.118 263.597 112.531 269.077 117.287C274.555 122.043 275.142 130.34 270.386 135.819C265.631 141.297 257.334 141.883 251.855 137.127Z" fill="white" stroke="#263238" stroke-miterlimit="10" stroke-linecap="round" stroke-linejoin="round"/>
<path d="M242.002 203.235L198.11 153.377L298.835 64.2578L342.726 114.116L242.002 203.235Z" fill="#3EAB90" stroke="#263238" stroke-miterlimit="10"/>
<path d="M326.127 120.142C323.203 116.82 323.525 111.756 326.847 108.832C327.1 108.609 327.365 108.412 327.636 108.228L302.434 79.6005C302.217 79.846 301.987 80.0843 301.735 80.3061C298.413 83.2307 293.349 82.9081 290.425 79.5861C290.314 79.4601 290.217 79.3276 290.116 79.1973L214.035 146.623C214.152 146.74 214.27 146.853 214.381 146.979C217.306 150.301 216.984 155.365 213.661 158.289C213.408 158.512 213.144 158.709 212.872 158.893L238.074 187.521C238.291 187.275 238.521 187.037 238.773 186.815C242.095 183.89 247.158 184.213 250.083 187.535C250.306 187.788 250.502 188.053 250.687 188.324L326.832 120.842C326.588 120.624 326.35 120.395 326.127 120.142ZM260.023 142.259C255.229 136.814 255.757 128.513 261.203 123.719C266.648 118.925 274.949 119.454 279.743 124.899C284.537 130.345 284.008 138.646 278.563 143.439C273.117 148.232 264.816 147.705 260.023 142.259Z" fill="white" stroke="#263238" stroke-miterlimit="10" stroke-linecap="round" stroke-linejoin="round"/>
<path d="M229.13 258.287L352.679 206.657C354.871 205.742 355.905 203.222 354.99 201.03L324.215 127.388C323.3 125.197 320.78 124.162 318.588 125.078L195.039 176.708C192.846 177.623 191.812 180.143 192.728 182.335L223.502 255.977C224.418 258.169 226.938 259.204 229.13 258.287Z" fill="#263238" stroke="#263238" stroke-miterlimit="10" stroke-linecap="round" stroke-linejoin="round"/>
<path d="M208.061 193.02L215.486 196.232C217.31 197.021 219.427 196.183 220.216 194.359L223.428 186.933C224.217 185.11 223.379 182.992 221.555 182.204L214.129 178.991C212.306 178.202 210.188 179.041 209.4 180.865L206.187 188.29C205.399 190.113 206.237 192.231 208.061 193.02Z" fill="white" stroke="#263238" stroke-miterlimit="10"/>
<path d="M327.828 203.51L341.745 197.694L339.339 191.936L325.422 197.752L327.828 203.51Z" fill="white" stroke="#263238" stroke-miterlimit="10"/>
<path d="M309.353 211.234L323.27 205.418L320.863 199.659L306.946 205.475L309.353 211.234Z" fill="white" stroke="#263238" stroke-miterlimit="10"/>
<path d="M290.878 218.953L304.795 213.137L302.388 207.378L288.472 213.194L290.878 218.953Z" fill="white" stroke="#263238" stroke-miterlimit="10"/>
<path d="M272.403 226.673L286.319 220.857L283.913 215.099L269.996 220.915L272.403 226.673Z" fill="white" stroke="#263238" stroke-miterlimit="10"/>
<path d="M253.928 234.391L267.845 228.575L265.438 222.817L251.522 228.632L253.928 234.391Z" fill="white" stroke="#263238" stroke-miterlimit="10"/>
<path d="M235.453 242.112L249.37 236.296L246.964 230.537L233.047 236.353L235.453 242.112Z" fill="white" stroke="#263238" stroke-miterlimit="10"/>
<path d="M305.702 190.212L331.537 179.416C332.752 178.908 333.325 177.512 332.818 176.298L325.23 158.142C324.723 156.927 323.327 156.354 322.112 156.862L296.278 167.657C295.063 168.165 294.49 169.561 294.997 170.776L302.585 188.932C303.092 190.147 304.488 190.72 305.702 190.212Z" fill="white" stroke="#263238" stroke-miterlimit="10"/>
<path d="M251.66 168.266L317.885 140.59L316.481 137.231L250.256 164.907L251.66 168.266Z" fill="white" stroke="#263238" stroke-miterlimit="10"/>
<path d="M231.251 47.2762V271.552C231.251 277.708 226.261 282.697 220.105 282.697H123.198C117.042 282.697 112.052 277.707 112.052 271.551V47.2704C112.052 41.118 117.039 36.1299 123.192 36.1299H164.787L164.822 36.2573C165.859 39.9876 168.246 42.4148 170.892 42.4148H172.41C175.058 42.4148 177.444 39.9876 178.48 36.2573L178.521 36.1299H220.104C226.261 36.1299 231.251 41.1202 231.251 47.2762Z" fill="white" stroke="#263238" stroke-miterlimit="10" stroke-linecap="round" stroke-linejoin="round"/>
<path d="M231.251 101.738V47.2762C231.251 41.1202 226.261 36.1299 220.105 36.1299H178.521L178.481 36.2573C177.444 39.9876 175.058 42.4148 172.411 42.4148H170.893C168.246 42.4148 165.86 39.9876 164.823 36.2573L164.788 36.1299H123.192C117.04 36.1299 112.052 41.1173 112.052 47.2704V101.738H231.251Z" fill="#3EAB90" stroke="#263238" stroke-miterlimit="10"/>
<path d="M206.51 210.054H136.042C132.226 210.054 129.132 206.96 129.132 203.143V181.217C129.132 177.4 132.226 174.307 136.042 174.307H206.51C210.327 174.307 213.421 177.4 213.421 181.217V203.143C213.421 206.96 210.327 210.054 206.51 210.054Z" fill="#3EAB90" stroke="#263238" stroke-miterlimit="10"/>
<path d="M231.251 57.7112V47.2762C231.251 41.1202 226.261 36.1299 220.105 36.1299H178.521L178.481 36.2573C177.444 39.9876 175.058 42.4148 172.411 42.4148H170.893C168.246 42.4148 165.86 39.9876 164.823 36.2573L164.788 36.1299H123.192C117.04 36.1299 112.052 41.1173 112.052 47.2704V57.7112H231.251Z" fill="#DBDBDB" stroke="#263238" stroke-miterlimit="10" stroke-linecap="round" stroke-linejoin="round"/>
<path d="M112.053 269.798V271.552C112.053 277.708 117.043 282.698 123.199 282.698H220.106C226.262 282.698 231.252 277.708 231.252 271.552V269.799H112.053V269.798Z" fill="#DBDBDB" stroke="#263238" stroke-miterlimit="10" stroke-linecap="round" stroke-linejoin="round"/>
<path d="M238.831 100.843V78.442H236.805V49.7644C236.805 40.0012 228.891 32.0869 219.128 32.0869H124.176C114.413 32.0869 106.499 40.0012 106.499 49.7644V277.646C106.499 287.41 114.413 295.324 124.176 295.324H219.128C228.89 295.324 236.805 287.41 236.805 277.646V119.934H238.831V106.698H236.805V100.843L238.831 100.843ZM231.251 265.019C231.251 274.785 223.333 282.698 213.572 282.698H129.731C119.971 282.698 112.052 274.785 112.052 265.019V53.8028C112.052 44.0425 119.971 36.1297 129.731 36.1297H164.788L164.823 36.2572C165.859 39.9875 168.246 42.4146 170.893 42.4146H172.411C175.058 42.4146 177.444 39.9875 178.481 36.2572L178.521 36.1297H213.572C223.333 36.1297 231.251 44.0425 231.251 53.8028V265.019Z" fill="#3EAB90" stroke="#263238" stroke-miterlimit="10" stroke-linecap="round" stroke-linejoin="round"/>
<path d="M217.71 34.5215H125.594C116.179 34.5215 108.546 42.1542 108.546 51.5704V275.84C108.546 285.255 116.179 292.888 125.594 292.888H217.71C227.126 292.888 234.758 285.255 234.758 275.84V51.5704C234.758 42.1549 227.126 34.5215 217.71 34.5215ZM231.251 265.647C231.251 275.064 223.618 282.698 214.201 282.698H129.103C119.686 282.698 112.052 275.064 112.052 265.647V53.1738C112.052 43.7605 119.684 36.1292 129.097 36.1292H164.788L164.823 36.2567C165.859 39.987 168.246 42.4141 170.893 42.4141H172.411C175.058 42.4141 177.444 39.987 178.481 36.2567L178.521 36.1292H214.201C223.618 36.1292 231.251 43.7627 231.251 53.1796V265.647Z" fill="#263238" stroke="#263238" stroke-miterlimit="10" stroke-linecap="round" stroke-linejoin="round"/>
<path d="M172.948 36.975C172.948 36.0585 172.205 35.3154 171.289 35.3154C170.372 35.3154 169.629 36.0585 169.629 36.975C169.629 37.8916 170.372 38.6346 171.289 38.6346C172.205 38.6346 172.948 37.8916 172.948 36.975Z" fill="white"/>
<path d="M122.647 43.3351C122.647 45.0141 120.762 45.6189 120.754 46.8998V46.9869H122.584V47.5521H120.142V47.0748C120.142 45.2769 122.027 44.9263 122.027 43.3588C122.027 42.7864 121.836 42.484 121.375 42.484C120.921 42.484 120.723 42.8102 120.723 43.3034V43.7966H120.142V43.343C120.142 42.492 120.532 41.9268 121.391 41.9268C122.257 41.926 122.647 42.484 122.647 43.3351Z" fill="#263238"/>
<path d="M125.696 43.3272V43.4704C125.696 44.0436 125.466 44.4496 125.02 44.6167C125.489 44.7916 125.696 45.2136 125.696 45.7701V46.2C125.696 47.0517 125.299 47.6083 124.439 47.6083C123.588 47.6083 123.19 47.051 123.19 46.2V45.8176H123.771V46.2396C123.771 46.7414 123.977 47.0431 124.423 47.0431C124.877 47.0431 125.075 46.7486 125.075 46.1841V45.7543C125.075 45.2049 124.844 44.9428 124.375 44.927H124.041V44.3697H124.407C124.821 44.3539 125.075 44.0911 125.075 43.6058V43.3509C125.075 42.7785 124.876 42.484 124.423 42.484C123.977 42.484 123.771 42.7944 123.771 43.2955V43.582H123.19V43.3272C123.19 42.4754 123.588 41.9268 124.439 41.9268C125.298 41.926 125.696 42.4754 125.696 43.3272Z" fill="#263238"/>
<path d="M126.898 43.748V44.5199H126.301V43.748H126.898ZM126.898 46.78V47.5518H126.301V46.78H126.898Z" fill="#263238"/>
<path d="M128.155 44.2504C128.33 43.948 128.609 43.7889 128.983 43.7889C129.7 43.7889 130.017 44.3138 130.017 45.1094V46.1995C130.017 47.0512 129.612 47.6078 128.761 47.6078C127.909 47.6078 127.512 47.0505 127.512 46.1995V45.8258H128.092V46.2391C128.092 46.7409 128.299 47.0426 128.744 47.0426C129.19 47.0426 129.397 46.7402 129.397 46.2391V45.1569C129.397 44.6558 129.19 44.3534 128.744 44.3534C128.402 44.3534 128.171 44.5442 128.116 44.9503V45.0777H127.535L127.687 41.9824H129.883V42.5397H128.243L128.155 44.2504Z" fill="#263238"/>
<path d="M133.113 43.3192V43.4229H132.533V43.2796C132.533 42.7785 132.326 42.484 131.873 42.484C131.403 42.484 131.196 42.7864 131.196 43.3833V44.6325C131.347 44.2509 131.649 44.0356 132.095 44.0356C132.812 44.0356 133.13 44.5533 133.13 45.3561V46.2C133.13 47.0517 132.707 47.6083 131.856 47.6083C130.996 47.6083 130.575 47.051 130.575 46.2V43.3588C130.575 42.4754 130.973 41.9268 131.856 41.9268C132.716 41.926 133.113 42.4675 133.113 43.3192ZM131.196 45.4036V46.2388C131.196 46.7407 131.402 47.0424 131.856 47.0424C132.302 47.0424 132.516 46.74 132.516 46.2388V45.4036C132.516 44.9025 132.302 44.6001 131.856 44.6001C131.402 44.6001 131.196 44.9025 131.196 45.4036Z" fill="#263238"/>
<path d="M193.919 43.5645H192.347V47.4964H193.919V43.5645Z" fill="#263238"/>
<path d="M196.017 42.7764H194.444V47.496H196.017V42.7764Z" fill="#263238"/>
<path d="M198.114 42.2168H196.541V47.4951H198.114V42.2168Z" fill="#263238"/>
<path d="M200.21 41.2441H198.638V47.4952H200.21V41.2441Z" fill="#263238"/>
<path d="M219.672 47.3876H210.235V41.6211H219.672V47.3876ZM210.76 46.8634H219.148V42.1453H210.76V46.8634Z" fill="#263238"/>
<path d="M216.526 42.7158H211.546V46.2928H216.526V42.7158Z" fill="#263238"/>
<path d="M220.53 43.8262H219.344V45.1848H220.53V43.8262Z" fill="#263238"/>
<path d="M206.777 46.133C206.715 46.133 206.653 46.1172 206.596 46.0833C204.676 44.9421 203.406 46.0012 203.354 46.0459C203.208 46.1733 202.985 46.1568 202.858 46.0106C202.73 45.8637 202.744 45.6441 202.89 45.516C202.958 45.4562 204.581 44.0659 206.957 45.4771C207.124 45.5764 207.18 45.7932 207.08 45.9602C207.013 46.0718 206.896 46.133 206.777 46.133Z" fill="#263238"/>
<path d="M207.486 44.9484C207.425 44.9484 207.363 44.9325 207.306 44.8987C204.529 43.2477 202.663 44.8447 202.644 44.8598C202.498 44.9894 202.276 44.9743 202.147 44.8281C202.018 44.682 202.032 44.4595 202.179 44.3313C202.202 44.3105 204.452 42.383 207.666 44.2925C207.833 44.3918 207.889 44.6085 207.789 44.7756C207.723 44.8872 207.606 44.9484 207.486 44.9484Z" fill="#263238"/>
<path d="M208.132 43.5773C208.07 43.5773 208.008 43.5615 207.952 43.5276C204.435 41.4367 202.097 43.4052 201.999 43.4909C201.852 43.6183 201.63 43.6025 201.502 43.4563C201.374 43.3102 201.389 43.0884 201.535 42.961C201.562 42.9358 204.34 40.5605 208.312 42.9221C208.479 43.0215 208.535 43.2382 208.435 43.4052C208.368 43.5161 208.252 43.5773 208.132 43.5773Z" fill="#263238"/>
<path d="M205.715 46.724C205.715 47.2122 205.319 47.6082 204.83 47.6082C204.342 47.6082 203.946 47.2122 203.946 46.724C203.946 46.2358 204.342 45.8398 204.83 45.8398C205.319 45.8398 205.715 46.2351 205.715 46.724Z" fill="#263238"/>
<path d="M149.54 139.188V137.452C148.335 137.393 147.432 137.004 146.829 136.285C146.226 135.566 145.902 134.458 145.855 132.961L148.54 132.557C148.551 133.166 148.604 133.657 148.698 134.03C148.791 134.405 148.928 134.674 149.11 134.837C149.291 135.001 149.51 135.083 149.768 135.083C150.096 135.083 150.309 134.972 150.409 134.75C150.508 134.528 150.558 134.294 150.558 134.048C150.558 133.463 150.42 132.968 150.145 132.565C149.87 132.161 149.493 131.755 149.014 131.346L147.769 130.276C147.418 129.961 147.099 129.635 146.812 129.302C146.526 128.969 146.295 128.583 146.12 128.144C145.944 127.706 145.857 127.182 145.857 126.574C145.857 125.463 146.175 124.592 146.813 123.96C147.45 123.329 148.307 122.972 149.383 122.89V121.224H150.278V122.873C150.957 122.908 151.5 123.063 151.91 123.338C152.319 123.613 152.626 123.952 152.831 124.356C153.035 124.76 153.176 125.187 153.252 125.637C153.328 126.087 153.372 126.505 153.384 126.891L150.664 127.224C150.653 126.804 150.626 126.435 150.586 126.119C150.545 125.803 150.463 125.56 150.34 125.391C150.218 125.222 150.021 125.143 149.753 125.154C149.461 125.154 149.244 125.277 149.103 125.523C148.963 125.769 148.893 126.014 148.893 126.259C148.893 126.821 149.036 127.274 149.323 127.619C149.61 127.964 149.922 128.288 150.262 128.592L151.455 129.627C151.852 129.99 152.218 130.376 152.551 130.785C152.885 131.195 153.151 131.651 153.349 132.153C153.548 132.657 153.647 133.235 153.647 133.89C153.647 134.51 153.518 135.077 153.261 135.592C153.004 136.107 152.636 136.524 152.156 136.846C151.676 137.168 151.104 137.364 150.437 137.434V139.188H149.54Z" fill="black"/>
<path d="M158.539 137.487C157.58 137.487 156.814 137.297 156.241 136.916C155.667 136.536 155.258 136.01 155.012 135.337C154.766 134.665 154.644 133.896 154.644 133.031C154.655 132.68 154.693 132.338 154.758 132.005C154.822 131.671 154.921 131.362 155.056 131.074C155.191 130.788 155.36 130.536 155.565 130.32C155.77 130.104 156.012 129.926 156.293 129.785C155.93 129.516 155.609 129.127 155.328 128.618C155.047 128.109 154.896 127.463 154.873 126.68C154.86 125.885 154.993 125.201 155.267 124.627C155.541 124.054 155.954 123.616 156.504 123.312C157.053 123.008 157.732 122.855 158.539 122.855C159.357 122.855 160.039 123.01 160.582 123.321C161.126 123.631 161.533 124.069 161.801 124.637C162.07 125.204 162.193 125.885 162.17 126.68C162.158 127.476 162.018 128.127 161.749 128.636C161.48 129.145 161.158 129.528 160.784 129.785C161.065 129.926 161.308 130.104 161.512 130.32C161.717 130.537 161.887 130.788 162.021 131.074C162.156 131.361 162.258 131.671 162.328 132.005C162.399 132.338 162.433 132.68 162.433 133.031C162.456 133.896 162.343 134.665 162.091 135.337C161.839 136.01 161.427 136.536 160.854 136.916C160.281 137.297 159.51 137.487 158.539 137.487ZM158.539 135.329C158.854 135.329 159.082 135.212 159.223 134.978C159.363 134.744 159.451 134.467 159.486 134.145C159.521 133.823 159.539 133.528 159.539 133.259C159.55 132.897 159.536 132.546 159.495 132.207C159.454 131.868 159.363 131.591 159.223 131.374C159.082 131.157 158.854 131.049 158.539 131.049C158.235 131.049 158.012 131.157 157.872 131.374C157.732 131.591 157.641 131.865 157.6 132.198C157.559 132.532 157.539 132.886 157.539 133.259C157.539 133.529 157.556 133.827 157.591 134.154C157.627 134.482 157.717 134.759 157.863 134.987C158.01 135.215 158.235 135.329 158.539 135.329ZM158.539 128.733C158.737 128.733 158.901 128.654 159.03 128.496C159.159 128.338 159.255 128.101 159.319 127.785C159.383 127.47 159.416 127.078 159.416 126.61C159.416 126.131 159.342 125.751 159.196 125.47C159.05 125.189 158.83 125.049 158.538 125.049C158.246 125.049 158.02 125.19 157.863 125.47C157.705 125.751 157.626 126.125 157.626 126.593C157.626 127.061 157.657 127.456 157.722 127.777C157.786 128.099 157.889 128.339 158.029 128.497C158.169 128.654 158.34 128.733 158.539 128.733Z" fill="black"/>
<path d="M167.942 137.522C167.088 137.522 166.374 137.349 165.802 137.004C165.229 136.659 164.796 136.183 164.504 135.575C164.212 134.967 164.065 134.259 164.065 133.452V127.014C164.065 126.184 164.202 125.456 164.477 124.83C164.752 124.205 165.176 123.717 165.75 123.365C166.323 123.014 167.053 122.839 167.942 122.839C168.83 122.839 169.559 123.015 170.126 123.365C170.694 123.716 171.115 124.205 171.389 124.83C171.664 125.456 171.801 126.184 171.801 127.014V133.452C171.801 134.247 171.655 134.952 171.363 135.566C171.07 136.18 170.638 136.66 170.064 137.005C169.491 137.35 168.784 137.522 167.942 137.522ZM167.942 134.908C168.223 134.908 168.424 134.818 168.547 134.637C168.67 134.456 168.746 134.245 168.776 134.005C168.804 133.766 168.82 133.558 168.82 133.383V127.085C168.82 126.886 168.808 126.661 168.785 126.409C168.761 126.158 168.689 125.936 168.565 125.743C168.442 125.55 168.235 125.453 167.943 125.453C167.65 125.453 167.443 125.55 167.32 125.743C167.197 125.936 167.124 126.158 167.1 126.409C167.076 126.661 167.065 126.886 167.065 127.085V133.383C167.065 133.558 167.082 133.766 167.118 134.005C167.153 134.245 167.232 134.455 167.354 134.637C167.477 134.818 167.673 134.908 167.942 134.908Z" fill="black"/>
<path d="M173.573 137.259V134.558H176.275V137.259H173.573Z" fill="black"/>
<path d="M181.625 137.469C180.713 137.469 179.994 137.329 179.467 137.048C178.941 136.767 178.567 136.355 178.345 135.811C178.122 135.268 178.012 134.598 178.012 133.802C178.012 133.767 178.012 133.729 178.012 133.688C178.012 133.647 178.012 133.609 178.012 133.574H180.748C180.748 134.147 180.798 134.571 180.897 134.846C180.997 135.121 181.245 135.258 181.643 135.258C181.912 135.258 182.11 135.177 182.239 135.013C182.368 134.849 182.452 134.56 182.494 134.144C182.535 133.729 182.555 133.159 182.555 132.434V131.171C182.404 131.417 182.172 131.604 181.863 131.733C181.552 131.862 181.205 131.938 180.819 131.961C180.07 131.973 179.468 131.785 179.012 131.399C178.556 131.013 178.229 130.493 178.03 129.838C177.831 129.184 177.731 128.47 177.731 127.698C177.731 126.704 177.857 125.847 178.109 125.128C178.36 124.409 178.773 123.851 179.346 123.452C179.918 123.055 180.679 122.855 181.626 122.855C182.561 122.855 183.316 123.043 183.889 123.417C184.462 123.791 184.88 124.315 185.143 124.987C185.406 125.66 185.538 126.453 185.538 127.364V132.662C185.538 133.586 185.43 134.411 185.213 135.136C184.996 135.861 184.608 136.431 184.047 136.846C183.485 137.261 182.678 137.469 181.625 137.469ZM181.66 129.715C181.894 129.715 182.081 129.651 182.221 129.522C182.362 129.393 182.473 129.271 182.555 129.153V126.838C182.555 126.51 182.531 126.209 182.484 125.935C182.437 125.661 182.35 125.438 182.221 125.268C182.092 125.099 181.893 125.014 181.624 125.014C181.367 125.014 181.174 125.105 181.046 125.285C180.917 125.467 180.832 125.735 180.791 126.093C180.75 126.45 180.73 126.89 180.73 127.417C180.73 127.873 180.745 128.273 180.774 128.618C180.803 128.963 180.882 129.233 181.011 129.425C181.14 129.618 181.356 129.715 181.66 129.715Z" fill="black"/>
<path d="M191.064 137.469C190.151 137.469 189.432 137.329 188.906 137.048C188.38 136.767 188.005 136.355 187.783 135.811C187.561 135.268 187.45 134.598 187.45 133.802C187.45 133.767 187.45 133.729 187.45 133.688C187.45 133.647 187.45 133.609 187.45 133.574H190.187C190.187 134.147 190.236 134.571 190.336 134.846C190.435 135.121 190.684 135.258 191.082 135.258C191.351 135.258 191.549 135.177 191.678 135.013C191.807 134.849 191.891 134.56 191.933 134.144C191.974 133.729 191.994 133.159 191.994 132.434V131.171C191.842 131.417 191.611 131.604 191.301 131.733C190.991 131.862 190.643 131.938 190.257 131.961C189.508 131.973 188.907 131.785 188.451 131.399C187.994 131.013 187.667 130.493 187.468 129.838C187.269 129.184 187.17 128.47 187.17 127.698C187.17 126.704 187.295 125.847 187.547 125.128C187.798 124.409 188.211 123.851 188.784 123.452C189.357 123.055 190.118 122.855 191.064 122.855C192 122.855 192.754 123.043 193.327 123.417C193.9 123.791 194.318 124.315 194.582 124.987C194.844 125.66 194.976 126.453 194.976 127.364V132.662C194.976 133.586 194.868 134.411 194.651 135.136C194.435 135.861 194.047 136.431 193.485 136.846C192.923 137.261 192.116 137.469 191.064 137.469ZM191.099 129.715C191.333 129.715 191.519 129.651 191.66 129.522C191.8 129.393 191.911 129.271 191.993 129.153V126.838C191.993 126.51 191.969 126.209 191.923 125.935C191.876 125.661 191.788 125.438 191.659 125.268C191.53 125.099 191.332 125.014 191.063 125.014C190.806 125.014 190.613 125.105 190.484 125.285C190.355 125.467 190.271 125.735 190.23 126.093C190.189 126.45 190.169 126.89 190.169 127.417C190.169 127.873 190.183 128.273 190.213 128.618C190.241 128.963 190.321 129.233 190.45 129.425C190.578 129.618 190.794 129.715 191.099 129.715Z" fill="black"/>
<path d="M146.099 86.4603V74.3232H150.489V75.2074H147.253V79.7628H149.89V80.6016H147.253V85.6064H150.519V86.4603H146.099Z" fill="black"/>
<path d="M151.658 82.0097V81.1406H154.834V82.0097H151.658Z" fill="black"/>
<path d="M158.041 86.46L155.988 74.323H156.962L158.566 84.1819L160.394 74.5023H161.338L163.211 84.1963L164.694 74.3223H165.653L163.69 86.4593H162.806L160.873 76.4499L158.97 86.4593L158.041 86.46Z" fill="black"/>
<path d="M166.117 86.4603L168.68 74.3232H169.878L172.456 86.4603H171.332L170.733 83.2088H167.842L167.227 86.4603H166.117ZM168.005 82.3844H170.582L169.279 75.8367L168.005 82.3844Z" fill="black"/>
<path d="M173.923 86.4603V74.3232H175.061V85.6064H178.508V86.4603H173.923Z" fill="black"/>
<path d="M179.647 86.4603V74.3232H180.786V85.6064H184.232V86.4603H179.647Z" fill="black"/>
<path d="M185.355 86.4603V74.3232H189.746V75.2074H186.51V79.7628H189.147V80.6016H186.51V85.6064H189.776V86.4603H185.355Z" fill="black"/>
<path d="M192.833 86.4603V75.2074H190.54V74.3232H196.188V75.2074H193.971V86.4603H192.833Z" fill="black"/>
<path d="M159.628 198.026V185.102H163.967C164.744 185.102 165.382 185.248 165.882 185.541C166.382 185.833 166.754 186.259 166.999 186.817C167.243 187.375 167.366 188.053 167.366 188.851C167.366 189.851 167.2 190.613 166.871 191.14C166.541 191.667 166.094 192.031 165.531 192.234C164.967 192.435 164.335 192.537 163.633 192.537H162.484V198.026H159.628ZM162.484 190.543H163.442C163.792 190.543 164.058 190.479 164.24 190.351C164.42 190.224 164.54 190.032 164.599 189.777C164.657 189.522 164.687 189.197 164.687 188.803C164.687 188.473 164.662 188.184 164.615 187.933C164.567 187.683 164.453 187.484 164.272 187.335C164.091 187.187 163.809 187.112 163.426 187.112H162.485L162.484 190.543Z" fill="#263238"/>
<path d="M167.366 198.026L169.808 185.102H173.062L175.471 198.026H172.839L172.408 195.297H170.509L170.062 198.026H167.366ZM170.765 193.59H172.137L171.451 188.548L170.765 193.59Z" fill="#263238"/>
<path d="M177.769 198.026V192.744L175.312 185.102H178.008L179.236 189.187L180.337 185.102H182.922L180.513 192.744V198.026H177.769Z" fill="#263238"/>
<path d="M105.297 49.6257C92.6432 43.9283 79.6731 36.7045 72.0757 24.6409C70.4046 21.9877 69.1107 19.3727 68.2849 18.1221C67.459 19.3727 66.1652 21.9877 64.4941 24.6409C56.8974 36.7045 43.9273 43.9283 31.2733 49.6257C30.7095 49.8791 21.6663 53.0342 21.6699 53.1278C21.6699 53.1357 23.5794 99.9529 37.9707 120.422C50.2611 137.902 64.4106 144.116 68.2849 145.56C72.1592 144.116 86.3094 137.902 98.599 120.422C112.99 99.9529 114.9 53.1357 114.9 53.1278C114.904 53.0334 105.861 49.8791 105.297 49.6257Z" fill="#3EAB90"/>
<path d="M101.315 53.0914C90.0225 48.0067 78.4485 41.5606 71.6683 30.7951C70.1771 28.4278 69.0223 26.0935 68.285 24.9775C67.5477 26.0935 66.3928 28.4278 64.9017 30.7951C58.1229 41.5606 46.5482 48.0067 35.2557 53.0914C34.7531 53.3175 26.6827 56.1334 26.6855 56.2162C26.6855 56.2234 28.3898 98.0028 41.2324 116.269C52.2002 131.869 64.8275 137.414 68.285 138.702C71.7424 137.414 84.3698 131.869 95.3375 116.269C108.18 98.0028 109.884 56.2234 109.884 56.2162C109.888 56.1334 101.818 53.3175 101.315 53.0914Z" fill="white"/>
<path d="M68.5854 114.663C84.6543 114.663 97.6806 101.637 97.6806 85.5679C97.6806 69.499 84.6543 56.4727 68.5854 56.4727C52.5166 56.4727 39.4902 69.499 39.4902 85.5679C39.4902 101.637 52.5166 114.663 68.5854 114.663Z" fill="#263238" stroke="#263238" stroke-miterlimit="10" stroke-linecap="round" stroke-linejoin="round"/>
<path d="M66.7858 94.7044C66.6979 94.7044 66.6101 94.7008 66.5222 94.6936C65.5423 94.6108 64.6574 94.0737 64.1318 93.2407L55.4328 79.4433C54.509 77.9781 54.9482 76.0406 56.4134 75.1168C57.8794 74.1931 59.8162 74.6315 60.7399 76.0975L67.2221 86.3798L85.1458 66.3782C86.3014 65.0879 88.285 64.9799 89.5752 66.1355C90.8654 67.2911 90.9742 69.2747 89.8178 70.565L69.1214 93.6611C68.5238 94.3279 67.6735 94.7044 66.7858 94.7044Z" fill="#3EAB90" stroke="#263238" stroke-miterlimit="10"/>
<path opacity="0.18" d="M77.5837 88.5677C57.7808 95.0701 44.7531 107.469 36.6279 118.377C37.0635 119.084 37.5106 119.766 37.9707 120.421C50.2611 137.901 64.4106 144.116 68.2849 145.559C72.1592 144.116 86.3094 137.901 98.599 120.421C106.776 108.79 110.923 88.6563 112.98 73.4326C104.82 78.0737 93.3582 83.3888 77.5837 88.5677Z" fill="black"/>
<path d="M105.297 49.6257C92.6432 43.9283 79.6731 36.7045 72.0757 24.6409C70.4046 21.9877 69.1107 19.3727 68.2849 18.1221C67.459 19.3727 66.1652 21.9877 64.4941 24.6409C56.8974 36.7045 43.9273 43.9283 31.2733 49.6257C30.7095 49.8791 21.6663 53.0342 21.6699 53.1278C21.6699 53.1357 23.5794 99.9529 37.9707 120.422C50.2611 137.902 64.4106 144.116 68.2849 145.56C72.1592 144.116 86.3094 137.902 98.599 120.422C112.99 99.9529 114.9 53.1357 114.9 53.1278C114.904 53.0334 105.861 49.8791 105.297 49.6257Z" stroke="#263238" stroke-miterlimit="10"/>
<path d="M80.6869 337.532C94.6549 323.564 94.6549 300.918 80.6869 286.95C66.719 272.982 44.0726 272.982 30.1046 286.95C16.1367 300.918 16.1367 323.564 30.1046 337.532C44.0726 351.5 66.719 351.5 80.6869 337.532Z" fill="white" stroke="#263238" stroke-miterlimit="10"/>
<path d="M62.2279 341.495C78.3817 337.716 88.4133 321.557 84.6341 305.403C80.8548 289.249 64.6959 279.218 48.5421 282.997C32.3882 286.776 22.3566 302.935 26.1359 319.089C29.9151 335.243 46.0741 345.274 62.2279 341.495Z" fill="#FAC154" stroke="#263238" stroke-miterlimit="10"/>
<path d="M61.568 339.578L60.5506 334.796C56.9902 335.41 54.1102 334.841 51.9077 333.086C49.7074 331.333 48.0903 328.362 47.0564 324.174L54.0447 321.398C54.4781 323.099 54.9634 324.491 55.4984 325.577C56.0333 326.664 56.6533 327.427 57.3567 327.869C58.0587 328.311 58.873 328.433 59.7997 328.236C60.8609 328.01 61.5183 327.513 61.7653 326.742C62.0144 325.973 62.0446 325.143 61.8545 324.251C61.4823 322.502 60.7666 321.123 59.7097 320.111C58.6527 319.1 57.2933 318.144 55.6337 317.243L50.4634 314.419C49.2711 313.705 48.1803 312.952 47.1881 312.16C46.1945 311.368 45.3363 310.404 44.6105 309.267C43.8848 308.132 43.3441 306.724 42.9862 305.045C42.3008 301.823 42.6831 299.115 44.1346 296.926C45.5861 294.736 47.8282 293.193 50.863 292.296L49.8896 287.719L52.3585 287.194L53.3319 291.771C55.2061 291.48 56.8117 291.578 58.1509 292.063C59.4901 292.549 60.5881 293.283 61.442 294.265C62.2959 295.249 62.9993 296.371 63.5545 297.632C64.1103 298.894 64.5524 300.134 64.8843 301.354L57.7606 303.998C57.4575 302.738 57.1148 301.636 56.7353 300.696C56.3566 299.755 55.8843 299.058 55.3234 298.604C54.7611 298.151 54.0209 298.04 53.1029 298.27C52.1504 298.509 51.5017 299.041 51.1575 299.866C50.8133 300.691 50.7363 301.551 50.9257 302.442C51.2612 304.019 51.9085 305.207 52.8668 306.006C53.8251 306.806 54.8785 307.549 56.0283 308.236L61.0841 311.031C62.4341 311.819 63.7179 312.711 64.9333 313.706C66.1479 314.703 67.202 315.867 68.0948 317.2C68.9868 318.534 69.6341 320.142 70.0352 322.027C70.4218 323.844 70.4045 325.577 69.9848 327.225C69.5643 328.873 68.7601 330.307 67.5685 331.528C66.3769 332.749 64.8555 333.646 63.0065 334.219L64.0347 339.053L61.568 339.578Z" fill="#263238"/>
<path d="M285.817 327.339C294.157 309.433 286.401 288.155 268.494 279.815C250.588 271.475 229.31 279.231 220.97 297.137C212.63 315.044 220.385 336.322 238.292 344.662C256.199 353.002 277.476 345.246 285.817 327.339Z" fill="white" stroke="#263238" stroke-miterlimit="10"/>
<path d="M260.514 341.413C276.629 337.477 286.502 321.221 282.565 305.105C278.629 288.989 262.373 279.117 246.257 283.053C230.141 286.99 220.269 303.246 224.205 319.362C228.142 335.477 244.398 345.35 260.514 341.413Z" fill="#FAC154" stroke="#263238" stroke-miterlimit="10"/>
<path d="M259.565 339.578L258.548 334.796C254.988 335.41 252.107 334.841 249.905 333.086C247.705 331.333 246.088 328.362 245.054 324.174L252.042 321.398C252.475 323.099 252.961 324.491 253.496 325.577C254.031 326.664 254.651 327.427 255.355 327.869C256.057 328.311 256.871 328.433 257.798 328.236C258.859 328.01 259.516 327.513 259.763 326.742C260.012 325.973 260.043 325.143 259.853 324.251C259.48 322.502 258.765 321.123 257.708 320.111C256.651 319.1 255.291 318.144 253.632 317.243L248.461 314.419C247.269 313.705 246.178 312.952 245.186 312.16C244.193 311.368 243.334 310.404 242.609 309.267C241.883 308.132 241.342 306.724 240.984 305.045C240.299 301.823 240.681 299.115 242.133 296.926C243.584 294.736 245.826 293.193 248.861 292.296L247.888 287.719L250.356 287.194L251.33 291.771C253.203 291.48 254.81 291.578 256.149 292.063C257.488 292.549 258.586 293.283 259.44 294.265C260.294 295.249 260.997 296.371 261.552 297.632C262.108 298.894 262.55 300.134 262.882 301.354L255.759 303.998C255.456 302.738 255.113 301.636 254.733 300.696C254.355 299.755 253.882 299.058 253.321 298.604C252.759 298.151 252.019 298.04 251.101 298.27C250.148 298.509 249.5 299.041 249.156 299.866C248.811 300.692 248.734 301.551 248.924 302.442C249.259 304.019 249.906 305.207 250.865 306.006C251.823 306.806 252.876 307.549 254.027 308.236L259.083 311.031C260.433 311.819 261.717 312.711 262.932 313.706C264.147 314.703 265.201 315.867 266.094 317.2C266.986 318.534 267.633 320.142 268.034 322.027C268.421 323.844 268.403 325.577 267.984 327.225C267.563 328.873 266.758 330.307 265.566 331.528C264.375 332.749 262.854 333.646 261.005 334.219L262.033 339.053L259.565 339.578Z" fill="#263238"/>
<path d="M343.784 261.223V259.259" stroke="#263238" stroke-miterlimit="10"/>
<path d="M345.497 256.989H285.365V261.378H345.497V256.989Z" fill="#FFCC3A" stroke="#263238" stroke-miterlimit="10"/>
<path d="M288.025 261.768V259.04" stroke="#263238" stroke-miterlimit="10"/>
<path d="M289.88 257.186V259.914" stroke="#263238" stroke-miterlimit="10"/>
<path d="M341.602 257.403V260.022" stroke="#263238" stroke-miterlimit="10"/>
<path d="M338.765 257.403V259.913" stroke="#263238" stroke-miterlimit="10"/>
<path d="M331.781 257.295V260.459" stroke="#263238" stroke-miterlimit="10"/>
<path d="M294.354 257.622V259.04" stroke="#263238" stroke-miterlimit="10"/>
<path d="M295.445 260.896V258.386" stroke="#263238" stroke-miterlimit="10"/>
<path d="M303.192 257.295V260.459" stroke="#263238" stroke-miterlimit="10"/>
<path d="M316.832 257.622V259.804" stroke="#263238" stroke-miterlimit="10"/>
<path d="M348.131 265.54V263.576" stroke="#263238" stroke-miterlimit="10"/>
<path d="M349.843 261.307H289.712V265.695H349.843V261.307Z" fill="#FFCC3A" stroke="#263238" stroke-miterlimit="10"/>
<path d="M292.372 266.086V263.357" stroke="#263238" stroke-miterlimit="10"/>
<path d="M294.227 261.503V264.23" stroke="#263238" stroke-miterlimit="10"/>
<path d="M345.948 261.721V264.339" stroke="#263238" stroke-miterlimit="10"/>
<path d="M343.111 261.721V264.23" stroke="#263238" stroke-miterlimit="10"/>
<path d="M336.128 261.611V264.776" stroke="#263238" stroke-miterlimit="10"/>
<path d="M298.701 261.939V263.358" stroke="#263238" stroke-miterlimit="10"/>
<path d="M299.792 265.212V262.703" stroke="#263238" stroke-miterlimit="10"/>
<path d="M307.539 261.611V264.776" stroke="#263238" stroke-miterlimit="10"/>
<path d="M321.179 261.939V264.122" stroke="#263238" stroke-miterlimit="10"/>
<path d="M346.605 269.858V267.894" stroke="#263238" stroke-miterlimit="10"/>
<path d="M348.318 265.624H288.187V270.012H348.318V265.624Z" fill="#FFCC3A" stroke="#263238" stroke-miterlimit="10"/>
<path d="M290.847 270.403V267.676" stroke="#263238" stroke-miterlimit="10"/>
<path d="M292.701 265.82V268.548" stroke="#263238" stroke-miterlimit="10"/>
<path d="M344.423 266.038V268.657" stroke="#263238" stroke-miterlimit="10"/>
<path d="M341.587 266.038V268.548" stroke="#263238" stroke-miterlimit="10"/>
<path d="M334.603 265.93V269.094" stroke="#263238" stroke-miterlimit="10"/>
<path d="M297.176 266.258V267.676" stroke="#263238" stroke-miterlimit="10"/>
<path d="M298.267 269.53V267.021" stroke="#263238" stroke-miterlimit="10"/>
<path d="M306.015 265.93V269.094" stroke="#263238" stroke-miterlimit="10"/>
<path d="M319.654 266.258V268.439" stroke="#263238" stroke-miterlimit="10"/>
<path d="M348.138 274.175V272.211" stroke="#263238" stroke-miterlimit="10"/>
<path d="M349.85 269.941H289.719V274.33H349.85V269.941Z" fill="#FFCC3A" stroke="#263238" stroke-miterlimit="10"/>
<path d="M292.379 274.72V271.992" stroke="#263238" stroke-miterlimit="10"/>
<path d="M294.233 270.138V272.866" stroke="#263238" stroke-miterlimit="10"/>
<path d="M345.955 270.355V272.974" stroke="#263238" stroke-miterlimit="10"/>
<path d="M343.118 270.355V272.865" stroke="#263238" stroke-miterlimit="10"/>
<path d="M336.135 270.246V273.411" stroke="#263238" stroke-miterlimit="10"/>
<path d="M298.708 270.574V271.993" stroke="#263238" stroke-miterlimit="10"/>
<path d="M299.799 273.848V271.338" stroke="#263238" stroke-miterlimit="10"/>
<path d="M307.547 270.246V273.411" stroke="#263238" stroke-miterlimit="10"/>
<path d="M321.187 270.574V272.757" stroke="#263238" stroke-miterlimit="10"/>
<path d="M343.784 278.492V276.528" stroke="#263238" stroke-miterlimit="10"/>
<path d="M345.497 274.259H285.365V278.647H345.497V274.259Z" fill="#FFCC3A" stroke="#263238" stroke-miterlimit="10"/>
<path d="M288.025 279.039V276.311" stroke="#263238" stroke-miterlimit="10"/>
<path d="M289.88 274.455V277.183" stroke="#263238" stroke-miterlimit="10"/>
<path d="M341.602 274.673V277.292" stroke="#263238" stroke-miterlimit="10"/>
<path d="M338.765 274.673V277.183" stroke="#263238" stroke-miterlimit="10"/>
<path d="M331.781 274.564V277.729" stroke="#263238" stroke-miterlimit="10"/>
<path d="M294.354 274.893V276.311" stroke="#263238" stroke-miterlimit="10"/>
<path d="M295.445 278.165V275.655" stroke="#263238" stroke-miterlimit="10"/>
<path d="M303.192 274.564V277.729" stroke="#263238" stroke-miterlimit="10"/>
<path d="M316.832 274.893V277.075" stroke="#263238" stroke-miterlimit="10"/>
<path d="M343.784 282.811V280.847" stroke="#263238" stroke-miterlimit="10"/>
<path d="M345.497 278.577H285.365V282.966H345.497V278.577Z" fill="#FFCC3A" stroke="#263238" stroke-miterlimit="10"/>
<path d="M288.025 283.356V280.628" stroke="#263238" stroke-miterlimit="10"/>
<path d="M289.88 278.773V281.502" stroke="#263238" stroke-miterlimit="10"/>
<path d="M341.602 278.991V281.61" stroke="#263238" stroke-miterlimit="10"/>
<path d="M338.765 278.991V281.501" stroke="#263238" stroke-miterlimit="10"/>
<path d="M331.781 278.883V282.047" stroke="#263238" stroke-miterlimit="10"/>
<path d="M294.354 279.21V280.628" stroke="#263238" stroke-miterlimit="10"/>
<path d="M295.445 282.484V279.974" stroke="#263238" stroke-miterlimit="10"/>
<path d="M303.192 278.883V282.047" stroke="#263238" stroke-miterlimit="10"/>
<path d="M316.832 279.21V281.392" stroke="#263238" stroke-miterlimit="10"/>
<path d="M343.784 287.128V285.164" stroke="#263238" stroke-miterlimit="10"/>
<path d="M345.497 282.895H285.365V287.283H345.497V282.895Z" fill="#FFCC3A" stroke="#263238" stroke-miterlimit="10"/>
<path d="M288.025 287.673V284.945" stroke="#263238" stroke-miterlimit="10"/>
<path d="M289.88 283.091V285.818" stroke="#263238" stroke-miterlimit="10"/>
<path d="M341.602 283.309V285.927" stroke="#263238" stroke-miterlimit="10"/>
<path d="M338.765 283.309V285.818" stroke="#263238" stroke-miterlimit="10"/>
<path d="M331.781 283.199V286.364" stroke="#263238" stroke-miterlimit="10"/>
<path d="M294.354 283.527V284.946" stroke="#263238" stroke-miterlimit="10"/>
<path d="M295.445 286.8V284.291" stroke="#263238" stroke-miterlimit="10"/>
<path d="M303.192 283.199V286.364" stroke="#263238" stroke-miterlimit="10"/>
<path d="M316.832 283.527V285.71" stroke="#263238" stroke-miterlimit="10"/>
<path d="M348.486 291.446V289.481" stroke="#263238" stroke-miterlimit="10"/>
<path d="M350.199 287.212H290.067V291.6H350.199V287.212Z" fill="#FFCC3A" stroke="#263238" stroke-miterlimit="10"/>
<path d="M292.728 291.991V289.264" stroke="#263238" stroke-miterlimit="10"/>
<path d="M294.583 287.408V290.136" stroke="#263238" stroke-miterlimit="10"/>
<path d="M346.304 287.626V290.245" stroke="#263238" stroke-miterlimit="10"/>
<path d="M343.468 287.626V290.136" stroke="#263238" stroke-miterlimit="10"/>
<path d="M336.484 287.518V290.682" stroke="#263238" stroke-miterlimit="10"/>
<path d="M299.057 287.845V289.264" stroke="#263238" stroke-miterlimit="10"/>
<path d="M300.147 291.118V288.608" stroke="#263238" stroke-miterlimit="10"/>
<path d="M307.896 287.518V290.682" stroke="#263238" stroke-miterlimit="10"/>
<path d="M321.535 287.845V290.027" stroke="#263238" stroke-miterlimit="10"/>
<path d="M350.132 295.763V293.799" stroke="#263238" stroke-miterlimit="10"/>
<path d="M351.844 291.529H291.713V295.918H351.844V291.529Z" fill="#FFCC3A" stroke="#263238" stroke-miterlimit="10"/>
<path d="M294.373 296.308V293.58" stroke="#263238" stroke-miterlimit="10"/>
<path d="M296.229 291.726V294.454" stroke="#263238" stroke-miterlimit="10"/>
<path d="M347.949 291.943V294.562" stroke="#263238" stroke-miterlimit="10"/>
<path d="M345.113 291.943V294.453" stroke="#263238" stroke-miterlimit="10"/>
<path d="M338.13 291.834V294.998" stroke="#263238" stroke-miterlimit="10"/>
<path d="M300.702 292.162V293.581" stroke="#263238" stroke-miterlimit="10"/>
<path d="M301.793 295.436V292.926" stroke="#263238" stroke-miterlimit="10"/>
<path d="M309.541 291.834V294.998" stroke="#263238" stroke-miterlimit="10"/>
<path d="M323.181 292.162V294.344" stroke="#263238" stroke-miterlimit="10"/>
<path d="M348.143 300.08V298.116" stroke="#263238" stroke-miterlimit="10"/>
<path d="M349.855 295.847H289.724V300.235H349.855V295.847Z" fill="#FFCC3A" stroke="#263238" stroke-miterlimit="10"/>
<path d="M292.384 300.627V297.898" stroke="#263238" stroke-miterlimit="10"/>
<path d="M294.239 296.043V298.771" stroke="#263238" stroke-miterlimit="10"/>
<path d="M345.96 296.261V298.88" stroke="#263238" stroke-miterlimit="10"/>
<path d="M343.124 296.261V298.771" stroke="#263238" stroke-miterlimit="10"/>
<path d="M336.141 296.152V299.317" stroke="#263238" stroke-miterlimit="10"/>
<path d="M298.713 296.48V297.899" stroke="#263238" stroke-miterlimit="10"/>
<path d="M299.804 299.753V297.244" stroke="#263238" stroke-miterlimit="10"/>
<path d="M307.552 296.152V299.317" stroke="#263238" stroke-miterlimit="10"/>
<path d="M321.191 296.48V298.663" stroke="#263238" stroke-miterlimit="10"/>
<path d="M343.784 304.398V302.434" stroke="#263238" stroke-miterlimit="10"/>
<path d="M345.497 300.165H285.365V304.553H345.497V300.165Z" fill="#FFCC3A" stroke="#263238" stroke-miterlimit="10"/>
<path d="M288.025 304.944V302.216" stroke="#263238" stroke-miterlimit="10"/>
<path d="M289.88 300.361V303.089" stroke="#263238" stroke-miterlimit="10"/>
<path d="M341.602 300.579V303.198" stroke="#263238" stroke-miterlimit="10"/>
<path d="M338.765 300.579V303.089" stroke="#263238" stroke-miterlimit="10"/>
<path d="M331.781 300.471V303.635" stroke="#263238" stroke-miterlimit="10"/>
<path d="M294.354 300.798V302.216" stroke="#263238" stroke-miterlimit="10"/>
<path d="M295.445 304.071V301.562" stroke="#263238" stroke-miterlimit="10"/>
<path d="M303.192 300.471V303.635" stroke="#263238" stroke-miterlimit="10"/>
<path d="M316.832 300.798V302.98" stroke="#263238" stroke-miterlimit="10"/>
<path d="M342.332 308.715V306.751" stroke="#263238" stroke-miterlimit="10"/>
<path d="M344.045 304.481H283.913V308.87H344.045V304.481Z" fill="#FFCC3A" stroke="#263238" stroke-miterlimit="10"/>
<path d="M286.573 309.26V306.532" stroke="#263238" stroke-miterlimit="10"/>
<path d="M288.429 304.678V307.405" stroke="#263238" stroke-miterlimit="10"/>
<path d="M340.149 304.896V307.514" stroke="#263238" stroke-miterlimit="10"/>
<path d="M337.313 304.896V307.405" stroke="#263238" stroke-miterlimit="10"/>
<path d="M330.33 304.786V307.951" stroke="#263238" stroke-miterlimit="10"/>
<path d="M292.902 305.114V306.533" stroke="#263238" stroke-miterlimit="10"/>
<path d="M293.993 308.387V305.878" stroke="#263238" stroke-miterlimit="10"/>
<path d="M301.741 304.786V307.951" stroke="#263238" stroke-miterlimit="10"/>
<path d="M315.381 305.114V307.297" stroke="#263238" stroke-miterlimit="10"/>
<path d="M342.042 313.034V311.069" stroke="#263238" stroke-miterlimit="10"/>
<path d="M343.755 308.8H283.623V313.188H343.755V308.8Z" fill="#FFCC3A" stroke="#263238" stroke-miterlimit="10"/>
<path d="M286.283 313.579V310.852" stroke="#263238" stroke-miterlimit="10"/>
<path d="M288.138 308.996V311.724" stroke="#263238" stroke-miterlimit="10"/>
<path d="M339.859 309.214V311.833" stroke="#263238" stroke-miterlimit="10"/>
<path d="M337.023 309.214V311.724" stroke="#263238" stroke-miterlimit="10"/>
<path d="M330.039 309.105V312.27" stroke="#263238" stroke-miterlimit="10"/>
<path d="M292.612 309.433V310.852" stroke="#263238" stroke-miterlimit="10"/>
<path d="M293.703 312.706V310.196" stroke="#263238" stroke-miterlimit="10"/>
<path d="M301.451 309.105V312.27" stroke="#263238" stroke-miterlimit="10"/>
<path d="M315.091 309.433V311.615" stroke="#263238" stroke-miterlimit="10"/>
<path d="M342.187 317.351V315.387" stroke="#263238" stroke-miterlimit="10"/>
<path d="M343.899 313.117H283.768V317.506H343.899V313.117Z" fill="#FFCC3A" stroke="#263238" stroke-miterlimit="10"/>
<path d="M286.428 317.896V315.168" stroke="#263238" stroke-miterlimit="10"/>
<path d="M288.282 313.313V316.042" stroke="#263238" stroke-miterlimit="10"/>
<path d="M340.004 313.531V316.15" stroke="#263238" stroke-miterlimit="10"/>
<path d="M337.167 313.531V316.041" stroke="#263238" stroke-miterlimit="10"/>
<path d="M330.184 313.422V316.586" stroke="#263238" stroke-miterlimit="10"/>
<path d="M292.757 313.75V315.168" stroke="#263238" stroke-miterlimit="10"/>
<path d="M293.848 317.024V314.514" stroke="#263238" stroke-miterlimit="10"/>
<path d="M301.595 313.422V316.586" stroke="#263238" stroke-miterlimit="10"/>
<path d="M315.234 313.75V315.932" stroke="#263238" stroke-miterlimit="10"/>
<path d="M341.316 321.668V319.704" stroke="#263238" stroke-miterlimit="10"/>
<path d="M343.029 317.435H282.897V321.823H343.029V317.435Z" fill="#FFCC3A" stroke="#263238" stroke-miterlimit="10"/>
<path d="M285.558 322.214V319.486" stroke="#263238" stroke-miterlimit="10"/>
<path d="M287.412 317.631V320.359" stroke="#263238" stroke-miterlimit="10"/>
<path d="M339.134 317.849V320.468" stroke="#263238" stroke-miterlimit="10"/>
<path d="M336.297 317.849V320.359" stroke="#263238" stroke-miterlimit="10"/>
<path d="M329.313 317.74V320.905" stroke="#263238" stroke-miterlimit="10"/>
<path d="M291.887 318.068V319.487" stroke="#263238" stroke-miterlimit="10"/>
<path d="M292.978 321.341V318.832" stroke="#263238" stroke-miterlimit="10"/>
<path d="M300.726 317.74V320.905" stroke="#263238" stroke-miterlimit="10"/>
<path d="M314.365 318.068V320.251" stroke="#263238" stroke-miterlimit="10"/>
<path d="M341.461 325.986V324.021" stroke="#263238" stroke-miterlimit="10"/>
<path d="M343.174 321.753H283.042V326.141H343.174V321.753Z" fill="#FFCC3A" stroke="#263238" stroke-miterlimit="10"/>
<path d="M285.702 326.532V323.804" stroke="#263238" stroke-miterlimit="10"/>
<path d="M287.557 321.949V324.677" stroke="#263238" stroke-miterlimit="10"/>
<path d="M339.278 322.167V324.786" stroke="#263238" stroke-miterlimit="10"/>
<path d="M336.441 322.167V324.677" stroke="#263238" stroke-miterlimit="10"/>
<path d="M329.458 322.058V325.223" stroke="#263238" stroke-miterlimit="10"/>
<path d="M292.03 322.386V323.804" stroke="#263238" stroke-miterlimit="10"/>
<path d="M293.122 325.659V323.149" stroke="#263238" stroke-miterlimit="10"/>
<path d="M300.869 322.058V325.223" stroke="#263238" stroke-miterlimit="10"/>
<path d="M314.509 322.386V324.568" stroke="#263238" stroke-miterlimit="10"/>
<path d="M342.042 330.303V328.339" stroke="#263238" stroke-miterlimit="10"/>
<path d="M343.755 326.069H283.623V330.458H343.755V326.069Z" fill="#FFCC3A" stroke="#263238" stroke-miterlimit="10"/>
<path d="M286.283 330.848V328.12" stroke="#263238" stroke-miterlimit="10"/>
<path d="M288.138 326.266V328.993" stroke="#263238" stroke-miterlimit="10"/>
<path d="M339.859 326.483V329.102" stroke="#263238" stroke-miterlimit="10"/>
<path d="M337.023 326.483V328.993" stroke="#263238" stroke-miterlimit="10"/>
<path d="M330.039 326.374V329.538" stroke="#263238" stroke-miterlimit="10"/>
<path d="M292.612 326.702V328.121" stroke="#263238" stroke-miterlimit="10"/>
<path d="M293.703 329.975V327.466" stroke="#263238" stroke-miterlimit="10"/>
<path d="M301.451 326.374V329.538" stroke="#263238" stroke-miterlimit="10"/>
<path d="M315.091 326.702V328.884" stroke="#263238" stroke-miterlimit="10"/>
<path d="M342.187 334.621V332.657" stroke="#263238" stroke-miterlimit="10"/>
<path d="M343.899 330.388H283.768V334.776H343.899V330.388Z" fill="#FFCC3A" stroke="#263238" stroke-miterlimit="10"/>
<path d="M286.428 335.167V332.439" stroke="#263238" stroke-miterlimit="10"/>
<path d="M288.282 330.584V333.312" stroke="#263238" stroke-miterlimit="10"/>
<path d="M340.004 330.802V333.421" stroke="#263238" stroke-miterlimit="10"/>
<path d="M337.167 330.802V333.312" stroke="#263238" stroke-miterlimit="10"/>
<path d="M330.184 330.693V333.858" stroke="#263238" stroke-miterlimit="10"/>
<path d="M292.757 331.021V332.44" stroke="#263238" stroke-miterlimit="10"/>
<path d="M293.848 334.294V331.784" stroke="#263238" stroke-miterlimit="10"/>
<path d="M301.595 330.693V333.858" stroke="#263238" stroke-miterlimit="10"/>
<path d="M315.234 331.021V333.203" stroke="#263238" stroke-miterlimit="10"/>
<path d="M343.784 338.939V336.975" stroke="#263238" stroke-miterlimit="10"/>
<path d="M345.497 334.705H285.365V339.093H345.497V334.705Z" fill="#FFCC3A" stroke="#263238" stroke-miterlimit="10"/>
<path d="M288.025 339.484V336.756" stroke="#263238" stroke-miterlimit="10"/>
<path d="M289.88 334.901V337.629" stroke="#263238" stroke-miterlimit="10"/>
<path d="M341.602 335.119V337.738" stroke="#263238" stroke-miterlimit="10"/>
<path d="M338.765 335.119V337.629" stroke="#263238" stroke-miterlimit="10"/>
<path d="M331.781 335.01V338.174" stroke="#263238" stroke-miterlimit="10"/>
<path d="M294.354 335.338V336.756" stroke="#263238" stroke-miterlimit="10"/>
<path d="M295.445 338.611V336.102" stroke="#263238" stroke-miterlimit="10"/>
<path d="M303.192 335.01V338.174" stroke="#263238" stroke-miterlimit="10"/>
<path d="M316.832 335.338V337.52" stroke="#263238" stroke-miterlimit="10"/>
<path d="M343.784 343.256V341.292" stroke="#263238" stroke-miterlimit="10"/>
<path d="M345.497 339.022H285.365V343.411H345.497V339.022Z" fill="#FFCC3A" stroke="#263238" stroke-miterlimit="10"/>
<path d="M288.025 343.802V341.074" stroke="#263238" stroke-miterlimit="10"/>
<path d="M289.88 339.219V341.947" stroke="#263238" stroke-miterlimit="10"/>
<path d="M341.602 339.437V342.056" stroke="#263238" stroke-miterlimit="10"/>
<path d="M338.765 339.437V341.946" stroke="#263238" stroke-miterlimit="10"/>
<path d="M331.781 339.328V342.493" stroke="#263238" stroke-miterlimit="10"/>
<path d="M294.354 339.656V341.075" stroke="#263238" stroke-miterlimit="10"/>
<path d="M295.445 342.929V340.419" stroke="#263238" stroke-miterlimit="10"/>
<path d="M303.192 339.328V342.493" stroke="#263238" stroke-miterlimit="10"/>
<path d="M316.832 339.656V341.839" stroke="#263238" stroke-miterlimit="10"/>
<path d="M343.784 347.573V345.608" stroke="#263238" stroke-miterlimit="10"/>
<path d="M345.497 343.34H285.365V347.728H345.497V343.34Z" fill="#FFCC3A" stroke="#263238" stroke-miterlimit="10"/>
<path d="M288.025 348.119V345.391" stroke="#263238" stroke-miterlimit="10"/>
<path d="M289.88 343.536V346.264" stroke="#263238" stroke-miterlimit="10"/>
<path d="M341.602 343.754V346.373" stroke="#263238" stroke-miterlimit="10"/>
<path d="M338.765 343.754V346.264" stroke="#263238" stroke-miterlimit="10"/>
<path d="M331.781 343.645V346.81" stroke="#263238" stroke-miterlimit="10"/>
<path d="M294.354 343.973V345.391" stroke="#263238" stroke-miterlimit="10"/>
<path d="M295.445 347.246V344.736" stroke="#263238" stroke-miterlimit="10"/>
<path d="M303.192 343.645V346.81" stroke="#263238" stroke-miterlimit="10"/>
<path d="M316.832 343.973V346.155" stroke="#263238" stroke-miterlimit="10"/>
<path d="M159.993 221.523H136.381V282.597H159.993V221.523Z" fill="#263238" stroke="#263238" stroke-miterlimit="10" stroke-linecap="round" stroke-linejoin="round"/>
<path d="M215.133 231.174V230.464C215.133 225.527 211.13 221.523 206.193 221.523H136.38V221.606C140.772 222.173 144.167 225.918 144.167 230.464V246.016H144.321V337.094C144.321 343.032 149.135 347.846 155.073 347.846H215.146V231.174H215.133Z" fill="white" stroke="#263238" stroke-miterlimit="10" stroke-linecap="round" stroke-linejoin="round"/>
<path d="M167.843 331.869V338.905C167.843 343.117 164.926 346.64 161.004 347.587V347.845H191.857V331.868H167.843V331.869Z" fill="#263238" stroke="#263238" stroke-miterlimit="10" stroke-linecap="round" stroke-linejoin="round"/>
<path d="M172.654 323.354V338.906C172.654 343.452 169.258 347.196 164.866 347.764V347.846H226.75C231.688 347.846 235.691 343.843 235.691 338.906V323.354H172.654Z" fill="white" stroke="#263238" stroke-miterlimit="10" stroke-linecap="round" stroke-linejoin="round"/>
<path d="M158.062 233.681H204.599" stroke="#263238" stroke-miterlimit="10"/>
<path d="M158.062 242.165H204.599" stroke="#263238" stroke-miterlimit="10"/>
<path d="M158.062 249.364H204.599" stroke="#263238" stroke-miterlimit="10"/>
<path d="M158.062 299.501H204.599" stroke="#263238" stroke-miterlimit="10"/>
<path d="M158.062 311.843H204.599" stroke="#263238" stroke-miterlimit="10"/>
<path d="M158.062 256.82H185.829" stroke="#263238" stroke-miterlimit="10"/>
<path d="M158.062 263.505H185.829" stroke="#263238" stroke-miterlimit="10"/>
<path d="M158.062 270.19H185.829" stroke="#263238" stroke-miterlimit="10"/>
<path d="M158.062 276.875H185.829" stroke="#263238" stroke-miterlimit="10"/>
<path d="M158.062 283.561H185.829" stroke="#263238" stroke-miterlimit="10"/>
<path d="M158.062 290.245H185.829" stroke="#263238" stroke-miterlimit="10"/>
<path d="M92.6416 337.244C92.6416 337.244 95.8391 341.641 97.2388 342.241C98.6377 342.841 101.236 343.24 102.035 345.039C102.835 346.837 102.835 347.837 102.835 347.837H83.0476C83.0476 347.837 82.2484 345.238 83.0476 343.64C83.8468 342.041 84.0469 340.442 84.0469 340.442L92.6416 337.244Z" fill="white" stroke="#263238" stroke-miterlimit="10" stroke-linecap="round" stroke-linejoin="round"/>
<path d="M82.7061 345.838H102.357C102.829 347.126 102.835 347.837 102.835 347.837H83.0481C83.0481 347.837 82.7673 346.918 82.7061 345.838Z" fill="white" stroke="#263238" stroke-miterlimit="10" stroke-linecap="round" stroke-linejoin="round"/>
<path d="M71.4551 341.642L71.0555 348.038H61.4615C61.4615 348.038 61.0619 346.239 61.6616 344.44C62.2614 342.641 62.8611 341.042 62.8611 341.042L71.4551 341.642Z" fill="white" stroke="#263238" stroke-miterlimit="10" stroke-linecap="round" stroke-linejoin="round"/>
<path d="M71.0559 348.038H61.4619C61.4619 348.038 61.2243 346.96 61.3942 345.64H71.2057L71.0559 348.038Z" fill="white" stroke="#263238" stroke-miterlimit="10" stroke-linecap="round" stroke-linejoin="round"/>
<path d="M100.436 244.096C100.436 244.096 98.8368 264.882 98.4372 272.277C98.0376 279.672 92.6412 337.244 92.6412 337.244C92.6412 337.244 84.8465 342.04 83.8472 342.04C82.8478 342.04 81.649 272.677 81.649 272.677L71.456 341.641C71.456 341.641 69.6574 342.24 68.0583 342.24C66.4592 342.24 62.8613 341.042 62.8613 341.042L66.259 257.887V244.096C66.259 244.096 86.4456 246.894 91.842 246.094C97.2384 245.295 100.436 244.096 100.436 244.096Z" fill="#263238" stroke="#263238" stroke-miterlimit="10" stroke-linecap="round" stroke-linejoin="round"/>
<path d="M76.0527 256.688L80.4498 260.085L81.6486 272.677" stroke="#808080" stroke-miterlimit="10" stroke-linecap="round" stroke-linejoin="round"/>
<path d="M74.2394 159.639C74.2394 159.639 82.392 158.618 84.7838 161.4C87.1757 164.182 87.6473 169.592 89.3328 170.885C91.0183 172.178 91.9197 170.571 92.6649 172.256C93.4101 173.941 92.1955 176.018 92.1955 176.018C92.1955 176.018 92.3935 184.132 91.4532 184.524C90.5129 184.917 86.4362 184.917 86.4362 184.917L87.1037 188.249L76.7947 188.683L75.8925 185.195C75.8925 185.195 68.0517 180.65 65.9342 177.201C63.8167 173.752 64.3243 166.109 66.4404 163.443C68.5565 160.777 74.2394 159.639 74.2394 159.639Z" fill="white" stroke="#263238" stroke-miterlimit="10" stroke-linecap="round" stroke-linejoin="round"/>
<path d="M92.196 176.019C92.196 176.019 87.4167 174.517 87.1323 175.228C86.8479 175.94 87.7011 185.042 87.7011 185.042C87.7011 185.042 91.0815 185.432 91.4537 184.526C91.8252 183.619 92.5661 182.499 92.196 176.019ZM91.1837 183.66C90.9173 184.389 88.4945 184.076 88.4945 184.076C88.4945 184.076 87.8832 176.745 88.087 176.173C88.2907 175.601 91.7158 176.81 91.7158 176.81C91.9815 182.028 91.4508 182.93 91.1837 183.66Z" fill="#263238"/>
<path d="M86.8677 170.49C87.1219 171.101 87.5265 171.513 87.7713 171.412C88.0161 171.31 88.0082 170.732 87.7541 170.122C87.4999 169.511 87.0953 169.098 86.8505 169.2C86.6057 169.301 86.6136 169.88 86.8677 170.49Z" fill="#263238"/>
<path d="M91.3714 177.328C91.3714 177.328 89.8133 178.108 88.8838 176.579" stroke="#263238" stroke-miterlimit="10" stroke-linecap="round" stroke-linejoin="round"/>
<path d="M86.7838 167.649C86.7838 167.649 85.7348 167.08 85.6152 168.818" stroke="#263238" stroke-miterlimit="10" stroke-linecap="round" stroke-linejoin="round"/>
<path d="M66.4406 163.443C68.5567 160.777 74.2397 159.639 74.2397 159.639C74.2397 159.639 82.3922 158.618 84.7841 161.4C84.7841 161.4 80.2761 160.265 80.8644 162.185C81.4526 164.105 86.1182 167.044 84.5112 168.181C82.9041 169.318 81.1013 168.456 81.8465 170.142C82.5917 171.827 83.5327 173.473 82.7486 173.63C81.9645 173.787 79.7693 171.984 78.8282 172.377C77.8879 172.769 76.8302 175.63 77.7317 177.08C78.6338 178.53 80.3193 178.805 80.3193 178.805C80.3193 178.805 78.713 182.999 77.3025 184.097C76.6049 184.64 75.8777 184.789 75.1649 184.759C73.1733 183.542 67.6574 180.009 65.933 177.201C63.8169 173.752 64.3245 166.109 66.4406 163.443Z" fill="#263238" stroke="#263238" stroke-miterlimit="10" stroke-linecap="round" stroke-linejoin="round"/>
<path d="M65.9284 194.135C65.9284 194.135 60.1202 197.932 58.557 200.837C56.9932 203.74 53.1959 230.992 52.7495 233.897C52.3031 236.801 59.1208 257.249 59.1208 257.249C59.1208 257.249 58.557 261.931 59.1208 264.468C59.6846 267.005 61.3427 268.461 62.1887 268.602C63.0347 268.743 63.7396 266.206 63.7396 266.206C64.3034 266.77 65.0082 266.065 65.0082 265.36C65.0082 264.655 65.4316 259.581 65.2905 258.876C65.1494 258.171 64.5244 255.833 64.5244 255.833L65.9298 237.917V194.135H65.9284Z" fill="white" stroke="#263238" stroke-miterlimit="10" stroke-linecap="round" stroke-linejoin="round"/>
<path d="M53.3096 231.367C53.3096 231.367 57.0068 232.952 60.7047 232.952C64.4019 232.952 65.4589 232.423 65.4589 232.423L65.6353 227.669C65.6353 227.669 57.1839 227.669 56.3033 227.317C55.4228 226.965 53.8381 226.437 53.8381 226.437L53.3096 231.367Z" fill="#3EAB90" stroke="#263238" stroke-miterlimit="10" stroke-linecap="round" stroke-linejoin="round"/>
<path d="M58.5573 200.837C57.3585 203.062 54.8493 219.585 53.541 228.491C56.2849 229.337 61.0758 230.455 65.9293 229.908V194.136C65.9293 194.136 60.1211 197.933 58.5573 200.837Z" fill="#3EAB90" stroke="#263238" stroke-miterlimit="10" stroke-linecap="round" stroke-linejoin="round"/>
<path d="M62.3355 218.236L57.2891 215.118" stroke="#263238" stroke-miterlimit="10" stroke-linecap="round" stroke-linejoin="round"/>
<path d="M59.2178 220.016L62.7803 219.571" stroke="#263238" stroke-miterlimit="10" stroke-linecap="round" stroke-linejoin="round"/>
<path d="M63.4567 259.439C63.4567 259.439 63.1745 260.708 62.4703 261.272C61.7654 261.836 61.7654 261.836 61.7654 261.836L61.3428 264.373C61.3428 264.373 61.6243 265.924 61.7654 266.769" stroke="#263238" stroke-miterlimit="10" stroke-linecap="round" stroke-linejoin="round"/>
<path d="M63.7381 266.206L63.5977 262.541" stroke="#263238" stroke-miterlimit="10" stroke-linecap="round" stroke-linejoin="round"/>
<path d="M63.316 226.736C63.0452 216.855 60.8737 208.555 60.7117 206.938C60.5209 205.027 60.0356 200.175 63.632 195.949C65.6437 193.96 67.8052 192.52 69.8046 191.493C71.0804 191.108 72.0546 190.931 72.0546 190.931L71.4196 190.73C72.7184 190.171 73.8978 189.786 74.8525 189.532C77.8506 188.732 85.8455 188.332 88.2438 190.531C88.2438 190.531 95.1716 192.692 98.5722 195.173C99.5795 196.448 101.352 199.139 101.669 202.623C102.03 206.591 102.735 225.771 102.994 233.015C103.053 234.652 103.18 236.277 103.383 237.903C103.836 241.526 104.421 253.86 104.421 253.86C104.421 253.86 96.8377 256.481 84.646 256.081C72.4542 255.682 65.0065 252.555 65.0065 252.555L63.2152 251.6C63.2152 251.6 63.1799 239.887 63.213 237.907C63.2778 234.113 63.3908 226.782 63.316 226.736Z" fill="#3EAB90" stroke="#263238" stroke-miterlimit="10" stroke-linecap="round" stroke-linejoin="round"/>
<path d="M84.9678 219.105C85.5625 220.155 86.1954 221.099 86.8621 221.869L84.9678 219.105Z" fill="#3EAB90"/>
<path d="M84.9678 219.105C85.5625 220.155 86.1954 221.099 86.8621 221.869" stroke="#263238" stroke-miterlimit="10" stroke-linecap="round" stroke-linejoin="round"/>
<path d="M79.3857 203.439C79.3857 203.439 81.1159 211.174 83.9527 217.144L79.3857 203.439Z" fill="#3EAB90"/>
<path d="M79.3857 203.439C79.3857 203.439 81.1159 211.174 83.9527 217.144" stroke="#263238" stroke-miterlimit="10" stroke-linecap="round" stroke-linejoin="round"/>
<path d="M79.8398 211.998C80.3215 212.917 80.7665 213.75 81.1236 214.392L79.8398 211.998Z" fill="#3EAB90"/>
<path d="M79.8398 211.998C80.3215 212.917 80.7665 213.75 81.1236 214.392" stroke="#263238" stroke-miterlimit="10" stroke-linecap="round" stroke-linejoin="round"/>
<path d="M75.5605 203.613C75.5605 203.613 77.0869 206.667 78.6501 209.704L75.5605 203.613Z" fill="#3EAB90"/>
<path d="M75.5605 203.613C75.5605 203.613 77.0869 206.667 78.6501 209.704" stroke="#263238" stroke-miterlimit="10" stroke-linecap="round" stroke-linejoin="round"/>
<path d="M93.1008 192.279C93.1008 192.279 90.179 188.101 89.5792 187.701C88.9795 187.302 76.8597 186.022 74.2612 186.821C71.6628 187.62 69.8037 191.493 69.8037 191.493C69.8037 191.493 82.7076 190.68 93.1008 192.279Z" fill="white" stroke="#263238" stroke-miterlimit="10" stroke-linecap="round" stroke-linejoin="round"/>
<path d="M95.6684 213.728L107.284 224.003C107.284 224.003 113.539 228.471 115.996 227.577C118.166 226.788 137.499 209.712 141.988 205.732C141.991 205.742 141.995 205.756 141.995 205.756L143.744 204.759C143.744 204.759 146.237 204.786 146.963 204.302C147.691 203.817 148.781 202.968 148.781 202.968C148.781 202.968 148.781 202.968 149.388 202.968C149.994 202.968 150.357 202.12 150.599 201.271C150.842 200.423 151.569 197.999 151.327 197.393C151.084 196.787 147.933 194.727 147.933 194.727C147.933 194.727 148.781 193.515 149.145 193.03C149.509 192.545 150.72 191.212 150.599 190C150.478 188.788 149.145 188.182 148.054 189.515C146.963 190.849 141.509 194.969 140.782 196.424C140.274 197.44 139.526 199.077 139.12 199.973L117.113 212.164C117.113 212.164 104.38 197.198 103.04 196.304C101.699 195.411 91.748 192.423 91.748 192.423" fill="white"/>
<path d="M95.6684 213.728L107.284 224.003C107.284 224.003 113.539 228.471 115.996 227.577C118.166 226.788 137.499 209.712 141.988 205.732C141.991 205.742 141.995 205.756 141.995 205.756L143.744 204.759C143.744 204.759 146.237 204.786 146.963 204.302C147.691 203.817 148.781 202.968 148.781 202.968C148.781 202.968 148.781 202.968 149.388 202.968C149.994 202.968 150.357 202.12 150.599 201.271C150.842 200.423 151.569 197.999 151.327 197.393C151.084 196.787 147.933 194.727 147.933 194.727C147.933 194.727 148.781 193.515 149.145 193.03C149.509 192.545 150.72 191.212 150.599 190C150.478 188.788 149.145 188.182 148.054 189.515C146.963 190.849 141.509 194.969 140.782 196.424C140.274 197.44 139.526 199.077 139.12 199.973L117.113 212.164C117.113 212.164 104.38 197.198 103.04 196.304C101.699 195.411 91.748 192.423 91.748 192.423" stroke="#263238" stroke-miterlimit="10" stroke-linecap="round" stroke-linejoin="round"/>
<path d="M95.6687 213.728L107.284 224.003C107.284 224.003 113.539 228.471 115.996 227.578C116.865 227.261 120.485 224.335 124.799 220.685C124.819 219.621 124.625 217.801 123.667 214.926C122.953 212.786 121.791 211.262 120.664 210.198L117.114 212.165C117.114 212.165 104.381 197.198 103.041 196.304C101.701 195.411 91.749 192.423 91.749 192.423" fill="#3EAB90"/>
<path d="M95.6687 213.728L107.284 224.003C107.284 224.003 113.539 228.471 115.996 227.578C116.865 227.261 120.485 224.335 124.799 220.685C124.819 219.621 124.625 217.801 123.667 214.926C122.953 212.786 121.791 211.262 120.664 210.198L117.114 212.165C117.114 212.165 104.381 197.198 103.041 196.304C101.701 195.411 91.749 192.423 91.749 192.423" stroke="#263238" stroke-miterlimit="10" stroke-linecap="round" stroke-linejoin="round"/>
<path d="M118.499 210.674C118.499 210.674 119.163 209.776 121.073 212.163C122.983 214.551 123.938 220.122 123.938 220.918C123.938 221.713 125.212 221.395 126.007 220.44C126.803 219.485 129.35 219.167 129.668 216.62C129.987 214.073 128.873 210.571 127.44 208.343C126.007 206.115 126.166 206.115 124.734 206.433C123.301 206.751 118.95 209.504 118.499 210.674Z" fill="#3EAB90" stroke="#263238" stroke-miterlimit="10" stroke-linecap="round" stroke-linejoin="round"/>
<path d="M117.113 212.164C117.113 212.164 118.591 214.227 117.998 218.234L117.113 212.164Z" fill="#3EAB90"/>
<path d="M117.113 212.164C117.113 212.164 118.591 214.227 117.998 218.234" stroke="#263238" stroke-miterlimit="10" stroke-linecap="round" stroke-linejoin="round"/>
<path d="M119.482 216.156C119.482 216.156 120.076 217.641 118.888 220.906L119.482 216.156Z" fill="#3EAB90"/>
<path d="M119.482 216.156C119.482 216.156 120.076 217.641 118.888 220.906" stroke="#263238" stroke-miterlimit="10" stroke-linecap="round" stroke-linejoin="round"/>
<path d="M148.305 202.809C148.305 202.809 148.911 201.355 148.789 200.507L148.305 202.809Z" fill="white"/>
<path d="M148.305 202.809C148.305 202.809 148.911 201.355 148.789 200.507" stroke="#263238" stroke-miterlimit="10" stroke-linecap="round" stroke-linejoin="round"/>
<path d="M14.9658 348.037H347.491" stroke="#263238" stroke-miterlimit="10"/>
</g>
<defs>
<clipPath id="clip0_3340_18977">
<rect width="360" height="360" fill="white"/>
</clipPath>
</defs>
</svg>
