<svg width="83" height="81" viewBox="0 0 83 81" fill="none" xmlns="http://www.w3.org/2000/svg">
<path d="M78.933 50.2717C78.6041 48.3933 77.7263 46.6545 76.4104 45.2752C75.0946 43.896 73.3997 42.938 71.54 42.5225C69.6804 42.107 67.7394 42.2526 65.9623 42.9409C64.1853 43.6291 62.652 44.8292 61.5562 46.3893C61.5004 46.4731 61.4353 46.5569 61.3795 46.65L59.2306 45.868C59.9092 42.8673 59.7634 39.7387 58.8085 36.8143C57.8537 33.8899 56.1255 31.2789 53.8074 29.2583L55.6678 26.5304C57.0911 27.1457 58.6436 27.4014 60.1888 27.2752C62.0515 27.1164 63.8255 26.4087 65.2868 25.2416C66.748 24.0744 67.8309 22.5001 68.3989 20.7175C68.9669 18.9348 68.9944 17.0237 68.478 15.2253C67.9616 13.427 66.9244 11.8221 65.4974 10.6133C64.0704 9.40452 62.3176 8.64597 60.4602 8.43345C58.6027 8.22093 56.7241 8.56397 55.0613 9.41925C53.3985 10.2745 52.0262 11.6037 51.1176 13.239C50.209 14.8743 49.8049 16.7423 49.9562 18.6073C50.1193 20.685 50.9667 22.6497 52.3655 24.1935L50.4492 26.9866C47.9738 25.6969 45.2189 25.0375 42.4283 25.0667C39.6377 25.0959 36.8972 25.8129 34.4492 27.1542L30.7283 21.568C30.8679 21.419 30.9981 21.2514 31.119 21.0932C32.0838 19.838 32.7246 18.3642 32.9848 16.8022C33.245 15.2401 33.1166 13.638 32.6108 12.1375C32.1051 10.6369 31.2377 9.28429 30.0853 8.19916C28.9329 7.11404 27.5311 6.32989 26.0038 5.91609C24.4765 5.50229 22.8709 5.47159 21.329 5.82671C19.787 6.18182 18.3563 6.91181 17.1633 7.95209C15.9704 8.99237 15.052 10.3109 14.4893 11.791C13.9267 13.2711 13.7372 14.8671 13.9376 16.438C14.2668 18.9716 15.587 21.271 17.6083 22.8315C19.6296 24.392 22.1869 25.0861 24.719 24.7614C25.6833 24.6376 26.6238 24.3709 27.5097 23.97L31.2306 29.4725C29.9274 30.6588 28.8164 32.0408 27.9376 33.569C26.4849 36.0568 25.6849 38.8722 25.612 41.7528L19.4353 42.4697C18.6953 40.2864 17.1878 38.4467 15.1934 37.2931L15.0911 37.2373C12.9204 36.0162 10.3563 35.7009 7.95489 36.3597C5.55346 37.0186 3.50837 38.5984 2.2632 40.7566L2.21669 40.859C0.994209 43.031 0.677799 45.5981 1.33625 48.0024C1.99471 50.4066 3.57479 52.4534 5.73297 53.698L5.8353 53.7538C8.00227 54.9711 10.5613 55.2842 12.9575 54.6254C15.3537 53.9666 17.3937 52.3889 18.6353 50.2345L18.6911 50.1321C19.4247 48.8362 19.8392 47.384 19.9004 45.8959L25.8911 45.1976C25.9655 45.6352 26.0679 46.0728 26.1795 46.5197C26.7204 48.5296 27.6253 50.423 28.8492 52.1059C31.1035 55.1389 34.1995 57.441 37.7516 58.7255L37.3795 61.0997C35.8374 61.156 34.3328 61.5908 32.9981 62.3659C30.8331 63.6235 29.2537 65.688 28.6053 68.1079C27.9568 70.5277 28.292 73.1061 29.5376 75.2793C30.7941 77.449 32.8591 79.0312 35.2797 79.6787C37.7004 80.3263 40.2788 79.9863 42.4492 78.7334C43.9775 77.8497 45.228 76.5552 46.059 74.9967C46.8901 73.4381 47.2684 71.6779 47.1513 69.9152C47.0341 68.1525 46.4261 66.4579 45.3962 65.0233C44.3662 63.5886 42.9554 62.4713 41.3237 61.7979L41.6958 59.4331C41.9655 59.4331 42.2446 59.4331 42.5237 59.4331C48.6632 59.4331 54.7562 55.439 57.6213 50.0669C57.7051 49.918 57.7795 49.7597 57.8632 49.6014L59.9097 50.3462C59.7283 51.3998 59.7283 52.4768 59.9097 53.5304C60.1238 54.7817 60.5827 55.9784 61.2599 57.0519C61.9371 58.1253 62.8194 59.0544 63.8562 59.7859C64.8929 60.5173 66.0638 61.0367 67.3015 61.3143C68.5393 61.5919 69.8196 61.6222 71.0691 61.4034C72.3186 61.1847 73.5126 60.7212 74.5828 60.0396C75.6529 59.358 76.5781 58.4717 77.3052 57.4314C78.0323 56.3912 78.5471 55.2175 78.8201 53.9777C79.093 52.7379 79.1187 51.4564 78.8958 50.2066L78.933 50.2717ZM28.5237 19.0728C27.5298 20.3693 26.0728 21.2301 24.4585 21.4749H24.1888C22.5694 21.6551 20.9429 21.2028 19.6484 20.2125C18.3539 19.2221 17.4912 17.77 17.2399 16.1587C17.2491 16.072 17.2491 15.9846 17.2399 15.898C17.1243 14.867 17.2636 13.8234 17.6456 12.8589C18.0275 11.8944 18.6404 11.0387 19.4304 10.367C20.2204 9.69522 21.1631 9.22808 22.1758 9.00663C23.1885 8.78518 24.2401 8.8162 25.2379 9.09697C26.2358 9.37774 27.1495 9.89966 27.8986 10.6168C28.6476 11.3339 29.2091 12.2243 29.5336 13.2096C29.8582 14.1949 29.9358 15.245 29.7597 16.2674C29.5836 17.2897 29.1591 18.2531 28.5237 19.0728ZM15.8167 48.5028V48.5773C15.0075 49.9895 13.673 51.024 12.1044 51.4548C10.5358 51.8857 8.86065 51.6779 7.4446 50.8769H7.37018C5.95915 50.0671 4.92557 48.7314 4.49508 47.1614C4.0646 45.5915 4.27218 43.9149 5.07251 42.4976V42.4231C5.87835 41.0074 7.21224 39.9694 8.78167 39.5365C10.3511 39.1037 12.028 39.3114 13.4446 40.1142H13.519C14.9282 40.9258 15.9602 42.2615 16.3904 43.8307C16.8207 45.3999 16.6145 47.0756 15.8167 48.4935V48.5028ZM54.7097 13.8497C55.3617 13.0754 56.1942 12.4738 57.1338 12.0981C58.0733 11.7225 59.0908 11.5842 60.0963 11.6957C61.1019 11.8071 62.0646 12.1648 62.8992 12.7371C63.7338 13.3094 64.4147 14.0787 64.8816 14.977C65.3486 15.8753 65.5872 16.8749 65.5764 17.8874C65.5656 18.9 65.3057 19.8942 64.8197 20.7824C64.3337 21.6705 63.6366 22.4251 62.7899 22.9794C61.9433 23.5338 60.9732 23.8708 59.9655 23.9607H59.8632C58.2533 24.0821 56.6605 23.5639 55.4295 22.5184C54.1986 21.4728 53.4287 19.9841 53.2865 18.3745V18.2628C53.1658 16.6621 53.6767 15.0778 54.7097 13.8497ZM43.0446 67.4866C43.8583 68.8847 44.0901 70.5471 43.6898 72.1148C43.2895 73.6826 42.2893 75.0298 40.9051 75.8659L40.719 75.9683C39.3273 76.7504 37.6857 76.9584 36.1431 76.5481C34.6005 76.1378 33.2787 75.1415 32.4586 73.771L32.3469 73.5941C31.5721 72.1982 31.368 70.5561 31.7773 69.0127C32.1867 67.4693 33.1777 66.1448 34.5423 65.3172L34.7283 65.2148C36.1353 64.4265 37.7953 64.2229 39.3508 64.6478C40.9063 65.0728 42.2328 66.0922 43.0446 67.4866ZM42.8865 56.0535C40.1267 56.0535 37.429 55.2344 35.1343 53.6999C32.8397 52.1653 31.0512 49.9842 29.9951 47.4323C28.939 44.8805 28.6627 42.0725 29.2011 39.3634C29.7395 36.6544 31.0684 34.166 33.0199 32.2129C34.9713 30.2598 37.4576 28.9297 40.1643 28.3908C42.871 27.8519 45.6766 28.1285 48.2262 29.1855C50.7759 30.2425 52.9551 32.0325 54.4884 34.3291C56.0216 36.6258 56.8399 39.3258 56.8399 42.088C56.8399 45.7918 55.3699 49.344 52.7531 51.9631C50.1363 54.5821 46.5872 56.0535 42.8865 56.0535ZM74.6167 55.5693C73.7758 56.7711 72.5444 57.6438 71.1325 58.0387C69.7207 58.4335 68.2157 58.3261 66.8741 57.7346C65.5325 57.1432 64.4374 56.1044 63.7755 54.7953C63.1135 53.4861 62.9257 51.9878 63.244 50.5556C63.5623 49.1233 64.367 47.846 65.521 46.9411C66.6751 46.0363 68.1069 45.5601 69.5724 45.5936C71.038 45.6271 72.4466 46.1683 73.5581 47.1249C74.6696 48.0816 75.4152 49.3944 75.6679 50.8397C75.9569 52.4933 75.5789 54.1942 74.6167 55.5693Z" fill="url(#paint0_linear_757_11737)"/>
<path d="M78.933 50.2717C78.6041 48.3933 77.7263 46.6545 76.4104 45.2752C75.0946 43.896 73.3997 42.938 71.54 42.5225C69.6804 42.107 67.7394 42.2526 65.9623 42.9409C64.1853 43.6291 62.652 44.8292 61.5562 46.3893C61.5004 46.4731 61.4353 46.5569 61.3795 46.65L59.2306 45.868C59.9092 42.8673 59.7634 39.7387 58.8085 36.8143C57.8537 33.8899 56.1255 31.2789 53.8074 29.2583L55.6678 26.5304C57.0911 27.1457 58.6436 27.4014 60.1888 27.2752C62.0515 27.1164 63.8255 26.4087 65.2868 25.2416C66.748 24.0744 67.8309 22.5001 68.3989 20.7175C68.9669 18.9348 68.9944 17.0237 68.478 15.2253C67.9616 13.427 66.9244 11.8221 65.4974 10.6133C64.0704 9.40452 62.3176 8.64597 60.4602 8.43345C58.6027 8.22093 56.7241 8.56397 55.0613 9.41925C53.3985 10.2745 52.0262 11.6037 51.1176 13.239C50.209 14.8743 49.8049 16.7423 49.9562 18.6073C50.1193 20.685 50.9667 22.6497 52.3655 24.1935L50.4492 26.9866C47.9738 25.6969 45.2189 25.0375 42.4283 25.0667C39.6377 25.0959 36.8972 25.8129 34.4492 27.1542L30.7283 21.568C30.8679 21.419 30.9981 21.2514 31.119 21.0932C32.0838 19.838 32.7246 18.3642 32.9848 16.8022C33.245 15.2401 33.1166 13.638 32.6108 12.1375C32.1051 10.6369 31.2377 9.28429 30.0853 8.19916C28.9329 7.11404 27.5311 6.32989 26.0038 5.91609C24.4765 5.50229 22.8709 5.47159 21.329 5.82671C19.787 6.18182 18.3563 6.91181 17.1633 7.95209C15.9704 8.99237 15.052 10.3109 14.4893 11.791C13.9267 13.2711 13.7372 14.8671 13.9376 16.438C14.2668 18.9716 15.587 21.271 17.6083 22.8315C19.6296 24.392 22.1869 25.0861 24.719 24.7614C25.6833 24.6376 26.6238 24.3709 27.5097 23.97L31.2306 29.4725C29.9274 30.6588 28.8164 32.0408 27.9376 33.569C26.4849 36.0568 25.6849 38.8722 25.612 41.7528L19.4353 42.4697C18.6953 40.2864 17.1878 38.4467 15.1934 37.2931L15.0911 37.2373C12.9204 36.0162 10.3563 35.7009 7.95489 36.3597C5.55346 37.0186 3.50837 38.5984 2.2632 40.7566L2.21669 40.859C0.994209 43.031 0.677799 45.5981 1.33625 48.0024C1.99471 50.4066 3.57479 52.4534 5.73297 53.698L5.8353 53.7538C8.00227 54.9711 10.5613 55.2842 12.9575 54.6254C15.3537 53.9666 17.3937 52.3889 18.6353 50.2345L18.6911 50.1321C19.4247 48.8362 19.8392 47.384 19.9004 45.8959L25.8911 45.1976C25.9655 45.6352 26.0679 46.0728 26.1795 46.5197C26.7204 48.5296 27.6253 50.423 28.8492 52.1059C31.1035 55.1389 34.1995 57.441 37.7516 58.7255L37.3795 61.0997C35.8374 61.156 34.3328 61.5908 32.9981 62.3659C30.8331 63.6235 29.2537 65.688 28.6053 68.1079C27.9568 70.5277 28.292 73.1061 29.5376 75.2793C30.7941 77.449 32.8591 79.0312 35.2797 79.6787C37.7004 80.3263 40.2788 79.9863 42.4492 78.7334C43.9775 77.8497 45.228 76.5552 46.059 74.9967C46.8901 73.4381 47.2684 71.6779 47.1513 69.9152C47.0341 68.1525 46.4261 66.4579 45.3962 65.0233C44.3662 63.5886 42.9554 62.4713 41.3237 61.7979L41.6958 59.4331C41.9655 59.4331 42.2446 59.4331 42.5237 59.4331C48.6632 59.4331 54.7562 55.439 57.6213 50.0669C57.7051 49.918 57.7795 49.7597 57.8632 49.6014L59.9097 50.3462C59.7283 51.3998 59.7283 52.4768 59.9097 53.5304C60.1238 54.7817 60.5827 55.9784 61.2599 57.0519C61.9371 58.1253 62.8194 59.0544 63.8562 59.7859C64.8929 60.5173 66.0638 61.0367 67.3015 61.3143C68.5393 61.5919 69.8196 61.6222 71.0691 61.4034C72.3186 61.1847 73.5126 60.7212 74.5828 60.0396C75.6529 59.358 76.5781 58.4717 77.3052 57.4314C78.0323 56.3912 78.5471 55.2175 78.8201 53.9777C79.093 52.7379 79.1187 51.4564 78.8958 50.2066L78.933 50.2717ZM28.5237 19.0728C27.5298 20.3693 26.0728 21.2301 24.4585 21.4749H24.1888C22.5694 21.6551 20.9429 21.2028 19.6484 20.2125C18.3539 19.2221 17.4912 17.77 17.2399 16.1587C17.2491 16.072 17.2491 15.9846 17.2399 15.898C17.1243 14.867 17.2636 13.8234 17.6456 12.8589C18.0275 11.8944 18.6404 11.0387 19.4304 10.367C20.2204 9.69522 21.1631 9.22808 22.1758 9.00663C23.1885 8.78518 24.2401 8.8162 25.2379 9.09697C26.2358 9.37774 27.1495 9.89966 27.8986 10.6168C28.6476 11.3339 29.2091 12.2243 29.5336 13.2096C29.8582 14.1949 29.9358 15.245 29.7597 16.2674C29.5836 17.2897 29.1591 18.2531 28.5237 19.0728ZM15.8167 48.5028V48.5773C15.0075 49.9895 13.673 51.024 12.1044 51.4548C10.5358 51.8857 8.86065 51.6779 7.4446 50.8769H7.37018C5.95915 50.0671 4.92557 48.7314 4.49508 47.1614C4.0646 45.5915 4.27218 43.9149 5.07251 42.4976V42.4231C5.87835 41.0074 7.21224 39.9694 8.78167 39.5365C10.3511 39.1037 12.028 39.3114 13.4446 40.1142H13.519C14.9282 40.9258 15.9602 42.2615 16.3904 43.8307C16.8207 45.3999 16.6145 47.0756 15.8167 48.4935V48.5028ZM54.7097 13.8497C55.3617 13.0754 56.1942 12.4738 57.1338 12.0981C58.0733 11.7225 59.0908 11.5842 60.0963 11.6957C61.1019 11.8071 62.0646 12.1648 62.8992 12.7371C63.7338 13.3094 64.4147 14.0787 64.8816 14.977C65.3486 15.8753 65.5872 16.8749 65.5764 17.8874C65.5656 18.9 65.3057 19.8942 64.8197 20.7824C64.3337 21.6705 63.6366 22.4251 62.7899 22.9794C61.9433 23.5338 60.9732 23.8708 59.9655 23.9607H59.8632C58.2533 24.0821 56.6605 23.5639 55.4295 22.5184C54.1986 21.4728 53.4287 19.9841 53.2865 18.3745V18.2628C53.1658 16.6621 53.6767 15.0778 54.7097 13.8497ZM43.0446 67.4866C43.8583 68.8847 44.0901 70.5471 43.6898 72.1148C43.2895 73.6826 42.2893 75.0298 40.9051 75.8659L40.719 75.9683C39.3273 76.7504 37.6857 76.9584 36.1431 76.5481C34.6005 76.1378 33.2787 75.1415 32.4586 73.771L32.3469 73.5941C31.5721 72.1982 31.368 70.5561 31.7773 69.0127C32.1867 67.4693 33.1777 66.1448 34.5423 65.3172L34.7283 65.2148C36.1353 64.4265 37.7953 64.2229 39.3508 64.6478C40.9063 65.0728 42.2328 66.0922 43.0446 67.4866ZM42.8865 56.0535C40.1267 56.0535 37.429 55.2344 35.1343 53.6999C32.8397 52.1653 31.0512 49.9842 29.9951 47.4323C28.939 44.8805 28.6627 42.0725 29.2011 39.3634C29.7395 36.6544 31.0684 34.166 33.0199 32.2129C34.9713 30.2598 37.4576 28.9297 40.1643 28.3908C42.871 27.8519 45.6766 28.1285 48.2262 29.1855C50.7759 30.2425 52.9551 32.0325 54.4884 34.3291C56.0216 36.6258 56.8399 39.3258 56.8399 42.088C56.8399 45.7918 55.3699 49.344 52.7531 51.9631C50.1363 54.5821 46.5872 56.0535 42.8865 56.0535ZM74.6167 55.5693C73.7758 56.7711 72.5444 57.6438 71.1325 58.0387C69.7207 58.4335 68.2157 58.3261 66.8741 57.7346C65.5325 57.1432 64.4374 56.1044 63.7755 54.7953C63.1135 53.4861 62.9257 51.9878 63.244 50.5556C63.5623 49.1233 64.367 47.846 65.521 46.9411C66.6751 46.0363 68.1069 45.5601 69.5724 45.5936C71.038 45.6271 72.4466 46.1683 73.5581 47.1249C74.6696 48.0816 75.4152 49.3944 75.6679 50.8397C75.9569 52.4933 75.5789 54.1942 74.6167 55.5693Z" stroke="url(#paint1_linear_757_11737)" stroke-width="0.25" stroke-miterlimit="10"/>
<path d="M46.7376 37.2002H43.3701C43.1234 37.2002 42.8868 37.2983 42.7124 37.4729C42.5379 37.6475 42.4399 37.8843 42.4399 38.1312V45.8309C42.4055 45.9682 42.4029 46.1115 42.4321 46.25C42.4614 46.3884 42.5218 46.5184 42.6088 46.63C42.6958 46.7416 42.8071 46.8318 42.9342 46.8939C43.0613 46.956 43.2008 46.9883 43.3422 46.9883C43.4836 46.9883 43.6232 46.956 43.7503 46.8939C43.8773 46.8318 43.9886 46.7416 44.0756 46.63C44.1626 46.5184 44.223 46.3884 44.2523 46.25C44.2816 46.1115 44.2789 45.9682 44.2445 45.8309V43.8199H46.7097C47.1587 43.8437 47.6079 43.7758 48.0298 43.6202C48.4518 43.4646 48.8376 43.2247 49.1639 42.915C49.4902 42.6053 49.75 42.2324 49.9276 41.8189C50.1052 41.4054 50.1967 40.9601 50.1967 40.51C50.1967 40.06 50.1052 39.6146 49.9276 39.2012C49.75 38.7877 49.4902 38.4147 49.1639 38.1051C48.8376 37.7954 48.4518 37.5554 48.0298 37.3999C47.6079 37.2443 47.1587 37.1764 46.7097 37.2002H46.7376ZM46.7376 42.0137H44.2725V39.0064H46.7376C46.9448 38.9901 47.1532 39.0168 47.3496 39.085C47.546 39.1531 47.7261 39.2612 47.8788 39.4025C48.0314 39.5437 48.1532 39.715 48.2365 39.9056C48.3198 40.0962 48.3629 40.302 48.3629 40.51C48.3629 40.7181 48.3198 40.9239 48.2365 41.1145C48.1532 41.3051 48.0314 41.4764 47.8788 41.6176C47.7261 41.7588 47.546 41.8669 47.3496 41.9351C47.1532 42.0032 46.9448 42.03 46.7376 42.0137Z" fill="url(#paint2_linear_757_11737)"/>
<path d="M38.4399 37.787C38.3728 37.6181 38.2577 37.4726 38.109 37.3683C37.9602 37.2641 37.7842 37.2057 37.6027 37.2004H36.6725C36.4893 37.2039 36.3113 37.2615 36.1607 37.3658C36.0101 37.4702 35.8937 37.6167 35.8259 37.787L32.9422 45.4866C32.863 45.6033 32.8112 45.7364 32.7909 45.876C32.7706 46.0156 32.7823 46.158 32.825 46.2924C32.8678 46.4268 32.9405 46.5498 33.0376 46.652C33.1348 46.7542 33.2539 46.8329 33.3859 46.8823C33.5179 46.9316 33.6594 46.9503 33.7997 46.937C33.94 46.9236 34.0755 46.8785 34.1958 46.805C34.3161 46.7316 34.4182 46.6317 34.4943 46.513C34.5705 46.3943 34.6187 46.2598 34.6352 46.1197L35.1376 44.7791H39.1748L39.6771 46.1197C39.7448 46.2901 39.8613 46.4366 40.0119 46.5409C40.1625 46.6453 40.3405 46.7028 40.5236 46.7063C40.6315 46.7062 40.7385 46.6873 40.8399 46.6504C41.0601 46.5609 41.2377 46.3905 41.3363 46.1741C41.4349 45.9577 41.447 45.7117 41.3701 45.4866L38.4399 37.787ZM35.7701 42.9822L37.119 39.3884L38.4585 42.9822H35.7701Z" fill="url(#paint3_linear_757_11737)"/>
<path d="M52.0307 37.2004C51.7839 37.2004 51.5473 37.2985 51.3729 37.4731C51.1984 37.6477 51.1004 37.8845 51.1004 38.1315V45.8311C51.066 45.9684 51.0634 46.1117 51.0927 46.2502C51.1219 46.3887 51.1824 46.5186 51.2694 46.6302C51.3564 46.7418 51.4676 46.8321 51.5947 46.8941C51.7218 46.9562 51.8613 46.9885 52.0027 46.9885C52.1442 46.9885 52.2837 46.9562 52.4108 46.8941C52.5379 46.8321 52.6491 46.7418 52.7361 46.6302C52.8231 46.5186 52.8835 46.3887 52.9128 46.2502C52.9421 46.1117 52.9394 45.9684 52.9051 45.8311V38.1035C52.8985 37.8708 52.8051 37.6491 52.6432 37.4819C52.4814 37.3147 52.2628 37.2143 52.0307 37.2004Z" fill="url(#paint4_linear_757_11737)"/>
<path d="M77.1461 45.6927C77.1461 48.8433 76.8462 51.4028 76.4769 51.4028C76.1075 51.4028 75.799 48.8433 75.799 45.6927C75.799 42.5422 76.1118 40 76.4769 40C76.8419 40 77.1461 42.5378 77.1461 45.6927Z" fill="url(#paint5_radial_757_11737)"/>
<path d="M76.4776 46.3532C73.327 46.3532 70.7675 46.0534 70.7675 45.684C70.7675 45.3146 73.327 45.0061 76.4776 45.0061C79.6281 45.0061 82.1703 45.319 82.1703 45.684C82.1703 46.049 79.6325 46.3532 76.4776 46.3532Z" fill="url(#paint6_radial_757_11737)"/>
<path d="M21.4018 5.69271C21.4018 8.84326 21.102 11.4028 20.7326 11.4028C20.3632 11.4028 20.0547 8.84326 20.0547 5.69271C20.0547 2.54216 20.3676 0 20.7326 0C21.0976 0 21.4018 2.53782 21.4018 5.69271Z" fill="url(#paint7_radial_757_11737)"/>
<path d="M20.7334 6.35323C17.5829 6.35323 15.0233 6.05339 15.0233 5.68401C15.0233 5.31464 17.5829 5.0061 20.7334 5.0061C23.884 5.0061 26.4261 5.31899 26.4261 5.68401C26.4261 6.04904 23.8883 6.35323 20.7334 6.35323Z" fill="url(#paint8_radial_757_11737)"/>
<defs>
<linearGradient id="paint0_linear_757_11737" x1="63.7515" y1="73.5383" x2="14.8542" y2="-3.69942" gradientUnits="userSpaceOnUse">
<stop stop-color="white" stop-opacity="0.9"/>
<stop offset="0.04" stop-color="white" stop-opacity="0.85"/>
<stop offset="0.28" stop-color="white" stop-opacity="0.5"/>
<stop offset="0.65" stop-color="#FAFBFC" stop-opacity="0.4"/>
<stop offset="1" stop-color="#F0EFEF" stop-opacity="0.3"/>
</linearGradient>
<linearGradient id="paint1_linear_757_11737" x1="60.0306" y1="69.3487" x2="27.9001" y2="22.8229" gradientUnits="userSpaceOnUse">
<stop stop-color="white" stop-opacity="0.9"/>
<stop offset="0.28" stop-color="white" stop-opacity="0.5"/>
<stop offset="0.65" stop-color="#FAFBFC" stop-opacity="0.4"/>
<stop offset="1" stop-color="#F0EFEF" stop-opacity="0"/>
</linearGradient>
<linearGradient id="paint2_linear_757_11737" x1="46.2538" y1="46.7061" x2="46.2538" y2="37.2002" gradientUnits="userSpaceOnUse">
<stop stop-color="#79A540"/>
<stop offset="0.2" stop-color="#94C63D"/>
<stop offset="0.39" stop-color="#98CA3C"/>
<stop offset="0.59" stop-color="#93C53E"/>
<stop offset="0.74" stop-color="#9DCB3B"/>
<stop offset="0.9" stop-color="#A6CE39"/>
<stop offset="1" stop-color="#A6CE39"/>
</linearGradient>
<linearGradient id="paint3_linear_757_11737" x1="37.119" y1="46.7063" x2="37.119" y2="37.2004" gradientUnits="userSpaceOnUse">
<stop stop-color="#79A540"/>
<stop offset="0.2" stop-color="#94C63D"/>
<stop offset="0.39" stop-color="#98CA3C"/>
<stop offset="0.59" stop-color="#93C53E"/>
<stop offset="0.74" stop-color="#9DCB3B"/>
<stop offset="0.9" stop-color="#A6CE39"/>
<stop offset="1" stop-color="#A6CE39"/>
</linearGradient>
<linearGradient id="paint4_linear_757_11737" x1="52.0306" y1="46.7063" x2="52.0306" y2="37.2004" gradientUnits="userSpaceOnUse">
<stop stop-color="#79A540"/>
<stop offset="0.2" stop-color="#94C63D"/>
<stop offset="0.39" stop-color="#98CA3C"/>
<stop offset="0.59" stop-color="#93C53E"/>
<stop offset="0.74" stop-color="#9DCB3B"/>
<stop offset="0.9" stop-color="#A6CE39"/>
<stop offset="1" stop-color="#A6CE39"/>
</linearGradient>
<radialGradient id="paint5_radial_757_11737" cx="0" cy="0" r="1" gradientUnits="userSpaceOnUse" gradientTransform="translate(76.3698 46.1092) scale(0.666438 5.71409)">
<stop stop-color="white"/>
<stop offset="0.07" stop-color="white" stop-opacity="0.93"/>
<stop offset="1" stop-color="white" stop-opacity="0"/>
</radialGradient>
<radialGradient id="paint6_radial_757_11737" cx="0" cy="0" r="1" gradientUnits="userSpaceOnUse" gradientTransform="translate(76.0611 45.5769) rotate(90) scale(0.666438 5.71409)">
<stop stop-color="white"/>
<stop offset="0.07" stop-color="white" stop-opacity="0.93"/>
<stop offset="1" stop-color="white" stop-opacity="0"/>
</radialGradient>
<radialGradient id="paint7_radial_757_11737" cx="0" cy="0" r="1" gradientUnits="userSpaceOnUse" gradientTransform="translate(20.6255 6.10919) scale(0.666438 5.71409)">
<stop stop-color="white"/>
<stop offset="0.07" stop-color="white" stop-opacity="0.93"/>
<stop offset="1" stop-color="white" stop-opacity="0"/>
</radialGradient>
<radialGradient id="paint8_radial_757_11737" cx="0" cy="0" r="1" gradientUnits="userSpaceOnUse" gradientTransform="translate(20.317 5.57694) rotate(90) scale(0.666438 5.71409)">
<stop stop-color="white"/>
<stop offset="0.07" stop-color="white" stop-opacity="0.93"/>
<stop offset="1" stop-color="white" stop-opacity="0"/>
</radialGradient>
</defs>
</svg>
