<svg width="82" height="82" viewBox="0 0 82 82" fill="none" xmlns="http://www.w3.org/2000/svg">
<path fill-rule="evenodd" clip-rule="evenodd" d="M13.473 57.2898H76.3657C79.2393 57.2898 81.5833 59.0816 81.5833 61.2565V77.0332C81.5833 79.2082 79.2281 81 76.3657 81H13.473C10.6106 81 8.25537 79.2194 8.25537 77.0332V61.2565C8.25537 59.0703 10.5993 57.2898 13.473 57.2898ZM65.029 63.2286C65.029 62.7235 65.2297 62.2391 65.5868 61.8819C65.944 61.5248 66.4284 61.3241 66.9335 61.3241C67.4386 61.3241 67.923 61.5248 68.2802 61.8819C68.6373 62.2391 68.838 62.7235 68.838 63.2286V65.674L70.8889 64.2992C71.3074 64.0197 71.8197 63.9179 72.3131 64.0162C72.8066 64.1145 73.2408 64.4048 73.5203 64.8232C73.7997 65.2416 73.9015 65.7539 73.8032 66.2474C73.705 66.7408 73.4147 67.1751 72.9963 67.4545L70.3593 69.2238L72.9963 70.9705C73.2042 71.1081 73.383 71.2853 73.5224 71.492C73.6618 71.6988 73.7592 71.9309 73.8089 72.1753C73.8586 72.4196 73.8597 72.6714 73.8121 72.9161C73.7645 73.1609 73.6692 73.3939 73.5315 73.6018C73.3939 73.8097 73.2167 73.9885 73.01 74.1279C72.8032 74.2674 72.5711 74.3647 72.3267 74.4144C72.0824 74.4641 71.8307 74.4652 71.5859 74.4176C71.3411 74.37 71.1081 74.2747 70.9002 74.1371L68.838 72.7735V75.2414C68.838 75.7465 68.6373 76.231 68.2802 76.5881C67.923 76.9453 67.4386 77.1459 66.9335 77.1459C66.4284 77.1459 65.944 76.9453 65.5868 76.5881C65.2297 76.231 65.029 75.7465 65.029 75.2414V72.8073L62.9893 74.1709C62.5709 74.4503 62.0586 74.5521 61.5651 74.4538C61.0717 74.3556 60.6374 74.0653 60.358 73.6469C60.0785 73.2284 59.9768 72.7162 60.075 72.2227C60.1733 71.7292 60.4636 71.295 60.882 71.0155L63.5077 69.2576L60.8707 67.4996C60.4508 67.2216 60.1585 66.7883 60.0581 66.2948C59.9577 65.8013 60.0575 65.2882 60.3354 64.8683C60.6134 64.4483 61.0468 64.156 61.5403 64.0556C62.0337 63.9553 62.5469 64.055 62.9668 64.333L65.029 65.674V63.2286ZM20.7866 63.2286C20.7866 62.7235 20.9872 62.2391 21.3444 61.8819C21.7016 61.5248 22.186 61.3241 22.6911 61.3241C23.1962 61.3241 23.6806 61.5248 24.0377 61.8819C24.3949 62.2391 24.5955 62.7235 24.5955 63.2286V65.674L26.6465 64.2992C27.0649 64.0197 27.5772 63.9179 28.0707 64.0162C28.5642 64.1145 28.9984 64.4048 29.2778 64.8232C29.5573 65.2416 29.6591 65.7539 29.5608 66.2474C29.4625 66.7408 29.1723 67.1751 28.7538 67.4545L26.1394 69.2463L28.7764 70.993C28.9843 71.1306 29.1631 71.3079 29.3025 71.5146C29.4419 71.7213 29.5393 71.9535 29.589 72.1978C29.6387 72.4422 29.6398 72.6939 29.5922 72.9387C29.5446 73.1834 29.4493 73.4164 29.3117 73.6243C29.174 73.8323 28.9968 74.011 28.7901 74.1505C28.5833 74.2899 28.3512 74.3872 28.1069 74.4369C27.8625 74.4866 27.6108 74.4877 27.366 74.4402C27.1212 74.3926 26.8882 74.2972 26.6803 74.1596L24.6181 72.7961V75.264C24.6181 75.5141 24.5688 75.7617 24.4731 75.9928C24.3774 76.2239 24.2371 76.4338 24.0603 76.6107C23.8834 76.7875 23.6735 76.9278 23.4424 77.0235C23.2114 77.1192 22.9637 77.1685 22.7136 77.1685C22.4635 77.1685 22.2159 77.1192 21.9848 77.0235C21.7537 76.9278 21.5438 76.7875 21.3669 76.6107C21.1901 76.4338 21.0498 76.2239 20.9541 75.9928C20.8584 75.7617 20.8091 75.5141 20.8091 75.264V72.8073L18.7694 74.1709C18.351 74.4503 17.8387 74.5521 17.3452 74.4538C16.8518 74.3556 16.4175 74.0653 16.1381 73.6469C15.8586 73.2284 15.7569 72.7162 15.8551 72.2227C15.9534 71.7292 16.2437 71.295 16.6621 71.0155L19.2991 69.2576L16.6508 67.4996C16.4284 67.3679 16.2351 67.1922 16.0828 66.9834C15.9304 66.7745 15.8222 66.5369 15.7647 66.2848C15.7071 66.0328 15.7015 65.7717 15.7481 65.5174C15.7948 65.2632 15.8927 65.0211 16.0359 64.8059C16.1791 64.5907 16.3646 64.4068 16.5812 64.2657C16.7977 64.1245 17.0407 64.0288 17.2954 63.9846C17.5501 63.9403 17.8112 63.9484 18.0626 64.0083C18.3141 64.0682 18.5508 64.1787 18.7582 64.333L20.7866 65.674V63.2286ZM42.9078 63.2286C42.9078 62.7235 43.1085 62.2391 43.4656 61.8819C43.8228 61.5248 44.3072 61.3241 44.8123 61.3241C45.3174 61.3241 45.8018 61.5248 46.1589 61.8819C46.5161 62.2391 46.7168 62.7235 46.7168 63.2286V65.674L48.7677 64.2992C49.1891 64.0122 49.7073 63.9045 50.2081 63.9996C50.709 64.0947 51.1516 64.3849 51.4385 64.8063C51.7254 65.2277 51.8332 65.7458 51.7381 66.2467C51.643 66.7476 51.3528 67.1901 50.9314 67.477L48.2944 69.2463L50.9314 70.993C51.1393 71.1306 51.3181 71.3079 51.4575 71.5146C51.597 71.7213 51.6943 71.9535 51.744 72.1978C51.7937 72.4422 51.7948 72.6939 51.7472 72.9387C51.6996 73.1834 51.6043 73.4164 51.4667 73.6243C51.329 73.8323 51.1518 74.011 50.9451 74.1505C50.7384 74.2899 50.5062 74.3872 50.2619 74.4369C50.0175 74.4866 49.7658 74.4877 49.521 74.4402C49.2763 74.3926 49.0433 74.2972 48.8353 74.1596L46.7731 72.7961V75.264C46.7731 75.7691 46.5725 76.2535 46.2153 76.6107C45.8581 76.9678 45.3737 77.1685 44.8686 77.1685C44.3635 77.1685 43.8791 76.9678 43.522 76.6107C43.1648 76.2535 42.9642 75.7691 42.9642 75.264V72.8073L40.9244 74.1709C40.7173 74.3093 40.4849 74.4055 40.2405 74.454C39.9961 74.5026 39.7446 74.5025 39.5003 74.4538C39.2559 74.4052 39.0235 74.3089 38.8164 74.1704C38.6093 74.032 38.4315 73.8541 38.2931 73.6469C38.1547 73.4397 38.0585 73.2073 38.01 72.9629C37.9614 72.7186 37.9615 72.467 38.0102 72.2227C38.0588 71.9783 38.1551 71.746 38.2936 71.5389C38.432 71.3317 38.6099 71.1539 38.8171 71.0155L41.4541 69.2576L38.8059 67.4996C38.5834 67.3679 38.3902 67.1922 38.2378 66.9834C38.0855 66.7745 37.9772 66.5369 37.9197 66.2848C37.8622 66.0328 37.8565 65.7717 37.9032 65.5174C37.9498 65.2632 38.0477 65.0211 38.1909 64.8059C38.3341 64.5907 38.5197 64.4068 38.7362 64.2657C38.9527 64.1245 39.1958 64.0288 39.4505 63.9846C39.7051 63.9403 39.9662 63.9484 40.2177 64.0083C40.4691 64.0682 40.7058 64.1787 40.9132 64.333L42.9078 65.674V63.2286Z" fill="url(#paint0_linear_757_11687)"/>
<path fill-rule="evenodd" clip-rule="evenodd" d="M13.473 57.2898H76.3657C79.2393 57.2898 81.5833 59.0816 81.5833 61.2565V77.0332C81.5833 79.2082 79.2281 81 76.3657 81H13.473C10.6106 81 8.25537 79.2194 8.25537 77.0332V61.2565C8.25537 59.0703 10.5993 57.2898 13.473 57.2898ZM65.029 63.2286C65.029 62.7235 65.2297 62.2391 65.5868 61.8819C65.944 61.5248 66.4284 61.3241 66.9335 61.3241C67.4386 61.3241 67.923 61.5248 68.2802 61.8819C68.6373 62.2391 68.838 62.7235 68.838 63.2286V65.674L70.8889 64.2992C71.3074 64.0197 71.8197 63.9179 72.3131 64.0162C72.8066 64.1145 73.2408 64.4048 73.5203 64.8232C73.7997 65.2416 73.9015 65.7539 73.8032 66.2474C73.705 66.7408 73.4147 67.1751 72.9963 67.4545L70.3593 69.2238L72.9963 70.9705C73.2042 71.1081 73.383 71.2853 73.5224 71.492C73.6618 71.6988 73.7592 71.9309 73.8089 72.1753C73.8586 72.4196 73.8597 72.6714 73.8121 72.9161C73.7645 73.1609 73.6692 73.3939 73.5315 73.6018C73.3939 73.8097 73.2167 73.9885 73.01 74.1279C72.8032 74.2674 72.5711 74.3647 72.3267 74.4144C72.0824 74.4641 71.8307 74.4652 71.5859 74.4176C71.3411 74.37 71.1081 74.2747 70.9002 74.1371L68.838 72.7735V75.2414C68.838 75.7465 68.6373 76.231 68.2802 76.5881C67.923 76.9453 67.4386 77.1459 66.9335 77.1459C66.4284 77.1459 65.944 76.9453 65.5868 76.5881C65.2297 76.231 65.029 75.7465 65.029 75.2414V72.8073L62.9893 74.1709C62.5709 74.4503 62.0586 74.5521 61.5651 74.4538C61.0717 74.3556 60.6374 74.0653 60.358 73.6469C60.0785 73.2284 59.9768 72.7162 60.075 72.2227C60.1733 71.7292 60.4636 71.295 60.882 71.0155L63.5077 69.2576L60.8707 67.4996C60.4508 67.2216 60.1585 66.7883 60.0581 66.2948C59.9577 65.8013 60.0575 65.2882 60.3354 64.8683C60.6134 64.4483 61.0468 64.156 61.5403 64.0556C62.0337 63.9553 62.5469 64.055 62.9668 64.333L65.029 65.674V63.2286ZM20.7866 63.2286C20.7866 62.7235 20.9872 62.2391 21.3444 61.8819C21.7016 61.5248 22.186 61.3241 22.6911 61.3241C23.1962 61.3241 23.6806 61.5248 24.0377 61.8819C24.3949 62.2391 24.5955 62.7235 24.5955 63.2286V65.674L26.6465 64.2992C27.0649 64.0197 27.5772 63.9179 28.0707 64.0162C28.5642 64.1145 28.9984 64.4048 29.2778 64.8232C29.5573 65.2416 29.6591 65.7539 29.5608 66.2474C29.4625 66.7408 29.1723 67.1751 28.7538 67.4545L26.1394 69.2463L28.7764 70.993C28.9843 71.1306 29.1631 71.3079 29.3025 71.5146C29.4419 71.7213 29.5393 71.9535 29.589 72.1978C29.6387 72.4422 29.6398 72.6939 29.5922 72.9387C29.5446 73.1834 29.4493 73.4164 29.3117 73.6243C29.174 73.8323 28.9968 74.011 28.7901 74.1505C28.5833 74.2899 28.3512 74.3872 28.1069 74.4369C27.8625 74.4866 27.6108 74.4877 27.366 74.4402C27.1212 74.3926 26.8882 74.2972 26.6803 74.1596L24.6181 72.7961V75.264C24.6181 75.5141 24.5688 75.7617 24.4731 75.9928C24.3774 76.2239 24.2371 76.4338 24.0603 76.6107C23.8834 76.7875 23.6735 76.9278 23.4424 77.0235C23.2114 77.1192 22.9637 77.1685 22.7136 77.1685C22.4635 77.1685 22.2159 77.1192 21.9848 77.0235C21.7537 76.9278 21.5438 76.7875 21.3669 76.6107C21.1901 76.4338 21.0498 76.2239 20.9541 75.9928C20.8584 75.7617 20.8091 75.5141 20.8091 75.264V72.8073L18.7694 74.1709C18.351 74.4503 17.8387 74.5521 17.3452 74.4538C16.8518 74.3556 16.4175 74.0653 16.1381 73.6469C15.8586 73.2284 15.7569 72.7162 15.8551 72.2227C15.9534 71.7292 16.2437 71.295 16.6621 71.0155L19.2991 69.2576L16.6508 67.4996C16.4284 67.3679 16.2351 67.1922 16.0828 66.9834C15.9304 66.7745 15.8222 66.5369 15.7647 66.2848C15.7071 66.0328 15.7015 65.7717 15.7481 65.5174C15.7948 65.2632 15.8927 65.0211 16.0359 64.8059C16.1791 64.5907 16.3646 64.4068 16.5812 64.2657C16.7977 64.1245 17.0407 64.0288 17.2954 63.9846C17.5501 63.9403 17.8112 63.9484 18.0626 64.0083C18.3141 64.0682 18.5508 64.1787 18.7582 64.333L20.7866 65.674V63.2286ZM42.9078 63.2286C42.9078 62.7235 43.1085 62.2391 43.4656 61.8819C43.8228 61.5248 44.3072 61.3241 44.8123 61.3241C45.3174 61.3241 45.8018 61.5248 46.1589 61.8819C46.5161 62.2391 46.7168 62.7235 46.7168 63.2286V65.674L48.7677 64.2992C49.1891 64.0122 49.7073 63.9045 50.2081 63.9996C50.709 64.0947 51.1516 64.3849 51.4385 64.8063C51.7254 65.2277 51.8332 65.7458 51.7381 66.2467C51.643 66.7476 51.3528 67.1901 50.9314 67.477L48.2944 69.2463L50.9314 70.993C51.1393 71.1306 51.3181 71.3079 51.4575 71.5146C51.597 71.7213 51.6943 71.9535 51.744 72.1978C51.7937 72.4422 51.7948 72.6939 51.7472 72.9387C51.6996 73.1834 51.6043 73.4164 51.4667 73.6243C51.329 73.8323 51.1518 74.011 50.9451 74.1505C50.7384 74.2899 50.5062 74.3872 50.2619 74.4369C50.0175 74.4866 49.7658 74.4877 49.521 74.4402C49.2763 74.3926 49.0433 74.2972 48.8353 74.1596L46.7731 72.7961V75.264C46.7731 75.7691 46.5725 76.2535 46.2153 76.6107C45.8581 76.9678 45.3737 77.1685 44.8686 77.1685C44.3635 77.1685 43.8791 76.9678 43.522 76.6107C43.1648 76.2535 42.9642 75.7691 42.9642 75.264V72.8073L40.9244 74.1709C40.7173 74.3093 40.4849 74.4055 40.2405 74.454C39.9961 74.5026 39.7446 74.5025 39.5003 74.4538C39.2559 74.4052 39.0235 74.3089 38.8164 74.1704C38.6093 74.032 38.4315 73.8541 38.2931 73.6469C38.1547 73.4397 38.0585 73.2073 38.01 72.9629C37.9614 72.7186 37.9615 72.467 38.0102 72.2227C38.0588 71.9783 38.1551 71.746 38.2936 71.5389C38.432 71.3317 38.6099 71.1539 38.8171 71.0155L41.4541 69.2576L38.8059 67.4996C38.5834 67.3679 38.3902 67.1922 38.2378 66.9834C38.0855 66.7745 37.9772 66.5369 37.9197 66.2848C37.8622 66.0328 37.8565 65.7717 37.9032 65.5174C37.9498 65.2632 38.0477 65.0211 38.1909 64.8059C38.3341 64.5907 38.5197 64.4068 38.7362 64.2657C38.9527 64.1245 39.1958 64.0288 39.4505 63.9846C39.7051 63.9403 39.9662 63.9484 40.2177 64.0083C40.4691 64.0682 40.7058 64.1787 40.9132 64.333L42.9078 65.674V63.2286Z" stroke="url(#paint1_linear_757_11687)" stroke-width="0.7" stroke-miterlimit="10"/>
<path d="M23.4348 42.6286C23.3235 42.7279 23.1936 42.8041 23.0526 42.8527C22.9116 42.9014 22.7624 42.9216 22.6136 42.9122C22.4647 42.9028 22.3192 42.8639 22.1855 42.7978C22.0518 42.7317 21.9325 42.6397 21.8346 42.5272C21.6376 42.3029 21.5377 42.0096 21.5567 41.7117C21.5757 41.4138 21.7122 41.1357 21.9361 40.9382C23.2598 39.7555 24.2178 38.2188 24.697 36.5095C25.2842 34.2361 25.4106 31.8682 25.0689 29.5452C24.478 26.8365 24.3522 24.0471 24.697 21.2962C25.0127 18.8271 25.8917 16.4636 27.2663 14.3883C27.3491 14.2653 27.4553 14.1599 27.5788 14.078C27.7024 13.9961 27.8409 13.9394 27.9864 13.9112C28.1319 13.8829 28.2816 13.8836 28.4268 13.9133C28.572 13.9429 28.71 14.001 28.8327 14.084C28.9573 14.1668 29.0641 14.2736 29.147 14.398C29.2298 14.5225 29.2871 14.6623 29.3154 14.8091C29.3437 14.9559 29.3426 15.107 29.3119 15.2533C29.2813 15.3997 29.2218 15.5385 29.137 15.6617C27.9353 17.4438 27.1637 19.4807 26.8832 21.6118C26.5717 24.1034 26.686 26.6299 27.2213 29.0832C27.2331 29.1427 27.2331 29.204 27.2213 29.2635C27.6136 31.896 27.4601 34.5811 26.7705 37.1518C26.1912 39.2667 25.018 41.1712 23.3898 42.6399L23.4348 42.6286ZM28.6524 42.1553C28.7307 42.0293 28.833 41.92 28.9536 41.8337C29.0742 41.7473 29.2107 41.6857 29.3551 41.6522C29.4996 41.6186 29.6493 41.614 29.7956 41.6385C29.9418 41.6629 30.0818 41.716 30.2076 41.7947C30.3351 41.873 30.4457 41.9758 30.5331 42.0973C30.6204 42.2188 30.6827 42.3565 30.7162 42.5023C30.7498 42.6481 30.754 42.7991 30.7286 42.9466C30.7032 43.094 30.6486 43.235 30.5682 43.3611L28.4496 46.7418C28.3712 46.8676 28.2687 46.9767 28.1481 47.0629C28.0275 47.1491 27.8911 47.2107 27.7467 47.2442C27.6023 47.2777 27.4527 47.2824 27.3065 47.2581C27.1603 47.2338 27.0202 47.1809 26.8945 47.1024C26.7687 47.024 26.6596 46.9216 26.5734 46.801C26.4872 46.6804 26.4256 46.544 26.3921 46.3996C26.3586 46.2551 26.3539 46.1056 26.3782 45.9593C26.4025 45.8131 26.4554 45.6731 26.5338 45.5473L28.6524 42.1553ZM39.4369 43.2822C39.4688 43.1342 39.5294 42.994 39.6154 42.8694C39.7015 42.7449 39.8112 42.6385 39.9383 42.5563C40.0655 42.4742 40.2076 42.4179 40.3564 42.3907C40.5053 42.3634 40.6582 42.3658 40.8061 42.3976C40.9541 42.4294 41.0944 42.4901 41.2189 42.5761C41.3435 42.6621 41.4499 42.7718 41.532 42.899C41.6142 43.0261 41.6705 43.1682 41.6977 43.3171C41.7249 43.466 41.7226 43.6188 41.6908 43.7668L40.7667 47.8913C40.702 48.1824 40.5245 48.4361 40.2732 48.5966C40.0218 48.7572 39.717 48.8115 39.4257 48.7477C39.2803 48.7158 39.1427 48.6553 39.0209 48.5699C38.899 48.4845 38.7953 48.3758 38.7156 48.2501C38.636 48.1243 38.5821 47.9841 38.5569 47.8374C38.5318 47.6907 38.536 47.5405 38.5692 47.3954L39.4369 43.2822ZM40.6315 22.9979C40.5777 22.699 40.6448 22.391 40.8181 22.1416C40.9914 21.8922 41.2567 21.7219 41.5555 21.6681C41.8544 21.6143 42.1624 21.6815 42.4118 21.8547C42.6612 22.028 42.8315 22.2933 42.8853 22.5922C43.4155 25.458 43.6834 28.3662 43.6854 31.2806C43.6896 34.2088 43.4635 37.1327 43.0092 40.0255C42.9425 40.2919 42.7807 40.5248 42.5543 40.6803C42.3279 40.8359 42.0525 40.9034 41.7799 40.8702C41.5072 40.8369 41.2561 40.7053 41.0736 40.4999C40.8912 40.2946 40.7901 40.0297 40.7892 39.755C41.2285 36.978 41.4508 34.171 41.4541 31.3595C41.4461 28.5813 41.1896 25.8093 40.6878 23.0768L40.6315 22.9979ZM33.6221 48.3871C33.4488 48.6322 33.1851 48.7984 32.8893 48.8491C32.5934 48.8998 32.2895 48.8309 32.0444 48.6576C31.7994 48.4842 31.6332 48.2206 31.5825 47.9248C31.5317 47.6289 31.6006 47.325 31.774 47.0799C32.519 46.0266 33.1428 44.8925 33.6334 43.6992C34.1405 42.4062 34.518 41.0662 34.7603 39.6986C35.1283 36.539 35.1283 33.3472 34.7603 30.1875C34.6814 29.0606 34.6025 27.9337 34.5574 26.8744C34.4298 25.3019 34.4979 23.7197 34.7603 22.164C34.9002 21.3348 35.207 20.5426 35.6623 19.8356C36.1175 19.1285 36.7116 18.5213 37.4085 18.0507C37.742 17.8187 38.0966 17.6187 38.4678 17.4535C38.8521 17.2657 39.2517 17.1111 39.6623 16.9914C39.9891 16.9013 40.3159 16.8337 40.6315 16.7773C41.5464 16.5816 42.4944 16.6019 43.4001 16.8367C44.3059 17.0714 45.1444 17.5141 45.8491 18.1296C47.1367 19.3525 48.0511 20.9155 48.486 22.6373C48.6325 23.1782 48.7677 23.7642 48.8692 24.3389C48.8692 24.6544 48.9706 24.9812 49.0044 25.2968C49.0382 25.6123 49.072 25.9504 49.0946 26.2772C49.1847 27.7534 49.2185 29.3762 49.1734 31.0891C48.082 32.3706 47.2341 33.841 46.6717 35.4277C46.934 32.4299 46.9867 29.4175 46.8295 26.4124C46.8295 26.1307 46.8295 25.8489 46.7506 25.5447C46.6717 25.2404 46.6717 24.9925 46.6266 24.7108C46.5365 24.2149 46.435 23.7191 46.2998 23.2458C45.9876 21.9324 45.312 20.7335 44.3503 19.7862C43.8907 19.3936 43.3453 19.1145 42.758 18.9716C42.1707 18.8287 41.5581 18.826 40.9695 18.9635L40.237 19.1326C39.9274 19.2193 39.6258 19.3324 39.3355 19.4706C39.0889 19.5832 38.8515 19.7151 38.6256 19.8651C37.7759 20.4997 37.2093 21.4426 37.0479 22.4908C36.8269 23.8615 36.7739 25.2542 36.8901 26.6378C36.8901 27.6295 37.0141 28.7564 37.093 29.9058C37.4723 33.2547 37.4496 36.6369 37.0254 39.9804C36.7412 41.4983 36.3109 42.9852 35.7407 44.4204V44.488C35.179 45.847 34.4685 47.1396 33.6221 48.342V48.3871ZM47.2577 46.1333C47.0549 46.9672 46.8407 47.756 46.6041 48.4885C46.5604 48.6311 46.4889 48.7636 46.3937 48.8783C46.2985 48.993 46.1815 49.0877 46.0494 49.1569C45.9174 49.2261 45.7729 49.2684 45.6244 49.2813C45.4758 49.2942 45.3262 49.2776 45.1842 49.2323C45.0403 49.1887 44.9067 49.1169 44.791 49.0209C44.6754 48.9249 44.5801 48.8067 44.5108 48.6734C44.4415 48.54 44.3996 48.3942 44.3875 48.2444C44.3754 48.0946 44.3934 47.9439 44.4404 47.8011C45.0812 45.6969 45.5744 43.5506 45.9167 41.3777C46.0733 43.0308 46.5276 44.6419 47.2577 46.1333ZM31.774 38.876C31.7494 39.0228 31.6961 39.1633 31.6169 39.2894C31.5378 39.4154 31.4345 39.5246 31.313 39.6105C31.1914 39.6964 31.0541 39.7574 30.9088 39.7899C30.7636 39.8225 30.6133 39.8259 30.4668 39.8001C30.3179 39.7782 30.175 39.7268 30.0464 39.6488C29.9177 39.5708 29.806 39.4679 29.7178 39.3461C29.6296 39.2242 29.5666 39.086 29.5327 38.9394C29.4988 38.7929 29.4945 38.6411 29.5202 38.4929C29.7711 37.0026 29.9142 35.4961 29.9484 33.9852C29.9484 32.3174 29.9484 30.4805 29.847 28.531C29.847 28.0915 29.7793 27.5731 29.7455 27.066C29.5089 23.6853 29.3173 21.0145 31.2781 17.5211C31.7168 16.747 32.2464 16.0282 32.8558 15.38C33.4934 14.6993 34.2169 14.1045 35.0082 13.6107L35.1772 13.5206C36.318 12.9587 37.5156 12.5204 38.7495 12.2134C39.9411 11.9072 41.1719 11.7819 42.4007 11.8415C42.6996 11.8579 42.9797 11.9924 43.1794 12.2154C43.3791 12.4383 43.4821 12.7315 43.4656 13.0304C43.4492 13.3292 43.3147 13.6093 43.0918 13.8091C42.8688 14.0088 42.5756 14.1117 42.2768 14.0953C41.268 14.0469 40.2576 14.1495 39.2792 14.3996C38.2097 14.6659 37.171 15.0436 36.1802 15.5265C35.5712 15.921 35.008 16.3821 34.5011 16.9013C34.0236 17.4188 33.6077 17.9898 33.2615 18.6029C31.6275 21.5103 31.7965 23.9107 31.9994 26.8857C31.9994 27.3252 32.067 27.7872 32.1008 28.3732C32.2135 30.3679 32.2585 32.2611 32.2022 34.0078C32.1747 35.6283 32.0241 37.2445 31.7514 38.8422L31.774 38.876ZM46.4238 15.3462C46.2748 15.2848 46.1408 15.1921 46.0307 15.0746C45.9205 14.957 45.8369 14.8171 45.7854 14.6645C45.7339 14.5118 45.7158 14.3499 45.7322 14.1896C45.7486 14.0294 45.7991 13.8745 45.8805 13.7354C45.9618 13.5963 46.072 13.4763 46.2036 13.3835C46.3353 13.2906 46.4853 13.227 46.6436 13.1971C46.8019 13.1671 46.9647 13.1714 47.1212 13.2097C47.2777 13.248 47.4241 13.3194 47.5507 13.4191C47.8735 13.6126 48.1858 13.8232 48.486 14.0502C48.8016 14.2869 49.1058 14.5461 49.3988 14.8052C52.6894 17.7915 54.1994 22.2879 54.6727 27.2012C53.918 27.4941 53.1902 27.8523 52.4978 28.2718C52.1597 23.5501 50.8751 19.2565 47.8662 16.4843C47.6367 16.2645 47.3919 16.0612 47.1337 15.8758C46.8919 15.689 46.6399 15.516 46.3787 15.3574L46.4238 15.3462ZM20.3358 38.3689C20.1087 38.5662 19.8125 38.6651 19.5124 38.644C19.2123 38.6228 18.9329 38.4833 18.7356 38.2562C18.5384 38.0291 18.4394 37.7329 18.4606 37.4328C18.4817 37.1327 18.6212 36.8533 18.8483 36.656C19.1179 36.4269 19.3499 36.1569 19.5357 35.8559C19.7557 35.5053 19.9263 35.1261 20.0429 34.729C20.7303 32.5315 20.3133 30.2213 19.8851 27.8774C19.5387 26.2576 19.3462 24.6088 19.3104 22.9528C19.3667 14.2981 24.7759 7.24369 31.8529 3.62631C34.8229 2.10605 38.0779 1.22321 41.409 1.03442C44.7645 0.837944 48.1157 1.48494 51.1568 2.91636C58.0197 6.17312 63.5528 13.791 64.7924 27.2463C64.0347 26.9405 63.2499 26.7066 62.4484 26.5476C61.175 14.5799 56.2279 7.82968 50.1876 4.95606C47.481 3.69312 44.5038 3.12013 41.5217 3.28824C38.5136 3.4617 35.576 4.26811 32.9009 5.65474C26.5113 8.91151 21.6318 15.2335 21.6318 22.9641C21.6679 24.4804 21.849 25.9898 22.1727 27.4717C22.646 30.0974 23.1193 32.6893 22.2629 35.3601C22.0845 35.9428 21.8307 36.4997 21.5078 37.0166C21.1908 37.5262 20.7952 37.9826 20.3358 38.3689ZM34.0278 11.1541C33.7678 11.3035 33.459 11.3435 33.1695 11.2653C32.88 11.1871 32.6334 10.9971 32.4839 10.7371C32.3345 10.4771 32.2945 10.1683 32.3727 9.87881C32.4509 9.58928 32.6409 9.34267 32.9009 9.19324C34.0802 8.51853 35.3313 7.978 36.6309 7.58176C40.1982 6.48494 44.0215 6.54807 47.5507 7.76206C51.3013 9.08377 54.4473 11.7175 56.4082 15.1771C57.1588 16.4999 57.7597 17.9022 58.2 19.358C58.8685 21.5994 59.3102 23.9024 59.5185 26.2321C58.7625 26.2403 58.0086 26.312 57.2646 26.4462C57.0731 24.2552 56.6654 22.0885 56.0476 19.9778C55.6575 18.6902 55.1245 17.4504 54.4586 16.2815C52.7727 13.2891 50.0577 11.0106 46.8182 9.86938C43.741 8.80922 40.4065 8.75398 37.2958 9.71161C36.1547 10.0653 35.0581 10.5493 34.0278 11.1541Z" fill="url(#paint2_linear_757_11687)"/>
<path d="M23.4348 42.6286C23.3235 42.7279 23.1936 42.8041 23.0526 42.8527C22.9116 42.9014 22.7624 42.9216 22.6136 42.9122C22.4647 42.9028 22.3192 42.8639 22.1855 42.7978C22.0518 42.7317 21.9325 42.6397 21.8346 42.5272C21.6376 42.3029 21.5377 42.0096 21.5567 41.7117C21.5757 41.4138 21.7122 41.1357 21.9361 40.9382C23.2598 39.7555 24.2178 38.2188 24.697 36.5095C25.2842 34.2361 25.4106 31.8682 25.0689 29.5452C24.478 26.8365 24.3522 24.0471 24.697 21.2962C25.0127 18.8271 25.8917 16.4636 27.2663 14.3883C27.3491 14.2653 27.4553 14.1599 27.5788 14.078C27.7024 13.9961 27.8409 13.9394 27.9864 13.9112C28.1319 13.8829 28.2816 13.8836 28.4268 13.9133C28.572 13.9429 28.71 14.001 28.8327 14.084C28.9573 14.1668 29.0641 14.2736 29.147 14.398C29.2298 14.5225 29.2871 14.6623 29.3154 14.8091C29.3437 14.9559 29.3426 15.107 29.3119 15.2533C29.2813 15.3997 29.2218 15.5385 29.137 15.6617C27.9353 17.4438 27.1637 19.4807 26.8832 21.6118C26.5717 24.1034 26.686 26.6299 27.2213 29.0832C27.2331 29.1427 27.2331 29.204 27.2213 29.2635C27.6136 31.896 27.4601 34.5811 26.7705 37.1518C26.1912 39.2667 25.018 41.1712 23.3898 42.6399L23.4348 42.6286ZM28.6524 42.1553C28.7307 42.0293 28.833 41.92 28.9536 41.8337C29.0742 41.7473 29.2107 41.6857 29.3551 41.6522C29.4996 41.6186 29.6493 41.614 29.7956 41.6385C29.9418 41.6629 30.0818 41.716 30.2076 41.7947C30.3351 41.873 30.4457 41.9758 30.5331 42.0973C30.6204 42.2188 30.6827 42.3565 30.7162 42.5023C30.7498 42.6481 30.754 42.7991 30.7286 42.9466C30.7032 43.094 30.6486 43.235 30.5682 43.3611L28.4496 46.7418C28.3712 46.8676 28.2687 46.9767 28.1481 47.0629C28.0275 47.1491 27.8911 47.2107 27.7467 47.2442C27.6023 47.2777 27.4527 47.2824 27.3065 47.2581C27.1603 47.2338 27.0202 47.1809 26.8945 47.1024C26.7687 47.024 26.6596 46.9216 26.5734 46.801C26.4872 46.6804 26.4256 46.544 26.3921 46.3996C26.3586 46.2551 26.3539 46.1056 26.3782 45.9593C26.4025 45.8131 26.4554 45.6731 26.5338 45.5473L28.6524 42.1553ZM39.4369 43.2822C39.4688 43.1342 39.5294 42.994 39.6154 42.8694C39.7015 42.7449 39.8112 42.6385 39.9383 42.5563C40.0655 42.4742 40.2076 42.4179 40.3564 42.3907C40.5053 42.3634 40.6582 42.3658 40.8061 42.3976C40.9541 42.4294 41.0944 42.4901 41.2189 42.5761C41.3435 42.6621 41.4499 42.7718 41.532 42.899C41.6142 43.0261 41.6705 43.1682 41.6977 43.3171C41.7249 43.466 41.7226 43.6188 41.6908 43.7668L40.7667 47.8913C40.702 48.1824 40.5245 48.4361 40.2732 48.5966C40.0218 48.7572 39.717 48.8115 39.4257 48.7477C39.2803 48.7158 39.1427 48.6553 39.0209 48.5699C38.899 48.4845 38.7953 48.3758 38.7156 48.2501C38.636 48.1243 38.5821 47.9841 38.5569 47.8374C38.5318 47.6907 38.536 47.5405 38.5692 47.3954L39.4369 43.2822ZM40.6315 22.9979C40.5777 22.699 40.6448 22.391 40.8181 22.1416C40.9914 21.8922 41.2567 21.7219 41.5555 21.6681C41.8544 21.6143 42.1624 21.6815 42.4118 21.8547C42.6612 22.028 42.8315 22.2933 42.8853 22.5922C43.4155 25.458 43.6834 28.3662 43.6854 31.2806C43.6896 34.2088 43.4635 37.1327 43.0092 40.0255C42.9425 40.2919 42.7807 40.5248 42.5543 40.6803C42.3279 40.8359 42.0525 40.9034 41.7799 40.8702C41.5072 40.8369 41.2561 40.7053 41.0736 40.4999C40.8912 40.2946 40.7901 40.0297 40.7892 39.755C41.2285 36.978 41.4508 34.171 41.4541 31.3595C41.4461 28.5813 41.1896 25.8093 40.6878 23.0768L40.6315 22.9979ZM33.6221 48.3871C33.4488 48.6322 33.1851 48.7984 32.8893 48.8491C32.5934 48.8998 32.2895 48.8309 32.0444 48.6576C31.7994 48.4842 31.6332 48.2206 31.5825 47.9248C31.5317 47.6289 31.6006 47.325 31.774 47.0799C32.519 46.0266 33.1428 44.8925 33.6334 43.6992C34.1405 42.4062 34.518 41.0662 34.7603 39.6986C35.1283 36.539 35.1283 33.3472 34.7603 30.1875C34.6814 29.0606 34.6025 27.9337 34.5574 26.8744C34.4298 25.3019 34.4979 23.7197 34.7603 22.164C34.9002 21.3348 35.207 20.5426 35.6623 19.8356C36.1175 19.1285 36.7116 18.5213 37.4085 18.0507C37.742 17.8187 38.0966 17.6187 38.4678 17.4535C38.8521 17.2657 39.2517 17.1111 39.6623 16.9914C39.9891 16.9013 40.3159 16.8337 40.6315 16.7773C41.5464 16.5816 42.4944 16.6019 43.4001 16.8367C44.3059 17.0714 45.1444 17.5141 45.8491 18.1296C47.1367 19.3525 48.0511 20.9155 48.486 22.6373C48.6325 23.1782 48.7677 23.7642 48.8692 24.3389C48.8692 24.6544 48.9706 24.9812 49.0044 25.2968C49.0382 25.6123 49.072 25.9504 49.0946 26.2772C49.1847 27.7534 49.2185 29.3762 49.1734 31.0891C48.082 32.3706 47.2341 33.841 46.6717 35.4277C46.934 32.4299 46.9867 29.4175 46.8295 26.4124C46.8295 26.1307 46.8295 25.8489 46.7506 25.5447C46.6717 25.2404 46.6717 24.9925 46.6266 24.7108C46.5365 24.2149 46.435 23.7191 46.2998 23.2458C45.9876 21.9324 45.312 20.7335 44.3503 19.7862C43.8907 19.3936 43.3453 19.1145 42.758 18.9716C42.1707 18.8287 41.5581 18.826 40.9695 18.9635L40.237 19.1326C39.9274 19.2193 39.6258 19.3324 39.3355 19.4706C39.0889 19.5832 38.8515 19.7151 38.6256 19.8651C37.7759 20.4997 37.2093 21.4426 37.0479 22.4908C36.8269 23.8615 36.7739 25.2542 36.8901 26.6378C36.8901 27.6295 37.0141 28.7564 37.093 29.9058C37.4723 33.2547 37.4496 36.6369 37.0254 39.9804C36.7412 41.4983 36.3109 42.9852 35.7407 44.4204V44.488C35.179 45.847 34.4685 47.1396 33.6221 48.342V48.3871ZM47.2577 46.1333C47.0549 46.9672 46.8407 47.756 46.6041 48.4885C46.5604 48.6311 46.4889 48.7636 46.3937 48.8783C46.2985 48.993 46.1815 49.0877 46.0494 49.1569C45.9174 49.2261 45.7729 49.2684 45.6244 49.2813C45.4758 49.2942 45.3262 49.2776 45.1842 49.2323C45.0403 49.1887 44.9067 49.1169 44.791 49.0209C44.6754 48.9249 44.5801 48.8067 44.5108 48.6734C44.4415 48.54 44.3996 48.3942 44.3875 48.2444C44.3754 48.0946 44.3934 47.9439 44.4404 47.8011C45.0812 45.6969 45.5744 43.5506 45.9167 41.3777C46.0733 43.0308 46.5276 44.6419 47.2577 46.1333ZM31.774 38.876C31.7494 39.0228 31.6961 39.1633 31.6169 39.2894C31.5378 39.4154 31.4345 39.5246 31.313 39.6105C31.1914 39.6964 31.0541 39.7574 30.9088 39.7899C30.7636 39.8225 30.6133 39.8259 30.4668 39.8001C30.3179 39.7782 30.175 39.7268 30.0464 39.6488C29.9177 39.5708 29.806 39.4679 29.7178 39.3461C29.6296 39.2242 29.5666 39.086 29.5327 38.9394C29.4988 38.7929 29.4945 38.6411 29.5202 38.4929C29.7711 37.0026 29.9142 35.4961 29.9484 33.9852C29.9484 32.3174 29.9484 30.4805 29.847 28.531C29.847 28.0915 29.7793 27.5731 29.7455 27.066C29.5089 23.6853 29.3173 21.0145 31.2781 17.5211C31.7168 16.747 32.2464 16.0282 32.8558 15.38C33.4934 14.6993 34.2169 14.1045 35.0082 13.6107L35.1772 13.5206C36.318 12.9587 37.5156 12.5204 38.7495 12.2134C39.9411 11.9072 41.1719 11.7819 42.4007 11.8415C42.6996 11.8579 42.9797 11.9924 43.1794 12.2154C43.3791 12.4383 43.4821 12.7315 43.4656 13.0304C43.4492 13.3292 43.3147 13.6093 43.0918 13.8091C42.8688 14.0088 42.5756 14.1117 42.2768 14.0953C41.268 14.0469 40.2576 14.1495 39.2792 14.3996C38.2097 14.6659 37.171 15.0436 36.1802 15.5265C35.5712 15.921 35.008 16.3821 34.5011 16.9013C34.0236 17.4188 33.6077 17.9898 33.2615 18.6029C31.6275 21.5103 31.7965 23.9107 31.9994 26.8857C31.9994 27.3252 32.067 27.7872 32.1008 28.3732C32.2135 30.3679 32.2585 32.2611 32.2022 34.0078C32.1747 35.6283 32.0241 37.2445 31.7514 38.8422L31.774 38.876ZM46.4238 15.3462C46.2748 15.2848 46.1408 15.1921 46.0307 15.0746C45.9205 14.957 45.8369 14.8171 45.7854 14.6645C45.7339 14.5118 45.7158 14.3499 45.7322 14.1896C45.7486 14.0294 45.7991 13.8745 45.8805 13.7354C45.9618 13.5963 46.072 13.4763 46.2036 13.3835C46.3353 13.2906 46.4853 13.227 46.6436 13.1971C46.8019 13.1671 46.9647 13.1714 47.1212 13.2097C47.2777 13.248 47.4241 13.3194 47.5507 13.4191C47.8735 13.6126 48.1858 13.8232 48.486 14.0502C48.8016 14.2869 49.1058 14.5461 49.3988 14.8052C52.6894 17.7915 54.1994 22.2879 54.6727 27.2012C53.918 27.4941 53.1902 27.8523 52.4978 28.2718C52.1597 23.5501 50.8751 19.2565 47.8662 16.4843C47.6367 16.2645 47.3919 16.0612 47.1337 15.8758C46.8919 15.689 46.6399 15.516 46.3787 15.3574L46.4238 15.3462ZM20.3358 38.3689C20.1087 38.5662 19.8125 38.6651 19.5124 38.644C19.2123 38.6228 18.9329 38.4833 18.7356 38.2562C18.5384 38.0291 18.4394 37.7329 18.4606 37.4328C18.4817 37.1327 18.6212 36.8533 18.8483 36.656C19.1179 36.4269 19.3499 36.1569 19.5357 35.8559C19.7557 35.5053 19.9263 35.1261 20.0429 34.729C20.7303 32.5315 20.3133 30.2213 19.8851 27.8774C19.5387 26.2576 19.3462 24.6088 19.3104 22.9528C19.3667 14.2981 24.7759 7.24369 31.8529 3.62631C34.8229 2.10605 38.0779 1.22321 41.409 1.03442C44.7645 0.837944 48.1157 1.48494 51.1568 2.91636C58.0197 6.17312 63.5528 13.791 64.7924 27.2463C64.0347 26.9405 63.2499 26.7066 62.4484 26.5476C61.175 14.5799 56.2279 7.82968 50.1876 4.95606C47.481 3.69312 44.5038 3.12013 41.5217 3.28824C38.5136 3.4617 35.576 4.26811 32.9009 5.65474C26.5113 8.91151 21.6318 15.2335 21.6318 22.9641C21.6679 24.4804 21.849 25.9898 22.1727 27.4717C22.646 30.0974 23.1193 32.6893 22.2629 35.3601C22.0845 35.9428 21.8307 36.4997 21.5078 37.0166C21.1908 37.5262 20.7952 37.9826 20.3358 38.3689ZM34.0278 11.1541C33.7678 11.3035 33.459 11.3435 33.1695 11.2653C32.88 11.1871 32.6334 10.9971 32.4839 10.7371C32.3345 10.4771 32.2945 10.1683 32.3727 9.87881C32.4509 9.58928 32.6409 9.34267 32.9009 9.19324C34.0802 8.51853 35.3313 7.978 36.6309 7.58176C40.1982 6.48494 44.0215 6.54807 47.5507 7.76206C51.3013 9.08377 54.4473 11.7175 56.4082 15.1771C57.1588 16.4999 57.7597 17.9022 58.2 19.358C58.8685 21.5994 59.3102 23.9024 59.5185 26.2321C58.7625 26.2403 58.0086 26.312 57.2646 26.4462C57.0731 24.2552 56.6654 22.0885 56.0476 19.9778C55.6575 18.6902 55.1245 17.4504 54.4586 16.2815C52.7727 13.2891 50.0577 11.0106 46.8182 9.86938C43.741 8.80922 40.4065 8.75398 37.2958 9.71161C36.1547 10.0653 35.0581 10.5493 34.0278 11.1541Z" stroke="url(#paint3_linear_757_11687)" stroke-width="0.25" stroke-miterlimit="10"/>
<path fill-rule="evenodd" clip-rule="evenodd" d="M60.0706 29.3086C62.2994 29.3086 64.4782 29.9695 66.3314 31.2078C68.1846 32.446 69.6289 34.206 70.4819 36.2652C71.3348 38.3243 71.558 40.5902 71.1232 42.7762C70.6883 44.9622 69.6151 46.9701 68.039 48.5461C66.463 50.1221 64.4551 51.1954 62.2691 51.6302C60.0831 52.065 57.8173 51.8419 55.7581 50.989C53.6989 50.136 51.939 48.6916 50.7007 46.8384C49.4624 44.9853 48.8015 42.8065 48.8015 40.5777C48.8015 37.5889 49.9888 34.7226 52.1022 32.6092C54.2155 30.4959 57.0819 29.3086 60.0706 29.3086ZM56.5659 38.8084L58.5718 40.7016L63.3274 35.901C63.7218 35.5066 63.9697 35.1911 64.4543 35.6869L66.0319 37.2984C66.5503 37.8055 66.5165 38.0985 66.0319 38.583L59.4959 45.0064C58.4704 46.0094 58.6507 46.0657 57.6139 45.0064L53.9628 41.3665C53.7374 41.1411 53.7712 40.9045 53.9628 40.6678L55.7771 38.7746C56.0588 38.4816 56.2729 38.5154 56.5546 38.7746L56.5659 38.8084Z" fill="url(#paint4_linear_757_11687)"/>
<path fill-rule="evenodd" clip-rule="evenodd" d="M60.0706 29.3086C62.2994 29.3086 64.4782 29.9695 66.3314 31.2078C68.1846 32.446 69.6289 34.206 70.4819 36.2652C71.3348 38.3243 71.558 40.5902 71.1232 42.7762C70.6883 44.9622 69.6151 46.9701 68.039 48.5461C66.463 50.1221 64.4551 51.1954 62.2691 51.6302C60.0831 52.065 57.8173 51.8419 55.7581 50.989C53.6989 50.136 51.939 48.6916 50.7007 46.8384C49.4624 44.9853 48.8015 42.8065 48.8015 40.5777C48.8015 37.5889 49.9888 34.7226 52.1022 32.6092C54.2155 30.4959 57.0819 29.3086 60.0706 29.3086ZM56.5659 38.8084L58.5718 40.7016L63.3274 35.901C63.7218 35.5066 63.9697 35.1911 64.4543 35.6869L66.0319 37.2984C66.5503 37.8055 66.5165 38.0985 66.0319 38.583L59.4959 45.0064C58.4704 46.0094 58.6507 46.0657 57.6139 45.0064L53.9628 41.3665C53.7374 41.1411 53.7712 40.9045 53.9628 40.6678L55.7771 38.7746C56.0588 38.4816 56.2729 38.5154 56.5546 38.7746L56.5659 38.8084Z" stroke="url(#paint5_linear_757_11687)" stroke-width="0.7" stroke-miterlimit="10"/>
<path d="M10.5627 56.9145C10.5627 62.1317 10.0662 66.3702 9.45451 66.3702C8.84284 66.3702 8.33191 62.1317 8.33191 56.9145C8.33191 51.6973 8.85003 47.4875 9.45451 47.4875C10.059 47.4875 10.5627 51.6901 10.5627 56.9145Z" fill="url(#paint6_radial_757_11687)"/>
<path d="M9.45576 58.0081C4.23857 58.0081 4.83074e-05 57.5116 4.83341e-05 56.8999C4.83609e-05 56.2883 4.23857 55.7773 9.45576 55.7773C14.673 55.7773 18.8827 56.2955 18.8827 56.8999C18.8827 57.5044 14.6802 58.0081 9.45576 58.0081Z" fill="url(#paint7_radial_757_11687)"/>
<path d="M66.0305 27.4103C66.0305 32.6275 65.534 36.866 64.9223 36.866C64.3106 36.866 63.7997 32.6275 63.7997 27.4103C63.7997 22.1931 64.3178 17.9834 64.9223 17.9834C65.5268 17.9834 66.0305 22.1859 66.0305 27.4103Z" fill="url(#paint8_radial_757_11687)"/>
<path d="M64.9234 28.504C59.7062 28.504 55.4677 28.0075 55.4677 27.3958C55.4677 26.7841 59.7062 26.2732 64.9234 26.2732C70.1406 26.2732 74.3503 26.7913 74.3503 27.3958C74.3503 28.0003 70.1478 28.504 64.9234 28.504Z" fill="url(#paint9_radial_757_11687)"/>
<defs>
<linearGradient id="paint0_linear_757_11687" x1="8.25537" y1="69.1449" x2="81.5833" y2="69.1449" gradientUnits="userSpaceOnUse">
<stop stop-color="#79A540"/>
<stop offset="0.2" stop-color="#94C63D"/>
<stop offset="0.39" stop-color="#98CA3C"/>
<stop offset="0.59" stop-color="#93C53E"/>
<stop offset="0.74" stop-color="#9DCB3B"/>
<stop offset="0.9" stop-color="#A6CE39"/>
<stop offset="1" stop-color="#A6CE39"/>
</linearGradient>
<linearGradient id="paint1_linear_757_11687" x1="44.925" y1="81.3831" x2="44.925" y2="56.8954" gradientUnits="userSpaceOnUse">
<stop stop-color="#5DA560"/>
<stop offset="0.2" stop-color="#5CBA47"/>
<stop offset="0.39" stop-color="#98CA3C"/>
<stop offset="0.59" stop-color="#93C53E"/>
<stop offset="0.74" stop-color="#6FBE44"/>
<stop offset="0.9" stop-color="#A6CE39"/>
<stop offset="1" stop-color="#72BF44"/>
</linearGradient>
<linearGradient id="paint2_linear_757_11687" x1="18.4652" y1="25.1615" x2="64.7924" y2="25.1615" gradientUnits="userSpaceOnUse">
<stop stop-color="white" stop-opacity="0.9"/>
<stop offset="0.04" stop-color="white" stop-opacity="0.85"/>
<stop offset="0.28" stop-color="white" stop-opacity="0.5"/>
<stop offset="0.65" stop-color="#FAFBFC" stop-opacity="0.4"/>
<stop offset="1" stop-color="#F0EFEF" stop-opacity="0.3"/>
</linearGradient>
<linearGradient id="paint3_linear_757_11687" x1="41.6344" y1="49.4689" x2="41.6344" y2="0.865382" gradientUnits="userSpaceOnUse">
<stop stop-color="white" stop-opacity="0.9"/>
<stop offset="0.28" stop-color="white" stop-opacity="0.5"/>
<stop offset="0.65" stop-color="#FAFBFC" stop-opacity="0.4"/>
<stop offset="1" stop-color="#F0EFEF" stop-opacity="0.3"/>
</linearGradient>
<linearGradient id="paint4_linear_757_11687" x1="48.779" y1="40.6115" x2="71.3735" y2="40.6115" gradientUnits="userSpaceOnUse">
<stop stop-color="#79A540"/>
<stop offset="0.2" stop-color="#94C63D"/>
<stop offset="0.39" stop-color="#98CA3C"/>
<stop offset="0.59" stop-color="#93C53E"/>
<stop offset="0.74" stop-color="#9DCB3B"/>
<stop offset="0.9" stop-color="#A6CE39"/>
<stop offset="1" stop-color="#A6CE39"/>
</linearGradient>
<linearGradient id="paint5_linear_757_11687" x1="48.3733" y1="40.6115" x2="71.7679" y2="40.6115" gradientUnits="userSpaceOnUse">
<stop stop-color="#5DA560"/>
<stop offset="0.2" stop-color="#5CBA47"/>
<stop offset="0.39" stop-color="#98CA3C"/>
<stop offset="0.59" stop-color="#93C53E"/>
<stop offset="0.74" stop-color="#6FBE44"/>
<stop offset="0.9" stop-color="#A6CE39"/>
<stop offset="1" stop-color="#72BF44"/>
</linearGradient>
<radialGradient id="paint6_radial_757_11687" cx="0" cy="0" r="1" gradientUnits="userSpaceOnUse" gradientTransform="translate(9.27719 57.6042) scale(1.1036 9.46233)">
<stop stop-color="white"/>
<stop offset="0.07" stop-color="white" stop-opacity="0.93"/>
<stop offset="1" stop-color="white" stop-opacity="0"/>
</radialGradient>
<radialGradient id="paint7_radial_757_11687" cx="0" cy="0" r="1" gradientUnits="userSpaceOnUse" gradientTransform="translate(8.76608 56.7226) rotate(90) scale(1.1036 9.46233)">
<stop stop-color="white"/>
<stop offset="0.07" stop-color="white" stop-opacity="0.93"/>
<stop offset="1" stop-color="white" stop-opacity="0"/>
</radialGradient>
<radialGradient id="paint8_radial_757_11687" cx="0" cy="0" r="1" gradientUnits="userSpaceOnUse" gradientTransform="translate(64.745 28.1) scale(1.1036 9.46233)">
<stop stop-color="white"/>
<stop offset="0.07" stop-color="white" stop-opacity="0.93"/>
<stop offset="1" stop-color="white" stop-opacity="0"/>
</radialGradient>
<radialGradient id="paint9_radial_757_11687" cx="0" cy="0" r="1" gradientUnits="userSpaceOnUse" gradientTransform="translate(64.2337 27.2185) rotate(90) scale(1.1036 9.46233)">
<stop stop-color="white"/>
<stop offset="0.07" stop-color="white" stop-opacity="0.93"/>
<stop offset="1" stop-color="white" stop-opacity="0"/>
</radialGradient>
</defs>
</svg>
