<svg width="74" height="82" viewBox="0 0 74 82" fill="none" xmlns="http://www.w3.org/2000/svg">
<path d="M54.369 41.8209C53.5677 41.8375 52.7661 41.8041 51.969 41.7209C51.7458 46.2885 50.1869 50.69 47.4856 54.3799C44.7843 58.0698 41.0594 60.8856 36.7727 62.4783C32.486 64.071 27.8262 64.3705 23.3709 63.3396C18.9156 62.3088 14.8609 59.9929 11.7095 56.6792C8.55803 53.3654 6.44853 49.1996 5.64252 44.6982C4.83651 40.1968 5.36943 35.5578 7.17521 31.3565C8.98099 27.1551 11.9802 23.5762 15.801 21.0634C19.6217 18.5507 24.096 17.2146 28.669 17.2209C29.9747 17.2213 31.2785 17.3216 32.569 17.5209C32.7246 16.0938 33.0262 14.6865 33.469 13.3209C31.8854 13.0348 30.2781 12.9008 28.669 12.9209C24.1699 12.9178 19.738 14.0127 15.7579 16.1104C11.7778 18.2081 8.36973 21.2454 5.82938 24.9587C3.28903 28.6719 1.69317 32.949 1.18027 37.4188C0.667367 41.8885 1.25292 46.4159 2.88613 50.6081C4.51933 54.8003 7.15084 58.5306 10.5523 61.4754C13.9538 64.4201 18.0225 66.4904 22.4053 67.5065C26.7881 68.5226 31.3527 68.4539 35.703 67.3062C40.0532 66.1586 44.0577 63.9668 47.369 60.9209V62.3209C47.3865 62.7386 47.5658 63.1331 47.869 63.4209L64.969 80.5209C65.2816 80.8112 65.6924 80.9725 66.119 80.9725C66.5456 80.9725 66.9564 80.8112 67.269 80.5209L68.569 79.2209C68.8593 78.9083 69.0206 78.4975 69.0206 78.0709C69.0206 77.6443 68.8593 77.2335 68.569 76.9209L51.469 59.8209C51.1811 59.5178 50.7866 59.3385 50.369 59.3209H48.969C53.4047 54.5006 55.9908 48.2657 56.269 41.7209C55.6395 41.8068 55.004 41.8402 54.369 41.8209Z" fill="url(#paint0_linear_757_20185)"/>
<path d="M56.589 19.921V10.001C56.5904 9.89556 56.5706 9.79093 56.5309 9.69326C56.4911 9.59559 56.4323 9.50687 56.3577 9.43231C56.2831 9.35776 56.1944 9.29888 56.0968 9.25915C55.9991 9.21942 55.8945 9.19965 55.789 9.20099H53.589C53.4836 9.19965 53.379 9.21942 53.2813 9.25915C53.1836 9.29888 53.0949 9.35776 53.0203 9.43231C52.9458 9.50687 52.8869 9.59559 52.8472 9.69326C52.8075 9.79093 52.7877 9.89556 52.789 10.001V21.501C52.7855 21.6324 52.8105 21.763 52.8623 21.8839C52.9141 22.0047 52.9914 22.1129 53.089 22.201L58.989 26.501C59.0794 26.5708 59.1832 26.6211 59.294 26.649C59.4047 26.6768 59.52 26.6814 59.6326 26.6627C59.7453 26.6439 59.8528 26.6021 59.9486 26.5399C60.0443 26.4776 60.1262 26.3963 60.189 26.301L61.489 24.501C61.5588 24.4106 61.6092 24.3068 61.637 24.196C61.6648 24.0853 61.6695 23.97 61.6507 23.8574C61.6319 23.7447 61.5901 23.6372 61.5279 23.5415C61.4657 23.4457 61.3843 23.3639 61.289 23.301L56.589 19.921Z" fill="url(#paint1_linear_757_20185)"/>
<path d="M54.3691 1.00097C51.0249 0.995295 47.7394 1.87842 44.8487 3.55993C41.9581 5.24144 39.5663 7.66093 37.9181 10.5707C36.2699 13.4805 35.4246 16.776 35.4687 20.1198C35.5128 23.4636 36.4447 26.7357 38.1691 29.601L34.3691 32.721C34.0076 32.5045 33.5899 32.4001 33.1691 32.421C32.7511 32.4253 32.3399 32.5281 31.9691 32.721L28.1691 29.621C28.1691 29.421 28.2691 29.221 28.2691 29.021C28.2691 28.3049 27.9846 27.6181 27.4783 27.1118C26.9719 26.6054 26.2852 26.321 25.5691 26.321C24.853 26.321 24.1662 26.6054 23.6599 27.1118C23.1535 27.6181 22.8691 28.3049 22.8691 29.021C22.8877 29.3297 22.9552 29.6335 23.0691 29.921L18.8891 34.001C18.6016 33.8871 18.2978 33.8196 17.9891 33.801C17.4887 33.801 16.9983 33.9416 16.574 34.2068C16.1496 34.472 15.8084 34.8512 15.5891 35.301C15.4255 35.6062 15.3316 35.9439 15.3143 36.2897C15.297 36.6356 15.3567 36.981 15.4891 37.301C15.5918 37.6416 15.7715 37.9541 16.0142 38.2141C16.257 38.4742 16.5563 38.675 16.8891 38.801C17.2599 38.9939 17.6711 39.0967 18.0891 39.101C18.6024 39.101 19.1042 38.949 19.5313 38.6643C19.9584 38.3796 20.2916 37.9748 20.4891 37.501C20.652 37.1231 20.7206 36.7113 20.6891 36.301C20.6705 35.9923 20.603 35.6885 20.4891 35.401L24.6891 31.201C24.9766 31.3149 25.2804 31.3824 25.5891 31.401C25.9771 31.4098 26.3593 31.3056 26.6891 31.101L30.4891 34.201C30.4891 34.401 30.3891 34.601 30.3891 34.801C30.3891 35.5171 30.6735 36.2038 31.1799 36.7102C31.6862 37.2165 32.373 37.501 33.0891 37.501C33.8052 37.501 34.4919 37.2165 34.9983 36.7102C35.5046 36.2038 35.7891 35.5171 35.7891 34.801C35.8048 34.5958 35.7705 34.3899 35.6891 34.201L39.3891 31.301C41.1419 33.584 43.3988 35.4308 45.9836 36.6971C48.5683 37.9635 51.4108 38.615 54.2891 38.601C59.2936 38.5747 64.0856 36.575 67.6244 33.0363C71.1631 29.4975 73.1628 24.7055 73.1891 19.701C73.1985 17.2325 72.7172 14.7868 71.7733 12.5059C70.8293 10.225 69.4415 8.15444 67.6904 6.41454C65.9393 4.67463 63.86 3.30008 61.5731 2.37073C59.2862 1.44138 56.8374 0.975777 54.3691 1.00097ZM18.0691 37.101C17.9504 37.101 17.8344 37.0658 17.7357 36.9999C17.6371 36.9339 17.5602 36.8402 17.5147 36.7306C17.4693 36.6209 17.4574 36.5003 17.4806 36.3839C17.5038 36.2675 17.5609 36.1606 17.6448 36.0767C17.7287 35.9928 17.8356 35.9356 17.952 35.9125C18.0684 35.8893 18.189 35.9012 18.2987 35.9466C18.4083 35.9921 18.502 36.069 18.568 36.1676C18.6339 36.2663 18.6691 36.3823 18.6691 36.501C18.6628 36.6567 18.6007 36.8049 18.4943 36.9187C18.3878 37.0325 18.244 37.1043 18.0891 37.121L18.0691 37.101ZM25.5691 29.501C25.4099 29.501 25.2573 29.4378 25.1448 29.3252C25.0323 29.2127 24.9691 29.0601 24.9691 28.901C24.9691 28.7418 25.0323 28.5892 25.1448 28.4767C25.2573 28.3642 25.4099 28.301 25.5691 28.301C25.7397 28.3187 25.897 28.4011 26.0086 28.5314C26.1202 28.6616 26.1777 28.8297 26.1691 29.001C26.1891 29.421 25.9891 29.521 25.5891 29.521L25.5691 29.501ZM33.1691 35.601C33.0504 35.601 32.9344 35.5658 32.8357 35.4999C32.7371 35.4339 32.6602 35.3402 32.6147 35.2306C32.5693 35.1209 32.5574 35.0003 32.5806 34.8839C32.6038 34.7675 32.6609 34.6606 32.7448 34.5767C32.8287 34.4928 32.9356 34.4356 33.052 34.4125C33.1684 34.3893 33.289 34.4012 33.3987 34.4466C33.5083 34.4921 33.602 34.569 33.668 34.6676C33.7339 34.7663 33.7691 34.8823 33.7691 35.001C33.7628 35.1567 33.7007 35.3049 33.5943 35.4187C33.4878 35.5325 33.344 35.6043 33.1891 35.621L33.1691 35.601ZM54.3691 35.201C51.3529 35.2108 48.4016 34.3261 45.8883 32.6586C43.375 30.9912 41.4125 28.6159 40.2492 25.8331C39.0858 23.0503 38.7738 19.9851 39.3525 17.025C39.9312 14.0648 41.3747 11.3428 43.5005 9.20309C45.6262 7.06336 48.3387 5.60204 51.295 5.00392C54.2512 4.40579 57.3185 4.69773 60.1088 5.84281C62.8991 6.9879 65.2873 8.9347 66.9712 11.437C68.6551 13.9394 69.5592 16.8848 69.5691 19.901C69.5862 21.9075 69.2057 23.8976 68.4494 25.7562C67.6931 27.6148 66.576 29.3052 65.1627 30.7296C63.7494 32.1541 62.0679 33.2844 60.2153 34.0553C58.3627 34.8262 56.3757 35.2224 54.3691 35.221V35.201Z" fill="url(#paint2_linear_757_20185)"/>
<path d="M19.6191 46.001H16.6191C16.3024 46.0061 16.0002 46.1342 15.7762 46.3581C15.5523 46.5821 15.4242 46.8843 15.4191 47.201V53.301C15.4242 53.6176 15.5523 53.9199 15.7762 54.1438C16.0002 54.3677 16.3024 54.4958 16.6191 54.501H19.6191C19.9357 54.4958 20.238 54.3677 20.4619 54.1438C20.6858 53.9199 20.8139 53.6176 20.8191 53.301V47.201C20.798 46.8896 20.6648 46.5965 20.4442 46.3759C20.2235 46.1552 19.9304 46.022 19.6191 46.001Z" fill="url(#paint3_linear_757_20185)"/>
<path d="M27.989 38.8409C27.8732 38.7177 27.7339 38.6188 27.5794 38.5501C27.4248 38.4814 27.2581 38.4443 27.089 38.4409H24.089C23.7724 38.4461 23.4701 38.5742 23.2462 38.7981C23.0223 39.022 22.8942 39.3243 22.889 39.6409V53.3409C22.8942 53.6576 23.0223 53.9598 23.2462 54.1838C23.4701 54.4077 23.7724 54.5358 24.089 54.5409H27.089C27.4057 54.5358 27.7079 54.4077 27.9319 54.1838C28.1558 53.9598 28.2839 53.6576 28.289 53.3409V39.7409C28.3017 39.5785 28.2816 39.4151 28.2301 39.2606C28.1786 39.106 28.0966 38.9633 27.989 38.8409Z" fill="url(#paint4_linear_757_20185)"/>
<path d="M34.7491 44.541H31.7491C31.4324 44.5462 31.1302 44.6742 30.9062 44.8982C30.6823 45.1221 30.5542 45.4244 30.5491 45.741V53.341C30.5542 53.6577 30.6823 53.9599 30.9062 54.1838C31.1302 54.4078 31.4324 54.5359 31.7491 54.541H34.7491C35.0657 54.5359 35.368 54.4078 35.5919 54.1838C35.8158 53.9599 35.9439 53.6577 35.9491 53.341V45.741C35.9113 45.4359 35.7727 45.1521 35.5553 44.9348C35.3379 44.7174 35.0542 44.5788 34.7491 44.541Z" fill="url(#paint5_linear_757_20185)"/>
<path d="M42.3691 38.4209H39.3691C39.0524 38.426 38.7502 38.5541 38.5262 38.7781C38.3023 39.002 38.1742 39.3042 38.1691 39.6209V53.3209C38.1742 53.6376 38.3023 53.9398 38.5262 54.1637C38.7502 54.3877 39.0524 54.5157 39.3691 54.5209H42.3691C42.6857 54.5157 42.988 54.3877 43.2119 54.1637C43.4358 53.9398 43.5639 53.6376 43.5691 53.3209V39.5209C43.5277 39.2268 43.3854 38.9562 43.1665 38.7556C42.9475 38.5549 42.6656 38.4366 42.3691 38.4209Z" fill="url(#paint6_linear_757_20185)"/>
<path d="M54.369 41.8209C53.5677 41.8375 52.7661 41.8041 51.969 41.7209C51.7458 46.2885 50.1869 50.69 47.4856 54.3799C44.7843 58.0698 41.0594 60.8856 36.7727 62.4783C32.486 64.071 27.8262 64.3705 23.3709 63.3396C18.9156 62.3087 14.8609 59.9929 11.7095 56.6792C8.55803 53.3654 6.44853 49.1996 5.64252 44.6982C4.83651 40.1968 5.36943 35.5578 7.17521 31.3565C8.98099 27.1551 11.9802 23.5762 15.801 21.0634C19.6217 18.5507 24.096 17.2146 28.669 17.2209C29.9747 17.2213 31.2785 17.3216 32.569 17.5209C32.7246 16.0938 33.0262 14.6865 33.469 13.3209C31.8854 13.0348 30.2781 12.9008 28.669 12.9209C24.1699 12.9178 19.738 14.0127 15.7579 16.1104C11.7778 18.2081 8.36973 21.2454 5.82938 24.9587C3.28903 28.6719 1.69317 32.949 1.18027 37.4188C0.667367 41.8885 1.25292 46.4159 2.88613 50.6081C4.51933 54.8003 7.15084 58.5306 10.5523 61.4754C13.9538 64.4201 18.0225 66.4904 22.4053 67.5065C26.7881 68.5226 31.3527 68.4539 35.703 67.3062C40.0532 66.1586 44.0577 63.9668 47.369 60.9209V62.3209C47.3865 62.7386 47.5658 63.1331 47.869 63.4209L64.969 80.5209C65.2816 80.8112 65.6924 80.9725 66.119 80.9725C66.5456 80.9725 66.9564 80.8112 67.269 80.5209L68.569 79.2209C68.8593 78.9083 69.0206 78.4975 69.0206 78.0709C69.0206 77.6443 68.8593 77.2335 68.569 76.9209L51.469 59.8209C51.1811 59.5178 50.7866 59.3385 50.369 59.3209H48.969C53.4047 54.5006 55.9908 48.2657 56.269 41.7209C55.6395 41.8068 55.004 41.8402 54.369 41.8209Z" stroke="url(#paint7_linear_757_20185)" stroke-width="0.25" stroke-miterlimit="10"/>
<path d="M56.589 19.921V10.001C56.5904 9.89556 56.5706 9.79093 56.5309 9.69326C56.4911 9.59559 56.4323 9.50687 56.3577 9.43231C56.2831 9.35776 56.1944 9.29888 56.0968 9.25915C55.9991 9.21942 55.8945 9.19965 55.789 9.20099H53.589C53.4836 9.19965 53.379 9.21942 53.2813 9.25915C53.1836 9.29888 53.0949 9.35776 53.0203 9.43231C52.9458 9.50687 52.8869 9.59559 52.8472 9.69326C52.8075 9.79093 52.7877 9.89556 52.789 10.001V21.501C52.7855 21.6324 52.8105 21.763 52.8623 21.8839C52.9141 22.0047 52.9914 22.1129 53.089 22.201L58.989 26.501C59.0794 26.5708 59.1832 26.6211 59.294 26.649C59.4047 26.6768 59.52 26.6814 59.6326 26.6627C59.7453 26.6439 59.8528 26.6021 59.9486 26.5399C60.0443 26.4776 60.1262 26.3963 60.189 26.301L61.489 24.501C61.5588 24.4106 61.6092 24.3068 61.637 24.196C61.6648 24.0853 61.6695 23.97 61.6507 23.8574C61.6319 23.7447 61.5901 23.6372 61.5279 23.5415C61.4657 23.4457 61.3843 23.3639 61.289 23.301L56.589 19.921Z" stroke="url(#paint8_linear_757_20185)" stroke-width="0.25" stroke-miterlimit="10"/>
<path d="M54.3691 1.00097C51.0249 0.995295 47.7394 1.87842 44.8487 3.55993C41.9581 5.24144 39.5663 7.66093 37.9181 10.5707C36.2699 13.4805 35.4246 16.776 35.4687 20.1198C35.5128 23.4636 36.4447 26.7357 38.1691 29.601L34.3691 32.721C34.0076 32.5045 33.5899 32.4001 33.1691 32.421C32.7511 32.4253 32.3399 32.5281 31.9691 32.721L28.1691 29.621C28.1691 29.421 28.2691 29.221 28.2691 29.021C28.2691 28.3049 27.9846 27.6181 27.4783 27.1118C26.9719 26.6054 26.2852 26.321 25.5691 26.321C24.853 26.321 24.1662 26.6054 23.6599 27.1118C23.1535 27.6181 22.8691 28.3049 22.8691 29.021C22.8877 29.3297 22.9552 29.6335 23.0691 29.921L18.8891 34.001C18.6016 33.8871 18.2978 33.8196 17.9891 33.801C17.4887 33.801 16.9983 33.9416 16.574 34.2068C16.1496 34.472 15.8084 34.8512 15.5891 35.301C15.4255 35.6062 15.3316 35.9439 15.3143 36.2897C15.297 36.6356 15.3567 36.981 15.4891 37.301C15.5918 37.6416 15.7715 37.9541 16.0142 38.2141C16.257 38.4742 16.5563 38.675 16.8891 38.801C17.2599 38.9939 17.6711 39.0967 18.0891 39.101C18.6024 39.101 19.1042 38.949 19.5313 38.6643C19.9584 38.3796 20.2916 37.9748 20.4891 37.501C20.652 37.1231 20.7206 36.7113 20.6891 36.301C20.6705 35.9923 20.603 35.6885 20.4891 35.401L24.6891 31.201C24.9766 31.3149 25.2804 31.3824 25.5891 31.401C25.9771 31.4098 26.3593 31.3056 26.6891 31.101L30.4891 34.201C30.4891 34.401 30.3891 34.601 30.3891 34.801C30.3891 35.5171 30.6735 36.2038 31.1799 36.7102C31.6862 37.2165 32.373 37.501 33.0891 37.501C33.8052 37.501 34.4919 37.2165 34.9983 36.7102C35.5046 36.2038 35.7891 35.5171 35.7891 34.801C35.8048 34.5958 35.7705 34.3899 35.6891 34.201L39.3891 31.301C41.1419 33.584 43.3988 35.4308 45.9836 36.6971C48.5683 37.9635 51.4108 38.615 54.2891 38.601C59.2936 38.5747 64.0856 36.575 67.6244 33.0363C71.1631 29.4975 73.1628 24.7055 73.1891 19.701C73.1985 17.2325 72.7172 14.7868 71.7733 12.5059C70.8293 10.225 69.4415 8.15444 67.6904 6.41454C65.9393 4.67463 63.86 3.30008 61.5731 2.37073C59.2862 1.44138 56.8374 0.975777 54.3691 1.00097ZM18.0691 37.101C17.9504 37.101 17.8344 37.0658 17.7357 36.9999C17.6371 36.9339 17.5602 36.8402 17.5147 36.7306C17.4693 36.6209 17.4574 36.5003 17.4806 36.3839C17.5038 36.2675 17.5609 36.1606 17.6448 36.0767C17.7287 35.9928 17.8356 35.9356 17.952 35.9125C18.0684 35.8893 18.189 35.9012 18.2987 35.9466C18.4083 35.9921 18.502 36.069 18.568 36.1676C18.6339 36.2663 18.6691 36.3823 18.6691 36.501C18.6628 36.6567 18.6007 36.8049 18.4943 36.9187C18.3878 37.0325 18.244 37.1043 18.0891 37.121L18.0691 37.101ZM25.5691 29.501C25.4099 29.501 25.2573 29.4378 25.1448 29.3252C25.0323 29.2127 24.9691 29.0601 24.9691 28.901C24.9691 28.7418 25.0323 28.5892 25.1448 28.4767C25.2573 28.3642 25.4099 28.301 25.5691 28.301C25.7397 28.3187 25.897 28.4011 26.0086 28.5314C26.1202 28.6616 26.1777 28.8297 26.1691 29.001C26.1891 29.421 25.9891 29.521 25.5891 29.521L25.5691 29.501ZM33.1691 35.601C33.0504 35.601 32.9344 35.5658 32.8357 35.4999C32.7371 35.4339 32.6602 35.3402 32.6147 35.2306C32.5693 35.1209 32.5574 35.0003 32.5806 34.8839C32.6037 34.7675 32.6609 34.6606 32.7448 34.5767C32.8287 34.4928 32.9356 34.4356 33.052 34.4125C33.1684 34.3893 33.289 34.4012 33.3987 34.4466C33.5083 34.4921 33.602 34.569 33.668 34.6676C33.7339 34.7663 33.7691 34.8823 33.7691 35.001C33.7628 35.1567 33.7007 35.3049 33.5943 35.4187C33.4878 35.5325 33.344 35.6043 33.1891 35.621L33.1691 35.601ZM54.3691 35.201C51.3529 35.2108 48.4016 34.3261 45.8883 32.6586C43.375 30.9912 41.4125 28.6159 40.2492 25.8331C39.0858 23.0503 38.7738 19.9851 39.3525 17.025C39.9312 14.0648 41.3747 11.3428 43.5005 9.20309C45.6262 7.06336 48.3387 5.60204 51.295 5.00392C54.2512 4.40579 57.3185 4.69773 60.1088 5.84281C62.8991 6.9879 65.2873 8.9347 66.9712 11.437C68.6551 13.9394 69.5592 16.8848 69.5691 19.901C69.5862 21.9075 69.2057 23.8976 68.4494 25.7562C67.6931 27.6148 66.576 29.3052 65.1627 30.7296C63.7494 32.1541 62.0679 33.2844 60.2153 34.0553C58.3627 34.8262 56.3757 35.2224 54.3691 35.221V35.201Z" stroke="url(#paint9_linear_757_20185)" stroke-width="0.25" stroke-miterlimit="10"/>
<path d="M19.6191 46.001H16.6191C16.3024 46.0061 16.0002 46.1342 15.7762 46.3581C15.5523 46.5821 15.4242 46.8843 15.4191 47.201V53.301C15.4242 53.6176 15.5523 53.9199 15.7762 54.1438C16.0002 54.3677 16.3024 54.4958 16.6191 54.501H19.6191C19.9357 54.4958 20.238 54.3677 20.4619 54.1438C20.6858 53.9199 20.8139 53.6176 20.8191 53.301V47.201C20.798 46.8896 20.6648 46.5965 20.4442 46.3759C20.2235 46.1552 19.9304 46.022 19.6191 46.001Z" stroke="url(#paint10_linear_757_20185)" stroke-width="0.25" stroke-miterlimit="10"/>
<path d="M27.989 38.8409C27.8732 38.7177 27.7339 38.6188 27.5794 38.5501C27.4248 38.4814 27.2581 38.4443 27.089 38.4409H24.089C23.7724 38.4461 23.4701 38.5742 23.2462 38.7981C23.0223 39.022 22.8942 39.3243 22.889 39.6409V53.3409C22.8942 53.6576 23.0223 53.9598 23.2462 54.1838C23.4701 54.4077 23.7724 54.5358 24.089 54.5409H27.089C27.4057 54.5358 27.7079 54.4077 27.9319 54.1838C28.1558 53.9598 28.2839 53.6576 28.289 53.3409V39.7409C28.3017 39.5785 28.2816 39.4151 28.2301 39.2606C28.1786 39.106 28.0966 38.9633 27.989 38.8409Z" stroke="url(#paint11_linear_757_20185)" stroke-width="0.25" stroke-miterlimit="10"/>
<path d="M34.7491 44.541H31.7491C31.4324 44.5462 31.1302 44.6742 30.9062 44.8982C30.6823 45.1221 30.5542 45.4244 30.5491 45.741V53.341C30.5542 53.6577 30.6823 53.9599 30.9062 54.1838C31.1302 54.4078 31.4324 54.5359 31.7491 54.541H34.7491C35.0657 54.5359 35.368 54.4078 35.5919 54.1838C35.8158 53.9599 35.9439 53.6577 35.9491 53.341V45.741C35.9113 45.4359 35.7727 45.1521 35.5553 44.9348C35.3379 44.7174 35.0542 44.5788 34.7491 44.541Z" stroke="url(#paint12_linear_757_20185)" stroke-width="0.25" stroke-miterlimit="10"/>
<path d="M42.3691 38.4209H39.3691C39.0524 38.426 38.7502 38.5541 38.5262 38.7781C38.3023 39.002 38.1742 39.3042 38.1691 39.6209V53.3209C38.1742 53.6376 38.3023 53.9398 38.5262 54.1637C38.7502 54.3877 39.0524 54.5157 39.3691 54.5209H42.3691C42.6857 54.5157 42.988 54.3877 43.2119 54.1637C43.4358 53.9398 43.5639 53.6376 43.5691 53.3209V39.5209C43.5277 39.2268 43.3854 38.9562 43.1665 38.7556C42.9475 38.5549 42.6656 38.4366 42.3691 38.4209Z" stroke="url(#paint13_linear_757_20185)" stroke-width="0.25" stroke-miterlimit="10"/>
<path d="M66.3192 72.9888C66.3192 77.4095 65.8985 81.001 65.3802 81.001C64.8619 81.001 64.429 77.4095 64.429 72.9888C64.429 68.568 64.868 65.001 65.3802 65.001C65.8924 65.001 66.3192 68.562 66.3192 72.9888Z" fill="url(#paint14_radial_757_20185)"/>
<path d="M65.3812 73.9154C60.9605 73.9154 57.369 73.4947 57.369 72.9764C57.369 72.4581 60.9605 72.0251 65.3812 72.0251C69.8019 72.0251 73.369 72.4642 73.369 72.9764C73.369 73.4886 69.808 73.9154 65.3812 73.9154Z" fill="url(#paint15_radial_757_20185)"/>
<path d="M33.3192 12.9888C33.3192 17.4095 32.8985 21.001 32.3802 21.001C31.8619 21.001 31.429 17.4095 31.429 12.9888C31.429 8.56805 31.868 5.00098 32.3802 5.00098C32.8924 5.00098 33.3192 8.56195 33.3192 12.9888Z" fill="url(#paint16_radial_757_20185)"/>
<path d="M32.3812 13.9154C27.9605 13.9154 24.369 13.4947 24.369 12.9764C24.369 12.4581 27.9605 12.0251 32.3812 12.0251C36.8019 12.0251 40.369 12.4642 40.369 12.9764C40.369 13.4886 36.808 13.9154 32.3812 13.9154Z" fill="url(#paint17_radial_757_20185)"/>
<defs>
<linearGradient id="paint0_linear_757_20185" x1="64.869" y1="79.001" x2="11.369" y2="7.50097" gradientUnits="userSpaceOnUse">
<stop stop-color="white" stop-opacity="0.9"/>
<stop offset="0.04" stop-color="white" stop-opacity="0.85"/>
<stop offset="0.28" stop-color="white" stop-opacity="0.5"/>
<stop offset="0.65" stop-color="#FAFBFC" stop-opacity="0.4"/>
<stop offset="1" stop-color="#F0EFEF" stop-opacity="0.3"/>
</linearGradient>
<linearGradient id="paint1_linear_757_20185" x1="52.789" y1="17.951" x2="61.669" y2="17.951" gradientUnits="userSpaceOnUse">
<stop stop-color="#79A540"/>
<stop offset="0.2" stop-color="#94C63D"/>
<stop offset="0.39" stop-color="#98CA3C"/>
<stop offset="0.59" stop-color="#93C53E"/>
<stop offset="0.74" stop-color="#9DCB3B"/>
<stop offset="0.9" stop-color="#A6CE39"/>
<stop offset="1" stop-color="#A6CE39"/>
</linearGradient>
<linearGradient id="paint2_linear_757_20185" x1="15.3091" y1="20.071" x2="73.1891" y2="20.071" gradientUnits="userSpaceOnUse">
<stop stop-color="#79A540"/>
<stop offset="0.2" stop-color="#94C63D"/>
<stop offset="0.39" stop-color="#98CA3C"/>
<stop offset="0.59" stop-color="#93C53E"/>
<stop offset="0.74" stop-color="#9DCB3B"/>
<stop offset="0.9" stop-color="#A6CE39"/>
<stop offset="1" stop-color="#A6CE39"/>
</linearGradient>
<linearGradient id="paint3_linear_757_20185" x1="15.4191" y1="50.291" x2="20.8191" y2="50.291" gradientUnits="userSpaceOnUse">
<stop stop-color="white" stop-opacity="0.9"/>
<stop offset="0.04" stop-color="white" stop-opacity="0.85"/>
<stop offset="0.28" stop-color="white" stop-opacity="0.5"/>
<stop offset="0.65" stop-color="#FAFBFC" stop-opacity="0.4"/>
<stop offset="1" stop-color="#F0EFEF" stop-opacity="0.3"/>
</linearGradient>
<linearGradient id="paint4_linear_757_20185" x1="22.889" y1="46.4909" x2="28.289" y2="46.4909" gradientUnits="userSpaceOnUse">
<stop stop-color="white" stop-opacity="0.9"/>
<stop offset="0.04" stop-color="white" stop-opacity="0.85"/>
<stop offset="0.28" stop-color="white" stop-opacity="0.5"/>
<stop offset="0.65" stop-color="#FAFBFC" stop-opacity="0.4"/>
<stop offset="1" stop-color="#F0EFEF" stop-opacity="0.3"/>
</linearGradient>
<linearGradient id="paint5_linear_757_20185" x1="30.5491" y1="49.541" x2="35.9491" y2="49.541" gradientUnits="userSpaceOnUse">
<stop stop-color="white" stop-opacity="0.9"/>
<stop offset="0.04" stop-color="white" stop-opacity="0.85"/>
<stop offset="0.28" stop-color="white" stop-opacity="0.5"/>
<stop offset="0.65" stop-color="#FAFBFC" stop-opacity="0.4"/>
<stop offset="1" stop-color="#F0EFEF" stop-opacity="0.3"/>
</linearGradient>
<linearGradient id="paint6_linear_757_20185" x1="38.1891" y1="46.4709" x2="43.5891" y2="46.4709" gradientUnits="userSpaceOnUse">
<stop stop-color="white" stop-opacity="0.9"/>
<stop offset="0.04" stop-color="white" stop-opacity="0.85"/>
<stop offset="0.28" stop-color="white" stop-opacity="0.5"/>
<stop offset="0.65" stop-color="#FAFBFC" stop-opacity="0.4"/>
<stop offset="1" stop-color="#F0EFEF" stop-opacity="0.3"/>
</linearGradient>
<linearGradient id="paint7_linear_757_20185" x1="70.869" y1="85.001" x2="10.369" y2="6.50098" gradientUnits="userSpaceOnUse">
<stop stop-color="#827B7B" stop-opacity="0.9"/>
<stop offset="0.158366" stop-color="white" stop-opacity="0.85"/>
<stop offset="0.28" stop-color="white" stop-opacity="0.5"/>
<stop offset="0.487088" stop-color="#FAFBFC" stop-opacity="0.4"/>
<stop offset="1" stop-color="#F0EFEF" stop-opacity="0"/>
</linearGradient>
<linearGradient id="paint8_linear_757_20185" x1="57.229" y1="26.821" x2="57.229" y2="9.09099" gradientUnits="userSpaceOnUse">
<stop stop-color="white" stop-opacity="0.9"/>
<stop offset="0.04" stop-color="white" stop-opacity="0.85"/>
<stop offset="0.28" stop-color="white" stop-opacity="0.5"/>
<stop offset="0.65" stop-color="#FAFBFC" stop-opacity="0.4"/>
<stop offset="1" stop-color="#F0EFEF" stop-opacity="0.3"/>
</linearGradient>
<linearGradient id="paint9_linear_757_20185" x1="44.2491" y1="39.241" x2="44.2491" y2="0.89097" gradientUnits="userSpaceOnUse">
<stop stop-color="white" stop-opacity="0.9"/>
<stop offset="0.04" stop-color="white" stop-opacity="0.85"/>
<stop offset="0.28" stop-color="white" stop-opacity="0.5"/>
<stop offset="0.65" stop-color="#FAFBFC" stop-opacity="0.4"/>
<stop offset="1" stop-color="#F0EFEF" stop-opacity="0.3"/>
</linearGradient>
<linearGradient id="paint10_linear_757_20185" x1="18.1191" y1="54.661" x2="18.1191" y2="45.911" gradientUnits="userSpaceOnUse">
<stop stop-color="white" stop-opacity="0.9"/>
<stop offset="0.04" stop-color="white" stop-opacity="0.85"/>
<stop offset="0.28" stop-color="white" stop-opacity="0.5"/>
<stop offset="0.65" stop-color="#FAFBFC" stop-opacity="0.4"/>
<stop offset="1" stop-color="#F0EFEF" stop-opacity="0.3"/>
</linearGradient>
<linearGradient id="paint11_linear_757_20185" x1="25.589" y1="54.6609" x2="25.589" y2="38.3109" gradientUnits="userSpaceOnUse">
<stop stop-color="white" stop-opacity="0.9"/>
<stop offset="0.04" stop-color="white" stop-opacity="0.85"/>
<stop offset="0.28" stop-color="white" stop-opacity="0.5"/>
<stop offset="0.65" stop-color="#FAFBFC" stop-opacity="0.4"/>
<stop offset="1" stop-color="#F0EFEF" stop-opacity="0.3"/>
</linearGradient>
<linearGradient id="paint12_linear_757_20185" x1="33.2491" y1="54.661" x2="33.2491" y2="44.411" gradientUnits="userSpaceOnUse">
<stop stop-color="white" stop-opacity="0.9"/>
<stop offset="0.04" stop-color="white" stop-opacity="0.85"/>
<stop offset="0.28" stop-color="white" stop-opacity="0.5"/>
<stop offset="0.65" stop-color="#FAFBFC" stop-opacity="0.4"/>
<stop offset="1" stop-color="#F0EFEF" stop-opacity="0.3"/>
</linearGradient>
<linearGradient id="paint13_linear_757_20185" x1="40.8891" y1="54.6409" x2="40.8891" y2="38.2909" gradientUnits="userSpaceOnUse">
<stop stop-color="white" stop-opacity="0.9"/>
<stop offset="0.04" stop-color="white" stop-opacity="0.85"/>
<stop offset="0.28" stop-color="white" stop-opacity="0.5"/>
<stop offset="0.65" stop-color="#FAFBFC" stop-opacity="0.4"/>
<stop offset="1" stop-color="#F0EFEF" stop-opacity="0.3"/>
</linearGradient>
<radialGradient id="paint14_radial_757_20185" cx="0" cy="0" r="1" gradientUnits="userSpaceOnUse" gradientTransform="translate(65.2299 73.5732) scale(0.935121 8.01781)">
<stop stop-color="white"/>
<stop offset="0.07" stop-color="white" stop-opacity="0.93"/>
<stop offset="1" stop-color="white" stop-opacity="0"/>
</radialGradient>
<radialGradient id="paint15_radial_757_20185" cx="0" cy="0" r="1" gradientUnits="userSpaceOnUse" gradientTransform="translate(64.7968 72.8261) rotate(90) scale(0.935121 8.01781)">
<stop stop-color="white"/>
<stop offset="0.07" stop-color="white" stop-opacity="0.93"/>
<stop offset="1" stop-color="white" stop-opacity="0"/>
</radialGradient>
<radialGradient id="paint16_radial_757_20185" cx="0" cy="0" r="1" gradientUnits="userSpaceOnUse" gradientTransform="translate(32.2299 13.5732) scale(0.935121 8.01781)">
<stop stop-color="white"/>
<stop offset="0.07" stop-color="white" stop-opacity="0.93"/>
<stop offset="1" stop-color="white" stop-opacity="0"/>
</radialGradient>
<radialGradient id="paint17_radial_757_20185" cx="0" cy="0" r="1" gradientUnits="userSpaceOnUse" gradientTransform="translate(31.7968 12.8261) rotate(90) scale(0.935121 8.01781)">
<stop stop-color="white"/>
<stop offset="0.07" stop-color="white" stop-opacity="0.93"/>
<stop offset="1" stop-color="white" stop-opacity="0"/>
</radialGradient>
</defs>
</svg>
