<svg width="107" height="24" viewBox="0 0 107 24" fill="none" xmlns="http://www.w3.org/2000/svg">
<path d="M58.6532 6.41425C59.7086 6.41425 60.5641 5.7551 60.5641 4.94199C60.5641 4.12888 59.7086 3.46973 58.6532 3.46973C57.5978 3.46973 56.7422 4.12888 56.7422 4.94199C56.7422 5.7551 57.5978 6.41425 58.6532 6.41425Z" fill="#E6F0ED"/>
<path d="M50.2969 5.08401V17.8144H53.8534V4.36914H51.1248C50.6678 4.36914 50.2979 4.68893 50.2979 5.08401H50.2969Z" fill="#E6F0ED"/>
<path d="M56.875 8.66214V17.8128H60.4316V7.94727H57.7029C57.2459 7.94727 56.876 8.26705 56.876 8.66214H56.875Z" fill="#E6F0ED"/>
<path d="M70.0623 7.71768C68.4423 7.71768 67.3019 8.44318 66.7977 8.84004V7.94711H64.0691C63.6121 7.94711 63.2422 8.2669 63.2422 8.66199V21.7591H66.7988V17.4149C67.3388 17.7684 68.0683 18.0191 69.055 18.0191C72.3729 18.0191 74.9202 15.5414 74.9202 12.4206C74.9202 9.29979 72.2929 7.7168 70.0633 7.7168L70.0623 7.71768ZM68.8942 16.9641C68.1646 16.9641 67.391 16.3679 66.7977 15.7708V10.4806C67.351 10.0049 68.2927 9.32371 69.1063 9.32371C70.3266 9.32371 71.4681 10.7694 71.4681 12.8803C71.4681 14.9913 70.3533 16.9641 68.8942 16.9641Z" fill="#E6F0ED"/>
<path d="M81.6941 7.71875C78.5628 7.71875 77.5279 8.29277 77.5279 8.29277L77.8998 8.98107C77.8998 8.98107 79.0679 8.61433 80.9789 8.61433C83.102 8.61433 83.3141 9.60116 83.3141 10.8174V11.3843C82.8591 11.2692 81.9882 11.092 80.899 11.092C79.28 11.092 76.4141 11.643 76.4141 14.5105C76.4141 17.3779 78.9624 18.021 80.6336 18.021C81.6121 18.021 82.6327 17.5817 83.3141 17.2167V17.8146H86.8706V10.8165C86.8706 8.75164 84.8275 7.71875 81.6951 7.71875H81.6941ZM81.482 16.7127C79.9962 16.7127 79.0669 15.9553 79.0669 14.5556C79.0669 13.156 80.7125 12.2844 82.0128 12.2844C82.6675 12.2844 83.0723 12.4642 83.313 12.6431V16.0642C82.894 16.3787 82.2689 16.7127 81.482 16.7127Z" fill="#E6F0ED"/>
<path d="M100.974 7.71768H98.5875L95.3855 14.0222L95.2974 13.8734L91.6476 7.7168H88.0039L93.5708 17.1084L93.704 17.3326L93.121 18.4797C92.2224 20.0211 89.6485 19.9183 89.6485 19.9183V21.209C89.6485 21.209 90.7561 21.2896 91.5595 21.209C92.3238 21.1328 94.0268 20.6925 94.8547 19.1733L96.5557 15.9905L100.975 7.71768H100.974Z" fill="#E6F0ED"/>
<path d="M41.4991 4.37012H39.9898L38.7633 6.57585L32.5078 17.8145H34.9116L36.1505 15.5892H43.5997L44.7944 17.8145H48.7168L41.9377 5.18775L41.4981 4.37012H41.4991ZM43.0945 14.6485H36.6741L39.9417 8.77539L43.0945 14.6485Z" fill="#E6F0ED"/>
<path d="M28.5893 3.76392V20.2751C28.5636 22.3373 26.624 24 24.2355 24H5.17797C2.77311 24 0.824219 22.3151 0.824219 20.2361V3.76392C0.824219 1.68486 2.77311 0 5.17797 0H24.2355C26.6404 0 28.5893 1.68486 28.5893 3.76392Z" fill="#E6F0ED"/>
<path d="M19.3804 13.4908C20.8067 11.1229 21.7535 8.62309 21.7535 8.62309H16.247V6.94619H23.0333V5.92482H16.247V3.22656H13.088V5.92482H6.30069V6.94619H13.087V8.62309H7.37965V9.52044H18.408C18.408 9.52044 17.7963 11.1451 16.7706 12.7529C13.8124 11.9627 11.0827 11.4117 8.89101 11.4117C3.63659 11.4117 2.47054 13.6945 2.7185 15.7815C2.91934 17.4469 4.3518 19.8785 8.73116 19.8785C12.7314 19.8785 15.9601 17.896 17.9479 15.5362C21.7381 17.0447 25.7414 18.9032 28.5879 20.2745V16.3157C25.5785 15.4237 22.4093 14.3828 19.3773 13.4908H19.3804ZM8.0969 18.4683C4.39586 18.4683 3.82308 16.6647 3.75955 15.5884C3.6991 14.6468 4.4348 12.8795 8.61333 12.8795C10.1677 12.8795 12.632 13.5652 15.3996 14.5644C13.836 16.3405 11.3297 18.4683 8.0969 18.4683Z" fill="#53918C"/>
</svg>
