<svg width="125" height="24" viewBox="0 0 125 24" fill="none" xmlns="http://www.w3.org/2000/svg">
<g clip-path="url(#clip0_1236_10724)">
<mask id="mask0_1236_10724" style="mask-type:luminance" maskUnits="userSpaceOnUse" x="-6" y="0" width="125" height="24">
<path d="M118.246 0H-5.59375V24H118.246V0Z" fill="white"/>
</mask>
<g mask="url(#mask0_1236_10724)">
<path fill-rule="evenodd" clip-rule="evenodd" d="M43.2703 18.773C38.6941 22.1842 32.0585 23.9989 26.3447 23.9989C18.338 23.9989 11.127 21.0092 5.66936 16.0314C5.24139 15.6397 5.6224 15.1071 6.13757 15.4093C12.0245 18.8706 19.3053 20.955 26.825 20.955C31.8975 20.955 37.4732 19.8911 42.6048 17.6929C43.3789 17.3622 44.0283 18.2079 43.2703 18.773Z" fill="#E6F0ED"/>
<path fill-rule="evenodd" clip-rule="evenodd" d="M45.1772 16.5764C44.591 15.8188 41.3081 16.2172 39.8323 16.3961C39.3856 16.4503 39.3158 16.056 39.7183 15.77C42.3384 13.9106 46.6315 14.4473 47.1293 15.0707C47.631 15.6982 46.9964 20.0458 44.5427 22.1207C44.1643 22.4391 43.8048 22.2697 43.9725 21.8483C44.5252 20.4537 45.7622 17.3339 45.1759 16.5764H45.1772Z" fill="#E6F0ED"/>
<path fill-rule="evenodd" clip-rule="evenodd" d="M44.0162 2.60539V0.823881C44.0175 0.552375 44.2114 0.371817 44.4446 0.373154H52.0154C52.2575 0.373154 52.4527 0.557725 52.4527 0.822544V2.35127C52.4501 2.60807 52.2448 2.94243 51.8823 3.47341L47.9607 9.38235C49.4158 9.34624 50.9558 9.57628 52.279 10.3614C52.5769 10.5379 52.658 10.8001 52.6808 11.0569V12.9587C52.6808 13.2209 52.4096 13.5245 52.1231 13.3667C49.7935 12.0787 46.7008 11.9383 44.124 13.3827C43.8603 13.5312 43.5853 13.2316 43.5853 12.9694V11.1612C43.5853 10.8723 43.5904 10.3774 43.8667 9.93606L48.4094 3.05746H44.4535C44.2114 3.05746 44.0175 2.87556 44.0162 2.60807V2.60539ZM16.4001 13.7385H14.097C13.8777 13.7238 13.7028 13.5499 13.6851 13.3279L13.6876 0.853306C13.6876 0.604536 13.8866 0.405253 14.1325 0.405253H16.2771C16.5015 0.415953 16.6814 0.595174 16.6954 0.823881V2.45158H16.7397C17.2987 0.876043 18.352 0.141772 19.7703 0.141772C21.1887 0.141772 22.1139 0.87738 22.7591 2.45158C23.318 0.876043 24.5868 0.141772 25.9405 0.141772C26.9089 0.141772 27.9609 0.561737 28.606 1.50733C29.3374 2.55724 29.1878 4.07928 29.1878 5.41809L29.1853 13.2904C29.1853 13.5392 28.9876 13.7385 28.7417 13.7385H26.4412C26.2092 13.7224 26.028 13.5298 26.028 13.2904V6.67799C26.028 6.1537 26.0698 4.84164 25.962 4.34276C25.7909 3.5015 25.2751 3.2661 24.6084 3.2661C24.0494 3.2661 23.4689 3.65932 23.2319 4.28927C22.9948 4.92055 23.0177 5.96913 23.0177 6.67799V13.2904C23.0177 13.5392 22.8187 13.7385 22.574 13.7385H20.2735C20.0416 13.7224 19.8603 13.5298 19.8603 13.2904L19.8578 6.67799C19.8578 5.28702 20.0733 3.24069 18.4395 3.24069C16.8057 3.24069 16.8488 5.23486 16.8488 6.67799V13.2904C16.8475 13.5392 16.6485 13.7385 16.4039 13.7385H16.4001ZM58.9892 2.68831C57.2907 2.68831 57.183 5.1292 57.183 6.65124C57.183 8.17328 57.1614 11.4287 58.9676 11.4287C60.7738 11.4287 60.8384 8.80323 60.8384 7.20227C60.8384 6.15236 60.7941 4.89246 60.4937 3.89471C60.2364 3.02803 59.7192 2.68698 58.9879 2.68698L58.9892 2.68831ZM58.9689 0.141772C62.3873 0.141772 64.2353 3.24069 64.2353 7.17686C64.2353 11.113 62.1934 14.0006 58.9689 14.0006C55.7444 14.0006 53.7874 10.9031 53.7874 7.04445C53.7874 3.18585 55.6354 0.141772 58.9689 0.141772ZM68.669 13.7385H66.3736C66.1442 13.7224 65.9604 13.5298 65.9604 13.2904L65.9566 0.811844C65.9768 0.583137 66.167 0.405253 66.3989 0.405253H68.5347C68.7362 0.415953 68.9022 0.5604 68.9441 0.752995V2.66156H68.9872C69.6323 0.954953 70.5348 0.141772 72.1255 0.141772C73.1572 0.141772 74.1687 0.534988 74.8138 1.61165C75.4159 2.6094 75.4159 4.28793 75.4159 5.49566V13.3453C75.3905 13.566 75.2029 13.7372 74.9748 13.7372H72.6667C72.4537 13.7238 72.2814 13.5579 72.256 13.3453V6.57233C72.256 5.20677 72.4069 3.21126 70.8161 3.21126C70.2572 3.21126 69.7413 3.60448 69.4827 4.20902C69.1595 4.97004 69.1164 5.73106 69.1164 6.57233V13.2891C69.1126 13.5379 68.9136 13.7372 68.6677 13.7372L68.669 13.7385ZM40.3012 13.7077C40.1491 13.8522 39.9298 13.8615 39.7575 13.7639C38.9932 13.0925 38.855 12.7835 38.4367 12.1442C37.173 13.5031 36.2769 13.911 34.6393 13.911C32.7 13.911 31.1917 12.6485 31.1917 10.1233C31.1917 8.15054 32.2057 6.80906 33.6481 6.15102C34.8979 5.5719 36.6432 5.46758 37.9792 5.30842V4.99277C37.9792 4.41231 38.0223 3.7302 37.699 3.22999C37.4189 2.78194 36.8802 2.5987 36.4062 2.5987C35.5278 2.5987 34.747 3.07351 34.5544 4.05788C34.5138 4.27723 34.363 4.4939 34.1551 4.50594L31.9218 4.25048C31.7329 4.205 31.5238 4.04585 31.5783 3.74224C32.0866 0.924192 34.472 0.045474 36.6394 0.022737H36.8105C37.9196 0.0374492 39.3366 0.358442 40.1998 1.23181C41.3203 2.33656 41.2125 3.81045 41.2125 5.41541V9.20179C41.2125 10.3413 41.6612 10.8402 42.082 11.4541C42.2303 11.6761 42.262 11.9383 42.0744 12.1001C41.6042 12.516 40.7676 13.2824 40.3088 13.7144L40.3025 13.7091L40.3012 13.7077ZM37.9804 7.78274C37.9804 8.72966 38.002 9.51877 37.5495 10.3614C37.1832 11.0448 36.6014 11.4661 35.955 11.4661C35.0715 11.4661 34.5557 10.7559 34.5557 9.70334C34.5557 7.63294 36.3149 7.25711 37.9817 7.25711V7.78407L37.9804 7.78274ZM10.1095 13.7077C9.95739 13.8522 9.73684 13.8615 9.56573 13.7639C8.80016 13.0925 8.66327 12.7835 8.245 12.1442C6.98004 13.5031 6.08519 13.911 4.44759 13.911C2.50832 13.911 1 12.6485 1 10.1233C1 8.15054 2.01273 6.80906 3.4564 6.15102C4.70615 5.5719 6.45149 5.46758 7.78617 5.30842V4.99277C7.78617 4.41231 7.83053 3.7302 7.50605 3.22999C7.22593 2.78194 6.68725 2.5987 6.21321 2.5987C5.33483 2.5987 4.55279 3.07351 4.3614 4.05788C4.3221 4.27723 4.17 4.4939 3.96087 4.50594L1.72881 4.25048C1.53995 4.205 1.33082 4.04585 1.38532 3.74224C1.89232 0.924192 4.27774 0.045474 6.44642 0.022737H6.61754C7.72659 0.0374492 9.14365 0.358442 10.0068 1.23181C11.1273 2.33656 11.0195 3.81045 11.0195 5.41541V9.20179C11.0195 10.3413 11.4682 10.8402 11.889 11.4541C12.0361 11.6761 12.069 11.9383 11.8814 12.1001C11.4112 12.516 10.5747 13.2824 10.1146 13.7144L10.1095 13.7091V13.7077ZM7.78743 7.78274C7.78743 8.72966 7.80898 9.51877 7.35649 10.3614C6.99018 11.0448 6.4084 11.4661 5.76198 11.4661C4.87853 11.4661 4.36266 10.7559 4.36266 9.70334C4.36266 7.63294 6.12195 7.25711 7.7887 7.25711V7.78407L7.78743 7.78274ZM106.903 18.2137V17.2975C106.903 17.0367 107.025 16.8575 107.282 16.8735C107.764 16.9457 108.444 17.018 108.927 16.9123C109.558 16.7732 110.011 16.3011 110.278 15.6551C110.656 14.7443 110.906 14.01 111.063 13.5285L106.272 1.0031C106.191 0.790445 106.167 0.395891 106.57 0.395891H108.244C108.563 0.395891 108.694 0.609886 108.765 0.819869L112.239 10.994L115.555 0.819869C115.622 0.611224 115.759 0.395891 116.076 0.395891H117.655C118.054 0.395891 118.033 0.789107 117.953 1.0031L113.2 13.919C112.585 15.6377 111.765 18.3768 109.92 18.8516C108.994 19.1071 107.827 19.0148 107.141 18.7112C106.969 18.6189 106.902 18.3742 106.902 18.2137H106.903ZM104.668 12.9761C104.668 13.2089 104.487 13.4001 104.265 13.4001H103.084C102.829 13.4001 102.654 13.2062 102.623 12.9761L102.504 12.1282C101.961 12.6123 101.294 13.039 100.572 13.3359C99.1827 13.9057 97.5806 13.9993 96.2231 13.1192C95.242 12.4839 94.7198 11.2401 94.7198 9.9588C94.7198 8.9664 95.0101 7.98336 95.6514 7.26915C96.5083 6.29279 97.7504 5.81398 99.2511 5.81398C100.157 5.81398 101.454 5.92633 102.397 6.25133V4.54338C102.397 2.80735 101.705 2.05569 99.8785 2.05569C98.483 2.05569 97.4145 2.27771 95.929 2.76589C95.6907 2.77391 95.5513 2.58399 95.5513 2.34993V1.37626C95.5513 1.1422 95.7402 0.916167 95.9455 0.847956C97.0064 0.359779 98.5096 0.0561737 100.108 0C102.192 0 104.667 0.496201 104.667 3.87732V12.9748L104.668 12.9761ZM102.398 10.4831V7.90712C101.606 7.67841 100.294 7.58345 99.786 7.58345C98.9837 7.58345 98.1053 7.78407 97.6465 8.30435C97.3042 8.68687 97.1483 9.23523 97.1483 9.76487C97.1483 10.4497 97.3727 11.1384 97.8974 11.4782C98.5071 11.9155 99.4527 11.862 100.342 11.5959C101.197 11.3404 101.999 10.887 102.397 10.4844L102.398 10.4831ZM87.253 2.09581C89.8742 2.09581 90.5878 4.27054 90.5878 6.76091C90.603 8.43943 90.3102 9.93606 89.4863 10.7934C88.8703 11.4354 88.1808 11.6092 87.144 11.6092C86.2213 11.6092 85.0083 11.101 84.1008 10.3948V3.27413C85.045 2.50909 86.2492 2.09581 87.253 2.09581ZM83.699 18.6604H82.1171C81.8953 18.6604 81.7153 18.4691 81.7153 18.2364V0.841268C81.7153 0.608549 81.8966 0.417291 82.1171 0.417291H83.3276C83.5824 0.417291 83.756 0.611224 83.7889 0.841268L83.9157 1.75209C85.0501 0.690134 86.5103 0.00802482 87.9007 0.00802482C91.797 0.00802482 93.0784 3.39584 93.0784 6.91873C93.0784 10.6877 91.1189 13.7171 87.8031 13.7171C86.4076 13.7171 85.1021 13.1741 84.0982 12.2298V18.2364C84.0982 18.4691 83.917 18.6604 83.6964 18.6604H83.699Z" fill="#E6F0ED"/>
</g>
</g>
<defs>
<clipPath id="clip0_1236_10724">
<rect width="123.84" height="24" fill="white" transform="translate(0.40625)"/>
</clipPath>
</defs>
</svg>
