<svg width="121" height="48" viewBox="0 0 121 48" fill="none" xmlns="http://www.w3.org/2000/svg">
<path d="M22.8684 6.06523C24.293 4.43241 25.2596 2.24025 25.0048 0C22.9195 0.095067 20.3747 1.26077 18.9014 2.89467C17.5784 4.29404 16.4077 6.57802 16.713 8.72429C19.0536 8.9103 21.3925 7.65213 22.8684 6.06523Z" fill="white"/>
<path d="M24.9783 9.14232C21.5787 8.95673 18.6882 10.9103 17.0646 10.9103C15.4404 10.9103 12.9542 9.23587 10.2652 9.28091C6.76546 9.32812 3.51807 11.1413 1.74207 14.0252C-1.91086 19.7944 0.778086 28.3521 4.33033 33.0507C6.05529 35.3752 8.13451 37.9348 10.8738 37.8428C13.4621 37.7497 14.4766 36.307 17.6226 36.307C20.7665 36.307 21.6804 37.8428 24.4201 37.7962C27.2615 37.7497 29.0377 35.4704 30.7627 33.1436C32.7417 30.4936 33.5518 27.935 33.6026 27.7945C33.5516 27.7479 28.1239 25.8399 28.0735 20.1188C28.0222 15.3284 32.335 13.0496 32.538 12.9084C30.1029 9.60812 26.2975 9.23587 24.9783 9.14232Z" fill="white"/>
<path d="M54.5778 2.6582C61.9669 2.6582 67.112 7.32536 67.112 14.1204C67.112 20.9396 61.8608 25.6311 54.3926 25.6311H46.2116V37.5525H40.3008V2.6582H54.5778ZM46.2113 21.0847H52.9935C58.1398 21.0847 61.0686 18.5459 61.0686 14.1446C61.0686 9.74383 58.1398 7.22878 53.02 7.22878H46.2113V21.0847Z" fill="white"/>
<path d="M68.6562 30.3227C68.6562 25.873 72.3772 23.1405 78.9753 22.802L86.5751 22.391V20.4325C86.5751 17.6032 84.4902 15.9104 81.0075 15.9104C77.7079 15.9104 75.6494 17.3611 75.1487 19.6345H69.7651C70.0818 15.0397 74.3565 11.6543 81.2183 11.6543C87.9475 11.6543 92.2489 14.9188 92.2489 20.0211V37.5528H86.7859V33.3694H86.6545C85.0449 36.1989 81.5347 37.9881 77.8931 37.9881C72.4566 37.9881 68.6562 34.8926 68.6562 30.3227ZM86.5749 28.0255V26.0185L79.7398 26.4053C76.3355 26.6231 74.4092 28.0015 74.4092 30.1778C74.4092 32.4023 76.4147 33.8534 79.4761 33.8534C83.4608 33.853 86.5749 31.3381 86.5749 28.0255Z" fill="white"/>
<path d="M97.4049 46.911V42.6791C97.8265 42.7757 98.7763 42.7757 99.2515 42.7757C101.89 42.7757 103.316 41.7603 104.186 39.1487C104.186 39.1002 104.688 37.601 104.688 37.5767L94.6602 12.1133H100.835L107.855 32.813H107.96L114.981 12.1133H120.997L110.599 38.8823C108.224 45.0491 105.48 47.0319 99.7268 47.0319C99.2515 47.0319 97.8262 46.9834 97.4049 46.911Z" fill="white"/>
</svg>
