<svg width="500" height="560" viewBox="0 0 500 560" fill="none" xmlns="http://www.w3.org/2000/svg">
<rect x="0.125" y="0.125" width="499.75" height="559.75" rx="15.875" fill="url(#paint0_linear_1190_27)" fill-opacity="0.25"/>
<rect x="0.125" y="0.125" width="499.75" height="559.75" rx="15.875" stroke="url(#paint1_linear_1190_27)" stroke-width="0.25"/>
<path d="M0 124C86.1365 124 156 193.864 156 280C156 366.136 86.1365 436 0 436" fill="url(#paint2_linear_1190_27)"/>
<path d="M0 124C86.1365 124 156 193.864 156 280C156 366.136 86.1365 436 0 436" stroke="url(#paint3_linear_1190_27)" stroke-miterlimit="10"/>
<path d="M0 191C49.142 191 89 230.858 89 280C89 329.142 49.142 369 0 369" fill="url(#paint4_linear_1190_27)"/>
<path d="M0 191C49.142 191 89 230.858 89 280C89 329.142 49.142 369 0 369" stroke="url(#paint5_linear_1190_27)" stroke-width="0.5" stroke-miterlimit="10"/>
<rect x="130.5" y="94.5" width="239" height="47" rx="23.5" fill="url(#paint6_linear_1190_27)"/>
<rect x="130.5" y="94.5" width="239" height="47" rx="23.5" stroke="url(#paint7_linear_1190_27)"/>
<path d="M161.074 125.126C159.91 125.126 158.848 124.856 157.888 124.316C156.928 123.764 156.166 123.002 155.602 122.03C155.05 121.046 154.774 119.942 154.774 118.718C154.774 117.494 155.05 116.396 155.602 115.424C156.166 114.44 156.928 113.678 157.888 113.138C158.848 112.586 159.91 112.31 161.074 112.31C162.25 112.31 163.318 112.586 164.278 113.138C165.238 113.678 165.994 114.434 166.546 115.406C167.098 116.378 167.374 117.482 167.374 118.718C167.374 119.954 167.098 121.058 166.546 122.03C165.994 123.002 165.238 123.764 164.278 124.316C163.318 124.856 162.25 125.126 161.074 125.126ZM161.074 123.704C161.95 123.704 162.736 123.5 163.432 123.092C164.14 122.684 164.692 122.102 165.088 121.346C165.496 120.59 165.7 119.714 165.7 118.718C165.7 117.71 165.496 116.834 165.088 116.09C164.692 115.334 164.146 114.752 163.45 114.344C162.754 113.936 161.962 113.732 161.074 113.732C160.186 113.732 159.394 113.936 158.698 114.344C158.002 114.752 157.45 115.334 157.042 116.09C156.646 116.834 156.448 117.71 156.448 118.718C156.448 119.714 156.646 120.59 157.042 121.346C157.45 122.102 158.002 122.684 158.698 123.092C159.406 123.5 160.198 123.704 161.074 123.704ZM171.674 116.954C171.998 116.39 172.478 115.922 173.114 115.55C173.762 115.166 174.512 114.974 175.364 114.974C176.24 114.974 177.032 115.184 177.74 115.604C178.46 116.024 179.024 116.618 179.432 117.386C179.84 118.142 180.044 119.024 180.044 120.032C180.044 121.028 179.84 121.916 179.432 122.696C179.024 123.476 178.46 124.082 177.74 124.514C177.032 124.946 176.24 125.162 175.364 125.162C174.524 125.162 173.78 124.976 173.132 124.604C172.496 124.22 172.01 123.746 171.674 123.182V129.68H170.036V115.136H171.674V116.954ZM178.37 120.032C178.37 119.288 178.22 118.64 177.92 118.088C177.62 117.536 177.212 117.116 176.696 116.828C176.192 116.54 175.634 116.396 175.022 116.396C174.422 116.396 173.864 116.546 173.348 116.846C172.844 117.134 172.436 117.56 172.124 118.124C171.824 118.676 171.674 119.318 171.674 120.05C171.674 120.794 171.824 121.448 172.124 122.012C172.436 122.564 172.844 122.99 173.348 123.29C173.864 123.578 174.422 123.722 175.022 123.722C175.634 123.722 176.192 123.578 176.696 123.29C177.212 122.99 177.62 122.564 177.92 122.012C178.22 121.448 178.37 120.788 178.37 120.032ZM191.7 119.69C191.7 120.002 191.682 120.332 191.646 120.68H183.762C183.822 121.652 184.152 122.414 184.752 122.966C185.364 123.506 186.102 123.776 186.966 123.776C187.674 123.776 188.262 123.614 188.73 123.29C189.21 122.954 189.546 122.51 189.738 121.958H191.502C191.238 122.906 190.71 123.68 189.918 124.28C189.126 124.868 188.142 125.162 186.966 125.162C186.03 125.162 185.19 124.952 184.446 124.532C183.714 124.112 183.138 123.518 182.718 122.75C182.298 121.97 182.088 121.07 182.088 120.05C182.088 119.03 182.292 118.136 182.7 117.368C183.108 116.6 183.678 116.012 184.41 115.604C185.154 115.184 186.006 114.974 186.966 114.974C187.902 114.974 188.73 115.178 189.45 115.586C190.17 115.994 190.722 116.558 191.106 117.278C191.502 117.986 191.7 118.79 191.7 119.69ZM190.008 119.348C190.008 118.724 189.87 118.19 189.594 117.746C189.318 117.29 188.94 116.948 188.46 116.72C187.992 116.48 187.47 116.36 186.894 116.36C186.066 116.36 185.358 116.624 184.77 117.152C184.194 117.68 183.864 118.412 183.78 119.348H190.008ZM199.169 114.956C200.369 114.956 201.341 115.322 202.085 116.054C202.829 116.774 203.201 117.818 203.201 119.186V125H201.581V119.42C201.581 118.436 201.335 117.686 200.843 117.17C200.351 116.642 199.679 116.378 198.827 116.378C197.963 116.378 197.273 116.648 196.757 117.188C196.253 117.728 196.001 118.514 196.001 119.546V125H194.363V115.136H196.001V116.54C196.325 116.036 196.763 115.646 197.315 115.37C197.879 115.094 198.497 114.956 199.169 114.956ZM218.281 125L215.293 119.87H213.313V125H211.675V112.454H215.725C216.673 112.454 217.471 112.616 218.119 112.94C218.779 113.264 219.271 113.702 219.595 114.254C219.919 114.806 220.081 115.436 220.081 116.144C220.081 117.008 219.829 117.77 219.325 118.43C218.833 119.09 218.089 119.528 217.093 119.744L220.243 125H218.281ZM213.313 118.556H215.725C216.613 118.556 217.279 118.34 217.723 117.908C218.167 117.464 218.389 116.876 218.389 116.144C218.389 115.4 218.167 114.824 217.723 114.416C217.291 114.008 216.625 113.804 215.725 113.804H213.313V118.556ZM232.126 119.69C232.126 120.002 232.108 120.332 232.072 120.68H224.188C224.248 121.652 224.578 122.414 225.178 122.966C225.79 123.506 226.528 123.776 227.392 123.776C228.1 123.776 228.688 123.614 229.156 123.29C229.636 122.954 229.972 122.51 230.164 121.958H231.928C231.664 122.906 231.136 123.68 230.344 124.28C229.552 124.868 228.568 125.162 227.392 125.162C226.456 125.162 225.616 124.952 224.872 124.532C224.14 124.112 223.564 123.518 223.144 122.75C222.724 121.97 222.514 121.07 222.514 120.05C222.514 119.03 222.718 118.136 223.126 117.368C223.534 116.6 224.104 116.012 224.836 115.604C225.58 115.184 226.432 114.974 227.392 114.974C228.328 114.974 229.156 115.178 229.876 115.586C230.596 115.994 231.148 116.558 231.532 117.278C231.928 117.986 232.126 118.79 232.126 119.69ZM230.434 119.348C230.434 118.724 230.296 118.19 230.02 117.746C229.744 117.29 229.366 116.948 228.886 116.72C228.418 116.48 227.896 116.36 227.32 116.36C226.492 116.36 225.784 116.624 225.196 117.152C224.62 117.68 224.29 118.412 224.206 119.348H230.434ZM238.28 125.162C237.524 125.162 236.846 125.036 236.246 124.784C235.646 124.52 235.172 124.16 234.824 123.704C234.476 123.236 234.284 122.702 234.248 122.102H235.94C235.988 122.594 236.216 122.996 236.624 123.308C237.044 123.62 237.59 123.776 238.262 123.776C238.886 123.776 239.378 123.638 239.738 123.362C240.098 123.086 240.278 122.738 240.278 122.318C240.278 121.886 240.086 121.568 239.702 121.364C239.318 121.148 238.724 120.938 237.92 120.734C237.188 120.542 236.588 120.35 236.12 120.158C235.664 119.954 235.268 119.66 234.932 119.276C234.608 118.88 234.446 118.364 234.446 117.728C234.446 117.224 234.596 116.762 234.896 116.342C235.196 115.922 235.622 115.592 236.174 115.352C236.726 115.1 237.356 114.974 238.064 114.974C239.156 114.974 240.038 115.25 240.71 115.802C241.382 116.354 241.742 117.11 241.79 118.07H240.152C240.116 117.554 239.906 117.14 239.522 116.828C239.15 116.516 238.646 116.36 238.01 116.36C237.422 116.36 236.954 116.486 236.606 116.738C236.258 116.99 236.084 117.32 236.084 117.728C236.084 118.052 236.186 118.322 236.39 118.538C236.606 118.742 236.87 118.91 237.182 119.042C237.506 119.162 237.95 119.3 238.514 119.456C239.222 119.648 239.798 119.84 240.242 120.032C240.686 120.212 241.064 120.488 241.376 120.86C241.7 121.232 241.868 121.718 241.88 122.318C241.88 122.858 241.73 123.344 241.43 123.776C241.13 124.208 240.704 124.55 240.152 124.802C239.612 125.042 238.988 125.162 238.28 125.162ZM246.691 116.486V122.3C246.691 122.78 246.793 123.122 246.997 123.326C247.201 123.518 247.555 123.614 248.059 123.614H249.265V125H247.789C246.877 125 246.193 124.79 245.737 124.37C245.281 123.95 245.053 123.26 245.053 122.3V116.486H243.775V115.136H245.053V112.652H246.691V115.136H249.265V116.486H246.691ZM264.464 122.21H258.992L257.984 125H256.256L260.792 112.526H262.682L267.2 125H265.472L264.464 122.21ZM263.996 120.878L261.728 114.542L259.46 120.878H263.996ZM278.065 116.126C278.065 117.17 277.705 118.04 276.985 118.736C276.277 119.42 275.191 119.762 273.727 119.762H271.315V125H269.677V112.454H273.727C275.143 112.454 276.217 112.796 276.949 113.48C277.693 114.164 278.065 115.046 278.065 116.126ZM273.727 118.412C274.639 118.412 275.311 118.214 275.743 117.818C276.175 117.422 276.391 116.858 276.391 116.126C276.391 114.578 275.503 113.804 273.727 113.804H271.315V118.412H273.727ZM282.239 112.454V125H280.601V112.454H282.239Z" fill="white"/>
<path d="M93.5 153.5L124 119" stroke="url(#paint8_linear_1190_27)" stroke-miterlimit="10"/>
<path d="M93 148.5C89.9332 148.5 87.5 150.933 87.5 154C87.5 157.067 89.9332 159.5 93 159.5C96.0669 159.5 98.5 157.067 98.5 154C98.5 150.933 96.0669 148.5 93 148.5Z" fill="url(#paint9_linear_1190_27)" stroke="url(#paint10_linear_1190_27)"/>
<path d="M142.5 118C142.5 127.665 134.665 135.5 125 135.5C115.335 135.5 107.5 127.665 107.5 118C107.5 108.335 115.335 100.5 125 100.5C134.665 100.5 142.5 108.335 142.5 118Z" fill="url(#paint11_linear_1190_27)" stroke="url(#paint12_linear_1190_27)"/>
<rect x="191.5" y="175.5" width="239" height="47" rx="23.5" fill="url(#paint13_linear_1190_27)"/>
<rect x="191.5" y="175.5" width="239" height="47" rx="23.5" stroke="url(#paint14_linear_1190_27)"/>
<path d="M222.074 206.126C220.91 206.126 219.848 205.856 218.888 205.316C217.928 204.764 217.166 204.002 216.602 203.03C216.05 202.046 215.774 200.942 215.774 199.718C215.774 198.494 216.05 197.396 216.602 196.424C217.166 195.44 217.928 194.678 218.888 194.138C219.848 193.586 220.91 193.31 222.074 193.31C223.25 193.31 224.318 193.586 225.278 194.138C226.238 194.678 226.994 195.434 227.546 196.406C228.098 197.378 228.374 198.482 228.374 199.718C228.374 200.954 228.098 202.058 227.546 203.03C226.994 204.002 226.238 204.764 225.278 205.316C224.318 205.856 223.25 206.126 222.074 206.126ZM222.074 204.704C222.95 204.704 223.736 204.5 224.432 204.092C225.14 203.684 225.692 203.102 226.088 202.346C226.496 201.59 226.7 200.714 226.7 199.718C226.7 198.71 226.496 197.834 226.088 197.09C225.692 196.334 225.146 195.752 224.45 195.344C223.754 194.936 222.962 194.732 222.074 194.732C221.186 194.732 220.394 194.936 219.698 195.344C219.002 195.752 218.45 196.334 218.042 197.09C217.646 197.834 217.448 198.71 217.448 199.718C217.448 200.714 217.646 201.59 218.042 202.346C218.45 203.102 219.002 203.684 219.698 204.092C220.406 204.5 221.198 204.704 222.074 204.704ZM232.674 197.954C232.998 197.39 233.478 196.922 234.114 196.55C234.762 196.166 235.512 195.974 236.364 195.974C237.24 195.974 238.032 196.184 238.74 196.604C239.46 197.024 240.024 197.618 240.432 198.386C240.84 199.142 241.044 200.024 241.044 201.032C241.044 202.028 240.84 202.916 240.432 203.696C240.024 204.476 239.46 205.082 238.74 205.514C238.032 205.946 237.24 206.162 236.364 206.162C235.524 206.162 234.78 205.976 234.132 205.604C233.496 205.22 233.01 204.746 232.674 204.182V210.68H231.036V196.136H232.674V197.954ZM239.37 201.032C239.37 200.288 239.22 199.64 238.92 199.088C238.62 198.536 238.212 198.116 237.696 197.828C237.192 197.54 236.634 197.396 236.022 197.396C235.422 197.396 234.864 197.546 234.348 197.846C233.844 198.134 233.436 198.56 233.124 199.124C232.824 199.676 232.674 200.318 232.674 201.05C232.674 201.794 232.824 202.448 233.124 203.012C233.436 203.564 233.844 203.99 234.348 204.29C234.864 204.578 235.422 204.722 236.022 204.722C236.634 204.722 237.192 204.578 237.696 204.29C238.212 203.99 238.62 203.564 238.92 203.012C239.22 202.448 239.37 201.788 239.37 201.032ZM252.7 200.69C252.7 201.002 252.682 201.332 252.646 201.68H244.762C244.822 202.652 245.152 203.414 245.752 203.966C246.364 204.506 247.102 204.776 247.966 204.776C248.674 204.776 249.262 204.614 249.73 204.29C250.21 203.954 250.546 203.51 250.738 202.958H252.502C252.238 203.906 251.71 204.68 250.918 205.28C250.126 205.868 249.142 206.162 247.966 206.162C247.03 206.162 246.19 205.952 245.446 205.532C244.714 205.112 244.138 204.518 243.718 203.75C243.298 202.97 243.088 202.07 243.088 201.05C243.088 200.03 243.292 199.136 243.7 198.368C244.108 197.6 244.678 197.012 245.41 196.604C246.154 196.184 247.006 195.974 247.966 195.974C248.902 195.974 249.73 196.178 250.45 196.586C251.17 196.994 251.722 197.558 252.106 198.278C252.502 198.986 252.7 199.79 252.7 200.69ZM251.008 200.348C251.008 199.724 250.87 199.19 250.594 198.746C250.318 198.29 249.94 197.948 249.46 197.72C248.992 197.48 248.47 197.36 247.894 197.36C247.066 197.36 246.358 197.624 245.77 198.152C245.194 198.68 244.864 199.412 244.78 200.348H251.008ZM260.169 195.956C261.369 195.956 262.341 196.322 263.085 197.054C263.829 197.774 264.201 198.818 264.201 200.186V206H262.581V200.42C262.581 199.436 262.335 198.686 261.843 198.17C261.351 197.642 260.679 197.378 259.827 197.378C258.963 197.378 258.273 197.648 257.757 198.188C257.253 198.728 257.001 199.514 257.001 200.546V206H255.363V196.136H257.001V197.54C257.325 197.036 257.763 196.646 258.315 196.37C258.879 196.094 259.497 195.956 260.169 195.956ZM279.281 206L276.293 200.87H274.313V206H272.675V193.454H276.725C277.673 193.454 278.471 193.616 279.119 193.94C279.779 194.264 280.271 194.702 280.595 195.254C280.919 195.806 281.081 196.436 281.081 197.144C281.081 198.008 280.829 198.77 280.325 199.43C279.833 200.09 279.089 200.528 278.093 200.744L281.243 206H279.281ZM274.313 199.556H276.725C277.613 199.556 278.279 199.34 278.723 198.908C279.167 198.464 279.389 197.876 279.389 197.144C279.389 196.4 279.167 195.824 278.723 195.416C278.291 195.008 277.625 194.804 276.725 194.804H274.313V199.556ZM293.126 200.69C293.126 201.002 293.108 201.332 293.072 201.68H285.188C285.248 202.652 285.578 203.414 286.178 203.966C286.79 204.506 287.528 204.776 288.392 204.776C289.1 204.776 289.688 204.614 290.156 204.29C290.636 203.954 290.972 203.51 291.164 202.958H292.928C292.664 203.906 292.136 204.68 291.344 205.28C290.552 205.868 289.568 206.162 288.392 206.162C287.456 206.162 286.616 205.952 285.872 205.532C285.14 205.112 284.564 204.518 284.144 203.75C283.724 202.97 283.514 202.07 283.514 201.05C283.514 200.03 283.718 199.136 284.126 198.368C284.534 197.6 285.104 197.012 285.836 196.604C286.58 196.184 287.432 195.974 288.392 195.974C289.328 195.974 290.156 196.178 290.876 196.586C291.596 196.994 292.148 197.558 292.532 198.278C292.928 198.986 293.126 199.79 293.126 200.69ZM291.434 200.348C291.434 199.724 291.296 199.19 291.02 198.746C290.744 198.29 290.366 197.948 289.886 197.72C289.418 197.48 288.896 197.36 288.32 197.36C287.492 197.36 286.784 197.624 286.196 198.152C285.62 198.68 285.29 199.412 285.206 200.348H291.434ZM299.28 206.162C298.524 206.162 297.846 206.036 297.246 205.784C296.646 205.52 296.172 205.16 295.824 204.704C295.476 204.236 295.284 203.702 295.248 203.102H296.94C296.988 203.594 297.216 203.996 297.624 204.308C298.044 204.62 298.59 204.776 299.262 204.776C299.886 204.776 300.378 204.638 300.738 204.362C301.098 204.086 301.278 203.738 301.278 203.318C301.278 202.886 301.086 202.568 300.702 202.364C300.318 202.148 299.724 201.938 298.92 201.734C298.188 201.542 297.588 201.35 297.12 201.158C296.664 200.954 296.268 200.66 295.932 200.276C295.608 199.88 295.446 199.364 295.446 198.728C295.446 198.224 295.596 197.762 295.896 197.342C296.196 196.922 296.622 196.592 297.174 196.352C297.726 196.1 298.356 195.974 299.064 195.974C300.156 195.974 301.038 196.25 301.71 196.802C302.382 197.354 302.742 198.11 302.79 199.07H301.152C301.116 198.554 300.906 198.14 300.522 197.828C300.15 197.516 299.646 197.36 299.01 197.36C298.422 197.36 297.954 197.486 297.606 197.738C297.258 197.99 297.084 198.32 297.084 198.728C297.084 199.052 297.186 199.322 297.39 199.538C297.606 199.742 297.87 199.91 298.182 200.042C298.506 200.162 298.95 200.3 299.514 200.456C300.222 200.648 300.798 200.84 301.242 201.032C301.686 201.212 302.064 201.488 302.376 201.86C302.7 202.232 302.868 202.718 302.88 203.318C302.88 203.858 302.73 204.344 302.43 204.776C302.13 205.208 301.704 205.55 301.152 205.802C300.612 206.042 299.988 206.162 299.28 206.162ZM307.691 197.486V203.3C307.691 203.78 307.793 204.122 307.997 204.326C308.201 204.518 308.555 204.614 309.059 204.614H310.265V206H308.789C307.877 206 307.193 205.79 306.737 205.37C306.281 204.95 306.053 204.26 306.053 203.3V197.486H304.775V196.136H306.053V193.652H307.691V196.136H310.265V197.486H307.691ZM325.464 203.21H319.992L318.984 206H317.256L321.792 193.526H323.682L328.2 206H326.472L325.464 203.21ZM324.996 201.878L322.728 195.542L320.46 201.878H324.996ZM339.065 197.126C339.065 198.17 338.705 199.04 337.985 199.736C337.277 200.42 336.191 200.762 334.727 200.762H332.315V206H330.677V193.454H334.727C336.143 193.454 337.217 193.796 337.949 194.48C338.693 195.164 339.065 196.046 339.065 197.126ZM334.727 199.412C335.639 199.412 336.311 199.214 336.743 198.818C337.175 198.422 337.391 197.858 337.391 197.126C337.391 195.578 336.503 194.804 334.727 194.804H332.315V199.412H334.727ZM343.239 193.454V206H341.601V193.454H343.239Z" fill="white"/>
<path d="M140.5 211.5L184.5 199.5" stroke="url(#paint15_linear_1190_27)" stroke-miterlimit="10"/>
<path d="M141 205.5C137.933 205.5 135.5 207.933 135.5 211C135.5 214.067 137.933 216.5 141 216.5C144.067 216.5 146.5 214.067 146.5 211C146.5 207.933 144.067 205.5 141 205.5Z" fill="url(#paint16_linear_1190_27)" stroke="url(#paint17_linear_1190_27)"/>
<path d="M203.5 199C203.5 208.665 195.665 216.5 186 216.5C176.335 216.5 168.5 208.665 168.5 199C168.5 189.335 176.335 181.5 186 181.5C195.665 181.5 203.5 189.335 203.5 199Z" fill="url(#paint18_linear_1190_27)" stroke="url(#paint19_linear_1190_27)"/>
<rect x="207.5" y="256.5" width="239" height="47" rx="23.5" fill="url(#paint20_linear_1190_27)"/>
<rect x="207.5" y="256.5" width="239" height="47" rx="23.5" stroke="url(#paint21_linear_1190_27)"/>
<path d="M238.074 287.126C236.91 287.126 235.848 286.856 234.888 286.316C233.928 285.764 233.166 285.002 232.602 284.03C232.05 283.046 231.774 281.942 231.774 280.718C231.774 279.494 232.05 278.396 232.602 277.424C233.166 276.44 233.928 275.678 234.888 275.138C235.848 274.586 236.91 274.31 238.074 274.31C239.25 274.31 240.318 274.586 241.278 275.138C242.238 275.678 242.994 276.434 243.546 277.406C244.098 278.378 244.374 279.482 244.374 280.718C244.374 281.954 244.098 283.058 243.546 284.03C242.994 285.002 242.238 285.764 241.278 286.316C240.318 286.856 239.25 287.126 238.074 287.126ZM238.074 285.704C238.95 285.704 239.736 285.5 240.432 285.092C241.14 284.684 241.692 284.102 242.088 283.346C242.496 282.59 242.7 281.714 242.7 280.718C242.7 279.71 242.496 278.834 242.088 278.09C241.692 277.334 241.146 276.752 240.45 276.344C239.754 275.936 238.962 275.732 238.074 275.732C237.186 275.732 236.394 275.936 235.698 276.344C235.002 276.752 234.45 277.334 234.042 278.09C233.646 278.834 233.448 279.71 233.448 280.718C233.448 281.714 233.646 282.59 234.042 283.346C234.45 284.102 235.002 284.684 235.698 285.092C236.406 285.5 237.198 285.704 238.074 285.704ZM248.674 278.954C248.998 278.39 249.478 277.922 250.114 277.55C250.762 277.166 251.512 276.974 252.364 276.974C253.24 276.974 254.032 277.184 254.74 277.604C255.46 278.024 256.024 278.618 256.432 279.386C256.84 280.142 257.044 281.024 257.044 282.032C257.044 283.028 256.84 283.916 256.432 284.696C256.024 285.476 255.46 286.082 254.74 286.514C254.032 286.946 253.24 287.162 252.364 287.162C251.524 287.162 250.78 286.976 250.132 286.604C249.496 286.22 249.01 285.746 248.674 285.182V291.68H247.036V277.136H248.674V278.954ZM255.37 282.032C255.37 281.288 255.22 280.64 254.92 280.088C254.62 279.536 254.212 279.116 253.696 278.828C253.192 278.54 252.634 278.396 252.022 278.396C251.422 278.396 250.864 278.546 250.348 278.846C249.844 279.134 249.436 279.56 249.124 280.124C248.824 280.676 248.674 281.318 248.674 282.05C248.674 282.794 248.824 283.448 249.124 284.012C249.436 284.564 249.844 284.99 250.348 285.29C250.864 285.578 251.422 285.722 252.022 285.722C252.634 285.722 253.192 285.578 253.696 285.29C254.212 284.99 254.62 284.564 254.92 284.012C255.22 283.448 255.37 282.788 255.37 282.032ZM268.7 281.69C268.7 282.002 268.682 282.332 268.646 282.68H260.762C260.822 283.652 261.152 284.414 261.752 284.966C262.364 285.506 263.102 285.776 263.966 285.776C264.674 285.776 265.262 285.614 265.73 285.29C266.21 284.954 266.546 284.51 266.738 283.958H268.502C268.238 284.906 267.71 285.68 266.918 286.28C266.126 286.868 265.142 287.162 263.966 287.162C263.03 287.162 262.19 286.952 261.446 286.532C260.714 286.112 260.138 285.518 259.718 284.75C259.298 283.97 259.088 283.07 259.088 282.05C259.088 281.03 259.292 280.136 259.7 279.368C260.108 278.6 260.678 278.012 261.41 277.604C262.154 277.184 263.006 276.974 263.966 276.974C264.902 276.974 265.73 277.178 266.45 277.586C267.17 277.994 267.722 278.558 268.106 279.278C268.502 279.986 268.7 280.79 268.7 281.69ZM267.008 281.348C267.008 280.724 266.87 280.19 266.594 279.746C266.318 279.29 265.94 278.948 265.46 278.72C264.992 278.48 264.47 278.36 263.894 278.36C263.066 278.36 262.358 278.624 261.77 279.152C261.194 279.68 260.864 280.412 260.78 281.348H267.008ZM276.169 276.956C277.369 276.956 278.341 277.322 279.085 278.054C279.829 278.774 280.201 279.818 280.201 281.186V287H278.581V281.42C278.581 280.436 278.335 279.686 277.843 279.17C277.351 278.642 276.679 278.378 275.827 278.378C274.963 278.378 274.273 278.648 273.757 279.188C273.253 279.728 273.001 280.514 273.001 281.546V287H271.363V277.136H273.001V278.54C273.325 278.036 273.763 277.646 274.315 277.37C274.879 277.094 275.497 276.956 276.169 276.956ZM295.281 287L292.293 281.87H290.313V287H288.675V274.454H292.725C293.673 274.454 294.471 274.616 295.119 274.94C295.779 275.264 296.271 275.702 296.595 276.254C296.919 276.806 297.081 277.436 297.081 278.144C297.081 279.008 296.829 279.77 296.325 280.43C295.833 281.09 295.089 281.528 294.093 281.744L297.243 287H295.281ZM290.313 280.556H292.725C293.613 280.556 294.279 280.34 294.723 279.908C295.167 279.464 295.389 278.876 295.389 278.144C295.389 277.4 295.167 276.824 294.723 276.416C294.291 276.008 293.625 275.804 292.725 275.804H290.313V280.556ZM309.126 281.69C309.126 282.002 309.108 282.332 309.072 282.68H301.188C301.248 283.652 301.578 284.414 302.178 284.966C302.79 285.506 303.528 285.776 304.392 285.776C305.1 285.776 305.688 285.614 306.156 285.29C306.636 284.954 306.972 284.51 307.164 283.958H308.928C308.664 284.906 308.136 285.68 307.344 286.28C306.552 286.868 305.568 287.162 304.392 287.162C303.456 287.162 302.616 286.952 301.872 286.532C301.14 286.112 300.564 285.518 300.144 284.75C299.724 283.97 299.514 283.07 299.514 282.05C299.514 281.03 299.718 280.136 300.126 279.368C300.534 278.6 301.104 278.012 301.836 277.604C302.58 277.184 303.432 276.974 304.392 276.974C305.328 276.974 306.156 277.178 306.876 277.586C307.596 277.994 308.148 278.558 308.532 279.278C308.928 279.986 309.126 280.79 309.126 281.69ZM307.434 281.348C307.434 280.724 307.296 280.19 307.02 279.746C306.744 279.29 306.366 278.948 305.886 278.72C305.418 278.48 304.896 278.36 304.32 278.36C303.492 278.36 302.784 278.624 302.196 279.152C301.62 279.68 301.29 280.412 301.206 281.348H307.434ZM315.28 287.162C314.524 287.162 313.846 287.036 313.246 286.784C312.646 286.52 312.172 286.16 311.824 285.704C311.476 285.236 311.284 284.702 311.248 284.102H312.94C312.988 284.594 313.216 284.996 313.624 285.308C314.044 285.62 314.59 285.776 315.262 285.776C315.886 285.776 316.378 285.638 316.738 285.362C317.098 285.086 317.278 284.738 317.278 284.318C317.278 283.886 317.086 283.568 316.702 283.364C316.318 283.148 315.724 282.938 314.92 282.734C314.188 282.542 313.588 282.35 313.12 282.158C312.664 281.954 312.268 281.66 311.932 281.276C311.608 280.88 311.446 280.364 311.446 279.728C311.446 279.224 311.596 278.762 311.896 278.342C312.196 277.922 312.622 277.592 313.174 277.352C313.726 277.1 314.356 276.974 315.064 276.974C316.156 276.974 317.038 277.25 317.71 277.802C318.382 278.354 318.742 279.11 318.79 280.07H317.152C317.116 279.554 316.906 279.14 316.522 278.828C316.15 278.516 315.646 278.36 315.01 278.36C314.422 278.36 313.954 278.486 313.606 278.738C313.258 278.99 313.084 279.32 313.084 279.728C313.084 280.052 313.186 280.322 313.39 280.538C313.606 280.742 313.87 280.91 314.182 281.042C314.506 281.162 314.95 281.3 315.514 281.456C316.222 281.648 316.798 281.84 317.242 282.032C317.686 282.212 318.064 282.488 318.376 282.86C318.7 283.232 318.868 283.718 318.88 284.318C318.88 284.858 318.73 285.344 318.43 285.776C318.13 286.208 317.704 286.55 317.152 286.802C316.612 287.042 315.988 287.162 315.28 287.162ZM323.691 278.486V284.3C323.691 284.78 323.793 285.122 323.997 285.326C324.201 285.518 324.555 285.614 325.059 285.614H326.265V287H324.789C323.877 287 323.193 286.79 322.737 286.37C322.281 285.95 322.053 285.26 322.053 284.3V278.486H320.775V277.136H322.053V274.652H323.691V277.136H326.265V278.486H323.691ZM341.464 284.21H335.992L334.984 287H333.256L337.792 274.526H339.682L344.2 287H342.472L341.464 284.21ZM340.996 282.878L338.728 276.542L336.46 282.878H340.996ZM355.065 278.126C355.065 279.17 354.705 280.04 353.985 280.736C353.277 281.42 352.191 281.762 350.727 281.762H348.315V287H346.677V274.454H350.727C352.143 274.454 353.217 274.796 353.949 275.48C354.693 276.164 355.065 277.046 355.065 278.126ZM350.727 280.412C351.639 280.412 352.311 280.214 352.743 279.818C353.175 279.422 353.391 278.858 353.391 278.126C353.391 276.578 352.503 275.804 350.727 275.804H348.315V280.412H350.727ZM359.239 274.454V287H357.601V274.454H359.239Z" fill="white"/>
<path d="M158.5 281H201" stroke="url(#paint22_linear_1190_27)" stroke-miterlimit="10"/>
<path d="M156 274.5C152.933 274.5 150.5 276.933 150.5 280C150.5 283.067 152.933 285.5 156 285.5C159.067 285.5 161.5 283.067 161.5 280C161.5 276.933 159.067 274.5 156 274.5Z" fill="url(#paint23_linear_1190_27)" stroke="url(#paint24_linear_1190_27)"/>
<path d="M219.5 280C219.5 289.665 211.665 297.5 202 297.5C192.335 297.5 184.5 289.665 184.5 280C184.5 270.335 192.335 262.5 202 262.5C211.665 262.5 219.5 270.335 219.5 280Z" fill="url(#paint25_linear_1190_27)" stroke="url(#paint26_linear_1190_27)"/>
<rect x="191.5" y="337.5" width="239" height="47" rx="23.5" fill="url(#paint27_linear_1190_27)"/>
<rect x="191.5" y="337.5" width="239" height="47" rx="23.5" stroke="url(#paint28_linear_1190_27)"/>
<path d="M222.074 368.126C220.91 368.126 219.848 367.856 218.888 367.316C217.928 366.764 217.166 366.002 216.602 365.03C216.05 364.046 215.774 362.942 215.774 361.718C215.774 360.494 216.05 359.396 216.602 358.424C217.166 357.44 217.928 356.678 218.888 356.138C219.848 355.586 220.91 355.31 222.074 355.31C223.25 355.31 224.318 355.586 225.278 356.138C226.238 356.678 226.994 357.434 227.546 358.406C228.098 359.378 228.374 360.482 228.374 361.718C228.374 362.954 228.098 364.058 227.546 365.03C226.994 366.002 226.238 366.764 225.278 367.316C224.318 367.856 223.25 368.126 222.074 368.126ZM222.074 366.704C222.95 366.704 223.736 366.5 224.432 366.092C225.14 365.684 225.692 365.102 226.088 364.346C226.496 363.59 226.7 362.714 226.7 361.718C226.7 360.71 226.496 359.834 226.088 359.09C225.692 358.334 225.146 357.752 224.45 357.344C223.754 356.936 222.962 356.732 222.074 356.732C221.186 356.732 220.394 356.936 219.698 357.344C219.002 357.752 218.45 358.334 218.042 359.09C217.646 359.834 217.448 360.71 217.448 361.718C217.448 362.714 217.646 363.59 218.042 364.346C218.45 365.102 219.002 365.684 219.698 366.092C220.406 366.5 221.198 366.704 222.074 366.704ZM232.674 359.954C232.998 359.39 233.478 358.922 234.114 358.55C234.762 358.166 235.512 357.974 236.364 357.974C237.24 357.974 238.032 358.184 238.74 358.604C239.46 359.024 240.024 359.618 240.432 360.386C240.84 361.142 241.044 362.024 241.044 363.032C241.044 364.028 240.84 364.916 240.432 365.696C240.024 366.476 239.46 367.082 238.74 367.514C238.032 367.946 237.24 368.162 236.364 368.162C235.524 368.162 234.78 367.976 234.132 367.604C233.496 367.22 233.01 366.746 232.674 366.182V372.68H231.036V358.136H232.674V359.954ZM239.37 363.032C239.37 362.288 239.22 361.64 238.92 361.088C238.62 360.536 238.212 360.116 237.696 359.828C237.192 359.54 236.634 359.396 236.022 359.396C235.422 359.396 234.864 359.546 234.348 359.846C233.844 360.134 233.436 360.56 233.124 361.124C232.824 361.676 232.674 362.318 232.674 363.05C232.674 363.794 232.824 364.448 233.124 365.012C233.436 365.564 233.844 365.99 234.348 366.29C234.864 366.578 235.422 366.722 236.022 366.722C236.634 366.722 237.192 366.578 237.696 366.29C238.212 365.99 238.62 365.564 238.92 365.012C239.22 364.448 239.37 363.788 239.37 363.032ZM252.7 362.69C252.7 363.002 252.682 363.332 252.646 363.68H244.762C244.822 364.652 245.152 365.414 245.752 365.966C246.364 366.506 247.102 366.776 247.966 366.776C248.674 366.776 249.262 366.614 249.73 366.29C250.21 365.954 250.546 365.51 250.738 364.958H252.502C252.238 365.906 251.71 366.68 250.918 367.28C250.126 367.868 249.142 368.162 247.966 368.162C247.03 368.162 246.19 367.952 245.446 367.532C244.714 367.112 244.138 366.518 243.718 365.75C243.298 364.97 243.088 364.07 243.088 363.05C243.088 362.03 243.292 361.136 243.7 360.368C244.108 359.6 244.678 359.012 245.41 358.604C246.154 358.184 247.006 357.974 247.966 357.974C248.902 357.974 249.73 358.178 250.45 358.586C251.17 358.994 251.722 359.558 252.106 360.278C252.502 360.986 252.7 361.79 252.7 362.69ZM251.008 362.348C251.008 361.724 250.87 361.19 250.594 360.746C250.318 360.29 249.94 359.948 249.46 359.72C248.992 359.48 248.47 359.36 247.894 359.36C247.066 359.36 246.358 359.624 245.77 360.152C245.194 360.68 244.864 361.412 244.78 362.348H251.008ZM260.169 357.956C261.369 357.956 262.341 358.322 263.085 359.054C263.829 359.774 264.201 360.818 264.201 362.186V368H262.581V362.42C262.581 361.436 262.335 360.686 261.843 360.17C261.351 359.642 260.679 359.378 259.827 359.378C258.963 359.378 258.273 359.648 257.757 360.188C257.253 360.728 257.001 361.514 257.001 362.546V368H255.363V358.136H257.001V359.54C257.325 359.036 257.763 358.646 258.315 358.37C258.879 358.094 259.497 357.956 260.169 357.956ZM279.281 368L276.293 362.87H274.313V368H272.675V355.454H276.725C277.673 355.454 278.471 355.616 279.119 355.94C279.779 356.264 280.271 356.702 280.595 357.254C280.919 357.806 281.081 358.436 281.081 359.144C281.081 360.008 280.829 360.77 280.325 361.43C279.833 362.09 279.089 362.528 278.093 362.744L281.243 368H279.281ZM274.313 361.556H276.725C277.613 361.556 278.279 361.34 278.723 360.908C279.167 360.464 279.389 359.876 279.389 359.144C279.389 358.4 279.167 357.824 278.723 357.416C278.291 357.008 277.625 356.804 276.725 356.804H274.313V361.556ZM293.126 362.69C293.126 363.002 293.108 363.332 293.072 363.68H285.188C285.248 364.652 285.578 365.414 286.178 365.966C286.79 366.506 287.528 366.776 288.392 366.776C289.1 366.776 289.688 366.614 290.156 366.29C290.636 365.954 290.972 365.51 291.164 364.958H292.928C292.664 365.906 292.136 366.68 291.344 367.28C290.552 367.868 289.568 368.162 288.392 368.162C287.456 368.162 286.616 367.952 285.872 367.532C285.14 367.112 284.564 366.518 284.144 365.75C283.724 364.97 283.514 364.07 283.514 363.05C283.514 362.03 283.718 361.136 284.126 360.368C284.534 359.6 285.104 359.012 285.836 358.604C286.58 358.184 287.432 357.974 288.392 357.974C289.328 357.974 290.156 358.178 290.876 358.586C291.596 358.994 292.148 359.558 292.532 360.278C292.928 360.986 293.126 361.79 293.126 362.69ZM291.434 362.348C291.434 361.724 291.296 361.19 291.02 360.746C290.744 360.29 290.366 359.948 289.886 359.72C289.418 359.48 288.896 359.36 288.32 359.36C287.492 359.36 286.784 359.624 286.196 360.152C285.62 360.68 285.29 361.412 285.206 362.348H291.434ZM299.28 368.162C298.524 368.162 297.846 368.036 297.246 367.784C296.646 367.52 296.172 367.16 295.824 366.704C295.476 366.236 295.284 365.702 295.248 365.102H296.94C296.988 365.594 297.216 365.996 297.624 366.308C298.044 366.62 298.59 366.776 299.262 366.776C299.886 366.776 300.378 366.638 300.738 366.362C301.098 366.086 301.278 365.738 301.278 365.318C301.278 364.886 301.086 364.568 300.702 364.364C300.318 364.148 299.724 363.938 298.92 363.734C298.188 363.542 297.588 363.35 297.12 363.158C296.664 362.954 296.268 362.66 295.932 362.276C295.608 361.88 295.446 361.364 295.446 360.728C295.446 360.224 295.596 359.762 295.896 359.342C296.196 358.922 296.622 358.592 297.174 358.352C297.726 358.1 298.356 357.974 299.064 357.974C300.156 357.974 301.038 358.25 301.71 358.802C302.382 359.354 302.742 360.11 302.79 361.07H301.152C301.116 360.554 300.906 360.14 300.522 359.828C300.15 359.516 299.646 359.36 299.01 359.36C298.422 359.36 297.954 359.486 297.606 359.738C297.258 359.99 297.084 360.32 297.084 360.728C297.084 361.052 297.186 361.322 297.39 361.538C297.606 361.742 297.87 361.91 298.182 362.042C298.506 362.162 298.95 362.3 299.514 362.456C300.222 362.648 300.798 362.84 301.242 363.032C301.686 363.212 302.064 363.488 302.376 363.86C302.7 364.232 302.868 364.718 302.88 365.318C302.88 365.858 302.73 366.344 302.43 366.776C302.13 367.208 301.704 367.55 301.152 367.802C300.612 368.042 299.988 368.162 299.28 368.162ZM307.691 359.486V365.3C307.691 365.78 307.793 366.122 307.997 366.326C308.201 366.518 308.555 366.614 309.059 366.614H310.265V368H308.789C307.877 368 307.193 367.79 306.737 367.37C306.281 366.95 306.053 366.26 306.053 365.3V359.486H304.775V358.136H306.053V355.652H307.691V358.136H310.265V359.486H307.691ZM325.464 365.21H319.992L318.984 368H317.256L321.792 355.526H323.682L328.2 368H326.472L325.464 365.21ZM324.996 363.878L322.728 357.542L320.46 363.878H324.996ZM339.065 359.126C339.065 360.17 338.705 361.04 337.985 361.736C337.277 362.42 336.191 362.762 334.727 362.762H332.315V368H330.677V355.454H334.727C336.143 355.454 337.217 355.796 337.949 356.48C338.693 357.164 339.065 358.046 339.065 359.126ZM334.727 361.412C335.639 361.412 336.311 361.214 336.743 360.818C337.175 360.422 337.391 359.858 337.391 359.126C337.391 357.578 336.503 356.804 334.727 356.804H332.315V361.412H334.727ZM343.239 355.454V368H341.601V355.454H343.239Z" fill="white"/>
<path d="M142.917 344.169L190 362" stroke="url(#paint29_linear_1190_27)" stroke-miterlimit="10"/>
<path d="M143 338.5C139.933 338.5 137.5 340.933 137.5 344C137.5 347.067 139.933 349.5 143 349.5C146.067 349.5 148.5 347.067 148.5 344C148.5 340.933 146.067 338.5 143 338.5Z" fill="url(#paint30_linear_1190_27)" stroke="url(#paint31_linear_1190_27)"/>
<path d="M203.5 361C203.5 370.665 195.665 378.5 186 378.5C176.335 378.5 168.5 370.665 168.5 361C168.5 351.335 176.335 343.5 186 343.5C195.665 343.5 203.5 351.335 203.5 361Z" fill="url(#paint32_linear_1190_27)" stroke="url(#paint33_linear_1190_27)"/>
<rect x="130.5" y="418.5" width="239" height="47" rx="23.5" fill="url(#paint34_linear_1190_27)"/>
<rect x="130.5" y="418.5" width="239" height="47" rx="23.5" stroke="url(#paint35_linear_1190_27)"/>
<path d="M161.074 449.126C159.91 449.126 158.848 448.856 157.888 448.316C156.928 447.764 156.166 447.002 155.602 446.03C155.05 445.046 154.774 443.942 154.774 442.718C154.774 441.494 155.05 440.396 155.602 439.424C156.166 438.44 156.928 437.678 157.888 437.138C158.848 436.586 159.91 436.31 161.074 436.31C162.25 436.31 163.318 436.586 164.278 437.138C165.238 437.678 165.994 438.434 166.546 439.406C167.098 440.378 167.374 441.482 167.374 442.718C167.374 443.954 167.098 445.058 166.546 446.03C165.994 447.002 165.238 447.764 164.278 448.316C163.318 448.856 162.25 449.126 161.074 449.126ZM161.074 447.704C161.95 447.704 162.736 447.5 163.432 447.092C164.14 446.684 164.692 446.102 165.088 445.346C165.496 444.59 165.7 443.714 165.7 442.718C165.7 441.71 165.496 440.834 165.088 440.09C164.692 439.334 164.146 438.752 163.45 438.344C162.754 437.936 161.962 437.732 161.074 437.732C160.186 437.732 159.394 437.936 158.698 438.344C158.002 438.752 157.45 439.334 157.042 440.09C156.646 440.834 156.448 441.71 156.448 442.718C156.448 443.714 156.646 444.59 157.042 445.346C157.45 446.102 158.002 446.684 158.698 447.092C159.406 447.5 160.198 447.704 161.074 447.704ZM171.674 440.954C171.998 440.39 172.478 439.922 173.114 439.55C173.762 439.166 174.512 438.974 175.364 438.974C176.24 438.974 177.032 439.184 177.74 439.604C178.46 440.024 179.024 440.618 179.432 441.386C179.84 442.142 180.044 443.024 180.044 444.032C180.044 445.028 179.84 445.916 179.432 446.696C179.024 447.476 178.46 448.082 177.74 448.514C177.032 448.946 176.24 449.162 175.364 449.162C174.524 449.162 173.78 448.976 173.132 448.604C172.496 448.22 172.01 447.746 171.674 447.182V453.68H170.036V439.136H171.674V440.954ZM178.37 444.032C178.37 443.288 178.22 442.64 177.92 442.088C177.62 441.536 177.212 441.116 176.696 440.828C176.192 440.54 175.634 440.396 175.022 440.396C174.422 440.396 173.864 440.546 173.348 440.846C172.844 441.134 172.436 441.56 172.124 442.124C171.824 442.676 171.674 443.318 171.674 444.05C171.674 444.794 171.824 445.448 172.124 446.012C172.436 446.564 172.844 446.99 173.348 447.29C173.864 447.578 174.422 447.722 175.022 447.722C175.634 447.722 176.192 447.578 176.696 447.29C177.212 446.99 177.62 446.564 177.92 446.012C178.22 445.448 178.37 444.788 178.37 444.032ZM191.7 443.69C191.7 444.002 191.682 444.332 191.646 444.68H183.762C183.822 445.652 184.152 446.414 184.752 446.966C185.364 447.506 186.102 447.776 186.966 447.776C187.674 447.776 188.262 447.614 188.73 447.29C189.21 446.954 189.546 446.51 189.738 445.958H191.502C191.238 446.906 190.71 447.68 189.918 448.28C189.126 448.868 188.142 449.162 186.966 449.162C186.03 449.162 185.19 448.952 184.446 448.532C183.714 448.112 183.138 447.518 182.718 446.75C182.298 445.97 182.088 445.07 182.088 444.05C182.088 443.03 182.292 442.136 182.7 441.368C183.108 440.6 183.678 440.012 184.41 439.604C185.154 439.184 186.006 438.974 186.966 438.974C187.902 438.974 188.73 439.178 189.45 439.586C190.17 439.994 190.722 440.558 191.106 441.278C191.502 441.986 191.7 442.79 191.7 443.69ZM190.008 443.348C190.008 442.724 189.87 442.19 189.594 441.746C189.318 441.29 188.94 440.948 188.46 440.72C187.992 440.48 187.47 440.36 186.894 440.36C186.066 440.36 185.358 440.624 184.77 441.152C184.194 441.68 183.864 442.412 183.78 443.348H190.008ZM199.169 438.956C200.369 438.956 201.341 439.322 202.085 440.054C202.829 440.774 203.201 441.818 203.201 443.186V449H201.581V443.42C201.581 442.436 201.335 441.686 200.843 441.17C200.351 440.642 199.679 440.378 198.827 440.378C197.963 440.378 197.273 440.648 196.757 441.188C196.253 441.728 196.001 442.514 196.001 443.546V449H194.363V439.136H196.001V440.54C196.325 440.036 196.763 439.646 197.315 439.37C197.879 439.094 198.497 438.956 199.169 438.956ZM218.281 449L215.293 443.87H213.313V449H211.675V436.454H215.725C216.673 436.454 217.471 436.616 218.119 436.94C218.779 437.264 219.271 437.702 219.595 438.254C219.919 438.806 220.081 439.436 220.081 440.144C220.081 441.008 219.829 441.77 219.325 442.43C218.833 443.09 218.089 443.528 217.093 443.744L220.243 449H218.281ZM213.313 442.556H215.725C216.613 442.556 217.279 442.34 217.723 441.908C218.167 441.464 218.389 440.876 218.389 440.144C218.389 439.4 218.167 438.824 217.723 438.416C217.291 438.008 216.625 437.804 215.725 437.804H213.313V442.556ZM232.126 443.69C232.126 444.002 232.108 444.332 232.072 444.68H224.188C224.248 445.652 224.578 446.414 225.178 446.966C225.79 447.506 226.528 447.776 227.392 447.776C228.1 447.776 228.688 447.614 229.156 447.29C229.636 446.954 229.972 446.51 230.164 445.958H231.928C231.664 446.906 231.136 447.68 230.344 448.28C229.552 448.868 228.568 449.162 227.392 449.162C226.456 449.162 225.616 448.952 224.872 448.532C224.14 448.112 223.564 447.518 223.144 446.75C222.724 445.97 222.514 445.07 222.514 444.05C222.514 443.03 222.718 442.136 223.126 441.368C223.534 440.6 224.104 440.012 224.836 439.604C225.58 439.184 226.432 438.974 227.392 438.974C228.328 438.974 229.156 439.178 229.876 439.586C230.596 439.994 231.148 440.558 231.532 441.278C231.928 441.986 232.126 442.79 232.126 443.69ZM230.434 443.348C230.434 442.724 230.296 442.19 230.02 441.746C229.744 441.29 229.366 440.948 228.886 440.72C228.418 440.48 227.896 440.36 227.32 440.36C226.492 440.36 225.784 440.624 225.196 441.152C224.62 441.68 224.29 442.412 224.206 443.348H230.434ZM238.28 449.162C237.524 449.162 236.846 449.036 236.246 448.784C235.646 448.52 235.172 448.16 234.824 447.704C234.476 447.236 234.284 446.702 234.248 446.102H235.94C235.988 446.594 236.216 446.996 236.624 447.308C237.044 447.62 237.59 447.776 238.262 447.776C238.886 447.776 239.378 447.638 239.738 447.362C240.098 447.086 240.278 446.738 240.278 446.318C240.278 445.886 240.086 445.568 239.702 445.364C239.318 445.148 238.724 444.938 237.92 444.734C237.188 444.542 236.588 444.35 236.12 444.158C235.664 443.954 235.268 443.66 234.932 443.276C234.608 442.88 234.446 442.364 234.446 441.728C234.446 441.224 234.596 440.762 234.896 440.342C235.196 439.922 235.622 439.592 236.174 439.352C236.726 439.1 237.356 438.974 238.064 438.974C239.156 438.974 240.038 439.25 240.71 439.802C241.382 440.354 241.742 441.11 241.79 442.07H240.152C240.116 441.554 239.906 441.14 239.522 440.828C239.15 440.516 238.646 440.36 238.01 440.36C237.422 440.36 236.954 440.486 236.606 440.738C236.258 440.99 236.084 441.32 236.084 441.728C236.084 442.052 236.186 442.322 236.39 442.538C236.606 442.742 236.87 442.91 237.182 443.042C237.506 443.162 237.95 443.3 238.514 443.456C239.222 443.648 239.798 443.84 240.242 444.032C240.686 444.212 241.064 444.488 241.376 444.86C241.7 445.232 241.868 445.718 241.88 446.318C241.88 446.858 241.73 447.344 241.43 447.776C241.13 448.208 240.704 448.55 240.152 448.802C239.612 449.042 238.988 449.162 238.28 449.162ZM246.691 440.486V446.3C246.691 446.78 246.793 447.122 246.997 447.326C247.201 447.518 247.555 447.614 248.059 447.614H249.265V449H247.789C246.877 449 246.193 448.79 245.737 448.37C245.281 447.95 245.053 447.26 245.053 446.3V440.486H243.775V439.136H245.053V436.652H246.691V439.136H249.265V440.486H246.691ZM264.464 446.21H258.992L257.984 449H256.256L260.792 436.526H262.682L267.2 449H265.472L264.464 446.21ZM263.996 444.878L261.728 438.542L259.46 444.878H263.996ZM278.065 440.126C278.065 441.17 277.705 442.04 276.985 442.736C276.277 443.42 275.191 443.762 273.727 443.762H271.315V449H269.677V436.454H273.727C275.143 436.454 276.217 436.796 276.949 437.48C277.693 438.164 278.065 439.046 278.065 440.126ZM273.727 442.412C274.639 442.412 275.311 442.214 275.743 441.818C276.175 441.422 276.391 440.858 276.391 440.126C276.391 438.578 275.503 437.804 273.727 437.804H271.315V442.412H273.727ZM282.239 436.454V449H280.601V436.454H282.239Z" fill="white"/>
<path d="M93.5 407L124 441.5" stroke="url(#paint36_linear_1190_27)" stroke-miterlimit="10"/>
<path d="M93 400.5C89.9332 400.5 87.5 402.933 87.5 406C87.5 409.067 89.9332 411.5 93 411.5C96.0669 411.5 98.5 409.067 98.5 406C98.5 402.933 96.0669 400.5 93 400.5Z" fill="url(#paint37_linear_1190_27)" stroke="url(#paint38_linear_1190_27)"/>
<path d="M142.5 442C142.5 451.665 134.665 459.5 125 459.5C115.335 459.5 107.5 451.665 107.5 442C107.5 432.335 115.335 424.5 125 424.5C134.665 424.5 142.5 432.335 142.5 442Z" fill="url(#paint39_linear_1190_27)" stroke="url(#paint40_linear_1190_27)"/>
<path d="M128.184 111.152V125L125.448 124.976V114.44L120.48 116.504V113.384L125.448 111.152H128.184Z" fill="white"/>
<path d="M178.16 199.376L180.896 197.72H185.864V200.432H181.088V203.168H185.768V206H178.16V199.376ZM178.16 196.544V193.808L180.896 192.152H185.864V194.888H181.184V196.544H178.16ZM194.744 206H187.04V203.168H194.744V206ZM191.624 200.432H186.944V197.72H191.624V194.888H186.944V192.152H191.912L194.744 193.808V198.776L191.624 200.432Z" fill="white"/>
<path d="M207.864 287.024H202.896V284.192H207.576V281.456H202.896V278.744H207.576V275.912H202.896V273.176H207.864L210.6 274.832V278.936L208.344 280.088L210.6 281.168V285.368L207.864 287.024ZM197.04 282.536V284.192H201.72V287.024H196.752L193.92 285.368V282.536H197.04ZM194.016 277.568V274.832L196.752 273.176H201.72V275.912H197.04V277.568H194.016ZM201.72 281.456H198.696V278.744H201.72V281.456Z" fill="white"/>
<path d="M194.304 367.976H191.496V362.528H186.528V359.72H191.496V354.176H194.304V367.976ZM182.448 359.72H185.352V362.528H177.48L182.448 354.272H185.736L182.448 359.72Z" fill="white"/>
<path d="M117.16 435.152H124.912V437.888H120.208V440.648H124.912V443.48H117.16V435.152ZM120.208 444.56V446.24H124.912V448.976H119.896L117.16 447.32V444.56H120.208ZM133.84 437.888H126.088V435.152H133.84V437.888ZM133.84 442.304V447.32L131.104 448.976H126.088V446.24H130.792V443.48H126.088V440.648H130.792L133.84 442.304Z" fill="white"/>
<defs>
<linearGradient id="paint0_linear_1190_27" x1="-93.5" y1="-128" x2="188.5" y2="280" gradientUnits="userSpaceOnUse">
<stop stop-color="#012222"/>
<stop offset="1" stop-color="#01180E"/>
</linearGradient>
<linearGradient id="paint1_linear_1190_27" x1="19.3966" y1="40.6452" x2="480.073" y2="65.4313" gradientUnits="userSpaceOnUse">
<stop offset="0.159213" stop-color="#D6CA8A"/>
<stop offset="1" stop-color="#00B2B1"/>
</linearGradient>
<linearGradient id="paint2_linear_1190_27" x1="184" y1="260.5" x2="94.6909" y2="261.688" gradientUnits="userSpaceOnUse">
<stop stop-color="#12637E"/>
<stop offset="0.781" stop-color="#04182D" stop-opacity="0.4"/>
</linearGradient>
<linearGradient id="paint3_linear_1190_27" x1="-19.2105" y1="-2571.26" x2="340.819" y2="-2549.75" gradientUnits="userSpaceOnUse">
<stop offset="0.303689" stop-color="#004B4B" stop-opacity="0"/>
<stop offset="0.422945" stop-color="#004B4B" stop-opacity="0.4"/>
<stop offset="0.499089" stop-color="#004B4B"/>
<stop offset="0.649516" stop-color="#26DDFF"/>
<stop offset="0.953267" stop-color="#26DDFF" stop-opacity="0"/>
</linearGradient>
<linearGradient id="paint4_linear_1190_27" x1="104.974" y1="268.875" x2="54.0224" y2="269.553" gradientUnits="userSpaceOnUse">
<stop stop-color="#12637E"/>
<stop offset="0.781" stop-color="#04182D" stop-opacity="0.4"/>
</linearGradient>
<linearGradient id="paint5_linear_1190_27" x1="-10.9598" y1="-1346.68" x2="194.442" y2="-1334.41" gradientUnits="userSpaceOnUse">
<stop offset="0.303689" stop-color="#004B4B" stop-opacity="0"/>
<stop offset="0.422945" stop-color="#004B4B" stop-opacity="0.4"/>
<stop offset="0.499089" stop-color="#004B4B"/>
<stop offset="0.649516" stop-color="#26DDFF"/>
<stop offset="0.953267" stop-color="#26DDFF" stop-opacity="0"/>
</linearGradient>
<linearGradient id="paint6_linear_1190_27" x1="371.727" y1="77.4288" x2="360.242" y2="167.2" gradientUnits="userSpaceOnUse">
<stop stop-color="#12637E"/>
<stop offset="0.781" stop-color="#04182D"/>
</linearGradient>
<linearGradient id="paint7_linear_1190_27" x1="457.5" y1="86.5" x2="445.673" y2="176.039" gradientUnits="userSpaceOnUse">
<stop offset="0.303689" stop-color="#004B4B" stop-opacity="0"/>
<stop offset="0.422945" stop-color="#004B4B" stop-opacity="0.4"/>
<stop offset="0.499089" stop-color="#004B4B"/>
<stop offset="0.649516" stop-color="#26DDFF"/>
<stop offset="0.953267" stop-color="#26DDFF" stop-opacity="0"/>
</linearGradient>
<linearGradient id="paint8_linear_1190_27" x1="85.6649" y1="236.833" x2="171.167" y2="199.378" gradientUnits="userSpaceOnUse">
<stop offset="0.303689" stop-color="#004B4B" stop-opacity="0"/>
<stop offset="0.422945" stop-color="#004B4B" stop-opacity="0.4"/>
<stop offset="0.499089" stop-color="#004B4B"/>
<stop offset="0.649516" stop-color="#26DDFF"/>
<stop offset="0.953267" stop-color="#26DDFF" stop-opacity="0"/>
</linearGradient>
<linearGradient id="paint9_linear_1190_27" x1="98.072" y1="145.548" x2="89.4432" y2="159.036" gradientUnits="userSpaceOnUse">
<stop stop-color="#12637E"/>
<stop offset="0.781" stop-color="#04182D"/>
</linearGradient>
<linearGradient id="paint10_linear_1190_27" x1="86.0203" y1="132.056" x2="108.263" y2="146.671" gradientUnits="userSpaceOnUse">
<stop offset="0.303689" stop-color="#004B4B" stop-opacity="0"/>
<stop offset="0.422945" stop-color="#004B4B" stop-opacity="0.4"/>
<stop offset="0.499089" stop-color="#004B4B"/>
<stop offset="0.649516" stop-color="#26DDFF"/>
<stop offset="0.953267" stop-color="#26DDFF" stop-opacity="0"/>
</linearGradient>
<linearGradient id="paint11_linear_1190_27" x1="143.259" y1="87.5716" x2="112.196" y2="136.131" gradientUnits="userSpaceOnUse">
<stop stop-color="#12637E"/>
<stop offset="0.781" stop-color="#04182D"/>
</linearGradient>
<linearGradient id="paint12_linear_1190_27" x1="156.125" y1="94.375" x2="124.705" y2="141.949" gradientUnits="userSpaceOnUse">
<stop offset="0.303689" stop-color="#004B4B" stop-opacity="0"/>
<stop offset="0.422945" stop-color="#004B4B" stop-opacity="0.4"/>
<stop offset="0.499089" stop-color="#004B4B"/>
<stop offset="0.649516" stop-color="#26DDFF"/>
<stop offset="0.953267" stop-color="#26DDFF" stop-opacity="0"/>
</linearGradient>
<linearGradient id="paint13_linear_1190_27" x1="432.727" y1="158.429" x2="421.242" y2="248.2" gradientUnits="userSpaceOnUse">
<stop stop-color="#12637E"/>
<stop offset="0.781" stop-color="#04182D"/>
</linearGradient>
<linearGradient id="paint14_linear_1190_27" x1="518.5" y1="167.5" x2="506.673" y2="257.039" gradientUnits="userSpaceOnUse">
<stop offset="0.303689" stop-color="#004B4B" stop-opacity="0"/>
<stop offset="0.422945" stop-color="#004B4B" stop-opacity="0.4"/>
<stop offset="0.499089" stop-color="#004B4B"/>
<stop offset="0.649516" stop-color="#26DDFF"/>
<stop offset="0.953267" stop-color="#26DDFF" stop-opacity="0"/>
</linearGradient>
<linearGradient id="paint15_linear_1190_27" x1="135.082" y1="95.8363" x2="220.584" y2="133.291" gradientUnits="userSpaceOnUse">
<stop offset="0.303689" stop-color="#004B4B" stop-opacity="0"/>
<stop offset="0.422945" stop-color="#004B4B" stop-opacity="0.4"/>
<stop offset="0.499089" stop-color="#004B4B"/>
<stop offset="0.649516" stop-color="#26DDFF"/>
<stop offset="0.953267" stop-color="#26DDFF" stop-opacity="0"/>
</linearGradient>
<linearGradient id="paint16_linear_1190_27" x1="146.072" y1="202.548" x2="137.443" y2="216.036" gradientUnits="userSpaceOnUse">
<stop stop-color="#12637E"/>
<stop offset="0.781" stop-color="#04182D"/>
</linearGradient>
<linearGradient id="paint17_linear_1190_27" x1="134.02" y1="189.056" x2="156.263" y2="203.671" gradientUnits="userSpaceOnUse">
<stop offset="0.303689" stop-color="#004B4B" stop-opacity="0"/>
<stop offset="0.422945" stop-color="#004B4B" stop-opacity="0.4"/>
<stop offset="0.499089" stop-color="#004B4B"/>
<stop offset="0.649516" stop-color="#26DDFF"/>
<stop offset="0.953267" stop-color="#26DDFF" stop-opacity="0"/>
</linearGradient>
<linearGradient id="paint18_linear_1190_27" x1="204.259" y1="168.572" x2="173.196" y2="217.131" gradientUnits="userSpaceOnUse">
<stop stop-color="#12637E"/>
<stop offset="0.781" stop-color="#04182D"/>
</linearGradient>
<linearGradient id="paint19_linear_1190_27" x1="217.125" y1="175.375" x2="185.705" y2="222.949" gradientUnits="userSpaceOnUse">
<stop offset="0.303689" stop-color="#004B4B" stop-opacity="0"/>
<stop offset="0.422945" stop-color="#004B4B" stop-opacity="0.4"/>
<stop offset="0.499089" stop-color="#004B4B"/>
<stop offset="0.649516" stop-color="#26DDFF"/>
<stop offset="0.953267" stop-color="#26DDFF" stop-opacity="0"/>
</linearGradient>
<linearGradient id="paint20_linear_1190_27" x1="448.727" y1="239.429" x2="437.242" y2="329.2" gradientUnits="userSpaceOnUse">
<stop stop-color="#12637E"/>
<stop offset="0.781" stop-color="#04182D"/>
</linearGradient>
<linearGradient id="paint21_linear_1190_27" x1="534.5" y1="248.5" x2="522.673" y2="338.039" gradientUnits="userSpaceOnUse">
<stop offset="0.303689" stop-color="#004B4B" stop-opacity="0"/>
<stop offset="0.422945" stop-color="#004B4B" stop-opacity="0.4"/>
<stop offset="0.499089" stop-color="#004B4B"/>
<stop offset="0.649516" stop-color="#26DDFF"/>
<stop offset="0.953267" stop-color="#26DDFF" stop-opacity="0"/>
</linearGradient>
<linearGradient id="paint22_linear_1190_27" x1="146.082" y1="179.836" x2="231.584" y2="217.291" gradientUnits="userSpaceOnUse">
<stop offset="0.303689" stop-color="#004B4B" stop-opacity="0"/>
<stop offset="0.422945" stop-color="#004B4B" stop-opacity="0.4"/>
<stop offset="0.499089" stop-color="#004B4B"/>
<stop offset="0.649516" stop-color="#26DDFF"/>
<stop offset="0.953267" stop-color="#26DDFF" stop-opacity="0"/>
</linearGradient>
<linearGradient id="paint23_linear_1190_27" x1="161.072" y1="271.548" x2="152.443" y2="285.036" gradientUnits="userSpaceOnUse">
<stop stop-color="#12637E"/>
<stop offset="0.781" stop-color="#04182D"/>
</linearGradient>
<linearGradient id="paint24_linear_1190_27" x1="149.02" y1="258.056" x2="171.263" y2="272.671" gradientUnits="userSpaceOnUse">
<stop offset="0.303689" stop-color="#004B4B" stop-opacity="0"/>
<stop offset="0.422945" stop-color="#004B4B" stop-opacity="0.4"/>
<stop offset="0.499089" stop-color="#004B4B"/>
<stop offset="0.649516" stop-color="#26DDFF"/>
<stop offset="0.953267" stop-color="#26DDFF" stop-opacity="0"/>
</linearGradient>
<linearGradient id="paint25_linear_1190_27" x1="220.259" y1="249.572" x2="189.196" y2="298.131" gradientUnits="userSpaceOnUse">
<stop stop-color="#12637E"/>
<stop offset="0.781" stop-color="#04182D"/>
</linearGradient>
<linearGradient id="paint26_linear_1190_27" x1="233.125" y1="256.375" x2="201.705" y2="303.949" gradientUnits="userSpaceOnUse">
<stop offset="0.303689" stop-color="#004B4B" stop-opacity="0"/>
<stop offset="0.422945" stop-color="#004B4B" stop-opacity="0.4"/>
<stop offset="0.499089" stop-color="#004B4B"/>
<stop offset="0.649516" stop-color="#26DDFF"/>
<stop offset="0.953267" stop-color="#26DDFF" stop-opacity="0"/>
</linearGradient>
<linearGradient id="paint27_linear_1190_27" x1="432.727" y1="320.429" x2="421.242" y2="410.2" gradientUnits="userSpaceOnUse">
<stop stop-color="#12637E"/>
<stop offset="0.781" stop-color="#04182D"/>
</linearGradient>
<linearGradient id="paint28_linear_1190_27" x1="518.5" y1="329.5" x2="506.673" y2="419.039" gradientUnits="userSpaceOnUse">
<stop offset="0.303689" stop-color="#004B4B" stop-opacity="0"/>
<stop offset="0.422945" stop-color="#004B4B" stop-opacity="0.4"/>
<stop offset="0.499089" stop-color="#004B4B"/>
<stop offset="0.649516" stop-color="#26DDFF"/>
<stop offset="0.953267" stop-color="#26DDFF" stop-opacity="0"/>
</linearGradient>
<linearGradient id="paint29_linear_1190_27" x1="135.082" y1="260.836" x2="220.584" y2="298.291" gradientUnits="userSpaceOnUse">
<stop offset="0.303689" stop-color="#004B4B" stop-opacity="0"/>
<stop offset="0.422945" stop-color="#004B4B" stop-opacity="0.4"/>
<stop offset="0.499089" stop-color="#004B4B"/>
<stop offset="0.649516" stop-color="#26DDFF"/>
<stop offset="0.953267" stop-color="#26DDFF" stop-opacity="0"/>
</linearGradient>
<linearGradient id="paint30_linear_1190_27" x1="148.072" y1="335.548" x2="139.443" y2="349.036" gradientUnits="userSpaceOnUse">
<stop stop-color="#12637E"/>
<stop offset="0.781" stop-color="#04182D"/>
</linearGradient>
<linearGradient id="paint31_linear_1190_27" x1="136.02" y1="322.056" x2="158.263" y2="336.671" gradientUnits="userSpaceOnUse">
<stop offset="0.303689" stop-color="#004B4B" stop-opacity="0"/>
<stop offset="0.422945" stop-color="#004B4B" stop-opacity="0.4"/>
<stop offset="0.499089" stop-color="#004B4B"/>
<stop offset="0.649516" stop-color="#26DDFF"/>
<stop offset="0.953267" stop-color="#26DDFF" stop-opacity="0"/>
</linearGradient>
<linearGradient id="paint32_linear_1190_27" x1="204.259" y1="330.572" x2="173.196" y2="379.131" gradientUnits="userSpaceOnUse">
<stop stop-color="#12637E"/>
<stop offset="0.781" stop-color="#04182D"/>
</linearGradient>
<linearGradient id="paint33_linear_1190_27" x1="217.125" y1="337.375" x2="185.705" y2="384.949" gradientUnits="userSpaceOnUse">
<stop offset="0.303689" stop-color="#004B4B" stop-opacity="0"/>
<stop offset="0.422945" stop-color="#004B4B" stop-opacity="0.4"/>
<stop offset="0.499089" stop-color="#004B4B"/>
<stop offset="0.649516" stop-color="#26DDFF"/>
<stop offset="0.953267" stop-color="#26DDFF" stop-opacity="0"/>
</linearGradient>
<linearGradient id="paint34_linear_1190_27" x1="371.727" y1="401.429" x2="360.242" y2="491.2" gradientUnits="userSpaceOnUse">
<stop stop-color="#12637E"/>
<stop offset="0.781" stop-color="#04182D"/>
</linearGradient>
<linearGradient id="paint35_linear_1190_27" x1="457.5" y1="410.5" x2="445.673" y2="500.039" gradientUnits="userSpaceOnUse">
<stop offset="0.303689" stop-color="#004B4B" stop-opacity="0"/>
<stop offset="0.422945" stop-color="#004B4B" stop-opacity="0.4"/>
<stop offset="0.499089" stop-color="#004B4B"/>
<stop offset="0.649516" stop-color="#26DDFF"/>
<stop offset="0.953267" stop-color="#26DDFF" stop-opacity="0"/>
</linearGradient>
<linearGradient id="paint36_linear_1190_27" x1="85.6649" y1="323.667" x2="171.167" y2="361.122" gradientUnits="userSpaceOnUse">
<stop offset="0.303689" stop-color="#004B4B" stop-opacity="0"/>
<stop offset="0.422945" stop-color="#004B4B" stop-opacity="0.4"/>
<stop offset="0.499089" stop-color="#004B4B"/>
<stop offset="0.649516" stop-color="#26DDFF"/>
<stop offset="0.953267" stop-color="#26DDFF" stop-opacity="0"/>
</linearGradient>
<linearGradient id="paint37_linear_1190_27" x1="98.072" y1="397.548" x2="89.4432" y2="411.036" gradientUnits="userSpaceOnUse">
<stop stop-color="#12637E"/>
<stop offset="0.781" stop-color="#04182D"/>
</linearGradient>
<linearGradient id="paint38_linear_1190_27" x1="86.0203" y1="384.056" x2="108.263" y2="398.671" gradientUnits="userSpaceOnUse">
<stop offset="0.303689" stop-color="#004B4B" stop-opacity="0"/>
<stop offset="0.422945" stop-color="#004B4B" stop-opacity="0.4"/>
<stop offset="0.499089" stop-color="#004B4B"/>
<stop offset="0.649516" stop-color="#26DDFF"/>
<stop offset="0.953267" stop-color="#26DDFF" stop-opacity="0"/>
</linearGradient>
<linearGradient id="paint39_linear_1190_27" x1="143.259" y1="411.572" x2="112.196" y2="460.131" gradientUnits="userSpaceOnUse">
<stop stop-color="#12637E"/>
<stop offset="0.781" stop-color="#04182D"/>
</linearGradient>
<linearGradient id="paint40_linear_1190_27" x1="156.125" y1="418.375" x2="124.705" y2="465.949" gradientUnits="userSpaceOnUse">
<stop offset="0.303689" stop-color="#004B4B" stop-opacity="0"/>
<stop offset="0.422945" stop-color="#004B4B" stop-opacity="0.4"/>
<stop offset="0.499089" stop-color="#004B4B"/>
<stop offset="0.649516" stop-color="#26DDFF"/>
<stop offset="0.953267" stop-color="#26DDFF" stop-opacity="0"/>
</linearGradient>
</defs>
</svg>
