<svg width="500" height="560" viewBox="0 0 500 560" fill="none" xmlns="http://www.w3.org/2000/svg">
<rect x="0.25" y="0.25" width="499.5" height="559.5" rx="15.75" stroke="url(#paint0_linear_1240_775)" stroke-width="0.5"/>
<path d="M0 124C86.1365 124 156 193.864 156 280C156 366.136 86.1365 436 0 436" fill="url(#paint1_linear_1240_775)"/>
<path d="M0 124C86.1365 124 156 193.864 156 280C156 366.136 86.1365 436 0 436" stroke="url(#paint2_linear_1240_775)" stroke-miterlimit="10"/>
<path d="M0 180C55.2157 180 100 224.784 100 280C100 335.216 55.2157 380 0 380" fill="url(#paint3_linear_1240_775)"/>
<path d="M0 180C55.2157 180 100 224.784 100 280C100 335.216 55.2157 380 0 380" stroke="url(#paint4_linear_1240_775)" stroke-width="0.5" stroke-miterlimit="10"/>
<rect x="130.5" y="91.5" width="239" height="47" rx="23.5" fill="url(#paint5_linear_1240_775)"/>
<rect x="130.5" y="91.5" width="239" height="47" rx="23.5" stroke="url(#paint6_linear_1240_775)"/>
<path d="M161.104 121L158.448 116.44H156.688V121H155.232V109.848H158.832C159.675 109.848 160.384 109.992 160.96 110.28C161.547 110.568 161.984 110.957 162.272 111.448C162.56 111.939 162.704 112.499 162.704 113.128C162.704 113.896 162.48 114.573 162.032 115.16C161.595 115.747 160.933 116.136 160.048 116.328L162.848 121H161.104ZM156.688 115.272H158.832C159.621 115.272 160.213 115.08 160.608 114.696C161.003 114.301 161.2 113.779 161.2 113.128C161.2 112.467 161.003 111.955 160.608 111.592C160.224 111.229 159.632 111.048 158.832 111.048H156.688V115.272ZM173.466 116.28C173.466 116.557 173.45 116.851 173.418 117.16H166.41C166.464 118.024 166.757 118.701 167.29 119.192C167.834 119.672 168.49 119.912 169.258 119.912C169.888 119.912 170.41 119.768 170.826 119.48C171.253 119.181 171.552 118.787 171.722 118.296H173.29C173.056 119.139 172.586 119.827 171.882 120.36C171.178 120.883 170.304 121.144 169.258 121.144C168.426 121.144 167.68 120.957 167.018 120.584C166.368 120.211 165.856 119.683 165.482 119C165.109 118.307 164.922 117.507 164.922 116.6C164.922 115.693 165.104 114.899 165.466 114.216C165.829 113.533 166.336 113.011 166.986 112.648C167.648 112.275 168.405 112.088 169.258 112.088C170.09 112.088 170.826 112.269 171.466 112.632C172.106 112.995 172.597 113.496 172.938 114.136C173.29 114.765 173.466 115.48 173.466 116.28ZM171.962 115.976C171.962 115.421 171.84 114.947 171.594 114.552C171.349 114.147 171.013 113.843 170.586 113.64C170.17 113.427 169.706 113.32 169.194 113.32C168.458 113.32 167.829 113.555 167.306 114.024C166.794 114.493 166.501 115.144 166.426 115.976H171.962ZM175.344 116.584C175.344 115.688 175.526 114.904 175.888 114.232C176.251 113.549 176.747 113.021 177.376 112.648C178.016 112.275 178.726 112.088 179.504 112.088C180.272 112.088 180.939 112.253 181.504 112.584C182.07 112.915 182.491 113.331 182.768 113.832V112.232H184.24V121H182.768V119.368C182.48 119.88 182.048 120.307 181.472 120.648C180.907 120.979 180.246 121.144 179.488 121.144C178.71 121.144 178.006 120.952 177.376 120.568C176.747 120.184 176.251 119.645 175.888 118.952C175.526 118.259 175.344 117.469 175.344 116.584ZM182.768 116.6C182.768 115.939 182.635 115.363 182.368 114.872C182.102 114.381 181.739 114.008 181.28 113.752C180.832 113.485 180.336 113.352 179.792 113.352C179.248 113.352 178.752 113.48 178.304 113.736C177.856 113.992 177.499 114.365 177.232 114.856C176.966 115.347 176.832 115.923 176.832 116.584C176.832 117.256 176.966 117.843 177.232 118.344C177.499 118.835 177.856 119.213 178.304 119.48C178.752 119.736 179.248 119.864 179.792 119.864C180.336 119.864 180.832 119.736 181.28 119.48C181.739 119.213 182.102 118.835 182.368 118.344C182.635 117.843 182.768 117.261 182.768 116.6ZM188.657 109.16V121H187.201V109.16H188.657ZM197.718 114.52V115.752H191.334V114.52H197.718ZM207.815 109.848V111.032H204.775V121H203.319V111.032H200.263V109.848H207.815ZM210.859 110.808C210.582 110.808 210.347 110.712 210.155 110.52C209.963 110.328 209.867 110.093 209.867 109.816C209.867 109.539 209.963 109.304 210.155 109.112C210.347 108.92 210.582 108.824 210.859 108.824C211.126 108.824 211.35 108.92 211.531 109.112C211.723 109.304 211.819 109.539 211.819 109.816C211.819 110.093 211.723 110.328 211.531 110.52C211.35 110.712 211.126 110.808 210.859 110.808ZM211.563 112.232V121H210.107V112.232H211.563ZM225.089 112.072C225.771 112.072 226.379 112.216 226.913 112.504C227.446 112.781 227.867 113.203 228.177 113.768C228.486 114.333 228.641 115.021 228.641 115.832V121H227.201V116.04C227.201 115.165 226.982 114.499 226.545 114.04C226.118 113.571 225.537 113.336 224.801 113.336C224.043 113.336 223.441 113.581 222.993 114.072C222.545 114.552 222.321 115.251 222.321 116.168V121H220.881V116.04C220.881 115.165 220.662 114.499 220.225 114.04C219.798 113.571 219.217 113.336 218.481 113.336C217.723 113.336 217.121 113.581 216.673 114.072C216.225 114.552 216.001 115.251 216.001 116.168V121H214.545V112.232H216.001V113.496C216.289 113.037 216.673 112.685 217.153 112.44C217.643 112.195 218.182 112.072 218.769 112.072C219.505 112.072 220.155 112.237 220.721 112.568C221.286 112.899 221.707 113.384 221.985 114.024C222.23 113.405 222.635 112.925 223.201 112.584C223.766 112.243 224.395 112.072 225.089 112.072ZM239.529 116.28C239.529 116.557 239.513 116.851 239.481 117.16H232.473C232.526 118.024 232.82 118.701 233.353 119.192C233.897 119.672 234.553 119.912 235.321 119.912C235.95 119.912 236.473 119.768 236.889 119.48C237.316 119.181 237.614 118.787 237.785 118.296H239.353C239.118 119.139 238.649 119.827 237.945 120.36C237.241 120.883 236.366 121.144 235.321 121.144C234.489 121.144 233.742 120.957 233.081 120.584C232.43 120.211 231.918 119.683 231.545 119C231.172 118.307 230.985 117.507 230.985 116.6C230.985 115.693 231.166 114.899 231.529 114.216C231.892 113.533 232.398 113.011 233.049 112.648C233.71 112.275 234.468 112.088 235.321 112.088C236.153 112.088 236.889 112.269 237.529 112.632C238.169 112.995 238.66 113.496 239.001 114.136C239.353 114.765 239.529 115.48 239.529 116.28ZM238.025 115.976C238.025 115.421 237.902 114.947 237.657 114.552C237.412 114.147 237.076 113.843 236.649 113.64C236.233 113.427 235.769 113.32 235.257 113.32C234.521 113.32 233.892 113.555 233.369 114.024C232.857 114.493 232.564 115.144 232.489 115.976H238.025ZM250.188 109.848C251.404 109.848 252.455 110.077 253.34 110.536C254.236 110.984 254.919 111.629 255.388 112.472C255.868 113.315 256.108 114.307 256.108 115.448C256.108 116.589 255.868 117.581 255.388 118.424C254.919 119.256 254.236 119.896 253.34 120.344C252.455 120.781 251.404 121 250.188 121H246.716V109.848H250.188ZM250.188 119.8C251.628 119.8 252.727 119.421 253.484 118.664C254.242 117.896 254.62 116.824 254.62 115.448C254.62 114.061 254.236 112.979 253.468 112.2C252.711 111.421 251.618 111.032 250.188 111.032H248.172V119.8H250.188ZM266.529 116.28C266.529 116.557 266.513 116.851 266.481 117.16H259.473C259.526 118.024 259.82 118.701 260.353 119.192C260.897 119.672 261.553 119.912 262.321 119.912C262.95 119.912 263.473 119.768 263.889 119.48C264.316 119.181 264.614 118.787 264.785 118.296H266.353C266.118 119.139 265.649 119.827 264.945 120.36C264.241 120.883 263.366 121.144 262.321 121.144C261.489 121.144 260.742 120.957 260.081 120.584C259.43 120.211 258.918 119.683 258.545 119C258.172 118.307 257.985 117.507 257.985 116.6C257.985 115.693 258.166 114.899 258.529 114.216C258.892 113.533 259.398 113.011 260.049 112.648C260.71 112.275 261.468 112.088 262.321 112.088C263.153 112.088 263.889 112.269 264.529 112.632C265.169 112.995 265.66 113.496 266.001 114.136C266.353 114.765 266.529 115.48 266.529 116.28ZM265.025 115.976C265.025 115.421 264.902 114.947 264.657 114.552C264.412 114.147 264.076 113.843 263.649 113.64C263.233 113.427 262.769 113.32 262.257 113.32C261.521 113.32 260.892 113.555 260.369 114.024C259.857 114.493 259.564 115.144 259.489 115.976H265.025ZM270.727 113.432V118.6C270.727 119.027 270.817 119.331 270.999 119.512C271.18 119.683 271.495 119.768 271.943 119.768H273.015V121H271.703C270.892 121 270.284 120.813 269.879 120.44C269.473 120.067 269.271 119.453 269.271 118.6V113.432H268.135V112.232H269.271V110.024H270.727V112.232H273.015V113.432H270.727ZM283.279 116.28C283.279 116.557 283.263 116.851 283.231 117.16H276.223C276.276 118.024 276.57 118.701 277.103 119.192C277.647 119.672 278.303 119.912 279.071 119.912C279.7 119.912 280.223 119.768 280.639 119.48C281.066 119.181 281.364 118.787 281.535 118.296H283.103C282.868 119.139 282.399 119.827 281.695 120.36C280.991 120.883 280.116 121.144 279.071 121.144C278.239 121.144 277.492 120.957 276.831 120.584C276.18 120.211 275.668 119.683 275.295 119C274.922 118.307 274.735 117.507 274.735 116.6C274.735 115.693 274.916 114.899 275.279 114.216C275.642 113.533 276.148 113.011 276.799 112.648C277.46 112.275 278.218 112.088 279.071 112.088C279.903 112.088 280.639 112.269 281.279 112.632C281.919 112.995 282.41 113.496 282.751 114.136C283.103 114.765 283.279 115.48 283.279 116.28ZM281.775 115.976C281.775 115.421 281.652 114.947 281.407 114.552C281.162 114.147 280.826 113.843 280.399 113.64C279.983 113.427 279.519 113.32 279.007 113.32C278.271 113.32 277.642 113.555 277.119 114.024C276.607 114.493 276.314 115.144 276.239 115.976H281.775ZM285.157 116.6C285.157 115.693 285.338 114.904 285.701 114.232C286.063 113.549 286.565 113.021 287.205 112.648C287.855 112.275 288.597 112.088 289.429 112.088C290.506 112.088 291.391 112.349 292.085 112.872C292.789 113.395 293.253 114.12 293.477 115.048H291.909C291.759 114.515 291.466 114.093 291.029 113.784C290.602 113.475 290.069 113.32 289.429 113.32C288.597 113.32 287.925 113.608 287.413 114.184C286.901 114.749 286.645 115.555 286.645 116.6C286.645 117.656 286.901 118.472 287.413 119.048C287.925 119.624 288.597 119.912 289.429 119.912C290.069 119.912 290.602 119.763 291.029 119.464C291.455 119.165 291.749 118.739 291.909 118.184H293.477C293.242 119.08 292.773 119.8 292.069 120.344C291.365 120.877 290.485 121.144 289.429 121.144C288.597 121.144 287.855 120.957 287.205 120.584C286.565 120.211 286.063 119.683 285.701 119C285.338 118.317 285.157 117.517 285.157 116.6ZM297.696 113.432V118.6C297.696 119.027 297.786 119.331 297.968 119.512C298.149 119.683 298.464 119.768 298.911 119.768H299.984V121H298.672C297.861 121 297.253 120.813 296.848 120.44C296.442 120.067 296.24 119.453 296.24 118.6V113.432H295.104V112.232H296.24V110.024H297.696V112.232H299.984V113.432H297.696ZM303 110.808C302.722 110.808 302.488 110.712 302.296 110.52C302.104 110.328 302.008 110.093 302.008 109.816C302.008 109.539 302.104 109.304 302.296 109.112C302.488 108.92 302.722 108.824 303 108.824C303.266 108.824 303.49 108.92 303.672 109.112C303.864 109.304 303.96 109.539 303.96 109.816C303.96 110.093 303.864 110.328 303.672 110.52C303.49 110.712 303.266 110.808 303 110.808ZM303.704 112.232V121H302.248V112.232H303.704ZM310.509 121.144C309.688 121.144 308.941 120.957 308.269 120.584C307.608 120.211 307.085 119.683 306.701 119C306.328 118.307 306.141 117.507 306.141 116.6C306.141 115.704 306.333 114.915 306.717 114.232C307.112 113.539 307.645 113.011 308.317 112.648C308.989 112.275 309.741 112.088 310.573 112.088C311.405 112.088 312.157 112.275 312.829 112.648C313.501 113.011 314.029 113.533 314.413 114.216C314.808 114.899 315.005 115.693 315.005 116.6C315.005 117.507 314.802 118.307 314.397 119C314.002 119.683 313.464 120.211 312.781 120.584C312.098 120.957 311.341 121.144 310.509 121.144ZM310.509 119.864C311.032 119.864 311.522 119.741 311.981 119.496C312.44 119.251 312.808 118.883 313.085 118.392C313.373 117.901 313.517 117.304 313.517 116.6C313.517 115.896 313.378 115.299 313.101 114.808C312.824 114.317 312.461 113.955 312.013 113.72C311.565 113.475 311.08 113.352 310.557 113.352C310.024 113.352 309.533 113.475 309.085 113.72C308.648 113.955 308.296 114.317 308.029 114.808C307.762 115.299 307.629 115.896 307.629 116.6C307.629 117.315 307.757 117.917 308.013 118.408C308.28 118.899 308.632 119.267 309.069 119.512C309.506 119.747 309.986 119.864 310.509 119.864ZM321.692 112.072C322.758 112.072 323.622 112.397 324.284 113.048C324.945 113.688 325.276 114.616 325.276 115.832V121H323.836V116.04C323.836 115.165 323.617 114.499 323.18 114.04C322.742 113.571 322.145 113.336 321.388 113.336C320.62 113.336 320.006 113.576 319.548 114.056C319.1 114.536 318.876 115.235 318.876 116.152V121H317.42V112.232H318.876V113.48C319.164 113.032 319.553 112.685 320.044 112.44C320.545 112.195 321.094 112.072 321.692 112.072Z" fill="white"/>
<path d="M93.5 153.5L124 119" stroke="url(#paint7_linear_1240_775)" stroke-miterlimit="10"/>
<path d="M93 148.5C89.9332 148.5 87.5 150.933 87.5 154C87.5 157.067 89.9332 159.5 93 159.5C96.0669 159.5 98.5 157.067 98.5 154C98.5 150.933 96.0669 148.5 93 148.5Z" fill="url(#paint8_linear_1240_775)" stroke="url(#paint9_linear_1240_775)"/>
<path d="M142.5 118C142.5 127.665 134.665 135.5 125 135.5C115.335 135.5 107.5 127.665 107.5 118C107.5 108.335 115.335 100.5 125 100.5C134.665 100.5 142.5 108.335 142.5 118Z" fill="url(#paint10_linear_1240_775)" stroke="url(#paint11_linear_1240_775)"/>
<rect x="191.5" y="175.5" width="239" height="47" rx="23.5" fill="url(#paint12_linear_1240_775)"/>
<rect x="191.5" y="175.5" width="239" height="47" rx="23.5" stroke="url(#paint13_linear_1240_775)"/>
<path d="M221.816 199.756C222.221 199.82 222.589 199.985 222.92 200.252C223.261 200.519 223.528 200.849 223.72 201.244C223.923 201.639 224.024 202.06 224.024 202.508C224.024 203.073 223.88 203.585 223.592 204.044C223.304 204.492 222.883 204.849 222.328 205.116C221.784 205.372 221.139 205.5 220.392 205.5H216.232V194.348H220.232C220.989 194.348 221.635 194.476 222.168 194.732C222.701 194.977 223.101 195.313 223.368 195.74C223.635 196.167 223.768 196.647 223.768 197.18C223.768 197.841 223.587 198.391 223.224 198.828C222.872 199.255 222.403 199.564 221.816 199.756ZM217.688 199.164H220.136C220.819 199.164 221.347 199.004 221.72 198.684C222.093 198.364 222.28 197.921 222.28 197.356C222.28 196.791 222.093 196.348 221.72 196.028C221.347 195.708 220.808 195.548 220.104 195.548H217.688V199.164ZM220.264 204.3C220.989 204.3 221.555 204.129 221.96 203.788C222.365 203.447 222.568 202.972 222.568 202.364C222.568 201.745 222.355 201.26 221.928 200.908C221.501 200.545 220.931 200.364 220.216 200.364H217.688V204.3H220.264ZM234.545 200.78C234.545 201.057 234.529 201.351 234.497 201.66H227.489C227.542 202.524 227.835 203.201 228.369 203.692C228.913 204.172 229.569 204.412 230.337 204.412C230.966 204.412 231.489 204.268 231.905 203.98C232.331 203.681 232.63 203.287 232.801 202.796H234.369C234.134 203.639 233.665 204.327 232.961 204.86C232.257 205.383 231.382 205.644 230.337 205.644C229.505 205.644 228.758 205.457 228.097 205.084C227.446 204.711 226.934 204.183 226.561 203.5C226.187 202.807 226.001 202.007 226.001 201.1C226.001 200.193 226.182 199.399 226.545 198.716C226.907 198.033 227.414 197.511 228.065 197.148C228.726 196.775 229.483 196.588 230.337 196.588C231.169 196.588 231.905 196.769 232.545 197.132C233.185 197.495 233.675 197.996 234.017 198.636C234.369 199.265 234.545 199.98 234.545 200.78ZM233.041 200.476C233.041 199.921 232.918 199.447 232.673 199.052C232.427 198.647 232.091 198.343 231.665 198.14C231.249 197.927 230.785 197.82 230.273 197.82C229.537 197.82 228.907 198.055 228.385 198.524C227.873 198.993 227.579 199.644 227.505 200.476H233.041ZM241.318 196.572C241.98 196.572 242.577 196.716 243.11 197.004C243.644 197.281 244.06 197.703 244.358 198.268C244.668 198.833 244.822 199.521 244.822 200.332V205.5H243.382V200.54C243.382 199.665 243.164 198.999 242.726 198.54C242.289 198.071 241.692 197.836 240.934 197.836C240.166 197.836 239.553 198.076 239.094 198.556C238.646 199.036 238.422 199.735 238.422 200.652V205.5H236.966V193.66H238.422V197.98C238.71 197.532 239.105 197.185 239.606 196.94C240.118 196.695 240.689 196.572 241.318 196.572ZM247.157 201.084C247.157 200.188 247.338 199.404 247.701 198.732C248.063 198.049 248.559 197.521 249.189 197.148C249.829 196.775 250.538 196.588 251.317 196.588C252.085 196.588 252.751 196.753 253.317 197.084C253.882 197.415 254.303 197.831 254.581 198.332V196.732H256.053V205.5H254.581V203.868C254.293 204.38 253.861 204.807 253.285 205.148C252.719 205.479 252.058 205.644 251.301 205.644C250.522 205.644 249.818 205.452 249.189 205.068C248.559 204.684 248.063 204.145 247.701 203.452C247.338 202.759 247.157 201.969 247.157 201.084ZM254.581 201.1C254.581 200.439 254.447 199.863 254.181 199.372C253.914 198.881 253.551 198.508 253.093 198.252C252.645 197.985 252.149 197.852 251.605 197.852C251.061 197.852 250.565 197.98 250.117 198.236C249.669 198.492 249.311 198.865 249.045 199.356C248.778 199.847 248.645 200.423 248.645 201.084C248.645 201.756 248.778 202.343 249.045 202.844C249.311 203.335 249.669 203.713 250.117 203.98C250.565 204.236 251.061 204.364 251.605 204.364C252.149 204.364 252.645 204.236 253.093 203.98C253.551 203.713 253.914 203.335 254.181 202.844C254.447 202.343 254.581 201.761 254.581 201.1ZM262.277 204.156L264.997 196.732H266.549L263.109 205.5H261.413L257.973 196.732H259.541L262.277 204.156ZM269.234 195.308C268.957 195.308 268.722 195.212 268.53 195.02C268.338 194.828 268.242 194.593 268.242 194.316C268.242 194.039 268.338 193.804 268.53 193.612C268.722 193.42 268.957 193.324 269.234 193.324C269.501 193.324 269.725 193.42 269.906 193.612C270.098 193.804 270.194 194.039 270.194 194.316C270.194 194.593 270.098 194.828 269.906 195.02C269.725 195.212 269.501 195.308 269.234 195.308ZM269.938 196.732V205.5H268.482V196.732H269.938ZM276.744 205.644C275.922 205.644 275.176 205.457 274.504 205.084C273.842 204.711 273.32 204.183 272.936 203.5C272.562 202.807 272.376 202.007 272.376 201.1C272.376 200.204 272.568 199.415 272.952 198.732C273.346 198.039 273.88 197.511 274.552 197.148C275.224 196.775 275.976 196.588 276.808 196.588C277.64 196.588 278.392 196.775 279.064 197.148C279.736 197.511 280.264 198.033 280.648 198.716C281.042 199.399 281.24 200.193 281.24 201.1C281.24 202.007 281.037 202.807 280.632 203.5C280.237 204.183 279.698 204.711 279.016 205.084C278.333 205.457 277.576 205.644 276.744 205.644ZM276.744 204.364C277.266 204.364 277.757 204.241 278.216 203.996C278.674 203.751 279.042 203.383 279.32 202.892C279.608 202.401 279.752 201.804 279.752 201.1C279.752 200.396 279.613 199.799 279.336 199.308C279.058 198.817 278.696 198.455 278.248 198.22C277.8 197.975 277.314 197.852 276.792 197.852C276.258 197.852 275.768 197.975 275.32 198.22C274.882 198.455 274.53 198.817 274.264 199.308C273.997 199.799 273.864 200.396 273.864 201.1C273.864 201.815 273.992 202.417 274.248 202.908C274.514 203.399 274.866 203.767 275.304 204.012C275.741 204.247 276.221 204.364 276.744 204.364ZM285.11 198.156C285.366 197.655 285.729 197.265 286.198 196.988C286.678 196.711 287.259 196.572 287.942 196.572V198.076H287.558C285.926 198.076 285.11 198.961 285.11 200.732V205.5H283.654V196.732H285.11V198.156ZM301.48 203.02H296.616L295.72 205.5H294.184L298.216 194.412H299.896L303.912 205.5H302.376L301.48 203.02ZM301.064 201.836L299.048 196.204L297.032 201.836H301.064ZM310.442 196.572C311.508 196.572 312.372 196.897 313.034 197.548C313.695 198.188 314.026 199.116 314.026 200.332V205.5H312.586V200.54C312.586 199.665 312.367 198.999 311.93 198.54C311.492 198.071 310.895 197.836 310.138 197.836C309.37 197.836 308.756 198.076 308.298 198.556C307.85 199.036 307.626 199.735 307.626 200.652V205.5H306.17V196.732H307.626V197.98C307.914 197.532 308.303 197.185 308.794 196.94C309.295 196.695 309.844 196.572 310.442 196.572ZM316.36 201.084C316.36 200.188 316.541 199.404 316.904 198.732C317.267 198.049 317.763 197.521 318.392 197.148C319.032 196.775 319.741 196.588 320.52 196.588C321.288 196.588 321.955 196.753 322.52 197.084C323.085 197.415 323.507 197.831 323.784 198.332V196.732H325.256V205.5H323.784V203.868C323.496 204.38 323.064 204.807 322.488 205.148C321.923 205.479 321.261 205.644 320.504 205.644C319.725 205.644 319.021 205.452 318.392 205.068C317.763 204.684 317.267 204.145 316.904 203.452C316.541 202.759 316.36 201.969 316.36 201.084ZM323.784 201.1C323.784 200.439 323.651 199.863 323.384 199.372C323.117 198.881 322.755 198.508 322.296 198.252C321.848 197.985 321.352 197.852 320.808 197.852C320.264 197.852 319.768 197.98 319.32 198.236C318.872 198.492 318.515 198.865 318.248 199.356C317.981 199.847 317.848 200.423 317.848 201.084C317.848 201.756 317.981 202.343 318.248 202.844C318.515 203.335 318.872 203.713 319.32 203.98C319.768 204.236 320.264 204.364 320.808 204.364C321.352 204.364 321.848 204.236 322.296 203.98C322.755 203.713 323.117 203.335 323.384 202.844C323.651 202.343 323.784 201.761 323.784 201.1ZM329.672 193.66V205.5H328.216V193.66H329.672ZM340.206 196.732L334.926 209.628H333.422L335.15 205.404L331.614 196.732H333.23L335.982 203.836L338.702 196.732H340.206ZM345.274 205.644C344.602 205.644 343.999 205.532 343.466 205.308C342.932 205.073 342.511 204.753 342.202 204.348C341.892 203.932 341.722 203.457 341.69 202.924H343.194C343.236 203.361 343.439 203.719 343.802 203.996C344.175 204.273 344.66 204.412 345.258 204.412C345.812 204.412 346.25 204.289 346.57 204.044C346.89 203.799 347.05 203.489 347.05 203.116C347.05 202.732 346.879 202.449 346.538 202.268C346.196 202.076 345.668 201.889 344.954 201.708C344.303 201.537 343.77 201.367 343.354 201.196C342.948 201.015 342.596 200.753 342.298 200.412C342.01 200.06 341.866 199.601 341.866 199.036C341.866 198.588 341.999 198.177 342.266 197.804C342.532 197.431 342.911 197.137 343.402 196.924C343.892 196.7 344.452 196.588 345.082 196.588C346.052 196.588 346.836 196.833 347.434 197.324C348.031 197.815 348.351 198.487 348.394 199.34H346.938C346.906 198.881 346.719 198.513 346.378 198.236C346.047 197.959 345.599 197.82 345.034 197.82C344.511 197.82 344.095 197.932 343.786 198.156C343.476 198.38 343.322 198.673 343.322 199.036C343.322 199.324 343.412 199.564 343.594 199.756C343.786 199.937 344.02 200.087 344.298 200.204C344.586 200.311 344.98 200.433 345.482 200.572C346.111 200.743 346.623 200.913 347.018 201.084C347.412 201.244 347.748 201.489 348.026 201.82C348.314 202.151 348.463 202.583 348.474 203.116C348.474 203.596 348.34 204.028 348.074 204.412C347.807 204.796 347.428 205.1 346.938 205.324C346.458 205.537 345.903 205.644 345.274 205.644ZM351.781 195.308C351.504 195.308 351.269 195.212 351.077 195.02C350.885 194.828 350.789 194.593 350.789 194.316C350.789 194.039 350.885 193.804 351.077 193.612C351.269 193.42 351.504 193.324 351.781 193.324C352.048 193.324 352.272 193.42 352.453 193.612C352.645 193.804 352.741 194.039 352.741 194.316C352.741 194.593 352.645 194.828 352.453 195.02C352.272 195.212 352.048 195.308 351.781 195.308ZM352.485 196.732V205.5H351.029V196.732H352.485ZM358.57 205.644C357.898 205.644 357.296 205.532 356.762 205.308C356.229 205.073 355.808 204.753 355.498 204.348C355.189 203.932 355.018 203.457 354.986 202.924H356.49C356.533 203.361 356.736 203.719 357.098 203.996C357.472 204.273 357.957 204.412 358.554 204.412C359.109 204.412 359.546 204.289 359.866 204.044C360.186 203.799 360.346 203.489 360.346 203.116C360.346 202.732 360.176 202.449 359.834 202.268C359.493 202.076 358.965 201.889 358.25 201.708C357.6 201.537 357.066 201.367 356.65 201.196C356.245 201.015 355.893 200.753 355.594 200.412C355.306 200.06 355.162 199.601 355.162 199.036C355.162 198.588 355.296 198.177 355.562 197.804C355.829 197.431 356.208 197.137 356.698 196.924C357.189 196.7 357.749 196.588 358.378 196.588C359.349 196.588 360.133 196.833 360.73 197.324C361.328 197.815 361.648 198.487 361.69 199.34H360.234C360.202 198.881 360.016 198.513 359.674 198.236C359.344 197.959 358.896 197.82 358.33 197.82C357.808 197.82 357.392 197.932 357.082 198.156C356.773 198.38 356.618 198.673 356.618 199.036C356.618 199.324 356.709 199.564 356.89 199.756C357.082 199.937 357.317 200.087 357.594 200.204C357.882 200.311 358.277 200.433 358.778 200.572C359.408 200.743 359.92 200.913 360.314 201.084C360.709 201.244 361.045 201.489 361.322 201.82C361.61 202.151 361.76 202.583 361.77 203.116C361.77 203.596 361.637 204.028 361.37 204.412C361.104 204.796 360.725 205.1 360.234 205.324C359.754 205.537 359.2 205.644 358.57 205.644Z" fill="white"/>
<path d="M140.5 211.5L184.5 199.5" stroke="url(#paint14_linear_1240_775)" stroke-miterlimit="10"/>
<path d="M141 205.5C137.933 205.5 135.5 207.933 135.5 211C135.5 214.067 137.933 216.5 141 216.5C144.067 216.5 146.5 214.067 146.5 211C146.5 207.933 144.067 205.5 141 205.5Z" fill="url(#paint15_linear_1240_775)" stroke="url(#paint16_linear_1240_775)"/>
<path d="M203.5 199C203.5 208.665 195.665 216.5 186 216.5C176.335 216.5 168.5 208.665 168.5 199C168.5 189.335 176.335 181.5 186 181.5C195.665 181.5 203.5 189.335 203.5 199Z" fill="url(#paint17_linear_1240_775)" stroke="url(#paint18_linear_1240_775)"/>
<rect x="207.5" y="256.5" width="239" height="47" rx="23.5" fill="url(#paint19_linear_1240_775)"/>
<rect x="207.5" y="256.5" width="239" height="47" rx="23.5" stroke="url(#paint20_linear_1240_775)"/>
<path d="M235.768 286.612C235.032 286.612 234.371 286.484 233.784 286.228C233.208 285.961 232.755 285.599 232.424 285.14C232.093 284.671 231.923 284.132 231.912 283.524H233.464C233.517 284.047 233.731 284.489 234.104 284.852C234.488 285.204 235.043 285.38 235.768 285.38C236.461 285.38 237.005 285.209 237.4 284.868C237.805 284.516 238.008 284.068 238.008 283.524C238.008 283.097 237.891 282.751 237.656 282.484C237.421 282.217 237.128 282.015 236.776 281.876C236.424 281.737 235.949 281.588 235.352 281.428C234.616 281.236 234.024 281.044 233.576 280.852C233.139 280.66 232.76 280.361 232.44 279.956C232.131 279.54 231.976 278.985 231.976 278.292C231.976 277.684 232.131 277.145 232.44 276.676C232.749 276.207 233.181 275.844 233.736 275.588C234.301 275.332 234.947 275.204 235.672 275.204C236.717 275.204 237.571 275.465 238.232 275.988C238.904 276.511 239.283 277.204 239.368 278.068H237.768C237.715 277.641 237.491 277.268 237.096 276.948C236.701 276.617 236.179 276.452 235.528 276.452C234.92 276.452 234.424 276.612 234.04 276.932C233.656 277.241 233.464 277.679 233.464 278.244C233.464 278.649 233.576 278.98 233.8 279.236C234.035 279.492 234.317 279.689 234.648 279.828C234.989 279.956 235.464 280.105 236.072 280.276C236.808 280.479 237.4 280.681 237.848 280.884C238.296 281.076 238.68 281.38 239 281.796C239.32 282.201 239.48 282.756 239.48 283.46C239.48 284.004 239.336 284.516 239.048 284.996C238.76 285.476 238.333 285.865 237.768 286.164C237.203 286.463 236.536 286.612 235.768 286.612ZM241.579 282.1C241.579 281.193 241.76 280.404 242.123 279.732C242.485 279.049 242.987 278.521 243.627 278.148C244.277 277.775 245.019 277.588 245.851 277.588C246.928 277.588 247.813 277.849 248.507 278.372C249.211 278.895 249.675 279.62 249.899 280.548H248.331C248.181 280.015 247.888 279.593 247.451 279.284C247.024 278.975 246.491 278.82 245.851 278.82C245.019 278.82 244.347 279.108 243.835 279.684C243.323 280.249 243.067 281.055 243.067 282.1C243.067 283.156 243.323 283.972 243.835 284.548C244.347 285.124 245.019 285.412 245.851 285.412C246.491 285.412 247.024 285.263 247.451 284.964C247.877 284.665 248.171 284.239 248.331 283.684H249.899C249.664 284.58 249.195 285.3 248.491 285.844C247.787 286.377 246.907 286.644 245.851 286.644C245.019 286.644 244.277 286.457 243.627 286.084C242.987 285.711 242.485 285.183 242.123 284.5C241.76 283.817 241.579 283.017 241.579 282.1ZM251.797 282.084C251.797 281.188 251.979 280.404 252.341 279.732C252.704 279.049 253.2 278.521 253.829 278.148C254.469 277.775 255.179 277.588 255.957 277.588C256.725 277.588 257.392 277.753 257.957 278.084C258.523 278.415 258.944 278.831 259.221 279.332V277.732H260.693V286.5H259.221V284.868C258.933 285.38 258.501 285.807 257.925 286.148C257.36 286.479 256.699 286.644 255.941 286.644C255.163 286.644 254.459 286.452 253.829 286.068C253.2 285.684 252.704 285.145 252.341 284.452C251.979 283.759 251.797 282.969 251.797 282.084ZM259.221 282.1C259.221 281.439 259.088 280.863 258.821 280.372C258.555 279.881 258.192 279.508 257.733 279.252C257.285 278.985 256.789 278.852 256.245 278.852C255.701 278.852 255.205 278.98 254.757 279.236C254.309 279.492 253.952 279.865 253.685 280.356C253.419 280.847 253.285 281.423 253.285 282.084C253.285 282.756 253.419 283.343 253.685 283.844C253.952 284.335 254.309 284.713 254.757 284.98C255.205 285.236 255.701 285.364 256.245 285.364C256.789 285.364 257.285 285.236 257.733 284.98C258.192 284.713 258.555 284.335 258.821 283.844C259.088 283.343 259.221 282.761 259.221 282.1ZM274.198 277.572C274.881 277.572 275.489 277.716 276.022 278.004C276.555 278.281 276.977 278.703 277.286 279.268C277.595 279.833 277.75 280.521 277.75 281.332V286.5H276.31V281.54C276.31 280.665 276.091 279.999 275.654 279.54C275.227 279.071 274.646 278.836 273.91 278.836C273.153 278.836 272.55 279.081 272.102 279.572C271.654 280.052 271.43 280.751 271.43 281.668V286.5H269.99V281.54C269.99 280.665 269.771 279.999 269.334 279.54C268.907 279.071 268.326 278.836 267.59 278.836C266.833 278.836 266.23 279.081 265.782 279.572C265.334 280.052 265.11 280.751 265.11 281.668V286.5H263.654V277.732H265.11V278.996C265.398 278.537 265.782 278.185 266.262 277.94C266.753 277.695 267.291 277.572 267.878 277.572C268.614 277.572 269.265 277.737 269.83 278.068C270.395 278.399 270.817 278.884 271.094 279.524C271.339 278.905 271.745 278.425 272.31 278.084C272.875 277.743 273.505 277.572 274.198 277.572ZM292.86 278.612C292.86 279.54 292.54 280.313 291.9 280.932C291.271 281.54 290.305 281.844 289.004 281.844H286.86V286.5H285.404V275.348H289.004C290.263 275.348 291.217 275.652 291.868 276.26C292.529 276.868 292.86 277.652 292.86 278.612ZM289.004 280.644C289.815 280.644 290.412 280.468 290.796 280.116C291.18 279.764 291.372 279.263 291.372 278.612C291.372 277.236 290.583 276.548 289.004 276.548H286.86V280.644H289.004ZM296.626 279.156C296.882 278.655 297.244 278.265 297.714 277.988C298.194 277.711 298.775 277.572 299.458 277.572V279.076H299.074C297.442 279.076 296.626 279.961 296.626 281.732V286.5H295.17V277.732H296.626V279.156ZM309.638 281.78C309.638 282.057 309.622 282.351 309.59 282.66H302.582C302.636 283.524 302.929 284.201 303.462 284.692C304.006 285.172 304.662 285.412 305.43 285.412C306.06 285.412 306.582 285.268 306.998 284.98C307.425 284.681 307.724 284.287 307.894 283.796H309.462C309.228 284.639 308.758 285.327 308.054 285.86C307.35 286.383 306.476 286.644 305.43 286.644C304.598 286.644 303.852 286.457 303.19 286.084C302.54 285.711 302.028 285.183 301.654 284.5C301.281 283.807 301.094 283.007 301.094 282.1C301.094 281.193 301.276 280.399 301.638 279.716C302.001 279.033 302.508 278.511 303.158 278.148C303.82 277.775 304.577 277.588 305.43 277.588C306.262 277.588 306.998 277.769 307.638 278.132C308.278 278.495 308.769 278.996 309.11 279.636C309.462 280.265 309.638 280.98 309.638 281.78ZM308.134 281.476C308.134 280.921 308.012 280.447 307.766 280.052C307.521 279.647 307.185 279.343 306.758 279.14C306.342 278.927 305.878 278.82 305.366 278.82C304.63 278.82 304.001 279.055 303.478 279.524C302.966 279.993 302.673 280.644 302.598 281.476H308.134ZM315.324 285.156L318.044 277.732H319.596L316.156 286.5H314.46L311.02 277.732H312.588L315.324 285.156ZM329.529 281.78C329.529 282.057 329.513 282.351 329.481 282.66H322.473C322.526 283.524 322.82 284.201 323.353 284.692C323.897 285.172 324.553 285.412 325.321 285.412C325.95 285.412 326.473 285.268 326.889 284.98C327.316 284.681 327.614 284.287 327.785 283.796H329.353C329.118 284.639 328.649 285.327 327.945 285.86C327.241 286.383 326.366 286.644 325.321 286.644C324.489 286.644 323.742 286.457 323.081 286.084C322.43 285.711 321.918 285.183 321.545 284.5C321.172 283.807 320.985 283.007 320.985 282.1C320.985 281.193 321.166 280.399 321.529 279.716C321.892 279.033 322.398 278.511 323.049 278.148C323.71 277.775 324.468 277.588 325.321 277.588C326.153 277.588 326.889 277.769 327.529 278.132C328.169 278.495 328.66 278.996 329.001 279.636C329.353 280.265 329.529 280.98 329.529 281.78ZM328.025 281.476C328.025 280.921 327.902 280.447 327.657 280.052C327.412 279.647 327.076 279.343 326.649 279.14C326.233 278.927 325.769 278.82 325.257 278.82C324.521 278.82 323.892 279.055 323.369 279.524C322.857 279.993 322.564 280.644 322.489 281.476H328.025ZM336.223 277.572C337.289 277.572 338.153 277.897 338.815 278.548C339.476 279.188 339.807 280.116 339.807 281.332V286.5H338.367V281.54C338.367 280.665 338.148 279.999 337.711 279.54C337.273 279.071 336.676 278.836 335.919 278.836C335.151 278.836 334.537 279.076 334.079 279.556C333.631 280.036 333.407 280.735 333.407 281.652V286.5H331.951V277.732H333.407V278.98C333.695 278.532 334.084 278.185 334.575 277.94C335.076 277.695 335.625 277.572 336.223 277.572ZM344.461 278.932V284.1C344.461 284.527 344.552 284.831 344.733 285.012C344.914 285.183 345.229 285.268 345.677 285.268H346.749V286.5H345.437C344.626 286.5 344.018 286.313 343.613 285.94C343.208 285.567 343.005 284.953 343.005 284.1V278.932H341.869V277.732H343.005V275.524H344.461V277.732H346.749V278.932H344.461ZM349.765 276.308C349.488 276.308 349.253 276.212 349.061 276.02C348.869 275.828 348.773 275.593 348.773 275.316C348.773 275.039 348.869 274.804 349.061 274.612C349.253 274.42 349.488 274.324 349.765 274.324C350.032 274.324 350.256 274.42 350.437 274.612C350.629 274.804 350.725 275.039 350.725 275.316C350.725 275.593 350.629 275.828 350.437 276.02C350.256 276.212 350.032 276.308 349.765 276.308ZM350.469 277.732V286.5H349.013V277.732H350.469ZM357.275 286.644C356.453 286.644 355.707 286.457 355.035 286.084C354.373 285.711 353.851 285.183 353.467 284.5C353.093 283.807 352.907 283.007 352.907 282.1C352.907 281.204 353.099 280.415 353.483 279.732C353.877 279.039 354.411 278.511 355.083 278.148C355.755 277.775 356.507 277.588 357.339 277.588C358.171 277.588 358.923 277.775 359.595 278.148C360.267 278.511 360.795 279.033 361.179 279.716C361.573 280.399 361.771 281.193 361.771 282.1C361.771 283.007 361.568 283.807 361.163 284.5C360.768 285.183 360.229 285.711 359.547 286.084C358.864 286.457 358.107 286.644 357.275 286.644ZM357.275 285.364C357.797 285.364 358.288 285.241 358.747 284.996C359.205 284.751 359.573 284.383 359.851 283.892C360.139 283.401 360.283 282.804 360.283 282.1C360.283 281.396 360.144 280.799 359.867 280.308C359.589 279.817 359.227 279.455 358.779 279.22C358.331 278.975 357.845 278.852 357.323 278.852C356.789 278.852 356.299 278.975 355.851 279.22C355.413 279.455 355.061 279.817 354.795 280.308C354.528 280.799 354.395 281.396 354.395 282.1C354.395 282.815 354.523 283.417 354.779 283.908C355.045 284.399 355.397 284.767 355.835 285.012C356.272 285.247 356.752 285.364 357.275 285.364ZM368.457 277.572C369.524 277.572 370.388 277.897 371.049 278.548C371.71 279.188 372.041 280.116 372.041 281.332V286.5H370.601V281.54C370.601 280.665 370.382 279.999 369.945 279.54C369.508 279.071 368.91 278.836 368.153 278.836C367.385 278.836 366.772 279.076 366.313 279.556C365.865 280.036 365.641 280.735 365.641 281.652V286.5H364.185V277.732H365.641V278.98C365.929 278.532 366.318 278.185 366.809 277.94C367.31 277.695 367.86 277.572 368.457 277.572Z" fill="white"/>
<path d="M158.5 281H201" stroke="url(#paint21_linear_1240_775)" stroke-miterlimit="10"/>
<path d="M156 274.5C152.933 274.5 150.5 276.933 150.5 280C150.5 283.067 152.933 285.5 156 285.5C159.067 285.5 161.5 283.067 161.5 280C161.5 276.933 159.067 274.5 156 274.5Z" fill="url(#paint22_linear_1240_775)" stroke="url(#paint23_linear_1240_775)"/>
<path d="M219.5 280C219.5 289.665 211.665 297.5 202 297.5C192.335 297.5 184.5 289.665 184.5 280C184.5 270.335 192.335 262.5 202 262.5C211.665 262.5 219.5 270.335 219.5 280Z" fill="url(#paint24_linear_1240_775)" stroke="url(#paint25_linear_1240_775)"/>
<rect x="191.5" y="337.5" width="239" height="47" rx="23.5" fill="url(#paint26_linear_1240_775)"/>
<rect x="191.5" y="337.5" width="239" height="47" rx="23.5" stroke="url(#paint27_linear_1240_775)"/>
<path d="M222.824 365.02H217.96L217.064 367.5H215.528L219.56 356.412H221.24L225.256 367.5H223.72L222.824 365.02ZM222.408 363.836L220.392 358.204L218.376 363.836H222.408ZM231.785 358.572C232.852 358.572 233.716 358.897 234.377 359.548C235.039 360.188 235.369 361.116 235.369 362.332V367.5H233.929V362.54C233.929 361.665 233.711 360.999 233.273 360.54C232.836 360.071 232.239 359.836 231.481 359.836C230.713 359.836 230.1 360.076 229.641 360.556C229.193 361.036 228.969 361.735 228.969 362.652V367.5H227.513V358.732H228.969V359.98C229.257 359.532 229.647 359.185 230.137 358.94C230.639 358.695 231.188 358.572 231.785 358.572ZM242.072 367.644C241.25 367.644 240.504 367.457 239.832 367.084C239.17 366.711 238.648 366.183 238.264 365.5C237.89 364.807 237.704 364.007 237.704 363.1C237.704 362.204 237.896 361.415 238.28 360.732C238.674 360.039 239.208 359.511 239.88 359.148C240.552 358.775 241.304 358.588 242.136 358.588C242.968 358.588 243.72 358.775 244.392 359.148C245.064 359.511 245.592 360.033 245.976 360.716C246.37 361.399 246.568 362.193 246.568 363.1C246.568 364.007 246.365 364.807 245.96 365.5C245.565 366.183 245.026 366.711 244.344 367.084C243.661 367.457 242.904 367.644 242.072 367.644ZM242.072 366.364C242.594 366.364 243.085 366.241 243.544 365.996C244.002 365.751 244.37 365.383 244.648 364.892C244.936 364.401 245.08 363.804 245.08 363.1C245.08 362.396 244.941 361.799 244.664 361.308C244.386 360.817 244.024 360.455 243.576 360.22C243.128 359.975 242.642 359.852 242.12 359.852C241.586 359.852 241.096 359.975 240.648 360.22C240.21 360.455 239.858 360.817 239.592 361.308C239.325 361.799 239.192 362.396 239.192 363.1C239.192 363.815 239.32 364.417 239.576 364.908C239.842 365.399 240.194 365.767 240.632 366.012C241.069 366.247 241.549 366.364 242.072 366.364ZM259.526 358.572C260.209 358.572 260.817 358.716 261.35 359.004C261.883 359.281 262.305 359.703 262.614 360.268C262.923 360.833 263.078 361.521 263.078 362.332V367.5H261.638V362.54C261.638 361.665 261.419 360.999 260.982 360.54C260.555 360.071 259.974 359.836 259.238 359.836C258.481 359.836 257.878 360.081 257.43 360.572C256.982 361.052 256.758 361.751 256.758 362.668V367.5H255.318V362.54C255.318 361.665 255.099 360.999 254.662 360.54C254.235 360.071 253.654 359.836 252.918 359.836C252.161 359.836 251.558 360.081 251.11 360.572C250.662 361.052 250.438 361.751 250.438 362.668V367.5H248.982V358.732H250.438V359.996C250.726 359.537 251.11 359.185 251.59 358.94C252.081 358.695 252.619 358.572 253.206 358.572C253.942 358.572 254.593 358.737 255.158 359.068C255.723 359.399 256.145 359.884 256.422 360.524C256.667 359.905 257.073 359.425 257.638 359.084C258.203 358.743 258.833 358.572 259.526 358.572ZM265.422 363.084C265.422 362.188 265.604 361.404 265.966 360.732C266.329 360.049 266.825 359.521 267.454 359.148C268.094 358.775 268.804 358.588 269.582 358.588C270.35 358.588 271.017 358.753 271.582 359.084C272.148 359.415 272.569 359.831 272.846 360.332V358.732H274.318V367.5H272.846V365.868C272.558 366.38 272.126 366.807 271.55 367.148C270.985 367.479 270.324 367.644 269.566 367.644C268.788 367.644 268.084 367.452 267.454 367.068C266.825 366.684 266.329 366.145 265.966 365.452C265.604 364.759 265.422 363.969 265.422 363.084ZM272.846 363.1C272.846 362.439 272.713 361.863 272.446 361.372C272.18 360.881 271.817 360.508 271.358 360.252C270.91 359.985 270.414 359.852 269.87 359.852C269.326 359.852 268.83 359.98 268.382 360.236C267.934 360.492 267.577 360.865 267.31 361.356C267.044 361.847 266.91 362.423 266.91 363.084C266.91 363.756 267.044 364.343 267.31 364.844C267.577 365.335 267.934 365.713 268.382 365.98C268.83 366.236 269.326 366.364 269.87 366.364C270.414 366.364 270.91 366.236 271.358 365.98C271.817 365.713 272.18 365.335 272.446 364.844C272.713 364.343 272.846 363.761 272.846 363.1ZM278.735 355.66V367.5H277.279V355.66H278.735ZM289.268 358.732L283.988 371.628H282.484L284.212 367.404L280.676 358.732H282.292L285.044 365.836L287.764 358.732H289.268ZM297.454 356.348V367.5H295.998V356.348H297.454ZM299.891 363.084C299.891 362.188 300.072 361.404 300.435 360.732C300.798 360.049 301.294 359.521 301.923 359.148C302.563 358.775 303.278 358.588 304.067 358.588C304.75 358.588 305.384 358.748 305.971 359.068C306.558 359.377 307.006 359.788 307.315 360.3V355.66H308.787V367.5H307.315V365.852C307.027 366.375 306.6 366.807 306.035 367.148C305.47 367.479 304.808 367.644 304.051 367.644C303.272 367.644 302.563 367.452 301.923 367.068C301.294 366.684 300.798 366.145 300.435 365.452C300.072 364.759 299.891 363.969 299.891 363.084ZM307.315 363.1C307.315 362.439 307.182 361.863 306.915 361.372C306.648 360.881 306.286 360.508 305.827 360.252C305.379 359.985 304.883 359.852 304.339 359.852C303.795 359.852 303.299 359.98 302.851 360.236C302.403 360.492 302.046 360.865 301.779 361.356C301.512 361.847 301.379 362.423 301.379 363.084C301.379 363.756 301.512 364.343 301.779 364.844C302.046 365.335 302.403 365.713 302.851 365.98C303.299 366.236 303.795 366.364 304.339 366.364C304.883 366.364 305.379 366.236 305.827 365.98C306.286 365.713 306.648 365.335 306.915 364.844C307.182 364.343 307.315 363.761 307.315 363.1ZM319.748 362.78C319.748 363.057 319.732 363.351 319.7 363.66H312.692C312.745 364.524 313.038 365.201 313.572 365.692C314.116 366.172 314.772 366.412 315.54 366.412C316.169 366.412 316.692 366.268 317.108 365.98C317.534 365.681 317.833 365.287 318.004 364.796H319.572C319.337 365.639 318.868 366.327 318.164 366.86C317.46 367.383 316.585 367.644 315.54 367.644C314.708 367.644 313.961 367.457 313.3 367.084C312.649 366.711 312.137 366.183 311.764 365.5C311.39 364.807 311.204 364.007 311.204 363.1C311.204 362.193 311.385 361.399 311.748 360.716C312.11 360.033 312.617 359.511 313.268 359.148C313.929 358.775 314.686 358.588 315.54 358.588C316.372 358.588 317.108 358.769 317.748 359.132C318.388 359.495 318.878 359.996 319.22 360.636C319.572 361.265 319.748 361.98 319.748 362.78ZM318.244 362.476C318.244 361.921 318.121 361.447 317.876 361.052C317.63 360.647 317.294 360.343 316.868 360.14C316.452 359.927 315.988 359.82 315.476 359.82C314.74 359.82 314.11 360.055 313.588 360.524C313.076 360.993 312.782 361.644 312.708 362.476H318.244ZM326.442 358.572C327.508 358.572 328.372 358.897 329.034 359.548C329.695 360.188 330.026 361.116 330.026 362.332V367.5H328.586V362.54C328.586 361.665 328.367 360.999 327.93 360.54C327.492 360.071 326.895 359.836 326.138 359.836C325.37 359.836 324.756 360.076 324.298 360.556C323.85 361.036 323.626 361.735 323.626 362.652V367.5H322.17V358.732H323.626V359.98C323.914 359.532 324.303 359.185 324.794 358.94C325.295 358.695 325.844 358.572 326.442 358.572ZM334.68 359.932V365.1C334.68 365.527 334.771 365.831 334.952 366.012C335.133 366.183 335.448 366.268 335.896 366.268H336.968V367.5H335.656C334.845 367.5 334.237 367.313 333.832 366.94C333.427 366.567 333.224 365.953 333.224 365.1V359.932H332.088V358.732H333.224V356.524H334.68V358.732H336.968V359.932H334.68ZM339.984 357.308C339.707 357.308 339.472 357.212 339.28 357.02C339.088 356.828 338.992 356.593 338.992 356.316C338.992 356.039 339.088 355.804 339.28 355.612C339.472 355.42 339.707 355.324 339.984 355.324C340.251 355.324 340.475 355.42 340.656 355.612C340.848 355.804 340.944 356.039 340.944 356.316C340.944 356.593 340.848 356.828 340.656 357.02C340.475 357.212 340.251 357.308 339.984 357.308ZM340.688 358.732V367.5H339.232V358.732H340.688ZM347.238 359.932H345.398V367.5H343.942V359.932H342.806V358.732H343.942V358.108C343.942 357.127 344.192 356.412 344.694 355.964C345.206 355.505 346.022 355.276 347.141 355.276V356.492C346.502 356.492 346.048 356.62 345.782 356.876C345.526 357.121 345.398 357.532 345.398 358.108V358.732H347.238V359.932ZM350.187 357.308C349.91 357.308 349.675 357.212 349.483 357.02C349.291 356.828 349.195 356.593 349.195 356.316C349.195 356.039 349.291 355.804 349.483 355.612C349.675 355.42 349.91 355.324 350.187 355.324C350.454 355.324 350.678 355.42 350.859 355.612C351.051 355.804 351.147 356.039 351.147 356.316C351.147 356.593 351.051 356.828 350.859 357.02C350.678 357.212 350.454 357.308 350.187 357.308ZM350.891 358.732V367.5H349.435V358.732H350.891ZM353.329 363.1C353.329 362.193 353.51 361.404 353.873 360.732C354.235 360.049 354.737 359.521 355.377 359.148C356.027 358.775 356.769 358.588 357.601 358.588C358.678 358.588 359.563 358.849 360.257 359.372C360.961 359.895 361.425 360.62 361.649 361.548H360.081C359.931 361.015 359.638 360.593 359.201 360.284C358.774 359.975 358.241 359.82 357.601 359.82C356.769 359.82 356.097 360.108 355.585 360.684C355.073 361.249 354.817 362.055 354.817 363.1C354.817 364.156 355.073 364.972 355.585 365.548C356.097 366.124 356.769 366.412 357.601 366.412C358.241 366.412 358.774 366.263 359.201 365.964C359.627 365.665 359.921 365.239 360.081 364.684H361.649C361.414 365.58 360.945 366.3 360.241 366.844C359.537 367.377 358.657 367.644 357.601 367.644C356.769 367.644 356.027 367.457 355.377 367.084C354.737 366.711 354.235 366.183 353.873 365.5C353.51 364.817 353.329 364.017 353.329 363.1ZM363.547 363.084C363.547 362.188 363.729 361.404 364.091 360.732C364.454 360.049 364.95 359.521 365.579 359.148C366.219 358.775 366.929 358.588 367.707 358.588C368.475 358.588 369.142 358.753 369.707 359.084C370.273 359.415 370.694 359.831 370.971 360.332V358.732H372.443V367.5H370.971V365.868C370.683 366.38 370.251 366.807 369.675 367.148C369.11 367.479 368.449 367.644 367.691 367.644C366.913 367.644 366.209 367.452 365.579 367.068C364.95 366.684 364.454 366.145 364.091 365.452C363.729 364.759 363.547 363.969 363.547 363.084ZM370.971 363.1C370.971 362.439 370.838 361.863 370.571 361.372C370.305 360.881 369.942 360.508 369.483 360.252C369.035 359.985 368.539 359.852 367.995 359.852C367.451 359.852 366.955 359.98 366.507 360.236C366.059 360.492 365.702 360.865 365.435 361.356C365.169 361.847 365.035 362.423 365.035 363.084C365.035 363.756 365.169 364.343 365.435 364.844C365.702 365.335 366.059 365.713 366.507 365.98C366.955 366.236 367.451 366.364 367.995 366.364C368.539 366.364 369.035 366.236 369.483 365.98C369.942 365.713 370.305 365.335 370.571 364.844C370.838 364.343 370.971 363.761 370.971 363.1ZM377.18 359.932V365.1C377.18 365.527 377.271 365.831 377.452 366.012C377.633 366.183 377.948 366.268 378.396 366.268H379.468V367.5H378.156C377.345 367.5 376.737 367.313 376.332 366.94C375.927 366.567 375.724 365.953 375.724 365.1V359.932H374.588V358.732H375.724V356.524H377.18V358.732H379.468V359.932H377.18ZM382.484 357.308C382.207 357.308 381.972 357.212 381.78 357.02C381.588 356.828 381.492 356.593 381.492 356.316C381.492 356.039 381.588 355.804 381.78 355.612C381.972 355.42 382.207 355.324 382.484 355.324C382.751 355.324 382.975 355.42 383.156 355.612C383.348 355.804 383.444 356.039 383.444 356.316C383.444 356.593 383.348 356.828 383.156 357.02C382.975 357.212 382.751 357.308 382.484 357.308ZM383.188 358.732V367.5H381.732V358.732H383.188ZM389.994 367.644C389.172 367.644 388.426 367.457 387.754 367.084C387.092 366.711 386.57 366.183 386.186 365.5C385.812 364.807 385.626 364.007 385.626 363.1C385.626 362.204 385.818 361.415 386.202 360.732C386.596 360.039 387.13 359.511 387.802 359.148C388.474 358.775 389.226 358.588 390.058 358.588C390.89 358.588 391.642 358.775 392.314 359.148C392.986 359.511 393.514 360.033 393.898 360.716C394.292 361.399 394.49 362.193 394.49 363.1C394.49 364.007 394.287 364.807 393.882 365.5C393.487 366.183 392.948 366.711 392.266 367.084C391.583 367.457 390.826 367.644 389.994 367.644ZM389.994 366.364C390.516 366.364 391.007 366.241 391.466 365.996C391.924 365.751 392.292 365.383 392.57 364.892C392.858 364.401 393.002 363.804 393.002 363.1C393.002 362.396 392.863 361.799 392.586 361.308C392.308 360.817 391.946 360.455 391.498 360.22C391.05 359.975 390.564 359.852 390.042 359.852C389.508 359.852 389.018 359.975 388.57 360.22C388.132 360.455 387.78 360.817 387.514 361.308C387.247 361.799 387.114 362.396 387.114 363.1C387.114 363.815 387.242 364.417 387.498 364.908C387.764 365.399 388.116 365.767 388.554 366.012C388.991 366.247 389.471 366.364 389.994 366.364ZM401.176 358.572C402.243 358.572 403.107 358.897 403.768 359.548C404.429 360.188 404.76 361.116 404.76 362.332V367.5H403.32V362.54C403.32 361.665 403.101 360.999 402.664 360.54C402.227 360.071 401.629 359.836 400.872 359.836C400.104 359.836 399.491 360.076 399.032 360.556C398.584 361.036 398.36 361.735 398.36 362.652V367.5H396.904V358.732H398.36V359.98C398.648 359.532 399.037 359.185 399.528 358.94C400.029 358.695 400.579 358.572 401.176 358.572Z" fill="white"/>
<path d="M142.918 344.169L190.001 362" stroke="url(#paint28_linear_1240_775)" stroke-miterlimit="10"/>
<path d="M143 338.5C139.933 338.5 137.5 340.933 137.5 344C137.5 347.067 139.933 349.5 143 349.5C146.067 349.5 148.5 347.067 148.5 344C148.5 340.933 146.067 338.5 143 338.5Z" fill="url(#paint29_linear_1240_775)" stroke="url(#paint30_linear_1240_775)"/>
<path d="M203.5 361C203.5 370.665 195.665 378.5 186 378.5C176.335 378.5 168.5 370.665 168.5 361C168.5 351.335 176.335 343.5 186 343.5C195.665 343.5 203.5 351.335 203.5 361Z" fill="url(#paint31_linear_1240_775)" stroke="url(#paint32_linear_1240_775)"/>
<rect x="130.5" y="418.5" width="239" height="47" rx="23.5" fill="url(#paint33_linear_1240_775)"/>
<rect x="130.5" y="418.5" width="239" height="47" rx="23.5" stroke="url(#paint34_linear_1240_775)"/>
<path d="M156.688 438.532V442.26H160.752V443.46H156.688V447.3H161.232V448.5H155.232V437.332H161.232V438.532H156.688ZM168.207 439.572C169.274 439.572 170.138 439.897 170.799 440.548C171.46 441.188 171.791 442.116 171.791 443.332V448.5H170.351V443.54C170.351 442.665 170.132 441.999 169.695 441.54C169.258 441.071 168.66 440.836 167.903 440.836C167.135 440.836 166.522 441.076 166.063 441.556C165.615 442.036 165.391 442.735 165.391 443.652V448.5H163.935V439.732H165.391V440.98C165.679 440.532 166.068 440.185 166.559 439.94C167.06 439.695 167.61 439.572 168.207 439.572ZM179.022 439.572C179.683 439.572 180.28 439.716 180.814 440.004C181.347 440.281 181.763 440.703 182.062 441.268C182.371 441.833 182.526 442.521 182.526 443.332V448.5H181.086V443.54C181.086 442.665 180.867 441.999 180.43 441.54C179.992 441.071 179.395 440.836 178.638 440.836C177.87 440.836 177.256 441.076 176.798 441.556C176.35 442.036 176.126 442.735 176.126 443.652V448.5H174.67V436.66H176.126V440.98C176.414 440.532 176.808 440.185 177.31 439.94C177.822 439.695 178.392 439.572 179.022 439.572ZM184.86 444.084C184.86 443.188 185.041 442.404 185.404 441.732C185.767 441.049 186.263 440.521 186.892 440.148C187.532 439.775 188.241 439.588 189.02 439.588C189.788 439.588 190.455 439.753 191.02 440.084C191.585 440.415 192.007 440.831 192.284 441.332V439.732H193.756V448.5H192.284V446.868C191.996 447.38 191.564 447.807 190.988 448.148C190.423 448.479 189.761 448.644 189.004 448.644C188.225 448.644 187.521 448.452 186.892 448.068C186.263 447.684 185.767 447.145 185.404 446.452C185.041 445.759 184.86 444.969 184.86 444.084ZM192.284 444.1C192.284 443.439 192.151 442.863 191.884 442.372C191.617 441.881 191.255 441.508 190.796 441.252C190.348 440.985 189.852 440.852 189.308 440.852C188.764 440.852 188.268 440.98 187.82 441.236C187.372 441.492 187.015 441.865 186.748 442.356C186.481 442.847 186.348 443.423 186.348 444.084C186.348 444.756 186.481 445.343 186.748 445.844C187.015 446.335 187.372 446.713 187.82 446.98C188.268 447.236 188.764 447.364 189.308 447.364C189.852 447.364 190.348 447.236 190.796 446.98C191.255 446.713 191.617 446.335 191.884 445.844C192.151 445.343 192.284 444.761 192.284 444.1ZM200.988 439.572C202.055 439.572 202.919 439.897 203.58 440.548C204.242 441.188 204.572 442.116 204.572 443.332V448.5H203.132V443.54C203.132 442.665 202.914 441.999 202.476 441.54C202.039 441.071 201.442 440.836 200.684 440.836C199.916 440.836 199.303 441.076 198.844 441.556C198.396 442.036 198.172 442.735 198.172 443.652V448.5H196.716V439.732H198.172V440.98C198.46 440.532 198.85 440.185 199.34 439.94C199.842 439.695 200.391 439.572 200.988 439.572ZM206.907 444.1C206.907 443.193 207.088 442.404 207.451 441.732C207.813 441.049 208.315 440.521 208.955 440.148C209.605 439.775 210.347 439.588 211.179 439.588C212.256 439.588 213.141 439.849 213.835 440.372C214.539 440.895 215.003 441.62 215.227 442.548H213.659C213.509 442.015 213.216 441.593 212.779 441.284C212.352 440.975 211.819 440.82 211.179 440.82C210.347 440.82 209.675 441.108 209.163 441.684C208.651 442.249 208.395 443.055 208.395 444.1C208.395 445.156 208.651 445.972 209.163 446.548C209.675 447.124 210.347 447.412 211.179 447.412C211.819 447.412 212.352 447.263 212.779 446.964C213.205 446.665 213.499 446.239 213.659 445.684H215.227C214.992 446.58 214.523 447.3 213.819 447.844C213.115 448.377 212.235 448.644 211.179 448.644C210.347 448.644 209.605 448.457 208.955 448.084C208.315 447.711 207.813 447.183 207.451 446.5C207.088 445.817 206.907 445.017 206.907 444.1ZM225.67 443.78C225.67 444.057 225.654 444.351 225.622 444.66H218.614C218.667 445.524 218.96 446.201 219.494 446.692C220.038 447.172 220.694 447.412 221.462 447.412C222.091 447.412 222.614 447.268 223.03 446.98C223.456 446.681 223.755 446.287 223.926 445.796H225.494C225.259 446.639 224.79 447.327 224.086 447.86C223.382 448.383 222.507 448.644 221.462 448.644C220.63 448.644 219.883 448.457 219.222 448.084C218.571 447.711 218.059 447.183 217.686 446.5C217.312 445.807 217.126 445.007 217.126 444.1C217.126 443.193 217.307 442.399 217.67 441.716C218.032 441.033 218.539 440.511 219.19 440.148C219.851 439.775 220.608 439.588 221.462 439.588C222.294 439.588 223.03 439.769 223.67 440.132C224.31 440.495 224.8 440.996 225.142 441.636C225.494 442.265 225.67 442.98 225.67 443.78ZM224.166 443.476C224.166 442.921 224.043 442.447 223.798 442.052C223.552 441.647 223.216 441.343 222.79 441.14C222.374 440.927 221.91 440.82 221.398 440.82C220.662 440.82 220.032 441.055 219.51 441.524C218.998 441.993 218.704 442.644 218.63 443.476H224.166ZM227.547 444.084C227.547 443.188 227.729 442.404 228.091 441.732C228.454 441.049 228.95 440.521 229.579 440.148C230.219 439.775 230.934 439.588 231.723 439.588C232.406 439.588 233.041 439.748 233.627 440.068C234.214 440.377 234.662 440.788 234.971 441.3V436.66H236.443V448.5H234.971V446.852C234.683 447.375 234.257 447.807 233.691 448.148C233.126 448.479 232.465 448.644 231.707 448.644C230.929 448.644 230.219 448.452 229.579 448.068C228.95 447.684 228.454 447.145 228.091 446.452C227.729 445.759 227.547 444.969 227.547 444.084ZM234.971 444.1C234.971 443.439 234.838 442.863 234.571 442.372C234.305 441.881 233.942 441.508 233.483 441.252C233.035 440.985 232.539 440.852 231.995 440.852C231.451 440.852 230.955 440.98 230.507 441.236C230.059 441.492 229.702 441.865 229.435 442.356C229.169 442.847 229.035 443.423 229.035 444.084C229.035 444.756 229.169 445.343 229.435 445.844C229.702 446.335 230.059 446.713 230.507 446.98C230.955 447.236 231.451 447.364 231.995 447.364C232.539 447.364 233.035 447.236 233.483 446.98C233.942 446.713 234.305 446.335 234.571 445.844C234.838 445.343 234.971 444.761 234.971 444.1ZM247.706 448.612C246.97 448.612 246.308 448.484 245.722 448.228C245.146 447.961 244.692 447.599 244.362 447.14C244.031 446.671 243.86 446.132 243.85 445.524H245.402C245.455 446.047 245.668 446.489 246.042 446.852C246.426 447.204 246.98 447.38 247.706 447.38C248.399 447.38 248.943 447.209 249.338 446.868C249.743 446.516 249.946 446.068 249.946 445.524C249.946 445.097 249.828 444.751 249.594 444.484C249.359 444.217 249.066 444.015 248.714 443.876C248.362 443.737 247.887 443.588 247.29 443.428C246.554 443.236 245.962 443.044 245.514 442.852C245.076 442.66 244.698 442.361 244.378 441.956C244.068 441.54 243.914 440.985 243.914 440.292C243.914 439.684 244.068 439.145 244.378 438.676C244.687 438.207 245.119 437.844 245.674 437.588C246.239 437.332 246.884 437.204 247.61 437.204C248.655 437.204 249.508 437.465 250.17 437.988C250.842 438.511 251.22 439.204 251.306 440.068H249.706C249.652 439.641 249.428 439.268 249.034 438.948C248.639 438.617 248.116 438.452 247.466 438.452C246.858 438.452 246.362 438.612 245.978 438.932C245.594 439.241 245.402 439.679 245.402 440.244C245.402 440.649 245.514 440.98 245.738 441.236C245.972 441.492 246.255 441.689 246.586 441.828C246.927 441.956 247.402 442.105 248.01 442.276C248.746 442.479 249.338 442.681 249.786 442.884C250.234 443.076 250.618 443.38 250.938 443.796C251.258 444.201 251.418 444.756 251.418 445.46C251.418 446.004 251.274 446.516 250.986 446.996C250.698 447.476 250.271 447.865 249.706 448.164C249.14 448.463 248.474 448.612 247.706 448.612ZM262.06 443.78C262.06 444.057 262.044 444.351 262.012 444.66H255.004C255.057 445.524 255.351 446.201 255.884 446.692C256.428 447.172 257.084 447.412 257.852 447.412C258.481 447.412 259.004 447.268 259.42 446.98C259.847 446.681 260.145 446.287 260.316 445.796H261.884C261.649 446.639 261.18 447.327 260.476 447.86C259.772 448.383 258.897 448.644 257.852 448.644C257.02 448.644 256.273 448.457 255.612 448.084C254.961 447.711 254.449 447.183 254.076 446.5C253.703 445.807 253.516 445.007 253.516 444.1C253.516 443.193 253.697 442.399 254.06 441.716C254.423 441.033 254.929 440.511 255.58 440.148C256.241 439.775 256.999 439.588 257.852 439.588C258.684 439.588 259.42 439.769 260.06 440.132C260.7 440.495 261.191 440.996 261.532 441.636C261.884 442.265 262.06 442.98 262.06 443.78ZM260.556 443.476C260.556 442.921 260.433 442.447 260.188 442.052C259.943 441.647 259.607 441.343 259.18 441.14C258.764 440.927 258.3 440.82 257.788 440.82C257.052 440.82 256.423 441.055 255.9 441.524C255.388 441.993 255.095 442.644 255.02 443.476H260.556ZM263.938 444.1C263.938 443.193 264.119 442.404 264.482 441.732C264.845 441.049 265.346 440.521 265.986 440.148C266.637 439.775 267.378 439.588 268.21 439.588C269.287 439.588 270.173 439.849 270.866 440.372C271.57 440.895 272.034 441.62 272.258 442.548H270.69C270.541 442.015 270.247 441.593 269.81 441.284C269.383 440.975 268.85 440.82 268.21 440.82C267.378 440.82 266.706 441.108 266.194 441.684C265.682 442.249 265.426 443.055 265.426 444.1C265.426 445.156 265.682 445.972 266.194 446.548C266.706 447.124 267.378 447.412 268.21 447.412C268.85 447.412 269.383 447.263 269.81 446.964C270.237 446.665 270.53 446.239 270.69 445.684H272.258C272.023 446.58 271.554 447.3 270.85 447.844C270.146 448.377 269.266 448.644 268.21 448.644C267.378 448.644 266.637 448.457 265.986 448.084C265.346 447.711 264.845 447.183 264.482 446.5C264.119 445.817 263.938 445.017 263.938 444.1ZM282.477 439.732V448.5H281.021V447.204C280.743 447.652 280.354 448.004 279.853 448.26C279.362 448.505 278.818 448.628 278.221 448.628C277.538 448.628 276.925 448.489 276.381 448.212C275.837 447.924 275.405 447.497 275.085 446.932C274.775 446.367 274.621 445.679 274.621 444.868V439.732H276.061V444.676C276.061 445.54 276.279 446.207 276.717 446.676C277.154 447.135 277.751 447.364 278.509 447.364C279.287 447.364 279.901 447.124 280.349 446.644C280.797 446.164 281.021 445.465 281.021 444.548V439.732H282.477ZM286.891 441.156C287.147 440.655 287.51 440.265 287.979 439.988C288.459 439.711 289.04 439.572 289.723 439.572V441.076H289.339C287.707 441.076 286.891 441.961 286.891 443.732V448.5H285.435V439.732H286.891V441.156ZM292.656 438.308C292.379 438.308 292.144 438.212 291.952 438.02C291.76 437.828 291.664 437.593 291.664 437.316C291.664 437.039 291.76 436.804 291.952 436.612C292.144 436.42 292.379 436.324 292.656 436.324C292.923 436.324 293.147 436.42 293.328 436.612C293.52 436.804 293.616 437.039 293.616 437.316C293.616 437.593 293.52 437.828 293.328 438.02C293.147 438.212 292.923 438.308 292.656 438.308ZM293.36 439.732V448.5H291.904V439.732H293.36ZM298.117 440.932V446.1C298.117 446.527 298.208 446.831 298.389 447.012C298.571 447.183 298.885 447.268 299.333 447.268H300.405V448.5H299.093C298.283 448.5 297.675 448.313 297.269 447.94C296.864 447.567 296.661 446.953 296.661 446.1V440.932H295.525V439.732H296.661V437.524H298.117V439.732H300.405V440.932H298.117ZM310.222 439.732L304.942 452.628H303.438L305.166 448.404L301.63 439.732H303.246L305.998 446.836L308.718 439.732H310.222Z" fill="white"/>
<path d="M93.5 407L124 441.5" stroke="url(#paint35_linear_1240_775)" stroke-miterlimit="10"/>
<path d="M93 400.5C89.9332 400.5 87.5 402.933 87.5 406C87.5 409.067 89.9332 411.5 93 411.5C96.0669 411.5 98.5 409.067 98.5 406C98.5 402.933 96.0669 400.5 93 400.5Z" fill="url(#paint36_linear_1240_775)" stroke="url(#paint37_linear_1240_775)"/>
<path d="M142.5 442C142.5 451.665 134.665 459.5 125 459.5C115.335 459.5 107.5 451.665 107.5 442C107.5 432.335 115.335 424.5 125 424.5C134.665 424.5 142.5 432.335 142.5 442Z" fill="url(#paint38_linear_1240_775)" stroke="url(#paint39_linear_1240_775)"/>
<path d="M127.82 112.46V124L125.54 123.98V115.2L121.4 116.92V114.32L125.54 112.46H127.82Z" fill="white"/>
<path d="M178.8 199.48L181.08 198.1H185.22V200.36H181.24V202.64H185.14V205H178.8V199.48ZM178.8 197.12V194.84L181.08 193.46H185.22V195.74H181.32V197.12H178.8ZM192.62 205H186.2V202.64H192.62V205ZM190.02 200.36H186.12V198.1H190.02V195.74H186.12V193.46H190.26L192.62 194.84V198.98L190.02 200.36Z" fill="white"/>
<path d="M206.22 286.02H202.08V283.66H205.98V281.38H202.08V279.12H205.98V276.76H202.08V274.48H206.22L208.5 275.86V279.28L206.62 280.24L208.5 281.14V284.64L206.22 286.02ZM197.2 282.28V283.66H201.1V286.02H196.96L194.6 284.64V282.28H197.2ZM194.68 278.14V275.86L196.96 274.48H201.1V276.76H197.2V278.14H194.68ZM201.1 281.38H198.58V279.12H201.1V281.38Z" fill="white"/>
<path d="M192.42 366.98H190.08V362.44H185.94V360.1H190.08V355.48H192.42V366.98ZM182.54 360.1H184.96V362.44H178.4L182.54 355.56H185.28L182.54 360.1Z" fill="white"/>
<path d="M117.8 436.46H124.26V438.74H120.34V441.04H124.26V443.4H117.8V436.46ZM120.34 444.3V445.7H124.26V447.98H120.08L117.8 446.6V444.3H120.34ZM131.7 438.74H125.24V436.46H131.7V438.74ZM131.7 442.42V446.6L129.42 447.98H125.24V445.7H129.16V443.4H125.24V441.04H129.16L131.7 442.42Z" fill="white"/>
<defs>
<linearGradient id="paint0_linear_1240_775" x1="27.5" y1="-380.625" x2="714.464" y2="127.526" gradientUnits="userSpaceOnUse">
<stop offset="0.303689" stop-color="#004B4B" stop-opacity="0"/>
<stop offset="0.454116" stop-color="#004B4B" stop-opacity="0.4"/>
<stop offset="0.499089" stop-color="#004B4B"/>
<stop offset="0.64438" stop-color="#26DDFF"/>
<stop offset="0.953267" stop-color="#26DDFF" stop-opacity="0"/>
</linearGradient>
<linearGradient id="paint1_linear_1240_775" x1="184" y1="260.5" x2="94.6909" y2="261.688" gradientUnits="userSpaceOnUse">
<stop stop-color="#12637E"/>
<stop offset="0.781" stop-color="#04182D" stop-opacity="0.4"/>
</linearGradient>
<linearGradient id="paint2_linear_1240_775" x1="-19.2105" y1="-2571.26" x2="340.819" y2="-2549.75" gradientUnits="userSpaceOnUse">
<stop offset="0.303689" stop-color="#004B4B" stop-opacity="0"/>
<stop offset="0.422945" stop-color="#004B4B" stop-opacity="0.4"/>
<stop offset="0.499089" stop-color="#004B4B"/>
<stop offset="0.649516" stop-color="#26DDFF"/>
<stop offset="0.953267" stop-color="#26DDFF" stop-opacity="0"/>
</linearGradient>
<linearGradient id="paint3_linear_1240_775" x1="117.949" y1="267.5" x2="60.6993" y2="268.262" gradientUnits="userSpaceOnUse">
<stop stop-color="#12637E"/>
<stop offset="0.781" stop-color="#04182D" stop-opacity="0.4"/>
</linearGradient>
<linearGradient id="paint4_linear_1240_775" x1="-12.3144" y1="-1547.73" x2="218.474" y2="-1533.94" gradientUnits="userSpaceOnUse">
<stop offset="0.303689" stop-color="#004B4B" stop-opacity="0"/>
<stop offset="0.422945" stop-color="#004B4B" stop-opacity="0.4"/>
<stop offset="0.499089" stop-color="#004B4B"/>
<stop offset="0.649516" stop-color="#26DDFF"/>
<stop offset="0.953267" stop-color="#26DDFF" stop-opacity="0"/>
</linearGradient>
<linearGradient id="paint5_linear_1240_775" x1="371.727" y1="74.4288" x2="360.242" y2="164.2" gradientUnits="userSpaceOnUse">
<stop stop-color="#12637E"/>
<stop offset="0.781" stop-color="#04182D"/>
</linearGradient>
<linearGradient id="paint6_linear_1240_775" x1="457.5" y1="83.5" x2="445.673" y2="173.039" gradientUnits="userSpaceOnUse">
<stop offset="0.303689" stop-color="#004B4B" stop-opacity="0"/>
<stop offset="0.422945" stop-color="#004B4B" stop-opacity="0.4"/>
<stop offset="0.499089" stop-color="#004B4B"/>
<stop offset="0.649516" stop-color="#26DDFF"/>
<stop offset="0.953267" stop-color="#26DDFF" stop-opacity="0"/>
</linearGradient>
<linearGradient id="paint7_linear_1240_775" x1="85.6649" y1="236.833" x2="171.167" y2="199.378" gradientUnits="userSpaceOnUse">
<stop offset="0.303689" stop-color="#004B4B" stop-opacity="0"/>
<stop offset="0.422945" stop-color="#004B4B" stop-opacity="0.4"/>
<stop offset="0.499089" stop-color="#004B4B"/>
<stop offset="0.649516" stop-color="#26DDFF"/>
<stop offset="0.953267" stop-color="#26DDFF" stop-opacity="0"/>
</linearGradient>
<linearGradient id="paint8_linear_1240_775" x1="98.072" y1="145.548" x2="89.4432" y2="159.036" gradientUnits="userSpaceOnUse">
<stop stop-color="#12637E"/>
<stop offset="0.781" stop-color="#04182D"/>
</linearGradient>
<linearGradient id="paint9_linear_1240_775" x1="86.0203" y1="132.056" x2="108.263" y2="146.671" gradientUnits="userSpaceOnUse">
<stop offset="0.303689" stop-color="#004B4B" stop-opacity="0"/>
<stop offset="0.422945" stop-color="#004B4B" stop-opacity="0.4"/>
<stop offset="0.499089" stop-color="#004B4B"/>
<stop offset="0.649516" stop-color="#26DDFF"/>
<stop offset="0.953267" stop-color="#26DDFF" stop-opacity="0"/>
</linearGradient>
<linearGradient id="paint10_linear_1240_775" x1="143.259" y1="87.5716" x2="112.196" y2="136.131" gradientUnits="userSpaceOnUse">
<stop stop-color="#12637E"/>
<stop offset="0.781" stop-color="#04182D"/>
</linearGradient>
<linearGradient id="paint11_linear_1240_775" x1="156.125" y1="94.375" x2="124.705" y2="141.949" gradientUnits="userSpaceOnUse">
<stop offset="0.303689" stop-color="#004B4B" stop-opacity="0"/>
<stop offset="0.422945" stop-color="#004B4B" stop-opacity="0.4"/>
<stop offset="0.499089" stop-color="#004B4B"/>
<stop offset="0.649516" stop-color="#26DDFF"/>
<stop offset="0.953267" stop-color="#26DDFF" stop-opacity="0"/>
</linearGradient>
<linearGradient id="paint12_linear_1240_775" x1="432.727" y1="158.429" x2="421.242" y2="248.2" gradientUnits="userSpaceOnUse">
<stop stop-color="#12637E"/>
<stop offset="0.781" stop-color="#04182D"/>
</linearGradient>
<linearGradient id="paint13_linear_1240_775" x1="518.5" y1="167.5" x2="506.673" y2="257.039" gradientUnits="userSpaceOnUse">
<stop offset="0.303689" stop-color="#004B4B" stop-opacity="0"/>
<stop offset="0.422945" stop-color="#004B4B" stop-opacity="0.4"/>
<stop offset="0.499089" stop-color="#004B4B"/>
<stop offset="0.649516" stop-color="#26DDFF"/>
<stop offset="0.953267" stop-color="#26DDFF" stop-opacity="0"/>
</linearGradient>
<linearGradient id="paint14_linear_1240_775" x1="135.082" y1="95.8363" x2="220.584" y2="133.291" gradientUnits="userSpaceOnUse">
<stop offset="0.303689" stop-color="#004B4B" stop-opacity="0"/>
<stop offset="0.422945" stop-color="#004B4B" stop-opacity="0.4"/>
<stop offset="0.499089" stop-color="#004B4B"/>
<stop offset="0.649516" stop-color="#26DDFF"/>
<stop offset="0.953267" stop-color="#26DDFF" stop-opacity="0"/>
</linearGradient>
<linearGradient id="paint15_linear_1240_775" x1="146.072" y1="202.548" x2="137.443" y2="216.036" gradientUnits="userSpaceOnUse">
<stop stop-color="#12637E"/>
<stop offset="0.781" stop-color="#04182D"/>
</linearGradient>
<linearGradient id="paint16_linear_1240_775" x1="134.02" y1="189.056" x2="156.263" y2="203.671" gradientUnits="userSpaceOnUse">
<stop offset="0.303689" stop-color="#004B4B" stop-opacity="0"/>
<stop offset="0.422945" stop-color="#004B4B" stop-opacity="0.4"/>
<stop offset="0.499089" stop-color="#004B4B"/>
<stop offset="0.649516" stop-color="#26DDFF"/>
<stop offset="0.953267" stop-color="#26DDFF" stop-opacity="0"/>
</linearGradient>
<linearGradient id="paint17_linear_1240_775" x1="204.259" y1="168.572" x2="173.196" y2="217.131" gradientUnits="userSpaceOnUse">
<stop stop-color="#12637E"/>
<stop offset="0.781" stop-color="#04182D"/>
</linearGradient>
<linearGradient id="paint18_linear_1240_775" x1="217.125" y1="175.375" x2="185.705" y2="222.949" gradientUnits="userSpaceOnUse">
<stop offset="0.303689" stop-color="#004B4B" stop-opacity="0"/>
<stop offset="0.422945" stop-color="#004B4B" stop-opacity="0.4"/>
<stop offset="0.499089" stop-color="#004B4B"/>
<stop offset="0.649516" stop-color="#26DDFF"/>
<stop offset="0.953267" stop-color="#26DDFF" stop-opacity="0"/>
</linearGradient>
<linearGradient id="paint19_linear_1240_775" x1="448.727" y1="239.429" x2="437.242" y2="329.2" gradientUnits="userSpaceOnUse">
<stop stop-color="#12637E"/>
<stop offset="0.781" stop-color="#04182D"/>
</linearGradient>
<linearGradient id="paint20_linear_1240_775" x1="534.5" y1="248.5" x2="522.673" y2="338.039" gradientUnits="userSpaceOnUse">
<stop offset="0.303689" stop-color="#004B4B" stop-opacity="0"/>
<stop offset="0.422945" stop-color="#004B4B" stop-opacity="0.4"/>
<stop offset="0.499089" stop-color="#004B4B"/>
<stop offset="0.649516" stop-color="#26DDFF"/>
<stop offset="0.953267" stop-color="#26DDFF" stop-opacity="0"/>
</linearGradient>
<linearGradient id="paint21_linear_1240_775" x1="146.082" y1="179.836" x2="231.584" y2="217.291" gradientUnits="userSpaceOnUse">
<stop offset="0.303689" stop-color="#004B4B" stop-opacity="0"/>
<stop offset="0.422945" stop-color="#004B4B" stop-opacity="0.4"/>
<stop offset="0.499089" stop-color="#004B4B"/>
<stop offset="0.649516" stop-color="#26DDFF"/>
<stop offset="0.953267" stop-color="#26DDFF" stop-opacity="0"/>
</linearGradient>
<linearGradient id="paint22_linear_1240_775" x1="161.072" y1="271.548" x2="152.443" y2="285.036" gradientUnits="userSpaceOnUse">
<stop stop-color="#12637E"/>
<stop offset="0.781" stop-color="#04182D"/>
</linearGradient>
<linearGradient id="paint23_linear_1240_775" x1="149.02" y1="258.056" x2="171.263" y2="272.671" gradientUnits="userSpaceOnUse">
<stop offset="0.303689" stop-color="#004B4B" stop-opacity="0"/>
<stop offset="0.422945" stop-color="#004B4B" stop-opacity="0.4"/>
<stop offset="0.499089" stop-color="#004B4B"/>
<stop offset="0.649516" stop-color="#26DDFF"/>
<stop offset="0.953267" stop-color="#26DDFF" stop-opacity="0"/>
</linearGradient>
<linearGradient id="paint24_linear_1240_775" x1="220.259" y1="249.572" x2="189.196" y2="298.131" gradientUnits="userSpaceOnUse">
<stop stop-color="#12637E"/>
<stop offset="0.781" stop-color="#04182D"/>
</linearGradient>
<linearGradient id="paint25_linear_1240_775" x1="233.125" y1="256.375" x2="201.705" y2="303.949" gradientUnits="userSpaceOnUse">
<stop offset="0.303689" stop-color="#004B4B" stop-opacity="0"/>
<stop offset="0.422945" stop-color="#004B4B" stop-opacity="0.4"/>
<stop offset="0.499089" stop-color="#004B4B"/>
<stop offset="0.649516" stop-color="#26DDFF"/>
<stop offset="0.953267" stop-color="#26DDFF" stop-opacity="0"/>
</linearGradient>
<linearGradient id="paint26_linear_1240_775" x1="432.727" y1="320.429" x2="421.242" y2="410.2" gradientUnits="userSpaceOnUse">
<stop stop-color="#12637E"/>
<stop offset="0.781" stop-color="#04182D"/>
</linearGradient>
<linearGradient id="paint27_linear_1240_775" x1="518.5" y1="329.5" x2="506.673" y2="419.039" gradientUnits="userSpaceOnUse">
<stop offset="0.303689" stop-color="#004B4B" stop-opacity="0"/>
<stop offset="0.422945" stop-color="#004B4B" stop-opacity="0.4"/>
<stop offset="0.499089" stop-color="#004B4B"/>
<stop offset="0.649516" stop-color="#26DDFF"/>
<stop offset="0.953267" stop-color="#26DDFF" stop-opacity="0"/>
</linearGradient>
<linearGradient id="paint28_linear_1240_775" x1="135.083" y1="260.836" x2="220.585" y2="298.291" gradientUnits="userSpaceOnUse">
<stop offset="0.303689" stop-color="#004B4B" stop-opacity="0"/>
<stop offset="0.422945" stop-color="#004B4B" stop-opacity="0.4"/>
<stop offset="0.499089" stop-color="#004B4B"/>
<stop offset="0.649516" stop-color="#26DDFF"/>
<stop offset="0.953267" stop-color="#26DDFF" stop-opacity="0"/>
</linearGradient>
<linearGradient id="paint29_linear_1240_775" x1="148.072" y1="335.548" x2="139.443" y2="349.036" gradientUnits="userSpaceOnUse">
<stop stop-color="#12637E"/>
<stop offset="0.781" stop-color="#04182D"/>
</linearGradient>
<linearGradient id="paint30_linear_1240_775" x1="136.02" y1="322.056" x2="158.263" y2="336.671" gradientUnits="userSpaceOnUse">
<stop offset="0.303689" stop-color="#004B4B" stop-opacity="0"/>
<stop offset="0.422945" stop-color="#004B4B" stop-opacity="0.4"/>
<stop offset="0.499089" stop-color="#004B4B"/>
<stop offset="0.649516" stop-color="#26DDFF"/>
<stop offset="0.953267" stop-color="#26DDFF" stop-opacity="0"/>
</linearGradient>
<linearGradient id="paint31_linear_1240_775" x1="204.259" y1="330.572" x2="173.196" y2="379.131" gradientUnits="userSpaceOnUse">
<stop stop-color="#12637E"/>
<stop offset="0.781" stop-color="#04182D"/>
</linearGradient>
<linearGradient id="paint32_linear_1240_775" x1="217.125" y1="337.375" x2="185.705" y2="384.949" gradientUnits="userSpaceOnUse">
<stop offset="0.303689" stop-color="#004B4B" stop-opacity="0"/>
<stop offset="0.422945" stop-color="#004B4B" stop-opacity="0.4"/>
<stop offset="0.499089" stop-color="#004B4B"/>
<stop offset="0.649516" stop-color="#26DDFF"/>
<stop offset="0.953267" stop-color="#26DDFF" stop-opacity="0"/>
</linearGradient>
<linearGradient id="paint33_linear_1240_775" x1="371.727" y1="401.429" x2="360.242" y2="491.2" gradientUnits="userSpaceOnUse">
<stop stop-color="#12637E"/>
<stop offset="0.781" stop-color="#04182D"/>
</linearGradient>
<linearGradient id="paint34_linear_1240_775" x1="457.5" y1="410.5" x2="445.673" y2="500.039" gradientUnits="userSpaceOnUse">
<stop offset="0.303689" stop-color="#004B4B" stop-opacity="0"/>
<stop offset="0.422945" stop-color="#004B4B" stop-opacity="0.4"/>
<stop offset="0.499089" stop-color="#004B4B"/>
<stop offset="0.649516" stop-color="#26DDFF"/>
<stop offset="0.953267" stop-color="#26DDFF" stop-opacity="0"/>
</linearGradient>
<linearGradient id="paint35_linear_1240_775" x1="85.6649" y1="323.667" x2="171.167" y2="361.122" gradientUnits="userSpaceOnUse">
<stop offset="0.303689" stop-color="#004B4B" stop-opacity="0"/>
<stop offset="0.422945" stop-color="#004B4B" stop-opacity="0.4"/>
<stop offset="0.499089" stop-color="#004B4B"/>
<stop offset="0.649516" stop-color="#26DDFF"/>
<stop offset="0.953267" stop-color="#26DDFF" stop-opacity="0"/>
</linearGradient>
<linearGradient id="paint36_linear_1240_775" x1="98.072" y1="397.548" x2="89.4432" y2="411.036" gradientUnits="userSpaceOnUse">
<stop stop-color="#12637E"/>
<stop offset="0.781" stop-color="#04182D"/>
</linearGradient>
<linearGradient id="paint37_linear_1240_775" x1="86.0203" y1="384.056" x2="108.263" y2="398.671" gradientUnits="userSpaceOnUse">
<stop offset="0.303689" stop-color="#004B4B" stop-opacity="0"/>
<stop offset="0.422945" stop-color="#004B4B" stop-opacity="0.4"/>
<stop offset="0.499089" stop-color="#004B4B"/>
<stop offset="0.649516" stop-color="#26DDFF"/>
<stop offset="0.953267" stop-color="#26DDFF" stop-opacity="0"/>
</linearGradient>
<linearGradient id="paint38_linear_1240_775" x1="143.259" y1="411.572" x2="112.196" y2="460.131" gradientUnits="userSpaceOnUse">
<stop stop-color="#12637E"/>
<stop offset="0.781" stop-color="#04182D"/>
</linearGradient>
<linearGradient id="paint39_linear_1240_775" x1="156.125" y1="418.375" x2="124.705" y2="465.949" gradientUnits="userSpaceOnUse">
<stop offset="0.303689" stop-color="#004B4B" stop-opacity="0"/>
<stop offset="0.422945" stop-color="#004B4B" stop-opacity="0.4"/>
<stop offset="0.499089" stop-color="#004B4B"/>
<stop offset="0.649516" stop-color="#26DDFF"/>
<stop offset="0.953267" stop-color="#26DDFF" stop-opacity="0"/>
</linearGradient>
</defs>
</svg>
