<svg width="39" height="41" viewBox="0 0 39 41" fill="none" xmlns="http://www.w3.org/2000/svg">
<path d="M32.383 28.0137C34.3049 26.4962 35.8402 24.5927 36.8759 22.4436C37.9115 20.2944 38.4211 17.9542 38.3672 15.5953C38.1772 7.43247 31.2223 0.701818 22.5537 0.273228C20.3171 0.158791 18.0788 0.468029 15.9718 1.18257C13.8648 1.89712 11.932 3.0024 10.2883 4.43278C8.64452 5.86315 7.32333 7.58945 6.40314 9.50915C5.48296 11.4289 4.98256 13.5028 4.93165 15.6078L0.666717 23.3189C0.64962 23.351 0.632522 23.3832 0.617324 23.4153C0.311559 24.0853 0.289767 24.8397 0.556408 25.5243C0.82305 26.2088 1.35796 26.7717 2.05163 27.0976L2.09913 27.1173L6.45145 28.9906V34.5372C6.45145 35.295 6.77169 36.0218 7.34173 36.5576C7.91176 37.0935 8.6849 37.3945 9.49105 37.3945H18.6098C19.0129 37.3945 19.3995 37.244 19.6845 36.9761C19.9695 36.7082 20.1296 36.3448 20.1296 35.9659C20.1296 35.587 19.9695 35.2236 19.6845 34.9557C19.3995 34.6878 19.0129 34.5372 18.6098 34.5372H9.49105V28.0745C9.49127 27.8006 9.40776 27.5325 9.25047 27.302C9.09318 27.0715 8.86874 26.8884 8.60387 26.7744L3.41185 24.5368L7.79457 16.6186C7.90881 16.4174 7.96943 16.1931 7.97125 15.965C7.97081 13.0512 9.02324 10.2236 10.9561 7.94568C12.889 5.66772 15.5876 4.07445 18.6098 3.42694V6.21099C17.5958 6.548 16.7412 7.21113 16.197 8.08319C15.6528 8.95524 15.454 9.98007 15.6359 10.9765C15.8178 11.973 16.3685 12.8769 17.1909 13.5286C18.0132 14.1803 19.0541 14.5377 20.1296 14.5377C21.2052 14.5377 22.2461 14.1803 23.0684 13.5286C23.8907 12.8769 24.4415 11.973 24.6234 10.9765C24.8052 9.98007 24.6065 8.95524 24.0623 8.08319C23.5181 7.21113 22.6635 6.548 21.6494 6.21099V3.10728C21.8964 3.10728 22.1434 3.10728 22.3903 3.12514C25.0855 3.27026 27.6753 4.15913 29.8358 5.68059C31.9963 7.20204 33.6317 9.28853 34.5373 11.6791H30.7682C30.5453 11.679 30.325 11.725 30.1231 11.8139C29.9212 11.9028 29.7426 12.0324 29.5999 12.1934L24.7536 17.6615C23.7429 17.3075 22.6315 17.3009 21.6161 17.6428C20.6007 17.9848 19.7466 18.6532 19.205 19.53C18.6633 20.4068 18.469 21.4355 18.6563 22.434C18.8437 23.4325 19.4006 24.3365 20.2287 24.9862C21.0568 25.636 22.1026 25.9895 23.1812 25.9843C24.2598 25.979 25.3017 25.6154 26.1226 24.9577C26.9435 24.3001 27.4905 23.3907 27.6669 22.3904C27.8433 21.3901 27.6377 20.3635 27.0865 19.4919L31.4806 14.5364H35.2402C35.2858 14.9078 35.3137 15.2828 35.3238 15.6614C35.3712 17.7076 34.9001 19.7351 33.9494 21.5764C32.9988 23.4178 31.5958 25.0201 29.8563 26.2512C29.642 26.4022 29.474 26.6038 29.3692 26.8356C29.2644 27.0673 29.2267 27.321 29.2598 27.5709L30.7796 38.9999C30.8259 39.345 31.0044 39.6623 31.2817 39.8924C31.5591 40.1225 31.9162 40.2497 32.2861 40.25C32.3496 40.25 32.4131 40.2464 32.4761 40.2393C32.6742 40.2161 32.8655 40.1565 33.0391 40.0638C33.2127 39.9711 33.3651 39.8471 33.4877 39.699C33.6103 39.5509 33.7007 39.3816 33.7537 39.2007C33.8066 39.0197 33.8212 38.8308 33.7964 38.6446L32.383 28.0137ZM20.1296 11.6791C19.8291 11.6791 19.5352 11.5953 19.2853 11.4383C19.0354 11.2813 18.8406 11.0582 18.7255 10.7972C18.6105 10.5361 18.5804 10.2489 18.639 9.97174C18.6977 9.69461 18.8424 9.44006 19.055 9.24026C19.2675 9.04046 19.5383 8.9044 19.8331 8.84927C20.128 8.79415 20.4335 8.82244 20.7112 8.93057C20.9889 9.0387 21.2263 9.22181 21.3933 9.45675C21.5603 9.69169 21.6494 9.9679 21.6494 10.2505C21.6494 10.6294 21.4893 10.9927 21.2043 11.2607C20.9193 11.5286 20.5327 11.6791 20.1296 11.6791ZM23.1692 23.1082C22.8686 23.1082 22.5748 23.0244 22.3249 22.8674C22.0749 22.7104 21.8802 22.4873 21.7651 22.2262C21.6501 21.9652 21.62 21.6779 21.6786 21.4008C21.7373 21.1237 21.882 20.8691 22.0946 20.6693C22.3071 20.4695 22.5779 20.3335 22.8727 20.2783C23.1675 20.2232 23.4731 20.2515 23.7508 20.3596C24.0285 20.4678 24.2659 20.6509 24.4329 20.8858C24.5999 21.1208 24.689 21.397 24.689 21.6795C24.689 22.0584 24.5289 22.4218 24.2439 22.6897C23.9589 22.9577 23.5723 23.1082 23.1692 23.1082Z" fill="white"/>
<path d="M32.383 28.0137C34.3049 26.4962 35.8402 24.5927 36.8759 22.4436C37.9115 20.2944 38.4211 17.9542 38.3672 15.5953C38.1772 7.43247 31.2223 0.701818 22.5537 0.273228C20.3171 0.158791 18.0788 0.468029 15.9718 1.18257C13.8648 1.89712 11.932 3.0024 10.2883 4.43278C8.64452 5.86315 7.32333 7.58945 6.40314 9.50915C5.48296 11.4289 4.98256 13.5028 4.93165 15.6078L0.666717 23.3189C0.64962 23.351 0.632522 23.3832 0.617324 23.4153C0.311559 24.0853 0.289767 24.8397 0.556408 25.5243C0.82305 26.2088 1.35796 26.7717 2.05163 27.0976L2.09913 27.1173L6.45145 28.9906V34.5372C6.45145 35.295 6.77169 36.0218 7.34173 36.5576C7.91176 37.0935 8.6849 37.3945 9.49105 37.3945H18.6098C19.0129 37.3945 19.3995 37.244 19.6845 36.9761C19.9695 36.7082 20.1296 36.3448 20.1296 35.9659C20.1296 35.587 19.9695 35.2236 19.6845 34.9557C19.3995 34.6878 19.0129 34.5372 18.6098 34.5372H9.49105V28.0745C9.49127 27.8006 9.40776 27.5325 9.25047 27.302C9.09318 27.0715 8.86874 26.8884 8.60387 26.7744L3.41185 24.5368L7.79457 16.6186C7.90881 16.4174 7.96943 16.1931 7.97125 15.965C7.97081 13.0512 9.02324 10.2236 10.9561 7.94568C12.889 5.66772 15.5876 4.07445 18.6098 3.42694V6.21099C17.5958 6.548 16.7412 7.21113 16.197 8.08319C15.6528 8.95524 15.454 9.98007 15.6359 10.9765C15.8178 11.973 16.3685 12.8769 17.1909 13.5286C18.0132 14.1803 19.0541 14.5377 20.1296 14.5377C21.2052 14.5377 22.2461 14.1803 23.0684 13.5286C23.8907 12.8769 24.4415 11.973 24.6234 10.9765C24.8052 9.98007 24.6065 8.95524 24.0623 8.08319C23.5181 7.21113 22.6635 6.548 21.6494 6.21099V3.10728C21.8964 3.10728 22.1434 3.10728 22.3903 3.12514C25.0855 3.27026 27.6753 4.15913 29.8358 5.68059C31.9963 7.20204 33.6317 9.28853 34.5373 11.6791H30.7682C30.5453 11.679 30.325 11.725 30.1231 11.8139C29.9212 11.9028 29.7426 12.0324 29.5999 12.1934L24.7536 17.6615C23.7429 17.3075 22.6315 17.3009 21.6161 17.6428C20.6007 17.9848 19.7466 18.6532 19.205 19.53C18.6633 20.4068 18.469 21.4355 18.6563 22.434C18.8437 23.4325 19.4006 24.3365 20.2287 24.9862C21.0568 25.636 22.1026 25.9895 23.1812 25.9843C24.2598 25.979 25.3017 25.6154 26.1226 24.9577C26.9435 24.3001 27.4905 23.3907 27.6669 22.3904C27.8433 21.3901 27.6377 20.3635 27.0865 19.4919L31.4806 14.5364H35.2402C35.2858 14.9078 35.3137 15.2828 35.3238 15.6614C35.3712 17.7076 34.9001 19.7351 33.9494 21.5764C32.9988 23.4178 31.5958 25.0201 29.8563 26.2512C29.642 26.4022 29.474 26.6038 29.3692 26.8356C29.2644 27.0673 29.2267 27.321 29.2598 27.5709L30.7796 38.9999C30.8259 39.345 31.0044 39.6623 31.2817 39.8924C31.5591 40.1225 31.9162 40.2497 32.2861 40.25C32.3496 40.25 32.4131 40.2464 32.4761 40.2393C32.6742 40.2161 32.8655 40.1565 33.0391 40.0638C33.2127 39.9711 33.3651 39.8471 33.4877 39.699C33.6103 39.5509 33.7007 39.3816 33.7537 39.2007C33.8066 39.0197 33.8212 38.8308 33.7964 38.6446L32.383 28.0137ZM20.1296 11.6791C19.8291 11.6791 19.5352 11.5953 19.2853 11.4383C19.0354 11.2813 18.8406 11.0582 18.7255 10.7972C18.6105 10.5361 18.5804 10.2489 18.639 9.97174C18.6977 9.69461 18.8424 9.44006 19.055 9.24026C19.2675 9.04046 19.5383 8.9044 19.8331 8.84927C20.128 8.79415 20.4335 8.82244 20.7112 8.93057C20.9889 9.0387 21.2263 9.22181 21.3933 9.45675C21.5603 9.69169 21.6494 9.9679 21.6494 10.2505C21.6494 10.6294 21.4893 10.9927 21.2043 11.2607C20.9193 11.5286 20.5327 11.6791 20.1296 11.6791ZM23.1692 23.1082C22.8686 23.1082 22.5748 23.0244 22.3249 22.8674C22.0749 22.7104 21.8802 22.4873 21.7651 22.2262C21.6501 21.9652 21.62 21.6779 21.6786 21.4008C21.7373 21.1237 21.882 20.8691 22.0946 20.6693C22.3071 20.4695 22.5779 20.3335 22.8727 20.2783C23.1675 20.2232 23.4731 20.2515 23.7508 20.3596C24.0285 20.4678 24.2659 20.6509 24.4329 20.8858C24.5999 21.1208 24.689 21.397 24.689 21.6795C24.689 22.0584 24.5289 22.4218 24.2439 22.6897C23.9589 22.9577 23.5723 23.1082 23.1692 23.1082Z" fill="url(#paint0_linear_2096_14454)"/>
<defs>
<linearGradient id="paint0_linear_2096_14454" x1="19.3711" y1="0.25" x2="19.3711" y2="33.9167" gradientUnits="userSpaceOnUse">
<stop stop-color="#2D4949"/>
<stop offset="0.99" stop-color="#31B2B2"/>
</linearGradient>
</defs>
</svg>
