<svg width="39" height="41" viewBox="0 0 39 41" fill="none" xmlns="http://www.w3.org/2000/svg">
<path d="M24.2081 0.625C21.6198 0.627851 19.0832 1.66395 16.8818 3.61741C14.6804 5.57087 12.9011 8.36467 11.7429 11.6864C10.365 11.398 8.96049 11.5201 7.61697 12.0452C6.27345 12.5702 5.01972 13.4869 3.934 14.7381C2.84827 15.9893 1.95383 17.5481 1.30647 19.3173C0.659117 21.0865 0.272725 23.0281 0.171402 25.0211C0.0700778 27.0141 0.255995 29.0157 0.717556 30.901C1.17912 32.7863 1.90642 34.5149 2.8541 35.979C3.80179 37.4431 4.94952 38.6112 6.22571 39.4106C7.5019 40.2099 8.87917 40.6233 10.2716 40.625H24.2081C27.9043 40.625 31.449 38.5179 34.0626 34.7671C36.6762 31.0164 38.1445 25.9293 38.1445 20.625C38.1445 15.3207 36.6762 10.2336 34.0626 6.48286C31.449 2.73214 27.9043 0.625 24.2081 0.625ZM24.2081 36.9886H10.2716C8.25553 36.9886 6.322 35.8393 4.89641 33.7934C3.47081 31.7476 2.66992 28.9728 2.66992 26.0795C2.66992 23.1863 3.47081 20.4115 4.89641 18.3657C6.322 16.3198 8.25553 15.1705 10.2716 15.1705C10.4458 15.1705 10.62 15.1705 10.7927 15.1955C10.4462 16.9624 10.2709 18.7894 10.2716 20.625C10.2716 21.1072 10.4051 21.5697 10.6427 21.9106C10.8803 22.2516 11.2026 22.4432 11.5386 22.4432C11.8746 22.4432 12.1968 22.2516 12.4344 21.9106C12.672 21.5697 12.8055 21.1072 12.8055 20.625C12.8055 17.3886 13.4743 14.2248 14.7272 11.5338C15.9801 8.84286 17.761 6.7455 19.8445 5.50697C21.9281 4.26845 24.2207 3.94439 26.4326 4.57579C28.6445 5.20718 30.6762 6.76567 32.2709 9.05416C33.8656 11.3427 34.9516 14.2584 35.3915 17.4326C35.8315 20.6068 35.6057 23.897 34.7427 26.8871C33.8796 29.8772 32.4181 32.4328 30.543 34.2309C28.6679 36.0289 26.4633 36.9886 24.2081 36.9886ZM30.1722 15.7023C30.29 15.8711 30.3835 16.0717 30.4472 16.2924C30.511 16.5131 30.5438 16.7497 30.5438 16.9886C30.5438 17.2276 30.511 17.4642 30.4472 17.6849C30.3835 17.9056 30.29 18.1061 30.1722 18.275L22.5705 29.1841C22.4529 29.3531 22.3131 29.4872 22.1593 29.5787C22.0055 29.6702 21.8407 29.7173 21.6742 29.7173C21.5077 29.7173 21.3428 29.6702 21.189 29.5787C21.0352 29.4872 20.8955 29.3531 20.7778 29.1841L16.977 23.7295C16.7392 23.3884 16.6057 22.9257 16.6057 22.4432C16.6057 21.9607 16.7392 21.498 16.977 21.1568C17.2147 20.8157 17.5371 20.624 17.8733 20.624C18.2095 20.624 18.532 20.8157 18.7697 21.1568L21.6742 25.3273L28.3795 15.7023C28.4972 15.5332 28.6369 15.3991 28.7907 15.3076C28.9445 15.2161 29.1094 15.169 29.2759 15.169C29.4424 15.169 29.6072 15.2161 29.761 15.3076C29.9149 15.3991 30.0546 15.5332 30.1722 15.7023Z" fill="white"/>
<path d="M24.2081 0.625C21.6198 0.627851 19.0832 1.66395 16.8818 3.61741C14.6804 5.57087 12.9011 8.36467 11.7429 11.6864C10.365 11.398 8.96049 11.5201 7.61697 12.0452C6.27345 12.5702 5.01972 13.4869 3.934 14.7381C2.84827 15.9893 1.95383 17.5481 1.30647 19.3173C0.659117 21.0865 0.272725 23.0281 0.171402 25.0211C0.0700778 27.0141 0.255995 29.0157 0.717556 30.901C1.17912 32.7863 1.90642 34.5149 2.8541 35.979C3.80179 37.4431 4.94952 38.6112 6.22571 39.4106C7.5019 40.2099 8.87917 40.6233 10.2716 40.625H24.2081C27.9043 40.625 31.449 38.5179 34.0626 34.7671C36.6762 31.0164 38.1445 25.9293 38.1445 20.625C38.1445 15.3207 36.6762 10.2336 34.0626 6.48286C31.449 2.73214 27.9043 0.625 24.2081 0.625ZM24.2081 36.9886H10.2716C8.25553 36.9886 6.322 35.8393 4.89641 33.7934C3.47081 31.7476 2.66992 28.9728 2.66992 26.0795C2.66992 23.1863 3.47081 20.4115 4.89641 18.3657C6.322 16.3198 8.25553 15.1705 10.2716 15.1705C10.4458 15.1705 10.62 15.1705 10.7927 15.1955C10.4462 16.9624 10.2709 18.7894 10.2716 20.625C10.2716 21.1072 10.4051 21.5697 10.6427 21.9106C10.8803 22.2516 11.2026 22.4432 11.5386 22.4432C11.8746 22.4432 12.1968 22.2516 12.4344 21.9106C12.672 21.5697 12.8055 21.1072 12.8055 20.625C12.8055 17.3886 13.4743 14.2248 14.7272 11.5338C15.9801 8.84286 17.761 6.7455 19.8445 5.50697C21.9281 4.26845 24.2207 3.94439 26.4326 4.57579C28.6445 5.20718 30.6762 6.76567 32.2709 9.05416C33.8656 11.3427 34.9516 14.2584 35.3915 17.4326C35.8315 20.6068 35.6057 23.897 34.7427 26.8871C33.8796 29.8772 32.4181 32.4328 30.543 34.2309C28.6679 36.0289 26.4633 36.9886 24.2081 36.9886ZM30.1722 15.7023C30.29 15.8711 30.3835 16.0717 30.4472 16.2924C30.511 16.5131 30.5438 16.7497 30.5438 16.9886C30.5438 17.2276 30.511 17.4642 30.4472 17.6849C30.3835 17.9056 30.29 18.1061 30.1722 18.275L22.5705 29.1841C22.4529 29.3531 22.3131 29.4872 22.1593 29.5787C22.0055 29.6702 21.8407 29.7173 21.6742 29.7173C21.5077 29.7173 21.3428 29.6702 21.189 29.5787C21.0352 29.4872 20.8955 29.3531 20.7778 29.1841L16.977 23.7295C16.7392 23.3884 16.6057 22.9257 16.6057 22.4432C16.6057 21.9607 16.7392 21.498 16.977 21.1568C17.2147 20.8157 17.5371 20.624 17.8733 20.624C18.2095 20.624 18.532 20.8157 18.7697 21.1568L21.6742 25.3273L28.3795 15.7023C28.4972 15.5332 28.6369 15.3991 28.7907 15.3076C28.9445 15.2161 29.1094 15.169 29.2759 15.169C29.4424 15.169 29.6072 15.2161 29.761 15.3076C29.9149 15.3991 30.0546 15.5332 30.1722 15.7023Z" fill="url(#paint0_linear_2096_14456)"/>
<defs>
<linearGradient id="paint0_linear_2096_14456" x1="19.1445" y1="0.625" x2="19.1445" y2="34.2917" gradientUnits="userSpaceOnUse">
<stop stop-color="#2D4949"/>
<stop offset="0.99" stop-color="#31B2B2"/>
</linearGradient>
</defs>
</svg>
