<svg width="38" height="41" viewBox="0 0 38 41" fill="none" xmlns="http://www.w3.org/2000/svg">
<path d="M36.4622 24.7625C35.991 24.2853 35.4425 23.9576 34.8593 23.8047C34.2761 23.6519 33.6741 23.6781 33.0999 23.8813L26.4764 25.8854C26.6305 25.0287 26.6353 24.1373 26.4903 23.2778C26.3454 22.4184 26.0545 21.6132 25.6395 20.9228C25.2245 20.2323 24.6961 19.6744 24.094 19.2909C23.4918 18.9074 22.8316 18.7082 22.1626 18.7083H14.2379C13.5724 18.7061 12.9131 18.8775 12.2982 19.2126C11.6833 19.5476 11.125 20.0397 10.6555 20.6604L7.07462 25.375H2.53287C1.86111 25.375 1.21687 25.7262 0.74186 26.3513C0.266855 26.9764 0 27.8243 0 28.7083V37.0417C0 37.9257 0.266855 38.7736 0.74186 39.3987C1.21687 40.0238 1.86111 40.375 2.53287 40.375H18.9965C19.1001 40.3751 19.2032 40.3583 19.3036 40.325L29.4351 36.9917C29.4997 36.9714 29.5627 36.9435 29.6235 36.9083L35.7768 33.4625L35.8464 33.4208C36.4378 33.0319 36.9442 32.4513 37.318 31.7337C37.6917 31.016 37.9205 30.185 37.9827 29.3188C38.0449 28.4526 37.9386 27.5799 37.6737 26.7828C37.4088 25.9856 36.9941 25.2904 36.4686 24.7625H36.4622ZM2.53287 28.7083H6.33217V37.0417H2.53287V28.7083ZM34.7367 30.4188L28.7212 33.7896L18.8382 37.0417H8.86504V27.7313L12.4475 23.0188C12.6818 22.7079 12.9608 22.4614 13.2681 22.2937C13.5755 22.1259 13.9051 22.0403 14.2379 22.0417H22.1626C22.6664 22.0417 23.1496 22.3051 23.5059 22.7739C23.8621 23.2427 24.0623 23.8786 24.0623 24.5417C24.0623 25.2047 23.8621 25.8406 23.5059 26.3094C23.1496 26.7783 22.6664 27.0417 22.1626 27.0417H17.7301C17.3942 27.0417 17.0721 27.2173 16.8346 27.5298C16.5971 27.8424 16.4636 28.2663 16.4636 28.7083C16.4636 29.1504 16.5971 29.5743 16.8346 29.8868C17.0721 30.1994 17.3942 30.375 17.7301 30.375H22.7958C22.8911 30.3746 22.9862 30.3607 23.0792 30.3333L33.6856 27.1229L33.7347 27.1063C34.0584 26.988 34.404 27.0314 34.7049 27.2283C35.0058 27.4252 35.2407 27.7615 35.3645 28.1726C35.4883 28.5838 35.4922 29.0406 35.3754 29.4553C35.2586 29.8699 35.0294 30.2131 34.732 30.4188H34.7367ZM25.9619 15.375C26.2748 15.3755 26.5872 15.342 26.8959 15.275C27.2431 16.6324 27.8785 17.8305 28.7267 18.7278C29.575 19.6251 30.6008 20.1839 31.6827 20.3383C32.7647 20.4927 33.8576 20.2361 34.8323 19.5989C35.807 18.9618 36.6227 17.9706 37.1829 16.7427C37.7431 15.5148 38.0245 14.1015 37.9937 12.6698C37.9629 11.2381 37.6212 9.84799 37.0091 8.66374C36.397 7.4795 35.5401 6.55067 34.5396 5.98707C33.5391 5.42348 32.4369 5.24867 31.3633 5.48334C31.0289 4.17551 30.4269 3.01443 29.6234 2.12787C28.82 1.24131 27.8462 0.663631 26.8094 0.458413C25.7726 0.253194 24.7128 0.42839 23.7467 0.96472C22.7807 1.50105 21.9458 2.37772 21.3339 3.49826C20.722 4.6188 20.3569 5.93976 20.2787 7.31578C20.2006 8.6918 20.4123 10.0695 20.8908 11.2974C21.3692 12.5252 22.0958 13.5555 22.9905 14.2749C23.8852 14.9944 24.9134 15.375 25.9619 15.375ZM35.4602 12.875C35.4602 13.6991 35.2745 14.5047 34.9266 15.1899C34.5787 15.8751 34.0842 16.4091 33.5057 16.7245C32.9272 17.0399 32.2906 17.1224 31.6764 16.9616C31.0622 16.8008 30.4981 16.404 30.0553 15.8213C29.6125 15.2386 29.311 14.4961 29.1888 13.6879C29.0667 12.8796 29.1294 12.0418 29.369 11.2805C29.6086 10.5191 30.0144 9.86838 30.5351 9.41055C31.0558 8.95271 31.6679 8.70834 32.2941 8.70834C33.1338 8.70834 33.9391 9.14732 34.5328 9.92872C35.1266 10.7101 35.4602 11.7699 35.4602 12.875ZM25.9619 3.70834C26.6526 3.70879 27.3242 4.00647 27.8744 4.556C28.4246 5.10553 28.8231 5.87675 29.0093 6.75209C28.3606 7.3527 27.8144 8.12487 27.4055 9.0192C26.9967 9.91353 26.7341 10.9103 26.6347 11.9458C26.4136 12.0087 26.1881 12.0408 25.9619 12.0417C25.1222 12.0417 24.3169 11.6027 23.7231 10.8213C23.1294 10.0399 22.7958 8.98007 22.7958 7.875C22.7958 6.76993 23.1294 5.71013 23.7231 4.92872C24.3169 4.14732 25.1222 3.70834 25.9619 3.70834Z" fill="white"/>
<path d="M36.4622 24.7625C35.991 24.2853 35.4425 23.9576 34.8593 23.8047C34.2761 23.6519 33.6741 23.6781 33.0999 23.8813L26.4764 25.8854C26.6305 25.0287 26.6353 24.1373 26.4903 23.2778C26.3454 22.4184 26.0545 21.6132 25.6395 20.9228C25.2245 20.2323 24.6961 19.6744 24.094 19.2909C23.4918 18.9074 22.8316 18.7082 22.1626 18.7083H14.2379C13.5724 18.7061 12.9131 18.8775 12.2982 19.2126C11.6833 19.5476 11.125 20.0397 10.6555 20.6604L7.07462 25.375H2.53287C1.86111 25.375 1.21687 25.7262 0.74186 26.3513C0.266855 26.9764 0 27.8243 0 28.7083V37.0417C0 37.9257 0.266855 38.7736 0.74186 39.3987C1.21687 40.0238 1.86111 40.375 2.53287 40.375H18.9965C19.1001 40.3751 19.2032 40.3583 19.3036 40.325L29.4351 36.9917C29.4997 36.9714 29.5627 36.9435 29.6235 36.9083L35.7768 33.4625L35.8464 33.4208C36.4378 33.0319 36.9442 32.4513 37.318 31.7337C37.6917 31.016 37.9205 30.185 37.9827 29.3188C38.0449 28.4526 37.9386 27.5799 37.6737 26.7828C37.4088 25.9856 36.9941 25.2904 36.4686 24.7625H36.4622ZM2.53287 28.7083H6.33217V37.0417H2.53287V28.7083ZM34.7367 30.4188L28.7212 33.7896L18.8382 37.0417H8.86504V27.7313L12.4475 23.0188C12.6818 22.7079 12.9608 22.4614 13.2681 22.2937C13.5755 22.1259 13.9051 22.0403 14.2379 22.0417H22.1626C22.6664 22.0417 23.1496 22.3051 23.5059 22.7739C23.8621 23.2427 24.0623 23.8786 24.0623 24.5417C24.0623 25.2047 23.8621 25.8406 23.5059 26.3094C23.1496 26.7783 22.6664 27.0417 22.1626 27.0417H17.7301C17.3942 27.0417 17.0721 27.2173 16.8346 27.5298C16.5971 27.8424 16.4636 28.2663 16.4636 28.7083C16.4636 29.1504 16.5971 29.5743 16.8346 29.8868C17.0721 30.1994 17.3942 30.375 17.7301 30.375H22.7958C22.8911 30.3746 22.9862 30.3607 23.0792 30.3333L33.6856 27.1229L33.7347 27.1063C34.0584 26.988 34.404 27.0314 34.7049 27.2283C35.0058 27.4252 35.2407 27.7615 35.3645 28.1726C35.4883 28.5838 35.4922 29.0406 35.3754 29.4553C35.2586 29.8699 35.0294 30.2131 34.732 30.4188H34.7367ZM25.9619 15.375C26.2748 15.3755 26.5872 15.342 26.8959 15.275C27.2431 16.6324 27.8785 17.8305 28.7267 18.7278C29.575 19.6251 30.6008 20.1839 31.6827 20.3383C32.7647 20.4927 33.8576 20.2361 34.8323 19.5989C35.807 18.9618 36.6227 17.9706 37.1829 16.7427C37.7431 15.5148 38.0245 14.1015 37.9937 12.6698C37.9629 11.2381 37.6212 9.84799 37.0091 8.66374C36.397 7.4795 35.5401 6.55067 34.5396 5.98707C33.5391 5.42348 32.4369 5.24867 31.3633 5.48334C31.0289 4.17551 30.4269 3.01443 29.6234 2.12787C28.82 1.24131 27.8462 0.663631 26.8094 0.458413C25.7726 0.253194 24.7128 0.42839 23.7467 0.96472C22.7807 1.50105 21.9458 2.37772 21.3339 3.49826C20.722 4.6188 20.3569 5.93976 20.2787 7.31578C20.2006 8.6918 20.4123 10.0695 20.8908 11.2974C21.3692 12.5252 22.0958 13.5555 22.9905 14.2749C23.8852 14.9944 24.9134 15.375 25.9619 15.375ZM35.4602 12.875C35.4602 13.6991 35.2745 14.5047 34.9266 15.1899C34.5787 15.8751 34.0842 16.4091 33.5057 16.7245C32.9272 17.0399 32.2906 17.1224 31.6764 16.9616C31.0622 16.8008 30.4981 16.404 30.0553 15.8213C29.6125 15.2386 29.311 14.4961 29.1888 13.6879C29.0667 12.8796 29.1294 12.0418 29.369 11.2805C29.6086 10.5191 30.0144 9.86838 30.5351 9.41055C31.0558 8.95271 31.6679 8.70834 32.2941 8.70834C33.1338 8.70834 33.9391 9.14732 34.5328 9.92872C35.1266 10.7101 35.4602 11.7699 35.4602 12.875ZM25.9619 3.70834C26.6526 3.70879 27.3242 4.00647 27.8744 4.556C28.4246 5.10553 28.8231 5.87675 29.0093 6.75209C28.3606 7.3527 27.8144 8.12487 27.4055 9.0192C26.9967 9.91353 26.7341 10.9103 26.6347 11.9458C26.4136 12.0087 26.1881 12.0408 25.9619 12.0417C25.1222 12.0417 24.3169 11.6027 23.7231 10.8213C23.1294 10.0399 22.7958 8.98007 22.7958 7.875C22.7958 6.76993 23.1294 5.71013 23.7231 4.92872C24.3169 4.14732 25.1222 3.70834 25.9619 3.70834Z" fill="url(#paint0_linear_2096_14455)"/>
<defs>
<linearGradient id="paint0_linear_2096_14455" x1="19" y1="0.375" x2="19" y2="34.0417" gradientUnits="userSpaceOnUse">
<stop stop-color="#2D4949"/>
<stop offset="0.99" stop-color="#31B2B2"/>
</linearGradient>
</defs>
</svg>
