<svg width="525" height="525" viewBox="0 0 525 525" fill="none" xmlns="http://www.w3.org/2000/svg">
<mask id="mask0_3329_11792" style="mask-type:luminance" maskUnits="userSpaceOnUse" x="0" y="0" width="525" height="525">
<path d="M525 0H0V525H525V0Z" fill="white"/>
</mask>
<g mask="url(#mask0_3329_11792)">
<path d="M442.908 257.275L350.024 203.645C343.527 199.894 335.522 199.894 329.026 203.645L73.19 351.353H55.3242V366.92V366.923V367.28H55.3353C55.4492 370.224 56.9596 373.119 59.8749 374.802L165.011 435.501C172.172 439.635 180.993 439.635 188.153 435.5L456.225 280.727C459.141 279.044 460.651 276.147 460.764 273.203H460.775V257.275H442.908Z" fill="#CBE9EB"/>
<path d="M59.8744 343.47L329.026 188.076C335.522 184.325 343.527 184.325 350.024 188.076L456.226 249.395C462.293 252.898 462.293 261.655 456.226 265.157L188.153 419.931C180.993 424.065 172.172 424.065 165.011 419.931L59.8744 359.232C53.8075 355.73 53.8075 346.973 59.8744 343.47Z" fill="#E8F5F6"/>
<path d="M166.631 418.458L62.3693 357.76C60.0725 356.422 58.7012 354.027 58.7012 351.353C58.7012 348.678 60.0725 346.283 62.3693 344.945L329.279 189.551C332.23 187.833 335.538 186.974 338.846 186.974C342.155 186.974 345.464 187.833 348.414 189.551L453.732 250.87C456.029 252.208 457.401 254.603 457.401 257.277C457.401 259.952 456.029 262.347 453.732 263.685L187.893 418.458C184.614 420.367 180.938 421.321 177.262 421.321C173.586 421.321 169.91 420.367 166.631 418.458Z" fill="white"/>
<path d="M90.2377 335.531L308.6 209.446C312.695 207.081 317.741 207.079 321.838 209.44L424.948 268.842C426.332 269.64 426.337 271.634 424.958 272.439L207.697 399.235C203.589 401.632 198.514 401.644 194.395 399.266L90.2377 339.131C88.8517 338.332 88.8517 336.331 90.2377 335.531Z" fill="#164C4F"/>
<path d="M388.614 247.909L111.909 351.643L194.396 399.267C194.441 399.293 194.487 399.319 194.533 399.345C194.539 399.349 194.546 399.352 194.552 399.355C194.583 399.373 194.614 399.39 194.645 399.407C196.627 400.496 198.82 401.041 201.012 401.042H201.02H201.029C203.334 401.04 205.638 400.438 207.698 399.236L424.959 272.44C425.649 272.037 425.992 271.337 425.99 270.638C425.988 269.939 425.641 269.241 424.949 268.842L388.614 247.909Z" fill="#225A5D"/>
<path d="M409.008 303.437L365.644 328.472C363.494 329.713 360.806 328.161 360.806 325.678C360.806 324.525 361.42 323.461 362.419 322.884L405.782 297.85C407.933 296.608 410.621 298.161 410.621 300.644C410.621 301.796 410.006 302.861 409.008 303.437Z" fill="#ACD9DB"/>
<path d="M310.407 498.958L404.547 444.601C409.25 441.886 409.25 437.483 404.547 434.768L352.41 404.664C347.707 401.949 340.082 401.949 335.379 404.664L241.24 459.021C236.537 461.736 236.537 466.139 241.24 468.854L293.378 498.958C298.08 501.673 305.704 501.673 310.407 498.958Z" fill="#8DD8DC"/>
<path d="M414.801 383.836L406.711 384.95L354.736 354.94C349.662 352.01 341.434 352.01 336.361 354.94L246.087 407.063L230.973 409.144V418.357L231.018 418.351C230.754 420.449 232 422.599 234.779 424.204L291.038 456.688C296.113 459.618 304.34 459.618 309.414 456.688L410.995 398.034C413.556 396.556 414.82 394.614 414.797 392.677L414.801 392.676V383.836Z" fill="#CBE9EB"/>
<path d="M309.414 447.895L410.995 389.242C416.07 386.312 416.07 381.561 410.995 378.631L354.736 346.148C349.662 343.218 341.434 343.218 336.36 346.148L234.779 404.801C229.704 407.731 229.704 412.481 234.779 415.411L291.038 447.895C296.112 450.825 304.339 450.825 309.414 447.895Z" fill="white"/>
<path d="M385.986 387.168L394.637 382.174L376.071 371.862L367.42 376.857L385.986 387.168Z" fill="#24A7AF"/>
<path d="M373.298 394.495L381.948 389.5L352.85 372.512L344.2 377.507L373.298 394.495Z" fill="#24A7AF"/>
<path d="M360.609 401.82L369.26 396.824L352.012 387.206L343.36 392.201L360.609 401.82Z" fill="#24A7AF"/>
<path d="M347.922 409.145L356.573 404.15L334.243 390.78L325.593 395.776L347.922 409.145Z" fill="#24A7AF"/>
<path d="M335.235 416.471L343.886 411.476L317.719 396.541L309.067 401.536L335.235 416.471Z" fill="#24A7AF"/>
<path d="M322.545 423.799L331.196 418.803L283.304 391.002L274.652 395.997L322.545 423.799Z" fill="#24A7AF"/>
<path d="M309.859 431.124L318.51 426.128L291.791 410.876L283.141 415.87L309.859 431.124Z" fill="#24A7AF"/>
<path d="M297.172 438.449L305.823 433.453L271.795 413.325L263.145 418.321L297.172 438.449Z" fill="#24A7AF"/>
<path d="M417.432 212.799L348.413 172.948C347.161 172.225 345.131 172.225 343.879 172.948L134.586 293.793C133.96 294.155 133.646 294.629 133.646 295.102V304.068H133.649C133.642 304.546 133.953 305.026 134.586 305.392L203.605 345.244C204.857 345.966 206.887 345.966 208.139 345.244L417.432 224.398C418.036 224.049 418.341 223.596 418.363 223.139H418.371V214.174H418.36C418.391 213.678 418.088 213.178 417.432 212.799Z" fill="#1C5154" fill-opacity="0.8"/>
<path d="M343.531 172.947L134.584 293.593C133.334 294.315 133.334 295.485 134.584 296.206L203.489 335.992C204.739 336.714 206.766 336.714 208.016 335.992L416.963 215.346C418.213 214.624 418.213 213.454 416.963 212.733L348.058 172.947C346.808 172.225 344.781 172.225 343.531 172.947Z" fill="#164C4F"/>
<mask id="mask1_3329_11792" style="mask-type:alpha" maskUnits="userSpaceOnUse" x="133" y="172" width="285" height="165">
<path d="M343.531 172.95L134.584 293.597C133.334 294.318 133.334 295.488 134.584 296.21L203.489 335.996C204.739 336.718 206.766 336.718 208.016 335.996L416.963 215.35C418.213 214.628 418.213 213.458 416.963 212.737L348.058 172.95C346.808 172.229 344.781 172.229 343.531 172.95Z" fill="#164C4F"/>
</mask>
<g mask="url(#mask1_3329_11792)">
<mask id="mask2_3329_11792" style="mask-type:luminance" maskUnits="userSpaceOnUse" x="55" y="67" width="414" height="415">
<path d="M55.1465 67.3213H468.999V481.174H55.1465V67.3213Z" fill="white"/>
</mask>
<g mask="url(#mask2_3329_11792)">
<mask id="mask3_3329_11792" style="mask-type:luminance" maskUnits="userSpaceOnUse" x="133" y="160" width="326" height="233">
<path d="M356.894 160.03L133.414 326.707L196.551 392.923L458.52 221.28L356.894 160.03Z" fill="white"/>
</mask>
<g mask="url(#mask3_3329_11792)">
<path d="M373.286 187.344L417.439 212.837C418.689 213.559 418.689 214.729 417.439 215.451L208.491 336.098C207.242 336.819 205.215 336.819 203.965 336.098L200.15 333.894C193.448 315.632 198.821 305.833 207.854 300.392C223.039 291.245 243.373 296.887 260.06 287.197C279.569 275.868 263.684 261.082 283.816 249.439C299.924 240.124 315.392 246.786 329.8 237.882C349.134 225.932 331.472 207.765 353.266 194.532C360.085 190.391 368.069 188.372 373.286 187.344Z" fill="#8DD8DC"/>
</g>
<path d="M222.902 327.783L222.45 328.044L195.894 312.71L196.346 312.449L222.902 327.783Z" fill="#F4F9FA"/>
<path d="M208.555 317.341L204.362 319.762L190.271 311.626L194.463 309.205L208.555 317.341Z" fill="#4DA3A7"/>
<path d="M239.319 318.301L238.866 318.563L205.878 299.515L206.331 299.254L239.319 318.301Z" fill="#F4F9FA"/>
<path d="M217.166 303.353L212.974 305.774L198.882 297.637L203.075 295.217L217.166 303.353Z" fill="#24A7AF"/>
<path d="M255.74 308.819L255.288 309.081L229.116 293.97L229.569 293.708L255.74 308.819Z" fill="#F4F9FA"/>
<path d="M240.943 298.116L236.751 300.537L222.659 292.4L226.852 289.979L240.943 298.116Z" fill="#4DA3A7"/>
<path d="M272.161 299.338L271.708 299.599L254.202 289.491L254.655 289.23L272.161 299.338Z" fill="#F4F9FA"/>
<path d="M267.188 294.308L262.996 296.729L248.904 288.592L253.097 286.172L267.188 294.308Z" fill="#4DA3A7"/>
<path d="M288.582 289.858L288.128 290.119L267.923 278.453L268.376 278.191L288.582 289.858Z" fill="#F4F9FA"/>
<path d="M280.613 283.099L276.421 285.52L262.329 277.384L266.522 274.963L280.613 283.099Z" fill="#4DA3A7"/>
<path d="M305.004 280.376L304.551 280.637L271.838 261.748L272.291 261.487L305.004 280.376Z" fill="#F4F9FA"/>
<path d="M283.615 265.867L279.422 268.288L265.331 260.151L269.523 257.73L283.615 265.867Z" fill="#4DA3A7"/>
<path d="M321.426 270.896L320.973 271.157L282.318 248.839L282.772 248.577L321.426 270.896Z" fill="#F4F9FA"/>
<path d="M292.989 252.318L288.797 254.739L274.705 246.602L278.897 244.182L292.989 252.318Z" fill="#24A7AF"/>
<path d="M337.846 261.416L337.394 261.677L305.415 243.213L305.867 242.951L337.846 261.416Z" fill="#F4F9FA"/>
<path d="M316.456 246.905L312.264 249.326L298.172 241.189L302.364 238.769L316.456 246.905Z" fill="#4DA3A7"/>
<path d="M354.262 251.933L353.81 252.194L328.582 237.627L329.035 237.366L354.262 251.933Z" fill="#F4F9FA"/>
<path d="M340.737 241.964L336.544 244.385L322.452 236.249L326.645 233.828L340.737 241.964Z" fill="#4DA3A7"/>
<path d="M370.684 242.451L370.231 242.712L338.252 224.248L338.705 223.986L370.684 242.451Z" fill="#F4F9FA"/>
<path d="M350.42 228.588L346.227 231.01L332.136 222.873L336.328 220.452L350.42 228.588Z" fill="#4DA3A7"/>
<path d="M387.106 232.971L386.653 233.232L337.641 204.932L338.093 204.671L387.106 232.971Z" fill="#F4F9FA"/>
<path d="M350.768 209.83L346.576 212.251L332.484 204.114L336.677 201.693L350.768 209.83Z" fill="#4DA3A7"/>
<path d="M403.523 223.486L403.07 223.748L352.508 194.553L352.961 194.292L403.523 223.486Z" fill="#F4F9FA"/>
<path d="M362.229 197.482L358.037 199.903L343.945 191.766L348.138 189.346L362.229 197.482Z" fill="#24A7AF"/>
<path d="M164.215 287.671L149.583 296.12C148.152 296.946 145.83 296.946 144.399 296.12C142.967 295.293 142.967 293.953 144.399 293.126L159.031 284.678C160.462 283.851 162.783 283.851 164.215 284.678C165.646 285.504 165.646 286.844 164.215 287.671Z" fill="#BBCCCD"/>
<path d="M148.488 292.449L149.191 292.043L150.748 292.374L150.171 291.477L150.866 291.076L151.688 292.566L152.527 293.051L151.909 293.408L151.069 292.923L148.488 292.449Z" fill="#F4F9FA"/>
<path d="M153.168 290.318L152.23 290.86L152.744 291.156L153.573 290.677L154.051 290.953L153.222 291.431L153.779 291.754L154.716 291.213L155.212 291.499L153.656 292.397L151.115 290.93L152.672 290.032L153.168 290.318Z" fill="#F4F9FA"/>
<path d="M156.747 290.096L155.798 290.643L156.096 290.99L155.448 291.363L153.826 289.366L154.543 288.952L158.003 289.889L157.347 290.267L156.747 290.096ZM154.865 289.556L155.484 290.273L156.109 289.911L154.865 289.556Z" fill="#F4F9FA"/>
<path d="M156.782 287.66C157.405 287.3 158.075 287.328 158.516 287.583C158.835 287.766 158.962 288.04 158.687 288.332L160.279 288.575L159.58 288.978L158.092 288.73L157.944 288.815L158.903 289.369L158.285 289.727L155.744 288.26L156.782 287.66ZM157.261 287.977L156.877 288.199L157.507 288.563L157.89 288.342C158.122 288.208 158.111 288.076 157.911 287.961C157.723 287.852 157.493 287.844 157.261 287.977Z" fill="#F4F9FA"/>
<path d="M186.751 274.662L172.119 283.111C170.688 283.937 168.366 283.937 166.934 283.111C165.502 282.284 165.502 280.944 166.934 280.117L181.566 271.669C182.998 270.842 185.319 270.842 186.751 271.669C188.182 272.495 188.182 273.835 186.751 274.662Z" fill="#24A7AF"/>
<path d="M169.118 280.569L169.849 280.147L172.321 280.751L171.268 279.327L171.996 278.907L174.536 280.374L173.918 280.732L172.394 279.852L173.349 281.06L172.849 281.349L170.75 280.797L172.278 281.679L171.659 282.036L169.118 280.569Z" fill="#F4F9FA"/>
<path d="M176.211 279.439C175.492 279.854 174.365 279.882 173.602 279.441C172.838 279 172.889 278.352 173.609 277.936C174.333 277.518 175.444 277.496 176.208 277.936C176.971 278.378 176.931 279.023 176.211 279.439ZM175.647 279.113C176.052 278.879 176.024 278.557 175.578 278.3C175.126 278.039 174.576 278.026 174.171 278.26C173.759 278.499 173.783 278.814 174.236 279.075C174.681 279.332 175.235 279.351 175.647 279.113Z" fill="#F4F9FA"/>
<path d="M177.563 275.695L180.104 277.162L179.485 277.519L176.884 277.212L178.451 278.117L177.832 278.474L175.291 277.007L175.91 276.65L178.519 276.962L176.944 276.052L177.563 275.695Z" fill="#F4F9FA"/>
<path d="M177.876 275.515L179.841 274.381L180.337 274.667L179.663 275.057L181.708 276.237L181.09 276.594L179.045 275.414L178.372 275.802L177.876 275.515Z" fill="#F4F9FA"/>
<path d="M183.229 274.149L182.266 274.705L183.312 275.308L182.693 275.666L180.152 274.199L180.771 273.842L181.767 274.417L182.729 273.86L181.734 273.286L182.353 272.929L184.893 274.395L184.275 274.753L183.229 274.149Z" fill="#F4F9FA"/>
<path d="M209.285 261.651L194.653 270.099C193.222 270.926 190.9 270.926 189.468 270.099C188.037 269.273 188.037 267.932 189.468 267.106L204.101 258.657C205.532 257.83 207.853 257.83 209.285 258.657C210.716 259.484 210.716 260.824 209.285 261.651Z" fill="#BBCCCD"/>
<path d="M198.154 265.242C198.907 265.676 198.903 266.276 198.093 266.744L197.141 267.294L194.601 265.827L195.552 265.277C196.363 264.809 197.398 264.805 198.154 265.242ZM197.517 266.458C197.984 266.188 197.991 265.875 197.524 265.605C197.058 265.336 196.508 265.336 196.041 265.605L195.748 265.775L197.224 266.627L197.517 266.458Z" fill="#F4F9FA"/>
<path d="M200.905 264.601L199.957 265.148L200.254 265.495L199.606 265.869L197.984 263.872L198.701 263.458L202.161 264.395L201.505 264.773L200.905 264.601ZM199.024 264.062L199.642 264.778L200.268 264.417L199.024 264.062Z" fill="#F4F9FA"/>
<path d="M199.703 262.88L200.405 262.474L201.962 262.805L201.386 261.908L202.081 261.507L202.902 262.996L203.742 263.481L203.124 263.838L202.283 263.354L199.703 262.88Z" fill="#F4F9FA"/>
</g>
</g>
<mask id="mask4_3329_11792" style="mask-type:luminance" maskUnits="userSpaceOnUse" x="-1" y="19" width="526" height="526">
<path d="M-0.0947266 19.9883H524.905V544.988H-0.0947266V19.9883Z" fill="white"/>
</mask>
<g mask="url(#mask4_3329_11792)">
<path d="M172.767 224.793H167.204C157.409 212.198 135.627 203.359 110.146 203.197C84.1674 203.03 61.6822 211.928 51.6815 224.793H46.1475V241.481H46.2273C47.7823 260.679 75.0345 276.072 108.744 276.288C142.924 276.506 171.06 261.037 172.655 241.481H172.767V224.793Z" fill="#377275"/>
<mask id="mask5_3329_11792" style="mask-type:alpha" maskUnits="userSpaceOnUse" x="46" y="203" width="127" height="74">
<path d="M172.771 224.793H167.207C157.413 212.198 135.631 203.359 110.15 203.197C84.1713 203.03 61.6861 211.928 51.6854 224.793H46.1514V241.481H46.2312C47.7862 260.679 75.0384 276.072 108.748 276.288C142.928 276.506 171.064 261.037 172.659 241.481H172.771V224.793Z" fill="#377275"/>
</mask>
<g mask="url(#mask5_3329_11792)">
<mask id="mask6_3329_11792" style="mask-type:luminance" maskUnits="userSpaceOnUse" x="-1" y="19" width="526" height="526">
<path d="M-0.0908203 19.9893H524.909V544.989H-0.0908203V19.9893Z" fill="white"/>
</mask>
<g mask="url(#mask6_3329_11792)">
<path d="M51.602 273.082C50.6507 272.069 49.9293 269.386 49.9822 267.101C50.4648 246.65 50.9486 226.198 51.4319 205.746C51.4854 203.465 52.351 201.619 53.3704 201.605C54.3935 201.591 55.1596 203.555 55.0985 205.963C54.5459 227.482 53.9953 249.001 53.4434 270.519C53.3767 272.942 52.5545 274.104 51.602 273.082Z" fill="#FBFDFD"/>
<path d="M67.1393 287.237C66.1332 286.45 65.3854 283.55 65.4648 280.791C66.1496 256.065 66.8344 231.339 67.5192 206.613C67.6005 203.852 68.4755 201.608 69.4974 201.605C70.5136 201.595 71.279 203.909 71.1971 206.781C70.4997 232.338 69.8017 257.897 69.1049 283.454C69.0255 286.327 68.1397 288.023 67.1393 287.237Z" fill="#FBFDFD"/>
<path d="M83.4001 297.879C82.3543 297.314 81.5655 294.308 81.6474 291.177C82.3127 263.209 82.9761 235.24 83.642 207.271C83.7138 204.142 84.6028 201.618 85.619 201.607C86.6358 201.605 87.4006 204.187 87.3307 207.391C86.6937 235.954 86.0587 264.521 85.423 293.087C85.3544 296.292 84.4453 298.445 83.4001 297.879Z" fill="#FBFDFD"/>
<path d="M100.183 305.005C99.1125 304.671 98.2879 301.63 98.3446 298.257C98.829 268.076 99.3135 237.897 99.7986 207.717C99.8521 204.338 100.72 201.611 101.736 201.604C102.753 201.599 103.54 204.365 103.49 207.79C103.063 238.329 102.637 268.871 102.21 299.41C102.16 302.832 101.255 305.346 100.183 305.005Z" fill="#FBFDFD"/>
<path d="M117.283 308.618C116.2 308.496 115.338 305.539 115.363 302.034C115.566 270.673 115.773 239.314 115.976 207.955C116 204.446 116.847 201.601 117.858 201.604C118.874 201.604 119.683 204.452 119.671 207.98C119.539 239.464 119.406 270.948 119.273 302.432C119.258 305.963 118.372 308.743 117.283 308.618Z" fill="#FBFDFD"/>
<path d="M134.494 308.72C133.406 308.831 132.519 306.026 132.507 302.506C132.393 271 132.277 239.494 132.163 207.986C132.151 204.456 132.964 201.603 133.981 201.606C134.993 201.611 135.846 204.455 135.859 207.964C136.046 239.359 136.232 270.755 136.42 302.152C136.438 305.66 135.578 308.622 134.494 308.72Z" fill="#FBFDFD"/>
<path d="M151.606 305.307C150.536 305.641 149.627 303.106 149.581 299.674C149.17 269.05 148.757 238.429 148.346 207.806C148.298 204.374 149.087 201.612 150.102 201.604C151.118 201.613 151.983 204.348 152.038 207.734C152.509 238.01 152.98 268.288 153.449 298.564C153.506 301.952 152.681 304.975 151.606 305.307Z" fill="#FBFDFD"/>
<path d="M168.416 298.381C167.372 298.943 166.461 296.753 166.391 293.536C165.763 264.829 165.137 236.123 164.51 207.416C164.437 204.204 165.214 201.593 166.225 201.605C167.243 201.609 168.127 204.161 168.198 207.299C168.857 235.425 169.514 263.548 170.173 291.671C170.245 294.81 169.462 297.821 168.416 298.381Z" fill="#FBFDFD"/>
<path d="M53.3576 274.06C52.8788 273.579 52.5096 272.211 52.5442 271.024C53.1024 248.872 53.6625 226.723 54.2207 204.57C54.2497 203.385 54.6812 202.427 55.1947 202.427C55.6999 202.43 56.0893 203.421 56.0571 204.641C55.4649 227.335 54.8759 250.031 54.2843 272.724C54.2503 273.942 53.837 274.543 53.3576 274.06Z" fill="#2FC7CF"/>
<path d="M68.9911 287.66C68.4833 287.273 68.1103 285.843 68.1481 284.412C68.8726 257.988 69.5978 231.565 70.3223 205.142C70.3588 203.728 70.7979 202.587 71.3126 202.583C71.8154 202.584 72.2028 203.76 72.1619 205.199C71.433 232.041 70.7053 258.883 69.9758 285.724C69.9399 287.162 69.4919 288.031 68.9911 287.66Z" fill="#2FC7CF"/>
<path d="M85.3206 297.783C84.797 297.524 84.3976 296.006 84.4373 294.421C85.1076 264.804 85.7779 235.186 86.4483 205.569C86.4816 203.98 86.9283 202.704 87.4355 202.697C87.9401 202.692 88.3269 204.006 88.2935 205.609C87.6396 235.523 86.9863 265.434 86.3317 295.349C86.2971 296.954 85.8441 298.059 85.3206 297.783Z" fill="#2FC7CF"/>
<path d="M102.145 304.431C101.609 304.28 101.195 302.769 101.219 301.063C101.679 269.326 102.139 237.588 102.599 205.852C102.622 204.14 103.054 202.774 103.565 202.771C104.073 202.779 104.461 204.161 104.444 205.876C104.015 237.788 103.586 269.695 103.157 301.607C103.131 303.327 102.678 304.586 102.145 304.431Z" fill="#2FC7CF"/>
<path d="M119.259 307.608C118.717 307.559 118.286 306.091 118.293 304.335C118.45 271.554 118.607 238.77 118.764 205.991C118.772 204.234 119.193 202.815 119.7 202.808C120.213 202.809 120.622 204.246 120.61 205.999C120.492 238.831 120.371 271.661 120.252 304.494C120.249 306.261 119.802 307.644 119.259 307.608Z" fill="#2FC7CF"/>
<path d="M136.455 307.309C135.909 307.362 135.462 305.998 135.458 304.237C135.282 271.487 135.106 238.738 134.931 205.987C134.921 204.23 135.326 202.805 135.834 202.805C136.344 202.798 136.761 204.22 136.776 205.979C136.988 238.658 137.203 271.333 137.414 304.012C137.429 305.769 136.99 307.246 136.455 307.309Z" fill="#2FC7CF"/>
<path d="M153.534 303.537C152.999 303.714 152.549 302.462 152.519 300.771C152.043 269.127 151.569 237.482 151.093 205.838C151.068 204.14 151.458 202.763 151.967 202.759C152.476 202.763 152.905 204.121 152.938 205.813C153.442 237.261 153.946 268.712 154.451 300.161C154.479 301.849 154.071 303.364 153.534 303.537Z" fill="#2FC7CF"/>
<path d="M170.286 296.291C169.762 296.566 169.318 295.513 169.276 293.935C168.597 264.471 167.919 235.009 167.24 205.547C167.204 203.957 167.587 202.683 168.095 202.679C168.606 202.683 169.05 203.936 169.084 205.504C169.776 234.648 170.468 263.794 171.161 292.94C171.193 294.501 170.807 296.002 170.286 296.291Z" fill="#2FC7CF"/>
<path d="M50.7104 322.96C49.7591 321.947 49.0377 319.264 49.0906 316.979C49.5732 296.527 50.057 276.076 50.5403 255.624C50.5938 253.343 51.4594 251.497 52.4788 251.482C53.5019 251.469 54.268 253.433 54.2069 255.841C53.6543 277.36 53.1037 298.878 52.5518 320.397C52.4851 322.819 51.6629 323.982 50.7104 322.96Z" fill="#FBFDFD"/>
<path d="M66.0885 337.115C65.0824 336.328 64.3346 333.428 64.414 330.669C65.0988 305.943 65.7836 281.217 66.4684 256.491C66.5497 253.729 67.4248 251.486 68.4466 251.482C69.4628 251.473 70.2283 253.787 70.1464 256.659C69.4489 282.216 68.7509 307.775 68.0541 333.332C67.9747 336.205 67.089 337.901 66.0885 337.115Z" fill="#FBFDFD"/>
<path d="M82.3523 347.755C81.3065 347.19 80.5177 344.184 80.5996 341.053C81.2649 313.085 81.9283 285.116 82.5942 257.147C82.666 254.018 83.5549 251.494 84.5711 251.483C85.5879 251.481 86.3528 254.063 86.2828 257.267C85.6459 285.83 85.0109 314.397 84.3752 342.963C84.3065 346.168 83.3974 348.321 82.3523 347.755Z" fill="#FBFDFD"/>
<path d="M99.6087 354.883C98.5383 354.549 97.7136 351.508 97.7703 348.135C98.2548 317.954 98.7393 287.775 99.2244 257.594C99.2779 254.216 100.145 251.489 101.162 251.482C102.178 251.477 102.965 254.243 102.916 257.668C102.489 288.207 102.063 318.749 101.636 349.288C101.586 352.71 100.681 355.223 99.6087 354.883Z" fill="#FBFDFD"/>
<path d="M117.023 358.496C115.94 358.373 115.078 355.417 115.103 351.912C115.307 320.551 115.513 289.192 115.717 257.833C115.74 254.324 116.587 251.479 117.598 251.482C118.614 251.482 119.424 254.33 119.412 257.858C119.279 289.342 119.146 320.825 119.013 352.31C118.998 355.841 118.113 358.621 117.023 358.496Z" fill="#FBFDFD"/>
<path d="M134.865 358.597C133.777 358.708 132.89 355.903 132.878 352.383C132.764 320.877 132.648 289.371 132.534 257.863C132.522 254.333 133.335 251.48 134.352 251.483C135.364 251.488 136.217 254.332 136.23 257.841C136.417 289.236 136.603 320.632 136.791 352.029C136.81 355.537 135.949 358.499 134.865 358.597Z" fill="#FBFDFD"/>
<path d="M152.45 355.184C151.379 355.518 150.471 352.983 150.425 349.55C150.014 318.927 149.6 288.306 149.19 257.683C149.142 254.251 149.93 251.489 150.946 251.48C151.962 251.49 152.827 254.225 152.882 257.611C153.353 287.887 153.824 318.165 154.293 348.441C154.349 351.829 153.525 354.852 152.45 355.184Z" fill="#FBFDFD"/>
<path d="M169.729 348.259C168.685 348.821 167.774 346.631 167.704 343.414C167.077 314.707 166.451 286.001 165.823 257.294C165.75 254.082 166.527 251.471 167.538 251.482C168.556 251.487 169.441 254.039 169.511 257.177C170.17 285.303 170.828 313.426 171.486 341.549C171.559 344.688 170.776 347.699 169.729 348.259Z" fill="#FBFDFD"/>
<path d="M52.4679 323.936C51.9891 323.455 51.6199 322.087 51.6546 320.9C52.2128 298.748 52.7728 276.599 53.331 254.446C53.36 253.261 53.7916 252.303 54.305 252.303C54.8103 252.306 55.1996 253.297 55.1675 254.517C54.5753 277.211 53.9862 299.907 53.3947 322.6C53.3606 323.818 52.9474 324.419 52.4679 323.936Z" fill="#2FC7CF"/>
<path d="M67.9462 337.535C67.4384 337.148 67.0654 335.718 67.1032 334.287C67.8277 307.863 68.5529 281.44 69.2774 255.017C69.3139 253.603 69.753 252.462 70.2677 252.458C70.7705 252.459 71.1579 253.635 71.117 255.074C70.388 281.916 69.6604 308.758 68.9309 335.599C68.8949 337.037 68.447 337.906 67.9462 337.535Z" fill="#2FC7CF"/>
<path d="M84.2756 347.659C83.7521 347.4 83.3527 345.882 83.3924 344.297C84.0627 314.68 84.733 285.062 85.4033 255.445C85.4367 253.856 85.8834 252.58 86.3905 252.573C86.8952 252.568 87.282 253.882 87.2486 255.485C86.5947 285.399 85.9413 315.31 85.2868 345.225C85.2521 346.83 84.7992 347.935 84.2756 347.659Z" fill="#2FC7CF"/>
<path d="M101.572 354.307C101.036 354.156 100.622 352.645 100.645 350.939C101.105 319.202 101.566 287.464 102.026 255.728C102.048 254.016 102.481 252.65 102.992 252.647C103.499 252.655 103.888 254.037 103.871 255.752C103.441 287.664 103.013 319.571 102.583 351.483C102.558 353.203 102.105 354.462 101.572 354.307Z" fill="#2FC7CF"/>
<path d="M118.997 357.485C118.455 357.436 118.024 355.968 118.031 354.212C118.188 321.431 118.345 288.647 118.503 255.868C118.51 254.11 118.931 252.692 119.438 252.685C119.952 252.686 120.36 254.123 120.348 255.876C120.23 288.708 120.109 321.538 119.991 354.371C119.987 356.138 119.54 357.521 118.997 357.485Z" fill="#2FC7CF"/>
<path d="M136.824 357.185C136.277 357.238 135.83 355.874 135.826 354.113C135.65 321.363 135.474 288.614 135.299 255.863C135.289 254.106 135.694 252.681 136.202 252.681C136.712 252.674 137.129 254.096 137.144 255.855C137.356 288.534 137.571 321.209 137.782 353.888C137.798 355.645 137.358 357.122 136.824 357.185Z" fill="#2FC7CF"/>
<path d="M154.375 353.413C153.84 353.59 153.391 352.338 153.361 350.647C152.885 319.003 152.41 287.358 151.935 255.714C151.91 254.016 152.299 252.639 152.809 252.635C153.318 252.639 153.747 253.997 153.779 255.689C154.283 287.137 154.787 318.588 155.293 350.037C155.321 351.725 154.913 353.239 154.375 353.413Z" fill="#2FC7CF"/>
<path d="M171.6 346.169C171.075 346.443 170.631 345.391 170.589 343.813C169.91 314.349 169.232 284.887 168.553 255.425C168.517 253.834 168.9 252.561 169.409 252.557C169.92 252.561 170.364 253.813 170.397 255.382C171.089 284.526 171.782 313.672 172.474 342.818C172.506 344.379 172.121 345.88 171.6 346.169Z" fill="#2FC7CF"/>
</g>
</g>
<path d="M172.738 227.068C172.351 247.252 143.699 263.433 108.743 263.209C73.7869 262.985 45.7645 246.442 46.1514 226.259C46.5389 206.074 75.1902 189.894 110.146 190.118C145.102 190.341 173.126 206.884 172.738 227.068Z" fill="#2FC7CF"/>
<path d="M154.186 226.943C154.076 232.207 151.266 237.078 146.505 241.128C138.37 248.085 124.554 252.6 108.945 252.502C84.2458 252.343 64.4292 240.649 64.699 226.366C64.7725 222.464 66.3307 218.771 69.0922 215.47C76.3803 206.709 91.988 200.697 109.94 200.832C134.652 200.979 154.456 212.685 154.186 226.943Z" fill="#FBFDFD"/>
<path d="M150.912 230.219C150.838 234.121 149.267 237.827 146.507 241.127C138.372 248.085 124.555 252.6 108.947 252.501C84.2478 252.342 64.4306 240.649 64.701 226.366C64.7745 222.464 66.3327 218.771 69.0937 215.471C77.2291 208.513 91.0576 204.01 106.665 204.108C131.365 204.267 151.182 215.961 150.912 230.219Z" fill="#FBFDFD"/>
<path d="M169.982 230.161C168.336 231.09 166.09 231.669 163.606 231.682C158.497 231.712 154.316 229.344 154.265 226.395C154.028 212.427 134.143 200.936 109.94 200.783C104.831 200.749 100.737 198.332 100.793 195.382C100.851 192.433 105.037 190.069 110.145 190.101C126.823 190.208 142.495 194.021 154.273 200.839C166.034 207.646 172.6 216.684 172.764 226.289C172.789 227.804 171.721 229.179 169.982 230.161Z" fill="#2FC7CF"/>
<mask id="mask7_3329_11792" style="mask-type:luminance" maskUnits="userSpaceOnUse" x="74" y="196" width="74" height="60">
<path d="M74.1934 196.124H147.693V255.449H74.1934V196.124Z" fill="white"/>
</mask>
<g mask="url(#mask7_3329_11792)">
<path d="M113.932 227.217C116.115 226.836 117.815 226.878 118.711 228.061C119.529 229.141 119.274 230.474 117.464 231.878L113.932 227.217ZM100.509 222.705C99.6649 221.591 99.8015 220.178 101.712 218.678L105.346 223.474C103.147 223.91 101.405 223.888 100.509 222.705ZM95.4681 210.437L98.3087 214.186C92.1578 218.057 91.2646 222.721 93.9772 226.301C97.6367 231.131 103.772 229.819 109.108 228.439L113.382 234.079C110.189 235.33 106.486 235.905 103.447 235.688L104.267 240.944C107.669 241.261 112.438 240.346 116.734 238.503L119.523 242.184L123.708 240.119L120.842 236.336C126.925 232.452 127.802 227.842 125.14 224.33C121.532 219.568 115.48 220.838 110.17 222.253L105.82 216.511C108.066 215.681 110.676 215.181 113.553 215.107L112.497 209.92C109.3 209.874 105.734 210.706 102.442 212.053L99.6524 208.371L95.4681 210.437Z" fill="#164C4F"/>
</g>
</g>
<path d="M476.573 126.399C476.479 125.601 475.928 124.816 474.872 124.206L358.895 57.2416C356.574 55.9012 352.813 55.9012 350.493 57.2416L162.743 165.648C161.583 166.318 161.003 167.196 161.003 168.074V181.293V181.294V181.859H161.096C161.293 182.539 161.833 183.194 162.743 183.719L278.72 250.684C281.04 252.024 284.802 252.024 287.122 250.684L474.872 142.278C476.056 141.594 476.628 140.693 476.602 139.797H476.611V126.399H476.573Z" fill="#256063" fill-opacity="0.9"/>
<path d="M474.866 128.965L287.153 237.35C284.834 238.69 281.073 238.69 278.753 237.35L162.799 170.398C160.479 169.059 160.479 166.887 162.799 165.548L350.511 57.1627C352.831 55.8234 356.592 55.8234 358.912 57.1627L474.866 124.114C477.186 125.454 477.186 127.626 474.866 128.965Z" fill="#164C4F"/>
<mask id="mask8_3329_11792" style="mask-type:alpha" maskUnits="userSpaceOnUse" x="162" y="56" width="301" height="175">
<path d="M459.253 130.668L287.815 229.078C285.496 230.418 284.228 230.418 281.909 229.078L167.004 167.245C164.684 165.906 160.484 166.884 162.804 165.545L350.517 57.1598C352.837 55.8205 352.398 62.908 354.717 64.2473L462.009 126.54C464.329 127.879 461.573 129.329 459.253 130.668Z" fill="#164C4F"/>
</mask>
<g mask="url(#mask8_3329_11792)">
<g opacity="0.2">
<path d="M376.311 76.9473L462.506 126.716C463.491 127.284 463.49 128.207 462.505 128.775L286.641 230.32C285.655 230.888 284.058 230.889 283.074 230.32L264.596 220.157C276.866 206.6 296.91 201.97 297.443 193.673C297.706 189.134 273.716 170.559 282.136 164.676C290.504 158.911 308.222 173.666 317.177 168.307C322.892 164.464 308.738 119.298 327.304 109.802C347.18 99.6389 360.287 119.069 358.515 98.9529C356.735 78.8375 376.311 76.9473 376.311 76.9473Z" fill="white"/>
</g>
<path d="M402.847 105.16C400.283 106.371 394.407 105.815 393.102 107.373C392.74 107.782 392.299 108.207 392.032 108.632C385.834 118.179 394.056 131.293 381.096 141.784C376.54 144.709 377.3 150.107 367.424 156.86C362.565 160.18 346.083 158.009 342.192 160.74C338.712 163.184 336.001 173.705 335.765 179.382C335.56 184.243 318.06 180.226 311.876 184.644C309.65 186.49 314.315 192.939 313.528 195.442C312.216 199.907 308.555 204.927 299.873 209.471C297.514 210.698 294.966 212.208 292.37 214.08C291.914 214.395 291.458 214.741 291.002 215.103C286.755 218.311 282.509 222.51 279.001 227.968L283.075 230.328C284.066 230.894 285.654 230.894 286.645 230.328L302.012 221.456L303.459 220.624V220.607L337.857 200.757L339.32 199.909L373.702 180.059L375.18 179.21V179.194L409.232 159.533L410.696 158.699V158.685L445.094 138.819L446.557 137.985L462.506 128.768C463.496 128.203 463.496 127.29 462.506 126.724L419.567 101.919C415.162 102.013 408.399 102.534 402.847 105.16Z" fill="#8DD8DC"/>
<path d="M322.408 231.958C322.424 231.958 322.408 231.974 322.408 231.974L320.961 232.807L309.95 226.453L278.903 208.522C278.525 208.318 278.4 207.83 278.62 207.453C278.84 207.076 279.312 206.95 279.69 207.17L311.319 225.431L322.125 231.675C322.251 231.738 322.346 231.848 322.408 231.958Z" fill="#F4F9FA"/>
<path d="M280.023 192.801L266.793 200.624L264.251 199.158L277.481 191.334L280.023 192.801Z" fill="#4DA3A7"/>
<path d="M277.897 198.474L270.478 202.752L267.938 201.285L275.355 197.007L277.897 198.474Z" fill="#D3E2E3"/>
<path d="M284.425 210.807C282.834 211.726 280.256 211.726 278.665 210.807L274.176 208.216C272.586 207.297 272.586 205.808 274.176 204.89C275.766 203.972 278.345 203.972 279.935 204.89L284.425 207.482C286.016 208.401 286.016 209.888 284.425 210.807Z" fill="#4DA3A7"/>
<path d="M349.388 205.637L347.925 206.486L313.697 186.826L280.682 167.764C280.305 167.544 280.179 167.072 280.399 166.694C280.604 166.317 281.091 166.191 281.469 166.411L314.908 185.71L349.104 205.338C349.23 205.417 349.325 205.511 349.388 205.637Z" fill="#F4F9FA"/>
<path d="M284.345 165.487C286.011 166.45 286.011 168.009 284.345 168.972C282.678 169.934 279.976 169.934 278.309 168.972C276.643 168.009 276.643 166.45 278.309 165.487C279.976 164.525 282.678 164.525 284.345 165.487Z" fill="#BBCCCD"/>
<path d="M412.189 200.107V200.123L410.711 200.972L353.448 168.577L317.918 148.052C317.54 147.832 317.414 147.359 317.635 146.982C317.855 146.604 318.327 146.479 318.704 146.683L354.895 167.587L411.891 199.824C412.017 199.887 412.111 199.997 412.189 200.107Z" fill="#F4F9FA"/>
<path d="M321.523 145.737C323.19 146.7 323.19 148.259 321.523 149.222C319.857 150.184 317.155 150.184 315.488 149.222C313.822 148.259 313.822 146.7 315.488 145.737C317.155 144.775 319.857 144.775 321.523 145.737Z" fill="#BBCCCD"/>
<path d="M311.463 138.09L302.24 143.415L299.698 141.949L308.922 136.623L311.463 138.09Z" fill="#BBCCCD"/>
<path d="M317.529 138.842L303.54 146.918L301 145.452L314.988 137.375L317.529 138.842Z" fill="#D3E2E3"/>
<path d="M426.432 168.458V168.473L424.969 169.307L372.858 138.408L325.831 111.245C325.453 111.041 325.311 110.553 325.531 110.176C325.751 109.798 326.238 109.672 326.616 109.892L374.211 137.386L426.149 168.175C426.275 168.238 426.369 168.332 426.432 168.458Z" fill="#F4F9FA"/>
<path d="M329.488 109.012C331.155 109.974 331.155 111.534 329.488 112.496C327.821 113.459 325.12 113.459 323.453 112.496C321.787 111.534 321.787 109.974 323.453 109.012C325.12 108.049 327.821 108.049 329.488 109.012Z" fill="#BBCCCD"/>
<path d="M481.478 159.471L480.016 160.305L408.803 118.16L360.831 90.4616C360.454 90.2574 360.327 89.7697 360.548 89.3927C360.753 89.0147 361.24 88.8893 361.617 89.1092L409.747 116.902L481.195 159.188C481.32 159.267 481.415 159.361 481.478 159.471Z" fill="#F4F9FA"/>
<path d="M366.355 92.7475C364.764 93.6663 362.185 93.6663 360.594 92.7475L356.106 90.1561C354.514 89.2374 354.514 87.749 356.106 86.8303C357.696 85.912 360.275 85.912 361.865 86.8303L366.355 89.4227C367.945 90.3409 367.945 91.8288 366.355 92.7475Z" fill="#24A7AF"/>
<path d="M340.291 88.3491L349.514 83.024L346.973 81.5566L337.75 86.8817L340.291 88.3491Z" fill="#24A7AF"/>
<path d="M339.212 93.228L353.2 85.1519L350.659 83.6846L336.671 91.7606L339.212 93.228Z" fill="#D3E2E3"/>
</g>
<path d="M478.033 218.915L454.684 197.784V193.177L446.218 190.123L417.46 253.884L425.926 256.938L427.207 256.198L427.208 287.975V294.346L427.209 317.873L435.675 320.927V312.985L455.887 301.318L468.289 294.157L468.287 224.542L478.033 218.915Z" fill="#36696C"/>
<path d="M454.686 193.176L486.501 221.967L476.754 227.595L476.757 297.21L464.355 304.37L435.677 320.926V320.925L435.676 297.399V291.028L435.674 251.31L425.928 256.937L454.686 193.176Z" fill="#24A7AF"/>
<path d="M236.597 484.322C238.459 485.398 238.464 487.139 236.614 488.215L224.518 495.244C222.667 496.32 219.661 496.322 217.799 495.247L205.619 488.215C203.761 487.142 203.751 485.398 205.602 484.322L217.698 477.294C219.548 476.218 222.559 476.218 224.417 477.29L236.597 484.322Z" fill="#8DD8DC"/>
<path d="M89.268 309.268C92.1345 310.923 92.1429 313.603 89.2943 315.258L70.6773 326.078C67.8291 327.733 63.2023 327.737 60.3353 326.082L41.5891 315.258C38.7294 313.608 38.7147 310.923 41.5629 309.268L60.1799 298.449C63.028 296.794 67.6622 296.794 70.5213 298.445L89.268 309.268Z" fill="#8DD8DC"/>
<path d="M235.905 98.9346C237.768 100.01 237.773 101.751 235.923 102.827L223.827 109.856C221.977 110.931 218.97 110.935 217.108 109.859L204.928 102.827C203.071 101.754 203.061 100.01 204.911 98.9346L217.007 91.9054C218.857 90.8302 221.868 90.8302 223.726 91.9027L235.905 98.9346Z" fill="#8DD8DC"/>
<path d="M436.636 367.05C438.499 368.125 438.504 369.866 436.653 370.942L424.558 377.971C422.707 379.046 419.701 379.049 417.839 377.975L405.659 370.942C403.801 369.869 403.791 368.125 405.642 367.05L417.738 360.021C419.588 358.946 422.599 358.945 424.457 360.018L436.636 367.05Z" fill="#8DD8DC"/>
</g>
</svg>
