<svg width="48" height="48" viewBox="0 0 48 48" fill="none" xmlns="http://www.w3.org/2000/svg">
<path d="M23.9994 14.9091C19.2721 14.9091 15.4176 18.7636 15.4176 23.4909C15.4176 28.1454 19.2721 32 23.9994 32C28.7267 32 32.5812 28.1455 32.5812 23.4182C32.5812 18.7636 28.7267 14.9091 23.9994 14.9091ZM23.9994 30.5455C20.0721 30.5455 16.8721 27.3454 16.8721 23.4182C16.8721 19.4909 20.0721 16.2909 23.9994 16.2909C27.9267 16.2909 31.1267 19.4909 31.1267 23.4182C31.1267 27.3454 27.9267 30.5455 23.9994 30.5455ZM23.4903 13.1636C23.7812 13.4545 24.2176 13.4545 24.5085 13.1636L28.3631 9.30908C28.654 9.01818 28.654 8.58181 28.3631 8.2909C28.0721 7.99999 27.6358 7.99999 27.3449 8.2909L24.7267 10.9091V3.12727C24.7267 2.6909 24.4358 2.39999 23.9994 2.39999C23.5631 2.39999 23.2721 2.6909 23.2721 3.12727V10.9091L20.654 8.2909C20.3631 7.99999 19.9267 7.99999 19.6358 8.2909C19.3449 8.58181 19.3449 9.01818 19.6358 9.30908L23.4903 13.1636ZM44.8721 23.2727H37.0903L39.7085 20.6545C39.9994 20.3636 39.9994 19.9273 39.7085 19.6364C39.4176 19.3454 38.9812 19.3454 38.6903 19.6364L34.8358 23.4909C34.5449 23.7818 34.5449 24.2182 34.8358 24.5091L38.6903 28.3636C38.9812 28.6545 39.4176 28.6545 39.7085 28.3636C39.9994 28.0727 39.9994 27.6364 39.7085 27.3454L37.0903 24.7273H44.8721C45.3085 24.7273 45.5994 24.4364 45.5994 24C45.5994 23.5636 45.2358 23.2727 44.8721 23.2727ZM13.1631 23.4909L9.30851 19.6364C9.0176 19.3454 8.58123 19.3454 8.29032 19.6364C7.99941 19.9273 7.99941 20.3636 8.29032 20.6545L10.9085 23.2727H3.12669C2.69032 23.2727 2.39941 23.5636 2.39941 24C2.39941 24.4364 2.69032 24.7273 3.12669 24.7273H10.9085L8.29032 27.3454C7.99941 27.6364 7.99941 28.0727 8.29032 28.3636C8.58123 28.6545 9.0176 28.6545 9.30851 28.3636L13.1631 24.5091C13.454 24.2182 13.454 23.7818 13.1631 23.4909ZM31.9994 16.7273H37.454C37.8903 16.7273 38.1812 16.4364 38.1812 16C38.1812 15.5636 37.8903 15.2727 37.454 15.2727H33.7449L39.2721 9.74545C39.5631 9.45454 39.5631 9.01818 39.2721 8.72727C38.9812 8.43636 38.5449 8.43636 38.254 8.72727L32.7267 14.2545V10.5454C32.7267 10.1091 32.4358 9.81818 31.9994 9.81818C31.5631 9.81818 31.2721 10.1091 31.2721 10.5454V16C31.2721 16.3636 31.6358 16.7273 31.9994 16.7273ZM14.254 15.2727H10.5449C10.1085 15.2727 9.8176 15.5636 9.8176 16C9.8176 16.4364 10.1085 16.7273 10.5449 16.7273H15.9994C16.4358 16.7273 16.7267 16.3636 16.7267 16V10.5454C16.7267 10.1091 16.4358 9.81818 15.9994 9.81818C15.5631 9.81818 15.2721 10.1091 15.2721 10.5454V14.2545L9.74487 8.72727C9.45396 8.43636 9.0176 8.43636 8.72669 8.72727C8.43578 9.01818 8.43578 9.45454 8.72669 9.74545L14.254 15.2727Z" fill="white"/>
<path d="M48 24C48 10.7636 37.2364 0 24 0C10.7636 0 0 10.7636 0 24C0 37.2364 10.7636 48 24 48C37.2364 48 48 37.2364 48 24ZM11.1273 42.4727C11.4909 37.6727 15.4909 33.9636 20.2909 33.9636H27.6364C32.5091 33.9636 36.4364 37.6727 36.8 42.4727C33.2364 45.0182 28.8 46.5455 24 46.5455C19.2 46.5455 14.7636 45.0182 11.1273 42.4727ZM38.1818 41.5273C37.3818 36.4364 32.9455 32.5818 27.6364 32.5818H20.3636C15.0545 32.5818 10.6909 36.4364 9.81818 41.5273C4.72727 37.3818 1.45455 31.0545 1.45455 24C1.45455 11.5636 11.5636 1.45455 24 1.45455C36.4364 1.45455 46.5455 11.5636 46.5455 24C46.5455 31.0545 43.2727 37.3818 38.1818 41.5273Z" fill="white"/>
</svg>
