<svg width="500" height="560" viewBox="0 0 500 560" fill="none" xmlns="http://www.w3.org/2000/svg">
<rect x="0.5" y="0.5" width="499" height="559" rx="15.5" fill="url(#paint0_linear_2756_18660)" fill-opacity="0.08"/>
<rect x="0.5" y="0.5" width="499" height="559" rx="15.5" stroke="url(#paint1_linear_2756_18660)"/>
<rect x="56.5" y="57.96" width="39" height="39" rx="7.5" fill="url(#paint2_linear_2756_18660)" fill-opacity="0.75"/>
<rect x="56.5" y="57.96" width="39" height="39" rx="7.5" stroke="url(#paint3_linear_2756_18660)"/>
<path d="M77.8332 79.5244V81.4402C77.0035 81.1469 76.1156 81.0569 75.244 81.1778C74.3723 81.2988 73.5424 81.6271 72.824 82.1352C72.1055 82.6434 71.5195 83.3165 71.1151 84.098C70.7107 84.8796 70.4997 85.7467 70.4998 86.6267L68.6665 86.6258C68.6662 85.5064 68.9222 84.4019 69.4148 83.3967C69.9074 82.3916 70.6235 81.5126 71.5084 80.827C72.3932 80.1414 73.4232 79.6675 74.5196 79.4416C75.6159 79.2156 76.7494 79.2436 77.8332 79.5235V79.5244ZM75.9998 78.3767C72.9611 78.3767 70.4998 75.9155 70.4998 72.8767C70.4998 69.838 72.9611 67.3767 75.9998 67.3767C79.0386 67.3767 81.4998 69.838 81.4998 72.8767C81.4998 75.9155 79.0386 78.3767 75.9998 78.3767ZM75.9998 76.5434C78.0257 76.5434 79.6665 74.9025 79.6665 72.8767C79.6665 70.8509 78.0257 69.21 75.9998 69.21C73.974 69.21 72.3332 70.8509 72.3332 72.8767C72.3332 74.9025 73.974 76.5434 75.9998 76.5434ZM83.3332 82.0434H86.0832V83.8767H83.3332V87.085L78.7498 82.96L83.3332 78.835V82.0434Z" fill="#C7DAD9"/>
<path d="M124.688 72.308V83.46H123.232V72.308H124.688ZM136.097 83.46H134.642L128.786 74.58V83.46H127.329V72.292H128.786L134.642 81.156V72.292H136.097V83.46ZM138.195 77.876C138.195 76.788 138.441 75.812 138.931 74.948C139.422 74.0733 140.089 73.3906 140.931 72.9C141.785 72.4093 142.729 72.164 143.764 72.164C144.979 72.164 146.041 72.4573 146.948 73.044C147.854 73.6306 148.516 74.4626 148.932 75.54H147.188C146.878 74.868 146.43 74.3506 145.844 73.988C145.267 73.6253 144.574 73.444 143.764 73.444C142.985 73.444 142.286 73.6253 141.668 73.988C141.049 74.3506 140.563 74.868 140.211 75.54C139.859 76.2013 139.683 76.98 139.683 77.876C139.683 78.7613 139.859 79.54 140.211 80.212C140.563 80.8733 141.049 81.3853 141.668 81.748C142.286 82.1106 142.985 82.292 143.764 82.292C144.574 82.292 145.267 82.116 145.844 81.764C146.43 81.4013 146.878 80.884 147.188 80.212H148.932C148.516 81.2786 147.854 82.1053 146.948 82.692C146.041 83.268 144.979 83.556 143.764 83.556C142.729 83.556 141.785 83.316 140.931 82.836C140.089 82.3453 139.422 81.668 138.931 80.804C138.441 79.94 138.195 78.964 138.195 77.876ZM156.315 83.572C155.28 83.572 154.336 83.332 153.483 82.852C152.63 82.3613 151.952 81.684 151.451 80.82C150.96 79.9453 150.715 78.964 150.715 77.876C150.715 76.788 150.96 75.812 151.451 74.948C151.952 74.0733 152.63 73.396 153.483 72.916C154.336 72.4253 155.28 72.18 156.315 72.18C157.36 72.18 158.31 72.4253 159.163 72.916C160.016 73.396 160.688 74.068 161.179 74.932C161.67 75.796 161.915 76.7773 161.915 77.876C161.915 78.9746 161.67 79.956 161.179 80.82C160.688 81.684 160.016 82.3613 159.163 82.852C158.31 83.332 157.36 83.572 156.315 83.572ZM156.315 82.308C157.094 82.308 157.792 82.1266 158.411 81.764C159.04 81.4013 159.531 80.884 159.883 80.212C160.246 79.54 160.427 78.7613 160.427 77.876C160.427 76.98 160.246 76.2013 159.883 75.54C159.531 74.868 159.046 74.3506 158.427 73.988C157.808 73.6253 157.104 73.444 156.315 73.444C155.526 73.444 154.822 73.6253 154.203 73.988C153.584 74.3506 153.094 74.868 152.731 75.54C152.379 76.2013 152.203 76.98 152.203 77.876C152.203 78.7613 152.379 79.54 152.731 80.212C153.094 80.884 153.584 81.4013 154.203 81.764C154.832 82.1266 155.536 82.308 156.315 82.308ZM175.309 72.388V83.46H173.853V75.204L170.173 83.46H169.149L165.453 75.188V83.46H163.997V72.388H165.565L169.661 81.54L173.757 72.388H175.309ZM179.394 73.492V77.22H183.458V78.42H179.394V82.26H183.938V83.46H177.938V72.292H183.938V73.492H179.394ZM197.319 80.98H192.455L191.559 83.46H190.023L194.055 72.372H195.735L199.751 83.46H198.215L197.319 80.98ZM196.903 79.796L194.887 74.164L192.871 79.796H196.903ZM210.436 83.46H208.98L203.124 74.58V83.46H201.668V72.292H203.124L208.98 81.156V72.292H210.436V83.46ZM216.55 72.308C217.766 72.308 218.817 72.5373 219.702 72.996C220.598 73.444 221.281 74.0893 221.75 74.932C222.23 75.7746 222.47 76.7666 222.47 77.908C222.47 79.0493 222.23 80.0413 221.75 80.884C221.281 81.716 220.598 82.356 219.702 82.804C218.817 83.2413 217.766 83.46 216.55 83.46H213.078V72.308H216.55ZM216.55 82.26C217.99 82.26 219.089 81.8813 219.846 81.124C220.604 80.356 220.982 79.284 220.982 77.908C220.982 76.5213 220.598 75.4386 219.83 74.66C219.073 73.8813 217.98 73.492 216.55 73.492H214.534V82.26H216.55ZM230.432 73.492V77.22H234.496V78.42H230.432V82.26H234.976V83.46H228.976V72.292H234.976V73.492H230.432ZM241.899 77.892L245.323 83.46H243.675L241.003 79.108L238.459 83.46H236.843L240.251 77.892L236.827 72.308H238.459L241.147 76.676L243.707 72.308H245.339L241.899 77.892ZM254.893 75.572C254.893 76.5 254.573 77.2733 253.933 77.892C253.304 78.5 252.338 78.804 251.037 78.804H248.893V83.46H247.437V72.308H251.037C252.296 72.308 253.25 72.612 253.901 73.22C254.562 73.828 254.893 74.612 254.893 75.572ZM251.037 77.604C251.848 77.604 252.445 77.428 252.829 77.076C253.213 76.724 253.405 76.2226 253.405 75.572C253.405 74.196 252.616 73.508 251.037 73.508H248.893V77.604H251.037ZM258.319 73.492V77.22H262.383V78.42H258.319V82.26H262.863V83.46H256.863V72.292H262.863V73.492H258.319ZM273.994 83.46H272.538L266.682 74.58V83.46H265.226V72.292H266.682L272.538 81.156V72.292H273.994V83.46ZM280.172 83.572C279.436 83.572 278.774 83.444 278.188 83.188C277.612 82.9213 277.158 82.5586 276.828 82.1C276.497 81.6306 276.326 81.092 276.316 80.484H277.868C277.921 81.0066 278.134 81.4493 278.508 81.812C278.892 82.164 279.446 82.34 280.172 82.34C280.865 82.34 281.409 82.1693 281.804 81.828C282.209 81.476 282.412 81.028 282.412 80.484C282.412 80.0573 282.294 79.7106 282.06 79.444C281.825 79.1773 281.532 78.9746 281.18 78.836C280.828 78.6973 280.353 78.548 279.756 78.388C279.02 78.196 278.428 78.004 277.98 77.812C277.542 77.62 277.164 77.3213 276.844 76.916C276.534 76.5 276.38 75.9453 276.38 75.252C276.38 74.644 276.534 74.1053 276.844 73.636C277.153 73.1666 277.585 72.804 278.14 72.548C278.705 72.292 279.35 72.164 280.076 72.164C281.121 72.164 281.974 72.4253 282.636 72.948C283.308 73.4706 283.686 74.164 283.772 75.028H282.172C282.118 74.6013 281.894 74.228 281.5 73.908C281.105 73.5773 280.582 73.412 279.932 73.412C279.324 73.412 278.828 73.572 278.444 73.892C278.06 74.2013 277.868 74.6386 277.868 75.204C277.868 75.6093 277.98 75.94 278.204 76.196C278.438 76.452 278.721 76.6493 279.052 76.788C279.393 76.916 279.868 77.0653 280.476 77.236C281.212 77.4386 281.804 77.6413 282.252 77.844C282.7 78.036 283.084 78.34 283.404 78.756C283.724 79.1613 283.884 79.716 283.884 80.42C283.884 80.964 283.74 81.476 283.452 81.956C283.164 82.436 282.737 82.8253 282.172 83.124C281.606 83.4226 280.94 83.572 280.172 83.572ZM287.642 73.492V77.22H291.706V78.42H287.642V82.26H292.186V83.46H286.186V72.292H292.186V73.492H287.642ZM298.086 83.572C297.35 83.572 296.688 83.444 296.102 83.188C295.526 82.9213 295.072 82.5586 294.742 82.1C294.411 81.6306 294.24 81.092 294.23 80.484H295.782C295.835 81.0066 296.048 81.4493 296.422 81.812C296.806 82.164 297.36 82.34 298.086 82.34C298.779 82.34 299.323 82.1693 299.718 81.828C300.123 81.476 300.326 81.028 300.326 80.484C300.326 80.0573 300.208 79.7106 299.974 79.444C299.739 79.1773 299.446 78.9746 299.094 78.836C298.742 78.6973 298.267 78.548 297.67 78.388C296.934 78.196 296.342 78.004 295.894 77.812C295.456 77.62 295.078 77.3213 294.758 76.916C294.448 76.5 294.294 75.9453 294.294 75.252C294.294 74.644 294.448 74.1053 294.758 73.636C295.067 73.1666 295.499 72.804 296.054 72.548C296.619 72.292 297.264 72.164 297.99 72.164C299.035 72.164 299.888 72.4253 300.55 72.948C301.222 73.4706 301.6 74.164 301.686 75.028H300.086C300.032 74.6013 299.808 74.228 299.414 73.908C299.019 73.5773 298.496 73.412 297.846 73.412C297.238 73.412 296.742 73.572 296.358 73.892C295.974 74.2013 295.782 74.6386 295.782 75.204C295.782 75.6093 295.894 75.94 296.118 76.196C296.352 76.452 296.635 76.6493 296.966 76.788C297.307 76.916 297.782 77.0653 298.39 77.236C299.126 77.4386 299.718 77.6413 300.166 77.844C300.614 78.036 300.998 78.34 301.318 78.756C301.638 79.1613 301.798 79.716 301.798 80.42C301.798 80.964 301.654 81.476 301.366 81.956C301.078 82.436 300.651 82.8253 300.086 83.124C299.52 83.4226 298.854 83.572 298.086 83.572ZM315.39 72.308V73.492H312.35V83.46H310.894V73.492H307.838V72.308H315.39ZM323.214 83.46L320.558 78.9H318.798V83.46H317.342V72.308H320.942C321.785 72.308 322.494 72.452 323.07 72.74C323.657 73.028 324.094 73.4173 324.382 73.908C324.67 74.3986 324.814 74.9586 324.814 75.588C324.814 76.356 324.59 77.0333 324.142 77.62C323.705 78.2066 323.043 78.596 322.158 78.788L324.958 83.46H323.214ZM318.798 77.732H320.942C321.731 77.732 322.323 77.54 322.718 77.156C323.113 76.7613 323.31 76.2386 323.31 75.588C323.31 74.9266 323.113 74.4146 322.718 74.052C322.334 73.6893 321.742 73.508 320.942 73.508H318.798V77.732ZM333.828 80.98H328.964L328.068 83.46H326.532L330.564 72.372H332.244L336.26 83.46H334.724L333.828 80.98ZM333.412 79.796L331.396 74.164L329.38 79.796H333.412ZM337.634 77.876C337.634 76.788 337.879 75.812 338.37 74.948C338.86 74.0733 339.527 73.3906 340.37 72.9C341.223 72.4093 342.167 72.164 343.202 72.164C344.418 72.164 345.479 72.4573 346.386 73.044C347.292 73.6306 347.954 74.4626 348.37 75.54H346.626C346.316 74.868 345.868 74.3506 345.282 73.988C344.706 73.6253 344.012 73.444 343.202 73.444C342.423 73.444 341.724 73.6253 341.106 73.988C340.487 74.3506 340.002 74.868 339.65 75.54C339.298 76.2013 339.122 76.98 339.122 77.876C339.122 78.7613 339.298 79.54 339.65 80.212C340.002 80.8733 340.487 81.3853 341.106 81.748C341.724 82.1106 342.423 82.292 343.202 82.292C344.012 82.292 344.706 82.116 345.282 81.764C345.868 81.4013 346.316 80.884 346.626 80.212H348.37C347.954 81.2786 347.292 82.1053 346.386 82.692C345.479 83.268 344.418 83.556 343.202 83.556C342.167 83.556 341.223 83.316 340.37 82.836C339.527 82.3453 338.86 81.668 338.37 80.804C337.879 79.94 337.634 78.964 337.634 77.876ZM356.745 83.46L352.153 78.372V83.46H350.697V72.308H352.153V77.476L356.761 72.308H358.601L353.545 77.892L358.649 83.46H356.745ZM361.891 73.492V77.22H365.955V78.42H361.891V82.26H366.435V83.46H360.435V72.292H366.435V73.492H361.891ZM374.67 83.46L372.014 78.9H370.254V83.46H368.798V72.308H372.398C373.241 72.308 373.95 72.452 374.526 72.74C375.113 73.028 375.55 73.4173 375.838 73.908C376.126 74.3986 376.27 74.9586 376.27 75.588C376.27 76.356 376.046 77.0333 375.598 77.62C375.161 78.2066 374.5 78.596 373.614 78.788L376.414 83.46H374.67ZM370.254 77.732H372.398C373.188 77.732 373.78 77.54 374.174 77.156C374.569 76.7613 374.766 76.2386 374.766 75.588C374.766 74.9266 374.569 74.4146 374.174 74.052C373.79 73.6893 373.198 73.508 372.398 73.508H370.254V77.732Z" fill="#E4F1F2"/>
<rect x="404.5" y="57.96" width="39" height="39" rx="7.5" fill="url(#paint4_linear_2756_18660)" fill-opacity="0.75"/>
<rect x="404.5" y="57.96" width="39" height="39" rx="7.5" stroke="url(#paint5_linear_2756_18660)"/>
<path d="M425.833 79.5244V81.4402C425.004 81.1469 424.116 81.0569 423.244 81.1778C422.372 81.2988 421.542 81.6271 420.824 82.1352C420.106 82.6434 419.519 83.3165 419.115 84.098C418.711 84.8796 418.5 85.7467 418.5 86.6267L416.667 86.6258C416.666 85.5064 416.922 84.4019 417.415 83.3967C417.907 82.3916 418.624 81.5126 419.508 80.827C420.393 80.1414 421.423 79.6675 422.52 79.4416C423.616 79.2156 424.749 79.2436 425.833 79.5235V79.5244ZM424 78.3767C420.961 78.3767 418.5 75.9155 418.5 72.8767C418.5 69.838 420.961 67.3767 424 67.3767C427.039 67.3767 429.5 69.838 429.5 72.8767C429.5 75.9155 427.039 78.3767 424 78.3767ZM424 76.5434C426.026 76.5434 427.667 74.9025 427.667 72.8767C427.667 70.8509 426.026 69.21 424 69.21C421.974 69.21 420.333 70.8509 420.333 72.8767C420.333 74.9025 421.974 76.5434 424 76.5434ZM429.5 82.0434V78.835L434.083 82.96L429.5 87.085V83.8767H426.75V82.0434H429.5Z" fill="#C7DAD9"/>
<rect x="40" y="133.46" width="420" height="57" rx="8" fill="#D6CA8A" fill-opacity="0.24"/>
<path d="M62.848 156.808V165.048C62.848 165.965 62.5653 166.701 62 167.256C61.4347 167.8 60.688 168.072 59.76 168.072C58.8213 168.072 58.0693 167.795 57.504 167.24C56.9387 166.675 56.656 165.907 56.656 164.936H58.112C58.1227 165.48 58.2613 165.923 58.528 166.264C58.8053 166.605 59.216 166.776 59.76 166.776C60.304 166.776 60.7093 166.616 60.976 166.296C61.2427 165.965 61.376 165.549 61.376 165.048V156.808H62.848ZM65.3324 163.544C65.3324 162.648 65.5137 161.864 65.8764 161.192C66.239 160.509 66.735 159.981 67.3644 159.608C68.0044 159.235 68.7137 159.048 69.4924 159.048C70.2604 159.048 70.927 159.213 71.4924 159.544C72.0577 159.875 72.479 160.291 72.7564 160.792V159.192H74.2284V167.96H72.7564V166.328C72.4684 166.84 72.0364 167.267 71.4604 167.608C70.895 167.939 70.2337 168.104 69.4764 168.104C68.6977 168.104 67.9937 167.912 67.3644 167.528C66.735 167.144 66.239 166.605 65.8764 165.912C65.5137 165.219 65.3324 164.429 65.3324 163.544ZM72.7564 163.56C72.7564 162.899 72.623 162.323 72.3564 161.832C72.0897 161.341 71.727 160.968 71.2684 160.712C70.8204 160.445 70.3244 160.312 69.7804 160.312C69.2364 160.312 68.7404 160.44 68.2924 160.696C67.8444 160.952 67.487 161.325 67.2204 161.816C66.9537 162.307 66.8204 162.883 66.8204 163.544C66.8204 164.216 66.9537 164.803 67.2204 165.304C67.487 165.795 67.8444 166.173 68.2924 166.44C68.7404 166.696 69.2364 166.824 69.7804 166.824C70.3244 166.824 70.8204 166.696 71.2684 166.44C71.727 166.173 72.0897 165.795 72.3564 165.304C72.623 164.803 72.7564 164.221 72.7564 163.56ZM81.1209 159.032C82.1875 159.032 83.0515 159.357 83.7129 160.008C84.3742 160.648 84.7049 161.576 84.7049 162.792V167.96H83.2649V163C83.2649 162.125 83.0462 161.459 82.6089 161C82.1715 160.531 81.5742 160.296 80.8169 160.296C80.0489 160.296 79.4355 160.536 78.9769 161.016C78.5289 161.496 78.3049 162.195 78.3049 163.112V167.96H76.8489V159.192H78.3049V160.44C78.5929 159.992 78.9822 159.645 79.4729 159.4C79.9742 159.155 80.5235 159.032 81.1209 159.032ZM91.2529 166.792C92.6075 165.704 93.6689 164.813 94.4369 164.12C95.2049 163.416 95.8502 162.685 96.3729 161.928C96.9062 161.16 97.1729 160.408 97.1729 159.672C97.1729 158.979 97.0022 158.435 96.6609 158.04C96.3302 157.635 95.7915 157.432 95.0449 157.432C94.3195 157.432 93.7542 157.661 93.3489 158.12C92.9542 158.568 92.7409 159.171 92.7089 159.928H91.3009C91.3435 158.733 91.7062 157.811 92.3889 157.16C93.0715 156.509 93.9515 156.184 95.0289 156.184C96.1275 156.184 96.9969 156.488 97.6369 157.096C98.2875 157.704 98.6129 158.541 98.6129 159.608C98.6129 160.493 98.3462 161.357 97.8129 162.2C97.2902 163.032 96.6929 163.768 96.0209 164.408C95.3489 165.037 94.4902 165.773 93.4449 166.616H98.9489V167.832H91.2529V166.792ZM100.792 162.056C100.792 160.221 101.091 158.792 101.688 157.768C102.285 156.733 103.331 156.216 104.824 156.216C106.307 156.216 107.347 156.733 107.944 157.768C108.541 158.792 108.84 160.221 108.84 162.056C108.84 163.923 108.541 165.373 107.944 166.408C107.347 167.443 106.307 167.96 104.824 167.96C103.331 167.96 102.285 167.443 101.688 166.408C101.091 165.373 100.792 163.923 100.792 162.056ZM107.4 162.056C107.4 161.128 107.336 160.344 107.208 159.704C107.091 159.053 106.84 158.531 106.456 158.136C106.083 157.741 105.539 157.544 104.824 157.544C104.099 157.544 103.544 157.741 103.16 158.136C102.787 158.531 102.536 159.053 102.408 159.704C102.291 160.344 102.232 161.128 102.232 162.056C102.232 163.016 102.291 163.821 102.408 164.472C102.536 165.123 102.787 165.645 103.16 166.04C103.544 166.435 104.099 166.632 104.824 166.632C105.539 166.632 106.083 166.435 106.456 166.04C106.84 165.645 107.091 165.123 107.208 164.472C107.336 163.821 107.4 163.016 107.4 162.056ZM110.823 166.792C112.178 165.704 113.239 164.813 114.007 164.12C114.775 163.416 115.42 162.685 115.943 161.928C116.476 161.16 116.743 160.408 116.743 159.672C116.743 158.979 116.572 158.435 116.231 158.04C115.9 157.635 115.362 157.432 114.615 157.432C113.89 157.432 113.324 157.661 112.919 158.12C112.524 158.568 112.311 159.171 112.279 159.928H110.871C110.914 158.733 111.276 157.811 111.959 157.16C112.642 156.509 113.522 156.184 114.599 156.184C115.698 156.184 116.567 156.488 117.207 157.096C117.858 157.704 118.183 158.541 118.183 159.608C118.183 160.493 117.916 161.357 117.383 162.2C116.86 163.032 116.263 163.768 115.591 164.408C114.919 165.037 114.06 165.773 113.015 166.616H118.519V167.832H110.823V166.792ZM127.738 157.656H122.122V161.304C122.367 160.963 122.73 160.685 123.21 160.472C123.69 160.248 124.207 160.136 124.762 160.136C125.647 160.136 126.367 160.323 126.922 160.696C127.477 161.059 127.871 161.533 128.106 162.12C128.351 162.696 128.474 163.309 128.474 163.96C128.474 164.728 128.33 165.416 128.042 166.024C127.754 166.632 127.311 167.112 126.714 167.464C126.127 167.816 125.397 167.992 124.522 167.992C123.402 167.992 122.495 167.704 121.802 167.128C121.109 166.552 120.687 165.784 120.538 164.824H121.962C122.101 165.432 122.394 165.907 122.842 166.248C123.29 166.589 123.855 166.76 124.538 166.76C125.381 166.76 126.015 166.509 126.442 166.008C126.869 165.496 127.082 164.824 127.082 163.992C127.082 163.16 126.869 162.52 126.442 162.072C126.015 161.613 125.386 161.384 124.554 161.384C123.989 161.384 123.493 161.523 123.066 161.8C122.65 162.067 122.346 162.435 122.154 162.904H120.778V156.376H127.738V157.656Z" fill="#EFEAD0"/>
<mask id="path-10-inside-1_2756_18660" fill="white">
<path d="M143.997 163.925L149.212 159.085C149.392 158.918 149.685 158.918 149.865 159.085C150.045 159.253 150.045 159.524 149.865 159.691L144.324 164.834C144.143 165.002 143.851 165.002 143.671 164.834L138.13 159.691C137.952 159.521 137.958 159.25 138.141 159.085C138.32 158.925 138.604 158.925 138.783 159.085L143.997 163.925Z"/>
</mask>
<path d="M143.997 163.925L149.212 159.085C149.392 158.918 149.685 158.918 149.865 159.085C150.045 159.253 150.045 159.524 149.865 159.691L144.324 164.834C144.143 165.002 143.851 165.002 143.671 164.834L138.13 159.691C137.952 159.521 137.958 159.25 138.141 159.085C138.32 158.925 138.604 158.925 138.783 159.085L143.997 163.925Z" fill="#97B4D9"/>
<path d="M143.997 163.925L143.317 164.658L143.997 165.29L144.678 164.658L143.997 163.925ZM149.212 159.085L148.532 158.352L148.532 158.353L149.212 159.085ZM149.865 159.085L150.545 158.353L150.545 158.352L149.865 159.085ZM149.865 159.691L150.545 160.424L150.545 160.424L149.865 159.691ZM144.324 164.834L145.004 165.568L145.004 165.567L144.324 164.834ZM143.671 164.834L142.99 165.567L142.991 165.568L143.671 164.834ZM138.13 159.691L137.437 160.412L137.443 160.419L137.449 160.424L138.13 159.691ZM138.141 159.085L137.474 158.341L137.474 158.341L138.141 159.085ZM138.783 159.085L139.463 158.353L139.456 158.347L139.45 158.341L138.783 159.085ZM144.678 164.658L149.892 159.818L148.532 158.353L143.317 163.193L144.678 164.658ZM149.892 159.818C149.783 159.92 149.652 159.96 149.538 159.96C149.425 159.96 149.294 159.92 149.185 159.818L150.545 158.352C149.981 157.829 149.096 157.829 148.532 158.352L149.892 159.818ZM149.184 159.818C148.939 159.59 148.938 159.187 149.184 158.959L150.545 160.424C151.152 159.861 151.152 158.916 150.545 158.353L149.184 159.818ZM149.185 158.959L143.643 164.102L145.004 165.567L150.545 160.424L149.185 158.959ZM143.644 164.101C143.753 164 143.884 163.96 143.997 163.96C144.111 163.96 144.242 164 144.351 164.101L142.991 165.568C143.554 166.091 144.44 166.091 145.004 165.568L143.644 164.101ZM144.351 164.102L138.81 158.959L137.449 160.424L142.99 165.567L144.351 164.102ZM138.823 158.97C139.067 159.205 139.056 159.608 138.808 159.83L137.474 158.341C136.859 158.892 136.838 159.837 137.437 160.412L138.823 158.97ZM138.808 159.83C138.608 160.01 138.316 160.01 138.115 159.83L139.45 158.341C138.891 157.84 138.032 157.84 137.474 158.341L138.808 159.83ZM138.102 159.818L143.317 164.658L144.678 163.193L139.463 158.353L138.102 159.818Z" fill="white" mask="url(#path-10-inside-1_2756_18660)"/>
<rect x="316" y="149.96" width="26" height="24" rx="6" fill="#D6CA8A" fill-opacity="0.04"/>
<path d="M322.583 158.962H324.99C325.118 159.478 325.41 159.935 325.819 160.262C326.229 160.588 326.732 160.766 327.25 160.766C327.768 160.766 328.271 160.588 328.681 160.262C329.09 159.935 329.382 159.478 329.51 158.962H335.417C335.571 158.962 335.72 158.899 335.829 158.787C335.939 158.674 336 158.522 336 158.363C336 158.204 335.939 158.051 335.829 157.939C335.72 157.826 335.571 157.763 335.417 157.763H329.51C329.382 157.247 329.09 156.79 328.681 156.464C328.271 156.137 327.768 155.96 327.25 155.96C326.732 155.96 326.229 156.137 325.819 156.464C325.41 156.79 325.118 157.247 324.99 157.763H322.583C322.429 157.763 322.28 157.826 322.171 157.939C322.061 158.051 322 158.204 322 158.363C322 158.522 322.061 158.674 322.171 158.787C322.28 158.899 322.429 158.962 322.583 158.962ZM327.25 157.164C327.481 157.164 327.706 157.234 327.898 157.366C328.09 157.498 328.24 157.685 328.328 157.904C328.416 158.123 328.439 158.364 328.394 158.597C328.349 158.829 328.238 159.043 328.075 159.211C327.912 159.378 327.704 159.493 327.478 159.539C327.251 159.585 327.017 159.561 326.804 159.471C326.59 159.38 326.408 159.226 326.28 159.029C326.152 158.832 326.083 158.6 326.083 158.363C326.083 158.045 326.206 157.74 326.425 157.515C326.644 157.29 326.941 157.164 327.25 157.164ZM335.417 164.958H334.177C334.049 164.442 333.757 163.985 333.347 163.658C332.938 163.332 332.435 163.154 331.917 163.154C331.399 163.154 330.895 163.332 330.486 163.658C330.077 163.985 329.785 164.442 329.656 164.958H322.583C322.429 164.958 322.28 165.021 322.171 165.133C322.061 165.246 322 165.398 322 165.557C322 165.716 322.061 165.869 322.171 165.981C322.28 166.094 322.429 166.157 322.583 166.157H329.656C329.785 166.673 330.077 167.13 330.486 167.456C330.895 167.783 331.399 167.96 331.917 167.96C332.435 167.96 332.938 167.783 333.347 167.456C333.757 167.13 334.049 166.673 334.177 166.157H335.417C335.571 166.157 335.72 166.094 335.829 165.981C335.939 165.869 336 165.716 336 165.557C336 165.398 335.939 165.246 335.829 165.133C335.72 165.021 335.571 164.958 335.417 164.958ZM331.917 166.756C331.686 166.756 331.46 166.686 331.269 166.554C331.077 166.422 330.927 166.235 330.839 166.016C330.751 165.797 330.727 165.556 330.772 165.323C330.817 165.091 330.929 164.877 331.092 164.709C331.255 164.542 331.463 164.427 331.689 164.381C331.915 164.335 332.15 164.359 332.363 164.449C332.576 164.54 332.759 164.694 332.887 164.891C333.015 165.088 333.083 165.32 333.083 165.557C333.083 165.875 332.96 166.18 332.742 166.405C332.523 166.63 332.226 166.756 331.917 166.756Z" fill="#EFEAD0"/>
<rect x="358" y="149.46" width="86" height="25" rx="6" fill="#D6CA8A" fill-opacity="0.04"/>
<path d="M374.088 158.12L370.956 166.46H369.372L366.228 158.12H367.692L370.164 165.056L372.648 158.12H374.088ZM376.048 158.972C375.8 158.972 375.592 158.888 375.424 158.72C375.256 158.552 375.172 158.344 375.172 158.096C375.172 157.848 375.256 157.64 375.424 157.472C375.592 157.304 375.8 157.22 376.048 157.22C376.288 157.22 376.492 157.304 376.66 157.472C376.828 157.64 376.912 157.848 376.912 158.096C376.912 158.344 376.828 158.552 376.66 158.72C376.492 158.888 376.288 158.972 376.048 158.972ZM376.72 159.848V166.46H375.352V159.848H376.72ZM384.696 162.992C384.696 163.24 384.68 163.464 384.648 163.664H379.596C379.636 164.192 379.832 164.616 380.184 164.936C380.536 165.256 380.968 165.416 381.48 165.416C382.216 165.416 382.736 165.108 383.04 164.492H384.516C384.316 165.1 383.952 165.6 383.424 165.992C382.904 166.376 382.256 166.568 381.48 166.568C380.848 166.568 380.28 166.428 379.776 166.148C379.28 165.86 378.888 165.46 378.6 164.948C378.32 164.428 378.18 163.828 378.18 163.148C378.18 162.468 378.316 161.872 378.588 161.36C378.868 160.84 379.256 160.44 379.752 160.16C380.256 159.88 380.832 159.74 381.48 159.74C382.104 159.74 382.66 159.876 383.148 160.148C383.636 160.42 384.016 160.804 384.288 161.3C384.56 161.788 384.696 162.352 384.696 162.992ZM383.268 162.56C383.26 162.056 383.08 161.652 382.728 161.348C382.376 161.044 381.94 160.892 381.42 160.892C380.948 160.892 380.544 161.044 380.208 161.348C379.872 161.644 379.672 162.048 379.608 162.56H383.268ZM395.042 159.848L392.99 166.46H391.55L390.218 161.576L388.886 166.46H387.446L385.382 159.848H386.774L388.154 165.164L389.558 159.848H390.986L392.33 165.14L393.698 159.848H395.042ZM398.966 163.124C398.966 162.46 399.102 161.872 399.374 161.36C399.654 160.848 400.03 160.452 400.502 160.172C400.982 159.884 401.51 159.74 402.086 159.74C402.606 159.74 403.058 159.844 403.442 160.052C403.834 160.252 404.146 160.504 404.378 160.808V159.848H405.758V166.46H404.378V165.476C404.146 165.788 403.83 166.048 403.43 166.256C403.03 166.464 402.574 166.568 402.062 166.568C401.494 166.568 400.974 166.424 400.502 166.136C400.03 165.84 399.654 165.432 399.374 164.912C399.102 164.384 398.966 163.788 398.966 163.124ZM404.378 163.148C404.378 162.692 404.282 162.296 404.09 161.96C403.906 161.624 403.662 161.368 403.358 161.192C403.054 161.016 402.726 160.928 402.374 160.928C402.022 160.928 401.694 161.016 401.39 161.192C401.086 161.36 400.838 161.612 400.646 161.948C400.462 162.276 400.37 162.668 400.37 163.124C400.37 163.58 400.462 163.98 400.646 164.324C400.838 164.668 401.086 164.932 401.39 165.116C401.702 165.292 402.03 165.38 402.374 165.38C402.726 165.38 403.054 165.292 403.358 165.116C403.662 164.94 403.906 164.684 404.09 164.348C404.282 164.004 404.378 163.604 404.378 163.148ZM409.043 157.58V166.46H407.675V157.58H409.043ZM412.327 157.58V166.46H410.959V157.58H412.327Z" fill="#EFEAD0"/>
<path d="M432.651 161.189L427.957 157.051L429.194 155.96L436 161.96L429.194 167.96L427.957 166.869L432.651 162.731H422V161.189H432.651Z" fill="#EFEAD0"/>
<mask id="path-17-inside-2_2756_18660" fill="white">
<path d="M40 220.46C40 214.937 44.4772 210.46 50 210.46H450C455.523 210.46 460 214.937 460 220.46V264.46C460 269.983 455.523 274.46 450 274.46H50C44.4772 274.46 40 269.983 40 264.46V220.46Z"/>
</mask>
<path d="M40 220.46C40 214.937 44.4772 210.46 50 210.46H450C455.523 210.46 460 214.937 460 220.46V264.46C460 269.983 455.523 274.46 450 274.46H50C44.4772 274.46 40 269.983 40 264.46V220.46Z" fill="#EFEAD0" fill-opacity="0.08"/>
<path d="M40 210.46H460H40ZM460 264.46C460 270.535 455.075 275.46 449 275.46H51C44.9249 275.46 40 270.535 40 264.46C40 269.431 44.4772 273.46 50 273.46H450C455.523 273.46 460 269.431 460 264.46ZM40 274.46V210.46V274.46ZM460 210.46V274.46V210.46Z" fill="#EFEAD0" fill-opacity="0.48" mask="url(#path-17-inside-2_2756_18660)"/>
<rect x="52" y="222.46" width="40" height="40" rx="6" fill="url(#paint6_linear_2756_18660)" fill-opacity="0.5"/>
<path d="M71.6555 238.08C70.8525 238.08 69.6095 237.167 68.3005 237.2C66.5735 237.222 64.9895 238.201 64.0985 239.752C62.3055 242.865 63.6365 247.463 65.3855 249.993C66.2435 251.225 67.2555 252.611 68.5975 252.567C69.8845 252.512 70.3685 251.731 71.9305 251.731C73.4815 251.731 73.9215 252.567 75.2855 252.534C76.6715 252.512 77.5515 251.28 78.3985 250.037C79.3775 248.607 79.7845 247.221 79.8065 247.144C79.7735 247.133 77.1115 246.11 77.0785 243.03C77.0565 240.456 79.1795 239.224 79.2785 239.169C78.0685 237.398 76.2095 237.2 75.5605 237.156C73.8665 237.024 72.4475 238.08 71.6555 238.08ZM74.5155 235.484C75.2305 234.626 75.7035 233.427 75.5715 232.239C74.5485 232.283 73.3165 232.921 72.5795 233.779C71.9195 234.538 71.3475 235.759 71.5015 236.925C72.6345 237.013 73.8005 236.342 74.5155 235.484Z" fill="white"/>
<path d="M115.824 237.48H110.96L110.064 239.96H108.528L112.56 228.872H114.24L118.256 239.96H116.72L115.824 237.48ZM115.408 236.296L113.392 230.664L111.376 236.296H115.408ZM121.469 232.808C121.757 232.307 122.184 231.891 122.749 231.56C123.325 231.219 123.992 231.048 124.749 231.048C125.528 231.048 126.232 231.235 126.861 231.608C127.501 231.981 128.003 232.509 128.365 233.192C128.728 233.864 128.909 234.648 128.909 235.544C128.909 236.429 128.728 237.219 128.365 237.912C128.003 238.605 127.501 239.144 126.861 239.528C126.232 239.912 125.528 240.104 124.749 240.104C124.003 240.104 123.341 239.939 122.765 239.608C122.2 239.267 121.768 238.845 121.469 238.344V244.12H120.013V231.192H121.469V232.808ZM127.421 235.544C127.421 234.883 127.288 234.307 127.021 233.816C126.755 233.325 126.392 232.952 125.933 232.696C125.485 232.44 124.989 232.312 124.445 232.312C123.912 232.312 123.416 232.445 122.957 232.712C122.509 232.968 122.147 233.347 121.869 233.848C121.603 234.339 121.469 234.909 121.469 235.56C121.469 236.221 121.603 236.803 121.869 237.304C122.147 237.795 122.509 238.173 122.957 238.44C123.416 238.696 123.912 238.824 124.445 238.824C124.989 238.824 125.485 238.696 125.933 238.44C126.392 238.173 126.755 237.795 127.021 237.304C127.288 236.803 127.421 236.216 127.421 235.544ZM132.282 232.808C132.57 232.307 132.996 231.891 133.562 231.56C134.138 231.219 134.804 231.048 135.562 231.048C136.34 231.048 137.044 231.235 137.674 231.608C138.314 231.981 138.815 232.509 139.178 233.192C139.54 233.864 139.722 234.648 139.722 235.544C139.722 236.429 139.54 237.219 139.178 237.912C138.815 238.605 138.314 239.144 137.674 239.528C137.044 239.912 136.34 240.104 135.562 240.104C134.815 240.104 134.154 239.939 133.578 239.608C133.012 239.267 132.58 238.845 132.282 238.344V244.12H130.826V231.192H132.282V232.808ZM138.234 235.544C138.234 234.883 138.1 234.307 137.834 233.816C137.567 233.325 137.204 232.952 136.746 232.696C136.298 232.44 135.802 232.312 135.258 232.312C134.724 232.312 134.228 232.445 133.77 232.712C133.322 232.968 132.959 233.347 132.682 233.848C132.415 234.339 132.282 234.909 132.282 235.56C132.282 236.221 132.415 236.803 132.682 237.304C132.959 237.795 133.322 238.173 133.77 238.44C134.228 238.696 134.724 238.824 135.258 238.824C135.802 238.824 136.298 238.696 136.746 238.44C137.204 238.173 137.567 237.795 137.834 237.304C138.1 236.803 138.234 236.216 138.234 235.544ZM143.094 228.12V239.96H141.638V228.12H143.094ZM153.576 235.24C153.576 235.517 153.56 235.811 153.528 236.12H146.52C146.573 236.984 146.866 237.661 147.4 238.152C147.944 238.632 148.6 238.872 149.368 238.872C149.997 238.872 150.52 238.728 150.936 238.44C151.362 238.141 151.661 237.747 151.832 237.256H153.4C153.165 238.099 152.696 238.787 151.992 239.32C151.288 239.843 150.413 240.104 149.368 240.104C148.536 240.104 147.789 239.917 147.128 239.544C146.477 239.171 145.965 238.643 145.592 237.96C145.218 237.267 145.032 236.467 145.032 235.56C145.032 234.653 145.213 233.859 145.576 233.176C145.938 232.493 146.445 231.971 147.096 231.608C147.757 231.235 148.514 231.048 149.368 231.048C150.2 231.048 150.936 231.229 151.576 231.592C152.216 231.955 152.706 232.456 153.048 233.096C153.4 233.725 153.576 234.44 153.576 235.24ZM152.072 234.936C152.072 234.381 151.949 233.907 151.704 233.512C151.458 233.107 151.122 232.803 150.696 232.6C150.28 232.387 149.816 232.28 149.304 232.28C148.568 232.28 147.938 232.515 147.416 232.984C146.904 233.453 146.61 234.104 146.536 234.936H152.072Z" fill="#E4F1F2"/>
<path d="M110.268 250.724V253.172H113.148V254.288H110.268V256.844H113.508V257.96H108.9V249.608H113.508V250.724H110.268ZM116.441 249.08V257.96H115.073V249.08H116.441ZM124.177 254.492C124.177 254.74 124.161 254.964 124.129 255.164H119.077C119.117 255.692 119.313 256.116 119.665 256.436C120.017 256.756 120.449 256.916 120.961 256.916C121.697 256.916 122.217 256.608 122.521 255.992H123.997C123.797 256.6 123.433 257.1 122.905 257.492C122.385 257.876 121.737 258.068 120.961 258.068C120.329 258.068 119.761 257.928 119.257 257.648C118.761 257.36 118.369 256.96 118.081 256.448C117.801 255.928 117.661 255.328 117.661 254.648C117.661 253.968 117.797 253.372 118.069 252.86C118.349 252.34 118.737 251.94 119.233 251.66C119.737 251.38 120.313 251.24 120.961 251.24C121.585 251.24 122.141 251.376 122.629 251.648C123.117 251.92 123.497 252.304 123.769 252.8C124.041 253.288 124.177 253.852 124.177 254.492ZM122.749 254.06C122.741 253.556 122.561 253.152 122.209 252.848C121.857 252.544 121.421 252.392 120.901 252.392C120.429 252.392 120.025 252.544 119.689 252.848C119.353 253.144 119.153 253.548 119.089 254.06H122.749ZM124.947 254.648C124.947 253.968 125.083 253.372 125.355 252.86C125.635 252.34 126.019 251.94 126.507 251.66C126.995 251.38 127.555 251.24 128.187 251.24C128.987 251.24 129.647 251.432 130.167 251.816C130.695 252.192 131.051 252.732 131.235 253.436H129.759C129.639 253.108 129.447 252.852 129.183 252.668C128.919 252.484 128.587 252.392 128.187 252.392C127.627 252.392 127.179 252.592 126.843 252.992C126.515 253.384 126.351 253.936 126.351 254.648C126.351 255.36 126.515 255.916 126.843 256.316C127.179 256.716 127.627 256.916 128.187 256.916C128.979 256.916 129.503 256.568 129.759 255.872H131.235C131.043 256.544 130.683 257.08 130.155 257.48C129.627 257.872 128.971 258.068 128.187 258.068C127.555 258.068 126.995 257.928 126.507 257.648C126.019 257.36 125.635 256.96 125.355 256.448C125.083 255.928 124.947 255.328 124.947 254.648ZM134.075 252.464V256.124C134.075 256.372 134.131 256.552 134.243 256.664C134.363 256.768 134.563 256.82 134.843 256.82H135.683V257.96H134.603C133.987 257.96 133.515 257.816 133.187 257.528C132.859 257.24 132.695 256.772 132.695 256.124V252.464H131.915V251.348H132.695V249.704H134.075V251.348H135.683V252.464H134.075ZM138.191 252.308C138.391 251.972 138.655 251.712 138.983 251.528C139.319 251.336 139.715 251.24 140.171 251.24V252.656H139.823C139.287 252.656 138.879 252.792 138.599 253.064C138.327 253.336 138.191 253.808 138.191 254.48V257.96H136.823V251.348H138.191V252.308ZM144.177 258.068C143.553 258.068 142.989 257.928 142.485 257.648C141.981 257.36 141.585 256.96 141.297 256.448C141.009 255.928 140.865 255.328 140.865 254.648C140.865 253.976 141.013 253.38 141.309 252.86C141.605 252.34 142.009 251.94 142.521 251.66C143.033 251.38 143.605 251.24 144.237 251.24C144.869 251.24 145.441 251.38 145.953 251.66C146.465 251.94 146.869 252.34 147.165 252.86C147.461 253.38 147.609 253.976 147.609 254.648C147.609 255.32 147.457 255.916 147.153 256.436C146.849 256.956 146.433 257.36 145.905 257.648C145.385 257.928 144.809 258.068 144.177 258.068ZM144.177 256.88C144.529 256.88 144.857 256.796 145.161 256.628C145.473 256.46 145.725 256.208 145.917 255.872C146.109 255.536 146.205 255.128 146.205 254.648C146.205 254.168 146.113 253.764 145.929 253.436C145.745 253.1 145.501 252.848 145.197 252.68C144.893 252.512 144.565 252.428 144.213 252.428C143.861 252.428 143.533 252.512 143.229 252.68C142.933 252.848 142.697 253.1 142.521 253.436C142.345 253.764 142.257 254.168 142.257 254.648C142.257 255.36 142.437 255.912 142.797 256.304C143.165 256.688 143.625 256.88 144.177 256.88ZM152.177 251.24C152.697 251.24 153.161 251.348 153.569 251.564C153.985 251.78 154.309 252.1 154.541 252.524C154.773 252.948 154.889 253.46 154.889 254.06V257.96H153.533V254.264C153.533 253.672 153.385 253.22 153.089 252.908C152.793 252.588 152.389 252.428 151.877 252.428C151.365 252.428 150.957 252.588 150.653 252.908C150.357 253.22 150.209 253.672 150.209 254.264V257.96H148.841V251.348H150.209V252.104C150.433 251.832 150.717 251.62 151.061 251.468C151.413 251.316 151.785 251.24 152.177 251.24ZM157.21 250.472C156.962 250.472 156.754 250.388 156.586 250.22C156.418 250.052 156.334 249.844 156.334 249.596C156.334 249.348 156.418 249.14 156.586 248.972C156.754 248.804 156.962 248.72 157.21 248.72C157.45 248.72 157.654 248.804 157.822 248.972C157.99 249.14 158.074 249.348 158.074 249.596C158.074 249.844 157.99 250.052 157.822 250.22C157.654 250.388 157.45 250.472 157.21 250.472ZM157.882 251.348V257.96H156.514V251.348H157.882ZM159.102 254.648C159.102 253.968 159.238 253.372 159.51 252.86C159.79 252.34 160.174 251.94 160.662 251.66C161.15 251.38 161.71 251.24 162.342 251.24C163.142 251.24 163.802 251.432 164.322 251.816C164.85 252.192 165.206 252.732 165.39 253.436H163.914C163.794 253.108 163.602 252.852 163.338 252.668C163.074 252.484 162.742 252.392 162.342 252.392C161.782 252.392 161.334 252.592 160.998 252.992C160.67 253.384 160.506 253.936 160.506 254.648C160.506 255.36 160.67 255.916 160.998 256.316C161.334 256.716 161.782 256.916 162.342 256.916C163.134 256.916 163.658 256.568 163.914 255.872H165.39C165.198 256.544 164.838 257.08 164.31 257.48C163.782 257.872 163.126 258.068 162.342 258.068C161.71 258.068 161.15 257.928 160.662 257.648C160.174 257.36 159.79 256.96 159.51 256.448C159.238 255.928 159.102 255.328 159.102 254.648Z" fill="#A7C0C0"/>
<path d="M390.006 241.711V243.118H384.278V241.711H390.006ZM403.228 249.139C402.478 249.139 401.802 248.99 401.202 248.691C400.601 248.393 400.119 247.984 399.757 247.464C399.395 246.944 399.197 246.352 399.162 245.687H400.697C400.756 246.28 401.025 246.77 401.502 247.157C401.984 247.541 402.559 247.733 403.228 247.733C403.765 247.733 404.242 247.607 404.66 247.356C405.082 247.104 405.412 246.759 405.65 246.32C405.893 245.877 406.015 245.376 406.015 244.818C406.015 244.247 405.889 243.738 405.638 243.29C405.39 242.839 405.05 242.483 404.615 242.223C404.18 241.963 403.684 241.831 403.126 241.826C402.725 241.822 402.314 241.884 401.892 242.012C401.47 242.135 401.123 242.295 400.85 242.491L399.367 242.312L400.16 235.869H406.961V237.275H401.489L401.029 241.136H401.106C401.374 240.923 401.711 240.746 402.116 240.606C402.52 240.465 402.942 240.395 403.381 240.395C404.182 240.395 404.896 240.586 405.523 240.97C406.153 241.349 406.648 241.869 407.006 242.53C407.368 243.19 407.549 243.944 407.549 244.792C407.549 245.628 407.361 246.373 406.986 247.03C406.616 247.682 406.104 248.197 405.452 248.576C404.8 248.951 404.059 249.139 403.228 249.139ZM414.976 235.69C415.513 235.694 416.05 235.797 416.586 235.997C417.123 236.197 417.613 236.53 418.057 236.994C418.5 237.454 418.856 238.083 419.124 238.88C419.393 239.677 419.527 240.676 419.527 241.878C419.527 243.041 419.416 244.074 419.194 244.978C418.977 245.877 418.662 246.635 418.248 247.253C417.839 247.871 417.341 248.34 416.753 248.66C416.169 248.979 415.508 249.139 414.771 249.139C414.038 249.139 413.384 248.994 412.809 248.704C412.238 248.41 411.769 248.003 411.403 247.483C411.04 246.959 410.808 246.352 410.706 245.662H412.265C412.406 246.263 412.685 246.759 413.103 247.151C413.525 247.539 414.081 247.733 414.771 247.733C415.781 247.733 416.578 247.292 417.162 246.41C417.75 245.527 418.044 244.281 418.044 242.67H417.942C417.703 243.028 417.42 243.337 417.091 243.597C416.763 243.857 416.399 244.057 415.998 244.198C415.598 244.339 415.172 244.409 414.72 244.409C413.97 244.409 413.282 244.223 412.655 243.853C412.033 243.478 411.535 242.964 411.16 242.312C410.789 241.656 410.604 240.906 410.604 240.062C410.604 239.261 410.783 238.528 411.14 237.863C411.503 237.194 412.01 236.662 412.662 236.265C413.318 235.869 414.089 235.677 414.976 235.69ZM414.976 237.096C414.439 237.096 413.955 237.231 413.525 237.499C413.099 237.763 412.76 238.121 412.508 238.573C412.261 239.02 412.138 239.517 412.138 240.062C412.138 240.608 412.257 241.104 412.496 241.552C412.738 241.995 413.069 242.348 413.486 242.613C413.908 242.873 414.388 243.003 414.925 243.003C415.329 243.003 415.707 242.924 416.056 242.766C416.405 242.604 416.71 242.385 416.97 242.108C417.234 241.826 417.441 241.509 417.59 241.155C417.739 240.797 417.814 240.424 417.814 240.037C417.814 239.525 417.69 239.046 417.443 238.598C417.2 238.151 416.863 237.789 416.433 237.512C416.007 237.235 415.521 237.096 414.976 237.096ZM426.928 235.69C427.465 235.694 428.002 235.797 428.539 235.997C429.076 236.197 429.566 236.53 430.009 236.994C430.452 237.454 430.808 238.083 431.077 238.88C431.345 239.677 431.479 240.676 431.479 241.878C431.479 243.041 431.368 244.074 431.147 244.978C430.93 245.877 430.614 246.635 430.201 247.253C429.792 247.871 429.293 248.34 428.705 248.66C428.121 248.979 427.461 249.139 426.724 249.139C425.991 249.139 425.336 248.994 424.761 248.704C424.19 248.41 423.721 248.003 423.355 247.483C422.993 246.959 422.761 246.352 422.658 245.662H424.218C424.359 246.263 424.638 246.759 425.055 247.151C425.477 247.539 426.033 247.733 426.724 247.733C427.734 247.733 428.53 247.292 429.114 246.41C429.702 245.527 429.996 244.281 429.996 242.67H429.894C429.655 243.028 429.372 243.337 429.044 243.597C428.716 243.857 428.351 244.057 427.951 244.198C427.55 244.339 427.124 244.409 426.672 244.409C425.922 244.409 425.234 244.223 424.608 243.853C423.986 243.478 423.487 242.964 423.112 242.312C422.741 241.656 422.556 240.906 422.556 240.062C422.556 239.261 422.735 238.528 423.093 237.863C423.455 237.194 423.962 236.662 424.614 236.265C425.27 235.869 426.042 235.677 426.928 235.69ZM426.928 237.096C426.391 237.096 425.908 237.231 425.477 237.499C425.051 237.763 424.712 238.121 424.461 238.573C424.214 239.02 424.09 239.517 424.09 240.062C424.09 240.608 424.209 241.104 424.448 241.552C424.691 241.995 425.021 242.348 425.439 242.613C425.861 242.873 426.34 243.003 426.877 243.003C427.282 243.003 427.659 242.924 428.008 242.766C428.358 242.604 428.662 242.385 428.922 242.108C429.187 241.826 429.393 241.509 429.542 241.155C429.692 240.797 429.766 240.424 429.766 240.037C429.766 239.525 429.643 239.046 429.395 238.598C429.153 238.151 428.816 237.789 428.386 237.512C427.959 237.235 427.474 237.096 426.928 237.096ZM442.588 238.963L442.153 240.446H433.869L434.304 238.963H442.588ZM438.702 248.96L434.023 243.233L433.997 242.159H436.324C436.929 242.159 437.444 242.074 437.871 241.903C438.297 241.728 438.623 241.468 438.849 241.123C439.074 240.774 439.187 240.335 439.187 239.807C439.187 239.027 438.953 238.415 438.484 237.972C438.015 237.525 437.295 237.301 436.324 237.301H433.869L434.304 235.869H436.324C437.363 235.869 438.216 236.042 438.881 236.387C439.55 236.728 440.044 237.196 440.363 237.793C440.687 238.385 440.849 239.057 440.849 239.807C440.849 240.484 440.7 241.108 440.402 241.679C440.108 242.246 439.635 242.702 438.983 243.047C438.335 243.392 437.479 243.565 436.413 243.565H436.375L440.696 248.858V248.96H438.702ZM442.588 235.869L442.153 237.352L435.633 237.301L436.068 235.869H442.588Z" fill="#C7DAD9"/>
<mask id="path-24-inside-3_2756_18660" fill="white">
<path d="M40 304.46C40 298.937 44.4772 294.46 50 294.46H450C455.523 294.46 460 298.937 460 304.46V348.46C460 353.983 455.523 358.46 450 358.46H50C44.4772 358.46 40 353.983 40 348.46V304.46Z"/>
</mask>
<path d="M40 304.46C40 298.937 44.4772 294.46 50 294.46H450C455.523 294.46 460 298.937 460 304.46V348.46C460 353.983 455.523 358.46 450 358.46H50C44.4772 358.46 40 353.983 40 348.46V304.46Z" fill="#EFEAD0" fill-opacity="0.08"/>
<path d="M40 294.46H460H40ZM460 348.46C460 354.535 455.075 359.46 449 359.46H51C44.9249 359.46 40 354.535 40 348.46C40 353.431 44.4772 357.46 50 357.46H450C455.523 357.46 460 353.431 460 348.46ZM40 358.46V294.46V358.46ZM460 294.46V358.46V294.46Z" fill="#EFEAD0" fill-opacity="0.48" mask="url(#path-24-inside-3_2756_18660)"/>
<rect x="52" y="306.46" width="40" height="40" rx="6" fill="url(#paint7_linear_2756_18660)" fill-opacity="0.5"/>
<path d="M63.8088 322.344C64.5715 320.825 65.7415 319.549 67.1881 318.657C68.6346 317.765 70.3007 317.293 72.0002 317.293C74.4706 317.293 76.5459 318.201 78.1327 319.681L75.5046 322.31C74.554 321.402 73.3458 320.939 72.0002 320.939C69.6122 320.939 67.591 322.552 66.8714 324.718C66.6881 325.268 66.5836 325.855 66.5836 326.46C66.5836 327.065 66.6881 327.652 66.8714 328.202C67.5919 330.369 69.6122 331.981 72.0002 331.981C73.2331 331.981 74.2827 331.656 75.104 331.106C75.5801 330.792 75.9878 330.385 76.3023 329.91C76.6167 329.434 76.8315 328.9 76.9337 328.339H72.0002V324.793H80.6333C80.7415 325.393 80.8002 326.018 80.8002 326.668C80.8002 329.46 79.801 331.81 78.0667 333.405C76.5505 334.806 74.4752 335.627 72.0002 335.627C70.7962 335.627 69.604 335.39 68.4917 334.93C67.3793 334.469 66.3686 333.794 65.5173 332.943C64.666 332.091 63.9908 331.081 63.5303 329.968C63.0698 328.856 62.833 327.664 62.8335 326.46C62.8335 324.98 63.1873 323.582 63.8088 322.344Z" fill="white"/>
<path d="M117.68 316.04C117.371 315.389 116.923 314.888 116.336 314.536C115.749 314.173 115.067 313.992 114.288 313.992C113.509 313.992 112.805 314.173 112.176 314.536C111.557 314.888 111.067 315.4 110.704 316.072C110.352 316.733 110.176 317.501 110.176 318.376C110.176 319.251 110.352 320.019 110.704 320.68C111.067 321.341 111.557 321.853 112.176 322.216C112.805 322.568 113.509 322.744 114.288 322.744C115.376 322.744 116.272 322.419 116.976 321.768C117.68 321.117 118.091 320.237 118.208 319.128H113.76V317.944H119.76V319.064C119.675 319.981 119.387 320.824 118.896 321.592C118.405 322.349 117.76 322.952 116.96 323.4C116.16 323.837 115.269 324.056 114.288 324.056C113.253 324.056 112.309 323.816 111.456 323.336C110.603 322.845 109.925 322.168 109.424 321.304C108.933 320.44 108.688 319.464 108.688 318.376C108.688 317.288 108.933 316.312 109.424 315.448C109.925 314.573 110.603 313.896 111.456 313.416C112.309 312.925 113.253 312.68 114.288 312.68C115.472 312.68 116.517 312.973 117.424 313.56C118.341 314.147 119.008 314.973 119.424 316.04H117.68ZM125.509 324.104C124.688 324.104 123.941 323.917 123.269 323.544C122.608 323.171 122.085 322.643 121.701 321.96C121.328 321.267 121.141 320.467 121.141 319.56C121.141 318.664 121.333 317.875 121.717 317.192C122.112 316.499 122.645 315.971 123.317 315.608C123.989 315.235 124.741 315.048 125.573 315.048C126.405 315.048 127.157 315.235 127.829 315.608C128.501 315.971 129.029 316.493 129.413 317.176C129.808 317.859 130.005 318.653 130.005 319.56C130.005 320.467 129.802 321.267 129.397 321.96C129.002 322.643 128.464 323.171 127.781 323.544C127.098 323.917 126.341 324.104 125.509 324.104ZM125.509 322.824C126.032 322.824 126.522 322.701 126.981 322.456C127.44 322.211 127.808 321.843 128.085 321.352C128.373 320.861 128.517 320.264 128.517 319.56C128.517 318.856 128.378 318.259 128.101 317.768C127.824 317.277 127.461 316.915 127.013 316.68C126.565 316.435 126.08 316.312 125.557 316.312C125.024 316.312 124.533 316.435 124.085 316.68C123.648 316.915 123.296 317.277 123.029 317.768C122.762 318.259 122.629 318.856 122.629 319.56C122.629 320.275 122.757 320.877 123.013 321.368C123.28 321.859 123.632 322.227 124.069 322.472C124.506 322.707 124.986 322.824 125.509 322.824ZM135.744 324.104C134.922 324.104 134.176 323.917 133.504 323.544C132.842 323.171 132.32 322.643 131.936 321.96C131.562 321.267 131.376 320.467 131.376 319.56C131.376 318.664 131.568 317.875 131.952 317.192C132.346 316.499 132.88 315.971 133.552 315.608C134.224 315.235 134.976 315.048 135.808 315.048C136.64 315.048 137.392 315.235 138.064 315.608C138.736 315.971 139.264 316.493 139.648 317.176C140.042 317.859 140.24 318.653 140.24 319.56C140.24 320.467 140.037 321.267 139.632 321.96C139.237 322.643 138.698 323.171 138.016 323.544C137.333 323.917 136.576 324.104 135.744 324.104ZM135.744 322.824C136.266 322.824 136.757 322.701 137.216 322.456C137.674 322.211 138.042 321.843 138.32 321.352C138.608 320.861 138.752 320.264 138.752 319.56C138.752 318.856 138.613 318.259 138.336 317.768C138.058 317.277 137.696 316.915 137.248 316.68C136.8 316.435 136.314 316.312 135.792 316.312C135.258 316.312 134.768 316.435 134.32 316.68C133.882 316.915 133.53 317.277 133.264 317.768C132.997 318.259 132.864 318.856 132.864 319.56C132.864 320.275 132.992 320.877 133.248 321.368C133.514 321.859 133.866 322.227 134.304 322.472C134.741 322.707 135.221 322.824 135.744 322.824ZM145.77 315.048C146.527 315.048 147.189 315.213 147.754 315.544C148.33 315.875 148.757 316.291 149.034 316.792V315.192H150.506V324.152C150.506 324.952 150.335 325.661 149.994 326.28C149.653 326.909 149.162 327.4 148.522 327.752C147.893 328.104 147.157 328.28 146.314 328.28C145.162 328.28 144.202 328.008 143.434 327.464C142.666 326.92 142.213 326.179 142.074 325.24H143.514C143.674 325.773 144.005 326.2 144.506 326.52C145.007 326.851 145.61 327.016 146.314 327.016C147.114 327.016 147.765 326.765 148.266 326.264C148.778 325.763 149.034 325.059 149.034 324.152V322.312C148.746 322.824 148.319 323.251 147.754 323.592C147.189 323.933 146.527 324.104 145.77 324.104C144.991 324.104 144.282 323.912 143.642 323.528C143.013 323.144 142.517 322.605 142.154 321.912C141.791 321.219 141.61 320.429 141.61 319.544C141.61 318.648 141.791 317.864 142.154 317.192C142.517 316.509 143.013 315.981 143.642 315.608C144.282 315.235 144.991 315.048 145.77 315.048ZM149.034 319.56C149.034 318.899 148.901 318.323 148.634 317.832C148.367 317.341 148.005 316.968 147.546 316.712C147.098 316.445 146.602 316.312 146.058 316.312C145.514 316.312 145.018 316.44 144.57 316.696C144.122 316.952 143.765 317.325 143.498 317.816C143.231 318.307 143.098 318.883 143.098 319.544C143.098 320.216 143.231 320.803 143.498 321.304C143.765 321.795 144.122 322.173 144.57 322.44C145.018 322.696 145.514 322.824 146.058 322.824C146.602 322.824 147.098 322.696 147.546 322.44C148.005 322.173 148.367 321.795 148.634 321.304C148.901 320.803 149.034 320.221 149.034 319.56ZM154.422 312.12V323.96H152.966V312.12H154.422ZM164.904 319.24C164.904 319.517 164.888 319.811 164.856 320.12H157.848C157.901 320.984 158.195 321.661 158.728 322.152C159.272 322.632 159.928 322.872 160.696 322.872C161.325 322.872 161.848 322.728 162.264 322.44C162.691 322.141 162.989 321.747 163.16 321.256H164.728C164.493 322.099 164.024 322.787 163.32 323.32C162.616 323.843 161.741 324.104 160.696 324.104C159.864 324.104 159.117 323.917 158.456 323.544C157.805 323.171 157.293 322.643 156.92 321.96C156.547 321.267 156.36 320.467 156.36 319.56C156.36 318.653 156.541 317.859 156.904 317.176C157.267 316.493 157.773 315.971 158.424 315.608C159.085 315.235 159.843 315.048 160.696 315.048C161.528 315.048 162.264 315.229 162.904 315.592C163.544 315.955 164.035 316.456 164.376 317.096C164.728 317.725 164.904 318.44 164.904 319.24ZM163.4 318.936C163.4 318.381 163.277 317.907 163.032 317.512C162.787 317.107 162.451 316.803 162.024 316.6C161.608 316.387 161.144 316.28 160.632 316.28C159.896 316.28 159.267 316.515 158.744 316.984C158.232 317.453 157.939 318.104 157.864 318.936H163.4ZM178.547 316.072C178.547 317 178.227 317.773 177.587 318.392C176.958 319 175.993 319.304 174.691 319.304H172.547V323.96H171.091V312.808H174.691C175.95 312.808 176.905 313.112 177.555 313.72C178.217 314.328 178.547 315.112 178.547 316.072ZM174.691 318.104C175.502 318.104 176.099 317.928 176.483 317.576C176.867 317.224 177.059 316.723 177.059 316.072C177.059 314.696 176.27 314.008 174.691 314.008H172.547V318.104H174.691ZM181.813 312.12V323.96H180.357V312.12H181.813ZM183.751 319.544C183.751 318.648 183.932 317.864 184.295 317.192C184.657 316.509 185.153 315.981 185.783 315.608C186.423 315.235 187.132 315.048 187.911 315.048C188.679 315.048 189.345 315.213 189.911 315.544C190.476 315.875 190.897 316.291 191.175 316.792V315.192H192.647V323.96H191.175V322.328C190.887 322.84 190.455 323.267 189.879 323.608C189.313 323.939 188.652 324.104 187.895 324.104C187.116 324.104 186.412 323.912 185.783 323.528C185.153 323.144 184.657 322.605 184.295 321.912C183.932 321.219 183.751 320.429 183.751 319.544ZM191.175 319.56C191.175 318.899 191.041 318.323 190.775 317.832C190.508 317.341 190.145 316.968 189.687 316.712C189.239 316.445 188.743 316.312 188.199 316.312C187.655 316.312 187.159 316.44 186.711 316.696C186.263 316.952 185.905 317.325 185.639 317.816C185.372 318.307 185.239 318.883 185.239 319.544C185.239 320.216 185.372 320.803 185.639 321.304C185.905 321.795 186.263 322.173 186.711 322.44C187.159 322.696 187.655 322.824 188.199 322.824C188.743 322.824 189.239 322.696 189.687 322.44C190.145 322.173 190.508 321.795 190.775 321.304C191.041 320.803 191.175 320.221 191.175 319.56ZM202.659 315.192L197.379 328.088H195.875L197.603 323.864L194.067 315.192H195.683L198.435 322.296L201.155 315.192H202.659ZM211.924 324.072C211.188 324.072 210.527 323.944 209.94 323.688C209.364 323.421 208.911 323.059 208.58 322.6C208.25 322.131 208.079 321.592 208.068 320.984H209.62C209.674 321.507 209.887 321.949 210.26 322.312C210.644 322.664 211.199 322.84 211.924 322.84C212.618 322.84 213.162 322.669 213.556 322.328C213.962 321.976 214.164 321.528 214.164 320.984C214.164 320.557 214.047 320.211 213.812 319.944C213.578 319.677 213.284 319.475 212.932 319.336C212.58 319.197 212.106 319.048 211.508 318.888C210.772 318.696 210.18 318.504 209.732 318.312C209.295 318.12 208.916 317.821 208.596 317.416C208.287 317 208.132 316.445 208.132 315.752C208.132 315.144 208.287 314.605 208.596 314.136C208.906 313.667 209.338 313.304 209.892 313.048C210.458 312.792 211.103 312.664 211.828 312.664C212.874 312.664 213.727 312.925 214.388 313.448C215.06 313.971 215.439 314.664 215.524 315.528H213.924C213.871 315.101 213.647 314.728 213.252 314.408C212.858 314.077 212.335 313.912 211.684 313.912C211.076 313.912 210.58 314.072 210.196 314.392C209.812 314.701 209.62 315.139 209.62 315.704C209.62 316.109 209.732 316.44 209.956 316.696C210.191 316.952 210.474 317.149 210.804 317.288C211.146 317.416 211.62 317.565 212.228 317.736C212.964 317.939 213.556 318.141 214.004 318.344C214.452 318.536 214.836 318.84 215.156 319.256C215.476 319.661 215.636 320.216 215.636 320.92C215.636 321.464 215.492 321.976 215.204 322.456C214.916 322.936 214.49 323.325 213.924 323.624C213.359 323.923 212.692 324.072 211.924 324.072ZM219.555 316.392V321.56C219.555 321.987 219.646 322.291 219.827 322.472C220.008 322.643 220.323 322.728 220.771 322.728H221.843V323.96H220.531C219.72 323.96 219.112 323.773 218.707 323.4C218.302 323.027 218.099 322.413 218.099 321.56V316.392H216.963V315.192H218.099V312.984H219.555V315.192H221.843V316.392H219.555ZM227.431 324.104C226.61 324.104 225.863 323.917 225.191 323.544C224.53 323.171 224.007 322.643 223.623 321.96C223.25 321.267 223.063 320.467 223.063 319.56C223.063 318.664 223.255 317.875 223.639 317.192C224.034 316.499 224.567 315.971 225.239 315.608C225.911 315.235 226.663 315.048 227.495 315.048C228.327 315.048 229.079 315.235 229.751 315.608C230.423 315.971 230.951 316.493 231.335 317.176C231.73 317.859 231.927 318.653 231.927 319.56C231.927 320.467 231.724 321.267 231.319 321.96C230.924 322.643 230.386 323.171 229.703 323.544C229.02 323.917 228.263 324.104 227.431 324.104ZM227.431 322.824C227.954 322.824 228.444 322.701 228.903 322.456C229.362 322.211 229.73 321.843 230.007 321.352C230.295 320.861 230.439 320.264 230.439 319.56C230.439 318.856 230.3 318.259 230.023 317.768C229.746 317.277 229.383 316.915 228.935 316.68C228.487 316.435 228.002 316.312 227.479 316.312C226.946 316.312 226.455 316.435 226.007 316.68C225.57 316.915 225.218 317.277 224.951 317.768C224.684 318.259 224.551 318.856 224.551 319.56C224.551 320.275 224.679 320.877 224.935 321.368C225.202 321.859 225.554 322.227 225.991 322.472C226.428 322.707 226.908 322.824 227.431 322.824ZM235.297 316.616C235.553 316.115 235.916 315.725 236.385 315.448C236.865 315.171 237.447 315.032 238.129 315.032V316.536H237.745C236.113 316.536 235.297 317.421 235.297 319.192V323.96H233.841V315.192H235.297V316.616ZM247.81 319.24C247.81 319.517 247.794 319.811 247.762 320.12H240.754C240.807 320.984 241.101 321.661 241.634 322.152C242.178 322.632 242.834 322.872 243.602 322.872C244.231 322.872 244.754 322.728 245.17 322.44C245.597 322.141 245.895 321.747 246.066 321.256H247.634C247.399 322.099 246.93 322.787 246.226 323.32C245.522 323.843 244.647 324.104 243.602 324.104C242.77 324.104 242.023 323.917 241.362 323.544C240.711 323.171 240.199 322.643 239.826 321.96C239.453 321.267 239.266 320.467 239.266 319.56C239.266 318.653 239.447 317.859 239.81 317.176C240.173 316.493 240.679 315.971 241.33 315.608C241.991 315.235 242.749 315.048 243.602 315.048C244.434 315.048 245.17 315.229 245.81 315.592C246.45 315.955 246.941 316.456 247.282 317.096C247.634 317.725 247.81 318.44 247.81 319.24ZM246.306 318.936C246.306 318.381 246.183 317.907 245.938 317.512C245.693 317.107 245.357 316.803 244.93 316.6C244.514 316.387 244.05 316.28 243.538 316.28C242.802 316.28 242.173 316.515 241.65 316.984C241.138 317.453 240.845 318.104 240.77 318.936H246.306Z" fill="#E4F1F2"/>
<path d="M113.928 340.256H110.436L109.836 341.96H108.408L111.396 333.608H112.98L115.968 341.96H114.528L113.928 340.256ZM113.544 339.14L112.188 335.264L110.82 339.14H113.544ZM118.515 336.32C118.747 336.016 119.063 335.76 119.463 335.552C119.863 335.344 120.315 335.24 120.819 335.24C121.395 335.24 121.919 335.384 122.391 335.672C122.871 335.952 123.247 336.348 123.519 336.86C123.791 337.372 123.927 337.96 123.927 338.624C123.927 339.288 123.791 339.884 123.519 340.412C123.247 340.932 122.871 341.34 122.391 341.636C121.919 341.924 121.395 342.068 120.819 342.068C120.315 342.068 119.867 341.968 119.475 341.768C119.083 341.56 118.763 341.304 118.515 341V345.104H117.147V335.348H118.515V336.32ZM122.535 338.624C122.535 338.168 122.439 337.776 122.247 337.448C122.063 337.112 121.815 336.86 121.503 336.692C121.199 336.516 120.871 336.428 120.519 336.428C120.175 336.428 119.847 336.516 119.535 336.692C119.231 336.868 118.983 337.124 118.791 337.46C118.607 337.796 118.515 338.192 118.515 338.648C118.515 339.104 118.607 339.504 118.791 339.848C118.983 340.184 119.231 340.44 119.535 340.616C119.847 340.792 120.175 340.88 120.519 340.88C120.871 340.88 121.199 340.792 121.503 340.616C121.815 340.432 122.063 340.168 122.247 339.824C122.439 339.48 122.535 339.08 122.535 338.624ZM126.528 336.32C126.76 336.016 127.076 335.76 127.476 335.552C127.876 335.344 128.328 335.24 128.832 335.24C129.408 335.24 129.932 335.384 130.404 335.672C130.884 335.952 131.26 336.348 131.532 336.86C131.804 337.372 131.94 337.96 131.94 338.624C131.94 339.288 131.804 339.884 131.532 340.412C131.26 340.932 130.884 341.34 130.404 341.636C129.932 341.924 129.408 342.068 128.832 342.068C128.328 342.068 127.88 341.968 127.488 341.768C127.096 341.56 126.776 341.304 126.528 341V345.104H125.16V335.348H126.528V336.32ZM130.548 338.624C130.548 338.168 130.452 337.776 130.26 337.448C130.076 337.112 129.828 336.86 129.516 336.692C129.212 336.516 128.884 336.428 128.532 336.428C128.188 336.428 127.86 336.516 127.548 336.692C127.244 336.868 126.996 337.124 126.804 337.46C126.62 337.796 126.528 338.192 126.528 338.648C126.528 339.104 126.62 339.504 126.804 339.848C126.996 340.184 127.244 340.44 127.548 340.616C127.86 340.792 128.188 340.88 128.532 340.88C128.884 340.88 129.212 340.792 129.516 340.616C129.828 340.432 130.076 340.168 130.26 339.824C130.452 339.48 130.548 339.08 130.548 338.624ZM135.573 342.068C135.053 342.068 134.585 341.976 134.169 341.792C133.761 341.6 133.437 341.344 133.197 341.024C132.957 340.696 132.829 340.332 132.813 339.932H134.229C134.253 340.212 134.385 340.448 134.625 340.64C134.873 340.824 135.181 340.916 135.549 340.916C135.933 340.916 136.229 340.844 136.437 340.7C136.653 340.548 136.761 340.356 136.761 340.124C136.761 339.876 136.641 339.692 136.401 339.572C136.169 339.452 135.797 339.32 135.285 339.176C134.789 339.04 134.385 338.908 134.073 338.78C133.761 338.652 133.489 338.456 133.257 338.192C133.033 337.928 132.921 337.58 132.921 337.148C132.921 336.796 133.025 336.476 133.233 336.188C133.441 335.892 133.737 335.66 134.121 335.492C134.513 335.324 134.961 335.24 135.465 335.24C136.217 335.24 136.821 335.432 137.277 335.816C137.741 336.192 137.989 336.708 138.021 337.364H136.653C136.629 337.068 136.509 336.832 136.293 336.656C136.077 336.48 135.785 336.392 135.417 336.392C135.057 336.392 134.781 336.46 134.589 336.596C134.397 336.732 134.301 336.912 134.301 337.136C134.301 337.312 134.365 337.46 134.493 337.58C134.621 337.7 134.777 337.796 134.961 337.868C135.145 337.932 135.417 338.016 135.777 338.12C136.257 338.248 136.649 338.38 136.953 338.516C137.265 338.644 137.533 338.836 137.757 339.092C137.981 339.348 138.097 339.688 138.105 340.112C138.105 340.488 138.001 340.824 137.793 341.12C137.585 341.416 137.289 341.648 136.905 341.816C136.529 341.984 136.085 342.068 135.573 342.068Z" fill="#A7C0C0"/>
<path d="M393.006 325.711V327.118H387.278V325.711H393.006ZM406.739 319.869V332.96H405.154V321.531H405.077L401.881 323.653V322.042L405.154 319.869H406.739ZM415.494 333.139C414.531 333.139 413.711 332.877 413.033 332.353C412.355 331.824 411.838 331.059 411.48 330.058C411.122 329.052 410.943 327.838 410.943 326.415C410.943 325 411.122 323.792 411.48 322.79C411.842 321.785 412.362 321.017 413.039 320.489C413.721 319.956 414.539 319.69 415.494 319.69C416.449 319.69 417.265 319.956 417.942 320.489C418.624 321.017 419.144 321.785 419.502 322.79C419.864 323.792 420.045 325 420.045 326.415C420.045 327.838 419.866 329.052 419.508 330.058C419.15 331.059 418.632 331.824 417.955 332.353C417.277 332.877 416.457 333.139 415.494 333.139ZM415.494 331.733C416.449 331.733 417.19 331.272 417.718 330.352C418.247 329.432 418.511 328.119 418.511 326.415C418.511 325.281 418.39 324.316 418.147 323.519C417.908 322.722 417.563 322.115 417.111 321.697C416.664 321.28 416.125 321.071 415.494 321.071C414.548 321.071 413.809 321.537 413.276 322.471C412.743 323.4 412.477 324.714 412.477 326.415C412.477 327.548 412.596 328.511 412.835 329.304C413.074 330.096 413.417 330.699 413.864 331.113C414.316 331.526 414.859 331.733 415.494 331.733ZM427.464 333.139C426.501 333.139 425.681 332.877 425.003 332.353C424.325 331.824 423.808 331.059 423.45 330.058C423.092 329.052 422.913 327.838 422.913 326.415C422.913 325 423.092 323.792 423.45 322.79C423.812 321.785 424.332 321.017 425.009 320.489C425.691 319.956 426.509 319.69 427.464 319.69C428.419 319.69 429.235 319.956 429.912 320.489C430.594 321.017 431.114 321.785 431.472 322.79C431.834 323.792 432.015 325 432.015 326.415C432.015 327.838 431.836 329.052 431.478 330.058C431.12 331.059 430.602 331.824 429.925 332.353C429.247 332.877 428.427 333.139 427.464 333.139ZM427.464 331.733C428.419 331.733 429.16 331.272 429.688 330.352C430.217 329.432 430.481 328.119 430.481 326.415C430.481 325.281 430.36 324.316 430.117 323.519C429.878 322.722 429.533 322.115 429.081 321.697C428.634 321.28 428.095 321.071 427.464 321.071C426.518 321.071 425.779 321.537 425.246 322.471C424.713 323.4 424.447 324.714 424.447 326.415C424.447 327.548 424.566 328.511 424.805 329.304C425.044 330.096 425.387 330.699 425.834 331.113C426.286 331.526 426.829 331.733 427.464 331.733ZM443.039 322.963L442.604 324.446H434.32L434.755 322.963H443.039ZM439.153 332.96L434.474 327.233L434.448 326.159H436.775C437.38 326.159 437.896 326.074 438.322 325.903C438.748 325.728 439.074 325.468 439.3 325.123C439.526 324.774 439.639 324.335 439.639 323.807C439.639 323.027 439.404 322.415 438.935 321.972C438.467 321.525 437.746 321.301 436.775 321.301H434.32L434.755 319.869H436.775C437.815 319.869 438.667 320.042 439.332 320.387C440.001 320.728 440.495 321.196 440.815 321.793C441.139 322.385 441.3 323.057 441.3 323.807C441.3 324.484 441.151 325.108 440.853 325.679C440.559 326.246 440.086 326.702 439.434 327.047C438.786 327.392 437.93 327.565 436.864 327.565H436.826L441.147 332.858V332.96H439.153ZM443.039 319.869L442.604 321.352L436.085 321.301L436.519 319.869H443.039Z" fill="#C7DAD9"/>
<mask id="path-31-inside-4_2756_18660" fill="white">
<path d="M40 388.46C40 382.937 44.4772 378.46 50 378.46H450C455.523 378.46 460 382.937 460 388.46V432.46C460 437.983 455.523 442.46 450 442.46H50C44.4772 442.46 40 437.983 40 432.46V388.46Z"/>
</mask>
<path d="M40 388.46C40 382.937 44.4772 378.46 50 378.46H450C455.523 378.46 460 382.937 460 388.46V432.46C460 437.983 455.523 442.46 450 442.46H50C44.4772 442.46 40 437.983 40 432.46V388.46Z" fill="#EFEAD0" fill-opacity="0.08"/>
<path d="M40 378.46H460H40ZM460 432.46C460 438.535 455.075 443.46 449 443.46H51C44.9249 443.46 40 438.535 40 432.46C40 437.431 44.4772 441.46 50 441.46H450C455.523 441.46 460 437.431 460 432.46ZM40 442.46V378.46V442.46ZM460 378.46V442.46V378.46Z" fill="#EFEAD0" fill-opacity="0.48" mask="url(#path-31-inside-4_2756_18660)"/>
<rect x="52" y="390.46" width="40" height="40" rx="6" fill="url(#paint8_linear_2756_18660)" fill-opacity="0.5"/>
<path d="M81.1628 416.171C81.1628 416.837 80.7915 418.121 79.9583 418.825C79.7915 418.954 79.6237 418.881 79.697 418.694C79.94 418.1 80.4964 416.726 80.2351 416.41C80.0518 416.17 79.291 416.187 78.642 416.243C78.345 416.281 78.0855 416.298 77.883 416.339C77.6969 416.355 77.6584 416.19 77.8454 416.062C78.0855 415.892 78.345 415.764 78.6429 415.669C79.697 415.354 80.9162 415.544 81.0904 415.745C81.1234 415.784 81.1637 415.892 81.1637 416.17L81.1628 416.171ZM79.4019 417.357C79.1598 417.542 78.9057 417.71 78.641 417.861C76.6959 419.03 74.1769 419.642 71.9879 419.642C68.4651 419.642 65.3145 418.343 62.9239 416.17C62.7195 416.003 62.889 415.761 63.1283 415.892C65.7041 417.395 68.8923 418.305 72.1932 418.305C74.4 418.299 76.5865 417.883 78.642 417.08C78.7905 417.024 78.9573 416.948 79.103 416.895C79.4395 416.744 79.7355 417.118 79.4019 417.357ZM73.746 407.246C73.746 406.292 73.7836 405.73 73.4674 405.248C73.1869 404.851 72.7038 404.613 72.03 404.65C71.2985 404.69 70.513 405.17 70.3122 406.049C70.2737 406.251 70.1555 406.449 69.9125 406.492L67.6795 406.208C67.52 406.171 67.278 406.049 67.3569 405.73C67.8363 403.207 69.9923 402.328 72.03 402.21H72.5095C73.6278 402.21 75.0642 402.53 75.9836 403.369C77.0992 404.41 76.981 405.809 76.981 407.329V410.928C76.981 412.008 77.4182 412.487 77.8591 413.05C77.9783 413.25 78.0186 413.487 77.8179 413.65C77.2406 414.165 76.6547 414.671 76.0606 415.166C75.9011 415.288 75.6133 415.301 75.5015 415.207C74.7956 414.616 74.6233 414.288 74.186 413.688C73.4252 414.486 72.7872 414.927 72.0273 415.166C71.4929 415.302 70.9433 415.368 70.392 415.364C68.4761 415.364 66.9581 414.17 66.9581 411.807C66.9581 409.929 67.9573 408.652 69.4331 408.048C70.909 407.443 73.054 407.251 73.7451 407.247L73.746 407.246ZM73.3079 412.005C73.7845 411.206 73.7451 410.552 73.7451 409.086C73.1484 409.086 72.548 409.127 72.03 409.249C71.0721 409.527 70.3122 410.13 70.3122 411.408C70.3122 412.407 70.832 413.087 71.7101 413.087C71.8311 413.087 71.9375 413.072 72.03 413.046C72.6442 412.875 73.0274 412.567 73.3079 412.005Z" fill="white"/>
<path d="M115.824 405.48H110.96L110.064 407.96H108.528L112.56 396.872H114.24L118.256 407.96H116.72L115.824 405.48ZM115.408 404.296L113.392 398.664L111.376 404.296H115.408ZM130.557 399.032C131.24 399.032 131.848 399.176 132.381 399.464C132.915 399.741 133.336 400.163 133.645 400.728C133.955 401.293 134.109 401.981 134.109 402.792V407.96H132.669V403C132.669 402.125 132.451 401.459 132.013 401C131.587 400.531 131.005 400.296 130.269 400.296C129.512 400.296 128.909 400.541 128.461 401.032C128.013 401.512 127.789 402.211 127.789 403.128V407.96H126.349V403C126.349 402.125 126.131 401.459 125.693 401C125.267 400.531 124.685 400.296 123.949 400.296C123.192 400.296 122.589 400.541 122.141 401.032C121.693 401.512 121.469 402.211 121.469 403.128V407.96H120.013V399.192H121.469V400.456C121.757 399.997 122.141 399.645 122.621 399.4C123.112 399.155 123.651 399.032 124.237 399.032C124.973 399.032 125.624 399.197 126.189 399.528C126.755 399.859 127.176 400.344 127.453 400.984C127.699 400.365 128.104 399.885 128.669 399.544C129.235 399.203 129.864 399.032 130.557 399.032ZM135.954 403.544C135.954 402.648 136.135 401.864 136.498 401.192C136.86 400.509 137.356 399.981 137.986 399.608C138.626 399.235 139.335 399.048 140.114 399.048C140.882 399.048 141.548 399.213 142.114 399.544C142.679 399.875 143.1 400.291 143.378 400.792V399.192H144.85V407.96H143.378V406.328C143.09 406.84 142.658 407.267 142.082 407.608C141.516 407.939 140.855 408.104 140.098 408.104C139.319 408.104 138.615 407.912 137.986 407.528C137.356 407.144 136.86 406.605 136.498 405.912C136.135 405.219 135.954 404.429 135.954 403.544ZM143.378 403.56C143.378 402.899 143.244 402.323 142.978 401.832C142.711 401.341 142.348 400.968 141.89 400.712C141.442 400.445 140.946 400.312 140.402 400.312C139.858 400.312 139.362 400.44 138.914 400.696C138.466 400.952 138.108 401.325 137.842 401.816C137.575 402.307 137.442 402.883 137.442 403.544C137.442 404.216 137.575 404.803 137.842 405.304C138.108 405.795 138.466 406.173 138.914 406.44C139.362 406.696 139.858 406.824 140.402 406.824C140.946 406.824 141.442 406.696 141.89 406.44C142.348 406.173 142.711 405.795 142.978 405.304C143.244 404.803 143.378 404.221 143.378 403.56ZM148.398 406.76H152.702V407.96H146.734V406.76L150.99 400.376H146.766V399.192H152.67V400.376L148.398 406.76ZM158.415 408.104C157.594 408.104 156.847 407.917 156.175 407.544C155.514 407.171 154.991 406.643 154.607 405.96C154.234 405.267 154.047 404.467 154.047 403.56C154.047 402.664 154.239 401.875 154.623 401.192C155.018 400.499 155.551 399.971 156.223 399.608C156.895 399.235 157.647 399.048 158.479 399.048C159.311 399.048 160.063 399.235 160.735 399.608C161.407 399.971 161.935 400.493 162.319 401.176C162.714 401.859 162.911 402.653 162.911 403.56C162.911 404.467 162.709 405.267 162.303 405.96C161.909 406.643 161.37 407.171 160.687 407.544C160.005 407.917 159.247 408.104 158.415 408.104ZM158.415 406.824C158.938 406.824 159.429 406.701 159.887 406.456C160.346 406.211 160.714 405.843 160.991 405.352C161.279 404.861 161.423 404.264 161.423 403.56C161.423 402.856 161.285 402.259 161.007 401.768C160.73 401.277 160.367 400.915 159.919 400.68C159.471 400.435 158.986 400.312 158.463 400.312C157.93 400.312 157.439 400.435 156.991 400.68C156.554 400.915 156.202 401.277 155.935 401.768C155.669 402.259 155.535 402.856 155.535 403.56C155.535 404.275 155.663 404.877 155.919 405.368C156.186 405.859 156.538 406.227 156.975 406.472C157.413 406.707 157.893 406.824 158.415 406.824ZM169.098 399.032C170.164 399.032 171.028 399.357 171.69 400.008C172.351 400.648 172.682 401.576 172.682 402.792V407.96H171.242V403C171.242 402.125 171.023 401.459 170.586 401C170.148 400.531 169.551 400.296 168.794 400.296C168.026 400.296 167.412 400.536 166.954 401.016C166.506 401.496 166.282 402.195 166.282 403.112V407.96H164.826V399.192H166.282V400.44C166.57 399.992 166.959 399.645 167.45 399.4C167.951 399.155 168.5 399.032 169.098 399.032Z" fill="#E4F1F2"/>
<path d="M111.648 426.044C111.088 426.044 110.584 425.948 110.136 425.756C109.688 425.556 109.336 425.276 109.08 424.916C108.824 424.556 108.696 424.136 108.696 423.656H110.16C110.192 424.016 110.332 424.312 110.58 424.544C110.836 424.776 111.192 424.892 111.648 424.892C112.12 424.892 112.488 424.78 112.752 424.556C113.016 424.324 113.148 424.028 113.148 423.668C113.148 423.388 113.064 423.16 112.896 422.984C112.736 422.808 112.532 422.672 112.284 422.576C112.044 422.48 111.708 422.376 111.276 422.264C110.732 422.12 110.288 421.976 109.944 421.832C109.608 421.68 109.32 421.448 109.08 421.136C108.84 420.824 108.72 420.408 108.72 419.888C108.72 419.408 108.84 418.988 109.08 418.628C109.32 418.268 109.656 417.992 110.088 417.8C110.52 417.608 111.02 417.512 111.588 417.512C112.396 417.512 113.056 417.716 113.568 418.124C114.088 418.524 114.376 419.076 114.432 419.78H112.92C112.896 419.476 112.752 419.216 112.488 419C112.224 418.784 111.876 418.676 111.444 418.676C111.052 418.676 110.732 418.776 110.484 418.976C110.236 419.176 110.112 419.464 110.112 419.84C110.112 420.096 110.188 420.308 110.34 420.476C110.5 420.636 110.7 420.764 110.94 420.86C111.18 420.956 111.508 421.06 111.924 421.172C112.476 421.324 112.924 421.476 113.268 421.628C113.62 421.78 113.916 422.016 114.156 422.336C114.404 422.648 114.528 423.068 114.528 423.596C114.528 424.02 114.412 424.42 114.18 424.796C113.956 425.172 113.624 425.476 113.184 425.708C112.752 425.932 112.24 426.044 111.648 426.044ZM119.442 419.24C119.946 419.24 120.394 419.348 120.786 419.564C121.186 419.78 121.498 420.1 121.722 420.524C121.954 420.948 122.07 421.46 122.07 422.06V425.96H120.714V422.264C120.714 421.672 120.566 421.22 120.27 420.908C119.974 420.588 119.57 420.428 119.058 420.428C118.546 420.428 118.138 420.588 117.834 420.908C117.538 421.22 117.39 421.672 117.39 422.264V425.96H116.022V417.08H117.39V420.116C117.622 419.836 117.914 419.62 118.266 419.468C118.626 419.316 119.018 419.24 119.442 419.24ZM126.563 426.068C125.939 426.068 125.375 425.928 124.871 425.648C124.367 425.36 123.971 424.96 123.683 424.448C123.395 423.928 123.251 423.328 123.251 422.648C123.251 421.976 123.399 421.38 123.695 420.86C123.991 420.34 124.395 419.94 124.907 419.66C125.419 419.38 125.991 419.24 126.623 419.24C127.255 419.24 127.827 419.38 128.339 419.66C128.851 419.94 129.255 420.34 129.551 420.86C129.847 421.38 129.995 421.976 129.995 422.648C129.995 423.32 129.843 423.916 129.539 424.436C129.235 424.956 128.819 425.36 128.291 425.648C127.771 425.928 127.195 426.068 126.563 426.068ZM126.563 424.88C126.915 424.88 127.243 424.796 127.547 424.628C127.859 424.46 128.111 424.208 128.303 423.872C128.495 423.536 128.591 423.128 128.591 422.648C128.591 422.168 128.499 421.764 128.315 421.436C128.131 421.1 127.887 420.848 127.583 420.68C127.279 420.512 126.951 420.428 126.599 420.428C126.247 420.428 125.919 420.512 125.615 420.68C125.319 420.848 125.083 421.1 124.907 421.436C124.731 421.764 124.643 422.168 124.643 422.648C124.643 423.36 124.823 423.912 125.183 424.304C125.551 424.688 126.011 424.88 126.563 424.88ZM132.595 420.32C132.827 420.016 133.143 419.76 133.543 419.552C133.943 419.344 134.395 419.24 134.899 419.24C135.475 419.24 135.999 419.384 136.471 419.672C136.951 419.952 137.327 420.348 137.599 420.86C137.871 421.372 138.007 421.96 138.007 422.624C138.007 423.288 137.871 423.884 137.599 424.412C137.327 424.932 136.951 425.34 136.471 425.636C135.999 425.924 135.475 426.068 134.899 426.068C134.395 426.068 133.947 425.968 133.555 425.768C133.163 425.56 132.843 425.304 132.595 425V429.104H131.227V419.348H132.595V420.32ZM136.615 422.624C136.615 422.168 136.519 421.776 136.327 421.448C136.143 421.112 135.895 420.86 135.583 420.692C135.279 420.516 134.951 420.428 134.599 420.428C134.255 420.428 133.927 420.516 133.615 420.692C133.311 420.868 133.063 421.124 132.871 421.46C132.687 421.796 132.595 422.192 132.595 422.648C132.595 423.104 132.687 423.504 132.871 423.848C133.063 424.184 133.311 424.44 133.615 424.616C133.927 424.792 134.255 424.88 134.599 424.88C134.951 424.88 135.279 424.792 135.583 424.616C135.895 424.432 136.143 424.168 136.327 423.824C136.519 423.48 136.615 423.08 136.615 422.624ZM140.608 420.32C140.84 420.016 141.156 419.76 141.556 419.552C141.956 419.344 142.408 419.24 142.912 419.24C143.488 419.24 144.012 419.384 144.484 419.672C144.964 419.952 145.34 420.348 145.612 420.86C145.884 421.372 146.02 421.96 146.02 422.624C146.02 423.288 145.884 423.884 145.612 424.412C145.34 424.932 144.964 425.34 144.484 425.636C144.012 425.924 143.488 426.068 142.912 426.068C142.408 426.068 141.96 425.968 141.568 425.768C141.176 425.56 140.856 425.304 140.608 425V429.104H139.24V419.348H140.608V420.32ZM144.628 422.624C144.628 422.168 144.532 421.776 144.34 421.448C144.156 421.112 143.908 420.86 143.596 420.692C143.292 420.516 142.964 420.428 142.612 420.428C142.268 420.428 141.94 420.516 141.628 420.692C141.324 420.868 141.076 421.124 140.884 421.46C140.7 421.796 140.608 422.192 140.608 422.648C140.608 423.104 140.7 423.504 140.884 423.848C141.076 424.184 141.324 424.44 141.628 424.616C141.94 424.792 142.268 424.88 142.612 424.88C142.964 424.88 143.292 424.792 143.596 424.616C143.908 424.432 144.156 424.168 144.34 423.824C144.532 423.48 144.628 423.08 144.628 422.624ZM147.949 418.472C147.701 418.472 147.493 418.388 147.325 418.22C147.157 418.052 147.073 417.844 147.073 417.596C147.073 417.348 147.157 417.14 147.325 416.972C147.493 416.804 147.701 416.72 147.949 416.72C148.189 416.72 148.393 416.804 148.561 416.972C148.729 417.14 148.813 417.348 148.813 417.596C148.813 417.844 148.729 418.052 148.561 418.22C148.393 418.388 148.189 418.472 147.949 418.472ZM148.621 419.348V425.96H147.253V419.348H148.621ZM153.633 419.24C154.153 419.24 154.617 419.348 155.025 419.564C155.441 419.78 155.765 420.1 155.997 420.524C156.229 420.948 156.345 421.46 156.345 422.06V425.96H154.989V422.264C154.989 421.672 154.841 421.22 154.545 420.908C154.249 420.588 153.845 420.428 153.333 420.428C152.821 420.428 152.413 420.588 152.109 420.908C151.813 421.22 151.665 421.672 151.665 422.264V425.96H150.297V419.348H151.665V420.104C151.889 419.832 152.173 419.62 152.517 419.468C152.869 419.316 153.241 419.24 153.633 419.24ZM160.634 419.24C161.146 419.24 161.598 419.344 161.99 419.552C162.39 419.752 162.702 420.004 162.926 420.308V419.348H164.306V426.068C164.306 426.676 164.178 427.216 163.922 427.688C163.666 428.168 163.294 428.544 162.806 428.816C162.326 429.088 161.75 429.224 161.078 429.224C160.182 429.224 159.438 429.012 158.846 428.588C158.254 428.172 157.918 427.604 157.838 426.884H159.194C159.298 427.228 159.518 427.504 159.854 427.712C160.198 427.928 160.606 428.036 161.078 428.036C161.63 428.036 162.074 427.868 162.41 427.532C162.754 427.196 162.926 426.708 162.926 426.068V424.964C162.694 425.276 162.378 425.54 161.978 425.756C161.586 425.964 161.138 426.068 160.634 426.068C160.058 426.068 159.53 425.924 159.05 425.636C158.578 425.34 158.202 424.932 157.922 424.412C157.65 423.884 157.514 423.288 157.514 422.624C157.514 421.96 157.65 421.372 157.922 420.86C158.202 420.348 158.578 419.952 159.05 419.672C159.53 419.384 160.058 419.24 160.634 419.24ZM162.926 422.648C162.926 422.192 162.83 421.796 162.638 421.46C162.454 421.124 162.21 420.868 161.906 420.692C161.602 420.516 161.274 420.428 160.922 420.428C160.57 420.428 160.242 420.516 159.938 420.692C159.634 420.86 159.386 421.112 159.194 421.448C159.01 421.776 158.918 422.168 158.918 422.624C158.918 423.08 159.01 423.48 159.194 423.824C159.386 424.168 159.634 424.432 159.938 424.616C160.25 424.792 160.578 424.88 160.922 424.88C161.274 424.88 161.602 424.792 161.906 424.616C162.21 424.44 162.454 424.184 162.638 423.848C162.83 423.504 162.926 423.104 162.926 422.648Z" fill="#A7C0C0"/>
<path d="M390.006 409.711V411.118H384.278V409.711H390.006ZM403.56 417.139C402.716 417.139 401.964 416.994 401.304 416.704C400.648 416.415 400.126 416.012 399.738 415.496C399.354 414.976 399.145 414.373 399.111 413.687H400.722C400.756 414.109 400.901 414.473 401.157 414.78C401.412 415.083 401.747 415.317 402.16 415.483C402.574 415.65 403.032 415.733 403.535 415.733C404.097 415.733 404.596 415.635 405.03 415.439C405.465 415.243 405.806 414.97 406.053 414.62C406.3 414.271 406.424 413.866 406.424 413.406C406.424 412.924 406.305 412.5 406.066 412.134C405.827 411.763 405.478 411.473 405.018 411.265C404.557 411.056 403.995 410.951 403.33 410.951H402.282V409.545H403.33C403.85 409.545 404.306 409.451 404.698 409.264C405.094 409.076 405.403 408.812 405.625 408.471C405.851 408.13 405.964 407.73 405.964 407.27C405.964 406.826 405.866 406.441 405.67 406.113C405.474 405.785 405.197 405.529 404.839 405.346C404.485 405.162 404.067 405.071 403.586 405.071C403.134 405.071 402.708 405.154 402.307 405.32C401.911 405.482 401.587 405.718 401.336 406.03C401.084 406.336 400.948 406.707 400.927 407.142H399.393C399.418 406.456 399.625 405.855 400.013 405.339C400.4 404.819 400.908 404.415 401.534 404.125C402.165 403.835 402.857 403.69 403.611 403.69C404.421 403.69 405.116 403.854 405.695 404.182C406.275 404.506 406.72 404.934 407.031 405.467C407.342 406 407.498 406.575 407.498 407.193C407.498 407.93 407.304 408.559 406.916 409.079C406.533 409.598 406.01 409.959 405.35 410.159V410.261C406.177 410.397 406.822 410.749 407.287 411.316C407.751 411.878 407.984 412.575 407.984 413.406C407.984 414.118 407.79 414.757 407.402 415.324C407.018 415.886 406.494 416.329 405.829 416.653C405.165 416.977 404.408 417.139 403.56 417.139ZM415.588 417.139C414.625 417.139 413.804 416.877 413.127 416.353C412.449 415.824 411.931 415.059 411.574 414.058C411.216 413.052 411.037 411.838 411.037 410.415C411.037 409 411.216 407.792 411.574 406.79C411.936 405.785 412.456 405.017 413.133 404.489C413.815 403.956 414.633 403.69 415.588 403.69C416.542 403.69 417.358 403.956 418.036 404.489C418.718 405.017 419.238 405.785 419.596 406.79C419.958 407.792 420.139 409 420.139 410.415C420.139 411.838 419.96 413.052 419.602 414.058C419.244 415.059 418.726 415.824 418.049 416.353C417.371 416.877 416.551 417.139 415.588 417.139ZM415.588 415.733C416.542 415.733 417.284 415.272 417.812 414.352C418.341 413.432 418.605 412.119 418.605 410.415C418.605 409.281 418.483 408.316 418.24 407.519C418.002 406.722 417.657 406.115 417.205 405.697C416.757 405.28 416.218 405.071 415.588 405.071C414.642 405.071 413.902 405.537 413.37 406.471C412.837 407.4 412.571 408.714 412.571 410.415C412.571 411.548 412.69 412.511 412.929 413.304C413.167 414.096 413.51 414.699 413.958 415.113C414.409 415.526 414.953 415.733 415.588 415.733ZM427.558 417.139C426.595 417.139 425.774 416.877 425.097 416.353C424.419 415.824 423.901 415.059 423.544 414.058C423.186 413.052 423.007 411.838 423.007 410.415C423.007 409 423.186 407.792 423.544 406.79C423.906 405.785 424.426 405.017 425.103 404.489C425.785 403.956 426.603 403.69 427.558 403.69C428.512 403.69 429.328 403.956 430.006 404.489C430.688 405.017 431.208 405.785 431.566 406.79C431.928 407.792 432.109 409 432.109 410.415C432.109 411.838 431.93 413.052 431.572 414.058C431.214 415.059 430.696 415.824 430.019 416.353C429.341 416.877 428.521 417.139 427.558 417.139ZM427.558 415.733C428.512 415.733 429.254 415.272 429.782 414.352C430.311 413.432 430.575 412.119 430.575 410.415C430.575 409.281 430.453 408.316 430.21 407.519C429.972 406.722 429.627 406.115 429.175 405.697C428.727 405.28 428.188 405.071 427.558 405.071C426.612 405.071 425.872 405.537 425.34 406.471C424.807 407.4 424.541 408.714 424.541 410.415C424.541 411.548 424.66 412.511 424.899 413.304C425.137 414.096 425.48 414.699 425.928 415.113C426.379 415.526 426.923 415.733 427.558 415.733ZM443.133 406.963L442.698 408.446H434.414L434.849 406.963H443.133ZM439.246 416.96L434.568 411.233L434.542 410.159H436.869C437.474 410.159 437.989 410.074 438.416 409.903C438.842 409.728 439.168 409.468 439.394 409.123C439.619 408.774 439.732 408.335 439.732 407.807C439.732 407.027 439.498 406.415 439.029 405.972C438.56 405.525 437.84 405.301 436.869 405.301H434.414L434.849 403.869H436.869C437.908 403.869 438.761 404.042 439.425 404.387C440.094 404.728 440.589 405.196 440.908 405.793C441.232 406.385 441.394 407.057 441.394 407.807C441.394 408.484 441.245 409.108 440.947 409.679C440.653 410.246 440.18 410.702 439.528 411.047C438.88 411.392 438.023 411.565 436.958 411.565H436.92L441.241 416.858V416.96H439.246ZM443.133 403.869L442.698 405.352L436.178 405.301L436.613 403.869H443.133Z" fill="#C7DAD9"/>
<rect x="40" y="462.46" width="420" height="57" rx="8" fill="#D6CA8A" fill-opacity="0.24"/>
<path d="M56.688 491.376C56.688 490.288 56.9333 489.312 57.424 488.448C57.9147 487.573 58.5813 486.891 59.424 486.4C60.2773 485.909 61.2213 485.664 62.256 485.664C63.472 485.664 64.5333 485.957 65.44 486.544C66.3467 487.131 67.008 487.963 67.424 489.04H65.68C65.3707 488.368 64.9227 487.851 64.336 487.488C63.76 487.125 63.0667 486.944 62.256 486.944C61.4773 486.944 60.7787 487.125 60.16 487.488C59.5413 487.851 59.056 488.368 58.704 489.04C58.352 489.701 58.176 490.48 58.176 491.376C58.176 492.261 58.352 493.04 58.704 493.712C59.056 494.373 59.5413 494.885 60.16 495.248C60.7787 495.611 61.4773 495.792 62.256 495.792C63.0667 495.792 63.76 495.616 64.336 495.264C64.9227 494.901 65.3707 494.384 65.68 493.712H67.424C67.008 494.779 66.3467 495.605 65.44 496.192C64.5333 496.768 63.472 497.056 62.256 497.056C61.2213 497.056 60.2773 496.816 59.424 496.336C58.5813 495.845 57.9147 495.168 57.424 494.304C56.9333 493.44 56.688 492.464 56.688 491.376ZM71.0474 485.12V496.96H69.5914V485.12H71.0474ZM77.3529 497.104C76.5315 497.104 75.7849 496.917 75.1129 496.544C74.4515 496.171 73.9289 495.643 73.5449 494.96C73.1715 494.267 72.9849 493.467 72.9849 492.56C72.9849 491.664 73.1769 490.875 73.5609 490.192C73.9555 489.499 74.4889 488.971 75.1609 488.608C75.8329 488.235 76.5849 488.048 77.4169 488.048C78.2489 488.048 79.0009 488.235 79.6729 488.608C80.3449 488.971 80.8729 489.493 81.2569 490.176C81.6515 490.859 81.8489 491.653 81.8489 492.56C81.8489 493.467 81.6462 494.267 81.2409 494.96C80.8462 495.643 80.3075 496.171 79.6249 496.544C78.9422 496.917 78.1849 497.104 77.3529 497.104ZM77.3529 495.824C77.8755 495.824 78.3662 495.701 78.8249 495.456C79.2835 495.211 79.6515 494.843 79.9289 494.352C80.2169 493.861 80.3609 493.264 80.3609 492.56C80.3609 491.856 80.2222 491.259 79.9449 490.768C79.6675 490.277 79.3049 489.915 78.8569 489.68C78.4089 489.435 77.9235 489.312 77.4009 489.312C76.8675 489.312 76.3769 489.435 75.9289 489.68C75.4915 489.915 75.1395 490.277 74.8729 490.768C74.6062 491.259 74.4729 491.856 74.4729 492.56C74.4729 493.275 74.6009 493.877 74.8569 494.368C75.1235 494.859 75.4755 495.227 75.9129 495.472C76.3502 495.707 76.8302 495.824 77.3529 495.824ZM86.8673 497.104C86.1953 497.104 85.5926 496.992 85.0593 496.768C84.5259 496.533 84.1046 496.213 83.7953 495.808C83.4859 495.392 83.3153 494.917 83.2833 494.384H84.7873C84.8299 494.821 85.0326 495.179 85.3953 495.456C85.7686 495.733 86.2539 495.872 86.8513 495.872C87.4059 495.872 87.8433 495.749 88.1633 495.504C88.4833 495.259 88.6433 494.949 88.6433 494.576C88.6433 494.192 88.4726 493.909 88.1313 493.728C87.7899 493.536 87.2619 493.349 86.5473 493.168C85.8966 492.997 85.3633 492.827 84.9473 492.656C84.5419 492.475 84.1899 492.213 83.8913 491.872C83.6033 491.52 83.4593 491.061 83.4593 490.496C83.4593 490.048 83.5926 489.637 83.8593 489.264C84.1259 488.891 84.5046 488.597 84.9953 488.384C85.4859 488.16 86.0459 488.048 86.6753 488.048C87.6459 488.048 88.4299 488.293 89.0273 488.784C89.6246 489.275 89.9446 489.947 89.9873 490.8H88.5313C88.4993 490.341 88.3126 489.973 87.9713 489.696C87.6406 489.419 87.1926 489.28 86.6273 489.28C86.1046 489.28 85.6886 489.392 85.3793 489.616C85.0699 489.84 84.9153 490.133 84.9153 490.496C84.9153 490.784 85.0059 491.024 85.1873 491.216C85.3793 491.397 85.6139 491.547 85.8913 491.664C86.1793 491.771 86.5739 491.893 87.0753 492.032C87.7046 492.203 88.2166 492.373 88.6113 492.544C89.0059 492.704 89.3419 492.949 89.6193 493.28C89.9073 493.611 90.0566 494.043 90.0673 494.576C90.0673 495.056 89.9339 495.488 89.6673 495.872C89.4006 496.256 89.0219 496.56 88.5313 496.784C88.0513 496.997 87.4966 497.104 86.8673 497.104ZM92.8746 486.768C92.5973 486.768 92.3626 486.672 92.1706 486.48C91.9786 486.288 91.8826 486.053 91.8826 485.776C91.8826 485.499 91.9786 485.264 92.1706 485.072C92.3626 484.88 92.5973 484.784 92.8746 484.784C93.1413 484.784 93.3653 484.88 93.5466 485.072C93.7386 485.264 93.8346 485.499 93.8346 485.776C93.8346 486.053 93.7386 486.288 93.5466 486.48C93.3653 486.672 93.1413 486.768 92.8746 486.768ZM93.5786 488.192V496.96H92.1226V488.192H93.5786ZM100.332 488.032C101.399 488.032 102.263 488.357 102.924 489.008C103.585 489.648 103.916 490.576 103.916 491.792V496.96H102.476V492C102.476 491.125 102.257 490.459 101.82 490C101.383 489.531 100.785 489.296 100.028 489.296C99.2601 489.296 98.6468 489.536 98.1881 490.016C97.7401 490.496 97.5161 491.195 97.5161 492.112V496.96H96.0601V488.192H97.5161V489.44C97.8041 488.992 98.1935 488.645 98.6841 488.4C99.1855 488.155 99.7348 488.032 100.332 488.032ZM109.911 488.048C110.668 488.048 111.329 488.213 111.895 488.544C112.471 488.875 112.897 489.291 113.175 489.792V488.192H114.647V497.152C114.647 497.952 114.476 498.661 114.135 499.28C113.793 499.909 113.303 500.4 112.663 500.752C112.033 501.104 111.297 501.28 110.455 501.28C109.303 501.28 108.343 501.008 107.575 500.464C106.807 499.92 106.353 499.179 106.215 498.24H107.655C107.815 498.773 108.145 499.2 108.647 499.52C109.148 499.851 109.751 500.016 110.455 500.016C111.255 500.016 111.905 499.765 112.407 499.264C112.919 498.763 113.175 498.059 113.175 497.152V495.312C112.887 495.824 112.46 496.251 111.895 496.592C111.329 496.933 110.668 497.104 109.911 497.104C109.132 497.104 108.423 496.912 107.783 496.528C107.153 496.144 106.657 495.605 106.295 494.912C105.932 494.219 105.751 493.429 105.751 492.544C105.751 491.648 105.932 490.864 106.295 490.192C106.657 489.509 107.153 488.981 107.783 488.608C108.423 488.235 109.132 488.048 109.911 488.048ZM113.175 492.56C113.175 491.899 113.041 491.323 112.775 490.832C112.508 490.341 112.145 489.968 111.687 489.712C111.239 489.445 110.743 489.312 110.199 489.312C109.655 489.312 109.159 489.44 108.711 489.696C108.263 489.952 107.905 490.325 107.639 490.816C107.372 491.307 107.239 491.883 107.239 492.544C107.239 493.216 107.372 493.803 107.639 494.304C107.905 494.795 108.263 495.173 108.711 495.44C109.159 495.696 109.655 495.824 110.199 495.824C110.743 495.824 111.239 495.696 111.687 495.44C112.145 495.173 112.508 494.795 112.775 494.304C113.041 493.803 113.175 493.221 113.175 492.56ZM122.829 489.824C123.127 489.301 123.565 488.875 124.141 488.544C124.717 488.213 125.373 488.048 126.109 488.048C126.898 488.048 127.607 488.235 128.237 488.608C128.866 488.981 129.362 489.509 129.725 490.192C130.087 490.864 130.269 491.648 130.269 492.544C130.269 493.429 130.087 494.219 129.725 494.912C129.362 495.605 128.861 496.144 128.221 496.528C127.591 496.912 126.887 497.104 126.109 497.104C125.351 497.104 124.685 496.939 124.109 496.608C123.543 496.277 123.117 495.856 122.829 495.344V496.96H121.373V485.12H122.829V489.824ZM128.781 492.544C128.781 491.883 128.647 491.307 128.381 490.816C128.114 490.325 127.751 489.952 127.293 489.696C126.845 489.44 126.349 489.312 125.805 489.312C125.271 489.312 124.775 489.445 124.317 489.712C123.869 489.968 123.506 490.347 123.229 490.848C122.962 491.339 122.829 491.909 122.829 492.56C122.829 493.221 122.962 493.803 123.229 494.304C123.506 494.795 123.869 495.173 124.317 495.44C124.775 495.696 125.271 495.824 125.805 495.824C126.349 495.824 126.845 495.696 127.293 495.44C127.751 495.173 128.114 494.795 128.381 494.304C128.647 493.803 128.781 493.216 128.781 492.544ZM131.641 492.544C131.641 491.648 131.822 490.864 132.185 490.192C132.548 489.509 133.044 488.981 133.673 488.608C134.313 488.235 135.022 488.048 135.801 488.048C136.569 488.048 137.236 488.213 137.801 488.544C138.366 488.875 138.788 489.291 139.065 489.792V488.192H140.537V496.96H139.065V495.328C138.777 495.84 138.345 496.267 137.769 496.608C137.204 496.939 136.542 497.104 135.785 497.104C135.006 497.104 134.302 496.912 133.673 496.528C133.044 496.144 132.548 495.605 132.185 494.912C131.822 494.219 131.641 493.429 131.641 492.544ZM139.065 492.56C139.065 491.899 138.932 491.323 138.665 490.832C138.398 490.341 138.036 489.968 137.577 489.712C137.129 489.445 136.633 489.312 136.089 489.312C135.545 489.312 135.049 489.44 134.601 489.696C134.153 489.952 133.796 490.325 133.529 490.816C133.262 491.307 133.129 491.883 133.129 492.544C133.129 493.216 133.262 493.803 133.529 494.304C133.796 494.795 134.153 495.173 134.601 495.44C135.049 495.696 135.545 495.824 136.089 495.824C136.633 495.824 137.129 495.696 137.577 495.44C138.036 495.173 138.398 494.795 138.665 494.304C138.932 493.803 139.065 493.221 139.065 492.56ZM144.454 485.12V496.96H142.998V485.12H144.454ZM146.391 492.544C146.391 491.648 146.572 490.864 146.935 490.192C147.298 489.509 147.794 488.981 148.423 488.608C149.063 488.235 149.772 488.048 150.551 488.048C151.319 488.048 151.986 488.213 152.551 488.544C153.116 488.875 153.538 489.291 153.815 489.792V488.192H155.287V496.96H153.815V495.328C153.527 495.84 153.095 496.267 152.519 496.608C151.954 496.939 151.292 497.104 150.535 497.104C149.756 497.104 149.052 496.912 148.423 496.528C147.794 496.144 147.298 495.605 146.935 494.912C146.572 494.219 146.391 493.429 146.391 492.544ZM153.815 492.56C153.815 491.899 153.682 491.323 153.415 490.832C153.148 490.341 152.786 489.968 152.327 489.712C151.879 489.445 151.383 489.312 150.839 489.312C150.295 489.312 149.799 489.44 149.351 489.696C148.903 489.952 148.546 490.325 148.279 490.816C148.012 491.307 147.879 491.883 147.879 492.544C147.879 493.216 148.012 493.803 148.279 494.304C148.546 494.795 148.903 495.173 149.351 495.44C149.799 495.696 150.295 495.824 150.839 495.824C151.383 495.824 151.879 495.696 152.327 495.44C152.786 495.173 153.148 494.795 153.415 494.304C153.682 493.803 153.815 493.221 153.815 492.56ZM162.02 488.032C163.086 488.032 163.95 488.357 164.612 489.008C165.273 489.648 165.604 490.576 165.604 491.792V496.96H164.164V492C164.164 491.125 163.945 490.459 163.508 490C163.07 489.531 162.473 489.296 161.716 489.296C160.948 489.296 160.334 489.536 159.876 490.016C159.428 490.496 159.204 491.195 159.204 492.112V496.96H157.748V488.192H159.204V489.44C159.492 488.992 159.881 488.645 160.372 488.4C160.873 488.155 161.422 488.032 162.02 488.032ZM167.438 492.56C167.438 491.653 167.619 490.864 167.982 490.192C168.345 489.509 168.846 488.981 169.486 488.608C170.137 488.235 170.878 488.048 171.71 488.048C172.787 488.048 173.673 488.309 174.366 488.832C175.07 489.355 175.534 490.08 175.758 491.008H174.19C174.041 490.475 173.747 490.053 173.31 489.744C172.883 489.435 172.35 489.28 171.71 489.28C170.878 489.28 170.206 489.568 169.694 490.144C169.182 490.709 168.926 491.515 168.926 492.56C168.926 493.616 169.182 494.432 169.694 495.008C170.206 495.584 170.878 495.872 171.71 495.872C172.35 495.872 172.883 495.723 173.31 495.424C173.737 495.125 174.03 494.699 174.19 494.144H175.758C175.523 495.04 175.054 495.76 174.35 496.304C173.646 496.837 172.766 497.104 171.71 497.104C170.878 497.104 170.137 496.917 169.486 496.544C168.846 496.171 168.345 495.643 167.982 494.96C167.619 494.277 167.438 493.477 167.438 492.56ZM185.701 492.24C185.701 492.517 185.685 492.811 185.653 493.12H178.645C178.698 493.984 178.991 494.661 179.525 495.152C180.069 495.632 180.725 495.872 181.493 495.872C182.122 495.872 182.645 495.728 183.061 495.44C183.487 495.141 183.786 494.747 183.957 494.256H185.525C185.29 495.099 184.821 495.787 184.117 496.32C183.413 496.843 182.538 497.104 181.493 497.104C180.661 497.104 179.914 496.917 179.253 496.544C178.602 496.171 178.09 495.643 177.717 494.96C177.343 494.267 177.157 493.467 177.157 492.56C177.157 491.653 177.338 490.859 177.701 490.176C178.063 489.493 178.57 488.971 179.221 488.608C179.882 488.235 180.639 488.048 181.493 488.048C182.325 488.048 183.061 488.229 183.701 488.592C184.341 488.955 184.831 489.456 185.173 490.096C185.525 490.725 185.701 491.44 185.701 492.24ZM184.197 491.936C184.197 491.381 184.074 490.907 183.829 490.512C183.583 490.107 183.247 489.803 182.821 489.6C182.405 489.387 181.941 489.28 181.429 489.28C180.693 489.28 180.063 489.515 179.541 489.984C179.029 490.453 178.735 491.104 178.661 491.936H184.197Z" fill="#EFEAD0"/>
<path d="M377.764 497.46L383.619 485.878V485.775H376.869V484.369H385.256V485.852L379.426 497.46H377.764ZM392.961 484.369V497.46H391.375V486.031H391.299L388.103 488.153V486.542L391.375 484.369H392.961ZM398.948 495.67L398.845 496.361C398.773 496.846 398.662 497.366 398.513 497.92C398.368 498.474 398.217 498.996 398.059 499.486C397.901 499.976 397.771 500.366 397.669 500.656H396.519C396.574 500.383 396.646 500.023 396.736 499.576C396.825 499.128 396.915 498.628 397.004 498.074C397.098 497.524 397.175 496.961 397.235 496.386L397.311 495.67H398.948ZM406.25 497.639C405.287 497.639 404.466 497.377 403.789 496.853C403.111 496.324 402.594 495.559 402.236 494.558C401.878 493.552 401.699 492.338 401.699 490.915C401.699 489.5 401.878 488.292 402.236 487.29C402.598 486.285 403.118 485.517 403.795 484.989C404.477 484.456 405.295 484.19 406.25 484.19C407.204 484.19 408.02 484.456 408.698 484.989C409.38 485.517 409.9 486.285 410.258 487.29C410.62 488.292 410.801 489.5 410.801 490.915C410.801 492.338 410.622 493.552 410.264 494.558C409.906 495.559 409.388 496.324 408.711 496.853C408.033 497.377 407.213 497.639 406.25 497.639ZM406.25 496.233C407.204 496.233 407.946 495.772 408.474 494.852C409.003 493.932 409.267 492.619 409.267 490.915C409.267 489.781 409.145 488.816 408.903 488.019C408.664 487.222 408.319 486.615 407.867 486.197C407.42 485.78 406.881 485.571 406.25 485.571C405.304 485.571 404.564 486.037 404.032 486.971C403.499 487.9 403.233 489.214 403.233 490.915C403.233 492.048 403.352 493.011 403.591 493.804C403.829 494.596 404.172 495.199 404.62 495.613C405.072 496.026 405.615 496.233 406.25 496.233ZM418.22 497.639C417.257 497.639 416.436 497.377 415.759 496.853C415.081 496.324 414.564 495.559 414.206 494.558C413.848 493.552 413.669 492.338 413.669 490.915C413.669 489.5 413.848 488.292 414.206 487.29C414.568 486.285 415.088 485.517 415.765 484.989C416.447 484.456 417.265 484.19 418.22 484.19C419.174 484.19 419.99 484.456 420.668 484.989C421.35 485.517 421.87 486.285 422.228 487.29C422.59 488.292 422.771 489.5 422.771 490.915C422.771 492.338 422.592 493.552 422.234 494.558C421.876 495.559 421.358 496.324 420.681 496.853C420.003 497.377 419.183 497.639 418.22 497.639ZM418.22 496.233C419.174 496.233 419.916 495.772 420.444 494.852C420.973 493.932 421.237 492.619 421.237 490.915C421.237 489.781 421.115 488.816 420.873 488.019C420.634 487.222 420.289 486.615 419.837 486.197C419.39 485.78 418.851 485.571 418.22 485.571C417.274 485.571 416.534 486.037 416.002 486.971C415.469 487.9 415.203 489.214 415.203 490.915C415.203 492.048 415.322 493.011 415.561 493.804C415.799 494.596 416.142 495.199 416.59 495.613C417.042 496.026 417.585 496.233 418.22 496.233ZM430.522 484.369V497.46H428.937V486.031H428.86L425.664 488.153V486.542L428.937 484.369H430.522ZM442.882 487.463L442.447 488.946H434.163L434.598 487.463H442.882ZM438.996 497.46L434.317 491.733L434.291 490.659H436.618C437.223 490.659 437.739 490.574 438.165 490.403C438.591 490.228 438.917 489.968 439.143 489.623C439.369 489.274 439.482 488.835 439.482 488.307C439.482 487.527 439.247 486.915 438.778 486.472C438.31 486.025 437.59 485.801 436.618 485.801H434.163L434.598 484.369H436.618C437.658 484.369 438.51 484.542 439.175 484.887C439.844 485.228 440.338 485.696 440.658 486.293C440.982 486.885 441.144 487.557 441.144 488.307C441.144 488.984 440.994 489.608 440.696 490.179C440.402 490.746 439.929 491.202 439.277 491.547C438.629 491.892 437.773 492.065 436.707 492.065H436.669L440.99 497.358V497.46H438.996ZM442.882 484.369L442.447 485.852L435.928 485.801L436.362 484.369H442.882Z" fill="#EFEAD0"/>
<defs>
<linearGradient id="paint0_linear_2756_18660" x1="250" y1="0" x2="250" y2="560" gradientUnits="userSpaceOnUse">
<stop stop-color="#00B2B1"/>
<stop offset="1" stop-color="white"/>
</linearGradient>
<linearGradient id="paint1_linear_2756_18660" x1="19.3966" y1="40.6452" x2="480.073" y2="65.4313" gradientUnits="userSpaceOnUse">
<stop offset="0.159213" stop-color="#D6CA8A"/>
<stop offset="1" stop-color="#00B2B1"/>
</linearGradient>
<linearGradient id="paint2_linear_2756_18660" x1="76" y1="97.46" x2="76" y2="57.46" gradientUnits="userSpaceOnUse">
<stop stop-color="#2D4949"/>
<stop offset="1" stop-color="#31B3B3"/>
</linearGradient>
<linearGradient id="paint3_linear_2756_18660" x1="57.5517" y1="60.3632" x2="94.3788" y2="62.5824" gradientUnits="userSpaceOnUse">
<stop offset="0.159213" stop-color="#D6CA8A"/>
<stop offset="1" stop-color="#00B2B1"/>
</linearGradient>
<linearGradient id="paint4_linear_2756_18660" x1="424" y1="97.46" x2="424" y2="57.46" gradientUnits="userSpaceOnUse">
<stop stop-color="#2D4949"/>
<stop offset="1" stop-color="#31B3B3"/>
</linearGradient>
<linearGradient id="paint5_linear_2756_18660" x1="405.552" y1="60.3632" x2="442.379" y2="62.5824" gradientUnits="userSpaceOnUse">
<stop stop-color="#00B2B1"/>
<stop offset="0.840787" stop-color="#D6CA8A"/>
</linearGradient>
<linearGradient id="paint6_linear_2756_18660" x1="72" y1="262.46" x2="72" y2="222.46" gradientUnits="userSpaceOnUse">
<stop stop-color="#2D4949"/>
<stop offset="1" stop-color="#31B3B3"/>
</linearGradient>
<linearGradient id="paint7_linear_2756_18660" x1="72" y1="346.46" x2="72" y2="306.46" gradientUnits="userSpaceOnUse">
<stop stop-color="#2D4949"/>
<stop offset="1" stop-color="#31B3B3"/>
</linearGradient>
<linearGradient id="paint8_linear_2756_18660" x1="72" y1="430.46" x2="72" y2="390.46" gradientUnits="userSpaceOnUse">
<stop stop-color="#2D4949"/>
<stop offset="1" stop-color="#31B3B3"/>
</linearGradient>
</defs>
</svg>
