<svg width="500" height="560" viewBox="0 0 500 560" fill="none" xmlns="http://www.w3.org/2000/svg">
<rect x="0.25" y="0.25" width="499.5" height="559.5" rx="15.75" stroke="url(#paint0_linear_1434_2015)" stroke-width="0.5"/>
<path d="M93.5 153.5L124 119" stroke="url(#paint1_linear_1434_2015)" stroke-miterlimit="10"/>
<path d="M140.5 211.5L184.5 199.5" stroke="url(#paint2_linear_1434_2015)" stroke-miterlimit="10"/>
<path d="M158.5 281H201" stroke="url(#paint3_linear_1434_2015)" stroke-miterlimit="10"/>
<path d="M142.918 344.169L190.001 362" stroke="url(#paint4_linear_1434_2015)" stroke-miterlimit="10"/>
<path d="M93.5 407L124 441.5" stroke="url(#paint5_linear_1434_2015)" stroke-miterlimit="10"/>
<rect x="130.5" y="91.5" width="290" height="47" rx="23.5" fill="url(#paint6_linear_1434_2015)"/>
<rect x="130.5" y="91.5" width="290" height="47" rx="23.5" stroke="url(#paint7_linear_1434_2015)"/>
<path d="M154.688 115.416C154.688 114.328 154.933 113.352 155.424 112.488C155.915 111.613 156.581 110.931 157.424 110.44C158.277 109.949 159.221 109.704 160.256 109.704C161.472 109.704 162.533 109.997 163.44 110.584C164.347 111.171 165.008 112.003 165.424 113.08H163.68C163.371 112.408 162.923 111.891 162.336 111.528C161.76 111.165 161.067 110.984 160.256 110.984C159.477 110.984 158.779 111.165 158.16 111.528C157.541 111.891 157.056 112.408 156.704 113.08C156.352 113.741 156.176 114.52 156.176 115.416C156.176 116.301 156.352 117.08 156.704 117.752C157.056 118.413 157.541 118.925 158.16 119.288C158.779 119.651 159.477 119.832 160.256 119.832C161.067 119.832 161.76 119.656 162.336 119.304C162.923 118.941 163.371 118.424 163.68 117.752H165.424C165.008 118.819 164.347 119.645 163.44 120.232C162.533 120.808 161.472 121.096 160.256 121.096C159.221 121.096 158.277 120.856 157.424 120.376C156.581 119.885 155.915 119.208 155.424 118.344C154.933 117.48 154.688 116.504 154.688 115.416ZM175.867 112.232V121H174.411V119.704C174.134 120.152 173.745 120.504 173.243 120.76C172.753 121.005 172.209 121.128 171.611 121.128C170.929 121.128 170.315 120.989 169.771 120.712C169.227 120.424 168.795 119.997 168.475 119.432C168.166 118.867 168.011 118.179 168.011 117.368V112.232H169.451V117.176C169.451 118.04 169.67 118.707 170.107 119.176C170.545 119.635 171.142 119.864 171.899 119.864C172.678 119.864 173.291 119.624 173.739 119.144C174.187 118.664 174.411 117.965 174.411 117.048V112.232H175.867ZM181.93 121.144C181.258 121.144 180.655 121.032 180.122 120.808C179.588 120.573 179.167 120.253 178.858 119.848C178.548 119.432 178.378 118.957 178.346 118.424H179.85C179.892 118.861 180.095 119.219 180.458 119.496C180.831 119.773 181.316 119.912 181.914 119.912C182.468 119.912 182.906 119.789 183.226 119.544C183.546 119.299 183.706 118.989 183.706 118.616C183.706 118.232 183.535 117.949 183.194 117.768C182.852 117.576 182.324 117.389 181.61 117.208C180.959 117.037 180.426 116.867 180.01 116.696C179.604 116.515 179.252 116.253 178.954 115.912C178.666 115.56 178.522 115.101 178.522 114.536C178.522 114.088 178.655 113.677 178.922 113.304C179.188 112.931 179.567 112.637 180.058 112.424C180.548 112.2 181.108 112.088 181.738 112.088C182.708 112.088 183.492 112.333 184.09 112.824C184.687 113.315 185.007 113.987 185.05 114.84H183.594C183.562 114.381 183.375 114.013 183.034 113.736C182.703 113.459 182.255 113.32 181.69 113.32C181.167 113.32 180.751 113.432 180.442 113.656C180.132 113.88 179.978 114.173 179.978 114.536C179.978 114.824 180.068 115.064 180.25 115.256C180.442 115.437 180.676 115.587 180.954 115.704C181.242 115.811 181.636 115.933 182.138 116.072C182.767 116.243 183.279 116.413 183.674 116.584C184.068 116.744 184.404 116.989 184.682 117.32C184.97 117.651 185.119 118.083 185.13 118.616C185.13 119.096 184.996 119.528 184.73 119.912C184.463 120.296 184.084 120.6 183.594 120.824C183.114 121.037 182.559 121.144 181.93 121.144ZM189.461 113.432V118.6C189.461 119.027 189.552 119.331 189.733 119.512C189.914 119.683 190.229 119.768 190.677 119.768H191.749V121H190.437C189.626 121 189.018 120.813 188.613 120.44C188.208 120.067 188.005 119.453 188.005 118.6V113.432H186.869V112.232H188.005V110.024H189.461V112.232H191.749V113.432H189.461ZM197.837 121.144C197.016 121.144 196.269 120.957 195.597 120.584C194.936 120.211 194.413 119.683 194.029 119C193.656 118.307 193.469 117.507 193.469 116.6C193.469 115.704 193.661 114.915 194.045 114.232C194.44 113.539 194.973 113.011 195.645 112.648C196.317 112.275 197.069 112.088 197.901 112.088C198.733 112.088 199.485 112.275 200.157 112.648C200.829 113.011 201.357 113.533 201.741 114.216C202.136 114.899 202.333 115.693 202.333 116.6C202.333 117.507 202.131 118.307 201.725 119C201.331 119.683 200.792 120.211 200.109 120.584C199.427 120.957 198.669 121.144 197.837 121.144ZM197.837 119.864C198.36 119.864 198.851 119.741 199.309 119.496C199.768 119.251 200.136 118.883 200.413 118.392C200.701 117.901 200.845 117.304 200.845 116.6C200.845 115.896 200.707 115.299 200.429 114.808C200.152 114.317 199.789 113.955 199.341 113.72C198.893 113.475 198.408 113.352 197.885 113.352C197.352 113.352 196.861 113.475 196.413 113.72C195.976 113.955 195.624 114.317 195.357 114.808C195.091 115.299 194.957 115.896 194.957 116.6C194.957 117.315 195.085 117.917 195.341 118.408C195.608 118.899 195.96 119.267 196.397 119.512C196.835 119.747 197.315 119.864 197.837 119.864ZM215.292 112.072C215.974 112.072 216.582 112.216 217.116 112.504C217.649 112.781 218.07 113.203 218.38 113.768C218.689 114.333 218.844 115.021 218.844 115.832V121H217.404V116.04C217.404 115.165 217.185 114.499 216.748 114.04C216.321 113.571 215.74 113.336 215.004 113.336C214.246 113.336 213.644 113.581 213.196 114.072C212.748 114.552 212.524 115.251 212.524 116.168V121H211.084V116.04C211.084 115.165 210.865 114.499 210.428 114.04C210.001 113.571 209.42 113.336 208.684 113.336C207.926 113.336 207.324 113.581 206.876 114.072C206.428 114.552 206.204 115.251 206.204 116.168V121H204.748V112.232H206.204V113.496C206.492 113.037 206.876 112.685 207.356 112.44C207.846 112.195 208.385 112.072 208.972 112.072C209.708 112.072 210.358 112.237 210.924 112.568C211.489 112.899 211.91 113.384 212.188 114.024C212.433 113.405 212.838 112.925 213.404 112.584C213.969 112.243 214.598 112.072 215.292 112.072ZM222.484 110.808C222.207 110.808 221.972 110.712 221.78 110.52C221.588 110.328 221.492 110.093 221.492 109.816C221.492 109.539 221.588 109.304 221.78 109.112C221.972 108.92 222.207 108.824 222.484 108.824C222.751 108.824 222.975 108.92 223.156 109.112C223.348 109.304 223.444 109.539 223.444 109.816C223.444 110.093 223.348 110.328 223.156 110.52C222.975 110.712 222.751 110.808 222.484 110.808ZM223.188 112.232V121H221.732V112.232H223.188ZM227.258 119.8H231.562V121H225.594V119.8L229.85 113.416H225.626V112.232H231.53V113.416L227.258 119.8ZM241.951 116.28C241.951 116.557 241.935 116.851 241.903 117.16H234.895C234.948 118.024 235.241 118.701 235.775 119.192C236.319 119.672 236.975 119.912 237.743 119.912C238.372 119.912 238.895 119.768 239.311 119.48C239.737 119.181 240.036 118.787 240.207 118.296H241.775C241.54 119.139 241.071 119.827 240.367 120.36C239.663 120.883 238.788 121.144 237.743 121.144C236.911 121.144 236.164 120.957 235.503 120.584C234.852 120.211 234.34 119.683 233.967 119C233.593 118.307 233.407 117.507 233.407 116.6C233.407 115.693 233.588 114.899 233.951 114.216C234.313 113.533 234.82 113.011 235.471 112.648C236.132 112.275 236.889 112.088 237.743 112.088C238.575 112.088 239.311 112.269 239.951 112.632C240.591 112.995 241.081 113.496 241.423 114.136C241.775 114.765 241.951 115.48 241.951 116.28ZM240.447 115.976C240.447 115.421 240.324 114.947 240.079 114.552C239.833 114.147 239.497 113.843 239.071 113.64C238.655 113.427 238.191 113.32 237.679 113.32C236.943 113.32 236.313 113.555 235.791 114.024C235.279 114.493 234.985 115.144 234.911 115.976H240.447ZM243.829 116.584C243.829 115.688 244.01 114.904 244.373 114.232C244.735 113.549 245.231 113.021 245.861 112.648C246.501 112.275 247.215 112.088 248.005 112.088C248.687 112.088 249.322 112.248 249.909 112.568C250.495 112.877 250.943 113.288 251.253 113.8V109.16H252.725V121H251.253V119.352C250.965 119.875 250.538 120.307 249.973 120.648C249.407 120.979 248.746 121.144 247.989 121.144C247.21 121.144 246.501 120.952 245.861 120.568C245.231 120.184 244.735 119.645 244.373 118.952C244.01 118.259 243.829 117.469 243.829 116.584ZM251.253 116.6C251.253 115.939 251.119 115.363 250.853 114.872C250.586 114.381 250.223 114.008 249.765 113.752C249.317 113.485 248.821 113.352 248.277 113.352C247.733 113.352 247.237 113.48 246.789 113.736C246.341 113.992 245.983 114.365 245.717 114.856C245.45 115.347 245.317 115.923 245.317 116.584C245.317 117.256 245.45 117.843 245.717 118.344C245.983 118.835 246.341 119.213 246.789 119.48C247.237 119.736 247.733 119.864 248.277 119.864C248.821 119.864 249.317 119.736 249.765 119.48C250.223 119.213 250.586 118.835 250.853 118.344C251.119 117.843 251.253 117.261 251.253 116.6ZM266.035 115.256C266.44 115.32 266.808 115.485 267.139 115.752C267.48 116.019 267.747 116.349 267.939 116.744C268.141 117.139 268.243 117.56 268.243 118.008C268.243 118.573 268.099 119.085 267.811 119.544C267.523 119.992 267.101 120.349 266.547 120.616C266.003 120.872 265.357 121 264.611 121H260.451V109.848H264.451C265.208 109.848 265.853 109.976 266.387 110.232C266.92 110.477 267.32 110.813 267.587 111.24C267.853 111.667 267.987 112.147 267.987 112.68C267.987 113.341 267.805 113.891 267.443 114.328C267.091 114.755 266.621 115.064 266.035 115.256ZM261.907 114.664H264.355C265.037 114.664 265.565 114.504 265.939 114.184C266.312 113.864 266.499 113.421 266.499 112.856C266.499 112.291 266.312 111.848 265.939 111.528C265.565 111.208 265.027 111.048 264.323 111.048H261.907V114.664ZM264.483 119.8C265.208 119.8 265.773 119.629 266.179 119.288C266.584 118.947 266.787 118.472 266.787 117.864C266.787 117.245 266.573 116.76 266.147 116.408C265.72 116.045 265.149 115.864 264.435 115.864H261.907V119.8H264.483ZM270.219 116.584C270.219 115.688 270.401 114.904 270.763 114.232C271.126 113.549 271.622 113.021 272.251 112.648C272.891 112.275 273.601 112.088 274.379 112.088C275.147 112.088 275.814 112.253 276.379 112.584C276.945 112.915 277.366 113.331 277.643 113.832V112.232H279.115V121H277.643V119.368C277.355 119.88 276.923 120.307 276.347 120.648C275.782 120.979 275.121 121.144 274.363 121.144C273.585 121.144 272.881 120.952 272.251 120.568C271.622 120.184 271.126 119.645 270.763 118.952C270.401 118.259 270.219 117.469 270.219 116.584ZM277.643 116.6C277.643 115.939 277.51 115.363 277.243 114.872C276.977 114.381 276.614 114.008 276.155 113.752C275.707 113.485 275.211 113.352 274.667 113.352C274.123 113.352 273.627 113.48 273.179 113.736C272.731 113.992 272.374 114.365 272.107 114.856C271.841 115.347 271.707 115.923 271.707 116.584C271.707 117.256 271.841 117.843 272.107 118.344C272.374 118.835 272.731 119.213 273.179 119.48C273.627 119.736 274.123 119.864 274.667 119.864C275.211 119.864 275.707 119.736 276.155 119.48C276.614 119.213 276.977 118.835 277.243 118.344C277.51 117.843 277.643 117.261 277.643 116.6ZM286.348 112.072C287.414 112.072 288.278 112.397 288.94 113.048C289.601 113.688 289.932 114.616 289.932 115.832V121H288.492V116.04C288.492 115.165 288.273 114.499 287.836 114.04C287.398 113.571 286.801 113.336 286.044 113.336C285.276 113.336 284.662 113.576 284.204 114.056C283.756 114.536 283.532 115.235 283.532 116.152V121H282.076V112.232H283.532V113.48C283.82 113.032 284.209 112.685 284.7 112.44C285.201 112.195 285.75 112.072 286.348 112.072ZM297.706 121L294.266 117.128V121H292.81V109.16H294.266V116.12L297.642 112.232H299.674L295.546 116.6L299.69 121H297.706ZM302.297 110.808C302.019 110.808 301.785 110.712 301.593 110.52C301.401 110.328 301.305 110.093 301.305 109.816C301.305 109.539 301.401 109.304 301.593 109.112C301.785 108.92 302.019 108.824 302.297 108.824C302.563 108.824 302.787 108.92 302.969 109.112C303.161 109.304 303.257 109.539 303.257 109.816C303.257 110.093 303.161 110.328 302.969 110.52C302.787 110.712 302.563 110.808 302.297 110.808ZM303.001 112.232V121H301.545V112.232H303.001ZM310.254 112.072C311.321 112.072 312.185 112.397 312.846 113.048C313.507 113.688 313.838 114.616 313.838 115.832V121H312.398V116.04C312.398 115.165 312.179 114.499 311.742 114.04C311.305 113.571 310.707 113.336 309.95 113.336C309.182 113.336 308.569 113.576 308.11 114.056C307.662 114.536 307.438 115.235 307.438 116.152V121H305.982V112.232H307.438V113.48C307.726 113.032 308.115 112.685 308.606 112.44C309.107 112.195 309.657 112.072 310.254 112.072ZM320.332 112.088C321.09 112.088 321.751 112.253 322.316 112.584C322.892 112.915 323.319 113.331 323.596 113.832V112.232H325.068V121.192C325.068 121.992 324.898 122.701 324.556 123.32C324.215 123.949 323.724 124.44 323.084 124.792C322.455 125.144 321.719 125.32 320.876 125.32C319.724 125.32 318.764 125.048 317.996 124.504C317.228 123.96 316.775 123.219 316.636 122.28H318.076C318.236 122.813 318.567 123.24 319.068 123.56C319.57 123.891 320.172 124.056 320.876 124.056C321.676 124.056 322.327 123.805 322.828 123.304C323.34 122.803 323.596 122.099 323.596 121.192V119.352C323.308 119.864 322.882 120.291 322.316 120.632C321.751 120.973 321.09 121.144 320.332 121.144C319.554 121.144 318.844 120.952 318.204 120.568C317.575 120.184 317.079 119.645 316.716 118.952C316.354 118.259 316.172 117.469 316.172 116.584C316.172 115.688 316.354 114.904 316.716 114.232C317.079 113.549 317.575 113.021 318.204 112.648C318.844 112.275 319.554 112.088 320.332 112.088ZM323.596 116.6C323.596 115.939 323.463 115.363 323.196 114.872C322.93 114.381 322.567 114.008 322.108 113.752C321.66 113.485 321.164 113.352 320.62 113.352C320.076 113.352 319.58 113.48 319.132 113.736C318.684 113.992 318.327 114.365 318.06 114.856C317.794 115.347 317.66 115.923 317.66 116.584C317.66 117.256 317.794 117.843 318.06 118.344C318.327 118.835 318.684 119.213 319.132 119.48C319.58 119.736 320.076 119.864 320.62 119.864C321.164 119.864 321.66 119.736 322.108 119.48C322.567 119.213 322.93 118.835 323.196 118.344C323.463 117.843 323.596 117.261 323.596 116.6ZM336.331 121.112C335.595 121.112 334.933 120.984 334.347 120.728C333.771 120.461 333.317 120.099 332.987 119.64C332.656 119.171 332.485 118.632 332.475 118.024H334.027C334.08 118.547 334.293 118.989 334.667 119.352C335.051 119.704 335.605 119.88 336.331 119.88C337.024 119.88 337.568 119.709 337.963 119.368C338.368 119.016 338.571 118.568 338.571 118.024C338.571 117.597 338.453 117.251 338.219 116.984C337.984 116.717 337.691 116.515 337.339 116.376C336.987 116.237 336.512 116.088 335.915 115.928C335.179 115.736 334.587 115.544 334.139 115.352C333.701 115.16 333.323 114.861 333.003 114.456C332.693 114.04 332.539 113.485 332.539 112.792C332.539 112.184 332.693 111.645 333.003 111.176C333.312 110.707 333.744 110.344 334.299 110.088C334.864 109.832 335.509 109.704 336.235 109.704C337.28 109.704 338.133 109.965 338.795 110.488C339.467 111.011 339.845 111.704 339.931 112.568H338.331C338.277 112.141 338.053 111.768 337.659 111.448C337.264 111.117 336.741 110.952 336.091 110.952C335.483 110.952 334.987 111.112 334.603 111.432C334.219 111.741 334.027 112.179 334.027 112.744C334.027 113.149 334.139 113.48 334.363 113.736C334.597 113.992 334.88 114.189 335.211 114.328C335.552 114.456 336.027 114.605 336.635 114.776C337.371 114.979 337.963 115.181 338.411 115.384C338.859 115.576 339.243 115.88 339.562 116.296C339.883 116.701 340.043 117.256 340.043 117.96C340.043 118.504 339.899 119.016 339.611 119.496C339.323 119.976 338.896 120.365 338.331 120.664C337.765 120.963 337.099 121.112 336.331 121.112ZM346.509 121.144C345.688 121.144 344.941 120.957 344.269 120.584C343.608 120.211 343.085 119.683 342.701 119C342.328 118.307 342.141 117.507 342.141 116.6C342.141 115.704 342.333 114.915 342.717 114.232C343.112 113.539 343.645 113.011 344.317 112.648C344.989 112.275 345.741 112.088 346.573 112.088C347.405 112.088 348.157 112.275 348.829 112.648C349.501 113.011 350.029 113.533 350.413 114.216C350.808 114.899 351.005 115.693 351.005 116.6C351.005 117.507 350.802 118.307 350.397 119C350.002 119.683 349.464 120.211 348.781 120.584C348.098 120.957 347.341 121.144 346.509 121.144ZM346.509 119.864C347.032 119.864 347.522 119.741 347.981 119.496C348.44 119.251 348.808 118.883 349.085 118.392C349.373 117.901 349.517 117.304 349.517 116.6C349.517 115.896 349.378 115.299 349.101 114.808C348.824 114.317 348.461 113.955 348.013 113.72C347.565 113.475 347.08 113.352 346.557 113.352C346.024 113.352 345.533 113.475 345.085 113.72C344.648 113.955 344.296 114.317 344.029 114.808C343.762 115.299 343.629 115.896 343.629 116.6C343.629 117.315 343.757 117.917 344.013 118.408C344.28 118.899 344.632 119.267 345.069 119.512C345.506 119.747 345.986 119.864 346.509 119.864ZM354.876 109.16V121H353.42V109.16H354.876ZM365.633 112.232V121H364.177V119.704C363.9 120.152 363.51 120.504 363.009 120.76C362.518 121.005 361.974 121.128 361.377 121.128C360.694 121.128 360.081 120.989 359.537 120.712C358.993 120.424 358.561 119.997 358.241 119.432C357.932 118.867 357.777 118.179 357.777 117.368V112.232H359.217V117.176C359.217 118.04 359.436 118.707 359.873 119.176C360.31 119.635 360.908 119.864 361.665 119.864C362.444 119.864 363.057 119.624 363.505 119.144C363.953 118.664 364.177 117.965 364.177 117.048V112.232H365.633ZM370.367 113.432V118.6C370.367 119.027 370.458 119.331 370.639 119.512C370.821 119.683 371.135 119.768 371.583 119.768H372.655V121H371.343C370.533 121 369.925 120.813 369.519 120.44C369.114 120.067 368.911 119.453 368.911 118.6V113.432H367.775V112.232H368.911V110.024H370.367V112.232H372.655V113.432H370.367ZM375.672 110.808C375.394 110.808 375.16 110.712 374.968 110.52C374.776 110.328 374.68 110.093 374.68 109.816C374.68 109.539 374.776 109.304 374.968 109.112C375.16 108.92 375.394 108.824 375.672 108.824C375.938 108.824 376.162 108.92 376.344 109.112C376.536 109.304 376.632 109.539 376.632 109.816C376.632 110.093 376.536 110.328 376.344 110.52C376.162 110.712 375.938 110.808 375.672 110.808ZM376.376 112.232V121H374.92V112.232H376.376ZM383.181 121.144C382.36 121.144 381.613 120.957 380.941 120.584C380.28 120.211 379.757 119.683 379.373 119C379 118.307 378.813 117.507 378.813 116.6C378.813 115.704 379.005 114.915 379.389 114.232C379.784 113.539 380.317 113.011 380.989 112.648C381.661 112.275 382.413 112.088 383.245 112.088C384.077 112.088 384.829 112.275 385.501 112.648C386.173 113.011 386.701 113.533 387.085 114.216C387.48 114.899 387.677 115.693 387.677 116.6C387.677 117.507 387.474 118.307 387.069 119C386.674 119.683 386.136 120.211 385.453 120.584C384.77 120.957 384.013 121.144 383.181 121.144ZM383.181 119.864C383.704 119.864 384.194 119.741 384.653 119.496C385.112 119.251 385.48 118.883 385.757 118.392C386.045 117.901 386.189 117.304 386.189 116.6C386.189 115.896 386.05 115.299 385.773 114.808C385.496 114.317 385.133 113.955 384.685 113.72C384.237 113.475 383.752 113.352 383.229 113.352C382.696 113.352 382.205 113.475 381.757 113.72C381.32 113.955 380.968 114.317 380.701 114.808C380.434 115.299 380.301 115.896 380.301 116.6C380.301 117.315 380.429 117.917 380.685 118.408C380.952 118.899 381.304 119.267 381.741 119.512C382.178 119.747 382.658 119.864 383.181 119.864ZM394.363 112.072C395.43 112.072 396.294 112.397 396.955 113.048C397.617 113.688 397.947 114.616 397.947 115.832V121H396.507V116.04C396.507 115.165 396.289 114.499 395.851 114.04C395.414 113.571 394.817 113.336 394.059 113.336C393.291 113.336 392.678 113.576 392.219 114.056C391.771 114.536 391.547 115.235 391.547 116.152V121H390.091V112.232H391.547V113.48C391.835 113.032 392.225 112.685 392.715 112.44C393.217 112.195 393.766 112.072 394.363 112.072ZM403.93 121.144C403.258 121.144 402.655 121.032 402.122 120.808C401.588 120.573 401.167 120.253 400.858 119.848C400.548 119.432 400.378 118.957 400.346 118.424H401.85C401.892 118.861 402.095 119.219 402.458 119.496C402.831 119.773 403.316 119.912 403.914 119.912C404.468 119.912 404.906 119.789 405.226 119.544C405.546 119.299 405.706 118.989 405.706 118.616C405.706 118.232 405.535 117.949 405.194 117.768C404.852 117.576 404.324 117.389 403.61 117.208C402.959 117.037 402.426 116.867 402.01 116.696C401.604 116.515 401.252 116.253 400.954 115.912C400.666 115.56 400.522 115.101 400.522 114.536C400.522 114.088 400.655 113.677 400.922 113.304C401.188 112.931 401.567 112.637 402.058 112.424C402.548 112.2 403.108 112.088 403.738 112.088C404.708 112.088 405.492 112.333 406.09 112.824C406.687 113.315 407.007 113.987 407.05 114.84H405.594C405.562 114.381 405.375 114.013 405.034 113.736C404.703 113.459 404.255 113.32 403.69 113.32C403.167 113.32 402.751 113.432 402.442 113.656C402.132 113.88 401.978 114.173 401.978 114.536C401.978 114.824 402.068 115.064 402.25 115.256C402.442 115.437 402.676 115.587 402.954 115.704C403.242 115.811 403.636 115.933 404.138 116.072C404.767 116.243 405.279 116.413 405.674 116.584C406.068 116.744 406.404 116.989 406.682 117.32C406.97 117.651 407.119 118.083 407.13 118.616C407.13 119.096 406.996 119.528 406.73 119.912C406.463 120.296 406.084 120.6 405.594 120.824C405.114 121.037 404.559 121.144 403.93 121.144Z" fill="white"/>
<path d="M142.5 118C142.5 127.665 134.665 135.5 125 135.5C115.335 135.5 107.5 127.665 107.5 118C107.5 108.335 115.335 100.5 125 100.5C134.665 100.5 142.5 108.335 142.5 118Z" fill="url(#paint8_linear_1434_2015)" stroke="url(#paint9_linear_1434_2015)"/>
<rect x="191.5" y="175.5" width="239" height="47" rx="23.5" fill="url(#paint10_linear_1434_2015)"/>
<rect x="191.5" y="175.5" width="239" height="47" rx="23.5" stroke="url(#paint11_linear_1434_2015)"/>
<path d="M221.816 199.756C222.221 199.82 222.589 199.985 222.92 200.252C223.261 200.519 223.528 200.849 223.72 201.244C223.923 201.639 224.024 202.06 224.024 202.508C224.024 203.073 223.88 203.585 223.592 204.044C223.304 204.492 222.883 204.849 222.328 205.116C221.784 205.372 221.139 205.5 220.392 205.5H216.232V194.348H220.232C220.989 194.348 221.635 194.476 222.168 194.732C222.701 194.977 223.101 195.313 223.368 195.74C223.635 196.167 223.768 196.647 223.768 197.18C223.768 197.841 223.587 198.391 223.224 198.828C222.872 199.255 222.403 199.564 221.816 199.756ZM217.688 199.164H220.136C220.819 199.164 221.347 199.004 221.72 198.684C222.093 198.364 222.28 197.921 222.28 197.356C222.28 196.791 222.093 196.348 221.72 196.028C221.347 195.708 220.808 195.548 220.104 195.548H217.688V199.164ZM220.264 204.3C220.989 204.3 221.555 204.129 221.96 203.788C222.365 203.447 222.568 202.972 222.568 202.364C222.568 201.745 222.355 201.26 221.928 200.908C221.501 200.545 220.931 200.364 220.216 200.364H217.688V204.3H220.264ZM234.321 196.732V205.5H232.865V204.204C232.587 204.652 232.198 205.004 231.697 205.26C231.206 205.505 230.662 205.628 230.065 205.628C229.382 205.628 228.769 205.489 228.225 205.212C227.681 204.924 227.249 204.497 226.929 203.932C226.619 203.367 226.465 202.679 226.465 201.868V196.732H227.905V201.676C227.905 202.54 228.123 203.207 228.561 203.676C228.998 204.135 229.595 204.364 230.353 204.364C231.131 204.364 231.745 204.124 232.193 203.644C232.641 203.164 232.865 202.465 232.865 201.548V196.732H234.321ZM240.383 205.644C239.711 205.644 239.108 205.532 238.575 205.308C238.042 205.073 237.62 204.753 237.311 204.348C237.002 203.932 236.831 203.457 236.799 202.924H238.303C238.346 203.361 238.548 203.719 238.911 203.996C239.284 204.273 239.77 204.412 240.367 204.412C240.922 204.412 241.359 204.289 241.679 204.044C241.999 203.799 242.159 203.489 242.159 203.116C242.159 202.732 241.988 202.449 241.647 202.268C241.306 202.076 240.778 201.889 240.063 201.708C239.412 201.537 238.879 201.367 238.463 201.196C238.058 201.015 237.706 200.753 237.407 200.412C237.119 200.06 236.975 199.601 236.975 199.036C236.975 198.588 237.108 198.177 237.375 197.804C237.642 197.431 238.02 197.137 238.511 196.924C239.002 196.7 239.562 196.588 240.191 196.588C241.162 196.588 241.946 196.833 242.543 197.324C243.14 197.815 243.46 198.487 243.503 199.34H242.047C242.015 198.881 241.828 198.513 241.487 198.236C241.156 197.959 240.708 197.82 240.143 197.82C239.62 197.82 239.204 197.932 238.895 198.156C238.586 198.38 238.431 198.673 238.431 199.036C238.431 199.324 238.522 199.564 238.703 199.756C238.895 199.937 239.13 200.087 239.407 200.204C239.695 200.311 240.09 200.433 240.591 200.572C241.22 200.743 241.732 200.913 242.127 201.084C242.522 201.244 242.858 201.489 243.135 201.82C243.423 202.151 243.572 202.583 243.583 203.116C243.583 203.596 243.45 204.028 243.183 204.412C242.916 204.796 242.538 205.1 242.047 205.324C241.567 205.537 241.012 205.644 240.383 205.644ZM246.89 195.308C246.613 195.308 246.378 195.212 246.186 195.02C245.994 194.828 245.898 194.593 245.898 194.316C245.898 194.039 245.994 193.804 246.186 193.612C246.378 193.42 246.613 193.324 246.89 193.324C247.157 193.324 247.381 193.42 247.562 193.612C247.754 193.804 247.85 194.039 247.85 194.316C247.85 194.593 247.754 194.828 247.562 195.02C247.381 195.212 247.157 195.308 246.89 195.308ZM247.594 196.732V205.5H246.138V196.732H247.594ZM254.848 196.572C255.914 196.572 256.778 196.897 257.44 197.548C258.101 198.188 258.432 199.116 258.432 200.332V205.5H256.992V200.54C256.992 199.665 256.773 198.999 256.336 198.54C255.898 198.071 255.301 197.836 254.544 197.836C253.776 197.836 253.162 198.076 252.704 198.556C252.256 199.036 252.032 199.735 252.032 200.652V205.5H250.576V196.732H252.032V197.98C252.32 197.532 252.709 197.185 253.2 196.94C253.701 196.695 254.25 196.572 254.848 196.572ZM269.31 200.78C269.31 201.057 269.294 201.351 269.262 201.66H262.254C262.307 202.524 262.601 203.201 263.134 203.692C263.678 204.172 264.334 204.412 265.102 204.412C265.731 204.412 266.254 204.268 266.67 203.98C267.097 203.681 267.395 203.287 267.566 202.796H269.134C268.899 203.639 268.43 204.327 267.726 204.86C267.022 205.383 266.147 205.644 265.102 205.644C264.27 205.644 263.523 205.457 262.862 205.084C262.211 204.711 261.699 204.183 261.326 203.5C260.953 202.807 260.766 202.007 260.766 201.1C260.766 200.193 260.947 199.399 261.31 198.716C261.673 198.033 262.179 197.511 262.83 197.148C263.491 196.775 264.249 196.588 265.102 196.588C265.934 196.588 266.67 196.769 267.31 197.132C267.95 197.495 268.441 197.996 268.782 198.636C269.134 199.265 269.31 199.98 269.31 200.78ZM267.806 200.476C267.806 199.921 267.683 199.447 267.438 199.052C267.193 198.647 266.857 198.343 266.43 198.14C266.014 197.927 265.55 197.82 265.038 197.82C264.302 197.82 263.673 198.055 263.15 198.524C262.638 198.993 262.345 199.644 262.27 200.476H267.806ZM274.836 205.644C274.164 205.644 273.561 205.532 273.028 205.308C272.495 205.073 272.073 204.753 271.764 204.348C271.455 203.932 271.284 203.457 271.252 202.924H272.756C272.799 203.361 273.001 203.719 273.364 203.996C273.737 204.273 274.223 204.412 274.82 204.412C275.375 204.412 275.812 204.289 276.132 204.044C276.452 203.799 276.612 203.489 276.612 203.116C276.612 202.732 276.441 202.449 276.1 202.268C275.759 202.076 275.231 201.889 274.516 201.708C273.865 201.537 273.332 201.367 272.916 201.196C272.511 201.015 272.159 200.753 271.86 200.412C271.572 200.06 271.428 199.601 271.428 199.036C271.428 198.588 271.561 198.177 271.828 197.804C272.095 197.431 272.473 197.137 272.964 196.924C273.455 196.7 274.015 196.588 274.644 196.588C275.615 196.588 276.399 196.833 276.996 197.324C277.593 197.815 277.913 198.487 277.956 199.34H276.5C276.468 198.881 276.281 198.513 275.94 198.236C275.609 197.959 275.161 197.82 274.596 197.82C274.073 197.82 273.657 197.932 273.348 198.156C273.039 198.38 272.884 198.673 272.884 199.036C272.884 199.324 272.975 199.564 273.156 199.756C273.348 199.937 273.583 200.087 273.86 200.204C274.148 200.311 274.543 200.433 275.044 200.572C275.673 200.743 276.185 200.913 276.58 201.084C276.975 201.244 277.311 201.489 277.588 201.82C277.876 202.151 278.025 202.583 278.036 203.116C278.036 203.596 277.903 204.028 277.636 204.412C277.369 204.796 276.991 205.1 276.5 205.324C276.02 205.537 275.465 205.644 274.836 205.644ZM283.695 205.644C283.023 205.644 282.421 205.532 281.887 205.308C281.354 205.073 280.933 204.753 280.623 204.348C280.314 203.932 280.143 203.457 280.111 202.924H281.615C281.658 203.361 281.861 203.719 282.223 203.996C282.597 204.273 283.082 204.412 283.679 204.412C284.234 204.412 284.671 204.289 284.991 204.044C285.311 203.799 285.471 203.489 285.471 203.116C285.471 202.732 285.301 202.449 284.959 202.268C284.618 202.076 284.09 201.889 283.375 201.708C282.725 201.537 282.191 201.367 281.775 201.196C281.37 201.015 281.018 200.753 280.719 200.412C280.431 200.06 280.287 199.601 280.287 199.036C280.287 198.588 280.421 198.177 280.687 197.804C280.954 197.431 281.333 197.137 281.823 196.924C282.314 196.7 282.874 196.588 283.503 196.588C284.474 196.588 285.258 196.833 285.855 197.324C286.453 197.815 286.773 198.487 286.815 199.34H285.359C285.327 198.881 285.141 198.513 284.799 198.236C284.469 197.959 284.021 197.82 283.455 197.82C282.933 197.82 282.517 197.932 282.207 198.156C281.898 198.38 281.743 198.673 281.743 199.036C281.743 199.324 281.834 199.564 282.015 199.756C282.207 199.937 282.442 200.087 282.719 200.204C283.007 200.311 283.402 200.433 283.903 200.572C284.533 200.743 285.045 200.913 285.439 201.084C285.834 201.244 286.17 201.489 286.447 201.82C286.735 202.151 286.885 202.583 286.895 203.116C286.895 203.596 286.762 204.028 286.495 204.412C286.229 204.796 285.85 205.1 285.359 205.324C284.879 205.537 284.325 205.644 283.695 205.644ZM299.8 199.756C300.206 199.82 300.574 199.985 300.904 200.252C301.246 200.519 301.512 200.849 301.704 201.244C301.907 201.639 302.008 202.06 302.008 202.508C302.008 203.073 301.864 203.585 301.576 204.044C301.288 204.492 300.867 204.849 300.312 205.116C299.768 205.372 299.123 205.5 298.376 205.5H294.216V194.348H298.216C298.974 194.348 299.619 194.476 300.152 194.732C300.686 194.977 301.086 195.313 301.352 195.74C301.619 196.167 301.752 196.647 301.752 197.18C301.752 197.841 301.571 198.391 301.208 198.828C300.856 199.255 300.387 199.564 299.8 199.756ZM295.672 199.164H298.12C298.803 199.164 299.331 199.004 299.704 198.684C300.078 198.364 300.264 197.921 300.264 197.356C300.264 196.791 300.078 196.348 299.704 196.028C299.331 195.708 298.792 195.548 298.088 195.548H295.672V199.164ZM298.248 204.3C298.974 204.3 299.539 204.129 299.944 203.788C300.35 203.447 300.552 202.972 300.552 202.364C300.552 201.745 300.339 201.26 299.912 200.908C299.486 200.545 298.915 200.364 298.2 200.364H295.672V204.3H298.248ZM303.985 201.084C303.985 200.188 304.166 199.404 304.529 198.732C304.892 198.049 305.388 197.521 306.017 197.148C306.657 196.775 307.366 196.588 308.145 196.588C308.913 196.588 309.58 196.753 310.145 197.084C310.71 197.415 311.132 197.831 311.409 198.332V196.732H312.881V205.5H311.409V203.868C311.121 204.38 310.689 204.807 310.113 205.148C309.548 205.479 308.886 205.644 308.129 205.644C307.35 205.644 306.646 205.452 306.017 205.068C305.388 204.684 304.892 204.145 304.529 203.452C304.166 202.759 303.985 201.969 303.985 201.084ZM311.409 201.1C311.409 200.439 311.276 199.863 311.009 199.372C310.742 198.881 310.38 198.508 309.921 198.252C309.473 197.985 308.977 197.852 308.433 197.852C307.889 197.852 307.393 197.98 306.945 198.236C306.497 198.492 306.14 198.865 305.873 199.356C305.606 199.847 305.473 200.423 305.473 201.084C305.473 201.756 305.606 202.343 305.873 202.844C306.14 203.335 306.497 203.713 306.945 203.98C307.393 204.236 307.889 204.364 308.433 204.364C308.977 204.364 309.473 204.236 309.921 203.98C310.38 203.713 310.742 203.335 311.009 202.844C311.276 202.343 311.409 201.761 311.409 201.1ZM320.113 196.572C321.18 196.572 322.044 196.897 322.705 197.548C323.367 198.188 323.697 199.116 323.697 200.332V205.5H322.257V200.54C322.257 199.665 322.039 198.999 321.601 198.54C321.164 198.071 320.567 197.836 319.809 197.836C319.041 197.836 318.428 198.076 317.969 198.556C317.521 199.036 317.297 199.735 317.297 200.652V205.5H315.841V196.732H317.297V197.98C317.585 197.532 317.975 197.185 318.465 196.94C318.967 196.695 319.516 196.572 320.113 196.572ZM331.472 205.5L328.032 201.628V205.5H326.576V193.66H328.032V200.62L331.408 196.732H333.44L329.312 201.1L333.456 205.5H331.472ZM336.062 195.308C335.785 195.308 335.55 195.212 335.358 195.02C335.166 194.828 335.07 194.593 335.07 194.316C335.07 194.039 335.166 193.804 335.358 193.612C335.55 193.42 335.785 193.324 336.062 193.324C336.329 193.324 336.553 193.42 336.734 193.612C336.926 193.804 337.022 194.039 337.022 194.316C337.022 194.593 336.926 194.828 336.734 195.02C336.553 195.212 336.329 195.308 336.062 195.308ZM336.766 196.732V205.5H335.31V196.732H336.766ZM344.02 196.572C345.086 196.572 345.95 196.897 346.612 197.548C347.273 198.188 347.604 199.116 347.604 200.332V205.5H346.164V200.54C346.164 199.665 345.945 198.999 345.508 198.54C345.07 198.071 344.473 197.836 343.716 197.836C342.948 197.836 342.334 198.076 341.876 198.556C341.428 199.036 341.204 199.735 341.204 200.652V205.5H339.748V196.732H341.204V197.98C341.492 197.532 341.881 197.185 342.372 196.94C342.873 196.695 343.422 196.572 344.02 196.572ZM354.098 196.588C354.855 196.588 355.517 196.753 356.082 197.084C356.658 197.415 357.085 197.831 357.362 198.332V196.732H358.834V205.692C358.834 206.492 358.663 207.201 358.322 207.82C357.981 208.449 357.49 208.94 356.85 209.292C356.221 209.644 355.485 209.82 354.642 209.82C353.49 209.82 352.53 209.548 351.762 209.004C350.994 208.46 350.541 207.719 350.402 206.78H351.842C352.002 207.313 352.333 207.74 352.834 208.06C353.335 208.391 353.938 208.556 354.642 208.556C355.442 208.556 356.093 208.305 356.594 207.804C357.106 207.303 357.362 206.599 357.362 205.692V203.852C357.074 204.364 356.647 204.791 356.082 205.132C355.517 205.473 354.855 205.644 354.098 205.644C353.319 205.644 352.61 205.452 351.97 205.068C351.341 204.684 350.845 204.145 350.482 203.452C350.119 202.759 349.938 201.969 349.938 201.084C349.938 200.188 350.119 199.404 350.482 198.732C350.845 198.049 351.341 197.521 351.97 197.148C352.61 196.775 353.319 196.588 354.098 196.588ZM357.362 201.1C357.362 200.439 357.229 199.863 356.962 199.372C356.695 198.881 356.333 198.508 355.874 198.252C355.426 197.985 354.93 197.852 354.386 197.852C353.842 197.852 353.346 197.98 352.898 198.236C352.45 198.492 352.093 198.865 351.826 199.356C351.559 199.847 351.426 200.423 351.426 201.084C351.426 201.756 351.559 202.343 351.826 202.844C352.093 203.335 352.45 203.713 352.898 203.98C353.346 204.236 353.842 204.364 354.386 204.364C354.93 204.364 355.426 204.236 355.874 203.98C356.333 203.713 356.695 203.335 356.962 202.844C357.229 202.343 357.362 201.761 357.362 201.1Z" fill="white"/>
<path d="M203.5 199C203.5 208.665 195.665 216.5 186 216.5C176.335 216.5 168.5 208.665 168.5 199C168.5 189.335 176.335 181.5 186 181.5C195.665 181.5 203.5 189.335 203.5 199Z" fill="url(#paint12_linear_1434_2015)" stroke="url(#paint13_linear_1434_2015)"/>
<rect x="207.5" y="256.5" width="239" height="47" rx="23.5" fill="url(#paint14_linear_1434_2015)"/>
<rect x="207.5" y="256.5" width="239" height="47" rx="23.5" stroke="url(#paint15_linear_1434_2015)"/>
<path d="M231.688 280.916C231.688 279.828 231.933 278.852 232.424 277.988C232.915 277.113 233.581 276.431 234.424 275.94C235.277 275.449 236.221 275.204 237.256 275.204C238.472 275.204 239.533 275.497 240.44 276.084C241.347 276.671 242.008 277.503 242.424 278.58H240.68C240.371 277.908 239.923 277.391 239.336 277.028C238.76 276.665 238.067 276.484 237.256 276.484C236.477 276.484 235.779 276.665 235.16 277.028C234.541 277.391 234.056 277.908 233.704 278.58C233.352 279.241 233.176 280.02 233.176 280.916C233.176 281.801 233.352 282.58 233.704 283.252C234.056 283.913 234.541 284.425 235.16 284.788C235.779 285.151 236.477 285.332 237.256 285.332C238.067 285.332 238.76 285.156 239.336 284.804C239.923 284.441 240.371 283.924 240.68 283.252H242.424C242.008 284.319 241.347 285.145 240.44 285.732C239.533 286.308 238.472 286.596 237.256 286.596C236.221 286.596 235.277 286.356 234.424 285.876C233.581 285.385 232.915 284.708 232.424 283.844C231.933 282.98 231.688 282.004 231.688 280.916ZM246.547 279.156C246.803 278.655 247.166 278.265 247.635 277.988C248.115 277.711 248.697 277.572 249.379 277.572V279.076H248.995C247.363 279.076 246.547 279.961 246.547 281.732V286.5H245.091V277.732H246.547V279.156ZM259.56 281.78C259.56 282.057 259.544 282.351 259.512 282.66H252.504C252.557 283.524 252.851 284.201 253.384 284.692C253.928 285.172 254.584 285.412 255.352 285.412C255.981 285.412 256.504 285.268 256.92 284.98C257.347 284.681 257.645 284.287 257.816 283.796H259.384C259.149 284.639 258.68 285.327 257.976 285.86C257.272 286.383 256.397 286.644 255.352 286.644C254.52 286.644 253.773 286.457 253.112 286.084C252.461 285.711 251.949 285.183 251.576 284.5C251.203 283.807 251.016 283.007 251.016 282.1C251.016 281.193 251.197 280.399 251.56 279.716C251.923 279.033 252.429 278.511 253.08 278.148C253.741 277.775 254.499 277.588 255.352 277.588C256.184 277.588 256.92 277.769 257.56 278.132C258.2 278.495 258.691 278.996 259.032 279.636C259.384 280.265 259.56 280.98 259.56 281.78ZM258.056 281.476C258.056 280.921 257.933 280.447 257.688 280.052C257.443 279.647 257.107 279.343 256.68 279.14C256.264 278.927 255.8 278.82 255.288 278.82C254.552 278.82 253.923 279.055 253.4 279.524C252.888 279.993 252.595 280.644 252.52 281.476H258.056ZM261.438 282.084C261.438 281.188 261.619 280.404 261.982 279.732C262.345 279.049 262.841 278.521 263.47 278.148C264.11 277.775 264.825 277.588 265.614 277.588C266.297 277.588 266.931 277.748 267.518 278.068C268.105 278.377 268.553 278.788 268.862 279.3V274.66H270.334V286.5H268.862V284.852C268.574 285.375 268.147 285.807 267.582 286.148C267.017 286.479 266.355 286.644 265.598 286.644C264.819 286.644 264.11 286.452 263.47 286.068C262.841 285.684 262.345 285.145 261.982 284.452C261.619 283.759 261.438 282.969 261.438 282.084ZM268.862 282.1C268.862 281.439 268.729 280.863 268.462 280.372C268.195 279.881 267.833 279.508 267.374 279.252C266.926 278.985 266.43 278.852 265.886 278.852C265.342 278.852 264.846 278.98 264.398 279.236C263.95 279.492 263.593 279.865 263.326 280.356C263.059 280.847 262.926 281.423 262.926 282.084C262.926 282.756 263.059 283.343 263.326 283.844C263.593 284.335 263.95 284.713 264.398 284.98C264.846 285.236 265.342 285.364 265.886 285.364C266.43 285.364 266.926 285.236 267.374 284.98C267.833 284.713 268.195 284.335 268.462 283.844C268.729 283.343 268.862 282.761 268.862 282.1ZM274.047 276.308C273.769 276.308 273.535 276.212 273.343 276.02C273.151 275.828 273.055 275.593 273.055 275.316C273.055 275.039 273.151 274.804 273.343 274.612C273.535 274.42 273.769 274.324 274.047 274.324C274.313 274.324 274.537 274.42 274.719 274.612C274.911 274.804 275.007 275.039 275.007 275.316C275.007 275.593 274.911 275.828 274.719 276.02C274.537 276.212 274.313 276.308 274.047 276.308ZM274.751 277.732V286.5H273.295V277.732H274.751ZM279.508 278.932V284.1C279.508 284.527 279.599 284.831 279.78 285.012C279.961 285.183 280.276 285.268 280.724 285.268H281.796V286.5H280.484C279.673 286.5 279.065 286.313 278.66 285.94C278.255 285.567 278.052 284.953 278.052 284.1V278.932H276.916V277.732H278.052V275.524H279.508V277.732H281.796V278.932H279.508ZM290.14 280.02V281.252H283.756V280.02H290.14ZM298.957 280.756C299.362 280.82 299.73 280.985 300.061 281.252C300.402 281.519 300.669 281.849 300.861 282.244C301.063 282.639 301.165 283.06 301.165 283.508C301.165 284.073 301.021 284.585 300.733 285.044C300.445 285.492 300.023 285.849 299.469 286.116C298.925 286.372 298.279 286.5 297.533 286.5H293.373V275.348H297.373C298.13 275.348 298.775 275.476 299.309 275.732C299.842 275.977 300.242 276.313 300.509 276.74C300.775 277.167 300.909 277.647 300.909 278.18C300.909 278.841 300.727 279.391 300.365 279.828C300.013 280.255 299.543 280.564 298.957 280.756ZM294.829 280.164H297.277C297.959 280.164 298.487 280.004 298.861 279.684C299.234 279.364 299.421 278.921 299.421 278.356C299.421 277.791 299.234 277.348 298.861 277.028C298.487 276.708 297.949 276.548 297.245 276.548H294.829V280.164ZM297.405 285.3C298.13 285.3 298.695 285.129 299.101 284.788C299.506 284.447 299.709 283.972 299.709 283.364C299.709 282.745 299.495 282.26 299.069 281.908C298.642 281.545 298.071 281.364 297.357 281.364H294.829V285.3H297.405ZM311.461 277.732V286.5H310.005V285.204C309.728 285.652 309.338 286.004 308.837 286.26C308.346 286.505 307.802 286.628 307.205 286.628C306.522 286.628 305.909 286.489 305.365 286.212C304.821 285.924 304.389 285.497 304.069 284.932C303.76 284.367 303.605 283.679 303.605 282.868V277.732H305.045V282.676C305.045 283.54 305.264 284.207 305.701 284.676C306.138 285.135 306.736 285.364 307.493 285.364C308.272 285.364 308.885 285.124 309.333 284.644C309.781 284.164 310.005 283.465 310.005 282.548V277.732H311.461ZM315.172 276.308C314.894 276.308 314.66 276.212 314.468 276.02C314.276 275.828 314.18 275.593 314.18 275.316C314.18 275.039 314.276 274.804 314.468 274.612C314.66 274.42 314.894 274.324 315.172 274.324C315.438 274.324 315.662 274.42 315.844 274.612C316.036 274.804 316.132 275.039 316.132 275.316C316.132 275.593 316.036 275.828 315.844 276.02C315.662 276.212 315.438 276.308 315.172 276.308ZM315.876 277.732V286.5H314.42V277.732H315.876ZM320.313 274.66V286.5H318.857V274.66H320.313ZM322.751 282.084C322.751 281.188 322.932 280.404 323.295 279.732C323.657 279.049 324.153 278.521 324.783 278.148C325.423 277.775 326.137 277.588 326.927 277.588C327.609 277.588 328.244 277.748 328.831 278.068C329.417 278.377 329.865 278.788 330.175 279.3V274.66H331.647V286.5H330.175V284.852C329.887 285.375 329.46 285.807 328.895 286.148C328.329 286.479 327.668 286.644 326.911 286.644C326.132 286.644 325.423 286.452 324.783 286.068C324.153 285.684 323.657 285.145 323.295 284.452C322.932 283.759 322.751 282.969 322.751 282.084ZM330.175 282.1C330.175 281.439 330.041 280.863 329.775 280.372C329.508 279.881 329.145 279.508 328.687 279.252C328.239 278.985 327.743 278.852 327.199 278.852C326.655 278.852 326.159 278.98 325.711 279.236C325.263 279.492 324.905 279.865 324.639 280.356C324.372 280.847 324.239 281.423 324.239 282.084C324.239 282.756 324.372 283.343 324.639 283.844C324.905 284.335 325.263 284.713 325.711 284.98C326.159 285.236 326.655 285.364 327.199 285.364C327.743 285.364 328.239 285.236 328.687 284.98C329.145 284.713 329.508 284.335 329.775 283.844C330.041 283.343 330.175 282.761 330.175 282.1ZM335.359 276.308C335.082 276.308 334.847 276.212 334.655 276.02C334.463 275.828 334.367 275.593 334.367 275.316C334.367 275.039 334.463 274.804 334.655 274.612C334.847 274.42 335.082 274.324 335.359 274.324C335.626 274.324 335.85 274.42 336.031 274.612C336.223 274.804 336.319 275.039 336.319 275.316C336.319 275.593 336.223 275.828 336.031 276.02C335.85 276.212 335.626 276.308 335.359 276.308ZM336.063 277.732V286.5H334.607V277.732H336.063ZM343.317 277.572C344.383 277.572 345.247 277.897 345.909 278.548C346.57 279.188 346.901 280.116 346.901 281.332V286.5H345.461V281.54C345.461 280.665 345.242 279.999 344.805 279.54C344.367 279.071 343.77 278.836 343.013 278.836C342.245 278.836 341.631 279.076 341.173 279.556C340.725 280.036 340.501 280.735 340.501 281.652V286.5H339.045V277.732H340.501V278.98C340.789 278.532 341.178 278.185 341.669 277.94C342.17 277.695 342.719 277.572 343.317 277.572ZM353.395 277.588C354.152 277.588 354.814 277.753 355.379 278.084C355.955 278.415 356.382 278.831 356.659 279.332V277.732H358.131V286.692C358.131 287.492 357.96 288.201 357.619 288.82C357.278 289.449 356.787 289.94 356.147 290.292C355.518 290.644 354.782 290.82 353.939 290.82C352.787 290.82 351.827 290.548 351.059 290.004C350.291 289.46 349.838 288.719 349.699 287.78H351.139C351.299 288.313 351.63 288.74 352.131 289.06C352.632 289.391 353.235 289.556 353.939 289.556C354.739 289.556 355.39 289.305 355.891 288.804C356.403 288.303 356.659 287.599 356.659 286.692V284.852C356.371 285.364 355.944 285.791 355.379 286.132C354.814 286.473 354.152 286.644 353.395 286.644C352.616 286.644 351.907 286.452 351.267 286.068C350.638 285.684 350.142 285.145 349.779 284.452C349.416 283.759 349.235 282.969 349.235 282.084C349.235 281.188 349.416 280.404 349.779 279.732C350.142 279.049 350.638 278.521 351.267 278.148C351.907 277.775 352.616 277.588 353.395 277.588ZM356.659 282.1C356.659 281.439 356.526 280.863 356.259 280.372C355.992 279.881 355.63 279.508 355.171 279.252C354.723 278.985 354.227 278.852 353.683 278.852C353.139 278.852 352.643 278.98 352.195 279.236C351.747 279.492 351.39 279.865 351.123 280.356C350.856 280.847 350.723 281.423 350.723 282.084C350.723 282.756 350.856 283.343 351.123 283.844C351.39 284.335 351.747 284.713 352.195 284.98C352.643 285.236 353.139 285.364 353.683 285.364C354.227 285.364 354.723 285.236 355.171 284.98C355.63 284.713 355.992 284.335 356.259 283.844C356.526 283.343 356.659 282.761 356.659 282.1ZM372.721 275.348V276.532H369.681V286.5H368.225V276.532H365.169V275.348H372.721ZM378.837 286.644C378.016 286.644 377.269 286.457 376.597 286.084C375.936 285.711 375.413 285.183 375.029 284.5C374.656 283.807 374.469 283.007 374.469 282.1C374.469 281.204 374.661 280.415 375.045 279.732C375.44 279.039 375.973 278.511 376.645 278.148C377.317 277.775 378.069 277.588 378.901 277.588C379.733 277.588 380.485 277.775 381.157 278.148C381.829 278.511 382.357 279.033 382.741 279.716C383.136 280.399 383.333 281.193 383.333 282.1C383.333 283.007 383.131 283.807 382.725 284.5C382.331 285.183 381.792 285.711 381.109 286.084C380.427 286.457 379.669 286.644 378.837 286.644ZM378.837 285.364C379.36 285.364 379.851 285.241 380.309 284.996C380.768 284.751 381.136 284.383 381.413 283.892C381.701 283.401 381.845 282.804 381.845 282.1C381.845 281.396 381.707 280.799 381.429 280.308C381.152 279.817 380.789 279.455 380.341 279.22C379.893 278.975 379.408 278.852 378.885 278.852C378.352 278.852 377.861 278.975 377.413 279.22C376.976 279.455 376.624 279.817 376.357 280.308C376.091 280.799 375.957 281.396 375.957 282.1C375.957 282.815 376.085 283.417 376.341 283.908C376.608 284.399 376.96 284.767 377.397 285.012C377.835 285.247 378.315 285.364 378.837 285.364ZM389.572 286.644C388.75 286.644 388.004 286.457 387.332 286.084C386.67 285.711 386.148 285.183 385.764 284.5C385.39 283.807 385.204 283.007 385.204 282.1C385.204 281.204 385.396 280.415 385.78 279.732C386.174 279.039 386.708 278.511 387.38 278.148C388.052 277.775 388.804 277.588 389.636 277.588C390.468 277.588 391.22 277.775 391.892 278.148C392.564 278.511 393.092 279.033 393.476 279.716C393.87 280.399 394.068 281.193 394.068 282.1C394.068 283.007 393.865 283.807 393.46 284.5C393.065 285.183 392.526 285.711 391.844 286.084C391.161 286.457 390.404 286.644 389.572 286.644ZM389.572 285.364C390.094 285.364 390.585 285.241 391.044 284.996C391.502 284.751 391.87 284.383 392.148 283.892C392.436 283.401 392.58 282.804 392.58 282.1C392.58 281.396 392.441 280.799 392.164 280.308C391.886 279.817 391.524 279.455 391.076 279.22C390.628 278.975 390.142 278.852 389.62 278.852C389.086 278.852 388.596 278.975 388.148 279.22C387.71 279.455 387.358 279.817 387.092 280.308C386.825 280.799 386.692 281.396 386.692 282.1C386.692 282.815 386.82 283.417 387.076 283.908C387.342 284.399 387.694 284.767 388.132 285.012C388.569 285.247 389.049 285.364 389.572 285.364ZM397.938 274.66V286.5H396.482V274.66H397.938ZM404.024 286.644C403.352 286.644 402.749 286.532 402.216 286.308C401.682 286.073 401.261 285.753 400.952 285.348C400.642 284.932 400.472 284.457 400.44 283.924H401.944C401.986 284.361 402.189 284.719 402.552 284.996C402.925 285.273 403.41 285.412 404.008 285.412C404.562 285.412 405 285.289 405.32 285.044C405.64 284.799 405.8 284.489 405.8 284.116C405.8 283.732 405.629 283.449 405.288 283.268C404.946 283.076 404.418 282.889 403.704 282.708C403.053 282.537 402.52 282.367 402.104 282.196C401.698 282.015 401.346 281.753 401.048 281.412C400.76 281.06 400.616 280.601 400.616 280.036C400.616 279.588 400.749 279.177 401.016 278.804C401.282 278.431 401.661 278.137 402.152 277.924C402.642 277.7 403.202 277.588 403.832 277.588C404.802 277.588 405.586 277.833 406.184 278.324C406.781 278.815 407.101 279.487 407.144 280.34H405.688C405.656 279.881 405.469 279.513 405.128 279.236C404.797 278.959 404.349 278.82 403.784 278.82C403.261 278.82 402.845 278.932 402.536 279.156C402.226 279.38 402.072 279.673 402.072 280.036C402.072 280.324 402.162 280.564 402.344 280.756C402.536 280.937 402.77 281.087 403.048 281.204C403.336 281.311 403.73 281.433 404.232 281.572C404.861 281.743 405.373 281.913 405.768 282.084C406.162 282.244 406.498 282.489 406.776 282.82C407.064 283.151 407.213 283.583 407.224 284.116C407.224 284.596 407.09 285.028 406.824 285.412C406.557 285.796 406.178 286.1 405.688 286.324C405.208 286.537 404.653 286.644 404.024 286.644Z" fill="white"/>
<path d="M219.5 280C219.5 289.665 211.665 297.5 202 297.5C192.335 297.5 184.5 289.665 184.5 280C184.5 270.335 192.335 262.5 202 262.5C211.665 262.5 219.5 270.335 219.5 280Z" fill="url(#paint16_linear_1434_2015)" stroke="url(#paint17_linear_1434_2015)"/>
<rect x="191.5" y="337.5" width="239" height="47" rx="23.5" fill="url(#paint18_linear_1434_2015)"/>
<rect x="191.5" y="337.5" width="239" height="47" rx="23.5" stroke="url(#paint19_linear_1434_2015)"/>
<path d="M222.824 365.02H217.96L217.064 367.5H215.528L219.56 356.412H221.24L225.256 367.5H223.72L222.824 365.02ZM222.408 363.836L220.392 358.204L218.376 363.836H222.408ZM228.969 356.348V367.5H227.513V356.348H228.969ZM238.031 361.02V362.252H231.647V361.02H238.031ZM244.735 356.348C245.951 356.348 247.002 356.577 247.887 357.036C248.783 357.484 249.466 358.129 249.935 358.972C250.415 359.815 250.655 360.807 250.655 361.948C250.655 363.089 250.415 364.081 249.935 364.924C249.466 365.756 248.783 366.396 247.887 366.844C247.002 367.281 245.951 367.5 244.735 367.5H241.263V356.348H244.735ZM244.735 366.3C246.175 366.3 247.274 365.921 248.031 365.164C248.789 364.396 249.167 363.324 249.167 361.948C249.167 360.561 248.783 359.479 248.015 358.7C247.258 357.921 246.165 357.532 244.735 357.532H242.719V366.3H244.735ZM254.532 360.156C254.788 359.655 255.15 359.265 255.62 358.988C256.1 358.711 256.681 358.572 257.364 358.572V360.076H256.98C255.348 360.076 254.532 360.961 254.532 362.732V367.5H253.076V358.732H254.532V360.156ZM260.297 357.308C260.019 357.308 259.785 357.212 259.593 357.02C259.401 356.828 259.305 356.593 259.305 356.316C259.305 356.039 259.401 355.804 259.593 355.612C259.785 355.42 260.019 355.324 260.297 355.324C260.563 355.324 260.787 355.42 260.969 355.612C261.161 355.804 261.257 356.039 261.257 356.316C261.257 356.593 261.161 356.828 260.969 357.02C260.787 357.212 260.563 357.308 260.297 357.308ZM261.001 358.732V367.5H259.545V358.732H261.001ZM267.246 366.156L269.966 358.732H271.518L268.078 367.5H266.382L262.942 358.732H264.51L267.246 366.156ZM281.451 362.78C281.451 363.057 281.435 363.351 281.403 363.66H274.395C274.448 364.524 274.741 365.201 275.275 365.692C275.819 366.172 276.475 366.412 277.243 366.412C277.872 366.412 278.395 366.268 278.811 365.98C279.237 365.681 279.536 365.287 279.707 364.796H281.275C281.04 365.639 280.571 366.327 279.867 366.86C279.163 367.383 278.288 367.644 277.243 367.644C276.411 367.644 275.664 367.457 275.003 367.084C274.352 366.711 273.84 366.183 273.467 365.5C273.093 364.807 272.907 364.007 272.907 363.1C272.907 362.193 273.088 361.399 273.451 360.716C273.813 360.033 274.32 359.511 274.971 359.148C275.632 358.775 276.389 358.588 277.243 358.588C278.075 358.588 278.811 358.769 279.451 359.132C280.091 359.495 280.581 359.996 280.923 360.636C281.275 361.265 281.451 361.98 281.451 362.78ZM279.947 362.476C279.947 361.921 279.824 361.447 279.579 361.052C279.333 360.647 278.997 360.343 278.571 360.14C278.155 359.927 277.691 359.82 277.179 359.82C276.443 359.82 275.813 360.055 275.291 360.524C274.779 360.993 274.485 361.644 274.411 362.476H279.947ZM288.145 358.572C289.211 358.572 290.075 358.897 290.737 359.548C291.398 360.188 291.729 361.116 291.729 362.332V367.5H290.289V362.54C290.289 361.665 290.07 360.999 289.633 360.54C289.195 360.071 288.598 359.836 287.841 359.836C287.073 359.836 286.459 360.076 286.001 360.556C285.553 361.036 285.329 361.735 285.329 362.652V367.5H283.873V358.732H285.329V359.98C285.617 359.532 286.006 359.185 286.497 358.94C286.998 358.695 287.547 358.572 288.145 358.572ZM302.909 367.612C302.173 367.612 301.511 367.484 300.925 367.228C300.349 366.961 299.895 366.599 299.565 366.14C299.234 365.671 299.063 365.132 299.053 364.524H300.605C300.658 365.047 300.871 365.489 301.245 365.852C301.629 366.204 302.183 366.38 302.909 366.38C303.602 366.38 304.146 366.209 304.541 365.868C304.946 365.516 305.149 365.068 305.149 364.524C305.149 364.097 305.031 363.751 304.797 363.484C304.562 363.217 304.269 363.015 303.917 362.876C303.565 362.737 303.09 362.588 302.493 362.428C301.757 362.236 301.165 362.044 300.717 361.852C300.279 361.66 299.901 361.361 299.581 360.956C299.271 360.54 299.117 359.985 299.117 359.292C299.117 358.684 299.271 358.145 299.581 357.676C299.89 357.207 300.322 356.844 300.877 356.588C301.442 356.332 302.087 356.204 302.813 356.204C303.858 356.204 304.711 356.465 305.373 356.988C306.045 357.511 306.423 358.204 306.509 359.068H304.909C304.855 358.641 304.631 358.268 304.237 357.948C303.842 357.617 303.319 357.452 302.669 357.452C302.061 357.452 301.565 357.612 301.181 357.932C300.797 358.241 300.605 358.679 300.605 359.244C300.605 359.649 300.717 359.98 300.941 360.236C301.175 360.492 301.458 360.689 301.789 360.828C302.13 360.956 302.605 361.105 303.213 361.276C303.949 361.479 304.541 361.681 304.989 361.884C305.437 362.076 305.821 362.38 306.141 362.796C306.461 363.201 306.621 363.756 306.621 364.46C306.621 365.004 306.477 365.516 306.189 365.996C305.901 366.476 305.474 366.865 304.909 367.164C304.343 367.463 303.677 367.612 302.909 367.612ZM308.719 363.084C308.719 362.188 308.901 361.404 309.263 360.732C309.626 360.049 310.122 359.521 310.751 359.148C311.391 358.775 312.101 358.588 312.879 358.588C313.647 358.588 314.314 358.753 314.879 359.084C315.445 359.415 315.866 359.831 316.143 360.332V358.732H317.615V367.5H316.143V365.868C315.855 366.38 315.423 366.807 314.847 367.148C314.282 367.479 313.621 367.644 312.863 367.644C312.085 367.644 311.381 367.452 310.751 367.068C310.122 366.684 309.626 366.145 309.263 365.452C308.901 364.759 308.719 363.969 308.719 363.084ZM316.143 363.1C316.143 362.439 316.01 361.863 315.743 361.372C315.477 360.881 315.114 360.508 314.655 360.252C314.207 359.985 313.711 359.852 313.167 359.852C312.623 359.852 312.127 359.98 311.679 360.236C311.231 360.492 310.874 360.865 310.607 361.356C310.341 361.847 310.207 362.423 310.207 363.084C310.207 363.756 310.341 364.343 310.607 364.844C310.874 365.335 311.231 365.713 311.679 365.98C312.127 366.236 312.623 366.364 313.167 366.364C313.711 366.364 314.207 366.236 314.655 365.98C315.114 365.713 315.477 365.335 315.743 364.844C316.01 364.343 316.143 363.761 316.143 363.1ZM323.84 366.156L326.56 358.732H328.112L324.672 367.5H322.976L319.536 358.732H321.104L323.84 366.156ZM330.797 357.308C330.519 357.308 330.285 357.212 330.093 357.02C329.901 356.828 329.805 356.593 329.805 356.316C329.805 356.039 329.901 355.804 330.093 355.612C330.285 355.42 330.519 355.324 330.797 355.324C331.063 355.324 331.287 355.42 331.469 355.612C331.661 355.804 331.757 356.039 331.757 356.316C331.757 356.593 331.661 356.828 331.469 357.02C331.287 357.212 331.063 357.308 330.797 357.308ZM331.501 358.732V367.5H330.045V358.732H331.501ZM338.754 358.572C339.821 358.572 340.685 358.897 341.346 359.548C342.007 360.188 342.338 361.116 342.338 362.332V367.5H340.898V362.54C340.898 361.665 340.679 360.999 340.242 360.54C339.805 360.071 339.207 359.836 338.45 359.836C337.682 359.836 337.069 360.076 336.61 360.556C336.162 361.036 335.938 361.735 335.938 362.652V367.5H334.482V358.732H335.938V359.98C336.226 359.532 336.615 359.185 337.106 358.94C337.607 358.695 338.157 358.572 338.754 358.572ZM348.832 358.588C349.59 358.588 350.251 358.753 350.816 359.084C351.392 359.415 351.819 359.831 352.096 360.332V358.732H353.568V367.692C353.568 368.492 353.398 369.201 353.056 369.82C352.715 370.449 352.224 370.94 351.584 371.292C350.955 371.644 350.219 371.82 349.376 371.82C348.224 371.82 347.264 371.548 346.496 371.004C345.728 370.46 345.275 369.719 345.136 368.78H346.576C346.736 369.313 347.067 369.74 347.568 370.06C348.07 370.391 348.672 370.556 349.376 370.556C350.176 370.556 350.827 370.305 351.328 369.804C351.84 369.303 352.096 368.599 352.096 367.692V365.852C351.808 366.364 351.382 366.791 350.816 367.132C350.251 367.473 349.59 367.644 348.832 367.644C348.054 367.644 347.344 367.452 346.704 367.068C346.075 366.684 345.579 366.145 345.216 365.452C344.854 364.759 344.672 363.969 344.672 363.084C344.672 362.188 344.854 361.404 345.216 360.732C345.579 360.049 346.075 359.521 346.704 359.148C347.344 358.775 348.054 358.588 348.832 358.588ZM352.096 363.1C352.096 362.439 351.963 361.863 351.696 361.372C351.43 360.881 351.067 360.508 350.608 360.252C350.16 359.985 349.664 359.852 349.12 359.852C348.576 359.852 348.08 359.98 347.632 360.236C347.184 360.492 346.827 360.865 346.56 361.356C346.294 361.847 346.16 362.423 346.16 363.084C346.16 363.756 346.294 364.343 346.56 364.844C346.827 365.335 347.184 365.713 347.632 365.98C348.08 366.236 348.576 366.364 349.12 366.364C349.664 366.364 350.16 366.236 350.608 365.98C351.067 365.713 351.43 365.335 351.696 364.844C351.963 364.343 352.096 363.761 352.096 363.1ZM359.633 367.644C358.961 367.644 358.358 367.532 357.825 367.308C357.292 367.073 356.87 366.753 356.561 366.348C356.252 365.932 356.081 365.457 356.049 364.924H357.553C357.596 365.361 357.798 365.719 358.161 365.996C358.534 366.273 359.02 366.412 359.617 366.412C360.172 366.412 360.609 366.289 360.929 366.044C361.249 365.799 361.409 365.489 361.409 365.116C361.409 364.732 361.238 364.449 360.897 364.268C360.556 364.076 360.028 363.889 359.313 363.708C358.662 363.537 358.129 363.367 357.713 363.196C357.308 363.015 356.956 362.753 356.657 362.412C356.369 362.06 356.225 361.601 356.225 361.036C356.225 360.588 356.358 360.177 356.625 359.804C356.892 359.431 357.27 359.137 357.761 358.924C358.252 358.7 358.812 358.588 359.441 358.588C360.412 358.588 361.196 358.833 361.793 359.324C362.39 359.815 362.71 360.487 362.753 361.34H361.297C361.265 360.881 361.078 360.513 360.737 360.236C360.406 359.959 359.958 359.82 359.393 359.82C358.87 359.82 358.454 359.932 358.145 360.156C357.836 360.38 357.681 360.673 357.681 361.036C357.681 361.324 357.772 361.564 357.953 361.756C358.145 361.937 358.38 362.087 358.657 362.204C358.945 362.311 359.34 362.433 359.841 362.572C360.47 362.743 360.982 362.913 361.377 363.084C361.772 363.244 362.108 363.489 362.385 363.82C362.673 364.151 362.822 364.583 362.833 365.116C362.833 365.596 362.7 366.028 362.433 366.412C362.166 366.796 361.788 367.1 361.297 367.324C360.817 367.537 360.262 367.644 359.633 367.644Z" fill="white"/>
<path d="M203.5 361C203.5 370.665 195.665 378.5 186 378.5C176.335 378.5 168.5 370.665 168.5 361C168.5 351.335 176.335 343.5 186 343.5C195.665 343.5 203.5 351.335 203.5 361Z" fill="url(#paint20_linear_1434_2015)" stroke="url(#paint21_linear_1434_2015)"/>
<rect x="130.5" y="418.5" width="239" height="47" rx="23.5" fill="url(#paint22_linear_1434_2015)"/>
<rect x="130.5" y="418.5" width="239" height="47" rx="23.5" stroke="url(#paint23_linear_1434_2015)"/>
<path d="M162.096 437.348V438.532H159.056V448.5H157.6V438.532H154.544V437.348H162.096ZM163.844 444.084C163.844 443.188 164.026 442.404 164.388 441.732C164.751 441.049 165.247 440.521 165.876 440.148C166.516 439.775 167.226 439.588 168.004 439.588C168.772 439.588 169.439 439.753 170.004 440.084C170.57 440.415 170.991 440.831 171.268 441.332V439.732H172.74V448.5H171.268V446.868C170.98 447.38 170.548 447.807 169.972 448.148C169.407 448.479 168.746 448.644 167.988 448.644C167.21 448.644 166.506 448.452 165.876 448.068C165.247 447.684 164.751 447.145 164.388 446.452C164.026 445.759 163.844 444.969 163.844 444.084ZM171.268 444.1C171.268 443.439 171.135 442.863 170.868 442.372C170.602 441.881 170.239 441.508 169.78 441.252C169.332 440.985 168.836 440.852 168.292 440.852C167.748 440.852 167.252 440.98 166.804 441.236C166.356 441.492 165.999 441.865 165.732 442.356C165.466 442.847 165.332 443.423 165.332 444.084C165.332 444.756 165.466 445.343 165.732 445.844C165.999 446.335 166.356 446.713 166.804 446.98C167.252 447.236 167.748 447.364 168.292 447.364C168.836 447.364 169.332 447.236 169.78 446.98C170.239 446.713 170.602 446.335 170.868 445.844C171.135 445.343 171.268 444.761 171.268 444.1ZM180.277 448.5L178.197 445.236L176.197 448.5H174.677L177.509 444.148L174.677 439.732H176.325L178.405 442.98L180.389 439.732H181.909L179.093 444.068L181.925 448.5H180.277ZM189.937 442.02V443.252H183.553V442.02H189.937ZM196.706 448.612C195.97 448.612 195.308 448.484 194.722 448.228C194.146 447.961 193.692 447.599 193.362 447.14C193.031 446.671 192.86 446.132 192.85 445.524H194.402C194.455 446.047 194.668 446.489 195.042 446.852C195.426 447.204 195.98 447.38 196.706 447.38C197.399 447.38 197.943 447.209 198.338 446.868C198.743 446.516 198.946 446.068 198.946 445.524C198.946 445.097 198.828 444.751 198.594 444.484C198.359 444.217 198.066 444.015 197.714 443.876C197.362 443.737 196.887 443.588 196.29 443.428C195.554 443.236 194.962 443.044 194.514 442.852C194.076 442.66 193.698 442.361 193.378 441.956C193.068 441.54 192.914 440.985 192.914 440.292C192.914 439.684 193.068 439.145 193.378 438.676C193.687 438.207 194.119 437.844 194.674 437.588C195.239 437.332 195.884 437.204 196.61 437.204C197.655 437.204 198.508 437.465 199.17 437.988C199.842 438.511 200.22 439.204 200.306 440.068H198.706C198.652 439.641 198.428 439.268 198.034 438.948C197.639 438.617 197.116 438.452 196.466 438.452C195.858 438.452 195.362 438.612 194.978 438.932C194.594 439.241 194.402 439.679 194.402 440.244C194.402 440.649 194.514 440.98 194.738 441.236C194.972 441.492 195.255 441.689 195.586 441.828C195.927 441.956 196.402 442.105 197.01 442.276C197.746 442.479 198.338 442.681 198.786 442.884C199.234 443.076 199.618 443.38 199.938 443.796C200.258 444.201 200.418 444.756 200.418 445.46C200.418 446.004 200.274 446.516 199.986 446.996C199.698 447.476 199.271 447.865 198.706 448.164C198.14 448.463 197.474 448.612 196.706 448.612ZM202.516 444.084C202.516 443.188 202.697 442.404 203.06 441.732C203.423 441.049 203.919 440.521 204.548 440.148C205.188 439.775 205.897 439.588 206.676 439.588C207.444 439.588 208.111 439.753 208.676 440.084C209.241 440.415 209.663 440.831 209.94 441.332V439.732H211.412V448.5H209.94V446.868C209.652 447.38 209.22 447.807 208.644 448.148C208.079 448.479 207.417 448.644 206.66 448.644C205.881 448.644 205.177 448.452 204.548 448.068C203.919 447.684 203.423 447.145 203.06 446.452C202.697 445.759 202.516 444.969 202.516 444.084ZM209.94 444.1C209.94 443.439 209.807 442.863 209.54 442.372C209.273 441.881 208.911 441.508 208.452 441.252C208.004 440.985 207.508 440.852 206.964 440.852C206.42 440.852 205.924 440.98 205.476 441.236C205.028 441.492 204.671 441.865 204.404 442.356C204.137 442.847 204.004 443.423 204.004 444.084C204.004 444.756 204.137 445.343 204.404 445.844C204.671 446.335 205.028 446.713 205.476 446.98C205.924 447.236 206.42 447.364 206.964 447.364C207.508 447.364 208.004 447.236 208.452 446.98C208.911 446.713 209.273 446.335 209.54 445.844C209.807 445.343 209.94 444.761 209.94 444.1ZM217.637 447.156L220.357 439.732H221.909L218.469 448.5H216.773L213.333 439.732H214.901L217.637 447.156ZM224.593 438.308C224.316 438.308 224.081 438.212 223.889 438.02C223.697 437.828 223.601 437.593 223.601 437.316C223.601 437.039 223.697 436.804 223.889 436.612C224.081 436.42 224.316 436.324 224.593 436.324C224.86 436.324 225.084 436.42 225.265 436.612C225.457 436.804 225.553 437.039 225.553 437.316C225.553 437.593 225.457 437.828 225.265 438.02C225.084 438.212 224.86 438.308 224.593 438.308ZM225.297 439.732V448.5H223.841V439.732H225.297ZM232.551 439.572C233.618 439.572 234.482 439.897 235.143 440.548C235.804 441.188 236.135 442.116 236.135 443.332V448.5H234.695V443.54C234.695 442.665 234.476 441.999 234.039 441.54C233.602 441.071 233.004 440.836 232.247 440.836C231.479 440.836 230.866 441.076 230.407 441.556C229.959 442.036 229.735 442.735 229.735 443.652V448.5H228.279V439.732H229.735V440.98C230.023 440.532 230.412 440.185 230.903 439.94C231.404 439.695 231.954 439.572 232.551 439.572ZM242.629 439.588C243.387 439.588 244.048 439.753 244.613 440.084C245.189 440.415 245.616 440.831 245.893 441.332V439.732H247.365V448.692C247.365 449.492 247.195 450.201 246.853 450.82C246.512 451.449 246.021 451.94 245.381 452.292C244.752 452.644 244.016 452.82 243.173 452.82C242.021 452.82 241.061 452.548 240.293 452.004C239.525 451.46 239.072 450.719 238.933 449.78H240.373C240.533 450.313 240.864 450.74 241.365 451.06C241.867 451.391 242.469 451.556 243.173 451.556C243.973 451.556 244.624 451.305 245.125 450.804C245.637 450.303 245.893 449.599 245.893 448.692V446.852C245.605 447.364 245.179 447.791 244.613 448.132C244.048 448.473 243.387 448.644 242.629 448.644C241.851 448.644 241.141 448.452 240.501 448.068C239.872 447.684 239.376 447.145 239.013 446.452C238.651 445.759 238.469 444.969 238.469 444.084C238.469 443.188 238.651 442.404 239.013 441.732C239.376 441.049 239.872 440.521 240.501 440.148C241.141 439.775 241.851 439.588 242.629 439.588ZM245.893 444.1C245.893 443.439 245.76 442.863 245.493 442.372C245.227 441.881 244.864 441.508 244.405 441.252C243.957 440.985 243.461 440.852 242.917 440.852C242.373 440.852 241.877 440.98 241.429 441.236C240.981 441.492 240.624 441.865 240.357 442.356C240.091 442.847 239.957 443.423 239.957 444.084C239.957 444.756 240.091 445.343 240.357 445.844C240.624 446.335 240.981 446.713 241.429 446.98C241.877 447.236 242.373 447.364 242.917 447.364C243.461 447.364 243.957 447.236 244.405 446.98C244.864 446.713 245.227 446.335 245.493 445.844C245.76 445.343 245.893 444.761 245.893 444.1ZM258.627 448.612C257.891 448.612 257.23 448.484 256.643 448.228C256.067 447.961 255.614 447.599 255.283 447.14C254.953 446.671 254.782 446.132 254.771 445.524H256.323C256.377 446.047 256.59 446.489 256.963 446.852C257.347 447.204 257.902 447.38 258.627 447.38C259.321 447.38 259.865 447.209 260.259 446.868C260.665 446.516 260.867 446.068 260.867 445.524C260.867 445.097 260.75 444.751 260.515 444.484C260.281 444.217 259.987 444.015 259.635 443.876C259.283 443.737 258.809 443.588 258.211 443.428C257.475 443.236 256.883 443.044 256.435 442.852C255.998 442.66 255.619 442.361 255.299 441.956C254.99 441.54 254.835 440.985 254.835 440.292C254.835 439.684 254.99 439.145 255.299 438.676C255.609 438.207 256.041 437.844 256.595 437.588C257.161 437.332 257.806 437.204 258.531 437.204C259.577 437.204 260.43 437.465 261.091 437.988C261.763 438.511 262.142 439.204 262.227 440.068H260.627C260.574 439.641 260.35 439.268 259.955 438.948C259.561 438.617 259.038 438.452 258.387 438.452C257.779 438.452 257.283 438.612 256.899 438.932C256.515 439.241 256.323 439.679 256.323 440.244C256.323 440.649 256.435 440.98 256.659 441.236C256.894 441.492 257.177 441.689 257.507 441.828C257.849 441.956 258.323 442.105 258.931 442.276C259.667 442.479 260.259 442.681 260.707 442.884C261.155 443.076 261.539 443.38 261.859 443.796C262.179 444.201 262.339 444.756 262.339 445.46C262.339 446.004 262.195 446.516 261.907 446.996C261.619 447.476 261.193 447.865 260.627 448.164C260.062 448.463 259.395 448.612 258.627 448.612ZM266.758 440.932V446.1C266.758 446.527 266.849 446.831 267.03 447.012C267.211 447.183 267.526 447.268 267.974 447.268H269.046V448.5H267.734C266.923 448.5 266.315 448.313 265.91 447.94C265.505 447.567 265.302 446.953 265.302 446.1V440.932H264.166V439.732H265.302V437.524H266.758V439.732H269.046V440.932H266.758ZM272.766 441.156C273.022 440.655 273.385 440.265 273.854 439.988C274.334 439.711 274.915 439.572 275.598 439.572V441.076H275.214C273.582 441.076 272.766 441.961 272.766 443.732V448.5H271.31V439.732H272.766V441.156ZM277.235 444.084C277.235 443.188 277.416 442.404 277.779 441.732C278.142 441.049 278.638 440.521 279.267 440.148C279.907 439.775 280.616 439.588 281.395 439.588C282.163 439.588 282.83 439.753 283.395 440.084C283.96 440.415 284.382 440.831 284.659 441.332V439.732H286.131V448.5H284.659V446.868C284.371 447.38 283.939 447.807 283.363 448.148C282.798 448.479 282.136 448.644 281.379 448.644C280.6 448.644 279.896 448.452 279.267 448.068C278.638 447.684 278.142 447.145 277.779 446.452C277.416 445.759 277.235 444.969 277.235 444.084ZM284.659 444.1C284.659 443.439 284.526 442.863 284.259 442.372C283.992 441.881 283.63 441.508 283.171 441.252C282.723 440.985 282.227 440.852 281.683 440.852C281.139 440.852 280.643 440.98 280.195 441.236C279.747 441.492 279.39 441.865 279.123 442.356C278.856 442.847 278.723 443.423 278.723 444.084C278.723 444.756 278.856 445.343 279.123 445.844C279.39 446.335 279.747 446.713 280.195 446.98C280.643 447.236 281.139 447.364 281.683 447.364C282.227 447.364 282.723 447.236 283.171 446.98C283.63 446.713 283.992 446.335 284.259 445.844C284.526 445.343 284.659 444.761 284.659 444.1ZM290.867 440.932V446.1C290.867 446.527 290.958 446.831 291.139 447.012C291.321 447.183 291.635 447.268 292.083 447.268H293.155V448.5H291.843C291.033 448.5 290.425 448.313 290.019 447.94C289.614 447.567 289.411 446.953 289.411 446.1V440.932H288.275V439.732H289.411V437.524H290.867V439.732H293.155V440.932H290.867ZM303.42 443.78C303.42 444.057 303.404 444.351 303.372 444.66H296.364C296.417 445.524 296.71 446.201 297.244 446.692C297.788 447.172 298.444 447.412 299.212 447.412C299.841 447.412 300.364 447.268 300.78 446.98C301.206 446.681 301.505 446.287 301.676 445.796H303.244C303.009 446.639 302.54 447.327 301.836 447.86C301.132 448.383 300.257 448.644 299.212 448.644C298.38 448.644 297.633 448.457 296.972 448.084C296.321 447.711 295.809 447.183 295.436 446.5C295.062 445.807 294.876 445.007 294.876 444.1C294.876 443.193 295.057 442.399 295.42 441.716C295.782 441.033 296.289 440.511 296.94 440.148C297.601 439.775 298.358 439.588 299.212 439.588C300.044 439.588 300.78 439.769 301.42 440.132C302.06 440.495 302.55 440.996 302.892 441.636C303.244 442.265 303.42 442.98 303.42 443.78ZM301.916 443.476C301.916 442.921 301.793 442.447 301.548 442.052C301.302 441.647 300.966 441.343 300.54 441.14C300.124 440.927 299.66 440.82 299.148 440.82C298.412 440.82 297.782 441.055 297.26 441.524C296.748 441.993 296.454 442.644 296.38 443.476H301.916ZM309.457 439.588C310.215 439.588 310.876 439.753 311.441 440.084C312.017 440.415 312.444 440.831 312.721 441.332V439.732H314.193V448.692C314.193 449.492 314.023 450.201 313.681 450.82C313.34 451.449 312.849 451.94 312.209 452.292C311.58 452.644 310.844 452.82 310.001 452.82C308.849 452.82 307.889 452.548 307.121 452.004C306.353 451.46 305.9 450.719 305.761 449.78H307.201C307.361 450.313 307.692 450.74 308.193 451.06C308.695 451.391 309.297 451.556 310.001 451.556C310.801 451.556 311.452 451.305 311.953 450.804C312.465 450.303 312.721 449.599 312.721 448.692V446.852C312.433 447.364 312.007 447.791 311.441 448.132C310.876 448.473 310.215 448.644 309.457 448.644C308.679 448.644 307.969 448.452 307.329 448.068C306.7 447.684 306.204 447.145 305.841 446.452C305.479 445.759 305.297 444.969 305.297 444.084C305.297 443.188 305.479 442.404 305.841 441.732C306.204 441.049 306.7 440.521 307.329 440.148C307.969 439.775 308.679 439.588 309.457 439.588ZM312.721 444.1C312.721 443.439 312.588 442.863 312.321 442.372C312.055 441.881 311.692 441.508 311.233 441.252C310.785 440.985 310.289 440.852 309.745 440.852C309.201 440.852 308.705 440.98 308.257 441.236C307.809 441.492 307.452 441.865 307.185 442.356C306.919 442.847 306.785 443.423 306.785 444.084C306.785 444.756 306.919 445.343 307.185 445.844C307.452 446.335 307.809 446.713 308.257 446.98C308.705 447.236 309.201 447.364 309.745 447.364C310.289 447.364 310.785 447.236 311.233 446.98C311.692 446.713 312.055 446.335 312.321 445.844C312.588 445.343 312.721 444.761 312.721 444.1ZM317.906 438.308C317.629 438.308 317.394 438.212 317.202 438.02C317.01 437.828 316.914 437.593 316.914 437.316C316.914 437.039 317.01 436.804 317.202 436.612C317.394 436.42 317.629 436.324 317.906 436.324C318.173 436.324 318.397 436.42 318.578 436.612C318.77 436.804 318.866 437.039 318.866 437.316C318.866 437.593 318.77 437.828 318.578 438.02C318.397 438.212 318.173 438.308 317.906 438.308ZM318.61 439.732V448.5H317.154V439.732H318.61ZM329.591 443.78C329.591 444.057 329.575 444.351 329.543 444.66H322.535C322.589 445.524 322.882 446.201 323.415 446.692C323.959 447.172 324.615 447.412 325.383 447.412C326.013 447.412 326.535 447.268 326.951 446.98C327.378 446.681 327.677 446.287 327.847 445.796H329.415C329.181 446.639 328.711 447.327 328.007 447.86C327.303 448.383 326.429 448.644 325.383 448.644C324.551 448.644 323.805 448.457 323.143 448.084C322.493 447.711 321.981 447.183 321.607 446.5C321.234 445.807 321.047 445.007 321.047 444.1C321.047 443.193 321.229 442.399 321.591 441.716C321.954 441.033 322.461 440.511 323.111 440.148C323.773 439.775 324.53 439.588 325.383 439.588C326.215 439.588 326.951 439.769 327.591 440.132C328.231 440.495 328.722 440.996 329.063 441.636C329.415 442.265 329.591 442.98 329.591 443.78ZM328.087 443.476C328.087 442.921 327.965 442.447 327.719 442.052C327.474 441.647 327.138 441.343 326.711 441.14C326.295 440.927 325.831 440.82 325.319 440.82C324.583 440.82 323.954 441.055 323.431 441.524C322.919 441.993 322.626 442.644 322.551 443.476H328.087ZM335.117 448.644C334.445 448.644 333.843 448.532 333.309 448.308C332.776 448.073 332.355 447.753 332.045 447.348C331.736 446.932 331.565 446.457 331.533 445.924H333.037C333.08 446.361 333.283 446.719 333.645 446.996C334.019 447.273 334.504 447.412 335.101 447.412C335.656 447.412 336.093 447.289 336.413 447.044C336.733 446.799 336.893 446.489 336.893 446.116C336.893 445.732 336.723 445.449 336.381 445.268C336.04 445.076 335.512 444.889 334.797 444.708C334.147 444.537 333.613 444.367 333.197 444.196C332.792 444.015 332.44 443.753 332.141 443.412C331.853 443.06 331.709 442.601 331.709 442.036C331.709 441.588 331.843 441.177 332.109 440.804C332.376 440.431 332.755 440.137 333.245 439.924C333.736 439.7 334.296 439.588 334.925 439.588C335.896 439.588 336.68 439.833 337.277 440.324C337.875 440.815 338.195 441.487 338.237 442.34H336.781C336.749 441.881 336.563 441.513 336.221 441.236C335.891 440.959 335.443 440.82 334.877 440.82C334.355 440.82 333.939 440.932 333.629 441.156C333.32 441.38 333.165 441.673 333.165 442.036C333.165 442.324 333.256 442.564 333.437 442.756C333.629 442.937 333.864 443.087 334.141 443.204C334.429 443.311 334.824 443.433 335.325 443.572C335.955 443.743 336.467 443.913 336.861 444.084C337.256 444.244 337.592 444.489 337.869 444.82C338.157 445.151 338.307 445.583 338.317 446.116C338.317 446.596 338.184 447.028 337.917 447.412C337.651 447.796 337.272 448.1 336.781 448.324C336.301 448.537 335.747 448.644 335.117 448.644Z" fill="white"/>
<path d="M142.5 442C142.5 451.665 134.665 459.5 125 459.5C115.335 459.5 107.5 451.665 107.5 442C107.5 432.335 115.335 424.5 125 424.5C134.665 424.5 142.5 432.335 142.5 442Z" fill="url(#paint24_linear_1434_2015)" stroke="url(#paint25_linear_1434_2015)"/>
<path d="M127.82 112.46V124L125.54 123.98V115.2L121.4 116.92V114.32L125.54 112.46H127.82Z" fill="white"/>
<path d="M178.8 199.48L181.08 198.1H185.22V200.36H181.24V202.64H185.14V205H178.8V199.48ZM178.8 197.12V194.84L181.08 193.46H185.22V195.74H181.32V197.12H178.8ZM192.62 205H186.2V202.64H192.62V205ZM190.02 200.36H186.12V198.1H190.02V195.74H186.12V193.46H190.26L192.62 194.84V198.98L190.02 200.36Z" fill="white"/>
<path d="M206.22 286.02H202.08V283.66H205.98V281.38H202.08V279.12H205.98V276.76H202.08V274.48H206.22L208.5 275.86V279.28L206.62 280.24L208.5 281.14V284.64L206.22 286.02ZM197.2 282.28V283.66H201.1V286.02H196.96L194.6 284.64V282.28H197.2ZM194.68 278.14V275.86L196.96 274.48H201.1V276.76H197.2V278.14H194.68ZM201.1 281.38H198.58V279.12H201.1V281.38Z" fill="white"/>
<path d="M192.42 366.98H190.08V362.44H185.94V360.1H190.08V355.48H192.42V366.98ZM182.54 360.1H184.96V362.44H178.4L182.54 355.56H185.28L182.54 360.1Z" fill="white"/>
<path d="M117.8 436.46H124.26V438.74H120.34V441.04H124.26V443.4H117.8V436.46ZM120.34 444.3V445.7H124.26V447.98H120.08L117.8 446.6V444.3H120.34ZM131.7 438.74H125.24V436.46H131.7V438.74ZM131.7 442.42V446.6L129.42 447.98H125.24V445.7H129.16V443.4H125.24V441.04H129.16L131.7 442.42Z" fill="white"/>
<path d="M0 124C86.1365 124 156 193.864 156 280C156 366.136 86.1365 436 0 436" fill="url(#paint26_linear_1434_2015)"/>
<path d="M0 124C86.1365 124 156 193.864 156 280C156 366.136 86.1365 436 0 436" stroke="url(#paint27_linear_1434_2015)" stroke-miterlimit="10"/>
<path d="M0 180C55.2157 180 100 224.784 100 280C100 335.216 55.2157 380 0 380" fill="url(#paint28_linear_1434_2015)"/>
<path d="M0 180C55.2157 180 100 224.784 100 280C100 335.216 55.2157 380 0 380" stroke="url(#paint29_linear_1434_2015)" stroke-width="0.5" stroke-miterlimit="10"/>
<path d="M0 226C29.8165 226 54 250.184 54 280C54 309.816 29.8165 334 0 334" fill="url(#paint30_linear_1434_2015)"/>
<path d="M0 226C29.8165 226 54 250.184 54 280C54 309.816 29.8165 334 0 334" stroke="url(#paint31_linear_1434_2015)" stroke-width="0.5" stroke-miterlimit="10"/>
<path d="M93 148.5C89.9332 148.5 87.5 150.933 87.5 154C87.5 157.067 89.9332 159.5 93 159.5C96.0669 159.5 98.5 157.067 98.5 154C98.5 150.933 96.0669 148.5 93 148.5Z" fill="url(#paint32_linear_1434_2015)" stroke="url(#paint33_linear_1434_2015)"/>
<path d="M141 205.5C137.933 205.5 135.5 207.933 135.5 211C135.5 214.067 137.933 216.5 141 216.5C144.067 216.5 146.5 214.067 146.5 211C146.5 207.933 144.067 205.5 141 205.5Z" fill="url(#paint34_linear_1434_2015)" stroke="url(#paint35_linear_1434_2015)"/>
<path d="M156 274.5C152.933 274.5 150.5 276.933 150.5 280C150.5 283.067 152.933 285.5 156 285.5C159.067 285.5 161.5 283.067 161.5 280C161.5 276.933 159.067 274.5 156 274.5Z" fill="url(#paint36_linear_1434_2015)" stroke="url(#paint37_linear_1434_2015)"/>
<path d="M143 338.5C139.933 338.5 137.5 340.933 137.5 344C137.5 347.067 139.933 349.5 143 349.5C146.067 349.5 148.5 347.067 148.5 344C148.5 340.933 146.067 338.5 143 338.5Z" fill="url(#paint38_linear_1434_2015)" stroke="url(#paint39_linear_1434_2015)"/>
<path d="M93 400.5C89.9332 400.5 87.5 402.933 87.5 406C87.5 409.067 89.9332 411.5 93 411.5C96.0669 411.5 98.5 409.067 98.5 406C98.5 402.933 96.0669 400.5 93 400.5Z" fill="url(#paint40_linear_1434_2015)" stroke="url(#paint41_linear_1434_2015)"/>
<defs>
<linearGradient id="paint0_linear_1434_2015" x1="27.5" y1="-380.625" x2="714.464" y2="127.526" gradientUnits="userSpaceOnUse">
<stop offset="0.303689" stop-color="#004B4B" stop-opacity="0"/>
<stop offset="0.454116" stop-color="#004B4B" stop-opacity="0.4"/>
<stop offset="0.499089" stop-color="#004B4B"/>
<stop offset="0.64438" stop-color="#26DDFF"/>
<stop offset="0.953267" stop-color="#26DDFF" stop-opacity="0"/>
</linearGradient>
<linearGradient id="paint1_linear_1434_2015" x1="85.6649" y1="236.833" x2="171.167" y2="199.378" gradientUnits="userSpaceOnUse">
<stop offset="0.303689" stop-color="#004B4B" stop-opacity="0"/>
<stop offset="0.422945" stop-color="#004B4B" stop-opacity="0.4"/>
<stop offset="0.499089" stop-color="#004B4B"/>
<stop offset="0.649516" stop-color="#26DDFF"/>
<stop offset="0.953267" stop-color="#26DDFF" stop-opacity="0"/>
</linearGradient>
<linearGradient id="paint2_linear_1434_2015" x1="135.082" y1="95.8363" x2="220.584" y2="133.291" gradientUnits="userSpaceOnUse">
<stop offset="0.303689" stop-color="#004B4B" stop-opacity="0"/>
<stop offset="0.422945" stop-color="#004B4B" stop-opacity="0.4"/>
<stop offset="0.499089" stop-color="#004B4B"/>
<stop offset="0.649516" stop-color="#26DDFF"/>
<stop offset="0.953267" stop-color="#26DDFF" stop-opacity="0"/>
</linearGradient>
<linearGradient id="paint3_linear_1434_2015" x1="146.082" y1="179.836" x2="231.584" y2="217.291" gradientUnits="userSpaceOnUse">
<stop offset="0.303689" stop-color="#004B4B" stop-opacity="0"/>
<stop offset="0.422945" stop-color="#004B4B" stop-opacity="0.4"/>
<stop offset="0.499089" stop-color="#004B4B"/>
<stop offset="0.649516" stop-color="#26DDFF"/>
<stop offset="0.953267" stop-color="#26DDFF" stop-opacity="0"/>
</linearGradient>
<linearGradient id="paint4_linear_1434_2015" x1="135.083" y1="260.836" x2="220.585" y2="298.29" gradientUnits="userSpaceOnUse">
<stop offset="0.303689" stop-color="#004B4B" stop-opacity="0"/>
<stop offset="0.422945" stop-color="#004B4B" stop-opacity="0.4"/>
<stop offset="0.499089" stop-color="#004B4B"/>
<stop offset="0.649516" stop-color="#26DDFF"/>
<stop offset="0.953267" stop-color="#26DDFF" stop-opacity="0"/>
</linearGradient>
<linearGradient id="paint5_linear_1434_2015" x1="85.6649" y1="323.667" x2="171.167" y2="361.122" gradientUnits="userSpaceOnUse">
<stop offset="0.303689" stop-color="#004B4B" stop-opacity="0"/>
<stop offset="0.422945" stop-color="#004B4B" stop-opacity="0.4"/>
<stop offset="0.499089" stop-color="#004B4B"/>
<stop offset="0.649516" stop-color="#26DDFF"/>
<stop offset="0.953267" stop-color="#26DDFF" stop-opacity="0"/>
</linearGradient>
<linearGradient id="paint6_linear_1434_2015" x1="423.095" y1="74.4288" x2="413.573" y2="164.665" gradientUnits="userSpaceOnUse">
<stop stop-color="#12637E"/>
<stop offset="0.781" stop-color="#04182D"/>
</linearGradient>
<linearGradient id="paint7_linear_1434_2015" x1="527.094" y1="83.5" x2="517.286" y2="173.533" gradientUnits="userSpaceOnUse">
<stop offset="0.303689" stop-color="#004B4B" stop-opacity="0"/>
<stop offset="0.422945" stop-color="#004B4B" stop-opacity="0.4"/>
<stop offset="0.499089" stop-color="#004B4B"/>
<stop offset="0.649516" stop-color="#26DDFF"/>
<stop offset="0.953267" stop-color="#26DDFF" stop-opacity="0"/>
</linearGradient>
<linearGradient id="paint8_linear_1434_2015" x1="143.259" y1="87.5716" x2="112.196" y2="136.131" gradientUnits="userSpaceOnUse">
<stop stop-color="#12637E"/>
<stop offset="0.781" stop-color="#04182D"/>
</linearGradient>
<linearGradient id="paint9_linear_1434_2015" x1="156.125" y1="94.375" x2="124.705" y2="141.949" gradientUnits="userSpaceOnUse">
<stop offset="0.303689" stop-color="#004B4B" stop-opacity="0"/>
<stop offset="0.422945" stop-color="#004B4B" stop-opacity="0.4"/>
<stop offset="0.499089" stop-color="#004B4B"/>
<stop offset="0.649516" stop-color="#26DDFF"/>
<stop offset="0.953267" stop-color="#26DDFF" stop-opacity="0"/>
</linearGradient>
<linearGradient id="paint10_linear_1434_2015" x1="432.727" y1="158.429" x2="421.242" y2="248.2" gradientUnits="userSpaceOnUse">
<stop stop-color="#12637E"/>
<stop offset="0.781" stop-color="#04182D"/>
</linearGradient>
<linearGradient id="paint11_linear_1434_2015" x1="518.5" y1="167.5" x2="506.673" y2="257.039" gradientUnits="userSpaceOnUse">
<stop offset="0.303689" stop-color="#004B4B" stop-opacity="0"/>
<stop offset="0.422945" stop-color="#004B4B" stop-opacity="0.4"/>
<stop offset="0.499089" stop-color="#004B4B"/>
<stop offset="0.649516" stop-color="#26DDFF"/>
<stop offset="0.953267" stop-color="#26DDFF" stop-opacity="0"/>
</linearGradient>
<linearGradient id="paint12_linear_1434_2015" x1="204.259" y1="168.572" x2="173.196" y2="217.131" gradientUnits="userSpaceOnUse">
<stop stop-color="#12637E"/>
<stop offset="0.781" stop-color="#04182D"/>
</linearGradient>
<linearGradient id="paint13_linear_1434_2015" x1="217.125" y1="175.375" x2="185.705" y2="222.949" gradientUnits="userSpaceOnUse">
<stop offset="0.303689" stop-color="#004B4B" stop-opacity="0"/>
<stop offset="0.422945" stop-color="#004B4B" stop-opacity="0.4"/>
<stop offset="0.499089" stop-color="#004B4B"/>
<stop offset="0.649516" stop-color="#26DDFF"/>
<stop offset="0.953267" stop-color="#26DDFF" stop-opacity="0"/>
</linearGradient>
<linearGradient id="paint14_linear_1434_2015" x1="448.727" y1="239.429" x2="437.242" y2="329.2" gradientUnits="userSpaceOnUse">
<stop stop-color="#12637E"/>
<stop offset="0.781" stop-color="#04182D"/>
</linearGradient>
<linearGradient id="paint15_linear_1434_2015" x1="534.5" y1="248.5" x2="522.673" y2="338.039" gradientUnits="userSpaceOnUse">
<stop offset="0.303689" stop-color="#004B4B" stop-opacity="0"/>
<stop offset="0.422945" stop-color="#004B4B" stop-opacity="0.4"/>
<stop offset="0.499089" stop-color="#004B4B"/>
<stop offset="0.649516" stop-color="#26DDFF"/>
<stop offset="0.953267" stop-color="#26DDFF" stop-opacity="0"/>
</linearGradient>
<linearGradient id="paint16_linear_1434_2015" x1="220.259" y1="249.572" x2="189.196" y2="298.131" gradientUnits="userSpaceOnUse">
<stop stop-color="#12637E"/>
<stop offset="0.781" stop-color="#04182D"/>
</linearGradient>
<linearGradient id="paint17_linear_1434_2015" x1="233.125" y1="256.375" x2="201.705" y2="303.949" gradientUnits="userSpaceOnUse">
<stop offset="0.303689" stop-color="#004B4B" stop-opacity="0"/>
<stop offset="0.422945" stop-color="#004B4B" stop-opacity="0.4"/>
<stop offset="0.499089" stop-color="#004B4B"/>
<stop offset="0.649516" stop-color="#26DDFF"/>
<stop offset="0.953267" stop-color="#26DDFF" stop-opacity="0"/>
</linearGradient>
<linearGradient id="paint18_linear_1434_2015" x1="432.727" y1="320.429" x2="421.242" y2="410.2" gradientUnits="userSpaceOnUse">
<stop stop-color="#12637E"/>
<stop offset="0.781" stop-color="#04182D"/>
</linearGradient>
<linearGradient id="paint19_linear_1434_2015" x1="518.5" y1="329.5" x2="506.673" y2="419.039" gradientUnits="userSpaceOnUse">
<stop offset="0.303689" stop-color="#004B4B" stop-opacity="0"/>
<stop offset="0.422945" stop-color="#004B4B" stop-opacity="0.4"/>
<stop offset="0.499089" stop-color="#004B4B"/>
<stop offset="0.649516" stop-color="#26DDFF"/>
<stop offset="0.953267" stop-color="#26DDFF" stop-opacity="0"/>
</linearGradient>
<linearGradient id="paint20_linear_1434_2015" x1="204.259" y1="330.572" x2="173.196" y2="379.131" gradientUnits="userSpaceOnUse">
<stop stop-color="#12637E"/>
<stop offset="0.781" stop-color="#04182D"/>
</linearGradient>
<linearGradient id="paint21_linear_1434_2015" x1="217.125" y1="337.375" x2="185.705" y2="384.949" gradientUnits="userSpaceOnUse">
<stop offset="0.303689" stop-color="#004B4B" stop-opacity="0"/>
<stop offset="0.422945" stop-color="#004B4B" stop-opacity="0.4"/>
<stop offset="0.499089" stop-color="#004B4B"/>
<stop offset="0.649516" stop-color="#26DDFF"/>
<stop offset="0.953267" stop-color="#26DDFF" stop-opacity="0"/>
</linearGradient>
<linearGradient id="paint22_linear_1434_2015" x1="371.727" y1="401.429" x2="360.242" y2="491.2" gradientUnits="userSpaceOnUse">
<stop stop-color="#12637E"/>
<stop offset="0.781" stop-color="#04182D"/>
</linearGradient>
<linearGradient id="paint23_linear_1434_2015" x1="457.5" y1="410.5" x2="445.673" y2="500.039" gradientUnits="userSpaceOnUse">
<stop offset="0.303689" stop-color="#004B4B" stop-opacity="0"/>
<stop offset="0.422945" stop-color="#004B4B" stop-opacity="0.4"/>
<stop offset="0.499089" stop-color="#004B4B"/>
<stop offset="0.649516" stop-color="#26DDFF"/>
<stop offset="0.953267" stop-color="#26DDFF" stop-opacity="0"/>
</linearGradient>
<linearGradient id="paint24_linear_1434_2015" x1="143.259" y1="411.572" x2="112.196" y2="460.131" gradientUnits="userSpaceOnUse">
<stop stop-color="#12637E"/>
<stop offset="0.781" stop-color="#04182D"/>
</linearGradient>
<linearGradient id="paint25_linear_1434_2015" x1="156.125" y1="418.375" x2="124.705" y2="465.949" gradientUnits="userSpaceOnUse">
<stop offset="0.303689" stop-color="#004B4B" stop-opacity="0"/>
<stop offset="0.422945" stop-color="#004B4B" stop-opacity="0.4"/>
<stop offset="0.499089" stop-color="#004B4B"/>
<stop offset="0.649516" stop-color="#26DDFF"/>
<stop offset="0.953267" stop-color="#26DDFF" stop-opacity="0"/>
</linearGradient>
<linearGradient id="paint26_linear_1434_2015" x1="184" y1="260.5" x2="94.6909" y2="261.688" gradientUnits="userSpaceOnUse">
<stop stop-color="#12637E"/>
<stop offset="0.781" stop-color="#04182D" stop-opacity="0.4"/>
</linearGradient>
<linearGradient id="paint27_linear_1434_2015" x1="-19.2105" y1="-2571.26" x2="340.819" y2="-2549.75" gradientUnits="userSpaceOnUse">
<stop offset="0.303689" stop-color="#004B4B" stop-opacity="0"/>
<stop offset="0.422945" stop-color="#004B4B" stop-opacity="0.4"/>
<stop offset="0.499089" stop-color="#004B4B"/>
<stop offset="0.649516" stop-color="#26DDFF"/>
<stop offset="0.953267" stop-color="#26DDFF" stop-opacity="0"/>
</linearGradient>
<linearGradient id="paint28_linear_1434_2015" x1="117.949" y1="267.5" x2="60.6993" y2="268.262" gradientUnits="userSpaceOnUse">
<stop stop-color="#12637E"/>
<stop offset="0.781" stop-color="#04182D" stop-opacity="0.4"/>
</linearGradient>
<linearGradient id="paint29_linear_1434_2015" x1="-12.3144" y1="-1547.73" x2="218.474" y2="-1533.94" gradientUnits="userSpaceOnUse">
<stop offset="0.303689" stop-color="#004B4B" stop-opacity="0"/>
<stop offset="0.422945" stop-color="#004B4B" stop-opacity="0.4"/>
<stop offset="0.499089" stop-color="#004B4B"/>
<stop offset="0.649516" stop-color="#26DDFF"/>
<stop offset="0.953267" stop-color="#26DDFF" stop-opacity="0"/>
</linearGradient>
<linearGradient id="paint30_linear_1434_2015" x1="63.6923" y1="273.25" x2="32.7776" y2="273.661" gradientUnits="userSpaceOnUse">
<stop stop-color="#12637E"/>
<stop offset="0.781" stop-color="#04182D" stop-opacity="0.4"/>
</linearGradient>
<linearGradient id="paint31_linear_1434_2015" x1="-6.64978" y1="-706.974" x2="117.976" y2="-699.529" gradientUnits="userSpaceOnUse">
<stop offset="0.303689" stop-color="#004B4B" stop-opacity="0"/>
<stop offset="0.422945" stop-color="#004B4B" stop-opacity="0.4"/>
<stop offset="0.499089" stop-color="#004B4B"/>
<stop offset="0.649516" stop-color="#26DDFF"/>
<stop offset="0.953267" stop-color="#26DDFF" stop-opacity="0"/>
</linearGradient>
<linearGradient id="paint32_linear_1434_2015" x1="98.072" y1="145.548" x2="89.4432" y2="159.036" gradientUnits="userSpaceOnUse">
<stop stop-color="#12637E"/>
<stop offset="0.781" stop-color="#04182D"/>
</linearGradient>
<linearGradient id="paint33_linear_1434_2015" x1="86.0203" y1="132.056" x2="108.263" y2="146.671" gradientUnits="userSpaceOnUse">
<stop offset="0.303689" stop-color="#004B4B" stop-opacity="0"/>
<stop offset="0.422945" stop-color="#004B4B" stop-opacity="0.4"/>
<stop offset="0.499089" stop-color="#004B4B"/>
<stop offset="0.649516" stop-color="#26DDFF"/>
<stop offset="0.953267" stop-color="#26DDFF" stop-opacity="0"/>
</linearGradient>
<linearGradient id="paint34_linear_1434_2015" x1="146.072" y1="202.548" x2="137.443" y2="216.036" gradientUnits="userSpaceOnUse">
<stop stop-color="#12637E"/>
<stop offset="0.781" stop-color="#04182D"/>
</linearGradient>
<linearGradient id="paint35_linear_1434_2015" x1="134.02" y1="189.056" x2="156.263" y2="203.671" gradientUnits="userSpaceOnUse">
<stop offset="0.303689" stop-color="#004B4B" stop-opacity="0"/>
<stop offset="0.422945" stop-color="#004B4B" stop-opacity="0.4"/>
<stop offset="0.499089" stop-color="#004B4B"/>
<stop offset="0.649516" stop-color="#26DDFF"/>
<stop offset="0.953267" stop-color="#26DDFF" stop-opacity="0"/>
</linearGradient>
<linearGradient id="paint36_linear_1434_2015" x1="161.072" y1="271.548" x2="152.443" y2="285.036" gradientUnits="userSpaceOnUse">
<stop stop-color="#12637E"/>
<stop offset="0.781" stop-color="#04182D"/>
</linearGradient>
<linearGradient id="paint37_linear_1434_2015" x1="149.02" y1="258.056" x2="171.263" y2="272.671" gradientUnits="userSpaceOnUse">
<stop offset="0.303689" stop-color="#004B4B" stop-opacity="0"/>
<stop offset="0.422945" stop-color="#004B4B" stop-opacity="0.4"/>
<stop offset="0.499089" stop-color="#004B4B"/>
<stop offset="0.649516" stop-color="#26DDFF"/>
<stop offset="0.953267" stop-color="#26DDFF" stop-opacity="0"/>
</linearGradient>
<linearGradient id="paint38_linear_1434_2015" x1="148.072" y1="335.548" x2="139.443" y2="349.036" gradientUnits="userSpaceOnUse">
<stop stop-color="#12637E"/>
<stop offset="0.781" stop-color="#04182D"/>
</linearGradient>
<linearGradient id="paint39_linear_1434_2015" x1="136.02" y1="322.056" x2="158.263" y2="336.671" gradientUnits="userSpaceOnUse">
<stop offset="0.303689" stop-color="#004B4B" stop-opacity="0"/>
<stop offset="0.422945" stop-color="#004B4B" stop-opacity="0.4"/>
<stop offset="0.499089" stop-color="#004B4B"/>
<stop offset="0.649516" stop-color="#26DDFF"/>
<stop offset="0.953267" stop-color="#26DDFF" stop-opacity="0"/>
</linearGradient>
<linearGradient id="paint40_linear_1434_2015" x1="98.072" y1="397.548" x2="89.4432" y2="411.036" gradientUnits="userSpaceOnUse">
<stop stop-color="#12637E"/>
<stop offset="0.781" stop-color="#04182D"/>
</linearGradient>
<linearGradient id="paint41_linear_1434_2015" x1="86.0203" y1="384.056" x2="108.263" y2="398.671" gradientUnits="userSpaceOnUse">
<stop offset="0.303689" stop-color="#004B4B" stop-opacity="0"/>
<stop offset="0.422945" stop-color="#004B4B" stop-opacity="0.4"/>
<stop offset="0.499089" stop-color="#004B4B"/>
<stop offset="0.649516" stop-color="#26DDFF"/>
<stop offset="0.953267" stop-color="#26DDFF" stop-opacity="0"/>
</linearGradient>
</defs>
</svg>
