<svg width="500" height="560" viewBox="0 0 500 560" fill="none" xmlns="http://www.w3.org/2000/svg">
<rect x="0.25" y="0.25" width="499.5" height="559.5" rx="15.75" stroke="url(#paint0_linear_1434_607)" stroke-width="0.5"/>
<rect x="130.5" y="91.5" width="290" height="47" rx="23.5" fill="url(#paint1_linear_1434_607)"/>
<rect x="130.5" y="91.5" width="290" height="47" rx="23.5" stroke="url(#paint2_linear_1434_607)"/>
<path d="M156.688 111.032V114.76H160.752V115.96H156.688V119.8H161.232V121H155.232V109.832H161.232V111.032H156.688ZM168.207 112.072C169.274 112.072 170.138 112.397 170.799 113.048C171.46 113.688 171.791 114.616 171.791 115.832V121H170.351V116.04C170.351 115.165 170.132 114.499 169.695 114.04C169.258 113.571 168.66 113.336 167.903 113.336C167.135 113.336 166.522 113.576 166.063 114.056C165.615 114.536 165.391 115.235 165.391 116.152V121H163.935V112.232H165.391V113.48C165.679 113.032 166.068 112.685 166.559 112.44C167.06 112.195 167.61 112.072 168.207 112.072ZM174.126 116.584C174.126 115.688 174.307 114.904 174.67 114.232C175.032 113.549 175.528 113.021 176.158 112.648C176.798 112.275 177.512 112.088 178.302 112.088C178.984 112.088 179.619 112.248 180.206 112.568C180.792 112.877 181.24 113.288 181.55 113.8V109.16H183.022V121H181.55V119.352C181.262 119.875 180.835 120.307 180.27 120.648C179.704 120.979 179.043 121.144 178.286 121.144C177.507 121.144 176.798 120.952 176.158 120.568C175.528 120.184 175.032 119.645 174.67 118.952C174.307 118.259 174.126 117.469 174.126 116.584ZM181.55 116.6C181.55 115.939 181.416 115.363 181.15 114.872C180.883 114.381 180.52 114.008 180.062 113.752C179.614 113.485 179.118 113.352 178.574 113.352C178.03 113.352 177.534 113.48 177.086 113.736C176.638 113.992 176.28 114.365 176.014 114.856C175.747 115.347 175.614 115.923 175.614 116.584C175.614 117.256 175.747 117.843 176.014 118.344C176.28 118.835 176.638 119.213 177.086 119.48C177.534 119.736 178.03 119.864 178.574 119.864C179.118 119.864 179.614 119.736 180.062 119.48C180.52 119.213 180.883 118.835 181.15 118.344C181.416 117.843 181.55 117.261 181.55 116.6ZM192.062 114.52V115.752H185.678V114.52H192.062ZM197.071 113.432V118.6C197.071 119.027 197.161 119.331 197.343 119.512C197.524 119.683 197.839 119.768 198.286 119.768H199.359V121H198.047C197.236 121 196.628 120.813 196.223 120.44C195.817 120.067 195.615 119.453 195.615 118.6V113.432H194.479V112.232H195.615V110.024H197.071V112.232H199.359V113.432H197.071ZM205.447 121.144C204.625 121.144 203.879 120.957 203.207 120.584C202.545 120.211 202.023 119.683 201.639 119C201.265 118.307 201.079 117.507 201.079 116.6C201.079 115.704 201.271 114.915 201.655 114.232C202.049 113.539 202.583 113.011 203.255 112.648C203.927 112.275 204.679 112.088 205.511 112.088C206.343 112.088 207.095 112.275 207.767 112.648C208.439 113.011 208.967 113.533 209.351 114.216C209.745 114.899 209.943 115.693 209.943 116.6C209.943 117.507 209.74 118.307 209.335 119C208.94 119.683 208.401 120.211 207.719 120.584C207.036 120.957 206.279 121.144 205.447 121.144ZM205.447 119.864C205.969 119.864 206.46 119.741 206.919 119.496C207.377 119.251 207.745 118.883 208.023 118.392C208.311 117.901 208.455 117.304 208.455 116.6C208.455 115.896 208.316 115.299 208.039 114.808C207.761 114.317 207.399 113.955 206.951 113.72C206.503 113.475 206.017 113.352 205.495 113.352C204.961 113.352 204.471 113.475 204.023 113.72C203.585 113.955 203.233 114.317 202.967 114.808C202.7 115.299 202.567 115.896 202.567 116.6C202.567 117.315 202.695 117.917 202.951 118.408C203.217 118.899 203.569 119.267 204.007 119.512C204.444 119.747 204.924 119.864 205.447 119.864ZM218.437 114.52V115.752H212.053V114.52H218.437ZM223.126 111.032V114.76H227.19V115.96H223.126V119.8H227.67V121H221.67V109.832H227.67V111.032H223.126ZM234.645 112.072C235.711 112.072 236.575 112.397 237.237 113.048C237.898 113.688 238.229 114.616 238.229 115.832V121H236.789V116.04C236.789 115.165 236.57 114.499 236.133 114.04C235.695 113.571 235.098 113.336 234.341 113.336C233.573 113.336 232.959 113.576 232.501 114.056C232.053 114.536 231.829 115.235 231.829 116.152V121H230.373V112.232H231.829V113.48C232.117 113.032 232.506 112.685 232.997 112.44C233.498 112.195 234.047 112.072 234.645 112.072ZM240.563 116.584C240.563 115.688 240.744 114.904 241.107 114.232C241.47 113.549 241.966 113.021 242.595 112.648C243.235 112.275 243.95 112.088 244.739 112.088C245.422 112.088 246.056 112.248 246.643 112.568C247.23 112.877 247.678 113.288 247.987 113.8V109.16H249.459V121H247.987V119.352C247.699 119.875 247.272 120.307 246.707 120.648C246.142 120.979 245.48 121.144 244.723 121.144C243.944 121.144 243.235 120.952 242.595 120.568C241.966 120.184 241.47 119.645 241.107 118.952C240.744 118.259 240.563 117.469 240.563 116.584ZM247.987 116.6C247.987 115.939 247.854 115.363 247.587 114.872C247.32 114.381 246.958 114.008 246.499 113.752C246.051 113.485 245.555 113.352 245.011 113.352C244.467 113.352 243.971 113.48 243.523 113.736C243.075 113.992 242.718 114.365 242.451 114.856C242.184 115.347 242.051 115.923 242.051 116.584C242.051 117.256 242.184 117.843 242.451 118.344C242.718 118.835 243.075 119.213 243.523 119.48C243.971 119.736 244.467 119.864 245.011 119.864C245.555 119.864 246.051 119.736 246.499 119.48C246.958 119.213 247.32 118.835 247.587 118.344C247.854 117.843 247.987 117.261 247.987 116.6ZM258.641 111.032V114.76H262.705V115.96H258.641V119.8H263.185V121H257.185V109.832H263.185V111.032H258.641ZM270.16 112.072C271.227 112.072 272.091 112.397 272.752 113.048C273.414 113.688 273.744 114.616 273.744 115.832V121H272.304V116.04C272.304 115.165 272.086 114.499 271.648 114.04C271.211 113.571 270.614 113.336 269.856 113.336C269.088 113.336 268.475 113.576 268.016 114.056C267.568 114.536 267.344 115.235 267.344 116.152V121H265.888V112.232H267.344V113.48C267.632 113.032 268.022 112.685 268.512 112.44C269.014 112.195 269.563 112.072 270.16 112.072ZM276.079 116.6C276.079 115.693 276.26 114.904 276.623 114.232C276.985 113.549 277.487 113.021 278.127 112.648C278.777 112.275 279.519 112.088 280.351 112.088C281.428 112.088 282.313 112.349 283.007 112.872C283.711 113.395 284.175 114.12 284.399 115.048H282.831C282.681 114.515 282.388 114.093 281.951 113.784C281.524 113.475 280.991 113.32 280.351 113.32C279.519 113.32 278.847 113.608 278.335 114.184C277.823 114.749 277.567 115.555 277.567 116.6C277.567 117.656 277.823 118.472 278.335 119.048C278.847 119.624 279.519 119.912 280.351 119.912C280.991 119.912 281.524 119.763 281.951 119.464C282.377 119.165 282.671 118.739 282.831 118.184H284.399C284.164 119.08 283.695 119.8 282.991 120.344C282.287 120.877 281.407 121.144 280.351 121.144C279.519 121.144 278.777 120.957 278.127 120.584C277.487 120.211 276.985 119.683 276.623 119C276.26 118.317 276.079 117.517 276.079 116.6ZM288.297 113.656C288.553 113.155 288.916 112.765 289.385 112.488C289.865 112.211 290.447 112.072 291.129 112.072V113.576H290.745C289.113 113.576 288.297 114.461 288.297 116.232V121H286.841V112.232H288.297V113.656ZM300.862 112.232L295.582 125.128H294.078L295.806 120.904L292.27 112.232H293.886L296.638 119.336L299.358 112.232H300.862ZM304.282 113.848C304.57 113.347 304.996 112.931 305.562 112.6C306.138 112.259 306.804 112.088 307.562 112.088C308.34 112.088 309.044 112.275 309.674 112.648C310.314 113.021 310.815 113.549 311.178 114.232C311.54 114.904 311.722 115.688 311.722 116.584C311.722 117.469 311.54 118.259 311.178 118.952C310.815 119.645 310.314 120.184 309.674 120.568C309.044 120.952 308.34 121.144 307.562 121.144C306.815 121.144 306.154 120.979 305.578 120.648C305.012 120.307 304.58 119.885 304.282 119.384V125.16H302.826V112.232H304.282V113.848ZM310.234 116.584C310.234 115.923 310.1 115.347 309.834 114.856C309.567 114.365 309.204 113.992 308.746 113.736C308.298 113.48 307.802 113.352 307.258 113.352C306.724 113.352 306.228 113.485 305.77 113.752C305.322 114.008 304.959 114.387 304.682 114.888C304.415 115.379 304.282 115.949 304.282 116.6C304.282 117.261 304.415 117.843 304.682 118.344C304.959 118.835 305.322 119.213 305.77 119.48C306.228 119.736 306.724 119.864 307.258 119.864C307.802 119.864 308.298 119.736 308.746 119.48C309.204 119.213 309.567 118.835 309.834 118.344C310.1 117.843 310.234 117.256 310.234 116.584ZM315.914 113.432V118.6C315.914 119.027 316.005 119.331 316.186 119.512C316.368 119.683 316.682 119.768 317.13 119.768H318.202V121H316.89C316.08 121 315.472 120.813 315.066 120.44C314.661 120.067 314.458 119.453 314.458 118.6V113.432H313.322V112.232H314.458V110.024H315.914V112.232H318.202V113.432H315.914ZM321.218 110.808C320.941 110.808 320.706 110.712 320.514 110.52C320.322 110.328 320.226 110.093 320.226 109.816C320.226 109.539 320.322 109.304 320.514 109.112C320.706 108.92 320.941 108.824 321.218 108.824C321.485 108.824 321.709 108.92 321.89 109.112C322.082 109.304 322.178 109.539 322.178 109.816C322.178 110.093 322.082 110.328 321.89 110.52C321.709 110.712 321.485 110.808 321.218 110.808ZM321.922 112.232V121H320.466V112.232H321.922ZM328.728 121.144C327.907 121.144 327.16 120.957 326.488 120.584C325.827 120.211 325.304 119.683 324.92 119C324.547 118.307 324.36 117.507 324.36 116.6C324.36 115.704 324.552 114.915 324.936 114.232C325.331 113.539 325.864 113.011 326.536 112.648C327.208 112.275 327.96 112.088 328.792 112.088C329.624 112.088 330.376 112.275 331.048 112.648C331.72 113.011 332.248 113.533 332.632 114.216C333.027 114.899 333.224 115.693 333.224 116.6C333.224 117.507 333.021 118.307 332.616 119C332.221 119.683 331.683 120.211 331 120.584C330.317 120.957 329.56 121.144 328.728 121.144ZM328.728 119.864C329.251 119.864 329.741 119.741 330.2 119.496C330.659 119.251 331.027 118.883 331.304 118.392C331.592 117.901 331.736 117.304 331.736 116.6C331.736 115.896 331.597 115.299 331.32 114.808C331.043 114.317 330.68 113.955 330.232 113.72C329.784 113.475 329.299 113.352 328.776 113.352C328.243 113.352 327.752 113.475 327.304 113.72C326.867 113.955 326.515 114.317 326.248 114.808C325.981 115.299 325.848 115.896 325.848 116.6C325.848 117.315 325.976 117.917 326.232 118.408C326.499 118.899 326.851 119.267 327.288 119.512C327.725 119.747 328.205 119.864 328.728 119.864ZM339.91 112.072C340.977 112.072 341.841 112.397 342.502 113.048C343.164 113.688 343.494 114.616 343.494 115.832V121H342.054V116.04C342.054 115.165 341.836 114.499 341.398 114.04C340.961 113.571 340.364 113.336 339.606 113.336C338.838 113.336 338.225 113.576 337.766 114.056C337.318 114.536 337.094 115.235 337.094 116.152V121H335.638V112.232H337.094V113.48C337.382 113.032 337.772 112.685 338.262 112.44C338.764 112.195 339.313 112.072 339.91 112.072Z" fill="white"/>
<rect x="191.5" y="175.5" width="239" height="47" rx="23.5" fill="url(#paint3_linear_1434_607)"/>
<rect x="191.5" y="175.5" width="239" height="47" rx="23.5" stroke="url(#paint4_linear_1434_607)"/>
<path d="M223.096 194.348V195.532H220.056V205.5H218.6V195.532H215.544V194.348H223.096ZM226.844 198.156C227.1 197.655 227.463 197.265 227.932 196.988C228.412 196.711 228.994 196.572 229.676 196.572V198.076H229.292C227.66 198.076 226.844 198.961 226.844 200.732V205.5H225.388V196.732H226.844V198.156ZM231.313 201.084C231.313 200.188 231.494 199.404 231.857 198.732C232.22 198.049 232.716 197.521 233.345 197.148C233.985 196.775 234.694 196.588 235.473 196.588C236.241 196.588 236.908 196.753 237.473 197.084C238.038 197.415 238.46 197.831 238.737 198.332V196.732H240.209V205.5H238.737V203.868C238.449 204.38 238.017 204.807 237.441 205.148C236.876 205.479 236.214 205.644 235.457 205.644C234.678 205.644 233.974 205.452 233.345 205.068C232.716 204.684 232.22 204.145 231.857 203.452C231.494 202.759 231.313 201.969 231.313 201.084ZM238.737 201.1C238.737 200.439 238.604 199.863 238.337 199.372C238.07 198.881 237.708 198.508 237.249 198.252C236.801 197.985 236.305 197.852 235.761 197.852C235.217 197.852 234.721 197.98 234.273 198.236C233.825 198.492 233.468 198.865 233.201 199.356C232.934 199.847 232.801 200.423 232.801 201.084C232.801 201.756 232.934 202.343 233.201 202.844C233.468 203.335 233.825 203.713 234.273 203.98C234.721 204.236 235.217 204.364 235.761 204.364C236.305 204.364 236.801 204.236 237.249 203.98C237.708 203.713 238.07 203.335 238.337 202.844C238.604 202.343 238.737 201.761 238.737 201.1ZM247.442 196.572C248.508 196.572 249.372 196.897 250.034 197.548C250.695 198.188 251.026 199.116 251.026 200.332V205.5H249.586V200.54C249.586 199.665 249.367 198.999 248.93 198.54C248.492 198.071 247.895 197.836 247.138 197.836C246.37 197.836 245.756 198.076 245.298 198.556C244.85 199.036 244.626 199.735 244.626 200.652V205.5H243.17V196.732H244.626V197.98C244.914 197.532 245.303 197.185 245.794 196.94C246.295 196.695 246.844 196.572 247.442 196.572ZM257.008 205.644C256.336 205.644 255.733 205.532 255.2 205.308C254.667 205.073 254.245 204.753 253.936 204.348C253.627 203.932 253.456 203.457 253.424 202.924H254.928C254.971 203.361 255.173 203.719 255.536 203.996C255.909 204.273 256.395 204.412 256.992 204.412C257.547 204.412 257.984 204.289 258.304 204.044C258.624 203.799 258.784 203.489 258.784 203.116C258.784 202.732 258.613 202.449 258.272 202.268C257.931 202.076 257.403 201.889 256.688 201.708C256.037 201.537 255.504 201.367 255.088 201.196C254.683 201.015 254.331 200.753 254.032 200.412C253.744 200.06 253.6 199.601 253.6 199.036C253.6 198.588 253.733 198.177 254 197.804C254.267 197.431 254.645 197.137 255.136 196.924C255.627 196.7 256.187 196.588 256.816 196.588C257.787 196.588 258.571 196.833 259.168 197.324C259.765 197.815 260.085 198.487 260.128 199.34H258.672C258.64 198.881 258.453 198.513 258.112 198.236C257.781 197.959 257.333 197.82 256.768 197.82C256.245 197.82 255.829 197.932 255.52 198.156C255.211 198.38 255.056 198.673 255.056 199.036C255.056 199.324 255.147 199.564 255.328 199.756C255.52 199.937 255.755 200.087 256.032 200.204C256.32 200.311 256.715 200.433 257.216 200.572C257.845 200.743 258.357 200.913 258.752 201.084C259.147 201.244 259.483 201.489 259.76 201.82C260.048 202.151 260.197 202.583 260.208 203.116C260.208 203.596 260.075 204.028 259.808 204.412C259.541 204.796 259.163 205.1 258.672 205.324C258.192 205.537 257.637 205.644 257.008 205.644ZM262.219 201.084C262.219 200.188 262.401 199.404 262.763 198.732C263.126 198.049 263.622 197.521 264.251 197.148C264.891 196.775 265.601 196.588 266.379 196.588C267.147 196.588 267.814 196.753 268.379 197.084C268.945 197.415 269.366 197.831 269.643 198.332V196.732H271.115V205.5H269.643V203.868C269.355 204.38 268.923 204.807 268.347 205.148C267.782 205.479 267.121 205.644 266.363 205.644C265.585 205.644 264.881 205.452 264.251 205.068C263.622 204.684 263.126 204.145 262.763 203.452C262.401 202.759 262.219 201.969 262.219 201.084ZM269.643 201.1C269.643 200.439 269.51 199.863 269.243 199.372C268.977 198.881 268.614 198.508 268.155 198.252C267.707 197.985 267.211 197.852 266.667 197.852C266.123 197.852 265.627 197.98 265.179 198.236C264.731 198.492 264.374 198.865 264.107 199.356C263.841 199.847 263.707 200.423 263.707 201.084C263.707 201.756 263.841 202.343 264.107 202.844C264.374 203.335 264.731 203.713 265.179 203.98C265.627 204.236 266.123 204.364 266.667 204.364C267.211 204.364 267.707 204.236 268.155 203.98C268.614 203.713 268.977 203.335 269.243 202.844C269.51 202.343 269.643 201.761 269.643 201.1ZM273.532 201.1C273.532 200.193 273.713 199.404 274.076 198.732C274.438 198.049 274.94 197.521 275.58 197.148C276.23 196.775 276.972 196.588 277.804 196.588C278.881 196.588 279.766 196.849 280.46 197.372C281.164 197.895 281.628 198.62 281.852 199.548H280.284C280.134 199.015 279.841 198.593 279.404 198.284C278.977 197.975 278.444 197.82 277.804 197.82C276.972 197.82 276.3 198.108 275.788 198.684C275.276 199.249 275.02 200.055 275.02 201.1C275.02 202.156 275.276 202.972 275.788 203.548C276.3 204.124 276.972 204.412 277.804 204.412C278.444 204.412 278.977 204.263 279.404 203.964C279.83 203.665 280.124 203.239 280.284 202.684H281.852C281.617 203.58 281.148 204.3 280.444 204.844C279.74 205.377 278.86 205.644 277.804 205.644C276.972 205.644 276.23 205.457 275.58 205.084C274.94 204.711 274.438 204.183 274.076 203.5C273.713 202.817 273.532 202.017 273.532 201.1ZM286.071 197.932V203.1C286.071 203.527 286.161 203.831 286.343 204.012C286.524 204.183 286.839 204.268 287.286 204.268H288.359V205.5H287.047C286.236 205.5 285.628 205.313 285.223 204.94C284.817 204.567 284.615 203.953 284.615 203.1V197.932H283.479V196.732H284.615V194.524H286.071V196.732H288.359V197.932H286.071ZM291.375 195.308C291.097 195.308 290.863 195.212 290.671 195.02C290.479 194.828 290.383 194.593 290.383 194.316C290.383 194.039 290.479 193.804 290.671 193.612C290.863 193.42 291.097 193.324 291.375 193.324C291.641 193.324 291.865 193.42 292.047 193.612C292.239 193.804 292.335 194.039 292.335 194.316C292.335 194.593 292.239 194.828 292.047 195.02C291.865 195.212 291.641 195.308 291.375 195.308ZM292.079 196.732V205.5H290.623V196.732H292.079ZM298.884 205.644C298.063 205.644 297.316 205.457 296.644 205.084C295.983 204.711 295.46 204.183 295.076 203.5C294.703 202.807 294.516 202.007 294.516 201.1C294.516 200.204 294.708 199.415 295.092 198.732C295.487 198.039 296.02 197.511 296.692 197.148C297.364 196.775 298.116 196.588 298.948 196.588C299.78 196.588 300.532 196.775 301.204 197.148C301.876 197.511 302.404 198.033 302.788 198.716C303.183 199.399 303.38 200.193 303.38 201.1C303.38 202.007 303.177 202.807 302.772 203.5C302.377 204.183 301.839 204.711 301.156 205.084C300.473 205.457 299.716 205.644 298.884 205.644ZM298.884 204.364C299.407 204.364 299.897 204.241 300.356 203.996C300.815 203.751 301.183 203.383 301.46 202.892C301.748 202.401 301.892 201.804 301.892 201.1C301.892 200.396 301.753 199.799 301.476 199.308C301.199 198.817 300.836 198.455 300.388 198.22C299.94 197.975 299.455 197.852 298.932 197.852C298.399 197.852 297.908 197.975 297.46 198.22C297.023 198.455 296.671 198.817 296.404 199.308C296.137 199.799 296.004 200.396 296.004 201.1C296.004 201.815 296.132 202.417 296.388 202.908C296.655 203.399 297.007 203.767 297.444 204.012C297.881 204.247 298.361 204.364 298.884 204.364ZM310.067 196.572C311.133 196.572 311.997 196.897 312.659 197.548C313.32 198.188 313.651 199.116 313.651 200.332V205.5H312.211V200.54C312.211 199.665 311.992 198.999 311.555 198.54C311.117 198.071 310.52 197.836 309.763 197.836C308.995 197.836 308.381 198.076 307.923 198.556C307.475 199.036 307.251 199.735 307.251 200.652V205.5H305.795V196.732H307.251V197.98C307.539 197.532 307.928 197.185 308.419 196.94C308.92 196.695 309.469 196.572 310.067 196.572ZM332.607 194.428V205.5H331.151V197.244L327.471 205.5H326.447L322.751 197.228V205.5H321.295V194.428H322.863L326.959 203.58L331.055 194.428H332.607ZM339.4 205.644C338.578 205.644 337.832 205.457 337.16 205.084C336.498 204.711 335.976 204.183 335.592 203.5C335.218 202.807 335.032 202.007 335.032 201.1C335.032 200.204 335.224 199.415 335.608 198.732C336.002 198.039 336.536 197.511 337.208 197.148C337.88 196.775 338.632 196.588 339.464 196.588C340.296 196.588 341.048 196.775 341.72 197.148C342.392 197.511 342.92 198.033 343.304 198.716C343.698 199.399 343.896 200.193 343.896 201.1C343.896 202.007 343.693 202.807 343.288 203.5C342.893 204.183 342.354 204.711 341.672 205.084C340.989 205.457 340.232 205.644 339.4 205.644ZM339.4 204.364C339.922 204.364 340.413 204.241 340.872 203.996C341.33 203.751 341.698 203.383 341.976 202.892C342.264 202.401 342.408 201.804 342.408 201.1C342.408 200.396 342.269 199.799 341.992 199.308C341.714 198.817 341.352 198.455 340.904 198.22C340.456 197.975 339.97 197.852 339.448 197.852C338.914 197.852 338.424 197.975 337.976 198.22C337.538 198.455 337.186 198.817 336.92 199.308C336.653 199.799 336.52 200.396 336.52 201.1C336.52 201.815 336.648 202.417 336.904 202.908C337.17 203.399 337.522 203.767 337.96 204.012C338.397 204.247 338.877 204.364 339.4 204.364ZM350.582 196.572C351.649 196.572 352.513 196.897 353.174 197.548C353.835 198.188 354.166 199.116 354.166 200.332V205.5H352.726V200.54C352.726 199.665 352.507 198.999 352.07 198.54C351.633 198.071 351.035 197.836 350.278 197.836C349.51 197.836 348.897 198.076 348.438 198.556C347.99 199.036 347.766 199.735 347.766 200.652V205.5H346.31V196.732H347.766V197.98C348.054 197.532 348.443 197.185 348.934 196.94C349.435 196.695 349.985 196.572 350.582 196.572ZM357.797 195.308C357.519 195.308 357.285 195.212 357.093 195.02C356.901 194.828 356.805 194.593 356.805 194.316C356.805 194.039 356.901 193.804 357.093 193.612C357.285 193.42 357.519 193.324 357.797 193.324C358.063 193.324 358.287 193.42 358.469 193.612C358.661 193.804 358.757 194.039 358.757 194.316C358.757 194.593 358.661 194.828 358.469 195.02C358.287 195.212 358.063 195.308 357.797 195.308ZM358.501 196.732V205.5H357.045V196.732H358.501ZM363.258 197.932V203.1C363.258 203.527 363.349 203.831 363.53 204.012C363.711 204.183 364.026 204.268 364.474 204.268H365.546V205.5H364.234C363.423 205.5 362.815 205.313 362.41 204.94C362.005 204.567 361.802 203.953 361.802 203.1V197.932H360.666V196.732H361.802V194.524H363.258V196.732H365.546V197.932H363.258ZM371.634 205.644C370.813 205.644 370.066 205.457 369.394 205.084C368.733 204.711 368.21 204.183 367.826 203.5C367.453 202.807 367.266 202.007 367.266 201.1C367.266 200.204 367.458 199.415 367.842 198.732C368.237 198.039 368.77 197.511 369.442 197.148C370.114 196.775 370.866 196.588 371.698 196.588C372.53 196.588 373.282 196.775 373.954 197.148C374.626 197.511 375.154 198.033 375.538 198.716C375.933 199.399 376.13 200.193 376.13 201.1C376.13 202.007 375.927 202.807 375.522 203.5C375.127 204.183 374.589 204.711 373.906 205.084C373.223 205.457 372.466 205.644 371.634 205.644ZM371.634 204.364C372.157 204.364 372.647 204.241 373.106 203.996C373.565 203.751 373.933 203.383 374.21 202.892C374.498 202.401 374.642 201.804 374.642 201.1C374.642 200.396 374.503 199.799 374.226 199.308C373.949 198.817 373.586 198.455 373.138 198.22C372.69 197.975 372.205 197.852 371.682 197.852C371.149 197.852 370.658 197.975 370.21 198.22C369.773 198.455 369.421 198.817 369.154 199.308C368.887 199.799 368.754 200.396 368.754 201.1C368.754 201.815 368.882 202.417 369.138 202.908C369.405 203.399 369.757 203.767 370.194 204.012C370.631 204.247 371.111 204.364 371.634 204.364ZM380.001 198.156C380.257 197.655 380.619 197.265 381.089 196.988C381.569 196.711 382.15 196.572 382.833 196.572V198.076H382.449C380.817 198.076 380.001 198.961 380.001 200.732V205.5H378.545V196.732H380.001V198.156ZM385.765 195.308C385.488 195.308 385.253 195.212 385.061 195.02C384.869 194.828 384.773 194.593 384.773 194.316C384.773 194.039 384.869 193.804 385.061 193.612C385.253 193.42 385.488 193.324 385.765 193.324C386.032 193.324 386.256 193.42 386.437 193.612C386.629 193.804 386.725 194.039 386.725 194.316C386.725 194.593 386.629 194.828 386.437 195.02C386.256 195.212 386.032 195.308 385.765 195.308ZM386.469 196.732V205.5H385.013V196.732H386.469ZM393.723 196.572C394.789 196.572 395.653 196.897 396.315 197.548C396.976 198.188 397.307 199.116 397.307 200.332V205.5H395.867V200.54C395.867 199.665 395.648 198.999 395.211 198.54C394.773 198.071 394.176 197.836 393.419 197.836C392.651 197.836 392.037 198.076 391.579 198.556C391.131 199.036 390.907 199.735 390.907 200.652V205.5H389.451V196.732H390.907V197.98C391.195 197.532 391.584 197.185 392.075 196.94C392.576 196.695 393.125 196.572 393.723 196.572ZM403.801 196.588C404.558 196.588 405.22 196.753 405.785 197.084C406.361 197.415 406.788 197.831 407.065 198.332V196.732H408.537V205.692C408.537 206.492 408.366 207.201 408.025 207.82C407.684 208.449 407.193 208.94 406.553 209.292C405.924 209.644 405.188 209.82 404.345 209.82C403.193 209.82 402.233 209.548 401.465 209.004C400.697 208.46 400.244 207.719 400.105 206.78H401.545C401.705 207.313 402.036 207.74 402.537 208.06C403.038 208.391 403.641 208.556 404.345 208.556C405.145 208.556 405.796 208.305 406.297 207.804C406.809 207.303 407.065 206.599 407.065 205.692V203.852C406.777 204.364 406.35 204.791 405.785 205.132C405.22 205.473 404.558 205.644 403.801 205.644C403.022 205.644 402.313 205.452 401.673 205.068C401.044 204.684 400.548 204.145 400.185 203.452C399.822 202.759 399.641 201.969 399.641 201.084C399.641 200.188 399.822 199.404 400.185 198.732C400.548 198.049 401.044 197.521 401.673 197.148C402.313 196.775 403.022 196.588 403.801 196.588ZM407.065 201.1C407.065 200.439 406.932 199.863 406.665 199.372C406.398 198.881 406.036 198.508 405.577 198.252C405.129 197.985 404.633 197.852 404.089 197.852C403.545 197.852 403.049 197.98 402.601 198.236C402.153 198.492 401.796 198.865 401.529 199.356C401.262 199.847 401.129 200.423 401.129 201.084C401.129 201.756 401.262 202.343 401.529 202.844C401.796 203.335 402.153 203.713 402.601 203.98C403.049 204.236 403.545 204.364 404.089 204.364C404.633 204.364 405.129 204.236 405.577 203.98C406.036 203.713 406.398 203.335 406.665 202.844C406.932 202.343 407.065 201.761 407.065 201.1Z" fill="white"/>
<rect x="207.5" y="256.5" width="239" height="47" rx="23.5" fill="url(#paint5_linear_1434_607)"/>
<rect x="207.5" y="256.5" width="239" height="47" rx="23.5" stroke="url(#paint6_linear_1434_607)"/>
<path d="M238.824 284.02H233.96L233.064 286.5H231.528L235.56 275.412H237.24L241.256 286.5H239.72L238.824 284.02ZM238.408 282.836L236.392 277.204L234.376 282.836H238.408ZM247.785 277.572C248.852 277.572 249.716 277.897 250.377 278.548C251.039 279.188 251.369 280.116 251.369 281.332V286.5H249.929V281.54C249.929 280.665 249.711 279.999 249.273 279.54C248.836 279.071 248.239 278.836 247.481 278.836C246.713 278.836 246.1 279.076 245.641 279.556C245.193 280.036 244.969 280.735 244.969 281.652V286.5H243.513V277.732H244.969V278.98C245.257 278.532 245.647 278.185 246.137 277.94C246.639 277.695 247.188 277.572 247.785 277.572ZM256.024 278.932V284.1C256.024 284.527 256.114 284.831 256.296 285.012C256.477 285.183 256.792 285.268 257.24 285.268H258.312V286.5H257C256.189 286.5 255.581 286.313 255.176 285.94C254.77 285.567 254.568 284.953 254.568 284.1V278.932H253.432V277.732H254.568V275.524H256.024V277.732H258.312V278.932H256.024ZM261.328 276.308C261.05 276.308 260.816 276.212 260.624 276.02C260.432 275.828 260.336 275.593 260.336 275.316C260.336 275.039 260.432 274.804 260.624 274.612C260.816 274.42 261.05 274.324 261.328 274.324C261.594 274.324 261.818 274.42 262 274.612C262.192 274.804 262.288 275.039 262.288 275.316C262.288 275.593 262.192 275.828 262 276.02C261.818 276.212 261.594 276.308 261.328 276.308ZM262.032 277.732V286.5H260.576V277.732H262.032ZM271.093 280.02V281.252H264.709V280.02H271.093ZM285.638 275.428V286.5H284.182V278.244L280.502 286.5H279.478L275.782 278.228V286.5H274.326V275.428H275.894L279.99 284.58L284.086 275.428H285.638ZM292.431 286.644C291.61 286.644 290.863 286.457 290.191 286.084C289.53 285.711 289.007 285.183 288.623 284.5C288.25 283.807 288.063 283.007 288.063 282.1C288.063 281.204 288.255 280.415 288.639 279.732C289.034 279.039 289.567 278.511 290.239 278.148C290.911 277.775 291.663 277.588 292.495 277.588C293.327 277.588 294.079 277.775 294.751 278.148C295.423 278.511 295.951 279.033 296.335 279.716C296.73 280.399 296.927 281.193 296.927 282.1C296.927 283.007 296.724 283.807 296.319 284.5C295.924 285.183 295.386 285.711 294.703 286.084C294.02 286.457 293.263 286.644 292.431 286.644ZM292.431 285.364C292.954 285.364 293.444 285.241 293.903 284.996C294.362 284.751 294.73 284.383 295.007 283.892C295.295 283.401 295.439 282.804 295.439 282.1C295.439 281.396 295.3 280.799 295.023 280.308C294.746 279.817 294.383 279.455 293.935 279.22C293.487 278.975 293.002 278.852 292.479 278.852C291.946 278.852 291.455 278.975 291.007 279.22C290.57 279.455 290.218 279.817 289.951 280.308C289.684 280.799 289.551 281.396 289.551 282.1C289.551 282.815 289.679 283.417 289.935 283.908C290.202 284.399 290.554 284.767 290.991 285.012C291.428 285.247 291.908 285.364 292.431 285.364ZM303.613 277.572C304.68 277.572 305.544 277.897 306.205 278.548C306.867 279.188 307.197 280.116 307.197 281.332V286.5H305.757V281.54C305.757 280.665 305.539 279.999 305.101 279.54C304.664 279.071 304.067 278.836 303.309 278.836C302.541 278.836 301.928 279.076 301.469 279.556C301.021 280.036 300.797 280.735 300.797 281.652V286.5H299.341V277.732H300.797V278.98C301.085 278.532 301.475 278.185 301.965 277.94C302.467 277.695 303.016 277.572 303.613 277.572ZM318.076 281.78C318.076 282.057 318.06 282.351 318.028 282.66H311.02C311.073 283.524 311.366 284.201 311.9 284.692C312.444 285.172 313.1 285.412 313.868 285.412C314.497 285.412 315.02 285.268 315.436 284.98C315.862 284.681 316.161 284.287 316.332 283.796H317.9C317.665 284.639 317.196 285.327 316.492 285.86C315.788 286.383 314.913 286.644 313.868 286.644C313.036 286.644 312.289 286.457 311.628 286.084C310.977 285.711 310.465 285.183 310.092 284.5C309.718 283.807 309.532 283.007 309.532 282.1C309.532 281.193 309.713 280.399 310.076 279.716C310.438 279.033 310.945 278.511 311.596 278.148C312.257 277.775 313.014 277.588 313.868 277.588C314.7 277.588 315.436 277.769 316.076 278.132C316.716 278.495 317.206 278.996 317.548 279.636C317.9 280.265 318.076 280.98 318.076 281.78ZM316.572 281.476C316.572 280.921 316.449 280.447 316.204 280.052C315.958 279.647 315.622 279.343 315.196 279.14C314.78 278.927 314.316 278.82 313.804 278.82C313.068 278.82 312.438 279.055 311.916 279.524C311.404 279.993 311.11 280.644 311.036 281.476H316.572ZM328.05 277.732L322.77 290.628H321.266L322.994 286.404L319.458 277.732H321.074L323.826 284.836L326.546 277.732H328.05ZM336.235 285.316H340.139V286.5H334.779V275.348H336.235V285.316ZM341.641 282.084C341.641 281.188 341.822 280.404 342.185 279.732C342.548 279.049 343.044 278.521 343.673 278.148C344.313 277.775 345.022 277.588 345.801 277.588C346.569 277.588 347.236 277.753 347.801 278.084C348.366 278.415 348.788 278.831 349.065 279.332V277.732H350.537V286.5H349.065V284.868C348.777 285.38 348.345 285.807 347.769 286.148C347.204 286.479 346.542 286.644 345.785 286.644C345.006 286.644 344.302 286.452 343.673 286.068C343.044 285.684 342.548 285.145 342.185 284.452C341.822 283.759 341.641 282.969 341.641 282.084ZM349.065 282.1C349.065 281.439 348.932 280.863 348.665 280.372C348.398 279.881 348.036 279.508 347.577 279.252C347.129 278.985 346.633 278.852 346.089 278.852C345.545 278.852 345.049 278.98 344.601 279.236C344.153 279.492 343.796 279.865 343.529 280.356C343.262 280.847 343.129 281.423 343.129 282.084C343.129 282.756 343.262 283.343 343.529 283.844C343.796 284.335 344.153 284.713 344.601 284.98C345.049 285.236 345.545 285.364 346.089 285.364C346.633 285.364 347.129 285.236 347.577 284.98C348.036 284.713 348.398 284.335 348.665 283.844C348.932 283.343 349.065 282.761 349.065 282.1ZM361.274 277.732V286.5H359.818V285.204C359.54 285.652 359.151 286.004 358.65 286.26C358.159 286.505 357.615 286.628 357.018 286.628C356.335 286.628 355.722 286.489 355.178 286.212C354.634 285.924 354.202 285.497 353.882 284.932C353.572 284.367 353.418 283.679 353.418 282.868V277.732H354.858V282.676C354.858 283.54 355.076 284.207 355.514 284.676C355.951 285.135 356.548 285.364 357.306 285.364C358.084 285.364 358.698 285.124 359.146 284.644C359.594 284.164 359.818 283.465 359.818 282.548V277.732H361.274ZM368.504 277.572C369.571 277.572 370.435 277.897 371.096 278.548C371.757 279.188 372.088 280.116 372.088 281.332V286.5H370.648V281.54C370.648 280.665 370.429 279.999 369.992 279.54C369.555 279.071 368.957 278.836 368.2 278.836C367.432 278.836 366.819 279.076 366.36 279.556C365.912 280.036 365.688 280.735 365.688 281.652V286.5H364.232V277.732H365.688V278.98C365.976 278.532 366.365 278.185 366.856 277.94C367.357 277.695 367.907 277.572 368.504 277.572ZM374.422 282.084C374.422 281.188 374.604 280.404 374.966 279.732C375.329 279.049 375.825 278.521 376.454 278.148C377.094 277.775 377.809 277.588 378.598 277.588C379.281 277.588 379.916 277.748 380.502 278.068C381.089 278.377 381.537 278.788 381.846 279.3V274.66H383.318V286.5H381.846V284.852C381.558 285.375 381.132 285.807 380.566 286.148C380.001 286.479 379.34 286.644 378.582 286.644C377.804 286.644 377.094 286.452 376.454 286.068C375.825 285.684 375.329 285.145 374.966 284.452C374.604 283.759 374.422 282.969 374.422 282.084ZM381.846 282.1C381.846 281.439 381.713 280.863 381.446 280.372C381.18 279.881 380.817 279.508 380.358 279.252C379.91 278.985 379.414 278.852 378.87 278.852C378.326 278.852 377.83 278.98 377.382 279.236C376.934 279.492 376.577 279.865 376.31 280.356C376.044 280.847 375.91 281.423 375.91 282.084C375.91 282.756 376.044 283.343 376.31 283.844C376.577 284.335 376.934 284.713 377.382 284.98C377.83 285.236 378.326 285.364 378.87 285.364C379.414 285.364 379.91 285.236 380.358 284.98C380.817 284.713 381.18 284.335 381.446 283.844C381.713 283.343 381.846 282.761 381.846 282.1ZM394.279 281.78C394.279 282.057 394.263 282.351 394.231 282.66H387.223C387.276 283.524 387.57 284.201 388.103 284.692C388.647 285.172 389.303 285.412 390.071 285.412C390.7 285.412 391.223 285.268 391.639 284.98C392.066 284.681 392.364 284.287 392.535 283.796H394.103C393.868 284.639 393.399 285.327 392.695 285.86C391.991 286.383 391.116 286.644 390.071 286.644C389.239 286.644 388.492 286.457 387.831 286.084C387.18 285.711 386.668 285.183 386.295 284.5C385.922 283.807 385.735 283.007 385.735 282.1C385.735 281.193 385.916 280.399 386.279 279.716C386.642 279.033 387.148 278.511 387.799 278.148C388.46 277.775 389.218 277.588 390.071 277.588C390.903 277.588 391.639 277.769 392.279 278.132C392.919 278.495 393.41 278.996 393.751 279.636C394.103 280.265 394.279 280.98 394.279 281.78ZM392.775 281.476C392.775 280.921 392.652 280.447 392.407 280.052C392.162 279.647 391.826 279.343 391.399 279.14C390.983 278.927 390.519 278.82 390.007 278.82C389.271 278.82 388.642 279.055 388.119 279.524C387.607 279.993 387.314 280.644 387.239 281.476H392.775ZM398.157 279.156C398.413 278.655 398.775 278.265 399.245 277.988C399.725 277.711 400.306 277.572 400.989 277.572V279.076H400.605C398.973 279.076 398.157 279.961 398.157 281.732V286.5H396.701V277.732H398.157V279.156ZM403.922 276.308C403.644 276.308 403.41 276.212 403.218 276.02C403.026 275.828 402.93 275.593 402.93 275.316C402.93 275.039 403.026 274.804 403.218 274.612C403.41 274.42 403.644 274.324 403.922 274.324C404.188 274.324 404.412 274.42 404.594 274.612C404.786 274.804 404.882 275.039 404.882 275.316C404.882 275.593 404.786 275.828 404.594 276.02C404.412 276.212 404.188 276.308 403.922 276.308ZM404.626 277.732V286.5H403.17V277.732H404.626ZM411.879 277.572C412.946 277.572 413.81 277.897 414.471 278.548C415.132 279.188 415.463 280.116 415.463 281.332V286.5H414.023V281.54C414.023 280.665 413.804 279.999 413.367 279.54C412.93 279.071 412.332 278.836 411.575 278.836C410.807 278.836 410.194 279.076 409.735 279.556C409.287 280.036 409.063 280.735 409.063 281.652V286.5H407.607V277.732H409.063V278.98C409.351 278.532 409.74 278.185 410.231 277.94C410.732 277.695 411.282 277.572 411.879 277.572ZM421.957 277.588C422.715 277.588 423.376 277.753 423.941 278.084C424.517 278.415 424.944 278.831 425.221 279.332V277.732H426.693V286.692C426.693 287.492 426.523 288.201 426.181 288.82C425.84 289.449 425.349 289.94 424.709 290.292C424.08 290.644 423.344 290.82 422.501 290.82C421.349 290.82 420.389 290.548 419.621 290.004C418.853 289.46 418.4 288.719 418.261 287.78H419.701C419.861 288.313 420.192 288.74 420.693 289.06C421.195 289.391 421.797 289.556 422.501 289.556C423.301 289.556 423.952 289.305 424.453 288.804C424.965 288.303 425.221 287.599 425.221 286.692V284.852C424.933 285.364 424.507 285.791 423.941 286.132C423.376 286.473 422.715 286.644 421.957 286.644C421.179 286.644 420.469 286.452 419.829 286.068C419.2 285.684 418.704 285.145 418.341 284.452C417.979 283.759 417.797 282.969 417.797 282.084C417.797 281.188 417.979 280.404 418.341 279.732C418.704 279.049 419.2 278.521 419.829 278.148C420.469 277.775 421.179 277.588 421.957 277.588ZM425.221 282.1C425.221 281.439 425.088 280.863 424.821 280.372C424.555 279.881 424.192 279.508 423.733 279.252C423.285 278.985 422.789 278.852 422.245 278.852C421.701 278.852 421.205 278.98 420.757 279.236C420.309 279.492 419.952 279.865 419.685 280.356C419.419 280.847 419.285 281.423 419.285 282.084C419.285 282.756 419.419 283.343 419.685 283.844C419.952 284.335 420.309 284.713 420.757 284.98C421.205 285.236 421.701 285.364 422.245 285.364C422.789 285.364 423.285 285.236 423.733 284.98C424.192 284.713 424.555 284.335 424.821 283.844C425.088 283.343 425.221 282.761 425.221 282.1Z" fill="white"/>
<rect x="191.5" y="337.5" width="245" height="47" rx="23.5" fill="url(#paint7_linear_1434_607)"/>
<rect x="191.5" y="337.5" width="245" height="47" rx="23.5" stroke="url(#paint8_linear_1434_607)"/>
<path d="M226.582 361.756C226.987 361.82 227.355 361.985 227.686 362.252C228.027 362.519 228.294 362.849 228.486 363.244C228.688 363.639 228.79 364.06 228.79 364.508C228.79 365.073 228.646 365.585 228.358 366.044C228.07 366.492 227.648 366.849 227.094 367.116C226.55 367.372 225.904 367.5 225.158 367.5H220.998V356.348H224.998C225.755 356.348 226.4 356.476 226.934 356.732C227.467 356.977 227.867 357.313 228.134 357.74C228.4 358.167 228.534 358.647 228.534 359.18C228.534 359.841 228.352 360.391 227.99 360.828C227.638 361.255 227.168 361.564 226.582 361.756ZM222.454 361.164H224.902C225.584 361.164 226.112 361.004 226.486 360.684C226.859 360.364 227.046 359.921 227.046 359.356C227.046 358.791 226.859 358.348 226.486 358.028C226.112 357.708 225.574 357.548 224.87 357.548H222.454V361.164ZM225.03 366.3C225.755 366.3 226.32 366.129 226.726 365.788C227.131 365.447 227.334 364.972 227.334 364.364C227.334 363.745 227.12 363.26 226.694 362.908C226.267 362.545 225.696 362.364 224.982 362.364H222.454V366.3H225.03ZM232.062 357.308C231.785 357.308 231.55 357.212 231.358 357.02C231.166 356.828 231.07 356.593 231.07 356.316C231.07 356.039 231.166 355.804 231.358 355.612C231.55 355.42 231.785 355.324 232.062 355.324C232.329 355.324 232.553 355.42 232.734 355.612C232.926 355.804 233.022 356.039 233.022 356.316C233.022 356.593 232.926 356.828 232.734 357.02C232.553 357.212 232.329 357.308 232.062 357.308ZM232.766 358.732V367.5H231.31V358.732H232.766ZM239.572 367.644C238.75 367.644 238.004 367.457 237.332 367.084C236.67 366.711 236.148 366.183 235.764 365.5C235.39 364.807 235.204 364.007 235.204 363.1C235.204 362.204 235.396 361.415 235.78 360.732C236.174 360.039 236.708 359.511 237.38 359.148C238.052 358.775 238.804 358.588 239.636 358.588C240.468 358.588 241.22 358.775 241.892 359.148C242.564 359.511 243.092 360.033 243.476 360.716C243.87 361.399 244.068 362.193 244.068 363.1C244.068 364.007 243.865 364.807 243.46 365.5C243.065 366.183 242.526 366.711 241.844 367.084C241.161 367.457 240.404 367.644 239.572 367.644ZM239.572 366.364C240.094 366.364 240.585 366.241 241.044 365.996C241.502 365.751 241.87 365.383 242.148 364.892C242.436 364.401 242.58 363.804 242.58 363.1C242.58 362.396 242.441 361.799 242.164 361.308C241.886 360.817 241.524 360.455 241.076 360.22C240.628 359.975 240.142 359.852 239.62 359.852C239.086 359.852 238.596 359.975 238.148 360.22C237.71 360.455 237.358 360.817 237.092 361.308C236.825 361.799 236.692 362.396 236.692 363.1C236.692 363.815 236.82 364.417 237.076 364.908C237.342 365.399 237.694 365.767 238.132 366.012C238.569 366.247 239.049 366.364 239.572 366.364ZM257.026 358.572C257.709 358.572 258.317 358.716 258.85 359.004C259.383 359.281 259.805 359.703 260.114 360.268C260.423 360.833 260.578 361.521 260.578 362.332V367.5H259.138V362.54C259.138 361.665 258.919 360.999 258.482 360.54C258.055 360.071 257.474 359.836 256.738 359.836C255.981 359.836 255.378 360.081 254.93 360.572C254.482 361.052 254.258 361.751 254.258 362.668V367.5H252.818V362.54C252.818 361.665 252.599 360.999 252.162 360.54C251.735 360.071 251.154 359.836 250.418 359.836C249.661 359.836 249.058 360.081 248.61 360.572C248.162 361.052 247.938 361.751 247.938 362.668V367.5H246.482V358.732H247.938V359.996C248.226 359.537 248.61 359.185 249.09 358.94C249.581 358.695 250.119 358.572 250.706 358.572C251.442 358.572 252.093 358.737 252.658 359.068C253.223 359.399 253.645 359.884 253.922 360.524C254.167 359.905 254.573 359.425 255.138 359.084C255.703 358.743 256.333 358.572 257.026 358.572ZM271.466 362.78C271.466 363.057 271.45 363.351 271.418 363.66H264.41C264.464 364.524 264.757 365.201 265.29 365.692C265.834 366.172 266.49 366.412 267.258 366.412C267.888 366.412 268.41 366.268 268.826 365.98C269.253 365.681 269.552 365.287 269.722 364.796H271.29C271.056 365.639 270.586 366.327 269.882 366.86C269.178 367.383 268.304 367.644 267.258 367.644C266.426 367.644 265.68 367.457 265.018 367.084C264.368 366.711 263.856 366.183 263.482 365.5C263.109 364.807 262.922 364.007 262.922 363.1C262.922 362.193 263.104 361.399 263.466 360.716C263.829 360.033 264.336 359.511 264.986 359.148C265.648 358.775 266.405 358.588 267.258 358.588C268.09 358.588 268.826 358.769 269.466 359.132C270.106 359.495 270.597 359.996 270.938 360.636C271.29 361.265 271.466 361.98 271.466 362.78ZM269.962 362.476C269.962 361.921 269.84 361.447 269.594 361.052C269.349 360.647 269.013 360.343 268.586 360.14C268.17 359.927 267.706 359.82 267.194 359.82C266.458 359.82 265.829 360.055 265.306 360.524C264.794 360.993 264.501 361.644 264.426 362.476H269.962ZM275.664 359.932V365.1C275.664 365.527 275.755 365.831 275.936 366.012C276.118 366.183 276.432 366.268 276.88 366.268H277.952V367.5H276.64C275.83 367.5 275.222 367.313 274.816 366.94C274.411 366.567 274.208 365.953 274.208 365.1V359.932H273.072V358.732H274.208V356.524H275.664V358.732H277.952V359.932H275.664ZM281.672 360.156C281.928 359.655 282.291 359.265 282.76 358.988C283.24 358.711 283.822 358.572 284.504 358.572V360.076H284.12C282.488 360.076 281.672 360.961 281.672 362.732V367.5H280.216V358.732H281.672V360.156ZM287.437 357.308C287.16 357.308 286.925 357.212 286.733 357.02C286.541 356.828 286.445 356.593 286.445 356.316C286.445 356.039 286.541 355.804 286.733 355.612C286.925 355.42 287.16 355.324 287.437 355.324C287.704 355.324 287.928 355.42 288.109 355.612C288.301 355.804 288.397 356.039 288.397 356.316C288.397 356.593 288.301 356.828 288.109 357.02C287.928 357.212 287.704 357.308 287.437 357.308ZM288.141 358.732V367.5H286.685V358.732H288.141ZM290.579 363.1C290.579 362.193 290.76 361.404 291.123 360.732C291.485 360.049 291.987 359.521 292.627 359.148C293.277 358.775 294.019 358.588 294.851 358.588C295.928 358.588 296.813 358.849 297.507 359.372C298.211 359.895 298.675 360.62 298.899 361.548H297.331C297.181 361.015 296.888 360.593 296.451 360.284C296.024 359.975 295.491 359.82 294.851 359.82C294.019 359.82 293.347 360.108 292.835 360.684C292.323 361.249 292.067 362.055 292.067 363.1C292.067 364.156 292.323 364.972 292.835 365.548C293.347 366.124 294.019 366.412 294.851 366.412C295.491 366.412 296.024 366.263 296.451 365.964C296.877 365.665 297.171 365.239 297.331 364.684H298.899C298.664 365.58 298.195 366.3 297.491 366.844C296.787 367.377 295.907 367.644 294.851 367.644C294.019 367.644 293.277 367.457 292.627 367.084C291.987 366.711 291.485 366.183 291.123 365.5C290.76 364.817 290.579 364.017 290.579 363.1ZM312.699 365.02H307.835L306.939 367.5H305.403L309.435 356.412H311.115L315.131 367.5H313.595L312.699 365.02ZM312.283 363.836L310.267 358.204L308.251 363.836H312.283ZM325.164 358.732V367.5H323.708V366.204C323.431 366.652 323.042 367.004 322.54 367.26C322.05 367.505 321.506 367.628 320.908 367.628C320.226 367.628 319.612 367.489 319.068 367.212C318.524 366.924 318.092 366.497 317.772 365.932C317.463 365.367 317.308 364.679 317.308 363.868V358.732H318.748V363.676C318.748 364.54 318.967 365.207 319.404 365.676C319.842 366.135 320.439 366.364 321.196 366.364C321.975 366.364 322.588 366.124 323.036 365.644C323.484 365.164 323.708 364.465 323.708 363.548V358.732H325.164ZM329.899 359.932V365.1C329.899 365.527 329.989 365.831 330.171 366.012C330.352 366.183 330.667 366.268 331.115 366.268H332.187V367.5H330.875C330.064 367.5 329.456 367.313 329.051 366.94C328.645 366.567 328.443 365.953 328.443 365.1V359.932H327.307V358.732H328.443V356.524H329.899V358.732H332.187V359.932H329.899ZM338.803 358.572C339.464 358.572 340.061 358.716 340.595 359.004C341.128 359.281 341.544 359.703 341.843 360.268C342.152 360.833 342.307 361.521 342.307 362.332V367.5H340.867V362.54C340.867 361.665 340.648 360.999 340.211 360.54C339.773 360.071 339.176 359.836 338.419 359.836C337.651 359.836 337.037 360.076 336.579 360.556C336.131 361.036 335.907 361.735 335.907 362.652V367.5H334.451V355.66H335.907V359.98C336.195 359.532 336.589 359.185 337.091 358.94C337.603 358.695 338.173 358.572 338.803 358.572ZM353.185 362.78C353.185 363.057 353.169 363.351 353.137 363.66H346.129C346.182 364.524 346.476 365.201 347.009 365.692C347.553 366.172 348.209 366.412 348.977 366.412C349.606 366.412 350.129 366.268 350.545 365.98C350.972 365.681 351.27 365.287 351.441 364.796H353.009C352.774 365.639 352.305 366.327 351.601 366.86C350.897 367.383 350.022 367.644 348.977 367.644C348.145 367.644 347.398 367.457 346.737 367.084C346.086 366.711 345.574 366.183 345.201 365.5C344.828 364.807 344.641 364.007 344.641 363.1C344.641 362.193 344.822 361.399 345.185 360.716C345.548 360.033 346.054 359.511 346.705 359.148C347.366 358.775 348.124 358.588 348.977 358.588C349.809 358.588 350.545 358.769 351.185 359.132C351.825 359.495 352.316 359.996 352.657 360.636C353.009 361.265 353.185 361.98 353.185 362.78ZM351.681 362.476C351.681 361.921 351.558 361.447 351.313 361.052C351.068 360.647 350.732 360.343 350.305 360.14C349.889 359.927 349.425 359.82 348.913 359.82C348.177 359.82 347.548 360.055 347.025 360.524C346.513 360.993 346.22 361.644 346.145 362.476H351.681ZM359.879 358.572C360.946 358.572 361.81 358.897 362.471 359.548C363.132 360.188 363.463 361.116 363.463 362.332V367.5H362.023V362.54C362.023 361.665 361.804 360.999 361.367 360.54C360.93 360.071 360.332 359.836 359.575 359.836C358.807 359.836 358.194 360.076 357.735 360.556C357.287 361.036 357.063 361.735 357.063 362.652V367.5H355.607V358.732H357.063V359.98C357.351 359.532 357.74 359.185 358.231 358.94C358.732 358.695 359.282 358.572 359.879 358.572ZM368.117 359.932V365.1C368.117 365.527 368.208 365.831 368.389 366.012C368.571 366.183 368.885 366.268 369.333 366.268H370.405V367.5H369.093C368.283 367.5 367.675 367.313 367.269 366.94C366.864 366.567 366.661 365.953 366.661 365.1V359.932H365.525V358.732H366.661V356.524H368.117V358.732H370.405V359.932H368.117ZM373.422 357.308C373.144 357.308 372.91 357.212 372.718 357.02C372.526 356.828 372.43 356.593 372.43 356.316C372.43 356.039 372.526 355.804 372.718 355.612C372.91 355.42 373.144 355.324 373.422 355.324C373.688 355.324 373.912 355.42 374.094 355.612C374.286 355.804 374.382 356.039 374.382 356.316C374.382 356.593 374.286 356.828 374.094 357.02C373.912 357.212 373.688 357.308 373.422 357.308ZM374.126 358.732V367.5H372.67V358.732H374.126ZM376.563 363.1C376.563 362.193 376.744 361.404 377.107 360.732C377.47 360.049 377.971 359.521 378.611 359.148C379.262 358.775 380.003 358.588 380.835 358.588C381.912 358.588 382.798 358.849 383.491 359.372C384.195 359.895 384.659 360.62 384.883 361.548H383.315C383.166 361.015 382.872 360.593 382.435 360.284C382.008 359.975 381.475 359.82 380.835 359.82C380.003 359.82 379.331 360.108 378.819 360.684C378.307 361.249 378.051 362.055 378.051 363.1C378.051 364.156 378.307 364.972 378.819 365.548C379.331 366.124 380.003 366.412 380.835 366.412C381.475 366.412 382.008 366.263 382.435 365.964C382.862 365.665 383.155 365.239 383.315 364.684H384.883C384.648 365.58 384.179 366.3 383.475 366.844C382.771 367.377 381.891 367.644 380.835 367.644C380.003 367.644 379.262 367.457 378.611 367.084C377.971 366.711 377.47 366.183 377.107 365.5C376.744 364.817 376.563 364.017 376.563 363.1ZM386.782 363.084C386.782 362.188 386.963 361.404 387.326 360.732C387.688 360.049 388.184 359.521 388.814 359.148C389.454 358.775 390.163 358.588 390.942 358.588C391.71 358.588 392.376 358.753 392.942 359.084C393.507 359.415 393.928 359.831 394.206 360.332V358.732H395.678V367.5H394.206V365.868C393.918 366.38 393.486 366.807 392.91 367.148C392.344 367.479 391.683 367.644 390.926 367.644C390.147 367.644 389.443 367.452 388.814 367.068C388.184 366.684 387.688 366.145 387.326 365.452C386.963 364.759 386.782 363.969 386.782 363.084ZM394.206 363.1C394.206 362.439 394.072 361.863 393.806 361.372C393.539 360.881 393.176 360.508 392.718 360.252C392.27 359.985 391.774 359.852 391.23 359.852C390.686 359.852 390.19 359.98 389.742 360.236C389.294 360.492 388.936 360.865 388.67 361.356C388.403 361.847 388.27 362.423 388.27 363.084C388.27 363.756 388.403 364.343 388.67 364.844C388.936 365.335 389.294 365.713 389.742 365.98C390.19 366.236 390.686 366.364 391.23 366.364C391.774 366.364 392.27 366.236 392.718 365.98C393.176 365.713 393.539 365.335 393.806 364.844C394.072 364.343 394.206 363.761 394.206 363.1ZM400.414 359.932V365.1C400.414 365.527 400.505 365.831 400.686 366.012C400.868 366.183 401.182 366.268 401.63 366.268H402.702V367.5H401.39C400.58 367.5 399.972 367.313 399.566 366.94C399.161 366.567 398.958 365.953 398.958 365.1V359.932H397.822V358.732H398.958V356.524H400.414V358.732H402.702V359.932H400.414ZM405.718 357.308C405.441 357.308 405.206 357.212 405.014 357.02C404.822 356.828 404.726 356.593 404.726 356.316C404.726 356.039 404.822 355.804 405.014 355.612C405.206 355.42 405.441 355.324 405.718 355.324C405.985 355.324 406.209 355.42 406.39 355.612C406.582 355.804 406.678 356.039 406.678 356.316C406.678 356.593 406.582 356.828 406.39 357.02C406.209 357.212 405.985 357.308 405.718 357.308ZM406.422 358.732V367.5H404.966V358.732H406.422ZM413.228 367.644C412.407 367.644 411.66 367.457 410.988 367.084C410.327 366.711 409.804 366.183 409.42 365.5C409.047 364.807 408.86 364.007 408.86 363.1C408.86 362.204 409.052 361.415 409.436 360.732C409.831 360.039 410.364 359.511 411.036 359.148C411.708 358.775 412.46 358.588 413.292 358.588C414.124 358.588 414.876 358.775 415.548 359.148C416.22 359.511 416.748 360.033 417.132 360.716C417.527 361.399 417.724 362.193 417.724 363.1C417.724 364.007 417.521 364.807 417.116 365.5C416.721 366.183 416.183 366.711 415.5 367.084C414.817 367.457 414.06 367.644 413.228 367.644ZM413.228 366.364C413.751 366.364 414.241 366.241 414.7 365.996C415.159 365.751 415.527 365.383 415.804 364.892C416.092 364.401 416.236 363.804 416.236 363.1C416.236 362.396 416.097 361.799 415.82 361.308C415.543 360.817 415.18 360.455 414.732 360.22C414.284 359.975 413.799 359.852 413.276 359.852C412.743 359.852 412.252 359.975 411.804 360.22C411.367 360.455 411.015 360.817 410.748 361.308C410.481 361.799 410.348 362.396 410.348 363.1C410.348 363.815 410.476 364.417 410.732 364.908C410.999 365.399 411.351 365.767 411.788 366.012C412.225 366.247 412.705 366.364 413.228 366.364ZM424.41 358.572C425.477 358.572 426.341 358.897 427.002 359.548C427.664 360.188 427.994 361.116 427.994 362.332V367.5H426.554V362.54C426.554 361.665 426.336 360.999 425.898 360.54C425.461 360.071 424.864 359.836 424.106 359.836C423.338 359.836 422.725 360.076 422.266 360.556C421.818 361.036 421.594 361.735 421.594 362.652V367.5H420.138V358.732H421.594V359.98C421.882 359.532 422.272 359.185 422.762 358.94C423.264 358.695 423.813 358.572 424.41 358.572Z" fill="white"/>
<rect x="130.5" y="418.5" width="239" height="47" rx="23.5" fill="url(#paint9_linear_1434_607)"/>
<rect x="130.5" y="418.5" width="239" height="47" rx="23.5" stroke="url(#paint10_linear_1434_607)"/>
<path d="M160.816 442.756C161.221 442.82 161.589 442.985 161.92 443.252C162.261 443.519 162.528 443.849 162.72 444.244C162.923 444.639 163.024 445.06 163.024 445.508C163.024 446.073 162.88 446.585 162.592 447.044C162.304 447.492 161.883 447.849 161.328 448.116C160.784 448.372 160.139 448.5 159.392 448.5H155.232V437.348H159.232C159.989 437.348 160.635 437.476 161.168 437.732C161.701 437.977 162.101 438.313 162.368 438.74C162.635 439.167 162.768 439.647 162.768 440.18C162.768 440.841 162.587 441.391 162.224 441.828C161.872 442.255 161.403 442.564 160.816 442.756ZM156.688 442.164H159.136C159.819 442.164 160.347 442.004 160.72 441.684C161.093 441.364 161.28 440.921 161.28 440.356C161.28 439.791 161.093 439.348 160.72 439.028C160.347 438.708 159.808 438.548 159.104 438.548H156.688V442.164ZM159.264 447.3C159.989 447.3 160.555 447.129 160.96 446.788C161.365 446.447 161.568 445.972 161.568 445.364C161.568 444.745 161.355 444.26 160.928 443.908C160.501 443.545 159.931 443.364 159.216 443.364H156.688V447.3H159.264ZM167.001 436.66V448.5H165.545V436.66H167.001ZM173.806 448.644C172.985 448.644 172.238 448.457 171.566 448.084C170.905 447.711 170.382 447.183 169.998 446.5C169.625 445.807 169.438 445.007 169.438 444.1C169.438 443.204 169.63 442.415 170.014 441.732C170.409 441.039 170.942 440.511 171.614 440.148C172.286 439.775 173.038 439.588 173.87 439.588C174.702 439.588 175.454 439.775 176.126 440.148C176.798 440.511 177.326 441.033 177.71 441.716C178.105 442.399 178.302 443.193 178.302 444.1C178.302 445.007 178.099 445.807 177.694 446.5C177.299 447.183 176.761 447.711 176.078 448.084C175.395 448.457 174.638 448.644 173.806 448.644ZM173.806 447.364C174.329 447.364 174.819 447.241 175.278 446.996C175.737 446.751 176.105 446.383 176.382 445.892C176.67 445.401 176.814 444.804 176.814 444.1C176.814 443.396 176.675 442.799 176.398 442.308C176.121 441.817 175.758 441.455 175.31 441.22C174.862 440.975 174.377 440.852 173.854 440.852C173.321 440.852 172.83 440.975 172.382 441.22C171.945 441.455 171.593 441.817 171.326 442.308C171.059 442.799 170.926 443.396 170.926 444.1C170.926 444.815 171.054 445.417 171.31 445.908C171.577 446.399 171.929 446.767 172.366 447.012C172.803 447.247 173.283 447.364 173.806 447.364ZM180.172 444.1C180.172 443.193 180.354 442.404 180.716 441.732C181.079 441.049 181.58 440.521 182.22 440.148C182.871 439.775 183.612 439.588 184.444 439.588C185.522 439.588 186.407 439.849 187.1 440.372C187.804 440.895 188.268 441.62 188.492 442.548H186.924C186.775 442.015 186.482 441.593 186.044 441.284C185.618 440.975 185.084 440.82 184.444 440.82C183.612 440.82 182.94 441.108 182.428 441.684C181.916 442.249 181.66 443.055 181.66 444.1C181.66 445.156 181.916 445.972 182.428 446.548C182.94 447.124 183.612 447.412 184.444 447.412C185.084 447.412 185.618 447.263 186.044 446.964C186.471 446.665 186.764 446.239 186.924 445.684H188.492C188.258 446.58 187.788 447.3 187.084 447.844C186.38 448.377 185.5 448.644 184.444 448.644C183.612 448.644 182.871 448.457 182.22 448.084C181.58 447.711 181.079 447.183 180.716 446.5C180.354 445.817 180.172 445.017 180.172 444.1ZM195.831 448.5L192.391 444.628V448.5H190.935V436.66H192.391V443.62L195.767 439.732H197.799L193.671 444.1L197.815 448.5H195.831ZM199.126 444.1C199.126 443.193 199.307 442.404 199.67 441.732C200.032 441.049 200.534 440.521 201.174 440.148C201.824 439.775 202.566 439.588 203.398 439.588C204.475 439.588 205.36 439.849 206.054 440.372C206.758 440.895 207.222 441.62 207.446 442.548H205.878C205.728 442.015 205.435 441.593 204.998 441.284C204.571 440.975 204.038 440.82 203.398 440.82C202.566 440.82 201.894 441.108 201.382 441.684C200.87 442.249 200.614 443.055 200.614 444.1C200.614 445.156 200.87 445.972 201.382 446.548C201.894 447.124 202.566 447.412 203.398 447.412C204.038 447.412 204.571 447.263 204.998 446.964C205.424 446.665 205.718 446.239 205.878 445.684H207.446C207.211 446.58 206.742 447.3 206.038 447.844C205.334 448.377 204.454 448.644 203.398 448.644C202.566 448.644 201.824 448.457 201.174 448.084C200.534 447.711 200.032 447.183 199.67 446.5C199.307 445.817 199.126 445.017 199.126 444.1ZM214.24 439.572C214.902 439.572 215.499 439.716 216.032 440.004C216.566 440.281 216.982 440.703 217.28 441.268C217.59 441.833 217.744 442.521 217.744 443.332V448.5H216.304V443.54C216.304 442.665 216.086 441.999 215.648 441.54C215.211 441.071 214.614 440.836 213.856 440.836C213.088 440.836 212.475 441.076 212.016 441.556C211.568 442.036 211.344 442.735 211.344 443.652V448.5H209.888V436.66H211.344V440.98C211.632 440.532 212.027 440.185 212.528 439.94C213.04 439.695 213.611 439.572 214.24 439.572ZM220.079 444.084C220.079 443.188 220.26 442.404 220.623 441.732C220.985 441.049 221.481 440.521 222.111 440.148C222.751 439.775 223.46 439.588 224.239 439.588C225.007 439.588 225.673 439.753 226.239 440.084C226.804 440.415 227.225 440.831 227.503 441.332V439.732H228.975V448.5H227.503V446.868C227.215 447.38 226.783 447.807 226.207 448.148C225.641 448.479 224.98 448.644 224.223 448.644C223.444 448.644 222.74 448.452 222.111 448.068C221.481 447.684 220.985 447.145 220.623 446.452C220.26 445.759 220.079 444.969 220.079 444.084ZM227.503 444.1C227.503 443.439 227.369 442.863 227.103 442.372C226.836 441.881 226.473 441.508 226.015 441.252C225.567 440.985 225.071 440.852 224.527 440.852C223.983 440.852 223.487 440.98 223.039 441.236C222.591 441.492 222.233 441.865 221.967 442.356C221.7 442.847 221.567 443.423 221.567 444.084C221.567 444.756 221.7 445.343 221.967 445.844C222.233 446.335 222.591 446.713 223.039 446.98C223.487 447.236 223.983 447.364 224.527 447.364C225.071 447.364 225.567 447.236 226.015 446.98C226.473 446.713 226.836 446.335 227.103 445.844C227.369 445.343 227.503 444.761 227.503 444.1ZM232.687 438.308C232.41 438.308 232.175 438.212 231.983 438.02C231.791 437.828 231.695 437.593 231.695 437.316C231.695 437.039 231.791 436.804 231.983 436.612C232.175 436.42 232.41 436.324 232.687 436.324C232.954 436.324 233.178 436.42 233.359 436.612C233.551 436.804 233.647 437.039 233.647 437.316C233.647 437.593 233.551 437.828 233.359 438.02C233.178 438.212 232.954 438.308 232.687 438.308ZM233.391 439.732V448.5H231.935V439.732H233.391ZM240.645 439.572C241.711 439.572 242.575 439.897 243.237 440.548C243.898 441.188 244.229 442.116 244.229 443.332V448.5H242.789V443.54C242.789 442.665 242.57 441.999 242.133 441.54C241.695 441.071 241.098 440.836 240.341 440.836C239.573 440.836 238.959 441.076 238.501 441.556C238.053 442.036 237.829 442.735 237.829 443.652V448.5H236.373V439.732H237.829V440.98C238.117 440.532 238.506 440.185 238.997 439.94C239.498 439.695 240.047 439.572 240.645 439.572ZM255.409 448.612C254.673 448.612 254.011 448.484 253.425 448.228C252.849 447.961 252.395 447.599 252.065 447.14C251.734 446.671 251.563 446.132 251.553 445.524H253.105C253.158 446.047 253.371 446.489 253.745 446.852C254.129 447.204 254.683 447.38 255.409 447.38C256.102 447.38 256.646 447.209 257.041 446.868C257.446 446.516 257.649 446.068 257.649 445.524C257.649 445.097 257.531 444.751 257.297 444.484C257.062 444.217 256.769 444.015 256.417 443.876C256.065 443.737 255.59 443.588 254.993 443.428C254.257 443.236 253.665 443.044 253.217 442.852C252.779 442.66 252.401 442.361 252.081 441.956C251.771 441.54 251.617 440.985 251.617 440.292C251.617 439.684 251.771 439.145 252.081 438.676C252.39 438.207 252.822 437.844 253.377 437.588C253.942 437.332 254.587 437.204 255.313 437.204C256.358 437.204 257.211 437.465 257.873 437.988C258.545 438.511 258.923 439.204 259.009 440.068H257.409C257.355 439.641 257.131 439.268 256.737 438.948C256.342 438.617 255.819 438.452 255.169 438.452C254.561 438.452 254.065 438.612 253.681 438.932C253.297 439.241 253.105 439.679 253.105 440.244C253.105 440.649 253.217 440.98 253.441 441.236C253.675 441.492 253.958 441.689 254.289 441.828C254.63 441.956 255.105 442.105 255.713 442.276C256.449 442.479 257.041 442.681 257.489 442.884C257.937 443.076 258.321 443.38 258.641 443.796C258.961 444.201 259.121 444.756 259.121 445.46C259.121 446.004 258.977 446.516 258.689 446.996C258.401 447.476 257.974 447.865 257.409 448.164C256.843 448.463 256.177 448.612 255.409 448.612ZM269.763 443.78C269.763 444.057 269.747 444.351 269.715 444.66H262.707C262.761 445.524 263.054 446.201 263.587 446.692C264.131 447.172 264.787 447.412 265.555 447.412C266.185 447.412 266.707 447.268 267.123 446.98C267.55 446.681 267.849 446.287 268.019 445.796H269.587C269.353 446.639 268.883 447.327 268.179 447.86C267.475 448.383 266.601 448.644 265.555 448.644C264.723 448.644 263.977 448.457 263.315 448.084C262.665 447.711 262.153 447.183 261.779 446.5C261.406 445.807 261.219 445.007 261.219 444.1C261.219 443.193 261.401 442.399 261.763 441.716C262.126 441.033 262.633 440.511 263.283 440.148C263.945 439.775 264.702 439.588 265.555 439.588C266.387 439.588 267.123 439.769 267.763 440.132C268.403 440.495 268.894 440.996 269.235 441.636C269.587 442.265 269.763 442.98 269.763 443.78ZM268.259 443.476C268.259 442.921 268.137 442.447 267.891 442.052C267.646 441.647 267.31 441.343 266.883 441.14C266.467 440.927 266.003 440.82 265.491 440.82C264.755 440.82 264.126 441.055 263.603 441.524C263.091 441.993 262.798 442.644 262.723 443.476H268.259ZM271.641 444.1C271.641 443.193 271.822 442.404 272.185 441.732C272.548 441.049 273.049 440.521 273.689 440.148C274.34 439.775 275.081 439.588 275.913 439.588C276.99 439.588 277.876 439.849 278.569 440.372C279.273 440.895 279.737 441.62 279.961 442.548H278.393C278.244 442.015 277.95 441.593 277.513 441.284C277.086 440.975 276.553 440.82 275.913 440.82C275.081 440.82 274.409 441.108 273.897 441.684C273.385 442.249 273.129 443.055 273.129 444.1C273.129 445.156 273.385 445.972 273.897 446.548C274.409 447.124 275.081 447.412 275.913 447.412C276.553 447.412 277.086 447.263 277.513 446.964C277.94 446.665 278.233 446.239 278.393 445.684H279.961C279.726 446.58 279.257 447.3 278.553 447.844C277.849 448.377 276.969 448.644 275.913 448.644C275.081 448.644 274.34 448.457 273.689 448.084C273.049 447.711 272.548 447.183 272.185 446.5C271.822 445.817 271.641 445.017 271.641 444.1ZM290.18 439.732V448.5H288.724V447.204C288.447 447.652 288.057 448.004 287.556 448.26C287.065 448.505 286.521 448.628 285.924 448.628C285.241 448.628 284.628 448.489 284.084 448.212C283.54 447.924 283.108 447.497 282.788 446.932C282.479 446.367 282.324 445.679 282.324 444.868V439.732H283.764V444.676C283.764 445.54 283.983 446.207 284.42 446.676C284.857 447.135 285.455 447.364 286.212 447.364C286.991 447.364 287.604 447.124 288.052 446.644C288.5 446.164 288.724 445.465 288.724 444.548V439.732H290.18ZM294.594 441.156C294.85 440.655 295.213 440.265 295.682 439.988C296.162 439.711 296.744 439.572 297.426 439.572V441.076H297.042C295.41 441.076 294.594 441.961 294.594 443.732V448.5H293.138V439.732H294.594V441.156ZM300.359 438.308C300.082 438.308 299.847 438.212 299.655 438.02C299.463 437.828 299.367 437.593 299.367 437.316C299.367 437.039 299.463 436.804 299.655 436.612C299.847 436.42 300.082 436.324 300.359 436.324C300.626 436.324 300.85 436.42 301.031 436.612C301.223 436.804 301.319 437.039 301.319 437.316C301.319 437.593 301.223 437.828 301.031 438.02C300.85 438.212 300.626 438.308 300.359 438.308ZM301.063 439.732V448.5H299.607V439.732H301.063ZM305.821 440.932V446.1C305.821 446.527 305.911 446.831 306.093 447.012C306.274 447.183 306.589 447.268 307.036 447.268H308.109V448.5H306.797C305.986 448.5 305.378 448.313 304.973 447.94C304.567 447.567 304.365 446.953 304.365 446.1V440.932H303.229V439.732H304.365V437.524H305.821V439.732H308.109V440.932H305.821ZM317.925 439.732L312.645 452.628H311.141L312.869 448.404L309.333 439.732H310.949L313.701 446.836L316.421 439.732H317.925Z" fill="white"/>
<path d="M93.5 153.5L124 119" stroke="url(#paint11_linear_1434_607)" stroke-miterlimit="10"/>
<path d="M140.5 211.5L184.5 199.5" stroke="url(#paint12_linear_1434_607)" stroke-miterlimit="10"/>
<path d="M158.5 281H201" stroke="url(#paint13_linear_1434_607)" stroke-miterlimit="10"/>
<path d="M142.918 344.169L190.001 362" stroke="url(#paint14_linear_1434_607)" stroke-miterlimit="10"/>
<path d="M93.5 407L124 441.5" stroke="url(#paint15_linear_1434_607)" stroke-miterlimit="10"/>
<path d="M142.5 118C142.5 127.665 134.665 135.5 125 135.5C115.335 135.5 107.5 127.665 107.5 118C107.5 108.335 115.335 100.5 125 100.5C134.665 100.5 142.5 108.335 142.5 118Z" fill="url(#paint16_linear_1434_607)" stroke="url(#paint17_linear_1434_607)"/>
<path d="M203.5 199C203.5 208.665 195.665 216.5 186 216.5C176.335 216.5 168.5 208.665 168.5 199C168.5 189.335 176.335 181.5 186 181.5C195.665 181.5 203.5 189.335 203.5 199Z" fill="url(#paint18_linear_1434_607)" stroke="url(#paint19_linear_1434_607)"/>
<path d="M219.5 280C219.5 289.665 211.665 297.5 202 297.5C192.335 297.5 184.5 289.665 184.5 280C184.5 270.335 192.335 262.5 202 262.5C211.665 262.5 219.5 270.335 219.5 280Z" fill="url(#paint20_linear_1434_607)" stroke="url(#paint21_linear_1434_607)"/>
<path d="M203.5 361C203.5 370.665 195.665 378.5 186 378.5C176.335 378.5 168.5 370.665 168.5 361C168.5 351.335 176.335 343.5 186 343.5C195.665 343.5 203.5 351.335 203.5 361Z" fill="url(#paint22_linear_1434_607)" stroke="url(#paint23_linear_1434_607)"/>
<path d="M142.5 442C142.5 451.665 134.665 459.5 125 459.5C115.335 459.5 107.5 451.665 107.5 442C107.5 432.335 115.335 424.5 125 424.5C134.665 424.5 142.5 432.335 142.5 442Z" fill="url(#paint24_linear_1434_607)" stroke="url(#paint25_linear_1434_607)"/>
<path d="M127.82 112.46V124L125.54 123.98V115.2L121.4 116.92V114.32L125.54 112.46H127.82Z" fill="white"/>
<path d="M178.8 199.48L181.08 198.1H185.22V200.36H181.24V202.64H185.14V205H178.8V199.48ZM178.8 197.12V194.84L181.08 193.46H185.22V195.74H181.32V197.12H178.8ZM192.62 205H186.2V202.64H192.62V205ZM190.02 200.36H186.12V198.1H190.02V195.74H186.12V193.46H190.26L192.62 194.84V198.98L190.02 200.36Z" fill="white"/>
<path d="M206.22 286.02H202.08V283.66H205.98V281.38H202.08V279.12H205.98V276.76H202.08V274.48H206.22L208.5 275.86V279.28L206.62 280.24L208.5 281.14V284.64L206.22 286.02ZM197.2 282.28V283.66H201.1V286.02H196.96L194.6 284.64V282.28H197.2ZM194.68 278.14V275.86L196.96 274.48H201.1V276.76H197.2V278.14H194.68ZM201.1 281.38H198.58V279.12H201.1V281.38Z" fill="white"/>
<path d="M192.42 366.98H190.08V362.44H185.94V360.1H190.08V355.48H192.42V366.98ZM182.54 360.1H184.96V362.44H178.4L182.54 355.56H185.28L182.54 360.1Z" fill="white"/>
<path d="M117.8 436.46H124.26V438.74H120.34V441.04H124.26V443.4H117.8V436.46ZM120.34 444.3V445.7H124.26V447.98H120.08L117.8 446.6V444.3H120.34ZM131.7 438.74H125.24V436.46H131.7V438.74ZM131.7 442.42V446.6L129.42 447.98H125.24V445.7H129.16V443.4H125.24V441.04H129.16L131.7 442.42Z" fill="white"/>
<path d="M0 124C86.1365 124 156 193.864 156 280C156 366.136 86.1365 436 0 436" fill="url(#paint26_linear_1434_607)"/>
<path d="M0 124C86.1365 124 156 193.864 156 280C156 366.136 86.1365 436 0 436" stroke="url(#paint27_linear_1434_607)" stroke-miterlimit="10"/>
<path d="M0 180C55.2157 180 100 224.784 100 280C100 335.216 55.2157 380 0 380" fill="url(#paint28_linear_1434_607)"/>
<path d="M0 180C55.2157 180 100 224.784 100 280C100 335.216 55.2157 380 0 380" stroke="url(#paint29_linear_1434_607)" stroke-width="0.5" stroke-miterlimit="10"/>
<path d="M0 226C29.8165 226 54 250.184 54 280C54 309.816 29.8165 334 0 334" fill="url(#paint30_linear_1434_607)"/>
<path d="M0 226C29.8165 226 54 250.184 54 280C54 309.816 29.8165 334 0 334" stroke="url(#paint31_linear_1434_607)" stroke-width="0.5" stroke-miterlimit="10"/>
<path d="M93 148.5C89.9332 148.5 87.5 150.933 87.5 154C87.5 157.067 89.9332 159.5 93 159.5C96.0669 159.5 98.5 157.067 98.5 154C98.5 150.933 96.0669 148.5 93 148.5Z" fill="url(#paint32_linear_1434_607)" stroke="url(#paint33_linear_1434_607)"/>
<path d="M141 205.5C137.933 205.5 135.5 207.933 135.5 211C135.5 214.067 137.933 216.5 141 216.5C144.067 216.5 146.5 214.067 146.5 211C146.5 207.933 144.067 205.5 141 205.5Z" fill="url(#paint34_linear_1434_607)" stroke="url(#paint35_linear_1434_607)"/>
<path d="M156 274.5C152.933 274.5 150.5 276.933 150.5 280C150.5 283.067 152.933 285.5 156 285.5C159.067 285.5 161.5 283.067 161.5 280C161.5 276.933 159.067 274.5 156 274.5Z" fill="url(#paint36_linear_1434_607)" stroke="url(#paint37_linear_1434_607)"/>
<path d="M143 338.5C139.933 338.5 137.5 340.933 137.5 344C137.5 347.067 139.933 349.5 143 349.5C146.067 349.5 148.5 347.067 148.5 344C148.5 340.933 146.067 338.5 143 338.5Z" fill="url(#paint38_linear_1434_607)" stroke="url(#paint39_linear_1434_607)"/>
<defs>
<linearGradient id="paint0_linear_1434_607" x1="27.5" y1="-380.625" x2="714.464" y2="127.526" gradientUnits="userSpaceOnUse">
<stop offset="0.303689" stop-color="#004B4B" stop-opacity="0"/>
<stop offset="0.454116" stop-color="#004B4B" stop-opacity="0.4"/>
<stop offset="0.499089" stop-color="#004B4B"/>
<stop offset="0.64438" stop-color="#26DDFF"/>
<stop offset="0.953267" stop-color="#26DDFF" stop-opacity="0"/>
</linearGradient>
<linearGradient id="paint1_linear_1434_607" x1="423.095" y1="74.4288" x2="413.573" y2="164.665" gradientUnits="userSpaceOnUse">
<stop stop-color="#12637E"/>
<stop offset="0.781" stop-color="#04182D"/>
</linearGradient>
<linearGradient id="paint2_linear_1434_607" x1="527.094" y1="83.5" x2="517.286" y2="173.533" gradientUnits="userSpaceOnUse">
<stop offset="0.303689" stop-color="#004B4B" stop-opacity="0"/>
<stop offset="0.422945" stop-color="#004B4B" stop-opacity="0.4"/>
<stop offset="0.499089" stop-color="#004B4B"/>
<stop offset="0.649516" stop-color="#26DDFF"/>
<stop offset="0.953267" stop-color="#26DDFF" stop-opacity="0"/>
</linearGradient>
<linearGradient id="paint3_linear_1434_607" x1="432.727" y1="158.429" x2="421.242" y2="248.2" gradientUnits="userSpaceOnUse">
<stop stop-color="#12637E"/>
<stop offset="0.781" stop-color="#04182D"/>
</linearGradient>
<linearGradient id="paint4_linear_1434_607" x1="518.5" y1="167.5" x2="506.673" y2="257.039" gradientUnits="userSpaceOnUse">
<stop offset="0.303689" stop-color="#004B4B" stop-opacity="0"/>
<stop offset="0.422945" stop-color="#004B4B" stop-opacity="0.4"/>
<stop offset="0.499089" stop-color="#004B4B"/>
<stop offset="0.649516" stop-color="#26DDFF"/>
<stop offset="0.953267" stop-color="#26DDFF" stop-opacity="0"/>
</linearGradient>
<linearGradient id="paint5_linear_1434_607" x1="448.727" y1="239.429" x2="437.242" y2="329.2" gradientUnits="userSpaceOnUse">
<stop stop-color="#12637E"/>
<stop offset="0.781" stop-color="#04182D"/>
</linearGradient>
<linearGradient id="paint6_linear_1434_607" x1="534.5" y1="248.5" x2="522.673" y2="338.039" gradientUnits="userSpaceOnUse">
<stop offset="0.303689" stop-color="#004B4B" stop-opacity="0"/>
<stop offset="0.422945" stop-color="#004B4B" stop-opacity="0.4"/>
<stop offset="0.499089" stop-color="#004B4B"/>
<stop offset="0.649516" stop-color="#26DDFF"/>
<stop offset="0.953267" stop-color="#26DDFF" stop-opacity="0"/>
</linearGradient>
<linearGradient id="paint7_linear_1434_607" x1="438.771" y1="320.429" x2="427.557" y2="410.27" gradientUnits="userSpaceOnUse">
<stop stop-color="#12637E"/>
<stop offset="0.781" stop-color="#04182D"/>
</linearGradient>
<linearGradient id="paint8_linear_1434_607" x1="526.688" y1="329.5" x2="515.139" y2="419.113" gradientUnits="userSpaceOnUse">
<stop offset="0.303689" stop-color="#004B4B" stop-opacity="0"/>
<stop offset="0.422945" stop-color="#004B4B" stop-opacity="0.4"/>
<stop offset="0.499089" stop-color="#004B4B"/>
<stop offset="0.649516" stop-color="#26DDFF"/>
<stop offset="0.953267" stop-color="#26DDFF" stop-opacity="0"/>
</linearGradient>
<linearGradient id="paint9_linear_1434_607" x1="371.727" y1="401.429" x2="360.242" y2="491.2" gradientUnits="userSpaceOnUse">
<stop stop-color="#12637E"/>
<stop offset="0.781" stop-color="#04182D"/>
</linearGradient>
<linearGradient id="paint10_linear_1434_607" x1="457.5" y1="410.5" x2="445.673" y2="500.039" gradientUnits="userSpaceOnUse">
<stop offset="0.303689" stop-color="#004B4B" stop-opacity="0"/>
<stop offset="0.422945" stop-color="#004B4B" stop-opacity="0.4"/>
<stop offset="0.499089" stop-color="#004B4B"/>
<stop offset="0.649516" stop-color="#26DDFF"/>
<stop offset="0.953267" stop-color="#26DDFF" stop-opacity="0"/>
</linearGradient>
<linearGradient id="paint11_linear_1434_607" x1="85.6649" y1="236.833" x2="171.167" y2="199.378" gradientUnits="userSpaceOnUse">
<stop offset="0.303689" stop-color="#004B4B" stop-opacity="0"/>
<stop offset="0.422945" stop-color="#004B4B" stop-opacity="0.4"/>
<stop offset="0.499089" stop-color="#004B4B"/>
<stop offset="0.649516" stop-color="#26DDFF"/>
<stop offset="0.953267" stop-color="#26DDFF" stop-opacity="0"/>
</linearGradient>
<linearGradient id="paint12_linear_1434_607" x1="135.082" y1="95.8363" x2="220.584" y2="133.291" gradientUnits="userSpaceOnUse">
<stop offset="0.303689" stop-color="#004B4B" stop-opacity="0"/>
<stop offset="0.422945" stop-color="#004B4B" stop-opacity="0.4"/>
<stop offset="0.499089" stop-color="#004B4B"/>
<stop offset="0.649516" stop-color="#26DDFF"/>
<stop offset="0.953267" stop-color="#26DDFF" stop-opacity="0"/>
</linearGradient>
<linearGradient id="paint13_linear_1434_607" x1="146.082" y1="179.836" x2="231.584" y2="217.291" gradientUnits="userSpaceOnUse">
<stop offset="0.303689" stop-color="#004B4B" stop-opacity="0"/>
<stop offset="0.422945" stop-color="#004B4B" stop-opacity="0.4"/>
<stop offset="0.499089" stop-color="#004B4B"/>
<stop offset="0.649516" stop-color="#26DDFF"/>
<stop offset="0.953267" stop-color="#26DDFF" stop-opacity="0"/>
</linearGradient>
<linearGradient id="paint14_linear_1434_607" x1="135.083" y1="260.836" x2="220.585" y2="298.29" gradientUnits="userSpaceOnUse">
<stop offset="0.303689" stop-color="#004B4B" stop-opacity="0"/>
<stop offset="0.422945" stop-color="#004B4B" stop-opacity="0.4"/>
<stop offset="0.499089" stop-color="#004B4B"/>
<stop offset="0.649516" stop-color="#26DDFF"/>
<stop offset="0.953267" stop-color="#26DDFF" stop-opacity="0"/>
</linearGradient>
<linearGradient id="paint15_linear_1434_607" x1="85.6649" y1="323.667" x2="171.167" y2="361.122" gradientUnits="userSpaceOnUse">
<stop offset="0.303689" stop-color="#004B4B" stop-opacity="0"/>
<stop offset="0.422945" stop-color="#004B4B" stop-opacity="0.4"/>
<stop offset="0.499089" stop-color="#004B4B"/>
<stop offset="0.649516" stop-color="#26DDFF"/>
<stop offset="0.953267" stop-color="#26DDFF" stop-opacity="0"/>
</linearGradient>
<linearGradient id="paint16_linear_1434_607" x1="143.259" y1="87.5716" x2="112.196" y2="136.131" gradientUnits="userSpaceOnUse">
<stop stop-color="#12637E"/>
<stop offset="0.781" stop-color="#04182D"/>
</linearGradient>
<linearGradient id="paint17_linear_1434_607" x1="156.125" y1="94.375" x2="124.705" y2="141.949" gradientUnits="userSpaceOnUse">
<stop offset="0.303689" stop-color="#004B4B" stop-opacity="0"/>
<stop offset="0.422945" stop-color="#004B4B" stop-opacity="0.4"/>
<stop offset="0.499089" stop-color="#004B4B"/>
<stop offset="0.649516" stop-color="#26DDFF"/>
<stop offset="0.953267" stop-color="#26DDFF" stop-opacity="0"/>
</linearGradient>
<linearGradient id="paint18_linear_1434_607" x1="204.259" y1="168.572" x2="173.196" y2="217.131" gradientUnits="userSpaceOnUse">
<stop stop-color="#12637E"/>
<stop offset="0.781" stop-color="#04182D"/>
</linearGradient>
<linearGradient id="paint19_linear_1434_607" x1="217.125" y1="175.375" x2="185.705" y2="222.949" gradientUnits="userSpaceOnUse">
<stop offset="0.303689" stop-color="#004B4B" stop-opacity="0"/>
<stop offset="0.422945" stop-color="#004B4B" stop-opacity="0.4"/>
<stop offset="0.499089" stop-color="#004B4B"/>
<stop offset="0.649516" stop-color="#26DDFF"/>
<stop offset="0.953267" stop-color="#26DDFF" stop-opacity="0"/>
</linearGradient>
<linearGradient id="paint20_linear_1434_607" x1="220.259" y1="249.572" x2="189.196" y2="298.131" gradientUnits="userSpaceOnUse">
<stop stop-color="#12637E"/>
<stop offset="0.781" stop-color="#04182D"/>
</linearGradient>
<linearGradient id="paint21_linear_1434_607" x1="233.125" y1="256.375" x2="201.705" y2="303.949" gradientUnits="userSpaceOnUse">
<stop offset="0.303689" stop-color="#004B4B" stop-opacity="0"/>
<stop offset="0.422945" stop-color="#004B4B" stop-opacity="0.4"/>
<stop offset="0.499089" stop-color="#004B4B"/>
<stop offset="0.649516" stop-color="#26DDFF"/>
<stop offset="0.953267" stop-color="#26DDFF" stop-opacity="0"/>
</linearGradient>
<linearGradient id="paint22_linear_1434_607" x1="204.259" y1="330.572" x2="173.196" y2="379.131" gradientUnits="userSpaceOnUse">
<stop stop-color="#12637E"/>
<stop offset="0.781" stop-color="#04182D"/>
</linearGradient>
<linearGradient id="paint23_linear_1434_607" x1="217.125" y1="337.375" x2="185.705" y2="384.949" gradientUnits="userSpaceOnUse">
<stop offset="0.303689" stop-color="#004B4B" stop-opacity="0"/>
<stop offset="0.422945" stop-color="#004B4B" stop-opacity="0.4"/>
<stop offset="0.499089" stop-color="#004B4B"/>
<stop offset="0.649516" stop-color="#26DDFF"/>
<stop offset="0.953267" stop-color="#26DDFF" stop-opacity="0"/>
</linearGradient>
<linearGradient id="paint24_linear_1434_607" x1="143.259" y1="411.572" x2="112.196" y2="460.131" gradientUnits="userSpaceOnUse">
<stop stop-color="#12637E"/>
<stop offset="0.781" stop-color="#04182D"/>
</linearGradient>
<linearGradient id="paint25_linear_1434_607" x1="156.125" y1="418.375" x2="124.705" y2="465.949" gradientUnits="userSpaceOnUse">
<stop offset="0.303689" stop-color="#004B4B" stop-opacity="0"/>
<stop offset="0.422945" stop-color="#004B4B" stop-opacity="0.4"/>
<stop offset="0.499089" stop-color="#004B4B"/>
<stop offset="0.649516" stop-color="#26DDFF"/>
<stop offset="0.953267" stop-color="#26DDFF" stop-opacity="0"/>
</linearGradient>
<linearGradient id="paint26_linear_1434_607" x1="184" y1="260.5" x2="94.6909" y2="261.688" gradientUnits="userSpaceOnUse">
<stop stop-color="#12637E"/>
<stop offset="0.781" stop-color="#04182D" stop-opacity="0.4"/>
</linearGradient>
<linearGradient id="paint27_linear_1434_607" x1="-19.2105" y1="-2571.26" x2="340.819" y2="-2549.75" gradientUnits="userSpaceOnUse">
<stop offset="0.303689" stop-color="#004B4B" stop-opacity="0"/>
<stop offset="0.422945" stop-color="#004B4B" stop-opacity="0.4"/>
<stop offset="0.499089" stop-color="#004B4B"/>
<stop offset="0.649516" stop-color="#26DDFF"/>
<stop offset="0.953267" stop-color="#26DDFF" stop-opacity="0"/>
</linearGradient>
<linearGradient id="paint28_linear_1434_607" x1="117.949" y1="267.5" x2="60.6993" y2="268.262" gradientUnits="userSpaceOnUse">
<stop stop-color="#12637E"/>
<stop offset="0.781" stop-color="#04182D" stop-opacity="0.4"/>
</linearGradient>
<linearGradient id="paint29_linear_1434_607" x1="-12.3144" y1="-1547.73" x2="218.474" y2="-1533.94" gradientUnits="userSpaceOnUse">
<stop offset="0.303689" stop-color="#004B4B" stop-opacity="0"/>
<stop offset="0.422945" stop-color="#004B4B" stop-opacity="0.4"/>
<stop offset="0.499089" stop-color="#004B4B"/>
<stop offset="0.649516" stop-color="#26DDFF"/>
<stop offset="0.953267" stop-color="#26DDFF" stop-opacity="0"/>
</linearGradient>
<linearGradient id="paint30_linear_1434_607" x1="63.6923" y1="273.25" x2="32.7776" y2="273.661" gradientUnits="userSpaceOnUse">
<stop stop-color="#12637E"/>
<stop offset="0.781" stop-color="#04182D" stop-opacity="0.4"/>
</linearGradient>
<linearGradient id="paint31_linear_1434_607" x1="-6.64978" y1="-706.974" x2="117.976" y2="-699.529" gradientUnits="userSpaceOnUse">
<stop offset="0.303689" stop-color="#004B4B" stop-opacity="0"/>
<stop offset="0.422945" stop-color="#004B4B" stop-opacity="0.4"/>
<stop offset="0.499089" stop-color="#004B4B"/>
<stop offset="0.649516" stop-color="#26DDFF"/>
<stop offset="0.953267" stop-color="#26DDFF" stop-opacity="0"/>
</linearGradient>
<linearGradient id="paint32_linear_1434_607" x1="98.072" y1="145.548" x2="89.4432" y2="159.036" gradientUnits="userSpaceOnUse">
<stop stop-color="#12637E"/>
<stop offset="0.781" stop-color="#04182D"/>
</linearGradient>
<linearGradient id="paint33_linear_1434_607" x1="86.0203" y1="132.056" x2="108.263" y2="146.671" gradientUnits="userSpaceOnUse">
<stop offset="0.303689" stop-color="#004B4B" stop-opacity="0"/>
<stop offset="0.422945" stop-color="#004B4B" stop-opacity="0.4"/>
<stop offset="0.499089" stop-color="#004B4B"/>
<stop offset="0.649516" stop-color="#26DDFF"/>
<stop offset="0.953267" stop-color="#26DDFF" stop-opacity="0"/>
</linearGradient>
<linearGradient id="paint34_linear_1434_607" x1="146.072" y1="202.548" x2="137.443" y2="216.036" gradientUnits="userSpaceOnUse">
<stop stop-color="#12637E"/>
<stop offset="0.781" stop-color="#04182D"/>
</linearGradient>
<linearGradient id="paint35_linear_1434_607" x1="134.02" y1="189.056" x2="156.263" y2="203.671" gradientUnits="userSpaceOnUse">
<stop offset="0.303689" stop-color="#004B4B" stop-opacity="0"/>
<stop offset="0.422945" stop-color="#004B4B" stop-opacity="0.4"/>
<stop offset="0.499089" stop-color="#004B4B"/>
<stop offset="0.649516" stop-color="#26DDFF"/>
<stop offset="0.953267" stop-color="#26DDFF" stop-opacity="0"/>
</linearGradient>
<linearGradient id="paint36_linear_1434_607" x1="161.072" y1="271.548" x2="152.443" y2="285.036" gradientUnits="userSpaceOnUse">
<stop stop-color="#12637E"/>
<stop offset="0.781" stop-color="#04182D"/>
</linearGradient>
<linearGradient id="paint37_linear_1434_607" x1="149.02" y1="258.056" x2="171.263" y2="272.671" gradientUnits="userSpaceOnUse">
<stop offset="0.303689" stop-color="#004B4B" stop-opacity="0"/>
<stop offset="0.422945" stop-color="#004B4B" stop-opacity="0.4"/>
<stop offset="0.499089" stop-color="#004B4B"/>
<stop offset="0.649516" stop-color="#26DDFF"/>
<stop offset="0.953267" stop-color="#26DDFF" stop-opacity="0"/>
</linearGradient>
<linearGradient id="paint38_linear_1434_607" x1="148.072" y1="335.548" x2="139.443" y2="349.036" gradientUnits="userSpaceOnUse">
<stop stop-color="#12637E"/>
<stop offset="0.781" stop-color="#04182D"/>
</linearGradient>
<linearGradient id="paint39_linear_1434_607" x1="136.02" y1="322.056" x2="158.263" y2="336.671" gradientUnits="userSpaceOnUse">
<stop offset="0.303689" stop-color="#004B4B" stop-opacity="0"/>
<stop offset="0.422945" stop-color="#004B4B" stop-opacity="0.4"/>
<stop offset="0.499089" stop-color="#004B4B"/>
<stop offset="0.649516" stop-color="#26DDFF"/>
<stop offset="0.953267" stop-color="#26DDFF" stop-opacity="0"/>
</linearGradient>
</defs>
</svg>
