<svg width="121" height="37" viewBox="0 0 121 37" fill="none" xmlns="http://www.w3.org/2000/svg">
<path d="M120.445 28.3158H116.408L113.057 22.6658H110.773V28.3158H107.016V12.2393H114.251C118.008 12.2393 120.318 14.2144 120.318 17.43C120.318 19.7496 119.049 21.5183 116.84 22.2762V22.2995L120.446 28.3164L120.445 28.3158ZM113.794 19.565C115.596 19.565 116.561 18.8071 116.561 17.406C116.561 16.005 115.646 15.3386 113.794 15.3386H110.773V19.5643H113.794V19.565Z" fill="white"/>
<path d="M37.1641 12.2383H48.6134V15.3616H40.921V19.2886H48.0801V22.2746H40.921V28.3148H37.1641V12.2383Z" fill="white"/>
<path d="M51.2266 12.2383H54.9835V28.3148H51.2266V12.2383Z" fill="white"/>
<path d="M58.5117 12.2383H62.3706L68.3868 22.4584H68.4377V12.2383H72.1947V28.3148H68.3358L62.3197 18.0947H62.2687V28.3148H58.5117V12.2383Z" fill="white"/>
<path d="M74.8327 25.5137L83.1596 15.4084V15.3626H75.0862V12.2393H87.8557V15.0414L79.5288 25.1467V25.1925H87.8302V28.3158H74.832V25.5137H74.8327Z" fill="white"/>
<path d="M96.9398 11.5547C92.2216 11.5547 88.3828 15.4612 88.3828 20.2685C88.3828 24.5448 91.418 28.1041 95.4064 28.8388V25.0341C93.4377 24.378 92.013 22.487 92.013 20.2678C92.013 17.5033 94.2225 15.2521 96.9405 15.2521C99.6584 15.2521 101.863 17.5033 101.863 20.2678C101.863 22.487 100.439 24.3773 98.4698 25.0341V28.8388C102.458 28.1034 105.493 24.5441 105.493 20.2685C105.493 15.4612 101.655 11.5547 96.9411 11.5547H96.9398Z" fill="white"/>
<path d="M96.936 22.5636C98.18 22.5636 99.1885 21.5361 99.1885 20.2686C99.1885 19.0011 98.18 17.9736 96.936 17.9736C95.6921 17.9736 94.6836 19.0011 94.6836 20.2686C94.6836 21.5361 95.6921 22.5636 96.936 22.5636Z" fill="white"/>
<path d="M20.7925 22.6943L18.5212 26.5223C18.5212 26.5223 18.5172 26.5291 18.5152 26.5318C18.4978 26.5619 18.481 26.592 18.4622 26.6221C18.4622 26.6221 18.4622 26.6227 18.4622 26.6234C17.9068 27.5303 16.9188 28.1345 15.7919 28.1345H7.77755L4.31103 33.9772L4.25334 34.0749C3.36726 35.5266 1.79565 36.4998 0 36.5251L8.20416 22.695H20.7931L20.7925 22.6943Z" fill="white"/>
<path d="M22.122 20.4521L21.1547 22.0828H8.56641L8.94069 21.4513L8.98094 21.3837C9.32437 20.8246 9.93544 20.4528 10.631 20.4528H22.1213L22.122 20.4521Z" fill="white"/>
<path d="M30.4554 6.41016L24.5279 16.4006C24.5118 16.428 24.4963 16.456 24.4796 16.4833C23.9262 17.3992 22.9328 18.0101 21.7992 18.0101H10.9844L15.4745 10.4424C16.9207 8.02444 19.5326 6.41016 22.5142 6.41016H30.4548H30.4554Z" fill="white"/>
<path d="M34.2559 0L34.2271 0.048524C32.7682 2.40365 30.1911 3.96872 27.2551 3.96872H21.1599C18.191 3.96872 15.5885 5.56933 14.1389 7.97025L2.17578 28.1337V21.8659C2.18383 20.8906 2.45616 19.9789 2.92369 19.2019L2.93107 19.1896L10.3987 6.60201C12.729 2.64695 16.9796 0 21.8367 0H34.2566H34.2559Z" fill="white"/>
</svg>
