<svg width="120" height="40" viewBox="0 0 120 40" fill="none" xmlns="http://www.w3.org/2000/svg">
<path d="M117.062 30.2616H113.239L110.065 24.7143H107.902V30.2616H104.344V14.4773H111.196C114.754 14.4773 116.942 16.4165 116.942 19.5737C116.942 21.8511 115.74 23.5877 113.648 24.3319V24.3547L117.062 30.2623L117.062 30.2616ZM110.763 21.6699C112.47 21.6699 113.383 20.9258 113.383 19.5502C113.383 18.1746 112.517 17.5204 110.763 17.5204H107.902V21.6693H110.763V21.6699Z" fill="#2D4949"/>
<path d="M38.1836 14.4766H49.0263V17.5431H41.7415V21.3988H48.5213V24.3304H41.7415V30.2609H38.1836V14.4766Z" fill="#2D4949"/>
<path d="M51.5 14.4766H55.0579V30.2609H51.5V14.4766Z" fill="#2D4949"/>
<path d="M58.3984 14.4766H62.0529L67.7503 24.511H67.7986V14.4766H71.3565V30.2609H67.702L62.0046 20.2265H61.9564V30.2609H58.3984V14.4766Z" fill="#2D4949"/>
<path d="M73.8561 27.5105L81.7418 17.5888V17.5438H74.0962V14.4773H86.1891V17.2285L78.3033 27.1501V27.1951H86.165V30.2616H73.8555V27.5105H73.8561Z" fill="#2D4949"/>
<path d="M94.795 13.8049C90.3268 13.8049 86.6914 17.6405 86.6914 22.3604C86.6914 26.559 89.5658 30.0536 93.3429 30.775V27.0394C91.4785 26.3952 90.1293 24.5385 90.1293 22.3597C90.1293 19.6455 92.2217 17.4351 94.7957 17.4351C97.3696 17.4351 99.4576 19.6455 99.4576 22.3597C99.4576 24.5385 98.1084 26.3946 96.244 27.0394V30.775C100.021 30.0529 102.895 26.5583 102.895 22.3604C102.895 17.6405 99.2607 13.8049 94.7963 13.8049H94.795Z" fill="#2D4949"/>
<path d="M94.7933 24.6137C95.9713 24.6137 96.9264 23.6049 96.9264 22.3605C96.9264 21.116 95.9713 20.1072 94.7933 20.1072C93.6152 20.1072 92.6602 21.116 92.6602 22.3605C92.6602 23.6049 93.6152 24.6137 94.7933 24.6137Z" fill="#2D4949"/>
<path d="M22.6948 24.7437L20.5439 28.502C20.5439 28.502 20.5401 28.5087 20.5382 28.5114C20.5216 28.5409 20.5058 28.5705 20.488 28.6C20.488 28.6 20.488 28.6007 20.488 28.6013C19.962 29.4918 19.0263 30.0849 17.9591 30.0849H10.3694L7.08653 35.8215L7.0319 35.9174C6.19276 37.3427 4.70442 38.2982 3.00391 38.323L10.7734 24.7443H22.6954L22.6948 24.7437Z" fill="#2D4949"/>
<path d="M23.9545 22.5435L23.0385 24.1445H11.1172L11.4716 23.5245L11.5098 23.4581C11.835 22.9092 12.4137 22.5441 13.0724 22.5441H23.9539L23.9545 22.5435Z" fill="#2D4949"/>
<path d="M31.8418 8.75684L26.2283 18.5658C26.213 18.5926 26.1984 18.6201 26.1825 18.647C25.6585 19.5461 24.7177 20.146 23.6442 20.146H13.4023L17.6546 12.7158C19.0241 10.3418 21.4977 8.75684 24.3213 8.75684H31.8412H31.8418Z" fill="#2D4949"/>
<path d="M35.4469 2.46265L35.4196 2.51029C34.038 4.82261 31.5974 6.35924 28.817 6.35924H23.0447C20.2332 6.35924 17.7685 7.93077 16.3957 10.288L5.06641 30.0851V23.9312C5.07403 22.9736 5.33193 22.0785 5.77469 21.3155L5.78168 21.3035L12.8537 8.94467C15.0605 5.0615 19.0859 2.46265 23.6856 2.46265H35.4475H35.4469Z" fill="#2D4949"/>
</svg>
