<svg width="500" height="560" viewBox="0 0 500 560" fill="none" xmlns="http://www.w3.org/2000/svg">
<rect x="0.5" y="0.5" width="499" height="559" rx="15.5" stroke="url(#paint0_linear_1240_1369)"/>
<path d="M0 124C86.1365 124 156 193.864 156 280C156 366.136 86.1365 436 0 436" fill="url(#paint1_linear_1240_1369)"/>
<path d="M0 124C86.1365 124 156 193.864 156 280C156 366.136 86.1365 436 0 436" stroke="url(#paint2_linear_1240_1369)" stroke-miterlimit="10"/>
<path d="M0 180C55.2157 180 100 224.784 100 280C100 335.216 55.2157 380 0 380" fill="url(#paint3_linear_1240_1369)"/>
<path d="M0 180C55.2157 180 100 224.784 100 280C100 335.216 55.2157 380 0 380" stroke="url(#paint4_linear_1240_1369)" stroke-width="0.5" stroke-miterlimit="10"/>
<path d="M0 226C29.8165 226 54 250.184 54 280C54 309.816 29.8165 334 0 334" fill="url(#paint5_linear_1240_1369)"/>
<path d="M0 226C29.8165 226 54 250.184 54 280C54 309.816 29.8165 334 0 334" stroke="url(#paint6_linear_1240_1369)" stroke-width="0.5" stroke-miterlimit="10"/>
<rect x="130.5" y="91.5" width="249" height="47" rx="23.5" fill="url(#paint7_linear_1240_1369)"/>
<rect x="130.5" y="91.5" width="249" height="47" rx="23.5" stroke="url(#paint8_linear_1240_1369)"/>
<path d="M161.824 118.52H156.96L156.064 121H154.528L158.56 109.912H160.24L164.256 121H162.72L161.824 118.52ZM161.408 117.336L159.392 111.704L157.376 117.336H161.408ZM167.969 109.848V121H166.513V109.848H167.969ZM177.031 114.52V115.752H170.647V114.52H177.031ZM187.719 113.112C187.719 114.04 187.399 114.813 186.759 115.432C186.13 116.04 185.165 116.344 183.863 116.344H181.719V121H180.263V109.848H183.863C185.122 109.848 186.077 110.152 186.727 110.76C187.389 111.368 187.719 112.152 187.719 113.112ZM183.863 115.144C184.674 115.144 185.271 114.968 185.655 114.616C186.039 114.264 186.231 113.763 186.231 113.112C186.231 111.736 185.442 111.048 183.863 111.048H181.719V115.144H183.863ZM193.853 121.144C193.032 121.144 192.285 120.957 191.613 120.584C190.952 120.211 190.429 119.683 190.045 119C189.672 118.307 189.485 117.507 189.485 116.6C189.485 115.704 189.677 114.915 190.061 114.232C190.456 113.539 190.989 113.011 191.661 112.648C192.333 112.275 193.085 112.088 193.917 112.088C194.749 112.088 195.501 112.275 196.173 112.648C196.845 113.011 197.373 113.533 197.757 114.216C198.152 114.899 198.349 115.693 198.349 116.6C198.349 117.507 198.146 118.307 197.741 119C197.346 119.683 196.808 120.211 196.125 120.584C195.442 120.957 194.685 121.144 193.853 121.144ZM193.853 119.864C194.376 119.864 194.866 119.741 195.325 119.496C195.784 119.251 196.152 118.883 196.429 118.392C196.717 117.901 196.861 117.304 196.861 116.6C196.861 115.896 196.722 115.299 196.445 114.808C196.168 114.317 195.805 113.955 195.357 113.72C194.909 113.475 194.424 113.352 193.901 113.352C193.368 113.352 192.877 113.475 192.429 113.72C191.992 113.955 191.64 114.317 191.373 114.808C191.106 115.299 190.973 115.896 190.973 116.6C190.973 117.315 191.101 117.917 191.357 118.408C191.624 118.899 191.976 119.267 192.413 119.512C192.85 119.747 193.33 119.864 193.853 119.864ZM212.443 112.232L209.707 121H208.203L206.091 114.04L203.979 121H202.475L199.723 112.232H201.211L203.227 119.592L205.403 112.232H206.891L209.019 119.608L211.003 112.232H212.443ZM222.388 116.28C222.388 116.557 222.372 116.851 222.34 117.16H215.332C215.386 118.024 215.679 118.701 216.212 119.192C216.756 119.672 217.412 119.912 218.18 119.912C218.81 119.912 219.332 119.768 219.748 119.48C220.175 119.181 220.474 118.787 220.644 118.296H222.212C221.978 119.139 221.508 119.827 220.804 120.36C220.1 120.883 219.226 121.144 218.18 121.144C217.348 121.144 216.602 120.957 215.94 120.584C215.29 120.211 214.778 119.683 214.404 119C214.031 118.307 213.844 117.507 213.844 116.6C213.844 115.693 214.026 114.899 214.388 114.216C214.751 113.533 215.258 113.011 215.908 112.648C216.57 112.275 217.327 112.088 218.18 112.088C219.012 112.088 219.748 112.269 220.388 112.632C221.028 112.995 221.519 113.496 221.86 114.136C222.212 114.765 222.388 115.48 222.388 116.28ZM220.884 115.976C220.884 115.421 220.762 114.947 220.516 114.552C220.271 114.147 219.935 113.843 219.508 113.64C219.092 113.427 218.628 113.32 218.116 113.32C217.38 113.32 216.751 113.555 216.228 114.024C215.716 114.493 215.423 115.144 215.348 115.976H220.884ZM226.266 113.656C226.522 113.155 226.885 112.765 227.354 112.488C227.834 112.211 228.415 112.072 229.098 112.072V113.576H228.714C227.082 113.576 226.266 114.461 226.266 116.232V121H224.81V112.232H226.266V113.656ZM239.279 116.28C239.279 116.557 239.263 116.851 239.231 117.16H232.223C232.276 118.024 232.57 118.701 233.103 119.192C233.647 119.672 234.303 119.912 235.071 119.912C235.7 119.912 236.223 119.768 236.639 119.48C237.066 119.181 237.364 118.787 237.535 118.296H239.103C238.868 119.139 238.399 119.827 237.695 120.36C236.991 120.883 236.116 121.144 235.071 121.144C234.239 121.144 233.492 120.957 232.831 120.584C232.18 120.211 231.668 119.683 231.295 119C230.922 118.307 230.735 117.507 230.735 116.6C230.735 115.693 230.916 114.899 231.279 114.216C231.642 113.533 232.148 113.011 232.799 112.648C233.46 112.275 234.218 112.088 235.071 112.088C235.903 112.088 236.639 112.269 237.279 112.632C237.919 112.995 238.41 113.496 238.751 114.136C239.103 114.765 239.279 115.48 239.279 116.28ZM237.775 115.976C237.775 115.421 237.652 114.947 237.407 114.552C237.162 114.147 236.826 113.843 236.399 113.64C235.983 113.427 235.519 113.32 235.007 113.32C234.271 113.32 233.642 113.555 233.119 114.024C232.607 114.493 232.314 115.144 232.239 115.976H237.775ZM241.157 116.584C241.157 115.688 241.338 114.904 241.701 114.232C242.063 113.549 242.559 113.021 243.189 112.648C243.829 112.275 244.543 112.088 245.333 112.088C246.015 112.088 246.65 112.248 247.237 112.568C247.823 112.877 248.271 113.288 248.581 113.8V109.16H250.053V121H248.581V119.352C248.293 119.875 247.866 120.307 247.301 120.648C246.735 120.979 246.074 121.144 245.317 121.144C244.538 121.144 243.829 120.952 243.189 120.568C242.559 120.184 242.063 119.645 241.701 118.952C241.338 118.259 241.157 117.469 241.157 116.584ZM248.581 116.6C248.581 115.939 248.447 115.363 248.181 114.872C247.914 114.381 247.551 114.008 247.093 113.752C246.645 113.485 246.149 113.352 245.605 113.352C245.061 113.352 244.565 113.48 244.117 113.736C243.669 113.992 243.311 114.365 243.045 114.856C242.778 115.347 242.645 115.923 242.645 116.584C242.645 117.256 242.778 117.843 243.045 118.344C243.311 118.835 243.669 119.213 244.117 119.48C244.565 119.736 245.061 119.864 245.605 119.864C246.149 119.864 246.645 119.736 247.093 119.48C247.551 119.213 247.914 118.835 248.181 118.344C248.447 117.843 248.581 117.261 248.581 116.6ZM263.651 121L260.995 116.44H259.235V121H257.779V109.848H261.379C262.222 109.848 262.931 109.992 263.507 110.28C264.094 110.568 264.531 110.957 264.819 111.448C265.107 111.939 265.251 112.499 265.251 113.128C265.251 113.896 265.027 114.573 264.579 115.16C264.142 115.747 263.48 116.136 262.595 116.328L265.395 121H263.651ZM259.235 115.272H261.379C262.168 115.272 262.76 115.08 263.155 114.696C263.55 114.301 263.747 113.779 263.747 113.128C263.747 112.467 263.55 111.955 263.155 111.592C262.771 111.229 262.179 111.048 261.379 111.048H259.235V115.272ZM268.765 110.808C268.488 110.808 268.253 110.712 268.061 110.52C267.869 110.328 267.773 110.093 267.773 109.816C267.773 109.539 267.869 109.304 268.061 109.112C268.253 108.92 268.488 108.824 268.765 108.824C269.032 108.824 269.256 108.92 269.437 109.112C269.629 109.304 269.725 109.539 269.725 109.816C269.725 110.093 269.629 110.328 269.437 110.52C269.256 110.712 269.032 110.808 268.765 110.808ZM269.469 112.232V121H268.013V112.232H269.469ZM275.555 121.144C274.883 121.144 274.28 121.032 273.747 120.808C273.213 120.573 272.792 120.253 272.483 119.848C272.173 119.432 272.003 118.957 271.971 118.424H273.475C273.517 118.861 273.72 119.219 274.083 119.496C274.456 119.773 274.941 119.912 275.539 119.912C276.093 119.912 276.531 119.789 276.851 119.544C277.171 119.299 277.331 118.989 277.331 118.616C277.331 118.232 277.16 117.949 276.819 117.768C276.477 117.576 275.949 117.389 275.235 117.208C274.584 117.037 274.051 116.867 273.635 116.696C273.229 116.515 272.877 116.253 272.579 115.912C272.291 115.56 272.147 115.101 272.147 114.536C272.147 114.088 272.28 113.677 272.547 113.304C272.813 112.931 273.192 112.637 273.683 112.424C274.173 112.2 274.733 112.088 275.363 112.088C276.333 112.088 277.117 112.333 277.715 112.824C278.312 113.315 278.632 113.987 278.675 114.84H277.219C277.187 114.381 277 114.013 276.659 113.736C276.328 113.459 275.88 113.32 275.315 113.32C274.792 113.32 274.376 113.432 274.067 113.656C273.757 113.88 273.603 114.173 273.603 114.536C273.603 114.824 273.693 115.064 273.875 115.256C274.067 115.437 274.301 115.587 274.579 115.704C274.867 115.811 275.261 115.933 275.763 116.072C276.392 116.243 276.904 116.413 277.299 116.584C277.693 116.744 278.029 116.989 278.307 117.32C278.595 117.651 278.744 118.083 278.755 118.616C278.755 119.096 278.621 119.528 278.355 119.912C278.088 120.296 277.709 120.6 277.219 120.824C276.739 121.037 276.184 121.144 275.555 121.144ZM286.206 121L282.766 117.128V121H281.31V109.16H282.766V116.12L286.142 112.232H288.174L284.046 116.6L288.19 121H286.206ZM306.122 109.928V121H304.666V112.744L300.986 121H299.962L296.266 112.728V121H294.81V109.928H296.378L300.474 119.08L304.57 109.928H306.122ZM312.915 121.144C312.094 121.144 311.347 120.957 310.675 120.584C310.014 120.211 309.491 119.683 309.107 119C308.734 118.307 308.547 117.507 308.547 116.6C308.547 115.704 308.739 114.915 309.123 114.232C309.518 113.539 310.051 113.011 310.723 112.648C311.395 112.275 312.147 112.088 312.979 112.088C313.811 112.088 314.563 112.275 315.235 112.648C315.907 113.011 316.435 113.533 316.819 114.216C317.214 114.899 317.411 115.693 317.411 116.6C317.411 117.507 317.209 118.307 316.803 119C316.409 119.683 315.87 120.211 315.187 120.584C314.505 120.957 313.747 121.144 312.915 121.144ZM312.915 119.864C313.438 119.864 313.929 119.741 314.387 119.496C314.846 119.251 315.214 118.883 315.491 118.392C315.779 117.901 315.923 117.304 315.923 116.6C315.923 115.896 315.785 115.299 315.507 114.808C315.23 114.317 314.867 113.955 314.419 113.72C313.971 113.475 313.486 113.352 312.963 113.352C312.43 113.352 311.939 113.475 311.491 113.72C311.054 113.955 310.702 114.317 310.435 114.808C310.169 115.299 310.035 115.896 310.035 116.6C310.035 117.315 310.163 117.917 310.419 118.408C310.686 118.899 311.038 119.267 311.475 119.512C311.913 119.747 312.393 119.864 312.915 119.864ZM319.282 116.584C319.282 115.688 319.463 114.904 319.826 114.232C320.188 113.549 320.684 113.021 321.314 112.648C321.954 112.275 322.668 112.088 323.458 112.088C324.14 112.088 324.775 112.248 325.362 112.568C325.948 112.877 326.396 113.288 326.706 113.8V109.16H328.178V121H326.706V119.352C326.418 119.875 325.991 120.307 325.426 120.648C324.86 120.979 324.199 121.144 323.442 121.144C322.663 121.144 321.954 120.952 321.314 120.568C320.684 120.184 320.188 119.645 319.826 118.952C319.463 118.259 319.282 117.469 319.282 116.584ZM326.706 116.6C326.706 115.939 326.572 115.363 326.306 114.872C326.039 114.381 325.676 114.008 325.218 113.752C324.77 113.485 324.274 113.352 323.73 113.352C323.186 113.352 322.69 113.48 322.242 113.736C321.794 113.992 321.436 114.365 321.17 114.856C320.903 115.347 320.77 115.923 320.77 116.584C320.77 117.256 320.903 117.843 321.17 118.344C321.436 118.835 321.794 119.213 322.242 119.48C322.69 119.736 323.186 119.864 323.73 119.864C324.274 119.864 324.77 119.736 325.218 119.48C325.676 119.213 326.039 118.835 326.306 118.344C326.572 117.843 326.706 117.261 326.706 116.6ZM339.138 116.28C339.138 116.557 339.122 116.851 339.09 117.16H332.082C332.136 118.024 332.429 118.701 332.962 119.192C333.506 119.672 334.162 119.912 334.93 119.912C335.56 119.912 336.082 119.768 336.498 119.48C336.925 119.181 337.224 118.787 337.394 118.296H338.962C338.728 119.139 338.258 119.827 337.554 120.36C336.85 120.883 335.976 121.144 334.93 121.144C334.098 121.144 333.352 120.957 332.69 120.584C332.04 120.211 331.528 119.683 331.154 119C330.781 118.307 330.594 117.507 330.594 116.6C330.594 115.693 330.776 114.899 331.138 114.216C331.501 113.533 332.008 113.011 332.658 112.648C333.32 112.275 334.077 112.088 334.93 112.088C335.762 112.088 336.498 112.269 337.138 112.632C337.778 112.995 338.269 113.496 338.61 114.136C338.962 114.765 339.138 115.48 339.138 116.28ZM337.634 115.976C337.634 115.421 337.512 114.947 337.266 114.552C337.021 114.147 336.685 113.843 336.258 113.64C335.842 113.427 335.378 113.32 334.866 113.32C334.13 113.32 333.501 113.555 332.978 114.024C332.466 114.493 332.173 115.144 332.098 115.976H337.634ZM343.016 109.16V121H341.56V109.16H343.016ZM349.102 121.144C348.43 121.144 347.827 121.032 347.294 120.808C346.76 120.573 346.339 120.253 346.03 119.848C345.72 119.432 345.55 118.957 345.518 118.424H347.022C347.064 118.861 347.267 119.219 347.63 119.496C348.003 119.773 348.488 119.912 349.086 119.912C349.64 119.912 350.078 119.789 350.398 119.544C350.718 119.299 350.878 118.989 350.878 118.616C350.878 118.232 350.707 117.949 350.366 117.768C350.024 117.576 349.496 117.389 348.782 117.208C348.131 117.037 347.598 116.867 347.182 116.696C346.776 116.515 346.424 116.253 346.126 115.912C345.838 115.56 345.694 115.101 345.694 114.536C345.694 114.088 345.827 113.677 346.094 113.304C346.36 112.931 346.739 112.637 347.23 112.424C347.72 112.2 348.28 112.088 348.91 112.088C349.88 112.088 350.664 112.333 351.262 112.824C351.859 113.315 352.179 113.987 352.222 114.84H350.766C350.734 114.381 350.547 114.013 350.206 113.736C349.875 113.459 349.427 113.32 348.862 113.32C348.339 113.32 347.923 113.432 347.614 113.656C347.304 113.88 347.15 114.173 347.15 114.536C347.15 114.824 347.24 115.064 347.422 115.256C347.614 115.437 347.848 115.587 348.126 115.704C348.414 115.811 348.808 115.933 349.31 116.072C349.939 116.243 350.451 116.413 350.846 116.584C351.24 116.744 351.576 116.989 351.854 117.32C352.142 117.651 352.291 118.083 352.302 118.616C352.302 119.096 352.168 119.528 351.902 119.912C351.635 120.296 351.256 120.6 350.766 120.824C350.286 121.037 349.731 121.144 349.102 121.144Z" fill="white"/>
<path d="M93.5 153.5L124 119" stroke="url(#paint9_linear_1240_1369)" stroke-miterlimit="10"/>
<path d="M93 148.5C89.9332 148.5 87.5 150.933 87.5 154C87.5 157.067 89.9332 159.5 93 159.5C96.0669 159.5 98.5 157.067 98.5 154C98.5 150.933 96.0669 148.5 93 148.5Z" fill="url(#paint10_linear_1240_1369)" stroke="url(#paint11_linear_1240_1369)"/>
<path d="M142.5 118C142.5 127.665 134.665 135.5 125 135.5C115.335 135.5 107.5 127.665 107.5 118C107.5 108.335 115.335 100.5 125 100.5C134.665 100.5 142.5 108.335 142.5 118Z" fill="url(#paint12_linear_1240_1369)" stroke="url(#paint13_linear_1240_1369)"/>
<rect x="191.5" y="175.5" width="249" height="47" rx="23.5" fill="url(#paint14_linear_1240_1369)"/>
<rect x="191.5" y="175.5" width="249" height="47" rx="23.5" stroke="url(#paint15_linear_1240_1369)"/>
<path d="M217.688 194.348V205.5H216.232V194.348H217.688ZM224.942 196.572C226.008 196.572 226.872 196.897 227.534 197.548C228.195 198.188 228.526 199.116 228.526 200.332V205.5H227.086V200.54C227.086 199.665 226.867 198.999 226.43 198.54C225.992 198.071 225.395 197.836 224.638 197.836C223.87 197.836 223.256 198.076 222.798 198.556C222.35 199.036 222.126 199.735 222.126 200.652V205.5H220.67V196.732H222.126V197.98C222.414 197.532 222.803 197.185 223.294 196.94C223.795 196.695 224.344 196.572 224.942 196.572ZM234.508 205.644C233.836 205.644 233.233 205.532 232.7 205.308C232.167 205.073 231.745 204.753 231.436 204.348C231.127 203.932 230.956 203.457 230.924 202.924H232.428C232.471 203.361 232.673 203.719 233.036 203.996C233.409 204.273 233.895 204.412 234.492 204.412C235.047 204.412 235.484 204.289 235.804 204.044C236.124 203.799 236.284 203.489 236.284 203.116C236.284 202.732 236.113 202.449 235.772 202.268C235.431 202.076 234.903 201.889 234.188 201.708C233.537 201.537 233.004 201.367 232.588 201.196C232.183 201.015 231.831 200.753 231.532 200.412C231.244 200.06 231.1 199.601 231.1 199.036C231.1 198.588 231.233 198.177 231.5 197.804C231.767 197.431 232.145 197.137 232.636 196.924C233.127 196.7 233.687 196.588 234.316 196.588C235.287 196.588 236.071 196.833 236.668 197.324C237.265 197.815 237.585 198.487 237.628 199.34H236.172C236.14 198.881 235.953 198.513 235.612 198.236C235.281 197.959 234.833 197.82 234.268 197.82C233.745 197.82 233.329 197.932 233.02 198.156C232.711 198.38 232.556 198.673 232.556 199.036C232.556 199.324 232.647 199.564 232.828 199.756C233.02 199.937 233.255 200.087 233.532 200.204C233.82 200.311 234.215 200.433 234.716 200.572C235.345 200.743 235.857 200.913 236.252 201.084C236.647 201.244 236.983 201.489 237.26 201.82C237.548 202.151 237.697 202.583 237.708 203.116C237.708 203.596 237.575 204.028 237.308 204.412C237.041 204.796 236.663 205.1 236.172 205.324C235.692 205.537 235.137 205.644 234.508 205.644ZM242.039 197.932V203.1C242.039 203.527 242.13 203.831 242.311 204.012C242.493 204.183 242.807 204.268 243.255 204.268H244.327V205.5H243.015C242.205 205.5 241.597 205.313 241.191 204.94C240.786 204.567 240.583 203.953 240.583 203.1V197.932H239.447V196.732H240.583V194.524H242.039V196.732H244.327V197.932H242.039ZM246.047 201.084C246.047 200.188 246.229 199.404 246.591 198.732C246.954 198.049 247.45 197.521 248.079 197.148C248.719 196.775 249.429 196.588 250.207 196.588C250.975 196.588 251.642 196.753 252.207 197.084C252.773 197.415 253.194 197.831 253.471 198.332V196.732H254.943V205.5H253.471V203.868C253.183 204.38 252.751 204.807 252.175 205.148C251.61 205.479 250.949 205.644 250.191 205.644C249.413 205.644 248.709 205.452 248.079 205.068C247.45 204.684 246.954 204.145 246.591 203.452C246.229 202.759 246.047 201.969 246.047 201.084ZM253.471 201.1C253.471 200.439 253.338 199.863 253.071 199.372C252.805 198.881 252.442 198.508 251.983 198.252C251.535 197.985 251.039 197.852 250.495 197.852C249.951 197.852 249.455 197.98 249.007 198.236C248.559 198.492 248.202 198.865 247.935 199.356C247.669 199.847 247.535 200.423 247.535 201.084C247.535 201.756 247.669 202.343 247.935 202.844C248.202 203.335 248.559 203.713 249.007 203.98C249.455 204.236 249.951 204.364 250.495 204.364C251.039 204.364 251.535 204.236 251.983 203.98C252.442 203.713 252.805 203.335 253.071 202.844C253.338 202.343 253.471 201.761 253.471 201.1ZM262.176 196.572C263.243 196.572 264.107 196.897 264.768 197.548C265.429 198.188 265.76 199.116 265.76 200.332V205.5H264.32V200.54C264.32 199.665 264.101 198.999 263.664 198.54C263.227 198.071 262.629 197.836 261.872 197.836C261.104 197.836 260.491 198.076 260.032 198.556C259.584 199.036 259.36 199.735 259.36 200.652V205.5H257.904V196.732H259.36V197.98C259.648 197.532 260.037 197.185 260.528 196.94C261.029 196.695 261.579 196.572 262.176 196.572ZM270.414 197.932V203.1C270.414 203.527 270.505 203.831 270.686 204.012C270.868 204.183 271.182 204.268 271.63 204.268H272.702V205.5H271.39C270.58 205.5 269.972 205.313 269.566 204.94C269.161 204.567 268.958 203.953 268.958 203.1V197.932H267.822V196.732H268.958V194.524H270.414V196.732H272.702V197.932H270.414ZM286.036 194.348V195.532H281.188V199.292H285.124V200.476H281.188V205.5H279.732V194.348H286.036ZM289.751 198.156C290.007 197.655 290.369 197.265 290.839 196.988C291.319 196.711 291.9 196.572 292.583 196.572V198.076H292.199C290.567 198.076 289.751 198.961 289.751 200.732V205.5H288.295V196.732H289.751V198.156ZM294.219 201.084C294.219 200.188 294.401 199.404 294.763 198.732C295.126 198.049 295.622 197.521 296.251 197.148C296.891 196.775 297.601 196.588 298.379 196.588C299.147 196.588 299.814 196.753 300.379 197.084C300.945 197.415 301.366 197.831 301.643 198.332V196.732H303.115V205.5H301.643V203.868C301.355 204.38 300.923 204.807 300.347 205.148C299.782 205.479 299.121 205.644 298.363 205.644C297.585 205.644 296.881 205.452 296.251 205.068C295.622 204.684 295.126 204.145 294.763 203.452C294.401 202.759 294.219 201.969 294.219 201.084ZM301.643 201.1C301.643 200.439 301.51 199.863 301.243 199.372C300.977 198.881 300.614 198.508 300.155 198.252C299.707 197.985 299.211 197.852 298.667 197.852C298.123 197.852 297.627 197.98 297.179 198.236C296.731 198.492 296.374 198.865 296.107 199.356C295.841 199.847 295.707 200.423 295.707 201.084C295.707 201.756 295.841 202.343 296.107 202.844C296.374 203.335 296.731 203.713 297.179 203.98C297.627 204.236 298.123 204.364 298.667 204.364C299.211 204.364 299.707 204.236 300.155 203.98C300.614 203.713 300.977 203.335 301.243 202.844C301.51 202.343 301.643 201.761 301.643 201.1ZM313.852 196.732V205.5H312.396V204.204C312.118 204.652 311.729 205.004 311.228 205.26C310.737 205.505 310.193 205.628 309.596 205.628C308.913 205.628 308.3 205.489 307.756 205.212C307.212 204.924 306.78 204.497 306.46 203.932C306.15 203.367 305.996 202.679 305.996 201.868V196.732H307.436V201.676C307.436 202.54 307.654 203.207 308.092 203.676C308.529 204.135 309.126 204.364 309.884 204.364C310.662 204.364 311.276 204.124 311.724 203.644C312.172 203.164 312.396 202.465 312.396 201.548V196.732H313.852ZM316.266 201.084C316.266 200.188 316.447 199.404 316.81 198.732C317.173 198.049 317.669 197.521 318.298 197.148C318.938 196.775 319.653 196.588 320.442 196.588C321.125 196.588 321.759 196.748 322.346 197.068C322.933 197.377 323.381 197.788 323.69 198.3V193.66H325.162V205.5H323.69V203.852C323.402 204.375 322.975 204.807 322.41 205.148C321.845 205.479 321.183 205.644 320.426 205.644C319.647 205.644 318.938 205.452 318.298 205.068C317.669 204.684 317.173 204.145 316.81 203.452C316.447 202.759 316.266 201.969 316.266 201.084ZM323.69 201.1C323.69 200.439 323.557 199.863 323.29 199.372C323.023 198.881 322.661 198.508 322.202 198.252C321.754 197.985 321.258 197.852 320.714 197.852C320.17 197.852 319.674 197.98 319.226 198.236C318.778 198.492 318.421 198.865 318.154 199.356C317.887 199.847 317.754 200.423 317.754 201.084C317.754 201.756 317.887 202.343 318.154 202.844C318.421 203.335 318.778 203.713 319.226 203.98C319.674 204.236 320.17 204.364 320.714 204.364C321.258 204.364 321.754 204.236 322.202 203.98C322.661 203.713 323.023 203.335 323.29 202.844C323.557 202.343 323.69 201.761 323.69 201.1ZM336.36 194.348C337.576 194.348 338.627 194.577 339.512 195.036C340.408 195.484 341.091 196.129 341.56 196.972C342.04 197.815 342.28 198.807 342.28 199.948C342.28 201.089 342.04 202.081 341.56 202.924C341.091 203.756 340.408 204.396 339.512 204.844C338.627 205.281 337.576 205.5 336.36 205.5H332.888V194.348H336.36ZM336.36 204.3C337.8 204.3 338.899 203.921 339.656 203.164C340.414 202.396 340.792 201.324 340.792 199.948C340.792 198.561 340.408 197.479 339.64 196.7C338.883 195.921 337.79 195.532 336.36 195.532H334.344V204.3H336.36ZM352.701 200.78C352.701 201.057 352.685 201.351 352.653 201.66H345.645C345.698 202.524 345.991 203.201 346.525 203.692C347.069 204.172 347.725 204.412 348.493 204.412C349.122 204.412 349.645 204.268 350.061 203.98C350.487 203.681 350.786 203.287 350.957 202.796H352.525C352.29 203.639 351.821 204.327 351.117 204.86C350.413 205.383 349.538 205.644 348.493 205.644C347.661 205.644 346.914 205.457 346.253 205.084C345.602 204.711 345.09 204.183 344.717 203.5C344.343 202.807 344.157 202.007 344.157 201.1C344.157 200.193 344.338 199.399 344.701 198.716C345.063 198.033 345.57 197.511 346.221 197.148C346.882 196.775 347.639 196.588 348.493 196.588C349.325 196.588 350.061 196.769 350.701 197.132C351.341 197.495 351.831 197.996 352.173 198.636C352.525 199.265 352.701 199.98 352.701 200.78ZM351.197 200.476C351.197 199.921 351.074 199.447 350.829 199.052C350.583 198.647 350.247 198.343 349.821 198.14C349.405 197.927 348.941 197.82 348.429 197.82C347.693 197.82 347.063 198.055 346.541 198.524C346.029 198.993 345.735 199.644 345.661 200.476H351.197ZM356.899 197.932V203.1C356.899 203.527 356.989 203.831 357.171 204.012C357.352 204.183 357.667 204.268 358.115 204.268H359.187V205.5H357.875C357.064 205.5 356.456 205.313 356.051 204.94C355.645 204.567 355.443 203.953 355.443 203.1V197.932H354.307V196.732H355.443V194.524H356.899V196.732H359.187V197.932H356.899ZM369.451 200.78C369.451 201.057 369.435 201.351 369.403 201.66H362.395C362.448 202.524 362.741 203.201 363.275 203.692C363.819 204.172 364.475 204.412 365.243 204.412C365.872 204.412 366.395 204.268 366.811 203.98C367.237 203.681 367.536 203.287 367.707 202.796H369.275C369.04 203.639 368.571 204.327 367.867 204.86C367.163 205.383 366.288 205.644 365.243 205.644C364.411 205.644 363.664 205.457 363.003 205.084C362.352 204.711 361.84 204.183 361.467 203.5C361.093 202.807 360.907 202.007 360.907 201.1C360.907 200.193 361.088 199.399 361.451 198.716C361.813 198.033 362.32 197.511 362.971 197.148C363.632 196.775 364.389 196.588 365.243 196.588C366.075 196.588 366.811 196.769 367.451 197.132C368.091 197.495 368.581 197.996 368.923 198.636C369.275 199.265 369.451 199.98 369.451 200.78ZM367.947 200.476C367.947 199.921 367.824 199.447 367.579 199.052C367.333 198.647 366.997 198.343 366.571 198.14C366.155 197.927 365.691 197.82 365.179 197.82C364.443 197.82 363.813 198.055 363.291 198.524C362.779 198.993 362.485 199.644 362.411 200.476H367.947ZM371.329 201.1C371.329 200.193 371.51 199.404 371.873 198.732C372.235 198.049 372.737 197.521 373.377 197.148C374.027 196.775 374.769 196.588 375.601 196.588C376.678 196.588 377.563 196.849 378.257 197.372C378.961 197.895 379.425 198.62 379.649 199.548H378.081C377.931 199.015 377.638 198.593 377.201 198.284C376.774 197.975 376.241 197.82 375.601 197.82C374.769 197.82 374.097 198.108 373.585 198.684C373.073 199.249 372.817 200.055 372.817 201.1C372.817 202.156 373.073 202.972 373.585 203.548C374.097 204.124 374.769 204.412 375.601 204.412C376.241 204.412 376.774 204.263 377.201 203.964C377.627 203.665 377.921 203.239 378.081 202.684H379.649C379.414 203.58 378.945 204.3 378.241 204.844C377.537 205.377 376.657 205.644 375.601 205.644C374.769 205.644 374.027 205.457 373.377 205.084C372.737 204.711 372.235 204.183 371.873 203.5C371.51 202.817 371.329 202.017 371.329 201.1ZM383.867 197.932V203.1C383.867 203.527 383.958 203.831 384.139 204.012C384.321 204.183 384.635 204.268 385.083 204.268H386.155V205.5H384.843C384.033 205.5 383.425 205.313 383.019 204.94C382.614 204.567 382.411 203.953 382.411 203.1V197.932H381.275V196.732H382.411V194.524H383.867V196.732H386.155V197.932H383.867ZM389.172 195.308C388.894 195.308 388.66 195.212 388.468 195.02C388.276 194.828 388.18 194.593 388.18 194.316C388.18 194.039 388.276 193.804 388.468 193.612C388.66 193.42 388.894 193.324 389.172 193.324C389.438 193.324 389.662 193.42 389.844 193.612C390.036 193.804 390.132 194.039 390.132 194.316C390.132 194.593 390.036 194.828 389.844 195.02C389.662 195.212 389.438 195.308 389.172 195.308ZM389.876 196.732V205.5H388.42V196.732H389.876ZM396.681 205.644C395.86 205.644 395.113 205.457 394.441 205.084C393.78 204.711 393.257 204.183 392.873 203.5C392.5 202.807 392.313 202.007 392.313 201.1C392.313 200.204 392.505 199.415 392.889 198.732C393.284 198.039 393.817 197.511 394.489 197.148C395.161 196.775 395.913 196.588 396.745 196.588C397.577 196.588 398.329 196.775 399.001 197.148C399.673 197.511 400.201 198.033 400.585 198.716C400.98 199.399 401.177 200.193 401.177 201.1C401.177 202.007 400.974 202.807 400.569 203.5C400.174 204.183 399.636 204.711 398.953 205.084C398.27 205.457 397.513 205.644 396.681 205.644ZM396.681 204.364C397.204 204.364 397.694 204.241 398.153 203.996C398.612 203.751 398.98 203.383 399.257 202.892C399.545 202.401 399.689 201.804 399.689 201.1C399.689 200.396 399.55 199.799 399.273 199.308C398.996 198.817 398.633 198.455 398.185 198.22C397.737 197.975 397.252 197.852 396.729 197.852C396.196 197.852 395.705 197.975 395.257 198.22C394.82 198.455 394.468 198.817 394.201 199.308C393.934 199.799 393.801 200.396 393.801 201.1C393.801 201.815 393.929 202.417 394.185 202.908C394.452 203.399 394.804 203.767 395.241 204.012C395.678 204.247 396.158 204.364 396.681 204.364ZM407.863 196.572C408.93 196.572 409.794 196.897 410.455 197.548C411.117 198.188 411.447 199.116 411.447 200.332V205.5H410.007V200.54C410.007 199.665 409.789 198.999 409.351 198.54C408.914 198.071 408.317 197.836 407.559 197.836C406.791 197.836 406.178 198.076 405.719 198.556C405.271 199.036 405.047 199.735 405.047 200.652V205.5H403.591V196.732H405.047V197.98C405.335 197.532 405.725 197.185 406.215 196.94C406.717 196.695 407.266 196.572 407.863 196.572Z" fill="white"/>
<path d="M140.5 211.5L184.5 199.5" stroke="url(#paint16_linear_1240_1369)" stroke-miterlimit="10"/>
<path d="M141 205.5C137.933 205.5 135.5 207.933 135.5 211C135.5 214.067 137.933 216.5 141 216.5C144.067 216.5 146.5 214.067 146.5 211C146.5 207.933 144.067 205.5 141 205.5Z" fill="url(#paint17_linear_1240_1369)" stroke="url(#paint18_linear_1240_1369)"/>
<path d="M203.5 199C203.5 208.665 195.665 216.5 186 216.5C176.335 216.5 168.5 208.665 168.5 199C168.5 189.335 176.335 181.5 186 181.5C195.665 181.5 203.5 189.335 203.5 199Z" fill="url(#paint19_linear_1240_1369)" stroke="url(#paint20_linear_1240_1369)"/>
<rect x="207.5" y="256.5" width="249" height="47" rx="23.5" fill="url(#paint21_linear_1240_1369)"/>
<rect x="207.5" y="256.5" width="249" height="47" rx="23.5" stroke="url(#paint22_linear_1240_1369)"/>
<path d="M235.768 286.612C235.032 286.612 234.371 286.484 233.784 286.228C233.208 285.961 232.755 285.599 232.424 285.14C232.093 284.671 231.923 284.132 231.912 283.524H233.464C233.517 284.047 233.731 284.489 234.104 284.852C234.488 285.204 235.043 285.38 235.768 285.38C236.461 285.38 237.005 285.209 237.4 284.868C237.805 284.516 238.008 284.068 238.008 283.524C238.008 283.097 237.891 282.751 237.656 282.484C237.421 282.217 237.128 282.015 236.776 281.876C236.424 281.737 235.949 281.588 235.352 281.428C234.616 281.236 234.024 281.044 233.576 280.852C233.139 280.66 232.76 280.361 232.44 279.956C232.131 279.54 231.976 278.985 231.976 278.292C231.976 277.684 232.131 277.145 232.44 276.676C232.749 276.207 233.181 275.844 233.736 275.588C234.301 275.332 234.947 275.204 235.672 275.204C236.717 275.204 237.571 275.465 238.232 275.988C238.904 276.511 239.283 277.204 239.368 278.068H237.768C237.715 277.641 237.491 277.268 237.096 276.948C236.701 276.617 236.179 276.452 235.528 276.452C234.92 276.452 234.424 276.612 234.04 276.932C233.656 277.241 233.464 277.679 233.464 278.244C233.464 278.649 233.576 278.98 233.8 279.236C234.035 279.492 234.317 279.689 234.648 279.828C234.989 279.956 235.464 280.105 236.072 280.276C236.808 280.479 237.4 280.681 237.848 280.884C238.296 281.076 238.68 281.38 239 281.796C239.32 282.201 239.48 282.756 239.48 283.46C239.48 284.004 239.336 284.516 239.048 284.996C238.76 285.476 238.333 285.865 237.768 286.164C237.203 286.463 236.536 286.612 235.768 286.612ZM250.123 281.78C250.123 282.057 250.107 282.351 250.075 282.66H243.067C243.12 283.524 243.413 284.201 243.947 284.692C244.491 285.172 245.147 285.412 245.915 285.412C246.544 285.412 247.067 285.268 247.483 284.98C247.909 284.681 248.208 284.287 248.379 283.796H249.947C249.712 284.639 249.243 285.327 248.539 285.86C247.835 286.383 246.96 286.644 245.915 286.644C245.083 286.644 244.336 286.457 243.675 286.084C243.024 285.711 242.512 285.183 242.139 284.5C241.765 283.807 241.579 283.007 241.579 282.1C241.579 281.193 241.76 280.399 242.123 279.716C242.485 279.033 242.992 278.511 243.643 278.148C244.304 277.775 245.061 277.588 245.915 277.588C246.747 277.588 247.483 277.769 248.123 278.132C248.763 278.495 249.253 278.996 249.595 279.636C249.947 280.265 250.123 280.98 250.123 281.78ZM248.619 281.476C248.619 280.921 248.496 280.447 248.251 280.052C248.005 279.647 247.669 279.343 247.243 279.14C246.827 278.927 246.363 278.82 245.851 278.82C245.115 278.82 244.485 279.055 243.963 279.524C243.451 279.993 243.157 280.644 243.083 281.476H248.619ZM254.001 274.66V286.5H252.545V274.66H254.001ZM260.55 278.932H258.71V286.5H257.254V278.932H256.118V277.732H257.254V277.108C257.254 276.127 257.505 275.412 258.006 274.964C258.518 274.505 259.334 274.276 260.454 274.276V275.492C259.814 275.492 259.361 275.62 259.094 275.876C258.838 276.121 258.71 276.532 258.71 277.108V277.732H260.55V278.932ZM268.828 280.02V281.252H262.444V280.02H268.828ZM273.516 285.316H277.42V286.5H272.06V275.348H273.516V285.316ZM287.466 281.78C287.466 282.057 287.45 282.351 287.418 282.66H280.41C280.464 283.524 280.757 284.201 281.29 284.692C281.834 285.172 282.49 285.412 283.258 285.412C283.888 285.412 284.41 285.268 284.826 284.98C285.253 284.681 285.552 284.287 285.722 283.796H287.29C287.056 284.639 286.586 285.327 285.882 285.86C285.178 286.383 284.304 286.644 283.258 286.644C282.426 286.644 281.68 286.457 281.018 286.084C280.368 285.711 279.856 285.183 279.482 284.5C279.109 283.807 278.922 283.007 278.922 282.1C278.922 281.193 279.104 280.399 279.466 279.716C279.829 279.033 280.336 278.511 280.986 278.148C281.648 277.775 282.405 277.588 283.258 277.588C284.09 277.588 284.826 277.769 285.466 278.132C286.106 278.495 286.597 278.996 286.938 279.636C287.29 280.265 287.466 280.98 287.466 281.78ZM285.962 281.476C285.962 280.921 285.84 280.447 285.594 280.052C285.349 279.647 285.013 279.343 284.586 279.14C284.17 278.927 283.706 278.82 283.194 278.82C282.458 278.82 281.829 279.055 281.306 279.524C280.794 279.993 280.501 280.644 280.426 281.476H285.962ZM289.344 282.084C289.344 281.188 289.526 280.404 289.888 279.732C290.251 279.049 290.747 278.521 291.376 278.148C292.016 277.775 292.726 277.588 293.504 277.588C294.272 277.588 294.939 277.753 295.504 278.084C296.07 278.415 296.491 278.831 296.768 279.332V277.732H298.24V286.5H296.768V284.868C296.48 285.38 296.048 285.807 295.472 286.148C294.907 286.479 294.246 286.644 293.488 286.644C292.71 286.644 292.006 286.452 291.376 286.068C290.747 285.684 290.251 285.145 289.888 284.452C289.526 283.759 289.344 282.969 289.344 282.084ZM296.768 282.1C296.768 281.439 296.635 280.863 296.368 280.372C296.102 279.881 295.739 279.508 295.28 279.252C294.832 278.985 294.336 278.852 293.792 278.852C293.248 278.852 292.752 278.98 292.304 279.236C291.856 279.492 291.499 279.865 291.232 280.356C290.966 280.847 290.832 281.423 290.832 282.084C290.832 282.756 290.966 283.343 291.232 283.844C291.499 284.335 291.856 284.713 292.304 284.98C292.752 285.236 293.248 285.364 293.792 285.364C294.336 285.364 294.832 285.236 295.28 284.98C295.739 284.713 296.102 284.335 296.368 283.844C296.635 283.343 296.768 282.761 296.768 282.1ZM302.657 279.156C302.913 278.655 303.275 278.265 303.745 277.988C304.225 277.711 304.806 277.572 305.489 277.572V279.076H305.105C303.473 279.076 302.657 279.961 302.657 281.732V286.5H301.201V277.732H302.657V279.156ZM311.942 277.572C313.008 277.572 313.872 277.897 314.534 278.548C315.195 279.188 315.526 280.116 315.526 281.332V286.5H314.086V281.54C314.086 280.665 313.867 279.999 313.43 279.54C312.992 279.071 312.395 278.836 311.638 278.836C310.87 278.836 310.256 279.076 309.798 279.556C309.35 280.036 309.126 280.735 309.126 281.652V286.5H307.67V277.732H309.126V278.98C309.414 278.532 309.803 278.185 310.294 277.94C310.795 277.695 311.344 277.572 311.942 277.572ZM319.156 276.308C318.879 276.308 318.644 276.212 318.452 276.02C318.26 275.828 318.164 275.593 318.164 275.316C318.164 275.039 318.26 274.804 318.452 274.612C318.644 274.42 318.879 274.324 319.156 274.324C319.423 274.324 319.647 274.42 319.828 274.612C320.02 274.804 320.116 275.039 320.116 275.316C320.116 275.593 320.02 275.828 319.828 276.02C319.647 276.212 319.423 276.308 319.156 276.308ZM319.86 277.732V286.5H318.404V277.732H319.86ZM327.113 277.572C328.18 277.572 329.044 277.897 329.705 278.548C330.367 279.188 330.697 280.116 330.697 281.332V286.5H329.257V281.54C329.257 280.665 329.039 279.999 328.601 279.54C328.164 279.071 327.567 278.836 326.809 278.836C326.041 278.836 325.428 279.076 324.969 279.556C324.521 280.036 324.297 280.735 324.297 281.652V286.5H322.841V277.732H324.297V278.98C324.585 278.532 324.975 278.185 325.465 277.94C325.967 277.695 326.516 277.572 327.113 277.572ZM337.192 277.588C337.949 277.588 338.61 277.753 339.176 278.084C339.752 278.415 340.178 278.831 340.456 279.332V277.732H341.928V286.692C341.928 287.492 341.757 288.201 341.416 288.82C341.074 289.449 340.584 289.94 339.944 290.292C339.314 290.644 338.578 290.82 337.736 290.82C336.584 290.82 335.624 290.548 334.856 290.004C334.088 289.46 333.634 288.719 333.496 287.78H334.936C335.096 288.313 335.426 288.74 335.928 289.06C336.429 289.391 337.032 289.556 337.736 289.556C338.536 289.556 339.186 289.305 339.688 288.804C340.2 288.303 340.456 287.599 340.456 286.692V284.852C340.168 285.364 339.741 285.791 339.176 286.132C338.61 286.473 337.949 286.644 337.192 286.644C336.413 286.644 335.704 286.452 335.064 286.068C334.434 285.684 333.938 285.145 333.576 284.452C333.213 283.759 333.032 282.969 333.032 282.084C333.032 281.188 333.213 280.404 333.576 279.732C333.938 279.049 334.434 278.521 335.064 278.148C335.704 277.775 336.413 277.588 337.192 277.588ZM340.456 282.1C340.456 281.439 340.322 280.863 340.056 280.372C339.789 279.881 339.426 279.508 338.968 279.252C338.52 278.985 338.024 278.852 337.48 278.852C336.936 278.852 336.44 278.98 335.992 279.236C335.544 279.492 335.186 279.865 334.92 280.356C334.653 280.847 334.52 281.423 334.52 282.084C334.52 282.756 334.653 283.343 334.92 283.844C335.186 284.335 335.544 284.713 335.992 284.98C336.44 285.236 336.936 285.364 337.48 285.364C338.024 285.364 338.52 285.236 338.968 284.98C339.426 284.713 339.789 284.335 340.056 283.844C340.322 283.343 340.456 282.761 340.456 282.1ZM356.246 284.02H351.382L350.486 286.5H348.95L352.982 275.412H354.662L358.678 286.5H357.142L356.246 284.02ZM355.83 282.836L353.814 277.204L351.798 282.836H355.83ZM362.391 274.66V286.5H360.935V274.66H362.391ZM368.989 277.588C369.746 277.588 370.407 277.753 370.973 278.084C371.549 278.415 371.975 278.831 372.253 279.332V277.732H373.725V286.692C373.725 287.492 373.554 288.201 373.213 288.82C372.871 289.449 372.381 289.94 371.741 290.292C371.111 290.644 370.375 290.82 369.533 290.82C368.381 290.82 367.421 290.548 366.653 290.004C365.885 289.46 365.431 288.719 365.293 287.78H366.733C366.893 288.313 367.223 288.74 367.725 289.06C368.226 289.391 368.829 289.556 369.533 289.556C370.333 289.556 370.983 289.305 371.485 288.804C371.997 288.303 372.253 287.599 372.253 286.692V284.852C371.965 285.364 371.538 285.791 370.973 286.132C370.407 286.473 369.746 286.644 368.989 286.644C368.21 286.644 367.501 286.452 366.861 286.068C366.231 285.684 365.735 285.145 365.373 284.452C365.01 283.759 364.829 282.969 364.829 282.084C364.829 281.188 365.01 280.404 365.373 279.732C365.735 279.049 366.231 278.521 366.861 278.148C367.501 277.775 368.21 277.588 368.989 277.588ZM372.253 282.1C372.253 281.439 372.119 280.863 371.853 280.372C371.586 279.881 371.223 279.508 370.765 279.252C370.317 278.985 369.821 278.852 369.277 278.852C368.733 278.852 368.237 278.98 367.789 279.236C367.341 279.492 366.983 279.865 366.717 280.356C366.45 280.847 366.317 281.423 366.317 282.084C366.317 282.756 366.45 283.343 366.717 283.844C366.983 284.335 367.341 284.713 367.789 284.98C368.237 285.236 368.733 285.364 369.277 285.364C369.821 285.364 370.317 285.236 370.765 284.98C371.223 284.713 371.586 284.335 371.853 283.844C372.119 283.343 372.253 282.761 372.253 282.1ZM380.509 286.644C379.688 286.644 378.941 286.457 378.269 286.084C377.608 285.711 377.085 285.183 376.701 284.5C376.328 283.807 376.141 283.007 376.141 282.1C376.141 281.204 376.333 280.415 376.717 279.732C377.112 279.039 377.645 278.511 378.317 278.148C378.989 277.775 379.741 277.588 380.573 277.588C381.405 277.588 382.157 277.775 382.829 278.148C383.501 278.511 384.029 279.033 384.413 279.716C384.808 280.399 385.005 281.193 385.005 282.1C385.005 283.007 384.802 283.807 384.397 284.5C384.002 285.183 383.464 285.711 382.781 286.084C382.098 286.457 381.341 286.644 380.509 286.644ZM380.509 285.364C381.032 285.364 381.522 285.241 381.981 284.996C382.44 284.751 382.808 284.383 383.085 283.892C383.373 283.401 383.517 282.804 383.517 282.1C383.517 281.396 383.378 280.799 383.101 280.308C382.824 279.817 382.461 279.455 382.013 279.22C381.565 278.975 381.08 278.852 380.557 278.852C380.024 278.852 379.533 278.975 379.085 279.22C378.648 279.455 378.296 279.817 378.029 280.308C377.762 280.799 377.629 281.396 377.629 282.1C377.629 282.815 377.757 283.417 378.013 283.908C378.28 284.399 378.632 284.767 379.069 285.012C379.506 285.247 379.986 285.364 380.509 285.364ZM388.876 279.156C389.132 278.655 389.494 278.265 389.964 277.988C390.444 277.711 391.025 277.572 391.708 277.572V279.076H391.324C389.692 279.076 388.876 279.961 388.876 281.732V286.5H387.42V277.732H388.876V279.156ZM394.64 276.308C394.363 276.308 394.128 276.212 393.936 276.02C393.744 275.828 393.648 275.593 393.648 275.316C393.648 275.039 393.744 274.804 393.936 274.612C394.128 274.42 394.363 274.324 394.64 274.324C394.907 274.324 395.131 274.42 395.312 274.612C395.504 274.804 395.6 275.039 395.6 275.316C395.6 275.593 395.504 275.828 395.312 276.02C395.131 276.212 394.907 276.308 394.64 276.308ZM395.344 277.732V286.5H393.888V277.732H395.344ZM400.102 278.932V284.1C400.102 284.527 400.192 284.831 400.374 285.012C400.555 285.183 400.87 285.268 401.318 285.268H402.39V286.5H401.078C400.267 286.5 399.659 286.313 399.254 285.94C398.848 285.567 398.646 284.953 398.646 284.1V278.932H397.51V277.732H398.646V275.524H400.102V277.732H402.39V278.932H400.102ZM409.006 277.572C409.667 277.572 410.265 277.716 410.798 278.004C411.331 278.281 411.747 278.703 412.046 279.268C412.355 279.833 412.51 280.521 412.51 281.332V286.5H411.07V281.54C411.07 280.665 410.851 279.999 410.414 279.54C409.977 279.071 409.379 278.836 408.622 278.836C407.854 278.836 407.241 279.076 406.782 279.556C406.334 280.036 406.11 280.735 406.11 281.652V286.5H404.654V274.66H406.11V278.98C406.398 278.532 406.793 278.185 407.294 277.94C407.806 277.695 408.377 277.572 409.006 277.572ZM425.932 277.572C426.615 277.572 427.223 277.716 427.756 278.004C428.29 278.281 428.711 278.703 429.02 279.268C429.33 279.833 429.484 280.521 429.484 281.332V286.5H428.044V281.54C428.044 280.665 427.826 279.999 427.388 279.54C426.962 279.071 426.38 278.836 425.644 278.836C424.887 278.836 424.284 279.081 423.836 279.572C423.388 280.052 423.164 280.751 423.164 281.668V286.5H421.724V281.54C421.724 280.665 421.506 279.999 421.068 279.54C420.642 279.071 420.06 278.836 419.324 278.836C418.567 278.836 417.964 279.081 417.516 279.572C417.068 280.052 416.844 280.751 416.844 281.668V286.5H415.388V277.732H416.844V278.996C417.132 278.537 417.516 278.185 417.996 277.94C418.487 277.695 419.026 277.572 419.612 277.572C420.348 277.572 420.999 277.737 421.564 278.068C422.13 278.399 422.551 278.884 422.828 279.524C423.074 278.905 423.479 278.425 424.044 278.084C424.61 277.743 425.239 277.572 425.932 277.572ZM435.477 286.644C434.805 286.644 434.202 286.532 433.669 286.308C433.135 286.073 432.714 285.753 432.405 285.348C432.095 284.932 431.925 284.457 431.893 283.924H433.397C433.439 284.361 433.642 284.719 434.005 284.996C434.378 285.273 434.863 285.412 435.461 285.412C436.015 285.412 436.453 285.289 436.773 285.044C437.093 284.799 437.253 284.489 437.253 284.116C437.253 283.732 437.082 283.449 436.741 283.268C436.399 283.076 435.871 282.889 435.157 282.708C434.506 282.537 433.973 282.367 433.557 282.196C433.151 282.015 432.799 281.753 432.501 281.412C432.213 281.06 432.069 280.601 432.069 280.036C432.069 279.588 432.202 279.177 432.469 278.804C432.735 278.431 433.114 278.137 433.605 277.924C434.095 277.7 434.655 277.588 435.285 277.588C436.255 277.588 437.039 277.833 437.637 278.324C438.234 278.815 438.554 279.487 438.597 280.34H437.141C437.109 279.881 436.922 279.513 436.581 279.236C436.25 278.959 435.802 278.82 435.237 278.82C434.714 278.82 434.298 278.932 433.989 279.156C433.679 279.38 433.525 279.673 433.525 280.036C433.525 280.324 433.615 280.564 433.797 280.756C433.989 280.937 434.223 281.087 434.501 281.204C434.789 281.311 435.183 281.433 435.685 281.572C436.314 281.743 436.826 281.913 437.221 282.084C437.615 282.244 437.951 282.489 438.229 282.82C438.517 283.151 438.666 283.583 438.677 284.116C438.677 284.596 438.543 285.028 438.277 285.412C438.01 285.796 437.631 286.1 437.141 286.324C436.661 286.537 436.106 286.644 435.477 286.644Z" fill="white"/>
<path d="M158.5 281H201" stroke="url(#paint23_linear_1240_1369)" stroke-miterlimit="10"/>
<path d="M156 274.5C152.933 274.5 150.5 276.933 150.5 280C150.5 283.067 152.933 285.5 156 285.5C159.067 285.5 161.5 283.067 161.5 280C161.5 276.933 159.067 274.5 156 274.5Z" fill="url(#paint24_linear_1240_1369)" stroke="url(#paint25_linear_1240_1369)"/>
<path d="M219.5 280C219.5 289.665 211.665 297.5 202 297.5C192.335 297.5 184.5 289.665 184.5 280C184.5 270.335 192.335 262.5 202 262.5C211.665 262.5 219.5 270.335 219.5 280Z" fill="url(#paint26_linear_1240_1369)" stroke="url(#paint27_linear_1240_1369)"/>
<rect x="191.5" y="337.5" width="249" height="47" rx="23.5" fill="url(#paint28_linear_1240_1369)"/>
<rect x="191.5" y="337.5" width="249" height="47" rx="23.5" stroke="url(#paint29_linear_1240_1369)"/>
<path d="M221.816 361.756C222.221 361.82 222.589 361.985 222.92 362.252C223.261 362.519 223.528 362.849 223.72 363.244C223.923 363.639 224.024 364.06 224.024 364.508C224.024 365.073 223.88 365.585 223.592 366.044C223.304 366.492 222.883 366.849 222.328 367.116C221.784 367.372 221.139 367.5 220.392 367.5H216.232V356.348H220.232C220.989 356.348 221.635 356.476 222.168 356.732C222.701 356.977 223.101 357.313 223.368 357.74C223.635 358.167 223.768 358.647 223.768 359.18C223.768 359.841 223.587 360.391 223.224 360.828C222.872 361.255 222.403 361.564 221.816 361.756ZM217.688 361.164H220.136C220.819 361.164 221.347 361.004 221.72 360.684C222.093 360.364 222.28 359.921 222.28 359.356C222.28 358.791 222.093 358.348 221.72 358.028C221.347 357.708 220.808 357.548 220.104 357.548H217.688V361.164ZM220.264 366.3C220.989 366.3 221.555 366.129 221.96 365.788C222.365 365.447 222.568 364.972 222.568 364.364C222.568 363.745 222.355 363.26 221.928 362.908C221.501 362.545 220.931 362.364 220.216 362.364H217.688V366.3H220.264ZM234.545 362.78C234.545 363.057 234.529 363.351 234.497 363.66H227.489C227.542 364.524 227.835 365.201 228.369 365.692C228.913 366.172 229.569 366.412 230.337 366.412C230.966 366.412 231.489 366.268 231.905 365.98C232.331 365.681 232.63 365.287 232.801 364.796H234.369C234.134 365.639 233.665 366.327 232.961 366.86C232.257 367.383 231.382 367.644 230.337 367.644C229.505 367.644 228.758 367.457 228.097 367.084C227.446 366.711 226.934 366.183 226.561 365.5C226.187 364.807 226.001 364.007 226.001 363.1C226.001 362.193 226.182 361.399 226.545 360.716C226.907 360.033 227.414 359.511 228.065 359.148C228.726 358.775 229.483 358.588 230.337 358.588C231.169 358.588 231.905 358.769 232.545 359.132C233.185 359.495 233.675 359.996 234.017 360.636C234.369 361.265 234.545 361.98 234.545 362.78ZM233.041 362.476C233.041 361.921 232.918 361.447 232.673 361.052C232.427 360.647 232.091 360.343 231.665 360.14C231.249 359.927 230.785 359.82 230.273 359.82C229.537 359.82 228.907 360.055 228.385 360.524C227.873 360.993 227.579 361.644 227.505 362.476H233.041ZM241.318 358.572C241.98 358.572 242.577 358.716 243.11 359.004C243.644 359.281 244.06 359.703 244.358 360.268C244.668 360.833 244.822 361.521 244.822 362.332V367.5H243.382V362.54C243.382 361.665 243.164 360.999 242.726 360.54C242.289 360.071 241.692 359.836 240.934 359.836C240.166 359.836 239.553 360.076 239.094 360.556C238.646 361.036 238.422 361.735 238.422 362.652V367.5H236.966V355.66H238.422V359.98C238.71 359.532 239.105 359.185 239.606 358.94C240.118 358.695 240.689 358.572 241.318 358.572ZM247.157 363.084C247.157 362.188 247.338 361.404 247.701 360.732C248.063 360.049 248.559 359.521 249.189 359.148C249.829 358.775 250.538 358.588 251.317 358.588C252.085 358.588 252.751 358.753 253.317 359.084C253.882 359.415 254.303 359.831 254.581 360.332V358.732H256.053V367.5H254.581V365.868C254.293 366.38 253.861 366.807 253.285 367.148C252.719 367.479 252.058 367.644 251.301 367.644C250.522 367.644 249.818 367.452 249.189 367.068C248.559 366.684 248.063 366.145 247.701 365.452C247.338 364.759 247.157 363.969 247.157 363.084ZM254.581 363.1C254.581 362.439 254.447 361.863 254.181 361.372C253.914 360.881 253.551 360.508 253.093 360.252C252.645 359.985 252.149 359.852 251.605 359.852C251.061 359.852 250.565 359.98 250.117 360.236C249.669 360.492 249.311 360.865 249.045 361.356C248.778 361.847 248.645 362.423 248.645 363.084C248.645 363.756 248.778 364.343 249.045 364.844C249.311 365.335 249.669 365.713 250.117 365.98C250.565 366.236 251.061 366.364 251.605 366.364C252.149 366.364 252.645 366.236 253.093 365.98C253.551 365.713 253.914 365.335 254.181 364.844C254.447 364.343 254.581 363.761 254.581 363.1ZM262.277 366.156L264.997 358.732H266.549L263.109 367.5H261.413L257.973 358.732H259.541L262.277 366.156ZM269.234 357.308C268.957 357.308 268.722 357.212 268.53 357.02C268.338 356.828 268.242 356.593 268.242 356.316C268.242 356.039 268.338 355.804 268.53 355.612C268.722 355.42 268.957 355.324 269.234 355.324C269.501 355.324 269.725 355.42 269.906 355.612C270.098 355.804 270.194 356.039 270.194 356.316C270.194 356.593 270.098 356.828 269.906 357.02C269.725 357.212 269.501 357.308 269.234 357.308ZM269.938 358.732V367.5H268.482V358.732H269.938ZM276.744 367.644C275.922 367.644 275.176 367.457 274.504 367.084C273.842 366.711 273.32 366.183 272.936 365.5C272.562 364.807 272.376 364.007 272.376 363.1C272.376 362.204 272.568 361.415 272.952 360.732C273.346 360.039 273.88 359.511 274.552 359.148C275.224 358.775 275.976 358.588 276.808 358.588C277.64 358.588 278.392 358.775 279.064 359.148C279.736 359.511 280.264 360.033 280.648 360.716C281.042 361.399 281.24 362.193 281.24 363.1C281.24 364.007 281.037 364.807 280.632 365.5C280.237 366.183 279.698 366.711 279.016 367.084C278.333 367.457 277.576 367.644 276.744 367.644ZM276.744 366.364C277.266 366.364 277.757 366.241 278.216 365.996C278.674 365.751 279.042 365.383 279.32 364.892C279.608 364.401 279.752 363.804 279.752 363.1C279.752 362.396 279.613 361.799 279.336 361.308C279.058 360.817 278.696 360.455 278.248 360.22C277.8 359.975 277.314 359.852 276.792 359.852C276.258 359.852 275.768 359.975 275.32 360.22C274.882 360.455 274.53 360.817 274.264 361.308C273.997 361.799 273.864 362.396 273.864 363.1C273.864 363.815 273.992 364.417 274.248 364.908C274.514 365.399 274.866 365.767 275.304 366.012C275.741 366.247 276.221 366.364 276.744 366.364ZM285.11 360.156C285.366 359.655 285.729 359.265 286.198 358.988C286.678 358.711 287.259 358.572 287.942 358.572V360.076H287.558C285.926 360.076 285.11 360.961 285.11 362.732V367.5H283.654V358.732H285.11V360.156ZM289.579 363.084C289.579 362.188 289.76 361.404 290.123 360.732C290.485 360.049 290.981 359.521 291.611 359.148C292.251 358.775 292.96 358.588 293.739 358.588C294.507 358.588 295.173 358.753 295.739 359.084C296.304 359.415 296.725 359.831 297.003 360.332V358.732H298.475V367.5H297.003V365.868C296.715 366.38 296.283 366.807 295.707 367.148C295.141 367.479 294.48 367.644 293.723 367.644C292.944 367.644 292.24 367.452 291.611 367.068C290.981 366.684 290.485 366.145 290.123 365.452C289.76 364.759 289.579 363.969 289.579 363.084ZM297.003 363.1C297.003 362.439 296.869 361.863 296.603 361.372C296.336 360.881 295.973 360.508 295.515 360.252C295.067 359.985 294.571 359.852 294.027 359.852C293.483 359.852 292.987 359.98 292.539 360.236C292.091 360.492 291.733 360.865 291.467 361.356C291.2 361.847 291.067 362.423 291.067 363.084C291.067 363.756 291.2 364.343 291.467 364.844C291.733 365.335 292.091 365.713 292.539 365.98C292.987 366.236 293.483 366.364 294.027 366.364C294.571 366.364 295.067 366.236 295.515 365.98C295.973 365.713 296.336 365.335 296.603 364.844C296.869 364.343 297.003 363.761 297.003 363.1ZM302.891 355.66V367.5H301.435V355.66H302.891ZM316.942 356.348V357.532H312.094V361.292H316.03V362.476H312.094V367.5H310.638V356.348H316.942ZM320.657 360.156C320.913 359.655 321.275 359.265 321.745 358.988C322.225 358.711 322.806 358.572 323.489 358.572V360.076H323.105C321.473 360.076 320.657 360.961 320.657 362.732V367.5H319.201V358.732H320.657V360.156ZM325.126 363.084C325.126 362.188 325.307 361.404 325.67 360.732C326.032 360.049 326.528 359.521 327.158 359.148C327.798 358.775 328.507 358.588 329.286 358.588C330.054 358.588 330.72 358.753 331.286 359.084C331.851 359.415 332.272 359.831 332.55 360.332V358.732H334.022V367.5H332.55V365.868C332.262 366.38 331.83 366.807 331.254 367.148C330.688 367.479 330.027 367.644 329.27 367.644C328.491 367.644 327.787 367.452 327.158 367.068C326.528 366.684 326.032 366.145 325.67 365.452C325.307 364.759 325.126 363.969 325.126 363.084ZM332.55 363.1C332.55 362.439 332.416 361.863 332.15 361.372C331.883 360.881 331.52 360.508 331.062 360.252C330.614 359.985 330.118 359.852 329.574 359.852C329.03 359.852 328.534 359.98 328.086 360.236C327.638 360.492 327.28 360.865 327.014 361.356C326.747 361.847 326.614 362.423 326.614 363.084C326.614 363.756 326.747 364.343 327.014 364.844C327.28 365.335 327.638 365.713 328.086 365.98C328.534 366.236 329.03 366.364 329.574 366.364C330.118 366.364 330.614 366.236 331.062 365.98C331.52 365.713 331.883 365.335 332.15 364.844C332.416 364.343 332.55 363.761 332.55 363.1ZM344.758 358.732V367.5H343.302V366.204C343.025 366.652 342.635 367.004 342.134 367.26C341.643 367.505 341.099 367.628 340.502 367.628C339.819 367.628 339.206 367.489 338.662 367.212C338.118 366.924 337.686 366.497 337.366 365.932C337.057 365.367 336.902 364.679 336.902 363.868V358.732H338.342V363.676C338.342 364.54 338.561 365.207 338.998 365.676C339.435 366.135 340.033 366.364 340.79 366.364C341.569 366.364 342.182 366.124 342.63 365.644C343.078 365.164 343.302 364.465 343.302 363.548V358.732H344.758ZM347.172 363.084C347.172 362.188 347.354 361.404 347.716 360.732C348.079 360.049 348.575 359.521 349.204 359.148C349.844 358.775 350.559 358.588 351.348 358.588C352.031 358.588 352.666 358.748 353.252 359.068C353.839 359.377 354.287 359.788 354.596 360.3V355.66H356.068V367.5H354.596V365.852C354.308 366.375 353.882 366.807 353.316 367.148C352.751 367.479 352.09 367.644 351.332 367.644C350.554 367.644 349.844 367.452 349.204 367.068C348.575 366.684 348.079 366.145 347.716 365.452C347.354 364.759 347.172 363.969 347.172 363.084ZM354.596 363.1C354.596 362.439 354.463 361.863 354.196 361.372C353.93 360.881 353.567 360.508 353.108 360.252C352.66 359.985 352.164 359.852 351.62 359.852C351.076 359.852 350.58 359.98 350.132 360.236C349.684 360.492 349.327 360.865 349.06 361.356C348.794 361.847 348.66 362.423 348.66 363.084C348.66 363.756 348.794 364.343 349.06 364.844C349.327 365.335 349.684 365.713 350.132 365.98C350.58 366.236 351.076 366.364 351.62 366.364C352.164 366.364 352.66 366.236 353.108 365.98C353.567 365.713 353.93 365.335 354.196 364.844C354.463 364.343 354.596 363.761 354.596 363.1ZM365.251 356.348V367.5H363.795V356.348H365.251ZM372.504 358.572C373.571 358.572 374.435 358.897 375.096 359.548C375.757 360.188 376.088 361.116 376.088 362.332V367.5H374.648V362.54C374.648 361.665 374.429 360.999 373.992 360.54C373.555 360.071 372.957 359.836 372.2 359.836C371.432 359.836 370.819 360.076 370.36 360.556C369.912 361.036 369.688 361.735 369.688 362.652V367.5H368.232V358.732H369.688V359.98C369.976 359.532 370.365 359.185 370.856 358.94C371.357 358.695 371.907 358.572 372.504 358.572ZM382.07 367.644C381.398 367.644 380.796 367.532 380.262 367.308C379.729 367.073 379.308 366.753 378.998 366.348C378.689 365.932 378.518 365.457 378.486 364.924H379.99C380.033 365.361 380.236 365.719 380.598 365.996C380.972 366.273 381.457 366.412 382.054 366.412C382.609 366.412 383.046 366.289 383.366 366.044C383.686 365.799 383.846 365.489 383.846 365.116C383.846 364.732 383.676 364.449 383.334 364.268C382.993 364.076 382.465 363.889 381.75 363.708C381.1 363.537 380.566 363.367 380.15 363.196C379.745 363.015 379.393 362.753 379.094 362.412C378.806 362.06 378.662 361.601 378.662 361.036C378.662 360.588 378.796 360.177 379.062 359.804C379.329 359.431 379.708 359.137 380.198 358.924C380.689 358.7 381.249 358.588 381.878 358.588C382.849 358.588 383.633 358.833 384.23 359.324C384.828 359.815 385.148 360.487 385.19 361.34H383.734C383.702 360.881 383.516 360.513 383.174 360.236C382.844 359.959 382.396 359.82 381.83 359.82C381.308 359.82 380.892 359.932 380.582 360.156C380.273 360.38 380.118 360.673 380.118 361.036C380.118 361.324 380.209 361.564 380.39 361.756C380.582 361.937 380.817 362.087 381.094 362.204C381.382 362.311 381.777 362.433 382.278 362.572C382.908 362.743 383.42 362.913 383.814 363.084C384.209 363.244 384.545 363.489 384.822 363.82C385.11 364.151 385.26 364.583 385.27 365.116C385.27 365.596 385.137 366.028 384.87 366.412C384.604 366.796 384.225 367.1 383.734 367.324C383.254 367.537 382.7 367.644 382.07 367.644ZM388.578 357.308C388.3 357.308 388.066 357.212 387.874 357.02C387.682 356.828 387.586 356.593 387.586 356.316C387.586 356.039 387.682 355.804 387.874 355.612C388.066 355.42 388.3 355.324 388.578 355.324C388.844 355.324 389.068 355.42 389.25 355.612C389.442 355.804 389.538 356.039 389.538 356.316C389.538 356.593 389.442 356.828 389.25 357.02C389.068 357.212 388.844 357.308 388.578 357.308ZM389.282 358.732V367.5H387.826V358.732H389.282ZM395.879 358.588C396.637 358.588 397.298 358.753 397.863 359.084C398.439 359.415 398.866 359.831 399.143 360.332V358.732H400.615V367.692C400.615 368.492 400.445 369.201 400.103 369.82C399.762 370.449 399.271 370.94 398.631 371.292C398.002 371.644 397.266 371.82 396.423 371.82C395.271 371.82 394.311 371.548 393.543 371.004C392.775 370.46 392.322 369.719 392.183 368.78H393.623C393.783 369.313 394.114 369.74 394.615 370.06C395.117 370.391 395.719 370.556 396.423 370.556C397.223 370.556 397.874 370.305 398.375 369.804C398.887 369.303 399.143 368.599 399.143 367.692V365.852C398.855 366.364 398.429 366.791 397.863 367.132C397.298 367.473 396.637 367.644 395.879 367.644C395.101 367.644 394.391 367.452 393.751 367.068C393.122 366.684 392.626 366.145 392.263 365.452C391.901 364.759 391.719 363.969 391.719 363.084C391.719 362.188 391.901 361.404 392.263 360.732C392.626 360.049 393.122 359.521 393.751 359.148C394.391 358.775 395.101 358.588 395.879 358.588ZM399.143 363.1C399.143 362.439 399.01 361.863 398.743 361.372C398.477 360.881 398.114 360.508 397.655 360.252C397.207 359.985 396.711 359.852 396.167 359.852C395.623 359.852 395.127 359.98 394.679 360.236C394.231 360.492 393.874 360.865 393.607 361.356C393.341 361.847 393.207 362.423 393.207 363.084C393.207 363.756 393.341 364.343 393.607 364.844C393.874 365.335 394.231 365.713 394.679 365.98C395.127 366.236 395.623 366.364 396.167 366.364C396.711 366.364 397.207 366.236 397.655 365.98C398.114 365.713 398.477 365.335 398.743 364.844C399.01 364.343 399.143 363.761 399.143 363.1ZM407.928 358.572C408.589 358.572 409.186 358.716 409.72 359.004C410.253 359.281 410.669 359.703 410.968 360.268C411.277 360.833 411.432 361.521 411.432 362.332V367.5H409.992V362.54C409.992 361.665 409.773 360.999 409.336 360.54C408.898 360.071 408.301 359.836 407.544 359.836C406.776 359.836 406.162 360.076 405.704 360.556C405.256 361.036 405.032 361.735 405.032 362.652V367.5H403.576V355.66H405.032V359.98C405.32 359.532 405.714 359.185 406.216 358.94C406.728 358.695 407.298 358.572 407.928 358.572ZM416.086 359.932V365.1C416.086 365.527 416.177 365.831 416.358 366.012C416.539 366.183 416.854 366.268 417.302 366.268H418.374V367.5H417.062C416.251 367.5 415.643 367.313 415.238 366.94C414.833 366.567 414.63 365.953 414.63 365.1V359.932H413.494V358.732H414.63V356.524H416.086V358.732H418.374V359.932H416.086ZM423.742 367.644C423.07 367.644 422.468 367.532 421.934 367.308C421.401 367.073 420.98 366.753 420.67 366.348C420.361 365.932 420.19 365.457 420.158 364.924H421.662C421.705 365.361 421.908 365.719 422.27 365.996C422.644 366.273 423.129 366.412 423.726 366.412C424.281 366.412 424.718 366.289 425.038 366.044C425.358 365.799 425.518 365.489 425.518 365.116C425.518 364.732 425.348 364.449 425.006 364.268C424.665 364.076 424.137 363.889 423.422 363.708C422.772 363.537 422.238 363.367 421.822 363.196C421.417 363.015 421.065 362.753 420.766 362.412C420.478 362.06 420.334 361.601 420.334 361.036C420.334 360.588 420.468 360.177 420.734 359.804C421.001 359.431 421.38 359.137 421.87 358.924C422.361 358.7 422.921 358.588 423.55 358.588C424.521 358.588 425.305 358.833 425.902 359.324C426.5 359.815 426.82 360.487 426.862 361.34H425.406C425.374 360.881 425.188 360.513 424.846 360.236C424.516 359.959 424.068 359.82 423.502 359.82C422.98 359.82 422.564 359.932 422.254 360.156C421.945 360.38 421.79 360.673 421.79 361.036C421.79 361.324 421.881 361.564 422.062 361.756C422.254 361.937 422.489 362.087 422.766 362.204C423.054 362.311 423.449 362.433 423.95 362.572C424.58 362.743 425.092 362.913 425.486 363.084C425.881 363.244 426.217 363.489 426.494 363.82C426.782 364.151 426.932 364.583 426.942 365.116C426.942 365.596 426.809 366.028 426.542 366.412C426.276 366.796 425.897 367.1 425.406 367.324C424.926 367.537 424.372 367.644 423.742 367.644Z" fill="white"/>
<path d="M142.918 344.169L190.001 362" stroke="url(#paint30_linear_1240_1369)" stroke-miterlimit="10"/>
<path d="M143 338.5C139.933 338.5 137.5 340.933 137.5 344C137.5 347.067 139.933 349.5 143 349.5C146.067 349.5 148.5 347.067 148.5 344C148.5 340.933 146.067 338.5 143 338.5Z" fill="url(#paint31_linear_1240_1369)" stroke="url(#paint32_linear_1240_1369)"/>
<path d="M203.5 361C203.5 370.665 195.665 378.5 186 378.5C176.335 378.5 168.5 370.665 168.5 361C168.5 351.335 176.335 343.5 186 343.5C195.665 343.5 203.5 351.335 203.5 361Z" fill="url(#paint33_linear_1240_1369)" stroke="url(#paint34_linear_1240_1369)"/>
<rect x="130.5" y="418.5" width="249" height="47" rx="23.5" fill="url(#paint35_linear_1240_1369)"/>
<rect x="130.5" y="418.5" width="249" height="47" rx="23.5" stroke="url(#paint36_linear_1240_1369)"/>
<path d="M161.824 446.02H156.96L156.064 448.5H154.528L158.56 437.412H160.24L164.256 448.5H162.72L161.824 446.02ZM161.408 444.836L159.392 439.204L157.376 444.836H161.408ZM167.969 437.348V448.5H166.513V437.348H167.969ZM182.308 446.02H177.444L176.548 448.5H175.012L179.044 437.412H180.724L184.74 448.5H183.204L182.308 446.02ZM181.892 444.836L179.876 439.204L177.86 444.836H181.892ZM191.27 439.572C192.336 439.572 193.2 439.897 193.862 440.548C194.523 441.188 194.854 442.116 194.854 443.332V448.5H193.414V443.54C193.414 442.665 193.195 441.999 192.758 441.54C192.32 441.071 191.723 440.836 190.966 440.836C190.198 440.836 189.584 441.076 189.126 441.556C188.678 442.036 188.454 442.735 188.454 443.652V448.5H186.998V439.732H188.454V440.98C188.742 440.532 189.131 440.185 189.622 439.94C190.123 439.695 190.672 439.572 191.27 439.572ZM201.556 448.644C200.735 448.644 199.988 448.457 199.316 448.084C198.655 447.711 198.132 447.183 197.748 446.5C197.375 445.807 197.188 445.007 197.188 444.1C197.188 443.204 197.38 442.415 197.764 441.732C198.159 441.039 198.692 440.511 199.364 440.148C200.036 439.775 200.788 439.588 201.62 439.588C202.452 439.588 203.204 439.775 203.876 440.148C204.548 440.511 205.076 441.033 205.46 441.716C205.855 442.399 206.052 443.193 206.052 444.1C206.052 445.007 205.849 445.807 205.444 446.5C205.049 447.183 204.511 447.711 203.828 448.084C203.145 448.457 202.388 448.644 201.556 448.644ZM201.556 447.364C202.079 447.364 202.569 447.241 203.028 446.996C203.487 446.751 203.855 446.383 204.132 445.892C204.42 445.401 204.564 444.804 204.564 444.1C204.564 443.396 204.425 442.799 204.148 442.308C203.871 441.817 203.508 441.455 203.06 441.22C202.612 440.975 202.127 440.852 201.604 440.852C201.071 440.852 200.58 440.975 200.132 441.22C199.695 441.455 199.343 441.817 199.076 442.308C198.809 442.799 198.676 443.396 198.676 444.1C198.676 444.815 198.804 445.417 199.06 445.908C199.327 446.399 199.679 446.767 200.116 447.012C200.553 447.247 201.033 447.364 201.556 447.364ZM219.01 439.572C219.693 439.572 220.301 439.716 220.834 440.004C221.368 440.281 221.789 440.703 222.098 441.268C222.408 441.833 222.562 442.521 222.562 443.332V448.5H221.122V443.54C221.122 442.665 220.904 441.999 220.466 441.54C220.04 441.071 219.458 440.836 218.722 440.836C217.965 440.836 217.362 441.081 216.914 441.572C216.466 442.052 216.242 442.751 216.242 443.668V448.5H214.802V443.54C214.802 442.665 214.584 441.999 214.146 441.54C213.72 441.071 213.138 440.836 212.402 440.836C211.645 440.836 211.042 441.081 210.594 441.572C210.146 442.052 209.922 442.751 209.922 443.668V448.5H208.466V439.732H209.922V440.996C210.21 440.537 210.594 440.185 211.074 439.94C211.565 439.695 212.104 439.572 212.69 439.572C213.426 439.572 214.077 439.737 214.642 440.068C215.208 440.399 215.629 440.884 215.906 441.524C216.152 440.905 216.557 440.425 217.122 440.084C217.688 439.743 218.317 439.572 219.01 439.572ZM224.907 444.084C224.907 443.188 225.088 442.404 225.451 441.732C225.813 441.049 226.309 440.521 226.939 440.148C227.579 439.775 228.288 439.588 229.067 439.588C229.835 439.588 230.501 439.753 231.067 440.084C231.632 440.415 232.053 440.831 232.331 441.332V439.732H233.803V448.5H232.331V446.868C232.043 447.38 231.611 447.807 231.035 448.148C230.469 448.479 229.808 448.644 229.051 448.644C228.272 448.644 227.568 448.452 226.939 448.068C226.309 447.684 225.813 447.145 225.451 446.452C225.088 445.759 224.907 444.969 224.907 444.084ZM232.331 444.1C232.331 443.439 232.197 442.863 231.931 442.372C231.664 441.881 231.301 441.508 230.843 441.252C230.395 440.985 229.899 440.852 229.355 440.852C228.811 440.852 228.315 440.98 227.867 441.236C227.419 441.492 227.061 441.865 226.795 442.356C226.528 442.847 226.395 443.423 226.395 444.084C226.395 444.756 226.528 445.343 226.795 445.844C227.061 446.335 227.419 446.713 227.867 446.98C228.315 447.236 228.811 447.364 229.355 447.364C229.899 447.364 230.395 447.236 230.843 446.98C231.301 446.713 231.664 446.335 231.931 445.844C232.197 445.343 232.331 444.761 232.331 444.1ZM238.219 436.66V448.5H236.763V436.66H238.219ZM248.753 439.732L243.473 452.628H241.969L243.697 448.404L240.161 439.732H241.777L244.529 446.836L247.249 439.732H248.753ZM258.954 437.348C260.17 437.348 261.221 437.577 262.106 438.036C263.002 438.484 263.685 439.129 264.154 439.972C264.634 440.815 264.874 441.807 264.874 442.948C264.874 444.089 264.634 445.081 264.154 445.924C263.685 446.756 263.002 447.396 262.106 447.844C261.221 448.281 260.17 448.5 258.954 448.5H255.482V437.348H258.954ZM258.954 447.3C260.394 447.3 261.493 446.921 262.25 446.164C263.007 445.396 263.386 444.324 263.386 442.948C263.386 441.561 263.002 440.479 262.234 439.7C261.477 438.921 260.383 438.532 258.954 438.532H256.938V447.3H258.954ZM275.295 443.78C275.295 444.057 275.279 444.351 275.247 444.66H268.239C268.292 445.524 268.585 446.201 269.119 446.692C269.663 447.172 270.319 447.412 271.087 447.412C271.716 447.412 272.239 447.268 272.655 446.98C273.081 446.681 273.38 446.287 273.551 445.796H275.119C274.884 446.639 274.415 447.327 273.711 447.86C273.007 448.383 272.132 448.644 271.087 448.644C270.255 448.644 269.508 448.457 268.847 448.084C268.196 447.711 267.684 447.183 267.311 446.5C266.937 445.807 266.751 445.007 266.751 444.1C266.751 443.193 266.932 442.399 267.295 441.716C267.657 441.033 268.164 440.511 268.815 440.148C269.476 439.775 270.233 439.588 271.087 439.588C271.919 439.588 272.655 439.769 273.295 440.132C273.935 440.495 274.425 440.996 274.767 441.636C275.119 442.265 275.295 442.98 275.295 443.78ZM273.791 443.476C273.791 442.921 273.668 442.447 273.423 442.052C273.177 441.647 272.841 441.343 272.415 441.14C271.999 440.927 271.535 440.82 271.023 440.82C270.287 440.82 269.657 441.055 269.135 441.524C268.623 441.993 268.329 442.644 268.255 443.476H273.791ZM279.492 440.932V446.1C279.492 446.527 279.583 446.831 279.764 447.012C279.946 447.183 280.26 447.268 280.708 447.268H281.78V448.5H280.468C279.658 448.5 279.05 448.313 278.644 447.94C278.239 447.567 278.036 446.953 278.036 446.1V440.932H276.9V439.732H278.036V437.524H279.492V439.732H281.78V440.932H279.492ZM292.045 443.78C292.045 444.057 292.029 444.351 291.997 444.66H284.989C285.042 445.524 285.335 446.201 285.869 446.692C286.413 447.172 287.069 447.412 287.837 447.412C288.466 447.412 288.989 447.268 289.405 446.98C289.831 446.681 290.13 446.287 290.301 445.796H291.869C291.634 446.639 291.165 447.327 290.461 447.86C289.757 448.383 288.882 448.644 287.837 448.644C287.005 448.644 286.258 448.457 285.597 448.084C284.946 447.711 284.434 447.183 284.061 446.5C283.687 445.807 283.501 445.007 283.501 444.1C283.501 443.193 283.682 442.399 284.045 441.716C284.407 441.033 284.914 440.511 285.565 440.148C286.226 439.775 286.983 439.588 287.837 439.588C288.669 439.588 289.405 439.769 290.045 440.132C290.685 440.495 291.175 440.996 291.517 441.636C291.869 442.265 292.045 442.98 292.045 443.78ZM290.541 443.476C290.541 442.921 290.418 442.447 290.173 442.052C289.927 441.647 289.591 441.343 289.165 441.14C288.749 440.927 288.285 440.82 287.773 440.82C287.037 440.82 286.407 441.055 285.885 441.524C285.373 441.993 285.079 442.644 285.005 443.476H290.541ZM293.922 444.1C293.922 443.193 294.104 442.404 294.466 441.732C294.829 441.049 295.33 440.521 295.97 440.148C296.621 439.775 297.362 439.588 298.194 439.588C299.272 439.588 300.157 439.849 300.85 440.372C301.554 440.895 302.018 441.62 302.242 442.548H300.674C300.525 442.015 300.232 441.593 299.794 441.284C299.368 440.975 298.834 440.82 298.194 440.82C297.362 440.82 296.69 441.108 296.178 441.684C295.666 442.249 295.41 443.055 295.41 444.1C295.41 445.156 295.666 445.972 296.178 446.548C296.69 447.124 297.362 447.412 298.194 447.412C298.834 447.412 299.368 447.263 299.794 446.964C300.221 446.665 300.514 446.239 300.674 445.684H302.242C302.008 446.58 301.538 447.3 300.834 447.844C300.13 448.377 299.25 448.644 298.194 448.644C297.362 448.644 296.621 448.457 295.97 448.084C295.33 447.711 294.829 447.183 294.466 446.5C294.104 445.817 293.922 445.017 293.922 444.1ZM306.461 440.932V446.1C306.461 446.527 306.552 446.831 306.733 447.012C306.914 447.183 307.229 447.268 307.677 447.268H308.749V448.5H307.437C306.626 448.5 306.018 448.313 305.613 447.94C305.208 447.567 305.005 446.953 305.005 446.1V440.932H303.869V439.732H305.005V437.524H306.461V439.732H308.749V440.932H306.461ZM311.765 438.308C311.488 438.308 311.253 438.212 311.061 438.02C310.869 437.828 310.773 437.593 310.773 437.316C310.773 437.039 310.869 436.804 311.061 436.612C311.253 436.42 311.488 436.324 311.765 436.324C312.032 436.324 312.256 436.42 312.437 436.612C312.629 436.804 312.725 437.039 312.725 437.316C312.725 437.593 312.629 437.828 312.437 438.02C312.256 438.212 312.032 438.308 311.765 438.308ZM312.469 439.732V448.5H311.013V439.732H312.469ZM319.275 448.644C318.453 448.644 317.707 448.457 317.035 448.084C316.373 447.711 315.851 447.183 315.467 446.5C315.093 445.807 314.907 445.007 314.907 444.1C314.907 443.204 315.099 442.415 315.483 441.732C315.877 441.039 316.411 440.511 317.083 440.148C317.755 439.775 318.507 439.588 319.339 439.588C320.171 439.588 320.923 439.775 321.595 440.148C322.267 440.511 322.795 441.033 323.179 441.716C323.573 442.399 323.771 443.193 323.771 444.1C323.771 445.007 323.568 445.807 323.163 446.5C322.768 447.183 322.229 447.711 321.547 448.084C320.864 448.457 320.107 448.644 319.275 448.644ZM319.275 447.364C319.797 447.364 320.288 447.241 320.747 446.996C321.205 446.751 321.573 446.383 321.851 445.892C322.139 445.401 322.283 444.804 322.283 444.1C322.283 443.396 322.144 442.799 321.867 442.308C321.589 441.817 321.227 441.455 320.779 441.22C320.331 440.975 319.845 440.852 319.323 440.852C318.789 440.852 318.299 440.975 317.851 441.22C317.413 441.455 317.061 441.817 316.795 442.308C316.528 442.799 316.395 443.396 316.395 444.1C316.395 444.815 316.523 445.417 316.779 445.908C317.045 446.399 317.397 446.767 317.835 447.012C318.272 447.247 318.752 447.364 319.275 447.364ZM330.457 439.572C331.524 439.572 332.388 439.897 333.049 440.548C333.71 441.188 334.041 442.116 334.041 443.332V448.5H332.601V443.54C332.601 442.665 332.382 441.999 331.945 441.54C331.508 441.071 330.91 440.836 330.153 440.836C329.385 440.836 328.772 441.076 328.313 441.556C327.865 442.036 327.641 442.735 327.641 443.652V448.5H326.185V439.732H327.641V440.98C327.929 440.532 328.318 440.185 328.809 439.94C329.31 439.695 329.86 439.572 330.457 439.572Z" fill="white"/>
<path d="M93.5 407L124 441.5" stroke="url(#paint37_linear_1240_1369)" stroke-miterlimit="10"/>
<path d="M93 400.5C89.9332 400.5 87.5 402.933 87.5 406C87.5 409.067 89.9332 411.5 93 411.5C96.0669 411.5 98.5 409.067 98.5 406C98.5 402.933 96.0669 400.5 93 400.5Z" fill="url(#paint38_linear_1240_1369)" stroke="url(#paint39_linear_1240_1369)"/>
<path d="M142.5 442C142.5 451.665 134.665 459.5 125 459.5C115.335 459.5 107.5 451.665 107.5 442C107.5 432.335 115.335 424.5 125 424.5C134.665 424.5 142.5 432.335 142.5 442Z" fill="url(#paint40_linear_1240_1369)" stroke="url(#paint41_linear_1240_1369)"/>
<path d="M127.82 112.46V124L125.54 123.98V115.2L121.4 116.92V114.32L125.54 112.46H127.82Z" fill="white"/>
<path d="M178.8 199.48L181.08 198.1H185.22V200.36H181.24V202.64H185.14V205H178.8V199.48ZM178.8 197.12V194.84L181.08 193.46H185.22V195.74H181.32V197.12H178.8ZM192.62 205H186.2V202.64H192.62V205ZM190.02 200.36H186.12V198.1H190.02V195.74H186.12V193.46H190.26L192.62 194.84V198.98L190.02 200.36Z" fill="white"/>
<path d="M206.22 286.02H202.08V283.66H205.98V281.38H202.08V279.12H205.98V276.76H202.08V274.48H206.22L208.5 275.86V279.28L206.62 280.24L208.5 281.14V284.64L206.22 286.02ZM197.2 282.28V283.66H201.1V286.02H196.96L194.6 284.64V282.28H197.2ZM194.68 278.14V275.86L196.96 274.48H201.1V276.76H197.2V278.14H194.68ZM201.1 281.38H198.58V279.12H201.1V281.38Z" fill="white"/>
<path d="M192.42 366.98H190.08V362.44H185.94V360.1H190.08V355.48H192.42V366.98ZM182.54 360.1H184.96V362.44H178.4L182.54 355.56H185.28L182.54 360.1Z" fill="white"/>
<path d="M117.8 436.46H124.26V438.74H120.34V441.04H124.26V443.4H117.8V436.46ZM120.34 444.3V445.7H124.26V447.98H120.08L117.8 446.6V444.3H120.34ZM131.7 438.74H125.24V436.46H131.7V438.74ZM131.7 442.42V446.6L129.42 447.98H125.24V445.7H129.16V443.4H125.24V441.04H129.16L131.7 442.42Z" fill="white"/>
<defs>
<linearGradient id="paint0_linear_1240_1369" x1="27.5" y1="-380.625" x2="714.464" y2="127.526" gradientUnits="userSpaceOnUse">
<stop offset="0.303689" stop-color="#004B4B" stop-opacity="0"/>
<stop offset="0.454116" stop-color="#004B4B" stop-opacity="0.4"/>
<stop offset="0.499089" stop-color="#004B4B"/>
<stop offset="0.64438" stop-color="#26DDFF"/>
<stop offset="0.953267" stop-color="#26DDFF" stop-opacity="0"/>
</linearGradient>
<linearGradient id="paint1_linear_1240_1369" x1="184" y1="260.5" x2="94.6909" y2="261.688" gradientUnits="userSpaceOnUse">
<stop stop-color="#12637E"/>
<stop offset="0.781" stop-color="#04182D" stop-opacity="0.4"/>
</linearGradient>
<linearGradient id="paint2_linear_1240_1369" x1="-19.2105" y1="-2571.26" x2="340.819" y2="-2549.75" gradientUnits="userSpaceOnUse">
<stop offset="0.303689" stop-color="#004B4B" stop-opacity="0"/>
<stop offset="0.422945" stop-color="#004B4B" stop-opacity="0.4"/>
<stop offset="0.499089" stop-color="#004B4B"/>
<stop offset="0.649516" stop-color="#26DDFF"/>
<stop offset="0.953267" stop-color="#26DDFF" stop-opacity="0"/>
</linearGradient>
<linearGradient id="paint3_linear_1240_1369" x1="117.949" y1="267.5" x2="60.6993" y2="268.262" gradientUnits="userSpaceOnUse">
<stop stop-color="#12637E"/>
<stop offset="0.781" stop-color="#04182D" stop-opacity="0.4"/>
</linearGradient>
<linearGradient id="paint4_linear_1240_1369" x1="-12.3144" y1="-1547.73" x2="218.474" y2="-1533.94" gradientUnits="userSpaceOnUse">
<stop offset="0.303689" stop-color="#004B4B" stop-opacity="0"/>
<stop offset="0.422945" stop-color="#004B4B" stop-opacity="0.4"/>
<stop offset="0.499089" stop-color="#004B4B"/>
<stop offset="0.649516" stop-color="#26DDFF"/>
<stop offset="0.953267" stop-color="#26DDFF" stop-opacity="0"/>
</linearGradient>
<linearGradient id="paint5_linear_1240_1369" x1="63.6923" y1="273.25" x2="32.7776" y2="273.661" gradientUnits="userSpaceOnUse">
<stop stop-color="#12637E"/>
<stop offset="0.781" stop-color="#04182D" stop-opacity="0.4"/>
</linearGradient>
<linearGradient id="paint6_linear_1240_1369" x1="-6.64978" y1="-706.974" x2="117.976" y2="-699.529" gradientUnits="userSpaceOnUse">
<stop offset="0.303689" stop-color="#004B4B" stop-opacity="0"/>
<stop offset="0.422945" stop-color="#004B4B" stop-opacity="0.4"/>
<stop offset="0.499089" stop-color="#004B4B"/>
<stop offset="0.649516" stop-color="#26DDFF"/>
<stop offset="0.953267" stop-color="#26DDFF" stop-opacity="0"/>
</linearGradient>
<linearGradient id="paint7_linear_1240_1369" x1="381.799" y1="74.4288" x2="370.759" y2="164.314" gradientUnits="userSpaceOnUse">
<stop stop-color="#12637E"/>
<stop offset="0.781" stop-color="#04182D"/>
</linearGradient>
<linearGradient id="paint8_linear_1240_1369" x1="471.146" y1="83.5" x2="459.776" y2="173.159" gradientUnits="userSpaceOnUse">
<stop offset="0.303689" stop-color="#004B4B" stop-opacity="0"/>
<stop offset="0.422945" stop-color="#004B4B" stop-opacity="0.4"/>
<stop offset="0.499089" stop-color="#004B4B"/>
<stop offset="0.649516" stop-color="#26DDFF"/>
<stop offset="0.953267" stop-color="#26DDFF" stop-opacity="0"/>
</linearGradient>
<linearGradient id="paint9_linear_1240_1369" x1="85.6649" y1="236.833" x2="171.167" y2="199.378" gradientUnits="userSpaceOnUse">
<stop offset="0.303689" stop-color="#004B4B" stop-opacity="0"/>
<stop offset="0.422945" stop-color="#004B4B" stop-opacity="0.4"/>
<stop offset="0.499089" stop-color="#004B4B"/>
<stop offset="0.649516" stop-color="#26DDFF"/>
<stop offset="0.953267" stop-color="#26DDFF" stop-opacity="0"/>
</linearGradient>
<linearGradient id="paint10_linear_1240_1369" x1="98.072" y1="145.548" x2="89.4432" y2="159.036" gradientUnits="userSpaceOnUse">
<stop stop-color="#12637E"/>
<stop offset="0.781" stop-color="#04182D"/>
</linearGradient>
<linearGradient id="paint11_linear_1240_1369" x1="86.0203" y1="132.056" x2="108.263" y2="146.671" gradientUnits="userSpaceOnUse">
<stop offset="0.303689" stop-color="#004B4B" stop-opacity="0"/>
<stop offset="0.422945" stop-color="#004B4B" stop-opacity="0.4"/>
<stop offset="0.499089" stop-color="#004B4B"/>
<stop offset="0.649516" stop-color="#26DDFF"/>
<stop offset="0.953267" stop-color="#26DDFF" stop-opacity="0"/>
</linearGradient>
<linearGradient id="paint12_linear_1240_1369" x1="143.259" y1="87.5716" x2="112.196" y2="136.131" gradientUnits="userSpaceOnUse">
<stop stop-color="#12637E"/>
<stop offset="0.781" stop-color="#04182D"/>
</linearGradient>
<linearGradient id="paint13_linear_1240_1369" x1="156.125" y1="94.375" x2="124.705" y2="141.949" gradientUnits="userSpaceOnUse">
<stop offset="0.303689" stop-color="#004B4B" stop-opacity="0"/>
<stop offset="0.422945" stop-color="#004B4B" stop-opacity="0.4"/>
<stop offset="0.499089" stop-color="#004B4B"/>
<stop offset="0.649516" stop-color="#26DDFF"/>
<stop offset="0.953267" stop-color="#26DDFF" stop-opacity="0"/>
</linearGradient>
<linearGradient id="paint14_linear_1240_1369" x1="442.799" y1="158.429" x2="431.759" y2="248.314" gradientUnits="userSpaceOnUse">
<stop stop-color="#12637E"/>
<stop offset="0.781" stop-color="#04182D"/>
</linearGradient>
<linearGradient id="paint15_linear_1240_1369" x1="532.146" y1="167.5" x2="520.776" y2="257.159" gradientUnits="userSpaceOnUse">
<stop offset="0.303689" stop-color="#004B4B" stop-opacity="0"/>
<stop offset="0.422945" stop-color="#004B4B" stop-opacity="0.4"/>
<stop offset="0.499089" stop-color="#004B4B"/>
<stop offset="0.649516" stop-color="#26DDFF"/>
<stop offset="0.953267" stop-color="#26DDFF" stop-opacity="0"/>
</linearGradient>
<linearGradient id="paint16_linear_1240_1369" x1="135.082" y1="95.8363" x2="220.584" y2="133.291" gradientUnits="userSpaceOnUse">
<stop offset="0.303689" stop-color="#004B4B" stop-opacity="0"/>
<stop offset="0.422945" stop-color="#004B4B" stop-opacity="0.4"/>
<stop offset="0.499089" stop-color="#004B4B"/>
<stop offset="0.649516" stop-color="#26DDFF"/>
<stop offset="0.953267" stop-color="#26DDFF" stop-opacity="0"/>
</linearGradient>
<linearGradient id="paint17_linear_1240_1369" x1="146.072" y1="202.548" x2="137.443" y2="216.036" gradientUnits="userSpaceOnUse">
<stop stop-color="#12637E"/>
<stop offset="0.781" stop-color="#04182D"/>
</linearGradient>
<linearGradient id="paint18_linear_1240_1369" x1="134.02" y1="189.056" x2="156.263" y2="203.671" gradientUnits="userSpaceOnUse">
<stop offset="0.303689" stop-color="#004B4B" stop-opacity="0"/>
<stop offset="0.422945" stop-color="#004B4B" stop-opacity="0.4"/>
<stop offset="0.499089" stop-color="#004B4B"/>
<stop offset="0.649516" stop-color="#26DDFF"/>
<stop offset="0.953267" stop-color="#26DDFF" stop-opacity="0"/>
</linearGradient>
<linearGradient id="paint19_linear_1240_1369" x1="204.259" y1="168.572" x2="173.196" y2="217.131" gradientUnits="userSpaceOnUse">
<stop stop-color="#12637E"/>
<stop offset="0.781" stop-color="#04182D"/>
</linearGradient>
<linearGradient id="paint20_linear_1240_1369" x1="217.125" y1="175.375" x2="185.705" y2="222.949" gradientUnits="userSpaceOnUse">
<stop offset="0.303689" stop-color="#004B4B" stop-opacity="0"/>
<stop offset="0.422945" stop-color="#004B4B" stop-opacity="0.4"/>
<stop offset="0.499089" stop-color="#004B4B"/>
<stop offset="0.649516" stop-color="#26DDFF"/>
<stop offset="0.953267" stop-color="#26DDFF" stop-opacity="0"/>
</linearGradient>
<linearGradient id="paint21_linear_1240_1369" x1="458.799" y1="239.429" x2="447.759" y2="329.314" gradientUnits="userSpaceOnUse">
<stop stop-color="#12637E"/>
<stop offset="0.781" stop-color="#04182D"/>
</linearGradient>
<linearGradient id="paint22_linear_1240_1369" x1="548.146" y1="248.5" x2="536.776" y2="338.159" gradientUnits="userSpaceOnUse">
<stop offset="0.303689" stop-color="#004B4B" stop-opacity="0"/>
<stop offset="0.422945" stop-color="#004B4B" stop-opacity="0.4"/>
<stop offset="0.499089" stop-color="#004B4B"/>
<stop offset="0.649516" stop-color="#26DDFF"/>
<stop offset="0.953267" stop-color="#26DDFF" stop-opacity="0"/>
</linearGradient>
<linearGradient id="paint23_linear_1240_1369" x1="146.082" y1="179.836" x2="231.584" y2="217.291" gradientUnits="userSpaceOnUse">
<stop offset="0.303689" stop-color="#004B4B" stop-opacity="0"/>
<stop offset="0.422945" stop-color="#004B4B" stop-opacity="0.4"/>
<stop offset="0.499089" stop-color="#004B4B"/>
<stop offset="0.649516" stop-color="#26DDFF"/>
<stop offset="0.953267" stop-color="#26DDFF" stop-opacity="0"/>
</linearGradient>
<linearGradient id="paint24_linear_1240_1369" x1="161.072" y1="271.548" x2="152.443" y2="285.036" gradientUnits="userSpaceOnUse">
<stop stop-color="#12637E"/>
<stop offset="0.781" stop-color="#04182D"/>
</linearGradient>
<linearGradient id="paint25_linear_1240_1369" x1="149.02" y1="258.056" x2="171.263" y2="272.671" gradientUnits="userSpaceOnUse">
<stop offset="0.303689" stop-color="#004B4B" stop-opacity="0"/>
<stop offset="0.422945" stop-color="#004B4B" stop-opacity="0.4"/>
<stop offset="0.499089" stop-color="#004B4B"/>
<stop offset="0.649516" stop-color="#26DDFF"/>
<stop offset="0.953267" stop-color="#26DDFF" stop-opacity="0"/>
</linearGradient>
<linearGradient id="paint26_linear_1240_1369" x1="220.259" y1="249.572" x2="189.196" y2="298.131" gradientUnits="userSpaceOnUse">
<stop stop-color="#12637E"/>
<stop offset="0.781" stop-color="#04182D"/>
</linearGradient>
<linearGradient id="paint27_linear_1240_1369" x1="233.125" y1="256.375" x2="201.705" y2="303.949" gradientUnits="userSpaceOnUse">
<stop offset="0.303689" stop-color="#004B4B" stop-opacity="0"/>
<stop offset="0.422945" stop-color="#004B4B" stop-opacity="0.4"/>
<stop offset="0.499089" stop-color="#004B4B"/>
<stop offset="0.649516" stop-color="#26DDFF"/>
<stop offset="0.953267" stop-color="#26DDFF" stop-opacity="0"/>
</linearGradient>
<linearGradient id="paint28_linear_1240_1369" x1="442.799" y1="320.429" x2="431.759" y2="410.314" gradientUnits="userSpaceOnUse">
<stop stop-color="#12637E"/>
<stop offset="0.781" stop-color="#04182D"/>
</linearGradient>
<linearGradient id="paint29_linear_1240_1369" x1="532.146" y1="329.5" x2="520.776" y2="419.159" gradientUnits="userSpaceOnUse">
<stop offset="0.303689" stop-color="#004B4B" stop-opacity="0"/>
<stop offset="0.422945" stop-color="#004B4B" stop-opacity="0.4"/>
<stop offset="0.499089" stop-color="#004B4B"/>
<stop offset="0.649516" stop-color="#26DDFF"/>
<stop offset="0.953267" stop-color="#26DDFF" stop-opacity="0"/>
</linearGradient>
<linearGradient id="paint30_linear_1240_1369" x1="135.083" y1="260.836" x2="220.585" y2="298.291" gradientUnits="userSpaceOnUse">
<stop offset="0.303689" stop-color="#004B4B" stop-opacity="0"/>
<stop offset="0.422945" stop-color="#004B4B" stop-opacity="0.4"/>
<stop offset="0.499089" stop-color="#004B4B"/>
<stop offset="0.649516" stop-color="#26DDFF"/>
<stop offset="0.953267" stop-color="#26DDFF" stop-opacity="0"/>
</linearGradient>
<linearGradient id="paint31_linear_1240_1369" x1="148.072" y1="335.548" x2="139.443" y2="349.036" gradientUnits="userSpaceOnUse">
<stop stop-color="#12637E"/>
<stop offset="0.781" stop-color="#04182D"/>
</linearGradient>
<linearGradient id="paint32_linear_1240_1369" x1="136.02" y1="322.056" x2="158.263" y2="336.671" gradientUnits="userSpaceOnUse">
<stop offset="0.303689" stop-color="#004B4B" stop-opacity="0"/>
<stop offset="0.422945" stop-color="#004B4B" stop-opacity="0.4"/>
<stop offset="0.499089" stop-color="#004B4B"/>
<stop offset="0.649516" stop-color="#26DDFF"/>
<stop offset="0.953267" stop-color="#26DDFF" stop-opacity="0"/>
</linearGradient>
<linearGradient id="paint33_linear_1240_1369" x1="204.259" y1="330.572" x2="173.196" y2="379.131" gradientUnits="userSpaceOnUse">
<stop stop-color="#12637E"/>
<stop offset="0.781" stop-color="#04182D"/>
</linearGradient>
<linearGradient id="paint34_linear_1240_1369" x1="217.125" y1="337.375" x2="185.705" y2="384.949" gradientUnits="userSpaceOnUse">
<stop offset="0.303689" stop-color="#004B4B" stop-opacity="0"/>
<stop offset="0.422945" stop-color="#004B4B" stop-opacity="0.4"/>
<stop offset="0.499089" stop-color="#004B4B"/>
<stop offset="0.649516" stop-color="#26DDFF"/>
<stop offset="0.953267" stop-color="#26DDFF" stop-opacity="0"/>
</linearGradient>
<linearGradient id="paint35_linear_1240_1369" x1="381.799" y1="401.429" x2="370.759" y2="491.314" gradientUnits="userSpaceOnUse">
<stop stop-color="#12637E"/>
<stop offset="0.781" stop-color="#04182D"/>
</linearGradient>
<linearGradient id="paint36_linear_1240_1369" x1="471.146" y1="410.5" x2="459.776" y2="500.159" gradientUnits="userSpaceOnUse">
<stop offset="0.303689" stop-color="#004B4B" stop-opacity="0"/>
<stop offset="0.422945" stop-color="#004B4B" stop-opacity="0.4"/>
<stop offset="0.499089" stop-color="#004B4B"/>
<stop offset="0.649516" stop-color="#26DDFF"/>
<stop offset="0.953267" stop-color="#26DDFF" stop-opacity="0"/>
</linearGradient>
<linearGradient id="paint37_linear_1240_1369" x1="85.6649" y1="323.667" x2="171.167" y2="361.122" gradientUnits="userSpaceOnUse">
<stop offset="0.303689" stop-color="#004B4B" stop-opacity="0"/>
<stop offset="0.422945" stop-color="#004B4B" stop-opacity="0.4"/>
<stop offset="0.499089" stop-color="#004B4B"/>
<stop offset="0.649516" stop-color="#26DDFF"/>
<stop offset="0.953267" stop-color="#26DDFF" stop-opacity="0"/>
</linearGradient>
<linearGradient id="paint38_linear_1240_1369" x1="98.072" y1="397.548" x2="89.4432" y2="411.036" gradientUnits="userSpaceOnUse">
<stop stop-color="#12637E"/>
<stop offset="0.781" stop-color="#04182D"/>
</linearGradient>
<linearGradient id="paint39_linear_1240_1369" x1="86.0203" y1="384.056" x2="108.263" y2="398.671" gradientUnits="userSpaceOnUse">
<stop offset="0.303689" stop-color="#004B4B" stop-opacity="0"/>
<stop offset="0.422945" stop-color="#004B4B" stop-opacity="0.4"/>
<stop offset="0.499089" stop-color="#004B4B"/>
<stop offset="0.649516" stop-color="#26DDFF"/>
<stop offset="0.953267" stop-color="#26DDFF" stop-opacity="0"/>
</linearGradient>
<linearGradient id="paint40_linear_1240_1369" x1="143.259" y1="411.572" x2="112.196" y2="460.131" gradientUnits="userSpaceOnUse">
<stop stop-color="#12637E"/>
<stop offset="0.781" stop-color="#04182D"/>
</linearGradient>
<linearGradient id="paint41_linear_1240_1369" x1="156.125" y1="418.375" x2="124.705" y2="465.949" gradientUnits="userSpaceOnUse">
<stop offset="0.303689" stop-color="#004B4B" stop-opacity="0"/>
<stop offset="0.422945" stop-color="#004B4B" stop-opacity="0.4"/>
<stop offset="0.499089" stop-color="#004B4B"/>
<stop offset="0.649516" stop-color="#26DDFF"/>
<stop offset="0.953267" stop-color="#26DDFF" stop-opacity="0"/>
</linearGradient>
</defs>
</svg>
