<svg width="75" height="79" viewBox="0 0 75 79" fill="none" xmlns="http://www.w3.org/2000/svg">
<path d="M45.2708 48.9297L40.3257 57.183C40.3257 57.183 40.317 57.1978 40.3126 57.2037C40.2746 57.2685 40.2381 57.3334 40.1972 57.3982C38.988 59.3536 36.8367 60.6592 34.3832 60.6592H16.9338L9.38626 73.2566L9.26066 73.4673C7.33142 76.5971 3.9096 78.6955 0 78.75L17.8627 48.9311L45.2708 48.9297Z" fill="#D6CA8A"/>
<path d="M48.1652 44.0976L46.0592 47.6135H18.6511L19.466 46.252L19.5537 46.1061C20.3014 44.9007 21.6319 44.0991 23.1464 44.0991L48.1652 44.0976Z" fill="#D6CA8A"/>
<path d="M66.3041 13.8217L53.3982 35.3621C53.3632 35.4211 53.3296 35.4815 53.293 35.5404C52.0882 37.515 49.9253 38.8323 47.4571 38.8323H23.9104L33.6866 22.5157C36.8353 17.3022 42.5223 13.8217 49.014 13.8217H66.3041Z" fill="#D6CA8A"/>
<path d="M74.5848 0L74.522 0.104622C71.3456 5.18249 65.7345 8.55693 59.3422 8.55693H46.0712C39.6072 8.55693 33.9407 12.008 30.7847 17.1846L4.73773 60.6589V47.1449C4.75525 45.0422 5.34819 43.0764 6.36612 41.401L6.38219 41.3745L22.6413 14.2345C27.7149 5.70708 36.9697 0 47.5447 0H74.5848Z" fill="#D6CA8A"/>
</svg>
