<svg width="126" height="43" viewBox="0 0 126 43" fill="none" xmlns="http://www.w3.org/2000/svg">
<path d="M58.3662 20.8414V33.4758H53.7773V2.27637H65.9425C69.0257 2.27637 71.6546 3.17443 73.8057 4.97035C76.0047 6.76628 77.104 8.95897 77.104 11.5484C77.104 14.2006 76.0047 16.3933 73.8057 18.1683C71.6785 19.9433 69.0496 20.8205 65.9425 20.8205H58.3662V20.8414ZM58.3662 6.11886V16.9989H66.0382C67.8546 16.9989 69.3844 16.456 70.5792 15.3909C71.7982 14.3258 72.4195 13.0312 72.4195 11.5693C72.4195 10.1284 71.7982 8.85444 70.5792 7.78956C69.3841 6.68266 67.8785 6.13976 66.0382 6.13976H58.3662V6.11886Z" fill="white"/>
<path d="M89.101 11.4229C92.4947 11.4229 95.1717 12.2164 97.1314 13.8035C99.0913 15.3906 100.071 17.5623 100.071 20.319V33.4754H95.6973V30.5101H95.5062C93.618 32.9534 91.0846 34.1646 87.9298 34.1646C85.2292 34.1646 82.9824 33.4754 81.166 32.0763C79.3496 30.6771 78.4414 28.9437 78.4414 26.8555C78.4414 24.6419 79.3974 22.8878 81.3095 21.593C83.2216 20.2775 85.779 19.63 88.9577 19.63C91.6822 19.63 93.929 20.0686 95.6737 20.9456V20.0268C95.6737 18.6277 95.0523 17.4582 93.7855 16.4768C92.5187 15.4953 91.037 15.0149 89.34 15.0149C86.7826 15.0149 84.7512 15.9546 83.2692 17.855L79.23 15.6414C81.4528 12.822 84.7512 11.4229 89.101 11.4229ZM83.1738 26.918C83.1738 27.9622 83.6757 28.8394 84.7033 29.5284C85.7072 30.2176 86.9023 30.5726 88.2645 30.5726C90.2006 30.5726 91.9212 29.9461 93.4271 28.693C94.9329 27.44 95.6976 25.9781 95.6976 24.2868C94.2635 23.3053 92.2799 22.804 89.7225 22.804C87.8583 22.804 86.3048 23.2008 85.0619 23.9734C83.7951 24.7878 83.1738 25.7695 83.1738 26.918Z" fill="white"/>
<path d="M125.024 12.1133L109.728 42.8532H104.995L110.683 32.0984L100.598 12.1133H105.593L112.859 27.4414H112.954L120.029 12.1133H125.024Z" fill="white"/>
<path d="M39.731 14.5332H20.4961V21.4246L31.5739 21.4268C31.1246 23.7197 29.6786 25.6744 27.4631 26.9775V26.9788C27.4638 26.9784 27.4648 26.9779 27.4655 26.9775L27.266 31.0965L34.0597 31.4465C34.0587 31.4472 34.0577 31.448 34.057 31.4486C37.9073 28.3351 40.1136 23.7323 40.1136 18.2944C40.1133 16.987 39.9795 15.7361 39.731 14.5332Z" fill="white"/>
<path d="M27.4685 26.9778C27.4678 26.9782 27.4668 26.9787 27.4661 26.9791C25.6309 28.06 23.2679 28.6923 20.504 28.6923C15.1622 28.6923 10.6308 25.5473 9.00799 21.3081H9.00726C9.0075 21.3087 9.00774 21.3095 9.00799 21.3102L3.33641 20.5254L2.20703 25.9204C5.57736 31.7627 12.5031 35.7716 20.5042 35.7716C26.0332 35.7716 30.6784 34.1833 34.0602 31.4487C34.0612 31.4481 34.0622 31.4475 34.0629 31.4466L27.4685 26.9778Z" fill="white"/>
<path d="M8.36613 17.8863C8.36613 16.696 8.59318 15.5453 9.00675 14.4636L7.23577 9.85254H2.20457C0.811272 12.2688 0.0273438 14.9961 0.0273438 17.8863C0.0273438 20.7765 0.813713 23.5038 2.20457 25.92L2.20554 25.9194L9.00675 21.309C9.0065 21.3083 9.00626 21.3077 9.00601 21.3068C8.59293 20.226 8.36613 19.076 8.36613 17.8863Z" fill="white"/>
<path d="M20.5052 0C12.5058 0 5.57711 4.00952 2.20703 9.85271L9.00896 14.4638C10.6318 10.2245 15.1632 7.07959 20.5049 7.07959C23.5235 7.07959 26.2268 7.98811 28.3611 9.76312L34.2048 4.66142C30.6557 1.77288 26.0286 0 20.5052 0Z" fill="white"/>
</svg>
