<svg width="57" height="48" viewBox="0 0 57 48" fill="none" xmlns="http://www.w3.org/2000/svg">
<path d="M56.0048 7.11111C56.4954 7.11111 56.8937 6.71289 56.8937 6.22222V0.888889C56.8937 0.398222 56.4954 0 56.0048 0H13.3381C12.8474 0 12.4492 0.398222 12.4492 0.888889V6.22222C12.4492 6.71289 12.8474 7.11111 13.3381 7.11111H20.6297L15.6661 17.6498C10.0803 15.5271 3.69456 18.0267 1.11145 23.5138C-0.206776 26.3093 -0.357887 29.4489 0.687446 32.3547C1.73189 35.2587 3.84567 37.5804 6.63767 38.8924C8.203 39.632 9.87678 40.0036 11.5577 40.0036C12.8732 40.0036 14.1941 39.7751 15.4688 39.3173C18.3737 38.2729 20.699 36.1591 22.0163 33.3653C24.5994 27.8782 22.4634 21.3653 17.2732 18.408L22.5941 7.11111H33.7817V28.4969C29.7879 28.9413 26.6706 32.3342 26.6706 36.4444C26.6706 40.8551 30.2599 44.4444 34.6706 44.4444C37.7666 44.4444 40.4528 42.6729 41.7817 40.0924C43.1106 42.672 45.7968 44.4444 48.8928 44.4444C53.3034 44.4444 56.8928 40.8551 56.8928 36.4444C56.8928 32.3342 53.7754 28.9413 49.7817 28.4969V7.11111H56.0048ZM20.4092 32.608C19.2937 34.9724 17.3257 36.7609 14.8688 37.6444C12.411 38.528 9.75767 38.3991 7.39678 37.2844C5.03322 36.1733 3.24567 34.2089 2.36122 31.752C1.47678 29.2933 1.60389 26.6373 2.72034 24.2711C4.38345 20.7387 7.90878 18.6649 11.5817 18.6649C12.9746 18.6649 14.3906 18.9636 15.7319 19.5947C20.6057 21.8969 22.7034 27.7351 20.4092 32.608ZM14.227 1.77778H55.1159V5.33333H14.227V1.77778ZM34.6714 42.6667C31.2403 42.6667 28.4492 39.8756 28.4492 36.4444C28.4492 33.0133 31.2403 30.2222 34.6714 30.2222C38.1026 30.2222 40.8937 33.0133 40.8937 36.4444C40.8937 39.8756 38.1026 42.6667 34.6714 42.6667ZM55.1159 36.4444C55.1159 39.8756 52.3248 42.6667 48.8937 42.6667C45.4626 42.6667 42.6714 39.8756 42.6714 36.4444C42.6714 33.0133 45.4626 30.2222 48.8937 30.2222C52.3248 30.2222 55.1159 33.0133 55.1159 36.4444ZM48.0048 28.4969C45.2883 28.7991 42.9826 30.4667 41.7826 32.7964C40.5826 30.4676 38.2768 28.7991 35.5603 28.4969V7.11111H48.0048V28.4969Z" fill="white"/>
<path d="M16.1487 26.9293L17.0557 27.3331C17.2545 27.4216 17.4113 27.5825 17.4917 27.7803C17.572 27.9781 17.5694 28.1966 17.4842 28.3878C17.3991 28.579 17.2385 28.7273 17.0377 28.7999C16.8369 28.8725 16.6125 28.8636 16.4137 28.7751L15.6463 28.4334C15.1132 29.3758 14.2325 30.0803 13.1765 30.409C12.1204 30.7377 10.9651 30.6669 9.93645 30.2106L8.74837 29.6817L12.0968 35.6744C12.153 35.7674 12.1897 35.87 12.2048 35.976C12.2199 36.082 12.2129 36.1893 12.1845 36.2914C12.156 36.3935 12.1065 36.4884 12.039 36.5704C11.9715 36.6524 11.8874 36.7198 11.7916 36.7687C11.6958 36.8175 11.5903 36.8468 11.4815 36.8548C11.3726 36.8627 11.2626 36.8492 11.158 36.815C11.0533 36.7808 10.9562 36.7266 10.8725 36.6557C10.7887 36.5847 10.7199 36.4985 10.6703 36.4021L6.17111 28.3517C6.08909 28.2046 6.05552 28.0376 6.07509 27.8739C6.09465 27.7102 6.16637 27.558 6.28025 27.4385C6.39412 27.3191 6.54446 27.2384 6.7103 27.2076C6.87614 27.1768 7.0492 27.1976 7.20534 27.2669L10.5784 28.7687C11.2093 29.0495 11.9163 29.1023 12.57 28.9173C13.2237 28.7324 13.7803 28.3222 14.1378 27.7618L8.16833 25.104C7.96953 25.0155 7.81269 24.8546 7.73232 24.6568C7.65194 24.459 7.65462 24.2405 7.73975 24.0493C7.82488 23.8581 7.9855 23.7099 8.18627 23.6372C8.38704 23.5646 8.61152 23.5735 8.81032 23.6621L14.553 26.2189C14.5323 25.6928 14.359 25.179 14.0532 24.737C13.7474 24.295 13.3217 23.943 12.8254 23.7219L9.45231 22.2201C9.25351 22.1316 9.09667 21.9708 9.0163 21.773C8.93592 21.5752 8.9386 21.3566 9.02373 21.1654C9.10886 20.9742 9.26948 20.826 9.47025 20.7534C9.67103 20.6808 9.8955 20.6897 10.0943 20.7782L18.3396 24.4492C18.5384 24.5378 18.6953 24.6986 18.7756 24.8964C18.856 25.0942 18.8534 25.3127 18.7682 25.5039C18.6831 25.6952 18.5225 25.8434 18.3217 25.916C18.1209 25.9886 17.8964 25.9797 17.6976 25.8912L16.0036 25.1369C16.1789 25.7217 16.2283 26.3321 16.1487 26.9293Z" fill="white"/>
<path d="M36.2361 33.6223C35.8904 33.9707 35.8921 34.5334 36.2406 34.8791C36.6601 35.296 36.8912 35.8516 36.8912 36.4445C36.8912 37.0374 36.6601 37.5929 36.2361 38.0142C35.4024 38.8525 33.9392 38.8525 33.1064 38.0142C32.7597 37.6658 32.197 37.6631 31.8495 38.0098C31.501 38.3556 31.4992 38.9182 31.845 39.2667C32.5979 40.0249 33.6015 40.4427 34.6717 40.4427C35.7419 40.4427 36.7455 40.0249 37.4939 39.2711C38.2521 38.5182 38.6699 37.5147 38.6699 36.4445C38.6699 35.3742 38.2521 34.3707 37.4939 33.6178C37.1463 33.2729 36.5828 33.2738 36.2361 33.6223ZM51.1135 36.4445C51.1135 37.0374 50.8824 37.5929 50.4584 38.0142C49.6246 38.8525 48.1615 38.8525 47.3286 38.0142C46.9828 37.6658 46.4192 37.6631 46.0717 38.0098C45.7232 38.3556 45.7215 38.9182 46.0672 39.2667C46.8201 40.0249 47.8237 40.4427 48.8939 40.4427C49.9641 40.4427 50.9677 40.0249 51.7161 39.2711C52.4743 38.5182 52.8921 37.5147 52.8921 36.4445C52.8921 35.3742 52.4743 34.3707 51.7161 33.6178C51.3686 33.2729 50.8059 33.2738 50.4592 33.6223C50.1135 33.9707 50.1152 34.5334 50.4637 34.8791C50.8832 35.296 51.1135 35.8516 51.1135 36.4445ZM29.4699 26.7023C29.7819 26.7023 30.0841 26.5378 30.2477 26.2462L31.4921 24.0151C31.7312 23.5867 31.5775 23.0454 31.1481 22.8063C30.7206 22.568 30.1783 22.7209 29.9392 23.1502L28.6948 25.3814C28.4557 25.8098 28.6095 26.3511 29.0388 26.5903C29.1757 26.6667 29.3241 26.7023 29.4708 26.7023H29.4699ZM26.7064 20.7289C26.7064 20.2382 26.3081 19.84 25.8175 19.84C25.3268 19.84 24.9286 20.2382 24.9286 20.7289V23.5822C24.9286 24.0729 25.3268 24.4711 25.8175 24.4711C26.3081 24.4711 26.7064 24.0729 26.7064 23.5822V20.7289ZM18.9312 41.1494L16.2646 43.816C15.917 44.1636 15.917 44.7254 16.2646 45.0729C16.4379 45.2463 16.6655 45.3334 16.893 45.3334C17.1206 45.3334 17.3481 45.2463 17.5215 45.0729L20.1881 42.4062C20.5357 42.0587 20.5357 41.4969 20.1881 41.1494C19.8406 40.8018 19.2788 40.8018 18.9312 41.1494ZM24.0041 42.6667C23.5135 42.6667 23.1152 43.0649 23.1152 43.5556V47.1111C23.1152 47.6018 23.5135 48 24.0041 48C24.4948 48 24.893 47.6018 24.893 47.1111V43.5556C24.893 43.0649 24.4948 42.6667 24.0041 42.6667Z" fill="white"/>
</svg>
