<svg xmlns="http://www.w3.org/2000/svg" width="20" height="20" viewBox="0 0 20 20" fill="none">
                                <path d="M10 0C8.02219 0 6.08879 0.58649 4.4443 1.6853C2.79981 2.78412 1.51809 4.3459 0.761209 6.17316C0.00433284 8.00042 -0.1937 10.0111 0.192152 11.9509C0.578004 13.8907 1.53041 15.6725 2.92894 17.0711C4.32746 18.4696 6.10929 19.422 8.0491 19.8078C9.98891 20.1937 11.9996 19.9957 13.8268 19.2388C15.6541 18.4819 17.2159 17.2002 18.3147 15.5557C19.4135 13.9112 20 11.9778 20 10C19.9972 7.34869 18.9427 4.80678 17.068 2.93202C15.1932 1.05727 12.6513 0.00279983 10 0ZM10 18.4615C8.32647 18.4615 6.69052 17.9653 5.29902 17.0355C3.90753 16.1057 2.823 14.7842 2.18256 13.2381C1.54213 11.6919 1.37456 9.99061 1.70105 8.34923C2.02754 6.70786 2.83343 5.20016 4.01679 4.01679C5.20016 2.83342 6.70786 2.02754 8.34924 1.70105C9.99062 1.37456 11.6919 1.54212 13.2381 2.18256C14.7842 2.82299 16.1057 3.90753 17.0355 5.29902C17.9653 6.69051 18.4615 8.32646 18.4615 10C18.459 12.2434 17.5667 14.3941 15.9804 15.9804C14.3941 17.5667 12.2434 18.459 10 18.4615ZM7.02596 7.33269C7.46068 8.15457 7.68793 9.07024 7.68793 10C7.68793 10.9298 7.46068 11.8454 7.02596 12.6673C6.97999 12.7588 6.91622 12.8401 6.8384 12.9066C6.76058 12.9731 6.67027 13.0234 6.57277 13.0545C6.47526 13.0857 6.37252 13.0971 6.27057 13.088C6.16861 13.0789 6.06949 13.0496 5.97901 13.0017C5.88853 12.9539 5.80851 12.8884 5.74365 12.8093C5.67878 12.7301 5.63037 12.6387 5.60125 12.5406C5.57213 12.4425 5.56289 12.3395 5.57407 12.2378C5.58525 12.136 5.61662 12.0375 5.66635 11.9481C5.98827 11.3492 6.15676 10.6799 6.15676 10C6.15676 9.32009 5.98827 8.65079 5.66635 8.05192C5.57595 7.87211 5.55962 7.66404 5.62086 7.47233C5.6821 7.28063 5.81603 7.12055 5.99392 7.02645C6.17181 6.93234 6.3795 6.9117 6.57244 6.96895C6.76538 7.0262 6.92819 7.15679 7.02596 7.33269ZM12.4106 4.25577C13.3567 6.02364 13.8517 7.99775 13.8517 10.0029C13.8517 12.008 13.3567 13.9821 12.4106 15.75C12.3082 15.9182 12.1452 16.0407 11.9551 16.0922C11.7651 16.1438 11.5625 16.1206 11.3891 16.0273C11.2157 15.934 11.0847 15.7778 11.0231 15.5908C10.9614 15.4038 10.9738 15.2002 11.0577 15.0221C11.8851 13.4774 12.318 11.7523 12.318 10C12.318 8.24771 11.8851 6.52255 11.0577 4.97788C10.9616 4.79784 10.9409 4.58698 11.0002 4.39169C11.0595 4.1964 11.194 4.03268 11.374 3.93654C11.5541 3.8404 11.7649 3.81971 11.9602 3.87904C12.1555 3.93837 12.3192 4.07284 12.4154 4.25288L12.4106 4.25577ZM9.71827 5.79423C10.4088 7.08923 10.7701 8.5343 10.7701 10.0019C10.7701 11.4695 10.4088 12.9146 9.71827 14.2096C9.67182 14.3006 9.60772 14.3813 9.52971 14.4473C9.4517 14.5132 9.36135 14.5629 9.26393 14.5935C9.1665 14.6242 9.06395 14.6351 8.96226 14.6257C8.86057 14.6162 8.76178 14.5867 8.67164 14.5387C8.5815 14.4907 8.50182 14.4252 8.43725 14.3461C8.37268 14.2669 8.32452 14.1757 8.29556 14.0778C8.26661 13.9799 8.25744 13.8771 8.26861 13.7756C8.27977 13.6741 8.31104 13.5758 8.36058 13.4865C8.93263 12.4141 9.23186 11.2174 9.23186 10.0019C9.23186 8.78647 8.93263 7.58972 8.36058 6.51731C8.31104 6.428 8.27977 6.32973 8.26861 6.22821C8.25744 6.1267 8.26661 6.02398 8.29556 5.92604C8.32452 5.82811 8.37268 5.73692 8.43725 5.65779C8.50182 5.57867 8.5815 5.51319 8.67164 5.46519C8.76178 5.41718 8.86057 5.3876 8.96226 5.37818C9.06395 5.36876 9.1665 5.37968 9.26393 5.41031C9.36135 5.44094 9.4517 5.49066 9.52971 5.55658C9.60772 5.62249 9.67182 5.70328 9.71827 5.79423Z" fill="#E4F1F2" />
                            </svg>