<svg xmlns="http://www.w3.org/2000/svg" width="24" height="20" viewBox="0 0 24 20" fill="none">
                                <path d="M24 1V18C24 18.5304 23.8238 19.0391 23.5103 19.4142C23.1967 19.7893 22.7714 20 22.328 20H3.93545C3.49199 20 3.0667 19.7893 2.75313 19.4142C2.43956 19.0391 2.2634 18.5304 2.2634 18V13C2.2634 12.7348 2.35148 12.4804 2.50827 12.2929C2.66505 12.1054 2.8777 12 3.09943 12C3.32115 12 3.5338 12.1054 3.69058 12.2929C3.84737 12.4804 3.93545 12.7348 3.93545 13V18H16.4758V14H8.11556C7.89384 14 7.68119 13.8946 7.52441 13.7071C7.36762 13.5196 7.27954 13.2652 7.27954 13C7.27954 12.7348 7.36762 12.4804 7.52441 12.2929C7.68119 12.1054 7.89384 12 8.11556 12H16.4758V8H10.6236C10.4019 8 10.1893 7.89464 10.0325 7.70711C9.87569 7.51957 9.78761 7.26522 9.78761 7C9.78761 6.73478 9.87569 6.48043 10.0325 6.29289C10.1893 6.10536 10.4019 6 10.6236 6H22.328V2H9.78761C9.56588 2 9.35324 1.89464 9.19645 1.70711C9.03967 1.51957 8.95159 1.26522 8.95159 1C8.95159 0.734783 9.03967 0.48043 9.19645 0.292894C9.35324 0.105357 9.56588 0 9.78761 0H23.164C23.3857 0 23.5984 0.105357 23.7551 0.292894C23.9119 0.48043 24 0.734783 24 1ZM18.1478 12H22.328V8H18.1478V12ZM22.328 18V14H18.1478V18H22.328Z" fill="white" />
                                <path d="M7.52421 2.77136C7.52421 2.89385 7.48017 3.01133 7.40177 3.09794C7.32338 3.18455 7.21706 3.23321 7.1062 3.23321H5.42631C5.43101 3.30942 5.43415 3.3862 5.43415 3.46414C5.43318 4.38249 5.10257 5.26292 4.51483 5.91229C3.9271 6.56167 3.13024 6.92695 2.29906 6.92802H1.49909L5.29725 10.7429C5.33863 10.7835 5.37231 10.8327 5.39635 10.8877C5.42038 10.9428 5.43428 11.0026 5.43725 11.0636C5.44023 11.1246 5.43221 11.1857 5.41366 11.2433C5.39511 11.3009 5.3664 11.3538 5.3292 11.399C5.292 11.4443 5.24704 11.4809 5.19693 11.5068C5.14682 11.5327 5.09256 11.5473 5.0373 11.5499C4.98203 11.5524 4.92685 11.5428 4.87497 11.5216C4.82308 11.5004 4.77551 11.4681 4.73502 11.4265L0.136899 6.80794C0.0744657 6.74524 0.0306651 6.66314 0.0112559 6.57242C-0.0081533 6.4817 -0.00226273 6.38662 0.0281527 6.29967C0.0585682 6.21272 0.112086 6.13798 0.181668 6.08526C0.251251 6.03255 0.333643 6.00433 0.418012 6.00432H2.29906C2.9086 6.00356 3.49297 5.73569 3.92398 5.25947C4.35499 4.78326 4.59743 4.1376 4.59813 3.46414C4.59813 3.3862 4.59447 3.30942 4.5882 3.23321H0.418012C0.307148 3.23321 0.200825 3.18455 0.122433 3.09794C0.0440402 3.01133 0 2.89385 0 2.77136C0 2.64887 0.0440402 2.5314 0.122433 2.44478C0.200825 2.35817 0.307148 2.30951 0.418012 2.30951H4.34575C4.15322 1.89267 3.86022 1.54269 3.49906 1.29819C3.1379 1.0537 2.72262 0.924191 2.29906 0.923958H0.418012C0.307148 0.923958 0.200825 0.875299 0.122433 0.788685C0.0440402 0.702071 0 0.584598 0 0.462107C0 0.339617 0.0440402 0.222143 0.122433 0.135529C0.200825 0.0489156 0.307148 0.000256348 0.418012 0.000256348H7.1062C7.21706 0.000256348 7.32338 0.0489156 7.40177 0.135529C7.48017 0.222143 7.52421 0.339617 7.52421 0.462107C7.52421 0.584598 7.48017 0.702071 7.40177 0.788685C7.32338 0.875299 7.21706 0.923958 7.1062 0.923958H4.42779C4.80066 1.30518 5.0843 1.78061 5.2544 2.30951H7.1062C7.21706 2.30951 7.32338 2.35817 7.40177 2.44478C7.48017 2.5314 7.52421 2.64887 7.52421 2.77136Z" fill="white" />
                            </svg>