<svg xmlns="http://www.w3.org/2000/svg" width="20" height="20" viewBox="0 0 20 20" fill="none">
                                <path d="M16.9231 4.79727H15.3846V3.19698C15.3839 2.54718 15.1931 1.91299 14.8375 1.37874C14.4819 0.844486 13.9784 0.435472 13.3939 0.206076C12.8095 -0.0233207 12.1717 -0.0622313 11.5655 0.0945173C10.9592 0.251266 10.4132 0.596247 10 1.0836C9.60621 0.619333 9.09142 0.283842 8.51801 0.117781C7.94461 -0.0482796 7.33721 -0.0377804 6.76943 0.148006C6.20164 0.333793 5.69785 0.686891 5.31911 1.16451C4.94037 1.64213 4.70293 2.22376 4.63558 2.83891C4.16826 2.55332 3.6367 2.40119 3.0947 2.39794C2.5527 2.39468 2.01949 2.5404 1.54903 2.82036C1.07857 3.10032 0.687545 3.50458 0.415535 3.99223C0.143525 4.47988 0.000177894 5.03362 0 5.59741V9.59813C0 12.3569 1.05357 15.0026 2.92893 16.9534C4.8043 18.9041 7.34784 20 10 20C12.6522 20 15.1957 18.9041 17.0711 16.9534C18.9464 15.0026 20 12.3569 20 9.59813V7.99784C20 7.149 19.6758 6.33492 19.0988 5.73469C18.5218 5.13447 17.7391 4.79727 16.9231 4.79727ZM12.3077 1.59669C12.7157 1.59669 13.107 1.76529 13.3955 2.0654C13.6841 2.36551 13.8462 2.77255 13.8462 3.19698V4.79727H10.7692V3.19698C10.7692 2.77255 10.9313 2.36551 11.2198 2.0654C11.5084 1.76529 11.8997 1.59669 12.3077 1.59669ZM6.15385 3.19698C6.15385 2.77255 6.31593 2.36551 6.60445 2.0654C6.89297 1.76529 7.28428 1.59669 7.69231 1.59669C8.10033 1.59669 8.49165 1.76529 8.78016 2.0654C9.06868 2.36551 9.23077 2.77255 9.23077 3.19698V7.1977C9.23077 7.62212 9.06868 8.02916 8.78016 8.32927C8.49165 8.62938 8.10033 8.79799 7.69231 8.79799C7.28428 8.79799 6.89297 8.62938 6.60445 8.32927C6.31593 8.02916 6.15385 7.62212 6.15385 7.1977V3.19698ZM1.53846 5.59741C1.53846 5.17299 1.70055 4.76595 1.98907 4.46584C2.27758 4.16572 2.6689 3.99712 3.07692 3.99712C3.48495 3.99712 3.87626 4.16572 4.16478 4.46584C4.4533 4.76595 4.61538 5.17299 4.61538 5.59741V7.1977C4.61538 7.62212 4.4533 8.02916 4.16478 8.32927C3.87626 8.62938 3.48495 8.79799 3.07692 8.79799C2.6689 8.79799 2.27758 8.62938 1.98907 8.32927C1.70055 8.02916 1.53846 7.62212 1.53846 7.1977V5.59741ZM18.4615 9.59813C18.4615 11.8999 17.5946 14.1102 16.0466 15.755C14.4986 17.3999 12.3927 18.3485 10.1803 18.3976C7.96795 18.4466 5.82512 17.5922 4.21115 16.0174C2.59717 14.4427 1.64049 12.2729 1.54615 9.9732C2.16101 10.341 2.87935 10.4761 3.57909 10.3554C4.27883 10.2347 4.91681 9.86567 5.38462 9.31108C5.91476 9.93943 6.66065 10.3265 7.46211 10.3891C8.26356 10.4518 9.05668 10.185 9.67115 9.64614C9.94788 10.1232 10.3388 10.5174 10.8058 10.7903C10.3108 11.2401 9.91422 11.7948 9.64255 12.4172C9.37089 13.0397 9.23048 13.7154 9.23077 14.399C9.23077 14.6112 9.31181 14.8147 9.45607 14.9648C9.60033 15.1148 9.79599 15.1991 10 15.1991C10.204 15.1991 10.3997 15.1148 10.5439 14.9648C10.6882 14.8147 10.7692 14.6112 10.7692 14.399C10.7692 13.5501 11.0934 12.7361 11.6704 12.1358C12.2475 11.5356 13.0301 11.1984 13.8462 11.1984C14.0502 11.1984 14.2458 11.1141 14.3901 10.9641C14.5343 10.814 14.6154 10.6105 14.6154 10.3983C14.6154 10.1861 14.5343 9.98254 14.3901 9.83249C14.2458 9.68243 14.0502 9.59813 13.8462 9.59813H12.3077C11.8997 9.59813 11.5084 9.42953 11.2198 9.12941C10.9313 8.8293 10.7692 8.42226 10.7692 7.99784V6.39755H16.9231C17.3311 6.39755 17.7224 6.56615 18.0109 6.86627C18.2995 7.16638 18.4615 7.57342 18.4615 7.99784V9.59813Z" fill="#E4F1F2" />
                            </svg>