<svg width="500" height="560" viewBox="0 0 500 560" fill="none" xmlns="http://www.w3.org/2000/svg">
<rect x="0.25" y="0.25" width="499.5" height="559.5" rx="15.75" stroke="url(#paint0_linear_1257_941)" stroke-width="0.5"/>
<path d="M0 124C86.1365 124 156 193.864 156 280C156 366.136 86.1365 436 0 436" fill="url(#paint1_linear_1257_941)"/>
<path d="M0 124C86.1365 124 156 193.864 156 280C156 366.136 86.1365 436 0 436" stroke="url(#paint2_linear_1257_941)" stroke-miterlimit="10"/>
<path d="M0 180C55.2157 180 100 224.784 100 280C100 335.216 55.2157 380 0 380" fill="url(#paint3_linear_1257_941)"/>
<path d="M0 180C55.2157 180 100 224.784 100 280C100 335.216 55.2157 380 0 380" stroke="url(#paint4_linear_1257_941)" stroke-width="0.5" stroke-miterlimit="10"/>
<path d="M0 124C86.1365 124 156 193.864 156 280C156 366.136 86.1365 436 0 436" fill="url(#paint5_linear_1257_941)"/>
<path d="M0 124C86.1365 124 156 193.864 156 280C156 366.136 86.1365 436 0 436" stroke="url(#paint6_linear_1257_941)" stroke-miterlimit="10"/>
<path d="M0 180C55.2157 180 100 224.784 100 280C100 335.216 55.2157 380 0 380" fill="url(#paint7_linear_1257_941)"/>
<path d="M0 180C55.2157 180 100 224.784 100 280C100 335.216 55.2157 380 0 380" stroke="url(#paint8_linear_1257_941)" stroke-width="0.5" stroke-miterlimit="10"/>
<path d="M0 226C29.8165 226 54 250.184 54 280C54 309.816 29.8165 334 0 334" fill="url(#paint9_linear_1257_941)"/>
<path d="M0 226C29.8165 226 54 250.184 54 280C54 309.816 29.8165 334 0 334" stroke="url(#paint10_linear_1257_941)" stroke-width="0.5" stroke-miterlimit="10"/>
<rect x="130.5" y="91.5" width="239" height="47" rx="23.5" fill="url(#paint11_linear_1257_941)"/>
<rect x="130.5" y="91.5" width="239" height="47" rx="23.5" stroke="url(#paint12_linear_1257_941)"/>
<path d="M160.846 118.33H156.59L155.806 120.5H154.462L157.99 110.798H159.46L162.974 120.5H161.63L160.846 118.33ZM160.482 117.294L158.718 112.366L156.954 117.294H160.482ZM164.536 116.636C164.536 115.852 164.694 115.166 165.012 114.578C165.329 113.981 165.763 113.519 166.314 113.192C166.874 112.865 167.499 112.702 168.19 112.702C168.787 112.702 169.342 112.842 169.856 113.122C170.369 113.393 170.761 113.752 171.032 114.2V110.14H172.32V120.5H171.032V119.058C170.78 119.515 170.406 119.893 169.912 120.192C169.417 120.481 168.838 120.626 168.176 120.626C167.494 120.626 166.874 120.458 166.314 120.122C165.763 119.786 165.329 119.315 165.012 118.708C164.694 118.101 164.536 117.411 164.536 116.636ZM171.032 116.65C171.032 116.071 170.915 115.567 170.682 115.138C170.448 114.709 170.131 114.382 169.73 114.158C169.338 113.925 168.904 113.808 168.428 113.808C167.952 113.808 167.518 113.92 167.126 114.144C166.734 114.368 166.421 114.695 166.188 115.124C165.954 115.553 165.838 116.057 165.838 116.636C165.838 117.224 165.954 117.737 166.188 118.176C166.421 118.605 166.734 118.937 167.126 119.17C167.518 119.394 167.952 119.506 168.428 119.506C168.904 119.506 169.338 119.394 169.73 119.17C170.131 118.937 170.448 118.605 170.682 118.176C170.915 117.737 171.032 117.229 171.032 116.65ZM177.829 119.324L180.209 112.828H181.567L178.557 120.5H177.073L174.063 112.828H175.435L177.829 119.324ZM182.844 116.636C182.844 115.852 183.003 115.166 183.32 114.578C183.638 113.981 184.072 113.519 184.622 113.192C185.182 112.865 185.803 112.702 186.484 112.702C187.156 112.702 187.74 112.847 188.234 113.136C188.729 113.425 189.098 113.789 189.34 114.228V112.828H190.628V120.5H189.34V119.072C189.088 119.52 188.71 119.893 188.206 120.192C187.712 120.481 187.133 120.626 186.47 120.626C185.789 120.626 185.173 120.458 184.622 120.122C184.072 119.786 183.638 119.315 183.32 118.708C183.003 118.101 182.844 117.411 182.844 116.636ZM189.34 116.65C189.34 116.071 189.224 115.567 188.99 115.138C188.757 114.709 188.44 114.382 188.038 114.158C187.646 113.925 187.212 113.808 186.736 113.808C186.26 113.808 185.826 113.92 185.434 114.144C185.042 114.368 184.73 114.695 184.496 115.124C184.263 115.553 184.146 116.057 184.146 116.636C184.146 117.224 184.263 117.737 184.496 118.176C184.73 118.605 185.042 118.937 185.434 119.17C185.826 119.394 186.26 119.506 186.736 119.506C187.212 119.506 187.646 119.394 188.038 119.17C188.44 118.937 188.757 118.605 188.99 118.176C189.224 117.737 189.34 117.229 189.34 116.65ZM197.019 112.688C197.952 112.688 198.708 112.973 199.287 113.542C199.866 114.102 200.155 114.914 200.155 115.978V120.5H198.895V116.16C198.895 115.395 198.704 114.811 198.321 114.41C197.938 113.999 197.416 113.794 196.753 113.794C196.081 113.794 195.544 114.004 195.143 114.424C194.751 114.844 194.555 115.455 194.555 116.258V120.5H193.281V112.828H194.555V113.92C194.807 113.528 195.148 113.225 195.577 113.01C196.016 112.795 196.496 112.688 197.019 112.688ZM202.26 116.65C202.26 115.857 202.419 115.166 202.736 114.578C203.054 113.981 203.492 113.519 204.052 113.192C204.622 112.865 205.27 112.702 205.998 112.702C206.941 112.702 207.716 112.931 208.322 113.388C208.938 113.845 209.344 114.48 209.54 115.292H208.168C208.038 114.825 207.781 114.457 207.398 114.186C207.025 113.915 206.558 113.78 205.998 113.78C205.27 113.78 204.682 114.032 204.234 114.536C203.786 115.031 203.562 115.735 203.562 116.65C203.562 117.574 203.786 118.288 204.234 118.792C204.682 119.296 205.27 119.548 205.998 119.548C206.558 119.548 207.025 119.417 207.398 119.156C207.772 118.895 208.028 118.521 208.168 118.036H209.54C209.335 118.82 208.924 119.45 208.308 119.926C207.692 120.393 206.922 120.626 205.998 120.626C205.27 120.626 204.622 120.463 204.052 120.136C203.492 119.809 203.054 119.347 202.736 118.75C202.419 118.153 202.26 117.453 202.26 116.65ZM218.74 116.37C218.74 116.613 218.726 116.869 218.698 117.14H212.566C212.613 117.896 212.869 118.489 213.336 118.918C213.812 119.338 214.386 119.548 215.058 119.548C215.609 119.548 216.066 119.422 216.43 119.17C216.803 118.909 217.065 118.563 217.214 118.134H218.586C218.381 118.871 217.97 119.473 217.354 119.94C216.738 120.397 215.973 120.626 215.058 120.626C214.33 120.626 213.677 120.463 213.098 120.136C212.529 119.809 212.081 119.347 211.754 118.75C211.427 118.143 211.264 117.443 211.264 116.65C211.264 115.857 211.423 115.161 211.74 114.564C212.057 113.967 212.501 113.509 213.07 113.192C213.649 112.865 214.311 112.702 215.058 112.702C215.786 112.702 216.43 112.861 216.99 113.178C217.55 113.495 217.979 113.934 218.278 114.494C218.586 115.045 218.74 115.67 218.74 116.37ZM217.424 116.104C217.424 115.619 217.317 115.203 217.102 114.858C216.887 114.503 216.593 114.237 216.22 114.06C215.856 113.873 215.45 113.78 215.002 113.78C214.358 113.78 213.807 113.985 213.35 114.396C212.902 114.807 212.645 115.376 212.58 116.104H217.424ZM220.446 116.636C220.446 115.852 220.604 115.166 220.922 114.578C221.239 113.981 221.673 113.519 222.224 113.192C222.784 112.865 223.409 112.702 224.1 112.702C224.697 112.702 225.252 112.842 225.766 113.122C226.279 113.393 226.671 113.752 226.942 114.2V110.14H228.23V120.5H226.942V119.058C226.69 119.515 226.316 119.893 225.822 120.192C225.327 120.481 224.748 120.626 224.086 120.626C223.404 120.626 222.784 120.458 222.224 120.122C221.673 119.786 221.239 119.315 220.922 118.708C220.604 118.101 220.446 117.411 220.446 116.636ZM226.942 116.65C226.942 116.071 226.825 115.567 226.592 115.138C226.358 114.709 226.041 114.382 225.64 114.158C225.248 113.925 224.814 113.808 224.338 113.808C223.862 113.808 223.428 113.92 223.036 114.144C222.644 114.368 222.331 114.695 222.098 115.124C221.864 115.553 221.748 116.057 221.748 116.636C221.748 117.224 221.864 117.737 222.098 118.176C222.331 118.605 222.644 118.937 223.036 119.17C223.428 119.394 223.862 119.506 224.338 119.506C224.814 119.506 225.248 119.394 225.64 119.17C226.041 118.937 226.358 118.605 226.592 118.176C226.825 117.737 226.942 117.229 226.942 116.65ZM236.389 119.464H239.805V120.5H235.115V110.742H236.389V119.464ZM245.004 120.626C244.285 120.626 243.632 120.463 243.044 120.136C242.465 119.809 242.008 119.347 241.672 118.75C241.345 118.143 241.182 117.443 241.182 116.65C241.182 115.866 241.35 115.175 241.686 114.578C242.031 113.971 242.498 113.509 243.086 113.192C243.674 112.865 244.332 112.702 245.06 112.702C245.788 112.702 246.446 112.865 247.034 113.192C247.622 113.509 248.084 113.967 248.42 114.564C248.765 115.161 248.938 115.857 248.938 116.65C248.938 117.443 248.761 118.143 248.406 118.75C248.061 119.347 247.589 119.809 246.992 120.136C246.395 120.463 245.732 120.626 245.004 120.626ZM245.004 119.506C245.461 119.506 245.891 119.399 246.292 119.184C246.693 118.969 247.015 118.647 247.258 118.218C247.51 117.789 247.636 117.266 247.636 116.65C247.636 116.034 247.515 115.511 247.272 115.082C247.029 114.653 246.712 114.335 246.32 114.13C245.928 113.915 245.503 113.808 245.046 113.808C244.579 113.808 244.15 113.915 243.758 114.13C243.375 114.335 243.067 114.653 242.834 115.082C242.601 115.511 242.484 116.034 242.484 116.65C242.484 117.275 242.596 117.803 242.82 118.232C243.053 118.661 243.361 118.983 243.744 119.198C244.127 119.403 244.547 119.506 245.004 119.506ZM254.277 112.702C254.94 112.702 255.518 112.847 256.013 113.136C256.517 113.425 256.89 113.789 257.133 114.228V112.828H258.421V120.668C258.421 121.368 258.272 121.989 257.973 122.53C257.674 123.081 257.245 123.51 256.685 123.818C256.134 124.126 255.49 124.28 254.753 124.28C253.745 124.28 252.905 124.042 252.233 123.566C251.561 123.09 251.164 122.441 251.043 121.62H252.303C252.443 122.087 252.732 122.46 253.171 122.74C253.61 123.029 254.137 123.174 254.753 123.174C255.453 123.174 256.022 122.955 256.461 122.516C256.909 122.077 257.133 121.461 257.133 120.668V119.058C256.881 119.506 256.508 119.879 256.013 120.178C255.518 120.477 254.94 120.626 254.277 120.626C253.596 120.626 252.975 120.458 252.415 120.122C251.864 119.786 251.43 119.315 251.113 118.708C250.796 118.101 250.637 117.411 250.637 116.636C250.637 115.852 250.796 115.166 251.113 114.578C251.43 113.981 251.864 113.519 252.415 113.192C252.975 112.865 253.596 112.702 254.277 112.702ZM257.133 116.65C257.133 116.071 257.016 115.567 256.783 115.138C256.55 114.709 256.232 114.382 255.831 114.158C255.439 113.925 255.005 113.808 254.529 113.808C254.053 113.808 253.619 113.92 253.227 114.144C252.835 114.368 252.522 114.695 252.289 115.124C252.056 115.553 251.939 116.057 251.939 116.636C251.939 117.224 252.056 117.737 252.289 118.176C252.522 118.605 252.835 118.937 253.227 119.17C253.619 119.394 254.053 119.506 254.529 119.506C255.005 119.506 255.439 119.394 255.831 119.17C256.232 118.937 256.55 118.605 256.783 118.176C257.016 117.737 257.133 117.229 257.133 116.65ZM261.732 111.582C261.489 111.582 261.284 111.498 261.116 111.33C260.948 111.162 260.864 110.957 260.864 110.714C260.864 110.471 260.948 110.266 261.116 110.098C261.284 109.93 261.489 109.846 261.732 109.846C261.965 109.846 262.161 109.93 262.32 110.098C262.488 110.266 262.572 110.471 262.572 110.714C262.572 110.957 262.488 111.162 262.32 111.33C262.161 111.498 261.965 111.582 261.732 111.582ZM262.348 112.828V120.5H261.074V112.828H262.348ZM268.757 112.688C269.691 112.688 270.447 112.973 271.025 113.542C271.604 114.102 271.893 114.914 271.893 115.978V120.5H270.633V116.16C270.633 115.395 270.442 114.811 270.059 114.41C269.677 113.999 269.154 113.794 268.491 113.794C267.819 113.794 267.283 114.004 266.881 114.424C266.489 114.844 266.293 115.455 266.293 116.258V120.5H265.019V112.828H266.293V113.92C266.545 113.528 266.886 113.225 267.315 113.01C267.754 112.795 268.235 112.688 268.757 112.688ZM281.801 120.598C281.157 120.598 280.578 120.486 280.065 120.262C279.561 120.029 279.164 119.711 278.875 119.31C278.586 118.899 278.436 118.428 278.427 117.896H279.785C279.832 118.353 280.018 118.741 280.345 119.058C280.681 119.366 281.166 119.52 281.801 119.52C282.408 119.52 282.884 119.371 283.229 119.072C283.584 118.764 283.761 118.372 283.761 117.896C283.761 117.523 283.658 117.219 283.453 116.986C283.248 116.753 282.991 116.575 282.683 116.454C282.375 116.333 281.96 116.202 281.437 116.062C280.793 115.894 280.275 115.726 279.883 115.558C279.5 115.39 279.169 115.129 278.889 114.774C278.618 114.41 278.483 113.925 278.483 113.318C278.483 112.786 278.618 112.315 278.889 111.904C279.16 111.493 279.538 111.176 280.023 110.952C280.518 110.728 281.082 110.616 281.717 110.616C282.632 110.616 283.378 110.845 283.957 111.302C284.545 111.759 284.876 112.366 284.951 113.122H283.551C283.504 112.749 283.308 112.422 282.963 112.142C282.618 111.853 282.16 111.708 281.591 111.708C281.059 111.708 280.625 111.848 280.289 112.128C279.953 112.399 279.785 112.781 279.785 113.276C279.785 113.631 279.883 113.92 280.079 114.144C280.284 114.368 280.532 114.541 280.821 114.662C281.12 114.774 281.535 114.905 282.067 115.054C282.711 115.231 283.229 115.409 283.621 115.586C284.013 115.754 284.349 116.02 284.629 116.384C284.909 116.739 285.049 117.224 285.049 117.84C285.049 118.316 284.923 118.764 284.671 119.184C284.419 119.604 284.046 119.945 283.551 120.206C283.056 120.467 282.473 120.598 281.801 120.598ZM294.424 116.37C294.424 116.613 294.41 116.869 294.382 117.14H288.25C288.296 117.896 288.553 118.489 289.02 118.918C289.496 119.338 290.07 119.548 290.742 119.548C291.292 119.548 291.75 119.422 292.114 119.17C292.487 118.909 292.748 118.563 292.898 118.134H294.27C294.064 118.871 293.654 119.473 293.038 119.94C292.422 120.397 291.656 120.626 290.742 120.626C290.014 120.626 289.36 120.463 288.782 120.136C288.212 119.809 287.764 119.347 287.438 118.75C287.111 118.143 286.948 117.443 286.948 116.65C286.948 115.857 287.106 115.161 287.424 114.564C287.741 113.967 288.184 113.509 288.754 113.192C289.332 112.865 289.995 112.702 290.742 112.702C291.47 112.702 292.114 112.861 292.674 113.178C293.234 113.495 293.663 113.934 293.962 114.494C294.27 115.045 294.424 115.67 294.424 116.37ZM293.108 116.104C293.108 115.619 293 115.203 292.786 114.858C292.571 114.503 292.277 114.237 291.904 114.06C291.54 113.873 291.134 113.78 290.686 113.78C290.042 113.78 289.491 113.985 289.034 114.396C288.586 114.807 288.329 115.376 288.264 116.104H293.108ZM296.129 116.65C296.129 115.857 296.288 115.166 296.605 114.578C296.923 113.981 297.361 113.519 297.921 113.192C298.491 112.865 299.139 112.702 299.867 112.702C300.81 112.702 301.585 112.931 302.191 113.388C302.807 113.845 303.213 114.48 303.409 115.292H302.037C301.907 114.825 301.65 114.457 301.267 114.186C300.894 113.915 300.427 113.78 299.867 113.78C299.139 113.78 298.551 114.032 298.103 114.536C297.655 115.031 297.431 115.735 297.431 116.65C297.431 117.574 297.655 118.288 298.103 118.792C298.551 119.296 299.139 119.548 299.867 119.548C300.427 119.548 300.894 119.417 301.267 119.156C301.641 118.895 301.897 118.521 302.037 118.036H303.409C303.204 118.82 302.793 119.45 302.177 119.926C301.561 120.393 300.791 120.626 299.867 120.626C299.139 120.626 298.491 120.463 297.921 120.136C297.361 119.809 296.923 119.347 296.605 118.75C296.288 118.153 296.129 117.453 296.129 116.65ZM312.413 112.828V120.5H311.139V119.366C310.897 119.758 310.556 120.066 310.117 120.29C309.688 120.505 309.212 120.612 308.689 120.612C308.092 120.612 307.555 120.491 307.079 120.248C306.603 119.996 306.225 119.623 305.945 119.128C305.675 118.633 305.539 118.031 305.539 117.322V112.828H306.799V117.154C306.799 117.91 306.991 118.493 307.373 118.904C307.756 119.305 308.279 119.506 308.941 119.506C309.623 119.506 310.159 119.296 310.551 118.876C310.943 118.456 311.139 117.845 311.139 117.042V112.828H312.413ZM316.338 114.074C316.562 113.635 316.88 113.295 317.29 113.052C317.71 112.809 318.219 112.688 318.816 112.688V114.004H318.48C317.052 114.004 316.338 114.779 316.338 116.328V120.5H315.064V112.828H316.338V114.074ZM321.445 111.582C321.202 111.582 320.997 111.498 320.829 111.33C320.661 111.162 320.577 110.957 320.577 110.714C320.577 110.471 320.661 110.266 320.829 110.098C320.997 109.93 321.202 109.846 321.445 109.846C321.678 109.846 321.874 109.93 322.033 110.098C322.201 110.266 322.285 110.471 322.285 110.714C322.285 110.957 322.201 111.162 322.033 111.33C321.874 111.498 321.678 111.582 321.445 111.582ZM322.061 112.828V120.5H320.787V112.828H322.061ZM326.286 113.878V118.4C326.286 118.773 326.366 119.039 326.524 119.198C326.683 119.347 326.958 119.422 327.35 119.422H328.288V120.5H327.14C326.431 120.5 325.899 120.337 325.544 120.01C325.19 119.683 325.012 119.147 325.012 118.4V113.878H324.018V112.828H325.012V110.896H326.286V112.828H328.288V113.878H326.286ZM336.94 112.828L332.32 124.112H331.004L332.516 120.416L329.422 112.828H330.836L333.244 119.044L335.624 112.828H336.94Z" fill="white"/>
<path d="M93.5 153.5L124 119" stroke="url(#paint13_linear_1257_941)" stroke-miterlimit="10"/>
<path d="M93 148.5C89.9332 148.5 87.5 150.933 87.5 154C87.5 157.067 89.9332 159.5 93 159.5C96.0669 159.5 98.5 157.067 98.5 154C98.5 150.933 96.0669 148.5 93 148.5Z" fill="url(#paint14_linear_1257_941)" stroke="url(#paint15_linear_1257_941)"/>
<path d="M142.5 118C142.5 127.665 134.665 135.5 125 135.5C115.335 135.5 107.5 127.665 107.5 118C107.5 108.335 115.335 100.5 125 100.5C134.665 100.5 142.5 108.335 142.5 118Z" fill="url(#paint16_linear_1257_941)" stroke="url(#paint17_linear_1257_941)"/>
<rect x="191.5" y="175.5" width="239" height="47" rx="23.5" fill="url(#paint18_linear_1257_941)"/>
<rect x="191.5" y="175.5" width="239" height="47" rx="23.5" stroke="url(#paint19_linear_1257_941)"/>
<path d="M221.39 199.615C221.77 199.675 222.115 199.83 222.425 200.08C222.745 200.33 222.995 200.64 223.175 201.01C223.365 201.38 223.46 201.775 223.46 202.195C223.46 202.725 223.325 203.205 223.055 203.635C222.785 204.055 222.39 204.39 221.87 204.64C221.36 204.88 220.755 205 220.055 205H216.155V194.545H219.905C220.615 194.545 221.22 194.665 221.72 194.905C222.22 195.135 222.595 195.45 222.845 195.85C223.095 196.25 223.22 196.7 223.22 197.2C223.22 197.82 223.05 198.335 222.71 198.745C222.38 199.145 221.94 199.435 221.39 199.615ZM217.52 199.06H219.815C220.455 199.06 220.95 198.91 221.3 198.61C221.65 198.31 221.825 197.895 221.825 197.365C221.825 196.835 221.65 196.42 221.3 196.12C220.95 195.82 220.445 195.67 219.785 195.67H217.52V199.06ZM219.935 203.875C220.615 203.875 221.145 203.715 221.525 203.395C221.905 203.075 222.095 202.63 222.095 202.06C222.095 201.48 221.895 201.025 221.495 200.695C221.095 200.355 220.56 200.185 219.89 200.185H217.52V203.875H219.935ZM226.559 195.445C226.299 195.445 226.079 195.355 225.899 195.175C225.719 194.995 225.629 194.775 225.629 194.515C225.629 194.255 225.719 194.035 225.899 193.855C226.079 193.675 226.299 193.585 226.559 193.585C226.809 193.585 227.019 193.675 227.189 193.855C227.369 194.035 227.459 194.255 227.459 194.515C227.459 194.775 227.369 194.995 227.189 195.175C227.019 195.355 226.809 195.445 226.559 195.445ZM227.219 196.78V205H225.854V196.78H227.219ZM233.631 205.135C232.861 205.135 232.161 204.96 231.531 204.61C230.911 204.26 230.421 203.765 230.061 203.125C229.711 202.475 229.536 201.725 229.536 200.875C229.536 200.035 229.716 199.295 230.076 198.655C230.446 198.005 230.946 197.51 231.576 197.17C232.206 196.82 232.911 196.645 233.691 196.645C234.471 196.645 235.176 196.82 235.806 197.17C236.436 197.51 236.931 198 237.291 198.64C237.661 199.28 237.846 200.025 237.846 200.875C237.846 201.725 237.656 202.475 237.276 203.125C236.906 203.765 236.401 204.26 235.761 204.61C235.121 204.96 234.411 205.135 233.631 205.135ZM233.631 203.935C234.121 203.935 234.581 203.82 235.011 203.59C235.441 203.36 235.786 203.015 236.046 202.555C236.316 202.095 236.451 201.535 236.451 200.875C236.451 200.215 236.321 199.655 236.061 199.195C235.801 198.735 235.461 198.395 235.041 198.175C234.621 197.945 234.166 197.83 233.676 197.83C233.176 197.83 232.716 197.945 232.296 198.175C231.886 198.395 231.556 198.735 231.306 199.195C231.056 199.655 230.931 200.215 230.931 200.875C230.931 201.545 231.051 202.11 231.291 202.57C231.541 203.03 231.871 203.375 232.281 203.605C232.691 203.825 233.141 203.935 233.631 203.935ZM250.025 196.63C250.665 196.63 251.235 196.765 251.735 197.035C252.235 197.295 252.63 197.69 252.92 198.22C253.21 198.75 253.355 199.395 253.355 200.155V205H252.005V200.35C252.005 199.53 251.8 198.905 251.39 198.475C250.99 198.035 250.445 197.815 249.755 197.815C249.045 197.815 248.48 198.045 248.06 198.505C247.64 198.955 247.43 199.61 247.43 200.47V205H246.08V200.35C246.08 199.53 245.875 198.905 245.465 198.475C245.065 198.035 244.52 197.815 243.83 197.815C243.12 197.815 242.555 198.045 242.135 198.505C241.715 198.955 241.505 199.61 241.505 200.47V205H240.14V196.78H241.505V197.965C241.775 197.535 242.135 197.205 242.585 196.975C243.045 196.745 243.55 196.63 244.1 196.63C244.79 196.63 245.4 196.785 245.93 197.095C246.46 197.405 246.855 197.86 247.115 198.46C247.345 197.88 247.725 197.43 248.255 197.11C248.785 196.79 249.375 196.63 250.025 196.63ZM263.594 200.575C263.594 200.835 263.579 201.11 263.549 201.4H256.979C257.029 202.21 257.304 202.845 257.804 203.305C258.314 203.755 258.929 203.98 259.649 203.98C260.239 203.98 260.729 203.845 261.119 203.575C261.519 203.295 261.799 202.925 261.959 202.465H263.429C263.209 203.255 262.769 203.9 262.109 204.4C261.449 204.89 260.629 205.135 259.649 205.135C258.869 205.135 258.169 204.96 257.549 204.61C256.939 204.26 256.459 203.765 256.109 203.125C255.759 202.475 255.584 201.725 255.584 200.875C255.584 200.025 255.754 199.28 256.094 198.64C256.434 198 256.909 197.51 257.519 197.17C258.139 196.82 258.849 196.645 259.649 196.645C260.429 196.645 261.119 196.815 261.719 197.155C262.319 197.495 262.779 197.965 263.099 198.565C263.429 199.155 263.594 199.825 263.594 200.575ZM262.184 200.29C262.184 199.77 262.069 199.325 261.839 198.955C261.609 198.575 261.294 198.29 260.894 198.1C260.504 197.9 260.069 197.8 259.589 197.8C258.899 197.8 258.309 198.02 257.819 198.46C257.339 198.9 257.064 199.51 256.994 200.29H262.184ZM267.561 197.905V202.75C267.561 203.15 267.646 203.435 267.816 203.605C267.986 203.765 268.281 203.845 268.701 203.845H269.706V205H268.476C267.716 205 267.146 204.825 266.766 204.475C266.386 204.125 266.196 203.55 266.196 202.75V197.905H265.131V196.78H266.196V194.71H267.561V196.78H269.706V197.905H267.561ZM273.225 198.115C273.465 197.645 273.805 197.28 274.245 197.02C274.695 196.76 275.24 196.63 275.88 196.63V198.04H275.52C273.99 198.04 273.225 198.87 273.225 200.53V205H271.86V196.78H273.225V198.115ZM278.661 195.445C278.401 195.445 278.181 195.355 278.001 195.175C277.821 194.995 277.731 194.775 277.731 194.515C277.731 194.255 277.821 194.035 278.001 193.855C278.181 193.675 278.401 193.585 278.661 193.585C278.911 193.585 279.121 193.675 279.291 193.855C279.471 194.035 279.561 194.255 279.561 194.515C279.561 194.775 279.471 194.995 279.291 195.175C279.121 195.355 278.911 195.445 278.661 195.445ZM279.321 196.78V205H277.956V196.78H279.321ZM281.637 200.875C281.637 200.025 281.807 199.285 282.147 198.655C282.487 198.015 282.957 197.52 283.557 197.17C284.167 196.82 284.862 196.645 285.642 196.645C286.652 196.645 287.482 196.89 288.132 197.38C288.792 197.87 289.227 198.55 289.437 199.42H287.967C287.827 198.92 287.552 198.525 287.142 198.235C286.742 197.945 286.242 197.8 285.642 197.8C284.862 197.8 284.232 198.07 283.752 198.61C283.272 199.14 283.032 199.895 283.032 200.875C283.032 201.865 283.272 202.63 283.752 203.17C284.232 203.71 284.862 203.98 285.642 203.98C286.242 203.98 286.742 203.84 287.142 203.56C287.542 203.28 287.817 202.88 287.967 202.36H289.437C289.217 203.2 288.777 203.875 288.117 204.385C287.457 204.885 286.632 205.135 285.642 205.135C284.862 205.135 284.167 204.96 283.557 204.61C282.957 204.26 282.487 203.765 282.147 203.125C281.807 202.485 281.637 201.735 281.637 200.875ZM304.898 194.545L300.953 205H299.378L295.433 194.545H296.888L300.173 203.56L303.458 194.545H304.898ZM314.394 200.575C314.394 200.835 314.379 201.11 314.349 201.4H307.779C307.829 202.21 308.104 202.845 308.604 203.305C309.114 203.755 309.729 203.98 310.449 203.98C311.039 203.98 311.529 203.845 311.919 203.575C312.319 203.295 312.599 202.925 312.759 202.465H314.229C314.009 203.255 313.569 203.9 312.909 204.4C312.249 204.89 311.429 205.135 310.449 205.135C309.669 205.135 308.969 204.96 308.349 204.61C307.739 204.26 307.259 203.765 306.909 203.125C306.559 202.475 306.384 201.725 306.384 200.875C306.384 200.025 306.554 199.28 306.894 198.64C307.234 198 307.709 197.51 308.319 197.17C308.939 196.82 309.649 196.645 310.449 196.645C311.229 196.645 311.919 196.815 312.519 197.155C313.119 197.495 313.579 197.965 313.899 198.565C314.229 199.155 314.394 199.825 314.394 200.575ZM312.984 200.29C312.984 199.77 312.869 199.325 312.639 198.955C312.409 198.575 312.094 198.29 311.694 198.1C311.304 197.9 310.869 197.8 310.389 197.8C309.699 197.8 309.109 198.02 308.619 198.46C308.139 198.9 307.864 199.51 307.794 200.29H312.984ZM318.061 198.115C318.301 197.645 318.641 197.28 319.081 197.02C319.531 196.76 320.076 196.63 320.716 196.63V198.04H320.356C318.826 198.04 318.061 198.87 318.061 200.53V205H316.696V196.78H318.061V198.115ZM323.497 195.445C323.237 195.445 323.017 195.355 322.837 195.175C322.657 194.995 322.567 194.775 322.567 194.515C322.567 194.255 322.657 194.035 322.837 193.855C323.017 193.675 323.237 193.585 323.497 193.585C323.747 193.585 323.957 193.675 324.127 193.855C324.307 194.035 324.397 194.255 324.397 194.515C324.397 194.775 324.307 194.995 324.127 195.175C323.957 195.355 323.747 195.445 323.497 195.445ZM324.157 196.78V205H322.792V196.78H324.157ZM330.328 197.905H328.603V205H327.238V197.905H326.173V196.78H327.238V196.195C327.238 195.275 327.473 194.605 327.943 194.185C328.423 193.755 329.188 193.54 330.238 193.54V194.68C329.638 194.68 329.213 194.8 328.963 195.04C328.723 195.27 328.603 195.655 328.603 196.195V196.78H330.328V197.905ZM333.125 195.445C332.865 195.445 332.645 195.355 332.465 195.175C332.285 194.995 332.195 194.775 332.195 194.515C332.195 194.255 332.285 194.035 332.465 193.855C332.645 193.675 332.865 193.585 333.125 193.585C333.375 193.585 333.585 193.675 333.755 193.855C333.935 194.035 334.025 194.255 334.025 194.515C334.025 194.775 333.935 194.995 333.755 195.175C333.585 195.355 333.375 195.445 333.125 195.445ZM333.785 196.78V205H332.42V196.78H333.785ZM336.101 200.875C336.101 200.025 336.271 199.285 336.611 198.655C336.951 198.015 337.421 197.52 338.021 197.17C338.631 196.82 339.326 196.645 340.106 196.645C341.116 196.645 341.946 196.89 342.596 197.38C343.256 197.87 343.691 198.55 343.901 199.42H342.431C342.291 198.92 342.016 198.525 341.606 198.235C341.206 197.945 340.706 197.8 340.106 197.8C339.326 197.8 338.696 198.07 338.216 198.61C337.736 199.14 337.496 199.895 337.496 200.875C337.496 201.865 337.736 202.63 338.216 203.17C338.696 203.71 339.326 203.98 340.106 203.98C340.706 203.98 341.206 203.84 341.606 203.56C342.006 203.28 342.281 202.88 342.431 202.36H343.901C343.681 203.2 343.241 203.875 342.581 204.385C341.921 204.885 341.096 205.135 340.106 205.135C339.326 205.135 338.631 204.96 338.021 204.61C337.421 204.26 336.951 203.765 336.611 203.125C336.271 202.485 336.101 201.735 336.101 200.875ZM345.712 200.86C345.712 200.02 345.882 199.285 346.222 198.655C346.562 198.015 347.027 197.52 347.617 197.17C348.217 196.82 348.882 196.645 349.612 196.645C350.332 196.645 350.957 196.8 351.487 197.11C352.017 197.42 352.412 197.81 352.672 198.28V196.78H354.052V205H352.672V203.47C352.402 203.95 351.997 204.35 351.457 204.67C350.927 204.98 350.307 205.135 349.597 205.135C348.867 205.135 348.207 204.955 347.617 204.595C347.027 204.235 346.562 203.73 346.222 203.08C345.882 202.43 345.712 201.69 345.712 200.86ZM352.672 200.875C352.672 200.255 352.547 199.715 352.297 199.255C352.047 198.795 351.707 198.445 351.277 198.205C350.857 197.955 350.392 197.83 349.882 197.83C349.372 197.83 348.907 197.95 348.487 198.19C348.067 198.43 347.732 198.78 347.482 199.24C347.232 199.7 347.107 200.24 347.107 200.86C347.107 201.49 347.232 202.04 347.482 202.51C347.732 202.97 348.067 203.325 348.487 203.575C348.907 203.815 349.372 203.935 349.882 203.935C350.392 203.935 350.857 203.815 351.277 203.575C351.707 203.325 352.047 202.97 352.297 202.51C352.547 202.04 352.672 201.495 352.672 200.875ZM358.524 197.905V202.75C358.524 203.15 358.609 203.435 358.779 203.605C358.949 203.765 359.244 203.845 359.664 203.845H360.669V205H359.439C358.679 205 358.109 204.825 357.729 204.475C357.349 204.125 357.159 203.55 357.159 202.75V197.905H356.094V196.78H357.159V194.71H358.524V196.78H360.669V197.905H358.524ZM363.528 195.445C363.268 195.445 363.048 195.355 362.868 195.175C362.688 194.995 362.598 194.775 362.598 194.515C362.598 194.255 362.688 194.035 362.868 193.855C363.048 193.675 363.268 193.585 363.528 193.585C363.778 193.585 363.988 193.675 364.158 193.855C364.338 194.035 364.428 194.255 364.428 194.515C364.428 194.775 364.338 194.995 364.158 195.175C363.988 195.355 363.778 195.445 363.528 195.445ZM364.188 196.78V205H362.823V196.78H364.188ZM370.599 205.135C369.829 205.135 369.129 204.96 368.499 204.61C367.879 204.26 367.389 203.765 367.029 203.125C366.679 202.475 366.504 201.725 366.504 200.875C366.504 200.035 366.684 199.295 367.044 198.655C367.414 198.005 367.914 197.51 368.544 197.17C369.174 196.82 369.879 196.645 370.659 196.645C371.439 196.645 372.144 196.82 372.774 197.17C373.404 197.51 373.899 198 374.259 198.64C374.629 199.28 374.814 200.025 374.814 200.875C374.814 201.725 374.624 202.475 374.244 203.125C373.874 203.765 373.369 204.26 372.729 204.61C372.089 204.96 371.379 205.135 370.599 205.135ZM370.599 203.935C371.089 203.935 371.549 203.82 371.979 203.59C372.409 203.36 372.754 203.015 373.014 202.555C373.284 202.095 373.419 201.535 373.419 200.875C373.419 200.215 373.289 199.655 373.029 199.195C372.769 198.735 372.429 198.395 372.009 198.175C371.589 197.945 371.134 197.83 370.644 197.83C370.144 197.83 369.684 197.945 369.264 198.175C368.854 198.395 368.524 198.735 368.274 199.195C368.024 199.655 367.899 200.215 367.899 200.875C367.899 201.545 368.019 202.11 368.259 202.57C368.509 203.03 368.839 203.375 369.249 203.605C369.659 203.825 370.109 203.935 370.599 203.935ZM381.114 196.63C382.114 196.63 382.924 196.935 383.544 197.545C384.164 198.145 384.474 199.015 384.474 200.155V205H383.124V200.35C383.124 199.53 382.919 198.905 382.509 198.475C382.099 198.035 381.539 197.815 380.829 197.815C380.109 197.815 379.534 198.04 379.104 198.49C378.684 198.94 378.474 199.595 378.474 200.455V205H377.109V196.78H378.474V197.95C378.744 197.53 379.109 197.205 379.569 196.975C380.039 196.745 380.554 196.63 381.114 196.63Z" fill="white"/>
<path d="M140.5 211.5L184.5 199.5" stroke="url(#paint20_linear_1257_941)" stroke-miterlimit="10"/>
<path d="M141 205.5C137.933 205.5 135.5 207.933 135.5 211C135.5 214.067 137.933 216.5 141 216.5C144.067 216.5 146.5 214.067 146.5 211C146.5 207.933 144.067 205.5 141 205.5Z" fill="url(#paint21_linear_1257_941)" stroke="url(#paint22_linear_1257_941)"/>
<path d="M203.5 199C203.5 208.665 195.665 216.5 186 216.5C176.335 216.5 168.5 208.665 168.5 199C168.5 189.335 176.335 181.5 186 181.5C195.665 181.5 203.5 189.335 203.5 199Z" fill="url(#paint23_linear_1257_941)" stroke="url(#paint24_linear_1257_941)"/>
<rect x="207.5" y="256.5" width="239" height="47" rx="23.5" fill="url(#paint25_linear_1257_941)"/>
<rect x="207.5" y="256.5" width="239" height="47" rx="23.5" stroke="url(#paint26_linear_1257_941)"/>
<path d="M237.216 285L234.892 281.01H233.352V285H232.078V275.242H235.228C235.965 275.242 236.586 275.368 237.09 275.62C237.603 275.872 237.986 276.213 238.238 276.642C238.49 277.071 238.616 277.561 238.616 278.112C238.616 278.784 238.42 279.377 238.028 279.89C237.645 280.403 237.067 280.744 236.292 280.912L238.742 285H237.216ZM233.352 279.988H235.228C235.919 279.988 236.437 279.82 236.782 279.484C237.127 279.139 237.3 278.681 237.3 278.112C237.3 277.533 237.127 277.085 236.782 276.768C236.446 276.451 235.928 276.292 235.228 276.292H233.352V279.988ZM248.096 280.87C248.096 281.113 248.082 281.369 248.054 281.64H241.922C241.968 282.396 242.225 282.989 242.692 283.418C243.168 283.838 243.742 284.048 244.414 284.048C244.964 284.048 245.422 283.922 245.786 283.67C246.159 283.409 246.42 283.063 246.57 282.634H247.942C247.736 283.371 247.326 283.973 246.71 284.44C246.094 284.897 245.328 285.126 244.414 285.126C243.686 285.126 243.032 284.963 242.454 284.636C241.884 284.309 241.436 283.847 241.11 283.25C240.783 282.643 240.62 281.943 240.62 281.15C240.62 280.357 240.778 279.661 241.096 279.064C241.413 278.467 241.856 278.009 242.426 277.692C243.004 277.365 243.667 277.202 244.414 277.202C245.142 277.202 245.786 277.361 246.346 277.678C246.906 277.995 247.335 278.434 247.634 278.994C247.942 279.545 248.096 280.17 248.096 280.87ZM246.78 280.604C246.78 280.119 246.672 279.703 246.458 279.358C246.243 279.003 245.949 278.737 245.576 278.56C245.212 278.373 244.806 278.28 244.358 278.28C243.714 278.28 243.163 278.485 242.706 278.896C242.258 279.307 242.001 279.876 241.936 280.604H246.78ZM249.801 281.136C249.801 280.352 249.96 279.666 250.277 279.078C250.595 278.481 251.029 278.019 251.579 277.692C252.139 277.365 252.76 277.202 253.441 277.202C254.113 277.202 254.697 277.347 255.191 277.636C255.686 277.925 256.055 278.289 256.297 278.728V277.328H257.585V285H256.297V283.572C256.045 284.02 255.667 284.393 255.163 284.692C254.669 284.981 254.09 285.126 253.427 285.126C252.746 285.126 252.13 284.958 251.579 284.622C251.029 284.286 250.595 283.815 250.277 283.208C249.96 282.601 249.801 281.911 249.801 281.136ZM256.297 281.15C256.297 280.571 256.181 280.067 255.947 279.638C255.714 279.209 255.397 278.882 254.995 278.658C254.603 278.425 254.169 278.308 253.693 278.308C253.217 278.308 252.783 278.42 252.391 278.644C251.999 278.868 251.687 279.195 251.453 279.624C251.22 280.053 251.103 280.557 251.103 281.136C251.103 281.724 251.22 282.237 251.453 282.676C251.687 283.105 251.999 283.437 252.391 283.67C252.783 283.894 253.217 284.006 253.693 284.006C254.169 284.006 254.603 283.894 254.995 283.67C255.397 283.437 255.714 283.105 255.947 282.676C256.181 282.237 256.297 281.729 256.297 281.15ZM261.512 274.64V285H260.238V274.64H261.512ZM269.503 279.33V280.408H263.917V279.33H269.503ZM278.4 275.242V276.278H275.74V285H274.466V276.278H271.792V275.242H278.4ZM281.127 276.082C280.884 276.082 280.679 275.998 280.511 275.83C280.343 275.662 280.259 275.457 280.259 275.214C280.259 274.971 280.343 274.766 280.511 274.598C280.679 274.43 280.884 274.346 281.127 274.346C281.36 274.346 281.556 274.43 281.715 274.598C281.883 274.766 281.967 274.971 281.967 275.214C281.967 275.457 281.883 275.662 281.715 275.83C281.556 275.998 281.36 276.082 281.127 276.082ZM281.743 277.328V285H280.469V277.328H281.743ZM293.64 277.188C294.237 277.188 294.769 277.314 295.236 277.566C295.703 277.809 296.071 278.177 296.342 278.672C296.613 279.167 296.748 279.769 296.748 280.478V285H295.488V280.66C295.488 279.895 295.297 279.311 294.914 278.91C294.541 278.499 294.032 278.294 293.388 278.294C292.725 278.294 292.198 278.509 291.806 278.938C291.414 279.358 291.218 279.969 291.218 280.772V285H289.958V280.66C289.958 279.895 289.767 279.311 289.384 278.91C289.011 278.499 288.502 278.294 287.858 278.294C287.195 278.294 286.668 278.509 286.276 278.938C285.884 279.358 285.688 279.969 285.688 280.772V285H284.414V277.328H285.688V278.434C285.94 278.033 286.276 277.725 286.696 277.51C287.125 277.295 287.597 277.188 288.11 277.188C288.754 277.188 289.323 277.333 289.818 277.622C290.313 277.911 290.681 278.336 290.924 278.896C291.139 278.355 291.493 277.935 291.988 277.636C292.483 277.337 293.033 277.188 293.64 277.188ZM306.338 280.87C306.338 281.113 306.324 281.369 306.296 281.64H300.164C300.21 282.396 300.467 282.989 300.934 283.418C301.41 283.838 301.984 284.048 302.656 284.048C303.206 284.048 303.664 283.922 304.028 283.67C304.401 283.409 304.662 283.063 304.812 282.634H306.184C305.978 283.371 305.568 283.973 304.952 284.44C304.336 284.897 303.57 285.126 302.656 285.126C301.928 285.126 301.274 284.963 300.696 284.636C300.126 284.309 299.678 283.847 299.352 283.25C299.025 282.643 298.862 281.943 298.862 281.15C298.862 280.357 299.02 279.661 299.338 279.064C299.655 278.467 300.098 278.009 300.668 277.692C301.246 277.365 301.909 277.202 302.656 277.202C303.384 277.202 304.028 277.361 304.588 277.678C305.148 277.995 305.577 278.434 305.876 278.994C306.184 279.545 306.338 280.17 306.338 280.87ZM305.022 280.604C305.022 280.119 304.914 279.703 304.7 279.358C304.485 279.003 304.191 278.737 303.818 278.56C303.454 278.373 303.048 278.28 302.6 278.28C301.956 278.28 301.405 278.485 300.948 278.896C300.5 279.307 300.243 279.876 300.178 280.604H305.022ZM318.268 275.242V276.278H314.026V279.568H317.47V280.604H314.026V285H312.752V275.242H318.268ZM321.581 278.574C321.805 278.135 322.122 277.795 322.533 277.552C322.953 277.309 323.461 277.188 324.059 277.188V278.504H323.723C322.295 278.504 321.581 279.279 321.581 280.828V285H320.307V277.328H321.581V278.574ZM325.553 281.136C325.553 280.352 325.712 279.666 326.029 279.078C326.347 278.481 326.781 278.019 327.331 277.692C327.891 277.365 328.512 277.202 329.193 277.202C329.865 277.202 330.449 277.347 330.943 277.636C331.438 277.925 331.807 278.289 332.049 278.728V277.328H333.337V285H332.049V283.572C331.797 284.02 331.419 284.393 330.915 284.692C330.421 284.981 329.842 285.126 329.179 285.126C328.498 285.126 327.882 284.958 327.331 284.622C326.781 284.286 326.347 283.815 326.029 283.208C325.712 282.601 325.553 281.911 325.553 281.136ZM332.049 281.15C332.049 280.571 331.933 280.067 331.699 279.638C331.466 279.209 331.149 278.882 330.747 278.658C330.355 278.425 329.921 278.308 329.445 278.308C328.969 278.308 328.535 278.42 328.143 278.644C327.751 278.868 327.439 279.195 327.205 279.624C326.972 280.053 326.855 280.557 326.855 281.136C326.855 281.724 326.972 282.237 327.205 282.676C327.439 283.105 327.751 283.437 328.143 283.67C328.535 283.894 328.969 284.006 329.445 284.006C329.921 284.006 330.355 283.894 330.747 283.67C331.149 283.437 331.466 283.105 331.699 282.676C331.933 282.237 332.049 281.729 332.049 281.15ZM342.794 277.328V285H341.52V283.866C341.277 284.258 340.937 284.566 340.498 284.79C340.069 285.005 339.593 285.112 339.07 285.112C338.473 285.112 337.936 284.991 337.46 284.748C336.984 284.496 336.606 284.123 336.326 283.628C336.055 283.133 335.92 282.531 335.92 281.822V277.328H337.18V281.654C337.18 282.41 337.371 282.993 337.754 283.404C338.137 283.805 338.659 284.006 339.322 284.006C340.003 284.006 340.54 283.796 340.932 283.376C341.324 282.956 341.52 282.345 341.52 281.542V277.328H342.794ZM344.969 281.136C344.969 280.352 345.128 279.666 345.445 279.078C345.763 278.481 346.197 278.019 346.747 277.692C347.307 277.365 347.933 277.202 348.623 277.202C349.221 277.202 349.776 277.342 350.289 277.622C350.803 277.893 351.195 278.252 351.465 278.7V274.64H352.753V285H351.465V283.558C351.213 284.015 350.84 284.393 350.345 284.692C349.851 284.981 349.272 285.126 348.609 285.126C347.928 285.126 347.307 284.958 346.747 284.622C346.197 284.286 345.763 283.815 345.445 283.208C345.128 282.601 344.969 281.911 344.969 281.136ZM351.465 281.15C351.465 280.571 351.349 280.067 351.115 279.638C350.882 279.209 350.565 278.882 350.163 278.658C349.771 278.425 349.337 278.308 348.861 278.308C348.385 278.308 347.951 278.42 347.559 278.644C347.167 278.868 346.855 279.195 346.621 279.624C346.388 280.053 346.271 280.557 346.271 281.136C346.271 281.724 346.388 282.237 346.621 282.676C346.855 283.105 347.167 283.437 347.559 283.67C347.951 283.894 348.385 284.006 348.861 284.006C349.337 284.006 349.771 283.894 350.163 283.67C350.565 283.437 350.882 283.105 351.115 282.676C351.349 282.237 351.465 281.729 351.465 281.15ZM369.537 275.312V285H368.263V277.776L365.043 285H364.147L360.913 277.762V285H359.639V275.312H361.011L364.595 283.32L368.179 275.312H369.537ZM375.543 285.126C374.824 285.126 374.171 284.963 373.583 284.636C373.004 284.309 372.547 283.847 372.211 283.25C371.884 282.643 371.721 281.943 371.721 281.15C371.721 280.366 371.889 279.675 372.225 279.078C372.57 278.471 373.037 278.009 373.625 277.692C374.213 277.365 374.871 277.202 375.599 277.202C376.327 277.202 376.985 277.365 377.573 277.692C378.161 278.009 378.623 278.467 378.959 279.064C379.304 279.661 379.477 280.357 379.477 281.15C379.477 281.943 379.3 282.643 378.945 283.25C378.6 283.847 378.128 284.309 377.531 284.636C376.934 284.963 376.271 285.126 375.543 285.126ZM375.543 284.006C376 284.006 376.43 283.899 376.831 283.684C377.232 283.469 377.554 283.147 377.797 282.718C378.049 282.289 378.175 281.766 378.175 281.15C378.175 280.534 378.054 280.011 377.811 279.582C377.568 279.153 377.251 278.835 376.859 278.63C376.467 278.415 376.042 278.308 375.585 278.308C375.118 278.308 374.689 278.415 374.297 278.63C373.914 278.835 373.606 279.153 373.373 279.582C373.14 280.011 373.023 280.534 373.023 281.15C373.023 281.775 373.135 282.303 373.359 282.732C373.592 283.161 373.9 283.483 374.283 283.698C374.666 283.903 375.086 284.006 375.543 284.006ZM385.39 277.188C386.324 277.188 387.08 277.473 387.658 278.042C388.237 278.602 388.526 279.414 388.526 280.478V285H387.266V280.66C387.266 279.895 387.075 279.311 386.692 278.91C386.31 278.499 385.787 278.294 385.124 278.294C384.452 278.294 383.916 278.504 383.514 278.924C383.122 279.344 382.926 279.955 382.926 280.758V285H381.652V277.328H382.926V278.42C383.178 278.028 383.519 277.725 383.948 277.51C384.387 277.295 384.868 277.188 385.39 277.188ZM391.765 276.082C391.523 276.082 391.317 275.998 391.149 275.83C390.981 275.662 390.897 275.457 390.897 275.214C390.897 274.971 390.981 274.766 391.149 274.598C391.317 274.43 391.523 274.346 391.765 274.346C391.999 274.346 392.195 274.43 392.353 274.598C392.521 274.766 392.605 274.971 392.605 275.214C392.605 275.457 392.521 275.662 392.353 275.83C392.195 275.998 391.999 276.082 391.765 276.082ZM392.381 277.328V285H391.107V277.328H392.381ZM396.607 278.378V282.9C396.607 283.273 396.686 283.539 396.845 283.698C397.003 283.847 397.279 283.922 397.671 283.922H398.609V285H397.461C396.751 285 396.219 284.837 395.865 284.51C395.51 284.183 395.333 283.647 395.333 282.9V278.378H394.339V277.328H395.333V275.396H396.607V277.328H398.609V278.378H396.607ZM403.998 285.126C403.28 285.126 402.626 284.963 402.038 284.636C401.46 284.309 401.002 283.847 400.666 283.25C400.34 282.643 400.176 281.943 400.176 281.15C400.176 280.366 400.344 279.675 400.68 279.078C401.026 278.471 401.492 278.009 402.08 277.692C402.668 277.365 403.326 277.202 404.054 277.202C404.782 277.202 405.44 277.365 406.028 277.692C406.616 278.009 407.078 278.467 407.414 279.064C407.76 279.661 407.932 280.357 407.932 281.15C407.932 281.943 407.755 282.643 407.4 283.25C407.055 283.847 406.584 284.309 405.986 284.636C405.389 284.963 404.726 285.126 403.998 285.126ZM403.998 284.006C404.456 284.006 404.885 283.899 405.286 283.684C405.688 283.469 406.01 283.147 406.252 282.718C406.504 282.289 406.63 281.766 406.63 281.15C406.63 280.534 406.509 280.011 406.266 279.582C406.024 279.153 405.706 278.835 405.314 278.63C404.922 278.415 404.498 278.308 404.04 278.308C403.574 278.308 403.144 278.415 402.752 278.63C402.37 278.835 402.062 279.153 401.828 279.582C401.595 280.011 401.478 280.534 401.478 281.15C401.478 281.775 401.59 282.303 401.814 282.732C402.048 283.161 402.356 283.483 402.738 283.698C403.121 283.903 403.541 284.006 403.998 284.006ZM411.381 278.574C411.605 278.135 411.923 277.795 412.333 277.552C412.753 277.309 413.262 277.188 413.859 277.188V278.504H413.523C412.095 278.504 411.381 279.279 411.381 280.828V285H410.107V277.328H411.381V278.574ZM416.488 276.082C416.245 276.082 416.04 275.998 415.872 275.83C415.704 275.662 415.62 275.457 415.62 275.214C415.62 274.971 415.704 274.766 415.872 274.598C416.04 274.43 416.245 274.346 416.488 274.346C416.721 274.346 416.917 274.43 417.076 274.598C417.244 274.766 417.328 274.971 417.328 275.214C417.328 275.457 417.244 275.662 417.076 275.83C416.917 275.998 416.721 276.082 416.488 276.082ZM417.104 277.328V285H415.83V277.328H417.104ZM423.513 277.188C424.447 277.188 425.203 277.473 425.781 278.042C426.36 278.602 426.649 279.414 426.649 280.478V285H425.389V280.66C425.389 279.895 425.198 279.311 424.815 278.91C424.433 278.499 423.91 278.294 423.247 278.294C422.575 278.294 422.039 278.504 421.637 278.924C421.245 279.344 421.049 279.955 421.049 280.758V285H419.775V277.328H421.049V278.42C421.301 278.028 421.642 277.725 422.071 277.51C422.51 277.295 422.991 277.188 423.513 277.188ZM432.394 277.202C433.057 277.202 433.636 277.347 434.13 277.636C434.634 277.925 435.008 278.289 435.25 278.728V277.328H436.538V285.168C436.538 285.868 436.389 286.489 436.09 287.03C435.792 287.581 435.362 288.01 434.802 288.318C434.252 288.626 433.608 288.78 432.87 288.78C431.862 288.78 431.022 288.542 430.35 288.066C429.678 287.59 429.282 286.941 429.16 286.12H430.42C430.56 286.587 430.85 286.96 431.288 287.24C431.727 287.529 432.254 287.674 432.87 287.674C433.57 287.674 434.14 287.455 434.578 287.016C435.026 286.577 435.25 285.961 435.25 285.168V283.558C434.998 284.006 434.625 284.379 434.13 284.678C433.636 284.977 433.057 285.126 432.394 285.126C431.713 285.126 431.092 284.958 430.532 284.622C429.982 284.286 429.548 283.815 429.23 283.208C428.913 282.601 428.754 281.911 428.754 281.136C428.754 280.352 428.913 279.666 429.23 279.078C429.548 278.481 429.982 278.019 430.532 277.692C431.092 277.365 431.713 277.202 432.394 277.202ZM435.25 281.15C435.25 280.571 435.134 280.067 434.9 279.638C434.667 279.209 434.35 278.882 433.948 278.658C433.556 278.425 433.122 278.308 432.646 278.308C432.17 278.308 431.736 278.42 431.344 278.644C430.952 278.868 430.64 279.195 430.406 279.624C430.173 280.053 430.056 280.557 430.056 281.136C430.056 281.724 430.173 282.237 430.406 282.676C430.64 283.105 430.952 283.437 431.344 283.67C431.736 283.894 432.17 284.006 432.646 284.006C433.122 284.006 433.556 283.894 433.948 283.67C434.35 283.437 434.667 283.105 434.9 282.676C435.134 282.237 435.25 281.729 435.25 281.15Z" fill="white"/>
<path d="M158.5 281H201" stroke="url(#paint27_linear_1257_941)" stroke-miterlimit="10"/>
<path d="M156 274.5C152.933 274.5 150.5 276.933 150.5 280C150.5 283.067 152.933 285.5 156 285.5C159.067 285.5 161.5 283.067 161.5 280C161.5 276.933 159.067 274.5 156 274.5Z" fill="url(#paint28_linear_1257_941)" stroke="url(#paint29_linear_1257_941)"/>
<path d="M219.5 280C219.5 289.665 211.665 297.5 202 297.5C192.335 297.5 184.5 289.665 184.5 280C184.5 270.335 192.335 262.5 202 262.5C211.665 262.5 219.5 270.335 219.5 280Z" fill="url(#paint30_linear_1257_941)" stroke="url(#paint31_linear_1257_941)"/>
<rect x="191.5" y="337.5" width="239" height="47" rx="23.5" fill="url(#paint32_linear_1257_941)"/>
<rect x="191.5" y="337.5" width="239" height="47" rx="23.5" stroke="url(#paint33_linear_1257_941)"/>
<path d="M217.352 357.278V360.54H220.908V361.59H217.352V364.95H221.328V366H216.078V356.228H221.328V357.278H217.352ZM227.494 358.188C228.427 358.188 229.183 358.473 229.762 359.042C230.34 359.602 230.63 360.414 230.63 361.478V366H229.37V361.66C229.37 360.895 229.178 360.311 228.796 359.91C228.413 359.499 227.89 359.294 227.228 359.294C226.556 359.294 226.019 359.504 225.618 359.924C225.226 360.344 225.03 360.955 225.03 361.758V366H223.756V358.328H225.03V359.42C225.282 359.028 225.622 358.725 226.052 358.51C226.49 358.295 226.971 358.188 227.494 358.188ZM232.735 362.136C232.735 361.352 232.893 360.666 233.211 360.078C233.528 359.481 233.962 359.019 234.513 358.692C235.073 358.365 235.698 358.202 236.389 358.202C236.986 358.202 237.541 358.342 238.055 358.622C238.568 358.893 238.96 359.252 239.231 359.7V355.64H240.519V366H239.231V364.558C238.979 365.015 238.605 365.393 238.111 365.692C237.616 365.981 237.037 366.126 236.375 366.126C235.693 366.126 235.073 365.958 234.513 365.622C233.962 365.286 233.528 364.815 233.211 364.208C232.893 363.601 232.735 362.911 232.735 362.136ZM239.231 362.15C239.231 361.571 239.114 361.067 238.881 360.638C238.647 360.209 238.33 359.882 237.929 359.658C237.537 359.425 237.103 359.308 236.627 359.308C236.151 359.308 235.717 359.42 235.325 359.644C234.933 359.868 234.62 360.195 234.387 360.624C234.153 361.053 234.037 361.557 234.037 362.136C234.037 362.724 234.153 363.237 234.387 363.676C234.62 364.105 234.933 364.437 235.325 364.67C235.717 364.894 236.151 365.006 236.627 365.006C237.103 365.006 237.537 364.894 237.929 364.67C238.33 364.437 238.647 364.105 238.881 363.676C239.114 363.237 239.231 362.729 239.231 362.15ZM248.492 360.33V361.408H242.906V360.33H248.492ZM252.937 359.378V363.9C252.937 364.273 253.016 364.539 253.175 364.698C253.333 364.847 253.609 364.922 254.001 364.922H254.939V366H253.791C253.081 366 252.549 365.837 252.195 365.51C251.84 365.183 251.663 364.647 251.663 363.9V359.378H250.669V358.328H251.663V356.396H252.937V358.328H254.939V359.378H252.937ZM260.328 366.126C259.61 366.126 258.956 365.963 258.368 365.636C257.79 365.309 257.332 364.847 256.996 364.25C256.67 363.643 256.506 362.943 256.506 362.15C256.506 361.366 256.674 360.675 257.01 360.078C257.356 359.471 257.822 359.009 258.41 358.692C258.998 358.365 259.656 358.202 260.384 358.202C261.112 358.202 261.77 358.365 262.358 358.692C262.946 359.009 263.408 359.467 263.744 360.064C264.09 360.661 264.262 361.357 264.262 362.15C264.262 362.943 264.085 363.643 263.73 364.25C263.385 364.847 262.914 365.309 262.316 365.636C261.719 365.963 261.056 366.126 260.328 366.126ZM260.328 365.006C260.786 365.006 261.215 364.899 261.616 364.684C262.018 364.469 262.34 364.147 262.582 363.718C262.834 363.289 262.96 362.766 262.96 362.15C262.96 361.534 262.839 361.011 262.596 360.582C262.354 360.153 262.036 359.835 261.644 359.63C261.252 359.415 260.828 359.308 260.37 359.308C259.904 359.308 259.474 359.415 259.082 359.63C258.7 359.835 258.392 360.153 258.158 360.582C257.925 361.011 257.808 361.534 257.808 362.15C257.808 362.775 257.92 363.303 258.144 363.732C258.378 364.161 258.686 364.483 259.068 364.698C259.451 364.903 259.871 365.006 260.328 365.006ZM271.757 360.33V361.408H266.171V360.33H271.757ZM275.922 357.278V360.54H279.478V361.59H275.922V364.95H279.898V366H274.648V356.228H279.898V357.278H275.922ZM286.064 358.188C286.997 358.188 287.753 358.473 288.332 359.042C288.911 359.602 289.2 360.414 289.2 361.478V366H287.94V361.66C287.94 360.895 287.749 360.311 287.366 359.91C286.983 359.499 286.461 359.294 285.798 359.294C285.126 359.294 284.589 359.504 284.188 359.924C283.796 360.344 283.6 360.955 283.6 361.758V366H282.326V358.328H283.6V359.42C283.852 359.028 284.193 358.725 284.622 358.51C285.061 358.295 285.541 358.188 286.064 358.188ZM291.305 362.136C291.305 361.352 291.464 360.666 291.781 360.078C292.098 359.481 292.532 359.019 293.083 358.692C293.643 358.365 294.268 358.202 294.959 358.202C295.556 358.202 296.112 358.342 296.625 358.622C297.138 358.893 297.53 359.252 297.801 359.7V355.64H299.089V366H297.801V364.558C297.549 365.015 297.176 365.393 296.681 365.692C296.186 365.981 295.608 366.126 294.945 366.126C294.264 366.126 293.643 365.958 293.083 365.622C292.532 365.286 292.098 364.815 291.781 364.208C291.464 363.601 291.305 362.911 291.305 362.136ZM297.801 362.15C297.801 361.571 297.684 361.067 297.451 360.638C297.218 360.209 296.9 359.882 296.499 359.658C296.107 359.425 295.673 359.308 295.197 359.308C294.721 359.308 294.287 359.42 293.895 359.644C293.503 359.868 293.19 360.195 292.957 360.624C292.724 361.053 292.607 361.557 292.607 362.136C292.607 362.724 292.724 363.237 292.957 363.676C293.19 364.105 293.503 364.437 293.895 364.67C294.287 364.894 294.721 365.006 295.197 365.006C295.673 365.006 296.107 364.894 296.499 364.67C296.9 364.437 297.218 364.105 297.451 363.676C297.684 363.237 297.801 362.729 297.801 362.15ZM307.248 357.278V360.54H310.804V361.59H307.248V364.95H311.224V366H305.974V356.228H311.224V357.278H307.248ZM317.39 358.188C318.324 358.188 319.08 358.473 319.658 359.042C320.237 359.602 320.526 360.414 320.526 361.478V366H319.266V361.66C319.266 360.895 319.075 360.311 318.692 359.91C318.31 359.499 317.787 359.294 317.124 359.294C316.452 359.294 315.916 359.504 315.514 359.924C315.122 360.344 314.926 360.955 314.926 361.758V366H313.652V358.328H314.926V359.42C315.178 359.028 315.519 358.725 315.948 358.51C316.387 358.295 316.868 358.188 317.39 358.188ZM322.631 362.15C322.631 361.357 322.79 360.666 323.107 360.078C323.425 359.481 323.863 359.019 324.423 358.692C324.993 358.365 325.641 358.202 326.369 358.202C327.312 358.202 328.087 358.431 328.693 358.888C329.309 359.345 329.715 359.98 329.911 360.792H328.539C328.409 360.325 328.152 359.957 327.769 359.686C327.396 359.415 326.929 359.28 326.369 359.28C325.641 359.28 325.053 359.532 324.605 360.036C324.157 360.531 323.933 361.235 323.933 362.15C323.933 363.074 324.157 363.788 324.605 364.292C325.053 364.796 325.641 365.048 326.369 365.048C326.929 365.048 327.396 364.917 327.769 364.656C328.143 364.395 328.399 364.021 328.539 363.536H329.911C329.706 364.32 329.295 364.95 328.679 365.426C328.063 365.893 327.293 366.126 326.369 366.126C325.641 366.126 324.993 365.963 324.423 365.636C323.863 365.309 323.425 364.847 323.107 364.25C322.79 363.653 322.631 362.953 322.631 362.15ZM333.385 359.574C333.609 359.135 333.927 358.795 334.337 358.552C334.757 358.309 335.266 358.188 335.863 358.188V359.504H335.527C334.099 359.504 333.385 360.279 333.385 361.828V366H332.111V358.328H333.385V359.574ZM344.442 358.328L339.822 369.612H338.506L340.018 365.916L336.924 358.328H338.338L340.746 364.544L343.126 358.328H344.442ZM347.497 359.742C347.749 359.303 348.122 358.939 348.617 358.65C349.121 358.351 349.704 358.202 350.367 358.202C351.048 358.202 351.664 358.365 352.215 358.692C352.775 359.019 353.213 359.481 353.531 360.078C353.848 360.666 354.007 361.352 354.007 362.136C354.007 362.911 353.848 363.601 353.531 364.208C353.213 364.815 352.775 365.286 352.215 365.622C351.664 365.958 351.048 366.126 350.367 366.126C349.713 366.126 349.135 365.981 348.631 365.692C348.136 365.393 347.758 365.025 347.497 364.586V369.64H346.223V358.328H347.497V359.742ZM352.705 362.136C352.705 361.557 352.588 361.053 352.355 360.624C352.121 360.195 351.804 359.868 351.403 359.644C351.011 359.42 350.577 359.308 350.101 359.308C349.634 359.308 349.2 359.425 348.799 359.658C348.407 359.882 348.089 360.213 347.847 360.652C347.613 361.081 347.497 361.581 347.497 362.15C347.497 362.729 347.613 363.237 347.847 363.676C348.089 364.105 348.407 364.437 348.799 364.67C349.2 364.894 349.634 365.006 350.101 365.006C350.577 365.006 351.011 364.894 351.403 364.67C351.804 364.437 352.121 364.105 352.355 363.676C352.588 363.237 352.705 362.724 352.705 362.136ZM357.737 359.378V363.9C357.737 364.273 357.817 364.539 357.975 364.698C358.134 364.847 358.409 364.922 358.801 364.922H359.739V366H358.591C357.882 366 357.35 365.837 356.995 365.51C356.641 365.183 356.463 364.647 356.463 363.9V359.378H355.469V358.328H356.463V356.396H357.737V358.328H359.739V359.378H357.737ZM362.441 357.082C362.198 357.082 361.993 356.998 361.825 356.83C361.657 356.662 361.573 356.457 361.573 356.214C361.573 355.971 361.657 355.766 361.825 355.598C361.993 355.43 362.198 355.346 362.441 355.346C362.674 355.346 362.87 355.43 363.029 355.598C363.197 355.766 363.281 355.971 363.281 356.214C363.281 356.457 363.197 356.662 363.029 356.83C362.87 356.998 362.674 357.082 362.441 357.082ZM363.057 358.328V366H361.783V358.328H363.057ZM369.074 366.126C368.356 366.126 367.702 365.963 367.114 365.636C366.536 365.309 366.078 364.847 365.742 364.25C365.416 363.643 365.252 362.943 365.252 362.15C365.252 361.366 365.42 360.675 365.756 360.078C366.102 359.471 366.568 359.009 367.156 358.692C367.744 358.365 368.402 358.202 369.13 358.202C369.858 358.202 370.516 358.365 371.104 358.692C371.692 359.009 372.154 359.467 372.49 360.064C372.836 360.661 373.008 361.357 373.008 362.15C373.008 362.943 372.831 363.643 372.476 364.25C372.131 364.847 371.66 365.309 371.062 365.636C370.465 365.963 369.802 366.126 369.074 366.126ZM369.074 365.006C369.532 365.006 369.961 364.899 370.362 364.684C370.764 364.469 371.086 364.147 371.328 363.718C371.58 363.289 371.706 362.766 371.706 362.15C371.706 361.534 371.585 361.011 371.342 360.582C371.1 360.153 370.782 359.835 370.39 359.63C369.998 359.415 369.574 359.308 369.116 359.308C368.65 359.308 368.22 359.415 367.828 359.63C367.446 359.835 367.138 360.153 366.904 360.582C366.671 361.011 366.554 361.534 366.554 362.15C366.554 362.775 366.666 363.303 366.89 363.732C367.124 364.161 367.432 364.483 367.814 364.698C368.197 364.903 368.617 365.006 369.074 365.006ZM378.921 358.188C379.855 358.188 380.611 358.473 381.189 359.042C381.768 359.602 382.057 360.414 382.057 361.478V366H380.797V361.66C380.797 360.895 380.606 360.311 380.223 359.91C379.841 359.499 379.318 359.294 378.655 359.294C377.983 359.294 377.447 359.504 377.045 359.924C376.653 360.344 376.457 360.955 376.457 361.758V366H375.183V358.328H376.457V359.42C376.709 359.028 377.05 358.725 377.479 358.51C377.918 358.295 378.399 358.188 378.921 358.188Z" fill="white"/>
<path d="M142.917 344.169L190 362" stroke="url(#paint34_linear_1257_941)" stroke-miterlimit="10"/>
<path d="M143 338.5C139.933 338.5 137.5 340.933 137.5 344C137.5 347.067 139.933 349.5 143 349.5C146.067 349.5 148.5 347.067 148.5 344C148.5 340.933 146.067 338.5 143 338.5Z" fill="url(#paint35_linear_1257_941)" stroke="url(#paint36_linear_1257_941)"/>
<path d="M203.5 361C203.5 370.665 195.665 378.5 186 378.5C176.335 378.5 168.5 370.665 168.5 361C168.5 351.335 176.335 343.5 186 343.5C195.665 343.5 203.5 351.335 203.5 361Z" fill="url(#paint37_linear_1257_941)" stroke="url(#paint38_linear_1257_941)"/>
<rect x="130.5" y="418.5" width="239" height="47" rx="23.5" fill="url(#paint39_linear_1257_941)"/>
<rect x="130.5" y="418.5" width="239" height="47" rx="23.5" stroke="url(#paint40_linear_1257_941)"/>
<path d="M158.47 448.105C157.78 448.105 157.16 447.985 156.61 447.745C156.07 447.495 155.645 447.155 155.335 446.725C155.025 446.285 154.865 445.78 154.855 445.21H156.31C156.36 445.7 156.56 446.115 156.91 446.455C157.27 446.785 157.79 446.95 158.47 446.95C159.12 446.95 159.63 446.79 160 446.47C160.38 446.14 160.57 445.72 160.57 445.21C160.57 444.81 160.46 444.485 160.24 444.235C160.02 443.985 159.745 443.795 159.415 443.665C159.085 443.535 158.64 443.395 158.08 443.245C157.39 443.065 156.835 442.885 156.415 442.705C156.005 442.525 155.65 442.245 155.35 441.865C155.06 441.475 154.915 440.955 154.915 440.305C154.915 439.735 155.06 439.23 155.35 438.79C155.64 438.35 156.045 438.01 156.565 437.77C157.095 437.53 157.7 437.41 158.38 437.41C159.36 437.41 160.16 437.655 160.78 438.145C161.41 438.635 161.765 439.285 161.845 440.095H160.345C160.295 439.695 160.085 439.345 159.715 439.045C159.345 438.735 158.855 438.58 158.245 438.58C157.675 438.58 157.21 438.73 156.85 439.03C156.49 439.32 156.31 439.73 156.31 440.26C156.31 440.64 156.415 440.95 156.625 441.19C156.845 441.43 157.11 441.615 157.42 441.745C157.74 441.865 158.185 442.005 158.755 442.165C159.445 442.355 160 442.545 160.42 442.735C160.84 442.915 161.2 443.2 161.5 443.59C161.8 443.97 161.95 444.49 161.95 445.15C161.95 445.66 161.815 446.14 161.545 446.59C161.275 447.04 160.875 447.405 160.345 447.685C159.815 447.965 159.19 448.105 158.47 448.105ZM171.959 443.575C171.959 443.835 171.944 444.11 171.914 444.4H165.344C165.394 445.21 165.669 445.845 166.169 446.305C166.679 446.755 167.294 446.98 168.014 446.98C168.604 446.98 169.094 446.845 169.484 446.575C169.884 446.295 170.164 445.925 170.324 445.465H171.794C171.574 446.255 171.134 446.9 170.474 447.4C169.814 447.89 168.994 448.135 168.014 448.135C167.234 448.135 166.534 447.96 165.914 447.61C165.304 447.26 164.824 446.765 164.474 446.125C164.124 445.475 163.949 444.725 163.949 443.875C163.949 443.025 164.119 442.28 164.459 441.64C164.799 441 165.274 440.51 165.884 440.17C166.504 439.82 167.214 439.645 168.014 439.645C168.794 439.645 169.484 439.815 170.084 440.155C170.684 440.495 171.144 440.965 171.464 441.565C171.794 442.155 171.959 442.825 171.959 443.575ZM170.549 443.29C170.549 442.77 170.434 442.325 170.204 441.955C169.974 441.575 169.659 441.29 169.259 441.1C168.869 440.9 168.434 440.8 167.954 440.8C167.264 440.8 166.674 441.02 166.184 441.46C165.704 441.9 165.429 442.51 165.359 443.29H170.549ZM173.75 443.875C173.75 443.025 173.92 442.285 174.26 441.655C174.6 441.015 175.07 440.52 175.67 440.17C176.28 439.82 176.975 439.645 177.755 439.645C178.765 439.645 179.595 439.89 180.245 440.38C180.905 440.87 181.34 441.55 181.55 442.42H180.08C179.94 441.92 179.665 441.525 179.255 441.235C178.855 440.945 178.355 440.8 177.755 440.8C176.975 440.8 176.345 441.07 175.865 441.61C175.385 442.14 175.145 442.895 175.145 443.875C175.145 444.865 175.385 445.63 175.865 446.17C176.345 446.71 176.975 446.98 177.755 446.98C178.355 446.98 178.855 446.84 179.255 446.56C179.655 446.28 179.93 445.88 180.08 445.36H181.55C181.33 446.2 180.89 446.875 180.23 447.385C179.57 447.885 178.745 448.135 177.755 448.135C176.975 448.135 176.28 447.96 175.67 447.61C175.07 447.26 174.6 446.765 174.26 446.125C173.92 445.485 173.75 444.735 173.75 443.875ZM191.162 439.78V448H189.797V446.785C189.537 447.205 189.172 447.535 188.702 447.775C188.242 448.005 187.732 448.12 187.172 448.12C186.532 448.12 185.957 447.99 185.447 447.73C184.937 447.46 184.532 447.06 184.232 446.53C183.942 446 183.797 445.355 183.797 444.595V439.78H185.147V444.415C185.147 445.225 185.352 445.85 185.762 446.29C186.172 446.72 186.732 446.935 187.442 446.935C188.172 446.935 188.747 446.71 189.167 446.26C189.587 445.81 189.797 445.155 189.797 444.295V439.78H191.162ZM195.332 441.115C195.572 440.645 195.912 440.28 196.352 440.02C196.802 439.76 197.347 439.63 197.987 439.63V441.04H197.627C196.097 441.04 195.332 441.87 195.332 443.53V448H193.967V439.78H195.332V441.115ZM207.562 443.575C207.562 443.835 207.547 444.11 207.517 444.4H200.947C200.997 445.21 201.272 445.845 201.772 446.305C202.282 446.755 202.897 446.98 203.617 446.98C204.207 446.98 204.697 446.845 205.087 446.575C205.487 446.295 205.767 445.925 205.927 445.465H207.397C207.177 446.255 206.737 446.9 206.077 447.4C205.417 447.89 204.597 448.135 203.617 448.135C202.837 448.135 202.137 447.96 201.517 447.61C200.907 447.26 200.427 446.765 200.077 446.125C199.727 445.475 199.552 444.725 199.552 443.875C199.552 443.025 199.722 442.28 200.062 441.64C200.402 441 200.877 440.51 201.487 440.17C202.107 439.82 202.817 439.645 203.617 439.645C204.397 439.645 205.087 439.815 205.687 440.155C206.287 440.495 206.747 440.965 207.067 441.565C207.397 442.155 207.562 442.825 207.562 443.575ZM206.152 443.29C206.152 442.77 206.037 442.325 205.807 441.955C205.577 441.575 205.262 441.29 204.862 441.1C204.472 440.9 204.037 440.8 203.557 440.8C202.867 440.8 202.277 441.02 201.787 441.46C201.307 441.9 201.032 442.51 200.962 443.29H206.152ZM219.598 442.615C219.978 442.675 220.323 442.83 220.633 443.08C220.953 443.33 221.203 443.64 221.383 444.01C221.573 444.38 221.668 444.775 221.668 445.195C221.668 445.725 221.533 446.205 221.263 446.635C220.993 447.055 220.598 447.39 220.078 447.64C219.568 447.88 218.963 448 218.263 448H214.363V437.545H218.113C218.823 437.545 219.428 437.665 219.928 437.905C220.428 438.135 220.803 438.45 221.053 438.85C221.303 439.25 221.428 439.7 221.428 440.2C221.428 440.82 221.258 441.335 220.918 441.745C220.588 442.145 220.148 442.435 219.598 442.615ZM215.728 442.06H218.023C218.663 442.06 219.158 441.91 219.508 441.61C219.858 441.31 220.033 440.895 220.033 440.365C220.033 439.835 219.858 439.42 219.508 439.12C219.158 438.82 218.653 438.67 217.993 438.67H215.728V442.06ZM218.143 446.875C218.823 446.875 219.353 446.715 219.733 446.395C220.113 446.075 220.303 445.63 220.303 445.06C220.303 444.48 220.103 444.025 219.703 443.695C219.303 443.355 218.768 443.185 218.098 443.185H215.728V446.875H218.143ZM223.552 443.86C223.552 443.02 223.722 442.285 224.062 441.655C224.402 441.015 224.867 440.52 225.457 440.17C226.057 439.82 226.722 439.645 227.452 439.645C228.172 439.645 228.797 439.8 229.327 440.11C229.857 440.42 230.252 440.81 230.512 441.28V439.78H231.892V448H230.512V446.47C230.242 446.95 229.837 447.35 229.297 447.67C228.767 447.98 228.147 448.135 227.437 448.135C226.707 448.135 226.047 447.955 225.457 447.595C224.867 447.235 224.402 446.73 224.062 446.08C223.722 445.43 223.552 444.69 223.552 443.86ZM230.512 443.875C230.512 443.255 230.387 442.715 230.137 442.255C229.887 441.795 229.547 441.445 229.117 441.205C228.697 440.955 228.232 440.83 227.722 440.83C227.212 440.83 226.747 440.95 226.327 441.19C225.907 441.43 225.572 441.78 225.322 442.24C225.072 442.7 224.947 443.24 224.947 443.86C224.947 444.49 225.072 445.04 225.322 445.51C225.572 445.97 225.907 446.325 226.327 446.575C226.747 446.815 227.212 446.935 227.722 446.935C228.232 446.935 228.697 446.815 229.117 446.575C229.547 446.325 229.887 445.97 230.137 445.51C230.387 445.04 230.512 444.495 230.512 443.875ZM238.704 439.63C239.704 439.63 240.514 439.935 241.134 440.545C241.754 441.145 242.064 442.015 242.064 443.155V448H240.714V443.35C240.714 442.53 240.509 441.905 240.099 441.475C239.689 441.035 239.129 440.815 238.419 440.815C237.699 440.815 237.124 441.04 236.694 441.49C236.274 441.94 236.064 442.595 236.064 443.455V448H234.699V439.78H236.064V440.95C236.334 440.53 236.699 440.205 237.159 439.975C237.629 439.745 238.144 439.63 238.704 439.63ZM249.384 448L246.159 444.37V448H244.794V436.9H246.159V443.425L249.324 439.78H251.229L247.359 443.875L251.244 448H249.384ZM253.718 438.445C253.458 438.445 253.238 438.355 253.058 438.175C252.878 437.995 252.788 437.775 252.788 437.515C252.788 437.255 252.878 437.035 253.058 436.855C253.238 436.675 253.458 436.585 253.718 436.585C253.968 436.585 254.178 436.675 254.348 436.855C254.528 437.035 254.618 437.255 254.618 437.515C254.618 437.775 254.528 437.995 254.348 438.175C254.178 438.355 253.968 438.445 253.718 438.445ZM254.378 439.78V448H253.013V439.78H254.378ZM261.21 439.63C262.21 439.63 263.02 439.935 263.64 440.545C264.26 441.145 264.57 442.015 264.57 443.155V448H263.22V443.35C263.22 442.53 263.015 441.905 262.605 441.475C262.195 441.035 261.635 440.815 260.925 440.815C260.205 440.815 259.63 441.04 259.2 441.49C258.78 441.94 258.57 442.595 258.57 443.455V448H257.205V439.78H258.57V440.95C258.84 440.53 259.205 440.205 259.665 439.975C260.135 439.745 260.65 439.63 261.21 439.63ZM270.69 439.645C271.4 439.645 272.02 439.8 272.55 440.11C273.09 440.42 273.49 440.81 273.75 441.28V439.78H275.13V448.18C275.13 448.93 274.97 449.595 274.65 450.175C274.33 450.765 273.87 451.225 273.27 451.555C272.68 451.885 271.99 452.05 271.2 452.05C270.12 452.05 269.22 451.795 268.5 451.285C267.78 450.775 267.355 450.08 267.225 449.2H268.575C268.725 449.7 269.035 450.1 269.505 450.4C269.975 450.71 270.54 450.865 271.2 450.865C271.95 450.865 272.56 450.63 273.03 450.16C273.51 449.69 273.75 449.03 273.75 448.18V446.455C273.48 446.935 273.08 447.335 272.55 447.655C272.02 447.975 271.4 448.135 270.69 448.135C269.96 448.135 269.295 447.955 268.695 447.595C268.105 447.235 267.64 446.73 267.3 446.08C266.96 445.43 266.79 444.69 266.79 443.86C266.79 443.02 266.96 442.285 267.3 441.655C267.64 441.015 268.105 440.52 268.695 440.17C269.295 439.82 269.96 439.645 270.69 439.645ZM273.75 443.875C273.75 443.255 273.625 442.715 273.375 442.255C273.125 441.795 272.785 441.445 272.355 441.205C271.935 440.955 271.47 440.83 270.96 440.83C270.45 440.83 269.985 440.95 269.565 441.19C269.145 441.43 268.81 441.78 268.56 442.24C268.31 442.7 268.185 443.24 268.185 443.86C268.185 444.49 268.31 445.04 268.56 445.51C268.81 445.97 269.145 446.325 269.565 446.575C269.985 446.815 270.45 446.935 270.96 446.935C271.47 446.935 271.935 446.815 272.355 446.575C272.785 446.325 273.125 445.97 273.375 445.51C273.625 445.04 273.75 444.495 273.75 443.875ZM288.615 445.675H284.055L283.215 448H281.775L285.555 437.605H287.13L290.895 448H289.455L288.615 445.675ZM288.225 444.565L286.335 439.285L284.445 444.565H288.225ZM292.533 443.875C292.533 443.025 292.703 442.285 293.043 441.655C293.383 441.015 293.853 440.52 294.453 440.17C295.063 439.82 295.758 439.645 296.538 439.645C297.548 439.645 298.378 439.89 299.028 440.38C299.688 440.87 300.123 441.55 300.333 442.42H298.863C298.723 441.92 298.448 441.525 298.038 441.235C297.638 440.945 297.138 440.8 296.538 440.8C295.758 440.8 295.128 441.07 294.648 441.61C294.168 442.14 293.928 442.895 293.928 443.875C293.928 444.865 294.168 445.63 294.648 446.17C295.128 446.71 295.758 446.98 296.538 446.98C297.138 446.98 297.638 446.84 298.038 446.56C298.438 446.28 298.713 445.88 298.863 445.36H300.333C300.113 446.2 299.673 446.875 299.013 447.385C298.353 447.885 297.528 448.135 296.538 448.135C295.758 448.135 295.063 447.96 294.453 447.61C293.853 447.26 293.383 446.765 293.043 446.125C292.703 445.485 292.533 444.735 292.533 443.875ZM302.144 443.875C302.144 443.025 302.314 442.285 302.654 441.655C302.994 441.015 303.464 440.52 304.064 440.17C304.674 439.82 305.369 439.645 306.149 439.645C307.159 439.645 307.989 439.89 308.639 440.38C309.299 440.87 309.734 441.55 309.944 442.42H308.474C308.334 441.92 308.059 441.525 307.649 441.235C307.249 440.945 306.749 440.8 306.149 440.8C305.369 440.8 304.739 441.07 304.259 441.61C303.779 442.14 303.539 442.895 303.539 443.875C303.539 444.865 303.779 445.63 304.259 446.17C304.739 446.71 305.369 446.98 306.149 446.98C306.749 446.98 307.249 446.84 307.649 446.56C308.049 446.28 308.324 445.88 308.474 445.36H309.944C309.724 446.2 309.284 446.875 308.624 447.385C307.964 447.885 307.139 448.135 306.149 448.135C305.369 448.135 304.674 447.96 304.064 447.61C303.464 447.26 302.994 446.765 302.654 446.125C302.314 445.485 302.144 444.735 302.144 443.875ZM319.765 443.575C319.765 443.835 319.75 444.11 319.72 444.4H313.15C313.2 445.21 313.475 445.845 313.975 446.305C314.485 446.755 315.1 446.98 315.82 446.98C316.41 446.98 316.9 446.845 317.29 446.575C317.69 446.295 317.97 445.925 318.13 445.465H319.6C319.38 446.255 318.94 446.9 318.28 447.4C317.62 447.89 316.8 448.135 315.82 448.135C315.04 448.135 314.34 447.96 313.72 447.61C313.11 447.26 312.63 446.765 312.28 446.125C311.93 445.475 311.755 444.725 311.755 443.875C311.755 443.025 311.925 442.28 312.265 441.64C312.605 441 313.08 440.51 313.69 440.17C314.31 439.82 315.02 439.645 315.82 439.645C316.6 439.645 317.29 439.815 317.89 440.155C318.49 440.495 318.95 440.965 319.27 441.565C319.6 442.155 319.765 442.825 319.765 443.575ZM318.355 443.29C318.355 442.77 318.24 442.325 318.01 441.955C317.78 441.575 317.465 441.29 317.065 441.1C316.675 440.9 316.24 440.8 315.76 440.8C315.07 440.8 314.48 441.02 313.99 441.46C313.51 441.9 313.235 442.51 313.165 443.29H318.355ZM324.977 448.135C324.347 448.135 323.782 448.03 323.282 447.82C322.782 447.6 322.387 447.3 322.097 446.92C321.807 446.53 321.647 446.085 321.617 445.585H323.027C323.067 445.995 323.257 446.33 323.597 446.59C323.947 446.85 324.402 446.98 324.962 446.98C325.482 446.98 325.892 446.865 326.192 446.635C326.492 446.405 326.642 446.115 326.642 445.765C326.642 445.405 326.482 445.14 326.162 444.97C325.842 444.79 325.347 444.615 324.677 444.445C324.067 444.285 323.567 444.125 323.177 443.965C322.797 443.795 322.467 443.55 322.187 443.23C321.917 442.9 321.782 442.47 321.782 441.94C321.782 441.52 321.907 441.135 322.157 440.785C322.407 440.435 322.762 440.16 323.222 439.96C323.682 439.75 324.207 439.645 324.797 439.645C325.707 439.645 326.442 439.875 327.002 440.335C327.562 440.795 327.862 441.425 327.902 442.225H326.537C326.507 441.795 326.332 441.45 326.012 441.19C325.702 440.93 325.282 440.8 324.752 440.8C324.262 440.8 323.872 440.905 323.582 441.115C323.292 441.325 323.147 441.6 323.147 441.94C323.147 442.21 323.232 442.435 323.402 442.615C323.582 442.785 323.802 442.925 324.062 443.035C324.332 443.135 324.702 443.25 325.172 443.38C325.762 443.54 326.242 443.7 326.612 443.86C326.982 444.01 327.297 444.24 327.557 444.55C327.827 444.86 327.967 445.265 327.977 445.765C327.977 446.215 327.852 446.62 327.602 446.98C327.352 447.34 326.997 447.625 326.537 447.835C326.087 448.035 325.567 448.135 324.977 448.135ZM333.314 448.135C332.684 448.135 332.119 448.03 331.619 447.82C331.119 447.6 330.724 447.3 330.434 446.92C330.144 446.53 329.984 446.085 329.954 445.585H331.364C331.404 445.995 331.594 446.33 331.934 446.59C332.284 446.85 332.739 446.98 333.299 446.98C333.819 446.98 334.229 446.865 334.529 446.635C334.829 446.405 334.979 446.115 334.979 445.765C334.979 445.405 334.819 445.14 334.499 444.97C334.179 444.79 333.684 444.615 333.014 444.445C332.404 444.285 331.904 444.125 331.514 443.965C331.134 443.795 330.804 443.55 330.524 443.23C330.254 442.9 330.119 442.47 330.119 441.94C330.119 441.52 330.244 441.135 330.494 440.785C330.744 440.435 331.099 440.16 331.559 439.96C332.019 439.75 332.544 439.645 333.134 439.645C334.044 439.645 334.779 439.875 335.339 440.335C335.899 440.795 336.199 441.425 336.239 442.225H334.874C334.844 441.795 334.669 441.45 334.349 441.19C334.039 440.93 333.619 440.8 333.089 440.8C332.599 440.8 332.209 440.905 331.919 441.115C331.629 441.325 331.484 441.6 331.484 441.94C331.484 442.21 331.569 442.435 331.739 442.615C331.919 442.785 332.139 442.925 332.399 443.035C332.669 443.135 333.039 443.25 333.509 443.38C334.099 443.54 334.579 443.7 334.949 443.86C335.319 444.01 335.634 444.24 335.894 444.55C336.164 444.86 336.304 445.265 336.314 445.765C336.314 446.215 336.189 446.62 335.939 446.98C335.689 447.34 335.334 447.625 334.874 447.835C334.424 448.035 333.904 448.135 333.314 448.135Z" fill="white"/>
<path d="M93.5 407L124 441.5" stroke="url(#paint41_linear_1257_941)" stroke-miterlimit="10"/>
<path d="M93 400.5C89.9332 400.5 87.5 402.933 87.5 406C87.5 409.067 89.9332 411.5 93 411.5C96.0669 411.5 98.5 409.067 98.5 406C98.5 402.933 96.0669 400.5 93 400.5Z" fill="url(#paint42_linear_1257_941)" stroke="url(#paint43_linear_1257_941)"/>
<path d="M142.5 442C142.5 451.665 134.665 459.5 125 459.5C115.335 459.5 107.5 451.665 107.5 442C107.5 432.335 115.335 424.5 125 424.5C134.665 424.5 142.5 432.335 142.5 442Z" fill="url(#paint44_linear_1257_941)" stroke="url(#paint45_linear_1257_941)"/>
<path d="M127.82 112.46V124L125.54 123.98V115.2L121.4 116.92V114.32L125.54 112.46H127.82Z" fill="white"/>
<path d="M178.8 199.48L181.08 198.1H185.22V200.36H181.24V202.64H185.14V205H178.8V199.48ZM178.8 197.12V194.84L181.08 193.46H185.22V195.74H181.32V197.12H178.8ZM192.62 205H186.2V202.64H192.62V205ZM190.02 200.36H186.12V198.1H190.02V195.74H186.12V193.46H190.26L192.62 194.84V198.98L190.02 200.36Z" fill="white"/>
<path d="M206.22 286.02H202.08V283.66H205.98V281.38H202.08V279.12H205.98V276.76H202.08V274.48H206.22L208.5 275.86V279.28L206.62 280.24L208.5 281.14V284.64L206.22 286.02ZM197.2 282.28V283.66H201.1V286.02H196.96L194.6 284.64V282.28H197.2ZM194.68 278.14V275.86L196.96 274.48H201.1V276.76H197.2V278.14H194.68ZM201.1 281.38H198.58V279.12H201.1V281.38Z" fill="white"/>
<path d="M192.42 366.98H190.08V362.44H185.94V360.1H190.08V355.48H192.42V366.98ZM182.54 360.1H184.96V362.44H178.4L182.54 355.56H185.28L182.54 360.1Z" fill="white"/>
<path d="M117.8 436.46H124.26V438.74H120.34V441.04H124.26V443.4H117.8V436.46ZM120.34 444.3V445.7H124.26V447.98H120.08L117.8 446.6V444.3H120.34ZM131.7 438.74H125.24V436.46H131.7V438.74ZM131.7 442.42V446.6L129.42 447.98H125.24V445.7H129.16V443.4H125.24V441.04H129.16L131.7 442.42Z" fill="white"/>
<defs>
<linearGradient id="paint0_linear_1257_941" x1="27.5" y1="-380.625" x2="714.464" y2="127.526" gradientUnits="userSpaceOnUse">
<stop offset="0.303689" stop-color="#004B4B" stop-opacity="0"/>
<stop offset="0.454116" stop-color="#004B4B" stop-opacity="0.4"/>
<stop offset="0.499089" stop-color="#004B4B"/>
<stop offset="0.64438" stop-color="#26DDFF"/>
<stop offset="0.953267" stop-color="#26DDFF" stop-opacity="0"/>
</linearGradient>
<linearGradient id="paint1_linear_1257_941" x1="184" y1="260.5" x2="94.6909" y2="261.688" gradientUnits="userSpaceOnUse">
<stop stop-color="#12637E"/>
<stop offset="0.781" stop-color="#04182D" stop-opacity="0.4"/>
</linearGradient>
<linearGradient id="paint2_linear_1257_941" x1="-19.2105" y1="-2571.26" x2="340.819" y2="-2549.75" gradientUnits="userSpaceOnUse">
<stop offset="0.303689" stop-color="#004B4B" stop-opacity="0"/>
<stop offset="0.422945" stop-color="#004B4B" stop-opacity="0.4"/>
<stop offset="0.499089" stop-color="#004B4B"/>
<stop offset="0.649516" stop-color="#26DDFF"/>
<stop offset="0.953267" stop-color="#26DDFF" stop-opacity="0"/>
</linearGradient>
<linearGradient id="paint3_linear_1257_941" x1="117.949" y1="267.5" x2="60.6993" y2="268.262" gradientUnits="userSpaceOnUse">
<stop stop-color="#12637E"/>
<stop offset="0.781" stop-color="#04182D" stop-opacity="0.4"/>
</linearGradient>
<linearGradient id="paint4_linear_1257_941" x1="-12.3144" y1="-1547.73" x2="218.474" y2="-1533.94" gradientUnits="userSpaceOnUse">
<stop offset="0.303689" stop-color="#004B4B" stop-opacity="0"/>
<stop offset="0.422945" stop-color="#004B4B" stop-opacity="0.4"/>
<stop offset="0.499089" stop-color="#004B4B"/>
<stop offset="0.649516" stop-color="#26DDFF"/>
<stop offset="0.953267" stop-color="#26DDFF" stop-opacity="0"/>
</linearGradient>
<linearGradient id="paint5_linear_1257_941" x1="184" y1="260.5" x2="94.6909" y2="261.688" gradientUnits="userSpaceOnUse">
<stop stop-color="#12637E"/>
<stop offset="0.781" stop-color="#04182D" stop-opacity="0.4"/>
</linearGradient>
<linearGradient id="paint6_linear_1257_941" x1="-19.2105" y1="-2571.26" x2="340.819" y2="-2549.75" gradientUnits="userSpaceOnUse">
<stop offset="0.303689" stop-color="#004B4B" stop-opacity="0"/>
<stop offset="0.422945" stop-color="#004B4B" stop-opacity="0.4"/>
<stop offset="0.499089" stop-color="#004B4B"/>
<stop offset="0.649516" stop-color="#26DDFF"/>
<stop offset="0.953267" stop-color="#26DDFF" stop-opacity="0"/>
</linearGradient>
<linearGradient id="paint7_linear_1257_941" x1="117.949" y1="267.5" x2="60.6993" y2="268.262" gradientUnits="userSpaceOnUse">
<stop stop-color="#12637E"/>
<stop offset="0.781" stop-color="#04182D" stop-opacity="0.4"/>
</linearGradient>
<linearGradient id="paint8_linear_1257_941" x1="-12.3144" y1="-1547.73" x2="218.474" y2="-1533.94" gradientUnits="userSpaceOnUse">
<stop offset="0.303689" stop-color="#004B4B" stop-opacity="0"/>
<stop offset="0.422945" stop-color="#004B4B" stop-opacity="0.4"/>
<stop offset="0.499089" stop-color="#004B4B"/>
<stop offset="0.649516" stop-color="#26DDFF"/>
<stop offset="0.953267" stop-color="#26DDFF" stop-opacity="0"/>
</linearGradient>
<linearGradient id="paint9_linear_1257_941" x1="63.6923" y1="273.25" x2="32.7776" y2="273.661" gradientUnits="userSpaceOnUse">
<stop stop-color="#12637E"/>
<stop offset="0.781" stop-color="#04182D" stop-opacity="0.4"/>
</linearGradient>
<linearGradient id="paint10_linear_1257_941" x1="-6.64978" y1="-706.974" x2="117.976" y2="-699.529" gradientUnits="userSpaceOnUse">
<stop offset="0.303689" stop-color="#004B4B" stop-opacity="0"/>
<stop offset="0.422945" stop-color="#004B4B" stop-opacity="0.4"/>
<stop offset="0.499089" stop-color="#004B4B"/>
<stop offset="0.649516" stop-color="#26DDFF"/>
<stop offset="0.953267" stop-color="#26DDFF" stop-opacity="0"/>
</linearGradient>
<linearGradient id="paint11_linear_1257_941" x1="371.727" y1="74.4288" x2="360.242" y2="164.2" gradientUnits="userSpaceOnUse">
<stop stop-color="#12637E"/>
<stop offset="0.781" stop-color="#04182D"/>
</linearGradient>
<linearGradient id="paint12_linear_1257_941" x1="457.5" y1="83.5" x2="445.673" y2="173.039" gradientUnits="userSpaceOnUse">
<stop offset="0.303689" stop-color="#004B4B" stop-opacity="0"/>
<stop offset="0.422945" stop-color="#004B4B" stop-opacity="0.4"/>
<stop offset="0.499089" stop-color="#004B4B"/>
<stop offset="0.649516" stop-color="#26DDFF"/>
<stop offset="0.953267" stop-color="#26DDFF" stop-opacity="0"/>
</linearGradient>
<linearGradient id="paint13_linear_1257_941" x1="85.6649" y1="236.833" x2="171.167" y2="199.378" gradientUnits="userSpaceOnUse">
<stop offset="0.303689" stop-color="#004B4B" stop-opacity="0"/>
<stop offset="0.422945" stop-color="#004B4B" stop-opacity="0.4"/>
<stop offset="0.499089" stop-color="#004B4B"/>
<stop offset="0.649516" stop-color="#26DDFF"/>
<stop offset="0.953267" stop-color="#26DDFF" stop-opacity="0"/>
</linearGradient>
<linearGradient id="paint14_linear_1257_941" x1="98.072" y1="145.548" x2="89.4432" y2="159.036" gradientUnits="userSpaceOnUse">
<stop stop-color="#12637E"/>
<stop offset="0.781" stop-color="#04182D"/>
</linearGradient>
<linearGradient id="paint15_linear_1257_941" x1="86.0203" y1="132.056" x2="108.263" y2="146.671" gradientUnits="userSpaceOnUse">
<stop offset="0.303689" stop-color="#004B4B" stop-opacity="0"/>
<stop offset="0.422945" stop-color="#004B4B" stop-opacity="0.4"/>
<stop offset="0.499089" stop-color="#004B4B"/>
<stop offset="0.649516" stop-color="#26DDFF"/>
<stop offset="0.953267" stop-color="#26DDFF" stop-opacity="0"/>
</linearGradient>
<linearGradient id="paint16_linear_1257_941" x1="143.259" y1="87.5716" x2="112.196" y2="136.131" gradientUnits="userSpaceOnUse">
<stop stop-color="#12637E"/>
<stop offset="0.781" stop-color="#04182D"/>
</linearGradient>
<linearGradient id="paint17_linear_1257_941" x1="156.125" y1="94.375" x2="124.705" y2="141.949" gradientUnits="userSpaceOnUse">
<stop offset="0.303689" stop-color="#004B4B" stop-opacity="0"/>
<stop offset="0.422945" stop-color="#004B4B" stop-opacity="0.4"/>
<stop offset="0.499089" stop-color="#004B4B"/>
<stop offset="0.649516" stop-color="#26DDFF"/>
<stop offset="0.953267" stop-color="#26DDFF" stop-opacity="0"/>
</linearGradient>
<linearGradient id="paint18_linear_1257_941" x1="432.727" y1="158.429" x2="421.242" y2="248.2" gradientUnits="userSpaceOnUse">
<stop stop-color="#12637E"/>
<stop offset="0.781" stop-color="#04182D"/>
</linearGradient>
<linearGradient id="paint19_linear_1257_941" x1="518.5" y1="167.5" x2="506.673" y2="257.039" gradientUnits="userSpaceOnUse">
<stop offset="0.303689" stop-color="#004B4B" stop-opacity="0"/>
<stop offset="0.422945" stop-color="#004B4B" stop-opacity="0.4"/>
<stop offset="0.499089" stop-color="#004B4B"/>
<stop offset="0.649516" stop-color="#26DDFF"/>
<stop offset="0.953267" stop-color="#26DDFF" stop-opacity="0"/>
</linearGradient>
<linearGradient id="paint20_linear_1257_941" x1="135.082" y1="95.8363" x2="220.584" y2="133.291" gradientUnits="userSpaceOnUse">
<stop offset="0.303689" stop-color="#004B4B" stop-opacity="0"/>
<stop offset="0.422945" stop-color="#004B4B" stop-opacity="0.4"/>
<stop offset="0.499089" stop-color="#004B4B"/>
<stop offset="0.649516" stop-color="#26DDFF"/>
<stop offset="0.953267" stop-color="#26DDFF" stop-opacity="0"/>
</linearGradient>
<linearGradient id="paint21_linear_1257_941" x1="146.072" y1="202.548" x2="137.443" y2="216.036" gradientUnits="userSpaceOnUse">
<stop stop-color="#12637E"/>
<stop offset="0.781" stop-color="#04182D"/>
</linearGradient>
<linearGradient id="paint22_linear_1257_941" x1="134.02" y1="189.056" x2="156.263" y2="203.671" gradientUnits="userSpaceOnUse">
<stop offset="0.303689" stop-color="#004B4B" stop-opacity="0"/>
<stop offset="0.422945" stop-color="#004B4B" stop-opacity="0.4"/>
<stop offset="0.499089" stop-color="#004B4B"/>
<stop offset="0.649516" stop-color="#26DDFF"/>
<stop offset="0.953267" stop-color="#26DDFF" stop-opacity="0"/>
</linearGradient>
<linearGradient id="paint23_linear_1257_941" x1="204.259" y1="168.572" x2="173.196" y2="217.131" gradientUnits="userSpaceOnUse">
<stop stop-color="#12637E"/>
<stop offset="0.781" stop-color="#04182D"/>
</linearGradient>
<linearGradient id="paint24_linear_1257_941" x1="217.125" y1="175.375" x2="185.705" y2="222.949" gradientUnits="userSpaceOnUse">
<stop offset="0.303689" stop-color="#004B4B" stop-opacity="0"/>
<stop offset="0.422945" stop-color="#004B4B" stop-opacity="0.4"/>
<stop offset="0.499089" stop-color="#004B4B"/>
<stop offset="0.649516" stop-color="#26DDFF"/>
<stop offset="0.953267" stop-color="#26DDFF" stop-opacity="0"/>
</linearGradient>
<linearGradient id="paint25_linear_1257_941" x1="448.727" y1="239.429" x2="437.242" y2="329.2" gradientUnits="userSpaceOnUse">
<stop stop-color="#12637E"/>
<stop offset="0.781" stop-color="#04182D"/>
</linearGradient>
<linearGradient id="paint26_linear_1257_941" x1="534.5" y1="248.5" x2="522.673" y2="338.039" gradientUnits="userSpaceOnUse">
<stop offset="0.303689" stop-color="#004B4B" stop-opacity="0"/>
<stop offset="0.422945" stop-color="#004B4B" stop-opacity="0.4"/>
<stop offset="0.499089" stop-color="#004B4B"/>
<stop offset="0.649516" stop-color="#26DDFF"/>
<stop offset="0.953267" stop-color="#26DDFF" stop-opacity="0"/>
</linearGradient>
<linearGradient id="paint27_linear_1257_941" x1="146.082" y1="179.836" x2="231.584" y2="217.291" gradientUnits="userSpaceOnUse">
<stop offset="0.303689" stop-color="#004B4B" stop-opacity="0"/>
<stop offset="0.422945" stop-color="#004B4B" stop-opacity="0.4"/>
<stop offset="0.499089" stop-color="#004B4B"/>
<stop offset="0.649516" stop-color="#26DDFF"/>
<stop offset="0.953267" stop-color="#26DDFF" stop-opacity="0"/>
</linearGradient>
<linearGradient id="paint28_linear_1257_941" x1="161.072" y1="271.548" x2="152.443" y2="285.036" gradientUnits="userSpaceOnUse">
<stop stop-color="#12637E"/>
<stop offset="0.781" stop-color="#04182D"/>
</linearGradient>
<linearGradient id="paint29_linear_1257_941" x1="149.02" y1="258.056" x2="171.263" y2="272.671" gradientUnits="userSpaceOnUse">
<stop offset="0.303689" stop-color="#004B4B" stop-opacity="0"/>
<stop offset="0.422945" stop-color="#004B4B" stop-opacity="0.4"/>
<stop offset="0.499089" stop-color="#004B4B"/>
<stop offset="0.649516" stop-color="#26DDFF"/>
<stop offset="0.953267" stop-color="#26DDFF" stop-opacity="0"/>
</linearGradient>
<linearGradient id="paint30_linear_1257_941" x1="220.259" y1="249.572" x2="189.196" y2="298.131" gradientUnits="userSpaceOnUse">
<stop stop-color="#12637E"/>
<stop offset="0.781" stop-color="#04182D"/>
</linearGradient>
<linearGradient id="paint31_linear_1257_941" x1="233.125" y1="256.375" x2="201.705" y2="303.949" gradientUnits="userSpaceOnUse">
<stop offset="0.303689" stop-color="#004B4B" stop-opacity="0"/>
<stop offset="0.422945" stop-color="#004B4B" stop-opacity="0.4"/>
<stop offset="0.499089" stop-color="#004B4B"/>
<stop offset="0.649516" stop-color="#26DDFF"/>
<stop offset="0.953267" stop-color="#26DDFF" stop-opacity="0"/>
</linearGradient>
<linearGradient id="paint32_linear_1257_941" x1="432.727" y1="320.429" x2="421.242" y2="410.2" gradientUnits="userSpaceOnUse">
<stop stop-color="#12637E"/>
<stop offset="0.781" stop-color="#04182D"/>
</linearGradient>
<linearGradient id="paint33_linear_1257_941" x1="518.5" y1="329.5" x2="506.673" y2="419.039" gradientUnits="userSpaceOnUse">
<stop offset="0.303689" stop-color="#004B4B" stop-opacity="0"/>
<stop offset="0.422945" stop-color="#004B4B" stop-opacity="0.4"/>
<stop offset="0.499089" stop-color="#004B4B"/>
<stop offset="0.649516" stop-color="#26DDFF"/>
<stop offset="0.953267" stop-color="#26DDFF" stop-opacity="0"/>
</linearGradient>
<linearGradient id="paint34_linear_1257_941" x1="135.082" y1="260.836" x2="220.584" y2="298.291" gradientUnits="userSpaceOnUse">
<stop offset="0.303689" stop-color="#004B4B" stop-opacity="0"/>
<stop offset="0.422945" stop-color="#004B4B" stop-opacity="0.4"/>
<stop offset="0.499089" stop-color="#004B4B"/>
<stop offset="0.649516" stop-color="#26DDFF"/>
<stop offset="0.953267" stop-color="#26DDFF" stop-opacity="0"/>
</linearGradient>
<linearGradient id="paint35_linear_1257_941" x1="148.072" y1="335.548" x2="139.443" y2="349.036" gradientUnits="userSpaceOnUse">
<stop stop-color="#12637E"/>
<stop offset="0.781" stop-color="#04182D"/>
</linearGradient>
<linearGradient id="paint36_linear_1257_941" x1="136.02" y1="322.056" x2="158.263" y2="336.671" gradientUnits="userSpaceOnUse">
<stop offset="0.303689" stop-color="#004B4B" stop-opacity="0"/>
<stop offset="0.422945" stop-color="#004B4B" stop-opacity="0.4"/>
<stop offset="0.499089" stop-color="#004B4B"/>
<stop offset="0.649516" stop-color="#26DDFF"/>
<stop offset="0.953267" stop-color="#26DDFF" stop-opacity="0"/>
</linearGradient>
<linearGradient id="paint37_linear_1257_941" x1="204.259" y1="330.572" x2="173.196" y2="379.131" gradientUnits="userSpaceOnUse">
<stop stop-color="#12637E"/>
<stop offset="0.781" stop-color="#04182D"/>
</linearGradient>
<linearGradient id="paint38_linear_1257_941" x1="217.125" y1="337.375" x2="185.705" y2="384.949" gradientUnits="userSpaceOnUse">
<stop offset="0.303689" stop-color="#004B4B" stop-opacity="0"/>
<stop offset="0.422945" stop-color="#004B4B" stop-opacity="0.4"/>
<stop offset="0.499089" stop-color="#004B4B"/>
<stop offset="0.649516" stop-color="#26DDFF"/>
<stop offset="0.953267" stop-color="#26DDFF" stop-opacity="0"/>
</linearGradient>
<linearGradient id="paint39_linear_1257_941" x1="371.727" y1="401.429" x2="360.242" y2="491.2" gradientUnits="userSpaceOnUse">
<stop stop-color="#12637E"/>
<stop offset="0.781" stop-color="#04182D"/>
</linearGradient>
<linearGradient id="paint40_linear_1257_941" x1="457.5" y1="410.5" x2="445.673" y2="500.039" gradientUnits="userSpaceOnUse">
<stop offset="0.303689" stop-color="#004B4B" stop-opacity="0"/>
<stop offset="0.422945" stop-color="#004B4B" stop-opacity="0.4"/>
<stop offset="0.499089" stop-color="#004B4B"/>
<stop offset="0.649516" stop-color="#26DDFF"/>
<stop offset="0.953267" stop-color="#26DDFF" stop-opacity="0"/>
</linearGradient>
<linearGradient id="paint41_linear_1257_941" x1="85.6649" y1="323.667" x2="171.167" y2="361.122" gradientUnits="userSpaceOnUse">
<stop offset="0.303689" stop-color="#004B4B" stop-opacity="0"/>
<stop offset="0.422945" stop-color="#004B4B" stop-opacity="0.4"/>
<stop offset="0.499089" stop-color="#004B4B"/>
<stop offset="0.649516" stop-color="#26DDFF"/>
<stop offset="0.953267" stop-color="#26DDFF" stop-opacity="0"/>
</linearGradient>
<linearGradient id="paint42_linear_1257_941" x1="98.072" y1="397.548" x2="89.4432" y2="411.036" gradientUnits="userSpaceOnUse">
<stop stop-color="#12637E"/>
<stop offset="0.781" stop-color="#04182D"/>
</linearGradient>
<linearGradient id="paint43_linear_1257_941" x1="86.0203" y1="384.056" x2="108.263" y2="398.671" gradientUnits="userSpaceOnUse">
<stop offset="0.303689" stop-color="#004B4B" stop-opacity="0"/>
<stop offset="0.422945" stop-color="#004B4B" stop-opacity="0.4"/>
<stop offset="0.499089" stop-color="#004B4B"/>
<stop offset="0.649516" stop-color="#26DDFF"/>
<stop offset="0.953267" stop-color="#26DDFF" stop-opacity="0"/>
</linearGradient>
<linearGradient id="paint44_linear_1257_941" x1="143.259" y1="411.572" x2="112.196" y2="460.131" gradientUnits="userSpaceOnUse">
<stop stop-color="#12637E"/>
<stop offset="0.781" stop-color="#04182D"/>
</linearGradient>
<linearGradient id="paint45_linear_1257_941" x1="156.125" y1="418.375" x2="124.705" y2="465.949" gradientUnits="userSpaceOnUse">
<stop offset="0.303689" stop-color="#004B4B" stop-opacity="0"/>
<stop offset="0.422945" stop-color="#004B4B" stop-opacity="0.4"/>
<stop offset="0.499089" stop-color="#004B4B"/>
<stop offset="0.649516" stop-color="#26DDFF"/>
<stop offset="0.953267" stop-color="#26DDFF" stop-opacity="0"/>
</linearGradient>
</defs>
</svg>
