<svg width="500" height="560" viewBox="0 0 500 560" fill="none" xmlns="http://www.w3.org/2000/svg">
<rect x="0.25" y="0.25" width="499.5" height="559.5" rx="15.75" stroke="url(#paint0_linear_1237_773)" stroke-width="0.5"/>
<path d="M0 124C86.1365 124 156 193.864 156 280C156 366.136 86.1365 436 0 436" fill="url(#paint1_linear_1237_773)"/>
<path d="M0 124C86.1365 124 156 193.864 156 280C156 366.136 86.1365 436 0 436" stroke="url(#paint2_linear_1237_773)" stroke-miterlimit="10"/>
<path d="M0 180C55.2157 180 100 224.784 100 280C100 335.216 55.2157 380 0 380" fill="url(#paint3_linear_1237_773)"/>
<path d="M0 180C55.2157 180 100 224.784 100 280C100 335.216 55.2157 380 0 380" stroke="url(#paint4_linear_1237_773)" stroke-width="0.5" stroke-miterlimit="10"/>
<path d="M0 226C29.8165 226 54 250.184 54 280C54 309.816 29.8165 334 0 334" fill="url(#paint5_linear_1237_773)"/>
<path d="M0 226C29.8165 226 54 250.184 54 280C54 309.816 29.8165 334 0 334" stroke="url(#paint6_linear_1237_773)" stroke-width="0.5" stroke-miterlimit="10"/>
<rect x="130.5" y="91.5" width="239" height="47" rx="23.5" fill="url(#paint7_linear_1237_773)"/>
<rect x="130.5" y="91.5" width="239" height="47" rx="23.5" stroke="url(#paint8_linear_1237_773)"/>
<path d="M154.688 115.416C154.688 114.328 154.933 113.352 155.424 112.488C155.915 111.613 156.581 110.931 157.424 110.44C158.277 109.949 159.221 109.704 160.256 109.704C161.472 109.704 162.533 109.997 163.44 110.584C164.347 111.171 165.008 112.003 165.424 113.08H163.68C163.371 112.408 162.923 111.891 162.336 111.528C161.76 111.165 161.067 110.984 160.256 110.984C159.477 110.984 158.779 111.165 158.16 111.528C157.541 111.891 157.056 112.408 156.704 113.08C156.352 113.741 156.176 114.52 156.176 115.416C156.176 116.301 156.352 117.08 156.704 117.752C157.056 118.413 157.541 118.925 158.16 119.288C158.779 119.651 159.477 119.832 160.256 119.832C161.067 119.832 161.76 119.656 162.336 119.304C162.923 118.941 163.371 118.424 163.68 117.752H165.424C165.008 118.819 164.347 119.645 163.44 120.232C162.533 120.808 161.472 121.096 160.256 121.096C159.221 121.096 158.277 120.856 157.424 120.376C156.581 119.885 155.915 119.208 155.424 118.344C154.933 117.48 154.688 116.504 154.688 115.416ZM175.867 112.232V121H174.411V119.704C174.134 120.152 173.745 120.504 173.243 120.76C172.753 121.005 172.209 121.128 171.611 121.128C170.929 121.128 170.315 120.989 169.771 120.712C169.227 120.424 168.795 119.997 168.475 119.432C168.166 118.867 168.011 118.179 168.011 117.368V112.232H169.451V117.176C169.451 118.04 169.67 118.707 170.107 119.176C170.545 119.635 171.142 119.864 171.899 119.864C172.678 119.864 173.291 119.624 173.739 119.144C174.187 118.664 174.411 117.965 174.411 117.048V112.232H175.867ZM181.93 121.144C181.258 121.144 180.655 121.032 180.122 120.808C179.588 120.573 179.167 120.253 178.858 119.848C178.548 119.432 178.378 118.957 178.346 118.424H179.85C179.892 118.861 180.095 119.219 180.458 119.496C180.831 119.773 181.316 119.912 181.914 119.912C182.468 119.912 182.906 119.789 183.226 119.544C183.546 119.299 183.706 118.989 183.706 118.616C183.706 118.232 183.535 117.949 183.194 117.768C182.852 117.576 182.324 117.389 181.61 117.208C180.959 117.037 180.426 116.867 180.01 116.696C179.604 116.515 179.252 116.253 178.954 115.912C178.666 115.56 178.522 115.101 178.522 114.536C178.522 114.088 178.655 113.677 178.922 113.304C179.188 112.931 179.567 112.637 180.058 112.424C180.548 112.2 181.108 112.088 181.738 112.088C182.708 112.088 183.492 112.333 184.09 112.824C184.687 113.315 185.007 113.987 185.05 114.84H183.594C183.562 114.381 183.375 114.013 183.034 113.736C182.703 113.459 182.255 113.32 181.69 113.32C181.167 113.32 180.751 113.432 180.442 113.656C180.132 113.88 179.978 114.173 179.978 114.536C179.978 114.824 180.068 115.064 180.25 115.256C180.442 115.437 180.676 115.587 180.954 115.704C181.242 115.811 181.636 115.933 182.138 116.072C182.767 116.243 183.279 116.413 183.674 116.584C184.068 116.744 184.404 116.989 184.682 117.32C184.97 117.651 185.119 118.083 185.13 118.616C185.13 119.096 184.996 119.528 184.73 119.912C184.463 120.296 184.084 120.6 183.594 120.824C183.114 121.037 182.559 121.144 181.93 121.144ZM189.461 113.432V118.6C189.461 119.027 189.552 119.331 189.733 119.512C189.914 119.683 190.229 119.768 190.677 119.768H191.749V121H190.437C189.626 121 189.018 120.813 188.613 120.44C188.208 120.067 188.005 119.453 188.005 118.6V113.432H186.869V112.232H188.005V110.024H189.461V112.232H191.749V113.432H189.461ZM197.837 121.144C197.016 121.144 196.269 120.957 195.597 120.584C194.936 120.211 194.413 119.683 194.029 119C193.656 118.307 193.469 117.507 193.469 116.6C193.469 115.704 193.661 114.915 194.045 114.232C194.44 113.539 194.973 113.011 195.645 112.648C196.317 112.275 197.069 112.088 197.901 112.088C198.733 112.088 199.485 112.275 200.157 112.648C200.829 113.011 201.357 113.533 201.741 114.216C202.136 114.899 202.333 115.693 202.333 116.6C202.333 117.507 202.131 118.307 201.725 119C201.331 119.683 200.792 120.211 200.109 120.584C199.427 120.957 198.669 121.144 197.837 121.144ZM197.837 119.864C198.36 119.864 198.851 119.741 199.309 119.496C199.768 119.251 200.136 118.883 200.413 118.392C200.701 117.901 200.845 117.304 200.845 116.6C200.845 115.896 200.707 115.299 200.429 114.808C200.152 114.317 199.789 113.955 199.341 113.72C198.893 113.475 198.408 113.352 197.885 113.352C197.352 113.352 196.861 113.475 196.413 113.72C195.976 113.955 195.624 114.317 195.357 114.808C195.091 115.299 194.957 115.896 194.957 116.6C194.957 117.315 195.085 117.917 195.341 118.408C195.608 118.899 195.96 119.267 196.397 119.512C196.835 119.747 197.315 119.864 197.837 119.864ZM215.292 112.072C215.974 112.072 216.582 112.216 217.116 112.504C217.649 112.781 218.07 113.203 218.38 113.768C218.689 114.333 218.844 115.021 218.844 115.832V121H217.404V116.04C217.404 115.165 217.185 114.499 216.748 114.04C216.321 113.571 215.74 113.336 215.004 113.336C214.246 113.336 213.644 113.581 213.196 114.072C212.748 114.552 212.524 115.251 212.524 116.168V121H211.084V116.04C211.084 115.165 210.865 114.499 210.428 114.04C210.001 113.571 209.42 113.336 208.684 113.336C207.926 113.336 207.324 113.581 206.876 114.072C206.428 114.552 206.204 115.251 206.204 116.168V121H204.748V112.232H206.204V113.496C206.492 113.037 206.876 112.685 207.356 112.44C207.846 112.195 208.385 112.072 208.972 112.072C209.708 112.072 210.358 112.237 210.924 112.568C211.489 112.899 211.91 113.384 212.188 114.024C212.433 113.405 212.838 112.925 213.404 112.584C213.969 112.243 214.598 112.072 215.292 112.072ZM222.484 110.808C222.207 110.808 221.972 110.712 221.78 110.52C221.588 110.328 221.492 110.093 221.492 109.816C221.492 109.539 221.588 109.304 221.78 109.112C221.972 108.92 222.207 108.824 222.484 108.824C222.751 108.824 222.975 108.92 223.156 109.112C223.348 109.304 223.444 109.539 223.444 109.816C223.444 110.093 223.348 110.328 223.156 110.52C222.975 110.712 222.751 110.808 222.484 110.808ZM223.188 112.232V121H221.732V112.232H223.188ZM227.258 119.8H231.562V121H225.594V119.8L229.85 113.416H225.626V112.232H231.53V113.416L227.258 119.8ZM241.951 116.28C241.951 116.557 241.935 116.851 241.903 117.16H234.895C234.948 118.024 235.241 118.701 235.775 119.192C236.319 119.672 236.975 119.912 237.743 119.912C238.372 119.912 238.895 119.768 239.311 119.48C239.737 119.181 240.036 118.787 240.207 118.296H241.775C241.54 119.139 241.071 119.827 240.367 120.36C239.663 120.883 238.788 121.144 237.743 121.144C236.911 121.144 236.164 120.957 235.503 120.584C234.852 120.211 234.34 119.683 233.967 119C233.593 118.307 233.407 117.507 233.407 116.6C233.407 115.693 233.588 114.899 233.951 114.216C234.313 113.533 234.82 113.011 235.471 112.648C236.132 112.275 236.889 112.088 237.743 112.088C238.575 112.088 239.311 112.269 239.951 112.632C240.591 112.995 241.081 113.496 241.423 114.136C241.775 114.765 241.951 115.48 241.951 116.28ZM240.447 115.976C240.447 115.421 240.324 114.947 240.079 114.552C239.833 114.147 239.497 113.843 239.071 113.64C238.655 113.427 238.191 113.32 237.679 113.32C236.943 113.32 236.313 113.555 235.791 114.024C235.279 114.493 234.985 115.144 234.911 115.976H240.447ZM243.829 116.584C243.829 115.688 244.01 114.904 244.373 114.232C244.735 113.549 245.231 113.021 245.861 112.648C246.501 112.275 247.215 112.088 248.005 112.088C248.687 112.088 249.322 112.248 249.909 112.568C250.495 112.877 250.943 113.288 251.253 113.8V109.16H252.725V121H251.253V119.352C250.965 119.875 250.538 120.307 249.973 120.648C249.407 120.979 248.746 121.144 247.989 121.144C247.21 121.144 246.501 120.952 245.861 120.568C245.231 120.184 244.735 119.645 244.373 118.952C244.01 118.259 243.829 117.469 243.829 116.584ZM251.253 116.6C251.253 115.939 251.119 115.363 250.853 114.872C250.586 114.381 250.223 114.008 249.765 113.752C249.317 113.485 248.821 113.352 248.277 113.352C247.733 113.352 247.237 113.48 246.789 113.736C246.341 113.992 245.983 114.365 245.717 114.856C245.45 115.347 245.317 115.923 245.317 116.584C245.317 117.256 245.45 117.843 245.717 118.344C245.983 118.835 246.341 119.213 246.789 119.48C247.237 119.736 247.733 119.864 248.277 119.864C248.821 119.864 249.317 119.736 249.765 119.48C250.223 119.213 250.586 118.835 250.853 118.344C251.119 117.843 251.253 117.261 251.253 116.6ZM263.987 121.112C263.251 121.112 262.589 120.984 262.003 120.728C261.427 120.461 260.973 120.099 260.643 119.64C260.312 119.171 260.141 118.632 260.131 118.024H261.683C261.736 118.547 261.949 118.989 262.323 119.352C262.707 119.704 263.261 119.88 263.987 119.88C264.68 119.88 265.224 119.709 265.619 119.368C266.024 119.016 266.227 118.568 266.227 118.024C266.227 117.597 266.109 117.251 265.875 116.984C265.64 116.717 265.347 116.515 264.995 116.376C264.643 116.237 264.168 116.088 263.571 115.928C262.835 115.736 262.243 115.544 261.795 115.352C261.357 115.16 260.979 114.861 260.659 114.456C260.349 114.04 260.195 113.485 260.195 112.792C260.195 112.184 260.349 111.645 260.659 111.176C260.968 110.707 261.4 110.344 261.955 110.088C262.52 109.832 263.165 109.704 263.891 109.704C264.936 109.704 265.789 109.965 266.451 110.488C267.123 111.011 267.501 111.704 267.587 112.568H265.987C265.933 112.141 265.709 111.768 265.315 111.448C264.92 111.117 264.397 110.952 263.747 110.952C263.139 110.952 262.643 111.112 262.259 111.432C261.875 111.741 261.683 112.179 261.683 112.744C261.683 113.149 261.795 113.48 262.019 113.736C262.253 113.992 262.536 114.189 262.867 114.328C263.208 114.456 263.683 114.605 264.291 114.776C265.027 114.979 265.619 115.181 266.067 115.384C266.515 115.576 266.899 115.88 267.219 116.296C267.539 116.701 267.699 117.256 267.699 117.96C267.699 118.504 267.555 119.016 267.267 119.496C266.979 119.976 266.552 120.365 265.987 120.664C265.421 120.963 264.755 121.112 263.987 121.112ZM272.117 113.432V118.6C272.117 119.027 272.208 119.331 272.389 119.512C272.571 119.683 272.885 119.768 273.333 119.768H274.405V121H273.093C272.283 121 271.675 120.813 271.269 120.44C270.864 120.067 270.661 119.453 270.661 118.6V113.432H269.525V112.232H270.661V110.024H272.117V112.232H274.405V113.432H272.117ZM278.126 113.656C278.382 113.155 278.744 112.765 279.214 112.488C279.694 112.211 280.275 112.072 280.958 112.072V113.576H280.574C278.942 113.576 278.126 114.461 278.126 116.232V121H276.67V112.232H278.126V113.656ZM282.594 116.584C282.594 115.688 282.776 114.904 283.138 114.232C283.501 113.549 283.997 113.021 284.626 112.648C285.266 112.275 285.976 112.088 286.754 112.088C287.522 112.088 288.189 112.253 288.754 112.584C289.32 112.915 289.741 113.331 290.018 113.832V112.232H291.49V121H290.018V119.368C289.73 119.88 289.298 120.307 288.722 120.648C288.157 120.979 287.496 121.144 286.738 121.144C285.96 121.144 285.256 120.952 284.626 120.568C283.997 120.184 283.501 119.645 283.138 118.952C282.776 118.259 282.594 117.469 282.594 116.584ZM290.018 116.6C290.018 115.939 289.885 115.363 289.618 114.872C289.352 114.381 288.989 114.008 288.53 113.752C288.082 113.485 287.586 113.352 287.042 113.352C286.498 113.352 286.002 113.48 285.554 113.736C285.106 113.992 284.749 114.365 284.482 114.856C284.216 115.347 284.082 115.923 284.082 116.584C284.082 117.256 284.216 117.843 284.482 118.344C284.749 118.835 285.106 119.213 285.554 119.48C286.002 119.736 286.498 119.864 287.042 119.864C287.586 119.864 288.082 119.736 288.53 119.48C288.989 119.213 289.352 118.835 289.618 118.344C289.885 117.843 290.018 117.261 290.018 116.6ZM296.227 113.432V118.6C296.227 119.027 296.317 119.331 296.499 119.512C296.68 119.683 296.995 119.768 297.443 119.768H298.515V121H297.203C296.392 121 295.784 120.813 295.379 120.44C294.973 120.067 294.771 119.453 294.771 118.6V113.432H293.635V112.232H294.771V110.024H296.227V112.232H298.515V113.432H296.227ZM308.779 116.28C308.779 116.557 308.763 116.851 308.731 117.16H301.723C301.776 118.024 302.07 118.701 302.603 119.192C303.147 119.672 303.803 119.912 304.571 119.912C305.2 119.912 305.723 119.768 306.139 119.48C306.566 119.181 306.864 118.787 307.035 118.296H308.603C308.368 119.139 307.899 119.827 307.195 120.36C306.491 120.883 305.616 121.144 304.571 121.144C303.739 121.144 302.992 120.957 302.331 120.584C301.68 120.211 301.168 119.683 300.795 119C300.422 118.307 300.235 117.507 300.235 116.6C300.235 115.693 300.416 114.899 300.779 114.216C301.142 113.533 301.648 113.011 302.299 112.648C302.96 112.275 303.718 112.088 304.571 112.088C305.403 112.088 306.139 112.269 306.779 112.632C307.419 112.995 307.91 113.496 308.251 114.136C308.603 114.765 308.779 115.48 308.779 116.28ZM307.275 115.976C307.275 115.421 307.152 114.947 306.907 114.552C306.662 114.147 306.326 113.843 305.899 113.64C305.483 113.427 305.019 113.32 304.507 113.32C303.771 113.32 303.142 113.555 302.619 114.024C302.107 114.493 301.814 115.144 301.739 115.976H307.275ZM314.817 112.088C315.574 112.088 316.235 112.253 316.801 112.584C317.377 112.915 317.803 113.331 318.081 113.832V112.232H319.553V121.192C319.553 121.992 319.382 122.701 319.041 123.32C318.699 123.949 318.209 124.44 317.569 124.792C316.939 125.144 316.203 125.32 315.361 125.32C314.209 125.32 313.249 125.048 312.481 124.504C311.713 123.96 311.259 123.219 311.121 122.28H312.561C312.721 122.813 313.051 123.24 313.553 123.56C314.054 123.891 314.657 124.056 315.361 124.056C316.161 124.056 316.811 123.805 317.313 123.304C317.825 122.803 318.081 122.099 318.081 121.192V119.352C317.793 119.864 317.366 120.291 316.801 120.632C316.235 120.973 315.574 121.144 314.817 121.144C314.038 121.144 313.329 120.952 312.689 120.568C312.059 120.184 311.563 119.645 311.201 118.952C310.838 118.259 310.657 117.469 310.657 116.584C310.657 115.688 310.838 114.904 311.201 114.232C311.563 113.549 312.059 113.021 312.689 112.648C313.329 112.275 314.038 112.088 314.817 112.088ZM318.081 116.6C318.081 115.939 317.947 115.363 317.681 114.872C317.414 114.381 317.051 114.008 316.593 113.752C316.145 113.485 315.649 113.352 315.105 113.352C314.561 113.352 314.065 113.48 313.617 113.736C313.169 113.992 312.811 114.365 312.545 114.856C312.278 115.347 312.145 115.923 312.145 116.584C312.145 117.256 312.278 117.843 312.545 118.344C312.811 118.835 313.169 119.213 313.617 119.48C314.065 119.736 314.561 119.864 315.105 119.864C315.649 119.864 316.145 119.736 316.593 119.48C317.051 119.213 317.414 118.835 317.681 118.344C317.947 117.843 318.081 117.261 318.081 116.6ZM323.265 110.808C322.988 110.808 322.753 110.712 322.561 110.52C322.369 110.328 322.273 110.093 322.273 109.816C322.273 109.539 322.369 109.304 322.561 109.112C322.753 108.92 322.988 108.824 323.265 108.824C323.532 108.824 323.756 108.92 323.937 109.112C324.129 109.304 324.225 109.539 324.225 109.816C324.225 110.093 324.129 110.328 323.937 110.52C323.756 110.712 323.532 110.808 323.265 110.808ZM323.969 112.232V121H322.513V112.232H323.969ZM334.951 116.28C334.951 116.557 334.935 116.851 334.903 117.16H327.895C327.948 118.024 328.241 118.701 328.775 119.192C329.319 119.672 329.975 119.912 330.743 119.912C331.372 119.912 331.895 119.768 332.311 119.48C332.737 119.181 333.036 118.787 333.207 118.296H334.775C334.54 119.139 334.071 119.827 333.367 120.36C332.663 120.883 331.788 121.144 330.743 121.144C329.911 121.144 329.164 120.957 328.503 120.584C327.852 120.211 327.34 119.683 326.967 119C326.593 118.307 326.407 117.507 326.407 116.6C326.407 115.693 326.588 114.899 326.951 114.216C327.313 113.533 327.82 113.011 328.471 112.648C329.132 112.275 329.889 112.088 330.743 112.088C331.575 112.088 332.311 112.269 332.951 112.632C333.591 112.995 334.081 113.496 334.423 114.136C334.775 114.765 334.951 115.48 334.951 116.28ZM333.447 115.976C333.447 115.421 333.324 114.947 333.079 114.552C332.833 114.147 332.497 113.843 332.071 113.64C331.655 113.427 331.191 113.32 330.679 113.32C329.943 113.32 329.313 113.555 328.791 114.024C328.279 114.493 327.985 115.144 327.911 115.976H333.447ZM340.477 121.144C339.805 121.144 339.202 121.032 338.669 120.808C338.135 120.573 337.714 120.253 337.405 119.848C337.095 119.432 336.925 118.957 336.893 118.424H338.397C338.439 118.861 338.642 119.219 339.005 119.496C339.378 119.773 339.863 119.912 340.461 119.912C341.015 119.912 341.453 119.789 341.773 119.544C342.093 119.299 342.253 118.989 342.253 118.616C342.253 118.232 342.082 117.949 341.741 117.768C341.399 117.576 340.871 117.389 340.157 117.208C339.506 117.037 338.973 116.867 338.557 116.696C338.151 116.515 337.799 116.253 337.501 115.912C337.213 115.56 337.069 115.101 337.069 114.536C337.069 114.088 337.202 113.677 337.469 113.304C337.735 112.931 338.114 112.637 338.605 112.424C339.095 112.2 339.655 112.088 340.285 112.088C341.255 112.088 342.039 112.333 342.637 112.824C343.234 113.315 343.554 113.987 343.597 114.84H342.141C342.109 114.381 341.922 114.013 341.581 113.736C341.25 113.459 340.802 113.32 340.237 113.32C339.714 113.32 339.298 113.432 338.989 113.656C338.679 113.88 338.525 114.173 338.525 114.536C338.525 114.824 338.615 115.064 338.797 115.256C338.989 115.437 339.223 115.587 339.501 115.704C339.789 115.811 340.183 115.933 340.685 116.072C341.314 116.243 341.826 116.413 342.221 116.584C342.615 116.744 342.951 116.989 343.229 117.32C343.517 117.651 343.666 118.083 343.677 118.616C343.677 119.096 343.543 119.528 343.277 119.912C343.01 120.296 342.631 120.6 342.141 120.824C341.661 121.037 341.106 121.144 340.477 121.144Z" fill="white"/>
<path d="M93.5 153.5L124 119" stroke="url(#paint9_linear_1237_773)" stroke-miterlimit="10"/>
<path d="M93 148.5C89.9332 148.5 87.5 150.933 87.5 154C87.5 157.067 89.9332 159.5 93 159.5C96.0669 159.5 98.5 157.067 98.5 154C98.5 150.933 96.0669 148.5 93 148.5Z" fill="url(#paint10_linear_1237_773)" stroke="url(#paint11_linear_1237_773)"/>
<path d="M142.5 118C142.5 127.665 134.665 135.5 125 135.5C115.335 135.5 107.5 127.665 107.5 118C107.5 108.335 115.335 100.5 125 100.5C134.665 100.5 142.5 108.335 142.5 118Z" fill="url(#paint12_linear_1237_773)" stroke="url(#paint13_linear_1237_773)"/>
<rect x="191.5" y="175.5" width="239" height="47" rx="23.5" fill="url(#paint14_linear_1237_773)"/>
<rect x="191.5" y="175.5" width="239" height="47" rx="23.5" stroke="url(#paint15_linear_1237_773)"/>
<path d="M219.704 194.348C220.92 194.348 221.971 194.577 222.856 195.036C223.752 195.484 224.435 196.129 224.904 196.972C225.384 197.815 225.624 198.807 225.624 199.948C225.624 201.089 225.384 202.081 224.904 202.924C224.435 203.756 223.752 204.396 222.856 204.844C221.971 205.281 220.92 205.5 219.704 205.5H216.232V194.348H219.704ZM219.704 204.3C221.144 204.3 222.243 203.921 223 203.164C223.757 202.396 224.136 201.324 224.136 199.948C224.136 198.561 223.752 197.479 222.984 196.7C222.227 195.921 221.133 195.532 219.704 195.532H217.688V204.3H219.704ZM235.597 196.732L230.317 209.628H228.812L230.541 205.404L227.005 196.732H228.621L231.373 203.836L234.093 196.732H235.597ZM241.832 196.572C242.899 196.572 243.763 196.897 244.424 197.548C245.085 198.188 245.416 199.116 245.416 200.332V205.5H243.976V200.54C243.976 199.665 243.757 198.999 243.32 198.54C242.883 198.071 242.285 197.836 241.528 197.836C240.76 197.836 240.147 198.076 239.688 198.556C239.24 199.036 239.016 199.735 239.016 200.652V205.5H237.56V196.732H239.016V197.98C239.304 197.532 239.693 197.185 240.184 196.94C240.685 196.695 241.235 196.572 241.832 196.572ZM247.751 201.084C247.751 200.188 247.932 199.404 248.295 198.732C248.657 198.049 249.153 197.521 249.783 197.148C250.423 196.775 251.132 196.588 251.911 196.588C252.679 196.588 253.345 196.753 253.911 197.084C254.476 197.415 254.897 197.831 255.175 198.332V196.732H256.647V205.5H255.175V203.868C254.887 204.38 254.455 204.807 253.879 205.148C253.313 205.479 252.652 205.644 251.895 205.644C251.116 205.644 250.412 205.452 249.783 205.068C249.153 204.684 248.657 204.145 248.295 203.452C247.932 202.759 247.751 201.969 247.751 201.084ZM255.175 201.1C255.175 200.439 255.041 199.863 254.775 199.372C254.508 198.881 254.145 198.508 253.687 198.252C253.239 197.985 252.743 197.852 252.199 197.852C251.655 197.852 251.159 197.98 250.711 198.236C250.263 198.492 249.905 198.865 249.639 199.356C249.372 199.847 249.239 200.423 249.239 201.084C249.239 201.756 249.372 202.343 249.639 202.844C249.905 203.335 250.263 203.713 250.711 203.98C251.159 204.236 251.655 204.364 252.199 204.364C252.743 204.364 253.239 204.236 253.687 203.98C254.145 203.713 254.508 203.335 254.775 202.844C255.041 202.343 255.175 201.761 255.175 201.1ZM270.151 196.572C270.834 196.572 271.442 196.716 271.975 197.004C272.508 197.281 272.93 197.703 273.239 198.268C273.548 198.833 273.703 199.521 273.703 200.332V205.5H272.263V200.54C272.263 199.665 272.044 198.999 271.607 198.54C271.18 198.071 270.599 197.836 269.863 197.836C269.106 197.836 268.503 198.081 268.055 198.572C267.607 199.052 267.383 199.751 267.383 200.668V205.5H265.943V200.54C265.943 199.665 265.724 198.999 265.287 198.54C264.86 198.071 264.279 197.836 263.543 197.836C262.786 197.836 262.183 198.081 261.735 198.572C261.287 199.052 261.063 199.751 261.063 200.668V205.5H259.607V196.732H261.063V197.996C261.351 197.537 261.735 197.185 262.215 196.94C262.706 196.695 263.244 196.572 263.831 196.572C264.567 196.572 265.218 196.737 265.783 197.068C266.348 197.399 266.77 197.884 267.047 198.524C267.292 197.905 267.698 197.425 268.263 197.084C268.828 196.743 269.458 196.572 270.151 196.572ZM277.343 195.308C277.066 195.308 276.831 195.212 276.639 195.02C276.447 194.828 276.351 194.593 276.351 194.316C276.351 194.039 276.447 193.804 276.639 193.612C276.831 193.42 277.066 193.324 277.343 193.324C277.61 193.324 277.834 193.42 278.015 193.612C278.207 193.804 278.303 194.039 278.303 194.316C278.303 194.593 278.207 194.828 278.015 195.02C277.834 195.212 277.61 195.308 277.343 195.308ZM278.047 196.732V205.5H276.591V196.732H278.047ZM280.485 201.1C280.485 200.193 280.666 199.404 281.029 198.732C281.392 198.049 281.893 197.521 282.533 197.148C283.184 196.775 283.925 196.588 284.757 196.588C285.834 196.588 286.72 196.849 287.413 197.372C288.117 197.895 288.581 198.62 288.805 199.548H287.237C287.088 199.015 286.794 198.593 286.357 198.284C285.93 197.975 285.397 197.82 284.757 197.82C283.925 197.82 283.253 198.108 282.741 198.684C282.229 199.249 281.973 200.055 281.973 201.1C281.973 202.156 282.229 202.972 282.741 203.548C283.253 204.124 283.925 204.412 284.757 204.412C285.397 204.412 285.93 204.263 286.357 203.964C286.784 203.665 287.077 203.239 287.237 202.684H288.805C288.57 203.58 288.101 204.3 287.397 204.844C286.693 205.377 285.813 205.644 284.757 205.644C283.925 205.644 283.184 205.457 282.533 205.084C281.893 204.711 281.392 204.183 281.029 203.5C280.666 202.817 280.485 202.017 280.485 201.1ZM297.437 194.348V201.404C297.437 202.396 297.677 203.132 298.157 203.612C298.648 204.092 299.325 204.332 300.189 204.332C301.043 204.332 301.709 204.092 302.189 203.612C302.68 203.132 302.925 202.396 302.925 201.404V194.348H304.381V201.388C304.381 202.316 304.195 203.1 303.821 203.74C303.448 204.369 302.941 204.839 302.301 205.148C301.672 205.457 300.963 205.612 300.173 205.612C299.384 205.612 298.669 205.457 298.029 205.148C297.4 204.839 296.899 204.369 296.525 203.74C296.163 203.1 295.981 202.316 295.981 201.388V194.348H297.437ZM308.766 198.348C309.054 197.847 309.481 197.431 310.046 197.1C310.622 196.759 311.289 196.588 312.046 196.588C312.825 196.588 313.529 196.775 314.158 197.148C314.798 197.521 315.299 198.049 315.662 198.732C316.025 199.404 316.206 200.188 316.206 201.084C316.206 201.969 316.025 202.759 315.662 203.452C315.299 204.145 314.798 204.684 314.158 205.068C313.529 205.452 312.825 205.644 312.046 205.644C311.299 205.644 310.638 205.479 310.062 205.148C309.497 204.807 309.065 204.385 308.766 203.884V209.66H307.31V196.732H308.766V198.348ZM314.718 201.084C314.718 200.423 314.585 199.847 314.318 199.356C314.051 198.865 313.689 198.492 313.23 198.236C312.782 197.98 312.286 197.852 311.742 197.852C311.209 197.852 310.713 197.985 310.254 198.252C309.806 198.508 309.443 198.887 309.166 199.388C308.899 199.879 308.766 200.449 308.766 201.1C308.766 201.761 308.899 202.343 309.166 202.844C309.443 203.335 309.806 203.713 310.254 203.98C310.713 204.236 311.209 204.364 311.742 204.364C312.286 204.364 312.782 204.236 313.23 203.98C313.689 203.713 314.051 203.335 314.318 202.844C314.585 202.343 314.718 201.756 314.718 201.084ZM318.079 201.084C318.079 200.188 318.26 199.404 318.623 198.732C318.985 198.049 319.481 197.521 320.111 197.148C320.751 196.775 321.465 196.588 322.255 196.588C322.937 196.588 323.572 196.748 324.159 197.068C324.745 197.377 325.193 197.788 325.503 198.3V193.66H326.975V205.5H325.503V203.852C325.215 204.375 324.788 204.807 324.223 205.148C323.657 205.479 322.996 205.644 322.239 205.644C321.46 205.644 320.751 205.452 320.111 205.068C319.481 204.684 318.985 204.145 318.623 203.452C318.26 202.759 318.079 201.969 318.079 201.084ZM325.503 201.1C325.503 200.439 325.369 199.863 325.103 199.372C324.836 198.881 324.473 198.508 324.015 198.252C323.567 197.985 323.071 197.852 322.527 197.852C321.983 197.852 321.487 197.98 321.039 198.236C320.591 198.492 320.233 198.865 319.967 199.356C319.7 199.847 319.567 200.423 319.567 201.084C319.567 201.756 319.7 202.343 319.967 202.844C320.233 203.335 320.591 203.713 321.039 203.98C321.487 204.236 321.983 204.364 322.527 204.364C323.071 204.364 323.567 204.236 324.015 203.98C324.473 203.713 324.836 203.335 325.103 202.844C325.369 202.343 325.503 201.761 325.503 201.1ZM329.391 201.084C329.391 200.188 329.572 199.404 329.935 198.732C330.298 198.049 330.794 197.521 331.423 197.148C332.063 196.775 332.772 196.588 333.551 196.588C334.319 196.588 334.986 196.753 335.551 197.084C336.116 197.415 336.538 197.831 336.815 198.332V196.732H338.287V205.5H336.815V203.868C336.527 204.38 336.095 204.807 335.519 205.148C334.954 205.479 334.292 205.644 333.535 205.644C332.756 205.644 332.052 205.452 331.423 205.068C330.794 204.684 330.298 204.145 329.935 203.452C329.572 202.759 329.391 201.969 329.391 201.084ZM336.815 201.1C336.815 200.439 336.682 199.863 336.415 199.372C336.148 198.881 335.786 198.508 335.327 198.252C334.879 197.985 334.383 197.852 333.839 197.852C333.295 197.852 332.799 197.98 332.351 198.236C331.903 198.492 331.546 198.865 331.279 199.356C331.012 199.847 330.879 200.423 330.879 201.084C330.879 201.756 331.012 202.343 331.279 202.844C331.546 203.335 331.903 203.713 332.351 203.98C332.799 204.236 333.295 204.364 333.839 204.364C334.383 204.364 334.879 204.236 335.327 203.98C335.786 203.713 336.148 203.335 336.415 202.844C336.682 202.343 336.815 201.761 336.815 201.1ZM343.024 197.932V203.1C343.024 203.527 343.114 203.831 343.296 204.012C343.477 204.183 343.792 204.268 344.24 204.268H345.312V205.5H344C343.189 205.5 342.581 205.313 342.176 204.94C341.77 204.567 341.568 203.953 341.568 203.1V197.932H340.432V196.732H341.568V194.524H343.024V196.732H345.312V197.932H343.024ZM355.576 200.78C355.576 201.057 355.56 201.351 355.528 201.66H348.52C348.573 202.524 348.866 203.201 349.4 203.692C349.944 204.172 350.6 204.412 351.368 204.412C351.997 204.412 352.52 204.268 352.936 203.98C353.362 203.681 353.661 203.287 353.832 202.796H355.4C355.165 203.639 354.696 204.327 353.992 204.86C353.288 205.383 352.413 205.644 351.368 205.644C350.536 205.644 349.789 205.457 349.128 205.084C348.477 204.711 347.965 204.183 347.592 203.5C347.218 202.807 347.032 202.007 347.032 201.1C347.032 200.193 347.213 199.399 347.576 198.716C347.938 198.033 348.445 197.511 349.096 197.148C349.757 196.775 350.514 196.588 351.368 196.588C352.2 196.588 352.936 196.769 353.576 197.132C354.216 197.495 354.706 197.996 355.048 198.636C355.4 199.265 355.576 199.98 355.576 200.78ZM354.072 200.476C354.072 199.921 353.949 199.447 353.704 199.052C353.458 198.647 353.122 198.343 352.696 198.14C352.28 197.927 351.816 197.82 351.304 197.82C350.568 197.82 349.938 198.055 349.416 198.524C348.904 198.993 348.61 199.644 348.536 200.476H354.072ZM361.102 205.644C360.43 205.644 359.827 205.532 359.294 205.308C358.76 205.073 358.339 204.753 358.03 204.348C357.72 203.932 357.55 203.457 357.518 202.924H359.022C359.064 203.361 359.267 203.719 359.63 203.996C360.003 204.273 360.488 204.412 361.086 204.412C361.64 204.412 362.078 204.289 362.398 204.044C362.718 203.799 362.878 203.489 362.878 203.116C362.878 202.732 362.707 202.449 362.366 202.268C362.024 202.076 361.496 201.889 360.782 201.708C360.131 201.537 359.598 201.367 359.182 201.196C358.776 201.015 358.424 200.753 358.126 200.412C357.838 200.06 357.694 199.601 357.694 199.036C357.694 198.588 357.827 198.177 358.094 197.804C358.36 197.431 358.739 197.137 359.23 196.924C359.72 196.7 360.28 196.588 360.91 196.588C361.88 196.588 362.664 196.833 363.262 197.324C363.859 197.815 364.179 198.487 364.222 199.34H362.766C362.734 198.881 362.547 198.513 362.206 198.236C361.875 197.959 361.427 197.82 360.862 197.82C360.339 197.82 359.923 197.932 359.614 198.156C359.304 198.38 359.15 198.673 359.15 199.036C359.15 199.324 359.24 199.564 359.422 199.756C359.614 199.937 359.848 200.087 360.126 200.204C360.414 200.311 360.808 200.433 361.31 200.572C361.939 200.743 362.451 200.913 362.846 201.084C363.24 201.244 363.576 201.489 363.854 201.82C364.142 202.151 364.291 202.583 364.302 203.116C364.302 203.596 364.168 204.028 363.902 204.412C363.635 204.796 363.256 205.1 362.766 205.324C362.286 205.537 361.731 205.644 361.102 205.644Z" fill="white"/>
<path d="M140.5 211.5L184.5 199.5" stroke="url(#paint16_linear_1237_773)" stroke-miterlimit="10"/>
<path d="M141 205.5C137.933 205.5 135.5 207.933 135.5 211C135.5 214.067 137.933 216.5 141 216.5C144.067 216.5 146.5 214.067 146.5 211C146.5 207.933 144.067 205.5 141 205.5Z" fill="url(#paint17_linear_1237_773)" stroke="url(#paint18_linear_1237_773)"/>
<path d="M203.5 199C203.5 208.665 195.665 216.5 186 216.5C176.335 216.5 168.5 208.665 168.5 199C168.5 189.335 176.335 181.5 186 181.5C195.665 181.5 203.5 189.335 203.5 199Z" fill="url(#paint19_linear_1237_773)" stroke="url(#paint20_linear_1237_773)"/>
<rect x="207.5" y="256.5" width="239" height="47" rx="23.5" fill="url(#paint21_linear_1237_773)"/>
<rect x="207.5" y="256.5" width="239" height="47" rx="23.5" stroke="url(#paint22_linear_1237_773)"/>
<path d="M238.104 286.5L235.448 281.94H233.688V286.5H232.232V275.348H235.832C236.675 275.348 237.384 275.492 237.96 275.78C238.547 276.068 238.984 276.457 239.272 276.948C239.56 277.439 239.704 277.999 239.704 278.628C239.704 279.396 239.48 280.073 239.032 280.66C238.595 281.247 237.933 281.636 237.048 281.828L239.848 286.5H238.104ZM233.688 280.772H235.832C236.621 280.772 237.213 280.58 237.608 280.196C238.003 279.801 238.2 279.279 238.2 278.628C238.2 277.967 238.003 277.455 237.608 277.092C237.224 276.729 236.632 276.548 235.832 276.548H233.688V280.772ZM243.218 276.308C242.941 276.308 242.706 276.212 242.514 276.02C242.322 275.828 242.226 275.593 242.226 275.316C242.226 275.039 242.322 274.804 242.514 274.612C242.706 274.42 242.941 274.324 243.218 274.324C243.485 274.324 243.709 274.42 243.89 274.612C244.082 274.804 244.178 275.039 244.178 275.316C244.178 275.593 244.082 275.828 243.89 276.02C243.709 276.212 243.485 276.308 243.218 276.308ZM243.922 277.732V286.5H242.466V277.732H243.922ZM250.008 286.644C249.336 286.644 248.733 286.532 248.2 286.308C247.667 286.073 247.245 285.753 246.936 285.348C246.627 284.932 246.456 284.457 246.424 283.924H247.928C247.971 284.361 248.173 284.719 248.536 284.996C248.909 285.273 249.395 285.412 249.992 285.412C250.547 285.412 250.984 285.289 251.304 285.044C251.624 284.799 251.784 284.489 251.784 284.116C251.784 283.732 251.613 283.449 251.272 283.268C250.931 283.076 250.403 282.889 249.688 282.708C249.037 282.537 248.504 282.367 248.088 282.196C247.683 282.015 247.331 281.753 247.032 281.412C246.744 281.06 246.6 280.601 246.6 280.036C246.6 279.588 246.733 279.177 247 278.804C247.267 278.431 247.645 278.137 248.136 277.924C248.627 277.7 249.187 277.588 249.816 277.588C250.787 277.588 251.571 277.833 252.168 278.324C252.765 278.815 253.085 279.487 253.128 280.34H251.672C251.64 279.881 251.453 279.513 251.112 279.236C250.781 278.959 250.333 278.82 249.768 278.82C249.245 278.82 248.829 278.932 248.52 279.156C248.211 279.38 248.056 279.673 248.056 280.036C248.056 280.324 248.147 280.564 248.328 280.756C248.52 280.937 248.755 281.087 249.032 281.204C249.32 281.311 249.715 281.433 250.216 281.572C250.845 281.743 251.357 281.913 251.752 282.084C252.147 282.244 252.483 282.489 252.76 282.82C253.048 283.151 253.197 283.583 253.208 284.116C253.208 284.596 253.075 285.028 252.808 285.412C252.541 285.796 252.163 286.1 251.672 286.324C251.192 286.537 250.637 286.644 250.008 286.644ZM260.659 286.5L257.219 282.628V286.5H255.763V274.66H257.219V281.62L260.595 277.732H262.627L258.499 282.1L262.643 286.5H260.659ZM274.319 286.612C273.285 286.612 272.341 286.372 271.487 285.892C270.634 285.401 269.957 284.724 269.455 283.86C268.965 282.985 268.719 282.004 268.719 280.916C268.719 279.828 268.965 278.852 269.455 277.988C269.957 277.113 270.634 276.436 271.487 275.956C272.341 275.465 273.285 275.22 274.319 275.22C275.365 275.22 276.314 275.465 277.167 275.956C278.021 276.436 278.693 277.108 279.183 277.972C279.674 278.836 279.919 279.817 279.919 280.916C279.919 282.015 279.674 282.996 279.183 283.86C278.693 284.724 278.021 285.401 277.167 285.892C276.314 286.372 275.365 286.612 274.319 286.612ZM274.319 285.348C275.098 285.348 275.797 285.167 276.415 284.804C277.045 284.441 277.535 283.924 277.887 283.252C278.25 282.58 278.431 281.801 278.431 280.916C278.431 280.02 278.25 279.241 277.887 278.58C277.535 277.908 277.05 277.391 276.431 277.028C275.813 276.665 275.109 276.484 274.319 276.484C273.53 276.484 272.826 276.665 272.207 277.028C271.589 277.391 271.098 277.908 270.735 278.58C270.383 279.241 270.207 280.02 270.207 280.916C270.207 281.801 270.383 282.58 270.735 283.252C271.098 283.924 271.589 284.441 272.207 284.804C272.837 285.167 273.541 285.348 274.319 285.348ZM283.797 279.348C284.085 278.847 284.512 278.431 285.077 278.1C285.653 277.759 286.32 277.588 287.077 277.588C287.856 277.588 288.56 277.775 289.189 278.148C289.829 278.521 290.331 279.049 290.693 279.732C291.056 280.404 291.237 281.188 291.237 282.084C291.237 282.969 291.056 283.759 290.693 284.452C290.331 285.145 289.829 285.684 289.189 286.068C288.56 286.452 287.856 286.644 287.077 286.644C286.331 286.644 285.669 286.479 285.093 286.148C284.528 285.807 284.096 285.385 283.797 284.884V290.66H282.341V277.732H283.797V279.348ZM289.749 282.084C289.749 281.423 289.616 280.847 289.349 280.356C289.083 279.865 288.72 279.492 288.261 279.236C287.813 278.98 287.317 278.852 286.773 278.852C286.24 278.852 285.744 278.985 285.285 279.252C284.837 279.508 284.475 279.887 284.197 280.388C283.931 280.879 283.797 281.449 283.797 282.1C283.797 282.761 283.931 283.343 284.197 283.844C284.475 284.335 284.837 284.713 285.285 284.98C285.744 285.236 286.24 285.364 286.773 285.364C287.317 285.364 287.813 285.236 288.261 284.98C288.72 284.713 289.083 284.335 289.349 283.844C289.616 283.343 289.749 282.756 289.749 282.084ZM295.43 278.932V284.1C295.43 284.527 295.521 284.831 295.702 285.012C295.883 285.183 296.198 285.268 296.646 285.268H297.718V286.5H296.406C295.595 286.5 294.987 286.313 294.582 285.94C294.177 285.567 293.974 284.953 293.974 284.1V278.932H292.838V277.732H293.974V275.524H295.43V277.732H297.718V278.932H295.43ZM300.734 276.308C300.457 276.308 300.222 276.212 300.03 276.02C299.838 275.828 299.742 275.593 299.742 275.316C299.742 275.039 299.838 274.804 300.03 274.612C300.222 274.42 300.457 274.324 300.734 274.324C301.001 274.324 301.225 274.42 301.406 274.612C301.598 274.804 301.694 275.039 301.694 275.316C301.694 275.593 301.598 275.828 301.406 276.02C301.225 276.212 301.001 276.308 300.734 276.308ZM301.438 277.732V286.5H299.982V277.732H301.438ZM314.964 277.572C315.646 277.572 316.254 277.716 316.788 278.004C317.321 278.281 317.742 278.703 318.052 279.268C318.361 279.833 318.516 280.521 318.516 281.332V286.5H317.076V281.54C317.076 280.665 316.857 279.999 316.42 279.54C315.993 279.071 315.412 278.836 314.676 278.836C313.918 278.836 313.316 279.081 312.868 279.572C312.42 280.052 312.196 280.751 312.196 281.668V286.5H310.756V281.54C310.756 280.665 310.537 279.999 310.1 279.54C309.673 279.071 309.092 278.836 308.356 278.836C307.598 278.836 306.996 279.081 306.548 279.572C306.1 280.052 305.876 280.751 305.876 281.668V286.5H304.42V277.732H305.876V278.996C306.164 278.537 306.548 278.185 307.028 277.94C307.518 277.695 308.057 277.572 308.644 277.572C309.38 277.572 310.03 277.737 310.596 278.068C311.161 278.399 311.582 278.884 311.86 279.524C312.105 278.905 312.51 278.425 313.076 278.084C313.641 277.743 314.27 277.572 314.964 277.572ZM322.156 276.308C321.879 276.308 321.644 276.212 321.452 276.02C321.26 275.828 321.164 275.593 321.164 275.316C321.164 275.039 321.26 274.804 321.452 274.612C321.644 274.42 321.879 274.324 322.156 274.324C322.423 274.324 322.647 274.42 322.828 274.612C323.02 274.804 323.116 275.039 323.116 275.316C323.116 275.593 323.02 275.828 322.828 276.02C322.647 276.212 322.423 276.308 322.156 276.308ZM322.86 277.732V286.5H321.404V277.732H322.86ZM326.929 285.3H331.233V286.5H325.265V285.3L329.521 278.916H325.297V277.732H331.201V278.916L326.929 285.3ZM333.079 282.084C333.079 281.188 333.26 280.404 333.623 279.732C333.985 279.049 334.481 278.521 335.111 278.148C335.751 277.775 336.46 277.588 337.239 277.588C338.007 277.588 338.673 277.753 339.239 278.084C339.804 278.415 340.225 278.831 340.503 279.332V277.732H341.975V286.5H340.503V284.868C340.215 285.38 339.783 285.807 339.207 286.148C338.641 286.479 337.98 286.644 337.223 286.644C336.444 286.644 335.74 286.452 335.111 286.068C334.481 285.684 333.985 285.145 333.623 284.452C333.26 283.759 333.079 282.969 333.079 282.084ZM340.503 282.1C340.503 281.439 340.369 280.863 340.103 280.372C339.836 279.881 339.473 279.508 339.015 279.252C338.567 278.985 338.071 278.852 337.527 278.852C336.983 278.852 336.487 278.98 336.039 279.236C335.591 279.492 335.233 279.865 334.967 280.356C334.7 280.847 334.567 281.423 334.567 282.084C334.567 282.756 334.7 283.343 334.967 283.844C335.233 284.335 335.591 284.713 336.039 284.98C336.487 285.236 336.983 285.364 337.527 285.364C338.071 285.364 338.567 285.236 339.015 284.98C339.473 284.713 339.836 284.335 340.103 283.844C340.369 283.343 340.503 282.761 340.503 282.1ZM346.711 278.932V284.1C346.711 284.527 346.802 284.831 346.983 285.012C347.164 285.183 347.479 285.268 347.927 285.268H348.999V286.5H347.687C346.876 286.5 346.268 286.313 345.863 285.94C345.458 285.567 345.255 284.953 345.255 284.1V278.932H344.119V277.732H345.255V275.524H346.711V277.732H348.999V278.932H346.711ZM352.015 276.308C351.738 276.308 351.503 276.212 351.311 276.02C351.119 275.828 351.023 275.593 351.023 275.316C351.023 275.039 351.119 274.804 351.311 274.612C351.503 274.42 351.738 274.324 352.015 274.324C352.282 274.324 352.506 274.42 352.687 274.612C352.879 274.804 352.975 275.039 352.975 275.316C352.975 275.593 352.879 275.828 352.687 276.02C352.506 276.212 352.282 276.308 352.015 276.308ZM352.719 277.732V286.5H351.263V277.732H352.719ZM359.525 286.644C358.703 286.644 357.957 286.457 357.285 286.084C356.623 285.711 356.101 285.183 355.717 284.5C355.343 283.807 355.157 283.007 355.157 282.1C355.157 281.204 355.349 280.415 355.733 279.732C356.127 279.039 356.661 278.511 357.333 278.148C358.005 277.775 358.757 277.588 359.589 277.588C360.421 277.588 361.173 277.775 361.845 278.148C362.517 278.511 363.045 279.033 363.429 279.716C363.823 280.399 364.021 281.193 364.021 282.1C364.021 283.007 363.818 283.807 363.413 284.5C363.018 285.183 362.479 285.711 361.797 286.084C361.114 286.457 360.357 286.644 359.525 286.644ZM359.525 285.364C360.047 285.364 360.538 285.241 360.997 284.996C361.455 284.751 361.823 284.383 362.101 283.892C362.389 283.401 362.533 282.804 362.533 282.1C362.533 281.396 362.394 280.799 362.117 280.308C361.839 279.817 361.477 279.455 361.029 279.22C360.581 278.975 360.095 278.852 359.573 278.852C359.039 278.852 358.549 278.975 358.101 279.22C357.663 279.455 357.311 279.817 357.045 280.308C356.778 280.799 356.645 281.396 356.645 282.1C356.645 282.815 356.773 283.417 357.029 283.908C357.295 284.399 357.647 284.767 358.085 285.012C358.522 285.247 359.002 285.364 359.525 285.364ZM370.707 277.572C371.774 277.572 372.638 277.897 373.299 278.548C373.96 279.188 374.291 280.116 374.291 281.332V286.5H372.851V281.54C372.851 280.665 372.632 279.999 372.195 279.54C371.758 279.071 371.16 278.836 370.403 278.836C369.635 278.836 369.022 279.076 368.563 279.556C368.115 280.036 367.891 280.735 367.891 281.652V286.5H366.435V277.732H367.891V278.98C368.179 278.532 368.568 278.185 369.059 277.94C369.56 277.695 370.11 277.572 370.707 277.572Z" fill="white"/>
<path d="M158.5 281H201" stroke="url(#paint23_linear_1237_773)" stroke-miterlimit="10"/>
<path d="M156 274.5C152.933 274.5 150.5 276.933 150.5 280C150.5 283.067 152.933 285.5 156 285.5C159.067 285.5 161.5 283.067 161.5 280C161.5 276.933 159.067 274.5 156 274.5Z" fill="url(#paint24_linear_1237_773)" stroke="url(#paint25_linear_1237_773)"/>
<path d="M219.5 280C219.5 289.665 211.665 297.5 202 297.5C192.335 297.5 184.5 289.665 184.5 280C184.5 270.335 192.335 262.5 202 262.5C211.665 262.5 219.5 270.335 219.5 280Z" fill="url(#paint26_linear_1237_773)" stroke="url(#paint27_linear_1237_773)"/>
<rect x="191.5" y="337.5" width="239" height="47" rx="23.5" fill="url(#paint28_linear_1237_773)"/>
<rect x="191.5" y="337.5" width="239" height="47" rx="23.5" stroke="url(#paint29_linear_1237_773)"/>
<path d="M224.68 359.58C224.371 358.929 223.923 358.428 223.336 358.076C222.749 357.713 222.067 357.532 221.288 357.532C220.509 357.532 219.805 357.713 219.176 358.076C218.557 358.428 218.067 358.94 217.704 359.612C217.352 360.273 217.176 361.041 217.176 361.916C217.176 362.791 217.352 363.559 217.704 364.22C218.067 364.881 218.557 365.393 219.176 365.756C219.805 366.108 220.509 366.284 221.288 366.284C222.376 366.284 223.272 365.959 223.976 365.308C224.68 364.657 225.091 363.777 225.208 362.668H220.76V361.484H226.76V362.604C226.675 363.521 226.387 364.364 225.896 365.132C225.405 365.889 224.76 366.492 223.96 366.94C223.16 367.377 222.269 367.596 221.288 367.596C220.253 367.596 219.309 367.356 218.456 366.876C217.603 366.385 216.925 365.708 216.424 364.844C215.933 363.98 215.688 363.004 215.688 361.916C215.688 360.828 215.933 359.852 216.424 358.988C216.925 358.113 217.603 357.436 218.456 356.956C219.309 356.465 220.253 356.22 221.288 356.22C222.472 356.22 223.517 356.513 224.424 357.1C225.341 357.687 226.008 358.513 226.424 359.58H224.68ZM233.009 367.644C232.188 367.644 231.441 367.457 230.769 367.084C230.108 366.711 229.585 366.183 229.201 365.5C228.828 364.807 228.641 364.007 228.641 363.1C228.641 362.204 228.833 361.415 229.217 360.732C229.612 360.039 230.145 359.511 230.817 359.148C231.489 358.775 232.241 358.588 233.073 358.588C233.905 358.588 234.657 358.775 235.329 359.148C236.001 359.511 236.529 360.033 236.913 360.716C237.308 361.399 237.505 362.193 237.505 363.1C237.505 364.007 237.302 364.807 236.897 365.5C236.502 366.183 235.964 366.711 235.281 367.084C234.598 367.457 233.841 367.644 233.009 367.644ZM233.009 366.364C233.532 366.364 234.022 366.241 234.481 365.996C234.94 365.751 235.308 365.383 235.585 364.892C235.873 364.401 236.017 363.804 236.017 363.1C236.017 362.396 235.878 361.799 235.601 361.308C235.324 360.817 234.961 360.455 234.513 360.22C234.065 359.975 233.58 359.852 233.057 359.852C232.524 359.852 232.033 359.975 231.585 360.22C231.148 360.455 230.796 360.817 230.529 361.308C230.262 361.799 230.129 362.396 230.129 363.1C230.129 363.815 230.257 364.417 230.513 364.908C230.78 365.399 231.132 365.767 231.569 366.012C232.006 366.247 232.486 366.364 233.009 366.364ZM239.376 363.084C239.376 362.188 239.557 361.404 239.92 360.732C240.282 360.049 240.778 359.521 241.408 359.148C242.048 358.775 242.757 358.588 243.536 358.588C244.304 358.588 244.97 358.753 245.536 359.084C246.101 359.415 246.522 359.831 246.8 360.332V358.732H248.272V367.5H246.8V365.868C246.512 366.38 246.08 366.807 245.504 367.148C244.938 367.479 244.277 367.644 243.52 367.644C242.741 367.644 242.037 367.452 241.408 367.068C240.778 366.684 240.282 366.145 239.92 365.452C239.557 364.759 239.376 363.969 239.376 363.084ZM246.8 363.1C246.8 362.439 246.666 361.863 246.4 361.372C246.133 360.881 245.77 360.508 245.312 360.252C244.864 359.985 244.368 359.852 243.824 359.852C243.28 359.852 242.784 359.98 242.336 360.236C241.888 360.492 241.53 360.865 241.264 361.356C240.997 361.847 240.864 362.423 240.864 363.084C240.864 363.756 240.997 364.343 241.264 364.844C241.53 365.335 241.888 365.713 242.336 365.98C242.784 366.236 243.28 366.364 243.824 366.364C244.368 366.364 244.864 366.236 245.312 365.98C245.77 365.713 246.133 365.335 246.4 364.844C246.666 364.343 246.8 363.761 246.8 363.1ZM252.688 355.66V367.5H251.232V355.66H252.688ZM267.027 365.02H262.163L261.267 367.5H259.731L263.763 356.412H265.443L269.459 367.5H267.923L267.027 365.02ZM266.611 363.836L264.595 358.204L262.579 363.836H266.611ZM273.172 355.66V367.5H271.716V355.66H273.172ZM276.906 357.308C276.629 357.308 276.394 357.212 276.202 357.02C276.01 356.828 275.914 356.593 275.914 356.316C275.914 356.039 276.01 355.804 276.202 355.612C276.394 355.42 276.629 355.324 276.906 355.324C277.173 355.324 277.397 355.42 277.578 355.612C277.77 355.804 277.866 356.039 277.866 356.316C277.866 356.593 277.77 356.828 277.578 357.02C277.397 357.212 277.173 357.308 276.906 357.308ZM277.61 358.732V367.5H276.154V358.732H277.61ZM284.207 358.588C284.965 358.588 285.626 358.753 286.191 359.084C286.767 359.415 287.194 359.831 287.471 360.332V358.732H288.943V367.692C288.943 368.492 288.773 369.201 288.431 369.82C288.09 370.449 287.599 370.94 286.959 371.292C286.33 371.644 285.594 371.82 284.751 371.82C283.599 371.82 282.639 371.548 281.871 371.004C281.103 370.46 280.65 369.719 280.511 368.78H281.951C282.111 369.313 282.442 369.74 282.943 370.06C283.445 370.391 284.047 370.556 284.751 370.556C285.551 370.556 286.202 370.305 286.703 369.804C287.215 369.303 287.471 368.599 287.471 367.692V365.852C287.183 366.364 286.757 366.791 286.191 367.132C285.626 367.473 284.965 367.644 284.207 367.644C283.429 367.644 282.719 367.452 282.079 367.068C281.45 366.684 280.954 366.145 280.591 365.452C280.229 364.759 280.047 363.969 280.047 363.084C280.047 362.188 280.229 361.404 280.591 360.732C280.954 360.049 281.45 359.521 282.079 359.148C282.719 358.775 283.429 358.588 284.207 358.588ZM287.471 363.1C287.471 362.439 287.338 361.863 287.071 361.372C286.805 360.881 286.442 360.508 285.983 360.252C285.535 359.985 285.039 359.852 284.495 359.852C283.951 359.852 283.455 359.98 283.007 360.236C282.559 360.492 282.202 360.865 281.935 361.356C281.669 361.847 281.535 362.423 281.535 363.084C281.535 363.756 281.669 364.343 281.935 364.844C282.202 365.335 282.559 365.713 283.007 365.98C283.455 366.236 283.951 366.364 284.495 366.364C285.039 366.364 285.535 366.236 285.983 365.98C286.442 365.713 286.805 365.335 287.071 364.844C287.338 364.343 287.471 363.761 287.471 363.1ZM296.176 358.572C297.243 358.572 298.107 358.897 298.768 359.548C299.429 360.188 299.76 361.116 299.76 362.332V367.5H298.32V362.54C298.32 361.665 298.101 360.999 297.664 360.54C297.227 360.071 296.629 359.836 295.872 359.836C295.104 359.836 294.491 360.076 294.032 360.556C293.584 361.036 293.36 361.735 293.36 362.652V367.5H291.904V358.732H293.36V359.98C293.648 359.532 294.037 359.185 294.528 358.94C295.029 358.695 295.579 358.572 296.176 358.572ZM313.182 358.572C313.865 358.572 314.473 358.716 315.006 359.004C315.54 359.281 315.961 359.703 316.27 360.268C316.58 360.833 316.734 361.521 316.734 362.332V367.5H315.294V362.54C315.294 361.665 315.076 360.999 314.638 360.54C314.212 360.071 313.63 359.836 312.894 359.836C312.137 359.836 311.534 360.081 311.086 360.572C310.638 361.052 310.414 361.751 310.414 362.668V367.5H308.974V362.54C308.974 361.665 308.756 360.999 308.318 360.54C307.892 360.071 307.31 359.836 306.574 359.836C305.817 359.836 305.214 360.081 304.766 360.572C304.318 361.052 304.094 361.751 304.094 362.668V367.5H302.638V358.732H304.094V359.996C304.382 359.537 304.766 359.185 305.246 358.94C305.737 358.695 306.276 358.572 306.862 358.572C307.598 358.572 308.249 358.737 308.814 359.068C309.38 359.399 309.801 359.884 310.078 360.524C310.324 359.905 310.729 359.425 311.294 359.084C311.86 358.743 312.489 358.572 313.182 358.572ZM327.623 362.78C327.623 363.057 327.607 363.351 327.575 363.66H320.567C320.62 364.524 320.913 365.201 321.447 365.692C321.991 366.172 322.647 366.412 323.415 366.412C324.044 366.412 324.567 366.268 324.983 365.98C325.409 365.681 325.708 365.287 325.879 364.796H327.447C327.212 365.639 326.743 366.327 326.039 366.86C325.335 367.383 324.46 367.644 323.415 367.644C322.583 367.644 321.836 367.457 321.175 367.084C320.524 366.711 320.012 366.183 319.639 365.5C319.265 364.807 319.079 364.007 319.079 363.1C319.079 362.193 319.26 361.399 319.623 360.716C319.985 360.033 320.492 359.511 321.143 359.148C321.804 358.775 322.561 358.588 323.415 358.588C324.247 358.588 324.983 358.769 325.623 359.132C326.263 359.495 326.753 359.996 327.095 360.636C327.447 361.265 327.623 361.98 327.623 362.78ZM326.119 362.476C326.119 361.921 325.996 361.447 325.751 361.052C325.505 360.647 325.169 360.343 324.743 360.14C324.327 359.927 323.863 359.82 323.351 359.82C322.615 359.82 321.985 360.055 321.463 360.524C320.951 360.993 320.657 361.644 320.583 362.476H326.119ZM334.317 358.572C335.383 358.572 336.247 358.897 336.909 359.548C337.57 360.188 337.901 361.116 337.901 362.332V367.5H336.461V362.54C336.461 361.665 336.242 360.999 335.805 360.54C335.367 360.071 334.77 359.836 334.013 359.836C333.245 359.836 332.631 360.076 332.173 360.556C331.725 361.036 331.501 361.735 331.501 362.652V367.5H330.045V358.732H331.501V359.98C331.789 359.532 332.178 359.185 332.669 358.94C333.17 358.695 333.719 358.572 334.317 358.572ZM342.555 359.932V365.1C342.555 365.527 342.646 365.831 342.827 366.012C343.008 366.183 343.323 366.268 343.771 366.268H344.843V367.5H343.531C342.72 367.5 342.112 367.313 341.707 366.94C341.302 366.567 341.099 365.953 341.099 365.1V359.932H339.963V358.732H341.099V356.524H342.555V358.732H344.843V359.932H342.555Z" fill="white"/>
<path d="M142.916 344.169L189.999 362" stroke="url(#paint30_linear_1237_773)" stroke-miterlimit="10"/>
<path d="M143 338.5C139.933 338.5 137.5 340.933 137.5 344C137.5 347.067 139.933 349.5 143 349.5C146.067 349.5 148.5 347.067 148.5 344C148.5 340.933 146.067 338.5 143 338.5Z" fill="url(#paint31_linear_1237_773)" stroke="url(#paint32_linear_1237_773)"/>
<path d="M203.5 361C203.5 370.665 195.665 378.5 186 378.5C176.335 378.5 168.5 370.665 168.5 361C168.5 351.335 176.335 343.5 186 343.5C195.665 343.5 203.5 351.335 203.5 361Z" fill="url(#paint33_linear_1237_773)" stroke="url(#paint34_linear_1237_773)"/>
<rect x="130.5" y="418.5" width="239" height="47" rx="23.5" fill="url(#paint35_linear_1237_773)"/>
<rect x="130.5" y="418.5" width="239" height="47" rx="23.5" stroke="url(#paint36_linear_1237_773)"/>
<path d="M161.824 446.02H156.96L156.064 448.5H154.528L158.56 437.412H160.24L164.256 448.5H162.72L161.824 446.02ZM161.408 444.836L159.392 439.204L157.376 444.836H161.408ZM165.969 444.1C165.969 443.193 166.151 442.404 166.513 441.732C166.876 441.049 167.377 440.521 168.017 440.148C168.668 439.775 169.409 439.588 170.241 439.588C171.319 439.588 172.204 439.849 172.897 440.372C173.601 440.895 174.065 441.62 174.289 442.548H172.721C172.572 442.015 172.279 441.593 171.841 441.284C171.415 440.975 170.881 440.82 170.241 440.82C169.409 440.82 168.737 441.108 168.225 441.684C167.713 442.249 167.457 443.055 167.457 444.1C167.457 445.156 167.713 445.972 168.225 446.548C168.737 447.124 169.409 447.412 170.241 447.412C170.881 447.412 171.415 447.263 171.841 446.964C172.268 446.665 172.561 446.239 172.721 445.684H174.289C174.055 446.58 173.585 447.3 172.881 447.844C172.177 448.377 171.297 448.644 170.241 448.644C169.409 448.644 168.668 448.457 168.017 448.084C167.377 447.711 166.876 447.183 166.513 446.5C166.151 445.817 165.969 445.017 165.969 444.1ZM176.188 444.1C176.188 443.193 176.369 442.404 176.732 441.732C177.095 441.049 177.596 440.521 178.236 440.148C178.887 439.775 179.628 439.588 180.46 439.588C181.537 439.588 182.423 439.849 183.116 440.372C183.82 440.895 184.284 441.62 184.508 442.548H182.94C182.791 442.015 182.497 441.593 182.06 441.284C181.633 440.975 181.1 440.82 180.46 440.82C179.628 440.82 178.956 441.108 178.444 441.684C177.932 442.249 177.676 443.055 177.676 444.1C177.676 445.156 177.932 445.972 178.444 446.548C178.956 447.124 179.628 447.412 180.46 447.412C181.1 447.412 181.633 447.263 182.06 446.964C182.487 446.665 182.78 446.239 182.94 445.684H184.508C184.273 446.58 183.804 447.3 183.1 447.844C182.396 448.377 181.516 448.644 180.46 448.644C179.628 448.644 178.887 448.457 178.236 448.084C177.596 447.711 177.095 447.183 176.732 446.5C176.369 445.817 176.188 445.017 176.188 444.1ZM194.951 443.78C194.951 444.057 194.935 444.351 194.903 444.66H187.895C187.948 445.524 188.241 446.201 188.775 446.692C189.319 447.172 189.975 447.412 190.743 447.412C191.372 447.412 191.895 447.268 192.311 446.98C192.737 446.681 193.036 446.287 193.207 445.796H194.775C194.54 446.639 194.071 447.327 193.367 447.86C192.663 448.383 191.788 448.644 190.743 448.644C189.911 448.644 189.164 448.457 188.503 448.084C187.852 447.711 187.34 447.183 186.967 446.5C186.593 445.807 186.407 445.007 186.407 444.1C186.407 443.193 186.588 442.399 186.951 441.716C187.313 441.033 187.82 440.511 188.471 440.148C189.132 439.775 189.889 439.588 190.743 439.588C191.575 439.588 192.311 439.769 192.951 440.132C193.591 440.495 194.081 440.996 194.423 441.636C194.775 442.265 194.951 442.98 194.951 443.78ZM193.447 443.476C193.447 442.921 193.324 442.447 193.079 442.052C192.833 441.647 192.497 441.343 192.071 441.14C191.655 440.927 191.191 440.82 190.679 440.82C189.943 440.82 189.313 441.055 188.791 441.524C188.279 441.993 187.985 442.644 187.911 443.476H193.447ZM200.477 448.644C199.805 448.644 199.202 448.532 198.669 448.308C198.135 448.073 197.714 447.753 197.405 447.348C197.095 446.932 196.925 446.457 196.893 445.924H198.397C198.439 446.361 198.642 446.719 199.005 446.996C199.378 447.273 199.863 447.412 200.461 447.412C201.015 447.412 201.453 447.289 201.773 447.044C202.093 446.799 202.253 446.489 202.253 446.116C202.253 445.732 202.082 445.449 201.741 445.268C201.399 445.076 200.871 444.889 200.157 444.708C199.506 444.537 198.973 444.367 198.557 444.196C198.151 444.015 197.799 443.753 197.501 443.412C197.213 443.06 197.069 442.601 197.069 442.036C197.069 441.588 197.202 441.177 197.469 440.804C197.735 440.431 198.114 440.137 198.605 439.924C199.095 439.7 199.655 439.588 200.285 439.588C201.255 439.588 202.039 439.833 202.637 440.324C203.234 440.815 203.554 441.487 203.597 442.34H202.141C202.109 441.881 201.922 441.513 201.581 441.236C201.25 440.959 200.802 440.82 200.237 440.82C199.714 440.82 199.298 440.932 198.989 441.156C198.679 441.38 198.525 441.673 198.525 442.036C198.525 442.324 198.615 442.564 198.797 442.756C198.989 442.937 199.223 443.087 199.501 443.204C199.789 443.311 200.183 443.433 200.685 443.572C201.314 443.743 201.826 443.913 202.221 444.084C202.615 444.244 202.951 444.489 203.229 444.82C203.517 445.151 203.666 445.583 203.677 446.116C203.677 446.596 203.543 447.028 203.277 447.412C203.01 447.796 202.631 448.1 202.141 448.324C201.661 448.537 201.106 448.644 200.477 448.644ZM209.336 448.644C208.664 448.644 208.061 448.532 207.528 448.308C206.995 448.073 206.573 447.753 206.264 447.348C205.955 446.932 205.784 446.457 205.752 445.924H207.256C207.299 446.361 207.501 446.719 207.864 446.996C208.237 447.273 208.723 447.412 209.32 447.412C209.875 447.412 210.312 447.289 210.632 447.044C210.952 446.799 211.112 446.489 211.112 446.116C211.112 445.732 210.941 445.449 210.6 445.268C210.259 445.076 209.731 444.889 209.016 444.708C208.365 444.537 207.832 444.367 207.416 444.196C207.011 444.015 206.659 443.753 206.36 443.412C206.072 443.06 205.928 442.601 205.928 442.036C205.928 441.588 206.061 441.177 206.328 440.804C206.595 440.431 206.973 440.137 207.464 439.924C207.955 439.7 208.515 439.588 209.144 439.588C210.115 439.588 210.899 439.833 211.496 440.324C212.093 440.815 212.413 441.487 212.456 442.34H211C210.968 441.881 210.781 441.513 210.44 441.236C210.109 440.959 209.661 440.82 209.096 440.82C208.573 440.82 208.157 440.932 207.848 441.156C207.539 441.38 207.384 441.673 207.384 442.036C207.384 442.324 207.475 442.564 207.656 442.756C207.848 442.937 208.083 443.087 208.36 443.204C208.648 443.311 209.043 443.433 209.544 443.572C210.173 443.743 210.685 443.913 211.08 444.084C211.475 444.244 211.811 444.489 212.088 444.82C212.376 445.151 212.525 445.583 212.536 446.116C212.536 446.596 212.403 447.028 212.136 447.412C211.869 447.796 211.491 448.1 211 448.324C210.52 448.537 209.965 448.644 209.336 448.644ZM215.843 438.308C215.566 438.308 215.331 438.212 215.139 438.02C214.947 437.828 214.851 437.593 214.851 437.316C214.851 437.039 214.947 436.804 215.139 436.612C215.331 436.42 215.566 436.324 215.843 436.324C216.11 436.324 216.334 436.42 216.515 436.612C216.707 436.804 216.803 437.039 216.803 437.316C216.803 437.593 216.707 437.828 216.515 438.02C216.334 438.212 216.11 438.308 215.843 438.308ZM216.547 439.732V448.5H215.091V439.732H216.547ZM220.985 441.364C221.284 440.841 221.721 440.415 222.297 440.084C222.873 439.753 223.529 439.588 224.265 439.588C225.054 439.588 225.764 439.775 226.393 440.148C227.022 440.521 227.518 441.049 227.881 441.732C228.244 442.404 228.425 443.188 228.425 444.084C228.425 444.969 228.244 445.759 227.881 446.452C227.518 447.145 227.017 447.684 226.377 448.068C225.748 448.452 225.044 448.644 224.265 448.644C223.508 448.644 222.841 448.479 222.265 448.148C221.7 447.817 221.273 447.396 220.985 446.884V448.5H219.529V436.66H220.985V441.364ZM226.937 444.084C226.937 443.423 226.804 442.847 226.537 442.356C226.27 441.865 225.908 441.492 225.449 441.236C225.001 440.98 224.505 440.852 223.961 440.852C223.428 440.852 222.932 440.985 222.473 441.252C222.025 441.508 221.662 441.887 221.385 442.388C221.118 442.879 220.985 443.449 220.985 444.1C220.985 444.761 221.118 445.343 221.385 445.844C221.662 446.335 222.025 446.713 222.473 446.98C222.932 447.236 223.428 447.364 223.961 447.364C224.505 447.364 225.001 447.236 225.449 446.98C225.908 446.713 226.27 446.335 226.537 445.844C226.804 445.343 226.937 444.756 226.937 444.084ZM232.297 436.66V448.5H230.841V436.66H232.297ZM243.279 443.78C243.279 444.057 243.263 444.351 243.231 444.66H236.223C236.276 445.524 236.57 446.201 237.103 446.692C237.647 447.172 238.303 447.412 239.071 447.412C239.7 447.412 240.223 447.268 240.639 446.98C241.066 446.681 241.364 446.287 241.535 445.796H243.103C242.868 446.639 242.399 447.327 241.695 447.86C240.991 448.383 240.116 448.644 239.071 448.644C238.239 448.644 237.492 448.457 236.831 448.084C236.18 447.711 235.668 447.183 235.295 446.5C234.922 445.807 234.735 445.007 234.735 444.1C234.735 443.193 234.916 442.399 235.279 441.716C235.642 441.033 236.148 440.511 236.799 440.148C237.46 439.775 238.218 439.588 239.071 439.588C239.903 439.588 240.639 439.769 241.279 440.132C241.919 440.495 242.41 440.996 242.751 441.636C243.103 442.265 243.279 442.98 243.279 443.78ZM241.775 443.476C241.775 442.921 241.652 442.447 241.407 442.052C241.162 441.647 240.826 441.343 240.399 441.14C239.983 440.927 239.519 440.82 239.007 440.82C238.271 440.82 237.642 441.055 237.119 441.524C236.607 441.993 236.314 442.644 236.239 443.476H241.775ZM258.914 440.58C258.605 439.929 258.157 439.428 257.57 439.076C256.984 438.713 256.301 438.532 255.522 438.532C254.744 438.532 254.04 438.713 253.41 439.076C252.792 439.428 252.301 439.94 251.938 440.612C251.586 441.273 251.41 442.041 251.41 442.916C251.41 443.791 251.586 444.559 251.938 445.22C252.301 445.881 252.792 446.393 253.41 446.756C254.04 447.108 254.744 447.284 255.522 447.284C256.61 447.284 257.506 446.959 258.21 446.308C258.914 445.657 259.325 444.777 259.442 443.668H254.994V442.484H260.994V443.604C260.909 444.521 260.621 445.364 260.13 446.132C259.64 446.889 258.994 447.492 258.194 447.94C257.394 448.377 256.504 448.596 255.522 448.596C254.488 448.596 253.544 448.356 252.69 447.876C251.837 447.385 251.16 446.708 250.658 445.844C250.168 444.98 249.922 444.004 249.922 442.916C249.922 441.828 250.168 440.852 250.658 439.988C251.16 439.113 251.837 438.436 252.69 437.956C253.544 437.465 254.488 437.22 255.522 437.22C256.706 437.22 257.752 437.513 258.658 438.1C259.576 438.687 260.242 439.513 260.658 440.58H258.914ZM271.196 439.732V448.5H269.74V447.204C269.462 447.652 269.073 448.004 268.572 448.26C268.081 448.505 267.537 448.628 266.94 448.628C266.257 448.628 265.644 448.489 265.1 448.212C264.556 447.924 264.124 447.497 263.804 446.932C263.494 446.367 263.34 445.679 263.34 444.868V439.732H264.78V444.676C264.78 445.54 264.998 446.207 265.436 446.676C265.873 447.135 266.47 447.364 267.228 447.364C268.006 447.364 268.62 447.124 269.068 446.644C269.516 446.164 269.74 445.465 269.74 444.548V439.732H271.196ZM274.906 438.308C274.629 438.308 274.394 438.212 274.202 438.02C274.01 437.828 273.914 437.593 273.914 437.316C273.914 437.039 274.01 436.804 274.202 436.612C274.394 436.42 274.629 436.324 274.906 436.324C275.173 436.324 275.397 436.42 275.578 436.612C275.77 436.804 275.866 437.039 275.866 437.316C275.866 437.593 275.77 437.828 275.578 438.02C275.397 438.212 275.173 438.308 274.906 438.308ZM275.61 439.732V448.5H274.154V439.732H275.61ZM278.047 444.084C278.047 443.188 278.229 442.404 278.591 441.732C278.954 441.049 279.45 440.521 280.079 440.148C280.719 439.775 281.434 439.588 282.223 439.588C282.906 439.588 283.541 439.748 284.127 440.068C284.714 440.377 285.162 440.788 285.471 441.3V436.66H286.943V448.5H285.471V446.852C285.183 447.375 284.757 447.807 284.191 448.148C283.626 448.479 282.965 448.644 282.207 448.644C281.429 448.644 280.719 448.452 280.079 448.068C279.45 447.684 278.954 447.145 278.591 446.452C278.229 445.759 278.047 444.969 278.047 444.084ZM285.471 444.1C285.471 443.439 285.338 442.863 285.071 442.372C284.805 441.881 284.442 441.508 283.983 441.252C283.535 440.985 283.039 440.852 282.495 440.852C281.951 440.852 281.455 440.98 281.007 441.236C280.559 441.492 280.202 441.865 279.935 442.356C279.669 442.847 279.535 443.423 279.535 444.084C279.535 444.756 279.669 445.343 279.935 445.844C280.202 446.335 280.559 446.713 281.007 446.98C281.455 447.236 281.951 447.364 282.495 447.364C283.039 447.364 283.535 447.236 283.983 446.98C284.442 446.713 284.805 446.335 285.071 445.844C285.338 445.343 285.471 444.761 285.471 444.1ZM289.36 444.084C289.36 443.188 289.541 442.404 289.904 441.732C290.267 441.049 290.763 440.521 291.392 440.148C292.032 439.775 292.741 439.588 293.52 439.588C294.288 439.588 294.955 439.753 295.52 440.084C296.085 440.415 296.507 440.831 296.784 441.332V439.732H298.256V448.5H296.784V446.868C296.496 447.38 296.064 447.807 295.488 448.148C294.923 448.479 294.261 448.644 293.504 448.644C292.725 448.644 292.021 448.452 291.392 448.068C290.763 447.684 290.267 447.145 289.904 446.452C289.541 445.759 289.36 444.969 289.36 444.084ZM296.784 444.1C296.784 443.439 296.651 442.863 296.384 442.372C296.117 441.881 295.755 441.508 295.296 441.252C294.848 440.985 294.352 440.852 293.808 440.852C293.264 440.852 292.768 440.98 292.32 441.236C291.872 441.492 291.515 441.865 291.248 442.356C290.981 442.847 290.848 443.423 290.848 444.084C290.848 444.756 290.981 445.343 291.248 445.844C291.515 446.335 291.872 446.713 292.32 446.98C292.768 447.236 293.264 447.364 293.808 447.364C294.352 447.364 294.848 447.236 295.296 446.98C295.755 446.713 296.117 446.335 296.384 445.844C296.651 445.343 296.784 444.761 296.784 444.1ZM305.488 439.572C306.555 439.572 307.419 439.897 308.08 440.548C308.742 441.188 309.072 442.116 309.072 443.332V448.5H307.632V443.54C307.632 442.665 307.414 441.999 306.976 441.54C306.539 441.071 305.942 440.836 305.184 440.836C304.416 440.836 303.803 441.076 303.344 441.556C302.896 442.036 302.672 442.735 302.672 443.652V448.5H301.216V439.732H302.672V440.98C302.96 440.532 303.35 440.185 303.84 439.94C304.342 439.695 304.891 439.572 305.488 439.572ZM311.407 444.1C311.407 443.193 311.588 442.404 311.951 441.732C312.313 441.049 312.815 440.521 313.455 440.148C314.105 439.775 314.847 439.588 315.679 439.588C316.756 439.588 317.641 439.849 318.335 440.372C319.039 440.895 319.503 441.62 319.727 442.548H318.159C318.009 442.015 317.716 441.593 317.279 441.284C316.852 440.975 316.319 440.82 315.679 440.82C314.847 440.82 314.175 441.108 313.663 441.684C313.151 442.249 312.895 443.055 312.895 444.1C312.895 445.156 313.151 445.972 313.663 446.548C314.175 447.124 314.847 447.412 315.679 447.412C316.319 447.412 316.852 447.263 317.279 446.964C317.705 446.665 317.999 446.239 318.159 445.684H319.727C319.492 446.58 319.023 447.3 318.319 447.844C317.615 448.377 316.735 448.644 315.679 448.644C314.847 448.644 314.105 448.457 313.455 448.084C312.815 447.711 312.313 447.183 311.951 446.5C311.588 445.817 311.407 445.017 311.407 444.1ZM330.17 443.78C330.17 444.057 330.154 444.351 330.122 444.66H323.114C323.167 445.524 323.46 446.201 323.994 446.692C324.538 447.172 325.194 447.412 325.962 447.412C326.591 447.412 327.114 447.268 327.53 446.98C327.956 446.681 328.255 446.287 328.426 445.796H329.994C329.759 446.639 329.29 447.327 328.586 447.86C327.882 448.383 327.007 448.644 325.962 448.644C325.13 448.644 324.383 448.457 323.722 448.084C323.071 447.711 322.559 447.183 322.186 446.5C321.812 445.807 321.626 445.007 321.626 444.1C321.626 443.193 321.807 442.399 322.17 441.716C322.532 441.033 323.039 440.511 323.69 440.148C324.351 439.775 325.108 439.588 325.962 439.588C326.794 439.588 327.53 439.769 328.17 440.132C328.81 440.495 329.3 440.996 329.642 441.636C329.994 442.265 330.17 442.98 330.17 443.78ZM328.666 443.476C328.666 442.921 328.543 442.447 328.298 442.052C328.052 441.647 327.716 441.343 327.29 441.14C326.874 440.927 326.41 440.82 325.898 440.82C325.162 440.82 324.532 441.055 324.01 441.524C323.498 441.993 323.204 442.644 323.13 443.476H328.666Z" fill="white"/>
<path d="M93.5 407L124 441.5" stroke="url(#paint37_linear_1237_773)" stroke-miterlimit="10"/>
<path d="M93 400.5C89.9332 400.5 87.5 402.933 87.5 406C87.5 409.067 89.9332 411.5 93 411.5C96.0669 411.5 98.5 409.067 98.5 406C98.5 402.933 96.0669 400.5 93 400.5Z" fill="url(#paint38_linear_1237_773)" stroke="url(#paint39_linear_1237_773)"/>
<path d="M142.5 442C142.5 451.665 134.665 459.5 125 459.5C115.335 459.5 107.5 451.665 107.5 442C107.5 432.335 115.335 424.5 125 424.5C134.665 424.5 142.5 432.335 142.5 442Z" fill="url(#paint40_linear_1237_773)" stroke="url(#paint41_linear_1237_773)"/>
<path d="M127.82 112.46V124L125.54 123.98V115.2L121.4 116.92V114.32L125.54 112.46H127.82Z" fill="white"/>
<path d="M178.8 199.48L181.08 198.1H185.22V200.36H181.24V202.64H185.14V205H178.8V199.48ZM178.8 197.12V194.84L181.08 193.46H185.22V195.74H181.32V197.12H178.8ZM192.62 205H186.2V202.64H192.62V205ZM190.02 200.36H186.12V198.1H190.02V195.74H186.12V193.46H190.26L192.62 194.84V198.98L190.02 200.36Z" fill="white"/>
<path d="M206.22 286.02H202.08V283.66H205.98V281.38H202.08V279.12H205.98V276.76H202.08V274.48H206.22L208.5 275.86V279.28L206.62 280.24L208.5 281.14V284.64L206.22 286.02ZM197.2 282.28V283.66H201.1V286.02H196.96L194.6 284.64V282.28H197.2ZM194.68 278.14V275.86L196.96 274.48H201.1V276.76H197.2V278.14H194.68ZM201.1 281.38H198.58V279.12H201.1V281.38Z" fill="white"/>
<path d="M192.42 366.98H190.08V362.44H185.94V360.1H190.08V355.48H192.42V366.98ZM182.54 360.1H184.96V362.44H178.4L182.54 355.56H185.28L182.54 360.1Z" fill="white"/>
<path d="M117.8 436.46H124.26V438.74H120.34V441.04H124.26V443.4H117.8V436.46ZM120.34 444.3V445.7H124.26V447.98H120.08L117.8 446.6V444.3H120.34ZM131.7 438.74H125.24V436.46H131.7V438.74ZM131.7 442.42V446.6L129.42 447.98H125.24V445.7H129.16V443.4H125.24V441.04H129.16L131.7 442.42Z" fill="white"/>
<defs>
<linearGradient id="paint0_linear_1237_773" x1="27.5" y1="-380.625" x2="714.464" y2="127.526" gradientUnits="userSpaceOnUse">
<stop offset="0.303689" stop-color="#004B4B" stop-opacity="0"/>
<stop offset="0.454116" stop-color="#004B4B" stop-opacity="0.4"/>
<stop offset="0.499089" stop-color="#004B4B"/>
<stop offset="0.64438" stop-color="#26DDFF"/>
<stop offset="0.953267" stop-color="#26DDFF" stop-opacity="0"/>
</linearGradient>
<linearGradient id="paint1_linear_1237_773" x1="184" y1="260.5" x2="94.6909" y2="261.688" gradientUnits="userSpaceOnUse">
<stop stop-color="#12637E"/>
<stop offset="0.781" stop-color="#04182D" stop-opacity="0.4"/>
</linearGradient>
<linearGradient id="paint2_linear_1237_773" x1="-19.2105" y1="-2571.26" x2="340.819" y2="-2549.75" gradientUnits="userSpaceOnUse">
<stop offset="0.303689" stop-color="#004B4B" stop-opacity="0"/>
<stop offset="0.422945" stop-color="#004B4B" stop-opacity="0.4"/>
<stop offset="0.499089" stop-color="#004B4B"/>
<stop offset="0.649516" stop-color="#26DDFF"/>
<stop offset="0.953267" stop-color="#26DDFF" stop-opacity="0"/>
</linearGradient>
<linearGradient id="paint3_linear_1237_773" x1="117.949" y1="267.5" x2="60.6993" y2="268.262" gradientUnits="userSpaceOnUse">
<stop stop-color="#12637E"/>
<stop offset="0.781" stop-color="#04182D" stop-opacity="0.4"/>
</linearGradient>
<linearGradient id="paint4_linear_1237_773" x1="-12.3144" y1="-1547.73" x2="218.474" y2="-1533.94" gradientUnits="userSpaceOnUse">
<stop offset="0.303689" stop-color="#004B4B" stop-opacity="0"/>
<stop offset="0.422945" stop-color="#004B4B" stop-opacity="0.4"/>
<stop offset="0.499089" stop-color="#004B4B"/>
<stop offset="0.649516" stop-color="#26DDFF"/>
<stop offset="0.953267" stop-color="#26DDFF" stop-opacity="0"/>
</linearGradient>
<linearGradient id="paint5_linear_1237_773" x1="63.6923" y1="273.25" x2="32.7776" y2="273.661" gradientUnits="userSpaceOnUse">
<stop stop-color="#12637E"/>
<stop offset="0.781" stop-color="#04182D" stop-opacity="0.4"/>
</linearGradient>
<linearGradient id="paint6_linear_1237_773" x1="-6.64978" y1="-706.974" x2="117.976" y2="-699.529" gradientUnits="userSpaceOnUse">
<stop offset="0.303689" stop-color="#004B4B" stop-opacity="0"/>
<stop offset="0.422945" stop-color="#004B4B" stop-opacity="0.4"/>
<stop offset="0.499089" stop-color="#004B4B"/>
<stop offset="0.649516" stop-color="#26DDFF"/>
<stop offset="0.953267" stop-color="#26DDFF" stop-opacity="0"/>
</linearGradient>
<linearGradient id="paint7_linear_1237_773" x1="371.727" y1="74.4288" x2="360.242" y2="164.2" gradientUnits="userSpaceOnUse">
<stop stop-color="#12637E"/>
<stop offset="0.781" stop-color="#04182D"/>
</linearGradient>
<linearGradient id="paint8_linear_1237_773" x1="457.5" y1="83.5" x2="445.673" y2="173.039" gradientUnits="userSpaceOnUse">
<stop offset="0.303689" stop-color="#004B4B" stop-opacity="0"/>
<stop offset="0.422945" stop-color="#004B4B" stop-opacity="0.4"/>
<stop offset="0.499089" stop-color="#004B4B"/>
<stop offset="0.649516" stop-color="#26DDFF"/>
<stop offset="0.953267" stop-color="#26DDFF" stop-opacity="0"/>
</linearGradient>
<linearGradient id="paint9_linear_1237_773" x1="85.6649" y1="236.833" x2="171.167" y2="199.378" gradientUnits="userSpaceOnUse">
<stop offset="0.303689" stop-color="#004B4B" stop-opacity="0"/>
<stop offset="0.422945" stop-color="#004B4B" stop-opacity="0.4"/>
<stop offset="0.499089" stop-color="#004B4B"/>
<stop offset="0.649516" stop-color="#26DDFF"/>
<stop offset="0.953267" stop-color="#26DDFF" stop-opacity="0"/>
</linearGradient>
<linearGradient id="paint10_linear_1237_773" x1="98.072" y1="145.548" x2="89.4432" y2="159.036" gradientUnits="userSpaceOnUse">
<stop stop-color="#12637E"/>
<stop offset="0.781" stop-color="#04182D"/>
</linearGradient>
<linearGradient id="paint11_linear_1237_773" x1="86.0203" y1="132.056" x2="108.263" y2="146.671" gradientUnits="userSpaceOnUse">
<stop offset="0.303689" stop-color="#004B4B" stop-opacity="0"/>
<stop offset="0.422945" stop-color="#004B4B" stop-opacity="0.4"/>
<stop offset="0.499089" stop-color="#004B4B"/>
<stop offset="0.649516" stop-color="#26DDFF"/>
<stop offset="0.953267" stop-color="#26DDFF" stop-opacity="0"/>
</linearGradient>
<linearGradient id="paint12_linear_1237_773" x1="143.259" y1="87.5716" x2="112.196" y2="136.131" gradientUnits="userSpaceOnUse">
<stop stop-color="#12637E"/>
<stop offset="0.781" stop-color="#04182D"/>
</linearGradient>
<linearGradient id="paint13_linear_1237_773" x1="156.125" y1="94.375" x2="124.705" y2="141.949" gradientUnits="userSpaceOnUse">
<stop offset="0.303689" stop-color="#004B4B" stop-opacity="0"/>
<stop offset="0.422945" stop-color="#004B4B" stop-opacity="0.4"/>
<stop offset="0.499089" stop-color="#004B4B"/>
<stop offset="0.649516" stop-color="#26DDFF"/>
<stop offset="0.953267" stop-color="#26DDFF" stop-opacity="0"/>
</linearGradient>
<linearGradient id="paint14_linear_1237_773" x1="432.727" y1="158.429" x2="421.242" y2="248.2" gradientUnits="userSpaceOnUse">
<stop stop-color="#12637E"/>
<stop offset="0.781" stop-color="#04182D"/>
</linearGradient>
<linearGradient id="paint15_linear_1237_773" x1="518.5" y1="167.5" x2="506.673" y2="257.039" gradientUnits="userSpaceOnUse">
<stop offset="0.303689" stop-color="#004B4B" stop-opacity="0"/>
<stop offset="0.422945" stop-color="#004B4B" stop-opacity="0.4"/>
<stop offset="0.499089" stop-color="#004B4B"/>
<stop offset="0.649516" stop-color="#26DDFF"/>
<stop offset="0.953267" stop-color="#26DDFF" stop-opacity="0"/>
</linearGradient>
<linearGradient id="paint16_linear_1237_773" x1="135.082" y1="95.8363" x2="220.584" y2="133.291" gradientUnits="userSpaceOnUse">
<stop offset="0.303689" stop-color="#004B4B" stop-opacity="0"/>
<stop offset="0.422945" stop-color="#004B4B" stop-opacity="0.4"/>
<stop offset="0.499089" stop-color="#004B4B"/>
<stop offset="0.649516" stop-color="#26DDFF"/>
<stop offset="0.953267" stop-color="#26DDFF" stop-opacity="0"/>
</linearGradient>
<linearGradient id="paint17_linear_1237_773" x1="146.072" y1="202.548" x2="137.443" y2="216.036" gradientUnits="userSpaceOnUse">
<stop stop-color="#12637E"/>
<stop offset="0.781" stop-color="#04182D"/>
</linearGradient>
<linearGradient id="paint18_linear_1237_773" x1="134.02" y1="189.056" x2="156.263" y2="203.671" gradientUnits="userSpaceOnUse">
<stop offset="0.303689" stop-color="#004B4B" stop-opacity="0"/>
<stop offset="0.422945" stop-color="#004B4B" stop-opacity="0.4"/>
<stop offset="0.499089" stop-color="#004B4B"/>
<stop offset="0.649516" stop-color="#26DDFF"/>
<stop offset="0.953267" stop-color="#26DDFF" stop-opacity="0"/>
</linearGradient>
<linearGradient id="paint19_linear_1237_773" x1="204.259" y1="168.572" x2="173.196" y2="217.131" gradientUnits="userSpaceOnUse">
<stop stop-color="#12637E"/>
<stop offset="0.781" stop-color="#04182D"/>
</linearGradient>
<linearGradient id="paint20_linear_1237_773" x1="217.125" y1="175.375" x2="185.705" y2="222.949" gradientUnits="userSpaceOnUse">
<stop offset="0.303689" stop-color="#004B4B" stop-opacity="0"/>
<stop offset="0.422945" stop-color="#004B4B" stop-opacity="0.4"/>
<stop offset="0.499089" stop-color="#004B4B"/>
<stop offset="0.649516" stop-color="#26DDFF"/>
<stop offset="0.953267" stop-color="#26DDFF" stop-opacity="0"/>
</linearGradient>
<linearGradient id="paint21_linear_1237_773" x1="448.727" y1="239.429" x2="437.242" y2="329.2" gradientUnits="userSpaceOnUse">
<stop stop-color="#12637E"/>
<stop offset="0.781" stop-color="#04182D"/>
</linearGradient>
<linearGradient id="paint22_linear_1237_773" x1="534.5" y1="248.5" x2="522.673" y2="338.039" gradientUnits="userSpaceOnUse">
<stop offset="0.303689" stop-color="#004B4B" stop-opacity="0"/>
<stop offset="0.422945" stop-color="#004B4B" stop-opacity="0.4"/>
<stop offset="0.499089" stop-color="#004B4B"/>
<stop offset="0.649516" stop-color="#26DDFF"/>
<stop offset="0.953267" stop-color="#26DDFF" stop-opacity="0"/>
</linearGradient>
<linearGradient id="paint23_linear_1237_773" x1="146.082" y1="179.836" x2="231.584" y2="217.291" gradientUnits="userSpaceOnUse">
<stop offset="0.303689" stop-color="#004B4B" stop-opacity="0"/>
<stop offset="0.422945" stop-color="#004B4B" stop-opacity="0.4"/>
<stop offset="0.499089" stop-color="#004B4B"/>
<stop offset="0.649516" stop-color="#26DDFF"/>
<stop offset="0.953267" stop-color="#26DDFF" stop-opacity="0"/>
</linearGradient>
<linearGradient id="paint24_linear_1237_773" x1="161.072" y1="271.548" x2="152.443" y2="285.036" gradientUnits="userSpaceOnUse">
<stop stop-color="#12637E"/>
<stop offset="0.781" stop-color="#04182D"/>
</linearGradient>
<linearGradient id="paint25_linear_1237_773" x1="149.02" y1="258.056" x2="171.263" y2="272.671" gradientUnits="userSpaceOnUse">
<stop offset="0.303689" stop-color="#004B4B" stop-opacity="0"/>
<stop offset="0.422945" stop-color="#004B4B" stop-opacity="0.4"/>
<stop offset="0.499089" stop-color="#004B4B"/>
<stop offset="0.649516" stop-color="#26DDFF"/>
<stop offset="0.953267" stop-color="#26DDFF" stop-opacity="0"/>
</linearGradient>
<linearGradient id="paint26_linear_1237_773" x1="220.259" y1="249.572" x2="189.196" y2="298.131" gradientUnits="userSpaceOnUse">
<stop stop-color="#12637E"/>
<stop offset="0.781" stop-color="#04182D"/>
</linearGradient>
<linearGradient id="paint27_linear_1237_773" x1="233.125" y1="256.375" x2="201.705" y2="303.949" gradientUnits="userSpaceOnUse">
<stop offset="0.303689" stop-color="#004B4B" stop-opacity="0"/>
<stop offset="0.422945" stop-color="#004B4B" stop-opacity="0.4"/>
<stop offset="0.499089" stop-color="#004B4B"/>
<stop offset="0.649516" stop-color="#26DDFF"/>
<stop offset="0.953267" stop-color="#26DDFF" stop-opacity="0"/>
</linearGradient>
<linearGradient id="paint28_linear_1237_773" x1="432.727" y1="320.429" x2="421.242" y2="410.2" gradientUnits="userSpaceOnUse">
<stop stop-color="#12637E"/>
<stop offset="0.781" stop-color="#04182D"/>
</linearGradient>
<linearGradient id="paint29_linear_1237_773" x1="518.5" y1="329.5" x2="506.673" y2="419.039" gradientUnits="userSpaceOnUse">
<stop offset="0.303689" stop-color="#004B4B" stop-opacity="0"/>
<stop offset="0.422945" stop-color="#004B4B" stop-opacity="0.4"/>
<stop offset="0.499089" stop-color="#004B4B"/>
<stop offset="0.649516" stop-color="#26DDFF"/>
<stop offset="0.953267" stop-color="#26DDFF" stop-opacity="0"/>
</linearGradient>
<linearGradient id="paint30_linear_1237_773" x1="135.081" y1="260.836" x2="220.583" y2="298.291" gradientUnits="userSpaceOnUse">
<stop offset="0.303689" stop-color="#004B4B" stop-opacity="0"/>
<stop offset="0.422945" stop-color="#004B4B" stop-opacity="0.4"/>
<stop offset="0.499089" stop-color="#004B4B"/>
<stop offset="0.649516" stop-color="#26DDFF"/>
<stop offset="0.953267" stop-color="#26DDFF" stop-opacity="0"/>
</linearGradient>
<linearGradient id="paint31_linear_1237_773" x1="148.072" y1="335.548" x2="139.443" y2="349.036" gradientUnits="userSpaceOnUse">
<stop stop-color="#12637E"/>
<stop offset="0.781" stop-color="#04182D"/>
</linearGradient>
<linearGradient id="paint32_linear_1237_773" x1="136.02" y1="322.056" x2="158.263" y2="336.671" gradientUnits="userSpaceOnUse">
<stop offset="0.303689" stop-color="#004B4B" stop-opacity="0"/>
<stop offset="0.422945" stop-color="#004B4B" stop-opacity="0.4"/>
<stop offset="0.499089" stop-color="#004B4B"/>
<stop offset="0.649516" stop-color="#26DDFF"/>
<stop offset="0.953267" stop-color="#26DDFF" stop-opacity="0"/>
</linearGradient>
<linearGradient id="paint33_linear_1237_773" x1="204.259" y1="330.572" x2="173.196" y2="379.131" gradientUnits="userSpaceOnUse">
<stop stop-color="#12637E"/>
<stop offset="0.781" stop-color="#04182D"/>
</linearGradient>
<linearGradient id="paint34_linear_1237_773" x1="217.125" y1="337.375" x2="185.705" y2="384.949" gradientUnits="userSpaceOnUse">
<stop offset="0.303689" stop-color="#004B4B" stop-opacity="0"/>
<stop offset="0.422945" stop-color="#004B4B" stop-opacity="0.4"/>
<stop offset="0.499089" stop-color="#004B4B"/>
<stop offset="0.649516" stop-color="#26DDFF"/>
<stop offset="0.953267" stop-color="#26DDFF" stop-opacity="0"/>
</linearGradient>
<linearGradient id="paint35_linear_1237_773" x1="371.727" y1="401.429" x2="360.242" y2="491.2" gradientUnits="userSpaceOnUse">
<stop stop-color="#12637E"/>
<stop offset="0.781" stop-color="#04182D"/>
</linearGradient>
<linearGradient id="paint36_linear_1237_773" x1="457.5" y1="410.5" x2="445.673" y2="500.039" gradientUnits="userSpaceOnUse">
<stop offset="0.303689" stop-color="#004B4B" stop-opacity="0"/>
<stop offset="0.422945" stop-color="#004B4B" stop-opacity="0.4"/>
<stop offset="0.499089" stop-color="#004B4B"/>
<stop offset="0.649516" stop-color="#26DDFF"/>
<stop offset="0.953267" stop-color="#26DDFF" stop-opacity="0"/>
</linearGradient>
<linearGradient id="paint37_linear_1237_773" x1="85.6649" y1="323.667" x2="171.167" y2="361.122" gradientUnits="userSpaceOnUse">
<stop offset="0.303689" stop-color="#004B4B" stop-opacity="0"/>
<stop offset="0.422945" stop-color="#004B4B" stop-opacity="0.4"/>
<stop offset="0.499089" stop-color="#004B4B"/>
<stop offset="0.649516" stop-color="#26DDFF"/>
<stop offset="0.953267" stop-color="#26DDFF" stop-opacity="0"/>
</linearGradient>
<linearGradient id="paint38_linear_1237_773" x1="98.072" y1="397.548" x2="89.4432" y2="411.036" gradientUnits="userSpaceOnUse">
<stop stop-color="#12637E"/>
<stop offset="0.781" stop-color="#04182D"/>
</linearGradient>
<linearGradient id="paint39_linear_1237_773" x1="86.0203" y1="384.056" x2="108.263" y2="398.671" gradientUnits="userSpaceOnUse">
<stop offset="0.303689" stop-color="#004B4B" stop-opacity="0"/>
<stop offset="0.422945" stop-color="#004B4B" stop-opacity="0.4"/>
<stop offset="0.499089" stop-color="#004B4B"/>
<stop offset="0.649516" stop-color="#26DDFF"/>
<stop offset="0.953267" stop-color="#26DDFF" stop-opacity="0"/>
</linearGradient>
<linearGradient id="paint40_linear_1237_773" x1="143.259" y1="411.572" x2="112.196" y2="460.131" gradientUnits="userSpaceOnUse">
<stop stop-color="#12637E"/>
<stop offset="0.781" stop-color="#04182D"/>
</linearGradient>
<linearGradient id="paint41_linear_1237_773" x1="156.125" y1="418.375" x2="124.705" y2="465.949" gradientUnits="userSpaceOnUse">
<stop offset="0.303689" stop-color="#004B4B" stop-opacity="0"/>
<stop offset="0.422945" stop-color="#004B4B" stop-opacity="0.4"/>
<stop offset="0.499089" stop-color="#004B4B"/>
<stop offset="0.649516" stop-color="#26DDFF"/>
<stop offset="0.953267" stop-color="#26DDFF" stop-opacity="0"/>
</linearGradient>
</defs>
</svg>
