<svg width="16" height="17" viewBox="0 0 16 17" fill="none" xmlns="http://www.w3.org/2000/svg">
<path d="M3.80841 6.23828H0.570312V16.1907H3.80841V6.23828Z" fill="white"/>
<path d="M2.18936 4.42862C3.08354 4.42862 3.80841 3.61847 3.80841 2.61909C3.80841 1.61972 3.08354 0.80957 2.18936 0.80957C1.29518 0.80957 0.570312 1.61972 0.570312 2.61909C0.570312 3.61847 1.29518 4.42862 2.18936 4.42862Z" fill="white"/>
<path d="M11.4972 5.55957C10.3922 5.56319 9.34873 6.13048 8.66388 7.10129V6.23814H5.42578V16.1905H8.66388V9.85719C8.66388 8.85833 9.38921 8.04767 10.2829 8.04767C11.1766 8.04767 11.902 8.85833 11.902 9.85719V16.1905H15.1401V9.631C15.1401 7.38267 13.5089 5.55957 11.4972 5.55957Z" fill="white"/>
</svg>
