<svg width="500" height="560" viewBox="0 0 500 560" fill="none" xmlns="http://www.w3.org/2000/svg">
<rect x="0.25" y="0.25" width="499.5" height="559.5" rx="15.75" stroke="url(#paint0_linear_1249_940)" stroke-width="0.5"/>
<path d="M0 124C86.1365 124 156 193.864 156 280C156 366.136 86.1365 436 0 436" fill="url(#paint1_linear_1249_940)"/>
<path d="M0 124C86.1365 124 156 193.864 156 280C156 366.136 86.1365 436 0 436" stroke="url(#paint2_linear_1249_940)" stroke-miterlimit="10"/>
<path d="M0 180C55.2157 180 100 224.784 100 280C100 335.216 55.2157 380 0 380" fill="url(#paint3_linear_1249_940)"/>
<path d="M0 180C55.2157 180 100 224.784 100 280C100 335.216 55.2157 380 0 380" stroke="url(#paint4_linear_1249_940)" stroke-width="0.5" stroke-miterlimit="10"/>
<path d="M0 124C86.1365 124 156 193.864 156 280C156 366.136 86.1365 436 0 436" fill="url(#paint5_linear_1249_940)"/>
<path d="M0 124C86.1365 124 156 193.864 156 280C156 366.136 86.1365 436 0 436" stroke="url(#paint6_linear_1249_940)" stroke-miterlimit="10"/>
<path d="M0 180C55.2157 180 100 224.784 100 280C100 335.216 55.2157 380 0 380" fill="url(#paint7_linear_1249_940)"/>
<path d="M0 180C55.2157 180 100 224.784 100 280C100 335.216 55.2157 380 0 380" stroke="url(#paint8_linear_1249_940)" stroke-width="0.5" stroke-miterlimit="10"/>
<path d="M0 226C29.8165 226 54 250.184 54 280C54 309.816 29.8165 334 0 334" fill="url(#paint9_linear_1249_940)"/>
<path d="M0 226C29.8165 226 54 250.184 54 280C54 309.816 29.8165 334 0 334" stroke="url(#paint10_linear_1249_940)" stroke-width="0.5" stroke-miterlimit="10"/>
<rect x="130.5" y="91.5" width="239" height="47" rx="23.5" fill="url(#paint11_linear_1249_940)"/>
<rect x="130.5" y="91.5" width="239" height="47" rx="23.5" stroke="url(#paint12_linear_1249_940)"/>
<path d="M156.352 110.742V120.5H155.078V110.742H156.352ZM162.761 112.688C163.695 112.688 164.451 112.973 165.029 113.542C165.608 114.102 165.897 114.914 165.897 115.978V120.5H164.637V116.16C164.637 115.395 164.446 114.811 164.063 114.41C163.681 113.999 163.158 113.794 162.495 113.794C161.823 113.794 161.287 114.004 160.885 114.424C160.493 114.844 160.297 115.455 160.297 116.258V120.5H159.023V112.828H160.297V113.92C160.549 113.528 160.89 113.225 161.319 113.01C161.758 112.795 162.239 112.688 162.761 112.688ZM171.194 120.626C170.606 120.626 170.079 120.528 169.612 120.332C169.146 120.127 168.777 119.847 168.506 119.492C168.236 119.128 168.086 118.713 168.058 118.246H169.374C169.412 118.629 169.589 118.941 169.906 119.184C170.233 119.427 170.658 119.548 171.18 119.548C171.666 119.548 172.048 119.441 172.328 119.226C172.608 119.011 172.748 118.741 172.748 118.414C172.748 118.078 172.599 117.831 172.3 117.672C172.002 117.504 171.54 117.341 170.914 117.182C170.345 117.033 169.878 116.883 169.514 116.734C169.16 116.575 168.852 116.347 168.59 116.048C168.338 115.74 168.212 115.339 168.212 114.844C168.212 114.452 168.329 114.093 168.562 113.766C168.796 113.439 169.127 113.183 169.556 112.996C169.986 112.8 170.476 112.702 171.026 112.702C171.876 112.702 172.562 112.917 173.084 113.346C173.607 113.775 173.887 114.363 173.924 115.11H172.65C172.622 114.709 172.459 114.387 172.16 114.144C171.871 113.901 171.479 113.78 170.984 113.78C170.527 113.78 170.163 113.878 169.892 114.074C169.622 114.27 169.486 114.527 169.486 114.844C169.486 115.096 169.566 115.306 169.724 115.474C169.892 115.633 170.098 115.763 170.34 115.866C170.592 115.959 170.938 116.067 171.376 116.188C171.927 116.337 172.375 116.487 172.72 116.636C173.066 116.776 173.36 116.991 173.602 117.28C173.854 117.569 173.985 117.947 173.994 118.414C173.994 118.834 173.878 119.212 173.644 119.548C173.411 119.884 173.08 120.15 172.65 120.346C172.23 120.533 171.745 120.626 171.194 120.626ZM177.847 113.878V118.4C177.847 118.773 177.926 119.039 178.085 119.198C178.244 119.347 178.519 119.422 178.911 119.422H179.849V120.5H178.701C177.992 120.5 177.46 120.337 177.105 120.01C176.75 119.683 176.573 119.147 176.573 118.4V113.878H175.579V112.828H176.573V110.896H177.847V112.828H179.849V113.878H177.847ZM181.416 116.636C181.416 115.852 181.575 115.166 181.892 114.578C182.21 113.981 182.644 113.519 183.194 113.192C183.754 112.865 184.375 112.702 185.056 112.702C185.728 112.702 186.312 112.847 186.806 113.136C187.301 113.425 187.67 113.789 187.912 114.228V112.828H189.2V120.5H187.912V119.072C187.66 119.52 187.282 119.893 186.778 120.192C186.284 120.481 185.705 120.626 185.042 120.626C184.361 120.626 183.745 120.458 183.194 120.122C182.644 119.786 182.21 119.315 181.892 118.708C181.575 118.101 181.416 117.411 181.416 116.636ZM187.912 116.65C187.912 116.071 187.796 115.567 187.562 115.138C187.329 114.709 187.012 114.382 186.61 114.158C186.218 113.925 185.784 113.808 185.308 113.808C184.832 113.808 184.398 113.92 184.006 114.144C183.614 114.368 183.302 114.695 183.068 115.124C182.835 115.553 182.718 116.057 182.718 116.636C182.718 117.224 182.835 117.737 183.068 118.176C183.302 118.605 183.614 118.937 184.006 119.17C184.398 119.394 184.832 119.506 185.308 119.506C185.784 119.506 186.218 119.394 186.61 119.17C187.012 118.937 187.329 118.605 187.562 118.176C187.796 117.737 187.912 117.229 187.912 116.65ZM195.591 112.688C196.525 112.688 197.281 112.973 197.859 113.542C198.438 114.102 198.727 114.914 198.727 115.978V120.5H197.467V116.16C197.467 115.395 197.276 114.811 196.893 114.41C196.511 113.999 195.988 113.794 195.325 113.794C194.653 113.794 194.117 114.004 193.715 114.424C193.323 114.844 193.127 115.455 193.127 116.258V120.5H191.853V112.828H193.127V113.92C193.379 113.528 193.72 113.225 194.149 113.01C194.588 112.795 195.069 112.688 195.591 112.688ZM202.862 113.878V118.4C202.862 118.773 202.942 119.039 203.1 119.198C203.259 119.347 203.534 119.422 203.926 119.422H204.864V120.5H203.716C203.007 120.5 202.475 120.337 202.12 120.01C201.766 119.683 201.588 119.147 201.588 118.4V113.878H200.594V112.828H201.588V110.896H202.862V112.828H204.864V113.878H202.862ZM217.665 113.598C217.665 114.41 217.385 115.087 216.825 115.628C216.274 116.16 215.429 116.426 214.291 116.426H212.415V120.5H211.141V110.742H214.291C215.392 110.742 216.227 111.008 216.797 111.54C217.375 112.072 217.665 112.758 217.665 113.598ZM214.291 115.376C215 115.376 215.523 115.222 215.859 114.914C216.195 114.606 216.363 114.167 216.363 113.598C216.363 112.394 215.672 111.792 214.291 111.792H212.415V115.376H214.291ZM219.272 116.636C219.272 115.852 219.431 115.166 219.748 114.578C220.065 113.981 220.499 113.519 221.05 113.192C221.61 112.865 222.231 112.702 222.912 112.702C223.584 112.702 224.167 112.847 224.662 113.136C225.157 113.425 225.525 113.789 225.768 114.228V112.828H227.056V120.5H225.768V119.072C225.516 119.52 225.138 119.893 224.634 120.192C224.139 120.481 223.561 120.626 222.898 120.626C222.217 120.626 221.601 120.458 221.05 120.122C220.499 119.786 220.065 119.315 219.748 118.708C219.431 118.101 219.272 117.411 219.272 116.636ZM225.768 116.65C225.768 116.071 225.651 115.567 225.418 115.138C225.185 114.709 224.867 114.382 224.466 114.158C224.074 113.925 223.64 113.808 223.164 113.808C222.688 113.808 222.254 113.92 221.862 114.144C221.47 114.368 221.157 114.695 220.924 115.124C220.691 115.553 220.574 116.057 220.574 116.636C220.574 117.224 220.691 117.737 220.924 118.176C221.157 118.605 221.47 118.937 221.862 119.17C222.254 119.394 222.688 119.506 223.164 119.506C223.64 119.506 224.074 119.394 224.466 119.17C224.867 118.937 225.185 118.605 225.418 118.176C225.651 117.737 225.768 117.229 225.768 116.65ZM236.317 112.828L231.697 124.112H230.381L231.893 120.416L228.799 112.828H230.213L232.621 119.044L235.001 112.828H236.317ZM247.324 112.688C247.921 112.688 248.453 112.814 248.92 113.066C249.386 113.309 249.755 113.677 250.026 114.172C250.296 114.667 250.432 115.269 250.432 115.978V120.5H249.172V116.16C249.172 115.395 248.98 114.811 248.598 114.41C248.224 113.999 247.716 113.794 247.072 113.794C246.409 113.794 245.882 114.009 245.49 114.438C245.098 114.858 244.902 115.469 244.902 116.272V120.5H243.642V116.16C243.642 115.395 243.45 114.811 243.068 114.41C242.694 113.999 242.186 113.794 241.542 113.794C240.879 113.794 240.352 114.009 239.96 114.438C239.568 114.858 239.372 115.469 239.372 116.272V120.5H238.098V112.828H239.372V113.934C239.624 113.533 239.96 113.225 240.38 113.01C240.809 112.795 241.28 112.688 241.794 112.688C242.438 112.688 243.007 112.833 243.502 113.122C243.996 113.411 244.365 113.836 244.608 114.396C244.822 113.855 245.177 113.435 245.672 113.136C246.166 112.837 246.717 112.688 247.324 112.688ZM260.021 116.37C260.021 116.613 260.007 116.869 259.979 117.14H253.847C253.894 117.896 254.151 118.489 254.617 118.918C255.093 119.338 255.667 119.548 256.339 119.548C256.89 119.548 257.347 119.422 257.711 119.17C258.085 118.909 258.346 118.563 258.495 118.134H259.867C259.662 118.871 259.251 119.473 258.635 119.94C258.019 120.397 257.254 120.626 256.339 120.626C255.611 120.626 254.958 120.463 254.379 120.136C253.81 119.809 253.362 119.347 253.035 118.75C252.709 118.143 252.545 117.443 252.545 116.65C252.545 115.857 252.704 115.161 253.021 114.564C253.339 113.967 253.782 113.509 254.351 113.192C254.93 112.865 255.593 112.702 256.339 112.702C257.067 112.702 257.711 112.861 258.271 113.178C258.831 113.495 259.261 113.934 259.559 114.494C259.867 115.045 260.021 115.67 260.021 116.37ZM258.705 116.104C258.705 115.619 258.598 115.203 258.383 114.858C258.169 114.503 257.875 114.237 257.501 114.06C257.137 113.873 256.731 113.78 256.283 113.78C255.639 113.78 255.089 113.985 254.631 114.396C254.183 114.807 253.927 115.376 253.861 116.104H258.705ZM265.941 112.688C266.874 112.688 267.63 112.973 268.209 113.542C268.788 114.102 269.077 114.914 269.077 115.978V120.5H267.817V116.16C267.817 115.395 267.626 114.811 267.243 114.41C266.86 113.999 266.338 113.794 265.675 113.794C265.003 113.794 264.466 114.004 264.065 114.424C263.673 114.844 263.477 115.455 263.477 116.258V120.5H262.203V112.828H263.477V113.92C263.729 113.528 264.07 113.225 264.499 113.01C264.938 112.795 265.418 112.688 265.941 112.688ZM273.212 113.878V118.4C273.212 118.773 273.291 119.039 273.45 119.198C273.609 119.347 273.884 119.422 274.276 119.422H275.214V120.5H274.066C273.357 120.5 272.825 120.337 272.47 120.01C272.115 119.683 271.938 119.147 271.938 118.4V113.878H270.944V112.828H271.938V110.896H273.212V112.828H275.214V113.878H273.212ZM288.014 113.598C288.014 114.41 287.734 115.087 287.174 115.628C286.623 116.16 285.779 116.426 284.64 116.426H282.764V120.5H281.49V110.742H284.64C285.741 110.742 286.577 111.008 287.146 111.54C287.725 112.072 288.014 112.758 288.014 113.598ZM284.64 115.376C285.349 115.376 285.872 115.222 286.208 114.914C286.544 114.606 286.712 114.167 286.712 113.598C286.712 112.394 286.021 111.792 284.64 111.792H282.764V115.376H284.64ZM291.372 114.074C291.596 113.635 291.913 113.295 292.324 113.052C292.744 112.809 293.252 112.688 293.85 112.688V114.004H293.514C292.086 114.004 291.372 114.779 291.372 116.328V120.5H290.098V112.828H291.372V114.074ZM299.166 120.626C298.448 120.626 297.794 120.463 297.206 120.136C296.628 119.809 296.17 119.347 295.834 118.75C295.508 118.143 295.344 117.443 295.344 116.65C295.344 115.866 295.512 115.175 295.848 114.578C296.194 113.971 296.66 113.509 297.248 113.192C297.836 112.865 298.494 112.702 299.222 112.702C299.95 112.702 300.608 112.865 301.196 113.192C301.784 113.509 302.246 113.967 302.582 114.564C302.928 115.161 303.1 115.857 303.1 116.65C303.1 117.443 302.923 118.143 302.568 118.75C302.223 119.347 301.752 119.809 301.154 120.136C300.557 120.463 299.894 120.626 299.166 120.626ZM299.166 119.506C299.624 119.506 300.053 119.399 300.454 119.184C300.856 118.969 301.178 118.647 301.42 118.218C301.672 117.789 301.798 117.266 301.798 116.65C301.798 116.034 301.677 115.511 301.434 115.082C301.192 114.653 300.874 114.335 300.482 114.13C300.09 113.915 299.666 113.808 299.208 113.808C298.742 113.808 298.312 113.915 297.92 114.13C297.538 114.335 297.23 114.653 296.996 115.082C296.763 115.511 296.646 116.034 296.646 116.65C296.646 117.275 296.758 117.803 296.982 118.232C297.216 118.661 297.524 118.983 297.906 119.198C298.289 119.403 298.709 119.506 299.166 119.506ZM304.799 116.65C304.799 115.857 304.958 115.166 305.275 114.578C305.593 113.981 306.031 113.519 306.591 113.192C307.161 112.865 307.809 112.702 308.537 112.702C309.48 112.702 310.255 112.931 310.861 113.388C311.477 113.845 311.883 114.48 312.079 115.292H310.707C310.577 114.825 310.32 114.457 309.937 114.186C309.564 113.915 309.097 113.78 308.537 113.78C307.809 113.78 307.221 114.032 306.773 114.536C306.325 115.031 306.101 115.735 306.101 116.65C306.101 117.574 306.325 118.288 306.773 118.792C307.221 119.296 307.809 119.548 308.537 119.548C309.097 119.548 309.564 119.417 309.937 119.156C310.311 118.895 310.567 118.521 310.707 118.036H312.079C311.874 118.82 311.463 119.45 310.847 119.926C310.231 120.393 309.461 120.626 308.537 120.626C307.809 120.626 307.161 120.463 306.591 120.136C306.031 119.809 305.593 119.347 305.275 118.75C304.958 118.153 304.799 117.453 304.799 116.65ZM321.279 116.37C321.279 116.613 321.265 116.869 321.237 117.14H315.105C315.152 117.896 315.409 118.489 315.875 118.918C316.351 119.338 316.925 119.548 317.597 119.548C318.148 119.548 318.605 119.422 318.969 119.17C319.343 118.909 319.604 118.563 319.753 118.134H321.125C320.92 118.871 320.509 119.473 319.893 119.94C319.277 120.397 318.512 120.626 317.597 120.626C316.869 120.626 316.216 120.463 315.637 120.136C315.068 119.809 314.62 119.347 314.293 118.75C313.967 118.143 313.803 117.443 313.803 116.65C313.803 115.857 313.962 115.161 314.279 114.564C314.597 113.967 315.04 113.509 315.609 113.192C316.188 112.865 316.851 112.702 317.597 112.702C318.325 112.702 318.969 112.861 319.529 113.178C320.089 113.495 320.519 113.934 320.817 114.494C321.125 115.045 321.279 115.67 321.279 116.37ZM319.963 116.104C319.963 115.619 319.856 115.203 319.641 114.858C319.427 114.503 319.133 114.237 318.759 114.06C318.395 113.873 317.989 113.78 317.541 113.78C316.897 113.78 316.347 113.985 315.889 114.396C315.441 114.807 315.185 115.376 315.119 116.104H319.963ZM326.177 120.626C325.589 120.626 325.061 120.528 324.595 120.332C324.128 120.127 323.759 119.847 323.489 119.492C323.218 119.128 323.069 118.713 323.041 118.246H324.357C324.394 118.629 324.571 118.941 324.889 119.184C325.215 119.427 325.64 119.548 326.163 119.548C326.648 119.548 327.031 119.441 327.311 119.226C327.591 119.011 327.731 118.741 327.731 118.414C327.731 118.078 327.581 117.831 327.283 117.672C326.984 117.504 326.522 117.341 325.897 117.182C325.327 117.033 324.861 116.883 324.497 116.734C324.142 116.575 323.834 116.347 323.573 116.048C323.321 115.74 323.195 115.339 323.195 114.844C323.195 114.452 323.311 114.093 323.545 113.766C323.778 113.439 324.109 113.183 324.539 112.996C324.968 112.8 325.458 112.702 326.009 112.702C326.858 112.702 327.544 112.917 328.067 113.346C328.589 113.775 328.869 114.363 328.907 115.11H327.633C327.605 114.709 327.441 114.387 327.143 114.144C326.853 113.901 326.461 113.78 325.967 113.78C325.509 113.78 325.145 113.878 324.875 114.074C324.604 114.27 324.469 114.527 324.469 114.844C324.469 115.096 324.548 115.306 324.707 115.474C324.875 115.633 325.08 115.763 325.323 115.866C325.575 115.959 325.92 116.067 326.359 116.188C326.909 116.337 327.357 116.487 327.703 116.636C328.048 116.776 328.342 116.991 328.585 117.28C328.837 117.569 328.967 117.947 328.977 118.414C328.977 118.834 328.86 119.212 328.627 119.548C328.393 119.884 328.062 120.15 327.633 120.346C327.213 120.533 326.727 120.626 326.177 120.626ZM333.991 120.626C333.403 120.626 332.876 120.528 332.409 120.332C331.943 120.127 331.574 119.847 331.303 119.492C331.033 119.128 330.883 118.713 330.855 118.246H332.171C332.209 118.629 332.386 118.941 332.703 119.184C333.03 119.427 333.455 119.548 333.977 119.548C334.463 119.548 334.845 119.441 335.125 119.226C335.405 119.011 335.545 118.741 335.545 118.414C335.545 118.078 335.396 117.831 335.097 117.672C334.799 117.504 334.337 117.341 333.711 117.182C333.142 117.033 332.675 116.883 332.311 116.734C331.957 116.575 331.649 116.347 331.387 116.048C331.135 115.74 331.009 115.339 331.009 114.844C331.009 114.452 331.126 114.093 331.359 113.766C331.593 113.439 331.924 113.183 332.353 112.996C332.783 112.8 333.273 112.702 333.823 112.702C334.673 112.702 335.359 112.917 335.881 113.346C336.404 113.775 336.684 114.363 336.721 115.11H335.447C335.419 114.709 335.256 114.387 334.957 114.144C334.668 113.901 334.276 113.78 333.781 113.78C333.324 113.78 332.96 113.878 332.689 114.074C332.419 114.27 332.283 114.527 332.283 114.844C332.283 115.096 332.363 115.306 332.521 115.474C332.689 115.633 332.895 115.763 333.137 115.866C333.389 115.959 333.735 116.067 334.173 116.188C334.724 116.337 335.172 116.487 335.517 116.636C335.863 116.776 336.157 116.991 336.399 117.28C336.651 117.569 336.782 117.947 336.791 118.414C336.791 118.834 336.675 119.212 336.441 119.548C336.208 119.884 335.877 120.15 335.447 120.346C335.027 120.533 334.542 120.626 333.991 120.626ZM339.748 111.582C339.505 111.582 339.3 111.498 339.132 111.33C338.964 111.162 338.88 110.957 338.88 110.714C338.88 110.471 338.964 110.266 339.132 110.098C339.3 109.93 339.505 109.846 339.748 109.846C339.981 109.846 340.177 109.93 340.336 110.098C340.504 110.266 340.588 110.471 340.588 110.714C340.588 110.957 340.504 111.162 340.336 111.33C340.177 111.498 339.981 111.582 339.748 111.582ZM340.364 112.828V120.5H339.09V112.828H340.364ZM346.773 112.688C347.706 112.688 348.462 112.973 349.041 113.542C349.62 114.102 349.909 114.914 349.909 115.978V120.5H348.649V116.16C348.649 115.395 348.458 114.811 348.075 114.41C347.692 113.999 347.17 113.794 346.507 113.794C345.835 113.794 345.298 114.004 344.897 114.424C344.505 114.844 344.309 115.455 344.309 116.258V120.5H343.035V112.828H344.309V113.92C344.561 113.528 344.902 113.225 345.331 113.01C345.77 112.795 346.25 112.688 346.773 112.688ZM355.654 112.702C356.317 112.702 356.895 112.847 357.39 113.136C357.894 113.425 358.267 113.789 358.51 114.228V112.828H359.798V120.668C359.798 121.368 359.649 121.989 359.35 122.53C359.051 123.081 358.622 123.51 358.062 123.818C357.511 124.126 356.867 124.28 356.13 124.28C355.122 124.28 354.282 124.042 353.61 123.566C352.938 123.09 352.541 122.441 352.42 121.62H353.68C353.82 122.087 354.109 122.46 354.548 122.74C354.987 123.029 355.514 123.174 356.13 123.174C356.83 123.174 357.399 122.955 357.838 122.516C358.286 122.077 358.51 121.461 358.51 120.668V119.058C358.258 119.506 357.885 119.879 357.39 120.178C356.895 120.477 356.317 120.626 355.654 120.626C354.973 120.626 354.352 120.458 353.792 120.122C353.241 119.786 352.807 119.315 352.49 118.708C352.173 118.101 352.014 117.411 352.014 116.636C352.014 115.852 352.173 115.166 352.49 114.578C352.807 113.981 353.241 113.519 353.792 113.192C354.352 112.865 354.973 112.702 355.654 112.702ZM358.51 116.65C358.51 116.071 358.393 115.567 358.16 115.138C357.927 114.709 357.609 114.382 357.208 114.158C356.816 113.925 356.382 113.808 355.906 113.808C355.43 113.808 354.996 113.92 354.604 114.144C354.212 114.368 353.899 114.695 353.666 115.124C353.433 115.553 353.316 116.057 353.316 116.636C353.316 117.224 353.433 117.737 353.666 118.176C353.899 118.605 354.212 118.937 354.604 119.17C354.996 119.394 355.43 119.506 355.906 119.506C356.382 119.506 356.816 119.394 357.208 119.17C357.609 118.937 357.927 118.605 358.16 118.176C358.393 117.737 358.51 117.229 358.51 116.65Z" fill="white"/>
<path d="M93.5 153.5L124 119" stroke="url(#paint13_linear_1249_940)" stroke-miterlimit="10"/>
<path d="M93 148.5C89.9332 148.5 87.5 150.933 87.5 154C87.5 157.067 89.9332 159.5 93 159.5C96.0669 159.5 98.5 157.067 98.5 154C98.5 150.933 96.0669 148.5 93 148.5Z" fill="url(#paint14_linear_1249_940)" stroke="url(#paint15_linear_1249_940)"/>
<path d="M142.5 118C142.5 127.665 134.665 135.5 125 135.5C115.335 135.5 107.5 127.665 107.5 118C107.5 108.335 115.335 100.5 125 100.5C134.665 100.5 142.5 108.335 142.5 118Z" fill="url(#paint16_linear_1249_940)" stroke="url(#paint17_linear_1249_940)"/>
<rect x="191.5" y="175.5" width="239" height="47" rx="23.5" fill="url(#paint18_linear_1249_940)"/>
<rect x="191.5" y="175.5" width="239" height="47" rx="23.5" stroke="url(#paint19_linear_1249_940)"/>
<path d="M225.976 194.312V204H224.702V196.776L221.482 204H220.586L217.352 196.762V204H216.078V194.312H217.45L221.034 202.32L224.618 194.312H225.976ZM235.441 196.328V204H234.167V202.866C233.924 203.258 233.583 203.566 233.145 203.79C232.715 204.005 232.239 204.112 231.717 204.112C231.119 204.112 230.583 203.991 230.107 203.748C229.631 203.496 229.253 203.123 228.973 202.628C228.702 202.133 228.567 201.531 228.567 200.822V196.328H229.827V200.654C229.827 201.41 230.018 201.993 230.401 202.404C230.783 202.805 231.306 203.006 231.969 203.006C232.65 203.006 233.187 202.796 233.579 202.376C233.971 201.956 234.167 201.345 234.167 200.542V196.328H235.441ZM239.366 193.64V204H238.092V193.64H239.366ZM243.591 197.378V201.9C243.591 202.273 243.67 202.539 243.829 202.698C243.988 202.847 244.263 202.922 244.655 202.922H245.593V204H244.445C243.736 204 243.204 203.837 242.849 203.51C242.494 203.183 242.317 202.647 242.317 201.9V197.378H241.323V196.328H242.317V194.396H243.591V196.328H245.593V197.378H243.591ZM248.295 195.082C248.052 195.082 247.847 194.998 247.679 194.83C247.511 194.662 247.427 194.457 247.427 194.214C247.427 193.971 247.511 193.766 247.679 193.598C247.847 193.43 248.052 193.346 248.295 193.346C248.528 193.346 248.724 193.43 248.883 193.598C249.051 193.766 249.135 193.971 249.135 194.214C249.135 194.457 249.051 194.662 248.883 194.83C248.724 194.998 248.528 195.082 248.295 195.082ZM248.911 196.328V204H247.637V196.328H248.911ZM256.902 198.33V199.408H251.316V198.33H256.902ZM261.067 202.964H264.483V204H259.793V194.242H261.067V202.964ZM265.86 200.136C265.86 199.352 266.018 198.666 266.336 198.078C266.653 197.481 267.087 197.019 267.638 196.692C268.198 196.365 268.818 196.202 269.5 196.202C270.172 196.202 270.755 196.347 271.25 196.636C271.744 196.925 272.113 197.289 272.356 197.728V196.328H273.644V204H272.356V202.572C272.104 203.02 271.726 203.393 271.222 203.692C270.727 203.981 270.148 204.126 269.486 204.126C268.804 204.126 268.188 203.958 267.638 203.622C267.087 203.286 266.653 202.815 266.336 202.208C266.018 201.601 265.86 200.911 265.86 200.136ZM272.356 200.15C272.356 199.571 272.239 199.067 272.006 198.638C271.772 198.209 271.455 197.882 271.054 197.658C270.662 197.425 270.228 197.308 269.752 197.308C269.276 197.308 268.842 197.42 268.45 197.644C268.058 197.868 267.745 198.195 267.512 198.624C267.278 199.053 267.162 199.557 267.162 200.136C267.162 200.724 267.278 201.237 267.512 201.676C267.745 202.105 268.058 202.437 268.45 202.67C268.842 202.894 269.276 203.006 269.752 203.006C270.228 203.006 270.662 202.894 271.054 202.67C271.455 202.437 271.772 202.105 272.006 201.676C272.239 201.237 272.356 200.729 272.356 200.15ZM282.905 196.328L278.285 207.612H276.969L278.481 203.916L275.387 196.328H276.801L279.209 202.544L281.589 196.328H282.905ZM291.685 199.87C291.685 200.113 291.671 200.369 291.643 200.64H285.511C285.558 201.396 285.815 201.989 286.281 202.418C286.757 202.838 287.331 203.048 288.003 203.048C288.554 203.048 289.011 202.922 289.375 202.67C289.749 202.409 290.01 202.063 290.159 201.634H291.531C291.326 202.371 290.915 202.973 290.299 203.44C289.683 203.897 288.918 204.126 288.003 204.126C287.275 204.126 286.622 203.963 286.043 203.636C285.474 203.309 285.026 202.847 284.699 202.25C284.373 201.643 284.209 200.943 284.209 200.15C284.209 199.357 284.368 198.661 284.685 198.064C285.003 197.467 285.446 197.009 286.015 196.692C286.594 196.365 287.257 196.202 288.003 196.202C288.731 196.202 289.375 196.361 289.935 196.678C290.495 196.995 290.925 197.434 291.223 197.994C291.531 198.545 291.685 199.17 291.685 199.87ZM290.369 199.604C290.369 199.119 290.262 198.703 290.047 198.358C289.833 198.003 289.539 197.737 289.165 197.56C288.801 197.373 288.395 197.28 287.947 197.28C287.303 197.28 286.753 197.485 286.295 197.896C285.847 198.307 285.591 198.876 285.525 199.604H290.369ZM295.141 197.574C295.365 197.135 295.682 196.795 296.093 196.552C296.513 196.309 297.022 196.188 297.619 196.188V197.504H297.283C295.855 197.504 295.141 198.279 295.141 199.828V204H293.867V196.328H295.141V197.574ZM306.916 204.098C306.272 204.098 305.693 203.986 305.18 203.762C304.676 203.529 304.279 203.211 303.99 202.81C303.701 202.399 303.551 201.928 303.542 201.396H304.9C304.947 201.853 305.133 202.241 305.46 202.558C305.796 202.866 306.281 203.02 306.916 203.02C307.523 203.02 307.999 202.871 308.344 202.572C308.699 202.264 308.876 201.872 308.876 201.396C308.876 201.023 308.773 200.719 308.568 200.486C308.363 200.253 308.106 200.075 307.798 199.954C307.49 199.833 307.075 199.702 306.552 199.562C305.908 199.394 305.39 199.226 304.998 199.058C304.615 198.89 304.284 198.629 304.004 198.274C303.733 197.91 303.598 197.425 303.598 196.818C303.598 196.286 303.733 195.815 304.004 195.404C304.275 194.993 304.653 194.676 305.138 194.452C305.633 194.228 306.197 194.116 306.832 194.116C307.747 194.116 308.493 194.345 309.072 194.802C309.66 195.259 309.991 195.866 310.066 196.622H308.666C308.619 196.249 308.423 195.922 308.078 195.642C307.733 195.353 307.275 195.208 306.706 195.208C306.174 195.208 305.74 195.348 305.404 195.628C305.068 195.899 304.9 196.281 304.9 196.776C304.9 197.131 304.998 197.42 305.194 197.644C305.399 197.868 305.647 198.041 305.936 198.162C306.235 198.274 306.65 198.405 307.182 198.554C307.826 198.731 308.344 198.909 308.736 199.086C309.128 199.254 309.464 199.52 309.744 199.884C310.024 200.239 310.164 200.724 310.164 201.34C310.164 201.816 310.038 202.264 309.786 202.684C309.534 203.104 309.161 203.445 308.666 203.706C308.171 203.967 307.588 204.098 306.916 204.098ZM319.539 199.87C319.539 200.113 319.525 200.369 319.497 200.64H313.365C313.412 201.396 313.668 201.989 314.135 202.418C314.611 202.838 315.185 203.048 315.857 203.048C316.408 203.048 316.865 202.922 317.229 202.67C317.602 202.409 317.864 202.063 318.013 201.634H319.385C319.18 202.371 318.769 202.973 318.153 203.44C317.537 203.897 316.772 204.126 315.857 204.126C315.129 204.126 314.476 203.963 313.897 203.636C313.328 203.309 312.88 202.847 312.553 202.25C312.226 201.643 312.063 200.943 312.063 200.15C312.063 199.357 312.222 198.661 312.539 198.064C312.856 197.467 313.3 197.009 313.869 196.692C314.448 196.365 315.11 196.202 315.857 196.202C316.585 196.202 317.229 196.361 317.789 196.678C318.349 196.995 318.778 197.434 319.077 197.994C319.385 198.545 319.539 199.17 319.539 199.87ZM318.223 199.604C318.223 199.119 318.116 198.703 317.901 198.358C317.686 198.003 317.392 197.737 317.019 197.56C316.655 197.373 316.249 197.28 315.801 197.28C315.157 197.28 314.606 197.485 314.149 197.896C313.701 198.307 313.444 198.876 313.379 199.604H318.223ZM321.245 200.15C321.245 199.357 321.403 198.666 321.721 198.078C322.038 197.481 322.477 197.019 323.037 196.692C323.606 196.365 324.255 196.202 324.983 196.202C325.925 196.202 326.7 196.431 327.307 196.888C327.923 197.345 328.329 197.98 328.525 198.792H327.153C327.022 198.325 326.765 197.957 326.383 197.686C326.009 197.415 325.543 197.28 324.983 197.28C324.255 197.28 323.667 197.532 323.219 198.036C322.771 198.531 322.547 199.235 322.547 200.15C322.547 201.074 322.771 201.788 323.219 202.292C323.667 202.796 324.255 203.048 324.983 203.048C325.543 203.048 326.009 202.917 326.383 202.656C326.756 202.395 327.013 202.021 327.153 201.536H328.525C328.319 202.32 327.909 202.95 327.293 203.426C326.677 203.893 325.907 204.126 324.983 204.126C324.255 204.126 323.606 203.963 323.037 203.636C322.477 203.309 322.038 202.847 321.721 202.25C321.403 201.653 321.245 200.953 321.245 200.15ZM337.528 196.328V204H336.254V202.866C336.012 203.258 335.671 203.566 335.232 203.79C334.803 204.005 334.327 204.112 333.804 204.112C333.207 204.112 332.67 203.991 332.194 203.748C331.718 203.496 331.34 203.123 331.06 202.628C330.79 202.133 330.654 201.531 330.654 200.822V196.328H331.914V200.654C331.914 201.41 332.106 201.993 332.488 202.404C332.871 202.805 333.394 203.006 334.056 203.006C334.738 203.006 335.274 202.796 335.666 202.376C336.058 201.956 336.254 201.345 336.254 200.542V196.328H337.528ZM341.454 197.574C341.678 197.135 341.995 196.795 342.406 196.552C342.826 196.309 343.334 196.188 343.932 196.188V197.504H343.596C342.168 197.504 341.454 198.279 341.454 199.828V204H340.18V196.328H341.454V197.574ZM346.56 195.082C346.318 195.082 346.112 194.998 345.944 194.83C345.776 194.662 345.692 194.457 345.692 194.214C345.692 193.971 345.776 193.766 345.944 193.598C346.112 193.43 346.318 193.346 346.56 193.346C346.794 193.346 346.99 193.43 347.148 193.598C347.316 193.766 347.4 193.971 347.4 194.214C347.4 194.457 347.316 194.662 347.148 194.83C346.99 194.998 346.794 195.082 346.56 195.082ZM347.176 196.328V204H345.902V196.328H347.176ZM351.402 197.378V201.9C351.402 202.273 351.481 202.539 351.64 202.698C351.798 202.847 352.074 202.922 352.466 202.922H353.404V204H352.256C351.546 204 351.014 203.837 350.66 203.51C350.305 203.183 350.128 202.647 350.128 201.9V197.378H349.134V196.328H350.128V194.396H351.402V196.328H353.404V197.378H351.402ZM362.055 196.328L357.435 207.612H356.119L357.631 203.916L354.537 196.328H355.951L358.359 202.544L360.739 196.328H362.055Z" fill="white"/>
<path d="M140.5 211.5L184.5 199.5" stroke="url(#paint20_linear_1249_940)" stroke-miterlimit="10"/>
<path d="M141 205.5C137.933 205.5 135.5 207.933 135.5 211C135.5 214.067 137.933 216.5 141 216.5C144.067 216.5 146.5 214.067 146.5 211C146.5 207.933 144.067 205.5 141 205.5Z" fill="url(#paint21_linear_1249_940)" stroke="url(#paint22_linear_1249_940)"/>
<path d="M203.5 199C203.5 208.665 195.665 216.5 186 216.5C176.335 216.5 168.5 208.665 168.5 199C168.5 189.335 176.335 181.5 186 181.5C195.665 181.5 203.5 189.335 203.5 199Z" fill="url(#paint23_linear_1249_940)" stroke="url(#paint24_linear_1249_940)"/>
<rect x="207.5" y="256.5" width="239" height="47" rx="23.5" fill="url(#paint25_linear_1249_940)"/>
<rect x="207.5" y="256.5" width="239" height="47" rx="23.5" stroke="url(#paint26_linear_1249_940)"/>
<path d="M233.352 275.242V285H232.078V275.242H233.352ZM239.761 277.188C240.695 277.188 241.451 277.473 242.029 278.042C242.608 278.602 242.897 279.414 242.897 280.478V285H241.637V280.66C241.637 279.895 241.446 279.311 241.063 278.91C240.681 278.499 240.158 278.294 239.495 278.294C238.823 278.294 238.287 278.504 237.885 278.924C237.493 279.344 237.297 279.955 237.297 280.758V285H236.023V277.328H237.297V278.42C237.549 278.028 237.89 277.725 238.319 277.51C238.758 277.295 239.239 277.188 239.761 277.188ZM248.194 285.126C247.606 285.126 247.079 285.028 246.612 284.832C246.146 284.627 245.777 284.347 245.506 283.992C245.236 283.628 245.086 283.213 245.058 282.746H246.374C246.412 283.129 246.589 283.441 246.906 283.684C247.233 283.927 247.658 284.048 248.18 284.048C248.666 284.048 249.048 283.941 249.328 283.726C249.608 283.511 249.748 283.241 249.748 282.914C249.748 282.578 249.599 282.331 249.3 282.172C249.002 282.004 248.54 281.841 247.914 281.682C247.345 281.533 246.878 281.383 246.514 281.234C246.16 281.075 245.852 280.847 245.59 280.548C245.338 280.24 245.212 279.839 245.212 279.344C245.212 278.952 245.329 278.593 245.562 278.266C245.796 277.939 246.127 277.683 246.556 277.496C246.986 277.3 247.476 277.202 248.026 277.202C248.876 277.202 249.562 277.417 250.084 277.846C250.607 278.275 250.887 278.863 250.924 279.61H249.65C249.622 279.209 249.459 278.887 249.16 278.644C248.871 278.401 248.479 278.28 247.984 278.28C247.527 278.28 247.163 278.378 246.892 278.574C246.622 278.77 246.486 279.027 246.486 279.344C246.486 279.596 246.566 279.806 246.724 279.974C246.892 280.133 247.098 280.263 247.34 280.366C247.592 280.459 247.938 280.567 248.376 280.688C248.927 280.837 249.375 280.987 249.72 281.136C250.066 281.276 250.36 281.491 250.602 281.78C250.854 282.069 250.985 282.447 250.994 282.914C250.994 283.334 250.878 283.712 250.644 284.048C250.411 284.384 250.08 284.65 249.65 284.846C249.23 285.033 248.745 285.126 248.194 285.126ZM254.847 278.378V282.9C254.847 283.273 254.926 283.539 255.085 283.698C255.244 283.847 255.519 283.922 255.911 283.922H256.849V285H255.701C254.992 285 254.46 284.837 254.105 284.51C253.75 284.183 253.573 283.647 253.573 282.9V278.378H252.579V277.328H253.573V275.396H254.847V277.328H256.849V278.378H254.847ZM258.416 281.136C258.416 280.352 258.575 279.666 258.892 279.078C259.21 278.481 259.644 278.019 260.194 277.692C260.754 277.365 261.375 277.202 262.056 277.202C262.728 277.202 263.312 277.347 263.806 277.636C264.301 277.925 264.67 278.289 264.912 278.728V277.328H266.2V285H264.912V283.572C264.66 284.02 264.282 284.393 263.778 284.692C263.284 284.981 262.705 285.126 262.042 285.126C261.361 285.126 260.745 284.958 260.194 284.622C259.644 284.286 259.21 283.815 258.892 283.208C258.575 282.601 258.416 281.911 258.416 281.136ZM264.912 281.15C264.912 280.571 264.796 280.067 264.562 279.638C264.329 279.209 264.012 278.882 263.61 278.658C263.218 278.425 262.784 278.308 262.308 278.308C261.832 278.308 261.398 278.42 261.006 278.644C260.614 278.868 260.302 279.195 260.068 279.624C259.835 280.053 259.718 280.557 259.718 281.136C259.718 281.724 259.835 282.237 260.068 282.676C260.302 283.105 260.614 283.437 261.006 283.67C261.398 283.894 261.832 284.006 262.308 284.006C262.784 284.006 263.218 283.894 263.61 283.67C264.012 283.437 264.329 283.105 264.562 282.676C264.796 282.237 264.912 281.729 264.912 281.15ZM272.591 277.188C273.525 277.188 274.281 277.473 274.859 278.042C275.438 278.602 275.727 279.414 275.727 280.478V285H274.467V280.66C274.467 279.895 274.276 279.311 273.893 278.91C273.511 278.499 272.988 278.294 272.325 278.294C271.653 278.294 271.117 278.504 270.715 278.924C270.323 279.344 270.127 279.955 270.127 280.758V285H268.853V277.328H270.127V278.42C270.379 278.028 270.72 277.725 271.149 277.51C271.588 277.295 272.069 277.188 272.591 277.188ZM279.862 278.378V282.9C279.862 283.273 279.942 283.539 280.1 283.698C280.259 283.847 280.534 283.922 280.926 283.922H281.864V285H280.716C280.007 285 279.475 284.837 279.12 284.51C278.766 284.183 278.588 283.647 278.588 282.9V278.378H277.594V277.328H278.588V275.396H279.862V277.328H281.864V278.378H279.862ZM294.147 275.242V276.278H291.487V285H290.213V276.278H287.539V275.242H294.147ZM297.489 278.574C297.713 278.135 298.03 277.795 298.441 277.552C298.861 277.309 299.369 277.188 299.967 277.188V278.504H299.631C298.203 278.504 297.489 279.279 297.489 280.828V285H296.215V277.328H297.489V278.574ZM301.461 281.136C301.461 280.352 301.62 279.666 301.937 279.078C302.255 278.481 302.689 278.019 303.239 277.692C303.799 277.365 304.42 277.202 305.101 277.202C305.773 277.202 306.357 277.347 306.851 277.636C307.346 277.925 307.715 278.289 307.957 278.728V277.328H309.245V285H307.957V283.572C307.705 284.02 307.327 284.393 306.823 284.692C306.329 284.981 305.75 285.126 305.087 285.126C304.406 285.126 303.79 284.958 303.239 284.622C302.689 284.286 302.255 283.815 301.937 283.208C301.62 282.601 301.461 281.911 301.461 281.136ZM307.957 281.15C307.957 280.571 307.841 280.067 307.607 279.638C307.374 279.209 307.057 278.882 306.655 278.658C306.263 278.425 305.829 278.308 305.353 278.308C304.877 278.308 304.443 278.42 304.051 278.644C303.659 278.868 303.347 279.195 303.113 279.624C302.88 280.053 302.763 280.557 302.763 281.136C302.763 281.724 302.88 282.237 303.113 282.676C303.347 283.105 303.659 283.437 304.051 283.67C304.443 283.894 304.877 284.006 305.353 284.006C305.829 284.006 306.263 283.894 306.655 283.67C307.057 283.437 307.374 283.105 307.607 282.676C307.841 282.237 307.957 281.729 307.957 281.15ZM315.636 277.188C316.57 277.188 317.326 277.473 317.904 278.042C318.483 278.602 318.772 279.414 318.772 280.478V285H317.512V280.66C317.512 279.895 317.321 279.311 316.938 278.91C316.556 278.499 316.033 278.294 315.37 278.294C314.698 278.294 314.162 278.504 313.76 278.924C313.368 279.344 313.172 279.955 313.172 280.758V285H311.898V277.328H313.172V278.42C313.424 278.028 313.765 277.725 314.194 277.51C314.633 277.295 315.114 277.188 315.636 277.188ZM324.069 285.126C323.481 285.126 322.954 285.028 322.487 284.832C322.021 284.627 321.652 284.347 321.381 283.992C321.111 283.628 320.961 283.213 320.933 282.746H322.249C322.287 283.129 322.464 283.441 322.781 283.684C323.108 283.927 323.533 284.048 324.055 284.048C324.541 284.048 324.923 283.941 325.203 283.726C325.483 283.511 325.623 283.241 325.623 282.914C325.623 282.578 325.474 282.331 325.175 282.172C324.877 282.004 324.415 281.841 323.789 281.682C323.22 281.533 322.753 281.383 322.389 281.234C322.035 281.075 321.727 280.847 321.465 280.548C321.213 280.24 321.087 279.839 321.087 279.344C321.087 278.952 321.204 278.593 321.437 278.266C321.671 277.939 322.002 277.683 322.431 277.496C322.861 277.3 323.351 277.202 323.901 277.202C324.751 277.202 325.437 277.417 325.959 277.846C326.482 278.275 326.762 278.863 326.799 279.61H325.525C325.497 279.209 325.334 278.887 325.035 278.644C324.746 278.401 324.354 278.28 323.859 278.28C323.402 278.28 323.038 278.378 322.767 278.574C322.497 278.77 322.361 279.027 322.361 279.344C322.361 279.596 322.441 279.806 322.599 279.974C322.767 280.133 322.973 280.263 323.215 280.366C323.467 280.459 323.813 280.567 324.251 280.688C324.802 280.837 325.25 280.987 325.595 281.136C325.941 281.276 326.235 281.491 326.477 281.78C326.729 282.069 326.86 282.447 326.869 282.914C326.869 283.334 326.753 283.712 326.519 284.048C326.286 284.384 325.955 284.65 325.525 284.846C325.105 285.033 324.62 285.126 324.069 285.126ZM328.692 281.136C328.692 280.352 328.851 279.666 329.168 279.078C329.485 278.481 329.919 278.019 330.47 277.692C331.03 277.365 331.651 277.202 332.332 277.202C333.004 277.202 333.587 277.347 334.082 277.636C334.577 277.925 334.945 278.289 335.188 278.728V277.328H336.476V285H335.188V283.572C334.936 284.02 334.558 284.393 334.054 284.692C333.559 284.981 332.981 285.126 332.318 285.126C331.637 285.126 331.021 284.958 330.47 284.622C329.919 284.286 329.485 283.815 329.168 283.208C328.851 282.601 328.692 281.911 328.692 281.136ZM335.188 281.15C335.188 280.571 335.071 280.067 334.838 279.638C334.605 279.209 334.287 278.882 333.886 278.658C333.494 278.425 333.06 278.308 332.584 278.308C332.108 278.308 331.674 278.42 331.282 278.644C330.89 278.868 330.577 279.195 330.344 279.624C330.111 280.053 329.994 280.557 329.994 281.136C329.994 281.724 330.111 282.237 330.344 282.676C330.577 283.105 330.89 283.437 331.282 283.67C331.674 283.894 332.108 284.006 332.584 284.006C333.06 284.006 333.494 283.894 333.886 283.67C334.287 283.437 334.605 283.105 334.838 282.676C335.071 282.237 335.188 281.729 335.188 281.15ZM338.653 281.15C338.653 280.357 338.811 279.666 339.129 279.078C339.446 278.481 339.885 278.019 340.445 277.692C341.014 277.365 341.663 277.202 342.391 277.202C343.333 277.202 344.108 277.431 344.715 277.888C345.331 278.345 345.737 278.98 345.933 279.792H344.561C344.43 279.325 344.173 278.957 343.791 278.686C343.417 278.415 342.951 278.28 342.391 278.28C341.663 278.28 341.075 278.532 340.627 279.036C340.179 279.531 339.955 280.235 339.955 281.15C339.955 282.074 340.179 282.788 340.627 283.292C341.075 283.796 341.663 284.048 342.391 284.048C342.951 284.048 343.417 283.917 343.791 283.656C344.164 283.395 344.421 283.021 344.561 282.536H345.933C345.727 283.32 345.317 283.95 344.701 284.426C344.085 284.893 343.315 285.126 342.391 285.126C341.663 285.126 341.014 284.963 340.445 284.636C339.885 284.309 339.446 283.847 339.129 283.25C338.811 282.653 338.653 281.953 338.653 281.15ZM349.687 278.378V282.9C349.687 283.273 349.766 283.539 349.925 283.698C350.083 283.847 350.359 283.922 350.751 283.922H351.689V285H350.541C349.831 285 349.299 284.837 348.945 284.51C348.59 284.183 348.413 283.647 348.413 282.9V278.378H347.419V277.328H348.413V275.396H349.687V277.328H351.689V278.378H349.687ZM354.39 276.082C354.148 276.082 353.942 275.998 353.774 275.83C353.606 275.662 353.522 275.457 353.522 275.214C353.522 274.971 353.606 274.766 353.774 274.598C353.942 274.43 354.148 274.346 354.39 274.346C354.624 274.346 354.82 274.43 354.978 274.598C355.146 274.766 355.23 274.971 355.23 275.214C355.23 275.457 355.146 275.662 354.978 275.83C354.82 275.998 354.624 276.082 354.39 276.082ZM355.006 277.328V285H353.732V277.328H355.006ZM361.024 285.126C360.305 285.126 359.652 284.963 359.064 284.636C358.485 284.309 358.028 283.847 357.692 283.25C357.365 282.643 357.202 281.943 357.202 281.15C357.202 280.366 357.37 279.675 357.706 279.078C358.051 278.471 358.518 278.009 359.106 277.692C359.694 277.365 360.352 277.202 361.08 277.202C361.808 277.202 362.466 277.365 363.054 277.692C363.642 278.009 364.104 278.467 364.44 279.064C364.785 279.661 364.958 280.357 364.958 281.15C364.958 281.943 364.78 282.643 364.426 283.25C364.08 283.847 363.609 284.309 363.012 284.636C362.414 284.963 361.752 285.126 361.024 285.126ZM361.024 284.006C361.481 284.006 361.91 283.899 362.312 283.684C362.713 283.469 363.035 283.147 363.278 282.718C363.53 282.289 363.656 281.766 363.656 281.15C363.656 280.534 363.534 280.011 363.292 279.582C363.049 279.153 362.732 278.835 362.34 278.63C361.948 278.415 361.523 278.308 361.066 278.308C360.599 278.308 360.17 278.415 359.778 278.63C359.395 278.835 359.087 279.153 358.854 279.582C358.62 280.011 358.504 280.534 358.504 281.15C358.504 281.775 358.616 282.303 358.84 282.732C359.073 283.161 359.381 283.483 359.764 283.698C360.146 283.903 360.566 284.006 361.024 284.006ZM370.871 277.188C371.804 277.188 372.56 277.473 373.139 278.042C373.717 278.602 374.007 279.414 374.007 280.478V285H372.747V280.66C372.747 279.895 372.555 279.311 372.173 278.91C371.79 278.499 371.267 278.294 370.605 278.294C369.933 278.294 369.396 278.504 368.995 278.924C368.603 279.344 368.407 279.955 368.407 280.758V285H367.133V277.328H368.407V278.42C368.659 278.028 368.999 277.725 369.429 277.51C369.867 277.295 370.348 277.188 370.871 277.188ZM386.588 282.83H382.332L381.548 285H380.204L383.732 275.298H385.202L388.716 285H387.372L386.588 282.83ZM386.224 281.794L384.46 276.866L382.696 281.794H386.224ZM392.028 274.64V285H390.754V274.64H392.028ZM401.699 280.87C401.699 281.113 401.685 281.369 401.657 281.64H395.525C395.572 282.396 395.828 282.989 396.295 283.418C396.771 283.838 397.345 284.048 398.017 284.048C398.568 284.048 399.025 283.922 399.389 283.67C399.762 283.409 400.024 283.063 400.173 282.634H401.545C401.34 283.371 400.929 283.973 400.313 284.44C399.697 284.897 398.932 285.126 398.017 285.126C397.289 285.126 396.636 284.963 396.057 284.636C395.488 284.309 395.04 283.847 394.713 283.25C394.386 282.643 394.223 281.943 394.223 281.15C394.223 280.357 394.382 279.661 394.699 279.064C395.016 278.467 395.46 278.009 396.029 277.692C396.608 277.365 397.27 277.202 398.017 277.202C398.745 277.202 399.389 277.361 399.949 277.678C400.509 277.995 400.938 278.434 401.237 278.994C401.545 279.545 401.699 280.17 401.699 280.87ZM400.383 280.604C400.383 280.119 400.276 279.703 400.061 279.358C399.846 279.003 399.552 278.737 399.179 278.56C398.815 278.373 398.409 278.28 397.961 278.28C397.317 278.28 396.766 278.485 396.309 278.896C395.861 279.307 395.604 279.876 395.539 280.604H400.383ZM405.155 278.574C405.379 278.135 405.696 277.795 406.107 277.552C406.527 277.309 407.035 277.188 407.633 277.188V278.504H407.297C405.869 278.504 405.155 279.279 405.155 280.828V285H403.881V277.328H405.155V278.574ZM411.157 278.378V282.9C411.157 283.273 411.237 283.539 411.395 283.698C411.554 283.847 411.829 283.922 412.221 283.922H413.159V285H412.011C411.302 285 410.77 284.837 410.415 284.51C410.061 284.183 409.883 283.647 409.883 282.9V278.378H408.889V277.328H409.883V275.396H411.157V277.328H413.159V278.378H411.157ZM417.919 285.126C417.331 285.126 416.804 285.028 416.337 284.832C415.87 284.627 415.502 284.347 415.231 283.992C414.96 283.628 414.811 283.213 414.783 282.746H416.099C416.136 283.129 416.314 283.441 416.631 283.684C416.958 283.927 417.382 284.048 417.905 284.048C418.39 284.048 418.773 283.941 419.053 283.726C419.333 283.511 419.473 283.241 419.473 282.914C419.473 282.578 419.324 282.331 419.025 282.172C418.726 282.004 418.264 281.841 417.639 281.682C417.07 281.533 416.603 281.383 416.239 281.234C415.884 281.075 415.576 280.847 415.315 280.548C415.063 280.24 414.937 279.839 414.937 279.344C414.937 278.952 415.054 278.593 415.287 278.266C415.52 277.939 415.852 277.683 416.281 277.496C416.71 277.3 417.2 277.202 417.751 277.202C418.6 277.202 419.286 277.417 419.809 277.846C420.332 278.275 420.612 278.863 420.649 279.61H419.375C419.347 279.209 419.184 278.887 418.885 278.644C418.596 278.401 418.204 278.28 417.709 278.28C417.252 278.28 416.888 278.378 416.617 278.574C416.346 278.77 416.211 279.027 416.211 279.344C416.211 279.596 416.29 279.806 416.449 279.974C416.617 280.133 416.822 280.263 417.065 280.366C417.317 280.459 417.662 280.567 418.101 280.688C418.652 280.837 419.1 280.987 419.445 281.136C419.79 281.276 420.084 281.491 420.327 281.78C420.579 282.069 420.71 282.447 420.719 282.914C420.719 283.334 420.602 283.712 420.369 284.048C420.136 284.384 419.804 284.65 419.375 284.846C418.955 285.033 418.47 285.126 417.919 285.126Z" fill="white"/>
<path d="M158.5 281H201" stroke="url(#paint27_linear_1249_940)" stroke-miterlimit="10"/>
<path d="M156 274.5C152.933 274.5 150.5 276.933 150.5 280C150.5 283.067 152.933 285.5 156 285.5C159.067 285.5 161.5 283.067 161.5 280C161.5 276.933 159.067 274.5 156 274.5Z" fill="url(#paint28_linear_1249_940)" stroke="url(#paint29_linear_1249_940)"/>
<path d="M219.5 280C219.5 289.665 211.665 297.5 202 297.5C192.335 297.5 184.5 289.665 184.5 280C184.5 270.335 192.335 262.5 202 262.5C211.665 262.5 219.5 270.335 219.5 280Z" fill="url(#paint30_linear_1249_940)" stroke="url(#paint31_linear_1249_940)"/>
<rect x="191.5" y="337.5" width="239" height="47" rx="23.5" fill="url(#paint32_linear_1249_940)"/>
<rect x="191.5" y="337.5" width="239" height="47" rx="23.5" stroke="url(#paint33_linear_1249_940)"/>
<path d="M219.172 366.098C218.528 366.098 217.949 365.986 217.436 365.762C216.932 365.529 216.535 365.211 216.246 364.81C215.957 364.399 215.807 363.928 215.798 363.396H217.156C217.203 363.853 217.389 364.241 217.716 364.558C218.052 364.866 218.537 365.02 219.172 365.02C219.779 365.02 220.255 364.871 220.6 364.572C220.955 364.264 221.132 363.872 221.132 363.396C221.132 363.023 221.029 362.719 220.824 362.486C220.619 362.253 220.362 362.075 220.054 361.954C219.746 361.833 219.331 361.702 218.808 361.562C218.164 361.394 217.646 361.226 217.254 361.058C216.871 360.89 216.54 360.629 216.26 360.274C215.989 359.91 215.854 359.425 215.854 358.818C215.854 358.286 215.989 357.815 216.26 357.404C216.531 356.993 216.909 356.676 217.394 356.452C217.889 356.228 218.453 356.116 219.088 356.116C220.003 356.116 220.749 356.345 221.328 356.802C221.916 357.259 222.247 357.866 222.322 358.622H220.922C220.875 358.249 220.679 357.922 220.334 357.642C219.989 357.353 219.531 357.208 218.962 357.208C218.43 357.208 217.996 357.348 217.66 357.628C217.324 357.899 217.156 358.281 217.156 358.776C217.156 359.131 217.254 359.42 217.45 359.644C217.655 359.868 217.903 360.041 218.192 360.162C218.491 360.274 218.906 360.405 219.438 360.554C220.082 360.731 220.6 360.909 220.992 361.086C221.384 361.254 221.72 361.52 222 361.884C222.28 362.239 222.42 362.724 222.42 363.34C222.42 363.816 222.294 364.264 222.042 364.684C221.79 365.104 221.417 365.445 220.922 365.706C220.427 365.967 219.844 366.098 219.172 366.098ZM231.795 361.87C231.795 362.113 231.781 362.369 231.753 362.64H225.621C225.667 363.396 225.924 363.989 226.391 364.418C226.867 364.838 227.441 365.048 228.113 365.048C228.663 365.048 229.121 364.922 229.485 364.67C229.858 364.409 230.119 364.063 230.269 363.634H231.641C231.435 364.371 231.025 364.973 230.409 365.44C229.793 365.897 229.027 366.126 228.113 366.126C227.385 366.126 226.731 365.963 226.153 365.636C225.583 365.309 225.135 364.847 224.809 364.25C224.482 363.643 224.319 362.943 224.319 362.15C224.319 361.357 224.477 360.661 224.795 360.064C225.112 359.467 225.555 359.009 226.125 358.692C226.703 358.365 227.366 358.202 228.113 358.202C228.841 358.202 229.485 358.361 230.045 358.678C230.605 358.995 231.034 359.434 231.333 359.994C231.641 360.545 231.795 361.17 231.795 361.87ZM230.479 361.604C230.479 361.119 230.371 360.703 230.157 360.358C229.942 360.003 229.648 359.737 229.275 359.56C228.911 359.373 228.505 359.28 228.057 359.28C227.413 359.28 226.862 359.485 226.405 359.896C225.957 360.307 225.7 360.876 225.635 361.604H230.479ZM233.5 362.136C233.5 361.352 233.659 360.666 233.976 360.078C234.294 359.481 234.728 359.019 235.278 358.692C235.838 358.365 236.459 358.202 237.14 358.202C237.812 358.202 238.396 358.347 238.89 358.636C239.385 358.925 239.754 359.289 239.996 359.728V358.328H241.284V366H239.996V364.572C239.744 365.02 239.366 365.393 238.862 365.692C238.368 365.981 237.789 366.126 237.126 366.126C236.445 366.126 235.829 365.958 235.278 365.622C234.728 365.286 234.294 364.815 233.976 364.208C233.659 363.601 233.5 362.911 233.5 362.136ZM239.996 362.15C239.996 361.571 239.88 361.067 239.646 360.638C239.413 360.209 239.096 359.882 238.694 359.658C238.302 359.425 237.868 359.308 237.392 359.308C236.916 359.308 236.482 359.42 236.09 359.644C235.698 359.868 235.386 360.195 235.152 360.624C234.919 361.053 234.802 361.557 234.802 362.136C234.802 362.724 234.919 363.237 235.152 363.676C235.386 364.105 235.698 364.437 236.09 364.67C236.482 364.894 236.916 365.006 237.392 365.006C237.868 365.006 238.302 364.894 238.694 364.67C239.096 364.437 239.413 364.105 239.646 363.676C239.88 363.237 239.996 362.729 239.996 362.15ZM253.163 358.188C253.761 358.188 254.293 358.314 254.759 358.566C255.226 358.809 255.595 359.177 255.865 359.672C256.136 360.167 256.271 360.769 256.271 361.478V366H255.011V361.66C255.011 360.895 254.82 360.311 254.437 359.91C254.064 359.499 253.555 359.294 252.911 359.294C252.249 359.294 251.721 359.509 251.329 359.938C250.937 360.358 250.741 360.969 250.741 361.772V366H249.481V361.66C249.481 360.895 249.29 360.311 248.907 359.91C248.534 359.499 248.025 359.294 247.381 359.294C246.719 359.294 246.191 359.509 245.799 359.938C245.407 360.358 245.211 360.969 245.211 361.772V366H243.937V358.328H245.211V359.434C245.463 359.033 245.799 358.725 246.219 358.51C246.649 358.295 247.12 358.188 247.633 358.188C248.277 358.188 248.847 358.333 249.341 358.622C249.836 358.911 250.205 359.336 250.447 359.896C250.662 359.355 251.017 358.935 251.511 358.636C252.006 358.337 252.557 358.188 253.163 358.188ZM260.135 355.64V366H258.861V355.64H260.135ZM269.807 361.87C269.807 362.113 269.793 362.369 269.765 362.64H263.633C263.679 363.396 263.936 363.989 264.403 364.418C264.879 364.838 265.453 365.048 266.125 365.048C266.675 365.048 267.133 364.922 267.497 364.67C267.87 364.409 268.131 364.063 268.281 363.634H269.653C269.447 364.371 269.037 364.973 268.421 365.44C267.805 365.897 267.039 366.126 266.125 366.126C265.397 366.126 264.743 365.963 264.165 365.636C263.595 365.309 263.147 364.847 262.821 364.25C262.494 363.643 262.331 362.943 262.331 362.15C262.331 361.357 262.489 360.661 262.807 360.064C263.124 359.467 263.567 359.009 264.137 358.692C264.715 358.365 265.378 358.202 266.125 358.202C266.853 358.202 267.497 358.361 268.057 358.678C268.617 358.995 269.046 359.434 269.345 359.994C269.653 360.545 269.807 361.17 269.807 361.87ZM268.491 361.604C268.491 361.119 268.383 360.703 268.169 360.358C267.954 360.003 267.66 359.737 267.287 359.56C266.923 359.373 266.517 359.28 266.069 359.28C265.425 359.28 264.874 359.485 264.417 359.896C263.969 360.307 263.712 360.876 263.647 361.604H268.491ZM274.704 366.126C274.116 366.126 273.589 366.028 273.122 365.832C272.655 365.627 272.287 365.347 272.016 364.992C271.745 364.628 271.596 364.213 271.568 363.746H272.884C272.921 364.129 273.099 364.441 273.416 364.684C273.743 364.927 274.167 365.048 274.69 365.048C275.175 365.048 275.558 364.941 275.838 364.726C276.118 364.511 276.258 364.241 276.258 363.914C276.258 363.578 276.109 363.331 275.81 363.172C275.511 363.004 275.049 362.841 274.424 362.682C273.855 362.533 273.388 362.383 273.024 362.234C272.669 362.075 272.361 361.847 272.1 361.548C271.848 361.24 271.722 360.839 271.722 360.344C271.722 359.952 271.839 359.593 272.072 359.266C272.305 358.939 272.637 358.683 273.066 358.496C273.495 358.3 273.985 358.202 274.536 358.202C275.385 358.202 276.071 358.417 276.594 358.846C277.117 359.275 277.397 359.863 277.434 360.61H276.16C276.132 360.209 275.969 359.887 275.67 359.644C275.381 359.401 274.989 359.28 274.494 359.28C274.037 359.28 273.673 359.378 273.402 359.574C273.131 359.77 272.996 360.027 272.996 360.344C272.996 360.596 273.075 360.806 273.234 360.974C273.402 361.133 273.607 361.263 273.85 361.366C274.102 361.459 274.447 361.567 274.886 361.688C275.437 361.837 275.885 361.987 276.23 362.136C276.575 362.276 276.869 362.491 277.112 362.78C277.364 363.069 277.495 363.447 277.504 363.914C277.504 364.334 277.387 364.712 277.154 365.048C276.921 365.384 276.589 365.65 276.16 365.846C275.74 366.033 275.255 366.126 274.704 366.126ZM282.519 366.126C281.931 366.126 281.403 366.028 280.937 365.832C280.47 365.627 280.101 365.347 279.831 364.992C279.56 364.628 279.411 364.213 279.383 363.746H280.699C280.736 364.129 280.913 364.441 281.231 364.684C281.557 364.927 281.982 365.048 282.505 365.048C282.99 365.048 283.373 364.941 283.653 364.726C283.933 364.511 284.073 364.241 284.073 363.914C284.073 363.578 283.923 363.331 283.625 363.172C283.326 363.004 282.864 362.841 282.239 362.682C281.669 362.533 281.203 362.383 280.839 362.234C280.484 362.075 280.176 361.847 279.915 361.548C279.663 361.24 279.537 360.839 279.537 360.344C279.537 359.952 279.653 359.593 279.887 359.266C280.12 358.939 280.451 358.683 280.881 358.496C281.31 358.3 281.8 358.202 282.351 358.202C283.2 358.202 283.886 358.417 284.409 358.846C284.931 359.275 285.211 359.863 285.249 360.61H283.975C283.947 360.209 283.783 359.887 283.485 359.644C283.195 359.401 282.803 359.28 282.309 359.28C281.851 359.28 281.487 359.378 281.217 359.574C280.946 359.77 280.811 360.027 280.811 360.344C280.811 360.596 280.89 360.806 281.049 360.974C281.217 361.133 281.422 361.263 281.665 361.366C281.917 361.459 282.262 361.567 282.701 361.688C283.251 361.837 283.699 361.987 284.045 362.136C284.39 362.276 284.684 362.491 284.927 362.78C285.179 363.069 285.309 363.447 285.319 363.914C285.319 364.334 285.202 364.712 284.969 365.048C284.735 365.384 284.404 365.65 283.975 365.846C283.555 366.033 283.069 366.126 282.519 366.126ZM301.747 356.312V366H300.473V358.776L297.253 366H296.357L293.123 358.762V366H291.849V356.312H293.221L296.805 364.32L300.389 356.312H301.747ZM307.754 366.126C307.035 366.126 306.382 365.963 305.794 365.636C305.215 365.309 304.758 364.847 304.422 364.25C304.095 363.643 303.932 362.943 303.932 362.15C303.932 361.366 304.1 360.675 304.436 360.078C304.781 359.471 305.248 359.009 305.836 358.692C306.424 358.365 307.082 358.202 307.81 358.202C308.538 358.202 309.196 358.365 309.784 358.692C310.372 359.009 310.834 359.467 311.17 360.064C311.515 360.661 311.688 361.357 311.688 362.15C311.688 362.943 311.511 363.643 311.156 364.25C310.811 364.847 310.339 365.309 309.742 365.636C309.145 365.963 308.482 366.126 307.754 366.126ZM307.754 365.006C308.211 365.006 308.641 364.899 309.042 364.684C309.443 364.469 309.765 364.147 310.008 363.718C310.26 363.289 310.386 362.766 310.386 362.15C310.386 361.534 310.265 361.011 310.022 360.582C309.779 360.153 309.462 359.835 309.07 359.63C308.678 359.415 308.253 359.308 307.796 359.308C307.329 359.308 306.9 359.415 306.508 359.63C306.125 359.835 305.817 360.153 305.584 360.582C305.351 361.011 305.234 361.534 305.234 362.15C305.234 362.775 305.346 363.303 305.57 363.732C305.803 364.161 306.111 364.483 306.494 364.698C306.877 364.903 307.297 365.006 307.754 365.006ZM315.137 359.756C315.398 359.299 315.781 358.925 316.285 358.636C316.789 358.347 317.363 358.202 318.007 358.202C318.698 358.202 319.318 358.365 319.869 358.692C320.42 359.019 320.854 359.481 321.171 360.078C321.488 360.666 321.647 361.352 321.647 362.136C321.647 362.911 321.488 363.601 321.171 364.208C320.854 364.815 320.415 365.286 319.855 365.622C319.304 365.958 318.688 366.126 318.007 366.126C317.344 366.126 316.761 365.981 316.257 365.692C315.762 365.403 315.389 365.034 315.137 364.586V366H313.863V355.64H315.137V359.756ZM320.345 362.136C320.345 361.557 320.228 361.053 319.995 360.624C319.762 360.195 319.444 359.868 319.043 359.644C318.651 359.42 318.217 359.308 317.741 359.308C317.274 359.308 316.84 359.425 316.439 359.658C316.047 359.882 315.73 360.213 315.487 360.652C315.254 361.081 315.137 361.581 315.137 362.15C315.137 362.729 315.254 363.237 315.487 363.676C315.73 364.105 316.047 364.437 316.439 364.67C316.84 364.894 317.274 365.006 317.741 365.006C318.217 365.006 318.651 364.894 319.043 364.67C319.444 364.437 319.762 364.105 319.995 363.676C320.228 363.237 320.345 362.724 320.345 362.136ZM324.482 357.082C324.239 357.082 324.034 356.998 323.866 356.83C323.698 356.662 323.614 356.457 323.614 356.214C323.614 355.971 323.698 355.766 323.866 355.598C324.034 355.43 324.239 355.346 324.482 355.346C324.715 355.346 324.911 355.43 325.07 355.598C325.238 355.766 325.322 355.971 325.322 356.214C325.322 356.457 325.238 356.662 325.07 356.83C324.911 356.998 324.715 357.082 324.482 357.082ZM325.098 358.328V366H323.824V358.328H325.098ZM329.043 355.64V366H327.769V355.64H329.043ZM338.715 361.87C338.715 362.113 338.701 362.369 338.673 362.64H332.541C332.587 363.396 332.844 363.989 333.311 364.418C333.787 364.838 334.361 365.048 335.033 365.048C335.583 365.048 336.041 364.922 336.405 364.67C336.778 364.409 337.039 364.063 337.189 363.634H338.561C338.355 364.371 337.945 364.973 337.329 365.44C336.713 365.897 335.947 366.126 335.033 366.126C334.305 366.126 333.651 365.963 333.073 365.636C332.503 365.309 332.055 364.847 331.729 364.25C331.402 363.643 331.239 362.943 331.239 362.15C331.239 361.357 331.397 360.661 331.715 360.064C332.032 359.467 332.475 359.009 333.045 358.692C333.623 358.365 334.286 358.202 335.033 358.202C335.761 358.202 336.405 358.361 336.965 358.678C337.525 358.995 337.954 359.434 338.253 359.994C338.561 360.545 338.715 361.17 338.715 361.87ZM337.399 361.604C337.399 361.119 337.291 360.703 337.077 360.358C336.862 360.003 336.568 359.737 336.195 359.56C335.831 359.373 335.425 359.28 334.977 359.28C334.333 359.28 333.782 359.485 333.325 359.896C332.877 360.307 332.62 360.876 332.555 361.604H337.399ZM350.015 360.974C350.369 361.03 350.691 361.175 350.981 361.408C351.279 361.641 351.513 361.931 351.681 362.276C351.858 362.621 351.947 362.99 351.947 363.382C351.947 363.877 351.821 364.325 351.569 364.726C351.317 365.118 350.948 365.431 350.463 365.664C349.987 365.888 349.422 366 348.769 366H345.129V356.242H348.629C349.291 356.242 349.856 356.354 350.323 356.578C350.789 356.793 351.139 357.087 351.373 357.46C351.606 357.833 351.723 358.253 351.723 358.72C351.723 359.299 351.564 359.779 351.247 360.162C350.939 360.535 350.528 360.806 350.015 360.974ZM346.403 360.456H348.545C349.142 360.456 349.604 360.316 349.931 360.036C350.257 359.756 350.421 359.369 350.421 358.874C350.421 358.379 350.257 357.992 349.931 357.712C349.604 357.432 349.133 357.292 348.517 357.292H346.403V360.456ZM348.657 364.95C349.291 364.95 349.786 364.801 350.141 364.502C350.495 364.203 350.673 363.788 350.673 363.256C350.673 362.715 350.486 362.29 350.113 361.982C349.739 361.665 349.24 361.506 348.615 361.506H346.403V364.95H348.657ZM353.739 362.136C353.739 361.352 353.897 360.666 354.215 360.078C354.532 359.481 354.966 359.019 355.517 358.692C356.077 358.365 356.697 358.202 357.379 358.202C358.051 358.202 358.634 358.347 359.129 358.636C359.623 358.925 359.992 359.289 360.235 359.728V358.328H361.523V366H360.235V364.572C359.983 365.02 359.605 365.393 359.101 365.692C358.606 365.981 358.027 366.126 357.365 366.126C356.683 366.126 356.067 365.958 355.517 365.622C354.966 365.286 354.532 364.815 354.215 364.208C353.897 363.601 353.739 362.911 353.739 362.136ZM360.235 362.15C360.235 361.571 360.118 361.067 359.885 360.638C359.651 360.209 359.334 359.882 358.933 359.658C358.541 359.425 358.107 359.308 357.631 359.308C357.155 359.308 356.721 359.42 356.329 359.644C355.937 359.868 355.624 360.195 355.391 360.624C355.157 361.053 355.041 361.557 355.041 362.136C355.041 362.724 355.157 363.237 355.391 363.676C355.624 364.105 355.937 364.437 356.329 364.67C356.721 364.894 357.155 365.006 357.631 365.006C358.107 365.006 358.541 364.894 358.933 364.67C359.334 364.437 359.651 364.105 359.885 363.676C360.118 363.237 360.235 362.729 360.235 362.15ZM367.914 358.188C368.847 358.188 369.603 358.473 370.182 359.042C370.76 359.602 371.05 360.414 371.05 361.478V366H369.79V361.66C369.79 360.895 369.598 360.311 369.216 359.91C368.833 359.499 368.31 359.294 367.648 359.294C366.976 359.294 366.439 359.504 366.038 359.924C365.646 360.344 365.45 360.955 365.45 361.758V366H364.176V358.328H365.45V359.42C365.702 359.028 366.042 358.725 366.472 358.51C366.91 358.295 367.391 358.188 367.914 358.188ZM377.915 366L374.905 362.612V366H373.631V355.64H374.905V361.73L377.859 358.328H379.637L376.025 362.15L379.651 366H377.915ZM381.994 357.082C381.751 357.082 381.546 356.998 381.378 356.83C381.21 356.662 381.126 356.457 381.126 356.214C381.126 355.971 381.21 355.766 381.378 355.598C381.546 355.43 381.751 355.346 381.994 355.346C382.227 355.346 382.423 355.43 382.582 355.598C382.75 355.766 382.834 355.971 382.834 356.214C382.834 356.457 382.75 356.662 382.582 356.83C382.423 356.998 382.227 357.082 381.994 357.082ZM382.61 358.328V366H381.336V358.328H382.61ZM389.019 358.188C389.952 358.188 390.708 358.473 391.287 359.042C391.866 359.602 392.155 360.414 392.155 361.478V366H390.895V361.66C390.895 360.895 390.704 360.311 390.321 359.91C389.938 359.499 389.416 359.294 388.753 359.294C388.081 359.294 387.544 359.504 387.143 359.924C386.751 360.344 386.555 360.955 386.555 361.758V366H385.281V358.328H386.555V359.42C386.807 359.028 387.148 358.725 387.577 358.51C388.016 358.295 388.496 358.188 389.019 358.188ZM397.9 358.202C398.563 358.202 399.142 358.347 399.636 358.636C400.14 358.925 400.514 359.289 400.756 359.728V358.328H402.044V366.168C402.044 366.868 401.895 367.489 401.596 368.03C401.298 368.581 400.868 369.01 400.308 369.318C399.758 369.626 399.114 369.78 398.376 369.78C397.368 369.78 396.528 369.542 395.856 369.066C395.184 368.59 394.788 367.941 394.666 367.12H395.926C396.066 367.587 396.356 367.96 396.794 368.24C397.233 368.529 397.76 368.674 398.376 368.674C399.076 368.674 399.646 368.455 400.084 368.016C400.532 367.577 400.756 366.961 400.756 366.168V364.558C400.504 365.006 400.131 365.379 399.636 365.678C399.142 365.977 398.563 366.126 397.9 366.126C397.219 366.126 396.598 365.958 396.038 365.622C395.488 365.286 395.054 364.815 394.736 364.208C394.419 363.601 394.26 362.911 394.26 362.136C394.26 361.352 394.419 360.666 394.736 360.078C395.054 359.481 395.488 359.019 396.038 358.692C396.598 358.365 397.219 358.202 397.9 358.202ZM400.756 362.15C400.756 361.571 400.64 361.067 400.406 360.638C400.173 360.209 399.856 359.882 399.454 359.658C399.062 359.425 398.628 359.308 398.152 359.308C397.676 359.308 397.242 359.42 396.85 359.644C396.458 359.868 396.146 360.195 395.912 360.624C395.679 361.053 395.562 361.557 395.562 362.136C395.562 362.724 395.679 363.237 395.912 363.676C396.146 364.105 396.458 364.437 396.85 364.67C397.242 364.894 397.676 365.006 398.152 365.006C398.628 365.006 399.062 364.894 399.454 364.67C399.856 364.437 400.173 364.105 400.406 363.676C400.64 363.237 400.756 362.729 400.756 362.15Z" fill="white"/>
<path d="M142.917 344.169L190 362" stroke="url(#paint34_linear_1249_940)" stroke-miterlimit="10"/>
<path d="M143 338.5C139.933 338.5 137.5 340.933 137.5 344C137.5 347.067 139.933 349.5 143 349.5C146.067 349.5 148.5 347.067 148.5 344C148.5 340.933 146.067 338.5 143 338.5Z" fill="url(#paint35_linear_1249_940)" stroke="url(#paint36_linear_1249_940)"/>
<path d="M203.5 361C203.5 370.665 195.665 378.5 186 378.5C176.335 378.5 168.5 370.665 168.5 361C168.5 351.335 176.335 343.5 186 343.5C195.665 343.5 203.5 351.335 203.5 361Z" fill="url(#paint37_linear_1249_940)" stroke="url(#paint38_linear_1249_940)"/>
<rect x="130.5" y="418.5" width="239" height="47" rx="23.5" fill="url(#paint39_linear_1249_940)"/>
<rect x="130.5" y="418.5" width="239" height="47" rx="23.5" stroke="url(#paint40_linear_1249_940)"/>
<path d="M160.216 447L157.892 443.01H156.352V447H155.078V437.242H158.228C158.965 437.242 159.586 437.368 160.09 437.62C160.603 437.872 160.986 438.213 161.238 438.642C161.49 439.071 161.616 439.561 161.616 440.112C161.616 440.784 161.42 441.377 161.028 441.89C160.645 442.403 160.067 442.744 159.292 442.912L161.742 447H160.216ZM156.352 441.988H158.228C158.919 441.988 159.437 441.82 159.782 441.484C160.127 441.139 160.3 440.681 160.3 440.112C160.3 439.533 160.127 439.085 159.782 438.768C159.446 438.451 158.928 438.292 158.228 438.292H156.352V441.988ZM171.096 442.87C171.096 443.113 171.082 443.369 171.054 443.64H164.922C164.968 444.396 165.225 444.989 165.692 445.418C166.168 445.838 166.742 446.048 167.414 446.048C167.964 446.048 168.422 445.922 168.786 445.67C169.159 445.409 169.42 445.063 169.57 444.634H170.942C170.736 445.371 170.326 445.973 169.71 446.44C169.094 446.897 168.328 447.126 167.414 447.126C166.686 447.126 166.032 446.963 165.454 446.636C164.884 446.309 164.436 445.847 164.11 445.25C163.783 444.643 163.62 443.943 163.62 443.15C163.62 442.357 163.778 441.661 164.096 441.064C164.413 440.467 164.856 440.009 165.426 439.692C166.004 439.365 166.667 439.202 167.414 439.202C168.142 439.202 168.786 439.361 169.346 439.678C169.906 439.995 170.335 440.434 170.634 440.994C170.942 441.545 171.096 442.17 171.096 442.87ZM169.78 442.604C169.78 442.119 169.672 441.703 169.458 441.358C169.243 441.003 168.949 440.737 168.576 440.56C168.212 440.373 167.806 440.28 167.358 440.28C166.714 440.28 166.163 440.485 165.706 440.896C165.258 441.307 165.001 441.876 164.936 442.604H169.78ZM174.551 436.64V447H173.277V436.64H174.551ZM177.881 438.082C177.638 438.082 177.433 437.998 177.265 437.83C177.097 437.662 177.013 437.457 177.013 437.214C177.013 436.971 177.097 436.766 177.265 436.598C177.433 436.43 177.638 436.346 177.881 436.346C178.114 436.346 178.31 436.43 178.469 436.598C178.637 436.766 178.721 436.971 178.721 437.214C178.721 437.457 178.637 437.662 178.469 437.83C178.31 437.998 178.114 438.082 177.881 438.082ZM178.497 439.328V447H177.223V439.328H178.497ZM180.692 443.136C180.692 442.352 180.851 441.666 181.168 441.078C181.485 440.481 181.919 440.019 182.47 439.692C183.03 439.365 183.651 439.202 184.332 439.202C185.004 439.202 185.587 439.347 186.082 439.636C186.577 439.925 186.945 440.289 187.188 440.728V439.328H188.476V447H187.188V445.572C186.936 446.02 186.558 446.393 186.054 446.692C185.559 446.981 184.981 447.126 184.318 447.126C183.637 447.126 183.021 446.958 182.47 446.622C181.919 446.286 181.485 445.815 181.168 445.208C180.851 444.601 180.692 443.911 180.692 443.136ZM187.188 443.15C187.188 442.571 187.071 442.067 186.838 441.638C186.605 441.209 186.287 440.882 185.886 440.658C185.494 440.425 185.06 440.308 184.584 440.308C184.108 440.308 183.674 440.42 183.282 440.644C182.89 440.868 182.577 441.195 182.344 441.624C182.111 442.053 181.994 442.557 181.994 443.136C181.994 443.724 182.111 444.237 182.344 444.676C182.577 445.105 182.89 445.437 183.282 445.67C183.674 445.894 184.108 446.006 184.584 446.006C185.06 446.006 185.494 445.894 185.886 445.67C186.287 445.437 186.605 445.105 186.838 444.676C187.071 444.237 187.188 443.729 187.188 443.15ZM192.403 440.756C192.664 440.299 193.047 439.925 193.551 439.636C194.055 439.347 194.629 439.202 195.273 439.202C195.963 439.202 196.584 439.365 197.135 439.692C197.685 440.019 198.119 440.481 198.437 441.078C198.754 441.666 198.913 442.352 198.913 443.136C198.913 443.911 198.754 444.601 198.437 445.208C198.119 445.815 197.681 446.286 197.121 446.622C196.57 446.958 195.954 447.126 195.273 447.126C194.61 447.126 194.027 446.981 193.523 446.692C193.028 446.403 192.655 446.034 192.403 445.586V447H191.129V436.64H192.403V440.756ZM197.611 443.136C197.611 442.557 197.494 442.053 197.261 441.624C197.027 441.195 196.71 440.868 196.309 440.644C195.917 440.42 195.483 440.308 195.007 440.308C194.54 440.308 194.106 440.425 193.705 440.658C193.313 440.882 192.995 441.213 192.753 441.652C192.519 442.081 192.403 442.581 192.403 443.15C192.403 443.729 192.519 444.237 192.753 444.676C192.995 445.105 193.313 445.437 193.705 445.67C194.106 445.894 194.54 446.006 195.007 446.006C195.483 446.006 195.917 445.894 196.309 445.67C196.71 445.437 197.027 445.105 197.261 444.676C197.494 444.237 197.611 443.724 197.611 443.136ZM202.364 436.64V447H201.09V436.64H202.364ZM212.035 442.87C212.035 443.113 212.021 443.369 211.993 443.64H205.861C205.908 444.396 206.164 444.989 206.631 445.418C207.107 445.838 207.681 446.048 208.353 446.048C208.904 446.048 209.361 445.922 209.725 445.67C210.098 445.409 210.36 445.063 210.509 444.634H211.881C211.676 445.371 211.265 445.973 210.649 446.44C210.033 446.897 209.268 447.126 208.353 447.126C207.625 447.126 206.972 446.963 206.393 446.636C205.824 446.309 205.376 445.847 205.049 445.25C204.722 444.643 204.559 443.943 204.559 443.15C204.559 442.357 204.718 441.661 205.035 441.064C205.352 440.467 205.796 440.009 206.365 439.692C206.944 439.365 207.606 439.202 208.353 439.202C209.081 439.202 209.725 439.361 210.285 439.678C210.845 439.995 211.274 440.434 211.573 440.994C211.881 441.545 212.035 442.17 212.035 442.87ZM210.719 442.604C210.719 442.119 210.612 441.703 210.397 441.358C210.182 441.003 209.888 440.737 209.515 440.56C209.151 440.373 208.745 440.28 208.297 440.28C207.653 440.28 207.102 440.485 206.645 440.896C206.197 441.307 205.94 441.876 205.875 442.604H210.719ZM221.487 437.242C222.551 437.242 223.47 437.443 224.245 437.844C225.029 438.236 225.626 438.801 226.037 439.538C226.457 440.275 226.667 441.143 226.667 442.142C226.667 443.141 226.457 444.009 226.037 444.746C225.626 445.474 225.029 446.034 224.245 446.426C223.47 446.809 222.551 447 221.487 447H218.449V437.242H221.487ZM221.487 445.95C222.747 445.95 223.708 445.619 224.371 444.956C225.034 444.284 225.365 443.346 225.365 442.142C225.365 440.929 225.029 439.981 224.357 439.3C223.694 438.619 222.738 438.278 221.487 438.278H219.723V445.95H221.487ZM229.506 438.082C229.263 438.082 229.058 437.998 228.89 437.83C228.722 437.662 228.638 437.457 228.638 437.214C228.638 436.971 228.722 436.766 228.89 436.598C229.058 436.43 229.263 436.346 229.506 436.346C229.739 436.346 229.935 436.43 230.094 436.598C230.262 436.766 230.346 436.971 230.346 437.214C230.346 437.457 230.262 437.662 230.094 437.83C229.935 437.998 229.739 438.082 229.506 438.082ZM230.122 439.328V447H228.848V439.328H230.122ZM235.957 439.202C236.62 439.202 237.198 439.347 237.693 439.636C238.197 439.925 238.57 440.289 238.813 440.728V439.328H240.101V447.168C240.101 447.868 239.952 448.489 239.653 449.03C239.354 449.581 238.925 450.01 238.365 450.318C237.814 450.626 237.17 450.78 236.433 450.78C235.425 450.78 234.585 450.542 233.913 450.066C233.241 449.59 232.844 448.941 232.723 448.12H233.983C234.123 448.587 234.412 448.96 234.851 449.24C235.29 449.529 235.817 449.674 236.433 449.674C237.133 449.674 237.702 449.455 238.141 449.016C238.589 448.577 238.813 447.961 238.813 447.168V445.558C238.561 446.006 238.188 446.379 237.693 446.678C237.198 446.977 236.62 447.126 235.957 447.126C235.276 447.126 234.655 446.958 234.095 446.622C233.544 446.286 233.11 445.815 232.793 445.208C232.476 444.601 232.317 443.911 232.317 443.136C232.317 442.352 232.476 441.666 232.793 441.078C233.11 440.481 233.544 440.019 234.095 439.692C234.655 439.365 235.276 439.202 235.957 439.202ZM238.813 443.15C238.813 442.571 238.696 442.067 238.463 441.638C238.23 441.209 237.912 440.882 237.511 440.658C237.119 440.425 236.685 440.308 236.209 440.308C235.733 440.308 235.299 440.42 234.907 440.644C234.515 440.868 234.202 441.195 233.969 441.624C233.736 442.053 233.619 442.557 233.619 443.136C233.619 443.724 233.736 444.237 233.969 444.676C234.202 445.105 234.515 445.437 234.907 445.67C235.299 445.894 235.733 446.006 236.209 446.006C236.685 446.006 237.119 445.894 237.511 445.67C237.912 445.437 238.23 445.105 238.463 444.676C238.696 444.237 238.813 443.729 238.813 443.15ZM243.412 438.082C243.169 438.082 242.964 437.998 242.796 437.83C242.628 437.662 242.544 437.457 242.544 437.214C242.544 436.971 242.628 436.766 242.796 436.598C242.964 436.43 243.169 436.346 243.412 436.346C243.645 436.346 243.841 436.43 244 436.598C244.168 436.766 244.252 436.971 244.252 437.214C244.252 437.457 244.168 437.662 244 437.83C243.841 437.998 243.645 438.082 243.412 438.082ZM244.028 439.328V447H242.754V439.328H244.028ZM248.253 440.378V444.9C248.253 445.273 248.332 445.539 248.491 445.698C248.65 445.847 248.925 445.922 249.317 445.922H250.255V447H249.107C248.398 447 247.866 446.837 247.511 446.51C247.156 446.183 246.979 445.647 246.979 444.9V440.378H245.985V439.328H246.979V437.396H248.253V439.328H250.255V440.378H248.253ZM251.823 443.136C251.823 442.352 251.981 441.666 252.299 441.078C252.616 440.481 253.05 440.019 253.601 439.692C254.161 439.365 254.781 439.202 255.463 439.202C256.135 439.202 256.718 439.347 257.213 439.636C257.707 439.925 258.076 440.289 258.319 440.728V439.328H259.607V447H258.319V445.572C258.067 446.02 257.689 446.393 257.185 446.692C256.69 446.981 256.111 447.126 255.449 447.126C254.767 447.126 254.151 446.958 253.601 446.622C253.05 446.286 252.616 445.815 252.299 445.208C251.981 444.601 251.823 443.911 251.823 443.136ZM258.319 443.15C258.319 442.571 258.202 442.067 257.969 441.638C257.735 441.209 257.418 440.882 257.017 440.658C256.625 440.425 256.191 440.308 255.715 440.308C255.239 440.308 254.805 440.42 254.413 440.644C254.021 440.868 253.708 441.195 253.475 441.624C253.241 442.053 253.125 442.557 253.125 443.136C253.125 443.724 253.241 444.237 253.475 444.676C253.708 445.105 254.021 445.437 254.413 445.67C254.805 445.894 255.239 446.006 255.715 446.006C256.191 446.006 256.625 445.894 257.017 445.67C257.418 445.437 257.735 445.105 257.969 444.676C258.202 444.237 258.319 443.729 258.319 443.15ZM263.534 436.64V447H262.26V436.64H263.534ZM276.961 440.098C276.961 440.91 276.681 441.587 276.121 442.128C275.571 442.66 274.726 442.926 273.587 442.926H271.711V447H270.437V437.242H273.587C274.689 437.242 275.524 437.508 276.093 438.04C276.672 438.572 276.961 439.258 276.961 440.098ZM273.587 441.876C274.297 441.876 274.819 441.722 275.155 441.414C275.491 441.106 275.659 440.667 275.659 440.098C275.659 438.894 274.969 438.292 273.587 438.292H271.711V441.876H273.587ZM278.569 443.136C278.569 442.352 278.727 441.666 279.045 441.078C279.362 440.481 279.796 440.019 280.347 439.692C280.907 439.365 281.527 439.202 282.209 439.202C282.881 439.202 283.464 439.347 283.959 439.636C284.453 439.925 284.822 440.289 285.065 440.728V439.328H286.353V447H285.065V445.572C284.813 446.02 284.435 446.393 283.931 446.692C283.436 446.981 282.857 447.126 282.195 447.126C281.513 447.126 280.897 446.958 280.347 446.622C279.796 446.286 279.362 445.815 279.045 445.208C278.727 444.601 278.569 443.911 278.569 443.136ZM285.065 443.15C285.065 442.571 284.948 442.067 284.715 441.638C284.481 441.209 284.164 440.882 283.763 440.658C283.371 440.425 282.937 440.308 282.461 440.308C281.985 440.308 281.551 440.42 281.159 440.644C280.767 440.868 280.454 441.195 280.221 441.624C279.987 442.053 279.871 442.557 279.871 443.136C279.871 443.724 279.987 444.237 280.221 444.676C280.454 445.105 280.767 445.437 281.159 445.67C281.551 445.894 281.985 446.006 282.461 446.006C282.937 446.006 283.371 445.894 283.763 445.67C284.164 445.437 284.481 445.105 284.715 444.676C284.948 444.237 285.065 443.729 285.065 443.15ZM295.614 439.328L290.994 450.612H289.678L291.19 446.916L288.096 439.328H289.51L291.918 445.544L294.298 439.328H295.614ZM306.62 439.188C307.218 439.188 307.75 439.314 308.216 439.566C308.683 439.809 309.052 440.177 309.322 440.672C309.593 441.167 309.728 441.769 309.728 442.478V447H308.468V442.66C308.468 441.895 308.277 441.311 307.894 440.91C307.521 440.499 307.012 440.294 306.368 440.294C305.706 440.294 305.178 440.509 304.786 440.938C304.394 441.358 304.198 441.969 304.198 442.772V447H302.938V442.66C302.938 441.895 302.747 441.311 302.364 440.91C301.991 440.499 301.482 440.294 300.838 440.294C300.176 440.294 299.648 440.509 299.256 440.938C298.864 441.358 298.668 441.969 298.668 442.772V447H297.394V439.328H298.668V440.434C298.92 440.033 299.256 439.725 299.676 439.51C300.106 439.295 300.577 439.188 301.09 439.188C301.734 439.188 302.304 439.333 302.798 439.622C303.293 439.911 303.662 440.336 303.904 440.896C304.119 440.355 304.474 439.935 304.968 439.636C305.463 439.337 306.014 439.188 306.62 439.188ZM319.318 442.87C319.318 443.113 319.304 443.369 319.276 443.64H313.144C313.191 444.396 313.448 444.989 313.914 445.418C314.39 445.838 314.964 446.048 315.636 446.048C316.187 446.048 316.644 445.922 317.008 445.67C317.382 445.409 317.643 445.063 317.792 444.634H319.164C318.959 445.371 318.548 445.973 317.932 446.44C317.316 446.897 316.551 447.126 315.636 447.126C314.908 447.126 314.255 446.963 313.676 446.636C313.107 446.309 312.659 445.847 312.332 445.25C312.006 444.643 311.842 443.943 311.842 443.15C311.842 442.357 312.001 441.661 312.318 441.064C312.636 440.467 313.079 440.009 313.648 439.692C314.227 439.365 314.89 439.202 315.636 439.202C316.364 439.202 317.008 439.361 317.568 439.678C318.128 439.995 318.558 440.434 318.856 440.994C319.164 441.545 319.318 442.17 319.318 442.87ZM318.002 442.604C318.002 442.119 317.895 441.703 317.68 441.358C317.466 441.003 317.172 440.737 316.798 440.56C316.434 440.373 316.028 440.28 315.58 440.28C314.936 440.28 314.386 440.485 313.928 440.896C313.48 441.307 313.224 441.876 313.158 442.604H318.002ZM325.238 439.188C326.171 439.188 326.927 439.473 327.506 440.042C328.085 440.602 328.374 441.414 328.374 442.478V447H327.114V442.66C327.114 441.895 326.923 441.311 326.54 440.91C326.157 440.499 325.635 440.294 324.972 440.294C324.3 440.294 323.763 440.504 323.362 440.924C322.97 441.344 322.774 441.955 322.774 442.758V447H321.5V439.328H322.774V440.42C323.026 440.028 323.367 439.725 323.796 439.51C324.235 439.295 324.715 439.188 325.238 439.188ZM332.509 440.378V444.9C332.509 445.273 332.588 445.539 332.747 445.698C332.906 445.847 333.181 445.922 333.573 445.922H334.511V447H333.363C332.654 447 332.122 446.837 331.767 446.51C331.412 446.183 331.235 445.647 331.235 444.9V440.378H330.241V439.328H331.235V437.396H332.509V439.328H334.511V440.378H332.509ZM339.271 447.126C338.683 447.126 338.155 447.028 337.689 446.832C337.222 446.627 336.853 446.347 336.583 445.992C336.312 445.628 336.163 445.213 336.135 444.746H337.451C337.488 445.129 337.665 445.441 337.983 445.684C338.309 445.927 338.734 446.048 339.257 446.048C339.742 446.048 340.125 445.941 340.405 445.726C340.685 445.511 340.825 445.241 340.825 444.914C340.825 444.578 340.675 444.331 340.377 444.172C340.078 444.004 339.616 443.841 338.991 443.682C338.421 443.533 337.955 443.383 337.591 443.234C337.236 443.075 336.928 442.847 336.667 442.548C336.415 442.24 336.289 441.839 336.289 441.344C336.289 440.952 336.405 440.593 336.639 440.266C336.872 439.939 337.203 439.683 337.633 439.496C338.062 439.3 338.552 439.202 339.103 439.202C339.952 439.202 340.638 439.417 341.161 439.846C341.683 440.275 341.963 440.863 342.001 441.61H340.727C340.699 441.209 340.535 440.887 340.237 440.644C339.947 440.401 339.555 440.28 339.061 440.28C338.603 440.28 338.239 440.378 337.969 440.574C337.698 440.77 337.563 441.027 337.563 441.344C337.563 441.596 337.642 441.806 337.801 441.974C337.969 442.133 338.174 442.263 338.417 442.366C338.669 442.459 339.014 442.567 339.453 442.688C340.003 442.837 340.451 442.987 340.797 443.136C341.142 443.276 341.436 443.491 341.679 443.78C341.931 444.069 342.061 444.447 342.071 444.914C342.071 445.334 341.954 445.712 341.721 446.048C341.487 446.384 341.156 446.65 340.727 446.846C340.307 447.033 339.821 447.126 339.271 447.126Z" fill="white"/>
<path d="M93.5 407L124 441.5" stroke="url(#paint41_linear_1249_940)" stroke-miterlimit="10"/>
<path d="M93 400.5C89.9332 400.5 87.5 402.933 87.5 406C87.5 409.067 89.9332 411.5 93 411.5C96.0669 411.5 98.5 409.067 98.5 406C98.5 402.933 96.0669 400.5 93 400.5Z" fill="url(#paint42_linear_1249_940)" stroke="url(#paint43_linear_1249_940)"/>
<path d="M142.5 442C142.5 451.665 134.665 459.5 125 459.5C115.335 459.5 107.5 451.665 107.5 442C107.5 432.335 115.335 424.5 125 424.5C134.665 424.5 142.5 432.335 142.5 442Z" fill="url(#paint44_linear_1249_940)" stroke="url(#paint45_linear_1249_940)"/>
<path d="M127.82 112.46V124L125.54 123.98V115.2L121.4 116.92V114.32L125.54 112.46H127.82Z" fill="white"/>
<path d="M178.8 199.48L181.08 198.1H185.22V200.36H181.24V202.64H185.14V205H178.8V199.48ZM178.8 197.12V194.84L181.08 193.46H185.22V195.74H181.32V197.12H178.8ZM192.62 205H186.2V202.64H192.62V205ZM190.02 200.36H186.12V198.1H190.02V195.74H186.12V193.46H190.26L192.62 194.84V198.98L190.02 200.36Z" fill="white"/>
<path d="M206.22 286.02H202.08V283.66H205.98V281.38H202.08V279.12H205.98V276.76H202.08V274.48H206.22L208.5 275.86V279.28L206.62 280.24L208.5 281.14V284.64L206.22 286.02ZM197.2 282.28V283.66H201.1V286.02H196.96L194.6 284.64V282.28H197.2ZM194.68 278.14V275.86L196.96 274.48H201.1V276.76H197.2V278.14H194.68ZM201.1 281.38H198.58V279.12H201.1V281.38Z" fill="white"/>
<path d="M192.42 366.98H190.08V362.44H185.94V360.1H190.08V355.48H192.42V366.98ZM182.54 360.1H184.96V362.44H178.4L182.54 355.56H185.28L182.54 360.1Z" fill="white"/>
<path d="M117.8 436.46H124.26V438.74H120.34V441.04H124.26V443.4H117.8V436.46ZM120.34 444.3V445.7H124.26V447.98H120.08L117.8 446.6V444.3H120.34ZM131.7 438.74H125.24V436.46H131.7V438.74ZM131.7 442.42V446.6L129.42 447.98H125.24V445.7H129.16V443.4H125.24V441.04H129.16L131.7 442.42Z" fill="white"/>
<defs>
<linearGradient id="paint0_linear_1249_940" x1="27.5" y1="-380.625" x2="714.464" y2="127.526" gradientUnits="userSpaceOnUse">
<stop offset="0.303689" stop-color="#004B4B" stop-opacity="0"/>
<stop offset="0.454116" stop-color="#004B4B" stop-opacity="0.4"/>
<stop offset="0.499089" stop-color="#004B4B"/>
<stop offset="0.64438" stop-color="#26DDFF"/>
<stop offset="0.953267" stop-color="#26DDFF" stop-opacity="0"/>
</linearGradient>
<linearGradient id="paint1_linear_1249_940" x1="184" y1="260.5" x2="94.6909" y2="261.688" gradientUnits="userSpaceOnUse">
<stop stop-color="#12637E"/>
<stop offset="0.781" stop-color="#04182D" stop-opacity="0.4"/>
</linearGradient>
<linearGradient id="paint2_linear_1249_940" x1="-19.2105" y1="-2571.26" x2="340.819" y2="-2549.75" gradientUnits="userSpaceOnUse">
<stop offset="0.303689" stop-color="#004B4B" stop-opacity="0"/>
<stop offset="0.422945" stop-color="#004B4B" stop-opacity="0.4"/>
<stop offset="0.499089" stop-color="#004B4B"/>
<stop offset="0.649516" stop-color="#26DDFF"/>
<stop offset="0.953267" stop-color="#26DDFF" stop-opacity="0"/>
</linearGradient>
<linearGradient id="paint3_linear_1249_940" x1="117.949" y1="267.5" x2="60.6993" y2="268.262" gradientUnits="userSpaceOnUse">
<stop stop-color="#12637E"/>
<stop offset="0.781" stop-color="#04182D" stop-opacity="0.4"/>
</linearGradient>
<linearGradient id="paint4_linear_1249_940" x1="-12.3144" y1="-1547.73" x2="218.474" y2="-1533.94" gradientUnits="userSpaceOnUse">
<stop offset="0.303689" stop-color="#004B4B" stop-opacity="0"/>
<stop offset="0.422945" stop-color="#004B4B" stop-opacity="0.4"/>
<stop offset="0.499089" stop-color="#004B4B"/>
<stop offset="0.649516" stop-color="#26DDFF"/>
<stop offset="0.953267" stop-color="#26DDFF" stop-opacity="0"/>
</linearGradient>
<linearGradient id="paint5_linear_1249_940" x1="184" y1="260.5" x2="94.6909" y2="261.688" gradientUnits="userSpaceOnUse">
<stop stop-color="#12637E"/>
<stop offset="0.781" stop-color="#04182D" stop-opacity="0.4"/>
</linearGradient>
<linearGradient id="paint6_linear_1249_940" x1="-19.2105" y1="-2571.26" x2="340.819" y2="-2549.75" gradientUnits="userSpaceOnUse">
<stop offset="0.303689" stop-color="#004B4B" stop-opacity="0"/>
<stop offset="0.422945" stop-color="#004B4B" stop-opacity="0.4"/>
<stop offset="0.499089" stop-color="#004B4B"/>
<stop offset="0.649516" stop-color="#26DDFF"/>
<stop offset="0.953267" stop-color="#26DDFF" stop-opacity="0"/>
</linearGradient>
<linearGradient id="paint7_linear_1249_940" x1="117.949" y1="267.5" x2="60.6993" y2="268.262" gradientUnits="userSpaceOnUse">
<stop stop-color="#12637E"/>
<stop offset="0.781" stop-color="#04182D" stop-opacity="0.4"/>
</linearGradient>
<linearGradient id="paint8_linear_1249_940" x1="-12.3144" y1="-1547.73" x2="218.474" y2="-1533.94" gradientUnits="userSpaceOnUse">
<stop offset="0.303689" stop-color="#004B4B" stop-opacity="0"/>
<stop offset="0.422945" stop-color="#004B4B" stop-opacity="0.4"/>
<stop offset="0.499089" stop-color="#004B4B"/>
<stop offset="0.649516" stop-color="#26DDFF"/>
<stop offset="0.953267" stop-color="#26DDFF" stop-opacity="0"/>
</linearGradient>
<linearGradient id="paint9_linear_1249_940" x1="63.6923" y1="273.25" x2="32.7776" y2="273.661" gradientUnits="userSpaceOnUse">
<stop stop-color="#12637E"/>
<stop offset="0.781" stop-color="#04182D" stop-opacity="0.4"/>
</linearGradient>
<linearGradient id="paint10_linear_1249_940" x1="-6.64978" y1="-706.974" x2="117.976" y2="-699.529" gradientUnits="userSpaceOnUse">
<stop offset="0.303689" stop-color="#004B4B" stop-opacity="0"/>
<stop offset="0.422945" stop-color="#004B4B" stop-opacity="0.4"/>
<stop offset="0.499089" stop-color="#004B4B"/>
<stop offset="0.649516" stop-color="#26DDFF"/>
<stop offset="0.953267" stop-color="#26DDFF" stop-opacity="0"/>
</linearGradient>
<linearGradient id="paint11_linear_1249_940" x1="371.727" y1="74.4288" x2="360.242" y2="164.2" gradientUnits="userSpaceOnUse">
<stop stop-color="#12637E"/>
<stop offset="0.781" stop-color="#04182D"/>
</linearGradient>
<linearGradient id="paint12_linear_1249_940" x1="457.5" y1="83.5" x2="445.673" y2="173.039" gradientUnits="userSpaceOnUse">
<stop offset="0.303689" stop-color="#004B4B" stop-opacity="0"/>
<stop offset="0.422945" stop-color="#004B4B" stop-opacity="0.4"/>
<stop offset="0.499089" stop-color="#004B4B"/>
<stop offset="0.649516" stop-color="#26DDFF"/>
<stop offset="0.953267" stop-color="#26DDFF" stop-opacity="0"/>
</linearGradient>
<linearGradient id="paint13_linear_1249_940" x1="85.6649" y1="236.833" x2="171.167" y2="199.378" gradientUnits="userSpaceOnUse">
<stop offset="0.303689" stop-color="#004B4B" stop-opacity="0"/>
<stop offset="0.422945" stop-color="#004B4B" stop-opacity="0.4"/>
<stop offset="0.499089" stop-color="#004B4B"/>
<stop offset="0.649516" stop-color="#26DDFF"/>
<stop offset="0.953267" stop-color="#26DDFF" stop-opacity="0"/>
</linearGradient>
<linearGradient id="paint14_linear_1249_940" x1="98.072" y1="145.548" x2="89.4432" y2="159.036" gradientUnits="userSpaceOnUse">
<stop stop-color="#12637E"/>
<stop offset="0.781" stop-color="#04182D"/>
</linearGradient>
<linearGradient id="paint15_linear_1249_940" x1="86.0203" y1="132.056" x2="108.263" y2="146.671" gradientUnits="userSpaceOnUse">
<stop offset="0.303689" stop-color="#004B4B" stop-opacity="0"/>
<stop offset="0.422945" stop-color="#004B4B" stop-opacity="0.4"/>
<stop offset="0.499089" stop-color="#004B4B"/>
<stop offset="0.649516" stop-color="#26DDFF"/>
<stop offset="0.953267" stop-color="#26DDFF" stop-opacity="0"/>
</linearGradient>
<linearGradient id="paint16_linear_1249_940" x1="143.259" y1="87.5716" x2="112.196" y2="136.131" gradientUnits="userSpaceOnUse">
<stop stop-color="#12637E"/>
<stop offset="0.781" stop-color="#04182D"/>
</linearGradient>
<linearGradient id="paint17_linear_1249_940" x1="156.125" y1="94.375" x2="124.705" y2="141.949" gradientUnits="userSpaceOnUse">
<stop offset="0.303689" stop-color="#004B4B" stop-opacity="0"/>
<stop offset="0.422945" stop-color="#004B4B" stop-opacity="0.4"/>
<stop offset="0.499089" stop-color="#004B4B"/>
<stop offset="0.649516" stop-color="#26DDFF"/>
<stop offset="0.953267" stop-color="#26DDFF" stop-opacity="0"/>
</linearGradient>
<linearGradient id="paint18_linear_1249_940" x1="432.727" y1="158.429" x2="421.242" y2="248.2" gradientUnits="userSpaceOnUse">
<stop stop-color="#12637E"/>
<stop offset="0.781" stop-color="#04182D"/>
</linearGradient>
<linearGradient id="paint19_linear_1249_940" x1="518.5" y1="167.5" x2="506.673" y2="257.039" gradientUnits="userSpaceOnUse">
<stop offset="0.303689" stop-color="#004B4B" stop-opacity="0"/>
<stop offset="0.422945" stop-color="#004B4B" stop-opacity="0.4"/>
<stop offset="0.499089" stop-color="#004B4B"/>
<stop offset="0.649516" stop-color="#26DDFF"/>
<stop offset="0.953267" stop-color="#26DDFF" stop-opacity="0"/>
</linearGradient>
<linearGradient id="paint20_linear_1249_940" x1="135.082" y1="95.8363" x2="220.584" y2="133.291" gradientUnits="userSpaceOnUse">
<stop offset="0.303689" stop-color="#004B4B" stop-opacity="0"/>
<stop offset="0.422945" stop-color="#004B4B" stop-opacity="0.4"/>
<stop offset="0.499089" stop-color="#004B4B"/>
<stop offset="0.649516" stop-color="#26DDFF"/>
<stop offset="0.953267" stop-color="#26DDFF" stop-opacity="0"/>
</linearGradient>
<linearGradient id="paint21_linear_1249_940" x1="146.072" y1="202.548" x2="137.443" y2="216.036" gradientUnits="userSpaceOnUse">
<stop stop-color="#12637E"/>
<stop offset="0.781" stop-color="#04182D"/>
</linearGradient>
<linearGradient id="paint22_linear_1249_940" x1="134.02" y1="189.056" x2="156.263" y2="203.671" gradientUnits="userSpaceOnUse">
<stop offset="0.303689" stop-color="#004B4B" stop-opacity="0"/>
<stop offset="0.422945" stop-color="#004B4B" stop-opacity="0.4"/>
<stop offset="0.499089" stop-color="#004B4B"/>
<stop offset="0.649516" stop-color="#26DDFF"/>
<stop offset="0.953267" stop-color="#26DDFF" stop-opacity="0"/>
</linearGradient>
<linearGradient id="paint23_linear_1249_940" x1="204.259" y1="168.572" x2="173.196" y2="217.131" gradientUnits="userSpaceOnUse">
<stop stop-color="#12637E"/>
<stop offset="0.781" stop-color="#04182D"/>
</linearGradient>
<linearGradient id="paint24_linear_1249_940" x1="217.125" y1="175.375" x2="185.705" y2="222.949" gradientUnits="userSpaceOnUse">
<stop offset="0.303689" stop-color="#004B4B" stop-opacity="0"/>
<stop offset="0.422945" stop-color="#004B4B" stop-opacity="0.4"/>
<stop offset="0.499089" stop-color="#004B4B"/>
<stop offset="0.649516" stop-color="#26DDFF"/>
<stop offset="0.953267" stop-color="#26DDFF" stop-opacity="0"/>
</linearGradient>
<linearGradient id="paint25_linear_1249_940" x1="448.727" y1="239.429" x2="437.242" y2="329.2" gradientUnits="userSpaceOnUse">
<stop stop-color="#12637E"/>
<stop offset="0.781" stop-color="#04182D"/>
</linearGradient>
<linearGradient id="paint26_linear_1249_940" x1="534.5" y1="248.5" x2="522.673" y2="338.039" gradientUnits="userSpaceOnUse">
<stop offset="0.303689" stop-color="#004B4B" stop-opacity="0"/>
<stop offset="0.422945" stop-color="#004B4B" stop-opacity="0.4"/>
<stop offset="0.499089" stop-color="#004B4B"/>
<stop offset="0.649516" stop-color="#26DDFF"/>
<stop offset="0.953267" stop-color="#26DDFF" stop-opacity="0"/>
</linearGradient>
<linearGradient id="paint27_linear_1249_940" x1="146.082" y1="179.836" x2="231.584" y2="217.291" gradientUnits="userSpaceOnUse">
<stop offset="0.303689" stop-color="#004B4B" stop-opacity="0"/>
<stop offset="0.422945" stop-color="#004B4B" stop-opacity="0.4"/>
<stop offset="0.499089" stop-color="#004B4B"/>
<stop offset="0.649516" stop-color="#26DDFF"/>
<stop offset="0.953267" stop-color="#26DDFF" stop-opacity="0"/>
</linearGradient>
<linearGradient id="paint28_linear_1249_940" x1="161.072" y1="271.548" x2="152.443" y2="285.036" gradientUnits="userSpaceOnUse">
<stop stop-color="#12637E"/>
<stop offset="0.781" stop-color="#04182D"/>
</linearGradient>
<linearGradient id="paint29_linear_1249_940" x1="149.02" y1="258.056" x2="171.263" y2="272.671" gradientUnits="userSpaceOnUse">
<stop offset="0.303689" stop-color="#004B4B" stop-opacity="0"/>
<stop offset="0.422945" stop-color="#004B4B" stop-opacity="0.4"/>
<stop offset="0.499089" stop-color="#004B4B"/>
<stop offset="0.649516" stop-color="#26DDFF"/>
<stop offset="0.953267" stop-color="#26DDFF" stop-opacity="0"/>
</linearGradient>
<linearGradient id="paint30_linear_1249_940" x1="220.259" y1="249.572" x2="189.196" y2="298.131" gradientUnits="userSpaceOnUse">
<stop stop-color="#12637E"/>
<stop offset="0.781" stop-color="#04182D"/>
</linearGradient>
<linearGradient id="paint31_linear_1249_940" x1="233.125" y1="256.375" x2="201.705" y2="303.949" gradientUnits="userSpaceOnUse">
<stop offset="0.303689" stop-color="#004B4B" stop-opacity="0"/>
<stop offset="0.422945" stop-color="#004B4B" stop-opacity="0.4"/>
<stop offset="0.499089" stop-color="#004B4B"/>
<stop offset="0.649516" stop-color="#26DDFF"/>
<stop offset="0.953267" stop-color="#26DDFF" stop-opacity="0"/>
</linearGradient>
<linearGradient id="paint32_linear_1249_940" x1="432.727" y1="320.429" x2="421.242" y2="410.2" gradientUnits="userSpaceOnUse">
<stop stop-color="#12637E"/>
<stop offset="0.781" stop-color="#04182D"/>
</linearGradient>
<linearGradient id="paint33_linear_1249_940" x1="518.5" y1="329.5" x2="506.673" y2="419.039" gradientUnits="userSpaceOnUse">
<stop offset="0.303689" stop-color="#004B4B" stop-opacity="0"/>
<stop offset="0.422945" stop-color="#004B4B" stop-opacity="0.4"/>
<stop offset="0.499089" stop-color="#004B4B"/>
<stop offset="0.649516" stop-color="#26DDFF"/>
<stop offset="0.953267" stop-color="#26DDFF" stop-opacity="0"/>
</linearGradient>
<linearGradient id="paint34_linear_1249_940" x1="135.082" y1="260.836" x2="220.584" y2="298.291" gradientUnits="userSpaceOnUse">
<stop offset="0.303689" stop-color="#004B4B" stop-opacity="0"/>
<stop offset="0.422945" stop-color="#004B4B" stop-opacity="0.4"/>
<stop offset="0.499089" stop-color="#004B4B"/>
<stop offset="0.649516" stop-color="#26DDFF"/>
<stop offset="0.953267" stop-color="#26DDFF" stop-opacity="0"/>
</linearGradient>
<linearGradient id="paint35_linear_1249_940" x1="148.072" y1="335.548" x2="139.443" y2="349.036" gradientUnits="userSpaceOnUse">
<stop stop-color="#12637E"/>
<stop offset="0.781" stop-color="#04182D"/>
</linearGradient>
<linearGradient id="paint36_linear_1249_940" x1="136.02" y1="322.056" x2="158.263" y2="336.671" gradientUnits="userSpaceOnUse">
<stop offset="0.303689" stop-color="#004B4B" stop-opacity="0"/>
<stop offset="0.422945" stop-color="#004B4B" stop-opacity="0.4"/>
<stop offset="0.499089" stop-color="#004B4B"/>
<stop offset="0.649516" stop-color="#26DDFF"/>
<stop offset="0.953267" stop-color="#26DDFF" stop-opacity="0"/>
</linearGradient>
<linearGradient id="paint37_linear_1249_940" x1="204.259" y1="330.572" x2="173.196" y2="379.131" gradientUnits="userSpaceOnUse">
<stop stop-color="#12637E"/>
<stop offset="0.781" stop-color="#04182D"/>
</linearGradient>
<linearGradient id="paint38_linear_1249_940" x1="217.125" y1="337.375" x2="185.705" y2="384.949" gradientUnits="userSpaceOnUse">
<stop offset="0.303689" stop-color="#004B4B" stop-opacity="0"/>
<stop offset="0.422945" stop-color="#004B4B" stop-opacity="0.4"/>
<stop offset="0.499089" stop-color="#004B4B"/>
<stop offset="0.649516" stop-color="#26DDFF"/>
<stop offset="0.953267" stop-color="#26DDFF" stop-opacity="0"/>
</linearGradient>
<linearGradient id="paint39_linear_1249_940" x1="371.727" y1="401.429" x2="360.242" y2="491.2" gradientUnits="userSpaceOnUse">
<stop stop-color="#12637E"/>
<stop offset="0.781" stop-color="#04182D"/>
</linearGradient>
<linearGradient id="paint40_linear_1249_940" x1="457.5" y1="410.5" x2="445.673" y2="500.039" gradientUnits="userSpaceOnUse">
<stop offset="0.303689" stop-color="#004B4B" stop-opacity="0"/>
<stop offset="0.422945" stop-color="#004B4B" stop-opacity="0.4"/>
<stop offset="0.499089" stop-color="#004B4B"/>
<stop offset="0.649516" stop-color="#26DDFF"/>
<stop offset="0.953267" stop-color="#26DDFF" stop-opacity="0"/>
</linearGradient>
<linearGradient id="paint41_linear_1249_940" x1="85.6649" y1="323.667" x2="171.167" y2="361.122" gradientUnits="userSpaceOnUse">
<stop offset="0.303689" stop-color="#004B4B" stop-opacity="0"/>
<stop offset="0.422945" stop-color="#004B4B" stop-opacity="0.4"/>
<stop offset="0.499089" stop-color="#004B4B"/>
<stop offset="0.649516" stop-color="#26DDFF"/>
<stop offset="0.953267" stop-color="#26DDFF" stop-opacity="0"/>
</linearGradient>
<linearGradient id="paint42_linear_1249_940" x1="98.072" y1="397.548" x2="89.4432" y2="411.036" gradientUnits="userSpaceOnUse">
<stop stop-color="#12637E"/>
<stop offset="0.781" stop-color="#04182D"/>
</linearGradient>
<linearGradient id="paint43_linear_1249_940" x1="86.0203" y1="384.056" x2="108.263" y2="398.671" gradientUnits="userSpaceOnUse">
<stop offset="0.303689" stop-color="#004B4B" stop-opacity="0"/>
<stop offset="0.422945" stop-color="#004B4B" stop-opacity="0.4"/>
<stop offset="0.499089" stop-color="#004B4B"/>
<stop offset="0.649516" stop-color="#26DDFF"/>
<stop offset="0.953267" stop-color="#26DDFF" stop-opacity="0"/>
</linearGradient>
<linearGradient id="paint44_linear_1249_940" x1="143.259" y1="411.572" x2="112.196" y2="460.131" gradientUnits="userSpaceOnUse">
<stop stop-color="#12637E"/>
<stop offset="0.781" stop-color="#04182D"/>
</linearGradient>
<linearGradient id="paint45_linear_1249_940" x1="156.125" y1="418.375" x2="124.705" y2="465.949" gradientUnits="userSpaceOnUse">
<stop offset="0.303689" stop-color="#004B4B" stop-opacity="0"/>
<stop offset="0.422945" stop-color="#004B4B" stop-opacity="0.4"/>
<stop offset="0.499089" stop-color="#004B4B"/>
<stop offset="0.649516" stop-color="#26DDFF"/>
<stop offset="0.953267" stop-color="#26DDFF" stop-opacity="0"/>
</linearGradient>
</defs>
</svg>
