<svg width="39" height="41" viewBox="0 0 39 41" fill="none" xmlns="http://www.w3.org/2000/svg">
<path d="M20.8326 9.59935V17.8724L27.485 14.3729C27.8316 14.1905 28.2329 14.1604 28.6007 14.2892C28.9684 14.418 29.2724 14.6953 29.4458 15.06C29.6193 15.4246 29.6479 15.8469 29.5254 16.2337C29.403 16.6206 29.1394 16.9405 28.7928 17.1229L20.0253 21.7351C19.8026 21.8524 19.555 21.9078 19.3062 21.8961C19.0574 21.8844 18.8156 21.806 18.6037 21.6684C18.3918 21.5307 18.2168 21.3384 18.0954 21.1096C17.974 20.8808 17.9102 20.6231 17.9101 20.3611V9.59935C17.9101 9.19161 18.0641 8.80057 18.3381 8.51225C18.6121 8.22393 18.9838 8.06196 19.3714 8.06196C19.7589 8.06196 20.1306 8.22393 20.4046 8.51225C20.6787 8.80057 20.8326 9.19161 20.8326 9.59935ZM19.3714 37.2724C16.1923 37.2724 13.0845 36.2805 10.4412 34.4223C7.79789 32.5641 5.73766 29.9229 4.52107 26.8327C3.30448 23.7426 2.98617 20.3423 3.60638 17.0618C4.22659 13.7814 5.75748 10.7681 8.00544 8.40299C10.2534 6.0379 13.1175 4.42726 16.2355 3.77473C19.3535 3.12221 22.5854 3.45711 25.5226 4.73708C28.4597 6.01706 30.9701 8.18462 32.7363 10.9657C34.5025 13.7467 35.4452 17.0163 35.4452 20.3611C35.4452 20.7688 35.5992 21.1599 35.8732 21.4482C36.1472 21.7365 36.5189 21.8985 36.9065 21.8985C37.294 21.8985 37.6657 21.7365 37.9397 21.4482C38.2138 21.1599 38.3677 20.7688 38.3677 20.3611C38.3677 16.4082 37.2536 12.5441 35.1663 9.25741C33.0789 5.97072 30.1121 3.40906 26.641 1.89636C23.1698 0.38366 19.3503 -0.0121312 15.6654 0.759036C11.9804 1.5302 8.5956 3.43369 5.93891 6.22879C3.28222 9.02389 1.473 12.5851 0.740018 16.462C0.00703958 20.3389 0.383231 24.3574 1.82102 28.0094C3.25881 31.6614 5.69362 34.7828 8.81755 36.9789C11.9415 39.175 15.6142 40.3471 19.3714 40.3471C19.7589 40.3471 20.1306 40.1852 20.4046 39.8969C20.6787 39.6085 20.8326 39.2175 20.8326 38.8098C20.8326 38.402 20.6787 38.011 20.4046 37.7227C20.1306 37.4343 19.7589 37.2724 19.3714 37.2724ZM38.3184 38.4139C38.3719 38.6104 38.3877 38.8161 38.3648 39.0191C38.3419 39.2221 38.2807 39.4182 38.1848 39.596C38.089 39.7738 37.9604 39.9297 37.8066 40.0546C37.6529 40.1795 37.4769 40.2709 37.2892 40.3234C37.1014 40.3759 36.9056 40.3885 36.7131 40.3604C36.5207 40.3324 36.3355 40.2642 36.1684 40.16C36.0013 40.0557 35.8556 39.9174 35.7399 39.7532C35.6242 39.5891 35.5408 39.4022 35.4945 39.2037C34.9776 37.1609 33.1547 35.735 31.0614 35.735C28.9682 35.735 27.1453 37.1609 26.6283 39.2037C26.5458 39.5314 26.3625 39.8212 26.1072 40.028C25.8518 40.2348 25.5386 40.347 25.2164 40.3471C25.0894 40.3468 24.9629 40.3294 24.8401 40.2953C24.4657 40.1903 24.1462 39.9331 23.952 39.5802C23.7577 39.2274 23.7047 38.8079 23.8045 38.4139C24.2784 36.5622 25.3931 34.9638 26.9297 33.9324C26.1116 33.0726 25.5543 31.9769 25.3283 30.7838C25.1022 29.5907 25.2176 28.3539 25.6598 27.2298C26.102 26.1058 26.8512 25.1449 27.8125 24.4689C28.7739 23.7929 29.9042 23.432 31.0605 23.432C32.2168 23.432 33.3472 23.7929 34.3085 24.4689C35.2699 25.1449 36.019 26.1058 36.4612 27.2298C36.9034 28.3539 37.0188 29.5907 36.7928 30.7838C36.5667 31.9769 36.0094 33.0726 35.1913 33.9324C36.7286 34.9634 37.844 36.5619 38.3184 38.4139ZM28.1389 29.5854C28.1389 30.1935 28.3103 30.788 28.6314 31.2937C28.9526 31.7993 29.409 32.1934 29.943 32.4261C30.4771 32.6589 31.0647 32.7198 31.6316 32.6011C32.1985 32.4825 32.7192 32.1896 33.128 31.7596C33.5367 31.3296 33.815 30.7817 33.9278 30.1853C34.0406 29.5888 33.9827 28.9706 33.7615 28.4087C33.5403 27.8469 33.1657 27.3667 32.6851 27.0288C32.2045 26.691 31.6394 26.5106 31.0614 26.5106C30.2863 26.5106 29.543 26.8346 28.9949 27.4112C28.4468 27.9879 28.1389 28.7699 28.1389 29.5854Z" fill="white"/>
<path d="M20.8326 9.59935V17.8724L27.485 14.3729C27.8316 14.1905 28.2329 14.1604 28.6007 14.2892C28.9684 14.418 29.2724 14.6953 29.4458 15.06C29.6193 15.4246 29.6479 15.8469 29.5254 16.2337C29.403 16.6206 29.1394 16.9405 28.7928 17.1229L20.0253 21.7351C19.8026 21.8524 19.555 21.9078 19.3062 21.8961C19.0574 21.8844 18.8156 21.806 18.6037 21.6684C18.3918 21.5307 18.2168 21.3384 18.0954 21.1096C17.974 20.8808 17.9102 20.6231 17.9101 20.3611V9.59935C17.9101 9.19161 18.0641 8.80057 18.3381 8.51225C18.6121 8.22393 18.9838 8.06196 19.3714 8.06196C19.7589 8.06196 20.1306 8.22393 20.4046 8.51225C20.6787 8.80057 20.8326 9.19161 20.8326 9.59935ZM19.3714 37.2724C16.1923 37.2724 13.0845 36.2805 10.4412 34.4223C7.79789 32.5641 5.73766 29.9229 4.52107 26.8327C3.30448 23.7426 2.98617 20.3423 3.60638 17.0618C4.22659 13.7814 5.75748 10.7681 8.00544 8.40299C10.2534 6.0379 13.1175 4.42726 16.2355 3.77473C19.3535 3.12221 22.5854 3.45711 25.5226 4.73708C28.4597 6.01706 30.9701 8.18462 32.7363 10.9657C34.5025 13.7467 35.4452 17.0163 35.4452 20.3611C35.4452 20.7688 35.5992 21.1599 35.8732 21.4482C36.1472 21.7365 36.5189 21.8985 36.9065 21.8985C37.294 21.8985 37.6657 21.7365 37.9397 21.4482C38.2138 21.1599 38.3677 20.7688 38.3677 20.3611C38.3677 16.4082 37.2536 12.5441 35.1663 9.25741C33.0789 5.97072 30.1121 3.40906 26.641 1.89636C23.1698 0.38366 19.3503 -0.0121312 15.6654 0.759036C11.9804 1.5302 8.5956 3.43369 5.93891 6.22879C3.28222 9.02389 1.473 12.5851 0.740018 16.462C0.00703958 20.3389 0.383231 24.3574 1.82102 28.0094C3.25881 31.6614 5.69362 34.7828 8.81755 36.9789C11.9415 39.175 15.6142 40.3471 19.3714 40.3471C19.7589 40.3471 20.1306 40.1852 20.4046 39.8969C20.6787 39.6085 20.8326 39.2175 20.8326 38.8098C20.8326 38.402 20.6787 38.011 20.4046 37.7227C20.1306 37.4343 19.7589 37.2724 19.3714 37.2724ZM38.3184 38.4139C38.3719 38.6104 38.3877 38.8161 38.3648 39.0191C38.3419 39.2221 38.2807 39.4182 38.1848 39.596C38.089 39.7738 37.9604 39.9297 37.8066 40.0546C37.6529 40.1795 37.4769 40.2709 37.2892 40.3234C37.1014 40.3759 36.9056 40.3885 36.7131 40.3604C36.5207 40.3324 36.3355 40.2642 36.1684 40.16C36.0013 40.0557 35.8556 39.9174 35.7399 39.7532C35.6242 39.5891 35.5408 39.4022 35.4945 39.2037C34.9776 37.1609 33.1547 35.735 31.0614 35.735C28.9682 35.735 27.1453 37.1609 26.6283 39.2037C26.5458 39.5314 26.3625 39.8212 26.1072 40.028C25.8518 40.2348 25.5386 40.347 25.2164 40.3471C25.0894 40.3468 24.9629 40.3294 24.8401 40.2953C24.4657 40.1903 24.1462 39.9331 23.952 39.5802C23.7577 39.2274 23.7047 38.8079 23.8045 38.4139C24.2784 36.5622 25.3931 34.9638 26.9297 33.9324C26.1116 33.0726 25.5543 31.9769 25.3283 30.7838C25.1022 29.5907 25.2176 28.3539 25.6598 27.2298C26.102 26.1058 26.8512 25.1449 27.8125 24.4689C28.7739 23.7929 29.9042 23.432 31.0605 23.432C32.2168 23.432 33.3472 23.7929 34.3085 24.4689C35.2699 25.1449 36.019 26.1058 36.4612 27.2298C36.9034 28.3539 37.0188 29.5907 36.7928 30.7838C36.5667 31.9769 36.0094 33.0726 35.1913 33.9324C36.7286 34.9634 37.844 36.5619 38.3184 38.4139ZM28.1389 29.5854C28.1389 30.1935 28.3103 30.788 28.6314 31.2937C28.9526 31.7993 29.409 32.1934 29.943 32.4261C30.4771 32.6589 31.0647 32.7198 31.6316 32.6011C32.1985 32.4825 32.7192 32.1896 33.128 31.7596C33.5367 31.3296 33.815 30.7817 33.9278 30.1853C34.0406 29.5888 33.9827 28.9706 33.7615 28.4087C33.5403 27.8469 33.1657 27.3667 32.6851 27.0288C32.2045 26.691 31.6394 26.5106 31.0614 26.5106C30.2863 26.5106 29.543 26.8346 28.9949 27.4112C28.4468 27.9879 28.1389 28.7699 28.1389 29.5854Z" fill="url(#paint0_linear_2096_14447)"/>
<defs>
<linearGradient id="paint0_linear_2096_14447" x1="19.375" y1="0.375" x2="19.375" y2="34.0417" gradientUnits="userSpaceOnUse">
<stop stop-color="#2D4949"/>
<stop offset="0.99" stop-color="#31B2B2"/>
</linearGradient>
</defs>
</svg>
