<svg width="39" height="41" viewBox="0 0 39 41" fill="none" xmlns="http://www.w3.org/2000/svg">
<path d="M32.4745 25.9643C31.1836 25.9636 29.9292 26.4334 28.9091 27.2998L24.6902 23.7013C25.0087 22.9017 25.1727 22.0386 25.1721 21.1663C25.1721 21.0184 25.1721 20.8704 25.1575 20.7245L27.5728 19.8429C28.3369 21.1334 29.5 22.0793 30.8491 22.5072C32.1982 22.9352 33.6429 22.8165 34.9186 22.173C36.1943 21.5295 37.2156 20.4043 37.7954 19.0033C38.3752 17.6024 38.4747 16.0197 38.0757 14.545C37.6766 13.0703 36.8058 11.8024 35.6226 10.9735C34.4395 10.1447 33.0232 9.81035 31.6333 10.0318C30.2434 10.2533 28.9729 11.0157 28.0545 12.1794C27.1361 13.3431 26.6313 14.8302 26.6326 16.3683C26.6326 16.5163 26.6326 16.6642 26.6472 16.8101L24.2319 17.6918C23.7025 16.7954 22.9766 16.0584 22.1204 15.5479C21.2643 15.0374 20.3051 14.7696 19.3302 14.769C19.0079 14.7697 18.6861 14.7991 18.3681 14.8569L17.1194 11.7702C18.1976 10.8268 18.936 9.49581 19.2037 8.01316C19.4714 6.5305 19.2511 4.99194 18.5819 3.67016C17.9126 2.34839 16.8376 1.32877 15.5475 0.792026C14.2573 0.25528 12.8352 0.236073 11.5334 0.737808C10.2315 1.23954 9.1339 2.22982 8.43508 3.53311C7.73626 4.83641 7.48137 6.36855 7.71558 7.85799C7.9498 9.34742 8.65799 10.698 9.71464 11.6702C10.7713 12.6425 12.1082 13.1737 13.4883 13.1696C13.8106 13.1689 14.1324 13.1395 14.4504 13.0817L15.6991 16.1604C14.6402 17.0782 13.9052 18.3702 13.6198 19.8157C13.3345 21.2611 13.5164 22.7703 14.1346 24.0851L9.44095 28.6512C8.25976 27.7792 6.82869 27.4089 5.416 27.6096C4.00331 27.8104 2.70598 28.5685 1.76718 29.7418C0.82838 30.9151 0.312568 32.423 0.316428 33.983C0.320287 35.543 0.843553 37.0479 1.78814 38.2156C2.73273 39.3833 4.0338 40.1337 5.44746 40.3261C6.86113 40.5184 8.29034 40.1396 9.4672 39.2606C10.6441 38.3816 11.4878 37.0628 11.8402 35.5513C12.1926 34.0398 12.0295 32.4394 11.3816 31.0502L16.0752 26.4841C17.0914 27.2334 18.2975 27.6128 19.522 27.5683C20.7465 27.5238 21.9269 27.0577 22.8956 26.2362L27.1145 29.8347C26.797 30.6318 26.633 31.492 26.6326 32.3617C26.6326 33.6269 26.9752 34.8638 27.6171 35.9158C28.259 36.9679 29.1714 37.7878 30.2389 38.272C31.3064 38.7562 32.481 38.8829 33.6142 38.6361C34.7474 38.3892 35.7883 37.7799 36.6053 36.8852C37.4224 35.9906 37.9787 34.8507 38.2042 33.6097C38.4296 32.3687 38.3139 31.0825 37.8717 29.9135C37.4296 28.7445 36.6808 27.7454 35.7201 27.0425C34.7594 26.3395 33.6299 25.9643 32.4745 25.9643ZM32.4745 13.1696C33.0522 13.1696 33.6169 13.3572 34.0973 13.7087C34.5776 14.0602 34.952 14.5598 35.1731 15.1442C35.3942 15.7287 35.452 16.3719 35.3393 16.9923C35.2266 17.6128 34.9484 18.1828 34.5399 18.6301C34.1314 19.0775 33.611 19.3821 33.0443 19.5055C32.4777 19.6289 31.8904 19.5656 31.3567 19.3235C30.823 19.0814 30.3668 18.6714 30.0458 18.1454C29.7249 17.6194 29.5535 17.001 29.5535 16.3683C29.5535 15.52 29.8613 14.7064 30.4091 14.1065C30.9569 13.5066 31.6998 13.1696 32.4745 13.1696ZM10.5673 6.77231C10.5673 6.13968 10.7387 5.52125 11.0596 4.99523C11.3806 4.46921 11.8368 4.05923 12.3705 3.81713C12.9042 3.57503 13.4915 3.51168 14.0581 3.63511C14.6248 3.75853 15.1452 4.06317 15.5537 4.51051C15.9622 4.95785 16.2404 5.5278 16.3531 6.14828C16.4658 6.76876 16.408 7.41191 16.1869 7.99639C15.9658 8.58087 15.5914 9.08043 15.1111 9.43191C14.6307 9.78338 14.066 9.97098 13.4883 9.97098C12.7136 9.97098 11.9707 9.63398 11.4229 9.03411C10.8751 8.43424 10.5673 7.62065 10.5673 6.77231ZM6.18591 37.1597C5.6082 37.1597 5.04346 36.9721 4.56312 36.6206C4.08277 36.2691 3.70838 35.7695 3.4873 35.1851C3.26622 34.6006 3.20838 33.9574 3.32108 33.337C3.43379 32.7165 3.71198 32.1465 4.12048 31.6992C4.52899 31.2518 5.04945 30.9472 5.61606 30.8238C6.18267 30.7004 6.76998 30.7637 7.30371 31.0058C7.83745 31.2479 8.29364 31.6579 8.61459 32.1839C8.93555 32.7099 9.10686 33.3283 9.10686 33.961C9.10686 34.8093 8.79912 35.6229 8.25134 36.2228C7.70355 36.8226 6.9606 37.1597 6.18591 37.1597ZM16.4092 21.1663C16.4092 20.5337 16.5806 19.9152 16.9015 19.3892C17.2225 18.8632 17.6787 18.4532 18.2124 18.2111C18.7461 17.969 19.3334 17.9057 19.9001 18.0291C20.4667 18.1525 20.9871 18.4572 21.3956 18.9045C21.8041 19.3519 22.0823 19.9218 22.195 20.5423C22.3077 21.1628 22.2499 21.8059 22.0288 22.3904C21.8077 22.9749 21.4333 23.4744 20.953 23.8259C20.4726 24.1774 19.9079 24.365 19.3302 24.365C18.5555 24.365 17.8126 24.028 17.2648 23.4281C16.717 22.8282 16.4092 22.0147 16.4092 21.1663ZM32.4745 35.5603C31.8968 35.5603 31.332 35.3727 30.8517 35.0212C30.3713 34.6698 29.997 34.1702 29.7759 33.5857C29.5548 33.0012 29.497 32.3581 29.6097 31.7376C29.7224 31.1171 30.0006 30.5472 30.4091 30.0999C30.8176 29.6525 31.338 29.3479 31.9046 29.2244C32.4713 29.101 33.0586 29.1644 33.5923 29.4065C34.126 29.6486 34.5822 30.0585 34.9032 30.5846C35.2241 31.1106 35.3954 31.729 35.3954 32.3617C35.3954 33.21 35.0877 34.0236 34.5399 34.6234C33.9921 35.2233 33.2492 35.5603 32.4745 35.5603Z" fill="white"/>
<path d="M32.4745 25.9643C31.1836 25.9636 29.9292 26.4334 28.9091 27.2998L24.6902 23.7013C25.0087 22.9017 25.1727 22.0386 25.1721 21.1663C25.1721 21.0184 25.1721 20.8704 25.1575 20.7245L27.5728 19.8429C28.3369 21.1334 29.5 22.0793 30.8491 22.5072C32.1982 22.9352 33.6429 22.8165 34.9186 22.173C36.1943 21.5295 37.2156 20.4043 37.7954 19.0033C38.3752 17.6024 38.4747 16.0197 38.0757 14.545C37.6766 13.0703 36.8058 11.8024 35.6226 10.9735C34.4395 10.1447 33.0232 9.81035 31.6333 10.0318C30.2434 10.2533 28.9729 11.0157 28.0545 12.1794C27.1361 13.3431 26.6313 14.8302 26.6326 16.3683C26.6326 16.5163 26.6326 16.6642 26.6472 16.8101L24.2319 17.6918C23.7025 16.7954 22.9766 16.0584 22.1204 15.5479C21.2643 15.0374 20.3051 14.7696 19.3302 14.769C19.0079 14.7697 18.6861 14.7991 18.3681 14.8569L17.1194 11.7702C18.1976 10.8268 18.936 9.49581 19.2037 8.01316C19.4714 6.5305 19.2511 4.99194 18.5819 3.67016C17.9126 2.34839 16.8376 1.32877 15.5475 0.792026C14.2573 0.25528 12.8352 0.236073 11.5334 0.737808C10.2315 1.23954 9.1339 2.22982 8.43508 3.53311C7.73626 4.83641 7.48137 6.36855 7.71558 7.85799C7.9498 9.34742 8.65799 10.698 9.71464 11.6702C10.7713 12.6425 12.1082 13.1737 13.4883 13.1696C13.8106 13.1689 14.1324 13.1395 14.4504 13.0817L15.6991 16.1604C14.6402 17.0782 13.9052 18.3702 13.6198 19.8157C13.3345 21.2611 13.5164 22.7703 14.1346 24.0851L9.44095 28.6512C8.25976 27.7792 6.82869 27.4089 5.416 27.6096C4.00331 27.8104 2.70598 28.5685 1.76718 29.7418C0.82838 30.9151 0.312568 32.423 0.316428 33.983C0.320287 35.543 0.843553 37.0479 1.78814 38.2156C2.73273 39.3833 4.0338 40.1337 5.44746 40.3261C6.86113 40.5184 8.29034 40.1396 9.4672 39.2606C10.6441 38.3816 11.4878 37.0628 11.8402 35.5513C12.1926 34.0398 12.0295 32.4394 11.3816 31.0502L16.0752 26.4841C17.0914 27.2334 18.2975 27.6128 19.522 27.5683C20.7465 27.5238 21.9269 27.0577 22.8956 26.2362L27.1145 29.8347C26.797 30.6318 26.633 31.492 26.6326 32.3617C26.6326 33.6269 26.9752 34.8638 27.6171 35.9158C28.259 36.9679 29.1714 37.7878 30.2389 38.272C31.3064 38.7562 32.481 38.8829 33.6142 38.6361C34.7474 38.3892 35.7883 37.7799 36.6053 36.8852C37.4224 35.9906 37.9787 34.8507 38.2042 33.6097C38.4296 32.3687 38.3139 31.0825 37.8717 29.9135C37.4296 28.7445 36.6808 27.7454 35.7201 27.0425C34.7594 26.3395 33.6299 25.9643 32.4745 25.9643ZM32.4745 13.1696C33.0522 13.1696 33.6169 13.3572 34.0973 13.7087C34.5776 14.0602 34.952 14.5598 35.1731 15.1442C35.3942 15.7287 35.452 16.3719 35.3393 16.9923C35.2266 17.6128 34.9484 18.1828 34.5399 18.6301C34.1314 19.0775 33.611 19.3821 33.0443 19.5055C32.4777 19.6289 31.8904 19.5656 31.3567 19.3235C30.823 19.0814 30.3668 18.6714 30.0458 18.1454C29.7249 17.6194 29.5535 17.001 29.5535 16.3683C29.5535 15.52 29.8613 14.7064 30.4091 14.1065C30.9569 13.5066 31.6998 13.1696 32.4745 13.1696ZM10.5673 6.77231C10.5673 6.13968 10.7387 5.52125 11.0596 4.99523C11.3806 4.46921 11.8368 4.05923 12.3705 3.81713C12.9042 3.57503 13.4915 3.51168 14.0581 3.63511C14.6248 3.75853 15.1452 4.06317 15.5537 4.51051C15.9622 4.95785 16.2404 5.5278 16.3531 6.14828C16.4658 6.76876 16.408 7.41191 16.1869 7.99639C15.9658 8.58087 15.5914 9.08043 15.1111 9.43191C14.6307 9.78338 14.066 9.97098 13.4883 9.97098C12.7136 9.97098 11.9707 9.63398 11.4229 9.03411C10.8751 8.43424 10.5673 7.62065 10.5673 6.77231ZM6.18591 37.1597C5.6082 37.1597 5.04346 36.9721 4.56312 36.6206C4.08277 36.2691 3.70838 35.7695 3.4873 35.1851C3.26622 34.6006 3.20838 33.9574 3.32108 33.337C3.43379 32.7165 3.71198 32.1465 4.12048 31.6992C4.52899 31.2518 5.04945 30.9472 5.61606 30.8238C6.18267 30.7004 6.76998 30.7637 7.30371 31.0058C7.83745 31.2479 8.29364 31.6579 8.61459 32.1839C8.93555 32.7099 9.10686 33.3283 9.10686 33.961C9.10686 34.8093 8.79912 35.6229 8.25134 36.2228C7.70355 36.8226 6.9606 37.1597 6.18591 37.1597ZM16.4092 21.1663C16.4092 20.5337 16.5806 19.9152 16.9015 19.3892C17.2225 18.8632 17.6787 18.4532 18.2124 18.2111C18.7461 17.969 19.3334 17.9057 19.9001 18.0291C20.4667 18.1525 20.9871 18.4572 21.3956 18.9045C21.8041 19.3519 22.0823 19.9218 22.195 20.5423C22.3077 21.1628 22.2499 21.8059 22.0288 22.3904C21.8077 22.9749 21.4333 23.4744 20.953 23.8259C20.4726 24.1774 19.9079 24.365 19.3302 24.365C18.5555 24.365 17.8126 24.028 17.2648 23.4281C16.717 22.8282 16.4092 22.0147 16.4092 21.1663ZM32.4745 35.5603C31.8968 35.5603 31.332 35.3727 30.8517 35.0212C30.3713 34.6698 29.997 34.1702 29.7759 33.5857C29.5548 33.0012 29.497 32.3581 29.6097 31.7376C29.7224 31.1171 30.0006 30.5472 30.4091 30.0999C30.8176 29.6525 31.338 29.3479 31.9046 29.2244C32.4713 29.101 33.0586 29.1644 33.5923 29.4065C34.126 29.6486 34.5822 30.0585 34.9032 30.5846C35.2241 31.1106 35.3954 31.729 35.3954 32.3617C35.3954 33.21 35.0877 34.0236 34.5399 34.6234C33.9921 35.2233 33.2492 35.5603 32.4745 35.5603Z" fill="url(#paint0_linear_2096_14445)"/>
<defs>
<linearGradient id="paint0_linear_2096_14445" x1="19.3164" y1="0.375" x2="19.3164" y2="34.0417" gradientUnits="userSpaceOnUse">
<stop stop-color="#2D4949"/>
<stop offset="0.99" stop-color="#31B2B2"/>
</linearGradient>
</defs>
</svg>
