<svg width="38" height="40" viewBox="0 0 38 40" fill="none" xmlns="http://www.w3.org/2000/svg">
<path d="M13.8874 17.775C14.1096 17.6399 14.2942 17.4457 14.4225 17.2117C14.5508 16.9778 14.6183 16.7124 14.6183 16.4423V2.59615C14.617 2.35087 14.56 2.10948 14.452 1.8921C14.344 1.67472 14.1883 1.48766 13.9976 1.34652C13.807 1.20538 13.5871 1.11425 13.3562 1.08073C13.1254 1.04722 12.8902 1.07229 12.6704 1.15385C8.40375 2.7431 4.81565 5.88201 2.55114 10.0063C0.286628 14.1306 -0.505774 18.9697 0.316382 23.6538C0.358997 23.8961 0.456257 24.124 0.599982 24.3184C0.743707 24.5128 0.929694 24.6681 1.1423 24.7712C1.3339 24.8654 1.54292 24.914 1.75443 24.9135C2.011 24.9136 2.26308 24.8426 2.48533 24.7077L13.8874 17.775ZM11.6947 4.92692V15.5538L2.9458 20.8673C2.92387 20.5769 2.92387 20.2846 2.92387 20C2.92646 16.8815 3.74666 13.8242 5.29417 11.1647C6.84167 8.50523 9.05646 6.34676 11.6947 4.92692ZM19.0037 0C18.616 0 18.2442 0.162087 17.97 0.450605C17.6959 0.739122 17.5419 1.13044 17.5419 1.53846V19.1962L3.14131 28.025C2.9742 28.1269 2.82795 28.2627 2.711 28.4245C2.59406 28.5863 2.50874 28.7709 2.45997 28.9676C2.41121 29.1643 2.39997 29.3692 2.4269 29.5705C2.45384 29.7718 2.51841 29.9655 2.61689 30.1404C4.30473 33.1602 6.71671 35.6604 9.61135 37.3907C12.506 39.121 15.7817 40.0207 19.1106 39.9996C22.4395 39.9786 25.7047 39.0376 28.5794 37.2709C31.4541 35.5042 33.8374 32.9737 35.4907 29.9328C37.144 26.8919 38.0093 23.4472 37.9999 19.9437C37.9906 16.4402 37.1069 13.0008 35.4374 9.96968C33.7678 6.93861 31.3711 4.42228 28.4869 2.6726C25.6028 0.922929 22.3326 0.00130679 19.0037 0ZM19.0037 36.9231C16.4518 36.9159 13.9378 36.273 11.6674 35.047C9.39692 33.821 7.4345 32.0467 5.94066 29.8692L19.7401 21.4077C19.9621 21.2728 20.1465 21.0788 20.2747 20.8453C20.403 20.6117 20.4707 20.3467 20.471 20.0769V3.14615C24.594 3.53984 28.4139 5.59201 31.1354 8.87539C33.8568 12.1588 35.2701 16.4204 35.0811 20.7729C34.892 25.1254 33.1151 29.2335 30.1203 32.2419C27.1255 35.2502 23.1437 36.927 19.0037 36.9231Z" fill="black"/>
<path d="M13.8874 17.775C14.1096 17.6399 14.2942 17.4457 14.4225 17.2117C14.5508 16.9778 14.6183 16.7124 14.6183 16.4423V2.59615C14.617 2.35087 14.56 2.10948 14.452 1.8921C14.344 1.67472 14.1883 1.48766 13.9976 1.34652C13.807 1.20538 13.5871 1.11425 13.3562 1.08073C13.1254 1.04722 12.8902 1.07229 12.6704 1.15385C8.40375 2.7431 4.81565 5.88201 2.55114 10.0063C0.286628 14.1306 -0.505774 18.9697 0.316382 23.6538C0.358997 23.8961 0.456257 24.124 0.599982 24.3184C0.743707 24.5128 0.929694 24.6681 1.1423 24.7712C1.3339 24.8654 1.54292 24.914 1.75443 24.9135C2.011 24.9136 2.26308 24.8426 2.48533 24.7077L13.8874 17.775ZM11.6947 4.92692V15.5538L2.9458 20.8673C2.92387 20.5769 2.92387 20.2846 2.92387 20C2.92646 16.8815 3.74666 13.8242 5.29417 11.1647C6.84167 8.50523 9.05646 6.34676 11.6947 4.92692ZM19.0037 0C18.616 0 18.2442 0.162087 17.97 0.450605C17.6959 0.739122 17.5419 1.13044 17.5419 1.53846V19.1962L3.14131 28.025C2.9742 28.1269 2.82795 28.2627 2.711 28.4245C2.59406 28.5863 2.50874 28.7709 2.45997 28.9676C2.41121 29.1643 2.39997 29.3692 2.4269 29.5705C2.45384 29.7718 2.51841 29.9655 2.61689 30.1404C4.30473 33.1602 6.71671 35.6604 9.61135 37.3907C12.506 39.121 15.7817 40.0207 19.1106 39.9996C22.4395 39.9786 25.7047 39.0376 28.5794 37.2709C31.4541 35.5042 33.8374 32.9737 35.4907 29.9328C37.144 26.8919 38.0093 23.4472 37.9999 19.9437C37.9906 16.4402 37.1069 13.0008 35.4374 9.96968C33.7678 6.93861 31.3711 4.42228 28.4869 2.6726C25.6028 0.922929 22.3326 0.00130679 19.0037 0ZM19.0037 36.9231C16.4518 36.9159 13.9378 36.273 11.6674 35.047C9.39692 33.821 7.4345 32.0467 5.94066 29.8692L19.7401 21.4077C19.9621 21.2728 20.1465 21.0788 20.2747 20.8453C20.403 20.6117 20.4707 20.3467 20.471 20.0769V3.14615C24.594 3.53984 28.4139 5.59201 31.1354 8.87539C33.8568 12.1588 35.2701 16.4204 35.0811 20.7729C34.892 25.1254 33.1151 29.2335 30.1203 32.2419C27.1255 35.2502 23.1437 36.927 19.0037 36.9231Z" fill="url(#paint0_linear_2096_14450)"/>
<defs>
<linearGradient id="paint0_linear_2096_14450" x1="19" y1="0" x2="19" y2="33.6667" gradientUnits="userSpaceOnUse">
<stop stop-color="#2D4949"/>
<stop offset="0.99" stop-color="#31B2B2"/>
</linearGradient>
</defs>
</svg>
