<svg width="500" height="560" viewBox="0 0 500 560" fill="none" xmlns="http://www.w3.org/2000/svg">
<rect x="0.25" y="0.25" width="499.5" height="559.5" rx="15.75" stroke="url(#paint0_linear_1257_828)" stroke-width="0.5"/>
<path d="M0 124C86.1365 124 156 193.864 156 280C156 366.136 86.1365 436 0 436" fill="url(#paint1_linear_1257_828)"/>
<path d="M0 124C86.1365 124 156 193.864 156 280C156 366.136 86.1365 436 0 436" stroke="url(#paint2_linear_1257_828)" stroke-miterlimit="10"/>
<path d="M0 180C55.2157 180 100 224.784 100 280C100 335.216 55.2157 380 0 380" fill="url(#paint3_linear_1257_828)"/>
<path d="M0 180C55.2157 180 100 224.784 100 280C100 335.216 55.2157 380 0 380" stroke="url(#paint4_linear_1257_828)" stroke-width="0.5" stroke-miterlimit="10"/>
<path d="M0 124C86.1365 124 156 193.864 156 280C156 366.136 86.1365 436 0 436" fill="url(#paint5_linear_1257_828)"/>
<path d="M0 124C86.1365 124 156 193.864 156 280C156 366.136 86.1365 436 0 436" stroke="url(#paint6_linear_1257_828)" stroke-miterlimit="10"/>
<path d="M0 180C55.2157 180 100 224.784 100 280C100 335.216 55.2157 380 0 380" fill="url(#paint7_linear_1257_828)"/>
<path d="M0 180C55.2157 180 100 224.784 100 280C100 335.216 55.2157 380 0 380" stroke="url(#paint8_linear_1257_828)" stroke-width="0.5" stroke-miterlimit="10"/>
<path d="M0 226C29.8165 226 54 250.184 54 280C54 309.816 29.8165 334 0 334" fill="url(#paint9_linear_1257_828)"/>
<path d="M0 226C29.8165 226 54 250.184 54 280C54 309.816 29.8165 334 0 334" stroke="url(#paint10_linear_1257_828)" stroke-width="0.5" stroke-miterlimit="10"/>
<rect x="130.5" y="91.5" width="239" height="47" rx="23.5" fill="url(#paint11_linear_1257_828)"/>
<rect x="130.5" y="91.5" width="239" height="47" rx="23.5" stroke="url(#paint12_linear_1257_828)"/>
<path d="M154.714 119.478C155.899 118.526 156.828 117.747 157.5 117.14C158.172 116.524 158.737 115.885 159.194 115.222C159.661 114.55 159.894 113.892 159.894 113.248C159.894 112.641 159.745 112.165 159.446 111.82C159.157 111.465 158.685 111.288 158.032 111.288C157.397 111.288 156.903 111.489 156.548 111.89C156.203 112.282 156.016 112.809 155.988 113.472H154.756C154.793 112.427 155.111 111.619 155.708 111.05C156.305 110.481 157.075 110.196 158.018 110.196C158.979 110.196 159.74 110.462 160.3 110.994C160.869 111.526 161.154 112.259 161.154 113.192C161.154 113.967 160.921 114.723 160.454 115.46C159.997 116.188 159.474 116.832 158.886 117.392C158.298 117.943 157.547 118.587 156.632 119.324H161.448V120.388H154.714V119.478ZM163.113 118.246V117.28L168.027 110.476H169.553V117.14H170.953V118.246H169.553V120.5H168.293V118.246H163.113ZM168.349 111.806L164.583 117.14H168.349V111.806ZM177.695 107.312L173.859 122.88H172.599L176.421 107.312H177.695ZM186.114 111.372L182.222 120.5H180.934L184.882 111.498H179.478V110.406H186.114V111.372ZM198.237 118.33H193.981L193.197 120.5H191.853L195.381 110.798H196.851L200.365 120.5H199.021L198.237 118.33ZM197.873 117.294L196.109 112.366L194.345 117.294H197.873ZM203.676 110.742V120.5H202.402V110.742H203.676ZM211.668 114.83V115.908H206.082V114.83H211.668ZM221.082 113.598C221.082 114.41 220.802 115.087 220.242 115.628C219.692 116.16 218.847 116.426 217.708 116.426H215.832V120.5H214.558V110.742H217.708C218.81 110.742 219.645 111.008 220.214 111.54C220.793 112.072 221.082 112.758 221.082 113.598ZM217.708 115.376C218.418 115.376 218.94 115.222 219.276 114.914C219.612 114.606 219.78 114.167 219.78 113.598C219.78 112.394 219.09 111.792 217.708 111.792H215.832V115.376H217.708ZM226.512 120.626C225.793 120.626 225.14 120.463 224.552 120.136C223.973 119.809 223.516 119.347 223.18 118.75C222.853 118.143 222.69 117.443 222.69 116.65C222.69 115.866 222.858 115.175 223.194 114.578C223.539 113.971 224.006 113.509 224.594 113.192C225.182 112.865 225.84 112.702 226.568 112.702C227.296 112.702 227.954 112.865 228.542 113.192C229.13 113.509 229.592 113.967 229.928 114.564C230.273 115.161 230.446 115.857 230.446 116.65C230.446 117.443 230.269 118.143 229.914 118.75C229.569 119.347 229.097 119.809 228.5 120.136C227.903 120.463 227.24 120.626 226.512 120.626ZM226.512 119.506C226.969 119.506 227.399 119.399 227.8 119.184C228.201 118.969 228.523 118.647 228.766 118.218C229.018 117.789 229.144 117.266 229.144 116.65C229.144 116.034 229.023 115.511 228.78 115.082C228.537 114.653 228.22 114.335 227.828 114.13C227.436 113.915 227.011 113.808 226.554 113.808C226.087 113.808 225.658 113.915 225.266 114.13C224.883 114.335 224.575 114.653 224.342 115.082C224.109 115.511 223.992 116.034 223.992 116.65C223.992 117.275 224.104 117.803 224.328 118.232C224.561 118.661 224.869 118.983 225.252 119.198C225.635 119.403 226.055 119.506 226.512 119.506ZM242.841 112.828L240.447 120.5H239.131L237.283 114.41L235.435 120.5H234.119L231.711 112.828H233.013L234.777 119.268L236.681 112.828H237.983L239.845 119.282L241.581 112.828H242.841ZM251.605 116.37C251.605 116.613 251.591 116.869 251.563 117.14H245.431C245.478 117.896 245.735 118.489 246.201 118.918C246.677 119.338 247.251 119.548 247.923 119.548C248.474 119.548 248.931 119.422 249.295 119.17C249.669 118.909 249.93 118.563 250.079 118.134H251.451C251.246 118.871 250.835 119.473 250.219 119.94C249.603 120.397 248.838 120.626 247.923 120.626C247.195 120.626 246.542 120.463 245.963 120.136C245.394 119.809 244.946 119.347 244.619 118.75C244.293 118.143 244.129 117.443 244.129 116.65C244.129 115.857 244.288 115.161 244.605 114.564C244.923 113.967 245.366 113.509 245.935 113.192C246.514 112.865 247.177 112.702 247.923 112.702C248.651 112.702 249.295 112.861 249.855 113.178C250.415 113.495 250.845 113.934 251.143 114.494C251.451 115.045 251.605 115.67 251.605 116.37ZM250.289 116.104C250.289 115.619 250.182 115.203 249.967 114.858C249.753 114.503 249.459 114.237 249.085 114.06C248.721 113.873 248.315 113.78 247.867 113.78C247.223 113.78 246.673 113.985 246.215 114.396C245.767 114.807 245.511 115.376 245.445 116.104H250.289ZM255.061 114.074C255.285 113.635 255.602 113.295 256.013 113.052C256.433 112.809 256.942 112.688 257.539 112.688V114.004H257.203C255.775 114.004 255.061 114.779 255.061 116.328V120.5H253.787V112.828H255.061V114.074ZM266.51 116.37C266.51 116.613 266.496 116.869 266.468 117.14H260.336C260.382 117.896 260.639 118.489 261.106 118.918C261.582 119.338 262.156 119.548 262.828 119.548C263.378 119.548 263.836 119.422 264.2 119.17C264.573 118.909 264.834 118.563 264.984 118.134H266.356C266.15 118.871 265.74 119.473 265.124 119.94C264.508 120.397 263.742 120.626 262.828 120.626C262.1 120.626 261.446 120.463 260.868 120.136C260.298 119.809 259.85 119.347 259.524 118.75C259.197 118.143 259.034 117.443 259.034 116.65C259.034 115.857 259.192 115.161 259.51 114.564C259.827 113.967 260.27 113.509 260.84 113.192C261.418 112.865 262.081 112.702 262.828 112.702C263.556 112.702 264.2 112.861 264.76 113.178C265.32 113.495 265.749 113.934 266.048 114.494C266.356 115.045 266.51 115.67 266.51 116.37ZM265.194 116.104C265.194 115.619 265.086 115.203 264.872 114.858C264.657 114.503 264.363 114.237 263.99 114.06C263.626 113.873 263.22 113.78 262.772 113.78C262.128 113.78 261.577 113.985 261.12 114.396C260.672 114.807 260.415 115.376 260.35 116.104H265.194ZM268.215 116.636C268.215 115.852 268.374 115.166 268.691 114.578C269.009 113.981 269.443 113.519 269.993 113.192C270.553 112.865 271.179 112.702 271.869 112.702C272.467 112.702 273.022 112.842 273.535 113.122C274.049 113.393 274.441 113.752 274.711 114.2V110.14H275.999V120.5H274.711V119.058C274.459 119.515 274.086 119.893 273.591 120.192C273.097 120.481 272.518 120.626 271.855 120.626C271.174 120.626 270.553 120.458 269.993 120.122C269.443 119.786 269.009 119.315 268.691 118.708C268.374 118.101 268.215 117.411 268.215 116.636ZM274.711 116.65C274.711 116.071 274.595 115.567 274.361 115.138C274.128 114.709 273.811 114.382 273.409 114.158C273.017 113.925 272.583 113.808 272.107 113.808C271.631 113.808 271.197 113.92 270.805 114.144C270.413 114.368 270.101 114.695 269.867 115.124C269.634 115.553 269.517 116.057 269.517 116.636C269.517 117.224 269.634 117.737 269.867 118.176C270.101 118.605 270.413 118.937 270.805 119.17C271.197 119.394 271.631 119.506 272.107 119.506C272.583 119.506 273.017 119.394 273.409 119.17C273.811 118.937 274.128 118.605 274.361 118.176C274.595 117.737 274.711 117.229 274.711 116.65ZM285.979 120.598C285.335 120.598 284.756 120.486 284.243 120.262C283.739 120.029 283.342 119.711 283.053 119.31C282.763 118.899 282.614 118.428 282.605 117.896H283.963C284.009 118.353 284.196 118.741 284.523 119.058C284.859 119.366 285.344 119.52 285.979 119.52C286.585 119.52 287.061 119.371 287.407 119.072C287.761 118.764 287.939 118.372 287.939 117.896C287.939 117.523 287.836 117.219 287.631 116.986C287.425 116.753 287.169 116.575 286.861 116.454C286.553 116.333 286.137 116.202 285.615 116.062C284.971 115.894 284.453 115.726 284.061 115.558C283.678 115.39 283.347 115.129 283.067 114.774C282.796 114.41 282.661 113.925 282.661 113.318C282.661 112.786 282.796 112.315 283.067 111.904C283.337 111.493 283.715 111.176 284.201 110.952C284.695 110.728 285.26 110.616 285.895 110.616C286.809 110.616 287.556 110.845 288.135 111.302C288.723 111.759 289.054 112.366 289.129 113.122H287.729C287.682 112.749 287.486 112.422 287.141 112.142C286.795 111.853 286.338 111.708 285.769 111.708C285.237 111.708 284.803 111.848 284.467 112.128C284.131 112.399 283.963 112.781 283.963 113.276C283.963 113.631 284.061 113.92 284.257 114.144C284.462 114.368 284.709 114.541 284.999 114.662C285.297 114.774 285.713 114.905 286.245 115.054C286.889 115.231 287.407 115.409 287.799 115.586C288.191 115.754 288.527 116.02 288.807 116.384C289.087 116.739 289.227 117.224 289.227 117.84C289.227 118.316 289.101 118.764 288.849 119.184C288.597 119.604 288.223 119.945 287.729 120.206C287.234 120.467 286.651 120.598 285.979 120.598ZM298.405 112.828V120.5H297.131V119.366C296.889 119.758 296.548 120.066 296.109 120.29C295.68 120.505 295.204 120.612 294.681 120.612C294.084 120.612 293.547 120.491 293.071 120.248C292.595 119.996 292.217 119.623 291.937 119.128C291.667 118.633 291.531 118.031 291.531 117.322V112.828H292.791V117.154C292.791 117.91 292.983 118.493 293.365 118.904C293.748 119.305 294.271 119.506 294.933 119.506C295.615 119.506 296.151 119.296 296.543 118.876C296.935 118.456 297.131 117.845 297.131 117.042V112.828H298.405ZM302.331 114.242C302.583 113.803 302.956 113.439 303.451 113.15C303.955 112.851 304.538 112.702 305.201 112.702C305.882 112.702 306.498 112.865 307.049 113.192C307.609 113.519 308.047 113.981 308.365 114.578C308.682 115.166 308.841 115.852 308.841 116.636C308.841 117.411 308.682 118.101 308.365 118.708C308.047 119.315 307.609 119.786 307.049 120.122C306.498 120.458 305.882 120.626 305.201 120.626C304.547 120.626 303.969 120.481 303.465 120.192C302.97 119.893 302.592 119.525 302.331 119.086V124.14H301.057V112.828H302.331V114.242ZM307.539 116.636C307.539 116.057 307.422 115.553 307.189 115.124C306.955 114.695 306.638 114.368 306.237 114.144C305.845 113.92 305.411 113.808 304.935 113.808C304.468 113.808 304.034 113.925 303.633 114.158C303.241 114.382 302.923 114.713 302.681 115.152C302.447 115.581 302.331 116.081 302.331 116.65C302.331 117.229 302.447 117.737 302.681 118.176C302.923 118.605 303.241 118.937 303.633 119.17C304.034 119.394 304.468 119.506 304.935 119.506C305.411 119.506 305.845 119.394 306.237 119.17C306.638 118.937 306.955 118.605 307.189 118.176C307.422 117.737 307.539 117.224 307.539 116.636ZM312.291 114.242C312.543 113.803 312.917 113.439 313.411 113.15C313.915 112.851 314.499 112.702 315.161 112.702C315.843 112.702 316.459 112.865 317.009 113.192C317.569 113.519 318.008 113.981 318.325 114.578C318.643 115.166 318.801 115.852 318.801 116.636C318.801 117.411 318.643 118.101 318.325 118.708C318.008 119.315 317.569 119.786 317.009 120.122C316.459 120.458 315.843 120.626 315.161 120.626C314.508 120.626 313.929 120.481 313.425 120.192C312.931 119.893 312.553 119.525 312.291 119.086V124.14H311.017V112.828H312.291V114.242ZM317.499 116.636C317.499 116.057 317.383 115.553 317.149 115.124C316.916 114.695 316.599 114.368 316.197 114.144C315.805 113.92 315.371 113.808 314.895 113.808C314.429 113.808 313.995 113.925 313.593 114.158C313.201 114.382 312.884 114.713 312.641 115.152C312.408 115.581 312.291 116.081 312.291 116.65C312.291 117.229 312.408 117.737 312.641 118.176C312.884 118.605 313.201 118.937 313.593 119.17C313.995 119.394 314.429 119.506 314.895 119.506C315.371 119.506 315.805 119.394 316.197 119.17C316.599 118.937 316.916 118.605 317.149 118.176C317.383 117.737 317.499 117.224 317.499 116.636ZM324.324 120.626C323.606 120.626 322.952 120.463 322.364 120.136C321.786 119.809 321.328 119.347 320.992 118.75C320.666 118.143 320.502 117.443 320.502 116.65C320.502 115.866 320.67 115.175 321.006 114.578C321.352 113.971 321.818 113.509 322.406 113.192C322.994 112.865 323.652 112.702 324.38 112.702C325.108 112.702 325.766 112.865 326.354 113.192C326.942 113.509 327.404 113.967 327.74 114.564C328.086 115.161 328.258 115.857 328.258 116.65C328.258 117.443 328.081 118.143 327.726 118.75C327.381 119.347 326.91 119.809 326.312 120.136C325.715 120.463 325.052 120.626 324.324 120.626ZM324.324 119.506C324.782 119.506 325.211 119.399 325.612 119.184C326.014 118.969 326.336 118.647 326.578 118.218C326.83 117.789 326.956 117.266 326.956 116.65C326.956 116.034 326.835 115.511 326.592 115.082C326.35 114.653 326.032 114.335 325.64 114.13C325.248 113.915 324.824 113.808 324.366 113.808C323.9 113.808 323.47 113.915 323.078 114.13C322.696 114.335 322.388 114.653 322.154 115.082C321.921 115.511 321.804 116.034 321.804 116.65C321.804 117.275 321.916 117.803 322.14 118.232C322.374 118.661 322.682 118.983 323.064 119.198C323.447 119.403 323.867 119.506 324.324 119.506ZM331.707 114.074C331.931 113.635 332.249 113.295 332.659 113.052C333.079 112.809 333.588 112.688 334.185 112.688V114.004H333.849C332.421 114.004 331.707 114.779 331.707 116.328V120.5H330.433V112.828H331.707V114.074ZM337.71 113.878V118.4C337.71 118.773 337.789 119.039 337.948 119.198C338.107 119.347 338.382 119.422 338.774 119.422H339.712V120.5H338.564C337.855 120.5 337.323 120.337 336.968 120.01C336.613 119.683 336.436 119.147 336.436 118.4V113.878H335.442V112.828H336.436V110.896H337.71V112.828H339.712V113.878H337.71Z" fill="white"/>
<path d="M93.5 153.5L124 119" stroke="url(#paint13_linear_1257_828)" stroke-miterlimit="10"/>
<path d="M93 148.5C89.9332 148.5 87.5 150.933 87.5 154C87.5 157.067 89.9332 159.5 93 159.5C96.0669 159.5 98.5 157.067 98.5 154C98.5 150.933 96.0669 148.5 93 148.5Z" fill="url(#paint14_linear_1257_828)" stroke="url(#paint15_linear_1257_828)"/>
<path d="M142.5 118C142.5 127.665 134.665 135.5 125 135.5C115.335 135.5 107.5 127.665 107.5 118C107.5 108.335 115.335 100.5 125 100.5C134.665 100.5 142.5 108.335 142.5 118Z" fill="url(#paint16_linear_1257_828)" stroke="url(#paint17_linear_1257_828)"/>
<rect x="191.5" y="175.5" width="239" height="47" rx="23.5" fill="url(#paint18_linear_1257_828)"/>
<rect x="191.5" y="175.5" width="239" height="47" rx="23.5" stroke="url(#paint19_linear_1257_828)"/>
<path d="M217.352 195.278V198.54H220.908V199.59H217.352V202.95H221.328V204H216.078V194.228H221.328V195.278H217.352ZM227.494 196.188C228.427 196.188 229.183 196.473 229.762 197.042C230.34 197.602 230.63 198.414 230.63 199.478V204H229.37V199.66C229.37 198.895 229.178 198.311 228.796 197.91C228.413 197.499 227.89 197.294 227.228 197.294C226.556 197.294 226.019 197.504 225.618 197.924C225.226 198.344 225.03 198.955 225.03 199.758V204H223.756V196.328H225.03V197.42C225.282 197.028 225.622 196.725 226.052 196.51C226.49 196.295 226.971 196.188 227.494 196.188ZM232.735 200.136C232.735 199.352 232.893 198.666 233.211 198.078C233.528 197.481 233.962 197.019 234.513 196.692C235.073 196.365 235.698 196.202 236.389 196.202C236.986 196.202 237.541 196.342 238.055 196.622C238.568 196.893 238.96 197.252 239.231 197.7V193.64H240.519V204H239.231V202.558C238.979 203.015 238.605 203.393 238.111 203.692C237.616 203.981 237.037 204.126 236.375 204.126C235.693 204.126 235.073 203.958 234.513 203.622C233.962 203.286 233.528 202.815 233.211 202.208C232.893 201.601 232.735 200.911 232.735 200.136ZM239.231 200.15C239.231 199.571 239.114 199.067 238.881 198.638C238.647 198.209 238.33 197.882 237.929 197.658C237.537 197.425 237.103 197.308 236.627 197.308C236.151 197.308 235.717 197.42 235.325 197.644C234.933 197.868 234.62 198.195 234.387 198.624C234.153 199.053 234.037 199.557 234.037 200.136C234.037 200.724 234.153 201.237 234.387 201.676C234.62 202.105 234.933 202.437 235.325 202.67C235.717 202.894 236.151 203.006 236.627 203.006C237.103 203.006 237.537 202.894 237.929 202.67C238.33 202.437 238.647 202.105 238.881 201.676C239.114 201.237 239.231 200.729 239.231 200.15ZM248.492 198.33V199.408H242.906V198.33H248.492ZM252.937 197.378V201.9C252.937 202.273 253.016 202.539 253.175 202.698C253.333 202.847 253.609 202.922 254.001 202.922H254.939V204H253.791C253.081 204 252.549 203.837 252.195 203.51C251.84 203.183 251.663 202.647 251.663 201.9V197.378H250.669V196.328H251.663V194.396H252.937V196.328H254.939V197.378H252.937ZM260.328 204.126C259.61 204.126 258.956 203.963 258.368 203.636C257.79 203.309 257.332 202.847 256.996 202.25C256.67 201.643 256.506 200.943 256.506 200.15C256.506 199.366 256.674 198.675 257.01 198.078C257.356 197.471 257.822 197.009 258.41 196.692C258.998 196.365 259.656 196.202 260.384 196.202C261.112 196.202 261.77 196.365 262.358 196.692C262.946 197.009 263.408 197.467 263.744 198.064C264.09 198.661 264.262 199.357 264.262 200.15C264.262 200.943 264.085 201.643 263.73 202.25C263.385 202.847 262.914 203.309 262.316 203.636C261.719 203.963 261.056 204.126 260.328 204.126ZM260.328 203.006C260.786 203.006 261.215 202.899 261.616 202.684C262.018 202.469 262.34 202.147 262.582 201.718C262.834 201.289 262.96 200.766 262.96 200.15C262.96 199.534 262.839 199.011 262.596 198.582C262.354 198.153 262.036 197.835 261.644 197.63C261.252 197.415 260.828 197.308 260.37 197.308C259.904 197.308 259.474 197.415 259.082 197.63C258.7 197.835 258.392 198.153 258.158 198.582C257.925 199.011 257.808 199.534 257.808 200.15C257.808 200.775 257.92 201.303 258.144 201.732C258.378 202.161 258.686 202.483 259.068 202.698C259.451 202.903 259.871 203.006 260.328 203.006ZM271.757 198.33V199.408H266.171V198.33H271.757ZM275.922 195.278V198.54H279.478V199.59H275.922V202.95H279.898V204H274.648V194.228H279.898V195.278H275.922ZM286.064 196.188C286.997 196.188 287.753 196.473 288.332 197.042C288.911 197.602 289.2 198.414 289.2 199.478V204H287.94V199.66C287.94 198.895 287.749 198.311 287.366 197.91C286.983 197.499 286.461 197.294 285.798 197.294C285.126 197.294 284.589 197.504 284.188 197.924C283.796 198.344 283.6 198.955 283.6 199.758V204H282.326V196.328H283.6V197.42C283.852 197.028 284.193 196.725 284.622 196.51C285.061 196.295 285.541 196.188 286.064 196.188ZM291.305 200.136C291.305 199.352 291.464 198.666 291.781 198.078C292.098 197.481 292.532 197.019 293.083 196.692C293.643 196.365 294.268 196.202 294.959 196.202C295.556 196.202 296.112 196.342 296.625 196.622C297.138 196.893 297.53 197.252 297.801 197.7V193.64H299.089V204H297.801V202.558C297.549 203.015 297.176 203.393 296.681 203.692C296.186 203.981 295.608 204.126 294.945 204.126C294.264 204.126 293.643 203.958 293.083 203.622C292.532 203.286 292.098 202.815 291.781 202.208C291.464 201.601 291.305 200.911 291.305 200.136ZM297.801 200.15C297.801 199.571 297.684 199.067 297.451 198.638C297.218 198.209 296.9 197.882 296.499 197.658C296.107 197.425 295.673 197.308 295.197 197.308C294.721 197.308 294.287 197.42 293.895 197.644C293.503 197.868 293.19 198.195 292.957 198.624C292.724 199.053 292.607 199.557 292.607 200.136C292.607 200.724 292.724 201.237 292.957 201.676C293.19 202.105 293.503 202.437 293.895 202.67C294.287 202.894 294.721 203.006 295.197 203.006C295.673 203.006 296.107 202.894 296.499 202.67C296.9 202.437 297.218 202.105 297.451 201.676C297.684 201.237 297.801 200.729 297.801 200.15ZM309.012 194.242C310.076 194.242 310.996 194.443 311.77 194.844C312.554 195.236 313.152 195.801 313.562 196.538C313.982 197.275 314.192 198.143 314.192 199.142C314.192 200.141 313.982 201.009 313.562 201.746C313.152 202.474 312.554 203.034 311.77 203.426C310.996 203.809 310.076 204 309.012 204H305.974V194.242H309.012ZM309.012 202.95C310.272 202.95 311.234 202.619 311.896 201.956C312.559 201.284 312.89 200.346 312.89 199.142C312.89 197.929 312.554 196.981 311.882 196.3C311.22 195.619 310.263 195.278 309.012 195.278H307.248V202.95H309.012ZM317.031 195.082C316.788 195.082 316.583 194.998 316.415 194.83C316.247 194.662 316.163 194.457 316.163 194.214C316.163 193.971 316.247 193.766 316.415 193.598C316.583 193.43 316.788 193.346 317.031 193.346C317.264 193.346 317.46 193.43 317.619 193.598C317.787 193.766 317.871 193.971 317.871 194.214C317.871 194.457 317.787 194.662 317.619 194.83C317.46 194.998 317.264 195.082 317.031 195.082ZM317.647 196.328V204H316.373V196.328H317.647ZM323.482 196.202C324.145 196.202 324.724 196.347 325.218 196.636C325.722 196.925 326.096 197.289 326.338 197.728V196.328H327.626V204.168C327.626 204.868 327.477 205.489 327.178 206.03C326.88 206.581 326.45 207.01 325.89 207.318C325.34 207.626 324.696 207.78 323.958 207.78C322.95 207.78 322.11 207.542 321.438 207.066C320.766 206.59 320.37 205.941 320.248 205.12H321.508C321.648 205.587 321.938 205.96 322.376 206.24C322.815 206.529 323.342 206.674 323.958 206.674C324.658 206.674 325.228 206.455 325.666 206.016C326.114 205.577 326.338 204.961 326.338 204.168V202.558C326.086 203.006 325.713 203.379 325.218 203.678C324.724 203.977 324.145 204.126 323.482 204.126C322.801 204.126 322.18 203.958 321.62 203.622C321.07 203.286 320.636 202.815 320.318 202.208C320.001 201.601 319.842 200.911 319.842 200.136C319.842 199.352 320.001 198.666 320.318 198.078C320.636 197.481 321.07 197.019 321.62 196.692C322.18 196.365 322.801 196.202 323.482 196.202ZM326.338 200.15C326.338 199.571 326.222 199.067 325.988 198.638C325.755 198.209 325.438 197.882 325.036 197.658C324.644 197.425 324.21 197.308 323.734 197.308C323.258 197.308 322.824 197.42 322.432 197.644C322.04 197.868 321.728 198.195 321.494 198.624C321.261 199.053 321.144 199.557 321.144 200.136C321.144 200.724 321.261 201.237 321.494 201.676C321.728 202.105 322.04 202.437 322.432 202.67C322.824 202.894 323.258 203.006 323.734 203.006C324.21 203.006 324.644 202.894 325.036 202.67C325.438 202.437 325.755 202.105 325.988 201.676C326.222 201.237 326.338 200.729 326.338 200.15ZM330.937 195.082C330.695 195.082 330.489 194.998 330.321 194.83C330.153 194.662 330.069 194.457 330.069 194.214C330.069 193.971 330.153 193.766 330.321 193.598C330.489 193.43 330.695 193.346 330.937 193.346C331.171 193.346 331.367 193.43 331.525 193.598C331.693 193.766 331.777 193.971 331.777 194.214C331.777 194.457 331.693 194.662 331.525 194.83C331.367 194.998 331.171 195.082 330.937 195.082ZM331.553 196.328V204H330.279V196.328H331.553ZM335.778 197.378V201.9C335.778 202.273 335.858 202.539 336.016 202.698C336.175 202.847 336.45 202.922 336.842 202.922H337.78V204H336.632C335.923 204 335.391 203.837 335.036 203.51C334.682 203.183 334.504 202.647 334.504 201.9V197.378H333.51V196.328H334.504V194.396H335.778V196.328H337.78V197.378H335.778ZM339.348 200.136C339.348 199.352 339.507 198.666 339.824 198.078C340.141 197.481 340.575 197.019 341.126 196.692C341.686 196.365 342.307 196.202 342.988 196.202C343.66 196.202 344.243 196.347 344.738 196.636C345.233 196.925 345.601 197.289 345.844 197.728V196.328H347.132V204H345.844V202.572C345.592 203.02 345.214 203.393 344.71 203.692C344.215 203.981 343.637 204.126 342.974 204.126C342.293 204.126 341.677 203.958 341.126 203.622C340.575 203.286 340.141 202.815 339.824 202.208C339.507 201.601 339.348 200.911 339.348 200.136ZM345.844 200.15C345.844 199.571 345.727 199.067 345.494 198.638C345.261 198.209 344.943 197.882 344.542 197.658C344.15 197.425 343.716 197.308 343.24 197.308C342.764 197.308 342.33 197.42 341.938 197.644C341.546 197.868 341.233 198.195 341 198.624C340.767 199.053 340.65 199.557 340.65 200.136C340.65 200.724 340.767 201.237 341 201.676C341.233 202.105 341.546 202.437 341.938 202.67C342.33 202.894 342.764 203.006 343.24 203.006C343.716 203.006 344.15 202.894 344.542 202.67C344.943 202.437 345.261 202.105 345.494 201.676C345.727 201.237 345.844 200.729 345.844 200.15ZM351.059 193.64V204H349.785V193.64H351.059ZM362.849 198.974C363.203 199.03 363.525 199.175 363.815 199.408C364.113 199.641 364.347 199.931 364.515 200.276C364.692 200.621 364.781 200.99 364.781 201.382C364.781 201.877 364.655 202.325 364.403 202.726C364.151 203.118 363.782 203.431 363.297 203.664C362.821 203.888 362.256 204 361.603 204H357.963V194.242H361.463C362.125 194.242 362.69 194.354 363.157 194.578C363.623 194.793 363.973 195.087 364.207 195.46C364.44 195.833 364.557 196.253 364.557 196.72C364.557 197.299 364.398 197.779 364.081 198.162C363.773 198.535 363.362 198.806 362.849 198.974ZM359.237 198.456H361.379C361.976 198.456 362.438 198.316 362.765 198.036C363.091 197.756 363.255 197.369 363.255 196.874C363.255 196.379 363.091 195.992 362.765 195.712C362.438 195.432 361.967 195.292 361.351 195.292H359.237V198.456ZM361.491 202.95C362.125 202.95 362.62 202.801 362.975 202.502C363.329 202.203 363.507 201.788 363.507 201.256C363.507 200.715 363.32 200.29 362.947 199.982C362.573 199.665 362.074 199.506 361.449 199.506H359.237V202.95H361.491ZM366.573 200.136C366.573 199.352 366.731 198.666 367.049 198.078C367.366 197.481 367.8 197.019 368.351 196.692C368.911 196.365 369.531 196.202 370.213 196.202C370.885 196.202 371.468 196.347 371.963 196.636C372.457 196.925 372.826 197.289 373.069 197.728V196.328H374.357V204H373.069V202.572C372.817 203.02 372.439 203.393 371.935 203.692C371.44 203.981 370.861 204.126 370.199 204.126C369.517 204.126 368.901 203.958 368.351 203.622C367.8 203.286 367.366 202.815 367.049 202.208C366.731 201.601 366.573 200.911 366.573 200.136ZM373.069 200.15C373.069 199.571 372.952 199.067 372.719 198.638C372.485 198.209 372.168 197.882 371.767 197.658C371.375 197.425 370.941 197.308 370.465 197.308C369.989 197.308 369.555 197.42 369.163 197.644C368.771 197.868 368.458 198.195 368.225 198.624C367.991 199.053 367.875 199.557 367.875 200.136C367.875 200.724 367.991 201.237 368.225 201.676C368.458 202.105 368.771 202.437 369.163 202.67C369.555 202.894 369.989 203.006 370.465 203.006C370.941 203.006 371.375 202.894 371.767 202.67C372.168 202.437 372.485 202.105 372.719 201.676C372.952 201.237 373.069 200.729 373.069 200.15ZM380.748 196.188C381.681 196.188 382.437 196.473 383.016 197.042C383.594 197.602 383.884 198.414 383.884 199.478V204H382.624V199.66C382.624 198.895 382.432 198.311 382.05 197.91C381.667 197.499 381.144 197.294 380.482 197.294C379.81 197.294 379.273 197.504 378.872 197.924C378.48 198.344 378.284 198.955 378.284 199.758V204H377.01V196.328H378.284V197.42C378.536 197.028 378.876 196.725 379.306 196.51C379.744 196.295 380.225 196.188 380.748 196.188ZM390.749 204L387.739 200.612V204H386.465V193.64H387.739V199.73L390.693 196.328H392.471L388.859 200.15L392.485 204H390.749ZM394.828 195.082C394.585 195.082 394.38 194.998 394.212 194.83C394.044 194.662 393.96 194.457 393.96 194.214C393.96 193.971 394.044 193.766 394.212 193.598C394.38 193.43 394.585 193.346 394.828 193.346C395.061 193.346 395.257 193.43 395.416 193.598C395.584 193.766 395.668 193.971 395.668 194.214C395.668 194.457 395.584 194.662 395.416 194.83C395.257 194.998 395.061 195.082 394.828 195.082ZM395.444 196.328V204H394.17V196.328H395.444ZM401.853 196.188C402.786 196.188 403.542 196.473 404.121 197.042C404.7 197.602 404.989 198.414 404.989 199.478V204H403.729V199.66C403.729 198.895 403.538 198.311 403.155 197.91C402.772 197.499 402.25 197.294 401.587 197.294C400.915 197.294 400.378 197.504 399.977 197.924C399.585 198.344 399.389 198.955 399.389 199.758V204H398.115V196.328H399.389V197.42C399.641 197.028 399.982 196.725 400.411 196.51C400.85 196.295 401.33 196.188 401.853 196.188ZM410.734 196.202C411.397 196.202 411.976 196.347 412.47 196.636C412.974 196.925 413.348 197.289 413.59 197.728V196.328H414.878V204.168C414.878 204.868 414.729 205.489 414.43 206.03C414.132 206.581 413.702 207.01 413.142 207.318C412.592 207.626 411.948 207.78 411.21 207.78C410.202 207.78 409.362 207.542 408.69 207.066C408.018 206.59 407.622 205.941 407.5 205.12H408.76C408.9 205.587 409.19 205.96 409.628 206.24C410.067 206.529 410.594 206.674 411.21 206.674C411.91 206.674 412.48 206.455 412.918 206.016C413.366 205.577 413.59 204.961 413.59 204.168V202.558C413.338 203.006 412.965 203.379 412.47 203.678C411.976 203.977 411.397 204.126 410.734 204.126C410.053 204.126 409.432 203.958 408.872 203.622C408.322 203.286 407.888 202.815 407.57 202.208C407.253 201.601 407.094 200.911 407.094 200.136C407.094 199.352 407.253 198.666 407.57 198.078C407.888 197.481 408.322 197.019 408.872 196.692C409.432 196.365 410.053 196.202 410.734 196.202ZM413.59 200.15C413.59 199.571 413.474 199.067 413.24 198.638C413.007 198.209 412.69 197.882 412.288 197.658C411.896 197.425 411.462 197.308 410.986 197.308C410.51 197.308 410.076 197.42 409.684 197.644C409.292 197.868 408.98 198.195 408.746 198.624C408.513 199.053 408.396 199.557 408.396 200.136C408.396 200.724 408.513 201.237 408.746 201.676C408.98 202.105 409.292 202.437 409.684 202.67C410.076 202.894 410.51 203.006 410.986 203.006C411.462 203.006 411.896 202.894 412.288 202.67C412.69 202.437 413.007 202.105 413.24 201.676C413.474 201.237 413.59 200.729 413.59 200.15Z" fill="white"/>
<path d="M140.5 211.5L184.5 199.5" stroke="url(#paint20_linear_1257_828)" stroke-miterlimit="10"/>
<path d="M141 205.5C137.933 205.5 135.5 207.933 135.5 211C135.5 214.067 137.933 216.5 141 216.5C144.067 216.5 146.5 214.067 146.5 211C146.5 207.933 144.067 205.5 141 205.5Z" fill="url(#paint21_linear_1257_828)" stroke="url(#paint22_linear_1257_828)"/>
<path d="M203.5 199C203.5 208.665 195.665 216.5 186 216.5C176.335 216.5 168.5 208.665 168.5 199C168.5 189.335 176.335 181.5 186 181.5C195.665 181.5 203.5 189.335 203.5 199Z" fill="url(#paint23_linear_1257_828)" stroke="url(#paint24_linear_1257_828)"/>
<rect x="207.5" y="256.5" width="239" height="47" rx="23.5" fill="url(#paint25_linear_1257_828)"/>
<rect x="207.5" y="256.5" width="239" height="47" rx="23.5" stroke="url(#paint26_linear_1257_828)"/>
<path d="M235.172 285.098C234.528 285.098 233.949 284.986 233.436 284.762C232.932 284.529 232.535 284.211 232.246 283.81C231.957 283.399 231.807 282.928 231.798 282.396H233.156C233.203 282.853 233.389 283.241 233.716 283.558C234.052 283.866 234.537 284.02 235.172 284.02C235.779 284.02 236.255 283.871 236.6 283.572C236.955 283.264 237.132 282.872 237.132 282.396C237.132 282.023 237.029 281.719 236.824 281.486C236.619 281.253 236.362 281.075 236.054 280.954C235.746 280.833 235.331 280.702 234.808 280.562C234.164 280.394 233.646 280.226 233.254 280.058C232.871 279.89 232.54 279.629 232.26 279.274C231.989 278.91 231.854 278.425 231.854 277.818C231.854 277.286 231.989 276.815 232.26 276.404C232.531 275.993 232.909 275.676 233.394 275.452C233.889 275.228 234.453 275.116 235.088 275.116C236.003 275.116 236.749 275.345 237.328 275.802C237.916 276.259 238.247 276.866 238.322 277.622H236.922C236.875 277.249 236.679 276.922 236.334 276.642C235.989 276.353 235.531 276.208 234.962 276.208C234.43 276.208 233.996 276.348 233.66 276.628C233.324 276.899 233.156 277.281 233.156 277.776C233.156 278.131 233.254 278.42 233.45 278.644C233.655 278.868 233.903 279.041 234.192 279.162C234.491 279.274 234.906 279.405 235.438 279.554C236.082 279.731 236.6 279.909 236.992 280.086C237.384 280.254 237.72 280.52 238 280.884C238.28 281.239 238.42 281.724 238.42 282.34C238.42 282.816 238.294 283.264 238.042 283.684C237.79 284.104 237.417 284.445 236.922 284.706C236.427 284.967 235.844 285.098 235.172 285.098ZM247.795 280.87C247.795 281.113 247.781 281.369 247.753 281.64H241.621C241.667 282.396 241.924 282.989 242.391 283.418C242.867 283.838 243.441 284.048 244.113 284.048C244.663 284.048 245.121 283.922 245.485 283.67C245.858 283.409 246.119 283.063 246.269 282.634H247.641C247.435 283.371 247.025 283.973 246.409 284.44C245.793 284.897 245.027 285.126 244.113 285.126C243.385 285.126 242.731 284.963 242.153 284.636C241.583 284.309 241.135 283.847 240.809 283.25C240.482 282.643 240.319 281.943 240.319 281.15C240.319 280.357 240.477 279.661 240.795 279.064C241.112 278.467 241.555 278.009 242.125 277.692C242.703 277.365 243.366 277.202 244.113 277.202C244.841 277.202 245.485 277.361 246.045 277.678C246.605 277.995 247.034 278.434 247.333 278.994C247.641 279.545 247.795 280.17 247.795 280.87ZM246.479 280.604C246.479 280.119 246.371 279.703 246.157 279.358C245.942 279.003 245.648 278.737 245.275 278.56C244.911 278.373 244.505 278.28 244.057 278.28C243.413 278.28 242.862 278.485 242.405 278.896C241.957 279.307 241.7 279.876 241.635 280.604H246.479ZM249.5 281.136C249.5 280.352 249.659 279.666 249.976 279.078C250.294 278.481 250.728 278.019 251.278 277.692C251.838 277.365 252.459 277.202 253.14 277.202C253.812 277.202 254.396 277.347 254.89 277.636C255.385 277.925 255.754 278.289 255.996 278.728V277.328H257.284V285H255.996V283.572C255.744 284.02 255.366 284.393 254.862 284.692C254.368 284.981 253.789 285.126 253.126 285.126C252.445 285.126 251.829 284.958 251.278 284.622C250.728 284.286 250.294 283.815 249.976 283.208C249.659 282.601 249.5 281.911 249.5 281.136ZM255.996 281.15C255.996 280.571 255.88 280.067 255.646 279.638C255.413 279.209 255.096 278.882 254.694 278.658C254.302 278.425 253.868 278.308 253.392 278.308C252.916 278.308 252.482 278.42 252.09 278.644C251.698 278.868 251.386 279.195 251.152 279.624C250.919 280.053 250.802 280.557 250.802 281.136C250.802 281.724 250.919 282.237 251.152 282.676C251.386 283.105 251.698 283.437 252.09 283.67C252.482 283.894 252.916 284.006 253.392 284.006C253.868 284.006 254.302 283.894 254.694 283.67C255.096 283.437 255.413 283.105 255.646 282.676C255.88 282.237 255.996 281.729 255.996 281.15ZM269.163 277.188C269.761 277.188 270.293 277.314 270.759 277.566C271.226 277.809 271.595 278.177 271.865 278.672C272.136 279.167 272.271 279.769 272.271 280.478V285H271.011V280.66C271.011 279.895 270.82 279.311 270.437 278.91C270.064 278.499 269.555 278.294 268.911 278.294C268.249 278.294 267.721 278.509 267.329 278.938C266.937 279.358 266.741 279.969 266.741 280.772V285H265.481V280.66C265.481 279.895 265.29 279.311 264.907 278.91C264.534 278.499 264.025 278.294 263.381 278.294C262.719 278.294 262.191 278.509 261.799 278.938C261.407 279.358 261.211 279.969 261.211 280.772V285H259.937V277.328H261.211V278.434C261.463 278.033 261.799 277.725 262.219 277.51C262.649 277.295 263.12 277.188 263.633 277.188C264.277 277.188 264.847 277.333 265.341 277.622C265.836 277.911 266.205 278.336 266.447 278.896C266.662 278.355 267.017 277.935 267.511 277.636C268.006 277.337 268.557 277.188 269.163 277.188ZM276.135 274.64V285H274.861V274.64H276.135ZM285.807 280.87C285.807 281.113 285.793 281.369 285.765 281.64H279.633C279.679 282.396 279.936 282.989 280.403 283.418C280.879 283.838 281.453 284.048 282.125 284.048C282.675 284.048 283.133 283.922 283.497 283.67C283.87 283.409 284.131 283.063 284.281 282.634H285.653C285.447 283.371 285.037 283.973 284.421 284.44C283.805 284.897 283.039 285.126 282.125 285.126C281.397 285.126 280.743 284.963 280.165 284.636C279.595 284.309 279.147 283.847 278.821 283.25C278.494 282.643 278.331 281.943 278.331 281.15C278.331 280.357 278.489 279.661 278.807 279.064C279.124 278.467 279.567 278.009 280.137 277.692C280.715 277.365 281.378 277.202 282.125 277.202C282.853 277.202 283.497 277.361 284.057 277.678C284.617 277.995 285.046 278.434 285.345 278.994C285.653 279.545 285.807 280.17 285.807 280.87ZM284.491 280.604C284.491 280.119 284.383 279.703 284.169 279.358C283.954 279.003 283.66 278.737 283.287 278.56C282.923 278.373 282.517 278.28 282.069 278.28C281.425 278.28 280.874 278.485 280.417 278.896C279.969 279.307 279.712 279.876 279.647 280.604H284.491ZM290.704 285.126C290.116 285.126 289.589 285.028 289.122 284.832C288.655 284.627 288.287 284.347 288.016 283.992C287.745 283.628 287.596 283.213 287.568 282.746H288.884C288.921 283.129 289.099 283.441 289.416 283.684C289.743 283.927 290.167 284.048 290.69 284.048C291.175 284.048 291.558 283.941 291.838 283.726C292.118 283.511 292.258 283.241 292.258 282.914C292.258 282.578 292.109 282.331 291.81 282.172C291.511 282.004 291.049 281.841 290.424 281.682C289.855 281.533 289.388 281.383 289.024 281.234C288.669 281.075 288.361 280.847 288.1 280.548C287.848 280.24 287.722 279.839 287.722 279.344C287.722 278.952 287.839 278.593 288.072 278.266C288.305 277.939 288.637 277.683 289.066 277.496C289.495 277.3 289.985 277.202 290.536 277.202C291.385 277.202 292.071 277.417 292.594 277.846C293.117 278.275 293.397 278.863 293.434 279.61H292.16C292.132 279.209 291.969 278.887 291.67 278.644C291.381 278.401 290.989 278.28 290.494 278.28C290.037 278.28 289.673 278.378 289.402 278.574C289.131 278.77 288.996 279.027 288.996 279.344C288.996 279.596 289.075 279.806 289.234 279.974C289.402 280.133 289.607 280.263 289.85 280.366C290.102 280.459 290.447 280.567 290.886 280.688C291.437 280.837 291.885 280.987 292.23 281.136C292.575 281.276 292.869 281.491 293.112 281.78C293.364 282.069 293.495 282.447 293.504 282.914C293.504 283.334 293.387 283.712 293.154 284.048C292.921 284.384 292.589 284.65 292.16 284.846C291.74 285.033 291.255 285.126 290.704 285.126ZM298.519 285.126C297.931 285.126 297.403 285.028 296.937 284.832C296.47 284.627 296.101 284.347 295.831 283.992C295.56 283.628 295.411 283.213 295.383 282.746H296.699C296.736 283.129 296.913 283.441 297.231 283.684C297.557 283.927 297.982 284.048 298.505 284.048C298.99 284.048 299.373 283.941 299.653 283.726C299.933 283.511 300.073 283.241 300.073 282.914C300.073 282.578 299.923 282.331 299.625 282.172C299.326 282.004 298.864 281.841 298.239 281.682C297.669 281.533 297.203 281.383 296.839 281.234C296.484 281.075 296.176 280.847 295.915 280.548C295.663 280.24 295.537 279.839 295.537 279.344C295.537 278.952 295.653 278.593 295.887 278.266C296.12 277.939 296.451 277.683 296.881 277.496C297.31 277.3 297.8 277.202 298.351 277.202C299.2 277.202 299.886 277.417 300.409 277.846C300.931 278.275 301.211 278.863 301.249 279.61H299.975C299.947 279.209 299.783 278.887 299.485 278.644C299.195 278.401 298.803 278.28 298.309 278.28C297.851 278.28 297.487 278.378 297.217 278.574C296.946 278.77 296.811 279.027 296.811 279.344C296.811 279.596 296.89 279.806 297.049 279.974C297.217 280.133 297.422 280.263 297.665 280.366C297.917 280.459 298.262 280.567 298.701 280.688C299.251 280.837 299.699 280.987 300.045 281.136C300.39 281.276 300.684 281.491 300.927 281.78C301.179 282.069 301.309 282.447 301.319 282.914C301.319 283.334 301.202 283.712 300.969 284.048C300.735 284.384 300.404 284.65 299.975 284.846C299.555 285.033 299.069 285.126 298.519 285.126ZM309.095 275.242V281.416C309.095 282.284 309.305 282.928 309.725 283.348C310.155 283.768 310.747 283.978 311.503 283.978C312.25 283.978 312.833 283.768 313.253 283.348C313.683 282.928 313.897 282.284 313.897 281.416V275.242H315.171V281.402C315.171 282.214 315.008 282.9 314.681 283.46C314.355 284.011 313.911 284.421 313.351 284.692C312.801 284.963 312.18 285.098 311.489 285.098C310.799 285.098 310.173 284.963 309.613 284.692C309.063 284.421 308.624 284.011 308.297 283.46C307.98 282.9 307.821 282.214 307.821 281.402V275.242H309.095ZM320.513 285.126C319.925 285.126 319.397 285.028 318.931 284.832C318.464 284.627 318.095 284.347 317.825 283.992C317.554 283.628 317.405 283.213 317.377 282.746H318.693C318.73 283.129 318.907 283.441 319.225 283.684C319.551 283.927 319.976 284.048 320.499 284.048C320.984 284.048 321.367 283.941 321.647 283.726C321.927 283.511 322.067 283.241 322.067 282.914C322.067 282.578 321.917 282.331 321.619 282.172C321.32 282.004 320.858 281.841 320.233 281.682C319.663 281.533 319.197 281.383 318.833 281.234C318.478 281.075 318.17 280.847 317.909 280.548C317.657 280.24 317.531 279.839 317.531 279.344C317.531 278.952 317.647 278.593 317.881 278.266C318.114 277.939 318.445 277.683 318.875 277.496C319.304 277.3 319.794 277.202 320.345 277.202C321.194 277.202 321.88 277.417 322.403 277.846C322.925 278.275 323.205 278.863 323.243 279.61H321.969C321.941 279.209 321.777 278.887 321.479 278.644C321.189 278.401 320.797 278.28 320.303 278.28C319.845 278.28 319.481 278.378 319.211 278.574C318.94 278.77 318.805 279.027 318.805 279.344C318.805 279.596 318.884 279.806 319.043 279.974C319.211 280.133 319.416 280.263 319.659 280.366C319.911 280.459 320.256 280.567 320.695 280.688C321.245 280.837 321.693 280.987 322.039 281.136C322.384 281.276 322.678 281.491 322.921 281.78C323.173 282.069 323.303 282.447 323.313 282.914C323.313 283.334 323.196 283.712 322.963 284.048C322.729 284.384 322.398 284.65 321.969 284.846C321.549 285.033 321.063 285.126 320.513 285.126ZM332.611 280.87C332.611 281.113 332.597 281.369 332.569 281.64H326.437C326.484 282.396 326.741 282.989 327.207 283.418C327.683 283.838 328.257 284.048 328.929 284.048C329.48 284.048 329.937 283.922 330.301 283.67C330.675 283.409 330.936 283.063 331.085 282.634H332.457C332.252 283.371 331.841 283.973 331.225 284.44C330.609 284.897 329.844 285.126 328.929 285.126C328.201 285.126 327.548 284.963 326.969 284.636C326.4 284.309 325.952 283.847 325.625 283.25C325.299 282.643 325.135 281.943 325.135 281.15C325.135 280.357 325.294 279.661 325.611 279.064C325.929 278.467 326.372 278.009 326.941 277.692C327.52 277.365 328.183 277.202 328.929 277.202C329.657 277.202 330.301 277.361 330.861 277.678C331.421 277.995 331.851 278.434 332.149 278.994C332.457 279.545 332.611 280.17 332.611 280.87ZM331.295 280.604C331.295 280.119 331.188 279.703 330.973 279.358C330.759 279.003 330.465 278.737 330.091 278.56C329.727 278.373 329.321 278.28 328.873 278.28C328.229 278.28 327.679 278.485 327.221 278.896C326.773 279.307 326.517 279.876 326.451 280.604H331.295ZM336.067 278.574C336.291 278.135 336.608 277.795 337.019 277.552C337.439 277.309 337.948 277.188 338.545 277.188V278.504H338.209C336.781 278.504 336.067 279.279 336.067 280.828V285H334.793V277.328H336.067V278.574ZM346.022 276.278V279.54H349.578V280.59H346.022V283.95H349.998V285H344.748V275.228H349.998V276.278H346.022ZM356.43 285L354.61 282.144L352.86 285H351.53L354.008 281.192L351.53 277.328H352.972L354.792 280.17L356.528 277.328H357.858L355.394 281.122L357.872 285H356.43ZM360.899 278.742C361.151 278.303 361.524 277.939 362.019 277.65C362.523 277.351 363.106 277.202 363.769 277.202C364.45 277.202 365.066 277.365 365.617 277.692C366.177 278.019 366.616 278.481 366.933 279.078C367.25 279.666 367.409 280.352 367.409 281.136C367.409 281.911 367.25 282.601 366.933 283.208C366.616 283.815 366.177 284.286 365.617 284.622C365.066 284.958 364.45 285.126 363.769 285.126C363.116 285.126 362.537 284.981 362.033 284.692C361.538 284.393 361.16 284.025 360.899 283.586V288.64H359.625V277.328H360.899V278.742ZM366.107 281.136C366.107 280.557 365.99 280.053 365.757 279.624C365.524 279.195 365.206 278.868 364.805 278.644C364.413 278.42 363.979 278.308 363.503 278.308C363.036 278.308 362.602 278.425 362.201 278.658C361.809 278.882 361.492 279.213 361.249 279.652C361.016 280.081 360.899 280.581 360.899 281.15C360.899 281.729 361.016 282.237 361.249 282.676C361.492 283.105 361.809 283.437 362.201 283.67C362.602 283.894 363.036 284.006 363.503 284.006C363.979 284.006 364.413 283.894 364.805 283.67C365.206 283.437 365.524 283.105 365.757 282.676C365.99 282.237 366.107 281.724 366.107 281.136ZM376.586 280.87C376.586 281.113 376.572 281.369 376.544 281.64H370.412C370.458 282.396 370.715 282.989 371.182 283.418C371.658 283.838 372.232 284.048 372.904 284.048C373.454 284.048 373.912 283.922 374.276 283.67C374.649 283.409 374.91 283.063 375.06 282.634H376.432C376.226 283.371 375.816 283.973 375.2 284.44C374.584 284.897 373.818 285.126 372.904 285.126C372.176 285.126 371.522 284.963 370.944 284.636C370.374 284.309 369.926 283.847 369.6 283.25C369.273 282.643 369.11 281.943 369.11 281.15C369.11 280.357 369.268 279.661 369.586 279.064C369.903 278.467 370.346 278.009 370.916 277.692C371.494 277.365 372.157 277.202 372.904 277.202C373.632 277.202 374.276 277.361 374.836 277.678C375.396 277.995 375.825 278.434 376.124 278.994C376.432 279.545 376.586 280.17 376.586 280.87ZM375.27 280.604C375.27 280.119 375.162 279.703 374.948 279.358C374.733 279.003 374.439 278.737 374.066 278.56C373.702 278.373 373.296 278.28 372.848 278.28C372.204 278.28 371.653 278.485 371.196 278.896C370.748 279.307 370.491 279.876 370.426 280.604H375.27ZM380.041 278.574C380.265 278.135 380.583 277.795 380.993 277.552C381.413 277.309 381.922 277.188 382.519 277.188V278.504H382.183C380.755 278.504 380.041 279.279 380.041 280.828V285H378.767V277.328H380.041V278.574ZM385.148 276.082C384.905 276.082 384.7 275.998 384.532 275.83C384.364 275.662 384.28 275.457 384.28 275.214C384.28 274.971 384.364 274.766 384.532 274.598C384.7 274.43 384.905 274.346 385.148 274.346C385.381 274.346 385.577 274.43 385.736 274.598C385.904 274.766 385.988 274.971 385.988 275.214C385.988 275.457 385.904 275.662 385.736 275.83C385.577 275.998 385.381 276.082 385.148 276.082ZM385.764 277.328V285H384.49V277.328H385.764ZM395.435 280.87C395.435 281.113 395.421 281.369 395.393 281.64H389.261C389.308 282.396 389.565 282.989 390.031 283.418C390.507 283.838 391.081 284.048 391.753 284.048C392.304 284.048 392.761 283.922 393.125 283.67C393.499 283.409 393.76 283.063 393.909 282.634H395.281C395.076 283.371 394.665 283.973 394.049 284.44C393.433 284.897 392.668 285.126 391.753 285.126C391.025 285.126 390.372 284.963 389.793 284.636C389.224 284.309 388.776 283.847 388.449 283.25C388.123 282.643 387.959 281.943 387.959 281.15C387.959 280.357 388.118 279.661 388.435 279.064C388.753 278.467 389.196 278.009 389.765 277.692C390.344 277.365 391.007 277.202 391.753 277.202C392.481 277.202 393.125 277.361 393.685 277.678C394.245 277.995 394.675 278.434 394.973 278.994C395.281 279.545 395.435 280.17 395.435 280.87ZM394.119 280.604C394.119 280.119 394.012 279.703 393.797 279.358C393.583 279.003 393.289 278.737 392.915 278.56C392.551 278.373 392.145 278.28 391.697 278.28C391.053 278.28 390.503 278.485 390.045 278.896C389.597 279.307 389.341 279.876 389.275 280.604H394.119ZM401.355 277.188C402.288 277.188 403.044 277.473 403.623 278.042C404.202 278.602 404.491 279.414 404.491 280.478V285H403.231V280.66C403.231 279.895 403.04 279.311 402.657 278.91C402.274 278.499 401.752 278.294 401.089 278.294C400.417 278.294 399.88 278.504 399.479 278.924C399.087 279.344 398.891 279.955 398.891 280.758V285H397.617V277.328H398.891V278.42C399.143 278.028 399.484 277.725 399.913 277.51C400.352 277.295 400.832 277.188 401.355 277.188ZM406.596 281.15C406.596 280.357 406.755 279.666 407.072 279.078C407.389 278.481 407.828 278.019 408.388 277.692C408.957 277.365 409.606 277.202 410.334 277.202C411.277 277.202 412.051 277.431 412.658 277.888C413.274 278.345 413.68 278.98 413.876 279.792H412.504C412.373 279.325 412.117 278.957 411.734 278.686C411.361 278.415 410.894 278.28 410.334 278.28C409.606 278.28 409.018 278.532 408.57 279.036C408.122 279.531 407.898 280.235 407.898 281.15C407.898 282.074 408.122 282.788 408.57 283.292C409.018 283.796 409.606 284.048 410.334 284.048C410.894 284.048 411.361 283.917 411.734 283.656C412.107 283.395 412.364 283.021 412.504 282.536H413.876C413.671 283.32 413.26 283.95 412.644 284.426C412.028 284.893 411.258 285.126 410.334 285.126C409.606 285.126 408.957 284.963 408.388 284.636C407.828 284.309 407.389 283.847 407.072 283.25C406.755 282.653 406.596 281.953 406.596 281.15ZM423.076 280.87C423.076 281.113 423.062 281.369 423.034 281.64H416.902C416.949 282.396 417.205 282.989 417.672 283.418C418.148 283.838 418.722 284.048 419.394 284.048C419.945 284.048 420.402 283.922 420.766 283.67C421.139 283.409 421.401 283.063 421.55 282.634H422.922C422.717 283.371 422.306 283.973 421.69 284.44C421.074 284.897 420.309 285.126 419.394 285.126C418.666 285.126 418.013 284.963 417.434 284.636C416.865 284.309 416.417 283.847 416.09 283.25C415.763 282.643 415.6 281.943 415.6 281.15C415.6 280.357 415.759 279.661 416.076 279.064C416.393 278.467 416.837 278.009 417.406 277.692C417.985 277.365 418.647 277.202 419.394 277.202C420.122 277.202 420.766 277.361 421.326 277.678C421.886 277.995 422.315 278.434 422.614 278.994C422.922 279.545 423.076 280.17 423.076 280.87ZM421.76 280.604C421.76 280.119 421.653 279.703 421.438 279.358C421.223 279.003 420.929 278.737 420.556 278.56C420.192 278.373 419.786 278.28 419.338 278.28C418.694 278.28 418.143 278.485 417.686 278.896C417.238 279.307 416.981 279.876 416.916 280.604H421.76Z" fill="white"/>
<path d="M158.5 281H201" stroke="url(#paint27_linear_1257_828)" stroke-miterlimit="10"/>
<path d="M156 274.5C152.933 274.5 150.5 276.933 150.5 280C150.5 283.067 152.933 285.5 156 285.5C159.067 285.5 161.5 283.067 161.5 280C161.5 276.933 159.067 274.5 156 274.5Z" fill="url(#paint28_linear_1257_828)" stroke="url(#paint29_linear_1257_828)"/>
<path d="M219.5 280C219.5 289.665 211.665 297.5 202 297.5C192.335 297.5 184.5 289.665 184.5 280C184.5 270.335 192.335 262.5 202 262.5C211.665 262.5 219.5 270.335 219.5 280Z" fill="url(#paint30_linear_1257_828)" stroke="url(#paint31_linear_1257_828)"/>
<rect x="191.5" y="337.5" width="239" height="47" rx="23.5" fill="url(#paint32_linear_1257_828)"/>
<rect x="191.5" y="337.5" width="239" height="47" rx="23.5" stroke="url(#paint33_linear_1257_828)"/>
<path d="M217.352 357.278V360.54H220.908V361.59H217.352V364.95H221.328V366H216.078V356.228H221.328V357.278H217.352ZM226.878 359.378H225.268V366H223.994V359.378H223V358.328H223.994V357.782C223.994 356.923 224.213 356.298 224.652 355.906C225.1 355.505 225.814 355.304 226.794 355.304V356.368C226.234 356.368 225.837 356.48 225.604 356.704C225.38 356.919 225.268 357.278 225.268 357.782V358.328H226.878V359.378ZM231.985 359.378H230.375V366H229.101V359.378H228.107V358.328H229.101V357.782C229.101 356.923 229.32 356.298 229.759 355.906C230.207 355.505 230.921 355.304 231.901 355.304V356.368C231.341 356.368 230.944 356.48 230.711 356.704C230.487 356.919 230.375 357.278 230.375 357.782V358.328H231.985V359.378ZM237.317 366.126C236.598 366.126 235.945 365.963 235.357 365.636C234.778 365.309 234.321 364.847 233.985 364.25C233.658 363.643 233.495 362.943 233.495 362.15C233.495 361.366 233.663 360.675 233.999 360.078C234.344 359.471 234.811 359.009 235.399 358.692C235.987 358.365 236.645 358.202 237.373 358.202C238.101 358.202 238.759 358.365 239.347 358.692C239.935 359.009 240.397 359.467 240.733 360.064C241.078 360.661 241.251 361.357 241.251 362.15C241.251 362.943 241.073 363.643 240.719 364.25C240.373 364.847 239.902 365.309 239.305 365.636C238.707 365.963 238.045 366.126 237.317 366.126ZM237.317 365.006C237.774 365.006 238.203 364.899 238.605 364.684C239.006 364.469 239.328 364.147 239.571 363.718C239.823 363.289 239.949 362.766 239.949 362.15C239.949 361.534 239.827 361.011 239.585 360.582C239.342 360.153 239.025 359.835 238.633 359.63C238.241 359.415 237.816 359.308 237.359 359.308C236.892 359.308 236.463 359.415 236.071 359.63C235.688 359.835 235.38 360.153 235.147 360.582C234.913 361.011 234.797 361.534 234.797 362.15C234.797 362.775 234.909 363.303 235.133 363.732C235.366 364.161 235.674 364.483 236.057 364.698C236.439 364.903 236.859 365.006 237.317 365.006ZM244.7 359.574C244.924 359.135 245.241 358.795 245.652 358.552C246.072 358.309 246.58 358.188 247.178 358.188V359.504H246.842C245.414 359.504 244.7 360.279 244.7 361.828V366H243.426V358.328H244.7V359.574ZM250.702 359.378V363.9C250.702 364.273 250.782 364.539 250.94 364.698C251.099 364.847 251.374 364.922 251.766 364.922H252.704V366H251.556C250.847 366 250.315 365.837 249.96 365.51C249.606 365.183 249.428 364.647 249.428 363.9V359.378H248.434V358.328H249.428V356.396H250.702V358.328H252.704V359.378H250.702ZM256.022 355.64V366H254.748V355.64H256.022ZM265.693 361.87C265.693 362.113 265.679 362.369 265.651 362.64H259.519C259.566 363.396 259.823 363.989 260.289 364.418C260.765 364.838 261.339 365.048 262.011 365.048C262.562 365.048 263.019 364.922 263.383 364.67C263.757 364.409 264.018 364.063 264.167 363.634H265.539C265.334 364.371 264.923 364.973 264.307 365.44C263.691 365.897 262.926 366.126 262.011 366.126C261.283 366.126 260.63 365.963 260.051 365.636C259.482 365.309 259.034 364.847 258.707 364.25C258.381 363.643 258.217 362.943 258.217 362.15C258.217 361.357 258.376 360.661 258.693 360.064C259.011 359.467 259.454 359.009 260.023 358.692C260.602 358.365 261.265 358.202 262.011 358.202C262.739 358.202 263.383 358.361 263.943 358.678C264.503 358.995 264.933 359.434 265.231 359.994C265.539 360.545 265.693 361.17 265.693 361.87ZM264.377 361.604C264.377 361.119 264.27 360.703 264.055 360.358C263.841 360.003 263.547 359.737 263.173 359.56C262.809 359.373 262.403 359.28 261.955 359.28C261.311 359.28 260.761 359.485 260.303 359.896C259.855 360.307 259.599 360.876 259.533 361.604H264.377ZM270.591 366.126C270.003 366.126 269.476 366.028 269.009 365.832C268.542 365.627 268.174 365.347 267.903 364.992C267.632 364.628 267.483 364.213 267.455 363.746H268.771C268.808 364.129 268.986 364.441 269.303 364.684C269.63 364.927 270.054 365.048 270.577 365.048C271.062 365.048 271.445 364.941 271.725 364.726C272.005 364.511 272.145 364.241 272.145 363.914C272.145 363.578 271.996 363.331 271.697 363.172C271.398 363.004 270.936 362.841 270.311 362.682C269.742 362.533 269.275 362.383 268.911 362.234C268.556 362.075 268.248 361.847 267.987 361.548C267.735 361.24 267.609 360.839 267.609 360.344C267.609 359.952 267.726 359.593 267.959 359.266C268.192 358.939 268.524 358.683 268.953 358.496C269.382 358.3 269.872 358.202 270.423 358.202C271.272 358.202 271.958 358.417 272.481 358.846C273.004 359.275 273.284 359.863 273.321 360.61H272.047C272.019 360.209 271.856 359.887 271.557 359.644C271.268 359.401 270.876 359.28 270.381 359.28C269.924 359.28 269.56 359.378 269.289 359.574C269.018 359.77 268.883 360.027 268.883 360.344C268.883 360.596 268.962 360.806 269.121 360.974C269.289 361.133 269.494 361.263 269.737 361.366C269.989 361.459 270.334 361.567 270.773 361.688C271.324 361.837 271.772 361.987 272.117 362.136C272.462 362.276 272.756 362.491 272.999 362.78C273.251 363.069 273.382 363.447 273.391 363.914C273.391 364.334 273.274 364.712 273.041 365.048C272.808 365.384 272.476 365.65 272.047 365.846C271.627 366.033 271.142 366.126 270.591 366.126ZM278.405 366.126C277.817 366.126 277.29 366.028 276.823 365.832C276.357 365.627 275.988 365.347 275.717 364.992C275.447 364.628 275.297 364.213 275.269 363.746H276.585C276.623 364.129 276.8 364.441 277.117 364.684C277.444 364.927 277.869 365.048 278.391 365.048C278.877 365.048 279.259 364.941 279.539 364.726C279.819 364.511 279.959 364.241 279.959 363.914C279.959 363.578 279.81 363.331 279.511 363.172C279.213 363.004 278.751 362.841 278.125 362.682C277.556 362.533 277.089 362.383 276.725 362.234C276.371 362.075 276.063 361.847 275.801 361.548C275.549 361.24 275.423 360.839 275.423 360.344C275.423 359.952 275.54 359.593 275.773 359.266C276.007 358.939 276.338 358.683 276.767 358.496C277.197 358.3 277.687 358.202 278.237 358.202C279.087 358.202 279.773 358.417 280.295 358.846C280.818 359.275 281.098 359.863 281.135 360.61H279.861C279.833 360.209 279.67 359.887 279.371 359.644C279.082 359.401 278.69 359.28 278.195 359.28C277.738 359.28 277.374 359.378 277.103 359.574C276.833 359.77 276.697 360.027 276.697 360.344C276.697 360.596 276.777 360.806 276.935 360.974C277.103 361.133 277.309 361.263 277.551 361.366C277.803 361.459 278.149 361.567 278.587 361.688C279.138 361.837 279.586 361.987 279.931 362.136C280.277 362.276 280.571 362.491 280.813 362.78C281.065 363.069 281.196 363.447 281.205 363.914C281.205 364.334 281.089 364.712 280.855 365.048C280.622 365.384 280.291 365.65 279.861 365.846C279.441 366.033 278.956 366.126 278.405 366.126ZM293.742 356.242V357.278H291.082V366H289.808V357.278H287.134V356.242H293.742ZM297.084 359.574C297.308 359.135 297.626 358.795 298.036 358.552C298.456 358.309 298.965 358.188 299.562 358.188V359.504H299.226C297.798 359.504 297.084 360.279 297.084 361.828V366H295.81V358.328H297.084V359.574ZM301.057 362.136C301.057 361.352 301.216 360.666 301.533 360.078C301.85 359.481 302.284 359.019 302.835 358.692C303.395 358.365 304.016 358.202 304.697 358.202C305.369 358.202 305.952 358.347 306.447 358.636C306.942 358.925 307.31 359.289 307.553 359.728V358.328H308.841V366H307.553V364.572C307.301 365.02 306.923 365.393 306.419 365.692C305.924 365.981 305.346 366.126 304.683 366.126C304.002 366.126 303.386 365.958 302.835 365.622C302.284 365.286 301.85 364.815 301.533 364.208C301.216 363.601 301.057 362.911 301.057 362.136ZM307.553 362.15C307.553 361.571 307.436 361.067 307.203 360.638C306.97 360.209 306.652 359.882 306.251 359.658C305.859 359.425 305.425 359.308 304.949 359.308C304.473 359.308 304.039 359.42 303.647 359.644C303.255 359.868 302.942 360.195 302.709 360.624C302.476 361.053 302.359 361.557 302.359 362.136C302.359 362.724 302.476 363.237 302.709 363.676C302.942 364.105 303.255 364.437 303.647 364.67C304.039 364.894 304.473 365.006 304.949 365.006C305.425 365.006 305.859 364.894 306.251 364.67C306.652 364.437 306.97 364.105 307.203 363.676C307.436 363.237 307.553 362.729 307.553 362.15ZM315.232 358.188C316.165 358.188 316.921 358.473 317.5 359.042C318.079 359.602 318.368 360.414 318.368 361.478V366H317.108V361.66C317.108 360.895 316.917 360.311 316.534 359.91C316.151 359.499 315.629 359.294 314.966 359.294C314.294 359.294 313.757 359.504 313.356 359.924C312.964 360.344 312.768 360.955 312.768 361.758V366H311.494V358.328H312.768V359.42C313.02 359.028 313.361 358.725 313.79 358.51C314.229 358.295 314.709 358.188 315.232 358.188ZM323.665 366.126C323.077 366.126 322.55 366.028 322.083 365.832C321.616 365.627 321.248 365.347 320.977 364.992C320.706 364.628 320.557 364.213 320.529 363.746H321.845C321.882 364.129 322.06 364.441 322.377 364.684C322.704 364.927 323.128 365.048 323.651 365.048C324.136 365.048 324.519 364.941 324.799 364.726C325.079 364.511 325.219 364.241 325.219 363.914C325.219 363.578 325.07 363.331 324.771 363.172C324.472 363.004 324.01 362.841 323.385 362.682C322.816 362.533 322.349 362.383 321.985 362.234C321.63 362.075 321.322 361.847 321.061 361.548C320.809 361.24 320.683 360.839 320.683 360.344C320.683 359.952 320.8 359.593 321.033 359.266C321.266 358.939 321.598 358.683 322.027 358.496C322.456 358.3 322.946 358.202 323.497 358.202C324.346 358.202 325.032 358.417 325.555 358.846C326.078 359.275 326.358 359.863 326.395 360.61H325.121C325.093 360.209 324.93 359.887 324.631 359.644C324.342 359.401 323.95 359.28 323.455 359.28C322.998 359.28 322.634 359.378 322.363 359.574C322.092 359.77 321.957 360.027 321.957 360.344C321.957 360.596 322.036 360.806 322.195 360.974C322.363 361.133 322.568 361.263 322.811 361.366C323.063 361.459 323.408 361.567 323.847 361.688C324.398 361.837 324.846 361.987 325.191 362.136C325.536 362.276 325.83 362.491 326.073 362.78C326.325 363.069 326.456 363.447 326.465 363.914C326.465 364.334 326.348 364.712 326.115 365.048C325.882 365.384 325.55 365.65 325.121 365.846C324.701 366.033 324.216 366.126 323.665 366.126ZM328.288 362.136C328.288 361.352 328.446 360.666 328.764 360.078C329.081 359.481 329.515 359.019 330.066 358.692C330.626 358.365 331.246 358.202 331.928 358.202C332.6 358.202 333.183 358.347 333.678 358.636C334.172 358.925 334.541 359.289 334.784 359.728V358.328H336.072V366H334.784V364.572C334.532 365.02 334.154 365.393 333.65 365.692C333.155 365.981 332.576 366.126 331.914 366.126C331.232 366.126 330.616 365.958 330.066 365.622C329.515 365.286 329.081 364.815 328.764 364.208C328.446 363.601 328.288 362.911 328.288 362.136ZM334.784 362.15C334.784 361.571 334.667 361.067 334.434 360.638C334.2 360.209 333.883 359.882 333.482 359.658C333.09 359.425 332.656 359.308 332.18 359.308C331.704 359.308 331.27 359.42 330.878 359.644C330.486 359.868 330.173 360.195 329.94 360.624C329.706 361.053 329.59 361.557 329.59 362.136C329.59 362.724 329.706 363.237 329.94 363.676C330.173 364.105 330.486 364.437 330.878 364.67C331.27 364.894 331.704 365.006 332.18 365.006C332.656 365.006 333.09 364.894 333.482 364.67C333.883 364.437 334.2 364.105 334.434 363.676C334.667 363.237 334.784 362.729 334.784 362.15ZM338.248 362.15C338.248 361.357 338.407 360.666 338.724 360.078C339.042 359.481 339.48 359.019 340.04 358.692C340.61 358.365 341.258 358.202 341.986 358.202C342.929 358.202 343.704 358.431 344.31 358.888C344.926 359.345 345.332 359.98 345.528 360.792H344.156C344.026 360.325 343.769 359.957 343.386 359.686C343.013 359.415 342.546 359.28 341.986 359.28C341.258 359.28 340.67 359.532 340.222 360.036C339.774 360.531 339.55 361.235 339.55 362.15C339.55 363.074 339.774 363.788 340.222 364.292C340.67 364.796 341.258 365.048 341.986 365.048C342.546 365.048 343.013 364.917 343.386 364.656C343.76 364.395 344.016 364.021 344.156 363.536H345.528C345.323 364.32 344.912 364.95 344.296 365.426C343.68 365.893 342.91 366.126 341.986 366.126C341.258 366.126 340.61 365.963 340.04 365.636C339.48 365.309 339.042 364.847 338.724 364.25C338.407 363.653 338.248 362.953 338.248 362.15ZM349.282 359.378V363.9C349.282 364.273 349.362 364.539 349.52 364.698C349.679 364.847 349.954 364.922 350.346 364.922H351.284V366H350.136C349.427 366 348.895 365.837 348.54 365.51C348.186 365.183 348.008 364.647 348.008 363.9V359.378H347.014V358.328H348.008V356.396H349.282V358.328H351.284V359.378H349.282ZM353.986 357.082C353.743 357.082 353.538 356.998 353.37 356.83C353.202 356.662 353.118 356.457 353.118 356.214C353.118 355.971 353.202 355.766 353.37 355.598C353.538 355.43 353.743 355.346 353.986 355.346C354.219 355.346 354.415 355.43 354.574 355.598C354.742 355.766 354.826 355.971 354.826 356.214C354.826 356.457 354.742 356.662 354.574 356.83C354.415 356.998 354.219 357.082 353.986 357.082ZM354.602 358.328V366H353.328V358.328H354.602ZM360.619 366.126C359.901 366.126 359.247 365.963 358.659 365.636C358.081 365.309 357.623 364.847 357.287 364.25C356.961 363.643 356.797 362.943 356.797 362.15C356.797 361.366 356.965 360.675 357.301 360.078C357.647 359.471 358.113 359.009 358.701 358.692C359.289 358.365 359.947 358.202 360.675 358.202C361.403 358.202 362.061 358.365 362.649 358.692C363.237 359.009 363.699 359.467 364.035 360.064C364.381 360.661 364.553 361.357 364.553 362.15C364.553 362.943 364.376 363.643 364.021 364.25C363.676 364.847 363.205 365.309 362.607 365.636C362.01 365.963 361.347 366.126 360.619 366.126ZM360.619 365.006C361.077 365.006 361.506 364.899 361.907 364.684C362.309 364.469 362.631 364.147 362.873 363.718C363.125 363.289 363.251 362.766 363.251 362.15C363.251 361.534 363.13 361.011 362.887 360.582C362.645 360.153 362.327 359.835 361.935 359.63C361.543 359.415 361.119 359.308 360.661 359.308C360.195 359.308 359.765 359.415 359.373 359.63C358.991 359.835 358.683 360.153 358.449 360.582C358.216 361.011 358.099 361.534 358.099 362.15C358.099 362.775 358.211 363.303 358.435 363.732C358.669 364.161 358.977 364.483 359.359 364.698C359.742 364.903 360.162 365.006 360.619 365.006ZM370.466 358.188C371.4 358.188 372.156 358.473 372.734 359.042C373.313 359.602 373.602 360.414 373.602 361.478V366H372.342V361.66C372.342 360.895 372.151 360.311 371.768 359.91C371.386 359.499 370.863 359.294 370.2 359.294C369.528 359.294 368.992 359.504 368.59 359.924C368.198 360.344 368.002 360.955 368.002 361.758V366H366.728V358.328H368.002V359.42C368.254 359.028 368.595 358.725 369.024 358.51C369.463 358.295 369.944 358.188 370.466 358.188ZM378.899 366.126C378.311 366.126 377.784 366.028 377.317 365.832C376.851 365.627 376.482 365.347 376.211 364.992C375.941 364.628 375.791 364.213 375.763 363.746H377.079C377.117 364.129 377.294 364.441 377.611 364.684C377.938 364.927 378.363 365.048 378.885 365.048C379.371 365.048 379.753 364.941 380.033 364.726C380.313 364.511 380.453 364.241 380.453 363.914C380.453 363.578 380.304 363.331 380.005 363.172C379.707 363.004 379.245 362.841 378.619 362.682C378.05 362.533 377.583 362.383 377.219 362.234C376.865 362.075 376.557 361.847 376.295 361.548C376.043 361.24 375.917 360.839 375.917 360.344C375.917 359.952 376.034 359.593 376.267 359.266C376.501 358.939 376.832 358.683 377.261 358.496C377.691 358.3 378.181 358.202 378.731 358.202C379.581 358.202 380.267 358.417 380.789 358.846C381.312 359.275 381.592 359.863 381.629 360.61H380.355C380.327 360.209 380.164 359.887 379.865 359.644C379.576 359.401 379.184 359.28 378.689 359.28C378.232 359.28 377.868 359.378 377.597 359.574C377.327 359.77 377.191 360.027 377.191 360.344C377.191 360.596 377.271 360.806 377.429 360.974C377.597 361.133 377.803 361.263 378.045 361.366C378.297 361.459 378.643 361.567 379.081 361.688C379.632 361.837 380.08 361.987 380.425 362.136C380.771 362.276 381.065 362.491 381.307 362.78C381.559 363.069 381.69 363.447 381.699 363.914C381.699 364.334 381.583 364.712 381.349 365.048C381.116 365.384 380.785 365.65 380.355 365.846C379.935 366.033 379.45 366.126 378.899 366.126Z" fill="white"/>
<path d="M142.917 344.169L190 362" stroke="url(#paint34_linear_1257_828)" stroke-miterlimit="10"/>
<path d="M143 338.5C139.933 338.5 137.5 340.933 137.5 344C137.5 347.067 139.933 349.5 143 349.5C146.067 349.5 148.5 347.067 148.5 344C148.5 340.933 146.067 338.5 143 338.5Z" fill="url(#paint35_linear_1257_828)" stroke="url(#paint36_linear_1257_828)"/>
<path d="M203.5 361C203.5 370.665 195.665 378.5 186 378.5C176.335 378.5 168.5 370.665 168.5 361C168.5 351.335 176.335 343.5 186 343.5C195.665 343.5 203.5 351.335 203.5 361Z" fill="url(#paint37_linear_1257_828)" stroke="url(#paint38_linear_1257_828)"/>
<rect x="130.5" y="418.5" width="239" height="47" rx="23.5" fill="url(#paint39_linear_1257_828)"/>
<rect x="130.5" y="418.5" width="239" height="47" rx="23.5" stroke="url(#paint40_linear_1257_828)"/>
<path d="M156.352 438.278V441.54H159.908V442.59H156.352V445.95H160.328V447H155.078V437.228H160.328V438.278H156.352ZM166.494 439.188C167.427 439.188 168.183 439.473 168.762 440.042C169.34 440.602 169.63 441.414 169.63 442.478V447H168.37V442.66C168.37 441.895 168.178 441.311 167.796 440.91C167.413 440.499 166.89 440.294 166.228 440.294C165.556 440.294 165.019 440.504 164.618 440.924C164.226 441.344 164.03 441.955 164.03 442.758V447H162.756V439.328H164.03V440.42C164.282 440.028 164.622 439.725 165.052 439.51C165.49 439.295 165.971 439.188 166.494 439.188ZM176.019 439.188C176.597 439.188 177.12 439.314 177.587 439.566C178.053 439.809 178.417 440.177 178.679 440.672C178.949 441.167 179.085 441.769 179.085 442.478V447H177.825V442.66C177.825 441.895 177.633 441.311 177.251 440.91C176.868 440.499 176.345 440.294 175.683 440.294C175.011 440.294 174.474 440.504 174.073 440.924C173.681 441.344 173.485 441.955 173.485 442.758V447H172.211V436.64H173.485V440.42C173.737 440.028 174.082 439.725 174.521 439.51C174.969 439.295 175.468 439.188 176.019 439.188ZM181.19 443.136C181.19 442.352 181.349 441.666 181.666 441.078C181.983 440.481 182.417 440.019 182.968 439.692C183.528 439.365 184.149 439.202 184.83 439.202C185.502 439.202 186.085 439.347 186.58 439.636C187.075 439.925 187.443 440.289 187.686 440.728V439.328H188.974V447H187.686V445.572C187.434 446.02 187.056 446.393 186.552 446.692C186.057 446.981 185.479 447.126 184.816 447.126C184.135 447.126 183.519 446.958 182.968 446.622C182.417 446.286 181.983 445.815 181.666 445.208C181.349 444.601 181.19 443.911 181.19 443.136ZM187.686 443.15C187.686 442.571 187.569 442.067 187.336 441.638C187.103 441.209 186.785 440.882 186.384 440.658C185.992 440.425 185.558 440.308 185.082 440.308C184.606 440.308 184.172 440.42 183.78 440.644C183.388 440.868 183.075 441.195 182.842 441.624C182.609 442.053 182.492 442.557 182.492 443.136C182.492 443.724 182.609 444.237 182.842 444.676C183.075 445.105 183.388 445.437 183.78 445.67C184.172 445.894 184.606 446.006 185.082 446.006C185.558 446.006 185.992 445.894 186.384 445.67C186.785 445.437 187.103 445.105 187.336 444.676C187.569 444.237 187.686 443.729 187.686 443.15ZM195.365 439.188C196.298 439.188 197.054 439.473 197.633 440.042C198.211 440.602 198.501 441.414 198.501 442.478V447H197.241V442.66C197.241 441.895 197.049 441.311 196.667 440.91C196.284 440.499 195.761 440.294 195.099 440.294C194.427 440.294 193.89 440.504 193.489 440.924C193.097 441.344 192.901 441.955 192.901 442.758V447H191.627V439.328H192.901V440.42C193.153 440.028 193.493 439.725 193.923 439.51C194.361 439.295 194.842 439.188 195.365 439.188ZM200.606 443.15C200.606 442.357 200.765 441.666 201.082 441.078C201.399 440.481 201.838 440.019 202.398 439.692C202.967 439.365 203.616 439.202 204.344 439.202C205.287 439.202 206.061 439.431 206.668 439.888C207.284 440.345 207.69 440.98 207.886 441.792H206.514C206.383 441.325 206.127 440.957 205.744 440.686C205.371 440.415 204.904 440.28 204.344 440.28C203.616 440.28 203.028 440.532 202.58 441.036C202.132 441.531 201.908 442.235 201.908 443.15C201.908 444.074 202.132 444.788 202.58 445.292C203.028 445.796 203.616 446.048 204.344 446.048C204.904 446.048 205.371 445.917 205.744 445.656C206.117 445.395 206.374 445.021 206.514 444.536H207.886C207.681 445.32 207.27 445.95 206.654 446.426C206.038 446.893 205.268 447.126 204.344 447.126C203.616 447.126 202.967 446.963 202.398 446.636C201.838 446.309 201.399 445.847 201.082 445.25C200.765 444.653 200.606 443.953 200.606 443.15ZM217.086 442.87C217.086 443.113 217.072 443.369 217.044 443.64H210.912C210.958 444.396 211.215 444.989 211.682 445.418C212.158 445.838 212.732 446.048 213.404 446.048C213.954 446.048 214.412 445.922 214.776 445.67C215.149 445.409 215.41 445.063 215.56 444.634H216.932C216.726 445.371 216.316 445.973 215.7 446.44C215.084 446.897 214.318 447.126 213.404 447.126C212.676 447.126 212.022 446.963 211.444 446.636C210.874 446.309 210.426 445.847 210.1 445.25C209.773 444.643 209.61 443.943 209.61 443.15C209.61 442.357 209.768 441.661 210.086 441.064C210.403 440.467 210.846 440.009 211.416 439.692C211.994 439.365 212.657 439.202 213.404 439.202C214.132 439.202 214.776 439.361 215.336 439.678C215.896 439.995 216.325 440.434 216.624 440.994C216.932 441.545 217.086 442.17 217.086 442.87ZM215.77 442.604C215.77 442.119 215.662 441.703 215.448 441.358C215.233 441.003 214.939 440.737 214.566 440.56C214.202 440.373 213.796 440.28 213.348 440.28C212.704 440.28 212.153 440.485 211.696 440.896C211.248 441.307 210.991 441.876 210.926 442.604H215.77ZM218.791 443.136C218.791 442.352 218.95 441.666 219.267 441.078C219.585 440.481 220.019 440.019 220.569 439.692C221.129 439.365 221.755 439.202 222.445 439.202C223.043 439.202 223.598 439.342 224.111 439.622C224.625 439.893 225.017 440.252 225.287 440.7V436.64H226.575V447H225.287V445.558C225.035 446.015 224.662 446.393 224.167 446.692C223.673 446.981 223.094 447.126 222.431 447.126C221.75 447.126 221.129 446.958 220.569 446.622C220.019 446.286 219.585 445.815 219.267 445.208C218.95 444.601 218.791 443.911 218.791 443.136ZM225.287 443.15C225.287 442.571 225.171 442.067 224.937 441.638C224.704 441.209 224.387 440.882 223.985 440.658C223.593 440.425 223.159 440.308 222.683 440.308C222.207 440.308 221.773 440.42 221.381 440.644C220.989 440.868 220.677 441.195 220.443 441.624C220.21 442.053 220.093 442.557 220.093 443.136C220.093 443.724 220.21 444.237 220.443 444.676C220.677 445.105 220.989 445.437 221.381 445.67C221.773 445.894 222.207 446.006 222.683 446.006C223.159 446.006 223.593 445.894 223.985 445.67C224.387 445.437 224.704 445.105 224.937 444.676C225.171 444.237 225.287 443.729 225.287 443.15ZM239.985 440.098C239.985 440.91 239.705 441.587 239.145 442.128C238.594 442.66 237.749 442.926 236.611 442.926H234.735V447H233.461V437.242H236.611C237.712 437.242 238.547 437.508 239.117 438.04C239.695 438.572 239.985 439.258 239.985 440.098ZM236.611 441.876C237.32 441.876 237.843 441.722 238.179 441.414C238.515 441.106 238.683 440.667 238.683 440.098C238.683 438.894 237.992 438.292 236.611 438.292H234.735V441.876H236.611ZM249.068 442.87C249.068 443.113 249.054 443.369 249.026 443.64H242.894C242.941 444.396 243.198 444.989 243.664 445.418C244.14 445.838 244.714 446.048 245.386 446.048C245.937 446.048 246.394 445.922 246.758 445.67C247.132 445.409 247.393 445.063 247.542 444.634H248.914C248.709 445.371 248.298 445.973 247.682 446.44C247.066 446.897 246.301 447.126 245.386 447.126C244.658 447.126 244.005 446.963 243.426 446.636C242.857 446.309 242.409 445.847 242.082 445.25C241.756 444.643 241.592 443.943 241.592 443.15C241.592 442.357 241.751 441.661 242.068 441.064C242.386 440.467 242.829 440.009 243.398 439.692C243.977 439.365 244.64 439.202 245.386 439.202C246.114 439.202 246.758 439.361 247.318 439.678C247.878 439.995 248.308 440.434 248.606 440.994C248.914 441.545 249.068 442.17 249.068 442.87ZM247.752 442.604C247.752 442.119 247.645 441.703 247.43 441.358C247.216 441.003 246.922 440.737 246.548 440.56C246.184 440.373 245.778 440.28 245.33 440.28C244.686 440.28 244.136 440.485 243.678 440.896C243.23 441.307 242.974 441.876 242.908 442.604H247.752ZM252.524 440.574C252.748 440.135 253.065 439.795 253.476 439.552C253.896 439.309 254.405 439.188 255.002 439.188V440.504H254.666C253.238 440.504 252.524 441.279 252.524 442.828V447H251.25V439.328H252.524V440.574ZM260.095 440.378H258.485V447H257.211V440.378H256.217V439.328H257.211V438.782C257.211 437.923 257.43 437.298 257.869 436.906C258.317 436.505 259.031 436.304 260.011 436.304V437.368C259.451 437.368 259.054 437.48 258.821 437.704C258.597 437.919 258.485 438.278 258.485 438.782V439.328H260.095V440.378ZM265.426 447.126C264.707 447.126 264.054 446.963 263.466 446.636C262.887 446.309 262.43 445.847 262.094 445.25C261.767 444.643 261.604 443.943 261.604 443.15C261.604 442.366 261.772 441.675 262.108 441.078C262.453 440.471 262.92 440.009 263.508 439.692C264.096 439.365 264.754 439.202 265.482 439.202C266.21 439.202 266.868 439.365 267.456 439.692C268.044 440.009 268.506 440.467 268.842 441.064C269.187 441.661 269.36 442.357 269.36 443.15C269.36 443.943 269.183 444.643 268.828 445.25C268.483 445.847 268.011 446.309 267.414 446.636C266.817 446.963 266.154 447.126 265.426 447.126ZM265.426 446.006C265.883 446.006 266.313 445.899 266.714 445.684C267.115 445.469 267.437 445.147 267.68 444.718C267.932 444.289 268.058 443.766 268.058 443.15C268.058 442.534 267.937 442.011 267.694 441.582C267.451 441.153 267.134 440.835 266.742 440.63C266.35 440.415 265.925 440.308 265.468 440.308C265.001 440.308 264.572 440.415 264.18 440.63C263.797 440.835 263.489 441.153 263.256 441.582C263.023 442.011 262.906 442.534 262.906 443.15C262.906 443.775 263.018 444.303 263.242 444.732C263.475 445.161 263.783 445.483 264.166 445.698C264.549 445.903 264.969 446.006 265.426 446.006ZM272.809 440.574C273.033 440.135 273.35 439.795 273.761 439.552C274.181 439.309 274.69 439.188 275.287 439.188V440.504H274.951C273.523 440.504 272.809 441.279 272.809 442.828V447H271.535V439.328H272.809V440.574ZM286.484 439.188C287.081 439.188 287.613 439.314 288.08 439.566C288.546 439.809 288.915 440.177 289.186 440.672C289.456 441.167 289.592 441.769 289.592 442.478V447H288.332V442.66C288.332 441.895 288.14 441.311 287.758 440.91C287.384 440.499 286.876 440.294 286.232 440.294C285.569 440.294 285.042 440.509 284.65 440.938C284.258 441.358 284.062 441.969 284.062 442.772V447H282.802V442.66C282.802 441.895 282.61 441.311 282.228 440.91C281.854 440.499 281.346 440.294 280.702 440.294C280.039 440.294 279.512 440.509 279.12 440.938C278.728 441.358 278.532 441.969 278.532 442.772V447H277.258V439.328H278.532V440.434C278.784 440.033 279.12 439.725 279.54 439.51C279.969 439.295 280.44 439.188 280.954 439.188C281.598 439.188 282.167 439.333 282.662 439.622C283.156 439.911 283.525 440.336 283.768 440.896C283.982 440.355 284.337 439.935 284.832 439.636C285.326 439.337 285.877 439.188 286.484 439.188ZM291.706 443.136C291.706 442.352 291.864 441.666 292.182 441.078C292.499 440.481 292.933 440.019 293.484 439.692C294.044 439.365 294.664 439.202 295.346 439.202C296.018 439.202 296.601 439.347 297.096 439.636C297.59 439.925 297.959 440.289 298.202 440.728V439.328H299.49V447H298.202V445.572C297.95 446.02 297.572 446.393 297.068 446.692C296.573 446.981 295.994 447.126 295.332 447.126C294.65 447.126 294.034 446.958 293.484 446.622C292.933 446.286 292.499 445.815 292.182 445.208C291.864 444.601 291.706 443.911 291.706 443.136ZM298.202 443.15C298.202 442.571 298.085 442.067 297.852 441.638C297.618 441.209 297.301 440.882 296.9 440.658C296.508 440.425 296.074 440.308 295.598 440.308C295.122 440.308 294.688 440.42 294.296 440.644C293.904 440.868 293.591 441.195 293.358 441.624C293.124 442.053 293.008 442.557 293.008 443.136C293.008 443.724 293.124 444.237 293.358 444.676C293.591 445.105 293.904 445.437 294.296 445.67C294.688 445.894 295.122 446.006 295.598 446.006C296.074 446.006 296.508 445.894 296.9 445.67C297.301 445.437 297.618 445.105 297.852 444.676C298.085 444.237 298.202 443.729 298.202 443.15ZM305.88 439.188C306.814 439.188 307.57 439.473 308.148 440.042C308.727 440.602 309.016 441.414 309.016 442.478V447H307.756V442.66C307.756 441.895 307.565 441.311 307.182 440.91C306.8 440.499 306.277 440.294 305.614 440.294C304.942 440.294 304.406 440.504 304.004 440.924C303.612 441.344 303.416 441.955 303.416 442.758V447H302.142V439.328H303.416V440.42C303.668 440.028 304.009 439.725 304.438 439.51C304.877 439.295 305.358 439.188 305.88 439.188ZM311.122 443.15C311.122 442.357 311.28 441.666 311.598 441.078C311.915 440.481 312.354 440.019 312.914 439.692C313.483 439.365 314.132 439.202 314.86 439.202C315.802 439.202 316.577 439.431 317.184 439.888C317.8 440.345 318.206 440.98 318.402 441.792H317.03C316.899 441.325 316.642 440.957 316.26 440.686C315.886 440.415 315.42 440.28 314.86 440.28C314.132 440.28 313.544 440.532 313.096 441.036C312.648 441.531 312.424 442.235 312.424 443.15C312.424 444.074 312.648 444.788 313.096 445.292C313.544 445.796 314.132 446.048 314.86 446.048C315.42 446.048 315.886 445.917 316.26 445.656C316.633 445.395 316.89 445.021 317.03 444.536H318.402C318.196 445.32 317.786 445.95 317.17 446.426C316.554 446.893 315.784 447.126 314.86 447.126C314.132 447.126 313.483 446.963 312.914 446.636C312.354 446.309 311.915 445.847 311.598 445.25C311.28 444.653 311.122 443.953 311.122 443.15ZM327.601 442.87C327.601 443.113 327.587 443.369 327.559 443.64H321.427C321.474 444.396 321.731 444.989 322.197 445.418C322.673 445.838 323.247 446.048 323.919 446.048C324.47 446.048 324.927 445.922 325.291 445.67C325.665 445.409 325.926 445.063 326.075 444.634H327.447C327.242 445.371 326.831 445.973 326.215 446.44C325.599 446.897 324.834 447.126 323.919 447.126C323.191 447.126 322.538 446.963 321.959 446.636C321.39 446.309 320.942 445.847 320.615 445.25C320.289 444.643 320.125 443.943 320.125 443.15C320.125 442.357 320.284 441.661 320.601 441.064C320.919 440.467 321.362 440.009 321.931 439.692C322.51 439.365 323.173 439.202 323.919 439.202C324.647 439.202 325.291 439.361 325.851 439.678C326.411 439.995 326.841 440.434 327.139 440.994C327.447 441.545 327.601 442.17 327.601 442.87ZM326.285 442.604C326.285 442.119 326.178 441.703 325.963 441.358C325.749 441.003 325.455 440.737 325.081 440.56C324.717 440.373 324.311 440.28 323.863 440.28C323.219 440.28 322.669 440.485 322.211 440.896C321.763 441.307 321.507 441.876 321.441 442.604H326.285Z" fill="white"/>
<path d="M93.5 407L124 441.5" stroke="url(#paint41_linear_1257_828)" stroke-miterlimit="10"/>
<path d="M93 400.5C89.9332 400.5 87.5 402.933 87.5 406C87.5 409.067 89.9332 411.5 93 411.5C96.0669 411.5 98.5 409.067 98.5 406C98.5 402.933 96.0669 400.5 93 400.5Z" fill="url(#paint42_linear_1257_828)" stroke="url(#paint43_linear_1257_828)"/>
<path d="M142.5 442C142.5 451.665 134.665 459.5 125 459.5C115.335 459.5 107.5 451.665 107.5 442C107.5 432.335 115.335 424.5 125 424.5C134.665 424.5 142.5 432.335 142.5 442Z" fill="url(#paint44_linear_1257_828)" stroke="url(#paint45_linear_1257_828)"/>
<path d="M127.82 112.46V124L125.54 123.98V115.2L121.4 116.92V114.32L125.54 112.46H127.82Z" fill="white"/>
<path d="M178.8 199.48L181.08 198.1H185.22V200.36H181.24V202.64H185.14V205H178.8V199.48ZM178.8 197.12V194.84L181.08 193.46H185.22V195.74H181.32V197.12H178.8ZM192.62 205H186.2V202.64H192.62V205ZM190.02 200.36H186.12V198.1H190.02V195.74H186.12V193.46H190.26L192.62 194.84V198.98L190.02 200.36Z" fill="white"/>
<path d="M206.22 286.02H202.08V283.66H205.98V281.38H202.08V279.12H205.98V276.76H202.08V274.48H206.22L208.5 275.86V279.28L206.62 280.24L208.5 281.14V284.64L206.22 286.02ZM197.2 282.28V283.66H201.1V286.02H196.96L194.6 284.64V282.28H197.2ZM194.68 278.14V275.86L196.96 274.48H201.1V276.76H197.2V278.14H194.68ZM201.1 281.38H198.58V279.12H201.1V281.38Z" fill="white"/>
<path d="M192.42 366.98H190.08V362.44H185.94V360.1H190.08V355.48H192.42V366.98ZM182.54 360.1H184.96V362.44H178.4L182.54 355.56H185.28L182.54 360.1Z" fill="white"/>
<path d="M117.8 436.46H124.26V438.74H120.34V441.04H124.26V443.4H117.8V436.46ZM120.34 444.3V445.7H124.26V447.98H120.08L117.8 446.6V444.3H120.34ZM131.7 438.74H125.24V436.46H131.7V438.74ZM131.7 442.42V446.6L129.42 447.98H125.24V445.7H129.16V443.4H125.24V441.04H129.16L131.7 442.42Z" fill="white"/>
<defs>
<linearGradient id="paint0_linear_1257_828" x1="27.5" y1="-380.625" x2="714.464" y2="127.526" gradientUnits="userSpaceOnUse">
<stop offset="0.303689" stop-color="#004B4B" stop-opacity="0"/>
<stop offset="0.454116" stop-color="#004B4B" stop-opacity="0.4"/>
<stop offset="0.499089" stop-color="#004B4B"/>
<stop offset="0.64438" stop-color="#26DDFF"/>
<stop offset="0.953267" stop-color="#26DDFF" stop-opacity="0"/>
</linearGradient>
<linearGradient id="paint1_linear_1257_828" x1="184" y1="260.5" x2="94.6909" y2="261.688" gradientUnits="userSpaceOnUse">
<stop stop-color="#12637E"/>
<stop offset="0.781" stop-color="#04182D" stop-opacity="0.4"/>
</linearGradient>
<linearGradient id="paint2_linear_1257_828" x1="-19.2105" y1="-2571.26" x2="340.819" y2="-2549.75" gradientUnits="userSpaceOnUse">
<stop offset="0.303689" stop-color="#004B4B" stop-opacity="0"/>
<stop offset="0.422945" stop-color="#004B4B" stop-opacity="0.4"/>
<stop offset="0.499089" stop-color="#004B4B"/>
<stop offset="0.649516" stop-color="#26DDFF"/>
<stop offset="0.953267" stop-color="#26DDFF" stop-opacity="0"/>
</linearGradient>
<linearGradient id="paint3_linear_1257_828" x1="117.949" y1="267.5" x2="60.6993" y2="268.262" gradientUnits="userSpaceOnUse">
<stop stop-color="#12637E"/>
<stop offset="0.781" stop-color="#04182D" stop-opacity="0.4"/>
</linearGradient>
<linearGradient id="paint4_linear_1257_828" x1="-12.3144" y1="-1547.73" x2="218.474" y2="-1533.94" gradientUnits="userSpaceOnUse">
<stop offset="0.303689" stop-color="#004B4B" stop-opacity="0"/>
<stop offset="0.422945" stop-color="#004B4B" stop-opacity="0.4"/>
<stop offset="0.499089" stop-color="#004B4B"/>
<stop offset="0.649516" stop-color="#26DDFF"/>
<stop offset="0.953267" stop-color="#26DDFF" stop-opacity="0"/>
</linearGradient>
<linearGradient id="paint5_linear_1257_828" x1="184" y1="260.5" x2="94.6909" y2="261.688" gradientUnits="userSpaceOnUse">
<stop stop-color="#12637E"/>
<stop offset="0.781" stop-color="#04182D" stop-opacity="0.4"/>
</linearGradient>
<linearGradient id="paint6_linear_1257_828" x1="-19.2105" y1="-2571.26" x2="340.819" y2="-2549.75" gradientUnits="userSpaceOnUse">
<stop offset="0.303689" stop-color="#004B4B" stop-opacity="0"/>
<stop offset="0.422945" stop-color="#004B4B" stop-opacity="0.4"/>
<stop offset="0.499089" stop-color="#004B4B"/>
<stop offset="0.649516" stop-color="#26DDFF"/>
<stop offset="0.953267" stop-color="#26DDFF" stop-opacity="0"/>
</linearGradient>
<linearGradient id="paint7_linear_1257_828" x1="117.949" y1="267.5" x2="60.6993" y2="268.262" gradientUnits="userSpaceOnUse">
<stop stop-color="#12637E"/>
<stop offset="0.781" stop-color="#04182D" stop-opacity="0.4"/>
</linearGradient>
<linearGradient id="paint8_linear_1257_828" x1="-12.3144" y1="-1547.73" x2="218.474" y2="-1533.94" gradientUnits="userSpaceOnUse">
<stop offset="0.303689" stop-color="#004B4B" stop-opacity="0"/>
<stop offset="0.422945" stop-color="#004B4B" stop-opacity="0.4"/>
<stop offset="0.499089" stop-color="#004B4B"/>
<stop offset="0.649516" stop-color="#26DDFF"/>
<stop offset="0.953267" stop-color="#26DDFF" stop-opacity="0"/>
</linearGradient>
<linearGradient id="paint9_linear_1257_828" x1="63.6923" y1="273.25" x2="32.7776" y2="273.661" gradientUnits="userSpaceOnUse">
<stop stop-color="#12637E"/>
<stop offset="0.781" stop-color="#04182D" stop-opacity="0.4"/>
</linearGradient>
<linearGradient id="paint10_linear_1257_828" x1="-6.64978" y1="-706.974" x2="117.976" y2="-699.529" gradientUnits="userSpaceOnUse">
<stop offset="0.303689" stop-color="#004B4B" stop-opacity="0"/>
<stop offset="0.422945" stop-color="#004B4B" stop-opacity="0.4"/>
<stop offset="0.499089" stop-color="#004B4B"/>
<stop offset="0.649516" stop-color="#26DDFF"/>
<stop offset="0.953267" stop-color="#26DDFF" stop-opacity="0"/>
</linearGradient>
<linearGradient id="paint11_linear_1257_828" x1="371.727" y1="74.4288" x2="360.242" y2="164.2" gradientUnits="userSpaceOnUse">
<stop stop-color="#12637E"/>
<stop offset="0.781" stop-color="#04182D"/>
</linearGradient>
<linearGradient id="paint12_linear_1257_828" x1="457.5" y1="83.5" x2="445.673" y2="173.039" gradientUnits="userSpaceOnUse">
<stop offset="0.303689" stop-color="#004B4B" stop-opacity="0"/>
<stop offset="0.422945" stop-color="#004B4B" stop-opacity="0.4"/>
<stop offset="0.499089" stop-color="#004B4B"/>
<stop offset="0.649516" stop-color="#26DDFF"/>
<stop offset="0.953267" stop-color="#26DDFF" stop-opacity="0"/>
</linearGradient>
<linearGradient id="paint13_linear_1257_828" x1="85.6649" y1="236.833" x2="171.167" y2="199.378" gradientUnits="userSpaceOnUse">
<stop offset="0.303689" stop-color="#004B4B" stop-opacity="0"/>
<stop offset="0.422945" stop-color="#004B4B" stop-opacity="0.4"/>
<stop offset="0.499089" stop-color="#004B4B"/>
<stop offset="0.649516" stop-color="#26DDFF"/>
<stop offset="0.953267" stop-color="#26DDFF" stop-opacity="0"/>
</linearGradient>
<linearGradient id="paint14_linear_1257_828" x1="98.072" y1="145.548" x2="89.4432" y2="159.036" gradientUnits="userSpaceOnUse">
<stop stop-color="#12637E"/>
<stop offset="0.781" stop-color="#04182D"/>
</linearGradient>
<linearGradient id="paint15_linear_1257_828" x1="86.0203" y1="132.056" x2="108.263" y2="146.671" gradientUnits="userSpaceOnUse">
<stop offset="0.303689" stop-color="#004B4B" stop-opacity="0"/>
<stop offset="0.422945" stop-color="#004B4B" stop-opacity="0.4"/>
<stop offset="0.499089" stop-color="#004B4B"/>
<stop offset="0.649516" stop-color="#26DDFF"/>
<stop offset="0.953267" stop-color="#26DDFF" stop-opacity="0"/>
</linearGradient>
<linearGradient id="paint16_linear_1257_828" x1="143.259" y1="87.5716" x2="112.196" y2="136.131" gradientUnits="userSpaceOnUse">
<stop stop-color="#12637E"/>
<stop offset="0.781" stop-color="#04182D"/>
</linearGradient>
<linearGradient id="paint17_linear_1257_828" x1="156.125" y1="94.375" x2="124.705" y2="141.949" gradientUnits="userSpaceOnUse">
<stop offset="0.303689" stop-color="#004B4B" stop-opacity="0"/>
<stop offset="0.422945" stop-color="#004B4B" stop-opacity="0.4"/>
<stop offset="0.499089" stop-color="#004B4B"/>
<stop offset="0.649516" stop-color="#26DDFF"/>
<stop offset="0.953267" stop-color="#26DDFF" stop-opacity="0"/>
</linearGradient>
<linearGradient id="paint18_linear_1257_828" x1="432.727" y1="158.429" x2="421.242" y2="248.2" gradientUnits="userSpaceOnUse">
<stop stop-color="#12637E"/>
<stop offset="0.781" stop-color="#04182D"/>
</linearGradient>
<linearGradient id="paint19_linear_1257_828" x1="518.5" y1="167.5" x2="506.673" y2="257.039" gradientUnits="userSpaceOnUse">
<stop offset="0.303689" stop-color="#004B4B" stop-opacity="0"/>
<stop offset="0.422945" stop-color="#004B4B" stop-opacity="0.4"/>
<stop offset="0.499089" stop-color="#004B4B"/>
<stop offset="0.649516" stop-color="#26DDFF"/>
<stop offset="0.953267" stop-color="#26DDFF" stop-opacity="0"/>
</linearGradient>
<linearGradient id="paint20_linear_1257_828" x1="135.082" y1="95.8363" x2="220.584" y2="133.291" gradientUnits="userSpaceOnUse">
<stop offset="0.303689" stop-color="#004B4B" stop-opacity="0"/>
<stop offset="0.422945" stop-color="#004B4B" stop-opacity="0.4"/>
<stop offset="0.499089" stop-color="#004B4B"/>
<stop offset="0.649516" stop-color="#26DDFF"/>
<stop offset="0.953267" stop-color="#26DDFF" stop-opacity="0"/>
</linearGradient>
<linearGradient id="paint21_linear_1257_828" x1="146.072" y1="202.548" x2="137.443" y2="216.036" gradientUnits="userSpaceOnUse">
<stop stop-color="#12637E"/>
<stop offset="0.781" stop-color="#04182D"/>
</linearGradient>
<linearGradient id="paint22_linear_1257_828" x1="134.02" y1="189.056" x2="156.263" y2="203.671" gradientUnits="userSpaceOnUse">
<stop offset="0.303689" stop-color="#004B4B" stop-opacity="0"/>
<stop offset="0.422945" stop-color="#004B4B" stop-opacity="0.4"/>
<stop offset="0.499089" stop-color="#004B4B"/>
<stop offset="0.649516" stop-color="#26DDFF"/>
<stop offset="0.953267" stop-color="#26DDFF" stop-opacity="0"/>
</linearGradient>
<linearGradient id="paint23_linear_1257_828" x1="204.259" y1="168.572" x2="173.196" y2="217.131" gradientUnits="userSpaceOnUse">
<stop stop-color="#12637E"/>
<stop offset="0.781" stop-color="#04182D"/>
</linearGradient>
<linearGradient id="paint24_linear_1257_828" x1="217.125" y1="175.375" x2="185.705" y2="222.949" gradientUnits="userSpaceOnUse">
<stop offset="0.303689" stop-color="#004B4B" stop-opacity="0"/>
<stop offset="0.422945" stop-color="#004B4B" stop-opacity="0.4"/>
<stop offset="0.499089" stop-color="#004B4B"/>
<stop offset="0.649516" stop-color="#26DDFF"/>
<stop offset="0.953267" stop-color="#26DDFF" stop-opacity="0"/>
</linearGradient>
<linearGradient id="paint25_linear_1257_828" x1="448.727" y1="239.429" x2="437.242" y2="329.2" gradientUnits="userSpaceOnUse">
<stop stop-color="#12637E"/>
<stop offset="0.781" stop-color="#04182D"/>
</linearGradient>
<linearGradient id="paint26_linear_1257_828" x1="534.5" y1="248.5" x2="522.673" y2="338.039" gradientUnits="userSpaceOnUse">
<stop offset="0.303689" stop-color="#004B4B" stop-opacity="0"/>
<stop offset="0.422945" stop-color="#004B4B" stop-opacity="0.4"/>
<stop offset="0.499089" stop-color="#004B4B"/>
<stop offset="0.649516" stop-color="#26DDFF"/>
<stop offset="0.953267" stop-color="#26DDFF" stop-opacity="0"/>
</linearGradient>
<linearGradient id="paint27_linear_1257_828" x1="146.082" y1="179.836" x2="231.584" y2="217.291" gradientUnits="userSpaceOnUse">
<stop offset="0.303689" stop-color="#004B4B" stop-opacity="0"/>
<stop offset="0.422945" stop-color="#004B4B" stop-opacity="0.4"/>
<stop offset="0.499089" stop-color="#004B4B"/>
<stop offset="0.649516" stop-color="#26DDFF"/>
<stop offset="0.953267" stop-color="#26DDFF" stop-opacity="0"/>
</linearGradient>
<linearGradient id="paint28_linear_1257_828" x1="161.072" y1="271.548" x2="152.443" y2="285.036" gradientUnits="userSpaceOnUse">
<stop stop-color="#12637E"/>
<stop offset="0.781" stop-color="#04182D"/>
</linearGradient>
<linearGradient id="paint29_linear_1257_828" x1="149.02" y1="258.056" x2="171.263" y2="272.671" gradientUnits="userSpaceOnUse">
<stop offset="0.303689" stop-color="#004B4B" stop-opacity="0"/>
<stop offset="0.422945" stop-color="#004B4B" stop-opacity="0.4"/>
<stop offset="0.499089" stop-color="#004B4B"/>
<stop offset="0.649516" stop-color="#26DDFF"/>
<stop offset="0.953267" stop-color="#26DDFF" stop-opacity="0"/>
</linearGradient>
<linearGradient id="paint30_linear_1257_828" x1="220.259" y1="249.572" x2="189.196" y2="298.131" gradientUnits="userSpaceOnUse">
<stop stop-color="#12637E"/>
<stop offset="0.781" stop-color="#04182D"/>
</linearGradient>
<linearGradient id="paint31_linear_1257_828" x1="233.125" y1="256.375" x2="201.705" y2="303.949" gradientUnits="userSpaceOnUse">
<stop offset="0.303689" stop-color="#004B4B" stop-opacity="0"/>
<stop offset="0.422945" stop-color="#004B4B" stop-opacity="0.4"/>
<stop offset="0.499089" stop-color="#004B4B"/>
<stop offset="0.649516" stop-color="#26DDFF"/>
<stop offset="0.953267" stop-color="#26DDFF" stop-opacity="0"/>
</linearGradient>
<linearGradient id="paint32_linear_1257_828" x1="432.727" y1="320.429" x2="421.242" y2="410.2" gradientUnits="userSpaceOnUse">
<stop stop-color="#12637E"/>
<stop offset="0.781" stop-color="#04182D"/>
</linearGradient>
<linearGradient id="paint33_linear_1257_828" x1="518.5" y1="329.5" x2="506.673" y2="419.039" gradientUnits="userSpaceOnUse">
<stop offset="0.303689" stop-color="#004B4B" stop-opacity="0"/>
<stop offset="0.422945" stop-color="#004B4B" stop-opacity="0.4"/>
<stop offset="0.499089" stop-color="#004B4B"/>
<stop offset="0.649516" stop-color="#26DDFF"/>
<stop offset="0.953267" stop-color="#26DDFF" stop-opacity="0"/>
</linearGradient>
<linearGradient id="paint34_linear_1257_828" x1="135.082" y1="260.836" x2="220.584" y2="298.291" gradientUnits="userSpaceOnUse">
<stop offset="0.303689" stop-color="#004B4B" stop-opacity="0"/>
<stop offset="0.422945" stop-color="#004B4B" stop-opacity="0.4"/>
<stop offset="0.499089" stop-color="#004B4B"/>
<stop offset="0.649516" stop-color="#26DDFF"/>
<stop offset="0.953267" stop-color="#26DDFF" stop-opacity="0"/>
</linearGradient>
<linearGradient id="paint35_linear_1257_828" x1="148.072" y1="335.548" x2="139.443" y2="349.036" gradientUnits="userSpaceOnUse">
<stop stop-color="#12637E"/>
<stop offset="0.781" stop-color="#04182D"/>
</linearGradient>
<linearGradient id="paint36_linear_1257_828" x1="136.02" y1="322.056" x2="158.263" y2="336.671" gradientUnits="userSpaceOnUse">
<stop offset="0.303689" stop-color="#004B4B" stop-opacity="0"/>
<stop offset="0.422945" stop-color="#004B4B" stop-opacity="0.4"/>
<stop offset="0.499089" stop-color="#004B4B"/>
<stop offset="0.649516" stop-color="#26DDFF"/>
<stop offset="0.953267" stop-color="#26DDFF" stop-opacity="0"/>
</linearGradient>
<linearGradient id="paint37_linear_1257_828" x1="204.259" y1="330.572" x2="173.196" y2="379.131" gradientUnits="userSpaceOnUse">
<stop stop-color="#12637E"/>
<stop offset="0.781" stop-color="#04182D"/>
</linearGradient>
<linearGradient id="paint38_linear_1257_828" x1="217.125" y1="337.375" x2="185.705" y2="384.949" gradientUnits="userSpaceOnUse">
<stop offset="0.303689" stop-color="#004B4B" stop-opacity="0"/>
<stop offset="0.422945" stop-color="#004B4B" stop-opacity="0.4"/>
<stop offset="0.499089" stop-color="#004B4B"/>
<stop offset="0.649516" stop-color="#26DDFF"/>
<stop offset="0.953267" stop-color="#26DDFF" stop-opacity="0"/>
</linearGradient>
<linearGradient id="paint39_linear_1257_828" x1="371.727" y1="401.429" x2="360.242" y2="491.2" gradientUnits="userSpaceOnUse">
<stop stop-color="#12637E"/>
<stop offset="0.781" stop-color="#04182D"/>
</linearGradient>
<linearGradient id="paint40_linear_1257_828" x1="457.5" y1="410.5" x2="445.673" y2="500.039" gradientUnits="userSpaceOnUse">
<stop offset="0.303689" stop-color="#004B4B" stop-opacity="0"/>
<stop offset="0.422945" stop-color="#004B4B" stop-opacity="0.4"/>
<stop offset="0.499089" stop-color="#004B4B"/>
<stop offset="0.649516" stop-color="#26DDFF"/>
<stop offset="0.953267" stop-color="#26DDFF" stop-opacity="0"/>
</linearGradient>
<linearGradient id="paint41_linear_1257_828" x1="85.6649" y1="323.667" x2="171.167" y2="361.122" gradientUnits="userSpaceOnUse">
<stop offset="0.303689" stop-color="#004B4B" stop-opacity="0"/>
<stop offset="0.422945" stop-color="#004B4B" stop-opacity="0.4"/>
<stop offset="0.499089" stop-color="#004B4B"/>
<stop offset="0.649516" stop-color="#26DDFF"/>
<stop offset="0.953267" stop-color="#26DDFF" stop-opacity="0"/>
</linearGradient>
<linearGradient id="paint42_linear_1257_828" x1="98.072" y1="397.548" x2="89.4432" y2="411.036" gradientUnits="userSpaceOnUse">
<stop stop-color="#12637E"/>
<stop offset="0.781" stop-color="#04182D"/>
</linearGradient>
<linearGradient id="paint43_linear_1257_828" x1="86.0203" y1="384.056" x2="108.263" y2="398.671" gradientUnits="userSpaceOnUse">
<stop offset="0.303689" stop-color="#004B4B" stop-opacity="0"/>
<stop offset="0.422945" stop-color="#004B4B" stop-opacity="0.4"/>
<stop offset="0.499089" stop-color="#004B4B"/>
<stop offset="0.649516" stop-color="#26DDFF"/>
<stop offset="0.953267" stop-color="#26DDFF" stop-opacity="0"/>
</linearGradient>
<linearGradient id="paint44_linear_1257_828" x1="143.259" y1="411.572" x2="112.196" y2="460.131" gradientUnits="userSpaceOnUse">
<stop stop-color="#12637E"/>
<stop offset="0.781" stop-color="#04182D"/>
</linearGradient>
<linearGradient id="paint45_linear_1257_828" x1="156.125" y1="418.375" x2="124.705" y2="465.949" gradientUnits="userSpaceOnUse">
<stop offset="0.303689" stop-color="#004B4B" stop-opacity="0"/>
<stop offset="0.422945" stop-color="#004B4B" stop-opacity="0.4"/>
<stop offset="0.499089" stop-color="#004B4B"/>
<stop offset="0.649516" stop-color="#26DDFF"/>
<stop offset="0.953267" stop-color="#26DDFF" stop-opacity="0"/>
</linearGradient>
</defs>
</svg>
