<svg width="69" height="49" viewBox="0 0 69 49" fill="none" xmlns="http://www.w3.org/2000/svg">
<path d="M26.5781 17.1379C26.5781 12.8556 30.0692 9.36307 34.3487 9.36307C38.6308 9.36307 42.1192 12.8584 42.1192 17.0678C42.1192 21.35 38.6281 24.8426 34.3487 24.8426C30.0665 24.8426 26.5781 21.3473 26.5781 17.1379ZM26.9799 17.0678C26.9799 21.1304 30.2874 24.4401 34.3487 24.4401C38.4099 24.4401 41.7174 21.1304 41.7174 17.0678C41.7174 13.0051 38.4099 9.69545 34.3487 9.69545C30.2874 9.69545 26.9799 13.0051 26.9799 17.0678Z" fill="#010101" stroke="white"/>
<path d="M21.4457 35.403L21.4242 35.6869L21.6574 35.8503C22.9877 36.782 24.4269 37.5756 25.9532 38.2052C25.9216 38.2745 25.8904 38.3279 25.8587 38.3721C25.8159 38.432 25.7637 38.4869 25.687 38.5466C23.9867 37.8392 22.3904 36.93 20.9282 35.8489L21.1729 34.6273L21.1731 34.6274L21.1754 34.6135C21.9767 29.9369 25.9805 26.4037 30.8456 26.4037H37.8545C42.725 26.4037 46.7907 29.9413 47.5235 34.6067L47.5257 34.6207L47.5287 34.6346L47.7663 35.7351C46.0991 36.9385 45.0623 37.6861 43.0128 38.4544C42.9335 38.4008 42.906 38.355 42.8841 38.3135C42.8657 38.2788 42.8489 38.2393 42.8277 38.1839C44.3862 37.5539 45.6158 36.82 46.9764 35.8475L47.2056 35.6838L47.1843 35.403C46.8144 30.5172 42.8152 26.736 37.8545 26.736H30.7755C25.8873 26.736 21.8158 30.5147 21.4457 35.403Z" fill="black" stroke="white"/>
<path d="M48.2646 11.1514C48.2646 7.23751 51.4556 4.04529 55.3669 4.04529C59.2809 4.04529 62.4691 7.24027 62.4691 11.087C62.4691 15.0009 59.2781 18.1931 55.3669 18.1931C51.4528 18.1931 48.2646 14.9982 48.2646 11.1514ZM48.5532 11.087C48.5532 14.8437 51.6115 17.904 55.3669 17.904C59.1222 17.904 62.1806 14.8437 62.1806 11.087C62.1806 7.3303 59.1222 4.27001 55.3669 4.27001C51.6115 4.27001 48.5532 7.3303 48.5532 11.087Z" fill="#010101" stroke="white"/>
<path d="M67.4363 27.2148L67.4385 27.2288L67.4415 27.2427L67.6538 28.2257C64.2546 30.6023 59.7493 32.374 55.3673 32.374C50.7699 32.374 46.5182 30.8725 43.0747 28.3331L43.2946 27.2354L43.2948 27.2354L43.2971 27.2216C44.0305 22.9417 47.6944 19.7087 52.146 19.7087H58.5886C63.0456 19.7087 66.7659 22.946 67.4363 27.2148ZM43.4654 27.9374L43.4439 28.2213L43.6771 28.3847C46.9781 30.6966 51.0074 32.0849 55.3673 32.0849C59.7264 32.0849 63.7575 30.697 66.9969 28.382L67.226 28.2182L67.2047 27.9374C66.8631 23.4256 63.1698 19.9335 58.5886 19.9335H52.0816C47.5673 19.9335 43.8072 23.4231 43.4654 27.9374Z" fill="#010101" stroke="white"/>
<path d="M5.74219 11.1515C5.74219 7.23754 8.93312 4.04532 12.8444 4.04532C16.7584 4.04532 19.9466 7.2403 19.9466 11.087C19.9466 15.0009 16.7557 18.1932 12.8444 18.1932C8.93036 18.1932 5.74219 14.9982 5.74219 11.1515ZM6.0307 11.087C6.0307 14.8437 9.08903 17.904 12.8444 17.904C16.5998 17.904 19.6581 14.8437 19.6581 11.087C19.6581 7.33033 16.5998 4.27004 12.8444 4.27004C9.08903 4.27004 6.0307 7.33033 6.0307 11.087Z" fill="#010101" stroke="white"/>
<path d="M24.9139 27.2148L24.9161 27.2288L24.9191 27.2427L25.1313 28.2257C21.7321 30.6023 17.2269 32.374 12.8448 32.374C8.24746 32.374 3.99577 30.8725 0.552218 28.3331L0.772121 27.2354L0.772313 27.2354L0.77468 27.2216C1.50801 22.9417 5.17198 19.7087 9.62356 19.7087H16.0661C20.5232 19.7087 24.2434 22.946 24.9139 27.2148ZM0.942947 27.9374L0.921447 28.2213L1.15469 28.3847C4.45564 30.6966 8.48489 32.0849 12.8448 32.0849C17.204 32.0849 21.2351 30.697 24.4744 28.382L24.7035 28.2182L24.6823 27.9374C24.3407 23.4256 20.6474 19.9335 16.0661 19.9335H9.55913C5.04481 19.9335 1.28476 23.4231 0.942947 27.9374Z" fill="#010101" stroke="white"/>
<path d="M37.8931 6.48272C37.8835 6.48272 37.877 6.48144 37.8733 6.4804L37.8581 6.45802L37.8348 6.43215C37.747 6.33485 37.747 6.19271 37.8348 6.09541L40.688 2.93206C40.732 2.88327 40.7632 2.88149 40.7707 2.88149C40.7782 2.88149 40.8093 2.88327 40.8533 2.93206L41.2246 2.59718L40.8533 2.93206C40.9411 3.02936 40.9411 3.17151 40.8533 3.26881L38.0001 6.43215C37.9679 6.4678 37.9259 6.48272 37.8931 6.48272ZM34.5885 5.24827C34.5885 5.36485 34.5544 5.41743 34.5389 5.43462C34.5276 5.44713 34.5044 5.46722 34.44 5.46722C34.4117 5.46722 34.3836 5.45758 34.3524 5.42054C34.3164 5.37783 34.2916 5.31276 34.2916 5.24827V0.718942C34.2916 0.602368 34.3257 0.549787 34.3412 0.532596C34.3525 0.52008 34.3756 0.5 34.44 0.5C34.5044 0.5 34.5276 0.52008 34.5389 0.532595C34.5544 0.549786 34.5885 0.602367 34.5885 0.718942V5.24827ZM28.0268 2.93206L27.6555 2.59718L28.0268 2.93206C28.0708 2.88327 28.1019 2.88149 28.1094 2.88149C28.1169 2.88149 28.148 2.88327 28.192 2.93206L31.0453 6.09541C31.133 6.19271 31.133 6.33485 31.0453 6.43215C31.0013 6.48095 30.9701 6.48272 30.9626 6.48272C30.9552 6.48272 30.924 6.48095 30.88 6.43215L28.0268 3.26881C27.939 3.17151 27.939 3.02936 28.0268 2.93206Z" fill="#010101" stroke="white"/>
<path fill-rule="evenodd" clip-rule="evenodd" d="M35.1197 45.9403C34.9224 45.8389 34.703 45.786 34.4803 45.7861C34.2569 45.7848 34.0366 45.8369 33.8383 45.9377L29.8454 48L30.6119 43.6303C30.6496 43.4147 30.6334 43.1933 30.5646 42.9853C30.4959 42.7772 30.3766 42.5887 30.217 42.4361L26.9863 39.344L31.4496 38.7068C31.6696 38.6758 31.8787 38.5928 32.0588 38.4649C32.239 38.3371 32.3848 38.1682 32.4838 37.9728L34.4803 34L36.4853 37.9728C36.5835 38.1683 36.7285 38.3375 36.9079 38.4659C37.0873 38.5944 37.2957 38.6782 37.5153 38.7102L41.9785 39.3473L38.7478 42.4394C38.5883 42.5921 38.469 42.7806 38.4002 42.9887C38.3314 43.1967 38.3152 43.4181 38.353 43.6336L39.1152 48L35.1197 45.9403Z" stroke="white" stroke-width="1.2" stroke-linejoin="round"/>
</svg>
