<svg width="39" height="41" viewBox="0 0 39 41" fill="none" xmlns="http://www.w3.org/2000/svg">
<path d="M35.3333 0.625H3.66667C2.82681 0.625 2.02136 0.962141 1.4275 1.56226C0.83363 2.16237 0.5 2.9763 0.5 3.82499V15.025C0.5 25.5689 5.55083 31.9589 9.78823 35.4629C14.3522 39.2349 18.8924 40.5149 19.0903 40.5689C19.3625 40.6437 19.6494 40.6437 19.9216 40.5689C20.1195 40.5149 24.6537 39.2349 29.2236 35.4629C33.4492 31.9589 38.5 25.5689 38.5 15.025V3.82499C38.5 2.9763 38.1664 2.16237 37.5725 1.56226C36.9786 0.962141 36.1732 0.625 35.3333 0.625ZM35.3333 15.025C35.3333 22.4389 32.6298 28.4569 27.2979 32.9089C24.9769 34.8403 22.3372 36.3433 19.5 37.3489C16.6999 36.3608 14.0928 34.8845 11.7971 32.9869C6.40187 28.5269 3.66667 22.4849 3.66667 15.025V3.82499H35.3333V15.025ZM10.4631 20.9569C10.166 20.6567 9.99912 20.2495 9.99912 19.8249C9.99912 19.4004 10.166 18.9932 10.4631 18.693C10.7602 18.3927 11.1632 18.2241 11.5833 18.2241C12.0035 18.2241 12.4064 18.3927 12.7035 18.693L16.3333 22.3629L26.2965 12.293C26.4436 12.1443 26.6182 12.0264 26.8104 11.9459C27.0026 11.8655 27.2086 11.8241 27.4167 11.8241C27.6247 11.8241 27.8307 11.8655 28.0229 11.9459C28.2151 12.0264 28.3898 12.1443 28.5369 12.293C28.684 12.4416 28.8007 12.6181 28.8803 12.8123C28.9599 13.0066 29.0009 13.2147 29.0009 13.425C29.0009 13.6352 28.9599 13.8434 28.8803 14.0376C28.8007 14.2318 28.684 14.4083 28.5369 14.557L17.4535 25.7569C17.3065 25.9057 17.1319 26.0237 16.9397 26.1042C16.7474 26.1847 16.5414 26.2262 16.3333 26.2262C16.1253 26.2262 15.9192 26.1847 15.727 26.1042C15.5348 26.0237 15.3602 25.9057 15.2131 25.7569L10.4631 20.9569Z" fill="white"/>
<path d="M35.3333 0.625H3.66667C2.82681 0.625 2.02136 0.962141 1.4275 1.56226C0.83363 2.16237 0.5 2.9763 0.5 3.82499V15.025C0.5 25.5689 5.55083 31.9589 9.78823 35.4629C14.3522 39.2349 18.8924 40.5149 19.0903 40.5689C19.3625 40.6437 19.6494 40.6437 19.9216 40.5689C20.1195 40.5149 24.6537 39.2349 29.2236 35.4629C33.4492 31.9589 38.5 25.5689 38.5 15.025V3.82499C38.5 2.9763 38.1664 2.16237 37.5725 1.56226C36.9786 0.962141 36.1732 0.625 35.3333 0.625ZM35.3333 15.025C35.3333 22.4389 32.6298 28.4569 27.2979 32.9089C24.9769 34.8403 22.3372 36.3433 19.5 37.3489C16.6999 36.3608 14.0928 34.8845 11.7971 32.9869C6.40187 28.5269 3.66667 22.4849 3.66667 15.025V3.82499H35.3333V15.025ZM10.4631 20.9569C10.166 20.6567 9.99912 20.2495 9.99912 19.8249C9.99912 19.4004 10.166 18.9932 10.4631 18.693C10.7602 18.3927 11.1632 18.2241 11.5833 18.2241C12.0035 18.2241 12.4064 18.3927 12.7035 18.693L16.3333 22.3629L26.2965 12.293C26.4436 12.1443 26.6182 12.0264 26.8104 11.9459C27.0026 11.8655 27.2086 11.8241 27.4167 11.8241C27.6247 11.8241 27.8307 11.8655 28.0229 11.9459C28.2151 12.0264 28.3898 12.1443 28.5369 12.293C28.684 12.4416 28.8007 12.6181 28.8803 12.8123C28.9599 13.0066 29.0009 13.2147 29.0009 13.425C29.0009 13.6352 28.9599 13.8434 28.8803 14.0376C28.8007 14.2318 28.684 14.4083 28.5369 14.557L17.4535 25.7569C17.3065 25.9057 17.1319 26.0237 16.9397 26.1042C16.7474 26.1847 16.5414 26.2262 16.3333 26.2262C16.1253 26.2262 15.9192 26.1847 15.727 26.1042C15.5348 26.0237 15.3602 25.9057 15.2131 25.7569L10.4631 20.9569Z" fill="url(#paint0_linear_2096_14452)"/>
<defs>
<linearGradient id="paint0_linear_2096_14452" x1="19.5" y1="0.625" x2="19.5" y2="34.2917" gradientUnits="userSpaceOnUse">
<stop stop-color="#2D4949"/>
<stop offset="0.99" stop-color="#31B2B2"/>
</linearGradient>
</defs>
</svg>
