<svg width="39" height="41" viewBox="0 0 39 41" fill="none" xmlns="http://www.w3.org/2000/svg">
<path d="M7.16857 16.553L0.835449 9.8865C0.688241 9.73171 0.57146 9.5479 0.491782 9.34558C0.412105 9.14325 0.371094 8.92638 0.371094 8.70736C0.371094 8.48834 0.412105 8.27146 0.491782 8.06914C0.57146 7.86681 0.688241 7.683 0.835449 7.52822L7.16857 0.861706C7.46566 0.548979 7.8686 0.373291 8.28875 0.373291C8.70889 0.373291 9.11183 0.548979 9.40892 0.861706C9.70601 1.17443 9.87291 1.59858 9.87291 2.04085C9.87291 2.48311 9.70601 2.90726 9.40892 3.21999L4.19399 8.70736L9.40892 14.1947C9.70601 14.5075 9.87291 14.9316 9.87291 15.3739C9.87291 15.8161 9.70601 16.2403 9.40892 16.553C9.11183 16.8657 8.70889 17.0414 8.28875 17.0414C7.8686 17.0414 7.46566 16.8657 7.16857 16.553ZM15.085 16.553C15.232 16.708 15.4066 16.8309 15.5989 16.9148C15.7911 16.9986 15.9971 17.0418 16.2052 17.0418C16.4132 17.0418 16.6192 16.9986 16.8115 16.9148C17.0037 16.8309 17.1783 16.708 17.3253 16.553L23.6585 9.8865C23.8057 9.73171 23.9224 9.5479 24.0021 9.34558C24.0818 9.14325 24.1228 8.92638 24.1228 8.70736C24.1228 8.48834 24.0818 8.27146 24.0021 8.06914C23.9224 7.86681 23.8057 7.683 23.6585 7.52822L17.3253 0.861706C17.0282 0.548979 16.6253 0.373291 16.2052 0.373291C15.785 0.373291 15.3821 0.548979 15.085 0.861706C14.7879 1.17443 14.621 1.59858 14.621 2.04085C14.621 2.48311 14.7879 2.90726 15.085 3.21999L20.2999 8.70736L15.085 14.1947C14.9378 14.3495 14.821 14.5333 14.7413 14.7357C14.6616 14.938 14.6206 15.1548 14.6206 15.3739C14.6206 15.5929 14.6616 15.8098 14.7413 16.0121C14.821 16.2144 14.9378 16.3982 15.085 16.553ZM35.2045 3.70747H30.4547C30.0348 3.70747 29.6321 3.88306 29.3351 4.19562C29.0382 4.50817 28.8714 4.93208 28.8714 5.3741C28.8714 5.81612 29.0382 6.24003 29.3351 6.55259C29.6321 6.86514 30.0348 7.04073 30.4547 7.04073H35.2045V37.04H6.70547V23.707C6.70547 23.265 6.53866 22.8411 6.24173 22.5285C5.94481 22.216 5.5421 22.0404 5.12218 22.0404C4.70227 22.0404 4.29956 22.216 4.00263 22.5285C3.70571 22.8411 3.5389 23.265 3.5389 23.707V37.04C3.5389 37.9241 3.87252 38.7719 4.46637 39.397C5.06021 40.0221 5.86564 40.3733 6.70547 40.3733H35.2045C36.0444 40.3733 36.8498 40.0221 37.4436 39.397C38.0375 38.7719 38.3711 37.9241 38.3711 37.04V7.04073C38.3711 6.1567 38.0375 5.30887 37.4436 4.68376C36.8498 4.05866 36.0444 3.70747 35.2045 3.70747Z" fill="white"/>
<path d="M7.16857 16.553L0.835449 9.8865C0.688241 9.73171 0.57146 9.5479 0.491782 9.34558C0.412105 9.14325 0.371094 8.92638 0.371094 8.70736C0.371094 8.48834 0.412105 8.27146 0.491782 8.06914C0.57146 7.86681 0.688241 7.683 0.835449 7.52822L7.16857 0.861706C7.46566 0.548979 7.8686 0.373291 8.28875 0.373291C8.70889 0.373291 9.11183 0.548979 9.40892 0.861706C9.70601 1.17443 9.87291 1.59858 9.87291 2.04085C9.87291 2.48311 9.70601 2.90726 9.40892 3.21999L4.19399 8.70736L9.40892 14.1947C9.70601 14.5075 9.87291 14.9316 9.87291 15.3739C9.87291 15.8161 9.70601 16.2403 9.40892 16.553C9.11183 16.8657 8.70889 17.0414 8.28875 17.0414C7.8686 17.0414 7.46566 16.8657 7.16857 16.553ZM15.085 16.553C15.232 16.708 15.4066 16.8309 15.5989 16.9148C15.7911 16.9986 15.9971 17.0418 16.2052 17.0418C16.4132 17.0418 16.6192 16.9986 16.8115 16.9148C17.0037 16.8309 17.1783 16.708 17.3253 16.553L23.6585 9.8865C23.8057 9.73171 23.9224 9.5479 24.0021 9.34558C24.0818 9.14325 24.1228 8.92638 24.1228 8.70736C24.1228 8.48834 24.0818 8.27146 24.0021 8.06914C23.9224 7.86681 23.8057 7.683 23.6585 7.52822L17.3253 0.861706C17.0282 0.548979 16.6253 0.373291 16.2052 0.373291C15.785 0.373291 15.3821 0.548979 15.085 0.861706C14.7879 1.17443 14.621 1.59858 14.621 2.04085C14.621 2.48311 14.7879 2.90726 15.085 3.21999L20.2999 8.70736L15.085 14.1947C14.9378 14.3495 14.821 14.5333 14.7413 14.7357C14.6616 14.938 14.6206 15.1548 14.6206 15.3739C14.6206 15.5929 14.6616 15.8098 14.7413 16.0121C14.821 16.2144 14.9378 16.3982 15.085 16.553ZM35.2045 3.70747H30.4547C30.0348 3.70747 29.6321 3.88306 29.3351 4.19562C29.0382 4.50817 28.8714 4.93208 28.8714 5.3741C28.8714 5.81612 29.0382 6.24003 29.3351 6.55259C29.6321 6.86514 30.0348 7.04073 30.4547 7.04073H35.2045V37.04H6.70547V23.707C6.70547 23.265 6.53866 22.8411 6.24173 22.5285C5.94481 22.216 5.5421 22.0404 5.12218 22.0404C4.70227 22.0404 4.29956 22.216 4.00263 22.5285C3.70571 22.8411 3.5389 23.265 3.5389 23.707V37.04C3.5389 37.9241 3.87252 38.7719 4.46637 39.397C5.06021 40.0221 5.86564 40.3733 6.70547 40.3733H35.2045C36.0444 40.3733 36.8498 40.0221 37.4436 39.397C38.0375 38.7719 38.3711 37.9241 38.3711 37.04V7.04073C38.3711 6.1567 38.0375 5.30887 37.4436 4.68376C36.8498 4.05866 36.0444 3.70747 35.2045 3.70747Z" fill="url(#paint0_linear_2096_14453)"/>
<path d="M17.4904 29.2302C17.4198 29.0154 17.2276 28.8712 17.0116 28.8712H14.353C14.137 28.8712 13.9448 29.0154 13.8742 29.2302L13.5507 30.2146C13.4801 30.4295 13.2879 30.5736 13.0719 30.5736H12.3656C12.0148 30.5736 11.7702 30.2075 11.8887 29.86L14.5769 21.9797C14.6492 21.7679 14.84 21.6266 15.0538 21.6266H16.323C16.5368 21.6266 16.7276 21.7679 16.7998 21.9797L19.488 29.86C19.6066 30.2075 19.3619 30.5736 19.0112 30.5736H18.2927C18.0767 30.5736 17.8845 30.4295 17.8139 30.2146L17.4904 29.2302ZM16.1991 27.4377C16.5473 27.4377 16.7917 27.0764 16.6779 26.73L16.1611 25.1573C16.0038 24.6787 15.3608 24.6787 15.2035 25.1573L14.6867 26.73C14.5729 27.0764 14.8173 27.4377 15.1655 27.4377H16.1991Z" fill="white"/>
<path d="M17.4904 29.2302C17.4198 29.0154 17.2276 28.8712 17.0116 28.8712H14.353C14.137 28.8712 13.9448 29.0154 13.8742 29.2302L13.5507 30.2146C13.4801 30.4295 13.2879 30.5736 13.0719 30.5736H12.3656C12.0148 30.5736 11.7702 30.2075 11.8887 29.86L14.5769 21.9797C14.6492 21.7679 14.84 21.6266 15.0538 21.6266H16.323C16.5368 21.6266 16.7276 21.7679 16.7998 21.9797L19.488 29.86C19.6066 30.2075 19.3619 30.5736 19.0112 30.5736H18.2927C18.0767 30.5736 17.8845 30.4295 17.8139 30.2146L17.4904 29.2302ZM16.1991 27.4377C16.5473 27.4377 16.7917 27.0764 16.6779 26.73L16.1611 25.1573C16.0038 24.6787 15.3608 24.6787 15.2035 25.1573L14.6867 26.73C14.5729 27.0764 14.8173 27.4377 15.1655 27.4377H16.1991Z" fill="url(#paint1_linear_2096_14453)"/>
<path d="M27.0615 24.4041C27.0615 24.882 26.9521 25.33 26.7332 25.7481C26.5224 26.1662 26.186 26.5033 25.7239 26.7593C25.27 27.0153 24.6944 27.1433 23.9973 27.1433H23.0813C22.8014 27.1433 22.5746 27.382 22.5746 27.6766V30.0403C22.5746 30.3348 22.3478 30.5736 22.068 30.5736H21.3789C21.0991 30.5736 20.8723 30.3348 20.8723 30.0403V22.1727C20.8723 21.8782 21.0991 21.6394 21.3789 21.6394H23.9973C24.6539 21.6394 25.2132 21.7589 25.6753 21.9978C26.1374 22.2367 26.4819 22.5652 26.7089 22.9834C26.944 23.4015 27.0615 23.8751 27.0615 24.4041ZM23.9243 25.6969C24.3945 25.6969 24.7431 25.586 24.97 25.3641C25.197 25.1337 25.3105 24.8137 25.3105 24.4041C25.3105 23.5337 24.8484 23.0986 23.9243 23.0986H23.0813C22.8014 23.0986 22.5746 23.3373 22.5746 23.6319V25.1636C22.5746 25.4581 22.8014 25.6969 23.0813 25.6969H23.9243Z" fill="white"/>
<path d="M27.0615 24.4041C27.0615 24.882 26.9521 25.33 26.7332 25.7481C26.5224 26.1662 26.186 26.5033 25.7239 26.7593C25.27 27.0153 24.6944 27.1433 23.9973 27.1433H23.0813C22.8014 27.1433 22.5746 27.382 22.5746 27.6766V30.0403C22.5746 30.3348 22.3478 30.5736 22.068 30.5736H21.3789C21.0991 30.5736 20.8723 30.3348 20.8723 30.0403V22.1727C20.8723 21.8782 21.0991 21.6394 21.3789 21.6394H23.9973C24.6539 21.6394 25.2132 21.7589 25.6753 21.9978C26.1374 22.2367 26.4819 22.5652 26.7089 22.9834C26.944 23.4015 27.0615 23.8751 27.0615 24.4041ZM23.9243 25.6969C24.3945 25.6969 24.7431 25.586 24.97 25.3641C25.197 25.1337 25.3105 24.8137 25.3105 24.4041C25.3105 23.5337 24.8484 23.0986 23.9243 23.0986H23.0813C22.8014 23.0986 22.5746 23.3373 22.5746 23.6319V25.1636C22.5746 25.4581 22.8014 25.6969 23.0813 25.6969H23.9243Z" fill="url(#paint2_linear_2096_14453)"/>
<path d="M29.4658 21.6394C29.7456 21.6394 29.9725 21.8782 29.9725 22.1727V30.0403C29.9725 30.3348 29.7456 30.5736 29.4658 30.5736H28.7768C28.497 30.5736 28.2701 30.3348 28.2701 30.0403V22.1727C28.2701 21.8782 28.497 21.6394 28.7768 21.6394H29.4658Z" fill="white"/>
<path d="M29.4658 21.6394C29.7456 21.6394 29.9725 21.8782 29.9725 22.1727V30.0403C29.9725 30.3348 29.7456 30.5736 29.4658 30.5736H28.7768C28.497 30.5736 28.2701 30.3348 28.2701 30.0403V22.1727C28.2701 21.8782 28.497 21.6394 28.7768 21.6394H29.4658Z" fill="url(#paint3_linear_2096_14453)"/>
<defs>
<linearGradient id="paint0_linear_2096_14453" x1="19.3711" y1="0.373291" x2="19.3711" y2="34.04" gradientUnits="userSpaceOnUse">
<stop stop-color="#2D4949"/>
<stop offset="0.99" stop-color="#31B2B2"/>
</linearGradient>
<linearGradient id="paint1_linear_2096_14453" x1="19.3711" y1="0.373291" x2="19.3711" y2="34.04" gradientUnits="userSpaceOnUse">
<stop stop-color="#2D4949"/>
<stop offset="0.99" stop-color="#31B2B2"/>
</linearGradient>
<linearGradient id="paint2_linear_2096_14453" x1="19.3711" y1="0.373291" x2="19.3711" y2="34.04" gradientUnits="userSpaceOnUse">
<stop stop-color="#2D4949"/>
<stop offset="0.99" stop-color="#31B2B2"/>
</linearGradient>
<linearGradient id="paint3_linear_2096_14453" x1="19.3711" y1="0.373291" x2="19.3711" y2="34.04" gradientUnits="userSpaceOnUse">
<stop stop-color="#2D4949"/>
<stop offset="0.99" stop-color="#31B2B2"/>
</linearGradient>
</defs>
</svg>
