<svg width="500" height="560" viewBox="0 0 500 560" fill="none" xmlns="http://www.w3.org/2000/svg">
<rect x="0.25" y="0.25" width="499.5" height="559.5" rx="15.75" stroke="url(#paint0_linear_1236_7087)" stroke-width="0.5"/>
<path d="M0 124C86.1365 124 156 193.864 156 280C156 366.136 86.1365 436 0 436" fill="url(#paint1_linear_1236_7087)"/>
<path d="M0 124C86.1365 124 156 193.864 156 280C156 366.136 86.1365 436 0 436" stroke="url(#paint2_linear_1236_7087)" stroke-miterlimit="10"/>
<path d="M0 180C55.2157 180 100 224.784 100 280C100 335.216 55.2157 380 0 380" fill="url(#paint3_linear_1236_7087)"/>
<path d="M0 180C55.2157 180 100 224.784 100 280C100 335.216 55.2157 380 0 380" stroke="url(#paint4_linear_1236_7087)" stroke-width="0.5" stroke-miterlimit="10"/>
<path d="M0 226C29.8165 226 54 250.184 54 280C54 309.816 29.8165 334 0 334" fill="url(#paint5_linear_1236_7087)"/>
<path d="M0 226C29.8165 226 54 250.184 54 280C54 309.816 29.8165 334 0 334" stroke="url(#paint6_linear_1236_7087)" stroke-width="0.5" stroke-miterlimit="10"/>
<rect x="130.5" y="91.5" width="239" height="47" rx="23.5" fill="url(#paint7_linear_1236_7087)"/>
<rect x="130.5" y="91.5" width="239" height="47" rx="23.5" stroke="url(#paint8_linear_1236_7087)"/>
<path d="M160.288 121.112C159.253 121.112 158.309 120.872 157.456 120.392C156.603 119.901 155.925 119.224 155.424 118.36C154.933 117.485 154.688 116.504 154.688 115.416C154.688 114.328 154.933 113.352 155.424 112.488C155.925 111.613 156.603 110.936 157.456 110.456C158.309 109.965 159.253 109.72 160.288 109.72C161.333 109.72 162.283 109.965 163.136 110.456C163.989 110.936 164.661 111.608 165.152 112.472C165.643 113.336 165.888 114.317 165.888 115.416C165.888 116.515 165.643 117.496 165.152 118.36C164.661 119.224 163.989 119.901 163.136 120.392C162.283 120.872 161.333 121.112 160.288 121.112ZM160.288 119.848C161.067 119.848 161.765 119.667 162.384 119.304C163.013 118.941 163.504 118.424 163.856 117.752C164.219 117.08 164.4 116.301 164.4 115.416C164.4 114.52 164.219 113.741 163.856 113.08C163.504 112.408 163.019 111.891 162.4 111.528C161.781 111.165 161.077 110.984 160.288 110.984C159.499 110.984 158.795 111.165 158.176 111.528C157.557 111.891 157.067 112.408 156.704 113.08C156.352 113.741 156.176 114.52 156.176 115.416C156.176 116.301 156.352 117.08 156.704 117.752C157.067 118.424 157.557 118.941 158.176 119.304C158.805 119.667 159.509 119.848 160.288 119.848ZM169.766 113.848C170.054 113.347 170.481 112.931 171.046 112.6C171.622 112.259 172.289 112.088 173.046 112.088C173.825 112.088 174.529 112.275 175.158 112.648C175.798 113.021 176.299 113.549 176.662 114.232C177.025 114.904 177.206 115.688 177.206 116.584C177.206 117.469 177.025 118.259 176.662 118.952C176.299 119.645 175.798 120.184 175.158 120.568C174.529 120.952 173.825 121.144 173.046 121.144C172.299 121.144 171.638 120.979 171.062 120.648C170.497 120.307 170.065 119.885 169.766 119.384V125.16H168.31V112.232H169.766V113.848ZM175.718 116.584C175.718 115.923 175.585 115.347 175.318 114.856C175.051 114.365 174.689 113.992 174.23 113.736C173.782 113.48 173.286 113.352 172.742 113.352C172.209 113.352 171.713 113.485 171.254 113.752C170.806 114.008 170.443 114.387 170.166 114.888C169.899 115.379 169.766 115.949 169.766 116.6C169.766 117.261 169.899 117.843 170.166 118.344C170.443 118.835 170.806 119.213 171.254 119.48C171.713 119.736 172.209 119.864 172.742 119.864C173.286 119.864 173.782 119.736 174.23 119.48C174.689 119.213 175.051 118.835 175.318 118.344C175.585 117.843 175.718 117.256 175.718 116.584ZM181.399 113.432V118.6C181.399 119.027 181.489 119.331 181.671 119.512C181.852 119.683 182.167 119.768 182.615 119.768H183.687V121H182.375C181.564 121 180.956 120.813 180.551 120.44C180.145 120.067 179.943 119.453 179.943 118.6V113.432H178.807V112.232H179.943V110.024H181.399V112.232H183.687V113.432H181.399ZM186.703 110.808C186.425 110.808 186.191 110.712 185.999 110.52C185.807 110.328 185.711 110.093 185.711 109.816C185.711 109.539 185.807 109.304 185.999 109.112C186.191 108.92 186.425 108.824 186.703 108.824C186.969 108.824 187.193 108.92 187.375 109.112C187.567 109.304 187.663 109.539 187.663 109.816C187.663 110.093 187.567 110.328 187.375 110.52C187.193 110.712 186.969 110.808 186.703 110.808ZM187.407 112.232V121H185.951V112.232H187.407ZM200.932 112.072C201.615 112.072 202.223 112.216 202.756 112.504C203.29 112.781 203.711 113.203 204.02 113.768C204.33 114.333 204.484 115.021 204.484 115.832V121H203.044V116.04C203.044 115.165 202.826 114.499 202.388 114.04C201.962 113.571 201.38 113.336 200.644 113.336C199.887 113.336 199.284 113.581 198.836 114.072C198.388 114.552 198.164 115.251 198.164 116.168V121H196.724V116.04C196.724 115.165 196.506 114.499 196.068 114.04C195.642 113.571 195.06 113.336 194.324 113.336C193.567 113.336 192.964 113.581 192.516 114.072C192.068 114.552 191.844 115.251 191.844 116.168V121H190.388V112.232H191.844V113.496C192.132 113.037 192.516 112.685 192.996 112.44C193.487 112.195 194.026 112.072 194.612 112.072C195.348 112.072 195.999 112.237 196.564 112.568C197.13 112.899 197.551 113.384 197.828 114.024C198.074 113.405 198.479 112.925 199.044 112.584C199.61 112.243 200.239 112.072 200.932 112.072ZM208.125 110.808C207.847 110.808 207.613 110.712 207.421 110.52C207.229 110.328 207.133 110.093 207.133 109.816C207.133 109.539 207.229 109.304 207.421 109.112C207.613 108.92 207.847 108.824 208.125 108.824C208.391 108.824 208.615 108.92 208.797 109.112C208.989 109.304 209.085 109.539 209.085 109.816C209.085 110.093 208.989 110.328 208.797 110.52C208.615 110.712 208.391 110.808 208.125 110.808ZM208.829 112.232V121H207.373V112.232H208.829ZM214.914 121.144C214.242 121.144 213.639 121.032 213.106 120.808C212.573 120.573 212.151 120.253 211.842 119.848C211.533 119.432 211.362 118.957 211.33 118.424H212.834C212.877 118.861 213.079 119.219 213.442 119.496C213.815 119.773 214.301 119.912 214.898 119.912C215.453 119.912 215.89 119.789 216.21 119.544C216.53 119.299 216.69 118.989 216.69 118.616C216.69 118.232 216.519 117.949 216.178 117.768C215.837 117.576 215.309 117.389 214.594 117.208C213.943 117.037 213.41 116.867 212.994 116.696C212.589 116.515 212.237 116.253 211.938 115.912C211.65 115.56 211.506 115.101 211.506 114.536C211.506 114.088 211.639 113.677 211.906 113.304C212.173 112.931 212.551 112.637 213.042 112.424C213.533 112.2 214.093 112.088 214.722 112.088C215.693 112.088 216.477 112.333 217.074 112.824C217.671 113.315 217.991 113.987 218.034 114.84H216.578C216.546 114.381 216.359 114.013 216.018 113.736C215.687 113.459 215.239 113.32 214.674 113.32C214.151 113.32 213.735 113.432 213.426 113.656C213.117 113.88 212.962 114.173 212.962 114.536C212.962 114.824 213.053 115.064 213.234 115.256C213.426 115.437 213.661 115.587 213.938 115.704C214.226 115.811 214.621 115.933 215.122 116.072C215.751 116.243 216.263 116.413 216.658 116.584C217.053 116.744 217.389 116.989 217.666 117.32C217.954 117.651 218.103 118.083 218.114 118.616C218.114 119.096 217.981 119.528 217.714 119.912C217.447 120.296 217.069 120.6 216.578 120.824C216.098 121.037 215.543 121.144 214.914 121.144ZM228.67 116.28C228.67 116.557 228.654 116.851 228.622 117.16H221.614C221.667 118.024 221.96 118.701 222.494 119.192C223.038 119.672 223.694 119.912 224.462 119.912C225.091 119.912 225.614 119.768 226.03 119.48C226.456 119.181 226.755 118.787 226.926 118.296H228.494C228.259 119.139 227.79 119.827 227.086 120.36C226.382 120.883 225.507 121.144 224.462 121.144C223.63 121.144 222.883 120.957 222.222 120.584C221.571 120.211 221.059 119.683 220.686 119C220.312 118.307 220.126 117.507 220.126 116.6C220.126 115.693 220.307 114.899 220.67 114.216C221.032 113.533 221.539 113.011 222.19 112.648C222.851 112.275 223.608 112.088 224.462 112.088C225.294 112.088 226.03 112.269 226.67 112.632C227.31 112.995 227.8 113.496 228.142 114.136C228.494 114.765 228.67 115.48 228.67 116.28ZM227.166 115.976C227.166 115.421 227.043 114.947 226.798 114.552C226.552 114.147 226.216 113.843 225.79 113.64C225.374 113.427 224.91 113.32 224.398 113.32C223.662 113.32 223.032 113.555 222.51 114.024C221.998 114.493 221.704 115.144 221.63 115.976H227.166ZM243.313 113.112C243.313 114.04 242.993 114.813 242.353 115.432C241.724 116.04 240.758 116.344 239.457 116.344H237.313V121H235.857V109.848H239.457C240.716 109.848 241.67 110.152 242.321 110.76C242.982 111.368 243.313 112.152 243.313 113.112ZM239.457 115.144C240.268 115.144 240.865 114.968 241.249 114.616C241.633 114.264 241.825 113.763 241.825 113.112C241.825 111.736 241.036 111.048 239.457 111.048H237.313V115.144H239.457ZM245.079 116.584C245.079 115.688 245.26 114.904 245.623 114.232C245.985 113.549 246.481 113.021 247.111 112.648C247.751 112.275 248.46 112.088 249.239 112.088C250.007 112.088 250.673 112.253 251.239 112.584C251.804 112.915 252.225 113.331 252.503 113.832V112.232H253.975V121H252.503V119.368C252.215 119.88 251.783 120.307 251.207 120.648C250.641 120.979 249.98 121.144 249.223 121.144C248.444 121.144 247.74 120.952 247.111 120.568C246.481 120.184 245.985 119.645 245.623 118.952C245.26 118.259 245.079 117.469 245.079 116.584ZM252.503 116.6C252.503 115.939 252.369 115.363 252.103 114.872C251.836 114.381 251.473 114.008 251.015 113.752C250.567 113.485 250.071 113.352 249.527 113.352C248.983 113.352 248.487 113.48 248.039 113.736C247.591 113.992 247.233 114.365 246.967 114.856C246.7 115.347 246.567 115.923 246.567 116.584C246.567 117.256 246.7 117.843 246.967 118.344C247.233 118.835 247.591 119.213 248.039 119.48C248.487 119.736 248.983 119.864 249.527 119.864C250.071 119.864 250.567 119.736 251.015 119.48C251.473 119.213 251.836 118.835 252.103 118.344C252.369 117.843 252.503 117.261 252.503 116.6ZM264.487 112.232L259.207 125.128H257.703L259.431 120.904L255.895 112.232H257.511L260.263 119.336L262.983 112.232H264.487ZM276.995 112.072C277.677 112.072 278.285 112.216 278.819 112.504C279.352 112.781 279.773 113.203 280.083 113.768C280.392 114.333 280.547 115.021 280.547 115.832V121H279.107V116.04C279.107 115.165 278.888 114.499 278.451 114.04C278.024 113.571 277.443 113.336 276.707 113.336C275.949 113.336 275.347 113.581 274.899 114.072C274.451 114.552 274.227 115.251 274.227 116.168V121H272.787V116.04C272.787 115.165 272.568 114.499 272.131 114.04C271.704 113.571 271.123 113.336 270.387 113.336C269.629 113.336 269.027 113.581 268.579 114.072C268.131 114.552 267.907 115.251 267.907 116.168V121H266.451V112.232H267.907V113.496C268.195 113.037 268.579 112.685 269.059 112.44C269.549 112.195 270.088 112.072 270.675 112.072C271.411 112.072 272.061 112.237 272.627 112.568C273.192 112.899 273.613 113.384 273.891 114.024C274.136 113.405 274.541 112.925 275.107 112.584C275.672 112.243 276.301 112.072 276.995 112.072ZM291.435 116.28C291.435 116.557 291.419 116.851 291.387 117.16H284.379C284.432 118.024 284.726 118.701 285.259 119.192C285.803 119.672 286.459 119.912 287.227 119.912C287.856 119.912 288.379 119.768 288.795 119.48C289.222 119.181 289.52 118.787 289.691 118.296H291.259C291.024 119.139 290.555 119.827 289.851 120.36C289.147 120.883 288.272 121.144 287.227 121.144C286.395 121.144 285.648 120.957 284.987 120.584C284.336 120.211 283.824 119.683 283.451 119C283.078 118.307 282.891 117.507 282.891 116.6C282.891 115.693 283.072 114.899 283.435 114.216C283.798 113.533 284.304 113.011 284.955 112.648C285.616 112.275 286.374 112.088 287.227 112.088C288.059 112.088 288.795 112.269 289.435 112.632C290.075 112.995 290.566 113.496 290.907 114.136C291.259 114.765 291.435 115.48 291.435 116.28ZM289.931 115.976C289.931 115.421 289.808 114.947 289.563 114.552C289.318 114.147 288.982 113.843 288.555 113.64C288.139 113.427 287.675 113.32 287.163 113.32C286.427 113.32 285.798 113.555 285.275 114.024C284.763 114.493 284.47 115.144 284.395 115.976H289.931ZM298.129 112.072C299.196 112.072 300.06 112.397 300.721 113.048C301.382 113.688 301.713 114.616 301.713 115.832V121H300.273V116.04C300.273 115.165 300.054 114.499 299.617 114.04C299.18 113.571 298.582 113.336 297.825 113.336C297.057 113.336 296.444 113.576 295.985 114.056C295.537 114.536 295.313 115.235 295.313 116.152V121H293.857V112.232H295.313V113.48C295.601 113.032 295.99 112.685 296.481 112.44C296.982 112.195 297.532 112.072 298.129 112.072ZM306.367 113.432V118.6C306.367 119.027 306.458 119.331 306.639 119.512C306.821 119.683 307.135 119.768 307.583 119.768H308.655V121H307.343C306.533 121 305.925 120.813 305.519 120.44C305.114 120.067 304.911 119.453 304.911 118.6V113.432H303.775V112.232H304.911V110.024H306.367V112.232H308.655V113.432H306.367ZM314.024 121.144C313.352 121.144 312.749 121.032 312.216 120.808C311.682 120.573 311.261 120.253 310.952 119.848C310.642 119.432 310.472 118.957 310.44 118.424H311.944C311.986 118.861 312.189 119.219 312.552 119.496C312.925 119.773 313.41 119.912 314.008 119.912C314.562 119.912 315 119.789 315.32 119.544C315.64 119.299 315.8 118.989 315.8 118.616C315.8 118.232 315.629 117.949 315.288 117.768C314.946 117.576 314.418 117.389 313.704 117.208C313.053 117.037 312.52 116.867 312.104 116.696C311.698 116.515 311.346 116.253 311.048 115.912C310.76 115.56 310.616 115.101 310.616 114.536C310.616 114.088 310.749 113.677 311.016 113.304C311.282 112.931 311.661 112.637 312.152 112.424C312.642 112.2 313.202 112.088 313.832 112.088C314.802 112.088 315.586 112.333 316.184 112.824C316.781 113.315 317.101 113.987 317.144 114.84H315.688C315.656 114.381 315.469 114.013 315.128 113.736C314.797 113.459 314.349 113.32 313.784 113.32C313.261 113.32 312.845 113.432 312.536 113.656C312.226 113.88 312.072 114.173 312.072 114.536C312.072 114.824 312.162 115.064 312.344 115.256C312.536 115.437 312.77 115.587 313.048 115.704C313.336 115.811 313.73 115.933 314.232 116.072C314.861 116.243 315.373 116.413 315.768 116.584C316.162 116.744 316.498 116.989 316.776 117.32C317.064 117.651 317.213 118.083 317.224 118.616C317.224 119.096 317.09 119.528 316.824 119.912C316.557 120.296 316.178 120.6 315.688 120.824C315.208 121.037 314.653 121.144 314.024 121.144Z" fill="white"/>
<path d="M93.5 153.5L124 119" stroke="url(#paint9_linear_1236_7087)" stroke-miterlimit="10"/>
<path d="M93 148.5C89.9332 148.5 87.5 150.933 87.5 154C87.5 157.067 89.9332 159.5 93 159.5C96.0669 159.5 98.5 157.067 98.5 154C98.5 150.933 96.0669 148.5 93 148.5Z" fill="url(#paint10_linear_1236_7087)" stroke="url(#paint11_linear_1236_7087)"/>
<path d="M142.5 118C142.5 127.665 134.665 135.5 125 135.5C115.335 135.5 107.5 127.665 107.5 118C107.5 108.335 115.335 100.5 125 100.5C134.665 100.5 142.5 108.335 142.5 118Z" fill="url(#paint12_linear_1236_7087)" stroke="url(#paint13_linear_1236_7087)"/>
<rect x="191.5" y="175.5" width="239" height="47" rx="23.5" fill="url(#paint14_linear_1236_7087)"/>
<rect x="191.5" y="175.5" width="239" height="47" rx="23.5" stroke="url(#paint15_linear_1236_7087)"/>
<path d="M222.824 203.02H217.96L217.064 205.5H215.528L219.56 194.412H221.24L225.256 205.5H223.72L222.824 203.02ZM222.408 201.836L220.392 196.204L218.376 201.836H222.408ZM235.289 196.732V205.5H233.833V204.204C233.556 204.652 233.167 205.004 232.665 205.26C232.175 205.505 231.631 205.628 231.033 205.628C230.351 205.628 229.737 205.489 229.193 205.212C228.649 204.924 228.217 204.497 227.897 203.932C227.588 203.367 227.433 202.679 227.433 201.868V196.732H228.873V201.676C228.873 202.54 229.092 203.207 229.529 203.676C229.967 204.135 230.564 204.364 231.321 204.364C232.1 204.364 232.713 204.124 233.161 203.644C233.609 203.164 233.833 202.465 233.833 201.548V196.732H235.289ZM240.024 197.932V203.1C240.024 203.527 240.114 203.831 240.296 204.012C240.477 204.183 240.792 204.268 241.24 204.268H242.312V205.5H241C240.189 205.5 239.581 205.313 239.176 204.94C238.77 204.567 238.568 203.953 238.568 203.1V197.932H237.432V196.732H238.568V194.524H240.024V196.732H242.312V197.932H240.024ZM248.928 196.572C249.589 196.572 250.186 196.716 250.72 197.004C251.253 197.281 251.669 197.703 251.968 198.268C252.277 198.833 252.432 199.521 252.432 200.332V205.5H250.992V200.54C250.992 199.665 250.773 198.999 250.336 198.54C249.898 198.071 249.301 197.836 248.544 197.836C247.776 197.836 247.162 198.076 246.704 198.556C246.256 199.036 246.032 199.735 246.032 200.652V205.5H244.576V193.66H246.032V197.98C246.32 197.532 246.714 197.185 247.216 196.94C247.728 196.695 248.298 196.572 248.928 196.572ZM259.134 205.644C258.313 205.644 257.566 205.457 256.894 205.084C256.233 204.711 255.71 204.183 255.326 203.5C254.953 202.807 254.766 202.007 254.766 201.1C254.766 200.204 254.958 199.415 255.342 198.732C255.737 198.039 256.27 197.511 256.942 197.148C257.614 196.775 258.366 196.588 259.198 196.588C260.03 196.588 260.782 196.775 261.454 197.148C262.126 197.511 262.654 198.033 263.038 198.716C263.433 199.399 263.63 200.193 263.63 201.1C263.63 202.007 263.427 202.807 263.022 203.5C262.627 204.183 262.089 204.711 261.406 205.084C260.723 205.457 259.966 205.644 259.134 205.644ZM259.134 204.364C259.657 204.364 260.147 204.241 260.606 203.996C261.065 203.751 261.433 203.383 261.71 202.892C261.998 202.401 262.142 201.804 262.142 201.1C262.142 200.396 262.003 199.799 261.726 199.308C261.449 198.817 261.086 198.455 260.638 198.22C260.19 197.975 259.705 197.852 259.182 197.852C258.649 197.852 258.158 197.975 257.71 198.22C257.273 198.455 256.921 198.817 256.654 199.308C256.387 199.799 256.254 200.396 256.254 201.1C256.254 201.815 256.382 202.417 256.638 202.908C256.905 203.399 257.257 203.767 257.694 204.012C258.131 204.247 258.611 204.364 259.134 204.364ZM267.501 198.156C267.757 197.655 268.119 197.265 268.589 196.988C269.069 196.711 269.65 196.572 270.333 196.572V198.076H269.949C268.317 198.076 267.501 198.961 267.501 200.732V205.5H266.045V196.732H267.501V198.156ZM273.265 195.308C272.988 195.308 272.753 195.212 272.561 195.02C272.369 194.828 272.273 194.593 272.273 194.316C272.273 194.039 272.369 193.804 272.561 193.612C272.753 193.42 272.988 193.324 273.265 193.324C273.532 193.324 273.756 193.42 273.937 193.612C274.129 193.804 274.225 194.039 274.225 194.316C274.225 194.593 274.129 194.828 273.937 195.02C273.756 195.212 273.532 195.308 273.265 195.308ZM273.969 196.732V205.5H272.513V196.732H273.969ZM280.055 205.644C279.383 205.644 278.78 205.532 278.247 205.308C277.713 205.073 277.292 204.753 276.983 204.348C276.673 203.932 276.503 203.457 276.471 202.924H277.975C278.017 203.361 278.22 203.719 278.583 203.996C278.956 204.273 279.441 204.412 280.039 204.412C280.593 204.412 281.031 204.289 281.351 204.044C281.671 203.799 281.831 203.489 281.831 203.116C281.831 202.732 281.66 202.449 281.319 202.268C280.977 202.076 280.449 201.889 279.735 201.708C279.084 201.537 278.551 201.367 278.135 201.196C277.729 201.015 277.377 200.753 277.079 200.412C276.791 200.06 276.647 199.601 276.647 199.036C276.647 198.588 276.78 198.177 277.047 197.804C277.313 197.431 277.692 197.137 278.183 196.924C278.673 196.7 279.233 196.588 279.863 196.588C280.833 196.588 281.617 196.833 282.215 197.324C282.812 197.815 283.132 198.487 283.175 199.34H281.719C281.687 198.881 281.5 198.513 281.159 198.236C280.828 197.959 280.38 197.82 279.815 197.82C279.292 197.82 278.876 197.932 278.567 198.156C278.257 198.38 278.103 198.673 278.103 199.036C278.103 199.324 278.193 199.564 278.375 199.756C278.567 199.937 278.801 200.087 279.079 200.204C279.367 200.311 279.761 200.433 280.263 200.572C280.892 200.743 281.404 200.913 281.799 201.084C282.193 201.244 282.529 201.489 282.807 201.82C283.095 202.151 283.244 202.583 283.255 203.116C283.255 203.596 283.121 204.028 282.855 204.412C282.588 204.796 282.209 205.1 281.719 205.324C281.239 205.537 280.684 205.644 280.055 205.644ZM285.266 201.084C285.266 200.188 285.447 199.404 285.81 198.732C286.173 198.049 286.669 197.521 287.298 197.148C287.938 196.775 288.647 196.588 289.426 196.588C290.194 196.588 290.861 196.753 291.426 197.084C291.991 197.415 292.413 197.831 292.69 198.332V196.732H294.162V205.5H292.69V203.868C292.402 204.38 291.97 204.807 291.394 205.148C290.829 205.479 290.167 205.644 289.41 205.644C288.631 205.644 287.927 205.452 287.298 205.068C286.669 204.684 286.173 204.145 285.81 203.452C285.447 202.759 285.266 201.969 285.266 201.084ZM292.69 201.1C292.69 200.439 292.557 199.863 292.29 199.372C292.023 198.881 291.661 198.508 291.202 198.252C290.754 197.985 290.258 197.852 289.714 197.852C289.17 197.852 288.674 197.98 288.226 198.236C287.778 198.492 287.421 198.865 287.154 199.356C286.887 199.847 286.754 200.423 286.754 201.084C286.754 201.756 286.887 202.343 287.154 202.844C287.421 203.335 287.778 203.713 288.226 203.98C288.674 204.236 289.17 204.364 289.714 204.364C290.258 204.364 290.754 204.236 291.202 203.98C291.661 203.713 292.023 203.335 292.29 202.844C292.557 202.343 292.69 201.761 292.69 201.1ZM298.899 197.932V203.1C298.899 203.527 298.989 203.831 299.171 204.012C299.352 204.183 299.667 204.268 300.115 204.268H301.187V205.5H299.875C299.064 205.5 298.456 205.313 298.051 204.94C297.645 204.567 297.443 203.953 297.443 203.1V197.932H296.307V196.732H297.443V194.524H298.899V196.732H301.187V197.932H298.899ZM304.203 195.308C303.925 195.308 303.691 195.212 303.499 195.02C303.307 194.828 303.211 194.593 303.211 194.316C303.211 194.039 303.307 193.804 303.499 193.612C303.691 193.42 303.925 193.324 304.203 193.324C304.469 193.324 304.693 193.42 304.875 193.612C305.067 193.804 305.163 194.039 305.163 194.316C305.163 194.593 305.067 194.828 304.875 195.02C304.693 195.212 304.469 195.308 304.203 195.308ZM304.907 196.732V205.5H303.451V196.732H304.907ZM311.712 205.644C310.891 205.644 310.144 205.457 309.472 205.084C308.811 204.711 308.288 204.183 307.904 203.5C307.531 202.807 307.344 202.007 307.344 201.1C307.344 200.204 307.536 199.415 307.92 198.732C308.315 198.039 308.848 197.511 309.52 197.148C310.192 196.775 310.944 196.588 311.776 196.588C312.608 196.588 313.36 196.775 314.032 197.148C314.704 197.511 315.232 198.033 315.616 198.716C316.011 199.399 316.208 200.193 316.208 201.1C316.208 202.007 316.006 202.807 315.6 203.5C315.206 204.183 314.667 204.711 313.984 205.084C313.302 205.457 312.544 205.644 311.712 205.644ZM311.712 204.364C312.235 204.364 312.726 204.241 313.184 203.996C313.643 203.751 314.011 203.383 314.288 202.892C314.576 202.401 314.72 201.804 314.72 201.1C314.72 200.396 314.582 199.799 314.304 199.308C314.027 198.817 313.664 198.455 313.216 198.22C312.768 197.975 312.283 197.852 311.76 197.852C311.227 197.852 310.736 197.975 310.288 198.22C309.851 198.455 309.499 198.817 309.232 199.308C308.966 199.799 308.832 200.396 308.832 201.1C308.832 201.815 308.96 202.417 309.216 202.908C309.483 203.399 309.835 203.767 310.272 204.012C310.71 204.247 311.19 204.364 311.712 204.364ZM322.895 196.572C323.961 196.572 324.825 196.897 325.487 197.548C326.148 198.188 326.479 199.116 326.479 200.332V205.5H325.039V200.54C325.039 199.665 324.82 198.999 324.383 198.54C323.945 198.071 323.348 197.836 322.591 197.836C321.823 197.836 321.209 198.076 320.751 198.556C320.303 199.036 320.079 199.735 320.079 200.652V205.5H318.623V196.732H320.079V197.98C320.367 197.532 320.756 197.185 321.247 196.94C321.748 196.695 322.297 196.572 322.895 196.572ZM339.995 205.5L337.339 200.94H335.579V205.5H334.123V194.348H337.723C338.565 194.348 339.275 194.492 339.851 194.78C340.437 195.068 340.875 195.457 341.163 195.948C341.451 196.439 341.595 196.999 341.595 197.628C341.595 198.396 341.371 199.073 340.923 199.66C340.485 200.247 339.824 200.636 338.939 200.828L341.739 205.5H339.995ZM335.579 199.772H337.723C338.512 199.772 339.104 199.58 339.499 199.196C339.893 198.801 340.091 198.279 340.091 197.628C340.091 196.967 339.893 196.455 339.499 196.092C339.115 195.729 338.523 195.548 337.723 195.548H335.579V199.772ZM343.813 201.084C343.813 200.188 343.994 199.404 344.357 198.732C344.72 198.049 345.216 197.521 345.845 197.148C346.485 196.775 347.194 196.588 347.973 196.588C348.741 196.588 349.408 196.753 349.973 197.084C350.538 197.415 350.96 197.831 351.237 198.332V196.732H352.709V205.5H351.237V203.868C350.949 204.38 350.517 204.807 349.941 205.148C349.376 205.479 348.714 205.644 347.957 205.644C347.178 205.644 346.474 205.452 345.845 205.068C345.216 204.684 344.72 204.145 344.357 203.452C343.994 202.759 343.813 201.969 343.813 201.084ZM351.237 201.1C351.237 200.439 351.104 199.863 350.837 199.372C350.57 198.881 350.208 198.508 349.749 198.252C349.301 197.985 348.805 197.852 348.261 197.852C347.717 197.852 347.221 197.98 346.773 198.236C346.325 198.492 345.968 198.865 345.701 199.356C345.434 199.847 345.301 200.423 345.301 201.084C345.301 201.756 345.434 202.343 345.701 202.844C345.968 203.335 346.325 203.713 346.773 203.98C347.221 204.236 347.717 204.364 348.261 204.364C348.805 204.364 349.301 204.236 349.749 203.98C350.208 203.713 350.57 203.335 350.837 202.844C351.104 202.343 351.237 201.761 351.237 201.1ZM357.446 197.932V203.1C357.446 203.527 357.536 203.831 357.718 204.012C357.899 204.183 358.214 204.268 358.661 204.268H359.734V205.5H358.422C357.611 205.5 357.003 205.313 356.598 204.94C356.192 204.567 355.99 203.953 355.99 203.1V197.932H354.854V196.732H355.99V194.524H357.446V196.732H359.734V197.932H357.446ZM369.998 200.78C369.998 201.057 369.982 201.351 369.95 201.66H362.942C362.995 202.524 363.288 203.201 363.822 203.692C364.366 204.172 365.022 204.412 365.79 204.412C366.419 204.412 366.942 204.268 367.358 203.98C367.784 203.681 368.083 203.287 368.254 202.796H369.822C369.587 203.639 369.118 204.327 368.414 204.86C367.71 205.383 366.835 205.644 365.79 205.644C364.958 205.644 364.211 205.457 363.55 205.084C362.899 204.711 362.387 204.183 362.014 203.5C361.64 202.807 361.454 202.007 361.454 201.1C361.454 200.193 361.635 199.399 361.998 198.716C362.36 198.033 362.867 197.511 363.518 197.148C364.179 196.775 364.936 196.588 365.79 196.588C366.622 196.588 367.358 196.769 367.998 197.132C368.638 197.495 369.128 197.996 369.47 198.636C369.822 199.265 369.998 199.98 369.998 200.78ZM368.494 200.476C368.494 199.921 368.371 199.447 368.126 199.052C367.88 198.647 367.544 198.343 367.118 198.14C366.702 197.927 366.238 197.82 365.726 197.82C364.99 197.82 364.36 198.055 363.838 198.524C363.326 198.993 363.032 199.644 362.958 200.476H368.494ZM375.524 205.644C374.852 205.644 374.249 205.532 373.716 205.308C373.182 205.073 372.761 204.753 372.452 204.348C372.142 203.932 371.972 203.457 371.94 202.924H373.444C373.486 203.361 373.689 203.719 374.052 203.996C374.425 204.273 374.91 204.412 375.508 204.412C376.062 204.412 376.5 204.289 376.82 204.044C377.14 203.799 377.3 203.489 377.3 203.116C377.3 202.732 377.129 202.449 376.788 202.268C376.446 202.076 375.918 201.889 375.204 201.708C374.553 201.537 374.02 201.367 373.604 201.196C373.198 201.015 372.846 200.753 372.548 200.412C372.26 200.06 372.116 199.601 372.116 199.036C372.116 198.588 372.249 198.177 372.516 197.804C372.782 197.431 373.161 197.137 373.652 196.924C374.142 196.7 374.702 196.588 375.332 196.588C376.302 196.588 377.086 196.833 377.684 197.324C378.281 197.815 378.601 198.487 378.644 199.34H377.188C377.156 198.881 376.969 198.513 376.628 198.236C376.297 197.959 375.849 197.82 375.284 197.82C374.761 197.82 374.345 197.932 374.036 198.156C373.726 198.38 373.572 198.673 373.572 199.036C373.572 199.324 373.662 199.564 373.844 199.756C374.036 199.937 374.27 200.087 374.548 200.204C374.836 200.311 375.23 200.433 375.732 200.572C376.361 200.743 376.873 200.913 377.268 201.084C377.662 201.244 377.998 201.489 378.276 201.82C378.564 202.151 378.713 202.583 378.724 203.116C378.724 203.596 378.59 204.028 378.324 204.412C378.057 204.796 377.678 205.1 377.188 205.324C376.708 205.537 376.153 205.644 375.524 205.644Z" fill="white"/>
<path d="M140.5 211.5L184.5 199.5" stroke="url(#paint16_linear_1236_7087)" stroke-miterlimit="10"/>
<path d="M141 205.5C137.933 205.5 135.5 207.933 135.5 211C135.5 214.067 137.933 216.5 141 216.5C144.067 216.5 146.5 214.067 146.5 211C146.5 207.933 144.067 205.5 141 205.5Z" fill="url(#paint17_linear_1236_7087)" stroke="url(#paint18_linear_1236_7087)"/>
<path d="M203.5 199C203.5 208.665 195.665 216.5 186 216.5C176.335 216.5 168.5 208.665 168.5 199C168.5 189.335 176.335 181.5 186 181.5C195.665 181.5 203.5 189.335 203.5 199Z" fill="url(#paint19_linear_1236_7087)" stroke="url(#paint20_linear_1236_7087)"/>
<rect x="207.5" y="256.5" width="239" height="47" rx="23.5" fill="url(#paint21_linear_1236_7087)"/>
<rect x="207.5" y="256.5" width="239" height="47" rx="23.5" stroke="url(#paint22_linear_1236_7087)"/>
<path d="M239.688 278.612C239.688 279.54 239.368 280.313 238.728 280.932C238.099 281.54 237.133 281.844 235.832 281.844H233.688V286.5H232.232V275.348H235.832C237.091 275.348 238.045 275.652 238.696 276.26C239.357 276.868 239.688 277.652 239.688 278.612ZM235.832 280.644C236.643 280.644 237.24 280.468 237.624 280.116C238.008 279.764 238.2 279.263 238.2 278.612C238.2 277.236 237.411 276.548 235.832 276.548H233.688V280.644H235.832ZM241.454 282.084C241.454 281.188 241.635 280.404 241.998 279.732C242.36 279.049 242.856 278.521 243.486 278.148C244.126 277.775 244.835 277.588 245.614 277.588C246.382 277.588 247.048 277.753 247.614 278.084C248.179 278.415 248.6 278.831 248.878 279.332V277.732H250.35V286.5H248.878V284.868C248.59 285.38 248.158 285.807 247.582 286.148C247.016 286.479 246.355 286.644 245.598 286.644C244.819 286.644 244.115 286.452 243.486 286.068C242.856 285.684 242.36 285.145 241.998 284.452C241.635 283.759 241.454 282.969 241.454 282.084ZM248.878 282.1C248.878 281.439 248.744 280.863 248.478 280.372C248.211 279.881 247.848 279.508 247.39 279.252C246.942 278.985 246.446 278.852 245.902 278.852C245.358 278.852 244.862 278.98 244.414 279.236C243.966 279.492 243.608 279.865 243.342 280.356C243.075 280.847 242.942 281.423 242.942 282.084C242.942 282.756 243.075 283.343 243.342 283.844C243.608 284.335 243.966 284.713 244.414 284.98C244.862 285.236 245.358 285.364 245.902 285.364C246.446 285.364 246.942 285.236 247.39 284.98C247.848 284.713 248.211 284.335 248.478 283.844C248.744 283.343 248.878 282.761 248.878 282.1ZM260.862 277.732L255.582 290.628H254.078L255.806 286.404L252.27 277.732H253.886L256.638 284.836L259.358 277.732H260.862ZM273.37 277.572C274.052 277.572 274.66 277.716 275.194 278.004C275.727 278.281 276.148 278.703 276.458 279.268C276.767 279.833 276.922 280.521 276.922 281.332V286.5H275.482V281.54C275.482 280.665 275.263 279.999 274.826 279.54C274.399 279.071 273.818 278.836 273.082 278.836C272.324 278.836 271.722 279.081 271.274 279.572C270.826 280.052 270.602 280.751 270.602 281.668V286.5H269.162V281.54C269.162 280.665 268.943 279.999 268.506 279.54C268.079 279.071 267.498 278.836 266.762 278.836C266.004 278.836 265.402 279.081 264.954 279.572C264.506 280.052 264.282 280.751 264.282 281.668V286.5H262.826V277.732H264.282V278.996C264.57 278.537 264.954 278.185 265.434 277.94C265.924 277.695 266.463 277.572 267.05 277.572C267.786 277.572 268.436 277.737 269.002 278.068C269.567 278.399 269.988 278.884 270.266 279.524C270.511 278.905 270.916 278.425 271.482 278.084C272.047 277.743 272.676 277.572 273.37 277.572ZM287.81 281.78C287.81 282.057 287.794 282.351 287.762 282.66H280.754C280.807 283.524 281.101 284.201 281.634 284.692C282.178 285.172 282.834 285.412 283.602 285.412C284.231 285.412 284.754 285.268 285.17 284.98C285.597 284.681 285.895 284.287 286.066 283.796H287.634C287.399 284.639 286.93 285.327 286.226 285.86C285.522 286.383 284.647 286.644 283.602 286.644C282.77 286.644 282.023 286.457 281.362 286.084C280.711 285.711 280.199 285.183 279.826 284.5C279.453 283.807 279.266 283.007 279.266 282.1C279.266 281.193 279.447 280.399 279.81 279.716C280.173 279.033 280.679 278.511 281.33 278.148C281.991 277.775 282.749 277.588 283.602 277.588C284.434 277.588 285.17 277.769 285.81 278.132C286.45 278.495 286.941 278.996 287.282 279.636C287.634 280.265 287.81 280.98 287.81 281.78ZM286.306 281.476C286.306 280.921 286.183 280.447 285.938 280.052C285.693 279.647 285.357 279.343 284.93 279.14C284.514 278.927 284.05 278.82 283.538 278.82C282.802 278.82 282.173 279.055 281.65 279.524C281.138 279.993 280.845 280.644 280.77 281.476H286.306ZM294.504 277.572C295.571 277.572 296.435 277.897 297.096 278.548C297.757 279.188 298.088 280.116 298.088 281.332V286.5H296.648V281.54C296.648 280.665 296.429 279.999 295.992 279.54C295.555 279.071 294.957 278.836 294.2 278.836C293.432 278.836 292.819 279.076 292.36 279.556C291.912 280.036 291.688 280.735 291.688 281.652V286.5H290.232V277.732H291.688V278.98C291.976 278.532 292.365 278.185 292.856 277.94C293.357 277.695 293.907 277.572 294.504 277.572ZM302.742 278.932V284.1C302.742 284.527 302.833 284.831 303.014 285.012C303.196 285.183 303.51 285.268 303.958 285.268H305.03V286.5H303.718C302.908 286.5 302.3 286.313 301.894 285.94C301.489 285.567 301.286 284.953 301.286 284.1V278.932H300.15V277.732H301.286V275.524H302.742V277.732H305.03V278.932H302.742ZM318.364 275.348V276.532H313.516V280.292H317.452V281.476H313.516V286.5H312.06V275.348H318.364ZM322.079 274.66V286.5H320.623V274.66H322.079ZM333.06 281.78C333.06 282.057 333.044 282.351 333.012 282.66H326.004C326.057 283.524 326.351 284.201 326.884 284.692C327.428 285.172 328.084 285.412 328.852 285.412C329.481 285.412 330.004 285.268 330.42 284.98C330.847 284.681 331.145 284.287 331.316 283.796H332.884C332.649 284.639 332.18 285.327 331.476 285.86C330.772 286.383 329.897 286.644 328.852 286.644C328.02 286.644 327.273 286.457 326.612 286.084C325.961 285.711 325.449 285.183 325.076 284.5C324.703 283.807 324.516 283.007 324.516 282.1C324.516 281.193 324.697 280.399 325.06 279.716C325.423 279.033 325.929 278.511 326.58 278.148C327.241 277.775 327.999 277.588 328.852 277.588C329.684 277.588 330.42 277.769 331.06 278.132C331.7 278.495 332.191 278.996 332.532 279.636C332.884 280.265 333.06 280.98 333.06 281.78ZM331.556 281.476C331.556 280.921 331.433 280.447 331.188 280.052C330.943 279.647 330.607 279.343 330.18 279.14C329.764 278.927 329.3 278.82 328.788 278.82C328.052 278.82 327.423 279.055 326.9 279.524C326.388 279.993 326.095 280.644 326.02 281.476H331.556ZM340.058 286.5L337.978 283.236L335.978 286.5H334.458L337.29 282.148L334.458 277.732H336.106L338.186 280.98L340.17 277.732H341.69L338.874 282.068L341.706 286.5H340.058ZM344.39 276.308C344.113 276.308 343.878 276.212 343.686 276.02C343.494 275.828 343.398 275.593 343.398 275.316C343.398 275.039 343.494 274.804 343.686 274.612C343.878 274.42 344.113 274.324 344.39 274.324C344.657 274.324 344.881 274.42 345.062 274.612C345.254 274.804 345.35 275.039 345.35 275.316C345.35 275.593 345.254 275.828 345.062 276.02C344.881 276.212 344.657 276.308 344.39 276.308ZM345.094 277.732V286.5H343.638V277.732H345.094ZM349.532 279.364C349.83 278.841 350.268 278.415 350.844 278.084C351.42 277.753 352.076 277.588 352.812 277.588C353.601 277.588 354.31 277.775 354.94 278.148C355.569 278.521 356.065 279.049 356.428 279.732C356.79 280.404 356.972 281.188 356.972 282.084C356.972 282.969 356.79 283.759 356.428 284.452C356.065 285.145 355.564 285.684 354.924 286.068C354.294 286.452 353.59 286.644 352.812 286.644C352.054 286.644 351.388 286.479 350.812 286.148C350.246 285.817 349.82 285.396 349.532 284.884V286.5H348.076V274.66H349.532V279.364ZM355.484 282.084C355.484 281.423 355.35 280.847 355.084 280.356C354.817 279.865 354.454 279.492 353.996 279.236C353.548 278.98 353.052 278.852 352.508 278.852C351.974 278.852 351.478 278.985 351.02 279.252C350.572 279.508 350.209 279.887 349.932 280.388C349.665 280.879 349.532 281.449 349.532 282.1C349.532 282.761 349.665 283.343 349.932 283.844C350.209 284.335 350.572 284.713 351.02 284.98C351.478 285.236 351.974 285.364 352.508 285.364C353.052 285.364 353.548 285.236 353.996 284.98C354.454 284.713 354.817 284.335 355.084 283.844C355.35 283.343 355.484 282.756 355.484 282.084ZM360.14 276.308C359.863 276.308 359.628 276.212 359.436 276.02C359.244 275.828 359.148 275.593 359.148 275.316C359.148 275.039 359.244 274.804 359.436 274.612C359.628 274.42 359.863 274.324 360.14 274.324C360.407 274.324 360.631 274.42 360.812 274.612C361.004 274.804 361.1 275.039 361.1 275.316C361.1 275.593 361.004 275.828 360.812 276.02C360.631 276.212 360.407 276.308 360.14 276.308ZM360.844 277.732V286.5H359.388V277.732H360.844ZM365.282 274.66V286.5H363.826V274.66H365.282ZM369.015 276.308C368.738 276.308 368.503 276.212 368.311 276.02C368.119 275.828 368.023 275.593 368.023 275.316C368.023 275.039 368.119 274.804 368.311 274.612C368.503 274.42 368.738 274.324 369.015 274.324C369.282 274.324 369.506 274.42 369.687 274.612C369.879 274.804 369.975 275.039 369.975 275.316C369.975 275.593 369.879 275.828 369.687 276.02C369.506 276.212 369.282 276.308 369.015 276.308ZM369.719 277.732V286.5H368.263V277.732H369.719ZM374.477 278.932V284.1C374.477 284.527 374.567 284.831 374.749 285.012C374.93 285.183 375.245 285.268 375.693 285.268H376.765V286.5H375.453C374.642 286.5 374.034 286.313 373.629 285.94C373.223 285.567 373.021 284.953 373.021 284.1V278.932H371.885V277.732H373.021V275.524H374.477V277.732H376.765V278.932H374.477ZM386.581 277.732L381.301 290.628H379.797L381.525 286.404L377.989 277.732H379.605L382.357 284.836L385.077 277.732H386.581Z" fill="white"/>
<path d="M158.5 281H201" stroke="url(#paint23_linear_1236_7087)" stroke-miterlimit="10"/>
<path d="M156 274.5C152.933 274.5 150.5 276.933 150.5 280C150.5 283.067 152.933 285.5 156 285.5C159.067 285.5 161.5 283.067 161.5 280C161.5 276.933 159.067 274.5 156 274.5Z" fill="url(#paint24_linear_1236_7087)" stroke="url(#paint25_linear_1236_7087)"/>
<path d="M219.5 280C219.5 289.665 211.665 297.5 202 297.5C192.335 297.5 184.5 289.665 184.5 280C184.5 270.335 192.335 262.5 202 262.5C211.665 262.5 219.5 270.335 219.5 280Z" fill="url(#paint26_linear_1236_7087)" stroke="url(#paint27_linear_1236_7087)"/>
<rect x="191.5" y="337.5" width="239" height="47" rx="23.5" fill="url(#paint28_linear_1236_7087)"/>
<rect x="191.5" y="337.5" width="239" height="47" rx="23.5" stroke="url(#paint29_linear_1236_7087)"/>
<path d="M219.768 367.612C219.032 367.612 218.371 367.484 217.784 367.228C217.208 366.961 216.755 366.599 216.424 366.14C216.093 365.671 215.923 365.132 215.912 364.524H217.464C217.517 365.047 217.731 365.489 218.104 365.852C218.488 366.204 219.043 366.38 219.768 366.38C220.461 366.38 221.005 366.209 221.4 365.868C221.805 365.516 222.008 365.068 222.008 364.524C222.008 364.097 221.891 363.751 221.656 363.484C221.421 363.217 221.128 363.015 220.776 362.876C220.424 362.737 219.949 362.588 219.352 362.428C218.616 362.236 218.024 362.044 217.576 361.852C217.139 361.66 216.76 361.361 216.44 360.956C216.131 360.54 215.976 359.985 215.976 359.292C215.976 358.684 216.131 358.145 216.44 357.676C216.749 357.207 217.181 356.844 217.736 356.588C218.301 356.332 218.947 356.204 219.672 356.204C220.717 356.204 221.571 356.465 222.232 356.988C222.904 357.511 223.283 358.204 223.368 359.068H221.768C221.715 358.641 221.491 358.268 221.096 357.948C220.701 357.617 220.179 357.452 219.528 357.452C218.92 357.452 218.424 357.612 218.04 357.932C217.656 358.241 217.464 358.679 217.464 359.244C217.464 359.649 217.576 359.98 217.8 360.236C218.035 360.492 218.317 360.689 218.648 360.828C218.989 360.956 219.464 361.105 220.072 361.276C220.808 361.479 221.4 361.681 221.848 361.884C222.296 362.076 222.68 362.38 223 362.796C223.32 363.201 223.48 363.756 223.48 364.46C223.48 365.004 223.336 365.516 223.048 365.996C222.76 366.476 222.333 366.865 221.768 367.164C221.203 367.463 220.536 367.612 219.768 367.612ZM234.123 362.78C234.123 363.057 234.107 363.351 234.075 363.66H227.067C227.12 364.524 227.413 365.201 227.947 365.692C228.491 366.172 229.147 366.412 229.915 366.412C230.544 366.412 231.067 366.268 231.483 365.98C231.909 365.681 232.208 365.287 232.379 364.796H233.947C233.712 365.639 233.243 366.327 232.539 366.86C231.835 367.383 230.96 367.644 229.915 367.644C229.083 367.644 228.336 367.457 227.675 367.084C227.024 366.711 226.512 366.183 226.139 365.5C225.765 364.807 225.579 364.007 225.579 363.1C225.579 362.193 225.76 361.399 226.123 360.716C226.485 360.033 226.992 359.511 227.643 359.148C228.304 358.775 229.061 358.588 229.915 358.588C230.747 358.588 231.483 358.769 232.123 359.132C232.763 359.495 233.253 359.996 233.595 360.636C233.947 361.265 234.123 361.98 234.123 362.78ZM232.619 362.476C232.619 361.921 232.496 361.447 232.251 361.052C232.005 360.647 231.669 360.343 231.243 360.14C230.827 359.927 230.363 359.82 229.851 359.82C229.115 359.82 228.485 360.055 227.963 360.524C227.451 360.993 227.157 361.644 227.083 362.476H232.619ZM238.001 360.156C238.257 359.655 238.619 359.265 239.089 358.988C239.569 358.711 240.15 358.572 240.833 358.572V360.076H240.449C238.817 360.076 238.001 360.961 238.001 362.732V367.5H236.545V358.732H238.001V360.156ZM246.277 366.156L248.997 358.732H250.549L247.109 367.5H245.413L241.973 358.732H243.541L246.277 366.156ZM253.234 357.308C252.957 357.308 252.722 357.212 252.53 357.02C252.338 356.828 252.242 356.593 252.242 356.316C252.242 356.039 252.338 355.804 252.53 355.612C252.722 355.42 252.957 355.324 253.234 355.324C253.501 355.324 253.725 355.42 253.906 355.612C254.098 355.804 254.194 356.039 254.194 356.316C254.194 356.593 254.098 356.828 253.906 357.02C253.725 357.212 253.501 357.308 253.234 357.308ZM253.938 358.732V367.5H252.482V358.732H253.938ZM256.376 363.1C256.376 362.193 256.557 361.404 256.92 360.732C257.282 360.049 257.784 359.521 258.424 359.148C259.074 358.775 259.816 358.588 260.648 358.588C261.725 358.588 262.61 358.849 263.304 359.372C264.008 359.895 264.472 360.62 264.696 361.548H263.128C262.978 361.015 262.685 360.593 262.248 360.284C261.821 359.975 261.288 359.82 260.648 359.82C259.816 359.82 259.144 360.108 258.632 360.684C258.12 361.249 257.864 362.055 257.864 363.1C257.864 364.156 258.12 364.972 258.632 365.548C259.144 366.124 259.816 366.412 260.648 366.412C261.288 366.412 261.821 366.263 262.248 365.964C262.674 365.665 262.968 365.239 263.128 364.684H264.696C264.461 365.58 263.992 366.3 263.288 366.844C262.584 367.377 261.704 367.644 260.648 367.644C259.816 367.644 259.074 367.457 258.424 367.084C257.784 366.711 257.282 366.183 256.92 365.5C256.557 364.817 256.376 364.017 256.376 363.1ZM275.138 362.78C275.138 363.057 275.122 363.351 275.09 363.66H268.082C268.136 364.524 268.429 365.201 268.962 365.692C269.506 366.172 270.162 366.412 270.93 366.412C271.56 366.412 272.082 366.268 272.498 365.98C272.925 365.681 273.224 365.287 273.394 364.796H274.962C274.728 365.639 274.258 366.327 273.554 366.86C272.85 367.383 271.976 367.644 270.93 367.644C270.098 367.644 269.352 367.457 268.69 367.084C268.04 366.711 267.528 366.183 267.154 365.5C266.781 364.807 266.594 364.007 266.594 363.1C266.594 362.193 266.776 361.399 267.138 360.716C267.501 360.033 268.008 359.511 268.658 359.148C269.32 358.775 270.077 358.588 270.93 358.588C271.762 358.588 272.498 358.769 273.138 359.132C273.778 359.495 274.269 359.996 274.61 360.636C274.962 361.265 275.138 361.98 275.138 362.78ZM273.634 362.476C273.634 361.921 273.512 361.447 273.266 361.052C273.021 360.647 272.685 360.343 272.258 360.14C271.842 359.927 271.378 359.82 270.866 359.82C270.13 359.82 269.501 360.055 268.978 360.524C268.466 360.993 268.173 361.644 268.098 362.476H273.634ZM281.782 361.916C281.782 360.828 282.027 359.852 282.518 358.988C283.008 358.113 283.675 357.431 284.518 356.94C285.371 356.449 286.315 356.204 287.35 356.204C288.566 356.204 289.627 356.497 290.534 357.084C291.44 357.671 292.102 358.503 292.518 359.58H290.774C290.464 358.908 290.016 358.391 289.43 358.028C288.854 357.665 288.16 357.484 287.35 357.484C286.571 357.484 285.872 357.665 285.254 358.028C284.635 358.391 284.15 358.908 283.798 359.58C283.446 360.241 283.27 361.02 283.27 361.916C283.27 362.801 283.446 363.58 283.798 364.252C284.15 364.913 284.635 365.425 285.254 365.788C285.872 366.151 286.571 366.332 287.35 366.332C288.16 366.332 288.854 366.156 289.43 365.804C290.016 365.441 290.464 364.924 290.774 364.252H292.518C292.102 365.319 291.44 366.145 290.534 366.732C289.627 367.308 288.566 367.596 287.35 367.596C286.315 367.596 285.371 367.356 284.518 366.876C283.675 366.385 283.008 365.708 282.518 364.844C282.027 363.98 281.782 363.004 281.782 361.916ZM299.009 367.644C298.188 367.644 297.441 367.457 296.769 367.084C296.108 366.711 295.585 366.183 295.201 365.5C294.828 364.807 294.641 364.007 294.641 363.1C294.641 362.204 294.833 361.415 295.217 360.732C295.612 360.039 296.145 359.511 296.817 359.148C297.489 358.775 298.241 358.588 299.073 358.588C299.905 358.588 300.657 358.775 301.329 359.148C302.001 359.511 302.529 360.033 302.913 360.716C303.308 361.399 303.505 362.193 303.505 363.1C303.505 364.007 303.302 364.807 302.897 365.5C302.502 366.183 301.964 366.711 301.281 367.084C300.598 367.457 299.841 367.644 299.009 367.644ZM299.009 366.364C299.532 366.364 300.022 366.241 300.481 365.996C300.94 365.751 301.308 365.383 301.585 364.892C301.873 364.401 302.017 363.804 302.017 363.1C302.017 362.396 301.878 361.799 301.601 361.308C301.324 360.817 300.961 360.455 300.513 360.22C300.065 359.975 299.58 359.852 299.057 359.852C298.524 359.852 298.033 359.975 297.585 360.22C297.148 360.455 296.796 360.817 296.529 361.308C296.262 361.799 296.129 362.396 296.129 363.1C296.129 363.815 296.257 364.417 296.513 364.908C296.78 365.399 297.132 365.767 297.569 366.012C298.006 366.247 298.486 366.364 299.009 366.364ZM310.192 358.572C311.258 358.572 312.122 358.897 312.784 359.548C313.445 360.188 313.776 361.116 313.776 362.332V367.5H312.336V362.54C312.336 361.665 312.117 360.999 311.68 360.54C311.242 360.071 310.645 359.836 309.888 359.836C309.12 359.836 308.506 360.076 308.048 360.556C307.6 361.036 307.376 361.735 307.376 362.652V367.5H305.92V358.732H307.376V359.98C307.664 359.532 308.053 359.185 308.544 358.94C309.045 358.695 309.594 358.572 310.192 358.572ZM318.43 359.932V365.1C318.43 365.527 318.521 365.831 318.702 366.012C318.883 366.183 319.198 366.268 319.646 366.268H320.718V367.5H319.406C318.595 367.5 317.987 367.313 317.582 366.94C317.177 366.567 316.974 365.953 316.974 365.1V359.932H315.838V358.732H316.974V356.524H318.43V358.732H320.718V359.932H318.43ZM323.734 357.308C323.457 357.308 323.222 357.212 323.03 357.02C322.838 356.828 322.742 356.593 322.742 356.316C322.742 356.039 322.838 355.804 323.03 355.612C323.222 355.42 323.457 355.324 323.734 355.324C324.001 355.324 324.225 355.42 324.406 355.612C324.598 355.804 324.694 356.039 324.694 356.316C324.694 356.593 324.598 356.828 324.406 357.02C324.225 357.212 324.001 357.308 323.734 357.308ZM324.438 358.732V367.5H322.982V358.732H324.438ZM331.692 358.572C332.758 358.572 333.622 358.897 334.284 359.548C334.945 360.188 335.276 361.116 335.276 362.332V367.5H333.836V362.54C333.836 361.665 333.617 360.999 333.18 360.54C332.742 360.071 332.145 359.836 331.388 359.836C330.62 359.836 330.006 360.076 329.548 360.556C329.1 361.036 328.876 361.735 328.876 362.652V367.5H327.42V358.732H328.876V359.98C329.164 359.532 329.553 359.185 330.044 358.94C330.545 358.695 331.094 358.572 331.692 358.572ZM345.93 358.732V367.5H344.474V366.204C344.197 366.652 343.807 367.004 343.306 367.26C342.815 367.505 342.271 367.628 341.674 367.628C340.991 367.628 340.378 367.489 339.834 367.212C339.29 366.924 338.858 366.497 338.538 365.932C338.229 365.367 338.074 364.679 338.074 363.868V358.732H339.514V363.676C339.514 364.54 339.733 365.207 340.17 365.676C340.607 366.135 341.205 366.364 341.962 366.364C342.741 366.364 343.354 366.124 343.802 365.644C344.25 365.164 344.474 364.465 344.474 363.548V358.732H345.93ZM349.64 357.308C349.363 357.308 349.128 357.212 348.936 357.02C348.744 356.828 348.648 356.593 348.648 356.316C348.648 356.039 348.744 355.804 348.936 355.612C349.128 355.42 349.363 355.324 349.64 355.324C349.907 355.324 350.131 355.42 350.312 355.612C350.504 355.804 350.6 356.039 350.6 356.316C350.6 356.593 350.504 356.828 350.312 357.02C350.131 357.212 349.907 357.308 349.64 357.308ZM350.344 358.732V367.5H348.888V358.732H350.344ZM355.102 359.932V365.1C355.102 365.527 355.192 365.831 355.374 366.012C355.555 366.183 355.87 366.268 356.318 366.268H357.39V367.5H356.078C355.267 367.5 354.659 367.313 354.254 366.94C353.848 366.567 353.646 365.953 353.646 365.1V359.932H352.51V358.732H353.646V356.524H355.102V358.732H357.39V359.932H355.102ZM367.206 358.732L361.926 371.628H360.422L362.15 367.404L358.614 358.732H360.23L362.982 365.836L365.702 358.732H367.206Z" fill="white"/>
<path d="M142.916 344.169L189.999 362" stroke="url(#paint30_linear_1236_7087)" stroke-miterlimit="10"/>
<path d="M143 338.5C139.933 338.5 137.5 340.933 137.5 344C137.5 347.067 139.933 349.5 143 349.5C146.067 349.5 148.5 347.067 148.5 344C148.5 340.933 146.067 338.5 143 338.5Z" fill="url(#paint31_linear_1236_7087)" stroke="url(#paint32_linear_1236_7087)"/>
<path d="M203.5 361C203.5 370.665 195.665 378.5 186 378.5C176.335 378.5 168.5 370.665 168.5 361C168.5 351.335 176.335 343.5 186 343.5C195.665 343.5 203.5 351.335 203.5 361Z" fill="url(#paint33_linear_1236_7087)" stroke="url(#paint34_linear_1236_7087)"/>
<rect x="130.5" y="418.5" width="239" height="47" rx="23.5" fill="url(#paint35_linear_1236_7087)"/>
<rect x="130.5" y="418.5" width="239" height="47" rx="23.5" stroke="url(#paint36_linear_1236_7087)"/>
<path d="M166.544 437.428V448.5H165.088V440.244L161.408 448.5H160.384L156.688 440.228V448.5H155.232V437.428H156.8L160.896 446.58L164.992 437.428H166.544ZM168.969 444.084C168.969 443.188 169.151 442.404 169.513 441.732C169.876 441.049 170.372 440.521 171.001 440.148C171.641 439.775 172.351 439.588 173.129 439.588C173.897 439.588 174.564 439.753 175.129 440.084C175.695 440.415 176.116 440.831 176.393 441.332V439.732H177.865V448.5H176.393V446.868C176.105 447.38 175.673 447.807 175.097 448.148C174.532 448.479 173.871 448.644 173.113 448.644C172.335 448.644 171.631 448.452 171.001 448.068C170.372 447.684 169.876 447.145 169.513 446.452C169.151 445.759 168.969 444.969 168.969 444.084ZM176.393 444.1C176.393 443.439 176.26 442.863 175.993 442.372C175.727 441.881 175.364 441.508 174.905 441.252C174.457 440.985 173.961 440.852 173.417 440.852C172.873 440.852 172.377 440.98 171.929 441.236C171.481 441.492 171.124 441.865 170.857 442.356C170.591 442.847 170.457 443.423 170.457 444.084C170.457 444.756 170.591 445.343 170.857 445.844C171.124 446.335 171.481 446.713 171.929 446.98C172.377 447.236 172.873 447.364 173.417 447.364C173.961 447.364 174.457 447.236 174.905 446.98C175.364 446.713 175.727 446.335 175.993 445.844C176.26 445.343 176.393 444.761 176.393 444.1ZM182.282 441.156C182.538 440.655 182.9 440.265 183.37 439.988C183.85 439.711 184.431 439.572 185.114 439.572V441.076H184.73C183.098 441.076 182.282 441.961 182.282 443.732V448.5H180.826V439.732H182.282V441.156ZM192.191 448.5L188.751 444.628V448.5H187.295V436.66H188.751V443.62L192.127 439.732H194.159L190.031 444.1L194.175 448.5H192.191ZM204.029 443.78C204.029 444.057 204.013 444.351 203.981 444.66H196.973C197.026 445.524 197.32 446.201 197.853 446.692C198.397 447.172 199.053 447.412 199.821 447.412C200.45 447.412 200.973 447.268 201.389 446.98C201.816 446.681 202.114 446.287 202.285 445.796H203.853C203.618 446.639 203.149 447.327 202.445 447.86C201.741 448.383 200.866 448.644 199.821 448.644C198.989 448.644 198.242 448.457 197.581 448.084C196.93 447.711 196.418 447.183 196.045 446.5C195.672 445.807 195.485 445.007 195.485 444.1C195.485 443.193 195.666 442.399 196.029 441.716C196.392 441.033 196.898 440.511 197.549 440.148C198.21 439.775 198.968 439.588 199.821 439.588C200.653 439.588 201.389 439.769 202.029 440.132C202.669 440.495 203.16 440.996 203.501 441.636C203.853 442.265 204.029 442.98 204.029 443.78ZM202.525 443.476C202.525 442.921 202.402 442.447 202.157 442.052C201.912 441.647 201.576 441.343 201.149 441.14C200.733 440.927 200.269 440.82 199.757 440.82C199.021 440.82 198.392 441.055 197.869 441.524C197.357 441.993 197.064 442.644 196.989 443.476H202.525ZM208.227 440.932V446.1C208.227 446.527 208.317 446.831 208.499 447.012C208.68 447.183 208.995 447.268 209.443 447.268H210.515V448.5H209.203C208.392 448.5 207.784 448.313 207.379 447.94C206.973 447.567 206.771 446.953 206.771 446.1V440.932H205.635V439.732H206.771V437.524H208.227V439.732H210.515V440.932H208.227ZM225.001 440.612C225.001 441.54 224.681 442.313 224.041 442.932C223.411 443.54 222.446 443.844 221.145 443.844H219.001V448.5H217.545V437.348H221.145C222.403 437.348 223.358 437.652 224.009 438.26C224.67 438.868 225.001 439.652 225.001 440.612ZM221.145 442.644C221.955 442.644 222.553 442.468 222.937 442.116C223.321 441.764 223.513 441.263 223.513 440.612C223.513 439.236 222.723 438.548 221.145 438.548H219.001V442.644H221.145ZM235.31 443.78C235.31 444.057 235.294 444.351 235.262 444.66H228.254C228.307 445.524 228.601 446.201 229.134 446.692C229.678 447.172 230.334 447.412 231.102 447.412C231.731 447.412 232.254 447.268 232.67 446.98C233.097 446.681 233.395 446.287 233.566 445.796H235.134C234.899 446.639 234.43 447.327 233.726 447.86C233.022 448.383 232.147 448.644 231.102 448.644C230.27 448.644 229.523 448.457 228.862 448.084C228.211 447.711 227.699 447.183 227.326 446.5C226.953 445.807 226.766 445.007 226.766 444.1C226.766 443.193 226.947 442.399 227.31 441.716C227.673 441.033 228.179 440.511 228.83 440.148C229.491 439.775 230.249 439.588 231.102 439.588C231.934 439.588 232.67 439.769 233.31 440.132C233.95 440.495 234.441 440.996 234.782 441.636C235.134 442.265 235.31 442.98 235.31 443.78ZM233.806 443.476C233.806 442.921 233.683 442.447 233.438 442.052C233.193 441.647 232.857 441.343 232.43 441.14C232.014 440.927 231.55 440.82 231.038 440.82C230.302 440.82 229.673 441.055 229.15 441.524C228.638 441.993 228.345 442.644 228.27 443.476H233.806ZM242.004 439.572C243.071 439.572 243.935 439.897 244.596 440.548C245.257 441.188 245.588 442.116 245.588 443.332V448.5H244.148V443.54C244.148 442.665 243.929 441.999 243.492 441.54C243.055 441.071 242.457 440.836 241.7 440.836C240.932 440.836 240.319 441.076 239.86 441.556C239.412 442.036 239.188 442.735 239.188 443.652V448.5H237.732V439.732H239.188V440.98C239.476 440.532 239.865 440.185 240.356 439.94C240.857 439.695 241.407 439.572 242.004 439.572ZM256.466 443.78C256.466 444.057 256.45 444.351 256.418 444.66H249.41C249.464 445.524 249.757 446.201 250.29 446.692C250.834 447.172 251.49 447.412 252.258 447.412C252.888 447.412 253.41 447.268 253.826 446.98C254.253 446.681 254.552 446.287 254.722 445.796H256.29C256.056 446.639 255.586 447.327 254.882 447.86C254.178 448.383 253.304 448.644 252.258 448.644C251.426 448.644 250.68 448.457 250.018 448.084C249.368 447.711 248.856 447.183 248.482 446.5C248.109 445.807 247.922 445.007 247.922 444.1C247.922 443.193 248.104 442.399 248.466 441.716C248.829 441.033 249.336 440.511 249.986 440.148C250.648 439.775 251.405 439.588 252.258 439.588C253.09 439.588 253.826 439.769 254.466 440.132C255.106 440.495 255.597 440.996 255.938 441.636C256.29 442.265 256.466 442.98 256.466 443.78ZM254.962 443.476C254.962 442.921 254.84 442.447 254.594 442.052C254.349 441.647 254.013 441.343 253.586 441.14C253.17 440.927 252.706 440.82 252.194 440.82C251.458 440.82 250.829 441.055 250.306 441.524C249.794 441.993 249.501 442.644 249.426 443.476H254.962ZM260.664 440.932V446.1C260.664 446.527 260.755 446.831 260.936 447.012C261.118 447.183 261.432 447.268 261.88 447.268H262.952V448.5H261.64C260.83 448.5 260.222 448.313 259.816 447.94C259.411 447.567 259.208 446.953 259.208 446.1V440.932H258.072V439.732H259.208V437.524H260.664V439.732H262.952V440.932H260.664ZM266.672 441.156C266.928 440.655 267.291 440.265 267.76 439.988C268.24 439.711 268.822 439.572 269.504 439.572V441.076H269.12C267.488 441.076 266.672 441.961 266.672 443.732V448.5H265.216V439.732H266.672V441.156ZM271.141 444.084C271.141 443.188 271.322 442.404 271.685 441.732C272.048 441.049 272.544 440.521 273.173 440.148C273.813 439.775 274.522 439.588 275.301 439.588C276.069 439.588 276.736 439.753 277.301 440.084C277.866 440.415 278.288 440.831 278.565 441.332V439.732H280.037V448.5H278.565V446.868C278.277 447.38 277.845 447.807 277.269 448.148C276.704 448.479 276.042 448.644 275.285 448.644C274.506 448.644 273.802 448.452 273.173 448.068C272.544 447.684 272.048 447.145 271.685 446.452C271.322 445.759 271.141 444.969 271.141 444.084ZM278.565 444.1C278.565 443.439 278.432 442.863 278.165 442.372C277.898 441.881 277.536 441.508 277.077 441.252C276.629 440.985 276.133 440.852 275.589 440.852C275.045 440.852 274.549 440.98 274.101 441.236C273.653 441.492 273.296 441.865 273.029 442.356C272.762 442.847 272.629 443.423 272.629 444.084C272.629 444.756 272.762 445.343 273.029 445.844C273.296 446.335 273.653 446.713 274.101 446.98C274.549 447.236 275.045 447.364 275.589 447.364C276.133 447.364 276.629 447.236 277.077 446.98C277.536 446.713 277.898 446.335 278.165 445.844C278.432 445.343 278.565 444.761 278.565 444.1ZM284.774 440.932V446.1C284.774 446.527 284.864 446.831 285.046 447.012C285.227 447.183 285.542 447.268 285.99 447.268H287.062V448.5H285.75C284.939 448.5 284.331 448.313 283.926 447.94C283.52 447.567 283.318 446.953 283.318 446.1V440.932H282.182V439.732H283.318V437.524H284.774V439.732H287.062V440.932H284.774ZM290.078 438.308C289.8 438.308 289.566 438.212 289.374 438.02C289.182 437.828 289.086 437.593 289.086 437.316C289.086 437.039 289.182 436.804 289.374 436.612C289.566 436.42 289.8 436.324 290.078 436.324C290.344 436.324 290.568 436.42 290.75 436.612C290.942 436.804 291.038 437.039 291.038 437.316C291.038 437.593 290.942 437.828 290.75 438.02C290.568 438.212 290.344 438.308 290.078 438.308ZM290.782 439.732V448.5H289.326V439.732H290.782ZM297.587 448.644C296.766 448.644 296.019 448.457 295.347 448.084C294.686 447.711 294.163 447.183 293.779 446.5C293.406 445.807 293.219 445.007 293.219 444.1C293.219 443.204 293.411 442.415 293.795 441.732C294.19 441.039 294.723 440.511 295.395 440.148C296.067 439.775 296.819 439.588 297.651 439.588C298.483 439.588 299.235 439.775 299.907 440.148C300.579 440.511 301.107 441.033 301.491 441.716C301.886 442.399 302.083 443.193 302.083 444.1C302.083 445.007 301.881 445.807 301.475 446.5C301.081 447.183 300.542 447.711 299.859 448.084C299.177 448.457 298.419 448.644 297.587 448.644ZM297.587 447.364C298.11 447.364 298.601 447.241 299.059 446.996C299.518 446.751 299.886 446.383 300.163 445.892C300.451 445.401 300.595 444.804 300.595 444.1C300.595 443.396 300.457 442.799 300.179 442.308C299.902 441.817 299.539 441.455 299.091 441.22C298.643 440.975 298.158 440.852 297.635 440.852C297.102 440.852 296.611 440.975 296.163 441.22C295.726 441.455 295.374 441.817 295.107 442.308C294.841 442.799 294.707 443.396 294.707 444.1C294.707 444.815 294.835 445.417 295.091 445.908C295.358 446.399 295.71 446.767 296.147 447.012C296.585 447.247 297.065 447.364 297.587 447.364ZM308.77 439.572C309.836 439.572 310.7 439.897 311.362 440.548C312.023 441.188 312.354 442.116 312.354 443.332V448.5H310.914V443.54C310.914 442.665 310.695 441.999 310.258 441.54C309.82 441.071 309.223 440.836 308.466 440.836C307.698 440.836 307.084 441.076 306.626 441.556C306.178 442.036 305.954 442.735 305.954 443.652V448.5H304.498V439.732H305.954V440.98C306.242 440.532 306.631 440.185 307.122 439.94C307.623 439.695 308.172 439.572 308.77 439.572Z" fill="white"/>
<path d="M93.5 407L124 441.5" stroke="url(#paint37_linear_1236_7087)" stroke-miterlimit="10"/>
<path d="M93 400.5C89.9332 400.5 87.5 402.933 87.5 406C87.5 409.067 89.9332 411.5 93 411.5C96.0669 411.5 98.5 409.067 98.5 406C98.5 402.933 96.0669 400.5 93 400.5Z" fill="url(#paint38_linear_1236_7087)" stroke="url(#paint39_linear_1236_7087)"/>
<path d="M142.5 442C142.5 451.665 134.665 459.5 125 459.5C115.335 459.5 107.5 451.665 107.5 442C107.5 432.335 115.335 424.5 125 424.5C134.665 424.5 142.5 432.335 142.5 442Z" fill="url(#paint40_linear_1236_7087)" stroke="url(#paint41_linear_1236_7087)"/>
<path d="M127.82 112.46V124L125.54 123.98V115.2L121.4 116.92V114.32L125.54 112.46H127.82Z" fill="white"/>
<path d="M178.8 199.48L181.08 198.1H185.22V200.36H181.24V202.64H185.14V205H178.8V199.48ZM178.8 197.12V194.84L181.08 193.46H185.22V195.74H181.32V197.12H178.8ZM192.62 205H186.2V202.64H192.62V205ZM190.02 200.36H186.12V198.1H190.02V195.74H186.12V193.46H190.26L192.62 194.84V198.98L190.02 200.36Z" fill="white"/>
<path d="M206.22 286.02H202.08V283.66H205.98V281.38H202.08V279.12H205.98V276.76H202.08V274.48H206.22L208.5 275.86V279.28L206.62 280.24L208.5 281.14V284.64L206.22 286.02ZM197.2 282.28V283.66H201.1V286.02H196.96L194.6 284.64V282.28H197.2ZM194.68 278.14V275.86L196.96 274.48H201.1V276.76H197.2V278.14H194.68ZM201.1 281.38H198.58V279.12H201.1V281.38Z" fill="white"/>
<path d="M192.42 366.98H190.08V362.44H185.94V360.1H190.08V355.48H192.42V366.98ZM182.54 360.1H184.96V362.44H178.4L182.54 355.56H185.28L182.54 360.1Z" fill="white"/>
<path d="M117.8 436.46H124.26V438.74H120.34V441.04H124.26V443.4H117.8V436.46ZM120.34 444.3V445.7H124.26V447.98H120.08L117.8 446.6V444.3H120.34ZM131.7 438.74H125.24V436.46H131.7V438.74ZM131.7 442.42V446.6L129.42 447.98H125.24V445.7H129.16V443.4H125.24V441.04H129.16L131.7 442.42Z" fill="white"/>
<defs>
<linearGradient id="paint0_linear_1236_7087" x1="27.5" y1="-380.625" x2="714.464" y2="127.526" gradientUnits="userSpaceOnUse">
<stop offset="0.303689" stop-color="#004B4B" stop-opacity="0"/>
<stop offset="0.454116" stop-color="#004B4B" stop-opacity="0.4"/>
<stop offset="0.499089" stop-color="#004B4B"/>
<stop offset="0.64438" stop-color="#26DDFF"/>
<stop offset="0.953267" stop-color="#26DDFF" stop-opacity="0"/>
</linearGradient>
<linearGradient id="paint1_linear_1236_7087" x1="184" y1="260.5" x2="94.6909" y2="261.688" gradientUnits="userSpaceOnUse">
<stop stop-color="#12637E"/>
<stop offset="0.781" stop-color="#04182D" stop-opacity="0.4"/>
</linearGradient>
<linearGradient id="paint2_linear_1236_7087" x1="-19.2105" y1="-2571.26" x2="340.819" y2="-2549.75" gradientUnits="userSpaceOnUse">
<stop offset="0.303689" stop-color="#004B4B" stop-opacity="0"/>
<stop offset="0.422945" stop-color="#004B4B" stop-opacity="0.4"/>
<stop offset="0.499089" stop-color="#004B4B"/>
<stop offset="0.649516" stop-color="#26DDFF"/>
<stop offset="0.953267" stop-color="#26DDFF" stop-opacity="0"/>
</linearGradient>
<linearGradient id="paint3_linear_1236_7087" x1="117.949" y1="267.5" x2="60.6993" y2="268.262" gradientUnits="userSpaceOnUse">
<stop stop-color="#12637E"/>
<stop offset="0.781" stop-color="#04182D" stop-opacity="0.4"/>
</linearGradient>
<linearGradient id="paint4_linear_1236_7087" x1="-12.3144" y1="-1547.73" x2="218.474" y2="-1533.94" gradientUnits="userSpaceOnUse">
<stop offset="0.303689" stop-color="#004B4B" stop-opacity="0"/>
<stop offset="0.422945" stop-color="#004B4B" stop-opacity="0.4"/>
<stop offset="0.499089" stop-color="#004B4B"/>
<stop offset="0.649516" stop-color="#26DDFF"/>
<stop offset="0.953267" stop-color="#26DDFF" stop-opacity="0"/>
</linearGradient>
<linearGradient id="paint5_linear_1236_7087" x1="63.6923" y1="273.25" x2="32.7776" y2="273.661" gradientUnits="userSpaceOnUse">
<stop stop-color="#12637E"/>
<stop offset="0.781" stop-color="#04182D" stop-opacity="0.4"/>
</linearGradient>
<linearGradient id="paint6_linear_1236_7087" x1="-6.64978" y1="-706.974" x2="117.976" y2="-699.529" gradientUnits="userSpaceOnUse">
<stop offset="0.303689" stop-color="#004B4B" stop-opacity="0"/>
<stop offset="0.422945" stop-color="#004B4B" stop-opacity="0.4"/>
<stop offset="0.499089" stop-color="#004B4B"/>
<stop offset="0.649516" stop-color="#26DDFF"/>
<stop offset="0.953267" stop-color="#26DDFF" stop-opacity="0"/>
</linearGradient>
<linearGradient id="paint7_linear_1236_7087" x1="371.727" y1="74.4288" x2="360.242" y2="164.2" gradientUnits="userSpaceOnUse">
<stop stop-color="#12637E"/>
<stop offset="0.781" stop-color="#04182D"/>
</linearGradient>
<linearGradient id="paint8_linear_1236_7087" x1="457.5" y1="83.5" x2="445.673" y2="173.039" gradientUnits="userSpaceOnUse">
<stop offset="0.303689" stop-color="#004B4B" stop-opacity="0"/>
<stop offset="0.422945" stop-color="#004B4B" stop-opacity="0.4"/>
<stop offset="0.499089" stop-color="#004B4B"/>
<stop offset="0.649516" stop-color="#26DDFF"/>
<stop offset="0.953267" stop-color="#26DDFF" stop-opacity="0"/>
</linearGradient>
<linearGradient id="paint9_linear_1236_7087" x1="85.6649" y1="236.833" x2="171.167" y2="199.378" gradientUnits="userSpaceOnUse">
<stop offset="0.303689" stop-color="#004B4B" stop-opacity="0"/>
<stop offset="0.422945" stop-color="#004B4B" stop-opacity="0.4"/>
<stop offset="0.499089" stop-color="#004B4B"/>
<stop offset="0.649516" stop-color="#26DDFF"/>
<stop offset="0.953267" stop-color="#26DDFF" stop-opacity="0"/>
</linearGradient>
<linearGradient id="paint10_linear_1236_7087" x1="98.072" y1="145.548" x2="89.4432" y2="159.036" gradientUnits="userSpaceOnUse">
<stop stop-color="#12637E"/>
<stop offset="0.781" stop-color="#04182D"/>
</linearGradient>
<linearGradient id="paint11_linear_1236_7087" x1="86.0203" y1="132.056" x2="108.263" y2="146.671" gradientUnits="userSpaceOnUse">
<stop offset="0.303689" stop-color="#004B4B" stop-opacity="0"/>
<stop offset="0.422945" stop-color="#004B4B" stop-opacity="0.4"/>
<stop offset="0.499089" stop-color="#004B4B"/>
<stop offset="0.649516" stop-color="#26DDFF"/>
<stop offset="0.953267" stop-color="#26DDFF" stop-opacity="0"/>
</linearGradient>
<linearGradient id="paint12_linear_1236_7087" x1="143.259" y1="87.5716" x2="112.196" y2="136.131" gradientUnits="userSpaceOnUse">
<stop stop-color="#12637E"/>
<stop offset="0.781" stop-color="#04182D"/>
</linearGradient>
<linearGradient id="paint13_linear_1236_7087" x1="156.125" y1="94.375" x2="124.705" y2="141.949" gradientUnits="userSpaceOnUse">
<stop offset="0.303689" stop-color="#004B4B" stop-opacity="0"/>
<stop offset="0.422945" stop-color="#004B4B" stop-opacity="0.4"/>
<stop offset="0.499089" stop-color="#004B4B"/>
<stop offset="0.649516" stop-color="#26DDFF"/>
<stop offset="0.953267" stop-color="#26DDFF" stop-opacity="0"/>
</linearGradient>
<linearGradient id="paint14_linear_1236_7087" x1="432.727" y1="158.429" x2="421.242" y2="248.2" gradientUnits="userSpaceOnUse">
<stop stop-color="#12637E"/>
<stop offset="0.781" stop-color="#04182D"/>
</linearGradient>
<linearGradient id="paint15_linear_1236_7087" x1="518.5" y1="167.5" x2="506.673" y2="257.039" gradientUnits="userSpaceOnUse">
<stop offset="0.303689" stop-color="#004B4B" stop-opacity="0"/>
<stop offset="0.422945" stop-color="#004B4B" stop-opacity="0.4"/>
<stop offset="0.499089" stop-color="#004B4B"/>
<stop offset="0.649516" stop-color="#26DDFF"/>
<stop offset="0.953267" stop-color="#26DDFF" stop-opacity="0"/>
</linearGradient>
<linearGradient id="paint16_linear_1236_7087" x1="135.082" y1="95.8363" x2="220.584" y2="133.291" gradientUnits="userSpaceOnUse">
<stop offset="0.303689" stop-color="#004B4B" stop-opacity="0"/>
<stop offset="0.422945" stop-color="#004B4B" stop-opacity="0.4"/>
<stop offset="0.499089" stop-color="#004B4B"/>
<stop offset="0.649516" stop-color="#26DDFF"/>
<stop offset="0.953267" stop-color="#26DDFF" stop-opacity="0"/>
</linearGradient>
<linearGradient id="paint17_linear_1236_7087" x1="146.072" y1="202.548" x2="137.443" y2="216.036" gradientUnits="userSpaceOnUse">
<stop stop-color="#12637E"/>
<stop offset="0.781" stop-color="#04182D"/>
</linearGradient>
<linearGradient id="paint18_linear_1236_7087" x1="134.02" y1="189.056" x2="156.263" y2="203.671" gradientUnits="userSpaceOnUse">
<stop offset="0.303689" stop-color="#004B4B" stop-opacity="0"/>
<stop offset="0.422945" stop-color="#004B4B" stop-opacity="0.4"/>
<stop offset="0.499089" stop-color="#004B4B"/>
<stop offset="0.649516" stop-color="#26DDFF"/>
<stop offset="0.953267" stop-color="#26DDFF" stop-opacity="0"/>
</linearGradient>
<linearGradient id="paint19_linear_1236_7087" x1="204.259" y1="168.572" x2="173.196" y2="217.131" gradientUnits="userSpaceOnUse">
<stop stop-color="#12637E"/>
<stop offset="0.781" stop-color="#04182D"/>
</linearGradient>
<linearGradient id="paint20_linear_1236_7087" x1="217.125" y1="175.375" x2="185.705" y2="222.949" gradientUnits="userSpaceOnUse">
<stop offset="0.303689" stop-color="#004B4B" stop-opacity="0"/>
<stop offset="0.422945" stop-color="#004B4B" stop-opacity="0.4"/>
<stop offset="0.499089" stop-color="#004B4B"/>
<stop offset="0.649516" stop-color="#26DDFF"/>
<stop offset="0.953267" stop-color="#26DDFF" stop-opacity="0"/>
</linearGradient>
<linearGradient id="paint21_linear_1236_7087" x1="448.727" y1="239.429" x2="437.242" y2="329.2" gradientUnits="userSpaceOnUse">
<stop stop-color="#12637E"/>
<stop offset="0.781" stop-color="#04182D"/>
</linearGradient>
<linearGradient id="paint22_linear_1236_7087" x1="534.5" y1="248.5" x2="522.673" y2="338.039" gradientUnits="userSpaceOnUse">
<stop offset="0.303689" stop-color="#004B4B" stop-opacity="0"/>
<stop offset="0.422945" stop-color="#004B4B" stop-opacity="0.4"/>
<stop offset="0.499089" stop-color="#004B4B"/>
<stop offset="0.649516" stop-color="#26DDFF"/>
<stop offset="0.953267" stop-color="#26DDFF" stop-opacity="0"/>
</linearGradient>
<linearGradient id="paint23_linear_1236_7087" x1="146.082" y1="179.836" x2="231.584" y2="217.291" gradientUnits="userSpaceOnUse">
<stop offset="0.303689" stop-color="#004B4B" stop-opacity="0"/>
<stop offset="0.422945" stop-color="#004B4B" stop-opacity="0.4"/>
<stop offset="0.499089" stop-color="#004B4B"/>
<stop offset="0.649516" stop-color="#26DDFF"/>
<stop offset="0.953267" stop-color="#26DDFF" stop-opacity="0"/>
</linearGradient>
<linearGradient id="paint24_linear_1236_7087" x1="161.072" y1="271.548" x2="152.443" y2="285.036" gradientUnits="userSpaceOnUse">
<stop stop-color="#12637E"/>
<stop offset="0.781" stop-color="#04182D"/>
</linearGradient>
<linearGradient id="paint25_linear_1236_7087" x1="149.02" y1="258.056" x2="171.263" y2="272.671" gradientUnits="userSpaceOnUse">
<stop offset="0.303689" stop-color="#004B4B" stop-opacity="0"/>
<stop offset="0.422945" stop-color="#004B4B" stop-opacity="0.4"/>
<stop offset="0.499089" stop-color="#004B4B"/>
<stop offset="0.649516" stop-color="#26DDFF"/>
<stop offset="0.953267" stop-color="#26DDFF" stop-opacity="0"/>
</linearGradient>
<linearGradient id="paint26_linear_1236_7087" x1="220.259" y1="249.572" x2="189.196" y2="298.131" gradientUnits="userSpaceOnUse">
<stop stop-color="#12637E"/>
<stop offset="0.781" stop-color="#04182D"/>
</linearGradient>
<linearGradient id="paint27_linear_1236_7087" x1="233.125" y1="256.375" x2="201.705" y2="303.949" gradientUnits="userSpaceOnUse">
<stop offset="0.303689" stop-color="#004B4B" stop-opacity="0"/>
<stop offset="0.422945" stop-color="#004B4B" stop-opacity="0.4"/>
<stop offset="0.499089" stop-color="#004B4B"/>
<stop offset="0.649516" stop-color="#26DDFF"/>
<stop offset="0.953267" stop-color="#26DDFF" stop-opacity="0"/>
</linearGradient>
<linearGradient id="paint28_linear_1236_7087" x1="432.727" y1="320.429" x2="421.242" y2="410.2" gradientUnits="userSpaceOnUse">
<stop stop-color="#12637E"/>
<stop offset="0.781" stop-color="#04182D"/>
</linearGradient>
<linearGradient id="paint29_linear_1236_7087" x1="518.5" y1="329.5" x2="506.673" y2="419.039" gradientUnits="userSpaceOnUse">
<stop offset="0.303689" stop-color="#004B4B" stop-opacity="0"/>
<stop offset="0.422945" stop-color="#004B4B" stop-opacity="0.4"/>
<stop offset="0.499089" stop-color="#004B4B"/>
<stop offset="0.649516" stop-color="#26DDFF"/>
<stop offset="0.953267" stop-color="#26DDFF" stop-opacity="0"/>
</linearGradient>
<linearGradient id="paint30_linear_1236_7087" x1="135.081" y1="260.836" x2="220.583" y2="298.291" gradientUnits="userSpaceOnUse">
<stop offset="0.303689" stop-color="#004B4B" stop-opacity="0"/>
<stop offset="0.422945" stop-color="#004B4B" stop-opacity="0.4"/>
<stop offset="0.499089" stop-color="#004B4B"/>
<stop offset="0.649516" stop-color="#26DDFF"/>
<stop offset="0.953267" stop-color="#26DDFF" stop-opacity="0"/>
</linearGradient>
<linearGradient id="paint31_linear_1236_7087" x1="148.072" y1="335.548" x2="139.443" y2="349.036" gradientUnits="userSpaceOnUse">
<stop stop-color="#12637E"/>
<stop offset="0.781" stop-color="#04182D"/>
</linearGradient>
<linearGradient id="paint32_linear_1236_7087" x1="136.02" y1="322.056" x2="158.263" y2="336.671" gradientUnits="userSpaceOnUse">
<stop offset="0.303689" stop-color="#004B4B" stop-opacity="0"/>
<stop offset="0.422945" stop-color="#004B4B" stop-opacity="0.4"/>
<stop offset="0.499089" stop-color="#004B4B"/>
<stop offset="0.649516" stop-color="#26DDFF"/>
<stop offset="0.953267" stop-color="#26DDFF" stop-opacity="0"/>
</linearGradient>
<linearGradient id="paint33_linear_1236_7087" x1="204.259" y1="330.572" x2="173.196" y2="379.131" gradientUnits="userSpaceOnUse">
<stop stop-color="#12637E"/>
<stop offset="0.781" stop-color="#04182D"/>
</linearGradient>
<linearGradient id="paint34_linear_1236_7087" x1="217.125" y1="337.375" x2="185.705" y2="384.949" gradientUnits="userSpaceOnUse">
<stop offset="0.303689" stop-color="#004B4B" stop-opacity="0"/>
<stop offset="0.422945" stop-color="#004B4B" stop-opacity="0.4"/>
<stop offset="0.499089" stop-color="#004B4B"/>
<stop offset="0.649516" stop-color="#26DDFF"/>
<stop offset="0.953267" stop-color="#26DDFF" stop-opacity="0"/>
</linearGradient>
<linearGradient id="paint35_linear_1236_7087" x1="371.727" y1="401.429" x2="360.242" y2="491.2" gradientUnits="userSpaceOnUse">
<stop stop-color="#12637E"/>
<stop offset="0.781" stop-color="#04182D"/>
</linearGradient>
<linearGradient id="paint36_linear_1236_7087" x1="457.5" y1="410.5" x2="445.673" y2="500.039" gradientUnits="userSpaceOnUse">
<stop offset="0.303689" stop-color="#004B4B" stop-opacity="0"/>
<stop offset="0.422945" stop-color="#004B4B" stop-opacity="0.4"/>
<stop offset="0.499089" stop-color="#004B4B"/>
<stop offset="0.649516" stop-color="#26DDFF"/>
<stop offset="0.953267" stop-color="#26DDFF" stop-opacity="0"/>
</linearGradient>
<linearGradient id="paint37_linear_1236_7087" x1="85.6649" y1="323.667" x2="171.167" y2="361.122" gradientUnits="userSpaceOnUse">
<stop offset="0.303689" stop-color="#004B4B" stop-opacity="0"/>
<stop offset="0.422945" stop-color="#004B4B" stop-opacity="0.4"/>
<stop offset="0.499089" stop-color="#004B4B"/>
<stop offset="0.649516" stop-color="#26DDFF"/>
<stop offset="0.953267" stop-color="#26DDFF" stop-opacity="0"/>
</linearGradient>
<linearGradient id="paint38_linear_1236_7087" x1="98.072" y1="397.548" x2="89.4432" y2="411.036" gradientUnits="userSpaceOnUse">
<stop stop-color="#12637E"/>
<stop offset="0.781" stop-color="#04182D"/>
</linearGradient>
<linearGradient id="paint39_linear_1236_7087" x1="86.0203" y1="384.056" x2="108.263" y2="398.671" gradientUnits="userSpaceOnUse">
<stop offset="0.303689" stop-color="#004B4B" stop-opacity="0"/>
<stop offset="0.422945" stop-color="#004B4B" stop-opacity="0.4"/>
<stop offset="0.499089" stop-color="#004B4B"/>
<stop offset="0.649516" stop-color="#26DDFF"/>
<stop offset="0.953267" stop-color="#26DDFF" stop-opacity="0"/>
</linearGradient>
<linearGradient id="paint40_linear_1236_7087" x1="143.259" y1="411.572" x2="112.196" y2="460.131" gradientUnits="userSpaceOnUse">
<stop stop-color="#12637E"/>
<stop offset="0.781" stop-color="#04182D"/>
</linearGradient>
<linearGradient id="paint41_linear_1236_7087" x1="156.125" y1="418.375" x2="124.705" y2="465.949" gradientUnits="userSpaceOnUse">
<stop offset="0.303689" stop-color="#004B4B" stop-opacity="0"/>
<stop offset="0.422945" stop-color="#004B4B" stop-opacity="0.4"/>
<stop offset="0.499089" stop-color="#004B4B"/>
<stop offset="0.649516" stop-color="#26DDFF"/>
<stop offset="0.953267" stop-color="#26DDFF" stop-opacity="0"/>
</linearGradient>
</defs>
</svg>
