<svg width="39" height="41" viewBox="0 0 39 41" fill="none" xmlns="http://www.w3.org/2000/svg">
<path d="M38.625 2.44318V13.3523C38.625 13.8345 38.443 14.2969 38.1191 14.6379C37.7952 14.9789 37.3558 15.1705 36.8977 15.1705C36.4396 15.1705 36.0003 14.9789 35.6764 14.6379C35.3524 14.2969 35.1705 13.8345 35.1705 13.3523V6.83182L24.3016 18.275C23.9775 18.6162 23.5379 18.8078 23.0795 18.8078C22.6212 18.8078 22.1816 18.6162 21.8575 18.275C21.5334 17.9338 21.3513 17.4711 21.3513 16.9886C21.3513 16.5062 21.5334 16.0434 21.8575 15.7023L32.7285 4.26136H26.5341C26.076 4.26136 25.6367 4.06981 25.3127 3.72883C24.9888 3.38785 24.8068 2.92539 24.8068 2.44318C24.8068 1.96097 24.9888 1.49851 25.3127 1.15753C25.6367 0.816558 26.076 0.625 26.5341 0.625H36.8977C37.3558 0.625 37.7952 0.816558 38.1191 1.15753C38.443 1.49851 38.625 1.96097 38.625 2.44318ZM14.9484 22.975L4.07955 34.4182V27.8977C4.07955 27.4155 3.89757 26.9531 3.57364 26.6121C3.24971 26.2711 2.81037 26.0795 2.35227 26.0795C1.89417 26.0795 1.45483 26.2711 1.13091 26.6121C0.80698 26.9531 0.625 27.4155 0.625 27.8977V38.8068C0.625 39.289 0.80698 39.7515 1.13091 40.0925C1.45483 40.4334 1.89417 40.625 2.35227 40.625H12.7159C13.174 40.625 13.6133 40.4334 13.9373 40.0925C14.2612 39.7515 14.4432 39.289 14.4432 38.8068C14.4432 38.3246 14.2612 37.8621 13.9373 37.5212C13.6133 37.1802 13.174 36.9886 12.7159 36.9886H6.52148L17.3925 25.5477C17.7166 25.2066 17.8987 24.7438 17.8987 24.2614C17.8987 23.7789 17.7166 23.3162 17.3925 22.975C17.0684 22.6338 16.6288 22.4422 16.1705 22.4422C15.7121 22.4422 15.2725 22.6338 14.9484 22.975Z" fill="white"/>
<path d="M38.625 2.44318V13.3523C38.625 13.8345 38.443 14.2969 38.1191 14.6379C37.7952 14.9789 37.3558 15.1705 36.8977 15.1705C36.4396 15.1705 36.0003 14.9789 35.6764 14.6379C35.3524 14.2969 35.1705 13.8345 35.1705 13.3523V6.83182L24.3016 18.275C23.9775 18.6162 23.5379 18.8078 23.0795 18.8078C22.6212 18.8078 22.1816 18.6162 21.8575 18.275C21.5334 17.9338 21.3513 17.4711 21.3513 16.9886C21.3513 16.5062 21.5334 16.0434 21.8575 15.7023L32.7285 4.26136H26.5341C26.076 4.26136 25.6367 4.06981 25.3127 3.72883C24.9888 3.38785 24.8068 2.92539 24.8068 2.44318C24.8068 1.96097 24.9888 1.49851 25.3127 1.15753C25.6367 0.816558 26.076 0.625 26.5341 0.625H36.8977C37.3558 0.625 37.7952 0.816558 38.1191 1.15753C38.443 1.49851 38.625 1.96097 38.625 2.44318ZM14.9484 22.975L4.07955 34.4182V27.8977C4.07955 27.4155 3.89757 26.9531 3.57364 26.6121C3.24971 26.2711 2.81037 26.0795 2.35227 26.0795C1.89417 26.0795 1.45483 26.2711 1.13091 26.6121C0.80698 26.9531 0.625 27.4155 0.625 27.8977V38.8068C0.625 39.289 0.80698 39.7515 1.13091 40.0925C1.45483 40.4334 1.89417 40.625 2.35227 40.625H12.7159C13.174 40.625 13.6133 40.4334 13.9373 40.0925C14.2612 39.7515 14.4432 39.289 14.4432 38.8068C14.4432 38.3246 14.2612 37.8621 13.9373 37.5212C13.6133 37.1802 13.174 36.9886 12.7159 36.9886H6.52148L17.3925 25.5477C17.7166 25.2066 17.8987 24.7438 17.8987 24.2614C17.8987 23.7789 17.7166 23.3162 17.3925 22.975C17.0684 22.6338 16.6288 22.4422 16.1705 22.4422C15.7121 22.4422 15.2725 22.6338 14.9484 22.975Z" fill="url(#paint0_linear_2096_14451)"/>
<defs>
<linearGradient id="paint0_linear_2096_14451" x1="19.625" y1="0.625" x2="19.625" y2="34.2917" gradientUnits="userSpaceOnUse">
<stop stop-color="#2D4949"/>
<stop offset="0.99" stop-color="#31B2B2"/>
</linearGradient>
</defs>
</svg>
