<svg width="72" height="20" viewBox="0 0 72 20" fill="none" xmlns="http://www.w3.org/2000/svg">
<path d="M8.81344 0.683987H3.2602C2.88032 0.683987 2.55706 0.95418 2.49763 1.32191L0.251682 15.2689C0.212329 15.5163 0.385001 15.7479 0.637585 15.7869C0.661277 15.7904 0.685373 15.7924 0.709869 15.7924H3.361C3.74128 15.7924 4.06454 15.5214 4.12357 15.1537L4.72953 11.3918C4.78816 11.0245 5.11141 10.7535 5.49129 10.7531H7.24934C10.9076 10.7531 13.0186 9.01947 13.57 5.58365C13.8185 4.08048 13.5804 2.89941 12.862 2.07232C12.0725 1.1642 10.6727 0.683594 8.81424 0.683594L8.81344 0.683987ZM9.45393 5.77793C9.15035 7.72946 7.62762 7.72946 6.15548 7.72946H5.31742L5.90531 4.0848C5.94105 3.86456 6.1346 3.70213 6.36229 3.70213H6.74618C7.74889 3.70213 8.69497 3.70213 9.18368 4.26218C9.47521 4.59608 9.56436 5.09242 9.45313 5.77793H9.45393ZM25.4133 5.71501H22.7541C22.5265 5.71501 22.3325 5.87744 22.2972 6.09768L22.1795 6.82606L21.9936 6.56216C21.4177 5.74372 20.1339 5.47038 18.8525 5.47038C15.9139 5.47038 13.4037 7.65041 12.915 10.7083C12.6608 12.2335 13.0222 13.6922 13.9057 14.7093C14.716 15.6445 15.8758 16.0343 17.2551 16.0343C19.6231 16.0343 20.9359 14.5433 20.9359 14.5433L20.8174 15.2669C20.7768 15.5143 20.9491 15.7468 21.2013 15.7861C21.2254 15.79 21.2495 15.7916 21.2736 15.7916H23.6689C24.0492 15.7916 24.3724 15.5206 24.4315 15.1529L25.8687 6.23848C25.9092 5.99228 25.7378 5.76024 25.4864 5.72091C25.4623 5.71697 25.4378 5.71501 25.4133 5.71501ZM21.7065 10.7842C21.4499 12.272 20.244 13.271 18.706 13.271C17.9338 13.271 17.3166 13.0283 16.9202 12.5686C16.5271 12.1119 16.3777 11.4622 16.503 10.7386C16.7427 9.26331 17.9687 8.2317 19.483 8.2317C20.2383 8.2317 20.8519 8.47751 21.2563 8.9412C21.6615 9.40961 21.8221 10.0633 21.7061 10.7838L21.7065 10.7842ZM39.5765 5.71501H36.9041C36.6483 5.7154 36.4089 5.83968 36.2652 6.04655L32.5796 11.3639L31.0171 6.25421C30.9188 5.93407 30.618 5.71501 30.2766 5.71501H27.6504C27.3946 5.71422 27.187 5.91677 27.1862 6.1673C27.1862 6.21764 27.1946 6.26719 27.2111 6.31478L30.1546 14.7749L27.3874 18.6009C27.2392 18.805 27.2882 19.0882 27.4966 19.2329C27.5749 19.2876 27.6689 19.3167 27.7649 19.3167H30.4341C30.687 19.3167 30.924 19.196 31.0681 18.9922L39.9564 6.42648C40.1021 6.22078 40.0499 5.9384 39.8399 5.79563C39.7624 5.74293 39.6704 5.71461 39.5761 5.71461L39.5765 5.71501Z" fill="white"/>
<path d="M48.6065 0.684381H43.0525C42.673 0.684381 42.3498 0.954967 42.2907 1.3223L40.0448 15.2693C40.005 15.5163 40.1769 15.7479 40.4287 15.7869C40.4528 15.7904 40.4769 15.7924 40.501 15.7924H43.3513C43.6171 15.7924 43.8428 15.6024 43.8841 15.3456L44.5214 11.3922C44.58 11.0249 44.9033 10.7539 45.2832 10.7535H47.0404C50.6995 10.7535 52.8097 9.01986 53.3619 5.58404C53.6112 4.08087 53.3715 2.89981 52.6531 2.07271C51.8648 1.16459 50.4654 0.683987 48.6069 0.683987L48.6065 0.684381ZM49.247 5.77833C48.9443 7.72985 47.4215 7.72985 45.9486 7.72985H45.1113L45.7 4.0852C45.7349 3.86495 45.9285 3.70252 46.1562 3.70252H46.5401C47.542 3.70252 48.4889 3.70252 48.9776 4.26257C49.2691 4.59648 49.3575 5.09282 49.2462 5.77833H49.247ZM65.2056 5.7154H62.5481C62.3204 5.71462 62.1264 5.87744 62.0919 6.09808L61.9742 6.82646L61.7875 6.56256C61.2117 5.74411 59.9286 5.47077 58.6473 5.47077C55.7086 5.47077 53.1996 7.6508 52.7105 10.7087C52.4571 12.2339 52.8169 13.6926 53.7004 14.7096C54.5123 15.6449 55.6705 16.0347 57.0498 16.0347C59.4179 16.0347 60.7306 14.5437 60.7306 14.5437L60.6121 15.2673C60.5716 15.5147 60.7438 15.7472 60.996 15.7865C61.0205 15.7904 61.0454 15.7924 61.0699 15.792H63.4644C63.8443 15.792 64.1672 15.521 64.2262 15.1533L65.6642 6.23888C65.7031 5.9911 65.5297 5.75906 65.2767 5.72091C65.253 5.71737 65.2293 5.7154 65.2056 5.71579V5.7154ZM61.4988 10.7846C61.2438 12.2724 60.0363 13.2714 58.4983 13.2714C57.7277 13.2714 57.1089 13.0287 56.7125 12.5689C56.3194 12.1123 56.1716 11.4626 56.2953 10.7389C56.5366 9.2637 57.761 8.23209 59.2753 8.23209C60.0307 8.23209 60.6442 8.4779 61.0486 8.9416C61.4554 9.41001 61.616 10.0637 61.4984 10.7842L61.4988 10.7846ZM68.3406 1.06706L66.0613 15.2693C66.0216 15.5163 66.1935 15.7479 66.4452 15.7869C66.4693 15.7904 66.4934 15.7924 66.5175 15.7924H68.8089C69.1895 15.7924 69.5128 15.5218 69.5714 15.1537L71.819 1.20746C71.8587 0.96008 71.6865 0.728036 71.4339 0.6891C71.4102 0.68556 71.3865 0.683594 71.3624 0.683594H68.7964C68.5687 0.68438 68.3756 0.846811 68.3402 1.06706H68.3406Z" fill="#E6F0ED"/>
</svg>
