<svg width="150" height="40" viewBox="0 0 150 40" fill="none" xmlns="http://www.w3.org/2000/svg">
<g clip-path="url(#clip0_1943_6489)">
<path d="M103.005 31.4273V24.1653C103.005 22.378 102.322 21.4843 100.615 21.4843C99.9325 21.4843 99.1363 21.5962 98.6809 21.7076V32.321C98.6809 32.6562 98.3395 32.9914 97.9981 32.9914H95.3809C95.0394 32.9914 94.698 32.6562 94.698 32.321V19.9202C94.698 19.4731 95.0394 19.1384 95.3809 19.0265C97.0879 18.468 98.7943 18.1328 100.615 18.1328C104.711 18.1328 106.987 20.2554 106.987 24.1659V32.433C106.987 32.7682 106.645 33.1034 106.304 33.1034H104.711C103.687 33.1028 103.005 32.321 103.005 31.4273ZM113.246 27.0703L113.132 28.0759C113.132 29.4167 114.042 30.1985 115.521 30.1985C116.658 30.1985 117.683 29.8632 118.821 29.3048C118.935 29.3048 119.048 29.1928 119.162 29.1928C119.39 29.1928 119.504 29.3048 119.618 29.4161C119.732 29.528 119.959 29.8632 119.959 29.8632C120.187 30.1985 120.415 30.645 120.415 30.9802C120.415 31.5387 120.073 32.0972 119.618 32.321C118.367 32.9914 116.888 33.3266 115.295 33.3266C113.474 33.3266 111.995 32.8795 110.857 31.9858C109.719 30.9802 109.037 29.64 109.037 27.9639V23.6069C109.037 20.1435 111.312 18.0209 115.181 18.0209C118.936 18.0209 121.098 20.0321 121.098 23.6069V26.2879C121.098 26.6231 120.757 26.9583 120.415 26.9583H113.247L113.246 27.0703ZM113.132 24.6125H117.455V23.4955C117.455 22.1547 116.659 21.261 115.293 21.261C113.928 21.261 113.132 22.0428 113.132 23.4955V24.6125ZM142.148 27.0703L142.034 28.0759C142.034 29.4167 142.944 30.1985 144.423 30.1985C145.56 30.1985 146.585 29.8632 147.723 29.3048C147.837 29.3048 147.95 29.1928 148.064 29.1928C148.292 29.1928 148.406 29.3048 148.52 29.4161C148.634 29.528 148.861 29.8632 148.861 29.8632C149.089 30.1985 149.317 30.645 149.317 30.9802C149.317 31.5387 148.975 32.0972 148.52 32.321C147.269 32.9914 145.79 33.3266 144.197 33.3266C142.376 33.3266 140.897 32.8795 139.759 31.9858C138.621 30.9802 137.939 29.64 137.939 27.9639V23.6069C137.939 20.1435 140.214 18.0209 144.083 18.0209C147.838 18.0209 150 20.0321 150 23.6069V26.2879C150 26.6231 149.659 26.9583 149.317 26.9583H142.149V27.0703H142.148ZM142.034 24.6125H146.357V23.4955C146.357 22.1547 145.561 21.261 144.195 21.261C142.83 21.261 142.034 22.0428 142.034 23.4955V24.6125ZM75.1269 33.1028H76.7199C77.0613 33.1028 77.4027 32.7676 77.4027 32.4324V24.1653C77.4027 20.3667 75.3543 18.1322 71.9408 18.1322C70.9166 18.1322 69.7789 18.3555 69.0961 18.5794V14.4456C69.0961 13.5519 68.2999 12.7695 67.3891 12.7695H65.7961C65.4547 12.7695 65.1133 13.1047 65.1133 13.4399V32.4324C65.1133 32.7676 65.4547 33.1028 65.7961 33.1028H68.4133C68.7547 33.1028 69.0961 32.7676 69.0961 32.4324V21.9308C69.6649 21.7076 70.4618 21.5956 71.0306 21.5956C72.7376 21.5956 73.4198 22.3774 73.4198 24.2767V31.5387C73.5338 32.321 74.2166 33.1028 75.1269 33.1028ZM92.3088 23.7182V27.852C92.3088 31.3154 89.9195 33.438 85.9367 33.438C82.0678 33.438 79.5645 31.3154 79.5645 27.852V23.7182C79.5645 20.2548 81.9538 18.1322 85.9367 18.1322C89.9195 18.1322 92.3088 20.2554 92.3088 23.7182ZM88.3265 23.7182C88.3265 22.3774 87.5303 21.4837 86.0507 21.4837C84.571 21.4837 83.7748 22.2654 83.7748 23.7182V27.852C83.7748 29.1928 84.571 29.9746 86.0507 29.9746C87.5303 29.9746 88.3265 29.1928 88.3265 27.852V23.7182ZM62.952 21.8195C62.952 25.3948 60.2214 27.8526 56.5799 27.8526C55.6697 27.8526 54.8728 27.7407 54.0766 27.4055V32.433C54.0766 32.7682 53.7352 33.1034 53.3938 33.1034H50.7766C50.4352 33.1034 50.0938 32.7682 50.0938 32.433V14.6694C50.0938 14.2223 50.4352 13.8877 50.7766 13.7757C52.4836 13.2173 54.19 12.8821 56.0105 12.8821C60.1067 12.8821 62.9514 15.3398 62.9514 19.1384C62.952 19.1378 62.952 21.8195 62.952 21.8195ZM58.8557 18.9146C58.8557 17.1272 57.6041 16.2335 55.8971 16.2335C54.8728 16.2335 54.19 16.5687 54.19 16.5687V23.9421C54.8728 24.2773 55.2143 24.3892 56.0105 24.3892C57.7175 24.3892 58.9691 23.3836 58.9691 21.7081V18.9152H58.8557V18.9146ZM136.458 21.8195C136.458 25.3948 133.728 27.8526 130.086 27.8526C129.176 27.8526 128.379 27.7407 127.583 27.4055V32.433C127.583 32.7682 127.242 33.1034 126.9 33.1034H124.283C123.941 33.1034 123.6 32.7682 123.6 32.433V14.6694C123.6 14.2223 123.941 13.8877 124.283 13.7757C125.99 13.2173 127.696 12.8821 129.517 12.8821C133.613 12.8821 136.458 15.3398 136.458 19.1384C136.458 19.1378 136.458 21.8195 136.458 21.8195ZM132.362 18.9146C132.362 17.1272 131.11 16.2335 129.403 16.2335C128.379 16.2335 127.696 16.5687 127.696 16.5687V23.9421C128.379 24.2773 128.721 24.3892 129.517 24.3892C131.224 24.3892 132.475 23.3836 132.475 21.7081V18.9152H132.362V18.9146Z" fill="white"/>
<path d="M40.236 20C40.236 30.7599 31.3495 39.498 20.368 39.498C9.38653 39.498 0.5 30.7599 0.5 20C0.5 9.24012 9.38653 0.501953 20.368 0.501953C31.3495 0.501953 40.236 9.24012 40.236 20Z" stroke="white"/>
<path d="M29.6133 14.7806C29.6133 13.9988 28.9305 13.3284 28.1343 13.3284H25.4036L19.1455 6.29026C18.5767 5.61985 17.6665 5.39658 16.7563 5.61985L14.5944 6.29026C14.253 6.40219 14.139 6.84874 14.367 7.07202L21.1939 13.4403H10.8383C10.4969 13.4403 10.2695 13.6636 10.2695 13.9988V15.1158C10.2695 15.8975 10.9523 16.5679 11.7486 16.5679H13.3416V21.9306C13.3416 25.9525 15.5034 28.299 19.1449 28.299C20.2825 28.299 21.1934 28.187 22.331 27.7405V31.3158C22.331 32.3214 23.1272 33.1032 24.1514 33.1032H25.7444C26.0858 33.1032 26.4273 32.768 26.4273 32.4328V16.4566H29.0445C29.3859 16.4566 29.6133 16.2333 29.6133 15.8981V14.7806ZM22.331 24.3884C21.6482 24.7236 20.7379 24.8356 20.0551 24.8356C18.2347 24.8356 17.3245 23.9419 17.3245 21.9306V16.5679H22.331V24.3884Z" fill="white"/>
</g>
<defs>
<clipPath id="clip0_1943_6489">
<rect width="150" height="40" fill="white"/>
</clipPath>
</defs>
</svg>
