<svg width="14" height="17" viewBox="0 0 14 17" fill="none" xmlns="http://www.w3.org/2000/svg">
<path d="M9.81423 5.43403L2.40602 1.00158C2.02114 0.771117 1.60373 0.759314 1.24219 0.906535L7.55353 7.96039L9.81423 5.43403Z" fill="white"/>
<path d="M12.5794 7.08708L10.4454 5.81055L8.03906 8.50027L10.4454 11.1897L12.5794 9.91316C13.589 9.30843 13.589 7.69118 12.5794 7.08708Z" fill="white"/>
<path d="M0.665924 1.33984C0.439437 1.61782 0.296875 1.98898 0.296875 2.41449V14.586C0.296875 15.0112 0.439715 15.382 0.665924 15.6606L7.07259 8.50054L0.665924 1.33984Z" fill="white"/>
<path d="M1.24219 16.0932C1.60345 16.2408 2.02086 16.2293 2.40602 15.9982L9.81423 11.5657L7.55381 9.03906L1.24219 16.0932Z" fill="white"/>
</svg>
