<svg width="196" height="149" viewBox="0 0 196 149" fill="none" xmlns="http://www.w3.org/2000/svg">
<path d="M98.2365 142.902C95.0742 142.902 92.0876 142.382 89.8037 141.472L22.3411 112.75C20.0572 111.71 18.8274 110.411 18.8274 108.851C18.8274 107.031 20.5842 105.212 23.7465 103.912L88.3982 76.3596C94.0201 73.8903 102.804 73.6304 107.723 75.8398L175.01 104.562C177.294 105.602 178.524 106.902 178.524 108.461C178.524 110.281 176.767 112.1 173.605 113.4L109.129 140.952C105.967 142.252 101.926 142.902 98.2365 142.902ZM90.3307 140.563C94.8985 142.512 102.98 142.252 108.25 140.043L172.902 112.49C175.537 111.32 177.119 109.891 177.119 108.461C177.119 107.291 176.064 106.252 174.308 105.472L107.021 76.6196C102.453 74.6701 94.3715 74.93 89.1009 77.1394L24.4493 104.692C21.814 105.862 20.2329 107.291 20.2329 108.721C20.2329 109.891 21.287 110.93 23.0438 111.71L90.3307 140.563Z" stroke="url(#paint0_linear_2871_7784)" stroke-miterlimit="10"/>
<path opacity="0.6" d="M90.8849 135.768L33.7876 111.334C29.7469 109.645 30.274 106.525 34.8417 104.576L89.6551 81.1822C94.3986 79.2327 101.426 78.9728 105.467 80.6623L162.74 105.096C166.78 106.785 166.253 109.905 161.685 111.854L106.872 135.248C101.953 137.327 94.9256 137.457 90.8849 135.768Z" fill="#001817"/>
<path d="M165.55 83.3912H137.09L105.642 70.0048C101.601 68.3152 94.3984 68.4452 89.8306 70.5246L59.4373 83.5212H30.9766V97.5574C30.8009 98.7271 31.6793 99.8968 33.6118 100.677L90.7091 125.11C94.7498 126.8 101.953 126.67 106.521 124.59L161.334 101.196C163.794 100.157 165.023 98.8571 165.199 97.5574V83.3912H165.55Z" fill="url(#paint1_linear_2871_7784)"/>
<path d="M161.509 100.157L106.696 123.55C101.953 125.5 94.9253 125.76 90.8846 124.07L33.7873 99.6367C32.3506 99.057 31.4965 98.2618 31.225 97.4113C31.1996 97.3317 31.1521 97.3387 31.1521 97.4223V97.4223C31.1521 97.4256 31.1518 97.429 31.1513 97.4323C30.9789 98.6004 31.8576 99.7678 33.7873 100.547L90.8846 124.98C94.9253 126.67 102.128 126.54 106.696 124.46L161.509 101.066C163.969 100.027 165.199 98.727 165.375 97.4273V96.5176C165.375 97.8172 163.969 99.1169 161.509 100.157Z" stroke="url(#paint2_linear_2871_7784)" stroke-miterlimit="10"/>
<g filter="url(#filter0_d_2871_7784)">
<path d="M32.7334 98.4672V84.4309H61.0185L91.4118 71.4344C96.1553 69.4849 103.183 69.225 107.223 70.9145L138.846 84.4309H165.375V83.5212H137.09L105.642 70.0048C101.601 68.3152 94.3984 68.4452 89.8306 70.5246L59.4373 83.5212H30.9766V97.5574C30.8009 98.7271 31.6793 99.8968 33.6118 100.677L33.9632 100.807C33.0848 100.157 32.7334 99.377 32.7334 98.4672Z" fill="url(#paint3_radial_2871_7784)"/>
</g>
<g filter="url(#filter1_d_2871_7784)">
<path d="M163.794 84.5611V98.5974C163.794 99.3772 163.267 100.027 162.388 100.807C164.321 99.897 165.199 98.7274 165.375 97.5577V83.6514C164.848 83.9113 164.321 84.1712 163.794 84.5611Z" fill="url(#paint4_radial_2871_7784)"/>
</g>
<g filter="url(#filter2_b_2871_7784)">
<path d="M91.1976 111.325L34.1994 86.7351C30.1657 85.0256 30.6918 81.8697 35.2517 79.8972L89.9699 56.2278C94.9758 54.0686 101.442 54.3586 105.476 56.068L162.752 80.4232C166.786 82.1327 166.036 85.0964 161.476 87.0688L104.976 110.569C100.241 112.541 95.2313 113.166 91.1976 111.325Z" fill="url(#paint5_linear_2871_7784)" fill-opacity="0.6"/>
</g>
<g filter="url(#filter3_d_2871_7784)">
<path d="M162.737 80.3656L104.753 55.7703C102.612 54.8545 99.5791 54.4621 96.5461 54.5929C98.687 54.7237 100.828 55.1162 102.434 55.7703L160.418 80.3656C164.522 82.0664 163.986 85.2062 159.348 87.1686L103.504 110.848C101.185 111.764 98.3302 112.418 95.4756 112.549C99.0439 112.68 102.791 112.156 105.645 110.848L161.31 87.2994C166.306 85.2062 166.841 82.1972 162.737 80.3656Z" fill="url(#paint6_radial_2871_7784)"/>
<path d="M161.081 86.8533C162.549 85.9687 163.469 84.8991 163.655 83.7487C163.859 82.4841 163.16 81.3629 161.809 80.5148L162.534 80.8222C162.535 80.8228 162.536 80.8235 162.538 80.8241C164.535 81.7166 165.118 82.7613 164.945 83.6376C164.851 84.1151 164.526 84.654 163.888 85.2149C163.252 85.7738 162.333 86.3287 161.117 86.8383L161.115 86.8389L161.081 86.8533Z" stroke="url(#paint7_linear_2871_7784)"/>
</g>
<path d="M92.8174 103.926L50.3019 85.7305C47.3153 84.4309 47.6667 82.2215 51.1804 80.6619L92.1147 63.2465C95.6284 61.8169 100.899 61.557 103.886 62.8566L146.401 81.0518C149.388 82.3514 149.036 84.5608 145.523 86.1204L104.588 103.666C101.075 105.095 95.804 105.225 92.8174 103.926Z" fill="url(#paint8_linear_2871_7784)"/>
<g filter="url(#filter4_d_2871_7784)">
<path d="M94.2227 98.3372L63.4781 85.2107C61.3699 84.3009 61.5456 82.6114 64.0051 81.5716L93.52 68.965C95.9796 67.9253 99.8446 67.7953 102.129 68.7051L133.049 81.7016C135.157 82.6114 134.981 84.3009 132.522 85.3406L103.007 97.9473C100.196 99.117 96.5066 99.2469 94.2227 98.3372Z" fill="url(#paint9_radial_2871_7784)"/>
</g>
<g filter="url(#filter5_d_2871_7784)">
<path d="M92.5782 110.994L36.3833 86.4189C30.4758 83.833 31.9758 81.833 37.4207 79.5851L91.3679 55.9297C93.6157 55.0098 96.2093 54.3527 98.9758 54.3527C95.5177 54.2213 91.7137 54.747 88.7743 55.9297L34.8271 79.5851C30.1586 81.5564 29.6399 84.7104 33.7897 86.4189L89.9846 111.126C92.0595 112.046 94.999 112.44 97.9384 112.308C96.0364 112.046 94.1344 111.651 92.5782 110.994Z" fill="url(#paint10_radial_2871_7784)"/>
<path d="M91.9685 111.273C91.3218 111.108 90.7226 110.906 90.1873 110.669L90.1859 110.668L33.9909 85.9612L33.991 85.961L33.98 85.9565C31.9707 85.1293 31.3565 84.0704 31.4956 83.1775C31.6478 82.2005 32.723 81.0163 35.0216 80.0457L35.0216 80.0458L35.0279 80.043L88.968 56.3908C89.2005 56.2973 89.4387 56.2081 89.6821 56.123L37.2249 79.125C35.8547 79.6909 34.7065 80.2515 33.853 80.8219C33.0165 81.3809 32.374 82.0071 32.1643 82.7372C31.9361 83.5315 32.2585 84.2755 32.9395 84.9354C33.6095 85.5845 34.689 86.2231 36.1828 86.8769L36.1829 86.877L91.9685 111.273Z" stroke="url(#paint11_linear_2871_7784)"/>
</g>
<path opacity="0.4" d="M17.4758 0.0976562L20.9465 5.47215L73.534 88.7841C73.534 89.2163 73.8839 89.5621 74.467 89.8214L94.8768 98.5528C96.2763 99.1579 98.8421 99.0715 100.592 98.3799L120.185 89.9943C121.001 89.6486 121.468 89.1299 121.584 88.6976L166.716 0.0976562H17.4758Z" fill="url(#paint12_linear_2871_7784)"/>
<path opacity="0.4" d="M17.4758 0.0976562L20.9465 5.47215L73.534 88.7841C73.534 89.2163 73.8839 89.5621 74.467 89.8214L94.8768 98.5528C96.2763 99.1579 98.8421 99.0715 100.592 98.3799L120.185 89.9943C121.001 89.6486 121.468 89.1299 121.584 88.6976L166.716 0.0976562H17.4758Z" fill="url(#paint13_linear_2871_7784)"/>
<defs>
<filter id="filter0_d_2871_7784" x="0.95459" y="44.8408" width="194.42" height="91.9658" filterUnits="userSpaceOnUse" color-interpolation-filters="sRGB">
<feFlood flood-opacity="0" result="BackgroundImageFix"/>
<feColorMatrix in="SourceAlpha" type="matrix" values="0 0 0 0 0 0 0 0 0 0 0 0 0 0 0 0 0 0 127 0" result="hardAlpha"/>
<feOffset dy="6"/>
<feGaussianBlur stdDeviation="15"/>
<feComposite in2="hardAlpha" operator="out"/>
<feColorMatrix type="matrix" values="0 0 0 0 0 0 0 0 0 0.220306 0 0 0 0 0.379167 0 0 0 1 0"/>
<feBlend mode="normal" in2="BackgroundImageFix" result="effect1_dropShadow_2871_7784"/>
<feBlend mode="normal" in="SourceGraphic" in2="effect1_dropShadow_2871_7784" result="shape"/>
</filter>
<filter id="filter1_d_2871_7784" x="132.388" y="59.6514" width="62.9868" height="77.1553" filterUnits="userSpaceOnUse" color-interpolation-filters="sRGB">
<feFlood flood-opacity="0" result="BackgroundImageFix"/>
<feColorMatrix in="SourceAlpha" type="matrix" values="0 0 0 0 0 0 0 0 0 0 0 0 0 0 0 0 0 0 127 0" result="hardAlpha"/>
<feOffset dy="6"/>
<feGaussianBlur stdDeviation="15"/>
<feComposite in2="hardAlpha" operator="out"/>
<feColorMatrix type="matrix" values="0 0 0 0 0 0 0 0 0 0.220306 0 0 0 0 0.379167 0 0 0 1 0"/>
<feBlend mode="normal" in2="BackgroundImageFix" result="effect1_dropShadow_2871_7784"/>
<feBlend mode="normal" in="SourceGraphic" in2="effect1_dropShadow_2871_7784" result="shape"/>
</filter>
<filter id="filter2_b_2871_7784" x="-68.5242" y="-45.3032" width="333.906" height="257.726" filterUnits="userSpaceOnUse" color-interpolation-filters="sRGB">
<feFlood flood-opacity="0" result="BackgroundImageFix"/>
<feGaussianBlur in="BackgroundImageFix" stdDeviation="50"/>
<feComposite in2="SourceAlpha" operator="in" result="effect1_backgroundBlur_2871_7784"/>
<feBlend mode="normal" in="SourceGraphic" in2="effect1_backgroundBlur_2871_7784" result="shape"/>
</filter>
<filter id="filter3_d_2871_7784" x="65.4756" y="30.5684" width="130" height="118" filterUnits="userSpaceOnUse" color-interpolation-filters="sRGB">
<feFlood flood-opacity="0" result="BackgroundImageFix"/>
<feColorMatrix in="SourceAlpha" type="matrix" values="0 0 0 0 0 0 0 0 0 0 0 0 0 0 0 0 0 0 127 0" result="hardAlpha"/>
<feOffset dy="6"/>
<feGaussianBlur stdDeviation="15"/>
<feComposite in2="hardAlpha" operator="out"/>
<feColorMatrix type="matrix" values="0 0 0 0 0 0 0 0 0 0.220306 0 0 0 0 0.379167 0 0 0 1 0"/>
<feBlend mode="normal" in2="BackgroundImageFix" result="effect1_dropShadow_2871_7784"/>
<feBlend mode="normal" in="SourceGraphic" in2="effect1_dropShadow_2871_7784" result="shape"/>
</filter>
<filter id="filter4_d_2871_7784" x="32.0186" y="44.0967" width="132.49" height="90.8374" filterUnits="userSpaceOnUse" color-interpolation-filters="sRGB">
<feFlood flood-opacity="0" result="BackgroundImageFix"/>
<feColorMatrix in="SourceAlpha" type="matrix" values="0 0 0 0 0 0 0 0 0 0 0 0 0 0 0 0 0 0 127 0" result="hardAlpha"/>
<feOffset dy="6"/>
<feGaussianBlur stdDeviation="15"/>
<feComposite in2="hardAlpha" operator="out"/>
<feColorMatrix type="matrix" values="0 0 0 0 0 0 0 0 0 0.220306 0 0 0 0 0.379167 0 0 0 1 0"/>
<feBlend mode="normal" in2="BackgroundImageFix" result="effect1_dropShadow_2871_7784"/>
<feBlend mode="normal" in="SourceGraphic" in2="effect1_dropShadow_2871_7784" result="shape"/>
</filter>
<filter id="filter5_d_2871_7784" x="0.97583" y="30.333" width="128" height="118" filterUnits="userSpaceOnUse" color-interpolation-filters="sRGB">
<feFlood flood-opacity="0" result="BackgroundImageFix"/>
<feColorMatrix in="SourceAlpha" type="matrix" values="0 0 0 0 0 0 0 0 0 0 0 0 0 0 0 0 0 0 127 0" result="hardAlpha"/>
<feOffset dy="6"/>
<feGaussianBlur stdDeviation="15"/>
<feComposite in2="hardAlpha" operator="out"/>
<feColorMatrix type="matrix" values="0 0 0 0 0 0 0 0 0 0.220306 0 0 0 0 0.379167 0 0 0 1 0"/>
<feBlend mode="normal" in2="BackgroundImageFix" result="effect1_dropShadow_2871_7784"/>
<feBlend mode="normal" in="SourceGraphic" in2="effect1_dropShadow_2871_7784" result="shape"/>
</filter>
<linearGradient id="paint0_linear_2871_7784" x1="114.617" y1="53.4047" x2="118.629" y2="164.069" gradientUnits="userSpaceOnUse">
<stop offset="0.303689" stop-color="#004B4B" stop-opacity="0"/>
<stop offset="0.499089" stop-color="#004B4B"/>
<stop offset="0.649516" stop-color="#00B2B1"/>
<stop offset="0.953267" stop-color="#00B2B1" stop-opacity="0"/>
</linearGradient>
<linearGradient id="paint1_linear_2871_7784" x1="18.2565" y1="97.529" x2="195.298" y2="70.1106" gradientUnits="userSpaceOnUse">
<stop offset="0.385" stop-color="#003A3A" stop-opacity="0.9375"/>
<stop offset="0.644324" stop-color="#00B2B1"/>
</linearGradient>
<linearGradient id="paint2_linear_2871_7784" x1="98.6799" y1="82.9642" x2="102.528" y2="130.642" gradientUnits="userSpaceOnUse">
<stop offset="0.334226" stop-color="#004B4B" stop-opacity="0"/>
<stop offset="0.422945" stop-color="#004B4B" stop-opacity="0.4"/>
<stop offset="0.499089" stop-color="#004B4B"/>
<stop offset="0.649516" stop-color="#00B2B1"/>
<stop offset="0.953267" stop-color="#00B2B1" stop-opacity="0"/>
</linearGradient>
<radialGradient id="paint3_radial_2871_7784" cx="0" cy="0" r="1" gradientUnits="userSpaceOnUse" gradientTransform="translate(107.766 85.0313) rotate(6.64815) scale(267.145 103.199)">
<stop stop-color="#00B2B1"/>
<stop offset="0.381991" stop-color="#004B4B"/>
<stop offset="1" stop-color="#004B4B"/>
</radialGradient>
<radialGradient id="paint4_radial_2871_7784" cx="0" cy="0" r="1" gradientUnits="userSpaceOnUse" gradientTransform="translate(164.976 88.5684) rotate(76.1702) scale(20.9787 22.2281)">
<stop stop-color="#00B2B1"/>
<stop offset="0.381991" stop-color="#004B4B"/>
<stop offset="1" stop-color="#004B4B"/>
</radialGradient>
<linearGradient id="paint5_linear_2871_7784" x1="-20.909" y1="38.5624" x2="24.6426" y2="169.318" gradientUnits="userSpaceOnUse">
<stop stop-color="#010D14"/>
<stop offset="0.155482" stop-color="#070214"/>
<stop offset="0.772926" stop-color="#050F14"/>
</linearGradient>
<radialGradient id="paint6_radial_2871_7784" cx="0" cy="0" r="1" gradientUnits="userSpaceOnUse" gradientTransform="translate(135.476 83.945) rotate(22.1025) scale(149.142 174.663)">
<stop stop-color="#00B2B1"/>
<stop offset="0.381991" stop-color="#004B4B"/>
<stop offset="1" stop-color="#004B4B"/>
</radialGradient>
<linearGradient id="paint7_linear_2871_7784" x1="112.774" y1="50.8662" x2="139.501" y2="70.3123" gradientUnits="userSpaceOnUse">
<stop stop-color="#004B4B"/>
<stop offset="1" stop-color="#00B2B1"/>
</linearGradient>
<linearGradient id="paint8_linear_2871_7784" x1="38.8344" y1="83.3978" x2="170.565" y2="63.035" gradientUnits="userSpaceOnUse">
<stop offset="0.232734" stop-color="#004B4B" stop-opacity="0.9375"/>
<stop offset="0.644324" stop-color="#00B2B1"/>
</linearGradient>
<radialGradient id="paint9_radial_2871_7784" cx="0" cy="0" r="1" gradientUnits="userSpaceOnUse" gradientTransform="translate(98.4757 83.0973) rotate(8.89138) scale(164.983 110.746)">
<stop stop-color="#00B2B1"/>
<stop offset="0.390555" stop-color="#004B4B"/>
<stop offset="0.640555" stop-color="#004B4B"/>
</radialGradient>
<radialGradient id="paint10_radial_2871_7784" cx="0" cy="0" r="1" gradientUnits="userSpaceOnUse" gradientTransform="translate(69.833 83.7096) rotate(22.6875) scale(145.492 173.929)">
<stop stop-color="#00C3FD"/>
<stop offset="0.381991" stop-color="#004B4B"/>
<stop offset="1" stop-color="#004B4B"/>
</radialGradient>
<linearGradient id="paint11_linear_2871_7784" x1="47.7804" y1="50.6309" x2="89.4844" y2="58.9372" gradientUnits="userSpaceOnUse">
<stop stop-color="#31B3B3"/>
<stop offset="1" stop-color="#045E5E" stop-opacity="0.9543"/>
</linearGradient>
<linearGradient id="paint12_linear_2871_7784" x1="97.6481" y1="124.976" x2="101.938" y2="0.0963672" gradientUnits="userSpaceOnUse">
<stop stop-color="#D4FFFF"/>
<stop offset="0.852811" stop-color="#13113D" stop-opacity="0"/>
</linearGradient>
<linearGradient id="paint13_linear_2871_7784" x1="97.6481" y1="124.976" x2="101.938" y2="0.0963672" gradientUnits="userSpaceOnUse">
<stop stop-color="#E2FFFF"/>
<stop offset="0.852811" stop-color="#13113D" stop-opacity="0"/>
</linearGradient>
</defs>
</svg>
