<svg width="500" height="560" viewBox="0 0 500 560" fill="none" xmlns="http://www.w3.org/2000/svg">
<rect x="0.25" y="0.25" width="499.5" height="559.5" rx="15.75" stroke="url(#paint0_linear_1237_923)" stroke-width="0.5"/>
<path d="M0 124C86.1365 124 156 193.864 156 280C156 366.136 86.1365 436 0 436" fill="url(#paint1_linear_1237_923)"/>
<path d="M0 124C86.1365 124 156 193.864 156 280C156 366.136 86.1365 436 0 436" stroke="url(#paint2_linear_1237_923)" stroke-miterlimit="10"/>
<path d="M0 180C55.2157 180 100 224.784 100 280C100 335.216 55.2157 380 0 380" fill="url(#paint3_linear_1237_923)"/>
<path d="M0 180C55.2157 180 100 224.784 100 280C100 335.216 55.2157 380 0 380" stroke="url(#paint4_linear_1237_923)" stroke-width="0.5" stroke-miterlimit="10"/>
<path d="M0 226C29.8165 226 54 250.184 54 280C54 309.816 29.8165 334 0 334" fill="url(#paint5_linear_1237_923)"/>
<path d="M0 226C29.8165 226 54 250.184 54 280C54 309.816 29.8165 334 0 334" stroke="url(#paint6_linear_1237_923)" stroke-width="0.5" stroke-miterlimit="10"/>
<rect x="130.5" y="91.5" width="239" height="47" rx="23.5" fill="url(#paint7_linear_1237_923)"/>
<rect x="130.5" y="91.5" width="239" height="47" rx="23.5" stroke="url(#paint8_linear_1237_923)"/>
<path d="M156.688 111.032V114.76H160.752V115.96H156.688V119.8H161.232V121H155.232V109.832H161.232V111.032H156.688ZM165.391 113.656C165.647 113.155 166.01 112.765 166.479 112.488C166.959 112.211 167.54 112.072 168.223 112.072V113.576H167.839C166.207 113.576 165.391 114.461 165.391 116.232V121H163.935V112.232H165.391V113.656ZM171.86 113.656C172.116 113.155 172.479 112.765 172.948 112.488C173.428 112.211 174.009 112.072 174.692 112.072V113.576H174.308C172.676 113.576 171.86 114.461 171.86 116.232V121H170.404V112.232H171.86V113.656ZM180.697 121.144C179.875 121.144 179.129 120.957 178.457 120.584C177.795 120.211 177.273 119.683 176.889 119C176.515 118.307 176.329 117.507 176.329 116.6C176.329 115.704 176.521 114.915 176.905 114.232C177.299 113.539 177.833 113.011 178.505 112.648C179.177 112.275 179.929 112.088 180.761 112.088C181.593 112.088 182.345 112.275 183.017 112.648C183.689 113.011 184.217 113.533 184.601 114.216C184.995 114.899 185.193 115.693 185.193 116.6C185.193 117.507 184.99 118.307 184.585 119C184.19 119.683 183.651 120.211 182.969 120.584C182.286 120.957 181.529 121.144 180.697 121.144ZM180.697 119.864C181.219 119.864 181.71 119.741 182.169 119.496C182.627 119.251 182.995 118.883 183.273 118.392C183.561 117.901 183.705 117.304 183.705 116.6C183.705 115.896 183.566 115.299 183.289 114.808C183.011 114.317 182.649 113.955 182.201 113.72C181.753 113.475 181.267 113.352 180.745 113.352C180.211 113.352 179.721 113.475 179.273 113.72C178.835 113.955 178.483 114.317 178.217 114.808C177.95 115.299 177.817 115.896 177.817 116.6C177.817 117.315 177.945 117.917 178.201 118.408C178.467 118.899 178.819 119.267 179.257 119.512C179.694 119.747 180.174 119.864 180.697 119.864ZM189.063 113.656C189.319 113.155 189.682 112.765 190.151 112.488C190.631 112.211 191.212 112.072 191.895 112.072V113.576H191.511C189.879 113.576 189.063 114.461 189.063 116.232V121H187.607V112.232H189.063V113.656ZM200.297 111.032V114.76H204.361V115.96H200.297V119.8H204.841V121H198.841V109.832H204.841V111.032H200.297ZM209.001 109.16V121H207.545V109.16H209.001ZM212.734 110.808C212.457 110.808 212.222 110.712 212.03 110.52C211.838 110.328 211.742 110.093 211.742 109.816C211.742 109.539 211.838 109.304 212.03 109.112C212.222 108.92 212.457 108.824 212.734 108.824C213.001 108.824 213.225 108.92 213.406 109.112C213.598 109.304 213.694 109.539 213.694 109.816C213.694 110.093 213.598 110.328 213.406 110.52C213.225 110.712 213.001 110.808 212.734 110.808ZM213.438 112.232V121H211.982V112.232H213.438ZM226.964 112.072C227.646 112.072 228.254 112.216 228.788 112.504C229.321 112.781 229.742 113.203 230.052 113.768C230.361 114.333 230.516 115.021 230.516 115.832V121H229.076V116.04C229.076 115.165 228.857 114.499 228.42 114.04C227.993 113.571 227.412 113.336 226.676 113.336C225.918 113.336 225.316 113.581 224.868 114.072C224.42 114.552 224.196 115.251 224.196 116.168V121H222.756V116.04C222.756 115.165 222.537 114.499 222.1 114.04C221.673 113.571 221.092 113.336 220.356 113.336C219.598 113.336 218.996 113.581 218.548 114.072C218.1 114.552 217.876 115.251 217.876 116.168V121H216.42V112.232H217.876V113.496C218.164 113.037 218.548 112.685 219.028 112.44C219.518 112.195 220.057 112.072 220.644 112.072C221.38 112.072 222.03 112.237 222.596 112.568C223.161 112.899 223.582 113.384 223.86 114.024C224.105 113.405 224.51 112.925 225.076 112.584C225.641 112.243 226.27 112.072 226.964 112.072ZM234.156 110.808C233.879 110.808 233.644 110.712 233.452 110.52C233.26 110.328 233.164 110.093 233.164 109.816C233.164 109.539 233.26 109.304 233.452 109.112C233.644 108.92 233.879 108.824 234.156 108.824C234.423 108.824 234.647 108.92 234.828 109.112C235.02 109.304 235.116 109.539 235.116 109.816C235.116 110.093 235.02 110.328 234.828 110.52C234.647 110.712 234.423 110.808 234.156 110.808ZM234.86 112.232V121H233.404V112.232H234.86ZM242.113 112.072C243.18 112.072 244.044 112.397 244.705 113.048C245.367 113.688 245.697 114.616 245.697 115.832V121H244.257V116.04C244.257 115.165 244.039 114.499 243.601 114.04C243.164 113.571 242.567 113.336 241.809 113.336C241.041 113.336 240.428 113.576 239.969 114.056C239.521 114.536 239.297 115.235 239.297 116.152V121H237.841V112.232H239.297V113.48C239.585 113.032 239.975 112.685 240.465 112.44C240.967 112.195 241.516 112.072 242.113 112.072ZM248.032 116.584C248.032 115.688 248.213 114.904 248.576 114.232C248.938 113.549 249.434 113.021 250.064 112.648C250.704 112.275 251.413 112.088 252.192 112.088C252.96 112.088 253.626 112.253 254.192 112.584C254.757 112.915 255.178 113.331 255.456 113.832V112.232H256.928V121H255.456V119.368C255.168 119.88 254.736 120.307 254.16 120.648C253.594 120.979 252.933 121.144 252.176 121.144C251.397 121.144 250.693 120.952 250.064 120.568C249.434 120.184 248.938 119.645 248.576 118.952C248.213 118.259 248.032 117.469 248.032 116.584ZM255.456 116.6C255.456 115.939 255.322 115.363 255.056 114.872C254.789 114.381 254.426 114.008 253.968 113.752C253.52 113.485 253.024 113.352 252.48 113.352C251.936 113.352 251.44 113.48 250.992 113.736C250.544 113.992 250.186 114.365 249.92 114.856C249.653 115.347 249.52 115.923 249.52 116.584C249.52 117.256 249.653 117.843 249.92 118.344C250.186 118.835 250.544 119.213 250.992 119.48C251.44 119.736 251.936 119.864 252.48 119.864C253.024 119.864 253.52 119.736 253.968 119.48C254.426 119.213 254.789 118.835 255.056 118.344C255.322 117.843 255.456 117.261 255.456 116.6ZM261.664 113.432V118.6C261.664 119.027 261.755 119.331 261.936 119.512C262.118 119.683 262.432 119.768 262.88 119.768H263.952V121H262.64C261.83 121 261.222 120.813 260.816 120.44C260.411 120.067 260.208 119.453 260.208 118.6V113.432H259.072V112.232H260.208V110.024H261.664V112.232H263.952V113.432H261.664ZM266.968 110.808C266.691 110.808 266.456 110.712 266.264 110.52C266.072 110.328 265.976 110.093 265.976 109.816C265.976 109.539 266.072 109.304 266.264 109.112C266.456 108.92 266.691 108.824 266.968 108.824C267.235 108.824 267.459 108.92 267.64 109.112C267.832 109.304 267.928 109.539 267.928 109.816C267.928 110.093 267.832 110.328 267.64 110.52C267.459 110.712 267.235 110.808 266.968 110.808ZM267.672 112.232V121H266.216V112.232H267.672ZM274.478 121.144C273.657 121.144 272.91 120.957 272.238 120.584C271.577 120.211 271.054 119.683 270.67 119C270.297 118.307 270.11 117.507 270.11 116.6C270.11 115.704 270.302 114.915 270.686 114.232C271.081 113.539 271.614 113.011 272.286 112.648C272.958 112.275 273.71 112.088 274.542 112.088C275.374 112.088 276.126 112.275 276.798 112.648C277.47 113.011 277.998 113.533 278.382 114.216C278.777 114.899 278.974 115.693 278.974 116.6C278.974 117.507 278.771 118.307 278.366 119C277.971 119.683 277.433 120.211 276.75 120.584C276.067 120.957 275.31 121.144 274.478 121.144ZM274.478 119.864C275.001 119.864 275.491 119.741 275.95 119.496C276.409 119.251 276.777 118.883 277.054 118.392C277.342 117.901 277.486 117.304 277.486 116.6C277.486 115.896 277.347 115.299 277.07 114.808C276.793 114.317 276.43 113.955 275.982 113.72C275.534 113.475 275.049 113.352 274.526 113.352C273.993 113.352 273.502 113.475 273.054 113.72C272.617 113.955 272.265 114.317 271.998 114.808C271.731 115.299 271.598 115.896 271.598 116.6C271.598 117.315 271.726 117.917 271.982 118.408C272.249 118.899 272.601 119.267 273.038 119.512C273.475 119.747 273.955 119.864 274.478 119.864ZM285.66 112.072C286.727 112.072 287.591 112.397 288.252 113.048C288.914 113.688 289.244 114.616 289.244 115.832V121H287.804V116.04C287.804 115.165 287.586 114.499 287.148 114.04C286.711 113.571 286.114 113.336 285.356 113.336C284.588 113.336 283.975 113.576 283.516 114.056C283.068 114.536 282.844 115.235 282.844 116.152V121H281.388V112.232H282.844V113.48C283.132 113.032 283.522 112.685 284.012 112.44C284.514 112.195 285.063 112.072 285.66 112.072Z" fill="white"/>
<path d="M93.5 153.5L124 119" stroke="url(#paint9_linear_1237_923)" stroke-miterlimit="10"/>
<path d="M93 148.5C89.9332 148.5 87.5 150.933 87.5 154C87.5 157.067 89.9332 159.5 93 159.5C96.0669 159.5 98.5 157.067 98.5 154C98.5 150.933 96.0669 148.5 93 148.5Z" fill="url(#paint10_linear_1237_923)" stroke="url(#paint11_linear_1237_923)"/>
<path d="M142.5 118C142.5 127.665 134.665 135.5 125 135.5C115.335 135.5 107.5 127.665 107.5 118C107.5 108.335 115.335 100.5 125 100.5C134.665 100.5 142.5 108.335 142.5 118Z" fill="url(#paint12_linear_1237_923)" stroke="url(#paint13_linear_1237_923)"/>
<rect x="191.5" y="175.5" width="239" height="47" rx="23.5" fill="url(#paint14_linear_1237_923)"/>
<rect x="191.5" y="175.5" width="239" height="47" rx="23.5" stroke="url(#paint15_linear_1237_923)"/>
<path d="M222.536 194.348V195.532H217.688V199.292H221.624V200.476H217.688V205.5H216.232V194.348H222.536ZM224.251 201.084C224.251 200.188 224.432 199.404 224.795 198.732C225.157 198.049 225.653 197.521 226.283 197.148C226.923 196.775 227.632 196.588 228.411 196.588C229.179 196.588 229.845 196.753 230.411 197.084C230.976 197.415 231.397 197.831 231.675 198.332V196.732H233.147V205.5H231.675V203.868C231.387 204.38 230.955 204.807 230.379 205.148C229.813 205.479 229.152 205.644 228.395 205.644C227.616 205.644 226.912 205.452 226.283 205.068C225.653 204.684 225.157 204.145 224.795 203.452C224.432 202.759 224.251 201.969 224.251 201.084ZM231.675 201.1C231.675 200.439 231.541 199.863 231.275 199.372C231.008 198.881 230.645 198.508 230.187 198.252C229.739 197.985 229.243 197.852 228.699 197.852C228.155 197.852 227.659 197.98 227.211 198.236C226.763 198.492 226.405 198.865 226.139 199.356C225.872 199.847 225.739 200.423 225.739 201.084C225.739 201.756 225.872 202.343 226.139 202.844C226.405 203.335 226.763 203.713 227.211 203.98C227.659 204.236 228.155 204.364 228.699 204.364C229.243 204.364 229.739 204.236 230.187 203.98C230.645 203.713 231.008 203.335 231.275 202.844C231.541 202.343 231.675 201.761 231.675 201.1ZM239.211 205.644C238.539 205.644 237.936 205.532 237.403 205.308C236.87 205.073 236.448 204.753 236.139 204.348C235.83 203.932 235.659 203.457 235.627 202.924H237.131C237.174 203.361 237.376 203.719 237.739 203.996C238.112 204.273 238.598 204.412 239.195 204.412C239.75 204.412 240.187 204.289 240.507 204.044C240.827 203.799 240.987 203.489 240.987 203.116C240.987 202.732 240.816 202.449 240.475 202.268C240.134 202.076 239.606 201.889 238.891 201.708C238.24 201.537 237.707 201.367 237.291 201.196C236.886 201.015 236.534 200.753 236.235 200.412C235.947 200.06 235.803 199.601 235.803 199.036C235.803 198.588 235.936 198.177 236.203 197.804C236.47 197.431 236.848 197.137 237.339 196.924C237.83 196.7 238.39 196.588 239.019 196.588C239.99 196.588 240.774 196.833 241.371 197.324C241.968 197.815 242.288 198.487 242.331 199.34H240.875C240.843 198.881 240.656 198.513 240.315 198.236C239.984 197.959 239.536 197.82 238.971 197.82C238.448 197.82 238.032 197.932 237.723 198.156C237.414 198.38 237.259 198.673 237.259 199.036C237.259 199.324 237.35 199.564 237.531 199.756C237.723 199.937 237.958 200.087 238.235 200.204C238.523 200.311 238.918 200.433 239.419 200.572C240.048 200.743 240.56 200.913 240.955 201.084C241.35 201.244 241.686 201.489 241.963 201.82C242.251 202.151 242.4 202.583 242.411 203.116C242.411 203.596 242.278 204.028 242.011 204.412C241.744 204.796 241.366 205.1 240.875 205.324C240.395 205.537 239.84 205.644 239.211 205.644ZM246.742 197.932V203.1C246.742 203.527 246.833 203.831 247.014 204.012C247.196 204.183 247.51 204.268 247.958 204.268H249.03V205.5H247.718C246.908 205.5 246.3 205.313 245.894 204.94C245.489 204.567 245.286 203.953 245.286 203.1V197.932H244.15V196.732H245.286V194.524H246.742V196.732H249.03V197.932H246.742ZM263.516 197.612C263.516 198.54 263.196 199.313 262.556 199.932C261.927 200.54 260.961 200.844 259.66 200.844H257.516V205.5H256.06V194.348H259.66C260.919 194.348 261.873 194.652 262.524 195.26C263.185 195.868 263.516 196.652 263.516 197.612ZM259.66 199.644C260.471 199.644 261.068 199.468 261.452 199.116C261.836 198.764 262.028 198.263 262.028 197.612C262.028 196.236 261.239 195.548 259.66 195.548H257.516V199.644H259.66ZM267.282 198.156C267.538 197.655 267.9 197.265 268.37 196.988C268.85 196.711 269.431 196.572 270.114 196.572V198.076H269.73C268.098 198.076 267.282 198.961 267.282 200.732V205.5H265.826V196.732H267.282V198.156ZM276.119 205.644C275.297 205.644 274.551 205.457 273.879 205.084C273.217 204.711 272.695 204.183 272.311 203.5C271.937 202.807 271.751 202.007 271.751 201.1C271.751 200.204 271.943 199.415 272.327 198.732C272.721 198.039 273.255 197.511 273.927 197.148C274.599 196.775 275.351 196.588 276.183 196.588C277.015 196.588 277.767 196.775 278.439 197.148C279.111 197.511 279.639 198.033 280.023 198.716C280.417 199.399 280.615 200.193 280.615 201.1C280.615 202.007 280.412 202.807 280.007 203.5C279.612 204.183 279.073 204.711 278.391 205.084C277.708 205.457 276.951 205.644 276.119 205.644ZM276.119 204.364C276.641 204.364 277.132 204.241 277.591 203.996C278.049 203.751 278.417 203.383 278.695 202.892C278.983 202.401 279.127 201.804 279.127 201.1C279.127 200.396 278.988 199.799 278.711 199.308C278.433 198.817 278.071 198.455 277.623 198.22C277.175 197.975 276.689 197.852 276.167 197.852C275.633 197.852 275.143 197.975 274.695 198.22C274.257 198.455 273.905 198.817 273.639 199.308C273.372 199.799 273.239 200.396 273.239 201.1C273.239 201.815 273.367 202.417 273.623 202.908C273.889 203.399 274.241 203.767 274.679 204.012C275.116 204.247 275.596 204.364 276.119 204.364ZM282.485 201.1C282.485 200.193 282.666 199.404 283.029 198.732C283.392 198.049 283.893 197.521 284.533 197.148C285.184 196.775 285.925 196.588 286.757 196.588C287.834 196.588 288.72 196.849 289.413 197.372C290.117 197.895 290.581 198.62 290.805 199.548H289.237C289.088 199.015 288.794 198.593 288.357 198.284C287.93 197.975 287.397 197.82 286.757 197.82C285.925 197.82 285.253 198.108 284.741 198.684C284.229 199.249 283.973 200.055 283.973 201.1C283.973 202.156 284.229 202.972 284.741 203.548C285.253 204.124 285.925 204.412 286.757 204.412C287.397 204.412 287.93 204.263 288.357 203.964C288.784 203.665 289.077 203.239 289.237 202.684H290.805C290.57 203.58 290.101 204.3 289.397 204.844C288.693 205.377 287.813 205.644 286.757 205.644C285.925 205.644 285.184 205.457 284.533 205.084C283.893 204.711 283.392 204.183 283.029 203.5C282.666 202.817 282.485 202.017 282.485 201.1ZM301.248 200.78C301.248 201.057 301.232 201.351 301.2 201.66H294.192C294.245 202.524 294.538 203.201 295.072 203.692C295.616 204.172 296.272 204.412 297.04 204.412C297.669 204.412 298.192 204.268 298.608 203.98C299.034 203.681 299.333 203.287 299.504 202.796H301.072C300.837 203.639 300.368 204.327 299.664 204.86C298.96 205.383 298.085 205.644 297.04 205.644C296.208 205.644 295.461 205.457 294.8 205.084C294.149 204.711 293.637 204.183 293.264 203.5C292.89 202.807 292.704 202.007 292.704 201.1C292.704 200.193 292.885 199.399 293.248 198.716C293.61 198.033 294.117 197.511 294.768 197.148C295.429 196.775 296.186 196.588 297.04 196.588C297.872 196.588 298.608 196.769 299.248 197.132C299.888 197.495 300.378 197.996 300.72 198.636C301.072 199.265 301.248 199.98 301.248 200.78ZM299.744 200.476C299.744 199.921 299.621 199.447 299.376 199.052C299.13 198.647 298.794 198.343 298.368 198.14C297.952 197.927 297.488 197.82 296.976 197.82C296.24 197.82 295.61 198.055 295.088 198.524C294.576 198.993 294.282 199.644 294.208 200.476H299.744ZM306.774 205.644C306.102 205.644 305.499 205.532 304.966 205.308C304.432 205.073 304.011 204.753 303.702 204.348C303.392 203.932 303.222 203.457 303.19 202.924H304.694C304.736 203.361 304.939 203.719 305.302 203.996C305.675 204.273 306.16 204.412 306.758 204.412C307.312 204.412 307.75 204.289 308.07 204.044C308.39 203.799 308.55 203.489 308.55 203.116C308.55 202.732 308.379 202.449 308.038 202.268C307.696 202.076 307.168 201.889 306.454 201.708C305.803 201.537 305.27 201.367 304.854 201.196C304.448 201.015 304.096 200.753 303.798 200.412C303.51 200.06 303.366 199.601 303.366 199.036C303.366 198.588 303.499 198.177 303.766 197.804C304.032 197.431 304.411 197.137 304.902 196.924C305.392 196.7 305.952 196.588 306.582 196.588C307.552 196.588 308.336 196.833 308.934 197.324C309.531 197.815 309.851 198.487 309.894 199.34H308.438C308.406 198.881 308.219 198.513 307.878 198.236C307.547 197.959 307.099 197.82 306.534 197.82C306.011 197.82 305.595 197.932 305.286 198.156C304.976 198.38 304.822 198.673 304.822 199.036C304.822 199.324 304.912 199.564 305.094 199.756C305.286 199.937 305.52 200.087 305.798 200.204C306.086 200.311 306.48 200.433 306.982 200.572C307.611 200.743 308.123 200.913 308.518 201.084C308.912 201.244 309.248 201.489 309.526 201.82C309.814 202.151 309.963 202.583 309.974 203.116C309.974 203.596 309.84 204.028 309.574 204.412C309.307 204.796 308.928 205.1 308.438 205.324C307.958 205.537 307.403 205.644 306.774 205.644ZM315.633 205.644C314.961 205.644 314.358 205.532 313.825 205.308C313.292 205.073 312.87 204.753 312.561 204.348C312.252 203.932 312.081 203.457 312.049 202.924H313.553C313.596 203.361 313.798 203.719 314.161 203.996C314.534 204.273 315.02 204.412 315.617 204.412C316.172 204.412 316.609 204.289 316.929 204.044C317.249 203.799 317.409 203.489 317.409 203.116C317.409 202.732 317.238 202.449 316.897 202.268C316.556 202.076 316.028 201.889 315.313 201.708C314.662 201.537 314.129 201.367 313.713 201.196C313.308 201.015 312.956 200.753 312.657 200.412C312.369 200.06 312.225 199.601 312.225 199.036C312.225 198.588 312.358 198.177 312.625 197.804C312.892 197.431 313.27 197.137 313.761 196.924C314.252 196.7 314.812 196.588 315.441 196.588C316.412 196.588 317.196 196.833 317.793 197.324C318.39 197.815 318.71 198.487 318.753 199.34H317.297C317.265 198.881 317.078 198.513 316.737 198.236C316.406 197.959 315.958 197.82 315.393 197.82C314.87 197.82 314.454 197.932 314.145 198.156C313.836 198.38 313.681 198.673 313.681 199.036C313.681 199.324 313.772 199.564 313.953 199.756C314.145 199.937 314.38 200.087 314.657 200.204C314.945 200.311 315.34 200.433 315.841 200.572C316.47 200.743 316.982 200.913 317.377 201.084C317.772 201.244 318.108 201.489 318.385 201.82C318.673 202.151 318.822 202.583 318.833 203.116C318.833 203.596 318.7 204.028 318.433 204.412C318.166 204.796 317.788 205.1 317.297 205.324C316.817 205.537 316.262 205.644 315.633 205.644ZM322.14 195.308C321.863 195.308 321.628 195.212 321.436 195.02C321.244 194.828 321.148 194.593 321.148 194.316C321.148 194.039 321.244 193.804 321.436 193.612C321.628 193.42 321.863 193.324 322.14 193.324C322.407 193.324 322.631 193.42 322.812 193.612C323.004 193.804 323.1 194.039 323.1 194.316C323.1 194.593 323.004 194.828 322.812 195.02C322.631 195.212 322.407 195.308 322.14 195.308ZM322.844 196.732V205.5H321.388V196.732H322.844ZM330.098 196.572C331.164 196.572 332.028 196.897 332.69 197.548C333.351 198.188 333.682 199.116 333.682 200.332V205.5H332.242V200.54C332.242 199.665 332.023 198.999 331.586 198.54C331.148 198.071 330.551 197.836 329.794 197.836C329.026 197.836 328.412 198.076 327.954 198.556C327.506 199.036 327.282 199.735 327.282 200.652V205.5H325.826V196.732H327.282V197.98C327.57 197.532 327.959 197.185 328.45 196.94C328.951 196.695 329.5 196.572 330.098 196.572ZM340.176 196.588C340.933 196.588 341.595 196.753 342.16 197.084C342.736 197.415 343.163 197.831 343.44 198.332V196.732H344.912V205.692C344.912 206.492 344.741 207.201 344.4 207.82C344.059 208.449 343.568 208.94 342.928 209.292C342.299 209.644 341.563 209.82 340.72 209.82C339.568 209.82 338.608 209.548 337.84 209.004C337.072 208.46 336.619 207.719 336.48 206.78H337.92C338.08 207.313 338.411 207.74 338.912 208.06C339.413 208.391 340.016 208.556 340.72 208.556C341.52 208.556 342.171 208.305 342.672 207.804C343.184 207.303 343.44 206.599 343.44 205.692V203.852C343.152 204.364 342.725 204.791 342.16 205.132C341.595 205.473 340.933 205.644 340.176 205.644C339.397 205.644 338.688 205.452 338.048 205.068C337.419 204.684 336.923 204.145 336.56 203.452C336.197 202.759 336.016 201.969 336.016 201.084C336.016 200.188 336.197 199.404 336.56 198.732C336.923 198.049 337.419 197.521 338.048 197.148C338.688 196.775 339.397 196.588 340.176 196.588ZM343.44 201.1C343.44 200.439 343.307 199.863 343.04 199.372C342.773 198.881 342.411 198.508 341.952 198.252C341.504 197.985 341.008 197.852 340.464 197.852C339.92 197.852 339.424 197.98 338.976 198.236C338.528 198.492 338.171 198.865 337.904 199.356C337.637 199.847 337.504 200.423 337.504 201.084C337.504 201.756 337.637 202.343 337.904 202.844C338.171 203.335 338.528 203.713 338.976 203.98C339.424 204.236 339.92 204.364 340.464 204.364C341.008 204.364 341.504 204.236 341.952 203.98C342.411 203.713 342.773 203.335 343.04 202.844C343.307 202.343 343.44 201.761 343.44 201.1Z" fill="white"/>
<path d="M140.5 211.5L184.5 199.5" stroke="url(#paint16_linear_1237_923)" stroke-miterlimit="10"/>
<path d="M141 205.5C137.933 205.5 135.5 207.933 135.5 211C135.5 214.067 137.933 216.5 141 216.5C144.067 216.5 146.5 214.067 146.5 211C146.5 207.933 144.067 205.5 141 205.5Z" fill="url(#paint17_linear_1237_923)" stroke="url(#paint18_linear_1237_923)"/>
<path d="M203.5 199C203.5 208.665 195.665 216.5 186 216.5C176.335 216.5 168.5 208.665 168.5 199C168.5 189.335 176.335 181.5 186 181.5C195.665 181.5 203.5 189.335 203.5 199Z" fill="url(#paint19_linear_1237_923)" stroke="url(#paint20_linear_1237_923)"/>
<rect x="207.5" y="256.5" width="239" height="47" rx="23.5" fill="url(#paint21_linear_1237_923)"/>
<rect x="207.5" y="256.5" width="239" height="47" rx="23.5" stroke="url(#paint22_linear_1237_923)"/>
<path d="M238.536 275.348V276.532H233.688V280.292H237.624V281.476H233.688V286.5H232.232V275.348H238.536ZM242.251 279.156C242.507 278.655 242.869 278.265 243.339 277.988C243.819 277.711 244.4 277.572 245.083 277.572V279.076H244.699C243.067 279.076 242.251 279.961 242.251 281.732V286.5H240.795V277.732H242.251V279.156ZM246.719 282.084C246.719 281.188 246.901 280.404 247.263 279.732C247.626 279.049 248.122 278.521 248.751 278.148C249.391 277.775 250.101 277.588 250.879 277.588C251.647 277.588 252.314 277.753 252.879 278.084C253.445 278.415 253.866 278.831 254.143 279.332V277.732H255.615V286.5H254.143V284.868C253.855 285.38 253.423 285.807 252.847 286.148C252.282 286.479 251.621 286.644 250.863 286.644C250.085 286.644 249.381 286.452 248.751 286.068C248.122 285.684 247.626 285.145 247.263 284.452C246.901 283.759 246.719 282.969 246.719 282.084ZM254.143 282.1C254.143 281.439 254.01 280.863 253.743 280.372C253.477 279.881 253.114 279.508 252.655 279.252C252.207 278.985 251.711 278.852 251.167 278.852C250.623 278.852 250.127 278.98 249.679 279.236C249.231 279.492 248.874 279.865 248.607 280.356C248.341 280.847 248.207 281.423 248.207 282.084C248.207 282.756 248.341 283.343 248.607 283.844C248.874 284.335 249.231 284.713 249.679 284.98C250.127 285.236 250.623 285.364 251.167 285.364C251.711 285.364 252.207 285.236 252.655 284.98C253.114 284.713 253.477 284.335 253.743 283.844C254.01 283.343 254.143 282.761 254.143 282.1ZM266.352 277.732V286.5H264.896V285.204C264.618 285.652 264.229 286.004 263.728 286.26C263.237 286.505 262.693 286.628 262.096 286.628C261.413 286.628 260.8 286.489 260.256 286.212C259.712 285.924 259.28 285.497 258.96 284.932C258.65 284.367 258.496 283.679 258.496 282.868V277.732H259.936V282.676C259.936 283.54 260.154 284.207 260.592 284.676C261.029 285.135 261.626 285.364 262.384 285.364C263.162 285.364 263.776 285.124 264.224 284.644C264.672 284.164 264.896 283.465 264.896 282.548V277.732H266.352ZM268.766 282.084C268.766 281.188 268.947 280.404 269.31 279.732C269.673 279.049 270.169 278.521 270.798 278.148C271.438 277.775 272.153 277.588 272.942 277.588C273.625 277.588 274.259 277.748 274.846 278.068C275.433 278.377 275.881 278.788 276.19 279.3V274.66H277.662V286.5H276.19V284.852C275.902 285.375 275.475 285.807 274.91 286.148C274.345 286.479 273.683 286.644 272.926 286.644C272.147 286.644 271.438 286.452 270.798 286.068C270.169 285.684 269.673 285.145 269.31 284.452C268.947 283.759 268.766 282.969 268.766 282.084ZM276.19 282.1C276.19 281.439 276.057 280.863 275.79 280.372C275.523 279.881 275.161 279.508 274.702 279.252C274.254 278.985 273.758 278.852 273.214 278.852C272.67 278.852 272.174 278.98 271.726 279.236C271.278 279.492 270.921 279.865 270.654 280.356C270.387 280.847 270.254 281.423 270.254 282.084C270.254 282.756 270.387 283.343 270.654 283.844C270.921 284.335 271.278 284.713 271.726 284.98C272.174 285.236 272.67 285.364 273.214 285.364C273.758 285.364 274.254 285.236 274.702 284.98C275.161 284.713 275.523 284.335 275.79 283.844C276.057 283.343 276.19 282.761 276.19 282.1ZM292.844 278.612C292.844 279.54 292.524 280.313 291.884 280.932C291.255 281.54 290.29 281.844 288.988 281.844H286.844V286.5H285.388V275.348H288.988C290.247 275.348 291.202 275.652 291.852 276.26C292.514 276.868 292.844 277.652 292.844 278.612ZM288.988 280.644C289.799 280.644 290.396 280.468 290.78 280.116C291.164 279.764 291.356 279.263 291.356 278.612C291.356 277.236 290.567 276.548 288.988 276.548H286.844V280.644H288.988ZM296.61 279.156C296.866 278.655 297.229 278.265 297.698 277.988C298.178 277.711 298.759 277.572 299.442 277.572V279.076H299.058C297.426 279.076 296.61 279.961 296.61 281.732V286.5H295.154V277.732H296.61V279.156ZM309.623 281.78C309.623 282.057 309.607 282.351 309.575 282.66H302.567C302.62 283.524 302.913 284.201 303.447 284.692C303.991 285.172 304.647 285.412 305.415 285.412C306.044 285.412 306.567 285.268 306.983 284.98C307.409 284.681 307.708 284.287 307.879 283.796H309.447C309.212 284.639 308.743 285.327 308.039 285.86C307.335 286.383 306.46 286.644 305.415 286.644C304.583 286.644 303.836 286.457 303.175 286.084C302.524 285.711 302.012 285.183 301.639 284.5C301.265 283.807 301.079 283.007 301.079 282.1C301.079 281.193 301.26 280.399 301.623 279.716C301.985 279.033 302.492 278.511 303.143 278.148C303.804 277.775 304.561 277.588 305.415 277.588C306.247 277.588 306.983 277.769 307.623 278.132C308.263 278.495 308.753 278.996 309.095 279.636C309.447 280.265 309.623 280.98 309.623 281.78ZM308.119 281.476C308.119 280.921 307.996 280.447 307.751 280.052C307.505 279.647 307.169 279.343 306.743 279.14C306.327 278.927 305.863 278.82 305.351 278.82C304.615 278.82 303.985 279.055 303.463 279.524C302.951 279.993 302.657 280.644 302.583 281.476H308.119ZM315.309 285.156L318.029 277.732H319.581L316.141 286.5H314.445L311.005 277.732H312.573L315.309 285.156ZM329.513 281.78C329.513 282.057 329.497 282.351 329.465 282.66H322.457C322.511 283.524 322.804 284.201 323.337 284.692C323.881 285.172 324.537 285.412 325.305 285.412C325.935 285.412 326.457 285.268 326.873 284.98C327.3 284.681 327.599 284.287 327.769 283.796H329.337C329.103 284.639 328.633 285.327 327.929 285.86C327.225 286.383 326.351 286.644 325.305 286.644C324.473 286.644 323.727 286.457 323.065 286.084C322.415 285.711 321.903 285.183 321.529 284.5C321.156 283.807 320.969 283.007 320.969 282.1C320.969 281.193 321.151 280.399 321.513 279.716C321.876 279.033 322.383 278.511 323.033 278.148C323.695 277.775 324.452 277.588 325.305 277.588C326.137 277.588 326.873 277.769 327.513 278.132C328.153 278.495 328.644 278.996 328.985 279.636C329.337 280.265 329.513 280.98 329.513 281.78ZM328.009 281.476C328.009 280.921 327.887 280.447 327.641 280.052C327.396 279.647 327.06 279.343 326.633 279.14C326.217 278.927 325.753 278.82 325.241 278.82C324.505 278.82 323.876 279.055 323.353 279.524C322.841 279.993 322.548 280.644 322.473 281.476H328.009ZM336.207 277.572C337.274 277.572 338.138 277.897 338.799 278.548C339.46 279.188 339.791 280.116 339.791 281.332V286.5H338.351V281.54C338.351 280.665 338.132 279.999 337.695 279.54C337.258 279.071 336.66 278.836 335.903 278.836C335.135 278.836 334.522 279.076 334.063 279.556C333.615 280.036 333.391 280.735 333.391 281.652V286.5H331.935V277.732H333.391V278.98C333.679 278.532 334.068 278.185 334.559 277.94C335.06 277.695 335.61 277.572 336.207 277.572ZM344.446 278.932V284.1C344.446 284.527 344.536 284.831 344.718 285.012C344.899 285.183 345.214 285.268 345.661 285.268H346.734V286.5H345.422C344.611 286.5 344.003 286.313 343.598 285.94C343.192 285.567 342.99 284.953 342.99 284.1V278.932H341.854V277.732H342.99V275.524H344.446V277.732H346.734V278.932H344.446ZM349.75 276.308C349.472 276.308 349.238 276.212 349.046 276.02C348.854 275.828 348.758 275.593 348.758 275.316C348.758 275.039 348.854 274.804 349.046 274.612C349.238 274.42 349.472 274.324 349.75 274.324C350.016 274.324 350.24 274.42 350.422 274.612C350.614 274.804 350.71 275.039 350.71 275.316C350.71 275.593 350.614 275.828 350.422 276.02C350.24 276.212 350.016 276.308 349.75 276.308ZM350.454 277.732V286.5H348.998V277.732H350.454ZM357.259 286.644C356.438 286.644 355.691 286.457 355.019 286.084C354.358 285.711 353.835 285.183 353.451 284.5C353.078 283.807 352.891 283.007 352.891 282.1C352.891 281.204 353.083 280.415 353.467 279.732C353.862 279.039 354.395 278.511 355.067 278.148C355.739 277.775 356.491 277.588 357.323 277.588C358.155 277.588 358.907 277.775 359.579 278.148C360.251 278.511 360.779 279.033 361.163 279.716C361.558 280.399 361.755 281.193 361.755 282.1C361.755 283.007 361.552 283.807 361.147 284.5C360.752 285.183 360.214 285.711 359.531 286.084C358.848 286.457 358.091 286.644 357.259 286.644ZM357.259 285.364C357.782 285.364 358.272 285.241 358.731 284.996C359.19 284.751 359.558 284.383 359.835 283.892C360.123 283.401 360.267 282.804 360.267 282.1C360.267 281.396 360.128 280.799 359.851 280.308C359.574 279.817 359.211 279.455 358.763 279.22C358.315 278.975 357.83 278.852 357.307 278.852C356.774 278.852 356.283 278.975 355.835 279.22C355.398 279.455 355.046 279.817 354.779 280.308C354.512 280.799 354.379 281.396 354.379 282.1C354.379 282.815 354.507 283.417 354.763 283.908C355.03 284.399 355.382 284.767 355.819 285.012C356.256 285.247 356.736 285.364 357.259 285.364ZM368.442 277.572C369.508 277.572 370.372 277.897 371.034 278.548C371.695 279.188 372.026 280.116 372.026 281.332V286.5H370.586V281.54C370.586 280.665 370.367 279.999 369.93 279.54C369.492 279.071 368.895 278.836 368.138 278.836C367.37 278.836 366.756 279.076 366.298 279.556C365.85 280.036 365.626 280.735 365.626 281.652V286.5H364.17V277.732H365.626V278.98C365.914 278.532 366.303 278.185 366.794 277.94C367.295 277.695 367.844 277.572 368.442 277.572Z" fill="white"/>
<path d="M158.5 281H201" stroke="url(#paint23_linear_1237_923)" stroke-miterlimit="10"/>
<path d="M156 274.5C152.933 274.5 150.5 276.933 150.5 280C150.5 283.067 152.933 285.5 156 285.5C159.067 285.5 161.5 283.067 161.5 280C161.5 276.933 159.067 274.5 156 274.5Z" fill="url(#paint24_linear_1237_923)" stroke="url(#paint25_linear_1237_923)"/>
<path d="M219.5 280C219.5 289.665 211.665 297.5 202 297.5C192.335 297.5 184.5 289.665 184.5 280C184.5 270.335 192.335 262.5 202 262.5C211.665 262.5 219.5 270.335 219.5 280Z" fill="url(#paint26_linear_1237_923)" stroke="url(#paint27_linear_1237_923)"/>
<rect x="191.5" y="337.5" width="239" height="47" rx="23.5" fill="url(#paint28_linear_1237_923)"/>
<rect x="191.5" y="337.5" width="239" height="47" rx="23.5" stroke="url(#paint29_linear_1237_923)"/>
<path d="M215.688 361.916C215.688 360.828 215.933 359.852 216.424 358.988C216.915 358.113 217.581 357.431 218.424 356.94C219.277 356.449 220.221 356.204 221.256 356.204C222.472 356.204 223.533 356.497 224.44 357.084C225.347 357.671 226.008 358.503 226.424 359.58H224.68C224.371 358.908 223.923 358.391 223.336 358.028C222.76 357.665 222.067 357.484 221.256 357.484C220.477 357.484 219.779 357.665 219.16 358.028C218.541 358.391 218.056 358.908 217.704 359.58C217.352 360.241 217.176 361.02 217.176 361.916C217.176 362.801 217.352 363.58 217.704 364.252C218.056 364.913 218.541 365.425 219.16 365.788C219.779 366.151 220.477 366.332 221.256 366.332C222.067 366.332 222.76 366.156 223.336 365.804C223.923 365.441 224.371 364.924 224.68 364.252H226.424C226.008 365.319 225.347 366.145 224.44 366.732C223.533 367.308 222.472 367.596 221.256 367.596C220.221 367.596 219.277 367.356 218.424 366.876C217.581 366.385 216.915 365.708 216.424 364.844C215.933 363.98 215.688 363.004 215.688 361.916ZM232.915 367.644C232.094 367.644 231.347 367.457 230.675 367.084C230.014 366.711 229.491 366.183 229.107 365.5C228.734 364.807 228.547 364.007 228.547 363.1C228.547 362.204 228.739 361.415 229.123 360.732C229.518 360.039 230.051 359.511 230.723 359.148C231.395 358.775 232.147 358.588 232.979 358.588C233.811 358.588 234.563 358.775 235.235 359.148C235.907 359.511 236.435 360.033 236.819 360.716C237.214 361.399 237.411 362.193 237.411 363.1C237.411 364.007 237.209 364.807 236.803 365.5C236.409 366.183 235.87 366.711 235.187 367.084C234.505 367.457 233.747 367.644 232.915 367.644ZM232.915 366.364C233.438 366.364 233.929 366.241 234.387 365.996C234.846 365.751 235.214 365.383 235.491 364.892C235.779 364.401 235.923 363.804 235.923 363.1C235.923 362.396 235.785 361.799 235.507 361.308C235.23 360.817 234.867 360.455 234.419 360.22C233.971 359.975 233.486 359.852 232.963 359.852C232.43 359.852 231.939 359.975 231.491 360.22C231.054 360.455 230.702 360.817 230.435 361.308C230.169 361.799 230.035 362.396 230.035 363.1C230.035 363.815 230.163 364.417 230.419 364.908C230.686 365.399 231.038 365.767 231.475 366.012C231.913 366.247 232.393 366.364 232.915 366.364ZM242.93 367.644C242.258 367.644 241.655 367.532 241.122 367.308C240.588 367.073 240.167 366.753 239.858 366.348C239.548 365.932 239.378 365.457 239.346 364.924H240.85C240.892 365.361 241.095 365.719 241.458 365.996C241.831 366.273 242.316 366.412 242.914 366.412C243.468 366.412 243.906 366.289 244.226 366.044C244.546 365.799 244.706 365.489 244.706 365.116C244.706 364.732 244.535 364.449 244.194 364.268C243.852 364.076 243.324 363.889 242.61 363.708C241.959 363.537 241.426 363.367 241.01 363.196C240.604 363.015 240.252 362.753 239.954 362.412C239.666 362.06 239.522 361.601 239.522 361.036C239.522 360.588 239.655 360.177 239.922 359.804C240.188 359.431 240.567 359.137 241.058 358.924C241.548 358.7 242.108 358.588 242.738 358.588C243.708 358.588 244.492 358.833 245.09 359.324C245.687 359.815 246.007 360.487 246.05 361.34H244.594C244.562 360.881 244.375 360.513 244.034 360.236C243.703 359.959 243.255 359.82 242.69 359.82C242.167 359.82 241.751 359.932 241.442 360.156C241.132 360.38 240.978 360.673 240.978 361.036C240.978 361.324 241.068 361.564 241.25 361.756C241.442 361.937 241.676 362.087 241.954 362.204C242.242 362.311 242.636 362.433 243.138 362.572C243.767 362.743 244.279 362.913 244.674 363.084C245.068 363.244 245.404 363.489 245.682 363.82C245.97 364.151 246.119 364.583 246.13 365.116C246.13 365.596 245.996 366.028 245.73 366.412C245.463 366.796 245.084 367.1 244.594 367.324C244.114 367.537 243.559 367.644 242.93 367.644ZM250.461 359.932V365.1C250.461 365.527 250.552 365.831 250.733 366.012C250.914 366.183 251.229 366.268 251.677 366.268H252.749V367.5H251.437C250.626 367.5 250.018 367.313 249.613 366.94C249.208 366.567 249.005 365.953 249.005 365.1V359.932H247.869V358.732H249.005V356.524H250.461V358.732H252.749V359.932H250.461ZM265.651 367.5L262.995 362.94H261.235V367.5H259.779V356.348H263.379C264.222 356.348 264.931 356.492 265.507 356.78C266.094 357.068 266.531 357.457 266.819 357.948C267.107 358.439 267.251 358.999 267.251 359.628C267.251 360.396 267.027 361.073 266.579 361.66C266.142 362.247 265.48 362.636 264.595 362.828L267.395 367.5H265.651ZM261.235 361.772H263.379C264.168 361.772 264.76 361.58 265.155 361.196C265.55 360.801 265.747 360.279 265.747 359.628C265.747 358.967 265.55 358.455 265.155 358.092C264.771 357.729 264.179 357.548 263.379 357.548H261.235V361.772ZM278.013 362.78C278.013 363.057 277.997 363.351 277.965 363.66H270.957C271.011 364.524 271.304 365.201 271.837 365.692C272.381 366.172 273.037 366.412 273.805 366.412C274.435 366.412 274.957 366.268 275.373 365.98C275.8 365.681 276.099 365.287 276.269 364.796H277.837C277.603 365.639 277.133 366.327 276.429 366.86C275.725 367.383 274.851 367.644 273.805 367.644C272.973 367.644 272.227 367.457 271.565 367.084C270.915 366.711 270.403 366.183 270.029 365.5C269.656 364.807 269.469 364.007 269.469 363.1C269.469 362.193 269.651 361.399 270.013 360.716C270.376 360.033 270.883 359.511 271.533 359.148C272.195 358.775 272.952 358.588 273.805 358.588C274.637 358.588 275.373 358.769 276.013 359.132C276.653 359.495 277.144 359.996 277.485 360.636C277.837 361.265 278.013 361.98 278.013 362.78ZM276.509 362.476C276.509 361.921 276.387 361.447 276.141 361.052C275.896 360.647 275.56 360.343 275.133 360.14C274.717 359.927 274.253 359.82 273.741 359.82C273.005 359.82 272.376 360.055 271.853 360.524C271.341 360.993 271.048 361.644 270.973 362.476H276.509ZM279.891 363.084C279.891 362.188 280.072 361.404 280.435 360.732C280.798 360.049 281.294 359.521 281.923 359.148C282.563 358.775 283.278 358.588 284.067 358.588C284.75 358.588 285.384 358.748 285.971 359.068C286.558 359.377 287.006 359.788 287.315 360.3V355.66H288.787V367.5H287.315V365.852C287.027 366.375 286.6 366.807 286.035 367.148C285.47 367.479 284.808 367.644 284.051 367.644C283.272 367.644 282.563 367.452 281.923 367.068C281.294 366.684 280.798 366.145 280.435 365.452C280.072 364.759 279.891 363.969 279.891 363.084ZM287.315 363.1C287.315 362.439 287.182 361.863 286.915 361.372C286.648 360.881 286.286 360.508 285.827 360.252C285.379 359.985 284.883 359.852 284.339 359.852C283.795 359.852 283.299 359.98 282.851 360.236C282.403 360.492 282.046 360.865 281.779 361.356C281.512 361.847 281.379 362.423 281.379 363.084C281.379 363.756 281.512 364.343 281.779 364.844C282.046 365.335 282.403 365.713 282.851 365.98C283.299 366.236 283.795 366.364 284.339 366.364C284.883 366.364 285.379 366.236 285.827 365.98C286.286 365.713 286.648 365.335 286.915 364.844C287.182 364.343 287.315 363.761 287.315 363.1ZM299.524 358.732V367.5H298.068V366.204C297.79 366.652 297.401 367.004 296.9 367.26C296.409 367.505 295.865 367.628 295.268 367.628C294.585 367.628 293.972 367.489 293.428 367.212C292.884 366.924 292.452 366.497 292.132 365.932C291.822 365.367 291.668 364.679 291.668 363.868V358.732H293.108V363.676C293.108 364.54 293.326 365.207 293.764 365.676C294.201 366.135 294.798 366.364 295.556 366.364C296.334 366.364 296.948 366.124 297.396 365.644C297.844 365.164 298.068 364.465 298.068 363.548V358.732H299.524ZM301.938 363.1C301.938 362.193 302.119 361.404 302.482 360.732C302.845 360.049 303.346 359.521 303.986 359.148C304.637 358.775 305.378 358.588 306.21 358.588C307.287 358.588 308.173 358.849 308.866 359.372C309.57 359.895 310.034 360.62 310.258 361.548H308.69C308.541 361.015 308.247 360.593 307.81 360.284C307.383 359.975 306.85 359.82 306.21 359.82C305.378 359.82 304.706 360.108 304.194 360.684C303.682 361.249 303.426 362.055 303.426 363.1C303.426 364.156 303.682 364.972 304.194 365.548C304.706 366.124 305.378 366.412 306.21 366.412C306.85 366.412 307.383 366.263 307.81 365.964C308.237 365.665 308.53 365.239 308.69 364.684H310.258C310.023 365.58 309.554 366.3 308.85 366.844C308.146 367.377 307.266 367.644 306.21 367.644C305.378 367.644 304.637 367.457 303.986 367.084C303.346 366.711 302.845 366.183 302.482 365.5C302.119 364.817 301.938 364.017 301.938 363.1ZM314.477 359.932V365.1C314.477 365.527 314.567 365.831 314.749 366.012C314.93 366.183 315.245 366.268 315.693 366.268H316.765V367.5H315.453C314.642 367.5 314.034 367.313 313.629 366.94C313.223 366.567 313.021 365.953 313.021 365.1V359.932H311.885V358.732H313.021V356.524H314.477V358.732H316.765V359.932H314.477ZM319.781 357.308C319.504 357.308 319.269 357.212 319.077 357.02C318.885 356.828 318.789 356.593 318.789 356.316C318.789 356.039 318.885 355.804 319.077 355.612C319.269 355.42 319.504 355.324 319.781 355.324C320.048 355.324 320.272 355.42 320.453 355.612C320.645 355.804 320.741 356.039 320.741 356.316C320.741 356.593 320.645 356.828 320.453 357.02C320.272 357.212 320.048 357.308 319.781 357.308ZM320.485 358.732V367.5H319.029V358.732H320.485ZM327.29 367.644C326.469 367.644 325.722 367.457 325.05 367.084C324.389 366.711 323.866 366.183 323.482 365.5C323.109 364.807 322.922 364.007 322.922 363.1C322.922 362.204 323.114 361.415 323.498 360.732C323.893 360.039 324.426 359.511 325.098 359.148C325.77 358.775 326.522 358.588 327.354 358.588C328.186 358.588 328.938 358.775 329.61 359.148C330.282 359.511 330.81 360.033 331.194 360.716C331.589 361.399 331.786 362.193 331.786 363.1C331.786 364.007 331.584 364.807 331.178 365.5C330.784 366.183 330.245 366.711 329.562 367.084C328.88 367.457 328.122 367.644 327.29 367.644ZM327.29 366.364C327.813 366.364 328.304 366.241 328.762 365.996C329.221 365.751 329.589 365.383 329.866 364.892C330.154 364.401 330.298 363.804 330.298 363.1C330.298 362.396 330.16 361.799 329.882 361.308C329.605 360.817 329.242 360.455 328.794 360.22C328.346 359.975 327.861 359.852 327.338 359.852C326.805 359.852 326.314 359.975 325.866 360.22C325.429 360.455 325.077 360.817 324.81 361.308C324.544 361.799 324.41 362.396 324.41 363.1C324.41 363.815 324.538 364.417 324.794 364.908C325.061 365.399 325.413 365.767 325.85 366.012C326.288 366.247 326.768 366.364 327.29 366.364ZM338.473 358.572C339.539 358.572 340.403 358.897 341.065 359.548C341.726 360.188 342.057 361.116 342.057 362.332V367.5H340.617V362.54C340.617 361.665 340.398 360.999 339.961 360.54C339.523 360.071 338.926 359.836 338.169 359.836C337.401 359.836 336.787 360.076 336.329 360.556C335.881 361.036 335.657 361.735 335.657 362.652V367.5H334.201V358.732H335.657V359.98C335.945 359.532 336.334 359.185 336.825 358.94C337.326 358.695 337.875 358.572 338.473 358.572Z" fill="white"/>
<path d="M142.916 344.169L189.999 362" stroke="url(#paint30_linear_1237_923)" stroke-miterlimit="10"/>
<path d="M143 338.5C139.933 338.5 137.5 340.933 137.5 344C137.5 347.067 139.933 349.5 143 349.5C146.067 349.5 148.5 347.067 148.5 344C148.5 340.933 146.067 338.5 143 338.5Z" fill="url(#paint31_linear_1237_923)" stroke="url(#paint32_linear_1237_923)"/>
<path d="M203.5 361C203.5 370.665 195.665 378.5 186 378.5C176.335 378.5 168.5 370.665 168.5 361C168.5 351.335 176.335 343.5 186 343.5C195.665 343.5 203.5 351.335 203.5 361Z" fill="url(#paint33_linear_1237_923)" stroke="url(#paint34_linear_1237_923)"/>
<rect x="130.5" y="418.5" width="239" height="47" rx="23.5" fill="url(#paint35_linear_1237_923)"/>
<rect x="130.5" y="418.5" width="239" height="47" rx="23.5" stroke="url(#paint36_linear_1237_923)"/>
<path d="M158.768 448.612C158.032 448.612 157.371 448.484 156.784 448.228C156.208 447.961 155.755 447.599 155.424 447.14C155.093 446.671 154.923 446.132 154.912 445.524H156.464C156.517 446.047 156.731 446.489 157.104 446.852C157.488 447.204 158.043 447.38 158.768 447.38C159.461 447.38 160.005 447.209 160.4 446.868C160.805 446.516 161.008 446.068 161.008 445.524C161.008 445.097 160.891 444.751 160.656 444.484C160.421 444.217 160.128 444.015 159.776 443.876C159.424 443.737 158.949 443.588 158.352 443.428C157.616 443.236 157.024 443.044 156.576 442.852C156.139 442.66 155.76 442.361 155.44 441.956C155.131 441.54 154.976 440.985 154.976 440.292C154.976 439.684 155.131 439.145 155.44 438.676C155.749 438.207 156.181 437.844 156.736 437.588C157.301 437.332 157.947 437.204 158.672 437.204C159.717 437.204 160.571 437.465 161.232 437.988C161.904 438.511 162.283 439.204 162.368 440.068H160.768C160.715 439.641 160.491 439.268 160.096 438.948C159.701 438.617 159.179 438.452 158.528 438.452C157.92 438.452 157.424 438.612 157.04 438.932C156.656 439.241 156.464 439.679 156.464 440.244C156.464 440.649 156.576 440.98 156.8 441.236C157.035 441.492 157.317 441.689 157.648 441.828C157.989 441.956 158.464 442.105 159.072 442.276C159.808 442.479 160.4 442.681 160.848 442.884C161.296 443.076 161.68 443.38 162 443.796C162.32 444.201 162.48 444.756 162.48 445.46C162.48 446.004 162.336 446.516 162.048 446.996C161.76 447.476 161.333 447.865 160.768 448.164C160.203 448.463 159.536 448.612 158.768 448.612ZM164.579 444.1C164.579 443.193 164.76 442.404 165.123 441.732C165.485 441.049 165.987 440.521 166.627 440.148C167.277 439.775 168.019 439.588 168.851 439.588C169.928 439.588 170.813 439.849 171.507 440.372C172.211 440.895 172.675 441.62 172.899 442.548H171.331C171.181 442.015 170.888 441.593 170.451 441.284C170.024 440.975 169.491 440.82 168.851 440.82C168.019 440.82 167.347 441.108 166.835 441.684C166.323 442.249 166.067 443.055 166.067 444.1C166.067 445.156 166.323 445.972 166.835 446.548C167.347 447.124 168.019 447.412 168.851 447.412C169.491 447.412 170.024 447.263 170.451 446.964C170.877 446.665 171.171 446.239 171.331 445.684H172.899C172.664 446.58 172.195 447.3 171.491 447.844C170.787 448.377 169.907 448.644 168.851 448.644C168.019 448.644 167.277 448.457 166.627 448.084C165.987 447.711 165.485 447.183 165.123 446.5C164.76 445.817 164.579 445.017 164.579 444.1ZM174.797 444.084C174.797 443.188 174.979 442.404 175.341 441.732C175.704 441.049 176.2 440.521 176.829 440.148C177.469 439.775 178.179 439.588 178.957 439.588C179.725 439.588 180.392 439.753 180.957 440.084C181.523 440.415 181.944 440.831 182.221 441.332V439.732H183.693V448.5H182.221V446.868C181.933 447.38 181.501 447.807 180.925 448.148C180.36 448.479 179.699 448.644 178.941 448.644C178.163 448.644 177.459 448.452 176.829 448.068C176.2 447.684 175.704 447.145 175.341 446.452C174.979 445.759 174.797 444.969 174.797 444.084ZM182.221 444.1C182.221 443.439 182.088 442.863 181.821 442.372C181.555 441.881 181.192 441.508 180.733 441.252C180.285 440.985 179.789 440.852 179.245 440.852C178.701 440.852 178.205 440.98 177.757 441.236C177.309 441.492 176.952 441.865 176.685 442.356C176.419 442.847 176.285 443.423 176.285 444.084C176.285 444.756 176.419 445.343 176.685 445.844C176.952 446.335 177.309 446.713 177.757 446.98C178.205 447.236 178.701 447.364 179.245 447.364C179.789 447.364 180.285 447.236 180.733 446.98C181.192 446.713 181.555 446.335 181.821 445.844C182.088 445.343 182.221 444.761 182.221 444.1ZM188.11 436.66V448.5H186.654V436.66H188.11ZM190.547 444.084C190.547 443.188 190.729 442.404 191.091 441.732C191.454 441.049 191.95 440.521 192.579 440.148C193.219 439.775 193.929 439.588 194.707 439.588C195.475 439.588 196.142 439.753 196.707 440.084C197.273 440.415 197.694 440.831 197.971 441.332V439.732H199.443V448.5H197.971V446.868C197.683 447.38 197.251 447.807 196.675 448.148C196.11 448.479 195.449 448.644 194.691 448.644C193.913 448.644 193.209 448.452 192.579 448.068C191.95 447.684 191.454 447.145 191.091 446.452C190.729 445.759 190.547 444.969 190.547 444.084ZM197.971 444.1C197.971 443.439 197.838 442.863 197.571 442.372C197.305 441.881 196.942 441.508 196.483 441.252C196.035 440.985 195.539 440.852 194.995 440.852C194.451 440.852 193.955 440.98 193.507 441.236C193.059 441.492 192.702 441.865 192.435 442.356C192.169 442.847 192.035 443.423 192.035 444.084C192.035 444.756 192.169 445.343 192.435 445.844C192.702 446.335 193.059 446.713 193.507 446.98C193.955 447.236 194.451 447.364 194.995 447.364C195.539 447.364 196.035 447.236 196.483 446.98C196.942 446.713 197.305 446.335 197.571 445.844C197.838 445.343 197.971 444.761 197.971 444.1ZM203.86 441.364C204.159 440.841 204.596 440.415 205.172 440.084C205.748 439.753 206.404 439.588 207.14 439.588C207.929 439.588 208.639 439.775 209.268 440.148C209.897 440.521 210.393 441.049 210.756 441.732C211.119 442.404 211.3 443.188 211.3 444.084C211.3 444.969 211.119 445.759 210.756 446.452C210.393 447.145 209.892 447.684 209.252 448.068C208.623 448.452 207.919 448.644 207.14 448.644C206.383 448.644 205.716 448.479 205.14 448.148C204.575 447.817 204.148 447.396 203.86 446.884V448.5H202.404V436.66H203.86V441.364ZM209.812 444.084C209.812 443.423 209.679 442.847 209.412 442.356C209.145 441.865 208.783 441.492 208.324 441.236C207.876 440.98 207.38 440.852 206.836 440.852C206.303 440.852 205.807 440.985 205.348 441.252C204.9 441.508 204.537 441.887 204.26 442.388C203.993 442.879 203.86 443.449 203.86 444.1C203.86 444.761 203.993 445.343 204.26 445.844C204.537 446.335 204.9 446.713 205.348 446.98C205.807 447.236 206.303 447.364 206.836 447.364C207.38 447.364 207.876 447.236 208.324 446.98C208.783 446.713 209.145 446.335 209.412 445.844C209.679 445.343 209.812 444.756 209.812 444.084ZM215.172 436.66V448.5H213.716V436.66H215.172ZM226.154 443.78C226.154 444.057 226.138 444.351 226.106 444.66H219.098C219.151 445.524 219.445 446.201 219.978 446.692C220.522 447.172 221.178 447.412 221.946 447.412C222.575 447.412 223.098 447.268 223.514 446.98C223.941 446.681 224.239 446.287 224.41 445.796H225.978C225.743 446.639 225.274 447.327 224.57 447.86C223.866 448.383 222.991 448.644 221.946 448.644C221.114 448.644 220.367 448.457 219.706 448.084C219.055 447.711 218.543 447.183 218.17 446.5C217.797 445.807 217.61 445.007 217.61 444.1C217.61 443.193 217.791 442.399 218.154 441.716C218.517 441.033 219.023 440.511 219.674 440.148C220.335 439.775 221.093 439.588 221.946 439.588C222.778 439.588 223.514 439.769 224.154 440.132C224.794 440.495 225.285 440.996 225.626 441.636C225.978 442.265 226.154 442.98 226.154 443.78ZM224.65 443.476C224.65 442.921 224.527 442.447 224.282 442.052C224.037 441.647 223.701 441.343 223.274 441.14C222.858 440.927 222.394 440.82 221.882 440.82C221.146 440.82 220.517 441.055 219.994 441.524C219.482 441.993 219.189 442.644 219.114 443.476H224.65ZM241.789 440.58C241.48 439.929 241.032 439.428 240.445 439.076C239.859 438.713 239.176 438.532 238.397 438.532C237.619 438.532 236.915 438.713 236.285 439.076C235.667 439.428 235.176 439.94 234.813 440.612C234.461 441.273 234.285 442.041 234.285 442.916C234.285 443.791 234.461 444.559 234.813 445.22C235.176 445.881 235.667 446.393 236.285 446.756C236.915 447.108 237.619 447.284 238.397 447.284C239.485 447.284 240.381 446.959 241.085 446.308C241.789 445.657 242.2 444.777 242.317 443.668H237.869V442.484H243.869V443.604C243.784 444.521 243.496 445.364 243.005 446.132C242.515 446.889 241.869 447.492 241.069 447.94C240.269 448.377 239.379 448.596 238.397 448.596C237.363 448.596 236.419 448.356 235.565 447.876C234.712 447.385 234.035 446.708 233.533 445.844C233.043 444.98 232.797 444.004 232.797 442.916C232.797 441.828 233.043 440.852 233.533 439.988C234.035 439.113 234.712 438.436 235.565 437.956C236.419 437.465 237.363 437.22 238.397 437.22C239.581 437.22 240.627 437.513 241.533 438.1C242.451 438.687 243.117 439.513 243.533 440.58H241.789ZM247.751 441.156C248.007 440.655 248.369 440.265 248.839 439.988C249.319 439.711 249.9 439.572 250.583 439.572V441.076H250.199C248.567 441.076 247.751 441.961 247.751 443.732V448.5H246.295V439.732H247.751V441.156ZM256.587 448.644C255.766 448.644 255.019 448.457 254.347 448.084C253.686 447.711 253.163 447.183 252.779 446.5C252.406 445.807 252.219 445.007 252.219 444.1C252.219 443.204 252.411 442.415 252.795 441.732C253.19 441.039 253.723 440.511 254.395 440.148C255.067 439.775 255.819 439.588 256.651 439.588C257.483 439.588 258.235 439.775 258.907 440.148C259.579 440.511 260.107 441.033 260.491 441.716C260.886 442.399 261.083 443.193 261.083 444.1C261.083 445.007 260.881 445.807 260.475 446.5C260.081 447.183 259.542 447.711 258.859 448.084C258.177 448.457 257.419 448.644 256.587 448.644ZM256.587 447.364C257.11 447.364 257.601 447.241 258.059 446.996C258.518 446.751 258.886 446.383 259.163 445.892C259.451 445.401 259.595 444.804 259.595 444.1C259.595 443.396 259.457 442.799 259.179 442.308C258.902 441.817 258.539 441.455 258.091 441.22C257.643 440.975 257.158 440.852 256.635 440.852C256.102 440.852 255.611 440.975 255.163 441.22C254.726 441.455 254.374 441.817 254.107 442.308C253.841 442.799 253.707 443.396 253.707 444.1C253.707 444.815 253.835 445.417 254.091 445.908C254.358 446.399 254.71 446.767 255.147 447.012C255.585 447.247 256.065 447.364 256.587 447.364ZM275.178 439.732L272.442 448.5H270.938L268.826 441.54L266.714 448.5H265.21L262.458 439.732H263.946L265.962 447.092L268.138 439.732H269.626L271.754 447.108L273.738 439.732H275.178ZM278.899 440.932V446.1C278.899 446.527 278.989 446.831 279.171 447.012C279.352 447.183 279.667 447.268 280.115 447.268H281.187V448.5H279.875C279.064 448.5 278.456 448.313 278.051 447.94C277.645 447.567 277.443 446.953 277.443 446.1V440.932H276.307V439.732H277.443V437.524H278.899V439.732H281.187V440.932H278.899ZM287.803 439.572C288.464 439.572 289.061 439.716 289.595 440.004C290.128 440.281 290.544 440.703 290.843 441.268C291.152 441.833 291.307 442.521 291.307 443.332V448.5H289.867V443.54C289.867 442.665 289.648 441.999 289.211 441.54C288.773 441.071 288.176 440.836 287.419 440.836C286.651 440.836 286.037 441.076 285.579 441.556C285.131 442.036 284.907 442.735 284.907 443.652V448.5H283.451V436.66H284.907V440.98C285.195 440.532 285.589 440.185 286.091 439.94C286.603 439.695 287.173 439.572 287.803 439.572Z" fill="white"/>
<path d="M93.5 407L124 441.5" stroke="url(#paint37_linear_1237_923)" stroke-miterlimit="10"/>
<path d="M93 400.5C89.9332 400.5 87.5 402.933 87.5 406C87.5 409.067 89.9332 411.5 93 411.5C96.0669 411.5 98.5 409.067 98.5 406C98.5 402.933 96.0669 400.5 93 400.5Z" fill="url(#paint38_linear_1237_923)" stroke="url(#paint39_linear_1237_923)"/>
<path d="M142.5 442C142.5 451.665 134.665 459.5 125 459.5C115.335 459.5 107.5 451.665 107.5 442C107.5 432.335 115.335 424.5 125 424.5C134.665 424.5 142.5 432.335 142.5 442Z" fill="url(#paint40_linear_1237_923)" stroke="url(#paint41_linear_1237_923)"/>
<path d="M127.82 112.46V124L125.54 123.98V115.2L121.4 116.92V114.32L125.54 112.46H127.82Z" fill="white"/>
<path d="M178.8 199.48L181.08 198.1H185.22V200.36H181.24V202.64H185.14V205H178.8V199.48ZM178.8 197.12V194.84L181.08 193.46H185.22V195.74H181.32V197.12H178.8ZM192.62 205H186.2V202.64H192.62V205ZM190.02 200.36H186.12V198.1H190.02V195.74H186.12V193.46H190.26L192.62 194.84V198.98L190.02 200.36Z" fill="white"/>
<path d="M206.22 286.02H202.08V283.66H205.98V281.38H202.08V279.12H205.98V276.76H202.08V274.48H206.22L208.5 275.86V279.28L206.62 280.24L208.5 281.14V284.64L206.22 286.02ZM197.2 282.28V283.66H201.1V286.02H196.96L194.6 284.64V282.28H197.2ZM194.68 278.14V275.86L196.96 274.48H201.1V276.76H197.2V278.14H194.68ZM201.1 281.38H198.58V279.12H201.1V281.38Z" fill="white"/>
<path d="M192.42 366.98H190.08V362.44H185.94V360.1H190.08V355.48H192.42V366.98ZM182.54 360.1H184.96V362.44H178.4L182.54 355.56H185.28L182.54 360.1Z" fill="white"/>
<path d="M117.8 436.46H124.26V438.74H120.34V441.04H124.26V443.4H117.8V436.46ZM120.34 444.3V445.7H124.26V447.98H120.08L117.8 446.6V444.3H120.34ZM131.7 438.74H125.24V436.46H131.7V438.74ZM131.7 442.42V446.6L129.42 447.98H125.24V445.7H129.16V443.4H125.24V441.04H129.16L131.7 442.42Z" fill="white"/>
<defs>
<linearGradient id="paint0_linear_1237_923" x1="27.5" y1="-380.625" x2="714.464" y2="127.526" gradientUnits="userSpaceOnUse">
<stop offset="0.303689" stop-color="#004B4B" stop-opacity="0"/>
<stop offset="0.454116" stop-color="#004B4B" stop-opacity="0.4"/>
<stop offset="0.499089" stop-color="#004B4B"/>
<stop offset="0.64438" stop-color="#26DDFF"/>
<stop offset="0.953267" stop-color="#26DDFF" stop-opacity="0"/>
</linearGradient>
<linearGradient id="paint1_linear_1237_923" x1="184" y1="260.5" x2="94.6909" y2="261.688" gradientUnits="userSpaceOnUse">
<stop stop-color="#12637E"/>
<stop offset="0.781" stop-color="#04182D" stop-opacity="0.4"/>
</linearGradient>
<linearGradient id="paint2_linear_1237_923" x1="-19.2105" y1="-2571.26" x2="340.819" y2="-2549.75" gradientUnits="userSpaceOnUse">
<stop offset="0.303689" stop-color="#004B4B" stop-opacity="0"/>
<stop offset="0.422945" stop-color="#004B4B" stop-opacity="0.4"/>
<stop offset="0.499089" stop-color="#004B4B"/>
<stop offset="0.649516" stop-color="#26DDFF"/>
<stop offset="0.953267" stop-color="#26DDFF" stop-opacity="0"/>
</linearGradient>
<linearGradient id="paint3_linear_1237_923" x1="117.949" y1="267.5" x2="60.6993" y2="268.262" gradientUnits="userSpaceOnUse">
<stop stop-color="#12637E"/>
<stop offset="0.781" stop-color="#04182D" stop-opacity="0.4"/>
</linearGradient>
<linearGradient id="paint4_linear_1237_923" x1="-12.3144" y1="-1547.73" x2="218.474" y2="-1533.94" gradientUnits="userSpaceOnUse">
<stop offset="0.303689" stop-color="#004B4B" stop-opacity="0"/>
<stop offset="0.422945" stop-color="#004B4B" stop-opacity="0.4"/>
<stop offset="0.499089" stop-color="#004B4B"/>
<stop offset="0.649516" stop-color="#26DDFF"/>
<stop offset="0.953267" stop-color="#26DDFF" stop-opacity="0"/>
</linearGradient>
<linearGradient id="paint5_linear_1237_923" x1="63.6923" y1="273.25" x2="32.7776" y2="273.661" gradientUnits="userSpaceOnUse">
<stop stop-color="#12637E"/>
<stop offset="0.781" stop-color="#04182D" stop-opacity="0.4"/>
</linearGradient>
<linearGradient id="paint6_linear_1237_923" x1="-6.64978" y1="-706.974" x2="117.976" y2="-699.529" gradientUnits="userSpaceOnUse">
<stop offset="0.303689" stop-color="#004B4B" stop-opacity="0"/>
<stop offset="0.422945" stop-color="#004B4B" stop-opacity="0.4"/>
<stop offset="0.499089" stop-color="#004B4B"/>
<stop offset="0.649516" stop-color="#26DDFF"/>
<stop offset="0.953267" stop-color="#26DDFF" stop-opacity="0"/>
</linearGradient>
<linearGradient id="paint7_linear_1237_923" x1="371.727" y1="74.4288" x2="360.242" y2="164.2" gradientUnits="userSpaceOnUse">
<stop stop-color="#12637E"/>
<stop offset="0.781" stop-color="#04182D"/>
</linearGradient>
<linearGradient id="paint8_linear_1237_923" x1="457.5" y1="83.5" x2="445.673" y2="173.039" gradientUnits="userSpaceOnUse">
<stop offset="0.303689" stop-color="#004B4B" stop-opacity="0"/>
<stop offset="0.422945" stop-color="#004B4B" stop-opacity="0.4"/>
<stop offset="0.499089" stop-color="#004B4B"/>
<stop offset="0.649516" stop-color="#26DDFF"/>
<stop offset="0.953267" stop-color="#26DDFF" stop-opacity="0"/>
</linearGradient>
<linearGradient id="paint9_linear_1237_923" x1="85.6649" y1="236.833" x2="171.167" y2="199.378" gradientUnits="userSpaceOnUse">
<stop offset="0.303689" stop-color="#004B4B" stop-opacity="0"/>
<stop offset="0.422945" stop-color="#004B4B" stop-opacity="0.4"/>
<stop offset="0.499089" stop-color="#004B4B"/>
<stop offset="0.649516" stop-color="#26DDFF"/>
<stop offset="0.953267" stop-color="#26DDFF" stop-opacity="0"/>
</linearGradient>
<linearGradient id="paint10_linear_1237_923" x1="98.072" y1="145.548" x2="89.4432" y2="159.036" gradientUnits="userSpaceOnUse">
<stop stop-color="#12637E"/>
<stop offset="0.781" stop-color="#04182D"/>
</linearGradient>
<linearGradient id="paint11_linear_1237_923" x1="86.0203" y1="132.056" x2="108.263" y2="146.671" gradientUnits="userSpaceOnUse">
<stop offset="0.303689" stop-color="#004B4B" stop-opacity="0"/>
<stop offset="0.422945" stop-color="#004B4B" stop-opacity="0.4"/>
<stop offset="0.499089" stop-color="#004B4B"/>
<stop offset="0.649516" stop-color="#26DDFF"/>
<stop offset="0.953267" stop-color="#26DDFF" stop-opacity="0"/>
</linearGradient>
<linearGradient id="paint12_linear_1237_923" x1="143.259" y1="87.5716" x2="112.196" y2="136.131" gradientUnits="userSpaceOnUse">
<stop stop-color="#12637E"/>
<stop offset="0.781" stop-color="#04182D"/>
</linearGradient>
<linearGradient id="paint13_linear_1237_923" x1="156.125" y1="94.375" x2="124.705" y2="141.949" gradientUnits="userSpaceOnUse">
<stop offset="0.303689" stop-color="#004B4B" stop-opacity="0"/>
<stop offset="0.422945" stop-color="#004B4B" stop-opacity="0.4"/>
<stop offset="0.499089" stop-color="#004B4B"/>
<stop offset="0.649516" stop-color="#26DDFF"/>
<stop offset="0.953267" stop-color="#26DDFF" stop-opacity="0"/>
</linearGradient>
<linearGradient id="paint14_linear_1237_923" x1="432.727" y1="158.429" x2="421.242" y2="248.2" gradientUnits="userSpaceOnUse">
<stop stop-color="#12637E"/>
<stop offset="0.781" stop-color="#04182D"/>
</linearGradient>
<linearGradient id="paint15_linear_1237_923" x1="518.5" y1="167.5" x2="506.673" y2="257.039" gradientUnits="userSpaceOnUse">
<stop offset="0.303689" stop-color="#004B4B" stop-opacity="0"/>
<stop offset="0.422945" stop-color="#004B4B" stop-opacity="0.4"/>
<stop offset="0.499089" stop-color="#004B4B"/>
<stop offset="0.649516" stop-color="#26DDFF"/>
<stop offset="0.953267" stop-color="#26DDFF" stop-opacity="0"/>
</linearGradient>
<linearGradient id="paint16_linear_1237_923" x1="135.082" y1="95.8363" x2="220.584" y2="133.291" gradientUnits="userSpaceOnUse">
<stop offset="0.303689" stop-color="#004B4B" stop-opacity="0"/>
<stop offset="0.422945" stop-color="#004B4B" stop-opacity="0.4"/>
<stop offset="0.499089" stop-color="#004B4B"/>
<stop offset="0.649516" stop-color="#26DDFF"/>
<stop offset="0.953267" stop-color="#26DDFF" stop-opacity="0"/>
</linearGradient>
<linearGradient id="paint17_linear_1237_923" x1="146.072" y1="202.548" x2="137.443" y2="216.036" gradientUnits="userSpaceOnUse">
<stop stop-color="#12637E"/>
<stop offset="0.781" stop-color="#04182D"/>
</linearGradient>
<linearGradient id="paint18_linear_1237_923" x1="134.02" y1="189.056" x2="156.263" y2="203.671" gradientUnits="userSpaceOnUse">
<stop offset="0.303689" stop-color="#004B4B" stop-opacity="0"/>
<stop offset="0.422945" stop-color="#004B4B" stop-opacity="0.4"/>
<stop offset="0.499089" stop-color="#004B4B"/>
<stop offset="0.649516" stop-color="#26DDFF"/>
<stop offset="0.953267" stop-color="#26DDFF" stop-opacity="0"/>
</linearGradient>
<linearGradient id="paint19_linear_1237_923" x1="204.259" y1="168.572" x2="173.196" y2="217.131" gradientUnits="userSpaceOnUse">
<stop stop-color="#12637E"/>
<stop offset="0.781" stop-color="#04182D"/>
</linearGradient>
<linearGradient id="paint20_linear_1237_923" x1="217.125" y1="175.375" x2="185.705" y2="222.949" gradientUnits="userSpaceOnUse">
<stop offset="0.303689" stop-color="#004B4B" stop-opacity="0"/>
<stop offset="0.422945" stop-color="#004B4B" stop-opacity="0.4"/>
<stop offset="0.499089" stop-color="#004B4B"/>
<stop offset="0.649516" stop-color="#26DDFF"/>
<stop offset="0.953267" stop-color="#26DDFF" stop-opacity="0"/>
</linearGradient>
<linearGradient id="paint21_linear_1237_923" x1="448.727" y1="239.429" x2="437.242" y2="329.2" gradientUnits="userSpaceOnUse">
<stop stop-color="#12637E"/>
<stop offset="0.781" stop-color="#04182D"/>
</linearGradient>
<linearGradient id="paint22_linear_1237_923" x1="534.5" y1="248.5" x2="522.673" y2="338.039" gradientUnits="userSpaceOnUse">
<stop offset="0.303689" stop-color="#004B4B" stop-opacity="0"/>
<stop offset="0.422945" stop-color="#004B4B" stop-opacity="0.4"/>
<stop offset="0.499089" stop-color="#004B4B"/>
<stop offset="0.649516" stop-color="#26DDFF"/>
<stop offset="0.953267" stop-color="#26DDFF" stop-opacity="0"/>
</linearGradient>
<linearGradient id="paint23_linear_1237_923" x1="146.082" y1="179.836" x2="231.584" y2="217.291" gradientUnits="userSpaceOnUse">
<stop offset="0.303689" stop-color="#004B4B" stop-opacity="0"/>
<stop offset="0.422945" stop-color="#004B4B" stop-opacity="0.4"/>
<stop offset="0.499089" stop-color="#004B4B"/>
<stop offset="0.649516" stop-color="#26DDFF"/>
<stop offset="0.953267" stop-color="#26DDFF" stop-opacity="0"/>
</linearGradient>
<linearGradient id="paint24_linear_1237_923" x1="161.072" y1="271.548" x2="152.443" y2="285.036" gradientUnits="userSpaceOnUse">
<stop stop-color="#12637E"/>
<stop offset="0.781" stop-color="#04182D"/>
</linearGradient>
<linearGradient id="paint25_linear_1237_923" x1="149.02" y1="258.056" x2="171.263" y2="272.671" gradientUnits="userSpaceOnUse">
<stop offset="0.303689" stop-color="#004B4B" stop-opacity="0"/>
<stop offset="0.422945" stop-color="#004B4B" stop-opacity="0.4"/>
<stop offset="0.499089" stop-color="#004B4B"/>
<stop offset="0.649516" stop-color="#26DDFF"/>
<stop offset="0.953267" stop-color="#26DDFF" stop-opacity="0"/>
</linearGradient>
<linearGradient id="paint26_linear_1237_923" x1="220.259" y1="249.572" x2="189.196" y2="298.131" gradientUnits="userSpaceOnUse">
<stop stop-color="#12637E"/>
<stop offset="0.781" stop-color="#04182D"/>
</linearGradient>
<linearGradient id="paint27_linear_1237_923" x1="233.125" y1="256.375" x2="201.705" y2="303.949" gradientUnits="userSpaceOnUse">
<stop offset="0.303689" stop-color="#004B4B" stop-opacity="0"/>
<stop offset="0.422945" stop-color="#004B4B" stop-opacity="0.4"/>
<stop offset="0.499089" stop-color="#004B4B"/>
<stop offset="0.649516" stop-color="#26DDFF"/>
<stop offset="0.953267" stop-color="#26DDFF" stop-opacity="0"/>
</linearGradient>
<linearGradient id="paint28_linear_1237_923" x1="432.727" y1="320.429" x2="421.242" y2="410.2" gradientUnits="userSpaceOnUse">
<stop stop-color="#12637E"/>
<stop offset="0.781" stop-color="#04182D"/>
</linearGradient>
<linearGradient id="paint29_linear_1237_923" x1="518.5" y1="329.5" x2="506.673" y2="419.039" gradientUnits="userSpaceOnUse">
<stop offset="0.303689" stop-color="#004B4B" stop-opacity="0"/>
<stop offset="0.422945" stop-color="#004B4B" stop-opacity="0.4"/>
<stop offset="0.499089" stop-color="#004B4B"/>
<stop offset="0.649516" stop-color="#26DDFF"/>
<stop offset="0.953267" stop-color="#26DDFF" stop-opacity="0"/>
</linearGradient>
<linearGradient id="paint30_linear_1237_923" x1="135.081" y1="260.836" x2="220.583" y2="298.291" gradientUnits="userSpaceOnUse">
<stop offset="0.303689" stop-color="#004B4B" stop-opacity="0"/>
<stop offset="0.422945" stop-color="#004B4B" stop-opacity="0.4"/>
<stop offset="0.499089" stop-color="#004B4B"/>
<stop offset="0.649516" stop-color="#26DDFF"/>
<stop offset="0.953267" stop-color="#26DDFF" stop-opacity="0"/>
</linearGradient>
<linearGradient id="paint31_linear_1237_923" x1="148.072" y1="335.548" x2="139.443" y2="349.036" gradientUnits="userSpaceOnUse">
<stop stop-color="#12637E"/>
<stop offset="0.781" stop-color="#04182D"/>
</linearGradient>
<linearGradient id="paint32_linear_1237_923" x1="136.02" y1="322.056" x2="158.263" y2="336.671" gradientUnits="userSpaceOnUse">
<stop offset="0.303689" stop-color="#004B4B" stop-opacity="0"/>
<stop offset="0.422945" stop-color="#004B4B" stop-opacity="0.4"/>
<stop offset="0.499089" stop-color="#004B4B"/>
<stop offset="0.649516" stop-color="#26DDFF"/>
<stop offset="0.953267" stop-color="#26DDFF" stop-opacity="0"/>
</linearGradient>
<linearGradient id="paint33_linear_1237_923" x1="204.259" y1="330.572" x2="173.196" y2="379.131" gradientUnits="userSpaceOnUse">
<stop stop-color="#12637E"/>
<stop offset="0.781" stop-color="#04182D"/>
</linearGradient>
<linearGradient id="paint34_linear_1237_923" x1="217.125" y1="337.375" x2="185.705" y2="384.949" gradientUnits="userSpaceOnUse">
<stop offset="0.303689" stop-color="#004B4B" stop-opacity="0"/>
<stop offset="0.422945" stop-color="#004B4B" stop-opacity="0.4"/>
<stop offset="0.499089" stop-color="#004B4B"/>
<stop offset="0.649516" stop-color="#26DDFF"/>
<stop offset="0.953267" stop-color="#26DDFF" stop-opacity="0"/>
</linearGradient>
<linearGradient id="paint35_linear_1237_923" x1="371.727" y1="401.429" x2="360.242" y2="491.2" gradientUnits="userSpaceOnUse">
<stop stop-color="#12637E"/>
<stop offset="0.781" stop-color="#04182D"/>
</linearGradient>
<linearGradient id="paint36_linear_1237_923" x1="457.5" y1="410.5" x2="445.673" y2="500.039" gradientUnits="userSpaceOnUse">
<stop offset="0.303689" stop-color="#004B4B" stop-opacity="0"/>
<stop offset="0.422945" stop-color="#004B4B" stop-opacity="0.4"/>
<stop offset="0.499089" stop-color="#004B4B"/>
<stop offset="0.649516" stop-color="#26DDFF"/>
<stop offset="0.953267" stop-color="#26DDFF" stop-opacity="0"/>
</linearGradient>
<linearGradient id="paint37_linear_1237_923" x1="85.6649" y1="323.667" x2="171.167" y2="361.122" gradientUnits="userSpaceOnUse">
<stop offset="0.303689" stop-color="#004B4B" stop-opacity="0"/>
<stop offset="0.422945" stop-color="#004B4B" stop-opacity="0.4"/>
<stop offset="0.499089" stop-color="#004B4B"/>
<stop offset="0.649516" stop-color="#26DDFF"/>
<stop offset="0.953267" stop-color="#26DDFF" stop-opacity="0"/>
</linearGradient>
<linearGradient id="paint38_linear_1237_923" x1="98.072" y1="397.548" x2="89.4432" y2="411.036" gradientUnits="userSpaceOnUse">
<stop stop-color="#12637E"/>
<stop offset="0.781" stop-color="#04182D"/>
</linearGradient>
<linearGradient id="paint39_linear_1237_923" x1="86.0203" y1="384.056" x2="108.263" y2="398.671" gradientUnits="userSpaceOnUse">
<stop offset="0.303689" stop-color="#004B4B" stop-opacity="0"/>
<stop offset="0.422945" stop-color="#004B4B" stop-opacity="0.4"/>
<stop offset="0.499089" stop-color="#004B4B"/>
<stop offset="0.649516" stop-color="#26DDFF"/>
<stop offset="0.953267" stop-color="#26DDFF" stop-opacity="0"/>
</linearGradient>
<linearGradient id="paint40_linear_1237_923" x1="143.259" y1="411.572" x2="112.196" y2="460.131" gradientUnits="userSpaceOnUse">
<stop stop-color="#12637E"/>
<stop offset="0.781" stop-color="#04182D"/>
</linearGradient>
<linearGradient id="paint41_linear_1237_923" x1="156.125" y1="418.375" x2="124.705" y2="465.949" gradientUnits="userSpaceOnUse">
<stop offset="0.303689" stop-color="#004B4B" stop-opacity="0"/>
<stop offset="0.422945" stop-color="#004B4B" stop-opacity="0.4"/>
<stop offset="0.499089" stop-color="#004B4B"/>
<stop offset="0.649516" stop-color="#26DDFF"/>
<stop offset="0.953267" stop-color="#26DDFF" stop-opacity="0"/>
</linearGradient>
</defs>
</svg>
