<svg width="123" height="32" viewBox="0 0 123 32" fill="none" xmlns="http://www.w3.org/2000/svg">
<path d="M5.27371 18.4682C5.38633 18.7344 5.34879 19.1128 5.31125 19.3029C5.19862 19.6832 4.97338 20.0616 4.18689 20.0616C3.47549 20.0616 3.06254 19.6433 3.06254 19.0367V17.9357H0.0273438V18.8085C0.0273438 21.3908 2.01327 22.1494 4.14935 22.1494C6.28544 22.1494 7.89782 21.4288 8.15874 19.5292C8.3089 18.5423 8.19628 17.8977 8.15874 17.6315C7.6707 15.2394 3.36099 14.5188 3.06254 13.1516C3.025 12.9234 3.025 12.6952 3.06254 12.545C3.13762 12.1647 3.40041 11.7863 4.11181 11.7863C4.78567 11.7863 5.16108 12.2046 5.16108 12.8112V13.5319H7.97103V12.7352C7.97103 10.229 5.75986 9.85059 4.14747 9.85059C2.12401 9.85059 0.474082 10.5332 0.175631 12.3948C0.100549 12.8892 0.100549 13.3436 0.213172 13.9521C0.663665 16.3423 4.71059 16.9888 5.27183 18.4701" fill="#E6F0ED"/>
<path d="M11.2344 21.7326L13.3329 10.2666H18.3559L20.4544 21.7326H17.4174L15.882 11.2915H15.8444L14.2696 21.7326H11.2344Z" fill="#E6F0ED"/>
<path d="M35.8191 10.2666L36.0819 21.7326H33.2344L33.1594 11.4056H33.0843L31.211 21.7326H28.3241L26.4508 11.4056H26.3757L26.3006 21.7326H23.4531L23.714 10.2666H28.3616L29.7488 19.0363H29.7863L31.211 10.2666H35.8191Z" fill="#E6F0ED"/>
<path d="M44.2533 18.4108C44.3659 18.677 44.3284 19.0173 44.2908 19.2455C44.2158 19.6258 43.953 20.0042 43.204 20.0042C42.4551 20.0042 42.0797 19.5859 42.0797 18.9793V17.8783H39.082V18.7511C39.082 21.2953 41.068 22.054 43.1665 22.054C45.265 22.054 46.8774 21.3695 47.1383 19.4718C47.2885 18.4849 47.1759 17.8403 47.1383 17.6121C46.6503 15.2201 42.4157 14.5374 42.1172 13.2083C42.0421 12.9801 42.0797 12.7519 42.1172 12.6017C42.1923 12.2214 42.4551 11.843 43.129 11.843C43.8028 11.843 44.1782 12.2613 44.1782 12.8679V13.5886H46.9882V12.7918C46.9882 10.3237 44.777 9.94531 43.2022 9.94531C41.2162 9.94531 39.5663 10.5899 39.2679 12.4515C39.1928 12.9459 39.1552 13.4003 39.3054 13.9708C39.7165 16.2868 43.6902 16.9314 44.2514 18.4127" fill="#E6F0ED"/>
<path d="M54.1886 19.7967C54.975 19.7967 55.2378 19.2642 55.2754 18.9619C55.3129 18.8478 55.3129 18.6577 55.3129 18.5074V10.0781H58.1979V18.3173C58.1979 18.5455 58.1604 18.9619 58.1604 19.076C57.9727 21.2019 56.2871 21.9225 54.1867 21.9225C52.0863 21.9225 50.4382 21.238 50.2524 19.076C50.2524 18.9619 50.2148 18.5436 50.2148 18.3173V10.0781H53.0999V18.5816C53.0999 18.7337 53.0999 18.8858 53.1374 19.038C53.175 19.2661 53.4002 19.7967 54.1867 19.7967" fill="#E6F0ED"/>
<path d="M70.7177 10.3242V21.6761H66.6708L63.8984 12.336H63.8233L63.9735 21.6761H61.1992V10.3242H65.3963L68.0204 19.3221H68.058L67.9078 10.3242H70.7177Z" fill="#E6F0ED"/>
<path d="M77.73 19.9301C78.554 19.9301 78.8168 19.3977 78.8919 19.0954C78.9294 18.9813 78.9294 18.7911 78.9294 18.677V17.0075H77.7675V15.3361H81.7769V18.4108C81.7769 18.639 81.7769 18.7911 81.7394 19.1695C81.5517 21.2574 79.7535 22.0161 77.73 22.0161C75.7066 22.0161 73.944 21.2574 73.7563 19.1695C73.7188 18.7892 73.7188 18.6371 73.7188 18.4108V13.5886C73.7188 13.3985 73.7563 13.0201 73.7563 12.8299C74.0191 10.666 75.7047 9.9834 77.73 9.9834C79.7553 9.9834 81.516 10.666 81.7018 12.8299C81.7394 13.1722 81.7394 13.5886 81.7394 13.5886V13.9689H78.8919V13.3243C78.8919 13.3243 78.8919 13.0581 78.8544 12.868C78.8168 12.6018 78.5916 12.0332 77.73 12.0332C76.8684 12.0332 76.6807 12.6018 76.6057 12.868C76.5681 13.0201 76.5681 13.2102 76.5681 13.4004V18.639C76.5681 18.7911 76.5681 18.9432 76.6057 19.0573C76.6057 19.4376 76.906 19.9301 77.73 19.9301Z" fill="#E6F0ED"/>
<path d="M122.471 11.2158C122.019 8.25522 120.757 5.5589 118.549 3.58515C116.206 1.72549 113.004 0.662552 109.489 0.282253C106.109 -0.0980458 103.809 0.0160439 103.809 0.0160439C103.809 0.0160439 101.511 -0.0600159 98.1287 0.282253C94.6135 0.662552 91.4121 1.72549 89.0687 3.58515C86.8607 5.5589 85.5986 8.25522 85.1471 11.2158C84.6956 14.0624 84.7859 16 84.7859 16C84.7859 16 84.6956 17.9357 85.102 20.7842C85.5535 23.7448 86.8155 26.4411 89.0235 28.4149C91.367 30.2745 94.5683 31.3375 98.0835 31.7178C101.463 32.098 103.764 31.984 103.764 31.984C103.764 31.984 106.062 32.06 109.444 31.7178C112.959 31.3375 116.161 30.2745 118.504 28.4149C120.712 26.4411 121.974 23.7448 122.426 20.7842C122.877 17.9376 122.742 16 122.742 16C122.742 16 122.922 14.0643 122.471 11.2158Z" fill="#E6F0ED"/>
<path d="M89.3184 11.33H92.3147C92.7888 11.33 93.1818 11.4061 93.5769 11.5582C93.9719 11.7103 94.286 11.9385 94.5625 12.2028C94.839 12.4671 95.076 12.7714 95.2321 13.1517C95.3901 13.532 95.4691 13.9104 95.4691 14.3287C95.4691 14.747 95.3901 15.1254 95.2321 15.5057C95.074 15.886 94.837 16.1902 94.5625 16.4546C94.2879 16.7189 93.9324 16.9489 93.5769 17.0992C93.2213 17.2513 92.7888 17.3273 92.3147 17.3273H90.9736V19.7194H89.3559V11.3281H89.3164L89.3184 11.33ZM90.9361 12.7733V15.848H92.1982C92.4352 15.848 92.6722 15.8099 92.8678 15.7339C93.0633 15.6578 93.2233 15.5437 93.3813 15.3916C93.5393 15.2395 93.6183 15.0874 93.6974 14.8972C93.7764 14.7071 93.8159 14.5169 93.8159 14.2907C93.8159 14.0644 93.7764 13.8723 93.6974 13.6841C93.6183 13.4939 93.4998 13.3418 93.3813 13.1897C93.2233 13.0376 93.0653 12.9235 92.8678 12.8474C92.6703 12.7714 92.4332 12.7333 92.1982 12.7333H90.9361V12.7714V12.7733ZM99.218 19.7213C98.7834 19.7213 98.3904 19.6453 97.9558 19.4931C97.5608 19.341 97.1677 19.1128 96.8517 18.8485C96.5357 18.5443 96.2611 18.202 96.0636 17.7856C95.8661 17.3692 95.7476 16.8748 95.7476 16.3424C95.7476 15.8099 95.8266 15.3175 96.0241 14.8991C96.2216 14.4808 96.4982 14.1404 96.8122 13.8362C97.1263 13.532 97.5213 13.3418 97.9163 13.1916C98.3509 13.0395 98.7439 12.9634 99.218 12.9634C99.692 12.9634 100.125 13.0395 100.48 13.1916C100.875 13.3437 101.189 13.5719 101.466 13.8362V12.9634H103.083V19.7213H101.466V18.7725C101.229 19.0767 100.875 19.3049 100.48 19.4931C100.085 19.6453 99.692 19.7213 99.218 19.7213ZM99.4945 18.3161C99.8105 18.3161 100.085 18.2781 100.322 18.164C100.559 18.0499 100.796 17.9358 100.992 17.7457C101.187 17.5555 101.308 17.3654 101.426 17.1391C101.545 16.9109 101.584 16.6447 101.584 16.3804C101.584 16.1161 101.545 15.848 101.426 15.6217C101.308 15.3935 101.189 15.1653 100.992 15.0151C100.794 14.825 100.597 14.7109 100.322 14.5968C100.046 14.4447 99.769 14.4066 99.4945 14.4066C99.2199 14.4066 98.9414 14.4447 98.6669 14.5588C98.3904 14.6729 98.1929 14.7869 97.9973 14.9771C97.8018 15.1672 97.6418 15.3574 97.5628 15.5837C97.4443 15.8118 97.4048 16.0781 97.4048 16.3424C97.4048 16.6067 97.4443 16.8729 97.5628 17.1011C97.6813 17.3292 97.8393 17.5574 97.9973 17.7476C98.1948 17.9377 98.4319 18.0518 98.6669 18.1659C98.9039 18.242 99.1804 18.318 99.4945 18.318M105.331 13.0033L107.302 17.5974L109.116 13.0033H110.812L106.672 22.7979H105.015L106.475 19.419L103.634 13.0033H105.331Z" fill="#00152E"/>
</svg>
