<svg width="500" height="560" viewBox="0 0 500 560" fill="none" xmlns="http://www.w3.org/2000/svg">
<rect x="0.25" y="0.25" width="499.5" height="559.5" rx="15.75" stroke="url(#paint0_linear_1237_848)" stroke-width="0.5"/>
<path d="M0 124C86.1365 124 156 193.864 156 280C156 366.136 86.1365 436 0 436" fill="url(#paint1_linear_1237_848)"/>
<path d="M0 124C86.1365 124 156 193.864 156 280C156 366.136 86.1365 436 0 436" stroke="url(#paint2_linear_1237_848)" stroke-miterlimit="10"/>
<path d="M0 180C55.2157 180 100 224.784 100 280C100 335.216 55.2157 380 0 380" fill="url(#paint3_linear_1237_848)"/>
<path d="M0 180C55.2157 180 100 224.784 100 280C100 335.216 55.2157 380 0 380" stroke="url(#paint4_linear_1237_848)" stroke-width="0.5" stroke-miterlimit="10"/>
<path d="M0 226C29.8165 226 54 250.184 54 280C54 309.816 29.8165 334 0 334" fill="url(#paint5_linear_1237_848)"/>
<path d="M0 226C29.8165 226 54 250.184 54 280C54 309.816 29.8165 334 0 334" stroke="url(#paint6_linear_1237_848)" stroke-width="0.5" stroke-miterlimit="10"/>
<rect x="130.5" y="91.5" width="239" height="47" rx="23.5" fill="url(#paint7_linear_1237_848)"/>
<rect x="130.5" y="91.5" width="239" height="47" rx="23.5" stroke="url(#paint8_linear_1237_848)"/>
<path d="M158.768 121.112C158.032 121.112 157.371 120.984 156.784 120.728C156.208 120.461 155.755 120.099 155.424 119.64C155.093 119.171 154.923 118.632 154.912 118.024H156.464C156.517 118.547 156.731 118.989 157.104 119.352C157.488 119.704 158.043 119.88 158.768 119.88C159.461 119.88 160.005 119.709 160.4 119.368C160.805 119.016 161.008 118.568 161.008 118.024C161.008 117.597 160.891 117.251 160.656 116.984C160.421 116.717 160.128 116.515 159.776 116.376C159.424 116.237 158.949 116.088 158.352 115.928C157.616 115.736 157.024 115.544 156.576 115.352C156.139 115.16 155.76 114.861 155.44 114.456C155.131 114.04 154.976 113.485 154.976 112.792C154.976 112.184 155.131 111.645 155.44 111.176C155.749 110.707 156.181 110.344 156.736 110.088C157.301 109.832 157.947 109.704 158.672 109.704C159.717 109.704 160.571 109.965 161.232 110.488C161.904 111.011 162.283 111.704 162.368 112.568H160.768C160.715 112.141 160.491 111.768 160.096 111.448C159.701 111.117 159.179 110.952 158.528 110.952C157.92 110.952 157.424 111.112 157.04 111.432C156.656 111.741 156.464 112.179 156.464 112.744C156.464 113.149 156.576 113.48 156.8 113.736C157.035 113.992 157.317 114.189 157.648 114.328C157.989 114.456 158.464 114.605 159.072 114.776C159.808 114.979 160.4 115.181 160.848 115.384C161.296 115.576 161.68 115.88 162 116.296C162.32 116.701 162.48 117.256 162.48 117.96C162.48 118.504 162.336 119.016 162.048 119.496C161.76 119.976 161.333 120.365 160.768 120.664C160.203 120.963 159.536 121.112 158.768 121.112ZM173.123 116.28C173.123 116.557 173.107 116.851 173.075 117.16H166.067C166.12 118.024 166.413 118.701 166.947 119.192C167.491 119.672 168.147 119.912 168.915 119.912C169.544 119.912 170.067 119.768 170.483 119.48C170.909 119.181 171.208 118.787 171.379 118.296H172.947C172.712 119.139 172.243 119.827 171.539 120.36C170.835 120.883 169.96 121.144 168.915 121.144C168.083 121.144 167.336 120.957 166.675 120.584C166.024 120.211 165.512 119.683 165.139 119C164.765 118.307 164.579 117.507 164.579 116.6C164.579 115.693 164.76 114.899 165.123 114.216C165.485 113.533 165.992 113.011 166.643 112.648C167.304 112.275 168.061 112.088 168.915 112.088C169.747 112.088 170.483 112.269 171.123 112.632C171.763 112.995 172.253 113.496 172.595 114.136C172.947 114.765 173.123 115.48 173.123 116.28ZM171.619 115.976C171.619 115.421 171.496 114.947 171.251 114.552C171.005 114.147 170.669 113.843 170.243 113.64C169.827 113.427 169.363 113.32 168.851 113.32C168.115 113.32 167.485 113.555 166.963 114.024C166.451 114.493 166.157 115.144 166.083 115.976H171.619ZM175.001 116.584C175.001 115.688 175.182 114.904 175.545 114.232C175.907 113.549 176.403 113.021 177.033 112.648C177.673 112.275 178.382 112.088 179.161 112.088C179.929 112.088 180.595 112.253 181.161 112.584C181.726 112.915 182.147 113.331 182.425 113.832V112.232H183.897V121H182.425V119.368C182.137 119.88 181.705 120.307 181.129 120.648C180.563 120.979 179.902 121.144 179.145 121.144C178.366 121.144 177.662 120.952 177.033 120.568C176.403 120.184 175.907 119.645 175.545 118.952C175.182 118.259 175.001 117.469 175.001 116.584ZM182.425 116.6C182.425 115.939 182.291 115.363 182.025 114.872C181.758 114.381 181.395 114.008 180.937 113.752C180.489 113.485 179.993 113.352 179.449 113.352C178.905 113.352 178.409 113.48 177.961 113.736C177.513 113.992 177.155 114.365 176.889 114.856C176.622 115.347 176.489 115.923 176.489 116.584C176.489 117.256 176.622 117.843 176.889 118.344C177.155 118.835 177.513 119.213 177.961 119.48C178.409 119.736 178.905 119.864 179.449 119.864C179.993 119.864 180.489 119.736 180.937 119.48C181.395 119.213 181.758 118.835 182.025 118.344C182.291 117.843 182.425 117.261 182.425 116.6ZM197.401 112.072C198.084 112.072 198.692 112.216 199.225 112.504C199.758 112.781 200.18 113.203 200.489 113.768C200.798 114.333 200.953 115.021 200.953 115.832V121H199.513V116.04C199.513 115.165 199.294 114.499 198.857 114.04C198.43 113.571 197.849 113.336 197.113 113.336C196.356 113.336 195.753 113.581 195.305 114.072C194.857 114.552 194.633 115.251 194.633 116.168V121H193.193V116.04C193.193 115.165 192.974 114.499 192.537 114.04C192.11 113.571 191.529 113.336 190.793 113.336C190.036 113.336 189.433 113.581 188.985 114.072C188.537 114.552 188.313 115.251 188.313 116.168V121H186.857V112.232H188.313V113.496C188.601 113.037 188.985 112.685 189.465 112.44C189.956 112.195 190.494 112.072 191.081 112.072C191.817 112.072 192.468 112.237 193.033 112.568C193.598 112.899 194.02 113.384 194.297 114.024C194.542 113.405 194.948 112.925 195.513 112.584C196.078 112.243 196.708 112.072 197.401 112.072ZM205.297 109.16V121H203.841V109.16H205.297ZM216.279 116.28C216.279 116.557 216.263 116.851 216.231 117.16H209.223C209.276 118.024 209.57 118.701 210.103 119.192C210.647 119.672 211.303 119.912 212.071 119.912C212.7 119.912 213.223 119.768 213.639 119.48C214.066 119.181 214.364 118.787 214.535 118.296H216.103C215.868 119.139 215.399 119.827 214.695 120.36C213.991 120.883 213.116 121.144 212.071 121.144C211.239 121.144 210.492 120.957 209.831 120.584C209.18 120.211 208.668 119.683 208.295 119C207.922 118.307 207.735 117.507 207.735 116.6C207.735 115.693 207.916 114.899 208.279 114.216C208.642 113.533 209.148 113.011 209.799 112.648C210.46 112.275 211.218 112.088 212.071 112.088C212.903 112.088 213.639 112.269 214.279 112.632C214.919 112.995 215.41 113.496 215.751 114.136C216.103 114.765 216.279 115.48 216.279 116.28ZM214.775 115.976C214.775 115.421 214.652 114.947 214.407 114.552C214.162 114.147 213.826 113.843 213.399 113.64C212.983 113.427 212.519 113.32 212.007 113.32C211.271 113.32 210.642 113.555 210.119 114.024C209.607 114.493 209.314 115.144 209.239 115.976H214.775ZM221.805 121.144C221.133 121.144 220.53 121.032 219.997 120.808C219.463 120.573 219.042 120.253 218.733 119.848C218.423 119.432 218.253 118.957 218.221 118.424H219.725C219.767 118.861 219.97 119.219 220.333 119.496C220.706 119.773 221.191 119.912 221.789 119.912C222.343 119.912 222.781 119.789 223.101 119.544C223.421 119.299 223.581 118.989 223.581 118.616C223.581 118.232 223.41 117.949 223.069 117.768C222.727 117.576 222.199 117.389 221.485 117.208C220.834 117.037 220.301 116.867 219.885 116.696C219.479 116.515 219.127 116.253 218.829 115.912C218.541 115.56 218.397 115.101 218.397 114.536C218.397 114.088 218.53 113.677 218.797 113.304C219.063 112.931 219.442 112.637 219.933 112.424C220.423 112.2 220.983 112.088 221.613 112.088C222.583 112.088 223.367 112.333 223.965 112.824C224.562 113.315 224.882 113.987 224.925 114.84H223.469C223.437 114.381 223.25 114.013 222.909 113.736C222.578 113.459 222.13 113.32 221.565 113.32C221.042 113.32 220.626 113.432 220.317 113.656C220.007 113.88 219.853 114.173 219.853 114.536C219.853 114.824 219.943 115.064 220.125 115.256C220.317 115.437 220.551 115.587 220.829 115.704C221.117 115.811 221.511 115.933 222.013 116.072C222.642 116.243 223.154 116.413 223.549 116.584C223.943 116.744 224.279 116.989 224.557 117.32C224.845 117.651 224.994 118.083 225.005 118.616C225.005 119.096 224.871 119.528 224.605 119.912C224.338 120.296 223.959 120.6 223.469 120.824C222.989 121.037 222.434 121.144 221.805 121.144ZM230.664 121.144C229.992 121.144 229.389 121.032 228.856 120.808C228.323 120.573 227.901 120.253 227.592 119.848C227.283 119.432 227.112 118.957 227.08 118.424H228.584C228.627 118.861 228.829 119.219 229.192 119.496C229.565 119.773 230.051 119.912 230.648 119.912C231.203 119.912 231.64 119.789 231.96 119.544C232.28 119.299 232.44 118.989 232.44 118.616C232.44 118.232 232.269 117.949 231.928 117.768C231.587 117.576 231.059 117.389 230.344 117.208C229.693 117.037 229.16 116.867 228.744 116.696C228.339 116.515 227.987 116.253 227.688 115.912C227.4 115.56 227.256 115.101 227.256 114.536C227.256 114.088 227.389 113.677 227.656 113.304C227.923 112.931 228.301 112.637 228.792 112.424C229.283 112.2 229.843 112.088 230.472 112.088C231.443 112.088 232.227 112.333 232.824 112.824C233.421 113.315 233.741 113.987 233.784 114.84H232.328C232.296 114.381 232.109 114.013 231.768 113.736C231.437 113.459 230.989 113.32 230.424 113.32C229.901 113.32 229.485 113.432 229.176 113.656C228.867 113.88 228.712 114.173 228.712 114.536C228.712 114.824 228.803 115.064 228.984 115.256C229.176 115.437 229.411 115.587 229.688 115.704C229.976 115.811 230.371 115.933 230.872 116.072C231.501 116.243 232.013 116.413 232.408 116.584C232.803 116.744 233.139 116.989 233.416 117.32C233.704 117.651 233.853 118.083 233.864 118.616C233.864 119.096 233.731 119.528 233.464 119.912C233.197 120.296 232.819 120.6 232.328 120.824C231.848 121.037 231.293 121.144 230.664 121.144ZM242.641 109.848V121H241.185V109.848H242.641ZM249.895 112.072C250.961 112.072 251.825 112.397 252.487 113.048C253.148 113.688 253.479 114.616 253.479 115.832V121H252.039V116.04C252.039 115.165 251.82 114.499 251.383 114.04C250.945 113.571 250.348 113.336 249.591 113.336C248.823 113.336 248.209 113.576 247.751 114.056C247.303 114.536 247.079 115.235 247.079 116.152V121H245.623V112.232H247.079V113.48C247.367 113.032 247.756 112.685 248.247 112.44C248.748 112.195 249.297 112.072 249.895 112.072ZM258.133 113.432V118.6C258.133 119.027 258.224 119.331 258.405 119.512C258.586 119.683 258.901 119.768 259.349 119.768H260.421V121H259.109C258.298 121 257.69 120.813 257.285 120.44C256.88 120.067 256.677 119.453 256.677 118.6V113.432H255.541V112.232H256.677V110.024H258.133V112.232H260.421V113.432H258.133ZM270.685 116.28C270.685 116.557 270.669 116.851 270.637 117.16H263.629C263.682 118.024 263.976 118.701 264.509 119.192C265.053 119.672 265.709 119.912 266.477 119.912C267.106 119.912 267.629 119.768 268.045 119.48C268.472 119.181 268.77 118.787 268.941 118.296H270.509C270.274 119.139 269.805 119.827 269.101 120.36C268.397 120.883 267.522 121.144 266.477 121.144C265.645 121.144 264.898 120.957 264.237 120.584C263.586 120.211 263.074 119.683 262.701 119C262.328 118.307 262.141 117.507 262.141 116.6C262.141 115.693 262.322 114.899 262.685 114.216C263.048 113.533 263.554 113.011 264.205 112.648C264.866 112.275 265.624 112.088 266.477 112.088C267.309 112.088 268.045 112.269 268.685 112.632C269.325 112.995 269.816 113.496 270.157 114.136C270.509 114.765 270.685 115.48 270.685 116.28ZM269.181 115.976C269.181 115.421 269.058 114.947 268.813 114.552C268.568 114.147 268.232 113.843 267.805 113.64C267.389 113.427 266.925 113.32 266.413 113.32C265.677 113.32 265.048 113.555 264.525 114.024C264.013 114.493 263.72 115.144 263.645 115.976H269.181ZM276.723 112.088C277.48 112.088 278.142 112.253 278.707 112.584C279.283 112.915 279.71 113.331 279.987 113.832V112.232H281.459V121.192C281.459 121.992 281.288 122.701 280.947 123.32C280.606 123.949 280.115 124.44 279.475 124.792C278.846 125.144 278.11 125.32 277.267 125.32C276.115 125.32 275.155 125.048 274.387 124.504C273.619 123.96 273.166 123.219 273.027 122.28H274.467C274.627 122.813 274.958 123.24 275.459 123.56C275.96 123.891 276.563 124.056 277.267 124.056C278.067 124.056 278.718 123.805 279.219 123.304C279.731 122.803 279.987 122.099 279.987 121.192V119.352C279.699 119.864 279.272 120.291 278.707 120.632C278.142 120.973 277.48 121.144 276.723 121.144C275.944 121.144 275.235 120.952 274.595 120.568C273.966 120.184 273.47 119.645 273.107 118.952C272.744 118.259 272.563 117.469 272.563 116.584C272.563 115.688 272.744 114.904 273.107 114.232C273.47 113.549 273.966 113.021 274.595 112.648C275.235 112.275 275.944 112.088 276.723 112.088ZM279.987 116.6C279.987 115.939 279.854 115.363 279.587 114.872C279.32 114.381 278.958 114.008 278.499 113.752C278.051 113.485 277.555 113.352 277.011 113.352C276.467 113.352 275.971 113.48 275.523 113.736C275.075 113.992 274.718 114.365 274.451 114.856C274.184 115.347 274.051 115.923 274.051 116.584C274.051 117.256 274.184 117.843 274.451 118.344C274.718 118.835 275.075 119.213 275.523 119.48C275.971 119.736 276.467 119.864 277.011 119.864C277.555 119.864 278.051 119.736 278.499 119.48C278.958 119.213 279.32 118.835 279.587 118.344C279.854 117.843 279.987 117.261 279.987 116.6ZM285.876 113.656C286.132 113.155 286.494 112.765 286.964 112.488C287.444 112.211 288.025 112.072 288.708 112.072V113.576H288.324C286.692 113.576 285.876 114.461 285.876 116.232V121H284.42V112.232H285.876V113.656ZM290.344 116.584C290.344 115.688 290.526 114.904 290.888 114.232C291.251 113.549 291.747 113.021 292.376 112.648C293.016 112.275 293.726 112.088 294.504 112.088C295.272 112.088 295.939 112.253 296.504 112.584C297.07 112.915 297.491 113.331 297.768 113.832V112.232H299.24V121H297.768V119.368C297.48 119.88 297.048 120.307 296.472 120.648C295.907 120.979 295.246 121.144 294.488 121.144C293.71 121.144 293.006 120.952 292.376 120.568C291.747 120.184 291.251 119.645 290.888 118.952C290.526 118.259 290.344 117.469 290.344 116.584ZM297.768 116.6C297.768 115.939 297.635 115.363 297.368 114.872C297.102 114.381 296.739 114.008 296.28 113.752C295.832 113.485 295.336 113.352 294.792 113.352C294.248 113.352 293.752 113.48 293.304 113.736C292.856 113.992 292.499 114.365 292.232 114.856C291.966 115.347 291.832 115.923 291.832 116.584C291.832 117.256 291.966 117.843 292.232 118.344C292.499 118.835 292.856 119.213 293.304 119.48C293.752 119.736 294.248 119.864 294.792 119.864C295.336 119.864 295.832 119.736 296.28 119.48C296.739 119.213 297.102 118.835 297.368 118.344C297.635 117.843 297.768 117.261 297.768 116.6ZM303.977 113.432V118.6C303.977 119.027 304.067 119.331 304.249 119.512C304.43 119.683 304.745 119.768 305.193 119.768H306.265V121H304.953C304.142 121 303.534 120.813 303.129 120.44C302.723 120.067 302.521 119.453 302.521 118.6V113.432H301.385V112.232H302.521V110.024H303.977V112.232H306.265V113.432H303.977ZM309.281 110.808C309.004 110.808 308.769 110.712 308.577 110.52C308.385 110.328 308.289 110.093 308.289 109.816C308.289 109.539 308.385 109.304 308.577 109.112C308.769 108.92 309.004 108.824 309.281 108.824C309.548 108.824 309.772 108.92 309.953 109.112C310.145 109.304 310.241 109.539 310.241 109.816C310.241 110.093 310.145 110.328 309.953 110.52C309.772 110.712 309.548 110.808 309.281 110.808ZM309.985 112.232V121H308.529V112.232H309.985ZM316.79 121.144C315.969 121.144 315.222 120.957 314.55 120.584C313.889 120.211 313.366 119.683 312.982 119C312.609 118.307 312.422 117.507 312.422 116.6C312.422 115.704 312.614 114.915 312.998 114.232C313.393 113.539 313.926 113.011 314.598 112.648C315.27 112.275 316.022 112.088 316.854 112.088C317.686 112.088 318.438 112.275 319.11 112.648C319.782 113.011 320.31 113.533 320.694 114.216C321.089 114.899 321.286 115.693 321.286 116.6C321.286 117.507 321.084 118.307 320.678 119C320.284 119.683 319.745 120.211 319.062 120.584C318.38 120.957 317.622 121.144 316.79 121.144ZM316.79 119.864C317.313 119.864 317.804 119.741 318.262 119.496C318.721 119.251 319.089 118.883 319.366 118.392C319.654 117.901 319.798 117.304 319.798 116.6C319.798 115.896 319.66 115.299 319.382 114.808C319.105 114.317 318.742 113.955 318.294 113.72C317.846 113.475 317.361 113.352 316.838 113.352C316.305 113.352 315.814 113.475 315.366 113.72C314.929 113.955 314.577 114.317 314.31 114.808C314.044 115.299 313.91 115.896 313.91 116.6C313.91 117.315 314.038 117.917 314.294 118.408C314.561 118.899 314.913 119.267 315.35 119.512C315.788 119.747 316.268 119.864 316.79 119.864ZM327.973 112.072C329.039 112.072 329.903 112.397 330.565 113.048C331.226 113.688 331.557 114.616 331.557 115.832V121H330.117V116.04C330.117 115.165 329.898 114.499 329.461 114.04C329.023 113.571 328.426 113.336 327.669 113.336C326.901 113.336 326.287 113.576 325.829 114.056C325.381 114.536 325.157 115.235 325.157 116.152V121H323.701V112.232H325.157V113.48C325.445 113.032 325.834 112.685 326.325 112.44C326.826 112.195 327.375 112.072 327.973 112.072Z" fill="white"/>
<path d="M93.5 153.5L124 119" stroke="url(#paint9_linear_1237_848)" stroke-miterlimit="10"/>
<path d="M93 148.5C89.9332 148.5 87.5 150.933 87.5 154C87.5 157.067 89.9332 159.5 93 159.5C96.0669 159.5 98.5 157.067 98.5 154C98.5 150.933 96.0669 148.5 93 148.5Z" fill="url(#paint10_linear_1237_848)" stroke="url(#paint11_linear_1237_848)"/>
<path d="M142.5 118C142.5 127.665 134.665 135.5 125 135.5C115.335 135.5 107.5 127.665 107.5 118C107.5 108.335 115.335 100.5 125 100.5C134.665 100.5 142.5 108.335 142.5 118Z" fill="url(#paint12_linear_1237_848)" stroke="url(#paint13_linear_1237_848)"/>
<rect x="191.5" y="175.5" width="239" height="47" rx="23.5" fill="url(#paint14_linear_1237_848)"/>
<rect x="191.5" y="175.5" width="239" height="47" rx="23.5" stroke="url(#paint15_linear_1237_848)"/>
<path d="M217.688 195.532V199.26H221.752V200.46H217.688V204.3H222.232V205.5H216.232V194.332H222.232V195.532H217.688ZM228.503 197.932H226.663V205.5H225.207V197.932H224.071V196.732H225.207V196.108C225.207 195.127 225.458 194.412 225.959 193.964C226.471 193.505 227.287 193.276 228.407 193.276V194.492C227.767 194.492 227.314 194.62 227.047 194.876C226.791 195.121 226.663 195.532 226.663 196.108V196.732H228.503V197.932ZM234.269 197.932H232.429V205.5H230.973V197.932H229.837V196.732H230.973V196.108C230.973 195.127 231.223 194.412 231.725 193.964C232.237 193.505 233.053 193.276 234.173 193.276V194.492C233.533 194.492 233.079 194.62 232.813 194.876C232.557 195.121 232.429 195.532 232.429 196.108V196.732H234.269V197.932ZM237.218 195.308C236.941 195.308 236.706 195.212 236.514 195.02C236.322 194.828 236.226 194.593 236.226 194.316C236.226 194.039 236.322 193.804 236.514 193.612C236.706 193.42 236.941 193.324 237.218 193.324C237.485 193.324 237.709 193.42 237.89 193.612C238.082 193.804 238.178 194.039 238.178 194.316C238.178 194.593 238.082 194.828 237.89 195.02C237.709 195.212 237.485 195.308 237.218 195.308ZM237.922 196.732V205.5H236.466V196.732H237.922ZM240.36 201.1C240.36 200.193 240.541 199.404 240.904 198.732C241.267 198.049 241.768 197.521 242.408 197.148C243.059 196.775 243.8 196.588 244.632 196.588C245.709 196.588 246.595 196.849 247.288 197.372C247.992 197.895 248.456 198.62 248.68 199.548H247.112C246.963 199.015 246.669 198.593 246.232 198.284C245.805 197.975 245.272 197.82 244.632 197.82C243.8 197.82 243.128 198.108 242.616 198.684C242.104 199.249 241.848 200.055 241.848 201.1C241.848 202.156 242.104 202.972 242.616 203.548C243.128 204.124 243.8 204.412 244.632 204.412C245.272 204.412 245.805 204.263 246.232 203.964C246.659 203.665 246.952 203.239 247.112 202.684H248.68C248.445 203.58 247.976 204.3 247.272 204.844C246.568 205.377 245.688 205.644 244.632 205.644C243.8 205.644 243.059 205.457 242.408 205.084C241.768 204.711 241.267 204.183 240.904 203.5C240.541 202.817 240.36 202.017 240.36 201.1ZM251.875 195.308C251.597 195.308 251.363 195.212 251.171 195.02C250.979 194.828 250.883 194.593 250.883 194.316C250.883 194.039 250.979 193.804 251.171 193.612C251.363 193.42 251.597 193.324 251.875 193.324C252.141 193.324 252.365 193.42 252.547 193.612C252.739 193.804 252.835 194.039 252.835 194.316C252.835 194.593 252.739 194.828 252.547 195.02C252.365 195.212 252.141 195.308 251.875 195.308ZM252.579 196.732V205.5H251.123V196.732H252.579ZM263.56 200.78C263.56 201.057 263.544 201.351 263.512 201.66H256.504C256.557 202.524 256.851 203.201 257.384 203.692C257.928 204.172 258.584 204.412 259.352 204.412C259.981 204.412 260.504 204.268 260.92 203.98C261.347 203.681 261.645 203.287 261.816 202.796H263.384C263.149 203.639 262.68 204.327 261.976 204.86C261.272 205.383 260.397 205.644 259.352 205.644C258.52 205.644 257.773 205.457 257.112 205.084C256.461 204.711 255.949 204.183 255.576 203.5C255.203 202.807 255.016 202.007 255.016 201.1C255.016 200.193 255.197 199.399 255.56 198.716C255.923 198.033 256.429 197.511 257.08 197.148C257.741 196.775 258.499 196.588 259.352 196.588C260.184 196.588 260.92 196.769 261.56 197.132C262.2 197.495 262.691 197.996 263.032 198.636C263.384 199.265 263.56 199.98 263.56 200.78ZM262.056 200.476C262.056 199.921 261.933 199.447 261.688 199.052C261.443 198.647 261.107 198.343 260.68 198.14C260.264 197.927 259.8 197.82 259.288 197.82C258.552 197.82 257.923 198.055 257.4 198.524C256.888 198.993 256.595 199.644 256.52 200.476H262.056ZM270.254 196.572C271.321 196.572 272.185 196.897 272.846 197.548C273.507 198.188 273.838 199.116 273.838 200.332V205.5H272.398V200.54C272.398 199.665 272.179 198.999 271.742 198.54C271.305 198.071 270.707 197.836 269.95 197.836C269.182 197.836 268.569 198.076 268.11 198.556C267.662 199.036 267.438 199.735 267.438 200.652V205.5H265.982V196.732H267.438V197.98C267.726 197.532 268.115 197.185 268.606 196.94C269.107 196.695 269.657 196.572 270.254 196.572ZM278.492 197.932V203.1C278.492 203.527 278.583 203.831 278.764 204.012C278.946 204.183 279.26 204.268 279.708 204.268H280.78V205.5H279.468C278.658 205.5 278.05 205.313 277.644 204.94C277.239 204.567 277.036 203.953 277.036 203.1V197.932H275.9V196.732H277.036V194.524H278.492V196.732H280.78V197.932H278.492ZM293.682 205.5L291.026 200.94H289.266V205.5H287.81V194.348H291.41C292.253 194.348 292.962 194.492 293.538 194.78C294.125 195.068 294.562 195.457 294.85 195.948C295.138 196.439 295.282 196.999 295.282 197.628C295.282 198.396 295.058 199.073 294.61 199.66C294.173 200.247 293.511 200.636 292.626 200.828L295.426 205.5H293.682ZM289.266 199.772H291.41C292.199 199.772 292.791 199.58 293.186 199.196C293.581 198.801 293.778 198.279 293.778 197.628C293.778 196.967 293.581 196.455 293.186 196.092C292.802 195.729 292.21 195.548 291.41 195.548H289.266V199.772ZM301.869 205.644C301.047 205.644 300.301 205.457 299.629 205.084C298.967 204.711 298.445 204.183 298.061 203.5C297.687 202.807 297.501 202.007 297.501 201.1C297.501 200.204 297.693 199.415 298.077 198.732C298.471 198.039 299.005 197.511 299.677 197.148C300.349 196.775 301.101 196.588 301.933 196.588C302.765 196.588 303.517 196.775 304.189 197.148C304.861 197.511 305.389 198.033 305.773 198.716C306.167 199.399 306.365 200.193 306.365 201.1C306.365 202.007 306.162 202.807 305.757 203.5C305.362 204.183 304.823 204.711 304.141 205.084C303.458 205.457 302.701 205.644 301.869 205.644ZM301.869 204.364C302.391 204.364 302.882 204.241 303.341 203.996C303.799 203.751 304.167 203.383 304.445 202.892C304.733 202.401 304.877 201.804 304.877 201.1C304.877 200.396 304.738 199.799 304.461 199.308C304.183 198.817 303.821 198.455 303.373 198.22C302.925 197.975 302.439 197.852 301.917 197.852C301.383 197.852 300.893 197.975 300.445 198.22C300.007 198.455 299.655 198.817 299.389 199.308C299.122 199.799 298.989 200.396 298.989 201.1C298.989 201.815 299.117 202.417 299.373 202.908C299.639 203.399 299.991 203.767 300.429 204.012C300.866 204.247 301.346 204.364 301.869 204.364ZM316.555 196.732V205.5H315.099V204.204C314.822 204.652 314.432 205.004 313.931 205.26C313.44 205.505 312.896 205.628 312.299 205.628C311.616 205.628 311.003 205.489 310.459 205.212C309.915 204.924 309.483 204.497 309.163 203.932C308.854 203.367 308.699 202.679 308.699 201.868V196.732H310.139V201.676C310.139 202.54 310.358 203.207 310.795 203.676C311.232 204.135 311.83 204.364 312.587 204.364C313.366 204.364 313.979 204.124 314.427 203.644C314.875 203.164 315.099 202.465 315.099 201.548V196.732H316.555ZM321.289 197.932V203.1C321.289 203.527 321.38 203.831 321.561 204.012C321.743 204.183 322.057 204.268 322.505 204.268H323.577V205.5H322.265C321.455 205.5 320.847 205.313 320.441 204.94C320.036 204.567 319.833 203.953 319.833 203.1V197.932H318.697V196.732H319.833V194.524H321.289V196.732H323.577V197.932H321.289ZM326.593 195.308C326.316 195.308 326.081 195.212 325.889 195.02C325.697 194.828 325.601 194.593 325.601 194.316C325.601 194.039 325.697 193.804 325.889 193.612C326.081 193.42 326.316 193.324 326.593 193.324C326.86 193.324 327.084 193.42 327.265 193.612C327.457 193.804 327.553 194.039 327.553 194.316C327.553 194.593 327.457 194.828 327.265 195.02C327.084 195.212 326.86 195.308 326.593 195.308ZM327.297 196.732V205.5H325.841V196.732H327.297ZM334.551 196.572C335.618 196.572 336.482 196.897 337.143 197.548C337.804 198.188 338.135 199.116 338.135 200.332V205.5H336.695V200.54C336.695 199.665 336.476 198.999 336.039 198.54C335.602 198.071 335.004 197.836 334.247 197.836C333.479 197.836 332.866 198.076 332.407 198.556C331.959 199.036 331.735 199.735 331.735 200.652V205.5H330.279V196.732H331.735V197.98C332.023 197.532 332.412 197.185 332.903 196.94C333.404 196.695 333.954 196.572 334.551 196.572ZM344.629 196.588C345.387 196.588 346.048 196.753 346.613 197.084C347.189 197.415 347.616 197.831 347.893 198.332V196.732H349.365V205.692C349.365 206.492 349.195 207.201 348.853 207.82C348.512 208.449 348.021 208.94 347.381 209.292C346.752 209.644 346.016 209.82 345.173 209.82C344.021 209.82 343.061 209.548 342.293 209.004C341.525 208.46 341.072 207.719 340.933 206.78H342.373C342.533 207.313 342.864 207.74 343.365 208.06C343.867 208.391 344.469 208.556 345.173 208.556C345.973 208.556 346.624 208.305 347.125 207.804C347.637 207.303 347.893 206.599 347.893 205.692V203.852C347.605 204.364 347.179 204.791 346.613 205.132C346.048 205.473 345.387 205.644 344.629 205.644C343.851 205.644 343.141 205.452 342.501 205.068C341.872 204.684 341.376 204.145 341.013 203.452C340.651 202.759 340.469 201.969 340.469 201.084C340.469 200.188 340.651 199.404 341.013 198.732C341.376 198.049 341.872 197.521 342.501 197.148C343.141 196.775 343.851 196.588 344.629 196.588ZM347.893 201.1C347.893 200.439 347.76 199.863 347.493 199.372C347.227 198.881 346.864 198.508 346.405 198.252C345.957 197.985 345.461 197.852 344.917 197.852C344.373 197.852 343.877 197.98 343.429 198.236C342.981 198.492 342.624 198.865 342.357 199.356C342.091 199.847 341.957 200.423 341.957 201.084C341.957 201.756 342.091 202.343 342.357 202.844C342.624 203.335 342.981 203.713 343.429 203.98C343.877 204.236 344.373 204.364 344.917 204.364C345.461 204.364 345.957 204.236 346.405 203.98C346.864 203.713 347.227 203.335 347.493 202.844C347.76 202.343 347.893 201.761 347.893 201.1Z" fill="white"/>
<path d="M140.5 211.5L184.5 199.5" stroke="url(#paint16_linear_1237_848)" stroke-miterlimit="10"/>
<path d="M141 205.5C137.933 205.5 135.5 207.933 135.5 211C135.5 214.067 137.933 216.5 141 216.5C144.067 216.5 146.5 214.067 146.5 211C146.5 207.933 144.067 205.5 141 205.5Z" fill="url(#paint17_linear_1237_848)" stroke="url(#paint18_linear_1237_848)"/>
<path d="M203.5 199C203.5 208.665 195.665 216.5 186 216.5C176.335 216.5 168.5 208.665 168.5 199C168.5 189.335 176.335 181.5 186 181.5C195.665 181.5 203.5 189.335 203.5 199Z" fill="url(#paint19_linear_1237_848)" stroke="url(#paint20_linear_1237_848)"/>
<rect x="207.5" y="256.5" width="239" height="47" rx="23.5" fill="url(#paint21_linear_1237_848)"/>
<rect x="207.5" y="256.5" width="239" height="47" rx="23.5" stroke="url(#paint22_linear_1237_848)"/>
<path d="M238.824 284.02H233.96L233.064 286.5H231.528L235.56 275.412H237.24L241.256 286.5H239.72L238.824 284.02ZM238.408 282.836L236.392 277.204L234.376 282.836H238.408ZM251.289 277.732V286.5H249.833V285.204C249.556 285.652 249.167 286.004 248.665 286.26C248.175 286.505 247.631 286.628 247.033 286.628C246.351 286.628 245.737 286.489 245.193 286.212C244.649 285.924 244.217 285.497 243.897 284.932C243.588 284.367 243.433 283.679 243.433 282.868V277.732H244.873V282.676C244.873 283.54 245.092 284.207 245.529 284.676C245.967 285.135 246.564 285.364 247.321 285.364C248.1 285.364 248.713 285.124 249.161 284.644C249.609 284.164 249.833 283.465 249.833 282.548V277.732H251.289ZM256.024 278.932V284.1C256.024 284.527 256.114 284.831 256.296 285.012C256.477 285.183 256.792 285.268 257.24 285.268H258.312V286.5H257C256.189 286.5 255.581 286.313 255.176 285.94C254.77 285.567 254.568 284.953 254.568 284.1V278.932H253.432V277.732H254.568V275.524H256.024V277.732H258.312V278.932H256.024ZM264.4 286.644C263.578 286.644 262.832 286.457 262.16 286.084C261.498 285.711 260.976 285.183 260.592 284.5C260.218 283.807 260.032 283.007 260.032 282.1C260.032 281.204 260.224 280.415 260.608 279.732C261.002 279.039 261.536 278.511 262.208 278.148C262.88 277.775 263.632 277.588 264.464 277.588C265.296 277.588 266.048 277.775 266.72 278.148C267.392 278.511 267.92 279.033 268.304 279.716C268.698 280.399 268.896 281.193 268.896 282.1C268.896 283.007 268.693 283.807 268.288 284.5C267.893 285.183 267.354 285.711 266.672 286.084C265.989 286.457 265.232 286.644 264.4 286.644ZM264.4 285.364C264.922 285.364 265.413 285.241 265.872 284.996C266.33 284.751 266.698 284.383 266.976 283.892C267.264 283.401 267.408 282.804 267.408 282.1C267.408 281.396 267.269 280.799 266.992 280.308C266.714 279.817 266.352 279.455 265.904 279.22C265.456 278.975 264.97 278.852 264.448 278.852C263.914 278.852 263.424 278.975 262.976 279.22C262.538 279.455 262.186 279.817 261.92 280.308C261.653 280.799 261.52 281.396 261.52 282.1C261.52 282.815 261.648 283.417 261.904 283.908C262.17 284.399 262.522 284.767 262.96 285.012C263.397 285.247 263.877 285.364 264.4 285.364ZM281.948 286.5L279.292 281.94H277.532V286.5H276.076V275.348H279.676C280.518 275.348 281.228 275.492 281.804 275.78C282.39 276.068 282.828 276.457 283.116 276.948C283.404 277.439 283.548 277.999 283.548 278.628C283.548 279.396 283.324 280.073 282.876 280.66C282.438 281.247 281.777 281.636 280.892 281.828L283.692 286.5H281.948ZM277.532 280.772H279.676C280.465 280.772 281.057 280.58 281.452 280.196C281.846 279.801 282.044 279.279 282.044 278.628C282.044 277.967 281.846 277.455 281.452 277.092C281.068 276.729 280.476 276.548 279.676 276.548H277.532V280.772ZM294.31 281.78C294.31 282.057 294.294 282.351 294.262 282.66H287.254C287.307 283.524 287.601 284.201 288.134 284.692C288.678 285.172 289.334 285.412 290.102 285.412C290.731 285.412 291.254 285.268 291.67 284.98C292.097 284.681 292.395 284.287 292.566 283.796H294.134C293.899 284.639 293.43 285.327 292.726 285.86C292.022 286.383 291.147 286.644 290.102 286.644C289.27 286.644 288.523 286.457 287.862 286.084C287.211 285.711 286.699 285.183 286.326 284.5C285.953 283.807 285.766 283.007 285.766 282.1C285.766 281.193 285.947 280.399 286.31 279.716C286.673 279.033 287.179 278.511 287.83 278.148C288.491 277.775 289.249 277.588 290.102 277.588C290.934 277.588 291.67 277.769 292.31 278.132C292.95 278.495 293.441 278.996 293.782 279.636C294.134 280.265 294.31 280.98 294.31 281.78ZM292.806 281.476C292.806 280.921 292.683 280.447 292.438 280.052C292.193 279.647 291.857 279.343 291.43 279.14C291.014 278.927 290.55 278.82 290.038 278.82C289.302 278.82 288.673 279.055 288.15 279.524C287.638 279.993 287.345 280.644 287.27 281.476H292.806ZM296.188 282.1C296.188 281.193 296.369 280.404 296.732 279.732C297.095 279.049 297.596 278.521 298.236 278.148C298.887 277.775 299.628 277.588 300.46 277.588C301.537 277.588 302.423 277.849 303.116 278.372C303.82 278.895 304.284 279.62 304.508 280.548H302.94C302.791 280.015 302.497 279.593 302.06 279.284C301.633 278.975 301.1 278.82 300.46 278.82C299.628 278.82 298.956 279.108 298.444 279.684C297.932 280.249 297.676 281.055 297.676 282.1C297.676 283.156 297.932 283.972 298.444 284.548C298.956 285.124 299.628 285.412 300.46 285.412C301.1 285.412 301.633 285.263 302.06 284.964C302.487 284.665 302.78 284.239 302.94 283.684H304.508C304.273 284.58 303.804 285.3 303.1 285.844C302.396 286.377 301.516 286.644 300.46 286.644C299.628 286.644 298.887 286.457 298.236 286.084C297.596 285.711 297.095 285.183 296.732 284.5C296.369 283.817 296.188 283.017 296.188 282.1ZM310.775 286.644C309.953 286.644 309.207 286.457 308.535 286.084C307.873 285.711 307.351 285.183 306.967 284.5C306.593 283.807 306.407 283.007 306.407 282.1C306.407 281.204 306.599 280.415 306.983 279.732C307.377 279.039 307.911 278.511 308.583 278.148C309.255 277.775 310.007 277.588 310.839 277.588C311.671 277.588 312.423 277.775 313.095 278.148C313.767 278.511 314.295 279.033 314.679 279.716C315.073 280.399 315.271 281.193 315.271 282.1C315.271 283.007 315.068 283.807 314.663 284.5C314.268 285.183 313.729 285.711 313.047 286.084C312.364 286.457 311.607 286.644 310.775 286.644ZM310.775 285.364C311.297 285.364 311.788 285.241 312.247 284.996C312.705 284.751 313.073 284.383 313.351 283.892C313.639 283.401 313.783 282.804 313.783 282.1C313.783 281.396 313.644 280.799 313.367 280.308C313.089 279.817 312.727 279.455 312.279 279.22C311.831 278.975 311.345 278.852 310.823 278.852C310.289 278.852 309.799 278.975 309.351 279.22C308.913 279.455 308.561 279.817 308.295 280.308C308.028 280.799 307.895 281.396 307.895 282.1C307.895 282.815 308.023 283.417 308.279 283.908C308.545 284.399 308.897 284.767 309.335 285.012C309.772 285.247 310.252 285.364 310.775 285.364ZM321.957 277.572C323.024 277.572 323.888 277.897 324.549 278.548C325.21 279.188 325.541 280.116 325.541 281.332V286.5H324.101V281.54C324.101 280.665 323.882 279.999 323.445 279.54C323.008 279.071 322.41 278.836 321.653 278.836C320.885 278.836 320.272 279.076 319.813 279.556C319.365 280.036 319.141 280.735 319.141 281.652V286.5H317.685V277.732H319.141V278.98C319.429 278.532 319.818 278.185 320.309 277.94C320.81 277.695 321.36 277.572 321.957 277.572ZM327.876 282.1C327.876 281.193 328.057 280.404 328.42 279.732C328.782 279.049 329.284 278.521 329.924 278.148C330.574 277.775 331.316 277.588 332.148 277.588C333.225 277.588 334.11 277.849 334.804 278.372C335.508 278.895 335.972 279.62 336.196 280.548H334.628C334.478 280.015 334.185 279.593 333.748 279.284C333.321 278.975 332.788 278.82 332.148 278.82C331.316 278.82 330.644 279.108 330.132 279.684C329.62 280.249 329.364 281.055 329.364 282.1C329.364 283.156 329.62 283.972 330.132 284.548C330.644 285.124 331.316 285.412 332.148 285.412C332.788 285.412 333.321 285.263 333.748 284.964C334.174 284.665 334.468 284.239 334.628 283.684H336.196C335.961 284.58 335.492 285.3 334.788 285.844C334.084 286.377 333.204 286.644 332.148 286.644C331.316 286.644 330.574 286.457 329.924 286.084C329.284 285.711 328.782 285.183 328.42 284.5C328.057 283.817 327.876 283.017 327.876 282.1ZM339.39 276.308C339.113 276.308 338.878 276.212 338.686 276.02C338.494 275.828 338.398 275.593 338.398 275.316C338.398 275.039 338.494 274.804 338.686 274.612C338.878 274.42 339.113 274.324 339.39 274.324C339.657 274.324 339.881 274.42 340.062 274.612C340.254 274.804 340.35 275.039 340.35 275.316C340.35 275.593 340.254 275.828 340.062 276.02C339.881 276.212 339.657 276.308 339.39 276.308ZM340.094 277.732V286.5H338.638V277.732H340.094ZM344.532 274.66V286.5H343.076V274.66H344.532ZM348.265 276.308C347.988 276.308 347.753 276.212 347.561 276.02C347.369 275.828 347.273 275.593 347.273 275.316C347.273 275.039 347.369 274.804 347.561 274.612C347.753 274.42 347.988 274.324 348.265 274.324C348.532 274.324 348.756 274.42 348.937 274.612C349.129 274.804 349.225 275.039 349.225 275.316C349.225 275.593 349.129 275.828 348.937 276.02C348.756 276.212 348.532 276.308 348.265 276.308ZM348.969 277.732V286.5H347.513V277.732H348.969ZM351.407 282.084C351.407 281.188 351.588 280.404 351.951 279.732C352.313 279.049 352.809 278.521 353.439 278.148C354.079 277.775 354.788 277.588 355.567 277.588C356.335 277.588 357.001 277.753 357.567 278.084C358.132 278.415 358.553 278.831 358.831 279.332V277.732H360.303V286.5H358.831V284.868C358.543 285.38 358.111 285.807 357.535 286.148C356.969 286.479 356.308 286.644 355.551 286.644C354.772 286.644 354.068 286.452 353.439 286.068C352.809 285.684 352.313 285.145 351.951 284.452C351.588 283.759 351.407 282.969 351.407 282.084ZM358.831 282.1C358.831 281.439 358.697 280.863 358.431 280.372C358.164 279.881 357.801 279.508 357.343 279.252C356.895 278.985 356.399 278.852 355.855 278.852C355.311 278.852 354.815 278.98 354.367 279.236C353.919 279.492 353.561 279.865 353.295 280.356C353.028 280.847 352.895 281.423 352.895 282.084C352.895 282.756 353.028 283.343 353.295 283.844C353.561 284.335 353.919 284.713 354.367 284.98C354.815 285.236 355.311 285.364 355.855 285.364C356.399 285.364 356.895 285.236 357.343 284.98C357.801 284.713 358.164 284.335 358.431 283.844C358.697 283.343 358.831 282.761 358.831 282.1ZM365.039 278.932V284.1C365.039 284.527 365.13 284.831 365.311 285.012C365.493 285.183 365.807 285.268 366.255 285.268H367.327V286.5H366.015C365.205 286.5 364.597 286.313 364.191 285.94C363.786 285.567 363.583 284.953 363.583 284.1V278.932H362.447V277.732H363.583V275.524H365.039V277.732H367.327V278.932H365.039ZM370.343 276.308C370.066 276.308 369.831 276.212 369.639 276.02C369.447 275.828 369.351 275.593 369.351 275.316C369.351 275.039 369.447 274.804 369.639 274.612C369.831 274.42 370.066 274.324 370.343 274.324C370.61 274.324 370.834 274.42 371.015 274.612C371.207 274.804 371.303 275.039 371.303 275.316C371.303 275.593 371.207 275.828 371.015 276.02C370.834 276.212 370.61 276.308 370.343 276.308ZM371.047 277.732V286.5H369.591V277.732H371.047ZM377.853 286.644C377.032 286.644 376.285 286.457 375.613 286.084C374.952 285.711 374.429 285.183 374.045 284.5C373.672 283.807 373.485 283.007 373.485 282.1C373.485 281.204 373.677 280.415 374.061 279.732C374.456 279.039 374.989 278.511 375.661 278.148C376.333 277.775 377.085 277.588 377.917 277.588C378.749 277.588 379.501 277.775 380.173 278.148C380.845 278.511 381.373 279.033 381.757 279.716C382.152 280.399 382.349 281.193 382.349 282.1C382.349 283.007 382.146 283.807 381.741 284.5C381.346 285.183 380.808 285.711 380.125 286.084C379.442 286.457 378.685 286.644 377.853 286.644ZM377.853 285.364C378.376 285.364 378.866 285.241 379.325 284.996C379.784 284.751 380.152 284.383 380.429 283.892C380.717 283.401 380.861 282.804 380.861 282.1C380.861 281.396 380.722 280.799 380.445 280.308C380.168 279.817 379.805 279.455 379.357 279.22C378.909 278.975 378.424 278.852 377.901 278.852C377.368 278.852 376.877 278.975 376.429 279.22C375.992 279.455 375.64 279.817 375.373 280.308C375.106 280.799 374.973 281.396 374.973 282.1C374.973 282.815 375.101 283.417 375.357 283.908C375.624 284.399 375.976 284.767 376.413 285.012C376.85 285.247 377.33 285.364 377.853 285.364ZM389.035 277.572C390.102 277.572 390.966 277.897 391.627 278.548C392.289 279.188 392.619 280.116 392.619 281.332V286.5H391.179V281.54C391.179 280.665 390.961 279.999 390.523 279.54C390.086 279.071 389.489 278.836 388.731 278.836C387.963 278.836 387.35 279.076 386.891 279.556C386.443 280.036 386.219 280.735 386.219 281.652V286.5H384.763V277.732H386.219V278.98C386.507 278.532 386.897 278.185 387.387 277.94C387.889 277.695 388.438 277.572 389.035 277.572Z" fill="white"/>
<path d="M158.5 281H201" stroke="url(#paint23_linear_1237_848)" stroke-miterlimit="10"/>
<path d="M156 274.5C152.933 274.5 150.5 276.933 150.5 280C150.5 283.067 152.933 285.5 156 285.5C159.067 285.5 161.5 283.067 161.5 280C161.5 276.933 159.067 274.5 156 274.5Z" fill="url(#paint24_linear_1237_848)" stroke="url(#paint25_linear_1237_848)"/>
<path d="M219.5 280C219.5 289.665 211.665 297.5 202 297.5C192.335 297.5 184.5 289.665 184.5 280C184.5 270.335 192.335 262.5 202 262.5C211.665 262.5 219.5 270.335 219.5 280Z" fill="url(#paint26_linear_1237_848)" stroke="url(#paint27_linear_1237_848)"/>
<rect x="191.5" y="337.5" width="239" height="47" rx="23.5" fill="url(#paint28_linear_1237_848)"/>
<rect x="191.5" y="337.5" width="239" height="47" rx="23.5" stroke="url(#paint29_linear_1237_848)"/>
<path d="M217.688 357.532V361.26H221.752V362.46H217.688V366.3H222.232V367.5H216.232V356.332H222.232V357.532H217.688ZM226.391 360.156C226.647 359.655 227.01 359.265 227.479 358.988C227.959 358.711 228.54 358.572 229.223 358.572V360.076H228.839C227.207 360.076 226.391 360.961 226.391 362.732V367.5H224.935V358.732H226.391V360.156ZM232.86 360.156C233.116 359.655 233.479 359.265 233.948 358.988C234.428 358.711 235.009 358.572 235.692 358.572V360.076H235.308C233.676 360.076 232.86 360.961 232.86 362.732V367.5H231.404V358.732H232.86V360.156ZM241.697 367.644C240.875 367.644 240.129 367.457 239.457 367.084C238.795 366.711 238.273 366.183 237.889 365.5C237.515 364.807 237.329 364.007 237.329 363.1C237.329 362.204 237.521 361.415 237.905 360.732C238.299 360.039 238.833 359.511 239.505 359.148C240.177 358.775 240.929 358.588 241.761 358.588C242.593 358.588 243.345 358.775 244.017 359.148C244.689 359.511 245.217 360.033 245.601 360.716C245.995 361.399 246.193 362.193 246.193 363.1C246.193 364.007 245.99 364.807 245.585 365.5C245.19 366.183 244.651 366.711 243.969 367.084C243.286 367.457 242.529 367.644 241.697 367.644ZM241.697 366.364C242.219 366.364 242.71 366.241 243.169 365.996C243.627 365.751 243.995 365.383 244.273 364.892C244.561 364.401 244.705 363.804 244.705 363.1C244.705 362.396 244.566 361.799 244.289 361.308C244.011 360.817 243.649 360.455 243.201 360.22C242.753 359.975 242.267 359.852 241.745 359.852C241.211 359.852 240.721 359.975 240.273 360.22C239.835 360.455 239.483 360.817 239.217 361.308C238.95 361.799 238.817 362.396 238.817 363.1C238.817 363.815 238.945 364.417 239.201 364.908C239.467 365.399 239.819 365.767 240.257 366.012C240.694 366.247 241.174 366.364 241.697 366.364ZM250.063 360.156C250.319 359.655 250.682 359.265 251.151 358.988C251.631 358.711 252.212 358.572 252.895 358.572V360.076H252.511C250.879 360.076 250.063 360.961 250.063 362.732V367.5H248.607V358.732H250.063V360.156ZM265.713 367.5L263.057 362.94H261.297V367.5H259.841V356.348H263.441C264.284 356.348 264.993 356.492 265.569 356.78C266.156 357.068 266.593 357.457 266.881 357.948C267.169 358.439 267.313 358.999 267.313 359.628C267.313 360.396 267.089 361.073 266.641 361.66C266.204 362.247 265.543 362.636 264.657 362.828L267.457 367.5H265.713ZM261.297 361.772H263.441C264.231 361.772 264.823 361.58 265.217 361.196C265.612 360.801 265.809 360.279 265.809 359.628C265.809 358.967 265.612 358.455 265.217 358.092C264.833 357.729 264.241 357.548 263.441 357.548H261.297V361.772ZM278.076 362.78C278.076 363.057 278.06 363.351 278.028 363.66H271.02C271.073 364.524 271.366 365.201 271.9 365.692C272.444 366.172 273.1 366.412 273.868 366.412C274.497 366.412 275.02 366.268 275.436 365.98C275.862 365.681 276.161 365.287 276.332 364.796H277.9C277.665 365.639 277.196 366.327 276.492 366.86C275.788 367.383 274.913 367.644 273.868 367.644C273.036 367.644 272.289 367.457 271.628 367.084C270.977 366.711 270.465 366.183 270.092 365.5C269.718 364.807 269.532 364.007 269.532 363.1C269.532 362.193 269.713 361.399 270.076 360.716C270.438 360.033 270.945 359.511 271.596 359.148C272.257 358.775 273.014 358.588 273.868 358.588C274.7 358.588 275.436 358.769 276.076 359.132C276.716 359.495 277.206 359.996 277.548 360.636C277.9 361.265 278.076 361.98 278.076 362.78ZM276.572 362.476C276.572 361.921 276.449 361.447 276.204 361.052C275.958 360.647 275.622 360.343 275.196 360.14C274.78 359.927 274.316 359.82 273.804 359.82C273.068 359.82 272.438 360.055 271.916 360.524C271.404 360.993 271.11 361.644 271.036 362.476H276.572ZM279.954 363.084C279.954 362.188 280.135 361.404 280.498 360.732C280.86 360.049 281.356 359.521 281.986 359.148C282.626 358.775 283.34 358.588 284.13 358.588C284.812 358.588 285.447 358.748 286.034 359.068C286.62 359.377 287.068 359.788 287.378 360.3V355.66H288.85V367.5H287.378V365.852C287.09 366.375 286.663 366.807 286.098 367.148C285.532 367.479 284.871 367.644 284.114 367.644C283.335 367.644 282.626 367.452 281.986 367.068C281.356 366.684 280.86 366.145 280.498 365.452C280.135 364.759 279.954 363.969 279.954 363.084ZM287.378 363.1C287.378 362.439 287.244 361.863 286.978 361.372C286.711 360.881 286.348 360.508 285.89 360.252C285.442 359.985 284.946 359.852 284.402 359.852C283.858 359.852 283.362 359.98 282.914 360.236C282.466 360.492 282.108 360.865 281.842 361.356C281.575 361.847 281.442 362.423 281.442 363.084C281.442 363.756 281.575 364.343 281.842 364.844C282.108 365.335 282.466 365.713 282.914 365.98C283.362 366.236 283.858 366.364 284.402 366.364C284.946 366.364 285.442 366.236 285.89 365.98C286.348 365.713 286.711 365.335 286.978 364.844C287.244 364.343 287.378 363.761 287.378 363.1ZM299.586 358.732V367.5H298.13V366.204C297.853 366.652 297.463 367.004 296.962 367.26C296.471 367.505 295.927 367.628 295.33 367.628C294.647 367.628 294.034 367.489 293.49 367.212C292.946 366.924 292.514 366.497 292.194 365.932C291.885 365.367 291.73 364.679 291.73 363.868V358.732H293.17V363.676C293.17 364.54 293.389 365.207 293.826 365.676C294.263 366.135 294.861 366.364 295.618 366.364C296.397 366.364 297.01 366.124 297.458 365.644C297.906 365.164 298.13 364.465 298.13 363.548V358.732H299.586ZM302.001 363.1C302.001 362.193 302.182 361.404 302.545 360.732C302.907 360.049 303.409 359.521 304.049 359.148C304.699 358.775 305.441 358.588 306.273 358.588C307.35 358.588 308.235 358.849 308.929 359.372C309.633 359.895 310.097 360.62 310.321 361.548H308.753C308.603 361.015 308.31 360.593 307.873 360.284C307.446 359.975 306.913 359.82 306.273 359.82C305.441 359.82 304.769 360.108 304.257 360.684C303.745 361.249 303.489 362.055 303.489 363.1C303.489 364.156 303.745 364.972 304.257 365.548C304.769 366.124 305.441 366.412 306.273 366.412C306.913 366.412 307.446 366.263 307.873 365.964C308.299 365.665 308.593 365.239 308.753 364.684H310.321C310.086 365.58 309.617 366.3 308.913 366.844C308.209 367.377 307.329 367.644 306.273 367.644C305.441 367.644 304.699 367.457 304.049 367.084C303.409 366.711 302.907 366.183 302.545 365.5C302.182 364.817 302.001 364.017 302.001 363.1ZM314.539 359.932V365.1C314.539 365.527 314.63 365.831 314.811 366.012C314.993 366.183 315.307 366.268 315.755 366.268H316.827V367.5H315.515C314.705 367.5 314.097 367.313 313.691 366.94C313.286 366.567 313.083 365.953 313.083 365.1V359.932H311.947V358.732H313.083V356.524H314.539V358.732H316.827V359.932H314.539ZM319.843 357.308C319.566 357.308 319.331 357.212 319.139 357.02C318.947 356.828 318.851 356.593 318.851 356.316C318.851 356.039 318.947 355.804 319.139 355.612C319.331 355.42 319.566 355.324 319.843 355.324C320.11 355.324 320.334 355.42 320.515 355.612C320.707 355.804 320.803 356.039 320.803 356.316C320.803 356.593 320.707 356.828 320.515 357.02C320.334 357.212 320.11 357.308 319.843 357.308ZM320.547 358.732V367.5H319.091V358.732H320.547ZM327.353 367.644C326.532 367.644 325.785 367.457 325.113 367.084C324.452 366.711 323.929 366.183 323.545 365.5C323.172 364.807 322.985 364.007 322.985 363.1C322.985 362.204 323.177 361.415 323.561 360.732C323.956 360.039 324.489 359.511 325.161 359.148C325.833 358.775 326.585 358.588 327.417 358.588C328.249 358.588 329.001 358.775 329.673 359.148C330.345 359.511 330.873 360.033 331.257 360.716C331.652 361.399 331.849 362.193 331.849 363.1C331.849 364.007 331.646 364.807 331.241 365.5C330.846 366.183 330.308 366.711 329.625 367.084C328.942 367.457 328.185 367.644 327.353 367.644ZM327.353 366.364C327.876 366.364 328.366 366.241 328.825 365.996C329.284 365.751 329.652 365.383 329.929 364.892C330.217 364.401 330.361 363.804 330.361 363.1C330.361 362.396 330.222 361.799 329.945 361.308C329.668 360.817 329.305 360.455 328.857 360.22C328.409 359.975 327.924 359.852 327.401 359.852C326.868 359.852 326.377 359.975 325.929 360.22C325.492 360.455 325.14 360.817 324.873 361.308C324.606 361.799 324.473 362.396 324.473 363.1C324.473 363.815 324.601 364.417 324.857 364.908C325.124 365.399 325.476 365.767 325.913 366.012C326.35 366.247 326.83 366.364 327.353 366.364ZM338.535 358.572C339.602 358.572 340.466 358.897 341.127 359.548C341.789 360.188 342.119 361.116 342.119 362.332V367.5H340.679V362.54C340.679 361.665 340.461 360.999 340.023 360.54C339.586 360.071 338.989 359.836 338.231 359.836C337.463 359.836 336.85 360.076 336.391 360.556C335.943 361.036 335.719 361.735 335.719 362.652V367.5H334.263V358.732H335.719V359.98C336.007 359.532 336.397 359.185 336.887 358.94C337.389 358.695 337.938 358.572 338.535 358.572Z" fill="white"/>
<path d="M142.916 344.169L189.999 362" stroke="url(#paint30_linear_1237_848)" stroke-miterlimit="10"/>
<path d="M143 338.5C139.933 338.5 137.5 340.933 137.5 344C137.5 347.067 139.933 349.5 143 349.5C146.067 349.5 148.5 347.067 148.5 344C148.5 340.933 146.067 338.5 143 338.5Z" fill="url(#paint31_linear_1237_848)" stroke="url(#paint32_linear_1237_848)"/>
<path d="M203.5 361C203.5 370.665 195.665 378.5 186 378.5C176.335 378.5 168.5 370.665 168.5 361C168.5 351.335 176.335 343.5 186 343.5C195.665 343.5 203.5 351.335 203.5 361Z" fill="url(#paint33_linear_1237_848)" stroke="url(#paint34_linear_1237_848)"/>
<rect x="130.5" y="418.5" width="239" height="47" rx="23.5" fill="url(#paint35_linear_1237_848)"/>
<rect x="130.5" y="418.5" width="239" height="47" rx="23.5" stroke="url(#paint36_linear_1237_848)"/>
<path d="M161.536 437.348V438.532H156.688V442.292H160.624V443.476H156.688V448.5H155.232V437.348H161.536ZM163.251 444.084C163.251 443.188 163.432 442.404 163.795 441.732C164.157 441.049 164.653 440.521 165.283 440.148C165.923 439.775 166.632 439.588 167.411 439.588C168.179 439.588 168.845 439.753 169.411 440.084C169.976 440.415 170.397 440.831 170.675 441.332V439.732H172.147V448.5H170.675V446.868C170.387 447.38 169.955 447.807 169.379 448.148C168.813 448.479 168.152 448.644 167.395 448.644C166.616 448.644 165.912 448.452 165.283 448.068C164.653 447.684 164.157 447.145 163.795 446.452C163.432 445.759 163.251 444.969 163.251 444.084ZM170.675 444.1C170.675 443.439 170.541 442.863 170.275 442.372C170.008 441.881 169.645 441.508 169.187 441.252C168.739 440.985 168.243 440.852 167.699 440.852C167.155 440.852 166.659 440.98 166.211 441.236C165.763 441.492 165.405 441.865 165.139 442.356C164.872 442.847 164.739 443.423 164.739 444.084C164.739 444.756 164.872 445.343 165.139 445.844C165.405 446.335 165.763 446.713 166.211 446.98C166.659 447.236 167.155 447.364 167.699 447.364C168.243 447.364 168.739 447.236 169.187 446.98C169.645 446.713 170.008 446.335 170.275 445.844C170.541 445.343 170.675 444.761 170.675 444.1ZM178.211 448.644C177.539 448.644 176.936 448.532 176.403 448.308C175.87 448.073 175.448 447.753 175.139 447.348C174.83 446.932 174.659 446.457 174.627 445.924H176.131C176.174 446.361 176.376 446.719 176.739 446.996C177.112 447.273 177.598 447.412 178.195 447.412C178.75 447.412 179.187 447.289 179.507 447.044C179.827 446.799 179.987 446.489 179.987 446.116C179.987 445.732 179.816 445.449 179.475 445.268C179.134 445.076 178.606 444.889 177.891 444.708C177.24 444.537 176.707 444.367 176.291 444.196C175.886 444.015 175.534 443.753 175.235 443.412C174.947 443.06 174.803 442.601 174.803 442.036C174.803 441.588 174.936 441.177 175.203 440.804C175.47 440.431 175.848 440.137 176.339 439.924C176.83 439.7 177.39 439.588 178.019 439.588C178.99 439.588 179.774 439.833 180.371 440.324C180.968 440.815 181.288 441.487 181.331 442.34H179.875C179.843 441.881 179.656 441.513 179.315 441.236C178.984 440.959 178.536 440.82 177.971 440.82C177.448 440.82 177.032 440.932 176.723 441.156C176.414 441.38 176.259 441.673 176.259 442.036C176.259 442.324 176.35 442.564 176.531 442.756C176.723 442.937 176.958 443.087 177.235 443.204C177.523 443.311 177.918 443.433 178.419 443.572C179.048 443.743 179.56 443.913 179.955 444.084C180.35 444.244 180.686 444.489 180.963 444.82C181.251 445.151 181.4 445.583 181.411 446.116C181.411 446.596 181.278 447.028 181.011 447.412C180.744 447.796 180.366 448.1 179.875 448.324C179.395 448.537 178.84 448.644 178.211 448.644ZM185.742 440.932V446.1C185.742 446.527 185.833 446.831 186.014 447.012C186.196 447.183 186.51 447.268 186.958 447.268H188.03V448.5H186.718C185.908 448.5 185.3 448.313 184.894 447.94C184.489 447.567 184.286 446.953 184.286 446.1V440.932H183.15V439.732H184.286V437.524H185.742V439.732H188.03V440.932H185.742ZM198.295 443.78C198.295 444.057 198.279 444.351 198.247 444.66H191.239C191.292 445.524 191.585 446.201 192.119 446.692C192.663 447.172 193.319 447.412 194.087 447.412C194.716 447.412 195.239 447.268 195.655 446.98C196.081 446.681 196.38 446.287 196.551 445.796H198.119C197.884 446.639 197.415 447.327 196.711 447.86C196.007 448.383 195.132 448.644 194.087 448.644C193.255 448.644 192.508 448.457 191.847 448.084C191.196 447.711 190.684 447.183 190.311 446.5C189.937 445.807 189.751 445.007 189.751 444.1C189.751 443.193 189.932 442.399 190.295 441.716C190.657 441.033 191.164 440.511 191.815 440.148C192.476 439.775 193.233 439.588 194.087 439.588C194.919 439.588 195.655 439.769 196.295 440.132C196.935 440.495 197.425 440.996 197.767 441.636C198.119 442.265 198.295 442.98 198.295 443.78ZM196.791 443.476C196.791 442.921 196.668 442.447 196.423 442.052C196.177 441.647 195.841 441.343 195.415 441.14C194.999 440.927 194.535 440.82 194.023 440.82C193.287 440.82 192.657 441.055 192.135 441.524C191.623 441.993 191.329 442.644 191.255 443.476H196.791ZM202.172 441.156C202.428 440.655 202.791 440.265 203.26 439.988C203.74 439.711 204.322 439.572 205.004 439.572V441.076H204.62C202.988 441.076 202.172 441.961 202.172 443.732V448.5H200.716V439.732H202.172V441.156ZM215.487 448.612C214.751 448.612 214.089 448.484 213.503 448.228C212.927 447.961 212.473 447.599 212.143 447.14C211.812 446.671 211.641 446.132 211.631 445.524H213.183C213.236 446.047 213.449 446.489 213.823 446.852C214.207 447.204 214.761 447.38 215.487 447.38C216.18 447.38 216.724 447.209 217.119 446.868C217.524 446.516 217.727 446.068 217.727 445.524C217.727 445.097 217.609 444.751 217.375 444.484C217.14 444.217 216.847 444.015 216.495 443.876C216.143 443.737 215.668 443.588 215.071 443.428C214.335 443.236 213.743 443.044 213.295 442.852C212.857 442.66 212.479 442.361 212.159 441.956C211.849 441.54 211.695 440.985 211.695 440.292C211.695 439.684 211.849 439.145 212.159 438.676C212.468 438.207 212.9 437.844 213.455 437.588C214.02 437.332 214.665 437.204 215.391 437.204C216.436 437.204 217.289 437.465 217.951 437.988C218.623 438.511 219.001 439.204 219.087 440.068H217.487C217.433 439.641 217.209 439.268 216.815 438.948C216.42 438.617 215.897 438.452 215.247 438.452C214.639 438.452 214.143 438.612 213.759 438.932C213.375 439.241 213.183 439.679 213.183 440.244C213.183 440.649 213.295 440.98 213.519 441.236C213.753 441.492 214.036 441.689 214.367 441.828C214.708 441.956 215.183 442.105 215.791 442.276C216.527 442.479 217.119 442.681 217.567 442.884C218.015 443.076 218.399 443.38 218.719 443.796C219.039 444.201 219.199 444.756 219.199 445.46C219.199 446.004 219.055 446.516 218.767 446.996C218.479 447.476 218.052 447.865 217.487 448.164C216.921 448.463 216.255 448.612 215.487 448.612ZM229.841 443.78C229.841 444.057 229.825 444.351 229.793 444.66H222.785C222.839 445.524 223.132 446.201 223.665 446.692C224.209 447.172 224.865 447.412 225.633 447.412C226.263 447.412 226.785 447.268 227.201 446.98C227.628 446.681 227.927 446.287 228.097 445.796H229.665C229.431 446.639 228.961 447.327 228.257 447.86C227.553 448.383 226.679 448.644 225.633 448.644C224.801 448.644 224.055 448.457 223.393 448.084C222.743 447.711 222.231 447.183 221.857 446.5C221.484 445.807 221.297 445.007 221.297 444.1C221.297 443.193 221.479 442.399 221.841 441.716C222.204 441.033 222.711 440.511 223.361 440.148C224.023 439.775 224.78 439.588 225.633 439.588C226.465 439.588 227.201 439.769 227.841 440.132C228.481 440.495 228.972 440.996 229.313 441.636C229.665 442.265 229.841 442.98 229.841 443.78ZM228.337 443.476C228.337 442.921 228.215 442.447 227.969 442.052C227.724 441.647 227.388 441.343 226.961 441.14C226.545 440.927 226.081 440.82 225.569 440.82C224.833 440.82 224.204 441.055 223.681 441.524C223.169 441.993 222.876 442.644 222.801 443.476H228.337ZM234.039 440.932V446.1C234.039 446.527 234.13 446.831 234.311 447.012C234.493 447.183 234.807 447.268 235.255 447.268H236.327V448.5H235.015C234.205 448.5 233.597 448.313 233.191 447.94C232.786 447.567 232.583 446.953 232.583 446.1V440.932H231.447V439.732H232.583V437.524H234.039V439.732H236.327V440.932H234.039ZM240.367 440.932V446.1C240.367 446.527 240.458 446.831 240.639 447.012C240.821 447.183 241.135 447.268 241.583 447.268H242.655V448.5H241.343C240.533 448.5 239.925 448.313 239.519 447.94C239.114 447.567 238.911 446.953 238.911 446.1V440.932H237.775V439.732H238.911V437.524H240.367V439.732H242.655V440.932H240.367ZM246.376 436.66V448.5H244.92V436.66H246.376ZM257.357 443.78C257.357 444.057 257.341 444.351 257.309 444.66H250.301C250.354 445.524 250.648 446.201 251.181 446.692C251.725 447.172 252.381 447.412 253.149 447.412C253.778 447.412 254.301 447.268 254.717 446.98C255.144 446.681 255.442 446.287 255.613 445.796H257.181C256.946 446.639 256.477 447.327 255.773 447.86C255.069 448.383 254.194 448.644 253.149 448.644C252.317 448.644 251.57 448.457 250.909 448.084C250.258 447.711 249.746 447.183 249.373 446.5C249 445.807 248.813 445.007 248.813 444.1C248.813 443.193 248.994 442.399 249.357 441.716C249.72 441.033 250.226 440.511 250.877 440.148C251.538 439.775 252.296 439.588 253.149 439.588C253.981 439.588 254.717 439.769 255.357 440.132C255.997 440.495 256.488 440.996 256.829 441.636C257.181 442.265 257.357 442.98 257.357 443.78ZM255.853 443.476C255.853 442.921 255.73 442.447 255.485 442.052C255.24 441.647 254.904 441.343 254.477 441.14C254.061 440.927 253.597 440.82 253.085 440.82C252.349 440.82 251.72 441.055 251.197 441.524C250.685 441.993 250.392 442.644 250.317 443.476H255.853ZM270.323 439.572C271.006 439.572 271.614 439.716 272.147 440.004C272.68 440.281 273.102 440.703 273.411 441.268C273.72 441.833 273.875 442.521 273.875 443.332V448.5H272.435V443.54C272.435 442.665 272.216 441.999 271.779 441.54C271.352 441.071 270.771 440.836 270.035 440.836C269.278 440.836 268.675 441.081 268.227 441.572C267.779 442.052 267.555 442.751 267.555 443.668V448.5H266.115V443.54C266.115 442.665 265.896 441.999 265.459 441.54C265.032 441.071 264.451 440.836 263.715 440.836C262.958 440.836 262.355 441.081 261.907 441.572C261.459 442.052 261.235 442.751 261.235 443.668V448.5H259.779V439.732H261.235V440.996C261.523 440.537 261.907 440.185 262.387 439.94C262.878 439.695 263.416 439.572 264.003 439.572C264.739 439.572 265.39 439.737 265.955 440.068C266.52 440.399 266.942 440.884 267.219 441.524C267.464 440.905 267.87 440.425 268.435 440.084C269 439.743 269.63 439.572 270.323 439.572ZM284.763 443.78C284.763 444.057 284.747 444.351 284.715 444.66H277.707C277.761 445.524 278.054 446.201 278.587 446.692C279.131 447.172 279.787 447.412 280.555 447.412C281.185 447.412 281.707 447.268 282.123 446.98C282.55 446.681 282.849 446.287 283.019 445.796H284.587C284.353 446.639 283.883 447.327 283.179 447.86C282.475 448.383 281.601 448.644 280.555 448.644C279.723 448.644 278.977 448.457 278.315 448.084C277.665 447.711 277.153 447.183 276.779 446.5C276.406 445.807 276.219 445.007 276.219 444.1C276.219 443.193 276.401 442.399 276.763 441.716C277.126 441.033 277.633 440.511 278.283 440.148C278.945 439.775 279.702 439.588 280.555 439.588C281.387 439.588 282.123 439.769 282.763 440.132C283.403 440.495 283.894 440.996 284.235 441.636C284.587 442.265 284.763 442.98 284.763 443.78ZM283.259 443.476C283.259 442.921 283.137 442.447 282.891 442.052C282.646 441.647 282.31 441.343 281.883 441.14C281.467 440.927 281.003 440.82 280.491 440.82C279.755 440.82 279.126 441.055 278.603 441.524C278.091 441.993 277.798 442.644 277.723 443.476H283.259ZM291.457 439.572C292.524 439.572 293.388 439.897 294.049 440.548C294.71 441.188 295.041 442.116 295.041 443.332V448.5H293.601V443.54C293.601 442.665 293.382 441.999 292.945 441.54C292.508 441.071 291.91 440.836 291.153 440.836C290.385 440.836 289.772 441.076 289.313 441.556C288.865 442.036 288.641 442.735 288.641 443.652V448.5H287.185V439.732H288.641V440.98C288.929 440.532 289.318 440.185 289.809 439.94C290.31 439.695 290.86 439.572 291.457 439.572ZM299.696 440.932V446.1C299.696 446.527 299.786 446.831 299.968 447.012C300.149 447.183 300.464 447.268 300.911 447.268H301.984V448.5H300.672C299.861 448.5 299.253 448.313 298.848 447.94C298.442 447.567 298.24 446.953 298.24 446.1V440.932H297.104V439.732H298.24V437.524H299.696V439.732H301.984V440.932H299.696ZM307.352 448.644C306.68 448.644 306.077 448.532 305.544 448.308C305.01 448.073 304.589 447.753 304.28 447.348C303.97 446.932 303.8 446.457 303.768 445.924H305.272C305.314 446.361 305.517 446.719 305.88 446.996C306.253 447.273 306.738 447.412 307.336 447.412C307.89 447.412 308.328 447.289 308.648 447.044C308.968 446.799 309.128 446.489 309.128 446.116C309.128 445.732 308.957 445.449 308.616 445.268C308.274 445.076 307.746 444.889 307.032 444.708C306.381 444.537 305.848 444.367 305.432 444.196C305.026 444.015 304.674 443.753 304.376 443.412C304.088 443.06 303.944 442.601 303.944 442.036C303.944 441.588 304.077 441.177 304.344 440.804C304.61 440.431 304.989 440.137 305.48 439.924C305.97 439.7 306.53 439.588 307.16 439.588C308.13 439.588 308.914 439.833 309.512 440.324C310.109 440.815 310.429 441.487 310.472 442.34H309.016C308.984 441.881 308.797 441.513 308.456 441.236C308.125 440.959 307.677 440.82 307.112 440.82C306.589 440.82 306.173 440.932 305.864 441.156C305.554 441.38 305.4 441.673 305.4 442.036C305.4 442.324 305.49 442.564 305.672 442.756C305.864 442.937 306.098 443.087 306.376 443.204C306.664 443.311 307.058 443.433 307.56 443.572C308.189 443.743 308.701 443.913 309.096 444.084C309.49 444.244 309.826 444.489 310.104 444.82C310.392 445.151 310.541 445.583 310.552 446.116C310.552 446.596 310.418 447.028 310.152 447.412C309.885 447.796 309.506 448.1 309.016 448.324C308.536 448.537 307.981 448.644 307.352 448.644Z" fill="white"/>
<path d="M93.5 407L124 441.5" stroke="url(#paint37_linear_1237_848)" stroke-miterlimit="10"/>
<path d="M93 400.5C89.9332 400.5 87.5 402.933 87.5 406C87.5 409.067 89.9332 411.5 93 411.5C96.0669 411.5 98.5 409.067 98.5 406C98.5 402.933 96.0669 400.5 93 400.5Z" fill="url(#paint38_linear_1237_848)" stroke="url(#paint39_linear_1237_848)"/>
<path d="M142.5 442C142.5 451.665 134.665 459.5 125 459.5C115.335 459.5 107.5 451.665 107.5 442C107.5 432.335 115.335 424.5 125 424.5C134.665 424.5 142.5 432.335 142.5 442Z" fill="url(#paint40_linear_1237_848)" stroke="url(#paint41_linear_1237_848)"/>
<path d="M127.82 112.46V124L125.54 123.98V115.2L121.4 116.92V114.32L125.54 112.46H127.82Z" fill="white"/>
<path d="M178.8 199.48L181.08 198.1H185.22V200.36H181.24V202.64H185.14V205H178.8V199.48ZM178.8 197.12V194.84L181.08 193.46H185.22V195.74H181.32V197.12H178.8ZM192.62 205H186.2V202.64H192.62V205ZM190.02 200.36H186.12V198.1H190.02V195.74H186.12V193.46H190.26L192.62 194.84V198.98L190.02 200.36Z" fill="white"/>
<path d="M206.22 286.02H202.08V283.66H205.98V281.38H202.08V279.12H205.98V276.76H202.08V274.48H206.22L208.5 275.86V279.28L206.62 280.24L208.5 281.14V284.64L206.22 286.02ZM197.2 282.28V283.66H201.1V286.02H196.96L194.6 284.64V282.28H197.2ZM194.68 278.14V275.86L196.96 274.48H201.1V276.76H197.2V278.14H194.68ZM201.1 281.38H198.58V279.12H201.1V281.38Z" fill="white"/>
<path d="M192.42 366.98H190.08V362.44H185.94V360.1H190.08V355.48H192.42V366.98ZM182.54 360.1H184.96V362.44H178.4L182.54 355.56H185.28L182.54 360.1Z" fill="white"/>
<path d="M117.8 436.46H124.26V438.74H120.34V441.04H124.26V443.4H117.8V436.46ZM120.34 444.3V445.7H124.26V447.98H120.08L117.8 446.6V444.3H120.34ZM131.7 438.74H125.24V436.46H131.7V438.74ZM131.7 442.42V446.6L129.42 447.98H125.24V445.7H129.16V443.4H125.24V441.04H129.16L131.7 442.42Z" fill="white"/>
<defs>
<linearGradient id="paint0_linear_1237_848" x1="27.5" y1="-380.625" x2="714.464" y2="127.526" gradientUnits="userSpaceOnUse">
<stop offset="0.303689" stop-color="#004B4B" stop-opacity="0"/>
<stop offset="0.454116" stop-color="#004B4B" stop-opacity="0.4"/>
<stop offset="0.499089" stop-color="#004B4B"/>
<stop offset="0.64438" stop-color="#26DDFF"/>
<stop offset="0.953267" stop-color="#26DDFF" stop-opacity="0"/>
</linearGradient>
<linearGradient id="paint1_linear_1237_848" x1="184" y1="260.5" x2="94.6909" y2="261.688" gradientUnits="userSpaceOnUse">
<stop stop-color="#12637E"/>
<stop offset="0.781" stop-color="#04182D" stop-opacity="0.4"/>
</linearGradient>
<linearGradient id="paint2_linear_1237_848" x1="-19.2105" y1="-2571.26" x2="340.819" y2="-2549.75" gradientUnits="userSpaceOnUse">
<stop offset="0.303689" stop-color="#004B4B" stop-opacity="0"/>
<stop offset="0.422945" stop-color="#004B4B" stop-opacity="0.4"/>
<stop offset="0.499089" stop-color="#004B4B"/>
<stop offset="0.649516" stop-color="#26DDFF"/>
<stop offset="0.953267" stop-color="#26DDFF" stop-opacity="0"/>
</linearGradient>
<linearGradient id="paint3_linear_1237_848" x1="117.949" y1="267.5" x2="60.6993" y2="268.262" gradientUnits="userSpaceOnUse">
<stop stop-color="#12637E"/>
<stop offset="0.781" stop-color="#04182D" stop-opacity="0.4"/>
</linearGradient>
<linearGradient id="paint4_linear_1237_848" x1="-12.3144" y1="-1547.73" x2="218.474" y2="-1533.94" gradientUnits="userSpaceOnUse">
<stop offset="0.303689" stop-color="#004B4B" stop-opacity="0"/>
<stop offset="0.422945" stop-color="#004B4B" stop-opacity="0.4"/>
<stop offset="0.499089" stop-color="#004B4B"/>
<stop offset="0.649516" stop-color="#26DDFF"/>
<stop offset="0.953267" stop-color="#26DDFF" stop-opacity="0"/>
</linearGradient>
<linearGradient id="paint5_linear_1237_848" x1="63.6923" y1="273.25" x2="32.7776" y2="273.661" gradientUnits="userSpaceOnUse">
<stop stop-color="#12637E"/>
<stop offset="0.781" stop-color="#04182D" stop-opacity="0.4"/>
</linearGradient>
<linearGradient id="paint6_linear_1237_848" x1="-6.64978" y1="-706.974" x2="117.976" y2="-699.529" gradientUnits="userSpaceOnUse">
<stop offset="0.303689" stop-color="#004B4B" stop-opacity="0"/>
<stop offset="0.422945" stop-color="#004B4B" stop-opacity="0.4"/>
<stop offset="0.499089" stop-color="#004B4B"/>
<stop offset="0.649516" stop-color="#26DDFF"/>
<stop offset="0.953267" stop-color="#26DDFF" stop-opacity="0"/>
</linearGradient>
<linearGradient id="paint7_linear_1237_848" x1="371.727" y1="74.4288" x2="360.242" y2="164.2" gradientUnits="userSpaceOnUse">
<stop stop-color="#12637E"/>
<stop offset="0.781" stop-color="#04182D"/>
</linearGradient>
<linearGradient id="paint8_linear_1237_848" x1="457.5" y1="83.5" x2="445.673" y2="173.039" gradientUnits="userSpaceOnUse">
<stop offset="0.303689" stop-color="#004B4B" stop-opacity="0"/>
<stop offset="0.422945" stop-color="#004B4B" stop-opacity="0.4"/>
<stop offset="0.499089" stop-color="#004B4B"/>
<stop offset="0.649516" stop-color="#26DDFF"/>
<stop offset="0.953267" stop-color="#26DDFF" stop-opacity="0"/>
</linearGradient>
<linearGradient id="paint9_linear_1237_848" x1="85.6649" y1="236.833" x2="171.167" y2="199.378" gradientUnits="userSpaceOnUse">
<stop offset="0.303689" stop-color="#004B4B" stop-opacity="0"/>
<stop offset="0.422945" stop-color="#004B4B" stop-opacity="0.4"/>
<stop offset="0.499089" stop-color="#004B4B"/>
<stop offset="0.649516" stop-color="#26DDFF"/>
<stop offset="0.953267" stop-color="#26DDFF" stop-opacity="0"/>
</linearGradient>
<linearGradient id="paint10_linear_1237_848" x1="98.072" y1="145.548" x2="89.4432" y2="159.036" gradientUnits="userSpaceOnUse">
<stop stop-color="#12637E"/>
<stop offset="0.781" stop-color="#04182D"/>
</linearGradient>
<linearGradient id="paint11_linear_1237_848" x1="86.0203" y1="132.056" x2="108.263" y2="146.671" gradientUnits="userSpaceOnUse">
<stop offset="0.303689" stop-color="#004B4B" stop-opacity="0"/>
<stop offset="0.422945" stop-color="#004B4B" stop-opacity="0.4"/>
<stop offset="0.499089" stop-color="#004B4B"/>
<stop offset="0.649516" stop-color="#26DDFF"/>
<stop offset="0.953267" stop-color="#26DDFF" stop-opacity="0"/>
</linearGradient>
<linearGradient id="paint12_linear_1237_848" x1="143.259" y1="87.5716" x2="112.196" y2="136.131" gradientUnits="userSpaceOnUse">
<stop stop-color="#12637E"/>
<stop offset="0.781" stop-color="#04182D"/>
</linearGradient>
<linearGradient id="paint13_linear_1237_848" x1="156.125" y1="94.375" x2="124.705" y2="141.949" gradientUnits="userSpaceOnUse">
<stop offset="0.303689" stop-color="#004B4B" stop-opacity="0"/>
<stop offset="0.422945" stop-color="#004B4B" stop-opacity="0.4"/>
<stop offset="0.499089" stop-color="#004B4B"/>
<stop offset="0.649516" stop-color="#26DDFF"/>
<stop offset="0.953267" stop-color="#26DDFF" stop-opacity="0"/>
</linearGradient>
<linearGradient id="paint14_linear_1237_848" x1="432.727" y1="158.429" x2="421.242" y2="248.2" gradientUnits="userSpaceOnUse">
<stop stop-color="#12637E"/>
<stop offset="0.781" stop-color="#04182D"/>
</linearGradient>
<linearGradient id="paint15_linear_1237_848" x1="518.5" y1="167.5" x2="506.673" y2="257.039" gradientUnits="userSpaceOnUse">
<stop offset="0.303689" stop-color="#004B4B" stop-opacity="0"/>
<stop offset="0.422945" stop-color="#004B4B" stop-opacity="0.4"/>
<stop offset="0.499089" stop-color="#004B4B"/>
<stop offset="0.649516" stop-color="#26DDFF"/>
<stop offset="0.953267" stop-color="#26DDFF" stop-opacity="0"/>
</linearGradient>
<linearGradient id="paint16_linear_1237_848" x1="135.082" y1="95.8363" x2="220.584" y2="133.291" gradientUnits="userSpaceOnUse">
<stop offset="0.303689" stop-color="#004B4B" stop-opacity="0"/>
<stop offset="0.422945" stop-color="#004B4B" stop-opacity="0.4"/>
<stop offset="0.499089" stop-color="#004B4B"/>
<stop offset="0.649516" stop-color="#26DDFF"/>
<stop offset="0.953267" stop-color="#26DDFF" stop-opacity="0"/>
</linearGradient>
<linearGradient id="paint17_linear_1237_848" x1="146.072" y1="202.548" x2="137.443" y2="216.036" gradientUnits="userSpaceOnUse">
<stop stop-color="#12637E"/>
<stop offset="0.781" stop-color="#04182D"/>
</linearGradient>
<linearGradient id="paint18_linear_1237_848" x1="134.02" y1="189.056" x2="156.263" y2="203.671" gradientUnits="userSpaceOnUse">
<stop offset="0.303689" stop-color="#004B4B" stop-opacity="0"/>
<stop offset="0.422945" stop-color="#004B4B" stop-opacity="0.4"/>
<stop offset="0.499089" stop-color="#004B4B"/>
<stop offset="0.649516" stop-color="#26DDFF"/>
<stop offset="0.953267" stop-color="#26DDFF" stop-opacity="0"/>
</linearGradient>
<linearGradient id="paint19_linear_1237_848" x1="204.259" y1="168.572" x2="173.196" y2="217.131" gradientUnits="userSpaceOnUse">
<stop stop-color="#12637E"/>
<stop offset="0.781" stop-color="#04182D"/>
</linearGradient>
<linearGradient id="paint20_linear_1237_848" x1="217.125" y1="175.375" x2="185.705" y2="222.949" gradientUnits="userSpaceOnUse">
<stop offset="0.303689" stop-color="#004B4B" stop-opacity="0"/>
<stop offset="0.422945" stop-color="#004B4B" stop-opacity="0.4"/>
<stop offset="0.499089" stop-color="#004B4B"/>
<stop offset="0.649516" stop-color="#26DDFF"/>
<stop offset="0.953267" stop-color="#26DDFF" stop-opacity="0"/>
</linearGradient>
<linearGradient id="paint21_linear_1237_848" x1="448.727" y1="239.429" x2="437.242" y2="329.2" gradientUnits="userSpaceOnUse">
<stop stop-color="#12637E"/>
<stop offset="0.781" stop-color="#04182D"/>
</linearGradient>
<linearGradient id="paint22_linear_1237_848" x1="534.5" y1="248.5" x2="522.673" y2="338.039" gradientUnits="userSpaceOnUse">
<stop offset="0.303689" stop-color="#004B4B" stop-opacity="0"/>
<stop offset="0.422945" stop-color="#004B4B" stop-opacity="0.4"/>
<stop offset="0.499089" stop-color="#004B4B"/>
<stop offset="0.649516" stop-color="#26DDFF"/>
<stop offset="0.953267" stop-color="#26DDFF" stop-opacity="0"/>
</linearGradient>
<linearGradient id="paint23_linear_1237_848" x1="146.082" y1="179.836" x2="231.584" y2="217.291" gradientUnits="userSpaceOnUse">
<stop offset="0.303689" stop-color="#004B4B" stop-opacity="0"/>
<stop offset="0.422945" stop-color="#004B4B" stop-opacity="0.4"/>
<stop offset="0.499089" stop-color="#004B4B"/>
<stop offset="0.649516" stop-color="#26DDFF"/>
<stop offset="0.953267" stop-color="#26DDFF" stop-opacity="0"/>
</linearGradient>
<linearGradient id="paint24_linear_1237_848" x1="161.072" y1="271.548" x2="152.443" y2="285.036" gradientUnits="userSpaceOnUse">
<stop stop-color="#12637E"/>
<stop offset="0.781" stop-color="#04182D"/>
</linearGradient>
<linearGradient id="paint25_linear_1237_848" x1="149.02" y1="258.056" x2="171.263" y2="272.671" gradientUnits="userSpaceOnUse">
<stop offset="0.303689" stop-color="#004B4B" stop-opacity="0"/>
<stop offset="0.422945" stop-color="#004B4B" stop-opacity="0.4"/>
<stop offset="0.499089" stop-color="#004B4B"/>
<stop offset="0.649516" stop-color="#26DDFF"/>
<stop offset="0.953267" stop-color="#26DDFF" stop-opacity="0"/>
</linearGradient>
<linearGradient id="paint26_linear_1237_848" x1="220.259" y1="249.572" x2="189.196" y2="298.131" gradientUnits="userSpaceOnUse">
<stop stop-color="#12637E"/>
<stop offset="0.781" stop-color="#04182D"/>
</linearGradient>
<linearGradient id="paint27_linear_1237_848" x1="233.125" y1="256.375" x2="201.705" y2="303.949" gradientUnits="userSpaceOnUse">
<stop offset="0.303689" stop-color="#004B4B" stop-opacity="0"/>
<stop offset="0.422945" stop-color="#004B4B" stop-opacity="0.4"/>
<stop offset="0.499089" stop-color="#004B4B"/>
<stop offset="0.649516" stop-color="#26DDFF"/>
<stop offset="0.953267" stop-color="#26DDFF" stop-opacity="0"/>
</linearGradient>
<linearGradient id="paint28_linear_1237_848" x1="432.727" y1="320.429" x2="421.242" y2="410.2" gradientUnits="userSpaceOnUse">
<stop stop-color="#12637E"/>
<stop offset="0.781" stop-color="#04182D"/>
</linearGradient>
<linearGradient id="paint29_linear_1237_848" x1="518.5" y1="329.5" x2="506.673" y2="419.039" gradientUnits="userSpaceOnUse">
<stop offset="0.303689" stop-color="#004B4B" stop-opacity="0"/>
<stop offset="0.422945" stop-color="#004B4B" stop-opacity="0.4"/>
<stop offset="0.499089" stop-color="#004B4B"/>
<stop offset="0.649516" stop-color="#26DDFF"/>
<stop offset="0.953267" stop-color="#26DDFF" stop-opacity="0"/>
</linearGradient>
<linearGradient id="paint30_linear_1237_848" x1="135.081" y1="260.836" x2="220.583" y2="298.291" gradientUnits="userSpaceOnUse">
<stop offset="0.303689" stop-color="#004B4B" stop-opacity="0"/>
<stop offset="0.422945" stop-color="#004B4B" stop-opacity="0.4"/>
<stop offset="0.499089" stop-color="#004B4B"/>
<stop offset="0.649516" stop-color="#26DDFF"/>
<stop offset="0.953267" stop-color="#26DDFF" stop-opacity="0"/>
</linearGradient>
<linearGradient id="paint31_linear_1237_848" x1="148.072" y1="335.548" x2="139.443" y2="349.036" gradientUnits="userSpaceOnUse">
<stop stop-color="#12637E"/>
<stop offset="0.781" stop-color="#04182D"/>
</linearGradient>
<linearGradient id="paint32_linear_1237_848" x1="136.02" y1="322.056" x2="158.263" y2="336.671" gradientUnits="userSpaceOnUse">
<stop offset="0.303689" stop-color="#004B4B" stop-opacity="0"/>
<stop offset="0.422945" stop-color="#004B4B" stop-opacity="0.4"/>
<stop offset="0.499089" stop-color="#004B4B"/>
<stop offset="0.649516" stop-color="#26DDFF"/>
<stop offset="0.953267" stop-color="#26DDFF" stop-opacity="0"/>
</linearGradient>
<linearGradient id="paint33_linear_1237_848" x1="204.259" y1="330.572" x2="173.196" y2="379.131" gradientUnits="userSpaceOnUse">
<stop stop-color="#12637E"/>
<stop offset="0.781" stop-color="#04182D"/>
</linearGradient>
<linearGradient id="paint34_linear_1237_848" x1="217.125" y1="337.375" x2="185.705" y2="384.949" gradientUnits="userSpaceOnUse">
<stop offset="0.303689" stop-color="#004B4B" stop-opacity="0"/>
<stop offset="0.422945" stop-color="#004B4B" stop-opacity="0.4"/>
<stop offset="0.499089" stop-color="#004B4B"/>
<stop offset="0.649516" stop-color="#26DDFF"/>
<stop offset="0.953267" stop-color="#26DDFF" stop-opacity="0"/>
</linearGradient>
<linearGradient id="paint35_linear_1237_848" x1="371.727" y1="401.429" x2="360.242" y2="491.2" gradientUnits="userSpaceOnUse">
<stop stop-color="#12637E"/>
<stop offset="0.781" stop-color="#04182D"/>
</linearGradient>
<linearGradient id="paint36_linear_1237_848" x1="457.5" y1="410.5" x2="445.673" y2="500.039" gradientUnits="userSpaceOnUse">
<stop offset="0.303689" stop-color="#004B4B" stop-opacity="0"/>
<stop offset="0.422945" stop-color="#004B4B" stop-opacity="0.4"/>
<stop offset="0.499089" stop-color="#004B4B"/>
<stop offset="0.649516" stop-color="#26DDFF"/>
<stop offset="0.953267" stop-color="#26DDFF" stop-opacity="0"/>
</linearGradient>
<linearGradient id="paint37_linear_1237_848" x1="85.6649" y1="323.667" x2="171.167" y2="361.122" gradientUnits="userSpaceOnUse">
<stop offset="0.303689" stop-color="#004B4B" stop-opacity="0"/>
<stop offset="0.422945" stop-color="#004B4B" stop-opacity="0.4"/>
<stop offset="0.499089" stop-color="#004B4B"/>
<stop offset="0.649516" stop-color="#26DDFF"/>
<stop offset="0.953267" stop-color="#26DDFF" stop-opacity="0"/>
</linearGradient>
<linearGradient id="paint38_linear_1237_848" x1="98.072" y1="397.548" x2="89.4432" y2="411.036" gradientUnits="userSpaceOnUse">
<stop stop-color="#12637E"/>
<stop offset="0.781" stop-color="#04182D"/>
</linearGradient>
<linearGradient id="paint39_linear_1237_848" x1="86.0203" y1="384.056" x2="108.263" y2="398.671" gradientUnits="userSpaceOnUse">
<stop offset="0.303689" stop-color="#004B4B" stop-opacity="0"/>
<stop offset="0.422945" stop-color="#004B4B" stop-opacity="0.4"/>
<stop offset="0.499089" stop-color="#004B4B"/>
<stop offset="0.649516" stop-color="#26DDFF"/>
<stop offset="0.953267" stop-color="#26DDFF" stop-opacity="0"/>
</linearGradient>
<linearGradient id="paint40_linear_1237_848" x1="143.259" y1="411.572" x2="112.196" y2="460.131" gradientUnits="userSpaceOnUse">
<stop stop-color="#12637E"/>
<stop offset="0.781" stop-color="#04182D"/>
</linearGradient>
<linearGradient id="paint41_linear_1237_848" x1="156.125" y1="418.375" x2="124.705" y2="465.949" gradientUnits="userSpaceOnUse">
<stop offset="0.303689" stop-color="#004B4B" stop-opacity="0"/>
<stop offset="0.422945" stop-color="#004B4B" stop-opacity="0.4"/>
<stop offset="0.499089" stop-color="#004B4B"/>
<stop offset="0.649516" stop-color="#26DDFF"/>
<stop offset="0.953267" stop-color="#26DDFF" stop-opacity="0"/>
</linearGradient>
</defs>
</svg>
