<svg width="152" height="40" viewBox="0 0 152 40" fill="none" xmlns="http://www.w3.org/2000/svg">
<g opacity="0.9">
<path d="M26.5294 19.9922C26.5294 26.8047 21.0068 32.3272 14.1944 32.3272C7.38195 32.3272 1.85937 26.8047 1.85937 19.9922C1.85937 13.1798 7.38195 7.65723 14.1944 7.65723C21.0068 7.65723 26.5294 13.1798 26.5294 19.9922Z" stroke="#E6F0ED" stroke-width="3"/>
<path d="M18.9133 24.7124C16.3683 27.2575 13.504 28.8982 10.9898 29.5447C8.43788 30.2009 6.54039 29.7838 5.47107 28.7144C4.40176 27.6451 3.98465 25.7476 4.64086 23.1957C5.28736 20.6816 6.92806 17.8173 9.47314 15.2722C12.0182 12.7271 14.8825 11.0864 17.3967 10.4399C19.9486 9.78371 21.8461 10.2008 22.9154 11.2701C23.9847 12.3394 24.4018 14.2369 23.7456 16.7888C23.0991 19.303 21.4584 22.1673 18.9133 24.7124Z" stroke="#E6F0ED" stroke-width="3"/>
<path d="M18.9126 15.2722C21.4577 17.8173 23.0984 20.6816 23.7449 23.1957C24.4011 25.7477 23.984 27.6451 22.9147 28.7145C21.8454 29.7838 19.9479 30.2009 17.396 29.5447C14.8818 28.8982 12.0175 27.2575 9.4724 24.7124C6.92732 22.1673 5.28662 19.303 4.64012 16.7889C3.98391 14.2369 4.40102 12.3394 5.47033 11.2701C6.53964 10.2008 8.43714 9.78372 10.9891 10.4399C13.5032 11.0864 16.3675 12.7271 18.9126 15.2722Z" stroke="#E6F0ED" stroke-width="3"/>
<path d="M46.8063 28.5328C50.7312 28.5328 53.3813 26.4828 53.3813 23.2078C53.3813 16.2828 44.1813 19.2328 44.1813 15.5828C44.1813 14.5578 45.1062 13.8578 46.5812 13.8578C48.2562 13.8578 49.3062 14.7578 49.4312 16.1328H53.0063C52.9062 12.8078 50.3562 10.6328 46.5812 10.6328C43.0312 10.6328 40.5312 12.6828 40.5312 15.5828C40.5312 22.4578 49.6062 19.8328 49.6062 23.2578C49.6062 24.5828 48.4812 25.2828 46.8063 25.2828C44.9563 25.2828 43.7813 24.1578 43.6313 22.3828H40.0312C40.1813 26.1078 42.8312 28.5328 46.8063 28.5328Z" fill="#E6F0ED"/>
<path d="M54.2314 33.4328H57.7064V27.2078C58.3814 28.0578 59.6064 28.5328 61.0314 28.5328C64.6564 28.5328 67.1064 25.9578 67.1064 22.0328C67.1064 18.1078 64.8564 15.5328 61.3314 15.5328C59.7064 15.5328 58.4564 16.1328 57.7064 17.1078V15.7328H54.2314V33.4328ZM60.6064 25.5328C58.7314 25.5328 57.5064 24.1328 57.5064 22.0328C57.5064 19.9078 58.7314 18.5078 60.6064 18.5078C62.4314 18.5078 63.6814 19.9078 63.6814 22.0328C63.6814 24.1328 62.4314 25.5328 60.6064 25.5328Z" fill="#E6F0ED"/>
<path d="M67.9473 28.3328H71.4223V21.4328C71.4223 19.8078 72.4973 18.6328 74.0223 18.6328C75.4723 18.6328 76.4723 19.7328 76.4723 21.2578V28.3328H79.9473V20.4828C79.9473 17.5828 78.0973 15.5328 75.2723 15.5328C73.5223 15.5328 72.1473 16.2578 71.4223 17.4828V10.2578H67.9473V28.3328Z" fill="#E6F0ED"/>
<path d="M89.6684 24.0578C89.3934 25.1328 88.4684 25.6828 87.0684 25.6828C85.3184 25.6828 84.1934 24.5828 83.9434 22.8078H92.9934C93.0184 22.5328 93.0434 22.1578 93.0434 21.6828C93.0434 18.8078 91.2684 15.5328 86.8184 15.5328C82.5434 15.5328 80.5934 18.8078 80.5934 22.0078C80.5934 25.1828 82.7934 28.5328 87.0684 28.5328C90.1684 28.5328 92.5684 26.7828 93.0684 24.0578H89.6684ZM86.8184 18.0828C88.4934 18.0828 89.4684 19.2078 89.5684 20.6078H83.9934C84.2934 18.8578 85.2434 18.0828 86.8184 18.0828Z" fill="#E6F0ED"/>
<path d="M102.157 18.6328V15.7328H100.364C98.8391 15.7328 97.8891 16.2578 97.2141 17.8328V15.7328H93.7141V28.3328H97.2141V22.2078C97.2141 20.0578 97.9891 18.6328 99.7141 18.6328H102.157Z" fill="#E6F0ED"/>
<path d="M114.157 15.7328H110.657V22.6328C110.657 24.2328 109.582 25.4328 108.057 25.4328C106.632 25.4328 105.632 24.3328 105.632 22.8078V15.7328H102.157V23.5828C102.157 26.4578 104.007 28.5328 106.832 28.5328C108.557 28.5328 109.957 27.7828 110.657 26.5828V28.3328H114.157V15.7328Z" fill="#E6F0ED"/>
<path d="M115.657 28.3328H119.132V10.2578H115.657V28.3328Z" fill="#E6F0ED"/>
<path d="M129.053 24.0578C128.778 25.1328 127.853 25.6828 126.453 25.6828C124.703 25.6828 123.578 24.5828 123.328 22.8078H132.378C132.403 22.5328 132.428 22.1578 132.428 21.6828C132.428 18.8078 130.653 15.5328 126.203 15.5328C121.928 15.5328 119.978 18.8078 119.978 22.0078C119.978 25.1828 122.178 28.5328 126.453 28.5328C129.553 28.5328 131.953 26.7828 132.453 24.0578H129.053ZM126.203 18.0828C127.878 18.0828 128.853 19.2078 128.953 20.6078H123.378C123.678 18.8578 124.628 18.0828 126.203 18.0828Z" fill="#E6F0ED"/>
</g>
</svg>
