<svg width="39" height="41" viewBox="0 0 39 41" fill="none" xmlns="http://www.w3.org/2000/svg">
<path d="M14.4432 0.625H4.07955C3.16334 0.625 2.28467 1.00812 1.63681 1.69007C0.98896 2.37202 0.625 3.29694 0.625 4.26136V15.1705C0.625 16.1349 0.98896 17.0598 1.63681 17.7418C2.28467 18.4237 3.16334 18.8068 4.07955 18.8068H14.4432C15.3594 18.8068 16.2381 18.4237 16.8859 17.7418C17.5338 17.0598 17.8977 16.1349 17.8977 15.1705V4.26136C17.8977 3.29694 17.5338 2.37202 16.8859 1.69007C16.2381 1.00812 15.3594 0.625 14.4432 0.625ZM14.4432 15.1705H4.07955V4.26136H14.4432V15.1705ZM14.4432 22.4432H4.07955C3.16334 22.4432 2.28467 22.8263 1.63681 23.5082C0.98896 24.1902 0.625 25.1151 0.625 26.0795V36.9886C0.625 37.9531 0.98896 38.878 1.63681 39.5599C2.28467 40.2419 3.16334 40.625 4.07955 40.625H14.4432C15.3594 40.625 16.2381 40.2419 16.8859 39.5599C17.5338 38.878 17.8977 37.9531 17.8977 36.9886V26.0795C17.8977 25.1151 17.5338 24.1902 16.8859 23.5082C16.2381 22.8263 15.3594 22.4432 14.4432 22.4432ZM14.4432 36.9886H4.07955V26.0795H14.4432V36.9886ZM35.1705 0.625H24.8068C23.8906 0.625 23.0119 1.00812 22.3641 1.69007C21.7162 2.37202 21.3523 3.29694 21.3523 4.26136V15.1705C21.3523 16.1349 21.7162 17.0598 22.3641 17.7418C23.0119 18.4237 23.8906 18.8068 24.8068 18.8068H35.1705C36.0867 18.8068 36.9653 18.4237 37.6132 17.7418C38.261 17.0598 38.625 16.1349 38.625 15.1705V4.26136C38.625 3.29694 38.261 2.37202 37.6132 1.69007C36.9653 1.00812 36.0867 0.625 35.1705 0.625ZM35.1705 15.1705H24.8068V4.26136H35.1705V15.1705ZM21.3523 31.5341V24.2614C21.3523 23.7792 21.5343 23.3167 21.8582 22.9757C22.1821 22.6347 22.6214 22.4432 23.0795 22.4432C23.5376 22.4432 23.977 22.6347 24.3009 22.9757C24.6248 23.3167 24.8068 23.7792 24.8068 24.2614V31.5341C24.8068 32.0163 24.6248 32.4788 24.3009 32.8197C23.977 33.1607 23.5376 33.3523 23.0795 33.3523C22.6214 33.3523 22.1821 33.1607 21.8582 32.8197C21.5343 32.4788 21.3523 32.0163 21.3523 31.5341ZM38.625 27.8977C38.625 28.3799 38.443 28.8424 38.1191 29.1834C37.7952 29.5244 37.3558 29.7159 36.8977 29.7159H31.7159V38.8068C31.7159 39.289 31.5339 39.7515 31.21 40.0925C30.8861 40.4334 30.4467 40.625 29.9886 40.625H23.0795C22.6214 40.625 22.1821 40.4334 21.8582 40.0925C21.5343 39.7515 21.3523 39.289 21.3523 38.8068C21.3523 38.3246 21.5343 37.8621 21.8582 37.5212C22.1821 37.1802 22.6214 36.9886 23.0795 36.9886H28.2614V24.2614C28.2614 23.7792 28.4433 23.3167 28.7673 22.9757C29.0912 22.6347 29.5305 22.4432 29.9886 22.4432C30.4467 22.4432 30.8861 22.6347 31.21 22.9757C31.5339 23.3167 31.7159 23.7792 31.7159 24.2614V26.0795H36.8977C37.3558 26.0795 37.7952 26.2711 38.1191 26.6121C38.443 26.9531 38.625 27.4155 38.625 27.8977ZM38.625 35.1705V38.8068C38.625 39.289 38.443 39.7515 38.1191 40.0925C37.7952 40.4334 37.3558 40.625 36.8977 40.625C36.4396 40.625 36.0003 40.4334 35.6764 40.0925C35.3524 39.7515 35.1705 39.289 35.1705 38.8068V35.1705C35.1705 34.6882 35.3524 34.2258 35.6764 33.8848C36.0003 33.5438 36.4396 33.3523 36.8977 33.3523C37.3558 33.3523 37.7952 33.5438 38.1191 33.8848C38.443 34.2258 38.625 34.6882 38.625 35.1705Z" fill="white"/>
<path d="M14.4432 0.625H4.07955C3.16334 0.625 2.28467 1.00812 1.63681 1.69007C0.98896 2.37202 0.625 3.29694 0.625 4.26136V15.1705C0.625 16.1349 0.98896 17.0598 1.63681 17.7418C2.28467 18.4237 3.16334 18.8068 4.07955 18.8068H14.4432C15.3594 18.8068 16.2381 18.4237 16.8859 17.7418C17.5338 17.0598 17.8977 16.1349 17.8977 15.1705V4.26136C17.8977 3.29694 17.5338 2.37202 16.8859 1.69007C16.2381 1.00812 15.3594 0.625 14.4432 0.625ZM14.4432 15.1705H4.07955V4.26136H14.4432V15.1705ZM14.4432 22.4432H4.07955C3.16334 22.4432 2.28467 22.8263 1.63681 23.5082C0.98896 24.1902 0.625 25.1151 0.625 26.0795V36.9886C0.625 37.9531 0.98896 38.878 1.63681 39.5599C2.28467 40.2419 3.16334 40.625 4.07955 40.625H14.4432C15.3594 40.625 16.2381 40.2419 16.8859 39.5599C17.5338 38.878 17.8977 37.9531 17.8977 36.9886V26.0795C17.8977 25.1151 17.5338 24.1902 16.8859 23.5082C16.2381 22.8263 15.3594 22.4432 14.4432 22.4432ZM14.4432 36.9886H4.07955V26.0795H14.4432V36.9886ZM35.1705 0.625H24.8068C23.8906 0.625 23.0119 1.00812 22.3641 1.69007C21.7162 2.37202 21.3523 3.29694 21.3523 4.26136V15.1705C21.3523 16.1349 21.7162 17.0598 22.3641 17.7418C23.0119 18.4237 23.8906 18.8068 24.8068 18.8068H35.1705C36.0867 18.8068 36.9653 18.4237 37.6132 17.7418C38.261 17.0598 38.625 16.1349 38.625 15.1705V4.26136C38.625 3.29694 38.261 2.37202 37.6132 1.69007C36.9653 1.00812 36.0867 0.625 35.1705 0.625ZM35.1705 15.1705H24.8068V4.26136H35.1705V15.1705ZM21.3523 31.5341V24.2614C21.3523 23.7792 21.5343 23.3167 21.8582 22.9757C22.1821 22.6347 22.6214 22.4432 23.0795 22.4432C23.5376 22.4432 23.977 22.6347 24.3009 22.9757C24.6248 23.3167 24.8068 23.7792 24.8068 24.2614V31.5341C24.8068 32.0163 24.6248 32.4788 24.3009 32.8197C23.977 33.1607 23.5376 33.3523 23.0795 33.3523C22.6214 33.3523 22.1821 33.1607 21.8582 32.8197C21.5343 32.4788 21.3523 32.0163 21.3523 31.5341ZM38.625 27.8977C38.625 28.3799 38.443 28.8424 38.1191 29.1834C37.7952 29.5244 37.3558 29.7159 36.8977 29.7159H31.7159V38.8068C31.7159 39.289 31.5339 39.7515 31.21 40.0925C30.8861 40.4334 30.4467 40.625 29.9886 40.625H23.0795C22.6214 40.625 22.1821 40.4334 21.8582 40.0925C21.5343 39.7515 21.3523 39.289 21.3523 38.8068C21.3523 38.3246 21.5343 37.8621 21.8582 37.5212C22.1821 37.1802 22.6214 36.9886 23.0795 36.9886H28.2614V24.2614C28.2614 23.7792 28.4433 23.3167 28.7673 22.9757C29.0912 22.6347 29.5305 22.4432 29.9886 22.4432C30.4467 22.4432 30.8861 22.6347 31.21 22.9757C31.5339 23.3167 31.7159 23.7792 31.7159 24.2614V26.0795H36.8977C37.3558 26.0795 37.7952 26.2711 38.1191 26.6121C38.443 26.9531 38.625 27.4155 38.625 27.8977ZM38.625 35.1705V38.8068C38.625 39.289 38.443 39.7515 38.1191 40.0925C37.7952 40.4334 37.3558 40.625 36.8977 40.625C36.4396 40.625 36.0003 40.4334 35.6764 40.0925C35.3524 39.7515 35.1705 39.289 35.1705 38.8068V35.1705C35.1705 34.6882 35.3524 34.2258 35.6764 33.8848C36.0003 33.5438 36.4396 33.3523 36.8977 33.3523C37.3558 33.3523 37.7952 33.5438 38.1191 33.8848C38.443 34.2258 38.625 34.6882 38.625 35.1705Z" fill="url(#paint0_linear_2096_14443)"/>
<defs>
<linearGradient id="paint0_linear_2096_14443" x1="19.625" y1="0.625" x2="19.625" y2="34.2917" gradientUnits="userSpaceOnUse">
<stop stop-color="#2D4949"/>
<stop offset="0.99" stop-color="#31B2B2"/>
</linearGradient>
</defs>
</svg>
