<svg width="38" height="40" viewBox="0 0 38 40" fill="none" xmlns="http://www.w3.org/2000/svg">
<path d="M38 3.33333V25C38 25.8841 37.6664 26.7319 37.0725 27.357C36.4786 27.9821 35.6732 28.3333 34.8333 28.3333H13.3218L15.3702 30.4875C15.5173 30.6424 15.634 30.8262 15.7136 31.0285C15.7932 31.2308 15.8342 31.4477 15.8342 31.6667C15.8342 31.8857 15.7932 32.1025 15.7136 32.3048C15.634 32.5072 15.5173 32.691 15.3702 32.8458C15.2231 33.0007 15.0485 33.1235 14.8563 33.2073C14.664 33.2911 14.458 33.3343 14.25 33.3343C14.042 33.3343 13.836 33.2911 13.6437 33.2073C13.4515 33.1235 13.2769 33.0007 13.1298 32.8458L8.37979 27.8458C8.23258 27.691 8.11579 27.5072 8.03611 27.3049C7.95643 27.1026 7.91542 26.8857 7.91542 26.6667C7.91542 26.4476 7.95643 26.2308 8.03611 26.0284C8.11579 25.8261 8.23258 25.6423 8.37979 25.4875L13.1298 20.4875C13.4269 20.1748 13.8298 19.9991 14.25 19.9991C14.6702 19.9991 15.0731 20.1748 15.3702 20.4875C15.6673 20.8002 15.8342 21.2244 15.8342 21.6667C15.8342 22.1089 15.6673 22.5331 15.3702 22.8458L13.3218 25H34.8333V3.33333H12.6667V5C12.6667 5.44203 12.4999 5.86595 12.2029 6.17851C11.906 6.49107 11.5033 6.66667 11.0833 6.66667C10.6634 6.66667 10.2607 6.49107 9.96375 6.17851C9.66682 5.86595 9.5 5.44203 9.5 5V3.33333C9.5 2.44928 9.83363 1.60143 10.4275 0.976311C11.0214 0.351189 11.8268 0 12.6667 0H34.8333C35.6732 0 36.4786 0.351189 37.0725 0.976311C37.6664 1.60143 38 2.44928 38 3.33333ZM26.9167 33.3333C26.4967 33.3333 26.094 33.5089 25.7971 33.8215C25.5001 34.1341 25.3333 34.558 25.3333 35V36.6667H3.16667V15H24.6782L22.6298 17.1542C22.3327 17.4669 22.1658 17.8911 22.1658 18.3333C22.1658 18.7756 22.3327 19.1998 22.6298 19.5125C22.9269 19.8252 23.3298 20.0009 23.75 20.0009C24.1702 20.0009 24.5731 19.8252 24.8702 19.5125L29.6202 14.5125C29.7674 14.3577 29.8842 14.1739 29.9639 13.9716C30.0436 13.7692 30.0846 13.5524 30.0846 13.3333C30.0846 13.1143 30.0436 12.8974 29.9639 12.6951C29.8842 12.4928 29.7674 12.309 29.6202 12.1542L24.8702 7.15417C24.5731 6.84143 24.1702 6.66574 23.75 6.66574C23.3298 6.66574 22.9269 6.84143 22.6298 7.15417C22.3327 7.4669 22.1658 7.89106 22.1658 8.33333C22.1658 8.77561 22.3327 9.19977 22.6298 9.5125L24.6782 11.6667H3.16667C2.32681 11.6667 1.52136 12.0179 0.927495 12.643C0.33363 13.2681 0 14.1159 0 15V36.6667C0 37.5507 0.33363 38.3986 0.927495 39.0237C1.52136 39.6488 2.32681 40 3.16667 40H25.3333C26.1732 40 26.9786 39.6488 27.5725 39.0237C28.1664 38.3986 28.5 37.5507 28.5 36.6667V35C28.5 34.558 28.3332 34.1341 28.0363 33.8215C27.7393 33.5089 27.3366 33.3333 26.9167 33.3333Z" fill="white"/>
<path d="M38 3.33333V25C38 25.8841 37.6664 26.7319 37.0725 27.357C36.4786 27.9821 35.6732 28.3333 34.8333 28.3333H13.3218L15.3702 30.4875C15.5173 30.6424 15.634 30.8262 15.7136 31.0285C15.7932 31.2308 15.8342 31.4477 15.8342 31.6667C15.8342 31.8857 15.7932 32.1025 15.7136 32.3048C15.634 32.5072 15.5173 32.691 15.3702 32.8458C15.2231 33.0007 15.0485 33.1235 14.8563 33.2073C14.664 33.2911 14.458 33.3343 14.25 33.3343C14.042 33.3343 13.836 33.2911 13.6437 33.2073C13.4515 33.1235 13.2769 33.0007 13.1298 32.8458L8.37979 27.8458C8.23258 27.691 8.11579 27.5072 8.03611 27.3049C7.95643 27.1026 7.91542 26.8857 7.91542 26.6667C7.91542 26.4476 7.95643 26.2308 8.03611 26.0284C8.11579 25.8261 8.23258 25.6423 8.37979 25.4875L13.1298 20.4875C13.4269 20.1748 13.8298 19.9991 14.25 19.9991C14.6702 19.9991 15.0731 20.1748 15.3702 20.4875C15.6673 20.8002 15.8342 21.2244 15.8342 21.6667C15.8342 22.1089 15.6673 22.5331 15.3702 22.8458L13.3218 25H34.8333V3.33333H12.6667V5C12.6667 5.44203 12.4999 5.86595 12.2029 6.17851C11.906 6.49107 11.5033 6.66667 11.0833 6.66667C10.6634 6.66667 10.2607 6.49107 9.96375 6.17851C9.66682 5.86595 9.5 5.44203 9.5 5V3.33333C9.5 2.44928 9.83363 1.60143 10.4275 0.976311C11.0214 0.351189 11.8268 0 12.6667 0H34.8333C35.6732 0 36.4786 0.351189 37.0725 0.976311C37.6664 1.60143 38 2.44928 38 3.33333ZM26.9167 33.3333C26.4967 33.3333 26.094 33.5089 25.7971 33.8215C25.5001 34.1341 25.3333 34.558 25.3333 35V36.6667H3.16667V15H24.6782L22.6298 17.1542C22.3327 17.4669 22.1658 17.8911 22.1658 18.3333C22.1658 18.7756 22.3327 19.1998 22.6298 19.5125C22.9269 19.8252 23.3298 20.0009 23.75 20.0009C24.1702 20.0009 24.5731 19.8252 24.8702 19.5125L29.6202 14.5125C29.7674 14.3577 29.8842 14.1739 29.9639 13.9716C30.0436 13.7692 30.0846 13.5524 30.0846 13.3333C30.0846 13.1143 30.0436 12.8974 29.9639 12.6951C29.8842 12.4928 29.7674 12.309 29.6202 12.1542L24.8702 7.15417C24.5731 6.84143 24.1702 6.66574 23.75 6.66574C23.3298 6.66574 22.9269 6.84143 22.6298 7.15417C22.3327 7.4669 22.1658 7.89106 22.1658 8.33333C22.1658 8.77561 22.3327 9.19977 22.6298 9.5125L24.6782 11.6667H3.16667C2.32681 11.6667 1.52136 12.0179 0.927495 12.643C0.33363 13.2681 0 14.1159 0 15V36.6667C0 37.5507 0.33363 38.3986 0.927495 39.0237C1.52136 39.6488 2.32681 40 3.16667 40H25.3333C26.1732 40 26.9786 39.6488 27.5725 39.0237C28.1664 38.3986 28.5 37.5507 28.5 36.6667V35C28.5 34.558 28.3332 34.1341 28.0363 33.8215C27.7393 33.5089 27.3366 33.3333 26.9167 33.3333Z" fill="url(#paint0_linear_2096_14442)"/>
<defs>
<linearGradient id="paint0_linear_2096_14442" x1="19" y1="0" x2="19" y2="33.6667" gradientUnits="userSpaceOnUse">
<stop stop-color="#2D4949"/>
<stop offset="0.99" stop-color="#31B2B2"/>
</linearGradient>
</defs>
</svg>
