<svg width="39" height="42" viewBox="0 0 39 42" fill="none" xmlns="http://www.w3.org/2000/svg">
<path d="M35.3333 4.32692H30.5833V2.78846C30.5833 2.38044 30.4165 1.98912 30.1196 1.7006C29.8227 1.41209 29.4199 1.25 29 1.25C28.5801 1.25 28.1773 1.41209 27.8804 1.7006C27.5835 1.98912 27.4167 2.38044 27.4167 2.78846V4.32692H11.5833V2.78846C11.5833 2.38044 11.4165 1.98912 11.1196 1.7006C10.8227 1.41209 10.4199 1.25 10 1.25C9.58007 1.25 9.17735 1.41209 8.88041 1.7006C8.58348 1.98912 8.41667 2.38044 8.41667 2.78846V4.32692H3.66667C2.82681 4.32692 2.02136 4.6511 1.4275 5.22813C0.83363 5.80517 0.5 6.5878 0.5 7.40385V38.1731C0.5 38.9891 0.83363 39.7718 1.4275 40.3488C2.02136 40.9258 2.82681 41.25 3.66667 41.25H35.3333C36.1732 41.25 36.9786 40.9258 37.5725 40.3488C38.1664 39.7718 38.5 38.9891 38.5 38.1731V7.40385C38.5 6.5878 38.1664 5.80517 37.5725 5.22813C36.9786 4.6511 36.1732 4.32692 35.3333 4.32692ZM8.41667 7.40385V8.94231C8.41667 9.35033 8.58348 9.74165 8.88041 10.0302C9.17735 10.3187 9.58007 10.4808 10 10.4808C10.4199 10.4808 10.8227 10.3187 11.1196 10.0302C11.4165 9.74165 11.5833 9.35033 11.5833 8.94231V7.40385H27.4167V8.94231C27.4167 9.35033 27.5835 9.74165 27.8804 10.0302C28.1773 10.3187 28.5801 10.4808 29 10.4808C29.4199 10.4808 29.8227 10.3187 30.1196 10.0302C30.4165 9.74165 30.5833 9.35033 30.5833 8.94231V7.40385H35.3333V13.5577H3.66667V7.40385H8.41667ZM35.3333 38.1731H3.66667V16.6346H35.3333V38.1731Z" fill="url(#paint0_linear_2096_14444)"/>
<path d="M24.06 24.2654C24.06 24.396 24.0066 24.5212 23.9116 24.6135C23.8166 24.7058 23.6877 24.7577 23.5533 24.7577H21.5172C21.5229 24.8389 21.5267 24.9208 21.5267 25.0038C21.5255 25.9828 21.1248 26.9212 20.4124 27.6134C19.7 28.3056 18.7341 28.695 17.7267 28.6962H16.757L21.3607 32.7626C21.4109 32.8059 21.4517 32.8583 21.4808 32.917C21.51 32.9757 21.5268 33.0394 21.5304 33.1044C21.534 33.1695 21.5243 33.2346 21.5018 33.296C21.4793 33.3574 21.4445 33.4138 21.3995 33.462C21.3544 33.5102 21.2999 33.5492 21.2391 33.5768C21.1784 33.6044 21.1126 33.6201 21.0456 33.6228C20.9787 33.6255 20.9118 33.6153 20.8489 33.5927C20.786 33.5701 20.7283 33.5356 20.6793 33.4912L15.1059 28.5682C15.0303 28.5013 14.9772 28.4138 14.9536 28.3171C14.9301 28.2204 14.9373 28.1191 14.9741 28.0264C15.011 27.9337 15.0759 27.854 15.1602 27.7978C15.2445 27.7416 15.3444 27.7115 15.4467 27.7115H17.7267C18.4655 27.7107 19.1738 27.4252 19.6962 26.9176C20.2186 26.41 20.5125 25.7217 20.5133 25.0038C20.5133 24.9208 20.5089 24.8389 20.5013 24.7577H15.4467C15.3123 24.7577 15.1834 24.7058 15.0884 24.6135C14.9934 24.5212 14.94 24.396 14.94 24.2654C14.94 24.1348 14.9934 24.0096 15.0884 23.9173C15.1834 23.8249 15.3123 23.7731 15.4467 23.7731H20.2074C19.9741 23.3287 19.6189 22.9557 19.1812 22.6951C18.7434 22.4344 18.2401 22.2964 17.7267 22.2962H15.4467C15.3123 22.2962 15.1834 22.2443 15.0884 22.152C14.9934 22.0596 14.94 21.9344 14.94 21.8038C14.94 21.6733 14.9934 21.5481 15.0884 21.4557C15.1834 21.3634 15.3123 21.3115 15.4467 21.3115H23.5533C23.6877 21.3115 23.8166 21.3634 23.9116 21.4557C24.0066 21.5481 24.06 21.6733 24.06 21.8038C24.06 21.9344 24.0066 22.0596 23.9116 22.152C23.8166 22.2443 23.6877 22.2962 23.5533 22.2962H20.3069C20.7588 22.7025 21.1026 23.2093 21.3088 23.7731H23.5533C23.6877 23.7731 23.8166 23.8249 23.9116 23.9173C24.0066 24.0096 24.06 24.1348 24.06 24.2654Z" fill="url(#paint1_linear_2096_14444)"/>
<path d="M35.3333 4.32692H30.5833V2.78846C30.5833 2.38044 30.4165 1.98912 30.1196 1.7006C29.8227 1.41209 29.4199 1.25 29 1.25C28.5801 1.25 28.1773 1.41209 27.8804 1.7006C27.5835 1.98912 27.4167 2.38044 27.4167 2.78846V4.32692H11.5833V2.78846C11.5833 2.38044 11.4165 1.98912 11.1196 1.7006C10.8227 1.41209 10.4199 1.25 10 1.25C9.58007 1.25 9.17735 1.41209 8.88041 1.7006C8.58348 1.98912 8.41667 2.38044 8.41667 2.78846V4.32692H3.66667C2.82681 4.32692 2.02136 4.6511 1.4275 5.22813C0.83363 5.80517 0.5 6.5878 0.5 7.40385V38.1731C0.5 38.9891 0.83363 39.7718 1.4275 40.3488C2.02136 40.9258 2.82681 41.25 3.66667 41.25H35.3333C36.1732 41.25 36.9786 40.9258 37.5725 40.3488C38.1664 39.7718 38.5 38.9891 38.5 38.1731V7.40385C38.5 6.5878 38.1664 5.80517 37.5725 5.22813C36.9786 4.6511 36.1732 4.32692 35.3333 4.32692ZM8.41667 7.40385V8.94231C8.41667 9.35033 8.58348 9.74165 8.88041 10.0302C9.17735 10.3187 9.58007 10.4808 10 10.4808C10.4199 10.4808 10.8227 10.3187 11.1196 10.0302C11.4165 9.74165 11.5833 9.35033 11.5833 8.94231V7.40385H27.4167V8.94231C27.4167 9.35033 27.5835 9.74165 27.8804 10.0302C28.1773 10.3187 28.5801 10.4808 29 10.4808C29.4199 10.4808 29.8227 10.3187 30.1196 10.0302C30.4165 9.74165 30.5833 9.35033 30.5833 8.94231V7.40385H35.3333V13.5577H3.66667V7.40385H8.41667ZM35.3333 38.1731H3.66667V16.6346H35.3333V38.1731Z" stroke="url(#paint2_linear_2096_14444)"/>
<path d="M24.06 24.2654C24.06 24.396 24.0066 24.5212 23.9116 24.6135C23.8166 24.7058 23.6877 24.7577 23.5533 24.7577H21.5172C21.5229 24.8389 21.5267 24.9208 21.5267 25.0038C21.5255 25.9828 21.1248 26.9212 20.4124 27.6134C19.7 28.3056 18.7341 28.695 17.7267 28.6962H16.757L21.3607 32.7626C21.4109 32.8059 21.4517 32.8583 21.4808 32.917C21.51 32.9757 21.5268 33.0394 21.5304 33.1044C21.534 33.1695 21.5243 33.2346 21.5018 33.296C21.4793 33.3574 21.4445 33.4138 21.3995 33.462C21.3544 33.5102 21.2999 33.5492 21.2391 33.5768C21.1784 33.6044 21.1126 33.6201 21.0456 33.6228C20.9787 33.6255 20.9118 33.6153 20.8489 33.5927C20.786 33.5701 20.7283 33.5356 20.6793 33.4912L15.1059 28.5682C15.0303 28.5013 14.9772 28.4138 14.9536 28.3171C14.9301 28.2204 14.9373 28.1191 14.9741 28.0264C15.011 27.9337 15.0759 27.854 15.1602 27.7978C15.2445 27.7416 15.3444 27.7115 15.4467 27.7115H17.7267C18.4655 27.7107 19.1738 27.4252 19.6962 26.9176C20.2186 26.41 20.5125 25.7217 20.5133 25.0038C20.5133 24.9208 20.5089 24.8389 20.5013 24.7577H15.4467C15.3123 24.7577 15.1834 24.7058 15.0884 24.6135C14.9934 24.5212 14.94 24.396 14.94 24.2654C14.94 24.1348 14.9934 24.0096 15.0884 23.9173C15.1834 23.8249 15.3123 23.7731 15.4467 23.7731H20.2074C19.9741 23.3287 19.6189 22.9557 19.1812 22.6951C18.7434 22.4344 18.2401 22.2964 17.7267 22.2962H15.4467C15.3123 22.2962 15.1834 22.2443 15.0884 22.152C14.9934 22.0596 14.94 21.9344 14.94 21.8038C14.94 21.6733 14.9934 21.5481 15.0884 21.4557C15.1834 21.3634 15.3123 21.3115 15.4467 21.3115H23.5533C23.6877 21.3115 23.8166 21.3634 23.9116 21.4557C24.0066 21.5481 24.06 21.6733 24.06 21.8038C24.06 21.9344 24.0066 22.0596 23.9116 22.152C23.8166 22.2443 23.6877 22.2962 23.5533 22.2962H20.3069C20.7588 22.7025 21.1026 23.2093 21.3088 23.7731H23.5533C23.6877 23.7731 23.8166 23.8249 23.9116 23.9173C24.0066 24.0096 24.06 24.1348 24.06 24.2654Z" stroke="url(#paint3_linear_2096_14444)"/>
<defs>
<linearGradient id="paint0_linear_2096_14444" x1="19.5" y1="1.25" x2="19.5" y2="34.9167" gradientUnits="userSpaceOnUse">
<stop stop-color="#2D4949"/>
<stop offset="0.99" stop-color="#31B2B2"/>
</linearGradient>
<linearGradient id="paint1_linear_2096_14444" x1="19.5" y1="1.25" x2="19.5" y2="34.9167" gradientUnits="userSpaceOnUse">
<stop stop-color="#2D4949"/>
<stop offset="0.99" stop-color="#31B2B2"/>
</linearGradient>
<linearGradient id="paint2_linear_2096_14444" x1="19.5" y1="1.25" x2="19.5" y2="34.9167" gradientUnits="userSpaceOnUse">
<stop stop-color="#2D4949"/>
<stop offset="0.99" stop-color="#31B2B2"/>
</linearGradient>
<linearGradient id="paint3_linear_2096_14444" x1="19.5" y1="1.25" x2="19.5" y2="34.9167" gradientUnits="userSpaceOnUse">
<stop stop-color="#2D4949"/>
<stop offset="0.99" stop-color="#31B2B2"/>
</linearGradient>
</defs>
</svg>
