<svg width="500" height="560" viewBox="0 0 500 560" fill="none" xmlns="http://www.w3.org/2000/svg">
<rect x="0.25" y="0.25" width="499.5" height="559.5" rx="15.75" stroke="url(#paint0_linear_1236_6745)" stroke-width="0.5"/>
<path d="M0 124C86.1365 124 156 193.864 156 280C156 366.136 86.1365 436 0 436" fill="url(#paint1_linear_1236_6745)"/>
<path d="M0 124C86.1365 124 156 193.864 156 280C156 366.136 86.1365 436 0 436" stroke="url(#paint2_linear_1236_6745)" stroke-miterlimit="10"/>
<path d="M0 180C55.2157 180 100 224.784 100 280C100 335.216 55.2157 380 0 380" fill="url(#paint3_linear_1236_6745)"/>
<path d="M0 180C55.2157 180 100 224.784 100 280C100 335.216 55.2157 380 0 380" stroke="url(#paint4_linear_1236_6745)" stroke-width="0.5" stroke-miterlimit="10"/>
<path d="M0 226C29.8165 226 54 250.184 54 280C54 309.816 29.8165 334 0 334" fill="url(#paint5_linear_1236_6745)"/>
<path d="M0 226C29.8165 226 54 250.184 54 280C54 309.816 29.8165 334 0 334" stroke="url(#paint6_linear_1236_6745)" stroke-width="0.5" stroke-miterlimit="10"/>
<rect x="130.5" y="91.5" width="239" height="47" rx="23.5" fill="url(#paint7_linear_1236_6745)"/>
<rect x="130.5" y="91.5" width="239" height="47" rx="23.5" stroke="url(#paint8_linear_1236_6745)"/>
<path d="M166.544 109.928V121H165.088V112.744L161.408 121H160.384L156.688 112.728V121H155.232V109.928H156.8L160.896 119.08L164.992 109.928H166.544ZM177.289 112.232V121H175.833V119.704C175.556 120.152 175.167 120.504 174.665 120.76C174.175 121.005 173.631 121.128 173.033 121.128C172.351 121.128 171.737 120.989 171.193 120.712C170.649 120.424 170.217 119.997 169.897 119.432C169.588 118.867 169.433 118.179 169.433 117.368V112.232H170.873V117.176C170.873 118.04 171.092 118.707 171.529 119.176C171.967 119.635 172.564 119.864 173.321 119.864C174.1 119.864 174.713 119.624 175.161 119.144C175.609 118.664 175.833 117.965 175.833 117.048V112.232H177.289ZM181.704 109.16V121H180.248V109.16H181.704ZM186.461 113.432V118.6C186.461 119.027 186.552 119.331 186.733 119.512C186.914 119.683 187.229 119.768 187.677 119.768H188.749V121H187.437C186.626 121 186.018 120.813 185.613 120.44C185.208 120.067 185.005 119.453 185.005 118.6V113.432H183.869V112.232H185.005V110.024H186.461V112.232H188.749V113.432H186.461ZM191.765 110.808C191.488 110.808 191.253 110.712 191.061 110.52C190.869 110.328 190.773 110.093 190.773 109.816C190.773 109.539 190.869 109.304 191.061 109.112C191.253 108.92 191.488 108.824 191.765 108.824C192.032 108.824 192.256 108.92 192.437 109.112C192.629 109.304 192.725 109.539 192.725 109.816C192.725 110.093 192.629 110.328 192.437 110.52C192.256 110.712 192.032 110.808 191.765 110.808ZM192.469 112.232V121H191.013V112.232H192.469ZM196.907 113.848C197.195 113.347 197.621 112.931 198.187 112.6C198.763 112.259 199.429 112.088 200.187 112.088C200.965 112.088 201.669 112.275 202.299 112.648C202.939 113.021 203.44 113.549 203.803 114.232C204.165 114.904 204.347 115.688 204.347 116.584C204.347 117.469 204.165 118.259 203.803 118.952C203.44 119.645 202.939 120.184 202.299 120.568C201.669 120.952 200.965 121.144 200.187 121.144C199.44 121.144 198.779 120.979 198.203 120.648C197.637 120.307 197.205 119.885 196.907 119.384V125.16H195.451V112.232H196.907V113.848ZM202.859 116.584C202.859 115.923 202.725 115.347 202.459 114.856C202.192 114.365 201.829 113.992 201.371 113.736C200.923 113.48 200.427 113.352 199.883 113.352C199.349 113.352 198.853 113.485 198.395 113.752C197.947 114.008 197.584 114.387 197.307 114.888C197.04 115.379 196.907 115.949 196.907 116.6C196.907 117.261 197.04 117.843 197.307 118.344C197.584 118.835 197.947 119.213 198.395 119.48C198.853 119.736 199.349 119.864 199.883 119.864C200.427 119.864 200.923 119.736 201.371 119.48C201.829 119.213 202.192 118.835 202.459 118.344C202.725 117.843 202.859 117.256 202.859 116.584ZM208.219 109.16V121H206.763V109.16H208.219ZM219.201 116.28C219.201 116.557 219.185 116.851 219.153 117.16H212.145C212.198 118.024 212.491 118.701 213.025 119.192C213.569 119.672 214.225 119.912 214.993 119.912C215.622 119.912 216.145 119.768 216.561 119.48C216.987 119.181 217.286 118.787 217.457 118.296H219.025C218.79 119.139 218.321 119.827 217.617 120.36C216.913 120.883 216.038 121.144 214.993 121.144C214.161 121.144 213.414 120.957 212.753 120.584C212.102 120.211 211.59 119.683 211.217 119C210.843 118.307 210.657 117.507 210.657 116.6C210.657 115.693 210.838 114.899 211.201 114.216C211.563 113.533 212.07 113.011 212.721 112.648C213.382 112.275 214.139 112.088 214.993 112.088C215.825 112.088 216.561 112.269 217.201 112.632C217.841 112.995 218.331 113.496 218.673 114.136C219.025 114.765 219.201 115.48 219.201 116.28ZM217.697 115.976C217.697 115.421 217.574 114.947 217.329 114.552C217.083 114.147 216.747 113.843 216.321 113.64C215.905 113.427 215.441 113.32 214.929 113.32C214.193 113.32 213.563 113.555 213.041 114.024C212.529 114.493 212.235 115.144 212.161 115.976H217.697ZM232.98 118.52H228.116L227.22 121H225.684L229.716 109.912H231.396L235.412 121H233.876L232.98 118.52ZM232.564 117.336L230.548 111.704L228.532 117.336H232.564ZM237.126 116.6C237.126 115.693 237.307 114.904 237.67 114.232C238.032 113.549 238.534 113.021 239.174 112.648C239.824 112.275 240.566 112.088 241.398 112.088C242.475 112.088 243.36 112.349 244.054 112.872C244.758 113.395 245.222 114.12 245.446 115.048H243.878C243.728 114.515 243.435 114.093 242.998 113.784C242.571 113.475 242.038 113.32 241.398 113.32C240.566 113.32 239.894 113.608 239.382 114.184C238.87 114.749 238.614 115.555 238.614 116.6C238.614 117.656 238.87 118.472 239.382 119.048C239.894 119.624 240.566 119.912 241.398 119.912C242.038 119.912 242.571 119.763 242.998 119.464C243.424 119.165 243.718 118.739 243.878 118.184H245.446C245.211 119.08 244.742 119.8 244.038 120.344C243.334 120.877 242.454 121.144 241.398 121.144C240.566 121.144 239.824 120.957 239.174 120.584C238.534 120.211 238.032 119.683 237.67 119C237.307 118.317 237.126 117.517 237.126 116.6ZM247.344 116.6C247.344 115.693 247.526 114.904 247.888 114.232C248.251 113.549 248.752 113.021 249.392 112.648C250.043 112.275 250.784 112.088 251.616 112.088C252.694 112.088 253.579 112.349 254.272 112.872C254.976 113.395 255.44 114.12 255.664 115.048H254.096C253.947 114.515 253.654 114.093 253.216 113.784C252.79 113.475 252.256 113.32 251.616 113.32C250.784 113.32 250.112 113.608 249.6 114.184C249.088 114.749 248.832 115.555 248.832 116.6C248.832 117.656 249.088 118.472 249.6 119.048C250.112 119.624 250.784 119.912 251.616 119.912C252.256 119.912 252.79 119.763 253.216 119.464C253.643 119.165 253.936 118.739 254.096 118.184H255.664C255.43 119.08 254.96 119.8 254.256 120.344C253.552 120.877 252.672 121.144 251.616 121.144C250.784 121.144 250.043 120.957 249.392 120.584C248.752 120.211 248.251 119.683 247.888 119C247.526 118.317 247.344 117.517 247.344 116.6ZM261.931 121.144C261.11 121.144 260.363 120.957 259.691 120.584C259.03 120.211 258.507 119.683 258.123 119C257.75 118.307 257.563 117.507 257.563 116.6C257.563 115.704 257.755 114.915 258.139 114.232C258.534 113.539 259.067 113.011 259.739 112.648C260.411 112.275 261.163 112.088 261.995 112.088C262.827 112.088 263.579 112.275 264.251 112.648C264.923 113.011 265.451 113.533 265.835 114.216C266.23 114.899 266.427 115.693 266.427 116.6C266.427 117.507 266.224 118.307 265.819 119C265.424 119.683 264.886 120.211 264.203 120.584C263.52 120.957 262.763 121.144 261.931 121.144ZM261.931 119.864C262.454 119.864 262.944 119.741 263.403 119.496C263.862 119.251 264.23 118.883 264.507 118.392C264.795 117.901 264.939 117.304 264.939 116.6C264.939 115.896 264.8 115.299 264.523 114.808C264.246 114.317 263.883 113.955 263.435 113.72C262.987 113.475 262.502 113.352 261.979 113.352C261.446 113.352 260.955 113.475 260.507 113.72C260.07 113.955 259.718 114.317 259.451 114.808C259.184 115.299 259.051 115.896 259.051 116.6C259.051 117.315 259.179 117.917 259.435 118.408C259.702 118.899 260.054 119.267 260.491 119.512C260.928 119.747 261.408 119.864 261.931 119.864ZM276.617 112.232V121H275.161V119.704C274.884 120.152 274.495 120.504 273.993 120.76C273.503 121.005 272.959 121.128 272.361 121.128C271.679 121.128 271.065 120.989 270.521 120.712C269.977 120.424 269.545 119.997 269.225 119.432C268.916 118.867 268.761 118.179 268.761 117.368V112.232H270.201V117.176C270.201 118.04 270.42 118.707 270.857 119.176C271.295 119.635 271.892 119.864 272.649 119.864C273.428 119.864 274.041 119.624 274.489 119.144C274.937 118.664 275.161 117.965 275.161 117.048V112.232H276.617ZM283.848 112.072C284.914 112.072 285.778 112.397 286.44 113.048C287.101 113.688 287.432 114.616 287.432 115.832V121H285.992V116.04C285.992 115.165 285.773 114.499 285.336 114.04C284.898 113.571 284.301 113.336 283.544 113.336C282.776 113.336 282.162 113.576 281.704 114.056C281.256 114.536 281.032 115.235 281.032 116.152V121H279.576V112.232H281.032V113.48C281.32 113.032 281.709 112.685 282.2 112.44C282.701 112.195 283.25 112.072 283.848 112.072ZM292.086 113.432V118.6C292.086 119.027 292.177 119.331 292.358 119.512C292.539 119.683 292.854 119.768 293.302 119.768H294.374V121H293.062C292.251 121 291.643 120.813 291.238 120.44C290.833 120.067 290.63 119.453 290.63 118.6V113.432H289.494V112.232H290.63V110.024H292.086V112.232H294.374V113.432H292.086ZM299.742 121.144C299.07 121.144 298.468 121.032 297.934 120.808C297.401 120.573 296.98 120.253 296.67 119.848C296.361 119.432 296.19 118.957 296.158 118.424H297.662C297.705 118.861 297.908 119.219 298.27 119.496C298.644 119.773 299.129 119.912 299.726 119.912C300.281 119.912 300.718 119.789 301.038 119.544C301.358 119.299 301.518 118.989 301.518 118.616C301.518 118.232 301.348 117.949 301.006 117.768C300.665 117.576 300.137 117.389 299.422 117.208C298.772 117.037 298.238 116.867 297.822 116.696C297.417 116.515 297.065 116.253 296.766 115.912C296.478 115.56 296.334 115.101 296.334 114.536C296.334 114.088 296.468 113.677 296.734 113.304C297.001 112.931 297.38 112.637 297.87 112.424C298.361 112.2 298.921 112.088 299.55 112.088C300.521 112.088 301.305 112.333 301.902 112.824C302.5 113.315 302.82 113.987 302.862 114.84H301.406C301.374 114.381 301.188 114.013 300.846 113.736C300.516 113.459 300.068 113.32 299.502 113.32C298.98 113.32 298.564 113.432 298.254 113.656C297.945 113.88 297.79 114.173 297.79 114.536C297.79 114.824 297.881 115.064 298.062 115.256C298.254 115.437 298.489 115.587 298.766 115.704C299.054 115.811 299.449 115.933 299.95 116.072C300.58 116.243 301.092 116.413 301.486 116.584C301.881 116.744 302.217 116.989 302.494 117.32C302.782 117.651 302.932 118.083 302.942 118.616C302.942 119.096 302.809 119.528 302.542 119.912C302.276 120.296 301.897 120.6 301.406 120.824C300.926 121.037 300.372 121.144 299.742 121.144Z" fill="white"/>
<path d="M93.5 153.5L124 119" stroke="url(#paint9_linear_1236_6745)" stroke-miterlimit="10"/>
<path d="M93 148.5C89.9332 148.5 87.5 150.933 87.5 154C87.5 157.067 89.9332 159.5 93 159.5C96.0669 159.5 98.5 157.067 98.5 154C98.5 150.933 96.0669 148.5 93 148.5Z" fill="url(#paint10_linear_1236_6745)" stroke="url(#paint11_linear_1236_6745)"/>
<path d="M142.5 118C142.5 127.665 134.665 135.5 125 135.5C115.335 135.5 107.5 127.665 107.5 118C107.5 108.335 115.335 100.5 125 100.5C134.665 100.5 142.5 108.335 142.5 118Z" fill="url(#paint12_linear_1236_6745)" stroke="url(#paint13_linear_1236_6745)"/>
<rect x="191.5" y="175.5" width="239" height="47" rx="23.5" fill="url(#paint14_linear_1236_6745)"/>
<rect x="191.5" y="175.5" width="239" height="47" rx="23.5" stroke="url(#paint15_linear_1236_6745)"/>
<path d="M219.768 205.612C219.032 205.612 218.371 205.484 217.784 205.228C217.208 204.961 216.755 204.599 216.424 204.14C216.093 203.671 215.923 203.132 215.912 202.524H217.464C217.517 203.047 217.731 203.489 218.104 203.852C218.488 204.204 219.043 204.38 219.768 204.38C220.461 204.38 221.005 204.209 221.4 203.868C221.805 203.516 222.008 203.068 222.008 202.524C222.008 202.097 221.891 201.751 221.656 201.484C221.421 201.217 221.128 201.015 220.776 200.876C220.424 200.737 219.949 200.588 219.352 200.428C218.616 200.236 218.024 200.044 217.576 199.852C217.139 199.66 216.76 199.361 216.44 198.956C216.131 198.54 215.976 197.985 215.976 197.292C215.976 196.684 216.131 196.145 216.44 195.676C216.749 195.207 217.181 194.844 217.736 194.588C218.301 194.332 218.947 194.204 219.672 194.204C220.717 194.204 221.571 194.465 222.232 194.988C222.904 195.511 223.283 196.204 223.368 197.068H221.768C221.715 196.641 221.491 196.268 221.096 195.948C220.701 195.617 220.179 195.452 219.528 195.452C218.92 195.452 218.424 195.612 218.04 195.932C217.656 196.241 217.464 196.679 217.464 197.244C217.464 197.649 217.576 197.98 217.8 198.236C218.035 198.492 218.317 198.689 218.648 198.828C218.989 198.956 219.464 199.105 220.072 199.276C220.808 199.479 221.4 199.681 221.848 199.884C222.296 200.076 222.68 200.38 223 200.796C223.32 201.201 223.48 201.756 223.48 202.46C223.48 203.004 223.336 203.516 223.048 203.996C222.76 204.476 222.333 204.865 221.768 205.164C221.203 205.463 220.536 205.612 219.768 205.612ZM234.123 200.78C234.123 201.057 234.107 201.351 234.075 201.66H227.067C227.12 202.524 227.413 203.201 227.947 203.692C228.491 204.172 229.147 204.412 229.915 204.412C230.544 204.412 231.067 204.268 231.483 203.98C231.909 203.681 232.208 203.287 232.379 202.796H233.947C233.712 203.639 233.243 204.327 232.539 204.86C231.835 205.383 230.96 205.644 229.915 205.644C229.083 205.644 228.336 205.457 227.675 205.084C227.024 204.711 226.512 204.183 226.139 203.5C225.765 202.807 225.579 202.007 225.579 201.1C225.579 200.193 225.76 199.399 226.123 198.716C226.485 198.033 226.992 197.511 227.643 197.148C228.304 196.775 229.061 196.588 229.915 196.588C230.747 196.588 231.483 196.769 232.123 197.132C232.763 197.495 233.253 197.996 233.595 198.636C233.947 199.265 234.123 199.98 234.123 200.78ZM232.619 200.476C232.619 199.921 232.496 199.447 232.251 199.052C232.005 198.647 231.669 198.343 231.243 198.14C230.827 197.927 230.363 197.82 229.851 197.82C229.115 197.82 228.485 198.055 227.963 198.524C227.451 198.993 227.157 199.644 227.083 200.476H232.619ZM236.001 201.084C236.001 200.188 236.182 199.404 236.545 198.732C236.907 198.049 237.403 197.521 238.033 197.148C238.673 196.775 239.382 196.588 240.161 196.588C240.929 196.588 241.595 196.753 242.161 197.084C242.726 197.415 243.147 197.831 243.425 198.332V196.732H244.897V205.5H243.425V203.868C243.137 204.38 242.705 204.807 242.129 205.148C241.563 205.479 240.902 205.644 240.145 205.644C239.366 205.644 238.662 205.452 238.033 205.068C237.403 204.684 236.907 204.145 236.545 203.452C236.182 202.759 236.001 201.969 236.001 201.084ZM243.425 201.1C243.425 200.439 243.291 199.863 243.025 199.372C242.758 198.881 242.395 198.508 241.937 198.252C241.489 197.985 240.993 197.852 240.449 197.852C239.905 197.852 239.409 197.98 238.961 198.236C238.513 198.492 238.155 198.865 237.889 199.356C237.622 199.847 237.489 200.423 237.489 201.084C237.489 201.756 237.622 202.343 237.889 202.844C238.155 203.335 238.513 203.713 238.961 203.98C239.409 204.236 239.905 204.364 240.449 204.364C240.993 204.364 241.489 204.236 241.937 203.98C242.395 203.713 242.758 203.335 243.025 202.844C243.291 202.343 243.425 201.761 243.425 201.1ZM258.401 196.572C259.084 196.572 259.692 196.716 260.225 197.004C260.758 197.281 261.18 197.703 261.489 198.268C261.798 198.833 261.953 199.521 261.953 200.332V205.5H260.513V200.54C260.513 199.665 260.294 198.999 259.857 198.54C259.43 198.071 258.849 197.836 258.113 197.836C257.356 197.836 256.753 198.081 256.305 198.572C255.857 199.052 255.633 199.751 255.633 200.668V205.5H254.193V200.54C254.193 199.665 253.974 198.999 253.537 198.54C253.11 198.071 252.529 197.836 251.793 197.836C251.036 197.836 250.433 198.081 249.985 198.572C249.537 199.052 249.313 199.751 249.313 200.668V205.5H247.857V196.732H249.313V197.996C249.601 197.537 249.985 197.185 250.465 196.94C250.956 196.695 251.494 196.572 252.081 196.572C252.817 196.572 253.468 196.737 254.033 197.068C254.598 197.399 255.02 197.884 255.297 198.524C255.542 197.905 255.948 197.425 256.513 197.084C257.078 196.743 257.708 196.572 258.401 196.572ZM266.297 193.66V205.5H264.841V193.66H266.297ZM277.279 200.78C277.279 201.057 277.263 201.351 277.231 201.66H270.223C270.276 202.524 270.57 203.201 271.103 203.692C271.647 204.172 272.303 204.412 273.071 204.412C273.7 204.412 274.223 204.268 274.639 203.98C275.066 203.681 275.364 203.287 275.535 202.796H277.103C276.868 203.639 276.399 204.327 275.695 204.86C274.991 205.383 274.116 205.644 273.071 205.644C272.239 205.644 271.492 205.457 270.831 205.084C270.18 204.711 269.668 204.183 269.295 203.5C268.922 202.807 268.735 202.007 268.735 201.1C268.735 200.193 268.916 199.399 269.279 198.716C269.642 198.033 270.148 197.511 270.799 197.148C271.46 196.775 272.218 196.588 273.071 196.588C273.903 196.588 274.639 196.769 275.279 197.132C275.919 197.495 276.41 197.996 276.751 198.636C277.103 199.265 277.279 199.98 277.279 200.78ZM275.775 200.476C275.775 199.921 275.652 199.447 275.407 199.052C275.162 198.647 274.826 198.343 274.399 198.14C273.983 197.927 273.519 197.82 273.007 197.82C272.271 197.82 271.642 198.055 271.119 198.524C270.607 198.993 270.314 199.644 270.239 200.476H275.775ZM282.805 205.644C282.133 205.644 281.53 205.532 280.997 205.308C280.463 205.073 280.042 204.753 279.733 204.348C279.423 203.932 279.253 203.457 279.221 202.924H280.725C280.767 203.361 280.97 203.719 281.333 203.996C281.706 204.273 282.191 204.412 282.789 204.412C283.343 204.412 283.781 204.289 284.101 204.044C284.421 203.799 284.581 203.489 284.581 203.116C284.581 202.732 284.41 202.449 284.069 202.268C283.727 202.076 283.199 201.889 282.485 201.708C281.834 201.537 281.301 201.367 280.885 201.196C280.479 201.015 280.127 200.753 279.829 200.412C279.541 200.06 279.397 199.601 279.397 199.036C279.397 198.588 279.53 198.177 279.797 197.804C280.063 197.431 280.442 197.137 280.933 196.924C281.423 196.7 281.983 196.588 282.613 196.588C283.583 196.588 284.367 196.833 284.965 197.324C285.562 197.815 285.882 198.487 285.925 199.34H284.469C284.437 198.881 284.25 198.513 283.909 198.236C283.578 197.959 283.13 197.82 282.565 197.82C282.042 197.82 281.626 197.932 281.317 198.156C281.007 198.38 280.853 198.673 280.853 199.036C280.853 199.324 280.943 199.564 281.125 199.756C281.317 199.937 281.551 200.087 281.829 200.204C282.117 200.311 282.511 200.433 283.013 200.572C283.642 200.743 284.154 200.913 284.549 201.084C284.943 201.244 285.279 201.489 285.557 201.82C285.845 202.151 285.994 202.583 286.005 203.116C286.005 203.596 285.871 204.028 285.605 204.412C285.338 204.796 284.959 205.1 284.469 205.324C283.989 205.537 283.434 205.644 282.805 205.644ZM291.664 205.644C290.992 205.644 290.389 205.532 289.856 205.308C289.323 205.073 288.901 204.753 288.592 204.348C288.283 203.932 288.112 203.457 288.08 202.924H289.584C289.627 203.361 289.829 203.719 290.192 203.996C290.565 204.273 291.051 204.412 291.648 204.412C292.203 204.412 292.64 204.289 292.96 204.044C293.28 203.799 293.44 203.489 293.44 203.116C293.44 202.732 293.269 202.449 292.928 202.268C292.587 202.076 292.059 201.889 291.344 201.708C290.693 201.537 290.16 201.367 289.744 201.196C289.339 201.015 288.987 200.753 288.688 200.412C288.4 200.06 288.256 199.601 288.256 199.036C288.256 198.588 288.389 198.177 288.656 197.804C288.923 197.431 289.301 197.137 289.792 196.924C290.283 196.7 290.843 196.588 291.472 196.588C292.443 196.588 293.227 196.833 293.824 197.324C294.421 197.815 294.741 198.487 294.784 199.34H293.328C293.296 198.881 293.109 198.513 292.768 198.236C292.437 197.959 291.989 197.82 291.424 197.82C290.901 197.82 290.485 197.932 290.176 198.156C289.867 198.38 289.712 198.673 289.712 199.036C289.712 199.324 289.803 199.564 289.984 199.756C290.176 199.937 290.411 200.087 290.688 200.204C290.976 200.311 291.371 200.433 291.872 200.572C292.501 200.743 293.013 200.913 293.408 201.084C293.803 201.244 294.139 201.489 294.416 201.82C294.704 202.151 294.853 202.583 294.864 203.116C294.864 203.596 294.731 204.028 294.464 204.412C294.197 204.796 293.819 205.1 293.328 205.324C292.848 205.537 292.293 205.644 291.664 205.644ZM309.641 197.612C309.641 198.54 309.321 199.313 308.681 199.932C308.052 200.54 307.086 200.844 305.785 200.844H303.641V205.5H302.185V194.348H305.785C307.044 194.348 307.998 194.652 308.649 195.26C309.31 195.868 309.641 196.652 309.641 197.612ZM305.785 199.644C306.596 199.644 307.193 199.468 307.577 199.116C307.961 198.764 308.153 198.263 308.153 197.612C308.153 196.236 307.364 195.548 305.785 195.548H303.641V199.644H305.785ZM311.407 201.084C311.407 200.188 311.588 199.404 311.951 198.732C312.313 198.049 312.809 197.521 313.439 197.148C314.079 196.775 314.788 196.588 315.567 196.588C316.335 196.588 317.001 196.753 317.567 197.084C318.132 197.415 318.553 197.831 318.831 198.332V196.732H320.303V205.5H318.831V203.868C318.543 204.38 318.111 204.807 317.535 205.148C316.969 205.479 316.308 205.644 315.551 205.644C314.772 205.644 314.068 205.452 313.439 205.068C312.809 204.684 312.313 204.145 311.951 203.452C311.588 202.759 311.407 201.969 311.407 201.084ZM318.831 201.1C318.831 200.439 318.697 199.863 318.431 199.372C318.164 198.881 317.801 198.508 317.343 198.252C316.895 197.985 316.399 197.852 315.855 197.852C315.311 197.852 314.815 197.98 314.367 198.236C313.919 198.492 313.561 198.865 313.295 199.356C313.028 199.847 312.895 200.423 312.895 201.084C312.895 201.756 313.028 202.343 313.295 202.844C313.561 203.335 313.919 203.713 314.367 203.98C314.815 204.236 315.311 204.364 315.855 204.364C316.399 204.364 316.895 204.236 317.343 203.98C317.801 203.713 318.164 203.335 318.431 202.844C318.697 202.343 318.831 201.761 318.831 201.1ZM330.815 196.732L325.535 209.628H324.031L325.759 205.404L322.223 196.732H323.839L326.591 203.836L329.311 196.732H330.815ZM343.323 196.572C344.006 196.572 344.614 196.716 345.147 197.004C345.68 197.281 346.102 197.703 346.411 198.268C346.72 198.833 346.875 199.521 346.875 200.332V205.5H345.435V200.54C345.435 199.665 345.216 198.999 344.779 198.54C344.352 198.071 343.771 197.836 343.035 197.836C342.278 197.836 341.675 198.081 341.227 198.572C340.779 199.052 340.555 199.751 340.555 200.668V205.5H339.115V200.54C339.115 199.665 338.896 198.999 338.459 198.54C338.032 198.071 337.451 197.836 336.715 197.836C335.958 197.836 335.355 198.081 334.907 198.572C334.459 199.052 334.235 199.751 334.235 200.668V205.5H332.779V196.732H334.235V197.996C334.523 197.537 334.907 197.185 335.387 196.94C335.878 196.695 336.416 196.572 337.003 196.572C337.739 196.572 338.39 196.737 338.955 197.068C339.52 197.399 339.942 197.884 340.219 198.524C340.464 197.905 340.87 197.425 341.435 197.084C342 196.743 342.63 196.572 343.323 196.572ZM357.763 200.78C357.763 201.057 357.747 201.351 357.715 201.66H350.707C350.761 202.524 351.054 203.201 351.587 203.692C352.131 204.172 352.787 204.412 353.555 204.412C354.185 204.412 354.707 204.268 355.123 203.98C355.55 203.681 355.849 203.287 356.019 202.796H357.587C357.353 203.639 356.883 204.327 356.179 204.86C355.475 205.383 354.601 205.644 353.555 205.644C352.723 205.644 351.977 205.457 351.315 205.084C350.665 204.711 350.153 204.183 349.779 203.5C349.406 202.807 349.219 202.007 349.219 201.1C349.219 200.193 349.401 199.399 349.763 198.716C350.126 198.033 350.633 197.511 351.283 197.148C351.945 196.775 352.702 196.588 353.555 196.588C354.387 196.588 355.123 196.769 355.763 197.132C356.403 197.495 356.894 197.996 357.235 198.636C357.587 199.265 357.763 199.98 357.763 200.78ZM356.259 200.476C356.259 199.921 356.137 199.447 355.891 199.052C355.646 198.647 355.31 198.343 354.883 198.14C354.467 197.927 354.003 197.82 353.491 197.82C352.755 197.82 352.126 198.055 351.603 198.524C351.091 198.993 350.798 199.644 350.723 200.476H356.259ZM364.457 196.572C365.524 196.572 366.388 196.897 367.049 197.548C367.71 198.188 368.041 199.116 368.041 200.332V205.5H366.601V200.54C366.601 199.665 366.382 198.999 365.945 198.54C365.508 198.071 364.91 197.836 364.153 197.836C363.385 197.836 362.772 198.076 362.313 198.556C361.865 199.036 361.641 199.735 361.641 200.652V205.5H360.185V196.732H361.641V197.98C361.929 197.532 362.318 197.185 362.809 196.94C363.31 196.695 363.86 196.572 364.457 196.572ZM372.696 197.932V203.1C372.696 203.527 372.786 203.831 372.968 204.012C373.149 204.183 373.464 204.268 373.911 204.268H374.984V205.5H373.672C372.861 205.5 372.253 205.313 371.848 204.94C371.442 204.567 371.24 203.953 371.24 203.1V197.932H370.104V196.732H371.24V194.524H372.696V196.732H374.984V197.932H372.696ZM380.352 205.644C379.68 205.644 379.077 205.532 378.544 205.308C378.01 205.073 377.589 204.753 377.28 204.348C376.97 203.932 376.8 203.457 376.768 202.924H378.272C378.314 203.361 378.517 203.719 378.88 203.996C379.253 204.273 379.738 204.412 380.336 204.412C380.89 204.412 381.328 204.289 381.648 204.044C381.968 203.799 382.128 203.489 382.128 203.116C382.128 202.732 381.957 202.449 381.616 202.268C381.274 202.076 380.746 201.889 380.032 201.708C379.381 201.537 378.848 201.367 378.432 201.196C378.026 201.015 377.674 200.753 377.376 200.412C377.088 200.06 376.944 199.601 376.944 199.036C376.944 198.588 377.077 198.177 377.344 197.804C377.61 197.431 377.989 197.137 378.48 196.924C378.97 196.7 379.53 196.588 380.16 196.588C381.13 196.588 381.914 196.833 382.512 197.324C383.109 197.815 383.429 198.487 383.472 199.34H382.016C381.984 198.881 381.797 198.513 381.456 198.236C381.125 197.959 380.677 197.82 380.112 197.82C379.589 197.82 379.173 197.932 378.864 198.156C378.554 198.38 378.4 198.673 378.4 199.036C378.4 199.324 378.49 199.564 378.672 199.756C378.864 199.937 379.098 200.087 379.376 200.204C379.664 200.311 380.058 200.433 380.56 200.572C381.189 200.743 381.701 200.913 382.096 201.084C382.49 201.244 382.826 201.489 383.104 201.82C383.392 202.151 383.541 202.583 383.552 203.116C383.552 203.596 383.418 204.028 383.152 204.412C382.885 204.796 382.506 205.1 382.016 205.324C381.536 205.537 380.981 205.644 380.352 205.644Z" fill="white"/>
<path d="M140.5 211.5L184.5 199.5" stroke="url(#paint16_linear_1236_6745)" stroke-miterlimit="10"/>
<path d="M141 205.5C137.933 205.5 135.5 207.933 135.5 211C135.5 214.067 137.933 216.5 141 216.5C144.067 216.5 146.5 214.067 146.5 211C146.5 207.933 144.067 205.5 141 205.5Z" fill="url(#paint17_linear_1236_6745)" stroke="url(#paint18_linear_1236_6745)"/>
<path d="M203.5 199C203.5 208.665 195.665 216.5 186 216.5C176.335 216.5 168.5 208.665 168.5 199C168.5 189.335 176.335 181.5 186 181.5C195.665 181.5 203.5 189.335 203.5 199Z" fill="url(#paint19_linear_1236_6745)" stroke="url(#paint20_linear_1236_6745)"/>
<rect x="207.5" y="256.5" width="239" height="47" rx="23.5" fill="url(#paint21_linear_1236_6745)"/>
<rect x="207.5" y="256.5" width="239" height="47" rx="23.5" stroke="url(#paint22_linear_1236_6745)"/>
<path d="M238.536 275.348V276.532H233.688V280.292H237.624V281.476H233.688V286.5H232.232V275.348H238.536ZM248.571 277.732V286.5H247.115V285.204C246.837 285.652 246.448 286.004 245.947 286.26C245.456 286.505 244.912 286.628 244.315 286.628C243.632 286.628 243.019 286.489 242.475 286.212C241.931 285.924 241.499 285.497 241.179 284.932C240.869 284.367 240.715 283.679 240.715 282.868V277.732H242.155V282.676C242.155 283.54 242.373 284.207 242.811 284.676C243.248 285.135 243.845 285.364 244.603 285.364C245.381 285.364 245.995 285.124 246.443 284.644C246.891 284.164 247.115 283.465 247.115 282.548V277.732H248.571ZM255.801 277.572C256.868 277.572 257.732 277.897 258.393 278.548C259.054 279.188 259.385 280.116 259.385 281.332V286.5H257.945V281.54C257.945 280.665 257.726 279.999 257.289 279.54C256.852 279.071 256.254 278.836 255.497 278.836C254.729 278.836 254.116 279.076 253.657 279.556C253.209 280.036 252.985 280.735 252.985 281.652V286.5H251.529V277.732H252.985V278.98C253.273 278.532 253.662 278.185 254.153 277.94C254.654 277.695 255.204 277.572 255.801 277.572ZM261.719 282.084C261.719 281.188 261.901 280.404 262.263 279.732C262.626 279.049 263.122 278.521 263.751 278.148C264.391 277.775 265.106 277.588 265.895 277.588C266.578 277.588 267.213 277.748 267.799 278.068C268.386 278.377 268.834 278.788 269.143 279.3V274.66H270.615V286.5H269.143V284.852C268.855 285.375 268.429 285.807 267.863 286.148C267.298 286.479 266.637 286.644 265.879 286.644C265.101 286.644 264.391 286.452 263.751 286.068C263.122 285.684 262.626 285.145 262.263 284.452C261.901 283.759 261.719 282.969 261.719 282.084ZM269.143 282.1C269.143 281.439 269.01 280.863 268.743 280.372C268.477 279.881 268.114 279.508 267.655 279.252C267.207 278.985 266.711 278.852 266.167 278.852C265.623 278.852 265.127 278.98 264.679 279.236C264.231 279.492 263.874 279.865 263.607 280.356C263.341 280.847 263.207 281.423 263.207 282.084C263.207 282.756 263.341 283.343 263.607 283.844C263.874 284.335 264.231 284.713 264.679 284.98C265.127 285.236 265.623 285.364 266.167 285.364C266.711 285.364 267.207 285.236 267.655 284.98C268.114 284.713 268.477 284.335 268.743 283.844C269.01 283.343 269.143 282.761 269.143 282.1ZM289.653 275.428V286.5H288.197V278.244L284.517 286.5H283.493L279.797 278.228V286.5H278.341V275.428H279.909L284.005 284.58L288.101 275.428H289.653ZM292.079 282.084C292.079 281.188 292.26 280.404 292.623 279.732C292.985 279.049 293.481 278.521 294.111 278.148C294.751 277.775 295.46 277.588 296.239 277.588C297.007 277.588 297.673 277.753 298.239 278.084C298.804 278.415 299.225 278.831 299.503 279.332V277.732H300.975V286.5H299.503V284.868C299.215 285.38 298.783 285.807 298.207 286.148C297.641 286.479 296.98 286.644 296.223 286.644C295.444 286.644 294.74 286.452 294.111 286.068C293.481 285.684 292.985 285.145 292.623 284.452C292.26 283.759 292.079 282.969 292.079 282.084ZM299.503 282.1C299.503 281.439 299.369 280.863 299.103 280.372C298.836 279.881 298.473 279.508 298.015 279.252C297.567 278.985 297.071 278.852 296.527 278.852C295.983 278.852 295.487 278.98 295.039 279.236C294.591 279.492 294.233 279.865 293.967 280.356C293.7 280.847 293.567 281.423 293.567 282.084C293.567 282.756 293.7 283.343 293.967 283.844C294.233 284.335 294.591 284.713 295.039 284.98C295.487 285.236 295.983 285.364 296.527 285.364C297.071 285.364 297.567 285.236 298.015 284.98C298.473 284.713 298.836 284.335 299.103 283.844C299.369 283.343 299.503 282.761 299.503 282.1ZM308.207 277.572C309.274 277.572 310.138 277.897 310.799 278.548C311.46 279.188 311.791 280.116 311.791 281.332V286.5H310.351V281.54C310.351 280.665 310.132 279.999 309.695 279.54C309.258 279.071 308.66 278.836 307.903 278.836C307.135 278.836 306.522 279.076 306.063 279.556C305.615 280.036 305.391 280.735 305.391 281.652V286.5H303.935V277.732H305.391V278.98C305.679 278.532 306.068 278.185 306.559 277.94C307.06 277.695 307.61 277.572 308.207 277.572ZM314.126 282.084C314.126 281.188 314.307 280.404 314.67 279.732C315.032 279.049 315.528 278.521 316.158 278.148C316.798 277.775 317.507 277.588 318.286 277.588C319.054 277.588 319.72 277.753 320.286 278.084C320.851 278.415 321.272 278.831 321.55 279.332V277.732H323.022V286.5H321.55V284.868C321.262 285.38 320.83 285.807 320.254 286.148C319.688 286.479 319.027 286.644 318.27 286.644C317.491 286.644 316.787 286.452 316.158 286.068C315.528 285.684 315.032 285.145 314.67 284.452C314.307 283.759 314.126 282.969 314.126 282.084ZM321.55 282.1C321.55 281.439 321.416 280.863 321.15 280.372C320.883 279.881 320.52 279.508 320.062 279.252C319.614 278.985 319.118 278.852 318.574 278.852C318.03 278.852 317.534 278.98 317.086 279.236C316.638 279.492 316.28 279.865 316.014 280.356C315.747 280.847 315.614 281.423 315.614 282.084C315.614 282.756 315.747 283.343 316.014 283.844C316.28 284.335 316.638 284.713 317.086 284.98C317.534 285.236 318.03 285.364 318.574 285.364C319.118 285.364 319.614 285.236 320.062 284.98C320.52 284.713 320.883 284.335 321.15 283.844C321.416 283.343 321.55 282.761 321.55 282.1ZM329.598 277.588C330.355 277.588 331.017 277.753 331.582 278.084C332.158 278.415 332.585 278.831 332.862 279.332V277.732H334.334V286.692C334.334 287.492 334.163 288.201 333.822 288.82C333.481 289.449 332.99 289.94 332.35 290.292C331.721 290.644 330.985 290.82 330.142 290.82C328.99 290.82 328.03 290.548 327.262 290.004C326.494 289.46 326.041 288.719 325.902 287.78H327.342C327.502 288.313 327.833 288.74 328.334 289.06C328.835 289.391 329.438 289.556 330.142 289.556C330.942 289.556 331.593 289.305 332.094 288.804C332.606 288.303 332.862 287.599 332.862 286.692V284.852C332.574 285.364 332.147 285.791 331.582 286.132C331.017 286.473 330.355 286.644 329.598 286.644C328.819 286.644 328.11 286.452 327.47 286.068C326.841 285.684 326.345 285.145 325.982 284.452C325.619 283.759 325.438 282.969 325.438 282.084C325.438 281.188 325.619 280.404 325.982 279.732C326.345 279.049 326.841 278.521 327.47 278.148C328.11 277.775 328.819 277.588 329.598 277.588ZM332.862 282.1C332.862 281.439 332.729 280.863 332.462 280.372C332.195 279.881 331.833 279.508 331.374 279.252C330.926 278.985 330.43 278.852 329.886 278.852C329.342 278.852 328.846 278.98 328.398 279.236C327.95 279.492 327.593 279.865 327.326 280.356C327.059 280.847 326.926 281.423 326.926 282.084C326.926 282.756 327.059 283.343 327.326 283.844C327.593 284.335 327.95 284.713 328.398 284.98C328.846 285.236 329.342 285.364 329.886 285.364C330.43 285.364 330.926 285.236 331.374 284.98C331.833 284.713 332.195 284.335 332.462 283.844C332.729 283.343 332.862 282.761 332.862 282.1ZM345.295 281.78C345.295 282.057 345.279 282.351 345.247 282.66H338.239C338.292 283.524 338.585 284.201 339.119 284.692C339.663 285.172 340.319 285.412 341.087 285.412C341.716 285.412 342.239 285.268 342.655 284.98C343.081 284.681 343.38 284.287 343.551 283.796H345.119C344.884 284.639 344.415 285.327 343.711 285.86C343.007 286.383 342.132 286.644 341.087 286.644C340.255 286.644 339.508 286.457 338.847 286.084C338.196 285.711 337.684 285.183 337.311 284.5C336.937 283.807 336.751 283.007 336.751 282.1C336.751 281.193 336.932 280.399 337.295 279.716C337.657 279.033 338.164 278.511 338.815 278.148C339.476 277.775 340.233 277.588 341.087 277.588C341.919 277.588 342.655 277.769 343.295 278.132C343.935 278.495 344.425 278.996 344.767 279.636C345.119 280.265 345.295 280.98 345.295 281.78ZM343.791 281.476C343.791 280.921 343.668 280.447 343.423 280.052C343.177 279.647 342.841 279.343 342.415 279.14C341.999 278.927 341.535 278.82 341.023 278.82C340.287 278.82 339.657 279.055 339.135 279.524C338.623 279.993 338.329 280.644 338.255 281.476H343.791ZM358.26 277.572C358.943 277.572 359.551 277.716 360.084 278.004C360.618 278.281 361.039 278.703 361.348 279.268C361.658 279.833 361.812 280.521 361.812 281.332V286.5H360.372V281.54C360.372 280.665 360.154 279.999 359.716 279.54C359.29 279.071 358.708 278.836 357.972 278.836C357.215 278.836 356.612 279.081 356.164 279.572C355.716 280.052 355.492 280.751 355.492 281.668V286.5H354.052V281.54C354.052 280.665 353.834 279.999 353.396 279.54C352.97 279.071 352.388 278.836 351.652 278.836C350.895 278.836 350.292 279.081 349.844 279.572C349.396 280.052 349.172 280.751 349.172 281.668V286.5H347.716V277.732H349.172V278.996C349.46 278.537 349.844 278.185 350.324 277.94C350.815 277.695 351.354 277.572 351.94 277.572C352.676 277.572 353.327 277.737 353.892 278.068C354.458 278.399 354.879 278.884 355.156 279.524C355.402 278.905 355.807 278.425 356.372 278.084C356.938 277.743 357.567 277.572 358.26 277.572ZM372.701 281.78C372.701 282.057 372.685 282.351 372.653 282.66H365.645C365.698 283.524 365.991 284.201 366.525 284.692C367.069 285.172 367.725 285.412 368.493 285.412C369.122 285.412 369.645 285.268 370.061 284.98C370.487 284.681 370.786 284.287 370.957 283.796H372.525C372.29 284.639 371.821 285.327 371.117 285.86C370.413 286.383 369.538 286.644 368.493 286.644C367.661 286.644 366.914 286.457 366.253 286.084C365.602 285.711 365.09 285.183 364.717 284.5C364.343 283.807 364.157 283.007 364.157 282.1C364.157 281.193 364.338 280.399 364.701 279.716C365.063 279.033 365.57 278.511 366.221 278.148C366.882 277.775 367.639 277.588 368.493 277.588C369.325 277.588 370.061 277.769 370.701 278.132C371.341 278.495 371.831 278.996 372.173 279.636C372.525 280.265 372.701 280.98 372.701 281.78ZM371.197 281.476C371.197 280.921 371.074 280.447 370.829 280.052C370.583 279.647 370.247 279.343 369.821 279.14C369.405 278.927 368.941 278.82 368.429 278.82C367.693 278.82 367.063 279.055 366.541 279.524C366.029 279.993 365.735 280.644 365.661 281.476H371.197ZM379.395 277.572C380.461 277.572 381.325 277.897 381.987 278.548C382.648 279.188 382.979 280.116 382.979 281.332V286.5H381.539V281.54C381.539 280.665 381.32 279.999 380.883 279.54C380.445 279.071 379.848 278.836 379.091 278.836C378.323 278.836 377.709 279.076 377.251 279.556C376.803 280.036 376.579 280.735 376.579 281.652V286.5H375.123V277.732H376.579V278.98C376.867 278.532 377.256 278.185 377.747 277.94C378.248 277.695 378.797 277.572 379.395 277.572ZM387.633 278.932V284.1C387.633 284.527 387.724 284.831 387.905 285.012C388.086 285.183 388.401 285.268 388.849 285.268H389.921V286.5H388.609C387.798 286.5 387.19 286.313 386.785 285.94C386.38 285.567 386.177 284.953 386.177 284.1V278.932H385.041V277.732H386.177V275.524H387.633V277.732H389.921V278.932H387.633Z" fill="white"/>
<path d="M158.5 281H201" stroke="url(#paint23_linear_1236_6745)" stroke-miterlimit="10"/>
<path d="M156 274.5C152.933 274.5 150.5 276.933 150.5 280C150.5 283.067 152.933 285.5 156 285.5C159.067 285.5 161.5 283.067 161.5 280C161.5 276.933 159.067 274.5 156 274.5Z" fill="url(#paint24_linear_1236_6745)" stroke="url(#paint25_linear_1236_6745)"/>
<path d="M219.5 280C219.5 289.665 211.665 297.5 202 297.5C192.335 297.5 184.5 289.665 184.5 280C184.5 270.335 192.335 262.5 202 262.5C211.665 262.5 219.5 270.335 219.5 280Z" fill="url(#paint26_linear_1236_6745)" stroke="url(#paint27_linear_1236_6745)"/>
<rect x="191.5" y="337.5" width="239" height="47" rx="23.5" fill="url(#paint28_linear_1236_6745)"/>
<rect x="191.5" y="337.5" width="239" height="47" rx="23.5" stroke="url(#paint29_linear_1236_6745)"/>
<path d="M221.816 361.756C222.221 361.82 222.589 361.985 222.92 362.252C223.261 362.519 223.528 362.849 223.72 363.244C223.923 363.639 224.024 364.06 224.024 364.508C224.024 365.073 223.88 365.585 223.592 366.044C223.304 366.492 222.883 366.849 222.328 367.116C221.784 367.372 221.139 367.5 220.392 367.5H216.232V356.348H220.232C220.989 356.348 221.635 356.476 222.168 356.732C222.701 356.977 223.101 357.313 223.368 357.74C223.635 358.167 223.768 358.647 223.768 359.18C223.768 359.841 223.587 360.391 223.224 360.828C222.872 361.255 222.403 361.564 221.816 361.756ZM217.688 361.164H220.136C220.819 361.164 221.347 361.004 221.72 360.684C222.093 360.364 222.28 359.921 222.28 359.356C222.28 358.791 222.093 358.348 221.72 358.028C221.347 357.708 220.808 357.548 220.104 357.548H217.688V361.164ZM220.264 366.3C220.989 366.3 221.555 366.129 221.96 365.788C222.365 365.447 222.568 364.972 222.568 364.364C222.568 363.745 222.355 363.26 221.928 362.908C221.501 362.545 220.931 362.364 220.216 362.364H217.688V366.3H220.264ZM226.001 363.084C226.001 362.188 226.182 361.404 226.545 360.732C226.907 360.049 227.403 359.521 228.033 359.148C228.673 358.775 229.382 358.588 230.161 358.588C230.929 358.588 231.595 358.753 232.161 359.084C232.726 359.415 233.147 359.831 233.425 360.332V358.732H234.897V367.5H233.425V365.868C233.137 366.38 232.705 366.807 232.129 367.148C231.563 367.479 230.902 367.644 230.145 367.644C229.366 367.644 228.662 367.452 228.033 367.068C227.403 366.684 226.907 366.145 226.545 365.452C226.182 364.759 226.001 363.969 226.001 363.084ZM233.425 363.1C233.425 362.439 233.291 361.863 233.025 361.372C232.758 360.881 232.395 360.508 231.937 360.252C231.489 359.985 230.993 359.852 230.449 359.852C229.905 359.852 229.409 359.98 228.961 360.236C228.513 360.492 228.155 360.865 227.889 361.356C227.622 361.847 227.489 362.423 227.489 363.084C227.489 363.756 227.622 364.343 227.889 364.844C228.155 365.335 228.513 365.713 228.961 365.98C229.409 366.236 229.905 366.364 230.449 366.364C230.993 366.364 231.489 366.236 231.937 365.98C232.395 365.713 232.758 365.335 233.025 364.844C233.291 364.343 233.425 363.761 233.425 363.1ZM242.129 358.572C243.196 358.572 244.06 358.897 244.721 359.548C245.382 360.188 245.713 361.116 245.713 362.332V367.5H244.273V362.54C244.273 361.665 244.054 360.999 243.617 360.54C243.18 360.071 242.582 359.836 241.825 359.836C241.057 359.836 240.444 360.076 239.985 360.556C239.537 361.036 239.313 361.735 239.313 362.652V367.5H237.857V358.732H239.313V359.98C239.601 359.532 239.99 359.185 240.481 358.94C240.982 358.695 241.532 358.572 242.129 358.572ZM253.487 367.5L250.047 363.628V367.5H248.591V355.66H250.047V362.62L253.423 358.732H255.455L251.327 363.1L255.471 367.5H253.487ZM258.078 357.308C257.8 357.308 257.566 357.212 257.374 357.02C257.182 356.828 257.086 356.593 257.086 356.316C257.086 356.039 257.182 355.804 257.374 355.612C257.566 355.42 257.8 355.324 258.078 355.324C258.344 355.324 258.568 355.42 258.75 355.612C258.942 355.804 259.038 356.039 259.038 356.316C259.038 356.593 258.942 356.828 258.75 357.02C258.568 357.212 258.344 357.308 258.078 357.308ZM258.782 358.732V367.5H257.326V358.732H258.782ZM266.035 358.572C267.102 358.572 267.966 358.897 268.627 359.548C269.289 360.188 269.619 361.116 269.619 362.332V367.5H268.179V362.54C268.179 361.665 267.961 360.999 267.523 360.54C267.086 360.071 266.489 359.836 265.731 359.836C264.963 359.836 264.35 360.076 263.891 360.556C263.443 361.036 263.219 361.735 263.219 362.652V367.5H261.763V358.732H263.219V359.98C263.507 359.532 263.897 359.185 264.387 358.94C264.889 358.695 265.438 358.572 266.035 358.572ZM276.114 358.588C276.871 358.588 277.532 358.753 278.098 359.084C278.674 359.415 279.1 359.831 279.378 360.332V358.732H280.85V367.692C280.85 368.492 280.679 369.201 280.338 369.82C279.996 370.449 279.506 370.94 278.866 371.292C278.236 371.644 277.5 371.82 276.658 371.82C275.506 371.82 274.546 371.548 273.778 371.004C273.01 370.46 272.556 369.719 272.418 368.78H273.858C274.018 369.313 274.348 369.74 274.85 370.06C275.351 370.391 275.954 370.556 276.658 370.556C277.458 370.556 278.108 370.305 278.61 369.804C279.122 369.303 279.378 368.599 279.378 367.692V365.852C279.09 366.364 278.663 366.791 278.098 367.132C277.532 367.473 276.871 367.644 276.114 367.644C275.335 367.644 274.626 367.452 273.986 367.068C273.356 366.684 272.86 366.145 272.498 365.452C272.135 364.759 271.954 363.969 271.954 363.084C271.954 362.188 272.135 361.404 272.498 360.732C272.86 360.049 273.356 359.521 273.986 359.148C274.626 358.775 275.335 358.588 276.114 358.588ZM279.378 363.1C279.378 362.439 279.244 361.863 278.978 361.372C278.711 360.881 278.348 360.508 277.89 360.252C277.442 359.985 276.946 359.852 276.402 359.852C275.858 359.852 275.362 359.98 274.914 360.236C274.466 360.492 274.108 360.865 273.842 361.356C273.575 361.847 273.442 362.423 273.442 363.084C273.442 363.756 273.575 364.343 273.842 364.844C274.108 365.335 274.466 365.713 274.914 365.98C275.362 366.236 275.858 366.364 276.402 366.364C276.946 366.364 277.442 366.236 277.89 365.98C278.348 365.713 278.711 365.335 278.978 364.844C279.244 364.343 279.378 363.761 279.378 363.1ZM288.032 361.916C288.032 360.828 288.277 359.852 288.768 358.988C289.258 358.113 289.925 357.431 290.768 356.94C291.621 356.449 292.565 356.204 293.6 356.204C294.816 356.204 295.877 356.497 296.784 357.084C297.69 357.671 298.352 358.503 298.768 359.58H297.024C296.714 358.908 296.266 358.391 295.68 358.028C295.104 357.665 294.41 357.484 293.6 357.484C292.821 357.484 292.122 357.665 291.504 358.028C290.885 358.391 290.4 358.908 290.048 359.58C289.696 360.241 289.52 361.02 289.52 361.916C289.52 362.801 289.696 363.58 290.048 364.252C290.4 364.913 290.885 365.425 291.504 365.788C292.122 366.151 292.821 366.332 293.6 366.332C294.41 366.332 295.104 366.156 295.68 365.804C296.266 365.441 296.714 364.924 297.024 364.252H298.768C298.352 365.319 297.69 366.145 296.784 366.732C295.877 367.308 294.816 367.596 293.6 367.596C292.565 367.596 291.621 367.356 290.768 366.876C289.925 366.385 289.258 365.708 288.768 364.844C288.277 363.98 288.032 363.004 288.032 361.916ZM305.259 367.644C304.438 367.644 303.691 367.457 303.019 367.084C302.358 366.711 301.835 366.183 301.451 365.5C301.078 364.807 300.891 364.007 300.891 363.1C300.891 362.204 301.083 361.415 301.467 360.732C301.862 360.039 302.395 359.511 303.067 359.148C303.739 358.775 304.491 358.588 305.323 358.588C306.155 358.588 306.907 358.775 307.579 359.148C308.251 359.511 308.779 360.033 309.163 360.716C309.558 361.399 309.755 362.193 309.755 363.1C309.755 364.007 309.552 364.807 309.147 365.5C308.752 366.183 308.214 366.711 307.531 367.084C306.848 367.457 306.091 367.644 305.259 367.644ZM305.259 366.364C305.782 366.364 306.272 366.241 306.731 365.996C307.19 365.751 307.558 365.383 307.835 364.892C308.123 364.401 308.267 363.804 308.267 363.1C308.267 362.396 308.128 361.799 307.851 361.308C307.574 360.817 307.211 360.455 306.763 360.22C306.315 359.975 305.83 359.852 305.307 359.852C304.774 359.852 304.283 359.975 303.835 360.22C303.398 360.455 303.046 360.817 302.779 361.308C302.512 361.799 302.379 362.396 302.379 363.1C302.379 363.815 302.507 364.417 302.763 364.908C303.03 365.399 303.382 365.767 303.819 366.012C304.256 366.247 304.736 366.364 305.259 366.364ZM316.442 358.572C317.508 358.572 318.372 358.897 319.034 359.548C319.695 360.188 320.026 361.116 320.026 362.332V367.5H318.586V362.54C318.586 361.665 318.367 360.999 317.93 360.54C317.492 360.071 316.895 359.836 316.138 359.836C315.37 359.836 314.756 360.076 314.298 360.556C313.85 361.036 313.626 361.735 313.626 362.652V367.5H312.17V358.732H313.626V359.98C313.914 359.532 314.303 359.185 314.794 358.94C315.295 358.695 315.844 358.572 316.442 358.572ZM326.008 367.644C325.336 367.644 324.733 367.532 324.2 367.308C323.667 367.073 323.245 366.753 322.936 366.348C322.627 365.932 322.456 365.457 322.424 364.924H323.928C323.971 365.361 324.173 365.719 324.536 365.996C324.909 366.273 325.395 366.412 325.992 366.412C326.547 366.412 326.984 366.289 327.304 366.044C327.624 365.799 327.784 365.489 327.784 365.116C327.784 364.732 327.613 364.449 327.272 364.268C326.931 364.076 326.403 363.889 325.688 363.708C325.037 363.537 324.504 363.367 324.088 363.196C323.683 363.015 323.331 362.753 323.032 362.412C322.744 362.06 322.6 361.601 322.6 361.036C322.6 360.588 322.733 360.177 323 359.804C323.267 359.431 323.645 359.137 324.136 358.924C324.627 358.7 325.187 358.588 325.816 358.588C326.787 358.588 327.571 358.833 328.168 359.324C328.765 359.815 329.085 360.487 329.128 361.34H327.672C327.64 360.881 327.453 360.513 327.112 360.236C326.781 359.959 326.333 359.82 325.768 359.82C325.245 359.82 324.829 359.932 324.52 360.156C324.211 360.38 324.056 360.673 324.056 361.036C324.056 361.324 324.147 361.564 324.328 361.756C324.52 361.937 324.755 362.087 325.032 362.204C325.32 362.311 325.715 362.433 326.216 362.572C326.845 362.743 327.357 362.913 327.752 363.084C328.147 363.244 328.483 363.489 328.76 363.82C329.048 364.151 329.197 364.583 329.208 365.116C329.208 365.596 329.075 366.028 328.808 366.412C328.541 366.796 328.163 367.1 327.672 367.324C327.192 367.537 326.637 367.644 326.008 367.644ZM335.587 367.644C334.766 367.644 334.019 367.457 333.347 367.084C332.686 366.711 332.163 366.183 331.779 365.5C331.406 364.807 331.219 364.007 331.219 363.1C331.219 362.204 331.411 361.415 331.795 360.732C332.19 360.039 332.723 359.511 333.395 359.148C334.067 358.775 334.819 358.588 335.651 358.588C336.483 358.588 337.235 358.775 337.907 359.148C338.579 359.511 339.107 360.033 339.491 360.716C339.886 361.399 340.083 362.193 340.083 363.1C340.083 364.007 339.881 364.807 339.475 365.5C339.081 366.183 338.542 366.711 337.859 367.084C337.177 367.457 336.419 367.644 335.587 367.644ZM335.587 366.364C336.11 366.364 336.601 366.241 337.059 365.996C337.518 365.751 337.886 365.383 338.163 364.892C338.451 364.401 338.595 363.804 338.595 363.1C338.595 362.396 338.457 361.799 338.179 361.308C337.902 360.817 337.539 360.455 337.091 360.22C336.643 359.975 336.158 359.852 335.635 359.852C335.102 359.852 334.611 359.975 334.163 360.22C333.726 360.455 333.374 360.817 333.107 361.308C332.841 361.799 332.707 362.396 332.707 363.1C332.707 363.815 332.835 364.417 333.091 364.908C333.358 365.399 333.71 365.767 334.147 366.012C334.585 366.247 335.065 366.364 335.587 366.364ZM343.954 355.66V367.5H342.498V355.66H343.954ZM347.687 357.308C347.41 357.308 347.175 357.212 346.983 357.02C346.791 356.828 346.695 356.593 346.695 356.316C346.695 356.039 346.791 355.804 346.983 355.612C347.175 355.42 347.41 355.324 347.687 355.324C347.954 355.324 348.178 355.42 348.359 355.612C348.551 355.804 348.647 356.039 348.647 356.316C348.647 356.593 348.551 356.828 348.359 357.02C348.178 357.212 347.954 357.308 347.687 357.308ZM348.391 358.732V367.5H346.935V358.732H348.391ZM350.829 363.084C350.829 362.188 351.01 361.404 351.373 360.732C351.735 360.049 352.231 359.521 352.861 359.148C353.501 358.775 354.215 358.588 355.005 358.588C355.687 358.588 356.322 358.748 356.909 359.068C357.495 359.377 357.943 359.788 358.253 360.3V355.66H359.725V367.5H358.253V365.852C357.965 366.375 357.538 366.807 356.973 367.148C356.407 367.479 355.746 367.644 354.989 367.644C354.21 367.644 353.501 367.452 352.861 367.068C352.231 366.684 351.735 366.145 351.373 365.452C351.01 364.759 350.829 363.969 350.829 363.084ZM358.253 363.1C358.253 362.439 358.119 361.863 357.853 361.372C357.586 360.881 357.223 360.508 356.765 360.252C356.317 359.985 355.821 359.852 355.277 359.852C354.733 359.852 354.237 359.98 353.789 360.236C353.341 360.492 352.983 360.865 352.717 361.356C352.45 361.847 352.317 362.423 352.317 363.084C352.317 363.756 352.45 364.343 352.717 364.844C352.983 365.335 353.341 365.713 353.789 365.98C354.237 366.236 354.733 366.364 355.277 366.364C355.821 366.364 356.317 366.236 356.765 365.98C357.223 365.713 357.586 365.335 357.853 364.844C358.119 364.343 358.253 363.761 358.253 363.1ZM362.141 363.084C362.141 362.188 362.322 361.404 362.685 360.732C363.048 360.049 363.544 359.521 364.173 359.148C364.813 358.775 365.522 358.588 366.301 358.588C367.069 358.588 367.736 358.753 368.301 359.084C368.866 359.415 369.288 359.831 369.565 360.332V358.732H371.037V367.5H369.565V365.868C369.277 366.38 368.845 366.807 368.269 367.148C367.704 367.479 367.042 367.644 366.285 367.644C365.506 367.644 364.802 367.452 364.173 367.068C363.544 366.684 363.048 366.145 362.685 365.452C362.322 364.759 362.141 363.969 362.141 363.084ZM369.565 363.1C369.565 362.439 369.432 361.863 369.165 361.372C368.898 360.881 368.536 360.508 368.077 360.252C367.629 359.985 367.133 359.852 366.589 359.852C366.045 359.852 365.549 359.98 365.101 360.236C364.653 360.492 364.296 360.865 364.029 361.356C363.762 361.847 363.629 362.423 363.629 363.084C363.629 363.756 363.762 364.343 364.029 364.844C364.296 365.335 364.653 365.713 365.101 365.98C365.549 366.236 366.045 366.364 366.589 366.364C367.133 366.364 367.629 366.236 368.077 365.98C368.536 365.713 368.898 365.335 369.165 364.844C369.432 364.343 369.565 363.761 369.565 363.1ZM375.774 359.932V365.1C375.774 365.527 375.864 365.831 376.046 366.012C376.227 366.183 376.542 366.268 376.99 366.268H378.062V367.5H376.75C375.939 367.5 375.331 367.313 374.926 366.94C374.52 366.567 374.318 365.953 374.318 365.1V359.932H373.182V358.732H374.318V356.524H375.774V358.732H378.062V359.932H375.774ZM381.078 357.308C380.8 357.308 380.566 357.212 380.374 357.02C380.182 356.828 380.086 356.593 380.086 356.316C380.086 356.039 380.182 355.804 380.374 355.612C380.566 355.42 380.8 355.324 381.078 355.324C381.344 355.324 381.568 355.42 381.75 355.612C381.942 355.804 382.038 356.039 382.038 356.316C382.038 356.593 381.942 356.828 381.75 357.02C381.568 357.212 381.344 357.308 381.078 357.308ZM381.782 358.732V367.5H380.326V358.732H381.782ZM388.587 367.644C387.766 367.644 387.019 367.457 386.347 367.084C385.686 366.711 385.163 366.183 384.779 365.5C384.406 364.807 384.219 364.007 384.219 363.1C384.219 362.204 384.411 361.415 384.795 360.732C385.19 360.039 385.723 359.511 386.395 359.148C387.067 358.775 387.819 358.588 388.651 358.588C389.483 358.588 390.235 358.775 390.907 359.148C391.579 359.511 392.107 360.033 392.491 360.716C392.886 361.399 393.083 362.193 393.083 363.1C393.083 364.007 392.881 364.807 392.475 365.5C392.081 366.183 391.542 366.711 390.859 367.084C390.177 367.457 389.419 367.644 388.587 367.644ZM388.587 366.364C389.11 366.364 389.601 366.241 390.059 365.996C390.518 365.751 390.886 365.383 391.163 364.892C391.451 364.401 391.595 363.804 391.595 363.1C391.595 362.396 391.457 361.799 391.179 361.308C390.902 360.817 390.539 360.455 390.091 360.22C389.643 359.975 389.158 359.852 388.635 359.852C388.102 359.852 387.611 359.975 387.163 360.22C386.726 360.455 386.374 360.817 386.107 361.308C385.841 361.799 385.707 362.396 385.707 363.1C385.707 363.815 385.835 364.417 386.091 364.908C386.358 365.399 386.71 365.767 387.147 366.012C387.585 366.247 388.065 366.364 388.587 366.364ZM399.77 358.572C400.836 358.572 401.7 358.897 402.362 359.548C403.023 360.188 403.354 361.116 403.354 362.332V367.5H401.914V362.54C401.914 361.665 401.695 360.999 401.258 360.54C400.82 360.071 400.223 359.836 399.466 359.836C398.698 359.836 398.084 360.076 397.626 360.556C397.178 361.036 396.954 361.735 396.954 362.652V367.5H395.498V358.732H396.954V359.98C397.242 359.532 397.631 359.185 398.122 358.94C398.623 358.695 399.172 358.572 399.77 358.572Z" fill="white"/>
<path d="M142.917 344.169L190 362" stroke="url(#paint30_linear_1236_6745)" stroke-miterlimit="10"/>
<path d="M143 338.5C139.933 338.5 137.5 340.933 137.5 344C137.5 347.067 139.933 349.5 143 349.5C146.067 349.5 148.5 347.067 148.5 344C148.5 340.933 146.067 338.5 143 338.5Z" fill="url(#paint31_linear_1236_6745)" stroke="url(#paint32_linear_1236_6745)"/>
<path d="M203.5 361C203.5 370.665 195.665 378.5 186 378.5C176.335 378.5 168.5 370.665 168.5 361C168.5 351.335 176.335 343.5 186 343.5C195.665 343.5 203.5 351.335 203.5 361Z" fill="url(#paint33_linear_1236_6745)" stroke="url(#paint34_linear_1236_6745)"/>
<rect x="130.5" y="418.5" width="239" height="47" rx="23.5" fill="url(#paint35_linear_1236_6745)"/>
<rect x="130.5" y="418.5" width="239" height="47" rx="23.5" stroke="url(#paint36_linear_1236_6745)"/>
<path d="M156.688 437.348V448.5H155.232V437.348H156.688ZM163.942 439.572C165.008 439.572 165.872 439.897 166.534 440.548C167.195 441.188 167.526 442.116 167.526 443.332V448.5H166.086V443.54C166.086 442.665 165.867 441.999 165.43 441.54C164.992 441.071 164.395 440.836 163.638 440.836C162.87 440.836 162.256 441.076 161.798 441.556C161.35 442.036 161.126 442.735 161.126 443.652V448.5H159.67V439.732H161.126V440.98C161.414 440.532 161.803 440.185 162.294 439.94C162.795 439.695 163.344 439.572 163.942 439.572ZM172.18 440.932V446.1C172.18 446.527 172.271 446.831 172.452 447.012C172.633 447.183 172.948 447.268 173.396 447.268H174.468V448.5H173.156C172.345 448.5 171.737 448.313 171.332 447.94C170.927 447.567 170.724 446.953 170.724 446.1V440.932H169.588V439.732H170.724V437.524H172.18V439.732H174.468V440.932H172.18ZM184.732 443.78C184.732 444.057 184.716 444.351 184.684 444.66H177.676C177.729 445.524 178.023 446.201 178.556 446.692C179.1 447.172 179.756 447.412 180.524 447.412C181.153 447.412 181.676 447.268 182.092 446.98C182.519 446.681 182.817 446.287 182.988 445.796H184.556C184.321 446.639 183.852 447.327 183.148 447.86C182.444 448.383 181.569 448.644 180.524 448.644C179.692 448.644 178.945 448.457 178.284 448.084C177.633 447.711 177.121 447.183 176.748 446.5C176.375 445.807 176.188 445.007 176.188 444.1C176.188 443.193 176.369 442.399 176.732 441.716C177.095 441.033 177.601 440.511 178.252 440.148C178.913 439.775 179.671 439.588 180.524 439.588C181.356 439.588 182.092 439.769 182.732 440.132C183.372 440.495 183.863 440.996 184.204 441.636C184.556 442.265 184.732 442.98 184.732 443.78ZM183.228 443.476C183.228 442.921 183.105 442.447 182.86 442.052C182.615 441.647 182.279 441.343 181.852 441.14C181.436 440.927 180.972 440.82 180.46 440.82C179.724 440.82 179.095 441.055 178.572 441.524C178.06 441.993 177.767 442.644 177.692 443.476H183.228ZM190.77 439.588C191.527 439.588 192.189 439.753 192.754 440.084C193.33 440.415 193.757 440.831 194.034 441.332V439.732H195.506V448.692C195.506 449.492 195.335 450.201 194.994 450.82C194.653 451.449 194.162 451.94 193.522 452.292C192.893 452.644 192.157 452.82 191.314 452.82C190.162 452.82 189.202 452.548 188.434 452.004C187.666 451.46 187.213 450.719 187.074 449.78H188.514C188.674 450.313 189.005 450.74 189.506 451.06C190.007 451.391 190.61 451.556 191.314 451.556C192.114 451.556 192.765 451.305 193.266 450.804C193.778 450.303 194.034 449.599 194.034 448.692V446.852C193.746 447.364 193.319 447.791 192.754 448.132C192.189 448.473 191.527 448.644 190.77 448.644C189.991 448.644 189.282 448.452 188.642 448.068C188.013 447.684 187.517 447.145 187.154 446.452C186.791 445.759 186.61 444.969 186.61 444.084C186.61 443.188 186.791 442.404 187.154 441.732C187.517 441.049 188.013 440.521 188.642 440.148C189.282 439.775 189.991 439.588 190.77 439.588ZM194.034 444.1C194.034 443.439 193.901 442.863 193.634 442.372C193.367 441.881 193.005 441.508 192.546 441.252C192.098 440.985 191.602 440.852 191.058 440.852C190.514 440.852 190.018 440.98 189.57 441.236C189.122 441.492 188.765 441.865 188.498 442.356C188.231 442.847 188.098 443.423 188.098 444.084C188.098 444.756 188.231 445.343 188.498 445.844C188.765 446.335 189.122 446.713 189.57 446.98C190.018 447.236 190.514 447.364 191.058 447.364C191.602 447.364 192.098 447.236 192.546 446.98C193.005 446.713 193.367 446.335 193.634 445.844C193.901 445.343 194.034 444.761 194.034 444.1ZM199.922 441.156C200.178 440.655 200.541 440.265 201.01 439.988C201.49 439.711 202.072 439.572 202.754 439.572V441.076H202.37C200.738 441.076 199.922 441.961 199.922 443.732V448.5H198.466V439.732H199.922V441.156ZM204.391 444.084C204.391 443.188 204.572 442.404 204.935 441.732C205.298 441.049 205.794 440.521 206.423 440.148C207.063 439.775 207.772 439.588 208.551 439.588C209.319 439.588 209.986 439.753 210.551 440.084C211.116 440.415 211.538 440.831 211.815 441.332V439.732H213.287V448.5H211.815V446.868C211.527 447.38 211.095 447.807 210.519 448.148C209.954 448.479 209.292 448.644 208.535 448.644C207.756 448.644 207.052 448.452 206.423 448.068C205.794 447.684 205.298 447.145 204.935 446.452C204.572 445.759 204.391 444.969 204.391 444.084ZM211.815 444.1C211.815 443.439 211.682 442.863 211.415 442.372C211.148 441.881 210.786 441.508 210.327 441.252C209.879 440.985 209.383 440.852 208.839 440.852C208.295 440.852 207.799 440.98 207.351 441.236C206.903 441.492 206.546 441.865 206.279 442.356C206.012 442.847 205.879 443.423 205.879 444.084C205.879 444.756 206.012 445.343 206.279 445.844C206.546 446.335 206.903 446.713 207.351 446.98C207.799 447.236 208.295 447.364 208.839 447.364C209.383 447.364 209.879 447.236 210.327 446.98C210.786 446.713 211.148 446.335 211.415 445.844C211.682 445.343 211.815 444.761 211.815 444.1ZM218.024 440.932V446.1C218.024 446.527 218.114 446.831 218.296 447.012C218.477 447.183 218.792 447.268 219.24 447.268H220.312V448.5H219C218.189 448.5 217.581 448.313 217.176 447.94C216.77 447.567 216.568 446.953 216.568 446.1V440.932H215.432V439.732H216.568V437.524H218.024V439.732H220.312V440.932H218.024ZM230.576 443.78C230.576 444.057 230.56 444.351 230.528 444.66H223.52C223.573 445.524 223.866 446.201 224.4 446.692C224.944 447.172 225.6 447.412 226.368 447.412C226.997 447.412 227.52 447.268 227.936 446.98C228.362 446.681 228.661 446.287 228.832 445.796H230.4C230.165 446.639 229.696 447.327 228.992 447.86C228.288 448.383 227.413 448.644 226.368 448.644C225.536 448.644 224.789 448.457 224.128 448.084C223.477 447.711 222.965 447.183 222.592 446.5C222.218 445.807 222.032 445.007 222.032 444.1C222.032 443.193 222.213 442.399 222.576 441.716C222.938 441.033 223.445 440.511 224.096 440.148C224.757 439.775 225.514 439.588 226.368 439.588C227.2 439.588 227.936 439.769 228.576 440.132C229.216 440.495 229.706 440.996 230.048 441.636C230.4 442.265 230.576 442.98 230.576 443.78ZM229.072 443.476C229.072 442.921 228.949 442.447 228.704 442.052C228.458 441.647 228.122 441.343 227.696 441.14C227.28 440.927 226.816 440.82 226.304 440.82C225.568 440.82 224.938 441.055 224.416 441.524C223.904 441.993 223.61 442.644 223.536 443.476H229.072ZM232.454 444.084C232.454 443.188 232.635 442.404 232.998 441.732C233.36 441.049 233.856 440.521 234.486 440.148C235.126 439.775 235.84 439.588 236.63 439.588C237.312 439.588 237.947 439.748 238.534 440.068C239.12 440.377 239.568 440.788 239.878 441.3V436.66H241.35V448.5H239.878V446.852C239.59 447.375 239.163 447.807 238.598 448.148C238.032 448.479 237.371 448.644 236.614 448.644C235.835 448.644 235.126 448.452 234.486 448.068C233.856 447.684 233.36 447.145 232.998 446.452C232.635 445.759 232.454 444.969 232.454 444.084ZM239.878 444.1C239.878 443.439 239.744 442.863 239.478 442.372C239.211 441.881 238.848 441.508 238.39 441.252C237.942 440.985 237.446 440.852 236.902 440.852C236.358 440.852 235.862 440.98 235.414 441.236C234.966 441.492 234.608 441.865 234.342 442.356C234.075 442.847 233.942 443.423 233.942 444.084C233.942 444.756 234.075 445.343 234.342 445.844C234.608 446.335 234.966 446.713 235.414 446.98C235.862 447.236 236.358 447.364 236.902 447.364C237.446 447.364 237.942 447.236 238.39 446.98C238.848 446.713 239.211 446.335 239.478 445.844C239.744 445.343 239.878 444.761 239.878 444.1ZM256.532 440.612C256.532 441.54 256.212 442.313 255.572 442.932C254.942 443.54 253.977 443.844 252.676 443.844H250.532V448.5H249.076V437.348H252.676C253.934 437.348 254.889 437.652 255.54 438.26C256.201 438.868 256.532 439.652 256.532 440.612ZM252.676 442.644C253.486 442.644 254.084 442.468 254.468 442.116C254.852 441.764 255.044 441.263 255.044 440.612C255.044 439.236 254.254 438.548 252.676 438.548H250.532V442.644H252.676ZM260.297 436.66V448.5H258.841V436.66H260.297ZM262.735 444.084C262.735 443.188 262.916 442.404 263.279 441.732C263.642 441.049 264.138 440.521 264.767 440.148C265.407 439.775 266.116 439.588 266.895 439.588C267.663 439.588 268.33 439.753 268.895 440.084C269.46 440.415 269.882 440.831 270.159 441.332V439.732H271.631V448.5H270.159V446.868C269.871 447.38 269.439 447.807 268.863 448.148C268.298 448.479 267.636 448.644 266.879 448.644C266.1 448.644 265.396 448.452 264.767 448.068C264.138 447.684 263.642 447.145 263.279 446.452C262.916 445.759 262.735 444.969 262.735 444.084ZM270.159 444.1C270.159 443.439 270.026 442.863 269.759 442.372C269.492 441.881 269.13 441.508 268.671 441.252C268.223 440.985 267.727 440.852 267.183 440.852C266.639 440.852 266.143 440.98 265.695 441.236C265.247 441.492 264.89 441.865 264.623 442.356C264.356 442.847 264.223 443.423 264.223 444.084C264.223 444.756 264.356 445.343 264.623 445.844C264.89 446.335 265.247 446.713 265.695 446.98C266.143 447.236 266.639 447.364 267.183 447.364C267.727 447.364 268.223 447.236 268.671 446.98C269.13 446.713 269.492 446.335 269.759 445.844C270.026 445.343 270.159 444.761 270.159 444.1ZM276.367 440.932V446.1C276.367 446.527 276.458 446.831 276.639 447.012C276.821 447.183 277.135 447.268 277.583 447.268H278.655V448.5H277.343C276.533 448.5 275.925 448.313 275.519 447.94C275.114 447.567 274.911 446.953 274.911 446.1V440.932H273.775V439.732H274.911V437.524H276.367V439.732H278.655V440.932H276.367ZM284.488 440.932H282.648V448.5H281.192V440.932H280.056V439.732H281.192V439.108C281.192 438.127 281.442 437.412 281.944 436.964C282.456 436.505 283.272 436.276 284.391 436.276V437.492C283.752 437.492 283.298 437.62 283.032 437.876C282.776 438.121 282.648 438.532 282.648 439.108V439.732H284.488V440.932ZM290.509 448.644C289.688 448.644 288.941 448.457 288.269 448.084C287.608 447.711 287.085 447.183 286.701 446.5C286.328 445.807 286.141 445.007 286.141 444.1C286.141 443.204 286.333 442.415 286.717 441.732C287.112 441.039 287.645 440.511 288.317 440.148C288.989 439.775 289.741 439.588 290.573 439.588C291.405 439.588 292.157 439.775 292.829 440.148C293.501 440.511 294.029 441.033 294.413 441.716C294.808 442.399 295.005 443.193 295.005 444.1C295.005 445.007 294.802 445.807 294.397 446.5C294.002 447.183 293.464 447.711 292.781 448.084C292.098 448.457 291.341 448.644 290.509 448.644ZM290.509 447.364C291.032 447.364 291.522 447.241 291.981 446.996C292.44 446.751 292.808 446.383 293.085 445.892C293.373 445.401 293.517 444.804 293.517 444.1C293.517 443.396 293.378 442.799 293.101 442.308C292.824 441.817 292.461 441.455 292.013 441.22C291.565 440.975 291.08 440.852 290.557 440.852C290.024 440.852 289.533 440.975 289.085 441.22C288.648 441.455 288.296 441.817 288.029 442.308C287.762 442.799 287.629 443.396 287.629 444.1C287.629 444.815 287.757 445.417 288.013 445.908C288.28 446.399 288.632 446.767 289.069 447.012C289.506 447.247 289.986 447.364 290.509 447.364ZM298.876 441.156C299.132 440.655 299.494 440.265 299.964 439.988C300.444 439.711 301.025 439.572 301.708 439.572V441.076H301.324C299.692 441.076 298.876 441.961 298.876 443.732V448.5H297.42V439.732H298.876V441.156ZM314.432 439.572C315.115 439.572 315.723 439.716 316.256 440.004C316.79 440.281 317.211 440.703 317.52 441.268C317.83 441.833 317.984 442.521 317.984 443.332V448.5H316.544V443.54C316.544 442.665 316.326 441.999 315.888 441.54C315.462 441.071 314.88 440.836 314.144 440.836C313.387 440.836 312.784 441.081 312.336 441.572C311.888 442.052 311.664 442.751 311.664 443.668V448.5H310.224V443.54C310.224 442.665 310.006 441.999 309.568 441.54C309.142 441.071 308.56 440.836 307.824 440.836C307.067 440.836 306.464 441.081 306.016 441.572C305.568 442.052 305.344 442.751 305.344 443.668V448.5H303.888V439.732H305.344V440.996C305.632 440.537 306.016 440.185 306.496 439.94C306.987 439.695 307.526 439.572 308.112 439.572C308.848 439.572 309.499 439.737 310.064 440.068C310.63 440.399 311.051 440.884 311.328 441.524C311.574 440.905 311.979 440.425 312.544 440.084C313.11 439.743 313.739 439.572 314.432 439.572Z" fill="white"/>
<path d="M93.5 407L124 441.5" stroke="url(#paint37_linear_1236_6745)" stroke-miterlimit="10"/>
<path d="M93 400.5C89.9332 400.5 87.5 402.933 87.5 406C87.5 409.067 89.9332 411.5 93 411.5C96.0669 411.5 98.5 409.067 98.5 406C98.5 402.933 96.0669 400.5 93 400.5Z" fill="url(#paint38_linear_1236_6745)" stroke="url(#paint39_linear_1236_6745)"/>
<path d="M142.5 442C142.5 451.665 134.665 459.5 125 459.5C115.335 459.5 107.5 451.665 107.5 442C107.5 432.335 115.335 424.5 125 424.5C134.665 424.5 142.5 432.335 142.5 442Z" fill="url(#paint40_linear_1236_6745)" stroke="url(#paint41_linear_1236_6745)"/>
<path d="M127.82 112.46V124L125.54 123.98V115.2L121.4 116.92V114.32L125.54 112.46H127.82Z" fill="white"/>
<path d="M178.8 199.48L181.08 198.1H185.22V200.36H181.24V202.64H185.14V205H178.8V199.48ZM178.8 197.12V194.84L181.08 193.46H185.22V195.74H181.32V197.12H178.8ZM192.62 205H186.2V202.64H192.62V205ZM190.02 200.36H186.12V198.1H190.02V195.74H186.12V193.46H190.26L192.62 194.84V198.98L190.02 200.36Z" fill="white"/>
<path d="M206.22 286.02H202.08V283.66H205.98V281.38H202.08V279.12H205.98V276.76H202.08V274.48H206.22L208.5 275.86V279.28L206.62 280.24L208.5 281.14V284.64L206.22 286.02ZM197.2 282.28V283.66H201.1V286.02H196.96L194.6 284.64V282.28H197.2ZM194.68 278.14V275.86L196.96 274.48H201.1V276.76H197.2V278.14H194.68ZM201.1 281.38H198.58V279.12H201.1V281.38Z" fill="white"/>
<path d="M192.42 366.98H190.08V362.44H185.94V360.1H190.08V355.48H192.42V366.98ZM182.54 360.1H184.96V362.44H178.4L182.54 355.56H185.28L182.54 360.1Z" fill="white"/>
<path d="M117.8 436.46H124.26V438.74H120.34V441.04H124.26V443.4H117.8V436.46ZM120.34 444.3V445.7H124.26V447.98H120.08L117.8 446.6V444.3H120.34ZM131.7 438.74H125.24V436.46H131.7V438.74ZM131.7 442.42V446.6L129.42 447.98H125.24V445.7H129.16V443.4H125.24V441.04H129.16L131.7 442.42Z" fill="white"/>
<defs>
<linearGradient id="paint0_linear_1236_6745" x1="27.5" y1="-380.625" x2="714.464" y2="127.526" gradientUnits="userSpaceOnUse">
<stop offset="0.303689" stop-color="#004B4B" stop-opacity="0"/>
<stop offset="0.454116" stop-color="#004B4B" stop-opacity="0.4"/>
<stop offset="0.499089" stop-color="#004B4B"/>
<stop offset="0.64438" stop-color="#26DDFF"/>
<stop offset="0.953267" stop-color="#26DDFF" stop-opacity="0"/>
</linearGradient>
<linearGradient id="paint1_linear_1236_6745" x1="184" y1="260.5" x2="94.6909" y2="261.688" gradientUnits="userSpaceOnUse">
<stop stop-color="#12637E"/>
<stop offset="0.781" stop-color="#04182D" stop-opacity="0.4"/>
</linearGradient>
<linearGradient id="paint2_linear_1236_6745" x1="-19.2105" y1="-2571.26" x2="340.819" y2="-2549.75" gradientUnits="userSpaceOnUse">
<stop offset="0.303689" stop-color="#004B4B" stop-opacity="0"/>
<stop offset="0.422945" stop-color="#004B4B" stop-opacity="0.4"/>
<stop offset="0.499089" stop-color="#004B4B"/>
<stop offset="0.649516" stop-color="#26DDFF"/>
<stop offset="0.953267" stop-color="#26DDFF" stop-opacity="0"/>
</linearGradient>
<linearGradient id="paint3_linear_1236_6745" x1="117.949" y1="267.5" x2="60.6993" y2="268.262" gradientUnits="userSpaceOnUse">
<stop stop-color="#12637E"/>
<stop offset="0.781" stop-color="#04182D" stop-opacity="0.4"/>
</linearGradient>
<linearGradient id="paint4_linear_1236_6745" x1="-12.3144" y1="-1547.73" x2="218.474" y2="-1533.94" gradientUnits="userSpaceOnUse">
<stop offset="0.303689" stop-color="#004B4B" stop-opacity="0"/>
<stop offset="0.422945" stop-color="#004B4B" stop-opacity="0.4"/>
<stop offset="0.499089" stop-color="#004B4B"/>
<stop offset="0.649516" stop-color="#26DDFF"/>
<stop offset="0.953267" stop-color="#26DDFF" stop-opacity="0"/>
</linearGradient>
<linearGradient id="paint5_linear_1236_6745" x1="63.6923" y1="273.25" x2="32.7776" y2="273.661" gradientUnits="userSpaceOnUse">
<stop stop-color="#12637E"/>
<stop offset="0.781" stop-color="#04182D" stop-opacity="0.4"/>
</linearGradient>
<linearGradient id="paint6_linear_1236_6745" x1="-6.64978" y1="-706.974" x2="117.976" y2="-699.529" gradientUnits="userSpaceOnUse">
<stop offset="0.303689" stop-color="#004B4B" stop-opacity="0"/>
<stop offset="0.422945" stop-color="#004B4B" stop-opacity="0.4"/>
<stop offset="0.499089" stop-color="#004B4B"/>
<stop offset="0.649516" stop-color="#26DDFF"/>
<stop offset="0.953267" stop-color="#26DDFF" stop-opacity="0"/>
</linearGradient>
<linearGradient id="paint7_linear_1236_6745" x1="371.727" y1="74.4288" x2="360.242" y2="164.2" gradientUnits="userSpaceOnUse">
<stop stop-color="#12637E"/>
<stop offset="0.781" stop-color="#04182D"/>
</linearGradient>
<linearGradient id="paint8_linear_1236_6745" x1="457.5" y1="83.5" x2="445.673" y2="173.039" gradientUnits="userSpaceOnUse">
<stop offset="0.303689" stop-color="#004B4B" stop-opacity="0"/>
<stop offset="0.422945" stop-color="#004B4B" stop-opacity="0.4"/>
<stop offset="0.499089" stop-color="#004B4B"/>
<stop offset="0.649516" stop-color="#26DDFF"/>
<stop offset="0.953267" stop-color="#26DDFF" stop-opacity="0"/>
</linearGradient>
<linearGradient id="paint9_linear_1236_6745" x1="85.6649" y1="236.833" x2="171.167" y2="199.378" gradientUnits="userSpaceOnUse">
<stop offset="0.303689" stop-color="#004B4B" stop-opacity="0"/>
<stop offset="0.422945" stop-color="#004B4B" stop-opacity="0.4"/>
<stop offset="0.499089" stop-color="#004B4B"/>
<stop offset="0.649516" stop-color="#26DDFF"/>
<stop offset="0.953267" stop-color="#26DDFF" stop-opacity="0"/>
</linearGradient>
<linearGradient id="paint10_linear_1236_6745" x1="98.072" y1="145.548" x2="89.4432" y2="159.036" gradientUnits="userSpaceOnUse">
<stop stop-color="#12637E"/>
<stop offset="0.781" stop-color="#04182D"/>
</linearGradient>
<linearGradient id="paint11_linear_1236_6745" x1="86.0203" y1="132.056" x2="108.263" y2="146.671" gradientUnits="userSpaceOnUse">
<stop offset="0.303689" stop-color="#004B4B" stop-opacity="0"/>
<stop offset="0.422945" stop-color="#004B4B" stop-opacity="0.4"/>
<stop offset="0.499089" stop-color="#004B4B"/>
<stop offset="0.649516" stop-color="#26DDFF"/>
<stop offset="0.953267" stop-color="#26DDFF" stop-opacity="0"/>
</linearGradient>
<linearGradient id="paint12_linear_1236_6745" x1="143.259" y1="87.5716" x2="112.196" y2="136.131" gradientUnits="userSpaceOnUse">
<stop stop-color="#12637E"/>
<stop offset="0.781" stop-color="#04182D"/>
</linearGradient>
<linearGradient id="paint13_linear_1236_6745" x1="156.125" y1="94.375" x2="124.705" y2="141.949" gradientUnits="userSpaceOnUse">
<stop offset="0.303689" stop-color="#004B4B" stop-opacity="0"/>
<stop offset="0.422945" stop-color="#004B4B" stop-opacity="0.4"/>
<stop offset="0.499089" stop-color="#004B4B"/>
<stop offset="0.649516" stop-color="#26DDFF"/>
<stop offset="0.953267" stop-color="#26DDFF" stop-opacity="0"/>
</linearGradient>
<linearGradient id="paint14_linear_1236_6745" x1="432.727" y1="158.429" x2="421.242" y2="248.2" gradientUnits="userSpaceOnUse">
<stop stop-color="#12637E"/>
<stop offset="0.781" stop-color="#04182D"/>
</linearGradient>
<linearGradient id="paint15_linear_1236_6745" x1="518.5" y1="167.5" x2="506.673" y2="257.039" gradientUnits="userSpaceOnUse">
<stop offset="0.303689" stop-color="#004B4B" stop-opacity="0"/>
<stop offset="0.422945" stop-color="#004B4B" stop-opacity="0.4"/>
<stop offset="0.499089" stop-color="#004B4B"/>
<stop offset="0.649516" stop-color="#26DDFF"/>
<stop offset="0.953267" stop-color="#26DDFF" stop-opacity="0"/>
</linearGradient>
<linearGradient id="paint16_linear_1236_6745" x1="135.082" y1="95.8363" x2="220.584" y2="133.291" gradientUnits="userSpaceOnUse">
<stop offset="0.303689" stop-color="#004B4B" stop-opacity="0"/>
<stop offset="0.422945" stop-color="#004B4B" stop-opacity="0.4"/>
<stop offset="0.499089" stop-color="#004B4B"/>
<stop offset="0.649516" stop-color="#26DDFF"/>
<stop offset="0.953267" stop-color="#26DDFF" stop-opacity="0"/>
</linearGradient>
<linearGradient id="paint17_linear_1236_6745" x1="146.072" y1="202.548" x2="137.443" y2="216.036" gradientUnits="userSpaceOnUse">
<stop stop-color="#12637E"/>
<stop offset="0.781" stop-color="#04182D"/>
</linearGradient>
<linearGradient id="paint18_linear_1236_6745" x1="134.02" y1="189.056" x2="156.263" y2="203.671" gradientUnits="userSpaceOnUse">
<stop offset="0.303689" stop-color="#004B4B" stop-opacity="0"/>
<stop offset="0.422945" stop-color="#004B4B" stop-opacity="0.4"/>
<stop offset="0.499089" stop-color="#004B4B"/>
<stop offset="0.649516" stop-color="#26DDFF"/>
<stop offset="0.953267" stop-color="#26DDFF" stop-opacity="0"/>
</linearGradient>
<linearGradient id="paint19_linear_1236_6745" x1="204.259" y1="168.572" x2="173.196" y2="217.131" gradientUnits="userSpaceOnUse">
<stop stop-color="#12637E"/>
<stop offset="0.781" stop-color="#04182D"/>
</linearGradient>
<linearGradient id="paint20_linear_1236_6745" x1="217.125" y1="175.375" x2="185.705" y2="222.949" gradientUnits="userSpaceOnUse">
<stop offset="0.303689" stop-color="#004B4B" stop-opacity="0"/>
<stop offset="0.422945" stop-color="#004B4B" stop-opacity="0.4"/>
<stop offset="0.499089" stop-color="#004B4B"/>
<stop offset="0.649516" stop-color="#26DDFF"/>
<stop offset="0.953267" stop-color="#26DDFF" stop-opacity="0"/>
</linearGradient>
<linearGradient id="paint21_linear_1236_6745" x1="448.727" y1="239.429" x2="437.242" y2="329.2" gradientUnits="userSpaceOnUse">
<stop stop-color="#12637E"/>
<stop offset="0.781" stop-color="#04182D"/>
</linearGradient>
<linearGradient id="paint22_linear_1236_6745" x1="534.5" y1="248.5" x2="522.673" y2="338.039" gradientUnits="userSpaceOnUse">
<stop offset="0.303689" stop-color="#004B4B" stop-opacity="0"/>
<stop offset="0.422945" stop-color="#004B4B" stop-opacity="0.4"/>
<stop offset="0.499089" stop-color="#004B4B"/>
<stop offset="0.649516" stop-color="#26DDFF"/>
<stop offset="0.953267" stop-color="#26DDFF" stop-opacity="0"/>
</linearGradient>
<linearGradient id="paint23_linear_1236_6745" x1="146.082" y1="179.836" x2="231.584" y2="217.291" gradientUnits="userSpaceOnUse">
<stop offset="0.303689" stop-color="#004B4B" stop-opacity="0"/>
<stop offset="0.422945" stop-color="#004B4B" stop-opacity="0.4"/>
<stop offset="0.499089" stop-color="#004B4B"/>
<stop offset="0.649516" stop-color="#26DDFF"/>
<stop offset="0.953267" stop-color="#26DDFF" stop-opacity="0"/>
</linearGradient>
<linearGradient id="paint24_linear_1236_6745" x1="161.072" y1="271.548" x2="152.443" y2="285.036" gradientUnits="userSpaceOnUse">
<stop stop-color="#12637E"/>
<stop offset="0.781" stop-color="#04182D"/>
</linearGradient>
<linearGradient id="paint25_linear_1236_6745" x1="149.02" y1="258.056" x2="171.263" y2="272.671" gradientUnits="userSpaceOnUse">
<stop offset="0.303689" stop-color="#004B4B" stop-opacity="0"/>
<stop offset="0.422945" stop-color="#004B4B" stop-opacity="0.4"/>
<stop offset="0.499089" stop-color="#004B4B"/>
<stop offset="0.649516" stop-color="#26DDFF"/>
<stop offset="0.953267" stop-color="#26DDFF" stop-opacity="0"/>
</linearGradient>
<linearGradient id="paint26_linear_1236_6745" x1="220.259" y1="249.572" x2="189.196" y2="298.131" gradientUnits="userSpaceOnUse">
<stop stop-color="#12637E"/>
<stop offset="0.781" stop-color="#04182D"/>
</linearGradient>
<linearGradient id="paint27_linear_1236_6745" x1="233.125" y1="256.375" x2="201.705" y2="303.949" gradientUnits="userSpaceOnUse">
<stop offset="0.303689" stop-color="#004B4B" stop-opacity="0"/>
<stop offset="0.422945" stop-color="#004B4B" stop-opacity="0.4"/>
<stop offset="0.499089" stop-color="#004B4B"/>
<stop offset="0.649516" stop-color="#26DDFF"/>
<stop offset="0.953267" stop-color="#26DDFF" stop-opacity="0"/>
</linearGradient>
<linearGradient id="paint28_linear_1236_6745" x1="432.727" y1="320.429" x2="421.242" y2="410.2" gradientUnits="userSpaceOnUse">
<stop stop-color="#12637E"/>
<stop offset="0.781" stop-color="#04182D"/>
</linearGradient>
<linearGradient id="paint29_linear_1236_6745" x1="518.5" y1="329.5" x2="506.673" y2="419.039" gradientUnits="userSpaceOnUse">
<stop offset="0.303689" stop-color="#004B4B" stop-opacity="0"/>
<stop offset="0.422945" stop-color="#004B4B" stop-opacity="0.4"/>
<stop offset="0.499089" stop-color="#004B4B"/>
<stop offset="0.649516" stop-color="#26DDFF"/>
<stop offset="0.953267" stop-color="#26DDFF" stop-opacity="0"/>
</linearGradient>
<linearGradient id="paint30_linear_1236_6745" x1="135.082" y1="260.836" x2="220.584" y2="298.291" gradientUnits="userSpaceOnUse">
<stop offset="0.303689" stop-color="#004B4B" stop-opacity="0"/>
<stop offset="0.422945" stop-color="#004B4B" stop-opacity="0.4"/>
<stop offset="0.499089" stop-color="#004B4B"/>
<stop offset="0.649516" stop-color="#26DDFF"/>
<stop offset="0.953267" stop-color="#26DDFF" stop-opacity="0"/>
</linearGradient>
<linearGradient id="paint31_linear_1236_6745" x1="148.072" y1="335.548" x2="139.443" y2="349.036" gradientUnits="userSpaceOnUse">
<stop stop-color="#12637E"/>
<stop offset="0.781" stop-color="#04182D"/>
</linearGradient>
<linearGradient id="paint32_linear_1236_6745" x1="136.02" y1="322.056" x2="158.263" y2="336.671" gradientUnits="userSpaceOnUse">
<stop offset="0.303689" stop-color="#004B4B" stop-opacity="0"/>
<stop offset="0.422945" stop-color="#004B4B" stop-opacity="0.4"/>
<stop offset="0.499089" stop-color="#004B4B"/>
<stop offset="0.649516" stop-color="#26DDFF"/>
<stop offset="0.953267" stop-color="#26DDFF" stop-opacity="0"/>
</linearGradient>
<linearGradient id="paint33_linear_1236_6745" x1="204.259" y1="330.572" x2="173.196" y2="379.131" gradientUnits="userSpaceOnUse">
<stop stop-color="#12637E"/>
<stop offset="0.781" stop-color="#04182D"/>
</linearGradient>
<linearGradient id="paint34_linear_1236_6745" x1="217.125" y1="337.375" x2="185.705" y2="384.949" gradientUnits="userSpaceOnUse">
<stop offset="0.303689" stop-color="#004B4B" stop-opacity="0"/>
<stop offset="0.422945" stop-color="#004B4B" stop-opacity="0.4"/>
<stop offset="0.499089" stop-color="#004B4B"/>
<stop offset="0.649516" stop-color="#26DDFF"/>
<stop offset="0.953267" stop-color="#26DDFF" stop-opacity="0"/>
</linearGradient>
<linearGradient id="paint35_linear_1236_6745" x1="371.727" y1="401.429" x2="360.242" y2="491.2" gradientUnits="userSpaceOnUse">
<stop stop-color="#12637E"/>
<stop offset="0.781" stop-color="#04182D"/>
</linearGradient>
<linearGradient id="paint36_linear_1236_6745" x1="457.5" y1="410.5" x2="445.673" y2="500.039" gradientUnits="userSpaceOnUse">
<stop offset="0.303689" stop-color="#004B4B" stop-opacity="0"/>
<stop offset="0.422945" stop-color="#004B4B" stop-opacity="0.4"/>
<stop offset="0.499089" stop-color="#004B4B"/>
<stop offset="0.649516" stop-color="#26DDFF"/>
<stop offset="0.953267" stop-color="#26DDFF" stop-opacity="0"/>
</linearGradient>
<linearGradient id="paint37_linear_1236_6745" x1="85.6649" y1="323.667" x2="171.167" y2="361.122" gradientUnits="userSpaceOnUse">
<stop offset="0.303689" stop-color="#004B4B" stop-opacity="0"/>
<stop offset="0.422945" stop-color="#004B4B" stop-opacity="0.4"/>
<stop offset="0.499089" stop-color="#004B4B"/>
<stop offset="0.649516" stop-color="#26DDFF"/>
<stop offset="0.953267" stop-color="#26DDFF" stop-opacity="0"/>
</linearGradient>
<linearGradient id="paint38_linear_1236_6745" x1="98.072" y1="397.548" x2="89.4432" y2="411.036" gradientUnits="userSpaceOnUse">
<stop stop-color="#12637E"/>
<stop offset="0.781" stop-color="#04182D"/>
</linearGradient>
<linearGradient id="paint39_linear_1236_6745" x1="86.0203" y1="384.056" x2="108.263" y2="398.671" gradientUnits="userSpaceOnUse">
<stop offset="0.303689" stop-color="#004B4B" stop-opacity="0"/>
<stop offset="0.422945" stop-color="#004B4B" stop-opacity="0.4"/>
<stop offset="0.499089" stop-color="#004B4B"/>
<stop offset="0.649516" stop-color="#26DDFF"/>
<stop offset="0.953267" stop-color="#26DDFF" stop-opacity="0"/>
</linearGradient>
<linearGradient id="paint40_linear_1236_6745" x1="143.259" y1="411.572" x2="112.196" y2="460.131" gradientUnits="userSpaceOnUse">
<stop stop-color="#12637E"/>
<stop offset="0.781" stop-color="#04182D"/>
</linearGradient>
<linearGradient id="paint41_linear_1236_6745" x1="156.125" y1="418.375" x2="124.705" y2="465.949" gradientUnits="userSpaceOnUse">
<stop offset="0.303689" stop-color="#004B4B" stop-opacity="0"/>
<stop offset="0.422945" stop-color="#004B4B" stop-opacity="0.4"/>
<stop offset="0.499089" stop-color="#004B4B"/>
<stop offset="0.649516" stop-color="#26DDFF"/>
<stop offset="0.953267" stop-color="#26DDFF" stop-opacity="0"/>
</linearGradient>
</defs>
</svg>
