<svg width="20" height="21" viewBox="0 0 20 21" fill="none" xmlns="http://www.w3.org/2000/svg">
<g clip-path="url(#clip0_25_7336)">
<path d="M10 10.502C10.9889 10.502 11.9556 10.2087 12.7779 9.6593C13.6001 9.1099 14.241 8.329 14.6194 7.41537C14.9978 6.50174 15.0969 5.49641 14.9039 4.5265C14.711 3.5566 14.2348 2.66568 13.5355 1.96642C12.8363 1.26716 11.9454 0.790955 10.9755 0.598029C10.0055 0.405103 9.00021 0.50412 8.08658 0.882558C7.17295 1.261 6.39206 1.90186 5.84265 2.7241C5.29324 3.54635 5 4.51305 5 5.50196C5.00132 6.82763 5.52853 8.09863 6.46593 9.03603C7.40332 9.97342 8.67432 10.5006 10 10.502ZM10 2.16862C10.6593 2.16862 11.3037 2.36412 11.8519 2.73039C12.4001 3.09666 12.8273 3.61726 13.0796 4.22634C13.3319 4.83543 13.3979 5.50565 13.2693 6.15226C13.1407 6.79886 12.8232 7.3928 12.357 7.85898C11.8908 8.32515 11.2969 8.64262 10.6503 8.77124C10.0037 8.89986 9.33348 8.83385 8.72439 8.58155C8.1153 8.32926 7.59471 7.90202 7.22844 7.35386C6.86216 6.80569 6.66667 6.16123 6.66667 5.50196C6.66667 4.6179 7.01786 3.77005 7.64298 3.14493C8.2681 2.51981 9.11595 2.16862 10 2.16862Z" fill="#A4A4A4"/>
<path d="M10 12.168C8.01155 12.1702 6.10518 12.9611 4.69914 14.3671C3.29309 15.7731 2.50221 17.6795 2.5 19.668C2.5 19.889 2.5878 20.1009 2.74408 20.2572C2.90036 20.4135 3.11232 20.5013 3.33333 20.5013C3.55435 20.5013 3.76631 20.4135 3.92259 20.2572C4.07887 20.1009 4.16667 19.889 4.16667 19.668C4.16667 18.1209 4.78125 16.6371 5.87521 15.5432C6.96917 14.4492 8.4529 13.8346 10 13.8346C11.5471 13.8346 13.0308 14.4492 14.1248 15.5432C15.2188 16.6371 15.8333 18.1209 15.8333 19.668C15.8333 19.889 15.9211 20.1009 16.0774 20.2572C16.2337 20.4135 16.4457 20.5013 16.6667 20.5013C16.8877 20.5013 17.0996 20.4135 17.2559 20.2572C17.4122 20.1009 17.5 19.889 17.5 19.668C17.4978 17.6795 16.7069 15.7731 15.3009 14.3671C13.8948 12.9611 11.9884 12.1702 10 12.168Z" fill="#A4A4A4"/>
</g>
<defs>
<clipPath id="clip0_25_7336">
<rect width="20" height="20" fill="white" transform="translate(0 0.5)"/>
</clipPath>
</defs>
</svg>
