<svg width="14" height="21" viewBox="0 0 14 21" fill="none" xmlns="http://www.w3.org/2000/svg">
<path d="M9.50016 20.502H4.50016C2.20266 20.502 0.333496 18.6328 0.333496 16.3353V4.66862C0.333496 2.37112 2.20266 0.501953 4.50016 0.501953H9.50016C11.7977 0.501953 13.6668 2.37112 13.6668 4.66862V16.3353C13.6668 18.6328 11.7977 20.502 9.50016 20.502ZM4.50016 2.16862C3.12183 2.16862 2.00016 3.29029 2.00016 4.66862V16.3353C2.00016 17.7136 3.12183 18.8353 4.50016 18.8353H9.50016C10.8785 18.8353 12.0002 17.7136 12.0002 16.3353V4.66862C12.0002 3.29029 10.8785 2.16862 9.50016 2.16862H4.50016ZM8.66683 16.3353C8.66683 15.8753 8.2935 15.502 7.8335 15.502H6.16683C5.70683 15.502 5.3335 15.8753 5.3335 16.3353C5.3335 16.7953 5.70683 17.1686 6.16683 17.1686H7.8335C8.2935 17.1686 8.66683 16.7953 8.66683 16.3353Z" fill="#A4A4A4"/>
</svg>
