<svg width="38" height="40" viewBox="0 0 38 40" fill="none" xmlns="http://www.w3.org/2000/svg">
<g style="mix-blend-mode:luminosity">
<path d="M34.8333 0H3.16667C2.32681 0 1.52136 0.337141 0.927495 0.937256C0.33363 1.53737 0 2.3513 0 3.19999V14.4C0 24.9439 5.05083 31.3339 9.28823 34.8379C13.8522 38.6099 18.3924 39.8899 18.5903 39.9439C18.8625 40.0187 19.1494 40.0187 19.4216 39.9439C19.6195 39.8899 24.1538 38.6099 28.7236 34.8379C32.9492 31.3339 38 24.9439 38 14.4V3.19999C38 2.3513 37.6664 1.53737 37.0725 0.937256C36.4786 0.337141 35.6732 0 34.8333 0ZM34.8333 14.4C34.8333 21.8139 32.1298 27.8319 26.7979 32.2839C24.4769 34.2153 21.8372 35.7183 19 36.7239C16.1999 35.7358 13.5928 34.2595 11.2971 32.3619C5.90188 27.9019 3.16667 21.8599 3.16667 14.4V3.19999H34.8333V14.4ZM9.96312 20.3319C9.66603 20.0317 9.49912 19.6245 9.49912 19.1999C9.49912 18.7754 9.66603 18.3682 9.96312 18.068C10.2602 17.7677 10.6632 17.5991 11.0833 17.5991C11.5035 17.5991 11.9064 17.7677 12.2035 18.068L15.8333 21.7379L25.7965 11.668C25.9436 11.5193 26.1182 11.4014 26.3104 11.3209C26.5026 11.2405 26.7086 11.1991 26.9167 11.1991C27.1247 11.1991 27.3307 11.2405 27.5229 11.3209C27.7151 11.4014 27.8898 11.5193 28.0369 11.668C28.184 11.8166 28.3007 11.9931 28.3803 12.1873C28.4599 12.3816 28.5009 12.5897 28.5009 12.8C28.5009 13.0102 28.4599 13.2184 28.3803 13.4126C28.3007 13.6068 28.184 13.7833 28.0369 13.932L16.9535 25.1319C16.8065 25.2807 16.6319 25.3987 16.4397 25.4792C16.2474 25.5597 16.0414 25.6012 15.8333 25.6012C15.6253 25.6012 15.4192 25.5597 15.227 25.4792C15.0348 25.3987 14.8602 25.2807 14.7131 25.1319L9.96312 20.3319Z" fill="url(#paint0_linear_2081_10120)"/>
</g>
<defs>
<linearGradient id="paint0_linear_2081_10120" x1="19" y1="40" x2="19" y2="0" gradientUnits="userSpaceOnUse">
<stop stop-color="#2D4949"/>
<stop offset="1" stop-color="#31B3B3"/>
</linearGradient>
</defs>
</svg>
