 <svg width="647" height="586" viewBox="0 0 647 586" fill="none"
                                xmlns="http://www.w3.org/2000/svg" class="image_1">
                                <g style="mix-blend-mode:soft-light" opacity="0.7">
                                    <path
                                        d="M15.6591 1H1V30.2M15.6591 1V30.2M15.6591 1H30.3182M15.6591 30.2H1M15.6591 30.2V59.4M15.6591 30.2H30.3182M1 30.2V59.4M15.6591 59.4H1M15.6591 59.4V88.6M15.6591 59.4H30.3182M1 59.4V88.6M15.6591 88.6H1M15.6591 88.6V117.8M15.6591 88.6H30.3182M1 88.6V117.8M15.6591 117.8H1M15.6591 117.8V147M15.6591 117.8H30.3182M1 117.8V147M15.6591 147H1M15.6591 147V176.2M15.6591 147H30.3182M1 147V176.2M15.6591 176.2H1M15.6591 176.2V205.4M15.6591 176.2H30.3182M1 176.2V205.4M15.6591 205.4H1M15.6591 205.4V234.6M15.6591 205.4H30.3182M1 205.4V234.6M15.6591 234.6H1M15.6591 234.6V263.8M15.6591 234.6H30.3182M1 234.6V263.8M15.6591 263.8H1M15.6591 263.8V293M15.6591 263.8H30.3182M1 263.8V293M15.6591 293H1M15.6591 293V322.2M15.6591 293H30.3182M1 293V322.2M15.6591 322.2H1M15.6591 322.2V351.4M15.6591 322.2H30.3182M1 322.2V351.4M15.6591 351.4H1M15.6591 351.4V380.6M15.6591 351.4H30.3182M1 351.4V380.6M15.6591 380.6H1M15.6591 380.6V409.8M15.6591 380.6H30.3182M1 380.6V409.8M15.6591 409.8H1M15.6591 409.8V439M15.6591 409.8H30.3182M1 409.8V439M15.6591 439H1M15.6591 439V468.2M15.6591 439H30.3182M1 439V468.2M15.6591 468.2H1M15.6591 468.2V497.4M15.6591 468.2H30.3182M1 468.2V497.4M15.6591 497.4H1M15.6591 497.4V526.6M15.6591 497.4H30.3182M1 497.4V526.6M15.6591 526.6H1M15.6591 526.6V555.8M15.6591 526.6H30.3182M1 526.6V555.8M15.6591 555.8H1M15.6591 555.8V585M15.6591 555.8H30.3182M1 555.8V585H15.6591M15.6591 585H30.3182M30.3182 1V30.2M30.3182 1H44.9773M30.3182 30.2V59.4M30.3182 30.2H44.9773M30.3182 59.4V88.6M30.3182 59.4H44.9773M30.3182 88.6V117.8M30.3182 88.6H44.9773M30.3182 117.8V147M30.3182 117.8H44.9773M30.3182 147V176.2M30.3182 147H44.9773M30.3182 176.2V205.4M30.3182 176.2H44.9773M30.3182 205.4V234.6M30.3182 205.4H44.9773M30.3182 234.6V263.8M30.3182 234.6H44.9773M30.3182 263.8V293M30.3182 263.8H44.9773M30.3182 293V322.2M30.3182 293H44.9773M30.3182 322.2V351.4M30.3182 322.2H44.9773M30.3182 351.4V380.6M30.3182 351.4H44.9773M30.3182 380.6V409.8M30.3182 380.6H44.9773M30.3182 409.8V439M30.3182 409.8H44.9773M30.3182 439V468.2M30.3182 439H44.9773M30.3182 468.2V497.4M30.3182 468.2H44.9773M30.3182 497.4V526.6M30.3182 497.4H44.9773M30.3182 526.6V555.8M30.3182 526.6H44.9773M30.3182 555.8V585M30.3182 555.8H44.9773M30.3182 585H44.9773M44.9773 1V30.2M44.9773 1H59.6364M44.9773 30.2V59.4M44.9773 30.2H59.6364M44.9773 59.4V88.6M44.9773 59.4H59.6364M44.9773 88.6V117.8M44.9773 88.6H59.6364M44.9773 117.8V147M44.9773 117.8H59.6364M44.9773 147V176.2M44.9773 147H59.6364M44.9773 176.2V205.4M44.9773 176.2H59.6364M44.9773 205.4V234.6M44.9773 205.4H59.6364M44.9773 234.6V263.8M44.9773 234.6H59.6364M44.9773 263.8V293M44.9773 263.8H59.6364M44.9773 293V322.2M44.9773 293H59.6364M44.9773 322.2V351.4M44.9773 322.2H59.6364M44.9773 351.4V380.6M44.9773 351.4H59.6364M44.9773 380.6V409.8M44.9773 380.6H59.6364M44.9773 409.8V439M44.9773 409.8H59.6364M44.9773 439V468.2M44.9773 439H59.6364M44.9773 468.2V497.4M44.9773 468.2H59.6364M44.9773 497.4V526.6M44.9773 497.4H59.6364M44.9773 526.6V555.8M44.9773 526.6H59.6364M44.9773 555.8V585M44.9773 555.8H59.6364M44.9773 585H59.6364M59.6364 1V30.2M59.6364 1H74.2955M59.6364 30.2V59.4M59.6364 30.2H74.2955M59.6364 59.4V88.6M59.6364 59.4H74.2955M59.6364 88.6V117.8M59.6364 88.6H74.2955M59.6364 117.8V147M59.6364 117.8H74.2955M59.6364 147V176.2M59.6364 147H74.2955M59.6364 176.2V205.4M59.6364 176.2H74.2955M59.6364 205.4V234.6M59.6364 205.4H74.2955M59.6364 234.6V263.8M59.6364 234.6H74.2955M59.6364 263.8V293M59.6364 263.8H74.2955M59.6364 293V322.2M59.6364 293H74.2955M59.6364 322.2V351.4M59.6364 322.2H74.2955M59.6364 351.4V380.6M59.6364 351.4H74.2955M59.6364 380.6V409.8M59.6364 380.6H74.2955M59.6364 409.8V439M59.6364 409.8H74.2955M59.6364 439V468.2M59.6364 439H74.2955M59.6364 468.2V497.4M59.6364 468.2H74.2955M59.6364 497.4V526.6M59.6364 497.4H74.2955M59.6364 526.6V555.8M59.6364 526.6H74.2955M59.6364 555.8V585M59.6364 555.8H74.2955M59.6364 585H74.2955M74.2955 1V30.2M74.2955 1H88.9545M74.2955 30.2V59.4M74.2955 30.2H88.9545M74.2955 59.4V88.6M74.2955 59.4H88.9545M74.2955 88.6V117.8M74.2955 88.6H88.9545M74.2955 117.8V147M74.2955 117.8H88.9545M74.2955 147V176.2M74.2955 147H88.9545M74.2955 176.2V205.4M74.2955 176.2H88.9545M74.2955 205.4V234.6M74.2955 205.4H88.9545M74.2955 234.6V263.8M74.2955 234.6H88.9545M74.2955 263.8V293M74.2955 263.8H88.9545M74.2955 293V322.2M74.2955 293H88.9545M74.2955 322.2V351.4M74.2955 322.2H88.9545M74.2955 351.4V380.6M74.2955 351.4H88.9545M74.2955 380.6V409.8M74.2955 380.6H88.9545M74.2955 409.8V439M74.2955 409.8H88.9545M74.2955 439V468.2M74.2955 439H88.9545M74.2955 468.2V497.4M74.2955 468.2H88.9545M74.2955 497.4V526.6M74.2955 497.4H88.9545M74.2955 526.6V555.8M74.2955 526.6H88.9545M74.2955 555.8V585M74.2955 555.8H88.9545M74.2955 585H88.9545M88.9545 1V30.2M88.9545 1H103.614M88.9545 30.2V59.4M88.9545 30.2H103.614M88.9545 59.4V88.6M88.9545 59.4H103.614M88.9545 88.6V117.8M88.9545 88.6H103.614M88.9545 117.8V147M88.9545 117.8H103.614M88.9545 147V176.2M88.9545 147H103.614M88.9545 176.2V205.4M88.9545 176.2H103.614M88.9545 205.4V234.6M88.9545 205.4H103.614M88.9545 234.6V263.8M88.9545 234.6H103.614M88.9545 263.8V293M88.9545 263.8H103.614M88.9545 293V322.2M88.9545 293H103.614M88.9545 322.2V351.4M88.9545 322.2H103.614M88.9545 351.4V380.6M88.9545 351.4H103.614M88.9545 380.6V409.8M88.9545 380.6H103.614M88.9545 409.8V439M88.9545 409.8H103.614M88.9545 439V468.2M88.9545 439H103.614M88.9545 468.2V497.4M88.9545 468.2H103.614M88.9545 497.4V526.6M88.9545 497.4H103.614M88.9545 526.6V555.8M88.9545 526.6H103.614M88.9545 555.8V585M88.9545 555.8H103.614M88.9545 585H103.614M103.614 1V30.2M103.614 1H118.273M103.614 30.2V59.4M103.614 30.2H118.273M103.614 59.4V88.6M103.614 59.4H118.273M103.614 88.6V117.8M103.614 88.6H118.273M103.614 117.8V147M103.614 117.8H118.273M103.614 147V176.2M103.614 147H118.273M103.614 176.2V205.4M103.614 176.2H118.273M103.614 205.4V234.6M103.614 205.4H118.273M103.614 234.6V263.8M103.614 234.6H118.273M103.614 263.8V293M103.614 263.8H118.273M103.614 293V322.2M103.614 293H118.273M103.614 322.2V351.4M103.614 322.2H118.273M103.614 351.4V380.6M103.614 351.4H118.273M103.614 380.6V409.8M103.614 380.6H118.273M103.614 409.8V439M103.614 409.8H118.273M103.614 439V468.2M103.614 439H118.273M103.614 468.2V497.4M103.614 468.2H118.273M103.614 497.4V526.6M103.614 497.4H118.273M103.614 526.6V555.8M103.614 526.6H118.273M103.614 555.8V585M103.614 555.8H118.273M103.614 585H118.273M118.273 1V30.2M118.273 1H132.932M118.273 30.2V59.4M118.273 30.2H132.932M118.273 59.4V88.6M118.273 59.4H132.932M118.273 88.6V117.8M118.273 88.6H132.932M118.273 117.8V147M118.273 117.8H132.932M118.273 147V176.2M118.273 147H132.932M118.273 176.2V205.4M118.273 176.2H132.932M118.273 205.4V234.6M118.273 205.4H132.932M118.273 234.6V263.8M118.273 234.6H132.932M118.273 263.8V293M118.273 263.8H132.932M118.273 293V322.2M118.273 293H132.932M118.273 322.2V351.4M118.273 322.2H132.932M118.273 351.4V380.6M118.273 351.4H132.932M118.273 380.6V409.8M118.273 380.6H132.932M118.273 409.8V439M118.273 409.8H132.932M118.273 439V468.2M118.273 439H132.932M118.273 468.2V497.4M118.273 468.2H132.932M118.273 497.4V526.6M118.273 497.4H132.932M118.273 526.6V555.8M118.273 526.6H132.932M118.273 555.8V585M118.273 555.8H132.932M118.273 585H132.932M132.932 1V30.2M132.932 1H147.591M132.932 30.2V59.4M132.932 30.2H147.591M132.932 59.4V88.6M132.932 59.4H147.591M132.932 88.6V117.8M132.932 88.6H147.591M132.932 117.8V147M132.932 117.8H147.591M132.932 147V176.2M132.932 147H147.591M132.932 176.2V205.4M132.932 176.2H147.591M132.932 205.4V234.6M132.932 205.4H147.591M132.932 234.6V263.8M132.932 234.6H147.591M132.932 263.8V293M132.932 263.8H147.591M132.932 293V322.2M132.932 293H147.591M132.932 322.2V351.4M132.932 322.2H147.591M132.932 351.4V380.6M132.932 351.4H147.591M132.932 380.6V409.8M132.932 380.6H147.591M132.932 409.8V439M132.932 409.8H147.591M132.932 439V468.2M132.932 439H147.591M132.932 468.2V497.4M132.932 468.2H147.591M132.932 497.4V526.6M132.932 497.4H147.591M132.932 526.6V555.8M132.932 526.6H147.591M132.932 555.8V585M132.932 555.8H147.591M132.932 585H147.591M147.591 1V30.2M147.591 1H162.25M147.591 30.2V59.4M147.591 30.2H162.25M147.591 59.4V88.6M147.591 59.4H162.25M147.591 88.6V117.8M147.591 88.6H162.25M147.591 117.8V147M147.591 117.8H162.25M147.591 147V176.2M147.591 147H162.25M147.591 176.2V205.4M147.591 176.2H162.25M147.591 205.4V234.6M147.591 205.4H162.25M147.591 234.6V263.8M147.591 234.6H162.25M147.591 263.8V293M147.591 263.8H162.25M147.591 293V322.2M147.591 293H162.25M147.591 322.2V351.4M147.591 322.2H162.25M147.591 351.4V380.6M147.591 351.4H162.25M147.591 380.6V409.8M147.591 380.6H162.25M147.591 409.8V439M147.591 409.8H162.25M147.591 439V468.2M147.591 439H162.25M147.591 468.2V497.4M147.591 468.2H162.25M147.591 497.4V526.6M147.591 497.4H162.25M147.591 526.6V555.8M147.591 526.6H162.25M147.591 555.8V585M147.591 555.8H162.25M147.591 585H162.25M162.25 1V30.2M162.25 1H176.909M162.25 30.2V59.4M162.25 30.2H176.909M162.25 59.4V88.6M162.25 59.4H176.909M162.25 88.6V117.8M162.25 88.6H176.909M162.25 117.8V147M162.25 117.8H176.909M162.25 147V176.2M162.25 147H176.909M162.25 176.2V205.4M162.25 176.2H176.909M162.25 205.4V234.6M162.25 205.4H176.909M162.25 234.6V263.8M162.25 234.6H176.909M162.25 263.8V293M162.25 263.8H176.909M162.25 293V322.2M162.25 293H176.909M162.25 322.2V351.4M162.25 322.2H176.909M162.25 351.4V380.6M162.25 351.4H176.909M162.25 380.6V409.8M162.25 380.6H176.909M162.25 409.8V439M162.25 409.8H176.909M162.25 439V468.2M162.25 439H176.909M162.25 468.2V497.4M162.25 468.2H176.909M162.25 497.4V526.6M162.25 497.4H176.909M162.25 526.6V555.8M162.25 526.6H176.909M162.25 555.8V585M162.25 555.8H176.909M162.25 585H176.909M176.909 1V30.2M176.909 1H191.568M176.909 30.2V59.4M176.909 30.2H191.568M176.909 59.4V88.6M176.909 59.4H191.568M176.909 88.6V117.8M176.909 88.6H191.568M176.909 117.8V147M176.909 117.8H191.568M176.909 147V176.2M176.909 147H191.568M176.909 176.2V205.4M176.909 176.2H191.568M176.909 205.4V234.6M176.909 205.4H191.568M176.909 234.6V263.8M176.909 234.6H191.568M176.909 263.8V293M176.909 263.8H191.568M176.909 293V322.2M176.909 293H191.568M176.909 322.2V351.4M176.909 322.2H191.568M176.909 351.4V380.6M176.909 351.4H191.568M176.909 380.6V409.8M176.909 380.6H191.568M176.909 409.8V439M176.909 409.8H191.568M176.909 439V468.2M176.909 439H191.568M176.909 468.2V497.4M176.909 468.2H191.568M176.909 497.4V526.6M176.909 497.4H191.568M176.909 526.6V555.8M176.909 526.6H191.568M176.909 555.8V585M176.909 555.8H191.568M176.909 585H191.568M191.568 1V30.2M191.568 1H206.227M191.568 30.2V59.4M191.568 30.2H206.227M191.568 59.4V88.6M191.568 59.4H206.227M191.568 88.6V117.8M191.568 88.6H206.227M191.568 117.8V147M191.568 117.8H206.227M191.568 147V176.2M191.568 147H206.227M191.568 176.2V205.4M191.568 176.2H206.227M191.568 205.4V234.6M191.568 205.4H206.227M191.568 234.6V263.8M191.568 234.6H206.227M191.568 263.8V293M191.568 263.8H206.227M191.568 293V322.2M191.568 293H206.227M191.568 322.2V351.4M191.568 322.2H206.227M191.568 351.4V380.6M191.568 351.4H206.227M191.568 380.6V409.8M191.568 380.6H206.227M191.568 409.8V439M191.568 409.8H206.227M191.568 439V468.2M191.568 439H206.227M191.568 468.2V497.4M191.568 468.2H206.227M191.568 497.4V526.6M191.568 497.4H206.227M191.568 526.6V555.8M191.568 526.6H206.227M191.568 555.8V585M191.568 555.8H206.227M191.568 585H206.227M206.227 1V30.2M206.227 1H220.886M206.227 30.2V59.4M206.227 30.2H220.886M206.227 59.4V88.6M206.227 59.4H220.886M206.227 88.6V117.8M206.227 88.6H220.886M206.227 117.8V147M206.227 117.8H220.886M206.227 147V176.2M206.227 147H220.886M206.227 176.2V205.4M206.227 176.2H220.886M206.227 205.4V234.6M206.227 205.4H220.886M206.227 234.6V263.8M206.227 234.6H220.886M206.227 263.8V293M206.227 263.8H220.886M206.227 293V322.2M206.227 293H220.886M206.227 322.2V351.4M206.227 322.2H220.886M206.227 351.4V380.6M206.227 351.4H220.886M206.227 380.6V409.8M206.227 380.6H220.886M206.227 409.8V439M206.227 409.8H220.886M206.227 439V468.2M206.227 439H220.886M206.227 468.2V497.4M206.227 468.2H220.886M206.227 497.4V526.6M206.227 497.4H220.886M206.227 526.6V555.8M206.227 526.6H220.886M206.227 555.8V585M206.227 555.8H220.886M206.227 585H220.886M220.886 1V30.2M220.886 1H235.545M220.886 30.2V59.4M220.886 30.2H235.545M220.886 59.4V88.6M220.886 59.4H235.545M220.886 88.6V117.8M220.886 88.6H235.545M220.886 117.8V147M220.886 117.8H235.545M220.886 147V176.2M220.886 147H235.545M220.886 176.2V205.4M220.886 176.2H235.545M220.886 205.4V234.6M220.886 205.4H235.545M220.886 234.6V263.8M220.886 234.6H235.545M220.886 263.8V293M220.886 263.8H235.545M220.886 293V322.2M220.886 293H235.545M220.886 322.2V351.4M220.886 322.2H235.545M220.886 351.4V380.6M220.886 351.4H235.545M220.886 380.6V409.8M220.886 380.6H235.545M220.886 409.8V439M220.886 409.8H235.545M220.886 439V468.2M220.886 439H235.545M220.886 468.2V497.4M220.886 468.2H235.545M220.886 497.4V526.6M220.886 497.4H235.545M220.886 526.6V555.8M220.886 526.6H235.545M220.886 555.8V585M220.886 555.8H235.545M220.886 585H235.545M235.545 1V30.2M235.545 1H250.205M235.545 30.2V59.4M235.545 30.2H250.205M235.545 59.4V88.6M235.545 59.4H250.205M235.545 88.6V117.8M235.545 88.6H250.205M235.545 117.8V147M235.545 117.8H250.205M235.545 147V176.2M235.545 147H250.205M235.545 176.2V205.4M235.545 176.2H250.205M235.545 205.4V234.6M235.545 205.4H250.205M235.545 234.6V263.8M235.545 234.6H250.205M235.545 263.8V293M235.545 263.8H250.205M235.545 293V322.2M235.545 293H250.205M235.545 322.2V351.4M235.545 322.2H250.205M235.545 351.4V380.6M235.545 351.4H250.205M235.545 380.6V409.8M235.545 380.6H250.205M235.545 409.8V439M235.545 409.8H250.205M235.545 439V468.2M235.545 439H250.205M235.545 468.2V497.4M235.545 468.2H250.205M235.545 497.4V526.6M235.545 497.4H250.205M235.545 526.6V555.8M235.545 526.6H250.205M235.545 555.8V585M235.545 555.8H250.205M235.545 585H250.205M250.205 1V30.2M250.205 1H264.864M250.205 30.2V59.4M250.205 30.2H264.864M250.205 59.4V88.6M250.205 59.4H264.864M250.205 88.6V117.8M250.205 88.6H264.864M250.205 117.8V147M250.205 117.8H264.864M250.205 147V176.2M250.205 147H264.864M250.205 176.2V205.4M250.205 176.2H264.864M250.205 205.4V234.6M250.205 205.4H264.864M250.205 234.6V263.8M250.205 234.6H264.864M250.205 263.8V293M250.205 263.8H264.864M250.205 293V322.2M250.205 293H264.864M250.205 322.2V351.4M250.205 322.2H264.864M250.205 351.4V380.6M250.205 351.4H264.864M250.205 380.6V409.8M250.205 380.6H264.864M250.205 409.8V439M250.205 409.8H264.864M250.205 439V468.2M250.205 439H264.864M250.205 468.2V497.4M250.205 468.2H264.864M250.205 497.4V526.6M250.205 497.4H264.864M250.205 526.6V555.8M250.205 526.6H264.864M250.205 555.8V585M250.205 555.8H264.864M250.205 585H264.864M264.864 1V30.2M264.864 1H279.523M264.864 30.2V59.4M264.864 30.2H279.523M264.864 59.4V88.6M264.864 59.4H279.523M264.864 88.6V117.8M264.864 88.6H279.523M264.864 117.8V147M264.864 117.8H279.523M264.864 147V176.2M264.864 147H279.523M264.864 176.2V205.4M264.864 176.2H279.523M264.864 205.4V234.6M264.864 205.4H279.523M264.864 234.6V263.8M264.864 234.6H279.523M264.864 263.8V293M264.864 263.8H279.523M264.864 293V322.2M264.864 293H279.523M264.864 322.2V351.4M264.864 322.2H279.523M264.864 351.4V380.6M264.864 351.4H279.523M264.864 380.6V409.8M264.864 380.6H279.523M264.864 409.8V439M264.864 409.8H279.523M264.864 439V468.2M264.864 439H279.523M264.864 468.2V497.4M264.864 468.2H279.523M264.864 497.4V526.6M264.864 497.4H279.523M264.864 526.6V555.8M264.864 526.6H279.523M264.864 555.8V585M264.864 555.8H279.523M264.864 585H279.523M279.523 1V30.2M279.523 1H294.182M279.523 30.2V59.4M279.523 30.2H294.182M279.523 59.4V88.6M279.523 59.4H294.182M279.523 88.6V117.8M279.523 88.6H294.182M279.523 117.8V147M279.523 117.8H294.182M279.523 147V176.2M279.523 147H294.182M279.523 176.2V205.4M279.523 176.2H294.182M279.523 205.4V234.6M279.523 205.4H294.182M279.523 234.6V263.8M279.523 234.6H294.182M279.523 263.8V293M279.523 263.8H294.182M279.523 293V322.2M279.523 293H294.182M279.523 322.2V351.4M279.523 322.2H294.182M279.523 351.4V380.6M279.523 351.4H294.182M279.523 380.6V409.8M279.523 380.6H294.182M279.523 409.8V439M279.523 409.8H294.182M279.523 439V468.2M279.523 439H294.182M279.523 468.2V497.4M279.523 468.2H294.182M279.523 497.4V526.6M279.523 497.4H294.182M279.523 526.6V555.8M279.523 526.6H294.182M279.523 555.8V585M279.523 555.8H294.182M279.523 585H294.182M294.182 1V30.2M294.182 1H308.841M294.182 30.2V59.4M294.182 30.2H308.841M294.182 59.4V88.6M294.182 59.4H308.841M294.182 88.6V117.8M294.182 88.6H308.841M294.182 117.8V147M294.182 117.8H308.841M294.182 147V176.2M294.182 147H308.841M294.182 176.2V205.4M294.182 176.2H308.841M294.182 205.4V234.6M294.182 205.4H308.841M294.182 234.6V263.8M294.182 234.6H308.841M294.182 263.8V293M294.182 263.8H308.841M294.182 293V322.2M294.182 293H308.841M294.182 322.2V351.4M294.182 322.2H308.841M294.182 351.4V380.6M294.182 351.4H308.841M294.182 380.6V409.8M294.182 380.6H308.841M294.182 409.8V439M294.182 409.8H308.841M294.182 439V468.2M294.182 439H308.841M294.182 468.2V497.4M294.182 468.2H308.841M294.182 497.4V526.6M294.182 497.4H308.841M294.182 526.6V555.8M294.182 526.6H308.841M294.182 555.8V585M294.182 555.8H308.841M294.182 585H308.841M308.841 1V30.2M308.841 1H323.5M308.841 30.2V59.4M308.841 30.2H323.5M308.841 59.4V88.6M308.841 59.4H323.5M308.841 88.6V117.8M308.841 88.6H323.5M308.841 117.8V147M308.841 117.8H323.5M308.841 147V176.2M308.841 147H323.5M308.841 176.2V205.4M308.841 176.2H323.5M308.841 205.4V234.6M308.841 205.4H323.5M308.841 234.6V263.8M308.841 234.6H323.5M308.841 263.8V293M308.841 263.8H323.5M308.841 293V322.2M308.841 293H323.5M308.841 322.2V351.4M308.841 322.2H323.5M308.841 351.4V380.6M308.841 351.4H323.5M308.841 380.6V409.8M308.841 380.6H323.5M308.841 409.8V439M308.841 409.8H323.5M308.841 439V468.2M308.841 439H323.5M308.841 468.2V497.4M308.841 468.2H323.5M308.841 497.4V526.6M308.841 497.4H323.5M308.841 526.6V555.8M308.841 526.6H323.5M308.841 555.8V585M308.841 555.8H323.5M308.841 585H323.5M323.5 1V30.2M323.5 1H338.159M323.5 30.2V59.4M323.5 30.2H338.159M323.5 59.4V88.6M323.5 59.4H338.159M323.5 88.6V117.8M323.5 88.6H338.159M323.5 117.8V147M323.5 117.8H338.159M323.5 147V176.2M323.5 147H338.159M323.5 176.2V205.4M323.5 176.2H338.159M323.5 205.4V234.6M323.5 205.4H338.159M323.5 234.6V263.8M323.5 234.6H338.159M323.5 263.8V293M323.5 263.8H338.159M323.5 293V322.2M323.5 293H338.159M323.5 322.2V351.4M323.5 322.2H338.159M323.5 351.4V380.6M323.5 351.4H338.159M323.5 380.6V409.8M323.5 380.6H338.159M323.5 409.8V439M323.5 409.8H338.159M323.5 439V468.2M323.5 439H338.159M323.5 468.2V497.4M323.5 468.2H338.159M323.5 497.4V526.6M323.5 497.4H338.159M323.5 526.6V555.8M323.5 526.6H338.159M323.5 555.8V585M323.5 555.8H338.159M323.5 585H338.159M338.159 1V30.2M338.159 1H352.818M338.159 30.2V59.4M338.159 30.2H352.818M338.159 59.4V88.6M338.159 59.4H352.818M338.159 88.6V117.8M338.159 88.6H352.818M338.159 117.8V147M338.159 117.8H352.818M338.159 147V176.2M338.159 147H352.818M338.159 176.2V205.4M338.159 176.2H352.818M338.159 205.4V234.6M338.159 205.4H352.818M338.159 234.6V263.8M338.159 234.6H352.818M338.159 263.8V293M338.159 263.8H352.818M338.159 293V322.2M338.159 293H352.818M338.159 322.2V351.4M338.159 322.2H352.818M338.159 351.4V380.6M338.159 351.4H352.818M338.159 380.6V409.8M338.159 380.6H352.818M338.159 409.8V439M338.159 409.8H352.818M338.159 439V468.2M338.159 439H352.818M338.159 468.2V497.4M338.159 468.2H352.818M338.159 497.4V526.6M338.159 497.4H352.818M338.159 526.6V555.8M338.159 526.6H352.818M338.159 555.8V585M338.159 555.8H352.818M338.159 585H352.818M352.818 1V30.2M352.818 1H367.477M352.818 30.2V59.4M352.818 30.2H367.477M352.818 59.4V88.6M352.818 59.4H367.477M352.818 88.6V117.8M352.818 88.6H367.477M352.818 117.8V147M352.818 117.8H367.477M352.818 147V176.2M352.818 147H367.477M352.818 176.2V205.4M352.818 176.2H367.477M352.818 205.4V234.6M352.818 205.4H367.477M352.818 234.6V263.8M352.818 234.6H367.477M352.818 263.8V293M352.818 263.8H367.477M352.818 293V322.2M352.818 293H367.477M352.818 322.2V351.4M352.818 322.2H367.477M352.818 351.4V380.6M352.818 351.4H367.477M352.818 380.6V409.8M352.818 380.6H367.477M352.818 409.8V439M352.818 409.8H367.477M352.818 439V468.2M352.818 439H367.477M352.818 468.2V497.4M352.818 468.2H367.477M352.818 497.4V526.6M352.818 497.4H367.477M352.818 526.6V555.8M352.818 526.6H367.477M352.818 555.8V585M352.818 555.8H367.477M352.818 585H367.477M367.477 1V30.2M367.477 1H382.136M367.477 30.2V59.4M367.477 30.2H382.136M367.477 59.4V88.6M367.477 59.4H382.136M367.477 88.6V117.8M367.477 88.6H382.136M367.477 117.8V147M367.477 117.8H382.136M367.477 147V176.2M367.477 147H382.136M367.477 176.2V205.4M367.477 176.2H382.136M367.477 205.4V234.6M367.477 205.4H382.136M367.477 234.6V263.8M367.477 234.6H382.136M367.477 263.8V293M367.477 263.8H382.136M367.477 293V322.2M367.477 293H382.136M367.477 322.2V351.4M367.477 322.2H382.136M367.477 351.4V380.6M367.477 351.4H382.136M367.477 380.6V409.8M367.477 380.6H382.136M367.477 409.8V439M367.477 409.8H382.136M367.477 439V468.2M367.477 439H382.136M367.477 468.2V497.4M367.477 468.2H382.136M367.477 497.4V526.6M367.477 497.4H382.136M367.477 526.6V555.8M367.477 526.6H382.136M367.477 555.8V585M367.477 555.8H382.136M367.477 585H382.136M382.136 1V30.2M382.136 1H396.795M382.136 30.2V59.4M382.136 30.2H396.795M382.136 59.4V88.6M382.136 59.4H396.795M382.136 88.6V117.8M382.136 88.6H396.795M382.136 117.8V147M382.136 117.8H396.795M382.136 147V176.2M382.136 147H396.795M382.136 176.2V205.4M382.136 176.2H396.795M382.136 205.4V234.6M382.136 205.4H396.795M382.136 234.6V263.8M382.136 234.6H396.795M382.136 263.8V293M382.136 263.8H396.795M382.136 293V322.2M382.136 293H396.795M382.136 322.2V351.4M382.136 322.2H396.795M382.136 351.4V380.6M382.136 351.4H396.795M382.136 380.6V409.8M382.136 380.6H396.795M382.136 409.8V439M382.136 409.8H396.795M382.136 439V468.2M382.136 439H396.795M382.136 468.2V497.4M382.136 468.2H396.795M382.136 497.4V526.6M382.136 497.4H396.795M382.136 526.6V555.8M382.136 526.6H396.795M382.136 555.8V585M382.136 555.8H396.795M382.136 585H396.795M396.795 1V30.2M396.795 1H411.455M396.795 30.2V59.4M396.795 30.2H411.455M396.795 59.4V88.6M396.795 59.4H411.455M396.795 88.6V117.8M396.795 88.6H411.455M396.795 117.8V147M396.795 117.8H411.455M396.795 147V176.2M396.795 147H411.455M396.795 176.2V205.4M396.795 176.2H411.455M396.795 205.4V234.6M396.795 205.4H411.455M396.795 234.6V263.8M396.795 234.6H411.455M396.795 263.8V293M396.795 263.8H411.455M396.795 293V322.2M396.795 293H411.455M396.795 322.2V351.4M396.795 322.2H411.455M396.795 351.4V380.6M396.795 351.4H411.455M396.795 380.6V409.8M396.795 380.6H411.455M396.795 409.8V439M396.795 409.8H411.455M396.795 439V468.2M396.795 439H411.455M396.795 468.2V497.4M396.795 468.2H411.455M396.795 497.4V526.6M396.795 497.4H411.455M396.795 526.6V555.8M396.795 526.6H411.455M396.795 555.8V585M396.795 555.8H411.455M396.795 585H411.455M411.455 1V30.2M411.455 1H426.114M411.455 30.2V59.4M411.455 30.2H426.114M411.455 59.4V88.6M411.455 59.4H426.114M411.455 88.6V117.8M411.455 88.6H426.114M411.455 117.8V147M411.455 117.8H426.114M411.455 147V176.2M411.455 147H426.114M411.455 176.2V205.4M411.455 176.2H426.114M411.455 205.4V234.6M411.455 205.4H426.114M411.455 234.6V263.8M411.455 234.6H426.114M411.455 263.8V293M411.455 263.8H426.114M411.455 293V322.2M411.455 293H426.114M411.455 322.2V351.4M411.455 322.2H426.114M411.455 351.4V380.6M411.455 351.4H426.114M411.455 380.6V409.8M411.455 380.6H426.114M411.455 409.8V439M411.455 409.8H426.114M411.455 439V468.2M411.455 439H426.114M411.455 468.2V497.4M411.455 468.2H426.114M411.455 497.4V526.6M411.455 497.4H426.114M411.455 526.6V555.8M411.455 526.6H426.114M411.455 555.8V585M411.455 555.8H426.114M411.455 585H426.114M426.114 1V30.2M426.114 1H440.773M426.114 30.2V59.4M426.114 30.2H440.773M426.114 59.4V88.6M426.114 59.4H440.773M426.114 88.6V117.8M426.114 88.6H440.773M426.114 117.8V147M426.114 117.8H440.773M426.114 147V176.2M426.114 147H440.773M426.114 176.2V205.4M426.114 176.2H440.773M426.114 205.4V234.6M426.114 205.4H440.773M426.114 234.6V263.8M426.114 234.6H440.773M426.114 263.8V293M426.114 263.8H440.773M426.114 293V322.2M426.114 293H440.773M426.114 322.2V351.4M426.114 322.2H440.773M426.114 351.4V380.6M426.114 351.4H440.773M426.114 380.6V409.8M426.114 380.6H440.773M426.114 409.8V439M426.114 409.8H440.773M426.114 439V468.2M426.114 439H440.773M426.114 468.2V497.4M426.114 468.2H440.773M426.114 497.4V526.6M426.114 497.4H440.773M426.114 526.6V555.8M426.114 526.6H440.773M426.114 555.8V585M426.114 555.8H440.773M426.114 585H440.773M440.773 1V30.2M440.773 1H455.432M440.773 30.2V59.4M440.773 30.2H455.432M440.773 59.4V88.6M440.773 59.4H455.432M440.773 88.6V117.8M440.773 88.6H455.432M440.773 117.8V147M440.773 117.8H455.432M440.773 147V176.2M440.773 147H455.432M440.773 176.2V205.4M440.773 176.2H455.432M440.773 205.4V234.6M440.773 205.4H455.432M440.773 234.6V263.8M440.773 234.6H455.432M440.773 263.8V293M440.773 263.8H455.432M440.773 293V322.2M440.773 293H455.432M440.773 322.2V351.4M440.773 322.2H455.432M440.773 351.4V380.6M440.773 351.4H455.432M440.773 380.6V409.8M440.773 380.6H455.432M440.773 409.8V439M440.773 409.8H455.432M440.773 439V468.2M440.773 439H455.432M440.773 468.2V497.4M440.773 468.2H455.432M440.773 497.4V526.6M440.773 497.4H455.432M440.773 526.6V555.8M440.773 526.6H455.432M440.773 555.8V585M440.773 555.8H455.432M440.773 585H455.432M455.432 1V30.2M455.432 1H470.091M455.432 30.2V59.4M455.432 30.2H470.091M455.432 59.4V88.6M455.432 59.4H470.091M455.432 88.6V117.8M455.432 88.6H470.091M455.432 117.8V147M455.432 117.8H470.091M455.432 147V176.2M455.432 147H470.091M455.432 176.2V205.4M455.432 176.2H470.091M455.432 205.4V234.6M455.432 205.4H470.091M455.432 234.6V263.8M455.432 234.6H470.091M455.432 263.8V293M455.432 263.8H470.091M455.432 293V322.2M455.432 293H470.091M455.432 322.2V351.4M455.432 322.2H470.091M455.432 351.4V380.6M455.432 351.4H470.091M455.432 380.6V409.8M455.432 380.6H470.091M455.432 409.8V439M455.432 409.8H470.091M455.432 439V468.2M455.432 439H470.091M455.432 468.2V497.4M455.432 468.2H470.091M455.432 497.4V526.6M455.432 497.4H470.091M455.432 526.6V555.8M455.432 526.6H470.091M455.432 555.8V585M455.432 555.8H470.091M455.432 585H470.091M470.091 1V30.2M470.091 1H484.75M470.091 30.2V59.4M470.091 30.2H484.75M470.091 59.4V88.6M470.091 59.4H484.75M470.091 88.6V117.8M470.091 88.6H484.75M470.091 117.8V147M470.091 117.8H484.75M470.091 147V176.2M470.091 147H484.75M470.091 176.2V205.4M470.091 176.2H484.75M470.091 205.4V234.6M470.091 205.4H484.75M470.091 234.6V263.8M470.091 234.6H484.75M470.091 263.8V293M470.091 263.8H484.75M470.091 293V322.2M470.091 293H484.75M470.091 322.2V351.4M470.091 322.2H484.75M470.091 351.4V380.6M470.091 351.4H484.75M470.091 380.6V409.8M470.091 380.6H484.75M470.091 409.8V439M470.091 409.8H484.75M470.091 439V468.2M470.091 439H484.75M470.091 468.2V497.4M470.091 468.2H484.75M470.091 497.4V526.6M470.091 497.4H484.75M470.091 526.6V555.8M470.091 526.6H484.75M470.091 555.8V585M470.091 555.8H484.75M470.091 585H484.75M484.75 1V30.2M484.75 1H499.409M484.75 30.2V59.4M484.75 30.2H499.409M484.75 59.4V88.6M484.75 59.4H499.409M484.75 88.6V117.8M484.75 88.6H499.409M484.75 117.8V147M484.75 117.8H499.409M484.75 147V176.2M484.75 147H499.409M484.75 176.2V205.4M484.75 176.2H499.409M484.75 205.4V234.6M484.75 205.4H499.409M484.75 234.6V263.8M484.75 234.6H499.409M484.75 263.8V293M484.75 263.8H499.409M484.75 293V322.2M484.75 293H499.409M484.75 322.2V351.4M484.75 322.2H499.409M484.75 351.4V380.6M484.75 351.4H499.409M484.75 380.6V409.8M484.75 380.6H499.409M484.75 409.8V439M484.75 409.8H499.409M484.75 439V468.2M484.75 439H499.409M484.75 468.2V497.4M484.75 468.2H499.409M484.75 497.4V526.6M484.75 497.4H499.409M484.75 526.6V555.8M484.75 526.6H499.409M484.75 555.8V585M484.75 555.8H499.409M484.75 585H499.409M499.409 1V30.2M499.409 1H514.068M499.409 30.2V59.4M499.409 30.2H514.068M499.409 59.4V88.6M499.409 59.4H514.068M499.409 88.6V117.8M499.409 88.6H514.068M499.409 117.8V147M499.409 117.8H514.068M499.409 147V176.2M499.409 147H514.068M499.409 176.2V205.4M499.409 176.2H514.068M499.409 205.4V234.6M499.409 205.4H514.068M499.409 234.6V263.8M499.409 234.6H514.068M499.409 263.8V293M499.409 263.8H514.068M499.409 293V322.2M499.409 293H514.068M499.409 322.2V351.4M499.409 322.2H514.068M499.409 351.4V380.6M499.409 351.4H514.068M499.409 380.6V409.8M499.409 380.6H514.068M499.409 409.8V439M499.409 409.8H514.068M499.409 439V468.2M499.409 439H514.068M499.409 468.2V497.4M499.409 468.2H514.068M499.409 497.4V526.6M499.409 497.4H514.068M499.409 526.6V555.8M499.409 526.6H514.068M499.409 555.8V585M499.409 555.8H514.068M499.409 585H514.068M514.068 1V30.2M514.068 1H528.727M514.068 30.2V59.4M514.068 30.2H528.727M514.068 59.4V88.6M514.068 59.4H528.727M514.068 88.6V117.8M514.068 88.6H528.727M514.068 117.8V147M514.068 117.8H528.727M514.068 147V176.2M514.068 147H528.727M514.068 176.2V205.4M514.068 176.2H528.727M514.068 205.4V234.6M514.068 205.4H528.727M514.068 234.6V263.8M514.068 234.6H528.727M514.068 263.8V293M514.068 263.8H528.727M514.068 293V322.2M514.068 293H528.727M514.068 322.2V351.4M514.068 322.2H528.727M514.068 351.4V380.6M514.068 351.4H528.727M514.068 380.6V409.8M514.068 380.6H528.727M514.068 409.8V439M514.068 409.8H528.727M514.068 439V468.2M514.068 439H528.727M514.068 468.2V497.4M514.068 468.2H528.727M514.068 497.4V526.6M514.068 497.4H528.727M514.068 526.6V555.8M514.068 526.6H528.727M514.068 555.8V585M514.068 555.8H528.727M514.068 585H528.727M528.727 1V30.2M528.727 1H543.386M528.727 30.2V59.4M528.727 30.2H543.386M528.727 59.4V88.6M528.727 59.4H543.386M528.727 88.6V117.8M528.727 88.6H543.386M528.727 117.8V147M528.727 117.8H543.386M528.727 147V176.2M528.727 147H543.386M528.727 176.2V205.4M528.727 176.2H543.386M528.727 205.4V234.6M528.727 205.4H543.386M528.727 234.6V263.8M528.727 234.6H543.386M528.727 263.8V293M528.727 263.8H543.386M528.727 293V322.2M528.727 293H543.386M528.727 322.2V351.4M528.727 322.2H543.386M528.727 351.4V380.6M528.727 351.4H543.386M528.727 380.6V409.8M528.727 380.6H543.386M528.727 409.8V439M528.727 409.8H543.386M528.727 439V468.2M528.727 439H543.386M528.727 468.2V497.4M528.727 468.2H543.386M528.727 497.4V526.6M528.727 497.4H543.386M528.727 526.6V555.8M528.727 526.6H543.386M528.727 555.8V585M528.727 555.8H543.386M528.727 585H543.386M543.386 1V30.2M543.386 1H558.045M543.386 30.2V59.4M543.386 30.2H558.045M543.386 59.4V88.6M543.386 59.4H558.045M543.386 88.6V117.8M543.386 88.6H558.045M543.386 117.8V147M543.386 117.8H558.045M543.386 147V176.2M543.386 147H558.045M543.386 176.2V205.4M543.386 176.2H558.045M543.386 205.4V234.6M543.386 205.4H558.045M543.386 234.6V263.8M543.386 234.6H558.045M543.386 263.8V293M543.386 263.8H558.045M543.386 293V322.2M543.386 293H558.045M543.386 322.2V351.4M543.386 322.2H558.045M543.386 351.4V380.6M543.386 351.4H558.045M543.386 380.6V409.8M543.386 380.6H558.045M543.386 409.8V439M543.386 409.8H558.045M543.386 439V468.2M543.386 439H558.045M543.386 468.2V497.4M543.386 468.2H558.045M543.386 497.4V526.6M543.386 497.4H558.045M543.386 526.6V555.8M543.386 526.6H558.045M543.386 555.8V585M543.386 555.8H558.045M543.386 585H558.045M558.045 1V30.2M558.045 1H572.705M558.045 30.2V59.4M558.045 30.2H572.705M558.045 59.4V88.6M558.045 59.4H572.705M558.045 88.6V117.8M558.045 88.6H572.705M558.045 117.8V147M558.045 117.8H572.705M558.045 147V176.2M558.045 147H572.705M558.045 176.2V205.4M558.045 176.2H572.705M558.045 205.4V234.6M558.045 205.4H572.705M558.045 234.6V263.8M558.045 234.6H572.705M558.045 263.8V293M558.045 263.8H572.705M558.045 293V322.2M558.045 293H572.705M558.045 322.2V351.4M558.045 322.2H572.705M558.045 351.4V380.6M558.045 351.4H572.705M558.045 380.6V409.8M558.045 380.6H572.705M558.045 409.8V439M558.045 409.8H572.705M558.045 439V468.2M558.045 439H572.705M558.045 468.2V497.4M558.045 468.2H572.705M558.045 497.4V526.6M558.045 497.4H572.705M558.045 526.6V555.8M558.045 526.6H572.705M558.045 555.8V585M558.045 555.8H572.705M558.045 585H572.705M572.705 1V30.2M572.705 1H587.364M572.705 30.2V59.4M572.705 30.2H587.364M572.705 59.4V88.6M572.705 59.4H587.364M572.705 88.6V117.8M572.705 88.6H587.364M572.705 117.8V147M572.705 117.8H587.364M572.705 147V176.2M572.705 147H587.364M572.705 176.2V205.4M572.705 176.2H587.364M572.705 205.4V234.6M572.705 205.4H587.364M572.705 234.6V263.8M572.705 234.6H587.364M572.705 263.8V293M572.705 263.8H587.364M572.705 293V322.2M572.705 293H587.364M572.705 322.2V351.4M572.705 322.2H587.364M572.705 351.4V380.6M572.705 351.4H587.364M572.705 380.6V409.8M572.705 380.6H587.364M572.705 409.8V439M572.705 409.8H587.364M572.705 439V468.2M572.705 439H587.364M572.705 468.2V497.4M572.705 468.2H587.364M572.705 497.4V526.6M572.705 497.4H587.364M572.705 526.6V555.8M572.705 526.6H587.364M572.705 555.8V585M572.705 555.8H587.364M572.705 585H587.364M587.364 1V30.2M587.364 1H602.023M587.364 30.2V59.4M587.364 30.2H602.023M587.364 59.4V88.6M587.364 59.4H602.023M587.364 88.6V117.8M587.364 88.6H602.023M587.364 117.8V147M587.364 117.8H602.023M587.364 147V176.2M587.364 147H602.023M587.364 176.2V205.4M587.364 176.2H602.023M587.364 205.4V234.6M587.364 205.4H602.023M587.364 234.6V263.8M587.364 234.6H602.023M587.364 263.8V293M587.364 263.8H602.023M587.364 293V322.2M587.364 293H602.023M587.364 322.2V351.4M587.364 322.2H602.023M587.364 351.4V380.6M587.364 351.4H602.023M587.364 380.6V409.8M587.364 380.6H602.023M587.364 409.8V439M587.364 409.8H602.023M587.364 439V468.2M587.364 439H602.023M587.364 468.2V497.4M587.364 468.2H602.023M587.364 497.4V526.6M587.364 497.4H602.023M587.364 526.6V555.8M587.364 526.6H602.023M587.364 555.8V585M587.364 555.8H602.023M587.364 585H602.023M602.023 1V30.2M602.023 1H616.682M602.023 30.2V59.4M602.023 30.2H616.682M602.023 59.4V88.6M602.023 59.4H616.682M602.023 88.6V117.8M602.023 88.6H616.682M602.023 117.8V147M602.023 117.8H616.682M602.023 147V176.2M602.023 147H616.682M602.023 176.2V205.4M602.023 176.2H616.682M602.023 205.4V234.6M602.023 205.4H616.682M602.023 234.6V263.8M602.023 234.6H616.682M602.023 263.8V293M602.023 263.8H616.682M602.023 293V322.2M602.023 293H616.682M602.023 322.2V351.4M602.023 322.2H616.682M602.023 351.4V380.6M602.023 351.4H616.682M602.023 380.6V409.8M602.023 380.6H616.682M602.023 409.8V439M602.023 409.8H616.682M602.023 439V468.2M602.023 439H616.682M602.023 468.2V497.4M602.023 468.2H616.682M602.023 497.4V526.6M602.023 497.4H616.682M602.023 526.6V555.8M602.023 526.6H616.682M602.023 555.8V585M602.023 555.8H616.682M602.023 585H616.682M616.682 1V30.2M616.682 1H631.341M616.682 30.2V59.4M616.682 30.2H631.341M616.682 59.4V88.6M616.682 59.4H631.341M616.682 88.6V117.8M616.682 88.6H631.341M616.682 117.8V147M616.682 117.8H631.341M616.682 147V176.2M616.682 147H631.341M616.682 176.2V205.4M616.682 176.2H631.341M616.682 205.4V234.6M616.682 205.4H631.341M616.682 234.6V263.8M616.682 234.6H631.341M616.682 263.8V293M616.682 263.8H631.341M616.682 293V322.2M616.682 293H631.341M616.682 322.2V351.4M616.682 322.2H631.341M616.682 351.4V380.6M616.682 351.4H631.341M616.682 380.6V409.8M616.682 380.6H631.341M616.682 409.8V439M616.682 409.8H631.341M616.682 439V468.2M616.682 439H631.341M616.682 468.2V497.4M616.682 468.2H631.341M616.682 497.4V526.6M616.682 497.4H631.341M616.682 526.6V555.8M616.682 526.6H631.341M616.682 555.8V585M616.682 555.8H631.341M616.682 585H631.341M631.341 1V30.2M631.341 1H646V30.2M631.341 30.2V59.4M631.341 30.2H646M631.341 59.4V88.6M631.341 59.4H646M631.341 88.6V117.8M631.341 88.6H646M631.341 117.8V147M631.341 117.8H646M631.341 147V176.2M631.341 147H646M631.341 176.2V205.4M631.341 176.2H646M631.341 205.4V234.6M631.341 205.4H646M631.341 234.6V263.8M631.341 234.6H646M631.341 263.8V293M631.341 263.8H646M631.341 293V322.2M631.341 293H646M631.341 322.2V351.4M631.341 322.2H646M631.341 351.4V380.6M631.341 351.4H646M631.341 380.6V409.8M631.341 380.6H646M631.341 409.8V439M631.341 409.8H646M631.341 439V468.2M631.341 439H646M631.341 468.2V497.4M631.341 468.2H646M631.341 497.4V526.6M631.341 497.4H646M631.341 526.6V555.8M631.341 526.6H646M631.341 555.8V585M631.341 555.8H646M631.341 585H646V555.8M646 30.2V59.4M646 59.4V88.6M646 88.6V117.8M646 117.8V147M646 147V176.2M646 176.2V205.4M646 205.4V234.6M646 234.6V263.8M646 263.8V293M646 293V322.2M646 322.2V351.4M646 351.4V380.6M646 380.6V409.8M646 409.8V439M646 439V468.2M646 468.2V497.4M646 497.4V526.6M646 526.6V555.8"
                                        stroke="url(#paint0_radial_3416_11549)" />
                                </g>
                                <defs>
                                    <radialGradient id="paint0_radial_3416_11549" cx="0" cy="0" r="1"
                                        gradientUnits="userSpaceOnUse"
                                        gradientTransform="translate(323.5 293) rotate(90) scale(292 260.424)">
                                        <stop offset="0.377376" stop-color="white" stop-opacity="0.99" />
                                        <stop offset="1" stop-color="white" stop-opacity="0" />
                                    </radialGradient>
                                </defs>
                            </svg>