<svg width="117" height="24" viewBox="0 0 117 24" fill="none" xmlns="http://www.w3.org/2000/svg">
<path fill-rule="evenodd" clip-rule="evenodd" d="M18.9436 23.8267H12.6538L7.93723 6.55968C7.71336 5.7654 7.23803 5.06321 6.53882 4.73226C4.79387 3.90056 2.87106 3.23866 0.773438 2.90483V2.24005H10.9058C12.3042 2.24005 13.353 3.23866 13.5278 4.39843L15.975 16.8537L22.2618 2.24005H28.3767L18.9436 23.8267ZM31.8724 23.8267H25.9322L30.8236 2.24005H36.7638L31.8724 23.8267ZM44.4495 8.2202C44.6243 7.05755 45.6732 6.39277 46.8968 6.39277C48.8196 6.22586 50.9141 6.55969 52.6621 7.3885L53.711 2.7408C51.9629 2.07602 50.0401 1.74219 48.2952 1.74219C42.5298 1.74219 38.3346 4.73226 38.3346 8.8821C38.3346 12.0391 41.3062 13.6967 43.4038 14.6953C45.6732 15.6911 46.5472 16.3558 46.3724 17.3516C46.3724 18.8452 44.6243 19.51 42.8794 19.51C40.7818 19.51 38.6842 19.0121 36.7644 18.1804L35.7156 22.831C37.8132 23.6598 40.0826 23.9936 42.1802 23.9936C48.6448 24.1577 52.6621 21.1705 52.6621 16.6868C52.6621 11.0405 44.4495 10.7095 44.4495 8.2202ZM73.4486 23.8267L68.732 2.24005H63.6659C62.617 2.24005 61.5682 2.90483 61.2186 3.90056L52.4847 23.8267H58.5997L59.8202 20.6726H67.3336L68.0328 23.8267H73.4486ZM64.5429 8.05344L66.2879 16.1891H61.3965L64.5429 8.05344Z" fill="#E6F0ED"/>
<path fill-rule="evenodd" clip-rule="evenodd" d="M94.9277 21.1335C92.6528 22.9209 89.7018 24 86.4773 24C79.2821 24 73.4492 18.6274 73.4492 12C73.4492 5.37258 79.2821 0 86.4773 0C89.7018 0 92.6528 1.07905 94.9277 2.86652C97.2027 1.07905 100.154 0 103.378 0C110.573 0 116.406 5.37258 116.406 12C116.406 18.6274 110.573 24 103.378 24C100.154 24 97.2027 22.9209 94.9277 21.1335Z" fill="#E1E1E1"/>
<path fill-rule="evenodd" clip-rule="evenodd" d="M94.9297 21.1335C97.731 18.9325 99.5073 15.6573 99.5073 12C99.5073 8.34269 97.731 5.06751 94.9297 2.86649C97.2046 1.07904 100.156 0 103.38 0C110.575 0 116.408 5.37258 116.408 12C116.408 18.6274 110.575 24 103.38 24C100.156 24 97.2046 22.921 94.9297 21.1335Z" fill="#CBCBCB"/>
<path fill-rule="evenodd" clip-rule="evenodd" d="M94.9291 21.1341C97.7303 18.9331 99.5066 15.6579 99.5066 12.0006C99.5066 8.34335 97.7304 5.06821 94.9291 2.86719C92.1278 5.06821 90.3516 8.34336 90.3516 12.0006C90.3516 15.6579 92.1278 18.9331 94.9291 21.1341Z" fill="#CBCBCB"/>
</svg>
