<svg width="20" height="17" viewBox="0 0 20 17" fill="none" xmlns="http://www.w3.org/2000/svg">
<path d="M18.8691 3.89125C18.7564 2.40479 17.7566 1.22925 16.4961 1.10181C15.0363 0.958985 12.8737 0.80957 10.2047 0.80957C6.99104 0.80957 4.56405 0.964478 2.99632 1.1095C1.73023 1.22925 0.722007 2.40919 0.609361 3.90224C0.512542 5.09426 0.429688 6.66861 0.429688 8.54619C0.429688 10.3776 0.512542 11.9245 0.607499 13.1011C0.721076 14.592 1.7293 15.7697 2.99353 15.8895C4.56312 16.0356 6.98918 16.1905 10.2047 16.1905C12.8737 16.1905 15.0363 16.0411 16.4961 15.8983C17.7566 15.7708 18.7564 14.5942 18.8691 13.1088C18.965 11.9223 19.0487 10.3578 19.0487 8.50005C19.0487 6.64115 18.965 5.07778 18.8691 3.89125ZM7.66877 11.7289V5.27114L13.0664 8.50005L7.66877 11.7289Z" fill="white"/>
</svg>
