<svg width="96" height="96" viewBox="0 0 96 96" fill="none" xmlns="http://www.w3.org/2000/svg">
<g clip-path="url(#clip0_331_9167)">
<path d="M73.1137 87.2177L56.9881 77.9068C55.1679 76.8567 53.6954 74.0396 53.6954 71.6135V28.6657C53.6954 27.4321 52.6815 27.1594 53.2947 26.7176C53.3188 26.7007 55.7546 25.6072 55.7835 25.5975C56.445 25.344 57.1523 25.2306 58.0116 25.7279L74.1373 35.0387C75.9574 36.0888 77.43 38.906 77.43 41.3321V84.2798C77.43 85.5689 77.0148 86.4862 76.3509 86.9087C76.3123 86.9328 73.5845 88.1954 73.541 88.2099C72.952 88.4054 73.9103 87.6812 73.1161 87.2201L73.1137 87.2177Z" fill="#AFB6E5"/>
<path d="M73.1137 87.2177L56.9881 77.9069C55.1679 76.8568 53.6954 74.0396 53.6954 71.6135V28.6658C53.6954 27.4322 52.6815 27.1594 53.2947 26.7176C53.3188 26.7007 55.7159 25.6217 55.7425 25.612C56.4039 25.3585 57.1112 25.2451 57.9706 25.7424L74.0962 35.0532C75.9164 36.1033 77.3889 38.9205 77.3889 41.3466V84.2944C77.3889 85.5835 76.9737 86.5008 76.3099 86.9232C76.2712 86.9474 73.582 88.1954 73.5386 88.2099C72.9496 88.4054 73.9079 87.6812 73.1137 87.2202V87.2177Z" fill="url(#paint0_linear_331_9167)"/>
<path d="M73.1137 87.2177L56.9881 77.9068C55.1679 76.8567 53.6954 74.0395 53.6954 71.6135V28.6657C53.6954 27.4321 52.6815 27.1593 53.2947 26.7176C53.3188 26.7007 55.6773 25.6361 55.7039 25.6264C56.3653 25.373 57.0726 25.2595 57.932 25.7568L74.0576 35.0677C75.8778 36.1177 77.3503 38.9349 77.3503 41.361V84.3088C77.3503 85.5979 76.9351 86.5152 76.2712 86.9376C76.2326 86.9618 73.5845 88.1929 73.541 88.2098C72.952 88.4054 73.9103 87.6812 73.1161 87.2201L73.1137 87.2177Z" fill="url(#paint1_linear_331_9167)"/>
<path d="M73.1137 87.2177L56.9881 77.9068C55.1679 76.8567 53.6954 74.0396 53.6954 71.6135V28.6657C53.6954 27.4322 52.6815 27.1594 53.2947 26.7176C53.3188 26.7007 55.6363 25.653 55.6628 25.641C56.3243 25.3875 57.0316 25.274 57.8909 25.7713L74.0166 35.0822C75.8367 36.1323 77.3093 38.9494 77.3093 41.3755V84.3233C77.3093 85.6124 76.8941 86.5297 76.2302 86.9522C76.1916 86.9763 73.582 88.193 73.5386 88.2075C72.9496 88.403 73.9079 87.6788 73.1137 87.2177Z" fill="url(#paint2_linear_331_9167)"/>
<path d="M73.1137 87.2178L56.9881 77.9069C55.1679 76.8568 53.6954 74.0396 53.6954 71.6135V28.6658C53.6954 27.4322 52.6815 27.1594 53.2947 26.7177C53.3188 26.7008 55.5976 25.6675 55.6242 25.6555C56.2856 25.402 56.9929 25.2885 57.8523 25.7858L73.9779 35.0967C75.7981 36.1468 77.2706 38.964 77.2706 41.39V84.3378C77.2706 85.6269 76.8554 86.5442 76.1916 86.9667C76.153 86.9908 73.5845 88.193 73.541 88.2075C72.952 88.403 73.9103 87.6788 73.1161 87.2178H73.1137Z" fill="url(#paint3_linear_331_9167)"/>
<path d="M73.1137 87.2177L56.9881 77.9068C55.1679 76.8567 53.6954 74.0396 53.6954 71.6135V28.6657C53.6954 27.4321 52.6815 27.1594 53.2947 26.7176C53.3188 26.7007 55.5566 25.682 55.5832 25.6723C56.2446 25.4189 56.9519 25.3054 57.8113 25.8027L73.9369 35.1135C75.7571 36.1636 77.2296 38.9808 77.2296 41.4069V84.3547C77.2296 85.6438 76.8144 86.5611 76.1505 86.9835C76.1119 87.0077 73.582 88.1954 73.5386 88.2099C72.9496 88.4054 73.9079 87.6812 73.1137 87.2201V87.2177Z" fill="url(#paint4_linear_331_9167)"/>
<path d="M73.1137 87.2177L56.9881 77.9069C55.1679 76.8568 53.6954 74.0396 53.6954 71.6135V28.6657C53.6954 27.4322 52.6815 27.1594 53.2947 26.7176C53.3188 26.7007 55.518 25.6965 55.5445 25.6869C56.206 25.4334 56.9133 25.3199 57.7727 25.8172L73.8983 35.1281C75.7184 36.1782 77.191 38.9953 77.191 41.4214V84.3692C77.191 85.6583 76.7758 86.5756 76.1119 86.9981C76.0733 87.0222 73.5844 88.1954 73.5386 88.2099C72.9496 88.4054 73.9079 87.6812 73.1137 87.2202V87.2177Z" fill="url(#paint5_linear_331_9167)"/>
<path d="M73.1137 87.2177L56.9881 77.9068C55.1679 76.8567 53.6954 74.0395 53.6954 71.6135V28.6657C53.6954 27.4321 52.6815 27.1593 53.2947 26.7176C53.3188 26.7007 55.4769 25.7109 55.5035 25.7013C56.1649 25.4478 56.8722 25.3343 57.7316 25.8316L73.8572 35.1425C75.6774 36.1926 77.1499 39.0097 77.1499 41.4358V84.3836C77.1499 85.6727 76.7347 86.59 76.0709 87.0125C76.0323 87.0366 73.582 88.1953 73.5386 88.2098C72.9496 88.4054 73.9079 87.6812 73.1137 87.2201V87.2177Z" fill="url(#paint6_linear_331_9167)"/>
<path d="M73.1137 87.2177L56.9881 77.9068C55.1679 76.8567 53.6954 74.0396 53.6954 71.6135V28.6657C53.6954 27.4321 52.6815 27.1594 53.2947 26.7176C53.3188 26.7007 55.4383 25.7254 55.4649 25.7158C56.1263 25.4623 56.8336 25.3489 57.693 25.8461L73.8186 35.157C75.6388 36.2071 77.1113 39.0243 77.1113 41.4504V84.3981C77.1113 85.6872 76.6961 86.6045 76.0323 87.027C75.9936 87.0511 73.5844 88.1954 73.5386 88.2099C72.9496 88.4054 73.9079 87.6812 73.1137 87.2201V87.2177Z" fill="url(#paint7_linear_331_9167)"/>
<path d="M73.1137 87.2177L56.9881 77.9069C55.1679 76.8568 53.6954 74.0396 53.6954 71.6135V28.6658C53.6954 27.4322 52.6815 27.1594 53.2947 26.7176C53.3188 26.7007 55.3973 25.74 55.4238 25.7303C56.0853 25.4768 56.7926 25.3634 57.652 25.8607L73.7776 35.1715C75.5977 36.2216 77.0703 39.0388 77.0703 41.4649V84.4127C77.0703 85.7017 76.6551 86.6191 75.9912 87.0415C75.9526 87.0657 73.582 88.1954 73.5386 88.2099C72.9496 88.4054 73.9079 87.6812 73.1137 87.2202V87.2177Z" fill="url(#paint8_linear_331_9167)"/>
<path d="M73.1137 87.2177L56.9881 77.9068C55.1679 76.8567 53.6954 74.0395 53.6954 71.6135V28.6657C53.6954 27.4321 52.6815 27.1593 53.2947 26.7176C53.3188 26.7007 55.3586 25.7544 55.3852 25.7447C56.0466 25.4912 56.7539 25.3778 57.6133 25.8751L73.739 35.1859C75.5591 36.236 77.0317 39.0532 77.0317 41.4793V84.4271C77.0317 85.7161 76.6165 86.6335 75.9526 87.0559C75.914 87.0801 73.582 88.1953 73.5386 88.2098C72.9496 88.4054 73.9079 87.6812 73.1137 87.2201V87.2177Z" fill="url(#paint9_linear_331_9167)"/>
<path d="M73.1137 87.2177L56.9881 77.9068C55.1679 76.8567 53.6954 74.0396 53.6954 71.6135V28.6657C53.6954 27.4322 52.6815 27.1594 53.2947 26.7176C53.3188 26.7007 55.3176 25.7689 55.3442 25.7592C56.0056 25.5058 56.7129 25.3923 57.5723 25.8896L73.6979 35.2005C75.5181 36.2506 76.9906 39.0677 76.9906 41.4938V84.4416C76.9906 85.7307 76.5754 86.648 75.9116 87.0705C75.8729 87.0946 73.582 88.1954 73.5386 88.2099C72.9496 88.4054 73.9079 87.6812 73.1137 87.2201V87.2177Z" fill="url(#paint10_linear_331_9167)"/>
<path d="M73.1137 87.2178L56.9881 77.9069C55.1679 76.8568 53.6954 74.0396 53.6954 71.6135V28.6658C53.6954 27.4322 52.6815 27.1594 53.2947 26.7176C53.3188 26.7008 55.279 25.7858 55.3055 25.7738C55.967 25.5203 56.6743 25.4068 57.5337 25.9041L73.6593 35.215C75.4795 36.2651 76.952 39.0822 76.952 41.5083V84.4561C76.952 85.7452 76.5368 86.6625 75.8729 87.085C75.8343 87.1091 73.582 88.193 73.5386 88.2075C72.9496 88.403 73.9079 87.6788 73.1137 87.2178Z" fill="url(#paint11_linear_331_9167)"/>
<path d="M73.1137 87.2177L56.9881 77.9068C55.1679 76.8567 53.6954 74.0395 53.6954 71.6135V28.6657C53.6954 27.4321 52.6815 27.1593 53.2947 26.7176C53.3188 26.7007 55.2379 25.8002 55.2645 25.7882C55.9259 25.5347 56.6332 25.4212 57.4926 25.9185L73.6183 35.2294C75.4384 36.2795 76.911 39.0966 76.911 41.5227V84.4705C76.911 85.7596 76.4957 86.6769 75.8319 87.0994C75.7933 87.1235 73.582 88.1929 73.5386 88.2074C72.9496 88.4029 73.9079 87.6787 73.1137 87.2177Z" fill="url(#paint12_linear_331_9167)"/>
<path d="M73.1137 87.2177L56.9881 77.9068C55.1679 76.8567 53.6954 74.0396 53.6954 71.6135V28.6657C53.6954 27.4322 52.6815 27.1594 53.2947 26.7176C53.3188 26.7007 55.1993 25.8148 55.2259 25.8027C55.8873 25.5492 56.5946 25.4358 57.454 25.9331L73.5796 35.2439C75.3998 36.294 76.8723 39.1112 76.8723 41.5373V84.485C76.8723 85.7741 76.4571 86.6915 75.7933 87.1139C75.7546 87.138 73.582 88.193 73.5386 88.2075C72.9496 88.403 73.9079 87.6788 73.1137 87.2177Z" fill="url(#paint13_linear_331_9167)"/>
<path d="M73.1137 87.2177L56.9881 77.9068C55.1679 76.8567 53.6954 74.0395 53.6954 71.6134V28.6657C53.6954 27.4321 52.6815 27.1593 53.2947 26.7176C53.3188 26.7007 55.1583 25.8292 55.1872 25.8195C55.8487 25.5661 56.556 25.4526 57.4154 25.9499L73.541 35.2608C75.3612 36.3109 76.8337 39.128 76.8337 41.5541V84.5019C76.8337 85.791 76.4185 86.7083 75.7546 87.1308C75.716 87.1549 73.5845 88.1953 73.541 88.2098C72.952 88.4054 73.9103 87.6812 73.1161 87.2201L73.1137 87.2177Z" fill="url(#paint14_linear_331_9167)"/>
<path d="M73.1137 87.2177L56.9881 77.9068C55.1679 76.8567 53.6954 74.0396 53.6954 71.6135V28.6657C53.6954 27.4321 52.6815 27.1594 53.2947 26.7176C53.3188 26.7007 55.1197 25.8437 55.1462 25.8341C55.8077 25.5806 56.515 25.4671 57.3743 25.9644L73.5 35.2753C75.3201 36.3254 76.7927 39.1425 76.7927 41.5686V84.5164C76.7927 85.8055 76.3775 86.7228 75.7136 87.1453C75.675 87.1694 73.582 88.1954 73.5386 88.2099C72.9496 88.4054 73.9079 87.6812 73.1137 87.2201V87.2177Z" fill="url(#paint15_linear_331_9167)"/>
<path d="M73.1137 87.2177L56.9881 77.9069C55.1679 76.8568 53.6954 74.0396 53.6954 71.6135V28.6657C53.6954 27.4322 52.6815 27.1594 53.2947 26.7176C53.3188 26.7007 55.081 25.8582 55.1076 25.8486C55.769 25.5951 56.4763 25.4817 57.3357 25.979L73.4613 35.2898C75.2815 36.3399 76.7541 39.1571 76.7541 41.5832V84.5309C76.7541 85.82 76.3388 86.7374 75.675 87.1598C75.6364 87.1839 73.5845 88.1954 73.541 88.2099C72.952 88.4054 73.9103 87.6812 73.1161 87.2202L73.1137 87.2177Z" fill="url(#paint16_linear_331_9167)"/>
<path d="M73.1137 87.2177L56.9881 77.9068C55.1679 76.8567 53.6954 74.0395 53.6954 71.6135V28.6657C53.6954 27.4321 52.6815 27.1593 53.2947 26.7176C53.3188 26.7007 55.04 25.8727 55.0665 25.863C55.728 25.6095 56.4353 25.4961 57.2947 25.9934L73.4203 35.3042C75.2405 36.3543 76.713 39.1715 76.713 41.5976V84.5453C76.713 85.8344 76.2978 86.7518 75.6339 87.1742C75.5953 87.1984 73.582 88.1953 73.5386 88.2098C72.9496 88.4054 73.9079 87.6812 73.1137 87.2201V87.2177Z" fill="url(#paint17_linear_331_9167)"/>
<path d="M73.1137 87.2177L56.9881 77.9068C55.1679 76.8567 53.6954 74.0396 53.6954 71.6135V28.6657C53.6954 27.4321 52.6815 27.1594 53.2947 26.7176C53.3188 26.7007 55.0014 25.8872 55.0279 25.8775C55.6894 25.6241 56.3967 25.5106 57.2561 26.0079L73.3817 35.3187C75.2018 36.3688 76.6744 39.186 76.6744 41.6121V84.5599C76.6744 85.849 76.2592 86.7663 75.5953 87.1887C75.5567 87.2129 73.5845 88.1954 73.541 88.2099C72.952 88.4054 73.9103 87.6812 73.1161 87.2201L73.1137 87.2177Z" fill="url(#paint18_linear_331_9167)"/>
<path d="M73.1137 87.2177L56.9881 77.9069C55.1679 76.8568 53.6954 74.0396 53.6954 71.6135V28.6658C53.6954 27.4322 52.6815 27.1594 53.2947 26.7176C53.3188 26.7007 54.9603 25.9017 54.9869 25.8921C55.6483 25.6386 56.3556 25.5251 57.215 26.0224L73.3406 35.3333C75.1608 36.3834 76.6334 39.2005 76.6334 41.6266V84.5744C76.6334 85.8635 76.2181 86.7808 75.5543 87.2033C75.5157 87.2274 73.582 88.1954 73.5386 88.2099C72.9496 88.4054 73.9079 87.6812 73.1137 87.2202V87.2177Z" fill="url(#paint19_linear_331_9167)"/>
<path d="M73.1137 87.2177L56.9881 77.9068C55.1679 76.8567 53.6954 74.0395 53.6954 71.6135V28.6657C53.6954 27.4321 52.6815 27.1593 53.2947 26.7176C53.3188 26.7007 54.9217 25.9161 54.9483 25.9065C55.6097 25.653 56.317 25.5395 57.1764 26.0368L73.302 35.3477C75.1222 36.3978 76.5947 39.2149 76.5947 41.641V84.5888C76.5947 85.8779 76.1795 86.7952 75.5157 87.2177C75.477 87.2418 73.5844 88.1929 73.5386 88.2098C72.9496 88.4054 73.9079 87.6812 73.1137 87.2201V87.2177Z" fill="url(#paint20_linear_331_9167)"/>
<path d="M71.5736 87.9467L55.448 78.6359C53.6278 77.5858 52.1553 74.7686 52.1553 72.3425V29.3948C52.1553 26.9687 53.6302 25.8534 55.448 26.9059L71.5736 36.2168C73.3938 37.2669 74.8663 40.084 74.8663 42.5101V85.4579C74.8663 87.884 73.3913 88.9993 71.5736 87.9467Z" fill="white"/>
<path d="M72.8823 88.0168C72.5274 88.0168 72.1412 87.8985 71.738 87.6643L55.6124 78.3535C53.8864 77.3565 52.4814 74.66 52.4814 72.3426V29.3948C52.4814 27.8402 53.1332 26.8359 54.1423 26.8359C54.4971 26.8359 54.8834 26.9542 55.2865 27.1884L71.4121 36.4992C73.1382 37.4962 74.5431 40.1927 74.5431 42.5102V85.4579C74.5431 87.0126 73.8913 88.0168 72.8823 88.0168Z" fill="url(#paint21_linear_331_9167)"/>
<path d="M53.2441 72.8905V30.1093C53.2441 28.3301 54.3256 27.5118 55.6606 28.2818L71.3589 37.3465C72.6938 38.1165 73.7753 40.1854 73.7753 41.9645V84.7457C73.7753 86.5248 72.6938 87.3432 71.3589 86.5731L55.6606 77.5085C54.3256 76.7384 53.2441 74.6696 53.2441 72.8905Z" fill="#AFB6E5"/>
<path d="M55.8433 28.755C54.5856 28.0284 53.5645 28.6101 53.5645 30.0537V73.3177C53.5645 74.7613 54.5832 76.5211 55.8433 77.2478L71.1771 86.1024C72.4348 86.829 73.4559 86.2472 73.4559 84.8036V41.5396C73.4559 40.096 72.4372 38.3362 71.1771 37.6096L55.8433 28.755Z" fill="url(#paint22_linear_331_9167)"/>
<path style="mix-blend-mode:color-dodge" d="M87.4944 58.3195C88.2183 58.3195 88.8052 57.7326 88.8052 57.0087C88.8052 56.2847 88.2183 55.6979 87.4944 55.6979C86.7705 55.6979 86.1836 56.2847 86.1836 57.0087C86.1836 57.7326 86.7705 58.3195 87.4944 58.3195Z" fill="url(#paint23_radial_331_9167)"/>
<path style="mix-blend-mode:color-dodge" d="M93.8245 51.7412C94.5484 51.7412 95.1353 51.1544 95.1353 50.4304C95.1353 49.7065 94.5484 49.1196 93.8245 49.1196C93.1005 49.1196 92.5137 49.7065 92.5137 50.4304C92.5137 51.1544 93.1005 51.7412 93.8245 51.7412Z" fill="url(#paint24_radial_331_9167)"/>
<path style="mix-blend-mode:color-dodge" d="M95.6133 46.4377C96.6332 46.4377 97.46 45.6109 97.46 44.591C97.46 43.5711 96.6332 42.7443 95.6133 42.7443C94.5934 42.7443 93.7666 43.5711 93.7666 44.591C93.7666 45.6109 94.5934 46.4377 95.6133 46.4377Z" fill="url(#paint25_radial_331_9167)"/>
<path style="mix-blend-mode:color-dodge" d="M92.7229 55.722C93.4469 55.722 94.0337 55.1351 94.0337 54.4112C94.0337 53.6872 93.4469 53.1003 92.7229 53.1003C91.999 53.1003 91.4121 53.6872 91.4121 54.4112C91.4121 55.1351 91.999 55.722 92.7229 55.722Z" fill="url(#paint26_radial_331_9167)"/>
<path style="mix-blend-mode:color-dodge" d="M27.7913 34.7708C28.5152 34.7708 29.1021 34.1839 29.1021 33.46C29.1021 32.736 28.5152 32.1492 27.7913 32.1492C27.0673 32.1492 26.4805 32.736 26.4805 33.46C26.4805 34.1839 27.0673 34.7708 27.7913 34.7708Z" fill="url(#paint27_radial_331_9167)"/>
<path style="mix-blend-mode:color-dodge" d="M34.1204 28.195C34.8443 28.195 35.4312 27.6081 35.4312 26.8842C35.4312 26.1602 34.8443 25.5734 34.1204 25.5734C33.3964 25.5734 32.8096 26.1602 32.8096 26.8842C32.8096 27.6081 33.3964 28.195 34.1204 28.195Z" fill="url(#paint28_radial_331_9167)"/>
<path style="mix-blend-mode:color-dodge" d="M32.2044 32.1733C32.9283 32.1733 33.5152 31.5864 33.5152 30.8624C33.5152 30.1385 32.9283 29.5516 32.2044 29.5516C31.4804 29.5516 30.8936 30.1385 30.8936 30.8624C30.8936 31.5864 31.4804 32.1733 32.2044 32.1733Z" fill="url(#paint29_radial_331_9167)"/>
<path style="mix-blend-mode:color-dodge" d="M51.9993 4.92143C52.7232 4.92143 53.3101 4.33456 53.3101 3.61061C53.3101 2.88667 52.7232 2.2998 51.9993 2.2998C51.2753 2.2998 50.6885 2.88667 50.6885 3.61061C50.6885 4.33456 51.2753 4.92143 51.9993 4.92143Z" fill="url(#paint30_radial_331_9167)"/>
<path style="mix-blend-mode:color-dodge" d="M58.3264 11.4972C59.0504 11.4972 59.6372 10.9104 59.6372 10.1864C59.6372 9.46248 59.0504 8.87561 58.3264 8.87561C57.6025 8.87561 57.0156 9.46248 57.0156 10.1864C57.0156 10.9104 57.6025 11.4972 58.3264 11.4972Z" fill="url(#paint31_radial_331_9167)"/>
<path style="mix-blend-mode:color-dodge" d="M59.3008 17.8726C60.3207 17.8726 61.1475 17.0458 61.1475 16.0259C61.1475 15.006 60.3207 14.1792 59.3008 14.1792C58.2809 14.1792 57.4541 15.006 57.4541 16.0259C57.4541 17.0458 58.2809 17.8726 59.3008 17.8726Z" fill="url(#paint32_radial_331_9167)"/>
<path style="mix-blend-mode:color-dodge" d="M56.4114 7.51896C57.1353 7.51896 57.7222 6.93209 57.7222 6.20815C57.7222 5.48421 57.1353 4.89734 56.4114 4.89734C55.6875 4.89734 55.1006 5.48421 55.1006 6.20815C55.1006 6.93209 55.6875 7.51896 56.4114 7.51896Z" fill="url(#paint33_radial_331_9167)"/>
<path style="mix-blend-mode:color-dodge" d="M62.7415 14.0946C63.4654 14.0946 64.0523 13.5078 64.0523 12.7838C64.0523 12.0599 63.4654 11.473 62.7415 11.473C62.0175 11.473 61.4307 12.0599 61.4307 12.7838C61.4307 13.5078 62.0175 14.0946 62.7415 14.0946Z" fill="url(#paint34_radial_331_9167)"/>
<path style="mix-blend-mode:color-dodge" d="M63.7139 20.4701C64.7338 20.4701 65.5606 19.6433 65.5606 18.6233C65.5606 17.6034 64.7338 16.7766 63.7139 16.7766C62.694 16.7766 61.8672 17.6034 61.8672 18.6233C61.8672 19.6433 62.694 20.4701 63.7139 20.4701Z" fill="url(#paint35_radial_331_9167)"/>
<g filter="url(#filter0_d_331_9167)">
<path d="M61.3472 82.1241L48.0967 74.3993V62.5609L61.3472 70.2858V82.1241Z" fill="url(#paint36_linear_331_9167)" stroke="url(#paint37_linear_331_9167)" stroke-miterlimit="10"/>
<path d="M51.5361 70.1796V74.6359L50.416 73.9817V69.5278L51.5361 70.1796Z" fill="url(#paint38_linear_331_9167)"/>
<path d="M53.4961 73.5496V75.7777L52.376 75.126V72.8978L53.4961 73.5496Z" fill="url(#paint39_linear_331_9167)"/>
<path d="M55.457 72.852V76.922L54.3369 76.2678V72.2002L55.457 72.852Z" fill="url(#paint40_linear_331_9167)"/>
<path d="M57.417 74.2979V78.0638L56.2969 77.4096V73.6461L57.417 74.2979Z" fill="url(#paint41_linear_331_9167)"/>
<path d="M59.3769 74.7517V79.2056L58.2568 78.5538V74.0975L59.3769 74.7517Z" fill="url(#paint42_linear_331_9167)"/>
<path d="M59.9003 79.3962V79.628L49.9473 73.8247V73.5953L59.9003 79.3962Z" fill="url(#paint43_linear_331_9167)"/>
<path d="M58.8167 70.0372C58.5729 69.8948 58.3774 69.9769 58.3774 70.2207C58.3774 70.2858 58.3919 70.3559 58.4184 70.4259L56.9845 71.3866C56.9434 71.3504 56.9024 71.319 56.8589 71.2925C56.7576 71.2321 56.6634 71.2152 56.5886 71.2297L55.3623 69.7403C55.3623 69.7282 55.3671 69.7161 55.3671 69.7041C55.3671 69.4603 55.1691 69.1488 54.9277 69.0064C54.6863 68.864 54.4884 68.9461 54.4884 69.1899C54.4884 69.2213 54.4908 69.2526 54.498 69.284L53.1027 69.8103C53.052 69.7596 52.9965 69.7161 52.9386 69.6823C52.8444 69.6268 52.7551 69.6075 52.6827 69.6172L51.4178 68.1253C51.4178 68.1253 51.4178 68.1229 51.4178 68.1205C51.4178 67.8767 51.2198 67.5653 50.9784 67.4228C50.7346 67.2804 50.5391 67.3625 50.5391 67.6063C50.5391 67.8501 50.737 68.1615 50.9784 68.3039C51.0701 68.357 51.1571 68.3788 51.2271 68.3715L52.4992 69.8682C52.4992 70.112 52.6972 70.421 52.9386 70.561C53.1824 70.7035 53.3804 70.6214 53.3804 70.3776C53.3804 70.3438 53.3755 70.3076 53.3683 70.2714L54.7564 69.7475C54.8095 69.8006 54.8674 69.8489 54.9302 69.8851C55.0098 69.931 55.0847 69.9527 55.1474 69.9527L56.422 71.5025C56.4365 71.7415 56.6248 72.0336 56.8589 72.1712C57.1028 72.3136 57.2983 72.2315 57.2983 71.9877C57.2983 71.9419 57.2886 71.8912 57.2742 71.8405L58.7346 70.8604C58.7612 70.8797 58.7877 70.899 58.8167 70.9159C59.0605 71.0583 59.2561 70.9763 59.2561 70.7324C59.2561 70.4886 59.0581 70.1772 58.8167 70.0348V70.0372Z" fill="url(#paint44_linear_331_9167)"/>
</g>
<g filter="url(#filter1_d_331_9167)">
<path d="M50.9024 60.5379L22.8105 44.1588V21.3608L50.9024 37.7375V60.5379Z" fill="url(#paint45_linear_331_9167)" stroke="url(#paint46_linear_331_9167)" stroke-width="1.23" stroke-miterlimit="10"/>
<path d="M40.3489 34.5197L26.379 26.3748C26.2173 26.2806 26.0869 26.073 26.0869 25.9113C26.0869 25.7496 26.2173 25.694 26.379 25.7882L40.3489 33.9331C40.5106 34.0272 40.641 34.2348 40.641 34.3966C40.641 34.5583 40.5106 34.6138 40.3489 34.5197Z" fill="#FA58FF"/>
<path d="M26.3779 34.0418C26.3779 34.0418 27.9181 32.9989 29.871 34.2614C32.6809 36.0768 33.9434 41.5952 36.8572 43.2778C38.926 44.4727 39.9109 40.9531 43.8433 41.6604C45.4341 41.9452 47.3364 43.8185 47.3364 43.8185V55.3117L26.3803 43.0943V34.0418H26.3779Z" fill="url(#paint47_linear_331_9167)"/>
<path opacity="0.64" d="M43.8892 39.2826L43.7926 39.2246L40.3985 37.2451L40.302 37.1872L36.9079 35.2077L36.8113 35.1498L33.4172 33.1703L33.3207 33.1123L29.9266 31.1328L29.83 31.0749L26.3369 29.0375V43.1064L29.83 45.1438L29.9266 45.2017L33.3207 47.1812L33.4172 47.2392L36.8113 49.2187L36.9079 49.2766L40.302 51.2561L40.3985 51.314L43.7926 53.2935L43.8892 53.3515L47.3823 55.3865V41.3176L43.8892 39.2826ZM40.3985 37.3441L43.7926 39.3236V42.7177L40.3985 40.7382V37.3441ZM43.7926 46.2108L40.3985 44.2313V40.8372L43.7926 42.8167V46.2108ZM43.7926 49.7039L40.3985 47.7244V44.3303L43.7926 46.3098V49.7039ZM29.9193 38.2204L33.3134 40.1999V43.594L29.9193 41.6145V38.2204ZM29.9193 34.7273L33.3134 36.7068V40.1009L29.9193 38.1214V34.7273ZM40.2996 44.1758L36.9055 42.1963V38.8022L40.2996 40.7817V44.1758ZM36.8065 42.1383L33.4124 40.1589V36.7647L36.8065 38.7442V42.1383ZM33.4124 40.2578L36.8065 42.2373V45.6314L33.4124 43.6519V40.2578ZM36.9055 42.2928L40.2996 44.2723V47.6665L36.9055 45.687V42.2928ZM36.9055 35.3091L40.2996 37.2886V40.6827L36.9055 38.7032V35.3091ZM33.4124 33.2717L36.8065 35.2512V38.6453L33.4124 36.6658V33.2717ZM29.9193 31.2366L33.3134 33.2161V36.6102L29.9193 34.6308V31.2366ZM26.4262 29.1992L29.8203 31.1787V34.5728L26.4262 32.5933V29.1992ZM26.4262 32.6923L29.8203 34.6718V38.0659L26.4262 36.0864V32.6923ZM26.4262 36.1854L29.8203 38.1649V41.559L26.4262 39.5795V36.1854ZM29.8203 45.0521L26.4262 43.0726V39.6785L29.8203 41.658V45.0521ZM33.3134 47.0871L29.9193 45.1076V41.7135L33.3134 43.693V47.0871ZM36.8065 49.1245L33.4124 47.145V43.7509L36.8065 45.7304V49.1245ZM40.2996 51.1619L36.9055 49.1825V45.7883L40.2996 47.7678V51.1619ZM43.7926 53.197L40.3985 51.2175V47.8234L43.7926 49.8028V53.197ZM47.2857 55.2344L43.8916 53.2549V49.8608L47.2857 51.8403V55.2344ZM47.2857 51.7413L43.8916 49.7618V46.3677L47.2857 48.3472V51.7413ZM47.2857 48.2482L43.8916 46.2687V42.8746L47.2857 44.8541V48.2482ZM43.8892 42.7756V39.3815L47.2833 41.361V44.7551L43.8892 42.7756Z" fill="#D56BC8"/>
<path d="M29.8715 45.25C29.6567 45.1245 29.4805 44.8469 29.4805 44.632V34.4231C29.4805 34.2083 29.6543 34.1335 29.8715 34.259C30.0864 34.3845 30.2626 34.6621 30.2626 34.877V45.0859C30.2626 45.3007 30.0888 45.3755 29.8715 45.25Z" fill="url(#paint48_linear_331_9167)"/>
<path d="M26.3784 43.215C26.1635 43.0894 25.9873 42.8118 25.9873 42.597V34.2276C25.9873 34.0127 26.1611 33.9379 26.3784 34.0634C26.5932 34.189 26.7695 34.4666 26.7695 34.6814V43.0508C26.7695 43.2657 26.5956 43.3405 26.3784 43.215Z" fill="url(#paint49_linear_331_9167)"/>
<path d="M33.3647 47.2874C33.1499 47.1619 32.9736 46.8843 32.9736 46.6694V39.3042C32.9736 39.0894 33.1475 39.0146 33.3647 39.1401C33.5796 39.2656 33.7558 39.5432 33.7558 39.7581V47.1232C33.7558 47.3381 33.582 47.4129 33.3647 47.2874Z" fill="url(#paint50_linear_331_9167)"/>
<path d="M36.8549 49.3224C36.6401 49.1969 36.4639 48.9193 36.4639 48.7045V43.4395C36.4639 43.2246 36.6377 43.1498 36.8549 43.2753C37.0698 43.4009 37.246 43.6785 37.246 43.8933V49.1583C37.246 49.3731 37.0722 49.448 36.8549 49.3224Z" fill="url(#paint51_linear_331_9167)"/>
<path d="M40.3481 51.3599C40.1333 51.2344 39.957 50.9568 39.957 50.742V42.5946C39.957 42.3798 40.1308 42.305 40.3481 42.4305C40.5629 42.556 40.7392 42.8336 40.7392 43.0485V51.1958C40.7392 51.4106 40.5654 51.4855 40.3481 51.3599Z" fill="url(#paint52_linear_331_9167)"/>
<path d="M43.8413 53.3949C43.6264 53.2694 43.4502 52.9917 43.4502 52.7769V41.8462C43.4502 41.6314 43.624 41.5565 43.8413 41.6821C44.0561 41.8076 44.2323 42.0852 44.2323 42.3001V53.2307C44.2323 53.4456 44.0585 53.5204 43.8413 53.3949Z" fill="url(#paint53_linear_331_9167)"/>
<path d="M47.3344 55.4324C47.1196 55.3068 46.9434 55.0292 46.9434 54.8144V43.9803C46.9434 43.7654 47.1172 43.6906 47.3344 43.8161C47.5493 43.9416 47.7255 44.2193 47.7255 44.4341V55.2682C47.7255 55.4831 47.5517 55.5579 47.3344 55.4324Z" fill="url(#paint54_linear_331_9167)"/>
<path d="M47.7492 55.2827L25.9628 42.5825C25.8131 42.4956 25.6924 42.5463 25.6924 42.696C25.6924 42.8456 25.8131 43.0363 25.9628 43.1232L47.7492 55.8234C47.8989 55.9103 48.0196 55.8596 48.0196 55.7099C48.0196 55.5603 47.8989 55.3696 47.7492 55.2827Z" fill="url(#paint55_linear_331_9167)"/>
</g>
<g filter="url(#filter2_d_331_9167)">
<path d="M44.2856 72.7649L28.4473 63.5313V49.3779L44.2856 58.614V72.7649Z" fill="url(#paint56_linear_331_9167)" stroke="url(#paint57_linear_331_9167)" stroke-width="1.26" stroke-miterlimit="10"/>
<path d="M32.3937 63.5241L31.0732 62.754V56.7576L32.3937 57.5276V63.5241Z" fill="url(#paint58_linear_331_9167)"/>
<path d="M34.7043 64.8711L33.3838 64.101V59.7244L34.7043 60.4944V64.8711Z" fill="url(#paint59_linear_331_9167)"/>
<path d="M37.0138 66.2181L35.6934 65.448V55.915L37.0138 56.6851V66.2181Z" fill="url(#paint60_linear_331_9167)"/>
<path d="M39.3244 67.565L38.0039 66.795V59.6012L39.3244 60.3689V67.565Z" fill="url(#paint61_linear_331_9167)"/>
<path d="M41.6349 68.9121L40.3145 68.142V59.6278L41.6349 60.3979V68.9121Z" fill="url(#paint62_linear_331_9167)"/>
<path d="M42.3873 69.5712L30.5225 62.6526V62.2133L42.3873 69.1318V69.5712Z" fill="url(#paint63_linear_331_9167)"/>
</g>
<g filter="url(#filter3_d_331_9167)">
<path d="M71.5348 59.0872L53.8135 48.7552V32.9216L71.5348 43.2536V59.0872Z" fill="url(#paint64_linear_331_9167)" stroke="url(#paint65_linear_331_9167)" stroke-width="1.97" stroke-miterlimit="10"/>
<path d="M62.7545 51.8741C59.7249 50.1071 57.2578 46.2036 57.2578 43.174C57.2578 40.1444 59.7225 39.1161 62.7545 40.8831C65.7865 42.6502 68.2512 46.5536 68.2512 49.5832C68.2512 52.6128 65.7865 53.6412 62.7545 51.8741ZM62.7545 41.7473C60.2005 40.2579 58.1244 41.1245 58.1244 43.6785C58.1244 46.2326 60.2005 49.5181 62.7545 51.0075C65.3086 52.497 67.3846 51.6303 67.3846 49.0763C67.3846 46.5223 65.3086 43.2368 62.7545 41.7473Z" fill="url(#paint66_linear_331_9167)"/>
<path d="M68.901 49.9598L66.7356 48.6973C66.7356 46.5029 64.9492 43.6761 62.7549 42.3967V40.2313C66.1442 42.2084 68.901 46.5729 68.901 49.9622V49.9598Z" fill="url(#paint67_linear_331_9167)"/>
</g>
<g filter="url(#filter4_d_331_9167)">
<path d="M67.6949 71.302L54.9199 63.8547V52.4388L67.6949 59.8885V71.302Z" fill="url(#paint68_linear_331_9167)" stroke="url(#paint69_linear_331_9167)" stroke-miterlimit="10"/>
<path d="M65.1477 66.1649C65.4857 65.7593 65.6812 65.1776 65.6812 64.4365C65.6812 64.2313 65.6619 64.0188 65.633 63.804L62.2461 62.5704L65.1502 66.1649H65.1477Z" fill="url(#paint70_linear_331_9167)"/>
<path d="M61.7374 61.7858L65.5105 63.1594C65.0012 61.1268 63.4007 58.9252 61.4984 57.8172C61.3657 57.7399 61.2329 57.6699 61.1025 57.6072L61.7374 61.7858Z" fill="url(#paint71_linear_331_9167)"/>
<path d="M61.5825 62.4521L59.4268 64.4196C60.0375 65.1269 60.7448 65.74 61.5004 66.1818C62.8595 66.9736 64.0617 67.0243 64.8269 66.4667L61.5849 62.4521H61.5825Z" fill="url(#paint72_linear_331_9167)"/>
<path d="M58.9391 63.8089L61.1914 61.7545L60.5276 57.3707C58.6881 56.7382 57.3193 57.5903 57.3193 59.5626C57.3193 60.9072 57.9566 62.4691 58.9415 63.8089H58.9391Z" fill="url(#paint73_linear_331_9167)"/>
</g>
<path style="mix-blend-mode:screen" d="M22.8105 21.3608L54.9266 28.1949L73.9152 38.8721L73.8211 81.7161C73.8162 84.0963 71.325 85.6509 69.1837 84.6153L48.0998 74.3992L28.4497 63.5313V49.3803L22.813 44.1612V21.3633L22.8105 21.3608Z" fill="url(#paint74_linear_331_9167)"/>
<path opacity="0.5" d="M76.8456 91.2805C74.4895 92.6396 70.6729 92.6396 68.3169 91.2805C65.9608 89.9214 65.9608 87.715 68.3169 86.3559C70.6729 84.9968 74.4895 84.9968 76.8456 86.3559C79.2017 87.715 79.2017 89.9214 76.8456 91.2805Z" fill="black"/>
<path d="M78.446 88.2195L78.3543 86.8628L77.4514 86.9232C76.3603 86.3028 74.4846 86.0107 72.3748 86.1507C70.2673 86.2907 68.4447 86.8314 67.4478 87.5919L66.5449 87.6522L66.6367 89.0089C66.7356 90.4766 69.4586 91.4905 72.7176 91.2732C75.9789 91.056 78.5402 89.6872 78.4436 88.2195H78.446Z" fill="#C97710"/>
<path d="M72.6343 90.0108C75.8947 89.7925 78.4584 88.4294 78.3604 86.9661C78.2625 85.5028 75.5399 84.4936 72.2795 84.7118C69.0191 84.9301 66.4554 86.2933 66.5533 87.7565C66.6513 89.2198 69.3738 90.2291 72.6343 90.0108Z" fill="#FFDD00"/>
<path d="M72.6265 89.893C75.7832 89.6817 78.2653 88.3619 78.1704 86.9452C78.0756 85.5285 75.4397 84.5513 72.283 84.7626C69.1264 84.974 66.6443 86.2937 66.7391 87.7105C66.834 89.1272 69.4698 90.1043 72.6265 89.893Z" fill="#F0AA00"/>
<path d="M72.6024 89.4772C69.9542 89.6534 67.743 88.8351 67.6633 87.645C67.5837 86.4549 69.667 85.3492 72.3152 85.1706C74.9633 84.9944 77.1746 85.8127 77.2542 87.0028C77.3339 88.1929 75.2506 89.2986 72.6024 89.4772Z" fill="#FFDD00"/>
<path d="M72.5948 89.3927C70.0504 89.5641 67.9261 88.7747 67.8488 87.6329C67.7716 86.491 69.7728 85.4265 72.3172 85.2551C74.8616 85.0837 76.9859 85.8731 77.0631 87.0149C77.1404 88.1567 75.1392 89.2213 72.5948 89.3927Z" fill="#F0AA00"/>
<path d="M72.5948 89.3927C70.0504 89.5641 67.9261 88.7747 67.8488 87.6329C67.7716 86.491 69.7728 85.4265 72.3172 85.2551C74.8616 85.0837 76.9859 85.8731 77.0631 87.0149C77.1404 88.1567 75.1392 89.2213 72.5948 89.3927Z" fill="#F0AA00"/>
<path d="M72.5876 89.2865C70.1736 89.4483 68.1579 88.6999 68.0831 87.616C68.0106 86.5321 69.9081 85.5231 72.3245 85.3613C74.7385 85.1996 76.7542 85.9479 76.829 87.0318C76.9015 88.1157 75.004 89.1248 72.5876 89.2865Z" stroke="#D88508" stroke-width="0.26" stroke-miterlimit="10"/>
<path d="M75.152 87.995L75.1085 87.3529C74.8937 87.4809 74.5799 87.5798 74.1381 87.6305L74.1671 88.0506L73.6843 88.0771L73.6553 87.6643C72.668 87.6836 72.0186 87.4157 71.9462 86.9401C71.1833 87.2805 70.2226 87.6522 69.2497 88.0095L69.2256 87.6619C70.1139 87.3263 70.9347 87.0053 71.8738 86.5901L72.4724 86.5466L72.4869 86.7542C72.5159 87.1622 72.9649 87.3529 73.6336 87.3384L73.5732 86.467L74.056 86.4308L74.1164 87.295C74.6716 87.2057 74.9396 86.9811 74.9154 86.6432L74.8961 86.368L75.5237 86.3197L75.6348 87.9685L75.152 87.995Z" fill="#D88508"/>
<path d="M75.2731 87.9346L75.2296 87.2901C75.0148 87.418 74.701 87.5194 74.2592 87.5701L74.2882 87.9902L73.8054 88.0167L73.7764 87.6039C72.7891 87.6232 72.1397 87.3577 72.0673 86.8797C71.3044 87.2225 70.3437 87.5943 69.3708 87.9539L69.3467 87.6063C70.235 87.2708 71.0558 86.9473 71.9948 86.5321L72.5935 86.4886L72.608 86.6962C72.637 87.1042 73.086 87.2949 73.7547 87.2804L73.6943 86.409L74.1771 86.3728L74.2375 87.2394C74.7927 87.1477 75.0607 86.9232 75.0365 86.5852L75.0172 86.31L75.6448 86.2617L75.7559 87.9129L75.2731 87.9395V87.9346Z" fill="#FFDD00"/>
<path d="M77.7393 87.1018C77.6161 87.1091 77.5148 87.0728 77.5099 87.0173C77.5051 86.9618 77.6017 86.9111 77.7248 86.9039C77.8479 86.8966 77.9493 86.9328 77.9541 86.9884C77.9589 87.0439 77.8624 87.0946 77.7393 87.1018Z" fill="#FFDD00"/>
<path d="M67.2041 87.8091C67.081 87.8163 66.9796 87.7801 66.9748 87.7246C66.97 87.6691 67.0665 87.6184 67.1896 87.6111C67.3127 87.6039 67.4141 87.6401 67.419 87.6956C67.4238 87.7512 67.3272 87.8019 67.2041 87.8091Z" fill="#FFDD00"/>
<path d="M77.6181 87.5894C77.4974 87.587 77.4154 87.5387 77.4371 87.4832C77.4588 87.4277 77.5747 87.3842 77.6954 87.389C77.8161 87.3915 77.8982 87.4397 77.8764 87.4952C77.8547 87.5508 77.7388 87.5942 77.6181 87.5894Z" fill="#FFDD00"/>
<path d="M67.2383 87.3239C67.1176 87.3215 67.0355 87.2732 67.0572 87.2177C67.0789 87.1622 67.1948 87.1187 67.3155 87.1235C67.4362 87.1284 67.5183 87.1742 67.4966 87.2298C67.4748 87.2853 67.359 87.3287 67.2383 87.3239Z" fill="#FFDD00"/>
<path d="M77.3045 88.0433C77.191 88.0288 77.1331 87.9757 77.1766 87.9201C77.22 87.867 77.3504 87.8332 77.4638 87.8477C77.5773 87.8622 77.6352 87.9153 77.5918 87.9708C77.5483 88.0264 77.418 88.0577 77.3045 88.0433Z" fill="#FFDD00"/>
<path d="M67.4676 86.8629C67.3541 86.8484 67.2962 86.7953 67.3397 86.7398C67.3831 86.6842 67.5135 86.6529 67.6269 86.6673C67.7404 86.6818 67.7983 86.7349 67.7549 86.7905C67.7114 86.8436 67.581 86.8774 67.4676 86.8629Z" fill="#FFDD00"/>
<path d="M76.8179 88.4658C76.7141 88.4416 76.6827 88.3813 76.7479 88.3306C76.813 88.2799 76.9506 88.2582 77.0544 88.2823C77.1582 88.3065 77.1896 88.3668 77.1244 88.4175C77.0593 88.4682 76.9217 88.4899 76.8179 88.4658Z" fill="#FFDD00"/>
<path d="M67.8784 86.4283C67.7746 86.4042 67.7432 86.3438 67.8084 86.2931C67.8736 86.2424 68.0112 86.2207 68.115 86.2448C68.2188 86.269 68.2502 86.3293 68.185 86.38C68.1198 86.4307 67.9822 86.4525 67.8784 86.4283Z" fill="#FFDD00"/>
<path d="M75.3662 89.1537C75.2938 89.1127 75.3179 89.0499 75.4169 89.0113C75.5158 88.9727 75.6559 88.9775 75.7283 89.0161C75.8007 89.0572 75.7766 89.1199 75.6776 89.1585C75.5786 89.1972 75.4386 89.1923 75.3662 89.1537Z" fill="#FFDD00"/>
<path d="M69.1982 85.6316C69.1258 85.5906 69.1499 85.5278 69.2489 85.4892C69.3479 85.4506 69.4879 85.4554 69.5603 85.494C69.6327 85.5351 69.6086 85.5978 69.5096 85.6365C69.4107 85.6751 69.2706 85.6702 69.1982 85.6316Z" fill="#FFDD00"/>
<path d="M74.4684 89.4144C74.4177 89.3661 74.466 89.3058 74.577 89.2768C74.688 89.2479 74.8208 89.2623 74.8715 89.3106C74.9222 89.3589 74.8739 89.4193 74.7629 89.4482C74.6518 89.4772 74.5191 89.4627 74.4684 89.4144Z" fill="#FFDD00"/>
<path d="M70.0553 85.3396C70.0046 85.2913 70.0529 85.231 70.1639 85.202C70.275 85.173 70.4077 85.1875 70.4584 85.2358C70.5091 85.2841 70.4608 85.3444 70.3498 85.3734C70.2387 85.4024 70.106 85.3879 70.0553 85.3396Z" fill="#FFDD00"/>
<path d="M73.5044 89.598C73.4755 89.5449 73.5479 89.4869 73.6662 89.4676C73.7844 89.4483 73.9052 89.4749 73.9341 89.5256C73.9631 89.5787 73.8907 89.6366 73.7724 89.6559C73.6541 89.6752 73.5334 89.6487 73.5044 89.598Z" fill="#FFDD00"/>
<path d="M70.9888 85.1224C70.9598 85.0693 71.0322 85.0113 71.1505 84.992C71.2688 84.9727 71.3895 84.9993 71.4185 85.05C71.4475 85.1031 71.375 85.161 71.2568 85.1803C71.1385 85.1996 71.0178 85.1731 70.9888 85.1224Z" fill="#FFDD00"/>
<path d="M71.4657 89.7114C71.485 89.6559 71.5961 89.6124 71.7192 89.6124C71.8399 89.6124 71.9244 89.6607 71.9051 89.7162C71.8857 89.7718 71.7747 89.8152 71.6516 89.8152C71.5285 89.8152 71.4464 89.7669 71.4657 89.7114Z" fill="#FFDD00"/>
<path d="M73.0223 84.9316C73.0417 84.8761 73.1527 84.8326 73.2758 84.8326C73.3989 84.8326 73.481 84.8809 73.4617 84.9364C73.4424 84.992 73.3313 85.0354 73.2082 85.0354C73.0851 85.0354 73.003 84.9871 73.0223 84.9316Z" fill="#FFDD00"/>
<path d="M70.4904 89.634C70.5314 89.5785 70.6594 89.5447 70.7753 89.5591C70.8911 89.5736 70.9515 89.6267 70.9104 89.6798C70.8694 89.733 70.7415 89.7692 70.6256 89.7547C70.5097 89.7426 70.4494 89.6871 70.4904 89.634Z" fill="#FFDD00"/>
<path d="M74.0197 84.9702C74.0607 84.9146 74.1887 84.8808 74.3046 84.8953C74.4204 84.9074 74.4808 84.9629 74.4397 85.016C74.3987 85.0691 74.2708 85.1053 74.1549 85.0909C74.039 85.0764 73.9787 85.0233 74.0197 84.9702Z" fill="#FFDD00"/>
<path d="M69.5962 89.4723C69.6589 89.4216 69.7941 89.3975 69.9003 89.4217C70.0066 89.4458 70.0404 89.5037 69.98 89.5544C69.9197 89.6051 69.7821 89.6293 69.6758 89.6051C69.5696 89.5834 69.5358 89.523 69.5962 89.4723Z" fill="#FFDD00"/>
<path d="M74.9458 85.0958C75.0086 85.0451 75.1437 85.0209 75.2499 85.0451C75.3562 85.0668 75.39 85.1271 75.3296 85.1778C75.2693 85.2285 75.1317 85.2527 75.0254 85.2285C74.9192 85.2068 74.8854 85.1465 74.9458 85.0958Z" fill="#FFDD00"/>
<path d="M68.0735 88.9075C68.1725 88.8689 68.3125 88.8713 68.3849 88.9124C68.4573 88.9534 68.4356 89.0162 68.3366 89.0548C68.2377 89.0934 68.0976 89.091 68.0252 89.0499C67.9528 89.0089 67.9745 88.9461 68.0735 88.9075Z" fill="#FFDD00"/>
<path d="M76.595 85.6583C76.694 85.6196 76.834 85.6221 76.9064 85.6631C76.9788 85.7041 76.9571 85.7669 76.8581 85.8055C76.7591 85.8441 76.6191 85.8417 76.5467 85.8007C76.4743 85.7597 76.496 85.6969 76.595 85.6583Z" fill="#FFDD00"/>
<path d="M67.5956 88.5285C67.7066 88.4996 67.8394 88.5141 67.8901 88.5623C67.9408 88.6106 67.8925 88.671 67.7814 88.7023C67.6704 88.7313 67.5376 88.7168 67.4869 88.6686C67.4362 88.6203 67.4845 88.5599 67.5956 88.5285Z" fill="#FFDD00"/>
<path d="M77.1502 86.013C77.2613 85.9841 77.3941 85.9985 77.4448 86.0468C77.4954 86.0951 77.4472 86.1555 77.3361 86.1868C77.2251 86.2158 77.0923 86.2013 77.0416 86.153C76.9909 86.1048 77.0392 86.0444 77.1502 86.013Z" fill="#FFDD00"/>
<path d="M67.299 88.1109C67.4173 88.0916 67.538 88.1182 67.5693 88.1689C67.5983 88.222 67.5259 88.2799 67.4076 88.2992C67.2893 88.3185 67.1686 88.292 67.1372 88.2413C67.1083 88.1882 67.1807 88.1302 67.299 88.1109Z" fill="#FFDD00"/>
<path d="M77.5246 86.4139C77.6429 86.3946 77.7636 86.4212 77.7949 86.4718C77.8239 86.525 77.7515 86.5829 77.6332 86.6022C77.5149 86.6215 77.3942 86.595 77.3628 86.5443C77.3339 86.4912 77.4063 86.4332 77.5246 86.4139Z" fill="#FFDD00"/>
<path d="M72.3996 89.7041C72.3948 89.6486 72.4913 89.5979 72.6144 89.5906C72.7376 89.5834 72.8389 89.6196 72.8438 89.6751C72.8486 89.7306 72.752 89.7813 72.6289 89.7886C72.5058 89.7958 72.4044 89.7596 72.3996 89.7041Z" fill="#FFDD00"/>
<path d="M72.0832 84.9751C72.0784 84.9196 72.1749 84.8689 72.298 84.8616C72.4211 84.8544 72.5225 84.8906 72.5274 84.9461C72.5322 85.0016 72.4356 85.0523 72.3125 85.0596C72.1894 85.0668 72.088 85.0306 72.0832 84.9751Z" fill="#FFDD00"/>
<path d="M68.6913 89.2165C68.7758 89.1706 68.9158 89.1634 69.0051 89.1948C69.0945 89.2286 69.0993 89.2914 69.0148 89.3348C68.9303 89.3807 68.7903 89.3879 68.701 89.3565C68.6117 89.3227 68.6068 89.26 68.6913 89.2165Z" fill="#FFDD00"/>
<path d="M75.9159 85.3734C76.0004 85.3275 76.1404 85.3203 76.2297 85.3516C76.3191 85.3854 76.3239 85.4482 76.2394 85.4916C76.1549 85.5375 76.0149 85.5448 75.9256 85.5134C75.8363 85.4796 75.8314 85.4168 75.9159 85.3734Z" fill="#FFDD00"/>
<path d="M68.7805 85.8514C68.8699 85.8852 68.8747 85.948 68.7902 85.9914C68.7057 86.0373 68.5657 86.0445 68.4764 86.0131C68.387 85.9794 68.3822 85.9166 68.4667 85.8731C68.5512 85.8273 68.6912 85.82 68.7805 85.8514Z" fill="#FFDD00"/>
<path d="M76.4544 88.6975C76.5437 88.7313 76.5485 88.794 76.464 88.8375C76.3795 88.8834 76.2395 88.8906 76.1502 88.8592C76.0609 88.8254 76.056 88.7626 76.1405 88.7192C76.225 88.6733 76.3651 88.6661 76.4544 88.6975Z" fill="#FFDD00"/>
<path d="M76.1149 86.3559L76.0232 84.9992L75.1204 85.0595C74.0292 84.4391 72.1535 84.147 70.0437 84.287C67.9363 84.4271 66.1137 84.9678 65.1167 85.7282L64.2139 85.7886L64.3056 87.1452C64.4046 88.613 67.1276 89.6269 70.3865 89.4096C73.6478 89.1923 76.2091 87.8236 76.1125 86.3559H76.1149Z" fill="#C97710"/>
<path d="M70.3022 88.1478C73.5627 87.9295 76.1263 86.5663 76.0284 85.1031C75.9304 83.6398 73.2079 82.6305 69.9475 82.8488C66.687 83.0671 64.1234 84.4302 64.2213 85.8935C64.3193 87.3568 67.0418 88.3661 70.3022 88.1478Z" fill="#FFDD00"/>
<path d="M70.2945 88.0324C73.4511 87.8211 75.9332 86.5013 75.8384 85.0846C75.7435 83.6679 73.1077 82.6907 69.951 82.902C66.7943 83.1134 64.3122 84.4331 64.4071 85.8499C64.5019 87.2666 67.1378 88.2437 70.2945 88.0324Z" fill="#F0AA00"/>
<path d="M70.2704 87.616C67.6222 87.7922 65.411 86.9739 65.3313 85.7838C65.2516 84.5937 67.3349 83.488 69.9831 83.3094C72.6313 83.1332 74.8425 83.9515 74.9222 85.1416C75.0018 86.3317 72.9185 87.4374 70.2704 87.616Z" fill="#FFDD00"/>
<path d="M70.2637 87.5315C67.7194 87.7029 65.595 86.9135 65.5178 85.7717C65.4405 84.6298 67.4418 83.5653 69.9861 83.3939C72.5305 83.2225 74.6548 84.0119 74.7321 85.1537C74.8093 86.2955 72.8081 87.3601 70.2637 87.5315Z" fill="#F0AA00"/>
<path d="M70.2637 87.5315C67.7194 87.7029 65.595 86.9135 65.5178 85.7717C65.4405 84.6298 67.4418 83.5653 69.9861 83.3939C72.5305 83.2225 74.6548 84.0119 74.7321 85.1537C74.8093 86.2955 72.8081 87.3601 70.2637 87.5315Z" fill="#F0AA00"/>
<path d="M70.2585 87.4253C67.8445 87.5871 65.8288 86.8387 65.754 85.7548C65.6815 84.6709 67.579 83.6619 69.9954 83.5001C72.4094 83.3384 74.4251 84.0867 74.4999 85.1706C74.5723 86.2545 72.6749 87.2636 70.2585 87.4253Z" stroke="#D88508" stroke-width="0.26" stroke-miterlimit="10"/>
<path d="M72.82 86.1338L72.7765 85.4917C72.5617 85.6196 72.2478 85.7186 71.8061 85.7693L71.835 86.1893L71.3522 86.2159L71.3233 85.8031C70.3359 85.8224 69.6866 85.5545 69.6142 85.0789C68.8513 85.4193 67.8906 85.791 66.9177 86.1483L66.8936 85.8007C67.7819 85.4651 68.6027 85.1441 69.5417 84.7289L70.1404 84.6854L70.1549 84.893C70.1839 85.301 70.6329 85.4917 71.3015 85.4772L71.2412 84.6057L71.724 84.5695L71.7843 85.4338C72.3396 85.3444 72.6075 85.1199 72.5834 84.782L72.5641 84.5068L73.1917 84.4585L73.3028 86.1073L72.82 86.1338Z" fill="#D88508"/>
<path d="M72.941 86.071L72.8976 85.4264C72.6828 85.5544 72.3689 85.6558 71.9272 85.7065L71.9561 86.1265L71.4733 86.1531L71.4444 85.7403C70.457 85.7596 69.8077 85.494 69.7352 85.0161C68.9724 85.3588 68.0116 85.7306 67.0388 86.0903L67.0146 85.7427C67.903 85.4071 68.7238 85.0837 69.6628 84.6684L70.2615 84.625L70.276 84.8326C70.305 85.2406 70.754 85.4313 71.4226 85.4168L71.3623 84.5453L71.8451 84.5091L71.9054 85.3757C72.4607 85.284 72.7286 85.0595 72.7045 84.7215L72.6852 84.4464L73.3128 84.3981L73.4239 86.0493L72.941 86.0758V86.071Z" fill="#FFDD00"/>
<path d="M75.4082 85.2406C75.2851 85.2479 75.1837 85.2117 75.1789 85.1561C75.1741 85.1006 75.2706 85.0499 75.3937 85.0427C75.5168 85.0354 75.6182 85.0716 75.6231 85.1272C75.6279 85.1827 75.5313 85.2334 75.4082 85.2406Z" fill="#FFDD00"/>
<path d="M64.8731 85.9456C64.7499 85.9528 64.6486 85.9166 64.6437 85.8611C64.6389 85.8056 64.7355 85.7549 64.8586 85.7476C64.9817 85.7404 65.0831 85.7766 65.0879 85.8321C65.0927 85.8876 64.9962 85.9383 64.8731 85.9456Z" fill="#FFDD00"/>
<path d="M75.2871 85.7282C75.1664 85.7258 75.0843 85.6775 75.106 85.622C75.1278 85.5665 75.2436 85.523 75.3643 85.5278C75.485 85.5302 75.5671 85.5785 75.5454 85.634C75.5237 85.6896 75.4078 85.733 75.2871 85.7282Z" fill="#FFDD00"/>
<path d="M64.9072 85.4602C64.7865 85.4578 64.7044 85.4095 64.7261 85.354C64.7479 85.2985 64.8637 85.2551 64.9844 85.2599C65.1051 85.2647 65.1872 85.3106 65.1655 85.3661C65.1438 85.4216 65.0279 85.4651 64.9072 85.4602Z" fill="#FFDD00"/>
<path d="M74.9735 86.1821C74.86 86.1676 74.8021 86.1145 74.8455 86.0589C74.889 86.0058 75.0193 85.972 75.1328 85.9865C75.2462 86.001 75.3042 86.0541 75.2607 86.1096C75.2173 86.1652 75.0869 86.1966 74.9735 86.1821Z" fill="#FFDD00"/>
<path d="M65.1365 85.0017C65.0231 84.9872 64.9651 84.9341 65.0086 84.8786C65.052 84.823 65.1824 84.7916 65.2959 84.8061C65.4093 84.8206 65.4673 84.8737 65.4238 84.9293C65.3804 84.9824 65.25 85.0162 65.1365 85.0017Z" fill="#FFDD00"/>
<path d="M74.4858 86.6021C74.382 86.578 74.3506 86.5177 74.4158 86.467C74.481 86.4163 74.6186 86.3945 74.7224 86.4187C74.8262 86.4428 74.8576 86.5032 74.7924 86.5539C74.7272 86.6046 74.5896 86.6263 74.4858 86.6021Z" fill="#FFDD00"/>
<path d="M65.5464 84.5671C65.4426 84.543 65.4112 84.4826 65.4764 84.4319C65.5415 84.3812 65.6792 84.3595 65.783 84.3836C65.8868 84.4078 65.9181 84.4681 65.853 84.5188C65.7878 84.5695 65.6502 84.5912 65.5464 84.5671Z" fill="#FFDD00"/>
<path d="M73.0371 87.2901C72.9647 87.249 72.9888 87.1863 73.0878 87.1476C73.1868 87.109 73.3268 87.1138 73.3992 87.1525C73.4716 87.1935 73.4475 87.2563 73.3485 87.2949C73.2495 87.3335 73.1095 87.3287 73.0371 87.2901Z" fill="#FFDD00"/>
<path d="M66.8672 83.7704C66.7947 83.7294 66.8189 83.6666 66.9179 83.628C67.0168 83.5894 67.1568 83.5942 67.2293 83.6328C67.3017 83.6738 67.2775 83.7366 67.1786 83.7752C67.0796 83.8139 66.9396 83.809 66.8672 83.7704Z" fill="#FFDD00"/>
<path d="M72.1373 87.5532C72.0866 87.5049 72.1349 87.4446 72.2459 87.4156C72.357 87.3867 72.4898 87.4011 72.5405 87.4494C72.5911 87.4977 72.5429 87.558 72.4318 87.587C72.3208 87.616 72.188 87.6015 72.1373 87.5532Z" fill="#FFDD00"/>
<path d="M67.7242 83.4759C67.6735 83.4277 67.7218 83.3673 67.8329 83.3383C67.9439 83.3094 68.0767 83.3239 68.1274 83.3721C68.1781 83.4204 68.1298 83.4808 68.0187 83.5097C67.9077 83.5387 67.7749 83.5242 67.7242 83.4759Z" fill="#FFDD00"/>
<path d="M71.1734 87.7366C71.1444 87.6835 71.2168 87.6256 71.3351 87.6063C71.4534 87.587 71.5741 87.6135 71.6031 87.6642C71.632 87.7173 71.5596 87.7753 71.4413 87.7946C71.323 87.8139 71.2023 87.7873 71.1734 87.7366Z" fill="#FFDD00"/>
<path d="M68.6577 83.2586C68.6288 83.2055 68.7012 83.1476 68.8195 83.1283C68.9378 83.109 69.0585 83.1355 69.0874 83.1862C69.1164 83.2393 69.044 83.2972 68.9257 83.3166C68.8074 83.3359 68.6867 83.3093 68.6577 83.2586Z" fill="#FFDD00"/>
<path d="M69.1337 87.8477C69.153 87.7922 69.264 87.7488 69.3871 87.7488C69.5078 87.7488 69.5923 87.7971 69.573 87.8526C69.5537 87.9081 69.4427 87.9515 69.3195 87.9515C69.1964 87.9515 69.1144 87.9033 69.1337 87.8477Z" fill="#FFDD00"/>
<path d="M70.6903 83.0704C70.7096 83.0149 70.8207 82.9714 70.9438 82.9714C71.0669 82.9714 71.149 83.0197 71.1297 83.0752C71.1103 83.1308 70.9993 83.1742 70.8762 83.1742C70.7531 83.1742 70.671 83.1259 70.6903 83.0704Z" fill="#FFDD00"/>
<path d="M68.1594 87.7704C68.2004 87.7149 68.3283 87.6811 68.4442 87.6956C68.5601 87.7101 68.6204 87.7632 68.5794 87.8163C68.5384 87.8694 68.4104 87.9056 68.2945 87.8912C68.1787 87.8791 68.1183 87.8236 68.1594 87.7704Z" fill="#FFDD00"/>
<path d="M71.6886 83.109C71.7297 83.0534 71.8576 83.0196 71.9735 83.0341C72.0894 83.0462 72.1497 83.1017 72.1087 83.1548C72.0676 83.2079 71.9397 83.2441 71.8238 83.2297C71.708 83.2152 71.6476 83.1621 71.6886 83.109Z" fill="#FFDD00"/>
<path d="M67.2651 87.6088C67.3279 87.5581 67.4631 87.534 67.5693 87.5581C67.6755 87.5823 67.7093 87.6402 67.6489 87.6909C67.5886 87.7416 67.451 87.7657 67.3448 87.7416C67.2386 87.7199 67.2048 87.6595 67.2651 87.6088Z" fill="#FFDD00"/>
<path d="M72.6147 83.2322C72.6775 83.1815 72.8127 83.1574 72.9189 83.1815C73.0251 83.2033 73.0589 83.2636 72.9986 83.3143C72.9382 83.365 72.8006 83.3891 72.6944 83.365C72.5882 83.3433 72.5544 83.2829 72.6147 83.2322Z" fill="#FFDD00"/>
<path d="M65.7424 87.0439C65.8414 87.0053 65.9814 87.0077 66.0538 87.0487C66.1263 87.0897 66.1045 87.1525 66.0056 87.1911C65.9066 87.2298 65.7666 87.2273 65.6942 87.1863C65.6217 87.1453 65.6435 87.0825 65.7424 87.0439Z" fill="#FFDD00"/>
<path d="M74.2639 83.7946C74.3629 83.756 74.5029 83.7584 74.5753 83.7994C74.6478 83.8405 74.626 83.9032 74.527 83.9419C74.4281 83.9805 74.2881 83.9781 74.2156 83.937C74.1432 83.896 74.165 83.8332 74.2639 83.7946Z" fill="#FFDD00"/>
<path d="M65.2635 86.6648C65.3746 86.6358 65.5074 86.6503 65.558 86.6986C65.6087 86.7468 65.5605 86.8072 65.4494 86.8386C65.3384 86.8675 65.2056 86.8531 65.1549 86.8048C65.1042 86.7565 65.1525 86.6962 65.2635 86.6648Z" fill="#FFDD00"/>
<path d="M74.8182 84.1494C74.9293 84.1204 75.062 84.1349 75.1127 84.1832C75.1634 84.2315 75.1151 84.2918 75.0041 84.3232C74.8931 84.3522 74.7603 84.3377 74.7096 84.2894C74.6589 84.2411 74.7072 84.1808 74.8182 84.1494Z" fill="#FFDD00"/>
<path d="M64.9669 86.2472C65.0852 86.2279 65.2059 86.2544 65.2373 86.3051C65.2663 86.3582 65.1939 86.4162 65.0756 86.4355C64.9573 86.4548 64.8366 86.4282 64.8052 86.3775C64.7762 86.3244 64.8487 86.2665 64.9669 86.2472Z" fill="#FFDD00"/>
<path d="M75.1925 84.5501C75.3108 84.5308 75.4315 84.5574 75.4629 84.6081C75.4919 84.6612 75.4194 84.7191 75.3012 84.7384C75.1829 84.7577 75.0622 84.7312 75.0308 84.6805C75.0018 84.6274 75.0742 84.5695 75.1925 84.5501Z" fill="#FFDD00"/>
<path d="M70.0685 87.8406C70.0637 87.7851 70.1603 87.7344 70.2834 87.7271C70.4065 87.7199 70.5079 87.7561 70.5127 87.8116C70.5175 87.8671 70.421 87.9178 70.2979 87.9251C70.1748 87.9323 70.0734 87.8961 70.0685 87.8406Z" fill="#FFDD00"/>
<path d="M69.7521 83.1114C69.7473 83.0559 69.8439 83.0052 69.967 82.998C70.0901 82.9907 70.1915 83.027 70.1963 83.0825C70.2011 83.138 70.1046 83.1887 69.9815 83.1959C69.8583 83.2032 69.757 83.167 69.7521 83.1114Z" fill="#FFDD00"/>
<path d="M66.3603 87.3553C66.4448 87.3094 66.5848 87.3022 66.6741 87.3336C66.7634 87.3674 66.7682 87.4301 66.6837 87.4736C66.5992 87.5195 66.4592 87.5267 66.3699 87.4953C66.2806 87.4615 66.2758 87.3988 66.3603 87.3553Z" fill="#FFDD00"/>
<path d="M73.5849 83.5122C73.6694 83.4663 73.8094 83.4591 73.8987 83.4904C73.988 83.5242 73.9928 83.587 73.9083 83.6305C73.8239 83.6763 73.6838 83.6836 73.5945 83.6522C73.5052 83.6184 73.5004 83.5556 73.5849 83.5122Z" fill="#FFDD00"/>
<path d="M66.4495 83.9902C66.5388 84.024 66.5436 84.0868 66.4591 84.1302C66.3746 84.1761 66.2346 84.1833 66.1453 84.1519C66.056 84.1181 66.0512 84.0554 66.1357 84.0119C66.2202 83.966 66.3602 83.9588 66.4495 83.9902Z" fill="#FFDD00"/>
<path d="M74.1233 86.8338C74.2126 86.8676 74.2174 86.9304 74.133 86.9738C74.0485 87.0197 73.9085 87.027 73.8191 86.9956C73.7298 86.9618 73.725 86.899 73.8095 86.8556C73.894 86.8097 74.034 86.8024 74.1233 86.8338Z" fill="#FFDD00"/>
</g>
<defs>
<filter id="filter0_d_331_9167" x="44.5967" y="44.6907" width="42.251" height="49.3037" filterUnits="userSpaceOnUse" color-interpolation-filters="sRGB">
<feFlood flood-opacity="0" result="BackgroundImageFix"/>
<feColorMatrix in="SourceAlpha" type="matrix" values="0 0 0 0 0 0 0 0 0 0 0 0 0 0 0 0 0 0 127 0" result="hardAlpha"/>
<feOffset dx="11" dy="-3"/>
<feGaussianBlur stdDeviation="7"/>
<feColorMatrix type="matrix" values="0 0 0 0 0.427451 0 0 0 0 0.152941 0 0 0 0 0.568627 0 0 0 0.75 0"/>
<feBlend mode="normal" in2="BackgroundImageFix" result="effect1_dropShadow_331_9167"/>
<feBlend mode="normal" in="SourceGraphic" in2="effect1_dropShadow_331_9167" result="shape"/>
</filter>
<filter id="filter1_d_331_9167" x="18.4953" y="-0.619594" width="63.7623" height="75.758" filterUnits="userSpaceOnUse" color-interpolation-filters="sRGB">
<feFlood flood-opacity="0" result="BackgroundImageFix"/>
<feColorMatrix in="SourceAlpha" type="matrix" values="0 0 0 0 0 0 0 0 0 0 0 0 0 0 0 0 0 0 127 0" result="hardAlpha"/>
<feOffset dx="13.52" dy="-3.69"/>
<feGaussianBlur stdDeviation="8.61"/>
<feColorMatrix type="matrix" values="0 0 0 0 0.427451 0 0 0 0 0.152941 0 0 0 0 0.568627 0 0 0 0.75 0"/>
<feBlend mode="normal" in2="BackgroundImageFix" result="effect1_dropShadow_331_9167"/>
<feBlend mode="normal" in="SourceGraphic" in2="effect1_dropShadow_331_9167" result="shape"/>
</filter>
<filter id="filter2_d_331_9167" x="24.0474" y="26.9313" width="52.2586" height="60.7402" filterUnits="userSpaceOnUse" color-interpolation-filters="sRGB">
<feFlood flood-opacity="0" result="BackgroundImageFix"/>
<feColorMatrix in="SourceAlpha" type="matrix" values="0 0 0 0 0 0 0 0 0 0 0 0 0 0 0 0 0 0 127 0" result="hardAlpha"/>
<feOffset dx="13.81" dy="-3.77"/>
<feGaussianBlur stdDeviation="8.79"/>
<feColorMatrix type="matrix" values="0 0 0 0 0.427451 0 0 0 0 0.152941 0 0 0 0 0.568627 0 0 0 0.75 0"/>
<feBlend mode="normal" in2="BackgroundImageFix" result="effect1_dropShadow_331_9167"/>
<feBlend mode="normal" in="SourceGraphic" in2="effect1_dropShadow_331_9167" result="shape"/>
</filter>
<filter id="filter3_d_331_9167" x="46.9181" y="-2.28285" width="74.8514" height="84.7545" filterUnits="userSpaceOnUse" color-interpolation-filters="sRGB">
<feFlood flood-opacity="0" result="BackgroundImageFix"/>
<feColorMatrix in="SourceAlpha" type="matrix" values="0 0 0 0 0 0 0 0 0 0 0 0 0 0 0 0 0 0 127 0" result="hardAlpha"/>
<feOffset dx="21.67" dy="-5.91"/>
<feGaussianBlur stdDeviation="13.79"/>
<feColorMatrix type="matrix" values="0 0 0 0 0.427451 0 0 0 0 0.152941 0 0 0 0 0.568627 0 0 0 0.75 0"/>
<feBlend mode="normal" in2="BackgroundImageFix" result="effect1_dropShadow_331_9167"/>
<feBlend mode="normal" in="SourceGraphic" in2="effect1_dropShadow_331_9167" result="shape"/>
</filter>
<filter id="filter4_d_331_9167" x="51.4199" y="34.5685" width="41.7754" height="48.6038" filterUnits="userSpaceOnUse" color-interpolation-filters="sRGB">
<feFlood flood-opacity="0" result="BackgroundImageFix"/>
<feColorMatrix in="SourceAlpha" type="matrix" values="0 0 0 0 0 0 0 0 0 0 0 0 0 0 0 0 0 0 127 0" result="hardAlpha"/>
<feOffset dx="11" dy="-3"/>
<feGaussianBlur stdDeviation="7"/>
<feColorMatrix type="matrix" values="0 0 0 0 0.427451 0 0 0 0 0.152941 0 0 0 0 0.568627 0 0 0 0.75 0"/>
<feBlend mode="normal" in2="BackgroundImageFix" result="effect1_dropShadow_331_9167"/>
<feBlend mode="normal" in="SourceGraphic" in2="effect1_dropShadow_331_9167" result="shape"/>
</filter>
<linearGradient id="paint0_linear_331_9167" x1="55.5952" y1="25.781" x2="75.6388" y2="87.6547" gradientUnits="userSpaceOnUse">
<stop stop-color="#B0B7E6"/>
<stop offset="0.19" stop-color="#B2B8E6"/>
<stop offset="0.28" stop-color="#B3B9E6"/>
<stop offset="0.41" stop-color="#AFB6E5"/>
<stop offset="0.91" stop-color="#AFB6E5"/>
<stop offset="1" stop-color="#B0B7E6"/>
</linearGradient>
<linearGradient id="paint1_linear_331_9167" x1="55.5759" y1="25.7882" x2="75.6195" y2="87.6594" gradientUnits="userSpaceOnUse">
<stop stop-color="#B2B9E6"/>
<stop offset="0.19" stop-color="#B4BBE7"/>
<stop offset="0.28" stop-color="#B7BDE7"/>
<stop offset="0.41" stop-color="#AFB6E5"/>
<stop offset="0.91" stop-color="#AFB6E5"/>
<stop offset="1" stop-color="#B2B9E6"/>
</linearGradient>
<linearGradient id="paint2_linear_331_9167" x1="55.5566" y1="25.7979" x2="75.6002" y2="87.6667" gradientUnits="userSpaceOnUse">
<stop stop-color="#B3BAE7"/>
<stop offset="0.19" stop-color="#B7BDE9"/>
<stop offset="0.28" stop-color="#BAC0E9"/>
<stop offset="0.41" stop-color="#AFB6E5"/>
<stop offset="0.91" stop-color="#AFB6E5"/>
<stop offset="1" stop-color="#B3BAE7"/>
</linearGradient>
<linearGradient id="paint3_linear_331_9167" x1="55.5373" y1="25.8051" x2="75.5785" y2="87.674" gradientUnits="userSpaceOnUse">
<stop stop-color="#B5BBE8"/>
<stop offset="0.19" stop-color="#B9C0EA"/>
<stop offset="0.28" stop-color="#BEC4EA"/>
<stop offset="0.41" stop-color="#AFB6E5"/>
<stop offset="0.91" stop-color="#AFB6E5"/>
<stop offset="1" stop-color="#B5BBE8"/>
</linearGradient>
<linearGradient id="paint4_linear_331_9167" x1="55.518" y1="25.8148" x2="75.5592" y2="87.6812" gradientUnits="userSpaceOnUse">
<stop stop-color="#B6BDE8"/>
<stop offset="0.19" stop-color="#BCC2EB"/>
<stop offset="0.28" stop-color="#C2C7EB"/>
<stop offset="0.41" stop-color="#AFB6E5"/>
<stop offset="0.91" stop-color="#AFB6E5"/>
<stop offset="1" stop-color="#B6BDE8"/>
</linearGradient>
<linearGradient id="paint5_linear_331_9167" x1="55.4987" y1="25.822" x2="75.5375" y2="87.686" gradientUnits="userSpaceOnUse">
<stop stop-color="#B8BEE9"/>
<stop offset="0.19" stop-color="#BEC5EC"/>
<stop offset="0.28" stop-color="#C6CBEC"/>
<stop offset="0.39" stop-color="#B2B9E6"/>
<stop offset="0.41" stop-color="#AFB6E5"/>
<stop offset="0.91" stop-color="#AFB6E5"/>
<stop offset="1" stop-color="#B8BEE9"/>
</linearGradient>
<linearGradient id="paint6_linear_331_9167" x1="55.4794" y1="25.8292" x2="75.5181" y2="87.6932" gradientUnits="userSpaceOnUse">
<stop stop-color="#B9BFEA"/>
<stop offset="0.19" stop-color="#C1C7EE"/>
<stop offset="0.28" stop-color="#CACEEE"/>
<stop offset="0.38" stop-color="#B6BCE7"/>
<stop offset="0.41" stop-color="#AFB6E5"/>
<stop offset="0.91" stop-color="#AFB6E5"/>
<stop offset="1" stop-color="#B9BFEA"/>
</linearGradient>
<linearGradient id="paint7_linear_331_9167" x1="55.4576" y1="25.8389" x2="75.4988" y2="87.7005" gradientUnits="userSpaceOnUse">
<stop stop-color="#BAC1EA"/>
<stop offset="0.19" stop-color="#C4C9EF"/>
<stop offset="0.28" stop-color="#CDD2EF"/>
<stop offset="0.37" stop-color="#B9BFE8"/>
<stop offset="0.41" stop-color="#AFB6E5"/>
<stop offset="0.91" stop-color="#AFB6E5"/>
<stop offset="1" stop-color="#BAC1EA"/>
</linearGradient>
<linearGradient id="paint8_linear_331_9167" x1="55.4383" y1="25.8462" x2="75.4771" y2="87.7054" gradientUnits="userSpaceOnUse">
<stop stop-color="#BCC2EB"/>
<stop offset="0.19" stop-color="#C6CCF0"/>
<stop offset="0.28" stop-color="#D1D5F0"/>
<stop offset="0.36" stop-color="#BDC3E9"/>
<stop offset="0.41" stop-color="#AFB6E5"/>
<stop offset="0.91" stop-color="#AFB6E5"/>
<stop offset="0.99" stop-color="#B9C0EA"/>
<stop offset="1" stop-color="#BCC2EB"/>
</linearGradient>
<linearGradient id="paint9_linear_331_9167" x1="55.419" y1="25.8558" x2="75.4578" y2="87.7125" gradientUnits="userSpaceOnUse">
<stop stop-color="#BDC3EC"/>
<stop offset="0.19" stop-color="#C9CEF1"/>
<stop offset="0.27" stop-color="#D3D7F1"/>
<stop offset="0.28" stop-color="#D5D9F1"/>
<stop offset="0.35" stop-color="#C1C6EA"/>
<stop offset="0.41" stop-color="#AFB6E5"/>
<stop offset="0.91" stop-color="#AFB6E5"/>
<stop offset="0.98" stop-color="#B9C0EA"/>
<stop offset="1" stop-color="#BDC3EC"/>
</linearGradient>
<linearGradient id="paint10_linear_331_9167" x1="55.3997" y1="25.863" x2="75.4385" y2="87.7198" gradientUnits="userSpaceOnUse">
<stop stop-color="#BFC5EC"/>
<stop offset="0.19" stop-color="#CBD1F3"/>
<stop offset="0.26" stop-color="#D5D8F3"/>
<stop offset="0.28" stop-color="#D9DCF3"/>
<stop offset="0.35" stop-color="#C5CAEC"/>
<stop offset="0.41" stop-color="#AFB6E5"/>
<stop offset="0.91" stop-color="#AFB6E5"/>
<stop offset="0.98" stop-color="#B9C0E9"/>
<stop offset="1" stop-color="#BFC5EC"/>
</linearGradient>
<linearGradient id="paint11_linear_331_9167" x1="55.3804" y1="25.8703" x2="75.4168" y2="87.7247" gradientUnits="userSpaceOnUse">
<stop stop-color="#C0C6ED"/>
<stop offset="0.19" stop-color="#CED3F4"/>
<stop offset="0.26" stop-color="#D8DBF4"/>
<stop offset="0.28" stop-color="#DDE0F4"/>
<stop offset="0.34" stop-color="#C9CEED"/>
<stop offset="0.41" stop-color="#AFB6E5"/>
<stop offset="0.91" stop-color="#AFB6E5"/>
<stop offset="0.97" stop-color="#B9C0EA"/>
<stop offset="1" stop-color="#C0C6ED"/>
</linearGradient>
<linearGradient id="paint12_linear_331_9167" x1="55.3611" y1="25.8799" x2="75.3974" y2="87.7318" gradientUnits="userSpaceOnUse">
<stop stop-color="#C2C7EE"/>
<stop offset="0.19" stop-color="#D0D6F5"/>
<stop offset="0.25" stop-color="#DADDF5"/>
<stop offset="0.28" stop-color="#E1E3F5"/>
<stop offset="0.34" stop-color="#CDD1EE"/>
<stop offset="0.41" stop-color="#AFB6E5"/>
<stop offset="0.91" stop-color="#AFB6E5"/>
<stop offset="0.97" stop-color="#B9BFEA"/>
<stop offset="1" stop-color="#C2C7EE"/>
</linearGradient>
<linearGradient id="paint13_linear_331_9167" x1="55.3418" y1="25.8872" x2="75.3781" y2="87.7391" gradientUnits="userSpaceOnUse">
<stop stop-color="#C3C9EE"/>
<stop offset="0.19" stop-color="#D3D8F6"/>
<stop offset="0.25" stop-color="#DDE0F6"/>
<stop offset="0.28" stop-color="#E4E7F6"/>
<stop offset="0.34" stop-color="#D0D4EF"/>
<stop offset="0.41" stop-color="#AFB6E5"/>
<stop offset="0.91" stop-color="#AFB6E5"/>
<stop offset="0.97" stop-color="#B9C0E9"/>
<stop offset="1" stop-color="#C3C9EE"/>
</linearGradient>
<linearGradient id="paint14_linear_331_9167" x1="55.3224" y1="25.8968" x2="75.3564" y2="87.7463" gradientUnits="userSpaceOnUse">
<stop stop-color="#C4CAEF"/>
<stop offset="0.19" stop-color="#D6DAF8"/>
<stop offset="0.25" stop-color="#E0E2F8"/>
<stop offset="0.28" stop-color="#E8EAF8"/>
<stop offset="0.33" stop-color="#D4D8F1"/>
<stop offset="0.41" stop-color="#AFB6E5"/>
<stop offset="0.91" stop-color="#AFB6E5"/>
<stop offset="0.96" stop-color="#B9C0EA"/>
<stop offset="1" stop-color="#C4CAEF"/>
</linearGradient>
<linearGradient id="paint15_linear_331_9167" x1="55.3031" y1="25.9041" x2="75.3371" y2="87.7512" gradientUnits="userSpaceOnUse">
<stop stop-color="#C6CBF0"/>
<stop offset="0.19" stop-color="#D8DDF9"/>
<stop offset="0.25" stop-color="#E2E5F9"/>
<stop offset="0.28" stop-color="#ECEEF9"/>
<stop offset="0.33" stop-color="#D8DBF2"/>
<stop offset="0.41" stop-color="#AFB6E5"/>
<stop offset="0.91" stop-color="#AFB6E5"/>
<stop offset="0.96" stop-color="#B9BFEA"/>
<stop offset="1" stop-color="#C6CBF0"/>
</linearGradient>
<linearGradient id="paint16_linear_331_9167" x1="55.2814" y1="25.9114" x2="75.3178" y2="87.7585" gradientUnits="userSpaceOnUse">
<stop stop-color="#C7CDF0"/>
<stop offset="0.19" stop-color="#DBDFFA"/>
<stop offset="0.24" stop-color="#E5E7FA"/>
<stop offset="0.28" stop-color="#F0F1FA"/>
<stop offset="0.33" stop-color="#DCDFF3"/>
<stop offset="0.41" stop-color="#AFB6E5"/>
<stop offset="0.91" stop-color="#AFB6E5"/>
<stop offset="0.96" stop-color="#B9C0E9"/>
<stop offset="1" stop-color="#C7CDF0"/>
</linearGradient>
<linearGradient id="paint17_linear_331_9167" x1="55.2621" y1="25.9209" x2="75.2961" y2="87.7656" gradientUnits="userSpaceOnUse">
<stop stop-color="#C9CEF1"/>
<stop offset="0.19" stop-color="#DDE2FB"/>
<stop offset="0.24" stop-color="#E7EAFB"/>
<stop offset="0.28" stop-color="#F4F5FB"/>
<stop offset="0.33" stop-color="#E0E3F4"/>
<stop offset="0.41" stop-color="#AFB6E5"/>
<stop offset="0.91" stop-color="#AFB6E5"/>
<stop offset="0.96" stop-color="#B9C0EA"/>
<stop offset="1" stop-color="#C9CEF1"/>
</linearGradient>
<linearGradient id="paint18_linear_331_9167" x1="55.2428" y1="25.9282" x2="75.2767" y2="87.7705" gradientUnits="userSpaceOnUse">
<stop stop-color="#CACFF2"/>
<stop offset="0.19" stop-color="#E0E4FD"/>
<stop offset="0.24" stop-color="#EAECFD"/>
<stop offset="0.28" stop-color="#F7F8FD"/>
<stop offset="0.32" stop-color="#E3E5F6"/>
<stop offset="0.41" stop-color="#AFB6E5"/>
<stop offset="0.91" stop-color="#AFB6E5"/>
<stop offset="0.95" stop-color="#B9C0EA"/>
<stop offset="1" stop-color="#CACFF2"/>
</linearGradient>
<linearGradient id="paint19_linear_331_9167" x1="55.2235" y1="25.9379" x2="75.2574" y2="87.7778" gradientUnits="userSpaceOnUse">
<stop stop-color="#CCD1F2"/>
<stop offset="0.19" stop-color="#E2E7FE"/>
<stop offset="0.24" stop-color="#ECEFFE"/>
<stop offset="0.28" stop-color="#FBFCFE"/>
<stop offset="0.32" stop-color="#E7E9F7"/>
<stop offset="0.4" stop-color="#B4BBE6"/>
<stop offset="0.41" stop-color="#AFB6E5"/>
<stop offset="0.91" stop-color="#AFB6E5"/>
<stop offset="0.95" stop-color="#B9C0E9"/>
<stop offset="1" stop-color="#CCD1F2"/>
</linearGradient>
<linearGradient id="paint20_linear_331_9167" x1="55.2042" y1="25.9451" x2="75.2357" y2="87.7849" gradientUnits="userSpaceOnUse">
<stop stop-color="#CDD2F3"/>
<stop offset="0.19" stop-color="#E5E9FF"/>
<stop offset="0.24" stop-color="#EFF1FF"/>
<stop offset="0.28" stop-color="white"/>
<stop offset="0.32" stop-color="#EBEDF8"/>
<stop offset="0.4" stop-color="#B8BEE8"/>
<stop offset="0.41" stop-color="#AFB6E5"/>
<stop offset="0.91" stop-color="#AFB6E5"/>
<stop offset="0.95" stop-color="#B9C0EA"/>
<stop offset="1" stop-color="#CDD2F3"/>
</linearGradient>
<linearGradient id="paint21_linear_331_9167" x1="23.4095" y1="73.8369" x2="94.0942" y2="44.9098" gradientUnits="userSpaceOnUse">
<stop stop-color="#AFB6E5"/>
<stop offset="0.14" stop-color="#B5BCE8"/>
<stop offset="0.35" stop-color="#C7CDF0"/>
<stop offset="0.58" stop-color="#E5E9FF"/>
<stop offset="0.86" stop-color="#F4F6FF"/>
<stop offset="1" stop-color="white"/>
</linearGradient>
<linearGradient id="paint22_linear_331_9167" x1="50.9235" y1="33.4261" x2="82.1634" y2="92.9943" gradientUnits="userSpaceOnUse">
<stop stop-color="#273B98"/>
<stop offset="0.23" stop-color="#2E2BA2"/>
<stop offset="0.4" stop-color="#361CAC"/>
<stop offset="0.77" stop-color="#440B88"/>
<stop offset="1" stop-color="#4E0070"/>
</linearGradient>
<radialGradient id="paint23_radial_331_9167" cx="0" cy="0" r="1" gradientUnits="userSpaceOnUse" gradientTransform="translate(87.4944 57.0087) scale(1.31081 1.31081)">
<stop offset="0.07" stop-color="#FEE2A6"/>
<stop offset="0.14" stop-color="#797782"/>
<stop offset="0.19" stop-color="#1B2B69"/>
<stop offset="0.26" stop-color="#17255B"/>
<stop offset="0.49" stop-color="#0D1533"/>
<stop offset="0.69" stop-color="#060917"/>
<stop offset="0.87" stop-color="#010206"/>
<stop offset="1"/>
</radialGradient>
<radialGradient id="paint24_radial_331_9167" cx="0" cy="0" r="1" gradientUnits="userSpaceOnUse" gradientTransform="translate(93.8245 50.4304) scale(1.31081 1.31081)">
<stop offset="0.07" stop-color="#FEE2A6"/>
<stop offset="0.14" stop-color="#797782"/>
<stop offset="0.19" stop-color="#1B2B69"/>
<stop offset="0.26" stop-color="#17255B"/>
<stop offset="0.49" stop-color="#0D1533"/>
<stop offset="0.69" stop-color="#060917"/>
<stop offset="0.87" stop-color="#010206"/>
<stop offset="1"/>
</radialGradient>
<radialGradient id="paint25_radial_331_9167" cx="0" cy="0" r="1" gradientUnits="userSpaceOnUse" gradientTransform="translate(95.6133 44.591) scale(1.84672 1.84673)">
<stop offset="0.07" stop-color="#FEE2A6"/>
<stop offset="0.14" stop-color="#797782"/>
<stop offset="0.19" stop-color="#1B2B69"/>
<stop offset="0.26" stop-color="#17255B"/>
<stop offset="0.49" stop-color="#0D1533"/>
<stop offset="0.69" stop-color="#060917"/>
<stop offset="0.87" stop-color="#010206"/>
<stop offset="1"/>
</radialGradient>
<radialGradient id="paint26_radial_331_9167" cx="0" cy="0" r="1" gradientUnits="userSpaceOnUse" gradientTransform="translate(92.7229 54.4112) scale(1.31081 1.31081)">
<stop offset="0.07" stop-color="#FEE2A6"/>
<stop offset="0.14" stop-color="#797782"/>
<stop offset="0.19" stop-color="#1B2B69"/>
<stop offset="0.26" stop-color="#17255B"/>
<stop offset="0.49" stop-color="#0D1533"/>
<stop offset="0.69" stop-color="#060917"/>
<stop offset="0.87" stop-color="#010206"/>
<stop offset="1"/>
</radialGradient>
<radialGradient id="paint27_radial_331_9167" cx="0" cy="0" r="1" gradientUnits="userSpaceOnUse" gradientTransform="translate(27.7913 33.46) scale(1.31081 1.31081)">
<stop offset="0.07" stop-color="#FEE2A6"/>
<stop offset="0.14" stop-color="#797782"/>
<stop offset="0.19" stop-color="#1B2B69"/>
<stop offset="0.26" stop-color="#17255B"/>
<stop offset="0.49" stop-color="#0D1533"/>
<stop offset="0.69" stop-color="#060917"/>
<stop offset="0.87" stop-color="#010206"/>
<stop offset="1"/>
</radialGradient>
<radialGradient id="paint28_radial_331_9167" cx="0" cy="0" r="1" gradientUnits="userSpaceOnUse" gradientTransform="translate(34.1204 26.8842) scale(1.31081 1.31081)">
<stop offset="0.07" stop-color="#FEE2A6"/>
<stop offset="0.14" stop-color="#797782"/>
<stop offset="0.19" stop-color="#1B2B69"/>
<stop offset="0.26" stop-color="#17255B"/>
<stop offset="0.49" stop-color="#0D1533"/>
<stop offset="0.69" stop-color="#060917"/>
<stop offset="0.87" stop-color="#010206"/>
<stop offset="1"/>
</radialGradient>
<radialGradient id="paint29_radial_331_9167" cx="0" cy="0" r="1" gradientUnits="userSpaceOnUse" gradientTransform="translate(32.2044 30.8624) scale(1.31081 1.31081)">
<stop offset="0.07" stop-color="#FEE2A6"/>
<stop offset="0.14" stop-color="#797782"/>
<stop offset="0.19" stop-color="#1B2B69"/>
<stop offset="0.26" stop-color="#17255B"/>
<stop offset="0.49" stop-color="#0D1533"/>
<stop offset="0.69" stop-color="#060917"/>
<stop offset="0.87" stop-color="#010206"/>
<stop offset="1"/>
</radialGradient>
<radialGradient id="paint30_radial_331_9167" cx="0" cy="0" r="1" gradientUnits="userSpaceOnUse" gradientTransform="translate(51.9993 3.61062) scale(1.31081 1.31081)">
<stop offset="0.07" stop-color="#FEE2A6"/>
<stop offset="0.14" stop-color="#797782"/>
<stop offset="0.19" stop-color="#1B2B69"/>
<stop offset="0.26" stop-color="#17255B"/>
<stop offset="0.49" stop-color="#0D1533"/>
<stop offset="0.69" stop-color="#060917"/>
<stop offset="0.87" stop-color="#010206"/>
<stop offset="1"/>
</radialGradient>
<radialGradient id="paint31_radial_331_9167" cx="0" cy="0" r="1" gradientUnits="userSpaceOnUse" gradientTransform="translate(58.3264 10.1888) scale(1.31081 1.31081)">
<stop offset="0.07" stop-color="#FEE2A6"/>
<stop offset="0.14" stop-color="#797782"/>
<stop offset="0.19" stop-color="#1B2B69"/>
<stop offset="0.26" stop-color="#17255B"/>
<stop offset="0.49" stop-color="#0D1533"/>
<stop offset="0.69" stop-color="#060917"/>
<stop offset="0.87" stop-color="#010206"/>
<stop offset="1"/>
</radialGradient>
<radialGradient id="paint32_radial_331_9167" cx="0" cy="0" r="1" gradientUnits="userSpaceOnUse" gradientTransform="translate(59.3008 16.0259) scale(1.84672 1.84672)">
<stop offset="0.07" stop-color="#FEE2A6"/>
<stop offset="0.14" stop-color="#797782"/>
<stop offset="0.19" stop-color="#1B2B69"/>
<stop offset="0.26" stop-color="#17255B"/>
<stop offset="0.49" stop-color="#0D1533"/>
<stop offset="0.69" stop-color="#060917"/>
<stop offset="0.87" stop-color="#010206"/>
<stop offset="1"/>
</radialGradient>
<radialGradient id="paint33_radial_331_9167" cx="0" cy="0" r="1" gradientUnits="userSpaceOnUse" gradientTransform="translate(56.4114 6.20815) scale(1.31081 1.31081)">
<stop offset="0.07" stop-color="#FEE2A6"/>
<stop offset="0.14" stop-color="#797782"/>
<stop offset="0.19" stop-color="#1B2B69"/>
<stop offset="0.26" stop-color="#17255B"/>
<stop offset="0.49" stop-color="#0D1533"/>
<stop offset="0.69" stop-color="#060917"/>
<stop offset="0.87" stop-color="#010206"/>
<stop offset="1"/>
</radialGradient>
<radialGradient id="paint34_radial_331_9167" cx="0" cy="0" r="1" gradientUnits="userSpaceOnUse" gradientTransform="translate(62.7415 12.7838) scale(1.31081 1.31081)">
<stop offset="0.07" stop-color="#FEE2A6"/>
<stop offset="0.14" stop-color="#797782"/>
<stop offset="0.19" stop-color="#1B2B69"/>
<stop offset="0.26" stop-color="#17255B"/>
<stop offset="0.49" stop-color="#0D1533"/>
<stop offset="0.69" stop-color="#060917"/>
<stop offset="0.87" stop-color="#010206"/>
<stop offset="1"/>
</radialGradient>
<radialGradient id="paint35_radial_331_9167" cx="0" cy="0" r="1" gradientUnits="userSpaceOnUse" gradientTransform="translate(63.7139 18.6233) scale(1.84673 1.84672)">
<stop offset="0.07" stop-color="#FEE2A6"/>
<stop offset="0.14" stop-color="#797782"/>
<stop offset="0.19" stop-color="#1B2B69"/>
<stop offset="0.26" stop-color="#17255B"/>
<stop offset="0.49" stop-color="#0D1533"/>
<stop offset="0.69" stop-color="#060917"/>
<stop offset="0.87" stop-color="#010206"/>
<stop offset="1"/>
</radialGradient>
<linearGradient id="paint36_linear_331_9167" x1="7.49913" y1="50.2249" x2="12.6265" y2="41.4293" gradientUnits="userSpaceOnUse">
<stop stop-color="#561174"/>
<stop offset="1" stop-color="#D945C7"/>
</linearGradient>
<linearGradient id="paint37_linear_331_9167" x1="47.976" y1="72.3425" x2="61.4679" y2="72.3425" gradientUnits="userSpaceOnUse">
<stop stop-color="#2F186A"/>
<stop offset="1" stop-color="#58219F" stop-opacity="0"/>
</linearGradient>
<linearGradient id="paint38_linear_331_9167" x1="50.9761" y1="179.568" x2="50.9761" y2="175.112" gradientUnits="userSpaceOnUse">
<stop stop-color="#FF3FD4"/>
<stop offset="1" stop-color="#2FF7FF"/>
</linearGradient>
<linearGradient id="paint39_linear_331_9167" x1="52.936" y1="179.568" x2="52.936" y2="177.34" gradientUnits="userSpaceOnUse">
<stop stop-color="#FF3FD4"/>
<stop offset="1" stop-color="#2FF7FF"/>
</linearGradient>
<linearGradient id="paint40_linear_331_9167" x1="54.897" y1="179.569" x2="54.897" y2="175.499" gradientUnits="userSpaceOnUse">
<stop stop-color="#FF3FD4"/>
<stop offset="1" stop-color="#2FF7FF"/>
</linearGradient>
<linearGradient id="paint41_linear_331_9167" x1="56.8569" y1="179.568" x2="56.8569" y2="175.802" gradientUnits="userSpaceOnUse">
<stop stop-color="#FF3FD4"/>
<stop offset="1" stop-color="#2FF7FF"/>
</linearGradient>
<linearGradient id="paint42_linear_331_9167" x1="58.8169" y1="179.568" x2="58.8169" y2="175.112" gradientUnits="userSpaceOnUse">
<stop stop-color="#FF3FD4"/>
<stop offset="1" stop-color="#2FF7FF"/>
</linearGradient>
<linearGradient id="paint43_linear_331_9167" x1="54.925" y1="179.684" x2="54.925" y2="179.452" gradientUnits="userSpaceOnUse">
<stop stop-color="#FF3FD4"/>
<stop offset="1" stop-color="#2FF7FF"/>
</linearGradient>
<linearGradient id="paint44_linear_331_9167" x1="10.5564" y1="45.3799" x2="12.269" y2="42.4421" gradientUnits="userSpaceOnUse">
<stop stop-color="#FF3FD4"/>
<stop offset="1" stop-color="#2FF7FF"/>
</linearGradient>
<linearGradient id="paint45_linear_331_9167" x1="-3.69475" y1="28.2714" x2="6.17943" y2="11.3331" gradientUnits="userSpaceOnUse">
<stop stop-color="#2F186A"/>
<stop offset="1" stop-color="#58219F"/>
</linearGradient>
<linearGradient id="paint46_linear_331_9167" x1="22.6609" y1="40.9482" x2="51.0521" y2="40.9482" gradientUnits="userSpaceOnUse">
<stop stop-color="#2F186A"/>
<stop offset="1" stop-color="#58219F" stop-opacity="0"/>
</linearGradient>
<linearGradient id="paint47_linear_331_9167" x1="-2.33291" y1="25.9345" x2="2.80911" y2="17.1138" gradientUnits="userSpaceOnUse">
<stop stop-color="#1D114B"/>
<stop offset="1" stop-color="#7E1A92"/>
</linearGradient>
<linearGradient id="paint48_linear_331_9167" x1="-9.38332" y1="21.9442" x2="-4.62397" y2="13.78" gradientUnits="userSpaceOnUse">
<stop stop-color="#62119D"/>
<stop offset="1" stop-color="#2FF7FF"/>
</linearGradient>
<linearGradient id="paint49_linear_331_9167" x1="-12.8847" y1="19.9035" x2="-8.92212" y2="13.1059" gradientUnits="userSpaceOnUse">
<stop stop-color="#62119D"/>
<stop offset="1" stop-color="#2FF7FF"/>
</linearGradient>
<linearGradient id="paint50_linear_331_9167" x1="-5.88337" y1="23.9848" x2="-2.35571" y2="17.9333" gradientUnits="userSpaceOnUse">
<stop stop-color="#62119D"/>
<stop offset="1" stop-color="#2FF7FF"/>
</linearGradient>
<linearGradient id="paint51_linear_331_9167" x1="-2.3849" y1="26.0241" x2="0.233162" y2="21.5331" gradientUnits="userSpaceOnUse">
<stop stop-color="#62119D"/>
<stop offset="1" stop-color="#2FF7FF"/>
</linearGradient>
<linearGradient id="paint52_linear_331_9167" x1="1.11578" y1="28.0648" x2="4.98223" y2="21.4323" gradientUnits="userSpaceOnUse">
<stop stop-color="#62119D"/>
<stop offset="1" stop-color="#2FF7FF"/>
</linearGradient>
<linearGradient id="paint53_linear_331_9167" x1="4.61646" y1="30.1055" x2="9.68947" y2="21.4032" gradientUnits="userSpaceOnUse">
<stop stop-color="#62119D"/>
<stop offset="1" stop-color="#2FF7FF"/>
</linearGradient>
<linearGradient id="paint54_linear_331_9167" x1="8.11714" y1="32.1462" x2="13.1473" y2="23.5174" gradientUnits="userSpaceOnUse">
<stop stop-color="#62119D"/>
<stop offset="1" stop-color="#2FF7FF"/>
</linearGradient>
<linearGradient id="paint55_linear_331_9167" x1="-13.5169" y1="19.4147" x2="8.85353" y2="32.4555" gradientUnits="userSpaceOnUse">
<stop stop-color="#62119D"/>
<stop offset="1" stop-color="#2FF7FF"/>
</linearGradient>
<linearGradient id="paint56_linear_331_9167" x1="-11.151" y1="39.9388" x2="-5.02093" y2="29.4232" gradientUnits="userSpaceOnUse">
<stop stop-color="#561174"/>
<stop offset="1" stop-color="#D945C7"/>
</linearGradient>
<linearGradient id="paint57_linear_331_9167" x1="28.2952" y1="61.0714" x2="44.4377" y2="61.0714" gradientUnits="userSpaceOnUse">
<stop stop-color="#2F186A"/>
<stop offset="1" stop-color="#58219F" stop-opacity="0"/>
</linearGradient>
<linearGradient id="paint58_linear_331_9167" x1="-14.797" y1="35.5164" x2="-12.1999" y2="31.0612" gradientUnits="userSpaceOnUse">
<stop stop-color="#62119D"/>
<stop offset="1" stop-color="#2FF7FF"/>
</linearGradient>
<linearGradient id="paint59_linear_331_9167" x1="-12.4815" y1="36.866" x2="-10.5859" y2="33.6143" gradientUnits="userSpaceOnUse">
<stop stop-color="#62119D"/>
<stop offset="1" stop-color="#2FF7FF"/>
</linearGradient>
<linearGradient id="paint60_linear_331_9167" x1="-10.167" y1="38.2156" x2="-6.0381" y2="31.1329" gradientUnits="userSpaceOnUse">
<stop stop-color="#62119D"/>
<stop offset="1" stop-color="#2FF7FF"/>
</linearGradient>
<linearGradient id="paint61_linear_331_9167" x1="-7.84852" y1="39.5666" x2="-4.73173" y2="34.22" gradientUnits="userSpaceOnUse">
<stop stop-color="#62119D"/>
<stop offset="1" stop-color="#2FF7FF"/>
</linearGradient>
<linearGradient id="paint62_linear_331_9167" x1="-5.53301" y1="40.9163" x2="-1.84534" y2="34.5905" gradientUnits="userSpaceOnUse">
<stop stop-color="#62119D"/>
<stop offset="1" stop-color="#2FF7FF"/>
</linearGradient>
<linearGradient id="paint63_linear_331_9167" x1="-10.1603" y1="38.4381" x2="-9.97001" y2="38.1117" gradientUnits="userSpaceOnUse">
<stop stop-color="#62119D"/>
<stop offset="1" stop-color="#2FF7FF"/>
</linearGradient>
<linearGradient id="paint64_linear_331_9167" x1="28.0157" y1="33.341" x2="34.8735" y2="21.577" gradientUnits="userSpaceOnUse">
<stop stop-color="#2F186A"/>
<stop offset="1" stop-color="#58219F"/>
</linearGradient>
<linearGradient id="paint65_linear_331_9167" x1="53.5745" y1="46.0056" x2="71.7713" y2="46.0056" gradientUnits="userSpaceOnUse">
<stop stop-color="#2F186A"/>
<stop offset="1" stop-color="#58219F" stop-opacity="0"/>
</linearGradient>
<linearGradient id="paint66_linear_331_9167" x1="25.8772" y1="24.537" x2="36.8943" y2="30.9594" gradientUnits="userSpaceOnUse">
<stop stop-color="#FF3FD4"/>
<stop offset="1" stop-color="#2FF7FF"/>
</linearGradient>
<linearGradient id="paint67_linear_331_9167" x1="34.2411" y1="27.4324" x2="37.2326" y2="26.1515" gradientUnits="userSpaceOnUse">
<stop stop-color="#62119D"/>
<stop offset="0.1" stop-color="#60169F"/>
<stop offset="0.23" stop-color="#5D27A6"/>
<stop offset="0.38" stop-color="#5642B2"/>
<stop offset="0.55" stop-color="#4E68C2"/>
<stop offset="0.72" stop-color="#4399D7"/>
<stop offset="0.9" stop-color="#36D4F0"/>
<stop offset="1" stop-color="#2FF7FF"/>
</linearGradient>
<linearGradient id="paint68_linear_331_9167" x1="20.3865" y1="43.2824" x2="25.331" y2="34.8007" gradientUnits="userSpaceOnUse">
<stop stop-color="#2F186A"/>
<stop offset="1" stop-color="#58219F"/>
</linearGradient>
<linearGradient id="paint69_linear_331_9167" x1="54.7992" y1="61.8704" x2="67.8156" y2="61.8704" gradientUnits="userSpaceOnUse">
<stop stop-color="#2F186A"/>
<stop offset="1" stop-color="#58219F" stop-opacity="0"/>
</linearGradient>
<linearGradient id="paint70_linear_331_9167" x1="23.4785" y1="40.1349" x2="26.9235" y2="42.1431" gradientUnits="userSpaceOnUse">
<stop stop-color="#FF3FD4"/>
<stop offset="1" stop-color="#2FF7FF"/>
</linearGradient>
<linearGradient id="paint71_linear_331_9167" x1="23.6308" y1="37.2505" x2="28.0459" y2="39.8243" gradientUnits="userSpaceOnUse">
<stop stop-color="#67117F"/>
<stop offset="1" stop-color="#FF48ED"/>
</linearGradient>
<linearGradient id="paint72_linear_331_9167" x1="19.974" y1="39.6585" x2="25.3833" y2="42.8118" gradientUnits="userSpaceOnUse">
<stop stop-color="#7C1583"/>
<stop offset="1" stop-color="#4D1F93"/>
</linearGradient>
<linearGradient id="paint73_linear_331_9167" x1="19.0171" y1="36.4404" x2="22.8999" y2="38.7039" gradientUnits="userSpaceOnUse">
<stop stop-color="#62119D"/>
<stop offset="1" stop-color="#2FF7FF"/>
</linearGradient>
<linearGradient id="paint74_linear_331_9167" x1="75.4505" y1="56.9628" x2="23.2089" y2="50.0635" gradientUnits="userSpaceOnUse">
<stop stop-color="#1BB0D4"/>
<stop offset="0.05" stop-color="#189CBC"/>
<stop offset="0.18" stop-color="#11738B"/>
<stop offset="0.31" stop-color="#0C5060"/>
<stop offset="0.45" stop-color="#07333D"/>
<stop offset="0.58" stop-color="#041C22"/>
<stop offset="0.72" stop-color="#010C0F"/>
<stop offset="0.85" stop-color="#000303"/>
<stop offset="1"/>
</linearGradient>
<clipPath id="clip0_331_9167">
<rect width="96" height="96" fill="white"/>
</clipPath>
</defs>
</svg>
