<svg width="96" height="96" viewBox="0 0 96 96" fill="none" xmlns="http://www.w3.org/2000/svg">
<g clip-path="url(#clip0_331_12766)">
<g opacity="0.41">
<path d="M14.1705 78.1544C15.85 78.0774 17.1912 77.5731 17.1662 77.0282C17.1412 76.4833 15.7595 76.104 14.08 76.181C12.4005 76.2581 11.0593 76.7623 11.0843 77.3072C11.1093 77.8522 12.4911 78.2315 14.1705 78.1544Z" fill="#0F0A26"/>
</g>
<path d="M23.9465 62.5941C23.8942 62.6112 23.8542 62.6402 23.8102 62.6694L23.9381 62.578L23.9464 62.59L23.9465 62.5941Z" fill="url(#paint0_linear_331_12766)"/>
<path d="M28.5321 69.0919L28.4041 69.1832C28.4481 69.15 28.4881 69.125 28.5238 69.0799L28.5321 69.0919Z" fill="url(#paint1_linear_331_12766)"/>
<path d="M28.4036 69.1832L10.6265 81.9971L10.6182 81.9851C10.6182 81.9851 10.5905 82.026 10.5705 82.0385C9.51487 82.782 7.63327 81.9287 6.36648 80.1293C5.09564 78.33 4.92145 76.2723 5.97704 75.5248C5.99706 75.5123 6.02541 75.5117 6.04131 75.4953L6.03299 75.4833L23.8101 62.6694C22.7544 63.4129 22.9286 65.4706 24.1995 67.274C25.4704 69.0733 27.348 69.9307 28.4036 69.1832Z" fill="url(#paint2_linear_331_12766)"/>
<path d="M28.4042 69.1831C27.3485 69.9266 25.4669 69.0733 24.2002 67.2739C22.9293 65.4745 22.7551 63.4169 23.8107 62.6694C23.8547 62.6362 23.8947 62.6112 23.947 62.594C25.0215 61.996 26.7979 62.8511 28.0149 64.5826C29.2359 66.314 29.4447 68.2699 28.5239 69.0838C28.4883 69.129 28.4482 69.154 28.4043 69.1872L28.4042 69.1831Z" fill="#3A4989"/>
<path d="M33.5397 57.8851C33.5116 57.8937 33.4916 57.9102 33.4676 57.9269L33.5356 57.8811L33.5358 57.8892L33.5397 57.8851Z" fill="url(#paint3_linear_331_12766)"/>
<path d="M35.9693 61.3279L35.9013 61.3737C35.9253 61.357 35.9453 61.3445 35.9651 61.3199L35.9653 61.328L35.9693 61.3279Z" fill="url(#paint4_linear_331_12766)"/>
<path d="M35.9006 61.3736L27.8515 67.0591L27.8513 67.051C27.8513 67.051 27.8314 67.0716 27.8194 67.0799C27.2596 67.4745 26.2637 67.0225 25.5908 66.0668C24.918 65.1111 24.8258 64.0237 25.3856 63.6291C25.3976 63.6208 25.4098 63.6206 25.4218 63.6163L25.4217 63.6082L33.4627 57.9228C32.9029 58.3174 32.9951 59.4089 33.6679 60.3605C34.3408 61.3162 35.3367 61.7682 35.8965 61.3736L35.9006 61.3736Z" fill="url(#paint5_linear_331_12766)"/>
<path d="M35.9008 61.3737C35.341 61.7682 34.3451 61.3162 33.6723 60.3605C32.9994 59.4049 32.9072 58.3174 33.467 57.9228C33.491 57.9062 33.5111 57.8937 33.5392 57.8811C34.1085 57.5633 35.0477 58.0162 35.6955 58.9319C36.3434 59.8475 36.4549 60.8861 35.9646 61.3158C35.9448 61.3405 35.9248 61.353 35.9008 61.3696L35.9008 61.3737Z" fill="#3A4989"/>
<g opacity="0.41">
<path d="M59.5678 72.57C61.4304 72.4845 62.9178 71.9246 62.8901 71.3194C62.8623 70.7141 61.3299 70.2928 59.4673 70.3782C57.6047 70.4637 56.1172 71.0236 56.145 71.6288C56.1728 72.2341 57.7052 72.6554 59.5678 72.57Z" fill="#0F0A26"/>
</g>
<path d="M63.2551 23.3972L56.2045 23.5223C54.8526 23.5463 53.5128 24.0155 52.4555 24.8966C48.9086 27.8503 44.9726 30.3211 40.7593 32.2218C38.9036 33.0564 37.6561 34.8559 37.6024 36.8448L37.3729 45.8127C37.1211 55.5785 41.683 64.6476 49.598 70.1064L58.3696 76.1574L67.4633 69.7893C75.6652 64.0444 80.6997 54.805 80.9515 45.0391L81.181 36.0712C81.2307 34.0824 80.074 32.3256 78.2627 31.5561C74.1425 29.8073 70.3317 27.4741 66.9331 24.6396C65.9181 23.7953 64.6029 23.3732 63.251 23.3972L63.2551 23.3972Z" fill="url(#paint6_linear_331_12766)"/>
<path d="M61.8957 22.2958L54.8451 22.421C53.4933 22.445 52.1534 22.9141 51.0961 23.7953C47.5493 26.749 43.6133 29.2197 39.3999 31.1205C37.5442 31.9551 36.2968 33.7546 36.243 35.7435L36.0135 44.7113C35.7618 54.4772 40.3237 63.5463 48.2386 69.0051L57.0103 75.056L66.104 68.688C74.3059 62.943 79.3404 53.7036 79.5921 43.9378L79.8216 34.9699C79.8713 32.9811 78.7146 31.2243 76.9033 30.4548C72.7831 28.706 68.9723 26.3728 65.5738 23.5383C64.5587 22.6939 63.2435 22.2719 61.8917 22.2959L61.8957 22.2958Z" fill="url(#paint7_linear_331_12766)"/>
<path d="M64.3685 24.9564C64.3932 24.9803 64.4301 25.008 64.4589 25.0318C64.0721 24.9091 63.65 24.8518 63.221 24.8594L56.1663 24.9846C55.2232 25.0014 54.3059 25.3254 53.6077 25.9046C49.9052 28.9866 45.8292 31.5529 41.4712 33.517C40.2661 34.0525 39.4766 35.1961 39.4423 36.4559L39.2129 45.4238C38.9787 54.586 43.2719 63.1133 50.7071 68.2325L57.2122 72.7285L57.0683 72.8322L49.3297 67.4998C41.9066 62.3804 37.6131 53.837 37.8473 44.6787L38.0768 35.7109C38.1073 34.4633 38.9006 33.3075 40.0936 32.7722C44.4515 30.8081 48.54 28.2577 52.2424 25.1717C52.9444 24.5803 53.8456 24.2566 54.8008 24.2396L61.8555 24.1144C62.7985 24.0976 63.6985 24.3894 64.3685 24.9564Z" fill="url(#paint8_linear_331_12766)"/>
<path d="M76.9088 32.6207C75.5665 32.0412 74.2633 31.3842 72.9873 30.6619C74.0089 31.1944 75.058 31.6778 76.1188 32.1326C76.4125 32.257 76.6664 32.4185 76.9088 32.6207Z" fill="url(#paint9_linear_331_12766)"/>
<path d="M77.9882 35.0025L77.7587 43.9704C77.5246 53.1327 72.7963 61.8322 65.0901 67.2202L57.2119 72.7286L50.7068 68.2326C43.2716 63.1134 38.9784 54.5821 39.2126 45.4239L39.4421 36.456C39.4764 35.1962 40.2658 34.0526 41.4709 33.5171C45.8289 31.553 49.9049 28.9867 53.6074 25.9047C54.3097 25.3254 55.223 25.0015 56.166 24.9847L63.2207 24.8595C63.6457 24.852 64.0718 24.9092 64.4586 25.0319C67.0023 27.1447 69.7513 28.9704 72.6854 30.4973C72.7877 30.5603 72.8899 30.6111 72.9919 30.6579C74.2679 31.3802 75.5711 32.0372 76.9134 32.6166C77.612 33.1954 78.0161 34.0627 77.9922 34.9984L77.9882 35.0025Z" fill="url(#paint10_linear_331_12766)"/>
<path d="M72.6858 30.4972C69.7517 28.9703 67.0026 27.1445 64.459 25.0317C64.935 25.165 65.3682 25.3881 65.7338 25.6893C67.8997 27.5011 70.2237 29.1036 72.6858 30.4972Z" fill="url(#paint11_linear_331_12766)"/>
<path d="M67.963 25.3905C67.1468 24.7977 66.3504 24.1843 65.5778 23.5381C65.5326 23.5024 65.4836 23.479 65.4385 23.4434C66.2562 24.1212 67.0977 24.7702 67.963 25.3905Z" fill="white"/>
<path d="M77.8893 31.0281C78.9622 31.9403 79.5975 33.2894 79.559 34.7719L79.3296 43.7398C79.0778 53.5056 74.0433 62.745 65.8414 68.49L56.7477 74.858L47.9761 68.8071C47.5703 68.5268 47.1804 68.2341 46.7946 67.9373C47.2627 68.3056 47.7468 68.6654 48.2427 69.0048L57.0144 75.0557L66.108 68.6877C74.3099 62.9427 79.3445 53.7033 79.5962 43.9375L79.8257 34.9696C79.8661 33.3696 79.12 31.9334 77.8893 31.0281Z" fill="white"/>
<g opacity="0.3">
<path opacity="0.02" d="M57.3191 58.5372C63.6199 58.215 68.6429 56.2941 68.5382 54.2466C68.4336 52.1992 63.2408 50.8006 56.94 51.1227C50.6391 51.4449 45.6161 53.3658 45.7208 55.4133C45.8255 57.4607 51.0182 58.8593 57.3191 58.5372Z" fill="#0F0A26"/>
<path opacity="0.04" d="M57.3275 58.4517C63.5435 58.1338 68.4988 56.2381 68.3955 54.2175C68.2922 52.1968 63.1694 50.8164 56.9534 51.1343C50.7373 51.4521 45.782 53.3478 45.8853 55.3684C45.9886 57.3891 51.1115 58.7695 57.3275 58.4517Z" fill="#0F0A26"/>
<path opacity="0.06" d="M57.3389 58.3662C63.4723 58.0526 68.3618 56.182 68.2599 54.1882C68.1579 52.1943 63.1032 50.8322 56.9698 51.1458C50.8364 51.4594 45.9469 53.33 46.0488 55.3238C46.1508 57.3177 51.2055 58.6798 57.3389 58.3662Z" fill="#0F0A26"/>
<path opacity="0.08" d="M57.3503 58.2763C63.3989 57.967 68.2206 56.1217 68.1201 54.1546C68.0195 52.1876 63.0346 50.8437 56.9861 51.1529C50.9375 51.4622 46.1157 53.3075 46.2163 55.2746C46.3169 57.2416 51.3017 58.5855 57.3503 58.2763Z" fill="#0F0A26"/>
<path opacity="0.1" d="M57.3588 58.1908C63.3248 57.8858 68.0807 56.0656 67.9815 54.1253C67.8823 52.1851 62.9655 50.8594 56.9996 51.1645C51.0336 51.4695 46.2777 53.2897 46.3769 55.23C46.4761 57.1702 51.3929 58.4959 57.3588 58.1908Z" fill="#0F0A26"/>
<path opacity="0.12" d="M57.3698 58.097C63.2509 57.7963 67.9392 56.0032 67.8415 54.0919C67.7438 52.1807 62.897 50.8751 57.0159 51.1758C51.1348 51.4765 46.4464 53.2696 46.5441 55.1808C46.6418 57.0921 51.4887 58.3977 57.3698 58.097Z" fill="#0F0A26"/>
<path opacity="0.14" d="M57.3812 58.0113C63.1797 57.7148 67.8022 55.9468 67.7059 54.0624C67.6095 52.1779 62.8308 50.8906 57.0323 51.1871C51.2338 51.4835 46.6113 53.2515 46.7077 55.136C46.804 57.0204 51.5827 58.3077 57.3812 58.0113Z" fill="#0F0A26"/>
<path opacity="0.16" d="M57.3896 57.9218C63.1033 57.6297 67.6581 55.887 67.5631 54.0293C67.4681 52.1716 62.7593 50.9025 57.0457 51.1947C51.332 51.4868 46.7772 53.2296 46.8722 55.0872C46.9672 56.9449 51.676 58.214 57.3896 57.9218Z" fill="#0F0A26"/>
<path opacity="0.18" d="M57.4011 57.8364C63.0321 57.5485 67.5211 55.8309 67.4275 54C67.3339 52.1691 62.6931 50.9183 57.0621 51.2062C51.4311 51.4941 46.9421 53.2117 47.0357 55.0426C47.1293 56.8735 51.7701 58.1243 57.4011 57.8364Z" fill="#0F0A26"/>
<path opacity="0.2" d="M57.4124 57.7465C62.9586 57.4629 67.3799 55.7705 67.2877 53.9665C67.1954 52.1624 62.6246 50.9298 57.0784 51.2134C51.5322 51.4969 47.1109 53.1893 47.2032 54.9934C47.2954 56.7974 51.8663 58.03 57.4124 57.7465Z" fill="#0F0A26"/>
<path opacity="0.22" d="M57.4205 57.661C62.8841 57.3816 67.2397 55.7162 67.1489 53.9412C67.0582 52.1661 62.5555 50.9536 57.0919 51.233C51.6283 51.5123 47.2728 53.1777 47.3635 54.9528C47.4543 56.7278 51.957 57.9403 57.4205 57.661Z" fill="#0F0A26"/>
<path opacity="0.24" d="M57.428 57.5716C62.8067 57.2965 67.0946 55.6564 67.0052 53.9081C66.9158 52.1599 62.483 50.9656 57.1043 51.2406C51.7256 51.5156 47.4377 53.1558 47.5271 54.904C47.6165 56.6523 52.0493 57.8466 57.428 57.5716Z" fill="#0F0A26"/>
<path opacity="0.25" d="M57.4395 57.4858C62.7356 57.2151 66.9576 55.6 66.8696 53.8786C66.7816 52.1571 62.4168 50.9811 57.1207 51.2519C51.8246 51.5227 47.6026 53.1377 47.6906 54.8592C47.7786 56.5806 52.1433 57.7566 57.4395 57.4858Z" fill="#0F0A26"/>
<path opacity="0.27" d="M57.4518 57.4001C62.6631 57.1336 66.8174 55.5438 66.7307 53.8492C66.6441 52.1545 62.3493 50.9967 57.138 51.2632C51.9267 51.5296 47.7724 53.1194 47.859 54.8141C47.9457 56.5087 52.2405 57.6665 57.4518 57.4001Z" fill="#0F0A26"/>
<path opacity="0.29" d="M57.4593 57.3105C62.588 57.0482 66.6765 55.4836 66.5912 53.8157C66.5059 52.1478 62.2792 51.0083 57.1505 51.2706C52.0218 51.5328 47.9334 53.0974 48.0187 54.7653C48.1039 56.4332 52.3307 57.5727 57.4593 57.3105Z" fill="#0F0A26"/>
<path opacity="0.31" d="M57.4707 57.2249C62.5145 56.9671 66.5353 55.4277 66.4514 53.7866C66.3675 52.1455 62.2106 51.0242 57.1668 51.2821C52.123 51.54 48.1022 53.0794 48.1861 54.7205C48.27 56.3615 52.4269 57.4828 57.4707 57.2249Z" fill="#0F0A26"/>
<path opacity="0.33" d="M57.4827 57.1312C62.4439 56.8775 66.399 55.365 66.3165 53.753C66.2341 52.1409 62.1454 51.0397 57.1842 51.2934C52.223 51.5471 48.268 53.0595 48.3504 54.6716C48.4328 56.2836 52.5215 57.3848 57.4827 57.1312Z" fill="#0F0A26"/>
<path opacity="0.35" d="M57.4903 57.0457C62.3689 56.7962 66.258 55.3089 66.177 53.7237C66.0959 52.1384 62.0753 51.0555 57.1967 51.3049C52.3182 51.5544 48.429 53.0417 48.51 54.627C48.5911 56.2122 52.6117 57.2951 57.4903 57.0457Z" fill="#0F0A26"/>
<path opacity="0.37" d="M57.5016 56.956C62.2953 56.7109 66.1168 55.2488 66.0372 53.6904C65.9575 52.1319 62.0068 51.0672 57.213 51.3123C52.4193 51.5574 48.5978 53.0195 48.6775 54.578C48.7572 56.1364 52.7079 57.2011 57.5016 56.956Z" fill="#0F0A26"/>
<path opacity="0.39" d="M57.5131 56.8745C62.2242 56.6336 65.9799 55.1966 65.9016 53.665C65.8232 52.1333 61.9406 51.0869 57.2295 51.3278C52.5183 51.5686 48.7627 53.0056 48.841 54.5373C48.9193 56.0689 52.8019 57.1153 57.5131 56.8745Z" fill="#0F0A26"/>
<path opacity="0.41" d="M57.5215 56.7848C62.1478 56.5482 65.8358 55.1365 65.7588 53.6317C65.6819 52.1268 61.8692 51.0986 57.2429 51.3351C52.6166 51.5717 48.9286 52.9834 49.0055 54.4883C49.0825 55.9931 52.8952 57.0213 57.5215 56.7848Z" fill="#0F0A26"/>
<path opacity="0.43" d="M57.5325 56.6951C62.0762 56.4628 65.6984 55.0781 65.623 53.6022C65.5475 52.1264 61.803 51.1183 57.2593 51.3506C52.7156 51.5829 49.0934 52.9677 49.1689 54.4435C49.2443 55.9194 52.9889 56.9275 57.5325 56.6951Z" fill="#0F0A26"/>
<path opacity="0.45" d="M57.54 56.6055C61.9988 56.3775 65.5533 55.018 65.4793 53.5689C65.4052 52.1199 61.7305 51.13 57.2717 51.358C52.8129 51.5859 49.2583 52.9454 49.3324 54.3945C49.4065 55.8436 53.0812 56.8335 57.54 56.6055Z" fill="#0F0A26"/>
<path opacity="0.47" d="M57.5524 56.5198C61.9286 56.296 65.4173 54.9616 65.3446 53.5394C65.2719 52.1171 61.6653 51.1455 57.2891 51.3693C52.9129 51.593 49.4242 52.9274 49.4969 54.3497C49.5696 55.7719 53.1762 56.7435 57.5524 56.5198Z" fill="#0F0A26"/>
<path opacity="0.49" d="M57.5638 56.4343C61.8551 56.2148 65.2761 54.9057 65.2048 53.5102C65.1334 52.1148 61.5968 51.1614 57.3054 51.3808C53.014 51.6002 49.593 52.9093 49.6643 54.3048C49.7357 55.7003 53.2724 56.6537 57.5638 56.4343Z" fill="#0F0A26"/>
<path opacity="0.51" d="M57.5713 56.3446C61.7801 56.1294 65.1352 54.8455 65.0653 53.4768C64.9953 52.1081 61.5267 51.173 57.3179 51.3882C53.1091 51.6034 49.754 52.8874 49.824 54.2561C49.894 55.6247 53.3626 56.5598 57.5713 56.3446Z" fill="#0F0A26"/>
<path opacity="0.53" d="M57.5837 56.2589C61.7076 56.048 64.995 54.7893 64.9264 53.4474C64.8578 52.1055 61.4591 51.1886 57.3352 51.3995C53.2113 51.6103 49.9238 52.8691 49.9924 54.211C50.061 55.5528 53.4597 56.4697 57.5837 56.2589Z" fill="#0F0A26"/>
<path opacity="0.55" d="M57.5908 56.1653C61.6321 55.9587 64.8538 54.7269 64.7867 53.414C64.7196 52.1012 61.389 51.2044 57.3477 51.411C53.3064 51.6177 50.0847 52.8494 50.1518 54.1623C50.2189 55.4752 53.5495 56.372 57.5908 56.1653Z" fill="#0F0A26"/>
<path opacity="0.57" d="M57.6021 56.0837C61.5586 55.8814 64.7126 54.6749 64.6469 53.3888C64.5811 52.1027 61.3205 51.2242 57.364 51.4264C53.4076 51.6287 50.2535 52.8353 50.3193 54.1214C50.385 55.4074 53.6457 56.286 57.6021 56.0837Z" fill="#0F0A26"/>
<path opacity="0.59" d="M57.6136 55.9941C61.4874 55.796 64.5756 54.6146 64.5112 53.3553C64.4468 52.0961 61.2543 51.2358 57.3804 51.4338C53.5066 51.6319 50.4184 52.8133 50.4828 54.0726C50.5472 55.3319 53.7397 56.1922 57.6136 55.9941Z" fill="#0F0A26"/>
<path opacity="0.61" d="M57.622 55.9086C61.411 55.7148 64.4315 54.5587 64.3685 53.3262C64.3055 52.0937 61.1828 51.2516 57.3938 51.4454C53.6048 51.6391 50.5843 52.7953 50.6473 54.0277C50.7103 55.2602 53.833 56.1023 57.622 55.9086Z" fill="#0F0A26"/>
<path opacity="0.63" d="M57.6335 55.819C61.3399 55.6295 64.2945 54.4984 64.2329 53.2927C64.1712 52.087 61.1166 51.2633 57.4102 51.4528C53.7038 51.6423 50.7492 52.7733 50.8108 53.979C50.8725 55.1847 53.9271 56.0085 57.6335 55.819Z" fill="#0F0A26"/>
<path opacity="0.65" d="M57.6454 55.7293C61.2669 55.5441 64.154 54.4401 64.0938 53.2635C64.0337 52.0868 61.049 51.283 57.4275 51.4682C53.8059 51.6534 50.9189 52.7573 50.9791 53.934C51.0392 55.1107 54.0238 55.9144 57.6454 55.7293Z" fill="#0F0A26"/>
<path opacity="0.67" d="M57.6529 55.6396C61.1919 55.4587 64.0131 54.3799 63.9543 53.23C63.8955 52.0801 60.979 51.2947 57.44 51.4756C53.9011 51.6565 51.0799 52.7354 51.1387 53.8852C51.1975 55.0351 54.114 55.8206 57.6529 55.6396Z" fill="#0F0A26"/>
<path opacity="0.69" d="M57.6643 55.5539C61.1184 55.3773 63.8719 54.3237 63.8145 53.2006C63.7571 52.0775 60.9104 51.3103 57.4563 51.4869C54.0023 51.6635 51.2487 52.7171 51.3061 53.8402C51.3635 54.9632 54.2102 55.7305 57.6643 55.5539Z" fill="#0F0A26"/>
<path opacity="0.71" d="M57.6728 55.4684C61.0443 55.296 63.732 54.2676 63.6759 53.1713C63.6198 52.075 60.8413 51.326 57.4698 51.4984C54.0983 51.6708 51.4107 52.6993 51.4667 53.7955C51.5228 54.8918 54.3013 55.6408 57.6728 55.4684Z" fill="#0F0A26"/>
<path opacity="0.73" d="M57.6841 55.3788C60.9708 55.2107 63.5908 54.2075 63.5361 53.138C63.4814 52.0685 60.7727 51.3377 57.4861 51.5058C54.1995 51.6738 51.5795 52.677 51.6342 53.7465C51.6889 54.816 54.3975 55.5468 57.6841 55.3788Z" fill="#0F0A26"/>
<path opacity="0.75" d="M57.6962 55.293C60.9002 55.1292 63.4544 54.1529 63.4012 53.1125C63.348 52.072 60.7075 51.3613 57.5035 51.5252C54.2995 51.689 51.7453 52.6652 51.7985 53.7057C51.8517 54.7462 54.4922 55.4568 57.6962 55.293Z" fill="#0F0A26"/>
<path opacity="0.76" d="M57.7036 55.2036C60.8228 55.0441 63.3094 54.0931 63.2575 53.0794C63.2057 52.0657 60.6351 51.3733 57.5159 51.5328C54.3967 51.6922 51.9102 52.6433 51.962 53.6569C52.0138 54.6706 54.5844 55.3631 57.7036 55.2036Z" fill="#0F0A26"/>
<path opacity="0.78" d="M57.7151 55.1179C60.7517 54.9626 63.1724 54.0367 63.1219 53.0499C63.0714 52.063 60.5689 51.3888 57.5324 51.5441C54.4958 51.6993 52.0751 52.6252 52.1255 53.6121C52.176 54.599 54.6785 55.2731 57.7151 55.1179Z" fill="#0F0A26"/>
<path opacity="0.8" d="M57.7264 55.0282C60.6781 54.8773 63.0312 53.9767 62.9821 53.0166C62.933 52.0565 60.5004 51.4005 57.5486 51.5514C54.5969 51.7024 52.2439 52.603 52.293 53.5631C52.3421 54.5232 54.7747 55.1792 57.7264 55.0282Z" fill="#0F0A26"/>
<path opacity="0.82" d="M57.735 54.9428C60.6041 54.7961 62.8913 53.9206 62.8435 52.9873C62.7958 52.054 60.4313 51.4163 57.5622 51.563C54.6931 51.7097 52.4059 52.5852 52.4536 53.5185C52.5013 54.4518 54.8659 55.0895 57.735 54.9428Z" fill="#0F0A26"/>
<path opacity="0.84" d="M57.7463 54.8529C60.5305 54.7105 62.7501 53.8602 62.7037 52.9537C62.6574 52.0472 60.3627 51.4278 57.5784 51.5701C54.7942 51.7125 52.5747 52.5627 52.621 53.4692C52.6674 54.3757 54.962 54.9952 57.7463 54.8529Z" fill="#0F0A26"/>
<path opacity="0.86" d="M57.7544 54.7634C60.4561 54.6253 62.6098 53.802 62.565 52.9245C62.5201 52.047 60.2936 51.4477 57.592 51.5858C54.8903 51.724 52.7366 52.5473 52.7814 53.4247C52.8263 54.3022 55.0528 54.9016 57.7544 54.7634Z" fill="#0F0A26"/>
<path opacity="0.88" d="M57.7658 54.6738C60.3826 54.54 62.4686 53.7419 62.4251 52.8912C62.3817 52.0406 60.225 51.4594 57.6082 51.5932C54.9914 51.727 52.9054 52.5251 52.9489 53.3758C52.9924 54.2264 55.149 54.8076 57.7658 54.6738Z" fill="#0F0A26"/>
<path opacity="0.9" d="M57.7733 54.5922C60.3075 54.4626 62.3277 53.6897 62.2856 52.8658C62.2435 52.0419 60.155 51.4791 57.6208 51.6087C55.0866 51.7382 53.0664 52.5111 53.1085 53.335C53.1506 54.1589 55.2392 54.7218 57.7733 54.5922Z" fill="#0F0A26"/>
<path opacity="0.92" d="M57.7856 54.5026C60.235 54.3773 62.1875 53.6296 62.1468 52.8325C62.106 52.0354 60.0874 51.4908 57.638 51.616C55.1887 51.7413 53.2362 52.489 53.2769 53.286C53.3177 54.0831 55.3363 54.6278 57.7856 54.5026Z" fill="#0F0A26"/>
<path opacity="0.94" d="M57.7971 54.4168C60.1639 54.2958 62.0505 53.5733 62.0112 52.803C61.9718 52.0327 60.0212 51.5063 57.6545 51.6273C55.2878 51.7483 53.4011 52.4709 53.4405 53.2412C53.4798 54.0115 55.4304 54.5378 57.7971 54.4168Z" fill="#0F0A26"/>
<path opacity="0.96" d="M57.8041 54.3274C60.086 54.2107 61.9051 53.5152 61.8672 52.7739C61.8293 52.0327 59.9488 51.5263 57.6669 51.643C55.385 51.7597 53.5659 52.4552 53.6038 53.1964C53.6417 53.9377 55.5222 54.4441 57.8041 54.3274Z" fill="#0F0A26"/>
<path opacity="0.98" d="M57.8156 54.2375C60.0149 54.1251 61.7681 53.4547 61.7316 52.7402C61.6951 52.0258 59.8826 51.5377 57.6833 51.6502C55.4841 51.7626 53.7308 52.433 53.7673 53.1475C53.8038 53.8619 55.6163 54.35 57.8156 54.2375Z" fill="#0F0A26"/>
<path d="M57.8279 54.152C59.9423 54.0439 61.6279 53.3988 61.5928 52.7111C61.5576 52.0234 59.815 51.5536 57.7006 51.6617C55.5861 51.7698 53.9006 52.4149 53.9357 53.1026C53.9709 53.7903 55.7135 54.2601 57.8279 54.152Z" fill="#0F0A26"/>
</g>
<path d="M54.9649 35.322L45.4577 51.2402C44.927 52.1322 45.4577 53.2928 46.418 53.3365L66.6165 54.2209C67.6579 54.2672 68.3192 52.9761 67.7278 52.0513L57.0366 35.2488C56.5367 34.46 55.4524 34.4995 54.9649 35.322Z" fill="url(#paint12_linear_331_12766)"/>
<path d="M54.3272 34.9567L44.82 50.8749C44.2893 51.7669 44.82 52.9276 45.7804 52.9713L65.9788 53.8557C67.0202 53.902 67.6815 52.6109 67.0901 51.6861L56.3989 34.8835C55.899 34.0948 54.8147 34.1343 54.3272 34.9567Z" fill="url(#paint13_linear_331_12766)"/>
<path d="M45.8458 51.8527C45.7364 51.8466 45.6825 51.7787 45.6572 51.7225C45.632 51.6662 45.6142 51.5775 45.6731 51.4752L55.1803 35.557C55.2236 35.4874 55.2796 35.4459 55.3564 35.4405C55.405 35.4397 55.4941 35.4462 55.5566 35.5422L66.2478 52.3448C66.2645 52.3729 66.3228 52.4609 66.2644 52.5915C66.241 52.6405 66.1898 52.7264 66.0807 52.7365L45.8499 51.8526L45.8458 51.8527Z" fill="url(#paint14_linear_331_12766)"/>
<path d="M54.4083 47.9802C54.4214 47.5751 54.6916 47.2869 55.0399 47.2928C55.4084 47.2984 55.6363 47.594 55.6193 48.0032C55.606 48.3962 55.3563 48.6962 54.9878 48.6905C54.6273 48.6848 54.3911 48.3772 54.4083 47.9802ZM54.724 46.3753L54.7777 40.9653L55.7659 40.9802L55.4246 46.3831L54.7239 46.3713L54.724 46.3753Z" fill="white"/>
<path d="M49.4935 28.577C39.552 29.381 31.6526 39.1652 31.8526 50.4332C32.0526 61.7012 40.2763 70.187 50.2178 69.383C60.1593 68.579 68.0587 58.7948 67.8587 47.5268C67.6587 36.2588 59.4349 27.7729 49.4935 28.577ZM50.1282 64.3359C42.6448 64.9384 36.4544 58.5542 36.3038 50.0708C36.1532 41.5874 42.0995 34.2225 49.583 33.62C57.0664 33.0176 63.2569 39.4018 63.4074 47.8852C63.558 56.3685 57.6117 63.7334 50.1282 64.3359Z" fill="url(#paint15_linear_331_12766)"/>
<path d="M47.4865 27.7138C37.5449 28.5137 29.6496 38.3019 29.8497 49.574C30.0498 60.846 38.2694 69.3279 48.2109 68.5239C58.1522 67.7118 66.0478 57.9357 65.8477 46.6637C65.6476 35.3916 57.428 26.9098 47.4865 27.7138ZM34.2969 49.2116C34.1464 40.7323 40.0886 33.3635 47.576 32.7568C49.8278 32.5711 51.9493 33.0234 53.8367 33.9737C58.2362 36.175 61.295 41.0804 61.4005 47.026C61.5511 55.5053 55.6087 62.8661 48.1212 63.4727C46.3747 63.613 44.7023 63.3714 43.158 62.8158C38.0809 60.9869 34.4123 55.7158 34.2969 49.2116Z" fill="url(#paint16_linear_331_12766)"/>
<path opacity="0.51" d="M61.4002 47.026C61.5507 55.5054 55.6083 62.8661 48.1209 63.4727C46.3744 63.613 44.702 63.3714 43.1577 62.8158C38.7501 60.6147 35.679 55.7014 35.5734 49.7558C35.4228 41.2684 41.3651 33.9076 48.8445 33.3012C50.599 33.1566 52.2836 33.4021 53.8323 33.9738C58.2318 36.1751 61.2906 41.0804 61.3962 47.0261L61.4002 47.026Z" fill="url(#paint17_linear_331_12766)"/>
<g opacity="0.53">
<path d="M47.3086 32.7574C39.8211 33.36 33.8789 40.7329 34.0295 49.2122C34.1448 55.7124 37.8094 60.9875 42.8906 62.8164C44.109 63.2563 45.4087 63.4883 46.7613 63.5048C45.5054 63.4623 44.2987 63.2246 43.1619 62.8157C38.0847 60.9867 34.4162 55.7157 34.3007 49.2115C34.1502 40.7321 40.0924 33.3633 47.5799 32.7567C47.8346 32.736 48.0854 32.7275 48.3322 32.719C47.9962 32.7169 47.6563 32.727 47.3085 32.7534L47.3086 32.7574Z" fill="white"/>
<path d="M48.3877 27.6654C57.7956 27.5915 65.3875 35.8375 65.5797 46.6643C65.7719 57.4912 57.8843 67.7124 47.9429 68.5246C47.6398 68.5502 47.3404 68.5636 47.0409 68.5729C47.4295 68.5661 47.818 68.5592 48.2102 68.5279C58.1515 67.7158 66.0471 57.9397 65.847 46.6677C65.6469 35.3956 57.9183 27.4314 48.3838 27.6695L48.3877 27.6654Z" fill="white"/>
</g>
<path style="mix-blend-mode:color-dodge" d="M86.5753 28.348C87.8106 27.4637 89.5362 27.7367 90.4284 28.9598C91.3206 30.1828 91.0433 31.8963 89.8079 32.7806C88.5726 33.6649 86.847 33.3919 85.9548 32.1688C85.0627 30.9457 85.3399 29.2323 86.5753 28.348Z" fill="url(#paint18_radial_331_12766)"/>
<path style="mix-blend-mode:color-dodge" d="M92.5968 34.7957C93.8321 33.9114 95.5577 34.1844 96.4499 35.4075C97.342 36.6306 97.0648 38.344 95.8294 39.2283C94.5941 40.1126 92.8685 39.8396 91.9763 38.6166C91.0842 37.3935 91.3614 35.68 92.5968 34.7957Z" fill="url(#paint19_radial_331_12766)"/>
<path style="mix-blend-mode:color-dodge" d="M38.706 18.4362C39.96 18.414 40.9587 17.3884 40.9366 16.1456C40.9146 14.9027 39.8801 13.9133 38.6261 13.9355C37.3721 13.9578 36.3734 14.9834 36.3954 16.2262C36.4175 17.469 37.452 18.4585 38.706 18.4362Z" fill="url(#paint20_radial_331_12766)"/>
<path style="mix-blend-mode:color-dodge" d="M45.0139 10.9273C46.7776 10.896 48.1822 9.45176 48.1511 7.7015C48.12 5.95124 46.6651 4.55776 44.9014 4.58907C43.1378 4.62037 41.7332 6.06461 41.7643 7.81487C41.7953 9.56513 43.2503 10.9586 45.0139 10.9273Z" fill="url(#paint21_radial_331_12766)"/>
<path style="mix-blend-mode:color-dodge" d="M47.4081 16.7595C48.6622 16.7372 49.6608 15.7117 49.6388 14.4688C49.6167 13.226 48.5823 12.2365 47.3282 12.2588C46.0742 12.281 45.0755 13.3066 45.0976 14.5494C45.1196 15.7923 46.1541 16.7818 47.4081 16.7595Z" fill="url(#paint22_radial_331_12766)"/>
<path style="mix-blend-mode:color-dodge" d="M53.7171 9.25032C55.4807 9.21901 56.8853 7.77476 56.8542 6.0245C56.8232 4.27424 55.3682 2.88076 53.6046 2.91206C51.8409 2.94337 50.4363 4.38761 50.4674 6.13787C50.4985 7.88813 51.9534 9.28163 53.7171 9.25032Z" fill="url(#paint23_radial_331_12766)"/>
<path style="mix-blend-mode:color-dodge" d="M41.906 86.5229C42.8883 85.0682 44.8734 84.6807 46.3402 85.6588C47.807 86.6368 48.1941 88.6017 47.2118 90.0564C46.2295 91.5111 44.2444 91.8986 42.7776 90.9205C41.3108 89.9425 40.9237 87.9776 41.906 86.5229Z" fill="url(#paint24_radial_331_12766)"/>
<path style="mix-blend-mode:color-dodge" d="M42.0356 79.905C42.7339 78.8724 44.142 78.5964 45.1827 79.2905C46.2234 79.9846 46.4992 81.3805 45.8009 82.4132C45.1026 83.4458 43.6945 83.7218 42.6538 83.0277C41.6131 82.3337 41.3373 80.9377 42.0356 79.905Z" fill="url(#paint25_radial_331_12766)"/>
<path style="mix-blend-mode:color-dodge" d="M33.0584 86.0039C34.0407 84.5492 36.0257 84.1617 37.4925 85.1397C38.9593 86.1178 39.3464 88.0826 38.3641 89.5373C37.3818 90.9921 35.3968 91.3795 33.93 90.4015C32.4632 89.4234 32.076 87.4586 33.0584 86.0039Z" fill="url(#paint26_radial_331_12766)"/>
</g>
<defs>
<linearGradient id="paint0_linear_331_12766" x1="23.8878" y1="62.6335" x2="23.8971" y2="62.6467" gradientUnits="userSpaceOnUse">
<stop stop-color="#505FAA"/>
<stop offset="0.7" stop-color="#8F92C7"/>
<stop offset="1" stop-color="#BCBEDD"/>
</linearGradient>
<linearGradient id="paint1_linear_331_12766" x1="28.4743" y1="69.133" x2="28.4836" y2="69.1462" gradientUnits="userSpaceOnUse">
<stop stop-color="#505FAA"/>
<stop offset="0.7" stop-color="#8F92C7"/>
<stop offset="1" stop-color="#BCBEDD"/>
</linearGradient>
<linearGradient id="paint2_linear_331_12766" x1="-136.52" y1="-143.474" x2="18.61" y2="76.3801" gradientUnits="userSpaceOnUse">
<stop stop-color="#505FAA"/>
<stop offset="0.7" stop-color="#8F92C7"/>
<stop offset="1" stop-color="#BCBEDD"/>
</linearGradient>
<linearGradient id="paint3_linear_331_12766" x1="33.514" y1="57.9073" x2="33.5187" y2="57.914" gradientUnits="userSpaceOnUse">
<stop stop-color="#505FAA"/>
<stop offset="0.7" stop-color="#8F92C7"/>
<stop offset="1" stop-color="#BCBEDD"/>
</linearGradient>
<linearGradient id="paint4_linear_331_12766" x1="35.9459" y1="61.3539" x2="35.9506" y2="61.3605" gradientUnits="userSpaceOnUse">
<stop stop-color="#505FAA"/>
<stop offset="0.7" stop-color="#8F92C7"/>
<stop offset="1" stop-color="#BCBEDD"/>
</linearGradient>
<linearGradient id="paint5_linear_331_12766" x1="28.9323" y1="61.1396" x2="31.3711" y2="64.596" gradientUnits="userSpaceOnUse">
<stop stop-color="#EDEFF7"/>
<stop offset="1" stop-color="#A7ABD4"/>
</linearGradient>
<linearGradient id="paint6_linear_331_12766" x1="74.7848" y1="66.4528" x2="62.6572" y2="32.5942" gradientUnits="userSpaceOnUse">
<stop stop-color="#EDEFF7"/>
<stop offset="1" stop-color="#A7ABD4"/>
</linearGradient>
<linearGradient id="paint7_linear_331_12766" x1="51.6481" y1="27.9799" x2="81.1947" y2="65.1124" gradientUnits="userSpaceOnUse">
<stop stop-color="white"/>
<stop offset="0.56" stop-color="#EDEFF7"/>
<stop offset="1" stop-color="#A7ABD4"/>
</linearGradient>
<linearGradient id="paint8_linear_331_12766" x1="37.8932" y1="48.8562" x2="64.8692" y2="48.3773" gradientUnits="userSpaceOnUse">
<stop stop-color="#611F87"/>
<stop offset="0.38" stop-color="#562A8F"/>
<stop offset="1" stop-color="#3C46A6"/>
</linearGradient>
<linearGradient id="paint9_linear_331_12766" x1="82.3852" y1="33.904" x2="81.8283" y2="31.9503" gradientUnits="userSpaceOnUse">
<stop stop-color="#F58B21"/>
<stop offset="1" stop-color="#F5B419"/>
</linearGradient>
<linearGradient id="paint10_linear_331_12766" x1="74.2944" y1="71.8747" x2="61.382" y2="26.4185" gradientUnits="userSpaceOnUse">
<stop stop-color="#6201F1"/>
<stop offset="0.12" stop-color="#4500B6"/>
<stop offset="0.25" stop-color="#2A007F"/>
<stop offset="0.32" stop-color="#20006A"/>
<stop offset="0.68" stop-color="#20006A"/>
<stop offset="0.73" stop-color="#22006F"/>
<stop offset="0.79" stop-color="#2A007E"/>
<stop offset="0.85" stop-color="#360097"/>
<stop offset="0.92" stop-color="#4700BA"/>
<stop offset="0.99" stop-color="#5D00E7"/>
<stop offset="1" stop-color="#6201F1"/>
</linearGradient>
<linearGradient id="paint11_linear_331_12766" x1="76.306" y1="31.6799" x2="74.8981" y2="26.7169" gradientUnits="userSpaceOnUse">
<stop stop-color="#F58B21"/>
<stop offset="1" stop-color="#F5B419"/>
</linearGradient>
<linearGradient id="paint12_linear_331_12766" x1="61.7006" y1="50.8456" x2="68.47" y2="43.7278" gradientUnits="userSpaceOnUse">
<stop stop-color="#EDEFF7"/>
<stop offset="1" stop-color="#CFD5EB"/>
</linearGradient>
<linearGradient id="paint13_linear_331_12766" x1="73.1518" y1="43.9168" x2="50.5574" y2="45.7057" gradientUnits="userSpaceOnUse">
<stop stop-color="#EDEFF7"/>
<stop offset="1" stop-color="#CFD5EB"/>
</linearGradient>
<linearGradient id="paint14_linear_331_12766" x1="51.5827" y1="45.6246" x2="72.1312" y2="43.9976" gradientUnits="userSpaceOnUse">
<stop stop-color="#BF3A3A"/>
<stop offset="1" stop-color="#D87373"/>
</linearGradient>
<linearGradient id="paint15_linear_331_12766" x1="61.3796" y1="28.0704" x2="45.3174" y2="57.2106" gradientUnits="userSpaceOnUse">
<stop stop-color="#505FAA"/>
<stop offset="0.7" stop-color="#8F92C7"/>
<stop offset="1" stop-color="#BCBEDD"/>
</linearGradient>
<linearGradient id="paint16_linear_331_12766" x1="29.8296" y1="48.4407" x2="65.8719" y2="47.8009" gradientUnits="userSpaceOnUse">
<stop stop-color="#505FAA"/>
<stop offset="0.7" stop-color="#8F92C7"/>
<stop offset="1" stop-color="#BCBEDD"/>
</linearGradient>
<linearGradient id="paint17_linear_331_12766" x1="35.5573" y1="48.6184" x2="61.4203" y2="48.1593" gradientUnits="userSpaceOnUse">
<stop offset="0.18" stop-color="#00B1EA"/>
<stop offset="1" stop-color="#FBFBFD"/>
</linearGradient>
<radialGradient id="paint18_radial_331_12766" cx="0" cy="0" r="1" gradientUnits="userSpaceOnUse" gradientTransform="translate(89.8179 31.9473) rotate(-126.097) scale(2.73649 2.73649)">
<stop offset="0.09" stop-color="#FD62CD"/>
<stop offset="0.11" stop-color="#C449AB"/>
<stop offset="0.13" stop-color="#93348E"/>
<stop offset="0.15" stop-color="#6C2377"/>
<stop offset="0.17" stop-color="#4C1664"/>
<stop offset="0.19" stop-color="#360C57"/>
<stop offset="0.21" stop-color="#29064F"/>
<stop offset="0.23" stop-color="#25054D"/>
<stop offset="0.27" stop-color="#1C033C"/>
<stop offset="0.34" stop-color="#120226"/>
<stop offset="0.42" stop-color="#0A0114"/>
<stop offset="0.51" stop-color="#040008"/>
<stop offset="0.65" stop-color="#000001"/>
<stop offset="1"/>
</radialGradient>
<radialGradient id="paint19_radial_331_12766" cx="0" cy="0" r="1" gradientUnits="userSpaceOnUse" gradientTransform="translate(95.8192 38.3825) rotate(-126.097) scale(2.73649 2.73649)">
<stop offset="0.09" stop-color="#FD62CD"/>
<stop offset="0.11" stop-color="#C449AB"/>
<stop offset="0.13" stop-color="#93348E"/>
<stop offset="0.15" stop-color="#6C2377"/>
<stop offset="0.17" stop-color="#4C1664"/>
<stop offset="0.19" stop-color="#360C57"/>
<stop offset="0.21" stop-color="#29064F"/>
<stop offset="0.23" stop-color="#25054D"/>
<stop offset="0.27" stop-color="#1C033C"/>
<stop offset="0.34" stop-color="#120226"/>
<stop offset="0.42" stop-color="#0A0114"/>
<stop offset="0.51" stop-color="#040008"/>
<stop offset="0.65" stop-color="#000001"/>
<stop offset="1"/>
</radialGradient>
<radialGradient id="paint20_radial_331_12766" cx="0" cy="0" r="1" gradientUnits="userSpaceOnUse" gradientTransform="translate(39.5625 17.8978) rotate(19.313) scale(2.26967 2.26966)">
<stop offset="0.07" stop-color="#FEE2A6"/>
<stop offset="0.14" stop-color="#797782"/>
<stop offset="0.19" stop-color="#1B2B69"/>
<stop offset="0.26" stop-color="#17255B"/>
<stop offset="0.49" stop-color="#0D1533"/>
<stop offset="0.69" stop-color="#060917"/>
<stop offset="0.87" stop-color="#010206"/>
<stop offset="1"/>
</radialGradient>
<radialGradient id="paint21_radial_331_12766" cx="0" cy="0" r="1" gradientUnits="userSpaceOnUse" gradientTransform="translate(45.8327 9.38512) rotate(19.3129) scale(3.19769 3.19768)">
<stop offset="0.07" stop-color="#FEE2A6"/>
<stop offset="0.14" stop-color="#797782"/>
<stop offset="0.19" stop-color="#1B2B69"/>
<stop offset="0.26" stop-color="#17255B"/>
<stop offset="0.49" stop-color="#0D1533"/>
<stop offset="0.69" stop-color="#060917"/>
<stop offset="0.87" stop-color="#010206"/>
<stop offset="1"/>
</radialGradient>
<radialGradient id="paint22_radial_331_12766" cx="0" cy="0" r="1" gradientUnits="userSpaceOnUse" gradientTransform="translate(48.2601 16.1812) rotate(19.313) scale(2.26967 2.26966)">
<stop offset="0.07" stop-color="#FEE2A6"/>
<stop offset="0.14" stop-color="#797782"/>
<stop offset="0.19" stop-color="#1B2B69"/>
<stop offset="0.26" stop-color="#17255B"/>
<stop offset="0.49" stop-color="#0D1533"/>
<stop offset="0.69" stop-color="#060917"/>
<stop offset="0.87" stop-color="#010206"/>
<stop offset="1"/>
</radialGradient>
<radialGradient id="paint23_radial_331_12766" cx="0" cy="0" r="1" gradientUnits="userSpaceOnUse" gradientTransform="translate(54.5314 7.66837) rotate(19.313) scale(3.19769 3.19768)">
<stop offset="0.07" stop-color="#FEE2A6"/>
<stop offset="0.14" stop-color="#797782"/>
<stop offset="0.19" stop-color="#1B2B69"/>
<stop offset="0.26" stop-color="#17255B"/>
<stop offset="0.49" stop-color="#0D1533"/>
<stop offset="0.69" stop-color="#060917"/>
<stop offset="0.87" stop-color="#010206"/>
<stop offset="1"/>
</radialGradient>
<radialGradient id="paint24_radial_331_12766" cx="0" cy="0" r="1" gradientUnits="userSpaceOnUse" gradientTransform="translate(43.3091 88.2301) rotate(-146.347) scale(3.19768)">
<stop offset="0.07" stop-color="#FEE2A6"/>
<stop offset="0.14" stop-color="#797782"/>
<stop offset="0.19" stop-color="#1B2B69"/>
<stop offset="0.26" stop-color="#17255B"/>
<stop offset="0.49" stop-color="#0D1533"/>
<stop offset="0.69" stop-color="#060917"/>
<stop offset="0.87" stop-color="#010206"/>
<stop offset="1"/>
</radialGradient>
<radialGradient id="paint25_radial_331_12766" cx="0" cy="0" r="1" gradientUnits="userSpaceOnUse" gradientTransform="translate(42.6427 81.0399) rotate(-146.347) scale(0.265148)">
<stop offset="0.07" stop-color="#FEE2A6"/>
<stop offset="0.14" stop-color="#797782"/>
<stop offset="0.19" stop-color="#1B2B69"/>
<stop offset="0.26" stop-color="#17255B"/>
<stop offset="0.49" stop-color="#0D1533"/>
<stop offset="0.69" stop-color="#060917"/>
<stop offset="0.87" stop-color="#010206"/>
<stop offset="1"/>
</radialGradient>
<radialGradient id="paint26_radial_331_12766" cx="0" cy="0" r="1" gradientUnits="userSpaceOnUse" gradientTransform="translate(34.456 87.7387) rotate(-146.347) scale(3.19768)">
<stop offset="0.07" stop-color="#FEE2A6"/>
<stop offset="0.14" stop-color="#797782"/>
<stop offset="0.19" stop-color="#1B2B69"/>
<stop offset="0.26" stop-color="#17255B"/>
<stop offset="0.49" stop-color="#0D1533"/>
<stop offset="0.69" stop-color="#060917"/>
<stop offset="0.87" stop-color="#010206"/>
<stop offset="1"/>
</radialGradient>
<clipPath id="clip0_331_12766">
<rect width="96" height="96" fill="white"/>
</clipPath>
</defs>
</svg>
