<svg width="96" height="96" viewBox="0 0 96 96" fill="none" xmlns="http://www.w3.org/2000/svg">
<g clip-path="url(#clip0_331_10865)">
<path d="M89.714 47.2607L68.8813 35.2334C66.3284 33.759 62.2101 33.759 59.6754 35.2334L8.54918 64.9444C6.01449 66.4188 6.02814 68.8033 8.58104 70.2777L29.4138 82.305C31.9667 83.7794 36.085 83.7794 38.6197 82.305L89.7459 52.594C92.2806 51.1196 92.2669 48.7351 89.714 47.2607Z" fill="url(#paint0_linear_331_10865)"/>
<path d="M81.7361 44.9487C81.9454 44.8259 82.2867 44.8259 82.496 44.9487C82.7054 45.0716 82.7099 45.2673 82.496 45.3901C82.2867 45.513 81.9454 45.513 81.7361 45.3901C81.5268 45.2673 81.5268 45.0716 81.7361 44.9487Z" fill="#27F5FF"/>
<path d="M73.868 40.4026C74.0136 40.3207 74.2457 40.3207 74.3913 40.4026L80.7713 44.0841C80.9169 44.166 80.9169 44.3025 80.7713 44.3844C80.6257 44.4663 80.3936 44.4663 80.248 44.3844L73.868 40.703C73.7224 40.6211 73.7224 40.4845 73.868 40.4026Z" fill="#27F5FF"/>
<path d="M89.7408 52.5939L38.6146 82.3049C36.0799 83.7793 31.957 83.7793 29.4087 82.3049L8.57594 70.2776C7.29267 69.5359 6.65104 68.562 6.65559 67.5928L6.64648 70.1821C6.64648 71.1513 7.28359 72.1252 8.56686 72.8669L29.3996 84.8942C31.9525 86.3686 36.0708 86.3686 38.6055 84.8942L89.7317 55.1832C90.9922 54.4506 91.6202 53.4949 91.6247 52.5347L91.6338 49.9454C91.6338 50.9056 91.0013 51.8613 89.7408 52.5939Z" fill="url(#paint1_linear_331_10865)"/>
<path d="M88.2799 48.0933C90.0364 49.1081 90.0455 50.7509 88.3026 51.7611L37.1764 81.4722C35.4335 82.4869 32.5985 82.4869 30.842 81.4722L10.0092 69.4449C8.25269 68.4301 8.2436 66.7873 9.98648 65.7771L61.1127 36.066C62.8556 35.0512 65.6951 35.0512 67.4471 36.066L69.6861 37.3584C70.1002 37.5996 70.1001 37.9864 69.6906 38.223C68.8897 38.6872 68.8942 39.4426 69.6997 39.9068L81.6314 46.7964C82.4369 47.2606 83.7383 47.2606 84.5393 46.7964C84.9488 46.5552 85.6223 46.5552 86.0364 46.7964L88.2753 48.0888L88.2799 48.0933Z" fill="url(#paint2_linear_331_10865)"/>
<path d="M34.0139 81.6269C32.9217 81.6269 31.9024 81.3857 31.147 80.9489L10.3143 68.9216C9.66807 68.5484 9.29492 68.0706 9.29492 67.6064C9.29492 67.1468 9.65897 66.6736 10.2915 66.305L61.4177 36.5939C62.1686 36.1571 63.1834 35.9159 64.2755 35.9159C65.3677 35.9159 66.387 36.1571 67.1424 36.5939L69.2266 37.7998C68.7488 38.1275 68.4803 38.5826 68.4803 39.0695C68.4803 39.6064 68.8125 40.107 69.3904 40.4438L81.3221 47.3334C81.8045 47.611 82.4279 47.7657 83.0832 47.7657C83.7385 47.7657 84.3619 47.611 84.8443 47.3334C84.949 47.2743 85.1128 47.2378 85.2857 47.2378C85.4586 47.2378 85.6224 47.2743 85.7317 47.3334L87.9706 48.6258C88.6168 48.9989 88.9899 49.4768 88.9899 49.9409C88.9899 50.4005 88.6259 50.8738 87.9888 51.2424L36.8626 80.9534C36.1208 81.3857 35.0787 81.6315 34.0048 81.6315L34.0139 81.6269Z" fill="url(#paint3_linear_331_10865)"/>
<path d="M67.9024 57.9864C68.6852 58.4369 68.6897 59.1741 67.9116 59.6246L50.4235 69.7861C49.6454 70.2367 48.3803 70.2367 47.593 69.7861L29.9912 59.6246C29.2085 59.1741 29.204 58.4369 29.9822 57.9864L47.4702 47.8248C48.2483 47.3743 49.5134 47.3743 50.2961 47.8248L67.8979 57.9864H67.9024Z" fill="#6EE8FD"/>
<path style="mix-blend-mode:color-dodge" d="M83.3518 81.9544C84.7165 81.9544 85.8228 80.8481 85.8228 79.4834C85.8228 78.1187 84.7165 77.0125 83.3518 77.0125C81.9872 77.0125 80.8809 78.1187 80.8809 79.4834C80.8809 80.8481 81.9872 81.9544 83.3518 81.9544Z" fill="url(#paint4_radial_331_10865)"/>
<path style="mix-blend-mode:color-dodge" d="M95.2796 69.5587C96.6443 69.5587 97.7506 68.4524 97.7506 67.0877C97.7506 65.723 96.6443 64.6167 95.2796 64.6167C93.9149 64.6167 92.8086 65.723 92.8086 67.0877C92.8086 68.4524 93.9149 69.5587 95.2796 69.5587Z" fill="url(#paint5_radial_331_10865)"/>
<path style="mix-blend-mode:color-dodge" d="M98.656 59.5608C100.579 59.5608 102.137 58.0022 102.137 56.0796C102.137 54.157 100.579 52.5984 98.656 52.5984C96.7334 52.5984 95.1748 54.157 95.1748 56.0796C95.1748 58.0022 96.7334 59.5608 98.656 59.5608Z" fill="url(#paint6_radial_331_10865)"/>
<path style="mix-blend-mode:color-dodge" d="M93.2093 77.0582C94.574 77.0582 95.6803 75.9519 95.6803 74.5872C95.6803 73.2225 94.574 72.1162 93.2093 72.1162C91.8446 72.1162 90.7383 73.2225 90.7383 74.5872C90.7383 75.9519 91.8446 77.0582 93.2093 77.0582Z" fill="url(#paint7_radial_331_10865)"/>
<path style="mix-blend-mode:color-dodge" d="M2.75614 51.215C4.12083 51.215 5.22712 50.1087 5.22712 48.7441C5.22712 47.3794 4.12083 46.2731 2.75614 46.2731C1.39145 46.2731 0.285156 47.3794 0.285156 48.7441C0.285156 50.1087 1.39145 51.215 2.75614 51.215Z" fill="url(#paint8_radial_331_10865)"/>
<path style="mix-blend-mode:color-dodge" d="M14.6878 38.8145C16.0525 38.8145 17.1588 37.7082 17.1588 36.3435C17.1588 34.9789 16.0525 33.8726 14.6878 33.8726C13.3231 33.8726 12.2168 34.9789 12.2168 36.3435C12.2168 37.7082 13.3231 38.8145 14.6878 38.8145Z" fill="url(#paint9_radial_331_10865)"/>
<path style="mix-blend-mode:color-dodge" d="M11.0794 46.3184C12.4441 46.3184 13.5504 45.2121 13.5504 43.8475C13.5504 42.4828 12.4441 41.3765 11.0794 41.3765C9.71469 41.3765 8.6084 42.4828 8.6084 43.8475C8.6084 45.2121 9.71469 46.3184 11.0794 46.3184Z" fill="url(#paint10_radial_331_10865)"/>
<path style="mix-blend-mode:color-dodge" d="M60.3216 7.34236C61.6863 7.34236 62.7926 6.23607 62.7926 4.87138C62.7926 3.50669 61.6863 2.40039 60.3216 2.40039C58.9569 2.40039 57.8506 3.50669 57.8506 4.87138C57.8506 6.23607 58.9569 7.34236 60.3216 7.34236Z" fill="url(#paint11_radial_331_10865)"/>
<path style="mix-blend-mode:color-dodge" d="M62.156 19.3608C64.0786 19.3608 65.6372 17.8022 65.6372 15.8795C65.6372 13.9569 64.0786 12.3983 62.156 12.3983C60.2334 12.3983 58.6748 13.9569 58.6748 15.8795C58.6748 17.8022 60.2334 19.3608 62.156 19.3608Z" fill="url(#paint12_radial_331_10865)"/>
<path style="mix-blend-mode:color-dodge" d="M68.6399 12.2389C70.0046 12.2389 71.1109 11.1326 71.1109 9.76787C71.1109 8.40319 70.0046 7.29688 68.6399 7.29688C67.2752 7.29688 66.1689 8.40319 66.1689 9.76787C66.1689 11.1326 67.2752 12.2389 68.6399 12.2389Z" fill="url(#paint13_radial_331_10865)"/>
<path style="mix-blend-mode:color-dodge" d="M70.4783 24.2571C72.4009 24.2571 73.9595 22.6985 73.9595 20.7759C73.9595 18.8533 72.4009 17.2947 70.4783 17.2947C68.5557 17.2947 66.9971 18.8533 66.9971 20.7759C66.9971 22.6985 68.5557 24.2571 70.4783 24.2571Z" fill="url(#paint14_radial_331_10865)"/>
<mask id="mask0_331_10865" style="mask-type:luminance" maskUnits="userSpaceOnUse" x="34" y="20" width="30" height="30">
<path d="M44.2129 23.3124C43.2044 24.6231 42.3642 26.1731 41.5913 27.3442C39.6791 30.242 37.8758 33.22 36.1876 36.269C35.532 37.4531 34.8838 38.6762 34.6462 40.0249C34.2223 42.4307 35.285 45.0542 37.2252 46.3923C38.5962 47.3381 40.2632 47.6392 41.8101 48.2075C42.8908 48.6046 43.9253 49.138 45.0209 49.4865C47.2301 50.1889 49.272 49.9275 51.4666 49.38C53.6869 48.8264 56.0443 48.6411 58.154 47.6724C60.1406 46.7601 61.9563 45.2063 62.7621 43.0828C63.4941 41.1534 63.3207 38.945 62.6775 36.9808C62.0343 35.0166 60.9536 33.2498 59.8643 31.5187C57.8042 28.244 55.6276 24.9616 52.68 22.5596C51.0803 21.2561 48.9914 20.2038 47.0855 20.9137C45.978 21.3263 45.0391 22.2391 44.2131 23.3124H44.2129Z" fill="white"/>
</mask>
<g mask="url(#mask0_331_10865)">
<path d="M44.2129 23.3124C43.2044 24.6231 42.3642 26.1731 41.5913 27.3442C39.6791 30.242 37.8758 33.22 36.1876 36.269C35.532 37.4531 34.8838 38.6762 34.6462 40.0249C34.2223 42.4307 35.285 45.0542 37.2252 46.3923C38.5962 47.3381 40.2632 47.6392 41.8101 48.2075C42.8908 48.6046 43.9253 49.138 45.0209 49.4865C47.2301 50.1889 49.272 49.9275 51.4666 49.38C53.6869 48.8264 56.0443 48.6411 58.154 47.6724C60.1406 46.7601 61.9563 45.2063 62.7621 43.0828C63.4941 41.1534 63.3207 38.945 62.6775 36.9808C62.0343 35.0166 60.9536 33.2498 59.8643 31.5187C57.8042 28.244 55.6276 24.9616 52.68 22.5596C51.0803 21.2561 48.9914 20.2038 47.0855 20.9137C45.978 21.3263 45.0391 22.2391 44.2131 23.3124H44.2129Z" fill="url(#paint15_radial_331_10865)"/>
<path d="M53.2309 44.6324C58.4012 44.6324 62.5926 40.441 62.5926 35.2707C62.5926 30.1003 58.4012 25.9089 53.2309 25.9089C48.0605 25.9089 43.8691 30.1003 43.8691 35.2707C43.8691 40.441 48.0605 44.6324 53.2309 44.6324Z" fill="url(#paint16_radial_331_10865)"/>
<path d="M45.7542 40.9305C52.7119 40.9305 58.3522 35.2902 58.3522 28.3325C58.3522 21.3748 52.7119 15.7345 45.7542 15.7345C38.7966 15.7345 33.1562 21.3748 33.1562 28.3325C33.1562 35.2902 38.7966 40.9305 45.7542 40.9305Z" fill="url(#paint17_radial_331_10865)"/>
<path d="M41.8127 62.2023C51.0663 62.2023 58.5678 54.7007 58.5678 45.4471C58.5678 36.1935 51.0663 28.692 41.8127 28.692C32.5591 28.692 25.0576 36.1935 25.0576 45.4471C25.0576 54.7007 32.5591 62.2023 41.8127 62.2023Z" fill="url(#paint18_radial_331_10865)"/>
<path d="M36.8327 44.7677C36.8385 44.5061 36.867 44.2415 36.9613 43.9975C37.1391 43.5374 37.542 43.1884 37.995 42.9932C40.5208 41.9042 42.6316 44.7738 44.6097 45.7441C45.9622 46.4075 47.5713 46.4695 49.0148 46.0386C51.2757 45.3639 52.4856 43.4815 54.4061 42.2933C54.971 41.9437 55.6527 41.545 56.2871 41.3525C57.162 41.0868 58.1022 41.1313 58.9827 40.8105C59.9268 40.4662 60.8128 39.8606 61.2929 38.9779C62.2795 37.1636 61.3711 34.6397 62.6573 33.0239C62.9767 32.6226 63.4783 32.3024 63.981 32.4047C64.2866 32.467 64.5407 32.6735 64.7692 32.8856C67.642 35.5547 68.3074 40.0116 67.2557 43.7893C66.3562 47.0212 64.2473 49.9886 61.26 51.5145C58.8353 52.7529 56.0266 52.9838 53.3044 52.9721C52.2986 52.968 51.289 52.9332 50.2974 52.7659C49.1901 52.5789 48.1183 52.2288 47.0509 51.8798C45.3071 51.3099 43.5635 50.7397 41.8197 50.1698C39.2969 49.3451 36.7677 47.7791 36.8333 44.7677H36.8327Z" fill="url(#paint19_radial_331_10865)"/>
</g>
<path d="M49.3872 17.0796C49.5045 16.8208 50.0396 17.0046 50.2351 17.0304C50.8838 17.1158 51.5132 17.1858 52.1675 17.1783C52.8016 17.1711 53.4592 17.152 54.0836 17.0243C54.3416 16.9717 54.5725 16.8653 54.8324 16.9867C54.8615 17.0002 55.0882 17.1097 55.1637 17.3271C55.234 17.5284 55.1753 17.7228 55.0763 17.9001C54.8208 18.3585 54.4124 18.7048 53.9323 18.8483C53.1608 19.0792 52.2563 18.9158 51.485 18.7529C51.003 18.6511 50.5232 18.4725 50.1225 18.1608C49.9063 17.9927 49.2257 17.4349 49.3867 17.0799L49.3872 17.0796Z" fill="url(#paint20_radial_331_10865)"/>
<mask id="mask1_331_10865" style="mask-type:luminance" maskUnits="userSpaceOnUse" x="41" y="16" width="15" height="7">
<path d="M44.3233 22.2903C43.2105 21.7217 42.7525 20.6985 42.1516 19.3554C41.8441 18.6685 41.7122 18.1893 41.8978 17.8068C41.931 17.7383 42.0383 17.517 42.2598 17.4067C42.4995 17.2872 42.8507 17.3085 43.0324 17.3196C43.1864 17.329 43.2929 17.3489 43.3866 17.2729C43.489 17.1899 43.4798 17.0707 43.5241 16.9772C43.6535 16.7043 44.1994 16.7347 44.7665 16.7743C45.5842 16.831 45.993 16.8594 46.3151 16.8998C46.8198 16.9634 47.0557 17.0113 47.518 17.0234C47.7467 17.0295 47.9544 17.0348 48.2384 17.0079C48.7171 16.9626 48.7845 16.8846 49.1819 16.8766C49.5439 16.8694 49.8149 16.9275 49.9189 16.9521C50.0065 16.9728 50.1667 17.0154 50.4786 17.1473C50.9169 17.3323 51.2305 17.514 51.3068 17.5571C52.0214 17.96 52.8703 18.009 53.0788 18.0212C54.2159 18.087 55.0635 17.6655 55.0956 17.4025C55.0986 17.3782 55.1019 17.2939 55.1315 17.2867C55.1821 17.2742 55.2701 17.4968 55.2972 17.5652C55.4833 18.0353 55.0273 19.0582 54.8685 19.4251C54.4407 20.4132 53.9463 21.774 53.5611 22.1589C53.2948 22.4249 52.992 22.5784 52.992 22.5784C52.9483 22.6005 52.9165 22.6144 52.8985 22.6229C52.1892 22.9556 51.5197 22.819 51.1121 22.7465C49.9407 22.5386 48.8435 22.504 48.0581 22.499C47.6051 22.4963 46.9738 22.5217 46.2142 22.6498C45.8763 22.631 45.5386 22.6124 45.2007 22.5936C44.9858 22.5513 44.6717 22.4681 44.3233 22.29V22.2903Z" fill="white"/>
</mask>
<g mask="url(#mask1_331_10865)">
<path d="M44.3233 22.2903C43.2105 21.7217 42.7525 20.6985 42.1516 19.3554C41.8441 18.6685 41.7122 18.1893 41.8978 17.8068C41.931 17.7383 42.0383 17.517 42.2598 17.4067C42.4995 17.2872 42.8507 17.3085 43.0324 17.3196C43.1864 17.329 43.2929 17.3489 43.3866 17.2729C43.489 17.1899 43.4798 17.0707 43.5241 16.9772C43.6535 16.7043 44.1994 16.7347 44.7665 16.7743C45.5842 16.831 45.993 16.8594 46.3151 16.8998C46.8198 16.9634 47.0557 17.0113 47.518 17.0234C47.7467 17.0295 47.9544 17.0348 48.2384 17.0079C48.7171 16.9626 48.7845 16.8846 49.1819 16.8766C49.5439 16.8694 49.8149 16.9275 49.9189 16.9521C50.0065 16.9728 50.1667 17.0154 50.4786 17.1473C50.9169 17.3323 51.2305 17.514 51.3068 17.5571C52.0214 17.96 52.8703 18.009 53.0788 18.0212C54.2159 18.087 55.0635 17.6655 55.0956 17.4025C55.0986 17.3782 55.1019 17.2939 55.1315 17.2867C55.1821 17.2742 55.2701 17.4968 55.2972 17.5652C55.4833 18.0353 55.0273 19.0582 54.8685 19.4251C54.4407 20.4132 53.9463 21.774 53.5611 22.1589C53.2948 22.4249 52.992 22.5784 52.992 22.5784C52.9483 22.6005 52.9165 22.6144 52.8985 22.6229C52.1892 22.9556 51.5197 22.819 51.1121 22.7465C49.9407 22.5386 48.8435 22.504 48.0581 22.499C47.6051 22.4963 46.9738 22.5217 46.2142 22.6498C45.8763 22.631 45.5386 22.6124 45.2007 22.5936C44.9858 22.5513 44.6717 22.4681 44.3233 22.29V22.2903Z" fill="url(#paint21_radial_331_10865)"/>
<path d="M46.4169 27.2322C46.6935 27.6674 47.098 28.1093 47.6135 28.0986C47.9268 28.0919 48.21 27.9149 48.4572 27.7219C49.5714 26.8517 50.3102 25.5168 50.4563 24.1107C50.5754 22.9625 50.3163 21.8119 50.0495 20.6889C49.794 19.614 49.5285 18.5363 49.109 17.5143C48.7017 16.5218 48.0908 15.5324 47.1141 15.088C45.2259 14.2285 43.0432 15.8913 43.2047 17.9268C43.2697 18.7454 43.874 19.4998 44.1568 20.2569C44.5567 21.3265 44.7788 22.4515 45.0467 23.5584C45.3548 24.8305 45.7082 26.1166 46.4169 27.2319V27.2322Z" fill="url(#paint22_radial_331_10865)"/>
<path d="M48.3689 27.5339C48.5027 28.0317 48.7572 28.5745 49.2521 28.718C49.5533 28.8054 49.8763 28.7211 50.1697 28.6105C51.4929 28.1127 52.5965 27.0594 53.156 25.7611C53.6125 24.7008 53.7087 23.5253 53.7895 22.3738C53.8666 21.2716 53.9349 20.164 53.8398 19.0632C53.7475 17.9944 53.4596 16.8678 52.6604 16.1518C51.1151 14.7678 48.5354 15.703 48.0816 17.6941C47.8991 18.4949 47.6112 19.3408 47.6552 20.148C47.7174 21.2884 47.6601 22.4452 47.5855 23.5817C47.4998 24.8878 48.0252 26.258 48.3686 27.5339H48.3689Z" fill="url(#paint23_linear_331_10865)"/>
<path opacity="0.51" d="M52.3877 25.3286C51.9278 25.4408 51.4616 25.531 50.9973 25.6076C48.5577 26.0102 45.913 26.0547 43.7715 24.8192C42.5337 24.1049 41.5581 23.0137 40.6998 21.8713C40.4476 21.5359 40.1962 21.1764 40.1351 20.7613C39.8132 18.5704 44.7767 19.0621 45.9143 19.132C47.9875 19.2598 50.0233 19.7094 51.9762 18.7487C52.9701 18.2598 53.8774 17.6058 54.8834 17.1421C55.184 17.0035 55.5424 16.8838 55.8347 17.0389C55.9798 17.1161 56.0847 17.2505 56.179 17.3849C57.0177 18.5792 57.4842 20.2979 57.1551 21.7472C56.948 22.6586 56.2943 23.4141 55.5382 23.9639C54.6049 24.6428 53.5151 25.0529 52.3877 25.3286Z" fill="url(#paint24_radial_331_10865)"/>
</g>
<path d="M44.2084 24.1956C44.0494 24.1956 43.9526 24.1942 43.9333 24.1937C43.4975 24.1867 43.1504 23.8278 43.1573 23.392C43.1645 22.9565 43.5271 22.6119 43.959 22.616C43.9847 22.6163 46.5269 22.6525 48.6247 22.2875C50.8051 21.9081 53.4233 21.4919 53.4496 21.4878C53.8796 21.4189 54.2842 21.7129 54.3525 22.1432C54.4208 22.5735 54.1274 22.9777 53.6971 23.046C53.6711 23.0502 51.0642 23.4647 48.8954 23.8422C47.0443 24.1643 44.9512 24.1956 44.209 24.1956H44.2084Z" fill="url(#paint25_linear_331_10865)"/>
<path d="M44.2084 24.1956C44.0494 24.1956 43.9526 24.1942 43.9333 24.1937C43.4975 24.1867 43.1504 23.8278 43.1573 23.392C43.1645 22.9565 43.5271 22.6119 43.959 22.616C43.9847 22.6163 46.5269 22.6525 48.6247 22.2875C50.8051 21.9081 53.4233 21.4919 53.4496 21.4878C53.8796 21.4189 54.2842 21.7129 54.3525 22.1432C54.4208 22.5735 54.1274 22.9777 53.6971 23.046C53.6711 23.0502 51.0642 23.4647 48.8954 23.8422C47.0443 24.1643 44.9512 24.1956 44.209 24.1956H44.2084Z" fill="url(#paint26_linear_331_10865)"/>
<path d="M54.1075 24.2134C54.0793 24.2134 54.0508 24.212 54.0223 24.2089L43.3272 23.1186C42.8703 23.0721 42.538 22.664 42.5844 22.2071C42.6309 21.7503 43.0376 21.4168 43.4959 21.4644L54.191 22.5547C54.6479 22.6012 54.9803 23.0093 54.9338 23.4662C54.8901 23.8943 54.529 24.2134 54.1078 24.2134H54.1075Z" fill="url(#paint27_radial_331_10865)"/>
<path d="M54.1075 24.2134C54.0793 24.2134 54.0508 24.212 54.0223 24.2089L43.3272 23.1186C42.8703 23.0721 42.538 22.664 42.5844 22.2071C42.6309 21.7503 43.0376 21.4168 43.4959 21.4644L54.191 22.5547C54.6479 22.6012 54.9803 23.0093 54.9338 23.4662C54.8901 23.8943 54.529 24.2134 54.1078 24.2134H54.1075Z" fill="url(#paint28_radial_331_10865)"/>
<path opacity="0.61" d="M45.836 27.8638C45.5932 28.1096 45.4843 28.5983 45.4102 28.9351C44.7094 32.1249 44.0087 35.3147 43.3082 38.5045C43.2728 38.6654 43.2374 38.8333 43.2775 38.9931C43.376 39.3866 43.8914 39.5418 44.1934 39.7279C44.635 40.0003 45.1251 40.1994 45.6154 40.3661C46.5921 40.698 47.6122 40.8766 48.6265 41.05C49.1514 41.1399 49.5291 41.1471 49.9804 40.8736C50.4475 40.5904 50.9024 40.3869 51.2904 39.9837C51.9817 39.265 52.4117 38.3295 52.6819 37.3796C52.8024 36.9556 52.892 36.5229 52.9559 36.0865C52.9971 35.8058 53.0278 35.5238 53.0497 35.2411C53.079 34.8587 53.0892 34.4743 53.0743 34.091C53.0375 33.1561 52.8998 32.2023 52.5353 31.3348C52.1979 30.5318 51.6653 30.1192 50.8836 29.7677C49.4074 29.104 47.9316 28.4401 46.4552 27.7761C46.1836 27.6542 45.9851 27.7136 45.8363 27.8641L45.836 27.8638Z" fill="url(#paint29_radial_331_10865)"/>
<path opacity="0.76" d="M48.1842 30.2498C48.1757 30.1887 48.1408 30.1433 48.0612 30.0957C47.7534 29.9118 47.4257 29.7645 47.0919 29.6353C47.022 29.6082 46.423 29.447 46.4269 29.3859C46.4543 28.947 46.5942 28.4957 46.678 28.0641C46.6849 28.0289 46.6915 27.9922 46.6824 27.9576C46.6691 27.9086 46.6268 27.8738 46.5851 27.8453C46.4319 27.7405 46.2516 27.6736 46.0682 27.6457C46.0677 27.6457 46.0668 27.6457 46.0663 27.6457C45.7519 27.5984 45.425 27.5953 45.1078 27.5721C44.9867 27.5633 44.969 27.6039 44.9488 27.7084C44.8636 28.1514 44.7785 28.5944 44.6933 29.0374L44.6905 29.0524C44.6795 29.1093 44.6687 29.1663 44.6576 29.2233C44.6551 29.2233 44.6526 29.2233 44.6502 29.2236C44.6441 29.2236 44.6377 29.2238 44.6322 29.2241C43.9793 29.2382 43.3399 29.5313 42.8461 29.9544C42.4642 30.2816 42.1738 30.7088 42.0449 31.1972L42.0427 31.2055C41.8149 32.0179 42.0084 32.829 42.6893 33.3541C42.8599 33.4858 43.0474 33.5939 43.242 33.6857C43.286 33.7064 43.7605 33.8889 43.7586 33.8992C43.6159 34.6403 43.4735 35.3814 43.3311 36.1225L43.3267 36.146C43.3222 36.1684 42.8076 35.8933 42.7653 35.865C42.5858 35.7461 42.4404 35.6004 42.2786 35.461C42.1273 35.3308 41.9089 35.2536 41.7148 35.2119C41.6409 35.1961 41.2452 35.1162 41.2259 35.2207C41.1783 35.4677 41.131 35.7149 41.0834 35.9618C41.0497 36.138 40.9549 36.3775 40.9717 36.5555C40.9717 36.5564 40.9717 36.5572 40.9717 36.558C40.9855 36.6709 41.1938 36.7563 41.2798 36.8094C41.4509 36.9156 41.6282 37.0121 41.8102 37.0987C42.1868 37.2776 42.5869 37.4128 42.9926 37.5076C43.0145 37.5132 43.0374 37.5187 43.0615 37.5245C43.0615 37.6855 42.9948 37.8713 42.9644 38.03C42.9307 38.2056 42.8969 38.3809 42.8632 38.5565C42.8295 38.7321 42.7957 38.9075 42.762 39.0831C42.739 39.2028 42.6616 39.4002 42.7266 39.5144C42.7946 39.6339 42.9462 39.6903 43.0712 39.7246C43.4694 39.8341 43.8869 39.846 44.2998 39.8576C44.4779 39.8626 44.4544 39.6278 44.4801 39.4945C44.5191 39.2913 44.5583 39.088 44.5973 38.8848C44.6756 38.4783 44.7536 38.0718 44.8318 37.6653C44.8423 37.6647 44.8526 37.6642 44.8617 37.6636C45.8785 37.6102 46.8157 36.9322 47.2825 36.0481C47.588 35.4696 47.6339 34.6859 47.3126 34.1068C47.0411 33.6177 46.5538 33.2905 46.0419 33.0928C45.9794 33.0687 45.9164 33.0466 45.8528 33.0259C45.7566 32.9941 45.7378 33.0051 45.7483 32.9003C45.766 32.7247 45.816 32.5466 45.8492 32.3733C45.9164 32.0218 45.9833 31.6703 46.0513 31.3191C46.061 31.2693 46.1769 30.7804 46.1578 30.7713C46.3707 30.8739 46.5629 31.0268 46.7418 31.1797C47.007 31.4062 47.3187 31.5813 47.674 31.599C47.8037 31.6053 47.9141 31.6269 47.9735 31.4908C48.0211 31.3827 48.0117 31.2569 48.0352 31.143C48.0872 30.8938 48.1381 30.6444 48.1743 30.3925C48.1853 30.3352 48.1906 30.2896 48.1851 30.2503L48.1842 30.2498Z" fill="#C46700"/>
<path d="M47.9372 30.0437C47.9286 29.9826 47.8938 29.9372 47.8141 29.8897C47.5063 29.7058 47.1786 29.5584 46.8449 29.4293C46.7749 29.4022 46.1759 29.2409 46.1798 29.1798C46.2072 28.741 46.3471 28.2897 46.4309 27.858C46.4378 27.8229 46.4444 27.7861 46.4353 27.7515C46.422 27.7026 46.3797 27.6677 46.338 27.6393C46.1848 27.5345 46.0045 27.4675 45.8211 27.4396C45.8206 27.4396 45.8198 27.4396 45.8192 27.4396C45.5048 27.3923 45.1779 27.3893 44.8607 27.366C44.7396 27.3572 44.7219 27.3978 44.7017 27.5024C44.6166 27.9454 44.5314 28.3884 44.4462 28.8314L44.4435 28.8463C44.4324 28.9033 44.4216 28.9603 44.4105 29.0172C44.4081 29.0172 44.4056 29.0172 44.4031 29.0175C44.397 29.0175 44.3906 29.0178 44.3851 29.0181C43.7322 29.0322 43.0929 29.3253 42.599 29.7484C42.2171 30.0755 41.9267 30.5028 41.7979 30.9911L41.7957 30.9994C41.5678 31.8119 41.7614 32.6229 42.4422 33.1481C42.6128 33.2797 42.8003 33.3878 42.995 33.4796C43.0389 33.5004 43.5135 33.6829 43.5115 33.6931C43.3689 34.4342 43.2264 35.1753 43.084 35.9164L43.0796 35.9399C43.0752 35.9623 42.5605 35.6872 42.5182 35.659C42.3388 35.5401 42.1933 35.3943 42.0315 35.255C41.8803 35.1247 41.6618 35.0476 41.4677 35.0058C41.3939 34.9901 40.9981 34.9101 40.9788 35.0147C40.9312 35.2616 40.8839 35.5088 40.8364 35.7558C40.8026 35.9319 40.7078 36.1714 40.7246 36.3495C40.7246 36.3503 40.7246 36.3512 40.7246 36.352C40.7385 36.4648 40.9467 36.5503 41.0327 36.6033C41.2039 36.7095 41.3811 36.806 41.5631 36.8926C41.9397 37.0715 42.3399 37.2067 42.7455 37.3016C42.7674 37.3071 42.7903 37.3127 42.8144 37.3185C42.8144 37.4794 42.7478 37.6652 42.7173 37.824C42.6836 37.9996 42.6499 38.1749 42.6161 38.3505C42.5824 38.5261 42.5487 38.7014 42.5149 38.877C42.492 38.9967 42.4145 39.1942 42.4795 39.3084C42.5476 39.4279 42.6991 39.4843 42.8241 39.5186C43.2223 39.6281 43.6399 39.64 44.0527 39.6516C44.2308 39.6566 44.2073 39.4218 44.233 39.2885C44.272 39.0852 44.3113 38.882 44.3503 38.6787C44.4285 38.2722 44.5065 37.8657 44.5848 37.4592C44.5953 37.4587 44.6055 37.4581 44.6146 37.4576C45.6314 37.4042 46.5686 36.7261 47.0354 35.8421C47.341 35.2635 47.3869 34.4799 47.0655 33.9008C46.794 33.4116 46.3067 33.0845 45.7949 32.8867C45.7324 32.8627 45.6693 32.8406 45.6057 32.8198C45.5095 32.788 45.4907 32.7991 45.5012 32.6943C45.5189 32.5187 45.5689 32.3406 45.6021 32.1672C45.6693 31.8157 45.7362 31.4643 45.8043 31.1131C45.814 31.0633 45.9298 30.5744 45.9107 30.5653C46.1237 30.6678 46.3159 30.8208 46.4948 30.9737C46.76 31.2002 47.0716 31.3752 47.427 31.3929C47.5567 31.3993 47.667 31.4208 47.7265 31.2848C47.774 31.1767 47.7646 31.0508 47.7881 30.9369C47.8401 30.6878 47.891 30.4383 47.9272 30.1864C47.9383 30.1292 47.9435 30.0835 47.938 30.0443L47.9372 30.0437Z" fill="url(#paint30_linear_331_10865)"/>
<path d="M46.0955 33.6036C46.3079 33.941 46.3624 34.379 46.259 34.9174C46.1453 35.5081 45.8414 36.0003 45.347 36.3933C44.852 36.787 44.2829 37.0027 43.6388 37.0409C43.4989 37.7682 43.359 38.4955 43.2193 39.2227C43.01 39.2073 42.8007 39.192 42.5913 39.1766C42.7293 38.4595 42.867 37.7422 43.005 37.0249C42.6093 36.9914 42.2199 36.9118 41.8364 36.7859C41.4528 36.6598 41.1279 36.5058 40.8613 36.323C40.9393 35.9171 41.0173 35.5114 41.0956 35.1054C41.1232 35.1074 41.1506 35.1096 41.1782 35.1115C41.4224 35.3701 41.7125 35.5869 42.0471 35.7625C42.382 35.9381 42.7586 36.0611 43.1767 36.1328C43.3438 35.265 43.5105 34.397 43.6775 33.5292C43.5907 33.4982 43.4842 33.4612 43.3584 33.4172C43.2329 33.3735 43.1272 33.332 43.0418 33.2933C42.5225 33.0881 42.1765 32.8099 42.004 32.459C41.8311 32.1084 41.7916 31.6894 41.8851 31.2036C41.9948 30.6331 42.294 30.1519 42.7827 29.7598C43.2716 29.3679 43.8509 29.1622 44.5212 29.142C44.6263 28.5956 44.7314 28.0489 44.8365 27.5024C45.0458 27.5179 45.2552 27.5331 45.4645 27.5486C45.3602 28.0912 45.256 28.6335 45.1515 29.176C45.483 29.2128 45.8193 29.2897 46.16 29.4061C46.5007 29.5228 46.9813 29.7689 46.9813 29.7689L46.7517 30.9621C46.7517 30.9621 46.6967 30.958 46.6691 30.9561C46.4492 30.7445 46.1995 30.5551 45.921 30.3878C45.6423 30.2208 44.9836 30.0496 44.9836 30.0496L44.4853 32.6413C44.4853 32.6413 44.7082 32.7159 44.8072 32.7535C44.9059 32.7914 44.9922 32.8232 45.0652 32.8489C45.5394 33.0143 45.8834 33.2657 46.0958 33.6033L46.0955 33.6036ZM43.8742 32.5052C43.8742 32.5052 44.1941 30.8416 44.3539 30.01C44.0174 30.0183 43.7174 30.1151 43.4546 30.3015C43.1914 30.4879 43.0255 30.7617 42.9558 31.1234C42.8869 31.4812 42.9154 31.7633 43.0412 31.9701C43.1671 32.177 43.4447 32.3553 43.8739 32.5052H43.8742ZM44.7289 35.859C44.9601 35.674 45.113 35.3869 45.188 34.9976C45.2607 34.6198 45.2261 34.3339 45.0845 34.1406C44.9432 33.9468 44.6775 33.7889 44.2878 33.6664C44.1275 34.5001 43.9671 35.3339 43.807 36.1673C44.1908 36.1466 44.498 36.0437 44.7289 35.859Z" fill="url(#paint31_linear_331_10865)"/>
<path opacity="0.5" d="M68.4944 21.1809H29.3818V58.7691H29.4C29.3864 59.0785 29.582 59.3879 29.987 59.62L47.5889 69.7816C48.3716 70.2321 49.6412 70.2321 50.4193 69.7816L67.9074 59.62C68.3124 59.3834 68.5035 59.074 68.4853 58.7691V21.1809H68.4944Z" fill="url(#paint32_linear_331_10865)"/>
</g>
<defs>
<linearGradient id="paint0_linear_331_10865" x1="6.65613" y1="58.7692" x2="91.6344" y2="58.7692" gradientUnits="userSpaceOnUse">
<stop stop-color="#7827A8"/>
<stop offset="0.33" stop-color="#6D32B0"/>
<stop offset="0.9" stop-color="#4F50C6"/>
<stop offset="1" stop-color="#4A56CB"/>
</linearGradient>
<linearGradient id="paint1_linear_331_10865" x1="6.65103" y1="67.975" x2="91.6338" y2="67.975" gradientUnits="userSpaceOnUse">
<stop stop-color="#611F87"/>
<stop offset="0.38" stop-color="#562A8F"/>
<stop offset="1" stop-color="#3C46A6"/>
</linearGradient>
<linearGradient id="paint2_linear_331_10865" x1="16.1207" y1="79.438" x2="50.0957" y2="58.1775" gradientUnits="userSpaceOnUse">
<stop stop-color="#C4118B"/>
<stop offset="0.08" stop-color="#B8138B"/>
<stop offset="0.22" stop-color="#9A1B8D"/>
<stop offset="0.4" stop-color="#6A2791"/>
<stop offset="0.48" stop-color="#522E93"/>
<stop offset="0.6" stop-color="#5754A8"/>
<stop offset="0.87" stop-color="#66B5DE"/>
<stop offset="1" stop-color="#6EE5F9"/>
</linearGradient>
<linearGradient id="paint3_linear_331_10865" x1="59.8523" y1="32.6759" x2="40.3665" y2="80.1661" gradientUnits="userSpaceOnUse">
<stop stop-color="#1B2268"/>
<stop offset="0.31" stop-color="#1A2064"/>
<stop offset="0.59" stop-color="#161C58"/>
<stop offset="0.87" stop-color="#111546"/>
<stop offset="0.99" stop-color="#0F123B"/>
</linearGradient>
<radialGradient id="paint4_radial_331_10865" cx="0" cy="0" r="1" gradientUnits="userSpaceOnUse" gradientTransform="translate(83.3518 79.4834) scale(2.47098 2.47099)">
<stop offset="0.07" stop-color="#FEE2A6"/>
<stop offset="0.14" stop-color="#797782"/>
<stop offset="0.19" stop-color="#1B2B69"/>
<stop offset="0.26" stop-color="#17255B"/>
<stop offset="0.49" stop-color="#0D1533"/>
<stop offset="0.69" stop-color="#060917"/>
<stop offset="0.87" stop-color="#010206"/>
<stop offset="1"/>
</radialGradient>
<radialGradient id="paint5_radial_331_10865" cx="0" cy="0" r="1" gradientUnits="userSpaceOnUse" gradientTransform="translate(95.2796 67.0877) scale(2.47098 2.47099)">
<stop offset="0.07" stop-color="#FEE2A6"/>
<stop offset="0.14" stop-color="#797782"/>
<stop offset="0.19" stop-color="#1B2B69"/>
<stop offset="0.26" stop-color="#17255B"/>
<stop offset="0.49" stop-color="#0D1533"/>
<stop offset="0.69" stop-color="#060917"/>
<stop offset="0.87" stop-color="#010206"/>
<stop offset="1"/>
</radialGradient>
<radialGradient id="paint6_radial_331_10865" cx="0" cy="0" r="1" gradientUnits="userSpaceOnUse" gradientTransform="translate(98.656 56.0796) scale(3.48123 3.48122)">
<stop offset="0.07" stop-color="#FEE2A6"/>
<stop offset="0.14" stop-color="#797782"/>
<stop offset="0.19" stop-color="#1B2B69"/>
<stop offset="0.26" stop-color="#17255B"/>
<stop offset="0.49" stop-color="#0D1533"/>
<stop offset="0.69" stop-color="#060917"/>
<stop offset="0.87" stop-color="#010206"/>
<stop offset="1"/>
</radialGradient>
<radialGradient id="paint7_radial_331_10865" cx="0" cy="0" r="1" gradientUnits="userSpaceOnUse" gradientTransform="translate(93.2093 74.5872) scale(2.471 2.47099)">
<stop offset="0.07" stop-color="#FEE2A6"/>
<stop offset="0.14" stop-color="#797782"/>
<stop offset="0.19" stop-color="#1B2B69"/>
<stop offset="0.26" stop-color="#17255B"/>
<stop offset="0.49" stop-color="#0D1533"/>
<stop offset="0.69" stop-color="#060917"/>
<stop offset="0.87" stop-color="#010206"/>
<stop offset="1"/>
</radialGradient>
<radialGradient id="paint8_radial_331_10865" cx="0" cy="0" r="1" gradientUnits="userSpaceOnUse" gradientTransform="translate(2.75614 48.7441) scale(2.47098 2.47099)">
<stop offset="0.07" stop-color="#FEE2A6"/>
<stop offset="0.14" stop-color="#797782"/>
<stop offset="0.19" stop-color="#1B2B69"/>
<stop offset="0.26" stop-color="#17255B"/>
<stop offset="0.49" stop-color="#0D1533"/>
<stop offset="0.69" stop-color="#060917"/>
<stop offset="0.87" stop-color="#010206"/>
<stop offset="1"/>
</radialGradient>
<radialGradient id="paint9_radial_331_10865" cx="0" cy="0" r="1" gradientUnits="userSpaceOnUse" gradientTransform="translate(14.6878 36.3435) scale(2.47098 2.47099)">
<stop offset="0.07" stop-color="#FEE2A6"/>
<stop offset="0.14" stop-color="#797782"/>
<stop offset="0.19" stop-color="#1B2B69"/>
<stop offset="0.26" stop-color="#17255B"/>
<stop offset="0.49" stop-color="#0D1533"/>
<stop offset="0.69" stop-color="#060917"/>
<stop offset="0.87" stop-color="#010206"/>
<stop offset="1"/>
</radialGradient>
<radialGradient id="paint10_radial_331_10865" cx="0" cy="0" r="1" gradientUnits="userSpaceOnUse" gradientTransform="translate(11.0794 43.8475) scale(2.47098 2.47099)">
<stop offset="0.07" stop-color="#FEE2A6"/>
<stop offset="0.14" stop-color="#797782"/>
<stop offset="0.19" stop-color="#1B2B69"/>
<stop offset="0.26" stop-color="#17255B"/>
<stop offset="0.49" stop-color="#0D1533"/>
<stop offset="0.69" stop-color="#060917"/>
<stop offset="0.87" stop-color="#010206"/>
<stop offset="1"/>
</radialGradient>
<radialGradient id="paint11_radial_331_10865" cx="0" cy="0" r="1" gradientUnits="userSpaceOnUse" gradientTransform="translate(60.3216 4.87138) scale(2.47098 2.47099)">
<stop offset="0.07" stop-color="#FEE2A6"/>
<stop offset="0.14" stop-color="#797782"/>
<stop offset="0.19" stop-color="#1B2B69"/>
<stop offset="0.26" stop-color="#17255B"/>
<stop offset="0.49" stop-color="#0D1533"/>
<stop offset="0.69" stop-color="#060917"/>
<stop offset="0.87" stop-color="#010206"/>
<stop offset="1"/>
</radialGradient>
<radialGradient id="paint12_radial_331_10865" cx="0" cy="0" r="1" gradientUnits="userSpaceOnUse" gradientTransform="translate(62.156 15.8795) scale(3.48122 3.48122)">
<stop offset="0.07" stop-color="#FEE2A6"/>
<stop offset="0.14" stop-color="#797782"/>
<stop offset="0.19" stop-color="#1B2B69"/>
<stop offset="0.26" stop-color="#17255B"/>
<stop offset="0.49" stop-color="#0D1533"/>
<stop offset="0.69" stop-color="#060917"/>
<stop offset="0.87" stop-color="#010206"/>
<stop offset="1"/>
</radialGradient>
<radialGradient id="paint13_radial_331_10865" cx="0" cy="0" r="1" gradientUnits="userSpaceOnUse" gradientTransform="translate(68.6399 9.76787) scale(2.471 2.47099)">
<stop offset="0.07" stop-color="#FEE2A6"/>
<stop offset="0.14" stop-color="#797782"/>
<stop offset="0.19" stop-color="#1B2B69"/>
<stop offset="0.26" stop-color="#17255B"/>
<stop offset="0.49" stop-color="#0D1533"/>
<stop offset="0.69" stop-color="#060917"/>
<stop offset="0.87" stop-color="#010206"/>
<stop offset="1"/>
</radialGradient>
<radialGradient id="paint14_radial_331_10865" cx="0" cy="0" r="1" gradientUnits="userSpaceOnUse" gradientTransform="translate(70.4783 20.7759) scale(3.48122 3.48123)">
<stop offset="0.07" stop-color="#FEE2A6"/>
<stop offset="0.14" stop-color="#797782"/>
<stop offset="0.19" stop-color="#1B2B69"/>
<stop offset="0.26" stop-color="#17255B"/>
<stop offset="0.49" stop-color="#0D1533"/>
<stop offset="0.69" stop-color="#060917"/>
<stop offset="0.87" stop-color="#010206"/>
<stop offset="1"/>
</radialGradient>
<radialGradient id="paint15_radial_331_10865" cx="0" cy="0" r="1" gradientUnits="userSpaceOnUse" gradientTransform="translate(35.9467 36.1252) scale(30.0917 31.6755)">
<stop offset="0.16" stop-color="#B5E69F"/>
<stop offset="0.2" stop-color="#9FDB8F"/>
<stop offset="0.26" stop-color="#80CB79"/>
<stop offset="0.32" stop-color="#6DC26B"/>
<stop offset="0.36" stop-color="#67BF67"/>
<stop offset="0.74" stop-color="#48A153"/>
<stop offset="0.81" stop-color="#459E52"/>
<stop offset="0.86" stop-color="#3D9550"/>
<stop offset="0.89" stop-color="#30864C"/>
<stop offset="0.93" stop-color="#207348"/>
</radialGradient>
<radialGradient id="paint16_radial_331_10865" cx="0" cy="0" r="1" gradientUnits="userSpaceOnUse" gradientTransform="translate(53.2309 35.2707) scale(9.36173 9.36174)">
<stop stop-color="#3D9C6C"/>
<stop offset="0.25" stop-color="#4FAA74"/>
<stop offset="0.69" stop-color="#6DBF80"/>
<stop offset="0.94" stop-color="#78C885"/>
</radialGradient>
<radialGradient id="paint17_radial_331_10865" cx="0" cy="0" r="1" gradientUnits="userSpaceOnUse" gradientTransform="translate(45.7542 28.3325) scale(12.598 12.598)">
<stop stop-color="#78C885"/>
<stop offset="0.94" stop-color="#78C885"/>
</radialGradient>
<radialGradient id="paint18_radial_331_10865" cx="0" cy="0" r="1" gradientUnits="userSpaceOnUse" gradientTransform="translate(34.1298 52.9611) scale(27.5919 27.5919)">
<stop offset="0.46" stop-color="#005429"/>
<stop offset="0.96" stop-color="#005429"/>
</radialGradient>
<radialGradient id="paint19_radial_331_10865" cx="0" cy="0" r="1" gradientUnits="userSpaceOnUse" gradientTransform="translate(46.4115 32.6143) scale(31.0665 31.0665)">
<stop offset="0.49" stop-color="#3D9C6C"/>
<stop offset="0.67" stop-color="#3D9C6C"/>
</radialGradient>
<radialGradient id="paint20_radial_331_10865" cx="0" cy="0" r="1" gradientUnits="userSpaceOnUse" gradientTransform="translate(43.9587 16.2378) scale(12.1767 13.0933)">
<stop offset="0.62" stop-color="#78C885"/>
<stop offset="0.75" stop-color="#67BB7D"/>
<stop offset="1" stop-color="#3D9C6C"/>
</radialGradient>
<radialGradient id="paint21_radial_331_10865" cx="0" cy="0" r="1" gradientUnits="userSpaceOnUse" gradientTransform="translate(29.3317 14.6729) scale(28.7031 30.8636)">
<stop offset="0.46" stop-color="#BBE4A7"/>
<stop offset="0.51" stop-color="#78C885"/>
<stop offset="0.65" stop-color="#50AA74"/>
<stop offset="0.72" stop-color="#3D9C6C"/>
<stop offset="0.77" stop-color="#409D6D"/>
<stop offset="0.8" stop-color="#4AA370"/>
<stop offset="0.84" stop-color="#5AAE76"/>
<stop offset="0.87" stop-color="#72BC7F"/>
<stop offset="0.89" stop-color="#90CF8A"/>
<stop offset="0.92" stop-color="#B5E598"/>
<stop offset="0.95" stop-color="#DFFFA8"/>
</radialGradient>
<radialGradient id="paint22_radial_331_10865" cx="0" cy="0" r="1" gradientUnits="userSpaceOnUse" gradientTransform="translate(55.738 16.4206) scale(15.8766 15.8766)">
<stop offset="0.51" stop-color="#3D9C6C"/>
<stop offset="0.52" stop-color="#3D9C6C"/>
<stop offset="0.61" stop-color="#3D9C6C"/>
<stop offset="0.68" stop-color="#5EB57A"/>
<stop offset="0.74" stop-color="#78C885"/>
<stop offset="0.75" stop-color="#86CE8C"/>
<stop offset="0.76" stop-color="#9DD798"/>
<stop offset="0.78" stop-color="#AEDEA0"/>
<stop offset="0.8" stop-color="#B7E2A5"/>
<stop offset="0.82" stop-color="#BBE4A7"/>
</radialGradient>
<linearGradient id="paint23_linear_331_10865" x1="47.3301" y1="21.9103" x2="53.8225" y2="22.3879" gradientUnits="userSpaceOnUse">
<stop stop-color="#3D9C6C"/>
<stop offset="0.05" stop-color="#4BA672"/>
<stop offset="0.15" stop-color="#64B97C"/>
<stop offset="0.24" stop-color="#72C482"/>
<stop offset="0.31" stop-color="#78C885"/>
<stop offset="0.42" stop-color="#62B77B"/>
<stop offset="0.58" stop-color="#47A370"/>
<stop offset="0.68" stop-color="#3D9C6C"/>
<stop offset="1" stop-color="#3D9C6C"/>
</linearGradient>
<radialGradient id="paint24_radial_331_10865" cx="0" cy="0" r="1" gradientUnits="userSpaceOnUse" gradientTransform="translate(47.1723 5.25974) scale(19.2129 19.2129)">
<stop offset="0.77" stop-color="#78C885"/>
<stop offset="0.81" stop-color="#62B77B"/>
<stop offset="0.85" stop-color="#47A370"/>
<stop offset="0.88" stop-color="#3D9C6C"/>
</radialGradient>
<linearGradient id="paint25_linear_331_10865" x1="47.6369" y1="26.1051" x2="50.9926" y2="16.3363" gradientUnits="userSpaceOnUse">
<stop stop-color="#EFAB26"/>
<stop offset="0.12" stop-color="#F6D246"/>
<stop offset="0.15" stop-color="#E8AF32"/>
<stop offset="0.21" stop-color="#D7861A"/>
<stop offset="0.23" stop-color="#D17611"/>
<stop offset="0.41" stop-color="#DD8523"/>
<stop offset="0.6" stop-color="#EEA926"/>
<stop offset="0.76" stop-color="#FFFDA6"/>
</linearGradient>
<linearGradient id="paint26_linear_331_10865" x1="48.6424" y1="21.8691" x2="48.9219" y2="24.1765" gradientUnits="userSpaceOnUse">
<stop offset="0.11" stop-color="#DD8523"/>
<stop offset="0.16" stop-color="#E59F2F"/>
<stop offset="0.21" stop-color="#ECB539"/>
<stop offset="0.27" stop-color="#F2C540"/>
<stop offset="0.34" stop-color="#F5CF44"/>
<stop offset="0.44" stop-color="#F6D246"/>
<stop offset="0.51" stop-color="#F4CC43"/>
<stop offset="0.61" stop-color="#EFBD3C"/>
<stop offset="0.71" stop-color="#E7A331"/>
<stop offset="0.81" stop-color="#DD8523"/>
</linearGradient>
<radialGradient id="paint27_radial_331_10865" cx="0" cy="0" r="1" gradientUnits="userSpaceOnUse" gradientTransform="translate(46.7172 22.4654) scale(10.0641 10.0641)">
<stop stop-color="#F6D246"/>
<stop offset="0.32" stop-color="#EFAB26"/>
<stop offset="0.72" stop-color="#DD8523"/>
<stop offset="1" stop-color="#EFAB26"/>
</radialGradient>
<radialGradient id="paint28_radial_331_10865" cx="0" cy="0" r="1" gradientUnits="userSpaceOnUse" gradientTransform="translate(49.7524 -1.90737) scale(26.6561 26.6561)">
<stop offset="0.02" stop-color="#F6D246"/>
<stop offset="0.91" stop-color="#EFAB26"/>
<stop offset="0.97" stop-color="#DD8523"/>
</radialGradient>
<radialGradient id="paint29_radial_331_10865" cx="0" cy="0" r="1" gradientUnits="userSpaceOnUse" gradientTransform="translate(45.1378 33.4611) scale(9.74943 9.74944)">
<stop stop-color="#16442D"/>
<stop offset="0.82" stop-color="#558F5F"/>
</radialGradient>
<linearGradient id="paint30_linear_331_10865" x1="41.937" y1="32.8876" x2="47.5271" y2="34.2677" gradientUnits="userSpaceOnUse">
<stop stop-color="#EFAB26"/>
<stop offset="1" stop-color="#DD8523"/>
</linearGradient>
<linearGradient id="paint31_linear_331_10865" x1="43.6576" y1="27.8716" x2="44.2505" y2="39.5175" gradientUnits="userSpaceOnUse">
<stop stop-color="#F6D246"/>
<stop offset="0.47" stop-color="#FFEE7D"/>
<stop offset="1" stop-color="#EFAC2D"/>
</linearGradient>
<linearGradient id="paint32_linear_331_10865" x1="48.9404" y1="71.4835" x2="48.9404" y2="21.2128" gradientUnits="userSpaceOnUse">
<stop stop-color="#6EE8FD"/>
<stop offset="0.09" stop-color="#6EE8FD" stop-opacity="0.96"/>
<stop offset="0.24" stop-color="#6EE8FD" stop-opacity="0.84"/>
<stop offset="0.45" stop-color="#6EE8FD" stop-opacity="0.64"/>
<stop offset="0.69" stop-color="#6EE8FD" stop-opacity="0.38"/>
<stop offset="0.97" stop-color="#6EE8FD" stop-opacity="0.04"/>
<stop offset="1" stop-color="#6EE8FD" stop-opacity="0"/>
</linearGradient>
<clipPath id="clip0_331_10865">
<rect width="96" height="96" fill="white"/>
</clipPath>
</defs>
</svg>
