<svg width="96" height="96" viewBox="0 0 96 96" fill="none" xmlns="http://www.w3.org/2000/svg">
<g clip-path="url(#clip0_331_7455)">
<path opacity="0.5" d="M86.9495 58.3851L63.7117 44.9278C62.4494 44.1965 60.2422 44.2867 58.7829 45.1248L10.0131 73.1914C8.55386 74.0329 8.39357 75.3052 9.65581 76.0365L32.8937 89.4938C34.1559 90.2251 36.3632 90.1349 37.8224 89.2968L86.5922 61.2302C88.0515 60.3887 88.2118 59.1164 86.9495 58.3851Z" fill="black"/>
<path d="M32.215 84.5117L8.03208 70.5068C7.23734 70.0459 6.86669 69.4248 6.8934 68.7804H6.88672L6.89675 65.2741L8.24246 66.8503C8.32928 66.7935 8.4161 66.7367 8.51293 66.68L57.9873 38.206C59.9508 37.0739 62.9194 36.9571 64.6191 37.9388L88.4647 51.7467C88.9456 51.2191 89.9607 50.1038 89.9607 50.1038L89.9507 53.5366C89.9874 54.3113 89.4364 55.1327 88.3278 55.7739L38.8534 84.2479C36.8899 85.3799 33.9213 85.4968 32.2216 84.515L32.215 84.5117Z" fill="#838CBE"/>
<path d="M19.1347 75.92L20.5272 76.7247C20.7108 76.8316 20.8611 76.7181 20.8611 76.4709C20.8611 76.2238 20.7108 75.9367 20.5272 75.8298L19.1347 75.0251C18.951 74.9182 18.8008 75.0317 18.8008 75.2788C18.8008 75.5259 18.951 75.8131 19.1347 75.92Z" fill="#532880"/>
<path d="M57.9829 38.206C59.9464 37.0739 62.915 36.9571 64.6146 37.9388L88.4603 51.7467C88.9411 51.2191 89.9562 50.1038 89.9562 50.1038L89.9462 53.5366C89.983 54.3113 89.432 55.1327 88.3233 55.7739L38.849 84.2479C37.8238 84.8389 36.5282 85.1495 35.2793 85.1762L35.3261 51.2525L57.9896 38.2093L57.9829 38.206Z" fill="#666982"/>
<path d="M88.8111 48.4176L64.6282 34.4127C62.9286 33.4276 59.9599 33.5478 57.9965 34.6799L8.52207 63.1538C6.55859 64.2859 6.34153 65.9989 8.04121 66.9807L32.2241 80.9856C33.9238 81.9707 36.8924 81.8505 38.8559 80.7184L88.3303 52.2444C90.2937 51.1124 90.5108 49.3994 88.8111 48.4176Z" fill="#F2E0DC"/>
<path d="M32.2047 81.3593L8.02184 67.3544C7.14695 66.8469 6.78298 66.1456 6.90319 65.431C6.9466 66.012 7.31725 66.563 8.04187 66.9804L32.2247 80.9853C33.9244 81.9704 36.893 81.8502 38.8565 80.7182L88.3309 52.2442C89.2826 51.6966 89.8202 51.012 89.9304 50.3408C89.9872 51.1256 89.4395 51.9704 88.3109 52.6182L38.8365 81.0922C36.873 82.2242 33.9044 82.3411 32.2047 81.3593Z" fill="white"/>
<path d="M86.9495 48.9716L63.7117 35.5144C62.4494 34.7831 60.2422 34.8732 58.7829 35.7114L10.0131 63.778C8.55386 64.6195 8.39357 65.8917 9.65581 66.623L32.8937 80.0803C34.1559 80.8116 36.3632 80.7215 37.8224 79.8833L86.5922 51.8167C88.0515 50.9752 88.2118 49.7029 86.9495 48.9716Z" fill="#532880"/>
<path d="M38.7458 73.0911L22.3467 63.6243L23.3952 63.0199L39.7943 72.4867L38.7458 73.0911Z" fill="#F2E0DC"/>
<path d="M27.3356 70.3327L19.0342 65.5375L20.0794 64.9331L28.3841 69.7283L27.3356 70.3327Z" fill="#F2E0DC"/>
<path d="M31.3657 72.6569L28.6709 71.1042L29.7194 70.4998L32.4108 72.0525L31.3657 72.6569Z" fill="#F2CA7E"/>
<path d="M35.4287 75.0047L32.7373 73.4519L33.7825 72.8475L36.4773 74.4003L35.4287 75.0047Z" fill="white"/>
<path d="M27.4281 68.4729L20.6895 64.5793L21.7346 63.9749L28.4733 67.8685L27.4281 68.4729Z" fill="white"/>
<path d="M35.6527 73.2213L28.9141 69.3311L29.9626 68.7267L36.7012 72.6169L35.6527 73.2213Z" fill="#F2E0DC"/>
<path d="M30.6646 64.9036C30.3273 65.0972 29.7797 65.0972 29.4424 64.9036C29.1051 64.7099 29.1051 64.3926 29.4424 64.199C29.7797 64.0053 30.3273 64.0053 30.6646 64.199C31.0018 64.3926 31.0018 64.7099 30.6646 64.9036Z" fill="#F2CA7E"/>
<path d="M32.4908 65.959C32.1535 66.1526 31.6058 66.1526 31.2686 65.959C30.9313 65.7653 30.9313 65.4481 31.2686 65.2544C31.6058 65.0607 32.1535 65.0607 32.4908 65.2544C32.828 65.4481 32.828 65.7653 32.4908 65.959Z" fill="white"/>
<path d="M34.315 67.0107C33.9777 67.2044 33.4301 67.2044 33.0928 67.0107C32.7555 66.8171 32.7555 66.4998 33.0928 66.3061C33.4301 66.1125 33.9777 66.1125 34.315 66.3061C34.6522 66.4998 34.6522 66.8171 34.315 67.0107Z" fill="#F2E0DC"/>
<path d="M36.1402 68.0661C35.8029 68.2598 35.2553 68.2598 34.918 68.0661C34.5807 67.8725 34.5807 67.5552 34.918 67.3616C35.2553 67.1679 35.8029 67.1679 36.1402 67.3616C36.4774 67.5552 36.4774 67.8725 36.1402 68.0661Z" fill="#F2CA7E"/>
<path d="M37.9634 69.1178C37.6261 69.3115 37.0785 69.3115 36.7412 69.1178C36.404 68.9241 36.404 68.6069 36.7412 68.4132C37.0785 68.2195 37.6261 68.2195 37.9634 68.4132C38.3007 68.6069 38.3007 68.9241 37.9634 69.1178Z" fill="white"/>
<path d="M74.6366 49.0748L71.875 47.4786L72.9503 46.8608L75.7118 48.4537L74.6366 49.0748Z" fill="#F2CA7E"/>
<path d="M78.4842 51.2923L75.7227 49.6995L76.7946 49.0784L79.5561 50.6745L78.4842 51.2923Z" fill="white"/>
<path d="M62.3045 41.8856L59.543 40.2927L60.6182 39.6716L63.3764 41.2678L62.3045 41.8856Z" fill="white"/>
<path d="M74.0212 50.6814L70.1777 48.4608L71.2496 47.843L75.0931 50.0603L74.0212 50.6814Z" fill="white"/>
<path d="M76.7854 52.2742L75.0957 51.2992L76.171 50.6814L77.8573 51.6565L76.7854 52.2742Z" fill="#F2E0DC"/>
<path style="mix-blend-mode:screen" d="M64.926 9.98877L-2.42676 48.731L7.44073 65.5176L32.0444 79.7796C33.8476 80.8248 36.0682 80.8315 37.8747 79.7963L85.8164 52.3742C87.8299 51.2221 89.4495 49.4857 90.4613 47.3953L98.7693 30.2081L64.926 9.98877Z" fill="url(#paint0_linear_331_7455)"/>
<path style="mix-blend-mode:screen" d="M64.926 9.98877L-2.42676 48.731L7.44073 65.5176L32.0444 79.7796C33.8476 80.8248 36.0682 80.8315 37.8747 79.7963L85.8164 52.3742C87.8299 51.2221 89.4495 49.4857 90.4613 47.3953L98.7693 30.2081L64.926 9.98877Z" fill="url(#paint1_linear_331_7455)"/>
<path style="mix-blend-mode:color-dodge" d="M86.8364 70.4995C87.7179 70.4995 88.4326 69.7848 88.4326 68.9033C88.4326 68.0218 87.7179 67.3071 86.8364 67.3071C85.9549 67.3071 85.2402 68.0218 85.2402 68.9033C85.2402 69.7848 85.9549 70.4995 86.8364 70.4995Z" fill="url(#paint2_radial_331_7455)"/>
<path style="mix-blend-mode:color-dodge" d="M87.0512 81.606C87.9328 81.606 88.6474 80.8914 88.6474 80.0099C88.6474 79.1283 87.9328 78.4137 87.0512 78.4137C86.1697 78.4137 85.4551 79.1283 85.4551 80.0099C85.4551 80.8914 86.1697 81.606 87.0512 81.606Z" fill="url(#paint3_radial_331_7455)"/>
<path style="mix-blend-mode:color-dodge" d="M91.2346 88.1211C92.4758 88.1211 93.4819 87.115 93.4819 85.8738C93.4819 84.6326 92.4758 83.6265 91.2346 83.6265C89.9935 83.6265 88.9873 84.6326 88.9873 85.8738C88.9873 87.115 89.9935 88.1211 91.2346 88.1211Z" fill="url(#paint4_radial_331_7455)"/>
<path style="mix-blend-mode:color-dodge" d="M92.8325 65.0468C93.714 65.0468 94.4287 64.3322 94.4287 63.4507C94.4287 62.5691 93.714 61.8545 92.8325 61.8545C91.9509 61.8545 91.2363 62.5691 91.2363 63.4507C91.2363 64.3322 91.9509 65.0468 92.8325 65.0468Z" fill="url(#paint5_radial_331_7455)"/>
<path style="mix-blend-mode:color-dodge" d="M93.0473 76.1499C93.9289 76.1499 94.6435 75.4352 94.6435 74.5537C94.6435 73.6721 93.9289 72.9575 93.0473 72.9575C92.1658 72.9575 91.4512 73.6721 91.4512 74.5537C91.4512 75.4352 92.1658 76.1499 93.0473 76.1499Z" fill="url(#paint6_radial_331_7455)"/>
<path style="mix-blend-mode:color-dodge" d="M97.2307 82.6647C98.4719 82.6647 99.478 81.6585 99.478 80.4174C99.478 79.1762 98.4719 78.17 97.2307 78.17C95.9896 78.17 94.9834 79.1762 94.9834 80.4174C94.9834 81.6585 95.9896 82.6647 97.2307 82.6647Z" fill="url(#paint7_radial_331_7455)"/>
<path fill-rule="evenodd" clip-rule="evenodd" d="M46.6795 44.5415C46.6802 45.754 46.2387 46.9547 45.3803 48.075C44.5219 49.1953 43.2634 50.2133 41.6766 51.0708C40.0898 51.9282 38.2059 52.6085 36.1324 53.0725C34.059 53.5366 31.8366 53.7755 29.5922 53.7755C27.3478 53.7755 25.1254 53.5366 23.052 53.0725C20.9785 52.6085 19.0946 51.9282 17.5078 51.0708C15.921 50.2133 14.6625 49.1953 13.8041 48.075C12.9457 46.9547 12.5042 45.754 12.5049 44.5415C12.5042 43.3291 12.9457 42.1284 13.8041 41.0081C14.6625 39.8878 15.921 38.8698 17.5078 38.0123C19.0946 37.1549 20.9785 36.4746 23.052 36.0106C25.1254 35.5465 27.3478 35.3076 29.5922 35.3076C31.8366 35.3076 34.059 35.5465 36.1324 36.0106C38.2059 36.4746 40.0898 37.1549 41.6766 38.0123C43.2634 38.8698 44.5219 39.8878 45.3803 41.0081C46.2387 42.1284 46.6802 43.3291 46.6795 44.5415Z" fill="url(#paint8_radial_331_7455)"/>
<path fill-rule="evenodd" clip-rule="evenodd" d="M24.0355 49.6876H35.8199C39.1588 49.6876 42.4644 48.4633 43.6761 44.9738C44.8268 41.6602 43.8725 35.3499 36.4091 30.2433H22.4643C15.0009 34.9571 14.0682 41.4036 15.7865 45.1702C17.537 49.0075 20.5002 49.6876 24.0355 49.6876Z" fill="url(#paint9_radial_331_7455)" stroke="#404604" stroke-linecap="round" stroke-linejoin="round"/>
<path fill-rule="evenodd" clip-rule="evenodd" d="M29.6697 33.1894C29.6697 33.1894 27.2795 35.0341 27.4854 37.2564C25.2175 35.2557 25.1523 31.4218 25.1523 31.4218L29.6697 33.1894Z" fill="#9DB029"/>
<path opacity="0.21519" fill-rule="evenodd" clip-rule="evenodd" d="M24.1524 48.5052H35.6146C38.5474 48.5052 41.4511 47.4298 42.5154 44.3647C43.5261 41.454 42.4101 35.9112 35.8544 31.4257H23.05C16.4942 35.5662 15.3972 41.2287 16.9065 44.5372C18.4442 47.9079 21.047 48.5052 24.1524 48.5052Z" stroke="white" stroke-linecap="round" stroke-linejoin="round"/>
<path fill-rule="evenodd" clip-rule="evenodd" d="M30.7568 33.1894C30.7568 33.1894 33.147 35.0341 32.9411 37.2564C35.209 35.2557 35.2742 31.4218 35.2742 31.4218L30.7568 33.1894Z" fill="#9DB029"/>
<path fill-rule="evenodd" clip-rule="evenodd" d="M39.2165 28.4362C39.2169 29.7003 38.9683 30.9521 38.4848 32.12C38.0013 33.288 37.2925 34.3493 36.3988 35.2432C35.5051 36.1372 34.444 36.8464 33.2762 37.3302C32.1084 37.814 30.8567 38.0631 29.5926 38.0631C28.3286 38.0631 27.0769 37.814 25.9091 37.3302C24.7412 36.8464 23.6802 36.1372 22.7865 35.2432C21.8928 34.3493 21.184 33.288 20.7005 32.12C20.217 30.9521 19.9684 29.7003 19.9688 28.4362C19.9684 27.1721 20.217 25.9203 20.7005 24.7524C21.184 23.5844 21.8928 22.5231 22.7865 21.6292C23.6802 20.7352 24.7412 20.026 25.9091 19.5422C27.0769 19.0584 28.3286 18.8093 29.5926 18.8093C30.8567 18.8093 32.1084 19.0584 33.2762 19.5422C34.444 20.026 35.5051 20.7352 36.3988 21.6292C37.2925 22.5231 38.0013 23.5844 38.4848 24.7524C38.9683 25.9203 39.2169 27.1721 39.2165 28.4362Z" fill="url(#paint10_radial_331_7455)"/>
<path fill-rule="evenodd" clip-rule="evenodd" d="M39.3552 24.5475C39.3556 25.8116 39.1069 27.0634 38.6235 28.2313C38.14 29.3993 37.4312 30.4606 36.5375 31.3546C35.6438 32.2486 34.5827 32.9577 33.4149 33.4415C32.2471 33.9254 30.9954 34.1744 29.7313 34.1744C28.4672 34.1744 27.2155 33.9254 26.0477 33.4415C24.8799 32.9577 23.8189 32.2486 22.9252 31.3546C22.0315 30.4606 21.3226 29.3993 20.8392 28.2313C20.3557 27.0634 20.107 25.8116 20.1074 24.5475C20.107 23.2834 20.3557 22.0317 20.8392 20.8637C21.3226 19.6957 22.0315 18.6345 22.9252 17.7405C23.8189 16.8465 24.8799 16.1373 26.0477 15.6535C27.2155 15.1697 28.4672 14.9207 29.7313 14.9207C30.9954 14.9207 32.2471 15.1697 33.4149 15.6535C34.5827 16.1373 35.6438 16.8465 36.5375 17.7405C37.4312 18.6345 38.14 19.6957 38.6235 20.8637C39.1069 22.0317 39.3556 23.2834 39.3552 24.5475Z" fill="url(#paint11_radial_331_7455)" stroke="#6F4709" stroke-linecap="round" stroke-linejoin="round"/>
<path opacity="0.126582" fill-rule="evenodd" clip-rule="evenodd" d="M38.1722 24.5476C38.1725 25.6563 37.9544 26.7542 37.5304 27.7786C37.1063 28.803 36.4846 29.7339 35.7007 30.518C34.9169 31.3021 33.9862 31.9241 32.9619 32.3485C31.9377 32.7728 30.8398 32.9912 29.7311 32.9912C28.6224 32.9912 27.5245 32.7728 26.5003 32.3485C25.476 31.9241 24.5453 31.3021 23.7615 30.518C22.9776 29.7339 22.3559 28.803 21.9318 27.7786C21.5078 26.7542 21.2897 25.6563 21.29 24.5476C21.2897 23.4388 21.5078 22.3409 21.9318 21.3165C22.3559 20.2921 22.9776 19.3612 23.7615 18.5771C24.5453 17.793 25.476 17.171 26.5003 16.7467C27.5245 16.3223 28.6224 16.1039 29.7311 16.1039C30.8398 16.1039 31.9377 16.3223 32.9619 16.7467C33.9862 17.171 34.9169 17.793 35.7007 18.5771C36.4846 19.3612 37.1063 20.2921 37.5304 21.3165C37.9544 22.3409 38.1725 23.4388 38.1722 24.5476Z" stroke="white" stroke-linecap="round" stroke-linejoin="round"/>
<path fill-rule="evenodd" clip-rule="evenodd" d="M34.8379 41.2421H39.5516L36.8019 38.6888L36.2127 39.4745L35.6235 38.8853L34.8379 41.2421Z" fill="url(#paint12_linear_331_7455)"/>
<path opacity="0.227848" fill-rule="evenodd" clip-rule="evenodd" d="M19.2429 48.5384C17.8567 47.933 17.2363 46.4738 17.2363 46.4738C18.171 41.9528 21.3693 38.6451 21.3693 38.6451C21.3693 38.6451 18.8369 45.7686 19.2429 48.5384Z" fill="url(#paint13_linear_331_7455)"/>
<path opacity="0.227848" fill-rule="evenodd" clip-rule="evenodd" d="M40.2479 47.5848C41.6158 46.9393 42.2526 45.3601 42.2526 45.3601C41.187 40.8682 37.835 37.7574 37.835 37.7574C37.835 37.7574 40.5732 44.8044 40.2479 47.5848Z" fill="url(#paint14_linear_331_7455)"/>
<path fill-rule="evenodd" clip-rule="evenodd" d="M61.2615 54.9576C61.2622 55.6958 60.8207 56.4269 59.9623 57.1089C59.1039 57.791 57.8454 58.4108 56.2586 58.9328C54.6718 59.4549 52.7879 59.869 50.7145 60.1516C48.641 60.4341 46.4186 60.5796 44.1742 60.5796C41.9298 60.5796 39.7075 60.4341 37.634 60.1516C35.5605 59.869 33.6766 59.4549 32.0898 58.9328C30.5031 58.4108 29.2445 57.791 28.3861 57.1089C27.5277 56.4269 27.0862 55.6958 27.0869 54.9576C27.0862 54.2194 27.5277 53.4884 28.3861 52.8063C29.2445 52.1243 30.5031 51.5045 32.0898 50.9824C33.6766 50.4604 35.5605 50.0462 37.634 49.7637C39.7075 49.4811 41.9298 49.3357 44.1742 49.3357C46.4186 49.3357 48.641 49.4811 50.7145 49.7637C52.7879 50.0462 54.6718 50.4604 56.2586 50.9824C57.8454 51.5045 59.1039 52.1243 59.9623 52.8063C60.8207 53.4884 61.2622 54.2194 61.2615 54.9576Z" fill="url(#paint15_radial_331_7455)"/>
<path fill-rule="evenodd" clip-rule="evenodd" d="M38.6176 57.4649H50.4019C53.7408 57.4649 57.0465 56.2406 58.2581 52.7512C59.4088 49.4375 58.4545 43.1272 50.9911 38.0206H37.0463C29.5829 42.7344 28.6502 49.1809 30.3685 52.9476C32.1191 56.7849 35.0823 57.4649 38.6176 57.4649Z" fill="url(#paint16_radial_331_7455)" stroke="#204A87" stroke-linecap="round" stroke-linejoin="round"/>
<path fill-rule="evenodd" clip-rule="evenodd" d="M39.4033 39.7883C42.9386 42.9308 44.5099 54.3225 44.5099 54.3225C44.5099 54.3225 46.0811 42.9308 48.8308 39.5919L39.4033 39.7883Z" fill="url(#paint17_linear_331_7455)"/>
<path fill-rule="evenodd" clip-rule="evenodd" d="M41.9353 40.9668C41.9353 40.9668 39.5451 42.8115 39.751 45.0338C37.4831 43.033 37.418 39.1991 37.418 39.1991L41.9353 40.9668Z" fill="#729FCF"/>
<path opacity="0.21519" fill-rule="evenodd" clip-rule="evenodd" d="M38.5378 56.3072L50.1964 56.2826C53.1293 56.2826 56.0329 55.2072 57.0972 52.1421C58.1079 49.2314 56.992 43.6886 50.4362 39.203L37.6318 38.933C31.0761 43.0735 29.8072 48.736 31.3411 52.3146C32.875 55.8933 35.1133 56.2826 38.5378 56.3072Z" stroke="white" stroke-linecap="round" stroke-linejoin="round"/>
<path fill-rule="evenodd" clip-rule="evenodd" d="M46.8662 40.9668C46.8662 40.9668 49.2564 42.8115 49.0505 45.0338C51.3184 43.033 51.3835 39.1991 51.3835 39.1991L46.8662 40.9668Z" fill="#729FCF"/>
<path fill-rule="evenodd" clip-rule="evenodd" d="M53.7986 36.2135C53.7989 37.4776 53.5503 38.7294 53.0668 39.8974C52.5833 41.0653 51.8745 42.1266 50.9808 43.0206C50.0871 43.9146 49.0261 44.6237 47.8582 45.1076C46.6904 45.5914 45.4387 45.8404 44.1747 45.8404C42.9106 45.8404 41.6589 45.5914 40.4911 45.1076C39.3233 44.6237 38.2622 43.9146 37.3685 43.0206C36.4748 42.1266 35.766 41.0653 35.2825 39.8974C34.799 38.7294 34.5504 37.4776 34.5508 36.2135C34.5504 34.9495 34.799 33.6977 35.2825 32.5297C35.766 31.3618 36.4748 30.3005 37.3685 29.4065C38.2622 28.5125 39.3233 27.8034 40.4911 27.3195C41.6589 26.8357 42.9106 26.5867 44.1747 26.5867C45.4387 26.5867 46.6904 26.8357 47.8582 27.3195C49.0261 27.8034 50.0871 28.5125 50.9808 29.4065C51.8745 30.3005 52.5833 31.3618 53.0668 32.5297C53.5503 33.6977 53.7989 34.9495 53.7986 36.2135Z" fill="url(#paint18_radial_331_7455)"/>
<path fill-rule="evenodd" clip-rule="evenodd" d="M53.9372 32.3249C53.9376 33.589 53.689 34.8407 53.2055 36.0087C52.722 37.1767 52.0132 38.2379 51.1195 39.1319C50.2258 40.0259 49.1647 40.7351 47.9969 41.2189C46.8291 41.7027 45.5774 41.9517 44.3133 41.9517C43.0493 41.9517 41.7976 41.7027 40.6298 41.2189C39.4619 40.7351 38.4009 40.0259 37.5072 39.1319C36.6135 38.2379 35.9047 37.1767 35.4212 36.0087C34.9377 34.8407 34.6891 33.589 34.6895 32.3249C34.6891 31.0608 34.9377 29.809 35.4212 28.641C35.9047 27.4731 36.6135 26.4118 37.5072 25.5178C38.4009 24.6238 39.4619 23.9147 40.6298 23.4309C41.7976 22.947 43.0493 22.698 44.3133 22.698C45.5774 22.698 46.8291 22.947 47.9969 23.4309C49.1647 23.9147 50.2258 24.6238 51.1195 25.5178C52.0132 26.4118 52.722 27.4731 53.2055 28.641C53.689 29.809 53.9376 31.0608 53.9372 32.3249Z" fill="url(#paint19_radial_331_7455)" stroke="#C17D11" stroke-linecap="round" stroke-linejoin="round"/>
<path opacity="0.196203" fill-rule="evenodd" clip-rule="evenodd" d="M52.7542 32.3249C52.7545 33.4336 52.5364 34.5316 52.1124 35.556C51.6883 36.5804 51.0666 37.5112 50.2828 38.2953C49.4989 39.0794 48.5683 39.7014 47.544 40.1258C46.5197 40.5502 45.4218 40.7686 44.3131 40.7686C43.2044 40.7686 42.1066 40.5502 41.0823 40.1258C40.058 39.7014 39.1274 39.0794 38.3435 38.2953C37.5596 37.5112 36.9379 36.5804 36.5139 35.556C36.0898 34.5316 35.8717 33.4336 35.8721 32.3249C35.8717 31.2162 36.0898 30.1183 36.5139 29.0938C36.9379 28.0694 37.5596 27.1386 38.3435 26.3545C39.1274 25.5704 40.058 24.9484 41.0823 24.524C42.1066 24.0996 43.2044 23.8812 44.3131 23.8812C45.4218 23.8812 46.5197 24.0996 47.544 24.524C48.5683 24.9484 49.4989 25.5704 50.2828 26.3545C51.0666 27.1386 51.6883 28.0694 52.1124 29.0938C52.5364 30.1183 52.7545 31.2162 52.7542 32.3249Z" stroke="white" stroke-linecap="round" stroke-linejoin="round"/>
<path opacity="0.227848" fill-rule="evenodd" clip-rule="evenodd" d="M34.0241 56.5085C32.638 55.9031 32.0176 54.4439 32.0176 54.4439C32.9523 49.9229 36.1506 46.6152 36.1506 46.6152C36.1506 46.6152 33.6181 53.7387 34.0241 56.5085Z" fill="url(#paint20_linear_331_7455)"/>
<path opacity="0.227848" fill-rule="evenodd" clip-rule="evenodd" d="M55.0291 55.5549C56.3971 54.9094 57.0339 53.3302 57.0339 53.3302C55.9683 48.8383 52.6162 45.7275 52.6162 45.7275C52.6162 45.7275 55.3545 52.7745 55.0291 55.5549Z" fill="url(#paint21_linear_331_7455)"/>
</g>
<defs>
<linearGradient id="paint0_linear_331_7455" x1="66.7759" y1="75.5922" x2="51.0479" y2="45.0546" gradientUnits="userSpaceOnUse">
<stop stop-color="#1BB0D4"/>
<stop offset="0.05" stop-color="#189CBC"/>
<stop offset="0.18" stop-color="#11738B"/>
<stop offset="0.31" stop-color="#0C5060"/>
<stop offset="0.45" stop-color="#07333D"/>
<stop offset="0.58" stop-color="#041C22"/>
<stop offset="0.72" stop-color="#010C0F"/>
<stop offset="0.85" stop-color="#000303"/>
<stop offset="1"/>
</linearGradient>
<linearGradient id="paint1_linear_331_7455" x1="48.173" y1="69.4012" x2="48.173" y2="45.8125" gradientUnits="userSpaceOnUse">
<stop stop-color="#1BB0D4"/>
<stop offset="0.05" stop-color="#189CBC"/>
<stop offset="0.18" stop-color="#11738B"/>
<stop offset="0.31" stop-color="#0C5060"/>
<stop offset="0.45" stop-color="#07333D"/>
<stop offset="0.58" stop-color="#041C22"/>
<stop offset="0.72" stop-color="#010C0F"/>
<stop offset="0.85" stop-color="#000303"/>
<stop offset="1"/>
</linearGradient>
<radialGradient id="paint2_radial_331_7455" cx="0" cy="0" r="1" gradientUnits="userSpaceOnUse" gradientTransform="translate(86.8351 68.9071) rotate(135) scale(0.166963)">
<stop offset="0.07" stop-color="#FEE2A6"/>
<stop offset="0.14" stop-color="#797782"/>
<stop offset="0.19" stop-color="#1B2B69"/>
<stop offset="0.26" stop-color="#17255B"/>
<stop offset="0.49" stop-color="#0D1533"/>
<stop offset="0.69" stop-color="#060917"/>
<stop offset="0.87" stop-color="#010206"/>
<stop offset="1"/>
</radialGradient>
<radialGradient id="paint3_radial_331_7455" cx="0" cy="0" r="1" gradientUnits="userSpaceOnUse" gradientTransform="translate(87.0511 80.0121) rotate(135) scale(1.59617)">
<stop offset="0.07" stop-color="#FEE2A6"/>
<stop offset="0.14" stop-color="#797782"/>
<stop offset="0.19" stop-color="#1B2B69"/>
<stop offset="0.26" stop-color="#17255B"/>
<stop offset="0.49" stop-color="#0D1533"/>
<stop offset="0.69" stop-color="#060917"/>
<stop offset="0.87" stop-color="#010206"/>
<stop offset="1"/>
</radialGradient>
<radialGradient id="paint4_radial_331_7455" cx="0" cy="0" r="1" gradientUnits="userSpaceOnUse" gradientTransform="translate(91.2369 85.8752) rotate(135) scale(2.24733)">
<stop offset="0.07" stop-color="#FEE2A6"/>
<stop offset="0.14" stop-color="#797782"/>
<stop offset="0.19" stop-color="#1B2B69"/>
<stop offset="0.26" stop-color="#17255B"/>
<stop offset="0.49" stop-color="#0D1533"/>
<stop offset="0.69" stop-color="#060917"/>
<stop offset="0.87" stop-color="#010206"/>
<stop offset="1"/>
</radialGradient>
<radialGradient id="paint5_radial_331_7455" cx="0" cy="0" r="1" gradientUnits="userSpaceOnUse" gradientTransform="translate(92.8324 63.4507) rotate(135) scale(1.59617)">
<stop offset="0.07" stop-color="#FEE2A6"/>
<stop offset="0.14" stop-color="#797782"/>
<stop offset="0.19" stop-color="#1B2B69"/>
<stop offset="0.26" stop-color="#17255B"/>
<stop offset="0.49" stop-color="#0D1533"/>
<stop offset="0.69" stop-color="#060917"/>
<stop offset="0.87" stop-color="#010206"/>
<stop offset="1"/>
</radialGradient>
<radialGradient id="paint6_radial_331_7455" cx="0" cy="0" r="1" gradientUnits="userSpaceOnUse" gradientTransform="translate(93.0484 74.5555) rotate(135) scale(0.166963)">
<stop offset="0.07" stop-color="#FEE2A6"/>
<stop offset="0.14" stop-color="#797782"/>
<stop offset="0.19" stop-color="#1B2B69"/>
<stop offset="0.26" stop-color="#17255B"/>
<stop offset="0.49" stop-color="#0D1533"/>
<stop offset="0.69" stop-color="#060917"/>
<stop offset="0.87" stop-color="#010206"/>
<stop offset="1"/>
</radialGradient>
<radialGradient id="paint7_radial_331_7455" cx="0" cy="0" r="1" gradientUnits="userSpaceOnUse" gradientTransform="translate(97.2317 80.4207) rotate(135) scale(2.24733)">
<stop offset="0.07" stop-color="#FEE2A6"/>
<stop offset="0.14" stop-color="#797782"/>
<stop offset="0.19" stop-color="#1B2B69"/>
<stop offset="0.26" stop-color="#17255B"/>
<stop offset="0.49" stop-color="#0D1533"/>
<stop offset="0.69" stop-color="#060917"/>
<stop offset="0.87" stop-color="#010206"/>
<stop offset="1"/>
</radialGradient>
<radialGradient id="paint8_radial_331_7455" cx="0" cy="0" r="1" gradientUnits="userSpaceOnUse" gradientTransform="translate(29.5922 44.5415) scale(17.0873 9.23113)">
<stop/>
<stop offset="1" stop-opacity="0"/>
</radialGradient>
<radialGradient id="paint9_radial_331_7455" cx="0" cy="0" r="1" gradientUnits="userSpaceOnUse" gradientTransform="translate(27.7615 35.3824) scale(15.0717 10.2777)">
<stop stop-color="#727E0A"/>
<stop offset="1" stop-color="#5B6508"/>
</radialGradient>
<radialGradient id="paint10_radial_331_7455" cx="0" cy="0" r="1" gradientUnits="userSpaceOnUse" gradientTransform="translate(29.5926 28.4362) scale(9.62389 9.62395)">
<stop/>
<stop offset="1" stop-opacity="0"/>
</radialGradient>
<radialGradient id="paint11_radial_331_7455" cx="0" cy="0" r="1" gradientUnits="userSpaceOnUse" gradientTransform="translate(27.7673 22.3871) scale(8.02135 8.0214)">
<stop stop-color="#E9B15E"/>
<stop offset="1" stop-color="#966416"/>
</radialGradient>
<linearGradient id="paint12_linear_331_7455" x1="30.3206" y1="36.2634" x2="30.3206" y2="43.2074" gradientUnits="userSpaceOnUse">
<stop stop-color="white"/>
<stop offset="1" stop-color="#C9C9C9"/>
</linearGradient>
<linearGradient id="paint13_linear_331_7455" x1="17.2363" y1="43.5918" x2="19.3028" y2="44.4251" gradientUnits="userSpaceOnUse">
<stop/>
<stop offset="1" stop-opacity="0"/>
</linearGradient>
<linearGradient id="paint14_linear_331_7455" x1="40.0438" y1="43.6764" x2="41.2805" y2="42.6711" gradientUnits="userSpaceOnUse">
<stop/>
<stop offset="1" stop-opacity="0"/>
</linearGradient>
<radialGradient id="paint15_radial_331_7455" cx="0" cy="0" r="1" gradientUnits="userSpaceOnUse" gradientTransform="translate(44.1742 54.9576) scale(17.0873 5.62023)">
<stop/>
<stop offset="1" stop-opacity="0"/>
</radialGradient>
<radialGradient id="paint16_radial_331_7455" cx="0" cy="0" r="1" gradientUnits="userSpaceOnUse" gradientTransform="translate(40.9547 43.4375) scale(19.5564 13.3359)">
<stop stop-color="#3B74BC"/>
<stop offset="1" stop-color="#2D5990"/>
</radialGradient>
<linearGradient id="paint17_linear_331_7455" x1="44.1171" y1="44.0407" x2="44.1171" y2="50.9847" gradientUnits="userSpaceOnUse">
<stop stop-color="white"/>
<stop offset="1" stop-color="#C9C9C9"/>
</linearGradient>
<radialGradient id="paint18_radial_331_7455" cx="0" cy="0" r="1" gradientUnits="userSpaceOnUse" gradientTransform="translate(44.1747 36.2135) scale(9.62389 9.62395)">
<stop/>
<stop offset="1" stop-opacity="0"/>
</radialGradient>
<radialGradient id="paint19_radial_331_7455" cx="0" cy="0" r="1" gradientUnits="userSpaceOnUse" gradientTransform="translate(42.3493 30.1644) scale(8.02135 8.0214)">
<stop stop-color="#F4D9B1"/>
<stop offset="1" stop-color="#DF9725"/>
</radialGradient>
<linearGradient id="paint20_linear_331_7455" x1="32.0176" y1="51.5619" x2="34.0841" y2="52.3952" gradientUnits="userSpaceOnUse">
<stop/>
<stop offset="1" stop-opacity="0"/>
</linearGradient>
<linearGradient id="paint21_linear_331_7455" x1="54.825" y1="51.6465" x2="56.0617" y2="50.6412" gradientUnits="userSpaceOnUse">
<stop/>
<stop offset="1" stop-opacity="0"/>
</linearGradient>
<clipPath id="clip0_331_7455">
<rect width="96" height="96" fill="white"/>
</clipPath>
</defs>
</svg>
