<svg width="96" height="96" viewBox="0 0 96 96" fill="none" xmlns="http://www.w3.org/2000/svg">
<g clip-path="url(#clip0_329_6457)">
<path style="mix-blend-mode:color-dodge" d="M81.5957 64.0796C82.5401 64.0796 83.3057 63.314 83.3057 62.3696C83.3057 61.4252 82.5401 60.6596 81.5957 60.6596C80.6513 60.6596 79.8857 61.4252 79.8857 62.3696C79.8857 63.314 80.6513 64.0796 81.5957 64.0796Z" fill="url(#paint0_radial_329_6457)"/>
<path style="mix-blend-mode:color-dodge" d="M89.8496 55.5013C90.7941 55.5013 91.5596 54.7357 91.5596 53.7913C91.5596 52.8469 90.7941 52.0813 89.8496 52.0813C88.9052 52.0813 88.1396 52.8469 88.1396 53.7913C88.1396 54.7357 88.9052 55.5013 89.8496 55.5013Z" fill="url(#paint1_radial_329_6457)"/>
<path style="mix-blend-mode:color-dodge" d="M92.1865 48.5826C93.517 48.5826 94.5956 47.504 94.5956 46.1735C94.5956 44.8429 93.517 43.7643 92.1865 43.7643C90.856 43.7643 89.7773 44.8429 89.7773 46.1735C89.7773 47.504 90.856 48.5826 92.1865 48.5826Z" fill="url(#paint2_radial_329_6457)"/>
<path style="mix-blend-mode:color-dodge" d="M88.417 60.6911C89.3614 60.6911 90.127 59.9255 90.127 58.9811C90.127 58.0367 89.3614 57.2711 88.417 57.2711C87.4726 57.2711 86.707 58.0367 86.707 58.9811C86.707 59.9255 87.4726 60.6911 88.417 60.6911Z" fill="url(#paint3_radial_329_6457)"/>
<path style="mix-blend-mode:color-dodge" d="M95.6094 52.1128C96.5538 52.1128 97.3194 51.3472 97.3194 50.4028C97.3194 49.4584 96.5538 48.6928 95.6094 48.6928C94.665 48.6928 93.8994 49.4584 93.8994 50.4028C93.8994 51.3472 94.665 52.1128 95.6094 52.1128Z" fill="url(#paint4_radial_329_6457)"/>
<path style="mix-blend-mode:color-dodge" d="M97.9462 45.1941C99.2767 45.1941 100.355 44.1155 100.355 42.785C100.355 41.4544 99.2767 40.3759 97.9462 40.3759C96.6157 40.3759 95.5371 41.4544 95.5371 42.785C95.5371 44.1155 96.6157 45.1941 97.9462 45.1941Z" fill="url(#paint5_radial_329_6457)"/>
<path style="mix-blend-mode:color-dodge" d="M3.71 33.3626C4.65441 33.3626 5.42 32.597 5.42 31.6526C5.42 30.7082 4.65441 29.9426 3.71 29.9426C2.76559 29.9426 2 30.7082 2 31.6526C2 32.597 2.76559 33.3626 3.71 33.3626Z" fill="url(#paint6_radial_329_6457)"/>
<path style="mix-blend-mode:color-dodge" d="M11.9639 24.7811C12.9083 24.7811 13.6739 24.0155 13.6739 23.0711C13.6739 22.1267 12.9083 21.3611 11.9639 21.3611C11.0195 21.3611 10.2539 22.1267 10.2539 23.0711C10.2539 24.0155 11.0195 24.7811 11.9639 24.7811Z" fill="url(#paint7_radial_329_6457)"/>
<path style="mix-blend-mode:color-dodge" d="M43.544 3.00148C44.4884 3.00148 45.254 2.23589 45.254 1.29148C45.254 0.347077 44.4884 -0.418518 43.544 -0.418518C42.5996 -0.418518 41.834 0.347077 41.834 1.29148C41.834 2.23589 42.5996 3.00148 43.544 3.00148Z" fill="url(#paint8_radial_329_6457)"/>
<path style="mix-blend-mode:color-dodge" d="M44.8164 11.3184C46.1469 11.3184 47.2255 10.2398 47.2255 8.9093C47.2255 7.57878 46.1469 6.50018 44.8164 6.50018C43.4858 6.50018 42.4072 7.57878 42.4072 8.9093C42.4072 10.2398 43.4858 11.3184 44.8164 11.3184Z" fill="url(#paint9_radial_329_6457)"/>
<path style="mix-blend-mode:color-dodge" d="M49.3037 6.38997C50.2482 6.38997 51.0137 5.62438 51.0137 4.67997C51.0137 3.73557 50.2482 2.96997 49.3037 2.96997C48.3593 2.96997 47.5938 3.73557 47.5938 4.67997C47.5938 5.62438 48.3593 6.38997 49.3037 6.38997Z" fill="url(#paint10_radial_329_6457)"/>
<path style="mix-blend-mode:color-dodge" d="M50.5732 14.707C51.9037 14.707 52.9823 13.6284 52.9823 12.2979C52.9823 10.9673 51.9037 9.88873 50.5732 9.88873C49.2427 9.88873 48.1641 10.9673 48.1641 12.2979C48.1641 13.6284 49.2427 14.707 50.5732 14.707Z" fill="url(#paint11_radial_329_6457)"/>
<path opacity="0.5" d="M77.6811 42.3504L73.2754 39.8058L77.6811 37.2645L82.0868 39.8058L77.6811 42.3504Z" fill="black"/>
<path d="M82.0864 36.578L77.6807 39.1225V34.0334L82.0864 31.4889V36.578Z" fill="#D3008D"/>
<path d="M77.6811 34.0334L73.2754 31.4889L77.6811 28.9443L82.0868 31.4889L77.6811 34.0334Z" fill="#FF2C9C"/>
<path d="M77.6811 39.1225L73.2754 36.578V31.4889L77.6811 34.0334V39.1225Z" fill="#FF2C9C"/>
<path d="M76.0936 36.3732L74.8623 35.6615V34.2381L76.0936 34.9498V36.3732Z" fill="white"/>
<path opacity="0.5" d="M16.2876 54.4274L11.6992 51.779L16.2876 49.1274L20.8759 51.779L16.2876 54.4274Z" fill="black"/>
<path d="M20.8764 48.4157L16.2881 51.0642V45.7641L20.8764 43.1157V48.4157Z" fill="#532880"/>
<path d="M16.2876 45.7641L11.6992 43.1156L16.2876 40.4672L20.8759 43.1156L16.2876 45.7641Z" fill="#F2E0DC"/>
<path d="M16.2876 51.0642L11.6992 48.4157V43.1157L16.2876 45.7641V51.0642Z" fill="#838CBE"/>
<path d="M14.6374 48.2015L13.3525 47.4615V45.9782L14.6374 46.7183V48.2015Z" fill="white"/>
<path opacity="0.5" d="M32.1003 43.1566C29.8676 44.3312 26.2491 44.3312 24.0164 43.1566C21.7836 41.982 21.7836 40.0736 24.0164 38.8989C26.2491 37.7243 29.8676 37.7243 32.1003 38.8989C34.3331 40.0736 34.3331 41.982 32.1003 43.1566Z" fill="black"/>
<path d="M34.5604 38.4517V36.7858H34.2171C33.9085 36.3008 33.392 35.841 32.6582 35.4537C30.12 34.1153 26.0009 34.1153 23.4627 35.4537C22.7289 35.841 22.2124 36.2977 21.9038 36.7858H21.5606V38.4422C21.5574 39.3209 22.1904 40.2026 23.4658 40.8734C26.004 42.2118 30.1232 42.2118 32.6614 40.8734C33.9305 40.2058 34.5666 39.3272 34.5666 38.4517H34.5604Z" fill="#FF2C9C"/>
<path d="M32.6578 39.2075C30.1196 40.5459 26.0005 40.5459 23.4623 39.2075C20.924 37.8691 20.924 35.7025 23.4623 34.3641C26.0005 33.0257 30.1196 33.0257 32.6578 34.3641C35.1961 35.7025 35.1961 37.8691 32.6578 39.2075Z" fill="#FF2C9C"/>
<path d="M32.658 39.2075C30.1198 40.5459 26.0007 40.5459 23.4624 39.2075C22.2469 38.5651 21.617 37.7337 21.5666 36.896C21.5131 37.8093 22.1398 38.7288 23.4624 39.4279C26.0007 40.7663 30.1198 40.7663 32.658 39.4279C33.9807 38.732 34.6074 37.8093 34.5538 36.896C34.5034 37.7368 33.8767 38.5682 32.658 39.2075Z" fill="white"/>
<path d="M24.923 37.9195C24.8128 37.8628 24.7529 37.7841 24.7529 37.7022L24.7592 35.4694C24.7592 35.2994 25.0206 35.1608 25.345 35.1608C25.6693 35.1608 25.9307 35.2994 25.9307 35.4694L25.9244 37.3212L31.8102 36.663C32.1251 36.6283 32.4369 36.7354 32.503 36.8992C32.5692 37.0661 32.3676 37.2298 32.0527 37.2645L25.4583 38.0014C25.2851 38.0203 25.1056 37.9982 24.9671 37.9384C24.9513 37.9321 24.9356 37.9258 24.923 37.9164V37.9195Z" fill="white"/>
<path opacity="0.5" d="M81.2552 54.2605L59.3401 41.5693C58.1497 40.8796 56.0681 40.9647 54.6919 41.7551L8.69823 68.2239C7.32204 69.0175 7.17088 70.2173 8.36127 70.907L30.2764 83.5981C31.4668 84.2878 33.5484 84.2028 34.9245 83.4123L80.9182 56.9436C82.2944 56.15 82.4456 54.9501 81.2552 54.2605Z" fill="black"/>
<path d="M29.6365 78.8995L6.83018 65.6919C6.08068 65.2573 5.73111 64.6716 5.7563 64.0638H5.75L5.75946 60.7572L7.02858 62.2436C7.11046 62.19 7.19234 62.1365 7.28367 62.083L53.9418 35.23C55.7935 34.1624 58.5932 34.0522 60.1961 34.9781L82.6843 47.9999C83.1378 47.5023 84.0952 46.4505 84.0952 46.4505L84.0857 49.6878C84.1204 50.4185 83.6007 51.1931 82.5552 51.7978L35.8971 78.6507C34.0453 79.7183 31.2457 79.8285 29.6428 78.9027L29.6365 78.8995Z" fill="#838CBE"/>
<path d="M17.3022 70.7968L18.6154 71.5557C18.7886 71.6565 18.9303 71.5495 18.9303 71.3164C18.9303 71.0834 18.7886 70.8125 18.6154 70.7118L17.3022 69.9528C17.129 69.852 16.9873 69.9591 16.9873 70.1922C16.9873 70.4252 17.129 70.696 17.3022 70.7968Z" fill="#532880"/>
<path d="M53.9396 35.23C55.7913 34.1624 58.5909 34.0522 60.1938 34.9781L82.6821 47.9999C83.1356 47.5023 84.0929 46.4505 84.0929 46.4505L84.0835 49.6878C84.1181 50.4185 83.5985 51.1931 82.5529 51.7978L35.8948 78.6507C34.928 79.2081 33.7061 79.501 32.5283 79.5262L32.5724 47.5338L53.9459 35.2331L53.9396 35.23Z" fill="#666982"/>
<path d="M83.0125 44.8602L60.2062 31.6526C58.6032 30.7236 55.8036 30.837 53.9519 31.9046L7.29374 58.7575C5.44202 59.8251 5.23733 61.4406 6.84025 62.3665L29.6466 75.5741C31.2495 76.5031 34.0491 76.3897 35.9008 75.3222L82.559 48.4692C84.4107 47.4016 84.6154 45.7861 83.0125 44.8602Z" fill="#F2E0DC"/>
<path d="M29.6275 75.9237L6.82115 62.716C5.99606 62.2374 5.65281 61.576 5.76618 60.9021C5.80712 61.4501 6.15667 61.9697 6.84004 62.3633L29.6464 75.5709C31.2493 76.4999 34.0489 76.3866 35.9006 75.319L82.5588 48.4661C83.4563 47.9496 83.9633 47.304 84.0672 46.671C84.1208 47.4111 83.6043 48.2078 82.5399 48.8188L35.8817 75.6717C34.03 76.7393 31.2304 76.8495 29.6275 75.9237Z" fill="white"/>
<path d="M81.2552 45.3799L59.3401 32.6887C58.1497 31.999 56.0681 32.0841 54.6919 32.8745L8.69823 59.3433C7.32204 60.1369 7.17088 61.3367 8.36127 62.0264L30.2764 74.7175C31.4668 75.4072 33.5484 75.3222 34.9245 74.5317L80.9182 48.063C82.2944 47.2694 82.4456 46.0695 81.2552 45.3799Z" fill="#532880"/>
<path d="M35.7937 68.1263L20.3281 59.1984L21.317 58.6284L36.7826 67.5563L35.7937 68.1263Z" fill="#F2E0DC"/>
<path d="M25.0329 65.5251L17.2041 61.0029L18.1898 60.4329L26.0218 64.9551L25.0329 65.5251Z" fill="#F2E0DC"/>
<path d="M28.8341 67.7201L26.2959 66.2526L27.2816 65.6826L29.823 67.1501L28.8341 67.7201Z" fill="#F2CA7E"/>
<path d="M32.6693 69.9308L30.1279 68.4664L31.1168 67.8964L33.655 69.3639L32.6693 69.9308Z" fill="white"/>
<path d="M25.1207 63.771L18.7656 60.1022L19.7545 59.5322L26.1095 63.201L25.1207 63.771Z" fill="white"/>
<path d="M32.8804 68.2491L26.5254 64.5803L27.5111 64.0103L33.8661 67.6791L32.8804 68.2491Z" fill="#F2E0DC"/>
<path d="M28.1753 60.4045C27.8573 60.5871 27.3408 60.5871 27.0227 60.4045C26.7047 60.2218 26.7047 59.9227 27.0227 59.74C27.3408 59.5574 27.8573 59.5574 28.1753 59.74C28.4934 59.9227 28.4934 60.2218 28.1753 60.4045Z" fill="#F2CA7E"/>
<path d="M29.8951 61.3997C29.577 61.5823 29.0605 61.5823 28.7425 61.3997C28.4244 61.217 28.4244 60.9178 28.7425 60.7352C29.0605 60.5525 29.577 60.5525 29.8951 60.7352C30.2131 60.9178 30.2131 61.217 29.8951 61.3997Z" fill="white"/>
<path d="M31.6138 62.3916C31.2957 62.5743 30.7793 62.5743 30.4612 62.3916C30.1431 62.209 30.1431 61.9098 30.4612 61.7271C30.7793 61.5445 31.2957 61.5445 31.6138 61.7271C31.9319 61.9098 31.9319 62.209 31.6138 62.3916Z" fill="#F2E0DC"/>
<path d="M33.3365 63.3867C33.0184 63.5694 32.5019 63.5694 32.1839 63.3867C31.8658 63.2041 31.8658 62.9049 32.1839 62.7223C32.5019 62.5396 33.0184 62.5396 33.3365 62.7223C33.6545 62.9049 33.6545 63.2041 33.3365 63.3867Z" fill="#F2CA7E"/>
<path d="M35.0562 64.3787C34.7381 64.5614 34.2217 64.5614 33.9036 64.3787C33.5855 64.1961 33.5855 63.8969 33.9036 63.7143C34.2217 63.5316 34.7381 63.5316 35.0562 63.7143C35.3743 63.8969 35.3743 64.1961 35.0562 64.3787Z" fill="white"/>
<path d="M69.6432 45.4774L67.042 43.9753L68.0529 43.3895L70.6573 44.8917L69.6432 45.4774Z" fill="#F2CA7E"/>
<path d="M73.2714 47.5716L70.667 46.0663L71.6779 45.4837L74.2823 46.9859L73.2714 47.5716Z" fill="white"/>
<path d="M58.0136 38.7004L55.4092 37.1951L56.4232 36.6125L59.0276 38.1146L58.0136 38.7004Z" fill="white"/>
<path d="M69.0642 46.9922L65.4395 44.898L66.4503 44.3154L70.075 46.4096L69.0642 46.9922Z" fill="white"/>
<path d="M71.6685 48.4943L70.0781 47.5779L71.089 46.9921L72.6793 47.9117L71.6685 48.4943Z" fill="#F2E0DC"/>
<path opacity="0.5" d="M55.3124 58.7985C51.1649 61.1919 44.4414 61.1919 40.2971 58.7985C36.1497 56.4051 36.1497 52.5222 40.2971 50.1288C44.4446 47.7355 51.1681 47.7355 55.3124 50.1288C59.4598 52.5222 59.4598 56.4051 55.3124 58.7985Z" fill="black"/>
<path opacity="0.5" d="M53.9489 31.9014L46.3594 36.2693L55.7723 41.7048L66.6842 35.4033L60.2032 31.6495C58.6002 30.7204 55.8006 30.8338 53.9489 31.9014Z" fill="black"/>
<path d="M68.5426 28.346L66.6783 27.269L73.5529 23.2979C73.8773 23.1089 73.8773 22.8066 73.5529 22.6176L66.5271 18.5615C66.2028 18.3726 65.6737 18.3726 65.3493 18.5615L58.4747 22.5326L56.6104 21.4556L63.485 17.4845C64.8391 16.7035 67.0404 16.7035 68.3914 17.4845L75.4172 21.5406C76.7714 22.3216 76.7714 23.5939 75.4172 24.3749L68.5426 28.346Z" fill="#532880"/>
<path d="M71.5498 28.8215C71.5498 27.8232 70.9451 26.6675 70.1956 26.236L57.7375 19.0433C57.4037 18.8512 57.0982 18.8355 56.8589 18.9677L41.9854 27.6122L56.3708 38.4516L71.0239 29.9457C71.068 29.9237 71.1121 29.9017 71.153 29.8702C71.3986 29.6844 71.5498 29.3222 71.5498 28.8246V28.8215Z" fill="#F2E0DC"/>
<path d="M56.3712 38.4485L71.0243 29.9426C71.0684 29.9206 71.1125 29.8985 71.1534 29.867C71.399 29.6812 71.5502 29.3191 71.5502 28.8215C71.5502 28.3239 71.4116 27.8327 71.1849 27.3823L54.4785 37.0282L56.368 38.4517L56.3712 38.4485Z" fill="#666982"/>
<path d="M55.4353 38.4107L42.9772 31.218C42.2308 30.7866 41.623 29.6277 41.623 28.6326C41.623 27.6343 42.2277 27.1777 42.9772 27.6091L55.4353 34.8018C56.1817 35.2332 56.7895 36.3921 56.7895 37.3873C56.7895 38.3855 56.1848 38.8422 55.4353 38.4107Z" fill="#532880"/>
<path d="M55.583 34.7325L43.1248 27.5398C42.7816 27.3414 42.4667 27.3319 42.2305 27.4768C42.4446 27.4106 42.6997 27.4484 42.9768 27.609L55.435 34.8018C56.1813 35.2332 56.7891 36.3921 56.7891 37.3872C56.7891 37.9257 56.6128 38.3068 56.3293 38.4737C56.6946 38.3635 56.9371 37.9478 56.9371 37.3179C56.9371 36.3196 56.3325 35.1639 55.583 34.7293V34.7325Z" fill="white"/>
<path d="M53.5677 35.9859L52.0687 35.123C51.9207 35.038 51.7979 34.8049 51.7979 34.6065C51.7979 34.4081 51.9175 34.3168 52.0687 34.4018L53.5677 35.2647C53.7157 35.3497 53.8385 35.5828 53.8385 35.7812C53.8385 35.9796 53.7188 36.0709 53.5677 35.9859Z" fill="#F2CA7E"/>
<path d="M55.2555 25.7574C55.7059 25.4897 55.7027 25.0646 55.2461 24.8063C54.7895 24.5481 54.0526 24.5575 53.5991 24.8221C53.1487 25.0897 53.1519 25.5149 53.6085 25.7731C54.0652 26.0313 54.8021 26.0219 55.2555 25.7574Z" fill="#838CBE"/>
<path d="M57.7655 27.1714C58.2159 26.9037 58.2127 26.4785 57.7561 26.2203C57.2994 25.9621 56.5625 25.9715 56.1091 26.2361C55.6556 26.5006 55.6619 26.9289 56.1185 27.1871C56.5751 27.4453 57.312 27.4359 57.7655 27.1714Z" fill="white"/>
<path d="M60.276 28.5854C60.7264 28.3177 60.7232 27.8926 60.2666 27.6343C59.81 27.3761 59.0731 27.3855 58.6196 27.6501C58.1692 27.9177 58.1724 28.3429 58.629 28.6011C59.0857 28.8593 59.8226 28.8499 60.276 28.5854Z" fill="white"/>
<path opacity="0.5" d="M53.0038 86.7946L44.4223 81.8409C43.8964 81.5355 43.9625 81.0064 44.5703 80.6537L52.8558 75.8701C53.4636 75.5206 54.3831 75.4796 54.9091 75.7851L63.4906 80.7387C64.0165 81.0442 63.9503 81.5733 63.3425 81.926L55.0571 86.7096C54.4493 87.0591 53.5297 87.1001 53.0038 86.7946Z" fill="black"/>
<path d="M63.8434 78.3454V75.3852H57.205L54.9092 74.0562C54.3833 73.7507 53.4637 73.7917 52.8559 74.1412L50.7145 75.3789H44.0698V78.421C44.054 78.6257 44.1705 78.8241 44.4225 78.9721L53.004 83.9257C53.5299 84.2312 54.4494 84.1902 55.0572 83.8407L63.3427 79.0571C63.6923 78.8556 63.8623 78.591 63.8434 78.3485V78.3454Z" fill="#666982"/>
<path d="M53.9582 73.8515C53.574 73.8609 53.174 73.9586 52.8559 74.1412L50.7145 75.3789H44.0698V78.4209C44.054 78.6256 44.1705 78.824 44.4225 78.9721L53.004 83.9257C53.2559 84.0706 53.6023 84.1367 53.9582 84.1304V73.8547V73.8515Z" fill="#666982"/>
<path d="M44.8224 75.3757H44.0698V78.421C44.054 78.6257 44.1705 78.8241 44.4225 78.9721L44.8224 79.202V75.3757Z" fill="#838CBE"/>
<path d="M53.1367 83.9886C53.5902 84.1839 54.2484 84.1713 54.7806 83.9698V80.512H53.1367V83.9886Z" fill="#838CBE"/>
<path d="M53.0038 80.8899L44.4223 75.9363C43.8964 75.6308 43.9625 75.1018 44.5703 74.7491L52.8558 69.9655C53.4636 69.6159 54.3831 69.575 54.9091 69.8804L63.4906 74.8341C64.0165 75.1395 63.9503 75.6686 63.3425 76.0213L55.0571 80.8049C54.4493 81.1545 53.5297 81.1954 53.0038 80.8899Z" fill="#F2E0DC"/>
<path d="M63.3428 75.4387L55.0573 80.2223C54.4495 80.5718 53.53 80.6128 53.004 80.3073L44.4225 75.3537C44.306 75.2844 44.2178 75.2056 44.1612 75.1206C43.9817 75.4103 44.0635 75.7284 44.4225 75.9362L53.004 80.8899C53.53 81.1954 54.4495 81.1544 55.0573 80.8049L63.3428 76.0213C63.8152 75.7473 63.96 75.3662 63.7522 75.0671C63.6703 75.1993 63.5317 75.3285 63.3428 75.4387Z" fill="white"/>
<path d="M60.6879 79.1264C60.6879 79.3469 60.5336 79.6177 60.3415 79.7279C60.1494 79.8381 59.9951 79.75 59.9951 79.5264C59.9951 79.3028 60.1494 79.0351 60.3415 78.9249C60.5336 78.8147 60.6879 78.9028 60.6879 79.1264Z" fill="#F2E0DC"/>
<path d="M61.8032 78.484C61.8032 78.7044 61.6489 78.9752 61.4568 79.0855C61.2647 79.1957 61.1104 79.1075 61.1104 78.8839C61.1104 78.6603 61.2647 78.3926 61.4568 78.2824C61.6489 78.1722 61.8032 78.2604 61.8032 78.484Z" fill="#F2E0DC"/>
<path d="M62.9174 77.8384C62.9174 78.0588 62.7631 78.3297 62.571 78.4399C62.3789 78.5501 62.2246 78.4619 62.2246 78.2383C62.2246 78.0147 62.3789 77.7471 62.571 77.6369C62.7631 77.5266 62.9174 77.6148 62.9174 77.8384Z" fill="#F2E0DC"/>
<path d="M53.5108 77.8194L49.4956 75.5016C49.25 75.3599 49.2815 75.1111 49.5649 74.9474L53.4415 72.7083C53.725 72.5446 54.1564 72.5257 54.4021 72.6674L58.4173 74.9852C58.6629 75.1269 58.6314 75.3757 58.348 75.5394L54.4713 77.7785C54.1879 77.9422 53.7565 77.9611 53.5108 77.8194Z" fill="#838CBE"/>
<path d="M53.8954 75.8764L53.3411 75.5552C53.3065 75.5363 53.3128 75.5017 53.3506 75.4796L53.8859 75.171C53.9237 75.1489 53.9835 75.1458 54.0182 75.1647L54.5724 75.4859C54.6071 75.5048 54.6008 75.5394 54.563 75.5615L54.0276 75.8701C53.9867 75.8921 53.93 75.8953 53.8954 75.8764Z" fill="#F2E0DC"/>
<path d="M49.4956 75.4985L49.5082 75.5048C49.5271 75.4922 49.5429 75.4765 49.5649 75.4639L53.4415 73.2248C53.725 73.0611 54.1564 73.0422 54.4021 73.1839L58.4046 75.4954C58.6314 75.3316 58.644 75.1112 58.4173 74.9789L54.4021 72.6611C54.1564 72.5194 53.725 72.5352 53.4415 72.7021L49.5649 74.9411C49.2815 75.1049 49.25 75.3537 49.4956 75.4954V75.4985Z" fill="#666982"/>
<path d="M58.1339 53.4071L57.9733 51.02L56.3861 51.1271C54.4651 50.0343 51.1616 49.521 47.4487 49.7698C43.7358 50.0186 40.53 50.9696 38.7727 52.308L37.1855 52.4151L37.3462 54.8022C37.5194 57.3876 42.3124 59.1732 48.0534 58.789C53.7943 58.4048 58.3071 55.9957 58.1339 53.4102V53.4071Z" fill="#C97710"/>
<path d="M47.9018 56.5626C53.6423 56.1783 58.1561 53.7776 57.9836 51.2006C57.8111 48.6236 53.0176 46.8461 47.277 47.2304C41.5365 47.6147 37.0227 50.0153 37.1952 52.5923C37.3677 55.1693 42.1612 56.9469 47.9018 56.5626Z" fill="#FFDD00"/>
<path d="M47.8884 56.3554C53.445 55.9834 57.8142 53.6603 57.6472 51.1666C57.4803 48.6729 52.8404 46.9529 47.2838 47.3249C41.7272 47.6969 37.358 50.02 37.5249 52.5137C37.6919 55.0074 42.3317 56.7274 47.8884 56.3554Z" fill="#F0AA00"/>
<path d="M47.8397 55.6241C43.1758 55.9359 39.2834 54.4936 39.1417 52.3994C39 50.3052 42.6687 48.3558 47.3295 48.0441C51.9934 47.7323 55.8858 49.1746 56.0275 51.2688C56.1693 53.363 52.5005 55.3124 47.8397 55.6241Z" fill="#FFDD00"/>
<path d="M47.8302 55.473C43.3489 55.7721 39.6109 54.3865 39.4755 52.3742C39.34 50.3619 42.864 48.4913 47.3421 48.1889C51.8234 47.8898 55.5614 49.2754 55.6969 51.2877C55.8323 53.3 52.3084 55.1706 47.8302 55.473Z" fill="#F0AA00"/>
<path d="M47.8302 55.473C43.3489 55.7721 39.6109 54.3865 39.4755 52.3742C39.34 50.3619 42.864 48.4913 47.3421 48.1889C51.8234 47.8898 55.5614 49.2754 55.6969 51.2877C55.8323 53.3 52.3084 55.1706 47.8302 55.473Z" fill="#F0AA00"/>
<path d="M47.817 55.2871C43.5656 55.5706 40.0165 54.2574 39.8874 52.349C39.7583 50.4406 43.1027 48.6644 47.3541 48.3779C51.6055 48.0944 55.1546 49.4108 55.2837 51.3192C55.4128 53.2276 52.0684 55.0037 47.817 55.2903V55.2871Z" stroke="#D88508" stroke-width="0.35" stroke-miterlimit="10"/>
<path d="M52.3297 53.0135L52.2541 51.8829C51.8762 52.1065 51.3251 52.2829 50.5473 52.3711L50.5977 53.1111L49.7474 53.1583L49.697 52.4309C47.9587 52.4655 46.8155 51.9931 46.6895 51.1555C45.348 51.7538 43.6537 52.4088 41.9406 53.0387L41.8965 52.4277C43.4585 51.8357 44.9039 51.272 46.5604 50.5414L47.6154 50.4658L47.6406 50.8311C47.691 51.546 48.4814 51.8861 49.6592 51.8577L49.5521 50.3241L50.4024 50.2611L50.5063 51.7853C51.4857 51.6278 51.9549 51.231 51.914 50.6359L51.8825 50.1509L52.9879 50.0659L53.1831 52.9694L52.3329 53.0166L52.3297 53.0135Z" fill="#D88508"/>
<path d="M52.5406 52.9064L52.4651 51.7727C52.0872 51.9963 51.5361 52.1758 50.7582 52.2639L50.8086 53.004L49.9583 53.0512L49.9079 52.3238C48.1696 52.3584 47.0264 51.8892 46.9005 51.0484C45.5589 51.6498 43.8647 52.3049 42.1515 52.9379L42.1074 52.3269C43.6694 51.7349 45.1149 51.168 46.7713 50.4343L47.8263 50.3587L47.8515 50.724C47.9019 51.442 48.6924 51.779 49.8701 51.7506L49.7631 50.2138L50.6133 50.1508L50.7173 51.675C51.6967 51.5144 52.1659 51.1176 52.1249 50.5225L52.0935 50.0375L53.1988 49.9525L53.3941 52.8591L52.5438 52.9064H52.5406Z" fill="#FFDD00"/>
<path d="M56.8857 51.442C56.6684 51.4577 56.4889 51.3885 56.4826 51.294C56.4763 51.1964 56.6464 51.105 56.8636 51.0924C57.0809 51.0767 57.2604 51.146 57.2667 51.2405C57.273 51.3381 57.103 51.4294 56.8857 51.442Z" fill="#FFDD00"/>
<path d="M38.3408 52.6828C38.1235 52.6985 37.944 52.6292 37.9377 52.5348C37.9314 52.4371 38.1014 52.3458 38.3187 52.3332C38.536 52.3175 38.7155 52.3868 38.7218 52.4812C38.7281 52.5789 38.5581 52.6702 38.3408 52.6828Z" fill="#FFDD00"/>
<path d="M56.6718 52.2986C56.4577 52.2923 56.316 52.2105 56.3538 52.1128C56.3915 52.0152 56.5931 51.9396 56.8072 51.9459C57.0214 51.9522 57.1631 52.0341 57.1253 52.1317C57.0875 52.2293 56.886 52.3049 56.6718 52.2986Z" fill="#FFDD00"/>
<path d="M38.3945 51.8294C38.1803 51.8231 38.0386 51.7412 38.0764 51.6436C38.1142 51.546 38.3157 51.4704 38.5299 51.4767C38.744 51.483 38.8858 51.5649 38.848 51.6625C38.8102 51.7601 38.6086 51.8357 38.3945 51.8294Z" fill="#FFDD00"/>
<path d="M56.1185 53.0985C55.917 53.0733 55.8162 52.9788 55.895 52.8812C55.9737 52.7867 56.2004 52.73 56.402 52.7521C56.6035 52.7741 56.7043 52.8717 56.6256 52.9694C56.5468 53.067 56.3201 53.1205 56.1185 53.0985Z" fill="#FFDD00"/>
<path d="M38.8012 51.02C38.5996 50.9948 38.4988 50.9004 38.5776 50.8027C38.6563 50.7051 38.883 50.6516 39.0846 50.6736C39.2861 50.6957 39.3869 50.7933 39.3082 50.8909C39.2295 50.9854 39.0027 51.0421 38.8012 51.02Z" fill="#FFDD00"/>
<path d="M55.2655 53.8417C55.0828 53.8007 55.0261 53.6937 55.1395 53.6055C55.2529 53.5173 55.4954 53.4795 55.678 53.5205C55.8607 53.5614 55.9173 53.6685 55.804 53.7567C55.6906 53.8448 55.4481 53.8826 55.2655 53.8417Z" fill="#FFDD00"/>
<path d="M39.5262 50.2548C39.3435 50.2138 39.2869 50.1068 39.4002 50.0186C39.5136 49.9304 39.7561 49.8926 39.9387 49.9336C40.1214 49.9745 40.1781 50.0816 40.0647 50.1697C39.9513 50.2579 39.7088 50.2957 39.5262 50.2548Z" fill="#FFDD00"/>
<path d="M52.7109 55.051C52.5849 54.9786 52.6227 54.8652 52.7991 54.7991C52.9754 54.7329 53.2179 54.7361 53.347 54.8085C53.473 54.8809 53.4352 54.9943 53.2588 55.0604C53.0825 55.1266 52.84 55.1234 52.7109 55.051Z" fill="#FFDD00"/>
<path d="M41.8496 48.8534C41.7236 48.781 41.7614 48.6676 41.9377 48.6015C42.1141 48.5354 42.3566 48.5385 42.4857 48.6109C42.6117 48.6834 42.5739 48.7967 42.3975 48.8629C42.2212 48.929 41.9787 48.9258 41.8496 48.8534Z" fill="#FFDD00"/>
<path d="M51.126 55.5139C51.0347 55.4289 51.1228 55.3218 51.3181 55.2683C51.5133 55.2179 51.7464 55.2431 51.8377 55.3281C51.929 55.4132 51.8409 55.5202 51.6456 55.5738C51.4504 55.6242 51.2173 55.599 51.126 55.5139Z" fill="#FFDD00"/>
<path d="M43.3574 48.337C43.2661 48.252 43.3543 48.1449 43.5495 48.0914C43.7448 48.041 43.9778 48.0662 44.0691 48.1512C44.1605 48.2362 44.0723 48.3433 43.877 48.3968C43.6818 48.4472 43.4488 48.422 43.3574 48.337Z" fill="#FFDD00"/>
<path d="M49.433 55.8351C49.3826 55.7438 49.5085 55.6398 49.7195 55.6052C49.9305 55.5705 50.1415 55.6178 50.1919 55.7091C50.2423 55.8004 50.1163 55.9044 49.9053 55.939C49.6943 55.9736 49.4833 55.9264 49.433 55.8351Z" fill="#FFDD00"/>
<path d="M45.0052 47.9528C44.9548 47.8614 45.0808 47.7575 45.2918 47.7229C45.5028 47.6882 45.7138 47.7355 45.7642 47.8268C45.8146 47.9181 45.6886 48.022 45.4776 48.0567C45.2666 48.0913 45.0556 48.0441 45.0052 47.9528Z" fill="#FFDD00"/>
<path d="M45.8402 56.0335C45.8717 55.9359 46.07 55.8572 46.2842 55.8603C46.4983 55.8603 46.6463 55.9454 46.6148 56.043C46.5834 56.1406 46.385 56.2193 46.1708 56.2162C45.9567 56.213 45.8087 56.1312 45.8402 56.0335Z" fill="#FFDD00"/>
<path d="M48.5833 47.6189C48.6148 47.5213 48.8132 47.4426 49.0274 47.4457C49.2415 47.4489 49.3895 47.5307 49.358 47.6284C49.3265 47.726 49.1281 47.8047 48.914 47.8016C48.6999 47.7984 48.5518 47.7165 48.5833 47.6189Z" fill="#FFDD00"/>
<path d="M44.1207 55.8981C44.1931 55.8037 44.4167 55.7438 44.6214 55.7659C44.8261 55.7879 44.93 55.8824 44.8576 55.9769C44.7852 56.0713 44.5616 56.1312 44.3569 56.1091C44.1522 56.0871 44.0482 55.9926 44.1207 55.8981Z" fill="#FFDD00"/>
<path d="M50.3375 47.6882C50.4099 47.5938 50.6335 47.5339 50.8382 47.556C51.0429 47.578 51.1468 47.6725 51.0744 47.767C51.002 47.8614 50.7784 47.9213 50.5737 47.8992C50.369 47.8772 50.265 47.7827 50.3375 47.6882Z" fill="#FFDD00"/>
<path d="M42.5514 55.6115C42.6616 55.5202 42.901 55.4824 43.0868 55.5202C43.2726 55.558 43.3356 55.6651 43.2253 55.7532C43.1151 55.8414 42.8758 55.8824 42.69 55.8446C42.5042 55.8036 42.4412 55.6997 42.5514 55.6115Z" fill="#FFDD00"/>
<path d="M51.9704 47.9087C52.0806 47.8173 52.3199 47.7795 52.5057 47.8173C52.6915 47.8583 52.7545 47.9622 52.6443 48.0504C52.5341 48.1385 52.2947 48.1795 52.1089 48.1417C51.9231 48.1008 51.8601 47.9968 51.9704 47.9087Z" fill="#FFDD00"/>
<path d="M39.8684 54.6164C40.0447 54.5502 40.2872 54.5534 40.4163 54.6258C40.5423 54.6983 40.5045 54.8116 40.3313 54.8778C40.155 54.9439 39.9125 54.9407 39.7834 54.8683C39.6574 54.7959 39.6952 54.6825 39.8684 54.6164Z" fill="#FFDD00"/>
<path d="M54.8742 48.8975C55.0506 48.8314 55.2931 48.8345 55.4222 48.907C55.5482 48.9794 55.5104 49.0927 55.3372 49.1589C55.1608 49.225 54.9183 49.2219 54.7892 49.1494C54.6632 49.077 54.701 48.9636 54.8742 48.8975Z" fill="#FFDD00"/>
<path d="M39.0255 53.9487C39.2207 53.8983 39.4538 53.9235 39.5451 54.0054C39.6364 54.0873 39.5514 54.1975 39.3561 54.251C39.1609 54.3014 38.9278 54.2762 38.8365 54.1944C38.7452 54.1125 38.8302 54.0023 39.0255 53.9487Z" fill="#FFDD00"/>
<path d="M55.8487 49.521C56.044 49.4706 56.277 49.4958 56.3683 49.5777C56.4596 49.6596 56.3746 49.7698 56.1794 49.8233C55.9841 49.8737 55.7511 49.8485 55.6598 49.7666C55.5684 49.6848 55.6535 49.5745 55.8487 49.521Z" fill="#FFDD00"/>
<path d="M38.5045 53.215C38.7155 53.1804 38.9265 53.2276 38.98 53.3189C39.0336 53.4102 38.9045 53.5142 38.6966 53.5488C38.4856 53.5834 38.2746 53.5362 38.2211 53.4449C38.1676 53.3536 38.2967 53.2496 38.5045 53.215Z" fill="#FFDD00"/>
<path d="M56.5084 50.2264C56.7194 50.1918 56.9304 50.239 56.984 50.3303C57.0375 50.4217 56.9084 50.5256 56.7005 50.5602C56.4927 50.5949 56.2785 50.5476 56.225 50.4563C56.1715 50.365 56.3006 50.261 56.5084 50.2264Z" fill="#FFDD00"/>
<path d="M47.4865 56.021C47.4802 55.9233 47.6503 55.832 47.8676 55.8194C48.0848 55.8068 48.2643 55.8729 48.2706 55.9674C48.2769 56.065 48.1069 56.1564 47.8896 56.169C47.6723 56.1816 47.4928 56.1154 47.4865 56.021Z" fill="#FFDD00"/>
<path d="M46.9289 47.6945C46.9226 47.5969 47.0926 47.5056 47.3099 47.493C47.5272 47.4804 47.7067 47.5465 47.713 47.641C47.7193 47.7386 47.5493 47.83 47.332 47.8425C47.1147 47.8583 46.9352 47.789 46.9289 47.6945Z" fill="#FFDD00"/>
<path d="M40.9545 55.1643C41.1025 55.0856 41.3513 55.0698 41.5087 55.1265C41.6662 55.1863 41.6725 55.2966 41.5245 55.3753C41.3765 55.454 41.1277 55.4698 40.9702 55.4131C40.8128 55.3533 40.8065 55.243 40.9545 55.1643Z" fill="#FFDD00"/>
<path d="M53.6771 48.3999C53.8251 48.3212 54.0739 48.3054 54.2314 48.3621C54.3888 48.4219 54.3951 48.5322 54.2471 48.6109C54.0991 48.6896 53.8504 48.7054 53.6929 48.6487C53.5354 48.5888 53.5291 48.4786 53.6771 48.3999Z" fill="#FFDD00"/>
<path d="M41.1152 49.2408C41.2726 49.3006 41.2789 49.4108 41.1309 49.4896C40.9829 49.5683 40.7341 49.584 40.5767 49.5273C40.4192 49.4675 40.4129 49.3573 40.5609 49.2786C40.7089 49.1998 40.9577 49.1841 41.1152 49.2408Z" fill="#FFDD00"/>
<path d="M54.6249 54.2479C54.7824 54.3077 54.7887 54.418 54.6407 54.4967C54.4927 54.5754 54.2439 54.5912 54.0864 54.5345C53.929 54.4747 53.9227 54.3644 54.0707 54.2857C54.2187 54.207 54.4675 54.1912 54.6249 54.2479Z" fill="#FFDD00"/>
<path d="M60.6094 49.8422L60.4488 47.4551L58.8616 47.5622C56.9406 46.4694 53.6372 45.9561 49.9243 46.2049C46.2114 46.4536 43.0055 47.4047 41.2483 48.7431L39.6611 48.8502L39.8217 51.2372C39.9949 53.8227 44.788 55.6083 50.5289 55.2241C56.2699 54.8399 60.7826 52.4308 60.6094 49.8453V49.8422Z" fill="#C97710"/>
<path d="M50.3764 52.9946C56.1169 52.6103 60.6307 50.2096 60.4582 47.6326C60.2857 45.0556 55.4922 43.2781 49.7516 43.6624C44.0111 44.0467 39.4973 46.4473 39.6698 49.0243C39.8423 51.6013 44.6358 53.3789 50.3764 52.9946Z" fill="#FFDD00"/>
<path d="M50.363 52.7905C55.9196 52.4185 60.2888 50.0954 60.1218 47.6017C59.9549 45.108 55.315 43.388 49.7584 43.76C44.2018 44.132 39.8326 46.4551 39.9995 48.9488C40.1665 51.4425 44.8064 53.1625 50.363 52.7905Z" fill="#F0AA00"/>
<path d="M50.3182 52.056C45.6543 52.3678 41.7619 50.9255 41.6202 48.8313C41.4785 46.7371 45.1473 44.7877 49.808 44.476C54.472 44.1642 58.3643 45.6065 58.5061 47.7007C58.6478 49.7949 54.979 51.7442 50.3182 52.056Z" fill="#FFDD00"/>
<path d="M50.3087 51.908C45.8275 52.2072 42.0894 50.8216 41.954 48.8092C41.8186 46.7969 45.3425 44.9263 49.8206 44.624C54.3019 44.3248 58.04 45.7105 58.1754 47.7228C58.3108 49.7351 54.7869 51.6057 50.3087 51.908Z" fill="#F0AA00"/>
<path d="M50.3087 51.908C45.8275 52.2072 42.0894 50.8216 41.954 48.8092C41.8186 46.7969 45.3425 44.9263 49.8206 44.624C54.3019 44.3248 58.04 45.7105 58.1754 47.7228C58.3108 49.7351 54.7869 51.6057 50.3087 51.908Z" fill="#F0AA00"/>
<path d="M50.2965 51.7222C46.0451 52.0056 42.496 50.6924 42.3669 48.784C42.2378 46.8756 45.5822 45.0995 49.8336 44.8129C54.085 44.5295 57.6341 45.8459 57.7632 47.7543C57.8923 49.6626 54.5479 51.4388 50.2965 51.7253V51.7222Z" stroke="#D88508" stroke-width="0.35" stroke-miterlimit="10"/>
<path d="M54.8092 49.4485L54.7336 48.318C54.3557 48.5416 53.8046 48.7179 53.0268 48.8061L53.0771 49.5462L52.2269 49.5934L52.1765 48.8659C50.4381 48.9006 49.295 48.4282 49.169 47.5905C47.8275 48.1889 46.1332 48.8439 44.4201 49.4737L44.376 48.8628C45.938 48.2707 47.3834 47.7071 49.0399 46.9764L50.0949 46.9009L50.1201 47.2662C50.1705 47.981 50.9609 48.3211 52.1387 48.2928L52.0316 46.7591L52.8819 46.6962L52.9858 48.2204C53.9652 48.0629 54.4344 47.6661 54.3935 47.0709L54.362 46.5859L55.4674 46.5009L55.6626 49.4045L54.8123 49.4517L54.8092 49.4485Z" fill="#D88508"/>
<path d="M55.0172 49.3383L54.9416 48.2046C54.5637 48.4282 54.0126 48.6077 53.2348 48.6959L53.2851 49.4359L52.4349 49.4832L52.3845 48.7557C50.6461 48.7904 49.503 48.3211 49.377 47.4803C48.0355 48.0818 46.3412 48.7368 44.6281 49.3698L44.584 48.7589C46.146 48.1668 47.5914 47.6 49.2479 46.8662L50.3029 46.7906L50.3281 47.1559C50.3785 47.874 51.1689 48.2109 52.3467 48.1826L52.2396 46.6458L53.0899 46.5828L53.1938 48.107C54.1732 47.9464 54.6424 47.5496 54.6015 46.9544L54.57 46.4694L55.6754 46.3844L55.8706 49.2911L55.0203 49.3383H55.0172Z" fill="#FFDD00"/>
<path d="M59.3661 47.8771C59.1489 47.8928 58.9694 47.8235 58.9631 47.7291C58.9568 47.6314 59.1268 47.5401 59.3441 47.5275C59.5614 47.5118 59.7409 47.581 59.7472 47.6755C59.7535 47.7731 59.5834 47.8645 59.3661 47.8771Z" fill="#FFDD00"/>
<path d="M40.8173 49.1178C40.6 49.1336 40.4205 49.0643 40.4142 48.9698C40.4079 48.8722 40.578 48.7809 40.7953 48.7683C41.0126 48.7525 41.1921 48.8218 41.1984 48.9163C41.2047 49.0139 41.0346 49.1052 40.8173 49.1178Z" fill="#FFDD00"/>
<path d="M59.1484 48.7336C58.9342 48.7273 58.7925 48.6455 58.8303 48.5478C58.8681 48.4502 59.0697 48.3746 59.2838 48.3809C59.4979 48.3872 59.6396 48.4691 59.6018 48.5667C59.5641 48.6643 59.3625 48.7399 59.1484 48.7336Z" fill="#FFDD00"/>
<path d="M40.874 48.2613C40.6598 48.255 40.5181 48.1731 40.5559 48.0755C40.5937 47.9779 40.7952 47.9023 41.0094 47.9086C41.2235 47.9149 41.3652 47.9967 41.3275 48.0944C41.2897 48.192 41.0881 48.2676 40.874 48.2613Z" fill="#FFDD00"/>
<path d="M58.598 49.5304C58.3965 49.5052 58.2957 49.4107 58.3744 49.3131C58.4532 49.2186 58.6799 49.1619 58.8815 49.1839C59.083 49.206 59.1838 49.3036 59.1051 49.4012C59.0263 49.4989 58.7996 49.5524 58.598 49.5304Z" fill="#FFDD00"/>
<path d="M41.2806 47.4551C41.0791 47.4299 40.9783 47.3354 41.0571 47.2378C41.1358 47.1402 41.3625 47.0866 41.5641 47.1087C41.7656 47.1307 41.8664 47.2284 41.7877 47.326C41.709 47.4205 41.4822 47.4771 41.2806 47.4551Z" fill="#FFDD00"/>
<path d="M57.741 50.2736C57.5584 50.2326 57.5017 50.1256 57.6151 50.0374C57.7284 49.9492 57.9709 49.9114 58.1536 49.9524C58.3362 49.9933 58.3929 50.1004 58.2796 50.1885C58.1662 50.2767 57.9237 50.3145 57.741 50.2736Z" fill="#FFDD00"/>
<path d="M42.0018 46.6898C41.8191 46.6489 41.7624 46.5418 41.8758 46.4536C41.9892 46.3655 42.2317 46.3277 42.4143 46.3686C42.597 46.4096 42.6537 46.5166 42.5403 46.6048C42.4269 46.693 42.1844 46.7308 42.0018 46.6898Z" fill="#FFDD00"/>
<path d="M55.1865 51.4861C55.0605 51.4136 55.0983 51.3002 55.2746 51.2341C55.451 51.168 55.6935 51.1711 55.8226 51.2436C55.9486 51.316 55.9108 51.4294 55.7344 51.4955C55.5581 51.5616 55.3156 51.5585 55.1865 51.4861Z" fill="#FFDD00"/>
<path d="M44.3281 45.2885C44.2021 45.2161 44.2399 45.1027 44.4163 45.0365C44.5926 44.9704 44.8351 44.9736 44.9642 45.046C45.0902 45.1184 45.0524 45.2318 44.876 45.2979C44.6997 45.3641 44.4572 45.3609 44.3281 45.2885Z" fill="#FFDD00"/>
<path d="M53.6035 51.9458C53.5122 51.8608 53.6004 51.7537 53.7956 51.7002C53.9909 51.6498 54.2239 51.675 54.3152 51.76C54.4066 51.845 54.3184 51.9521 54.1231 52.0057C53.9279 52.056 53.6948 52.0308 53.6035 51.9458Z" fill="#FFDD00"/>
<path d="M45.8379 44.7689C45.7466 44.6839 45.8347 44.5768 46.03 44.5232C46.2252 44.4729 46.4583 44.4981 46.5496 44.5831C46.6409 44.6681 46.5528 44.7752 46.3575 44.8287C46.1623 44.8791 45.9292 44.8539 45.8379 44.7689Z" fill="#FFDD00"/>
<path d="M51.9085 52.2701C51.8582 52.1788 51.9841 52.0749 52.1951 52.0402C52.4061 52.0056 52.6171 52.0528 52.6675 52.1442C52.7179 52.2355 52.5919 52.3394 52.3809 52.3741C52.1699 52.4087 51.9589 52.3615 51.9085 52.2701Z" fill="#FFDD00"/>
<path d="M47.4808 44.3878C47.4304 44.2964 47.5564 44.1925 47.7674 44.1579C47.9784 44.1232 48.1894 44.1705 48.2398 44.2618C48.2902 44.3531 48.1642 44.457 47.9532 44.4917C47.7422 44.5263 47.5312 44.4791 47.4808 44.3878Z" fill="#FFDD00"/>
<path d="M48.3187 52.4686C48.3502 52.371 48.5486 52.2922 48.7627 52.2954C48.9768 52.2954 49.1249 52.3804 49.0934 52.478C49.0619 52.5757 48.8635 52.6544 48.6493 52.6512C48.4352 52.6481 48.2872 52.5662 48.3187 52.4686Z" fill="#FFDD00"/>
<path d="M51.0589 44.054C51.0904 43.9564 51.2888 43.8777 51.5029 43.8808C51.7171 43.884 51.8651 43.9659 51.8336 44.0635C51.8021 44.1611 51.6037 44.2398 51.3896 44.2367C51.1754 44.2335 51.0274 44.1517 51.0589 44.054Z" fill="#FFDD00"/>
<path d="M46.5992 52.33C46.6716 52.2355 46.8952 52.1757 47.0999 52.1977C47.3046 52.2198 47.4085 52.3143 47.3361 52.4087C47.2637 52.5032 47.0401 52.5631 46.8354 52.541C46.6307 52.519 46.5268 52.4245 46.5992 52.33Z" fill="#FFDD00"/>
<path d="M52.816 44.1233C52.8884 44.0288 53.112 43.969 53.3167 43.991C53.5214 44.0131 53.6253 44.1075 53.5529 44.202C53.4805 44.2965 53.2569 44.3563 53.0522 44.3343C52.8475 44.3122 52.7436 44.2178 52.816 44.1233Z" fill="#FFDD00"/>
<path d="M45.028 52.0466C45.1382 51.9553 45.3775 51.9175 45.5633 51.9553C45.7492 51.9931 45.8121 52.1001 45.7019 52.1883C45.5917 52.2765 45.3524 52.3174 45.1666 52.2796C44.9807 52.2387 44.9178 52.1348 45.028 52.0466Z" fill="#FFDD00"/>
<path d="M54.4469 44.3405C54.5572 44.2492 54.7965 44.2114 54.9823 44.2492C55.1681 44.2902 55.2311 44.3941 55.1209 44.4823C55.0106 44.5704 54.7713 44.6114 54.5855 44.5736C54.3997 44.5326 54.3367 44.4287 54.4469 44.3405Z" fill="#FFDD00"/>
<path d="M42.3479 51.0514C42.5242 50.9853 42.7667 50.9885 42.8958 51.0609C43.0218 51.1333 42.984 51.2467 42.8108 51.3128C42.6345 51.3789 42.392 51.3758 42.2628 51.3034C42.1369 51.2309 42.1747 51.1176 42.3479 51.0514Z" fill="#FFDD00"/>
<path d="M57.3508 45.3294C57.5272 45.2633 57.7696 45.2664 57.8988 45.3388C58.0247 45.4113 57.9869 45.5246 57.8137 45.5908C57.6374 45.6569 57.3949 45.6538 57.2658 45.5813C57.1398 45.5089 57.1776 45.3955 57.3508 45.3294Z" fill="#FFDD00"/>
<path d="M41.504 50.3839C41.6992 50.3335 41.9323 50.3587 42.0236 50.4405C42.1149 50.5224 42.0299 50.6326 41.8346 50.6862C41.6394 50.7366 41.4064 50.7114 41.315 50.6295C41.2237 50.5476 41.3087 50.4374 41.504 50.3839Z" fill="#FFDD00"/>
<path d="M58.3233 45.9561C58.5186 45.9057 58.7516 45.9309 58.8429 46.0128C58.9343 46.0947 58.8492 46.2049 58.654 46.2584C58.4587 46.3088 58.2257 46.2836 58.1344 46.2018C58.043 46.1199 58.1281 46.0097 58.3233 45.9561Z" fill="#FFDD00"/>
<path d="M40.984 49.6501C41.195 49.6155 41.406 49.6627 41.4595 49.754C41.5131 49.8454 41.384 49.9493 41.1761 49.9839C40.9651 50.0186 40.7541 49.9713 40.7006 49.88C40.6471 49.7887 40.7762 49.6848 40.984 49.6501Z" fill="#FFDD00"/>
<path d="M58.985 46.6615C59.196 46.6269 59.407 46.6741 59.4605 46.7654C59.5141 46.8568 59.3849 46.9607 59.1771 46.9953C58.9693 47.03 58.7551 46.9827 58.7016 46.8914C58.648 46.8001 58.7772 46.6962 58.985 46.6615Z" fill="#FFDD00"/>
<path d="M49.9631 52.456C49.9568 52.3584 50.1268 52.2671 50.3441 52.2545C50.5614 52.2419 50.7409 52.308 50.7472 52.4025C50.7535 52.5001 50.5835 52.5914 50.3662 52.604C50.1489 52.6166 49.9694 52.5505 49.9631 52.456Z" fill="#FFDD00"/>
<path d="M49.4054 44.1296C49.3991 44.032 49.5692 43.9406 49.7865 43.9281C50.0038 43.9155 50.1833 43.9816 50.1896 44.0761C50.1959 44.1737 50.0258 44.265 49.8085 44.2776C49.5912 44.2934 49.4117 44.2241 49.4054 44.1296Z" fill="#FFDD00"/>
<path d="M43.434 51.5994C43.582 51.5206 43.8308 51.5049 43.9882 51.5616C44.1457 51.6214 44.152 51.7316 44.004 51.8104C43.856 51.8891 43.6072 51.9048 43.4497 51.8481C43.2923 51.7883 43.286 51.6781 43.434 51.5994Z" fill="#FFDD00"/>
<path d="M56.1537 44.8318C56.3017 44.7531 56.5505 44.7373 56.708 44.794C56.8654 44.8538 56.8717 44.9641 56.7237 45.0428C56.5757 45.1215 56.3269 45.1373 56.1694 45.0806C56.012 45.0207 56.0057 44.9105 56.1537 44.8318Z" fill="#FFDD00"/>
<path d="M43.5918 45.6727C43.7492 45.7325 43.7555 45.8427 43.6075 45.9214C43.4595 46.0002 43.2107 46.0159 43.0532 45.9592C42.8958 45.8994 42.8895 45.7892 43.0375 45.7104C43.1855 45.6317 43.4343 45.616 43.5918 45.6727Z" fill="#FFDD00"/>
<path d="M57.1015 50.683C57.259 50.7428 57.2653 50.853 57.1173 50.9318C56.9692 51.0105 56.7205 51.0262 56.563 50.9695C56.4055 50.9097 56.3992 50.7995 56.5473 50.7208C56.6953 50.642 56.9441 50.6263 57.1015 50.683Z" fill="#FFDD00"/>
</g>
<defs>
<radialGradient id="paint0_radial_329_6457" cx="0" cy="0" r="1" gradientUnits="userSpaceOnUse" gradientTransform="translate(81.5957 62.3696) scale(1.71 1.71)">
<stop offset="0.07" stop-color="#FEE2A6"/>
<stop offset="0.14" stop-color="#797782"/>
<stop offset="0.19" stop-color="#1B2B69"/>
<stop offset="0.26" stop-color="#17255B"/>
<stop offset="0.49" stop-color="#0D1533"/>
<stop offset="0.69" stop-color="#060917"/>
<stop offset="0.87" stop-color="#010206"/>
<stop offset="1"/>
</radialGradient>
<radialGradient id="paint1_radial_329_6457" cx="0" cy="0" r="1" gradientUnits="userSpaceOnUse" gradientTransform="translate(89.8496 53.7913) scale(0.157459)">
<stop offset="0.07" stop-color="#FEE2A6"/>
<stop offset="0.14" stop-color="#797782"/>
<stop offset="0.19" stop-color="#1B2B69"/>
<stop offset="0.26" stop-color="#17255B"/>
<stop offset="0.49" stop-color="#0D1533"/>
<stop offset="0.69" stop-color="#060917"/>
<stop offset="0.87" stop-color="#010206"/>
<stop offset="1"/>
</radialGradient>
<radialGradient id="paint2_radial_329_6457" cx="0" cy="0" r="1" gradientUnits="userSpaceOnUse" gradientTransform="translate(92.1865 46.1735) scale(2.40913 2.40912)">
<stop offset="0.07" stop-color="#FEE2A6"/>
<stop offset="0.14" stop-color="#797782"/>
<stop offset="0.19" stop-color="#1B2B69"/>
<stop offset="0.26" stop-color="#17255B"/>
<stop offset="0.49" stop-color="#0D1533"/>
<stop offset="0.69" stop-color="#060917"/>
<stop offset="0.87" stop-color="#010206"/>
<stop offset="1"/>
</radialGradient>
<radialGradient id="paint3_radial_329_6457" cx="0" cy="0" r="1" gradientUnits="userSpaceOnUse" gradientTransform="translate(88.417 58.9811) scale(0.157459 0.157458)">
<stop offset="0.07" stop-color="#FEE2A6"/>
<stop offset="0.14" stop-color="#797782"/>
<stop offset="0.19" stop-color="#1B2B69"/>
<stop offset="0.26" stop-color="#17255B"/>
<stop offset="0.49" stop-color="#0D1533"/>
<stop offset="0.69" stop-color="#060917"/>
<stop offset="0.87" stop-color="#010206"/>
<stop offset="1"/>
</radialGradient>
<radialGradient id="paint4_radial_329_6457" cx="0" cy="0" r="1" gradientUnits="userSpaceOnUse" gradientTransform="translate(95.6094 50.4028) scale(0.157459)">
<stop offset="0.07" stop-color="#FEE2A6"/>
<stop offset="0.14" stop-color="#797782"/>
<stop offset="0.19" stop-color="#1B2B69"/>
<stop offset="0.26" stop-color="#17255B"/>
<stop offset="0.49" stop-color="#0D1533"/>
<stop offset="0.69" stop-color="#060917"/>
<stop offset="0.87" stop-color="#010206"/>
<stop offset="1"/>
</radialGradient>
<radialGradient id="paint5_radial_329_6457" cx="0" cy="0" r="1" gradientUnits="userSpaceOnUse" gradientTransform="translate(97.9462 42.785) scale(2.40912 2.40911)">
<stop offset="0.07" stop-color="#FEE2A6"/>
<stop offset="0.14" stop-color="#797782"/>
<stop offset="0.19" stop-color="#1B2B69"/>
<stop offset="0.26" stop-color="#17255B"/>
<stop offset="0.49" stop-color="#0D1533"/>
<stop offset="0.69" stop-color="#060917"/>
<stop offset="0.87" stop-color="#010206"/>
<stop offset="1"/>
</radialGradient>
<radialGradient id="paint6_radial_329_6457" cx="0" cy="0" r="1" gradientUnits="userSpaceOnUse" gradientTransform="translate(3.71 31.6526) scale(0.157459)">
<stop offset="0.07" stop-color="#FEE2A6"/>
<stop offset="0.14" stop-color="#797782"/>
<stop offset="0.19" stop-color="#1B2B69"/>
<stop offset="0.26" stop-color="#17255B"/>
<stop offset="0.49" stop-color="#0D1533"/>
<stop offset="0.69" stop-color="#060917"/>
<stop offset="0.87" stop-color="#010206"/>
<stop offset="1"/>
</radialGradient>
<radialGradient id="paint7_radial_329_6457" cx="0" cy="0" r="1" gradientUnits="userSpaceOnUse" gradientTransform="translate(11.9639 23.0711) scale(0.157459)">
<stop offset="0.07" stop-color="#FEE2A6"/>
<stop offset="0.14" stop-color="#797782"/>
<stop offset="0.19" stop-color="#1B2B69"/>
<stop offset="0.26" stop-color="#17255B"/>
<stop offset="0.49" stop-color="#0D1533"/>
<stop offset="0.69" stop-color="#060917"/>
<stop offset="0.87" stop-color="#010206"/>
<stop offset="1"/>
</radialGradient>
<radialGradient id="paint8_radial_329_6457" cx="0" cy="0" r="1" gradientUnits="userSpaceOnUse" gradientTransform="translate(43.544 1.29148) scale(0.157459)">
<stop offset="0.07" stop-color="#FEE2A6"/>
<stop offset="0.14" stop-color="#797782"/>
<stop offset="0.19" stop-color="#1B2B69"/>
<stop offset="0.26" stop-color="#17255B"/>
<stop offset="0.49" stop-color="#0D1533"/>
<stop offset="0.69" stop-color="#060917"/>
<stop offset="0.87" stop-color="#010206"/>
<stop offset="1"/>
</radialGradient>
<radialGradient id="paint9_radial_329_6457" cx="0" cy="0" r="1" gradientUnits="userSpaceOnUse" gradientTransform="translate(44.8163 8.9093) scale(2.40912 2.40912)">
<stop offset="0.07" stop-color="#FEE2A6"/>
<stop offset="0.14" stop-color="#797782"/>
<stop offset="0.19" stop-color="#1B2B69"/>
<stop offset="0.26" stop-color="#17255B"/>
<stop offset="0.49" stop-color="#0D1533"/>
<stop offset="0.69" stop-color="#060917"/>
<stop offset="0.87" stop-color="#010206"/>
<stop offset="1"/>
</radialGradient>
<radialGradient id="paint10_radial_329_6457" cx="0" cy="0" r="1" gradientUnits="userSpaceOnUse" gradientTransform="translate(49.3037 4.67997) scale(0.157459)">
<stop offset="0.07" stop-color="#FEE2A6"/>
<stop offset="0.14" stop-color="#797782"/>
<stop offset="0.19" stop-color="#1B2B69"/>
<stop offset="0.26" stop-color="#17255B"/>
<stop offset="0.49" stop-color="#0D1533"/>
<stop offset="0.69" stop-color="#060917"/>
<stop offset="0.87" stop-color="#010206"/>
<stop offset="1"/>
</radialGradient>
<radialGradient id="paint11_radial_329_6457" cx="0" cy="0" r="1" gradientUnits="userSpaceOnUse" gradientTransform="translate(50.5732 12.2978) scale(2.40912 2.40912)">
<stop offset="0.07" stop-color="#FEE2A6"/>
<stop offset="0.14" stop-color="#797782"/>
<stop offset="0.19" stop-color="#1B2B69"/>
<stop offset="0.26" stop-color="#17255B"/>
<stop offset="0.49" stop-color="#0D1533"/>
<stop offset="0.69" stop-color="#060917"/>
<stop offset="0.87" stop-color="#010206"/>
<stop offset="1"/>
</radialGradient>
<clipPath id="clip0_329_6457">
<rect width="96" height="96" fill="white"/>
</clipPath>
</defs>
</svg>
