<svg width="96" height="96" viewBox="0 0 96 96" fill="none" xmlns="http://www.w3.org/2000/svg">
<g clip-path="url(#clip0_331_11229)">
<path style="mix-blend-mode:color-dodge" d="M87.7682 95.5303C89.2523 95.5303 90.4554 94.3272 90.4554 92.8431C90.4554 91.359 89.2523 90.1559 87.7682 90.1559C86.2841 90.1559 85.0811 91.359 85.0811 92.8431C85.0811 94.3272 86.2841 95.5303 87.7682 95.5303Z" fill="url(#paint0_radial_331_11229)"/>
<path style="mix-blend-mode:color-dodge" d="M98.488 90.2054C99.9721 90.2054 101.175 89.0023 101.175 87.5182C101.175 86.0341 99.9721 84.8311 98.488 84.8311C97.0039 84.8311 95.8008 86.0341 95.8008 87.5182C95.8008 89.0023 97.0039 90.2054 98.488 90.2054Z" fill="url(#paint1_radial_331_11229)"/>
<path style="mix-blend-mode:color-dodge" d="M0.120779 62.1013C1.60487 62.1013 2.80796 60.8982 2.80796 59.4141C2.80796 57.93 1.60487 56.7269 0.120779 56.7269C-1.36331 56.7269 -2.56641 57.93 -2.56641 59.4141C-2.56641 60.8982 -1.36331 62.1013 0.120779 62.1013Z" fill="url(#paint2_radial_331_11229)"/>
<path style="mix-blend-mode:color-dodge" d="M13.0954 48.6159C14.5795 48.6159 15.7826 47.4129 15.7826 45.9288C15.7826 44.4447 14.5795 43.2416 13.0954 43.2416C11.6113 43.2416 10.4082 44.4447 10.4082 45.9288C10.4082 47.4129 11.6113 48.6159 13.0954 48.6159Z" fill="url(#paint3_radial_331_11229)"/>
<path style="mix-blend-mode:color-dodge" d="M9.17254 56.7766C10.6566 56.7766 11.8597 55.5735 11.8597 54.0894C11.8597 52.6053 10.6566 51.4022 9.17254 51.4022C7.68844 51.4022 6.48535 52.6053 6.48535 54.0894C6.48535 55.5735 7.68844 56.7766 9.17254 56.7766Z" fill="url(#paint4_radial_331_11229)"/>
<path style="mix-blend-mode:color-dodge" d="M49.7477 0.904643C51.2318 0.904643 52.4349 -0.298449 52.4349 -1.78254C52.4349 -3.26663 51.2318 -4.46973 49.7477 -4.46973C48.2636 -4.46973 47.0605 -3.26663 47.0605 -1.78254C47.0605 -0.298449 48.2636 0.904643 49.7477 0.904643Z" fill="url(#paint5_radial_331_11229)"/>
<path style="mix-blend-mode:color-dodge" d="M62.7223 14.39C64.2064 14.39 65.4095 13.1869 65.4095 11.7028C65.4095 10.2187 64.2064 9.01562 62.7223 9.01562C61.2382 9.01562 60.0352 10.2187 60.0352 11.7028C60.0352 13.1869 61.2382 14.39 62.7223 14.39Z" fill="url(#paint6_radial_331_11229)"/>
<path style="mix-blend-mode:color-dodge" d="M64.7174 27.4597C66.8083 27.4597 68.5033 25.7647 68.5033 23.6739C68.5033 21.583 66.8083 19.8881 64.7174 19.8881C62.6266 19.8881 60.9316 21.583 60.9316 23.6739C60.9316 25.7647 62.6266 27.4597 64.7174 27.4597Z" fill="url(#paint7_radial_331_11229)"/>
<path style="mix-blend-mode:color-dodge" d="M58.7936 6.22936C60.2777 6.22936 61.4808 5.02627 61.4808 3.54218C61.4808 2.05809 60.2777 0.85498 58.7936 0.85498C57.3095 0.85498 56.1064 2.05809 56.1064 3.54218C56.1064 5.02627 57.3095 6.22936 58.7936 6.22936Z" fill="url(#paint8_radial_331_11229)"/>
<path style="mix-blend-mode:color-dodge" d="M71.7692 19.715C73.2533 19.715 74.4564 18.5119 74.4564 17.0278C74.4564 15.5437 73.2533 14.3406 71.7692 14.3406C70.2851 14.3406 69.082 15.5437 69.082 17.0278C69.082 18.5119 70.2851 19.715 71.7692 19.715Z" fill="url(#paint9_radial_331_11229)"/>
<path style="mix-blend-mode:color-dodge" d="M73.7683 32.785C75.8591 32.785 77.5541 31.09 77.5541 28.9992C77.5541 26.9083 75.8591 25.2134 73.7683 25.2134C71.6774 25.2134 69.9824 26.9083 69.9824 28.9992C69.9824 31.09 71.6774 32.785 73.7683 32.785Z" fill="url(#paint10_radial_331_11229)"/>
<path d="M51.0703 80.5161L37.6641 83.1736L48.3485 88.548L51.0703 80.5161Z" fill="#6EDCD5"/>
<path d="M51.0144 47.2999L50.7175 50.581C50.2226 50.5562 49.7376 50.5562 49.2576 50.5562C45.6153 50.5562 42.0719 50.9571 38.7266 51.734C31.7983 53.3523 26.1468 56.6284 23.3408 60.6171C22.2422 62.171 21.5889 63.7893 21.386 65.4521C21.3167 65.0512 21.292 64.6355 21.292 64.2198C21.292 62.1314 21.9749 60.0826 23.3408 58.1477C26.1418 54.1441 31.7983 50.8828 38.7266 49.2646C42.0719 48.4728 45.6153 48.0868 49.2576 48.0868C49.7376 48.0868 50.2226 48.0868 50.7175 48.1016L50.7867 47.2999H51.0144Z" fill="#C21E18"/>
<path d="M50.7872 47.3001L50.718 48.1018C50.2231 48.0869 49.7381 48.0869 49.2581 48.0869C45.6158 48.0869 42.0724 48.4729 38.7271 49.2647C31.7988 50.883 26.1473 54.1393 23.3413 58.1478C21.9754 60.0778 21.2925 62.1266 21.2925 64.22C21.2925 64.6357 21.3172 65.0514 21.3865 65.4522C21.3172 65.8531 21.2925 66.2688 21.2925 66.6845C21.2925 68.0107 21.5597 69.3073 22.1091 70.5692C22.4159 71.3215 22.8316 72.044 23.3413 72.7665L18.0709 73.9988V71.5194C16.705 69.5795 15.9033 67.5406 15.6855 65.4473C15.8983 63.3589 16.705 61.3249 18.0709 59.3751C21.4459 54.555 28.2406 50.6356 36.5892 48.6808C40.6175 47.7455 44.8834 47.2605 49.2383 47.2605C49.748 47.2605 50.2676 47.2753 50.7773 47.2852H50.7823L50.7872 47.3001Z" fill="#6EDCD5"/>
<path d="M47.4326 52.8725L60.8389 50.2199L50.1495 44.8406L47.4326 52.8725Z" fill="#6EDCD5"/>
<path d="M47.4307 50.4075L60.8369 47.7501L50.1475 42.3707L47.4307 50.4075Z" fill="#F94848"/>
<path d="M49.0841 79.1503L48.604 80.3578L48.5348 80.5062L49.579 82.0997L51.0636 80.5211V78.0566L49.0841 79.1552V79.1503ZM82.622 64.3039C82.2607 62.6164 81.5382 60.9684 80.4247 59.3898L78.1879 59.9143L75.1592 58.1625C76.5102 60.0925 77.1932 62.1413 77.1932 64.2346C77.1932 64.6503 77.1684 65.066 77.0991 65.4669C77.1684 65.8677 77.1932 66.2834 77.1932 66.6991C77.1932 68.8024 76.5102 70.8363 75.1444 72.7861C72.3433 76.7748 66.6869 80.0509 59.7586 81.6692C56.4132 82.4461 52.8699 82.847 49.2425 82.847C48.7624 82.847 48.2626 82.8321 47.7677 82.8222L47.6984 83.6239L47.6588 84.1188L37.6475 80.719V83.1835L48.3418 88.5579L49.2375 86.133C53.6023 86.133 57.8682 85.653 61.8965 84.7127C66.0634 83.7328 69.8195 82.3026 73.0164 80.4419C76.2281 78.596 78.7273 76.4235 80.4148 74.0233C82.0479 71.6924 82.8793 69.2279 82.8645 66.7041V64.2396L82.6121 64.3188V64.3039H82.622Z" fill="#C21E18"/>
<path d="M77.198 64.2249C77.198 64.6406 77.1733 65.0563 77.104 65.4572C76.9011 63.7944 76.2478 62.1761 75.1641 60.6222V58.1577C76.5151 60.0877 77.198 62.1365 77.198 64.2299V64.2249Z" fill="#C21E18"/>
<path d="M51.0693 78.0465L37.6631 80.704L48.3475 86.0784L51.0693 78.0465Z" fill="#F94848"/>
<path d="M82.8837 64.2247C82.8837 66.7832 82.0523 69.2279 80.4341 71.5291C78.7465 73.9391 76.2573 76.0968 73.0356 77.9625C69.8338 79.8084 66.0777 81.2435 61.9157 82.2185C57.8874 83.1686 53.6216 83.6387 49.2567 83.6387C48.7322 83.6387 48.2274 83.6388 47.7177 83.614H47.5049L47.787 80.3478C48.069 80.3627 48.3511 80.3627 48.6184 80.3627H49.2617C49.8654 80.3627 50.4791 80.3478 51.0828 80.3379C54.067 80.229 56.9966 79.843 59.7779 79.1848C66.7062 77.5666 72.3577 74.3103 75.1636 70.3018C76.2623 68.7627 76.9155 67.1296 77.1184 65.4668C77.1877 65.066 77.2124 64.6503 77.2124 64.2346C77.2124 62.1462 76.5295 60.0974 75.1785 58.1624L80.4489 56.9302C82.082 59.2611 82.9134 61.7107 82.8986 64.2346H82.8936L82.8837 64.2247Z" fill="#F94848"/>
<path d="M48.3466 86.0784V88.5428L37.6572 83.1734L37.6622 80.704L48.3466 86.0784Z" fill="#C21E18"/>
<path d="M60.8369 47.7501V50.2196L47.4307 52.8721V50.4076L60.8369 47.7501Z" fill="#C21E18"/>
<path d="M23.3456 70.2964V72.7757L18.0801 74.008V71.5286L22.1084 70.5785L23.3456 70.2964Z" fill="#C21E18"/>
<path d="M17.0751 67.9017L18.5895 64.5811L18.2282 62.5076H17.0751L15.6152 64.2198V66.6843C15.6152 69.2033 16.4466 71.6678 18.0797 74.0036V71.5242C17.0504 70.0594 16.3378 68.5302 15.9567 66.9714L17.0751 67.8968V67.9017Z" fill="#C21E18"/>
<path d="M51.0139 44.8354L50.7862 47.2999L50.7169 48.1016C50.2221 48.0867 49.7371 48.0867 49.257 48.0867C45.6147 48.0867 42.0714 48.4727 38.7261 49.2645C31.7978 50.8828 26.1462 54.1391 23.3403 58.1476C21.9744 60.0776 21.2915 62.1264 21.2915 64.2197C21.2915 64.6354 21.3162 65.0511 21.3855 65.452C21.5884 67.1148 22.2416 68.7479 23.3403 70.287L22.108 70.569L18.0797 71.5192C16.7139 69.5793 15.9121 67.5404 15.6944 65.447C15.64 65.0462 15.6152 64.6305 15.6152 64.2148C15.6152 61.6959 16.4466 59.2462 18.0797 56.9104C21.4548 52.0903 28.2495 48.1708 36.5981 46.2161C40.6264 45.2659 44.8922 44.7958 49.2472 44.7958C49.8361 44.7958 50.4249 44.7958 51.0139 44.8205V44.8354Z" fill="#F94848"/>
<path d="M35.8257 57.9398C29.0459 61.8543 29.0806 68.2184 35.9049 72.1576C42.7244 76.0969 53.7502 76.1166 60.5301 72.2022C67.3099 68.2877 67.2753 61.9235 60.4509 57.9843C53.6315 54.0451 42.6056 54.0253 35.8257 57.9398Z" fill="#472096"/>
<path d="M64.3751 60.3943H63.3804C62.5836 59.1323 61.3167 57.9496 59.5649 56.94C53.176 53.2532 42.8528 53.2334 36.5085 56.9004C34.7913 57.8902 33.5491 59.0482 32.7623 60.2854H31.7676V64.3879C31.7676 66.8079 33.371 69.2328 36.5778 71.0836C42.9667 74.7705 53.2898 74.7903 59.6342 71.1232C62.7964 69.2971 64.3751 66.9019 64.3702 64.5018V60.3943H64.3751Z" fill="url(#paint11_linear_331_11229)"/>
<path d="M36.5044 53.6689C30.1552 57.331 30.1898 63.2942 36.5787 66.9811C42.9675 70.6679 53.2907 70.6877 59.635 67.0207C65.9843 63.3586 65.9497 57.3953 59.5608 53.7085C53.1719 50.0216 42.8488 50.0018 36.5044 53.6689ZM57.5763 65.833C52.3603 68.8468 43.8781 68.827 38.6275 65.7983C33.3768 62.7697 33.3521 57.8704 38.5681 54.8566C43.7841 51.8428 52.2663 51.8626 57.5169 54.8912C62.7676 57.9199 62.7923 62.8192 57.5763 65.833Z" fill="#FFE66F"/>
<path d="M38.5682 54.8565C33.3522 57.8703 33.377 62.7647 38.6276 65.7983C43.8783 68.8269 52.3605 68.8418 57.5765 65.8329C62.7925 62.8191 62.7678 57.9248 57.5171 54.8912C52.2664 51.8625 43.7842 51.8477 38.5682 54.8565ZM56.7946 65.3826C52.0042 68.149 44.2197 68.1341 39.3996 65.3529C34.5795 62.5717 34.5548 58.0732 39.3452 55.3118C44.1356 52.5454 51.92 52.5603 56.7401 55.3415C61.5603 58.1227 61.585 62.6212 56.7946 65.3826Z" fill="url(#paint12_linear_331_11229)"/>
<path d="M39.3454 55.307C34.5549 58.0734 34.5797 62.5669 39.3998 65.3481C44.2199 68.1293 52.0043 68.1441 56.7948 65.3778C61.5852 62.6114 61.5604 58.1179 56.7403 55.3367C51.9202 52.5555 44.1358 52.5406 39.3454 55.307Z" fill="#FFE66F"/>
<path fill-rule="evenodd" clip-rule="evenodd" d="M55.8467 53.8775C55.8473 54.8167 55.5053 55.7468 54.8403 56.6147C54.1753 57.4825 53.2004 58.2711 51.9712 58.9354C50.742 59.5996 49.2826 60.1265 47.6763 60.486C46.0701 60.8455 44.3485 61.0306 42.6099 61.0306C40.8713 61.0306 39.1497 60.8455 37.5434 60.486C35.9372 60.1265 34.4778 59.5996 33.2486 58.9354C32.0194 58.2711 31.0445 57.4825 30.3795 56.6147C29.7145 55.7468 29.3725 54.8167 29.373 53.8775C29.3725 52.9382 29.7145 52.0081 30.3795 51.1403C31.0445 50.2724 32.0194 49.4838 33.2486 48.8196C34.4778 48.1553 35.9372 47.6284 37.5434 47.2689C39.1497 46.9094 40.8713 46.7244 42.6099 46.7244C44.3485 46.7244 46.0701 46.9094 47.6763 47.2689C49.2826 47.6284 50.742 48.1553 51.9712 48.8196C53.2004 49.4838 54.1753 50.2724 54.8403 51.1403C55.5053 52.0081 55.8473 52.9382 55.8467 53.8775Z" fill="url(#paint13_radial_331_11229)"/>
<path fill-rule="evenodd" clip-rule="evenodd" d="M38.3048 57.8639H47.4337C50.0202 57.8639 52.581 56.9155 53.5196 54.2123C54.411 51.6454 53.6718 46.7571 47.8901 42.8013H37.0877C31.3061 46.4528 30.5835 51.4466 31.9146 54.3645C33.2707 57.3371 35.5662 57.8639 38.3048 57.8639Z" fill="url(#paint14_radial_331_11229)" stroke="#404604" stroke-linecap="round" stroke-linejoin="round"/>
<path fill-rule="evenodd" clip-rule="evenodd" d="M42.6703 45.0836C42.6703 45.0836 40.8187 46.5126 40.9782 48.2341C39.2214 46.6842 39.1709 43.7142 39.1709 43.7142L42.6703 45.0836Z" fill="#9DB029"/>
<path opacity="0.21519" fill-rule="evenodd" clip-rule="evenodd" d="M38.3963 56.9479H47.2757C49.5476 56.9479 51.7969 56.1149 52.6214 53.7405C53.4044 51.4857 52.5399 47.1919 47.4614 43.7172H37.5424C32.4639 46.9246 31.6141 51.3111 32.7833 53.8741C33.9745 56.4852 35.9907 56.9479 38.3963 56.9479Z" stroke="white" stroke-linecap="round" stroke-linejoin="round"/>
<path fill-rule="evenodd" clip-rule="evenodd" d="M43.5117 45.0836C43.5117 45.0836 45.3633 46.5126 45.2038 48.2341C46.9606 46.6842 47.0111 43.7142 47.0111 43.7142L43.5117 45.0836Z" fill="#9DB029"/>
<path fill-rule="evenodd" clip-rule="evenodd" d="M50.0648 41.4013C50.0651 42.3806 49.8724 43.3503 49.4979 44.255C49.1234 45.1598 48.5743 45.9819 47.882 46.6745C47.1897 47.367 46.3677 47.9163 45.463 48.2911C44.5584 48.6659 43.5888 48.8588 42.6095 48.8588C41.6303 48.8588 40.6607 48.6659 39.756 48.2911C38.8514 47.9163 38.0294 47.367 37.3371 46.6745C36.6448 45.9819 36.0957 45.1598 35.7211 44.255C35.3466 43.3503 35.154 42.3806 35.1543 41.4013C35.154 40.4221 35.3466 39.4524 35.7211 38.5477C36.0957 37.6429 36.6448 36.8208 37.3371 36.1282C38.0294 35.4357 38.8514 34.8864 39.756 34.5116C40.6607 34.1368 41.6303 33.9438 42.6095 33.9438C43.5888 33.9438 44.5584 34.1368 45.463 34.5116C46.3677 34.8864 47.1897 35.4357 47.882 36.1282C48.5743 36.8208 49.1234 37.6429 49.4979 38.5477C49.8724 39.4524 50.0651 40.4221 50.0648 41.4013Z" fill="url(#paint15_radial_331_11229)"/>
<path fill-rule="evenodd" clip-rule="evenodd" d="M50.1732 38.389C50.1735 39.3682 49.9808 40.3379 49.6063 41.2427C49.2318 42.1475 48.6827 42.9696 47.9904 43.6621C47.2981 44.3547 46.4761 44.904 45.5714 45.2788C44.6668 45.6536 43.6972 45.8465 42.7179 45.8465C41.7387 45.8465 40.7691 45.6536 39.8644 45.2788C38.9598 44.904 38.1378 44.3547 37.4455 43.6621C36.7532 42.9696 36.2041 42.1475 35.8295 41.2427C35.455 40.3379 35.2624 39.3682 35.2627 38.389C35.2624 37.4098 35.455 36.4401 35.8295 35.5353C36.2041 34.6306 36.7532 33.8084 37.4455 33.1159C38.1378 32.4234 38.9598 31.874 39.8644 31.4992C40.7691 31.1244 41.7387 30.9315 42.7179 30.9315C43.6972 30.9315 44.6668 31.1244 45.5714 31.4992C46.4761 31.874 47.2981 32.4234 47.9904 33.1159C48.6827 33.8084 49.2318 34.6306 49.6063 35.5353C49.9808 36.4401 50.1735 37.4098 50.1732 38.389Z" fill="url(#paint16_radial_331_11229)" stroke="#6F4709" stroke-linecap="round" stroke-linejoin="round"/>
<path opacity="0.126582" fill-rule="evenodd" clip-rule="evenodd" d="M49.2566 38.3891C49.2569 39.248 49.0879 40.0985 48.7594 40.892C48.4309 41.6856 47.9493 42.4067 47.3421 43.0141C46.7349 43.6215 46.0139 44.1033 45.2205 44.4321C44.427 44.7608 43.5765 44.93 42.7177 44.93C41.8588 44.93 41.0083 44.7608 40.2149 44.4321C39.4214 44.1033 38.7004 43.6215 38.0932 43.0141C37.486 42.4067 37.0044 41.6856 36.6759 40.892C36.3474 40.0985 36.1785 39.248 36.1787 38.3891C36.1785 37.5302 36.3474 36.6797 36.6759 35.8861C37.0044 35.0926 37.486 34.3715 38.0932 33.7641C38.7004 33.1567 39.4214 32.6748 40.2149 32.3461C41.0083 32.0173 41.8588 31.8481 42.7177 31.8481C43.5765 31.8481 44.427 32.0173 45.2205 32.3461C46.0139 32.6748 46.7349 33.1567 47.3421 33.7641C47.9493 34.3715 48.4309 35.0926 48.7594 35.8861C49.0879 36.6797 49.2569 37.5302 49.2566 38.3891Z" stroke="white" stroke-linecap="round" stroke-linejoin="round"/>
<path fill-rule="evenodd" clip-rule="evenodd" d="M46.6729 51.3215H50.3244L48.1943 49.3436L47.7379 49.9522L47.2814 49.4958L46.6729 51.3215Z" fill="url(#paint17_linear_331_11229)"/>
<path opacity="0.227848" fill-rule="evenodd" clip-rule="evenodd" d="M34.5925 56.9737C33.5187 56.5047 33.0381 55.3743 33.0381 55.3743C33.7622 51.8721 36.2397 49.3098 36.2397 49.3098C36.2397 49.3098 34.278 54.8281 34.5925 56.9737Z" fill="url(#paint18_linear_331_11229)"/>
<path opacity="0.227848" fill-rule="evenodd" clip-rule="evenodd" d="M50.8643 56.235C51.924 55.735 52.4173 54.5117 52.4173 54.5117C51.5918 51.0319 48.9951 48.6222 48.9951 48.6222C48.9951 48.6222 51.1163 54.0811 50.8643 56.235Z" fill="url(#paint19_linear_331_11229)"/>
<path fill-rule="evenodd" clip-rule="evenodd" d="M67.1436 61.9464C67.1441 62.5182 66.8021 63.0845 66.1372 63.6129C65.4722 64.1413 64.4973 64.6214 63.2681 65.0258C62.0388 65.4302 60.5794 65.751 58.9732 65.9699C57.367 66.1888 55.6454 66.3014 53.9068 66.3014C52.1681 66.3014 50.4465 66.1888 48.8403 65.9699C47.2341 65.751 45.7747 65.4302 44.5455 65.0258C43.3163 64.6214 42.3413 64.1413 41.6764 63.6129C41.0114 63.0845 40.6694 62.5182 40.6699 61.9464C40.6694 61.3745 41.0114 60.8082 41.6764 60.2799C42.3413 59.7515 43.3163 59.2714 44.5455 58.867C45.7747 58.4625 47.2341 58.1417 48.8403 57.9228C50.4465 57.704 52.1681 57.5913 53.9068 57.5913C55.6454 57.5913 57.367 57.704 58.9732 57.9228C60.5794 58.1417 62.0388 58.4625 63.2681 58.867C64.4973 59.2714 65.4722 59.7515 66.1372 60.2799C66.8021 60.8082 67.1441 61.3745 67.1436 61.9464Z" fill="url(#paint20_radial_331_11229)"/>
<path fill-rule="evenodd" clip-rule="evenodd" d="M49.6017 63.8887H58.7306C61.3171 63.8887 63.8778 62.9403 64.8165 60.2371C65.7078 57.6702 64.9686 52.7819 59.187 48.826H48.3845C42.6029 52.4776 41.8804 57.4714 43.2115 60.3893C44.5676 63.3619 46.8631 63.8887 49.6017 63.8887Z" fill="url(#paint21_radial_331_11229)" stroke="#204A87" stroke-linecap="round" stroke-linejoin="round"/>
<path fill-rule="evenodd" clip-rule="evenodd" d="M50.2109 50.1954C52.9496 52.6297 54.1668 61.4543 54.1668 61.4543C54.1668 61.4543 55.384 52.6297 57.514 50.0432L50.2109 50.1954Z" fill="url(#paint22_linear_331_11229)"/>
<path fill-rule="evenodd" clip-rule="evenodd" d="M52.1722 51.1083C52.1722 51.1083 50.3207 52.5374 50.4802 54.2589C48.7233 52.709 48.6729 49.739 48.6729 49.739L52.1722 51.1083Z" fill="#729FCF"/>
<path opacity="0.21519" fill-rule="evenodd" clip-rule="evenodd" d="M49.5408 62.9918L58.5723 62.9728C60.8443 62.9728 63.0936 62.1397 63.9181 59.7653C64.701 57.5106 63.8365 53.2168 58.7581 49.742L48.839 49.5328C43.7605 52.7403 42.7776 57.1268 43.9658 59.899C45.1541 62.6712 46.888 62.9728 49.5408 62.9918Z" stroke="white" stroke-linecap="round" stroke-linejoin="round"/>
<path fill-rule="evenodd" clip-rule="evenodd" d="M55.9922 51.1083C55.9922 51.1083 57.8438 52.5374 57.6843 54.2589C59.4411 52.709 59.4916 49.739 59.4916 49.739L55.9922 51.1083Z" fill="#729FCF"/>
<path fill-rule="evenodd" clip-rule="evenodd" d="M61.3616 47.4261C61.3619 48.4054 61.1693 49.375 60.7948 50.2798C60.4203 51.1846 59.8712 52.0067 59.1789 52.6992C58.4865 53.3918 57.6646 53.9411 56.7599 54.3159C55.8553 54.6907 54.8856 54.8836 53.9064 54.8836C52.9272 54.8836 51.9575 54.6907 51.0529 54.3159C50.1482 53.9411 49.3263 53.3918 48.634 52.6992C47.9416 52.0067 47.3925 51.1846 47.018 50.2798C46.6435 49.375 46.4509 48.4054 46.4512 47.4261C46.4509 46.4469 46.6435 45.4772 47.018 44.5724C47.3925 43.6677 47.9416 42.8455 48.634 42.153C49.3263 41.4605 50.1482 40.9111 51.0529 40.5363C51.9575 40.1615 52.9272 39.9686 53.9064 39.9686C54.8856 39.9686 55.8553 40.1615 56.7599 40.5363C57.6646 40.9111 58.4865 41.4605 59.1789 42.153C59.8712 42.8455 60.4203 43.6677 60.7948 44.5724C61.1693 45.4772 61.3619 46.4469 61.3616 47.4261Z" fill="url(#paint23_radial_331_11229)"/>
<path fill-rule="evenodd" clip-rule="evenodd" d="M61.47 44.4138C61.4703 45.393 61.2777 46.3627 60.9032 47.2675C60.5287 48.1723 59.9796 48.9944 59.2873 49.6869C58.5949 50.3794 57.773 50.9288 56.8683 51.3036C55.9637 51.6784 54.994 51.8713 54.0148 51.8713C53.0356 51.8713 52.0659 51.6784 51.1613 51.3036C50.2566 50.9288 49.4347 50.3794 48.7424 49.6869C48.05 48.9944 47.5009 48.1723 47.1264 47.2675C46.7519 46.3627 46.5593 45.393 46.5596 44.4138C46.5593 43.4346 46.7519 42.4649 47.1264 41.5601C47.5009 40.6553 48.05 39.8332 48.7424 39.1407C49.4347 38.4482 50.2566 37.8988 51.1613 37.524C52.0659 37.1492 53.0356 36.9563 54.0148 36.9563C54.994 36.9563 55.9637 37.1492 56.8683 37.524C57.773 37.8988 58.5949 38.4482 59.2873 39.1407C59.9796 39.8332 60.5287 40.6553 60.9032 41.5601C61.2777 42.4649 61.4703 43.4346 61.47 44.4138Z" fill="url(#paint24_radial_331_11229)" stroke="#C17D11" stroke-linecap="round" stroke-linejoin="round"/>
<path opacity="0.196203" fill-rule="evenodd" clip-rule="evenodd" d="M60.5535 44.4139C60.5537 45.2727 60.3848 46.1232 60.0563 46.9168C59.7278 47.7104 59.2462 48.4315 58.639 49.0389C58.0317 49.6463 57.3108 50.1281 56.5173 50.4569C55.7239 50.7856 54.8734 50.9548 54.0145 50.9548C53.1557 50.9548 52.3052 50.7856 51.5117 50.4569C50.7183 50.1281 49.9973 49.6463 49.3901 49.0389C48.7829 48.4315 48.3013 47.7104 47.9728 46.9168C47.6443 46.1232 47.4753 45.2727 47.4756 44.4139C47.4753 43.555 47.6443 42.7045 47.9728 41.9109C48.3013 41.1173 48.7829 40.3962 49.3901 39.7888C49.9973 39.1814 50.7183 38.6996 51.5117 38.3709C52.3052 38.0421 53.1557 37.8729 54.0145 37.8729C54.8734 37.8729 55.7239 38.0421 56.5173 38.3709C57.3108 38.6996 58.0317 39.1814 58.639 39.7888C59.2462 40.3962 59.7278 41.1173 60.0563 41.9109C60.3848 42.7045 60.5537 43.555 60.5535 44.4139Z" stroke="white" stroke-linecap="round" stroke-linejoin="round"/>
<path opacity="0.227848" fill-rule="evenodd" clip-rule="evenodd" d="M46.0436 63.1478C44.9698 62.6787 44.4893 61.5484 44.4893 61.5484C45.2133 58.0462 47.6909 55.4839 47.6909 55.4839C47.6909 55.4839 45.7292 61.0021 46.0436 63.1478Z" fill="url(#paint25_linear_331_11229)"/>
<path opacity="0.227848" fill-rule="evenodd" clip-rule="evenodd" d="M62.3155 62.4091C63.3752 61.909 63.8685 60.6857 63.8685 60.6857C63.043 57.206 60.4463 54.7963 60.4463 54.7963C60.4463 54.7963 62.5675 60.2552 62.3155 62.4091Z" fill="url(#paint26_linear_331_11229)"/>
<g style="mix-blend-mode:lighten" opacity="0.5">
<path d="M65.6342 12.5742H30.5127V65.0066C30.5424 67.5898 32.2695 70.1731 35.6941 72.1526C42.5729 76.1265 53.6928 76.1463 60.5271 72.1971C63.9615 70.2176 65.659 67.6096 65.6293 65.0066V12.5742H65.6342Z" fill="url(#paint27_linear_331_11229)"/>
</g>
</g>
<defs>
<radialGradient id="paint0_radial_331_11229" cx="0" cy="0" r="1" gradientUnits="userSpaceOnUse" gradientTransform="translate(87.7682 92.8431) scale(2.68718)">
<stop offset="0.07" stop-color="#FEE2A6"/>
<stop offset="0.14" stop-color="#797782"/>
<stop offset="0.19" stop-color="#1B2B69"/>
<stop offset="0.26" stop-color="#17255B"/>
<stop offset="0.49" stop-color="#0D1533"/>
<stop offset="0.69" stop-color="#060917"/>
<stop offset="0.87" stop-color="#010206"/>
<stop offset="1"/>
</radialGradient>
<radialGradient id="paint1_radial_331_11229" cx="0" cy="0" r="1" gradientUnits="userSpaceOnUse" gradientTransform="translate(98.488 87.5182) scale(2.6872 2.68719)">
<stop offset="0.07" stop-color="#FEE2A6"/>
<stop offset="0.14" stop-color="#797782"/>
<stop offset="0.19" stop-color="#1B2B69"/>
<stop offset="0.26" stop-color="#17255B"/>
<stop offset="0.49" stop-color="#0D1533"/>
<stop offset="0.69" stop-color="#060917"/>
<stop offset="0.87" stop-color="#010206"/>
<stop offset="1"/>
</radialGradient>
<radialGradient id="paint2_radial_331_11229" cx="0" cy="0" r="1" gradientUnits="userSpaceOnUse" gradientTransform="translate(0.120779 59.4141) scale(2.68718)">
<stop offset="0.07" stop-color="#FEE2A6"/>
<stop offset="0.14" stop-color="#797782"/>
<stop offset="0.19" stop-color="#1B2B69"/>
<stop offset="0.26" stop-color="#17255B"/>
<stop offset="0.49" stop-color="#0D1533"/>
<stop offset="0.69" stop-color="#060917"/>
<stop offset="0.87" stop-color="#010206"/>
<stop offset="1"/>
</radialGradient>
<radialGradient id="paint3_radial_331_11229" cx="0" cy="0" r="1" gradientUnits="userSpaceOnUse" gradientTransform="translate(13.0954 45.9288) scale(2.68718)">
<stop offset="0.07" stop-color="#FEE2A6"/>
<stop offset="0.14" stop-color="#797782"/>
<stop offset="0.19" stop-color="#1B2B69"/>
<stop offset="0.26" stop-color="#17255B"/>
<stop offset="0.49" stop-color="#0D1533"/>
<stop offset="0.69" stop-color="#060917"/>
<stop offset="0.87" stop-color="#010206"/>
<stop offset="1"/>
</radialGradient>
<radialGradient id="paint4_radial_331_11229" cx="0" cy="0" r="1" gradientUnits="userSpaceOnUse" gradientTransform="translate(9.17254 54.0894) scale(2.68718)">
<stop offset="0.07" stop-color="#FEE2A6"/>
<stop offset="0.14" stop-color="#797782"/>
<stop offset="0.19" stop-color="#1B2B69"/>
<stop offset="0.26" stop-color="#17255B"/>
<stop offset="0.49" stop-color="#0D1533"/>
<stop offset="0.69" stop-color="#060917"/>
<stop offset="0.87" stop-color="#010206"/>
<stop offset="1"/>
</radialGradient>
<radialGradient id="paint5_radial_331_11229" cx="0" cy="0" r="1" gradientUnits="userSpaceOnUse" gradientTransform="translate(49.7477 -1.78254) scale(2.6872 2.68718)">
<stop offset="0.07" stop-color="#FEE2A6"/>
<stop offset="0.14" stop-color="#797782"/>
<stop offset="0.19" stop-color="#1B2B69"/>
<stop offset="0.26" stop-color="#17255B"/>
<stop offset="0.49" stop-color="#0D1533"/>
<stop offset="0.69" stop-color="#060917"/>
<stop offset="0.87" stop-color="#010206"/>
<stop offset="1"/>
</radialGradient>
<radialGradient id="paint6_radial_331_11229" cx="0" cy="0" r="1" gradientUnits="userSpaceOnUse" gradientTransform="translate(62.7223 11.7028) scale(2.68718)">
<stop offset="0.07" stop-color="#FEE2A6"/>
<stop offset="0.14" stop-color="#797782"/>
<stop offset="0.19" stop-color="#1B2B69"/>
<stop offset="0.26" stop-color="#17255B"/>
<stop offset="0.49" stop-color="#0D1533"/>
<stop offset="0.69" stop-color="#060917"/>
<stop offset="0.87" stop-color="#010206"/>
<stop offset="1"/>
</radialGradient>
<radialGradient id="paint7_radial_331_11229" cx="0" cy="0" r="1" gradientUnits="userSpaceOnUse" gradientTransform="translate(64.7175 23.6739) scale(3.78582)">
<stop offset="0.07" stop-color="#FEE2A6"/>
<stop offset="0.14" stop-color="#797782"/>
<stop offset="0.19" stop-color="#1B2B69"/>
<stop offset="0.26" stop-color="#17255B"/>
<stop offset="0.49" stop-color="#0D1533"/>
<stop offset="0.69" stop-color="#060917"/>
<stop offset="0.87" stop-color="#010206"/>
<stop offset="1"/>
</radialGradient>
<radialGradient id="paint8_radial_331_11229" cx="0" cy="0" r="1" gradientUnits="userSpaceOnUse" gradientTransform="translate(58.7936 3.54217) scale(2.68718 2.68719)">
<stop offset="0.07" stop-color="#FEE2A6"/>
<stop offset="0.14" stop-color="#797782"/>
<stop offset="0.19" stop-color="#1B2B69"/>
<stop offset="0.26" stop-color="#17255B"/>
<stop offset="0.49" stop-color="#0D1533"/>
<stop offset="0.69" stop-color="#060917"/>
<stop offset="0.87" stop-color="#010206"/>
<stop offset="1"/>
</radialGradient>
<radialGradient id="paint9_radial_331_11229" cx="0" cy="0" r="1" gradientUnits="userSpaceOnUse" gradientTransform="translate(71.7692 17.0278) scale(2.6872 2.68719)">
<stop offset="0.07" stop-color="#FEE2A6"/>
<stop offset="0.14" stop-color="#797782"/>
<stop offset="0.19" stop-color="#1B2B69"/>
<stop offset="0.26" stop-color="#17255B"/>
<stop offset="0.49" stop-color="#0D1533"/>
<stop offset="0.69" stop-color="#060917"/>
<stop offset="0.87" stop-color="#010206"/>
<stop offset="1"/>
</radialGradient>
<radialGradient id="paint10_radial_331_11229" cx="0" cy="0" r="1" gradientUnits="userSpaceOnUse" gradientTransform="translate(73.7682 28.9992) scale(3.78582 3.78582)">
<stop offset="0.07" stop-color="#FEE2A6"/>
<stop offset="0.14" stop-color="#797782"/>
<stop offset="0.19" stop-color="#1B2B69"/>
<stop offset="0.26" stop-color="#17255B"/>
<stop offset="0.49" stop-color="#0D1533"/>
<stop offset="0.69" stop-color="#060917"/>
<stop offset="0.87" stop-color="#010206"/>
<stop offset="1"/>
</radialGradient>
<linearGradient id="paint11_linear_331_11229" x1="31.7676" y1="64.0118" x2="64.3751" y2="64.0118" gradientUnits="userSpaceOnUse">
<stop offset="0.07" stop-color="#F7AE14"/>
<stop offset="0.93" stop-color="#FBCC49"/>
</linearGradient>
<linearGradient id="paint12_linear_331_11229" x1="48.0699" y1="68.0797" x2="48.0699" y2="52.6098" gradientUnits="userSpaceOnUse">
<stop offset="0.07" stop-color="#F7AE14"/>
<stop offset="0.93" stop-color="#FBCC49"/>
</linearGradient>
<radialGradient id="paint13_radial_331_11229" cx="0" cy="0" r="1" gradientUnits="userSpaceOnUse" gradientTransform="translate(42.6099 53.8775) scale(13.2368 7.15093)">
<stop/>
<stop offset="1" stop-opacity="0"/>
</radialGradient>
<radialGradient id="paint14_radial_331_11229" cx="0" cy="0" r="1" gradientUnits="userSpaceOnUse" gradientTransform="translate(41.1912 46.7823) scale(11.6754 7.96165)">
<stop stop-color="#727E0A"/>
<stop offset="1" stop-color="#5B6508"/>
</radialGradient>
<radialGradient id="paint15_radial_331_11229" cx="0" cy="0" r="1" gradientUnits="userSpaceOnUse" gradientTransform="translate(42.6095 41.4013) scale(7.45523 7.45523)">
<stop/>
<stop offset="1" stop-opacity="0"/>
</radialGradient>
<radialGradient id="paint16_radial_331_11229" cx="0" cy="0" r="1" gradientUnits="userSpaceOnUse" gradientTransform="translate(41.1965 36.7154) scale(6.21381 6.21381)">
<stop stop-color="#E9B15E"/>
<stop offset="1" stop-color="#966416"/>
</radialGradient>
<linearGradient id="paint17_linear_331_11229" x1="43.1735" y1="47.4647" x2="43.1735" y2="52.844" gradientUnits="userSpaceOnUse">
<stop stop-color="white"/>
<stop offset="1" stop-color="#C9C9C9"/>
</linearGradient>
<linearGradient id="paint18_linear_331_11229" x1="33.0381" y1="53.1418" x2="34.6389" y2="53.7873" gradientUnits="userSpaceOnUse">
<stop/>
<stop offset="1" stop-opacity="0"/>
</linearGradient>
<linearGradient id="paint19_linear_331_11229" x1="50.7062" y1="53.2073" x2="51.6642" y2="52.4286" gradientUnits="userSpaceOnUse">
<stop/>
<stop offset="1" stop-opacity="0"/>
</linearGradient>
<radialGradient id="paint20_radial_331_11229" cx="0" cy="0" r="1" gradientUnits="userSpaceOnUse" gradientTransform="translate(53.9068 61.9464) scale(13.2368 4.35374)">
<stop/>
<stop offset="1" stop-opacity="0"/>
</radialGradient>
<radialGradient id="paint21_radial_331_11229" cx="0" cy="0" r="1" gradientUnits="userSpaceOnUse" gradientTransform="translate(51.4122 53.0222) scale(15.1496 10.3307)">
<stop stop-color="#3B74BC"/>
<stop offset="1" stop-color="#2D5990"/>
</radialGradient>
<linearGradient id="paint22_linear_331_11229" x1="53.8625" y1="53.4895" x2="53.8625" y2="58.8687" gradientUnits="userSpaceOnUse">
<stop stop-color="white"/>
<stop offset="1" stop-color="#C9C9C9"/>
</linearGradient>
<radialGradient id="paint23_radial_331_11229" cx="0" cy="0" r="1" gradientUnits="userSpaceOnUse" gradientTransform="translate(53.9064 47.4261) scale(7.45523 7.45523)">
<stop/>
<stop offset="1" stop-opacity="0"/>
</radialGradient>
<radialGradient id="paint24_radial_331_11229" cx="0" cy="0" r="1" gradientUnits="userSpaceOnUse" gradientTransform="translate(52.4933 42.7402) scale(6.21381 6.21381)">
<stop stop-color="#F4D9B1"/>
<stop offset="1" stop-color="#DF9725"/>
</radialGradient>
<linearGradient id="paint25_linear_331_11229" x1="44.4893" y1="59.3158" x2="46.0901" y2="59.9613" gradientUnits="userSpaceOnUse">
<stop/>
<stop offset="1" stop-opacity="0"/>
</linearGradient>
<linearGradient id="paint26_linear_331_11229" x1="62.1574" y1="59.3814" x2="63.1154" y2="58.6027" gradientUnits="userSpaceOnUse">
<stop/>
<stop offset="1" stop-opacity="0"/>
</linearGradient>
<linearGradient id="paint27_linear_331_11229" x1="48.071" y1="69.1041" x2="52.369" y2="1.20017" gradientUnits="userSpaceOnUse">
<stop offset="0.207767" stop-color="#42E8E0"/>
<stop offset="0.292973" stop-color="#36B5BF"/>
<stop offset="0.408478" stop-color="#2C87A0"/>
<stop offset="0.519891" stop-color="#235F86"/>
<stop offset="0.642619" stop-color="#1B3E71"/>
<stop offset="0.74" stop-color="#162560" stop-opacity="0"/>
<stop offset="0.82" stop-color="#121355" stop-opacity="0"/>
<stop offset="0.91" stop-color="#0F084E" stop-opacity="0"/>
<stop offset="1" stop-color="#0F054C" stop-opacity="0"/>
</linearGradient>
<clipPath id="clip0_331_11229">
<rect width="96" height="96" fill="white"/>
</clipPath>
</defs>
</svg>
