<svg width="96" height="96" viewBox="0 0 96 96" fill="none" xmlns="http://www.w3.org/2000/svg">
<g style="mix-blend-mode:difference">
<path d="M86.4282 56.4918L74.3516 61.691L74.2721 59.4098L74.2547 58.9101L73.7549 58.9275L52.6041 59.6664L52.5297 57.5346L52.511 57.001L51.9798 57.0546C50.6112 57.1928 49.2093 57.2918 47.7818 57.3413L47.7817 57.3413C41.4288 57.5629 35.5383 56.8399 30.7497 55.4425C25.9459 54.0407 22.3132 51.9789 20.4 49.5724L19.9457 49.0009C19.7887 48.761 19.6515 48.5021 19.5324 48.2369L19.528 48.2271L19.5232 48.2174C19.1974 47.5684 18.9995 46.8958 18.9247 46.2079L18.9238 46.1995L18.9226 46.1912L18.9072 46.0833L18.9066 46.0794V46.0177V45.9977L18.905 45.9778C18.903 45.9519 18.9003 45.9281 18.898 45.9089L18.8946 45.8818L18.8919 45.8596C18.8903 45.8461 18.8893 45.837 18.8888 45.8301C18.8882 45.8234 18.8882 45.8207 18.8882 45.8207V45.8121L18.8879 45.8035C18.8809 45.5979 18.8878 45.3917 18.905 45.1811L18.9066 45.1609V45.1406V41.1645L19.8613 41.6208L20.2244 41.7944L20.4715 41.4768C22.3149 39.1078 25.685 36.9623 30.1288 35.3336L29.9392 34.3644L21.0731 34.6743L20.5735 34.6918L20.5909 35.1915L20.6705 37.4727L8.25882 33.1275L20.3354 27.9283L20.415 30.2095L20.4324 30.7092L20.9321 30.6918L42.0829 29.9529L42.1573 32.0847L42.176 32.6183L42.7073 32.5647C44.0758 32.4265 45.4777 32.3275 46.9052 32.278L46.9054 32.278C53.3836 32.0512 59.3817 32.8075 64.2203 34.2594C69.0761 35.7165 72.6947 37.8527 74.5031 40.33L75.1944 41.2771L75.3992 40.1225L75.7201 38.3133C75.9746 39.4751 76.1467 41.251 75.7986 43.6831L75.7935 43.7183V43.7539C75.7935 43.7731 75.7945 43.7891 75.7952 43.799C75.7957 43.8061 75.7962 43.8127 75.7966 43.8168C75.8297 44.7142 75.6365 45.6051 75.2349 46.4818L75.2348 46.4821C73.8627 49.4834 70.0427 52.2688 64.5582 54.2805L64.7478 55.2496L73.6139 54.9397L74.1135 54.9222L74.0961 54.4226L74.0168 52.1467L86.4282 56.4918Z" fill="url(#paint0_linear_331_11955)" stroke="black"/>
<path d="M20.6927 37.4763L7.37988 32.818V29.1397L20.6927 33.798V37.4763Z" fill="url(#paint1_linear_331_11955)" stroke="black"/>
<path d="M87.3038 52.4604V56.1094L74.377 61.6746V58.0256L87.3038 52.4604Z" fill="url(#paint2_linear_331_11955)" stroke="black"/>
</g>
<path d="M87.8046 51.7008L73.4917 46.6899L73.5968 49.7022L51.9463 50.4586L52.1196 55.4405L73.7727 54.6842L73.8778 57.6964L87.8046 51.7008Z" fill="url(#paint3_linear_331_11955)"/>
<path d="M20.9144 25.4491L20.8093 22.4395L6.87988 28.4351L21.1927 33.4433L21.0877 30.4337L42.7382 29.6773L42.5648 24.6954L20.9144 25.4491Z" fill="url(#paint4_linear_331_11955)"/>
<path d="M47.7974 53.0978C63.7887 52.5393 76.5484 46.2524 76.2971 39.0554C76.0458 31.8584 62.8786 26.4768 46.8873 27.0353C30.8961 27.5937 18.1364 33.8807 18.3877 41.0776C18.639 48.2746 31.8062 53.6562 47.7974 53.0978Z" fill="white"/>
<path d="M53.6918 39.846L39.3789 34.8352L39.7623 45.8417L53.6918 39.846Z" fill="url(#paint5_linear_331_11955)"/>
<path d="M61.4632 39.5755L47.1504 34.5647L47.5338 45.5712L61.4632 39.5755Z" fill="url(#paint6_linear_331_11955)"/>
<defs>
<linearGradient id="paint0_linear_331_11955" x1="9.47226" y1="44.8044" x2="90.3963" y2="44.8044" gradientUnits="userSpaceOnUse">
<stop offset="0.32" stop-color="#972A74"/>
<stop offset="0.34" stop-color="#8A266A"/>
<stop offset="0.45" stop-color="#601A49"/>
<stop offset="0.55" stop-color="#3D112F"/>
<stop offset="0.66" stop-color="#22091A"/>
<stop offset="0.77" stop-color="#0F040B"/>
<stop offset="0.88" stop-color="#030102"/>
<stop offset="1"/>
</linearGradient>
<linearGradient id="paint1_linear_331_11955" x1="4.94962" y1="30.2078" x2="25.7466" y2="37.3011" gradientUnits="userSpaceOnUse">
<stop offset="0.28" stop-color="#972A74"/>
<stop offset="0.31" stop-color="#8A266A"/>
<stop offset="0.42" stop-color="#601A49"/>
<stop offset="0.53" stop-color="#3D112F"/>
<stop offset="0.64" stop-color="#22091A"/>
<stop offset="0.76" stop-color="#0F040B"/>
<stop offset="0.88" stop-color="#030102"/>
<stop offset="1"/>
</linearGradient>
<linearGradient id="paint2_linear_331_11955" x1="73.8192" y1="60.0916" x2="90.212" y2="53.0297" gradientUnits="userSpaceOnUse">
<stop stop-color="#972A74"/>
<stop offset="0.13" stop-color="#8B266B"/>
<stop offset="0.37" stop-color="#6C1E53"/>
<stop offset="0.68" stop-color="#3A102C"/>
<stop offset="1"/>
</linearGradient>
<linearGradient id="paint3_linear_331_11955" x1="98.9177" y1="51.3121" x2="48.1997" y2="53.0832" gradientUnits="userSpaceOnUse">
<stop offset="0.51" stop-color="#23B277"/>
<stop offset="0.69" stop-color="#156D48" stop-opacity="0.62"/>
<stop offset="1" stop-opacity="0.03"/>
</linearGradient>
<linearGradient id="paint4_linear_331_11955" x1="6.88052" y1="28.4338" x2="42.6513" y2="27.1846" gradientUnits="userSpaceOnUse">
<stop offset="0.44" stop-color="#23B277"/>
<stop offset="0.65" stop-color="#156D48" stop-opacity="0.62"/>
<stop offset="1" stop-opacity="0.03"/>
</linearGradient>
<linearGradient id="paint5_linear_331_11955" x1="46.402" y1="33.5362" x2="46.8632" y2="46.7454" gradientUnits="userSpaceOnUse">
<stop offset="0.44" stop-color="#F9A242"/>
<stop offset="0.78" stop-color="#FCDBB6" stop-opacity="0.38"/>
<stop offset="1" stop-color="white" stop-opacity="0"/>
</linearGradient>
<linearGradient id="paint6_linear_331_11955" x1="54.2289" y1="34.838" x2="54.5891" y2="45.1536" gradientUnits="userSpaceOnUse">
<stop offset="0.44" stop-color="#23B277"/>
<stop offset="0.64" stop-color="#72CDA7" stop-opacity="0.65"/>
<stop offset="1" stop-color="white" stop-opacity="0.03"/>
</linearGradient>
</defs>
</svg>
