<svg width="96" height="96" viewBox="0 0 96 96" fill="none" xmlns="http://www.w3.org/2000/svg">
<g clip-path="url(#clip0_331_11457)">
<path style="mix-blend-mode:color-dodge" d="M74.5699 82.1072C75.7886 82.1072 76.7765 81.1192 76.7765 79.9006C76.7765 78.6819 75.7886 77.694 74.5699 77.694C73.3512 77.694 72.3633 78.6819 72.3633 79.9006C72.3633 81.1192 73.3512 82.1072 74.5699 82.1072Z" fill="url(#paint0_radial_331_11457)"/>
<path style="mix-blend-mode:color-dodge" d="M85.2212 71.0376C86.4399 71.0376 87.4279 70.0497 87.4279 68.831C87.4279 67.6123 86.4399 66.6244 85.2212 66.6244C84.0026 66.6244 83.0146 67.6123 83.0146 68.831C83.0146 70.0497 84.0026 71.0376 85.2212 71.0376Z" fill="url(#paint1_radial_331_11457)"/>
<path style="mix-blend-mode:color-dodge" d="M88.2357 62.1095C89.9526 62.1095 91.3445 60.7176 91.3445 59.0007C91.3445 57.2838 89.9526 55.892 88.2357 55.892C86.5188 55.892 85.127 57.2838 85.127 59.0007C85.127 60.7176 86.5188 62.1095 88.2357 62.1095Z" fill="url(#paint2_radial_331_11457)"/>
<path style="mix-blend-mode:color-dodge" d="M83.3717 77.7347C84.5903 77.7347 85.5783 76.7468 85.5783 75.5281C85.5783 74.3095 84.5903 73.3215 83.3717 73.3215C82.153 73.3215 81.165 74.3095 81.165 75.5281C81.165 76.7468 82.153 77.7347 83.3717 77.7347Z" fill="url(#paint3_radial_331_11457)"/>
<path style="mix-blend-mode:color-dodge" d="M92.649 66.665C93.8677 66.665 94.8556 65.6771 94.8556 64.4584C94.8556 63.2398 93.8677 62.2518 92.649 62.2518C91.4303 62.2518 90.4424 63.2398 90.4424 64.4584C90.4424 65.6771 91.4303 66.665 92.649 66.665Z" fill="url(#paint4_radial_331_11457)"/>
<path style="mix-blend-mode:color-dodge" d="M95.6644 57.737C97.3813 57.737 98.7732 56.3452 98.7732 54.6283C98.7732 52.9114 97.3813 51.5195 95.6644 51.5195C93.9475 51.5195 92.5557 52.9114 92.5557 54.6283C92.5557 56.3452 93.9475 57.737 95.6644 57.737Z" fill="url(#paint5_radial_331_11457)"/>
<path style="mix-blend-mode:color-dodge" d="M2.59723 54.6569C3.8159 54.6569 4.80383 53.6689 4.80383 52.4503C4.80383 51.2316 3.8159 50.2437 2.59723 50.2437C1.37855 50.2437 0.390625 51.2316 0.390625 52.4503C0.390625 53.6689 1.37855 54.6569 2.59723 54.6569Z" fill="url(#paint6_radial_331_11457)"/>
<path style="mix-blend-mode:color-dodge" d="M13.2525 43.5831C14.4712 43.5831 15.4591 42.5952 15.4591 41.3765C15.4591 40.1578 14.4712 39.1699 13.2525 39.1699C12.0338 39.1699 11.0459 40.1578 11.0459 41.3765C11.0459 42.5952 12.0338 43.5831 13.2525 43.5831Z" fill="url(#paint7_radial_331_11457)"/>
<path style="mix-blend-mode:color-dodge" d="M10.0298 50.2843C11.2485 50.2843 12.2364 49.2964 12.2364 48.0777C12.2364 46.859 11.2485 45.8711 10.0298 45.8711C8.81117 45.8711 7.82324 46.859 7.82324 48.0777C7.82324 49.2964 8.81117 50.2843 10.0298 50.2843Z" fill="url(#paint8_radial_331_11457)"/>
<path style="mix-blend-mode:color-dodge" d="M43.3482 4.40478C44.5669 4.40478 45.5548 3.41685 45.5548 2.19818C45.5548 0.979505 44.5669 -0.00842285 43.3482 -0.00842285C42.1295 -0.00842285 41.1416 0.979505 41.1416 2.19818C41.1416 3.41685 42.1295 4.40478 43.3482 4.40478Z" fill="url(#paint9_radial_331_11457)"/>
<path style="mix-blend-mode:color-dodge" d="M54.0035 15.4784C55.2222 15.4784 56.2101 14.4905 56.2101 13.2718C56.2101 12.0531 55.2222 11.0652 54.0035 11.0652C52.7848 11.0652 51.7969 12.0531 51.7969 13.2718C51.7969 14.4905 52.7848 15.4784 54.0035 15.4784Z" fill="url(#paint10_radial_331_11457)"/>
<path style="mix-blend-mode:color-dodge" d="M55.641 26.2105C57.3579 26.2105 58.7497 24.8187 58.7497 23.1018C58.7497 21.3849 57.3579 19.993 55.641 19.993C53.924 19.993 52.5322 21.3849 52.5322 23.1018C52.5322 24.8187 53.924 26.2105 55.641 26.2105Z" fill="url(#paint11_radial_331_11457)"/>
<path style="mix-blend-mode:color-dodge" d="M50.7769 8.77723C51.9956 8.77723 52.9835 7.7893 52.9835 6.57063C52.9835 5.35195 51.9956 4.36401 50.7769 4.36401C49.5582 4.36401 48.5703 5.35195 48.5703 6.57063C48.5703 7.7893 49.5582 8.77723 50.7769 8.77723Z" fill="url(#paint12_radial_331_11457)"/>
<path style="mix-blend-mode:color-dodge" d="M61.4322 19.8508C62.6509 19.8508 63.6388 18.8629 63.6388 17.6442C63.6388 16.4256 62.6509 15.4376 61.4322 15.4376C60.2135 15.4376 59.2256 16.4256 59.2256 17.6442C59.2256 18.8629 60.2135 19.8508 61.4322 19.8508Z" fill="url(#paint13_radial_331_11457)"/>
<path style="mix-blend-mode:color-dodge" d="M63.0736 30.5831C64.7905 30.5831 66.1823 29.1913 66.1823 27.4743C66.1823 25.7574 64.7905 24.3656 63.0736 24.3656C61.3567 24.3656 59.9648 25.7574 59.9648 27.4743C59.9648 29.1913 61.3567 30.5831 63.0736 30.5831Z" fill="url(#paint14_radial_331_11457)"/>
<path d="M51.126 5.80237L41.2471 42.701L60.753 23.6299L51.126 5.80237Z" fill="url(#paint15_linear_331_11457)"/>
<path d="M46.2655 5.56262L36.3906 42.4653L55.8965 23.3943L46.2655 5.56262Z" fill="url(#paint16_linear_331_11457)"/>
<path d="M53.7518 56.6394C53.7591 56.5395 53.736 56.4396 53.6863 56.3532L53.9014 56.4773C53.8629 56.5441 53.8114 56.5985 53.7518 56.6394ZM53.7518 56.6394C53.6685 56.6967 53.5695 56.7273 53.4688 56.7274L53.6861 56.8529C53.7251 56.7853 53.7465 56.7124 53.7518 56.6394ZM59.7552 60.3568L61.9237 61.6088C61.9622 61.5421 62.0137 61.4876 62.0733 61.4467C62.0786 61.3738 62.1 61.3009 62.139 61.2333L59.9705 59.9813M59.9705 59.9813C59.932 60.048 59.8804 60.1025 59.8209 60.1434C59.8282 60.0435 59.8051 59.9435 59.7554 59.8571L59.9705 59.9813ZM41.0009 87.6276C40.941 87.6686 40.889 87.7233 40.8503 87.7903L38.6818 86.5384C38.7187 86.4744 38.7399 86.4056 38.7466 86.3366C38.8065 86.2957 38.8584 86.241 38.8971 86.1739L41.0657 87.4259C41.0287 87.4898 41.0075 87.5586 41.0009 87.6276ZM32.8281 82.6699L34.9966 83.9219C34.9596 83.9859 34.9385 84.0546 34.9318 84.1237C34.8719 84.1646 34.8199 84.2193 34.7812 84.2864L32.6127 83.0344C32.6496 82.9704 32.6708 82.9017 32.6775 82.8327C32.7374 82.7917 32.7893 82.737 32.8281 82.6699ZM26.759 79.166L28.9275 80.418C28.8906 80.482 28.8694 80.5507 28.8627 80.6197C28.8028 80.6607 28.7509 80.7154 28.7121 80.7825L26.5436 79.5305C26.5806 79.4665 26.6017 79.3978 26.6084 79.3287C26.6683 79.2878 26.7203 79.2331 26.759 79.166ZM20.6899 75.6621L22.8584 76.914C22.8215 76.978 22.8003 77.0467 22.7937 77.1158C22.7337 77.1567 22.6818 77.2114 22.643 77.2785L20.4745 76.0265C20.5115 75.9626 20.5327 75.8938 20.5393 75.8248C20.5993 75.7838 20.6512 75.7291 20.6899 75.6621ZM17.4251 74.0603C17.237 73.8657 17.0785 73.6618 16.951 73.4506C16.9867 73.4332 17.0195 73.4119 17.049 73.3876C17.1404 73.4053 17.2377 73.3978 17.3304 73.3606C17.347 73.3539 17.3631 73.3464 17.3786 73.3382C17.4764 73.4851 17.5923 73.628 17.7258 73.7662C17.7189 73.7738 17.7122 73.7817 17.7057 73.7898C17.6719 73.8322 17.646 73.8784 17.628 73.9266C17.5525 73.953 17.4824 73.9978 17.4251 74.0603ZM17.7228 70.5141C17.5902 70.652 17.4749 70.7947 17.3776 70.9412C17.3621 70.933 17.3461 70.9256 17.3295 70.9189C17.2409 70.8834 17.1482 70.8751 17.0606 70.8899C17.028 70.8614 16.9914 70.8368 16.951 70.8171C17.0785 70.6059 17.237 70.402 17.4251 70.2074C17.4801 70.2674 17.5468 70.3111 17.6188 70.3378C17.6371 70.3918 17.6649 70.4435 17.7027 70.4906C17.7092 70.4987 17.7159 70.5065 17.7228 70.5141ZM22.8529 67.3647L20.6844 68.6167C20.6471 68.5521 20.5977 68.4991 20.5406 68.4587C20.5358 68.3844 20.5143 68.31 20.4745 68.2412L22.643 66.9892C22.6803 67.0537 22.7298 67.1068 22.7869 67.1472C22.7916 67.2215 22.8132 67.2959 22.8529 67.3647ZM28.922 63.8608L26.7535 65.1127C26.7162 65.0482 26.6667 64.9951 26.6097 64.9547C26.6049 64.8804 26.5834 64.8061 26.5436 64.7372L28.7121 63.4852C28.7494 63.5498 28.7989 63.6029 28.8559 63.6433C28.8607 63.7176 28.8822 63.7919 28.922 63.8608ZM34.9911 60.3568L32.8226 61.6088C32.7853 61.5443 32.7358 61.4912 32.6787 61.4508C32.674 61.3765 32.6525 61.3021 32.6127 61.2333L34.7812 59.9813C34.8185 60.0458 34.868 60.0989 34.925 60.1393C34.9298 60.2136 34.9513 60.288 34.9911 60.3568ZM41.0602 56.8529L38.8916 58.1048C38.8544 58.0403 38.8049 57.9872 38.7478 57.9468C38.7431 57.8725 38.7215 57.7982 38.6818 57.7293L40.8503 56.4773C40.8876 56.5419 40.937 56.595 40.9941 56.6354C40.9989 56.7097 41.0204 56.784 41.0602 56.8529ZM49.1326 54.8315C47.9863 54.6359 46.7605 54.6366 45.6142 54.8327C45.6134 54.8284 45.6125 54.8241 45.6115 54.8198C45.5934 54.7394 45.5569 54.668 45.5074 54.6089C45.5194 54.5469 45.5198 54.4817 45.5068 54.4162C46.7238 54.2052 48.0279 54.2052 49.245 54.4162C49.2323 54.4797 49.2323 54.5428 49.2433 54.6031C49.1918 54.663 49.1539 54.7361 49.1354 54.8185C49.1344 54.8228 49.1335 54.8271 49.1326 54.8315ZM56.0699 57.7293C56.0309 57.7969 56.0095 57.8698 56.0042 57.9428C55.9446 57.9837 55.8931 58.0381 55.8546 58.1048L56.0699 57.7293Z" stroke="#42E8E0" stroke-linecap="round" stroke-dasharray="4 4"/>
<path d="M47.1401 84.3302C45.921 84.3302 44.7019 84.062 43.7754 83.5255L25.9112 73.2118C24.9847 72.6754 24.4727 71.9521 24.4727 71.1759C24.4727 70.3997 24.9847 69.6764 25.9112 69.14L43.7754 58.8262C45.6325 57.7534 48.6518 57.7534 50.5089 58.8262L68.3731 69.14C69.2996 69.6764 69.8117 70.3997 69.8117 71.1759C69.8117 71.9521 69.2996 72.6754 68.3731 73.2118L50.5089 83.5255C49.5783 84.062 48.3633 84.3302 47.1401 84.3302ZM43.9298 83.2574C45.7016 84.2773 48.5828 84.2773 50.3505 83.2574L68.2146 72.9436C69.0395 72.4682 69.4947 71.8423 69.4947 71.18C69.4947 70.5176 69.0395 69.8958 68.2146 69.4163L50.3505 59.1026C48.5787 58.0785 45.7016 58.0826 43.9298 59.1026L26.0656 69.4163C25.2407 69.8918 24.7855 70.5176 24.7855 71.18C24.7855 71.8423 25.2407 72.4682 26.0697 72.9436L43.9338 83.2574H43.9298Z" fill="#42E8E0"/>
<path opacity="0.4" d="M70.3646 67.222V61.1061L69.2471 60.4844C68.9301 62.3943 66.6828 63.6541 64.8013 63.9141L52.0006 71.3995L46.413 73.4151L28.5813 64.2149L28.9918 63.9751C27.4679 63.2639 26.647 61.6344 25.822 60.1511L24.6233 60.8663L23.9121 61.0655V67.287C23.9121 68.0795 24.4363 68.8719 25.4807 69.4774L43.3449 79.7911C45.4377 80.9981 48.839 80.9981 50.9318 79.7911L68.796 69.4774C69.8241 68.8841 70.3483 68.1079 70.3646 67.3277C70.3646 67.2911 70.3646 67.2586 70.3646 67.222Z" fill="#42E8E0"/>
<path d="M70.3656 61.7847V57.7372L69.248 57.1154C68.9311 59.0254 66.6838 60.2852 64.8023 60.5452L52.0016 68.0306L46.4139 70.0462L28.5823 60.846L28.9927 60.6062C27.4688 59.895 26.648 58.2655 25.823 56.7822L24.6242 57.4974L23.9131 57.6966V61.8456C23.9131 62.6381 24.4373 63.4305 25.4817 64.036L43.3458 74.3497C45.4387 75.5566 48.84 75.5566 50.9328 74.3497L68.7969 64.036C69.8251 63.4427 70.3493 62.6665 70.3656 61.8863C70.3656 61.8497 70.3656 61.8172 70.3656 61.7806V61.7847Z" fill="url(#paint17_linear_331_11457)"/>
<path opacity="0.3" d="M64.8026 60.5453L52.0018 68.0307L47.1416 69.7862V75.2601C48.5151 75.2601 49.8887 74.9593 50.9371 74.3538L68.8013 64.0401C69.8294 63.4468 70.3536 62.6706 70.3699 61.8904C70.3699 61.8538 70.3699 61.8213 70.3699 61.7847V57.7373L69.3458 57.1683H69.2402C68.8907 59.0498 66.6678 60.2852 64.8066 60.5453H64.8026Z" fill="#0F054C"/>
<path d="M28.9974 60.6063L45.9268 50.833C46.5974 50.447 47.6864 50.447 48.357 50.833L64.9898 60.4356L64.8069 60.5453C66.6844 60.2852 68.9357 59.0255 69.2527 57.1155L50.5879 46.7327L45.1588 45.2982L40.7375 47.899L25.8398 56.7823C26.6648 58.2696 27.4856 59.8951 29.0095 60.6063H28.9974Z" fill="url(#paint18_linear_331_11457)"/>
<path opacity="0.3" d="M47.1412 45.8224L45.15 45.2982L40.7287 47.899L25.8311 56.7823C26.656 58.2696 27.4769 59.8951 29.0008 60.6063L45.9303 50.833C46.2635 50.638 46.7064 50.5445 47.1453 50.5445V45.8224H47.1412Z" fill="#0F054C"/>
<path d="M43.3459 70.2413L25.4817 59.9275C23.3889 58.7206 23.3889 56.7537 25.4817 55.5468L43.3459 45.2331C45.4387 44.0261 48.84 44.0261 50.9329 45.2331L68.797 55.5468C70.8898 56.7537 70.8898 58.7206 68.797 59.9275L50.9329 70.2413C48.84 71.4482 45.4387 71.4482 43.3459 70.2413ZM48.3524 46.7204C47.6819 46.3343 46.5928 46.3343 45.9223 46.7204L28.0581 57.0341C27.3876 57.4202 27.3876 58.0501 28.0581 58.4361L45.9223 68.7499C46.5928 69.1359 47.6819 69.1359 48.3524 68.7499L66.2165 58.4361C66.887 58.0501 66.887 57.4202 66.2165 57.0341L48.3524 46.7204Z" fill="url(#paint19_linear_331_11457)"/>
<path d="M66.217 57.0341L48.3529 46.7203C47.6824 46.3343 46.5933 46.3343 45.9228 46.7203L28.0586 57.0341C27.6116 57.2901 27.4653 57.6558 27.6157 57.989C27.6888 57.8224 27.8392 57.668 28.0586 57.538L45.9228 47.2242C46.5933 46.8382 47.6824 46.8382 48.3529 47.2242L66.217 57.538C66.4405 57.668 66.5868 57.8224 66.66 57.989C66.8103 57.6599 66.66 57.2941 66.217 57.0341Z" fill="white"/>
<path d="M68.798 59.9274L50.9339 70.2412C48.8411 71.4481 45.4397 71.4481 43.3469 70.2412L25.4827 59.9274C24.5481 59.3869 24.032 58.6961 23.9345 57.989C23.8126 58.8627 24.3286 59.7649 25.4827 60.4313L43.3469 70.7451C45.4397 71.952 48.8411 71.952 50.9339 70.7451L68.798 60.4313C69.9562 59.7649 70.4723 58.8627 70.3463 57.989C70.2488 58.6961 69.7327 59.3869 68.798 59.9274Z" fill="white"/>
<path d="M43.8495 69.9488L25.9853 59.6351C24.1729 58.5867 24.1729 56.884 25.9853 55.8396L43.8495 45.5258C45.6619 44.4774 48.6121 44.4774 50.4286 45.5258L68.2928 55.8396C70.1052 56.888 70.1052 58.5907 68.2928 59.6351L50.4286 69.9488C48.6162 70.9973 45.6659 70.9973 43.8495 69.9488ZM48.86 46.432C47.9132 45.8834 46.369 45.8834 45.4221 46.432L27.558 56.7458C26.6111 57.2944 26.6111 58.1843 27.558 58.7289L45.4221 69.0426C46.369 69.5912 47.9132 69.5912 48.86 69.0426L66.7242 58.7289C67.671 58.1803 67.671 57.2903 66.7242 56.7458L48.86 46.432Z" fill="url(#paint20_linear_331_11457)"/>
<path opacity="0.4" d="M48.3518 46.7203C47.6813 46.3343 46.5922 46.3343 45.9217 46.7203L28.0576 57.0341C27.3871 57.4201 27.3871 58.05 28.0576 58.436L45.9217 68.7498C46.5922 69.1358 47.6813 69.1358 48.3518 68.7498L66.216 58.436C66.8865 58.05 66.8865 57.4201 66.216 57.0341L48.3518 46.7203Z" fill="#42E8E0"/>
<path style="mix-blend-mode:lighten" opacity="0.5" d="M66.7147 57.7209V-5.99023H27.5566V57.7209C27.5566 57.981 27.7192 58.241 28.0605 58.4361L45.9247 68.7498C46.5952 69.1359 47.6843 69.1359 48.3548 68.7498L66.219 58.4361C66.5603 58.241 66.7269 57.981 66.7188 57.7209H66.7147Z" fill="url(#paint21_linear_331_11457)"/>
</g>
<defs>
<radialGradient id="paint0_radial_331_11457" cx="0" cy="0" r="1" gradientUnits="userSpaceOnUse" gradientTransform="translate(74.5699 79.9006) scale(2.2066)">
<stop offset="0.07" stop-color="#FEE2A6"/>
<stop offset="0.14" stop-color="#797782"/>
<stop offset="0.19" stop-color="#1B2B69"/>
<stop offset="0.26" stop-color="#17255B"/>
<stop offset="0.49" stop-color="#0D1533"/>
<stop offset="0.69" stop-color="#060917"/>
<stop offset="0.87" stop-color="#010206"/>
<stop offset="1"/>
</radialGradient>
<radialGradient id="paint1_radial_331_11457" cx="0" cy="0" r="1" gradientUnits="userSpaceOnUse" gradientTransform="translate(85.2212 68.831) scale(2.2066)">
<stop offset="0.07" stop-color="#FEE2A6"/>
<stop offset="0.14" stop-color="#797782"/>
<stop offset="0.19" stop-color="#1B2B69"/>
<stop offset="0.26" stop-color="#17255B"/>
<stop offset="0.49" stop-color="#0D1533"/>
<stop offset="0.69" stop-color="#060917"/>
<stop offset="0.87" stop-color="#010206"/>
<stop offset="1"/>
</radialGradient>
<radialGradient id="paint2_radial_331_11457" cx="0" cy="0" r="1" gradientUnits="userSpaceOnUse" gradientTransform="translate(88.2357 59.0007) scale(3.10876 3.10875)">
<stop offset="0.07" stop-color="#FEE2A6"/>
<stop offset="0.14" stop-color="#797782"/>
<stop offset="0.19" stop-color="#1B2B69"/>
<stop offset="0.26" stop-color="#17255B"/>
<stop offset="0.49" stop-color="#0D1533"/>
<stop offset="0.69" stop-color="#060917"/>
<stop offset="0.87" stop-color="#010206"/>
<stop offset="1"/>
</radialGradient>
<radialGradient id="paint3_radial_331_11457" cx="0" cy="0" r="1" gradientUnits="userSpaceOnUse" gradientTransform="translate(83.3717 75.5281) scale(2.20661 2.20661)">
<stop offset="0.07" stop-color="#FEE2A6"/>
<stop offset="0.14" stop-color="#797782"/>
<stop offset="0.19" stop-color="#1B2B69"/>
<stop offset="0.26" stop-color="#17255B"/>
<stop offset="0.49" stop-color="#0D1533"/>
<stop offset="0.69" stop-color="#060917"/>
<stop offset="0.87" stop-color="#010206"/>
<stop offset="1"/>
</radialGradient>
<radialGradient id="paint4_radial_331_11457" cx="0" cy="0" r="1" gradientUnits="userSpaceOnUse" gradientTransform="translate(92.649 64.4584) scale(2.2066)">
<stop offset="0.07" stop-color="#FEE2A6"/>
<stop offset="0.14" stop-color="#797782"/>
<stop offset="0.19" stop-color="#1B2B69"/>
<stop offset="0.26" stop-color="#17255B"/>
<stop offset="0.49" stop-color="#0D1533"/>
<stop offset="0.69" stop-color="#060917"/>
<stop offset="0.87" stop-color="#010206"/>
<stop offset="1"/>
</radialGradient>
<radialGradient id="paint5_radial_331_11457" cx="0" cy="0" r="1" gradientUnits="userSpaceOnUse" gradientTransform="translate(95.6644 54.6283) scale(3.10875)">
<stop offset="0.07" stop-color="#FEE2A6"/>
<stop offset="0.14" stop-color="#797782"/>
<stop offset="0.19" stop-color="#1B2B69"/>
<stop offset="0.26" stop-color="#17255B"/>
<stop offset="0.49" stop-color="#0D1533"/>
<stop offset="0.69" stop-color="#060917"/>
<stop offset="0.87" stop-color="#010206"/>
<stop offset="1"/>
</radialGradient>
<radialGradient id="paint6_radial_331_11457" cx="0" cy="0" r="1" gradientUnits="userSpaceOnUse" gradientTransform="translate(2.59723 52.4503) scale(2.2066)">
<stop offset="0.07" stop-color="#FEE2A6"/>
<stop offset="0.14" stop-color="#797782"/>
<stop offset="0.19" stop-color="#1B2B69"/>
<stop offset="0.26" stop-color="#17255B"/>
<stop offset="0.49" stop-color="#0D1533"/>
<stop offset="0.69" stop-color="#060917"/>
<stop offset="0.87" stop-color="#010206"/>
<stop offset="1"/>
</radialGradient>
<radialGradient id="paint7_radial_331_11457" cx="0" cy="0" r="1" gradientUnits="userSpaceOnUse" gradientTransform="translate(13.2525 41.3765) scale(2.2066)">
<stop offset="0.07" stop-color="#FEE2A6"/>
<stop offset="0.14" stop-color="#797782"/>
<stop offset="0.19" stop-color="#1B2B69"/>
<stop offset="0.26" stop-color="#17255B"/>
<stop offset="0.49" stop-color="#0D1533"/>
<stop offset="0.69" stop-color="#060917"/>
<stop offset="0.87" stop-color="#010206"/>
<stop offset="1"/>
</radialGradient>
<radialGradient id="paint8_radial_331_11457" cx="0" cy="0" r="1" gradientUnits="userSpaceOnUse" gradientTransform="translate(10.0298 48.0777) scale(2.2066)">
<stop offset="0.07" stop-color="#FEE2A6"/>
<stop offset="0.14" stop-color="#797782"/>
<stop offset="0.19" stop-color="#1B2B69"/>
<stop offset="0.26" stop-color="#17255B"/>
<stop offset="0.49" stop-color="#0D1533"/>
<stop offset="0.69" stop-color="#060917"/>
<stop offset="0.87" stop-color="#010206"/>
<stop offset="1"/>
</radialGradient>
<radialGradient id="paint9_radial_331_11457" cx="0" cy="0" r="1" gradientUnits="userSpaceOnUse" gradientTransform="translate(43.3482 2.19818) scale(2.20661 2.2066)">
<stop offset="0.07" stop-color="#FEE2A6"/>
<stop offset="0.14" stop-color="#797782"/>
<stop offset="0.19" stop-color="#1B2B69"/>
<stop offset="0.26" stop-color="#17255B"/>
<stop offset="0.49" stop-color="#0D1533"/>
<stop offset="0.69" stop-color="#060917"/>
<stop offset="0.87" stop-color="#010206"/>
<stop offset="1"/>
</radialGradient>
<radialGradient id="paint10_radial_331_11457" cx="0" cy="0" r="1" gradientUnits="userSpaceOnUse" gradientTransform="translate(54.0035 13.2718) scale(2.2066)">
<stop offset="0.07" stop-color="#FEE2A6"/>
<stop offset="0.14" stop-color="#797782"/>
<stop offset="0.19" stop-color="#1B2B69"/>
<stop offset="0.26" stop-color="#17255B"/>
<stop offset="0.49" stop-color="#0D1533"/>
<stop offset="0.69" stop-color="#060917"/>
<stop offset="0.87" stop-color="#010206"/>
<stop offset="1"/>
</radialGradient>
<radialGradient id="paint11_radial_331_11457" cx="0" cy="0" r="1" gradientUnits="userSpaceOnUse" gradientTransform="translate(55.641 23.1018) scale(3.10875)">
<stop offset="0.07" stop-color="#FEE2A6"/>
<stop offset="0.14" stop-color="#797782"/>
<stop offset="0.19" stop-color="#1B2B69"/>
<stop offset="0.26" stop-color="#17255B"/>
<stop offset="0.49" stop-color="#0D1533"/>
<stop offset="0.69" stop-color="#060917"/>
<stop offset="0.87" stop-color="#010206"/>
<stop offset="1"/>
</radialGradient>
<radialGradient id="paint12_radial_331_11457" cx="0" cy="0" r="1" gradientUnits="userSpaceOnUse" gradientTransform="translate(50.7769 6.57062) scale(2.2066 2.20661)">
<stop offset="0.07" stop-color="#FEE2A6"/>
<stop offset="0.14" stop-color="#797782"/>
<stop offset="0.19" stop-color="#1B2B69"/>
<stop offset="0.26" stop-color="#17255B"/>
<stop offset="0.49" stop-color="#0D1533"/>
<stop offset="0.69" stop-color="#060917"/>
<stop offset="0.87" stop-color="#010206"/>
<stop offset="1"/>
</radialGradient>
<radialGradient id="paint13_radial_331_11457" cx="0" cy="0" r="1" gradientUnits="userSpaceOnUse" gradientTransform="translate(61.4322 17.6442) scale(2.20661 2.20661)">
<stop offset="0.07" stop-color="#FEE2A6"/>
<stop offset="0.14" stop-color="#797782"/>
<stop offset="0.19" stop-color="#1B2B69"/>
<stop offset="0.26" stop-color="#17255B"/>
<stop offset="0.49" stop-color="#0D1533"/>
<stop offset="0.69" stop-color="#060917"/>
<stop offset="0.87" stop-color="#010206"/>
<stop offset="1"/>
</radialGradient>
<radialGradient id="paint14_radial_331_11457" cx="0" cy="0" r="1" gradientUnits="userSpaceOnUse" gradientTransform="translate(63.0736 27.4744) scale(3.10875 3.10876)">
<stop offset="0.07" stop-color="#FEE2A6"/>
<stop offset="0.14" stop-color="#797782"/>
<stop offset="0.19" stop-color="#1B2B69"/>
<stop offset="0.26" stop-color="#17255B"/>
<stop offset="0.49" stop-color="#0D1533"/>
<stop offset="0.69" stop-color="#060917"/>
<stop offset="0.87" stop-color="#010206"/>
<stop offset="1"/>
</radialGradient>
<linearGradient id="paint15_linear_331_11457" x1="57.4207" y1="10.7926" x2="45.3067" y2="42.8473" gradientUnits="userSpaceOnUse">
<stop stop-color="#388E3C"/>
<stop offset="0.11" stop-color="#388E3C" stop-opacity="0.88"/>
<stop offset="0.35" stop-color="#388E3C" stop-opacity="0.67"/>
<stop offset="0.55" stop-color="#388E3C" stop-opacity="0.55"/>
<stop offset="0.7" stop-color="#388E3C" stop-opacity="0.5"/>
<stop offset="0.72" stop-color="#388E3C" stop-opacity="0.4"/>
<stop offset="0.79" stop-color="#388E3C" stop-opacity="0.23"/>
<stop offset="0.85" stop-color="#388E3C" stop-opacity="0.1"/>
<stop offset="0.92" stop-color="#388E3C" stop-opacity="0.02"/>
<stop offset="1" stop-color="#388E3C" stop-opacity="0"/>
</linearGradient>
<linearGradient id="paint16_linear_331_11457" x1="50.1098" y1="16.1933" x2="34.2694" y2="44.1477" gradientUnits="userSpaceOnUse">
<stop stop-color="#F57C00" stop-opacity="0.98"/>
<stop offset="0.08" stop-color="#F57C00" stop-opacity="0.89"/>
<stop offset="0.26" stop-color="#F57C00" stop-opacity="0.72"/>
<stop offset="0.42" stop-color="#F57C00" stop-opacity="0.6"/>
<stop offset="0.56" stop-color="#F57C00" stop-opacity="0.53"/>
<stop offset="0.66" stop-color="#F57C00" stop-opacity="0.5"/>
<stop offset="0.7" stop-color="#F57C00" stop-opacity="0.37"/>
<stop offset="0.76" stop-color="#F57C00" stop-opacity="0.23"/>
<stop offset="0.81" stop-color="#F57C00" stop-opacity="0.13"/>
<stop offset="0.87" stop-color="#F57C00" stop-opacity="0.06"/>
<stop offset="0.93" stop-color="#F57C00" stop-opacity="0.01"/>
<stop offset="1" stop-color="#F57C00" stop-opacity="0"/>
</linearGradient>
<linearGradient id="paint17_linear_331_11457" x1="28.5376" y1="49.6951" x2="65.3916" y2="70.9728" gradientUnits="userSpaceOnUse">
<stop stop-color="#BCBEFF"/>
<stop offset="0.23" stop-color="#AAADF7"/>
<stop offset="0.68" stop-color="#7B82E5"/>
<stop offset="1" stop-color="#5761D7"/>
</linearGradient>
<linearGradient id="paint18_linear_331_11457" x1="30.7488" y1="48.2607" x2="63.6163" y2="67.2342" gradientUnits="userSpaceOnUse">
<stop offset="0.24" stop-color="#5761D7"/>
<stop offset="0.39" stop-color="#7A81E5"/>
<stop offset="0.55" stop-color="#979BF0"/>
<stop offset="0.7" stop-color="#ABAEF8"/>
<stop offset="0.85" stop-color="#B7BAFD"/>
<stop offset="1" stop-color="#BCBEFF"/>
</linearGradient>
<linearGradient id="paint19_linear_331_11457" x1="23.9131" y1="57.7372" x2="70.3656" y2="57.7372" gradientUnits="userSpaceOnUse">
<stop stop-color="#E9E9FD"/>
<stop offset="0.36" stop-color="#D2D2F9"/>
<stop offset="0.71" stop-color="#C4C3F6"/>
<stop offset="1" stop-color="#C0BFF6"/>
</linearGradient>
<linearGradient id="paint20_linear_331_11457" x1="24.628" y1="57.7373" x2="69.65" y2="57.7373" gradientUnits="userSpaceOnUse">
<stop stop-color="#E9E9FD"/>
<stop offset="0.36" stop-color="#D2D2F9"/>
<stop offset="0.71" stop-color="#C4C3F6"/>
<stop offset="1" stop-color="#C0BFF6"/>
</linearGradient>
<linearGradient id="paint21_linear_331_11457" x1="47.1357" y1="69.0424" x2="47.1357" y2="-5.98617" gradientUnits="userSpaceOnUse">
<stop offset="0.21" stop-color="#41E6DF" stop-opacity="0.99"/>
<stop offset="0.3" stop-color="#35B2BD" stop-opacity="0.76"/>
<stop offset="0.39" stop-color="#2B849F" stop-opacity="0.56"/>
<stop offset="0.48" stop-color="#225D85" stop-opacity="0.39"/>
<stop offset="0.58" stop-color="#1B3D70" stop-opacity="0.25"/>
<stop offset="0.67" stop-color="#162460" stop-opacity="0.14"/>
<stop offset="0.77" stop-color="#121255" stop-opacity="0.06"/>
<stop offset="0.88" stop-color="#0F084E" stop-opacity="0.01"/>
<stop offset="1" stop-color="#0F054C" stop-opacity="0"/>
</linearGradient>
<clipPath id="clip0_331_11457">
<rect width="96" height="96" fill="white"/>
</clipPath>
</defs>
</svg>
