<svg width="80" height="83" viewBox="0 0 80 83" fill="none" xmlns="http://www.w3.org/2000/svg">
<path d="M57.798 69.8984C57.1458 69.632 56.4151 69.632 55.763 69.8984C55.4481 70.0286 55.1623 70.2202 54.9221 70.4618L54.9031 70.4744C54.6905 70.6891 54.5162 70.9386 54.3881 71.2123H50.1625V67.5417C49.5189 67.8427 48.8423 68.0671 48.1464 68.2102C48.0266 68.2376 47.913 68.2586 47.7911 68.2775V72.3917C47.7922 72.7056 47.9176 73.0063 48.1397 73.2281C48.3619 73.4499 48.6629 73.5747 48.9768 73.5753H54.4301C54.471 73.6592 54.5181 73.74 54.571 73.817C54.6638 73.9593 54.7709 74.0917 54.8905 74.2122L54.9115 74.2333C55.1593 74.4797 55.4528 74.6754 55.7756 74.8093C56.0989 74.9402 56.4443 75.008 56.7931 75.009C57.1353 75.0097 57.4744 74.944 57.7917 74.8156H57.8127C58.1346 74.6802 58.4279 74.4847 58.6767 74.2396C58.9232 73.9918 59.1188 73.6983 59.2527 73.3755C59.3839 73.0516 59.4517 72.7054 59.4525 72.3559C59.4502 72.0072 59.3825 71.6621 59.2527 71.3384C59.1188 71.0156 58.9232 70.7221 58.6767 70.4744C58.4192 70.2348 58.1218 70.0421 57.798 69.9047V69.8984ZM67.3087 58.7815C67.0424 58.1286 67.0424 57.3973 67.3087 56.7444C67.4382 56.4292 67.6298 56.1432 67.8721 55.9035L67.8847 55.8825C68.0221 55.7445 68.1752 55.6231 68.3409 55.5209C68.4317 55.4643 68.5258 55.413 68.6226 55.3674V51.146H63.4237C63.4237 50.8706 63.4237 50.5952 63.4237 50.3051C63.4156 50.2284 63.4288 50.151 63.4618 50.0813C63.4948 50.0116 63.5463 49.9523 63.6108 49.9099C64.1249 49.5593 64.6164 49.1766 65.0824 48.7642H69.8104C69.9662 48.7639 70.1205 48.7944 70.2645 48.8538C70.4084 48.9133 70.5393 49.0007 70.6494 49.1108C70.7596 49.221 70.8469 49.3518 70.9064 49.4958C70.9659 49.6398 70.9964 49.7941 70.9961 49.9498V55.4011C71.08 55.442 71.1608 55.4891 71.2378 55.5419C71.3796 55.6361 71.512 55.7439 71.6331 55.8636L71.6541 55.8825C71.9005 56.1302 72.0962 56.4237 72.2301 56.7465C72.3613 57.0705 72.4291 57.4166 72.4298 57.7661C72.4299 58.1076 72.3642 58.4459 72.2364 58.7626V58.7836C72.101 59.1056 71.9055 59.3988 71.6604 59.6477C71.4132 59.8948 71.1196 60.0906 70.7964 60.2237C70.4731 60.3584 70.127 60.4298 69.7768 60.4339C69.4274 60.4283 69.0822 60.357 68.7592 60.2237C68.4361 60.0906 68.1424 59.8948 67.8952 59.6477C67.6553 59.3912 67.4624 59.0944 67.3255 58.771L67.3087 58.7815ZM74.8369 45.2176H67.7712C67.891 44.9569 67.9982 44.6941 68.0928 44.4272C68.2777 43.9145 68.4122 43.385 68.4944 42.8462H74.8369C74.8853 42.76 74.9315 42.6718 74.9841 42.5856C75.0836 42.4278 75.2007 42.2818 75.3331 42.1504C75.5797 41.9026 75.8735 41.7067 76.1971 41.5744C76.5194 41.4388 76.865 41.3673 77.2146 41.3641C77.557 41.3638 77.8962 41.4302 78.2132 41.5596H78.2342C78.5566 41.6943 78.85 41.8899 79.0983 42.1357C79.3452 42.383 79.5409 42.6766 79.6743 42.9997C79.8052 43.323 79.873 43.6684 79.874 44.0172C79.872 44.3659 79.8042 44.7111 79.6743 45.0347C79.5409 45.3578 79.3452 45.6514 79.0983 45.8988C78.8516 46.1466 78.5578 46.3425 78.2342 46.4748C77.9112 46.6104 77.5649 46.6818 77.2146 46.685C76.8729 46.6854 76.5344 46.619 76.2181 46.4895H76.1971C75.8743 46.3556 75.5808 46.1599 75.3331 45.9135C75.2049 45.7858 75.0908 45.6449 74.9925 45.493L74.9778 45.472C74.9315 45.3921 74.8853 45.3038 74.8369 45.2176ZM77.0885 38.7342H68.2001C67.9673 37.9744 67.6484 37.2437 67.2498 36.5562L67.2351 36.5373C67.2015 36.4763 67.1678 36.4238 67.1342 36.3628H75.9091V28.6306C75.8418 28.5907 75.7746 28.5507 75.7094 28.5045C75.5773 28.4124 75.4535 28.309 75.3394 28.1955C75.0929 27.9477 74.8973 27.6542 74.7634 27.3314C74.561 26.8445 74.5078 26.3085 74.6103 25.7913C74.7128 25.2741 74.9666 24.799 75.3394 24.4261C75.586 24.1782 75.8798 23.9824 76.2034 23.85C76.5264 23.7144 76.8727 23.643 77.223 23.6398C77.5725 23.6444 77.9178 23.7158 78.2405 23.85C78.5638 23.9831 78.8574 24.1789 79.1046 24.426C79.3518 24.6732 79.5475 24.9669 79.6806 25.2901C79.8119 25.6133 79.8797 25.9588 79.8803 26.3076C79.8814 26.6499 79.8157 26.9891 79.6869 27.3062V27.3251C79.5522 27.6475 79.3567 27.9409 79.1109 28.1892C78.9585 28.3391 78.79 28.4716 78.6084 28.5844C78.505 28.6475 78.3976 28.7036 78.2868 28.7526V37.5401C78.284 37.8554 78.1576 38.157 77.9346 38.3799C77.7117 38.6029 77.4101 38.7293 77.0948 38.7321L77.0885 38.7342ZM67.7985 33.0139H64.7712C64.8494 32.5754 64.8986 32.1323 64.9184 31.6873C64.931 31.3321 64.931 30.9852 64.9184 30.6362H66.6191V27.1464C66.5261 27.1027 66.4368 27.0514 66.3521 26.993C66.1888 26.89 66.0379 26.7687 65.9023 26.6314C65.6551 26.3842 65.4594 26.0905 65.3262 25.7673C65.1922 25.4468 65.1208 25.1035 65.116 24.7561C65.1164 24.0605 65.3879 23.3923 65.8728 22.8935L65.8938 22.8746C66.1405 22.6268 66.4343 22.4309 66.7579 22.2986C67.4103 22.0296 68.1426 22.0296 68.795 22.2986C69.1088 22.4298 69.3943 22.6204 69.6359 22.8599L69.6569 22.8746C69.8999 23.1146 70.0928 23.4004 70.2245 23.7155V23.7365C70.3558 24.0597 70.4236 24.4052 70.4243 24.754C70.4269 25.4497 70.1549 26.1183 69.6674 26.6145L69.6485 26.6356C69.52 26.7652 69.3792 26.8821 69.2281 26.9845C69.1482 27.0363 69.0654 27.0834 68.98 27.1254V31.8261C68.9783 32.1401 68.8529 32.4407 68.6309 32.6627C68.4089 32.8847 68.1083 33.0101 67.7943 33.0118L67.7985 33.0139ZM20.8693 12.7395C21.5217 13.0085 22.254 13.0085 22.9064 12.7395C23.2217 12.61 23.5077 12.4184 23.7473 12.1761L23.7684 12.1635C23.907 12.0267 24.0284 11.8735 24.13 11.7073C24.1862 11.6169 24.2374 11.5236 24.2834 11.4277H28.509V15.0772C29.2553 14.6852 30.0538 14.402 30.8804 14.2363V10.242C30.8807 10.0862 30.8502 9.93191 30.7907 9.78793C30.7312 9.64395 30.6439 9.51313 30.5337 9.40297C30.4236 9.29282 30.2927 9.20549 30.1488 9.146C30.0048 9.08651 29.8505 9.05603 29.6947 9.05631H24.233C24.1916 8.97262 24.1445 8.89184 24.0921 8.81455C23.9992 8.67179 23.8914 8.5393 23.7705 8.41932L23.7516 8.4004C23.5043 8.14983 23.209 7.95176 22.8833 7.81807C22.5603 7.68245 22.214 7.61104 21.8637 7.60784C21.5218 7.61281 21.184 7.68421 20.8693 7.81807H20.8483C20.5255 7.95196 20.232 8.14764 19.9843 8.39409C19.7317 8.6414 19.5322 8.93753 19.3977 9.26444C19.2664 9.58763 19.1986 9.93309 19.198 10.2819C19.2001 10.6306 19.2678 10.9758 19.3977 11.2994C19.5309 11.6226 19.7266 11.9163 19.9738 12.1635C20.2288 12.4068 20.5258 12.6019 20.8504 12.7395H20.8693ZM34.429 5.21124V14.3604C35.2497 14.5951 36.0231 14.9715 36.7142 15.4725L36.7941 15.5334C36.7941 15.5124 36.7941 15.4935 36.7941 15.4725V5.21124C36.8824 5.16499 36.9686 5.11664 37.0548 5.06408C37.213 4.9652 37.3591 4.84807 37.4899 4.7151C37.8587 4.34499 38.1106 3.87477 38.2145 3.36277C38.3184 2.85077 38.2697 2.31954 38.0744 1.83498V1.81606C37.9405 1.49328 37.7448 1.19977 37.4984 0.952024C37.2531 0.703529 36.9598 0.507543 36.6364 0.375999C36.3142 0.240178 35.9686 0.168758 35.6189 0.165771C35.2694 0.170139 34.924 0.241504 34.6014 0.375999C34.2782 0.509051 33.9845 0.704813 33.7373 0.95198C33.4902 1.19915 33.2944 1.49283 33.1614 1.81606C33.0257 2.13832 32.9543 2.48395 32.9511 2.83356C32.9508 3.17597 33.0172 3.51516 33.1466 3.83215V3.85107C33.2813 4.17344 33.4769 4.46682 33.7227 4.7151C33.8499 4.8443 33.9909 4.95921 34.1431 5.05778H34.1557C34.2419 5.11033 34.3239 5.15868 34.4164 5.20494L34.429 5.21124ZM40.9062 2.9618V16.3428C41.2191 16.0258 41.5573 15.7347 41.9173 15.4725C42.3408 15.164 42.7969 14.9031 43.2775 14.6946V4.13908H51.0139C51.0539 4.20635 51.0938 4.27363 51.14 4.34931C51.2321 4.48072 51.3355 4.60382 51.4491 4.71721C51.6961 4.9651 51.9897 5.16159 52.3131 5.29533C52.9648 5.56444 53.6965 5.56444 54.3481 5.29533C54.6714 5.16228 54.965 4.96652 55.2122 4.71935C55.4594 4.47218 55.6551 4.17851 55.7882 3.85527C55.9238 3.53301 55.9952 3.18738 55.9984 2.83777C55.994 2.48828 55.9227 2.14287 55.7882 1.82027C55.6569 1.4961 55.4609 1.2021 55.2122 0.956229C54.9587 0.710872 54.6613 0.515456 54.3355 0.380204C53.6915 0.116642 52.9697 0.116642 52.3257 0.380204H52.3068C51.984 0.5141 51.6905 0.709774 51.4428 0.956229C51.2929 1.10859 51.1603 1.2771 51.0475 1.45867C50.9841 1.56111 50.9279 1.66789 50.8794 1.77822H42.1023C41.946 1.77777 41.7912 1.80838 41.6469 1.86829C41.5025 1.9282 41.3715 2.01621 41.2614 2.1272C41.0398 2.35118 40.9145 2.65299 40.9125 2.96811L40.9062 2.9618ZM46.6264 12.2518V14.085C46.8708 14.0965 47.1144 14.1218 47.3559 14.1606C47.9164 14.243 48.4667 14.3839 48.9978 14.5811V13.4501H52.4939C52.5381 13.5429 52.5894 13.6322 52.6474 13.7171C52.7503 13.8804 52.8716 14.0313 53.009 14.167C53.2567 14.4134 53.5502 14.6091 53.873 14.743C54.1935 14.877 54.5368 14.9484 54.8842 14.9532C55.5806 14.9564 56.25 14.6844 56.7468 14.1964L56.7679 14.1775C57.0143 13.9297 57.21 13.6362 57.3439 13.3134C57.6102 12.6605 57.6102 11.9292 57.3439 11.2763C57.2122 10.9623 57.0208 10.6767 56.7805 10.4354L56.7679 10.4144C56.5274 10.1714 56.2418 9.97784 55.9269 9.84467H55.908C55.2556 9.57566 54.5233 9.57566 53.8709 9.84467C53.5589 9.97647 53.2738 10.1646 53.03 10.3997L53.009 10.4207C52.8788 10.5488 52.7619 10.6896 52.66 10.8411C52.6073 10.9205 52.5603 11.0033 52.5191 11.0892H47.8121C47.656 11.0888 47.5014 11.1193 47.3571 11.1788C47.2128 11.2383 47.0817 11.3258 46.9712 11.4361C46.8591 11.5453 46.7703 11.6761 46.7103 11.8207C46.6503 11.9652 46.6204 12.1205 46.6222 12.277L46.6264 12.2518ZM12.5821 23.7449C12.8485 24.3971 12.8485 25.1278 12.5821 25.7799C12.4526 26.0952 12.261 26.3812 12.0187 26.6209L12.0061 26.6419C11.7915 26.8545 11.5419 27.0288 11.2682 27.1569V31.3846H15.6557V31.5948C15.6557 31.7567 15.6557 31.9249 15.6683 32.0973C15.6758 32.1724 15.663 32.2481 15.6312 32.3165C15.5994 32.385 15.5498 32.4436 15.4875 32.4862C14.9399 32.8759 14.4188 33.3015 13.9276 33.7602H10.0972C9.78296 33.7596 9.4817 33.6345 9.25946 33.4123C9.03722 33.1901 8.91212 32.8888 8.91156 32.5745V27.1128C8.82761 27.0719 8.7468 27.0248 8.6698 26.9719C8.52704 26.879 8.39455 26.7712 8.27457 26.6503L8.25355 26.6314C8.0071 26.3836 7.81142 26.0901 7.67753 25.7673C7.54303 25.4447 7.47166 25.0993 7.4673 24.7498C7.46723 24.4076 7.53289 24.0686 7.66071 23.7512V23.7302C7.80178 23.4067 8.00377 23.1134 8.25565 22.8662C8.5034 22.6197 8.79691 22.4241 9.11969 22.2902C9.44295 22.1554 9.78909 22.084 10.1393 22.0799C10.4887 22.0853 10.8339 22.1566 11.1568 22.2902C11.4796 22.4241 11.7731 22.6197 12.0208 22.8662C12.2568 23.1253 12.4473 23.4224 12.5842 23.7449H12.5821ZM5.05388 37.3067H11.3481C11.2409 37.5485 11.1484 37.7966 11.0601 38.0383C10.8753 38.569 10.7408 39.1159 10.6586 39.6718H5.05388C5.00553 39.758 4.95928 39.8463 4.90462 39.9325C4.80646 40.0906 4.69003 40.2367 4.55774 40.3677C4.31168 40.6162 4.01773 40.8121 3.69371 40.9437C3.37078 41.0795 3.02442 41.1509 2.6741 41.1539C2.33239 41.1541 1.99392 41.0877 1.67762 40.9584H1.6566C1.33336 40.8253 1.03968 40.6296 0.792517 40.3824C0.545349 40.1352 0.349588 39.8416 0.216536 39.5183C0.0852402 39.1951 0.0174333 38.8497 0.01682 38.5008C0.0188708 38.1521 0.086625 37.8069 0.216536 37.4833C0.417595 36.9971 0.758481 36.5815 1.19599 36.2892C1.6335 35.9969 2.14793 35.8411 2.6741 35.8415C3.0165 35.8411 3.35569 35.9075 3.67268 36.037H3.69371C4.01608 36.1716 4.30946 36.3672 4.55774 36.613C4.68567 36.7408 4.79982 36.8818 4.89831 37.0334L4.91303 37.0524L5.05388 37.313V37.3067ZM2.80234 43.7902H11.0012C11.2637 44.6131 11.6311 45.3989 12.0944 46.1279L12.107 46.1552H3.98172V53.8916C4.04899 53.9316 4.11416 53.9715 4.19195 54.0199C4.32406 54.1111 4.44787 54.2138 4.56195 54.3268C4.8084 54.5745 5.00408 54.868 5.13797 55.1908C5.26887 55.5141 5.33666 55.8595 5.33769 56.2083C5.34021 56.5594 5.27293 56.9074 5.13976 57.2322C5.00658 57.557 4.81018 57.8521 4.56195 58.1004C4.3142 58.3468 4.02069 58.5425 3.69791 58.6764C3.37394 58.8076 3.02782 58.8754 2.67831 58.8761C2.3296 58.8741 1.98441 58.8063 1.6608 58.6764C1.33802 58.5425 1.04451 58.3468 0.796765 58.1004C0.55146 57.8439 0.35295 57.5465 0.210229 57.2216C0.0753823 56.8991 0.00400263 56.5537 1.37484e-06 56.2041C-0.000348443 55.8617 0.0660611 55.5225 0.195513 55.2055V55.1866C0.330166 54.8642 0.525748 54.5709 0.771538 54.3226C0.923904 54.1727 1.09241 54.0401 1.27398 53.9274C1.37738 53.8643 1.48483 53.8081 1.59563 53.7592V44.9716C1.59518 44.8153 1.62579 44.6605 1.6857 44.5162C1.74561 44.3718 1.83362 44.2408 1.94461 44.1307C2.17082 43.9132 2.47173 43.7906 2.78552 43.7881L2.80234 43.7902ZM12.0923 49.5105H14.3018C14.2303 49.9423 14.1882 50.3785 14.1757 50.816C14.1619 51.1713 14.1682 51.5272 14.1946 51.8818H13.278V55.3779C13.3706 55.4225 13.4599 55.4738 13.545 55.5314C13.7079 55.6349 13.8587 55.7562 13.9949 55.893C14.242 56.1402 14.4378 56.4338 14.5709 56.757C14.7707 57.2388 14.8244 57.7687 14.7254 58.2808C14.6263 58.7929 14.3789 59.2646 14.0138 59.6371L13.9949 59.6582C13.7477 59.9053 13.454 60.1011 13.1308 60.2342C12.4784 60.5032 11.7461 60.5032 11.0937 60.2342C10.7802 60.1014 10.4949 59.9102 10.2528 59.6708L10.2318 59.6582C9.98975 59.417 9.79633 59.1315 9.66208 58.8173V58.7962C9.52758 58.4736 9.45622 58.1282 9.45185 57.7787C9.44863 57.0823 9.72064 56.4129 10.2087 55.9161L10.2276 55.8951C10.3567 55.7667 10.4975 55.6506 10.648 55.5482C10.7267 55.4944 10.8096 55.4473 10.8961 55.4074V50.7046C10.8957 50.5483 10.9263 50.3934 10.9862 50.2491C11.0461 50.1047 11.1341 49.9737 11.2451 49.8637C11.353 49.7495 11.4835 49.6589 11.6283 49.5978C11.773 49.5366 11.9289 49.5062 12.086 49.5084L12.0923 49.5105ZM44.2362 77.4266V68.0568C43.3792 67.7871 42.583 67.3529 41.8921 66.7786L41.8795 66.7639V77.435C41.7912 77.4813 41.705 77.5275 41.6188 77.5822C41.4607 77.6804 41.3146 77.7968 41.1837 77.9291C40.8149 78.2992 40.563 78.7694 40.4591 79.2814C40.3552 79.7934 40.4039 80.3246 40.5992 80.8092V80.8302C40.7331 81.153 40.9288 81.4465 41.1752 81.6943C41.4217 81.9423 41.7155 82.1382 42.0393 82.2703C42.3618 82.4052 42.7072 82.4766 43.0568 82.4805C43.4062 82.4751 43.7514 82.4038 44.0743 82.2703C44.3975 82.1372 44.6912 81.9415 44.9384 81.6943C45.1855 81.4471 45.3813 81.1535 45.5143 80.8302C45.65 80.508 45.7214 80.1623 45.7246 79.8127C45.7249 79.4703 45.6585 79.1311 45.5291 78.8141V78.7931C45.3944 78.4707 45.1988 78.1774 44.953 77.9291C44.8252 77.8012 44.6843 77.687 44.5326 77.5885L44.5137 77.5738C44.4254 77.5212 44.3392 77.475 44.253 77.4266H44.2362ZM37.7527 79.6782V66.1752C37.4771 66.4558 37.1813 66.7158 36.8677 66.9531C36.4086 67.3029 35.9097 67.5972 35.3814 67.8297V78.5051H27.645C27.605 78.4378 27.5651 78.3727 27.5167 78.3054C27.426 78.1735 27.3233 78.0504 27.2098 77.9375C26.9632 77.6897 26.6694 77.4938 26.3458 77.3615C26.0235 77.2258 25.6779 77.1544 25.3283 77.1512C24.978 77.155 24.6318 77.2264 24.3087 77.3615C23.9859 77.4954 23.6924 77.691 23.4446 77.9375C23.1973 78.1845 23.0015 78.4782 22.8686 78.8015C22.7373 79.1247 22.6695 79.4702 22.6689 79.819C22.6709 80.1677 22.7387 80.5129 22.8686 80.8365C23.0025 81.1593 23.1982 81.4528 23.4446 81.7006C23.6918 81.9477 23.9855 82.1435 24.3087 82.2766C24.6316 82.4124 24.9779 82.4838 25.3283 82.4868C25.67 82.487 26.0084 82.4206 26.3247 82.2913H26.3458C26.6681 82.1567 26.9615 81.9611 27.2098 81.7153C27.3597 81.5629 27.4923 81.3944 27.605 81.2128C27.6666 81.1089 27.7221 81.0015 27.7711 80.8912H36.5586C36.7147 80.8915 36.8693 80.861 37.0136 80.8014C37.1579 80.7419 37.289 80.6545 37.3995 80.5443C37.6249 80.318 37.7525 80.0123 37.7548 79.6929L37.7527 79.6782ZM32.0324 70.3882V68.4394C31.5082 68.4115 30.9878 68.3326 30.4788 68.2039C30.2023 68.135 29.9293 68.0522 29.6611 67.9559V69.2172H26.165C26.1193 69.1248 26.0673 69.0356 26.0094 68.9502C25.9072 68.7864 25.7858 68.6354 25.6478 68.5004C25.4008 68.253 25.1071 68.0572 24.7838 67.9243C24.4626 67.7937 24.1193 67.7259 23.7726 67.7246C23.4239 67.7269 23.0787 67.7946 22.7551 67.9243C22.4426 68.0563 22.1575 68.2452 21.9142 68.4814L21.8931 68.494C21.646 68.7412 21.4502 69.0349 21.3171 69.3581C21.0508 70.011 21.0508 70.7423 21.3171 71.3952C21.4499 71.7087 21.6411 71.9941 21.8805 72.2361L21.8931 72.2571C22.1336 72.4995 22.4193 72.6923 22.734 72.8247H22.753C23.0763 72.9556 23.4217 73.0234 23.7705 73.0245C24.4669 73.0277 25.1363 72.7557 25.6331 72.2676L25.6541 72.2487C25.7825 72.1196 25.8986 71.9788 26.001 71.8283C26.0543 71.7494 26.1014 71.6664 26.1418 71.5802H30.8446C31.1586 71.5785 31.4592 71.4531 31.6812 71.2311C31.9032 71.0091 32.0287 70.7085 32.0303 70.3945L32.0324 70.3882Z" fill="url(#paint0_linear_735_3202)"/>
<mask id="path-2-inside-1_735_3202" fill="white">
<path d="M57.9072 69.7431C57.2556 69.474 56.5238 69.474 55.8722 69.7431C55.5571 69.8719 55.2711 70.0628 55.0313 70.3044L55.0103 70.3191C54.8717 70.4552 54.7502 70.6077 54.6487 70.7732C54.5917 70.8638 54.5404 70.9579 54.4952 71.0549H50.2717V67.3844C49.6282 67.686 48.9516 67.9111 48.2556 68.055C48.1358 68.0823 48.0223 68.1012 47.9003 68.1223V72.2343C47.902 72.5483 48.0275 72.8489 48.2495 73.0709C48.4715 73.2929 48.7721 73.4183 49.086 73.42H54.5393C54.5812 73.5034 54.6283 73.5842 54.6802 73.6618C54.7737 73.8035 54.8815 73.9352 55.0018 74.0549L55.0208 74.0759C55.268 74.3231 55.5616 74.5188 55.8848 74.6519C56.2071 74.7876 56.5527 74.859 56.9023 74.8622C57.2448 74.8633 57.5841 74.7969 57.9009 74.6667H57.9219C58.2443 74.532 58.5377 74.3364 58.7859 74.0906C59.0324 73.8429 59.2281 73.5494 59.362 73.2266C59.4929 72.9033 59.5607 72.5579 59.5617 72.2091C59.5598 71.8604 59.4921 71.5151 59.362 71.1916C59.2291 70.8683 59.0333 70.5746 58.7859 70.3275C58.5298 70.0861 58.2321 69.8931 57.9072 69.7578V69.7431ZM67.4179 58.6242C67.1516 57.9712 67.1516 57.24 67.4179 56.5871C67.5485 56.2724 67.74 55.9866 67.9813 55.7461L67.9939 55.7272C68.1302 55.588 68.2834 55.4665 68.4501 55.3656C68.5409 55.3083 68.635 55.2563 68.7318 55.2101V50.9845H63.5455C63.5455 50.7091 63.5455 50.4358 63.5455 50.1436C63.5377 50.0667 63.5512 49.9891 63.5846 49.9194C63.6179 49.8496 63.6699 49.7905 63.7347 49.7483C64.249 49.398 64.7405 49.0153 65.2063 48.6026H69.9364C70.2504 48.6043 70.551 48.7297 70.773 48.9517C70.995 49.1737 71.1205 49.4743 71.1221 49.7883V55.2395C71.202 55.2815 71.2819 55.3278 71.3618 55.3803C71.5036 55.4746 71.6359 55.5823 71.757 55.702L71.778 55.723C72.0245 55.9708 72.2202 56.2643 72.3541 56.5871C72.4886 56.9097 72.5599 57.2551 72.5643 57.6046C72.5644 57.9467 72.4987 58.2857 72.3709 58.6031V58.6221C72.2355 58.944 72.04 59.2372 71.7949 59.4861C71.5482 59.7339 71.2544 59.9298 70.9308 60.0621C70.6079 60.1979 70.2615 60.2694 69.9112 60.2723C69.5618 60.2677 69.2164 60.1964 68.8937 60.0621C68.5701 59.9298 68.2763 59.7339 68.0297 59.4861C67.7897 59.2296 67.5969 58.9329 67.46 58.6094L67.4179 58.6242ZM74.9462 45.0603H67.8804C68.0016 44.8027 68.109 44.5388 68.2021 44.2698C68.387 43.7571 68.5214 43.2276 68.6036 42.6889H74.9462C74.9945 42.6027 75.0408 42.5165 75.0954 42.4282C75.1947 42.2708 75.311 42.1248 75.4423 41.993C75.689 41.7452 75.9828 41.5494 76.3064 41.417C76.6303 41.2858 76.9764 41.218 77.326 41.2173C77.6675 41.2164 78.006 41.2821 78.3224 41.4107H78.3435C78.6658 41.5453 78.9592 41.7409 79.2075 41.9867C79.4539 42.2345 79.6496 42.528 79.7835 42.8508C79.9144 43.1741 79.9822 43.5195 79.9832 43.8683C79.9811 44.2176 79.9134 44.5635 79.7835 44.8879C79.6505 45.2111 79.4547 45.5048 79.2075 45.7519C78.9604 45.9991 78.6667 46.1949 78.3435 46.3279C78.0209 46.4624 77.6754 46.5338 77.326 46.5382C76.9838 46.5382 76.6448 46.4726 76.3274 46.3447H76.3064C75.8122 46.1429 75.3918 45.7943 75.1017 45.3462L75.087 45.3251C75.0408 45.2453 74.9945 45.1591 74.9462 45.0708V45.0603ZM77.1977 38.5768H68.3093C68.0763 37.8204 67.7575 37.0932 67.359 36.4094L67.3443 36.3884L67.2455 36.2139H76.0183V28.4712C75.9511 28.4312 75.8859 28.3892 75.8186 28.3429C75.6865 28.2517 75.5627 28.149 75.4486 28.036C75.2022 27.7883 75.0065 27.4947 74.8726 27.172C74.6714 26.6855 74.6188 26.1505 74.7213 25.6342C74.8238 25.1179 75.0769 24.6435 75.4486 24.2708C75.6958 24.0237 75.9895 23.8279 76.3127 23.6948C76.6357 23.5592 76.982 23.4878 77.3323 23.4846C77.6817 23.4889 78.0272 23.5603 78.3498 23.6948C78.673 23.8278 78.9667 24.0236 79.2138 24.2708C79.461 24.5179 79.6568 24.8116 79.7898 25.1348C79.9243 25.4575 79.9957 25.8029 80 26.1524C80.0004 26.4948 79.934 26.8339 79.8045 27.1509V27.172C79.6699 27.4943 79.4743 27.7877 79.2285 28.036C79.0756 28.1853 78.9072 28.3178 78.7261 28.4312C78.6222 28.4928 78.5148 28.5483 78.4044 28.5973V37.3848C78.4017 37.7001 78.2752 38.0017 78.0523 38.2247C77.8293 38.4476 77.5277 38.5741 77.2124 38.5768H77.1977ZM67.9077 32.8565H64.8805C64.9585 32.4188 65.0077 31.9763 65.0276 31.5321C65.0402 31.1768 65.0402 30.8278 65.0276 30.4809H66.7284V26.9912C66.6357 26.9459 66.5464 26.8939 66.4614 26.8356C66.2981 26.7327 66.1471 26.6113 66.0115 26.474C65.7639 26.2272 65.5681 25.9334 65.4355 25.61C65.305 25.2887 65.2372 24.9455 65.2357 24.5988C65.2337 23.9026 65.5055 23.2336 65.9926 22.7362L66.0115 22.7172C66.2587 22.4701 66.5523 22.2743 66.8755 22.1412C67.3575 21.9397 67.8884 21.8856 68.4011 21.9859C68.9137 22.0862 69.3852 22.3363 69.7556 22.7046L69.7767 22.7172C70.0192 22.9581 70.2126 23.2436 70.3464 23.5581V23.5792C70.6128 24.2313 70.6128 24.962 70.3464 25.6142C70.2139 25.9263 70.0251 26.2114 69.7893 26.4551L69.7704 26.474C69.6418 26.6037 69.501 26.7205 69.3499 26.823C69.2713 26.8768 69.1883 26.9239 69.1018 26.9638V31.6666C69.1007 31.9806 68.9754 32.2813 68.7532 32.5031C68.531 32.7248 68.2301 32.8497 67.9162 32.8502L67.9077 32.8565ZM20.9702 12.5821C21.6218 12.8513 22.3535 12.8513 23.0052 12.5821C23.3207 12.4541 23.6068 12.2631 23.8461 12.0208L23.8671 12.0061C24.0057 11.87 24.1271 11.7176 24.2287 11.552C24.2849 11.461 24.3361 11.3669 24.3822 11.2703H28.6056V14.9199C29.3508 14.527 30.1488 14.2437 30.9749 14.079V10.0846C30.9744 9.7707 30.8495 9.46976 30.6278 9.24758C30.406 9.0254 30.1052 8.90006 29.7913 8.89895H24.338C24.2961 8.8155 24.2491 8.73476 24.1972 8.65718C24.1037 8.51548 23.9959 8.38375 23.8755 8.26406L23.8566 8.24304C23.6094 7.9959 23.3157 7.80013 22.9925 7.66701C22.6696 7.53118 22.3233 7.45977 21.9729 7.45678C21.6312 7.45578 21.2925 7.52222 20.9765 7.6523H20.9554C20.6322 7.79008 20.3388 7.98927 20.0914 8.23883C19.8449 8.48658 19.6493 8.78009 19.5154 9.10287C19.3845 9.42618 19.3167 9.77157 19.3157 10.1204C19.3175 10.4691 19.3853 10.8143 19.5154 11.1379C19.6483 11.4612 19.8441 11.7549 20.0914 12.0019C20.3463 12.2464 20.6443 12.4417 20.9702 12.5779V12.5821ZM34.5341 5.05388V14.203C35.3541 14.4395 36.1271 14.8158 36.8192 15.3151L36.8991 15.3761C36.8991 15.355 36.8991 15.3361 36.8991 15.3151V5.05388C36.9874 5.00763 37.0736 4.96138 37.1598 4.90672C37.3182 4.80805 37.4649 4.69167 37.5971 4.55984C37.8453 4.31161 38.0417 4.01651 38.1749 3.69169C38.3081 3.36688 38.3753 3.01884 38.3728 2.66779C38.3729 2.3263 38.3072 1.98799 38.1794 1.67131V1.65029C38.044 1.32833 37.8485 1.0351 37.6034 0.786252C37.3562 0.539116 37.0625 0.343347 36.7394 0.210228C36.4161 0.0754692 36.0699 0.00409858 35.7197 0C35.3704 0.00539066 35.0252 0.0767166 34.7022 0.210228C34.3802 0.345395 34.088 0.542974 33.8427 0.791574C33.5973 1.04017 33.4036 1.33488 33.2727 1.6587C33.1382 1.9813 33.0668 2.32671 33.0625 2.6762C33.0621 3.01861 33.1285 3.35779 33.258 3.67478V3.69581C33.3926 4.01818 33.5882 4.31156 33.834 4.55984C33.9627 4.68679 34.1035 4.80086 34.2545 4.90041H34.2671C34.3554 4.95507 34.4353 5.00132 34.5278 5.04757L34.5341 5.05388ZM41.0112 2.80444V16.1875C41.3236 15.8693 41.6618 15.5775 42.0224 15.3151C42.4458 15.0072 42.902 14.7471 43.3826 14.5394V3.98382H51.1189C51.1589 4.05109 51.1988 4.11626 51.2451 4.18354C51.3398 4.31529 51.4461 4.4384 51.5625 4.55143C51.8091 4.79927 52.1029 4.99514 52.4266 5.12746C52.7488 5.26307 53.0945 5.33448 53.4441 5.33769C53.7943 5.3339 54.1405 5.26252 54.4637 5.12746C54.7869 4.99441 55.0806 4.79865 55.3277 4.55148C55.5749 4.30431 55.7707 4.01063 55.9037 3.6874C56.035 3.3642 56.1028 3.01874 56.1034 2.66989C56.1014 2.32119 56.0336 1.976 55.9037 1.65239C55.7698 1.32961 55.5742 1.0361 55.3277 0.788355C55.0726 0.544088 54.7747 0.348831 54.449 0.21233C54.1287 0.0773118 53.7853 0.00590842 53.4378 0.00210193C53.0954 0.00175211 52.7562 0.0681616 52.4392 0.197614H52.4202C52.0989 0.337356 51.8077 0.537957 51.5625 0.788355C51.4083 0.943452 51.2722 1.11554 51.1568 1.30131C51.0945 1.40517 51.0384 1.51257 50.9886 1.62296H42.2011C42.045 1.62258 41.8903 1.65302 41.746 1.71255C41.6017 1.77207 41.4706 1.85951 41.3602 1.96984C41.1391 2.1942 41.0139 2.49576 41.0112 2.81075V2.80444ZM46.7273 12.0944V13.9297C46.9716 13.9406 47.2152 13.9651 47.4568 14.0033C48.0173 14.0856 48.5676 14.2266 49.0987 14.4237V13.2843H52.6137C52.6582 13.3769 52.7095 13.4662 52.7671 13.5513C52.8701 13.7146 52.9914 13.8655 53.1287 14.0012C53.3759 14.2483 53.6696 14.4441 53.9928 14.5772C54.3134 14.7109 54.6566 14.7823 55.004 14.7874C55.7003 14.7906 56.3698 14.5186 56.8666 14.0306L56.8876 14.0117C57.134 13.7639 57.3297 13.4704 57.4636 13.1477C57.7299 12.4947 57.7299 11.7635 57.4636 11.1105C57.3308 10.7971 57.1396 10.5117 56.9002 10.2696L56.8876 10.2486C56.6471 10.0062 56.3614 9.8134 56.0467 9.681H56.0278C55.546 9.48118 55.016 9.42746 54.5039 9.52651C53.9918 9.62557 53.5202 9.87303 53.1476 10.2381L53.1266 10.257C52.9975 10.386 52.8807 10.5268 52.7776 10.6775C52.7257 10.7569 52.6794 10.8398 52.6389 10.9255H47.9214C47.7651 10.9251 47.6102 10.9557 47.4659 11.0156C47.3215 11.0755 47.1905 11.1635 47.0805 11.2745C46.9683 11.3837 46.8795 11.5146 46.8195 11.6591C46.7596 11.8037 46.7296 11.9589 46.7315 12.1154L46.7273 12.0944ZM12.6914 23.5855C12.9577 24.2384 12.9577 24.9697 12.6914 25.6226C12.5608 25.9372 12.3693 26.223 12.128 26.4635L12.1154 26.4824C11.9791 26.6217 11.8259 26.7432 11.6592 26.844C11.5684 26.9013 11.4743 26.9533 11.3775 26.9996V31.2252H15.7649V31.4354C15.7649 31.5952 15.7649 31.7633 15.7775 31.9378C15.7838 32.0128 15.7704 32.088 15.7387 32.1562C15.707 32.2244 15.658 32.2832 15.5967 32.3267C15.0492 32.7158 14.5281 33.1407 14.0368 33.5986H10.2065C9.89219 33.5981 9.59093 33.473 9.36869 33.2507C9.14645 33.0285 9.02136 32.7272 9.0208 32.4129V26.9491C8.94091 26.9071 8.85892 26.8608 8.77904 26.8083C8.63724 26.714 8.50488 26.6063 8.38381 26.4866L8.36489 26.4656C8.11661 26.2193 7.92068 25.9254 7.78886 25.6016C7.52538 24.9554 7.52538 24.2317 7.78886 23.5855V23.5666C7.92276 23.2438 8.11843 22.9503 8.36489 22.7025C8.61076 22.4538 8.90476 22.2578 9.22893 22.1265C9.55112 21.9907 9.89679 21.9192 10.2464 21.9163C10.5959 21.9206 10.9413 21.992 11.2639 22.1265C11.5876 22.2588 11.8814 22.4547 12.128 22.7025C12.3645 22.9628 12.555 23.2613 12.6914 23.5855ZM5.16312 37.1515H11.4573C11.3522 37.3911 11.2471 37.6392 11.1693 37.881C10.9855 38.4119 10.8511 38.9587 10.7678 39.5144H5.16312C5.11477 39.6027 5.06851 39.6889 5.01596 39.7772C4.72558 40.2313 4.30189 40.5845 3.80294 40.7884C3.47963 40.9193 3.13425 40.9871 2.78544 40.9881C2.44327 40.9882 2.10426 40.9225 1.78686 40.7947H1.76583C1.44187 40.6579 1.14714 40.4602 0.897594 40.2124C0.653101 39.9655 0.458896 39.6735 0.325774 39.3526C0.191015 39.0293 0.119644 38.6832 0.115546 38.333C0.121137 37.9836 0.192455 37.6384 0.325774 37.3155C0.457938 36.9915 0.652192 36.6966 0.897594 36.4472C1.14478 36.2001 1.43843 36.0043 1.76163 35.8712C2.0856 35.74 2.43172 35.6722 2.78124 35.6715C3.12282 35.6704 3.46133 35.7361 3.77772 35.8649H3.79874C4.12112 35.9995 4.41449 36.1951 4.66278 36.4409C4.79033 36.5691 4.90445 36.71 5.00335 36.8614L5.01806 36.8803L5.15891 37.1431L5.16312 37.1515ZM2.91158 43.6349H11.1105C11.3721 44.4578 11.7388 45.2436 12.2015 45.9726L12.2142 46H4.09096V53.7343C4.15823 53.7742 4.2255 53.8162 4.30118 53.8625C4.43322 53.9538 4.55702 54.0565 4.67118 54.1694C4.91764 54.4172 5.11331 54.7107 5.24721 55.0335C5.44835 55.5199 5.50099 56.055 5.39848 56.5713C5.29597 57.0875 5.0429 57.5619 4.67118 57.9346C4.424 58.1818 4.13034 58.3775 3.80715 58.5106C3.48416 58.6463 3.13784 58.7177 2.78754 58.7209C2.43808 58.7162 2.09272 58.6449 1.77004 58.5106C1.44437 58.3804 1.14782 58.1867 0.897594 57.9409C0.655625 57.6848 0.460641 57.388 0.321569 57.0643C0.18681 56.741 0.115439 56.3949 0.111341 56.0447C0.110274 55.7031 0.175976 55.3646 0.304751 55.0482V55.0272C0.444409 54.7034 0.64577 54.4099 0.897594 54.1631C1.04996 54.0132 1.21847 53.8807 1.40004 53.7679C1.5039 53.7056 1.6113 53.6495 1.72169 53.5997V44.8185C1.72123 44.6622 1.75185 44.5074 1.81176 44.363C1.87167 44.2186 1.95968 44.0876 2.07067 43.9776C2.29709 43.7607 2.59803 43.6388 2.91158 43.637V43.6349ZM12.2015 49.3552H14.4131C14.2844 50.138 14.2484 50.9333 14.3059 51.7245H13.3872V55.2206C13.4799 55.2658 13.5692 55.3178 13.6542 55.3761C13.8175 55.4791 13.9685 55.6004 14.1041 55.7377C14.3517 55.9846 14.5475 56.2783 14.6801 56.6018C14.9492 57.2534 14.9492 57.9851 14.6801 58.6368C14.5476 58.9484 14.3596 59.2333 14.1251 59.4777L14.1041 59.4966C13.8575 59.7444 13.5637 59.9403 13.2401 60.0726C12.7582 60.2736 12.2276 60.3275 11.7151 60.2276C11.2026 60.1278 10.7311 59.8785 10.36 59.5113L10.3389 59.4966C10.096 59.2566 9.90304 58.9708 9.77131 58.6557V58.6347C9.63642 58.3122 9.56503 57.9667 9.56109 57.6172C9.559 56.921 9.83085 56.252 10.3179 55.7545L10.3368 55.7356C10.4654 55.606 10.6062 55.4891 10.7573 55.3866C10.8367 55.3341 10.9195 55.287 11.0054 55.2458V50.5472C11.0051 50.3909 11.0359 50.2362 11.0958 50.0919C11.1556 49.9475 11.2435 49.8165 11.3543 49.7063C11.4624 49.5924 11.5929 49.5022 11.7377 49.4414C11.8824 49.3806 12.0383 49.3505 12.1952 49.3531L12.2015 49.3552ZM44.3454 77.2714V67.9015C43.4853 67.6321 42.6862 67.1972 41.993 66.6212L41.9803 66.6086V77.2777C41.8941 77.3239 41.8058 77.3723 41.7197 77.4248C41.5614 77.5237 41.4154 77.6409 41.2845 77.7738C40.7863 78.2733 40.5065 78.9499 40.5066 79.6554C40.5063 79.9978 40.5727 80.337 40.7021 80.6539V80.6729C40.836 80.9956 41.0317 81.2892 41.2782 81.5369C41.5244 81.7852 41.8183 81.9811 42.1422 82.1129C42.4644 82.2487 42.8101 82.3202 43.1597 82.3232C43.5092 82.3188 43.8546 82.2474 44.1772 82.1129C44.5011 81.9811 44.795 81.7852 45.0413 81.5369C45.2888 81.2901 45.4847 80.9963 45.6173 80.6729C45.7529 80.3506 45.8243 80.005 45.8275 79.6554C45.8279 79.313 45.7614 78.9738 45.632 78.6568V78.6379C45.4973 78.3155 45.3018 78.0221 45.056 77.7738C44.9284 77.645 44.7874 77.5302 44.6355 77.4312L44.6145 77.4185C44.5283 77.3639 44.44 77.3176 44.3538 77.2714H44.3454ZM37.862 79.5208V66.0179C37.5863 66.2984 37.2905 66.5584 36.9769 66.7957C36.5178 67.1456 36.0189 67.4398 35.4906 67.6724V78.3498H27.7542C27.7143 78.2826 27.6743 78.2153 27.626 78.1396C27.5352 78.0078 27.4325 77.8846 27.319 77.7717C27.0719 77.5246 26.7782 77.3288 26.455 77.1957C26.1327 77.0601 25.7871 76.9887 25.4375 76.9855C25.0864 76.984 24.7385 77.052 24.4138 77.1855C24.0891 77.319 23.794 77.5154 23.5454 77.7633C23.2979 78.0162 23.1029 78.3156 22.9715 78.6442C22.8406 78.9675 22.7728 79.3129 22.7718 79.6617C22.7739 80.0104 22.8416 80.3556 22.9715 80.6792C23.1046 81.0024 23.3003 81.2961 23.5475 81.5433C23.7947 81.7904 24.0884 81.9862 24.4116 82.1192C24.7346 82.2549 25.0809 82.3263 25.4312 82.3295C25.7727 82.3295 26.111 82.2639 26.4277 82.1361H26.4487C26.7715 82.0022 27.065 81.8065 27.3127 81.56C27.549 81.3226 27.7399 81.044 27.8761 80.738H36.6637C36.82 80.7385 36.9748 80.7079 37.1192 80.648C37.2635 80.5881 37.3945 80.5 37.5046 80.3891C37.7303 80.163 37.858 79.8571 37.8599 79.5376L37.862 79.5208ZM32.1417 70.2308V68.282C31.6176 68.2538 31.0973 68.1757 30.5881 68.0487C30.3127 67.9814 30.0373 67.8931 29.7703 67.8006V69.062H26.2742C26.2309 68.9661 26.1811 68.8734 26.1249 68.7845C26.0208 68.6227 25.8996 68.4725 25.7634 68.3367C25.5167 68.0889 25.2229 67.893 24.8993 67.7607C24.5783 67.6256 24.2342 67.5542 23.886 67.5504C23.1909 67.5505 22.5233 67.8221 22.0255 68.3073L22.0045 68.3199C21.758 68.5676 21.5623 68.8611 21.4285 69.1839C21.1622 69.8368 21.1622 70.5681 21.4285 71.221C21.5602 71.5351 21.7515 71.8206 21.9919 72.0619L22.0045 72.083C22.2449 72.3259 22.5306 72.5195 22.8454 72.6527H22.8643C23.1866 72.7883 23.5322 72.8597 23.8818 72.8629C24.5777 72.8634 25.2461 72.5918 25.7444 72.1061L25.7655 72.0851C25.8943 71.9564 26.0105 71.8156 26.1123 71.6646C26.1666 71.5863 26.2137 71.5032 26.2532 71.4165H30.9602C31.2745 71.416 31.5757 71.2909 31.798 71.0686C32.0202 70.8464 32.1453 70.5451 32.1459 70.2308H32.1417Z"/>
</mask>
<path d="M57.9072 69.7431C57.2556 69.474 56.5238 69.474 55.8722 69.7431C55.5571 69.8719 55.2711 70.0628 55.0313 70.3044L55.0103 70.3191C54.8717 70.4552 54.7502 70.6077 54.6487 70.7732C54.5917 70.8638 54.5404 70.9579 54.4952 71.0549H50.2717V67.3844C49.6282 67.686 48.9516 67.9111 48.2556 68.055C48.1358 68.0823 48.0223 68.1012 47.9003 68.1223V72.2343C47.902 72.5483 48.0275 72.8489 48.2495 73.0709C48.4715 73.2929 48.7721 73.4183 49.086 73.42H54.5393C54.5812 73.5034 54.6283 73.5842 54.6802 73.6618C54.7737 73.8035 54.8815 73.9352 55.0018 74.0549L55.0208 74.0759C55.268 74.3231 55.5616 74.5188 55.8848 74.6519C56.2071 74.7876 56.5527 74.859 56.9023 74.8622C57.2448 74.8633 57.5841 74.7969 57.9009 74.6667H57.9219C58.2443 74.532 58.5377 74.3364 58.7859 74.0906C59.0324 73.8429 59.2281 73.5494 59.362 73.2266C59.4929 72.9033 59.5607 72.5579 59.5617 72.2091C59.5598 71.8604 59.4921 71.5151 59.362 71.1916C59.2291 70.8683 59.0333 70.5746 58.7859 70.3275C58.5298 70.0861 58.2321 69.8931 57.9072 69.7578V69.7431ZM67.4179 58.6242C67.1516 57.9712 67.1516 57.24 67.4179 56.5871C67.5485 56.2724 67.74 55.9866 67.9813 55.7461L67.9939 55.7272C68.1302 55.588 68.2834 55.4665 68.4501 55.3656C68.5409 55.3083 68.635 55.2563 68.7318 55.2101V50.9845H63.5455C63.5455 50.7091 63.5455 50.4358 63.5455 50.1436C63.5377 50.0667 63.5512 49.9891 63.5846 49.9194C63.6179 49.8496 63.6699 49.7905 63.7347 49.7483C64.249 49.398 64.7405 49.0153 65.2063 48.6026H69.9364C70.2504 48.6043 70.551 48.7297 70.773 48.9517C70.995 49.1737 71.1205 49.4743 71.1221 49.7883V55.2395C71.202 55.2815 71.2819 55.3278 71.3618 55.3803C71.5036 55.4746 71.6359 55.5823 71.757 55.702L71.778 55.723C72.0245 55.9708 72.2202 56.2643 72.3541 56.5871C72.4886 56.9097 72.5599 57.2551 72.5643 57.6046C72.5644 57.9467 72.4987 58.2857 72.3709 58.6031V58.6221C72.2355 58.944 72.04 59.2372 71.7949 59.4861C71.5482 59.7339 71.2544 59.9298 70.9308 60.0621C70.6079 60.1979 70.2615 60.2694 69.9112 60.2723C69.5618 60.2677 69.2164 60.1964 68.8937 60.0621C68.5701 59.9298 68.2763 59.7339 68.0297 59.4861C67.7897 59.2296 67.5969 58.9329 67.46 58.6094L67.4179 58.6242ZM74.9462 45.0603H67.8804C68.0016 44.8027 68.109 44.5388 68.2021 44.2698C68.387 43.7571 68.5214 43.2276 68.6036 42.6889H74.9462C74.9945 42.6027 75.0408 42.5165 75.0954 42.4282C75.1947 42.2708 75.311 42.1248 75.4423 41.993C75.689 41.7452 75.9828 41.5494 76.3064 41.417C76.6303 41.2858 76.9764 41.218 77.326 41.2173C77.6675 41.2164 78.006 41.2821 78.3224 41.4107H78.3435C78.6658 41.5453 78.9592 41.7409 79.2075 41.9867C79.4539 42.2345 79.6496 42.528 79.7835 42.8508C79.9144 43.1741 79.9822 43.5195 79.9832 43.8683C79.9811 44.2176 79.9134 44.5635 79.7835 44.8879C79.6505 45.2111 79.4547 45.5048 79.2075 45.7519C78.9604 45.9991 78.6667 46.1949 78.3435 46.3279C78.0209 46.4624 77.6754 46.5338 77.326 46.5382C76.9838 46.5382 76.6448 46.4726 76.3274 46.3447H76.3064C75.8122 46.1429 75.3918 45.7943 75.1017 45.3462L75.087 45.3251C75.0408 45.2453 74.9945 45.1591 74.9462 45.0708V45.0603ZM77.1977 38.5768H68.3093C68.0763 37.8204 67.7575 37.0932 67.359 36.4094L67.3443 36.3884L67.2455 36.2139H76.0183V28.4712C75.9511 28.4312 75.8859 28.3892 75.8186 28.3429C75.6865 28.2517 75.5627 28.149 75.4486 28.036C75.2022 27.7883 75.0065 27.4947 74.8726 27.172C74.6714 26.6855 74.6188 26.1505 74.7213 25.6342C74.8238 25.1179 75.0769 24.6435 75.4486 24.2708C75.6958 24.0237 75.9895 23.8279 76.3127 23.6948C76.6357 23.5592 76.982 23.4878 77.3323 23.4846C77.6817 23.4889 78.0272 23.5603 78.3498 23.6948C78.673 23.8278 78.9667 24.0236 79.2138 24.2708C79.461 24.5179 79.6568 24.8116 79.7898 25.1348C79.9243 25.4575 79.9957 25.8029 80 26.1524C80.0004 26.4948 79.934 26.8339 79.8045 27.1509V27.172C79.6699 27.4943 79.4743 27.7877 79.2285 28.036C79.0756 28.1853 78.9072 28.3178 78.7261 28.4312C78.6222 28.4928 78.5148 28.5483 78.4044 28.5973V37.3848C78.4017 37.7001 78.2752 38.0017 78.0523 38.2247C77.8293 38.4476 77.5277 38.5741 77.2124 38.5768H77.1977ZM67.9077 32.8565H64.8805C64.9585 32.4188 65.0077 31.9763 65.0276 31.5321C65.0402 31.1768 65.0402 30.8278 65.0276 30.4809H66.7284V26.9912C66.6357 26.9459 66.5464 26.8939 66.4614 26.8356C66.2981 26.7327 66.1471 26.6113 66.0115 26.474C65.7639 26.2272 65.5681 25.9334 65.4355 25.61C65.305 25.2887 65.2372 24.9455 65.2357 24.5988C65.2337 23.9026 65.5055 23.2336 65.9926 22.7362L66.0115 22.7172C66.2587 22.4701 66.5523 22.2743 66.8755 22.1412C67.3575 21.9397 67.8884 21.8856 68.4011 21.9859C68.9137 22.0862 69.3852 22.3363 69.7556 22.7046L69.7767 22.7172C70.0192 22.9581 70.2126 23.2436 70.3464 23.5581V23.5792C70.6128 24.2313 70.6128 24.962 70.3464 25.6142C70.2139 25.9263 70.0251 26.2114 69.7893 26.4551L69.7704 26.474C69.6418 26.6037 69.501 26.7205 69.3499 26.823C69.2713 26.8768 69.1883 26.9239 69.1018 26.9638V31.6666C69.1007 31.9806 68.9754 32.2813 68.7532 32.5031C68.531 32.7248 68.2301 32.8497 67.9162 32.8502L67.9077 32.8565ZM20.9702 12.5821C21.6218 12.8513 22.3535 12.8513 23.0052 12.5821C23.3207 12.4541 23.6068 12.2631 23.8461 12.0208L23.8671 12.0061C24.0057 11.87 24.1271 11.7176 24.2287 11.552C24.2849 11.461 24.3361 11.3669 24.3822 11.2703H28.6056V14.9199C29.3508 14.527 30.1488 14.2437 30.9749 14.079V10.0846C30.9744 9.7707 30.8495 9.46976 30.6278 9.24758C30.406 9.0254 30.1052 8.90006 29.7913 8.89895H24.338C24.2961 8.8155 24.2491 8.73476 24.1972 8.65718C24.1037 8.51548 23.9959 8.38375 23.8755 8.26406L23.8566 8.24304C23.6094 7.9959 23.3157 7.80013 22.9925 7.66701C22.6696 7.53118 22.3233 7.45977 21.9729 7.45678C21.6312 7.45578 21.2925 7.52222 20.9765 7.6523H20.9554C20.6322 7.79008 20.3388 7.98927 20.0914 8.23883C19.8449 8.48658 19.6493 8.78009 19.5154 9.10287C19.3845 9.42618 19.3167 9.77157 19.3157 10.1204C19.3175 10.4691 19.3853 10.8143 19.5154 11.1379C19.6483 11.4612 19.8441 11.7549 20.0914 12.0019C20.3463 12.2464 20.6443 12.4417 20.9702 12.5779V12.5821ZM34.5341 5.05388V14.203C35.3541 14.4395 36.1271 14.8158 36.8192 15.3151L36.8991 15.3761C36.8991 15.355 36.8991 15.3361 36.8991 15.3151V5.05388C36.9874 5.00763 37.0736 4.96138 37.1598 4.90672C37.3182 4.80805 37.4649 4.69167 37.5971 4.55984C37.8453 4.31161 38.0417 4.01651 38.1749 3.69169C38.3081 3.36688 38.3753 3.01884 38.3728 2.66779C38.3729 2.3263 38.3072 1.98799 38.1794 1.67131V1.65029C38.044 1.32833 37.8485 1.0351 37.6034 0.786252C37.3562 0.539116 37.0625 0.343347 36.7394 0.210228C36.4161 0.0754692 36.0699 0.00409858 35.7197 0C35.3704 0.00539066 35.0252 0.0767166 34.7022 0.210228C34.3802 0.345395 34.088 0.542974 33.8427 0.791574C33.5973 1.04017 33.4036 1.33488 33.2727 1.6587C33.1382 1.9813 33.0668 2.32671 33.0625 2.6762C33.0621 3.01861 33.1285 3.35779 33.258 3.67478V3.69581C33.3926 4.01818 33.5882 4.31156 33.834 4.55984C33.9627 4.68679 34.1035 4.80086 34.2545 4.90041H34.2671C34.3554 4.95507 34.4353 5.00132 34.5278 5.04757L34.5341 5.05388ZM41.0112 2.80444V16.1875C41.3236 15.8693 41.6618 15.5775 42.0224 15.3151C42.4458 15.0072 42.902 14.7471 43.3826 14.5394V3.98382H51.1189C51.1589 4.05109 51.1988 4.11626 51.2451 4.18354C51.3398 4.31529 51.4461 4.4384 51.5625 4.55143C51.8091 4.79927 52.1029 4.99514 52.4266 5.12746C52.7488 5.26307 53.0945 5.33448 53.4441 5.33769C53.7943 5.3339 54.1405 5.26252 54.4637 5.12746C54.7869 4.99441 55.0806 4.79865 55.3277 4.55148C55.5749 4.30431 55.7707 4.01063 55.9037 3.6874C56.035 3.3642 56.1028 3.01874 56.1034 2.66989C56.1014 2.32119 56.0336 1.976 55.9037 1.65239C55.7698 1.32961 55.5742 1.0361 55.3277 0.788355C55.0726 0.544088 54.7747 0.348831 54.449 0.21233C54.1287 0.0773118 53.7853 0.00590842 53.4378 0.00210193C53.0954 0.00175211 52.7562 0.0681616 52.4392 0.197614H52.4202C52.0989 0.337356 51.8077 0.537957 51.5625 0.788355C51.4083 0.943452 51.2722 1.11554 51.1568 1.30131C51.0945 1.40517 51.0384 1.51257 50.9886 1.62296H42.2011C42.045 1.62258 41.8903 1.65302 41.746 1.71255C41.6017 1.77207 41.4706 1.85951 41.3602 1.96984C41.1391 2.1942 41.0139 2.49576 41.0112 2.81075V2.80444ZM46.7273 12.0944V13.9297C46.9716 13.9406 47.2152 13.9651 47.4568 14.0033C48.0173 14.0856 48.5676 14.2266 49.0987 14.4237V13.2843H52.6137C52.6582 13.3769 52.7095 13.4662 52.7671 13.5513C52.8701 13.7146 52.9914 13.8655 53.1287 14.0012C53.3759 14.2483 53.6696 14.4441 53.9928 14.5772C54.3134 14.7109 54.6566 14.7823 55.004 14.7874C55.7003 14.7906 56.3698 14.5186 56.8666 14.0306L56.8876 14.0117C57.134 13.7639 57.3297 13.4704 57.4636 13.1477C57.7299 12.4947 57.7299 11.7635 57.4636 11.1105C57.3308 10.7971 57.1396 10.5117 56.9002 10.2696L56.8876 10.2486C56.6471 10.0062 56.3614 9.8134 56.0467 9.681H56.0278C55.546 9.48118 55.016 9.42746 54.5039 9.52651C53.9918 9.62557 53.5202 9.87303 53.1476 10.2381L53.1266 10.257C52.9975 10.386 52.8807 10.5268 52.7776 10.6775C52.7257 10.7569 52.6794 10.8398 52.6389 10.9255H47.9214C47.7651 10.9251 47.6102 10.9557 47.4659 11.0156C47.3215 11.0755 47.1905 11.1635 47.0805 11.2745C46.9683 11.3837 46.8795 11.5146 46.8195 11.6591C46.7596 11.8037 46.7296 11.9589 46.7315 12.1154L46.7273 12.0944ZM12.6914 23.5855C12.9577 24.2384 12.9577 24.9697 12.6914 25.6226C12.5608 25.9372 12.3693 26.223 12.128 26.4635L12.1154 26.4824C11.9791 26.6217 11.8259 26.7432 11.6592 26.844C11.5684 26.9013 11.4743 26.9533 11.3775 26.9996V31.2252H15.7649V31.4354C15.7649 31.5952 15.7649 31.7633 15.7775 31.9378C15.7838 32.0128 15.7704 32.088 15.7387 32.1562C15.707 32.2244 15.658 32.2832 15.5967 32.3267C15.0492 32.7158 14.5281 33.1407 14.0368 33.5986H10.2065C9.89219 33.5981 9.59093 33.473 9.36869 33.2507C9.14645 33.0285 9.02136 32.7272 9.0208 32.4129V26.9491C8.94091 26.9071 8.85892 26.8608 8.77904 26.8083C8.63724 26.714 8.50488 26.6063 8.38381 26.4866L8.36489 26.4656C8.11661 26.2193 7.92068 25.9254 7.78886 25.6016C7.52538 24.9554 7.52538 24.2317 7.78886 23.5855V23.5666C7.92276 23.2438 8.11843 22.9503 8.36489 22.7025C8.61076 22.4538 8.90476 22.2578 9.22893 22.1265C9.55112 21.9907 9.89679 21.9192 10.2464 21.9163C10.5959 21.9206 10.9413 21.992 11.2639 22.1265C11.5876 22.2588 11.8814 22.4547 12.128 22.7025C12.3645 22.9628 12.555 23.2613 12.6914 23.5855ZM5.16312 37.1515H11.4573C11.3522 37.3911 11.2471 37.6392 11.1693 37.881C10.9855 38.4119 10.8511 38.9587 10.7678 39.5144H5.16312C5.11477 39.6027 5.06851 39.6889 5.01596 39.7772C4.72558 40.2313 4.30189 40.5845 3.80294 40.7884C3.47963 40.9193 3.13425 40.9871 2.78544 40.9881C2.44327 40.9882 2.10426 40.9225 1.78686 40.7947H1.76583C1.44187 40.6579 1.14714 40.4602 0.897594 40.2124C0.653101 39.9655 0.458896 39.6735 0.325774 39.3526C0.191015 39.0293 0.119644 38.6832 0.115546 38.333C0.121137 37.9836 0.192455 37.6384 0.325774 37.3155C0.457938 36.9915 0.652192 36.6966 0.897594 36.4472C1.14478 36.2001 1.43843 36.0043 1.76163 35.8712C2.0856 35.74 2.43172 35.6722 2.78124 35.6715C3.12282 35.6704 3.46133 35.7361 3.77772 35.8649H3.79874C4.12112 35.9995 4.41449 36.1951 4.66278 36.4409C4.79033 36.5691 4.90445 36.71 5.00335 36.8614L5.01806 36.8803L5.15891 37.1431L5.16312 37.1515ZM2.91158 43.6349H11.1105C11.3721 44.4578 11.7388 45.2436 12.2015 45.9726L12.2142 46H4.09096V53.7343C4.15823 53.7742 4.2255 53.8162 4.30118 53.8625C4.43322 53.9538 4.55702 54.0565 4.67118 54.1694C4.91764 54.4172 5.11331 54.7107 5.24721 55.0335C5.44835 55.5199 5.50099 56.055 5.39848 56.5713C5.29597 57.0875 5.0429 57.5619 4.67118 57.9346C4.424 58.1818 4.13034 58.3775 3.80715 58.5106C3.48416 58.6463 3.13784 58.7177 2.78754 58.7209C2.43808 58.7162 2.09272 58.6449 1.77004 58.5106C1.44437 58.3804 1.14782 58.1867 0.897594 57.9409C0.655625 57.6848 0.460641 57.388 0.321569 57.0643C0.18681 56.741 0.115439 56.3949 0.111341 56.0447C0.110274 55.7031 0.175976 55.3646 0.304751 55.0482V55.0272C0.444409 54.7034 0.64577 54.4099 0.897594 54.1631C1.04996 54.0132 1.21847 53.8807 1.40004 53.7679C1.5039 53.7056 1.6113 53.6495 1.72169 53.5997V44.8185C1.72123 44.6622 1.75185 44.5074 1.81176 44.363C1.87167 44.2186 1.95968 44.0876 2.07067 43.9776C2.29709 43.7607 2.59803 43.6388 2.91158 43.637V43.6349ZM12.2015 49.3552H14.4131C14.2844 50.138 14.2484 50.9333 14.3059 51.7245H13.3872V55.2206C13.4799 55.2658 13.5692 55.3178 13.6542 55.3761C13.8175 55.4791 13.9685 55.6004 14.1041 55.7377C14.3517 55.9846 14.5475 56.2783 14.6801 56.6018C14.9492 57.2534 14.9492 57.9851 14.6801 58.6368C14.5476 58.9484 14.3596 59.2333 14.1251 59.4777L14.1041 59.4966C13.8575 59.7444 13.5637 59.9403 13.2401 60.0726C12.7582 60.2736 12.2276 60.3275 11.7151 60.2276C11.2026 60.1278 10.7311 59.8785 10.36 59.5113L10.3389 59.4966C10.096 59.2566 9.90304 58.9708 9.77131 58.6557V58.6347C9.63642 58.3122 9.56503 57.9667 9.56109 57.6172C9.559 56.921 9.83085 56.252 10.3179 55.7545L10.3368 55.7356C10.4654 55.606 10.6062 55.4891 10.7573 55.3866C10.8367 55.3341 10.9195 55.287 11.0054 55.2458V50.5472C11.0051 50.3909 11.0359 50.2362 11.0958 50.0919C11.1556 49.9475 11.2435 49.8165 11.3543 49.7063C11.4624 49.5924 11.5929 49.5022 11.7377 49.4414C11.8824 49.3806 12.0383 49.3505 12.1952 49.3531L12.2015 49.3552ZM44.3454 77.2714V67.9015C43.4853 67.6321 42.6862 67.1972 41.993 66.6212L41.9803 66.6086V77.2777C41.8941 77.3239 41.8058 77.3723 41.7197 77.4248C41.5614 77.5237 41.4154 77.6409 41.2845 77.7738C40.7863 78.2733 40.5065 78.9499 40.5066 79.6554C40.5063 79.9978 40.5727 80.337 40.7021 80.6539V80.6729C40.836 80.9956 41.0317 81.2892 41.2782 81.5369C41.5244 81.7852 41.8183 81.9811 42.1422 82.1129C42.4644 82.2487 42.8101 82.3202 43.1597 82.3232C43.5092 82.3188 43.8546 82.2474 44.1772 82.1129C44.5011 81.9811 44.795 81.7852 45.0413 81.5369C45.2888 81.2901 45.4847 80.9963 45.6173 80.6729C45.7529 80.3506 45.8243 80.005 45.8275 79.6554C45.8279 79.313 45.7614 78.9738 45.632 78.6568V78.6379C45.4973 78.3155 45.3018 78.0221 45.056 77.7738C44.9284 77.645 44.7874 77.5302 44.6355 77.4312L44.6145 77.4185C44.5283 77.3639 44.44 77.3176 44.3538 77.2714H44.3454ZM37.862 79.5208V66.0179C37.5863 66.2984 37.2905 66.5584 36.9769 66.7957C36.5178 67.1456 36.0189 67.4398 35.4906 67.6724V78.3498H27.7542C27.7143 78.2826 27.6743 78.2153 27.626 78.1396C27.5352 78.0078 27.4325 77.8846 27.319 77.7717C27.0719 77.5246 26.7782 77.3288 26.455 77.1957C26.1327 77.0601 25.7871 76.9887 25.4375 76.9855C25.0864 76.984 24.7385 77.052 24.4138 77.1855C24.0891 77.319 23.794 77.5154 23.5454 77.7633C23.2979 78.0162 23.1029 78.3156 22.9715 78.6442C22.8406 78.9675 22.7728 79.3129 22.7718 79.6617C22.7739 80.0104 22.8416 80.3556 22.9715 80.6792C23.1046 81.0024 23.3003 81.2961 23.5475 81.5433C23.7947 81.7904 24.0884 81.9862 24.4116 82.1192C24.7346 82.2549 25.0809 82.3263 25.4312 82.3295C25.7727 82.3295 26.111 82.2639 26.4277 82.1361H26.4487C26.7715 82.0022 27.065 81.8065 27.3127 81.56C27.549 81.3226 27.7399 81.044 27.8761 80.738H36.6637C36.82 80.7385 36.9748 80.7079 37.1192 80.648C37.2635 80.5881 37.3945 80.5 37.5046 80.3891C37.7303 80.163 37.858 79.8571 37.8599 79.5376L37.862 79.5208ZM32.1417 70.2308V68.282C31.6176 68.2538 31.0973 68.1757 30.5881 68.0487C30.3127 67.9814 30.0373 67.8931 29.7703 67.8006V69.062H26.2742C26.2309 68.9661 26.1811 68.8734 26.1249 68.7845C26.0208 68.6227 25.8996 68.4725 25.7634 68.3367C25.5167 68.0889 25.2229 67.893 24.8993 67.7607C24.5783 67.6256 24.2342 67.5542 23.886 67.5504C23.1909 67.5505 22.5233 67.8221 22.0255 68.3073L22.0045 68.3199C21.758 68.5676 21.5623 68.8611 21.4285 69.1839C21.1622 69.8368 21.1622 70.5681 21.4285 71.221C21.5602 71.5351 21.7515 71.8206 21.9919 72.0619L22.0045 72.083C22.2449 72.3259 22.5306 72.5195 22.8454 72.6527H22.8643C23.1866 72.7883 23.5322 72.8597 23.8818 72.8629C24.5777 72.8634 25.2461 72.5918 25.7444 72.1061L25.7655 72.0851C25.8943 71.9564 26.0105 71.8156 26.1123 71.6646C26.1666 71.5863 26.2137 71.5032 26.2532 71.4165H30.9602C31.2745 71.416 31.5757 71.2909 31.798 71.0686C32.0202 70.8464 32.1453 70.5451 32.1459 70.2308H32.1417Z" stroke="url(#paint1_linear_735_3202)" stroke-width="0.5" stroke-miterlimit="10" mask="url(#path-2-inside-1_735_3202)"/>
<path d="M49.4617 47.015H45.0763H49.4617ZM41.7337 18.3694C40.9457 18.9498 40.2751 19.6746 39.7575 20.5053C39.7309 20.5529 39.6916 20.5922 39.644 20.6188C39.5576 20.6739 39.453 20.6929 39.3528 20.6717C39.2525 20.6504 39.1646 20.5907 39.1079 20.5053C38.5904 19.6746 37.9198 18.9498 37.1318 18.3694C36.3943 17.8305 35.5487 17.4582 34.6532 17.2783H34.6406C33.8034 17.1085 32.9417 17.0993 32.101 17.251C31.2235 17.4089 30.3804 17.7191 29.6098 18.1676C28.8535 18.6108 28.1746 19.1746 27.6001 19.8368C27.0488 20.4707 26.6159 21.1984 26.3219 21.9853C26.2735 22.1072 26.2336 22.2334 26.1936 22.3679C26.1537 22.5025 26.12 22.6223 26.0927 22.7568C26.0766 22.8428 26.0311 22.9204 25.9639 22.9764C25.8968 23.0324 25.8122 23.0633 25.7248 23.0638C24.7994 23.2106 23.9108 23.5339 23.1075 24.0161C22.2279 24.5461 21.4457 25.223 20.795 26.0175C20.0973 26.8732 19.5447 27.8377 19.1594 28.8724C18.7701 29.9249 18.5509 31.0326 18.5098 32.154C18.5098 32.3075 18.5098 32.4546 18.5098 32.6081C18.5098 32.7616 18.5098 32.8961 18.5098 33.0517C18.5138 33.1173 18.5012 33.1828 18.4733 33.2423C18.4454 33.3018 18.403 33.3534 18.35 33.3923C17.8261 33.7658 17.3288 34.1754 16.8616 34.6179C16.4312 35.0341 16.0347 35.484 15.6759 35.9633C15.1501 36.6765 14.7341 37.4645 14.4419 38.3011C14.1609 39.113 14.0119 39.9647 14.0004 40.8238C13.9924 41.6254 14.1029 42.4238 14.3284 43.1931C14.5641 43.9893 14.9101 44.7486 15.3564 45.4488C15.6139 45.8638 15.9006 46.26 16.2141 46.6345C16.5399 47.0192 16.8911 47.3816 17.2652 47.7193C17.3141 47.7646 17.3507 47.8215 17.3716 47.8847C17.3926 47.9479 17.3972 48.0154 17.3851 48.0809C17.1775 49.0703 17.1441 50.0883 17.2863 51.0892C17.4104 51.9701 17.6655 52.8275 18.0431 53.633C18.4273 54.4635 18.9278 55.235 19.5294 55.9245C20.0911 56.5766 20.7348 57.1532 21.4446 57.6399C22.1282 58.1104 22.8721 58.4866 23.6562 58.7584C24 58.8731 24.3512 58.9644 24.7073 59.0317C25.0359 59.0978 25.369 59.1385 25.7038 59.1536C25.7944 59.1507 25.8831 59.18 25.9542 59.2361C26.0254 59.2923 26.0744 59.3717 26.0927 59.4605C26.2679 60.2526 26.5856 61.0063 27.0303 61.6847C27.4953 62.3961 28.075 63.0255 28.7458 63.5474C29.5978 64.2124 30.5785 64.6934 31.6259 64.9601C32.6199 65.2179 33.6597 65.2452 34.6658 65.04C35.6149 64.8427 36.5078 64.4354 37.2789 63.848C38.1014 63.2138 38.7908 62.4237 39.3076 61.5229C39.3432 61.4618 39.3968 61.4133 39.4611 61.3841C39.5518 61.3364 39.6577 61.3264 39.7557 61.3563C39.8537 61.3862 39.936 61.4537 39.9846 61.5439C40.415 62.3683 41.002 63.1009 41.7127 63.7008C42.3902 64.2605 43.1782 64.6709 44.0252 64.9054C45.0762 65.1819 46.1779 65.205 47.2395 64.9727C48.3881 64.7312 49.4728 64.2498 50.4224 63.56C51.1649 63.0329 51.8144 62.3856 52.3439 61.6448C52.8386 60.96 53.2041 60.1905 53.4224 59.3743C53.4356 59.2955 53.4732 59.2228 53.5297 59.1663C53.5862 59.1098 53.6589 59.0723 53.7377 59.059C54.7603 58.8678 55.7305 58.4615 56.5842 57.867C57.5103 57.227 58.3117 56.4234 58.9492 55.4956C59.5805 54.574 60.0576 53.5558 60.362 52.481C60.6674 51.3921 60.7987 50.2619 60.7509 49.132C60.7441 49.0645 60.756 48.9965 60.7853 48.9353C60.8146 48.8741 60.8602 48.8222 60.917 48.7851C61.46 48.4119 61.9751 47.9995 62.4579 47.5511C62.9042 47.1305 63.3123 46.6711 63.6773 46.1783C64.1882 45.4948 64.5943 44.7387 64.8819 43.9352C65.157 43.1575 65.3109 42.3421 65.3381 41.5176C65.3577 40.7334 65.265 39.9504 65.0627 39.1924C64.8571 38.4154 64.5466 37.6699 64.1398 36.9766L64.125 36.9619C63.85 36.4939 63.5387 36.0483 63.1937 35.6291C62.8379 35.1955 62.4484 34.7907 62.0291 34.4182C61.9776 34.3729 61.9389 34.3149 61.9168 34.25C61.8946 34.1851 61.8899 34.1155 61.9029 34.0482C62.2749 32.239 62.072 30.3588 61.3227 28.6705C60.944 27.8102 60.4427 27.0094 59.8343 26.2929C59.2651 25.6188 58.6099 25.0222 57.8855 24.5185C57.1967 24.0339 56.443 23.6488 55.6466 23.3749H55.6276C55.2257 23.2374 54.8129 23.1341 54.3936 23.0659H54.3852C53.9893 22.9998 53.5881 22.9709 53.1869 22.9797C53.0956 22.9853 53.0051 22.9587 52.9314 22.9046C52.8576 22.8504 52.8052 22.7721 52.7833 22.6833C52.7166 22.4101 52.6316 22.1418 52.5289 21.8802C52.4214 21.6099 52.2985 21.346 52.161 21.0897C51.7942 20.4157 51.3239 19.8035 50.7672 19.2755C50.1982 18.7315 49.553 18.2733 48.852 17.9153C48.1262 17.5474 47.345 17.301 46.5395 17.1858C45.7706 17.0742 44.9881 17.097 44.227 17.2531C43.3302 17.4591 42.4834 17.8414 41.7358 18.3778L41.7337 18.3694ZM52.6844 25.9102C52.7086 25.835 52.7548 25.7688 52.817 25.7201C52.8792 25.6714 52.9546 25.6424 53.0334 25.637C53.3192 25.6168 53.6064 25.6303 53.8891 25.6769C54.19 25.7244 54.4861 25.7982 54.7741 25.8976C55.3537 26.0993 55.9016 26.3824 56.4013 26.7385C56.9247 27.1036 57.3976 27.5362 57.8077 28.0251V28.0378C58.2485 28.5566 58.6118 29.1365 58.8862 29.7595C59.1533 30.3599 59.3249 30.9982 59.3949 31.6516C59.4908 32.565 59.3861 33.4884 59.088 34.3572V34.3845C58.9956 34.6572 58.9956 34.9528 59.088 35.2254C59.1795 35.5005 59.3609 35.7367 59.6031 35.8961L59.6241 35.9087C60.0753 36.2444 60.4922 36.624 60.8686 37.0418C61.2356 37.4416 61.5591 37.8792 61.8336 38.3473C62.124 38.8349 62.3468 39.3596 62.4958 39.9072C62.796 40.9716 62.7541 42.1034 62.376 43.1426C62.1746 43.6864 61.8971 44.1988 61.5519 44.6647C61.1913 45.1464 60.7781 45.5864 60.3199 45.9765C59.8096 46.4077 59.2623 46.7932 58.6844 47.1285L58.6654 47.1433C58.4252 47.279 58.2367 47.4904 58.1294 47.7445C58.0207 47.993 57.9899 48.2686 58.0411 48.535V48.5896C58.1635 49.5547 58.1158 50.5338 57.9002 51.4824C57.6854 52.408 57.2989 53.2851 56.7608 54.0682C56.3868 54.6126 55.9357 55.0998 55.4216 55.5145C54.9448 55.9009 54.4021 56.1979 53.8197 56.3912C53.7221 56.4202 53.617 56.4099 53.527 56.3623C53.437 56.3147 53.3692 56.2338 53.3383 56.1368C52.5814 53.6666 51.2759 52.8699 49.0643 51.722L49.0181 51.6947C48.7231 51.5542 48.386 51.5302 48.0742 51.6274C47.9203 51.6748 47.7776 51.7526 47.6544 51.8563C47.5313 51.9599 47.4302 52.0873 47.3573 52.2308L47.3363 52.2707C47.1958 52.5657 47.1717 52.9028 47.269 53.2146C47.3756 53.5315 47.602 53.7941 47.8997 53.9462C49.7476 54.8902 51.114 55.607 51.093 57.9238C51.0774 58.6185 50.8764 59.2964 50.5107 59.8873C50.1044 60.5414 49.572 61.1081 48.9445 61.5544C48.3073 62.0197 47.5831 62.3521 46.8149 62.532C46.1101 62.7055 45.3732 62.7012 44.6706 62.5193C43.5059 62.1977 42.7491 61.4198 42.2403 60.4759C41.7887 59.5617 41.4701 58.5876 41.2943 57.5832C41.2839 57.5484 41.2797 57.5122 41.2817 57.476C41.2817 56.9924 40.9054 56.6792 40.4176 56.5384C40.198 56.4732 39.9698 56.4413 39.7407 56.4437C39.5118 56.4439 39.284 56.4758 39.0638 56.5384C38.5824 56.6855 38.2082 56.9988 38.2082 57.476C38.2063 57.5072 38.2014 57.5382 38.1934 57.5685C37.8192 59.0569 37.2768 60.1753 36.6399 60.9784C36.0271 61.8112 35.1356 62.3961 34.1276 62.6266C33.4724 62.7548 32.7965 62.7318 32.1515 62.5593C31.4695 62.3714 30.8305 62.053 30.2699 61.6217C29.721 61.1985 29.2652 60.6668 28.9308 60.0597C28.6163 59.4963 28.4479 58.8632 28.441 58.2181C28.441 55.7815 29.9126 54.9637 31.8635 53.9652C32.1353 53.8014 32.3355 53.5411 32.4239 53.2363C32.5124 52.9315 32.4827 52.6045 32.3407 52.3206C32.1988 52.0367 31.9551 51.8168 31.6581 51.7047C31.3612 51.5926 31.0329 51.5965 30.7388 51.7157H30.7198C28.422 52.8867 27.0493 53.7444 26.2252 56.2966C26.2014 56.3809 26.1503 56.455 26.0799 56.5071C26.0095 56.5592 25.9238 56.5865 25.8362 56.5846C25.6046 56.5774 25.3739 56.5506 25.1467 56.5047C24.9187 56.4597 24.6945 56.3971 24.4761 56.3176C23.9111 56.1194 23.3751 55.8465 22.8825 55.5061C22.3695 55.1522 21.9039 54.7339 21.4971 54.2616C21.061 53.7609 20.6979 53.2011 20.4187 52.5987C20.1465 52.0244 19.9609 51.413 19.8679 50.7844V50.7718C19.7982 50.2878 19.7898 49.7969 19.8426 49.3107C19.891 48.8202 19.9961 48.3369 20.1559 47.8707V47.8517C20.243 47.5861 20.243 47.2996 20.1559 47.034V47.0213C20.0671 46.749 19.8913 46.5134 19.6555 46.3507L19.6408 46.3381C19.2228 46.0292 18.835 45.6815 18.4825 45.2996C18.1408 44.933 17.8359 44.5337 17.5722 44.1076C17.2655 43.6126 17.0265 43.0788 16.8616 42.5204C16.7052 41.9851 16.6287 41.4297 16.6346 40.8722C16.6425 40.2854 16.7461 39.7038 16.9415 39.1504C17.1501 38.5734 17.4411 38.0295 17.8055 37.5359C18.1598 37.0548 18.5667 36.6148 19.0185 36.224C19.5123 35.7892 20.0434 35.3988 20.6058 35.0573C20.8165 34.9294 20.9864 34.7442 21.0956 34.5233V34.5023C21.2029 34.2796 21.2423 34.0303 21.2091 33.7854C21.206 33.7588 21.206 33.732 21.2091 33.7055V33.6908C21.1755 33.4574 21.1545 33.222 21.1418 32.9949C21.1292 32.7679 21.1271 32.4988 21.1418 32.2591C21.1698 31.4241 21.3302 30.5989 21.617 29.8142C21.9001 29.0455 22.307 28.3282 22.8216 27.6909C23.2127 27.2057 23.6732 26.7807 24.1881 26.4295C24.6556 26.1107 25.1748 25.8752 25.7227 25.7337C25.8203 25.704 25.9256 25.7142 26.0158 25.7618C26.1059 25.8094 26.1736 25.8907 26.2041 25.988C26.5421 27.1749 27.2142 28.2397 28.1403 29.0553L28.1803 29.0889C28.4213 29.3087 28.7394 29.4243 29.0653 29.4105C29.3859 29.3966 29.688 29.2569 29.9063 29.0216L29.9273 28.9943C30.1465 28.7538 30.2621 28.4365 30.2489 28.1113C30.2335 27.78 30.0894 27.4678 29.8474 27.241C29.245 26.6979 28.8125 25.9921 28.6022 25.2088C28.3918 24.4255 28.4125 23.598 28.6617 22.8262C28.8548 22.303 29.1459 21.8213 29.5194 21.4072C29.8947 20.9759 30.3378 20.6088 30.8313 20.3203L30.8523 20.3077C31.356 20.0119 31.9062 19.8036 32.4794 19.6917C33.1705 19.5508 33.8864 19.5932 34.5561 19.8144C35.2258 20.0357 35.826 20.4282 36.2972 20.9531C36.9695 21.6961 37.4825 22.569 37.8045 23.5179V23.5326C37.9454 23.9677 38.3995 24.2221 38.9355 24.323C39.1809 24.3678 39.4307 24.3833 39.6798 24.3693C39.9257 24.3565 40.1689 24.3113 40.4029 24.2347C40.8045 24.1002 41.1198 23.8879 41.1934 23.604V23.4506C41.1934 22.6727 41.6559 21.8486 42.2929 21.1717C42.9887 20.4359 43.92 19.8536 44.7042 19.7001C45.1938 19.6019 45.6969 19.5905 46.1905 19.6665C46.7025 19.7495 47.1988 19.9104 47.6621 20.1437L47.702 20.1563C48.1743 20.3964 48.6097 20.7029 48.9949 21.0666C49.368 21.4227 49.6842 21.8339 49.9326 22.2859C50.3407 23.0057 50.5017 23.8394 50.3909 24.6594C50.2836 25.4015 50.2563 25.8703 49.634 26.6145C49.5283 26.7397 49.4484 26.8846 49.3989 27.0408C49.3495 27.1971 49.3315 27.3616 49.346 27.5248C49.3725 27.8441 49.5235 28.1401 49.7665 28.3489L49.8064 28.3825C50.056 28.586 50.3747 28.6849 50.6957 28.6587C51.0166 28.6324 51.315 28.483 51.5282 28.2417L51.5618 28.1954C52.2051 27.4323 52.4133 26.8689 52.7076 25.9039L52.6844 25.9102Z" fill="url(#paint2_linear_735_3202)"/>
<mask id="path-4-inside-2_735_3202" fill="white">
<path d="M41.7297 18.5548C40.9427 19.1372 40.2723 19.8625 39.7536 20.6928C39.727 20.7404 39.6877 20.7797 39.6401 20.8063C39.5534 20.8603 39.4491 20.8787 39.3491 20.8575C39.2492 20.8364 39.1613 20.7773 39.104 20.6928C38.5866 19.8621 37.9168 19.1367 37.1299 18.5548C36.3942 18.0184 35.5518 17.6463 34.6598 17.4637H34.645C33.8086 17.2937 32.9475 17.2844 32.1076 17.4364C31.2295 17.5958 30.3859 17.9066 29.6143 18.355C28.858 18.7975 28.1791 19.3607 27.6045 20.0222C27.0526 20.6567 26.619 21.3851 26.3242 22.1728C26.278 22.2926 26.238 22.4209 26.1981 22.5554C26.1581 22.6899 26.1245 22.8098 26.0972 22.9422C26.0807 23.0282 26.0352 23.1059 25.9682 23.1621C25.9012 23.2184 25.8168 23.2499 25.7293 23.2513C24.7992 23.3967 23.9057 23.7193 23.0972 24.2015C22.2179 24.7327 21.4358 25.4103 20.7847 26.205C20.0942 27.0596 19.5475 28.021 19.166 29.0514C18.7761 30.1038 18.5568 31.2116 18.5164 32.3331C18.5164 32.4887 18.5164 32.6358 18.5164 32.7893C18.5164 32.9428 18.5164 33.0773 18.5164 33.2308C18.52 33.2969 18.5072 33.3628 18.4789 33.4227C18.4506 33.4825 18.4079 33.5343 18.3545 33.5734C17.8312 33.947 17.3346 34.3566 16.8682 34.7991C16.4366 35.2142 16.0401 35.6642 15.6825 36.1445C15.1537 36.8588 14.7362 37.6491 14.4442 38.4886C13.8944 40.0662 13.8539 41.7766 14.3286 43.3785C14.5636 44.1753 14.9089 44.9353 15.3545 45.6363C15.6126 46.051 15.8992 46.4472 16.2123 46.822C16.5386 47.2062 16.8897 47.5685 17.2634 47.9068C17.3119 47.9523 17.3483 48.0092 17.3692 48.0724C17.3901 48.1355 17.3949 48.2029 17.3832 48.2684C17.2813 48.7649 17.2208 49.2691 17.2024 49.7757C17.1886 50.2767 17.2153 50.778 17.2823 51.2746C17.4085 52.1558 17.6635 53.0135 18.0391 53.8205C18.4238 54.6512 18.925 55.4228 19.5275 56.112C20.0877 56.765 20.7317 57.3411 21.4427 57.8253C22.1246 58.2974 22.8681 58.6737 23.6522 58.9438C23.9961 59.0589 24.3472 59.1509 24.7034 59.2192C25.0325 59.2856 25.3664 59.3257 25.7019 59.339C25.7926 59.3371 25.8811 59.3669 25.9522 59.4233C26.0232 59.4797 26.0723 59.5592 26.0909 59.648C26.2647 60.4399 26.5825 61.1931 27.0285 61.8701C27.4928 62.5814 28.0717 63.2108 28.7418 63.7327C29.5941 64.3974 30.5747 64.8784 31.622 65.1455C32.6165 65.404 33.6569 65.432 34.664 65.2275C35.6122 65.0296 36.5043 64.6224 37.275 64.0355C38.0894 63.4006 38.772 62.613 39.2848 61.7167C39.3202 61.655 39.3738 61.6058 39.4382 61.5758C39.4831 61.552 39.5321 61.5373 39.5827 61.5326C39.6332 61.5279 39.6841 61.5332 39.7326 61.5482C39.7811 61.5633 39.8261 61.5878 39.865 61.6203C39.904 61.6528 39.9361 61.6927 39.9596 61.7377C40.3913 62.5607 40.9781 63.2924 41.6877 63.8925C42.3648 64.4533 43.1529 64.8646 44.0002 65.0992C45.0512 65.3757 46.1529 65.3988 47.2146 65.1665C48.3622 64.9241 49.446 64.4427 50.3953 63.7538C51.139 63.2265 51.7892 62.5785 52.3189 61.8365C52.8139 61.1518 53.1794 60.3823 53.3974 59.566C53.41 59.4875 53.4471 59.415 53.5034 59.3588C53.5596 59.3026 53.6321 59.2655 53.7106 59.2528C54.7383 59.0649 55.7139 58.6592 56.5718 58.0629C57.4983 57.4242 58.2998 56.6212 58.9369 55.6936C59.5698 54.7729 60.0471 53.7545 60.3496 52.679C60.656 51.5903 60.7873 50.4599 60.7385 49.33C60.7318 49.262 60.744 49.1935 60.7736 49.1319C60.8033 49.0704 60.8493 49.0182 60.9067 48.981C61.4497 48.6085 61.9648 48.1968 62.4477 47.7491C62.8928 47.328 63.3001 46.8686 63.6649 46.3763C64.1757 45.6923 64.5824 44.9364 64.8716 44.1332C65.1468 43.3548 65.3006 42.5387 65.3278 41.7135C65.3464 40.93 65.2537 40.1479 65.0524 39.3905C64.8457 38.6127 64.5346 37.8667 64.1274 37.1725L64.1148 37.1599C63.8396 36.6921 63.5282 36.2464 63.1835 35.8271C62.8259 35.3944 62.4366 34.9889 62.0188 34.6141C61.967 34.5694 61.9278 34.5119 61.9053 34.4473C61.8828 34.3827 61.8777 34.3134 61.8906 34.2462C61.9843 33.7917 62.0427 33.3306 62.0651 32.8671C62.0856 32.4112 62.0722 31.9545 62.0251 31.5006C61.9249 30.5899 61.6853 29.7001 61.3146 28.8622C60.9371 28.0018 60.4364 27.2008 59.8282 26.4846C59.258 25.8108 58.603 25.2137 57.8794 24.7081C57.1909 24.2237 56.438 23.838 55.6426 23.5624H55.6216C55.2203 23.4256 54.8082 23.3229 54.3896 23.2555H54.3749C53.979 23.1897 53.5779 23.1602 53.1766 23.1672C53.0858 23.1732 52.9957 23.147 52.9222 23.0932C52.8488 23.0393 52.7967 22.9613 52.7751 22.8728C52.7078 22.5999 52.6228 22.3317 52.5207 22.0698C52.4136 21.7993 52.2908 21.5354 52.1528 21.2793C51.7858 20.6048 51.3155 19.992 50.759 19.4629C50.1891 18.9207 49.5441 18.4633 48.8438 18.1049C48.1176 17.7376 47.3366 17.4905 46.5313 17.3733C45.7623 17.2627 44.9801 17.2855 44.2188 17.4406C43.3222 17.6489 42.4751 18.031 41.7255 18.5653L41.7297 18.5548ZM52.6805 26.1083C52.7053 26.0332 52.7516 25.9671 52.8136 25.9182C52.8757 25.8692 52.9507 25.8396 53.0295 25.8329C53.316 25.8138 53.6037 25.8272 53.8872 25.8728C54.1872 25.9222 54.4826 25.9968 54.7702 26.0956C55.3504 26.2973 55.899 26.5804 56.3994 26.9366C56.9213 27.2987 57.394 27.7269 57.8058 28.2105V28.2252C58.2468 28.7439 58.6101 29.3239 58.8843 29.947C59.342 30.9667 59.5156 32.0911 59.3868 33.2013C59.3358 33.6555 59.2343 34.1026 59.084 34.5342V34.5615C58.9937 34.8346 58.9937 35.1294 59.084 35.4024C59.1777 35.6769 59.3595 35.9127 59.6012 36.0731L59.6201 36.0857C60.0719 36.4207 60.4895 36.7995 60.8668 37.2167C61.2326 37.6176 61.5554 38.0559 61.8296 38.5243C62.1219 39.0112 62.3455 39.5361 62.4939 40.0842C62.7912 41.1489 62.7493 42.2798 62.3741 43.3196C62.1714 43.8621 61.894 44.3737 61.55 44.8396C61.1907 45.323 60.7773 45.7638 60.3181 46.1535C59.8081 46.5842 59.2615 46.9697 58.6846 47.3055L58.6636 47.3181C58.4236 47.4551 58.2353 47.6671 58.1275 47.9215C58.0194 48.1702 57.9893 48.4458 58.0413 48.712V48.7645C58.1659 49.7302 58.1182 50.7103 57.9004 51.6594C57.6877 52.5846 57.3018 53.4613 56.7631 54.243C56.389 54.7887 55.9371 55.2766 55.4219 55.6915C54.9458 56.0778 54.4038 56.3748 53.822 56.5682C53.7242 56.5973 53.6188 56.587 53.5285 56.5394C53.4381 56.4919 53.3699 56.4109 53.3385 56.3138C52.5817 53.8415 51.2762 53.0448 49.0667 51.899L49.0204 51.8717C48.725 51.73 48.3868 51.706 48.0744 51.8044C47.9207 51.852 47.778 51.9299 47.6549 52.0335C47.5318 52.1372 47.4306 52.2644 47.3575 52.4078L47.3386 52.4477C47.1916 52.7447 47.1674 53.0877 47.2713 53.4024C47.3752 53.7171 47.5987 53.9783 47.8936 54.1295C49.7436 55.0735 51.1101 55.7903 51.0891 58.1091C51.0737 58.8032 50.8726 59.4805 50.5067 60.0706C50.1003 60.7258 49.5671 61.2933 48.9384 61.7398C48.3016 62.2056 47.5772 62.5381 46.8088 62.7173C46.1046 62.8902 45.3684 62.8852 44.6666 62.7026C43.4998 62.381 42.743 61.6052 42.2343 60.6613C41.783 59.7464 41.4651 58.7715 41.2903 57.7665C41.2783 57.7321 41.2733 57.6956 41.2756 57.6593C41.2756 57.1778 40.9014 56.8625 40.4137 56.7216C40.1939 56.6571 39.9658 56.6259 39.7368 56.6291C39.508 56.6295 39.2803 56.6606 39.0598 56.7216C38.5784 56.8688 38.2021 57.1841 38.2021 57.6593C38.201 57.6911 38.1968 57.7228 38.1895 57.7539C37.8132 59.2402 37.2708 60.3586 36.6359 61.1638C36.0205 61.9982 35.1248 62.5826 34.1132 62.8098C33.458 62.9391 32.7819 62.9161 32.137 62.7426C31.4548 62.5554 30.8157 62.2369 30.2555 61.805C29.7056 61.3837 29.2495 60.8524 28.9163 60.2451C28.6021 59.6816 28.4337 59.0486 28.4265 58.4035C28.4265 55.9648 29.8981 55.1491 31.849 54.1506C32.0679 54.036 32.2483 53.8597 32.3679 53.6436C32.4875 53.4274 32.541 53.1809 32.5217 52.9346C32.5025 52.6884 32.4113 52.4532 32.2596 52.2582C32.1079 52.0633 31.9022 51.9172 31.6682 51.8381C31.3564 51.7406 31.0192 51.7646 30.7243 51.9053H30.7033C28.4055 53.0763 27.0327 53.934 26.2086 56.4862C26.1849 56.5702 26.1342 56.6439 26.0642 56.696C25.9942 56.7481 25.909 56.7756 25.8218 56.7742C25.5894 56.767 25.358 56.7402 25.1301 56.6943C24.9027 56.6486 24.6792 56.5853 24.4616 56.5051C23.897 56.3068 23.3612 56.0347 22.8681 55.6957C22.3547 55.3405 21.8885 54.9216 21.4806 54.4491C21.0452 53.9486 20.6821 53.3896 20.4021 52.7883C20.1312 52.2137 19.9463 51.6024 19.8534 50.974V50.9593C19.7841 50.476 19.7749 49.9859 19.8261 49.5003C19.8739 49.0095 19.9798 48.5261 20.1414 48.0603V48.0392C20.2285 47.7743 20.2285 47.4885 20.1414 47.2235V47.2088C20.0525 46.9366 19.8758 46.7014 19.639 46.5403L19.6264 46.5256C19.2079 46.2173 18.82 45.8695 18.468 45.4871C18.1247 45.1213 17.819 44.722 17.5556 44.2951C17.2505 43.7995 17.0123 43.2658 16.8471 42.7078C16.6899 42.1728 16.6127 41.6173 16.618 41.0597C16.6256 40.4733 16.73 39.8923 16.927 39.34C17.1343 38.7624 17.4255 38.2184 17.7911 37.7254C18.1451 37.2442 18.5512 36.8036 19.002 36.4115C19.4966 35.9774 20.0284 35.5877 20.5913 35.2469C20.8015 35.1181 20.9707 34.9322 21.079 34.7108V34.6919C21.1863 34.4692 21.2258 34.2199 21.1926 33.975C21.1894 33.9477 21.1894 33.9202 21.1926 33.893V33.8867C21.1589 33.6533 21.14 33.4179 21.1253 33.1908C21.1106 32.9638 21.1127 32.6947 21.1253 32.4529C21.1548 31.6181 21.3152 30.7931 21.6004 30.008C21.8842 29.2392 22.2919 28.522 22.8071 27.8847C23.1979 27.4021 23.6584 26.9805 24.1736 26.6338C24.6403 26.3144 25.1588 26.0782 25.7061 25.9359C25.804 25.9073 25.9091 25.9179 25.9993 25.9653C26.0895 26.0128 26.1578 26.0934 26.1897 26.1902C26.5263 27.3784 27.1986 28.4441 28.1259 29.2596L28.1658 29.2911C28.4057 29.5097 28.7219 29.6254 29.0463 29.6132C29.3707 29.6011 29.6773 29.462 29.9002 29.2259L29.9191 29.1986C30.0287 29.0798 30.1136 28.9403 30.1688 28.7884C30.2241 28.6364 30.2485 28.475 30.2408 28.3135C30.2253 27.9822 30.0813 27.67 29.8392 27.4432C29.236 26.9359 28.8073 26.2521 28.6136 25.4881C28.3478 24.6881 28.3619 23.8215 28.6535 23.0305C28.8474 22.507 29.1384 22.0248 29.5113 21.6094C29.8873 21.1787 30.3311 20.8123 30.8252 20.5246L30.8441 20.512C31.3473 20.2147 31.8976 20.0056 32.4713 19.8939C33.0134 19.7878 33.571 19.7878 34.1132 19.8939C34.9511 20.0801 35.7111 20.5206 36.289 21.1553C36.9621 21.8978 37.4751 22.7708 37.7964 23.7201V23.7327C37.9372 24.1678 38.3934 24.4222 38.9295 24.5231C39.1739 24.5698 39.4232 24.586 39.6716 24.5715C39.9174 24.5576 40.1604 24.5123 40.3948 24.4369C40.7963 24.3024 41.1117 24.088 41.1852 23.8063V23.6528C41.1852 22.8771 41.6456 22.053 42.2826 21.376C42.9785 20.6402 43.9098 20.0558 44.6939 19.9044C45.1836 19.8062 45.6867 19.7948 46.1802 19.8708C46.6922 19.9528 47.1886 20.113 47.6518 20.3459L47.6918 20.3606C48.1651 20.5989 48.6008 20.9056 48.9847 21.2709C49.3595 21.6254 49.676 22.0369 49.9223 22.4902C50.3271 23.2051 50.4866 24.0328 50.3764 24.8469C50.2692 25.5911 50.2439 26.0599 49.6196 26.802C49.4068 27.0553 49.3032 27.3827 49.3316 27.7123C49.3595 28.0311 49.5103 28.3266 49.752 28.5364L49.792 28.57C50.043 28.77 50.3608 28.8668 50.6807 28.8406C51.0006 28.8144 51.2985 28.6673 51.5137 28.4292L51.5474 28.3829C52.1886 27.6177 52.3883 27.0564 52.691 26.0914L52.6805 26.1083Z"/>
</mask>
<path d="M41.7297 18.5548C40.9427 19.1372 40.2723 19.8625 39.7536 20.6928C39.727 20.7404 39.6877 20.7797 39.6401 20.8063C39.5534 20.8603 39.4491 20.8787 39.3491 20.8575C39.2492 20.8364 39.1613 20.7773 39.104 20.6928C38.5866 19.8621 37.9168 19.1367 37.1299 18.5548C36.3942 18.0184 35.5518 17.6463 34.6598 17.4637H34.645C33.8086 17.2937 32.9475 17.2844 32.1076 17.4364C31.2295 17.5958 30.3859 17.9066 29.6143 18.355C28.858 18.7975 28.1791 19.3607 27.6045 20.0222C27.0526 20.6567 26.619 21.3851 26.3242 22.1728C26.278 22.2926 26.238 22.4209 26.1981 22.5554C26.1581 22.6899 26.1245 22.8098 26.0972 22.9422C26.0807 23.0282 26.0352 23.1059 25.9682 23.1621C25.9012 23.2184 25.8168 23.2499 25.7293 23.2513C24.7992 23.3967 23.9057 23.7193 23.0972 24.2015C22.2179 24.7327 21.4358 25.4103 20.7847 26.205C20.0942 27.0596 19.5475 28.021 19.166 29.0514C18.7761 30.1038 18.5568 31.2116 18.5164 32.3331C18.5164 32.4887 18.5164 32.6358 18.5164 32.7893C18.5164 32.9428 18.5164 33.0773 18.5164 33.2308C18.52 33.2969 18.5072 33.3628 18.4789 33.4227C18.4506 33.4825 18.4079 33.5343 18.3545 33.5734C17.8312 33.947 17.3346 34.3566 16.8682 34.7991C16.4366 35.2142 16.0401 35.6642 15.6825 36.1445C15.1537 36.8588 14.7362 37.6491 14.4442 38.4886C13.8944 40.0662 13.8539 41.7766 14.3286 43.3785C14.5636 44.1753 14.9089 44.9353 15.3545 45.6363C15.6126 46.051 15.8992 46.4472 16.2123 46.822C16.5386 47.2062 16.8897 47.5685 17.2634 47.9068C17.3119 47.9523 17.3483 48.0092 17.3692 48.0724C17.3901 48.1355 17.3949 48.2029 17.3832 48.2684C17.2813 48.7649 17.2208 49.2691 17.2024 49.7757C17.1886 50.2767 17.2153 50.778 17.2823 51.2746C17.4085 52.1558 17.6635 53.0135 18.0391 53.8205C18.4238 54.6512 18.925 55.4228 19.5275 56.112C20.0877 56.765 20.7317 57.3411 21.4427 57.8253C22.1246 58.2974 22.8681 58.6737 23.6522 58.9438C23.9961 59.0589 24.3472 59.1509 24.7034 59.2192C25.0325 59.2856 25.3664 59.3257 25.7019 59.339C25.7926 59.3371 25.8811 59.3669 25.9522 59.4233C26.0232 59.4797 26.0723 59.5592 26.0909 59.648C26.2647 60.4399 26.5825 61.1931 27.0285 61.8701C27.4928 62.5814 28.0717 63.2108 28.7418 63.7327C29.5941 64.3974 30.5747 64.8784 31.622 65.1455C32.6165 65.404 33.6569 65.432 34.664 65.2275C35.6122 65.0296 36.5043 64.6224 37.275 64.0355C38.0894 63.4006 38.772 62.613 39.2848 61.7167C39.3202 61.655 39.3738 61.6058 39.4382 61.5758C39.4831 61.552 39.5321 61.5373 39.5827 61.5326C39.6332 61.5279 39.6841 61.5332 39.7326 61.5482C39.7811 61.5633 39.8261 61.5878 39.865 61.6203C39.904 61.6528 39.9361 61.6927 39.9596 61.7377C40.3913 62.5607 40.9781 63.2924 41.6877 63.8925C42.3648 64.4533 43.1529 64.8646 44.0002 65.0992C45.0512 65.3757 46.1529 65.3988 47.2146 65.1665C48.3622 64.9241 49.446 64.4427 50.3953 63.7538C51.139 63.2265 51.7892 62.5785 52.3189 61.8365C52.8139 61.1518 53.1794 60.3823 53.3974 59.566C53.41 59.4875 53.4471 59.415 53.5034 59.3588C53.5596 59.3026 53.6321 59.2655 53.7106 59.2528C54.7383 59.0649 55.7139 58.6592 56.5718 58.0629C57.4983 57.4242 58.2998 56.6212 58.9369 55.6936C59.5698 54.7729 60.0471 53.7545 60.3496 52.679C60.656 51.5903 60.7873 50.4599 60.7385 49.33C60.7318 49.262 60.744 49.1935 60.7736 49.1319C60.8033 49.0704 60.8493 49.0182 60.9067 48.981C61.4497 48.6085 61.9648 48.1968 62.4477 47.7491C62.8928 47.328 63.3001 46.8686 63.6649 46.3763C64.1757 45.6923 64.5824 44.9364 64.8716 44.1332C65.1468 43.3548 65.3006 42.5387 65.3278 41.7135C65.3464 40.93 65.2537 40.1479 65.0524 39.3905C64.8457 38.6127 64.5346 37.8667 64.1274 37.1725L64.1148 37.1599C63.8396 36.6921 63.5282 36.2464 63.1835 35.8271C62.8259 35.3944 62.4366 34.9889 62.0188 34.6141C61.967 34.5694 61.9278 34.5119 61.9053 34.4473C61.8828 34.3827 61.8777 34.3134 61.8906 34.2462C61.9843 33.7917 62.0427 33.3306 62.0651 32.8671C62.0856 32.4112 62.0722 31.9545 62.0251 31.5006C61.9249 30.5899 61.6853 29.7001 61.3146 28.8622C60.9371 28.0018 60.4364 27.2008 59.8282 26.4846C59.258 25.8108 58.603 25.2137 57.8794 24.7081C57.1909 24.2237 56.438 23.838 55.6426 23.5624H55.6216C55.2203 23.4256 54.8082 23.3229 54.3896 23.2555H54.3749C53.979 23.1897 53.5779 23.1602 53.1766 23.1672C53.0858 23.1732 52.9957 23.147 52.9222 23.0932C52.8488 23.0393 52.7967 22.9613 52.7751 22.8728C52.7078 22.5999 52.6228 22.3317 52.5207 22.0698C52.4136 21.7993 52.2908 21.5354 52.1528 21.2793C51.7858 20.6048 51.3155 19.992 50.759 19.4629C50.1891 18.9207 49.5441 18.4633 48.8438 18.1049C48.1176 17.7376 47.3366 17.4905 46.5313 17.3733C45.7623 17.2627 44.9801 17.2855 44.2188 17.4406C43.3222 17.6489 42.4751 18.031 41.7255 18.5653L41.7297 18.5548ZM52.6805 26.1083C52.7053 26.0332 52.7516 25.9671 52.8136 25.9182C52.8757 25.8692 52.9507 25.8396 53.0295 25.8329C53.316 25.8138 53.6037 25.8272 53.8872 25.8728C54.1872 25.9222 54.4826 25.9968 54.7702 26.0956C55.3504 26.2973 55.899 26.5804 56.3994 26.9366C56.9213 27.2987 57.394 27.7269 57.8058 28.2105V28.2252C58.2468 28.7439 58.6101 29.3239 58.8843 29.947C59.342 30.9667 59.5156 32.0911 59.3868 33.2013C59.3358 33.6555 59.2343 34.1026 59.084 34.5342V34.5615C58.9937 34.8346 58.9937 35.1294 59.084 35.4024C59.1777 35.6769 59.3595 35.9127 59.6012 36.0731L59.6201 36.0857C60.0719 36.4207 60.4895 36.7995 60.8668 37.2167C61.2326 37.6176 61.5554 38.0559 61.8296 38.5243C62.1219 39.0112 62.3455 39.5361 62.4939 40.0842C62.7912 41.1489 62.7493 42.2798 62.3741 43.3196C62.1714 43.8621 61.894 44.3737 61.55 44.8396C61.1907 45.323 60.7773 45.7638 60.3181 46.1535C59.8081 46.5842 59.2615 46.9697 58.6846 47.3055L58.6636 47.3181C58.4236 47.4551 58.2353 47.6671 58.1275 47.9215C58.0194 48.1702 57.9893 48.4458 58.0413 48.712V48.7645C58.1659 49.7302 58.1182 50.7103 57.9004 51.6594C57.6877 52.5846 57.3018 53.4613 56.7631 54.243C56.389 54.7887 55.9371 55.2766 55.4219 55.6915C54.9458 56.0778 54.4038 56.3748 53.822 56.5682C53.7242 56.5973 53.6188 56.587 53.5285 56.5394C53.4381 56.4919 53.3699 56.4109 53.3385 56.3138C52.5817 53.8415 51.2762 53.0448 49.0667 51.899L49.0204 51.8717C48.725 51.73 48.3868 51.706 48.0744 51.8044C47.9207 51.852 47.778 51.9299 47.6549 52.0335C47.5318 52.1372 47.4306 52.2644 47.3575 52.4078L47.3386 52.4477C47.1916 52.7447 47.1674 53.0877 47.2713 53.4024C47.3752 53.7171 47.5987 53.9783 47.8936 54.1295C49.7436 55.0735 51.1101 55.7903 51.0891 58.1091C51.0737 58.8032 50.8726 59.4805 50.5067 60.0706C50.1003 60.7258 49.5671 61.2933 48.9384 61.7398C48.3016 62.2056 47.5772 62.5381 46.8088 62.7173C46.1046 62.8902 45.3684 62.8852 44.6666 62.7026C43.4998 62.381 42.743 61.6052 42.2343 60.6613C41.783 59.7464 41.4651 58.7715 41.2903 57.7665C41.2783 57.7321 41.2733 57.6956 41.2756 57.6593C41.2756 57.1778 40.9014 56.8625 40.4137 56.7216C40.1939 56.6571 39.9658 56.6259 39.7368 56.6291C39.508 56.6295 39.2803 56.6606 39.0598 56.7216C38.5784 56.8688 38.2021 57.1841 38.2021 57.6593C38.201 57.6911 38.1968 57.7228 38.1895 57.7539C37.8132 59.2402 37.2708 60.3586 36.6359 61.1638C36.0205 61.9982 35.1248 62.5826 34.1132 62.8098C33.458 62.9391 32.7819 62.9161 32.137 62.7426C31.4548 62.5554 30.8157 62.2369 30.2555 61.805C29.7056 61.3837 29.2495 60.8524 28.9163 60.2451C28.6021 59.6816 28.4337 59.0486 28.4265 58.4035C28.4265 55.9648 29.8981 55.1491 31.849 54.1506C32.0679 54.036 32.2483 53.8597 32.3679 53.6436C32.4875 53.4274 32.541 53.1809 32.5217 52.9346C32.5025 52.6884 32.4113 52.4532 32.2596 52.2582C32.1079 52.0633 31.9022 51.9172 31.6682 51.8381C31.3564 51.7406 31.0192 51.7646 30.7243 51.9053H30.7033C28.4055 53.0763 27.0327 53.934 26.2086 56.4862C26.1849 56.5702 26.1342 56.6439 26.0642 56.696C25.9942 56.7481 25.909 56.7756 25.8218 56.7742C25.5894 56.767 25.358 56.7402 25.1301 56.6943C24.9027 56.6486 24.6792 56.5853 24.4616 56.5051C23.897 56.3068 23.3612 56.0347 22.8681 55.6957C22.3547 55.3405 21.8885 54.9216 21.4806 54.4491C21.0452 53.9486 20.6821 53.3896 20.4021 52.7883C20.1312 52.2137 19.9463 51.6024 19.8534 50.974V50.9593C19.7841 50.476 19.7749 49.9859 19.8261 49.5003C19.8739 49.0095 19.9798 48.5261 20.1414 48.0603V48.0392C20.2285 47.7743 20.2285 47.4885 20.1414 47.2235V47.2088C20.0525 46.9366 19.8758 46.7014 19.639 46.5403L19.6264 46.5256C19.2079 46.2173 18.82 45.8695 18.468 45.4871C18.1247 45.1213 17.819 44.722 17.5556 44.2951C17.2505 43.7995 17.0123 43.2658 16.8471 42.7078C16.6899 42.1728 16.6127 41.6173 16.618 41.0597C16.6256 40.4733 16.73 39.8923 16.927 39.34C17.1343 38.7624 17.4255 38.2184 17.7911 37.7254C18.1451 37.2442 18.5512 36.8036 19.002 36.4115C19.4966 35.9774 20.0284 35.5877 20.5913 35.2469C20.8015 35.1181 20.9707 34.9322 21.079 34.7108V34.6919C21.1863 34.4692 21.2258 34.2199 21.1926 33.975C21.1894 33.9477 21.1894 33.9202 21.1926 33.893V33.8867C21.1589 33.6533 21.14 33.4179 21.1253 33.1908C21.1106 32.9638 21.1127 32.6947 21.1253 32.4529C21.1548 31.6181 21.3152 30.7931 21.6004 30.008C21.8842 29.2392 22.2919 28.522 22.8071 27.8847C23.1979 27.4021 23.6584 26.9805 24.1736 26.6338C24.6403 26.3144 25.1588 26.0782 25.7061 25.9359C25.804 25.9073 25.9091 25.9179 25.9993 25.9653C26.0895 26.0128 26.1578 26.0934 26.1897 26.1902C26.5263 27.3784 27.1986 28.4441 28.1259 29.2596L28.1658 29.2911C28.4057 29.5097 28.7219 29.6254 29.0463 29.6132C29.3707 29.6011 29.6773 29.462 29.9002 29.2259L29.9191 29.1986C30.0287 29.0798 30.1136 28.9403 30.1688 28.7884C30.2241 28.6364 30.2485 28.475 30.2408 28.3135C30.2253 27.9822 30.0813 27.67 29.8392 27.4432C29.236 26.9359 28.8073 26.2521 28.6136 25.4881C28.3478 24.6881 28.3619 23.8215 28.6535 23.0305C28.8474 22.507 29.1384 22.0248 29.5113 21.6094C29.8873 21.1787 30.3311 20.8123 30.8252 20.5246L30.8441 20.512C31.3473 20.2147 31.8976 20.0056 32.4713 19.8939C33.0134 19.7878 33.571 19.7878 34.1132 19.8939C34.9511 20.0801 35.7111 20.5206 36.289 21.1553C36.9621 21.8978 37.4751 22.7708 37.7964 23.7201V23.7327C37.9372 24.1678 38.3934 24.4222 38.9295 24.5231C39.1739 24.5698 39.4232 24.586 39.6716 24.5715C39.9174 24.5576 40.1604 24.5123 40.3948 24.4369C40.7963 24.3024 41.1117 24.088 41.1852 23.8063V23.6528C41.1852 22.8771 41.6456 22.053 42.2826 21.376C42.9785 20.6402 43.9098 20.0558 44.6939 19.9044C45.1836 19.8062 45.6867 19.7948 46.1802 19.8708C46.6922 19.9528 47.1886 20.113 47.6518 20.3459L47.6918 20.3606C48.1651 20.5989 48.6008 20.9056 48.9847 21.2709C49.3595 21.6254 49.676 22.0369 49.9223 22.4902C50.3271 23.2051 50.4866 24.0328 50.3764 24.8469C50.2692 25.5911 50.2439 26.0599 49.6196 26.802C49.4068 27.0553 49.3032 27.3827 49.3316 27.7123C49.3595 28.0311 49.5103 28.3266 49.752 28.5364L49.792 28.57C50.043 28.77 50.3608 28.8668 50.6807 28.8406C51.0006 28.8144 51.2985 28.6673 51.5137 28.4292L51.5474 28.3829C52.1886 27.6177 52.3883 27.0564 52.691 26.0914L52.6805 26.1083Z" stroke="url(#paint3_linear_735_3202)" stroke-opacity="0.5" stroke-width="0.5" stroke-miterlimit="10" mask="url(#path-4-inside-2_735_3202)"/>
<path d="M39.8235 35.7616C39.7381 35.5356 39.586 35.341 39.3873 35.2036C39.1887 35.0661 38.9529 34.9924 38.7113 34.9922H37.45C37.2083 34.9918 36.9722 35.0653 36.7735 35.2028C36.5747 35.3403 36.4227 35.5353 36.3379 35.7616L32.5391 45.8925C32.4838 46.0384 32.4579 46.1938 32.4627 46.3497C32.4675 46.5056 32.503 46.6591 32.5672 46.8013C32.6313 46.9435 32.7228 47.0717 32.8365 47.1785C32.9501 47.2854 33.0837 47.3688 33.2297 47.424C33.3756 47.4792 33.5309 47.5052 33.6868 47.5003C33.8428 47.4955 33.9962 47.46 34.1384 47.3959C34.2806 47.3318 34.4088 47.2403 34.5157 47.1266C34.6225 47.0129 34.7059 46.8793 34.7612 46.7334L35.4213 44.9696H40.7421L41.4023 46.7334C41.4874 46.9596 41.6394 47.1544 41.8381 47.2919C42.0368 47.4293 42.2727 47.5029 42.5144 47.5029C42.658 47.504 42.8006 47.4783 42.9348 47.4272C43.2297 47.3167 43.4687 47.0936 43.5992 46.807C43.7296 46.5205 43.741 46.1938 43.6307 45.8988L39.8235 35.7616ZM36.3084 42.5898L38.0786 37.8807L39.8466 42.6003L36.3084 42.5898Z" fill="url(#paint4_linear_735_3202)"/>
<path d="M46.3552 34.9922C46.0405 34.9922 45.7387 35.117 45.516 35.3393C45.2933 35.5616 45.1679 35.8632 45.1674 36.1779V46.3109C45.1674 46.6259 45.2925 46.928 45.5153 47.1508C45.738 47.3735 46.0401 47.4986 46.3552 47.4986C46.6702 47.4986 46.9723 47.3735 47.195 47.1508C47.4178 46.928 47.5429 46.6259 47.5429 46.3109V36.1779C47.5424 35.8632 47.417 35.5616 47.1943 35.3393C46.9716 35.117 46.6698 34.9922 46.3552 34.9922Z" fill="url(#paint5_linear_735_3202)"/>
<path d="M57.9992 70.6299C61.3133 70.6299 64 70.3495 64 70.0033C64 69.6572 61.3133 69.3767 57.9992 69.3767C54.6851 69.3767 52 69.6572 52 70.0033C52 70.3495 54.6851 70.6299 57.9992 70.6299Z" fill="url(#paint6_radial_735_3202)"/>
<path d="M58.6816 70C58.6816 73.3141 58.3757 76 57.9962 76C57.6166 76 57.3108 73.3141 57.3108 70C57.3108 66.6859 57.6245 64 57.9962 64C58.3679 64 58.6816 66.6875 58.6816 70Z" fill="url(#paint7_radial_735_3202)"/>
<path d="M20.0008 8.6305C23.3133 8.6305 26 8.35016 26 8.00414C26 7.65813 23.3133 7.37939 20.0008 7.37939C16.6883 7.37939 14 7.65973 14 8.00414C14 8.34856 16.6867 8.6305 20.0008 8.6305Z" fill="url(#paint8_radial_735_3202)"/>
<path d="M20.6831 8.0024C20.6831 11.3136 20.3694 14 19.9977 14C19.6259 14 19.3123 11.3136 19.3123 8.0024C19.3123 4.69123 19.6181 2 19.9914 2C20.3647 2 20.6831 4.68963 20.6831 8.0024Z" fill="url(#paint9_radial_735_3202)"/>
<defs>
<linearGradient id="paint0_linear_735_3202" x1="62" y1="71.5" x2="16.5" y2="-17.5" gradientUnits="userSpaceOnUse">
<stop stop-color="white" stop-opacity="0.9"/>
<stop offset="0.04" stop-color="white" stop-opacity="0.85"/>
<stop offset="0.28" stop-color="white" stop-opacity="0.5"/>
<stop offset="0.65" stop-color="#FAFBFC" stop-opacity="0.4"/>
<stop offset="1" stop-color="#F0EFEF" stop-opacity="0.3"/>
</linearGradient>
<linearGradient id="paint1_linear_735_3202" x1="57.5" y1="82" x2="36" y2="15" gradientUnits="userSpaceOnUse">
<stop stop-color="white" stop-opacity="0.9"/>
<stop offset="0.28" stop-color="white" stop-opacity="0.5"/>
<stop offset="0.65" stop-color="#FAFBFC" stop-opacity="0.4"/>
<stop offset="1" stop-color="#F0EFEF" stop-opacity="0"/>
</linearGradient>
<linearGradient id="paint2_linear_735_3202" x1="14.0046" y1="41.1455" x2="65.3318" y2="41.1455" gradientUnits="userSpaceOnUse">
<stop stop-color="#79A540"/>
<stop offset="0.2" stop-color="#94C63D"/>
<stop offset="0.39" stop-color="#98CA3C"/>
<stop offset="0.59" stop-color="#93C53E"/>
<stop offset="0.74" stop-color="#9DCB3B"/>
<stop offset="0.9" stop-color="#A6CE39"/>
<stop offset="1" stop-color="#A6CE39"/>
</linearGradient>
<linearGradient id="paint3_linear_735_3202" x1="39.6653" y1="65.6858" x2="39.6653" y2="36" gradientUnits="userSpaceOnUse">
<stop stop-color="#5DA560"/>
<stop offset="0.2" stop-color="#5CBA47"/>
<stop offset="0.39" stop-color="#98CA3C"/>
<stop offset="0.59" stop-color="#93C53E"/>
<stop offset="0.74" stop-color="#6FBE44"/>
<stop offset="0.9" stop-color="#A6CE39"/>
<stop offset="1" stop-color="#A6CE39"/>
</linearGradient>
<linearGradient id="paint4_linear_735_3202" x1="38.0786" y1="47.4965" x2="38.0786" y2="34.9922" gradientUnits="userSpaceOnUse">
<stop stop-color="#79A540"/>
<stop offset="0.2" stop-color="#94C63D"/>
<stop offset="0.39" stop-color="#98CA3C"/>
<stop offset="0.59" stop-color="#93C53E"/>
<stop offset="0.74" stop-color="#9DCB3B"/>
<stop offset="0.9" stop-color="#A6CE39"/>
<stop offset="1" stop-color="#A6CE39"/>
</linearGradient>
<linearGradient id="paint5_linear_735_3202" x1="46.3551" y1="47.4965" x2="46.3551" y2="34.9922" gradientUnits="userSpaceOnUse">
<stop stop-color="#79A540"/>
<stop offset="0.2" stop-color="#94C63D"/>
<stop offset="0.39" stop-color="#98CA3C"/>
<stop offset="0.59" stop-color="#93C53E"/>
<stop offset="0.74" stop-color="#9DCB3B"/>
<stop offset="0.9" stop-color="#A6CE39"/>
<stop offset="1" stop-color="#A6CE39"/>
</linearGradient>
<radialGradient id="paint6_radial_735_3202" cx="0" cy="0" r="1" gradientUnits="userSpaceOnUse" gradientTransform="translate(57.5641 70.336) rotate(90) scale(0.621539 5.99426)">
<stop stop-color="white"/>
<stop offset="0.07" stop-color="white" stop-opacity="0.93"/>
<stop offset="1" stop-color="white" stop-opacity="0"/>
</radialGradient>
<radialGradient id="paint7_radial_735_3202" cx="0" cy="0" r="1" gradientUnits="userSpaceOnUse" gradientTransform="translate(58.0579 70.1599) scale(0.686027 6.0101)">
<stop stop-color="white"/>
<stop offset="0.07" stop-color="white" stop-opacity="0.93"/>
<stop offset="1" stop-color="white" stop-opacity="0"/>
</radialGradient>
<radialGradient id="paint8_radial_735_3202" cx="0" cy="0" r="1" gradientUnits="userSpaceOnUse" gradientTransform="translate(19.5702 8.50555) rotate(90) scale(0.621289 5.99426)">
<stop stop-color="white"/>
<stop offset="0.07" stop-color="white" stop-opacity="0.93"/>
<stop offset="1" stop-color="white" stop-opacity="0"/>
</radialGradient>
<radialGradient id="paint9_radial_735_3202" cx="0" cy="0" r="1" gradientUnits="userSpaceOnUse" gradientTransform="translate(19.9931 8.18086) scale(0.686028 6.00769)">
<stop stop-color="white"/>
<stop offset="0.07" stop-color="white" stop-opacity="0.93"/>
<stop offset="1" stop-color="white" stop-opacity="0"/>
</radialGradient>
</defs>
</svg>
