<svg width="79" height="81" viewBox="0 0 79 81" fill="none" xmlns="http://www.w3.org/2000/svg">
<path fill-rule="evenodd" clip-rule="evenodd" d="M1.38734 39.6282C1.2694 39.7381 1.17447 39.8703 1.10806 40.0172C1.04165 40.1641 1.00509 40.3227 1.00049 40.4838C0.995901 40.645 1.02337 40.8054 1.08131 40.9559C1.13924 41.1063 1.22649 41.2437 1.33798 41.3601L36.7019 78.3443C37.6066 79.2934 38.8487 79.8481 40.1593 79.8883C41.4699 79.9284 42.7436 79.4509 43.7047 78.559L61.3351 62.1475C61.4879 62.0056 61.6103 61.8343 61.6952 61.6438C61.7801 61.4534 61.8256 61.2478 61.829 61.0393C61.8324 60.8308 61.7936 60.6238 61.715 60.4307C61.6364 60.2376 61.5196 60.0624 61.3716 59.9155L60.7492 59.2975C60.4881 59.0391 60.1376 58.8912 59.7704 58.8844C59.4032 58.8777 59.0474 59.0125 58.7769 59.261L43.7004 73.1464L43.4987 73.3417C42.7609 74.0112 41.7877 74.3606 40.7926 74.3131C39.7975 74.2656 38.8619 73.8252 38.1913 73.0885L36.9036 71.6677L36.8564 71.7085L30.7893 64.931L4.63229 38.2375C4.4099 38.0116 4.10825 37.8812 3.79133 37.874C3.47441 37.8668 3.16714 37.9833 2.9347 38.1989L1.38734 39.6282ZM4.41768 32.7284L38.4016 68.2812C39.1414 69.0513 40.1538 69.5006 41.2213 69.5323C42.2888 69.564 43.3261 69.1756 44.1103 68.4507L60.099 53.5952C60.4948 53.2285 60.8136 52.7866 61.0369 52.2953C61.2601 51.8041 61.3834 51.2733 61.3993 50.7339C61.4153 50.1945 61.3237 49.6574 61.13 49.1538C60.9362 48.6502 60.6441 48.1902 60.2706 47.8007L26.2824 12.2544C25.5444 11.4818 24.5319 11.0308 23.4639 10.9991C22.396 10.9674 21.3585 11.3574 20.5759 12.0848L4.58722 26.9403C4.19404 27.308 3.87757 27.75 3.65606 28.2406C3.43456 28.7313 3.3124 29.2609 3.29664 29.799C3.28087 30.3371 3.37182 30.873 3.56423 31.3758C3.75664 31.8786 4.0467 32.3383 4.41768 32.7284ZM11.4741 33.7049L37.9402 60.9822C38.8011 60.1847 39.9433 59.7616 41.116 59.8059C42.2886 59.8502 43.3957 60.3582 44.194 61.2182L52.8794 53.1595C52.0827 52.2991 51.6601 51.1577 51.7044 49.9859C51.7486 48.8142 52.2562 47.7079 53.1155 46.91L26.6344 19.6199C25.7732 20.4172 24.6309 20.8403 23.458 20.7965C22.2852 20.7526 21.1777 20.2453 20.3784 19.3859L11.6888 27.4489C12.488 28.3079 12.9142 29.4487 12.8739 30.6213C12.8337 31.7939 12.3304 32.9027 11.4741 33.7049Z" fill="url(#paint0_linear_735_3051)"/>
<path fill-rule="evenodd" clip-rule="evenodd" d="M1.38734 39.8149C1.18073 40.01 1.05995 40.2791 1.0515 40.5631C1.04305 40.8472 1.14762 41.123 1.34227 41.33L36.8499 78.4731C37.7425 79.4097 38.968 79.9574 40.2612 79.9975C41.5544 80.0377 42.8115 79.5672 43.7605 78.6877L61.0325 62.6153C61.2272 62.434 61.3842 62.216 61.4945 61.9739C61.6049 61.7318 61.6664 61.4703 61.6756 61.2043C61.6847 60.9384 61.6414 60.6733 61.548 60.4242C61.4546 60.175 61.313 59.9468 61.1312 59.7524L61.0261 59.6408C60.7224 59.3163 60.3027 59.1249 59.8585 59.1084C59.4143 59.0919 58.9816 59.2517 58.6546 59.5528L43.8034 73.2301L43.6017 73.4254C42.8631 74.0921 41.8904 74.4387 40.8966 74.3892C39.9029 74.3398 38.9694 73.8982 38.3007 73.1614L37.0131 71.7428L36.9658 71.7836L30.9009 65.0061L4.63228 38.216C4.43725 38.0195 4.17382 37.906 3.89706 37.8992C3.62029 37.8924 3.35161 37.9929 3.14716 38.1795L1.38734 39.8149ZM4.34685 32.6296L38.6849 68.5408C39.3784 69.268 40.3305 69.6925 41.3349 69.7222C42.3393 69.7519 43.3149 69.3845 44.0502 68.6996L60.4037 53.5072C60.7744 53.163 61.073 52.7485 61.282 52.2878C61.4911 51.8272 61.6065 51.3295 61.6215 50.8239C61.6364 50.3182 61.5507 49.8146 61.3693 49.3424C61.1879 48.8702 60.9143 48.4387 60.5647 48.0732L26.2266 12.1599C25.5332 11.4327 24.581 11.0082 23.5766 10.9785C22.5722 10.9487 21.5966 11.3162 20.8613 12.0011L4.50781 27.1935C4.13728 27.5381 3.8389 27.9528 3.62997 28.4136C3.42105 28.8744 3.30576 29.3722 3.29078 29.8779C3.27581 30.3837 3.36145 30.8874 3.54274 31.3597C3.72403 31.8321 3.99736 32.2638 4.34685 32.6296ZM26.6773 38.5809C26.2285 39.8287 26.1536 41.1803 26.4619 42.4701C26.7702 43.7598 27.4482 44.9315 28.4128 45.8415C29.3774 46.7514 30.5866 47.3601 31.8921 47.5927C33.1977 47.8253 34.5427 47.6718 35.7622 47.151C36.9817 46.6302 38.0228 45.7648 38.7575 44.6609C39.4923 43.557 39.8889 42.2627 39.8987 40.9366C39.9084 39.6106 39.5309 38.3105 38.8125 37.1959C38.094 36.0814 37.0659 35.2007 35.8541 34.662C34.9985 34.2813 34.0736 34.0812 33.1371 34.0741C32.2006 34.0671 31.2727 34.2533 30.4115 34.621C29.5502 34.9888 28.7741 35.5303 28.1316 36.2116C27.4891 36.893 26.994 37.6995 26.6773 38.5809ZM11.5664 33.7886L38.0325 61.0637C38.8936 60.2665 40.036 59.8438 41.2087 59.8885C42.3813 59.9331 43.4883 60.4415 44.2863 61.3019L52.9717 53.2432C52.1755 52.3825 51.7533 51.2412 51.7975 50.0696C51.8418 48.898 52.3489 47.7918 53.2077 46.9937L26.7374 19.7014C25.8768 20.497 24.736 20.9193 23.5648 20.8758C22.3935 20.8324 21.2872 20.3268 20.4879 19.4696L11.8068 27.524C12.6049 28.387 13.0278 29.5314 12.9828 30.706C12.9377 31.8806 12.4283 32.9893 11.5664 33.7886Z" stroke="url(#paint1_linear_735_3051)" stroke-width="0.75" stroke-miterlimit="10"/>
<path fill-rule="evenodd" clip-rule="evenodd" d="M52.4093 2.77288e-05L55.9762 0.0150506C56.7792 0.0212868 57.5471 0.345092 58.1121 0.915716C58.677 1.48634 58.9932 2.25739 58.9915 3.06041L58.9786 6.06499C58.9782 6.15232 59.0056 6.23751 59.0569 6.30816C59.1083 6.37881 59.1808 6.43121 59.2641 6.45773C60.6573 6.90579 61.9934 7.51513 63.2451 8.27335C63.3234 8.32084 63.4152 8.34093 63.5061 8.33044C63.5971 8.31995 63.6819 8.27947 63.7473 8.2154L65.9857 5.98772C66.558 5.42203 67.3312 5.10638 68.1359 5.11C68.9405 5.11362 69.7109 5.43622 70.278 6.00704L72.7868 8.53947C73.3525 9.11171 73.6682 9.88495 73.6645 10.6896C73.6609 11.4942 73.3383 12.2646 72.7675 12.8317L70.3338 15.2418C70.272 15.3042 70.2317 15.3846 70.2186 15.4714C70.2055 15.5582 70.2202 15.6469 70.2608 15.7247C70.895 16.935 71.3952 18.2109 71.7524 19.5298C71.7747 19.6172 71.8253 19.6947 71.8964 19.7502C71.9675 19.8058 72.0549 19.8362 72.1451 19.8367L75.6369 19.8517C76.4386 19.8596 77.2047 20.1838 77.7686 20.7537C78.3325 21.3236 78.6485 22.0932 78.6479 22.8949L78.6307 26.4596C78.625 27.2624 78.3017 28.0303 77.7314 28.5954C77.1611 29.1604 76.3903 29.4767 75.5875 29.4749L72.0593 29.4578C71.9699 29.4577 71.883 29.4868 71.8117 29.5406C71.7404 29.5945 71.6887 29.6701 71.6644 29.7561C71.2885 31.0568 70.7733 32.3131 70.1278 33.5032C70.0855 33.5807 70.0693 33.6697 70.0817 33.7571C70.094 33.8445 70.1343 33.9256 70.1964 33.9883L72.6387 36.4627C73.2042 37.035 73.5199 37.8079 73.5166 38.6124C73.5134 39.4169 73.1916 40.1873 72.6216 40.755L70.087 43.2638C69.5147 43.8295 68.7415 44.1452 67.9369 44.1415C67.1322 44.1379 66.3618 43.8153 65.7947 43.2445L63.4962 40.9245C63.432 40.8596 63.3479 40.818 63.2573 40.8064C63.1667 40.7947 63.0748 40.8136 62.9962 40.8602C62.8009 40.9739 62.6056 41.0748 62.4081 41.1907C62.3292 41.233 62.2385 41.2482 62.15 41.2338C62.0616 41.2195 61.9803 41.1764 61.9188 41.1113L55.9397 34.8574C55.889 34.8047 55.8535 34.7393 55.8368 34.668C55.82 34.5968 55.8228 34.5224 55.8448 34.4526C55.8667 34.3828 55.907 34.3202 55.9615 34.2714C56.016 34.2225 56.0826 34.1892 56.1543 34.175C57.8616 33.8044 59.4393 32.9858 60.7252 31.8032C62.0111 30.6206 62.9587 29.1168 63.4706 27.4464C63.9825 25.7761 64.0402 23.9996 63.6377 22.2995C63.2352 20.5995 62.3871 19.0374 61.1806 17.7739C59.974 16.5105 58.4527 15.5912 56.7731 15.1108C55.0934 14.6303 53.3161 14.606 51.6239 15.0403C49.9318 15.4746 48.3859 16.3519 47.1453 17.5819C45.9046 18.8119 45.0141 20.3502 44.5652 22.0386C44.5474 22.1098 44.5108 22.175 44.4593 22.2273C44.4079 22.2796 44.3433 22.3173 44.2724 22.3363C44.2015 22.3553 44.1268 22.3551 44.0561 22.3356C43.9853 22.3161 43.921 22.278 43.8699 22.2253L37.2169 15.2654C37.1559 15.2009 37.1176 15.1181 37.1079 15.0298C37.0982 14.9415 37.1176 14.8524 37.1632 14.7761C37.2099 14.6979 37.2294 14.6063 37.2185 14.5158C37.2076 14.4254 37.167 14.341 37.1031 14.2761L35.5107 12.6579C34.9445 12.0859 34.6285 11.3126 34.6321 10.5078C34.6357 9.70295 34.9587 8.93248 35.53 8.36563L38.0625 5.85466C38.6353 5.28978 39.4086 4.97487 40.213 4.97889C41.0175 4.98291 41.7876 5.30554 42.3547 5.87613L44.1145 7.65312C44.1764 7.71573 44.257 7.7565 44.3441 7.76928C44.4313 7.78206 44.5202 7.76614 44.5974 7.72394C45.9993 6.98366 47.4891 6.42338 49.0313 6.0564C49.1208 6.036 49.2008 5.98583 49.2581 5.9141C49.3154 5.84237 49.3467 5.75332 49.3468 5.66151L49.3597 3.01319C49.3659 2.20965 49.6904 1.44134 50.262 0.876567C50.8336 0.311791 51.6058 -0.00340383 52.4093 2.77288e-05Z" fill="url(#paint2_linear_735_3051)"/>
<path d="M34.0557 37.4436L33.2166 38.2548C32.877 38.0488 32.4985 37.9151 32.1049 37.8621L33.3217 36.6774C33.3715 36.6294 33.4113 36.572 33.4388 36.5086C33.4664 36.4451 33.4812 36.3769 33.4824 36.3077C33.4836 36.2386 33.4712 36.1699 33.4458 36.1055C33.4205 36.0412 33.3827 35.9825 33.3346 35.9327C33.2866 35.883 33.2292 35.8432 33.1658 35.8156C33.1023 35.7881 33.0341 35.7732 32.9649 35.7721C32.8958 35.7709 32.8271 35.7833 32.7627 35.8086C32.6984 35.834 32.6397 35.8718 32.5899 35.9198L28.4286 39.9589C28.3281 40.0559 28.2703 40.1889 28.2679 40.3285C28.2655 40.4682 28.3186 40.6031 28.4157 40.7036C28.5127 40.804 28.6457 40.8618 28.7854 40.8642C28.925 40.8667 29.0599 40.8135 29.1604 40.7164L30.4867 39.4288C30.7382 39.1867 31.0531 39.021 31.395 38.9507C31.7369 38.8804 32.0917 38.9085 32.4182 39.0317L29.8965 41.4676C29.8431 41.5149 29.7998 41.5725 29.7693 41.6369C29.7388 41.7014 29.7216 41.7714 29.7189 41.8427C29.7161 41.914 29.7279 41.9851 29.7534 42.0517C29.7789 42.1183 29.8176 42.1791 29.8673 42.2303C29.9169 42.2815 29.9764 42.3222 30.0422 42.3498C30.108 42.3774 30.1786 42.3913 30.25 42.3909C30.3213 42.3904 30.3918 42.3755 30.4572 42.347C30.5226 42.3185 30.5816 42.2771 30.6305 42.2252L33.2831 39.6605C33.5412 40.0201 33.6615 40.4604 33.6221 40.9012C33.5827 41.342 33.3863 41.754 33.0685 42.0621L31.7229 43.3626C31.703 43.3775 31.6849 43.3948 31.6692 43.4141C31.6406 43.4345 31.6153 43.4591 31.5941 43.4871C31.5769 43.5209 31.5646 43.5571 31.5576 43.5944L31.5383 43.6652C31.5331 43.7037 31.5331 43.7427 31.5383 43.7811C31.5383 43.809 31.549 43.8391 31.5555 43.867C31.5743 43.8929 31.5967 43.916 31.622 43.9356C31.6309 43.9995 31.6586 44.0592 31.7014 44.1073C31.7163 44.1272 31.7336 44.1453 31.7529 44.161C31.7733 44.1896 31.7979 44.2149 31.8259 44.2361C31.8596 44.2536 31.8958 44.2659 31.9332 44.2726C31.9426 44.2813 31.9539 44.2875 31.9662 44.2909C31.9786 44.2943 31.9915 44.2946 32.004 44.2919L36.8414 44.7469C36.9124 44.7577 36.9848 44.7539 37.0542 44.7357C37.1237 44.7176 37.1887 44.6855 37.2453 44.6413C37.3019 44.5972 37.3489 44.542 37.3835 44.4791C37.4181 44.4162 37.4394 44.3469 37.4463 44.2754C37.4532 44.204 37.4454 44.1319 37.4234 44.0635C37.4015 43.9952 37.3659 43.932 37.3187 43.8779C37.2715 43.8238 37.2138 43.7799 37.1491 43.7489C37.0844 43.7178 37.014 43.7003 36.9423 43.6974L33.2767 43.3304L33.7767 42.8475C34.3004 42.3456 34.617 41.6656 34.6639 40.9417C34.7107 40.2178 34.4846 39.5026 34.03 38.9373L34.7875 38.2055C34.8813 38.1069 34.9333 37.976 34.9329 37.84C34.9324 37.704 34.8795 37.5734 34.7852 37.4754C34.6908 37.3775 34.5623 37.3197 34.4264 37.3142C34.2905 37.3087 34.1577 37.3558 34.0557 37.4457V37.4436Z" fill="url(#paint3_linear_735_3051)"/>
<path d="M33.9182 37.405L33.0812 38.2141C32.7414 38.009 32.363 37.8761 31.9696 37.8235L33.1864 36.6474C33.2398 36.6001 33.2831 36.5425 33.3136 36.478C33.3442 36.4136 33.3613 36.3436 33.3641 36.2723C33.3668 36.201 33.3551 36.1299 33.3295 36.0633C33.304 35.9967 33.2653 35.9359 33.2157 35.8847C33.166 35.8335 33.1065 35.7928 33.0408 35.7652C32.975 35.7376 32.9043 35.7237 32.833 35.7241C32.7616 35.7246 32.6911 35.7395 32.6257 35.768C32.5603 35.7965 32.5014 35.8379 32.4524 35.8898L28.2847 39.9181C28.2349 39.9662 28.1951 40.0235 28.1675 40.087C28.14 40.1504 28.1252 40.2186 28.124 40.2878C28.1228 40.3569 28.1352 40.4257 28.1606 40.49C28.1859 40.5543 28.2237 40.6131 28.2718 40.6628C28.3198 40.7126 28.3772 40.7523 28.4406 40.7799C28.5041 40.8075 28.5723 40.8223 28.6415 40.8235C28.7106 40.8247 28.7793 40.8122 28.8437 40.7869C28.908 40.7615 28.9667 40.7237 29.0165 40.6757L30.3428 39.388C30.5943 39.1461 30.9094 38.9806 31.2513 38.9107C31.5932 38.8408 31.948 38.8694 32.2743 38.9931L29.7547 41.429C29.6543 41.526 29.5965 41.659 29.5941 41.7987C29.5917 41.9383 29.6448 42.0732 29.7419 42.1737C29.8389 42.2741 29.9719 42.3319 30.1116 42.3344C30.2512 42.3368 30.3861 42.2836 30.4866 42.1866L33.1392 39.6219C33.3969 39.9816 33.5169 40.4218 33.4775 40.8625C33.4382 41.3032 33.2419 41.7152 32.9246 42.0235L31.5811 43.3304C31.5622 43.3458 31.5443 43.3623 31.5275 43.3798C31.4988 43.401 31.4735 43.4263 31.4523 43.4549C31.4342 43.4882 31.4226 43.5246 31.418 43.5622L31.3965 43.6309C31.391 43.6693 31.391 43.7084 31.3965 43.7468C31.3989 43.776 31.4047 43.8048 31.4137 43.8326C31.4312 43.859 31.4529 43.8822 31.4781 43.9013C31.4888 43.9652 31.5162 44.0252 31.5575 44.0752C31.5987 44.1183 31.6402 44.1612 31.682 44.2039C31.7159 44.2205 31.752 44.2321 31.7893 44.2383C31.7986 44.247 31.8099 44.2535 31.8222 44.2572C31.8345 44.261 31.8474 44.2618 31.8601 44.2597L36.6996 44.7126C36.8342 44.7173 36.9655 44.6704 37.0667 44.5815C37.1679 44.4927 37.2313 44.3685 37.2439 44.2344C37.2565 44.1003 37.2174 43.9665 37.1346 43.8603C37.0517 43.7541 36.9315 43.6835 36.7983 43.6631L33.1499 43.2897L33.6521 42.8046C34.1749 42.3025 34.4907 41.6228 34.5372 40.8994C34.5836 40.176 34.3575 39.4614 33.9032 38.8965L34.6608 38.1626C34.7105 38.1145 34.7503 38.0571 34.7779 37.9937C34.8055 37.9303 34.8203 37.862 34.8215 37.7929C34.8227 37.7237 34.8102 37.655 34.7849 37.5907C34.7595 37.5263 34.7217 37.4676 34.6737 37.4179C34.6256 37.3681 34.5682 37.3283 34.5048 37.3008C34.4414 37.2732 34.3731 37.2584 34.304 37.2572C34.2348 37.256 34.1661 37.2684 34.1018 37.2938C34.0374 37.3191 33.9787 37.3569 33.929 37.405H33.9182Z" stroke="url(#paint4_linear_735_3051)" stroke-width="0.25" stroke-miterlimit="10"/>
<path d="M35.06 10.9935C39.7724 10.9935 43.5881 10.596 43.5881 10.1003C43.5881 9.60452 39.768 9.20703 35.06 9.20703C30.3521 9.20703 26.532 9.60452 26.532 10.1003C26.532 10.596 30.3499 10.9935 35.06 10.9935Z" fill="url(#paint5_radial_735_3051)"/>
<path d="M36.0309 10.1006C36.0309 14.8079 35.5935 18.6286 35.0578 18.6286C34.522 18.6286 34.0825 14.8079 34.0825 10.1006C34.0825 5.39328 34.5199 1.57251 35.0578 1.57251C35.5957 1.57251 36.0309 5.39105 36.0309 10.1006Z" fill="url(#paint6_radial_735_3051)"/>
<path d="M68.1065 43.8164C71.6407 43.8164 74.5025 43.5183 74.5025 43.1465C74.5025 42.7747 71.6374 42.4766 68.1065 42.4766C64.5756 42.4766 61.7104 42.7747 61.7104 43.1465C61.7104 43.5183 64.5739 43.8164 68.1065 43.8164Z" fill="url(#paint7_radial_735_3051)"/>
<path d="M68.8345 43.1468C68.8345 46.6773 68.5065 49.5428 68.1047 49.5428C67.7029 49.5428 67.3733 46.6773 67.3733 43.1468C67.3733 39.6163 67.7013 36.7507 68.1047 36.7507C68.5082 36.7507 68.8345 39.6146 68.8345 43.1468Z" fill="url(#paint8_radial_735_3051)"/>
<defs>
<linearGradient id="paint0_linear_735_3051" x1="1.00748" y1="45.4421" x2="61.8287" y2="45.4421" gradientUnits="userSpaceOnUse">
<stop stop-color="#79A540"/>
<stop offset="0.2" stop-color="#94C63D"/>
<stop offset="0.39" stop-color="#98CA3C"/>
<stop offset="0.59" stop-color="#93C53E"/>
<stop offset="0.74" stop-color="#9DCB3B"/>
<stop offset="0.9" stop-color="#A6CE39"/>
<stop offset="1" stop-color="#A6CE39"/>
</linearGradient>
<linearGradient id="paint1_linear_735_3051" x1="0.72633" y1="45.4871" x2="61.9983" y2="45.4871" gradientUnits="userSpaceOnUse">
<stop stop-color="#5DA560"/>
<stop offset="0.2" stop-color="#5CBA47"/>
<stop offset="0.39" stop-color="#98CA3C"/>
<stop offset="0.59" stop-color="#93C53E"/>
<stop offset="0.74" stop-color="#6FBE44"/>
<stop offset="0.9" stop-color="#A6CE39"/>
<stop offset="1" stop-color="#72BF44"/>
</linearGradient>
<linearGradient id="paint2_linear_735_3051" x1="34.6372" y1="22.0665" x2="78.6436" y2="22.0665" gradientUnits="userSpaceOnUse">
<stop stop-color="white" stop-opacity="0.9"/>
<stop offset="0.04" stop-color="white" stop-opacity="0.85"/>
<stop offset="0.28" stop-color="white" stop-opacity="0.5"/>
<stop offset="0.65" stop-color="#FAFBFC" stop-opacity="0.4"/>
<stop offset="1" stop-color="#F0EFEF" stop-opacity="0.3"/>
</linearGradient>
<linearGradient id="paint3_linear_735_3051" x1="37.101" y1="44.7665" x2="30.508" y2="37.9464" gradientUnits="userSpaceOnUse">
<stop stop-color="#79A540"/>
<stop offset="0.2" stop-color="#94C63D"/>
<stop offset="0.39" stop-color="#98CA3C"/>
<stop offset="0.59" stop-color="#93C53E"/>
<stop offset="0.74" stop-color="#9DCB3B"/>
<stop offset="0.9" stop-color="#A6CE39"/>
<stop offset="1" stop-color="#A6CE39"/>
</linearGradient>
<linearGradient id="paint4_linear_735_3051" x1="37.0366" y1="44.8048" x2="30.2934" y2="37.8278" gradientUnits="userSpaceOnUse">
<stop stop-color="#5DA560"/>
<stop offset="0.2" stop-color="#5CBA47"/>
<stop offset="0.39" stop-color="#98CA3C"/>
<stop offset="0.59" stop-color="#93C53E"/>
<stop offset="0.74" stop-color="#6FBE44"/>
<stop offset="0.9" stop-color="#A6CE39"/>
<stop offset="1" stop-color="#72BF44"/>
</linearGradient>
<radialGradient id="paint5_radial_735_3051" cx="0" cy="0" r="1" gradientUnits="userSpaceOnUse" gradientTransform="translate(34.1664 10.7903) rotate(90) scale(0.883221 8.52264)">
<stop stop-color="white"/>
<stop offset="0.07" stop-color="white" stop-opacity="0.93"/>
<stop offset="1" stop-color="white" stop-opacity="0"/>
</radialGradient>
<radialGradient id="paint6_radial_735_3051" cx="0" cy="0" r="1" gradientUnits="userSpaceOnUse" gradientTransform="translate(35.0163 10.5259) scale(0.975348 8.54008)">
<stop stop-color="white"/>
<stop offset="0.07" stop-color="white" stop-opacity="0.93"/>
<stop offset="1" stop-color="white" stop-opacity="0"/>
</radialGradient>
<radialGradient id="paint7_radial_735_3051" cx="0" cy="0" r="1" gradientUnits="userSpaceOnUse" gradientTransform="translate(67.4362 43.664) rotate(90) scale(0.662416 6.39198)">
<stop stop-color="white"/>
<stop offset="0.07" stop-color="white" stop-opacity="0.93"/>
<stop offset="1" stop-color="white" stop-opacity="0"/>
</radialGradient>
<radialGradient id="paint8_radial_735_3051" cx="0" cy="0" r="1" gradientUnits="userSpaceOnUse" gradientTransform="translate(68.0736 43.4658) scale(0.731511 6.40506)">
<stop stop-color="white"/>
<stop offset="0.07" stop-color="white" stop-opacity="0.93"/>
<stop offset="1" stop-color="white" stop-opacity="0"/>
</radialGradient>
</defs>
</svg>
