<svg width="81" height="68" viewBox="0 0 81 68" fill="none" xmlns="http://www.w3.org/2000/svg">
<path fill-rule="evenodd" clip-rule="evenodd" d="M30.4374 63.7404L30.3418 53.273L35.0539 53.2289C37.0646 53.5522 39.0606 54.6249 41.0713 55.869L44.7254 55.8347C46.3859 55.918 47.2676 57.5907 45.6683 58.705C44.3948 59.6626 42.7098 59.6235 40.9636 59.4839C39.766 59.4373 39.739 61.0415 40.9783 61.0366C41.4118 61.0684 41.8845 60.9607 42.2935 60.9558C44.4511 60.9362 46.2389 60.5076 47.3141 58.7834L47.8431 57.5001L53.3022 54.7669C56.0305 53.8461 57.9824 56.6723 55.9962 58.6855C52.2231 61.4909 48.1821 63.9167 43.9319 65.9274C40.944 67.7814 37.939 67.7471 34.9266 66.0107L30.4594 63.7526L30.4374 63.7404ZM24.4199 52.3178L28.9165 52.2762L29.0316 64.8082L24.535 64.8474L24.4199 52.3178ZM44.5932 26.0513C44.6082 25.8151 44.7155 25.5943 44.8919 25.4366C45.0643 25.2822 45.2902 25.2014 45.5214 25.2113H45.5826C45.8057 25.2382 46.0105 25.3481 46.1562 25.5192C46.3019 25.6903 46.3778 25.91 46.3688 26.1346V26.1787L46.2561 28.0742V28.133C46.2291 28.3495 46.1258 28.5493 45.9647 28.6963C45.7908 28.8493 45.5641 28.9284 45.3328 28.9167H45.2716C45.0612 28.8941 44.8662 28.7958 44.723 28.64C44.5687 28.4666 44.4879 28.24 44.4976 28.0081C44.4952 27.9935 44.4952 27.9786 44.4976 27.964L44.6054 26.0611L44.5932 26.0513ZM34.7012 29.0514C34.6181 28.9697 34.5519 28.8725 34.5063 28.7652C34.4608 28.6579 34.4368 28.5427 34.4358 28.4261C34.4348 28.3096 34.4567 28.194 34.5004 28.0859C34.544 27.9778 34.6085 27.8794 34.6902 27.7963C34.7719 27.7131 34.8692 27.6469 34.9765 27.6014C35.0838 27.5558 35.199 27.5318 35.3155 27.5308C35.4321 27.5298 35.5477 27.5517 35.6558 27.5954C35.7638 27.639 35.8622 27.7036 35.9454 27.7853L37.3267 29.1592C37.4151 29.2395 37.4864 29.3369 37.5363 29.4455C37.5861 29.5541 37.6135 29.6717 37.6168 29.7911C37.6201 29.9106 37.5992 30.0295 37.5553 30.1406C37.5115 30.2518 37.4457 30.353 37.3617 30.438C37.2778 30.5231 37.1776 30.5904 37.067 30.6357C36.9565 30.681 36.8379 30.7036 36.7184 30.7019C36.5989 30.7003 36.481 30.6745 36.3717 30.6262C36.2624 30.5778 36.1641 30.5078 36.0825 30.4205L34.7012 29.0441V29.0514ZM32.0538 38.7449C31.8205 38.7404 31.5984 38.6445 31.4353 38.4777C31.2722 38.3109 31.1812 38.0867 31.1819 37.8535C31.1851 37.6233 31.2785 37.4035 31.4419 37.2414C31.6054 37.0793 31.826 36.9878 32.0562 36.9865L33.9983 36.9669C34.234 36.9692 34.4592 37.0643 34.6253 37.2314C34.7097 37.3134 34.7764 37.4117 34.8215 37.5203C34.8666 37.629 34.889 37.7457 34.8874 37.8633V37.8927C34.8765 38.1118 34.7839 38.3189 34.6278 38.4731C34.4606 38.6395 34.2342 38.7328 33.9983 38.7327H32.0391L32.0538 38.7449ZM56.6182 36.842H56.6452C56.8675 36.8353 57.0842 36.9122 57.2526 37.0575C57.4292 37.2136 57.5382 37.4323 57.5562 37.6673V37.6943C57.5634 37.9171 57.4855 38.1343 57.3383 38.3017C57.1836 38.4784 56.9652 38.5867 56.7309 38.6029L54.7937 38.74C54.5623 38.7496 54.3364 38.6686 54.1639 38.5141C53.9913 38.3597 53.8859 38.144 53.8699 37.913C53.854 37.682 53.9288 37.4539 54.0784 37.2773C54.2281 37.1006 54.4407 36.9892 54.6712 36.9669C55.3202 36.9204 55.9692 36.8689 56.6305 36.8298L56.6182 36.842ZM53.0425 28.9804C53.179 28.7925 53.384 28.6658 53.6131 28.6277C53.8423 28.5897 54.0772 28.6434 54.2671 28.7771C54.4547 28.9153 54.5798 29.1223 54.6149 29.3527C54.6492 29.5854 54.5921 29.8223 54.4557 30.0139L53.3217 31.5911C53.2558 31.689 53.1707 31.7726 53.0716 31.8368C52.9726 31.901 52.8616 31.9446 52.7453 31.9648C52.629 31.9851 52.5098 31.9817 52.3948 31.9547C52.2799 31.9278 52.1715 31.878 52.0763 31.8082C51.9811 31.7384 51.901 31.6501 51.8407 31.5486C51.7805 31.447 51.7414 31.3344 51.7257 31.2174C51.71 31.1004 51.7182 30.9814 51.7496 30.8676C51.781 30.7538 51.8351 30.6476 51.9086 30.5552L53.0474 28.9755L53.0425 28.9804ZM47.3092 51.8011C46.9401 52.3912 46.4235 52.8748 45.8104 53.2044C45.2919 53.483 44.7161 53.6381 44.1278 53.6575C43.5318 53.6774 42.9409 53.5414 42.4135 53.2632C42.0414 53.0614 41.7094 52.7933 41.4338 52.4721L47.2994 51.8011H47.3092ZM47.9631 48.556V49.0703C47.9803 49.3256 47.9803 49.5816 47.9631 49.8369L47.8284 50.3855L40.726 51.179L40.6134 50.8875L40.3685 49.7487V49.4058L47.9901 48.556H47.9631ZM41.4559 38.7743C41.7886 38.8995 42.0915 39.0931 42.3449 39.3425C42.5513 39.5331 42.7452 39.7368 42.9253 39.9524C43.5198 39.059 44.1744 38.2072 44.8846 37.4028C45.5159 36.6703 46.2091 35.9935 46.9565 35.3799L47.1206 35.3236L48.9085 35.3848L48.5411 35.7644C47.5126 36.8386 46.5616 37.9844 45.6952 39.1931C44.6621 40.5497 43.7189 41.9724 42.8714 43.4521C42.4896 42.5257 41.9846 41.655 41.3701 40.8634C40.8899 40.2131 40.3115 39.6414 39.6558 39.1686L41.4436 38.7694L41.4559 38.7743ZM37.3414 33.8468C37.8042 33.137 38.3752 32.504 39.0337 31.9708C39.7002 31.4253 40.4535 30.9956 41.2624 30.6997L41.331 30.6776C41.934 30.4617 42.5604 30.3179 43.1972 30.249C43.8702 30.1788 44.5492 30.1878 45.2201 30.276C46.5367 30.4372 47.8 30.8935 48.9158 31.6107C49.6453 32.0702 50.2982 32.6412 50.8506 33.3031C51.3886 33.9545 51.814 34.6912 52.1094 35.4828C52.2758 35.9357 52.4036 36.4019 52.4915 36.8763C52.5866 37.3817 52.6317 37.8952 52.6262 38.4094C52.6233 38.9862 52.5585 39.5609 52.4327 40.1238C52.3021 40.6968 52.1151 41.2555 51.8743 41.7916C51.3478 42.9598 50.4783 44.0766 49.6236 45.1738C49.2048 45.7151 48.7885 46.2539 48.4309 46.7829C48.32 46.9473 48.1662 47.078 47.9861 47.161C47.806 47.2439 47.6066 47.2758 47.4096 47.2531L41.0199 47.9756C40.7663 48.0039 40.5108 47.9422 40.2981 47.8011C40.0855 47.6601 39.9292 47.4488 39.8566 47.2041C39.7118 46.7169 39.5267 46.2426 39.3031 45.7861C39.1235 45.4093 38.9025 45.0536 38.6443 44.7256C38.3333 44.3436 38.0149 43.9542 37.6965 43.4888C37.3398 42.976 37.0354 42.4288 36.7879 41.8553L36.7658 41.7941C36.5208 41.2084 36.3322 40.6007 36.2025 39.9793C36.075 39.3344 36.0241 38.6768 36.0507 38.02C36.0804 37.3375 36.1947 36.6612 36.3911 36.0069C36.5972 35.3073 36.8823 34.6336 37.241 33.9986V33.9766L37.3193 33.8566L37.3414 33.8468Z" fill="url(#paint0_linear_735_3176)"/>
<mask id="path-2-inside-1_735_3176" fill="white">
<path fill-rule="evenodd" clip-rule="evenodd" d="M30.2839 63.7332L30.1868 53.2657L34.976 53.2216C37.0197 53.5449 39.0508 54.6176 41.092 55.8618L44.8084 55.8275C46.4936 55.9107 47.3897 57.5835 45.7667 58.6978C44.4698 59.6554 42.7573 59.6163 40.9825 59.4767C39.7653 59.4301 39.7379 61.0343 40.9974 61.0294C41.438 61.0612 41.9184 60.9535 42.3341 60.9486C44.5271 60.929 46.3467 60.5004 47.4395 58.7762L47.9746 57.4929L53.5106 54.767C56.2836 53.8461 58.2675 56.6724 56.2487 58.6856C52.4139 61.4911 48.3067 63.9169 43.9869 65.9276C40.9526 67.7816 37.8959 67.7473 34.8341 66.0109L30.2938 63.7528L30.2839 63.7332ZM24.158 52.3179L28.7281 52.2763L28.8451 64.7961L24.275 64.8377L24.158 52.3179ZM44.6615 26.0512C44.6757 25.8175 44.7824 25.5987 44.9588 25.4416C45.1352 25.2845 45.3672 25.2018 45.6049 25.2112H45.6671C45.8939 25.2381 46.102 25.348 46.2501 25.5191C46.3982 25.6902 46.4753 25.9099 46.4662 26.1345V26.1786L46.3616 28.0717V28.1305C46.3342 28.347 46.2292 28.5467 46.0654 28.6938C45.8895 28.8464 45.66 28.9255 45.4257 28.9142H45.361C45.1467 28.8912 44.9484 28.7919 44.8034 28.635C44.6465 28.4627 44.5643 28.2368 44.5744 28.0056C44.5719 27.991 44.5719 27.9761 44.5744 27.9615L44.6839 26.0586L44.6615 26.0512ZM34.6126 29.0318C34.4516 28.8647 34.3627 28.6428 34.3646 28.4125C34.3666 28.1823 34.4592 27.9618 34.623 27.7975C34.7869 27.6331 35.0091 27.5377 35.243 27.5313C35.4769 27.5249 35.7042 27.608 35.8771 27.7631L37.281 29.1395C37.3709 29.2199 37.4434 29.3173 37.4941 29.4259C37.5447 29.5345 37.5726 29.652 37.5759 29.7715C37.5792 29.8909 37.558 30.0098 37.5134 30.121C37.4689 30.2322 37.402 30.3333 37.3167 30.4184C37.2314 30.5035 37.1295 30.5707 37.0171 30.616C36.9048 30.6614 36.7842 30.6839 36.6628 30.6823C36.5413 30.6806 36.4215 30.6549 36.3104 30.6065C36.1994 30.5581 36.0994 30.4882 36.0165 30.4008L34.6126 29.0244V29.0318ZM31.9243 38.7229C31.6957 38.711 31.4806 38.6133 31.3231 38.45C31.1656 38.2866 31.0778 38.0701 31.0778 37.8449C31.0778 37.6197 31.1656 37.4032 31.3231 37.2398C31.4806 37.0765 31.6957 36.9788 31.9243 36.9669L33.8982 36.9473C34.0173 36.9479 34.1351 36.9715 34.2448 37.0169C34.3546 37.0623 34.4542 37.1285 34.5379 37.2118C34.6232 37.2941 34.6908 37.3925 34.7365 37.501C34.7823 37.6096 34.8053 37.7261 34.8043 37.8437V37.8682C34.7932 38.0873 34.6991 38.2944 34.5404 38.4486C34.3705 38.615 34.1404 38.7084 33.9007 38.7082H31.9093L31.9243 38.7229ZM56.8885 36.8224H56.9158C57.1418 36.8157 57.362 36.8926 57.5332 37.0379C57.7128 37.1939 57.8235 37.4127 57.8418 37.6477V37.6747C57.8482 37.9036 57.7645 38.1261 57.6082 38.2959C57.452 38.4656 57.2351 38.5694 57.003 38.5857L55.0315 38.7229C54.7964 38.7325 54.5667 38.6514 54.3914 38.497C54.2161 38.3425 54.1089 38.1269 54.0927 37.8959C54.0765 37.6649 54.1525 37.4368 54.3046 37.2601C54.4567 37.0834 54.6728 36.9721 54.9071 36.9497C55.5692 36.9032 56.2288 36.8518 56.8984 36.8126L56.8885 36.8224ZM53.2542 28.9608C53.3926 28.7723 53.6009 28.6452 53.834 28.6071C54.0671 28.569 54.306 28.6231 54.4988 28.7575C54.5936 28.825 54.6736 28.9105 54.7343 29.0089C54.795 29.1074 54.8351 29.2167 54.8523 29.3306C54.8873 29.5641 54.8293 29.8018 54.6905 29.9943L53.538 31.5691C53.3978 31.7596 53.1867 31.8879 52.9508 31.9259C52.7149 31.964 52.4732 31.9088 52.2785 31.7723C52.089 31.6319 51.9623 31.4248 51.925 31.1943C51.9092 31.0783 51.9169 30.9604 51.9476 30.8473C51.9784 30.7342 52.0316 30.6283 52.1042 30.5355L53.2592 28.9559L53.2542 28.9608ZM47.432 51.7815C47.0581 52.3727 46.5328 52.8567 45.9086 53.1849C45.3818 53.4638 44.7965 53.6189 44.1985 53.638C43.5927 53.6579 42.9922 53.522 42.4561 53.2437C42.0781 53.0417 41.7407 52.7736 41.4604 52.4526L47.4345 51.7815H47.432ZM48.0966 48.5365V48.921V49.0508C48.114 49.3052 48.114 49.5605 48.0966 49.8149L47.9597 50.3635L40.741 51.1595L40.6265 50.868L40.3776 49.7292V49.379L48.1265 48.5291L48.0966 48.5365ZM41.4853 38.767C41.8222 38.8923 42.129 39.0849 42.3864 39.3327C42.5956 39.5247 42.7926 39.7292 42.9763 39.945C43.5805 39.0517 44.2459 38.1999 44.9677 37.3955C45.6093 36.6629 46.3139 35.9861 47.0735 35.3725L47.2403 35.3162L49.0599 35.3774L48.6841 35.757C47.6387 36.8312 46.6721 37.977 45.7916 39.1858C44.7416 40.5424 43.7829 41.9651 42.9216 43.4448C42.5334 42.5184 42.0202 41.6476 41.3957 40.8561C40.9082 40.2052 40.3203 39.6334 39.6532 39.1613L41.4704 38.7621L41.4853 38.767ZM37.3009 33.8394C37.772 33.1301 38.3523 32.4973 39.021 31.9634C39.6986 31.4176 40.4642 30.9872 41.2862 30.6898L41.3559 30.6702C41.9688 30.4546 42.6055 30.3107 43.2526 30.2416C43.9394 30.1722 44.6322 30.1837 45.3162 30.2759C46.6542 30.4376 47.9381 30.8938 49.0724 31.6107C49.8125 32.0709 50.4752 32.6418 51.0364 33.303C51.5839 33.954 52.0164 34.6908 52.3158 35.4827C52.4849 35.9357 52.6148 36.4018 52.7041 36.8763C52.8008 37.3817 52.8466 37.8952 52.841 38.4094C52.8394 38.9862 52.7734 39.5611 52.6444 40.1238C52.5116 40.6968 52.3215 41.2555 52.0768 41.7916C51.5417 42.9599 50.658 44.0767 49.7893 45.1739C49.3636 45.7151 48.9404 46.2515 48.577 46.7829C48.4646 46.9475 48.3082 47.0785 48.1251 47.1614C47.942 47.2444 47.7392 47.2761 47.539 47.2531L41.0447 47.9756C40.7869 48.004 40.5273 47.9422 40.3111 47.8012C40.0949 47.6602 39.9361 47.4488 39.8623 47.2042C39.7152 46.7169 39.527 46.2426 39.2998 45.7861C39.1172 45.4093 38.8926 45.0537 38.6302 44.7257C38.314 44.3436 37.9905 43.9542 37.6669 43.4889C37.3053 42.9755 36.9959 42.4283 36.7434 41.8553L36.7234 41.7941C36.4724 41.2089 36.2799 40.6011 36.1484 39.9793C36.0202 39.3343 35.9684 38.6768 35.9941 38.02C36.0251 37.3373 36.1422 36.6611 36.3426 36.0068C36.551 35.3069 36.8408 34.633 37.2064 33.9986V33.9496L37.2835 33.8296L37.3009 33.8394Z"/>
</mask>
<path fill-rule="evenodd" clip-rule="evenodd" d="M30.2839 63.7332L30.1868 53.2657L34.976 53.2216C37.0197 53.5449 39.0508 54.6176 41.092 55.8618L44.8084 55.8275C46.4936 55.9107 47.3897 57.5835 45.7667 58.6978C44.4698 59.6554 42.7573 59.6163 40.9825 59.4767C39.7653 59.4301 39.7379 61.0343 40.9974 61.0294C41.438 61.0612 41.9184 60.9535 42.3341 60.9486C44.5271 60.929 46.3467 60.5004 47.4395 58.7762L47.9746 57.4929L53.5106 54.767C56.2836 53.8461 58.2675 56.6724 56.2487 58.6856C52.4139 61.4911 48.3067 63.9169 43.9869 65.9276C40.9526 67.7816 37.8959 67.7473 34.8341 66.0109L30.2938 63.7528L30.2839 63.7332ZM24.158 52.3179L28.7281 52.2763L28.8451 64.7961L24.275 64.8377L24.158 52.3179ZM44.6615 26.0512C44.6757 25.8175 44.7824 25.5987 44.9588 25.4416C45.1352 25.2845 45.3672 25.2018 45.6049 25.2112H45.6671C45.8939 25.2381 46.102 25.348 46.2501 25.5191C46.3982 25.6902 46.4753 25.9099 46.4662 26.1345V26.1786L46.3616 28.0717V28.1305C46.3342 28.347 46.2292 28.5467 46.0654 28.6938C45.8895 28.8464 45.66 28.9255 45.4257 28.9142H45.361C45.1467 28.8912 44.9484 28.7919 44.8034 28.635C44.6465 28.4627 44.5643 28.2368 44.5744 28.0056C44.5719 27.991 44.5719 27.9761 44.5744 27.9615L44.6839 26.0586L44.6615 26.0512ZM34.6126 29.0318C34.4516 28.8647 34.3627 28.6428 34.3646 28.4125C34.3666 28.1823 34.4592 27.9618 34.623 27.7975C34.7869 27.6331 35.0091 27.5377 35.243 27.5313C35.4769 27.5249 35.7042 27.608 35.8771 27.7631L37.281 29.1395C37.3709 29.2199 37.4434 29.3173 37.4941 29.4259C37.5447 29.5345 37.5726 29.652 37.5759 29.7715C37.5792 29.8909 37.558 30.0098 37.5134 30.121C37.4689 30.2322 37.402 30.3333 37.3167 30.4184C37.2314 30.5035 37.1295 30.5707 37.0171 30.616C36.9048 30.6614 36.7842 30.6839 36.6628 30.6823C36.5413 30.6806 36.4215 30.6549 36.3104 30.6065C36.1994 30.5581 36.0994 30.4882 36.0165 30.4008L34.6126 29.0244V29.0318ZM31.9243 38.7229C31.6957 38.711 31.4806 38.6133 31.3231 38.45C31.1656 38.2866 31.0778 38.0701 31.0778 37.8449C31.0778 37.6197 31.1656 37.4032 31.3231 37.2398C31.4806 37.0765 31.6957 36.9788 31.9243 36.9669L33.8982 36.9473C34.0173 36.9479 34.1351 36.9715 34.2448 37.0169C34.3546 37.0623 34.4542 37.1285 34.5379 37.2118C34.6232 37.2941 34.6908 37.3925 34.7365 37.501C34.7823 37.6096 34.8053 37.7261 34.8043 37.8437V37.8682C34.7932 38.0873 34.6991 38.2944 34.5404 38.4486C34.3705 38.615 34.1404 38.7084 33.9007 38.7082H31.9093L31.9243 38.7229ZM56.8885 36.8224H56.9158C57.1418 36.8157 57.362 36.8926 57.5332 37.0379C57.7128 37.1939 57.8235 37.4127 57.8418 37.6477V37.6747C57.8482 37.9036 57.7645 38.1261 57.6082 38.2959C57.452 38.4656 57.2351 38.5694 57.003 38.5857L55.0315 38.7229C54.7964 38.7325 54.5667 38.6514 54.3914 38.497C54.2161 38.3425 54.1089 38.1269 54.0927 37.8959C54.0765 37.6649 54.1525 37.4368 54.3046 37.2601C54.4567 37.0834 54.6728 36.9721 54.9071 36.9497C55.5692 36.9032 56.2288 36.8518 56.8984 36.8126L56.8885 36.8224ZM53.2542 28.9608C53.3926 28.7723 53.6009 28.6452 53.834 28.6071C54.0671 28.569 54.306 28.6231 54.4988 28.7575C54.5936 28.825 54.6736 28.9105 54.7343 29.0089C54.795 29.1074 54.8351 29.2167 54.8523 29.3306C54.8873 29.5641 54.8293 29.8018 54.6905 29.9943L53.538 31.5691C53.3978 31.7596 53.1867 31.8879 52.9508 31.9259C52.7149 31.964 52.4732 31.9088 52.2785 31.7723C52.089 31.6319 51.9623 31.4248 51.925 31.1943C51.9092 31.0783 51.9169 30.9604 51.9476 30.8473C51.9784 30.7342 52.0316 30.6283 52.1042 30.5355L53.2592 28.9559L53.2542 28.9608ZM47.432 51.7815C47.0581 52.3727 46.5328 52.8567 45.9086 53.1849C45.3818 53.4638 44.7965 53.6189 44.1985 53.638C43.5927 53.6579 42.9922 53.522 42.4561 53.2437C42.0781 53.0417 41.7407 52.7736 41.4604 52.4526L47.4345 51.7815H47.432ZM48.0966 48.5365V48.921V49.0508C48.114 49.3052 48.114 49.5605 48.0966 49.8149L47.9597 50.3635L40.741 51.1595L40.6265 50.868L40.3776 49.7292V49.379L48.1265 48.5291L48.0966 48.5365ZM41.4853 38.767C41.8222 38.8923 42.129 39.0849 42.3864 39.3327C42.5956 39.5247 42.7926 39.7292 42.9763 39.945C43.5805 39.0517 44.2459 38.1999 44.9677 37.3955C45.6093 36.6629 46.3139 35.9861 47.0735 35.3725L47.2403 35.3162L49.0599 35.3774L48.6841 35.757C47.6387 36.8312 46.6721 37.977 45.7916 39.1858C44.7416 40.5424 43.7829 41.9651 42.9216 43.4448C42.5334 42.5184 42.0202 41.6476 41.3957 40.8561C40.9082 40.2052 40.3203 39.6334 39.6532 39.1613L41.4704 38.7621L41.4853 38.767ZM37.3009 33.8394C37.772 33.1301 38.3523 32.4973 39.021 31.9634C39.6986 31.4176 40.4642 30.9872 41.2862 30.6898L41.3559 30.6702C41.9688 30.4546 42.6055 30.3107 43.2526 30.2416C43.9394 30.1722 44.6322 30.1837 45.3162 30.2759C46.6542 30.4376 47.9381 30.8938 49.0724 31.6107C49.8125 32.0709 50.4752 32.6418 51.0364 33.303C51.5839 33.954 52.0164 34.6908 52.3158 35.4827C52.4849 35.9357 52.6148 36.4018 52.7041 36.8763C52.8008 37.3817 52.8466 37.8952 52.841 38.4094C52.8394 38.9862 52.7734 39.5611 52.6444 40.1238C52.5116 40.6968 52.3215 41.2555 52.0768 41.7916C51.5417 42.9599 50.658 44.0767 49.7893 45.1739C49.3636 45.7151 48.9404 46.2515 48.577 46.7829C48.4646 46.9475 48.3082 47.0785 48.1251 47.1614C47.942 47.2444 47.7392 47.2761 47.539 47.2531L41.0447 47.9756C40.7869 48.004 40.5273 47.9422 40.3111 47.8012C40.0949 47.6602 39.9361 47.4488 39.8623 47.2042C39.7152 46.7169 39.527 46.2426 39.2998 45.7861C39.1172 45.4093 38.8926 45.0537 38.6302 44.7257C38.314 44.3436 37.9905 43.9542 37.6669 43.4889C37.3053 42.9755 36.9959 42.4283 36.7434 41.8553L36.7234 41.7941C36.4724 41.2089 36.2799 40.6011 36.1484 39.9793C36.0202 39.3343 35.9684 38.6768 35.9941 38.02C36.0251 37.3373 36.1422 36.6611 36.3426 36.0068C36.551 35.3069 36.8408 34.633 37.2064 33.9986V33.9496L37.2835 33.8296L37.3009 33.8394Z" stroke="url(#paint1_linear_735_3176)" stroke-width="0.5" stroke-miterlimit="10" mask="url(#path-2-inside-1_735_3176)"/>
<path d="M10.2053 44.7995C10.4538 44.9957 10.6604 45.2396 10.813 45.5171C10.9656 45.7945 11.061 46.0996 11.0935 46.4146C11.126 46.7295 11.0951 47.0477 11.0024 47.3505C10.9098 47.6532 10.7574 47.9343 10.5542 48.1771C10.3511 48.4199 10.1013 48.6195 9.81959 48.764C9.53792 48.9086 9.23012 48.9952 8.9144 49.0187C8.59868 49.0422 8.28146 49.0021 7.9815 48.9008C7.68153 48.7996 7.40493 48.6392 7.16805 48.4291C6.09999 47.5399 5.14843 46.5194 4.3359 45.3919C2.19719 42.4231 1.03249 38.8637 1.00248 35.2049C0.936288 31.4905 2.19563 27.874 4.55463 25.0041C5.37263 24.0234 6.31119 23.15 7.34805 22.4044C8.66831 21.4646 10.1042 20.6988 11.6202 20.1259C12.7725 19.6823 13.955 19.3214 15.1587 19.0459C16.5759 13.4204 19.5949 9.08901 23.4751 6.0837C27.0962 3.30841 31.4292 1.61548 35.9726 1.20093C40.5062 0.757316 45.0749 1.55763 49.1878 3.51586C53.967 5.8048 57.8432 9.62652 60.1997 14.3728C61.2191 14.211 62.2503 14.1348 63.2825 14.1449C67.6116 14.1768 71.7766 15.7216 75.0576 19.2601C75.778 20.0367 76.4283 20.8754 77.0012 21.7664C79.0518 24.9312 80.1159 29.1601 80.0726 33.2978C80.027 37.358 78.9333 41.4 76.6936 44.3803C76.5072 44.6283 76.2737 44.8372 76.0066 44.9951C75.7394 45.1529 75.4438 45.2566 75.1366 45.3001C74.8294 45.3437 74.5166 45.3264 74.2161 45.2491C73.9156 45.1718 73.6333 45.0361 73.3852 44.8496C73.1372 44.6632 72.9283 44.4298 72.7704 44.1627C72.6126 43.8955 72.509 43.5999 72.4654 43.2927C72.4218 42.9855 72.4391 42.6727 72.5164 42.3722C72.5937 42.0717 72.7295 41.7894 72.9159 41.5413C74.5245 39.3995 75.3151 36.3669 75.347 33.2591C75.3857 29.9963 74.5883 26.7198 73.0366 24.3388C72.6107 23.6772 72.1265 23.055 71.5898 22.4796C70.5316 21.3263 69.2428 20.4084 67.8069 19.7855C66.371 19.1626 64.8202 18.8485 63.2551 18.8637C60.9426 18.8826 58.6601 19.3888 56.5564 20.3492C56.0733 20.5885 55.5903 20.8459 55.1095 21.1285C53.5905 22.0423 52.1432 23.0706 50.7804 24.2044L47.6635 20.634C48.7426 19.6339 49.905 18.7276 51.1382 17.9249C52.1202 17.2859 53.1457 16.7164 54.2073 16.2206C54.6333 16.0087 55.064 15.8082 55.4946 15.6214C53.5872 12.2049 50.6695 9.46233 47.1417 7.76977C43.7976 6.18551 40.0857 5.54048 36.4032 5.9037C32.7489 6.23684 29.2635 7.59794 26.3506 9.82951C22.9853 12.4429 20.4265 16.3368 19.4468 21.5044L19.1369 23.1198L17.5283 23.4024C16.0867 23.6413 14.6724 24.0229 13.3063 24.5416C12.1738 24.9725 11.1017 25.5476 10.1164 26.2527C9.39834 26.7706 8.74774 27.376 8.17969 28.055C6.5378 30.0684 5.66628 32.6006 5.72121 35.198C5.72145 37.0298 6.12399 38.8392 6.90039 40.4983C7.6768 42.1574 8.80811 43.6257 10.2144 44.7995H10.2053Z" fill="url(#paint2_linear_735_3176)"/>
<path d="M10.3718 44.7242C10.6203 44.9203 10.8269 45.1643 10.9795 45.4417C11.1321 45.7191 11.2274 46.0243 11.26 46.3392C11.2925 46.6541 11.2616 46.9724 11.1689 47.2751C11.0763 47.5779 10.9239 47.859 10.7207 48.1018C10.5176 48.3446 10.2678 48.5441 9.98608 48.6887C9.70442 48.8332 9.39662 48.9198 9.0809 48.9433C8.76518 48.9668 8.44795 48.9268 8.14799 48.8255C7.84803 48.7242 7.57142 48.5638 7.33454 48.3538C6.26678 47.466 5.31522 46.4471 4.50239 45.3211C2.36463 42.3518 1.20003 38.7928 1.16898 35.1341C1.1029 31.4183 2.36216 27.8005 4.72113 24.9288C5.53971 23.9487 6.4782 23.0752 7.51454 22.3291C8.83534 21.3888 10.272 20.6229 11.789 20.0506C12.9411 19.6064 14.1236 19.2454 15.3275 18.9706C16.7424 13.345 19.7614 9.01595 23.6416 6.01064C27.2616 3.23208 31.5948 1.53596 36.1391 1.11876C40.6729 0.675849 45.2417 1.47696 49.3543 3.43596C54.1343 5.72258 58.011 9.54394 60.3662 14.2906C61.3856 14.1289 62.4168 14.0527 63.4489 14.0628C67.7781 14.0947 71.9431 15.6395 75.2264 19.1779C75.9454 19.9557 76.5957 20.7943 77.17 21.6843C79.2206 24.8491 80.2846 29.0779 80.2391 33.2156C80.1935 37.2759 79.0998 41.3179 76.8601 44.2981C76.6737 44.5462 76.4402 44.7551 76.1731 44.9129C75.9059 45.0707 75.6103 45.1744 75.3031 45.218C74.9959 45.2616 74.6831 45.2442 74.3826 45.1669C74.0821 45.0896 73.7998 44.9539 73.5517 44.7675C73.3037 44.5811 73.0948 44.3476 72.9369 44.0805C72.7791 43.8133 72.6754 43.5177 72.6319 43.2105C72.5883 42.9033 72.6056 42.5905 72.6829 42.29C72.7602 41.9895 72.896 41.7072 73.0824 41.4591C74.691 39.3174 75.4839 36.2847 75.5158 33.1769C75.5545 29.9141 74.757 26.6399 73.2054 24.2567C72.7779 23.5956 72.293 22.9734 71.7563 22.3974C70.6984 21.2444 69.4099 20.3267 67.9744 19.7038C66.539 19.0809 64.9886 18.7666 63.4239 18.7815C61.1107 18.8003 58.8274 19.3065 56.7229 20.267C56.2421 20.4949 55.7591 20.7638 55.276 21.0463C53.757 21.9601 52.3097 22.9884 50.9469 24.1222L47.8322 20.5564C48.9127 19.5575 50.0758 18.652 51.3092 17.8496C52.2919 17.2151 53.3174 16.6494 54.3783 16.1567C54.8021 15.9448 55.2327 15.7443 55.6657 15.5574C53.7574 12.1408 50.839 9.39825 47.3105 7.70583C43.9659 6.12072 40.253 5.47565 36.5697 5.83975C32.9172 6.16926 29.4326 7.52642 26.5193 9.75417C23.1518 12.3676 20.5953 16.2615 19.6133 21.4291L19.3034 23.0445L17.6948 23.327C16.2539 23.5659 14.8404 23.9475 13.475 24.4663C12.3426 24.8971 11.2704 25.4722 10.2852 26.1774C9.56663 26.6946 8.91596 27.3001 8.34847 27.9797C6.70498 29.9922 5.83325 32.525 5.88999 35.1227C5.88932 36.9544 6.29123 38.7639 7.06728 40.423C7.84332 42.0822 8.97454 43.5506 10.3809 44.7242H10.3718Z" stroke="url(#paint3_linear_735_3176)" stroke-width="0.5" stroke-miterlimit="10"/>
<path d="M72.579 42.9413C77.231 42.9413 81.0001 42.5476 81.0001 42.0618C81.0001 41.576 77.231 41.1824 72.579 41.1824C67.9271 41.1824 64.158 41.576 64.158 42.0618C64.158 42.5476 67.9271 42.9413 72.579 42.9413Z" fill="url(#paint4_radial_735_3176)"/>
<path d="M73.5369 42.0526C73.5369 46.704 73.1075 50.4737 72.5748 50.4737C72.042 50.4737 71.6127 46.704 71.6127 42.0526C71.6127 37.4013 72.053 33.6316 72.5748 33.6316C73.0965 33.6316 73.5369 37.4035 73.5369 42.0526Z" fill="url(#paint5_radial_735_3176)"/>
<path d="M15.7304 19.7789C20.3847 19.7789 24.158 19.3853 24.158 18.8995C24.158 18.4136 20.3847 18.02 15.7304 18.02C11.076 18.02 7.31592 18.4136 7.31592 18.8995C7.31592 19.3853 11.0782 19.7789 15.7304 19.7789Z" fill="url(#paint6_radial_735_3176)"/>
<path d="M16.6886 18.8947C16.6886 23.5461 16.2481 27.3157 15.726 27.3157C15.204 27.3157 14.7656 23.5461 14.7656 18.8947C14.7656 14.2433 15.2062 10.4736 15.726 10.4736C16.2459 10.4736 16.6886 14.2456 16.6886 18.8947Z" fill="url(#paint7_radial_735_3176)"/>
<defs>
<linearGradient id="paint0_linear_735_3176" x1="40.9881" y1="67.3038" x2="40.9881" y2="25.2211" gradientUnits="userSpaceOnUse">
<stop stop-color="#79A540"/>
<stop offset="0.2" stop-color="#94C63D"/>
<stop offset="0.39" stop-color="#98CA3C"/>
<stop offset="0.59" stop-color="#93C53E"/>
<stop offset="0.74" stop-color="#9DCB3B"/>
<stop offset="0.9" stop-color="#A6CE39"/>
<stop offset="1" stop-color="#A6CE39"/>
</linearGradient>
<linearGradient id="paint1_linear_735_3176" x1="24.6926" y1="65.2104" x2="54.0489" y2="26.8676" gradientUnits="userSpaceOnUse">
<stop stop-color="#5DA560"/>
<stop offset="0.229524" stop-color="#5CBA47"/>
<stop offset="0.39" stop-color="#98CA3C"/>
<stop offset="0.59" stop-color="#93C53E"/>
<stop offset="0.74" stop-color="#6FBE44"/>
<stop offset="0.9" stop-color="#A6CE39"/>
<stop offset="1" stop-color="#72BF44"/>
</linearGradient>
<linearGradient id="paint2_linear_735_3176" x1="40.5409" y1="48.9805" x2="40.5409" y2="1.07562" gradientUnits="userSpaceOnUse">
<stop stop-color="white" stop-opacity="0.9"/>
<stop offset="0.04" stop-color="white" stop-opacity="0.85"/>
<stop offset="0.28" stop-color="white" stop-opacity="0.5"/>
<stop offset="0.65" stop-color="#FAFBFC" stop-opacity="0.4"/>
<stop offset="1" stop-color="#F0EFEF" stop-opacity="0.3"/>
</linearGradient>
<linearGradient id="paint3_linear_735_3176" x1="40.7097" y1="49.133" x2="40.7097" y2="0.772428" gradientUnits="userSpaceOnUse">
<stop stop-color="white" stop-opacity="0.9"/>
<stop offset="0.28" stop-color="white" stop-opacity="0.5"/>
<stop offset="0.65" stop-color="#FAFBFC" stop-opacity="0.4"/>
<stop offset="1" stop-color="#F0EFEF" stop-opacity="0.3"/>
</linearGradient>
<radialGradient id="paint4_radial_735_3176" cx="0" cy="0" r="1" gradientUnits="userSpaceOnUse" gradientTransform="translate(71.9933 42.2002) rotate(90) scale(0.872335 8.4141)">
<stop stop-color="white"/>
<stop offset="0.07" stop-color="white" stop-opacity="0.93"/>
<stop offset="1" stop-color="white" stop-opacity="0"/>
</radialGradient>
<radialGradient id="paint5_radial_735_3176" cx="0" cy="0" r="1" gradientUnits="userSpaceOnUse" gradientTransform="translate(72.7191 42.2929) scale(0.962974 8.43522)">
<stop stop-color="white"/>
<stop offset="0.07" stop-color="white" stop-opacity="0.93"/>
<stop offset="1" stop-color="white" stop-opacity="0"/>
</radialGradient>
<radialGradient id="paint6_radial_735_3176" cx="0" cy="0" r="1" gradientUnits="userSpaceOnUse" gradientTransform="translate(15.1623 19.1301) rotate(90) scale(0.872335 8.4185)">
<stop stop-color="white"/>
<stop offset="0.07" stop-color="white" stop-opacity="0.93"/>
<stop offset="1" stop-color="white" stop-opacity="0"/>
</radialGradient>
<radialGradient id="paint7_radial_735_3176" cx="0" cy="0" r="1" gradientUnits="userSpaceOnUse" gradientTransform="translate(15.7242 19.1357) scale(0.963476 8.43522)">
<stop stop-color="white"/>
<stop offset="0.07" stop-color="white" stop-opacity="0.93"/>
<stop offset="1" stop-color="white" stop-opacity="0"/>
</radialGradient>
</defs>
</svg>
