<svg width="101" height="69" viewBox="0 0 101 69" fill="none" xmlns="http://www.w3.org/2000/svg">
<path fill-rule="evenodd" clip-rule="evenodd" d="M35.5284 60.8063V64.2461H22.7535V60.8063H14.8383C11.9629 60.8063 9.7052 59.9908 8.10972 58.3953C6.51425 56.7998 5.69873 54.5466 5.69873 51.6667V15.5018C5.69873 12.6131 6.5098 10.3643 8.10528 8.77105C9.70076 7.1778 11.9562 6.3645 14.8383 6.3645H82.6127C85.5015 6.3645 87.7503 7.18224 89.3435 8.7755C90.9368 10.3688 91.7545 12.6286 91.7545 15.5041V32.3499L91.7101 32.3321C90.9897 32.0166 90.3771 31.4975 89.9476 30.8387C89.5181 30.1798 89.2904 29.4099 89.2924 28.6234V15.7352C89.2924 14.1508 88.7547 12.3775 87.9903 11.4176C86.597 9.89322 86.0215 9.05548 82.6127 9.05548H14.8383C9.31633 9.05548 8.15861 14.1463 8.15861 15.7352V51.8912C8.15861 54.5821 8.46526 55.2932 9.26967 56.3132C10.2318 57.382 10.8651 58.5686 14.8405 58.5686H60.8027C61.5384 58.5668 62.2599 58.7716 62.885 59.1598C63.51 59.5479 64.0135 60.1038 64.3381 60.7641L64.3581 60.8085L35.5284 60.8063Z" fill="url(#paint0_linear_718_24119)"/>
<path fill-rule="evenodd" clip-rule="evenodd" d="M53.5768 23.1325C52.8168 23.1325 52.2013 23.2014 52.2013 22.1859C52.2013 21.1704 52.8168 21.2393 53.5768 21.2393H77.5756C78.3356 21.2393 78.9533 21.1726 78.9533 22.1859C78.9533 23.1992 78.3356 23.1325 77.5756 23.1325H53.5768Z" fill="url(#paint1_linear_718_24119)"/>
<path fill-rule="evenodd" clip-rule="evenodd" d="M31.6866 45.3069H15.4141C15.5966 44.5022 15.938 43.7422 16.4185 43.0714C16.8501 42.5174 17.3918 42.0589 18.0095 41.7248C19.8738 40.6849 24.8114 40.3627 26.6602 38.8961C26.9404 38.2423 27.1874 37.5748 27.4001 36.8962L27.4757 36.6739C27.5512 36.4517 27.4312 36.1362 27.229 35.8029C26.8868 35.2429 26.3113 34.6118 26.0535 34.2052L24.5425 31.7986C23.987 30.9742 23.7003 30.2187 23.6825 29.601C23.6687 29.3306 23.7197 29.0609 23.8314 28.8143C23.9447 28.5675 24.1248 28.3574 24.3514 28.2077C24.4664 28.1316 24.5893 28.0683 24.7181 28.0188C24.6131 26.5806 24.5886 25.1377 24.6447 23.6968C24.68 23.3649 24.7425 23.0364 24.8314 22.7146C25.3869 20.7347 27.089 19.3081 29.0312 18.6371C29.9756 18.3104 29.6111 17.526 30.5644 17.5882C30.9415 17.6105 31.3165 17.6596 31.6866 17.7349C33.8132 18.4615 33.0754 18.1993 34.3398 18.6371C36.2819 19.3037 37.9863 20.7347 38.5396 22.7146C38.6296 23.0361 38.692 23.3647 38.7263 23.6968C38.7824 25.1385 38.7579 26.5821 38.6529 28.021C38.7821 28.0709 38.9058 28.1342 39.0218 28.2099C39.2472 28.3603 39.4264 28.5703 39.5395 28.8166C39.651 29.0633 39.7027 29.3327 39.6907 29.6032C39.6707 30.2209 39.384 30.9764 38.8307 31.8009L37.3174 34.2074C37.0619 34.614 36.4841 35.2451 36.1419 35.8051C35.9397 36.1384 35.8197 36.4473 35.8975 36.6762L35.9708 36.8984C36.1508 37.4406 36.4353 38.3005 36.713 38.8983C38.5618 40.3649 43.4971 40.6871 45.3615 41.727C45.98 42.06 46.5219 42.5187 46.9525 43.0736C47.4347 43.7434 47.7764 44.5038 47.9569 45.3091L31.6866 45.3069Z" fill="url(#paint2_linear_718_24119)"/>
<path fill-rule="evenodd" clip-rule="evenodd" d="M83.4573 35.263C95.51 35.263 104.545 48.1779 97.4877 60.9217C96.3491 62.9777 94.655 64.6718 92.599 65.8104C79.8552 72.8678 66.9425 63.8282 66.9425 51.7755C66.9431 47.3957 68.6832 43.1954 71.7802 40.0985C74.8772 37.0015 79.0775 35.2613 83.4573 35.2607V35.263ZM78.7375 49.3889L81.2351 51.7266L87.7704 45.098C88.3437 44.5158 88.7037 44.0492 89.4103 44.7781L91.7035 47.1291C92.4568 47.8735 92.419 48.3068 91.7035 49.0023L82.5395 58.0107C81.0396 59.4773 81.304 59.5662 79.7841 58.0596L74.8688 53.171C74.5532 52.8288 74.5866 52.4821 74.9332 52.1399L77.5998 49.3778C78.0042 48.9534 78.3264 48.989 78.7353 49.3778L78.7375 49.3889Z" fill="url(#paint3_linear_718_24119)"/>
<path fill-rule="evenodd" clip-rule="evenodd" d="M83.4858 35.0808C95.5385 35.0808 104.576 47.998 97.5184 60.7418C96.3785 62.7967 94.6847 64.4905 92.6298 65.6304C79.8882 72.6879 66.9733 63.6483 66.9733 51.5956C66.9739 47.2158 68.714 43.0155 71.811 39.9185C74.908 36.8215 79.1082 35.0814 83.488 35.0808H83.4858ZM78.766 49.2068L81.2659 51.5445L87.7967 44.9159C88.37 44.3337 88.73 43.867 89.4366 44.5959L91.7298 46.9469C92.4831 47.6913 92.4476 48.1268 91.7298 48.8201L82.5747 57.8286C81.077 59.2974 81.3392 59.3841 79.8193 57.8797L74.904 52.991C74.5885 52.6488 74.6218 52.3022 74.9707 51.96L77.6372 49.1979C78.0416 48.7735 78.3638 48.809 78.7727 49.1979L78.766 49.2068Z" stroke="url(#paint4_linear_718_24119)" stroke-width="0.75" stroke-miterlimit="10"/>
<path fill-rule="evenodd" clip-rule="evenodd" d="M66.8112 41.3315H53.6274C52.8697 41.3315 52.252 41.2648 52.252 42.2803C52.252 43.2958 52.8697 43.2269 53.6274 43.2269H65.798C66.1012 42.5773 66.4395 41.9445 66.8112 41.3315Z" fill="url(#paint5_linear_718_24119)"/>
<path fill-rule="evenodd" clip-rule="evenodd" d="M53.628 33.181H76.7535C77.486 32.9096 78.234 32.6818 78.9934 32.4988C79.0055 32.4112 79.0115 32.3228 79.0112 32.2344C79.0112 31.2211 78.3957 31.2878 77.6335 31.2878H53.6346C52.8769 31.2878 52.2592 31.2211 52.2592 32.2344C52.2592 33.2477 52.8702 33.181 53.628 33.181Z" fill="url(#paint6_linear_718_24119)"/>
<path fill-rule="evenodd" clip-rule="evenodd" d="M35.6507 60.8351V64.275H22.8758V60.8351H14.9606C12.0852 60.8351 9.82752 60.0196 8.23204 58.4241C6.63656 56.8287 5.82104 54.5843 5.82104 51.6956V15.5285C5.82104 12.6397 6.63212 10.3909 8.22759 8.79547C9.82307 7.19999 12.0785 6.38892 14.9606 6.38892H82.7351C85.6238 6.38892 87.8726 7.20666 89.4658 8.79991C91.0591 10.3932 91.8768 12.6531 91.8768 15.5285V32.3743L91.8324 32.3565C91.112 32.041 90.4994 31.5219 90.0699 30.8631C89.6404 30.2042 89.4127 29.4343 89.4147 28.6478V15.7596C89.4147 14.1752 88.877 12.402 88.1126 11.442C86.7193 9.91763 86.1438 9.0799 82.7351 9.0799H14.9606C9.43865 9.0799 8.28093 14.1708 8.28093 15.7596V51.9178C8.28093 54.6088 8.58758 55.3199 9.39198 56.3398C10.3564 57.4086 10.9897 58.5953 14.965 58.5953H60.9228C61.6597 58.5922 62.3826 58.7964 63.0089 59.1846C63.6352 59.5729 64.1398 60.1294 64.4648 60.7907L64.4848 60.8351H35.6507Z" stroke="url(#paint7_linear_718_24119)" stroke-width="0.5" stroke-miterlimit="10"/>
<path fill-rule="evenodd" clip-rule="evenodd" d="M53.6987 23.1591C52.9388 23.1591 52.3232 23.228 52.3232 22.2125C52.3232 21.197 52.9388 21.2659 53.6987 21.2659H77.6976C78.4575 21.2659 79.0753 21.1992 79.0753 22.2125C79.0753 23.2258 78.4575 23.1591 77.6976 23.1591H53.6987Z" stroke="url(#paint8_linear_718_24119)" stroke-width="0.5" stroke-miterlimit="10"/>
<path fill-rule="evenodd" clip-rule="evenodd" d="M31.8001 45.3337H15.5365C15.719 44.5291 16.0605 43.7691 16.5409 43.0983C16.9715 42.5433 17.5134 42.0846 18.1319 41.7517C19.9963 40.7117 24.9338 40.3895 26.7804 38.9229C27.0623 38.2696 27.31 37.6021 27.5226 36.923L27.5981 36.7008C27.6737 36.4786 27.5537 36.1631 27.3515 35.8298C27.0093 35.2698 26.4337 34.6387 26.176 34.2321L24.6627 31.8255C24.1094 31.0011 23.8205 30.2456 23.805 29.6278C23.7911 29.3575 23.8422 29.0878 23.9539 28.8412C24.0671 28.5944 24.2472 28.3842 24.4738 28.2346C24.5888 28.1585 24.7118 28.0951 24.8405 28.0457C24.7344 26.6068 24.7099 25.1631 24.7672 23.7215C24.8014 23.3894 24.8638 23.0608 24.9538 22.7393C25.5093 20.7594 27.2115 19.3328 29.1536 18.6617C30.098 18.3351 29.7336 17.5507 30.6869 17.6129C31.0602 17.6357 31.4315 17.6847 31.7979 17.7595C33.9245 18.4862 33.1867 18.224 34.4489 18.6617C36.3933 19.3283 38.0954 20.7594 38.6509 22.7393C38.7398 23.061 38.8023 23.3895 38.8376 23.7215C38.8937 25.1631 38.8693 26.6068 38.7643 28.0457C38.8935 28.0956 39.0171 28.1589 39.1331 28.2346C39.358 28.3856 39.5371 28.5954 39.6509 28.8412C39.7623 29.0879 39.8141 29.3574 39.802 29.6278C39.782 30.2456 39.4931 31.0011 38.942 31.8255L37.4288 34.2321C37.1732 34.6387 36.5955 35.2698 36.2533 35.8298C36.0511 36.1631 35.9311 36.4719 36.0088 36.7008L36.0822 36.923C36.2622 37.4652 36.5444 38.3252 36.8221 38.9229C38.6731 40.3895 43.6085 40.7117 45.4728 41.7517C46.0909 42.0852 46.6328 42.5438 47.0638 43.0983C47.5443 43.7691 47.8858 44.5291 48.0682 45.3337H31.8001Z" stroke="url(#paint9_linear_718_24119)" stroke-width="0.5" stroke-miterlimit="10"/>
<path fill-rule="evenodd" clip-rule="evenodd" d="M66.9337 41.3583H53.7499C52.9921 41.3583 52.3744 41.2917 52.3744 42.3072C52.3744 43.3227 52.9921 43.2538 53.7499 43.2538H65.9204C66.2237 42.6041 66.5619 41.9714 66.9337 41.3583Z" stroke="url(#paint10_linear_718_24119)" stroke-width="0.5" stroke-miterlimit="10"/>
<path fill-rule="evenodd" clip-rule="evenodd" d="M53.7499 33.2074H76.8755C77.608 32.936 78.3559 32.7082 79.1154 32.5252C79.1275 32.4376 79.1334 32.3492 79.1331 32.2608C79.1331 31.2475 78.5176 31.3141 77.7554 31.3141H53.7566C52.9989 31.3141 52.3811 31.2475 52.3811 32.2608C52.3811 33.274 52.9922 33.2074 53.7499 33.2074Z" stroke="url(#paint11_linear_718_24119)" stroke-width="0.5" stroke-miterlimit="10"/>
<path d="M64.073 61.1968C67.864 61.1968 70.9349 60.8835 70.9349 60.4969C70.9349 60.1102 67.864 59.7947 64.073 59.7947C60.2821 59.7947 57.2134 60.108 57.2134 60.4969C57.2134 60.8857 60.2843 61.1968 64.073 61.1968Z" fill="url(#paint12_radial_718_24119)"/>
<path d="M64.8527 60.4926C64.8527 64.2013 64.5039 67.2078 64.0705 67.2078C63.6372 67.2078 63.2861 64.1968 63.2861 60.4926C63.2861 56.7883 63.6372 53.7773 64.0705 53.7773C64.5039 53.7773 64.8527 56.7839 64.8527 60.4926Z" fill="url(#paint13_radial_718_24119)"/>
<path d="M8.66624 9.37486C13.4549 9.37486 17.3325 8.97932 17.3325 8.48601C17.3325 7.9927 13.4505 7.59717 8.66624 7.59717C3.88203 7.59717 0 7.9927 0 8.48601C0 8.97932 3.87981 9.37486 8.66624 9.37486Z" fill="url(#paint14_radial_718_24119)"/>
<path d="M9.65275 8.48625C9.65275 13.1705 9.20833 16.9725 8.66391 16.9725C8.1195 16.9725 7.67285 13.1705 7.67285 8.48625C7.67285 3.80204 8.11727 0 8.66391 0C9.21055 0 9.65275 3.79981 9.65275 8.48625Z" fill="url(#paint15_radial_718_24119)"/>
<defs>
<linearGradient id="paint0_linear_718_24119" x1="78.6752" y1="58.0309" x2="-34.4415" y2="-34.2957" gradientUnits="userSpaceOnUse">
<stop stop-color="white" stop-opacity="0.9"/>
<stop offset="0.04" stop-color="white" stop-opacity="0.85"/>
<stop offset="0.28" stop-color="white" stop-opacity="0.5"/>
<stop offset="0.65" stop-color="#FAFBFC" stop-opacity="0.4"/>
<stop offset="1" stop-color="#F0EFEF" stop-opacity="0.3"/>
</linearGradient>
<linearGradient id="paint1_linear_718_24119" x1="75.1046" y1="29.9588" x2="44.8639" y2="5.27783" gradientUnits="userSpaceOnUse">
<stop stop-color="white" stop-opacity="0.9"/>
<stop offset="0.04" stop-color="white" stop-opacity="0.85"/>
<stop offset="0.28" stop-color="white" stop-opacity="0.5"/>
<stop offset="0.65" stop-color="#FAFBFC" stop-opacity="0.4"/>
<stop offset="1" stop-color="#F0EFEF" stop-opacity="0.3"/>
</linearGradient>
<linearGradient id="paint2_linear_718_24119" x1="47.3503" y1="50.0044" x2="1.05254" y2="12.2174" gradientUnits="userSpaceOnUse">
<stop stop-color="white" stop-opacity="0.9"/>
<stop offset="0.04" stop-color="white" stop-opacity="0.85"/>
<stop offset="0.28" stop-color="white" stop-opacity="0.5"/>
<stop offset="0.65" stop-color="#FAFBFC" stop-opacity="0.4"/>
<stop offset="1" stop-color="#F0EFEF" stop-opacity="0.3"/>
</linearGradient>
<linearGradient id="paint3_linear_718_24119" x1="83.4573" y1="68.2925" x2="83.4573" y2="35.263" gradientUnits="userSpaceOnUse">
<stop stop-color="#79A540"/>
<stop offset="0.2" stop-color="#94C63D"/>
<stop offset="0.39" stop-color="#98CA3C"/>
<stop offset="0.59" stop-color="#93C53E"/>
<stop offset="0.74" stop-color="#9DCB3B"/>
<stop offset="0.9" stop-color="#A6CE39"/>
<stop offset="1" stop-color="#A6CE39"/>
</linearGradient>
<linearGradient id="paint4_linear_718_24119" x1="83.4858" y1="68.4436" x2="83.4858" y2="34.7475" gradientUnits="userSpaceOnUse">
<stop stop-color="#5DA560"/>
<stop offset="0.2" stop-color="#5CBA47"/>
<stop offset="0.39" stop-color="#98CA3C"/>
<stop offset="0.59" stop-color="#93C53E"/>
<stop offset="0.74" stop-color="#6FBE44"/>
<stop offset="0.9" stop-color="#A6CE39"/>
<stop offset="1" stop-color="#72BF44"/>
</linearGradient>
<linearGradient id="paint5_linear_718_24119" x1="64.5291" y1="46.1624" x2="48.3765" y2="32.9786" gradientUnits="userSpaceOnUse">
<stop stop-color="white" stop-opacity="0.9"/>
<stop offset="0.04" stop-color="white" stop-opacity="0.85"/>
<stop offset="0.28" stop-color="white" stop-opacity="0.5"/>
<stop offset="0.65" stop-color="#FAFBFC" stop-opacity="0.4"/>
<stop offset="1" stop-color="#F0EFEF" stop-opacity="0.3"/>
</linearGradient>
<linearGradient id="paint6_linear_718_24119" x1="75.038" y1="39.9096" x2="44.9995" y2="15.393" gradientUnits="userSpaceOnUse">
<stop stop-color="white" stop-opacity="0.9"/>
<stop offset="0.04" stop-color="white" stop-opacity="0.85"/>
<stop offset="0.28" stop-color="white" stop-opacity="0.5"/>
<stop offset="0.65" stop-color="#FAFBFC" stop-opacity="0.4"/>
<stop offset="1" stop-color="#F0EFEF" stop-opacity="0.3"/>
</linearGradient>
<linearGradient id="paint7_linear_718_24119" x1="48.8478" y1="64.4972" x2="48.8478" y2="6.16671" gradientUnits="userSpaceOnUse">
<stop stop-color="white" stop-opacity="0.9"/>
<stop offset="0.28" stop-color="white" stop-opacity="0.5"/>
<stop offset="0.65" stop-color="#FAFBFC" stop-opacity="0.4"/>
<stop offset="1" stop-color="#F0EFEF" stop-opacity="0.3"/>
</linearGradient>
<linearGradient id="paint8_linear_718_24119" x1="65.7026" y1="23.3836" x2="65.7026" y2="21.0414" gradientUnits="userSpaceOnUse">
<stop stop-color="white" stop-opacity="0.9"/>
<stop offset="0.28" stop-color="white" stop-opacity="0.5"/>
<stop offset="0.65" stop-color="#FAFBFC" stop-opacity="0.4"/>
<stop offset="1" stop-color="#F0EFEF" stop-opacity="0.3"/>
</linearGradient>
<linearGradient id="paint9_linear_718_24119" x1="31.8068" y1="45.5559" x2="31.8068" y2="17.3818" gradientUnits="userSpaceOnUse">
<stop stop-color="white" stop-opacity="0.9"/>
<stop offset="0.28" stop-color="white" stop-opacity="0.5"/>
<stop offset="0.65" stop-color="#FAFBFC" stop-opacity="0.4"/>
<stop offset="1" stop-color="#F0EFEF" stop-opacity="0.3"/>
</linearGradient>
<linearGradient id="paint10_linear_718_24119" x1="59.7407" y1="43.476" x2="59.7407" y2="41.1361" gradientUnits="userSpaceOnUse">
<stop stop-color="white" stop-opacity="0.9"/>
<stop offset="0.28" stop-color="white" stop-opacity="0.5"/>
<stop offset="0.65" stop-color="#FAFBFC" stop-opacity="0.4"/>
<stop offset="1" stop-color="#F0EFEF" stop-opacity="0.3"/>
</linearGradient>
<linearGradient id="paint11_linear_718_24119" x1="65.7538" y1="33.4318" x2="65.7538" y2="31.0897" gradientUnits="userSpaceOnUse">
<stop stop-color="white" stop-opacity="0.9"/>
<stop offset="0.28" stop-color="white" stop-opacity="0.5"/>
<stop offset="0.65" stop-color="#FAFBFC" stop-opacity="0.4"/>
<stop offset="1" stop-color="#F0EFEF" stop-opacity="0.3"/>
</linearGradient>
<radialGradient id="paint12_radial_718_24119" cx="0" cy="0" r="1" gradientUnits="userSpaceOnUse" gradientTransform="translate(63.1448 60.9921) rotate(90) scale(0.695432 6.85291)">
<stop stop-color="white"/>
<stop offset="0.07" stop-color="white" stop-opacity="0.93"/>
<stop offset="1" stop-color="white" stop-opacity="0"/>
</radialGradient>
<radialGradient id="paint13_radial_718_24119" cx="0" cy="0" r="1" gradientUnits="userSpaceOnUse" gradientTransform="translate(64.172 60.9002) scale(0.784764 6.7286)">
<stop stop-color="white"/>
<stop offset="0.07" stop-color="white" stop-opacity="0.93"/>
<stop offset="1" stop-color="white" stop-opacity="0"/>
</radialGradient>
<radialGradient id="paint14_radial_718_24119" cx="0" cy="0" r="1" gradientUnits="userSpaceOnUse" gradientTransform="translate(7.75807 9.17265) rotate(90) scale(0.87889 8.66073)">
<stop stop-color="white"/>
<stop offset="0.07" stop-color="white" stop-opacity="0.93"/>
<stop offset="1" stop-color="white" stop-opacity="0"/>
</radialGradient>
<radialGradient id="paint15_radial_718_24119" cx="0" cy="0" r="1" gradientUnits="userSpaceOnUse" gradientTransform="translate(8.62178 8.90948) scale(0.991152 8.49821)">
<stop stop-color="white"/>
<stop offset="0.07" stop-color="white" stop-opacity="0.93"/>
<stop offset="1" stop-color="white" stop-opacity="0"/>
</radialGradient>
</defs>
</svg>
