<svg width="65" height="100" viewBox="0 0 65 100" fill="none" xmlns="http://www.w3.org/2000/svg">
<path d="M30.9161 86.6216C31.2622 86.6216 31.5941 86.4841 31.8388 86.2393C32.0835 85.9946 32.221 85.6627 32.221 85.3166C32.221 84.9706 32.0835 84.6386 31.8388 84.3939C31.5941 84.1492 31.2622 84.0117 30.9161 84.0117H19.1719C18.8258 84.0117 18.4939 84.1492 18.2491 84.3939C18.0044 84.6386 17.8669 84.9706 17.8669 85.3166C17.8669 85.6627 18.0044 85.9946 18.2491 86.2393C18.4939 86.4841 18.8258 86.6216 19.1719 86.6216H30.9161Z" fill="url(#paint0_linear_735_3088)"/>
<path d="M30.9161 86.4778C31.2622 86.4778 31.5941 86.3403 31.8388 86.0956C32.0835 85.8508 32.221 85.5189 32.221 85.1728C32.221 84.8268 32.0835 84.4948 31.8388 84.2501C31.5941 84.0054 31.2622 83.8679 30.9161 83.8679H19.1719C18.8258 83.8679 18.4939 84.0054 18.2491 84.2501C18.0044 84.4948 17.8669 84.8268 17.8669 85.1728C17.8669 85.5189 18.0044 85.8508 18.2491 86.0956C18.4939 86.3403 18.8258 86.4778 19.1719 86.4778H30.9161Z" stroke="url(#paint1_linear_735_3088)" stroke-width="0.5" stroke-miterlimit="10"/>
<path d="M38.7503 89.2316H9.05682C8.36465 89.2316 7.70083 88.9567 7.21139 88.4672C6.72195 87.9778 6.44699 87.314 6.44699 86.6218V13.5417C6.44699 12.8495 6.72195 12.1857 7.21139 11.6963C7.70083 11.2068 8.36465 10.9318 9.05682 10.9318H17.74L20.1791 15.4637C20.2904 15.6716 20.456 15.8454 20.6583 15.9665C20.8607 16.0877 21.0921 16.1516 21.3279 16.1515H33.977C34.2129 16.1516 34.4443 16.0877 34.6466 15.9665C34.8489 15.8454 35.0146 15.6716 35.1259 15.4637L37.5649 10.9318H45.5944C46.2866 10.9318 46.9504 11.2068 47.4399 11.6963C47.9293 12.1857 48.2043 12.8495 48.2043 13.5417V32.7373H50.8141V13.5417C50.8128 12.1575 50.2626 10.8304 49.284 9.85138C48.3055 8.8724 46.9786 8.32152 45.5944 8.31958H9.05682C7.67265 8.32152 6.34577 8.8724 5.36724 9.85138C4.38871 10.8304 3.83845 12.1575 3.83716 13.5417V86.6218C3.83909 88.0058 4.38956 89.3325 5.36795 90.3114C6.34634 91.2902 7.67285 91.8413 9.05682 91.8439H38.9747C38.8253 91.425 38.7486 90.9837 38.7479 90.539L38.7503 89.2316ZM34.6039 10.9367L33.199 13.5466H22.1084L20.7011 10.9318L34.6039 10.9367Z" fill="url(#paint2_linear_735_3088)"/>
<path d="M38.6576 89.0873H8.96893C8.6262 89.0873 8.28683 89.0198 7.97019 88.8887C7.65355 88.7575 7.36584 88.5653 7.1235 88.3229C6.88115 88.0806 6.68892 87.7929 6.55776 87.4763C6.4266 87.1596 6.3591 86.8202 6.3591 86.4775V13.395C6.3591 13.0522 6.4266 12.7129 6.55776 12.3962C6.68892 12.0796 6.88115 11.7919 7.1235 11.5495C7.36584 11.3072 7.65355 11.1149 7.97019 10.9838C8.28683 10.8526 8.6262 10.7851 8.96893 10.7851H17.6521L20.0912 15.317C20.2031 15.5249 20.3692 15.6986 20.5719 15.8197C20.7746 15.9408 21.0063 16.0048 21.2424 16.0048H33.8916C34.1273 16.0043 34.3585 15.9402 34.5607 15.8191C34.763 15.698 34.9287 15.5245 35.0404 15.317L37.4795 10.7851H45.509C46.2012 10.7851 46.865 11.0601 47.3544 11.5495C47.8439 12.039 48.1188 12.7028 48.1188 13.395V32.8345H50.7311V13.395C50.7292 12.0108 50.1783 10.6839 49.1993 9.70537C48.2203 8.72685 46.8932 8.17658 45.509 8.17529H8.96893C7.58498 8.17658 6.25809 8.72692 5.2795 9.70552C4.3009 10.6841 3.75056 12.011 3.74927 13.395V86.4775C3.7512 87.8613 4.30175 89.1878 5.28021 90.1662C6.25867 91.1447 7.58518 91.6952 8.96893 91.6972H38.8868C38.7366 91.2784 38.6591 90.8371 38.6576 90.3923V89.0873ZM34.5111 10.7924L33.1062 13.4023H22.0205L20.6156 10.7924H34.5111Z" stroke="url(#paint3_linear_735_3088)" stroke-width="0.25" stroke-miterlimit="10"/>
<path d="M54.4471 64.8519C54.1029 64.8529 53.7615 64.9122 53.438 65.0273C53.3977 64.648 53.2815 64.2802 53.0961 63.9449C52.9107 63.6096 52.6596 63.3133 52.3573 63.0731C52.055 62.833 51.7074 62.6535 51.3342 62.545C50.9611 62.4365 50.5698 62.4012 50.1827 62.4409C49.9466 62.4644 49.7143 62.5162 49.491 62.5951V62.425C49.4924 62.0437 49.4171 61.6659 49.2694 61.3132C49.1216 60.9604 48.9043 60.6397 48.6299 60.3694C48.3555 60.099 48.0294 59.8843 47.6703 59.7376C47.3111 59.5909 46.926 59.515 46.5369 59.5143C46.1937 59.512 45.8529 59.5696 45.5304 59.6844V54.1847C45.4733 53.4567 45.1402 52.7759 44.5966 52.2764C44.0531 51.7769 43.3385 51.4947 42.5934 51.4853C41.8483 51.476 41.1265 51.7402 40.5702 52.226C40.0138 52.7117 39.663 53.3839 39.5869 54.1103V68.4989C38.6718 67.6483 37.7676 66.7906 36.8742 65.9258C36.5488 65.6287 36.1614 65.4044 35.7387 65.2686C35.3161 65.1328 34.8684 65.0887 34.4267 65.1392C33.9849 65.1898 33.5596 65.3339 33.1803 65.5615C32.801 65.7891 32.4768 66.0948 32.23 66.4574C31.8361 67.0506 31.6465 67.7519 31.689 68.4585C31.7314 69.165 32.0038 69.8397 32.466 70.3835L38.8545 77.6429C39.4348 78.3571 39.9435 79.1244 40.3736 79.9342C41.1004 81.3043 41.6021 82.7782 41.8602 84.3015C41.6405 84.3498 41.4441 84.4697 41.3031 84.6416C41.1622 84.8135 41.085 85.0273 41.0843 85.2478V89.1287C41.0843 89.2564 41.11 89.3828 41.1599 89.5006C41.2099 89.6185 41.283 89.7256 41.3753 89.8157C41.4675 89.9059 41.577 89.9773 41.6974 90.0259C41.8179 90.0745 41.9469 90.0993 42.0772 90.099H54.9517C55.0819 90.0993 55.211 90.0745 55.3314 90.0259C55.4519 89.9773 55.5613 89.9059 55.6536 89.8157C55.7458 89.7256 55.819 89.6185 55.8689 89.5006C55.9188 89.3828 55.9445 89.2564 55.9445 89.1287V85.2478C55.9445 85.1202 55.9188 84.9938 55.8689 84.8759C55.819 84.7581 55.7458 84.651 55.6536 84.5609C55.5613 84.4707 55.4519 84.3993 55.3314 84.3507C55.211 84.3021 55.0819 84.2773 54.9517 84.2776H54.5529C54.7463 83.2666 55.1132 82.295 55.638 81.4042C55.6706 81.3537 55.7031 81.3005 55.733 81.2447C57.2331 78.7354 57.4257 75.5828 57.4257 73.1161V67.7625C57.4221 66.9903 57.1069 66.2508 56.5488 65.7055C55.9908 65.1601 55.2352 64.8533 54.4471 64.8519ZM53.9507 88.1452H43.0565V86.2048H53.9507V88.1452ZM55.4373 73.1028C55.4373 75.333 55.2745 78.1532 53.9833 80.3143C53.9666 80.3341 53.9521 80.3555 53.9398 80.3781C53.2315 81.5781 52.7543 82.8953 52.5319 84.2643H43.8513C43.5767 82.4347 42.9917 80.663 42.1206 79.0225C41.6267 78.0912 41.0406 77.2098 40.3709 76.3909L33.9824 69.1315C33.7901 68.9139 33.674 68.6416 33.6511 68.3546C33.6281 68.0676 33.6996 67.7809 33.855 67.5366C33.9549 67.3863 34.0911 67.2623 34.2515 67.1756C34.4118 67.089 34.5914 67.0422 34.7746 67.0395C35.042 67.0373 35.3009 67.132 35.5016 67.3053C40.2624 71.8455 40.2624 71.8455 40.9677 71.5584C41.1471 71.483 41.3001 71.3577 41.4076 71.198C41.5151 71.0383 41.5725 70.8512 41.5726 70.6599V54.1847C41.5669 53.9274 41.6656 53.6784 41.8473 53.4924C42.0289 53.3065 42.2784 53.1989 42.541 53.1932C42.8036 53.1876 43.0578 53.2844 43.2475 53.4624C43.4373 53.6403 43.5471 53.8849 43.5529 54.1422V71.1703C43.5662 71.4192 43.6764 71.6536 43.8609 71.8251C44.0454 71.9967 44.29 72.0923 44.5444 72.0923C44.7987 72.0923 45.0434 71.9967 45.2278 71.8251C45.4123 71.6536 45.5226 71.4192 45.5359 71.1703V62.425C45.5359 62.1677 45.6402 61.9209 45.8259 61.7389C46.0116 61.557 46.2634 61.4548 46.526 61.4548C46.7886 61.4548 47.0405 61.557 47.2261 61.7389C47.4118 61.9209 47.5162 62.1677 47.5162 62.425V71.1597C47.5162 71.417 47.6205 71.6638 47.8062 71.8457C47.9918 72.0277 48.2437 72.1299 48.5063 72.1299C48.7689 72.1299 49.0207 72.0277 49.2064 71.8457C49.3921 71.6638 49.4964 71.417 49.4964 71.1597V65.349C49.4964 65.0916 49.6007 64.8449 49.7864 64.6629C49.9721 64.4809 50.224 64.3787 50.4866 64.3787C50.7492 64.3787 51.001 64.4809 51.1867 64.6629C51.3724 64.8449 51.4767 65.0916 51.4767 65.349V71.1703C51.49 71.4192 51.6003 71.6536 51.7847 71.8251C51.9692 71.9967 52.2139 72.0923 52.4682 72.0923C52.7225 72.0923 52.9672 71.9967 53.1517 71.8251C53.3361 71.6536 53.4464 71.4192 53.4597 71.1703V67.7625C53.4597 67.5052 53.564 67.2584 53.7497 67.0765C53.9354 66.8945 54.1872 66.7923 54.4498 66.7923C54.7124 66.7923 54.9643 66.8945 55.15 67.0765C55.3357 67.2584 55.44 67.5052 55.44 67.7625L55.4373 73.1028Z" fill="url(#paint4_linear_735_3088)"/>
<path d="M53.3112 65.3944L53.3281 65.5512L53.4769 65.499C53.7861 65.3904 54.1124 65.3343 54.4414 65.333C55.199 65.3324 55.9252 65.6223 56.4609 66.1381C56.9964 66.6537 57.2979 67.3529 57.3007 68.0819V73.3459C57.3007 75.7801 57.1069 78.8555 55.6246 81.2984L55.6243 81.2981L55.6197 81.3073C55.5953 81.3561 55.567 81.4031 55.535 81.4477L55.5346 81.4475L55.5292 81.4566C54.9989 82.3482 54.6272 83.3197 54.4296 84.3307L54.4005 84.4796H54.5523H54.9508H54.9511C55.0653 84.4793 55.1782 84.5008 55.2835 84.5429C55.3888 84.5849 55.4842 84.6465 55.5643 84.724C55.6444 84.8015 55.7077 84.8933 55.7507 84.994C55.7936 85.0947 55.8155 85.2025 55.8152 85.3112V85.3116V89.1419C55.8152 89.2516 55.7927 89.3602 55.7489 89.4616C55.7051 89.563 55.6407 89.6552 55.5594 89.7328C55.478 89.8105 55.3813 89.8719 55.2747 89.9133C55.1681 89.9548 55.054 89.9754 54.9389 89.9739H54.9372H42.059C41.8285 89.9733 41.6085 89.8844 41.4467 89.728C41.2852 89.5718 41.195 89.361 41.1943 89.1419C41.1943 89.1418 41.1943 89.1417 41.1943 89.1416L41.1943 85.3038C41.1944 85.1157 41.2609 84.9328 41.3835 84.7852C41.5062 84.6375 41.6779 84.5339 41.8707 84.4926L41.9877 84.4675L41.9678 84.3495C41.7126 82.84 41.2133 81.3788 40.4883 80.0197L40.4882 80.0196C40.0562 79.2124 39.5441 78.4479 38.9593 77.7366L38.9594 77.7365L38.956 77.7328L32.5602 70.5613C32.56 70.561 32.5597 70.5608 32.5595 70.5605C32.1155 70.0447 31.8545 69.4055 31.8137 68.7366C31.773 68.0679 31.9546 67.4039 32.3325 66.8415C32.6048 66.4573 32.9694 66.142 33.3955 65.923C33.822 65.7038 34.2973 65.5877 34.7806 65.5847C35.5248 65.5875 36.2397 65.8616 36.783 66.3513C37.6866 67.2007 38.5955 68.0466 39.5099 68.8891L39.7196 69.0823V68.7972V54.679H39.7203L39.7189 54.6658C39.7172 54.6493 39.7172 54.6327 39.7189 54.6163L39.7202 54.6044L39.7192 54.5925C39.687 54.2102 39.7378 53.8254 39.8683 53.463C39.9988 53.1005 40.2062 52.7681 40.4776 52.4871C40.749 52.2061 41.0783 51.9829 41.4446 51.8318C41.811 51.6807 42.206 51.6052 42.6045 51.6104C43.0029 51.6155 43.3957 51.701 43.7578 51.8614C44.1198 52.0218 44.4428 52.2534 44.7064 52.5412C44.97 52.829 45.1682 53.1665 45.2888 53.5322C45.4093 53.8979 45.4495 54.2837 45.4069 54.6652L45.4061 54.6651V54.679V60.1113V60.2868L45.5719 60.2294C46.0011 60.081 46.461 60.0346 46.9127 60.0942C47.3644 60.1538 47.7944 60.3176 48.1664 60.5715C48.5384 60.8254 48.8414 61.1618 49.0501 61.5521C49.2588 61.9424 49.3672 62.3752 49.3664 62.8141V62.8143V62.9821V63.1573L49.5321 63.1003C49.7464 63.0266 49.9691 62.9776 50.1954 62.9544C50.5664 62.9168 50.9413 62.9503 51.2988 63.0529C51.6563 63.1555 51.9892 63.3251 52.2785 63.552C52.5678 63.7788 52.8077 64.0584 52.9848 64.3745C53.1619 64.6906 53.2728 65.0372 53.3112 65.3944Z" stroke="url(#paint5_linear_735_3088)" stroke-width="0.25" stroke-miterlimit="10"/>
<path d="M39.3146 48.2608C39.3148 48.2715 39.3175 48.2819 39.3226 48.2913C39.3277 48.3006 39.335 48.3086 39.3439 48.3145L40.5634 49.7316C40.8524 49.5962 41.1585 49.501 41.4732 49.4487L40.6439 48.473H41.2122C41.8042 48.4755 42.3756 48.2559 42.8137 47.8576C43.2517 47.4594 43.5244 46.9113 43.5781 46.3218H44.4391C44.553 46.3218 44.6622 46.2765 44.7427 46.196C44.8232 46.1155 44.8684 46.0063 44.8684 45.8925C44.8684 45.7786 44.8232 45.6694 44.7427 45.5889C44.6622 45.5084 44.553 45.4632 44.4391 45.4632H43.4879C43.4054 45.1498 43.2592 44.8567 43.0586 44.6022H44.4391C44.5477 44.594 44.6492 44.5451 44.7232 44.4653C44.7973 44.3855 44.8384 44.2806 44.8384 44.1717C44.8384 44.0628 44.7973 43.958 44.7232 43.8781C44.6492 43.7983 44.5477 43.7494 44.4391 43.7412H39.7024C39.6432 43.7367 39.5836 43.7446 39.5275 43.7642C39.4714 43.7838 39.42 43.8148 39.3764 43.8552C39.3328 43.8956 39.2981 43.9446 39.2743 43.999C39.2505 44.0535 39.2383 44.1123 39.2383 44.1717C39.2383 44.2311 39.2505 44.2899 39.2743 44.3444C39.2981 44.3989 39.3328 44.4478 39.3764 44.4882C39.42 44.5286 39.4714 44.5596 39.5275 44.5792C39.5836 44.5989 39.6432 44.6067 39.7024 44.6022H41.2073C41.4916 44.6033 41.7697 44.6847 42.0097 44.837C42.2496 44.9894 42.4416 45.2064 42.5635 45.4632H39.7024C39.5886 45.4632 39.4794 45.5084 39.3989 45.5889C39.3184 45.6694 39.2731 45.7786 39.2731 45.8925C39.2731 46.0063 39.3184 46.1155 39.3989 46.196C39.4794 46.2765 39.5886 46.3218 39.7024 46.3218H42.7123C42.6613 46.6793 42.4835 47.0067 42.2113 47.244C41.939 47.4813 41.5905 47.6128 41.2293 47.6145H39.6536C39.6254 47.6095 39.5965 47.6095 39.5683 47.6145C39.5388 47.6243 39.5109 47.6383 39.4853 47.656L39.4341 47.6877C39.4094 47.708 39.3887 47.7328 39.3732 47.7608C39.3587 47.7794 39.3457 47.7989 39.3341 47.8194C39.3317 47.8453 39.3317 47.8715 39.3341 47.8974C39.3039 47.9405 39.2861 47.9912 39.2829 48.0438C39.2804 48.064 39.2804 48.0845 39.2829 48.1047C39.2779 48.133 39.2779 48.1619 39.2829 48.1901C39.2899 48.2152 39.3005 48.239 39.3146 48.2608Z" fill="url(#paint6_linear_735_3088)"/>
<path d="M39.3146 48.2608C39.315 48.2711 39.3178 48.2811 39.3229 48.2901C39.328 48.299 39.3352 48.3065 39.3439 48.3121L40.5634 49.7292C40.8529 49.5957 41.1588 49.5013 41.4732 49.4487L40.6439 48.473H41.2122C41.8042 48.4755 42.3756 48.2559 42.8137 47.8576C43.2517 47.4594 43.5244 46.9113 43.5781 46.3218H44.4391C44.5477 46.3136 44.6492 46.2647 44.7233 46.1849C44.7973 46.105 44.8384 46.0002 44.8384 45.8913C44.8384 45.7824 44.7973 45.6775 44.7233 45.5977C44.6492 45.5179 44.5477 45.469 44.4391 45.4608H43.4879C43.4048 45.1483 43.2588 44.8561 43.0586 44.6022H44.4391C44.5477 44.594 44.6492 44.5451 44.7233 44.4653C44.7973 44.3855 44.8384 44.2806 44.8384 44.1717C44.8384 44.0628 44.7973 43.958 44.7233 43.8781C44.6492 43.7983 44.5477 43.7494 44.4391 43.7412H39.7073C39.6481 43.7367 39.5885 43.7446 39.5324 43.7642C39.4763 43.7838 39.4249 43.8148 39.3813 43.8552C39.3377 43.8956 39.303 43.9446 39.2792 43.999C39.2554 44.0535 39.2432 44.1123 39.2432 44.1717C39.2432 44.2311 39.2554 44.2899 39.2792 44.3444C39.303 44.3989 39.3377 44.4478 39.3813 44.4882C39.4249 44.5286 39.4763 44.5596 39.5324 44.5792C39.5885 44.5989 39.6481 44.6067 39.7073 44.6022H41.2122C41.4963 44.6028 41.7743 44.6837 42.0143 44.8356C42.2543 44.9875 42.4464 45.2043 42.5684 45.4608H39.7024C39.6432 45.4563 39.5836 45.4641 39.5275 45.4837C39.4714 45.5033 39.42 45.5343 39.3764 45.5747C39.3328 45.6152 39.2981 45.6641 39.2743 45.7186C39.2506 45.7731 39.2383 45.8318 39.2383 45.8913C39.2383 45.9507 39.2506 46.0095 39.2743 46.0639C39.2981 46.1184 39.3328 46.1674 39.3764 46.2078C39.42 46.2482 39.4714 46.2792 39.5275 46.2988C39.5836 46.3184 39.6432 46.3262 39.7024 46.3218H42.7123C42.6613 46.6791 42.4834 47.0061 42.2111 47.2431C41.9388 47.48 41.5903 47.611 41.2293 47.612H39.7024C39.6822 47.6095 39.6617 47.6095 39.6415 47.612C39.6132 47.607 39.5843 47.607 39.5561 47.612C39.5261 47.6217 39.498 47.6366 39.4732 47.656L39.4219 47.6852C39.3983 47.7067 39.3778 47.7313 39.361 47.7584C39.3465 47.7778 39.3335 47.7982 39.3219 47.8194C39.3195 47.8453 39.3195 47.8715 39.3219 47.8974C39.2913 47.9404 39.2736 47.9911 39.2707 48.0438C39.2684 48.0632 39.2684 48.0829 39.2707 48.1023C39.2658 48.1314 39.2658 48.161 39.2707 48.1901C39.2814 48.2159 39.2963 48.2398 39.3146 48.2608Z" stroke="url(#paint7_linear_735_3088)" stroke-width="0.25" stroke-miterlimit="10"/>
<path d="M46.7586 53.325V55.4395C46.7586 55.449 46.7663 55.4567 46.7759 55.4567C46.779 55.4567 46.782 55.4559 46.7846 55.4544C48.4745 54.4663 49.7918 52.9488 50.5326 51.1367C51.274 49.3232 51.3966 47.3158 50.8814 45.4255C50.3663 43.5352 49.2421 41.8675 47.6831 40.6809C46.1241 39.4943 44.2173 38.8549 42.258 38.8619C40.2988 38.8688 38.3966 39.5217 36.846 40.7194C35.2955 41.9171 34.1832 43.5926 33.6815 45.4866C33.1797 47.3805 33.3166 49.387 34.0709 51.1952C34.6084 52.4838 35.4381 53.6205 36.4854 54.5206C37.0518 55.0074 37.8535 54.557 37.8535 53.8102C37.8535 53.5144 37.7159 53.2377 37.4971 53.0386C36.5256 52.1544 35.815 51.0165 35.4483 49.7488C35.0381 48.3308 35.0786 46.8204 35.564 45.4264C36.0494 44.0324 36.9558 42.8235 38.158 41.9669C39.3601 41.1103 40.7987 40.6483 42.2748 40.6447C43.7509 40.641 45.1917 41.096 46.3981 41.9466C47.6044 42.7973 48.5168 44.0016 49.0091 45.3932C49.5013 46.7849 49.5492 48.295 49.1461 49.715C48.7434 51.1335 47.9105 52.392 46.7624 53.317C46.76 53.319 46.7586 53.3219 46.7586 53.325Z" fill="url(#paint8_linear_735_3088)"/>
<path d="M50.4246 51.1003C49.7166 52.8295 48.4765 54.2863 46.8864 55.2612V53.389C48.0326 52.451 48.8644 51.1841 49.2691 49.7585C49.6793 48.3135 49.6306 46.7769 49.1297 45.3609C48.6288 43.9448 47.7004 42.7193 46.4729 41.8538C45.2454 40.9882 43.7793 40.5253 42.2773 40.529C40.7752 40.5327 39.3115 41.0028 38.0882 41.8744C36.865 42.7461 35.9426 43.9761 35.4487 45.3946C34.9548 46.8131 34.9137 48.3499 35.331 49.7928C35.7041 51.0828 36.4272 52.2407 37.4158 53.1403C37.6119 53.3187 37.7313 53.5631 37.7313 53.8195C37.7313 54.1465 37.5565 54.4036 37.3256 54.5271C37.0971 54.6494 36.8113 54.6429 36.5696 54.4352C35.5358 53.5471 34.7169 52.4253 34.1865 51.1535C33.4424 49.3695 33.3075 47.3898 33.8027 45.5212C34.2979 43.6527 35.3956 41.9997 36.9257 40.8183C38.4557 39.6369 40.3327 38.9932 42.2657 38.9869C44.1988 38.9805 46.0799 39.6119 47.6177 40.7832C49.1555 41.9545 50.264 43.6003 50.7714 45.4656C51.2789 47.3308 51.157 49.3114 50.4246 51.1003Z" stroke="url(#paint9_linear_735_3088)" stroke-width="0.25" stroke-miterlimit="10"/>
<path d="M61.8074 35.3469H21.7306C21.0211 35.3469 20.3406 35.6279 19.8377 36.1284C19.3349 36.629 19.0508 37.3083 19.0476 38.0177V57.611C19.0476 58.3225 19.3303 59.005 19.8334 59.5081C20.3366 60.0113 21.019 60.294 21.7306 60.294H37.9847V58.511H27.9113C27.7069 56.7054 26.896 55.0226 25.6111 53.7378C24.3263 52.4529 22.6435 51.642 20.8379 51.4376V44.2008C22.6433 43.9961 24.3259 43.185 25.6106 41.9002C26.8954 40.6154 27.7065 38.9329 27.9113 37.1275H55.6267C55.8311 38.933 56.642 40.6158 57.9268 41.9007C59.2117 43.1856 60.8945 43.9965 62.7001 44.2008V51.4303C60.8943 51.6342 59.2113 52.445 57.9264 53.73C56.6414 55.0149 55.8306 56.698 55.6267 58.5037H49.5171C50.3213 58.8911 50.9896 59.5126 51.4342 60.2867H61.8074C62.5189 60.2867 63.2014 60.004 63.7045 59.5008C64.2077 58.9977 64.4904 58.3152 64.4904 57.6037V38.0177C64.4871 37.3083 64.203 36.629 63.7002 36.1284C63.1974 35.6279 62.5168 35.3469 61.8074 35.3469ZM26.1112 58.5012H21.7209C21.6038 58.5016 21.4879 58.4788 21.3798 58.4341C21.2716 58.3895 21.1734 58.3239 21.0906 58.2412C21.0079 58.1585 20.9423 58.0602 20.8977 57.952C20.8531 57.8439 20.8303 57.728 20.8306 57.611V53.2206C22.1629 53.4127 23.3972 54.0309 24.3491 54.9828C25.3009 55.9346 25.9191 57.1689 26.1112 58.5012ZM20.8403 42.4032V38.0129C20.8403 37.7767 20.9341 37.5503 21.1011 37.3833C21.2681 37.2164 21.4945 37.1226 21.7306 37.1226H26.121C25.9276 38.4541 25.309 39.6875 24.3573 40.6387C23.4057 41.59 22.172 42.208 20.8403 42.4008V42.4032ZM62.6976 57.6134C62.6976 57.8495 62.6038 58.076 62.4369 58.2429C62.2699 58.4099 62.0435 58.5037 61.8074 58.5037H57.417C57.6114 57.1745 58.2296 55.9436 59.1797 54.9939C60.1298 54.0443 61.361 53.4266 62.6903 53.2328L62.6976 57.6134ZM62.6976 42.4032C61.3685 42.2082 60.1376 41.5898 59.1877 40.6399C58.2377 39.6899 57.6194 38.4591 57.4243 37.1299H61.8147C62.0506 37.1305 62.2767 37.2245 62.4435 37.3914C62.6103 37.5582 62.7043 37.7843 62.7049 38.0202L62.6976 42.4032Z" fill="url(#paint10_linear_735_3088)"/>
<path d="M27.9406 58.5592L27.9532 58.6702H28.0648H38.0133V60.2007H21.8842C21.2058 60.2007 20.5551 59.9312 20.0754 59.4515C19.5957 58.9718 19.3262 58.3211 19.3262 57.6427V38.04C19.3293 37.3637 19.6002 36.7161 20.0795 36.239C20.5589 35.7618 21.2078 35.4939 21.8842 35.4939H61.9606C62.6349 35.497 63.2807 35.7663 63.7575 36.2431C64.2344 36.72 64.5037 37.3659 64.5067 38.0403V57.6281C64.5067 58.3045 64.2388 58.9534 63.7616 59.4328C63.2845 59.912 62.637 60.1829 61.9608 60.1861C61.9606 60.1861 61.9605 60.1861 61.9604 60.1861L51.6595 60.1861C51.2876 59.5614 50.7721 59.0372 50.1581 58.6555H55.7778H55.8894L55.902 58.5446C56.1036 56.7673 56.9021 55.111 58.1668 53.8462C59.4316 52.5814 61.088 51.783 62.8653 51.5814L62.9762 51.5688V51.4572V44.2277V44.1161L62.8653 44.1035C61.0882 43.9015 59.432 43.1029 58.1673 41.8382C56.9026 40.5735 56.104 38.9173 55.902 37.1402L55.8894 37.0293H55.7778H28.0648H27.9532L27.9406 37.1402C27.739 38.9175 26.9406 40.5739 25.6758 41.8387C24.411 43.1035 22.7547 43.9019 20.9774 44.1035L20.8665 44.1161V44.2277V51.4718V51.5834L20.9774 51.596C22.7548 51.7972 24.4114 52.5955 25.6763 53.8603C26.9412 55.1252 27.7395 56.7818 27.9406 58.5592ZM26.2648 58.6507H26.4092L26.3885 58.5077C26.1916 57.1515 25.5618 55.8951 24.5929 54.9259C23.6241 53.9566 22.3681 53.3262 21.0119 53.1286L20.8689 53.1078V53.2523L20.8689 57.6427L20.8689 57.6441C20.8718 57.9096 20.9784 58.1636 21.1659 58.3517C21.3535 58.5397 21.6071 58.647 21.8727 58.6507H21.8744H26.2648ZM20.8689 38.0369V38.0373V42.3145V42.4228V42.4276H20.9939H20.9946L21.0117 42.5465C22.37 42.3508 23.6286 41.7209 24.5994 40.751C25.5702 39.781 26.2013 38.5231 26.3983 37.1649L26.419 37.022H26.2745L21.8842 37.022L21.8838 37.022C21.6149 37.0227 21.3572 37.1299 21.167 37.3201C20.9768 37.5103 20.8696 37.768 20.8689 38.0369ZM62.9762 57.643V57.6427V53.2523V53.1079L62.8333 53.1286C61.4742 53.3255 60.2153 53.9567 59.2445 54.9279C58.2737 55.8992 57.6431 57.1584 57.4468 58.5175L57.4262 58.6604H57.5706L61.9609 58.6604L61.9616 58.6604C62.2307 58.6589 62.4884 58.5512 62.6784 58.3606C62.8684 58.1701 62.9755 57.9122 62.9762 57.643ZM62.8331 42.5562L62.976 42.5771L62.9762 42.4327L62.9835 38.0448V38.0442C62.9828 37.7753 62.8756 37.5176 62.6854 37.3274C62.4953 37.1372 62.2375 37.03 61.9686 37.0293H61.9682H57.5779H57.4334L57.4542 37.1723C57.651 38.5294 58.281 39.7867 59.2502 40.7568C60.2195 41.727 61.4762 42.3581 62.8331 42.5562Z" stroke="url(#paint11_linear_735_3088)" stroke-width="0.25" stroke-miterlimit="10"/>
<path d="M38.6149 92.9096C42.9879 92.9096 46.5347 92.5395 46.5347 92.0825C46.5347 91.6256 42.9879 91.2576 38.6149 91.2576C34.242 91.2576 30.6931 91.6278 30.6931 92.0825C30.6931 92.5373 34.242 92.9096 38.6149 92.9096Z" fill="url(#paint12_radial_735_3088)"/>
<path d="M39.5174 92.0803C39.5174 96.4527 39.1033 100 38.6126 100C38.1219 100 37.7078 96.4527 37.7078 92.0803C37.7078 87.7079 38.1219 84.1584 38.6126 84.1584C39.1033 84.1584 39.5174 87.7058 39.5174 92.0803Z" fill="url(#paint13_radial_735_3088)"/>
<path d="M7.92079 8.74994C12.2964 8.74994 15.8416 8.37971 15.8416 7.92486C15.8416 7.47 12.2964 7.09766 7.92079 7.09766C3.5452 7.09766 0 7.46154 0 7.92486C0 8.38817 3.54313 8.74994 7.92079 8.74994Z" fill="url(#paint14_radial_735_3088)"/>
<path d="M8.82159 7.92079C8.82159 12.2937 8.41779 15.8416 7.91666 15.8416C7.41552 15.8416 7.01172 12.2937 7.01172 7.92079C7.01172 3.54785 7.42588 0 7.91666 0C8.40744 0 8.82159 3.54574 8.82159 7.92079Z" fill="url(#paint15_radial_735_3088)"/>
<defs>
<linearGradient id="paint0_linear_735_3088" x1="17.8669" y1="85.3166" x2="32.221" y2="85.3166" gradientUnits="userSpaceOnUse">
<stop stop-color="white" stop-opacity="0.9"/>
<stop offset="0.04" stop-color="white" stop-opacity="0.85"/>
<stop offset="0.28" stop-color="white" stop-opacity="0.5"/>
<stop offset="0.65" stop-color="#FAFBFC" stop-opacity="0.4"/>
<stop offset="1" stop-color="#F0EFEF" stop-opacity="0.3"/>
</linearGradient>
<linearGradient id="paint1_linear_735_3088" x1="17.623" y1="85.1728" x2="32.4649" y2="85.1728" gradientUnits="userSpaceOnUse">
<stop stop-color="white" stop-opacity="0.9"/>
<stop offset="0.28" stop-color="white" stop-opacity="0.5"/>
<stop offset="0.65" stop-color="#FAFBFC" stop-opacity="0.4"/>
<stop offset="1" stop-color="#F0EFEF" stop-opacity="0.3"/>
</linearGradient>
<linearGradient id="paint2_linear_735_3088" x1="3.83716" y1="50.0817" x2="50.819" y2="50.0817" gradientUnits="userSpaceOnUse">
<stop stop-color="white" stop-opacity="0.9"/>
<stop offset="0.04" stop-color="white" stop-opacity="0.85"/>
<stop offset="0.28" stop-color="white" stop-opacity="0.5"/>
<stop offset="0.65" stop-color="#FAFBFC" stop-opacity="0.4"/>
<stop offset="1" stop-color="#F0EFEF" stop-opacity="0.3"/>
</linearGradient>
<linearGradient id="paint3_linear_735_3088" x1="27.2402" y1="91.8191" x2="27.2402" y2="8.05334" gradientUnits="userSpaceOnUse">
<stop stop-color="white" stop-opacity="0.9"/>
<stop offset="0.28" stop-color="white" stop-opacity="0.5"/>
<stop offset="0.65" stop-color="#FAFBFC" stop-opacity="0.4"/>
<stop offset="1" stop-color="#F0EFEF" stop-opacity="0.3"/>
</linearGradient>
<linearGradient id="paint4_linear_735_3088" x1="31.6712" y1="70.6573" x2="57.4175" y2="70.6573" gradientUnits="userSpaceOnUse">
<stop stop-color="white" stop-opacity="0.9"/>
<stop offset="0.04" stop-color="white" stop-opacity="0.85"/>
<stop offset="0.28" stop-color="white" stop-opacity="0.5"/>
<stop offset="0.65" stop-color="#FAFBFC" stop-opacity="0.4"/>
<stop offset="1" stop-color="#F0EFEF" stop-opacity="0.3"/>
</linearGradient>
<linearGradient id="paint5_linear_735_3088" x1="48.8448" y1="90.6353" x2="45.0907" y2="68.6468" gradientUnits="userSpaceOnUse">
<stop stop-color="white" stop-opacity="0.5"/>
<stop offset="0.28" stop-color="white" stop-opacity="0.5"/>
<stop offset="0.65" stop-color="#FAFBFC" stop-opacity="0.4"/>
<stop offset="1" stop-color="#F0EFEF" stop-opacity="0"/>
</linearGradient>
<linearGradient id="paint6_linear_735_3088" x1="42.0659" y1="49.7316" x2="42.0659" y2="43.7315" gradientUnits="userSpaceOnUse">
<stop stop-color="#79A540"/>
<stop offset="0.2" stop-color="#94C63D"/>
<stop offset="0.39" stop-color="#98CA3C"/>
<stop offset="0.59" stop-color="#93C53E"/>
<stop offset="0.74" stop-color="#9DCB3B"/>
<stop offset="0.9" stop-color="#A6CE39"/>
<stop offset="1" stop-color="#A6CE39"/>
</linearGradient>
<linearGradient id="paint7_linear_735_3088" x1="37.287" y1="40.8131" x2="44.1165" y2="49.106" gradientUnits="userSpaceOnUse">
<stop stop-color="#72BF44"/>
<stop offset="0.1" stop-color="#A6CE39"/>
<stop offset="0.26" stop-color="#6FBE44"/>
<stop offset="0.41" stop-color="#93C53E"/>
<stop offset="0.61" stop-color="#98CA3C"/>
<stop offset="0.8" stop-color="#5CBA47"/>
<stop offset="1" stop-color="#5DA560"/>
</linearGradient>
<linearGradient id="paint8_linear_735_3088" x1="33.3851" y1="47.1809" x2="51.1953" y2="47.1809" gradientUnits="userSpaceOnUse">
<stop stop-color="#79A540"/>
<stop offset="0.2" stop-color="#94C63D"/>
<stop offset="0.39" stop-color="#98CA3C"/>
<stop offset="0.59" stop-color="#93C53E"/>
<stop offset="0.74" stop-color="#9DCB3B"/>
<stop offset="0.9" stop-color="#A6CE39"/>
<stop offset="1" stop-color="#A6CE39"/>
</linearGradient>
<linearGradient id="paint9_linear_735_3088" x1="33.022" y1="47.3244" x2="51.564" y2="47.3244" gradientUnits="userSpaceOnUse">
<stop stop-color="#5DA560"/>
<stop offset="0.2" stop-color="#5CBA47"/>
<stop offset="0.39" stop-color="#98CA3C"/>
<stop offset="0.59" stop-color="#93C53E"/>
<stop offset="0.74" stop-color="#6FBE44"/>
<stop offset="0.9" stop-color="#A6CE39"/>
<stop offset="1" stop-color="#72BF44"/>
</linearGradient>
<linearGradient id="paint10_linear_735_3088" x1="19.0574" y1="47.8156" x2="64.4782" y2="47.8156" gradientUnits="userSpaceOnUse">
<stop stop-color="#79A540"/>
<stop offset="0.2" stop-color="#94C63D"/>
<stop offset="0.39" stop-color="#98CA3C"/>
<stop offset="0.59" stop-color="#93C53E"/>
<stop offset="0.74" stop-color="#9DCB3B"/>
<stop offset="0.9" stop-color="#A6CE39"/>
<stop offset="1" stop-color="#A6CE39"/>
</linearGradient>
<linearGradient id="paint11_linear_735_3088" x1="18.8451" y1="47.8375" x2="64.9976" y2="47.8375" gradientUnits="userSpaceOnUse">
<stop stop-color="#5DA560"/>
<stop offset="0.2" stop-color="#5CBA47"/>
<stop offset="0.39" stop-color="#98CA3C"/>
<stop offset="0.59" stop-color="#93C53E"/>
<stop offset="0.74" stop-color="#6FBE44"/>
<stop offset="0.9" stop-color="#A6CE39"/>
<stop offset="1" stop-color="#72BF44"/>
</linearGradient>
<radialGradient id="paint12_radial_735_3088" cx="0" cy="0" r="1" gradientUnits="userSpaceOnUse" gradientTransform="translate(38.1148 91.7551) rotate(90) scale(0.820406 7.91321)">
<stop stop-color="white"/>
<stop offset="0.07" stop-color="white" stop-opacity="0.93"/>
<stop offset="1" stop-color="white" stop-opacity="0"/>
</radialGradient>
<radialGradient id="paint13_radial_735_3088" cx="0" cy="0" r="1" gradientUnits="userSpaceOnUse" gradientTransform="translate(38.6926 92.2958) scale(0.905648 7.93306)">
<stop stop-color="white"/>
<stop offset="0.07" stop-color="white" stop-opacity="0.93"/>
<stop offset="1" stop-color="white" stop-opacity="0"/>
</radialGradient>
<radialGradient id="paint14_radial_735_3088" cx="0" cy="0" r="1" gradientUnits="userSpaceOnUse" gradientTransform="translate(7.42633 7.84378) rotate(90) scale(0.820513 7.91425)">
<stop stop-color="white"/>
<stop offset="0.07" stop-color="white" stop-opacity="0.93"/>
<stop offset="1" stop-color="white" stop-opacity="0"/>
</radialGradient>
<radialGradient id="paint15_radial_735_3088" cx="0" cy="0" r="1" gradientUnits="userSpaceOnUse" gradientTransform="translate(7.92453 8.15698) scale(0.905766 7.93412)">
<stop stop-color="white"/>
<stop offset="0.07" stop-color="white" stop-opacity="0.93"/>
<stop offset="1" stop-color="white" stop-opacity="0"/>
</radialGradient>
</defs>
</svg>
