<svg width="78" height="80" viewBox="0 0 78 80" fill="none" xmlns="http://www.w3.org/2000/svg">
<mask id="path-1-inside-1_718_24034" fill="white">
<path d="M75.5003 48.1831L72.7574 46.6101C73.6772 42.0992 73.6807 37.4494 72.7678 32.9371L75.5003 31.36C75.9174 31.1197 76.2829 30.7993 76.576 30.4174C76.869 30.0355 77.0838 29.5996 77.208 29.1345C77.3322 28.6694 77.3635 28.1844 77.2999 27.7073C77.2364 27.2301 77.0793 26.7702 76.8376 26.3538L69.3676 13.4126C69.1274 12.9967 68.8077 12.6322 68.4266 12.3399C68.0456 12.0476 67.6106 11.8332 67.1467 11.709C66.6828 11.5848 66.1989 11.5532 65.7228 11.6161C65.2467 11.6789 64.7876 11.8349 64.3718 12.0752L61.6372 13.6523C58.1779 10.6122 54.1533 8.28385 49.7934 6.80032V3.65853C49.7924 2.68857 49.4065 1.75864 48.7207 1.07277C48.0348 0.386897 47.1049 0.00109415 46.1349 0H31.1928C30.2232 0.00164094 29.2938 0.387685 28.6084 1.0735C27.9229 1.75931 27.5374 2.68892 27.5363 3.65853V6.80032C23.1804 8.28763 19.1605 10.6196 15.7071 13.6627L12.958 12.0752C12.5421 11.8346 12.0828 11.6783 11.6065 11.6153C11.1301 11.5523 10.646 11.5838 10.1819 11.708C9.7177 11.8322 9.28257 12.0467 8.90133 12.3392C8.52011 12.6316 8.20026 12.9964 7.96009 13.4126L0.490064 26.3538C0.249858 26.7698 0.0939586 27.229 0.0312726 27.7052C-0.0314134 28.1814 0.00034256 28.6653 0.124725 29.1293C0.249108 29.5932 0.463682 30.0281 0.756186 30.4091C1.04869 30.7901 1.41339 31.1097 1.82946 31.3497L4.57232 32.933C3.65322 37.4443 3.65322 42.0947 4.57232 46.606L1.83979 48.1831C1.00034 48.6686 0.387829 49.4673 0.136712 50.404C-0.114405 51.3406 0.0163958 52.3386 0.500399 53.1789L7.96009 66.1202C8.44592 66.9593 9.24481 67.5714 10.1814 67.8221C11.1181 68.0729 12.1159 67.9417 12.9559 67.4576L15.6885 65.8805C19.148 68.9214 23.1734 71.2498 27.5343 72.7325V75.8763C27.5359 76.8456 27.9217 77.7747 28.607 78.46C29.2924 79.1454 30.2215 79.5311 31.1907 79.5328H46.1328C47.1025 79.5317 48.0321 79.1462 48.7179 78.4607C49.4037 77.7753 49.7897 76.8459 49.7914 75.8763V72.7325C54.1469 71.2456 58.1661 68.9135 61.6186 65.8701L64.3697 67.4576C65.2098 67.9417 66.2076 68.0729 67.1442 67.8221C68.0808 67.5714 68.8797 66.9593 69.3656 66.1202L76.8376 53.1789C77.3213 52.3388 77.4521 51.3411 77.2014 50.4047C76.9507 49.4682 76.339 48.6693 75.5003 48.1831ZM74.8162 52.0132L67.3461 64.9524C67.1706 65.256 66.8817 65.4775 66.543 65.5682C66.2042 65.6589 65.8433 65.6114 65.5396 65.4361L62.0547 63.4249C61.839 63.2999 61.589 63.2472 61.3412 63.2748C61.0935 63.3023 60.861 63.4085 60.6781 63.5779C57.1289 66.8653 52.8925 69.3217 48.2763 70.7688C48.0373 70.8415 47.828 70.9889 47.6791 71.1895C47.5303 71.3901 47.4498 71.6332 47.4495 71.8829V75.8763C47.449 76.227 47.3094 76.5631 47.0614 76.8111C46.8135 77.0591 46.4773 77.1986 46.1266 77.1992H31.1928C30.8423 77.1981 30.5064 77.0584 30.2586 76.8105C30.0108 76.5627 29.871 76.2268 29.8699 75.8763V71.8829C29.8697 71.6332 29.7892 71.3901 29.6403 71.1895C29.4915 70.9889 29.2821 70.8415 29.0432 70.7688C24.4281 69.3241 20.192 66.8714 16.6413 63.5882C16.4586 63.4193 16.2268 63.3132 15.9795 63.2853C15.7323 63.2574 15.4826 63.3092 15.2668 63.4332L11.7964 65.4361C11.6461 65.5231 11.48 65.5797 11.3078 65.6025C11.1356 65.6253 10.9606 65.614 10.7928 65.569C10.625 65.5241 10.4677 65.4465 10.3299 65.3407C10.1921 65.2349 10.0766 65.1029 9.98985 64.9524L2.51776 52.0132C2.34275 51.7093 2.29516 51.3484 2.38541 51.0095C2.47565 50.6706 2.69638 50.3812 2.99936 50.2046L6.46567 48.2038C6.68113 48.0793 6.85113 47.8892 6.9508 47.6612C7.05047 47.4333 7.07458 47.1794 7.01961 46.9367C5.94338 42.2194 5.94762 37.3198 7.03202 32.6044C7.0868 32.3614 7.06261 32.1073 6.96298 31.879C6.86335 31.6508 6.69347 31.4603 6.47807 31.3352L2.99936 29.3282C2.69568 29.1523 2.47407 28.8632 2.38304 28.5242C2.292 28.1852 2.33896 27.824 2.51363 27.5196L9.98365 14.5721C10.0704 14.4216 10.1859 14.2896 10.3237 14.1838C10.4615 14.078 10.6188 14.0004 10.7866 13.9555C10.9544 13.9106 11.1294 13.8992 11.3016 13.922C11.4738 13.9448 11.6399 14.0014 11.7902 14.0885L15.2751 16.0996C15.4907 16.2247 15.7408 16.2773 15.9886 16.2497C16.2363 16.2222 16.4687 16.116 16.6517 15.9467C20.1992 12.6642 24.4317 10.2109 29.0432 8.76394C29.282 8.69103 29.4911 8.54348 29.6399 8.34297C29.7887 8.14246 29.8693 7.89954 29.8699 7.64985V3.65853C29.8705 3.30786 30.01 2.9717 30.258 2.72373C30.506 2.47577 30.8421 2.33622 31.1928 2.33567H46.1328C46.4835 2.33622 46.8197 2.47577 47.0676 2.72373C47.3156 2.9717 47.4552 3.30786 47.4557 3.65853V7.64985C47.4563 7.89954 47.5369 8.14246 47.6857 8.34297C47.8345 8.54348 48.0437 8.69103 48.2825 8.76394C52.9013 10.2071 57.1411 12.6599 60.6946 15.9446C60.8775 16.114 61.1098 16.2204 61.3575 16.2483C61.6052 16.2761 61.8553 16.2241 62.0712 16.0996L65.5417 14.0967C65.8454 13.9214 66.2063 13.8739 66.5451 13.9646C66.8838 14.0553 67.1727 14.2768 67.3482 14.5804L74.8182 27.5196C74.9936 27.8237 75.0412 28.1849 74.9505 28.524C74.8598 28.8631 74.6383 29.1523 74.3345 29.3282L70.8682 31.329C70.6528 31.4535 70.4828 31.6436 70.3831 31.8716C70.2834 32.0995 70.2593 32.3534 70.3143 32.5961C71.3905 37.3134 71.3863 42.213 70.3019 46.9284C70.2464 47.1714 70.2703 47.4257 70.37 47.6542C70.4697 47.8826 70.64 48.073 70.8558 48.1976L74.3345 50.2046C74.6379 50.3808 74.859 50.6702 74.9493 51.0093C75.0396 51.3484 74.9917 51.7094 74.8162 52.0132Z"/>
</mask>
<path d="M75.5003 48.1831L72.7574 46.6101C73.6772 42.0992 73.6807 37.4494 72.7678 32.9371L75.5003 31.36C75.9174 31.1197 76.2829 30.7993 76.576 30.4174C76.869 30.0355 77.0838 29.5996 77.208 29.1345C77.3322 28.6694 77.3635 28.1844 77.2999 27.7073C77.2364 27.2301 77.0793 26.7702 76.8376 26.3538L69.3676 13.4126C69.1274 12.9967 68.8077 12.6322 68.4266 12.3399C68.0456 12.0476 67.6106 11.8332 67.1467 11.709C66.6828 11.5848 66.1989 11.5532 65.7228 11.6161C65.2467 11.6789 64.7876 11.8349 64.3718 12.0752L61.6372 13.6523C58.1779 10.6122 54.1533 8.28385 49.7934 6.80032V3.65853C49.7924 2.68857 49.4065 1.75864 48.7207 1.07277C48.0348 0.386897 47.1049 0.00109415 46.1349 0H31.1928C30.2232 0.00164094 29.2938 0.387685 28.6084 1.0735C27.9229 1.75931 27.5374 2.68892 27.5363 3.65853V6.80032C23.1804 8.28763 19.1605 10.6196 15.7071 13.6627L12.958 12.0752C12.5421 11.8346 12.0828 11.6783 11.6065 11.6153C11.1301 11.5523 10.646 11.5838 10.1819 11.708C9.7177 11.8322 9.28257 12.0467 8.90133 12.3392C8.52011 12.6316 8.20026 12.9964 7.96009 13.4126L0.490064 26.3538C0.249858 26.7698 0.0939586 27.229 0.0312726 27.7052C-0.0314134 28.1814 0.00034256 28.6653 0.124725 29.1293C0.249108 29.5932 0.463682 30.0281 0.756186 30.4091C1.04869 30.7901 1.41339 31.1097 1.82946 31.3497L4.57232 32.933C3.65322 37.4443 3.65322 42.0947 4.57232 46.606L1.83979 48.1831C1.00034 48.6686 0.387829 49.4673 0.136712 50.404C-0.114405 51.3406 0.0163958 52.3386 0.500399 53.1789L7.96009 66.1202C8.44592 66.9593 9.24481 67.5714 10.1814 67.8221C11.1181 68.0729 12.1159 67.9417 12.9559 67.4576L15.6885 65.8805C19.148 68.9214 23.1734 71.2498 27.5343 72.7325V75.8763C27.5359 76.8456 27.9217 77.7747 28.607 78.46C29.2924 79.1454 30.2215 79.5311 31.1907 79.5328H46.1328C47.1025 79.5317 48.0321 79.1462 48.7179 78.4607C49.4037 77.7753 49.7897 76.8459 49.7914 75.8763V72.7325C54.1469 71.2456 58.1661 68.9135 61.6186 65.8701L64.3697 67.4576C65.2098 67.9417 66.2076 68.0729 67.1442 67.8221C68.0808 67.5714 68.8797 66.9593 69.3656 66.1202L76.8376 53.1789C77.3213 52.3388 77.4521 51.3411 77.2014 50.4047C76.9507 49.4682 76.339 48.6693 75.5003 48.1831ZM74.8162 52.0132L67.3461 64.9524C67.1706 65.256 66.8817 65.4775 66.543 65.5682C66.2042 65.6589 65.8433 65.6114 65.5396 65.4361L62.0547 63.4249C61.839 63.2999 61.589 63.2472 61.3412 63.2748C61.0935 63.3023 60.861 63.4085 60.6781 63.5779C57.1289 66.8653 52.8925 69.3217 48.2763 70.7688C48.0373 70.8415 47.828 70.9889 47.6791 71.1895C47.5303 71.3901 47.4498 71.6332 47.4495 71.8829V75.8763C47.449 76.227 47.3094 76.5631 47.0614 76.8111C46.8135 77.0591 46.4773 77.1986 46.1266 77.1992H31.1928C30.8423 77.1981 30.5064 77.0584 30.2586 76.8105C30.0108 76.5627 29.871 76.2268 29.8699 75.8763V71.8829C29.8697 71.6332 29.7892 71.3901 29.6403 71.1895C29.4915 70.9889 29.2821 70.8415 29.0432 70.7688C24.4281 69.3241 20.192 66.8714 16.6413 63.5882C16.4586 63.4193 16.2268 63.3132 15.9795 63.2853C15.7323 63.2574 15.4826 63.3092 15.2668 63.4332L11.7964 65.4361C11.6461 65.5231 11.48 65.5797 11.3078 65.6025C11.1356 65.6253 10.9606 65.614 10.7928 65.569C10.625 65.5241 10.4677 65.4465 10.3299 65.3407C10.1921 65.2349 10.0766 65.1029 9.98985 64.9524L2.51776 52.0132C2.34275 51.7093 2.29516 51.3484 2.38541 51.0095C2.47565 50.6706 2.69638 50.3812 2.99936 50.2046L6.46567 48.2038C6.68113 48.0793 6.85113 47.8892 6.9508 47.6612C7.05047 47.4333 7.07458 47.1794 7.01961 46.9367C5.94338 42.2194 5.94762 37.3198 7.03202 32.6044C7.0868 32.3614 7.06261 32.1073 6.96298 31.879C6.86335 31.6508 6.69347 31.4603 6.47807 31.3352L2.99936 29.3282C2.69568 29.1523 2.47407 28.8632 2.38304 28.5242C2.292 28.1852 2.33896 27.824 2.51363 27.5196L9.98365 14.5721C10.0704 14.4216 10.1859 14.2896 10.3237 14.1838C10.4615 14.078 10.6188 14.0004 10.7866 13.9555C10.9544 13.9106 11.1294 13.8992 11.3016 13.922C11.4738 13.9448 11.6399 14.0014 11.7902 14.0885L15.2751 16.0996C15.4907 16.2247 15.7408 16.2773 15.9886 16.2497C16.2363 16.2222 16.4687 16.116 16.6517 15.9467C20.1992 12.6642 24.4317 10.2109 29.0432 8.76394C29.282 8.69103 29.4911 8.54348 29.6399 8.34297C29.7887 8.14246 29.8693 7.89954 29.8699 7.64985V3.65853C29.8705 3.30786 30.01 2.9717 30.258 2.72373C30.506 2.47577 30.8421 2.33622 31.1928 2.33567H46.1328C46.4835 2.33622 46.8197 2.47577 47.0676 2.72373C47.3156 2.9717 47.4552 3.30786 47.4557 3.65853V7.64985C47.4563 7.89954 47.5369 8.14246 47.6857 8.34297C47.8345 8.54348 48.0437 8.69103 48.2825 8.76394C52.9013 10.2071 57.1411 12.6599 60.6946 15.9446C60.8775 16.114 61.1098 16.2204 61.3575 16.2483C61.6052 16.2761 61.8553 16.2241 62.0712 16.0996L65.5417 14.0967C65.8454 13.9214 66.2063 13.8739 66.5451 13.9646C66.8838 14.0553 67.1727 14.2768 67.3482 14.5804L74.8182 27.5196C74.9936 27.8237 75.0412 28.1849 74.9505 28.524C74.8598 28.8631 74.6383 29.1523 74.3345 29.3282L70.8682 31.329C70.6528 31.4535 70.4828 31.6436 70.3831 31.8716C70.2834 32.0995 70.2593 32.3534 70.3143 32.5961C71.3905 37.3134 71.3863 42.213 70.3019 46.9284C70.2464 47.1714 70.2703 47.4257 70.37 47.6542C70.4697 47.8826 70.64 48.073 70.8558 48.1976L74.3345 50.2046C74.6379 50.3808 74.859 50.6702 74.9493 51.0093C75.0396 51.3484 74.9917 51.7094 74.8162 52.0132Z" stroke="url(#paint0_linear_718_24034)" stroke-width="0.5" stroke-miterlimit="10" mask="url(#path-1-inside-1_718_24034)"/>
<path d="M75.5003 48.2058L72.7574 46.6225C73.6772 42.1116 73.6807 37.4618 72.7678 32.9495L75.5003 31.3724C76.3398 30.887 76.9523 30.0881 77.203 29.1513C77.4538 28.2145 77.3224 27.2165 76.8376 26.3765L69.3676 13.4353C69.128 13.0188 68.8086 12.6537 68.4278 12.3608C68.0469 12.0679 67.6121 11.8529 67.1481 11.7282C66.6842 11.6034 66.2001 11.5713 65.7238 11.6337C65.2474 11.696 64.788 11.8517 64.3718 12.0917L61.6372 13.6688C58.1784 10.628 54.1536 8.29951 49.7934 6.81683V3.68124C49.7924 2.71127 49.4065 1.78134 48.7207 1.09547C48.0348 0.409602 47.1049 0.0237992 46.1349 0.0227051H31.1928C30.2232 0.024346 29.2938 0.41039 28.6084 1.0962C27.9229 1.78201 27.5374 2.71163 27.5363 3.68124V6.82303C23.1804 8.31033 19.1605 10.6423 15.7071 13.6854L12.958 12.0917C12.5417 11.8514 12.0821 11.6955 11.6055 11.6329C11.1289 11.5703 10.6447 11.6024 10.1805 11.7272C9.71626 11.8519 9.28121 12.067 8.90021 12.3601C8.51921 12.6532 8.19974 13.0186 7.96009 13.4353L0.490064 26.3765C0.249858 26.7925 0.0939586 27.2517 0.0312726 27.7279C-0.0314134 28.2041 0.00034256 28.688 0.124725 29.152C0.249108 29.6159 0.463682 30.0508 0.756186 30.4318C1.04869 30.8128 1.41339 31.1324 1.82946 31.3724L4.57232 32.9557C3.65322 37.467 3.65322 42.1174 4.57232 46.6287L1.83979 48.2058C1.00034 48.6913 0.387829 49.49 0.136712 50.4267C-0.114405 51.3633 0.0163958 52.3613 0.500399 53.2017L7.96009 66.1429C8.44489 66.9837 9.2437 67.5974 10.1809 67.8494C11.1181 68.1013 12.117 67.9708 12.958 67.4865L15.6905 65.9094C19.15 68.9503 23.1755 71.2787 27.5363 72.7614V75.9032C27.5374 76.8728 27.9229 77.8024 28.6084 78.4882C29.2938 79.174 30.2232 79.56 31.1928 79.5617H46.1349C47.1049 79.5606 48.0348 79.1748 48.7207 78.4889C49.4065 77.803 49.7924 76.8731 49.7934 75.9032V72.7614C54.149 71.2745 58.1682 68.9425 61.6206 65.899L64.3718 67.4865C65.2118 67.9706 66.2097 68.1018 67.1463 67.851C68.0829 67.6003 68.8818 66.9882 69.3676 66.1491L76.8397 53.2078C77.3251 52.3669 77.4567 51.3675 77.2056 50.4295C76.9544 49.4916 76.341 48.6917 75.5003 48.2058ZM74.8162 52.0359L67.3461 64.9751C67.1706 65.2787 66.8817 65.5002 66.543 65.5909C66.2042 65.6816 65.8433 65.6341 65.5396 65.4588L62.0547 63.4476C61.839 63.3226 61.589 63.2699 61.3412 63.2975C61.0935 63.325 60.861 63.4312 60.6781 63.6006C57.1283 66.8873 52.8922 69.3436 48.2763 70.7915C48.0373 70.8642 47.828 71.0116 47.6791 71.2122C47.5303 71.4128 47.4498 71.6559 47.4495 71.9056V75.897C47.449 76.2476 47.3094 76.5838 47.0614 76.8317C46.8135 77.0797 46.4773 77.2193 46.1266 77.2198H31.1928C30.8421 77.2193 30.506 77.0797 30.258 76.8317C30.01 76.5838 29.8705 76.2476 29.8699 75.897V71.9056C29.8697 71.6559 29.7892 71.4128 29.6403 71.2122C29.4915 71.0116 29.2821 70.8642 29.0432 70.7915C24.4281 69.3468 20.192 66.8941 16.6413 63.6109C16.4593 63.4408 16.2273 63.3339 15.9797 63.306C15.7322 63.2781 15.4822 63.3306 15.2668 63.4559L11.7964 65.4588C11.4926 65.6341 11.1317 65.6816 10.793 65.5909C10.4542 65.5002 10.1654 65.2787 9.98985 64.9751L2.51776 52.0359C2.34275 51.732 2.29516 51.3711 2.38541 51.0322C2.47565 50.6933 2.69638 50.4039 2.99936 50.2273L6.46567 48.2265C6.68113 48.102 6.85113 47.9119 6.9508 47.6839C7.05047 47.456 7.07458 47.2021 7.01961 46.9594C5.94338 42.2421 5.94762 37.3425 7.03202 32.6271C7.0868 32.3841 7.06261 32.13 6.96298 31.9017C6.86335 31.6735 6.69347 31.483 6.47807 31.3579L2.99936 29.3509C2.69568 29.175 2.47407 28.8859 2.38304 28.5469C2.292 28.208 2.33896 27.8467 2.51363 27.5423L9.98571 14.6031C10.0724 14.4526 10.188 14.3206 10.3257 14.2148C10.4635 14.109 10.6208 14.0314 10.7886 13.9865C10.9564 13.9415 11.1315 13.9302 11.3037 13.953C11.4759 13.9758 11.6419 14.0324 11.7922 14.1194L15.2771 16.1306C15.4928 16.2556 15.7429 16.3082 15.9906 16.2807C16.2384 16.2532 16.4708 16.147 16.6538 15.9776C20.1997 12.6917 24.4315 10.2349 29.0432 8.78458C29.282 8.71166 29.4911 8.56412 29.6399 8.36361C29.7887 8.1631 29.8693 7.92018 29.8699 7.67049V3.68124C29.8705 3.33056 30.01 2.9944 30.258 2.74644C30.506 2.49847 30.8421 2.35893 31.1928 2.35838H46.1328C46.4835 2.35893 46.8197 2.49847 47.0676 2.74644C47.3156 2.9944 47.4552 3.33056 47.4557 3.68124V7.67255C47.4563 7.92225 47.5369 8.16517 47.6857 8.36568C47.8345 8.56619 48.0437 8.71373 48.2825 8.78665C52.9013 10.2298 57.1411 12.6826 60.6946 15.9673C60.8775 16.1367 61.1098 16.2431 61.3575 16.271C61.6052 16.2989 61.8553 16.2468 62.0712 16.1223L65.5417 14.1194C65.8454 13.9441 66.2063 13.8966 66.5451 13.9873C66.8838 14.078 67.1727 14.2995 67.3482 14.6031L74.8182 27.5423C74.9936 27.8464 75.0412 28.2076 74.9505 28.5467C74.8598 28.8858 74.6383 29.175 74.3345 29.3509L70.8682 31.3517C70.6528 31.4762 70.4828 31.6663 70.3831 31.8943C70.2834 32.1222 70.2593 32.3761 70.3143 32.6188C71.3905 37.3361 71.3863 42.2357 70.3019 46.9511C70.2464 47.1941 70.2703 47.4485 70.37 47.6769C70.4697 47.9053 70.64 48.0957 70.8558 48.2203L74.3345 50.2273C74.6379 50.4035 74.859 50.6929 74.9493 51.032C75.0396 51.3711 74.9917 51.7321 74.8162 52.0359Z" fill="url(#paint1_linear_718_24034)"/>
<path d="M39.3779 16.625C34.6312 16.625 29.991 18.0326 26.0443 20.6697C22.0975 23.3069 19.0213 27.0552 17.2048 31.4406C15.3883 35.826 14.913 40.6516 15.8391 45.3072C16.7651 49.9627 19.0509 54.2391 22.4074 57.5956C25.7638 60.952 30.0402 63.2378 34.6958 64.1638C39.3513 65.0899 44.1769 64.6146 48.5623 62.7981C52.9478 60.9816 56.696 57.9055 59.3332 53.9587C61.9704 50.0119 63.3779 45.3717 63.3779 40.625C63.3707 34.262 60.8398 28.1617 56.3405 23.6624C51.8412 19.1631 45.7409 16.6322 39.3779 16.625ZM39.3779 62.2477C35.1014 62.2477 30.9208 60.9796 27.365 58.6036C23.8092 56.2277 21.0377 52.8507 19.4011 48.8997C17.7646 44.9486 17.3364 40.601 18.1707 36.4066C19.005 32.2122 21.0644 28.3594 24.0884 25.3354C27.1124 22.3114 30.9652 20.2521 35.1596 19.4178C39.3539 18.5834 43.7016 19.0116 47.6526 20.6482C51.6036 22.2848 54.9806 25.0562 57.3566 28.6121C59.7325 32.1679 61.0006 36.3484 61.0006 40.625C60.9945 46.3578 58.7145 51.8541 54.6607 55.9078C50.607 59.9615 45.1108 62.2416 39.3779 62.2477Z" fill="url(#paint2_linear_718_24034)"/>
<path d="M39.3843 62.3727H39.3844C45.1494 62.3649 50.676 60.071 54.7521 55.9941C58.8282 51.9172 61.121 46.3902 61.1278 40.6251V40.625C61.1278 36.3235 59.8522 32.1187 57.4623 28.5422C55.0724 24.9657 51.6757 22.1782 47.7016 20.5323C43.7274 18.8864 39.3545 18.456 35.1357 19.2955C30.917 20.1349 27.0419 22.2066 24.0006 25.2485C20.9593 28.2904 18.8883 32.1659 18.0497 36.3848C17.211 40.6037 17.6423 44.9766 19.289 48.9504C20.9357 52.9242 23.7238 56.3205 27.3007 58.7096C30.8777 61.0988 35.0828 62.3735 39.3843 62.3727ZM26.1183 20.7706C30.0453 18.148 34.6619 16.7488 39.3841 16.75C45.7129 16.7589 51.7798 19.2773 56.2543 23.753C60.7289 28.2288 63.2457 34.2964 63.2529 40.6251C63.2529 45.3474 61.8525 49.9636 59.2288 53.8899C56.6051 57.8162 52.876 60.8764 48.5131 62.6832C44.1501 64.4901 39.3493 64.9625 34.7178 64.0408C30.0864 63.119 25.8323 60.8446 22.4935 57.5049C19.1548 54.1653 16.8814 49.9106 15.9609 45.2789C15.0404 40.6472 15.5141 35.8466 17.3221 31.4841C19.1301 27.1216 22.1912 23.3933 26.1183 20.7706Z" stroke="url(#paint3_linear_718_24034)" stroke-width="0.25" stroke-miterlimit="10"/>
<path d="M43.0223 33.6419H38.6651C38.3558 33.6419 38.0591 33.7647 37.8401 33.9832C37.6211 34.2018 37.4979 34.4983 37.4973 34.8077V44.7705C37.4973 45.0802 37.6204 45.3772 37.8394 45.5962C38.0584 45.8153 38.3554 45.9383 38.6651 45.9383C38.9749 45.9383 39.2719 45.8153 39.4909 45.5962C39.71 45.3772 39.833 45.0802 39.833 44.7705V42.2012H43.0223C43.5922 42.2137 44.1589 42.1123 44.6891 41.9029C45.2193 41.6934 45.7023 41.3802 46.1098 40.9815C46.5173 40.5829 46.8411 40.1069 47.0622 39.5814C47.2832 39.0559 47.3971 38.4916 47.3971 37.9216C47.3971 37.3515 47.2832 36.7872 47.0622 36.2617C46.8411 35.7362 46.5173 35.2602 46.1098 34.8616C45.7023 34.4629 45.2193 34.1497 44.6891 33.9403C44.1589 33.7308 43.5922 33.6294 43.0223 33.6419ZM43.0223 39.8676H39.833V35.9755H43.0223C43.5275 35.992 44.0064 36.2042 44.3579 36.5674C44.7094 36.9305 44.906 37.4161 44.906 37.9216C44.906 38.427 44.7094 38.9126 44.3579 39.2757C44.0064 39.6389 43.5275 39.8511 43.0223 39.8676Z" fill="url(#paint4_linear_718_24034)"/>
<path d="M32.2864 34.3984C32.2029 34.1758 32.0535 33.9841 31.8581 33.8489C31.6627 33.7137 31.4306 33.6415 31.1929 33.6418H29.9528C29.7153 33.6421 29.4835 33.7145 29.2881 33.8497C29.0928 33.9848 28.9433 34.1762 28.8593 34.3984L25.1161 44.3591C25.0064 44.6491 25.0165 44.9707 25.144 45.2533C25.2715 45.5359 25.5061 45.7563 25.7961 45.8659C26.0861 45.9755 26.4078 45.9655 26.6903 45.8379C26.9729 45.7104 27.1933 45.4759 27.3029 45.1859L27.9519 43.4537H33.1772L33.8283 45.1859C33.9118 45.4084 34.0612 45.6001 34.2566 45.7353C34.452 45.8705 34.6841 45.9427 34.9218 45.9424C35.063 45.9435 35.2032 45.9183 35.3352 45.868C35.4787 45.8142 35.6102 45.7327 35.7222 45.628C35.8342 45.5234 35.9245 45.3977 35.9878 45.2581C36.0512 45.1185 36.0864 44.9678 36.0915 44.8146C36.0965 44.6614 36.0713 44.5087 36.0173 44.3653L32.2864 34.3984ZM28.8366 41.1119L30.5708 36.4819L32.3112 41.1201L28.8366 41.1119Z" fill="url(#paint5_linear_718_24034)"/>
<path d="M49.8704 33.6418C49.5613 33.6424 49.2651 33.7654 49.0466 33.9839C48.8281 34.2024 48.7051 34.4986 48.7046 34.8076V44.7704C48.7173 45.0714 48.8457 45.3558 49.0632 45.5643C49.2806 45.7727 49.5702 45.8891 49.8714 45.8891C50.1726 45.8891 50.4622 45.7727 50.6796 45.5643C50.8971 45.3558 51.0255 45.0714 51.0382 44.7704V34.8076C51.0377 34.4982 50.9144 34.2017 50.6954 33.9832C50.4765 33.7646 50.1797 33.6418 49.8704 33.6418Z" fill="url(#paint6_linear_718_24034)"/>
<path d="M47.0261 13.6108C47.8363 13.8692 48.6424 14.1689 49.4258 14.5017C49.5702 14.5635 49.7256 14.5952 49.8826 14.5947C50.1518 14.5945 50.4126 14.5012 50.6207 14.3306C50.8289 14.16 50.9716 13.9227 51.0247 13.6588C51.0778 13.3949 51.0379 13.1208 50.9119 12.883C50.7858 12.6452 50.5814 12.4584 50.3332 12.3541C49.4837 11.9924 48.6073 11.6658 47.7288 11.3868C47.5804 11.3312 47.4222 11.3063 47.2638 11.3138C47.1055 11.3213 46.9503 11.3609 46.8078 11.4303C46.6652 11.4997 46.5383 11.5974 46.4348 11.7174C46.3312 11.8374 46.2532 11.9773 46.2054 12.1285C46.1576 12.2796 46.1411 12.4389 46.1569 12.5967C46.1727 12.7544 46.2205 12.9073 46.2973 13.046C46.374 13.1847 46.4782 13.3063 46.6035 13.4034C46.7288 13.5005 46.8726 13.5711 47.0261 13.6108Z" fill="url(#paint7_linear_718_24034)"/>
<path d="M14.4228 52.9855L14.4228 52.9856L14.424 52.9877C14.8801 53.8066 15.3678 54.6162 15.8976 55.3891L15.8976 55.3891L15.9004 55.393C15.9841 55.5055 16.0442 55.6338 16.0772 55.7701C16.1101 55.9065 16.1152 56.0481 16.0922 56.1864C16.0691 56.3248 16.0184 56.4571 15.9431 56.5754C15.8677 56.6937 15.7693 56.7955 15.6536 56.8749C15.538 56.9543 15.4075 57.0095 15.2701 57.0373C15.1326 57.0651 14.9909 57.0648 14.8535 57.0366C14.7161 57.0083 14.5858 56.9527 14.4705 56.8729C14.3551 56.7932 14.257 56.6909 14.1821 56.5724L14.1821 56.5723L14.1795 56.5685C13.6075 55.7345 13.0778 54.8723 12.5924 53.9851L12.5924 53.9851L12.5918 53.9841C12.5245 53.8637 12.4817 53.7312 12.4659 53.5942C12.4501 53.4572 12.4616 53.3184 12.4998 53.1859C12.538 53.0534 12.6021 52.9298 12.6884 52.8222C12.7747 52.7146 12.8814 52.6252 13.0025 52.5592C13.1236 52.4932 13.2566 52.4518 13.3937 52.4375C13.5309 52.4232 13.6696 52.4363 13.8016 52.4759C13.9337 52.5156 14.0567 52.581 14.1633 52.6685C14.2699 52.756 14.3581 52.8637 14.4228 52.9855Z" fill="url(#paint8_linear_718_24034)" stroke="url(#paint9_linear_718_24034)" stroke-width="0.25"/>
<path d="M36.2776 67.158C29.9944 66.6067 24.0919 63.9116 19.56 59.5246C19.4512 59.412 19.3209 59.3224 19.1767 59.2612C19.0326 59.2 18.8776 59.1683 18.721 59.1682C18.5644 59.1681 18.4094 59.1995 18.2652 59.2605C18.1209 59.3215 17.9905 59.4108 17.8815 59.5233C17.7725 59.6357 17.6872 59.769 17.6308 59.915C17.5743 60.0611 17.5478 60.217 17.5528 60.3735C17.5579 60.5301 17.5943 60.684 17.66 60.8261C17.7258 60.9683 17.8194 61.0957 17.9354 61.201C22.8523 65.9591 29.255 68.8832 36.0709 69.4833H36.1722C36.4699 69.4783 36.7545 69.3599 36.9678 69.152C37.1811 68.9442 37.3069 68.6628 37.3196 68.3653C37.3323 68.0678 37.2308 67.7767 37.036 67.5515C36.8412 67.3263 36.5677 67.1841 36.2714 67.1538L36.2776 67.158Z" fill="url(#paint10_linear_718_24034)"/>
<path d="M36.4845 67.2116C30.2006 66.6608 24.2972 63.9657 19.7648 59.5783C19.5404 59.3747 19.2455 59.2663 18.9426 59.276C18.6397 59.2857 18.3524 59.4128 18.1415 59.6305C17.9306 59.8481 17.8125 60.1392 17.8123 60.4423C17.812 60.7454 17.9296 61.0367 18.1402 61.2546C23.0577 66.0132 29.4612 68.9373 36.2778 69.537C36.3115 69.5391 36.3454 69.5391 36.3791 69.537C36.6768 69.532 36.9614 69.4135 37.1747 69.2057C37.388 68.9979 37.5138 68.7165 37.5265 68.419C37.5391 68.1215 37.4377 67.8304 37.2429 67.6052C37.048 67.38 36.7745 67.2377 36.4783 67.2075L36.4845 67.2116Z" stroke="url(#paint11_linear_718_24034)" stroke-width="0.25" stroke-miterlimit="10"/>
<path d="M55.4633 15.1651C55.2077 15.0016 54.8985 14.9439 54.6011 15.0044C54.3037 15.0649 54.0416 15.2387 53.8702 15.4891C53.6988 15.7395 53.6316 16.0468 53.6828 16.3459C53.734 16.645 53.8996 16.9124 54.1446 17.0915C59.5597 20.786 63.477 26.2932 65.1904 32.6206C65.2572 32.8684 65.4037 33.0873 65.6073 33.2435C65.8109 33.3996 66.0603 33.4844 66.3169 33.4846C66.4202 33.4847 66.523 33.4715 66.6228 33.4454C66.9224 33.365 67.1777 33.1689 67.3327 32.9003C67.4878 32.6317 67.5298 32.3125 67.4496 32.013C65.5892 25.1482 61.3385 19.1735 55.4633 15.1651Z" fill="url(#paint12_linear_718_24034)"/>
<path d="M47.0641 13.4629L47.0641 13.4628L47.0574 13.461C46.9204 13.4255 46.792 13.3625 46.6801 13.2758C46.5682 13.1891 46.4752 13.0805 46.4066 12.9566C46.338 12.8328 46.2954 12.6963 46.2813 12.5554C46.2672 12.4146 46.2819 12.2723 46.3246 12.1373C46.3672 12.0023 46.4369 11.8775 46.5294 11.7703C46.6219 11.6631 46.7352 11.5759 46.8625 11.5139C46.9898 11.4519 47.1283 11.4165 47.2697 11.4099C47.4111 11.4032 47.5524 11.4253 47.685 11.475L47.6849 11.4752L47.6907 11.477C48.5656 11.757 49.4384 12.0802 50.2843 12.4403L50.2843 12.4404C50.5052 12.5342 50.687 12.7014 50.7989 12.9136C50.9109 13.1259 50.9462 13.3703 50.8989 13.6056C50.8517 13.8409 50.7247 14.0527 50.5394 14.2052C50.3543 14.3577 50.1222 14.4416 49.8824 14.443C49.7424 14.4427 49.604 14.4139 49.4755 14.3582L49.4748 14.3579C48.6898 14.0236 47.878 13.7225 47.0641 13.4629Z" stroke="url(#paint13_linear_718_24034)" stroke-width="0.25" stroke-miterlimit="10"/>
<path d="M55.3988 15.2397L55.3989 15.2398C61.2507 19.2311 65.4838 25.1819 67.335 32.0191C67.3704 32.1513 67.3794 32.2892 67.3614 32.4249C67.3435 32.5608 67.299 32.6917 67.2304 32.8103C67.1619 32.929 67.0706 33.0329 66.9619 33.1162C66.8531 33.1996 66.729 33.2606 66.5966 33.296L66.5965 33.296C66.5071 33.32 66.4151 33.3325 66.3226 33.3331C66.0936 33.3328 65.8711 33.2571 65.6894 33.1177C65.5076 32.9783 65.3768 32.7828 65.3172 32.5616L65.3171 32.5615C63.5967 26.2049 59.6614 20.6723 54.221 16.9617C54.108 16.8844 54.0113 16.7856 53.9365 16.6709C53.8616 16.5562 53.81 16.4279 53.7848 16.2933C53.7595 16.1586 53.761 16.0203 53.7891 15.8863C53.8173 15.7522 53.8716 15.625 53.9489 15.5119C54.0262 15.3989 54.1251 15.3021 54.2398 15.2272C54.3545 15.1524 54.4828 15.1008 54.6175 15.0755C54.7521 15.0503 54.8904 15.0517 55.0244 15.0799C55.1585 15.1081 55.2857 15.1624 55.3988 15.2397Z" stroke="url(#paint14_linear_718_24034)" stroke-width="0.25" stroke-miterlimit="10"/>
<path d="M10.7466 12.2198C15.3477 12.2198 19.0786 11.8374 19.0786 11.3682C19.0786 10.899 15.358 10.5166 10.7466 10.5166C6.13522 10.5166 2.41675 10.899 2.41675 11.3682C2.41675 11.8374 6.14556 12.2198 10.7466 12.2198Z" fill="url(#paint15_radial_718_24034)"/>
<path d="M11.6953 11.3642C11.6953 15.8661 11.2695 19.5184 10.7424 19.5184C10.2154 19.5184 9.79163 15.8661 9.79163 11.3642C9.79163 6.86239 10.2174 3.20386 10.7424 3.20386C11.2674 3.20386 11.6953 6.86239 11.6953 11.3642Z" fill="url(#paint16_radial_718_24034)"/>
<path d="M50.4901 73.0672C54.8576 73.0672 58.3983 72.7055 58.3983 72.259C58.3983 71.8125 54.8576 71.4529 50.4901 71.4529C46.1226 71.4529 42.584 71.8125 42.584 72.259C42.584 72.7055 46.1247 73.0672 50.4901 73.0672Z" fill="url(#paint17_radial_718_24034)"/>
<path d="M51.3891 72.2592C51.3891 76.5337 50.986 80 50.4879 80C49.9897 80 49.5846 76.5337 49.5846 72.2592C49.5846 67.9847 49.9877 64.5205 50.4879 64.5205C50.9881 64.5205 51.3891 67.9868 51.3891 72.2592Z" fill="url(#paint18_radial_718_24034)"/>
<defs>
<linearGradient id="paint0_linear_718_24034" x1="19.333" y1="15.7409" x2="72.1631" y2="61.4906" gradientUnits="userSpaceOnUse">
<stop stop-color="#F0EFEF" stop-opacity="0"/>
<stop offset="0.614562" stop-color="#FAFBFC" stop-opacity="0.4"/>
<stop offset="0.848709" stop-color="white" stop-opacity="0.5"/>
<stop offset="1" stop-color="white" stop-opacity="0.9"/>
</linearGradient>
<linearGradient id="paint1_linear_718_24034" x1="67.3296" y1="56.9119" x2="-6.6079" y2="12.7408" gradientUnits="userSpaceOnUse">
<stop stop-color="white" stop-opacity="0.9"/>
<stop offset="0.28" stop-color="white" stop-opacity="0.5"/>
<stop offset="0.65" stop-color="#FAFBFC" stop-opacity="0.4"/>
<stop offset="1" stop-color="#F0EFEF" stop-opacity="0.3"/>
</linearGradient>
<linearGradient id="paint2_linear_718_24034" x1="55.7538" y1="56.5275" x2="22.3709" y2="24.1103" gradientUnits="userSpaceOnUse">
<stop stop-color="white" stop-opacity="0.9"/>
<stop offset="0.04" stop-color="white" stop-opacity="0.85"/>
<stop offset="0.28" stop-color="white" stop-opacity="0.5"/>
<stop offset="0.65" stop-color="#FAFBFC" stop-opacity="0.4"/>
<stop offset="1" stop-color="#F0EFEF" stop-opacity="0.3"/>
</linearGradient>
<linearGradient id="paint3_linear_718_24034" x1="27.3779" y1="26.125" x2="59.3779" y2="54.625" gradientUnits="userSpaceOnUse">
<stop stop-color="#F0EFEF" stop-opacity="0"/>
<stop offset="0.614562" stop-color="#FAFBFC" stop-opacity="0.4"/>
<stop offset="0.848709" stop-color="white" stop-opacity="0.5"/>
<stop offset="1" stop-color="white" stop-opacity="0.9"/>
</linearGradient>
<linearGradient id="paint4_linear_718_24034" x1="42.4002" y1="45.9362" x2="42.4002" y2="33.6419" gradientUnits="userSpaceOnUse">
<stop stop-color="#79A540"/>
<stop offset="0.2" stop-color="#94C63D"/>
<stop offset="0.39" stop-color="#98CA3C"/>
<stop offset="0.59" stop-color="#93C53E"/>
<stop offset="0.74" stop-color="#9DCB3B"/>
<stop offset="0.9" stop-color="#A6CE39"/>
<stop offset="1" stop-color="#A6CE39"/>
</linearGradient>
<linearGradient id="paint5_linear_718_24034" x1="30.5708" y1="45.9382" x2="30.5708" y2="33.6418" gradientUnits="userSpaceOnUse">
<stop stop-color="#79A540"/>
<stop offset="0.2" stop-color="#94C63D"/>
<stop offset="0.39" stop-color="#98CA3C"/>
<stop offset="0.59" stop-color="#93C53E"/>
<stop offset="0.74" stop-color="#9DCB3B"/>
<stop offset="0.9" stop-color="#A6CE39"/>
<stop offset="1" stop-color="#A6CE39"/>
</linearGradient>
<linearGradient id="paint6_linear_718_24034" x1="49.8704" y1="45.9362" x2="49.8704" y2="33.6418" gradientUnits="userSpaceOnUse">
<stop stop-color="#79A540"/>
<stop offset="0.2" stop-color="#94C63D"/>
<stop offset="0.39" stop-color="#98CA3C"/>
<stop offset="0.59" stop-color="#93C53E"/>
<stop offset="0.74" stop-color="#9DCB3B"/>
<stop offset="0.9" stop-color="#A6CE39"/>
<stop offset="1" stop-color="#A6CE39"/>
</linearGradient>
<linearGradient id="paint7_linear_718_24034" x1="46.2014" y1="12.9618" x2="51.0401" y2="12.9618" gradientUnits="userSpaceOnUse">
<stop stop-color="white" stop-opacity="0.9"/>
<stop offset="0.04" stop-color="white" stop-opacity="0.85"/>
<stop offset="0.28" stop-color="white" stop-opacity="0.5"/>
<stop offset="0.65" stop-color="#FAFBFC" stop-opacity="0.4"/>
<stop offset="1" stop-color="#F0EFEF" stop-opacity="0.3"/>
</linearGradient>
<linearGradient id="paint8_linear_718_24034" x1="12.3401" y1="54.7314" x2="16.2074" y2="54.7314" gradientUnits="userSpaceOnUse">
<stop stop-color="white" stop-opacity="0.9"/>
<stop offset="0.04" stop-color="white" stop-opacity="0.85"/>
<stop offset="0.28" stop-color="white" stop-opacity="0.5"/>
<stop offset="0.65" stop-color="#FAFBFC" stop-opacity="0.4"/>
<stop offset="1" stop-color="#F0EFEF" stop-opacity="0.3"/>
</linearGradient>
<linearGradient id="paint9_linear_718_24034" x1="14.6032" y1="54.855" x2="16.1186" y2="55.8412" gradientUnits="userSpaceOnUse">
<stop stop-color="#F0EFEF" stop-opacity="0"/>
<stop offset="0.614562" stop-color="#FAFBFC" stop-opacity="0.4"/>
<stop offset="0.848709" stop-color="white" stop-opacity="0.5"/>
<stop offset="1" stop-color="white" stop-opacity="0.9"/>
</linearGradient>
<linearGradient id="paint10_linear_718_24034" x1="17.5757" y1="64.3407" x2="37.3421" y2="64.3407" gradientUnits="userSpaceOnUse">
<stop stop-color="white" stop-opacity="0.9"/>
<stop offset="0.04" stop-color="white" stop-opacity="0.85"/>
<stop offset="0.28" stop-color="white" stop-opacity="0.5"/>
<stop offset="0.65" stop-color="#FAFBFC" stop-opacity="0.4"/>
<stop offset="1" stop-color="#F0EFEF" stop-opacity="0.3"/>
</linearGradient>
<linearGradient id="paint11_linear_718_24034" x1="22.7411" y1="61.3066" x2="28.7428" y2="71.5748" gradientUnits="userSpaceOnUse">
<stop stop-color="#F0EFEF" stop-opacity="0"/>
<stop offset="0.614562" stop-color="#FAFBFC" stop-opacity="0.4"/>
<stop offset="0.848709" stop-color="white" stop-opacity="0.5"/>
<stop offset="1" stop-color="white" stop-opacity="0.9"/>
</linearGradient>
<linearGradient id="paint12_linear_718_24034" x1="53.6361" y1="24.2226" x2="67.4848" y2="24.2226" gradientUnits="userSpaceOnUse">
<stop stop-color="white" stop-opacity="0.9"/>
<stop offset="0.04" stop-color="white" stop-opacity="0.85"/>
<stop offset="0.28" stop-color="white" stop-opacity="0.5"/>
<stop offset="0.65" stop-color="#FAFBFC" stop-opacity="0.4"/>
<stop offset="1" stop-color="#F0EFEF" stop-opacity="0.3"/>
</linearGradient>
<linearGradient id="paint13_linear_718_24034" x1="49.0002" y1="13" x2="50.0961" y2="14.3293" gradientUnits="userSpaceOnUse">
<stop stop-color="#F0EFEF" stop-opacity="0"/>
<stop offset="0.614562" stop-color="#FAFBFC" stop-opacity="0.4"/>
<stop offset="0.848709" stop-color="white" stop-opacity="0.5"/>
<stop offset="1" stop-color="white" stop-opacity="0.9"/>
</linearGradient>
<linearGradient id="paint14_linear_718_24034" x1="57.1052" y1="18.5991" x2="68.5778" y2="26.2401" gradientUnits="userSpaceOnUse">
<stop stop-color="#F0EFEF" stop-opacity="0"/>
<stop offset="0.614562" stop-color="#FAFBFC" stop-opacity="0.4"/>
<stop offset="0.848709" stop-color="white" stop-opacity="0.5"/>
<stop offset="1" stop-color="white" stop-opacity="0.9"/>
</linearGradient>
<radialGradient id="paint15_radial_718_24034" cx="0" cy="0" r="1" gradientUnits="userSpaceOnUse" gradientTransform="translate(9.93241 11.6456) rotate(90) scale(0.845308 8.3298)">
<stop stop-color="white"/>
<stop offset="0.07" stop-color="white" stop-opacity="0.93"/>
<stop offset="1" stop-color="white" stop-opacity="0"/>
</radialGradient>
<radialGradient id="paint16_radial_718_24034" cx="0" cy="0" r="1" gradientUnits="userSpaceOnUse" gradientTransform="translate(10.7588 11.7465) scale(0.953203 8.17283)">
<stop stop-color="white"/>
<stop offset="0.07" stop-color="white" stop-opacity="0.93"/>
<stop offset="1" stop-color="white" stop-opacity="0"/>
</radialGradient>
<radialGradient id="paint17_radial_718_24034" cx="0" cy="0" r="1" gradientUnits="userSpaceOnUse" gradientTransform="translate(49.6565 72.3073) rotate(90) scale(0.801652 7.89962)">
<stop stop-color="white"/>
<stop offset="0.07" stop-color="white" stop-opacity="0.93"/>
<stop offset="1" stop-color="white" stop-opacity="0"/>
</radialGradient>
<radialGradient id="paint18_radial_718_24034" cx="0" cy="0" r="1" gradientUnits="userSpaceOnUse" gradientTransform="translate(50.5982 72.647) scale(0.90409 7.75175)">
<stop stop-color="white"/>
<stop offset="0.07" stop-color="white" stop-opacity="0.93"/>
<stop offset="1" stop-color="white" stop-opacity="0"/>
</radialGradient>
</defs>
</svg>
