<svg width="88" height="81" viewBox="0 0 88 81" fill="none" xmlns="http://www.w3.org/2000/svg">
<path fill-rule="evenodd" clip-rule="evenodd" d="M51.4974 20.3023C51.5008 20.3031 51.5038 20.3049 51.5063 20.3073C52.2879 21.0752 52.7342 22.121 52.7479 23.2168C52.7616 24.3143 52.3401 25.3725 51.5757 26.1601L51.4301 26.3057C51.0371 26.6987 51.04 27.3367 51.4365 27.7262L56.8946 33.0874C57.2963 33.482 57.2932 34.1304 56.8876 34.5211L40.8535 49.9665C40.456 50.3493 39.8236 50.3379 39.4403 49.9409L34.1048 44.4152C33.7163 44.0128 33.0734 44.0074 32.678 44.403L7.15674 69.9472C6.36929 70.7105 5.31191 71.1316 4.21525 71.1183C3.11859 71.1051 2.07165 70.6588 1.30281 69.8767C0.518915 69.1084 0.0711532 68.061 0.0574528 66.9635C0.0437523 65.866 0.465228 64.8077 1.2297 64.0201L26.8792 38.3605C27.2642 37.9753 27.2702 37.3528 26.8926 36.9602L22.9713 32.8836C22.5963 32.4938 22.5992 31.8766 22.9778 31.4903L38.1231 16.0388C38.5098 15.6443 39.1432 15.6381 39.5375 16.0249L44.0366 20.4386C44.4277 20.8224 45.0549 20.8198 45.4429 20.4329L45.6512 20.2252C46.4365 19.4621 47.4924 19.0415 48.5873 19.0557C49.6804 19.0698 50.7234 19.5162 51.4883 20.297C51.4908 20.2996 51.4939 20.3014 51.4974 20.3023ZM38.1106 7.2484C38.7343 7.85933 39.0906 8.69253 39.1014 9.56558C39.1121 10.4386 38.7765 11.2804 38.168 11.9065L18.8829 31.189C18.2572 31.7973 17.4159 32.1329 16.5433 32.1221C15.6707 32.1114 14.8379 31.7552 14.2274 31.1315C13.6036 30.5206 13.2474 29.6874 13.2366 28.8144C13.2258 27.9413 13.5615 27.0996 14.17 26.4734L33.4525 7.19096C34.0786 6.58244 34.9203 6.24681 35.7934 6.25758C36.6664 6.26834 37.4996 6.62462 38.1106 7.2484ZM65.5264 34.6643C66.1502 35.2752 66.5065 36.1084 66.5172 36.9814C66.528 37.8545 66.1924 38.6962 65.5838 39.3223L46.2988 58.6048C45.6727 59.2131 44.8312 59.5487 43.9584 59.5384C43.0856 59.5282 42.2523 59.1728 41.6407 58.55C41.0179 57.9384 40.6625 57.1051 40.6522 56.2323C40.642 55.3594 40.9776 54.518 41.5858 53.8919L60.8683 34.6068C61.4944 33.9983 62.3362 33.6627 63.2092 33.6734C64.0823 33.6842 64.9155 34.0405 65.5264 34.6643Z" fill="url(#paint0_linear_735_3235)"/>
<path d="M1.33484 69.8009L1.33317 69.7993C0.572882 69.0542 0.138602 68.0383 0.125314 66.9738C0.11203 65.9097 0.520579 64.8835 1.26163 64.1197C1.26184 64.1195 1.26205 64.1193 1.26226 64.1191L26.9105 38.4607C27.3436 38.0274 27.3504 37.3271 26.9256 36.8855L23.0042 32.8088C22.6762 32.4678 22.6787 31.9277 23.01 31.5897L38.1552 16.1382C38.4936 15.793 39.0478 15.7875 39.3929 16.1261L43.8919 20.5398C44.332 20.9715 45.0375 20.9686 45.4741 20.5333L45.6812 20.3268C45.6814 20.3266 45.6816 20.3264 45.6818 20.3262C46.4436 19.5868 47.4675 19.1796 48.5291 19.1938C49.5891 19.208 50.6004 19.6414 51.3418 20.399C51.3516 20.409 51.3629 20.4176 51.3752 20.4244C52.1246 21.1675 52.5524 22.1756 52.5656 23.2315C52.5788 24.2954 52.1703 25.3211 51.4292 26.0845C51.4291 26.0847 51.429 26.0848 51.4288 26.0849L51.2732 26.243C50.8367 26.686 50.8426 27.3992 51.2863 27.835L56.7499 33.2016C57.1014 33.5468 57.0986 34.1141 56.7438 34.456L40.7096 49.9014C40.3619 50.2364 39.8085 50.2264 39.4731 49.879L34.1375 44.3531C33.7005 43.9006 32.9773 43.8943 32.5325 44.3392L7.01261 69.8693C7.01235 69.8696 7.01209 69.8698 7.01183 69.8701C6.24815 70.61 5.22292 71.018 4.15962 71.0052C3.09597 70.9924 2.08053 70.5595 1.33484 69.8009ZM14.2596 31.0586L14.2578 31.0567C13.6576 30.4689 13.3148 29.6673 13.3045 28.8273C13.2941 27.9876 13.6168 27.178 14.2019 26.5757C14.2021 26.5755 14.2023 26.5753 14.2025 26.5751L33.4825 7.28988C33.4827 7.28965 33.4829 7.28943 33.4831 7.28921C34.0855 6.70415 34.895 6.38149 35.7347 6.39184C36.5667 6.4021 37.3611 6.73851 37.9473 7.32813C37.953 7.3375 37.9598 7.3462 37.9678 7.35399C38.5668 7.94161 38.9089 8.74249 38.9193 9.58162C38.9296 10.4213 38.6069 11.2309 38.0219 11.8332C38.0217 11.8334 38.0214 11.8336 38.0212 11.8339L18.7386 31.1139C18.7384 31.1141 18.7382 31.1143 18.738 31.1144C18.1361 31.6994 17.327 32.022 16.4877 32.0116C15.6482 32.0013 14.847 31.6586 14.2596 31.0586ZM65.3834 34.7696L65.3836 34.7699C65.9827 35.3575 66.3248 36.1583 66.3351 36.9975C66.3455 37.8372 66.0228 38.6468 65.4376 39.2492C65.4374 39.2494 65.4373 39.2495 65.4371 39.2497L46.1545 58.5297C46.1544 58.5298 46.1542 58.53 46.154 58.5302C45.5516 59.1151 44.7423 59.4378 43.9027 59.4279C43.0629 59.4181 42.2612 59.0761 41.6727 58.4769L41.6711 58.4753C41.0719 57.8868 40.73 57.0851 40.7201 56.2453C40.7102 55.4058 41.0329 54.5965 41.6177 53.9942C41.6179 53.9939 41.6182 53.9937 41.6184 53.9935L60.8983 34.7057C60.8985 34.7055 60.8987 34.7053 60.8989 34.7051C61.5013 34.12 62.3109 33.7973 63.1506 33.8077C63.9826 33.818 64.777 34.1544 65.3632 34.744C65.3688 34.7533 65.3756 34.7619 65.3834 34.7696Z" stroke="url(#paint1_linear_735_3235)" stroke-width="0.25" stroke-miterlimit="10"/>
<path d="M35.927 6.92267C39.3883 6.92267 42.1943 6.62976 42.1943 6.26991C42.1943 5.91006 39.3883 5.61548 35.927 5.61548C32.4658 5.61548 29.6614 5.90838 29.6614 6.26991C29.6614 6.63144 32.4674 6.92267 35.927 6.92267Z" fill="url(#paint2_radial_735_3235)"/>
<path d="M36.6399 6.26648C36.6399 9.7261 36.3205 12.533 35.9257 12.533C35.5309 12.533 35.2098 9.7261 35.2098 6.26648C35.2098 2.80686 35.5293 0 35.9257 0C36.3221 0 36.6399 2.80519 36.6399 6.26648Z" fill="url(#paint3_radial_735_3235)"/>
<path fill-rule="evenodd" clip-rule="evenodd" d="M63.6438 49.7767C66.1138 45.5468 70.7954 45.539 73.2524 49.7767L73.3229 49.9072L85.9603 71.8556C88.3885 75.9209 85.8715 80.0568 81.1873 79.9994H55.2859C55.2206 79.9994 55.1579 79.9994 55.0953 79.9994C50.8889 79.9419 48.847 76.0828 50.6304 72.2968C50.6586 72.236 50.69 72.1768 50.7244 72.1193L63.6542 49.7714L63.6438 49.7767ZM67.2731 71.5814C67.4997 71.3577 67.786 71.2042 68.0978 71.1393C68.4095 71.0745 68.7333 71.1011 69.0303 71.2159C69.2576 71.3011 69.4641 71.4337 69.6361 71.6049C69.8785 71.8474 70.0405 72.1586 70.1003 72.4962C70.16 72.8338 70.1147 73.1817 69.9703 73.4927C69.8359 73.7926 69.6149 74.0455 69.3358 74.219C69.0567 74.3925 68.7321 74.4787 68.4037 74.4666C68.169 74.4621 67.9378 74.4088 67.7248 74.3099C67.5224 74.216 67.3409 74.0825 67.1907 73.9174C67.0406 73.7524 66.9249 73.559 66.8505 73.3486C66.7761 73.1383 66.7444 72.9152 66.7574 72.6924C66.7703 72.4697 66.8276 72.2517 66.9258 72.0514C67.0059 71.8726 67.1224 71.7126 67.2679 71.5814H67.2731ZM69.7144 68.1871C69.657 69.6231 67.2261 69.6257 67.1713 68.1871C66.9258 65.7275 66.2966 60.2182 66.3175 57.9074C66.3358 57.1946 66.9258 56.7742 67.683 56.6019C68.1759 56.5027 68.6837 56.5027 69.1766 56.6019C69.9599 56.7664 70.5708 57.205 70.5708 57.9309V58.004L69.7197 68.174L69.7144 68.1871Z" fill="url(#paint4_linear_735_3235)"/>
<path fill-rule="evenodd" clip-rule="evenodd" d="M63.6438 49.7767C66.1138 45.5468 70.7954 45.539 73.2524 49.7767L73.3203 49.9072L85.9577 71.8556C88.3886 75.9209 85.8715 80.0568 81.1873 79.9994H55.2859C55.2206 79.9994 55.1579 79.9994 55.0927 79.9994C50.8863 79.9419 48.8471 76.0828 50.6304 72.2968C50.6591 72.2342 50.6905 72.1767 50.7218 72.1193L63.6516 49.7714L63.6438 49.7767ZM67.2731 71.5814C67.4997 71.3577 67.7861 71.2042 68.0978 71.1393C68.4095 71.0745 68.7334 71.1011 69.0304 71.2159C69.2576 71.3011 69.4641 71.4337 69.6361 71.6049C69.8785 71.8474 70.0405 72.1586 70.1003 72.4962C70.1601 72.8338 70.1147 73.1817 69.9703 73.4927C69.8359 73.7926 69.6149 74.0455 69.3358 74.219C69.0567 74.3925 68.7321 74.4787 68.4037 74.4666C68.169 74.4621 67.9378 74.4088 67.7249 74.3099C67.5225 74.216 67.3409 74.0825 67.1908 73.9174C67.0406 73.7524 66.925 73.559 66.8506 73.3486C66.7761 73.1383 66.7445 72.9152 66.7574 72.6924C66.7703 72.4697 66.8276 72.2517 66.9259 72.0514C67.0059 71.8726 67.1224 71.7126 67.2679 71.5814H67.2731ZM69.7145 68.1871C69.657 69.6231 67.2261 69.6257 67.1713 68.1871C66.9102 65.7275 66.2966 60.2182 66.3149 57.9074C66.3358 57.1946 66.9259 56.7742 67.6805 56.6019C68.1742 56.5027 68.6828 56.5027 69.1766 56.6019C69.9599 56.7664 70.5683 57.205 70.5683 57.9309V58.004L69.7171 68.174L69.7145 68.1871Z" stroke="url(#paint5_linear_735_3235)" stroke-width="0.75" stroke-miterlimit="10"/>
<path d="M45.3265 60.1854C48.7877 60.1854 51.5938 59.8926 51.5938 59.5311C51.5938 59.1696 48.7877 58.8784 45.3265 58.8784C41.8652 58.8784 39.0608 59.1713 39.0608 59.5311C39.0608 59.8909 41.8668 60.1854 45.3265 60.1854Z" fill="url(#paint6_radial_735_3235)"/>
<path d="M46.0404 59.5274C46.0404 62.9883 45.7128 65.7981 45.323 65.7981C44.9331 65.7981 44.6088 62.9916 44.6088 59.5308C44.6088 56.0699 44.9282 53.2651 45.323 53.2651C45.7177 53.2651 46.0404 56.0683 46.0404 59.5274Z" fill="url(#paint7_radial_735_3235)"/>
<defs>
<linearGradient id="paint0_linear_735_3235" x1="0.0573438" y1="38.6905" x2="66.5186" y2="38.6905" gradientUnits="userSpaceOnUse">
<stop stop-color="white" stop-opacity="0.9"/>
<stop offset="0.04" stop-color="white" stop-opacity="0.85"/>
<stop offset="0.28" stop-color="white" stop-opacity="0.5"/>
<stop offset="0.65" stop-color="#FAFBFC" stop-opacity="0.4"/>
<stop offset="1" stop-color="#F0EFEF" stop-opacity="0.3"/>
</linearGradient>
<linearGradient id="paint1_linear_735_3235" x1="4.5382" y1="73.2595" x2="44.7481" y2="17.9056" gradientUnits="userSpaceOnUse">
<stop stop-color="white" stop-opacity="0.9"/>
<stop offset="0.28" stop-color="white" stop-opacity="0.5"/>
<stop offset="0.65" stop-color="#FAFBFC" stop-opacity="0.4"/>
<stop offset="1" stop-color="#F0EFEF" stop-opacity="0"/>
</linearGradient>
<radialGradient id="paint2_radial_735_3235" cx="0" cy="0" r="1" gradientUnits="userSpaceOnUse" gradientTransform="translate(35.7867 5.87886) rotate(90) scale(0.649143 6.26049)">
<stop stop-color="white"/>
<stop offset="0.07" stop-color="white" stop-opacity="0.93"/>
<stop offset="1" stop-color="white" stop-opacity="0"/>
</radialGradient>
<radialGradient id="paint3_radial_735_3235" cx="0" cy="0" r="1" gradientUnits="userSpaceOnUse" gradientTransform="translate(35.9753 6.31485) scale(0.716498 6.27703)">
<stop stop-color="white"/>
<stop offset="0.07" stop-color="white" stop-opacity="0.93"/>
<stop offset="1" stop-color="white" stop-opacity="0"/>
</radialGradient>
<linearGradient id="paint4_linear_735_3235" x1="68.4429" y1="80.0177" x2="68.4429" y2="46.6043" gradientUnits="userSpaceOnUse">
<stop stop-color="#79A540"/>
<stop offset="0.2" stop-color="#94C63D"/>
<stop offset="0.39" stop-color="#98CA3C"/>
<stop offset="0.59" stop-color="#93C53E"/>
<stop offset="0.74" stop-color="#9DCB3B"/>
<stop offset="0.9" stop-color="#A6CE39"/>
<stop offset="1" stop-color="#A6CE39"/>
</linearGradient>
<linearGradient id="paint5_linear_735_3235" x1="68.4429" y1="80.4093" x2="68.4429" y2="46.2126" gradientUnits="userSpaceOnUse">
<stop stop-color="#5DA560"/>
<stop offset="0.2" stop-color="#5CBA47"/>
<stop offset="0.39" stop-color="#98CA3C"/>
<stop offset="0.59" stop-color="#93C53E"/>
<stop offset="0.74" stop-color="#6FBE44"/>
<stop offset="0.9" stop-color="#A6CE39"/>
<stop offset="1" stop-color="#72BF44"/>
</linearGradient>
<radialGradient id="paint6_radial_735_3235" cx="0" cy="0" r="1" gradientUnits="userSpaceOnUse" gradientTransform="translate(45.1677 58.9815) rotate(90) scale(0.649056 6.26049)">
<stop stop-color="white"/>
<stop offset="0.07" stop-color="white" stop-opacity="0.93"/>
<stop offset="1" stop-color="white" stop-opacity="0"/>
</radialGradient>
<radialGradient id="paint7_radial_735_3235" cx="0" cy="0" r="1" gradientUnits="userSpaceOnUse" gradientTransform="translate(45.4565 59.5722) scale(0.716496 6.27619)">
<stop stop-color="white"/>
<stop offset="0.07" stop-color="white" stop-opacity="0.93"/>
<stop offset="1" stop-color="white" stop-opacity="0"/>
</radialGradient>
</defs>
</svg>
